<?xml version="1.0" standalone="no"?><!DOCTYPE svg PUBLIC "-//W3C//DTD SVG 1.1//EN" "http://www.w3.org/Graphics/SVG/1.1/DTD/svg11.dtd"><svg xmlns="http://www.w3.org/2000/svg" version="1.1" width="219px" height="409.3px" viewBox="0 0 219 409.3">  <desc>7 10 cm sheet 10 strands 300 g 175 ml 1 sheet 40 g 2 3 sticks 80 g 50 g as needed as needed</desc>  <defs/>  <g id="Polygon159983">    <path d="M 9.4 392.7 C 9.4 392.7 9.42 391.14 9.4 391.1 C 8.5 392.5 7.1 393.1 5.6 393.1 C 3.3 393.1 1.2 391.3 1.2 388.2 C 1.2 385.2 3.2 383.5 5.6 383.5 C 7.1 383.5 8.5 384 9.4 385.3 C 9.4 385.3 9.4 382.8 9.4 382.8 C 9.4 380.8 8.3 379.7 6.4 379.7 C 5.1 379.7 3.9 380.2 2.8 381.5 C 2.8 381.5 1.9 380 1.9 380 C 3.2 378.5 4.9 377.9 6.8 377.9 C 9.7 377.9 11.6 379.3 11.6 382.6 C 11.58 382.56 11.6 392.7 11.6 392.7 L 9.4 392.7 Z M 9.4 389.7 C 9.4 389.7 9.4 386.9 9.4 386.9 C 8.8 385.7 7.6 385.1 6.3 385.1 C 4.5 385.1 3.4 386.5 3.4 388.3 C 3.4 390.1 4.5 391.5 6.3 391.5 C 7.6 391.5 8.8 390.9 9.4 389.7 Z M 14.3 391 C 14.3 391 15.4 389.5 15.4 389.5 C 16.3 390.5 17.6 391.3 19.2 391.3 C 20.9 391.3 22 390.4 22 389 C 22 385.6 14.8 386.8 14.8 381.8 C 14.8 379.6 16.5 377.9 19.4 377.9 C 21.3 377.9 22.8 378.6 23.8 379.7 C 23.8 379.7 22.8 381.2 22.8 381.2 C 22 380.2 20.8 379.6 19.4 379.6 C 17.8 379.6 16.8 380.5 16.8 381.7 C 16.8 384.8 24.1 383.7 24.1 388.9 C 24.1 391.3 22.2 393.1 19.2 393.1 C 17.2 393.1 15.5 392.4 14.3 391 Z M 41.4 392.7 C 41.4 392.7 41.4 382.38 41.4 382.4 C 41.4 380.5 40.5 379.8 39.1 379.8 C 37.7 379.8 36.4 380.9 35.7 382.1 C 35.7 382.08 35.7 392.7 35.7 392.7 L 33.6 392.7 L 33.6 378.2 L 35.7 378.2 C 35.7 378.2 35.7 380.28 35.7 380.3 C 36.5 379 38.2 377.9 39.9 377.9 C 42.4 377.9 43.6 379.2 43.6 381.8 C 43.56 381.78 43.6 392.7 43.6 392.7 L 41.4 392.7 Z M 46.8 385.4 C 46.8 381.2 49 377.9 52.7 377.9 C 56.5 377.9 58.4 381.3 58.4 385.5 C 58.41 385.5 58.4 386.2 58.4 386.2 C 58.4 386.2 49.02 386.16 49 386.2 C 49.1 389.1 50.6 391.3 53.2 391.3 C 54.4 391.3 55.7 390.6 56.6 389.5 C 56.6 389.5 57.8 390.8 57.8 390.8 C 56.6 392.2 55 393.1 53 393.1 C 49.1 393.1 46.8 389.9 46.8 385.4 Z M 52.6 379.7 C 50.1 379.7 49.1 382.4 49 384.6 C 49 384.6 56.3 384.6 56.3 384.6 C 56.2 382.4 55.3 379.7 52.6 379.7 Z M 60.8 385.4 C 60.8 381.2 63.1 377.9 66.7 377.9 C 70.5 377.9 72.4 381.3 72.4 385.5 C 72.45 385.5 72.4 386.2 72.4 386.2 C 72.4 386.2 63.06 386.16 63.1 386.2 C 63.1 389.1 64.6 391.3 67.2 391.3 C 68.5 391.3 69.8 390.6 70.7 389.5 C 70.7 389.5 71.8 390.8 71.8 390.8 C 70.6 392.2 69 393.1 67 393.1 C 63.2 393.1 60.8 389.9 60.8 385.4 Z M 66.7 379.7 C 64.1 379.7 63.1 382.4 63.1 384.6 C 63.1 384.6 70.3 384.6 70.3 384.6 C 70.3 382.4 69.3 379.7 66.7 379.7 Z M 83.9 392.7 C 83.9 392.7 83.88 390.63 83.9 390.6 C 83 392.1 81.6 393.1 80.1 393.1 C 76.8 393.1 74.9 390 74.9 385.5 C 74.9 381 76.8 377.9 80.1 377.9 C 81.5 377.9 83 378.7 83.9 380.3 C 83.88 380.31 83.9 372.7 83.9 372.7 L 86 372.7 L 86 392.7 L 83.9 392.7 Z M 83.9 388.8 C 83.9 388.8 83.9 382.1 83.9 382.1 C 83.3 380.9 82 379.8 80.6 379.8 C 78.2 379.8 77.1 382.3 77.1 385.5 C 77.1 388.6 78.2 391.1 80.6 391.1 C 82 391.1 83.3 390.1 83.9 388.8 Z M 89.3 385.4 C 89.3 381.2 91.5 377.9 95.2 377.9 C 99 377.9 100.9 381.3 100.9 385.5 C 100.89 385.5 100.9 386.2 100.9 386.2 C 100.9 386.2 91.5 386.16 91.5 386.2 C 91.6 389.1 93.1 391.3 95.7 391.3 C 96.9 391.3 98.2 390.6 99.1 389.5 C 99.1 389.5 100.3 390.8 100.3 390.8 C 99.1 392.2 97.4 393.1 95.5 393.1 C 91.6 393.1 89.3 389.9 89.3 385.4 Z M 95.1 379.7 C 92.6 379.7 91.6 382.4 91.5 384.6 C 91.5 384.6 98.8 384.6 98.8 384.6 C 98.7 382.4 97.8 379.7 95.1 379.7 Z M 112.3 392.7 C 112.3 392.7 112.32 390.63 112.3 390.6 C 111.5 392.1 110 393.1 108.5 393.1 C 105.3 393.1 103.3 390 103.3 385.5 C 103.3 381 105.2 377.9 108.5 377.9 C 110 377.9 111.4 378.7 112.3 380.3 C 112.32 380.31 112.3 372.7 112.3 372.7 L 114.5 372.7 L 114.5 392.7 L 112.3 392.7 Z M 112.3 388.8 C 112.3 388.8 112.3 382.1 112.3 382.1 C 111.8 380.9 110.4 379.8 109 379.8 C 106.7 379.8 105.6 382.3 105.6 385.5 C 105.6 388.6 106.7 391.1 109 391.1 C 110.4 391.1 111.8 390.1 112.3 388.8 Z " stroke="none" fill="#d0d1d4"/>  </g>  <g id="Polygon159982">    <path d="M 9.4 356.7 C 9.4 356.7 9.42 355.14 9.4 355.1 C 8.5 356.5 7.1 357.1 5.6 357.1 C 3.3 357.1 1.2 355.3 1.2 352.2 C 1.2 349.2 3.2 347.5 5.6 347.5 C 7.1 347.5 8.5 348 9.4 349.3 C 9.4 349.3 9.4 346.8 9.4 346.8 C 9.4 344.8 8.3 343.7 6.4 343.7 C 5.1 343.7 3.9 344.2 2.8 345.5 C 2.8 345.5 1.9 344 1.9 344 C 3.2 342.5 4.9 341.9 6.8 341.9 C 9.7 341.9 11.6 343.3 11.6 346.6 C 11.58 346.56 11.6 356.7 11.6 356.7 L 9.4 356.7 Z M 9.4 353.7 C 9.4 353.7 9.4 350.9 9.4 350.9 C 8.8 349.7 7.6 349.1 6.3 349.1 C 4.5 349.1 3.4 350.5 3.4 352.3 C 3.4 354.1 4.5 355.5 6.3 355.5 C 7.6 355.5 8.8 354.9 9.4 353.7 Z M 14.3 355 C 14.3 355 15.4 353.5 15.4 353.5 C 16.3 354.5 17.6 355.3 19.2 355.3 C 20.9 355.3 22 354.4 22 353 C 22 349.6 14.8 350.8 14.8 345.8 C 14.8 343.6 16.5 341.9 19.4 341.9 C 21.3 341.9 22.8 342.6 23.8 343.7 C 23.8 343.7 22.8 345.2 22.8 345.2 C 22 344.2 20.8 343.6 19.4 343.6 C 17.8 343.6 16.8 344.5 16.8 345.7 C 16.8 348.8 24.1 347.7 24.1 352.9 C 24.1 355.3 22.2 357.1 19.2 357.1 C 17.2 357.1 15.5 356.4 14.3 355 Z M 41.4 356.7 C 41.4 356.7 41.4 346.38 41.4 346.4 C 41.4 344.5 40.5 343.8 39.1 343.8 C 37.7 343.8 36.4 344.9 35.7 346.1 C 35.7 346.08 35.7 356.7 35.7 356.7 L 33.6 356.7 L 33.6 342.2 L 35.7 342.2 C 35.7 342.2 35.7 344.28 35.7 344.3 C 36.5 343 38.2 341.9 39.9 341.9 C 42.4 341.9 43.6 343.2 43.6 345.8 C 43.56 345.78 43.6 356.7 43.6 356.7 L 41.4 356.7 Z M 46.8 349.4 C 46.8 345.2 49 341.9 52.7 341.9 C 56.5 341.9 58.4 345.3 58.4 349.5 C 58.41 349.5 58.4 350.2 58.4 350.2 C 58.4 350.2 49.02 350.16 49 350.2 C 49.1 353.1 50.6 355.3 53.2 355.3 C 54.4 355.3 55.7 354.6 56.6 353.5 C 56.6 353.5 57.8 354.8 57.8 354.8 C 56.6 356.2 55 357.1 53 357.1 C 49.1 357.1 46.8 353.9 46.8 349.4 Z M 52.6 343.7 C 50.1 343.7 49.1 346.4 49 348.6 C 49 348.6 56.3 348.6 56.3 348.6 C 56.2 346.4 55.3 343.7 52.6 343.7 Z M 60.8 349.4 C 60.8 345.2 63.1 341.9 66.7 341.9 C 70.5 341.9 72.4 345.3 72.4 349.5 C 72.45 349.5 72.4 350.2 72.4 350.2 C 72.4 350.2 63.06 350.16 63.1 350.2 C 63.1 353.1 64.6 355.3 67.2 355.3 C 68.5 355.3 69.8 354.6 70.7 353.5 C 70.7 353.5 71.8 354.8 71.8 354.8 C 70.6 356.2 69 357.1 67 357.1 C 63.2 357.1 60.8 353.9 60.8 349.4 Z M 66.7 343.7 C 64.1 343.7 63.1 346.4 63.1 348.6 C 63.1 348.6 70.3 348.6 70.3 348.6 C 70.3 346.4 69.3 343.7 66.7 343.7 Z M 83.9 356.7 C 83.9 356.7 83.88 354.63 83.9 354.6 C 83 356.1 81.6 357.1 80.1 357.1 C 76.8 357.1 74.9 354 74.9 349.5 C 74.9 345 76.8 341.9 80.1 341.9 C 81.5 341.9 83 342.7 83.9 344.3 C 83.88 344.31 83.9 336.7 83.9 336.7 L 86 336.7 L 86 356.7 L 83.9 356.7 Z M 83.9 352.8 C 83.9 352.8 83.9 346.1 83.9 346.1 C 83.3 344.9 82 343.8 80.6 343.8 C 78.2 343.8 77.1 346.3 77.1 349.5 C 77.1 352.6 78.2 355.1 80.6 355.1 C 82 355.1 83.3 354.1 83.9 352.8 Z M 89.3 349.4 C 89.3 345.2 91.5 341.9 95.2 341.9 C 99 341.9 100.9 345.3 100.9 349.5 C 100.89 349.5 100.9 350.2 100.9 350.2 C 100.9 350.2 91.5 350.16 91.5 350.2 C 91.6 353.1 93.1 355.3 95.7 355.3 C 96.9 355.3 98.2 354.6 99.1 353.5 C 99.1 353.5 100.3 354.8 100.3 354.8 C 99.1 356.2 97.4 357.1 95.5 357.1 C 91.6 357.1 89.3 353.9 89.3 349.4 Z M 95.1 343.7 C 92.6 343.7 91.6 346.4 91.5 348.6 C 91.5 348.6 98.8 348.6 98.8 348.6 C 98.7 346.4 97.8 343.7 95.1 343.7 Z M 112.3 356.7 C 112.3 356.7 112.32 354.63 112.3 354.6 C 111.5 356.1 110 357.1 108.5 357.1 C 105.3 357.1 103.3 354 103.3 349.5 C 103.3 345 105.2 341.9 108.5 341.9 C 110 341.9 111.4 342.7 112.3 344.3 C 112.32 344.31 112.3 336.7 112.3 336.7 L 114.5 336.7 L 114.5 356.7 L 112.3 356.7 Z M 112.3 352.8 C 112.3 352.8 112.3 346.1 112.3 346.1 C 111.8 344.9 110.4 343.8 109 343.8 C 106.7 343.8 105.6 346.3 105.6 349.5 C 105.6 352.6 106.7 355.1 109 355.1 C 110.4 355.1 111.8 354.1 112.3 352.8 Z " stroke="none" fill="#d0d1d4"/>  </g>  <g id="Polygon159981">    <path d="M 1.6 317.8 C 1.6 317.8 3.1 316.4 3.1 316.4 C 4.1 318 5.4 318.9 7.4 318.9 C 9.6 318.9 10.9 316.9 10.9 314.6 C 10.9 311.7 9.6 310.2 7.5 310.2 C 6.1 310.2 5 310.7 3.9 312 C 3.9 312.03 2.1 311.4 2.1 311.4 L 2.1 300.7 L 12.3 300.7 L 12.3 302.8 L 4.5 302.8 C 4.5 302.8 4.5 309.81 4.5 309.8 C 5.3 308.9 6.6 308.1 8.2 308.1 C 11.1 308.1 13.4 310.4 13.4 314.5 C 13.4 318.3 10.9 321.1 7.4 321.1 C 4.5 321.1 2.8 319.8 1.6 317.8 Z M 16.1 310.7 C 16.1 305.9 17.7 300.4 22.4 300.4 C 27.1 300.4 28.7 305.9 28.7 310.7 C 28.7 315.5 27.1 321.1 22.4 321.1 C 17.7 321.1 16.1 315.5 16.1 310.7 Z M 26.2 310.7 C 26.2 306.8 25.5 302.5 22.4 302.5 C 19.3 302.5 18.6 306.8 18.6 310.7 C 18.6 314.6 19.3 318.9 22.4 318.9 C 25.5 318.9 26.2 314.6 26.2 310.7 Z M 38.4 324.8 C 38.4 324.8 39.4 323.1 39.4 323.1 C 40.3 324.2 41.6 324.8 43.2 324.8 C 45.1 324.8 46.8 323.6 46.8 320.8 C 46.8 320.8 46.8 318.4 46.8 318.4 C 46 319.9 44.5 320.9 43 320.9 C 39.7 320.9 37.8 317.9 37.8 313.4 C 37.8 308.9 39.7 305.9 43 305.9 C 44.5 305.9 45.9 306.7 46.8 308.3 C 46.8 308.31 46.8 306.2 46.8 306.2 L 49 306.2 C 49 306.2 48.96 320.67 49 320.7 C 49 325.1 46.3 326.6 43.2 326.6 C 41.3 326.6 39.8 326.1 38.4 324.8 Z M 46.8 316.6 C 46.8 316.6 46.8 310.1 46.8 310.1 C 46.3 308.9 44.9 307.8 43.5 307.8 C 41.2 307.8 40 310.3 40 313.4 C 40 316.5 41.2 319 43.5 319 C 44.9 319 46.3 317.8 46.8 316.6 Z " stroke="none" fill="#d0d1d4"/>  </g>  <g id="Polygon159980">    <path d="M 1.4 279.8 C 1.4 277.1 3.4 275.1 5.3 274.4 C 3.5 273.7 1.6 272 1.6 269.5 C 1.6 266 4.4 264.4 7.3 264.4 C 10.2 264.4 13 266 13 269.5 C 13 272 11.1 273.7 9.3 274.4 C 11.2 275.1 13.2 277.1 13.2 279.8 C 13.2 283.1 10.8 285.1 7.3 285.1 C 3.8 285.1 1.4 283.1 1.4 279.8 Z M 10.6 269.8 C 10.6 267.8 9.2 266.5 7.3 266.5 C 5.3 266.5 4 267.8 4 269.8 C 4 272.3 6.5 273.3 7.3 273.5 C 8.1 273.3 10.6 272.3 10.6 269.8 Z M 10.8 279.5 C 10.8 276.8 8.1 275.5 7.3 275.4 C 6.4 275.5 3.8 276.8 3.8 279.5 C 3.8 281.7 5.3 282.9 7.3 282.9 C 9.2 282.9 10.8 281.7 10.8 279.5 Z M 16 274.7 C 16 269.9 17.6 264.4 22.3 264.4 C 26.9 264.4 28.5 269.9 28.5 274.7 C 28.5 279.5 26.9 285.1 22.3 285.1 C 17.6 285.1 16 279.5 16 274.7 Z M 26.1 274.7 C 26.1 270.8 25.3 266.5 22.3 266.5 C 19.2 266.5 18.4 270.8 18.4 274.7 C 18.4 278.6 19.2 282.9 22.3 282.9 C 25.3 282.9 26.1 278.6 26.1 274.7 Z M 38.2 288.8 C 38.2 288.8 39.2 287.1 39.2 287.1 C 40.2 288.2 41.4 288.8 43 288.8 C 45 288.8 46.6 287.6 46.6 284.8 C 46.6 284.8 46.6 282.4 46.6 282.4 C 45.8 283.9 44.4 284.9 42.8 284.9 C 39.6 284.9 37.6 281.9 37.6 277.4 C 37.6 272.9 39.6 269.9 42.8 269.9 C 44.3 269.9 45.7 270.7 46.6 272.3 C 46.65 272.31 46.6 270.2 46.6 270.2 L 48.8 270.2 C 48.8 270.2 48.81 284.67 48.8 284.7 C 48.8 289.1 46.1 290.6 43.1 290.6 C 41.1 290.6 39.6 290.1 38.2 288.8 Z M 46.6 280.6 C 46.6 280.6 46.6 274.1 46.6 274.1 C 46.1 272.9 44.8 271.8 43.4 271.8 C 41 271.8 39.9 274.3 39.9 277.4 C 39.9 280.5 41 283 43.4 283 C 44.8 283 46.1 281.8 46.6 280.6 Z " stroke="none" fill="#d0d1d4"/>  </g>  <g id="Polygon159979">    <path d="M 1.6 248.7 C 1.6 248.7 1.59 246.75 1.6 246.8 C 8.1 239.2 10.4 236.8 10.4 233.9 C 10.4 231.7 8.9 230.5 7.2 230.5 C 5.3 230.5 3.9 231.5 2.9 233 C 2.9 233 1.4 231.6 1.4 231.6 C 2.7 229.6 4.7 228.4 7.2 228.4 C 10.3 228.4 12.8 230.4 12.8 233.9 C 12.8 237.2 10.3 240.2 5 246.6 C 4.98 246.57 12.9 246.6 12.9 246.6 L 12.9 248.7 L 1.6 248.7 Z M 16.9 242.4 L 16.9 240.5 L 30.9 240.5 L 30.9 242.4 L 16.9 242.4 Z M 33.9 245.7 C 33.9 245.7 35.5 244.3 35.5 244.3 C 36.4 245.8 37.9 246.9 39.8 246.9 C 42.2 246.9 43.4 245.4 43.4 243.1 C 43.4 240.4 41.6 239.5 39.6 239.5 C 39 239.5 38.3 239.5 38 239.5 C 38 239.5 38 237.4 38 237.4 C 38.3 237.4 39 237.4 39.5 237.4 C 41.5 237.4 43.2 236.3 43.2 234 C 43.2 231.7 41.7 230.5 39.7 230.5 C 37.9 230.5 36.7 231.5 35.7 232.9 C 35.7 232.9 34.2 231.5 34.2 231.5 C 35.4 229.6 37.4 228.4 39.9 228.4 C 43.1 228.4 45.5 230.2 45.5 233.7 C 45.5 236.2 43.8 237.9 42 238.4 C 43.7 238.6 45.8 240.4 45.8 243.3 C 45.8 246.6 43.7 249.1 39.9 249.1 C 37 249.1 34.9 247.6 33.9 245.7 Z M 54.5 247 C 54.5 247 55.6 245.5 55.6 245.5 C 56.4 246.5 57.8 247.3 59.4 247.3 C 61 247.3 62.2 246.4 62.2 245 C 62.2 241.6 54.9 242.8 54.9 237.8 C 54.9 235.6 56.7 233.9 59.5 233.9 C 61.5 233.9 62.9 234.6 64 235.7 C 64 235.7 62.9 237.2 62.9 237.2 C 62.2 236.2 61 235.6 59.6 235.6 C 58 235.6 57 236.5 57 237.7 C 57 240.8 64.2 239.7 64.2 244.9 C 64.2 247.3 62.4 249.1 59.4 249.1 C 57.4 249.1 55.7 248.4 54.5 247 Z M 67.7 245.8 C 67.71 245.79 67.7 236.1 67.7 236.1 L 65.8 236.1 L 65.8 234.2 L 67.7 234.2 L 67.7 230.3 L 69.9 230.3 L 69.9 234.2 L 72.3 234.2 L 72.3 236.1 L 69.9 236.1 C 69.9 236.1 69.87 245.4 69.9 245.4 C 69.9 246.5 70.2 247.1 71 247.1 C 71.6 247.1 72 246.9 72.3 246.6 C 72.3 246.6 73 248.2 73 248.2 C 72.4 248.7 71.7 249.1 70.6 249.1 C 68.6 249.1 67.7 248 67.7 245.8 Z M 74.8 230.6 C 74.8 229.8 75.4 229.2 76.2 229.2 C 77 229.2 77.7 229.8 77.7 230.6 C 77.7 231.5 77 232.1 76.2 232.1 C 75.4 232.1 74.8 231.5 74.8 230.6 Z M 75.2 248.7 L 75.2 234.2 L 77.3 234.2 L 77.3 248.7 L 75.2 248.7 Z M 80.5 241.4 C 80.5 237.2 82.8 233.9 86.5 233.9 C 88.6 233.9 89.8 234.7 90.7 235.8 C 90.7 235.8 89.5 237.2 89.5 237.2 C 88.7 236.2 87.8 235.8 86.7 235.8 C 84.1 235.8 82.8 238.4 82.8 241.4 C 82.8 244.5 84.1 247.1 86.7 247.1 C 87.8 247.1 88.7 246.7 89.5 245.7 C 89.5 245.7 90.7 247.1 90.7 247.1 C 89.8 248.3 88.6 249.1 86.5 249.1 C 82.8 249.1 80.5 245.7 80.5 241.4 Z M 101.6 248.7 L 97.6 242.2 L 95.6 244.8 L 95.6 248.7 L 93.4 248.7 L 93.4 228.7 L 95.6 228.7 L 95.6 242.1 L 101.6 234.2 L 104.2 234.2 L 99.1 240.7 L 104.2 248.7 L 101.6 248.7 Z M 105.4 247 C 105.4 247 106.5 245.5 106.5 245.5 C 107.3 246.5 108.7 247.3 110.3 247.3 C 112 247.3 113.1 246.4 113.1 245 C 113.1 241.6 105.8 242.8 105.8 237.8 C 105.8 235.6 107.6 233.9 110.5 233.9 C 112.4 233.9 113.8 234.6 114.9 235.7 C 114.9 235.7 113.8 237.2 113.8 237.2 C 113.1 236.2 111.9 235.6 110.5 235.6 C 108.9 235.6 107.9 236.5 107.9 237.7 C 107.9 240.8 115.1 239.7 115.1 244.9 C 115.1 247.3 113.3 249.1 110.3 249.1 C 108.3 249.1 106.6 248.4 105.4 247 Z " stroke="none" fill="#d0d1d4"/>  </g>  <g id="Polygon159978">    <path d="M 8.6 212.7 L 8.6 207.6 L 0.7 207.6 L 0.7 205.5 L 7.9 192.7 L 11 192.7 L 11 205.5 L 13.2 205.5 L 13.2 207.6 L 11 207.6 L 11 212.7 L 8.6 212.7 Z M 8.6 195.3 L 2.9 205.5 L 8.6 205.5 L 8.6 195.3 Z M 15.3 202.7 C 15.3 197.9 16.9 192.4 21.5 192.4 C 26.2 192.4 27.8 197.9 27.8 202.7 C 27.8 207.5 26.2 213.1 21.5 213.1 C 16.9 213.1 15.3 207.5 15.3 202.7 Z M 25.4 202.7 C 25.4 198.8 24.6 194.5 21.5 194.5 C 18.5 194.5 17.7 198.8 17.7 202.7 C 17.7 206.6 18.4 210.9 21.5 210.9 C 24.6 210.9 25.4 206.6 25.4 202.7 Z M 37.5 216.8 C 37.5 216.8 38.5 215.1 38.5 215.1 C 39.5 216.2 40.7 216.8 42.3 216.8 C 44.3 216.8 45.9 215.6 45.9 212.8 C 45.9 212.8 45.9 210.4 45.9 210.4 C 45.1 211.9 43.6 212.9 42.1 212.9 C 38.9 212.9 36.9 209.9 36.9 205.4 C 36.9 200.9 38.8 197.9 42.1 197.9 C 43.6 197.9 45 198.7 45.9 200.3 C 45.93 200.31 45.9 198.2 45.9 198.2 L 48.1 198.2 C 48.1 198.2 48.09 212.67 48.1 212.7 C 48.1 217.1 45.4 218.6 42.4 218.6 C 40.4 218.6 38.9 218.1 37.5 216.8 Z M 45.9 208.6 C 45.9 208.6 45.9 202.1 45.9 202.1 C 45.4 200.9 44 199.8 42.7 199.8 C 40.3 199.8 39.2 202.3 39.2 205.4 C 39.2 208.5 40.3 211 42.7 211 C 44 211 45.4 209.8 45.9 208.6 Z " stroke="none" fill="#d0d1d4"/>  </g>  <g id="Polygon159977">    <path d="M 5 176.7 L 5 159.8 L 1.9 163.1 L 0.4 161.6 L 5.3 156.7 L 7.3 156.7 L 7.3 176.7 L 5 176.7 Z M 16.7 175 C 16.7 175 17.8 173.5 17.8 173.5 C 18.6 174.5 20 175.3 21.6 175.3 C 23.2 175.3 24.4 174.4 24.4 173 C 24.4 169.6 17.1 170.8 17.1 165.8 C 17.1 163.6 18.9 161.9 21.7 161.9 C 23.7 161.9 25.1 162.6 26.2 163.7 C 26.2 163.7 25.1 165.2 25.1 165.2 C 24.4 164.2 23.2 163.6 21.8 163.6 C 20.2 163.6 19.2 164.5 19.2 165.7 C 19.2 168.8 26.4 167.7 26.4 172.9 C 26.4 175.3 24.6 177.1 21.6 177.1 C 19.6 177.1 17.9 176.4 16.7 175 Z M 37.3 176.7 C 37.3 176.7 37.35 166.35 37.3 166.4 C 37.3 164.4 36.4 163.8 35 163.8 C 33.6 163.8 32.3 164.9 31.6 166.1 C 31.62 166.08 31.6 176.7 31.6 176.7 L 29.5 176.7 L 29.5 156.7 L 31.6 156.7 C 31.6 156.7 31.62 164.28 31.6 164.3 C 32.5 163 34.1 161.9 35.8 161.9 C 38.3 161.9 39.5 163.1 39.5 165.7 C 39.48 165.72 39.5 176.7 39.5 176.7 L 37.3 176.7 Z M 42.7 169.4 C 42.7 165.2 44.9 161.9 48.6 161.9 C 52.4 161.9 54.3 165.3 54.3 169.5 C 54.33 169.5 54.3 170.2 54.3 170.2 C 54.3 170.2 44.94 170.16 44.9 170.2 C 45 173.1 46.5 175.3 49.1 175.3 C 50.4 175.3 51.7 174.6 52.6 173.5 C 52.6 173.5 53.7 174.8 53.7 174.8 C 52.5 176.2 50.9 177.1 48.9 177.1 C 45.1 177.1 42.7 173.9 42.7 169.4 Z M 48.6 163.7 C 46 163.7 45 166.4 44.9 168.6 C 44.9 168.6 52.2 168.6 52.2 168.6 C 52.2 166.4 51.2 163.7 48.6 163.7 Z M 56.8 169.4 C 56.8 165.2 59 161.9 62.6 161.9 C 66.4 161.9 68.4 165.3 68.4 169.5 C 68.37 169.5 68.4 170.2 68.4 170.2 C 68.4 170.2 58.98 170.16 59 170.2 C 59.1 173.1 60.6 175.3 63.1 175.3 C 64.4 175.3 65.7 174.6 66.6 173.5 C 66.6 173.5 67.7 174.8 67.7 174.8 C 66.6 176.2 64.9 177.1 63 177.1 C 59.1 177.1 56.8 173.9 56.8 169.4 Z M 62.6 163.7 C 60.1 163.7 59 166.4 59 168.6 C 59 168.6 66.2 168.6 66.2 168.6 C 66.2 166.4 65.2 163.7 62.6 163.7 Z M 71.9 173.8 C 71.94 173.79 71.9 164.1 71.9 164.1 L 70 164.1 L 70 162.2 L 71.9 162.2 L 71.9 158.3 L 74.1 158.3 L 74.1 162.2 L 76.6 162.2 L 76.6 164.1 L 74.1 164.1 C 74.1 164.1 74.1 173.4 74.1 173.4 C 74.1 174.5 74.4 175.1 75.3 175.1 C 75.8 175.1 76.3 174.9 76.5 174.6 C 76.5 174.6 77.2 176.2 77.2 176.2 C 76.7 176.7 76 177.1 74.8 177.1 C 72.9 177.1 71.9 176 71.9 173.8 Z " stroke="none" fill="#d0d1d4"/>  </g>  <g id="Polygon159976">    <path d="M 5 140.7 L 5 123.8 L 1.9 127.1 L 0.4 125.6 L 5.3 120.7 L 7.3 120.7 L 7.3 140.7 L 5 140.7 Z M 12.4 140.7 L 18.7 122.8 L 10.2 122.8 L 10.2 120.7 L 21.4 120.7 L 21.4 122.3 L 15 140.7 L 12.4 140.7 Z M 23.7 137.8 C 23.7 137.8 25.3 136.4 25.3 136.4 C 26.2 138 27.5 138.9 29.5 138.9 C 31.7 138.9 33.1 136.9 33.1 134.6 C 33.1 131.7 31.7 130.2 29.6 130.2 C 28.2 130.2 27.1 130.7 26 132 C 26.01 132.03 24.2 131.4 24.2 131.4 L 24.2 120.7 L 34.4 120.7 L 34.4 122.8 L 26.6 122.8 C 26.6 122.8 26.61 129.81 26.6 129.8 C 27.4 128.9 28.7 128.1 30.3 128.1 C 33.2 128.1 35.5 130.4 35.5 134.5 C 35.5 138.3 33 141.1 29.5 141.1 C 26.6 141.1 24.9 139.8 23.7 137.8 Z M 59.9 140.7 C 59.9 140.7 59.91 130.2 59.9 130.2 C 59.9 128.6 59.3 127.8 57.9 127.8 C 56.6 127.8 55.3 128.9 54.7 130.1 C 54.75 130.08 54.7 140.7 54.7 140.7 L 52.6 140.7 C 52.6 140.7 52.59 130.2 52.6 130.2 C 52.6 128.6 52 127.8 50.5 127.8 C 49.3 127.8 48 128.9 47.4 130.1 C 47.4 130.08 47.4 140.7 47.4 140.7 L 45.3 140.7 L 45.3 126.2 L 47.4 126.2 C 47.4 126.2 47.4 128.28 47.4 128.3 C 48 127.2 49.6 125.9 51.4 125.9 C 53.2 125.9 54.4 126.9 54.6 128.4 C 55.3 127.1 57 125.9 58.7 125.9 C 60.8 125.9 62.1 127 62.1 129.6 C 62.07 129.63 62.1 140.7 62.1 140.7 L 59.9 140.7 Z M 66 140.7 L 66 120.7 L 68.2 120.7 L 68.2 140.7 L 66 140.7 Z " stroke="none" fill="#d0d1d4"/>  </g>  <g id="Polygon159975">    <path d="M 0.9 101.7 C 0.9 101.7 2.4 100.3 2.4 100.3 C 3.4 101.8 4.8 102.9 6.7 102.9 C 9.1 102.9 10.3 101.4 10.3 99.1 C 10.3 96.4 8.6 95.5 6.5 95.5 C 5.9 95.5 5.2 95.5 4.9 95.5 C 4.9 95.5 4.9 93.4 4.9 93.4 C 5.2 93.4 6 93.4 6.5 93.4 C 8.5 93.4 10.1 92.3 10.1 90 C 10.1 87.7 8.7 86.5 6.7 86.5 C 4.9 86.5 3.6 87.5 2.6 88.9 C 2.6 88.9 1.1 87.5 1.1 87.5 C 2.3 85.6 4.3 84.4 6.8 84.4 C 10.1 84.4 12.5 86.2 12.5 89.7 C 12.5 92.2 10.7 93.9 8.9 94.4 C 10.7 94.6 12.8 96.4 12.8 99.3 C 12.8 102.6 10.6 105.1 6.8 105.1 C 4 105.1 1.9 103.6 0.9 101.7 Z M 15.6 94.7 C 15.6 89.9 17.2 84.4 21.9 84.4 C 26.5 84.4 28.1 89.9 28.1 94.7 C 28.1 99.5 26.5 105.1 21.9 105.1 C 17.2 105.1 15.6 99.5 15.6 94.7 Z M 25.7 94.7 C 25.7 90.8 25 86.5 21.9 86.5 C 18.8 86.5 18.1 90.8 18.1 94.7 C 18.1 98.6 18.8 102.9 21.9 102.9 C 25 102.9 25.7 98.6 25.7 94.7 Z M 31 94.7 C 31 89.9 32.5 84.4 37.2 84.4 C 41.9 84.4 43.5 89.9 43.5 94.7 C 43.5 99.5 41.9 105.1 37.2 105.1 C 32.5 105.1 31 99.5 31 94.7 Z M 41.1 94.7 C 41.1 90.8 40.3 86.5 37.2 86.5 C 34.2 86.5 33.4 90.8 33.4 94.7 C 33.4 98.6 34.1 102.9 37.2 102.9 C 40.3 102.9 41.1 98.6 41.1 94.7 Z M 53.2 108.8 C 53.2 108.8 54.2 107.1 54.2 107.1 C 55.2 108.2 56.4 108.8 58 108.8 C 60 108.8 61.6 107.6 61.6 104.8 C 61.6 104.8 61.6 102.4 61.6 102.4 C 60.8 103.9 59.3 104.9 57.8 104.9 C 54.6 104.9 52.6 101.9 52.6 97.4 C 52.6 92.9 54.5 89.9 57.8 89.9 C 59.3 89.9 60.7 90.7 61.6 92.3 C 61.62 92.31 61.6 90.2 61.6 90.2 L 63.8 90.2 C 63.8 90.2 63.78 104.67 63.8 104.7 C 63.8 109.1 61.1 110.6 58 110.6 C 56.1 110.6 54.6 110.1 53.2 108.8 Z M 61.6 100.6 C 61.6 100.6 61.6 94.1 61.6 94.1 C 61.1 92.9 59.7 91.8 58.3 91.8 C 56 91.8 54.9 94.3 54.9 97.4 C 54.9 100.5 56 103 58.3 103 C 59.7 103 61.1 101.8 61.6 100.6 Z " stroke="none" fill="#d0d1d4"/>  </g>  <g id="Polygon159974">    <path d="M 5 68.7 L 5 51.8 L 1.9 55.1 L 0.4 53.6 L 5.3 48.7 L 7.3 48.7 L 7.3 68.7 L 5 68.7 Z M 10.9 58.7 C 10.9 53.9 12.4 48.4 17.1 48.4 C 21.8 48.4 23.4 53.9 23.4 58.7 C 23.4 63.5 21.8 69.1 17.1 69.1 C 12.4 69.1 10.9 63.5 10.9 58.7 Z M 21 58.7 C 21 54.8 20.2 50.5 17.1 50.5 C 14.1 50.5 13.3 54.8 13.3 58.7 C 13.3 62.6 14 66.9 17.1 66.9 C 20.2 66.9 21 62.6 21 58.7 Z M 32.1 67 C 32.1 67 33.1 65.5 33.1 65.5 C 34 66.5 35.4 67.3 36.9 67.3 C 38.6 67.3 39.7 66.4 39.7 65 C 39.7 61.6 32.5 62.8 32.5 57.8 C 32.5 55.6 34.2 53.9 37.1 53.9 C 39 53.9 40.5 54.6 41.5 55.7 C 41.5 55.7 40.5 57.2 40.5 57.2 C 39.8 56.2 38.5 55.6 37.1 55.6 C 35.5 55.6 34.6 56.5 34.6 57.7 C 34.6 60.8 41.8 59.7 41.8 64.9 C 41.8 67.3 39.9 69.1 37 69.1 C 34.9 69.1 33.3 68.4 32.1 67 Z M 45.3 65.8 C 45.27 65.79 45.3 56.1 45.3 56.1 L 43.3 56.1 L 43.3 54.2 L 45.3 54.2 L 45.3 50.3 L 47.4 50.3 L 47.4 54.2 L 49.9 54.2 L 49.9 56.1 L 47.4 56.1 C 47.4 56.1 47.43 65.4 47.4 65.4 C 47.4 66.5 47.8 67.1 48.6 67.1 C 49.1 67.1 49.6 66.9 49.9 66.6 C 49.9 66.6 50.5 68.2 50.5 68.2 C 50 68.7 49.3 69.1 48.2 69.1 C 46.2 69.1 45.3 68 45.3 65.8 Z M 52.7 68.7 L 52.7 54.2 L 54.9 54.2 C 54.9 54.2 54.87 56.52 54.9 56.5 C 55.8 55 57.2 53.9 59 53.9 C 59 53.9 59 56.1 59 56.1 C 58.7 56.1 58.5 56 58.3 56 C 56.9 56 55.5 57.2 54.9 58.4 C 54.87 58.41 54.9 68.7 54.9 68.7 L 52.7 68.7 Z M 68.9 68.7 C 68.9 68.7 68.91 67.14 68.9 67.1 C 68 68.5 66.6 69.1 65.1 69.1 C 62.8 69.1 60.7 67.3 60.7 64.2 C 60.7 61.2 62.7 59.5 65.1 59.5 C 66.6 59.5 68 60 68.9 61.3 C 68.9 61.3 68.9 58.8 68.9 58.8 C 68.9 56.8 67.8 55.7 65.9 55.7 C 64.6 55.7 63.4 56.2 62.3 57.5 C 62.3 57.5 61.3 56 61.3 56 C 62.7 54.5 64.4 53.9 66.3 53.9 C 69.1 53.9 71.1 55.3 71.1 58.6 C 71.07 58.56 71.1 68.7 71.1 68.7 L 68.9 68.7 Z M 68.9 65.7 C 68.9 65.7 68.9 62.9 68.9 62.9 C 68.2 61.7 67 61.1 65.8 61.1 C 64 61.1 62.9 62.5 62.9 64.3 C 62.9 66.1 64 67.5 65.8 67.5 C 67 67.5 68.2 66.9 68.9 65.7 Z M 82.8 68.7 C 82.8 68.7 82.83 58.38 82.8 58.4 C 82.8 56.5 82 55.8 80.5 55.8 C 79.1 55.8 77.8 56.9 77.1 58.1 C 77.13 58.08 77.1 68.7 77.1 68.7 L 75 68.7 L 75 54.2 L 77.1 54.2 C 77.1 54.2 77.13 56.28 77.1 56.3 C 78 55 79.6 53.9 81.3 53.9 C 83.8 53.9 85 55.2 85 57.8 C 84.99 57.78 85 68.7 85 68.7 L 82.8 68.7 Z M 97.2 68.7 C 97.2 68.7 97.23 66.63 97.2 66.6 C 96.4 68.1 94.9 69.1 93.4 69.1 C 90.2 69.1 88.2 66 88.2 61.5 C 88.2 57 90.1 53.9 93.4 53.9 C 94.9 53.9 96.4 54.7 97.2 56.3 C 97.23 56.31 97.2 48.7 97.2 48.7 L 99.4 48.7 L 99.4 68.7 L 97.2 68.7 Z M 97.2 64.8 C 97.2 64.8 97.2 58.1 97.2 58.1 C 96.7 56.9 95.3 55.8 94 55.8 C 91.6 55.8 90.5 58.3 90.5 61.5 C 90.5 64.6 91.6 67.1 94 67.1 C 95.3 67.1 96.7 66.1 97.2 64.8 Z M 102.2 67 C 102.2 67 103.3 65.5 103.3 65.5 C 104.1 66.5 105.5 67.3 107 67.3 C 108.7 67.3 109.8 66.4 109.8 65 C 109.8 61.6 102.6 62.8 102.6 57.8 C 102.6 55.6 104.3 53.9 107.2 53.9 C 109.1 53.9 110.6 54.6 111.6 55.7 C 111.6 55.7 110.6 57.2 110.6 57.2 C 109.9 56.2 108.7 55.6 107.2 55.6 C 105.7 55.6 104.7 56.5 104.7 57.7 C 104.7 60.8 111.9 59.7 111.9 64.9 C 111.9 67.3 110 69.1 107.1 69.1 C 105 69.1 103.4 68.4 102.2 67 Z " stroke="none" fill="#d0d1d4"/>  </g>  <g id="Polygon159973">    <path d="M 3 32.7 L 9.2 14.8 L 0.8 14.8 L 0.8 12.7 L 11.9 12.7 L 11.9 14.3 L 5.5 32.7 L 3 32.7 Z M 20.5 23.8 L 16.7 27.6 L 15.6 26.5 L 19.4 22.7 L 15.6 18.8 L 16.7 17.8 L 20.5 21.6 L 24.4 17.8 L 25.4 18.8 L 21.6 22.7 L 25.4 26.5 L 24.4 27.6 L 20.5 23.8 Z M 33.4 32.7 L 33.4 15.8 L 30.3 19.1 L 28.9 17.6 L 33.7 12.7 L 35.8 12.7 L 35.8 32.7 L 33.4 32.7 Z M 39.3 22.7 C 39.3 17.9 40.9 12.4 45.5 12.4 C 50.2 12.4 51.8 17.9 51.8 22.7 C 51.8 27.5 50.2 33.1 45.5 33.1 C 40.9 33.1 39.3 27.5 39.3 22.7 Z M 49.4 22.7 C 49.4 18.8 48.6 14.5 45.5 14.5 C 42.5 14.5 41.7 18.8 41.7 22.7 C 41.7 26.6 42.4 30.9 45.5 30.9 C 48.6 30.9 49.4 26.6 49.4 22.7 Z M 60.9 25.4 C 60.9 21.2 63.2 17.9 66.9 17.9 C 68.9 17.9 70.2 18.7 71.1 19.8 C 71.1 19.8 69.9 21.2 69.9 21.2 C 69.1 20.2 68.2 19.8 67.1 19.8 C 64.5 19.8 63.2 22.4 63.2 25.4 C 63.2 28.5 64.5 31.1 67.1 31.1 C 68.2 31.1 69.1 30.7 69.9 29.7 C 69.9 29.7 71.1 31.1 71.1 31.1 C 70.2 32.3 68.9 33.1 66.9 33.1 C 63.2 33.1 60.9 29.7 60.9 25.4 Z M 88.5 32.7 C 88.5 32.7 88.47 22.2 88.5 22.2 C 88.5 20.6 87.8 19.8 86.5 19.8 C 85.2 19.8 83.9 20.9 83.3 22.1 C 83.31 22.08 83.3 32.7 83.3 32.7 L 81.1 32.7 C 81.1 32.7 81.15 22.2 81.1 22.2 C 81.1 20.6 80.5 19.8 79.1 19.8 C 77.8 19.8 76.6 20.9 76 22.1 C 75.96 22.08 76 32.7 76 32.7 L 73.8 32.7 L 73.8 18.2 L 76 18.2 C 76 18.2 75.96 20.28 76 20.3 C 76.6 19.2 78.2 17.9 79.9 17.9 C 81.8 17.9 82.9 18.9 83.2 20.4 C 83.9 19.1 85.5 17.9 87.3 17.9 C 89.4 17.9 90.6 19 90.6 21.6 C 90.63 21.63 90.6 32.7 90.6 32.7 L 88.5 32.7 Z M 99.9 31 C 99.9 31 100.9 29.5 100.9 29.5 C 101.8 30.5 103.2 31.3 104.7 31.3 C 106.4 31.3 107.5 30.4 107.5 29 C 107.5 25.6 100.3 26.8 100.3 21.8 C 100.3 19.6 102 17.9 104.9 17.9 C 106.8 17.9 108.3 18.6 109.3 19.7 C 109.3 19.7 108.3 21.2 108.3 21.2 C 107.6 20.2 106.3 19.6 104.9 19.6 C 103.3 19.6 102.4 20.5 102.4 21.7 C 102.4 24.8 109.6 23.7 109.6 28.9 C 109.6 31.3 107.7 33.1 104.8 33.1 C 102.7 33.1 101.1 32.4 99.9 31 Z M 120.5 32.7 C 120.5 32.7 120.51 22.35 120.5 22.4 C 120.5 20.4 119.6 19.8 118.2 19.8 C 116.8 19.8 115.4 20.9 114.8 22.1 C 114.78 22.08 114.8 32.7 114.8 32.7 L 112.6 32.7 L 112.6 12.7 L 114.8 12.7 C 114.8 12.7 114.78 20.28 114.8 20.3 C 115.6 19 117.3 17.9 119 17.9 C 121.5 17.9 122.6 19.1 122.6 21.7 C 122.64 21.72 122.6 32.7 122.6 32.7 L 120.5 32.7 Z M 125.9 25.4 C 125.9 21.2 128.1 17.9 131.8 17.9 C 135.6 17.9 137.5 21.3 137.5 25.5 C 137.49 25.5 137.5 26.2 137.5 26.2 C 137.5 26.2 128.1 26.16 128.1 26.2 C 128.2 29.1 129.7 31.3 132.3 31.3 C 133.5 31.3 134.8 30.6 135.7 29.5 C 135.7 29.5 136.9 30.8 136.9 30.8 C 135.7 32.2 134 33.1 132.1 33.1 C 128.2 33.1 125.9 29.9 125.9 25.4 Z M 131.7 19.7 C 129.2 19.7 128.2 22.4 128.1 24.6 C 128.1 24.6 135.4 24.6 135.4 24.6 C 135.3 22.4 134.4 19.7 131.7 19.7 Z M 139.9 25.4 C 139.9 21.2 142.1 17.9 145.8 17.9 C 149.6 17.9 151.5 21.3 151.5 25.5 C 151.53 25.5 151.5 26.2 151.5 26.2 C 151.5 26.2 142.14 26.16 142.1 26.2 C 142.2 29.1 143.7 31.3 146.3 31.3 C 147.6 31.3 148.9 30.6 149.8 29.5 C 149.8 29.5 150.9 30.8 150.9 30.8 C 149.7 32.2 148.1 33.1 146.1 33.1 C 142.3 33.1 139.9 29.9 139.9 25.4 Z M 145.8 19.7 C 143.2 19.7 142.2 22.4 142.1 24.6 C 142.1 24.6 149.4 24.6 149.4 24.6 C 149.4 22.4 148.4 19.7 145.8 19.7 Z M 155.1 29.8 C 155.1 29.79 155.1 20.1 155.1 20.1 L 153.2 20.1 L 153.2 18.2 L 155.1 18.2 L 155.1 14.3 L 157.3 14.3 L 157.3 18.2 L 159.7 18.2 L 159.7 20.1 L 157.3 20.1 C 157.3 20.1 157.26 29.4 157.3 29.4 C 157.3 30.5 157.6 31.1 158.4 31.1 C 159 31.1 159.4 30.9 159.7 30.6 C 159.7 30.6 160.3 32.2 160.3 32.2 C 159.8 32.7 159.1 33.1 158 33.1 C 156 33.1 155.1 32 155.1 29.8 Z " stroke="none" fill="#d0d1d4"/>  </g></svg>