<?xml version="1.0" standalone="no"?><!DOCTYPE svg PUBLIC "-//W3C//DTD SVG 1.1//EN" "http://www.w3.org/Graphics/SVG/1.1/DTD/svg11.dtd"><svg xmlns="http://www.w3.org/2000/svg" version="1.1" width="219px" height="403.3px" viewBox="0 0 219 403.3">  <desc>274 23 194 65 195 30 3348 21 251 21 1974 43 67 35 512 12 281 10 428 58 902 41</desc>  <defs/>  <g id="Polygon227921">    <path d="M 145.8 382.2 C 145.8 382.2 147.1 380.5 147.1 380.5 C 147.9 381.8 148.8 382.6 150.5 382.6 C 153.7 382.6 154.8 378.3 154.8 374.6 C 154.8 374.3 154.8 374.2 154.8 374 C 154.1 375.4 152.5 376.9 150.4 376.9 C 147.5 376.9 145.2 374.8 145.2 370.5 C 145.2 367.2 147.2 364 150.9 364 C 155.7 364 157.2 369 157.2 374.4 C 157.2 379.8 155.3 384.7 150.5 384.7 C 148.4 384.7 146.8 383.7 145.8 382.2 Z M 154.8 371.8 C 154.6 369.6 153.9 366.2 151 366.2 C 148.6 366.2 147.6 368.4 147.6 370.5 C 147.6 373.7 149.1 374.9 151 374.9 C 152.7 374.9 154 373.4 154.8 371.8 Z M 160.1 374.4 C 160.1 369.6 161.7 364.1 166.3 364.1 C 171 364.1 172.6 369.6 172.6 374.4 C 172.6 379.2 171 384.7 166.3 384.7 C 161.7 384.7 160.1 379.2 160.1 374.4 Z M 170.2 374.4 C 170.2 370.4 169.4 366.2 166.3 366.2 C 163.3 366.2 162.5 370.4 162.5 374.4 C 162.5 378.3 163.2 382.6 166.3 382.6 C 169.4 382.6 170.2 378.3 170.2 374.4 Z M 175.6 384.4 C 175.6 384.4 175.61 382.43 175.6 382.4 C 182.1 374.9 184.4 372.5 184.4 369.5 C 184.4 367.4 182.9 366.2 181.2 366.2 C 179.3 366.2 177.9 367.1 177 368.7 C 177 368.7 175.4 367.3 175.4 367.3 C 176.7 365.2 178.7 364.1 181.2 364.1 C 184.3 364.1 186.8 366 186.8 369.5 C 186.8 372.9 184.3 375.9 179 382.2 C 179 382.25 186.9 382.2 186.9 382.2 L 186.9 384.4 L 175.6 384.4 Z M 190.5 383.1 C 190.5 382.2 191.2 381.5 192.1 381.5 C 193 381.5 193.7 382.2 193.7 383.1 C 193.7 384 193 384.7 192.1 384.7 C 191.2 384.7 190.5 384 190.5 383.1 Z M 204.1 384.4 L 204.1 379.2 L 196.2 379.2 L 196.2 377.2 L 203.4 364.4 L 206.5 364.4 L 206.5 377.1 L 208.7 377.1 L 208.7 379.2 L 206.5 379.2 L 206.5 384.4 L 204.1 384.4 Z M 204.1 366.9 L 198.4 377.1 L 204.1 377.1 L 204.1 366.9 Z M 214.4 384.4 L 214.4 367.5 L 211.3 370.8 L 209.8 369.3 L 214.6 364.4 L 216.7 364.4 L 216.7 384.4 L 214.4 384.4 Z " stroke="none" fill="#d0d1d4"/>  </g>  <g id="Polygon227920">    <path d="M 148.2 348.4 L 148.2 343.2 L 140.3 343.2 L 140.3 341.2 L 147.5 328.4 L 150.6 328.4 L 150.6 341.1 L 152.7 341.1 L 152.7 343.2 L 150.6 343.2 L 150.6 348.4 L 148.2 348.4 Z M 148.2 330.9 L 142.5 341.1 L 148.2 341.1 L 148.2 330.9 Z M 155 348.4 C 155 348.4 155.03 346.43 155 346.4 C 161.6 338.9 163.8 336.5 163.8 333.5 C 163.8 331.4 162.3 330.2 160.6 330.2 C 158.7 330.2 157.3 331.1 156.4 332.7 C 156.4 332.7 154.8 331.3 154.8 331.3 C 156.1 329.2 158.1 328.1 160.6 328.1 C 163.7 328.1 166.2 330 166.2 333.5 C 166.2 336.9 163.7 339.9 158.4 346.2 C 158.42 346.25 166.3 346.2 166.3 346.2 L 166.3 348.4 L 155 348.4 Z M 169.5 343.5 C 169.5 340.8 171.5 338.8 173.4 338.1 C 171.6 337.4 169.8 335.7 169.8 333.2 C 169.8 329.7 172.5 328.1 175.4 328.1 C 178.3 328.1 181.1 329.7 181.1 333.2 C 181.1 335.7 179.2 337.4 177.4 338.1 C 179.3 338.8 181.3 340.8 181.3 343.4 C 181.3 346.7 178.9 348.7 175.4 348.7 C 171.9 348.7 169.5 346.7 169.5 343.5 Z M 178.7 333.5 C 178.7 331.5 177.3 330.2 175.4 330.2 C 173.4 330.2 172.1 331.5 172.1 333.5 C 172.1 335.9 174.6 336.9 175.4 337.2 C 176.2 336.9 178.7 335.9 178.7 333.5 Z M 178.9 343.2 C 178.9 340.5 176.2 339.2 175.4 339 C 174.6 339.2 171.9 340.5 171.9 343.2 C 171.9 345.3 173.4 346.6 175.4 346.6 C 177.3 346.6 178.9 345.3 178.9 343.2 Z M 184.5 347.1 C 184.5 346.2 185.2 345.5 186.1 345.5 C 187 345.5 187.7 346.2 187.7 347.1 C 187.7 348 187 348.7 186.1 348.7 C 185.2 348.7 184.5 348 184.5 347.1 Z M 191.1 345.5 C 191.1 345.5 192.7 344 192.7 344 C 193.6 345.7 195 346.6 196.9 346.6 C 199.1 346.6 200.5 344.6 200.5 342.3 C 200.5 339.4 199.1 337.8 197.1 337.8 C 195.6 337.8 194.5 338.4 193.4 339.7 C 193.42 339.71 191.7 339.1 191.7 339.1 L 191.7 328.4 L 201.9 328.4 L 201.9 330.5 L 194 330.5 C 194 330.5 194.02 337.49 194 337.5 C 194.8 336.5 196.1 335.7 197.7 335.7 C 200.6 335.7 202.9 338 202.9 342.2 C 202.9 346 200.4 348.7 197 348.7 C 194 348.7 192.3 347.5 191.1 345.5 Z M 205.6 343.5 C 205.6 340.8 207.6 338.8 209.6 338.1 C 207.8 337.4 205.9 335.7 205.9 333.2 C 205.9 329.7 208.7 328.1 211.5 328.1 C 214.4 328.1 217.2 329.7 217.2 333.2 C 217.2 335.7 215.3 337.4 213.5 338.1 C 215.5 338.8 217.5 340.8 217.5 343.4 C 217.5 346.7 215 348.7 211.5 348.7 C 208 348.7 205.6 346.7 205.6 343.5 Z M 214.8 333.5 C 214.8 331.5 213.5 330.2 211.5 330.2 C 209.6 330.2 208.3 331.5 208.3 333.5 C 208.3 335.9 210.8 336.9 211.5 337.2 C 212.3 336.9 214.8 335.9 214.8 333.5 Z M 215.1 343.2 C 215.1 340.5 212.4 339.2 211.5 339 C 210.7 339.2 208 340.5 208 343.2 C 208 345.3 209.6 346.6 211.5 346.6 C 213.5 346.6 215.1 345.3 215.1 343.2 Z " stroke="none" fill="#d0d1d4"/>  </g>  <g id="Polygon227919">    <path d="M 150.1 312.4 C 150.1 312.4 150.08 310.43 150.1 310.4 C 156.6 302.9 158.9 300.5 158.9 297.5 C 158.9 295.4 157.4 294.2 155.7 294.2 C 153.8 294.2 152.4 295.1 151.4 296.7 C 151.4 296.7 149.9 295.3 149.9 295.3 C 151.2 293.2 153.1 292.1 155.7 292.1 C 158.7 292.1 161.3 294 161.3 297.5 C 161.3 300.9 158.8 303.9 153.5 310.2 C 153.47 310.25 161.4 310.2 161.4 310.2 L 161.4 312.4 L 150.1 312.4 Z M 164.5 307.5 C 164.5 304.8 166.5 302.8 168.5 302.1 C 166.7 301.4 164.8 299.7 164.8 297.2 C 164.8 293.7 167.6 292.1 170.4 292.1 C 173.3 292.1 176.1 293.7 176.1 297.2 C 176.1 299.7 174.2 301.4 172.4 302.1 C 174.4 302.8 176.4 304.8 176.4 307.4 C 176.4 310.7 173.9 312.7 170.4 312.7 C 166.9 312.7 164.5 310.7 164.5 307.5 Z M 173.7 297.5 C 173.7 295.5 172.4 294.2 170.4 294.2 C 168.5 294.2 167.2 295.5 167.2 297.5 C 167.2 299.9 169.7 300.9 170.4 301.2 C 171.2 300.9 173.7 299.9 173.7 297.5 Z M 174 307.2 C 174 304.5 171.3 303.2 170.4 303 C 169.6 303.2 166.9 304.5 166.9 307.2 C 166.9 309.3 168.5 310.6 170.4 310.6 C 172.4 310.6 174 309.3 174 307.2 Z M 182.7 312.4 L 182.7 295.5 L 179.6 298.8 L 178.2 297.3 L 183 292.4 L 185.1 292.4 L 185.1 312.4 L 182.7 312.4 Z M 189 311.1 C 189 310.2 189.7 309.5 190.6 309.5 C 191.5 309.5 192.2 310.2 192.2 311.1 C 192.2 312 191.5 312.7 190.6 312.7 C 189.7 312.7 189 312 189 311.1 Z M 199 312.4 L 199 295.5 L 195.9 298.8 L 194.5 297.3 L 199.3 292.4 L 201.4 292.4 L 201.4 312.4 L 199 312.4 Z M 204.9 302.4 C 204.9 297.6 206.5 292.1 211.2 292.1 C 215.8 292.1 217.4 297.6 217.4 302.4 C 217.4 307.2 215.8 312.7 211.2 312.7 C 206.5 312.7 204.9 307.2 204.9 302.4 Z M 215 302.4 C 215 298.4 214.2 294.2 211.2 294.2 C 208.1 294.2 207.3 298.4 207.3 302.4 C 207.3 306.3 208.1 310.6 211.2 310.6 C 214.2 310.6 215 306.3 215 302.4 Z " stroke="none" fill="#d0d1d4"/>  </g>  <g id="Polygon227918">    <path d="M 150.6 273.5 C 150.6 273.5 152.2 272 152.2 272 C 153.1 273.7 154.5 274.6 156.4 274.6 C 158.6 274.6 160 272.6 160 270.3 C 160 267.4 158.6 265.8 156.6 265.8 C 155.1 265.8 154 266.4 152.9 267.7 C 152.93 267.71 151.2 267.1 151.2 267.1 L 151.2 256.4 L 161.4 256.4 L 161.4 258.5 L 153.5 258.5 C 153.5 258.5 153.53 265.49 153.5 265.5 C 154.3 264.5 155.6 263.7 157.2 263.7 C 160.1 263.7 162.4 266 162.4 270.2 C 162.4 274 159.9 276.7 156.5 276.7 C 153.5 276.7 151.8 275.5 150.6 273.5 Z M 168.7 276.4 L 168.7 259.5 L 165.6 262.8 L 164.2 261.3 L 169 256.4 L 171.1 256.4 L 171.1 276.4 L 168.7 276.4 Z M 174.8 276.4 C 174.8 276.4 174.8 274.43 174.8 274.4 C 181.3 266.9 183.6 264.5 183.6 261.5 C 183.6 259.4 182.1 258.2 180.4 258.2 C 178.5 258.2 177.1 259.1 176.1 260.7 C 176.1 260.7 174.6 259.3 174.6 259.3 C 175.9 257.2 177.9 256.1 180.4 256.1 C 183.5 256.1 186 258 186 261.5 C 186 264.9 183.5 267.9 178.2 274.2 C 178.19 274.25 186.1 274.2 186.1 274.2 L 186.1 276.4 L 174.8 276.4 Z M 189.7 275.1 C 189.7 274.2 190.4 273.5 191.3 273.5 C 192.2 273.5 192.9 274.2 192.9 275.1 C 192.9 276 192.2 276.7 191.3 276.7 C 190.4 276.7 189.7 276 189.7 275.1 Z M 199.7 276.4 L 199.7 259.5 L 196.6 262.8 L 195.2 261.3 L 200 256.4 L 202.1 256.4 L 202.1 276.4 L 199.7 276.4 Z M 205.8 276.4 C 205.8 276.4 205.75 274.43 205.8 274.4 C 212.3 266.9 214.5 264.5 214.5 261.5 C 214.5 259.4 213 258.2 211.3 258.2 C 209.4 258.2 208.1 259.1 207.1 260.7 C 207.1 260.7 205.5 259.3 205.5 259.3 C 206.9 257.2 208.8 256.1 211.4 256.1 C 214.4 256.1 217 258 217 261.5 C 217 264.9 214.5 267.9 209.1 274.2 C 209.14 274.25 217.1 274.2 217.1 274.2 L 217.1 276.4 L 205.8 276.4 Z " stroke="none" fill="#d0d1d4"/>  </g>  <g id="Polygon227917">    <path d="M 157.1 230.4 C 157.1 225 159 220.1 163.8 220.1 C 165.9 220.1 167.5 221.1 168.5 222.6 C 168.5 222.6 167.2 224.2 167.2 224.2 C 166.4 223 165.5 222.2 163.8 222.2 C 160.7 222.2 159.5 226.4 159.5 230.2 C 159.5 230.4 159.5 230.5 159.5 230.8 C 160.2 229.4 161.8 227.8 163.9 227.8 C 166.8 227.8 169.2 230 169.2 234.2 C 169.2 237.6 167.1 240.7 163.4 240.7 C 158.6 240.7 157.1 235.7 157.1 230.4 Z M 166.7 234.3 C 166.7 231.1 165.2 229.9 163.3 229.9 C 161.6 229.9 160.3 231.3 159.5 233 C 159.7 235.2 160.5 238.6 163.3 238.6 C 165.7 238.6 166.7 236.4 166.7 234.3 Z M 173.4 240.4 L 179.7 222.5 L 171.2 222.5 L 171.2 220.4 L 182.3 220.4 L 182.3 222 L 175.9 240.4 L 173.4 240.4 Z M 184.9 239.1 C 184.9 238.2 185.6 237.5 186.5 237.5 C 187.4 237.5 188.1 238.2 188.1 239.1 C 188.1 240 187.4 240.7 186.5 240.7 C 185.6 240.7 184.9 240 184.9 239.1 Z M 190.8 237.4 C 190.8 237.4 192.3 236 192.3 236 C 193.3 237.5 194.7 238.6 196.6 238.6 C 199.1 238.6 200.3 237.1 200.3 234.8 C 200.3 232.1 198.5 231.2 196.5 231.2 C 195.8 231.2 195.1 231.2 194.9 231.2 C 194.9 231.2 194.9 229 194.9 229 C 195.1 229.1 195.9 229.1 196.4 229.1 C 198.4 229.1 200 228 200 225.7 C 200 223.3 198.6 222.2 196.6 222.2 C 194.8 222.2 193.5 223.1 192.5 224.6 C 192.5 224.6 191 223.2 191 223.2 C 192.2 221.3 194.2 220.1 196.7 220.1 C 200 220.1 202.4 221.8 202.4 225.4 C 202.4 227.9 200.7 229.6 198.8 230 C 200.6 230.3 202.7 232.1 202.7 235 C 202.7 238.3 200.5 240.7 196.7 240.7 C 193.9 240.7 191.8 239.2 190.8 237.4 Z M 205.7 237.5 C 205.7 237.5 207.3 236 207.3 236 C 208.2 237.7 209.5 238.6 211.5 238.6 C 213.7 238.6 215.1 236.6 215.1 234.3 C 215.1 231.4 213.7 229.8 211.6 229.8 C 210.2 229.8 209.1 230.4 208 231.7 C 208 231.71 206.2 231.1 206.2 231.1 L 206.2 220.4 L 216.4 220.4 L 216.4 222.5 L 208.6 222.5 C 208.6 222.5 208.6 229.49 208.6 229.5 C 209.4 228.5 210.7 227.7 212.3 227.7 C 215.2 227.7 217.5 230 217.5 234.2 C 217.5 238 215 240.7 211.5 240.7 C 208.6 240.7 206.9 239.5 205.7 237.5 Z " stroke="none" fill="#d0d1d4"/>  </g>  <g id="Polygon227916">    <path d="M 138.2 204.4 L 138.2 187.5 L 135.1 190.8 L 133.7 189.3 L 138.5 184.4 L 140.6 184.4 L 140.6 204.4 L 138.2 204.4 Z M 144.6 202.2 C 144.6 202.2 145.9 200.5 145.9 200.5 C 146.7 201.8 147.6 202.6 149.2 202.6 C 152.5 202.6 153.6 198.3 153.6 194.6 C 153.6 194.3 153.6 194.2 153.6 194 C 152.9 195.4 151.2 196.9 149.2 196.9 C 146.3 196.9 143.9 194.8 143.9 190.5 C 143.9 187.2 146 184 149.7 184 C 154.5 184 156 189 156 194.4 C 156 199.8 154.1 204.7 149.2 204.7 C 147.1 204.7 145.6 203.7 144.6 202.2 Z M 153.5 191.8 C 153.4 189.6 152.6 186.2 149.8 186.2 C 147.4 186.2 146.4 188.4 146.4 190.5 C 146.4 193.7 147.9 194.9 149.8 194.9 C 151.5 194.9 152.8 193.4 153.5 191.8 Z M 160.4 204.4 L 166.7 186.5 L 158.2 186.5 L 158.2 184.4 L 169.3 184.4 L 169.3 186 L 162.9 204.4 L 160.4 204.4 Z M 178.7 204.4 L 178.7 199.2 L 170.8 199.2 L 170.8 197.2 L 178 184.4 L 181.1 184.4 L 181.1 197.1 L 183.3 197.1 L 183.3 199.2 L 181.1 199.2 L 181.1 204.4 L 178.7 204.4 Z M 178.7 186.9 L 173 197.1 L 178.7 197.1 L 178.7 186.9 Z M 185.8 203.1 C 185.8 202.2 186.5 201.5 187.4 201.5 C 188.2 201.5 189 202.2 189 203.1 C 189 204 188.2 204.7 187.4 204.7 C 186.5 204.7 185.8 204 185.8 203.1 Z M 199.4 204.4 L 199.4 199.2 L 191.5 199.2 L 191.5 197.2 L 198.7 184.4 L 201.8 184.4 L 201.8 197.1 L 204 197.1 L 204 199.2 L 201.8 199.2 L 201.8 204.4 L 199.4 204.4 Z M 199.4 186.9 L 193.7 197.1 L 199.4 197.1 L 199.4 186.9 Z M 205.5 201.4 C 205.5 201.4 207.1 200 207.1 200 C 208 201.5 209.5 202.6 211.4 202.6 C 213.8 202.6 215 201.1 215 198.8 C 215 196.1 213.2 195.2 211.2 195.2 C 210.6 195.2 209.9 195.2 209.6 195.2 C 209.6 195.2 209.6 193 209.6 193 C 209.9 193.1 210.6 193.1 211.1 193.1 C 213.1 193.1 214.8 192 214.8 189.7 C 214.8 187.3 213.3 186.2 211.3 186.2 C 209.5 186.2 208.3 187.1 207.3 188.6 C 207.3 188.6 205.8 187.2 205.8 187.2 C 207 185.3 209 184.1 211.5 184.1 C 214.7 184.1 217.1 185.8 217.1 189.4 C 217.1 191.9 215.4 193.6 213.6 194 C 215.3 194.3 217.4 196.1 217.4 199 C 217.4 202.3 215.3 204.7 211.5 204.7 C 208.6 204.7 206.5 203.2 205.5 201.4 Z " stroke="none" fill="#d0d1d4"/>  </g>  <g id="Polygon227915">    <path d="M 150.6 168.4 C 150.6 168.4 150.62 166.43 150.6 166.4 C 157.2 158.9 159.4 156.5 159.4 153.5 C 159.4 151.4 157.9 150.2 156.2 150.2 C 154.3 150.2 152.9 151.1 152 152.7 C 152 152.7 150.4 151.3 150.4 151.3 C 151.7 149.2 153.7 148.1 156.2 148.1 C 159.3 148.1 161.8 150 161.8 153.5 C 161.8 156.9 159.3 159.9 154 166.2 C 154.01 166.25 161.9 166.2 161.9 166.2 L 161.9 168.4 L 150.6 168.4 Z M 165.3 165.5 C 165.3 165.5 166.8 164 166.8 164 C 167.8 165.7 169.1 166.6 171.1 166.6 C 173.3 166.6 174.6 164.6 174.6 162.3 C 174.6 159.4 173.3 157.8 171.2 157.8 C 169.8 157.8 168.7 158.4 167.6 159.7 C 167.6 159.71 165.8 159.1 165.8 159.1 L 165.8 148.4 L 176 148.4 L 176 150.5 L 168.2 150.5 C 168.2 150.5 168.2 157.49 168.2 157.5 C 169 156.5 170.3 155.7 171.9 155.7 C 174.8 155.7 177.1 158 177.1 162.2 C 177.1 166 174.6 168.7 171.1 168.7 C 168.2 168.7 166.5 167.5 165.3 165.5 Z M 183.4 168.4 L 183.4 151.5 L 180.3 154.8 L 178.9 153.3 L 183.7 148.4 L 185.8 148.4 L 185.8 168.4 L 183.4 168.4 Z M 189.7 167.1 C 189.7 166.2 190.4 165.5 191.3 165.5 C 192.2 165.5 192.9 166.2 192.9 167.1 C 192.9 168 192.2 168.7 191.3 168.7 C 190.4 168.7 189.7 168 189.7 167.1 Z M 196.3 168.4 C 196.3 168.4 196.31 166.43 196.3 166.4 C 202.8 158.9 205.1 156.5 205.1 153.5 C 205.1 151.4 203.6 150.2 201.9 150.2 C 200 150.2 198.6 151.1 197.7 152.7 C 197.7 152.7 196.1 151.3 196.1 151.3 C 197.4 149.2 199.4 148.1 201.9 148.1 C 205 148.1 207.5 150 207.5 153.5 C 207.5 156.9 205 159.9 199.7 166.2 C 199.7 166.25 207.6 166.2 207.6 166.2 L 207.6 168.4 L 196.3 168.4 Z M 214.4 168.4 L 214.4 151.5 L 211.3 154.8 L 209.8 153.3 L 214.6 148.4 L 216.7 148.4 L 216.7 168.4 L 214.4 168.4 Z " stroke="none" fill="#d0d1d4"/>  </g>  <g id="Polygon227914">    <path d="M 131.9 129.4 C 131.9 129.4 133.5 128 133.5 128 C 134.4 129.5 135.9 130.6 137.8 130.6 C 140.2 130.6 141.4 129.1 141.4 126.8 C 141.4 124.1 139.6 123.2 137.6 123.2 C 137 123.2 136.3 123.2 136 123.2 C 136 123.2 136 121 136 121 C 136.3 121.1 137 121.1 137.5 121.1 C 139.5 121.1 141.2 120 141.2 117.7 C 141.2 115.3 139.7 114.2 137.7 114.2 C 135.9 114.2 134.7 115.1 133.7 116.6 C 133.7 116.6 132.2 115.2 132.2 115.2 C 133.4 113.3 135.4 112.1 137.9 112.1 C 141.1 112.1 143.5 113.8 143.5 117.4 C 143.5 119.9 141.8 121.6 140 122 C 141.7 122.3 143.8 124.1 143.8 127 C 143.8 130.3 141.7 132.7 137.9 132.7 C 135 132.7 132.9 131.2 131.9 129.4 Z M 146.1 129.4 C 146.1 129.4 147.7 128 147.7 128 C 148.6 129.5 150.1 130.6 152 130.6 C 154.4 130.6 155.6 129.1 155.6 126.8 C 155.6 124.1 153.8 123.2 151.8 123.2 C 151.2 123.2 150.5 123.2 150.2 123.2 C 150.2 123.2 150.2 121 150.2 121 C 150.5 121.1 151.2 121.1 151.7 121.1 C 153.7 121.1 155.4 120 155.4 117.7 C 155.4 115.3 153.9 114.2 151.9 114.2 C 150.1 114.2 148.9 115.1 147.9 116.6 C 147.9 116.6 146.4 115.2 146.4 115.2 C 147.6 113.3 149.6 112.1 152.1 112.1 C 155.3 112.1 157.7 113.8 157.7 117.4 C 157.7 119.9 156 121.6 154.2 122 C 155.9 122.3 158 124.1 158 127 C 158 130.3 155.9 132.7 152.1 132.7 C 149.2 132.7 147.1 131.2 146.1 129.4 Z M 168 132.4 L 168 127.2 L 160.1 127.2 L 160.1 125.2 L 167.4 112.4 L 170.4 112.4 L 170.4 125.1 L 172.6 125.1 L 172.6 127.2 L 170.4 127.2 L 170.4 132.4 L 168 132.4 Z M 168 114.9 L 162.3 125.1 L 168 125.1 L 168 114.9 Z M 174.6 127.5 C 174.6 124.8 176.7 122.8 178.6 122.1 C 176.8 121.4 174.9 119.7 174.9 117.2 C 174.9 113.7 177.7 112.1 180.6 112.1 C 183.5 112.1 186.3 113.7 186.3 117.2 C 186.3 119.7 184.4 121.4 182.6 122.1 C 184.5 122.8 186.5 124.8 186.5 127.4 C 186.5 130.7 184.1 132.7 180.6 132.7 C 177.1 132.7 174.6 130.7 174.6 127.5 Z M 183.9 117.5 C 183.9 115.5 182.5 114.2 180.6 114.2 C 178.6 114.2 177.3 115.5 177.3 117.5 C 177.3 119.9 179.8 120.9 180.6 121.2 C 181.4 120.9 183.9 119.9 183.9 117.5 Z M 184.1 127.2 C 184.1 124.5 181.4 123.2 180.6 123 C 179.7 123.2 177.1 124.5 177.1 127.2 C 177.1 129.3 178.6 130.6 180.6 130.6 C 182.5 130.6 184.1 129.3 184.1 127.2 Z M 189.7 131.1 C 189.7 130.2 190.4 129.5 191.3 129.5 C 192.2 129.5 192.9 130.2 192.9 131.1 C 192.9 132 192.2 132.7 191.3 132.7 C 190.4 132.7 189.7 132 189.7 131.1 Z M 196.3 132.4 C 196.3 132.4 196.31 130.43 196.3 130.4 C 202.8 122.9 205.1 120.5 205.1 117.5 C 205.1 115.4 203.6 114.2 201.9 114.2 C 200 114.2 198.6 115.1 197.7 116.7 C 197.7 116.7 196.1 115.3 196.1 115.3 C 197.4 113.2 199.4 112.1 201.9 112.1 C 205 112.1 207.5 114 207.5 117.5 C 207.5 120.9 205 123.9 199.7 130.2 C 199.7 130.25 207.6 130.2 207.6 130.2 L 207.6 132.4 L 196.3 132.4 Z M 214.4 132.4 L 214.4 115.5 L 211.3 118.8 L 209.8 117.3 L 214.6 112.4 L 216.7 112.4 L 216.7 132.4 L 214.4 132.4 Z " stroke="none" fill="#d0d1d4"/>  </g>  <g id="Polygon227913">    <path d="M 148.5 96.4 L 148.5 79.5 L 145.4 82.8 L 144 81.3 L 148.8 76.4 L 150.9 76.4 L 150.9 96.4 L 148.5 96.4 Z M 154.9 94.2 C 154.9 94.2 156.2 92.5 156.2 92.5 C 156.9 93.8 157.9 94.6 159.5 94.6 C 162.8 94.6 163.9 90.3 163.9 86.6 C 163.9 86.3 163.9 86.2 163.9 86 C 163.2 87.4 161.5 88.9 159.5 88.9 C 156.6 88.9 154.2 86.8 154.2 82.5 C 154.2 79.2 156.3 76 160 76 C 164.7 76 166.3 81 166.3 86.4 C 166.3 91.8 164.4 96.7 159.5 96.7 C 157.4 96.7 155.9 95.7 154.9 94.2 Z M 163.8 83.8 C 163.7 81.6 162.9 78.2 160.1 78.2 C 157.7 78.2 156.6 80.4 156.6 82.5 C 156.6 85.7 158.2 86.9 160.1 86.9 C 161.7 86.9 163.1 85.4 163.8 83.8 Z M 169.3 93.5 C 169.3 93.5 170.9 92 170.9 92 C 171.8 93.7 173.1 94.6 175.1 94.6 C 177.3 94.6 178.7 92.6 178.7 90.3 C 178.7 87.4 177.3 85.8 175.2 85.8 C 173.8 85.8 172.7 86.4 171.6 87.7 C 171.62 87.71 169.8 87.1 169.8 87.1 L 169.8 76.4 L 180 76.4 L 180 78.5 L 172.2 78.5 C 172.2 78.5 172.22 85.49 172.2 85.5 C 173 84.5 174.3 83.7 175.9 83.7 C 178.8 83.7 181.1 86 181.1 90.2 C 181.1 94 178.6 96.7 175.2 96.7 C 172.2 96.7 170.5 95.5 169.3 93.5 Z M 184.3 95.1 C 184.3 94.2 185 93.5 185.9 93.5 C 186.7 93.5 187.5 94.2 187.5 95.1 C 187.5 96 186.7 96.7 185.9 96.7 C 185 96.7 184.3 96 184.3 95.1 Z M 190.2 93.4 C 190.2 93.4 191.7 92 191.7 92 C 192.6 93.5 194.1 94.6 196 94.6 C 198.4 94.6 199.6 93.1 199.6 90.8 C 199.6 88.1 197.9 87.2 195.8 87.2 C 195.2 87.2 194.5 87.2 194.2 87.2 C 194.2 87.2 194.2 85 194.2 85 C 194.5 85.1 195.3 85.1 195.8 85.1 C 197.8 85.1 199.4 84 199.4 81.7 C 199.4 79.3 198 78.2 195.9 78.2 C 194.2 78.2 192.9 79.1 191.9 80.6 C 191.9 80.6 190.4 79.2 190.4 79.2 C 191.6 77.3 193.6 76.1 196.1 76.1 C 199.3 76.1 201.8 77.8 201.8 81.4 C 201.8 83.9 200 85.6 198.2 86 C 200 86.3 202 88.1 202 91 C 202 94.3 199.9 96.7 196.1 96.7 C 193.2 96.7 191.2 95.2 190.2 93.4 Z M 204.9 86.4 C 204.9 81.6 206.5 76.1 211.2 76.1 C 215.8 76.1 217.4 81.6 217.4 86.4 C 217.4 91.2 215.8 96.7 211.2 96.7 C 206.5 96.7 204.9 91.2 204.9 86.4 Z M 215 86.4 C 215 82.4 214.2 78.2 211.2 78.2 C 208.1 78.2 207.3 82.4 207.3 86.4 C 207.3 90.3 208.1 94.6 211.2 94.6 C 214.2 94.6 215 90.3 215 86.4 Z " stroke="none" fill="#d0d1d4"/>  </g>  <g id="Polygon227912">    <path d="M 149.4 60.4 L 149.4 43.5 L 146.3 46.8 L 144.9 45.3 L 149.7 40.4 L 151.8 40.4 L 151.8 60.4 L 149.4 60.4 Z M 155.8 58.2 C 155.8 58.2 157.1 56.5 157.1 56.5 C 157.9 57.8 158.8 58.6 160.5 58.6 C 163.7 58.6 164.8 54.3 164.8 50.6 C 164.8 50.3 164.8 50.2 164.8 50 C 164.1 51.4 162.5 52.9 160.4 52.9 C 157.5 52.9 155.1 50.8 155.1 46.5 C 155.1 43.2 157.2 40 160.9 40 C 165.7 40 167.2 45 167.2 50.4 C 167.2 55.8 165.3 60.7 160.5 60.7 C 158.4 60.7 156.8 59.7 155.8 58.2 Z M 164.7 47.8 C 164.6 45.6 163.8 42.2 161 42.2 C 158.6 42.2 157.6 44.4 157.6 46.5 C 157.6 49.7 159.1 50.9 161 50.9 C 162.7 50.9 164 49.4 164.7 47.8 Z M 177.3 60.4 L 177.3 55.2 L 169.3 55.2 L 169.3 53.2 L 176.6 40.4 L 179.6 40.4 L 179.6 53.1 L 181.8 53.1 L 181.8 55.2 L 179.6 55.2 L 179.6 60.4 L 177.3 60.4 Z M 177.3 42.9 L 171.5 53.1 L 177.3 53.1 L 177.3 42.9 Z M 184.3 59.1 C 184.3 58.2 185.1 57.5 185.9 57.5 C 186.8 57.5 187.5 58.2 187.5 59.1 C 187.5 60 186.8 60.7 185.9 60.7 C 185.1 60.7 184.3 60 184.3 59.1 Z M 190.8 50.4 C 190.8 45 192.7 40.1 197.5 40.1 C 199.6 40.1 201.2 41.1 202.2 42.6 C 202.2 42.6 200.9 44.2 200.9 44.2 C 200.1 43 199.2 42.2 197.5 42.2 C 194.4 42.2 193.2 46.4 193.2 50.2 C 193.2 50.4 193.2 50.5 193.2 50.8 C 193.9 49.4 195.5 47.8 197.6 47.8 C 200.5 47.8 202.8 50 202.8 54.2 C 202.8 57.6 200.8 60.7 197.1 60.7 C 192.3 60.7 190.8 55.7 190.8 50.4 Z M 200.4 54.3 C 200.4 51.1 198.9 49.9 197 49.9 C 195.3 49.9 194 51.3 193.2 53 C 193.4 55.2 194.1 58.6 197 58.6 C 199.4 58.6 200.4 56.4 200.4 54.3 Z M 205.7 57.5 C 205.7 57.5 207.3 56 207.3 56 C 208.2 57.7 209.5 58.6 211.5 58.6 C 213.7 58.6 215.1 56.6 215.1 54.3 C 215.1 51.4 213.7 49.8 211.6 49.8 C 210.2 49.8 209.1 50.4 208 51.7 C 208 51.71 206.2 51.1 206.2 51.1 L 206.2 40.4 L 216.4 40.4 L 216.4 42.5 L 208.6 42.5 C 208.6 42.5 208.6 49.49 208.6 49.5 C 209.4 48.5 210.7 47.7 212.3 47.7 C 215.2 47.7 217.5 50 217.5 54.2 C 217.5 58 215 60.7 211.5 60.7 C 208.6 60.7 206.9 59.5 205.7 57.5 Z " stroke="none" fill="#d0d1d4"/>  </g>  <g id="Polygon227911">    <path d="M 143.5 24.4 C 143.5 24.4 143.54 22.43 143.5 22.4 C 150.1 14.9 152.3 12.5 152.3 9.5 C 152.3 7.4 150.8 6.2 149.1 6.2 C 147.2 6.2 145.8 7.1 144.9 8.7 C 144.9 8.7 143.3 7.3 143.3 7.3 C 144.6 5.2 146.6 4.1 149.1 4.1 C 152.2 4.1 154.8 6 154.8 9.5 C 154.8 12.9 152.2 15.9 146.9 22.2 C 146.93 22.25 154.8 22.2 154.8 22.2 L 154.8 24.4 L 143.5 24.4 Z M 159.6 24.4 L 165.9 6.5 L 157.4 6.5 L 157.4 4.4 L 168.5 4.4 L 168.5 6 L 162.1 24.4 L 159.6 24.4 Z M 177.9 24.4 L 177.9 19.2 L 170 19.2 L 170 17.2 L 177.2 4.4 L 180.3 4.4 L 180.3 17.1 L 182.4 17.1 L 182.4 19.2 L 180.3 19.2 L 180.3 24.4 L 177.9 24.4 Z M 177.9 6.9 L 172.2 17.1 L 177.9 17.1 L 177.9 6.9 Z M 185 23.1 C 185 22.2 185.7 21.5 186.6 21.5 C 187.4 21.5 188.2 22.2 188.2 23.1 C 188.2 24 187.4 24.7 186.6 24.7 C 185.7 24.7 185 24 185 23.1 Z M 191.6 24.4 C 191.6 24.4 191.56 22.43 191.6 22.4 C 198.1 14.9 200.4 12.5 200.4 9.5 C 200.4 7.4 198.9 6.2 197.1 6.2 C 195.3 6.2 193.9 7.1 192.9 8.7 C 192.9 8.7 191.4 7.3 191.4 7.3 C 192.7 5.2 194.6 4.1 197.2 4.1 C 200.2 4.1 202.8 6 202.8 9.5 C 202.8 12.9 200.3 15.9 195 22.2 C 194.95 22.25 202.9 22.2 202.9 22.2 L 202.9 24.4 L 191.6 24.4 Z M 205.5 21.4 C 205.5 21.4 207.1 20 207.1 20 C 208 21.5 209.5 22.6 211.4 22.6 C 213.8 22.6 215 21.1 215 18.8 C 215 16.1 213.2 15.2 211.2 15.2 C 210.6 15.2 209.9 15.2 209.6 15.2 C 209.6 15.2 209.6 13 209.6 13 C 209.9 13.1 210.6 13.1 211.1 13.1 C 213.1 13.1 214.8 12 214.8 9.7 C 214.8 7.3 213.3 6.2 211.3 6.2 C 209.5 6.2 208.3 7.1 207.3 8.6 C 207.3 8.6 205.8 7.2 205.8 7.2 C 207 5.3 209 4.1 211.5 4.1 C 214.7 4.1 217.1 5.8 217.1 9.4 C 217.1 11.9 215.4 13.6 213.6 14 C 215.3 14.3 217.4 16.1 217.4 19 C 217.4 22.3 215.3 24.7 211.5 24.7 C 208.6 24.7 206.5 23.2 205.5 21.4 Z " stroke="none" fill="#d0d1d4"/>  </g></svg>