<?xml version="1.0" standalone="no"?><!DOCTYPE svg PUBLIC "-//W3C//DTD SVG 1.1//EN" "http://www.w3.org/Graphics/SVG/1.1/DTD/svg11.dtd"><svg xmlns="http://www.w3.org/2000/svg" version="1.1" width="651px" height="85.6px" viewBox="0 0 651 85.6">  <desc>Putty Chunk and Hot Glue Spread</desc>  <defs/>  <g id="Polygon209896">    <path d="M 3.1 47.4 L 3.1 7.4 C 3.1 7.4 13.92 7.38 13.9 7.4 C 21.7 7.4 25.2 13.3 25.2 20 C 25.2 26.8 21.7 32.7 13.9 32.7 C 13.92 32.7 10.7 32.7 10.7 32.7 L 10.7 47.4 L 3.1 47.4 Z M 17.5 20 C 17.5 16.4 16 14 13.1 14 C 13.14 14.04 10.7 14 10.7 14 L 10.7 26 C 10.7 26 13.14 26.04 13.1 26 C 16 26 17.5 23.6 17.5 20 Z M 41.5 47.4 C 41.5 47.4 41.52 43.74 41.5 43.7 C 40.4 46.1 37.6 48.1 34.7 48.1 C 30.4 48.1 28.6 45.7 28.6 41.6 C 28.62 41.58 28.6 18.4 28.6 18.4 L 35.4 18.4 C 35.4 18.4 35.4 39.18 35.4 39.2 C 35.4 41.2 36.1 42.1 37.6 42.1 C 39.4 42.1 40.9 40.3 41.5 38.5 C 41.52 38.46 41.5 18.4 41.5 18.4 L 48.4 18.4 L 48.4 47.4 L 41.5 47.4 Z M 54.1 40.7 C 54.12 40.74 54.1 24.3 54.1 24.3 L 51.4 24.3 L 51.4 18.4 L 54.1 18.4 L 54.1 10.5 L 60.9 10.5 L 60.9 18.4 L 64.6 18.4 L 64.6 24.3 L 60.9 24.3 C 60.9 24.3 60.9 39.42 60.9 39.4 C 60.9 41.2 61.3 42.1 62.5 42.1 C 63.2 42.1 63.8 41.8 64.1 41.3 C 64.1 41.3 65.5 46.6 65.5 46.6 C 64.5 47.5 62.9 48.1 60.8 48.1 C 56 48.1 54.1 45.7 54.1 40.7 Z M 69 40.7 C 69 40.74 69 24.3 69 24.3 L 66.3 24.3 L 66.3 18.4 L 69 18.4 L 69 10.5 L 75.8 10.5 L 75.8 18.4 L 79.4 18.4 L 79.4 24.3 L 75.8 24.3 C 75.8 24.3 75.78 39.42 75.8 39.4 C 75.8 41.2 76.2 42.1 77.4 42.1 C 78.1 42.1 78.7 41.8 79 41.3 C 79 41.3 80.4 46.6 80.4 46.6 C 79.4 47.5 77.8 48.1 75.7 48.1 C 70.9 48.1 69 45.7 69 40.7 Z M 83.6 52.9 C 84 53 84.6 53.2 85 53.2 C 86.2 53.2 86.9 52.6 87.4 51.1 C 87.36 51.12 88.2 48.1 88.2 48.1 L 80.3 18.4 L 87.5 18.4 L 91.6 38.8 L 95.8 18.4 L 103 18.4 C 103 18.4 93.84 52.5 93.8 52.5 C 92.4 57.8 90.1 59.2 85.9 59.2 C 84.9 59.2 83.3 59 82.6 58.7 C 82.6 58.7 83.6 52.9 83.6 52.9 Z M 113.5 27.4 C 113.5 15.5 117.2 6.7 126 6.7 C 132.5 6.7 134.8 11.9 136 16.1 C 136 16.1 130 18.4 130 18.4 C 129.2 15.3 128.2 13.4 126 13.4 C 122.4 13.4 121.2 19.3 121.2 27.4 C 121.2 35.6 122.4 41.4 126 41.4 C 128.5 41.4 129.5 38.9 130.1 35.6 C 130.1 35.6 136.1 37.8 136.1 37.8 C 135 42.4 132.7 48.1 126 48.1 C 117.2 48.1 113.5 39.3 113.5 27.4 Z M 152.4 47.4 C 152.4 47.4 152.4 26.64 152.4 26.6 C 152.4 24.7 151.7 23.7 150.2 23.7 C 148.4 23.7 146.9 25.6 146.3 27.5 C 146.28 27.48 146.3 47.4 146.3 47.4 L 139.5 47.4 L 139.5 7.4 L 146.3 7.4 C 146.3 7.4 146.28 22.2 146.3 22.2 C 147.4 19.9 150.4 17.7 153.1 17.7 C 157.4 17.7 159.2 20.1 159.2 24.2 C 159.24 24.24 159.2 47.4 159.2 47.4 L 152.4 47.4 Z M 177 47.4 C 177 47.4 177 43.74 177 43.7 C 175.9 46.1 173 48.1 170.2 48.1 C 165.8 48.1 164.1 45.7 164.1 41.6 C 164.1 41.58 164.1 18.4 164.1 18.4 L 170.9 18.4 C 170.9 18.4 170.88 39.18 170.9 39.2 C 170.9 41.2 171.6 42.1 173.1 42.1 C 174.8 42.1 176.3 40.3 177 38.5 C 177 38.46 177 18.4 177 18.4 L 183.8 18.4 L 183.8 47.4 L 177 47.4 Z M 201.6 47.4 C 201.6 47.4 201.6 26.76 201.6 26.8 C 201.6 24.7 200.9 23.7 199.4 23.7 C 197.6 23.7 196.1 25.6 195.5 27.5 C 195.48 27.48 195.5 47.4 195.5 47.4 L 188.7 47.4 L 188.7 18.4 L 195.5 18.4 C 195.5 18.4 195.48 22.2 195.5 22.2 C 196.6 19.9 199.6 17.7 202.3 17.7 C 206.6 17.7 208.4 20.3 208.4 24.3 C 208.44 24.3 208.4 47.4 208.4 47.4 L 201.6 47.4 Z M 227 47.4 L 222.7 35.8 L 220.1 40.6 L 220.1 47.4 L 213.3 47.4 L 213.3 7.4 L 220.1 7.4 L 220.1 31.8 L 226.7 18.4 L 234.1 18.4 L 227.2 31.3 L 234.4 47.4 L 227 47.4 Z M 258.7 47.4 C 258.7 47.4 258.66 44.64 258.7 44.6 C 257.4 46.9 254.7 48.1 252.6 48.1 C 248 48.1 244.7 44.4 244.7 38.5 C 244.7 32.6 248 29 252.6 29 C 254.7 29 257.5 30.1 258.7 32.3 C 258.7 32.3 258.7 28.7 258.7 28.7 C 258.7 25.4 257.3 23.5 254.3 23.5 C 252.4 23.5 250.3 24.4 248.4 26.3 C 248.4 26.3 245.9 21.5 245.9 21.5 C 248.5 18.7 252.7 17.7 255.7 17.7 C 261.6 17.7 265.4 20.7 265.4 27.2 C 265.44 27.18 265.4 47.4 265.4 47.4 L 258.7 47.4 Z M 258.7 40.6 C 258.7 40.6 258.7 36.7 258.7 36.7 C 257.9 34.9 256.5 33.7 255 33.7 C 252.7 33.7 251.5 35.8 251.5 38.6 C 251.5 41.3 252.7 43.6 255 43.6 C 256.5 43.6 257.9 42.4 258.7 40.6 Z M 283.3 47.4 C 283.3 47.4 283.26 26.76 283.3 26.8 C 283.3 24.7 282.5 23.7 281 23.7 C 279.3 23.7 277.8 25.6 277.1 27.5 C 277.14 27.48 277.1 47.4 277.1 47.4 L 270.4 47.4 L 270.4 18.4 L 277.1 18.4 C 277.1 18.4 277.14 22.2 277.1 22.2 C 278.3 19.9 281.3 17.7 283.9 17.7 C 288.3 17.7 290.1 20.3 290.1 24.3 C 290.1 24.3 290.1 47.4 290.1 47.4 L 283.3 47.4 Z M 308 47.4 C 308 47.4 308.04 43.8 308 43.8 C 306.8 46.7 304.4 48.1 302.4 48.1 C 296.7 48.1 293.8 42.2 293.8 32.9 C 293.8 23.8 296.7 17.7 302.4 17.7 C 304.4 17.7 306.8 19 308 22 C 308.04 22.02 308 7.4 308 7.4 L 314.8 7.4 L 314.8 47.4 L 308 47.4 Z M 308 38.6 C 308 38.6 308 27.2 308 27.2 C 307.4 25.3 306.1 23.7 304.6 23.7 C 301.6 23.7 300.8 27.8 300.8 32.9 C 300.8 38 301.6 42.1 304.6 42.1 C 306.1 42.1 307.4 40.6 308 38.6 Z M 344.5 47.4 L 344.5 30.1 L 336.8 30.1 L 336.8 47.4 L 329.3 47.4 L 329.3 7.4 L 336.8 7.4 L 336.8 23.5 L 344.5 23.5 L 344.5 7.4 L 352.1 7.4 L 352.1 47.4 L 344.5 47.4 Z M 356.2 32.9 C 356.2 24.8 359.5 17.7 367.1 17.7 C 374.7 17.7 378 24.8 378 32.9 C 378 40.9 374.7 48.1 367.1 48.1 C 359.5 48.1 356.2 40.9 356.2 32.9 Z M 371 32.9 C 371 28 370.1 23.7 367.1 23.7 C 364.1 23.7 363.2 28 363.2 32.9 C 363.2 37.9 364.1 42.1 367.1 42.1 C 370.1 42.1 371 37.9 371 32.9 Z M 382.7 40.7 C 382.67 40.74 382.7 24.3 382.7 24.3 L 380 24.3 L 380 18.4 L 382.7 18.4 L 382.7 10.5 L 389.5 10.5 L 389.5 18.4 L 393.1 18.4 L 393.1 24.3 L 389.5 24.3 C 389.5 24.3 389.45 39.42 389.5 39.4 C 389.5 41.2 389.9 42.1 391.1 42.1 C 391.7 42.1 392.3 41.8 392.7 41.3 C 392.7 41.3 394.1 46.6 394.1 46.6 C 393.1 47.5 391.4 48.1 389.3 48.1 C 384.6 48.1 382.7 45.7 382.7 40.7 Z M 404.9 27.4 C 404.9 15.1 408.8 6.7 417.5 6.7 C 423.1 6.7 426.2 11 427.5 16.1 C 427.5 16.1 421.5 18.4 421.5 18.4 C 420.8 15.6 419.8 13.4 417.5 13.4 C 414.5 13.4 412.7 17.8 412.7 27.4 C 412.7 37 414.5 41.4 417.5 41.4 C 419.2 41.4 420.3 40.7 421.1 39.6 C 421.07 39.6 421.1 32.3 421.1 32.3 L 416.6 32.3 L 416.6 25.7 L 427.7 25.7 C 427.7 25.7 427.73 42.84 427.7 42.8 C 425.1 46.2 422 48.1 417.5 48.1 C 408.8 48.1 404.9 39.7 404.9 27.4 Z M 432.4 47.4 L 432.4 7.4 L 439.2 7.4 L 439.2 47.4 L 432.4 47.4 Z M 457 47.4 C 457 47.4 456.95 43.74 457 43.7 C 455.8 46.1 453 48.1 450.2 48.1 C 445.8 48.1 444.1 45.7 444.1 41.6 C 444.05 41.58 444.1 18.4 444.1 18.4 L 450.8 18.4 C 450.8 18.4 450.83 39.18 450.8 39.2 C 450.8 41.2 451.6 42.1 453.1 42.1 C 454.8 42.1 456.3 40.3 457 38.5 C 456.95 38.46 457 18.4 457 18.4 L 463.8 18.4 L 463.8 47.4 L 457 47.4 Z M 467.5 32.9 C 467.5 24.5 471.1 17.7 478.4 17.7 C 485.7 17.7 488.8 24.2 488.8 32.8 C 488.75 32.76 488.8 35.1 488.8 35.1 C 488.8 35.1 474.05 35.1 474.1 35.1 C 474.1 39.4 475.9 42.6 479.8 42.6 C 481.4 42.6 483.2 41.5 484.6 39.7 C 484.6 39.7 487.9 43.5 487.9 43.5 C 485.6 46.4 482.3 48.1 479 48.1 C 471.5 48.1 467.5 41.8 467.5 32.9 Z M 478.2 23.2 C 474.9 23.2 474.1 27.3 474.1 30.4 C 474.1 30.4 482.2 30.4 482.2 30.4 C 482.2 27.1 481.5 23.2 478.2 23.2 Z M 499.4 44.2 C 499.4 44.2 502.7 38.2 502.7 38.2 C 504.4 40.3 506.9 41.4 509.3 41.4 C 511.7 41.4 513.3 39.6 513.3 37 C 513.3 29.9 500.6 29.9 500.6 17.9 C 500.6 11.9 504.7 6.7 511.7 6.7 C 515.1 6.7 518.2 7.9 520.4 10 C 520.4 10 517.5 15.8 517.5 15.8 C 515.9 14.2 514.1 13.4 512 13.4 C 509.8 13.4 508.3 15.1 508.3 17.5 C 508.3 23.7 521 24.5 521 36.5 C 521 43.3 516.6 48.1 509.8 48.1 C 505.4 48.1 502 46.7 499.4 44.2 Z M 531.4 43.8 C 531.41 43.8 531.4 58.4 531.4 58.4 L 524.6 58.4 L 524.6 18.4 L 531.4 18.4 C 531.4 18.4 531.41 22.02 531.4 22 C 532.7 19.1 535 17.7 537.1 17.7 C 542.8 17.7 545.6 23.6 545.6 32.9 C 545.6 42 542.8 48.1 537.1 48.1 C 535 48.1 532.6 46.8 531.4 43.8 Z M 538.7 32.9 C 538.7 27.8 537.8 23.7 534.8 23.7 C 533.4 23.7 532 25.1 531.4 27.1 C 531.4 27.1 531.4 38.6 531.4 38.6 C 532 40.6 533.4 42.1 534.8 42.1 C 537.8 42.1 538.7 38 538.7 32.9 Z M 549.4 47.4 L 549.4 18.4 L 556.2 18.4 C 556.2 18.4 556.19 22.44 556.2 22.4 C 557.3 19.8 560.2 17.7 562.7 17.7 C 562.7 17.7 562.7 24.4 562.7 24.4 C 562.3 24.2 561.8 24.2 561.4 24.2 C 559.4 24.2 557.3 25.8 556.2 27.9 C 556.19 27.9 556.2 47.4 556.2 47.4 L 549.4 47.4 Z M 564.5 32.9 C 564.5 24.5 568.1 17.7 575.3 17.7 C 582.7 17.7 585.7 24.2 585.7 32.8 C 585.71 32.76 585.7 35.1 585.7 35.1 C 585.7 35.1 571.01 35.1 571 35.1 C 571.1 39.4 572.9 42.6 576.7 42.6 C 578.3 42.6 580.2 41.5 581.5 39.7 C 581.5 39.7 584.8 43.5 584.8 43.5 C 582.5 46.4 579.3 48.1 576 48.1 C 568.4 48.1 564.5 41.8 564.5 32.9 Z M 575.2 23.2 C 571.9 23.2 571 27.3 571 30.4 C 571 30.4 579.2 30.4 579.2 30.4 C 579.2 27.1 578.5 23.2 575.2 23.2 Z M 601.9 47.4 C 601.9 47.4 601.85 44.64 601.9 44.6 C 600.6 46.9 597.9 48.1 595.8 48.1 C 591.2 48.1 587.9 44.4 587.9 38.5 C 587.9 32.6 591.2 29 595.8 29 C 597.9 29 600.7 30.1 601.9 32.3 C 601.9 32.3 601.9 28.7 601.9 28.7 C 601.9 25.4 600.5 23.5 597.5 23.5 C 595.6 23.5 593.5 24.4 591.6 26.3 C 591.6 26.3 589.1 21.5 589.1 21.5 C 591.7 18.7 595.9 17.7 598.9 17.7 C 604.8 17.7 608.6 20.7 608.6 27.2 C 608.63 27.18 608.6 47.4 608.6 47.4 L 601.9 47.4 Z M 601.9 40.6 C 601.9 40.6 601.9 36.7 601.9 36.7 C 601.1 34.9 599.7 33.7 598.2 33.7 C 595.9 33.7 594.7 35.8 594.7 38.6 C 594.7 41.3 595.9 43.6 598.2 43.6 C 599.7 43.6 601.1 42.4 601.9 40.6 Z M 626.6 47.4 C 626.6 47.4 626.63 43.8 626.6 43.8 C 625.4 46.7 623 48.1 621 48.1 C 615.3 48.1 612.4 42.2 612.4 32.9 C 612.4 23.8 615.3 17.7 621 17.7 C 623 17.7 625.4 19 626.6 22 C 626.63 22.02 626.6 7.4 626.6 7.4 L 633.4 7.4 L 633.4 47.4 L 626.6 47.4 Z M 626.6 38.6 C 626.6 38.6 626.6 27.2 626.6 27.2 C 626 25.3 624.6 23.7 623.2 23.7 C 620.2 23.7 619.4 27.8 619.4 32.9 C 619.4 38 620.2 42.1 623.2 42.1 C 624.6 42.1 626 40.6 626.6 38.6 Z " stroke="none" fill="#b13d24"/>  </g></svg>