<?xml version="1.0" standalone="no"?><!DOCTYPE svg PUBLIC "-//W3C//DTD SVG 1.1//EN" "http://www.w3.org/Graphics/SVG/1.1/DTD/svg11.dtd"><svg xmlns="http://www.w3.org/2000/svg" version="1.1" width="651px" height="85.6px" viewBox="0 0 651 85.6">  <desc>Mop in Talcum Paste Batter</desc>  <defs/>  <g id="Polygon178361">    <path d="M 26.4 47.4 L 26.4 23.8 L 19.7 47.4 L 17.2 47.4 L 10.7 23.8 L 10.7 47.4 L 3.1 47.4 L 3.1 7.4 L 12.7 7.4 L 18.5 27.8 L 24.4 7.4 L 33.8 7.4 L 33.8 47.4 L 26.4 47.4 Z M 38.6 32.9 C 38.6 24.8 41.9 17.7 49.4 17.7 C 57.1 17.7 60.4 24.8 60.4 32.9 C 60.4 40.9 57.1 48.1 49.4 48.1 C 41.9 48.1 38.6 40.9 38.6 32.9 Z M 53.3 32.9 C 53.3 28 52.5 23.7 49.4 23.7 C 46.4 23.7 45.6 28 45.6 32.9 C 45.6 37.9 46.4 42.1 49.4 42.1 C 52.5 42.1 53.3 37.9 53.3 32.9 Z M 71.5 43.8 C 71.52 43.8 71.5 58.4 71.5 58.4 L 64.7 58.4 L 64.7 18.4 L 71.5 18.4 C 71.5 18.4 71.52 22.02 71.5 22 C 72.8 19.1 75.1 17.7 77.2 17.7 C 82.9 17.7 85.7 23.6 85.7 32.9 C 85.7 42 82.9 48.1 77.2 48.1 C 75.1 48.1 72.7 46.8 71.5 43.8 Z M 78.8 32.9 C 78.8 27.8 77.9 23.7 74.9 23.7 C 73.5 23.7 72.1 25.1 71.5 27.1 C 71.5 27.1 71.5 38.6 71.5 38.6 C 72.1 40.6 73.5 42.1 74.9 42.1 C 77.9 42.1 78.8 38 78.8 32.9 Z M 99.1 10.9 C 99.1 8.6 101 6.8 103.3 6.8 C 105.5 6.8 107.4 8.6 107.4 10.9 C 107.4 13.2 105.5 15 103.3 15 C 101 15 99.1 13.2 99.1 10.9 Z M 99.9 47.4 L 99.9 18.4 L 106.7 18.4 L 106.7 47.4 L 99.9 47.4 Z M 125 47.4 C 125 47.4 125.04 26.76 125 26.8 C 125 24.7 124.3 23.7 122.8 23.7 C 121.1 23.7 119.6 25.6 118.9 27.5 C 118.92 27.48 118.9 47.4 118.9 47.4 L 112.1 47.4 L 112.1 18.4 L 118.9 18.4 C 118.9 18.4 118.92 22.2 118.9 22.2 C 120.1 19.9 123.1 17.7 125.7 17.7 C 130.1 17.7 131.9 20.3 131.9 24.3 C 131.88 24.3 131.9 47.4 131.9 47.4 L 125 47.4 Z M 151.5 47.4 L 151.5 14 L 145.4 14 L 145.4 7.4 L 165.1 7.4 L 165.1 14 L 159.1 14 L 159.1 47.4 L 151.5 47.4 Z M 178.8 47.4 C 178.8 47.4 178.8 44.64 178.8 44.6 C 177.5 46.9 174.8 48.1 172.7 48.1 C 168.2 48.1 164.9 44.4 164.9 38.5 C 164.9 32.6 168.2 29 172.7 29 C 174.8 29 177.6 30.1 178.8 32.3 C 178.8 32.3 178.8 28.7 178.8 28.7 C 178.8 25.4 177.5 23.5 174.4 23.5 C 172.5 23.5 170.5 24.4 168.5 26.3 C 168.5 26.3 166 21.5 166 21.5 C 168.7 18.7 172.8 17.7 175.8 17.7 C 181.7 17.7 185.6 20.7 185.6 27.2 C 185.58 27.18 185.6 47.4 185.6 47.4 L 178.8 47.4 Z M 178.8 40.6 C 178.8 40.6 178.8 36.7 178.8 36.7 C 178.1 34.9 176.6 33.7 175.1 33.7 C 172.8 33.7 171.7 35.8 171.7 38.6 C 171.7 41.3 172.8 43.6 175.1 43.6 C 176.6 43.6 178.1 42.4 178.8 40.6 Z M 191.1 47.4 L 191.1 7.4 L 197.9 7.4 L 197.9 47.4 L 191.1 47.4 Z M 202.2 32.9 C 202.2 24.1 206.3 17.7 213.2 17.7 C 216.5 17.7 218.9 18.9 220.3 20.3 C 220.3 20.3 218.1 25.6 218.1 25.6 C 216.9 24.3 215.8 23.7 214.4 23.7 C 210.9 23.7 209.2 27.8 209.2 32.9 C 209.2 37.9 210.9 42.1 214.4 42.1 C 215.8 42.1 216.9 41.5 218.1 40.3 C 218.1 40.3 220.3 45.5 220.3 45.5 C 218.9 47 216.5 48.1 213.2 48.1 C 206.3 48.1 202.2 41.7 202.2 32.9 Z M 236.9 47.4 C 236.9 47.4 236.88 43.74 236.9 43.7 C 235.7 46.1 232.9 48.1 230.1 48.1 C 225.7 48.1 224 45.7 224 41.6 C 223.98 41.58 224 18.4 224 18.4 L 230.8 18.4 C 230.8 18.4 230.76 39.18 230.8 39.2 C 230.8 41.2 231.5 42.1 233 42.1 C 234.7 42.1 236.2 40.3 236.9 38.5 C 236.88 38.46 236.9 18.4 236.9 18.4 L 243.7 18.4 L 243.7 47.4 L 236.9 47.4 Z M 275 47.4 C 275 47.4 275.04 26.76 275 26.8 C 275 24.6 274.3 23.7 272.8 23.7 C 271 23.7 269.5 25.7 268.9 27.5 C 268.92 27.48 268.9 47.4 268.9 47.4 L 262.1 47.4 C 262.1 47.4 262.08 26.76 262.1 26.8 C 262.1 24.8 261.4 23.7 259.9 23.7 C 258.1 23.7 256.6 25.7 256 27.5 C 255.96 27.48 256 47.4 256 47.4 L 249.2 47.4 L 249.2 18.4 L 256 18.4 C 256 18.4 255.96 22.2 256 22.2 C 257 20 260 17.7 262.7 17.7 C 265.8 17.7 268.2 19.2 268.7 22.5 C 269.8 20.1 272.8 17.7 275.7 17.7 C 279.3 17.7 281.8 19.6 281.8 24.3 C 281.82 24.3 281.8 47.4 281.8 47.4 L 275 47.4 Z M 297.5 47.4 L 297.5 7.4 C 297.5 7.4 308.28 7.38 308.3 7.4 C 316.1 7.4 319.6 13.3 319.6 20 C 319.6 26.8 316.1 32.7 308.3 32.7 C 308.28 32.7 305 32.7 305 32.7 L 305 47.4 L 297.5 47.4 Z M 311.9 20 C 311.9 16.4 310.3 14 307.5 14 C 307.5 14.04 305 14 305 14 L 305 26 C 305 26 307.5 26.04 307.5 26 C 310.3 26 311.9 23.6 311.9 20 Z M 335.3 47.4 C 335.3 47.4 335.28 44.64 335.3 44.6 C 334 46.9 331.3 48.1 329.2 48.1 C 324.7 48.1 321.4 44.4 321.4 38.5 C 321.4 32.6 324.7 29 329.2 29 C 331.3 29 334.1 30.1 335.3 32.3 C 335.3 32.3 335.3 28.7 335.3 28.7 C 335.3 25.4 334 23.5 330.9 23.5 C 329 23.5 326.9 24.4 325 26.3 C 325 26.3 322.5 21.5 322.5 21.5 C 325.1 18.7 329.3 17.7 332.3 17.7 C 338.2 17.7 342.1 20.7 342.1 27.2 C 342.06 27.18 342.1 47.4 342.1 47.4 L 335.3 47.4 Z M 335.3 40.6 C 335.3 40.6 335.3 36.7 335.3 36.7 C 334.6 34.9 333.1 33.7 331.6 33.7 C 329.3 33.7 328.1 35.8 328.1 38.6 C 328.1 41.3 329.3 43.6 331.6 43.6 C 333.1 43.6 334.6 42.4 335.3 40.6 Z M 345.5 44.3 C 345.5 44.3 348.4 39.7 348.4 39.7 C 349.9 41.4 352.1 42.8 354.4 42.8 C 356.5 42.8 358 41.6 358 39.7 C 358 34.9 346.6 36 346.6 25.9 C 346.6 21.5 349.9 17.7 355.8 17.7 C 359.1 17.7 362.2 19 364.3 21.1 C 364.3 21.1 361.6 25.7 361.6 25.7 C 360.4 24.3 358.3 23 356 23 C 354.1 23 352.9 24.2 352.9 25.7 C 352.9 30.1 364.4 29.3 364.4 39.5 C 364.4 44.6 360.5 48.1 355 48.1 C 350.6 48.1 347.5 46.6 345.5 44.3 Z M 369.2 40.7 C 369.23 40.74 369.2 24.3 369.2 24.3 L 366.5 24.3 L 366.5 18.4 L 369.2 18.4 L 369.2 10.5 L 376 10.5 L 376 18.4 L 379.7 18.4 L 379.7 24.3 L 376 24.3 C 376 24.3 376.01 39.42 376 39.4 C 376 41.2 376.4 42.1 377.6 42.1 C 378.3 42.1 378.9 41.8 379.3 41.3 C 379.3 41.3 380.6 46.6 380.6 46.6 C 379.6 47.5 378 48.1 375.9 48.1 C 371.2 48.1 369.2 45.7 369.2 40.7 Z M 382.7 32.9 C 382.7 24.5 386.3 17.7 393.5 17.7 C 400.9 17.7 403.9 24.2 403.9 32.8 C 403.91 32.76 403.9 35.1 403.9 35.1 C 403.9 35.1 389.21 35.1 389.2 35.1 C 389.3 39.4 391.1 42.6 394.9 42.6 C 396.5 42.6 398.4 41.5 399.7 39.7 C 399.7 39.7 403 43.5 403 43.5 C 400.7 46.4 397.5 48.1 394.2 48.1 C 386.6 48.1 382.7 41.8 382.7 32.9 Z M 393.4 23.2 C 390.1 23.2 389.2 27.3 389.2 30.4 C 389.2 30.4 397.4 30.4 397.4 30.4 C 397.4 27.1 396.7 23.2 393.4 23.2 Z M 418.2 47.4 L 418.2 7.4 C 418.2 7.4 430.25 7.38 430.3 7.4 C 436.9 7.4 439.9 12.1 439.9 17.6 C 439.9 22.6 437.5 25.7 434 26.8 C 437.8 27.4 440.4 31.7 440.4 36.6 C 440.4 42.7 437.6 47.4 430.7 47.4 C 430.67 47.4 418.2 47.4 418.2 47.4 Z M 432.1 18.9 C 432.1 16 431.1 14 428.3 14 C 428.27 14.04 425.8 14 425.8 14 L 425.8 23.7 C 425.8 23.7 428.27 23.7 428.3 23.7 C 431.1 23.7 432.1 21.8 432.1 18.9 Z M 432.7 35.5 C 432.7 32.6 431.3 30.4 428.5 30.4 C 428.51 30.36 425.8 30.4 425.8 30.4 L 425.8 40.7 C 425.8 40.7 428.51 40.74 428.5 40.7 C 431.3 40.7 432.7 38.9 432.7 35.5 Z M 457.6 47.4 C 457.6 47.4 457.55 44.64 457.6 44.6 C 456.3 46.9 453.6 48.1 451.5 48.1 C 446.9 48.1 443.6 44.4 443.6 38.5 C 443.6 32.6 446.9 29 451.5 29 C 453.6 29 456.4 30.1 457.6 32.3 C 457.6 32.3 457.6 28.7 457.6 28.7 C 457.6 25.4 456.2 23.5 453.2 23.5 C 451.3 23.5 449.2 24.4 447.3 26.3 C 447.3 26.3 444.8 21.5 444.8 21.5 C 447.4 18.7 451.6 17.7 454.6 17.7 C 460.5 17.7 464.3 20.7 464.3 27.2 C 464.33 27.18 464.3 47.4 464.3 47.4 L 457.6 47.4 Z M 457.6 40.6 C 457.6 40.6 457.6 36.7 457.6 36.7 C 456.8 34.9 455.4 33.7 453.9 33.7 C 451.6 33.7 450.4 35.8 450.4 38.6 C 450.4 41.3 451.6 43.6 453.9 43.6 C 455.4 43.6 456.8 42.4 457.6 40.6 Z M 470.8 40.7 C 470.75 40.74 470.8 24.3 470.8 24.3 L 468.1 24.3 L 468.1 18.4 L 470.8 18.4 L 470.8 10.5 L 477.5 10.5 L 477.5 18.4 L 481.2 18.4 L 481.2 24.3 L 477.5 24.3 C 477.5 24.3 477.53 39.42 477.5 39.4 C 477.5 41.2 478 42.1 479.2 42.1 C 479.8 42.1 480.4 41.8 480.8 41.3 C 480.8 41.3 482.2 46.6 482.2 46.6 C 481.1 47.5 479.5 48.1 477.4 48.1 C 472.7 48.1 470.8 45.7 470.8 40.7 Z M 486.2 40.7 C 486.23 40.74 486.2 24.3 486.2 24.3 L 483.5 24.3 L 483.5 18.4 L 486.2 18.4 L 486.2 10.5 L 493 10.5 L 493 18.4 L 496.7 18.4 L 496.7 24.3 L 493 24.3 C 493 24.3 493.01 39.42 493 39.4 C 493 41.2 493.4 42.1 494.6 42.1 C 495.3 42.1 495.9 41.8 496.3 41.3 C 496.3 41.3 497.6 46.6 497.6 46.6 C 496.6 47.5 495 48.1 492.9 48.1 C 488.2 48.1 486.2 45.7 486.2 40.7 Z M 499.7 32.9 C 499.7 24.5 503.3 17.7 510.5 17.7 C 517.9 17.7 520.9 24.2 520.9 32.8 C 520.91 32.76 520.9 35.1 520.9 35.1 C 520.9 35.1 506.21 35.1 506.2 35.1 C 506.3 39.4 508.1 42.6 511.9 42.6 C 513.5 42.6 515.4 41.5 516.7 39.7 C 516.7 39.7 520 43.5 520 43.5 C 517.7 46.4 514.5 48.1 511.2 48.1 C 503.6 48.1 499.7 41.8 499.7 32.9 Z M 510.4 23.2 C 507.1 23.2 506.2 27.3 506.2 30.4 C 506.2 30.4 514.4 30.4 514.4 30.4 C 514.4 27.1 513.7 23.2 510.4 23.2 Z M 525.1 47.4 L 525.1 18.4 L 531.8 18.4 C 531.8 18.4 531.83 22.44 531.8 22.4 C 533 19.8 535.8 17.7 538.3 17.7 C 538.3 17.7 538.3 24.4 538.3 24.4 C 537.9 24.2 537.4 24.2 537 24.2 C 535 24.2 533 25.8 531.8 27.9 C 531.83 27.9 531.8 47.4 531.8 47.4 L 525.1 47.4 Z " stroke="none" fill="#b13d24"/>  </g></svg>