<?xml version="1.0" standalone="no"?><!DOCTYPE svg PUBLIC "-//W3C//DTD SVG 1.1//EN" "http://www.w3.org/Graphics/SVG/1.1/DTD/svg11.dtd"><svg xmlns="http://www.w3.org/2000/svg" version="1.1" width="191px" height="44.3px" viewBox="0 0 191 44.3">  <desc>32 hrs 10 mins</desc>  <defs/>  <g id="Polygon201284">    <path d="M 11.4 20.8 C 11.4 20.8 13.8 18.3 13.8 18.3 C 14.8 19.6 16.4 20.5 18.1 20.5 C 20.2 20.5 21.1 19.4 21.1 17.8 C 21.1 16 19.8 15.3 17.9 15.3 C 17.2 15.3 16.3 15.3 16 15.4 C 16 15.4 16 11.7 16 11.7 C 16.3 11.8 17.3 11.8 17.8 11.8 C 19.6 11.8 20.9 11 20.9 9.4 C 20.9 7.8 19.7 7 17.9 7 C 16.4 7 15 7.7 13.9 9 C 13.9 9 11.7 6.6 11.7 6.6 C 13.1 4.6 15.4 3.4 18.3 3.4 C 22.2 3.4 24.8 5.3 24.8 8.8 C 24.8 11.1 23.1 13 21 13.4 C 23.1 13.7 25.1 15.5 25.1 18.2 C 25.1 21.7 22.5 24.1 18.3 24.1 C 15.1 24.1 12.6 22.6 11.4 20.8 Z M 27.5 23.7 C 27.5 23.7 27.49 20.46 27.5 20.5 C 34.8 13.3 36.3 11.8 36.3 9.5 C 36.3 7.9 35.2 7 33.7 7 C 31.9 7 30.5 7.8 29.4 9.2 C 29.4 9.2 27 6.7 27 6.7 C 28.6 4.5 31 3.4 33.7 3.4 C 37.6 3.4 40.4 5.7 40.4 9.4 C 40.4 12.5 38.4 15.1 33.4 20.2 C 33.43 20.16 40.5 20.2 40.5 20.2 L 40.5 23.7 L 27.5 23.7 Z M 57.9 23.7 C 57.9 23.7 57.88 14.1 57.9 14.1 C 57.9 12.6 57.2 12 56 12 C 54.8 12 53.8 13 53.4 13.8 C 53.35 13.83 53.4 23.7 53.4 23.7 L 49.7 23.7 L 49.7 3.7 L 53.4 3.7 C 53.4 3.7 53.35 11.1 53.4 11.1 C 54.1 10 55.7 8.8 57.6 8.8 C 60.3 8.8 61.5 10.3 61.5 12.7 C 61.48 12.75 61.5 23.7 61.5 23.7 L 57.9 23.7 Z M 64.7 23.7 L 64.7 9.2 L 68.3 9.2 C 68.3 9.2 68.32 11.19 68.3 11.2 C 69.1 9.9 70.7 8.8 72.3 8.8 C 72.3 8.8 72.3 12.4 72.3 12.4 C 72 12.3 71.7 12.3 71.4 12.3 C 70.3 12.3 68.9 13 68.3 14 C 68.32 14.04 68.3 23.7 68.3 23.7 L 64.7 23.7 Z M 73.2 22 C 73.2 22 74.7 19.5 74.7 19.5 C 75.6 20.4 77.3 21.2 78.7 21.2 C 80.1 21.2 80.9 20.6 80.9 19.7 C 80.9 17.3 73.7 18.6 73.7 13.2 C 73.7 10.9 75.6 8.8 79 8.8 C 81 8.8 82.8 9.6 84 10.7 C 84 10.7 82.6 13.1 82.6 13.1 C 81.9 12.3 80.5 11.6 79 11.6 C 77.9 11.6 77.1 12.2 77.1 13 C 77.1 15.2 84.3 14.1 84.3 19.6 C 84.3 22.2 82.2 24.1 78.8 24.1 C 76.5 24.1 74.4 23.3 73.2 22 Z M 96.9 23.7 L 96.9 8.9 L 93.9 12 L 91.6 9.6 L 97.5 3.7 L 101 3.7 L 101 23.7 L 96.9 23.7 Z M 103.7 13.7 C 103.7 8.5 105.9 3.4 110.8 3.4 C 115.8 3.4 117.9 8.5 117.9 13.7 C 117.9 18.8 115.8 24.1 110.8 24.1 C 105.9 24.1 103.7 18.8 103.7 13.7 Z M 113.8 13.7 C 113.8 9.8 113.1 7 110.8 7 C 108.5 7 107.8 9.8 107.8 13.7 C 107.8 17.5 108.5 20.5 110.8 20.5 C 113.1 20.5 113.8 17.5 113.8 13.7 Z M 142.3 23.7 C 142.3 23.7 142.27 13.95 142.3 13.9 C 142.3 12.7 141.8 12 140.6 12 C 139.5 12 138.6 13 138.1 13.8 C 138.13 13.83 138.1 23.7 138.1 23.7 L 134.5 23.7 C 134.5 23.7 134.53 13.95 134.5 13.9 C 134.5 12.8 134.1 12 132.9 12 C 131.8 12 130.8 13 130.4 13.8 C 130.39 13.83 130.4 23.7 130.4 23.7 L 126.8 23.7 L 126.8 9.2 L 130.4 9.2 C 130.4 9.2 130.39 11.1 130.4 11.1 C 131 10.1 132.7 8.8 134.5 8.8 C 136.3 8.8 137.6 9.7 138 11.4 C 138.7 10.1 140.4 8.8 142.2 8.8 C 144.4 8.8 145.9 10 145.9 12.7 C 145.87 12.69 145.9 23.7 145.9 23.7 L 142.3 23.7 Z M 148.7 5.4 C 148.7 4.2 149.7 3.2 150.9 3.2 C 152.1 3.2 153.1 4.2 153.1 5.4 C 153.1 6.6 152.1 7.6 150.9 7.6 C 149.7 7.6 148.7 6.6 148.7 5.4 Z M 149.1 23.7 L 149.1 9.2 L 152.7 9.2 L 152.7 23.7 L 149.1 23.7 Z M 164.1 23.7 C 164.1 23.7 164.08 14.16 164.1 14.2 C 164.1 12.6 163.4 12 162.2 12 C 161 12 160.1 13 159.5 13.8 C 159.55 13.83 159.5 23.7 159.5 23.7 L 155.9 23.7 L 155.9 9.2 L 159.5 9.2 C 159.5 9.2 159.55 11.1 159.5 11.1 C 160.3 10 161.9 8.8 163.8 8.8 C 166.5 8.8 167.7 10.4 167.7 12.8 C 167.68 12.81 167.7 23.7 167.7 23.7 L 164.1 23.7 Z M 169.8 22 C 169.8 22 171.4 19.5 171.4 19.5 C 172.3 20.4 173.9 21.2 175.4 21.2 C 176.7 21.2 177.5 20.6 177.5 19.7 C 177.5 17.3 170.3 18.6 170.3 13.2 C 170.3 10.9 172.2 8.8 175.6 8.8 C 177.7 8.8 179.4 9.6 180.6 10.7 C 180.6 10.7 179.2 13.1 179.2 13.1 C 178.5 12.3 177.1 11.6 175.7 11.6 C 174.5 11.6 173.7 12.2 173.7 13 C 173.7 15.2 180.9 14.1 180.9 19.6 C 180.9 22.2 178.8 24.1 175.4 24.1 C 173.1 24.1 171.1 23.3 169.8 22 Z " stroke="none" fill="#d3d2d2"/>  </g></svg>