<?xml version="1.0" standalone="no"?><!DOCTYPE svg PUBLIC "-//W3C//DTD SVG 1.1//EN" "http://www.w3.org/Graphics/SVG/1.1/DTD/svg11.dtd"><svg xmlns="http://www.w3.org/2000/svg" version="1.1" width="651px" height="85.6px" viewBox="0 0 651 85.6">  <desc>Crisp Green Tissues</desc>  <defs/>  <g id="Polygon165377">    <path d="M 1.9 27.4 C 1.9 15.5 5.6 6.7 14.4 6.7 C 20.9 6.7 23.2 11.9 24.4 16.1 C 24.4 16.1 18.4 18.4 18.4 18.4 C 17.6 15.3 16.6 13.4 14.4 13.4 C 10.8 13.4 9.6 19.3 9.6 27.4 C 9.6 35.6 10.8 41.4 14.4 41.4 C 16.9 41.4 17.9 38.9 18.5 35.6 C 18.5 35.6 24.5 37.8 24.5 37.8 C 23.4 42.4 21.1 48.1 14.4 48.1 C 5.6 48.1 1.9 39.3 1.9 27.4 Z M 28.5 47.4 L 28.5 18.4 L 35.3 18.4 C 35.3 18.4 35.28 22.44 35.3 22.4 C 36.4 19.8 39.2 17.7 41.8 17.7 C 41.8 17.7 41.8 24.4 41.8 24.4 C 41.3 24.2 40.9 24.2 40.4 24.2 C 38.5 24.2 36.4 25.8 35.3 27.9 C 35.28 27.9 35.3 47.4 35.3 47.4 L 28.5 47.4 Z M 44.5 10.9 C 44.5 8.6 46.4 6.8 48.7 6.8 C 50.9 6.8 52.8 8.6 52.8 10.9 C 52.8 13.2 50.9 15 48.7 15 C 46.4 15 44.5 13.2 44.5 10.9 Z M 45.3 47.4 L 45.3 18.4 L 52.1 18.4 L 52.1 47.4 L 45.3 47.4 Z M 55.5 44.3 C 55.5 44.3 58.3 39.7 58.3 39.7 C 59.9 41.4 62 42.8 64.3 42.8 C 66.5 42.8 68 41.6 68 39.7 C 68 34.9 56.5 36 56.5 25.9 C 56.5 21.5 59.8 17.7 65.8 17.7 C 69.1 17.7 72.1 19 74.3 21.1 C 74.3 21.1 71.5 25.7 71.5 25.7 C 70.4 24.3 68.3 23 65.9 23 C 64.1 23 62.8 24.2 62.8 25.7 C 62.8 30.1 74.4 29.3 74.4 39.5 C 74.4 44.6 70.4 48.1 64.9 48.1 C 60.6 48.1 57.4 46.6 55.5 44.3 Z M 85.1 43.8 C 85.08 43.8 85.1 58.4 85.1 58.4 L 78.3 58.4 L 78.3 18.4 L 85.1 18.4 C 85.1 18.4 85.08 22.02 85.1 22 C 86.3 19.1 88.7 17.7 90.7 17.7 C 96.4 17.7 99.3 23.6 99.3 32.9 C 99.3 42 96.4 48.1 90.7 48.1 C 88.7 48.1 86.3 46.8 85.1 43.8 Z M 92.3 32.9 C 92.3 27.8 91.5 23.7 88.5 23.7 C 87.1 23.7 85.7 25.1 85.1 27.1 C 85.1 27.1 85.1 38.6 85.1 38.6 C 85.7 40.6 87.1 42.1 88.5 42.1 C 91.5 42.1 92.3 38 92.3 32.9 Z M 112.6 27.4 C 112.6 15.1 116.5 6.7 125.1 6.7 C 130.7 6.7 133.8 11 135.1 16.1 C 135.1 16.1 129.1 18.4 129.1 18.4 C 128.5 15.6 127.4 13.4 125.1 13.4 C 122.1 13.4 120.3 17.8 120.3 27.4 C 120.3 37 122.1 41.4 125.1 41.4 C 126.8 41.4 127.9 40.7 128.7 39.6 C 128.7 39.6 128.7 32.3 128.7 32.3 L 124.2 32.3 L 124.2 25.7 L 135.4 25.7 C 135.4 25.7 135.36 42.84 135.4 42.8 C 132.7 46.2 129.6 48.1 125.1 48.1 C 116.5 48.1 112.6 39.7 112.6 27.4 Z M 140.6 47.4 L 140.6 18.4 L 147.4 18.4 C 147.4 18.4 147.42 22.44 147.4 22.4 C 148.6 19.8 151.4 17.7 153.9 17.7 C 153.9 17.7 153.9 24.4 153.9 24.4 C 153.5 24.2 153 24.2 152.6 24.2 C 150.6 24.2 148.6 25.8 147.4 27.9 C 147.42 27.9 147.4 47.4 147.4 47.4 L 140.6 47.4 Z M 156.3 32.9 C 156.3 24.5 159.9 17.7 167.2 17.7 C 174.5 17.7 177.5 24.2 177.5 32.8 C 177.54 32.76 177.5 35.1 177.5 35.1 C 177.5 35.1 162.84 35.1 162.8 35.1 C 162.9 39.4 164.7 42.6 168.5 42.6 C 170.2 42.6 172 41.5 173.3 39.7 C 173.3 39.7 176.6 43.5 176.6 43.5 C 174.4 46.4 171.1 48.1 167.8 48.1 C 160.3 48.1 156.3 41.8 156.3 32.9 Z M 167 23.2 C 163.7 23.2 162.8 27.3 162.8 30.4 C 162.8 30.4 171 30.4 171 30.4 C 171 27.1 170.3 23.2 167 23.2 Z M 180.5 32.9 C 180.5 24.5 184.1 17.7 191.4 17.7 C 198.7 17.7 201.8 24.2 201.8 32.8 C 201.78 32.76 201.8 35.1 201.8 35.1 C 201.8 35.1 187.08 35.1 187.1 35.1 C 187.1 39.4 188.9 42.6 192.8 42.6 C 194.4 42.6 196.3 41.5 197.6 39.7 C 197.6 39.7 200.9 43.5 200.9 43.5 C 198.6 46.4 195.4 48.1 192.1 48.1 C 184.5 48.1 180.5 41.8 180.5 32.9 Z M 191.2 23.2 C 187.9 23.2 187.1 27.3 187.1 30.4 C 187.1 30.4 195.2 30.4 195.2 30.4 C 195.2 27.1 194.5 23.2 191.2 23.2 Z M 218.8 47.4 C 218.8 47.4 218.82 26.76 218.8 26.8 C 218.8 24.7 218.1 23.7 216.6 23.7 C 214.9 23.7 213.4 25.6 212.7 27.5 C 212.7 27.48 212.7 47.4 212.7 47.4 L 205.9 47.4 L 205.9 18.4 L 212.7 18.4 C 212.7 18.4 212.7 22.2 212.7 22.2 C 213.8 19.9 216.8 17.7 219.5 17.7 C 223.9 17.7 225.7 20.3 225.7 24.3 C 225.66 24.3 225.7 47.4 225.7 47.4 L 218.8 47.4 Z M 245.3 47.4 L 245.3 14 L 239.2 14 L 239.2 7.4 L 258.9 7.4 L 258.9 14 L 252.8 14 L 252.8 47.4 L 245.3 47.4 Z M 262 10.9 C 262 8.6 263.9 6.8 266.1 6.8 C 268.4 6.8 270.2 8.6 270.2 10.9 C 270.2 13.2 268.4 15 266.1 15 C 263.9 15 262 13.2 262 10.9 Z M 262.7 47.4 L 262.7 18.4 L 269.5 18.4 L 269.5 47.4 L 262.7 47.4 Z M 272.9 44.3 C 272.9 44.3 275.8 39.7 275.8 39.7 C 277.3 41.4 279.5 42.8 281.8 42.8 C 283.9 42.8 285.4 41.6 285.4 39.7 C 285.4 34.9 274 36 274 25.9 C 274 21.5 277.3 17.7 283.2 17.7 C 286.5 17.7 289.6 19 291.7 21.1 C 291.7 21.1 289 25.7 289 25.7 C 287.8 24.3 285.7 23 283.4 23 C 281.5 23 280.3 24.2 280.3 25.7 C 280.3 30.1 291.8 29.3 291.8 39.5 C 291.8 44.6 287.9 48.1 282.4 48.1 C 278 48.1 274.9 46.6 272.9 44.3 Z M 293.7 44.3 C 293.7 44.3 296.5 39.7 296.5 39.7 C 298.1 41.4 300.2 42.8 302.5 42.8 C 304.7 42.8 306.2 41.6 306.2 39.7 C 306.2 34.9 294.7 36 294.7 25.9 C 294.7 21.5 298 17.7 304 17.7 C 307.3 17.7 310.3 19 312.5 21.1 C 312.5 21.1 309.7 25.7 309.7 25.7 C 308.6 24.3 306.5 23 304.1 23 C 302.3 23 301 24.2 301 25.7 C 301 30.1 312.6 29.3 312.6 39.5 C 312.6 44.6 308.6 48.1 303.1 48.1 C 298.8 48.1 295.6 46.6 293.7 44.3 Z M 329.4 47.4 C 329.4 47.4 329.39 43.74 329.4 43.7 C 328.3 46.1 325.4 48.1 322.6 48.1 C 318.2 48.1 316.5 45.7 316.5 41.6 C 316.49 41.58 316.5 18.4 316.5 18.4 L 323.3 18.4 C 323.3 18.4 323.27 39.18 323.3 39.2 C 323.3 41.2 324 42.1 325.5 42.1 C 327.2 42.1 328.7 40.3 329.4 38.5 C 329.39 38.46 329.4 18.4 329.4 18.4 L 336.2 18.4 L 336.2 47.4 L 329.4 47.4 Z M 340.6 32.9 C 340.6 24.5 344.2 17.7 351.4 17.7 C 358.7 17.7 361.8 24.2 361.8 32.8 C 361.79 32.76 361.8 35.1 361.8 35.1 C 361.8 35.1 347.09 35.1 347.1 35.1 C 347.2 39.4 349 42.6 352.8 42.6 C 354.4 42.6 356.3 41.5 357.6 39.7 C 357.6 39.7 360.9 43.5 360.9 43.5 C 358.6 46.4 355.4 48.1 352.1 48.1 C 344.5 48.1 340.6 41.8 340.6 32.9 Z M 351.2 23.2 C 347.9 23.2 347.1 27.3 347.1 30.4 C 347.1 30.4 355.3 30.4 355.3 30.4 C 355.3 27.1 354.5 23.2 351.2 23.2 Z M 363.9 44.3 C 363.9 44.3 366.7 39.7 366.7 39.7 C 368.3 41.4 370.4 42.8 372.7 42.8 C 374.9 42.8 376.4 41.6 376.4 39.7 C 376.4 34.9 364.9 36 364.9 25.9 C 364.9 21.5 368.2 17.7 374.2 17.7 C 377.5 17.7 380.5 19 382.7 21.1 C 382.7 21.1 379.9 25.7 379.9 25.7 C 378.8 24.3 376.7 23 374.3 23 C 372.5 23 371.2 24.2 371.2 25.7 C 371.2 30.1 382.8 29.3 382.8 39.5 C 382.8 44.6 378.8 48.1 373.3 48.1 C 369 48.1 365.8 46.6 363.9 44.3 Z " stroke="none" fill="#b13d24"/>  </g></svg>