<?xml version="1.0" standalone="no"?><!DOCTYPE svg PUBLIC "-//W3C//DTD SVG 1.1//EN" "http://www.w3.org/Graphics/SVG/1.1/DTD/svg11.dtd"><svg xmlns="http://www.w3.org/2000/svg" version="1.1" width="450px" height="102.1px" viewBox="0 0 450 102.1">  <desc>About Ersatz</desc>  <defs/>  <g id="Polygon111876">    <path d="M 21.2 56.9 L 19.7 48 L 10.8 48 L 9.4 56.9 L 0 56.9 L 10 8.9 L 20.4 8.9 L 30.5 56.9 L 21.2 56.9 Z M 15.3 19 L 11.8 40 L 18.7 40 L 15.3 19 Z M 46.1 50.5 C 49.7 50.5 50.7 45.6 50.7 39.5 C 50.7 33.3 49.7 28.4 46.1 28.4 C 44.4 28.4 42.7 30.3 42 32.7 C 42 32.7 42 46.4 42 46.4 C 42.7 48.7 44.4 50.5 46.1 50.5 Z M 33.8 56.9 L 33.8 8.9 L 42 8.9 C 42 8.9 41.98 26.42 42 26.4 C 43.4 22.8 46.3 21.2 48.7 21.2 C 55.6 21.2 59 28.6 59 39.5 C 59 50.7 55.6 57.7 48.7 57.7 C 46.3 57.7 43.5 56 42 52.6 C 41.98 52.56 42 56.9 42 56.9 L 33.8 56.9 Z M 62.9 39.5 C 62.9 29.8 66.9 21.2 76 21.2 C 85.1 21.2 89.1 29.8 89.1 39.5 C 89.1 49.1 85.1 57.7 76 57.7 C 66.9 57.7 62.9 49.1 62.9 39.5 Z M 80.6 39.5 C 80.6 33.6 79.6 28.4 76 28.4 C 72.4 28.4 71.4 33.6 71.4 39.5 C 71.4 45.4 72.4 50.5 76 50.5 C 79.6 50.5 80.6 45.4 80.6 39.5 Z M 109.8 56.9 C 109.8 56.9 109.8 52.49 109.8 52.5 C 108.4 55.3 105 57.7 101.7 57.7 C 96.4 57.7 94.3 54.9 94.3 49.9 C 94.32 49.9 94.3 22.1 94.3 22.1 L 102.5 22.1 C 102.5 22.1 102.45 47.02 102.5 47 C 102.5 49.4 103.3 50.5 105.1 50.5 C 107.2 50.5 109 48.4 109.8 46.2 C 109.8 46.15 109.8 22.1 109.8 22.1 L 118 22.1 L 118 56.9 L 109.8 56.9 Z M 125.6 48.9 C 125.64 48.89 125.6 29.2 125.6 29.2 L 122.4 29.2 L 122.4 22.1 L 125.6 22.1 L 125.6 12.6 L 133.8 12.6 L 133.8 22.1 L 138.2 22.1 L 138.2 29.2 L 133.8 29.2 C 133.8 29.2 133.77 47.3 133.8 47.3 C 133.8 49.5 134.3 50.5 135.7 50.5 C 136.5 50.5 137.2 50.2 137.7 49.6 C 137.7 49.6 139.3 55.9 139.3 55.9 C 138.1 57 136.2 57.7 133.6 57.7 C 127.9 57.7 125.6 54.9 125.6 48.9 Z M 155.3 56.9 L 155.3 8.9 L 176.3 8.9 L 176.3 16.8 L 164.4 16.8 L 164.4 28.4 L 175.8 28.4 L 175.8 36.4 L 164.4 36.4 L 164.4 48.9 L 176.3 48.9 L 176.3 56.9 L 155.3 56.9 Z M 182.1 56.9 L 182.1 22.1 L 190.2 22.1 C 190.2 22.1 190.22 26.93 190.2 26.9 C 191.6 23.8 195 21.2 198 21.2 C 198 21.2 198 29.2 198 29.2 C 197.5 29.1 196.9 29 196.4 29 C 194 29 191.6 31 190.2 33.5 C 190.22 33.48 190.2 56.9 190.2 56.9 L 182.1 56.9 Z M 199.8 53.2 C 199.8 53.2 203.2 47.6 203.2 47.6 C 205.1 49.7 207.6 51.3 210.4 51.3 C 213 51.3 214.8 49.9 214.8 47.6 C 214.8 41.9 201 43.2 201 31.1 C 201 25.8 205 21.2 212.1 21.2 C 216.1 21.2 219.7 22.8 222.3 25.3 C 222.3 25.3 219 30.8 219 30.8 C 217.7 29.2 215.1 27.6 212.3 27.6 C 210.1 27.6 208.6 29.1 208.6 30.9 C 208.6 36.1 222.5 35.2 222.5 47.4 C 222.5 53.5 217.7 57.7 211.1 57.7 C 205.9 57.7 202.1 55.9 199.8 53.2 Z M 242.3 56.9 C 242.3 56.9 242.28 53.57 242.3 53.6 C 240.8 56.3 237.5 57.7 235 57.7 C 229.5 57.7 225.6 53.3 225.6 46.2 C 225.6 39.1 229.5 34.8 235 34.8 C 237.5 34.8 240.8 36.1 242.3 38.7 C 242.3 38.7 242.3 34.5 242.3 34.5 C 242.3 30.5 240.7 28.2 237 28.2 C 234.7 28.2 232.3 29.2 230 31.6 C 230 31.6 226.9 25.8 226.9 25.8 C 230.1 22.5 235.1 21.2 238.7 21.2 C 245.8 21.2 250.4 24.8 250.4 32.6 C 250.41 32.62 250.4 56.9 250.4 56.9 L 242.3 56.9 Z M 242.3 48.7 C 242.3 48.7 242.3 44 242.3 44 C 241.4 41.8 239.7 40.4 237.9 40.4 C 235.1 40.4 233.7 43 233.7 46.3 C 233.7 49.6 235.1 52.3 237.9 52.3 C 239.7 52.3 241.4 50.9 242.3 48.7 Z M 258.1 48.9 C 258.12 48.89 258.1 29.2 258.1 29.2 L 254.9 29.2 L 254.9 22.1 L 258.1 22.1 L 258.1 12.6 L 266.3 12.6 L 266.3 22.1 L 270.6 22.1 L 270.6 29.2 L 266.3 29.2 C 266.3 29.2 266.25 47.3 266.3 47.3 C 266.3 49.5 266.8 50.5 268.2 50.5 C 269 50.5 269.7 50.2 270.1 49.6 C 270.1 49.6 271.8 55.9 271.8 55.9 C 270.6 57 268.6 57.7 266.1 57.7 C 260.4 57.7 258.1 54.9 258.1 48.9 Z M 274.2 56.9 L 274.2 50.8 L 284.5 29.2 L 274.2 29.2 L 274.2 22.1 L 294.2 22.1 L 294.2 28 L 283.9 49.8 L 294.5 49.8 L 294.5 56.9 L 274.2 56.9 Z " stroke="none" fill="#e9e8e8"/>  </g></svg>