<?xml version="1.0" standalone="no"?><!DOCTYPE svg PUBLIC "-//W3C//DTD SVG 1.1//EN" "http://www.w3.org/Graphics/SVG/1.1/DTD/svg11.dtd"><svg xmlns="http://www.w3.org/2000/svg" version="1.1" width="219px" height="475.3px" viewBox="0 0 219 475.3">  <desc>156 20 215 75 1803 52 1250 36 3348 21 251 21 2881 08 483 33 403 54 5322 20 450 34 428 58 902 41</desc>  <defs/>  <g id="Polygon219918">    <path d="M 145.8 454.2 C 145.8 454.2 147.1 452.5 147.1 452.5 C 147.9 453.8 148.8 454.6 150.5 454.6 C 153.7 454.6 154.8 450.3 154.8 446.6 C 154.8 446.3 154.8 446.2 154.8 446 C 154.1 447.4 152.5 448.9 150.4 448.9 C 147.5 448.9 145.2 446.8 145.2 442.5 C 145.2 439.2 147.2 436 150.9 436 C 155.7 436 157.2 441 157.2 446.4 C 157.2 451.8 155.3 456.7 150.5 456.7 C 148.4 456.7 146.8 455.7 145.8 454.2 Z M 154.8 443.8 C 154.6 441.6 153.9 438.2 151 438.2 C 148.6 438.2 147.6 440.4 147.6 442.5 C 147.6 445.7 149.1 446.9 151 446.9 C 152.7 446.9 154 445.4 154.8 443.8 Z M 160.1 446.4 C 160.1 441.6 161.7 436.1 166.3 436.1 C 171 436.1 172.6 441.6 172.6 446.4 C 172.6 451.2 171 456.7 166.3 456.7 C 161.7 456.7 160.1 451.2 160.1 446.4 Z M 170.2 446.4 C 170.2 442.4 169.4 438.2 166.3 438.2 C 163.3 438.2 162.5 442.4 162.5 446.4 C 162.5 450.3 163.2 454.6 166.3 454.6 C 169.4 454.6 170.2 450.3 170.2 446.4 Z M 175.6 456.4 C 175.6 456.4 175.61 454.43 175.6 454.4 C 182.1 446.9 184.4 444.5 184.4 441.5 C 184.4 439.4 182.9 438.2 181.2 438.2 C 179.3 438.2 177.9 439.1 177 440.7 C 177 440.7 175.4 439.3 175.4 439.3 C 176.7 437.2 178.7 436.1 181.2 436.1 C 184.3 436.1 186.8 438 186.8 441.5 C 186.8 444.9 184.3 447.9 179 454.2 C 179 454.25 186.9 454.2 186.9 454.2 L 186.9 456.4 L 175.6 456.4 Z M 190.5 455.1 C 190.5 454.2 191.2 453.5 192.1 453.5 C 193 453.5 193.7 454.2 193.7 455.1 C 193.7 456 193 456.7 192.1 456.7 C 191.2 456.7 190.5 456 190.5 455.1 Z M 204.1 456.4 L 204.1 451.2 L 196.2 451.2 L 196.2 449.2 L 203.4 436.4 L 206.5 436.4 L 206.5 449.1 L 208.7 449.1 L 208.7 451.2 L 206.5 451.2 L 206.5 456.4 L 204.1 456.4 Z M 204.1 438.9 L 198.4 449.1 L 204.1 449.1 L 204.1 438.9 Z M 214.4 456.4 L 214.4 439.5 L 211.3 442.8 L 209.8 441.3 L 214.6 436.4 L 216.7 436.4 L 216.7 456.4 L 214.4 456.4 Z " stroke="none" fill="#d0d1d4"/>  </g>  <g id="Polygon219917">    <path d="M 148.2 420.4 L 148.2 415.2 L 140.3 415.2 L 140.3 413.2 L 147.5 400.4 L 150.6 400.4 L 150.6 413.1 L 152.7 413.1 L 152.7 415.2 L 150.6 415.2 L 150.6 420.4 L 148.2 420.4 Z M 148.2 402.9 L 142.5 413.1 L 148.2 413.1 L 148.2 402.9 Z M 155 420.4 C 155 420.4 155.03 418.43 155 418.4 C 161.6 410.9 163.8 408.5 163.8 405.5 C 163.8 403.4 162.3 402.2 160.6 402.2 C 158.7 402.2 157.3 403.1 156.4 404.7 C 156.4 404.7 154.8 403.3 154.8 403.3 C 156.1 401.2 158.1 400.1 160.6 400.1 C 163.7 400.1 166.2 402 166.2 405.5 C 166.2 408.9 163.7 411.9 158.4 418.2 C 158.42 418.25 166.3 418.2 166.3 418.2 L 166.3 420.4 L 155 420.4 Z M 169.5 415.5 C 169.5 412.8 171.5 410.8 173.4 410.1 C 171.6 409.4 169.8 407.7 169.8 405.2 C 169.8 401.7 172.5 400.1 175.4 400.1 C 178.3 400.1 181.1 401.7 181.1 405.2 C 181.1 407.7 179.2 409.4 177.4 410.1 C 179.3 410.8 181.3 412.8 181.3 415.4 C 181.3 418.7 178.9 420.7 175.4 420.7 C 171.9 420.7 169.5 418.7 169.5 415.5 Z M 178.7 405.5 C 178.7 403.5 177.3 402.2 175.4 402.2 C 173.4 402.2 172.1 403.5 172.1 405.5 C 172.1 407.9 174.6 408.9 175.4 409.2 C 176.2 408.9 178.7 407.9 178.7 405.5 Z M 178.9 415.2 C 178.9 412.5 176.2 411.2 175.4 411 C 174.6 411.2 171.9 412.5 171.9 415.2 C 171.9 417.3 173.4 418.6 175.4 418.6 C 177.3 418.6 178.9 417.3 178.9 415.2 Z M 184.5 419.1 C 184.5 418.2 185.2 417.5 186.1 417.5 C 187 417.5 187.7 418.2 187.7 419.1 C 187.7 420 187 420.7 186.1 420.7 C 185.2 420.7 184.5 420 184.5 419.1 Z M 191.1 417.5 C 191.1 417.5 192.7 416 192.7 416 C 193.6 417.7 195 418.6 196.9 418.6 C 199.1 418.6 200.5 416.6 200.5 414.3 C 200.5 411.4 199.1 409.8 197.1 409.8 C 195.6 409.8 194.5 410.4 193.4 411.7 C 193.42 411.71 191.7 411.1 191.7 411.1 L 191.7 400.4 L 201.9 400.4 L 201.9 402.5 L 194 402.5 C 194 402.5 194.02 409.49 194 409.5 C 194.8 408.5 196.1 407.7 197.7 407.7 C 200.6 407.7 202.9 410 202.9 414.2 C 202.9 418 200.4 420.7 197 420.7 C 194 420.7 192.3 419.5 191.1 417.5 Z M 205.6 415.5 C 205.6 412.8 207.6 410.8 209.6 410.1 C 207.8 409.4 205.9 407.7 205.9 405.2 C 205.9 401.7 208.7 400.1 211.5 400.1 C 214.4 400.1 217.2 401.7 217.2 405.2 C 217.2 407.7 215.3 409.4 213.5 410.1 C 215.5 410.8 217.5 412.8 217.5 415.4 C 217.5 418.7 215 420.7 211.5 420.7 C 208 420.7 205.6 418.7 205.6 415.5 Z M 214.8 405.5 C 214.8 403.5 213.5 402.2 211.5 402.2 C 209.6 402.2 208.3 403.5 208.3 405.5 C 208.3 407.9 210.8 408.9 211.5 409.2 C 212.3 408.9 214.8 407.9 214.8 405.5 Z M 215.1 415.2 C 215.1 412.5 212.4 411.2 211.5 411 C 210.7 411.2 208 412.5 208 415.2 C 208 417.3 209.6 418.6 211.5 418.6 C 213.5 418.6 215.1 417.3 215.1 415.2 Z " stroke="none" fill="#d0d1d4"/>  </g>  <g id="Polygon219916">    <path d="M 148.6 384.4 L 148.6 379.2 L 140.7 379.2 L 140.7 377.2 L 147.9 364.4 L 151 364.4 L 151 377.1 L 153.2 377.1 L 153.2 379.2 L 151 379.2 L 151 384.4 L 148.6 384.4 Z M 148.6 366.9 L 142.9 377.1 L 148.6 377.1 L 148.6 366.9 Z M 155.4 381.5 C 155.4 381.5 157 380 157 380 C 158 381.7 159.3 382.6 161.2 382.6 C 163.4 382.6 164.8 380.6 164.8 378.3 C 164.8 375.4 163.5 373.8 161.4 373.8 C 160 373.8 158.9 374.4 157.8 375.7 C 157.76 375.71 156 375.1 156 375.1 L 156 364.4 L 166.2 364.4 L 166.2 366.5 L 158.4 366.5 C 158.4 366.5 158.36 373.49 158.4 373.5 C 159.1 372.5 160.5 371.7 162 371.7 C 164.9 371.7 167.2 374 167.2 378.2 C 167.2 382 164.8 384.7 161.3 384.7 C 158.4 384.7 156.6 383.5 155.4 381.5 Z M 170 374.4 C 170 369.6 171.6 364.1 176.3 364.1 C 180.9 364.1 182.5 369.6 182.5 374.4 C 182.5 379.2 180.9 384.7 176.3 384.7 C 171.6 384.7 170 379.2 170 374.4 Z M 180.1 374.4 C 180.1 370.4 179.4 366.2 176.3 366.2 C 173.2 366.2 172.5 370.4 172.5 374.4 C 172.5 378.3 173.2 382.6 176.3 382.6 C 179.4 382.6 180.1 378.3 180.1 374.4 Z M 185.8 383.1 C 185.8 382.2 186.5 381.5 187.4 381.5 C 188.2 381.5 189 382.2 189 383.1 C 189 384 188.2 384.7 187.4 384.7 C 186.5 384.7 185.8 384 185.8 383.1 Z M 191.7 381.4 C 191.7 381.4 193.2 380 193.2 380 C 194.1 381.5 195.6 382.6 197.5 382.6 C 199.9 382.6 201.1 381.1 201.1 378.8 C 201.1 376.1 199.4 375.2 197.3 375.2 C 196.7 375.2 196 375.2 195.7 375.2 C 195.7 375.2 195.7 373 195.7 373 C 196 373.1 196.8 373.1 197.3 373.1 C 199.3 373.1 200.9 372 200.9 369.7 C 200.9 367.3 199.5 366.2 197.4 366.2 C 195.7 366.2 194.4 367.1 193.4 368.6 C 193.4 368.6 191.9 367.2 191.9 367.2 C 193.1 365.3 195.1 364.1 197.6 364.1 C 200.8 364.1 203.3 365.8 203.3 369.4 C 203.3 371.9 201.5 373.6 199.7 374 C 201.5 374.3 203.5 376.1 203.5 379 C 203.5 382.3 201.4 384.7 197.6 384.7 C 194.7 384.7 192.7 383.2 191.7 381.4 Z M 213.6 384.4 L 213.6 379.2 L 205.7 379.2 L 205.7 377.2 L 212.9 364.4 L 216 364.4 L 216 377.1 L 218.1 377.1 L 218.1 379.2 L 216 379.2 L 216 384.4 L 213.6 384.4 Z M 213.6 366.9 L 207.9 377.1 L 213.6 377.1 L 213.6 366.9 Z " stroke="none" fill="#d0d1d4"/>  </g>  <g id="Polygon219915">    <path d="M 125.3 345.5 C 125.3 345.5 126.9 344 126.9 344 C 127.8 345.7 129.1 346.6 131.1 346.6 C 133.3 346.6 134.7 344.6 134.7 342.3 C 134.7 339.4 133.3 337.8 131.2 337.8 C 129.8 337.8 128.7 338.4 127.6 339.7 C 127.61 339.71 125.8 339.1 125.8 339.1 L 125.8 328.4 L 136 328.4 L 136 330.5 L 128.2 330.5 C 128.2 330.5 128.21 337.49 128.2 337.5 C 129 336.5 130.3 335.7 131.9 335.7 C 134.8 335.7 137.1 338 137.1 342.2 C 137.1 346 134.6 348.7 131.1 348.7 C 128.2 348.7 126.5 347.5 125.3 345.5 Z M 139.3 345.4 C 139.3 345.4 140.9 344 140.9 344 C 141.8 345.5 143.3 346.6 145.2 346.6 C 147.6 346.6 148.8 345.1 148.8 342.8 C 148.8 340.1 147 339.2 145 339.2 C 144.3 339.2 143.7 339.2 143.4 339.2 C 143.4 339.2 143.4 337 143.4 337 C 143.7 337.1 144.4 337.1 144.9 337.1 C 146.9 337.1 148.5 336 148.5 333.7 C 148.5 331.3 147.1 330.2 145.1 330.2 C 143.3 330.2 142.1 331.1 141 332.6 C 141 332.6 139.5 331.2 139.5 331.2 C 140.7 329.3 142.8 328.1 145.2 328.1 C 148.5 328.1 150.9 329.8 150.9 333.4 C 150.9 335.9 149.2 337.6 147.3 338 C 149.1 338.3 151.2 340.1 151.2 343 C 151.2 346.3 149.1 348.7 145.2 348.7 C 142.4 348.7 140.3 347.2 139.3 345.4 Z M 154.2 348.4 C 154.2 348.4 154.22 346.43 154.2 346.4 C 160.8 338.9 163 336.5 163 333.5 C 163 331.4 161.5 330.2 159.8 330.2 C 157.9 330.2 156.5 331.1 155.6 332.7 C 155.6 332.7 154 331.3 154 331.3 C 155.3 329.2 157.3 328.1 159.8 328.1 C 162.9 328.1 165.4 330 165.4 333.5 C 165.4 336.9 162.9 339.9 157.6 346.2 C 157.61 346.25 165.5 346.2 165.5 346.2 L 165.5 348.4 L 154.2 348.4 Z M 168.9 348.4 C 168.9 348.4 168.89 346.43 168.9 346.4 C 175.4 338.9 177.7 336.5 177.7 333.5 C 177.7 331.4 176.2 330.2 174.5 330.2 C 172.6 330.2 171.2 331.1 170.2 332.7 C 170.2 332.7 168.7 331.3 168.7 331.3 C 170 329.2 171.9 328.1 174.5 328.1 C 177.6 328.1 180.1 330 180.1 333.5 C 180.1 336.9 177.6 339.9 172.3 346.2 C 172.28 346.25 180.2 346.2 180.2 346.2 L 180.2 348.4 L 168.9 348.4 Z M 183.8 347.1 C 183.8 346.2 184.5 345.5 185.4 345.5 C 186.3 345.5 187 346.2 187 347.1 C 187 348 186.3 348.7 185.4 348.7 C 184.5 348.7 183.8 348 183.8 347.1 Z M 190.4 348.4 C 190.4 348.4 190.39 346.43 190.4 346.4 C 196.9 338.9 199.2 336.5 199.2 333.5 C 199.2 331.4 197.7 330.2 196 330.2 C 194.1 330.2 192.7 331.1 191.7 332.7 C 191.7 332.7 190.2 331.3 190.2 331.3 C 191.5 329.2 193.5 328.1 196 328.1 C 199.1 328.1 201.6 330 201.6 333.5 C 201.6 336.9 199.1 339.9 193.8 346.2 C 193.78 346.25 201.7 346.2 201.7 346.2 L 201.7 348.4 L 190.4 348.4 Z M 204.9 338.4 C 204.9 333.6 206.5 328.1 211.2 328.1 C 215.8 328.1 217.4 333.6 217.4 338.4 C 217.4 343.2 215.8 348.7 211.2 348.7 C 206.5 348.7 204.9 343.2 204.9 338.4 Z M 215 338.4 C 215 334.4 214.2 330.2 211.2 330.2 C 208.1 330.2 207.3 334.4 207.3 338.4 C 207.3 342.3 208.1 346.6 211.2 346.6 C 214.2 346.6 215 342.3 215 338.4 Z " stroke="none" fill="#d0d1d4"/>  </g>  <g id="Polygon219914">    <path d="M 148.6 312.4 L 148.6 307.2 L 140.7 307.2 L 140.7 305.2 L 147.9 292.4 L 151 292.4 L 151 305.1 L 153.2 305.1 L 153.2 307.2 L 151 307.2 L 151 312.4 L 148.6 312.4 Z M 148.6 294.9 L 142.9 305.1 L 148.6 305.1 L 148.6 294.9 Z M 155.3 302.4 C 155.3 297.6 156.9 292.1 161.5 292.1 C 166.2 292.1 167.8 297.6 167.8 302.4 C 167.8 307.2 166.2 312.7 161.5 312.7 C 156.9 312.7 155.3 307.2 155.3 302.4 Z M 165.4 302.4 C 165.4 298.4 164.6 294.2 161.5 294.2 C 158.5 294.2 157.7 298.4 157.7 302.4 C 157.7 306.3 158.4 310.6 161.5 310.6 C 164.6 310.6 165.4 306.3 165.4 302.4 Z M 170.1 309.4 C 170.1 309.4 171.6 308 171.6 308 C 172.6 309.5 174 310.6 175.9 310.6 C 178.4 310.6 179.6 309.1 179.6 306.8 C 179.6 304.1 177.8 303.2 175.8 303.2 C 175.1 303.2 174.4 303.2 174.2 303.2 C 174.2 303.2 174.2 301 174.2 301 C 174.4 301.1 175.2 301.1 175.7 301.1 C 177.7 301.1 179.3 300 179.3 297.7 C 179.3 295.3 177.9 294.2 175.9 294.2 C 174.1 294.2 172.8 295.1 171.8 296.6 C 171.8 296.6 170.3 295.2 170.3 295.2 C 171.5 293.3 173.5 292.1 176 292.1 C 179.3 292.1 181.7 293.8 181.7 297.4 C 181.7 299.9 180 301.6 178.1 302 C 179.9 302.3 182 304.1 182 307 C 182 310.3 179.8 312.7 176 312.7 C 173.2 312.7 171.1 311.2 170.1 309.4 Z M 185.2 311.1 C 185.2 310.2 186 309.5 186.8 309.5 C 187.7 309.5 188.4 310.2 188.4 311.1 C 188.4 312 187.7 312.7 186.8 312.7 C 186 312.7 185.2 312 185.2 311.1 Z M 191.8 309.5 C 191.8 309.5 193.4 308 193.4 308 C 194.4 309.7 195.7 310.6 197.6 310.6 C 199.8 310.6 201.2 308.6 201.2 306.3 C 201.2 303.4 199.8 301.8 197.8 301.8 C 196.4 301.8 195.3 302.4 194.1 303.7 C 194.15 303.71 192.4 303.1 192.4 303.1 L 192.4 292.4 L 202.6 292.4 L 202.6 294.5 L 194.7 294.5 C 194.7 294.5 194.75 301.49 194.7 301.5 C 195.5 300.5 196.8 299.7 198.4 299.7 C 201.3 299.7 203.6 302 203.6 306.2 C 203.6 310 201.2 312.7 197.7 312.7 C 194.7 312.7 193 311.5 191.8 309.5 Z M 213.6 312.4 L 213.6 307.2 L 205.7 307.2 L 205.7 305.2 L 212.9 292.4 L 216 292.4 L 216 305.1 L 218.1 305.1 L 218.1 307.2 L 216 307.2 L 216 312.4 L 213.6 312.4 Z M 213.6 294.9 L 207.9 305.1 L 213.6 305.1 L 213.6 294.9 Z " stroke="none" fill="#d0d1d4"/>  </g>  <g id="Polygon219913">    <path d="M 149.6 276.4 L 149.6 271.2 L 141.7 271.2 L 141.7 269.2 L 148.9 256.4 L 152 256.4 L 152 269.1 L 154.2 269.1 L 154.2 271.2 L 152 271.2 L 152 276.4 L 149.6 276.4 Z M 149.6 258.9 L 143.9 269.1 L 149.6 269.1 L 149.6 258.9 Z M 156.2 271.5 C 156.2 268.8 158.2 266.8 160.2 266.1 C 158.4 265.4 156.5 263.7 156.5 261.2 C 156.5 257.7 159.3 256.1 162.1 256.1 C 165 256.1 167.8 257.7 167.8 261.2 C 167.8 263.7 165.9 265.4 164.1 266.1 C 166.1 266.8 168.1 268.8 168.1 271.4 C 168.1 274.7 165.6 276.7 162.1 276.7 C 158.6 276.7 156.2 274.7 156.2 271.5 Z M 165.4 261.5 C 165.4 259.5 164.1 258.2 162.1 258.2 C 160.2 258.2 158.9 259.5 158.9 261.5 C 158.9 263.9 161.4 264.9 162.1 265.2 C 162.9 264.9 165.4 263.9 165.4 261.5 Z M 165.7 271.2 C 165.7 268.5 163 267.2 162.1 267 C 161.3 267.2 158.6 268.5 158.6 271.2 C 158.6 273.3 160.2 274.6 162.1 274.6 C 164.1 274.6 165.7 273.3 165.7 271.2 Z M 170.3 273.4 C 170.3 273.4 171.9 272 171.9 272 C 172.8 273.5 174.3 274.6 176.1 274.6 C 178.6 274.6 179.8 273.1 179.8 270.8 C 179.8 268.1 178 267.2 176 267.2 C 175.3 267.2 174.6 267.2 174.4 267.2 C 174.4 267.2 174.4 265 174.4 265 C 174.6 265.1 175.4 265.1 175.9 265.1 C 177.9 265.1 179.5 264 179.5 261.7 C 179.5 259.3 178.1 258.2 176.1 258.2 C 174.3 258.2 173.1 259.1 172 260.6 C 172 260.6 170.5 259.2 170.5 259.2 C 171.7 257.3 173.7 256.1 176.2 256.1 C 179.5 256.1 181.9 257.8 181.9 261.4 C 181.9 263.9 180.2 265.6 178.3 266 C 180.1 266.3 182.2 268.1 182.2 271 C 182.2 274.3 180 276.7 176.2 276.7 C 173.4 276.7 171.3 275.2 170.3 273.4 Z M 185.4 275.1 C 185.4 274.2 186.2 273.5 187 273.5 C 187.9 273.5 188.7 274.2 188.7 275.1 C 188.7 276 187.9 276.7 187 276.7 C 186.2 276.7 185.4 276 185.4 275.1 Z M 191.3 273.4 C 191.3 273.4 192.9 272 192.9 272 C 193.8 273.5 195.3 274.6 197.2 274.6 C 199.6 274.6 200.8 273.1 200.8 270.8 C 200.8 268.1 199 267.2 197 267.2 C 196.4 267.2 195.7 267.2 195.4 267.2 C 195.4 267.2 195.4 265 195.4 265 C 195.7 265.1 196.4 265.1 196.9 265.1 C 198.9 265.1 200.6 264 200.6 261.7 C 200.6 259.3 199.1 258.2 197.1 258.2 C 195.3 258.2 194.1 259.1 193.1 260.6 C 193.1 260.6 191.6 259.2 191.6 259.2 C 192.8 257.3 194.8 256.1 197.3 256.1 C 200.5 256.1 202.9 257.8 202.9 261.4 C 202.9 263.9 201.2 265.6 199.4 266 C 201.1 266.3 203.2 268.1 203.2 271 C 203.2 274.3 201.1 276.7 197.3 276.7 C 194.4 276.7 192.3 275.2 191.3 273.4 Z M 205.5 273.4 C 205.5 273.4 207.1 272 207.1 272 C 208 273.5 209.5 274.6 211.4 274.6 C 213.8 274.6 215 273.1 215 270.8 C 215 268.1 213.2 267.2 211.2 267.2 C 210.6 267.2 209.9 267.2 209.6 267.2 C 209.6 267.2 209.6 265 209.6 265 C 209.9 265.1 210.6 265.1 211.1 265.1 C 213.1 265.1 214.8 264 214.8 261.7 C 214.8 259.3 213.3 258.2 211.3 258.2 C 209.5 258.2 208.3 259.1 207.3 260.6 C 207.3 260.6 205.8 259.2 205.8 259.2 C 207 257.3 209 256.1 211.5 256.1 C 214.7 256.1 217.1 257.8 217.1 261.4 C 217.1 263.9 215.4 265.6 213.6 266 C 215.3 266.3 217.4 268.1 217.4 271 C 217.4 274.3 215.3 276.7 211.5 276.7 C 208.6 276.7 206.5 275.2 205.5 273.4 Z " stroke="none" fill="#d0d1d4"/>  </g>  <g id="Polygon219912">    <path d="M 130.4 240.4 C 130.4 240.4 130.37 238.43 130.4 238.4 C 136.9 230.9 139.2 228.5 139.2 225.5 C 139.2 223.4 137.7 222.2 135.9 222.2 C 134.1 222.2 132.7 223.1 131.7 224.7 C 131.7 224.7 130.2 223.3 130.2 223.3 C 131.5 221.2 133.4 220.1 136 220.1 C 139 220.1 141.6 222 141.6 225.5 C 141.6 228.9 139.1 231.9 133.8 238.2 C 133.76 238.25 141.7 238.2 141.7 238.2 L 141.7 240.4 L 130.4 240.4 Z M 144.8 235.5 C 144.8 232.8 146.8 230.8 148.8 230.1 C 147 229.4 145.1 227.7 145.1 225.2 C 145.1 221.7 147.9 220.1 150.7 220.1 C 153.6 220.1 156.4 221.7 156.4 225.2 C 156.4 227.7 154.5 229.4 152.7 230.1 C 154.7 230.8 156.7 232.8 156.7 235.4 C 156.7 238.7 154.2 240.7 150.7 240.7 C 147.2 240.7 144.8 238.7 144.8 235.5 Z M 154 225.5 C 154 223.5 152.7 222.2 150.7 222.2 C 148.8 222.2 147.5 223.5 147.5 225.5 C 147.5 227.9 150 228.9 150.7 229.2 C 151.5 228.9 154 227.9 154 225.5 Z M 154.3 235.2 C 154.3 232.5 151.6 231.2 150.7 231 C 149.9 231.2 147.2 232.5 147.2 235.2 C 147.2 237.3 148.8 238.6 150.7 238.6 C 152.7 238.6 154.3 237.3 154.3 235.2 Z M 159.4 235.5 C 159.4 232.8 161.4 230.8 163.4 230.1 C 161.5 229.4 159.7 227.7 159.7 225.2 C 159.7 221.7 162.4 220.1 165.3 220.1 C 168.2 220.1 171 221.7 171 225.2 C 171 227.7 169.1 229.4 167.3 230.1 C 169.2 230.8 171.3 232.8 171.3 235.4 C 171.3 238.7 168.8 240.7 165.3 240.7 C 161.8 240.7 159.4 238.7 159.4 235.5 Z M 168.6 225.5 C 168.6 223.5 167.3 222.2 165.3 222.2 C 163.4 222.2 162 223.5 162 225.5 C 162 227.9 164.5 228.9 165.3 229.2 C 166.1 228.9 168.6 227.9 168.6 225.5 Z M 168.9 235.2 C 168.9 232.5 166.2 231.2 165.3 231 C 164.5 231.2 161.8 232.5 161.8 235.2 C 161.8 237.3 163.4 238.6 165.3 238.6 C 167.2 238.6 168.9 237.3 168.9 235.2 Z M 177.6 240.4 L 177.6 223.5 L 174.5 226.8 L 173.1 225.3 L 177.9 220.4 L 180 220.4 L 180 240.4 L 177.6 240.4 Z M 183.9 239.1 C 183.9 238.2 184.6 237.5 185.5 237.5 C 186.3 237.5 187.1 238.2 187.1 239.1 C 187.1 240 186.3 240.7 185.5 240.7 C 184.6 240.7 183.9 240 183.9 239.1 Z M 190.3 230.4 C 190.3 225.6 191.9 220.1 196.6 220.1 C 201.3 220.1 202.8 225.6 202.8 230.4 C 202.8 235.2 201.3 240.7 196.6 240.7 C 191.9 240.7 190.3 235.2 190.3 230.4 Z M 200.4 230.4 C 200.4 226.4 199.7 222.2 196.6 222.2 C 193.5 222.2 192.8 226.4 192.8 230.4 C 192.8 234.3 193.5 238.6 196.6 238.6 C 199.7 238.6 200.4 234.3 200.4 230.4 Z M 205.6 235.5 C 205.6 232.8 207.6 230.8 209.6 230.1 C 207.8 229.4 205.9 227.7 205.9 225.2 C 205.9 221.7 208.7 220.1 211.5 220.1 C 214.4 220.1 217.2 221.7 217.2 225.2 C 217.2 227.7 215.3 229.4 213.5 230.1 C 215.5 230.8 217.5 232.8 217.5 235.4 C 217.5 238.7 215 240.7 211.5 240.7 C 208 240.7 205.6 238.7 205.6 235.5 Z M 214.8 225.5 C 214.8 223.5 213.5 222.2 211.5 222.2 C 209.6 222.2 208.3 223.5 208.3 225.5 C 208.3 227.9 210.8 228.9 211.5 229.2 C 212.3 228.9 214.8 227.9 214.8 225.5 Z M 215.1 235.2 C 215.1 232.5 212.4 231.2 211.5 231 C 210.7 231.2 208 232.5 208 235.2 C 208 237.3 209.6 238.6 211.5 238.6 C 213.5 238.6 215.1 237.3 215.1 235.2 Z " stroke="none" fill="#d0d1d4"/>  </g>  <g id="Polygon219911">    <path d="M 150.6 204.4 C 150.6 204.4 150.62 202.43 150.6 202.4 C 157.2 194.9 159.4 192.5 159.4 189.5 C 159.4 187.4 157.9 186.2 156.2 186.2 C 154.3 186.2 152.9 187.1 152 188.7 C 152 188.7 150.4 187.3 150.4 187.3 C 151.7 185.2 153.7 184.1 156.2 184.1 C 159.3 184.1 161.8 186 161.8 189.5 C 161.8 192.9 159.3 195.9 154 202.2 C 154.01 202.25 161.9 202.2 161.9 202.2 L 161.9 204.4 L 150.6 204.4 Z M 165.3 201.5 C 165.3 201.5 166.8 200 166.8 200 C 167.8 201.7 169.1 202.6 171.1 202.6 C 173.3 202.6 174.6 200.6 174.6 198.3 C 174.6 195.4 173.3 193.8 171.2 193.8 C 169.8 193.8 168.7 194.4 167.6 195.7 C 167.6 195.71 165.8 195.1 165.8 195.1 L 165.8 184.4 L 176 184.4 L 176 186.5 L 168.2 186.5 C 168.2 186.5 168.2 193.49 168.2 193.5 C 169 192.5 170.3 191.7 171.9 191.7 C 174.8 191.7 177.1 194 177.1 198.2 C 177.1 202 174.6 204.7 171.1 204.7 C 168.2 204.7 166.5 203.5 165.3 201.5 Z M 183.4 204.4 L 183.4 187.5 L 180.3 190.8 L 178.9 189.3 L 183.7 184.4 L 185.8 184.4 L 185.8 204.4 L 183.4 204.4 Z M 189.7 203.1 C 189.7 202.2 190.4 201.5 191.3 201.5 C 192.2 201.5 192.9 202.2 192.9 203.1 C 192.9 204 192.2 204.7 191.3 204.7 C 190.4 204.7 189.7 204 189.7 203.1 Z M 196.3 204.4 C 196.3 204.4 196.31 202.43 196.3 202.4 C 202.8 194.9 205.1 192.5 205.1 189.5 C 205.1 187.4 203.6 186.2 201.9 186.2 C 200 186.2 198.6 187.1 197.7 188.7 C 197.7 188.7 196.1 187.3 196.1 187.3 C 197.4 185.2 199.4 184.1 201.9 184.1 C 205 184.1 207.5 186 207.5 189.5 C 207.5 192.9 205 195.9 199.7 202.2 C 199.7 202.25 207.6 202.2 207.6 202.2 L 207.6 204.4 L 196.3 204.4 Z M 214.4 204.4 L 214.4 187.5 L 211.3 190.8 L 209.8 189.3 L 214.6 184.4 L 216.7 184.4 L 216.7 204.4 L 214.4 204.4 Z " stroke="none" fill="#d0d1d4"/>  </g>  <g id="Polygon219910">    <path d="M 131.9 165.4 C 131.9 165.4 133.5 164 133.5 164 C 134.4 165.5 135.9 166.6 137.8 166.6 C 140.2 166.6 141.4 165.1 141.4 162.8 C 141.4 160.1 139.6 159.2 137.6 159.2 C 137 159.2 136.3 159.2 136 159.2 C 136 159.2 136 157 136 157 C 136.3 157.1 137 157.1 137.5 157.1 C 139.5 157.1 141.2 156 141.2 153.7 C 141.2 151.3 139.7 150.2 137.7 150.2 C 135.9 150.2 134.7 151.1 133.7 152.6 C 133.7 152.6 132.2 151.2 132.2 151.2 C 133.4 149.3 135.4 148.1 137.9 148.1 C 141.1 148.1 143.5 149.8 143.5 153.4 C 143.5 155.9 141.8 157.6 140 158 C 141.7 158.3 143.8 160.1 143.8 163 C 143.8 166.3 141.7 168.7 137.9 168.7 C 135 168.7 132.9 167.2 131.9 165.4 Z M 146.1 165.4 C 146.1 165.4 147.7 164 147.7 164 C 148.6 165.5 150.1 166.6 152 166.6 C 154.4 166.6 155.6 165.1 155.6 162.8 C 155.6 160.1 153.8 159.2 151.8 159.2 C 151.2 159.2 150.5 159.2 150.2 159.2 C 150.2 159.2 150.2 157 150.2 157 C 150.5 157.1 151.2 157.1 151.7 157.1 C 153.7 157.1 155.4 156 155.4 153.7 C 155.4 151.3 153.9 150.2 151.9 150.2 C 150.1 150.2 148.9 151.1 147.9 152.6 C 147.9 152.6 146.4 151.2 146.4 151.2 C 147.6 149.3 149.6 148.1 152.1 148.1 C 155.3 148.1 157.7 149.8 157.7 153.4 C 157.7 155.9 156 157.6 154.2 158 C 155.9 158.3 158 160.1 158 163 C 158 166.3 155.9 168.7 152.1 168.7 C 149.2 168.7 147.1 167.2 146.1 165.4 Z M 168 168.4 L 168 163.2 L 160.1 163.2 L 160.1 161.2 L 167.4 148.4 L 170.4 148.4 L 170.4 161.1 L 172.6 161.1 L 172.6 163.2 L 170.4 163.2 L 170.4 168.4 L 168 168.4 Z M 168 150.9 L 162.3 161.1 L 168 161.1 L 168 150.9 Z M 174.6 163.5 C 174.6 160.8 176.7 158.8 178.6 158.1 C 176.8 157.4 174.9 155.7 174.9 153.2 C 174.9 149.7 177.7 148.1 180.6 148.1 C 183.5 148.1 186.3 149.7 186.3 153.2 C 186.3 155.7 184.4 157.4 182.6 158.1 C 184.5 158.8 186.5 160.8 186.5 163.4 C 186.5 166.7 184.1 168.7 180.6 168.7 C 177.1 168.7 174.6 166.7 174.6 163.5 Z M 183.9 153.5 C 183.9 151.5 182.5 150.2 180.6 150.2 C 178.6 150.2 177.3 151.5 177.3 153.5 C 177.3 155.9 179.8 156.9 180.6 157.2 C 181.4 156.9 183.9 155.9 183.9 153.5 Z M 184.1 163.2 C 184.1 160.5 181.4 159.2 180.6 159 C 179.7 159.2 177.1 160.5 177.1 163.2 C 177.1 165.3 178.6 166.6 180.6 166.6 C 182.5 166.6 184.1 165.3 184.1 163.2 Z M 189.7 167.1 C 189.7 166.2 190.4 165.5 191.3 165.5 C 192.2 165.5 192.9 166.2 192.9 167.1 C 192.9 168 192.2 168.7 191.3 168.7 C 190.4 168.7 189.7 168 189.7 167.1 Z M 196.3 168.4 C 196.3 168.4 196.31 166.43 196.3 166.4 C 202.8 158.9 205.1 156.5 205.1 153.5 C 205.1 151.4 203.6 150.2 201.9 150.2 C 200 150.2 198.6 151.1 197.7 152.7 C 197.7 152.7 196.1 151.3 196.1 151.3 C 197.4 149.2 199.4 148.1 201.9 148.1 C 205 148.1 207.5 150 207.5 153.5 C 207.5 156.9 205 159.9 199.7 166.2 C 199.7 166.25 207.6 166.2 207.6 166.2 L 207.6 168.4 L 196.3 168.4 Z M 214.4 168.4 L 214.4 151.5 L 211.3 154.8 L 209.8 153.3 L 214.6 148.4 L 216.7 148.4 L 216.7 168.4 L 214.4 168.4 Z " stroke="none" fill="#d0d1d4"/>  </g>  <g id="Polygon219909">    <path d="M 133.8 132.4 L 133.8 115.5 L 130.7 118.8 L 129.3 117.3 L 134.1 112.4 L 136.2 112.4 L 136.2 132.4 L 133.8 132.4 Z M 139.9 132.4 C 139.9 132.4 139.88 130.43 139.9 130.4 C 146.4 122.9 148.7 120.5 148.7 117.5 C 148.7 115.4 147.2 114.2 145.5 114.2 C 143.6 114.2 142.2 115.1 141.2 116.7 C 141.2 116.7 139.7 115.3 139.7 115.3 C 141 113.2 142.9 112.1 145.5 112.1 C 148.5 112.1 151.1 114 151.1 117.5 C 151.1 120.9 148.6 123.9 143.3 130.2 C 143.27 130.25 151.2 130.2 151.2 130.2 L 151.2 132.4 L 139.9 132.4 Z M 154.5 129.5 C 154.5 129.5 156.1 128 156.1 128 C 157.1 129.7 158.4 130.6 160.3 130.6 C 162.5 130.6 163.9 128.6 163.9 126.3 C 163.9 123.4 162.6 121.8 160.5 121.8 C 159.1 121.8 158 122.4 156.9 123.7 C 156.86 123.71 155.1 123.1 155.1 123.1 L 155.1 112.4 L 165.3 112.4 L 165.3 114.5 L 157.5 114.5 C 157.5 114.5 157.46 121.49 157.5 121.5 C 158.2 120.5 159.6 119.7 161.1 119.7 C 164 119.7 166.3 122 166.3 126.2 C 166.3 130 163.9 132.7 160.4 132.7 C 157.5 132.7 155.7 131.5 154.5 129.5 Z M 169.1 122.4 C 169.1 117.6 170.7 112.1 175.4 112.1 C 180 112.1 181.6 117.6 181.6 122.4 C 181.6 127.2 180 132.7 175.4 132.7 C 170.7 132.7 169.1 127.2 169.1 122.4 Z M 179.2 122.4 C 179.2 118.4 178.5 114.2 175.4 114.2 C 172.3 114.2 171.6 118.4 171.6 122.4 C 171.6 126.3 172.3 130.6 175.4 130.6 C 178.5 130.6 179.2 126.3 179.2 122.4 Z M 184.9 131.1 C 184.9 130.2 185.6 129.5 186.5 129.5 C 187.3 129.5 188.1 130.2 188.1 131.1 C 188.1 132 187.3 132.7 186.5 132.7 C 185.6 132.7 184.9 132 184.9 131.1 Z M 190.8 129.4 C 190.8 129.4 192.3 128 192.3 128 C 193.2 129.5 194.7 130.6 196.6 130.6 C 199 130.6 200.2 129.1 200.2 126.8 C 200.2 124.1 198.5 123.2 196.4 123.2 C 195.8 123.2 195.1 123.2 194.8 123.2 C 194.8 123.2 194.8 121 194.8 121 C 195.1 121.1 195.9 121.1 196.4 121.1 C 198.4 121.1 200 120 200 117.7 C 200 115.3 198.6 114.2 196.5 114.2 C 194.8 114.2 193.5 115.1 192.5 116.6 C 192.5 116.6 191 115.2 191 115.2 C 192.2 113.3 194.2 112.1 196.7 112.1 C 199.9 112.1 202.4 113.8 202.4 117.4 C 202.4 119.9 200.6 121.6 198.8 122 C 200.6 122.3 202.6 124.1 202.6 127 C 202.6 130.3 200.5 132.7 196.7 132.7 C 193.8 132.7 191.8 131.2 190.8 129.4 Z M 205.5 122.4 C 205.5 117 207.4 112.1 212.2 112.1 C 214.3 112.1 215.9 113.1 216.9 114.6 C 216.9 114.6 215.6 116.2 215.6 116.2 C 214.8 115 213.9 114.2 212.3 114.2 C 209.1 114.2 207.9 118.4 207.9 122.2 C 207.9 122.4 207.9 122.5 207.9 122.8 C 208.6 121.4 210.3 119.8 212.3 119.8 C 215.2 119.8 217.6 122 217.6 126.2 C 217.6 129.6 215.5 132.7 211.8 132.7 C 207 132.7 205.5 127.7 205.5 122.4 Z M 215.1 126.3 C 215.1 123.1 213.6 121.9 211.7 121.9 C 210 121.9 208.7 123.3 207.9 125 C 208.1 127.2 208.9 130.6 211.7 130.6 C 214.1 130.6 215.1 128.4 215.1 126.3 Z " stroke="none" fill="#d0d1d4"/>  </g>  <g id="Polygon219908">    <path d="M 134 96.4 L 134 79.5 L 130.9 82.8 L 129.5 81.3 L 134.3 76.4 L 136.4 76.4 L 136.4 96.4 L 134 96.4 Z M 139.8 91.5 C 139.8 88.8 141.8 86.8 143.8 86.1 C 142 85.4 140.1 83.7 140.1 81.2 C 140.1 77.7 142.9 76.1 145.8 76.1 C 148.6 76.1 151.4 77.7 151.4 81.2 C 151.4 83.7 149.5 85.4 147.7 86.1 C 149.7 86.8 151.7 88.8 151.7 91.4 C 151.7 94.7 149.2 96.7 145.8 96.7 C 142.2 96.7 139.8 94.7 139.8 91.5 Z M 149 81.5 C 149 79.5 147.7 78.2 145.8 78.2 C 143.8 78.2 142.5 79.5 142.5 81.5 C 142.5 83.9 145 84.9 145.8 85.2 C 146.5 84.9 149 83.9 149 81.5 Z M 149.3 91.2 C 149.3 88.5 146.6 87.2 145.8 87 C 144.9 87.2 142.2 88.5 142.2 91.2 C 142.2 93.3 143.8 94.6 145.8 94.6 C 147.7 94.6 149.3 93.3 149.3 91.2 Z M 154.5 86.4 C 154.5 81.6 156 76.1 160.7 76.1 C 165.4 76.1 167 81.6 167 86.4 C 167 91.2 165.4 96.7 160.7 96.7 C 156 96.7 154.5 91.2 154.5 86.4 Z M 164.6 86.4 C 164.6 82.4 163.8 78.2 160.7 78.2 C 157.7 78.2 156.9 82.4 156.9 86.4 C 156.9 90.3 157.6 94.6 160.7 94.6 C 163.8 94.6 164.6 90.3 164.6 86.4 Z M 169.3 93.4 C 169.3 93.4 170.8 92 170.8 92 C 171.8 93.5 173.2 94.6 175.1 94.6 C 177.6 94.6 178.8 93.1 178.8 90.8 C 178.8 88.1 177 87.2 174.9 87.2 C 174.3 87.2 173.6 87.2 173.4 87.2 C 173.4 87.2 173.4 85 173.4 85 C 173.6 85.1 174.4 85.1 174.9 85.1 C 176.9 85.1 178.5 84 178.5 81.7 C 178.5 79.3 177.1 78.2 175.1 78.2 C 173.3 78.2 172 79.1 171 80.6 C 171 80.6 169.5 79.2 169.5 79.2 C 170.7 77.3 172.7 76.1 175.2 76.1 C 178.5 76.1 180.9 77.8 180.9 81.4 C 180.9 83.9 179.1 85.6 177.3 86 C 179.1 86.3 181.2 88.1 181.2 91 C 181.2 94.3 179 96.7 175.2 96.7 C 172.4 96.7 170.3 95.2 169.3 93.4 Z M 184.4 95.1 C 184.4 94.2 185.1 93.5 186 93.5 C 186.9 93.5 187.6 94.2 187.6 95.1 C 187.6 96 186.9 96.7 186 96.7 C 185.1 96.7 184.4 96 184.4 95.1 Z M 191 93.5 C 191 93.5 192.6 92 192.6 92 C 193.5 93.7 194.9 94.6 196.8 94.6 C 199 94.6 200.4 92.6 200.4 90.3 C 200.4 87.4 199 85.8 197 85.8 C 195.6 85.8 194.4 86.4 193.3 87.7 C 193.33 87.71 191.6 87.1 191.6 87.1 L 191.6 76.4 L 201.8 76.4 L 201.8 78.5 L 193.9 78.5 C 193.9 78.5 193.93 85.49 193.9 85.5 C 194.7 84.5 196 83.7 197.6 83.7 C 200.5 83.7 202.8 86 202.8 90.2 C 202.8 94 200.4 96.7 196.9 96.7 C 193.9 96.7 192.2 95.5 191 93.5 Z M 205.8 96.4 C 205.8 96.4 205.75 94.43 205.8 94.4 C 212.3 86.9 214.5 84.5 214.5 81.5 C 214.5 79.4 213 78.2 211.3 78.2 C 209.4 78.2 208.1 79.1 207.1 80.7 C 207.1 80.7 205.5 79.3 205.5 79.3 C 206.9 77.2 208.8 76.1 211.4 76.1 C 214.4 76.1 217 78 217 81.5 C 217 84.9 214.5 87.9 209.1 94.2 C 209.14 94.25 217.1 94.2 217.1 94.2 L 217.1 96.4 L 205.8 96.4 Z " stroke="none" fill="#d0d1d4"/>  </g>  <g id="Polygon219907">    <path d="M 147.3 60.4 C 147.3 60.4 147.35 58.43 147.3 58.4 C 153.9 50.9 156.1 48.5 156.1 45.5 C 156.1 43.4 154.6 42.2 152.9 42.2 C 151 42.2 149.7 43.1 148.7 44.7 C 148.7 44.7 147.1 43.3 147.1 43.3 C 148.5 41.2 150.4 40.1 153 40.1 C 156 40.1 158.6 42 158.6 45.5 C 158.6 48.9 156 51.9 150.7 58.2 C 150.74 58.25 158.7 58.2 158.7 58.2 L 158.7 60.4 L 147.3 60.4 Z M 165.4 60.4 L 165.4 43.5 L 162.3 46.8 L 160.9 45.3 L 165.7 40.4 L 167.8 40.4 L 167.8 60.4 L 165.4 60.4 Z M 171.4 57.5 C 171.4 57.5 173 56 173 56 C 174 57.7 175.3 58.6 177.3 58.6 C 179.4 58.6 180.8 56.6 180.8 54.3 C 180.8 51.4 179.5 49.8 177.4 49.8 C 176 49.8 174.9 50.4 173.8 51.7 C 173.77 51.71 172 51.1 172 51.1 L 172 40.4 L 182.2 40.4 L 182.2 42.5 L 174.4 42.5 C 174.4 42.5 174.37 49.49 174.4 49.5 C 175.2 48.5 176.5 47.7 178.1 47.7 C 180.9 47.7 183.3 50 183.3 54.2 C 183.3 58 180.8 60.7 177.3 60.7 C 174.4 60.7 172.7 59.5 171.4 57.5 Z M 186.4 59.1 C 186.4 58.2 187.2 57.5 188 57.5 C 188.9 57.5 189.6 58.2 189.6 59.1 C 189.6 60 188.9 60.7 188 60.7 C 187.2 60.7 186.4 60 186.4 59.1 Z M 194.4 60.4 L 200.7 42.5 L 192.2 42.5 L 192.2 40.4 L 203.4 40.4 L 203.4 42 L 197 60.4 L 194.4 60.4 Z M 205.7 57.5 C 205.7 57.5 207.3 56 207.3 56 C 208.2 57.7 209.5 58.6 211.5 58.6 C 213.7 58.6 215.1 56.6 215.1 54.3 C 215.1 51.4 213.7 49.8 211.6 49.8 C 210.2 49.8 209.1 50.4 208 51.7 C 208 51.71 206.2 51.1 206.2 51.1 L 206.2 40.4 L 216.4 40.4 L 216.4 42.5 L 208.6 42.5 C 208.6 42.5 208.6 49.49 208.6 49.5 C 209.4 48.5 210.7 47.7 212.3 47.7 C 215.2 47.7 217.5 50 217.5 54.2 C 217.5 58 215 60.7 211.5 60.7 C 208.6 60.7 206.9 59.5 205.7 57.5 Z " stroke="none" fill="#d0d1d4"/>  </g>  <g id="Polygon219906">    <path d="M 148 24.4 L 148 7.5 L 144.9 10.8 L 143.5 9.3 L 148.3 4.4 L 150.4 4.4 L 150.4 24.4 L 148 24.4 Z M 154 21.5 C 154 21.5 155.6 20 155.6 20 C 156.6 21.7 157.9 22.6 159.9 22.6 C 162 22.6 163.4 20.6 163.4 18.3 C 163.4 15.4 162.1 13.8 160 13.8 C 158.6 13.8 157.5 14.4 156.4 15.7 C 156.38 15.71 154.6 15.1 154.6 15.1 L 154.6 4.4 L 164.8 4.4 L 164.8 6.5 L 157 6.5 C 157 6.5 156.98 13.49 157 13.5 C 157.8 12.5 159.1 11.7 160.7 11.7 C 163.5 11.7 165.9 14 165.9 18.2 C 165.9 22 163.4 24.7 159.9 24.7 C 157 24.7 155.3 23.5 154 21.5 Z M 168.6 14.4 C 168.6 9 170.5 4.1 175.4 4.1 C 177.5 4.1 179.1 5.1 180 6.6 C 180 6.6 178.7 8.2 178.7 8.2 C 178 7 177 6.2 175.4 6.2 C 172.2 6.2 171 10.4 171 14.2 C 171 14.4 171 14.5 171 14.8 C 171.7 13.4 173.4 11.8 175.5 11.8 C 178.4 11.8 180.7 14 180.7 18.2 C 180.7 21.6 178.6 24.7 174.9 24.7 C 170.2 24.7 168.6 19.7 168.6 14.4 Z M 178.3 18.3 C 178.3 15.1 176.7 13.9 174.9 13.9 C 173.2 13.9 171.8 15.3 171.1 17 C 171.2 19.2 172 22.6 174.8 22.6 C 177.2 22.6 178.3 20.4 178.3 18.3 Z M 183.8 23.1 C 183.8 22.2 184.5 21.5 185.4 21.5 C 186.3 21.5 187 22.2 187 23.1 C 187 24 186.3 24.7 185.4 24.7 C 184.5 24.7 183.8 24 183.8 23.1 Z M 190.4 24.4 C 190.4 24.4 190.39 22.43 190.4 22.4 C 196.9 14.9 199.2 12.5 199.2 9.5 C 199.2 7.4 197.7 6.2 196 6.2 C 194.1 6.2 192.7 7.1 191.7 8.7 C 191.7 8.7 190.2 7.3 190.2 7.3 C 191.5 5.2 193.5 4.1 196 4.1 C 199.1 4.1 201.6 6 201.6 9.5 C 201.6 12.9 199.1 15.9 193.8 22.2 C 193.78 22.25 201.7 22.2 201.7 22.2 L 201.7 24.4 L 190.4 24.4 Z M 204.9 14.4 C 204.9 9.6 206.5 4.1 211.2 4.1 C 215.8 4.1 217.4 9.6 217.4 14.4 C 217.4 19.2 215.8 24.7 211.2 24.7 C 206.5 24.7 204.9 19.2 204.9 14.4 Z M 215 14.4 C 215 10.4 214.2 6.2 211.2 6.2 C 208.1 6.2 207.3 10.4 207.3 14.4 C 207.3 18.3 208.1 22.6 211.2 22.6 C 214.2 22.6 215 18.3 215 14.4 Z " stroke="none" fill="#d0d1d4"/>  </g></svg>