<?xml version="1.0" standalone="no"?><!DOCTYPE svg PUBLIC "-//W3C//DTD SVG 1.1//EN" "http://www.w3.org/Graphics/SVG/1.1/DTD/svg11.dtd"><svg xmlns="http://www.w3.org/2000/svg" version="1.1" width="92px" height="48.3px" viewBox="0 0 92 48.3">  <desc>( 1 2 )</desc>  <defs/>  <g id="Polygon203704">    <path d="M 25.4 36.4 C 23.1 32.5 21.9 28 21.9 23.1 C 21.9 18.3 23.1 13.8 25.4 9.9 C 25.4 9.9 26.8 10.7 26.8 10.7 C 25.2 14.5 24.3 18.1 24.3 23.1 C 24.3 28.2 25.2 31.8 26.8 35.6 C 26.8 35.6 25.4 36.4 25.4 36.4 Z M 33.6 30.4 L 33.6 13.6 L 30.6 16.9 L 29.1 15.4 L 33.9 10.4 L 36 10.4 L 36 30.4 L 33.6 30.4 Z M 39.4 31 L 45.2 9.8 L 46.8 9.8 L 41.1 31 L 39.4 31 Z M 49.7 30.4 C 49.7 30.4 49.72 28.49 49.7 28.5 C 56.3 21 58.5 18.5 58.5 15.6 C 58.5 13.5 57 12.3 55.3 12.3 C 53.4 12.3 52 13.2 51.1 14.8 C 51.1 14.8 49.5 13.3 49.5 13.3 C 50.8 11.3 52.8 10.1 55.3 10.1 C 58.4 10.1 60.9 12.1 60.9 15.6 C 60.9 18.9 58.4 21.9 53.1 28.3 C 53.11 28.31 61 28.3 61 28.3 L 61 30.4 L 49.7 30.4 Z M 64.6 35.6 C 66.2 31.8 67.2 28.2 67.2 23.1 C 67.2 18.1 66.2 14.5 64.6 10.7 C 64.6 10.7 66 9.9 66 9.9 C 68.3 13.8 69.6 18.3 69.6 23.1 C 69.6 28 68.3 32.5 66 36.4 C 66 36.4 64.6 35.6 64.6 35.6 Z " stroke="none" fill="#efd8d3"/>  </g></svg>