<?xml version="1.0" standalone="no"?><!DOCTYPE svg PUBLIC "-//W3C//DTD SVG 1.1//EN" "http://www.w3.org/Graphics/SVG/1.1/DTD/svg11.dtd"><svg xmlns="http://www.w3.org/2000/svg" version="1.1" width="219px" height="332.3px" viewBox="0 0 219 332.3">  <desc>30 ml 240 ml 5 ml tsp tsp 3 drops 2 5 g to taste</desc>  <defs/>  <g id="Polygon149678">    <path d="M 2.4 281.8 C 2.4 281.79 2.4 272.1 2.4 272.1 L 0.5 272.1 L 0.5 270.2 L 2.4 270.2 L 2.4 266.3 L 4.6 266.3 L 4.6 270.2 L 7 270.2 L 7 272.1 L 4.6 272.1 C 4.6 272.1 4.56 281.4 4.6 281.4 C 4.6 282.5 4.9 283.1 5.7 283.1 C 6.3 283.1 6.7 282.9 7 282.6 C 7 282.6 7.6 284.2 7.6 284.2 C 7.1 284.7 6.4 285.1 5.3 285.1 C 3.3 285.1 2.4 284 2.4 281.8 Z M 9.1 277.4 C 9.1 273.4 11.2 269.9 15 269.9 C 18.9 269.9 20.9 273.4 20.9 277.4 C 20.9 281.5 18.9 285.1 15 285.1 C 11.2 285.1 9.1 281.5 9.1 277.4 Z M 18.7 277.4 C 18.7 274.5 17.6 271.8 15 271.8 C 12.5 271.8 11.4 274.5 11.4 277.4 C 11.4 280.4 12.5 283.1 15 283.1 C 17.6 283.1 18.7 280.4 18.7 277.4 Z M 31 281.8 C 31.05 281.79 31 272.1 31 272.1 L 29.1 272.1 L 29.1 270.2 L 31 270.2 L 31 266.3 L 33.2 266.3 L 33.2 270.2 L 35.7 270.2 L 35.7 272.1 L 33.2 272.1 C 33.2 272.1 33.21 281.4 33.2 281.4 C 33.2 282.5 33.5 283.1 34.4 283.1 C 34.9 283.1 35.4 282.9 35.6 282.6 C 35.6 282.6 36.3 284.2 36.3 284.2 C 35.8 284.7 35.1 285.1 34 285.1 C 32 285.1 31 284 31 281.8 Z M 46 284.7 C 46 284.7 45.96 283.14 46 283.1 C 45 284.5 43.6 285.1 42.1 285.1 C 39.8 285.1 37.8 283.3 37.8 280.2 C 37.8 277.2 39.8 275.5 42.1 275.5 C 43.6 275.5 45.1 276 46 277.3 C 46 277.3 46 274.8 46 274.8 C 46 272.8 44.9 271.7 43 271.7 C 41.6 271.7 40.5 272.2 39.4 273.5 C 39.4 273.5 38.4 272 38.4 272 C 39.8 270.5 41.5 269.9 43.3 269.9 C 46.2 269.9 48.1 271.3 48.1 274.6 C 48.12 274.56 48.1 284.7 48.1 284.7 L 46 284.7 Z M 46 281.7 C 46 281.7 46 278.9 46 278.9 C 45.3 277.7 44.1 277.1 42.8 277.1 C 41 277.1 40 278.5 40 280.3 C 40 282.1 41 283.5 42.8 283.5 C 44.1 283.5 45.3 282.9 46 281.7 Z M 50.9 283 C 50.9 283 52 281.5 52 281.5 C 52.8 282.5 54.2 283.3 55.7 283.3 C 57.4 283.3 58.5 282.4 58.5 281 C 58.5 277.6 51.3 278.8 51.3 273.8 C 51.3 271.6 53 269.9 55.9 269.9 C 57.8 269.9 59.3 270.6 60.3 271.7 C 60.3 271.7 59.3 273.2 59.3 273.2 C 58.6 272.2 57.4 271.6 55.9 271.6 C 54.4 271.6 53.4 272.5 53.4 273.7 C 53.4 276.8 60.6 275.7 60.6 280.9 C 60.6 283.3 58.7 285.1 55.8 285.1 C 53.7 285.1 52.1 284.4 50.9 283 Z M 64.1 281.8 C 64.08 281.79 64.1 272.1 64.1 272.1 L 62.2 272.1 L 62.2 270.2 L 64.1 270.2 L 64.1 266.3 L 66.2 266.3 L 66.2 270.2 L 68.7 270.2 L 68.7 272.1 L 66.2 272.1 C 66.2 272.1 66.24 281.4 66.2 281.4 C 66.2 282.5 66.6 283.1 67.4 283.1 C 67.9 283.1 68.4 282.9 68.7 282.6 C 68.7 282.6 69.3 284.2 69.3 284.2 C 68.8 284.7 68.1 285.1 67 285.1 C 65 285.1 64.1 284 64.1 281.8 Z M 70.8 277.4 C 70.8 273.2 73 269.9 76.7 269.9 C 80.5 269.9 82.4 273.3 82.4 277.5 C 82.44 277.5 82.4 278.2 82.4 278.2 C 82.4 278.2 73.05 278.16 73 278.2 C 73.1 281.1 74.6 283.3 77.2 283.3 C 78.5 283.3 79.8 282.6 80.7 281.5 C 80.7 281.5 81.8 282.8 81.8 282.8 C 80.6 284.2 79 285.1 77 285.1 C 73.2 285.1 70.8 281.9 70.8 277.4 Z M 76.7 271.7 C 74.1 271.7 73.1 274.4 73 276.6 C 73 276.6 80.3 276.6 80.3 276.6 C 80.3 274.4 79.3 271.7 76.7 271.7 Z " stroke="none" fill="#d0d1d4"/>  </g>  <g id="Polygon149677">    <path d="M 1.6 248.7 C 1.6 248.7 1.59 246.75 1.6 246.8 C 8.1 239.2 10.4 236.8 10.4 233.9 C 10.4 231.7 8.9 230.5 7.2 230.5 C 5.3 230.5 3.9 231.5 2.9 233 C 2.9 233 1.4 231.6 1.4 231.6 C 2.7 229.6 4.7 228.4 7.2 228.4 C 10.3 228.4 12.8 230.4 12.8 233.9 C 12.8 237.2 10.3 240.2 5 246.6 C 4.98 246.57 12.9 246.6 12.9 246.6 L 12.9 248.7 L 1.6 248.7 Z M 16.5 247.4 C 16.5 246.5 17.2 245.8 18.1 245.8 C 19 245.8 19.7 246.5 19.7 247.4 C 19.7 248.3 19 249 18.1 249 C 17.2 249 16.5 248.3 16.5 247.4 Z M 23.1 245.8 C 23.1 245.8 24.7 244.4 24.7 244.4 C 25.6 246 26.9 246.9 28.9 246.9 C 31.1 246.9 32.5 244.9 32.5 242.6 C 32.5 239.7 31.1 238.2 29 238.2 C 27.6 238.2 26.5 238.7 25.4 240 C 25.41 240.03 23.6 239.4 23.6 239.4 L 23.6 228.7 L 33.8 228.7 L 33.8 230.8 L 26 230.8 C 26 230.8 26.01 237.81 26 237.8 C 26.8 236.9 28.1 236.1 29.7 236.1 C 32.6 236.1 34.9 238.4 34.9 242.5 C 34.9 246.3 32.4 249.1 28.9 249.1 C 26 249.1 24.3 247.8 23.1 245.8 Z M 44.5 252.8 C 44.5 252.8 45.5 251.1 45.5 251.1 C 46.5 252.2 47.7 252.8 49.3 252.8 C 51.3 252.8 52.9 251.6 52.9 248.8 C 52.9 248.8 52.9 246.4 52.9 246.4 C 52.1 247.9 50.7 248.9 49.1 248.9 C 45.9 248.9 43.9 245.9 43.9 241.4 C 43.9 236.9 45.9 233.9 49.1 233.9 C 50.6 233.9 52 234.7 52.9 236.3 C 52.95 236.31 52.9 234.2 52.9 234.2 L 55.1 234.2 C 55.1 234.2 55.11 248.67 55.1 248.7 C 55.1 253.1 52.4 254.6 49.4 254.6 C 47.4 254.6 45.9 254.1 44.5 252.8 Z M 52.9 244.6 C 52.9 244.6 52.9 238.1 52.9 238.1 C 52.4 236.9 51.1 235.8 49.7 235.8 C 47.3 235.8 46.2 238.3 46.2 241.4 C 46.2 244.5 47.3 247 49.7 247 C 51.1 247 52.4 245.8 52.9 244.6 Z " stroke="none" fill="#d0d1d4"/>  </g>  <g id="Polygon149676">    <path d="M 0.9 209.7 C 0.9 209.7 2.4 208.3 2.4 208.3 C 3.4 209.8 4.8 210.9 6.7 210.9 C 9.1 210.9 10.3 209.4 10.3 207.1 C 10.3 204.4 8.6 203.5 6.5 203.5 C 5.9 203.5 5.2 203.5 4.9 203.5 C 4.9 203.5 4.9 201.4 4.9 201.4 C 5.2 201.4 6 201.4 6.5 201.4 C 8.5 201.4 10.1 200.3 10.1 198 C 10.1 195.7 8.7 194.5 6.7 194.5 C 4.9 194.5 3.6 195.5 2.6 196.9 C 2.6 196.9 1.1 195.5 1.1 195.5 C 2.3 193.6 4.3 192.4 6.8 192.4 C 10.1 192.4 12.5 194.2 12.5 197.7 C 12.5 200.2 10.7 201.9 8.9 202.4 C 10.7 202.6 12.8 204.4 12.8 207.3 C 12.8 210.6 10.6 213.1 6.8 213.1 C 4 213.1 1.9 211.6 0.9 209.7 Z M 30.9 212.7 C 30.9 212.7 30.9 210.63 30.9 210.6 C 30.1 212.1 28.6 213.1 27.1 213.1 C 23.8 213.1 21.9 210 21.9 205.5 C 21.9 201 23.8 197.9 27.1 197.9 C 28.6 197.9 30 198.7 30.9 200.3 C 30.9 200.31 30.9 192.7 30.9 192.7 L 33.1 192.7 L 33.1 212.7 L 30.9 212.7 Z M 30.9 208.8 C 30.9 208.8 30.9 202.1 30.9 202.1 C 30.4 200.9 29 199.8 27.6 199.8 C 25.3 199.8 24.1 202.3 24.1 205.5 C 24.1 208.6 25.3 211.1 27.6 211.1 C 29 211.1 30.4 210.1 30.9 208.8 Z M 37 212.7 L 37 198.2 L 39.1 198.2 C 39.1 198.2 39.15 200.52 39.1 200.5 C 40.1 199 41.5 197.9 43.3 197.9 C 43.3 197.9 43.3 200.1 43.3 200.1 C 43 200.1 42.8 200 42.5 200 C 41.2 200 39.7 201.2 39.1 202.4 C 39.15 202.41 39.1 212.7 39.1 212.7 L 37 212.7 Z M 45 205.4 C 45 201.4 47.1 197.9 50.9 197.9 C 54.8 197.9 56.8 201.4 56.8 205.4 C 56.8 209.5 54.8 213.1 50.9 213.1 C 47.1 213.1 45 209.5 45 205.4 Z M 54.6 205.4 C 54.6 202.5 53.5 199.8 50.9 199.8 C 48.4 199.8 47.3 202.5 47.3 205.4 C 47.3 208.4 48.4 211.1 50.9 211.1 C 53.5 211.1 54.6 208.4 54.6 205.4 Z M 62.2 210.6 C 62.19 210.6 62.2 218.2 62.2 218.2 L 60.1 218.2 L 60.1 198.2 L 62.2 198.2 C 62.2 198.2 62.19 200.28 62.2 200.3 C 63 198.8 64.5 197.9 66 197.9 C 69.3 197.9 71.2 200.9 71.2 205.4 C 71.2 210 69.3 213.1 66 213.1 C 64.5 213.1 63.1 212.2 62.2 210.6 Z M 68.9 205.4 C 68.9 202.3 67.8 199.8 65.5 199.8 C 64.1 199.8 62.8 200.9 62.2 202.1 C 62.2 202.1 62.2 208.7 62.2 208.7 C 62.8 210 64.1 211.1 65.5 211.1 C 67.8 211.1 68.9 208.6 68.9 205.4 Z M 73.2 211 C 73.2 211 74.3 209.5 74.3 209.5 C 75.1 210.5 76.5 211.3 78.1 211.3 C 79.8 211.3 80.9 210.4 80.9 209 C 80.9 205.6 73.6 206.8 73.6 201.8 C 73.6 199.6 75.4 197.9 78.3 197.9 C 80.2 197.9 81.7 198.6 82.7 199.7 C 82.7 199.7 81.7 201.2 81.7 201.2 C 80.9 200.2 79.7 199.6 78.3 199.6 C 76.7 199.6 75.7 200.5 75.7 201.7 C 75.7 204.8 82.9 203.7 82.9 208.9 C 82.9 211.3 81.1 213.1 78.1 213.1 C 76.1 213.1 74.4 212.4 73.2 211 Z " stroke="none" fill="#d0d1d4"/>  </g>  <g id="Polygon149675">    <path d="M 3.3 168.7 L 3.3 158.9 L 1.4 160.9 L 0.4 159.9 L 3.5 156.7 L 5.1 156.7 L 5.1 168.7 L 3.3 168.7 Z M 18 173.7 L 18 176.7 L 16.3 176.7 L 16.3 173.7 L 11.2 173.7 L 11.2 172.3 L 15.7 164.7 L 18 164.7 L 18 172.3 L 19.4 172.3 L 19.4 173.7 L 18 173.7 Z M 16.3 166.5 L 12.8 172.3 L 16.3 172.3 L 16.3 166.5 Z M 5 176.7 L 3.5 176.7 L 14 156.7 L 15.5 156.7 L 5 176.7 Z M 29 173.8 C 29.04 173.79 29 164.1 29 164.1 L 27.1 164.1 L 27.1 162.2 L 29 162.2 L 29 158.3 L 31.2 158.3 L 31.2 162.2 L 33.7 162.2 L 33.7 164.1 L 31.2 164.1 C 31.2 164.1 31.2 173.4 31.2 173.4 C 31.2 174.5 31.5 175.1 32.4 175.1 C 32.9 175.1 33.4 174.9 33.6 174.6 C 33.6 174.6 34.3 176.2 34.3 176.2 C 33.8 176.7 33.1 177.1 31.9 177.1 C 30 177.1 29 176 29 173.8 Z M 35.3 175 C 35.3 175 36.4 173.5 36.4 173.5 C 37.3 174.5 38.6 175.3 40.2 175.3 C 41.9 175.3 43 174.4 43 173 C 43 169.6 35.8 170.8 35.8 165.8 C 35.8 163.6 37.5 161.9 40.4 161.9 C 42.3 161.9 43.8 162.6 44.8 163.7 C 44.8 163.7 43.8 165.2 43.8 165.2 C 43 164.2 41.8 163.6 40.4 163.6 C 38.8 163.6 37.8 164.5 37.8 165.7 C 37.8 168.8 45.1 167.7 45.1 172.9 C 45.1 175.3 43.2 177.1 40.2 177.1 C 38.2 177.1 36.5 176.4 35.3 175 Z M 50.2 174.6 C 50.25 174.6 50.2 182.2 50.2 182.2 L 48.1 182.2 L 48.1 162.2 L 50.2 162.2 C 50.2 162.2 50.25 164.28 50.2 164.3 C 51.1 162.8 52.5 161.9 54.1 161.9 C 57.3 161.9 59.2 164.9 59.2 169.4 C 59.2 174 57.3 177.1 54.1 177.1 C 52.6 177.1 51.1 176.2 50.2 174.6 Z M 57 169.4 C 57 166.3 55.9 163.8 53.5 163.8 C 52.2 163.8 50.8 164.9 50.2 166.1 C 50.2 166.1 50.2 172.7 50.2 172.7 C 50.8 174 52.2 175.1 53.5 175.1 C 55.9 175.1 57 172.6 57 169.4 Z M 62.1 175.4 C 62.1 174.5 62.8 173.8 63.7 173.8 C 64.6 173.8 65.3 174.5 65.3 175.4 C 65.3 176.3 64.6 177 63.7 177 C 62.8 177 62.1 176.3 62.1 175.4 Z " stroke="none" fill="#d0d1d4"/>  </g>  <g id="Polygon149674">    <path d="M 3.3 132.7 L 3.3 122.9 L 1.4 124.9 L 0.4 123.9 L 3.5 120.7 L 5.1 120.7 L 5.1 132.7 L 3.3 132.7 Z M 18 137.7 L 18 140.7 L 16.3 140.7 L 16.3 137.7 L 11.2 137.7 L 11.2 136.3 L 15.7 128.7 L 18 128.7 L 18 136.3 L 19.4 136.3 L 19.4 137.7 L 18 137.7 Z M 16.3 130.5 L 12.8 136.3 L 16.3 136.3 L 16.3 130.5 Z M 5 140.7 L 3.5 140.7 L 14 120.7 L 15.5 120.7 L 5 140.7 Z M 29 137.8 C 29.04 137.79 29 128.1 29 128.1 L 27.1 128.1 L 27.1 126.2 L 29 126.2 L 29 122.3 L 31.2 122.3 L 31.2 126.2 L 33.7 126.2 L 33.7 128.1 L 31.2 128.1 C 31.2 128.1 31.2 137.4 31.2 137.4 C 31.2 138.5 31.5 139.1 32.4 139.1 C 32.9 139.1 33.4 138.9 33.6 138.6 C 33.6 138.6 34.3 140.2 34.3 140.2 C 33.8 140.7 33.1 141.1 31.9 141.1 C 30 141.1 29 140 29 137.8 Z M 35.3 139 C 35.3 139 36.4 137.5 36.4 137.5 C 37.3 138.5 38.6 139.3 40.2 139.3 C 41.9 139.3 43 138.4 43 137 C 43 133.6 35.8 134.8 35.8 129.8 C 35.8 127.6 37.5 125.9 40.4 125.9 C 42.3 125.9 43.8 126.6 44.8 127.7 C 44.8 127.7 43.8 129.2 43.8 129.2 C 43 128.2 41.8 127.6 40.4 127.6 C 38.8 127.6 37.8 128.5 37.8 129.7 C 37.8 132.8 45.1 131.7 45.1 136.9 C 45.1 139.3 43.2 141.1 40.2 141.1 C 38.2 141.1 36.5 140.4 35.3 139 Z M 50.2 138.6 C 50.25 138.6 50.2 146.2 50.2 146.2 L 48.1 146.2 L 48.1 126.2 L 50.2 126.2 C 50.2 126.2 50.25 128.28 50.2 128.3 C 51.1 126.8 52.5 125.9 54.1 125.9 C 57.3 125.9 59.2 128.9 59.2 133.4 C 59.2 138 57.3 141.1 54.1 141.1 C 52.6 141.1 51.1 140.2 50.2 138.6 Z M 57 133.4 C 57 130.3 55.9 127.8 53.5 127.8 C 52.2 127.8 50.8 128.9 50.2 130.1 C 50.2 130.1 50.2 136.7 50.2 136.7 C 50.8 138 52.2 139.1 53.5 139.1 C 55.9 139.1 57 136.6 57 133.4 Z M 62.1 139.4 C 62.1 138.5 62.8 137.8 63.7 137.8 C 64.6 137.8 65.3 138.5 65.3 139.4 C 65.3 140.3 64.6 141 63.7 141 C 62.8 141 62.1 140.3 62.1 139.4 Z " stroke="none" fill="#d0d1d4"/>  </g>  <g id="Polygon149673">    <path d="M 1.6 101.8 C 1.6 101.8 3.1 100.4 3.1 100.4 C 4.1 102 5.4 102.9 7.4 102.9 C 9.6 102.9 10.9 100.9 10.9 98.6 C 10.9 95.7 9.6 94.2 7.5 94.2 C 6.1 94.2 5 94.7 3.9 96 C 3.9 96.03 2.1 95.4 2.1 95.4 L 2.1 84.7 L 12.3 84.7 L 12.3 86.8 L 4.5 86.8 C 4.5 86.8 4.5 93.81 4.5 93.8 C 5.3 92.9 6.6 92.1 8.2 92.1 C 11.1 92.1 13.4 94.4 13.4 98.5 C 13.4 102.3 10.9 105.1 7.4 105.1 C 4.5 105.1 2.8 103.8 1.6 101.8 Z M 37.8 104.7 C 37.8 104.7 37.8 94.2 37.8 94.2 C 37.8 92.6 37.2 91.8 35.8 91.8 C 34.5 91.8 33.2 92.9 32.6 94.1 C 32.64 94.08 32.6 104.7 32.6 104.7 L 30.5 104.7 C 30.5 104.7 30.48 94.2 30.5 94.2 C 30.5 92.6 29.8 91.8 28.4 91.8 C 27.1 91.8 25.9 92.9 25.3 94.1 C 25.29 94.08 25.3 104.7 25.3 104.7 L 23.2 104.7 L 23.2 90.2 L 25.3 90.2 C 25.3 90.2 25.29 92.28 25.3 92.3 C 25.9 91.2 27.5 89.9 29.2 89.9 C 31.1 89.9 32.2 90.9 32.5 92.4 C 33.2 91.1 34.9 89.9 36.6 89.9 C 38.7 89.9 40 91 40 93.6 C 39.96 93.63 40 104.7 40 104.7 L 37.8 104.7 Z M 43.9 104.7 L 43.9 84.7 L 46 84.7 L 46 104.7 L 43.9 104.7 Z " stroke="none" fill="#d0d1d4"/>  </g>  <g id="Polygon149672">    <path d="M 1.6 68.7 C 1.6 68.7 1.59 66.75 1.6 66.8 C 8.1 59.2 10.4 56.8 10.4 53.9 C 10.4 51.7 8.9 50.5 7.2 50.5 C 5.3 50.5 3.9 51.5 2.9 53 C 2.9 53 1.4 51.6 1.4 51.6 C 2.7 49.6 4.7 48.4 7.2 48.4 C 10.3 48.4 12.8 50.4 12.8 53.9 C 12.8 57.2 10.3 60.2 5 66.6 C 4.98 66.57 12.9 66.6 12.9 66.6 L 12.9 68.7 L 1.6 68.7 Z M 23.3 68.7 L 23.3 63.6 L 15.4 63.6 L 15.4 61.5 L 22.6 48.7 L 25.6 48.7 L 25.6 61.5 L 27.8 61.5 L 27.8 63.6 L 25.6 63.6 L 25.6 68.7 L 23.3 68.7 Z M 23.3 51.3 L 17.5 61.5 L 23.3 61.5 L 23.3 51.3 Z M 29.9 58.7 C 29.9 53.9 31.5 48.4 36.2 48.4 C 40.9 48.4 42.5 53.9 42.5 58.7 C 42.5 63.5 40.9 69.1 36.2 69.1 C 31.5 69.1 29.9 63.5 29.9 58.7 Z M 40 58.7 C 40 54.8 39.3 50.5 36.2 50.5 C 33.1 50.5 32.4 54.8 32.4 58.7 C 32.4 62.6 33.1 66.9 36.2 66.9 C 39.3 66.9 40 62.6 40 58.7 Z M 67 68.7 C 67 68.7 66.96 58.2 67 58.2 C 67 56.6 66.3 55.8 64.9 55.8 C 63.7 55.8 62.4 56.9 61.8 58.1 C 61.8 58.08 61.8 68.7 61.8 68.7 L 59.6 68.7 C 59.6 68.7 59.64 58.2 59.6 58.2 C 59.6 56.6 59 55.8 57.6 55.8 C 56.3 55.8 55.1 56.9 54.4 58.1 C 54.45 58.08 54.4 68.7 54.4 68.7 L 52.3 68.7 L 52.3 54.2 L 54.4 54.2 C 54.4 54.2 54.45 56.28 54.4 56.3 C 55 55.2 56.7 53.9 58.4 53.9 C 60.3 53.9 61.4 54.9 61.7 56.4 C 62.4 55.1 64 53.9 65.8 53.9 C 67.9 53.9 69.1 55 69.1 57.6 C 69.12 57.63 69.1 68.7 69.1 68.7 L 67 68.7 Z M 73.1 68.7 L 73.1 48.7 L 75.2 48.7 L 75.2 68.7 L 73.1 68.7 Z " stroke="none" fill="#d0d1d4"/>  </g>  <g id="Polygon149671">    <path d="M 0.9 29.7 C 0.9 29.7 2.4 28.3 2.4 28.3 C 3.4 29.8 4.8 30.9 6.7 30.9 C 9.1 30.9 10.3 29.4 10.3 27.1 C 10.3 24.4 8.6 23.5 6.5 23.5 C 5.9 23.5 5.2 23.5 4.9 23.5 C 4.9 23.5 4.9 21.4 4.9 21.4 C 5.2 21.4 6 21.4 6.5 21.4 C 8.5 21.4 10.1 20.3 10.1 18 C 10.1 15.7 8.7 14.5 6.7 14.5 C 4.9 14.5 3.6 15.5 2.6 16.9 C 2.6 16.9 1.1 15.5 1.1 15.5 C 2.3 13.6 4.3 12.4 6.8 12.4 C 10.1 12.4 12.5 14.2 12.5 17.7 C 12.5 20.2 10.7 21.9 8.9 22.4 C 10.7 22.6 12.8 24.4 12.8 27.3 C 12.8 30.6 10.6 33.1 6.8 33.1 C 4 33.1 1.9 31.6 0.9 29.7 Z M 15.6 22.7 C 15.6 17.9 17.2 12.4 21.9 12.4 C 26.5 12.4 28.1 17.9 28.1 22.7 C 28.1 27.5 26.5 33.1 21.9 33.1 C 17.2 33.1 15.6 27.5 15.6 22.7 Z M 25.7 22.7 C 25.7 18.8 25 14.5 21.9 14.5 C 18.8 14.5 18.1 18.8 18.1 22.7 C 18.1 26.6 18.8 30.9 21.9 30.9 C 25 30.9 25.7 26.6 25.7 22.7 Z M 52.6 32.7 C 52.6 32.7 52.62 22.2 52.6 22.2 C 52.6 20.6 52 19.8 50.6 19.8 C 49.3 19.8 48 20.9 47.5 22.1 C 47.46 22.08 47.5 32.7 47.5 32.7 L 45.3 32.7 C 45.3 32.7 45.3 22.2 45.3 22.2 C 45.3 20.6 44.7 19.8 43.3 19.8 C 42 19.8 40.7 20.9 40.1 22.1 C 40.11 22.08 40.1 32.7 40.1 32.7 L 38 32.7 L 38 18.2 L 40.1 18.2 C 40.1 18.2 40.11 20.28 40.1 20.3 C 40.7 19.2 42.3 17.9 44.1 17.9 C 45.9 17.9 47.1 18.9 47.3 20.4 C 48.1 19.1 49.7 17.9 51.4 17.9 C 53.5 17.9 54.8 19 54.8 21.6 C 54.78 21.63 54.8 32.7 54.8 32.7 L 52.6 32.7 Z M 58.7 32.7 L 58.7 12.7 L 60.9 12.7 L 60.9 32.7 L 58.7 32.7 Z " stroke="none" fill="#d0d1d4"/>  </g></svg>