<?xml version="1.0" standalone="no"?><!DOCTYPE svg PUBLIC "-//W3C//DTD SVG 1.1//EN" "http://www.w3.org/Graphics/SVG/1.1/DTD/svg11.dtd"><svg xmlns="http://www.w3.org/2000/svg" version="1.1" width="658px" height="197.6px" viewBox="0 0 658 197.6">  <desc>Flavoured Slime and Toasted Dish Sponge with Putty Chunk and Hot Glue Spread</desc>  <defs/>  <g id="Polygon207903">    <path d="M 15.4 159.4 C 15.4 159.4 15.36 156.64 15.4 156.6 C 14.1 158.9 11.4 160.1 9.3 160.1 C 4.7 160.1 1.4 156.4 1.4 150.5 C 1.4 144.6 4.7 141 9.3 141 C 11.4 141 14.2 142.1 15.4 144.3 C 15.4 144.3 15.4 140.7 15.4 140.7 C 15.4 137.4 14 135.5 11 135.5 C 9.1 135.5 7 136.4 5.1 138.3 C 5.1 138.3 2.6 133.5 2.6 133.5 C 5.2 130.7 9.4 129.7 12.4 129.7 C 18.3 129.7 22.1 132.7 22.1 139.2 C 22.14 139.18 22.1 159.4 22.1 159.4 L 15.4 159.4 Z M 15.4 152.6 C 15.4 152.6 15.4 148.7 15.4 148.7 C 14.6 146.9 13.2 145.7 11.7 145.7 C 9.4 145.7 8.2 147.8 8.2 150.6 C 8.2 153.3 9.4 155.6 11.7 155.6 C 13.2 155.6 14.6 154.4 15.4 152.6 Z M 40.6 159.4 C 40.6 159.4 40.56 138.76 40.6 138.8 C 40.6 136.7 39.8 135.7 38.3 135.7 C 36.6 135.7 35.1 137.6 34.4 139.5 C 34.44 139.48 34.4 159.4 34.4 159.4 L 27.7 159.4 L 27.7 130.4 L 34.4 130.4 C 34.4 130.4 34.44 134.2 34.4 134.2 C 35.6 131.9 38.6 129.7 41.2 129.7 C 45.6 129.7 47.4 132.3 47.4 136.3 C 47.4 136.3 47.4 159.4 47.4 159.4 L 40.6 159.4 Z M 65.9 159.4 C 65.9 159.4 65.94 155.8 65.9 155.8 C 64.7 158.7 62.3 160.1 60.3 160.1 C 54.6 160.1 51.7 154.2 51.7 144.9 C 51.7 135.8 54.6 129.7 60.3 129.7 C 62.3 129.7 64.7 131 65.9 134 C 65.94 134.02 65.9 119.4 65.9 119.4 L 72.7 119.4 L 72.7 159.4 L 65.9 159.4 Z M 65.9 150.6 C 65.9 150.6 65.9 139.2 65.9 139.2 C 65.3 137.3 64 135.7 62.5 135.7 C 59.5 135.7 58.7 139.8 58.7 144.9 C 58.7 150 59.5 154.1 62.5 154.1 C 64 154.1 65.3 152.6 65.9 150.6 Z M 103.6 159.4 L 103.6 142.1 L 95.9 142.1 L 95.9 159.4 L 88.4 159.4 L 88.4 119.4 L 95.9 119.4 L 95.9 135.5 L 103.6 135.5 L 103.6 119.4 L 111.2 119.4 L 111.2 159.4 L 103.6 159.4 Z M 115.9 144.9 C 115.9 136.8 119.2 129.7 126.8 129.7 C 134.4 129.7 137.7 136.8 137.7 144.9 C 137.7 152.9 134.4 160.1 126.8 160.1 C 119.2 160.1 115.9 152.9 115.9 144.9 Z M 130.7 144.9 C 130.7 140 129.8 135.7 126.8 135.7 C 123.8 135.7 122.9 140 122.9 144.9 C 122.9 149.9 123.8 154.1 126.8 154.1 C 129.8 154.1 130.7 149.9 130.7 144.9 Z M 143 152.7 C 142.98 152.74 143 136.3 143 136.3 L 140.3 136.3 L 140.3 130.4 L 143 130.4 L 143 122.5 L 149.8 122.5 L 149.8 130.4 L 153.4 130.4 L 153.4 136.3 L 149.8 136.3 C 149.8 136.3 149.76 151.42 149.8 151.4 C 149.8 153.2 150.2 154.1 151.4 154.1 C 152 154.1 152.6 153.8 153 153.3 C 153 153.3 154.4 158.6 154.4 158.6 C 153.4 159.5 151.7 160.1 149.6 160.1 C 144.9 160.1 143 157.7 143 152.7 Z M 166.4 139.4 C 166.4 127.1 170.3 118.7 179 118.7 C 184.6 118.7 187.7 123 189 128.1 C 189 128.1 183 130.4 183 130.4 C 182.3 127.6 181.3 125.4 179 125.4 C 176 125.4 174.2 129.8 174.2 139.4 C 174.2 149 176 153.4 179 153.4 C 180.7 153.4 181.8 152.7 182.6 151.6 C 182.58 151.6 182.6 144.3 182.6 144.3 L 178.1 144.3 L 178.1 137.7 L 189.2 137.7 C 189.2 137.7 189.24 154.84 189.2 154.8 C 186.6 158.2 183.5 160.1 179 160.1 C 170.3 160.1 166.4 151.7 166.4 139.4 Z M 194.5 159.4 L 194.5 119.4 L 201.3 119.4 L 201.3 159.4 L 194.5 159.4 Z M 219.7 159.4 C 219.7 159.4 219.66 155.74 219.7 155.7 C 218.5 158.1 215.7 160.1 212.9 160.1 C 208.5 160.1 206.8 157.7 206.8 153.6 C 206.76 153.58 206.8 130.4 206.8 130.4 L 213.5 130.4 C 213.5 130.4 213.54 151.18 213.5 151.2 C 213.5 153.2 214.3 154.1 215.8 154.1 C 217.5 154.1 219 152.3 219.7 150.5 C 219.66 150.46 219.7 130.4 219.7 130.4 L 226.5 130.4 L 226.5 159.4 L 219.7 159.4 Z M 230.8 144.9 C 230.8 136.5 234.4 129.7 241.7 129.7 C 249 129.7 252.1 136.2 252.1 144.8 C 252.06 144.76 252.1 147.1 252.1 147.1 C 252.1 147.1 237.36 147.1 237.4 147.1 C 237.4 151.4 239.2 154.6 243.1 154.6 C 244.7 154.6 246.5 153.5 247.9 151.7 C 247.9 151.7 251.2 155.5 251.2 155.5 C 248.9 158.4 245.6 160.1 242.3 160.1 C 234.8 160.1 230.8 153.8 230.8 144.9 Z M 241.5 135.2 C 238.2 135.2 237.4 139.3 237.4 142.4 C 237.4 142.4 245.5 142.4 245.5 142.4 C 245.5 139.1 244.8 135.2 241.5 135.2 Z M 263.9 156.2 C 263.9 156.2 267.2 150.2 267.2 150.2 C 268.9 152.3 271.4 153.4 273.8 153.4 C 276.2 153.4 277.8 151.6 277.8 149 C 277.8 141.9 265.1 141.9 265.1 129.9 C 265.1 123.9 269.2 118.7 276.2 118.7 C 279.6 118.7 282.7 119.9 284.9 122 C 284.9 122 282 127.8 282 127.8 C 280.4 126.2 278.6 125.4 276.5 125.4 C 274.3 125.4 272.8 127.1 272.8 129.5 C 272.8 135.7 285.5 136.5 285.5 148.5 C 285.5 155.3 281.1 160.1 274.3 160.1 C 269.9 160.1 266.5 158.7 263.9 156.2 Z M 296.5 155.8 C 296.51 155.8 296.5 170.4 296.5 170.4 L 289.7 170.4 L 289.7 130.4 L 296.5 130.4 C 296.5 130.4 296.51 134.02 296.5 134 C 297.8 131.1 300.1 129.7 302.2 129.7 C 307.9 129.7 310.7 135.6 310.7 144.9 C 310.7 154 307.9 160.1 302.2 160.1 C 300.1 160.1 297.7 158.8 296.5 155.8 Z M 303.8 144.9 C 303.8 139.8 302.9 135.7 299.9 135.7 C 298.5 135.7 297.1 137.1 296.5 139.1 C 296.5 139.1 296.5 150.6 296.5 150.6 C 297.1 152.6 298.5 154.1 299.9 154.1 C 302.9 154.1 303.8 150 303.8 144.9 Z M 315.1 159.4 L 315.1 130.4 L 321.9 130.4 C 321.9 130.4 321.89 134.44 321.9 134.4 C 323 131.8 325.9 129.7 328.4 129.7 C 328.4 129.7 328.4 136.4 328.4 136.4 C 328 136.2 327.5 136.2 327.1 136.2 C 325.1 136.2 323 137.8 321.9 139.9 C 321.89 139.9 321.9 159.4 321.9 159.4 L 315.1 159.4 Z M 330.8 144.9 C 330.8 136.5 334.4 129.7 341.6 129.7 C 349 129.7 352 136.2 352 144.8 C 352.01 144.76 352 147.1 352 147.1 C 352 147.1 337.31 147.1 337.3 147.1 C 337.4 151.4 339.2 154.6 343 154.6 C 344.6 154.6 346.5 153.5 347.8 151.7 C 347.8 151.7 351.1 155.5 351.1 155.5 C 348.8 158.4 345.6 160.1 342.3 160.1 C 334.7 160.1 330.8 153.8 330.8 144.9 Z M 341.5 135.2 C 338.2 135.2 337.3 139.3 337.3 142.4 C 337.3 142.4 345.5 142.4 345.5 142.4 C 345.5 139.1 344.8 135.2 341.5 135.2 Z M 368.8 159.4 C 368.8 159.4 368.75 156.64 368.8 156.6 C 367.5 158.9 364.8 160.1 362.7 160.1 C 358.1 160.1 354.8 156.4 354.8 150.5 C 354.8 144.6 358.1 141 362.7 141 C 364.8 141 367.6 142.1 368.8 144.3 C 368.8 144.3 368.8 140.7 368.8 140.7 C 368.8 137.4 367.4 135.5 364.4 135.5 C 362.5 135.5 360.4 136.4 358.5 138.3 C 358.5 138.3 356 133.5 356 133.5 C 358.6 130.7 362.8 129.7 365.8 129.7 C 371.7 129.7 375.5 132.7 375.5 139.2 C 375.53 139.18 375.5 159.4 375.5 159.4 L 368.8 159.4 Z M 368.8 152.6 C 368.8 152.6 368.8 148.7 368.8 148.7 C 368 146.9 366.6 145.7 365.1 145.7 C 362.8 145.7 361.6 147.8 361.6 150.6 C 361.6 153.3 362.8 155.6 365.1 155.6 C 366.6 155.6 368 154.4 368.8 152.6 Z M 394.1 159.4 C 394.1 159.4 394.13 155.8 394.1 155.8 C 392.9 158.7 390.5 160.1 388.5 160.1 C 382.8 160.1 379.9 154.2 379.9 144.9 C 379.9 135.8 382.8 129.7 388.5 129.7 C 390.5 129.7 392.9 131 394.1 134 C 394.13 134.02 394.1 119.4 394.1 119.4 L 400.9 119.4 L 400.9 159.4 L 394.1 159.4 Z M 394.1 150.6 C 394.1 150.6 394.1 139.2 394.1 139.2 C 393.5 137.3 392.2 135.7 390.7 135.7 C 387.7 135.7 386.9 139.8 386.9 144.9 C 386.9 150 387.7 154.1 390.7 154.1 C 392.2 154.1 393.5 152.6 394.1 150.6 Z " stroke="none" fill="#e9e8e8"/>  </g>  <g id="Polygon207902">    <path d="M 3.1 103.4 L 3.1 63.4 C 3.1 63.4 13.08 63.38 13.1 63.4 C 22.7 63.4 26.7 72 26.7 83.4 C 26.7 94.9 22.8 103.4 13.1 103.4 C 13.14 103.4 3.1 103.4 3.1 103.4 Z M 19 83.4 C 19 74.6 17 70 13.1 70 C 13.08 70.04 10.7 70 10.7 70 L 10.7 96.7 C 10.7 96.7 13.08 96.74 13.1 96.7 C 17.1 96.7 19 91.9 19 83.4 Z M 30.5 66.9 C 30.5 64.6 32.5 62.8 34.7 62.8 C 37 62.8 38.8 64.6 38.8 66.9 C 38.8 69.2 37 71 34.7 71 C 32.5 71 30.5 69.2 30.5 66.9 Z M 31.3 103.4 L 31.3 74.4 L 38.1 74.4 L 38.1 103.4 L 31.3 103.4 Z M 41.5 100.3 C 41.5 100.3 44.3 95.7 44.3 95.7 C 45.9 97.4 48.1 98.8 50.3 98.8 C 52.5 98.8 54 97.6 54 95.7 C 54 90.9 42.5 92 42.5 81.9 C 42.5 77.5 45.8 73.7 51.8 73.7 C 55.1 73.7 58.1 75 60.3 77.1 C 60.3 77.1 57.5 81.7 57.5 81.7 C 56.4 80.3 54.3 79 52 79 C 50.1 79 48.8 80.2 48.8 81.7 C 48.8 86.1 60.4 85.3 60.4 95.5 C 60.4 100.6 56.5 104.1 50.9 104.1 C 46.6 104.1 43.4 102.6 41.5 100.3 Z M 77.2 103.4 C 77.2 103.4 77.22 82.64 77.2 82.6 C 77.2 80.7 76.5 79.7 75 79.7 C 73.3 79.7 71.8 81.6 71.1 83.5 C 71.1 83.48 71.1 103.4 71.1 103.4 L 64.3 103.4 L 64.3 63.4 L 71.1 63.4 C 71.1 63.4 71.1 78.2 71.1 78.2 C 72.2 75.9 75.2 73.7 77.9 73.7 C 82.3 73.7 84.1 76.1 84.1 80.2 C 84.06 80.24 84.1 103.4 84.1 103.4 L 77.2 103.4 Z M 97.3 100.2 C 97.3 100.2 100.6 94.2 100.6 94.2 C 102.2 96.3 104.8 97.4 107.1 97.4 C 109.5 97.4 111.1 95.6 111.1 93 C 111.1 85.9 98.4 85.9 98.4 73.9 C 98.4 67.9 102.5 62.7 109.6 62.7 C 112.9 62.7 116 63.9 118.3 66 C 118.3 66 115.3 71.8 115.3 71.8 C 113.8 70.2 111.9 69.4 109.8 69.4 C 107.6 69.4 106.1 71.1 106.1 73.5 C 106.1 79.7 118.8 80.5 118.8 92.5 C 118.8 99.3 114.4 104.1 107.6 104.1 C 103.2 104.1 99.8 102.7 97.3 100.2 Z M 129.8 99.8 C 129.84 99.8 129.8 114.4 129.8 114.4 L 123.1 114.4 L 123.1 74.4 L 129.8 74.4 C 129.8 74.4 129.84 78.02 129.8 78 C 131.1 75.1 133.4 73.7 135.5 73.7 C 141.2 73.7 144.1 79.6 144.1 88.9 C 144.1 98 141.2 104.1 135.5 104.1 C 133.4 104.1 131 102.8 129.8 99.8 Z M 137.1 88.9 C 137.1 83.8 136.3 79.7 133.3 79.7 C 131.8 79.7 130.4 81.1 129.8 83.1 C 129.8 83.1 129.8 94.6 129.8 94.6 C 130.4 96.6 131.8 98.1 133.3 98.1 C 136.3 98.1 137.1 94 137.1 88.9 Z M 147.3 88.9 C 147.3 80.8 150.6 73.7 158.2 73.7 C 165.8 73.7 169.1 80.8 169.1 88.9 C 169.1 96.9 165.8 104.1 158.2 104.1 C 150.6 104.1 147.3 96.9 147.3 88.9 Z M 162.1 88.9 C 162.1 84 161.2 79.7 158.2 79.7 C 155.2 79.7 154.3 84 154.3 88.9 C 154.3 93.9 155.2 98.1 158.2 98.1 C 161.2 98.1 162.1 93.9 162.1 88.9 Z M 186.4 103.4 C 186.4 103.4 186.36 82.76 186.4 82.8 C 186.4 80.7 185.6 79.7 184.1 79.7 C 182.4 79.7 180.9 81.6 180.2 83.5 C 180.24 83.48 180.2 103.4 180.2 103.4 L 173.5 103.4 L 173.5 74.4 L 180.2 74.4 C 180.2 74.4 180.24 78.2 180.2 78.2 C 181.4 75.9 184.4 73.7 187 73.7 C 191.4 73.7 193.2 76.3 193.2 80.3 C 193.2 80.3 193.2 103.4 193.2 103.4 L 186.4 103.4 Z M 198.6 112 C 198.6 112 200.9 106.5 200.9 106.5 C 202.6 108.2 204.6 109.3 206.8 109.3 C 209.7 109.3 211.7 107.4 211.7 102.9 C 211.7 102.9 211.7 98.7 211.7 98.7 C 210.5 101.7 208.1 103.2 206.1 103.2 C 200.4 103.2 197.5 97.8 197.5 88.5 C 197.5 79.3 200.4 73.7 206.1 73.7 C 208.1 73.7 210.5 75 211.7 78 C 211.74 78.02 211.7 74.4 211.7 74.4 L 218.5 74.4 C 218.5 74.4 218.52 102.44 218.5 102.4 C 218.5 112.4 213.2 115.2 207.5 115.2 C 203.9 115.2 201 114.3 198.6 112 Z M 211.7 93.7 C 211.7 93.7 211.7 83.2 211.7 83.2 C 211.1 81.3 209.8 79.7 208.3 79.7 C 205.3 79.7 204.5 83.4 204.5 88.5 C 204.5 93.6 205.3 97.2 208.3 97.2 C 209.8 97.2 211.1 95.6 211.7 93.7 Z M 222.9 88.9 C 222.9 80.5 226.5 73.7 233.8 73.7 C 241.1 73.7 244.1 80.2 244.1 88.8 C 244.14 88.76 244.1 91.1 244.1 91.1 C 244.1 91.1 229.44 91.1 229.4 91.1 C 229.5 95.4 231.3 98.6 235.1 98.6 C 236.8 98.6 238.6 97.5 239.9 95.7 C 239.9 95.7 243.2 99.5 243.2 99.5 C 241 102.4 237.7 104.1 234.4 104.1 C 226.9 104.1 222.9 97.8 222.9 88.9 Z M 233.6 79.2 C 230.3 79.2 229.4 83.3 229.4 86.4 C 229.4 86.4 237.6 86.4 237.6 86.4 C 237.6 83.1 236.9 79.2 233.6 79.2 Z M 277.7 103.4 L 273.5 83.7 L 269.4 103.4 L 262.3 103.4 L 255.6 74.4 L 262.6 74.4 L 266.3 94.2 L 270.1 74.4 L 276.6 74.4 L 280.7 94.2 L 284.4 74.4 L 291.5 74.4 L 284.8 103.4 L 277.7 103.4 Z M 293.8 66.9 C 293.8 64.6 295.7 62.8 297.9 62.8 C 300.2 62.8 302 64.6 302 66.9 C 302 69.2 300.2 71 297.9 71 C 295.7 71 293.8 69.2 293.8 66.9 Z M 294.5 103.4 L 294.5 74.4 L 301.3 74.4 L 301.3 103.4 L 294.5 103.4 Z M 307.7 96.7 C 307.67 96.74 307.7 80.3 307.7 80.3 L 305 80.3 L 305 74.4 L 307.7 74.4 L 307.7 66.5 L 314.5 66.5 L 314.5 74.4 L 318.1 74.4 L 318.1 80.3 L 314.5 80.3 C 314.5 80.3 314.45 95.42 314.5 95.4 C 314.5 97.2 314.9 98.1 316.1 98.1 C 316.7 98.1 317.3 97.8 317.7 97.3 C 317.7 97.3 319.1 102.6 319.1 102.6 C 318.1 103.5 316.4 104.1 314.3 104.1 C 309.6 104.1 307.7 101.7 307.7 96.7 Z M 335.2 103.4 C 335.2 103.4 335.15 82.64 335.2 82.6 C 335.2 80.7 334.4 79.7 332.9 79.7 C 331.2 79.7 329.7 81.6 329 83.5 C 329.03 83.48 329 103.4 329 103.4 L 322.3 103.4 L 322.3 63.4 L 329 63.4 C 329 63.4 329.03 78.2 329 78.2 C 330.2 75.9 333.2 73.7 335.8 73.7 C 340.2 73.7 342 76.1 342 80.2 C 341.99 80.24 342 103.4 342 103.4 L 335.2 103.4 Z M 357.6 103.4 L 357.6 63.4 C 357.6 63.4 368.39 63.38 368.4 63.4 C 376.2 63.4 379.7 69.3 379.7 76 C 379.7 82.8 376.2 88.7 368.4 88.7 C 368.39 88.7 365.2 88.7 365.2 88.7 L 365.2 103.4 L 357.6 103.4 Z M 372 76 C 372 72.4 370.4 70 367.6 70 C 367.61 70.04 365.2 70 365.2 70 L 365.2 82 C 365.2 82 367.61 82.04 367.6 82 C 370.4 82 372 79.6 372 76 Z M 396.6 103.4 C 396.6 103.4 396.59 99.74 396.6 99.7 C 395.5 102.1 392.6 104.1 389.8 104.1 C 385.4 104.1 383.7 101.7 383.7 97.6 C 383.69 97.58 383.7 74.4 383.7 74.4 L 390.5 74.4 C 390.5 74.4 390.47 95.18 390.5 95.2 C 390.5 97.2 391.2 98.1 392.7 98.1 C 394.4 98.1 395.9 96.3 396.6 94.5 C 396.59 94.46 396.6 74.4 396.6 74.4 L 403.4 74.4 L 403.4 103.4 L 396.6 103.4 Z M 409.8 96.7 C 409.79 96.74 409.8 80.3 409.8 80.3 L 407.1 80.3 L 407.1 74.4 L 409.8 74.4 L 409.8 66.5 L 416.6 66.5 L 416.6 74.4 L 420.2 74.4 L 420.2 80.3 L 416.6 80.3 C 416.6 80.3 416.57 95.42 416.6 95.4 C 416.6 97.2 417 98.1 418.2 98.1 C 418.9 98.1 419.5 97.8 419.8 97.3 C 419.8 97.3 421.2 102.6 421.2 102.6 C 420.2 103.5 418.6 104.1 416.5 104.1 C 411.7 104.1 409.8 101.7 409.8 96.7 Z M 425.3 96.7 C 425.27 96.74 425.3 80.3 425.3 80.3 L 422.6 80.3 L 422.6 74.4 L 425.3 74.4 L 425.3 66.5 L 432.1 66.5 L 432.1 74.4 L 435.7 74.4 L 435.7 80.3 L 432.1 80.3 C 432.1 80.3 432.05 95.42 432.1 95.4 C 432.1 97.2 432.5 98.1 433.7 98.1 C 434.3 98.1 434.9 97.8 435.3 97.3 C 435.3 97.3 436.7 102.6 436.7 102.6 C 435.7 103.5 434 104.1 431.9 104.1 C 427.2 104.1 425.3 101.7 425.3 96.7 Z M 440.5 108.9 C 440.9 109 441.5 109.2 441.8 109.2 C 443.1 109.2 443.8 108.6 444.2 107.1 C 444.23 107.12 445.1 104.1 445.1 104.1 L 437.2 74.4 L 444.4 74.4 L 448.5 94.8 L 452.7 74.4 L 459.8 74.4 C 459.8 74.4 450.71 108.5 450.7 108.5 C 449.3 113.8 446.9 115.2 442.7 115.2 C 441.8 115.2 440.2 115 439.5 114.7 C 439.5 114.7 440.5 108.9 440.5 108.9 Z M 471.5 83.4 C 471.5 71.5 475.3 62.7 484.1 62.7 C 490.6 62.7 492.8 67.9 494.1 72.1 C 494.1 72.1 488.1 74.4 488.1 74.4 C 487.3 71.3 486.3 69.4 484.1 69.4 C 480.5 69.4 479.3 75.3 479.3 83.4 C 479.3 91.6 480.5 97.4 484.1 97.4 C 486.5 97.4 487.6 94.9 488.2 91.6 C 488.2 91.6 494.2 93.8 494.2 93.8 C 493.1 98.4 490.7 104.1 484.1 104.1 C 475.3 104.1 471.5 95.3 471.5 83.4 Z M 511.1 103.4 C 511.1 103.4 511.07 82.64 511.1 82.6 C 511.1 80.7 510.4 79.7 508.9 79.7 C 507.1 79.7 505.6 81.6 505 83.5 C 504.95 83.48 505 103.4 505 103.4 L 498.2 103.4 L 498.2 63.4 L 505 63.4 C 505 63.4 504.95 78.2 505 78.2 C 506.1 75.9 509.1 73.7 511.7 73.7 C 516.1 73.7 517.9 76.1 517.9 80.2 C 517.91 80.24 517.9 103.4 517.9 103.4 L 511.1 103.4 Z M 536.3 103.4 C 536.3 103.4 536.27 99.74 536.3 99.7 C 535.1 102.1 532.3 104.1 529.5 104.1 C 525.1 104.1 523.4 101.7 523.4 97.6 C 523.37 97.58 523.4 74.4 523.4 74.4 L 530.2 74.4 C 530.2 74.4 530.15 95.18 530.2 95.2 C 530.2 97.2 530.9 98.1 532.4 98.1 C 534.1 98.1 535.6 96.3 536.3 94.5 C 536.27 94.46 536.3 74.4 536.3 74.4 L 543.1 74.4 L 543.1 103.4 L 536.3 103.4 Z M 561.5 103.4 C 561.5 103.4 561.47 82.76 561.5 82.8 C 561.5 80.7 560.8 79.7 559.3 79.7 C 557.5 79.7 556 81.6 555.4 83.5 C 555.35 83.48 555.4 103.4 555.4 103.4 L 548.6 103.4 L 548.6 74.4 L 555.4 74.4 C 555.4 74.4 555.35 78.2 555.4 78.2 C 556.5 75.9 559.5 73.7 562.1 73.7 C 566.5 73.7 568.3 76.3 568.3 80.3 C 568.31 80.3 568.3 103.4 568.3 103.4 L 561.5 103.4 Z M 587.5 103.4 L 583.2 91.8 L 580.6 96.6 L 580.6 103.4 L 573.8 103.4 L 573.8 63.4 L 580.6 63.4 L 580.6 87.8 L 587.2 74.4 L 594.6 74.4 L 587.7 87.3 L 594.9 103.4 L 587.5 103.4 Z " stroke="none" fill="#e9e8e8"/>  </g>  <g id="Polygon207901">    <path d="M 3.1 47.4 L 3.1 7.4 L 20.6 7.4 L 20.6 14 L 10.7 14 L 10.7 23.7 L 20.2 23.7 L 20.2 30.4 L 10.7 30.4 L 10.7 47.4 L 3.1 47.4 Z M 25.3 47.4 L 25.3 7.4 L 32.1 7.4 L 32.1 47.4 L 25.3 47.4 Z M 50.2 47.4 C 50.2 47.4 50.16 44.64 50.2 44.6 C 48.9 46.9 46.2 48.1 44.1 48.1 C 39.5 48.1 36.2 44.4 36.2 38.5 C 36.2 32.6 39.5 29 44.1 29 C 46.2 29 49 30.1 50.2 32.3 C 50.2 32.3 50.2 28.7 50.2 28.7 C 50.2 25.4 48.8 23.5 45.8 23.5 C 43.9 23.5 41.8 24.4 39.9 26.3 C 39.9 26.3 37.4 21.5 37.4 21.5 C 40 18.7 44.2 17.7 47.2 17.7 C 53.1 17.7 56.9 20.7 56.9 27.2 C 56.94 27.18 56.9 47.4 56.9 47.4 L 50.2 47.4 Z M 50.2 40.6 C 50.2 40.6 50.2 36.7 50.2 36.7 C 49.4 34.9 48 33.7 46.5 33.7 C 44.2 33.7 43 35.8 43 38.6 C 43 41.3 44.2 43.6 46.5 43.6 C 48 43.6 49.4 42.4 50.2 40.6 Z M 67.4 47.4 L 59.8 18.4 L 67 18.4 L 71.1 38.9 L 75.3 18.4 L 82.4 18.4 L 74.8 47.4 L 67.4 47.4 Z M 84.1 32.9 C 84.1 24.8 87.4 17.7 95 17.7 C 102.6 17.7 105.9 24.8 105.9 32.9 C 105.9 40.9 102.6 48.1 95 48.1 C 87.4 48.1 84.1 40.9 84.1 32.9 Z M 98.9 32.9 C 98.9 28 98 23.7 95 23.7 C 92 23.7 91.1 28 91.1 32.9 C 91.1 37.9 92 42.1 95 42.1 C 98 42.1 98.9 37.9 98.9 32.9 Z M 123.2 47.4 C 123.2 47.4 123.18 43.74 123.2 43.7 C 122 46.1 119.2 48.1 116.4 48.1 C 112 48.1 110.3 45.7 110.3 41.6 C 110.28 41.58 110.3 18.4 110.3 18.4 L 117.1 18.4 C 117.1 18.4 117.06 39.18 117.1 39.2 C 117.1 41.2 117.8 42.1 119.3 42.1 C 121 42.1 122.5 40.3 123.2 38.5 C 123.18 38.46 123.2 18.4 123.2 18.4 L 130 18.4 L 130 47.4 L 123.2 47.4 Z M 135.5 47.4 L 135.5 18.4 L 142.3 18.4 C 142.3 18.4 142.26 22.44 142.3 22.4 C 143.4 19.8 146.2 17.7 148.7 17.7 C 148.7 17.7 148.7 24.4 148.7 24.4 C 148.3 24.2 147.8 24.2 147.4 24.2 C 145.4 24.2 143.4 25.8 142.3 27.9 C 142.26 27.9 142.3 47.4 142.3 47.4 L 135.5 47.4 Z M 151.1 32.9 C 151.1 24.5 154.7 17.7 162 17.7 C 169.3 17.7 172.4 24.2 172.4 32.8 C 172.38 32.76 172.4 35.1 172.4 35.1 C 172.4 35.1 157.68 35.1 157.7 35.1 C 157.7 39.4 159.5 42.6 163.4 42.6 C 165 42.6 166.9 41.5 168.2 39.7 C 168.2 39.7 171.5 43.5 171.5 43.5 C 169.2 46.4 166 48.1 162.7 48.1 C 155.1 48.1 151.1 41.8 151.1 32.9 Z M 161.8 23.2 C 158.5 23.2 157.7 27.3 157.7 30.4 C 157.7 30.4 165.8 30.4 165.8 30.4 C 165.8 27.1 165.1 23.2 161.8 23.2 Z M 189.6 47.4 C 189.6 47.4 189.6 43.8 189.6 43.8 C 188.3 46.7 186 48.1 184 48.1 C 178.3 48.1 175.4 42.2 175.4 32.9 C 175.4 23.8 178.3 17.7 184 17.7 C 186 17.7 188.4 19 189.6 22 C 189.6 22.02 189.6 7.4 189.6 7.4 L 196.4 7.4 L 196.4 47.4 L 189.6 47.4 Z M 189.6 38.6 C 189.6 38.6 189.6 27.2 189.6 27.2 C 189 25.3 187.6 23.7 186.2 23.7 C 183.2 23.7 182.3 27.8 182.3 32.9 C 182.3 38 183.2 42.1 186.2 42.1 C 187.6 42.1 189 40.6 189.6 38.6 Z M 209.6 44.2 C 209.6 44.2 212.9 38.2 212.9 38.2 C 214.6 40.3 217.1 41.4 219.5 41.4 C 221.9 41.4 223.5 39.6 223.5 37 C 223.5 29.9 210.8 29.9 210.8 17.9 C 210.8 11.9 214.9 6.7 221.9 6.7 C 225.3 6.7 228.4 7.9 230.6 10 C 230.6 10 227.7 15.8 227.7 15.8 C 226.1 14.2 224.3 13.4 222.2 13.4 C 220 13.4 218.5 15.1 218.5 17.5 C 218.5 23.7 231.2 24.5 231.2 36.5 C 231.2 43.3 226.8 48.1 220 48.1 C 215.6 48.1 212.2 46.7 209.6 44.2 Z M 235.4 47.4 L 235.4 7.4 L 242.2 7.4 L 242.2 47.4 L 235.4 47.4 Z M 246.9 10.9 C 246.9 8.6 248.8 6.8 251 6.8 C 253.3 6.8 255.2 8.6 255.2 10.9 C 255.2 13.2 253.3 15 251 15 C 248.8 15 246.9 13.2 246.9 10.9 Z M 247.7 47.4 L 247.7 18.4 L 254.5 18.4 L 254.5 47.4 L 247.7 47.4 Z M 285.8 47.4 C 285.8 47.4 285.78 26.76 285.8 26.8 C 285.8 24.6 285 23.7 283.6 23.7 C 281.7 23.7 280.3 25.7 279.7 27.5 C 279.66 27.48 279.7 47.4 279.7 47.4 L 272.8 47.4 C 272.8 47.4 272.82 26.76 272.8 26.8 C 272.8 24.8 272.2 23.7 270.6 23.7 C 268.8 23.7 267.3 25.7 266.7 27.5 C 266.7 27.48 266.7 47.4 266.7 47.4 L 259.9 47.4 L 259.9 18.4 L 266.7 18.4 C 266.7 18.4 266.7 22.2 266.7 22.2 C 267.7 20 270.7 17.7 273.5 17.7 C 276.5 17.7 278.9 19.2 279.4 22.5 C 280.5 20.1 283.6 17.7 286.4 17.7 C 290 17.7 292.6 19.6 292.6 24.3 C 292.56 24.3 292.6 47.4 292.6 47.4 L 285.8 47.4 Z M 296.9 32.9 C 296.9 24.5 300.5 17.7 307.8 17.7 C 315.1 17.7 318.2 24.2 318.2 32.8 C 318.17 32.76 318.2 35.1 318.2 35.1 C 318.2 35.1 303.47 35.1 303.5 35.1 C 303.5 39.4 305.3 42.6 309.2 42.6 C 310.8 42.6 312.7 41.5 314 39.7 C 314 39.7 317.3 43.5 317.3 43.5 C 315 46.4 311.8 48.1 308.5 48.1 C 300.9 48.1 296.9 41.8 296.9 32.9 Z M 307.6 23.2 C 304.3 23.2 303.5 27.3 303.5 30.4 C 303.5 30.4 311.6 30.4 311.6 30.4 C 311.6 27.1 310.9 23.2 307.6 23.2 Z M 344.7 47.4 C 344.7 47.4 344.69 44.64 344.7 44.6 C 343.4 46.9 340.7 48.1 338.6 48.1 C 334.1 48.1 330.8 44.4 330.8 38.5 C 330.8 32.6 334.1 29 338.6 29 C 340.7 29 343.5 30.1 344.7 32.3 C 344.7 32.3 344.7 28.7 344.7 28.7 C 344.7 25.4 343.4 23.5 340.3 23.5 C 338.4 23.5 336.4 24.4 334.4 26.3 C 334.4 26.3 331.9 21.5 331.9 21.5 C 334.6 18.7 338.7 17.7 341.7 17.7 C 347.6 17.7 351.5 20.7 351.5 27.2 C 351.47 27.18 351.5 47.4 351.5 47.4 L 344.7 47.4 Z M 344.7 40.6 C 344.7 40.6 344.7 36.7 344.7 36.7 C 344 34.9 342.5 33.7 341 33.7 C 338.7 33.7 337.6 35.8 337.6 38.6 C 337.6 41.3 338.7 43.6 341 43.6 C 342.5 43.6 344 42.4 344.7 40.6 Z M 369.9 47.4 C 369.9 47.4 369.89 26.76 369.9 26.8 C 369.9 24.7 369.2 23.7 367.7 23.7 C 365.9 23.7 364.4 25.6 363.8 27.5 C 363.77 27.48 363.8 47.4 363.8 47.4 L 357 47.4 L 357 18.4 L 363.8 18.4 C 363.8 18.4 363.77 22.2 363.8 22.2 C 364.9 19.9 367.9 17.7 370.6 17.7 C 374.9 17.7 376.7 20.3 376.7 24.3 C 376.73 24.3 376.7 47.4 376.7 47.4 L 369.9 47.4 Z M 395.3 47.4 C 395.3 47.4 395.27 43.8 395.3 43.8 C 394 46.7 391.7 48.1 389.6 48.1 C 383.9 48.1 381.1 42.2 381.1 32.9 C 381.1 23.8 383.9 17.7 389.6 17.7 C 391.7 17.7 394.1 19 395.3 22 C 395.27 22.02 395.3 7.4 395.3 7.4 L 402.1 7.4 L 402.1 47.4 L 395.3 47.4 Z M 395.3 38.6 C 395.3 38.6 395.3 27.2 395.3 27.2 C 394.7 25.3 393.3 23.7 391.9 23.7 C 388.9 23.7 388 27.8 388 32.9 C 388 38 388.9 42.1 391.9 42.1 C 393.3 42.1 394.7 40.6 395.3 38.6 Z M 421.7 47.4 L 421.7 14 L 415.7 14 L 415.7 7.4 L 435.4 7.4 L 435.4 14 L 429.3 14 L 429.3 47.4 L 421.7 47.4 Z M 435.1 32.9 C 435.1 24.8 438.4 17.7 445.9 17.7 C 453.5 17.7 456.8 24.8 456.8 32.9 C 456.8 40.9 453.5 48.1 445.9 48.1 C 438.4 48.1 435.1 40.9 435.1 32.9 Z M 449.8 32.9 C 449.8 28 449 23.7 445.9 23.7 C 442.9 23.7 442.1 28 442.1 32.9 C 442.1 37.9 442.9 42.1 445.9 42.1 C 449 42.1 449.8 37.9 449.8 32.9 Z M 473.8 47.4 C 473.8 47.4 473.81 44.64 473.8 44.6 C 472.6 46.9 469.9 48.1 467.8 48.1 C 463.2 48.1 459.9 44.4 459.9 38.5 C 459.9 32.6 463.2 29 467.8 29 C 469.9 29 472.6 30.1 473.8 32.3 C 473.8 32.3 473.8 28.7 473.8 28.7 C 473.8 25.4 472.5 23.5 469.4 23.5 C 467.5 23.5 465.5 24.4 463.6 26.3 C 463.6 26.3 461 21.5 461 21.5 C 463.7 18.7 467.8 17.7 470.8 17.7 C 476.8 17.7 480.6 20.7 480.6 27.2 C 480.59 27.18 480.6 47.4 480.6 47.4 L 473.8 47.4 Z M 473.8 40.6 C 473.8 40.6 473.8 36.7 473.8 36.7 C 473.1 34.9 471.7 33.7 470.2 33.7 C 467.8 33.7 466.7 35.8 466.7 38.6 C 466.7 41.3 467.8 43.6 470.2 43.6 C 471.7 43.6 473.1 42.4 473.8 40.6 Z M 484.1 44.3 C 484.1 44.3 486.9 39.7 486.9 39.7 C 488.5 41.4 490.6 42.8 492.9 42.8 C 495.1 42.8 496.6 41.6 496.6 39.7 C 496.6 34.9 485.1 36 485.1 25.9 C 485.1 21.5 488.4 17.7 494.3 17.7 C 497.6 17.7 500.7 19 502.9 21.1 C 502.9 21.1 500.1 25.7 500.1 25.7 C 499 24.3 496.9 23 494.5 23 C 492.7 23 491.4 24.2 491.4 25.7 C 491.4 30.1 503 29.3 503 39.5 C 503 44.6 499 48.1 493.5 48.1 C 489.2 48.1 486 46.6 484.1 44.3 Z M 507.8 40.7 C 507.77 40.74 507.8 24.3 507.8 24.3 L 505.1 24.3 L 505.1 18.4 L 507.8 18.4 L 507.8 10.5 L 514.6 10.5 L 514.6 18.4 L 518.2 18.4 L 518.2 24.3 L 514.6 24.3 C 514.6 24.3 514.55 39.42 514.6 39.4 C 514.6 41.2 515 42.1 516.2 42.1 C 516.8 42.1 517.4 41.8 517.8 41.3 C 517.8 41.3 519.2 46.6 519.2 46.6 C 518.2 47.5 516.5 48.1 514.4 48.1 C 509.7 48.1 507.8 45.7 507.8 40.7 Z M 521.2 32.9 C 521.2 24.5 524.8 17.7 532.1 17.7 C 539.4 17.7 542.5 24.2 542.5 32.8 C 542.45 32.76 542.5 35.1 542.5 35.1 C 542.5 35.1 527.75 35.1 527.8 35.1 C 527.8 39.4 529.6 42.6 533.5 42.6 C 535.1 42.6 536.9 41.5 538.3 39.7 C 538.3 39.7 541.6 43.5 541.6 43.5 C 539.3 46.4 536 48.1 532.7 48.1 C 525.2 48.1 521.2 41.8 521.2 32.9 Z M 531.9 23.2 C 528.6 23.2 527.8 27.3 527.8 30.4 C 527.8 30.4 535.9 30.4 535.9 30.4 C 535.9 27.1 535.2 23.2 531.9 23.2 Z M 559.7 47.4 C 559.7 47.4 559.67 43.8 559.7 43.8 C 558.4 46.7 556.1 48.1 554 48.1 C 548.3 48.1 545.5 42.2 545.5 32.9 C 545.5 23.8 548.3 17.7 554 17.7 C 556.1 17.7 558.5 19 559.7 22 C 559.67 22.02 559.7 7.4 559.7 7.4 L 566.5 7.4 L 566.5 47.4 L 559.7 47.4 Z M 559.7 38.6 C 559.7 38.6 559.7 27.2 559.7 27.2 C 559.1 25.3 557.7 23.7 556.3 23.7 C 553.3 23.7 552.4 27.8 552.4 32.9 C 552.4 38 553.3 42.1 556.3 42.1 C 557.7 42.1 559.1 40.6 559.7 38.6 Z " stroke="none" fill="#e9e8e8"/>  </g></svg>