<?xml version="1.0" standalone="no"?><!DOCTYPE svg PUBLIC "-//W3C//DTD SVG 1.1//EN" "http://www.w3.org/Graphics/SVG/1.1/DTD/svg11.dtd"><svg xmlns="http://www.w3.org/2000/svg" version="1.1" width="219px" height="509.3px" viewBox="0 0 219 509.3">  <desc>3 4 pcs 25 g 30 strands 150 g 75 ml 1 pc (large) as needed as needed as needed as needed as needed as needed as n</desc>  <defs/>  <g id="Polygon152579">    <path d="M 9.4 464.7 C 9.4 464.7 9.42 463.14 9.4 463.1 C 8.5 464.5 7.1 465.1 5.6 465.1 C 3.3 465.1 1.2 463.3 1.2 460.2 C 1.2 457.2 3.2 455.5 5.6 455.5 C 7.1 455.5 8.5 456 9.4 457.3 C 9.4 457.3 9.4 454.8 9.4 454.8 C 9.4 452.8 8.3 451.7 6.4 451.7 C 5.1 451.7 3.9 452.2 2.8 453.5 C 2.8 453.5 1.9 451.9 1.9 451.9 C 3.2 450.5 4.9 449.8 6.8 449.8 C 9.7 449.8 11.6 451.3 11.6 454.6 C 11.58 454.56 11.6 464.7 11.6 464.7 L 9.4 464.7 Z M 9.4 461.7 C 9.4 461.7 9.4 458.9 9.4 458.9 C 8.8 457.7 7.6 457 6.3 457 C 4.5 457 3.4 458.5 3.4 460.3 C 3.4 462.1 4.5 463.5 6.3 463.5 C 7.6 463.5 8.8 462.9 9.4 461.7 Z M 14.3 463 C 14.3 463 15.4 461.5 15.4 461.5 C 16.3 462.5 17.6 463.3 19.2 463.3 C 20.9 463.3 22 462.4 22 461 C 22 457.6 14.8 458.8 14.8 453.7 C 14.8 451.6 16.5 449.8 19.4 449.8 C 21.3 449.8 22.8 450.6 23.8 451.7 C 23.8 451.7 22.8 453.2 22.8 453.2 C 22 452.2 20.8 451.6 19.4 451.6 C 17.8 451.6 16.8 452.5 16.8 453.7 C 16.8 456.8 24.1 455.7 24.1 460.9 C 24.1 463.3 22.2 465.1 19.2 465.1 C 17.2 465.1 15.5 464.4 14.3 463 Z M 41.4 464.7 C 41.4 464.7 41.4 454.38 41.4 454.4 C 41.4 452.5 40.5 451.8 39.1 451.8 C 37.7 451.8 36.4 452.9 35.7 454.1 C 35.7 454.08 35.7 464.7 35.7 464.7 L 33.6 464.7 L 33.6 450.2 L 35.7 450.2 C 35.7 450.2 35.7 452.28 35.7 452.3 C 36.5 451 38.2 449.8 39.9 449.8 C 42.4 449.8 43.6 451.2 43.6 453.8 C 43.56 453.78 43.6 464.7 43.6 464.7 L 41.4 464.7 Z M 46.8 457.4 C 46.8 453.2 49 449.8 52.7 449.8 C 56.5 449.8 58.4 453.3 58.4 457.5 C 58.41 457.5 58.4 458.2 58.4 458.2 C 58.4 458.2 49.02 458.16 49 458.2 C 49.1 461.1 50.6 463.3 53.2 463.3 C 54.4 463.3 55.7 462.6 56.6 461.5 C 56.6 461.5 57.8 462.7 57.8 462.7 C 56.6 464.2 55 465.1 53 465.1 C 49.1 465.1 46.8 461.9 46.8 457.4 Z M 52.6 451.6 C 50.1 451.6 49.1 454.4 49 456.6 C 49 456.6 56.3 456.6 56.3 456.6 C 56.2 454.3 55.3 451.6 52.6 451.6 Z M 60.8 457.4 C 60.8 453.2 63.1 449.8 66.7 449.8 C 70.5 449.8 72.4 453.3 72.4 457.5 C 72.45 457.5 72.4 458.2 72.4 458.2 C 72.4 458.2 63.06 458.16 63.1 458.2 C 63.1 461.1 64.6 463.3 67.2 463.3 C 68.5 463.3 69.8 462.6 70.7 461.5 C 70.7 461.5 71.8 462.7 71.8 462.7 C 70.6 464.2 69 465.1 67 465.1 C 63.2 465.1 60.8 461.9 60.8 457.4 Z M 66.7 451.6 C 64.1 451.6 63.1 454.4 63.1 456.6 C 63.1 456.6 70.3 456.6 70.3 456.6 C 70.3 454.3 69.3 451.6 66.7 451.6 Z M 83.9 464.7 C 83.9 464.7 83.88 462.63 83.9 462.6 C 83 464.1 81.6 465.1 80.1 465.1 C 76.8 465.1 74.9 462 74.9 457.5 C 74.9 453 76.8 449.8 80.1 449.8 C 81.5 449.8 83 450.7 83.9 452.3 C 83.88 452.31 83.9 444.7 83.9 444.7 L 86 444.7 L 86 464.7 L 83.9 464.7 Z M 83.9 460.8 C 83.9 460.8 83.9 454.1 83.9 454.1 C 83.3 452.9 82 451.8 80.6 451.8 C 78.2 451.8 77.1 454.3 77.1 457.5 C 77.1 460.6 78.2 463.1 80.6 463.1 C 82 463.1 83.3 462.1 83.9 460.8 Z M 89.3 457.4 C 89.3 453.2 91.5 449.8 95.2 449.8 C 99 449.8 100.9 453.3 100.9 457.5 C 100.89 457.5 100.9 458.2 100.9 458.2 C 100.9 458.2 91.5 458.16 91.5 458.2 C 91.6 461.1 93.1 463.3 95.7 463.3 C 96.9 463.3 98.2 462.6 99.1 461.5 C 99.1 461.5 100.3 462.7 100.3 462.7 C 99.1 464.2 97.4 465.1 95.5 465.1 C 91.6 465.1 89.3 461.9 89.3 457.4 Z M 95.1 451.6 C 92.6 451.6 91.6 454.4 91.5 456.6 C 91.5 456.6 98.8 456.6 98.8 456.6 C 98.7 454.3 97.8 451.6 95.1 451.6 Z M 112.3 464.7 C 112.3 464.7 112.32 462.63 112.3 462.6 C 111.5 464.1 110 465.1 108.5 465.1 C 105.3 465.1 103.3 462 103.3 457.5 C 103.3 453 105.2 449.8 108.5 449.8 C 110 449.8 111.4 450.7 112.3 452.3 C 112.32 452.31 112.3 444.7 112.3 444.7 L 114.5 444.7 L 114.5 464.7 L 112.3 464.7 Z M 112.3 460.8 C 112.3 460.8 112.3 454.1 112.3 454.1 C 111.8 452.9 110.4 451.8 109 451.8 C 106.7 451.8 105.6 454.3 105.6 457.5 C 105.6 460.6 106.7 463.1 109 463.1 C 110.4 463.1 111.8 462.1 112.3 460.8 Z " stroke="none" fill="#d0d1d4"/>  </g>  <g id="Polygon152578">    <path d="M 9.4 428.7 C 9.4 428.7 9.42 427.14 9.4 427.1 C 8.5 428.5 7.1 429.1 5.6 429.1 C 3.3 429.1 1.2 427.3 1.2 424.2 C 1.2 421.2 3.2 419.5 5.6 419.5 C 7.1 419.5 8.5 420 9.4 421.3 C 9.4 421.3 9.4 418.8 9.4 418.8 C 9.4 416.8 8.3 415.7 6.4 415.7 C 5.1 415.7 3.9 416.2 2.8 417.5 C 2.8 417.5 1.9 415.9 1.9 415.9 C 3.2 414.5 4.9 413.8 6.8 413.8 C 9.7 413.8 11.6 415.3 11.6 418.6 C 11.58 418.56 11.6 428.7 11.6 428.7 L 9.4 428.7 Z M 9.4 425.7 C 9.4 425.7 9.4 422.9 9.4 422.9 C 8.8 421.7 7.6 421 6.3 421 C 4.5 421 3.4 422.5 3.4 424.3 C 3.4 426.1 4.5 427.5 6.3 427.5 C 7.6 427.5 8.8 426.9 9.4 425.7 Z M 14.3 427 C 14.3 427 15.4 425.5 15.4 425.5 C 16.3 426.5 17.6 427.3 19.2 427.3 C 20.9 427.3 22 426.4 22 425 C 22 421.6 14.8 422.8 14.8 417.7 C 14.8 415.6 16.5 413.8 19.4 413.8 C 21.3 413.8 22.8 414.6 23.8 415.7 C 23.8 415.7 22.8 417.2 22.8 417.2 C 22 416.2 20.8 415.6 19.4 415.6 C 17.8 415.6 16.8 416.5 16.8 417.7 C 16.8 420.8 24.1 419.7 24.1 424.9 C 24.1 427.3 22.2 429.1 19.2 429.1 C 17.2 429.1 15.5 428.4 14.3 427 Z M 41.4 428.7 C 41.4 428.7 41.4 418.38 41.4 418.4 C 41.4 416.5 40.5 415.8 39.1 415.8 C 37.7 415.8 36.4 416.9 35.7 418.1 C 35.7 418.08 35.7 428.7 35.7 428.7 L 33.6 428.7 L 33.6 414.2 L 35.7 414.2 C 35.7 414.2 35.7 416.28 35.7 416.3 C 36.5 415 38.2 413.8 39.9 413.8 C 42.4 413.8 43.6 415.2 43.6 417.8 C 43.56 417.78 43.6 428.7 43.6 428.7 L 41.4 428.7 Z M 46.8 421.4 C 46.8 417.2 49 413.8 52.7 413.8 C 56.5 413.8 58.4 417.3 58.4 421.5 C 58.41 421.5 58.4 422.2 58.4 422.2 C 58.4 422.2 49.02 422.16 49 422.2 C 49.1 425.1 50.6 427.3 53.2 427.3 C 54.4 427.3 55.7 426.6 56.6 425.5 C 56.6 425.5 57.8 426.7 57.8 426.7 C 56.6 428.2 55 429.1 53 429.1 C 49.1 429.1 46.8 425.9 46.8 421.4 Z M 52.6 415.6 C 50.1 415.6 49.1 418.4 49 420.6 C 49 420.6 56.3 420.6 56.3 420.6 C 56.2 418.3 55.3 415.6 52.6 415.6 Z M 60.8 421.4 C 60.8 417.2 63.1 413.8 66.7 413.8 C 70.5 413.8 72.4 417.3 72.4 421.5 C 72.45 421.5 72.4 422.2 72.4 422.2 C 72.4 422.2 63.06 422.16 63.1 422.2 C 63.1 425.1 64.6 427.3 67.2 427.3 C 68.5 427.3 69.8 426.6 70.7 425.5 C 70.7 425.5 71.8 426.7 71.8 426.7 C 70.6 428.2 69 429.1 67 429.1 C 63.2 429.1 60.8 425.9 60.8 421.4 Z M 66.7 415.6 C 64.1 415.6 63.1 418.4 63.1 420.6 C 63.1 420.6 70.3 420.6 70.3 420.6 C 70.3 418.3 69.3 415.6 66.7 415.6 Z M 83.9 428.7 C 83.9 428.7 83.88 426.63 83.9 426.6 C 83 428.1 81.6 429.1 80.1 429.1 C 76.8 429.1 74.9 426 74.9 421.5 C 74.9 417 76.8 413.8 80.1 413.8 C 81.5 413.8 83 414.7 83.9 416.3 C 83.88 416.31 83.9 408.7 83.9 408.7 L 86 408.7 L 86 428.7 L 83.9 428.7 Z M 83.9 424.8 C 83.9 424.8 83.9 418.1 83.9 418.1 C 83.3 416.9 82 415.8 80.6 415.8 C 78.2 415.8 77.1 418.3 77.1 421.5 C 77.1 424.6 78.2 427.1 80.6 427.1 C 82 427.1 83.3 426.1 83.9 424.8 Z M 89.3 421.4 C 89.3 417.2 91.5 413.8 95.2 413.8 C 99 413.8 100.9 417.3 100.9 421.5 C 100.89 421.5 100.9 422.2 100.9 422.2 C 100.9 422.2 91.5 422.16 91.5 422.2 C 91.6 425.1 93.1 427.3 95.7 427.3 C 96.9 427.3 98.2 426.6 99.1 425.5 C 99.1 425.5 100.3 426.7 100.3 426.7 C 99.1 428.2 97.4 429.1 95.5 429.1 C 91.6 429.1 89.3 425.9 89.3 421.4 Z M 95.1 415.6 C 92.6 415.6 91.6 418.4 91.5 420.6 C 91.5 420.6 98.8 420.6 98.8 420.6 C 98.7 418.3 97.8 415.6 95.1 415.6 Z M 112.3 428.7 C 112.3 428.7 112.32 426.63 112.3 426.6 C 111.5 428.1 110 429.1 108.5 429.1 C 105.3 429.1 103.3 426 103.3 421.5 C 103.3 417 105.2 413.8 108.5 413.8 C 110 413.8 111.4 414.7 112.3 416.3 C 112.32 416.31 112.3 408.7 112.3 408.7 L 114.5 408.7 L 114.5 428.7 L 112.3 428.7 Z M 112.3 424.8 C 112.3 424.8 112.3 418.1 112.3 418.1 C 111.8 416.9 110.4 415.8 109 415.8 C 106.7 415.8 105.6 418.3 105.6 421.5 C 105.6 424.6 106.7 427.1 109 427.1 C 110.4 427.1 111.8 426.1 112.3 424.8 Z " stroke="none" fill="#d0d1d4"/>  </g>  <g id="Polygon152577">    <path d="M 9.4 392.7 C 9.4 392.7 9.42 391.14 9.4 391.1 C 8.5 392.5 7.1 393.1 5.6 393.1 C 3.3 393.1 1.2 391.3 1.2 388.2 C 1.2 385.2 3.2 383.5 5.6 383.5 C 7.1 383.5 8.5 384 9.4 385.3 C 9.4 385.3 9.4 382.8 9.4 382.8 C 9.4 380.8 8.3 379.7 6.4 379.7 C 5.1 379.7 3.9 380.2 2.8 381.5 C 2.8 381.5 1.9 379.9 1.9 379.9 C 3.2 378.5 4.9 377.8 6.8 377.8 C 9.7 377.8 11.6 379.3 11.6 382.6 C 11.58 382.56 11.6 392.7 11.6 392.7 L 9.4 392.7 Z M 9.4 389.7 C 9.4 389.7 9.4 386.9 9.4 386.9 C 8.8 385.7 7.6 385 6.3 385 C 4.5 385 3.4 386.5 3.4 388.3 C 3.4 390.1 4.5 391.5 6.3 391.5 C 7.6 391.5 8.8 390.9 9.4 389.7 Z M 14.3 391 C 14.3 391 15.4 389.5 15.4 389.5 C 16.3 390.5 17.6 391.3 19.2 391.3 C 20.9 391.3 22 390.4 22 389 C 22 385.6 14.8 386.8 14.8 381.7 C 14.8 379.6 16.5 377.8 19.4 377.8 C 21.3 377.8 22.8 378.6 23.8 379.7 C 23.8 379.7 22.8 381.2 22.8 381.2 C 22 380.2 20.8 379.6 19.4 379.6 C 17.8 379.6 16.8 380.5 16.8 381.7 C 16.8 384.8 24.1 383.7 24.1 388.9 C 24.1 391.3 22.2 393.1 19.2 393.1 C 17.2 393.1 15.5 392.4 14.3 391 Z M 41.4 392.7 C 41.4 392.7 41.4 382.38 41.4 382.4 C 41.4 380.5 40.5 379.8 39.1 379.8 C 37.7 379.8 36.4 380.9 35.7 382.1 C 35.7 382.08 35.7 392.7 35.7 392.7 L 33.6 392.7 L 33.6 378.2 L 35.7 378.2 C 35.7 378.2 35.7 380.28 35.7 380.3 C 36.5 379 38.2 377.8 39.9 377.8 C 42.4 377.8 43.6 379.2 43.6 381.8 C 43.56 381.78 43.6 392.7 43.6 392.7 L 41.4 392.7 Z M 46.8 385.4 C 46.8 381.2 49 377.8 52.7 377.8 C 56.5 377.8 58.4 381.3 58.4 385.5 C 58.41 385.5 58.4 386.2 58.4 386.2 C 58.4 386.2 49.02 386.16 49 386.2 C 49.1 389.1 50.6 391.3 53.2 391.3 C 54.4 391.3 55.7 390.6 56.6 389.5 C 56.6 389.5 57.8 390.7 57.8 390.7 C 56.6 392.2 55 393.1 53 393.1 C 49.1 393.1 46.8 389.9 46.8 385.4 Z M 52.6 379.6 C 50.1 379.6 49.1 382.4 49 384.6 C 49 384.6 56.3 384.6 56.3 384.6 C 56.2 382.3 55.3 379.6 52.6 379.6 Z M 60.8 385.4 C 60.8 381.2 63.1 377.8 66.7 377.8 C 70.5 377.8 72.4 381.3 72.4 385.5 C 72.45 385.5 72.4 386.2 72.4 386.2 C 72.4 386.2 63.06 386.16 63.1 386.2 C 63.1 389.1 64.6 391.3 67.2 391.3 C 68.5 391.3 69.8 390.6 70.7 389.5 C 70.7 389.5 71.8 390.7 71.8 390.7 C 70.6 392.2 69 393.1 67 393.1 C 63.2 393.1 60.8 389.9 60.8 385.4 Z M 66.7 379.6 C 64.1 379.6 63.1 382.4 63.1 384.6 C 63.1 384.6 70.3 384.6 70.3 384.6 C 70.3 382.3 69.3 379.6 66.7 379.6 Z M 83.9 392.7 C 83.9 392.7 83.88 390.63 83.9 390.6 C 83 392.1 81.6 393.1 80.1 393.1 C 76.8 393.1 74.9 390 74.9 385.5 C 74.9 381 76.8 377.8 80.1 377.8 C 81.5 377.8 83 378.7 83.9 380.3 C 83.88 380.31 83.9 372.7 83.9 372.7 L 86 372.7 L 86 392.7 L 83.9 392.7 Z M 83.9 388.8 C 83.9 388.8 83.9 382.1 83.9 382.1 C 83.3 380.9 82 379.8 80.6 379.8 C 78.2 379.8 77.1 382.3 77.1 385.5 C 77.1 388.6 78.2 391.1 80.6 391.1 C 82 391.1 83.3 390.1 83.9 388.8 Z M 89.3 385.4 C 89.3 381.2 91.5 377.8 95.2 377.8 C 99 377.8 100.9 381.3 100.9 385.5 C 100.89 385.5 100.9 386.2 100.9 386.2 C 100.9 386.2 91.5 386.16 91.5 386.2 C 91.6 389.1 93.1 391.3 95.7 391.3 C 96.9 391.3 98.2 390.6 99.1 389.5 C 99.1 389.5 100.3 390.7 100.3 390.7 C 99.1 392.2 97.4 393.1 95.5 393.1 C 91.6 393.1 89.3 389.9 89.3 385.4 Z M 95.1 379.6 C 92.6 379.6 91.6 382.4 91.5 384.6 C 91.5 384.6 98.8 384.6 98.8 384.6 C 98.7 382.3 97.8 379.6 95.1 379.6 Z M 112.3 392.7 C 112.3 392.7 112.32 390.63 112.3 390.6 C 111.5 392.1 110 393.1 108.5 393.1 C 105.3 393.1 103.3 390 103.3 385.5 C 103.3 381 105.2 377.8 108.5 377.8 C 110 377.8 111.4 378.7 112.3 380.3 C 112.32 380.31 112.3 372.7 112.3 372.7 L 114.5 372.7 L 114.5 392.7 L 112.3 392.7 Z M 112.3 388.8 C 112.3 388.8 112.3 382.1 112.3 382.1 C 111.8 380.9 110.4 379.8 109 379.8 C 106.7 379.8 105.6 382.3 105.6 385.5 C 105.6 388.6 106.7 391.1 109 391.1 C 110.4 391.1 111.8 390.1 112.3 388.8 Z " stroke="none" fill="#d0d1d4"/>  </g>  <g id="Polygon152576">    <path d="M 9.4 356.7 C 9.4 356.7 9.42 355.14 9.4 355.1 C 8.5 356.5 7.1 357.1 5.6 357.1 C 3.3 357.1 1.2 355.3 1.2 352.2 C 1.2 349.2 3.2 347.5 5.6 347.5 C 7.1 347.5 8.5 348 9.4 349.3 C 9.4 349.3 9.4 346.8 9.4 346.8 C 9.4 344.8 8.3 343.7 6.4 343.7 C 5.1 343.7 3.9 344.2 2.8 345.5 C 2.8 345.5 1.9 343.9 1.9 343.9 C 3.2 342.5 4.9 341.8 6.8 341.8 C 9.7 341.8 11.6 343.3 11.6 346.6 C 11.58 346.56 11.6 356.7 11.6 356.7 L 9.4 356.7 Z M 9.4 353.7 C 9.4 353.7 9.4 350.9 9.4 350.9 C 8.8 349.7 7.6 349 6.3 349 C 4.5 349 3.4 350.5 3.4 352.3 C 3.4 354.1 4.5 355.5 6.3 355.5 C 7.6 355.5 8.8 354.9 9.4 353.7 Z M 14.3 355 C 14.3 355 15.4 353.5 15.4 353.5 C 16.3 354.5 17.6 355.3 19.2 355.3 C 20.9 355.3 22 354.4 22 353 C 22 349.6 14.8 350.8 14.8 345.7 C 14.8 343.6 16.5 341.8 19.4 341.8 C 21.3 341.8 22.8 342.6 23.8 343.7 C 23.8 343.7 22.8 345.2 22.8 345.2 C 22 344.2 20.8 343.6 19.4 343.6 C 17.8 343.6 16.8 344.5 16.8 345.7 C 16.8 348.8 24.1 347.7 24.1 352.9 C 24.1 355.3 22.2 357.1 19.2 357.1 C 17.2 357.1 15.5 356.4 14.3 355 Z M 41.4 356.7 C 41.4 356.7 41.4 346.38 41.4 346.4 C 41.4 344.5 40.5 343.8 39.1 343.8 C 37.7 343.8 36.4 344.9 35.7 346.1 C 35.7 346.08 35.7 356.7 35.7 356.7 L 33.6 356.7 L 33.6 342.2 L 35.7 342.2 C 35.7 342.2 35.7 344.28 35.7 344.3 C 36.5 343 38.2 341.8 39.9 341.8 C 42.4 341.8 43.6 343.2 43.6 345.8 C 43.56 345.78 43.6 356.7 43.6 356.7 L 41.4 356.7 Z M 46.8 349.4 C 46.8 345.2 49 341.8 52.7 341.8 C 56.5 341.8 58.4 345.3 58.4 349.5 C 58.41 349.5 58.4 350.2 58.4 350.2 C 58.4 350.2 49.02 350.16 49 350.2 C 49.1 353.1 50.6 355.3 53.2 355.3 C 54.4 355.3 55.7 354.6 56.6 353.5 C 56.6 353.5 57.8 354.7 57.8 354.7 C 56.6 356.2 55 357.1 53 357.1 C 49.1 357.1 46.8 353.9 46.8 349.4 Z M 52.6 343.6 C 50.1 343.6 49.1 346.4 49 348.6 C 49 348.6 56.3 348.6 56.3 348.6 C 56.2 346.3 55.3 343.6 52.6 343.6 Z M 60.8 349.4 C 60.8 345.2 63.1 341.8 66.7 341.8 C 70.5 341.8 72.4 345.3 72.4 349.5 C 72.45 349.5 72.4 350.2 72.4 350.2 C 72.4 350.2 63.06 350.16 63.1 350.2 C 63.1 353.1 64.6 355.3 67.2 355.3 C 68.5 355.3 69.8 354.6 70.7 353.5 C 70.7 353.5 71.8 354.7 71.8 354.7 C 70.6 356.2 69 357.1 67 357.1 C 63.2 357.1 60.8 353.9 60.8 349.4 Z M 66.7 343.6 C 64.1 343.6 63.1 346.4 63.1 348.6 C 63.1 348.6 70.3 348.6 70.3 348.6 C 70.3 346.3 69.3 343.6 66.7 343.6 Z M 83.9 356.7 C 83.9 356.7 83.88 354.63 83.9 354.6 C 83 356.1 81.6 357.1 80.1 357.1 C 76.8 357.1 74.9 354 74.9 349.5 C 74.9 345 76.8 341.8 80.1 341.8 C 81.5 341.8 83 342.7 83.9 344.3 C 83.88 344.31 83.9 336.7 83.9 336.7 L 86 336.7 L 86 356.7 L 83.9 356.7 Z M 83.9 352.8 C 83.9 352.8 83.9 346.1 83.9 346.1 C 83.3 344.9 82 343.8 80.6 343.8 C 78.2 343.8 77.1 346.3 77.1 349.5 C 77.1 352.6 78.2 355.1 80.6 355.1 C 82 355.1 83.3 354.1 83.9 352.8 Z M 89.3 349.4 C 89.3 345.2 91.5 341.8 95.2 341.8 C 99 341.8 100.9 345.3 100.9 349.5 C 100.89 349.5 100.9 350.2 100.9 350.2 C 100.9 350.2 91.5 350.16 91.5 350.2 C 91.6 353.1 93.1 355.3 95.7 355.3 C 96.9 355.3 98.2 354.6 99.1 353.5 C 99.1 353.5 100.3 354.7 100.3 354.7 C 99.1 356.2 97.4 357.1 95.5 357.1 C 91.6 357.1 89.3 353.9 89.3 349.4 Z M 95.1 343.6 C 92.6 343.6 91.6 346.4 91.5 348.6 C 91.5 348.6 98.8 348.6 98.8 348.6 C 98.7 346.3 97.8 343.6 95.1 343.6 Z M 112.3 356.7 C 112.3 356.7 112.32 354.63 112.3 354.6 C 111.5 356.1 110 357.1 108.5 357.1 C 105.3 357.1 103.3 354 103.3 349.5 C 103.3 345 105.2 341.8 108.5 341.8 C 110 341.8 111.4 342.7 112.3 344.3 C 112.32 344.31 112.3 336.7 112.3 336.7 L 114.5 336.7 L 114.5 356.7 L 112.3 356.7 Z M 112.3 352.8 C 112.3 352.8 112.3 346.1 112.3 346.1 C 111.8 344.9 110.4 343.8 109 343.8 C 106.7 343.8 105.6 346.3 105.6 349.5 C 105.6 352.6 106.7 355.1 109 355.1 C 110.4 355.1 111.8 354.1 112.3 352.8 Z " stroke="none" fill="#d0d1d4"/>  </g>  <g id="Polygon152575">    <path d="M 9.4 320.7 C 9.4 320.7 9.42 319.14 9.4 319.1 C 8.5 320.5 7.1 321.1 5.6 321.1 C 3.3 321.1 1.2 319.3 1.2 316.2 C 1.2 313.2 3.2 311.5 5.6 311.5 C 7.1 311.5 8.5 312 9.4 313.3 C 9.4 313.3 9.4 310.8 9.4 310.8 C 9.4 308.8 8.3 307.7 6.4 307.7 C 5.1 307.7 3.9 308.2 2.8 309.5 C 2.8 309.5 1.9 307.9 1.9 307.9 C 3.2 306.5 4.9 305.8 6.8 305.8 C 9.7 305.8 11.6 307.3 11.6 310.6 C 11.58 310.56 11.6 320.7 11.6 320.7 L 9.4 320.7 Z M 9.4 317.7 C 9.4 317.7 9.4 314.9 9.4 314.9 C 8.8 313.7 7.6 313 6.3 313 C 4.5 313 3.4 314.5 3.4 316.3 C 3.4 318.1 4.5 319.5 6.3 319.5 C 7.6 319.5 8.8 318.9 9.4 317.7 Z M 14.3 319 C 14.3 319 15.4 317.5 15.4 317.5 C 16.3 318.5 17.6 319.3 19.2 319.3 C 20.9 319.3 22 318.4 22 317 C 22 313.6 14.8 314.8 14.8 309.7 C 14.8 307.6 16.5 305.8 19.4 305.8 C 21.3 305.8 22.8 306.6 23.8 307.7 C 23.8 307.7 22.8 309.2 22.8 309.2 C 22 308.2 20.8 307.6 19.4 307.6 C 17.8 307.6 16.8 308.5 16.8 309.7 C 16.8 312.8 24.1 311.7 24.1 316.9 C 24.1 319.3 22.2 321.1 19.2 321.1 C 17.2 321.1 15.5 320.4 14.3 319 Z M 41.4 320.7 C 41.4 320.7 41.4 310.38 41.4 310.4 C 41.4 308.5 40.5 307.8 39.1 307.8 C 37.7 307.8 36.4 308.9 35.7 310.1 C 35.7 310.08 35.7 320.7 35.7 320.7 L 33.6 320.7 L 33.6 306.2 L 35.7 306.2 C 35.7 306.2 35.7 308.28 35.7 308.3 C 36.5 307 38.2 305.8 39.9 305.8 C 42.4 305.8 43.6 307.2 43.6 309.8 C 43.56 309.78 43.6 320.7 43.6 320.7 L 41.4 320.7 Z M 46.8 313.4 C 46.8 309.2 49 305.8 52.7 305.8 C 56.5 305.8 58.4 309.3 58.4 313.5 C 58.41 313.5 58.4 314.2 58.4 314.2 C 58.4 314.2 49.02 314.16 49 314.2 C 49.1 317.1 50.6 319.3 53.2 319.3 C 54.4 319.3 55.7 318.6 56.6 317.5 C 56.6 317.5 57.8 318.7 57.8 318.7 C 56.6 320.2 55 321.1 53 321.1 C 49.1 321.1 46.8 317.9 46.8 313.4 Z M 52.6 307.6 C 50.1 307.6 49.1 310.4 49 312.6 C 49 312.6 56.3 312.6 56.3 312.6 C 56.2 310.3 55.3 307.6 52.6 307.6 Z M 60.8 313.4 C 60.8 309.2 63.1 305.8 66.7 305.8 C 70.5 305.8 72.4 309.3 72.4 313.5 C 72.45 313.5 72.4 314.2 72.4 314.2 C 72.4 314.2 63.06 314.16 63.1 314.2 C 63.1 317.1 64.6 319.3 67.2 319.3 C 68.5 319.3 69.8 318.6 70.7 317.5 C 70.7 317.5 71.8 318.7 71.8 318.7 C 70.6 320.2 69 321.1 67 321.1 C 63.2 321.1 60.8 317.9 60.8 313.4 Z M 66.7 307.6 C 64.1 307.6 63.1 310.4 63.1 312.6 C 63.1 312.6 70.3 312.6 70.3 312.6 C 70.3 310.3 69.3 307.6 66.7 307.6 Z M 83.9 320.7 C 83.9 320.7 83.88 318.63 83.9 318.6 C 83 320.1 81.6 321.1 80.1 321.1 C 76.8 321.1 74.9 318 74.9 313.5 C 74.9 309 76.8 305.8 80.1 305.8 C 81.5 305.8 83 306.7 83.9 308.3 C 83.88 308.31 83.9 300.7 83.9 300.7 L 86 300.7 L 86 320.7 L 83.9 320.7 Z M 83.9 316.8 C 83.9 316.8 83.9 310.1 83.9 310.1 C 83.3 308.9 82 307.8 80.6 307.8 C 78.2 307.8 77.1 310.3 77.1 313.5 C 77.1 316.6 78.2 319.1 80.6 319.1 C 82 319.1 83.3 318.1 83.9 316.8 Z M 89.3 313.4 C 89.3 309.2 91.5 305.8 95.2 305.8 C 99 305.8 100.9 309.3 100.9 313.5 C 100.89 313.5 100.9 314.2 100.9 314.2 C 100.9 314.2 91.5 314.16 91.5 314.2 C 91.6 317.1 93.1 319.3 95.7 319.3 C 96.9 319.3 98.2 318.6 99.1 317.5 C 99.1 317.5 100.3 318.7 100.3 318.7 C 99.1 320.2 97.4 321.1 95.5 321.1 C 91.6 321.1 89.3 317.9 89.3 313.4 Z M 95.1 307.6 C 92.6 307.6 91.6 310.4 91.5 312.6 C 91.5 312.6 98.8 312.6 98.8 312.6 C 98.7 310.3 97.8 307.6 95.1 307.6 Z M 112.3 320.7 C 112.3 320.7 112.32 318.63 112.3 318.6 C 111.5 320.1 110 321.1 108.5 321.1 C 105.3 321.1 103.3 318 103.3 313.5 C 103.3 309 105.2 305.8 108.5 305.8 C 110 305.8 111.4 306.7 112.3 308.3 C 112.32 308.31 112.3 300.7 112.3 300.7 L 114.5 300.7 L 114.5 320.7 L 112.3 320.7 Z M 112.3 316.8 C 112.3 316.8 112.3 310.1 112.3 310.1 C 111.8 308.9 110.4 307.8 109 307.8 C 106.7 307.8 105.6 310.3 105.6 313.5 C 105.6 316.6 106.7 319.1 109 319.1 C 110.4 319.1 111.8 318.1 112.3 316.8 Z " stroke="none" fill="#d0d1d4"/>  </g>  <g id="Polygon152574">    <path d="M 9.4 284.7 C 9.4 284.7 9.42 283.14 9.4 283.1 C 8.5 284.5 7.1 285.1 5.6 285.1 C 3.3 285.1 1.2 283.3 1.2 280.2 C 1.2 277.2 3.2 275.5 5.6 275.5 C 7.1 275.5 8.5 276 9.4 277.3 C 9.4 277.3 9.4 274.8 9.4 274.8 C 9.4 272.8 8.3 271.7 6.4 271.7 C 5.1 271.7 3.9 272.2 2.8 273.5 C 2.8 273.5 1.9 271.9 1.9 271.9 C 3.2 270.5 4.9 269.8 6.8 269.8 C 9.7 269.8 11.6 271.3 11.6 274.6 C 11.58 274.56 11.6 284.7 11.6 284.7 L 9.4 284.7 Z M 9.4 281.7 C 9.4 281.7 9.4 278.9 9.4 278.9 C 8.8 277.7 7.6 277 6.3 277 C 4.5 277 3.4 278.5 3.4 280.3 C 3.4 282.1 4.5 283.5 6.3 283.5 C 7.6 283.5 8.8 282.9 9.4 281.7 Z M 14.3 283 C 14.3 283 15.4 281.5 15.4 281.5 C 16.3 282.5 17.6 283.3 19.2 283.3 C 20.9 283.3 22 282.4 22 281 C 22 277.6 14.8 278.8 14.8 273.7 C 14.8 271.6 16.5 269.8 19.4 269.8 C 21.3 269.8 22.8 270.6 23.8 271.7 C 23.8 271.7 22.8 273.2 22.8 273.2 C 22 272.2 20.8 271.6 19.4 271.6 C 17.8 271.6 16.8 272.5 16.8 273.7 C 16.8 276.8 24.1 275.7 24.1 280.9 C 24.1 283.3 22.2 285.1 19.2 285.1 C 17.2 285.1 15.5 284.4 14.3 283 Z M 41.4 284.7 C 41.4 284.7 41.4 274.38 41.4 274.4 C 41.4 272.5 40.5 271.8 39.1 271.8 C 37.7 271.8 36.4 272.9 35.7 274.1 C 35.7 274.08 35.7 284.7 35.7 284.7 L 33.6 284.7 L 33.6 270.2 L 35.7 270.2 C 35.7 270.2 35.7 272.28 35.7 272.3 C 36.5 271 38.2 269.8 39.9 269.8 C 42.4 269.8 43.6 271.2 43.6 273.8 C 43.56 273.78 43.6 284.7 43.6 284.7 L 41.4 284.7 Z M 46.8 277.4 C 46.8 273.2 49 269.8 52.7 269.8 C 56.5 269.8 58.4 273.3 58.4 277.5 C 58.41 277.5 58.4 278.2 58.4 278.2 C 58.4 278.2 49.02 278.16 49 278.2 C 49.1 281.1 50.6 283.3 53.2 283.3 C 54.4 283.3 55.7 282.6 56.6 281.5 C 56.6 281.5 57.8 282.7 57.8 282.7 C 56.6 284.2 55 285.1 53 285.1 C 49.1 285.1 46.8 281.9 46.8 277.4 Z M 52.6 271.6 C 50.1 271.6 49.1 274.4 49 276.6 C 49 276.6 56.3 276.6 56.3 276.6 C 56.2 274.3 55.3 271.6 52.6 271.6 Z M 60.8 277.4 C 60.8 273.2 63.1 269.8 66.7 269.8 C 70.5 269.8 72.4 273.3 72.4 277.5 C 72.45 277.5 72.4 278.2 72.4 278.2 C 72.4 278.2 63.06 278.16 63.1 278.2 C 63.1 281.1 64.6 283.3 67.2 283.3 C 68.5 283.3 69.8 282.6 70.7 281.5 C 70.7 281.5 71.8 282.7 71.8 282.7 C 70.6 284.2 69 285.1 67 285.1 C 63.2 285.1 60.8 281.9 60.8 277.4 Z M 66.7 271.6 C 64.1 271.6 63.1 274.4 63.1 276.6 C 63.1 276.6 70.3 276.6 70.3 276.6 C 70.3 274.3 69.3 271.6 66.7 271.6 Z M 83.9 284.7 C 83.9 284.7 83.88 282.63 83.9 282.6 C 83 284.1 81.6 285.1 80.1 285.1 C 76.8 285.1 74.9 282 74.9 277.5 C 74.9 273 76.8 269.8 80.1 269.8 C 81.5 269.8 83 270.7 83.9 272.3 C 83.88 272.31 83.9 264.7 83.9 264.7 L 86 264.7 L 86 284.7 L 83.9 284.7 Z M 83.9 280.8 C 83.9 280.8 83.9 274.1 83.9 274.1 C 83.3 272.9 82 271.8 80.6 271.8 C 78.2 271.8 77.1 274.3 77.1 277.5 C 77.1 280.6 78.2 283.1 80.6 283.1 C 82 283.1 83.3 282.1 83.9 280.8 Z M 89.3 277.4 C 89.3 273.2 91.5 269.8 95.2 269.8 C 99 269.8 100.9 273.3 100.9 277.5 C 100.89 277.5 100.9 278.2 100.9 278.2 C 100.9 278.2 91.5 278.16 91.5 278.2 C 91.6 281.1 93.1 283.3 95.7 283.3 C 96.9 283.3 98.2 282.6 99.1 281.5 C 99.1 281.5 100.3 282.7 100.3 282.7 C 99.1 284.2 97.4 285.1 95.5 285.1 C 91.6 285.1 89.3 281.9 89.3 277.4 Z M 95.1 271.6 C 92.6 271.6 91.6 274.4 91.5 276.6 C 91.5 276.6 98.8 276.6 98.8 276.6 C 98.7 274.3 97.8 271.6 95.1 271.6 Z M 112.3 284.7 C 112.3 284.7 112.32 282.63 112.3 282.6 C 111.5 284.1 110 285.1 108.5 285.1 C 105.3 285.1 103.3 282 103.3 277.5 C 103.3 273 105.2 269.8 108.5 269.8 C 110 269.8 111.4 270.7 112.3 272.3 C 112.32 272.31 112.3 264.7 112.3 264.7 L 114.5 264.7 L 114.5 284.7 L 112.3 284.7 Z M 112.3 280.8 C 112.3 280.8 112.3 274.1 112.3 274.1 C 111.8 272.9 110.4 271.8 109 271.8 C 106.7 271.8 105.6 274.3 105.6 277.5 C 105.6 280.6 106.7 283.1 109 283.1 C 110.4 283.1 111.8 282.1 112.3 280.8 Z " stroke="none" fill="#d0d1d4"/>  </g>  <g id="Polygon152573">    <path d="M 9.4 248.7 C 9.4 248.7 9.42 247.14 9.4 247.1 C 8.5 248.5 7.1 249.1 5.6 249.1 C 3.3 249.1 1.2 247.3 1.2 244.2 C 1.2 241.2 3.2 239.5 5.6 239.5 C 7.1 239.5 8.5 240 9.4 241.3 C 9.4 241.3 9.4 238.8 9.4 238.8 C 9.4 236.8 8.3 235.7 6.4 235.7 C 5.1 235.7 3.9 236.2 2.8 237.5 C 2.8 237.5 1.9 235.9 1.9 235.9 C 3.2 234.5 4.9 233.8 6.8 233.8 C 9.7 233.8 11.6 235.3 11.6 238.6 C 11.58 238.56 11.6 248.7 11.6 248.7 L 9.4 248.7 Z M 9.4 245.7 C 9.4 245.7 9.4 242.9 9.4 242.9 C 8.8 241.7 7.6 241 6.3 241 C 4.5 241 3.4 242.5 3.4 244.3 C 3.4 246.1 4.5 247.5 6.3 247.5 C 7.6 247.5 8.8 246.9 9.4 245.7 Z M 14.3 247 C 14.3 247 15.4 245.5 15.4 245.5 C 16.3 246.5 17.6 247.3 19.2 247.3 C 20.9 247.3 22 246.4 22 245 C 22 241.6 14.8 242.8 14.8 237.7 C 14.8 235.6 16.5 233.8 19.4 233.8 C 21.3 233.8 22.8 234.6 23.8 235.7 C 23.8 235.7 22.8 237.2 22.8 237.2 C 22 236.2 20.8 235.6 19.4 235.6 C 17.8 235.6 16.8 236.5 16.8 237.7 C 16.8 240.8 24.1 239.7 24.1 244.9 C 24.1 247.3 22.2 249.1 19.2 249.1 C 17.2 249.1 15.5 248.4 14.3 247 Z M 41.4 248.7 C 41.4 248.7 41.4 238.38 41.4 238.4 C 41.4 236.5 40.5 235.8 39.1 235.8 C 37.7 235.8 36.4 236.9 35.7 238.1 C 35.7 238.08 35.7 248.7 35.7 248.7 L 33.6 248.7 L 33.6 234.2 L 35.7 234.2 C 35.7 234.2 35.7 236.28 35.7 236.3 C 36.5 235 38.2 233.8 39.9 233.8 C 42.4 233.8 43.6 235.2 43.6 237.8 C 43.56 237.78 43.6 248.7 43.6 248.7 L 41.4 248.7 Z M 46.8 241.4 C 46.8 237.2 49 233.8 52.7 233.8 C 56.5 233.8 58.4 237.3 58.4 241.5 C 58.41 241.5 58.4 242.2 58.4 242.2 C 58.4 242.2 49.02 242.16 49 242.2 C 49.1 245.1 50.6 247.3 53.2 247.3 C 54.4 247.3 55.7 246.6 56.6 245.5 C 56.6 245.5 57.8 246.7 57.8 246.7 C 56.6 248.2 55 249.1 53 249.1 C 49.1 249.1 46.8 245.9 46.8 241.4 Z M 52.6 235.6 C 50.1 235.6 49.1 238.4 49 240.6 C 49 240.6 56.3 240.6 56.3 240.6 C 56.2 238.3 55.3 235.6 52.6 235.6 Z M 60.8 241.4 C 60.8 237.2 63.1 233.8 66.7 233.8 C 70.5 233.8 72.4 237.3 72.4 241.5 C 72.45 241.5 72.4 242.2 72.4 242.2 C 72.4 242.2 63.06 242.16 63.1 242.2 C 63.1 245.1 64.6 247.3 67.2 247.3 C 68.5 247.3 69.8 246.6 70.7 245.5 C 70.7 245.5 71.8 246.7 71.8 246.7 C 70.6 248.2 69 249.1 67 249.1 C 63.2 249.1 60.8 245.9 60.8 241.4 Z M 66.7 235.6 C 64.1 235.6 63.1 238.4 63.1 240.6 C 63.1 240.6 70.3 240.6 70.3 240.6 C 70.3 238.3 69.3 235.6 66.7 235.6 Z M 83.9 248.7 C 83.9 248.7 83.88 246.63 83.9 246.6 C 83 248.1 81.6 249.1 80.1 249.1 C 76.8 249.1 74.9 246 74.9 241.5 C 74.9 237 76.8 233.8 80.1 233.8 C 81.5 233.8 83 234.7 83.9 236.3 C 83.88 236.31 83.9 228.7 83.9 228.7 L 86 228.7 L 86 248.7 L 83.9 248.7 Z M 83.9 244.8 C 83.9 244.8 83.9 238.1 83.9 238.1 C 83.3 236.9 82 235.8 80.6 235.8 C 78.2 235.8 77.1 238.3 77.1 241.5 C 77.1 244.6 78.2 247.1 80.6 247.1 C 82 247.1 83.3 246.1 83.9 244.8 Z M 89.3 241.4 C 89.3 237.2 91.5 233.8 95.2 233.8 C 99 233.8 100.9 237.3 100.9 241.5 C 100.89 241.5 100.9 242.2 100.9 242.2 C 100.9 242.2 91.5 242.16 91.5 242.2 C 91.6 245.1 93.1 247.3 95.7 247.3 C 96.9 247.3 98.2 246.6 99.1 245.5 C 99.1 245.5 100.3 246.7 100.3 246.7 C 99.1 248.2 97.4 249.1 95.5 249.1 C 91.6 249.1 89.3 245.9 89.3 241.4 Z M 95.1 235.6 C 92.6 235.6 91.6 238.4 91.5 240.6 C 91.5 240.6 98.8 240.6 98.8 240.6 C 98.7 238.3 97.8 235.6 95.1 235.6 Z M 112.3 248.7 C 112.3 248.7 112.32 246.63 112.3 246.6 C 111.5 248.1 110 249.1 108.5 249.1 C 105.3 249.1 103.3 246 103.3 241.5 C 103.3 237 105.2 233.8 108.5 233.8 C 110 233.8 111.4 234.7 112.3 236.3 C 112.32 236.31 112.3 228.7 112.3 228.7 L 114.5 228.7 L 114.5 248.7 L 112.3 248.7 Z M 112.3 244.8 C 112.3 244.8 112.3 238.1 112.3 238.1 C 111.8 236.9 110.4 235.8 109 235.8 C 106.7 235.8 105.6 238.3 105.6 241.5 C 105.6 244.6 106.7 247.1 109 247.1 C 110.4 247.1 111.8 246.1 112.3 244.8 Z " stroke="none" fill="#d0d1d4"/>  </g>  <g id="Polygon152572">    <path d="M 5 212.7 L 5 195.8 L 1.9 199.1 L 0.4 197.6 L 5.3 192.7 L 7.3 192.7 L 7.3 212.7 L 5 212.7 Z M 20 210.6 C 20.01 210.6 20 218.2 20 218.2 L 17.9 218.2 L 17.9 198.2 L 20 198.2 C 20 198.2 20.01 200.28 20 200.3 C 20.8 198.8 22.3 197.8 23.8 197.8 C 27.1 197.8 29 200.9 29 205.4 C 29 210 27.1 213.1 23.8 213.1 C 22.3 213.1 20.9 212.2 20 210.6 Z M 26.8 205.4 C 26.8 202.3 25.6 199.8 23.3 199.8 C 21.9 199.8 20.6 200.8 20 202.1 C 20 202.1 20 208.7 20 208.7 C 20.6 210 21.9 211.1 23.3 211.1 C 25.6 211.1 26.8 208.6 26.8 205.4 Z M 31.5 205.4 C 31.5 201.1 33.8 197.8 37.5 197.8 C 39.5 197.8 40.7 198.7 41.6 199.8 C 41.6 199.8 40.5 201.2 40.5 201.2 C 39.7 200.2 38.8 199.8 37.7 199.8 C 35.1 199.8 33.7 202.3 33.7 205.4 C 33.7 208.5 35.1 211.1 37.7 211.1 C 38.8 211.1 39.7 210.7 40.5 209.7 C 40.5 209.7 41.6 211.1 41.6 211.1 C 40.7 212.3 39.5 213.1 37.5 213.1 C 33.8 213.1 31.5 209.7 31.5 205.4 Z M 53.8 218.7 C 51.5 214.8 50.2 210.2 50.2 205.4 C 50.2 200.6 51.5 196 53.8 192.1 C 53.8 192.1 55.2 193 55.2 193 C 53.6 196.8 52.6 200.4 52.6 205.4 C 52.6 210.4 53.6 214 55.2 217.8 C 55.2 217.8 53.8 218.7 53.8 218.7 Z M 57.7 212.7 L 57.7 192.7 L 59.8 192.7 L 59.8 212.7 L 57.7 212.7 Z M 71.2 212.7 C 71.2 212.7 71.25 211.14 71.2 211.1 C 70.3 212.5 68.9 213.1 67.4 213.1 C 65.1 213.1 63.1 211.3 63.1 208.2 C 63.1 205.2 65.1 203.5 67.4 203.5 C 68.9 203.5 70.3 204 71.2 205.3 C 71.2 205.3 71.2 202.8 71.2 202.8 C 71.2 200.8 70.2 199.7 68.3 199.7 C 66.9 199.7 65.8 200.2 64.6 201.5 C 64.6 201.5 63.7 199.9 63.7 199.9 C 65.1 198.5 66.8 197.8 68.6 197.8 C 71.5 197.8 73.4 199.3 73.4 202.6 C 73.41 202.56 73.4 212.7 73.4 212.7 L 71.2 212.7 Z M 71.2 209.7 C 71.2 209.7 71.2 206.9 71.2 206.9 C 70.6 205.7 69.4 205 68.1 205 C 66.3 205 65.2 206.5 65.2 208.3 C 65.2 210.1 66.3 211.5 68.1 211.5 C 69.4 211.5 70.6 210.9 71.2 209.7 Z M 77.3 212.7 L 77.3 198.2 L 79.5 198.2 C 79.5 198.2 79.47 200.52 79.5 200.5 C 80.4 199 81.8 197.9 83.6 197.9 C 83.6 197.9 83.6 200.1 83.6 200.1 C 83.3 200.1 83.1 200 82.9 200 C 81.5 200 80.1 201.2 79.5 202.4 C 79.47 202.41 79.5 212.7 79.5 212.7 L 77.3 212.7 Z M 85.9 216.7 C 85.9 216.7 86.9 215.1 86.9 215.1 C 87.9 216.2 89.1 216.7 90.7 216.7 C 92.7 216.7 94.3 215.6 94.3 212.8 C 94.3 212.8 94.3 210.4 94.3 210.4 C 93.5 211.9 92.1 212.9 90.5 212.9 C 87.3 212.9 85.3 209.9 85.3 205.4 C 85.3 200.9 87.3 197.8 90.5 197.8 C 92 197.8 93.4 198.7 94.3 200.3 C 94.35 200.31 94.3 198.2 94.3 198.2 L 96.5 198.2 C 96.5 198.2 96.51 212.67 96.5 212.7 C 96.5 217.1 93.8 218.6 90.8 218.6 C 88.8 218.6 87.3 218.1 85.9 216.7 Z M 94.3 208.6 C 94.3 208.6 94.3 202.1 94.3 202.1 C 93.8 200.9 92.5 199.8 91.1 199.8 C 88.7 199.8 87.6 202.3 87.6 205.4 C 87.6 208.5 88.7 211 91.1 211 C 92.5 211 93.8 209.8 94.3 208.6 Z M 99.7 205.4 C 99.7 201.2 101.9 197.8 105.6 197.8 C 109.4 197.8 111.3 201.3 111.3 205.5 C 111.33 205.5 111.3 206.2 111.3 206.2 C 111.3 206.2 101.94 206.16 101.9 206.2 C 102 209.1 103.5 211.3 106.1 211.3 C 107.4 211.3 108.7 210.6 109.6 209.5 C 109.6 209.5 110.7 210.7 110.7 210.7 C 109.5 212.2 107.9 213.1 105.9 213.1 C 102.1 213.1 99.7 209.9 99.7 205.4 Z M 105.6 199.6 C 103 199.6 102 202.4 101.9 204.6 C 101.9 204.6 109.2 204.6 109.2 204.6 C 109.2 202.3 108.2 199.6 105.6 199.6 Z M 113 217.8 C 114.6 214 115.6 210.4 115.6 205.4 C 115.6 200.4 114.6 196.8 113 193 C 113 193 114.4 192.1 114.4 192.1 C 116.7 196 118 200.6 118 205.4 C 118 210.2 116.7 214.8 114.4 218.7 C 114.4 218.7 113 217.8 113 217.8 Z " stroke="none" fill="#d0d1d4"/>  </g>  <g id="Polygon152571">    <path d="M 3 176.7 L 9.2 158.8 L 0.8 158.8 L 0.8 156.7 L 11.9 156.7 L 11.9 158.3 L 5.5 176.7 L 3 176.7 Z M 14.2 173.8 C 14.2 173.8 15.8 172.3 15.8 172.3 C 16.8 174 18.1 174.9 20 174.9 C 22.2 174.9 23.6 172.9 23.6 170.6 C 23.6 167.7 22.3 166.2 20.2 166.2 C 18.8 166.2 17.7 166.7 16.6 168 C 16.56 168.03 14.8 167.4 14.8 167.4 L 14.8 156.7 L 25 156.7 L 25 158.8 L 17.2 158.8 C 17.2 158.8 17.16 165.81 17.2 165.8 C 17.9 164.8 19.3 164.1 20.8 164.1 C 23.7 164.1 26 166.3 26 170.5 C 26 174.3 23.6 177.1 20.1 177.1 C 17.2 177.1 15.4 175.8 14.2 173.8 Z M 50.5 176.7 C 50.5 176.7 50.46 166.2 50.5 166.2 C 50.5 164.6 49.8 163.8 48.4 163.8 C 47.2 163.8 45.9 164.9 45.3 166.1 C 45.3 166.08 45.3 176.7 45.3 176.7 L 43.1 176.7 C 43.1 176.7 43.14 166.2 43.1 166.2 C 43.1 164.6 42.5 163.8 41.1 163.8 C 39.8 163.8 38.6 164.9 37.9 166.1 C 37.95 166.08 37.9 176.7 37.9 176.7 L 35.8 176.7 L 35.8 162.2 L 37.9 162.2 C 37.9 162.2 37.95 164.28 37.9 164.3 C 38.5 163.2 40.2 161.8 41.9 161.8 C 43.8 161.8 44.9 162.9 45.2 164.4 C 45.9 163.1 47.5 161.8 49.3 161.8 C 51.4 161.8 52.6 163 52.6 165.6 C 52.62 165.63 52.6 176.7 52.6 176.7 L 50.5 176.7 Z M 56.6 176.7 L 56.6 156.7 L 58.7 156.7 L 58.7 176.7 L 56.6 176.7 Z " stroke="none" fill="#d0d1d4"/>  </g>  <g id="Polygon152570">    <path d="M 5 140.7 L 5 123.8 L 1.9 127.1 L 0.4 125.6 L 5.3 120.7 L 7.3 120.7 L 7.3 140.7 L 5 140.7 Z M 11 137.8 C 11 137.8 12.6 136.3 12.6 136.3 C 13.6 138 14.9 138.9 16.8 138.9 C 19 138.9 20.4 136.9 20.4 134.6 C 20.4 131.7 19 130.2 17 130.2 C 15.6 130.2 14.5 130.7 13.3 132 C 13.35 132.03 11.6 131.4 11.6 131.4 L 11.6 120.7 L 21.8 120.7 L 21.8 122.8 L 13.9 122.8 C 13.9 122.8 13.95 129.81 13.9 129.8 C 14.7 128.8 16 128.1 17.6 128.1 C 20.5 128.1 22.8 130.3 22.8 134.5 C 22.8 138.3 20.4 141.1 16.9 141.1 C 13.9 141.1 12.2 139.8 11 137.8 Z M 25.6 130.7 C 25.6 125.9 27.2 120.4 31.9 120.4 C 36.5 120.4 38.1 125.9 38.1 130.7 C 38.1 135.5 36.5 141.1 31.9 141.1 C 27.2 141.1 25.6 135.5 25.6 130.7 Z M 35.7 130.7 C 35.7 126.7 34.9 122.5 31.9 122.5 C 28.8 122.5 28 126.7 28 130.7 C 28 134.6 28.8 138.9 31.9 138.9 C 34.9 138.9 35.7 134.6 35.7 130.7 Z M 47.8 144.7 C 47.8 144.7 48.8 143.1 48.8 143.1 C 49.8 144.2 51 144.7 52.6 144.7 C 54.6 144.7 56.2 143.6 56.2 140.8 C 56.2 140.8 56.2 138.4 56.2 138.4 C 55.4 139.9 54 140.9 52.4 140.9 C 49.2 140.9 47.2 137.9 47.2 133.4 C 47.2 128.9 49.2 125.8 52.4 125.8 C 53.9 125.8 55.3 126.7 56.2 128.3 C 56.25 128.31 56.2 126.2 56.2 126.2 L 58.4 126.2 C 58.4 126.2 58.41 140.67 58.4 140.7 C 58.4 145.1 55.7 146.6 52.7 146.6 C 50.7 146.6 49.2 146.1 47.8 144.7 Z M 56.2 136.6 C 56.2 136.6 56.2 130.1 56.2 130.1 C 55.7 128.9 54.4 127.8 53 127.8 C 50.6 127.8 49.5 130.3 49.5 133.4 C 49.5 136.5 50.6 139 53 139 C 54.4 139 55.7 137.8 56.2 136.6 Z " stroke="none" fill="#d0d1d4"/>  </g>  <g id="Polygon152569">    <path d="M 7.4 95.2 L 7.4 100.7 L 5.8 100.7 L 5.8 95.2 L 0.9 95.2 L 0.9 93.6 L 5.8 93.6 L 5.8 88.3 L 7.4 88.3 L 7.4 93.6 L 12.3 93.6 L 12.3 95.2 L 7.4 95.2 Z M 0.9 104 L 0.9 102.5 L 12.3 102.5 L 12.3 104 L 0.9 104 Z M 15.3 101.7 C 15.3 101.7 16.9 100.3 16.9 100.3 C 17.8 101.8 19.3 102.9 21.2 102.9 C 23.6 102.9 24.8 101.4 24.8 99.1 C 24.8 96.4 23 95.5 21 95.5 C 20.4 95.5 19.7 95.5 19.4 95.5 C 19.4 95.5 19.4 93.4 19.4 93.4 C 19.7 93.4 20.4 93.4 20.9 93.4 C 22.9 93.4 24.6 92.3 24.6 90 C 24.6 87.7 23.1 86.5 21.1 86.5 C 19.3 86.5 18.1 87.4 17.1 88.9 C 17.1 88.9 15.6 87.5 15.6 87.5 C 16.8 85.6 18.8 84.4 21.3 84.4 C 24.5 84.4 26.9 86.2 26.9 89.7 C 26.9 92.2 25.2 93.9 23.4 94.3 C 25.1 94.6 27.2 96.4 27.2 99.3 C 27.2 102.6 25.1 105.1 21.3 105.1 C 18.4 105.1 16.3 103.6 15.3 101.7 Z M 30.1 94.7 C 30.1 89.9 31.6 84.4 36.3 84.4 C 41 84.4 42.6 89.9 42.6 94.7 C 42.6 99.5 41 105.1 36.3 105.1 C 31.6 105.1 30.1 99.5 30.1 94.7 Z M 40.2 94.7 C 40.2 90.7 39.4 86.5 36.3 86.5 C 33.3 86.5 32.5 90.7 32.5 94.7 C 32.5 98.6 33.2 102.9 36.3 102.9 C 39.4 102.9 40.2 98.6 40.2 94.7 Z M 51.3 103 C 51.3 103 52.3 101.5 52.3 101.5 C 53.2 102.5 54.6 103.3 56.1 103.3 C 57.8 103.3 58.9 102.4 58.9 101 C 58.9 97.6 51.7 98.8 51.7 93.7 C 51.7 91.6 53.4 89.8 56.3 89.8 C 58.2 89.8 59.7 90.6 60.7 91.7 C 60.7 91.7 59.7 93.2 59.7 93.2 C 59 92.2 57.7 91.6 56.3 91.6 C 54.7 91.6 53.8 92.5 53.8 93.7 C 53.8 96.8 61 95.7 61 100.9 C 61 103.3 59.1 105.1 56.2 105.1 C 54.1 105.1 52.5 104.4 51.3 103 Z M 64.5 101.8 C 64.47 101.79 64.5 92.1 64.5 92.1 L 62.5 92.1 L 62.5 90.2 L 64.5 90.2 L 64.5 86.2 L 66.6 86.2 L 66.6 90.2 L 69.1 90.2 L 69.1 92.1 L 66.6 92.1 C 66.6 92.1 66.63 101.4 66.6 101.4 C 66.6 102.5 67 103.1 67.8 103.1 C 68.3 103.1 68.8 102.9 69.1 102.6 C 69.1 102.6 69.7 104.2 69.7 104.2 C 69.2 104.7 68.5 105.1 67.4 105.1 C 65.4 105.1 64.5 103.9 64.5 101.8 Z M 71.9 104.7 L 71.9 90.2 L 74.1 90.2 C 74.1 90.2 74.07 92.52 74.1 92.5 C 75 91 76.4 89.9 78.2 89.9 C 78.2 89.9 78.2 92.1 78.2 92.1 C 77.9 92.1 77.7 92 77.5 92 C 76.1 92 74.7 93.2 74.1 94.4 C 74.07 94.41 74.1 104.7 74.1 104.7 L 71.9 104.7 Z M 88.1 104.7 C 88.1 104.7 88.11 103.14 88.1 103.1 C 87.2 104.5 85.8 105.1 84.3 105.1 C 82 105.1 79.9 103.3 79.9 100.2 C 79.9 97.2 81.9 95.5 84.3 95.5 C 85.8 95.5 87.2 96 88.1 97.3 C 88.1 97.3 88.1 94.8 88.1 94.8 C 88.1 92.8 87 91.7 85.1 91.7 C 83.8 91.7 82.6 92.2 81.5 93.5 C 81.5 93.5 80.5 91.9 80.5 91.9 C 81.9 90.5 83.6 89.8 85.5 89.8 C 88.3 89.8 90.3 91.3 90.3 94.6 C 90.27 94.56 90.3 104.7 90.3 104.7 L 88.1 104.7 Z M 88.1 101.7 C 88.1 101.7 88.1 98.9 88.1 98.9 C 87.4 97.7 86.2 97 85 97 C 83.2 97 82.1 98.5 82.1 100.3 C 82.1 102.1 83.2 103.5 85 103.5 C 86.2 103.5 87.4 102.9 88.1 101.7 Z M 102 104.7 C 102 104.7 102.03 94.38 102 94.4 C 102 92.5 101.2 91.8 99.7 91.8 C 98.3 91.8 97 92.9 96.3 94.1 C 96.33 94.08 96.3 104.7 96.3 104.7 L 94.2 104.7 L 94.2 90.2 L 96.3 90.2 C 96.3 90.2 96.33 92.28 96.3 92.3 C 97.2 91 98.8 89.8 100.5 89.8 C 103 89.8 104.2 91.2 104.2 93.8 C 104.19 93.78 104.2 104.7 104.2 104.7 L 102 104.7 Z M 116.4 104.7 C 116.4 104.7 116.43 102.63 116.4 102.6 C 115.6 104.1 114.1 105.1 112.6 105.1 C 109.4 105.1 107.4 102 107.4 97.5 C 107.4 93 109.3 89.8 112.6 89.8 C 114.1 89.8 115.6 90.7 116.4 92.3 C 116.43 92.31 116.4 84.7 116.4 84.7 L 118.6 84.7 L 118.6 104.7 L 116.4 104.7 Z M 116.4 100.8 C 116.4 100.8 116.4 94.1 116.4 94.1 C 115.9 92.9 114.5 91.8 113.2 91.8 C 110.8 91.8 109.7 94.3 109.7 97.5 C 109.7 100.6 110.8 103.1 113.2 103.1 C 114.5 103.1 115.9 102.1 116.4 100.8 Z M 121.4 103 C 121.4 103 122.5 101.5 122.5 101.5 C 123.3 102.5 124.7 103.3 126.2 103.3 C 127.9 103.3 129 102.4 129 101 C 129 97.6 121.8 98.8 121.8 93.7 C 121.8 91.6 123.5 89.8 126.4 89.8 C 128.3 89.8 129.8 90.6 130.8 91.7 C 130.8 91.7 129.8 93.2 129.8 93.2 C 129.1 92.2 127.9 91.6 126.4 91.6 C 124.9 91.6 123.9 92.5 123.9 93.7 C 123.9 96.8 131.1 95.7 131.1 100.9 C 131.1 103.3 129.2 105.1 126.3 105.1 C 124.2 105.1 122.6 104.4 121.4 103 Z " stroke="none" fill="#d0d1d4"/>  </g>  <g id="Polygon152568">    <path d="M 1.6 68.7 C 1.6 68.7 1.59 66.75 1.6 66.7 C 8.1 59.2 10.4 56.8 10.4 53.8 C 10.4 51.7 8.9 50.5 7.2 50.5 C 5.3 50.5 3.9 51.4 2.9 53 C 2.9 53 1.4 51.6 1.4 51.6 C 2.7 49.6 4.7 48.4 7.2 48.4 C 10.3 48.4 12.8 50.4 12.8 53.8 C 12.8 57.2 10.3 60.2 5 66.6 C 4.98 66.57 12.9 66.6 12.9 66.6 L 12.9 68.7 L 1.6 68.7 Z M 16.2 65.8 C 16.2 65.8 17.8 64.3 17.8 64.3 C 18.8 66 20.1 66.9 22 66.9 C 24.2 66.9 25.6 64.9 25.6 62.6 C 25.6 59.7 24.3 58.2 22.2 58.2 C 20.8 58.2 19.7 58.7 18.6 60 C 18.57 60.03 16.8 59.4 16.8 59.4 L 16.8 48.7 L 27 48.7 L 27 50.8 L 19.2 50.8 C 19.2 50.8 19.17 57.81 19.2 57.8 C 19.9 56.8 21.3 56.1 22.9 56.1 C 25.7 56.1 28 58.3 28 62.5 C 28 66.3 25.6 69.1 22.1 69.1 C 19.2 69.1 17.5 67.8 16.2 65.8 Z M 37.7 72.7 C 37.7 72.7 38.7 71.1 38.7 71.1 C 39.7 72.2 40.9 72.7 42.5 72.7 C 44.5 72.7 46.1 71.6 46.1 68.8 C 46.1 68.8 46.1 66.4 46.1 66.4 C 45.3 67.9 43.8 68.9 42.3 68.9 C 39.1 68.9 37.1 65.9 37.1 61.4 C 37.1 56.9 39 53.8 42.3 53.8 C 43.8 53.8 45.2 54.7 46.1 56.3 C 46.11 56.31 46.1 54.2 46.1 54.2 L 48.3 54.2 C 48.3 54.2 48.27 68.67 48.3 68.7 C 48.3 73.1 45.6 74.6 42.5 74.6 C 40.6 74.6 39.1 74.1 37.7 72.7 Z M 46.1 64.6 C 46.1 64.6 46.1 58.1 46.1 58.1 C 45.6 56.9 44.2 55.8 42.8 55.8 C 40.5 55.8 39.4 58.3 39.4 61.4 C 39.4 64.5 40.5 67 42.8 67 C 44.2 67 45.6 65.8 46.1 64.6 Z " stroke="none" fill="#d0d1d4"/>  </g>  <g id="Polygon152567">    <path d="M 0.9 29.7 C 0.9 29.7 2.4 28.3 2.4 28.3 C 3.4 29.8 4.8 30.9 6.7 30.9 C 9.1 30.9 10.3 29.4 10.3 27.1 C 10.3 24.4 8.6 23.5 6.5 23.5 C 5.9 23.5 5.2 23.5 4.9 23.5 C 4.9 23.5 4.9 21.4 4.9 21.4 C 5.2 21.4 6 21.4 6.5 21.4 C 8.5 21.4 10.1 20.3 10.1 18 C 10.1 15.7 8.7 14.5 6.7 14.5 C 4.9 14.5 3.6 15.4 2.6 16.9 C 2.6 16.9 1.1 15.5 1.1 15.5 C 2.3 13.6 4.3 12.4 6.8 12.4 C 10.1 12.4 12.5 14.2 12.5 17.7 C 12.5 20.2 10.7 21.9 8.9 22.3 C 10.7 22.6 12.8 24.4 12.8 27.3 C 12.8 30.6 10.6 33.1 6.8 33.1 C 4 33.1 1.9 31.6 0.9 29.7 Z M 16.4 26.4 L 16.4 24.5 L 30.4 24.5 L 30.4 26.4 L 16.4 26.4 Z M 41.2 32.7 L 41.2 27.6 L 33.3 27.6 L 33.3 25.5 L 40.5 12.7 L 43.6 12.7 L 43.6 25.5 L 45.7 25.5 L 45.7 27.6 L 43.6 27.6 L 43.6 32.7 L 41.2 32.7 Z M 41.2 15.3 L 35.5 25.5 L 41.2 25.5 L 41.2 15.3 Z M 57 30.6 C 57 30.6 57 38.2 57 38.2 L 54.9 38.2 L 54.9 18.2 L 57 18.2 C 57 18.2 57 20.28 57 20.3 C 57.8 18.8 59.3 17.8 60.8 17.8 C 64.1 17.8 66 20.9 66 25.4 C 66 30 64.1 33.1 60.8 33.1 C 59.3 33.1 57.9 32.2 57 30.6 Z M 63.7 25.4 C 63.7 22.3 62.6 19.8 60.3 19.8 C 58.9 19.8 57.6 20.8 57 22.1 C 57 22.1 57 28.7 57 28.7 C 57.6 30 58.9 31.1 60.3 31.1 C 62.6 31.1 63.7 28.6 63.7 25.4 Z M 68.5 25.4 C 68.5 21.1 70.8 17.8 74.5 17.8 C 76.5 17.8 77.7 18.7 78.6 19.8 C 78.6 19.8 77.5 21.2 77.5 21.2 C 76.7 20.2 75.8 19.8 74.7 19.8 C 72.1 19.8 70.7 22.3 70.7 25.4 C 70.7 28.5 72.1 31.1 74.7 31.1 C 75.8 31.1 76.7 30.7 77.5 29.7 C 77.5 29.7 78.6 31.1 78.6 31.1 C 77.7 32.3 76.5 33.1 74.5 33.1 C 70.8 33.1 68.5 29.7 68.5 25.4 Z M 80.2 31 C 80.2 31 81.3 29.5 81.3 29.5 C 82.1 30.5 83.5 31.3 85.1 31.3 C 86.8 31.3 87.9 30.4 87.9 29 C 87.9 25.6 80.6 26.8 80.6 21.7 C 80.6 19.6 82.4 17.8 85.3 17.8 C 87.2 17.8 88.6 18.6 89.7 19.7 C 89.7 19.7 88.6 21.2 88.6 21.2 C 87.9 20.2 86.7 19.6 85.3 19.6 C 83.7 19.6 82.7 20.5 82.7 21.7 C 82.7 24.8 89.9 23.7 89.9 28.9 C 89.9 31.3 88.1 33.1 85.1 33.1 C 83.1 33.1 81.4 32.4 80.2 31 Z " stroke="none" fill="#d0d1d4"/>  </g></svg>