<?xml version="1.0" standalone="no"?><!DOCTYPE svg PUBLIC "-//W3C//DTD SVG 1.1//EN" "http://www.w3.org/Graphics/SVG/1.1/DTD/svg11.dtd"><svg xmlns="http://www.w3.org/2000/svg" version="1.1" width="274px" height="443px" viewBox="0 0 274 443">  <desc>Stuffed toy Masking tape Corrugated cardboard Cotton buds Clear glue Extruded polystyrene Tissue paper Non-toxic acry</desc>  <defs/>  <g id="Polygon155409">    <path d="M 4.3 425.4 C 2.9 425.4 1.8 424.3 1.8 422.9 C 1.8 421.5 2.9 420.3 4.3 420.3 C 5.7 420.3 6.9 421.5 6.9 422.9 C 6.9 424.3 5.7 425.4 4.3 425.4 Z M 15 428.7 L 15 412.7 C 15 412.7 20.26 412.69 20.3 412.7 C 22.8 412.7 24.2 414.3 24.2 416.8 C 24.2 418.8 23.2 420.1 21.8 420.4 C 23.3 420.7 24.5 422.5 24.5 424.4 C 24.5 427 23.1 428.7 20.4 428.7 C 20.4 428.7 15 428.7 15 428.7 Z M 22.2 417 C 22.2 415.5 21.5 414.4 19.9 414.4 C 19.9 414.37 16.9 414.4 16.9 414.4 L 16.9 419.7 C 16.9 419.7 19.9 419.68 19.9 419.7 C 21.5 419.7 22.2 418.5 22.2 417 Z M 22.5 424.2 C 22.5 422.7 21.7 421.4 20 421.4 C 20.02 421.36 16.9 421.4 16.9 421.4 L 16.9 427 C 16.9 427 20.02 427 20 427 C 21.7 427 22.5 425.9 22.5 424.2 Z M 33.3 428.7 C 33.3 428.7 33.26 427.09 33.3 427.1 C 32.6 428.1 31.3 429 29.9 429 C 27.9 429 27 428 27 425.9 C 27 425.89 27 417.1 27 417.1 L 28.7 417.1 C 28.7 417.1 28.7 425.39 28.7 425.4 C 28.7 426.9 29.4 427.5 30.6 427.5 C 31.7 427.5 32.8 426.6 33.3 425.7 C 33.26 425.65 33.3 417.1 33.3 417.1 L 35 417.1 L 35 428.7 L 33.3 428.7 Z M 37.9 428.7 L 37.9 417.1 L 39.6 417.1 C 39.6 417.1 39.62 418.96 39.6 419 C 40.4 417.7 41.5 416.9 42.9 416.9 C 42.9 416.9 42.9 418.6 42.9 418.6 C 42.7 418.6 42.5 418.6 42.3 418.6 C 41.3 418.6 40.1 419.5 39.6 420.5 C 39.62 420.47 39.6 428.7 39.6 428.7 L 37.9 428.7 Z M 50.9 428.7 C 50.9 428.7 50.93 420.44 50.9 420.4 C 50.9 418.9 50.2 418.4 49.1 418.4 C 48 418.4 46.9 419.2 46.4 420.2 C 46.37 420.2 46.4 428.7 46.4 428.7 L 44.7 428.7 L 44.7 417.1 L 46.4 417.1 C 46.4 417.1 46.37 418.76 46.4 418.8 C 47 417.8 48.3 416.8 49.7 416.8 C 51.7 416.8 52.7 417.9 52.7 420 C 52.65 419.96 52.7 428.7 52.7 428.7 L 50.9 428.7 Z M 55.9 426.4 C 55.92 426.37 55.9 418.6 55.9 418.6 L 54.4 418.6 L 54.4 417.1 L 55.9 417.1 L 55.9 413.9 L 57.6 413.9 L 57.6 417.1 L 59.6 417.1 L 59.6 418.6 L 57.6 418.6 C 57.6 418.6 57.65 426.06 57.6 426.1 C 57.6 426.9 57.9 427.5 58.6 427.5 C 59 427.5 59.4 427.3 59.6 427 C 59.6 427 60.1 428.3 60.1 428.3 C 59.7 428.7 59.1 429 58.2 429 C 56.7 429 55.9 428.1 55.9 426.4 Z M 66.7 423.5 C 66.67 423.52 66.7 412.7 66.7 412.7 L 68.6 412.7 C 68.6 412.7 68.59 423.54 68.6 423.5 C 68.6 426 69.8 427.3 71.8 427.3 C 73.9 427.3 75 426 75 423.5 C 75.05 423.54 75 412.7 75 412.7 L 76.9 412.7 C 76.9 412.7 76.94 423.52 76.9 423.5 C 76.9 427 75 429 71.8 429 C 68.6 429 66.7 427 66.7 423.5 Z M 91.7 428.7 C 91.7 428.7 91.7 420.3 91.7 420.3 C 91.7 419.1 91.2 418.4 90.1 418.4 C 89.1 418.4 88 419.3 87.6 420.2 C 87.57 420.2 87.6 428.7 87.6 428.7 L 85.8 428.7 C 85.8 428.7 85.85 420.3 85.8 420.3 C 85.8 419.1 85.3 418.4 84.2 418.4 C 83.2 418.4 82.2 419.3 81.7 420.2 C 81.69 420.2 81.7 428.7 81.7 428.7 L 80 428.7 L 80 417.1 L 81.7 417.1 C 81.7 417.1 81.69 418.76 81.7 418.8 C 82.2 417.9 83.5 416.8 84.9 416.8 C 86.4 416.8 87.3 417.7 87.5 418.9 C 88.1 417.8 89.4 416.8 90.7 416.8 C 92.4 416.8 93.4 417.8 93.4 419.8 C 93.43 419.84 93.4 428.7 93.4 428.7 L 91.7 428.7 Z M 100.7 427.5 C 102.6 427.5 103.5 425.4 103.5 422.9 C 103.5 420.4 102.6 418.4 100.7 418.4 C 99.6 418.4 98.5 419.3 98.1 420.3 C 98.1 420.3 98.1 425.6 98.1 425.6 C 98.5 426.6 99.6 427.5 100.7 427.5 Z M 96.4 428.7 L 96.4 412.7 L 98.1 412.7 C 98.1 412.7 98.06 418.79 98.1 418.8 C 98.8 417.5 99.9 416.8 101.1 416.8 C 103.7 416.8 105.3 419.3 105.3 422.9 C 105.3 426.6 103.7 429 101.1 429 C 99.9 429 98.7 428.2 98.1 427 C 98.06 427.04 98.1 428.7 98.1 428.7 L 96.4 428.7 Z M 107.1 422.9 C 107.1 419.5 108.8 416.8 111.8 416.8 C 114.8 416.8 116.3 419.6 116.3 422.9 C 116.35 422.94 116.3 423.5 116.3 423.5 C 116.3 423.5 108.84 423.47 108.8 423.5 C 108.9 425.8 110.1 427.5 112.2 427.5 C 113.2 427.5 114.2 427 114.9 426.1 C 114.9 426.1 115.8 427.1 115.8 427.1 C 114.9 428.3 113.6 429 112 429 C 108.9 429 107.1 426.4 107.1 422.9 Z M 111.7 418.3 C 109.7 418.3 108.9 420.5 108.8 422.2 C 108.8 422.2 114.6 422.2 114.6 422.2 C 114.6 420.4 113.9 418.3 111.7 418.3 Z M 118.6 428.7 L 118.6 417.1 L 120.3 417.1 C 120.3 417.1 120.33 418.96 120.3 419 C 121.1 417.7 122.2 416.9 123.6 416.9 C 123.6 416.9 123.6 418.6 123.6 418.6 C 123.4 418.6 123.2 418.6 123 418.6 C 122 418.6 120.8 419.5 120.3 420.5 C 120.33 420.47 120.3 428.7 120.3 428.7 L 118.6 428.7 Z " stroke="none" fill="#7c7979"/>  </g>  <g id="Polygon155408">    <path d="M 4.3 389.4 C 2.9 389.4 1.8 388.3 1.8 386.9 C 1.8 385.5 2.9 384.3 4.3 384.3 C 5.7 384.3 6.9 385.5 6.9 386.9 C 6.9 388.3 5.7 389.4 4.3 389.4 Z M 15 392.7 L 15 376.7 L 16.9 376.7 L 16.9 391 L 22.7 391 L 22.7 392.7 L 15 392.7 Z M 23.7 386.9 C 23.7 383.5 25.5 380.8 28.4 380.8 C 31.5 380.8 33 383.6 33 386.9 C 33 386.94 33 387.5 33 387.5 C 33 387.5 25.49 387.47 25.5 387.5 C 25.6 389.8 26.8 391.5 28.8 391.5 C 29.8 391.5 30.9 391 31.6 390.1 C 31.6 390.1 32.5 391.1 32.5 391.1 C 31.6 392.3 30.2 393 28.7 393 C 25.6 393 23.7 390.4 23.7 386.9 Z M 28.4 382.3 C 26.4 382.3 25.5 384.5 25.5 386.2 C 25.5 386.2 31.3 386.2 31.3 386.2 C 31.3 384.4 30.5 382.3 28.4 382.3 Z M 41.2 392.7 C 41.2 392.7 41.23 391.45 41.2 391.5 C 40.5 392.5 39.4 393 38.2 393 C 36.3 393 34.7 391.5 34.7 389.1 C 34.7 386.7 36.3 385.3 38.2 385.3 C 39.4 385.3 40.5 385.8 41.2 386.8 C 41.2 386.8 41.2 384.8 41.2 384.8 C 41.2 383.2 40.4 382.3 38.9 382.3 C 37.8 382.3 36.8 382.7 36 383.7 C 36 383.7 35.2 382.5 35.2 382.5 C 36.3 381.3 37.7 380.8 39.1 380.8 C 41.4 380.8 43 381.9 43 384.6 C 42.96 384.59 43 392.7 43 392.7 L 41.2 392.7 Z M 41.2 390.3 C 41.2 390.3 41.2 388.1 41.2 388.1 C 40.7 387.1 39.7 386.6 38.7 386.6 C 37.3 386.6 36.4 387.7 36.4 389.1 C 36.4 390.6 37.3 391.7 38.7 391.7 C 39.7 391.7 40.7 391.2 41.2 390.3 Z M 46.3 392.7 L 46.3 382.6 L 44.7 382.6 L 44.7 381.1 L 46.3 381.1 C 46.3 381.1 46.27 379.69 46.3 379.7 C 46.3 377.7 47.4 376.5 49.2 376.5 C 49.9 376.5 50.7 376.7 51.2 377.2 C 51.2 377.2 50.6 378.4 50.6 378.4 C 50.3 378.1 49.9 377.9 49.4 377.9 C 48.5 377.9 48 378.6 48 379.7 C 48 379.69 48 381.1 48 381.1 L 50 381.1 L 50 382.6 L 48 382.6 L 48 392.7 L 46.3 392.7 Z M 56.2 384.7 C 56.2 379.8 58.7 376.4 62.4 376.4 C 64.8 376.4 66.2 377.7 67.2 379.5 C 67.2 379.5 65.6 380.2 65.6 380.2 C 64.9 379 63.9 378.1 62.4 378.1 C 59.8 378.1 58.2 380.8 58.2 384.7 C 58.2 388.6 59.8 391.3 62.4 391.3 C 63.7 391.3 64.8 390.6 65.4 389.9 C 65.4 389.94 65.4 386.2 65.4 386.2 L 61.6 386.2 L 61.6 384.5 L 67.2 384.5 C 67.2 384.5 67.22 390.66 67.2 390.7 C 66 392.1 64.4 393 62.4 393 C 58.7 393 56.2 389.7 56.2 384.7 Z M 69.9 392.7 L 69.9 381.1 L 71.6 381.1 C 71.6 381.1 71.59 382.96 71.6 383 C 72.3 381.7 73.5 380.9 74.9 380.9 C 74.9 380.9 74.9 382.6 74.9 382.6 C 74.7 382.6 74.5 382.6 74.3 382.6 C 73.2 382.6 72.1 383.5 71.6 384.5 C 71.59 384.47 71.6 392.7 71.6 392.7 L 69.9 392.7 Z M 76.1 386.9 C 76.1 383.5 77.8 380.8 80.8 380.8 C 83.8 380.8 85.3 383.6 85.3 386.9 C 85.34 386.94 85.3 387.5 85.3 387.5 C 85.3 387.5 77.83 387.47 77.8 387.5 C 77.9 389.8 79.1 391.5 81.2 391.5 C 82.2 391.5 83.2 391 83.9 390.1 C 83.9 390.1 84.8 391.1 84.8 391.1 C 83.9 392.3 82.6 393 81 393 C 77.9 393 76.1 390.4 76.1 386.9 Z M 80.7 382.3 C 78.7 382.3 77.9 384.5 77.8 386.2 C 77.8 386.2 83.6 386.2 83.6 386.2 C 83.6 384.4 82.8 382.3 80.7 382.3 Z M 87 386.9 C 87 383.5 88.8 380.8 91.8 380.8 C 94.8 380.8 96.3 383.6 96.3 386.9 C 96.33 386.94 96.3 387.5 96.3 387.5 C 96.3 387.5 88.82 387.47 88.8 387.5 C 88.9 389.8 90.1 391.5 92.2 391.5 C 93.2 391.5 94.2 391 94.9 390.1 C 94.9 390.1 95.8 391.1 95.8 391.1 C 94.9 392.3 93.6 393 92 393 C 88.9 393 87 390.4 87 386.9 Z M 91.7 382.3 C 89.7 382.3 88.9 384.5 88.8 386.2 C 88.8 386.2 94.6 386.2 94.6 386.2 C 94.6 384.4 93.8 382.3 91.7 382.3 Z M 104.9 392.7 C 104.9 392.7 104.88 384.44 104.9 384.4 C 104.9 382.9 104.2 382.4 103 382.4 C 101.9 382.4 100.8 383.2 100.3 384.2 C 100.32 384.2 100.3 392.7 100.3 392.7 L 98.6 392.7 L 98.6 381.1 L 100.3 381.1 C 100.3 381.1 100.32 382.76 100.3 382.8 C 101 381.8 102.3 380.8 103.7 380.8 C 105.6 380.8 106.6 381.9 106.6 384 C 106.61 383.96 106.6 392.7 106.6 392.7 L 104.9 392.7 Z " stroke="none" fill="#7c7979"/>  </g>  <g id="Polygon155407">    <path d="M 4.3 353.4 C 2.9 353.4 1.8 352.3 1.8 350.9 C 1.8 349.5 2.9 348.3 4.3 348.3 C 5.7 348.3 6.9 349.5 6.9 350.9 C 6.9 352.3 5.7 353.4 4.3 353.4 Z M 18.3 356.7 L 13.5 340.7 L 15.5 340.7 L 19.4 354.4 L 23.3 340.7 L 25.3 340.7 L 20.5 356.7 L 18.3 356.7 Z M 25.4 350.9 C 25.4 347.5 27.1 344.8 30.1 344.8 C 33.1 344.8 34.7 347.6 34.7 350.9 C 34.66 350.94 34.7 351.5 34.7 351.5 C 34.7 351.5 27.14 351.47 27.1 351.5 C 27.2 353.8 28.4 355.5 30.5 355.5 C 31.5 355.5 32.5 355 33.2 354.1 C 33.2 354.1 34.2 355.1 34.2 355.1 C 33.2 356.3 31.9 357 30.3 357 C 27.2 357 25.4 354.4 25.4 350.9 Z M 30 346.3 C 28 346.3 27.2 348.5 27.1 350.2 C 27.1 350.2 33 350.2 33 350.2 C 32.9 348.4 32.2 346.3 30 346.3 Z M 36.9 356.7 L 36.9 345.1 L 38.6 345.1 C 38.6 345.1 38.64 346.96 38.6 347 C 39.4 345.7 40.5 344.9 41.9 344.9 C 41.9 344.9 41.9 346.6 41.9 346.6 C 41.7 346.6 41.5 346.6 41.4 346.6 C 40.3 346.6 39.1 347.5 38.6 348.5 C 38.64 348.47 38.6 356.7 38.6 356.7 L 36.9 356.7 Z M 55.4 356.7 C 55.4 356.7 55.39 348.3 55.4 348.3 C 55.4 347.1 54.9 346.4 53.8 346.4 C 52.8 346.4 51.7 347.3 51.3 348.2 C 51.26 348.2 51.3 356.7 51.3 356.7 L 49.5 356.7 C 49.5 356.7 49.53 348.3 49.5 348.3 C 49.5 347.1 49 346.4 47.9 346.4 C 46.9 346.4 45.9 347.3 45.4 348.2 C 45.38 348.2 45.4 356.7 45.4 356.7 L 43.7 356.7 L 43.7 345.1 L 45.4 345.1 C 45.4 345.1 45.38 346.76 45.4 346.8 C 45.9 345.9 47.2 344.8 48.6 344.8 C 50 344.8 51 345.7 51.2 346.9 C 51.7 345.8 53 344.8 54.4 344.8 C 56.1 344.8 57.1 345.8 57.1 347.8 C 57.12 347.84 57.1 356.7 57.1 356.7 L 55.4 356.7 Z M 59.7 342.3 C 59.7 341.6 60.3 341.1 60.9 341.1 C 61.5 341.1 62.1 341.6 62.1 342.3 C 62.1 342.9 61.5 343.4 60.9 343.4 C 60.3 343.4 59.7 342.9 59.7 342.3 Z M 60 356.7 L 60 345.1 L 61.8 345.1 L 61.8 356.7 L 60 356.7 Z M 64.7 356.7 L 64.7 340.7 L 66.4 340.7 L 66.4 356.7 L 64.7 356.7 Z M 69.3 356.7 L 69.3 340.7 L 71 340.7 L 71 356.7 L 69.3 356.7 Z M 73.6 342.3 C 73.6 341.6 74.2 341.1 74.8 341.1 C 75.4 341.1 76 341.6 76 342.3 C 76 342.9 75.4 343.4 74.8 343.4 C 74.2 343.4 73.6 342.9 73.6 342.3 Z M 73.9 356.7 L 73.9 345.1 L 75.6 345.1 L 75.6 356.7 L 73.9 356.7 Z M 78 350.9 C 78 347.6 79.6 344.8 82.7 344.8 C 85.8 344.8 87.4 347.6 87.4 350.9 C 87.4 354.2 85.8 357 82.7 357 C 79.6 357 78 354.2 78 350.9 Z M 85.6 350.9 C 85.6 348.6 84.7 346.4 82.7 346.4 C 80.7 346.4 79.8 348.6 79.8 350.9 C 79.8 353.2 80.7 355.5 82.7 355.5 C 84.7 355.5 85.6 353.2 85.6 350.9 Z M 96 356.7 C 96 356.7 96.05 348.44 96 348.4 C 96 346.9 95.3 346.4 94.2 346.4 C 93.1 346.4 92 347.2 91.5 348.2 C 91.49 348.2 91.5 356.7 91.5 356.7 L 89.8 356.7 L 89.8 345.1 L 91.5 345.1 C 91.5 345.1 91.49 346.76 91.5 346.8 C 92.2 345.8 93.5 344.8 94.8 344.8 C 96.8 344.8 97.8 345.9 97.8 348 C 97.77 347.96 97.8 356.7 97.8 356.7 L 96 356.7 Z " stroke="none" fill="#7c7979"/>  </g>  <g id="Polygon155406">    <path d="M 4.3 317.4 C 2.9 317.4 1.8 316.3 1.8 314.9 C 1.8 313.5 2.9 312.3 4.3 312.3 C 5.7 312.3 6.9 313.5 6.9 314.9 C 6.9 316.3 5.7 317.4 4.3 317.4 Z M 14.4 312.7 C 14.4 307.9 16.8 304.4 20.6 304.4 C 23 304.4 24.4 305.9 25.3 307.5 C 25.3 307.5 23.7 308.3 23.7 308.3 C 23.1 307 22 306.1 20.6 306.1 C 18 306.1 16.4 308.9 16.4 312.7 C 16.4 316.5 18 319.3 20.6 319.3 C 22.1 319.3 23.1 318.3 23.7 316.9 C 23.7 316.9 25.3 317.7 25.3 317.7 C 24.5 319.4 23.1 321 20.6 321 C 16.8 321 14.4 317.5 14.4 312.7 Z M 33.4 320.7 C 33.4 320.7 33.36 319.45 33.4 319.5 C 32.6 320.5 31.5 321 30.3 321 C 28.4 321 26.8 319.5 26.8 317.1 C 26.8 314.7 28.4 313.3 30.3 313.3 C 31.5 313.3 32.6 313.8 33.4 314.8 C 33.4 314.8 33.4 312.8 33.4 312.8 C 33.4 311.2 32.5 310.3 31 310.3 C 29.9 310.3 29 310.7 28.1 311.7 C 28.1 311.7 27.3 310.5 27.3 310.5 C 28.4 309.3 29.8 308.8 31.2 308.8 C 33.6 308.8 35.1 309.9 35.1 312.6 C 35.09 312.59 35.1 320.7 35.1 320.7 L 33.4 320.7 Z M 33.4 318.3 C 33.4 318.3 33.4 316.1 33.4 316.1 C 32.8 315.1 31.9 314.6 30.9 314.6 C 29.4 314.6 28.6 315.7 28.6 317.1 C 28.6 318.6 29.4 319.7 30.9 319.7 C 31.9 319.7 32.8 319.2 33.4 318.3 Z M 44.6 320.7 C 44.6 320.7 44.62 319.04 44.6 319 C 43.9 320.2 42.8 321 41.6 321 C 39 321 37.4 318.6 37.4 314.9 C 37.4 311.3 39 308.8 41.6 308.8 C 42.7 308.8 43.9 309.5 44.6 310.8 C 44.62 310.79 44.6 304.7 44.6 304.7 L 46.3 304.7 L 46.3 320.7 L 44.6 320.7 Z M 44.6 317.6 C 44.6 317.6 44.6 312.3 44.6 312.3 C 44.2 311.2 43.1 310.4 42 310.4 C 40.1 310.4 39.2 312.4 39.2 314.9 C 39.2 317.4 40.1 319.5 42 319.5 C 43.1 319.5 44.2 318.6 44.6 317.6 Z M 61 320.7 C 61 320.7 60.98 312.3 61 312.3 C 61 311.1 60.5 310.4 59.4 310.4 C 58.3 310.4 57.3 311.3 56.9 312.2 C 56.85 312.2 56.9 320.7 56.9 320.7 L 55.1 320.7 C 55.1 320.7 55.13 312.3 55.1 312.3 C 55.1 311.1 54.6 310.4 53.5 310.4 C 52.5 310.4 51.5 311.3 51 312.2 C 50.97 312.2 51 320.7 51 320.7 L 49.3 320.7 L 49.3 309.1 L 51 309.1 C 51 309.1 50.97 310.76 51 310.8 C 51.5 309.9 52.8 308.8 54.1 308.8 C 55.6 308.8 56.5 309.7 56.8 310.9 C 57.3 309.8 58.6 308.8 60 308.8 C 61.7 308.8 62.7 309.8 62.7 311.8 C 62.71 311.84 62.7 320.7 62.7 320.7 L 61 320.7 Z M 65.3 306.3 C 65.3 305.6 65.9 305.1 66.5 305.1 C 67.1 305.1 67.7 305.6 67.7 306.3 C 67.7 306.9 67.1 307.4 66.5 307.4 C 65.9 307.4 65.3 306.9 65.3 306.3 Z M 65.6 320.7 L 65.6 309.1 L 67.3 309.1 L 67.3 320.7 L 65.6 320.7 Z M 76.5 320.7 C 76.5 320.7 76.53 319.09 76.5 319.1 C 75.8 320.1 74.6 321 73.2 321 C 71.2 321 70.3 320 70.3 317.9 C 70.27 317.89 70.3 309.1 70.3 309.1 L 72 309.1 C 72 309.1 71.97 317.39 72 317.4 C 72 318.9 72.7 319.5 73.8 319.5 C 75 319.5 76 318.6 76.5 317.7 C 76.53 317.65 76.5 309.1 76.5 309.1 L 78.3 309.1 L 78.3 320.7 L 76.5 320.7 Z M 92.9 320.7 C 92.9 320.7 92.9 312.3 92.9 312.3 C 92.9 311.1 92.4 310.4 91.3 310.4 C 90.3 310.4 89.2 311.3 88.8 312.2 C 88.77 312.2 88.8 320.7 88.8 320.7 L 87 320.7 C 87 320.7 87.05 312.3 87 312.3 C 87 311.1 86.5 310.4 85.4 310.4 C 84.4 310.4 83.4 311.3 82.9 312.2 C 82.89 312.2 82.9 320.7 82.9 320.7 L 81.2 320.7 L 81.2 309.1 L 82.9 309.1 C 82.9 309.1 82.89 310.76 82.9 310.8 C 83.4 309.9 84.7 308.8 86.1 308.8 C 87.6 308.8 88.5 309.7 88.7 310.9 C 89.3 309.8 90.6 308.8 91.9 308.8 C 93.6 308.8 94.6 309.8 94.6 311.8 C 94.63 311.84 94.6 320.7 94.6 320.7 L 92.9 320.7 Z M 105.9 320.7 L 105.9 313.9 L 101 304.7 L 103.1 304.7 L 106.9 312.1 L 110.7 304.7 L 112.8 304.7 L 107.8 313.9 L 107.8 320.7 L 105.9 320.7 Z M 111.4 314.9 C 111.4 311.5 113.2 308.8 116.1 308.8 C 119.2 308.8 120.7 311.6 120.7 314.9 C 120.72 314.94 120.7 315.5 120.7 315.5 C 120.7 315.5 113.21 315.47 113.2 315.5 C 113.3 317.8 114.5 319.5 116.5 319.5 C 117.5 319.5 118.6 319 119.3 318.1 C 119.3 318.1 120.2 319.1 120.2 319.1 C 119.3 320.3 118 321 116.4 321 C 113.3 321 111.4 318.4 111.4 314.9 Z M 116.1 310.3 C 114.1 310.3 113.3 312.5 113.2 314.2 C 113.2 314.2 119 314.2 119 314.2 C 119 312.4 118.2 310.3 116.1 310.3 Z M 123 320.7 L 123 304.7 L 124.7 304.7 L 124.7 320.7 L 123 320.7 Z M 127.6 320.7 L 127.6 304.7 L 129.3 304.7 L 129.3 320.7 L 127.6 320.7 Z M 131.7 314.9 C 131.7 311.6 133.3 308.8 136.4 308.8 C 139.5 308.8 141.1 311.6 141.1 314.9 C 141.1 318.2 139.5 321 136.4 321 C 133.3 321 131.7 318.2 131.7 314.9 Z M 139.3 314.9 C 139.3 312.6 138.4 310.4 136.4 310.4 C 134.4 310.4 133.5 312.6 133.5 314.9 C 133.5 317.2 134.4 319.5 136.4 319.5 C 138.4 319.5 139.3 317.2 139.3 314.9 Z M 152 320.7 L 149.5 311.4 L 147 320.7 L 145.3 320.7 L 142.2 309.1 L 144 309.1 L 146.3 318.4 L 148.7 309.1 L 150.3 309.1 L 152.8 318.4 L 155.1 309.1 L 156.9 309.1 L 153.8 320.7 L 152 320.7 Z " stroke="none" fill="#7c7979"/>  </g>  <g id="Polygon155405">    <path d="M 12.8 284.7 L 4.5 269.8 L 4.5 284.7 L 2.1 284.7 L 2.1 264.7 L 4.5 264.7 L 12.7 279.3 L 12.7 264.7 L 15.1 264.7 L 15.1 284.7 L 12.8 284.7 Z M 18.1 277.4 C 18.1 273.4 20.2 269.9 24 269.9 C 27.9 269.9 29.9 273.4 29.9 277.4 C 29.9 281.5 27.9 285.1 24 285.1 C 20.2 285.1 18.1 281.5 18.1 277.4 Z M 27.7 277.4 C 27.7 274.5 26.5 271.8 24 271.8 C 21.5 271.8 20.4 274.5 20.4 277.4 C 20.4 280.4 21.5 283.1 24 283.1 C 26.5 283.1 27.7 280.4 27.7 277.4 Z M 40.7 284.7 C 40.7 284.7 40.68 274.38 40.7 274.4 C 40.7 272.5 39.8 271.8 38.4 271.8 C 37 271.8 35.6 272.9 35 274.1 C 34.98 274.08 35 284.7 35 284.7 L 32.8 284.7 L 32.8 270.2 L 35 270.2 C 35 270.2 34.98 272.28 35 272.3 C 35.8 271 37.4 269.9 39.2 269.9 C 41.6 269.9 42.8 271.2 42.8 273.8 C 42.84 273.78 42.8 284.7 42.8 284.7 L 40.7 284.7 Z M 45.4 278.4 L 45.4 276.5 L 51.6 276.5 L 51.6 278.4 L 45.4 278.4 Z M 54.6 281.8 C 54.63 281.79 54.6 272.1 54.6 272.1 L 52.7 272.1 L 52.7 270.2 L 54.6 270.2 L 54.6 266.3 L 56.8 266.3 L 56.8 270.2 L 59.2 270.2 L 59.2 272.1 L 56.8 272.1 C 56.8 272.1 56.79 281.4 56.8 281.4 C 56.8 282.5 57.1 283.1 58 283.1 C 58.5 283.1 58.9 282.9 59.2 282.6 C 59.2 282.6 59.9 284.2 59.9 284.2 C 59.4 284.7 58.6 285.1 57.5 285.1 C 55.6 285.1 54.6 284 54.6 281.8 Z M 61.1 277.4 C 61.1 273.4 63.1 269.9 67 269.9 C 70.9 269.9 72.9 273.4 72.9 277.4 C 72.9 281.5 70.9 285.1 67 285.1 C 63.1 285.1 61.1 281.5 61.1 277.4 Z M 70.6 277.4 C 70.6 274.5 69.5 271.8 67 271.8 C 64.5 271.8 63.3 274.5 63.3 277.4 C 63.3 280.4 64.5 283.1 67 283.1 C 69.5 283.1 70.6 280.4 70.6 277.4 Z M 82.5 284.7 L 79.2 278.9 L 75.8 284.7 L 73.4 284.7 L 77.8 277.3 L 73.7 270.2 L 76.1 270.2 L 79.2 275.7 L 82.3 270.2 L 84.7 270.2 L 80.5 277.3 L 84.9 284.7 L 82.5 284.7 Z M 86.5 266.6 C 86.5 265.8 87.2 265.2 88 265.2 C 88.8 265.2 89.5 265.8 89.5 266.6 C 89.5 267.5 88.8 268.1 88 268.1 C 87.2 268.1 86.5 267.5 86.5 266.6 Z M 86.9 284.7 L 86.9 270.2 L 89.1 270.2 L 89.1 284.7 L 86.9 284.7 Z M 92 277.4 C 92 273.2 94.3 269.9 98 269.9 C 100 269.9 101.2 270.7 102.1 271.8 C 102.1 271.8 101 273.2 101 273.2 C 100.2 272.2 99.3 271.8 98.2 271.8 C 95.6 271.8 94.3 274.4 94.3 277.4 C 94.3 280.5 95.6 283.1 98.2 283.1 C 99.3 283.1 100.2 282.7 101 281.7 C 101 281.7 102.1 283.1 102.1 283.1 C 101.2 284.3 100 285.1 98 285.1 C 94.3 285.1 92 281.7 92 277.4 Z M 118.2 284.7 C 118.2 284.7 118.2 283.14 118.2 283.1 C 117.3 284.5 115.9 285.1 114.4 285.1 C 112 285.1 110 283.3 110 280.2 C 110 277.2 112 275.5 114.4 275.5 C 115.9 275.5 117.3 276 118.2 277.3 C 118.2 277.3 118.2 274.8 118.2 274.8 C 118.2 272.8 117.1 271.7 115.2 271.7 C 113.9 271.7 112.7 272.2 111.6 273.5 C 111.6 273.5 110.6 272 110.6 272 C 112 270.5 113.7 269.9 115.6 269.9 C 118.4 269.9 120.4 271.3 120.4 274.6 C 120.36 274.56 120.4 284.7 120.4 284.7 L 118.2 284.7 Z M 118.2 281.7 C 118.2 281.7 118.2 278.9 118.2 278.9 C 117.5 277.7 116.3 277.1 115.1 277.1 C 113.3 277.1 112.2 278.5 112.2 280.3 C 112.2 282.1 113.3 283.5 115.1 283.5 C 116.3 283.5 117.5 282.9 118.2 281.7 Z M 123.3 277.4 C 123.3 273.2 125.5 269.9 129.3 269.9 C 131.3 269.9 132.5 270.7 133.4 271.8 C 133.4 271.8 132.2 273.2 132.2 273.2 C 131.5 272.2 130.6 271.8 129.4 271.8 C 126.9 271.8 125.5 274.4 125.5 277.4 C 125.5 280.5 126.9 283.1 129.4 283.1 C 130.6 283.1 131.5 282.7 132.2 281.7 C 132.2 281.7 133.4 283.1 133.4 283.1 C 132.5 284.3 131.3 285.1 129.3 285.1 C 125.5 285.1 123.3 281.7 123.3 277.4 Z M 135.9 284.7 L 135.9 270.2 L 138 270.2 C 138 270.2 138 272.52 138 272.5 C 138.9 271 140.3 269.9 142.1 269.9 C 142.1 269.9 142.1 272.1 142.1 272.1 C 141.9 272.1 141.6 272 141.4 272 C 140.1 272 138.6 273.2 138 274.4 C 138 274.41 138 284.7 138 284.7 L 135.9 284.7 Z M 143.9 288.5 C 144.1 288.6 144.6 288.7 144.8 288.7 C 145.7 288.7 146.2 288.3 146.5 287.2 C 146.55 287.22 147.3 285 147.3 285 L 142.5 270.2 L 144.8 270.2 L 148.4 282.1 L 152.1 270.2 L 154.4 270.2 C 154.4 270.2 148.59 287.76 148.6 287.8 C 147.9 289.9 146.7 290.6 145 290.6 C 144.5 290.6 143.9 290.5 143.5 290.4 C 143.5 290.4 143.9 288.5 143.9 288.5 Z M 156.2 284.7 L 156.2 264.7 L 158.4 264.7 L 158.4 284.7 L 156.2 284.7 Z M 161.6 266.6 C 161.6 265.8 162.3 265.2 163.1 265.2 C 163.9 265.2 164.5 265.8 164.5 266.6 C 164.5 267.5 163.9 268.1 163.1 268.1 C 162.3 268.1 161.6 267.5 161.6 266.6 Z M 162 284.7 L 162 270.2 L 164.2 270.2 L 164.2 284.7 L 162 284.7 Z M 167.1 277.4 C 167.1 273.2 169.4 269.9 173.1 269.9 C 175.1 269.9 176.3 270.7 177.2 271.8 C 177.2 271.8 176.1 273.2 176.1 273.2 C 175.3 272.2 174.4 271.8 173.3 271.8 C 170.7 271.8 169.3 274.4 169.3 277.4 C 169.3 280.5 170.7 283.1 173.3 283.1 C 174.4 283.1 175.3 282.7 176.1 281.7 C 176.1 281.7 177.2 283.1 177.2 283.1 C 176.3 284.3 175.1 285.1 173.1 285.1 C 169.4 285.1 167.1 281.7 167.1 277.4 Z M 188 282.6 C 187.98 282.6 188 290.2 188 290.2 L 185.8 290.2 L 185.8 270.2 L 188 270.2 C 188 270.2 187.98 272.28 188 272.3 C 188.8 270.8 190.3 269.9 191.8 269.9 C 195.1 269.9 197 272.9 197 277.4 C 197 282 195.1 285.1 191.8 285.1 C 190.3 285.1 188.9 284.2 188 282.6 Z M 194.7 277.4 C 194.7 274.3 193.6 271.8 191.2 271.8 C 189.9 271.8 188.5 272.9 188 274.1 C 188 274.1 188 280.7 188 280.7 C 188.5 282 189.9 283.1 191.2 283.1 C 193.6 283.1 194.7 280.6 194.7 277.4 Z M 207.3 284.7 C 207.3 284.7 207.33 283.14 207.3 283.1 C 206.4 284.5 205 285.1 203.5 285.1 C 201.2 285.1 199.1 283.3 199.1 280.2 C 199.1 277.2 201.1 275.5 203.5 275.5 C 205 275.5 206.4 276 207.3 277.3 C 207.3 277.3 207.3 274.8 207.3 274.8 C 207.3 272.8 206.2 271.7 204.4 271.7 C 203 271.7 201.8 272.2 200.7 273.5 C 200.7 273.5 199.8 272 199.8 272 C 201.1 270.5 202.9 269.9 204.7 269.9 C 207.6 269.9 209.5 271.3 209.5 274.6 C 209.49 274.56 209.5 284.7 209.5 284.7 L 207.3 284.7 Z M 207.3 281.7 C 207.3 281.7 207.3 278.9 207.3 278.9 C 206.7 277.7 205.5 277.1 204.2 277.1 C 202.4 277.1 201.3 278.5 201.3 280.3 C 201.3 282.1 202.4 283.5 204.2 283.5 C 205.5 283.5 206.7 282.9 207.3 281.7 Z M 212.7 266.6 C 212.7 265.8 213.4 265.2 214.2 265.2 C 215 265.2 215.6 265.8 215.6 266.6 C 215.6 267.5 215 268.1 214.2 268.1 C 213.4 268.1 212.7 267.5 212.7 266.6 Z M 213.1 284.7 L 213.1 270.2 L 215.2 270.2 L 215.2 284.7 L 213.1 284.7 Z M 226.7 284.7 C 226.7 284.7 226.73 274.38 226.7 274.4 C 226.7 272.5 225.9 271.8 224.4 271.8 C 223 271.8 221.7 272.9 221 274.1 C 221.03 274.08 221 284.7 221 284.7 L 218.9 284.7 L 218.9 270.2 L 221 270.2 C 221 270.2 221.03 272.28 221 272.3 C 221.9 271 223.5 269.9 225.2 269.9 C 227.7 269.9 228.9 271.2 228.9 273.8 C 228.89 273.78 228.9 284.7 228.9 284.7 L 226.7 284.7 Z M 233 281.8 C 232.97 281.79 233 272.1 233 272.1 L 231.1 272.1 L 231.1 270.2 L 233 270.2 L 233 266.3 L 235.1 266.3 L 235.1 270.2 L 237.6 270.2 L 237.6 272.1 L 235.1 272.1 C 235.1 272.1 235.13 281.4 235.1 281.4 C 235.1 282.5 235.5 283.1 236.3 283.1 C 236.8 283.1 237.3 282.9 237.6 282.6 C 237.6 282.6 238.2 284.2 238.2 284.2 C 237.7 284.7 237 285.1 235.9 285.1 C 233.9 285.1 233 284 233 281.8 Z " stroke="none" fill="#d3d2d2"/>  </g>  <g id="Polygon155404">    <path d="M 5.5 248.7 L 5.5 230.8 L 0.8 230.8 L 0.8 228.7 L 12.6 228.7 L 12.6 230.8 L 7.9 230.8 L 7.9 248.7 L 5.5 248.7 Z M 14.6 230.6 C 14.6 229.8 15.3 229.2 16.1 229.2 C 16.9 229.2 17.6 229.8 17.6 230.6 C 17.6 231.5 16.9 232.1 16.1 232.1 C 15.3 232.1 14.6 231.5 14.6 230.6 Z M 15.1 248.7 L 15.1 234.2 L 17.2 234.2 L 17.2 248.7 L 15.1 248.7 Z M 19.7 247 C 19.7 247 20.8 245.5 20.8 245.5 C 21.6 246.5 23 247.3 24.5 247.3 C 26.2 247.3 27.3 246.4 27.3 245 C 27.3 241.6 20.1 242.8 20.1 237.8 C 20.1 235.6 21.8 233.9 24.7 233.9 C 26.6 233.9 28.1 234.6 29.1 235.7 C 29.1 235.7 28.1 237.2 28.1 237.2 C 27.4 236.2 26.2 235.6 24.7 235.6 C 23.2 235.6 22.2 236.5 22.2 237.7 C 22.2 240.8 29.4 239.7 29.4 244.9 C 29.4 247.3 27.5 249.1 24.6 249.1 C 22.5 249.1 20.9 248.4 19.7 247 Z M 31 247 C 31 247 32.1 245.5 32.1 245.5 C 32.9 246.5 34.3 247.3 35.8 247.3 C 37.5 247.3 38.6 246.4 38.6 245 C 38.6 241.6 31.4 242.8 31.4 237.8 C 31.4 235.6 33.1 233.9 36 233.9 C 37.9 233.9 39.4 234.6 40.4 235.7 C 40.4 235.7 39.4 237.2 39.4 237.2 C 38.7 236.2 37.5 235.6 36.1 235.6 C 34.5 235.6 33.5 236.5 33.5 237.7 C 33.5 240.8 40.7 239.7 40.7 244.9 C 40.7 247.3 38.8 249.1 35.9 249.1 C 33.8 249.1 32.2 248.4 31 247 Z M 51.3 248.7 C 51.3 248.7 51.3 246.69 51.3 246.7 C 50.4 248 48.9 249.1 47.1 249.1 C 44.6 249.1 43.5 247.8 43.5 245.2 C 43.47 245.19 43.5 234.2 43.5 234.2 L 45.6 234.2 C 45.6 234.2 45.6 244.56 45.6 244.6 C 45.6 246.5 46.5 247.1 47.9 247.1 C 49.3 247.1 50.7 246.1 51.3 244.9 C 51.3 244.89 51.3 234.2 51.3 234.2 L 53.5 234.2 L 53.5 248.7 L 51.3 248.7 Z M 56.4 241.4 C 56.4 237.2 58.6 233.9 62.3 233.9 C 66.1 233.9 68 237.3 68 241.5 C 68.01 241.5 68 242.2 68 242.2 C 68 242.2 58.62 242.16 58.6 242.2 C 58.7 245.1 60.2 247.3 62.8 247.3 C 64 247.3 65.3 246.6 66.2 245.5 C 66.2 245.5 67.4 246.8 67.4 246.8 C 66.2 248.2 64.6 249.1 62.6 249.1 C 58.7 249.1 56.4 245.9 56.4 241.4 Z M 62.2 235.7 C 59.7 235.7 58.7 238.4 58.6 240.6 C 58.6 240.6 65.9 240.6 65.9 240.6 C 65.8 238.4 64.9 235.7 62.2 235.7 Z M 79.1 246.6 C 79.14 246.6 79.1 254.2 79.1 254.2 L 77 254.2 L 77 234.2 L 79.1 234.2 C 79.1 234.2 79.14 236.28 79.1 236.3 C 80 234.8 81.4 233.9 82.9 233.9 C 86.2 233.9 88.1 236.9 88.1 241.4 C 88.1 246 86.2 249.1 82.9 249.1 C 81.5 249.1 80 248.2 79.1 246.6 Z M 85.9 241.4 C 85.9 238.3 84.8 235.8 82.4 235.8 C 81.1 235.8 79.7 236.9 79.1 238.1 C 79.1 238.1 79.1 244.7 79.1 244.7 C 79.7 246 81.1 247.1 82.4 247.1 C 84.8 247.1 85.9 244.6 85.9 241.4 Z M 98.5 248.7 C 98.5 248.7 98.49 247.14 98.5 247.1 C 97.6 248.5 96.1 249.1 94.7 249.1 C 92.3 249.1 90.3 247.3 90.3 244.2 C 90.3 241.2 92.3 239.5 94.7 239.5 C 96.1 239.5 97.6 240 98.5 241.3 C 98.5 241.3 98.5 238.8 98.5 238.8 C 98.5 236.8 97.4 235.7 95.5 235.7 C 94.2 235.7 93 236.2 91.9 237.5 C 91.9 237.5 90.9 236 90.9 236 C 92.3 234.5 94 233.9 95.8 233.9 C 98.7 233.9 100.6 235.3 100.6 238.6 C 100.65 238.56 100.6 248.7 100.6 248.7 L 98.5 248.7 Z M 98.5 245.7 C 98.5 245.7 98.5 242.9 98.5 242.9 C 97.8 241.7 96.6 241.1 95.4 241.1 C 93.6 241.1 92.5 242.5 92.5 244.3 C 92.5 246.1 93.6 247.5 95.4 247.5 C 96.6 247.5 97.8 246.9 98.5 245.7 Z M 106.4 246.6 C 106.41 246.6 106.4 254.2 106.4 254.2 L 104.3 254.2 L 104.3 234.2 L 106.4 234.2 C 106.4 234.2 106.41 236.28 106.4 236.3 C 107.2 234.8 108.7 233.9 110.2 233.9 C 113.5 233.9 115.4 236.9 115.4 241.4 C 115.4 246 113.5 249.1 110.2 249.1 C 108.7 249.1 107.3 248.2 106.4 246.6 Z M 113.2 241.4 C 113.2 238.3 112 235.8 109.7 235.8 C 108.3 235.8 107 236.9 106.4 238.1 C 106.4 238.1 106.4 244.7 106.4 244.7 C 107 246 108.3 247.1 109.7 247.1 C 112 247.1 113.2 244.6 113.2 241.4 Z M 117.6 241.4 C 117.6 237.2 119.8 233.9 123.5 233.9 C 127.3 233.9 129.2 237.3 129.2 241.5 C 129.21 241.5 129.2 242.2 129.2 242.2 C 129.2 242.2 119.82 242.16 119.8 242.2 C 119.9 245.1 121.4 247.3 124 247.3 C 125.2 247.3 126.5 246.6 127.4 245.5 C 127.4 245.5 128.6 246.8 128.6 246.8 C 127.4 248.2 125.8 249.1 123.8 249.1 C 119.9 249.1 117.6 245.9 117.6 241.4 Z M 123.4 235.7 C 120.9 235.7 119.9 238.4 119.8 240.6 C 119.8 240.6 127.1 240.6 127.1 240.6 C 127 238.4 126.1 235.7 123.4 235.7 Z M 132.1 248.7 L 132.1 234.2 L 134.2 234.2 C 134.2 234.2 134.19 236.52 134.2 236.5 C 135.1 235 136.5 233.9 138.3 233.9 C 138.3 233.9 138.3 236.1 138.3 236.1 C 138.1 236.1 137.8 236 137.6 236 C 136.3 236 134.8 237.2 134.2 238.4 C 134.19 238.41 134.2 248.7 134.2 248.7 L 132.1 248.7 Z " stroke="none" fill="#d3d2d2"/>  </g>  <g id="Polygon155403">    <path d="M 2.1 212.7 L 2.1 192.7 L 12.4 192.7 L 12.4 194.8 L 4.5 194.8 L 4.5 201.4 L 12.2 201.4 L 12.2 203.5 L 4.5 203.5 L 4.5 210.6 L 12.4 210.6 L 12.4 212.7 L 2.1 212.7 Z M 22.9 212.7 L 19.6 206.9 L 16.3 212.7 L 13.9 212.7 L 18.3 205.3 L 14.1 198.2 L 16.5 198.2 L 19.6 203.7 L 22.7 198.2 L 25.1 198.2 L 20.9 205.3 L 25.3 212.7 L 22.9 212.7 Z M 27.8 209.8 C 27.81 209.79 27.8 200.1 27.8 200.1 L 25.9 200.1 L 25.9 198.2 L 27.8 198.2 L 27.8 194.3 L 30 194.3 L 30 198.2 L 32.4 198.2 L 32.4 200.1 L 30 200.1 C 30 200.1 29.97 209.4 30 209.4 C 30 210.5 30.3 211.1 31.1 211.1 C 31.7 211.1 32.1 210.9 32.4 210.6 C 32.4 210.6 33.1 212.2 33.1 212.2 C 32.5 212.7 31.8 213.1 30.7 213.1 C 28.7 213.1 27.8 212 27.8 209.8 Z M 35 212.7 L 35 198.2 L 37.1 198.2 C 37.1 198.2 37.11 200.52 37.1 200.5 C 38 199 39.4 197.9 41.2 197.9 C 41.2 197.9 41.2 200.1 41.2 200.1 C 41 200.1 40.7 200 40.5 200 C 39.2 200 37.7 201.2 37.1 202.4 C 37.11 202.41 37.1 212.7 37.1 212.7 L 35 212.7 Z M 51.2 212.7 C 51.2 212.7 51.24 210.69 51.2 210.7 C 50.4 212 48.8 213.1 47 213.1 C 44.6 213.1 43.4 211.8 43.4 209.2 C 43.41 209.19 43.4 198.2 43.4 198.2 L 45.5 198.2 C 45.5 198.2 45.54 208.56 45.5 208.6 C 45.5 210.5 46.4 211.1 47.8 211.1 C 49.3 211.1 50.6 210.1 51.2 208.9 C 51.24 208.89 51.2 198.2 51.2 198.2 L 53.4 198.2 L 53.4 212.7 L 51.2 212.7 Z M 65.3 212.7 C 65.3 212.7 65.34 210.63 65.3 210.6 C 64.5 212.1 63.1 213.1 61.5 213.1 C 58.3 213.1 56.3 210 56.3 205.5 C 56.3 201 58.3 197.9 61.5 197.9 C 63 197.9 64.5 198.7 65.3 200.3 C 65.34 200.31 65.3 192.7 65.3 192.7 L 67.5 192.7 L 67.5 212.7 L 65.3 212.7 Z M 65.3 208.8 C 65.3 208.8 65.3 202.1 65.3 202.1 C 64.8 200.9 63.4 199.8 62.1 199.8 C 59.7 199.8 58.6 202.3 58.6 205.5 C 58.6 208.6 59.7 211.1 62.1 211.1 C 63.4 211.1 64.8 210.1 65.3 208.8 Z M 70.4 205.4 C 70.4 201.2 72.7 197.9 76.3 197.9 C 80.1 197.9 82 201.3 82 205.5 C 82.05 205.5 82 206.2 82 206.2 C 82 206.2 72.66 206.16 72.7 206.2 C 72.7 209.1 74.2 211.3 76.8 211.3 C 78.1 211.3 79.4 210.6 80.3 209.5 C 80.3 209.5 81.4 210.8 81.4 210.8 C 80.2 212.2 78.6 213.1 76.6 213.1 C 72.8 213.1 70.4 209.9 70.4 205.4 Z M 76.3 199.7 C 73.7 199.7 72.7 202.4 72.7 204.6 C 72.7 204.6 79.9 204.6 79.9 204.6 C 79.9 202.4 78.9 199.7 76.3 199.7 Z M 93.2 212.7 C 93.2 212.7 93.18 210.63 93.2 210.6 C 92.3 212.1 90.9 213.1 89.4 213.1 C 86.1 213.1 84.2 210 84.2 205.5 C 84.2 201 86.1 197.9 89.4 197.9 C 90.8 197.9 92.3 198.7 93.2 200.3 C 93.18 200.31 93.2 192.7 93.2 192.7 L 95.3 192.7 L 95.3 212.7 L 93.2 212.7 Z M 93.2 208.8 C 93.2 208.8 93.2 202.1 93.2 202.1 C 92.6 200.9 91.3 199.8 89.9 199.8 C 87.5 199.8 86.4 202.3 86.4 205.5 C 86.4 208.6 87.5 211.1 89.9 211.1 C 91.3 211.1 92.6 210.1 93.2 208.8 Z M 107.3 210.6 C 107.28 210.6 107.3 218.2 107.3 218.2 L 105.1 218.2 L 105.1 198.2 L 107.3 198.2 C 107.3 198.2 107.28 200.28 107.3 200.3 C 108.1 198.8 109.6 197.9 111.1 197.9 C 114.4 197.9 116.3 200.9 116.3 205.4 C 116.3 210 114.4 213.1 111.1 213.1 C 109.6 213.1 108.2 212.2 107.3 210.6 Z M 114 205.4 C 114 202.3 112.9 199.8 110.5 199.8 C 109.2 199.8 107.8 200.9 107.3 202.1 C 107.3 202.1 107.3 208.7 107.3 208.7 C 107.8 210 109.2 211.1 110.5 211.1 C 112.9 211.1 114 208.6 114 205.4 Z M 118.5 205.4 C 118.5 201.4 120.5 197.9 124.3 197.9 C 128.2 197.9 130.3 201.4 130.3 205.4 C 130.3 209.5 128.2 213.1 124.3 213.1 C 120.5 213.1 118.5 209.5 118.5 205.4 Z M 128 205.4 C 128 202.5 126.9 199.8 124.3 199.8 C 121.9 199.8 120.7 202.5 120.7 205.4 C 120.7 208.4 121.9 211.1 124.3 211.1 C 126.9 211.1 128 208.4 128 205.4 Z M 133.2 212.7 L 133.2 192.7 L 135.3 192.7 L 135.3 212.7 L 133.2 212.7 Z M 138.6 216.5 C 138.8 216.6 139.3 216.7 139.5 216.7 C 140.4 216.7 140.8 216.3 141.2 215.2 C 141.24 215.22 142 213 142 213 L 137.2 198.2 L 139.5 198.2 L 143.1 210.1 L 146.8 198.2 L 149.1 198.2 C 149.1 198.2 143.28 215.76 143.3 215.8 C 142.6 217.9 141.4 218.6 139.7 218.6 C 139.2 218.6 138.6 218.5 138.2 218.4 C 138.2 218.4 138.6 216.5 138.6 216.5 Z M 149.8 211 C 149.8 211 150.8 209.5 150.8 209.5 C 151.7 210.5 153.1 211.3 154.6 211.3 C 156.3 211.3 157.4 210.4 157.4 209 C 157.4 205.6 150.2 206.8 150.2 201.8 C 150.2 199.6 151.9 197.9 154.8 197.9 C 156.7 197.9 158.2 198.6 159.2 199.7 C 159.2 199.7 158.2 201.2 158.2 201.2 C 157.5 200.2 156.2 199.6 154.8 199.6 C 153.2 199.6 152.2 200.5 152.2 201.7 C 152.2 204.8 159.5 203.7 159.5 208.9 C 159.5 211.3 157.6 213.1 154.6 213.1 C 152.6 213.1 151 212.4 149.8 211 Z M 162.7 209.8 C 162.66 209.79 162.7 200.1 162.7 200.1 L 160.7 200.1 L 160.7 198.2 L 162.7 198.2 L 162.7 194.3 L 164.8 194.3 L 164.8 198.2 L 167.3 198.2 L 167.3 200.1 L 164.8 200.1 C 164.8 200.1 164.82 209.4 164.8 209.4 C 164.8 210.5 165.1 211.1 166 211.1 C 166.5 211.1 167 210.9 167.2 210.6 C 167.2 210.6 167.9 212.2 167.9 212.2 C 167.4 212.7 166.7 213.1 165.6 213.1 C 163.6 213.1 162.7 212 162.7 209.8 Z M 169.4 216.5 C 169.7 216.6 170.1 216.7 170.4 216.7 C 171.2 216.7 171.7 216.3 172.1 215.2 C 172.08 215.22 172.9 213 172.9 213 L 168 198.2 L 170.4 198.2 L 174 210.1 L 177.6 198.2 L 179.9 198.2 C 179.9 198.2 174.12 215.76 174.1 215.8 C 173.4 217.9 172.2 218.6 170.5 218.6 C 170.1 218.6 169.4 218.5 169.1 218.4 C 169.1 218.4 169.4 216.5 169.4 216.5 Z M 181.8 212.7 L 181.8 198.2 L 183.9 198.2 C 183.9 198.2 183.9 200.52 183.9 200.5 C 184.8 199 186.2 197.9 188 197.9 C 188 197.9 188 200.1 188 200.1 C 187.8 200.1 187.5 200 187.3 200 C 186 200 184.5 201.2 183.9 202.4 C 183.9 202.41 183.9 212.7 183.9 212.7 L 181.8 212.7 Z M 189.5 205.4 C 189.5 201.2 191.7 197.9 195.4 197.9 C 199.2 197.9 201.1 201.3 201.1 205.5 C 201.09 205.5 201.1 206.2 201.1 206.2 C 201.1 206.2 191.7 206.16 191.7 206.2 C 191.8 209.1 193.3 211.3 195.9 211.3 C 197.1 211.3 198.4 210.6 199.3 209.5 C 199.3 209.5 200.5 210.8 200.5 210.8 C 199.3 212.2 197.6 213.1 195.7 213.1 C 191.8 213.1 189.5 209.9 189.5 205.4 Z M 195.3 199.7 C 192.8 199.7 191.8 202.4 191.7 204.6 C 191.7 204.6 199 204.6 199 204.6 C 198.9 202.4 198 199.7 195.3 199.7 Z M 211.8 212.7 C 211.8 212.7 211.77 202.38 211.8 202.4 C 211.8 200.5 210.9 199.8 209.5 199.8 C 208 199.8 206.7 200.9 206.1 202.1 C 206.07 202.08 206.1 212.7 206.1 212.7 L 203.9 212.7 L 203.9 198.2 L 206.1 198.2 C 206.1 198.2 206.07 200.28 206.1 200.3 C 206.9 199 208.5 197.9 210.3 197.9 C 212.7 197.9 213.9 199.2 213.9 201.8 C 213.93 201.78 213.9 212.7 213.9 212.7 L 211.8 212.7 Z M 216.9 205.4 C 216.9 201.2 219.1 197.9 222.7 197.9 C 226.6 197.9 228.5 201.3 228.5 205.5 C 228.47 205.5 228.5 206.2 228.5 206.2 C 228.5 206.2 219.08 206.16 219.1 206.2 C 219.2 209.1 220.7 211.3 223.3 211.3 C 224.5 211.3 225.8 210.6 226.7 209.5 C 226.7 209.5 227.8 210.8 227.8 210.8 C 226.7 212.2 225 213.1 223.1 213.1 C 219.2 213.1 216.9 209.9 216.9 205.4 Z M 222.7 199.7 C 220.2 199.7 219.1 202.4 219.1 204.6 C 219.1 204.6 226.3 204.6 226.3 204.6 C 226.3 202.4 225.4 199.7 222.7 199.7 Z " stroke="none" fill="#d3d2d2"/>  </g>  <g id="Polygon155402">    <path d="M 1.4 166.7 C 1.4 160.7 4.4 156.4 9.2 156.4 C 12.2 156.4 13.9 158.2 15 160.3 C 15 160.3 13 161.2 13 161.2 C 12.2 159.6 10.9 158.5 9.2 158.5 C 5.9 158.5 3.9 162 3.9 166.7 C 3.9 171.5 5.9 174.9 9.2 174.9 C 11 174.9 12.3 173.7 13.1 172 C 13.1 172 15.1 172.9 15.1 172.9 C 14 175.1 12.3 177.1 9.2 177.1 C 4.4 177.1 1.4 172.7 1.4 166.7 Z M 17.7 176.7 L 17.7 156.7 L 19.8 156.7 L 19.8 176.7 L 17.7 176.7 Z M 22.7 169.4 C 22.7 165.2 25 161.9 28.6 161.9 C 32.4 161.9 34.3 165.3 34.3 169.5 C 34.35 169.5 34.3 170.2 34.3 170.2 C 34.3 170.2 24.96 170.16 25 170.2 C 25 173.1 26.5 175.3 29.1 175.3 C 30.4 175.3 31.7 174.6 32.6 173.5 C 32.6 173.5 33.7 174.8 33.7 174.8 C 32.5 176.2 30.9 177.1 28.9 177.1 C 25.1 177.1 22.7 173.9 22.7 169.4 Z M 28.6 163.7 C 26 163.7 25 166.4 25 168.6 C 25 168.6 32.2 168.6 32.2 168.6 C 32.2 166.4 31.2 163.7 28.6 163.7 Z M 44.6 176.7 C 44.6 176.7 44.64 175.14 44.6 175.1 C 43.7 176.5 42.3 177.1 40.8 177.1 C 38.5 177.1 36.4 175.3 36.4 172.2 C 36.4 169.2 38.5 167.5 40.8 167.5 C 42.3 167.5 43.7 168 44.6 169.3 C 44.6 169.3 44.6 166.8 44.6 166.8 C 44.6 164.8 43.6 163.7 41.7 163.7 C 40.3 163.7 39.1 164.2 38 165.5 C 38 165.5 37.1 164 37.1 164 C 38.5 162.5 40.2 161.9 42 161.9 C 44.9 161.9 46.8 163.3 46.8 166.6 C 46.8 166.56 46.8 176.7 46.8 176.7 L 44.6 176.7 Z M 44.6 173.7 C 44.6 173.7 44.6 170.9 44.6 170.9 C 44 169.7 42.8 169.1 41.5 169.1 C 39.7 169.1 38.6 170.5 38.6 172.3 C 38.6 174.1 39.7 175.5 41.5 175.5 C 42.8 175.5 44 174.9 44.6 173.7 Z M 50.4 176.7 L 50.4 162.2 L 52.6 162.2 C 52.6 162.2 52.56 164.52 52.6 164.5 C 53.5 163 54.9 161.9 56.7 161.9 C 56.7 161.9 56.7 164.1 56.7 164.1 C 56.4 164.1 56.2 164 55.9 164 C 54.6 164 53.2 165.2 52.6 166.4 C 52.56 166.41 52.6 176.7 52.6 176.7 L 50.4 176.7 Z M 64.9 180.8 C 64.9 180.8 65.9 179.1 65.9 179.1 C 66.8 180.2 68.1 180.8 69.7 180.8 C 71.6 180.8 73.3 179.6 73.3 176.8 C 73.3 176.8 73.3 174.4 73.3 174.4 C 72.4 175.9 71 176.9 69.5 176.9 C 66.2 176.9 64.3 173.9 64.3 169.4 C 64.3 164.9 66.2 161.9 69.5 161.9 C 70.9 161.9 72.4 162.7 73.3 164.3 C 73.29 164.31 73.3 162.2 73.3 162.2 L 75.4 162.2 C 75.4 162.2 75.45 176.67 75.4 176.7 C 75.4 181.1 72.7 182.6 69.7 182.6 C 67.8 182.6 66.3 182.1 64.9 180.8 Z M 73.3 172.6 C 73.3 172.6 73.3 166.1 73.3 166.1 C 72.7 164.9 71.4 163.8 70 163.8 C 67.6 163.8 66.5 166.3 66.5 169.4 C 66.5 172.5 67.6 175 70 175 C 71.4 175 72.7 173.8 73.3 172.6 Z M 79.1 176.7 L 79.1 156.7 L 81.2 156.7 L 81.2 176.7 L 79.1 176.7 Z M 92.7 176.7 C 92.7 176.7 92.7 174.69 92.7 174.7 C 91.8 176 90.3 177.1 88.5 177.1 C 86 177.1 84.9 175.8 84.9 173.2 C 84.87 173.19 84.9 162.2 84.9 162.2 L 87 162.2 C 87 162.2 87 172.56 87 172.6 C 87 174.5 87.9 175.1 89.3 175.1 C 90.7 175.1 92.1 174.1 92.7 172.9 C 92.7 172.89 92.7 162.2 92.7 162.2 L 94.9 162.2 L 94.9 176.7 L 92.7 176.7 Z M 97.8 169.4 C 97.8 165.2 100 161.9 103.7 161.9 C 107.5 161.9 109.4 165.3 109.4 169.5 C 109.41 169.5 109.4 170.2 109.4 170.2 C 109.4 170.2 100.02 170.16 100 170.2 C 100.1 173.1 101.6 175.3 104.2 175.3 C 105.4 175.3 106.7 174.6 107.6 173.5 C 107.6 173.5 108.8 174.8 108.8 174.8 C 107.6 176.2 106 177.1 104 177.1 C 100.1 177.1 97.8 173.9 97.8 169.4 Z M 103.6 163.7 C 101.1 163.7 100.1 166.4 100 168.6 C 100 168.6 107.3 168.6 107.3 168.6 C 107.2 166.4 106.3 163.7 103.6 163.7 Z " stroke="none" fill="#d3d2d2"/>  </g>  <g id="Polygon155401">    <path d="M 1.4 130.7 C 1.4 124.7 4.4 120.4 9.2 120.4 C 12.2 120.4 13.9 122.2 15 124.3 C 15 124.3 13 125.2 13 125.2 C 12.2 123.6 10.9 122.5 9.2 122.5 C 5.9 122.5 3.9 126 3.9 130.7 C 3.9 135.5 5.9 138.9 9.2 138.9 C 11 138.9 12.3 137.7 13.1 136 C 13.1 136 15.1 136.9 15.1 136.9 C 14 139.1 12.3 141.1 9.2 141.1 C 4.4 141.1 1.4 136.7 1.4 130.7 Z M 16.9 133.4 C 16.9 129.4 19 125.9 22.8 125.9 C 26.7 125.9 28.7 129.4 28.7 133.4 C 28.7 137.5 26.7 141.1 22.8 141.1 C 19 141.1 16.9 137.5 16.9 133.4 Z M 26.5 133.4 C 26.5 130.5 25.4 127.8 22.8 127.8 C 20.3 127.8 19.2 130.5 19.2 133.4 C 19.2 136.4 20.3 139.1 22.8 139.1 C 25.4 139.1 26.5 136.4 26.5 133.4 Z M 32.1 137.8 C 32.1 137.79 32.1 128.1 32.1 128.1 L 30.2 128.1 L 30.2 126.2 L 32.1 126.2 L 32.1 122.3 L 34.3 122.3 L 34.3 126.2 L 36.7 126.2 L 36.7 128.1 L 34.3 128.1 C 34.3 128.1 34.26 137.4 34.3 137.4 C 34.3 138.5 34.6 139.1 35.4 139.1 C 36 139.1 36.4 138.9 36.7 138.6 C 36.7 138.6 37.3 140.2 37.3 140.2 C 36.8 140.7 36.1 141.1 35 141.1 C 33 141.1 32.1 140 32.1 137.8 Z M 39.7 137.8 C 39.69 137.79 39.7 128.1 39.7 128.1 L 37.8 128.1 L 37.8 126.2 L 39.7 126.2 L 39.7 122.3 L 41.8 122.3 L 41.8 126.2 L 44.3 126.2 L 44.3 128.1 L 41.8 128.1 C 41.8 128.1 41.85 137.4 41.8 137.4 C 41.8 138.5 42.2 139.1 43 139.1 C 43.6 139.1 44 138.9 44.3 138.6 C 44.3 138.6 44.9 140.2 44.9 140.2 C 44.4 140.7 43.7 141.1 42.6 141.1 C 40.6 141.1 39.7 140 39.7 137.8 Z M 46.1 133.4 C 46.1 129.4 48.2 125.9 52 125.9 C 55.9 125.9 57.9 129.4 57.9 133.4 C 57.9 137.5 55.9 141.1 52 141.1 C 48.2 141.1 46.1 137.5 46.1 133.4 Z M 55.7 133.4 C 55.7 130.5 54.6 127.8 52 127.8 C 49.5 127.8 48.4 130.5 48.4 133.4 C 48.4 136.4 49.5 139.1 52 139.1 C 54.6 139.1 55.7 136.4 55.7 133.4 Z M 68.7 140.7 C 68.7 140.7 68.7 130.38 68.7 130.4 C 68.7 128.5 67.8 127.8 66.4 127.8 C 65 127.8 63.7 128.9 63 130.1 C 63 130.08 63 140.7 63 140.7 L 60.9 140.7 L 60.9 126.2 L 63 126.2 C 63 126.2 63 128.28 63 128.3 C 63.8 127 65.5 125.9 67.2 125.9 C 69.7 125.9 70.9 127.2 70.9 129.8 C 70.86 129.78 70.9 140.7 70.9 140.7 L 68.7 140.7 Z M 86.1 139.1 C 88.4 139.1 89.5 136.6 89.5 133.5 C 89.5 130.3 88.4 127.8 86.1 127.8 C 84.7 127.8 83.4 128.9 82.8 130.2 C 82.8 130.2 82.8 136.8 82.8 136.8 C 83.4 138.1 84.7 139.1 86.1 139.1 Z M 80.7 140.7 L 80.7 120.7 L 82.8 120.7 C 82.8 120.7 82.8 128.31 82.8 128.3 C 83.7 126.7 85.1 125.9 86.6 125.9 C 89.9 125.9 91.8 129 91.8 133.5 C 91.8 138 89.9 141.1 86.6 141.1 C 85.1 141.1 83.6 140.1 82.8 138.6 C 82.8 138.63 82.8 140.7 82.8 140.7 L 80.7 140.7 Z M 102.6 140.7 C 102.6 140.7 102.6 138.69 102.6 138.7 C 101.7 140 100.2 141.1 98.4 141.1 C 95.9 141.1 94.8 139.8 94.8 137.2 C 94.77 137.19 94.8 126.2 94.8 126.2 L 96.9 126.2 C 96.9 126.2 96.9 136.56 96.9 136.6 C 96.9 138.5 97.8 139.1 99.2 139.1 C 100.6 139.1 102 138.1 102.6 136.9 C 102.6 136.89 102.6 126.2 102.6 126.2 L 104.8 126.2 L 104.8 140.7 L 102.6 140.7 Z M 116.7 140.7 C 116.7 140.7 116.7 138.63 116.7 138.6 C 115.9 140.1 114.4 141.1 112.9 141.1 C 109.6 141.1 107.7 138 107.7 133.5 C 107.7 129 109.6 125.9 112.9 125.9 C 114.4 125.9 115.8 126.7 116.7 128.3 C 116.7 128.31 116.7 120.7 116.7 120.7 L 118.9 120.7 L 118.9 140.7 L 116.7 140.7 Z M 116.7 136.8 C 116.7 136.8 116.7 130.1 116.7 130.1 C 116.2 128.9 114.8 127.8 113.4 127.8 C 111.1 127.8 109.9 130.3 109.9 133.5 C 109.9 136.6 111.1 139.1 113.4 139.1 C 114.8 139.1 116.2 138.1 116.7 136.8 Z M 121.3 139 C 121.3 139 122.4 137.5 122.4 137.5 C 123.3 138.5 124.6 139.3 126.2 139.3 C 127.9 139.3 129 138.4 129 137 C 129 133.6 121.8 134.8 121.8 129.8 C 121.8 127.6 123.5 125.9 126.4 125.9 C 128.3 125.9 129.8 126.6 130.8 127.7 C 130.8 127.7 129.8 129.2 129.8 129.2 C 129.1 128.2 127.8 127.6 126.4 127.6 C 124.8 127.6 123.8 128.5 123.8 129.7 C 123.8 132.8 131.1 131.7 131.1 136.9 C 131.1 139.3 129.2 141.1 126.2 141.1 C 124.2 141.1 122.5 140.4 121.3 139 Z " stroke="none" fill="#d3d2d2"/>  </g>  <g id="Polygon155400">    <path d="M 1.4 94.7 C 1.4 88.7 4.4 84.4 9.2 84.4 C 12.2 84.4 13.9 86.2 15 88.3 C 15 88.3 13 89.2 13 89.2 C 12.2 87.6 10.9 86.5 9.2 86.5 C 5.9 86.5 3.9 90 3.9 94.7 C 3.9 99.5 5.9 102.9 9.2 102.9 C 11 102.9 12.3 101.7 13.1 100 C 13.1 100 15.1 100.9 15.1 100.9 C 14 103.1 12.3 105.1 9.2 105.1 C 4.4 105.1 1.4 100.7 1.4 94.7 Z M 16.9 97.4 C 16.9 93.4 19 89.9 22.8 89.9 C 26.7 89.9 28.7 93.4 28.7 97.4 C 28.7 101.5 26.7 105.1 22.8 105.1 C 19 105.1 16.9 101.5 16.9 97.4 Z M 26.5 97.4 C 26.5 94.5 25.4 91.8 22.8 91.8 C 20.3 91.8 19.2 94.5 19.2 97.4 C 19.2 100.4 20.3 103.1 22.8 103.1 C 25.4 103.1 26.5 100.4 26.5 97.4 Z M 31.7 104.7 L 31.7 90.2 L 33.8 90.2 C 33.8 90.2 33.81 92.52 33.8 92.5 C 34.7 91 36.1 89.9 37.9 89.9 C 37.9 89.9 37.9 92.1 37.9 92.1 C 37.7 92.1 37.4 92 37.2 92 C 35.9 92 34.4 93.2 33.8 94.4 C 33.81 94.41 33.8 104.7 33.8 104.7 L 31.7 104.7 Z M 40.1 104.7 L 40.1 90.2 L 42.2 90.2 C 42.2 90.2 42.24 92.52 42.2 92.5 C 43.2 91 44.6 89.9 46.3 89.9 C 46.3 89.9 46.3 92.1 46.3 92.1 C 46.1 92.1 45.9 92 45.6 92 C 44.3 92 42.8 93.2 42.2 94.4 C 42.24 94.41 42.2 104.7 42.2 104.7 L 40.1 104.7 Z M 56.4 104.7 C 56.4 104.7 56.37 102.69 56.4 102.7 C 55.5 104 54 105.1 52.2 105.1 C 49.7 105.1 48.5 103.8 48.5 101.2 C 48.54 101.19 48.5 90.2 48.5 90.2 L 50.7 90.2 C 50.7 90.2 50.67 100.56 50.7 100.6 C 50.7 102.5 51.6 103.1 53 103.1 C 54.4 103.1 55.7 102.1 56.4 100.9 C 56.37 100.89 56.4 90.2 56.4 90.2 L 58.5 90.2 L 58.5 104.7 L 56.4 104.7 Z M 62.1 108.8 C 62.1 108.8 63.1 107.1 63.1 107.1 C 64 108.2 65.2 108.8 66.8 108.8 C 68.8 108.8 70.5 107.6 70.5 104.8 C 70.5 104.8 70.5 102.4 70.5 102.4 C 69.6 103.9 68.2 104.9 66.7 104.9 C 63.4 104.9 61.5 101.9 61.5 97.4 C 61.5 92.9 63.4 89.9 66.7 89.9 C 68.1 89.9 69.6 90.7 70.5 92.3 C 70.47 92.31 70.5 90.2 70.5 90.2 L 72.6 90.2 C 72.6 90.2 72.63 104.67 72.6 104.7 C 72.6 109.1 69.9 110.6 66.9 110.6 C 64.9 110.6 63.4 110.1 62.1 108.8 Z M 70.5 100.6 C 70.5 100.6 70.5 94.1 70.5 94.1 C 69.9 92.9 68.6 91.8 67.2 91.8 C 64.8 91.8 63.7 94.3 63.7 97.4 C 63.7 100.5 64.8 103 67.2 103 C 68.6 103 69.9 101.8 70.5 100.6 Z M 83.7 104.7 C 83.7 104.7 83.7 103.14 83.7 103.1 C 82.8 104.5 81.4 105.1 79.9 105.1 C 77.5 105.1 75.5 103.3 75.5 100.2 C 75.5 97.2 77.5 95.5 79.9 95.5 C 81.4 95.5 82.8 96 83.7 97.3 C 83.7 97.3 83.7 94.8 83.7 94.8 C 83.7 92.8 82.6 91.7 80.7 91.7 C 79.4 91.7 78.2 92.2 77.1 93.5 C 77.1 93.5 76.1 92 76.1 92 C 77.5 90.5 79.2 89.9 81.1 89.9 C 83.9 89.9 85.9 91.3 85.9 94.6 C 85.86 94.56 85.9 104.7 85.9 104.7 L 83.7 104.7 Z M 83.7 101.7 C 83.7 101.7 83.7 98.9 83.7 98.9 C 83 97.7 81.8 97.1 80.6 97.1 C 78.8 97.1 77.7 98.5 77.7 100.3 C 77.7 102.1 78.8 103.5 80.6 103.5 C 81.8 103.5 83 102.9 83.7 101.7 Z M 89.9 101.8 C 89.91 101.79 89.9 92.1 89.9 92.1 L 88 92.1 L 88 90.2 L 89.9 90.2 L 89.9 86.3 L 92.1 86.3 L 92.1 90.2 L 94.5 90.2 L 94.5 92.1 L 92.1 92.1 C 92.1 92.1 92.07 101.4 92.1 101.4 C 92.1 102.5 92.4 103.1 93.2 103.1 C 93.8 103.1 94.2 102.9 94.5 102.6 C 94.5 102.6 95.2 104.2 95.2 104.2 C 94.6 104.7 93.9 105.1 92.8 105.1 C 90.8 105.1 89.9 104 89.9 101.8 Z M 96.4 97.4 C 96.4 93.2 98.6 89.9 102.2 89.9 C 106 89.9 108 93.3 108 97.5 C 107.97 97.5 108 98.2 108 98.2 C 108 98.2 98.58 98.16 98.6 98.2 C 98.7 101.1 100.2 103.3 102.7 103.3 C 104 103.3 105.3 102.6 106.2 101.5 C 106.2 101.5 107.3 102.8 107.3 102.8 C 106.2 104.2 104.5 105.1 102.6 105.1 C 98.7 105.1 96.4 101.9 96.4 97.4 Z M 102.2 91.7 C 99.7 91.7 98.6 94.4 98.6 96.6 C 98.6 96.6 105.8 96.6 105.8 96.6 C 105.8 94.4 104.8 91.7 102.2 91.7 Z M 119.1 104.7 C 119.1 104.7 119.1 102.63 119.1 102.6 C 118.3 104.1 116.8 105.1 115.3 105.1 C 112 105.1 110.1 102 110.1 97.5 C 110.1 93 112 89.9 115.3 89.9 C 116.8 89.9 118.2 90.7 119.1 92.3 C 119.1 92.31 119.1 84.7 119.1 84.7 L 121.3 84.7 L 121.3 104.7 L 119.1 104.7 Z M 119.1 100.8 C 119.1 100.8 119.1 94.1 119.1 94.1 C 118.6 92.9 117.2 91.8 115.8 91.8 C 113.5 91.8 112.3 94.3 112.3 97.5 C 112.3 100.6 113.5 103.1 115.8 103.1 C 117.2 103.1 118.6 102.1 119.1 100.8 Z M 130.3 97.4 C 130.3 93.2 132.6 89.9 136.3 89.9 C 138.4 89.9 139.6 90.7 140.5 91.8 C 140.5 91.8 139.3 93.2 139.3 93.2 C 138.5 92.2 137.6 91.8 136.5 91.8 C 133.9 91.8 132.6 94.4 132.6 97.4 C 132.6 100.5 133.9 103.1 136.5 103.1 C 137.6 103.1 138.5 102.7 139.3 101.7 C 139.3 101.7 140.5 103.1 140.5 103.1 C 139.6 104.3 138.4 105.1 136.3 105.1 C 132.6 105.1 130.3 101.7 130.3 97.4 Z M 150.4 104.7 C 150.4 104.7 150.39 103.14 150.4 103.1 C 149.5 104.5 148 105.1 146.6 105.1 C 144.2 105.1 142.2 103.3 142.2 100.2 C 142.2 97.2 144.2 95.5 146.6 95.5 C 148 95.5 149.5 96 150.4 97.3 C 150.4 97.3 150.4 94.8 150.4 94.8 C 150.4 92.8 149.3 91.7 147.4 91.7 C 146.1 91.7 144.9 92.2 143.8 93.5 C 143.8 93.5 142.8 92 142.8 92 C 144.2 90.5 145.9 89.9 147.7 89.9 C 150.6 89.9 152.5 91.3 152.5 94.6 C 152.55 94.56 152.5 104.7 152.5 104.7 L 150.4 104.7 Z M 150.4 101.7 C 150.4 101.7 150.4 98.9 150.4 98.9 C 149.7 97.7 148.5 97.1 147.3 97.1 C 145.5 97.1 144.4 98.5 144.4 100.3 C 144.4 102.1 145.5 103.5 147.3 103.5 C 148.5 103.5 149.7 102.9 150.4 101.7 Z M 156.2 104.7 L 156.2 90.2 L 158.3 90.2 C 158.3 90.2 158.31 92.52 158.3 92.5 C 159.2 91 160.6 89.9 162.4 89.9 C 162.4 89.9 162.4 92.1 162.4 92.1 C 162.2 92.1 161.9 92 161.7 92 C 160.4 92 158.9 93.2 158.3 94.4 C 158.31 94.41 158.3 104.7 158.3 104.7 L 156.2 104.7 Z M 172.9 104.7 C 172.9 104.7 172.89 102.63 172.9 102.6 C 172 104.1 170.6 105.1 169.1 105.1 C 165.8 105.1 163.9 102 163.9 97.5 C 163.9 93 165.8 89.9 169.1 89.9 C 170.5 89.9 172 90.7 172.9 92.3 C 172.89 92.31 172.9 84.7 172.9 84.7 L 175 84.7 L 175 104.7 L 172.9 104.7 Z M 172.9 100.8 C 172.9 100.8 172.9 94.1 172.9 94.1 C 172.3 92.9 171 91.8 169.6 91.8 C 167.2 91.8 166.1 94.3 166.1 97.5 C 166.1 100.6 167.2 103.1 169.6 103.1 C 171 103.1 172.3 102.1 172.9 100.8 Z M 184.1 103.1 C 186.5 103.1 187.6 100.6 187.6 97.5 C 187.6 94.3 186.5 91.8 184.1 91.8 C 182.8 91.8 181.4 92.9 180.8 94.2 C 180.8 94.2 180.8 100.8 180.8 100.8 C 181.4 102.1 182.8 103.1 184.1 103.1 Z M 178.7 104.7 L 178.7 84.7 L 180.8 84.7 C 180.8 84.7 180.84 92.31 180.8 92.3 C 181.7 90.7 183.2 89.9 184.6 89.9 C 187.9 89.9 189.8 93 189.8 97.5 C 189.8 102 187.9 105.1 184.6 105.1 C 183.1 105.1 181.7 104.1 180.8 102.6 C 180.84 102.63 180.8 104.7 180.8 104.7 L 178.7 104.7 Z M 192.1 97.4 C 192.1 93.4 194.1 89.9 198 89.9 C 201.9 89.9 203.9 93.4 203.9 97.4 C 203.9 101.5 201.9 105.1 198 105.1 C 194.1 105.1 192.1 101.5 192.1 97.4 Z M 201.6 97.4 C 201.6 94.5 200.5 91.8 198 91.8 C 195.5 91.8 194.3 94.5 194.3 97.4 C 194.3 100.4 195.5 103.1 198 103.1 C 200.5 103.1 201.6 100.4 201.6 97.4 Z M 214.3 104.7 C 214.3 104.7 214.25 103.14 214.3 103.1 C 213.3 104.5 211.9 105.1 210.4 105.1 C 208.1 105.1 206.1 103.3 206.1 100.2 C 206.1 97.2 208.1 95.5 210.4 95.5 C 211.9 95.5 213.4 96 214.3 97.3 C 214.3 97.3 214.3 94.8 214.3 94.8 C 214.3 92.8 213.2 91.7 211.3 91.7 C 209.9 91.7 208.8 92.2 207.7 93.5 C 207.7 93.5 206.7 92 206.7 92 C 208.1 90.5 209.8 89.9 211.6 89.9 C 214.5 89.9 216.4 91.3 216.4 94.6 C 216.41 94.56 216.4 104.7 216.4 104.7 L 214.3 104.7 Z M 214.3 101.7 C 214.3 101.7 214.3 98.9 214.3 98.9 C 213.6 97.7 212.4 97.1 211.1 97.1 C 209.3 97.1 208.3 98.5 208.3 100.3 C 208.3 102.1 209.3 103.5 211.1 103.5 C 212.4 103.5 213.6 102.9 214.3 101.7 Z M 220 104.7 L 220 90.2 L 222.2 90.2 C 222.2 90.2 222.17 92.52 222.2 92.5 C 223.1 91 224.5 89.9 226.3 89.9 C 226.3 89.9 226.3 92.1 226.3 92.1 C 226 92.1 225.8 92 225.6 92 C 224.2 92 222.8 93.2 222.2 94.4 C 222.17 94.41 222.2 104.7 222.2 104.7 L 220 104.7 Z M 236.8 104.7 C 236.8 104.7 236.75 102.63 236.8 102.6 C 235.9 104.1 234.5 105.1 232.9 105.1 C 229.7 105.1 227.8 102 227.8 97.5 C 227.8 93 229.7 89.9 232.9 89.9 C 234.4 89.9 235.9 90.7 236.8 92.3 C 236.75 92.31 236.8 84.7 236.8 84.7 L 238.9 84.7 L 238.9 104.7 L 236.8 104.7 Z M 236.8 100.8 C 236.8 100.8 236.8 94.1 236.8 94.1 C 236.2 92.9 234.9 91.8 233.5 91.8 C 231.1 91.8 230 94.3 230 97.5 C 230 100.6 231.1 103.1 233.5 103.1 C 234.9 103.1 236.2 102.1 236.8 100.8 Z " stroke="none" fill="#d3d2d2"/>  </g>  <g id="Polygon155399">    <path d="M 16 68.7 L 16 53 L 10.7 68.7 L 9.8 68.7 L 4.5 53 L 4.5 68.7 L 2.1 68.7 L 2.1 48.7 L 5.4 48.7 L 10.3 62.9 L 15.1 48.7 L 18.4 48.7 L 18.4 68.7 L 16 68.7 Z M 29.6 68.7 C 29.6 68.7 29.61 67.14 29.6 67.1 C 28.7 68.5 27.3 69.1 25.8 69.1 C 23.5 69.1 21.4 67.3 21.4 64.2 C 21.4 61.2 23.4 59.5 25.8 59.5 C 27.3 59.5 28.7 60 29.6 61.3 C 29.6 61.3 29.6 58.8 29.6 58.8 C 29.6 56.8 28.5 55.7 26.6 55.7 C 25.3 55.7 24.1 56.2 23 57.5 C 23 57.5 22 56 22 56 C 23.4 54.5 25.1 53.9 27 53.9 C 29.8 53.9 31.8 55.3 31.8 58.6 C 31.77 58.56 31.8 68.7 31.8 68.7 L 29.6 68.7 Z M 29.6 65.7 C 29.6 65.7 29.6 62.9 29.6 62.9 C 28.9 61.7 27.7 61.1 26.5 61.1 C 24.7 61.1 23.6 62.5 23.6 64.3 C 23.6 66.1 24.7 67.5 26.5 67.5 C 27.7 67.5 28.9 66.9 29.6 65.7 Z M 34.2 67 C 34.2 67 35.3 65.5 35.3 65.5 C 36.1 66.5 37.5 67.3 39.1 67.3 C 40.8 67.3 41.9 66.4 41.9 65 C 41.9 61.6 34.6 62.8 34.6 57.8 C 34.6 55.6 36.4 53.9 39.3 53.9 C 41.2 53.9 42.7 54.6 43.7 55.7 C 43.7 55.7 42.7 57.2 42.7 57.2 C 41.9 56.2 40.7 55.6 39.3 55.6 C 37.7 55.6 36.7 56.5 36.7 57.7 C 36.7 60.8 43.9 59.7 43.9 64.9 C 43.9 67.3 42.1 69.1 39.1 69.1 C 37.1 69.1 35.4 68.4 34.2 67 Z M 54.9 68.7 L 50.9 62.2 L 48.8 64.8 L 48.8 68.7 L 46.7 68.7 L 46.7 48.7 L 48.8 48.7 L 48.8 62.1 L 54.9 54.2 L 57.4 54.2 L 52.3 60.7 L 57.4 68.7 L 54.9 68.7 Z M 59.1 50.6 C 59.1 49.8 59.8 49.2 60.6 49.2 C 61.4 49.2 62.1 49.8 62.1 50.6 C 62.1 51.5 61.4 52.1 60.6 52.1 C 59.8 52.1 59.1 51.5 59.1 50.6 Z M 59.5 68.7 L 59.5 54.2 L 61.7 54.2 L 61.7 68.7 L 59.5 68.7 Z M 73.2 68.7 C 73.2 68.7 73.17 58.38 73.2 58.4 C 73.2 56.5 72.3 55.8 70.9 55.8 C 69.4 55.8 68.1 56.9 67.5 58.1 C 67.47 58.08 67.5 68.7 67.5 68.7 L 65.3 68.7 L 65.3 54.2 L 67.5 54.2 C 67.5 54.2 67.47 56.28 67.5 56.3 C 68.3 55 69.9 53.9 71.7 53.9 C 74.1 53.9 75.3 55.2 75.3 57.8 C 75.33 57.78 75.3 68.7 75.3 68.7 L 73.2 68.7 Z M 78.9 72.8 C 78.9 72.8 79.9 71.1 79.9 71.1 C 80.8 72.2 82 72.8 83.6 72.8 C 85.6 72.8 87.3 71.6 87.3 68.8 C 87.3 68.8 87.3 66.4 87.3 66.4 C 86.4 67.9 85 68.9 83.5 68.9 C 80.2 68.9 78.3 65.9 78.3 61.4 C 78.3 56.9 80.2 53.9 83.5 53.9 C 84.9 53.9 86.4 54.7 87.3 56.3 C 87.27 56.31 87.3 54.2 87.3 54.2 L 89.4 54.2 C 89.4 54.2 89.43 68.67 89.4 68.7 C 89.4 73.1 86.7 74.6 83.7 74.6 C 81.7 74.6 80.2 74.1 78.9 72.8 Z M 87.3 64.6 C 87.3 64.6 87.3 58.1 87.3 58.1 C 86.7 56.9 85.4 55.8 84 55.8 C 81.6 55.8 80.5 58.3 80.5 61.4 C 80.5 64.5 81.6 67 84 67 C 85.4 67 86.7 65.8 87.3 64.6 Z M 99.6 65.8 C 99.63 65.79 99.6 56.1 99.6 56.1 L 97.7 56.1 L 97.7 54.2 L 99.6 54.2 L 99.6 50.3 L 101.8 50.3 L 101.8 54.2 L 104.2 54.2 L 104.2 56.1 L 101.8 56.1 C 101.8 56.1 101.79 65.4 101.8 65.4 C 101.8 66.5 102.1 67.1 103 67.1 C 103.5 67.1 103.9 66.9 104.2 66.6 C 104.2 66.6 104.9 68.2 104.9 68.2 C 104.4 68.7 103.6 69.1 102.5 69.1 C 100.6 69.1 99.6 68 99.6 65.8 Z M 114.2 68.7 C 114.2 68.7 114.24 67.14 114.2 67.1 C 113.3 68.5 111.9 69.1 110.4 69.1 C 108.1 69.1 106 67.3 106 64.2 C 106 61.2 108.1 59.5 110.4 59.5 C 111.9 59.5 113.3 60 114.2 61.3 C 114.2 61.3 114.2 58.8 114.2 58.8 C 114.2 56.8 113.2 55.7 111.3 55.7 C 109.9 55.7 108.7 56.2 107.6 57.5 C 107.6 57.5 106.7 56 106.7 56 C 108.1 54.5 109.8 53.9 111.6 53.9 C 114.5 53.9 116.4 55.3 116.4 58.6 C 116.4 58.56 116.4 68.7 116.4 68.7 L 114.2 68.7 Z M 114.2 65.7 C 114.2 65.7 114.2 62.9 114.2 62.9 C 113.6 61.7 112.4 61.1 111.1 61.1 C 109.3 61.1 108.2 62.5 108.2 64.3 C 108.2 66.1 109.3 67.5 111.1 67.5 C 112.4 67.5 113.6 66.9 114.2 65.7 Z M 122.2 66.6 C 122.16 66.6 122.2 74.2 122.2 74.2 L 120 74.2 L 120 54.2 L 122.2 54.2 C 122.2 54.2 122.16 56.28 122.2 56.3 C 123 54.8 124.4 53.9 126 53.9 C 129.2 53.9 131.2 56.9 131.2 61.4 C 131.2 66 129.2 69.1 126 69.1 C 124.5 69.1 123.1 68.2 122.2 66.6 Z M 128.9 61.4 C 128.9 58.3 127.8 55.8 125.4 55.8 C 124.1 55.8 122.7 56.9 122.2 58.1 C 122.2 58.1 122.2 64.7 122.2 64.7 C 122.7 66 124.1 67.1 125.4 67.1 C 127.8 67.1 128.9 64.6 128.9 61.4 Z M 133.3 61.4 C 133.3 57.2 135.6 53.9 139.2 53.9 C 143 53.9 145 57.3 145 61.5 C 144.96 61.5 145 62.2 145 62.2 C 145 62.2 135.57 62.16 135.6 62.2 C 135.7 65.1 137.2 67.3 139.7 67.3 C 141 67.3 142.3 66.6 143.2 65.5 C 143.2 65.5 144.3 66.8 144.3 66.8 C 143.2 68.2 141.5 69.1 139.6 69.1 C 135.7 69.1 133.3 65.9 133.3 61.4 Z M 139.2 55.7 C 136.6 55.7 135.6 58.4 135.6 60.6 C 135.6 60.6 142.8 60.6 142.8 60.6 C 142.8 58.4 141.8 55.7 139.2 55.7 Z " stroke="none" fill="#d3d2d2"/>  </g>  <g id="Polygon155398">    <path d="M 0.9 30.5 C 0.9 30.5 2.2 28.7 2.2 28.7 C 3.2 29.9 4.9 30.9 6.8 30.9 C 9.4 30.9 10.5 29.4 10.5 27.7 C 10.5 22.8 1.5 24.1 1.5 17.6 C 1.5 14.6 3.9 12.4 7.2 12.4 C 9.4 12.4 11.2 13.1 12.5 14.5 C 12.5 14.5 11.3 16.3 11.3 16.3 C 10.2 15.1 8.7 14.5 7.1 14.5 C 5.3 14.5 3.9 15.7 3.9 17.5 C 3.9 21.7 12.9 20.8 12.9 27.5 C 12.9 30.5 11 33.1 6.8 33.1 C 4.2 33.1 2.2 32.1 0.9 30.5 Z M 15.8 29.8 C 15.78 29.79 15.8 20.1 15.8 20.1 L 13.9 20.1 L 13.9 18.2 L 15.8 18.2 L 15.8 14.3 L 17.9 14.3 L 17.9 18.2 L 20.4 18.2 L 20.4 20.1 L 17.9 20.1 C 17.9 20.1 17.94 29.4 17.9 29.4 C 17.9 30.5 18.3 31.1 19.1 31.1 C 19.6 31.1 20.1 30.9 20.4 30.6 C 20.4 30.6 21 32.2 21 32.2 C 20.5 32.7 19.8 33.1 18.7 33.1 C 16.7 33.1 15.8 32 15.8 29.8 Z M 30.8 32.7 C 30.8 32.7 30.78 30.69 30.8 30.7 C 29.9 32 28.4 33.1 26.6 33.1 C 24.1 33.1 22.9 31.8 22.9 29.2 C 22.95 29.19 22.9 18.2 22.9 18.2 L 25.1 18.2 C 25.1 18.2 25.08 28.56 25.1 28.6 C 25.1 30.5 26 31.1 27.4 31.1 C 28.8 31.1 30.1 30.1 30.8 28.9 C 30.78 28.89 30.8 18.2 30.8 18.2 L 32.9 18.2 L 32.9 32.7 L 30.8 32.7 Z M 37.1 32.7 L 37.1 20.1 L 35.2 20.1 L 35.2 18.2 L 37.1 18.2 C 37.1 18.2 37.11 16.44 37.1 16.4 C 37.1 13.9 38.5 12.4 40.7 12.4 C 41.7 12.4 42.6 12.7 43.3 13.4 C 43.3 13.4 42.5 14.9 42.5 14.9 C 42.1 14.5 41.6 14.2 41.1 14.2 C 39.9 14.2 39.3 15 39.3 16.4 C 39.27 16.44 39.3 18.2 39.3 18.2 L 41.7 18.2 L 41.7 20.1 L 39.3 20.1 L 39.3 32.7 L 37.1 32.7 Z M 44.7 32.7 L 44.7 20.1 L 42.8 20.1 L 42.8 18.2 L 44.7 18.2 C 44.7 18.2 44.73 16.44 44.7 16.4 C 44.7 13.9 46.1 12.4 48.4 12.4 C 49.3 12.4 50.2 12.7 50.9 13.4 C 50.9 13.4 50.1 14.9 50.1 14.9 C 49.7 14.5 49.3 14.2 48.7 14.2 C 47.5 14.2 46.9 15 46.9 16.4 C 46.89 16.44 46.9 18.2 46.9 18.2 L 49.3 18.2 L 49.3 20.1 L 46.9 20.1 L 46.9 32.7 L 44.7 32.7 Z M 50.8 25.4 C 50.8 21.2 53 17.9 56.7 17.9 C 60.5 17.9 62.4 21.3 62.4 25.5 C 62.4 25.5 62.4 26.2 62.4 26.2 C 62.4 26.2 53.01 26.16 53 26.2 C 53.1 29.1 54.6 31.3 57.2 31.3 C 58.4 31.3 59.7 30.6 60.6 29.5 C 60.6 29.5 61.8 30.8 61.8 30.8 C 60.6 32.2 58.9 33.1 57 33.1 C 53.1 33.1 50.8 29.9 50.8 25.4 Z M 56.6 19.7 C 54.1 19.7 53.1 22.4 53 24.6 C 53 24.6 60.3 24.6 60.3 24.6 C 60.2 22.4 59.3 19.7 56.6 19.7 Z M 73.5 32.7 C 73.5 32.7 73.53 30.63 73.5 30.6 C 72.7 32.1 71.2 33.1 69.7 33.1 C 66.5 33.1 64.5 30 64.5 25.5 C 64.5 21 66.4 17.9 69.7 17.9 C 71.2 17.9 72.7 18.7 73.5 20.3 C 73.53 20.31 73.5 12.7 73.5 12.7 L 75.7 12.7 L 75.7 32.7 L 73.5 32.7 Z M 73.5 28.8 C 73.5 28.8 73.5 22.1 73.5 22.1 C 73 20.9 71.6 19.8 70.3 19.8 C 67.9 19.8 66.8 22.3 66.8 25.5 C 66.8 28.6 67.9 31.1 70.3 31.1 C 71.6 31.1 73 30.1 73.5 28.8 Z M 85.9 29.8 C 85.92 29.79 85.9 20.1 85.9 20.1 L 84 20.1 L 84 18.2 L 85.9 18.2 L 85.9 14.3 L 88.1 14.3 L 88.1 18.2 L 90.5 18.2 L 90.5 20.1 L 88.1 20.1 C 88.1 20.1 88.08 29.4 88.1 29.4 C 88.1 30.5 88.4 31.1 89.2 31.1 C 89.8 31.1 90.2 30.9 90.5 30.6 C 90.5 30.6 91.2 32.2 91.2 32.2 C 90.7 32.7 89.9 33.1 88.8 33.1 C 86.8 33.1 85.9 32 85.9 29.8 Z M 92.4 25.4 C 92.4 21.4 94.4 17.9 98.2 17.9 C 102.1 17.9 104.2 21.4 104.2 25.4 C 104.2 29.5 102.1 33.1 98.2 33.1 C 94.4 33.1 92.4 29.5 92.4 25.4 Z M 101.9 25.4 C 101.9 22.5 100.8 19.8 98.2 19.8 C 95.8 19.8 94.6 22.5 94.6 25.4 C 94.6 28.4 95.8 31.1 98.2 31.1 C 100.8 31.1 101.9 28.4 101.9 25.4 Z M 106.7 36.5 C 106.9 36.6 107.4 36.7 107.6 36.7 C 108.5 36.7 109 36.3 109.3 35.2 C 109.35 35.22 110.1 33 110.1 33 L 105.3 18.2 L 107.6 18.2 L 111.2 30.1 L 114.9 18.2 L 117.2 18.2 C 117.2 18.2 111.39 35.76 111.4 35.8 C 110.7 37.9 109.5 38.6 107.8 38.6 C 107.3 38.6 106.7 38.5 106.3 38.4 C 106.3 38.4 106.7 36.5 106.7 36.5 Z " stroke="none" fill="#d3d2d2"/>  </g></svg>