<?xml version="1.0" standalone="no"?><!DOCTYPE svg PUBLIC "-//W3C//DTD SVG 1.1//EN" "http://www.w3.org/Graphics/SVG/1.1/DTD/svg11.dtd"><svg xmlns="http://www.w3.org/2000/svg" version="1.1" width="648px" height="439.3px" viewBox="0 0 648 439.3">  <desc>Mix in white glue, allyl isothiocyanate Thoroughly stir the mixture for 10 minutes or mix in a blender for 3 minutes</desc>  <defs/>  <g id="Polygon184484">    <path d="M 307.5 415.9 C 305.7 415.9 304.3 414.5 304.3 412.8 C 304.3 411 305.7 409.6 307.5 409.6 C 309.2 409.6 310.7 411 310.7 412.8 C 310.7 414.5 309.2 415.9 307.5 415.9 Z M 324.7 415.9 C 322.9 415.9 321.4 414.5 321.4 412.8 C 321.4 411 322.9 409.6 324.7 409.6 C 326.4 409.6 327.9 411 327.9 412.8 C 327.9 414.5 326.4 415.9 324.7 415.9 Z M 341.8 415.9 C 340.1 415.9 338.6 414.5 338.6 412.8 C 338.6 411 340.1 409.6 341.8 409.6 C 343.6 409.6 345.1 411 345.1 412.8 C 345.1 414.5 343.6 415.9 341.8 415.9 Z " stroke="none" fill="#b13d24"/>  </g>  <g id="Polygon184483">    <path d="M 30.7 345.1 C 30.75 345.11 30.7 335.4 30.7 335.4 L 28.8 335.4 L 28.8 333.5 L 30.7 333.5 L 30.7 329.6 L 32.9 329.6 L 32.9 333.5 L 35.4 333.5 L 35.4 335.4 L 32.9 335.4 C 32.9 335.4 32.91 344.72 32.9 344.7 C 32.9 345.8 33.2 346.5 34.1 346.5 C 34.6 346.5 35.1 346.2 35.3 345.9 C 35.3 345.9 36 347.5 36 347.5 C 35.5 348 34.8 348.4 33.7 348.4 C 31.7 348.4 30.7 347.3 30.7 345.1 Z M 37.2 340.8 C 37.2 336.7 39.2 333.2 43.1 333.2 C 47 333.2 49 336.7 49 340.8 C 49 344.8 47 348.4 43.1 348.4 C 39.2 348.4 37.2 344.8 37.2 340.8 Z M 46.7 340.8 C 46.7 337.9 45.6 335.1 43.1 335.1 C 40.6 335.1 39.4 337.9 39.4 340.8 C 39.4 343.7 40.6 346.5 43.1 346.5 C 45.6 346.5 46.7 343.7 46.7 340.8 Z M 51.2 340.8 C 51.2 336.7 53.2 333.2 57.1 333.2 C 61 333.2 63 336.7 63 340.8 C 63 344.8 61 348.4 57.1 348.4 C 53.2 348.4 51.2 344.8 51.2 340.8 Z M 60.7 340.8 C 60.7 337.9 59.6 335.1 57.1 335.1 C 54.6 335.1 53.5 337.9 53.5 340.8 C 53.5 343.7 54.6 346.5 57.1 346.5 C 59.6 346.5 60.7 343.7 60.7 340.8 Z M 66.4 345.1 C 66.36 345.11 66.4 335.4 66.4 335.4 L 64.4 335.4 L 64.4 333.5 L 66.4 333.5 L 66.4 329.6 L 68.5 329.6 L 68.5 333.5 L 71 333.5 L 71 335.4 L 68.5 335.4 C 68.5 335.4 68.52 344.72 68.5 344.7 C 68.5 345.8 68.8 346.5 69.7 346.5 C 70.2 346.5 70.7 346.2 70.9 345.9 C 70.9 345.9 71.6 347.5 71.6 347.5 C 71.1 348 70.4 348.4 69.3 348.4 C 67.3 348.4 66.4 347.3 66.4 345.1 Z M 81.4 348 C 81.4 348 81.38 337.67 81.4 337.7 C 81.4 335.8 80.5 335.1 79 335.1 C 77.6 335.1 76.3 336.2 75.7 337.4 C 75.65 337.4 75.7 348 75.7 348 L 73.5 348 L 73.5 328 L 75.7 328 C 75.7 328 75.65 335.6 75.7 335.6 C 76.5 334.3 78.1 333.2 79.9 333.2 C 82.3 333.2 83.5 334.4 83.5 337 C 83.51 337.04 83.5 348 83.5 348 L 81.4 348 Z M 92.6 346.5 C 94.9 346.5 96.1 343.9 96.1 340.8 C 96.1 337.6 94.9 335.1 92.6 335.1 C 91.2 335.1 89.9 336.2 89.3 337.5 C 89.3 337.5 89.3 344.1 89.3 344.1 C 89.9 345.4 91.2 346.5 92.6 346.5 Z M 87.2 348 L 87.2 328 L 89.3 328 C 89.3 328 89.3 335.63 89.3 335.6 C 90.2 334 91.6 333.2 93.1 333.2 C 96.4 333.2 98.3 336.3 98.3 340.8 C 98.3 345.4 96.4 348.4 93.1 348.4 C 91.6 348.4 90.1 347.4 89.3 346 C 89.3 345.95 89.3 348 89.3 348 L 87.2 348 Z M 101.3 348 L 101.3 333.5 L 103.4 333.5 C 103.4 333.5 103.4 335.84 103.4 335.8 C 104.3 334.3 105.7 333.2 107.5 333.2 C 107.5 333.2 107.5 335.5 107.5 335.5 C 107.3 335.4 107 335.4 106.8 335.4 C 105.5 335.4 104 336.5 103.4 337.7 C 103.4 337.73 103.4 348 103.4 348 L 101.3 348 Z M 117.5 348 C 117.5 348 117.53 346.01 117.5 346 C 116.7 347.3 115.1 348.4 113.3 348.4 C 110.9 348.4 109.7 347.2 109.7 344.5 C 109.7 344.51 109.7 333.5 109.7 333.5 L 111.8 333.5 C 111.8 333.5 111.83 343.88 111.8 343.9 C 111.8 345.8 112.7 346.5 114.1 346.5 C 115.6 346.5 116.9 345.4 117.5 344.2 C 117.53 344.21 117.5 333.5 117.5 333.5 L 119.7 333.5 L 119.7 348 L 117.5 348 Z M 122.2 346.3 C 122.2 346.3 123.3 344.8 123.3 344.8 C 124.1 345.8 125.5 346.6 127 346.6 C 128.7 346.6 129.8 345.7 129.8 344.3 C 129.8 340.9 122.6 342.1 122.6 337.1 C 122.6 334.9 124.3 333.2 127.2 333.2 C 129.1 333.2 130.6 333.9 131.6 335 C 131.6 335 130.6 336.5 130.6 336.5 C 129.9 335.5 128.7 334.9 127.3 334.9 C 125.7 334.9 124.7 335.8 124.7 337 C 124.7 340.1 131.9 339 131.9 344.2 C 131.9 346.6 130 348.4 127.1 348.4 C 125 348.4 123.4 347.7 122.2 346.3 Z M 142.5 348 C 142.5 348 142.52 337.67 142.5 337.7 C 142.5 335.8 141.6 335.1 140.2 335.1 C 138.8 335.1 137.5 336.2 136.8 337.4 C 136.79 337.4 136.8 348 136.8 348 L 134.7 348 L 134.7 328 L 136.8 328 C 136.8 328 136.79 335.6 136.8 335.6 C 137.6 334.3 139.3 333.2 141 333.2 C 143.5 333.2 144.7 334.4 144.7 337 C 144.65 337.04 144.7 348 144.7 348 L 142.5 348 Z M 162.3 348 C 162.3 348 162.32 337.67 162.3 337.7 C 162.3 335.8 161.4 335.1 160 335.1 C 158.6 335.1 157.3 336.2 156.6 337.4 C 156.59 337.4 156.6 348 156.6 348 L 154.5 348 L 154.5 328 L 156.6 328 C 156.6 328 156.59 335.6 156.6 335.6 C 157.4 334.3 159.1 333.2 160.8 333.2 C 163.3 333.2 164.5 334.4 164.5 337 C 164.45 337.04 164.5 348 164.5 348 L 162.3 348 Z M 175.6 348 C 175.6 348 175.55 346.46 175.6 346.5 C 174.6 347.8 173.2 348.4 171.7 348.4 C 169.4 348.4 167.4 346.6 167.4 343.6 C 167.4 340.5 169.4 338.8 171.7 338.8 C 173.2 338.8 174.7 339.4 175.6 340.6 C 175.6 340.6 175.6 338.1 175.6 338.1 C 175.6 336.1 174.5 335 172.6 335 C 171.2 335 170.1 335.5 169 336.8 C 169 336.8 168 335.3 168 335.3 C 169.4 333.8 171.1 333.2 172.9 333.2 C 175.8 333.2 177.7 334.6 177.7 337.9 C 177.71 337.88 177.7 348 177.7 348 L 175.6 348 Z M 175.6 345 C 175.6 345 175.6 342.2 175.6 342.2 C 174.9 341 173.7 340.4 172.4 340.4 C 170.6 340.4 169.6 341.8 169.6 343.6 C 169.6 345.4 170.6 346.8 172.4 346.8 C 173.7 346.8 174.9 346.2 175.6 345 Z M 189.2 348 C 189.2 348 189.17 337.7 189.2 337.7 C 189.2 335.8 188.3 335.1 186.9 335.1 C 185.5 335.1 184.1 336.2 183.5 337.4 C 183.47 337.4 183.5 348 183.5 348 L 181.3 348 L 181.3 333.5 L 183.5 333.5 C 183.5 333.5 183.47 335.6 183.5 335.6 C 184.3 334.3 185.9 333.2 187.7 333.2 C 190.1 333.2 191.3 334.5 191.3 337.1 C 191.33 337.1 191.3 348 191.3 348 L 189.2 348 Z M 203.3 348 C 203.3 348 203.27 345.95 203.3 346 C 202.4 347.4 201 348.4 199.5 348.4 C 196.2 348.4 194.3 345.4 194.3 340.8 C 194.3 336.3 196.2 333.2 199.5 333.2 C 200.9 333.2 202.4 334 203.3 335.6 C 203.27 335.63 203.3 328 203.3 328 L 205.4 328 L 205.4 348 L 203.3 348 Z M 203.3 344.1 C 203.3 344.1 203.3 337.5 203.3 337.5 C 202.7 336.2 201.4 335.1 200 335.1 C 197.6 335.1 196.5 337.6 196.5 340.8 C 196.5 343.9 197.6 346.5 200 346.5 C 201.4 346.5 202.7 345.4 203.3 344.1 Z M 209.1 348 L 209.1 328 L 211.2 328 L 211.2 348 L 209.1 348 Z M 214.2 340.8 C 214.2 336.6 216.4 333.2 220 333.2 C 223.9 333.2 225.8 336.6 225.8 340.8 C 225.77 340.82 225.8 341.5 225.8 341.5 C 225.8 341.5 216.38 341.48 216.4 341.5 C 216.5 344.4 218 346.6 220.6 346.6 C 221.8 346.6 223.1 346 224 344.8 C 224 344.8 225.1 346.1 225.1 346.1 C 224 347.5 222.3 348.4 220.4 348.4 C 216.5 348.4 214.2 345.2 214.2 340.8 Z M 220 335 C 217.5 335 216.4 337.8 216.4 339.9 C 216.4 339.9 223.6 339.9 223.6 339.9 C 223.6 337.7 222.7 335 220 335 Z M 228.4 346.7 C 228.4 345.9 229.1 345.1 229.9 345.1 C 230.8 345.1 231.6 345.9 231.6 346.7 C 231.6 347.6 230.8 348.3 229.9 348.3 C 229.1 348.3 228.4 347.6 228.4 346.7 Z " stroke="none" fill="#efd8d3"/>  </g>  <g id="Polygon184482">    <path d="M 8.6 312 L 8.6 306.9 L 0.7 306.9 L 0.7 304.8 L 7.9 292 L 11 292 L 11 304.8 L 13.2 304.8 L 13.2 306.9 L 11 306.9 L 11 312 L 8.6 312 Z M 8.6 294.6 L 2.9 304.8 L 8.6 304.8 L 8.6 294.6 Z M 15.4 310.7 C 15.4 309.9 16.1 309.1 17 309.1 C 17.8 309.1 18.6 309.9 18.6 310.7 C 18.6 311.6 17.8 312.3 17 312.3 C 16.1 312.3 15.4 311.6 15.4 310.7 Z M 30.4 312 L 30.4 292 L 32.8 292 L 32.8 312 L 30.4 312 Z M 37.1 312 L 37.1 299.4 L 35.2 299.4 L 35.2 297.5 L 37.1 297.5 C 37.1 297.5 37.14 295.76 37.1 295.8 C 37.1 293.2 38.5 291.7 40.8 291.7 C 41.7 291.7 42.6 292 43.3 292.7 C 43.3 292.7 42.5 294.2 42.5 294.2 C 42.1 293.8 41.7 293.5 41.1 293.5 C 39.9 293.5 39.3 294.4 39.3 295.8 C 39.3 295.76 39.3 297.5 39.3 297.5 L 41.8 297.5 L 41.8 299.4 L 39.3 299.4 L 39.3 312 L 37.1 312 Z M 58.4 312 C 58.4 312 58.38 309.95 58.4 310 C 57.5 311.4 56.1 312.4 54.6 312.4 C 51.3 312.4 49.4 309.4 49.4 304.8 C 49.4 300.3 51.3 297.2 54.6 297.2 C 56 297.2 57.5 298 58.4 299.6 C 58.38 299.63 58.4 292 58.4 292 L 60.5 292 L 60.5 312 L 58.4 312 Z M 58.4 308.1 C 58.4 308.1 58.4 301.5 58.4 301.5 C 57.8 300.2 56.5 299.1 55.1 299.1 C 52.7 299.1 51.6 301.6 51.6 304.8 C 51.6 307.9 52.7 310.5 55.1 310.5 C 56.5 310.5 57.8 309.4 58.4 308.1 Z M 63.5 304.8 C 63.5 300.6 65.7 297.2 69.4 297.2 C 73.2 297.2 75.1 300.6 75.1 304.8 C 75.09 304.82 75.1 305.5 75.1 305.5 C 75.1 305.5 65.7 305.48 65.7 305.5 C 65.8 308.4 67.3 310.6 69.9 310.6 C 71.1 310.6 72.4 310 73.3 308.8 C 73.3 308.8 74.5 310.1 74.5 310.1 C 73.3 311.5 71.6 312.4 69.7 312.4 C 65.8 312.4 63.5 309.2 63.5 304.8 Z M 69.3 299 C 66.8 299 65.8 301.8 65.7 303.9 C 65.7 303.9 73 303.9 73 303.9 C 72.9 301.7 72 299 69.3 299 Z M 76.8 310.3 C 76.8 310.3 77.8 308.8 77.8 308.8 C 78.7 309.8 80.1 310.6 81.6 310.6 C 83.3 310.6 84.4 309.7 84.4 308.3 C 84.4 304.9 77.2 306.1 77.2 301.1 C 77.2 298.9 78.9 297.2 81.8 297.2 C 83.7 297.2 85.2 297.9 86.2 299 C 86.2 299 85.2 300.5 85.2 300.5 C 84.5 299.5 83.2 298.9 81.8 298.9 C 80.2 298.9 79.3 299.8 79.3 301 C 79.3 304.1 86.5 303 86.5 308.2 C 86.5 310.6 84.6 312.4 81.7 312.4 C 79.6 312.4 78 311.7 76.8 310.3 Z M 88.8 294 C 88.8 293.2 89.5 292.5 90.3 292.5 C 91.1 292.5 91.8 293.2 91.8 294 C 91.8 294.8 91.1 295.4 90.3 295.4 C 89.5 295.4 88.8 294.8 88.8 294 Z M 89.2 312 L 89.2 297.5 L 91.4 297.5 L 91.4 312 L 89.2 312 Z M 95 312 L 95 297.5 L 97.2 297.5 C 97.2 297.5 97.16 299.84 97.2 299.8 C 98.1 298.3 99.5 297.2 101.3 297.2 C 101.3 297.2 101.3 299.5 101.3 299.5 C 101 299.4 100.8 299.4 100.6 299.4 C 99.2 299.4 97.8 300.5 97.2 301.7 C 97.16 301.73 97.2 312 97.2 312 L 95 312 Z M 102.7 304.8 C 102.7 300.6 105 297.2 108.6 297.2 C 112.4 297.2 114.4 300.6 114.4 304.8 C 114.35 304.82 114.4 305.5 114.4 305.5 C 114.4 305.5 104.96 305.48 105 305.5 C 105.1 308.4 106.6 310.6 109.1 310.6 C 110.4 310.6 111.7 310 112.6 308.8 C 112.6 308.8 113.7 310.1 113.7 310.1 C 112.6 311.5 110.9 312.4 109 312.4 C 105.1 312.4 102.7 309.2 102.7 304.8 Z M 108.6 299 C 106 299 105 301.8 105 303.9 C 105 303.9 112.2 303.9 112.2 303.9 C 112.2 301.7 111.2 299 108.6 299 Z M 125.5 312 C 125.5 312 125.48 309.95 125.5 310 C 124.6 311.4 123.2 312.4 121.7 312.4 C 118.4 312.4 116.5 309.4 116.5 304.8 C 116.5 300.3 118.4 297.2 121.7 297.2 C 123.1 297.2 124.6 298 125.5 299.6 C 125.48 299.63 125.5 292 125.5 292 L 127.6 292 L 127.6 312 L 125.5 312 Z M 125.5 308.1 C 125.5 308.1 125.5 301.5 125.5 301.5 C 124.9 300.2 123.6 299.1 122.2 299.1 C 119.8 299.1 118.7 301.6 118.7 304.8 C 118.7 307.9 119.8 310.5 122.2 310.5 C 123.6 310.5 124.9 309.4 125.5 308.1 Z M 132.1 315.8 C 132.1 315.8 131 314.9 131 314.9 C 132 314.3 132.8 313.1 133 312.1 C 132.9 312.1 132.7 312.2 132.6 312.2 C 131.8 312.2 131.2 311.5 131.2 310.7 C 131.2 309.8 131.8 309.1 132.7 309.1 C 133.7 309.1 134.5 309.9 134.5 311.4 C 134.5 313.2 133.5 314.8 132.1 315.8 Z M 143.9 316.1 C 143.9 316.1 144.9 314.4 144.9 314.4 C 145.8 315.5 147.1 316.1 148.6 316.1 C 150.6 316.1 152.3 314.9 152.3 312.1 C 152.3 312.1 152.3 309.7 152.3 309.7 C 151.4 311.2 150 312.2 148.5 312.2 C 145.2 312.2 143.3 309.3 143.3 304.7 C 143.3 300.2 145.2 297.2 148.5 297.2 C 149.9 297.2 151.4 298 152.3 299.6 C 152.27 299.63 152.3 297.5 152.3 297.5 L 154.4 297.5 C 154.4 297.5 154.43 311.99 154.4 312 C 154.4 316.5 151.7 317.9 148.7 317.9 C 146.8 317.9 145.3 317.5 143.9 316.1 Z M 152.3 307.9 C 152.3 307.9 152.3 301.5 152.3 301.5 C 151.7 300.2 150.4 299.1 149 299.1 C 146.6 299.1 145.5 301.6 145.5 304.7 C 145.5 307.8 146.6 310.3 149 310.3 C 150.4 310.3 151.7 309.1 152.3 307.9 Z M 165.5 312 C 165.5 312 165.5 310.46 165.5 310.5 C 164.6 311.8 163.2 312.4 161.7 312.4 C 159.4 312.4 157.3 310.6 157.3 307.6 C 157.3 304.5 159.3 302.8 161.7 302.8 C 163.2 302.8 164.6 303.4 165.5 304.6 C 165.5 304.6 165.5 302.1 165.5 302.1 C 165.5 300.1 164.4 299 162.5 299 C 161.2 299 160 299.5 158.9 300.8 C 158.9 300.8 157.9 299.3 157.9 299.3 C 159.3 297.8 161 297.2 162.9 297.2 C 165.7 297.2 167.7 298.6 167.7 301.9 C 167.66 301.88 167.7 312 167.7 312 L 165.5 312 Z M 165.5 309 C 165.5 309 165.5 306.2 165.5 306.2 C 164.8 305 163.6 304.4 162.4 304.4 C 160.6 304.4 159.5 305.8 159.5 307.6 C 159.5 309.4 160.6 310.8 162.4 310.8 C 163.6 310.8 164.8 310.2 165.5 309 Z M 171.3 312 L 171.3 297.5 L 173.4 297.5 C 173.4 297.5 173.42 299.84 173.4 299.8 C 174.4 298.3 175.8 297.2 177.5 297.2 C 177.5 297.2 177.5 299.5 177.5 299.5 C 177.3 299.4 177.1 299.4 176.8 299.4 C 175.5 299.4 174 300.5 173.4 301.7 C 173.42 301.73 173.4 312 173.4 312 L 171.3 312 Z M 187.6 312 C 187.6 312 187.55 301.7 187.6 301.7 C 187.6 299.8 186.7 299.1 185.2 299.1 C 183.8 299.1 182.5 300.2 181.9 301.4 C 181.85 301.4 181.9 312 181.9 312 L 179.7 312 L 179.7 297.5 L 181.9 297.5 C 181.9 297.5 181.85 299.6 181.9 299.6 C 182.7 298.3 184.3 297.2 186.1 297.2 C 188.5 297.2 189.7 298.5 189.7 301.1 C 189.71 301.1 189.7 312 189.7 312 L 187.6 312 Z M 193 294 C 193 293.2 193.6 292.5 194.4 292.5 C 195.2 292.5 195.9 293.2 195.9 294 C 195.9 294.8 195.2 295.4 194.4 295.4 C 193.6 295.4 193 294.8 193 294 Z M 193.4 312 L 193.4 297.5 L 195.5 297.5 L 195.5 312 L 193.4 312 Z M 198 310.3 C 198 310.3 199.1 308.8 199.1 308.8 C 199.9 309.8 201.3 310.6 202.9 310.6 C 204.5 310.6 205.6 309.7 205.6 308.3 C 205.6 304.9 198.4 306.1 198.4 301.1 C 198.4 298.9 200.2 297.2 203 297.2 C 205 297.2 206.4 297.9 207.4 299 C 207.4 299 206.4 300.5 206.4 300.5 C 205.7 299.5 204.5 298.9 203.1 298.9 C 201.5 298.9 200.5 299.8 200.5 301 C 200.5 304.1 207.7 303 207.7 308.2 C 207.7 310.6 205.9 312.4 202.9 312.4 C 200.8 312.4 199.2 311.7 198 310.3 Z M 218.3 312 C 218.3 312 218.33 301.67 218.3 301.7 C 218.3 299.8 217.4 299.1 216 299.1 C 214.6 299.1 213.3 300.2 212.6 301.4 C 212.6 301.4 212.6 312 212.6 312 L 210.5 312 L 210.5 292 L 212.6 292 C 212.6 292 212.6 299.6 212.6 299.6 C 213.4 298.3 215.1 297.2 216.8 297.2 C 219.3 297.2 220.5 298.4 220.5 301 C 220.46 301.04 220.5 312 220.5 312 L 218.3 312 Z M 241 312 L 237.9 300.4 L 234.7 312 L 232.6 312 L 228.7 297.5 L 230.9 297.5 L 233.8 309.1 L 236.8 297.5 L 238.9 297.5 L 241.9 309.1 L 244.8 297.5 L 247 297.5 L 243.2 312 L 241 312 Z M 248.7 294 C 248.7 293.2 249.4 292.5 250.2 292.5 C 251 292.5 251.6 293.2 251.6 294 C 251.6 294.8 251 295.4 250.2 295.4 C 249.4 295.4 248.7 294.8 248.7 294 Z M 249.1 312 L 249.1 297.5 L 251.2 297.5 L 251.2 312 L 249.1 312 Z M 255.3 309.1 C 255.32 309.11 255.3 299.4 255.3 299.4 L 253.4 299.4 L 253.4 297.5 L 255.3 297.5 L 255.3 293.6 L 257.5 293.6 L 257.5 297.5 L 259.9 297.5 L 259.9 299.4 L 257.5 299.4 C 257.5 299.4 257.48 308.72 257.5 308.7 C 257.5 309.8 257.8 310.5 258.7 310.5 C 259.2 310.5 259.6 310.2 259.9 309.9 C 259.9 309.9 260.6 311.5 260.6 311.5 C 260.1 312 259.3 312.4 258.2 312.4 C 256.3 312.4 255.3 311.3 255.3 309.1 Z M 270.4 312 C 270.4 312 270.35 301.67 270.4 301.7 C 270.4 299.8 269.5 299.1 268 299.1 C 266.6 299.1 265.3 300.2 264.6 301.4 C 264.62 301.4 264.6 312 264.6 312 L 262.5 312 L 262.5 292 L 264.6 292 C 264.6 292 264.62 299.6 264.6 299.6 C 265.5 298.3 267.1 297.2 268.9 297.2 C 271.3 297.2 272.5 298.4 272.5 301 C 272.48 301.04 272.5 312 272.5 312 L 270.4 312 Z M 284.4 309.9 C 284.42 309.92 284.4 317.5 284.4 317.5 L 282.3 317.5 L 282.3 297.5 L 284.4 297.5 C 284.4 297.5 284.42 299.6 284.4 299.6 C 285.3 298.1 286.7 297.2 288.2 297.2 C 291.5 297.2 293.4 300.2 293.4 304.8 C 293.4 309.3 291.5 312.4 288.2 312.4 C 286.8 312.4 285.3 311.5 284.4 309.9 Z M 291.2 304.8 C 291.2 301.6 290.1 299.1 287.7 299.1 C 286.3 299.1 285 300.2 284.4 301.4 C 284.4 301.4 284.4 308.1 284.4 308.1 C 285 309.3 286.3 310.5 287.7 310.5 C 290.1 310.5 291.2 307.9 291.2 304.8 Z M 296.3 312 L 296.3 292 L 298.5 292 L 298.5 312 L 296.3 312 Z M 309.6 312 C 309.6 312 309.56 310.46 309.6 310.5 C 308.6 311.8 307.2 312.4 305.7 312.4 C 303.4 312.4 301.4 310.6 301.4 307.6 C 301.4 304.5 303.4 302.8 305.7 302.8 C 307.2 302.8 308.7 303.4 309.6 304.6 C 309.6 304.6 309.6 302.1 309.6 302.1 C 309.6 300.1 308.5 299 306.6 299 C 305.2 299 304.1 299.5 303 300.8 C 303 300.8 302 299.3 302 299.3 C 303.4 297.8 305.1 297.2 306.9 297.2 C 309.8 297.2 311.7 298.6 311.7 301.9 C 311.72 301.88 311.7 312 311.7 312 L 309.6 312 Z M 309.6 309 C 309.6 309 309.6 306.2 309.6 306.2 C 308.9 305 307.7 304.4 306.4 304.4 C 304.6 304.4 303.6 305.8 303.6 307.6 C 303.6 309.4 304.6 310.8 306.4 310.8 C 307.7 310.8 308.9 310.2 309.6 309 Z M 314.2 310.3 C 314.2 310.3 315.3 308.8 315.3 308.8 C 316.1 309.8 317.5 310.6 319 310.6 C 320.7 310.6 321.8 309.7 321.8 308.3 C 321.8 304.9 314.6 306.1 314.6 301.1 C 314.6 298.9 316.3 297.2 319.2 297.2 C 321.1 297.2 322.6 297.9 323.6 299 C 323.6 299 322.6 300.5 322.6 300.5 C 321.9 299.5 320.7 298.9 319.2 298.9 C 317.7 298.9 316.7 299.8 316.7 301 C 316.7 304.1 323.9 303 323.9 308.2 C 323.9 310.6 322 312.4 319.1 312.4 C 317 312.4 315.4 311.7 314.2 310.3 Z M 327.1 309.1 C 327.08 309.11 327.1 299.4 327.1 299.4 L 325.2 299.4 L 325.2 297.5 L 327.1 297.5 L 327.1 293.6 L 329.2 293.6 L 329.2 297.5 L 331.7 297.5 L 331.7 299.4 L 329.2 299.4 C 329.2 299.4 329.24 308.72 329.2 308.7 C 329.2 309.8 329.6 310.5 330.4 310.5 C 330.9 310.5 331.4 310.2 331.7 309.9 C 331.7 309.9 332.3 311.5 332.3 311.5 C 331.8 312 331.1 312.4 330 312.4 C 328 312.4 327.1 311.3 327.1 309.1 Z M 333.8 294 C 333.8 293.2 334.5 292.5 335.3 292.5 C 336.1 292.5 336.8 293.2 336.8 294 C 336.8 294.8 336.1 295.4 335.3 295.4 C 334.5 295.4 333.8 294.8 333.8 294 Z M 334.2 312 L 334.2 297.5 L 336.4 297.5 L 336.4 312 L 334.2 312 Z M 339.3 304.8 C 339.3 300.5 341.6 297.2 345.3 297.2 C 347.3 297.2 348.6 298 349.5 299.1 C 349.5 299.1 348.3 300.6 348.3 300.6 C 347.5 299.5 346.6 299.1 345.5 299.1 C 342.9 299.1 341.6 301.7 341.6 304.8 C 341.6 307.9 342.9 310.5 345.5 310.5 C 346.6 310.5 347.5 310 348.3 309 C 348.3 309 349.5 310.5 349.5 310.5 C 348.6 311.6 347.3 312.4 345.3 312.4 C 341.6 312.4 339.3 309.1 339.3 304.8 Z M 356.9 310.3 C 356.9 310.3 358 308.8 358 308.8 C 358.8 309.8 360.2 310.6 361.8 310.6 C 363.4 310.6 364.5 309.7 364.5 308.3 C 364.5 304.9 357.3 306.1 357.3 301.1 C 357.3 298.9 359.1 297.2 361.9 297.2 C 363.9 297.2 365.3 297.9 366.3 299 C 366.3 299 365.3 300.5 365.3 300.5 C 364.6 299.5 363.4 298.9 362 298.9 C 360.4 298.9 359.4 299.8 359.4 301 C 359.4 304.1 366.6 303 366.6 308.2 C 366.6 310.6 364.8 312.4 361.8 312.4 C 359.7 312.4 358.1 311.7 356.9 310.3 Z M 377.2 312 C 377.2 312 377.24 301.67 377.2 301.7 C 377.2 299.8 376.3 299.1 374.9 299.1 C 373.5 299.1 372.2 300.2 371.5 301.4 C 371.51 301.4 371.5 312 371.5 312 L 369.4 312 L 369.4 292 L 371.5 292 C 371.5 292 371.51 299.6 371.5 299.6 C 372.3 298.3 374 297.2 375.7 297.2 C 378.2 297.2 379.4 298.4 379.4 301 C 379.37 301.04 379.4 312 379.4 312 L 377.2 312 Z M 390.5 312 C 390.5 312 390.47 310.46 390.5 310.5 C 389.5 311.8 388.1 312.4 386.7 312.4 C 384.3 312.4 382.3 310.6 382.3 307.6 C 382.3 304.5 384.3 302.8 386.7 302.8 C 388.1 302.8 389.6 303.4 390.5 304.6 C 390.5 304.6 390.5 302.1 390.5 302.1 C 390.5 300.1 389.4 299 387.5 299 C 386.1 299 385 299.5 383.9 300.8 C 383.9 300.8 382.9 299.3 382.9 299.3 C 384.3 297.8 386 297.2 387.8 297.2 C 390.7 297.2 392.6 298.6 392.6 301.9 C 392.63 301.88 392.6 312 392.6 312 L 390.5 312 Z M 390.5 309 C 390.5 309 390.5 306.2 390.5 306.2 C 389.8 305 388.6 304.4 387.3 304.4 C 385.5 304.4 384.5 305.8 384.5 307.6 C 384.5 309.4 385.5 310.8 387.3 310.8 C 388.6 310.8 389.8 310.2 390.5 309 Z M 399.2 312 L 394.5 297.5 L 396.8 297.5 L 400.4 309.5 L 404 297.5 L 406.3 297.5 L 401.6 312 L 399.2 312 Z M 407.8 294 C 407.8 293.2 408.5 292.5 409.2 292.5 C 410.1 292.5 410.7 293.2 410.7 294 C 410.7 294.8 410.1 295.4 409.2 295.4 C 408.5 295.4 407.8 294.8 407.8 294 Z M 408.2 312 L 408.2 297.5 L 410.3 297.5 L 410.3 312 L 408.2 312 Z M 421.8 312 C 421.8 312 421.82 301.7 421.8 301.7 C 421.8 299.8 420.9 299.1 419.5 299.1 C 418.1 299.1 416.8 300.2 416.1 301.4 C 416.12 301.4 416.1 312 416.1 312 L 414 312 L 414 297.5 L 416.1 297.5 C 416.1 297.5 416.12 299.6 416.1 299.6 C 417 298.3 418.6 297.2 420.3 297.2 C 422.8 297.2 424 298.5 424 301.1 C 423.98 301.1 424 312 424 312 L 421.8 312 Z M 427.5 316.1 C 427.5 316.1 428.5 314.4 428.5 314.4 C 429.5 315.5 430.7 316.1 432.3 316.1 C 434.3 316.1 435.9 314.9 435.9 312.1 C 435.9 312.1 435.9 309.7 435.9 309.7 C 435.1 311.2 433.6 312.2 432.1 312.2 C 428.9 312.2 426.9 309.3 426.9 304.7 C 426.9 300.2 428.8 297.2 432.1 297.2 C 433.6 297.2 435 298 435.9 299.6 C 435.92 299.63 435.9 297.5 435.9 297.5 L 438.1 297.5 C 438.1 297.5 438.08 311.99 438.1 312 C 438.1 316.5 435.4 317.9 432.3 317.9 C 430.4 317.9 428.9 317.5 427.5 316.1 Z M 435.9 307.9 C 435.9 307.9 435.9 301.5 435.9 301.5 C 435.4 300.2 434 299.1 432.6 299.1 C 430.3 299.1 429.2 301.6 429.2 304.7 C 429.2 307.8 430.3 310.3 432.6 310.3 C 434 310.3 435.4 309.1 435.9 307.9 Z M 440.5 310.3 C 440.5 310.3 441.6 308.8 441.6 308.8 C 442.5 309.8 443.8 310.6 445.4 310.6 C 447.1 310.6 448.2 309.7 448.2 308.3 C 448.2 304.9 441 306.1 441 301.1 C 441 298.9 442.7 297.2 445.6 297.2 C 447.5 297.2 449 297.9 450 299 C 450 299 449 300.5 449 300.5 C 448.2 299.5 447 298.9 445.6 298.9 C 444 298.9 443 299.8 443 301 C 443 304.1 450.3 303 450.3 308.2 C 450.3 310.6 448.4 312.4 445.4 312.4 C 443.4 312.4 441.7 311.7 440.5 310.3 Z M 459.7 312 L 459.7 299.4 L 457.8 299.4 L 457.8 297.5 L 459.7 297.5 C 459.7 297.5 459.68 295.76 459.7 295.8 C 459.7 293.2 461.1 291.7 463.3 291.7 C 464.3 291.7 465.2 292 465.9 292.7 C 465.9 292.7 465 294.2 465 294.2 C 464.7 293.8 464.2 293.5 463.6 293.5 C 462.4 293.5 461.8 294.4 461.8 295.8 C 461.84 295.76 461.8 297.5 461.8 297.5 L 464.3 297.5 L 464.3 299.4 L 461.8 299.4 L 461.8 312 L 459.7 312 Z M 466.5 312 L 466.5 297.5 L 468.6 297.5 C 468.6 297.5 468.62 299.84 468.6 299.8 C 469.5 298.3 471 297.2 472.7 297.2 C 472.7 297.2 472.7 299.5 472.7 299.5 C 472.5 299.4 472.2 299.4 472 299.4 C 470.7 299.4 469.2 300.5 468.6 301.7 C 468.62 301.73 468.6 312 468.6 312 L 466.5 312 Z M 474.2 304.8 C 474.2 300.7 476.2 297.2 480.1 297.2 C 484 297.2 486 300.7 486 304.8 C 486 308.8 484 312.4 480.1 312.4 C 476.2 312.4 474.2 308.8 474.2 304.8 Z M 483.7 304.8 C 483.7 301.9 482.6 299.1 480.1 299.1 C 477.6 299.1 476.4 301.9 476.4 304.8 C 476.4 307.7 477.6 310.5 480.1 310.5 C 482.6 310.5 483.7 307.7 483.7 304.8 Z M 503.6 312 C 503.6 312 503.57 301.52 503.6 301.5 C 503.6 300 502.9 299.1 501.6 299.1 C 500.3 299.1 499 300.2 498.4 301.4 C 498.4 301.4 498.4 312 498.4 312 L 496.2 312 C 496.2 312 496.24 301.52 496.2 301.5 C 496.2 300 495.6 299.1 494.2 299.1 C 492.9 299.1 491.7 300.2 491.1 301.4 C 491.05 301.4 491.1 312 491.1 312 L 488.9 312 L 488.9 297.5 L 491.1 297.5 C 491.1 297.5 491.05 299.6 491.1 299.6 C 491.7 298.5 493.3 297.2 495 297.2 C 496.9 297.2 498 298.2 498.3 299.8 C 499 298.4 500.6 297.2 502.4 297.2 C 504.5 297.2 505.7 298.3 505.7 301 C 505.73 300.95 505.7 312 505.7 312 L 503.6 312 Z M 516 309.1 C 515.95 309.11 516 299.4 516 299.4 L 514 299.4 L 514 297.5 L 516 297.5 L 516 293.6 L 518.1 293.6 L 518.1 297.5 L 520.6 297.5 L 520.6 299.4 L 518.1 299.4 C 518.1 299.4 518.11 308.72 518.1 308.7 C 518.1 309.8 518.4 310.5 519.3 310.5 C 519.8 310.5 520.3 310.2 520.5 309.9 C 520.5 309.9 521.2 311.5 521.2 311.5 C 520.7 312 520 312.4 518.9 312.4 C 516.9 312.4 516 311.3 516 309.1 Z M 531 312 C 531 312 530.98 301.67 531 301.7 C 531 299.8 530.1 299.1 528.6 299.1 C 527.2 299.1 525.9 300.2 525.3 301.4 C 525.25 301.4 525.3 312 525.3 312 L 523.1 312 L 523.1 292 L 525.3 292 C 525.3 292 525.25 299.6 525.3 299.6 C 526.1 298.3 527.7 297.2 529.5 297.2 C 531.9 297.2 533.1 298.4 533.1 301 C 533.11 301.04 533.1 312 533.1 312 L 531 312 Z M 536.1 304.8 C 536.1 300.6 538.3 297.2 541.9 297.2 C 545.7 297.2 547.7 300.6 547.7 304.8 C 547.66 304.82 547.7 305.5 547.7 305.5 C 547.7 305.5 538.27 305.48 538.3 305.5 C 538.4 308.4 539.9 310.6 542.4 310.6 C 543.7 310.6 545 310 545.9 308.8 C 545.9 308.8 547 310.1 547 310.1 C 545.9 311.5 544.2 312.4 542.3 312.4 C 538.4 312.4 536.1 309.2 536.1 304.8 Z M 541.9 299 C 539.4 299 538.3 301.8 538.3 303.9 C 538.3 303.9 545.5 303.9 545.5 303.9 C 545.5 301.7 544.5 299 541.9 299 Z " stroke="none" fill="#efd8d3"/>  </g>  <g id="Polygon184481">    <path d="M 37.8 240 C 37.8 240 37.77 238.46 37.8 238.5 C 36.8 239.8 35.4 240.4 34 240.4 C 31.6 240.4 29.6 238.6 29.6 235.6 C 29.6 232.5 31.6 230.8 34 230.8 C 35.4 230.8 36.9 231.4 37.8 232.6 C 37.8 232.6 37.8 230.1 37.8 230.1 C 37.8 228.1 36.7 227 34.8 227 C 33.4 227 32.3 227.5 31.2 228.8 C 31.2 228.8 30.2 227.3 30.2 227.3 C 31.6 225.8 33.3 225.2 35.1 225.2 C 38 225.2 39.9 226.6 39.9 229.9 C 39.93 229.88 39.9 240 39.9 240 L 37.8 240 Z M 37.8 237 C 37.8 237 37.8 234.2 37.8 234.2 C 37.1 233 35.9 232.4 34.6 232.4 C 32.8 232.4 31.8 233.8 31.8 235.6 C 31.8 237.4 32.8 238.8 34.6 238.8 C 35.9 238.8 37.1 238.2 37.8 237 Z M 51.4 240 C 51.4 240 51.39 229.7 51.4 229.7 C 51.4 227.8 50.5 227.1 49.1 227.1 C 47.7 227.1 46.3 228.2 45.7 229.4 C 45.69 229.4 45.7 240 45.7 240 L 43.6 240 L 43.6 225.5 L 45.7 225.5 C 45.7 225.5 45.69 227.6 45.7 227.6 C 46.5 226.3 48.1 225.2 49.9 225.2 C 52.3 225.2 53.5 226.5 53.5 229.1 C 53.55 229.1 53.5 240 53.5 240 L 51.4 240 Z M 65.5 240 C 65.5 240 65.49 237.95 65.5 238 C 64.6 239.4 63.2 240.4 61.7 240.4 C 58.4 240.4 56.5 237.4 56.5 232.8 C 56.5 228.3 58.4 225.2 61.7 225.2 C 63.1 225.2 64.6 226 65.5 227.6 C 65.49 227.63 65.5 220 65.5 220 L 67.6 220 L 67.6 240 L 65.5 240 Z M 65.5 236.1 C 65.5 236.1 65.5 229.5 65.5 229.5 C 64.9 228.2 63.6 227.1 62.2 227.1 C 59.8 227.1 58.7 229.6 58.7 232.8 C 58.7 235.9 59.8 238.5 62.2 238.5 C 63.6 238.5 64.9 237.4 65.5 236.1 Z M 78 240 L 78 227.4 L 76 227.4 L 76 225.5 L 78 225.5 C 78 225.5 77.97 223.76 78 223.8 C 78 221.2 79.3 219.7 81.6 219.7 C 82.6 219.7 83.5 220 84.2 220.7 C 84.2 220.7 83.3 222.2 83.3 222.2 C 82.9 221.8 82.5 221.5 81.9 221.5 C 80.7 221.5 80.1 222.4 80.1 223.8 C 80.13 223.76 80.1 225.5 80.1 225.5 L 82.6 225.5 L 82.6 227.4 L 80.1 227.4 L 80.1 240 L 78 240 Z M 84.8 240 L 84.8 225.5 L 86.9 225.5 C 86.9 225.5 86.91 227.84 86.9 227.8 C 87.8 226.3 89.2 225.2 91 225.2 C 91 225.2 91 227.5 91 227.5 C 90.8 227.4 90.5 227.4 90.3 227.4 C 89 227.4 87.5 228.5 86.9 229.7 C 86.91 229.73 86.9 240 86.9 240 L 84.8 240 Z M 101 240 C 101 240 101.04 238.01 101 238 C 100.2 239.3 98.6 240.4 96.8 240.4 C 94.4 240.4 93.2 239.2 93.2 236.5 C 93.21 236.51 93.2 225.5 93.2 225.5 L 95.3 225.5 C 95.3 225.5 95.34 235.88 95.3 235.9 C 95.3 237.8 96.2 238.5 97.6 238.5 C 99.1 238.5 100.4 237.4 101 236.2 C 101.04 236.21 101 225.5 101 225.5 L 103.2 225.5 L 103.2 240 L 101 240 Z M 106.4 222 C 106.4 221.2 107.1 220.5 107.9 220.5 C 108.7 220.5 109.4 221.2 109.4 222 C 109.4 222.8 108.7 223.4 107.9 223.4 C 107.1 223.4 106.4 222.8 106.4 222 Z M 106.9 240 L 106.9 225.5 L 109 225.5 L 109 240 L 106.9 240 Z M 113.1 237.1 C 113.06 237.11 113.1 227.4 113.1 227.4 L 111.1 227.4 L 111.1 225.5 L 113.1 225.5 L 113.1 221.6 L 115.2 221.6 L 115.2 225.5 L 117.7 225.5 L 117.7 227.4 L 115.2 227.4 C 115.2 227.4 115.22 236.72 115.2 236.7 C 115.2 237.8 115.6 238.5 116.4 238.5 C 116.9 238.5 117.4 238.2 117.7 237.9 C 117.7 237.9 118.3 239.5 118.3 239.5 C 117.8 240 117.1 240.4 116 240.4 C 114 240.4 113.1 239.3 113.1 237.1 Z M 134.2 240 C 134.2 240 134.21 229.7 134.2 229.7 C 134.2 227.8 133.3 227.1 131.9 227.1 C 130.5 227.1 129.2 228.2 128.5 229.4 C 128.51 229.4 128.5 240 128.5 240 L 126.4 240 L 126.4 225.5 L 128.5 225.5 C 128.5 225.5 128.51 227.6 128.5 227.6 C 129.4 226.3 131 225.2 132.7 225.2 C 135.2 225.2 136.4 226.5 136.4 229.1 C 136.37 229.1 136.4 240 136.4 240 L 134.2 240 Z M 139.3 232.8 C 139.3 228.6 141.5 225.2 145.2 225.2 C 149 225.2 150.9 228.6 150.9 232.8 C 150.92 232.82 150.9 233.5 150.9 233.5 C 150.9 233.5 141.53 233.48 141.5 233.5 C 141.6 236.4 143.1 238.6 145.7 238.6 C 147 238.6 148.3 238 149.2 236.8 C 149.2 236.8 150.3 238.1 150.3 238.1 C 149.1 239.5 147.5 240.4 145.5 240.4 C 141.7 240.4 139.3 237.2 139.3 232.8 Z M 145.2 227 C 142.6 227 141.6 229.8 141.5 231.9 C 141.5 231.9 148.8 231.9 148.8 231.9 C 148.8 229.7 147.8 227 145.2 227 Z M 154.2 237.1 C 154.19 237.11 154.2 227.4 154.2 227.4 L 152.3 227.4 L 152.3 225.5 L 154.2 225.5 L 154.2 221.6 L 156.4 221.6 L 156.4 225.5 L 158.8 225.5 L 158.8 227.4 L 156.4 227.4 C 156.4 227.4 156.35 236.72 156.4 236.7 C 156.4 237.8 156.7 238.5 157.5 238.5 C 158.1 238.5 158.5 238.2 158.8 237.9 C 158.8 237.9 159.4 239.5 159.4 239.5 C 158.9 240 158.2 240.4 157.1 240.4 C 155.1 240.4 154.2 239.3 154.2 237.1 Z M 172.9 238.5 C 175.3 238.5 176.4 235.9 176.4 232.8 C 176.4 229.6 175.3 227.1 172.9 227.1 C 171.6 227.1 170.2 228.2 169.6 229.5 C 169.6 229.5 169.6 236.1 169.6 236.1 C 170.2 237.4 171.6 238.5 172.9 238.5 Z M 167.5 240 L 167.5 220 L 169.6 220 C 169.6 220 169.64 227.63 169.6 227.6 C 170.5 226 172 225.2 173.5 225.2 C 176.7 225.2 178.6 228.3 178.6 232.8 C 178.6 237.4 176.7 240.4 173.5 240.4 C 171.9 240.4 170.5 239.4 169.6 238 C 169.64 237.95 169.6 240 169.6 240 L 167.5 240 Z M 189.1 240 C 189.1 240 189.05 238.46 189.1 238.5 C 188.1 239.8 186.7 240.4 185.2 240.4 C 182.9 240.4 180.9 238.6 180.9 235.6 C 180.9 232.5 182.9 230.8 185.2 230.8 C 186.7 230.8 188.2 231.4 189.1 232.6 C 189.1 232.6 189.1 230.1 189.1 230.1 C 189.1 228.1 188 227 186.1 227 C 184.7 227 183.6 227.5 182.5 228.8 C 182.5 228.8 181.5 227.3 181.5 227.3 C 182.9 225.8 184.6 225.2 186.4 225.2 C 189.3 225.2 191.2 226.6 191.2 229.9 C 191.21 229.88 191.2 240 191.2 240 L 189.1 240 Z M 189.1 237 C 189.1 237 189.1 234.2 189.1 234.2 C 188.4 233 187.2 232.4 185.9 232.4 C 184.1 232.4 183.1 233.8 183.1 235.6 C 183.1 237.4 184.1 238.8 185.9 238.8 C 187.2 238.8 188.4 238.2 189.1 237 Z M 193.7 238.3 C 193.7 238.3 194.8 236.8 194.8 236.8 C 195.6 237.8 197 238.6 198.5 238.6 C 200.2 238.6 201.3 237.7 201.3 236.3 C 201.3 232.9 194.1 234.1 194.1 229.1 C 194.1 226.9 195.8 225.2 198.7 225.2 C 200.6 225.2 202.1 225.9 203.1 227 C 203.1 227 202.1 228.5 202.1 228.5 C 201.4 227.5 200.2 226.9 198.7 226.9 C 197.2 226.9 196.2 227.8 196.2 229 C 196.2 232.1 203.4 231 203.4 236.2 C 203.4 238.6 201.5 240.4 198.6 240.4 C 196.5 240.4 194.9 239.7 193.7 238.3 Z M 205.4 232.8 C 205.4 228.6 207.7 225.2 211.3 225.2 C 215.1 225.2 217 228.6 217 232.8 C 217.04 232.82 217 233.5 217 233.5 C 217 233.5 207.65 233.48 207.7 233.5 C 207.7 236.4 209.2 238.6 211.8 238.6 C 213.1 238.6 214.4 238 215.3 236.8 C 215.3 236.8 216.4 238.1 216.4 238.1 C 215.2 239.5 213.6 240.4 211.6 240.4 C 207.8 240.4 205.4 237.2 205.4 232.8 Z M 211.3 227 C 208.7 227 207.7 229.8 207.7 231.9 C 207.7 231.9 214.9 231.9 214.9 231.9 C 214.9 229.7 213.9 227 211.3 227 Z M 219.6 238.7 C 219.6 237.9 220.3 237.1 221.2 237.1 C 222.1 237.1 222.8 237.9 222.8 238.7 C 222.8 239.6 222.1 240.3 221.2 240.3 C 220.3 240.3 219.6 239.6 219.6 238.7 Z " stroke="none" fill="#efd8d3"/>  </g>  <g id="Polygon184480">    <path d="M 0.9 201.1 C 0.9 201.1 2.4 199.6 2.4 199.6 C 3.4 201.1 4.8 202.3 6.7 202.3 C 9.1 202.3 10.3 200.8 10.3 198.4 C 10.3 195.7 8.6 194.8 6.5 194.8 C 5.9 194.8 5.2 194.8 4.9 194.8 C 4.9 194.8 4.9 192.7 4.9 192.7 C 5.2 192.7 6 192.7 6.5 192.7 C 8.5 192.7 10.1 191.6 10.1 189.4 C 10.1 187 8.7 185.8 6.7 185.8 C 4.9 185.8 3.6 186.8 2.6 188.2 C 2.6 188.2 1.1 186.9 1.1 186.9 C 2.3 184.9 4.3 183.7 6.8 183.7 C 10.1 183.7 12.5 185.5 12.5 189 C 12.5 191.5 10.7 193.3 8.9 193.7 C 10.7 193.9 12.8 195.7 12.8 198.6 C 12.8 202 10.6 204.4 6.8 204.4 C 4 204.4 1.9 202.9 0.9 201.1 Z M 15.7 202.7 C 15.7 201.9 16.4 201.1 17.3 201.1 C 18.2 201.1 18.9 201.9 18.9 202.7 C 18.9 203.6 18.2 204.3 17.3 204.3 C 16.4 204.3 15.7 203.6 15.7 202.7 Z M 40.9 204 L 39.6 199.5 L 32.5 199.5 L 31.2 204 L 28.6 204 L 34.6 184 L 37.4 184 L 43.4 204 L 40.9 204 Z M 36 186.7 L 33 197.4 L 39.1 197.4 L 36 186.7 Z M 53.6 204 C 53.6 204 53.58 201.95 53.6 202 C 52.7 203.4 51.3 204.4 49.8 204.4 C 46.5 204.4 44.6 201.4 44.6 196.8 C 44.6 192.3 46.5 189.2 49.8 189.2 C 51.2 189.2 52.7 190 53.6 191.6 C 53.58 191.63 53.6 184 53.6 184 L 55.7 184 L 55.7 204 L 53.6 204 Z M 53.6 200.1 C 53.6 200.1 53.6 193.5 53.6 193.5 C 53 192.2 51.7 191.1 50.3 191.1 C 47.9 191.1 46.8 193.6 46.8 196.8 C 46.8 199.9 47.9 202.5 50.3 202.5 C 51.7 202.5 53 201.4 53.6 200.1 Z M 67.7 204 C 67.7 204 67.68 201.95 67.7 202 C 66.8 203.4 65.4 204.4 63.9 204.4 C 60.6 204.4 58.7 201.4 58.7 196.8 C 58.7 192.3 60.6 189.2 63.9 189.2 C 65.3 189.2 66.8 190 67.7 191.6 C 67.68 191.63 67.7 184 67.7 184 L 69.8 184 L 69.8 204 L 67.7 204 Z M 67.7 200.1 C 67.7 200.1 67.7 193.5 67.7 193.5 C 67.1 192.2 65.8 191.1 64.4 191.1 C 62 191.1 60.9 193.6 60.9 196.8 C 60.9 199.9 62 202.5 64.4 202.5 C 65.8 202.5 67.1 201.4 67.7 200.1 Z M 78.5 202.3 C 78.5 202.3 79.6 200.8 79.6 200.8 C 80.4 201.8 81.8 202.6 83.3 202.6 C 85 202.6 86.1 201.7 86.1 200.3 C 86.1 196.9 78.9 198.1 78.9 193.1 C 78.9 190.9 80.6 189.2 83.5 189.2 C 85.4 189.2 86.9 189.9 87.9 191 C 87.9 191 86.9 192.5 86.9 192.5 C 86.2 191.5 85 190.9 83.5 190.9 C 82 190.9 81 191.8 81 193 C 81 196.1 88.2 195 88.2 200.2 C 88.2 202.6 86.3 204.4 83.4 204.4 C 81.3 204.4 79.7 203.7 78.5 202.3 Z M 98.4 204 C 98.4 204 98.4 202.46 98.4 202.5 C 97.5 203.8 96.1 204.4 94.6 204.4 C 92.2 204.4 90.2 202.6 90.2 199.6 C 90.2 196.5 92.2 194.8 94.6 194.8 C 96.1 194.8 97.5 195.4 98.4 196.6 C 98.4 196.6 98.4 194.1 98.4 194.1 C 98.4 192.1 97.3 191 95.4 191 C 94.1 191 92.9 191.5 91.8 192.8 C 91.8 192.8 90.8 191.3 90.8 191.3 C 92.2 189.8 93.9 189.2 95.8 189.2 C 98.6 189.2 100.6 190.6 100.6 193.9 C 100.56 193.88 100.6 204 100.6 204 L 98.4 204 Z M 98.4 201 C 98.4 201 98.4 198.2 98.4 198.2 C 97.7 197 96.5 196.4 95.3 196.4 C 93.5 196.4 92.4 197.8 92.4 199.6 C 92.4 201.4 93.5 202.8 95.3 202.8 C 96.5 202.8 97.7 202.2 98.4 201 Z M 104.2 204 L 104.2 184 L 106.3 184 L 106.3 204 L 104.2 204 Z M 110.4 201.1 C 110.39 201.11 110.4 191.4 110.4 191.4 L 108.5 191.4 L 108.5 189.5 L 110.4 189.5 L 110.4 185.6 L 112.6 185.6 L 112.6 189.5 L 115 189.5 L 115 191.4 L 112.6 191.4 C 112.6 191.4 112.55 200.72 112.6 200.7 C 112.6 201.8 112.9 202.5 113.7 202.5 C 114.3 202.5 114.7 202.2 115 201.9 C 115 201.9 115.6 203.5 115.6 203.5 C 115.1 204 114.4 204.4 113.3 204.4 C 111.3 204.4 110.4 203.3 110.4 201.1 Z M 124.1 201.1 C 124.13 201.11 124.1 191.4 124.1 191.4 L 122.2 191.4 L 122.2 189.5 L 124.1 189.5 L 124.1 185.6 L 126.3 185.6 L 126.3 189.5 L 128.8 189.5 L 128.8 191.4 L 126.3 191.4 C 126.3 191.4 126.29 200.72 126.3 200.7 C 126.3 201.8 126.6 202.5 127.5 202.5 C 128 202.5 128.5 202.2 128.7 201.9 C 128.7 201.9 129.4 203.5 129.4 203.5 C 128.9 204 128.2 204.4 127 204.4 C 125.1 204.4 124.1 203.3 124.1 201.1 Z M 130.6 196.8 C 130.6 192.7 132.6 189.2 136.5 189.2 C 140.4 189.2 142.4 192.7 142.4 196.8 C 142.4 200.8 140.4 204.4 136.5 204.4 C 132.6 204.4 130.6 200.8 130.6 196.8 Z M 140.1 196.8 C 140.1 193.9 139 191.1 136.5 191.1 C 134 191.1 132.8 193.9 132.8 196.8 C 132.8 199.7 134 202.5 136.5 202.5 C 139 202.5 140.1 199.7 140.1 196.8 Z M 151.9 201.1 C 151.88 201.11 151.9 191.4 151.9 191.4 L 150 191.4 L 150 189.5 L 151.9 189.5 L 151.9 185.6 L 154 185.6 L 154 189.5 L 156.5 189.5 L 156.5 191.4 L 154 191.4 C 154 191.4 154.04 200.72 154 200.7 C 154 201.8 154.4 202.5 155.2 202.5 C 155.8 202.5 156.2 202.2 156.5 201.9 C 156.5 201.9 157.1 203.5 157.1 203.5 C 156.6 204 155.9 204.4 154.8 204.4 C 152.8 204.4 151.9 203.3 151.9 201.1 Z M 166.5 204 C 166.5 204 166.49 202.46 166.5 202.5 C 165.6 203.8 164.2 204.4 162.7 204.4 C 160.3 204.4 158.3 202.6 158.3 199.6 C 158.3 196.5 160.3 194.8 162.7 194.8 C 164.2 194.8 165.6 195.4 166.5 196.6 C 166.5 196.6 166.5 194.1 166.5 194.1 C 166.5 192.1 165.4 191 163.5 191 C 162.2 191 161 191.5 159.9 192.8 C 159.9 192.8 158.9 191.3 158.9 191.3 C 160.3 189.8 162 189.2 163.9 189.2 C 166.7 189.2 168.7 190.6 168.7 193.9 C 168.65 193.88 168.7 204 168.7 204 L 166.5 204 Z M 166.5 201 C 166.5 201 166.5 198.2 166.5 198.2 C 165.8 197 164.6 196.4 163.4 196.4 C 161.6 196.4 160.5 197.8 160.5 199.6 C 160.5 201.4 161.6 202.8 163.4 202.8 C 164.6 202.8 165.8 202.2 166.5 201 Z M 171.1 202.3 C 171.1 202.3 172.2 200.8 172.2 200.8 C 173 201.8 174.4 202.6 176 202.6 C 177.7 202.6 178.8 201.7 178.8 200.3 C 178.8 196.9 171.5 198.1 171.5 193.1 C 171.5 190.9 173.3 189.2 176.2 189.2 C 178.1 189.2 179.5 189.9 180.6 191 C 180.6 191 179.5 192.5 179.5 192.5 C 178.8 191.5 177.6 190.9 176.2 190.9 C 174.6 190.9 173.6 191.8 173.6 193 C 173.6 196.1 180.8 195 180.8 200.2 C 180.8 202.6 179 204.4 176 204.4 C 174 204.4 172.3 203.7 171.1 202.3 Z M 184 201.1 C 184.01 201.11 184 191.4 184 191.4 L 182.1 191.4 L 182.1 189.5 L 184 189.5 L 184 185.6 L 186.2 185.6 L 186.2 189.5 L 188.6 189.5 L 188.6 191.4 L 186.2 191.4 C 186.2 191.4 186.17 200.72 186.2 200.7 C 186.2 201.8 186.5 202.5 187.3 202.5 C 187.9 202.5 188.3 202.2 188.6 201.9 C 188.6 201.9 189.3 203.5 189.3 203.5 C 188.8 204 188 204.4 186.9 204.4 C 184.9 204.4 184 203.3 184 201.1 Z M 190.5 196.8 C 190.5 192.6 192.7 189.2 196.3 189.2 C 200.2 189.2 202.1 192.6 202.1 196.8 C 202.07 196.82 202.1 197.5 202.1 197.5 C 202.1 197.5 192.68 197.48 192.7 197.5 C 192.8 200.4 194.3 202.6 196.9 202.6 C 198.1 202.6 199.4 202 200.3 200.8 C 200.3 200.8 201.4 202.1 201.4 202.1 C 200.3 203.5 198.6 204.4 196.7 204.4 C 192.8 204.4 190.5 201.2 190.5 196.8 Z M 196.3 191 C 193.8 191 192.7 193.8 192.7 195.9 C 192.7 195.9 199.9 195.9 199.9 195.9 C 199.9 193.7 199 191 196.3 191 Z M 218.5 204 C 218.5 204 218.51 202.46 218.5 202.5 C 217.6 203.8 216.2 204.4 214.7 204.4 C 212.4 204.4 210.3 202.6 210.3 199.6 C 210.3 196.5 212.3 194.8 214.7 194.8 C 216.2 194.8 217.6 195.4 218.5 196.6 C 218.5 196.6 218.5 194.1 218.5 194.1 C 218.5 192.1 217.4 191 215.5 191 C 214.2 191 213 191.5 211.9 192.8 C 211.9 192.8 211 191.3 211 191.3 C 212.3 189.8 214 189.2 215.9 189.2 C 218.8 189.2 220.7 190.6 220.7 193.9 C 220.67 193.88 220.7 204 220.7 204 L 218.5 204 Z M 218.5 201 C 218.5 201 218.5 198.2 218.5 198.2 C 217.9 197 216.7 196.4 215.4 196.4 C 213.6 196.4 212.5 197.8 212.5 199.6 C 212.5 201.4 213.6 202.8 215.4 202.8 C 216.7 202.8 217.9 202.2 218.5 201 Z M 232.1 204 C 232.1 204 232.13 193.7 232.1 193.7 C 232.1 191.8 231.3 191.1 229.8 191.1 C 228.4 191.1 227.1 192.2 226.4 193.4 C 226.43 193.4 226.4 204 226.4 204 L 224.3 204 L 224.3 189.5 L 226.4 189.5 C 226.4 189.5 226.43 191.6 226.4 191.6 C 227.3 190.3 228.9 189.2 230.6 189.2 C 233.1 189.2 234.3 190.5 234.3 193.1 C 234.29 193.1 234.3 204 234.3 204 L 232.1 204 Z M 246.2 204 C 246.2 204 246.23 201.95 246.2 202 C 245.4 203.4 244 204.4 242.4 204.4 C 239.2 204.4 237.2 201.4 237.2 196.8 C 237.2 192.3 239.2 189.2 242.4 189.2 C 243.9 189.2 245.4 190 246.2 191.6 C 246.23 191.63 246.2 184 246.2 184 L 248.4 184 L 248.4 204 L 246.2 204 Z M 246.2 200.1 C 246.2 200.1 246.2 193.5 246.2 193.5 C 245.7 192.2 244.3 191.1 243 191.1 C 240.6 191.1 239.5 193.6 239.5 196.8 C 239.5 199.9 240.6 202.5 243 202.5 C 244.3 202.5 245.7 201.4 246.2 200.1 Z M 257 202.3 C 257 202.3 258.1 200.8 258.1 200.8 C 259 201.8 260.3 202.6 261.9 202.6 C 263.6 202.6 264.7 201.7 264.7 200.3 C 264.7 196.9 257.5 198.1 257.5 193.1 C 257.5 190.9 259.2 189.2 262.1 189.2 C 264 189.2 265.5 189.9 266.5 191 C 266.5 191 265.5 192.5 265.5 192.5 C 264.7 191.5 263.5 190.9 262.1 190.9 C 260.5 190.9 259.5 191.8 259.5 193 C 259.5 196.1 266.8 195 266.8 200.2 C 266.8 202.6 264.9 204.4 261.9 204.4 C 259.9 204.4 258.2 203.7 257 202.3 Z M 268.8 196.8 C 268.8 192.6 271 189.2 274.7 189.2 C 278.5 189.2 280.4 192.6 280.4 196.8 C 280.4 196.82 280.4 197.5 280.4 197.5 C 280.4 197.5 271.01 197.48 271 197.5 C 271.1 200.4 272.6 202.6 275.2 202.6 C 276.4 202.6 277.7 202 278.6 200.8 C 278.6 200.8 279.8 202.1 279.8 202.1 C 278.6 203.5 277 204.4 275 204.4 C 271.1 204.4 268.8 201.2 268.8 196.8 Z M 274.6 191 C 272.1 191 271.1 193.8 271 195.9 C 271 195.9 278.3 195.9 278.3 195.9 C 278.2 193.7 277.3 191 274.6 191 Z M 283.3 204 L 283.3 189.5 L 285.4 189.5 C 285.4 189.5 285.38 191.84 285.4 191.8 C 286.3 190.3 287.7 189.2 289.5 189.2 C 289.5 189.2 289.5 191.5 289.5 191.5 C 289.3 191.4 289 191.4 288.8 191.4 C 287.5 191.4 286 192.5 285.4 193.7 C 285.38 193.73 285.4 204 285.4 204 L 283.3 204 Z M 294.6 204 L 289.9 189.5 L 292.2 189.5 L 295.8 201.5 L 299.4 189.5 L 301.8 189.5 L 297 204 L 294.6 204 Z M 302.9 196.8 C 302.9 192.6 305.1 189.2 308.8 189.2 C 312.6 189.2 314.5 192.6 314.5 196.8 C 314.51 196.82 314.5 197.5 314.5 197.5 C 314.5 197.5 305.12 197.48 305.1 197.5 C 305.2 200.4 306.7 202.6 309.3 202.6 C 310.5 202.6 311.8 202 312.7 200.8 C 312.7 200.8 313.9 202.1 313.9 202.1 C 312.7 203.5 311.1 204.4 309.1 204.4 C 305.2 204.4 302.9 201.2 302.9 196.8 Z M 308.7 191 C 306.2 191 305.2 193.8 305.1 195.9 C 305.1 195.9 312.4 195.9 312.4 195.9 C 312.3 193.7 311.4 191 308.7 191 Z M 322.8 196.8 C 322.8 192.7 324.8 189.2 328.7 189.2 C 332.6 189.2 334.6 192.7 334.6 196.8 C 334.6 200.8 332.6 204.4 328.7 204.4 C 324.8 204.4 322.8 200.8 322.8 196.8 Z M 332.3 196.8 C 332.3 193.9 331.2 191.1 328.7 191.1 C 326.2 191.1 325 193.9 325 196.8 C 325 199.7 326.2 202.5 328.7 202.5 C 331.2 202.5 332.3 199.7 332.3 196.8 Z M 345.3 204 C 345.3 204 345.35 193.7 345.3 193.7 C 345.3 191.8 344.5 191.1 343 191.1 C 341.6 191.1 340.3 192.2 339.6 193.4 C 339.65 193.4 339.6 204 339.6 204 L 337.5 204 L 337.5 189.5 L 339.6 189.5 C 339.6 189.5 339.65 191.6 339.6 191.6 C 340.5 190.3 342.1 189.2 343.8 189.2 C 346.3 189.2 347.5 190.5 347.5 193.1 C 347.51 193.1 347.5 204 347.5 204 L 345.3 204 Z M 357.7 201.1 C 357.74 201.11 357.7 191.4 357.7 191.4 L 355.8 191.4 L 355.8 189.5 L 357.7 189.5 L 357.7 185.6 L 359.9 185.6 L 359.9 189.5 L 362.4 189.5 L 362.4 191.4 L 359.9 191.4 C 359.9 191.4 359.9 200.72 359.9 200.7 C 359.9 201.8 360.2 202.5 361.1 202.5 C 361.6 202.5 362.1 202.2 362.3 201.9 C 362.3 201.9 363 203.5 363 203.5 C 362.5 204 361.8 204.4 360.6 204.4 C 358.7 204.4 357.7 203.3 357.7 201.1 Z M 364.2 196.8 C 364.2 192.7 366.2 189.2 370.1 189.2 C 374 189.2 376 192.7 376 196.8 C 376 200.8 374 204.4 370.1 204.4 C 366.2 204.4 364.2 200.8 364.2 196.8 Z M 373.7 196.8 C 373.7 193.9 372.6 191.1 370.1 191.1 C 367.6 191.1 366.4 193.9 366.4 196.8 C 366.4 199.7 367.6 202.5 370.1 202.5 C 372.6 202.5 373.7 199.7 373.7 196.8 Z M 381 201.9 C 381.05 201.92 381 209.5 381 209.5 L 378.9 209.5 L 378.9 189.5 L 381 189.5 C 381 189.5 381.05 191.6 381 191.6 C 381.9 190.1 383.3 189.2 384.9 189.2 C 388.1 189.2 390 192.2 390 196.8 C 390 201.3 388.1 204.4 384.9 204.4 C 383.4 204.4 381.9 203.5 381 201.9 Z M 387.8 196.8 C 387.8 193.6 386.7 191.1 384.3 191.1 C 383 191.1 381.6 192.2 381 193.4 C 381 193.4 381 200.1 381 200.1 C 381.6 201.3 383 202.5 384.3 202.5 C 386.7 202.5 387.8 199.9 387.8 196.8 Z M 398.4 196.8 C 398.4 192.7 400.4 189.2 404.3 189.2 C 408.2 189.2 410.2 192.7 410.2 196.8 C 410.2 200.8 408.2 204.4 404.3 204.4 C 400.4 204.4 398.4 200.8 398.4 196.8 Z M 407.9 196.8 C 407.9 193.9 406.8 191.1 404.3 191.1 C 401.8 191.1 400.6 193.9 400.6 196.8 C 400.6 199.7 401.8 202.5 404.3 202.5 C 406.8 202.5 407.9 199.7 407.9 196.8 Z M 413.6 204 L 413.6 191.4 L 411.7 191.4 L 411.7 189.5 L 413.6 189.5 C 413.6 189.5 413.63 187.76 413.6 187.8 C 413.6 185.2 415 183.7 417.3 183.7 C 418.2 183.7 419.1 184 419.8 184.7 C 419.8 184.7 419 186.2 419 186.2 C 418.6 185.8 418.2 185.5 417.6 185.5 C 416.4 185.5 415.8 186.4 415.8 187.8 C 415.79 187.76 415.8 189.5 415.8 189.5 L 418.2 189.5 L 418.2 191.4 L 415.8 191.4 L 415.8 204 L 413.6 204 Z M 427 201.1 C 427.01 201.11 427 191.4 427 191.4 L 425.1 191.4 L 425.1 189.5 L 427 189.5 L 427 185.6 L 429.2 185.6 L 429.2 189.5 L 431.6 189.5 L 431.6 191.4 L 429.2 191.4 C 429.2 191.4 429.17 200.72 429.2 200.7 C 429.2 201.8 429.5 202.5 430.3 202.5 C 430.9 202.5 431.3 202.2 431.6 201.9 C 431.6 201.9 432.3 203.5 432.3 203.5 C 431.7 204 431 204.4 429.9 204.4 C 427.9 204.4 427 203.3 427 201.1 Z M 442 204 C 442 204 442.04 193.67 442 193.7 C 442 191.8 441.1 191.1 439.7 191.1 C 438.3 191.1 437 192.2 436.3 193.4 C 436.31 193.4 436.3 204 436.3 204 L 434.2 204 L 434.2 184 L 436.3 184 C 436.3 184 436.31 191.6 436.3 191.6 C 437.1 190.3 438.8 189.2 440.5 189.2 C 443 189.2 444.2 190.4 444.2 193 C 444.17 193.04 444.2 204 444.2 204 L 442 204 Z M 447.1 196.8 C 447.1 192.6 449.3 189.2 453 189.2 C 456.8 189.2 458.7 192.6 458.7 196.8 C 458.72 196.82 458.7 197.5 458.7 197.5 C 458.7 197.5 449.33 197.48 449.3 197.5 C 449.4 200.4 450.9 202.6 453.5 202.6 C 454.8 202.6 456 202 456.9 200.8 C 456.9 200.8 458.1 202.1 458.1 202.1 C 456.9 203.5 455.3 204.4 453.3 204.4 C 449.4 204.4 447.1 201.2 447.1 196.8 Z M 453 191 C 450.4 191 449.4 193.8 449.3 195.9 C 449.3 195.9 456.6 195.9 456.6 195.9 C 456.6 193.7 455.6 191 453 191 Z M 466.5 202.3 C 466.5 202.3 467.6 200.8 467.6 200.8 C 468.5 201.8 469.8 202.6 471.4 202.6 C 473.1 202.6 474.2 201.7 474.2 200.3 C 474.2 196.9 467 198.1 467 193.1 C 467 190.9 468.7 189.2 471.6 189.2 C 473.5 189.2 475 189.9 476 191 C 476 191 475 192.5 475 192.5 C 474.3 191.5 473 190.9 471.6 190.9 C 470 190.9 469 191.8 469 193 C 469 196.1 476.3 195 476.3 200.2 C 476.3 202.6 474.4 204.4 471.4 204.4 C 469.4 204.4 467.7 203.7 466.5 202.3 Z M 478.3 196.8 C 478.3 192.6 480.5 189.2 484.2 189.2 C 488 189.2 489.9 192.6 489.9 196.8 C 489.92 196.82 489.9 197.5 489.9 197.5 C 489.9 197.5 480.53 197.48 480.5 197.5 C 480.6 200.4 482.1 202.6 484.7 202.6 C 486 202.6 487.2 202 488.1 200.8 C 488.1 200.8 489.3 202.1 489.3 202.1 C 488.1 203.5 486.5 204.4 484.5 204.4 C 480.6 204.4 478.3 201.2 478.3 196.8 Z M 484.2 191 C 481.6 191 480.6 193.8 480.5 195.9 C 480.5 195.9 487.8 195.9 487.8 195.9 C 487.8 193.7 486.8 191 484.2 191 Z M 500.2 204 C 500.2 204 500.21 202.46 500.2 202.5 C 499.3 203.8 497.9 204.4 496.4 204.4 C 494.1 204.4 492 202.6 492 199.6 C 492 196.5 494 194.8 496.4 194.8 C 497.9 194.8 499.3 195.4 500.2 196.6 C 500.2 196.6 500.2 194.1 500.2 194.1 C 500.2 192.1 499.1 191 497.2 191 C 495.9 191 494.7 191.5 493.6 192.8 C 493.6 192.8 492.6 191.3 492.6 191.3 C 494 189.8 495.7 189.2 497.6 189.2 C 500.4 189.2 502.4 190.6 502.4 193.9 C 502.37 193.88 502.4 204 502.4 204 L 500.2 204 Z M 500.2 201 C 500.2 201 500.2 198.2 500.2 198.2 C 499.5 197 498.3 196.4 497.1 196.4 C 495.3 196.4 494.2 197.8 494.2 199.6 C 494.2 201.4 495.3 202.8 497.1 202.8 C 498.3 202.8 499.5 202.2 500.2 201 Z M 506 204 L 506 189.5 L 508.1 189.5 C 508.1 189.5 508.13 191.84 508.1 191.8 C 509.1 190.3 510.5 189.2 512.2 189.2 C 512.2 189.2 512.2 191.5 512.2 191.5 C 512 191.4 511.8 191.4 511.5 191.4 C 510.2 191.4 508.7 192.5 508.1 193.7 C 508.13 193.73 508.1 204 508.1 204 L 506 204 Z M 513.7 196.8 C 513.7 192.6 515.9 189.2 519.6 189.2 C 523.4 189.2 525.3 192.6 525.3 196.8 C 525.31 196.82 525.3 197.5 525.3 197.5 C 525.3 197.5 515.92 197.48 515.9 197.5 C 516 200.4 517.5 202.6 520.1 202.6 C 521.4 202.6 522.6 202 523.5 200.8 C 523.5 200.8 524.7 202.1 524.7 202.1 C 523.5 203.5 521.9 204.4 519.9 204.4 C 516 204.4 513.7 201.2 513.7 196.8 Z M 519.6 191 C 517 191 516 193.8 515.9 195.9 C 515.9 195.9 523.2 195.9 523.2 195.9 C 523.2 193.7 522.2 191 519.6 191 Z M 536.4 204 C 536.4 204 536.44 201.95 536.4 202 C 535.6 203.4 534.2 204.4 532.6 204.4 C 529.4 204.4 527.4 201.4 527.4 196.8 C 527.4 192.3 529.4 189.2 532.6 189.2 C 534.1 189.2 535.6 190 536.4 191.6 C 536.44 191.63 536.4 184 536.4 184 L 538.6 184 L 538.6 204 L 536.4 204 Z M 536.4 200.1 C 536.4 200.1 536.4 193.5 536.4 193.5 C 535.9 192.2 534.6 191.1 533.2 191.1 C 530.8 191.1 529.7 193.6 529.7 196.8 C 529.7 199.9 530.8 202.5 533.2 202.5 C 534.6 202.5 535.9 201.4 536.4 200.1 Z M 548.8 201.1 C 548.83 201.11 548.8 191.4 548.8 191.4 L 546.9 191.4 L 546.9 189.5 L 548.8 189.5 L 548.8 185.6 L 551 185.6 L 551 189.5 L 553.5 189.5 L 553.5 191.4 L 551 191.4 C 551 191.4 550.99 200.72 551 200.7 C 551 201.8 551.3 202.5 552.2 202.5 C 552.7 202.5 553.2 202.2 553.4 201.9 C 553.4 201.9 554.1 203.5 554.1 203.5 C 553.6 204 552.9 204.4 551.7 204.4 C 549.8 204.4 548.8 203.3 548.8 201.1 Z M 563.4 204 C 563.4 204 563.44 202.46 563.4 202.5 C 562.5 203.8 561.1 204.4 559.6 204.4 C 557.3 204.4 555.3 202.6 555.3 199.6 C 555.3 196.5 557.3 194.8 559.6 194.8 C 561.1 194.8 562.5 195.4 563.4 196.6 C 563.4 196.6 563.4 194.1 563.4 194.1 C 563.4 192.1 562.4 191 560.5 191 C 559.1 191 558 191.5 556.8 192.8 C 556.8 192.8 555.9 191.3 555.9 191.3 C 557.3 189.8 559 189.2 560.8 189.2 C 563.7 189.2 565.6 190.6 565.6 193.9 C 565.6 193.88 565.6 204 565.6 204 L 563.4 204 Z M 563.4 201 C 563.4 201 563.4 198.2 563.4 198.2 C 562.8 197 561.6 196.4 560.3 196.4 C 558.5 196.4 557.4 197.8 557.4 199.6 C 557.4 201.4 558.5 202.8 560.3 202.8 C 561.6 202.8 562.8 202.2 563.4 201 Z M 569.2 204 L 569.2 184 L 571.4 184 L 571.4 204 L 569.2 204 Z M 574.3 196.8 C 574.3 192.5 576.6 189.2 580.3 189.2 C 582.3 189.2 583.5 190 584.4 191.1 C 584.4 191.1 583.3 192.6 583.3 192.6 C 582.5 191.5 581.6 191.1 580.5 191.1 C 577.9 191.1 576.6 193.7 576.6 196.8 C 576.6 199.9 577.9 202.5 580.5 202.5 C 581.6 202.5 582.5 202 583.3 201 C 583.3 201 584.4 202.5 584.4 202.5 C 583.5 203.6 582.3 204.4 580.3 204.4 C 576.6 204.4 574.3 201.1 574.3 196.8 Z M 594.7 204 C 594.7 204 594.73 202.01 594.7 202 C 593.9 203.3 592.3 204.4 590.5 204.4 C 588.1 204.4 586.9 203.2 586.9 200.5 C 586.9 200.51 586.9 189.5 586.9 189.5 L 589 189.5 C 589 189.5 589.03 199.88 589 199.9 C 589 201.8 589.9 202.5 591.3 202.5 C 592.8 202.5 594.1 201.4 594.7 200.2 C 594.73 200.21 594.7 189.5 594.7 189.5 L 596.9 189.5 L 596.9 204 L 594.7 204 Z M 615.2 204 C 615.2 204 615.19 193.52 615.2 193.5 C 615.2 192 614.6 191.1 613.2 191.1 C 611.9 191.1 610.6 192.2 610 193.4 C 610.03 193.4 610 204 610 204 L 607.9 204 C 607.9 204 607.87 193.52 607.9 193.5 C 607.9 192 607.2 191.1 605.8 191.1 C 604.5 191.1 603.3 192.2 602.7 193.4 C 602.68 193.4 602.7 204 602.7 204 L 600.6 204 L 600.6 189.5 L 602.7 189.5 C 602.7 189.5 602.68 191.6 602.7 191.6 C 603.3 190.5 604.9 189.2 606.6 189.2 C 608.5 189.2 609.6 190.2 609.9 191.8 C 610.6 190.4 612.3 189.2 614 189.2 C 616.1 189.2 617.4 190.3 617.4 193 C 617.35 192.95 617.4 204 617.4 204 L 615.2 204 Z " stroke="none" fill="#efd8d3"/>  </g>  <g id="Polygon184479">    <path d="M 35.7 130.5 C 38.1 130.5 39.2 127.9 39.2 124.8 C 39.2 121.6 38.1 119.1 35.7 119.1 C 34.4 119.1 33 120.2 32.5 121.5 C 32.5 121.5 32.5 128.1 32.5 128.1 C 33 129.4 34.4 130.5 35.7 130.5 Z M 30.3 132 L 30.3 112 L 32.5 112 C 32.5 112 32.46 119.63 32.5 119.6 C 33.4 118 34.8 117.2 36.3 117.2 C 39.5 117.2 41.5 120.3 41.5 124.8 C 41.5 129.4 39.5 132.4 36.3 132.4 C 34.7 132.4 33.3 131.4 32.5 130 C 32.46 129.95 32.5 132 32.5 132 L 30.3 132 Z M 44.4 132 L 44.4 112 L 46.6 112 L 46.6 132 L 44.4 132 Z M 49.5 124.8 C 49.5 120.6 51.7 117.2 55.4 117.2 C 59.2 117.2 61.1 120.6 61.1 124.8 C 61.11 124.82 61.1 125.5 61.1 125.5 C 61.1 125.5 51.72 125.48 51.7 125.5 C 51.8 128.4 53.3 130.6 55.9 130.6 C 57.1 130.6 58.4 130 59.3 128.8 C 59.3 128.8 60.5 130.1 60.5 130.1 C 59.3 131.5 57.7 132.4 55.7 132.4 C 51.8 132.4 49.5 129.2 49.5 124.8 Z M 55.3 119 C 52.8 119 51.8 121.8 51.7 123.9 C 51.7 123.9 59 123.9 59 123.9 C 58.9 121.7 58 119 55.3 119 Z M 71.8 132 C 71.8 132 71.79 121.7 71.8 121.7 C 71.8 119.8 70.9 119.1 69.5 119.1 C 68.1 119.1 66.7 120.2 66.1 121.4 C 66.09 121.4 66.1 132 66.1 132 L 64 132 L 64 117.5 L 66.1 117.5 C 66.1 117.5 66.09 119.6 66.1 119.6 C 66.9 118.3 68.5 117.2 70.3 117.2 C 72.7 117.2 73.9 118.5 73.9 121.1 C 73.95 121.1 73.9 132 73.9 132 L 71.8 132 Z M 85.9 132 C 85.9 132 85.89 129.95 85.9 130 C 85 131.4 83.6 132.4 82.1 132.4 C 78.8 132.4 76.9 129.4 76.9 124.8 C 76.9 120.3 78.8 117.2 82.1 117.2 C 83.5 117.2 85 118 85.9 119.6 C 85.89 119.63 85.9 112 85.9 112 L 88 112 L 88 132 L 85.9 132 Z M 85.9 128.1 C 85.9 128.1 85.9 121.5 85.9 121.5 C 85.3 120.2 84 119.1 82.6 119.1 C 80.2 119.1 79.1 121.6 79.1 124.8 C 79.1 127.9 80.2 130.5 82.6 130.5 C 84 130.5 85.3 129.4 85.9 128.1 Z M 91 124.8 C 91 120.6 93.2 117.2 96.9 117.2 C 100.7 117.2 102.6 120.6 102.6 124.8 C 102.6 124.82 102.6 125.5 102.6 125.5 C 102.6 125.5 93.21 125.48 93.2 125.5 C 93.3 128.4 94.8 130.6 97.4 130.6 C 98.6 130.6 99.9 130 100.8 128.8 C 100.8 128.8 102 130.1 102 130.1 C 100.8 131.5 99.1 132.4 97.2 132.4 C 93.3 132.4 91 129.2 91 124.8 Z M 96.8 119 C 94.3 119 93.3 121.8 93.2 123.9 C 93.2 123.9 100.5 123.9 100.5 123.9 C 100.4 121.7 99.5 119 96.8 119 Z M 105.4 132 L 105.4 117.5 L 107.6 117.5 C 107.6 117.5 107.57 119.84 107.6 119.8 C 108.5 118.3 109.9 117.2 111.7 117.2 C 111.7 117.2 111.7 119.5 111.7 119.5 C 111.4 119.4 111.2 119.4 111 119.4 C 109.6 119.4 108.2 120.5 107.6 121.7 C 107.57 121.73 107.6 132 107.6 132 L 105.4 132 Z M 120.5 132 L 120.5 119.4 L 118.6 119.4 L 118.6 117.5 L 120.5 117.5 C 120.5 117.5 120.53 115.76 120.5 115.8 C 120.5 113.2 121.9 111.7 124.2 111.7 C 125.1 111.7 126 112 126.7 112.7 C 126.7 112.7 125.9 114.2 125.9 114.2 C 125.5 113.8 125.1 113.5 124.5 113.5 C 123.3 113.5 122.7 114.4 122.7 115.8 C 122.69 115.76 122.7 117.5 122.7 117.5 L 125.2 117.5 L 125.2 119.4 L 122.7 119.4 L 122.7 132 L 120.5 132 Z M 126.6 124.8 C 126.6 120.7 128.7 117.2 132.5 117.2 C 136.4 117.2 138.4 120.7 138.4 124.8 C 138.4 128.8 136.4 132.4 132.5 132.4 C 128.7 132.4 126.6 128.8 126.6 124.8 Z M 136.2 124.8 C 136.2 121.9 135.1 119.1 132.5 119.1 C 130 119.1 128.9 121.9 128.9 124.8 C 128.9 127.7 130 130.5 132.5 130.5 C 135.1 130.5 136.2 127.7 136.2 124.8 Z M 141.4 132 L 141.4 117.5 L 143.5 117.5 C 143.5 117.5 143.48 119.84 143.5 119.8 C 144.4 118.3 145.8 117.2 147.6 117.2 C 147.6 117.2 147.6 119.5 147.6 119.5 C 147.4 119.4 147.1 119.4 146.9 119.4 C 145.6 119.4 144.1 120.5 143.5 121.7 C 143.48 121.73 143.5 132 143.5 132 L 141.4 132 Z M 154.8 129.1 C 154.8 129.1 156.4 127.6 156.4 127.6 C 157.3 129.1 158.8 130.3 160.7 130.3 C 163.1 130.3 164.3 128.8 164.3 126.4 C 164.3 123.7 162.5 122.8 160.5 122.8 C 159.9 122.8 159.2 122.8 158.9 122.8 C 158.9 122.8 158.9 120.7 158.9 120.7 C 159.2 120.7 159.9 120.7 160.4 120.7 C 162.4 120.7 164.1 119.6 164.1 117.4 C 164.1 115 162.6 113.8 160.6 113.8 C 158.8 113.8 157.6 114.8 156.6 116.2 C 156.6 116.2 155.1 114.9 155.1 114.9 C 156.3 112.9 158.3 111.7 160.8 111.7 C 164 111.7 166.4 113.5 166.4 117 C 166.4 119.5 164.7 121.3 162.9 121.7 C 164.6 121.9 166.7 123.7 166.7 126.6 C 166.7 130 164.6 132.4 160.8 132.4 C 157.9 132.4 155.8 130.9 154.8 129.1 Z M 190.6 132 C 190.6 132 190.61 121.52 190.6 121.5 C 190.6 120 190 119.1 188.6 119.1 C 187.3 119.1 186 120.2 185.5 121.4 C 185.45 121.4 185.5 132 185.5 132 L 183.3 132 C 183.3 132 183.29 121.52 183.3 121.5 C 183.3 120 182.7 119.1 181.3 119.1 C 180 119.1 178.7 120.2 178.1 121.4 C 178.1 121.4 178.1 132 178.1 132 L 176 132 L 176 117.5 L 178.1 117.5 C 178.1 117.5 178.1 119.6 178.1 119.6 C 178.7 118.5 180.3 117.2 182.1 117.2 C 183.9 117.2 185.1 118.2 185.3 119.8 C 186.1 118.4 187.7 117.2 189.4 117.2 C 191.5 117.2 192.8 118.3 192.8 121 C 192.77 120.95 192.8 132 192.8 132 L 190.6 132 Z M 196 114 C 196 113.2 196.7 112.5 197.5 112.5 C 198.3 112.5 199 113.2 199 114 C 199 114.8 198.3 115.4 197.5 115.4 C 196.7 115.4 196 114.8 196 114 Z M 196.4 132 L 196.4 117.5 L 198.6 117.5 L 198.6 132 L 196.4 132 Z M 210.1 132 C 210.1 132 210.05 121.7 210.1 121.7 C 210.1 119.8 209.2 119.1 207.7 119.1 C 206.3 119.1 205 120.2 204.4 121.4 C 204.35 121.4 204.4 132 204.4 132 L 202.2 132 L 202.2 117.5 L 204.4 117.5 C 204.4 117.5 204.35 119.6 204.4 119.6 C 205.2 118.3 206.8 117.2 208.6 117.2 C 211 117.2 212.2 118.5 212.2 121.1 C 212.21 121.1 212.2 132 212.2 132 L 210.1 132 Z M 223.7 132 C 223.7 132 223.7 130.01 223.7 130 C 222.8 131.3 221.3 132.4 219.5 132.4 C 217 132.4 215.9 131.2 215.9 128.5 C 215.87 128.51 215.9 117.5 215.9 117.5 L 218 117.5 C 218 117.5 218 127.88 218 127.9 C 218 129.8 218.9 130.5 220.3 130.5 C 221.8 130.5 223.1 129.4 223.7 128.2 C 223.7 128.21 223.7 117.5 223.7 117.5 L 225.9 117.5 L 225.9 132 L 223.7 132 Z M 229.9 129.1 C 229.94 129.11 229.9 119.4 229.9 119.4 L 228 119.4 L 228 117.5 L 229.9 117.5 L 229.9 113.6 L 232.1 113.6 L 232.1 117.5 L 234.6 117.5 L 234.6 119.4 L 232.1 119.4 C 232.1 119.4 232.1 128.72 232.1 128.7 C 232.1 129.8 232.4 130.5 233.3 130.5 C 233.8 130.5 234.3 130.2 234.5 129.9 C 234.5 129.9 235.2 131.5 235.2 131.5 C 234.7 132 234 132.4 232.9 132.4 C 230.9 132.4 229.9 131.3 229.9 129.1 Z M 236.4 124.8 C 236.4 120.6 238.6 117.2 242.3 117.2 C 246.1 117.2 248 120.6 248 124.8 C 248 124.82 248 125.5 248 125.5 C 248 125.5 238.61 125.48 238.6 125.5 C 238.7 128.4 240.2 130.6 242.8 130.6 C 244 130.6 245.3 130 246.2 128.8 C 246.2 128.8 247.4 130.1 247.4 130.1 C 246.2 131.5 244.6 132.4 242.6 132.4 C 238.7 132.4 236.4 129.2 236.4 124.8 Z M 242.2 119 C 239.7 119 238.7 121.8 238.6 123.9 C 238.6 123.9 245.9 123.9 245.9 123.9 C 245.8 121.7 244.9 119 242.2 119 Z M 249.7 130.3 C 249.7 130.3 250.8 128.8 250.8 128.8 C 251.6 129.8 253 130.6 254.5 130.6 C 256.2 130.6 257.3 129.7 257.3 128.3 C 257.3 124.9 250.1 126.1 250.1 121.1 C 250.1 118.9 251.8 117.2 254.7 117.2 C 256.6 117.2 258.1 117.9 259.1 119 C 259.1 119 258.1 120.5 258.1 120.5 C 257.4 119.5 256.2 118.9 254.8 118.9 C 253.2 118.9 252.2 119.8 252.2 121 C 252.2 124.1 259.4 123 259.4 128.2 C 259.4 130.6 257.5 132.4 254.6 132.4 C 252.5 132.4 250.9 131.7 249.7 130.3 Z M 262 130.7 C 262 129.9 262.7 129.1 263.6 129.1 C 264.5 129.1 265.2 129.9 265.2 130.7 C 265.2 131.6 264.5 132.3 263.6 132.3 C 262.7 132.3 262 131.6 262 130.7 Z " stroke="none" fill="#efd8d3"/>  </g>  <g id="Polygon184478">    <path d="M 1.6 96 C 1.6 96 1.59 94.07 1.6 94.1 C 8.1 86.5 10.4 84.1 10.4 81.2 C 10.4 79 8.9 77.8 7.2 77.8 C 5.3 77.8 3.9 78.8 2.9 80.4 C 2.9 80.4 1.4 78.9 1.4 78.9 C 2.7 76.9 4.7 75.7 7.2 75.7 C 10.3 75.7 12.8 77.7 12.8 81.2 C 12.8 84.5 10.3 87.5 5 93.9 C 4.98 93.89 12.9 93.9 12.9 93.9 L 12.9 96 L 1.6 96 Z M 16.2 94.7 C 16.2 93.9 16.9 93.1 17.8 93.1 C 18.7 93.1 19.4 93.9 19.4 94.7 C 19.4 95.6 18.7 96.3 17.8 96.3 C 16.9 96.3 16.2 95.6 16.2 94.7 Z M 33.8 96 L 33.8 78.1 L 29.1 78.1 L 29.1 76 L 41 76 L 41 78.1 L 36.2 78.1 L 36.2 96 L 33.8 96 Z M 51.3 96 C 51.3 96 51.27 85.67 51.3 85.7 C 51.3 83.8 50.4 83.1 48.9 83.1 C 47.5 83.1 46.2 84.2 45.5 85.4 C 45.54 85.4 45.5 96 45.5 96 L 43.4 96 L 43.4 76 L 45.5 76 C 45.5 76 45.54 83.6 45.5 83.6 C 46.4 82.3 48 81.2 49.8 81.2 C 52.2 81.2 53.4 82.4 53.4 85 C 53.4 85.04 53.4 96 53.4 96 L 51.3 96 Z M 56.3 88.8 C 56.3 84.7 58.4 81.2 62.2 81.2 C 66.1 81.2 68.1 84.7 68.1 88.8 C 68.1 92.8 66.1 96.4 62.2 96.4 C 58.4 96.4 56.3 92.8 56.3 88.8 Z M 65.9 88.8 C 65.9 85.9 64.8 83.1 62.2 83.1 C 59.7 83.1 58.6 85.9 58.6 88.8 C 58.6 91.7 59.7 94.5 62.2 94.5 C 64.8 94.5 65.9 91.7 65.9 88.8 Z M 71.1 96 L 71.1 81.5 L 73.2 81.5 C 73.2 81.5 73.2 83.84 73.2 83.8 C 74.1 82.3 75.5 81.2 77.3 81.2 C 77.3 81.2 77.3 83.5 77.3 83.5 C 77.1 83.4 76.8 83.4 76.6 83.4 C 75.3 83.4 73.8 84.5 73.2 85.7 C 73.2 85.73 73.2 96 73.2 96 L 71.1 96 Z M 78.8 88.8 C 78.8 84.7 80.8 81.2 84.7 81.2 C 88.6 81.2 90.6 84.7 90.6 88.8 C 90.6 92.8 88.6 96.4 84.7 96.4 C 80.8 96.4 78.8 92.8 78.8 88.8 Z M 88.3 88.8 C 88.3 85.9 87.2 83.1 84.7 83.1 C 82.2 83.1 81 85.9 81 88.8 C 81 91.7 82.2 94.5 84.7 94.5 C 87.2 94.5 88.3 91.7 88.3 88.8 Z M 101.3 96 C 101.3 96 101.34 94.01 101.3 94 C 100.5 95.3 98.9 96.4 97.1 96.4 C 94.7 96.4 93.5 95.2 93.5 92.5 C 93.51 92.51 93.5 81.5 93.5 81.5 L 95.6 81.5 C 95.6 81.5 95.64 91.88 95.6 91.9 C 95.6 93.8 96.5 94.5 97.9 94.5 C 99.4 94.5 100.7 93.4 101.3 92.2 C 101.34 92.21 101.3 81.5 101.3 81.5 L 103.5 81.5 L 103.5 96 L 101.3 96 Z M 107 100.1 C 107 100.1 108 98.4 108 98.4 C 109 99.5 110.2 100.1 111.8 100.1 C 113.8 100.1 115.4 98.9 115.4 96.1 C 115.4 96.1 115.4 93.7 115.4 93.7 C 114.6 95.2 113.2 96.2 111.6 96.2 C 108.4 96.2 106.4 93.3 106.4 88.7 C 106.4 84.2 108.4 81.2 111.6 81.2 C 113.1 81.2 114.5 82 115.4 83.6 C 115.44 83.63 115.4 81.5 115.4 81.5 L 117.6 81.5 C 117.6 81.5 117.6 95.99 117.6 96 C 117.6 100.5 114.9 101.9 111.9 101.9 C 109.9 101.9 108.4 101.5 107 100.1 Z M 115.4 91.9 C 115.4 91.9 115.4 85.5 115.4 85.5 C 114.9 84.2 113.5 83.1 112.2 83.1 C 109.8 83.1 108.7 85.6 108.7 88.7 C 108.7 91.8 109.8 94.3 112.2 94.3 C 113.5 94.3 114.9 93.1 115.4 91.9 Z M 129.1 96 C 129.1 96 129.08 85.67 129.1 85.7 C 129.1 83.8 128.2 83.1 126.7 83.1 C 125.3 83.1 124 84.2 123.4 85.4 C 123.35 85.4 123.4 96 123.4 96 L 121.2 96 L 121.2 76 L 123.4 76 C 123.4 76 123.35 83.6 123.4 83.6 C 124.2 82.3 125.8 81.2 127.6 81.2 C 130 81.2 131.2 82.4 131.2 85 C 131.21 85.04 131.2 96 131.2 96 L 129.1 96 Z M 134.9 96 L 134.9 76 L 137 76 L 137 96 L 134.9 96 Z M 140.2 99.8 C 140.5 99.9 141 100 141.2 100 C 142 100 142.5 99.7 142.9 98.5 C 142.91 98.54 143.7 96.3 143.7 96.3 L 138.9 81.5 L 141.2 81.5 L 144.8 93.4 L 148.4 81.5 L 150.7 81.5 C 150.7 81.5 144.95 99.08 145 99.1 C 144.2 101.2 143.1 101.9 141.4 101.9 C 140.9 101.9 140.2 101.8 139.9 101.7 C 139.9 101.7 140.2 99.8 140.2 99.8 Z M 157.6 94.3 C 157.6 94.3 158.7 92.8 158.7 92.8 C 159.5 93.8 160.9 94.6 162.4 94.6 C 164.1 94.6 165.2 93.7 165.2 92.3 C 165.2 88.9 158 90.1 158 85.1 C 158 82.9 159.7 81.2 162.6 81.2 C 164.5 81.2 166 81.9 167 83 C 167 83 166 84.5 166 84.5 C 165.3 83.5 164.1 82.9 162.7 82.9 C 161.1 82.9 160.1 83.8 160.1 85 C 160.1 88.1 167.3 87 167.3 92.2 C 167.3 94.6 165.4 96.4 162.5 96.4 C 160.4 96.4 158.8 95.7 157.6 94.3 Z M 170.5 93.1 C 170.48 93.11 170.5 83.4 170.5 83.4 L 168.6 83.4 L 168.6 81.5 L 170.5 81.5 L 170.5 77.6 L 172.6 77.6 L 172.6 81.5 L 175.1 81.5 L 175.1 83.4 L 172.6 83.4 C 172.6 83.4 172.64 92.72 172.6 92.7 C 172.6 93.8 173 94.5 173.8 94.5 C 174.4 94.5 174.8 94.2 175.1 93.9 C 175.1 93.9 175.7 95.5 175.7 95.5 C 175.2 96 174.5 96.4 173.4 96.4 C 171.4 96.4 170.5 95.3 170.5 93.1 Z M 177.2 78 C 177.2 77.2 177.9 76.5 178.7 76.5 C 179.5 76.5 180.2 77.2 180.2 78 C 180.2 78.8 179.5 79.4 178.7 79.4 C 177.9 79.4 177.2 78.8 177.2 78 Z M 177.7 96 L 177.7 81.5 L 179.8 81.5 L 179.8 96 L 177.7 96 Z M 183.4 96 L 183.4 81.5 L 185.6 81.5 C 185.6 81.5 185.57 83.84 185.6 83.8 C 186.5 82.3 187.9 81.2 189.7 81.2 C 189.7 81.2 189.7 83.5 189.7 83.5 C 189.4 83.4 189.2 83.4 189 83.4 C 187.6 83.4 186.2 84.5 185.6 85.7 C 185.57 85.73 185.6 96 185.6 96 L 183.4 96 Z M 198.4 93.1 C 198.44 93.11 198.4 83.4 198.4 83.4 L 196.5 83.4 L 196.5 81.5 L 198.4 81.5 L 198.4 77.6 L 200.6 77.6 L 200.6 81.5 L 203.1 81.5 L 203.1 83.4 L 200.6 83.4 C 200.6 83.4 200.6 92.72 200.6 92.7 C 200.6 93.8 200.9 94.5 201.8 94.5 C 202.3 94.5 202.8 94.2 203 93.9 C 203 93.9 203.7 95.5 203.7 95.5 C 203.2 96 202.5 96.4 201.4 96.4 C 199.4 96.4 198.4 95.3 198.4 93.1 Z M 213.5 96 C 213.5 96 213.47 85.67 213.5 85.7 C 213.5 83.8 212.6 83.1 211.1 83.1 C 209.7 83.1 208.4 84.2 207.7 85.4 C 207.74 85.4 207.7 96 207.7 96 L 205.6 96 L 205.6 76 L 207.7 76 C 207.7 76 207.74 83.6 207.7 83.6 C 208.6 82.3 210.2 81.2 212 81.2 C 214.4 81.2 215.6 82.4 215.6 85 C 215.6 85.04 215.6 96 215.6 96 L 213.5 96 Z M 218.5 88.8 C 218.5 84.6 220.8 81.2 224.4 81.2 C 228.2 81.2 230.2 84.6 230.2 88.8 C 230.15 88.82 230.2 89.5 230.2 89.5 C 230.2 89.5 220.76 89.48 220.8 89.5 C 220.9 92.4 222.4 94.6 224.9 94.6 C 226.2 94.6 227.5 94 228.4 92.8 C 228.4 92.8 229.5 94.1 229.5 94.1 C 228.4 95.5 226.7 96.4 224.8 96.4 C 220.9 96.4 218.5 93.2 218.5 88.8 Z M 224.4 83 C 221.8 83 220.8 85.8 220.8 87.9 C 220.8 87.9 228 87.9 228 87.9 C 228 85.7 227 83 224.4 83 Z M 253.8 96 C 253.8 96 253.79 85.52 253.8 85.5 C 253.8 84 253.2 83.1 251.8 83.1 C 250.5 83.1 249.2 84.2 248.6 85.4 C 248.63 85.4 248.6 96 248.6 96 L 246.5 96 C 246.5 96 246.47 85.52 246.5 85.5 C 246.5 84 245.8 83.1 244.4 83.1 C 243.1 83.1 241.9 84.2 241.3 85.4 C 241.28 85.4 241.3 96 241.3 96 L 239.2 96 L 239.2 81.5 L 241.3 81.5 C 241.3 81.5 241.28 83.6 241.3 83.6 C 241.9 82.5 243.5 81.2 245.2 81.2 C 247.1 81.2 248.2 82.2 248.5 83.8 C 249.2 82.4 250.9 81.2 252.6 81.2 C 254.7 81.2 256 82.3 256 85 C 255.95 84.95 256 96 256 96 L 253.8 96 Z M 259.2 78 C 259.2 77.2 259.9 76.5 260.7 76.5 C 261.5 76.5 262.1 77.2 262.1 78 C 262.1 78.8 261.5 79.4 260.7 79.4 C 259.9 79.4 259.2 78.8 259.2 78 Z M 259.6 96 L 259.6 81.5 L 261.7 81.5 L 261.7 96 L 259.6 96 Z M 272.8 96 L 269.5 90.2 L 266.2 96 L 263.8 96 L 268.2 88.6 L 264 81.5 L 266.4 81.5 L 269.5 87.1 L 272.6 81.5 L 275 81.5 L 270.8 88.6 L 275.2 96 L 272.8 96 Z M 277.7 93.1 C 277.7 93.11 277.7 83.4 277.7 83.4 L 275.8 83.4 L 275.8 81.5 L 277.7 81.5 L 277.7 77.6 L 279.9 77.6 L 279.9 81.5 L 282.3 81.5 L 282.3 83.4 L 279.9 83.4 C 279.9 83.4 279.86 92.72 279.9 92.7 C 279.9 93.8 280.2 94.5 281 94.5 C 281.6 94.5 282 94.2 282.3 93.9 C 282.3 93.9 283 95.5 283 95.5 C 282.4 96 281.7 96.4 280.6 96.4 C 278.6 96.4 277.7 95.3 277.7 93.1 Z M 292.7 96 C 292.7 96 292.7 94.01 292.7 94 C 291.8 95.3 290.3 96.4 288.5 96.4 C 286 96.4 284.9 95.2 284.9 92.5 C 284.87 92.51 284.9 81.5 284.9 81.5 L 287 81.5 C 287 81.5 287 91.88 287 91.9 C 287 93.8 287.9 94.5 289.3 94.5 C 290.7 94.5 292.1 93.4 292.7 92.2 C 292.7 92.21 292.7 81.5 292.7 81.5 L 294.9 81.5 L 294.9 96 L 292.7 96 Z M 298.5 96 L 298.5 81.5 L 300.6 81.5 C 300.6 81.5 300.65 83.84 300.6 83.8 C 301.6 82.3 303 81.2 304.8 81.2 C 304.8 81.2 304.8 83.5 304.8 83.5 C 304.5 83.4 304.3 83.4 304 83.4 C 302.7 83.4 301.2 84.5 300.6 85.7 C 300.65 85.73 300.6 96 300.6 96 L 298.5 96 Z M 306.2 88.8 C 306.2 84.6 308.4 81.2 312.1 81.2 C 315.9 81.2 317.8 84.6 317.8 88.8 C 317.84 88.82 317.8 89.5 317.8 89.5 C 317.8 89.5 308.45 89.48 308.4 89.5 C 308.5 92.4 310 94.6 312.6 94.6 C 313.9 94.6 315.2 94 316.1 92.8 C 316.1 92.8 317.2 94.1 317.2 94.1 C 316 95.5 314.4 96.4 312.4 96.4 C 308.6 96.4 306.2 93.2 306.2 88.8 Z M 312.1 83 C 309.5 83 308.5 85.8 308.4 87.9 C 308.4 87.9 315.7 87.9 315.7 87.9 C 315.7 85.7 314.7 83 312.1 83 Z M 327.3 96 L 327.3 83.4 L 325.4 83.4 L 325.4 81.5 L 327.3 81.5 C 327.3 81.5 327.35 79.76 327.3 79.8 C 327.3 77.2 328.7 75.7 331 75.7 C 331.9 75.7 332.8 76 333.6 76.7 C 333.6 76.7 332.7 78.2 332.7 78.2 C 332.3 77.8 331.9 77.5 331.3 77.5 C 330.1 77.5 329.5 78.4 329.5 79.8 C 329.51 79.76 329.5 81.5 329.5 81.5 L 332 81.5 L 332 83.4 L 329.5 83.4 L 329.5 96 L 327.3 96 Z M 333.4 88.8 C 333.4 84.7 335.5 81.2 339.3 81.2 C 343.2 81.2 345.2 84.7 345.2 88.8 C 345.2 92.8 343.2 96.4 339.3 96.4 C 335.5 96.4 333.4 92.8 333.4 88.8 Z M 343 88.8 C 343 85.9 341.9 83.1 339.3 83.1 C 336.8 83.1 335.7 85.9 335.7 88.8 C 335.7 91.7 336.8 94.5 339.3 94.5 C 341.9 94.5 343 91.7 343 88.8 Z M 348.2 96 L 348.2 81.5 L 350.3 81.5 C 350.3 81.5 350.3 83.84 350.3 83.8 C 351.2 82.3 352.6 81.2 354.4 81.2 C 354.4 81.2 354.4 83.5 354.4 83.5 C 354.2 83.4 353.9 83.4 353.7 83.4 C 352.4 83.4 350.9 84.5 350.3 85.7 C 350.3 85.73 350.3 96 350.3 96 L 348.2 96 Z M 365.7 96 L 365.7 79.2 L 362.7 82.5 L 361.2 81 L 366 76 L 368.1 76 L 368.1 96 L 365.7 96 Z M 371.3 86 C 371.3 81.2 372.9 75.7 377.6 75.7 C 382.3 75.7 383.9 81.2 383.9 86 C 383.9 90.8 382.3 96.4 377.6 96.4 C 372.9 96.4 371.3 90.8 371.3 86 Z M 381.4 86 C 381.4 82.1 380.7 77.8 377.6 77.8 C 374.5 77.8 373.8 82.1 373.8 86 C 373.8 90 374.5 94.3 377.6 94.3 C 380.7 94.3 381.4 90 381.4 86 Z M 407.7 96 C 407.7 96 407.75 85.52 407.7 85.5 C 407.7 84 407.1 83.1 405.7 83.1 C 404.4 83.1 403.2 84.2 402.6 85.4 C 402.59 85.4 402.6 96 402.6 96 L 400.4 96 C 400.4 96 400.43 85.52 400.4 85.5 C 400.4 84 399.8 83.1 398.4 83.1 C 397.1 83.1 395.9 84.2 395.2 85.4 C 395.24 85.4 395.2 96 395.2 96 L 393.1 96 L 393.1 81.5 L 395.2 81.5 C 395.2 81.5 395.24 83.6 395.2 83.6 C 395.8 82.5 397.5 81.2 399.2 81.2 C 401.1 81.2 402.2 82.2 402.5 83.8 C 403.2 82.4 404.8 81.2 406.5 81.2 C 408.7 81.2 409.9 82.3 409.9 85 C 409.91 84.95 409.9 96 409.9 96 L 407.7 96 Z M 413.1 78 C 413.1 77.2 413.8 76.5 414.6 76.5 C 415.4 76.5 416.1 77.2 416.1 78 C 416.1 78.8 415.4 79.4 414.6 79.4 C 413.8 79.4 413.1 78.8 413.1 78 Z M 413.6 96 L 413.6 81.5 L 415.7 81.5 L 415.7 96 L 413.6 96 Z M 427.2 96 C 427.2 96 427.19 85.7 427.2 85.7 C 427.2 83.8 426.3 83.1 424.9 83.1 C 423.5 83.1 422.1 84.2 421.5 85.4 C 421.49 85.4 421.5 96 421.5 96 L 419.4 96 L 419.4 81.5 L 421.5 81.5 C 421.5 81.5 421.49 83.6 421.5 83.6 C 422.3 82.3 423.9 81.2 425.7 81.2 C 428.1 81.2 429.3 82.5 429.3 85.1 C 429.35 85.1 429.3 96 429.3 96 L 427.2 96 Z M 440.8 96 C 440.8 96 440.84 94.01 440.8 94 C 440 95.3 438.4 96.4 436.6 96.4 C 434.2 96.4 433 95.2 433 92.5 C 433.01 92.51 433 81.5 433 81.5 L 435.1 81.5 C 435.1 81.5 435.14 91.88 435.1 91.9 C 435.1 93.8 436 94.5 437.4 94.5 C 438.9 94.5 440.2 93.4 440.8 92.2 C 440.84 92.21 440.8 81.5 440.8 81.5 L 443 81.5 L 443 96 L 440.8 96 Z M 447.1 93.1 C 447.08 93.11 447.1 83.4 447.1 83.4 L 445.2 83.4 L 445.2 81.5 L 447.1 81.5 L 447.1 77.6 L 449.2 77.6 L 449.2 81.5 L 451.7 81.5 L 451.7 83.4 L 449.2 83.4 C 449.2 83.4 449.24 92.72 449.2 92.7 C 449.2 93.8 449.6 94.5 450.4 94.5 C 450.9 94.5 451.4 94.2 451.7 93.9 C 451.7 93.9 452.3 95.5 452.3 95.5 C 451.8 96 451.1 96.4 450 96.4 C 448 96.4 447.1 95.3 447.1 93.1 Z M 453.5 88.8 C 453.5 84.6 455.7 81.2 459.4 81.2 C 463.2 81.2 465.1 84.6 465.1 88.8 C 465.14 88.82 465.1 89.5 465.1 89.5 C 465.1 89.5 455.75 89.48 455.7 89.5 C 455.8 92.4 457.3 94.6 459.9 94.6 C 461.2 94.6 462.5 94 463.4 92.8 C 463.4 92.8 464.5 94.1 464.5 94.1 C 463.3 95.5 461.7 96.4 459.7 96.4 C 455.9 96.4 453.5 93.2 453.5 88.8 Z M 459.4 83 C 456.8 83 455.8 85.8 455.7 87.9 C 455.7 87.9 463 87.9 463 87.9 C 463 85.7 462 83 459.4 83 Z M 466.8 94.3 C 466.8 94.3 467.9 92.8 467.9 92.8 C 468.7 93.8 470.1 94.6 471.7 94.6 C 473.4 94.6 474.5 93.7 474.5 92.3 C 474.5 88.9 467.2 90.1 467.2 85.1 C 467.2 82.9 469 81.2 471.9 81.2 C 473.8 81.2 475.2 81.9 476.3 83 C 476.3 83 475.2 84.5 475.2 84.5 C 474.5 83.5 473.3 82.9 471.9 82.9 C 470.3 82.9 469.3 83.8 469.3 85 C 469.3 88.1 476.5 87 476.5 92.2 C 476.5 94.6 474.7 96.4 471.7 96.4 C 469.7 96.4 468 95.7 466.8 94.3 Z M 484.7 88.8 C 484.7 84.7 486.8 81.2 490.6 81.2 C 494.5 81.2 496.5 84.7 496.5 88.8 C 496.5 92.8 494.5 96.4 490.6 96.4 C 486.8 96.4 484.7 92.8 484.7 88.8 Z M 494.3 88.8 C 494.3 85.9 493.2 83.1 490.6 83.1 C 488.1 83.1 487 85.9 487 88.8 C 487 91.7 488.1 94.5 490.6 94.5 C 493.2 94.5 494.3 91.7 494.3 88.8 Z M 499.5 96 L 499.5 81.5 L 501.6 81.5 C 501.6 81.5 501.58 83.84 501.6 83.8 C 502.5 82.3 503.9 81.2 505.7 81.2 C 505.7 81.2 505.7 83.5 505.7 83.5 C 505.5 83.4 505.2 83.4 505 83.4 C 503.7 83.4 502.2 84.5 501.6 85.7 C 501.58 85.73 501.6 96 501.6 96 L 499.5 96 Z M 528.7 96 C 528.7 96 528.67 85.52 528.7 85.5 C 528.7 84 528 83.1 526.7 83.1 C 525.4 83.1 524.1 84.2 523.5 85.4 C 523.51 85.4 523.5 96 523.5 96 L 521.4 96 C 521.4 96 521.35 85.52 521.4 85.5 C 521.4 84 520.7 83.1 519.3 83.1 C 518 83.1 516.8 84.2 516.2 85.4 C 516.16 85.4 516.2 96 516.2 96 L 514 96 L 514 81.5 L 516.2 81.5 C 516.2 81.5 516.16 83.6 516.2 83.6 C 516.8 82.5 518.4 81.2 520.1 81.2 C 522 81.2 523.1 82.2 523.4 83.8 C 524.1 82.4 525.7 81.2 527.5 81.2 C 529.6 81.2 530.8 82.3 530.8 85 C 530.83 84.95 530.8 96 530.8 96 L 528.7 96 Z M 534.1 78 C 534.1 77.2 534.8 76.5 535.5 76.5 C 536.4 76.5 537 77.2 537 78 C 537 78.8 536.4 79.4 535.5 79.4 C 534.8 79.4 534.1 78.8 534.1 78 Z M 534.5 96 L 534.5 81.5 L 536.6 81.5 L 536.6 96 L 534.5 96 Z M 547.7 96 L 544.4 90.2 L 541.1 96 L 538.7 96 L 543.1 88.6 L 538.9 81.5 L 541.3 81.5 L 544.4 87.1 L 547.5 81.5 L 549.9 81.5 L 545.7 88.6 L 550.1 96 L 547.7 96 Z M 557.9 78 C 557.9 77.2 558.6 76.5 559.4 76.5 C 560.2 76.5 560.8 77.2 560.8 78 C 560.8 78.8 560.2 79.4 559.4 79.4 C 558.6 79.4 557.9 78.8 557.9 78 Z M 558.3 96 L 558.3 81.5 L 560.4 81.5 L 560.4 96 L 558.3 96 Z M 571.9 96 C 571.9 96 571.93 85.7 571.9 85.7 C 571.9 83.8 571.1 83.1 569.6 83.1 C 568.2 83.1 566.9 84.2 566.2 85.4 C 566.23 85.4 566.2 96 566.2 96 L 564.1 96 L 564.1 81.5 L 566.2 81.5 C 566.2 81.5 566.23 83.6 566.2 83.6 C 567.1 82.3 568.7 81.2 570.4 81.2 C 572.9 81.2 574.1 82.5 574.1 85.1 C 574.09 85.1 574.1 96 574.1 96 L 571.9 96 Z M 591.3 96 C 591.3 96 591.34 94.46 591.3 94.5 C 590.4 95.8 589 96.4 587.5 96.4 C 585.2 96.4 583.2 94.6 583.2 91.6 C 583.2 88.5 585.2 86.8 587.5 86.8 C 589 86.8 590.4 87.4 591.3 88.6 C 591.3 88.6 591.3 86.1 591.3 86.1 C 591.3 84.1 590.3 83 588.4 83 C 587 83 585.9 83.5 584.7 84.8 C 584.7 84.8 583.8 83.3 583.8 83.3 C 585.2 81.8 586.9 81.2 588.7 81.2 C 591.6 81.2 593.5 82.6 593.5 85.9 C 593.5 85.88 593.5 96 593.5 96 L 591.3 96 Z M 591.3 93 C 591.3 93 591.3 90.2 591.3 90.2 C 590.7 89 589.5 88.4 588.2 88.4 C 586.4 88.4 585.3 89.8 585.3 91.6 C 585.3 93.4 586.4 94.8 588.2 94.8 C 589.5 94.8 590.7 94.2 591.3 93 Z " stroke="none" fill="#efd8d3"/>  </g>  <g id="Polygon184477">    <path d="M 5 24 L 5 7.2 L 1.9 10.5 L 0.4 9 L 5.3 4 L 7.3 4 L 7.3 24 L 5 24 Z M 11 22.7 C 11 21.9 11.7 21.1 12.6 21.1 C 13.4 21.1 14.2 21.9 14.2 22.7 C 14.2 23.6 13.4 24.3 12.6 24.3 C 11.7 24.3 11 23.6 11 22.7 Z M 44.4 24 L 44.4 8.3 L 39.1 24 L 38.1 24 L 32.8 8.3 L 32.8 24 L 30.4 24 L 30.4 4 L 33.8 4 L 38.6 18.2 L 43.5 4 L 46.7 4 L 46.7 24 L 44.4 24 Z M 50.1 6 C 50.1 5.2 50.8 4.5 51.6 4.5 C 52.4 4.5 53 5.2 53 6 C 53 6.8 52.4 7.4 51.6 7.4 C 50.8 7.4 50.1 6.8 50.1 6 Z M 50.5 24 L 50.5 9.5 L 52.6 9.5 L 52.6 24 L 50.5 24 Z M 63.7 24 L 60.4 18.2 L 57.1 24 L 54.7 24 L 59.1 16.6 L 54.9 9.5 L 57.3 9.5 L 60.4 15.1 L 63.5 9.5 L 65.9 9.5 L 61.7 16.6 L 66.1 24 L 63.7 24 Z M 73.9 6 C 73.9 5.2 74.6 4.5 75.4 4.5 C 76.2 4.5 76.9 5.2 76.9 6 C 76.9 6.8 76.2 7.4 75.4 7.4 C 74.6 7.4 73.9 6.8 73.9 6 Z M 74.3 24 L 74.3 9.5 L 76.5 9.5 L 76.5 24 L 74.3 24 Z M 88 24 C 88 24 87.96 13.7 88 13.7 C 88 11.8 87.1 11.1 85.6 11.1 C 84.2 11.1 82.9 12.2 82.3 13.4 C 82.26 13.4 82.3 24 82.3 24 L 80.1 24 L 80.1 9.5 L 82.3 9.5 C 82.3 9.5 82.26 11.6 82.3 11.6 C 83.1 10.3 84.7 9.2 86.5 9.2 C 88.9 9.2 90.1 10.5 90.1 13.1 C 90.12 13.1 90.1 24 90.1 24 L 88 24 Z M 110.6 24 L 107.5 12.4 L 104.4 24 L 102.2 24 L 98.3 9.5 L 100.6 9.5 L 103.4 21.1 L 106.5 9.5 L 108.5 9.5 L 111.6 21.1 L 114.4 9.5 L 116.7 9.5 L 112.8 24 L 110.6 24 Z M 126.6 24 C 126.6 24 126.62 13.67 126.6 13.7 C 126.6 11.8 125.7 11.1 124.3 11.1 C 122.9 11.1 121.6 12.2 120.9 13.4 C 120.89 13.4 120.9 24 120.9 24 L 118.8 24 L 118.8 4 L 120.9 4 C 120.9 4 120.89 11.6 120.9 11.6 C 121.7 10.3 123.4 9.2 125.1 9.2 C 127.6 9.2 128.8 10.4 128.8 13 C 128.75 13.04 128.8 24 128.8 24 L 126.6 24 Z M 132 6 C 132 5.2 132.7 4.5 133.5 4.5 C 134.3 4.5 134.9 5.2 134.9 6 C 134.9 6.8 134.3 7.4 133.5 7.4 C 132.7 7.4 132 6.8 132 6 Z M 132.4 24 L 132.4 9.5 L 134.5 9.5 L 134.5 24 L 132.4 24 Z M 138.6 21.1 C 138.62 21.11 138.6 11.4 138.6 11.4 L 136.7 11.4 L 136.7 9.5 L 138.6 9.5 L 138.6 5.6 L 140.8 5.6 L 140.8 9.5 L 143.2 9.5 L 143.2 11.4 L 140.8 11.4 C 140.8 11.4 140.78 20.72 140.8 20.7 C 140.8 21.8 141.1 22.5 142 22.5 C 142.5 22.5 142.9 22.2 143.2 21.9 C 143.2 21.9 143.9 23.5 143.9 23.5 C 143.4 24 142.6 24.4 141.5 24.4 C 139.6 24.4 138.6 23.3 138.6 21.1 Z M 145.1 16.8 C 145.1 12.6 147.3 9.2 151 9.2 C 154.8 9.2 156.7 12.6 156.7 16.8 C 156.68 16.82 156.7 17.5 156.7 17.5 C 156.7 17.5 147.29 17.48 147.3 17.5 C 147.4 20.4 148.9 22.6 151.5 22.6 C 152.7 22.6 154 22 154.9 20.8 C 154.9 20.8 156.1 22.1 156.1 22.1 C 154.9 23.5 153.2 24.4 151.3 24.4 C 147.4 24.4 145.1 21.2 145.1 16.8 Z M 150.9 11 C 148.4 11 147.4 13.8 147.3 15.9 C 147.3 15.9 154.6 15.9 154.6 15.9 C 154.5 13.7 153.6 11 150.9 11 Z M 165.6 28.1 C 165.6 28.1 166.6 26.4 166.6 26.4 C 167.5 27.5 168.7 28.1 170.3 28.1 C 172.3 28.1 174 26.9 174 24.1 C 174 24.1 174 21.7 174 21.7 C 173.1 23.2 171.7 24.2 170.2 24.2 C 166.9 24.2 165 21.3 165 16.7 C 165 12.2 166.9 9.2 170.2 9.2 C 171.6 9.2 173.1 10 174 11.6 C 173.96 11.63 174 9.5 174 9.5 L 176.1 9.5 C 176.1 9.5 176.12 23.99 176.1 24 C 176.1 28.5 173.4 29.9 170.4 29.9 C 168.4 29.9 166.9 29.5 165.6 28.1 Z M 174 19.9 C 174 19.9 174 13.5 174 13.5 C 173.4 12.2 172.1 11.1 170.7 11.1 C 168.3 11.1 167.2 13.6 167.2 16.7 C 167.2 19.8 168.3 22.3 170.7 22.3 C 172.1 22.3 173.4 21.1 174 19.9 Z M 179.8 24 L 179.8 4 L 181.9 4 L 181.9 24 L 179.8 24 Z M 193.4 24 C 193.4 24 193.37 22.01 193.4 22 C 192.5 23.3 191 24.4 189.2 24.4 C 186.7 24.4 185.5 23.2 185.5 20.5 C 185.54 20.51 185.5 9.5 185.5 9.5 L 187.7 9.5 C 187.7 9.5 187.67 19.88 187.7 19.9 C 187.7 21.8 188.6 22.5 190 22.5 C 191.4 22.5 192.7 21.4 193.4 20.2 C 193.37 20.21 193.4 9.5 193.4 9.5 L 195.5 9.5 L 195.5 24 L 193.4 24 Z M 198.5 16.8 C 198.5 12.6 200.7 9.2 204.4 9.2 C 208.2 9.2 210.1 12.6 210.1 16.8 C 210.08 16.82 210.1 17.5 210.1 17.5 C 210.1 17.5 200.69 17.48 200.7 17.5 C 200.8 20.4 202.3 22.6 204.9 22.6 C 206.1 22.6 207.4 22 208.3 20.8 C 208.3 20.8 209.5 22.1 209.5 22.1 C 208.3 23.5 206.6 24.4 204.7 24.4 C 200.8 24.4 198.5 21.2 198.5 16.8 Z M 204.3 11 C 201.8 11 200.8 13.8 200.7 15.9 C 200.7 15.9 208 15.9 208 15.9 C 207.9 13.7 207 11 204.3 11 Z M 213.6 27.8 C 213.6 27.8 212.5 26.9 212.5 26.9 C 213.5 26.3 214.3 25.1 214.5 24.1 C 214.4 24.1 214.2 24.2 214.1 24.2 C 213.3 24.2 212.7 23.5 212.7 22.7 C 212.7 21.8 213.3 21.1 214.2 21.1 C 215.2 21.1 216 21.9 216 23.4 C 216 25.2 215 26.8 213.6 27.8 Z M 232.9 24 C 232.9 24 232.94 22.46 232.9 22.5 C 232 23.8 230.6 24.4 229.1 24.4 C 226.8 24.4 224.8 22.6 224.8 19.6 C 224.8 16.5 226.8 14.8 229.1 14.8 C 230.6 14.8 232 15.4 232.9 16.6 C 232.9 16.6 232.9 14.1 232.9 14.1 C 232.9 12.1 231.9 11 230 11 C 228.6 11 227.5 11.5 226.3 12.8 C 226.3 12.8 225.4 11.3 225.4 11.3 C 226.8 9.8 228.5 9.2 230.3 9.2 C 233.2 9.2 235.1 10.6 235.1 13.9 C 235.1 13.88 235.1 24 235.1 24 L 232.9 24 Z M 232.9 21 C 232.9 21 232.9 18.2 232.9 18.2 C 232.3 17 231.1 16.4 229.8 16.4 C 228 16.4 226.9 17.8 226.9 19.6 C 226.9 21.4 228 22.8 229.8 22.8 C 231.1 22.8 232.3 22.2 232.9 21 Z M 238.7 24 L 238.7 4 L 240.9 4 L 240.9 24 L 238.7 24 Z M 244.5 24 L 244.5 4 L 246.7 4 L 246.7 24 L 244.5 24 Z M 249.9 27.8 C 250.2 27.9 250.6 28 250.9 28 C 251.7 28 252.2 27.7 252.6 26.5 C 252.56 26.54 253.3 24.3 253.3 24.3 L 248.5 9.5 L 250.9 9.5 L 254.5 21.4 L 258.1 9.5 L 260.4 9.5 C 260.4 9.5 254.6 27.08 254.6 27.1 C 253.9 29.2 252.7 29.9 251 29.9 C 250.6 29.9 249.9 29.8 249.6 29.7 C 249.6 29.7 249.9 27.8 249.9 27.8 Z M 262.3 24 L 262.3 4 L 264.4 4 L 264.4 24 L 262.3 24 Z M 273.8 6 C 273.8 5.2 274.5 4.5 275.2 4.5 C 276 4.5 276.7 5.2 276.7 6 C 276.7 6.8 276 7.4 275.2 7.4 C 274.5 7.4 273.8 6.8 273.8 6 Z M 274.2 24 L 274.2 9.5 L 276.3 9.5 L 276.3 24 L 274.2 24 Z M 278.8 22.3 C 278.8 22.3 279.9 20.8 279.9 20.8 C 280.7 21.8 282.1 22.6 283.7 22.6 C 285.3 22.6 286.5 21.7 286.5 20.3 C 286.5 16.9 279.2 18.1 279.2 13.1 C 279.2 10.9 281 9.2 283.8 9.2 C 285.8 9.2 287.2 9.9 288.3 11 C 288.3 11 287.2 12.5 287.2 12.5 C 286.5 11.5 285.3 10.9 283.9 10.9 C 282.3 10.9 281.3 11.8 281.3 13 C 281.3 16.1 288.5 15 288.5 20.2 C 288.5 22.6 286.7 24.4 283.7 24.4 C 281.7 24.4 280 23.7 278.8 22.3 Z M 290.6 16.8 C 290.6 12.7 292.6 9.2 296.4 9.2 C 300.3 9.2 302.4 12.7 302.4 16.8 C 302.4 20.8 300.3 24.4 296.4 24.4 C 292.6 24.4 290.6 20.8 290.6 16.8 Z M 300.1 16.8 C 300.1 13.9 299 11.1 296.4 11.1 C 294 11.1 292.8 13.9 292.8 16.8 C 292.8 19.7 294 22.5 296.4 22.5 C 299 22.5 300.1 19.7 300.1 16.8 Z M 305.7 21.1 C 305.72 21.11 305.7 11.4 305.7 11.4 L 303.8 11.4 L 303.8 9.5 L 305.7 9.5 L 305.7 5.6 L 307.9 5.6 L 307.9 9.5 L 310.3 9.5 L 310.3 11.4 L 307.9 11.4 C 307.9 11.4 307.88 20.72 307.9 20.7 C 307.9 21.8 308.2 22.5 309 22.5 C 309.6 22.5 310 22.2 310.3 21.9 C 310.3 21.9 311 23.5 311 23.5 C 310.5 24 309.7 24.4 308.6 24.4 C 306.6 24.4 305.7 23.3 305.7 21.1 Z M 320.7 24 C 320.7 24 320.75 13.67 320.7 13.7 C 320.7 11.8 319.8 11.1 318.4 11.1 C 317 11.1 315.7 12.2 315 13.4 C 315.02 13.4 315 24 315 24 L 312.9 24 L 312.9 4 L 315 4 C 315 4 315.02 11.6 315 11.6 C 315.9 10.3 317.5 9.2 319.2 9.2 C 321.7 9.2 322.9 10.4 322.9 13 C 322.88 13.04 322.9 24 322.9 24 L 320.7 24 Z M 326.1 6 C 326.1 5.2 326.8 4.5 327.6 4.5 C 328.4 4.5 329.1 5.2 329.1 6 C 329.1 6.8 328.4 7.4 327.6 7.4 C 326.8 7.4 326.1 6.8 326.1 6 Z M 326.5 24 L 326.5 9.5 L 328.7 9.5 L 328.7 24 L 326.5 24 Z M 331.6 16.8 C 331.6 12.7 333.6 9.2 337.5 9.2 C 341.4 9.2 343.4 12.7 343.4 16.8 C 343.4 20.8 341.4 24.4 337.5 24.4 C 333.6 24.4 331.6 20.8 331.6 16.8 Z M 341.1 16.8 C 341.1 13.9 340 11.1 337.5 11.1 C 335 11.1 333.9 13.9 333.9 16.8 C 333.9 19.7 335 22.5 337.5 22.5 C 340 22.5 341.1 19.7 341.1 16.8 Z M 345.6 16.8 C 345.6 12.5 347.9 9.2 351.6 9.2 C 353.6 9.2 354.9 10 355.8 11.1 C 355.8 11.1 354.6 12.6 354.6 12.6 C 353.8 11.5 352.9 11.1 351.8 11.1 C 349.2 11.1 347.9 13.7 347.9 16.8 C 347.9 19.9 349.2 22.5 351.8 22.5 C 352.9 22.5 353.8 22 354.6 21 C 354.6 21 355.8 22.5 355.8 22.5 C 354.9 23.6 353.6 24.4 351.6 24.4 C 347.9 24.4 345.6 21.1 345.6 16.8 Z M 357.8 27.8 C 358.1 27.9 358.5 28 358.8 28 C 359.6 28 360.1 27.7 360.5 26.5 C 360.47 26.54 361.2 24.3 361.2 24.3 L 356.4 9.5 L 358.8 9.5 L 362.4 21.4 L 366 9.5 L 368.3 9.5 C 368.3 9.5 362.51 27.08 362.5 27.1 C 361.8 29.2 360.6 29.9 358.9 29.9 C 358.5 29.9 357.8 29.8 357.5 29.7 C 357.5 29.7 357.8 27.8 357.8 27.8 Z M 377.6 24 C 377.6 24 377.6 22.46 377.6 22.5 C 376.7 23.8 375.3 24.4 373.8 24.4 C 371.4 24.4 369.4 22.6 369.4 19.6 C 369.4 16.5 371.4 14.8 373.8 14.8 C 375.3 14.8 376.7 15.4 377.6 16.6 C 377.6 16.6 377.6 14.1 377.6 14.1 C 377.6 12.1 376.5 11 374.6 11 C 373.3 11 372.1 11.5 371 12.8 C 371 12.8 370 11.3 370 11.3 C 371.4 9.8 373.1 9.2 375 9.2 C 377.8 9.2 379.8 10.6 379.8 13.9 C 379.76 13.88 379.8 24 379.8 24 L 377.6 24 Z M 377.6 21 C 377.6 21 377.6 18.2 377.6 18.2 C 376.9 17 375.7 16.4 374.5 16.4 C 372.7 16.4 371.6 17.8 371.6 19.6 C 371.6 21.4 372.7 22.8 374.5 22.8 C 375.7 22.8 376.9 22.2 377.6 21 Z M 391.2 24 C 391.2 24 391.22 13.7 391.2 13.7 C 391.2 11.8 390.3 11.1 388.9 11.1 C 387.5 11.1 386.2 12.2 385.5 13.4 C 385.52 13.4 385.5 24 385.5 24 L 383.4 24 L 383.4 9.5 L 385.5 9.5 C 385.5 9.5 385.52 11.6 385.5 11.6 C 386.4 10.3 388 9.2 389.7 9.2 C 392.2 9.2 393.4 10.5 393.4 13.1 C 393.38 13.1 393.4 24 393.4 24 L 391.2 24 Z M 404.5 24 C 404.5 24 404.48 22.46 404.5 22.5 C 403.5 23.8 402.1 24.4 400.7 24.4 C 398.3 24.4 396.3 22.6 396.3 19.6 C 396.3 16.5 398.3 14.8 400.7 14.8 C 402.1 14.8 403.6 15.4 404.5 16.6 C 404.5 16.6 404.5 14.1 404.5 14.1 C 404.5 12.1 403.4 11 401.5 11 C 400.2 11 399 11.5 397.9 12.8 C 397.9 12.8 396.9 11.3 396.9 11.3 C 398.3 9.8 400 9.2 401.8 9.2 C 404.7 9.2 406.6 10.6 406.6 13.9 C 406.64 13.88 406.6 24 406.6 24 L 404.5 24 Z M 404.5 21 C 404.5 21 404.5 18.2 404.5 18.2 C 403.8 17 402.6 16.4 401.4 16.4 C 399.6 16.4 398.5 17.8 398.5 19.6 C 398.5 21.4 399.6 22.8 401.4 22.8 C 402.6 22.8 403.8 22.2 404.5 21 Z M 410.7 21.1 C 410.69 21.11 410.7 11.4 410.7 11.4 L 408.8 11.4 L 408.8 9.5 L 410.7 9.5 L 410.7 5.6 L 412.8 5.6 L 412.8 9.5 L 415.3 9.5 L 415.3 11.4 L 412.8 11.4 C 412.8 11.4 412.85 20.72 412.8 20.7 C 412.8 21.8 413.2 22.5 414 22.5 C 414.6 22.5 415 22.2 415.3 21.9 C 415.3 21.9 415.9 23.5 415.9 23.5 C 415.4 24 414.7 24.4 413.6 24.4 C 411.6 24.4 410.7 23.3 410.7 21.1 Z M 417.1 16.8 C 417.1 12.6 419.4 9.2 423 9.2 C 426.8 9.2 428.7 12.6 428.7 16.8 C 428.75 16.82 428.7 17.5 428.7 17.5 C 428.7 17.5 419.36 17.48 419.4 17.5 C 419.4 20.4 420.9 22.6 423.5 22.6 C 424.8 22.6 426.1 22 427 20.8 C 427 20.8 428.1 22.1 428.1 22.1 C 426.9 23.5 425.3 24.4 423.3 24.4 C 419.5 24.4 417.1 21.2 417.1 16.8 Z M 423 11 C 420.4 11 419.4 13.8 419.4 15.9 C 419.4 15.9 426.6 15.9 426.6 15.9 C 426.6 13.7 425.6 11 423 11 Z M 431.3 22.7 C 431.3 21.9 432 21.1 432.9 21.1 C 433.8 21.1 434.5 21.9 434.5 22.7 C 434.5 23.6 433.8 24.3 432.9 24.3 C 432 24.3 431.3 23.6 431.3 22.7 Z " stroke="none" fill="#efd8d3"/>  </g></svg>