<?xml version="1.0" standalone="no"?><!DOCTYPE svg PUBLIC "-//W3C//DTD SVG 1.1//EN" "http://www.w3.org/Graphics/SVG/1.1/DTD/svg11.dtd"><svg xmlns="http://www.w3.org/2000/svg" version="1.1" width="651px" height="85.6px" viewBox="0 0 651 85.6">  <desc>Spicy Pulp on Julienned Foam</desc>  <defs/>  <g id="Polygon174210">    <path d="M 0.7 44.2 C 0.7 44.2 4 38.2 4 38.2 C 5.6 40.3 8.2 41.4 10.6 41.4 C 13 41.4 14.6 39.6 14.6 37 C 14.6 29.9 1.9 29.9 1.9 17.9 C 1.9 11.9 5.9 6.7 13 6.7 C 16.4 6.7 19.5 7.9 21.7 10 C 21.7 10 18.8 15.8 18.8 15.8 C 17.2 14.2 15.4 13.4 13.3 13.4 C 11.1 13.4 9.5 15.1 9.5 17.5 C 9.5 23.7 22.3 24.5 22.3 36.5 C 22.3 43.3 17.9 48.1 11 48.1 C 6.7 48.1 3.3 46.7 0.7 44.2 Z M 33.3 43.8 C 33.3 43.8 33.3 58.4 33.3 58.4 L 26.5 58.4 L 26.5 18.4 L 33.3 18.4 C 33.3 18.4 33.3 22.02 33.3 22 C 34.6 19.1 36.9 17.7 38.9 17.7 C 44.6 17.7 47.5 23.6 47.5 32.9 C 47.5 42 44.6 48.1 38.9 48.1 C 36.9 48.1 34.5 46.8 33.3 43.8 Z M 40.6 32.9 C 40.6 27.8 39.7 23.7 36.7 23.7 C 35.3 23.7 33.9 25.1 33.3 27.1 C 33.3 27.1 33.3 38.6 33.3 38.6 C 33.9 40.6 35.3 42.1 36.7 42.1 C 39.7 42.1 40.6 38 40.6 32.9 Z M 51.1 10.9 C 51.1 8.6 53 6.8 55.3 6.8 C 57.5 6.8 59.4 8.6 59.4 10.9 C 59.4 13.2 57.5 15 55.3 15 C 53 15 51.1 13.2 51.1 10.9 Z M 51.9 47.4 L 51.9 18.4 L 58.7 18.4 L 58.7 47.4 L 51.9 47.4 Z M 63 32.9 C 63 24.1 67.1 17.7 74 17.7 C 77.3 17.7 79.7 18.9 81.1 20.3 C 81.1 20.3 78.9 25.6 78.9 25.6 C 77.7 24.3 76.6 23.7 75.2 23.7 C 71.7 23.7 70 27.8 70 32.9 C 70 37.9 71.7 42.1 75.2 42.1 C 76.6 42.1 77.7 41.5 78.9 40.3 C 78.9 40.3 81.1 45.5 81.1 45.5 C 79.7 47 77.3 48.1 74 48.1 C 67.1 48.1 63 41.7 63 32.9 Z M 85.4 52.9 C 85.8 53 86.4 53.2 86.8 53.2 C 88 53.2 88.7 52.6 89.2 51.1 C 89.16 51.12 90 48.1 90 48.1 L 82.1 18.4 L 89.3 18.4 L 93.4 38.8 L 97.6 18.4 L 104.8 18.4 C 104.8 18.4 95.64 52.5 95.6 52.5 C 94.2 57.8 91.9 59.2 87.7 59.2 C 86.7 59.2 85.1 59 84.4 58.7 C 84.4 58.7 85.4 52.9 85.4 52.9 Z M 117.7 47.4 L 117.7 7.4 C 117.7 7.4 128.52 7.38 128.5 7.4 C 136.3 7.4 139.8 13.3 139.8 20 C 139.8 26.8 136.3 32.7 128.5 32.7 C 128.52 32.7 125.3 32.7 125.3 32.7 L 125.3 47.4 L 117.7 47.4 Z M 132.1 20 C 132.1 16.4 130.6 14 127.7 14 C 127.74 14.04 125.3 14 125.3 14 L 125.3 26 C 125.3 26 127.74 26.04 127.7 26 C 130.6 26 132.1 23.6 132.1 20 Z M 156.7 47.4 C 156.7 47.4 156.72 43.74 156.7 43.7 C 155.6 46.1 152.8 48.1 149.9 48.1 C 145.6 48.1 143.8 45.7 143.8 41.6 C 143.82 41.58 143.8 18.4 143.8 18.4 L 150.6 18.4 C 150.6 18.4 150.6 39.18 150.6 39.2 C 150.6 41.2 151.3 42.1 152.8 42.1 C 154.6 42.1 156.1 40.3 156.7 38.5 C 156.72 38.46 156.7 18.4 156.7 18.4 L 163.6 18.4 L 163.6 47.4 L 156.7 47.4 Z M 169 47.4 L 169 7.4 L 175.8 7.4 L 175.8 47.4 L 169 47.4 Z M 188 43.8 C 188.04 43.8 188 58.4 188 58.4 L 181.3 58.4 L 181.3 18.4 L 188 18.4 C 188 18.4 188.04 22.02 188 22 C 189.3 19.1 191.6 17.7 193.7 17.7 C 199.4 17.7 202.3 23.6 202.3 32.9 C 202.3 42 199.4 48.1 193.7 48.1 C 191.6 48.1 189.2 46.8 188 43.8 Z M 195.3 32.9 C 195.3 27.8 194.5 23.7 191.5 23.7 C 190 23.7 188.6 25.1 188 27.1 C 188 27.1 188 38.6 188 38.6 C 188.6 40.6 190 42.1 191.5 42.1 C 194.5 42.1 195.3 38 195.3 32.9 Z M 215.3 32.9 C 215.3 24.8 218.6 17.7 226.1 17.7 C 233.8 17.7 237.1 24.8 237.1 32.9 C 237.1 40.9 233.8 48.1 226.1 48.1 C 218.6 48.1 215.3 40.9 215.3 32.9 Z M 230 32.9 C 230 28 229.2 23.7 226.1 23.7 C 223.1 23.7 222.3 28 222.3 32.9 C 222.3 37.9 223.1 42.1 226.1 42.1 C 229.2 42.1 230 37.9 230 32.9 Z M 254.3 47.4 C 254.3 47.4 254.34 26.76 254.3 26.8 C 254.3 24.7 253.6 23.7 252.1 23.7 C 250.4 23.7 248.9 25.6 248.2 27.5 C 248.22 27.48 248.2 47.4 248.2 47.4 L 241.4 47.4 L 241.4 18.4 L 248.2 18.4 C 248.2 18.4 248.22 22.2 248.2 22.2 C 249.4 19.9 252.4 17.7 255 17.7 C 259.4 17.7 261.2 20.3 261.2 24.3 C 261.18 24.3 261.2 47.4 261.2 47.4 L 254.3 47.4 Z M 274.1 46 C 274.1 46 276.2 39.8 276.2 39.8 C 277.2 40.9 278.5 41.4 279.8 41.4 C 282.3 41.4 284 40.1 284 37 C 283.97 37.02 284 7.4 284 7.4 L 291.5 7.4 C 291.5 7.4 291.53 37.38 291.5 37.4 C 291.5 44.9 287.1 48.1 280.7 48.1 C 278.3 48.1 276.1 47.6 274.1 46 Z M 310.2 47.4 C 310.2 47.4 310.19 43.74 310.2 43.7 C 309.1 46.1 306.2 48.1 303.4 48.1 C 299 48.1 297.3 45.7 297.3 41.6 C 297.29 41.58 297.3 18.4 297.3 18.4 L 304.1 18.4 C 304.1 18.4 304.07 39.18 304.1 39.2 C 304.1 41.2 304.8 42.1 306.3 42.1 C 308 42.1 309.5 40.3 310.2 38.5 C 310.19 38.46 310.2 18.4 310.2 18.4 L 317 18.4 L 317 47.4 L 310.2 47.4 Z M 322.5 47.4 L 322.5 7.4 L 329.3 7.4 L 329.3 47.4 L 322.5 47.4 Z M 334 10.9 C 334 8.6 335.9 6.8 338.1 6.8 C 340.4 6.8 342.2 8.6 342.2 10.9 C 342.2 13.2 340.4 15 338.1 15 C 335.9 15 334 13.2 334 10.9 Z M 334.7 47.4 L 334.7 18.4 L 341.5 18.4 L 341.5 47.4 L 334.7 47.4 Z M 345.8 32.9 C 345.8 24.5 349.4 17.7 356.7 17.7 C 364 17.7 367.1 24.2 367.1 32.8 C 367.07 32.76 367.1 35.1 367.1 35.1 C 367.1 35.1 352.37 35.1 352.4 35.1 C 352.4 39.4 354.2 42.6 358.1 42.6 C 359.7 42.6 361.6 41.5 362.9 39.7 C 362.9 39.7 366.2 43.5 366.2 43.5 C 363.9 46.4 360.7 48.1 357.4 48.1 C 349.8 48.1 345.8 41.8 345.8 32.9 Z M 356.5 23.2 C 353.2 23.2 352.4 27.3 352.4 30.4 C 352.4 30.4 360.5 30.4 360.5 30.4 C 360.5 27.1 359.8 23.2 356.5 23.2 Z M 384.1 47.4 C 384.1 47.4 384.11 26.76 384.1 26.8 C 384.1 24.7 383.4 23.7 381.9 23.7 C 380.2 23.7 378.7 25.6 378 27.5 C 377.99 27.48 378 47.4 378 47.4 L 371.2 47.4 L 371.2 18.4 L 378 18.4 C 378 18.4 377.99 22.2 378 22.2 C 379.1 19.9 382.1 17.7 384.8 17.7 C 389.2 17.7 391 20.3 391 24.3 C 390.95 24.3 391 47.4 391 47.4 L 384.1 47.4 Z M 409.3 47.4 C 409.3 47.4 409.31 26.76 409.3 26.8 C 409.3 24.7 408.6 23.7 407.1 23.7 C 405.4 23.7 403.9 25.6 403.2 27.5 C 403.19 27.48 403.2 47.4 403.2 47.4 L 396.4 47.4 L 396.4 18.4 L 403.2 18.4 C 403.2 18.4 403.19 22.2 403.2 22.2 C 404.3 19.9 407.3 17.7 410 17.7 C 414.4 17.7 416.2 20.3 416.2 24.3 C 416.15 24.3 416.2 47.4 416.2 47.4 L 409.3 47.4 Z M 420.5 32.9 C 420.5 24.5 424.1 17.7 431.3 17.7 C 438.7 17.7 441.7 24.2 441.7 32.8 C 441.71 32.76 441.7 35.1 441.7 35.1 C 441.7 35.1 427.01 35.1 427 35.1 C 427.1 39.4 428.9 42.6 432.7 42.6 C 434.3 42.6 436.2 41.5 437.5 39.7 C 437.5 39.7 440.8 43.5 440.8 43.5 C 438.5 46.4 435.3 48.1 432 48.1 C 424.4 48.1 420.5 41.8 420.5 32.9 Z M 431.2 23.2 C 427.9 23.2 427 27.3 427 30.4 C 427 30.4 435.2 30.4 435.2 30.4 C 435.2 27.1 434.5 23.2 431.2 23.2 Z M 458.9 47.4 C 458.9 47.4 458.93 43.8 458.9 43.8 C 457.7 46.7 455.3 48.1 453.3 48.1 C 447.6 48.1 444.7 42.2 444.7 32.9 C 444.7 23.8 447.6 17.7 453.3 17.7 C 455.3 17.7 457.7 19 458.9 22 C 458.93 22.02 458.9 7.4 458.9 7.4 L 465.7 7.4 L 465.7 47.4 L 458.9 47.4 Z M 458.9 38.6 C 458.9 38.6 458.9 27.2 458.9 27.2 C 458.3 25.3 457 23.7 455.5 23.7 C 452.5 23.7 451.7 27.8 451.7 32.9 C 451.7 38 452.5 42.1 455.5 42.1 C 457 42.1 458.3 40.6 458.9 38.6 Z M 481.4 47.4 L 481.4 7.4 L 498.9 7.4 L 498.9 14 L 488.9 14 L 488.9 23.7 L 498.5 23.7 L 498.5 30.4 L 488.9 30.4 L 488.9 47.4 L 481.4 47.4 Z M 502.4 32.9 C 502.4 24.8 505.7 17.7 513.3 17.7 C 520.9 17.7 524.2 24.8 524.2 32.9 C 524.2 40.9 520.9 48.1 513.3 48.1 C 505.7 48.1 502.4 40.9 502.4 32.9 Z M 517.2 32.9 C 517.2 28 516.4 23.7 513.3 23.7 C 510.3 23.7 509.5 28 509.5 32.9 C 509.5 37.9 510.3 42.1 513.3 42.1 C 516.4 42.1 517.2 37.9 517.2 32.9 Z M 541.2 47.4 C 541.2 47.4 541.19 44.64 541.2 44.6 C 539.9 46.9 537.2 48.1 535.1 48.1 C 530.6 48.1 527.3 44.4 527.3 38.5 C 527.3 32.6 530.6 29 535.1 29 C 537.2 29 540 30.1 541.2 32.3 C 541.2 32.3 541.2 28.7 541.2 28.7 C 541.2 25.4 539.9 23.5 536.8 23.5 C 534.9 23.5 532.9 24.4 530.9 26.3 C 530.9 26.3 528.4 21.5 528.4 21.5 C 531.1 18.7 535.2 17.7 538.2 17.7 C 544.1 17.7 548 20.7 548 27.2 C 547.97 27.18 548 47.4 548 47.4 L 541.2 47.4 Z M 541.2 40.6 C 541.2 40.6 541.2 36.7 541.2 36.7 C 540.5 34.9 539 33.7 537.5 33.7 C 535.2 33.7 534.1 35.8 534.1 38.6 C 534.1 41.3 535.2 43.6 537.5 43.6 C 539 43.6 540.5 42.4 541.2 40.6 Z M 579.3 47.4 C 579.3 47.4 579.35 26.76 579.3 26.8 C 579.3 24.6 578.6 23.7 577.1 23.7 C 575.3 23.7 573.8 25.7 573.2 27.5 C 573.23 27.48 573.2 47.4 573.2 47.4 L 566.4 47.4 C 566.4 47.4 566.39 26.76 566.4 26.8 C 566.4 24.8 565.7 23.7 564.2 23.7 C 562.4 23.7 560.9 25.7 560.3 27.5 C 560.27 27.48 560.3 47.4 560.3 47.4 L 553.5 47.4 L 553.5 18.4 L 560.3 18.4 C 560.3 18.4 560.27 22.2 560.3 22.2 C 561.3 20 564.3 17.7 567 17.7 C 570.1 17.7 572.5 19.2 573 22.5 C 574.1 20.1 577.1 17.7 580 17.7 C 583.6 17.7 586.1 19.6 586.1 24.3 C 586.13 24.3 586.1 47.4 586.1 47.4 L 579.3 47.4 Z " stroke="none" fill="#b13d24"/>  </g></svg>