<?xml version="1.0" standalone="no"?><!DOCTYPE svg PUBLIC "-//W3C//DTD SVG 1.1//EN" "http://www.w3.org/Graphics/SVG/1.1/DTD/svg11.dtd"><svg xmlns="http://www.w3.org/2000/svg" version="1.1" width="149px" height="102.1px" viewBox="0 0 149 102.1">  <desc>ENTER</desc>  <defs/>  <g id="Polygon111148">    <path d="M 3.7 56.9 L 3.7 8.9 L 24.8 8.9 L 24.8 16.8 L 12.8 16.8 L 12.8 28.4 L 24.3 28.4 L 24.3 36.4 L 12.8 36.4 L 12.8 48.9 L 24.8 48.9 L 24.8 56.9 L 3.7 56.9 Z M 49.8 56.9 L 40 31.5 L 40 56.9 L 31 56.9 L 31 8.9 L 40 8.9 L 49.2 33.3 L 49.2 8.9 L 58.3 8.9 L 58.3 56.9 L 49.8 56.9 Z M 70.6 56.9 L 70.6 16.8 L 63.4 16.8 L 63.4 8.9 L 87 8.9 L 87 16.8 L 79.7 16.8 L 79.7 56.9 L 70.6 56.9 Z M 92 56.9 L 92 8.9 L 113 8.9 L 113 16.8 L 101.1 16.8 L 101.1 28.4 L 112.5 28.4 L 112.5 36.4 L 101.1 36.4 L 101.1 48.9 L 113 48.9 L 113 56.9 L 92 56.9 Z M 136.4 56.9 L 131.3 39.2 L 128.3 39.2 L 128.3 56.9 L 119.2 56.9 L 119.2 8.9 C 119.2 8.9 132.62 8.86 132.6 8.9 C 140.3 8.9 145.7 15 145.7 23.8 C 145.7 31.9 142.3 35.6 139.5 37 C 139.53 37.01 146.2 56.9 146.2 56.9 L 136.4 56.9 Z M 136.5 24 C 136.5 19.7 134.6 16.8 131.3 16.8 C 131.25 16.85 128.3 16.8 128.3 16.8 L 128.3 31.2 C 128.3 31.2 131.25 31.25 131.3 31.2 C 134.6 31.2 136.5 28.4 136.5 24 Z " stroke="none" fill="#e9e8e8"/>  </g></svg>