<?xml version="1.0" standalone="no"?><!DOCTYPE svg PUBLIC "-//W3C//DTD SVG 1.1//EN" "http://www.w3.org/Graphics/SVG/1.1/DTD/svg11.dtd"><svg xmlns="http://www.w3.org/2000/svg" version="1.1" width="651px" height="85.6px" viewBox="0 0 651 85.6">  <desc>Seared Talcum and Fruit Net Base</desc>  <defs/>  <g id="Polygon182063">    <path d="M 0.7 44.2 C 0.7 44.2 4 38.2 4 38.2 C 5.6 40.3 8.2 41.4 10.6 41.4 C 13 41.4 14.6 39.6 14.6 37 C 14.6 29.9 1.9 29.9 1.9 17.9 C 1.9 11.9 5.9 6.7 13 6.7 C 16.4 6.7 19.5 7.9 21.7 10 C 21.7 10 18.8 15.8 18.8 15.8 C 17.2 14.2 15.4 13.4 13.3 13.4 C 11.1 13.4 9.5 15.1 9.5 17.5 C 9.5 23.7 22.3 24.5 22.3 36.5 C 22.3 43.3 17.9 48.1 11 48.1 C 6.7 48.1 3.3 46.7 0.7 44.2 Z M 24.8 32.9 C 24.8 24.5 28.4 17.7 35.6 17.7 C 43 17.7 46 24.2 46 32.8 C 46.02 32.76 46 35.1 46 35.1 C 46 35.1 31.32 35.1 31.3 35.1 C 31.4 39.4 33.2 42.6 37 42.6 C 38.6 42.6 40.5 41.5 41.8 39.7 C 41.8 39.7 45.1 43.5 45.1 43.5 C 42.8 46.4 39.6 48.1 36.3 48.1 C 28.7 48.1 24.8 41.8 24.8 32.9 Z M 35.5 23.2 C 32.2 23.2 31.3 27.3 31.3 30.4 C 31.3 30.4 39.5 30.4 39.5 30.4 C 39.5 27.1 38.8 23.2 35.5 23.2 Z M 62.2 47.4 C 62.2 47.4 62.16 44.64 62.2 44.6 C 60.9 46.9 58.2 48.1 56.1 48.1 C 51.5 48.1 48.2 44.4 48.2 38.5 C 48.2 32.6 51.5 29 56.1 29 C 58.2 29 61 30.1 62.2 32.3 C 62.2 32.3 62.2 28.7 62.2 28.7 C 62.2 25.4 60.8 23.5 57.8 23.5 C 55.9 23.5 53.8 24.4 51.9 26.3 C 51.9 26.3 49.4 21.5 49.4 21.5 C 52 18.7 56.2 17.7 59.2 17.7 C 65.1 17.7 68.9 20.7 68.9 27.2 C 68.94 27.18 68.9 47.4 68.9 47.4 L 62.2 47.4 Z M 62.2 40.6 C 62.2 40.6 62.2 36.7 62.2 36.7 C 61.4 34.9 60 33.7 58.5 33.7 C 56.2 33.7 55 35.8 55 38.6 C 55 41.3 56.2 43.6 58.5 43.6 C 60 43.6 61.4 42.4 62.2 40.6 Z M 73.9 47.4 L 73.9 18.4 L 80.6 18.4 C 80.6 18.4 80.64 22.44 80.6 22.4 C 81.8 19.8 84.6 17.7 87.1 17.7 C 87.1 17.7 87.1 24.4 87.1 24.4 C 86.7 24.2 86.2 24.2 85.8 24.2 C 83.8 24.2 81.8 25.8 80.6 27.9 C 80.64 27.9 80.6 47.4 80.6 47.4 L 73.9 47.4 Z M 88.9 32.9 C 88.9 24.5 92.5 17.7 99.8 17.7 C 107.1 17.7 110.2 24.2 110.2 32.8 C 110.16 32.76 110.2 35.1 110.2 35.1 C 110.2 35.1 95.46 35.1 95.5 35.1 C 95.5 39.4 97.3 42.6 101.2 42.6 C 102.8 42.6 104.6 41.5 106 39.7 C 106 39.7 109.3 43.5 109.3 43.5 C 107 46.4 103.7 48.1 100.4 48.1 C 92.9 48.1 88.9 41.8 88.9 32.9 Z M 99.6 23.2 C 96.3 23.2 95.5 27.3 95.5 30.4 C 95.5 30.4 103.6 30.4 103.6 30.4 C 103.6 27.1 102.9 23.2 99.6 23.2 Z M 126.8 47.4 C 126.8 47.4 126.78 43.8 126.8 43.8 C 125.5 46.7 123.2 48.1 121.1 48.1 C 115.4 48.1 112.6 42.2 112.6 32.9 C 112.6 23.8 115.4 17.7 121.1 17.7 C 123.2 17.7 125.6 19 126.8 22 C 126.78 22.02 126.8 7.4 126.8 7.4 L 133.6 7.4 L 133.6 47.4 L 126.8 47.4 Z M 126.8 38.6 C 126.8 38.6 126.8 27.2 126.8 27.2 C 126.2 25.3 124.8 23.7 123.4 23.7 C 120.4 23.7 119.5 27.8 119.5 32.9 C 119.5 38 120.4 42.1 123.4 42.1 C 124.8 42.1 126.2 40.6 126.8 38.6 Z M 152 47.4 L 152 14 L 146 14 L 146 7.4 L 165.7 7.4 L 165.7 14 L 159.6 14 L 159.6 47.4 L 152 47.4 Z M 178.7 47.4 C 178.7 47.4 178.74 44.64 178.7 44.6 C 177.5 46.9 174.8 48.1 172.7 48.1 C 168.1 48.1 164.8 44.4 164.8 38.5 C 164.8 32.6 168.1 29 172.7 29 C 174.8 29 177.5 30.1 178.7 32.3 C 178.7 32.3 178.7 28.7 178.7 28.7 C 178.7 25.4 177.4 23.5 174.4 23.5 C 172.4 23.5 170.4 24.4 168.5 26.3 C 168.5 26.3 166 21.5 166 21.5 C 168.6 18.7 172.7 17.7 175.7 17.7 C 181.7 17.7 185.5 20.7 185.5 27.2 C 185.52 27.18 185.5 47.4 185.5 47.4 L 178.7 47.4 Z M 178.7 40.6 C 178.7 40.6 178.7 36.7 178.7 36.7 C 178 34.9 176.6 33.7 175.1 33.7 C 172.7 33.7 171.6 35.8 171.6 38.6 C 171.6 41.3 172.7 43.6 175.1 43.6 C 176.6 43.6 178 42.4 178.7 40.6 Z M 190.4 47.4 L 190.4 7.4 L 197.2 7.4 L 197.2 47.4 L 190.4 47.4 Z M 200.9 32.9 C 200.9 24.1 205 17.7 212 17.7 C 215.2 17.7 217.6 18.9 219 20.3 C 219 20.3 216.8 25.6 216.8 25.6 C 215.6 24.3 214.6 23.7 213.2 23.7 C 209.6 23.7 207.9 27.8 207.9 32.9 C 207.9 37.9 209.6 42.1 213.2 42.1 C 214.6 42.1 215.6 41.5 216.8 40.3 C 216.8 40.3 219 45.5 219 45.5 C 217.6 47 215.2 48.1 212 48.1 C 205 48.1 200.9 41.7 200.9 32.9 Z M 235 47.4 C 235 47.4 235.02 43.74 235 43.7 C 233.9 46.1 231.1 48.1 228.2 48.1 C 223.9 48.1 222.1 45.7 222.1 41.6 C 222.12 41.58 222.1 18.4 222.1 18.4 L 228.9 18.4 C 228.9 18.4 228.9 39.18 228.9 39.2 C 228.9 41.2 229.6 42.1 231.1 42.1 C 232.9 42.1 234.4 40.3 235 38.5 C 235.02 38.46 235 18.4 235 18.4 L 241.9 18.4 L 241.9 47.4 L 235 47.4 Z M 272.6 47.4 C 272.6 47.4 272.58 26.76 272.6 26.8 C 272.6 24.6 271.8 23.7 270.4 23.7 C 268.5 23.7 267.1 25.7 266.5 27.5 C 266.46 27.48 266.5 47.4 266.5 47.4 L 259.6 47.4 C 259.6 47.4 259.62 26.76 259.6 26.8 C 259.6 24.8 259 23.7 257.4 23.7 C 255.6 23.7 254.1 25.7 253.5 27.5 C 253.5 27.48 253.5 47.4 253.5 47.4 L 246.7 47.4 L 246.7 18.4 L 253.5 18.4 C 253.5 18.4 253.5 22.2 253.5 22.2 C 254.5 20 257.5 17.7 260.3 17.7 C 263.3 17.7 265.7 19.2 266.2 22.5 C 267.3 20.1 270.4 17.7 273.2 17.7 C 276.8 17.7 279.4 19.6 279.4 24.3 C 279.36 24.3 279.4 47.4 279.4 47.4 L 272.6 47.4 Z M 306.1 47.4 C 306.1 47.4 306.06 44.64 306.1 44.6 C 304.8 46.9 302.1 48.1 300 48.1 C 295.4 48.1 292.1 44.4 292.1 38.5 C 292.1 32.6 295.4 29 300 29 C 302.1 29 304.9 30.1 306.1 32.3 C 306.1 32.3 306.1 28.7 306.1 28.7 C 306.1 25.4 304.7 23.5 301.7 23.5 C 299.8 23.5 297.7 24.4 295.8 26.3 C 295.8 26.3 293.3 21.5 293.3 21.5 C 295.9 18.7 300.1 17.7 303.1 17.7 C 309 17.7 312.8 20.7 312.8 27.2 C 312.84 27.18 312.8 47.4 312.8 47.4 L 306.1 47.4 Z M 306.1 40.6 C 306.1 40.6 306.1 36.7 306.1 36.7 C 305.3 34.9 303.9 33.7 302.4 33.7 C 300.1 33.7 298.9 35.8 298.9 38.6 C 298.9 41.3 300.1 43.6 302.4 43.6 C 303.9 43.6 305.3 42.4 306.1 40.6 Z M 330.7 47.4 C 330.7 47.4 330.66 26.76 330.7 26.8 C 330.7 24.7 329.9 23.7 328.4 23.7 C 326.7 23.7 325.2 25.6 324.5 27.5 C 324.54 27.48 324.5 47.4 324.5 47.4 L 317.8 47.4 L 317.8 18.4 L 324.5 18.4 C 324.5 18.4 324.54 22.2 324.5 22.2 C 325.7 19.9 328.7 17.7 331.3 17.7 C 335.7 17.7 337.5 20.3 337.5 24.3 C 337.5 24.3 337.5 47.4 337.5 47.4 L 330.7 47.4 Z M 355.4 47.4 C 355.4 47.4 355.43 43.8 355.4 43.8 C 354.2 46.7 351.8 48.1 349.8 48.1 C 344.1 48.1 341.2 42.2 341.2 32.9 C 341.2 23.8 344.1 17.7 349.8 17.7 C 351.8 17.7 354.2 19 355.4 22 C 355.43 22.02 355.4 7.4 355.4 7.4 L 362.2 7.4 L 362.2 47.4 L 355.4 47.4 Z M 355.4 38.6 C 355.4 38.6 355.4 27.2 355.4 27.2 C 354.8 25.3 353.5 23.7 352 23.7 C 349 23.7 348.2 27.8 348.2 32.9 C 348.2 38 349 42.1 352 42.1 C 353.5 42.1 354.8 40.6 355.4 38.6 Z M 376.7 47.4 L 376.7 7.4 L 394.2 7.4 L 394.2 14 L 384.2 14 L 384.2 23.7 L 393.8 23.7 L 393.8 30.4 L 384.2 30.4 L 384.2 47.4 L 376.7 47.4 Z M 398.3 47.4 L 398.3 18.4 L 405.1 18.4 C 405.1 18.4 405.05 22.44 405.1 22.4 C 406.2 19.8 409 17.7 411.5 17.7 C 411.5 17.7 411.5 24.4 411.5 24.4 C 411.1 24.2 410.6 24.2 410.2 24.2 C 408.2 24.2 406.2 25.8 405.1 27.9 C 405.05 27.9 405.1 47.4 405.1 47.4 L 398.3 47.4 Z M 427.4 47.4 C 427.4 47.4 427.37 43.74 427.4 43.7 C 426.2 46.1 423.4 48.1 420.6 48.1 C 416.2 48.1 414.5 45.7 414.5 41.6 C 414.47 41.58 414.5 18.4 414.5 18.4 L 421.3 18.4 C 421.3 18.4 421.25 39.18 421.3 39.2 C 421.3 41.2 422 42.1 423.5 42.1 C 425.2 42.1 426.7 40.3 427.4 38.5 C 427.37 38.46 427.4 18.4 427.4 18.4 L 434.2 18.4 L 434.2 47.4 L 427.4 47.4 Z M 438.3 10.9 C 438.3 8.6 440.2 6.8 442.4 6.8 C 444.7 6.8 446.6 8.6 446.6 10.9 C 446.6 13.2 444.7 15 442.4 15 C 440.2 15 438.3 13.2 438.3 10.9 Z M 439.1 47.4 L 439.1 18.4 L 445.9 18.4 L 445.9 47.4 L 439.1 47.4 Z M 451.6 40.7 C 451.61 40.74 451.6 24.3 451.6 24.3 L 448.9 24.3 L 448.9 18.4 L 451.6 18.4 L 451.6 10.5 L 458.4 10.5 L 458.4 18.4 L 462.1 18.4 L 462.1 24.3 L 458.4 24.3 C 458.4 24.3 458.39 39.42 458.4 39.4 C 458.4 41.2 458.8 42.1 460 42.1 C 460.7 42.1 461.3 41.8 461.6 41.3 C 461.6 41.3 463 46.6 463 46.6 C 462 47.5 460.4 48.1 458.3 48.1 C 453.5 48.1 451.6 45.7 451.6 40.7 Z M 490.8 47.4 L 482.7 26.2 L 482.7 47.4 L 475.1 47.4 L 475.1 7.4 L 482.7 7.4 L 490.4 27.8 L 490.4 7.4 L 497.9 7.4 L 497.9 47.4 L 490.8 47.4 Z M 502.1 32.9 C 502.1 24.5 505.7 17.7 512.9 17.7 C 520.3 17.7 523.3 24.2 523.3 32.8 C 523.31 32.76 523.3 35.1 523.3 35.1 C 523.3 35.1 508.61 35.1 508.6 35.1 C 508.7 39.4 510.5 42.6 514.3 42.6 C 515.9 42.6 517.8 41.5 519.1 39.7 C 519.1 39.7 522.4 43.5 522.4 43.5 C 520.1 46.4 516.9 48.1 513.6 48.1 C 506 48.1 502.1 41.8 502.1 32.9 Z M 512.8 23.2 C 509.5 23.2 508.6 27.3 508.6 30.4 C 508.6 30.4 516.8 30.4 516.8 30.4 C 516.8 27.1 516.1 23.2 512.8 23.2 Z M 527.8 40.7 C 527.75 40.74 527.8 24.3 527.8 24.3 L 525.1 24.3 L 525.1 18.4 L 527.8 18.4 L 527.8 10.5 L 534.5 10.5 L 534.5 18.4 L 538.2 18.4 L 538.2 24.3 L 534.5 24.3 C 534.5 24.3 534.53 39.42 534.5 39.4 C 534.5 41.2 535 42.1 536.2 42.1 C 536.8 42.1 537.4 41.8 537.8 41.3 C 537.8 41.3 539.2 46.6 539.2 46.6 C 538.1 47.5 536.5 48.1 534.4 48.1 C 529.7 48.1 527.8 45.7 527.8 40.7 Z M 551.3 47.4 L 551.3 7.4 C 551.3 7.4 563.33 7.38 563.3 7.4 C 570 7.4 572.9 12.1 572.9 17.6 C 572.9 22.6 570.5 25.7 567.1 26.8 C 570.8 27.4 573.5 31.7 573.5 36.6 C 573.5 42.7 570.7 47.4 563.8 47.4 C 563.75 47.4 551.3 47.4 551.3 47.4 Z M 565.2 18.9 C 565.2 16 564.2 14 561.4 14 C 561.35 14.04 558.8 14 558.8 14 L 558.8 23.7 C 558.8 23.7 561.35 23.7 561.4 23.7 C 564.2 23.7 565.2 21.8 565.2 18.9 Z M 565.7 35.5 C 565.7 32.6 564.4 30.4 561.6 30.4 C 561.59 30.36 558.8 30.4 558.8 30.4 L 558.8 40.7 C 558.8 40.7 561.59 40.74 561.6 40.7 C 564.4 40.7 565.7 38.9 565.7 35.5 Z M 590 47.4 C 590 47.4 590.03 44.64 590 44.6 C 588.8 46.9 586.1 48.1 584 48.1 C 579.4 48.1 576.1 44.4 576.1 38.5 C 576.1 32.6 579.4 29 584 29 C 586.1 29 588.8 30.1 590 32.3 C 590 32.3 590 28.7 590 28.7 C 590 25.4 588.7 23.5 585.7 23.5 C 583.7 23.5 581.7 24.4 579.8 26.3 C 579.8 26.3 577.3 21.5 577.3 21.5 C 579.9 18.7 584 17.7 587 17.7 C 593 17.7 596.8 20.7 596.8 27.2 C 596.81 27.18 596.8 47.4 596.8 47.4 L 590 47.4 Z M 590 40.6 C 590 40.6 590 36.7 590 36.7 C 589.3 34.9 587.9 33.7 586.4 33.7 C 584 33.7 582.9 35.8 582.9 38.6 C 582.9 41.3 584 43.6 586.4 43.6 C 587.9 43.6 589.3 42.4 590 40.6 Z M 599.7 44.3 C 599.7 44.3 602.5 39.7 602.5 39.7 C 604.1 41.4 606.2 42.8 608.5 42.8 C 610.7 42.8 612.2 41.6 612.2 39.7 C 612.2 34.9 600.7 36 600.7 25.9 C 600.7 21.5 604 17.7 610 17.7 C 613.3 17.7 616.3 19 618.5 21.1 C 618.5 21.1 615.7 25.7 615.7 25.7 C 614.6 24.3 612.5 23 610.1 23 C 608.3 23 607 24.2 607 25.7 C 607 30.1 618.6 29.3 618.6 39.5 C 618.6 44.6 614.6 48.1 609.1 48.1 C 604.8 48.1 601.6 46.6 599.7 44.3 Z M 620.7 32.9 C 620.7 24.5 624.3 17.7 631.6 17.7 C 638.9 17.7 642 24.2 642 32.8 C 641.99 32.76 642 35.1 642 35.1 C 642 35.1 627.29 35.1 627.3 35.1 C 627.3 39.4 629.1 42.6 633 42.6 C 634.6 42.6 636.5 41.5 637.8 39.7 C 637.8 39.7 641.1 43.5 641.1 43.5 C 638.8 46.4 635.6 48.1 632.3 48.1 C 624.7 48.1 620.7 41.8 620.7 32.9 Z M 631.4 23.2 C 628.1 23.2 627.3 27.3 627.3 30.4 C 627.3 30.4 635.4 30.4 635.4 30.4 C 635.4 27.1 634.7 23.2 631.4 23.2 Z " stroke="none" fill="#b13d24"/>  </g></svg>