<?xml version="1.0" standalone="no"?><!DOCTYPE svg PUBLIC "-//W3C//DTD SVG 1.1//EN" "http://www.w3.org/Graphics/SVG/1.1/DTD/svg11.dtd"><svg xmlns="http://www.w3.org/2000/svg" version="1.1" width="841px" height="256.1px" viewBox="0 0 841 256.1">  <desc>Glue Sauce Cardboard with Soap Chunks and Blackened Hot Glue Sticks</desc>  <defs/>  <g id="Polygon119109">    <path d="M 265.4 192.9 L 265.4 172.1 L 256.2 172.1 L 256.2 192.9 L 247.1 192.9 L 247.1 144.9 L 256.2 144.9 L 256.2 164.2 L 265.4 164.2 L 265.4 144.9 L 274.5 144.9 L 274.5 192.9 L 265.4 192.9 Z M 280.1 175.5 C 280.1 165.8 284.1 157.2 293.2 157.2 C 302.3 157.2 306.3 165.8 306.3 175.5 C 306.3 185.1 302.3 193.7 293.2 193.7 C 284.1 193.7 280.1 185.1 280.1 175.5 Z M 297.9 175.5 C 297.9 169.6 296.8 164.4 293.2 164.4 C 289.6 164.4 288.6 169.6 288.6 175.5 C 288.6 181.4 289.6 186.5 293.2 186.5 C 296.8 186.5 297.9 181.4 297.9 175.5 Z M 312.6 184.9 C 312.61 184.89 312.6 165.2 312.6 165.2 L 309.4 165.2 L 309.4 158.1 L 312.6 158.1 L 312.6 148.6 L 320.7 148.6 L 320.7 158.1 L 325.1 158.1 L 325.1 165.2 L 320.7 165.2 C 320.7 165.2 320.75 183.3 320.7 183.3 C 320.7 185.5 321.3 186.5 322.7 186.5 C 323.5 186.5 324.2 186.2 324.6 185.6 C 324.6 185.6 326.3 191.9 326.3 191.9 C 325.1 193 323.1 193.7 320.6 193.7 C 314.9 193.7 312.6 190.9 312.6 184.9 Z M 340.8 168.9 C 340.8 154.1 345.4 144.1 355.8 144.1 C 362.5 144.1 366.3 149.2 367.8 155.4 C 367.8 155.4 360.6 158 360.6 158 C 359.8 154.7 358.6 152.1 355.8 152.1 C 352.2 152.1 350.1 157.4 350.1 168.9 C 350.1 180.4 352.2 185.7 355.8 185.7 C 357.8 185.7 359.2 184.9 360.1 183.5 C 360.13 183.52 360.1 174.8 360.1 174.8 L 354.7 174.8 L 354.7 166.8 L 368.1 166.8 C 368.1 166.8 368.13 187.41 368.1 187.4 C 365 191.4 361.2 193.7 355.8 193.7 C 345.4 193.7 340.8 183.6 340.8 168.9 Z M 374.5 192.9 L 374.5 144.9 L 382.6 144.9 L 382.6 192.9 L 374.5 192.9 Z M 404.6 192.9 C 404.6 192.9 404.63 188.49 404.6 188.5 C 403.3 191.3 399.9 193.7 396.5 193.7 C 391.2 193.7 389.1 190.9 389.1 185.9 C 389.15 185.9 389.1 158.1 389.1 158.1 L 397.3 158.1 C 397.3 158.1 397.28 183.02 397.3 183 C 397.3 185.4 398.1 186.5 399.9 186.5 C 402 186.5 403.8 184.4 404.6 182.2 C 404.63 182.15 404.6 158.1 404.6 158.1 L 412.8 158.1 L 412.8 192.9 L 404.6 192.9 Z M 418 175.5 C 418 165.4 422.3 157.2 431.1 157.2 C 439.8 157.2 443.5 165.1 443.5 175.3 C 443.51 175.31 443.5 178.1 443.5 178.1 C 443.5 178.1 425.87 178.12 425.9 178.1 C 425.9 183.2 428.1 187.1 432.7 187.1 C 434.7 187.1 436.9 185.8 438.5 183.7 C 438.5 183.7 442.4 188.2 442.4 188.2 C 439.7 191.7 435.8 193.7 431.8 193.7 C 422.8 193.7 418 186.1 418 175.5 Z M 430.8 163.9 C 426.9 163.9 425.9 168.8 425.9 172.4 C 425.9 172.4 435.7 172.4 435.7 172.4 C 435.7 168.5 434.8 163.9 430.8 163.9 Z M 457.8 189 C 457.8 189 461.7 181.9 461.7 181.9 C 463.7 184.4 466.8 185.7 469.6 185.7 C 472.5 185.7 474.4 183.5 474.4 180.4 C 474.4 171.9 459.1 171.9 459.1 157.5 C 459.1 150.3 464 144.1 472.5 144.1 C 476.6 144.1 480.3 145.4 483 148 C 483 148 479.4 154.9 479.4 154.9 C 477.6 153 475.3 152.1 472.8 152.1 C 470.2 152.1 468.3 154.1 468.3 157 C 468.3 164.4 483.6 165.4 483.6 179.8 C 483.6 187.9 478.4 193.7 470.1 193.7 C 464.9 193.7 460.9 192.1 457.8 189 Z M 489.1 184.9 C 489.08 184.89 489.1 165.2 489.1 165.2 L 485.8 165.2 L 485.8 158.1 L 489.1 158.1 L 489.1 148.6 L 497.2 148.6 L 497.2 158.1 L 501.6 158.1 L 501.6 165.2 L 497.2 165.2 C 497.2 165.2 497.22 183.3 497.2 183.3 C 497.2 185.5 497.7 186.5 499.2 186.5 C 500 186.5 500.7 186.2 501.1 185.6 C 501.1 185.6 502.8 191.9 502.8 191.9 C 501.5 193 499.6 193.7 497.1 193.7 C 491.4 193.7 489.1 190.9 489.1 184.9 Z M 505.6 149.1 C 505.6 146.4 507.9 144.1 510.6 144.1 C 513.3 144.1 515.6 146.4 515.6 149.1 C 515.6 151.8 513.3 154 510.6 154 C 507.9 154 505.6 151.8 505.6 149.1 Z M 506.6 192.9 L 506.6 158.1 L 514.7 158.1 L 514.7 192.9 L 506.6 192.9 Z M 519.9 175.5 C 519.9 164.9 524.8 157.2 533.1 157.2 C 537 157.2 539.9 158.7 541.6 160.3 C 541.6 160.3 539 166.7 539 166.7 C 537.5 165.2 536.2 164.4 534.6 164.4 C 530.3 164.4 528.3 169.4 528.3 175.5 C 528.3 181.5 530.3 186.5 534.6 186.5 C 536.2 186.5 537.5 185.8 539 184.3 C 539 184.3 541.6 190.6 541.6 190.6 C 539.9 192.4 537 193.7 533.1 193.7 C 524.8 193.7 519.9 186 519.9 175.5 Z M 562.4 192.9 L 557.3 179 L 554.2 184.7 L 554.2 192.9 L 546 192.9 L 546 144.9 L 554.2 144.9 L 554.2 174.2 L 562.2 158.1 L 571 158.1 L 562.7 173.5 L 571.4 192.9 L 562.4 192.9 Z M 572.6 189.2 C 572.6 189.2 576 183.6 576 183.6 C 577.9 185.7 580.4 187.3 583.2 187.3 C 585.8 187.3 587.6 185.9 587.6 183.6 C 587.6 177.9 573.8 179.2 573.8 167.1 C 573.8 161.8 577.8 157.2 584.9 157.2 C 588.9 157.2 592.5 158.8 595.1 161.3 C 595.1 161.3 591.8 166.8 591.8 166.8 C 590.5 165.2 587.9 163.6 585.1 163.6 C 582.9 163.6 581.4 165.1 581.4 166.9 C 581.4 172.1 595.3 171.2 595.3 183.4 C 595.3 189.5 590.5 193.7 583.9 193.7 C 578.7 193.7 574.9 191.9 572.6 189.2 Z " stroke="none" fill="#e9e8e8"/>  </g>  <g id="Polygon119108">    <path d="M 86.3 121 C 86.3 121 90.2 113.9 90.2 113.9 C 92.2 116.4 95.3 117.7 98.1 117.7 C 101 117.7 102.9 115.5 102.9 112.4 C 102.9 103.9 87.7 103.9 87.7 89.5 C 87.7 82.3 92.5 76.1 101 76.1 C 105.1 76.1 108.8 77.4 111.5 80 C 111.5 80 108 86.9 108 86.9 C 106.1 85 103.9 84.1 101.3 84.1 C 98.7 84.1 96.9 86.1 96.9 89 C 96.9 96.4 112.1 97.4 112.1 111.8 C 112.1 119.9 106.9 125.7 98.7 125.7 C 93.4 125.7 89.4 124.1 86.3 121 Z M 115.9 107.5 C 115.9 97.8 119.8 89.2 128.9 89.2 C 138.1 89.2 142 97.8 142 107.5 C 142 117.1 138.1 125.7 128.9 125.7 C 119.8 125.7 115.9 117.1 115.9 107.5 Z M 133.6 107.5 C 133.6 101.6 132.6 96.4 128.9 96.4 C 125.3 96.4 124.3 101.6 124.3 107.5 C 124.3 113.4 125.3 118.5 128.9 118.5 C 132.6 118.5 133.6 113.4 133.6 107.5 Z M 162.4 124.9 C 162.4 124.9 162.39 121.57 162.4 121.6 C 160.9 124.3 157.6 125.7 155.1 125.7 C 149.6 125.7 145.7 121.3 145.7 114.2 C 145.7 107.1 149.6 102.8 155.1 102.8 C 157.6 102.8 160.9 104.1 162.4 106.7 C 162.4 106.7 162.4 102.5 162.4 102.5 C 162.4 98.5 160.8 96.2 157.1 96.2 C 154.8 96.2 152.4 97.2 150.1 99.6 C 150.1 99.6 147.1 93.8 147.1 93.8 C 150.2 90.5 155.2 89.2 158.8 89.2 C 165.9 89.2 170.5 92.8 170.5 100.6 C 170.52 100.62 170.5 124.9 170.5 124.9 L 162.4 124.9 Z M 162.4 116.7 C 162.4 116.7 162.4 112 162.4 112 C 161.5 109.8 159.8 108.4 158 108.4 C 155.2 108.4 153.8 111 153.8 114.3 C 153.8 117.6 155.2 120.3 158 120.3 C 159.8 120.3 161.5 118.9 162.4 116.7 Z M 185.3 120.6 C 185.28 120.56 185.3 138.1 185.3 138.1 L 177.1 138.1 L 177.1 90.1 L 185.3 90.1 C 185.3 90.1 185.28 94.42 185.3 94.4 C 186.8 91 189.6 89.2 192.1 89.2 C 198.9 89.2 202.3 96.3 202.3 107.5 C 202.3 118.4 198.9 125.7 192.1 125.7 C 189.6 125.7 186.7 124.2 185.3 120.6 Z M 194 107.5 C 194 101.3 193 96.4 189.4 96.4 C 187.7 96.4 186 98.2 185.3 100.5 C 185.3 100.5 185.3 114.4 185.3 114.4 C 186 116.7 187.7 118.5 189.4 118.5 C 193 118.5 194 113.6 194 107.5 Z M 218.3 100.9 C 218.3 86.6 222.8 76.1 233.3 76.1 C 241.1 76.1 243.8 82.3 245.3 87.4 C 245.3 87.4 238.1 90 238.1 90 C 237.1 86.4 236 84.1 233.3 84.1 C 229 84.1 227.5 91.1 227.5 100.9 C 227.5 110.7 229 117.7 233.3 117.7 C 236.3 117.7 237.6 114.7 238.2 110.7 C 238.2 110.7 245.5 113.4 245.5 113.4 C 244.1 118.8 241.3 125.7 233.3 125.7 C 222.8 125.7 218.3 115.2 218.3 100.9 Z M 265.7 124.9 C 265.7 124.9 265.71 99.97 265.7 100 C 265.7 97.6 264.8 96.4 263 96.4 C 261 96.4 259.2 98.7 258.4 101 C 258.36 100.98 258.4 124.9 258.4 124.9 L 250.2 124.9 L 250.2 76.9 L 258.4 76.9 C 258.4 76.9 258.36 94.64 258.4 94.6 C 259.7 91.8 263.3 89.2 266.5 89.2 C 271.8 89.2 273.9 92.1 273.9 97.1 C 273.91 97.09 273.9 124.9 273.9 124.9 L 265.7 124.9 Z M 295.9 124.9 C 295.9 124.9 295.95 120.49 295.9 120.5 C 294.6 123.3 291.2 125.7 287.8 125.7 C 282.6 125.7 280.5 122.9 280.5 117.9 C 280.47 117.9 280.5 90.1 280.5 90.1 L 288.6 90.1 C 288.6 90.1 288.6 115.02 288.6 115 C 288.6 117.4 289.5 118.5 291.3 118.5 C 293.4 118.5 295.2 116.4 295.9 114.2 C 295.95 114.15 295.9 90.1 295.9 90.1 L 304.2 90.1 L 304.2 124.9 L 295.9 124.9 Z M 326.2 124.9 C 326.2 124.9 326.18 100.11 326.2 100.1 C 326.2 97.7 325.3 96.4 323.5 96.4 C 321.4 96.4 319.6 98.7 318.8 101 C 318.84 100.98 318.8 124.9 318.8 124.9 L 310.7 124.9 L 310.7 90.1 L 318.8 90.1 C 318.8 90.1 318.84 94.64 318.8 94.6 C 320.2 91.8 323.8 89.2 327 89.2 C 332.2 89.2 334.4 92.3 334.4 97.2 C 334.39 97.16 334.4 124.9 334.4 124.9 L 326.2 124.9 Z M 357.4 124.9 L 352.2 111 L 349.1 116.7 L 349.1 124.9 L 340.9 124.9 L 340.9 76.9 L 349.1 76.9 L 349.1 106.2 L 357.1 90.1 L 365.9 90.1 L 357.6 105.5 L 366.3 124.9 L 357.4 124.9 Z M 367.5 121.2 C 367.5 121.2 370.9 115.6 370.9 115.6 C 372.8 117.7 375.4 119.3 378.1 119.3 C 380.7 119.3 382.5 117.9 382.5 115.6 C 382.5 109.9 368.7 111.2 368.7 99.1 C 368.7 93.8 372.7 89.2 379.8 89.2 C 383.8 89.2 387.5 90.8 390 93.3 C 390 93.3 386.7 98.8 386.7 98.8 C 385.4 97.2 382.8 95.6 380 95.6 C 377.8 95.6 376.3 97.1 376.3 98.9 C 376.3 104.1 390.2 103.2 390.2 115.4 C 390.2 121.5 385.4 125.7 378.8 125.7 C 373.6 125.7 369.8 123.9 367.5 121.2 Z M 421.7 124.9 C 421.7 124.9 421.73 121.57 421.7 121.6 C 420.2 124.3 417 125.7 414.5 125.7 C 409 125.7 405 121.3 405 114.2 C 405 107.1 409 102.8 414.5 102.8 C 417 102.8 420.3 104.1 421.7 106.7 C 421.7 106.7 421.7 102.5 421.7 102.5 C 421.7 98.5 420.1 96.2 416.5 96.2 C 414.2 96.2 411.7 97.2 409.4 99.6 C 409.4 99.6 406.4 93.8 406.4 93.8 C 409.6 90.5 414.5 89.2 418.1 89.2 C 425.3 89.2 429.9 92.8 429.9 100.6 C 429.86 100.62 429.9 124.9 429.9 124.9 L 421.7 124.9 Z M 421.7 116.7 C 421.7 116.7 421.7 112 421.7 112 C 420.9 109.8 419.1 108.4 417.3 108.4 C 414.5 108.4 413.2 111 413.2 114.3 C 413.2 117.6 414.5 120.3 417.3 120.3 C 419.1 120.3 420.9 118.9 421.7 116.7 Z M 452 124.9 C 452 124.9 451.97 100.11 452 100.1 C 452 97.7 451.1 96.4 449.3 96.4 C 447.2 96.4 445.4 98.7 444.6 101 C 444.62 100.98 444.6 124.9 444.6 124.9 L 436.5 124.9 L 436.5 90.1 L 444.6 90.1 C 444.6 90.1 444.62 94.64 444.6 94.6 C 446 91.8 449.6 89.2 452.8 89.2 C 458 89.2 460.2 92.3 460.2 97.2 C 460.18 97.16 460.2 124.9 460.2 124.9 L 452 124.9 Z M 482.4 124.9 C 482.4 124.9 482.42 120.56 482.4 120.6 C 480.9 124 478.1 125.7 475.7 125.7 C 468.8 125.7 465.4 118.7 465.4 107.5 C 465.4 96.6 468.8 89.2 475.7 89.2 C 478.1 89.2 481 90.8 482.4 94.4 C 482.42 94.42 482.4 76.9 482.4 76.9 L 490.6 76.9 L 490.6 124.9 L 482.4 124.9 Z M 482.4 114.4 C 482.4 114.4 482.4 100.6 482.4 100.6 C 481.7 98.3 480 96.4 478.3 96.4 C 474.7 96.4 473.7 101.3 473.7 107.5 C 473.7 113.6 474.7 118.5 478.3 118.5 C 480 118.5 481.7 116.7 482.4 114.4 Z M 509.4 124.9 L 509.4 76.9 C 509.4 76.9 523.82 76.86 523.8 76.9 C 531.8 76.9 535.3 82.5 535.3 89.1 C 535.3 95.1 532.5 98.9 528.3 100.1 C 532.8 100.8 536 106 536 111.9 C 536 119.3 532.6 124.9 524.3 124.9 C 524.33 124.88 509.4 124.9 509.4 124.9 Z M 526.1 90.7 C 526.1 87.2 524.8 84.8 521.4 84.8 C 521.45 84.85 518.4 84.8 518.4 84.8 L 518.4 96.4 C 518.4 96.4 521.45 96.44 521.4 96.4 C 524.8 96.4 526.1 94.1 526.1 90.7 Z M 526.7 110.6 C 526.7 107.1 525.1 104.4 521.7 104.4 C 521.73 104.43 518.4 104.4 518.4 104.4 L 518.4 116.9 C 518.4 116.9 521.73 116.89 521.7 116.9 C 525.1 116.9 526.7 114.7 526.7 110.6 Z M 541.5 124.9 L 541.5 76.9 L 549.6 76.9 L 549.6 124.9 L 541.5 124.9 Z M 571.3 124.9 C 571.3 124.9 571.27 121.57 571.3 121.6 C 569.8 124.3 566.5 125.7 564 125.7 C 558.5 125.7 554.6 121.3 554.6 114.2 C 554.6 107.1 558.5 102.8 564 102.8 C 566.5 102.8 569.8 104.1 571.3 106.7 C 571.3 106.7 571.3 102.5 571.3 102.5 C 571.3 98.5 569.7 96.2 566 96.2 C 563.7 96.2 561.3 97.2 559 99.6 C 559 99.6 555.9 93.8 555.9 93.8 C 559.1 90.5 564.1 89.2 567.7 89.2 C 574.8 89.2 579.4 92.8 579.4 100.6 C 579.41 100.62 579.4 124.9 579.4 124.9 L 571.3 124.9 Z M 571.3 116.7 C 571.3 116.7 571.3 112 571.3 112 C 570.4 109.8 568.7 108.4 566.9 108.4 C 564.1 108.4 562.7 111 562.7 114.3 C 562.7 117.6 564.1 120.3 566.9 120.3 C 568.7 120.3 570.4 118.9 571.3 116.7 Z M 584.7 107.5 C 584.7 96.9 589.6 89.2 597.9 89.2 C 601.8 89.2 604.7 90.7 606.3 92.3 C 606.3 92.3 603.7 98.7 603.7 98.7 C 602.3 97.2 601 96.4 599.3 96.4 C 595.1 96.4 593 101.4 593 107.5 C 593 113.5 595.1 118.5 599.3 118.5 C 601 118.5 602.3 117.8 603.7 116.3 C 603.7 116.3 606.3 122.6 606.3 122.6 C 604.7 124.4 601.8 125.7 597.9 125.7 C 589.6 125.7 584.7 118 584.7 107.5 Z M 627.2 124.9 L 622.1 111 L 618.9 116.7 L 618.9 124.9 L 610.8 124.9 L 610.8 76.9 L 618.9 76.9 L 618.9 106.2 L 626.9 90.1 L 635.8 90.1 L 627.5 105.5 L 636.1 124.9 L 627.2 124.9 Z M 637.7 107.5 C 637.7 97.4 642 89.2 650.7 89.2 C 659.5 89.2 663.1 97.1 663.1 107.3 C 663.14 107.31 663.1 110.1 663.1 110.1 C 663.1 110.1 645.5 110.12 645.5 110.1 C 645.6 115.2 647.7 119.1 652.3 119.1 C 654.3 119.1 656.5 117.8 658.1 115.7 C 658.1 115.7 662.1 120.2 662.1 120.2 C 659.3 123.7 655.4 125.7 651.5 125.7 C 642.4 125.7 637.7 118.1 637.7 107.5 Z M 650.5 95.9 C 646.5 95.9 645.5 100.8 645.5 104.4 C 645.5 104.4 655.3 104.4 655.3 104.4 C 655.3 100.5 654.4 95.9 650.5 95.9 Z M 683.6 124.9 C 683.6 124.9 683.59 100.11 683.6 100.1 C 683.6 97.7 682.7 96.4 680.9 96.4 C 678.8 96.4 677 98.7 676.2 101 C 676.24 100.98 676.2 124.9 676.2 124.9 L 668.1 124.9 L 668.1 90.1 L 676.2 90.1 C 676.2 90.1 676.24 94.64 676.2 94.6 C 677.6 91.8 681.2 89.2 684.4 89.2 C 689.6 89.2 691.8 92.3 691.8 97.2 C 691.8 97.16 691.8 124.9 691.8 124.9 L 683.6 124.9 Z M 697 107.5 C 697 97.4 701.3 89.2 710 89.2 C 718.8 89.2 722.5 97.1 722.5 107.3 C 722.47 107.31 722.5 110.1 722.5 110.1 C 722.5 110.1 704.83 110.12 704.8 110.1 C 704.9 115.2 707.1 119.1 711.7 119.1 C 713.6 119.1 715.8 117.8 717.4 115.7 C 717.4 115.7 721.4 120.2 721.4 120.2 C 718.7 123.7 714.8 125.7 710.8 125.7 C 701.7 125.7 697 118.1 697 107.5 Z M 709.8 95.9 C 705.8 95.9 704.8 100.8 704.8 104.4 C 704.8 104.4 714.6 104.4 714.6 104.4 C 714.6 100.5 713.8 95.9 709.8 95.9 Z M 743.1 124.9 C 743.1 124.9 743.13 120.56 743.1 120.6 C 741.6 124 738.8 125.7 736.4 125.7 C 729.5 125.7 726.1 118.7 726.1 107.5 C 726.1 96.6 729.5 89.2 736.4 89.2 C 738.8 89.2 741.7 90.8 743.1 94.4 C 743.13 94.42 743.1 76.9 743.1 76.9 L 751.3 76.9 L 751.3 124.9 L 743.1 124.9 Z M 743.1 114.4 C 743.1 114.4 743.1 100.6 743.1 100.6 C 742.4 98.3 740.8 96.4 739 96.4 C 735.4 96.4 734.4 101.3 734.4 107.5 C 734.4 113.6 735.4 118.5 739 118.5 C 740.8 118.5 742.4 116.7 743.1 114.4 Z " stroke="none" fill="#e9e8e8"/>  </g>  <g id="Polygon119107">    <path d="M 100.3 32.9 C 100.3 18.1 104.9 8.1 115.3 8.1 C 122 8.1 125.7 13.2 127.3 19.4 C 127.3 19.4 120.1 22 120.1 22 C 119.3 18.7 118.1 16.1 115.3 16.1 C 111.7 16.1 109.5 21.4 109.5 32.9 C 109.5 44.4 111.7 49.7 115.3 49.7 C 117.3 49.7 118.7 48.9 119.6 47.5 C 119.62 47.52 119.6 38.8 119.6 38.8 L 114.2 38.8 L 114.2 30.8 L 127.6 30.8 C 127.6 30.8 127.61 51.41 127.6 51.4 C 124.4 55.4 120.7 57.7 115.3 57.7 C 104.9 57.7 100.3 47.6 100.3 32.9 Z M 133.9 56.9 L 133.9 8.9 L 142.1 8.9 L 142.1 56.9 L 133.9 56.9 Z M 164.1 56.9 C 164.1 56.9 164.12 52.49 164.1 52.5 C 162.7 55.3 159.4 57.7 156 57.7 C 150.7 57.7 148.6 54.9 148.6 49.9 C 148.64 49.9 148.6 22.1 148.6 22.1 L 156.8 22.1 C 156.8 22.1 156.77 47.02 156.8 47 C 156.8 49.4 157.6 50.5 159.4 50.5 C 161.5 50.5 163.3 48.4 164.1 46.2 C 164.12 46.15 164.1 22.1 164.1 22.1 L 172.3 22.1 L 172.3 56.9 L 164.1 56.9 Z M 177.5 39.5 C 177.5 29.4 181.8 21.2 190.5 21.2 C 199.3 21.2 203 29.1 203 39.3 C 203 39.31 203 42.1 203 42.1 C 203 42.1 185.36 42.12 185.4 42.1 C 185.4 47.2 187.6 51.1 192.2 51.1 C 194.1 51.1 196.4 49.8 198 47.7 C 198 47.7 201.9 52.2 201.9 52.2 C 199.2 55.7 195.3 57.7 191.3 57.7 C 182.3 57.7 177.5 50.1 177.5 39.5 Z M 190.3 27.9 C 186.4 27.9 185.4 32.8 185.4 36.4 C 185.4 36.4 195.1 36.4 195.1 36.4 C 195.1 32.5 194.3 27.9 190.3 27.9 Z M 217.3 53 C 217.3 53 221.2 45.9 221.2 45.9 C 223.2 48.4 226.3 49.7 229.1 49.7 C 231.9 49.7 233.9 47.5 233.9 44.4 C 233.9 35.9 218.6 35.9 218.6 21.5 C 218.6 14.3 223.5 8.1 232 8.1 C 236 8.1 239.8 9.4 242.5 12 C 242.5 12 238.9 18.9 238.9 18.9 C 237.1 17 234.8 16.1 232.3 16.1 C 229.7 16.1 227.8 18.1 227.8 21 C 227.8 28.4 243.1 29.4 243.1 43.8 C 243.1 51.9 237.8 57.7 229.6 57.7 C 224.4 57.7 220.3 56.1 217.3 53 Z M 263.3 56.9 C 263.3 56.9 263.33 53.57 263.3 53.6 C 261.8 56.3 258.6 57.7 256.1 57.7 C 250.6 57.7 246.6 53.3 246.6 46.2 C 246.6 39.1 250.6 34.8 256.1 34.8 C 258.6 34.8 261.9 36.1 263.3 38.7 C 263.3 38.7 263.3 34.5 263.3 34.5 C 263.3 30.5 261.7 28.2 258.1 28.2 C 255.8 28.2 253.3 29.2 251 31.6 C 251 31.6 248 25.8 248 25.8 C 251.2 22.5 256.1 21.2 259.7 21.2 C 266.9 21.2 271.5 24.8 271.5 32.6 C 271.47 32.62 271.5 56.9 271.5 56.9 L 263.3 56.9 Z M 263.3 48.7 C 263.3 48.7 263.3 44 263.3 44 C 262.5 41.8 260.7 40.4 258.9 40.4 C 256.1 40.4 254.8 43 254.8 46.3 C 254.8 49.6 256.1 52.3 258.9 52.3 C 260.7 52.3 262.5 50.9 263.3 48.7 Z M 293.6 56.9 C 293.6 56.9 293.57 52.49 293.6 52.5 C 292.2 55.3 288.8 57.7 285.4 57.7 C 280.2 57.7 278.1 54.9 278.1 49.9 C 278.09 49.9 278.1 22.1 278.1 22.1 L 286.2 22.1 C 286.2 22.1 286.23 47.02 286.2 47 C 286.2 49.4 287.1 50.5 288.9 50.5 C 291 50.5 292.8 48.4 293.6 46.2 C 293.57 46.15 293.6 22.1 293.6 22.1 L 301.8 22.1 L 301.8 56.9 L 293.6 56.9 Z M 307 39.5 C 307 28.9 311.9 21.2 320.2 21.2 C 324.1 21.2 327 22.7 328.6 24.3 C 328.6 24.3 326 30.7 326 30.7 C 324.6 29.2 323.3 28.4 321.7 28.4 C 317.4 28.4 315.3 33.4 315.3 39.5 C 315.3 45.5 317.4 50.5 321.7 50.5 C 323.3 50.5 324.6 49.8 326 48.3 C 326 48.3 328.6 54.6 328.6 54.6 C 327 56.4 324.1 57.7 320.2 57.7 C 311.9 57.7 307 50 307 39.5 Z M 331.7 39.5 C 331.7 29.4 336.1 21.2 344.8 21.2 C 353.5 21.2 357.2 29.1 357.2 39.3 C 357.22 39.31 357.2 42.1 357.2 42.1 C 357.2 42.1 339.58 42.12 339.6 42.1 C 339.7 47.2 341.8 51.1 346.4 51.1 C 348.4 51.1 350.6 49.8 352.2 47.7 C 352.2 47.7 356.1 52.2 356.1 52.2 C 353.4 55.7 349.5 57.7 345.6 57.7 C 336.5 57.7 331.7 50.1 331.7 39.5 Z M 344.5 27.9 C 340.6 27.9 339.6 32.8 339.6 36.4 C 339.6 36.4 349.4 36.4 349.4 36.4 C 349.4 32.5 348.5 27.9 344.5 27.9 Z M 372.8 32.9 C 372.8 18.6 377.4 8.1 387.9 8.1 C 395.7 8.1 398.4 14.3 399.9 19.4 C 399.9 19.4 392.7 22 392.7 22 C 391.7 18.4 390.6 16.1 387.9 16.1 C 383.6 16.1 382.1 23.1 382.1 32.9 C 382.1 42.7 383.6 49.7 387.9 49.7 C 390.8 49.7 392.1 46.7 392.8 42.7 C 392.8 42.7 400.1 45.4 400.1 45.4 C 398.7 50.8 395.9 57.7 387.9 57.7 C 377.4 57.7 372.8 47.2 372.8 32.9 Z M 419.9 56.9 C 419.9 56.9 419.93 53.57 419.9 53.6 C 418.4 56.3 415.2 57.7 412.7 57.7 C 407.2 57.7 403.2 53.3 403.2 46.2 C 403.2 39.1 407.2 34.8 412.7 34.8 C 415.2 34.8 418.5 36.1 419.9 38.7 C 419.9 38.7 419.9 34.5 419.9 34.5 C 419.9 30.5 418.3 28.2 414.7 28.2 C 412.4 28.2 409.9 29.2 407.6 31.6 C 407.6 31.6 404.6 25.8 404.6 25.8 C 407.8 22.5 412.7 21.2 416.3 21.2 C 423.5 21.2 428.1 24.8 428.1 32.6 C 428.06 32.62 428.1 56.9 428.1 56.9 L 419.9 56.9 Z M 419.9 48.7 C 419.9 48.7 419.9 44 419.9 44 C 419.1 41.8 417.3 40.4 415.5 40.4 C 412.7 40.4 411.4 43 411.4 46.3 C 411.4 49.6 412.7 52.3 415.5 52.3 C 417.3 52.3 419.1 50.9 419.9 48.7 Z M 434.7 56.9 L 434.7 22.1 L 442.8 22.1 C 442.8 22.1 442.82 26.93 442.8 26.9 C 444.2 23.8 447.6 21.2 450.6 21.2 C 450.6 21.2 450.6 29.2 450.6 29.2 C 450.1 29.1 449.5 29 449 29 C 446.6 29 444.2 31 442.8 33.5 C 442.82 33.48 442.8 56.9 442.8 56.9 L 434.7 56.9 Z M 470.5 56.9 C 470.5 56.9 470.54 52.56 470.5 52.6 C 469 56 466.2 57.7 463.8 57.7 C 456.9 57.7 453.5 50.7 453.5 39.5 C 453.5 28.6 456.9 21.2 463.8 21.2 C 466.2 21.2 469.1 22.8 470.5 26.4 C 470.54 26.42 470.5 8.9 470.5 8.9 L 478.7 8.9 L 478.7 56.9 L 470.5 56.9 Z M 470.5 46.4 C 470.5 46.4 470.5 32.6 470.5 32.6 C 469.8 30.3 468.2 28.4 466.4 28.4 C 462.8 28.4 461.8 33.3 461.8 39.5 C 461.8 45.6 462.8 50.5 466.4 50.5 C 468.2 50.5 469.8 48.7 470.5 46.4 Z M 497.5 50.5 C 501.1 50.5 502.2 45.6 502.2 39.5 C 502.2 33.3 501.1 28.4 497.5 28.4 C 495.8 28.4 494.2 30.3 493.4 32.7 C 493.4 32.7 493.4 46.4 493.4 46.4 C 494.2 48.7 495.8 50.5 497.5 50.5 Z M 485.3 56.9 L 485.3 8.9 L 493.4 8.9 C 493.4 8.9 493.44 26.42 493.4 26.4 C 494.9 22.8 497.8 21.2 500.2 21.2 C 507 21.2 510.5 28.6 510.5 39.5 C 510.5 50.7 507 57.7 500.2 57.7 C 497.8 57.7 495 56 493.4 52.6 C 493.44 52.56 493.4 56.9 493.4 56.9 L 485.3 56.9 Z M 514.4 39.5 C 514.4 29.8 518.4 21.2 527.4 21.2 C 536.6 21.2 540.5 29.8 540.5 39.5 C 540.5 49.1 536.6 57.7 527.4 57.7 C 518.4 57.7 514.4 49.1 514.4 39.5 Z M 532.1 39.5 C 532.1 33.6 531.1 28.4 527.4 28.4 C 523.8 28.4 522.8 33.6 522.8 39.5 C 522.8 45.4 523.8 50.5 527.4 50.5 C 531.1 50.5 532.1 45.4 532.1 39.5 Z M 560.9 56.9 C 560.9 56.9 560.9 53.57 560.9 53.6 C 559.4 56.3 556.1 57.7 553.6 57.7 C 548.2 57.7 544.2 53.3 544.2 46.2 C 544.2 39.1 548.2 34.8 553.6 34.8 C 556.1 34.8 559.5 36.1 560.9 38.7 C 560.9 38.7 560.9 34.5 560.9 34.5 C 560.9 30.5 559.3 28.2 555.6 28.2 C 553.3 28.2 550.9 29.2 548.6 31.6 C 548.6 31.6 545.6 25.8 545.6 25.8 C 548.7 22.5 553.7 21.2 557.3 21.2 C 564.4 21.2 569 24.8 569 32.6 C 569.04 32.62 569 56.9 569 56.9 L 560.9 56.9 Z M 560.9 48.7 C 560.9 48.7 560.9 44 560.9 44 C 560 41.8 558.3 40.4 556.5 40.4 C 553.7 40.4 552.3 43 552.3 46.3 C 552.3 49.6 553.7 52.3 556.5 52.3 C 558.3 52.3 560 50.9 560.9 48.7 Z M 575.7 56.9 L 575.7 22.1 L 583.8 22.1 C 583.8 22.1 583.8 26.93 583.8 26.9 C 585.2 23.8 588.5 21.2 591.6 21.2 C 591.6 21.2 591.6 29.2 591.6 29.2 C 591.1 29.1 590.5 29 590 29 C 587.6 29 585.2 31 583.8 33.5 C 583.8 33.48 583.8 56.9 583.8 56.9 L 575.7 56.9 Z M 611.5 56.9 C 611.5 56.9 611.52 52.56 611.5 52.6 C 610 56 607.2 57.7 604.7 57.7 C 597.9 57.7 594.5 50.7 594.5 39.5 C 594.5 28.6 597.9 21.2 604.7 21.2 C 607.2 21.2 610.1 22.8 611.5 26.4 C 611.52 26.42 611.5 8.9 611.5 8.9 L 619.7 8.9 L 619.7 56.9 L 611.5 56.9 Z M 611.5 46.4 C 611.5 46.4 611.5 32.6 611.5 32.6 C 610.8 30.3 609.1 28.4 607.4 28.4 C 603.8 28.4 602.8 33.3 602.8 39.5 C 602.8 45.6 603.8 50.5 607.4 50.5 C 609.1 50.5 610.8 48.7 611.5 46.4 Z M 661.6 56.9 L 656.6 33.2 L 651.6 56.9 L 643.1 56.9 L 635.1 22.1 L 643.5 22.1 L 647.9 45.9 L 652.4 22.1 L 660.3 22.1 L 665.2 45.9 L 669.6 22.1 L 678.1 22.1 L 670.1 56.9 L 661.6 56.9 Z M 680.9 13.1 C 680.9 10.4 683.2 8.1 685.8 8.1 C 688.6 8.1 690.8 10.4 690.8 13.1 C 690.8 15.8 688.6 18 685.8 18 C 683.2 18 680.9 15.8 680.9 13.1 Z M 681.8 56.9 L 681.8 22.1 L 689.9 22.1 L 689.9 56.9 L 681.8 56.9 Z M 697.6 48.9 C 697.55 48.89 697.6 29.2 697.6 29.2 L 694.3 29.2 L 694.3 22.1 L 697.6 22.1 L 697.6 12.6 L 705.7 12.6 L 705.7 22.1 L 710.1 22.1 L 710.1 29.2 L 705.7 29.2 C 705.7 29.2 705.69 47.3 705.7 47.3 C 705.7 49.5 706.2 50.5 707.6 50.5 C 708.4 50.5 709.1 50.2 709.6 49.6 C 709.6 49.6 711.2 55.9 711.2 55.9 C 710 57 708.1 57.7 705.5 57.7 C 699.9 57.7 697.6 54.9 697.6 48.9 Z M 730.5 56.9 C 730.5 56.9 730.53 31.97 730.5 32 C 730.5 29.6 729.7 28.4 727.9 28.4 C 725.8 28.4 724 30.7 723.2 33 C 723.19 32.98 723.2 56.9 723.2 56.9 L 715.1 56.9 L 715.1 8.9 L 723.2 8.9 C 723.2 8.9 723.19 26.64 723.2 26.6 C 724.6 23.8 728.2 21.2 731.3 21.2 C 736.6 21.2 738.7 24.1 738.7 29.1 C 738.74 29.09 738.7 56.9 738.7 56.9 L 730.5 56.9 Z " stroke="none" fill="#e9e8e8"/>  </g></svg>