<?xml version="1.0" standalone="no"?><!DOCTYPE svg PUBLIC "-//W3C//DTD SVG 1.1//EN" "http://www.w3.org/Graphics/SVG/1.1/DTD/svg11.dtd"><svg xmlns="http://www.w3.org/2000/svg" version="1.1" width="191px" height="44.3px" viewBox="0 0 191 44.3">  <desc>34 hrs 20 mins</desc>  <defs/>  <g id="Polygon211297">    <path d="M 9.4 20.8 C 9.4 20.8 11.8 18.3 11.8 18.3 C 12.8 19.6 14.4 20.5 16.1 20.5 C 18.2 20.5 19.1 19.4 19.1 17.8 C 19.1 16 17.8 15.3 15.9 15.3 C 15.2 15.3 14.3 15.3 14 15.4 C 14 15.4 14 11.7 14 11.7 C 14.3 11.8 15.3 11.8 15.8 11.8 C 17.6 11.8 18.9 11 18.9 9.4 C 18.9 7.8 17.7 7 15.9 7 C 14.4 7 12.9 7.7 11.9 9 C 11.9 9 9.6 6.6 9.6 6.6 C 11.1 4.6 13.4 3.4 16.2 3.4 C 20.2 3.4 22.8 5.3 22.8 8.8 C 22.8 11.1 21.1 13 19 13.4 C 21.1 13.7 23.1 15.5 23.1 18.2 C 23.1 21.7 20.4 24.1 16.2 24.1 C 13.1 24.1 10.6 22.6 9.4 20.8 Z M 32.9 23.7 L 32.9 19.4 L 24.8 19.4 L 24.8 16.1 L 31.8 3.7 L 36.9 3.7 L 36.9 15.9 L 39 15.9 L 39 19.4 L 36.9 19.4 L 36.9 23.7 L 32.9 23.7 Z M 32.9 7.8 L 28.4 15.9 L 32.9 15.9 L 32.9 7.8 Z M 55.7 23.7 C 55.7 23.7 55.66 14.1 55.7 14.1 C 55.7 12.6 54.9 12 53.7 12 C 52.6 12 51.6 13 51.1 13.8 C 51.13 13.83 51.1 23.7 51.1 23.7 L 47.5 23.7 L 47.5 3.7 L 51.1 3.7 C 51.1 3.7 51.13 11.1 51.1 11.1 C 51.9 10 53.5 8.8 55.4 8.8 C 58.1 8.8 59.3 10.3 59.3 12.7 C 59.26 12.75 59.3 23.7 59.3 23.7 L 55.7 23.7 Z M 62.5 23.7 L 62.5 9.2 L 66.1 9.2 C 66.1 9.2 66.1 11.19 66.1 11.2 C 66.9 9.9 68.5 8.8 70.1 8.8 C 70.1 8.8 70.1 12.4 70.1 12.4 C 69.8 12.3 69.5 12.3 69.2 12.3 C 68.1 12.3 66.7 13 66.1 14 C 66.1 14.04 66.1 23.7 66.1 23.7 L 62.5 23.7 Z M 71 22 C 71 22 72.5 19.5 72.5 19.5 C 73.4 20.4 75 21.2 76.5 21.2 C 77.9 21.2 78.6 20.6 78.6 19.7 C 78.6 17.3 71.5 18.6 71.5 13.2 C 71.5 10.9 73.4 8.8 76.8 8.8 C 78.8 8.8 80.5 9.6 81.8 10.7 C 81.8 10.7 80.4 13.1 80.4 13.1 C 79.6 12.3 78.3 11.6 76.8 11.6 C 75.7 11.6 74.9 12.2 74.9 13 C 74.9 15.2 82.1 14.1 82.1 19.6 C 82.1 22.2 80 24.1 76.6 24.1 C 74.2 24.1 72.2 23.3 71 22 Z M 90.5 23.7 C 90.5 23.7 90.46 20.46 90.5 20.5 C 97.8 13.3 99.3 11.8 99.3 9.5 C 99.3 7.9 98.1 7 96.6 7 C 94.9 7 93.5 7.8 92.4 9.2 C 92.4 9.2 90 6.7 90 6.7 C 91.6 4.5 94 3.4 96.7 3.4 C 100.6 3.4 103.4 5.7 103.4 9.4 C 103.4 12.5 101.4 15.1 96.4 20.2 C 96.4 20.16 103.5 20.2 103.5 20.2 L 103.5 23.7 L 90.5 23.7 Z M 105.7 13.7 C 105.7 8.5 107.9 3.4 112.8 3.4 C 117.8 3.4 119.9 8.5 119.9 13.7 C 119.9 18.8 117.8 24.1 112.8 24.1 C 107.9 24.1 105.7 18.8 105.7 13.7 Z M 115.8 13.7 C 115.8 9.8 115.2 7 112.8 7 C 110.5 7 109.8 9.8 109.8 13.7 C 109.8 17.5 110.5 20.5 112.8 20.5 C 115.2 20.5 115.8 17.5 115.8 13.7 Z M 144.3 23.7 C 144.3 23.7 144.28 13.95 144.3 13.9 C 144.3 12.7 143.8 12 142.6 12 C 141.5 12 140.6 13 140.1 13.8 C 140.14 13.83 140.1 23.7 140.1 23.7 L 136.5 23.7 C 136.5 23.7 136.54 13.95 136.5 13.9 C 136.5 12.8 136.1 12 134.9 12 C 133.8 12 132.9 13 132.4 13.8 C 132.4 13.83 132.4 23.7 132.4 23.7 L 128.8 23.7 L 128.8 9.2 L 132.4 9.2 C 132.4 9.2 132.4 11.1 132.4 11.1 C 133 10.1 134.7 8.8 136.5 8.8 C 138.3 8.8 139.6 9.7 140 11.4 C 140.7 10.1 142.4 8.8 144.2 8.8 C 146.4 8.8 147.9 10 147.9 12.7 C 147.88 12.69 147.9 23.7 147.9 23.7 L 144.3 23.7 Z M 150.8 5.4 C 150.8 4.2 151.7 3.2 152.9 3.2 C 154.1 3.2 155.1 4.2 155.1 5.4 C 155.1 6.6 154.1 7.6 152.9 7.6 C 151.7 7.6 150.8 6.6 150.8 5.4 Z M 151.1 23.7 L 151.1 9.2 L 154.7 9.2 L 154.7 23.7 L 151.1 23.7 Z M 166.1 23.7 C 166.1 23.7 166.09 14.16 166.1 14.2 C 166.1 12.6 165.4 12 164.2 12 C 163 12 162.1 13 161.6 13.8 C 161.56 13.83 161.6 23.7 161.6 23.7 L 158 23.7 L 158 9.2 L 161.6 9.2 C 161.6 9.2 161.56 11.1 161.6 11.1 C 162.3 10 164 8.8 165.8 8.8 C 168.5 8.8 169.7 10.4 169.7 12.8 C 169.69 12.81 169.7 23.7 169.7 23.7 L 166.1 23.7 Z M 171.8 22 C 171.8 22 173.4 19.5 173.4 19.5 C 174.3 20.4 175.9 21.2 177.4 21.2 C 178.7 21.2 179.5 20.6 179.5 19.7 C 179.5 17.3 172.3 18.6 172.3 13.2 C 172.3 10.9 174.2 8.8 177.6 8.8 C 179.7 8.8 181.4 9.6 182.6 10.7 C 182.6 10.7 181.2 13.1 181.2 13.1 C 180.5 12.3 179.1 11.6 177.7 11.6 C 176.5 11.6 175.7 12.2 175.7 13 C 175.7 15.2 182.9 14.1 182.9 19.6 C 182.9 22.2 180.8 24.1 177.4 24.1 C 175.1 24.1 173.1 23.3 171.8 22 Z " stroke="none" fill="#d3d2d2"/>  </g></svg>