<?xml version="1.0" standalone="no"?><!DOCTYPE svg PUBLIC "-//W3C//DTD SVG 1.1//EN" "http://www.w3.org/Graphics/SVG/1.1/DTD/svg11.dtd"><svg xmlns="http://www.w3.org/2000/svg" version="1.1" width="648px" height="575.3px" viewBox="0 0 648 575.3">  <desc>Cut three 5 centimetre segments of hot melt glue stick Using a heat gun, melt the ends of the segments so that the t</desc>  <defs/>  <g id="Polygon198600">    <path d="M 307.5 379.9 C 305.7 379.9 304.3 378.5 304.3 376.8 C 304.3 375 305.7 373.6 307.5 373.6 C 309.2 373.6 310.7 375 310.7 376.8 C 310.7 378.5 309.2 379.9 307.5 379.9 Z M 324.7 379.9 C 322.9 379.9 321.4 378.5 321.4 376.8 C 321.4 375 322.9 373.6 324.7 373.6 C 326.4 373.6 327.9 375 327.9 376.8 C 327.9 378.5 326.4 379.9 324.7 379.9 Z M 341.8 379.9 C 340.1 379.9 338.6 378.5 338.6 376.8 C 338.6 375 340.1 373.6 341.8 373.6 C 343.6 373.6 345.1 375 345.1 376.8 C 345.1 378.5 343.6 379.9 341.8 379.9 Z " stroke="none" fill="#b13d24"/>  </g>  <g id="Polygon198599">    <path d="M 8.6 312 L 8.6 306.9 L 0.7 306.9 L 0.7 304.8 L 7.9 292 L 11 292 L 11 304.8 L 13.2 304.8 L 13.2 306.9 L 11 306.9 L 11 312 L 8.6 312 Z M 8.6 294.6 L 2.9 304.8 L 8.6 304.8 L 8.6 294.6 Z M 15.4 310.7 C 15.4 309.9 16.1 309.1 17 309.1 C 17.8 309.1 18.6 309.9 18.6 310.7 C 18.6 311.6 17.8 312.3 17 312.3 C 16.1 312.3 15.4 311.6 15.4 310.7 Z M 39.6 312 L 35.7 304 L 32.8 304 L 32.8 312 L 30.4 312 L 30.4 292 C 30.4 292 36.57 292.01 36.6 292 C 39.8 292 42.1 294.3 42.1 298 C 42.1 301.6 40 303.3 38.1 303.7 C 38.07 303.65 42.3 312 42.3 312 L 39.6 312 Z M 39.6 298 C 39.6 295.7 38.4 294.1 36.3 294.1 C 36.3 294.11 32.8 294.1 32.8 294.1 L 32.8 301.9 C 32.8 301.9 36.3 301.91 36.3 301.9 C 38.4 301.9 39.6 300.3 39.6 298 Z M 43.8 304.8 C 43.8 300.6 46 297.2 49.7 297.2 C 53.5 297.2 55.4 300.6 55.4 304.8 C 55.44 304.82 55.4 305.5 55.4 305.5 C 55.4 305.5 46.05 305.48 46 305.5 C 46.1 308.4 47.6 310.6 50.2 310.6 C 51.5 310.6 52.8 310 53.7 308.8 C 53.7 308.8 54.8 310.1 54.8 310.1 C 53.6 311.5 52 312.4 50 312.4 C 46.2 312.4 43.8 309.2 43.8 304.8 Z M 49.7 299 C 47.1 299 46.1 301.8 46 303.9 C 46 303.9 53.3 303.9 53.3 303.9 C 53.3 301.7 52.3 299 49.7 299 Z M 60.4 309.9 C 60.42 309.92 60.4 317.5 60.4 317.5 L 58.3 317.5 L 58.3 297.5 L 60.4 297.5 C 60.4 297.5 60.42 299.6 60.4 299.6 C 61.3 298.1 62.7 297.2 64.2 297.2 C 67.5 297.2 69.4 300.2 69.4 304.8 C 69.4 309.3 67.5 312.4 64.2 312.4 C 62.8 312.4 61.3 311.5 60.4 309.9 Z M 67.2 304.8 C 67.2 301.6 66.1 299.1 63.7 299.1 C 62.3 299.1 61 300.2 60.4 301.4 C 60.4 301.4 60.4 308.1 60.4 308.1 C 61 309.3 62.3 310.5 63.7 310.5 C 66.1 310.5 67.2 307.9 67.2 304.8 Z M 71.6 304.8 C 71.6 300.6 73.8 297.2 77.5 297.2 C 81.3 297.2 83.2 300.6 83.2 304.8 C 83.22 304.82 83.2 305.5 83.2 305.5 C 83.2 305.5 73.83 305.48 73.8 305.5 C 73.9 308.4 75.4 310.6 78 310.6 C 79.3 310.6 80.5 310 81.4 308.8 C 81.4 308.8 82.6 310.1 82.6 310.1 C 81.4 311.5 79.8 312.4 77.8 312.4 C 73.9 312.4 71.6 309.2 71.6 304.8 Z M 77.5 299 C 74.9 299 73.9 301.8 73.8 303.9 C 73.8 303.9 81.1 303.9 81.1 303.9 C 81.1 301.7 80.1 299 77.5 299 Z M 93.5 312 C 93.5 312 93.51 310.46 93.5 310.5 C 92.6 311.8 91.2 312.4 89.7 312.4 C 87.4 312.4 85.3 310.6 85.3 307.6 C 85.3 304.5 87.3 302.8 89.7 302.8 C 91.2 302.8 92.6 303.4 93.5 304.6 C 93.5 304.6 93.5 302.1 93.5 302.1 C 93.5 300.1 92.4 299 90.5 299 C 89.2 299 88 299.5 86.9 300.8 C 86.9 300.8 85.9 299.3 85.9 299.3 C 87.3 297.8 89 297.2 90.9 297.2 C 93.7 297.2 95.7 298.6 95.7 301.9 C 95.67 301.88 95.7 312 95.7 312 L 93.5 312 Z M 93.5 309 C 93.5 309 93.5 306.2 93.5 306.2 C 92.8 305 91.6 304.4 90.4 304.4 C 88.6 304.4 87.5 305.8 87.5 307.6 C 87.5 309.4 88.6 310.8 90.4 310.8 C 91.6 310.8 92.8 310.2 93.5 309 Z M 99.7 309.1 C 99.72 309.11 99.7 299.4 99.7 299.4 L 97.8 299.4 L 97.8 297.5 L 99.7 297.5 L 99.7 293.6 L 101.9 293.6 L 101.9 297.5 L 104.3 297.5 L 104.3 299.4 L 101.9 299.4 C 101.9 299.4 101.88 308.72 101.9 308.7 C 101.9 309.8 102.2 310.5 103 310.5 C 103.6 310.5 104 310.2 104.3 309.9 C 104.3 309.9 105 311.5 105 311.5 C 104.5 312 103.7 312.4 102.6 312.4 C 100.6 312.4 99.7 311.3 99.7 309.1 Z M 111.9 310.3 C 111.9 310.3 112.9 308.8 112.9 308.8 C 113.8 309.8 115.2 310.6 116.7 310.6 C 118.4 310.6 119.5 309.7 119.5 308.3 C 119.5 304.9 112.3 306.1 112.3 301.1 C 112.3 298.9 114 297.2 116.9 297.2 C 118.8 297.2 120.3 297.9 121.3 299 C 121.3 299 120.3 300.5 120.3 300.5 C 119.6 299.5 118.3 298.9 116.9 298.9 C 115.3 298.9 114.4 299.8 114.4 301 C 114.4 304.1 121.6 303 121.6 308.2 C 121.6 310.6 119.7 312.4 116.8 312.4 C 114.7 312.4 113.1 311.7 111.9 310.3 Z M 124.8 309.1 C 124.76 309.11 124.8 299.4 124.8 299.4 L 122.8 299.4 L 122.8 297.5 L 124.8 297.5 L 124.8 293.6 L 126.9 293.6 L 126.9 297.5 L 129.4 297.5 L 129.4 299.4 L 126.9 299.4 C 126.9 299.4 126.92 308.72 126.9 308.7 C 126.9 309.8 127.3 310.5 128.1 310.5 C 128.6 310.5 129.1 310.2 129.4 309.9 C 129.4 309.9 130 311.5 130 311.5 C 129.5 312 128.8 312.4 127.7 312.4 C 125.7 312.4 124.8 311.3 124.8 309.1 Z M 131.2 304.8 C 131.2 300.6 133.4 297.2 137.1 297.2 C 140.9 297.2 142.8 300.6 142.8 304.8 C 142.82 304.82 142.8 305.5 142.8 305.5 C 142.8 305.5 133.43 305.48 133.4 305.5 C 133.5 308.4 135 310.6 137.6 310.6 C 138.9 310.6 140.2 310 141.1 308.8 C 141.1 308.8 142.2 310.1 142.2 310.1 C 141 311.5 139.4 312.4 137.4 312.4 C 133.6 312.4 131.2 309.2 131.2 304.8 Z M 137.1 299 C 134.5 299 133.5 301.8 133.4 303.9 C 133.4 303.9 140.7 303.9 140.7 303.9 C 140.7 301.7 139.7 299 137.1 299 Z M 147.8 309.9 C 147.8 309.92 147.8 317.5 147.8 317.5 L 145.7 317.5 L 145.7 297.5 L 147.8 297.5 C 147.8 297.5 147.8 299.6 147.8 299.6 C 148.6 298.1 150.1 297.2 151.6 297.2 C 154.9 297.2 156.8 300.2 156.8 304.8 C 156.8 309.3 154.9 312.4 151.6 312.4 C 150.1 312.4 148.7 311.5 147.8 309.9 Z M 154.6 304.8 C 154.6 301.6 153.4 299.1 151.1 299.1 C 149.7 299.1 148.4 300.2 147.8 301.4 C 147.8 301.4 147.8 308.1 147.8 308.1 C 148.4 309.3 149.7 310.5 151.1 310.5 C 153.4 310.5 154.6 307.9 154.6 304.8 Z M 158.5 310.3 C 158.5 310.3 159.6 308.8 159.6 308.8 C 160.5 309.8 161.8 310.6 163.4 310.6 C 165.1 310.6 166.2 309.7 166.2 308.3 C 166.2 304.9 159 306.1 159 301.1 C 159 298.9 160.7 297.2 163.6 297.2 C 165.5 297.2 167 297.9 168 299 C 168 299 167 300.5 167 300.5 C 166.3 299.5 165 298.9 163.6 298.9 C 162 298.9 161 299.8 161 301 C 161 304.1 168.3 303 168.3 308.2 C 168.3 310.6 166.4 312.4 163.4 312.4 C 161.4 312.4 159.7 311.7 158.5 310.3 Z M 180.2 312 L 180.2 295.2 L 177.1 298.5 L 175.6 297 L 180.4 292 L 182.5 292 L 182.5 312 L 180.2 312 Z M 192.9 309.1 C 192.89 309.11 192.9 299.4 192.9 299.4 L 191 299.4 L 191 297.5 L 192.9 297.5 L 192.9 293.6 L 195.1 293.6 L 195.1 297.5 L 197.5 297.5 L 197.5 299.4 L 195.1 299.4 C 195.1 299.4 195.05 308.72 195.1 308.7 C 195.1 309.8 195.4 310.5 196.2 310.5 C 196.8 310.5 197.2 310.2 197.5 309.9 C 197.5 309.9 198.1 311.5 198.1 311.5 C 197.6 312 196.9 312.4 195.8 312.4 C 193.8 312.4 192.9 311.3 192.9 309.1 Z M 199.3 304.8 C 199.3 300.7 201.4 297.2 205.2 297.2 C 209.1 297.2 211.1 300.7 211.1 304.8 C 211.1 308.8 209.1 312.4 205.2 312.4 C 201.4 312.4 199.3 308.8 199.3 304.8 Z M 208.9 304.8 C 208.9 301.9 207.8 299.1 205.2 299.1 C 202.7 299.1 201.6 301.9 201.6 304.8 C 201.6 307.7 202.7 310.5 205.2 310.5 C 207.8 310.5 208.9 307.7 208.9 304.8 Z M 219.1 309.1 C 219.1 309.1 220.7 307.6 220.7 307.6 C 221.6 309.1 223.1 310.3 225 310.3 C 227.4 310.3 228.6 308.8 228.6 306.4 C 228.6 303.7 226.8 302.8 224.8 302.8 C 224.2 302.8 223.5 302.8 223.2 302.8 C 223.2 302.8 223.2 300.7 223.2 300.7 C 223.5 300.7 224.2 300.7 224.7 300.7 C 226.7 300.7 228.4 299.6 228.4 297.4 C 228.4 295 226.9 293.8 224.9 293.8 C 223.1 293.8 221.9 294.8 220.9 296.2 C 220.9 296.2 219.4 294.9 219.4 294.9 C 220.6 292.9 222.6 291.7 225.1 291.7 C 228.3 291.7 230.7 293.5 230.7 297 C 230.7 299.5 229 301.3 227.2 301.7 C 228.9 301.9 231 303.7 231 306.6 C 231 310 228.9 312.4 225.1 312.4 C 222.2 312.4 220.1 310.9 219.1 309.1 Z M 247.7 312 C 247.7 312 247.7 310.46 247.7 310.5 C 246.8 311.8 245.4 312.4 243.9 312.4 C 241.6 312.4 239.5 310.6 239.5 307.6 C 239.5 304.5 241.5 302.8 243.9 302.8 C 245.4 302.8 246.8 303.4 247.7 304.6 C 247.7 304.6 247.7 302.1 247.7 302.1 C 247.7 300.1 246.6 299 244.7 299 C 243.4 299 242.2 299.5 241.1 300.8 C 241.1 300.8 240.1 299.3 240.1 299.3 C 241.5 297.8 243.2 297.2 245.1 297.2 C 247.9 297.2 249.9 298.6 249.9 301.9 C 249.86 301.88 249.9 312 249.9 312 L 247.7 312 Z M 247.7 309 C 247.7 309 247.7 306.2 247.7 306.2 C 247 305 245.8 304.4 244.6 304.4 C 242.8 304.4 241.7 305.8 241.7 307.6 C 241.7 309.4 242.8 310.8 244.6 310.8 C 245.8 310.8 247 310.2 247.7 309 Z M 252.3 310.3 C 252.3 310.3 253.4 308.8 253.4 308.8 C 254.2 309.8 255.6 310.6 257.2 310.6 C 258.9 310.6 260 309.7 260 308.3 C 260 304.9 252.7 306.1 252.7 301.1 C 252.7 298.9 254.5 297.2 257.4 297.2 C 259.3 297.2 260.8 297.9 261.8 299 C 261.8 299 260.8 300.5 260.8 300.5 C 260 299.5 258.8 298.9 257.4 298.9 C 255.8 298.9 254.8 299.8 254.8 301 C 254.8 304.1 262 303 262 308.2 C 262 310.6 260.2 312.4 257.2 312.4 C 255.2 312.4 253.5 311.7 252.3 310.3 Z M 285.6 312 C 285.6 312 285.59 301.52 285.6 301.5 C 285.6 300 285 299.1 283.6 299.1 C 282.3 299.1 281 300.2 280.4 301.4 C 280.43 301.4 280.4 312 280.4 312 L 278.3 312 C 278.3 312 278.27 301.52 278.3 301.5 C 278.3 300 277.6 299.1 276.2 299.1 C 274.9 299.1 273.7 300.2 273.1 301.4 C 273.08 301.4 273.1 312 273.1 312 L 271 312 L 271 297.5 L 273.1 297.5 C 273.1 297.5 273.08 299.6 273.1 299.6 C 273.7 298.5 275.3 297.2 277 297.2 C 278.9 297.2 280 298.2 280.3 299.8 C 281 298.4 282.7 297.2 284.4 297.2 C 286.5 297.2 287.8 298.3 287.8 301 C 287.75 300.95 287.8 312 287.8 312 L 285.6 312 Z M 298.9 312 C 298.9 312 298.85 310.46 298.9 310.5 C 297.9 311.8 296.5 312.4 295 312.4 C 292.7 312.4 290.7 310.6 290.7 307.6 C 290.7 304.5 292.7 302.8 295 302.8 C 296.5 302.8 298 303.4 298.9 304.6 C 298.9 304.6 298.9 302.1 298.9 302.1 C 298.9 300.1 297.8 299 295.9 299 C 294.5 299 293.4 299.5 292.3 300.8 C 292.3 300.8 291.3 299.3 291.3 299.3 C 292.7 297.8 294.4 297.2 296.2 297.2 C 299.1 297.2 301 298.6 301 301.9 C 301.01 301.88 301 312 301 312 L 298.9 312 Z M 298.9 309 C 298.9 309 298.9 306.2 298.9 306.2 C 298.2 305 297 304.4 295.7 304.4 C 293.9 304.4 292.9 305.8 292.9 307.6 C 292.9 309.4 293.9 310.8 295.7 310.8 C 297 310.8 298.2 310.2 298.9 309 Z M 312.5 312 C 312.5 312 312.47 301.7 312.5 301.7 C 312.5 299.8 311.6 299.1 310.2 299.1 C 308.7 299.1 307.4 300.2 306.8 301.4 C 306.77 301.4 306.8 312 306.8 312 L 304.6 312 L 304.6 297.5 L 306.8 297.5 C 306.8 297.5 306.77 299.6 306.8 299.6 C 307.6 298.3 309.2 297.2 311 297.2 C 313.4 297.2 314.6 298.5 314.6 301.1 C 314.63 301.1 314.6 312 314.6 312 L 312.5 312 Z M 317.9 315.8 C 318.1 315.9 318.6 316 318.8 316 C 319.7 316 320.1 315.7 320.5 314.5 C 320.54 314.54 321.3 312.3 321.3 312.3 L 316.5 297.5 L 318.8 297.5 L 322.4 309.4 L 326.1 297.5 L 328.4 297.5 C 328.4 297.5 322.58 315.08 322.6 315.1 C 321.9 317.2 320.7 317.9 319 317.9 C 318.5 317.9 317.9 317.8 317.5 317.7 C 317.5 317.7 317.9 315.8 317.9 315.8 Z M 336.8 309.1 C 336.8 309.11 336.8 299.4 336.8 299.4 L 334.9 299.4 L 334.9 297.5 L 336.8 297.5 L 336.8 293.6 L 339 293.6 L 339 297.5 L 341.4 297.5 L 341.4 299.4 L 339 299.4 C 339 299.4 338.96 308.72 339 308.7 C 339 309.8 339.3 310.5 340.1 310.5 C 340.7 310.5 341.1 310.2 341.4 309.9 C 341.4 309.9 342 311.5 342 311.5 C 341.5 312 340.8 312.4 339.7 312.4 C 337.7 312.4 336.8 311.3 336.8 309.1 Z M 343.5 294 C 343.5 293.2 344.2 292.5 345 292.5 C 345.8 292.5 346.5 293.2 346.5 294 C 346.5 294.8 345.8 295.4 345 295.4 C 344.2 295.4 343.5 294.8 343.5 294 Z M 344 312 L 344 297.5 L 346.1 297.5 L 346.1 312 L 344 312 Z M 364.4 312 C 364.4 312 364.4 301.52 364.4 301.5 C 364.4 300 363.8 299.1 362.4 299.1 C 361.1 299.1 359.8 300.2 359.2 301.4 C 359.24 301.4 359.2 312 359.2 312 L 357.1 312 C 357.1 312 357.08 301.52 357.1 301.5 C 357.1 300 356.4 299.1 355 299.1 C 353.7 299.1 352.5 300.2 351.9 301.4 C 351.89 301.4 351.9 312 351.9 312 L 349.8 312 L 349.8 297.5 L 351.9 297.5 C 351.9 297.5 351.89 299.6 351.9 299.6 C 352.5 298.5 354.1 297.2 355.8 297.2 C 357.7 297.2 358.8 298.2 359.1 299.8 C 359.8 298.4 361.5 297.2 363.2 297.2 C 365.3 297.2 366.6 298.3 366.6 301 C 366.56 300.95 366.6 312 366.6 312 L 364.4 312 Z M 369.5 304.8 C 369.5 300.6 371.7 297.2 375.4 297.2 C 379.2 297.2 381.1 300.6 381.1 304.8 C 381.11 304.82 381.1 305.5 381.1 305.5 C 381.1 305.5 371.72 305.48 371.7 305.5 C 371.8 308.4 373.3 310.6 375.9 310.6 C 377.1 310.6 378.4 310 379.3 308.8 C 379.3 308.8 380.5 310.1 380.5 310.1 C 379.3 311.5 377.7 312.4 375.7 312.4 C 371.8 312.4 369.5 309.2 369.5 304.8 Z M 375.3 299 C 372.8 299 371.8 301.8 371.7 303.9 C 371.7 303.9 379 303.9 379 303.9 C 378.9 301.7 378 299 375.3 299 Z M 382.8 310.3 C 382.8 310.3 383.9 308.8 383.9 308.8 C 384.7 309.8 386.1 310.6 387.6 310.6 C 389.3 310.6 390.4 309.7 390.4 308.3 C 390.4 304.9 383.2 306.1 383.2 301.1 C 383.2 298.9 384.9 297.2 387.8 297.2 C 389.7 297.2 391.2 297.9 392.2 299 C 392.2 299 391.2 300.5 391.2 300.5 C 390.5 299.5 389.3 298.9 387.9 298.9 C 386.3 298.9 385.3 299.8 385.3 301 C 385.3 304.1 392.5 303 392.5 308.2 C 392.5 310.6 390.6 312.4 387.7 312.4 C 385.6 312.4 384 311.7 382.8 310.3 Z M 408.9 312 C 408.9 312 408.86 310.46 408.9 310.5 C 407.9 311.8 406.5 312.4 405 312.4 C 402.7 312.4 400.7 310.6 400.7 307.6 C 400.7 304.5 402.7 302.8 405 302.8 C 406.5 302.8 408 303.4 408.9 304.6 C 408.9 304.6 408.9 302.1 408.9 302.1 C 408.9 300.1 407.8 299 405.9 299 C 404.5 299 403.4 299.5 402.3 300.8 C 402.3 300.8 401.3 299.3 401.3 299.3 C 402.7 297.8 404.4 297.2 406.2 297.2 C 409.1 297.2 411 298.6 411 301.9 C 411.02 301.88 411 312 411 312 L 408.9 312 Z M 408.9 309 C 408.9 309 408.9 306.2 408.9 306.2 C 408.2 305 407 304.4 405.7 304.4 C 403.9 304.4 402.9 305.8 402.9 307.6 C 402.9 309.4 403.9 310.8 405.7 310.8 C 407 310.8 408.2 310.2 408.9 309 Z M 413.5 310.3 C 413.5 310.3 414.6 308.8 414.6 308.8 C 415.4 309.8 416.8 310.6 418.3 310.6 C 420 310.6 421.1 309.7 421.1 308.3 C 421.1 304.9 413.9 306.1 413.9 301.1 C 413.9 298.9 415.6 297.2 418.5 297.2 C 420.4 297.2 421.9 297.9 422.9 299 C 422.9 299 421.9 300.5 421.9 300.5 C 421.2 299.5 420 298.9 418.5 298.9 C 417 298.9 416 299.8 416 301 C 416 304.1 423.2 303 423.2 308.2 C 423.2 310.6 421.3 312.4 418.4 312.4 C 416.3 312.4 414.7 311.7 413.5 310.3 Z M 440.4 312 C 440.4 312 440.39 309.95 440.4 310 C 439.5 311.4 438.1 312.4 436.6 312.4 C 433.3 312.4 431.4 309.4 431.4 304.8 C 431.4 300.3 433.3 297.2 436.6 297.2 C 438 297.2 439.5 298 440.4 299.6 C 440.39 299.63 440.4 292 440.4 292 L 442.5 292 L 442.5 312 L 440.4 312 Z M 440.4 308.1 C 440.4 308.1 440.4 301.5 440.4 301.5 C 439.8 300.2 438.5 299.1 437.1 299.1 C 434.7 299.1 433.6 301.6 433.6 304.8 C 433.6 307.9 434.7 310.5 437.1 310.5 C 438.5 310.5 439.8 309.4 440.4 308.1 Z M 445.5 304.8 C 445.5 300.6 447.7 297.2 451.4 297.2 C 455.2 297.2 457.1 300.6 457.1 304.8 C 457.1 304.82 457.1 305.5 457.1 305.5 C 457.1 305.5 447.71 305.48 447.7 305.5 C 447.8 308.4 449.3 310.6 451.9 310.6 C 453.1 310.6 454.4 310 455.3 308.8 C 455.3 308.8 456.5 310.1 456.5 310.1 C 455.3 311.5 453.6 312.4 451.7 312.4 C 447.8 312.4 445.5 309.2 445.5 304.8 Z M 451.3 299 C 448.8 299 447.8 301.8 447.7 303.9 C 447.7 303.9 455 303.9 455 303.9 C 454.9 301.7 454 299 451.3 299 Z M 458.8 310.3 C 458.8 310.3 459.9 308.8 459.9 308.8 C 460.7 309.8 462.1 310.6 463.6 310.6 C 465.3 310.6 466.4 309.7 466.4 308.3 C 466.4 304.9 459.2 306.1 459.2 301.1 C 459.2 298.9 460.9 297.2 463.8 297.2 C 465.7 297.2 467.2 297.9 468.2 299 C 468.2 299 467.2 300.5 467.2 300.5 C 466.5 299.5 465.3 298.9 463.8 298.9 C 462.3 298.9 461.3 299.8 461.3 301 C 461.3 304.1 468.5 303 468.5 308.2 C 468.5 310.6 466.6 312.4 463.7 312.4 C 461.6 312.4 460 311.7 458.8 310.3 Z M 470.8 294 C 470.8 293.2 471.5 292.5 472.3 292.5 C 473.1 292.5 473.8 293.2 473.8 294 C 473.8 294.8 473.1 295.4 472.3 295.4 C 471.5 295.4 470.8 294.8 470.8 294 Z M 471.3 312 L 471.3 297.5 L 473.4 297.5 L 473.4 312 L 471.3 312 Z M 477 312 L 477 297.5 L 479.2 297.5 C 479.2 297.5 479.18 299.84 479.2 299.8 C 480.1 298.3 481.5 297.2 483.3 297.2 C 483.3 297.2 483.3 299.5 483.3 299.5 C 483 299.4 482.8 299.4 482.6 299.4 C 481.2 299.4 479.8 300.5 479.2 301.7 C 479.18 301.73 479.2 312 479.2 312 L 477 312 Z M 484.8 304.8 C 484.8 300.6 487 297.2 490.6 297.2 C 494.4 297.2 496.4 300.6 496.4 304.8 C 496.37 304.82 496.4 305.5 496.4 305.5 C 496.4 305.5 486.98 305.48 487 305.5 C 487.1 308.4 488.6 310.6 491.1 310.6 C 492.4 310.6 493.7 310 494.6 308.8 C 494.6 308.8 495.7 310.1 495.7 310.1 C 494.6 311.5 492.9 312.4 491 312.4 C 487.1 312.4 484.8 309.2 484.8 304.8 Z M 490.6 299 C 488.1 299 487 301.8 487 303.9 C 487 303.9 494.2 303.9 494.2 303.9 C 494.2 301.7 493.2 299 490.6 299 Z M 507.5 312 C 507.5 312 507.49 309.95 507.5 310 C 506.7 311.4 505.2 312.4 503.7 312.4 C 500.4 312.4 498.5 309.4 498.5 304.8 C 498.5 300.3 500.4 297.2 503.7 297.2 C 505.2 297.2 506.6 298 507.5 299.6 C 507.49 299.63 507.5 292 507.5 292 L 509.7 292 L 509.7 312 L 507.5 312 Z M 507.5 308.1 C 507.5 308.1 507.5 301.5 507.5 301.5 C 507 300.2 505.6 299.1 504.2 299.1 C 501.9 299.1 500.7 301.6 500.7 304.8 C 500.7 307.9 501.9 310.5 504.2 310.5 C 505.6 310.5 507 309.4 507.5 308.1 Z M 513.2 310.7 C 513.2 309.9 513.9 309.1 514.8 309.1 C 515.6 309.1 516.4 309.9 516.4 310.7 C 516.4 311.6 515.6 312.3 514.8 312.3 C 513.9 312.3 513.2 311.6 513.2 310.7 Z " stroke="none" fill="#efd8d3"/>  </g>  <g id="Polygon198598">    <path d="M 37.8 240 C 37.8 240 37.77 238.46 37.8 238.5 C 36.8 239.8 35.4 240.4 34 240.4 C 31.6 240.4 29.6 238.6 29.6 235.6 C 29.6 232.5 31.6 230.8 34 230.8 C 35.4 230.8 36.9 231.4 37.8 232.6 C 37.8 232.6 37.8 230.1 37.8 230.1 C 37.8 228.1 36.7 227 34.8 227 C 33.4 227 32.3 227.5 31.2 228.8 C 31.2 228.8 30.2 227.3 30.2 227.3 C 31.6 225.8 33.3 225.2 35.1 225.2 C 38 225.2 39.9 226.6 39.9 229.9 C 39.93 229.88 39.9 240 39.9 240 L 37.8 240 Z M 37.8 237 C 37.8 237 37.8 234.2 37.8 234.2 C 37.1 233 35.9 232.4 34.6 232.4 C 32.8 232.4 31.8 233.8 31.8 235.6 C 31.8 237.4 32.8 238.8 34.6 238.8 C 35.9 238.8 37.1 238.2 37.8 237 Z M 49 238.5 C 51.3 238.5 52.4 235.9 52.4 232.8 C 52.4 229.6 51.3 227.1 49 227.1 C 47.6 227.1 46.3 228.2 45.7 229.5 C 45.7 229.5 45.7 236.1 45.7 236.1 C 46.3 237.4 47.6 238.5 49 238.5 Z M 43.6 240 L 43.6 220 L 45.7 220 C 45.7 220 45.69 227.63 45.7 227.6 C 46.6 226 48 225.2 49.5 225.2 C 52.8 225.2 54.7 228.3 54.7 232.8 C 54.7 237.4 52.8 240.4 49.5 240.4 C 48 240.4 46.5 239.4 45.7 238 C 45.69 237.95 45.7 240 45.7 240 L 43.6 240 Z M 56.9 232.8 C 56.9 228.7 59 225.2 62.8 225.2 C 66.7 225.2 68.7 228.7 68.7 232.8 C 68.7 236.8 66.7 240.4 62.8 240.4 C 59 240.4 56.9 236.8 56.9 232.8 Z M 66.5 232.8 C 66.5 229.9 65.4 227.1 62.8 227.1 C 60.3 227.1 59.2 229.9 59.2 232.8 C 59.2 235.7 60.3 238.5 62.8 238.5 C 65.4 238.5 66.5 235.7 66.5 232.8 Z M 79.5 240 C 79.5 240 79.5 238.01 79.5 238 C 78.6 239.3 77.1 240.4 75.3 240.4 C 72.8 240.4 71.7 239.2 71.7 236.5 C 71.67 236.51 71.7 225.5 71.7 225.5 L 73.8 225.5 C 73.8 225.5 73.8 235.88 73.8 235.9 C 73.8 237.8 74.7 238.5 76.1 238.5 C 77.5 238.5 78.9 237.4 79.5 236.2 C 79.5 236.21 79.5 225.5 79.5 225.5 L 81.7 225.5 L 81.7 240 L 79.5 240 Z M 85.7 237.1 C 85.74 237.11 85.7 227.4 85.7 227.4 L 83.8 227.4 L 83.8 225.5 L 85.7 225.5 L 85.7 221.6 L 87.9 221.6 L 87.9 225.5 L 90.4 225.5 L 90.4 227.4 L 87.9 227.4 C 87.9 227.4 87.9 236.72 87.9 236.7 C 87.9 237.8 88.2 238.5 89.1 238.5 C 89.6 238.5 90.1 238.2 90.3 237.9 C 90.3 237.9 91 239.5 91 239.5 C 90.5 240 89.8 240.4 88.6 240.4 C 86.7 240.4 85.7 239.3 85.7 237.1 Z M 102.1 240 L 102.1 223.2 L 99 226.5 L 97.5 225 L 102.3 220 L 104.4 220 L 104.4 240 L 102.1 240 Z M 107.8 237.1 C 107.8 237.1 109.4 235.7 109.4 235.7 C 110.3 237.3 111.7 238.3 113.6 238.3 C 115.8 238.3 117.2 236.2 117.2 233.9 C 117.2 231.1 115.8 229.5 113.8 229.5 C 112.3 229.5 111.2 230 110.1 231.4 C 110.12 231.35 108.4 230.8 108.4 230.8 L 108.4 220 L 118.6 220 L 118.6 222.1 L 110.7 222.1 C 110.7 222.1 110.72 229.13 110.7 229.1 C 111.5 228.2 112.8 227.4 114.4 227.4 C 117.3 227.4 119.6 229.7 119.6 233.8 C 119.6 237.6 117.1 240.4 113.7 240.4 C 110.7 240.4 109 239.1 107.8 237.1 Z M 143.4 240 C 143.4 240 143.42 229.52 143.4 229.5 C 143.4 228 142.8 227.1 141.4 227.1 C 140.1 227.1 138.8 228.2 138.3 229.4 C 138.26 229.4 138.3 240 138.3 240 L 136.1 240 C 136.1 240 136.1 229.52 136.1 229.5 C 136.1 228 135.5 227.1 134.1 227.1 C 132.8 227.1 131.5 228.2 130.9 229.4 C 130.91 229.4 130.9 240 130.9 240 L 128.8 240 L 128.8 225.5 L 130.9 225.5 C 130.9 225.5 130.91 227.6 130.9 227.6 C 131.5 226.5 133.1 225.2 134.9 225.2 C 136.7 225.2 137.9 226.2 138.1 227.8 C 138.9 226.4 140.5 225.2 142.2 225.2 C 144.4 225.2 145.6 226.3 145.6 229 C 145.58 228.95 145.6 240 145.6 240 L 143.4 240 Z M 148.8 222 C 148.8 221.2 149.5 220.5 150.3 220.5 C 151.1 220.5 151.8 221.2 151.8 222 C 151.8 222.8 151.1 223.4 150.3 223.4 C 149.5 223.4 148.8 222.8 148.8 222 Z M 149.2 240 L 149.2 225.5 L 151.4 225.5 L 151.4 240 L 149.2 240 Z M 162.9 240 C 162.9 240 162.86 229.7 162.9 229.7 C 162.9 227.8 162 227.1 160.6 227.1 C 159.1 227.1 157.8 228.2 157.2 229.4 C 157.16 229.4 157.2 240 157.2 240 L 155 240 L 155 225.5 L 157.2 225.5 C 157.2 225.5 157.16 227.6 157.2 227.6 C 158 226.3 159.6 225.2 161.4 225.2 C 163.8 225.2 165 226.5 165 229.1 C 165.02 229.1 165 240 165 240 L 162.9 240 Z M 176.5 240 C 176.5 240 176.51 238.01 176.5 238 C 175.6 239.3 174.1 240.4 172.3 240.4 C 169.9 240.4 168.7 239.2 168.7 236.5 C 168.68 236.51 168.7 225.5 168.7 225.5 L 170.8 225.5 C 170.8 225.5 170.81 235.88 170.8 235.9 C 170.8 237.8 171.7 238.5 173.1 238.5 C 174.6 238.5 175.9 237.4 176.5 236.2 C 176.51 236.21 176.5 225.5 176.5 225.5 L 178.7 225.5 L 178.7 240 L 176.5 240 Z M 182.8 237.1 C 182.75 237.11 182.8 227.4 182.8 227.4 L 180.8 227.4 L 180.8 225.5 L 182.8 225.5 L 182.8 221.6 L 184.9 221.6 L 184.9 225.5 L 187.4 225.5 L 187.4 227.4 L 184.9 227.4 C 184.9 227.4 184.91 236.72 184.9 236.7 C 184.9 237.8 185.2 238.5 186.1 238.5 C 186.6 238.5 187.1 238.2 187.3 237.9 C 187.3 237.9 188 239.5 188 239.5 C 187.5 240 186.8 240.4 185.7 240.4 C 183.7 240.4 182.8 239.3 182.8 237.1 Z M 189.2 232.8 C 189.2 228.6 191.4 225.2 195.1 225.2 C 198.9 225.2 200.8 228.6 200.8 232.8 C 200.81 232.82 200.8 233.5 200.8 233.5 C 200.8 233.5 191.42 233.48 191.4 233.5 C 191.5 236.4 193 238.6 195.6 238.6 C 196.9 238.6 198.1 238 199 236.8 C 199 236.8 200.2 238.1 200.2 238.1 C 199 239.5 197.4 240.4 195.4 240.4 C 191.5 240.4 189.2 237.2 189.2 232.8 Z M 195.1 227 C 192.5 227 191.5 229.8 191.4 231.9 C 191.4 231.9 198.7 231.9 198.7 231.9 C 198.7 229.7 197.7 227 195.1 227 Z M 202.5 238.3 C 202.5 238.3 203.6 236.8 203.6 236.8 C 204.4 237.8 205.8 238.6 207.4 238.6 C 209 238.6 210.1 237.7 210.1 236.3 C 210.1 232.9 202.9 234.1 202.9 229.1 C 202.9 226.9 204.7 225.2 207.5 225.2 C 209.5 225.2 210.9 225.9 211.9 227 C 211.9 227 210.9 228.5 210.9 228.5 C 210.2 227.5 209 226.9 207.6 226.9 C 206 226.9 205 227.8 205 229 C 205 232.1 212.2 231 212.2 236.2 C 212.2 238.6 210.4 240.4 207.4 240.4 C 205.3 240.4 203.7 239.7 202.5 238.3 Z M 214.8 238.7 C 214.8 237.9 215.5 237.1 216.4 237.1 C 217.3 237.1 218 237.9 218 238.7 C 218 239.6 217.3 240.3 216.4 240.3 C 215.5 240.3 214.8 239.6 214.8 238.7 Z " stroke="none" fill="#efd8d3"/>  </g>  <g id="Polygon198597">    <path d="M 0.9 201.1 C 0.9 201.1 2.4 199.6 2.4 199.6 C 3.4 201.1 4.8 202.3 6.7 202.3 C 9.1 202.3 10.3 200.8 10.3 198.4 C 10.3 195.7 8.6 194.8 6.5 194.8 C 5.9 194.8 5.2 194.8 4.9 194.8 C 4.9 194.8 4.9 192.7 4.9 192.7 C 5.2 192.7 6 192.7 6.5 192.7 C 8.5 192.7 10.1 191.6 10.1 189.4 C 10.1 187 8.7 185.8 6.7 185.8 C 4.9 185.8 3.6 186.8 2.6 188.2 C 2.6 188.2 1.1 186.9 1.1 186.9 C 2.3 184.9 4.3 183.7 6.8 183.7 C 10.1 183.7 12.5 185.5 12.5 189 C 12.5 191.5 10.7 193.3 8.9 193.7 C 10.7 193.9 12.8 195.7 12.8 198.6 C 12.8 202 10.6 204.4 6.8 204.4 C 4 204.4 1.9 202.9 0.9 201.1 Z M 15.7 202.7 C 15.7 201.9 16.4 201.1 17.3 201.1 C 18.2 201.1 18.9 201.9 18.9 202.7 C 18.9 203.6 18.2 204.3 17.3 204.3 C 16.4 204.3 15.7 203.6 15.7 202.7 Z M 29.2 201.9 C 29.2 201.9 30.5 200 30.5 200 C 31.6 201.3 33.2 202.3 35.2 202.3 C 37.7 202.3 38.8 200.7 38.8 199 C 38.8 194.1 29.8 195.4 29.8 188.9 C 29.8 185.9 32.2 183.7 35.5 183.7 C 37.8 183.7 39.6 184.4 40.9 185.8 C 40.9 185.8 39.6 187.6 39.6 187.6 C 38.5 186.4 37.1 185.8 35.5 185.8 C 33.7 185.8 32.2 187 32.2 188.8 C 32.2 193 41.3 192.1 41.3 198.8 C 41.3 201.8 39.3 204.4 35.2 204.4 C 32.6 204.4 30.6 203.4 29.2 201.9 Z M 43.4 196.8 C 43.4 192.7 45.4 189.2 49.3 189.2 C 53.2 189.2 55.2 192.7 55.2 196.8 C 55.2 200.8 53.2 204.4 49.3 204.4 C 45.4 204.4 43.4 200.8 43.4 196.8 Z M 52.9 196.8 C 52.9 193.9 51.8 191.1 49.3 191.1 C 46.8 191.1 45.7 193.9 45.7 196.8 C 45.7 199.7 46.8 202.5 49.3 202.5 C 51.8 202.5 52.9 199.7 52.9 196.8 Z M 65.6 204 C 65.6 204 65.58 202.46 65.6 202.5 C 64.6 203.8 63.2 204.4 61.8 204.4 C 59.4 204.4 57.4 202.6 57.4 199.6 C 57.4 196.5 59.4 194.8 61.8 194.8 C 63.2 194.8 64.7 195.4 65.6 196.6 C 65.6 196.6 65.6 194.1 65.6 194.1 C 65.6 192.1 64.5 191 62.6 191 C 61.3 191 60.1 191.5 59 192.8 C 59 192.8 58 191.3 58 191.3 C 59.4 189.8 61.1 189.2 62.9 189.2 C 65.8 189.2 67.7 190.6 67.7 193.9 C 67.74 193.88 67.7 204 67.7 204 L 65.6 204 Z M 65.6 201 C 65.6 201 65.6 198.2 65.6 198.2 C 64.9 197 63.7 196.4 62.5 196.4 C 60.7 196.4 59.6 197.8 59.6 199.6 C 59.6 201.4 60.7 202.8 62.5 202.8 C 63.7 202.8 64.9 202.2 65.6 201 Z M 79.5 204 L 75.5 197.5 L 73.5 200.1 L 73.5 204 L 71.4 204 L 71.4 184 L 73.5 184 L 73.5 197.4 L 79.5 189.5 L 82.1 189.5 L 77 196 L 82.1 204 L 79.5 204 Z M 89.9 186 C 89.9 185.2 90.6 184.5 91.4 184.5 C 92.2 184.5 92.9 185.2 92.9 186 C 92.9 186.8 92.2 187.4 91.4 187.4 C 90.6 187.4 89.9 186.8 89.9 186 Z M 90.4 204 L 90.4 189.5 L 92.5 189.5 L 92.5 204 L 90.4 204 Z M 104 204 C 104 204 103.97 193.7 104 193.7 C 104 191.8 103.1 191.1 101.7 191.1 C 100.3 191.1 98.9 192.2 98.3 193.4 C 98.27 193.4 98.3 204 98.3 204 L 96.1 204 L 96.1 189.5 L 98.3 189.5 C 98.3 189.5 98.27 191.6 98.3 191.6 C 99.1 190.3 100.7 189.2 102.5 189.2 C 104.9 189.2 106.1 190.5 106.1 193.1 C 106.13 193.1 106.1 204 106.1 204 L 104 204 Z M 123.4 204 C 123.4 204 123.38 202.46 123.4 202.5 C 122.5 203.8 121 204.4 119.6 204.4 C 117.2 204.4 115.2 202.6 115.2 199.6 C 115.2 196.5 117.2 194.8 119.6 194.8 C 121 194.8 122.5 195.4 123.4 196.6 C 123.4 196.6 123.4 194.1 123.4 194.1 C 123.4 192.1 122.3 191 120.4 191 C 119.1 191 117.9 191.5 116.8 192.8 C 116.8 192.8 115.8 191.3 115.8 191.3 C 117.2 189.8 118.9 189.2 120.7 189.2 C 123.6 189.2 125.5 190.6 125.5 193.9 C 125.54 193.88 125.5 204 125.5 204 L 123.4 204 Z M 123.4 201 C 123.4 201 123.4 198.2 123.4 198.2 C 122.7 197 121.5 196.4 120.3 196.4 C 118.5 196.4 117.4 197.8 117.4 199.6 C 117.4 201.4 118.5 202.8 120.3 202.8 C 121.5 202.8 122.7 202.2 123.4 201 Z M 129.2 204 L 129.2 184 L 131.3 184 L 131.3 204 L 129.2 204 Z M 134.2 196.8 C 134.2 192.5 136.5 189.2 140.2 189.2 C 142.3 189.2 143.5 190 144.4 191.1 C 144.4 191.1 143.2 192.6 143.2 192.6 C 142.4 191.5 141.5 191.1 140.4 191.1 C 137.8 191.1 136.5 193.7 136.5 196.8 C 136.5 199.9 137.8 202.5 140.4 202.5 C 141.5 202.5 142.4 202 143.2 201 C 143.2 201 144.4 202.5 144.4 202.5 C 143.5 203.6 142.3 204.4 140.2 204.4 C 136.5 204.4 134.2 201.1 134.2 196.8 Z M 154.3 204 C 154.3 204 154.28 202.46 154.3 202.5 C 153.4 203.8 151.9 204.4 150.5 204.4 C 148.1 204.4 146.1 202.6 146.1 199.6 C 146.1 196.5 148.1 194.8 150.5 194.8 C 151.9 194.8 153.4 195.4 154.3 196.6 C 154.3 196.6 154.3 194.1 154.3 194.1 C 154.3 192.1 153.2 191 151.3 191 C 150 191 148.8 191.5 147.7 192.8 C 147.7 192.8 146.7 191.3 146.7 191.3 C 148.1 189.8 149.8 189.2 151.6 189.2 C 154.5 189.2 156.4 190.6 156.4 193.9 C 156.44 193.88 156.4 204 156.4 204 L 154.3 204 Z M 154.3 201 C 154.3 201 154.3 198.2 154.3 198.2 C 153.6 197 152.4 196.4 151.2 196.4 C 149.4 196.4 148.3 197.8 148.3 199.6 C 148.3 201.4 149.4 202.8 151.2 202.8 C 152.4 202.8 153.6 202.2 154.3 201 Z M 167.9 204 C 167.9 204 167.9 193.7 167.9 193.7 C 167.9 191.8 167 191.1 165.6 191.1 C 164.2 191.1 162.9 192.2 162.2 193.4 C 162.2 193.4 162.2 204 162.2 204 L 160.1 204 L 160.1 189.5 L 162.2 189.5 C 162.2 189.5 162.2 191.6 162.2 191.6 C 163 190.3 164.7 189.2 166.4 189.2 C 168.9 189.2 170.1 190.5 170.1 193.1 C 170.06 193.1 170.1 204 170.1 204 L 167.9 204 Z M 173.3 186 C 173.3 185.2 174 184.5 174.8 184.5 C 175.6 184.5 176.2 185.2 176.2 186 C 176.2 186.8 175.6 187.4 174.8 187.4 C 174 187.4 173.3 186.8 173.3 186 Z M 173.7 204 L 173.7 189.5 L 175.9 189.5 L 175.9 204 L 173.7 204 Z M 182.5 204 L 177.7 189.5 L 180.1 189.5 L 183.7 201.5 L 187.3 189.5 L 189.6 189.5 L 184.8 204 L 182.5 204 Z M 190.7 196.8 C 190.7 192.7 192.8 189.2 196.6 189.2 C 200.5 189.2 202.5 192.7 202.5 196.8 C 202.5 200.8 200.5 204.4 196.6 204.4 C 192.8 204.4 190.7 200.8 190.7 196.8 Z M 200.3 196.8 C 200.3 193.9 199.2 191.1 196.6 191.1 C 194.1 191.1 193 193.9 193 196.8 C 193 199.7 194.1 202.5 196.6 202.5 C 199.2 202.5 200.3 199.7 200.3 196.8 Z M 205.5 204 L 205.5 189.5 L 207.6 189.5 C 207.6 189.5 207.59 191.84 207.6 191.8 C 208.5 190.3 209.9 189.2 211.7 189.2 C 211.7 189.2 211.7 191.5 211.7 191.5 C 211.5 191.4 211.2 191.4 211 191.4 C 209.7 191.4 208.2 192.5 207.6 193.7 C 207.59 193.73 207.6 204 207.6 204 L 205.5 204 Z M 221.3 204 C 221.3 204 221.33 202.46 221.3 202.5 C 220.4 203.8 219 204.4 217.5 204.4 C 215.2 204.4 213.1 202.6 213.1 199.6 C 213.1 196.5 215.2 194.8 217.5 194.8 C 219 194.8 220.4 195.4 221.3 196.6 C 221.3 196.6 221.3 194.1 221.3 194.1 C 221.3 192.1 220.3 191 218.4 191 C 217 191 215.8 191.5 214.7 192.8 C 214.7 192.8 213.8 191.3 213.8 191.3 C 215.2 189.8 216.9 189.2 218.7 189.2 C 221.6 189.2 223.5 190.6 223.5 193.9 C 223.49 193.88 223.5 204 223.5 204 L 221.3 204 Z M 221.3 201 C 221.3 201 221.3 198.2 221.3 198.2 C 220.7 197 219.5 196.4 218.2 196.4 C 216.4 196.4 215.3 197.8 215.3 199.6 C 215.3 201.4 216.4 202.8 218.2 202.8 C 219.5 202.8 220.7 202.2 221.3 201 Z M 226 202.3 C 226 202.3 227 200.8 227 200.8 C 227.9 201.8 229.3 202.6 230.8 202.6 C 232.5 202.6 233.6 201.7 233.6 200.3 C 233.6 196.9 226.4 198.1 226.4 193.1 C 226.4 190.9 228.1 189.2 231 189.2 C 232.9 189.2 234.4 189.9 235.4 191 C 235.4 191 234.4 192.5 234.4 192.5 C 233.7 191.5 232.4 190.9 231 190.9 C 229.4 190.9 228.4 191.8 228.4 193 C 228.4 196.1 235.7 195 235.7 200.2 C 235.7 202.6 233.8 204.4 230.8 204.4 C 228.8 204.4 227.2 203.7 226 202.3 Z M 237.7 196.8 C 237.7 192.6 239.9 189.2 243.6 189.2 C 247.4 189.2 249.3 192.6 249.3 196.8 C 249.32 196.82 249.3 197.5 249.3 197.5 C 249.3 197.5 239.93 197.48 239.9 197.5 C 240 200.4 241.5 202.6 244.1 202.6 C 245.4 202.6 246.7 202 247.6 200.8 C 247.6 200.8 248.7 202.1 248.7 202.1 C 247.5 203.5 245.9 204.4 243.9 204.4 C 240.1 204.4 237.7 201.2 237.7 196.8 Z M 243.6 191 C 241 191 240 193.8 239.9 195.9 C 239.9 195.9 247.2 195.9 247.2 195.9 C 247.2 193.7 246.2 191 243.6 191 Z M 273 204 C 273 204 272.96 193.52 273 193.5 C 273 192 272.3 191.1 271 191.1 C 269.7 191.1 268.4 192.2 267.8 193.4 C 267.8 193.4 267.8 204 267.8 204 L 265.6 204 C 265.6 204 265.64 193.52 265.6 193.5 C 265.6 192 265 191.1 263.6 191.1 C 262.3 191.1 261.1 192.2 260.5 193.4 C 260.45 193.4 260.5 204 260.5 204 L 258.3 204 L 258.3 189.5 L 260.5 189.5 C 260.5 189.5 260.45 191.6 260.5 191.6 C 261.1 190.5 262.7 189.2 264.4 189.2 C 266.3 189.2 267.4 190.2 267.7 191.8 C 268.4 190.4 270 189.2 271.8 189.2 C 273.9 189.2 275.1 190.3 275.1 193 C 275.12 192.95 275.1 204 275.1 204 L 273 204 Z M 278.4 186 C 278.4 185.2 279 184.5 279.8 184.5 C 280.6 184.5 281.3 185.2 281.3 186 C 281.3 186.8 280.6 187.4 279.8 187.4 C 279 187.4 278.4 186.8 278.4 186 Z M 278.8 204 L 278.8 189.5 L 280.9 189.5 L 280.9 204 L 278.8 204 Z M 292 204 L 288.7 198.2 L 285.3 204 L 282.9 204 L 287.4 196.6 L 283.2 189.5 L 285.6 189.5 L 288.7 195.1 L 291.8 189.5 L 294.2 189.5 L 290 196.6 L 294.4 204 L 292 204 Z M 295 196.8 C 295 192.6 297.2 189.2 300.9 189.2 C 304.7 189.2 306.6 192.6 306.6 196.8 C 306.59 196.82 306.6 197.5 306.6 197.5 C 306.6 197.5 297.2 197.48 297.2 197.5 C 297.3 200.4 298.8 202.6 301.4 202.6 C 302.6 202.6 303.9 202 304.8 200.8 C 304.8 200.8 306 202.1 306 202.1 C 304.8 203.5 303.1 204.4 301.2 204.4 C 297.3 204.4 295 201.2 295 196.8 Z M 300.8 191 C 298.3 191 297.3 193.8 297.2 195.9 C 297.2 195.9 304.5 195.9 304.5 195.9 C 304.4 193.7 303.5 191 300.8 191 Z M 317.7 204 C 317.7 204 317.72 201.95 317.7 202 C 316.9 203.4 315.4 204.4 313.9 204.4 C 310.7 204.4 308.7 201.4 308.7 196.8 C 308.7 192.3 310.6 189.2 313.9 189.2 C 315.4 189.2 316.8 190 317.7 191.6 C 317.72 191.63 317.7 184 317.7 184 L 319.9 184 L 319.9 204 L 317.7 204 Z M 317.7 200.1 C 317.7 200.1 317.7 193.5 317.7 193.5 C 317.2 192.2 315.8 191.1 314.4 191.1 C 312.1 191.1 311 193.6 311 196.8 C 311 199.9 312.1 202.5 314.4 202.5 C 315.8 202.5 317.2 201.4 317.7 200.1 Z M 340.4 204 L 337.3 192.4 L 334.2 204 L 332 204 L 328.1 189.5 L 330.3 189.5 L 333.2 201.1 L 336.2 189.5 L 338.3 189.5 L 341.4 201.1 L 344.2 189.5 L 346.5 189.5 L 342.6 204 L 340.4 204 Z M 348.1 186 C 348.1 185.2 348.8 184.5 349.6 184.5 C 350.4 184.5 351 185.2 351 186 C 351 186.8 350.4 187.4 349.6 187.4 C 348.8 187.4 348.1 186.8 348.1 186 Z M 348.5 204 L 348.5 189.5 L 350.7 189.5 L 350.7 204 L 348.5 204 Z M 354.7 201.1 C 354.74 201.11 354.7 191.4 354.7 191.4 L 352.8 191.4 L 352.8 189.5 L 354.7 189.5 L 354.7 185.6 L 356.9 185.6 L 356.9 189.5 L 359.4 189.5 L 359.4 191.4 L 356.9 191.4 C 356.9 191.4 356.9 200.72 356.9 200.7 C 356.9 201.8 357.2 202.5 358.1 202.5 C 358.6 202.5 359.1 202.2 359.3 201.9 C 359.3 201.9 360 203.5 360 203.5 C 359.5 204 358.8 204.4 357.6 204.4 C 355.7 204.4 354.7 203.3 354.7 201.1 Z M 369.8 204 C 369.8 204 369.77 193.67 369.8 193.7 C 369.8 191.8 368.9 191.1 367.4 191.1 C 366 191.1 364.7 192.2 364 193.4 C 364.04 193.4 364 204 364 204 L 361.9 204 L 361.9 184 L 364 184 C 364 184 364.04 191.6 364 191.6 C 364.9 190.3 366.5 189.2 368.3 189.2 C 370.7 189.2 371.9 190.4 371.9 193 C 371.9 193.04 371.9 204 371.9 204 L 369.8 204 Z M 380.5 202.3 C 380.5 202.3 381.6 200.8 381.6 200.8 C 382.5 201.8 383.8 202.6 385.4 202.6 C 387.1 202.6 388.2 201.7 388.2 200.3 C 388.2 196.9 381 198.1 381 193.1 C 381 190.9 382.7 189.2 385.6 189.2 C 387.5 189.2 389 189.9 390 191 C 390 191 389 192.5 389 192.5 C 388.2 191.5 387 190.9 385.6 190.9 C 384 190.9 383 191.8 383 193 C 383 196.1 390.3 195 390.3 200.2 C 390.3 202.6 388.4 204.4 385.4 204.4 C 383.4 204.4 381.7 203.7 380.5 202.3 Z M 392.3 196.8 C 392.3 192.7 394.3 189.2 398.2 189.2 C 402.1 189.2 404.1 192.7 404.1 196.8 C 404.1 200.8 402.1 204.4 398.2 204.4 C 394.3 204.4 392.3 200.8 392.3 196.8 Z M 401.8 196.8 C 401.8 193.9 400.7 191.1 398.2 191.1 C 395.7 191.1 394.5 193.9 394.5 196.8 C 394.5 199.7 395.7 202.5 398.2 202.5 C 400.7 202.5 401.8 199.7 401.8 196.8 Z M 415.3 204 C 415.3 204 415.31 201.95 415.3 202 C 414.5 203.4 413 204.4 411.5 204.4 C 408.3 204.4 406.3 201.4 406.3 196.8 C 406.3 192.3 408.2 189.2 411.5 189.2 C 413 189.2 414.4 190 415.3 191.6 C 415.31 191.63 415.3 184 415.3 184 L 417.5 184 L 417.5 204 L 415.3 204 Z M 415.3 200.1 C 415.3 200.1 415.3 193.5 415.3 193.5 C 414.8 192.2 413.4 191.1 412 191.1 C 409.7 191.1 408.6 193.6 408.6 196.8 C 408.6 199.9 409.7 202.5 412 202.5 C 413.4 202.5 414.8 201.4 415.3 200.1 Z M 420.7 186 C 420.7 185.2 421.4 184.5 422.2 184.5 C 423 184.5 423.6 185.2 423.6 186 C 423.6 186.8 423 187.4 422.2 187.4 C 421.4 187.4 420.7 186.8 420.7 186 Z M 421.1 204 L 421.1 189.5 L 423.3 189.5 L 423.3 204 L 421.1 204 Z M 434.7 204 C 434.7 204 434.75 202.01 434.7 202 C 433.9 203.3 432.3 204.4 430.5 204.4 C 428.1 204.4 426.9 203.2 426.9 200.5 C 426.92 200.51 426.9 189.5 426.9 189.5 L 429 189.5 C 429 189.5 429.05 199.88 429 199.9 C 429 201.8 429.9 202.5 431.4 202.5 C 432.8 202.5 434.1 201.4 434.7 200.2 C 434.75 200.21 434.7 189.5 434.7 189.5 L 436.9 189.5 L 436.9 204 L 434.7 204 Z M 455.2 204 C 455.2 204 455.21 193.52 455.2 193.5 C 455.2 192 454.6 191.1 453.2 191.1 C 451.9 191.1 450.6 192.2 450 193.4 C 450.05 193.4 450 204 450 204 L 447.9 204 C 447.9 204 447.89 193.52 447.9 193.5 C 447.9 192 447.3 191.1 445.8 191.1 C 444.6 191.1 443.3 192.2 442.7 193.4 C 442.7 193.4 442.7 204 442.7 204 L 440.6 204 L 440.6 189.5 L 442.7 189.5 C 442.7 189.5 442.7 191.6 442.7 191.6 C 443.3 190.5 444.9 189.2 446.7 189.2 C 448.5 189.2 449.7 190.2 449.9 191.8 C 450.6 190.4 452.3 189.2 454 189.2 C 456.1 189.2 457.4 190.3 457.4 193 C 457.37 192.95 457.4 204 457.4 204 L 455.2 204 Z M 467.7 204 L 467.7 191.4 L 465.8 191.4 L 465.8 189.5 L 467.7 189.5 C 467.7 189.5 467.69 187.76 467.7 187.8 C 467.7 185.2 469.1 183.7 471.2 183.7 C 472 183.7 472.6 183.9 473.1 184.2 C 473.1 184.2 472.5 185.8 472.5 185.8 C 472.3 185.7 472 185.5 471.6 185.5 C 470.5 185.5 469.8 186.4 469.8 187.8 C 469.85 187.76 469.8 189.5 469.8 189.5 L 472.3 189.5 L 472.3 191.4 L 469.8 191.4 L 469.8 204 L 467.7 204 Z M 474.8 204 L 474.8 184 L 476.9 184 L 476.9 204 L 474.8 204 Z M 488 204 C 488 204 488.03 202.46 488 202.5 C 487.1 203.8 485.7 204.4 484.2 204.4 C 481.9 204.4 479.8 202.6 479.8 199.6 C 479.8 196.5 481.8 194.8 484.2 194.8 C 485.7 194.8 487.1 195.4 488 196.6 C 488 196.6 488 194.1 488 194.1 C 488 192.1 486.9 191 485.1 191 C 483.7 191 482.5 191.5 481.4 192.8 C 481.4 192.8 480.5 191.3 480.5 191.3 C 481.8 189.8 483.6 189.2 485.4 189.2 C 488.3 189.2 490.2 190.6 490.2 193.9 C 490.19 193.88 490.2 204 490.2 204 L 488 204 Z M 488 201 C 488 201 488 198.2 488 198.2 C 487.4 197 486.2 196.4 484.9 196.4 C 483.1 196.4 482 197.8 482 199.6 C 482 201.4 483.1 202.8 484.9 202.8 C 486.2 202.8 487.4 202.2 488 201 Z M 496.8 204 L 492 189.5 L 494.4 189.5 L 498 201.5 L 501.6 189.5 L 503.9 189.5 L 499.1 204 L 496.8 204 Z M 505 196.8 C 505 192.7 507.1 189.2 510.9 189.2 C 514.8 189.2 516.8 192.7 516.8 196.8 C 516.8 200.8 514.8 204.4 510.9 204.4 C 507.1 204.4 505 200.8 505 196.8 Z M 514.6 196.8 C 514.6 193.9 513.5 191.1 510.9 191.1 C 508.4 191.1 507.3 193.9 507.3 196.8 C 507.3 199.7 508.4 202.5 510.9 202.5 C 513.5 202.5 514.6 199.7 514.6 196.8 Z M 527.6 204 C 527.6 204 527.59 193.7 527.6 193.7 C 527.6 191.8 526.7 191.1 525.3 191.1 C 523.9 191.1 522.6 192.2 521.9 193.4 C 521.89 193.4 521.9 204 521.9 204 L 519.8 204 L 519.8 189.5 L 521.9 189.5 C 521.9 189.5 521.89 191.6 521.9 191.6 C 522.7 190.3 524.4 189.2 526.1 189.2 C 528.6 189.2 529.8 190.5 529.8 193.1 C 529.75 193.1 529.8 204 529.8 204 L 527.6 204 Z M 532.7 196.8 C 532.7 192.7 534.7 189.2 538.6 189.2 C 542.5 189.2 544.5 192.7 544.5 196.8 C 544.5 200.8 542.5 204.4 538.6 204.4 C 534.7 204.4 532.7 200.8 532.7 196.8 Z M 542.2 196.8 C 542.2 193.9 541.1 191.1 538.6 191.1 C 536.1 191.1 534.9 193.9 534.9 196.8 C 534.9 199.7 536.1 202.5 538.6 202.5 C 541.1 202.5 542.2 199.7 542.2 196.8 Z M 554.9 204 C 554.9 204 554.86 202.46 554.9 202.5 C 553.9 203.8 552.5 204.4 551.1 204.4 C 548.7 204.4 546.7 202.6 546.7 199.6 C 546.7 196.5 548.7 194.8 551.1 194.8 C 552.5 194.8 554 195.4 554.9 196.6 C 554.9 196.6 554.9 194.1 554.9 194.1 C 554.9 192.1 553.8 191 551.9 191 C 550.5 191 549.4 191.5 548.3 192.8 C 548.3 192.8 547.3 191.3 547.3 191.3 C 548.7 189.8 550.4 189.2 552.2 189.2 C 555.1 189.2 557 190.6 557 193.9 C 557.02 193.88 557 204 557 204 L 554.9 204 Z M 554.9 201 C 554.9 201 554.9 198.2 554.9 198.2 C 554.2 197 553 196.4 551.7 196.4 C 549.9 196.4 548.9 197.8 548.9 199.6 C 548.9 201.4 549.9 202.8 551.7 202.8 C 553 202.8 554.2 202.2 554.9 201 Z M 561.1 201.1 C 561.07 201.11 561.1 191.4 561.1 191.4 L 559.2 191.4 L 559.2 189.5 L 561.1 189.5 L 561.1 185.6 L 563.2 185.6 L 563.2 189.5 L 565.7 189.5 L 565.7 191.4 L 563.2 191.4 C 563.2 191.4 563.23 200.72 563.2 200.7 C 563.2 201.8 563.6 202.5 564.4 202.5 C 564.9 202.5 565.4 202.2 565.7 201.9 C 565.7 201.9 566.3 203.5 566.3 203.5 C 565.8 204 565.1 204.4 564 204.4 C 562 204.4 561.1 203.3 561.1 201.1 Z M 567.5 196.8 C 567.5 192.6 569.7 189.2 573.4 189.2 C 577.2 189.2 579.1 192.6 579.1 196.8 C 579.13 196.82 579.1 197.5 579.1 197.5 C 579.1 197.5 569.74 197.48 569.7 197.5 C 569.8 200.4 571.3 202.6 573.9 202.6 C 575.2 202.6 576.5 202 577.4 200.8 C 577.4 200.8 578.5 202.1 578.5 202.1 C 577.3 203.5 575.7 204.4 573.7 204.4 C 569.9 204.4 567.5 201.2 567.5 196.8 Z M 573.4 191 C 570.8 191 569.8 193.8 569.7 195.9 C 569.7 195.9 577 195.9 577 195.9 C 577 193.7 576 191 573.4 191 Z M 588.6 204 L 588.6 191.4 L 586.7 191.4 L 586.7 189.5 L 588.6 189.5 C 588.6 189.5 588.64 187.76 588.6 187.8 C 588.6 185.2 590 183.7 592.3 183.7 C 593.2 183.7 594.1 184 594.9 184.7 C 594.9 184.7 594 186.2 594 186.2 C 593.6 185.8 593.2 185.5 592.6 185.5 C 591.4 185.5 590.8 186.4 590.8 187.8 C 590.8 187.76 590.8 189.5 590.8 189.5 L 593.3 189.5 L 593.3 191.4 L 590.8 191.4 L 590.8 204 L 588.6 204 Z M 594.7 196.8 C 594.7 192.7 596.8 189.2 600.6 189.2 C 604.5 189.2 606.5 192.7 606.5 196.8 C 606.5 200.8 604.5 204.4 600.6 204.4 C 596.8 204.4 594.7 200.8 594.7 196.8 Z M 604.3 196.8 C 604.3 193.9 603.2 191.1 600.6 191.1 C 598.1 191.1 597 193.9 597 196.8 C 597 199.7 598.1 202.5 600.6 202.5 C 603.2 202.5 604.3 199.7 604.3 196.8 Z M 609.5 204 L 609.5 189.5 L 611.6 189.5 C 611.6 189.5 611.59 191.84 611.6 191.8 C 612.5 190.3 613.9 189.2 615.7 189.2 C 615.7 189.2 615.7 191.5 615.7 191.5 C 615.5 191.4 615.2 191.4 615 191.4 C 613.7 191.4 612.2 192.5 611.6 193.7 C 611.59 193.73 611.6 204 611.6 204 L 609.5 204 Z " stroke="none" fill="#efd8d3"/>  </g>  <g id="Polygon198596">    <path d="M 30.7 129.1 C 30.75 129.11 30.7 119.4 30.7 119.4 L 28.8 119.4 L 28.8 117.5 L 30.7 117.5 L 30.7 113.6 L 32.9 113.6 L 32.9 117.5 L 35.4 117.5 L 35.4 119.4 L 32.9 119.4 C 32.9 119.4 32.91 128.72 32.9 128.7 C 32.9 129.8 33.2 130.5 34.1 130.5 C 34.6 130.5 35.1 130.2 35.3 129.9 C 35.3 129.9 36 131.5 36 131.5 C 35.5 132 34.8 132.4 33.7 132.4 C 31.7 132.4 30.7 131.3 30.7 129.1 Z M 45.8 132 C 45.8 132 45.78 121.67 45.8 121.7 C 45.8 119.8 44.9 119.1 43.4 119.1 C 42 119.1 40.7 120.2 40 121.4 C 40.05 121.4 40 132 40 132 L 37.9 132 L 37.9 112 L 40 112 C 40 112 40.05 119.6 40 119.6 C 40.9 118.3 42.5 117.2 44.3 117.2 C 46.7 117.2 47.9 118.4 47.9 121 C 47.91 121.04 47.9 132 47.9 132 L 45.8 132 Z M 50.8 124.8 C 50.8 120.6 53.1 117.2 56.7 117.2 C 60.5 117.2 62.5 120.6 62.5 124.8 C 62.46 124.82 62.5 125.5 62.5 125.5 C 62.5 125.5 53.07 125.48 53.1 125.5 C 53.2 128.4 54.7 130.6 57.2 130.6 C 58.5 130.6 59.8 130 60.7 128.8 C 60.7 128.8 61.8 130.1 61.8 130.1 C 60.7 131.5 59 132.4 57.1 132.4 C 53.2 132.4 50.8 129.2 50.8 124.8 Z M 56.7 119 C 54.1 119 53.1 121.8 53.1 123.9 C 53.1 123.9 60.3 123.9 60.3 123.9 C 60.3 121.7 59.3 119 56.7 119 Z M 71.9 129.1 C 71.88 129.11 71.9 119.4 71.9 119.4 L 70 119.4 L 70 117.5 L 71.9 117.5 L 71.9 113.6 L 74 113.6 L 74 117.5 L 76.5 117.5 L 76.5 119.4 L 74 119.4 C 74 119.4 74.04 128.72 74 128.7 C 74 129.8 74.4 130.5 75.2 130.5 C 75.7 130.5 76.2 130.2 76.5 129.9 C 76.5 129.9 77.1 131.5 77.1 131.5 C 76.6 132 75.9 132.4 74.8 132.4 C 72.8 132.4 71.9 131.3 71.9 129.1 Z M 78.6 114 C 78.6 113.2 79.3 112.5 80.1 112.5 C 80.9 112.5 81.6 113.2 81.6 114 C 81.6 114.8 80.9 115.4 80.1 115.4 C 79.3 115.4 78.6 114.8 78.6 114 Z M 79 132 L 79 117.5 L 81.2 117.5 L 81.2 132 L 79 132 Z M 87 129.9 C 86.96 129.92 87 137.5 87 137.5 L 84.8 137.5 L 84.8 117.5 L 87 117.5 C 87 117.5 86.96 119.6 87 119.6 C 87.8 118.1 89.2 117.2 90.8 117.2 C 94 117.2 96 120.2 96 124.8 C 96 129.3 94 132.4 90.8 132.4 C 89.3 132.4 87.9 131.5 87 129.9 Z M 93.7 124.8 C 93.7 121.6 92.6 119.1 90.2 119.1 C 88.9 119.1 87.5 120.2 87 121.4 C 87 121.4 87 128.1 87 128.1 C 87.5 129.3 88.9 130.5 90.2 130.5 C 92.6 130.5 93.7 127.9 93.7 124.8 Z M 97.7 130.3 C 97.7 130.3 98.8 128.8 98.8 128.8 C 99.6 129.8 101 130.6 102.6 130.6 C 104.2 130.6 105.4 129.7 105.4 128.3 C 105.4 124.9 98.1 126.1 98.1 121.1 C 98.1 118.9 99.9 117.2 102.7 117.2 C 104.7 117.2 106.1 117.9 107.2 119 C 107.2 119 106.1 120.5 106.1 120.5 C 105.4 119.5 104.2 118.9 102.8 118.9 C 101.2 118.9 100.2 119.8 100.2 121 C 100.2 124.1 107.4 123 107.4 128.2 C 107.4 130.6 105.6 132.4 102.6 132.4 C 100.6 132.4 98.9 131.7 97.7 130.3 Z M 115.6 124.8 C 115.6 120.7 117.7 117.2 121.5 117.2 C 125.4 117.2 127.4 120.7 127.4 124.8 C 127.4 128.8 125.4 132.4 121.5 132.4 C 117.7 132.4 115.6 128.8 115.6 124.8 Z M 125.2 124.8 C 125.2 121.9 124 119.1 121.5 119.1 C 119 119.1 117.9 121.9 117.9 124.8 C 117.9 127.7 119 130.5 121.5 130.5 C 124 130.5 125.2 127.7 125.2 124.8 Z M 130.9 132 L 130.9 119.4 L 128.9 119.4 L 128.9 117.5 L 130.9 117.5 C 130.9 117.5 130.85 115.76 130.9 115.8 C 130.9 113.2 132.2 111.7 134.5 111.7 C 135.4 111.7 136.3 112 137.1 112.7 C 137.1 112.7 136.2 114.2 136.2 114.2 C 135.8 113.8 135.4 113.5 134.8 113.5 C 133.6 113.5 133 114.4 133 115.8 C 133.01 115.76 133 117.5 133 117.5 L 135.5 117.5 L 135.5 119.4 L 133 119.4 L 133 132 L 130.9 132 Z M 144.2 129.1 C 144.23 129.11 144.2 119.4 144.2 119.4 L 142.3 119.4 L 142.3 117.5 L 144.2 117.5 L 144.2 113.6 L 146.4 113.6 L 146.4 117.5 L 148.9 117.5 L 148.9 119.4 L 146.4 119.4 C 146.4 119.4 146.39 128.72 146.4 128.7 C 146.4 129.8 146.7 130.5 147.6 130.5 C 148.1 130.5 148.6 130.2 148.8 129.9 C 148.8 129.9 149.5 131.5 149.5 131.5 C 149 132 148.3 132.4 147.1 132.4 C 145.2 132.4 144.2 131.3 144.2 129.1 Z M 159.3 132 C 159.3 132 159.26 121.67 159.3 121.7 C 159.3 119.8 158.4 119.1 156.9 119.1 C 155.5 119.1 154.2 120.2 153.5 121.4 C 153.53 121.4 153.5 132 153.5 132 L 151.4 132 L 151.4 112 L 153.5 112 C 153.5 112 153.53 119.6 153.5 119.6 C 154.4 118.3 156 117.2 157.8 117.2 C 160.2 117.2 161.4 118.4 161.4 121 C 161.39 121.04 161.4 132 161.4 132 L 159.3 132 Z M 164.3 124.8 C 164.3 120.6 166.6 117.2 170.2 117.2 C 174 117.2 175.9 120.6 175.9 124.8 C 175.94 124.82 175.9 125.5 175.9 125.5 C 175.9 125.5 166.55 125.48 166.6 125.5 C 166.6 128.4 168.1 130.6 170.7 130.6 C 172 130.6 173.3 130 174.2 128.8 C 174.2 128.8 175.3 130.1 175.3 130.1 C 174.1 131.5 172.5 132.4 170.5 132.4 C 166.7 132.4 164.3 129.2 164.3 124.8 Z M 170.2 119 C 167.6 119 166.6 121.8 166.6 123.9 C 166.6 123.9 173.8 123.9 173.8 123.9 C 173.8 121.7 172.8 119 170.2 119 Z M 185.4 129.1 C 185.36 129.11 185.4 119.4 185.4 119.4 L 183.4 119.4 L 183.4 117.5 L 185.4 117.5 L 185.4 113.6 L 187.5 113.6 L 187.5 117.5 L 190 117.5 L 190 119.4 L 187.5 119.4 C 187.5 119.4 187.52 128.72 187.5 128.7 C 187.5 129.8 187.9 130.5 188.7 130.5 C 189.2 130.5 189.7 130.2 190 129.9 C 190 129.9 190.6 131.5 190.6 131.5 C 190.1 132 189.4 132.4 188.3 132.4 C 186.3 132.4 185.4 131.3 185.4 129.1 Z M 200.4 132 C 200.4 132 200.39 121.67 200.4 121.7 C 200.4 119.8 199.5 119.1 198.1 119.1 C 196.6 119.1 195.3 120.2 194.7 121.4 C 194.66 121.4 194.7 132 194.7 132 L 192.5 132 L 192.5 112 L 194.7 112 C 194.7 112 194.66 119.6 194.7 119.6 C 195.5 118.3 197.2 117.2 198.9 117.2 C 201.4 117.2 202.5 118.4 202.5 121 C 202.52 121.04 202.5 132 202.5 132 L 200.4 132 Z M 206.2 132 L 206.2 117.5 L 208.3 117.5 C 208.3 117.5 208.31 119.84 208.3 119.8 C 209.2 118.3 210.7 117.2 212.4 117.2 C 212.4 117.2 212.4 119.5 212.4 119.5 C 212.2 119.4 211.9 119.4 211.7 119.4 C 210.4 119.4 208.9 120.5 208.3 121.7 C 208.31 121.73 208.3 132 208.3 132 L 206.2 132 Z M 213.9 124.8 C 213.9 120.6 216.1 117.2 219.8 117.2 C 223.6 117.2 225.5 120.6 225.5 124.8 C 225.5 124.82 225.5 125.5 225.5 125.5 C 225.5 125.5 216.11 125.48 216.1 125.5 C 216.2 128.4 217.7 130.6 220.3 130.6 C 221.5 130.6 222.8 130 223.7 128.8 C 223.7 128.8 224.9 130.1 224.9 130.1 C 223.7 131.5 222.1 132.4 220.1 132.4 C 216.2 132.4 213.9 129.2 213.9 124.8 Z M 219.7 119 C 217.2 119 216.2 121.8 216.1 123.9 C 216.1 123.9 223.4 123.9 223.4 123.9 C 223.3 121.7 222.4 119 219.7 119 Z M 227.6 124.8 C 227.6 120.6 229.9 117.2 233.5 117.2 C 237.3 117.2 239.2 120.6 239.2 124.8 C 239.24 124.82 239.2 125.5 239.2 125.5 C 239.2 125.5 229.85 125.48 229.9 125.5 C 229.9 128.4 231.4 130.6 234 130.6 C 235.3 130.6 236.6 130 237.5 128.8 C 237.5 128.8 238.6 130.1 238.6 130.1 C 237.4 131.5 235.8 132.4 233.8 132.4 C 230 132.4 227.6 129.2 227.6 124.8 Z M 233.5 119 C 230.9 119 229.9 121.8 229.9 123.9 C 229.9 123.9 237.1 123.9 237.1 123.9 C 237.1 121.7 236.1 119 233.5 119 Z M 247.1 130.3 C 247.1 130.3 248.2 128.8 248.2 128.8 C 249 129.8 250.4 130.6 251.9 130.6 C 253.6 130.6 254.7 129.7 254.7 128.3 C 254.7 124.9 247.5 126.1 247.5 121.1 C 247.5 118.9 249.2 117.2 252.1 117.2 C 254 117.2 255.5 117.9 256.5 119 C 256.5 119 255.5 120.5 255.5 120.5 C 254.8 119.5 253.6 118.9 252.1 118.9 C 250.6 118.9 249.6 119.8 249.6 121 C 249.6 124.1 256.8 123 256.8 128.2 C 256.8 130.6 254.9 132.4 252 132.4 C 249.9 132.4 248.3 131.7 247.1 130.3 Z M 258.8 124.8 C 258.8 120.6 261.1 117.2 264.7 117.2 C 268.5 117.2 270.4 120.6 270.4 124.8 C 270.44 124.82 270.4 125.5 270.4 125.5 C 270.4 125.5 261.05 125.48 261.1 125.5 C 261.1 128.4 262.6 130.6 265.2 130.6 C 266.5 130.6 267.8 130 268.7 128.8 C 268.7 128.8 269.8 130.1 269.8 130.1 C 268.6 131.5 267 132.4 265 132.4 C 261.2 132.4 258.8 129.2 258.8 124.8 Z M 264.7 119 C 262.1 119 261.1 121.8 261.1 123.9 C 261.1 123.9 268.3 123.9 268.3 123.9 C 268.3 121.7 267.3 119 264.7 119 Z M 273.2 136.1 C 273.2 136.1 274.2 134.4 274.2 134.4 C 275.1 135.5 276.4 136.1 277.9 136.1 C 279.9 136.1 281.6 134.9 281.6 132.1 C 281.6 132.1 281.6 129.7 281.6 129.7 C 280.7 131.2 279.3 132.2 277.8 132.2 C 274.5 132.2 272.6 129.3 272.6 124.7 C 272.6 120.2 274.5 117.2 277.8 117.2 C 279.2 117.2 280.7 118 281.6 119.6 C 281.57 119.63 281.6 117.5 281.6 117.5 L 283.7 117.5 C 283.7 117.5 283.73 131.99 283.7 132 C 283.7 136.5 281 137.9 278 137.9 C 276.1 137.9 274.6 137.5 273.2 136.1 Z M 281.6 127.9 C 281.6 127.9 281.6 121.5 281.6 121.5 C 281 120.2 279.7 119.1 278.3 119.1 C 275.9 119.1 274.8 121.6 274.8 124.7 C 274.8 127.8 275.9 130.3 278.3 130.3 C 279.7 130.3 281 129.1 281.6 127.9 Z M 302 132 C 302 132 302 121.52 302 121.5 C 302 120 301.4 119.1 300 119.1 C 298.7 119.1 297.4 120.2 296.8 121.4 C 296.84 121.4 296.8 132 296.8 132 L 294.7 132 C 294.7 132 294.68 121.52 294.7 121.5 C 294.7 120 294 119.1 292.6 119.1 C 291.3 119.1 290.1 120.2 289.5 121.4 C 289.49 121.4 289.5 132 289.5 132 L 287.4 132 L 287.4 117.5 L 289.5 117.5 C 289.5 117.5 289.49 119.6 289.5 119.6 C 290.1 118.5 291.7 117.2 293.4 117.2 C 295.3 117.2 296.4 118.2 296.7 119.8 C 297.4 118.4 299.1 117.2 300.8 117.2 C 302.9 117.2 304.2 118.3 304.2 121 C 304.16 120.95 304.2 132 304.2 132 L 302 132 Z M 307.1 124.8 C 307.1 120.6 309.3 117.2 313 117.2 C 316.8 117.2 318.7 120.6 318.7 124.8 C 318.71 124.82 318.7 125.5 318.7 125.5 C 318.7 125.5 309.32 125.48 309.3 125.5 C 309.4 128.4 310.9 130.6 313.5 130.6 C 314.7 130.6 316 130 316.9 128.8 C 316.9 128.8 318.1 130.1 318.1 130.1 C 316.9 131.5 315.3 132.4 313.3 132.4 C 309.4 132.4 307.1 129.2 307.1 124.8 Z M 312.9 119 C 310.4 119 309.4 121.8 309.3 123.9 C 309.3 123.9 316.6 123.9 316.6 123.9 C 316.5 121.7 315.6 119 312.9 119 Z M 329.4 132 C 329.4 132 329.39 121.7 329.4 121.7 C 329.4 119.8 328.5 119.1 327.1 119.1 C 325.7 119.1 324.3 120.2 323.7 121.4 C 323.69 121.4 323.7 132 323.7 132 L 321.6 132 L 321.6 117.5 L 323.7 117.5 C 323.7 117.5 323.69 119.6 323.7 119.6 C 324.5 118.3 326.1 117.2 327.9 117.2 C 330.3 117.2 331.5 118.5 331.5 121.1 C 331.55 121.1 331.5 132 331.5 132 L 329.4 132 Z M 335.6 129.1 C 335.63 129.11 335.6 119.4 335.6 119.4 L 333.7 119.4 L 333.7 117.5 L 335.6 117.5 L 335.6 113.6 L 337.8 113.6 L 337.8 117.5 L 340.2 117.5 L 340.2 119.4 L 337.8 119.4 C 337.8 119.4 337.79 128.72 337.8 128.7 C 337.8 129.8 338.1 130.5 339 130.5 C 339.5 130.5 339.9 130.2 340.2 129.9 C 340.2 129.9 340.9 131.5 340.9 131.5 C 340.4 132 339.6 132.4 338.5 132.4 C 336.6 132.4 335.6 131.3 335.6 129.1 Z M 341.6 130.3 C 341.6 130.3 342.7 128.8 342.7 128.8 C 343.5 129.8 344.9 130.6 346.5 130.6 C 348.2 130.6 349.3 129.7 349.3 128.3 C 349.3 124.9 342 126.1 342 121.1 C 342 118.9 343.8 117.2 346.7 117.2 C 348.6 117.2 350.1 117.9 351.1 119 C 351.1 119 350.1 120.5 350.1 120.5 C 349.3 119.5 348.1 118.9 346.7 118.9 C 345.1 118.9 344.1 119.8 344.1 121 C 344.1 124.1 351.3 123 351.3 128.2 C 351.3 130.6 349.5 132.4 346.5 132.4 C 344.5 132.4 342.8 131.7 341.6 130.3 Z M 360.8 132 L 360.8 119.4 L 358.8 119.4 L 358.8 117.5 L 360.8 117.5 C 360.8 117.5 360.77 115.76 360.8 115.8 C 360.8 113.2 362.1 111.7 364.4 111.7 C 365.4 111.7 366.3 112 367 112.7 C 367 112.7 366.1 114.2 366.1 114.2 C 365.7 113.8 365.3 113.5 364.7 113.5 C 363.5 113.5 362.9 114.4 362.9 115.8 C 362.93 115.76 362.9 117.5 362.9 117.5 L 365.4 117.5 L 365.4 119.4 L 362.9 119.4 L 362.9 132 L 360.8 132 Z M 375.4 132 C 375.4 132 375.41 130.01 375.4 130 C 374.5 131.3 373 132.4 371.2 132.4 C 368.7 132.4 367.6 131.2 367.6 128.5 C 367.58 128.51 367.6 117.5 367.6 117.5 L 369.7 117.5 C 369.7 117.5 369.71 127.88 369.7 127.9 C 369.7 129.8 370.6 130.5 372 130.5 C 373.5 130.5 374.8 129.4 375.4 128.2 C 375.41 128.21 375.4 117.5 375.4 117.5 L 377.6 117.5 L 377.6 132 L 375.4 132 Z M 380.1 130.3 C 380.1 130.3 381.1 128.8 381.1 128.8 C 382 129.8 383.4 130.6 384.9 130.6 C 386.6 130.6 387.7 129.7 387.7 128.3 C 387.7 124.9 380.5 126.1 380.5 121.1 C 380.5 118.9 382.2 117.2 385.1 117.2 C 387 117.2 388.5 117.9 389.5 119 C 389.5 119 388.5 120.5 388.5 120.5 C 387.8 119.5 386.5 118.9 385.1 118.9 C 383.5 118.9 382.5 119.8 382.5 121 C 382.5 124.1 389.8 123 389.8 128.2 C 389.8 130.6 387.9 132.4 384.9 132.4 C 382.9 132.4 381.3 131.7 380.1 130.3 Z M 391.8 124.8 C 391.8 120.6 394 117.2 397.7 117.2 C 401.5 117.2 403.4 120.6 403.4 124.8 C 403.43 124.82 403.4 125.5 403.4 125.5 C 403.4 125.5 394.04 125.48 394 125.5 C 394.1 128.4 395.6 130.6 398.2 130.6 C 399.5 130.6 400.8 130 401.7 128.8 C 401.7 128.8 402.8 130.1 402.8 130.1 C 401.6 131.5 400 132.4 398 132.4 C 394.2 132.4 391.8 129.2 391.8 124.8 Z M 397.7 119 C 395.1 119 394.1 121.8 394 123.9 C 394 123.9 401.3 123.9 401.3 123.9 C 401.3 121.7 400.3 119 397.7 119 Z M 412.8 129.1 C 412.85 129.11 412.8 119.4 412.8 119.4 L 410.9 119.4 L 410.9 117.5 L 412.8 117.5 L 412.8 113.6 L 415 113.6 L 415 117.5 L 417.5 117.5 L 417.5 119.4 L 415 119.4 C 415 119.4 415.01 128.72 415 128.7 C 415 129.8 415.3 130.5 416.2 130.5 C 416.7 130.5 417.2 130.2 417.4 129.9 C 417.4 129.9 418.1 131.5 418.1 131.5 C 417.6 132 416.9 132.4 415.8 132.4 C 413.8 132.4 412.8 131.3 412.8 129.1 Z M 419.3 124.8 C 419.3 120.7 421.3 117.2 425.2 117.2 C 429.1 117.2 431.1 120.7 431.1 124.8 C 431.1 128.8 429.1 132.4 425.2 132.4 C 421.3 132.4 419.3 128.8 419.3 124.8 Z M 428.8 124.8 C 428.8 121.9 427.7 119.1 425.2 119.1 C 422.7 119.1 421.5 121.9 421.5 124.8 C 421.5 127.7 422.7 130.5 425.2 130.5 C 427.7 130.5 428.8 127.7 428.8 124.8 Z M 433.9 136.1 C 433.9 136.1 434.9 134.4 434.9 134.4 C 435.9 135.5 437.1 136.1 438.7 136.1 C 440.7 136.1 442.3 134.9 442.3 132.1 C 442.3 132.1 442.3 129.7 442.3 129.7 C 441.5 131.2 440 132.2 438.5 132.2 C 435.3 132.2 433.3 129.3 433.3 124.7 C 433.3 120.2 435.2 117.2 438.5 117.2 C 440 117.2 441.4 118 442.3 119.6 C 442.31 119.63 442.3 117.5 442.3 117.5 L 444.5 117.5 C 444.5 117.5 444.47 131.99 444.5 132 C 444.5 136.5 441.8 137.9 438.7 137.9 C 436.8 137.9 435.3 137.5 433.9 136.1 Z M 442.3 127.9 C 442.3 127.9 442.3 121.5 442.3 121.5 C 441.8 120.2 440.4 119.1 439 119.1 C 436.7 119.1 435.6 121.6 435.6 124.7 C 435.6 127.8 436.7 130.3 439 130.3 C 440.4 130.3 441.8 129.1 442.3 127.9 Z M 447.4 124.8 C 447.4 120.6 449.6 117.2 453.3 117.2 C 457.1 117.2 459 120.6 459 124.8 C 458.99 124.82 459 125.5 459 125.5 C 459 125.5 449.6 125.48 449.6 125.5 C 449.7 128.4 451.2 130.6 453.8 130.6 C 455 130.6 456.3 130 457.2 128.8 C 457.2 128.8 458.4 130.1 458.4 130.1 C 457.2 131.5 455.5 132.4 453.6 132.4 C 449.7 132.4 447.4 129.2 447.4 124.8 Z M 453.2 119 C 450.7 119 449.7 121.8 449.6 123.9 C 449.6 123.9 456.9 123.9 456.9 123.9 C 456.8 121.7 455.9 119 453.2 119 Z M 462.3 129.1 C 462.26 129.11 462.3 119.4 462.3 119.4 L 460.3 119.4 L 460.3 117.5 L 462.3 117.5 L 462.3 113.6 L 464.4 113.6 L 464.4 117.5 L 466.9 117.5 L 466.9 119.4 L 464.4 119.4 C 464.4 119.4 464.42 128.72 464.4 128.7 C 464.4 129.8 464.7 130.5 465.6 130.5 C 466.1 130.5 466.6 130.2 466.8 129.9 C 466.8 129.9 467.5 131.5 467.5 131.5 C 467 132 466.3 132.4 465.2 132.4 C 463.2 132.4 462.3 131.3 462.3 129.1 Z M 477.3 132 C 477.3 132 477.29 121.67 477.3 121.7 C 477.3 119.8 476.4 119.1 474.9 119.1 C 473.5 119.1 472.2 120.2 471.6 121.4 C 471.56 121.4 471.6 132 471.6 132 L 469.4 132 L 469.4 112 L 471.6 112 C 471.6 112 471.56 119.6 471.6 119.6 C 472.4 118.3 474 117.2 475.8 117.2 C 478.2 117.2 479.4 118.4 479.4 121 C 479.42 121.04 479.4 132 479.4 132 L 477.3 132 Z M 482.4 124.8 C 482.4 120.6 484.6 117.2 488.2 117.2 C 492 117.2 494 120.6 494 124.8 C 493.97 124.82 494 125.5 494 125.5 C 494 125.5 484.58 125.48 484.6 125.5 C 484.7 128.4 486.2 130.6 488.7 130.6 C 490 130.6 491.3 130 492.2 128.8 C 492.2 128.8 493.3 130.1 493.3 130.1 C 492.2 131.5 490.5 132.4 488.6 132.4 C 484.7 132.4 482.4 129.2 482.4 124.8 Z M 488.2 119 C 485.7 119 484.6 121.8 484.6 123.9 C 484.6 123.9 491.8 123.9 491.8 123.9 C 491.8 121.7 490.8 119 488.2 119 Z M 496.8 132 L 496.8 117.5 L 498.9 117.5 C 498.9 117.5 498.94 119.84 498.9 119.8 C 499.9 118.3 501.3 117.2 503.1 117.2 C 503.1 117.2 503.1 119.5 503.1 119.5 C 502.8 119.4 502.6 119.4 502.3 119.4 C 501 119.4 499.5 120.5 498.9 121.7 C 498.94 121.73 498.9 132 498.9 132 L 496.8 132 Z M 502.9 130.7 C 502.9 129.9 503.6 129.1 504.5 129.1 C 505.4 129.1 506.1 129.9 506.1 130.7 C 506.1 131.6 505.4 132.3 504.5 132.3 C 503.6 132.3 502.9 131.6 502.9 130.7 Z " stroke="none" fill="#efd8d3"/>  </g>  <g id="Polygon198595">    <path d="M 1.6 96 C 1.6 96 1.59 94.07 1.6 94.1 C 8.1 86.5 10.4 84.1 10.4 81.2 C 10.4 79 8.9 77.8 7.2 77.8 C 5.3 77.8 3.9 78.8 2.9 80.4 C 2.9 80.4 1.4 78.9 1.4 78.9 C 2.7 76.9 4.7 75.7 7.2 75.7 C 10.3 75.7 12.8 77.7 12.8 81.2 C 12.8 84.5 10.3 87.5 5 93.9 C 4.98 93.89 12.9 93.9 12.9 93.9 L 12.9 96 L 1.6 96 Z M 16.2 94.7 C 16.2 93.9 16.9 93.1 17.8 93.1 C 18.7 93.1 19.4 93.9 19.4 94.7 C 19.4 95.6 18.7 96.3 17.8 96.3 C 16.9 96.3 16.2 95.6 16.2 94.7 Z M 30.4 89.5 C 30.45 89.54 30.4 76 30.4 76 L 32.8 76 C 32.8 76 32.85 89.57 32.8 89.6 C 32.8 92.7 34.3 94.3 36.9 94.3 C 39.4 94.3 40.9 92.7 40.9 89.6 C 40.92 89.57 40.9 76 40.9 76 L 43.3 76 C 43.3 76 43.29 89.54 43.3 89.5 C 43.3 94 40.9 96.4 36.9 96.4 C 32.8 96.4 30.4 94 30.4 89.5 Z M 45.9 94.3 C 45.9 94.3 47 92.8 47 92.8 C 47.8 93.8 49.2 94.6 50.8 94.6 C 52.5 94.6 53.6 93.7 53.6 92.3 C 53.6 88.9 46.3 90.1 46.3 85.1 C 46.3 82.9 48.1 81.2 51 81.2 C 52.9 81.2 54.4 81.9 55.4 83 C 55.4 83 54.4 84.5 54.4 84.5 C 53.6 83.5 52.4 82.9 51 82.9 C 49.4 82.9 48.4 83.8 48.4 85 C 48.4 88.1 55.6 87 55.6 92.2 C 55.6 94.6 53.8 96.4 50.8 96.4 C 48.8 96.4 47.1 95.7 45.9 94.3 Z M 58 78 C 58 77.2 58.7 76.5 59.5 76.5 C 60.3 76.5 60.9 77.2 60.9 78 C 60.9 78.8 60.3 79.4 59.5 79.4 C 58.7 79.4 58 78.8 58 78 Z M 58.4 96 L 58.4 81.5 L 60.5 81.5 L 60.5 96 L 58.4 96 Z M 72 96 C 72 96 72.03 85.7 72 85.7 C 72 83.8 71.2 83.1 69.7 83.1 C 68.3 83.1 67 84.2 66.3 85.4 C 66.33 85.4 66.3 96 66.3 96 L 64.2 96 L 64.2 81.5 L 66.3 81.5 C 66.3 81.5 66.33 83.6 66.3 83.6 C 67.2 82.3 68.8 81.2 70.5 81.2 C 73 81.2 74.2 82.5 74.2 85.1 C 74.19 85.1 74.2 96 74.2 96 L 72 96 Z M 77.7 100.1 C 77.7 100.1 78.7 98.4 78.7 98.4 C 79.7 99.5 80.9 100.1 82.5 100.1 C 84.5 100.1 86.1 98.9 86.1 96.1 C 86.1 96.1 86.1 93.7 86.1 93.7 C 85.3 95.2 83.8 96.2 82.3 96.2 C 79.1 96.2 77.1 93.3 77.1 88.7 C 77.1 84.2 79 81.2 82.3 81.2 C 83.8 81.2 85.2 82 86.1 83.6 C 86.13 83.63 86.1 81.5 86.1 81.5 L 88.3 81.5 C 88.3 81.5 88.29 95.99 88.3 96 C 88.3 100.5 85.6 101.9 82.6 101.9 C 80.6 101.9 79.1 101.5 77.7 100.1 Z M 86.1 91.9 C 86.1 91.9 86.1 85.5 86.1 85.5 C 85.6 84.2 84.2 83.1 82.9 83.1 C 80.5 83.1 79.4 85.6 79.4 88.7 C 79.4 91.8 80.5 94.3 82.9 94.3 C 84.2 94.3 85.6 93.1 86.1 91.9 Z M 105.5 96 C 105.5 96 105.5 94.46 105.5 94.5 C 104.6 95.8 103.2 96.4 101.7 96.4 C 99.4 96.4 97.3 94.6 97.3 91.6 C 97.3 88.5 99.3 86.8 101.7 86.8 C 103.2 86.8 104.6 87.4 105.5 88.6 C 105.5 88.6 105.5 86.1 105.5 86.1 C 105.5 84.1 104.4 83 102.5 83 C 101.2 83 100 83.5 98.9 84.8 C 98.9 84.8 97.9 83.3 97.9 83.3 C 99.3 81.8 101 81.2 102.9 81.2 C 105.7 81.2 107.7 82.6 107.7 85.9 C 107.66 85.88 107.7 96 107.7 96 L 105.5 96 Z M 105.5 93 C 105.5 93 105.5 90.2 105.5 90.2 C 104.8 89 103.6 88.4 102.4 88.4 C 100.6 88.4 99.5 89.8 99.5 91.6 C 99.5 93.4 100.6 94.8 102.4 94.8 C 103.6 94.8 104.8 94.2 105.5 93 Z M 125.3 96 C 125.3 96 125.3 85.67 125.3 85.7 C 125.3 83.8 124.4 83.1 123 83.1 C 121.6 83.1 120.2 84.2 119.6 85.4 C 119.57 85.4 119.6 96 119.6 96 L 117.4 96 L 117.4 76 L 119.6 76 C 119.6 76 119.57 83.6 119.6 83.6 C 120.4 82.3 122.1 81.2 123.8 81.2 C 126.3 81.2 127.4 82.4 127.4 85 C 127.43 85.04 127.4 96 127.4 96 L 125.3 96 Z M 130.4 88.8 C 130.4 84.6 132.6 81.2 136.3 81.2 C 140.1 81.2 142 84.6 142 88.8 C 141.98 88.82 142 89.5 142 89.5 C 142 89.5 132.59 89.48 132.6 89.5 C 132.7 92.4 134.2 94.6 136.8 94.6 C 138 94.6 139.3 94 140.2 92.8 C 140.2 92.8 141.4 94.1 141.4 94.1 C 140.2 95.5 138.5 96.4 136.6 96.4 C 132.7 96.4 130.4 93.2 130.4 88.8 Z M 136.2 83 C 133.7 83 132.7 85.8 132.6 87.9 C 132.6 87.9 139.9 87.9 139.9 87.9 C 139.8 85.7 138.9 83 136.2 83 Z M 152.3 96 C 152.3 96 152.27 94.46 152.3 94.5 C 151.3 95.8 149.9 96.4 148.5 96.4 C 146.1 96.4 144.1 94.6 144.1 91.6 C 144.1 88.5 146.1 86.8 148.5 86.8 C 149.9 86.8 151.4 87.4 152.3 88.6 C 152.3 88.6 152.3 86.1 152.3 86.1 C 152.3 84.1 151.2 83 149.3 83 C 148 83 146.8 83.5 145.7 84.8 C 145.7 84.8 144.7 83.3 144.7 83.3 C 146.1 81.8 147.8 81.2 149.6 81.2 C 152.5 81.2 154.4 82.6 154.4 85.9 C 154.43 85.88 154.4 96 154.4 96 L 152.3 96 Z M 152.3 93 C 152.3 93 152.3 90.2 152.3 90.2 C 151.6 89 150.4 88.4 149.2 88.4 C 147.4 88.4 146.3 89.8 146.3 91.6 C 146.3 93.4 147.4 94.8 149.2 94.8 C 150.4 94.8 151.6 94.2 152.3 93 Z M 158.5 93.1 C 158.48 93.11 158.5 83.4 158.5 83.4 L 156.6 83.4 L 156.6 81.5 L 158.5 81.5 L 158.5 77.6 L 160.6 77.6 L 160.6 81.5 L 163.1 81.5 L 163.1 83.4 L 160.6 83.4 C 160.6 83.4 160.64 92.72 160.6 92.7 C 160.6 93.8 161 94.5 161.8 94.5 C 162.4 94.5 162.8 94.2 163.1 93.9 C 163.1 93.9 163.7 95.5 163.7 95.5 C 163.2 96 162.5 96.4 161.4 96.4 C 159.4 96.4 158.5 95.3 158.5 93.1 Z M 171.7 100.1 C 171.7 100.1 172.7 98.4 172.7 98.4 C 173.6 99.5 174.9 100.1 176.5 100.1 C 178.4 100.1 180.1 98.9 180.1 96.1 C 180.1 96.1 180.1 93.7 180.1 93.7 C 179.2 95.2 177.8 96.2 176.3 96.2 C 173 96.2 171.1 93.3 171.1 88.7 C 171.1 84.2 173 81.2 176.3 81.2 C 177.7 81.2 179.2 82 180.1 83.6 C 180.08 83.63 180.1 81.5 180.1 81.5 L 182.2 81.5 C 182.2 81.5 182.24 95.99 182.2 96 C 182.2 100.5 179.5 101.9 176.5 101.9 C 174.6 101.9 173.1 101.5 171.7 100.1 Z M 180.1 91.9 C 180.1 91.9 180.1 85.5 180.1 85.5 C 179.5 84.2 178.2 83.1 176.8 83.1 C 174.4 83.1 173.3 85.6 173.3 88.7 C 173.3 91.8 174.4 94.3 176.8 94.3 C 178.2 94.3 179.5 93.1 180.1 91.9 Z M 193.7 96 C 193.7 96 193.7 94.01 193.7 94 C 192.8 95.3 191.3 96.4 189.5 96.4 C 187 96.4 185.9 95.2 185.9 92.5 C 185.87 92.51 185.9 81.5 185.9 81.5 L 188 81.5 C 188 81.5 188 91.88 188 91.9 C 188 93.8 188.9 94.5 190.3 94.5 C 191.8 94.5 193.1 93.4 193.7 92.2 C 193.7 92.21 193.7 81.5 193.7 81.5 L 195.9 81.5 L 195.9 96 L 193.7 96 Z M 207.4 96 C 207.4 96 207.35 85.7 207.4 85.7 C 207.4 83.8 206.5 83.1 205 83.1 C 203.6 83.1 202.3 84.2 201.7 85.4 C 201.65 85.4 201.7 96 201.7 96 L 199.5 96 L 199.5 81.5 L 201.7 81.5 C 201.7 81.5 201.65 83.6 201.7 83.6 C 202.5 82.3 204.1 81.2 205.9 81.2 C 208.3 81.2 209.5 82.5 209.5 85.1 C 209.51 85.1 209.5 96 209.5 96 L 207.4 96 Z M 214 99.8 C 214 99.8 212.9 98.9 212.9 98.9 C 213.9 98.3 214.7 97.1 214.8 96.1 C 214.8 96.1 214.6 96.2 214.4 96.2 C 213.6 96.2 213 95.5 213 94.7 C 213 93.8 213.7 93.1 214.6 93.1 C 215.5 93.1 216.4 93.9 216.4 95.4 C 216.4 97.2 215.3 98.8 214 99.8 Z M 240.5 96 C 240.5 96 240.5 85.52 240.5 85.5 C 240.5 84 239.9 83.1 238.5 83.1 C 237.2 83.1 235.9 84.2 235.3 85.4 C 235.34 85.4 235.3 96 235.3 96 L 233.2 96 C 233.2 96 233.18 85.52 233.2 85.5 C 233.2 84 232.6 83.1 231.1 83.1 C 229.9 83.1 228.6 84.2 228 85.4 C 227.99 85.4 228 96 228 96 L 225.9 96 L 225.9 81.5 L 228 81.5 C 228 81.5 227.99 83.6 228 83.6 C 228.6 82.5 230.2 81.2 232 81.2 C 233.8 81.2 235 82.2 235.2 83.8 C 235.9 82.4 237.6 81.2 239.3 81.2 C 241.4 81.2 242.7 82.3 242.7 85 C 242.66 84.95 242.7 96 242.7 96 L 240.5 96 Z M 245.6 88.8 C 245.6 84.6 247.8 81.2 251.5 81.2 C 255.3 81.2 257.2 84.6 257.2 88.8 C 257.21 88.82 257.2 89.5 257.2 89.5 C 257.2 89.5 247.82 89.48 247.8 89.5 C 247.9 92.4 249.4 94.6 252 94.6 C 253.3 94.6 254.5 94 255.4 92.8 C 255.4 92.8 256.6 94.1 256.6 94.1 C 255.4 95.5 253.8 96.4 251.8 96.4 C 247.9 96.4 245.6 93.2 245.6 88.8 Z M 251.5 83 C 248.9 83 247.9 85.8 247.8 87.9 C 247.8 87.9 255.1 87.9 255.1 87.9 C 255.1 85.7 254.1 83 251.5 83 Z M 260.1 96 L 260.1 76 L 262.2 76 L 262.2 96 L 260.1 96 Z M 266.3 93.1 C 266.27 93.11 266.3 83.4 266.3 83.4 L 264.4 83.4 L 264.4 81.5 L 266.3 81.5 L 266.3 77.6 L 268.4 77.6 L 268.4 81.5 L 270.9 81.5 L 270.9 83.4 L 268.4 83.4 C 268.4 83.4 268.43 92.72 268.4 92.7 C 268.4 93.8 268.8 94.5 269.6 94.5 C 270.1 94.5 270.6 94.2 270.9 93.9 C 270.9 93.9 271.5 95.5 271.5 95.5 C 271 96 270.3 96.4 269.2 96.4 C 267.2 96.4 266.3 95.3 266.3 93.1 Z M 280 93.1 C 280.01 93.11 280 83.4 280 83.4 L 278.1 83.4 L 278.1 81.5 L 280 81.5 L 280 77.6 L 282.2 77.6 L 282.2 81.5 L 284.6 81.5 L 284.6 83.4 L 282.2 83.4 C 282.2 83.4 282.17 92.72 282.2 92.7 C 282.2 93.8 282.5 94.5 283.3 94.5 C 283.9 94.5 284.3 94.2 284.6 93.9 C 284.6 93.9 285.3 95.5 285.3 95.5 C 284.8 96 284 96.4 282.9 96.4 C 280.9 96.4 280 95.3 280 93.1 Z M 295 96 C 295 96 295.04 85.67 295 85.7 C 295 83.8 294.1 83.1 292.7 83.1 C 291.3 83.1 290 84.2 289.3 85.4 C 289.31 85.4 289.3 96 289.3 96 L 287.2 96 L 287.2 76 L 289.3 76 C 289.3 76 289.31 83.6 289.3 83.6 C 290.2 82.3 291.8 81.2 293.5 81.2 C 296 81.2 297.2 82.4 297.2 85 C 297.17 85.04 297.2 96 297.2 96 L 295 96 Z M 300.1 88.8 C 300.1 84.6 302.3 81.2 306 81.2 C 309.8 81.2 311.7 84.6 311.7 88.8 C 311.72 88.82 311.7 89.5 311.7 89.5 C 311.7 89.5 302.33 89.48 302.3 89.5 C 302.4 92.4 303.9 94.6 306.5 94.6 C 307.8 94.6 309 94 309.9 92.8 C 309.9 92.8 311.1 94.1 311.1 94.1 C 309.9 95.5 308.3 96.4 306.3 96.4 C 302.4 96.4 300.1 93.2 300.1 88.8 Z M 306 83 C 303.4 83 302.4 85.8 302.3 87.9 C 302.3 87.9 309.6 87.9 309.6 87.9 C 309.6 85.7 308.6 83 306 83 Z M 320 88.8 C 320 84.6 322.2 81.2 325.9 81.2 C 329.7 81.2 331.6 84.6 331.6 88.8 C 331.61 88.82 331.6 89.5 331.6 89.5 C 331.6 89.5 322.22 89.48 322.2 89.5 C 322.3 92.4 323.8 94.6 326.4 94.6 C 327.6 94.6 328.9 94 329.8 92.8 C 329.8 92.8 331 94.1 331 94.1 C 329.8 95.5 328.2 96.4 326.2 96.4 C 322.3 96.4 320 93.2 320 88.8 Z M 325.8 83 C 323.3 83 322.3 85.8 322.2 87.9 C 322.2 87.9 329.5 87.9 329.5 87.9 C 329.4 85.7 328.5 83 325.8 83 Z M 342.3 96 C 342.3 96 342.29 85.7 342.3 85.7 C 342.3 83.8 341.4 83.1 340 83.1 C 338.6 83.1 337.2 84.2 336.6 85.4 C 336.59 85.4 336.6 96 336.6 96 L 334.5 96 L 334.5 81.5 L 336.6 81.5 C 336.6 81.5 336.59 83.6 336.6 83.6 C 337.4 82.3 339 81.2 340.8 81.2 C 343.2 81.2 344.4 82.5 344.4 85.1 C 344.45 85.1 344.4 96 344.4 96 L 342.3 96 Z M 356.4 96 C 356.4 96 356.39 93.95 356.4 94 C 355.5 95.4 354.1 96.4 352.6 96.4 C 349.3 96.4 347.4 93.4 347.4 88.8 C 347.4 84.3 349.3 81.2 352.6 81.2 C 354 81.2 355.5 82 356.4 83.6 C 356.39 83.63 356.4 76 356.4 76 L 358.5 76 L 358.5 96 L 356.4 96 Z M 356.4 92.1 C 356.4 92.1 356.4 85.5 356.4 85.5 C 355.8 84.2 354.5 83.1 353.1 83.1 C 350.7 83.1 349.6 85.6 349.6 88.8 C 349.6 91.9 350.7 94.5 353.1 94.5 C 354.5 94.5 355.8 93.4 356.4 92.1 Z M 361 94.3 C 361 94.3 362.1 92.8 362.1 92.8 C 363 93.8 364.3 94.6 365.9 94.6 C 367.6 94.6 368.7 93.7 368.7 92.3 C 368.7 88.9 361.5 90.1 361.5 85.1 C 361.5 82.9 363.2 81.2 366.1 81.2 C 368 81.2 369.5 81.9 370.5 83 C 370.5 83 369.5 84.5 369.5 84.5 C 368.7 83.5 367.5 82.9 366.1 82.9 C 364.5 82.9 363.5 83.8 363.5 85 C 363.5 88.1 370.8 87 370.8 92.2 C 370.8 94.6 368.9 96.4 365.9 96.4 C 363.9 96.4 362.2 95.7 361 94.3 Z M 378.9 88.8 C 378.9 84.7 381 81.2 384.8 81.2 C 388.7 81.2 390.7 84.7 390.7 88.8 C 390.7 92.8 388.7 96.4 384.8 96.4 C 381 96.4 378.9 92.8 378.9 88.8 Z M 388.5 88.8 C 388.5 85.9 387.4 83.1 384.8 83.1 C 382.3 83.1 381.2 85.9 381.2 88.8 C 381.2 91.7 382.3 94.5 384.8 94.5 C 387.4 94.5 388.5 91.7 388.5 88.8 Z M 394.2 96 L 394.2 83.4 L 392.3 83.4 L 392.3 81.5 L 394.2 81.5 C 394.2 81.5 394.19 79.76 394.2 79.8 C 394.2 77.2 395.6 75.7 397.8 75.7 C 398.8 75.7 399.7 76 400.4 76.7 C 400.4 76.7 399.6 78.2 399.6 78.2 C 399.2 77.8 398.7 77.5 398.1 77.5 C 396.9 77.5 396.3 78.4 396.3 79.8 C 396.35 79.76 396.3 81.5 396.3 81.5 L 398.8 81.5 L 398.8 83.4 L 396.3 83.4 L 396.3 96 L 394.2 96 Z M 407.6 93.1 C 407.57 93.11 407.6 83.4 407.6 83.4 L 405.6 83.4 L 405.6 81.5 L 407.6 81.5 L 407.6 77.6 L 409.7 77.6 L 409.7 81.5 L 412.2 81.5 L 412.2 83.4 L 409.7 83.4 C 409.7 83.4 409.73 92.72 409.7 92.7 C 409.7 93.8 410.1 94.5 410.9 94.5 C 411.4 94.5 411.9 94.2 412.2 93.9 C 412.2 93.9 412.8 95.5 412.8 95.5 C 412.3 96 411.6 96.4 410.5 96.4 C 408.5 96.4 407.6 95.3 407.6 93.1 Z M 422.6 96 C 422.6 96 422.6 85.67 422.6 85.7 C 422.6 83.8 421.7 83.1 420.3 83.1 C 418.8 83.1 417.5 84.2 416.9 85.4 C 416.87 85.4 416.9 96 416.9 96 L 414.7 96 L 414.7 76 L 416.9 76 C 416.9 76 416.87 83.6 416.9 83.6 C 417.7 82.3 419.4 81.2 421.1 81.2 C 423.6 81.2 424.7 82.4 424.7 85 C 424.73 85.04 424.7 96 424.7 96 L 422.6 96 Z M 427.7 88.8 C 427.7 84.6 429.9 81.2 433.5 81.2 C 437.4 81.2 439.3 84.6 439.3 88.8 C 439.28 88.82 439.3 89.5 439.3 89.5 C 439.3 89.5 429.89 89.48 429.9 89.5 C 430 92.4 431.5 94.6 434.1 94.6 C 435.3 94.6 436.6 94 437.5 92.8 C 437.5 92.8 438.6 94.1 438.6 94.1 C 437.5 95.5 435.8 96.4 433.9 96.4 C 430 96.4 427.7 93.2 427.7 88.8 Z M 433.5 83 C 431 83 429.9 85.8 429.9 87.9 C 429.9 87.9 437.1 87.9 437.1 87.9 C 437.1 85.7 436.2 83 433.5 83 Z M 447.1 94.3 C 447.1 94.3 448.2 92.8 448.2 92.8 C 449 93.8 450.4 94.6 452 94.6 C 453.6 94.6 454.8 93.7 454.8 92.3 C 454.8 88.9 447.5 90.1 447.5 85.1 C 447.5 82.9 449.3 81.2 452.1 81.2 C 454.1 81.2 455.5 81.9 456.6 83 C 456.6 83 455.5 84.5 455.5 84.5 C 454.8 83.5 453.6 82.9 452.2 82.9 C 450.6 82.9 449.6 83.8 449.6 85 C 449.6 88.1 456.8 87 456.8 92.2 C 456.8 94.6 455 96.4 452 96.4 C 450 96.4 448.3 95.7 447.1 94.3 Z M 458.9 88.8 C 458.9 84.6 461.1 81.2 464.7 81.2 C 468.6 81.2 470.5 84.6 470.5 88.8 C 470.48 88.82 470.5 89.5 470.5 89.5 C 470.5 89.5 461.09 89.48 461.1 89.5 C 461.2 92.4 462.7 94.6 465.3 94.6 C 466.5 94.6 467.8 94 468.7 92.8 C 468.7 92.8 469.8 94.1 469.8 94.1 C 468.7 95.5 467 96.4 465.1 96.4 C 461.2 96.4 458.9 93.2 458.9 88.8 Z M 464.7 83 C 462.2 83 461.1 85.8 461.1 87.9 C 461.1 87.9 468.3 87.9 468.3 87.9 C 468.3 85.7 467.4 83 464.7 83 Z M 473.2 100.1 C 473.2 100.1 474.2 98.4 474.2 98.4 C 475.2 99.5 476.4 100.1 478 100.1 C 480 100.1 481.6 98.9 481.6 96.1 C 481.6 96.1 481.6 93.7 481.6 93.7 C 480.8 95.2 479.3 96.2 477.8 96.2 C 474.6 96.2 472.6 93.3 472.6 88.7 C 472.6 84.2 474.5 81.2 477.8 81.2 C 479.3 81.2 480.7 82 481.6 83.6 C 481.61 83.63 481.6 81.5 481.6 81.5 L 483.8 81.5 C 483.8 81.5 483.77 95.99 483.8 96 C 483.8 100.5 481.1 101.9 478 101.9 C 476.1 101.9 474.6 101.5 473.2 100.1 Z M 481.6 91.9 C 481.6 91.9 481.6 85.5 481.6 85.5 C 481.1 84.2 479.7 83.1 478.3 83.1 C 476 83.1 474.9 85.6 474.9 88.7 C 474.9 91.8 476 94.3 478.3 94.3 C 479.7 94.3 481.1 93.1 481.6 91.9 Z M 502 96 C 502 96 502.04 85.52 502 85.5 C 502 84 501.4 83.1 500 83.1 C 498.7 83.1 497.4 84.2 496.9 85.4 C 496.88 85.4 496.9 96 496.9 96 L 494.7 96 C 494.7 96 494.72 85.52 494.7 85.5 C 494.7 84 494.1 83.1 492.7 83.1 C 491.4 83.1 490.2 84.2 489.5 85.4 C 489.53 85.4 489.5 96 489.5 96 L 487.4 96 L 487.4 81.5 L 489.5 81.5 C 489.5 81.5 489.53 83.6 489.5 83.6 C 490.1 82.5 491.7 81.2 493.5 81.2 C 495.3 81.2 496.5 82.2 496.8 83.8 C 497.5 82.4 499.1 81.2 500.8 81.2 C 503 81.2 504.2 82.3 504.2 85 C 504.2 84.95 504.2 96 504.2 96 L 502 96 Z M 507.1 88.8 C 507.1 84.6 509.4 81.2 513 81.2 C 516.8 81.2 518.7 84.6 518.7 88.8 C 518.75 88.82 518.7 89.5 518.7 89.5 C 518.7 89.5 509.36 89.48 509.4 89.5 C 509.4 92.4 510.9 94.6 513.5 94.6 C 514.8 94.6 516.1 94 517 92.8 C 517 92.8 518.1 94.1 518.1 94.1 C 516.9 95.5 515.3 96.4 513.3 96.4 C 509.5 96.4 507.1 93.2 507.1 88.8 Z M 513 83 C 510.4 83 509.4 85.8 509.4 87.9 C 509.4 87.9 516.6 87.9 516.6 87.9 C 516.6 85.7 515.6 83 513 83 Z M 529.4 96 C 529.4 96 529.43 85.7 529.4 85.7 C 529.4 83.8 528.6 83.1 527.1 83.1 C 525.7 83.1 524.4 84.2 523.7 85.4 C 523.73 85.4 523.7 96 523.7 96 L 521.6 96 L 521.6 81.5 L 523.7 81.5 C 523.7 81.5 523.73 83.6 523.7 83.6 C 524.6 82.3 526.2 81.2 527.9 81.2 C 530.4 81.2 531.6 82.5 531.6 85.1 C 531.59 85.1 531.6 96 531.6 96 L 529.4 96 Z M 535.7 93.1 C 535.67 93.11 535.7 83.4 535.7 83.4 L 533.7 83.4 L 533.7 81.5 L 535.7 81.5 L 535.7 77.6 L 537.8 77.6 L 537.8 81.5 L 540.3 81.5 L 540.3 83.4 L 537.8 83.4 C 537.8 83.4 537.83 92.72 537.8 92.7 C 537.8 93.8 538.2 94.5 539 94.5 C 539.5 94.5 540 94.2 540.3 93.9 C 540.3 93.9 540.9 95.5 540.9 95.5 C 540.4 96 539.7 96.4 538.6 96.4 C 536.6 96.4 535.7 95.3 535.7 93.1 Z M 541.7 94.3 C 541.7 94.3 542.7 92.8 542.7 92.8 C 543.6 93.8 545 94.6 546.5 94.6 C 548.2 94.6 549.3 93.7 549.3 92.3 C 549.3 88.9 542.1 90.1 542.1 85.1 C 542.1 82.9 543.8 81.2 546.7 81.2 C 548.6 81.2 550.1 81.9 551.1 83 C 551.1 83 550.1 84.5 550.1 84.5 C 549.4 83.5 548.1 82.9 546.7 82.9 C 545.1 82.9 544.2 83.8 544.2 85 C 544.2 88.1 551.4 87 551.4 92.2 C 551.4 94.6 549.5 96.4 546.6 96.4 C 544.5 96.4 542.9 95.7 541.7 94.3 Z M 559.1 94.3 C 559.1 94.3 560.2 92.8 560.2 92.8 C 561 93.8 562.4 94.6 564 94.6 C 565.7 94.6 566.8 93.7 566.8 92.3 C 566.8 88.9 559.5 90.1 559.5 85.1 C 559.5 82.9 561.3 81.2 564.2 81.2 C 566.1 81.2 567.6 81.9 568.6 83 C 568.6 83 567.6 84.5 567.6 84.5 C 566.8 83.5 565.6 82.9 564.2 82.9 C 562.6 82.9 561.6 83.8 561.6 85 C 561.6 88.1 568.8 87 568.8 92.2 C 568.8 94.6 567 96.4 564 96.4 C 562 96.4 560.3 95.7 559.1 94.3 Z M 570.9 88.8 C 570.9 84.7 572.9 81.2 576.8 81.2 C 580.7 81.2 582.7 84.7 582.7 88.8 C 582.7 92.8 580.7 96.4 576.8 96.4 C 572.9 96.4 570.9 92.8 570.9 88.8 Z M 580.4 88.8 C 580.4 85.9 579.3 83.1 576.8 83.1 C 574.3 83.1 573.1 85.9 573.1 88.8 C 573.1 91.7 574.3 94.5 576.8 94.5 C 579.3 94.5 580.4 91.7 580.4 88.8 Z M 592.2 93.1 C 592.18 93.11 592.2 83.4 592.2 83.4 L 590.3 83.4 L 590.3 81.5 L 592.2 81.5 L 592.2 77.6 L 594.3 77.6 L 594.3 81.5 L 596.8 81.5 L 596.8 83.4 L 594.3 83.4 C 594.3 83.4 594.34 92.72 594.3 92.7 C 594.3 93.8 594.7 94.5 595.5 94.5 C 596.1 94.5 596.5 94.2 596.8 93.9 C 596.8 93.9 597.4 95.5 597.4 95.5 C 596.9 96 596.2 96.4 595.1 96.4 C 593.1 96.4 592.2 95.3 592.2 93.1 Z M 607.2 96 C 607.2 96 607.21 85.67 607.2 85.7 C 607.2 83.8 606.3 83.1 604.9 83.1 C 603.5 83.1 602.1 84.2 601.5 85.4 C 601.48 85.4 601.5 96 601.5 96 L 599.4 96 L 599.4 76 L 601.5 76 C 601.5 76 601.48 83.6 601.5 83.6 C 602.3 82.3 604 81.2 605.7 81.2 C 608.2 81.2 609.3 82.4 609.3 85 C 609.34 85.04 609.3 96 609.3 96 L 607.2 96 Z M 620.4 96 C 620.4 96 620.44 94.46 620.4 94.5 C 619.5 95.8 618.1 96.4 616.6 96.4 C 614.3 96.4 612.3 94.6 612.3 91.6 C 612.3 88.5 614.3 86.8 616.6 86.8 C 618.1 86.8 619.5 87.4 620.4 88.6 C 620.4 88.6 620.4 86.1 620.4 86.1 C 620.4 84.1 619.4 83 617.5 83 C 616.1 83 615 83.5 613.8 84.8 C 613.8 84.8 612.9 83.3 612.9 83.3 C 614.3 81.8 616 81.2 617.8 81.2 C 620.7 81.2 622.6 82.6 622.6 85.9 C 622.6 85.88 622.6 96 622.6 96 L 620.4 96 Z M 620.4 93 C 620.4 93 620.4 90.2 620.4 90.2 C 619.8 89 618.6 88.4 617.3 88.4 C 615.5 88.4 614.4 89.8 614.4 91.6 C 614.4 93.4 615.5 94.8 617.3 94.8 C 618.6 94.8 619.8 94.2 620.4 93 Z M 626.7 93.1 C 626.65 93.11 626.7 83.4 626.7 83.4 L 624.7 83.4 L 624.7 81.5 L 626.7 81.5 L 626.7 77.6 L 628.8 77.6 L 628.8 81.5 L 631.3 81.5 L 631.3 83.4 L 628.8 83.4 C 628.8 83.4 628.81 92.72 628.8 92.7 C 628.8 93.8 629.1 94.5 630 94.5 C 630.5 94.5 631 94.2 631.2 93.9 C 631.2 93.9 631.9 95.5 631.9 95.5 C 631.4 96 630.7 96.4 629.6 96.4 C 627.6 96.4 626.7 95.3 626.7 93.1 Z " stroke="none" fill="#efd8d3"/>  </g>  <g id="Polygon198594">    <path d="M 5 24 L 5 7.2 L 1.9 10.5 L 0.4 9 L 5.3 4 L 7.3 4 L 7.3 24 L 5 24 Z M 11 22.7 C 11 21.9 11.7 21.1 12.6 21.1 C 13.4 21.1 14.2 21.9 14.2 22.7 C 14.2 23.6 13.4 24.3 12.6 24.3 C 11.7 24.3 11 23.6 11 22.7 Z M 29.8 14 C 29.8 8 32.8 3.7 37.5 3.7 C 40.6 3.7 42.3 5.5 43.4 7.6 C 43.4 7.6 41.4 8.5 41.4 8.5 C 40.6 6.9 39.3 5.8 37.5 5.8 C 34.3 5.8 32.2 9.3 32.2 14 C 32.2 18.8 34.3 22.3 37.5 22.3 C 39.4 22.3 40.7 21 41.4 19.3 C 41.4 19.3 43.4 20.2 43.4 20.2 C 42.3 22.4 40.6 24.4 37.5 24.4 C 32.8 24.4 29.8 20 29.8 14 Z M 53.8 24 C 53.8 24 53.85 22.01 53.8 22 C 53 23.3 51.4 24.4 49.6 24.4 C 47.2 24.4 46 23.2 46 20.5 C 46.02 20.51 46 9.5 46 9.5 L 48.1 9.5 C 48.1 9.5 48.15 19.88 48.1 19.9 C 48.1 21.8 49 22.5 50.5 22.5 C 51.9 22.5 53.2 21.4 53.8 20.2 C 53.85 20.21 53.8 9.5 53.8 9.5 L 56 9.5 L 56 24 L 53.8 24 Z M 60.1 21.1 C 60.09 21.11 60.1 11.4 60.1 11.4 L 58.2 11.4 L 58.2 9.5 L 60.1 9.5 L 60.1 5.6 L 62.2 5.6 L 62.2 9.5 L 64.7 9.5 L 64.7 11.4 L 62.2 11.4 C 62.2 11.4 62.25 20.72 62.2 20.7 C 62.2 21.8 62.6 22.5 63.4 22.5 C 64 22.5 64.4 22.2 64.7 21.9 C 64.7 21.9 65.3 23.5 65.3 23.5 C 64.8 24 64.1 24.4 63 24.4 C 61 24.4 60.1 23.3 60.1 21.1 Z M 73.8 21.1 C 73.83 21.11 73.8 11.4 73.8 11.4 L 71.9 11.4 L 71.9 9.5 L 73.8 9.5 L 73.8 5.6 L 76 5.6 L 76 9.5 L 78.4 9.5 L 78.4 11.4 L 76 11.4 C 76 11.4 75.99 20.72 76 20.7 C 76 21.8 76.3 22.5 77.2 22.5 C 77.7 22.5 78.1 22.2 78.4 21.9 C 78.4 21.9 79.1 23.5 79.1 23.5 C 78.6 24 77.8 24.4 76.7 24.4 C 74.8 24.4 73.8 23.3 73.8 21.1 Z M 88.9 24 C 88.9 24 88.86 13.67 88.9 13.7 C 88.9 11.8 88 11.1 86.5 11.1 C 85.1 11.1 83.8 12.2 83.1 13.4 C 83.13 13.4 83.1 24 83.1 24 L 81 24 L 81 4 L 83.1 4 C 83.1 4 83.13 11.6 83.1 11.6 C 84 10.3 85.6 9.2 87.4 9.2 C 89.8 9.2 91 10.4 91 13 C 90.99 13.04 91 24 91 24 L 88.9 24 Z M 94.6 24 L 94.6 9.5 L 96.8 9.5 C 96.8 9.5 96.77 11.84 96.8 11.8 C 97.7 10.3 99.1 9.2 100.9 9.2 C 100.9 9.2 100.9 11.5 100.9 11.5 C 100.6 11.4 100.4 11.4 100.2 11.4 C 98.8 11.4 97.4 12.5 96.8 13.7 C 96.77 13.73 96.8 24 96.8 24 L 94.6 24 Z M 102.4 16.8 C 102.4 12.6 104.6 9.2 108.2 9.2 C 112 9.2 114 12.6 114 16.8 C 113.96 16.82 114 17.5 114 17.5 C 114 17.5 104.57 17.48 104.6 17.5 C 104.7 20.4 106.2 22.6 108.7 22.6 C 110 22.6 111.3 22 112.2 20.8 C 112.2 20.8 113.3 22.1 113.3 22.1 C 112.2 23.5 110.5 24.4 108.6 24.4 C 104.7 24.4 102.4 21.2 102.4 16.8 Z M 108.2 11 C 105.7 11 104.6 13.8 104.6 15.9 C 104.6 15.9 111.8 15.9 111.8 15.9 C 111.8 13.7 110.8 11 108.2 11 Z M 116.1 16.8 C 116.1 12.6 118.3 9.2 122 9.2 C 125.8 9.2 127.7 12.6 127.7 16.8 C 127.7 16.82 127.7 17.5 127.7 17.5 C 127.7 17.5 118.31 17.48 118.3 17.5 C 118.4 20.4 119.9 22.6 122.5 22.6 C 123.7 22.6 125 22 125.9 20.8 C 125.9 20.8 127.1 22.1 127.1 22.1 C 125.9 23.5 124.3 24.4 122.3 24.4 C 118.4 24.4 116.1 21.2 116.1 16.8 Z M 121.9 11 C 119.4 11 118.4 13.8 118.3 15.9 C 118.3 15.9 125.6 15.9 125.6 15.9 C 125.5 13.7 124.6 11 121.9 11 Z M 136.3 21.1 C 136.3 21.1 137.9 19.7 137.9 19.7 C 138.8 21.3 140.2 22.3 142.1 22.3 C 144.3 22.3 145.7 20.2 145.7 17.9 C 145.7 15.1 144.3 13.5 142.3 13.5 C 140.8 13.5 139.7 14 138.6 15.4 C 138.62 15.35 136.9 14.8 136.9 14.8 L 136.9 4 L 147.1 4 L 147.1 6.1 L 139.2 6.1 C 139.2 6.1 139.22 13.13 139.2 13.1 C 140 12.2 141.3 11.4 142.9 11.4 C 145.8 11.4 148.1 13.7 148.1 17.8 C 148.1 21.6 145.6 24.4 142.2 24.4 C 139.2 24.4 137.5 23.1 136.3 21.1 Z M 156.6 16.8 C 156.6 12.5 158.8 9.2 162.6 9.2 C 164.6 9.2 165.8 10 166.7 11.1 C 166.7 11.1 165.5 12.6 165.5 12.6 C 164.8 11.5 163.9 11.1 162.7 11.1 C 160.2 11.1 158.8 13.7 158.8 16.8 C 158.8 19.9 160.2 22.5 162.7 22.5 C 163.9 22.5 164.8 22 165.5 21 C 165.5 21 166.7 22.5 166.7 22.5 C 165.8 23.6 164.6 24.4 162.6 24.4 C 158.8 24.4 156.6 21.1 156.6 16.8 Z M 168.4 16.8 C 168.4 12.6 170.7 9.2 174.3 9.2 C 178.1 9.2 180.1 12.6 180.1 16.8 C 180.05 16.82 180.1 17.5 180.1 17.5 C 180.1 17.5 170.66 17.48 170.7 17.5 C 170.8 20.4 172.3 22.6 174.8 22.6 C 176.1 22.6 177.4 22 178.3 20.8 C 178.3 20.8 179.4 22.1 179.4 22.1 C 178.3 23.5 176.6 24.4 174.7 24.4 C 170.8 24.4 168.4 21.2 168.4 16.8 Z M 174.3 11 C 171.7 11 170.7 13.8 170.7 15.9 C 170.7 15.9 177.9 15.9 177.9 15.9 C 177.9 13.7 176.9 11 174.3 11 Z M 190.7 24 C 190.7 24 190.73 13.7 190.7 13.7 C 190.7 11.8 189.9 11.1 188.4 11.1 C 187 11.1 185.7 12.2 185 13.4 C 185.03 13.4 185 24 185 24 L 182.9 24 L 182.9 9.5 L 185 9.5 C 185 9.5 185.03 11.6 185 11.6 C 185.9 10.3 187.5 9.2 189.2 9.2 C 191.7 9.2 192.9 10.5 192.9 13.1 C 192.89 13.1 192.9 24 192.9 24 L 190.7 24 Z M 197 21.1 C 196.97 21.11 197 11.4 197 11.4 L 195.1 11.4 L 195.1 9.5 L 197 9.5 L 197 5.6 L 199.1 5.6 L 199.1 9.5 L 201.6 9.5 L 201.6 11.4 L 199.1 11.4 C 199.1 11.4 199.13 20.72 199.1 20.7 C 199.1 21.8 199.5 22.5 200.3 22.5 C 200.8 22.5 201.3 22.2 201.6 21.9 C 201.6 21.9 202.2 23.5 202.2 23.5 C 201.7 24 201 24.4 199.9 24.4 C 197.9 24.4 197 23.3 197 21.1 Z M 203.7 6 C 203.7 5.2 204.4 4.5 205.2 4.5 C 206 4.5 206.7 5.2 206.7 6 C 206.7 6.8 206 7.4 205.2 7.4 C 204.4 7.4 203.7 6.8 203.7 6 Z M 204.1 24 L 204.1 9.5 L 206.3 9.5 L 206.3 24 L 204.1 24 Z M 224.6 24 C 224.6 24 224.57 13.52 224.6 13.5 C 224.6 12 223.9 11.1 222.6 11.1 C 221.3 11.1 220 12.2 219.4 13.4 C 219.41 13.4 219.4 24 219.4 24 L 217.3 24 C 217.3 24 217.25 13.52 217.3 13.5 C 217.3 12 216.6 11.1 215.2 11.1 C 213.9 11.1 212.7 12.2 212.1 13.4 C 212.06 13.4 212.1 24 212.1 24 L 209.9 24 L 209.9 9.5 L 212.1 9.5 C 212.1 9.5 212.06 11.6 212.1 11.6 C 212.7 10.5 214.3 9.2 216 9.2 C 217.9 9.2 219 10.2 219.3 11.8 C 220 10.4 221.6 9.2 223.4 9.2 C 225.5 9.2 226.7 10.3 226.7 13 C 226.73 12.95 226.7 24 226.7 24 L 224.6 24 Z M 229.7 16.8 C 229.7 12.6 231.9 9.2 235.6 9.2 C 239.4 9.2 241.3 12.6 241.3 16.8 C 241.28 16.82 241.3 17.5 241.3 17.5 C 241.3 17.5 231.89 17.48 231.9 17.5 C 232 20.4 233.5 22.6 236.1 22.6 C 237.3 22.6 238.6 22 239.5 20.8 C 239.5 20.8 240.7 22.1 240.7 22.1 C 239.5 23.5 237.8 24.4 235.9 24.4 C 232 24.4 229.7 21.2 229.7 16.8 Z M 235.5 11 C 233 11 232 13.8 231.9 15.9 C 231.9 15.9 239.2 15.9 239.2 15.9 C 239.1 13.7 238.2 11 235.5 11 Z M 244.6 21.1 C 244.55 21.11 244.6 11.4 244.6 11.4 L 242.6 11.4 L 242.6 9.5 L 244.6 9.5 L 244.6 5.6 L 246.7 5.6 L 246.7 9.5 L 249.2 9.5 L 249.2 11.4 L 246.7 11.4 C 246.7 11.4 246.71 20.72 246.7 20.7 C 246.7 21.8 247 22.5 247.9 22.5 C 248.4 22.5 248.9 22.2 249.1 21.9 C 249.1 21.9 249.8 23.5 249.8 23.5 C 249.3 24 248.6 24.4 247.5 24.4 C 245.5 24.4 244.6 23.3 244.6 21.1 Z M 251.7 24 L 251.7 9.5 L 253.9 9.5 C 253.9 9.5 253.85 11.84 253.9 11.8 C 254.8 10.3 256.2 9.2 258 9.2 C 258 9.2 258 11.5 258 11.5 C 257.7 11.4 257.5 11.4 257.2 11.4 C 255.9 11.4 254.5 12.5 253.9 13.7 C 253.85 13.73 253.9 24 253.9 24 L 251.7 24 Z M 259.4 16.8 C 259.4 12.6 261.7 9.2 265.3 9.2 C 269.1 9.2 271 12.6 271 16.8 C 271.04 16.82 271 17.5 271 17.5 C 271 17.5 261.65 17.48 261.7 17.5 C 261.7 20.4 263.2 22.6 265.8 22.6 C 267.1 22.6 268.4 22 269.3 20.8 C 269.3 20.8 270.4 22.1 270.4 22.1 C 269.2 23.5 267.6 24.4 265.6 24.4 C 261.8 24.4 259.4 21.2 259.4 16.8 Z M 265.3 11 C 262.7 11 261.7 13.8 261.7 15.9 C 261.7 15.9 268.9 15.9 268.9 15.9 C 268.9 13.7 267.9 11 265.3 11 Z M 278.9 22.3 C 278.9 22.3 279.9 20.8 279.9 20.8 C 280.8 21.8 282.2 22.6 283.7 22.6 C 285.4 22.6 286.5 21.7 286.5 20.3 C 286.5 16.9 279.3 18.1 279.3 13.1 C 279.3 10.9 281 9.2 283.9 9.2 C 285.8 9.2 287.3 9.9 288.3 11 C 288.3 11 287.3 12.5 287.3 12.5 C 286.6 11.5 285.3 10.9 283.9 10.9 C 282.3 10.9 281.4 11.8 281.4 13 C 281.4 16.1 288.6 15 288.6 20.2 C 288.6 22.6 286.7 24.4 283.8 24.4 C 281.7 24.4 280.1 23.7 278.9 22.3 Z M 290.6 16.8 C 290.6 12.6 292.8 9.2 296.5 9.2 C 300.3 9.2 302.2 12.6 302.2 16.8 C 302.24 16.82 302.2 17.5 302.2 17.5 C 302.2 17.5 292.85 17.48 292.8 17.5 C 292.9 20.4 294.4 22.6 297 22.6 C 298.3 22.6 299.6 22 300.5 20.8 C 300.5 20.8 301.6 22.1 301.6 22.1 C 300.4 23.5 298.8 24.4 296.8 24.4 C 293 24.4 290.6 21.2 290.6 16.8 Z M 296.5 11 C 293.9 11 292.9 13.8 292.8 15.9 C 292.8 15.9 300.1 15.9 300.1 15.9 C 300.1 13.7 299.1 11 296.5 11 Z M 305 28.1 C 305 28.1 306 26.4 306 26.4 C 306.9 27.5 308.1 28.1 309.7 28.1 C 311.7 28.1 313.4 26.9 313.4 24.1 C 313.4 24.1 313.4 21.7 313.4 21.7 C 312.5 23.2 311.1 24.2 309.6 24.2 C 306.3 24.2 304.4 21.3 304.4 16.7 C 304.4 12.2 306.3 9.2 309.6 9.2 C 311 9.2 312.5 10 313.4 11.6 C 313.37 11.63 313.4 9.5 313.4 9.5 L 315.5 9.5 C 315.5 9.5 315.53 23.99 315.5 24 C 315.5 28.5 312.8 29.9 309.8 29.9 C 307.8 29.9 306.3 29.5 305 28.1 Z M 313.4 19.9 C 313.4 19.9 313.4 13.5 313.4 13.5 C 312.8 12.2 311.5 11.1 310.1 11.1 C 307.7 11.1 306.6 13.6 306.6 16.7 C 306.6 19.8 307.7 22.3 310.1 22.3 C 311.5 22.3 312.8 21.1 313.4 19.9 Z M 333.8 24 C 333.8 24 333.8 13.52 333.8 13.5 C 333.8 12 333.2 11.1 331.8 11.1 C 330.5 11.1 329.2 12.2 328.6 13.4 C 328.64 13.4 328.6 24 328.6 24 L 326.5 24 C 326.5 24 326.48 13.52 326.5 13.5 C 326.5 12 325.8 11.1 324.4 11.1 C 323.1 11.1 321.9 12.2 321.3 13.4 C 321.29 13.4 321.3 24 321.3 24 L 319.2 24 L 319.2 9.5 L 321.3 9.5 C 321.3 9.5 321.29 11.6 321.3 11.6 C 321.9 10.5 323.5 9.2 325.2 9.2 C 327.1 9.2 328.2 10.2 328.5 11.8 C 329.2 10.4 330.9 9.2 332.6 9.2 C 334.7 9.2 336 10.3 336 13 C 335.96 12.95 336 24 336 24 L 333.8 24 Z M 338.9 16.8 C 338.9 12.6 341.1 9.2 344.8 9.2 C 348.6 9.2 350.5 12.6 350.5 16.8 C 350.51 16.82 350.5 17.5 350.5 17.5 C 350.5 17.5 341.12 17.48 341.1 17.5 C 341.2 20.4 342.7 22.6 345.3 22.6 C 346.5 22.6 347.8 22 348.7 20.8 C 348.7 20.8 349.9 22.1 349.9 22.1 C 348.7 23.5 347.1 24.4 345.1 24.4 C 341.2 24.4 338.9 21.2 338.9 16.8 Z M 344.7 11 C 342.2 11 341.2 13.8 341.1 15.9 C 341.1 15.9 348.4 15.9 348.4 15.9 C 348.3 13.7 347.4 11 344.7 11 Z M 361.2 24 C 361.2 24 361.19 13.7 361.2 13.7 C 361.2 11.8 360.3 11.1 358.9 11.1 C 357.5 11.1 356.1 12.2 355.5 13.4 C 355.49 13.4 355.5 24 355.5 24 L 353.4 24 L 353.4 9.5 L 355.5 9.5 C 355.5 9.5 355.49 11.6 355.5 11.6 C 356.3 10.3 357.9 9.2 359.7 9.2 C 362.1 9.2 363.3 10.5 363.3 13.1 C 363.35 13.1 363.3 24 363.3 24 L 361.2 24 Z M 367.4 21.1 C 367.43 21.11 367.4 11.4 367.4 11.4 L 365.5 11.4 L 365.5 9.5 L 367.4 9.5 L 367.4 5.6 L 369.6 5.6 L 369.6 9.5 L 372 9.5 L 372 11.4 L 369.6 11.4 C 369.6 11.4 369.59 20.72 369.6 20.7 C 369.6 21.8 369.9 22.5 370.8 22.5 C 371.3 22.5 371.7 22.2 372 21.9 C 372 21.9 372.7 23.5 372.7 23.5 C 372.2 24 371.4 24.4 370.3 24.4 C 368.4 24.4 367.4 23.3 367.4 21.1 Z M 373.4 22.3 C 373.4 22.3 374.5 20.8 374.5 20.8 C 375.3 21.8 376.7 22.6 378.3 22.6 C 380 22.6 381.1 21.7 381.1 20.3 C 381.1 16.9 373.8 18.1 373.8 13.1 C 373.8 10.9 375.6 9.2 378.5 9.2 C 380.4 9.2 381.9 9.9 382.9 11 C 382.9 11 381.9 12.5 381.9 12.5 C 381.1 11.5 379.9 10.9 378.5 10.9 C 376.9 10.9 375.9 11.8 375.9 13 C 375.9 16.1 383.1 15 383.1 20.2 C 383.1 22.6 381.3 24.4 378.3 24.4 C 376.3 24.4 374.6 23.7 373.4 22.3 Z M 391.3 16.8 C 391.3 12.7 393.4 9.2 397.2 9.2 C 401.1 9.2 403.1 12.7 403.1 16.8 C 403.1 20.8 401.1 24.4 397.2 24.4 C 393.4 24.4 391.3 20.8 391.3 16.8 Z M 400.9 16.8 C 400.9 13.9 399.8 11.1 397.2 11.1 C 394.7 11.1 393.6 13.9 393.6 16.8 C 393.6 19.7 394.7 22.5 397.2 22.5 C 399.8 22.5 400.9 19.7 400.9 16.8 Z M 406.6 24 L 406.6 11.4 L 404.7 11.4 L 404.7 9.5 L 406.6 9.5 C 406.6 9.5 406.58 7.76 406.6 7.8 C 406.6 5.2 408 3.7 410.2 3.7 C 411.2 3.7 412.1 4 412.8 4.7 C 412.8 4.7 411.9 6.2 411.9 6.2 C 411.6 5.8 411.1 5.5 410.5 5.5 C 409.3 5.5 408.7 6.4 408.7 7.8 C 408.74 7.76 408.7 9.5 408.7 9.5 L 411.2 9.5 L 411.2 11.4 L 408.7 11.4 L 408.7 24 L 406.6 24 Z M 427.4 24 C 427.4 24 427.4 13.67 427.4 13.7 C 427.4 11.8 426.5 11.1 425.1 11.1 C 423.6 11.1 422.3 12.2 421.7 13.4 C 421.67 13.4 421.7 24 421.7 24 L 419.5 24 L 419.5 4 L 421.7 4 C 421.7 4 421.67 11.6 421.7 11.6 C 422.5 10.3 424.2 9.2 425.9 9.2 C 428.4 9.2 429.5 10.4 429.5 13 C 429.53 13.04 429.5 24 429.5 24 L 427.4 24 Z M 432.5 16.8 C 432.5 12.7 434.5 9.2 438.3 9.2 C 442.2 9.2 444.3 12.7 444.3 16.8 C 444.3 20.8 442.2 24.4 438.3 24.4 C 434.5 24.4 432.5 20.8 432.5 16.8 Z M 442 16.8 C 442 13.9 440.9 11.1 438.3 11.1 C 435.9 11.1 434.7 13.9 434.7 16.8 C 434.7 19.7 435.9 22.5 438.3 22.5 C 440.9 22.5 442 19.7 442 16.8 Z M 447.6 21.1 C 447.62 21.11 447.6 11.4 447.6 11.4 L 445.7 11.4 L 445.7 9.5 L 447.6 9.5 L 447.6 5.6 L 449.8 5.6 L 449.8 9.5 L 452.2 9.5 L 452.2 11.4 L 449.8 11.4 C 449.8 11.4 449.78 20.72 449.8 20.7 C 449.8 21.8 450.1 22.5 450.9 22.5 C 451.5 22.5 451.9 22.2 452.2 21.9 C 452.2 21.9 452.9 23.5 452.9 23.5 C 452.4 24 451.6 24.4 450.5 24.4 C 448.5 24.4 447.6 23.3 447.6 21.1 Z M 475.6 24 C 475.6 24 475.58 13.52 475.6 13.5 C 475.6 12 474.9 11.1 473.6 11.1 C 472.3 11.1 471 12.2 470.4 13.4 C 470.42 13.4 470.4 24 470.4 24 L 468.3 24 C 468.3 24 468.26 13.52 468.3 13.5 C 468.3 12 467.6 11.1 466.2 11.1 C 464.9 11.1 463.7 12.2 463.1 13.4 C 463.07 13.4 463.1 24 463.1 24 L 460.9 24 L 460.9 9.5 L 463.1 9.5 C 463.1 9.5 463.07 11.6 463.1 11.6 C 463.7 10.5 465.3 9.2 467 9.2 C 468.9 9.2 470 10.2 470.3 11.8 C 471 10.4 472.6 9.2 474.4 9.2 C 476.5 9.2 477.7 10.3 477.7 13 C 477.74 12.95 477.7 24 477.7 24 L 475.6 24 Z M 480.7 16.8 C 480.7 12.6 482.9 9.2 486.6 9.2 C 490.4 9.2 492.3 12.6 492.3 16.8 C 492.29 16.82 492.3 17.5 492.3 17.5 C 492.3 17.5 482.9 17.48 482.9 17.5 C 483 20.4 484.5 22.6 487.1 22.6 C 488.3 22.6 489.6 22 490.5 20.8 C 490.5 20.8 491.7 22.1 491.7 22.1 C 490.5 23.5 488.8 24.4 486.9 24.4 C 483 24.4 480.7 21.2 480.7 16.8 Z M 486.5 11 C 484 11 483 13.8 482.9 15.9 C 482.9 15.9 490.2 15.9 490.2 15.9 C 490.1 13.7 489.2 11 486.5 11 Z M 495.1 24 L 495.1 4 L 497.3 4 L 497.3 24 L 495.1 24 Z M 501.3 21.1 C 501.34 21.11 501.3 11.4 501.3 11.4 L 499.4 11.4 L 499.4 9.5 L 501.3 9.5 L 501.3 5.6 L 503.5 5.6 L 503.5 9.5 L 506 9.5 L 506 11.4 L 503.5 11.4 C 503.5 11.4 503.5 20.72 503.5 20.7 C 503.5 21.8 503.8 22.5 504.7 22.5 C 505.2 22.5 505.7 22.2 505.9 21.9 C 505.9 21.9 506.6 23.5 506.6 23.5 C 506.1 24 505.4 24.4 504.3 24.4 C 502.3 24.4 501.3 23.3 501.3 21.1 Z M 514.5 28.1 C 514.5 28.1 515.5 26.4 515.5 26.4 C 516.5 27.5 517.7 28.1 519.3 28.1 C 521.3 28.1 522.9 26.9 522.9 24.1 C 522.9 24.1 522.9 21.7 522.9 21.7 C 522.1 23.2 520.7 24.2 519.1 24.2 C 515.9 24.2 513.9 21.3 513.9 16.7 C 513.9 12.2 515.9 9.2 519.1 9.2 C 520.6 9.2 522 10 522.9 11.6 C 522.94 11.63 522.9 9.5 522.9 9.5 L 525.1 9.5 C 525.1 9.5 525.1 23.99 525.1 24 C 525.1 28.5 522.4 29.9 519.4 29.9 C 517.4 29.9 515.9 29.5 514.5 28.1 Z M 522.9 19.9 C 522.9 19.9 522.9 13.5 522.9 13.5 C 522.4 12.2 521.1 11.1 519.7 11.1 C 517.3 11.1 516.2 13.6 516.2 16.7 C 516.2 19.8 517.3 22.3 519.7 22.3 C 521.1 22.3 522.4 21.1 522.9 19.9 Z M 528.7 24 L 528.7 4 L 530.9 4 L 530.9 24 L 528.7 24 Z M 542.4 24 C 542.4 24 542.35 22.01 542.4 22 C 541.5 23.3 540 24.4 538.2 24.4 C 535.7 24.4 534.5 23.2 534.5 20.5 C 534.52 20.51 534.5 9.5 534.5 9.5 L 536.7 9.5 C 536.7 9.5 536.65 19.88 536.7 19.9 C 536.7 21.8 537.6 22.5 539 22.5 C 540.4 22.5 541.7 21.4 542.4 20.2 C 542.35 20.21 542.4 9.5 542.4 9.5 L 544.5 9.5 L 544.5 24 L 542.4 24 Z M 547.5 16.8 C 547.5 12.6 549.7 9.2 553.3 9.2 C 557.1 9.2 559.1 12.6 559.1 16.8 C 559.06 16.82 559.1 17.5 559.1 17.5 C 559.1 17.5 549.67 17.48 549.7 17.5 C 549.8 20.4 551.3 22.6 553.8 22.6 C 555.1 22.6 556.4 22 557.3 20.8 C 557.3 20.8 558.4 22.1 558.4 22.1 C 557.3 23.5 555.6 24.4 553.7 24.4 C 549.8 24.4 547.5 21.2 547.5 16.8 Z M 553.3 11 C 550.8 11 549.7 13.8 549.7 15.9 C 549.7 15.9 556.9 15.9 556.9 15.9 C 556.9 13.7 555.9 11 553.3 11 Z M 566.9 22.3 C 566.9 22.3 568 20.8 568 20.8 C 568.8 21.8 570.2 22.6 571.8 22.6 C 573.4 22.6 574.5 21.7 574.5 20.3 C 574.5 16.9 567.3 18.1 567.3 13.1 C 567.3 10.9 569.1 9.2 571.9 9.2 C 573.9 9.2 575.3 9.9 576.3 11 C 576.3 11 575.3 12.5 575.3 12.5 C 574.6 11.5 573.4 10.9 572 10.9 C 570.4 10.9 569.4 11.8 569.4 13 C 569.4 16.1 576.6 15 576.6 20.2 C 576.6 22.6 574.8 24.4 571.8 24.4 C 569.7 24.4 568.1 23.7 566.9 22.3 Z M 579.8 21.1 C 579.79 21.11 579.8 11.4 579.8 11.4 L 577.9 11.4 L 577.9 9.5 L 579.8 9.5 L 579.8 5.6 L 582 5.6 L 582 9.5 L 584.4 9.5 L 584.4 11.4 L 582 11.4 C 582 11.4 581.95 20.72 582 20.7 C 582 21.8 582.3 22.5 583.1 22.5 C 583.7 22.5 584.1 22.2 584.4 21.9 C 584.4 21.9 585 23.5 585 23.5 C 584.5 24 583.8 24.4 582.7 24.4 C 580.7 24.4 579.8 23.3 579.8 21.1 Z M 586.5 6 C 586.5 5.2 587.2 4.5 588 4.5 C 588.8 4.5 589.5 5.2 589.5 6 C 589.5 6.8 588.8 7.4 588 7.4 C 587.2 7.4 586.5 6.8 586.5 6 Z M 587 24 L 587 9.5 L 589.1 9.5 L 589.1 24 L 587 24 Z M 592 16.8 C 592 12.5 594.3 9.2 598 9.2 C 600 9.2 601.3 10 602.2 11.1 C 602.2 11.1 601 12.6 601 12.6 C 600.2 11.5 599.3 11.1 598.2 11.1 C 595.6 11.1 594.3 13.7 594.3 16.8 C 594.3 19.9 595.6 22.5 598.2 22.5 C 599.3 22.5 600.2 22 601 21 C 601 21 602.2 22.5 602.2 22.5 C 601.3 23.6 600 24.4 598 24.4 C 594.3 24.4 592 21.1 592 16.8 Z M 612.8 24 L 608.8 17.5 L 606.8 20.1 L 606.8 24 L 604.6 24 L 604.6 4 L 606.8 4 L 606.8 17.4 L 612.8 9.5 L 615.3 9.5 L 610.3 16 L 615.3 24 L 612.8 24 Z M 617.3 22.7 C 617.3 21.9 618 21.1 618.9 21.1 C 619.8 21.1 620.5 21.9 620.5 22.7 C 620.5 23.6 619.8 24.3 618.9 24.3 C 618 24.3 617.3 23.6 617.3 22.7 Z " stroke="none" fill="#efd8d3"/>  </g></svg>