<?xml version="1.0" standalone="no"?><!DOCTYPE svg PUBLIC "-//W3C//DTD SVG 1.1//EN" "http://www.w3.org/Graphics/SVG/1.1/DTD/svg11.dtd"><svg xmlns="http://www.w3.org/2000/svg" version="1.1" width="212px" height="43.1px" viewBox="0 0 212 43.1">  <desc>INGREDIENTS</desc>  <defs/>  <g id="Polygon137351">    <path d="M 3.8 23.7 L 3.8 3.7 L 7.8 3.7 L 7.8 23.7 L 3.8 23.7 Z M 22.1 23.7 L 15.3 11.9 L 15.3 23.7 L 11.3 23.7 L 11.3 3.7 L 15.4 3.7 L 21.9 15.1 L 21.9 3.7 L 26 3.7 L 26 23.7 L 22.1 23.7 Z M 28.7 13.7 C 28.7 7.5 32.1 3.4 37.1 3.4 C 40.6 3.4 42.7 5.5 43.8 7.9 C 43.8 7.9 40.5 9.5 40.5 9.5 C 39.9 8.1 38.8 6.9 37.1 6.9 C 34.6 6.9 32.8 9.4 32.8 13.7 C 32.8 18 34.6 20.5 37.1 20.5 C 38.5 20.5 39.6 20 40.2 19.3 C 40.18 19.29 40.2 16.3 40.2 16.3 L 36.4 16.3 L 36.4 12.7 L 44 12.7 C 44 12.7 43.98 20.88 44 20.9 C 42.3 22.9 40.1 24.1 37.1 24.1 C 32.1 24.1 28.7 19.9 28.7 13.7 Z M 56.3 23.7 L 53.3 16.5 L 51.1 16.5 L 51.1 23.7 L 47.1 23.7 L 47.1 3.7 C 47.1 3.7 54.54 3.69 54.5 3.7 C 58.2 3.7 60.6 6.3 60.6 10 C 60.6 13.5 58.8 15.2 57.2 15.7 C 57.16 15.75 60.8 23.7 60.8 23.7 L 56.3 23.7 Z M 56.5 10.1 C 56.5 8.3 55.5 7.2 53.9 7.2 C 53.94 7.23 51.1 7.2 51.1 7.2 L 51.1 12.9 C 51.1 12.9 53.94 12.93 53.9 12.9 C 55.5 12.9 56.5 11.8 56.5 10.1 Z M 63.6 23.7 L 63.6 3.7 L 75.1 3.7 L 75.1 7.2 L 67.6 7.2 L 67.6 11.8 L 74.9 11.8 L 74.9 15.3 L 67.6 15.3 L 67.6 20.2 L 75.1 20.2 L 75.1 23.7 L 63.6 23.7 Z M 78 23.7 L 78 3.7 C 78 3.7 84.48 3.69 84.5 3.7 C 90 3.7 93.2 7.8 93.2 13.7 C 93.2 19.6 90 23.7 84.5 23.7 C 84.48 23.7 78 23.7 78 23.7 Z M 89.1 13.7 C 89.1 9.7 87.5 7.2 84.5 7.2 C 84.48 7.23 82.1 7.2 82.1 7.2 L 82.1 20.2 C 82.1 20.2 84.48 20.16 84.5 20.2 C 87.5 20.2 89.1 17.5 89.1 13.7 Z M 95.9 23.7 L 95.9 3.7 L 100 3.7 L 100 23.7 L 95.9 23.7 Z M 103.5 23.7 L 103.5 3.7 L 115 3.7 L 115 7.2 L 107.5 7.2 L 107.5 11.8 L 114.8 11.8 L 114.8 15.3 L 107.5 15.3 L 107.5 20.2 L 115 20.2 L 115 23.7 L 103.5 23.7 Z M 128.8 23.7 L 122 11.9 L 122 23.7 L 117.9 23.7 L 117.9 3.7 L 122 3.7 L 128.6 15.1 L 128.6 3.7 L 132.6 3.7 L 132.6 23.7 L 128.8 23.7 Z M 139.4 23.7 L 139.4 7.2 L 135 7.2 L 135 3.7 L 147.9 3.7 L 147.9 7.2 L 143.5 7.2 L 143.5 23.7 L 139.4 23.7 Z M 148.8 21.5 C 148.8 21.5 150.8 18.4 150.8 18.4 C 151.9 19.6 153.7 20.5 155.6 20.5 C 157.4 20.5 158.4 19.5 158.4 18.3 C 158.4 14.8 149.4 16 149.4 9.2 C 149.4 6.1 151.9 3.4 156 3.4 C 158.5 3.4 160.6 4.1 162.1 5.6 C 162.1 5.6 160.2 8.6 160.2 8.6 C 159 7.4 157.4 6.9 155.9 6.9 C 154.4 6.9 153.5 7.7 153.5 8.9 C 153.5 12.1 162.5 11.2 162.5 18 C 162.5 21.5 160.1 24.1 155.7 24.1 C 152.6 24.1 150.4 23.1 148.8 21.5 Z " stroke="none" fill="#d3d2d2"/>  </g></svg>