<?xml version="1.0" standalone="no"?><!DOCTYPE svg PUBLIC "-//W3C//DTD SVG 1.1//EN" "http://www.w3.org/Graphics/SVG/1.1/DTD/svg11.dtd"><svg xmlns="http://www.w3.org/2000/svg" version="1.1" width="651px" height="85.6px" viewBox="0 0 651 85.6">  <desc>Putty Balls</desc>  <defs/>  <g id="Polygon164142">    <path d="M 3.1 47.4 L 3.1 7.4 C 3.1 7.4 13.92 7.38 13.9 7.4 C 21.7 7.4 25.2 13.3 25.2 20 C 25.2 26.8 21.7 32.7 13.9 32.7 C 13.92 32.7 10.7 32.7 10.7 32.7 L 10.7 47.4 L 3.1 47.4 Z M 17.5 20 C 17.5 16.4 16 14 13.1 14 C 13.14 14.04 10.7 14 10.7 14 L 10.7 26 C 10.7 26 13.14 26.04 13.1 26 C 16 26 17.5 23.6 17.5 20 Z M 42.1 47.4 C 42.1 47.4 42.12 43.74 42.1 43.7 C 41 46.1 38.2 48.1 35.3 48.1 C 31 48.1 29.2 45.7 29.2 41.6 C 29.22 41.58 29.2 18.4 29.2 18.4 L 36 18.4 C 36 18.4 36 39.18 36 39.2 C 36 41.2 36.7 42.1 38.2 42.1 C 40 42.1 41.5 40.3 42.1 38.5 C 42.12 38.46 42.1 18.4 42.1 18.4 L 49 18.4 L 49 47.4 L 42.1 47.4 Z M 55.3 40.7 C 55.32 40.74 55.3 24.3 55.3 24.3 L 52.6 24.3 L 52.6 18.4 L 55.3 18.4 L 55.3 10.5 L 62.1 10.5 L 62.1 18.4 L 65.8 18.4 L 65.8 24.3 L 62.1 24.3 C 62.1 24.3 62.1 39.42 62.1 39.4 C 62.1 41.2 62.5 42.1 63.7 42.1 C 64.4 42.1 65 41.8 65.3 41.3 C 65.3 41.3 66.7 46.6 66.7 46.6 C 65.7 47.5 64.1 48.1 62 48.1 C 57.2 48.1 55.3 45.7 55.3 40.7 Z M 70.8 40.7 C 70.8 40.74 70.8 24.3 70.8 24.3 L 68.1 24.3 L 68.1 18.4 L 70.8 18.4 L 70.8 10.5 L 77.6 10.5 L 77.6 18.4 L 81.2 18.4 L 81.2 24.3 L 77.6 24.3 C 77.6 24.3 77.58 39.42 77.6 39.4 C 77.6 41.2 78 42.1 79.2 42.1 C 79.9 42.1 80.5 41.8 80.8 41.3 C 80.8 41.3 82.2 46.6 82.2 46.6 C 81.2 47.5 79.6 48.1 77.5 48.1 C 72.7 48.1 70.8 45.7 70.8 40.7 Z M 86 52.9 C 86.4 53 87 53.2 87.4 53.2 C 88.6 53.2 89.3 52.6 89.8 51.1 C 89.76 51.12 90.6 48.1 90.6 48.1 L 82.7 18.4 L 89.9 18.4 L 94 38.8 L 98.2 18.4 L 105.4 18.4 C 105.4 18.4 96.24 52.5 96.2 52.5 C 94.8 57.8 92.5 59.2 88.3 59.2 C 87.3 59.2 85.7 59 85 58.7 C 85 58.7 86 52.9 86 52.9 Z M 118.3 47.4 L 118.3 7.4 C 118.3 7.4 130.38 7.38 130.4 7.4 C 137 7.4 140 12.1 140 17.6 C 140 22.6 137.6 25.7 134.1 26.8 C 137.9 27.4 140.5 31.7 140.5 36.6 C 140.5 42.7 137.7 47.4 130.8 47.4 C 130.8 47.4 118.3 47.4 118.3 47.4 Z M 132.2 18.9 C 132.2 16 131.2 14 128.4 14 C 128.4 14.04 125.9 14 125.9 14 L 125.9 23.7 C 125.9 23.7 128.4 23.7 128.4 23.7 C 131.2 23.7 132.2 21.8 132.2 18.9 Z M 132.8 35.5 C 132.8 32.6 131.5 30.4 128.6 30.4 C 128.64 30.36 125.9 30.4 125.9 30.4 L 125.9 40.7 C 125.9 40.7 128.64 40.74 128.6 40.7 C 131.5 40.7 132.8 38.9 132.8 35.5 Z M 157.7 47.4 C 157.7 47.4 157.68 44.64 157.7 44.6 C 156.4 46.9 153.7 48.1 151.6 48.1 C 147.1 48.1 143.8 44.4 143.8 38.5 C 143.8 32.6 147.1 29 151.6 29 C 153.7 29 156.5 30.1 157.7 32.3 C 157.7 32.3 157.7 28.7 157.7 28.7 C 157.7 25.4 156.4 23.5 153.3 23.5 C 151.4 23.5 149.3 24.4 147.4 26.3 C 147.4 26.3 144.9 21.5 144.9 21.5 C 147.5 18.7 151.7 17.7 154.7 17.7 C 160.6 17.7 164.5 20.7 164.5 27.2 C 164.46 27.18 164.5 47.4 164.5 47.4 L 157.7 47.4 Z M 157.7 40.6 C 157.7 40.6 157.7 36.7 157.7 36.7 C 157 34.9 155.5 33.7 154 33.7 C 151.7 33.7 150.5 35.8 150.5 38.6 C 150.5 41.3 151.7 43.6 154 43.6 C 155.5 43.6 157 42.4 157.7 40.6 Z M 170 47.4 L 170 7.4 L 176.8 7.4 L 176.8 47.4 L 170 47.4 Z M 182.2 47.4 L 182.2 7.4 L 189 7.4 L 189 47.4 L 182.2 47.4 Z M 192.4 44.3 C 192.4 44.3 195.2 39.7 195.2 39.7 C 196.8 41.4 199 42.8 201.2 42.8 C 203.4 42.8 204.9 41.6 204.9 39.7 C 204.9 34.9 193.4 36 193.4 25.9 C 193.4 21.5 196.7 17.7 202.7 17.7 C 206 17.7 209 19 211.2 21.1 C 211.2 21.1 208.4 25.7 208.4 25.7 C 207.3 24.3 205.2 23 202.9 23 C 201 23 199.7 24.2 199.7 25.7 C 199.7 30.1 211.3 29.3 211.3 39.5 C 211.3 44.6 207.4 48.1 201.8 48.1 C 197.5 48.1 194.3 46.6 192.4 44.3 Z " stroke="none" fill="#b13d24"/>  </g></svg>