<?xml version="1.0" standalone="no"?><!DOCTYPE svg PUBLIC "-//W3C//DTD SVG 1.1//EN" "http://www.w3.org/Graphics/SVG/1.1/DTD/svg11.dtd"><svg xmlns="http://www.w3.org/2000/svg" version="1.1" width="274px" height="439px" viewBox="0 0 274 439">  <desc>Paper pulp Extruded polystyrene Bar Soap Clear Glue White Sand Cable insulation Toothbrush handle Artificial food dye</desc>  <defs/>  <g id="Polygon149503">    <path d="M 4.3 353.4 C 2.9 353.4 1.8 352.3 1.8 350.9 C 1.8 349.5 2.9 348.3 4.3 348.3 C 5.7 348.3 6.9 349.5 6.9 350.9 C 6.9 352.3 5.7 353.4 4.3 353.4 Z M 22.2 356.7 L 19.2 350.3 L 16.9 350.3 L 16.9 356.7 L 15 356.7 L 15 340.7 C 15 340.7 19.85 340.69 19.8 340.7 C 22.4 340.7 24.2 342.5 24.2 345.5 C 24.2 348.3 22.6 349.7 21 350 C 21.05 350 24.4 356.7 24.4 356.7 L 22.2 356.7 Z M 22.3 345.5 C 22.3 343.7 21.3 342.4 19.6 342.4 C 19.63 342.37 16.9 342.4 16.9 342.4 L 16.9 348.6 C 16.9 348.6 19.63 348.61 19.6 348.6 C 21.3 348.6 22.3 347.3 22.3 345.5 Z M 25.7 350.9 C 25.7 347.5 27.4 344.8 30.4 344.8 C 33.4 344.8 34.9 347.6 34.9 350.9 C 34.94 350.94 34.9 351.5 34.9 351.5 C 34.9 351.5 27.43 351.47 27.4 351.5 C 27.5 353.8 28.7 355.5 30.8 355.5 C 31.8 355.5 32.8 355 33.5 354.1 C 33.5 354.1 34.4 355.1 34.4 355.1 C 33.5 356.3 32.2 357 30.6 357 C 27.5 357 25.7 354.4 25.7 350.9 Z M 30.3 346.3 C 28.3 346.3 27.5 348.5 27.4 350.2 C 27.4 350.2 33.2 350.2 33.2 350.2 C 33.2 348.4 32.4 346.3 30.3 346.3 Z M 43.8 356.7 C 43.8 356.7 43.85 355.04 43.8 355 C 43.2 356.2 42 357 40.8 357 C 38.2 357 36.6 354.6 36.6 350.9 C 36.6 347.3 38.2 344.8 40.8 344.8 C 42 344.8 43.2 345.5 43.8 346.8 C 43.85 346.79 43.8 340.7 43.8 340.7 L 45.6 340.7 L 45.6 356.7 L 43.8 356.7 Z M 43.8 353.6 C 43.8 353.6 43.8 348.3 43.8 348.3 C 43.4 347.2 42.3 346.4 41.2 346.4 C 39.3 346.4 38.4 348.4 38.4 350.9 C 38.4 353.4 39.3 355.5 41.2 355.5 C 42.3 355.5 43.4 354.6 43.8 353.6 Z M 58.7 356.7 L 58.7 352.6 L 52.4 352.6 L 52.4 350.9 L 58.2 340.7 L 60.6 340.7 L 60.6 350.9 L 62.4 350.9 L 62.4 352.6 L 60.6 352.6 L 60.6 356.7 L 58.7 356.7 Z M 58.7 342.8 L 54.1 350.9 L 58.7 350.9 L 58.7 342.8 Z M 63.8 348.7 C 63.8 344.8 65.1 340.5 68.8 340.5 C 72.6 340.5 73.8 344.8 73.8 348.7 C 73.8 352.5 72.6 357 68.8 357 C 65.1 357 63.8 352.5 63.8 348.7 Z M 71.9 348.7 C 71.9 345.5 71.3 342.2 68.8 342.2 C 66.4 342.2 65.8 345.5 65.8 348.7 C 65.8 351.9 66.4 355.3 68.8 355.3 C 71.3 355.3 71.9 351.9 71.9 348.7 Z " stroke="none" fill="#7c7979"/>  </g>  <g id="Polygon149502">    <path d="M 4.3 317.4 C 2.9 317.4 1.8 316.3 1.8 314.9 C 1.8 313.5 2.9 312.3 4.3 312.3 C 5.7 312.3 6.9 313.5 6.9 314.9 C 6.9 316.3 5.7 317.4 4.3 317.4 Z M 18.3 320.7 L 18.3 313.9 L 13.4 304.7 L 15.5 304.7 L 19.3 312.1 L 23 304.7 L 25.2 304.7 L 20.2 313.9 L 20.2 320.7 L 18.3 320.7 Z M 23.8 314.9 C 23.8 311.5 25.6 308.8 28.5 308.8 C 31.6 308.8 33.1 311.6 33.1 314.9 C 33.1 314.94 33.1 315.5 33.1 315.5 C 33.1 315.5 25.58 315.47 25.6 315.5 C 25.7 317.8 26.9 319.5 28.9 319.5 C 29.9 319.5 31 319 31.7 318.1 C 31.7 318.1 32.6 319.1 32.6 319.1 C 31.7 320.3 30.3 321 28.8 321 C 25.7 321 23.8 318.4 23.8 314.9 Z M 28.5 310.3 C 26.4 310.3 25.6 312.5 25.6 314.2 C 25.6 314.2 31.4 314.2 31.4 314.2 C 31.4 312.4 30.6 310.3 28.5 310.3 Z M 35.4 320.7 L 35.4 304.7 L 37.1 304.7 L 37.1 320.7 L 35.4 320.7 Z M 40 320.7 L 40 304.7 L 41.7 304.7 L 41.7 320.7 L 40 320.7 Z M 44.1 314.9 C 44.1 311.6 45.7 308.8 48.8 308.8 C 51.9 308.8 53.5 311.6 53.5 314.9 C 53.5 318.2 51.9 321 48.8 321 C 45.7 321 44.1 318.2 44.1 314.9 Z M 51.7 314.9 C 51.7 312.6 50.8 310.4 48.8 310.4 C 46.8 310.4 45.9 312.6 45.9 314.9 C 45.9 317.2 46.8 319.5 48.8 319.5 C 50.8 319.5 51.7 317.2 51.7 314.9 Z M 64.4 320.7 L 61.9 311.4 L 59.4 320.7 L 57.7 320.7 L 54.6 309.1 L 56.4 309.1 L 58.6 318.4 L 61.1 309.1 L 62.7 309.1 L 65.2 318.4 L 67.5 309.1 L 69.3 309.1 L 66.2 320.7 L 64.4 320.7 Z M 75.5 318.4 C 75.5 318.4 76.8 317.2 76.8 317.2 C 77.5 318.5 78.6 319.3 80.2 319.3 C 81.9 319.3 83 317.7 83 315.8 C 83 313.5 81.9 312.3 80.3 312.3 C 79.1 312.3 78.3 312.7 77.4 313.8 C 77.37 313.76 76 313.3 76 313.3 L 76 304.7 L 84.1 304.7 L 84.1 306.4 L 77.9 306.4 C 77.9 306.4 77.85 311.99 77.9 312 C 78.5 311.2 79.5 310.6 80.8 310.6 C 83.1 310.6 85 312.4 85 315.8 C 85 318.8 83 321 80.2 321 C 77.9 321 76.5 320 75.5 318.4 Z M 100.6 320.7 C 100.2 320.2 99.8 319.7 99.4 319.1 C 98.4 320.2 97.1 321 95.6 321 C 93.4 321 91.6 319.5 91.6 316.7 C 91.6 314.2 93 312.9 94.5 311.8 C 93.9 310.6 93.4 309.3 93.4 308.3 C 93.4 306 94.8 304.5 96.7 304.5 C 98.4 304.5 99.7 305.7 99.7 307.6 C 99.7 309.9 98.1 311 96.5 312.2 C 97 313 97.5 313.8 97.9 314.4 C 98.4 315.2 98.9 315.8 99.3 316.4 C 100 315.2 100.4 313.8 100.6 312.9 C 100.6 312.9 102.1 313.5 102.1 313.5 C 101.6 314.9 101.1 316.4 100.3 317.7 C 101 318.6 101.8 319.5 102.8 320.7 C 102.8 320.7 100.6 320.7 100.6 320.7 Z M 98.4 317.9 C 97.7 317 97.1 316.1 96.7 315.5 C 96.2 314.7 95.6 314 95.2 313.1 C 94.2 314 93.4 315 93.4 316.6 C 93.4 318.5 94.6 319.5 95.8 319.5 C 96.9 319.5 97.7 318.9 98.4 317.9 Z M 95.9 310.9 C 97.1 310 98.2 309.2 98.2 307.6 C 98.2 306.4 97.5 305.8 96.8 305.8 C 95.8 305.8 95.1 306.7 95.1 308.3 C 95.1 309.1 95.4 310 95.9 310.9 Z M 112.9 320.7 L 112.9 313.9 L 108 304.7 L 110.1 304.7 L 113.9 312.1 L 117.6 304.7 L 119.8 304.7 L 114.8 313.9 L 114.8 320.7 L 112.9 320.7 Z M 118.4 314.9 C 118.4 311.5 120.2 308.8 123.1 308.8 C 126.2 308.8 127.7 311.6 127.7 314.9 C 127.7 314.94 127.7 315.5 127.7 315.5 C 127.7 315.5 120.19 315.47 120.2 315.5 C 120.3 317.8 121.5 319.5 123.5 319.5 C 124.5 319.5 125.6 319 126.3 318.1 C 126.3 318.1 127.2 319.1 127.2 319.1 C 126.3 320.3 124.9 321 123.4 321 C 120.3 321 118.4 318.4 118.4 314.9 Z M 123.1 310.3 C 121.1 310.3 120.2 312.5 120.2 314.2 C 120.2 314.2 126 314.2 126 314.2 C 126 312.4 125.2 310.3 123.1 310.3 Z M 130 320.7 L 130 304.7 L 131.7 304.7 L 131.7 320.7 L 130 320.7 Z M 134.6 320.7 L 134.6 304.7 L 136.3 304.7 L 136.3 320.7 L 134.6 320.7 Z M 138.7 314.9 C 138.7 311.6 140.3 308.8 143.4 308.8 C 146.5 308.8 148.1 311.6 148.1 314.9 C 148.1 318.2 146.5 321 143.4 321 C 140.3 321 138.7 318.2 138.7 314.9 Z M 146.3 314.9 C 146.3 312.6 145.4 310.4 143.4 310.4 C 141.4 310.4 140.5 312.6 140.5 314.9 C 140.5 317.2 141.4 319.5 143.4 319.5 C 145.4 319.5 146.3 317.2 146.3 314.9 Z M 159 320.7 L 156.5 311.4 L 154 320.7 L 152.3 320.7 L 149.2 309.1 L 151 309.1 L 153.2 318.4 L 155.7 309.1 L 157.3 309.1 L 159.8 318.4 L 162.1 309.1 L 163.9 309.1 L 160.8 320.7 L 159 320.7 Z M 170 312.7 C 170 308.4 171.5 304.5 175.4 304.5 C 177.1 304.5 178.3 305.2 179.1 306.4 C 179.1 306.4 178.1 307.8 178.1 307.8 C 177.5 306.8 176.7 306.2 175.4 306.2 C 172.9 306.2 171.9 309.5 171.9 312.5 C 171.9 312.8 171.9 312.8 171.9 313 C 172.5 311.9 173.8 310.7 175.5 310.7 C 177.8 310.7 179.7 312.4 179.7 315.8 C 179.7 318.5 178 321 175.1 321 C 171.2 321 170 317 170 312.7 Z M 177.7 315.8 C 177.7 313.3 176.5 312.3 175 312.3 C 173.6 312.3 172.6 313.5 172 314.8 C 172.1 316.6 172.7 319.3 175 319.3 C 176.9 319.3 177.7 317.5 177.7 315.8 Z " stroke="none" fill="#7c7979"/>  </g>  <g id="Polygon149501">    <path d="M 12.5 284.7 L 11.2 280.2 L 4.1 280.2 L 2.8 284.7 L 0.2 284.7 L 6.2 264.7 L 9.1 264.7 L 15.1 284.7 L 12.5 284.7 Z M 7.6 267.3 L 4.6 278.1 L 10.7 278.1 L 7.6 267.3 Z M 17 284.7 L 17 270.2 L 19.1 270.2 C 19.1 270.2 19.14 272.52 19.1 272.5 C 20.1 271 21.5 269.9 23.2 269.9 C 23.2 269.9 23.2 272.1 23.2 272.1 C 23 272.1 22.8 272 22.5 272 C 21.2 272 19.7 273.2 19.1 274.4 C 19.14 274.41 19.1 284.7 19.1 284.7 L 17 284.7 Z M 25.9 281.8 C 25.86 281.79 25.9 272.1 25.9 272.1 L 23.9 272.1 L 23.9 270.2 L 25.9 270.2 L 25.9 266.3 L 28 266.3 L 28 270.2 L 30.5 270.2 L 30.5 272.1 L 28 272.1 C 28 272.1 28.02 281.4 28 281.4 C 28 282.5 28.3 283.1 29.2 283.1 C 29.7 283.1 30.2 282.9 30.4 282.6 C 30.4 282.6 31.1 284.2 31.1 284.2 C 30.6 284.7 29.9 285.1 28.8 285.1 C 26.8 285.1 25.9 284 25.9 281.8 Z M 32.6 266.6 C 32.6 265.8 33.3 265.2 34.1 265.2 C 34.9 265.2 35.5 265.8 35.5 266.6 C 35.5 267.5 34.9 268.1 34.1 268.1 C 33.3 268.1 32.6 267.5 32.6 266.6 Z M 33 284.7 L 33 270.2 L 35.2 270.2 L 35.2 284.7 L 33 284.7 Z M 39.3 284.7 L 39.3 272.1 L 37.4 272.1 L 37.4 270.2 L 39.3 270.2 C 39.3 270.2 39.33 268.44 39.3 268.4 C 39.3 265.9 40.8 264.4 42.9 264.4 C 43.6 264.4 44.2 264.5 44.7 264.8 C 44.7 264.8 44.2 266.5 44.2 266.5 C 43.9 266.3 43.6 266.2 43.2 266.2 C 42.1 266.2 41.5 267 41.5 268.4 C 41.49 268.44 41.5 270.2 41.5 270.2 L 43.9 270.2 L 43.9 272.1 L 41.5 272.1 L 41.5 284.7 L 39.3 284.7 Z M 46 266.6 C 46 265.8 46.7 265.2 47.5 265.2 C 48.3 265.2 49 265.8 49 266.6 C 49 267.5 48.3 268.1 47.5 268.1 C 46.7 268.1 46 267.5 46 266.6 Z M 46.4 284.7 L 46.4 270.2 L 48.6 270.2 L 48.6 284.7 L 46.4 284.7 Z M 51.5 277.4 C 51.5 273.2 53.8 269.9 57.5 269.9 C 59.5 269.9 60.7 270.7 61.6 271.8 C 61.6 271.8 60.5 273.2 60.5 273.2 C 59.7 272.2 58.8 271.8 57.7 271.8 C 55.1 271.8 53.8 274.4 53.8 277.4 C 53.8 280.5 55.1 283.1 57.7 283.1 C 58.8 283.1 59.7 282.7 60.5 281.7 C 60.5 281.7 61.6 283.1 61.6 283.1 C 60.7 284.3 59.5 285.1 57.5 285.1 C 53.8 285.1 51.5 281.7 51.5 277.4 Z M 63.7 266.6 C 63.7 265.8 64.4 265.2 65.2 265.2 C 66 265.2 66.6 265.8 66.6 266.6 C 66.6 267.5 66 268.1 65.2 268.1 C 64.4 268.1 63.7 267.5 63.7 266.6 Z M 64.1 284.7 L 64.1 270.2 L 66.2 270.2 L 66.2 284.7 L 64.1 284.7 Z M 77.3 284.7 C 77.3 284.7 77.34 283.14 77.3 283.1 C 76.4 284.5 75 285.1 73.5 285.1 C 71.2 285.1 69.1 283.3 69.1 280.2 C 69.1 277.2 71.2 275.5 73.5 275.5 C 75 275.5 76.4 276 77.3 277.3 C 77.3 277.3 77.3 274.8 77.3 274.8 C 77.3 272.8 76.3 271.7 74.4 271.7 C 73 271.7 71.8 272.2 70.7 273.5 C 70.7 273.5 69.8 272 69.8 272 C 71.2 270.5 72.9 269.9 74.7 269.9 C 77.6 269.9 79.5 271.3 79.5 274.6 C 79.5 274.56 79.5 284.7 79.5 284.7 L 77.3 284.7 Z M 77.3 281.7 C 77.3 281.7 77.3 278.9 77.3 278.9 C 76.7 277.7 75.5 277.1 74.2 277.1 C 72.4 277.1 71.3 278.5 71.3 280.3 C 71.3 282.1 72.4 283.5 74.2 283.5 C 75.5 283.5 76.7 282.9 77.3 281.7 Z M 83.1 284.7 L 83.1 264.7 L 85.3 264.7 L 85.3 284.7 L 83.1 284.7 Z M 95.6 284.7 L 95.6 272.1 L 93.7 272.1 L 93.7 270.2 L 95.6 270.2 C 95.6 270.2 95.58 268.44 95.6 268.4 C 95.6 265.9 97 264.4 99.2 264.4 C 100.2 264.4 101.1 264.7 101.8 265.4 C 101.8 265.4 100.9 266.9 100.9 266.9 C 100.6 266.5 100.1 266.2 99.5 266.2 C 98.3 266.2 97.7 267 97.7 268.4 C 97.74 268.44 97.7 270.2 97.7 270.2 L 100.2 270.2 L 100.2 272.1 L 97.7 272.1 L 97.7 284.7 L 95.6 284.7 Z M 101.7 277.4 C 101.7 273.4 103.7 269.9 107.5 269.9 C 111.4 269.9 113.5 273.4 113.5 277.4 C 113.5 281.5 111.4 285.1 107.5 285.1 C 103.7 285.1 101.7 281.5 101.7 277.4 Z M 111.2 277.4 C 111.2 274.5 110.1 271.8 107.5 271.8 C 105.1 271.8 103.9 274.5 103.9 277.4 C 103.9 280.4 105.1 283.1 107.5 283.1 C 110.1 283.1 111.2 280.4 111.2 277.4 Z M 115.7 277.4 C 115.7 273.4 117.7 269.9 121.6 269.9 C 125.5 269.9 127.5 273.4 127.5 277.4 C 127.5 281.5 125.5 285.1 121.6 285.1 C 117.7 285.1 115.7 281.5 115.7 277.4 Z M 125.2 277.4 C 125.2 274.5 124.1 271.8 121.6 271.8 C 119.1 271.8 117.9 274.5 117.9 277.4 C 117.9 280.4 119.1 283.1 121.6 283.1 C 124.1 283.1 125.2 280.4 125.2 277.4 Z M 138.7 284.7 C 138.7 284.7 138.69 282.63 138.7 282.6 C 137.8 284.1 136.4 285.1 134.9 285.1 C 131.6 285.1 129.7 282 129.7 277.5 C 129.7 273 131.6 269.9 134.9 269.9 C 136.3 269.9 137.8 270.7 138.7 272.3 C 138.69 272.31 138.7 264.7 138.7 264.7 L 140.8 264.7 L 140.8 284.7 L 138.7 284.7 Z M 138.7 280.8 C 138.7 280.8 138.7 274.1 138.7 274.1 C 138.1 272.9 136.8 271.8 135.4 271.8 C 133 271.8 131.9 274.3 131.9 277.5 C 131.9 280.6 133 283.1 135.4 283.1 C 136.8 283.1 138.1 282.1 138.7 280.8 Z M 158.9 284.7 C 158.9 284.7 158.94 282.63 158.9 282.6 C 158.1 284.1 156.7 285.1 155.1 285.1 C 151.9 285.1 149.9 282 149.9 277.5 C 149.9 273 151.9 269.9 155.1 269.9 C 156.6 269.9 158.1 270.7 158.9 272.3 C 158.94 272.31 158.9 264.7 158.9 264.7 L 161.1 264.7 L 161.1 284.7 L 158.9 284.7 Z M 158.9 280.8 C 158.9 280.8 158.9 274.1 158.9 274.1 C 158.4 272.9 157 271.8 155.7 271.8 C 153.3 271.8 152.2 274.3 152.2 277.5 C 152.2 280.6 153.3 283.1 155.7 283.1 C 157 283.1 158.4 282.1 158.9 280.8 Z M 164.3 288.5 C 164.6 288.6 165.1 288.7 165.3 288.7 C 166.1 288.7 166.6 288.3 167 287.2 C 167.01 287.22 167.8 285 167.8 285 L 163 270.2 L 165.3 270.2 L 168.9 282.1 L 172.5 270.2 L 174.8 270.2 C 174.8 270.2 169.05 287.76 169 287.8 C 168.3 289.9 167.2 290.6 165.4 290.6 C 165 290.6 164.3 290.5 164 290.4 C 164 290.4 164.3 288.5 164.3 288.5 Z M 176 277.4 C 176 273.2 178.2 269.9 181.9 269.9 C 185.7 269.9 187.6 273.3 187.6 277.5 C 187.59 277.5 187.6 278.2 187.6 278.2 C 187.6 278.2 178.2 278.16 178.2 278.2 C 178.3 281.1 179.8 283.3 182.4 283.3 C 183.6 283.3 184.9 282.6 185.8 281.5 C 185.8 281.5 187 282.8 187 282.8 C 185.8 284.2 184.1 285.1 182.2 285.1 C 178.3 285.1 176 281.9 176 277.4 Z M 181.8 271.7 C 179.3 271.7 178.3 274.4 178.2 276.6 C 178.2 276.6 185.5 276.6 185.5 276.6 C 185.4 274.4 184.5 271.7 181.8 271.7 Z " stroke="none" fill="#d3d2d2"/>  </g>  <g id="Polygon149500">    <path d="M 5.5 248.7 L 5.5 230.8 L 0.8 230.8 L 0.8 228.7 L 12.6 228.7 L 12.6 230.8 L 7.9 230.8 L 7.9 248.7 L 5.5 248.7 Z M 11.9 241.4 C 11.9 237.4 13.9 233.9 17.7 233.9 C 21.6 233.9 23.6 237.4 23.6 241.4 C 23.6 245.5 21.6 249.1 17.7 249.1 C 13.9 249.1 11.9 245.5 11.9 241.4 Z M 21.4 241.4 C 21.4 238.5 20.3 235.8 17.7 235.8 C 15.2 235.8 14.1 238.5 14.1 241.4 C 14.1 244.4 15.2 247.1 17.7 247.1 C 20.3 247.1 21.4 244.4 21.4 241.4 Z M 25.9 241.4 C 25.9 237.4 27.9 233.9 31.7 233.9 C 35.6 233.9 37.6 237.4 37.6 241.4 C 37.6 245.5 35.6 249.1 31.7 249.1 C 27.9 249.1 25.9 245.5 25.9 241.4 Z M 35.4 241.4 C 35.4 238.5 34.3 235.8 31.7 235.8 C 29.2 235.8 28.1 238.5 28.1 241.4 C 28.1 244.4 29.2 247.1 31.7 247.1 C 34.3 247.1 35.4 244.4 35.4 241.4 Z M 41 245.8 C 41.01 245.79 41 236.1 41 236.1 L 39.1 236.1 L 39.1 234.2 L 41 234.2 L 41 230.3 L 43.2 230.3 L 43.2 234.2 L 45.6 234.2 L 45.6 236.1 L 43.2 236.1 C 43.2 236.1 43.17 245.4 43.2 245.4 C 43.2 246.5 43.5 247.1 44.3 247.1 C 44.9 247.1 45.3 246.9 45.6 246.6 C 45.6 246.6 46.3 248.2 46.3 248.2 C 45.7 248.7 45 249.1 43.9 249.1 C 41.9 249.1 41 248 41 245.8 Z M 56 248.7 C 56 248.7 56.04 238.35 56 238.4 C 56 236.4 55.1 235.8 53.7 235.8 C 52.3 235.8 51 236.9 50.3 238.1 C 50.31 238.08 50.3 248.7 50.3 248.7 L 48.2 248.7 L 48.2 228.7 L 50.3 228.7 C 50.3 228.7 50.31 236.28 50.3 236.3 C 51.1 235 52.8 233.9 54.5 233.9 C 57 233.9 58.2 235.1 58.2 237.7 C 58.17 237.72 58.2 248.7 58.2 248.7 L 56 248.7 Z M 67.2 247.1 C 69.6 247.1 70.7 244.6 70.7 241.5 C 70.7 238.3 69.6 235.8 67.2 235.8 C 65.9 235.8 64.5 236.9 64 238.2 C 64 238.2 64 244.8 64 244.8 C 64.5 246.1 65.9 247.1 67.2 247.1 Z M 61.8 248.7 L 61.8 228.7 L 64 228.7 C 64 228.7 63.96 236.31 64 236.3 C 64.9 234.7 66.3 233.9 67.8 233.9 C 71 233.9 73 237 73 241.5 C 73 246 71 249.1 67.8 249.1 C 66.2 249.1 64.8 248.1 64 246.6 C 63.96 246.63 64 248.7 64 248.7 L 61.8 248.7 Z M 75.9 248.7 L 75.9 234.2 L 78.1 234.2 C 78.1 234.2 78.06 236.52 78.1 236.5 C 79 235 80.4 233.9 82.2 233.9 C 82.2 233.9 82.2 236.1 82.2 236.1 C 81.9 236.1 81.7 236 81.4 236 C 80.1 236 78.7 237.2 78.1 238.4 C 78.06 238.41 78.1 248.7 78.1 248.7 L 75.9 248.7 Z M 92.2 248.7 C 92.2 248.7 92.19 246.69 92.2 246.7 C 91.3 248 89.8 249.1 88 249.1 C 85.5 249.1 84.4 247.8 84.4 245.2 C 84.36 245.19 84.4 234.2 84.4 234.2 L 86.5 234.2 C 86.5 234.2 86.49 244.56 86.5 244.6 C 86.5 246.5 87.4 247.1 88.8 247.1 C 90.2 247.1 91.6 246.1 92.2 244.9 C 92.19 244.89 92.2 234.2 92.2 234.2 L 94.3 234.2 L 94.3 248.7 L 92.2 248.7 Z M 96.8 247 C 96.8 247 97.9 245.5 97.9 245.5 C 98.8 246.5 100.1 247.3 101.7 247.3 C 103.4 247.3 104.5 246.4 104.5 245 C 104.5 241.6 97.3 242.8 97.3 237.8 C 97.3 235.6 99 233.9 101.9 233.9 C 103.8 233.9 105.3 234.6 106.3 235.7 C 106.3 235.7 105.3 237.2 105.3 237.2 C 104.5 236.2 103.3 235.6 101.9 235.6 C 100.3 235.6 99.3 236.5 99.3 237.7 C 99.3 240.8 106.6 239.7 106.6 244.9 C 106.6 247.3 104.7 249.1 101.7 249.1 C 99.7 249.1 98 248.4 96.8 247 Z M 117.2 248.7 C 117.2 248.7 117.18 238.35 117.2 238.4 C 117.2 236.4 116.3 235.8 114.8 235.8 C 113.4 235.8 112.1 236.9 111.4 238.1 C 111.45 238.08 111.4 248.7 111.4 248.7 L 109.3 248.7 L 109.3 228.7 L 111.4 228.7 C 111.4 228.7 111.45 236.28 111.4 236.3 C 112.3 235 113.9 233.9 115.7 233.9 C 118.1 233.9 119.3 235.1 119.3 237.7 C 119.31 237.72 119.3 248.7 119.3 248.7 L 117.2 248.7 Z M 137 248.7 C 137 248.7 136.98 238.35 137 238.4 C 137 236.4 136.1 235.8 134.6 235.8 C 133.2 235.8 131.9 236.9 131.2 238.1 C 131.25 238.08 131.2 248.7 131.2 248.7 L 129.1 248.7 L 129.1 228.7 L 131.2 228.7 C 131.2 228.7 131.25 236.28 131.2 236.3 C 132.1 235 133.7 233.9 135.5 233.9 C 137.9 233.9 139.1 235.1 139.1 237.7 C 139.11 237.72 139.1 248.7 139.1 248.7 L 137 248.7 Z M 150.2 248.7 C 150.2 248.7 150.21 247.14 150.2 247.1 C 149.3 248.5 147.9 249.1 146.4 249.1 C 144.1 249.1 142 247.3 142 244.2 C 142 241.2 144 239.5 146.4 239.5 C 147.9 239.5 149.3 240 150.2 241.3 C 150.2 241.3 150.2 238.8 150.2 238.8 C 150.2 236.8 149.1 235.7 147.2 235.7 C 145.9 235.7 144.7 236.2 143.6 237.5 C 143.6 237.5 142.6 236 142.6 236 C 144 234.5 145.7 233.9 147.6 233.9 C 150.4 233.9 152.4 235.3 152.4 238.6 C 152.37 238.56 152.4 248.7 152.4 248.7 L 150.2 248.7 Z M 150.2 245.7 C 150.2 245.7 150.2 242.9 150.2 242.9 C 149.5 241.7 148.3 241.1 147.1 241.1 C 145.3 241.1 144.2 242.5 144.2 244.3 C 144.2 246.1 145.3 247.5 147.1 247.5 C 148.3 247.5 149.5 246.9 150.2 245.7 Z M 163.8 248.7 C 163.8 248.7 163.83 238.38 163.8 238.4 C 163.8 236.5 163 235.8 161.5 235.8 C 160.1 235.8 158.8 236.9 158.1 238.1 C 158.13 238.08 158.1 248.7 158.1 248.7 L 156 248.7 L 156 234.2 L 158.1 234.2 C 158.1 234.2 158.13 236.28 158.1 236.3 C 159 235 160.6 233.9 162.3 233.9 C 164.8 233.9 166 235.2 166 237.8 C 165.99 237.78 166 248.7 166 248.7 L 163.8 248.7 Z M 177.9 248.7 C 177.9 248.7 177.93 246.63 177.9 246.6 C 177.1 248.1 175.6 249.1 174.1 249.1 C 170.9 249.1 168.9 246 168.9 241.5 C 168.9 237 170.8 233.9 174.1 233.9 C 175.6 233.9 177.1 234.7 177.9 236.3 C 177.93 236.31 177.9 228.7 177.9 228.7 L 180.1 228.7 L 180.1 248.7 L 177.9 248.7 Z M 177.9 244.8 C 177.9 244.8 177.9 238.1 177.9 238.1 C 177.4 236.9 176 235.8 174.7 235.8 C 172.3 235.8 171.2 238.3 171.2 241.5 C 171.2 244.6 172.3 247.1 174.7 247.1 C 176 247.1 177.4 246.1 177.9 244.8 Z M 183.7 248.7 L 183.7 228.7 L 185.9 228.7 L 185.9 248.7 L 183.7 248.7 Z M 188.8 241.4 C 188.8 237.2 191 233.9 194.7 233.9 C 198.5 233.9 200.4 237.3 200.4 241.5 C 200.43 241.5 200.4 242.2 200.4 242.2 C 200.4 242.2 191.04 242.16 191 242.2 C 191.1 245.1 192.6 247.3 195.2 247.3 C 196.5 247.3 197.8 246.6 198.7 245.5 C 198.7 245.5 199.8 246.8 199.8 246.8 C 198.6 248.2 197 249.1 195 249.1 C 191.2 249.1 188.8 245.9 188.8 241.4 Z M 194.7 235.7 C 192.1 235.7 191.1 238.4 191 240.6 C 191 240.6 198.3 240.6 198.3 240.6 C 198.3 238.4 197.3 235.7 194.7 235.7 Z " stroke="none" fill="#d3d2d2"/>  </g>  <g id="Polygon149499">    <path d="M 1.4 202.7 C 1.4 196.7 4.4 192.4 9.2 192.4 C 12.2 192.4 13.9 194.2 15 196.3 C 15 196.3 13 197.2 13 197.2 C 12.2 195.6 10.9 194.5 9.2 194.5 C 5.9 194.5 3.9 198 3.9 202.7 C 3.9 207.5 5.9 210.9 9.2 210.9 C 11 210.9 12.3 209.7 13.1 208 C 13.1 208 15.1 208.9 15.1 208.9 C 14 211.1 12.3 213.1 9.2 213.1 C 4.4 213.1 1.4 208.7 1.4 202.7 Z M 25.1 212.7 C 25.1 212.7 25.11 211.14 25.1 211.1 C 24.2 212.5 22.8 213.1 21.3 213.1 C 19 213.1 16.9 211.3 16.9 208.2 C 16.9 205.2 18.9 203.5 21.3 203.5 C 22.8 203.5 24.2 204 25.1 205.3 C 25.1 205.3 25.1 202.8 25.1 202.8 C 25.1 200.8 24 199.7 22.1 199.7 C 20.8 199.7 19.6 200.2 18.5 201.5 C 18.5 201.5 17.5 200 17.5 200 C 18.9 198.5 20.6 197.9 22.5 197.9 C 25.3 197.9 27.3 199.3 27.3 202.6 C 27.27 202.56 27.3 212.7 27.3 212.7 L 25.1 212.7 Z M 25.1 209.7 C 25.1 209.7 25.1 206.9 25.1 206.9 C 24.4 205.7 23.2 205.1 22 205.1 C 20.2 205.1 19.1 206.5 19.1 208.3 C 19.1 210.1 20.2 211.5 22 211.5 C 23.2 211.5 24.4 210.9 25.1 209.7 Z M 36.3 211.1 C 38.7 211.1 39.8 208.6 39.8 205.5 C 39.8 202.3 38.7 199.8 36.3 199.8 C 34.9 199.8 33.6 200.9 33 202.2 C 33 202.2 33 208.8 33 208.8 C 33.6 210.1 34.9 211.1 36.3 211.1 Z M 30.9 212.7 L 30.9 192.7 L 33 192.7 C 33 192.7 33.03 200.31 33 200.3 C 33.9 198.7 35.4 197.9 36.8 197.9 C 40.1 197.9 42 201 42 205.5 C 42 210 40.1 213.1 36.8 213.1 C 35.3 213.1 33.9 212.1 33 210.6 C 33.03 210.63 33 212.7 33 212.7 L 30.9 212.7 Z M 45 212.7 L 45 192.7 L 47.1 192.7 L 47.1 212.7 L 45 212.7 Z M 50.1 205.4 C 50.1 201.2 52.3 197.9 55.9 197.9 C 59.8 197.9 61.7 201.3 61.7 205.5 C 61.68 205.5 61.7 206.2 61.7 206.2 C 61.7 206.2 52.29 206.16 52.3 206.2 C 52.4 209.1 53.9 211.3 56.5 211.3 C 57.7 211.3 59 210.6 59.9 209.5 C 59.9 209.5 61 210.8 61 210.8 C 59.9 212.2 58.2 213.1 56.3 213.1 C 52.4 213.1 50.1 209.9 50.1 205.4 Z M 55.9 199.7 C 53.4 199.7 52.3 202.4 52.3 204.6 C 52.3 204.6 59.5 204.6 59.5 204.6 C 59.5 202.4 58.6 199.7 55.9 199.7 Z M 70.3 194.6 C 70.3 193.8 70.9 193.2 71.7 193.2 C 72.5 193.2 73.2 193.8 73.2 194.6 C 73.2 195.5 72.5 196.1 71.7 196.1 C 70.9 196.1 70.3 195.5 70.3 194.6 Z M 70.7 212.7 L 70.7 198.2 L 72.8 198.2 L 72.8 212.7 L 70.7 212.7 Z M 84.3 212.7 C 84.3 212.7 84.3 202.38 84.3 202.4 C 84.3 200.5 83.4 199.8 82 199.8 C 80.6 199.8 79.3 200.9 78.6 202.1 C 78.6 202.08 78.6 212.7 78.6 212.7 L 76.5 212.7 L 76.5 198.2 L 78.6 198.2 C 78.6 198.2 78.6 200.28 78.6 200.3 C 79.4 199 81.1 197.9 82.8 197.9 C 85.3 197.9 86.5 199.2 86.5 201.8 C 86.46 201.78 86.5 212.7 86.5 212.7 L 84.3 212.7 Z M 88.9 211 C 88.9 211 90 209.5 90 209.5 C 90.9 210.5 92.2 211.3 93.8 211.3 C 95.5 211.3 96.6 210.4 96.6 209 C 96.6 205.6 89.4 206.8 89.4 201.8 C 89.4 199.6 91.1 197.9 94 197.9 C 95.9 197.9 97.4 198.6 98.4 199.7 C 98.4 199.7 97.4 201.2 97.4 201.2 C 96.7 200.2 95.4 199.6 94 199.6 C 92.4 199.6 91.4 200.5 91.4 201.7 C 91.4 204.8 98.7 203.7 98.7 208.9 C 98.7 211.3 96.8 213.1 93.8 213.1 C 91.8 213.1 90.1 212.4 88.9 211 Z M 109.3 212.7 C 109.3 212.7 109.26 210.69 109.3 210.7 C 108.4 212 106.9 213.1 105.1 213.1 C 102.6 213.1 101.4 211.8 101.4 209.2 C 101.43 209.19 101.4 198.2 101.4 198.2 L 103.6 198.2 C 103.6 198.2 103.56 208.56 103.6 208.6 C 103.6 210.5 104.5 211.1 105.9 211.1 C 107.3 211.1 108.6 210.1 109.3 208.9 C 109.26 208.89 109.3 198.2 109.3 198.2 L 111.4 198.2 L 111.4 212.7 L 109.3 212.7 Z M 115.1 212.7 L 115.1 192.7 L 117.2 192.7 L 117.2 212.7 L 115.1 212.7 Z M 128.3 212.7 C 128.3 212.7 128.31 211.14 128.3 211.1 C 127.4 212.5 126 213.1 124.5 213.1 C 122.2 213.1 120.1 211.3 120.1 208.2 C 120.1 205.2 122.1 203.5 124.5 203.5 C 126 203.5 127.4 204 128.3 205.3 C 128.3 205.3 128.3 202.8 128.3 202.8 C 128.3 200.8 127.2 199.7 125.3 199.7 C 124 199.7 122.8 200.2 121.7 201.5 C 121.7 201.5 120.7 200 120.7 200 C 122.1 198.5 123.8 197.9 125.7 197.9 C 128.5 197.9 130.5 199.3 130.5 202.6 C 130.47 202.56 130.5 212.7 130.5 212.7 L 128.3 212.7 Z M 128.3 209.7 C 128.3 209.7 128.3 206.9 128.3 206.9 C 127.6 205.7 126.4 205.1 125.2 205.1 C 123.4 205.1 122.3 206.5 122.3 208.3 C 122.3 210.1 123.4 211.5 125.2 211.5 C 126.4 211.5 127.6 210.9 128.3 209.7 Z M 134.5 209.8 C 134.52 209.79 134.5 200.1 134.5 200.1 L 132.6 200.1 L 132.6 198.2 L 134.5 198.2 L 134.5 194.3 L 136.7 194.3 L 136.7 198.2 L 139.1 198.2 L 139.1 200.1 L 136.7 200.1 C 136.7 200.1 136.68 209.4 136.7 209.4 C 136.7 210.5 137 211.1 137.8 211.1 C 138.4 211.1 138.8 210.9 139.1 210.6 C 139.1 210.6 139.8 212.2 139.8 212.2 C 139.3 212.7 138.5 213.1 137.4 213.1 C 135.4 213.1 134.5 212 134.5 209.8 Z M 141.3 194.6 C 141.3 193.8 142 193.2 142.7 193.2 C 143.5 193.2 144.2 193.8 144.2 194.6 C 144.2 195.5 143.5 196.1 142.7 196.1 C 142 196.1 141.3 195.5 141.3 194.6 Z M 141.7 212.7 L 141.7 198.2 L 143.8 198.2 L 143.8 212.7 L 141.7 212.7 Z M 146.8 205.4 C 146.8 201.4 148.8 197.9 152.6 197.9 C 156.5 197.9 158.5 201.4 158.5 205.4 C 158.5 209.5 156.5 213.1 152.6 213.1 C 148.8 213.1 146.8 209.5 146.8 205.4 Z M 156.3 205.4 C 156.3 202.5 155.2 199.8 152.6 199.8 C 150.1 199.8 149 202.5 149 205.4 C 149 208.4 150.1 211.1 152.6 211.1 C 155.2 211.1 156.3 208.4 156.3 205.4 Z M 169.3 212.7 C 169.3 212.7 169.32 202.38 169.3 202.4 C 169.3 200.5 168.4 199.8 167 199.8 C 165.6 199.8 164.3 200.9 163.6 202.1 C 163.62 202.08 163.6 212.7 163.6 212.7 L 161.5 212.7 L 161.5 198.2 L 163.6 198.2 C 163.6 198.2 163.62 200.28 163.6 200.3 C 164.5 199 166.1 197.9 167.8 197.9 C 170.3 197.9 171.5 199.2 171.5 201.8 C 171.48 201.78 171.5 212.7 171.5 212.7 L 169.3 212.7 Z " stroke="none" fill="#d3d2d2"/>  </g>  <g id="Polygon149498">    <path d="M 14 176.7 L 10.7 160.9 L 7.5 176.7 L 4.9 176.7 L 0.5 156.7 L 3 156.7 L 6.3 173 L 9.7 156.7 L 11.7 156.7 L 15.1 173 L 18.4 156.7 L 21 156.7 L 16.5 176.7 L 14 176.7 Z M 31 176.7 C 31 176.7 30.99 166.35 31 166.4 C 31 164.4 30.1 163.8 28.6 163.8 C 27.2 163.8 25.9 164.9 25.3 166.1 C 25.26 166.08 25.3 176.7 25.3 176.7 L 23.1 176.7 L 23.1 156.7 L 25.3 156.7 C 25.3 156.7 25.26 164.28 25.3 164.3 C 26.1 163 27.7 161.9 29.5 161.9 C 31.9 161.9 33.1 163.1 33.1 165.7 C 33.12 165.72 33.1 176.7 33.1 176.7 L 31 176.7 Z M 36.4 158.6 C 36.4 157.8 37 157.2 37.8 157.2 C 38.6 157.2 39.3 157.8 39.3 158.6 C 39.3 159.5 38.6 160.1 37.8 160.1 C 37 160.1 36.4 159.5 36.4 158.6 Z M 36.8 176.7 L 36.8 162.2 L 38.9 162.2 L 38.9 176.7 L 36.8 176.7 Z M 43 173.8 C 42.99 173.79 43 164.1 43 164.1 L 41.1 164.1 L 41.1 162.2 L 43 162.2 L 43 158.3 L 45.1 158.3 L 45.1 162.2 L 47.6 162.2 L 47.6 164.1 L 45.1 164.1 C 45.1 164.1 45.15 173.4 45.1 173.4 C 45.1 174.5 45.5 175.1 46.3 175.1 C 46.9 175.1 47.3 174.9 47.6 174.6 C 47.6 174.6 48.2 176.2 48.2 176.2 C 47.7 176.7 47 177.1 45.9 177.1 C 43.9 177.1 43 176 43 173.8 Z M 49.4 169.4 C 49.4 165.2 51.7 161.9 55.3 161.9 C 59.1 161.9 61 165.3 61 169.5 C 61.05 169.5 61 170.2 61 170.2 C 61 170.2 51.66 170.16 51.7 170.2 C 51.7 173.1 53.2 175.3 55.8 175.3 C 57.1 175.3 58.4 174.6 59.3 173.5 C 59.3 173.5 60.4 174.8 60.4 174.8 C 59.2 176.2 57.6 177.1 55.6 177.1 C 51.8 177.1 49.4 173.9 49.4 169.4 Z M 55.3 163.7 C 52.7 163.7 51.7 166.4 51.7 168.6 C 51.7 168.6 58.9 168.6 58.9 168.6 C 58.9 166.4 57.9 163.7 55.3 163.7 Z M 68.9 174.5 C 68.9 174.5 70.3 172.7 70.3 172.7 C 71.3 173.9 73 174.9 74.9 174.9 C 77.4 174.9 78.6 173.4 78.6 171.7 C 78.6 166.8 69.5 168.1 69.5 161.6 C 69.5 158.6 71.9 156.4 75.3 156.4 C 77.5 156.4 79.3 157.1 80.6 158.5 C 80.6 158.5 79.3 160.3 79.3 160.3 C 78.3 159.1 76.8 158.5 75.2 158.5 C 73.4 158.5 72 159.7 72 161.5 C 72 165.7 81 164.8 81 171.5 C 81 174.5 79 177.1 74.9 177.1 C 72.3 177.1 70.3 176.1 68.9 174.5 Z M 91.3 176.7 C 91.3 176.7 91.29 175.14 91.3 175.1 C 90.4 176.5 88.9 177.1 87.5 177.1 C 85.1 177.1 83.1 175.3 83.1 172.2 C 83.1 169.2 85.1 167.5 87.5 167.5 C 88.9 167.5 90.4 168 91.3 169.3 C 91.3 169.3 91.3 166.8 91.3 166.8 C 91.3 164.8 90.2 163.7 88.3 163.7 C 87 163.7 85.8 164.2 84.7 165.5 C 84.7 165.5 83.7 164 83.7 164 C 85.1 162.5 86.8 161.9 88.6 161.9 C 91.5 161.9 93.4 163.3 93.4 166.6 C 93.45 166.56 93.4 176.7 93.4 176.7 L 91.3 176.7 Z M 91.3 173.7 C 91.3 173.7 91.3 170.9 91.3 170.9 C 90.6 169.7 89.4 169.1 88.2 169.1 C 86.4 169.1 85.3 170.5 85.3 172.3 C 85.3 174.1 86.4 175.5 88.2 175.5 C 89.4 175.5 90.6 174.9 91.3 173.7 Z M 104.9 176.7 C 104.9 176.7 104.91 166.38 104.9 166.4 C 104.9 164.5 104 163.8 102.6 163.8 C 101.2 163.8 99.9 164.9 99.2 166.1 C 99.21 166.08 99.2 176.7 99.2 176.7 L 97.1 176.7 L 97.1 162.2 L 99.2 162.2 C 99.2 162.2 99.21 164.28 99.2 164.3 C 100 163 101.7 161.9 103.4 161.9 C 105.9 161.9 107.1 163.2 107.1 165.8 C 107.07 165.78 107.1 176.7 107.1 176.7 L 104.9 176.7 Z M 119 176.7 C 119 176.7 119.01 174.63 119 174.6 C 118.2 176.1 116.7 177.1 115.2 177.1 C 112 177.1 110 174 110 169.5 C 110 165 111.9 161.9 115.2 161.9 C 116.7 161.9 118.1 162.7 119 164.3 C 119.01 164.31 119 156.7 119 156.7 L 121.2 156.7 L 121.2 176.7 L 119 176.7 Z M 119 172.8 C 119 172.8 119 166.1 119 166.1 C 118.5 164.9 117.1 163.8 115.7 163.8 C 113.4 163.8 112.3 166.3 112.3 169.5 C 112.3 172.6 113.4 175.1 115.7 175.1 C 117.1 175.1 118.5 174.1 119 172.8 Z " stroke="none" fill="#d3d2d2"/>  </g>  <g id="Polygon149497">    <path d="M 1.4 130.7 C 1.4 124.7 4.4 120.4 9.2 120.4 C 12.2 120.4 13.9 122.2 15 124.3 C 15 124.3 13 125.2 13 125.2 C 12.2 123.6 10.9 122.5 9.2 122.5 C 5.9 122.5 3.9 126 3.9 130.7 C 3.9 135.5 5.9 138.9 9.2 138.9 C 11 138.9 12.3 137.7 13.1 136 C 13.1 136 15.1 136.9 15.1 136.9 C 14 139.1 12.3 141.1 9.2 141.1 C 4.4 141.1 1.4 136.7 1.4 130.7 Z M 17.7 140.7 L 17.7 120.7 L 19.8 120.7 L 19.8 140.7 L 17.7 140.7 Z M 22.7 133.4 C 22.7 129.2 25 125.9 28.6 125.9 C 32.4 125.9 34.3 129.3 34.3 133.5 C 34.35 133.5 34.3 134.2 34.3 134.2 C 34.3 134.2 24.96 134.16 25 134.2 C 25 137.1 26.5 139.3 29.1 139.3 C 30.4 139.3 31.7 138.6 32.6 137.5 C 32.6 137.5 33.7 138.8 33.7 138.8 C 32.5 140.2 30.9 141.1 28.9 141.1 C 25.1 141.1 22.7 137.9 22.7 133.4 Z M 28.6 127.7 C 26 127.7 25 130.4 25 132.6 C 25 132.6 32.2 132.6 32.2 132.6 C 32.2 130.4 31.2 127.7 28.6 127.7 Z M 44.6 140.7 C 44.6 140.7 44.64 139.14 44.6 139.1 C 43.7 140.5 42.3 141.1 40.8 141.1 C 38.5 141.1 36.4 139.3 36.4 136.2 C 36.4 133.2 38.5 131.5 40.8 131.5 C 42.3 131.5 43.7 132 44.6 133.3 C 44.6 133.3 44.6 130.8 44.6 130.8 C 44.6 128.8 43.6 127.7 41.7 127.7 C 40.3 127.7 39.1 128.2 38 129.5 C 38 129.5 37.1 128 37.1 128 C 38.5 126.5 40.2 125.9 42 125.9 C 44.9 125.9 46.8 127.3 46.8 130.6 C 46.8 130.56 46.8 140.7 46.8 140.7 L 44.6 140.7 Z M 44.6 137.7 C 44.6 137.7 44.6 134.9 44.6 134.9 C 44 133.7 42.8 133.1 41.5 133.1 C 39.7 133.1 38.6 134.5 38.6 136.3 C 38.6 138.1 39.7 139.5 41.5 139.5 C 42.8 139.5 44 138.9 44.6 137.7 Z M 50.4 140.7 L 50.4 126.2 L 52.6 126.2 C 52.6 126.2 52.56 128.52 52.6 128.5 C 53.5 127 54.9 125.9 56.7 125.9 C 56.7 125.9 56.7 128.1 56.7 128.1 C 56.4 128.1 56.2 128 55.9 128 C 54.6 128 53.2 129.2 52.6 130.4 C 52.56 130.41 52.6 140.7 52.6 140.7 L 50.4 140.7 Z M 64.4 130.7 C 64.4 124.5 67.5 120.4 72.2 120.4 C 75.1 120.4 77 122 78.1 124.1 C 78.1 124.1 76.2 125.1 76.2 125.1 C 75.4 123.6 74 122.5 72.2 122.5 C 69 122.5 66.9 125.8 66.9 130.7 C 66.9 135.6 69 138.9 72.2 138.9 C 73.9 138.9 75.2 138.1 76 137.3 C 75.96 137.25 76 132.6 76 132.6 L 71.2 132.6 L 71.2 130.5 L 78.2 130.5 C 78.2 130.5 78.24 138.15 78.2 138.2 C 76.8 140 74.7 141.1 72.2 141.1 C 67.5 141.1 64.4 136.9 64.4 130.7 Z M 81.6 140.7 L 81.6 120.7 L 83.7 120.7 L 83.7 140.7 L 81.6 140.7 Z M 95.2 140.7 C 95.2 140.7 95.19 138.69 95.2 138.7 C 94.3 140 92.8 141.1 91 141.1 C 88.5 141.1 87.4 139.8 87.4 137.2 C 87.36 137.19 87.4 126.2 87.4 126.2 L 89.5 126.2 C 89.5 126.2 89.49 136.56 89.5 136.6 C 89.5 138.5 90.4 139.1 91.8 139.1 C 93.2 139.1 94.6 138.1 95.2 136.9 C 95.19 136.89 95.2 126.2 95.2 126.2 L 97.3 126.2 L 97.3 140.7 L 95.2 140.7 Z M 100.3 133.4 C 100.3 129.2 102.5 125.9 106.2 125.9 C 110 125.9 111.9 129.3 111.9 133.5 C 111.9 133.5 111.9 134.2 111.9 134.2 C 111.9 134.2 102.51 134.16 102.5 134.2 C 102.6 137.1 104.1 139.3 106.7 139.3 C 107.9 139.3 109.2 138.6 110.1 137.5 C 110.1 137.5 111.3 138.8 111.3 138.8 C 110.1 140.2 108.4 141.1 106.5 141.1 C 102.6 141.1 100.3 137.9 100.3 133.4 Z M 106.1 127.7 C 103.6 127.7 102.6 130.4 102.5 132.6 C 102.5 132.6 109.8 132.6 109.8 132.6 C 109.7 130.4 108.8 127.7 106.1 127.7 Z " stroke="none" fill="#d3d2d2"/>  </g>  <g id="Polygon149496">    <path d="M 2.1 104.7 L 2.1 84.7 C 2.1 84.7 8.73 84.69 8.7 84.7 C 11.9 84.7 13.7 86.8 13.7 89.8 C 13.7 92.3 12.4 93.9 10.6 94.4 C 12.6 94.7 14 96.9 14 99.3 C 14 102.5 12.3 104.7 8.9 104.7 C 8.91 104.7 2.1 104.7 2.1 104.7 Z M 11.2 90.1 C 11.2 88.3 10.3 86.8 8.3 86.8 C 8.28 86.79 4.5 86.8 4.5 86.8 L 4.5 93.4 C 4.5 93.4 8.28 93.42 8.3 93.4 C 10.3 93.4 11.2 92 11.2 90.1 Z M 11.6 99.1 C 11.6 97.2 10.6 95.5 8.4 95.5 C 8.43 95.52 4.5 95.5 4.5 95.5 L 4.5 102.6 C 4.5 102.6 8.43 102.57 8.4 102.6 C 10.5 102.6 11.6 101.3 11.6 99.1 Z M 24.6 104.7 C 24.6 104.7 24.6 103.14 24.6 103.1 C 23.7 104.5 22.3 105.1 20.8 105.1 C 18.4 105.1 16.4 103.3 16.4 100.2 C 16.4 97.2 18.4 95.5 20.8 95.5 C 22.3 95.5 23.7 96 24.6 97.3 C 24.6 97.3 24.6 94.8 24.6 94.8 C 24.6 92.8 23.5 91.7 21.6 91.7 C 20.3 91.7 19.1 92.2 18 93.5 C 18 93.5 17 92 17 92 C 18.4 90.5 20.1 89.9 22 89.9 C 24.8 89.9 26.8 91.3 26.8 94.6 C 26.76 94.56 26.8 104.7 26.8 104.7 L 24.6 104.7 Z M 24.6 101.7 C 24.6 101.7 24.6 98.9 24.6 98.9 C 23.9 97.7 22.7 97.1 21.5 97.1 C 19.7 97.1 18.6 98.5 18.6 100.3 C 18.6 102.1 19.7 103.5 21.5 103.5 C 22.7 103.5 23.9 102.9 24.6 101.7 Z M 30.4 104.7 L 30.4 90.2 L 32.5 90.2 C 32.5 90.2 32.52 92.52 32.5 92.5 C 33.4 91 34.9 89.9 36.6 89.9 C 36.6 89.9 36.6 92.1 36.6 92.1 C 36.4 92.1 36.1 92 35.9 92 C 34.6 92 33.1 93.2 32.5 94.4 C 32.52 94.41 32.5 104.7 32.5 104.7 L 30.4 104.7 Z M 43.9 102.5 C 43.9 102.5 45.2 100.7 45.2 100.7 C 46.2 101.9 47.9 102.9 49.8 102.9 C 52.3 102.9 53.5 101.4 53.5 99.7 C 53.5 94.8 44.5 96.1 44.5 89.6 C 44.5 86.6 46.9 84.4 50.2 84.4 C 52.4 84.4 54.2 85.1 55.5 86.5 C 55.5 86.5 54.3 88.3 54.3 88.3 C 53.2 87.1 51.7 86.5 50.1 86.5 C 48.3 86.5 46.9 87.7 46.9 89.5 C 46.9 93.7 55.9 92.8 55.9 99.5 C 55.9 102.5 54 105.1 49.8 105.1 C 47.2 105.1 45.2 104.1 43.9 102.5 Z M 58 97.4 C 58 93.4 60.1 89.9 63.9 89.9 C 67.8 89.9 69.8 93.4 69.8 97.4 C 69.8 101.5 67.8 105.1 63.9 105.1 C 60.1 105.1 58 101.5 58 97.4 Z M 67.6 97.4 C 67.6 94.5 66.5 91.8 63.9 91.8 C 61.4 91.8 60.3 94.5 60.3 97.4 C 60.3 100.4 61.4 103.1 63.9 103.1 C 66.5 103.1 67.6 100.4 67.6 97.4 Z M 80.2 104.7 C 80.2 104.7 80.22 103.14 80.2 103.1 C 79.3 104.5 77.9 105.1 76.4 105.1 C 74.1 105.1 72 103.3 72 100.2 C 72 97.2 74 95.5 76.4 95.5 C 77.9 95.5 79.3 96 80.2 97.3 C 80.2 97.3 80.2 94.8 80.2 94.8 C 80.2 92.8 79.1 91.7 77.2 91.7 C 75.9 91.7 74.7 92.2 73.6 93.5 C 73.6 93.5 72.7 92 72.7 92 C 74 90.5 75.7 89.9 77.6 89.9 C 80.5 89.9 82.4 91.3 82.4 94.6 C 82.38 94.56 82.4 104.7 82.4 104.7 L 80.2 104.7 Z M 80.2 101.7 C 80.2 101.7 80.2 98.9 80.2 98.9 C 79.6 97.7 78.4 97.1 77.1 97.1 C 75.3 97.1 74.2 98.5 74.2 100.3 C 74.2 102.1 75.3 103.5 77.1 103.5 C 78.4 103.5 79.6 102.9 80.2 101.7 Z M 88.1 102.6 C 88.14 102.6 88.1 110.2 88.1 110.2 L 86 110.2 L 86 90.2 L 88.1 90.2 C 88.1 90.2 88.14 92.28 88.1 92.3 C 89 90.8 90.4 89.9 91.9 89.9 C 95.2 89.9 97.1 92.9 97.1 97.4 C 97.1 102 95.2 105.1 91.9 105.1 C 90.5 105.1 89 104.2 88.1 102.6 Z M 94.9 97.4 C 94.9 94.3 93.8 91.8 91.4 91.8 C 90.1 91.8 88.7 92.9 88.1 94.1 C 88.1 94.1 88.1 100.7 88.1 100.7 C 88.7 102 90.1 103.1 91.4 103.1 C 93.8 103.1 94.9 100.6 94.9 97.4 Z " stroke="none" fill="#d3d2d2"/>  </g>  <g id="Polygon149495">    <path d="M 2.1 68.7 L 2.1 48.7 L 12.4 48.7 L 12.4 50.8 L 4.5 50.8 L 4.5 57.4 L 12.2 57.4 L 12.2 59.5 L 4.5 59.5 L 4.5 66.6 L 12.4 66.6 L 12.4 68.7 L 2.1 68.7 Z M 22.9 68.7 L 19.6 62.9 L 16.3 68.7 L 13.9 68.7 L 18.3 61.3 L 14.1 54.2 L 16.5 54.2 L 19.6 59.7 L 22.7 54.2 L 25.1 54.2 L 20.9 61.3 L 25.3 68.7 L 22.9 68.7 Z M 27.8 65.8 C 27.81 65.79 27.8 56.1 27.8 56.1 L 25.9 56.1 L 25.9 54.2 L 27.8 54.2 L 27.8 50.3 L 30 50.3 L 30 54.2 L 32.4 54.2 L 32.4 56.1 L 30 56.1 C 30 56.1 29.97 65.4 30 65.4 C 30 66.5 30.3 67.1 31.1 67.1 C 31.7 67.1 32.1 66.9 32.4 66.6 C 32.4 66.6 33.1 68.2 33.1 68.2 C 32.5 68.7 31.8 69.1 30.7 69.1 C 28.7 69.1 27.8 68 27.8 65.8 Z M 35 68.7 L 35 54.2 L 37.1 54.2 C 37.1 54.2 37.11 56.52 37.1 56.5 C 38 55 39.4 53.9 41.2 53.9 C 41.2 53.9 41.2 56.1 41.2 56.1 C 41 56.1 40.7 56 40.5 56 C 39.2 56 37.7 57.2 37.1 58.4 C 37.11 58.41 37.1 68.7 37.1 68.7 L 35 68.7 Z M 51.2 68.7 C 51.2 68.7 51.24 66.69 51.2 66.7 C 50.4 68 48.8 69.1 47 69.1 C 44.6 69.1 43.4 67.8 43.4 65.2 C 43.41 65.19 43.4 54.2 43.4 54.2 L 45.5 54.2 C 45.5 54.2 45.54 64.56 45.5 64.6 C 45.5 66.5 46.4 67.1 47.8 67.1 C 49.3 67.1 50.6 66.1 51.2 64.9 C 51.24 64.89 51.2 54.2 51.2 54.2 L 53.4 54.2 L 53.4 68.7 L 51.2 68.7 Z M 65.3 68.7 C 65.3 68.7 65.34 66.63 65.3 66.6 C 64.5 68.1 63.1 69.1 61.5 69.1 C 58.3 69.1 56.3 66 56.3 61.5 C 56.3 57 58.3 53.9 61.5 53.9 C 63 53.9 64.5 54.7 65.3 56.3 C 65.34 56.31 65.3 48.7 65.3 48.7 L 67.5 48.7 L 67.5 68.7 L 65.3 68.7 Z M 65.3 64.8 C 65.3 64.8 65.3 58.1 65.3 58.1 C 64.8 56.9 63.4 55.8 62.1 55.8 C 59.7 55.8 58.6 58.3 58.6 61.5 C 58.6 64.6 59.7 67.1 62.1 67.1 C 63.4 67.1 64.8 66.1 65.3 64.8 Z M 70.4 61.4 C 70.4 57.2 72.7 53.9 76.3 53.9 C 80.1 53.9 82 57.3 82 61.5 C 82.05 61.5 82 62.2 82 62.2 C 82 62.2 72.66 62.16 72.7 62.2 C 72.7 65.1 74.2 67.3 76.8 67.3 C 78.1 67.3 79.4 66.6 80.3 65.5 C 80.3 65.5 81.4 66.8 81.4 66.8 C 80.2 68.2 78.6 69.1 76.6 69.1 C 72.8 69.1 70.4 65.9 70.4 61.4 Z M 76.3 55.7 C 73.7 55.7 72.7 58.4 72.7 60.6 C 72.7 60.6 79.9 60.6 79.9 60.6 C 79.9 58.4 78.9 55.7 76.3 55.7 Z M 93.2 68.7 C 93.2 68.7 93.18 66.63 93.2 66.6 C 92.3 68.1 90.9 69.1 89.4 69.1 C 86.1 69.1 84.2 66 84.2 61.5 C 84.2 57 86.1 53.9 89.4 53.9 C 90.8 53.9 92.3 54.7 93.2 56.3 C 93.18 56.31 93.2 48.7 93.2 48.7 L 95.3 48.7 L 95.3 68.7 L 93.2 68.7 Z M 93.2 64.8 C 93.2 64.8 93.2 58.1 93.2 58.1 C 92.6 56.9 91.3 55.8 89.9 55.8 C 87.5 55.8 86.4 58.3 86.4 61.5 C 86.4 64.6 87.5 67.1 89.9 67.1 C 91.3 67.1 92.6 66.1 93.2 64.8 Z M 107.3 66.6 C 107.28 66.6 107.3 74.2 107.3 74.2 L 105.1 74.2 L 105.1 54.2 L 107.3 54.2 C 107.3 54.2 107.28 56.28 107.3 56.3 C 108.1 54.8 109.6 53.9 111.1 53.9 C 114.4 53.9 116.3 56.9 116.3 61.4 C 116.3 66 114.4 69.1 111.1 69.1 C 109.6 69.1 108.2 68.2 107.3 66.6 Z M 114 61.4 C 114 58.3 112.9 55.8 110.5 55.8 C 109.2 55.8 107.8 56.9 107.3 58.1 C 107.3 58.1 107.3 64.7 107.3 64.7 C 107.8 66 109.2 67.1 110.5 67.1 C 112.9 67.1 114 64.6 114 61.4 Z M 118.5 61.4 C 118.5 57.4 120.5 53.9 124.3 53.9 C 128.2 53.9 130.3 57.4 130.3 61.4 C 130.3 65.5 128.2 69.1 124.3 69.1 C 120.5 69.1 118.5 65.5 118.5 61.4 Z M 128 61.4 C 128 58.5 126.9 55.8 124.3 55.8 C 121.9 55.8 120.7 58.5 120.7 61.4 C 120.7 64.4 121.9 67.1 124.3 67.1 C 126.9 67.1 128 64.4 128 61.4 Z M 133.2 68.7 L 133.2 48.7 L 135.3 48.7 L 135.3 68.7 L 133.2 68.7 Z M 138.6 72.5 C 138.8 72.6 139.3 72.7 139.5 72.7 C 140.4 72.7 140.8 72.3 141.2 71.2 C 141.24 71.22 142 69 142 69 L 137.2 54.2 L 139.5 54.2 L 143.1 66.1 L 146.8 54.2 L 149.1 54.2 C 149.1 54.2 143.28 71.76 143.3 71.8 C 142.6 73.9 141.4 74.6 139.7 74.6 C 139.2 74.6 138.6 74.5 138.2 74.4 C 138.2 74.4 138.6 72.5 138.6 72.5 Z M 149.8 67 C 149.8 67 150.8 65.5 150.8 65.5 C 151.7 66.5 153.1 67.3 154.6 67.3 C 156.3 67.3 157.4 66.4 157.4 65 C 157.4 61.6 150.2 62.8 150.2 57.8 C 150.2 55.6 151.9 53.9 154.8 53.9 C 156.7 53.9 158.2 54.6 159.2 55.7 C 159.2 55.7 158.2 57.2 158.2 57.2 C 157.5 56.2 156.2 55.6 154.8 55.6 C 153.2 55.6 152.2 56.5 152.2 57.7 C 152.2 60.8 159.5 59.7 159.5 64.9 C 159.5 67.3 157.6 69.1 154.6 69.1 C 152.6 69.1 151 68.4 149.8 67 Z M 162.7 65.8 C 162.66 65.79 162.7 56.1 162.7 56.1 L 160.7 56.1 L 160.7 54.2 L 162.7 54.2 L 162.7 50.3 L 164.8 50.3 L 164.8 54.2 L 167.3 54.2 L 167.3 56.1 L 164.8 56.1 C 164.8 56.1 164.82 65.4 164.8 65.4 C 164.8 66.5 165.1 67.1 166 67.1 C 166.5 67.1 167 66.9 167.2 66.6 C 167.2 66.6 167.9 68.2 167.9 68.2 C 167.4 68.7 166.7 69.1 165.6 69.1 C 163.6 69.1 162.7 68 162.7 65.8 Z M 169.4 72.5 C 169.7 72.6 170.1 72.7 170.4 72.7 C 171.2 72.7 171.7 72.3 172.1 71.2 C 172.08 71.22 172.9 69 172.9 69 L 168 54.2 L 170.4 54.2 L 174 66.1 L 177.6 54.2 L 179.9 54.2 C 179.9 54.2 174.12 71.76 174.1 71.8 C 173.4 73.9 172.2 74.6 170.5 74.6 C 170.1 74.6 169.4 74.5 169.1 74.4 C 169.1 74.4 169.4 72.5 169.4 72.5 Z M 181.8 68.7 L 181.8 54.2 L 183.9 54.2 C 183.9 54.2 183.9 56.52 183.9 56.5 C 184.8 55 186.2 53.9 188 53.9 C 188 53.9 188 56.1 188 56.1 C 187.8 56.1 187.5 56 187.3 56 C 186 56 184.5 57.2 183.9 58.4 C 183.9 58.41 183.9 68.7 183.9 68.7 L 181.8 68.7 Z M 189.5 61.4 C 189.5 57.2 191.7 53.9 195.4 53.9 C 199.2 53.9 201.1 57.3 201.1 61.5 C 201.09 61.5 201.1 62.2 201.1 62.2 C 201.1 62.2 191.7 62.16 191.7 62.2 C 191.8 65.1 193.3 67.3 195.9 67.3 C 197.1 67.3 198.4 66.6 199.3 65.5 C 199.3 65.5 200.5 66.8 200.5 66.8 C 199.3 68.2 197.6 69.1 195.7 69.1 C 191.8 69.1 189.5 65.9 189.5 61.4 Z M 195.3 55.7 C 192.8 55.7 191.8 58.4 191.7 60.6 C 191.7 60.6 199 60.6 199 60.6 C 198.9 58.4 198 55.7 195.3 55.7 Z M 211.8 68.7 C 211.8 68.7 211.77 58.38 211.8 58.4 C 211.8 56.5 210.9 55.8 209.5 55.8 C 208 55.8 206.7 56.9 206.1 58.1 C 206.07 58.08 206.1 68.7 206.1 68.7 L 203.9 68.7 L 203.9 54.2 L 206.1 54.2 C 206.1 54.2 206.07 56.28 206.1 56.3 C 206.9 55 208.5 53.9 210.3 53.9 C 212.7 53.9 213.9 55.2 213.9 57.8 C 213.93 57.78 213.9 68.7 213.9 68.7 L 211.8 68.7 Z M 216.9 61.4 C 216.9 57.2 219.1 53.9 222.7 53.9 C 226.6 53.9 228.5 57.3 228.5 61.5 C 228.47 61.5 228.5 62.2 228.5 62.2 C 228.5 62.2 219.08 62.16 219.1 62.2 C 219.2 65.1 220.7 67.3 223.3 67.3 C 224.5 67.3 225.8 66.6 226.7 65.5 C 226.7 65.5 227.8 66.8 227.8 66.8 C 226.7 68.2 225 69.1 223.1 69.1 C 219.2 69.1 216.9 65.9 216.9 61.4 Z M 222.7 55.7 C 220.2 55.7 219.1 58.4 219.1 60.6 C 219.1 60.6 226.3 60.6 226.3 60.6 C 226.3 58.4 225.4 55.7 222.7 55.7 Z " stroke="none" fill="#d3d2d2"/>  </g>  <g id="Polygon149494">    <path d="M 2.1 32.7 L 2.1 12.7 C 2.1 12.7 8.19 12.69 8.2 12.7 C 11.8 12.7 13.7 15.5 13.7 18.7 C 13.7 21.9 11.8 24.7 8.2 24.7 C 8.19 24.69 4.5 24.7 4.5 24.7 L 4.5 32.7 L 2.1 32.7 Z M 11.3 18.7 C 11.3 16.4 10 14.8 7.9 14.8 C 7.95 14.79 4.5 14.8 4.5 14.8 L 4.5 22.6 C 4.5 22.6 7.95 22.59 7.9 22.6 C 10 22.6 11.3 21 11.3 18.7 Z M 23.2 32.7 C 23.2 32.7 23.16 31.14 23.2 31.1 C 22.2 32.5 20.8 33.1 19.4 33.1 C 17 33.1 15 31.3 15 28.2 C 15 25.2 17 23.5 19.4 23.5 C 20.8 23.5 22.3 24 23.2 25.3 C 23.2 25.3 23.2 22.8 23.2 22.8 C 23.2 20.8 22.1 19.7 20.2 19.7 C 18.8 19.7 17.7 20.2 16.6 21.5 C 16.6 21.5 15.6 20 15.6 20 C 17 18.5 18.7 17.9 20.5 17.9 C 23.4 17.9 25.3 19.3 25.3 22.6 C 25.32 22.56 25.3 32.7 25.3 32.7 L 23.2 32.7 Z M 23.2 29.7 C 23.2 29.7 23.2 26.9 23.2 26.9 C 22.5 25.7 21.3 25.1 20 25.1 C 18.2 25.1 17.2 26.5 17.2 28.3 C 17.2 30.1 18.2 31.5 20 31.5 C 21.3 31.5 22.5 30.9 23.2 29.7 Z M 31.1 30.6 C 31.08 30.6 31.1 38.2 31.1 38.2 L 28.9 38.2 L 28.9 18.2 L 31.1 18.2 C 31.1 18.2 31.08 20.28 31.1 20.3 C 31.9 18.8 33.4 17.9 34.9 17.9 C 38.2 17.9 40.1 20.9 40.1 25.4 C 40.1 30 38.2 33.1 34.9 33.1 C 33.4 33.1 32 32.2 31.1 30.6 Z M 37.8 25.4 C 37.8 22.3 36.7 19.8 34.3 19.8 C 33 19.8 31.6 20.9 31.1 22.1 C 31.1 22.1 31.1 28.7 31.1 28.7 C 31.6 30 33 31.1 34.3 31.1 C 36.7 31.1 37.8 28.6 37.8 25.4 Z M 42.3 25.4 C 42.3 21.2 44.5 17.9 48.1 17.9 C 52 17.9 53.9 21.3 53.9 25.5 C 53.88 25.5 53.9 26.2 53.9 26.2 C 53.9 26.2 44.49 26.16 44.5 26.2 C 44.6 29.1 46.1 31.3 48.7 31.3 C 49.9 31.3 51.2 30.6 52.1 29.5 C 52.1 29.5 53.2 30.8 53.2 30.8 C 52.1 32.2 50.4 33.1 48.5 33.1 C 44.6 33.1 42.3 29.9 42.3 25.4 Z M 48.1 19.7 C 45.6 19.7 44.5 22.4 44.5 24.6 C 44.5 24.6 51.7 24.6 51.7 24.6 C 51.7 22.4 50.8 19.7 48.1 19.7 Z M 56.7 32.7 L 56.7 18.2 L 58.9 18.2 C 58.9 18.2 58.86 20.52 58.9 20.5 C 59.8 19 61.2 17.9 63 17.9 C 63 17.9 63 20.1 63 20.1 C 62.7 20.1 62.5 20 62.2 20 C 60.9 20 59.5 21.2 58.9 22.4 C 58.86 22.41 58.9 32.7 58.9 32.7 L 56.7 32.7 Z M 73.4 30.6 C 73.44 30.6 73.4 38.2 73.4 38.2 L 71.3 38.2 L 71.3 18.2 L 73.4 18.2 C 73.4 18.2 73.44 20.28 73.4 20.3 C 74.3 18.8 75.7 17.9 77.2 17.9 C 80.5 17.9 82.4 20.9 82.4 25.4 C 82.4 30 80.5 33.1 77.2 33.1 C 75.8 33.1 74.3 32.2 73.4 30.6 Z M 80.2 25.4 C 80.2 22.3 79.1 19.8 76.7 19.8 C 75.4 19.8 74 20.9 73.4 22.1 C 73.4 22.1 73.4 28.7 73.4 28.7 C 74 30 75.4 31.1 76.7 31.1 C 79.1 31.1 80.2 28.6 80.2 25.4 Z M 93.2 32.7 C 93.2 32.7 93.18 30.69 93.2 30.7 C 92.3 32 90.8 33.1 89 33.1 C 86.5 33.1 85.3 31.8 85.3 29.2 C 85.35 29.19 85.3 18.2 85.3 18.2 L 87.5 18.2 C 87.5 18.2 87.48 28.56 87.5 28.6 C 87.5 30.5 88.4 31.1 89.8 31.1 C 91.2 31.1 92.5 30.1 93.2 28.9 C 93.18 28.89 93.2 18.2 93.2 18.2 L 95.3 18.2 L 95.3 32.7 L 93.2 32.7 Z M 99 32.7 L 99 12.7 L 101.1 12.7 L 101.1 32.7 L 99 32.7 Z M 106.9 30.6 C 106.92 30.6 106.9 38.2 106.9 38.2 L 104.8 38.2 L 104.8 18.2 L 106.9 18.2 C 106.9 18.2 106.92 20.28 106.9 20.3 C 107.8 18.8 109.2 17.9 110.7 17.9 C 114 17.9 115.9 20.9 115.9 25.4 C 115.9 30 114 33.1 110.7 33.1 C 109.3 33.1 107.8 32.2 106.9 30.6 Z M 113.7 25.4 C 113.7 22.3 112.6 19.8 110.2 19.8 C 108.8 19.8 107.5 20.9 106.9 22.1 C 106.9 22.1 106.9 28.7 106.9 28.7 C 107.5 30 108.8 31.1 110.2 31.1 C 112.6 31.1 113.7 28.6 113.7 25.4 Z " stroke="none" fill="#d3d2d2"/>  </g></svg>