<?xml version="1.0" standalone="no"?><!DOCTYPE svg PUBLIC "-//W3C//DTD SVG 1.1//EN" "http://www.w3.org/Graphics/SVG/1.1/DTD/svg11.dtd"><svg xmlns="http://www.w3.org/2000/svg" version="1.1" width="651px" height="85.6px" viewBox="0 0 651 85.6">  <desc>Flavoured Slime</desc>  <defs/>  <g id="Polygon211127">    <path d="M 3.1 47.4 L 3.1 7.4 L 20.6 7.4 L 20.6 14 L 10.7 14 L 10.7 23.7 L 20.2 23.7 L 20.2 30.4 L 10.7 30.4 L 10.7 47.4 L 3.1 47.4 Z M 25.3 47.4 L 25.3 7.4 L 32.1 7.4 L 32.1 47.4 L 25.3 47.4 Z M 50.2 47.4 C 50.2 47.4 50.16 44.64 50.2 44.6 C 48.9 46.9 46.2 48.1 44.1 48.1 C 39.5 48.1 36.2 44.4 36.2 38.5 C 36.2 32.6 39.5 29 44.1 29 C 46.2 29 49 30.1 50.2 32.3 C 50.2 32.3 50.2 28.7 50.2 28.7 C 50.2 25.4 48.8 23.5 45.8 23.5 C 43.9 23.5 41.8 24.4 39.9 26.3 C 39.9 26.3 37.4 21.5 37.4 21.5 C 40 18.7 44.2 17.7 47.2 17.7 C 53.1 17.7 56.9 20.7 56.9 27.2 C 56.94 27.18 56.9 47.4 56.9 47.4 L 50.2 47.4 Z M 50.2 40.6 C 50.2 40.6 50.2 36.7 50.2 36.7 C 49.4 34.9 48 33.7 46.5 33.7 C 44.2 33.7 43 35.8 43 38.6 C 43 41.3 44.2 43.6 46.5 43.6 C 48 43.6 49.4 42.4 50.2 40.6 Z M 67.4 47.4 L 59.8 18.4 L 67 18.4 L 71.1 38.9 L 75.3 18.4 L 82.4 18.4 L 74.8 47.4 L 67.4 47.4 Z M 84.1 32.9 C 84.1 24.8 87.4 17.7 95 17.7 C 102.6 17.7 105.9 24.8 105.9 32.9 C 105.9 40.9 102.6 48.1 95 48.1 C 87.4 48.1 84.1 40.9 84.1 32.9 Z M 98.9 32.9 C 98.9 28 98 23.7 95 23.7 C 92 23.7 91.1 28 91.1 32.9 C 91.1 37.9 92 42.1 95 42.1 C 98 42.1 98.9 37.9 98.9 32.9 Z M 123.2 47.4 C 123.2 47.4 123.18 43.74 123.2 43.7 C 122 46.1 119.2 48.1 116.4 48.1 C 112 48.1 110.3 45.7 110.3 41.6 C 110.28 41.58 110.3 18.4 110.3 18.4 L 117.1 18.4 C 117.1 18.4 117.06 39.18 117.1 39.2 C 117.1 41.2 117.8 42.1 119.3 42.1 C 121 42.1 122.5 40.3 123.2 38.5 C 123.18 38.46 123.2 18.4 123.2 18.4 L 130 18.4 L 130 47.4 L 123.2 47.4 Z M 135.5 47.4 L 135.5 18.4 L 142.3 18.4 C 142.3 18.4 142.26 22.44 142.3 22.4 C 143.4 19.8 146.2 17.7 148.7 17.7 C 148.7 17.7 148.7 24.4 148.7 24.4 C 148.3 24.2 147.8 24.2 147.4 24.2 C 145.4 24.2 143.4 25.8 142.3 27.9 C 142.26 27.9 142.3 47.4 142.3 47.4 L 135.5 47.4 Z M 151.1 32.9 C 151.1 24.5 154.7 17.7 162 17.7 C 169.3 17.7 172.4 24.2 172.4 32.8 C 172.38 32.76 172.4 35.1 172.4 35.1 C 172.4 35.1 157.68 35.1 157.7 35.1 C 157.7 39.4 159.5 42.6 163.4 42.6 C 165 42.6 166.9 41.5 168.2 39.7 C 168.2 39.7 171.5 43.5 171.5 43.5 C 169.2 46.4 166 48.1 162.7 48.1 C 155.1 48.1 151.1 41.8 151.1 32.9 Z M 161.8 23.2 C 158.5 23.2 157.7 27.3 157.7 30.4 C 157.7 30.4 165.8 30.4 165.8 30.4 C 165.8 27.1 165.1 23.2 161.8 23.2 Z M 189.6 47.4 C 189.6 47.4 189.6 43.8 189.6 43.8 C 188.3 46.7 186 48.1 184 48.1 C 178.3 48.1 175.4 42.2 175.4 32.9 C 175.4 23.8 178.3 17.7 184 17.7 C 186 17.7 188.4 19 189.6 22 C 189.6 22.02 189.6 7.4 189.6 7.4 L 196.4 7.4 L 196.4 47.4 L 189.6 47.4 Z M 189.6 38.6 C 189.6 38.6 189.6 27.2 189.6 27.2 C 189 25.3 187.6 23.7 186.2 23.7 C 183.2 23.7 182.3 27.8 182.3 32.9 C 182.3 38 183.2 42.1 186.2 42.1 C 187.6 42.1 189 40.6 189.6 38.6 Z M 209.6 44.2 C 209.6 44.2 212.9 38.2 212.9 38.2 C 214.6 40.3 217.1 41.4 219.5 41.4 C 221.9 41.4 223.5 39.6 223.5 37 C 223.5 29.9 210.8 29.9 210.8 17.9 C 210.8 11.9 214.9 6.7 221.9 6.7 C 225.3 6.7 228.4 7.9 230.6 10 C 230.6 10 227.7 15.8 227.7 15.8 C 226.1 14.2 224.3 13.4 222.2 13.4 C 220 13.4 218.5 15.1 218.5 17.5 C 218.5 23.7 231.2 24.5 231.2 36.5 C 231.2 43.3 226.8 48.1 220 48.1 C 215.6 48.1 212.2 46.7 209.6 44.2 Z M 235.4 47.4 L 235.4 7.4 L 242.2 7.4 L 242.2 47.4 L 235.4 47.4 Z M 246.9 10.9 C 246.9 8.6 248.8 6.8 251 6.8 C 253.3 6.8 255.2 8.6 255.2 10.9 C 255.2 13.2 253.3 15 251 15 C 248.8 15 246.9 13.2 246.9 10.9 Z M 247.7 47.4 L 247.7 18.4 L 254.5 18.4 L 254.5 47.4 L 247.7 47.4 Z M 285.8 47.4 C 285.8 47.4 285.78 26.76 285.8 26.8 C 285.8 24.6 285 23.7 283.6 23.7 C 281.7 23.7 280.3 25.7 279.7 27.5 C 279.66 27.48 279.7 47.4 279.7 47.4 L 272.8 47.4 C 272.8 47.4 272.82 26.76 272.8 26.8 C 272.8 24.8 272.2 23.7 270.6 23.7 C 268.8 23.7 267.3 25.7 266.7 27.5 C 266.7 27.48 266.7 47.4 266.7 47.4 L 259.9 47.4 L 259.9 18.4 L 266.7 18.4 C 266.7 18.4 266.7 22.2 266.7 22.2 C 267.7 20 270.7 17.7 273.5 17.7 C 276.5 17.7 278.9 19.2 279.4 22.5 C 280.5 20.1 283.6 17.7 286.4 17.7 C 290 17.7 292.6 19.6 292.6 24.3 C 292.56 24.3 292.6 47.4 292.6 47.4 L 285.8 47.4 Z M 296.9 32.9 C 296.9 24.5 300.5 17.7 307.8 17.7 C 315.1 17.7 318.2 24.2 318.2 32.8 C 318.17 32.76 318.2 35.1 318.2 35.1 C 318.2 35.1 303.47 35.1 303.5 35.1 C 303.5 39.4 305.3 42.6 309.2 42.6 C 310.8 42.6 312.7 41.5 314 39.7 C 314 39.7 317.3 43.5 317.3 43.5 C 315 46.4 311.8 48.1 308.5 48.1 C 300.9 48.1 296.9 41.8 296.9 32.9 Z M 307.6 23.2 C 304.3 23.2 303.5 27.3 303.5 30.4 C 303.5 30.4 311.6 30.4 311.6 30.4 C 311.6 27.1 310.9 23.2 307.6 23.2 Z " stroke="none" fill="#b13d24"/>  </g></svg>