<?xml version="1.0" standalone="no"?><!DOCTYPE svg PUBLIC "-//W3C//DTD SVG 1.1//EN" "http://www.w3.org/Graphics/SVG/1.1/DTD/svg11.dtd"><svg xmlns="http://www.w3.org/2000/svg" version="1.1" width="651px" height="85.6px" viewBox="0 0 651 85.6">  <desc>Talcum Paste Battered Rag</desc>  <defs/>  <g id="Polygon202343">    <path d="M 7.1 47.4 L 7.1 14 L 1.1 14 L 1.1 7.4 L 20.8 7.4 L 20.8 14 L 14.7 14 L 14.7 47.4 L 7.1 47.4 Z M 34.4 47.4 C 34.4 47.4 34.44 44.64 34.4 44.6 C 33.2 46.9 30.5 48.1 28.4 48.1 C 23.8 48.1 20.5 44.4 20.5 38.5 C 20.5 32.6 23.8 29 28.4 29 C 30.5 29 33.2 30.1 34.4 32.3 C 34.4 32.3 34.4 28.7 34.4 28.7 C 34.4 25.4 33.1 23.5 30.1 23.5 C 28.1 23.5 26.1 24.4 24.2 26.3 C 24.2 26.3 21.7 21.5 21.7 21.5 C 24.3 18.7 28.4 17.7 31.4 17.7 C 37.4 17.7 41.2 20.7 41.2 27.2 C 41.22 27.18 41.2 47.4 41.2 47.4 L 34.4 47.4 Z M 34.4 40.6 C 34.4 40.6 34.4 36.7 34.4 36.7 C 33.7 34.9 32.3 33.7 30.8 33.7 C 28.4 33.7 27.3 35.8 27.3 38.6 C 27.3 41.3 28.4 43.6 30.8 43.6 C 32.3 43.6 33.7 42.4 34.4 40.6 Z M 46.7 47.4 L 46.7 7.4 L 53.5 7.4 L 53.5 47.4 L 46.7 47.4 Z M 57.8 32.9 C 57.8 24.1 61.9 17.7 68.9 17.7 C 72.1 17.7 74.5 18.9 75.9 20.3 C 75.9 20.3 73.7 25.6 73.7 25.6 C 72.5 24.3 71.5 23.7 70.1 23.7 C 66.5 23.7 64.8 27.8 64.8 32.9 C 64.8 37.9 66.5 42.1 70.1 42.1 C 71.5 42.1 72.5 41.5 73.7 40.3 C 73.7 40.3 75.9 45.5 75.9 45.5 C 74.5 47 72.1 48.1 68.9 48.1 C 61.9 48.1 57.8 41.7 57.8 32.9 Z M 92.5 47.4 C 92.5 47.4 92.52 43.74 92.5 43.7 C 91.4 46.1 88.6 48.1 85.7 48.1 C 81.4 48.1 79.6 45.7 79.6 41.6 C 79.62 41.58 79.6 18.4 79.6 18.4 L 86.4 18.4 C 86.4 18.4 86.4 39.18 86.4 39.2 C 86.4 41.2 87.1 42.1 88.6 42.1 C 90.4 42.1 91.9 40.3 92.5 38.5 C 92.52 38.46 92.5 18.4 92.5 18.4 L 99.4 18.4 L 99.4 47.4 L 92.5 47.4 Z M 130.7 47.4 C 130.7 47.4 130.68 26.76 130.7 26.8 C 130.7 24.6 129.9 23.7 128.5 23.7 C 126.6 23.7 125.2 25.7 124.6 27.5 C 124.56 27.48 124.6 47.4 124.6 47.4 L 117.7 47.4 C 117.7 47.4 117.72 26.76 117.7 26.8 C 117.7 24.8 117.1 23.7 115.5 23.7 C 113.7 23.7 112.2 25.7 111.6 27.5 C 111.6 27.48 111.6 47.4 111.6 47.4 L 104.8 47.4 L 104.8 18.4 L 111.6 18.4 C 111.6 18.4 111.6 22.2 111.6 22.2 C 112.6 20 115.6 17.7 118.4 17.7 C 121.4 17.7 123.8 19.2 124.3 22.5 C 125.4 20.1 128.5 17.7 131.3 17.7 C 134.9 17.7 137.5 19.6 137.5 24.3 C 137.46 24.3 137.5 47.4 137.5 47.4 L 130.7 47.4 Z M 153.1 47.4 L 153.1 7.4 C 153.1 7.4 163.92 7.38 163.9 7.4 C 171.7 7.4 175.2 13.3 175.2 20 C 175.2 26.8 171.7 32.7 163.9 32.7 C 163.92 32.7 160.7 32.7 160.7 32.7 L 160.7 47.4 L 153.1 47.4 Z M 167.5 20 C 167.5 16.4 166 14 163.1 14 C 163.14 14.04 160.7 14 160.7 14 L 160.7 26 C 160.7 26 163.14 26.04 163.1 26 C 166 26 167.5 23.6 167.5 20 Z M 190.9 47.4 C 190.9 47.4 190.92 44.64 190.9 44.6 C 189.7 46.9 187 48.1 184.9 48.1 C 180.3 48.1 177 44.4 177 38.5 C 177 32.6 180.3 29 184.9 29 C 187 29 189.7 30.1 190.9 32.3 C 190.9 32.3 190.9 28.7 190.9 28.7 C 190.9 25.4 189.6 23.5 186.5 23.5 C 184.6 23.5 182.6 24.4 180.7 26.3 C 180.7 26.3 178.1 21.5 178.1 21.5 C 180.8 18.7 184.9 17.7 187.9 17.7 C 193.9 17.7 197.7 20.7 197.7 27.2 C 197.7 27.18 197.7 47.4 197.7 47.4 L 190.9 47.4 Z M 190.9 40.6 C 190.9 40.6 190.9 36.7 190.9 36.7 C 190.2 34.9 188.8 33.7 187.3 33.7 C 184.9 33.7 183.8 35.8 183.8 38.6 C 183.8 41.3 184.9 43.6 187.3 43.6 C 188.8 43.6 190.2 42.4 190.9 40.6 Z M 201.2 44.3 C 201.2 44.3 204 39.7 204 39.7 C 205.6 41.4 207.7 42.8 210 42.8 C 212.2 42.8 213.7 41.6 213.7 39.7 C 213.7 34.9 202.2 36 202.2 25.9 C 202.2 21.5 205.5 17.7 211.4 17.7 C 214.7 17.7 217.8 19 220 21.1 C 220 21.1 217.2 25.7 217.2 25.7 C 216.1 24.3 214 23 211.6 23 C 209.8 23 208.5 24.2 208.5 25.7 C 208.5 30.1 220.1 29.3 220.1 39.5 C 220.1 44.6 216.1 48.1 210.6 48.1 C 206.3 48.1 203.1 46.6 201.2 44.3 Z M 224.9 40.7 C 224.88 40.74 224.9 24.3 224.9 24.3 L 222.2 24.3 L 222.2 18.4 L 224.9 18.4 L 224.9 10.5 L 231.7 10.5 L 231.7 18.4 L 235.3 18.4 L 235.3 24.3 L 231.7 24.3 C 231.7 24.3 231.66 39.42 231.7 39.4 C 231.7 41.2 232.1 42.1 233.3 42.1 C 233.9 42.1 234.5 41.8 234.9 41.3 C 234.9 41.3 236.3 46.6 236.3 46.6 C 235.3 47.5 233.6 48.1 231.5 48.1 C 226.8 48.1 224.9 45.7 224.9 40.7 Z M 238.3 32.9 C 238.3 24.5 241.9 17.7 249.2 17.7 C 256.5 17.7 259.6 24.2 259.6 32.8 C 259.56 32.76 259.6 35.1 259.6 35.1 C 259.6 35.1 244.86 35.1 244.9 35.1 C 244.9 39.4 246.7 42.6 250.6 42.6 C 252.2 42.6 254 41.5 255.4 39.7 C 255.4 39.7 258.7 43.5 258.7 43.5 C 256.4 46.4 253.1 48.1 249.8 48.1 C 242.3 48.1 238.3 41.8 238.3 32.9 Z M 249 23.2 C 245.7 23.2 244.9 27.3 244.9 30.4 C 244.9 30.4 253 30.4 253 30.4 C 253 27.1 252.3 23.2 249 23.2 Z M 273.8 47.4 L 273.8 7.4 C 273.8 7.4 285.9 7.38 285.9 7.4 C 292.6 7.4 295.5 12.1 295.5 17.6 C 295.5 22.6 293.1 25.7 289.6 26.8 C 293.4 27.4 296 31.7 296 36.6 C 296 42.7 293.2 47.4 286.3 47.4 C 286.32 47.4 273.8 47.4 273.8 47.4 Z M 287.8 18.9 C 287.8 16 286.7 14 283.9 14 C 283.92 14.04 281.4 14 281.4 14 L 281.4 23.7 C 281.4 23.7 283.92 23.7 283.9 23.7 C 286.7 23.7 287.8 21.8 287.8 18.9 Z M 288.3 35.5 C 288.3 32.6 287 30.4 284.2 30.4 C 284.16 30.36 281.4 30.4 281.4 30.4 L 281.4 40.7 C 281.4 40.7 284.16 40.74 284.2 40.7 C 287 40.7 288.3 38.9 288.3 35.5 Z M 313.2 47.4 C 313.2 47.4 313.2 44.64 313.2 44.6 C 311.9 46.9 309.2 48.1 307.1 48.1 C 302.6 48.1 299.3 44.4 299.3 38.5 C 299.3 32.6 302.6 29 307.1 29 C 309.2 29 312 30.1 313.2 32.3 C 313.2 32.3 313.2 28.7 313.2 28.7 C 313.2 25.4 311.9 23.5 308.8 23.5 C 306.9 23.5 304.9 24.4 302.9 26.3 C 302.9 26.3 300.4 21.5 300.4 21.5 C 303.1 18.7 307.2 17.7 310.2 17.7 C 316.1 17.7 320 20.7 320 27.2 C 319.98 27.18 320 47.4 320 47.4 L 313.2 47.4 Z M 313.2 40.6 C 313.2 40.6 313.2 36.7 313.2 36.7 C 312.5 34.9 311 33.7 309.5 33.7 C 307.2 33.7 306.1 35.8 306.1 38.6 C 306.1 41.3 307.2 43.6 309.5 43.6 C 311 43.6 312.5 42.4 313.2 40.6 Z M 326.4 40.7 C 326.4 40.74 326.4 24.3 326.4 24.3 L 323.7 24.3 L 323.7 18.4 L 326.4 18.4 L 326.4 10.5 L 333.2 10.5 L 333.2 18.4 L 336.8 18.4 L 336.8 24.3 L 333.2 24.3 C 333.2 24.3 333.18 39.42 333.2 39.4 C 333.2 41.2 333.6 42.1 334.8 42.1 C 335.5 42.1 336.1 41.8 336.4 41.3 C 336.4 41.3 337.8 46.6 337.8 46.6 C 336.8 47.5 335.2 48.1 333.1 48.1 C 328.3 48.1 326.4 45.7 326.4 40.7 Z M 341.9 40.7 C 341.88 40.74 341.9 24.3 341.9 24.3 L 339.2 24.3 L 339.2 18.4 L 341.9 18.4 L 341.9 10.5 L 348.7 10.5 L 348.7 18.4 L 352.3 18.4 L 352.3 24.3 L 348.7 24.3 C 348.7 24.3 348.66 39.42 348.7 39.4 C 348.7 41.2 349.1 42.1 350.3 42.1 C 350.9 42.1 351.5 41.8 351.9 41.3 C 351.9 41.3 353.3 46.6 353.3 46.6 C 352.3 47.5 350.6 48.1 348.5 48.1 C 343.8 48.1 341.9 45.7 341.9 40.7 Z M 355.3 32.9 C 355.3 24.5 358.9 17.7 366.2 17.7 C 373.5 17.7 376.6 24.2 376.6 32.8 C 376.55 32.76 376.6 35.1 376.6 35.1 C 376.6 35.1 361.85 35.1 361.9 35.1 C 361.9 39.4 363.7 42.6 367.6 42.6 C 369.2 42.6 371 41.5 372.4 39.7 C 372.4 39.7 375.7 43.5 375.7 43.5 C 373.4 46.4 370.1 48.1 366.8 48.1 C 359.3 48.1 355.3 41.8 355.3 32.9 Z M 366 23.2 C 362.7 23.2 361.9 27.3 361.9 30.4 C 361.9 30.4 370 30.4 370 30.4 C 370 27.1 369.3 23.2 366 23.2 Z M 380.7 47.4 L 380.7 18.4 L 387.5 18.4 C 387.5 18.4 387.47 22.44 387.5 22.4 C 388.6 19.8 391.4 17.7 394 17.7 C 394 17.7 394 24.4 394 24.4 C 393.5 24.2 393.1 24.2 392.6 24.2 C 390.7 24.2 388.6 25.8 387.5 27.9 C 387.47 27.9 387.5 47.4 387.5 47.4 L 380.7 47.4 Z M 396.4 32.9 C 396.4 24.5 400 17.7 407.2 17.7 C 414.5 17.7 417.6 24.2 417.6 32.8 C 417.59 32.76 417.6 35.1 417.6 35.1 C 417.6 35.1 402.89 35.1 402.9 35.1 C 403 39.4 404.8 42.6 408.6 42.6 C 410.2 42.6 412.1 41.5 413.4 39.7 C 413.4 39.7 416.7 43.5 416.7 43.5 C 414.4 46.4 411.2 48.1 407.9 48.1 C 400.3 48.1 396.4 41.8 396.4 32.9 Z M 407 23.2 C 403.7 23.2 402.9 27.3 402.9 30.4 C 402.9 30.4 411.1 30.4 411.1 30.4 C 411.1 27.1 410.3 23.2 407 23.2 Z M 434.8 47.4 C 434.8 47.4 434.81 43.8 434.8 43.8 C 433.6 46.7 431.2 48.1 429.2 48.1 C 423.5 48.1 420.6 42.2 420.6 32.9 C 420.6 23.8 423.5 17.7 429.2 17.7 C 431.2 17.7 433.6 19 434.8 22 C 434.81 22.02 434.8 7.4 434.8 7.4 L 441.6 7.4 L 441.6 47.4 L 434.8 47.4 Z M 434.8 38.6 C 434.8 38.6 434.8 27.2 434.8 27.2 C 434.2 25.3 432.8 23.7 431.4 23.7 C 428.4 23.7 427.6 27.8 427.6 32.9 C 427.6 38 428.4 42.1 431.4 42.1 C 432.8 42.1 434.2 40.6 434.8 38.6 Z M 471.6 47.4 L 467.3 32.7 L 464.8 32.7 L 464.8 47.4 L 457.3 47.4 L 457.3 7.4 C 457.3 7.4 468.41 7.38 468.4 7.4 C 474.8 7.4 479.3 12.5 479.3 19.8 C 479.3 26.6 476.5 29.6 474.2 30.8 C 474.17 30.84 479.7 47.4 479.7 47.4 L 471.6 47.4 Z M 471.7 20 C 471.7 16.4 470.1 14 467.3 14 C 467.27 14.04 464.8 14 464.8 14 L 464.8 26 C 464.8 26 467.27 26.04 467.3 26 C 470.1 26 471.7 23.6 471.7 20 Z M 496.5 47.4 C 496.5 47.4 496.49 44.64 496.5 44.6 C 495.2 46.9 492.5 48.1 490.4 48.1 C 485.9 48.1 482.6 44.4 482.6 38.5 C 482.6 32.6 485.9 29 490.4 29 C 492.5 29 495.3 30.1 496.5 32.3 C 496.5 32.3 496.5 28.7 496.5 28.7 C 496.5 25.4 495.2 23.5 492.1 23.5 C 490.2 23.5 488.2 24.4 486.2 26.3 C 486.2 26.3 483.7 21.5 483.7 21.5 C 486.4 18.7 490.5 17.7 493.5 17.7 C 499.4 17.7 503.3 20.7 503.3 27.2 C 503.27 27.18 503.3 47.4 503.3 47.4 L 496.5 47.4 Z M 496.5 40.6 C 496.5 40.6 496.5 36.7 496.5 36.7 C 495.8 34.9 494.3 33.7 492.8 33.7 C 490.5 33.7 489.4 35.8 489.4 38.6 C 489.4 41.3 490.5 43.6 492.8 43.6 C 494.3 43.6 495.8 42.4 496.5 40.6 Z M 508.7 56 C 508.7 56 511 50.5 511 50.5 C 512.7 52.2 514.7 53.3 517 53.3 C 519.8 53.3 521.9 51.4 521.9 46.9 C 521.9 46.9 521.9 42.7 521.9 42.7 C 520.6 45.7 518.3 47.2 516.2 47.2 C 510.5 47.2 507.7 41.8 507.7 32.5 C 507.7 23.3 510.5 17.7 516.2 17.7 C 518.3 17.7 520.7 19 521.9 22 C 521.87 22.02 521.9 18.4 521.9 18.4 L 528.7 18.4 C 528.7 18.4 528.65 46.44 528.7 46.4 C 528.7 56.4 523.3 59.2 517.7 59.2 C 514.1 59.2 511.1 58.3 508.7 56 Z M 521.9 37.7 C 521.9 37.7 521.9 27.2 521.9 27.2 C 521.3 25.3 519.9 23.7 518.5 23.7 C 515.5 23.7 514.6 27.4 514.6 32.5 C 514.6 37.6 515.5 41.2 518.5 41.2 C 519.9 41.2 521.3 39.6 521.9 37.7 Z " stroke="none" fill="#b13d24"/>  </g></svg>