<?xml version="1.0" standalone="no"?><!DOCTYPE svg PUBLIC "-//W3C//DTD SVG 1.1//EN" "http://www.w3.org/Graphics/SVG/1.1/DTD/svg11.dtd"><svg xmlns="http://www.w3.org/2000/svg" version="1.1" width="219px" height="395.3px" viewBox="0 0 219 395.3">  <desc>1250 36 3348 21 251 21 82 82 2521 36 448 62 450 34 783 62 479 92 3500 04</desc>  <defs/>  <g id="Polygon214674">    <path d="M 124 345.4 C 124 345.4 125.6 344 125.6 344 C 126.5 345.5 128 346.6 129.9 346.6 C 132.3 346.6 133.5 345.1 133.5 342.8 C 133.5 340.1 131.7 339.2 129.7 339.2 C 129 339.2 128.4 339.2 128.1 339.2 C 128.1 339.2 128.1 337 128.1 337 C 128.4 337.1 129.1 337.1 129.6 337.1 C 131.6 337.1 133.2 336 133.2 333.7 C 133.2 331.3 131.8 330.2 129.8 330.2 C 128 330.2 126.8 331.1 125.7 332.6 C 125.7 332.6 124.2 331.2 124.2 331.2 C 125.4 329.3 127.5 328.1 129.9 328.1 C 133.2 328.1 135.6 329.8 135.6 333.4 C 135.6 335.9 133.9 337.6 132 338 C 133.8 338.3 135.9 340.1 135.9 343 C 135.9 346.3 133.8 348.7 129.9 348.7 C 127.1 348.7 125 347.2 124 345.4 Z M 138.9 345.5 C 138.9 345.5 140.5 344 140.5 344 C 141.4 345.7 142.8 346.6 144.7 346.6 C 146.9 346.6 148.3 344.6 148.3 342.3 C 148.3 339.4 146.9 337.8 144.9 337.8 C 143.4 337.8 142.3 338.4 141.2 339.7 C 141.23 339.71 139.5 339.1 139.5 339.1 L 139.5 328.4 L 149.7 328.4 L 149.7 330.5 L 141.8 330.5 C 141.8 330.5 141.83 337.49 141.8 337.5 C 142.6 336.5 143.9 335.7 145.5 335.7 C 148.4 335.7 150.7 338 150.7 342.2 C 150.7 346 148.2 348.7 144.8 348.7 C 141.8 348.7 140.1 347.5 138.9 345.5 Z M 153.5 338.4 C 153.5 333.6 155.1 328.1 159.7 328.1 C 164.4 328.1 166 333.6 166 338.4 C 166 343.2 164.4 348.7 159.7 348.7 C 155.1 348.7 153.5 343.2 153.5 338.4 Z M 163.6 338.4 C 163.6 334.4 162.8 330.2 159.7 330.2 C 156.7 330.2 155.9 334.4 155.9 338.4 C 155.9 342.3 156.6 346.6 159.7 346.6 C 162.8 346.6 163.6 342.3 163.6 338.4 Z M 168.8 338.4 C 168.8 333.6 170.4 328.1 175.1 328.1 C 179.8 328.1 181.4 333.6 181.4 338.4 C 181.4 343.2 179.8 348.7 175.1 348.7 C 170.4 348.7 168.8 343.2 168.8 338.4 Z M 178.9 338.4 C 178.9 334.4 178.2 330.2 175.1 330.2 C 172 330.2 171.3 334.4 171.3 338.4 C 171.3 342.3 172 346.6 175.1 346.6 C 178.2 346.6 178.9 342.3 178.9 338.4 Z M 184.6 347.1 C 184.6 346.2 185.3 345.5 186.2 345.5 C 187.1 345.5 187.8 346.2 187.8 347.1 C 187.8 348 187.1 348.7 186.2 348.7 C 185.3 348.7 184.6 348 184.6 347.1 Z M 191 338.4 C 191 333.6 192.6 328.1 197.3 328.1 C 202 328.1 203.6 333.6 203.6 338.4 C 203.6 343.2 202 348.7 197.3 348.7 C 192.6 348.7 191 343.2 191 338.4 Z M 201.1 338.4 C 201.1 334.4 200.4 330.2 197.3 330.2 C 194.2 330.2 193.5 334.4 193.5 338.4 C 193.5 342.3 194.2 346.6 197.3 346.6 C 200.4 346.6 201.1 342.3 201.1 338.4 Z M 213.6 348.4 L 213.6 343.2 L 205.7 343.2 L 205.7 341.2 L 212.9 328.4 L 216 328.4 L 216 341.1 L 218.1 341.1 L 218.1 343.2 L 216 343.2 L 216 348.4 L 213.6 348.4 Z M 213.6 330.9 L 207.9 341.1 L 213.6 341.1 L 213.6 330.9 Z " stroke="none" fill="#d0d1d4"/>  </g>  <g id="Polygon214673">    <path d="M 149.9 312.4 L 149.9 307.2 L 142 307.2 L 142 305.2 L 149.2 292.4 L 152.3 292.4 L 152.3 305.1 L 154.5 305.1 L 154.5 307.2 L 152.3 307.2 L 152.3 312.4 L 149.9 312.4 Z M 149.9 294.9 L 144.2 305.1 L 149.9 305.1 L 149.9 294.9 Z M 158.1 312.4 L 164.4 294.5 L 155.9 294.5 L 155.9 292.4 L 167.1 292.4 L 167.1 294 L 160.7 312.4 L 158.1 312.4 Z M 169.7 310.2 C 169.7 310.2 171 308.5 171 308.5 C 171.8 309.8 172.7 310.6 174.4 310.6 C 177.6 310.6 178.7 306.3 178.7 302.6 C 178.7 302.3 178.7 302.2 178.7 302 C 178 303.4 176.4 304.9 174.3 304.9 C 171.4 304.9 169.1 302.8 169.1 298.5 C 169.1 295.2 171.1 292 174.8 292 C 179.6 292 181.2 297 181.2 302.4 C 181.2 307.8 179.2 312.7 174.4 312.7 C 172.3 312.7 170.7 311.7 169.7 310.2 Z M 178.7 299.8 C 178.5 297.6 177.8 294.2 174.9 294.2 C 172.5 294.2 171.5 296.4 171.5 298.5 C 171.5 301.7 173 302.9 174.9 302.9 C 176.6 302.9 177.9 301.4 178.7 299.8 Z M 184.4 311.1 C 184.4 310.2 185.1 309.5 186 309.5 C 186.9 309.5 187.6 310.2 187.6 311.1 C 187.6 312 186.9 312.7 186 312.7 C 185.1 312.7 184.4 312 184.4 311.1 Z M 191.3 310.2 C 191.3 310.2 192.6 308.5 192.6 308.5 C 193.4 309.8 194.3 310.6 196 310.6 C 199.2 310.6 200.3 306.3 200.3 302.6 C 200.3 302.3 200.3 302.2 200.3 302 C 199.6 303.4 198 304.9 195.9 304.9 C 193 304.9 190.7 302.8 190.7 298.5 C 190.7 295.2 192.7 292 196.4 292 C 201.2 292 202.8 297 202.8 302.4 C 202.8 307.8 200.8 312.7 196 312.7 C 193.9 312.7 192.3 311.7 191.3 310.2 Z M 200.3 299.8 C 200.1 297.6 199.4 294.2 196.5 294.2 C 194.1 294.2 193.1 296.4 193.1 298.5 C 193.1 301.7 194.6 302.9 196.5 302.9 C 198.2 302.9 199.5 301.4 200.3 299.8 Z M 205.8 312.4 C 205.8 312.4 205.75 310.43 205.8 310.4 C 212.3 302.9 214.5 300.5 214.5 297.5 C 214.5 295.4 213 294.2 211.3 294.2 C 209.4 294.2 208.1 295.1 207.1 296.7 C 207.1 296.7 205.5 295.3 205.5 295.3 C 206.9 293.2 208.8 292.1 211.4 292.1 C 214.4 292.1 217 294 217 297.5 C 217 300.9 214.5 303.9 209.1 310.2 C 209.14 310.25 217.1 310.2 217.1 310.2 L 217.1 312.4 L 205.8 312.4 Z " stroke="none" fill="#d0d1d4"/>  </g>  <g id="Polygon214672">    <path d="M 144.1 276.4 L 150.4 258.5 L 141.9 258.5 L 141.9 256.4 L 153 256.4 L 153 258 L 146.7 276.4 L 144.1 276.4 Z M 155.1 271.5 C 155.1 268.8 157.2 266.8 159.1 266.1 C 157.3 265.4 155.4 263.7 155.4 261.2 C 155.4 257.7 158.2 256.1 161.1 256.1 C 164 256.1 166.8 257.7 166.8 261.2 C 166.8 263.7 164.9 265.4 163.1 266.1 C 165 266.8 167 268.8 167 271.4 C 167 274.7 164.6 276.7 161.1 276.7 C 157.6 276.7 155.1 274.7 155.1 271.5 Z M 164.4 261.5 C 164.4 259.5 163 258.2 161.1 258.2 C 159.1 258.2 157.8 259.5 157.8 261.5 C 157.8 263.9 160.3 264.9 161.1 265.2 C 161.9 264.9 164.4 263.9 164.4 261.5 Z M 164.6 271.2 C 164.6 268.5 161.9 267.2 161.1 267 C 160.2 267.2 157.6 268.5 157.6 271.2 C 157.6 273.3 159.1 274.6 161.1 274.6 C 163 274.6 164.6 273.3 164.6 271.2 Z M 169.2 273.4 C 169.2 273.4 170.8 272 170.8 272 C 171.7 273.5 173.2 274.6 175.1 274.6 C 177.5 274.6 178.7 273.1 178.7 270.8 C 178.7 268.1 177 267.2 174.9 267.2 C 174.3 267.2 173.6 267.2 173.3 267.2 C 173.3 267.2 173.3 265 173.3 265 C 173.6 265.1 174.3 265.1 174.9 265.1 C 176.9 265.1 178.5 264 178.5 261.7 C 178.5 259.3 177 258.2 175 258.2 C 173.3 258.2 172 259.1 171 260.6 C 171 260.6 169.5 259.2 169.5 259.2 C 170.7 257.3 172.7 256.1 175.2 256.1 C 178.4 256.1 180.9 257.8 180.9 261.4 C 180.9 263.9 179.1 265.6 177.3 266 C 179.1 266.3 181.1 268.1 181.1 271 C 181.1 274.3 179 276.7 175.2 276.7 C 172.3 276.7 170.3 275.2 169.2 273.4 Z M 184.4 275.1 C 184.4 274.2 185.1 273.5 186 273.5 C 186.9 273.5 187.6 274.2 187.6 275.1 C 187.6 276 186.9 276.7 186 276.7 C 185.1 276.7 184.4 276 184.4 275.1 Z M 190.8 266.4 C 190.8 261 192.7 256.1 197.6 256.1 C 199.7 256.1 201.3 257.1 202.2 258.6 C 202.2 258.6 200.9 260.2 200.9 260.2 C 200.2 259 199.2 258.2 197.6 258.2 C 194.4 258.2 193.2 262.4 193.2 266.2 C 193.2 266.4 193.2 266.5 193.2 266.8 C 193.9 265.4 195.6 263.8 197.7 263.8 C 200.6 263.8 202.9 266 202.9 270.2 C 202.9 273.6 200.8 276.7 197.1 276.7 C 192.4 276.7 190.8 271.7 190.8 266.4 Z M 200.5 270.3 C 200.5 267.1 198.9 265.9 197.1 265.9 C 195.4 265.9 194 267.3 193.3 269 C 193.4 271.2 194.2 274.6 197 274.6 C 199.4 274.6 200.5 272.4 200.5 270.3 Z M 205.8 276.4 C 205.8 276.4 205.75 274.43 205.8 274.4 C 212.3 266.9 214.5 264.5 214.5 261.5 C 214.5 259.4 213 258.2 211.3 258.2 C 209.4 258.2 208.1 259.1 207.1 260.7 C 207.1 260.7 205.5 259.3 205.5 259.3 C 206.9 257.2 208.8 256.1 211.4 256.1 C 214.4 256.1 217 258 217 261.5 C 217 264.9 214.5 267.9 209.1 274.2 C 209.14 274.25 217.1 274.2 217.1 274.2 L 217.1 276.4 L 205.8 276.4 Z " stroke="none" fill="#d0d1d4"/>  </g>  <g id="Polygon214671">    <path d="M 148.6 240.4 L 148.6 235.2 L 140.7 235.2 L 140.7 233.2 L 147.9 220.4 L 151 220.4 L 151 233.1 L 153.2 233.1 L 153.2 235.2 L 151 235.2 L 151 240.4 L 148.6 240.4 Z M 148.6 222.9 L 142.9 233.1 L 148.6 233.1 L 148.6 222.9 Z M 155.4 237.5 C 155.4 237.5 157 236 157 236 C 158 237.7 159.3 238.6 161.2 238.6 C 163.4 238.6 164.8 236.6 164.8 234.3 C 164.8 231.4 163.5 229.8 161.4 229.8 C 160 229.8 158.9 230.4 157.8 231.7 C 157.76 231.71 156 231.1 156 231.1 L 156 220.4 L 166.2 220.4 L 166.2 222.5 L 158.4 222.5 C 158.4 222.5 158.36 229.49 158.4 229.5 C 159.1 228.5 160.5 227.7 162 227.7 C 164.9 227.7 167.2 230 167.2 234.2 C 167.2 238 164.8 240.7 161.3 240.7 C 158.4 240.7 156.6 239.5 155.4 237.5 Z M 170 230.4 C 170 225.6 171.6 220.1 176.3 220.1 C 180.9 220.1 182.5 225.6 182.5 230.4 C 182.5 235.2 180.9 240.7 176.3 240.7 C 171.6 240.7 170 235.2 170 230.4 Z M 180.1 230.4 C 180.1 226.4 179.4 222.2 176.3 222.2 C 173.2 222.2 172.5 226.4 172.5 230.4 C 172.5 234.3 173.2 238.6 176.3 238.6 C 179.4 238.6 180.1 234.3 180.1 230.4 Z M 185.8 239.1 C 185.8 238.2 186.5 237.5 187.4 237.5 C 188.2 237.5 189 238.2 189 239.1 C 189 240 188.2 240.7 187.4 240.7 C 186.5 240.7 185.8 240 185.8 239.1 Z M 191.7 237.4 C 191.7 237.4 193.2 236 193.2 236 C 194.1 237.5 195.6 238.6 197.5 238.6 C 199.9 238.6 201.1 237.1 201.1 234.8 C 201.1 232.1 199.4 231.2 197.3 231.2 C 196.7 231.2 196 231.2 195.7 231.2 C 195.7 231.2 195.7 229 195.7 229 C 196 229.1 196.8 229.1 197.3 229.1 C 199.3 229.1 200.9 228 200.9 225.7 C 200.9 223.3 199.5 222.2 197.4 222.2 C 195.7 222.2 194.4 223.1 193.4 224.6 C 193.4 224.6 191.9 223.2 191.9 223.2 C 193.1 221.3 195.1 220.1 197.6 220.1 C 200.8 220.1 203.3 221.8 203.3 225.4 C 203.3 227.9 201.5 229.6 199.7 230 C 201.5 230.3 203.5 232.1 203.5 235 C 203.5 238.3 201.4 240.7 197.6 240.7 C 194.7 240.7 192.7 239.2 191.7 237.4 Z M 213.6 240.4 L 213.6 235.2 L 205.7 235.2 L 205.7 233.2 L 212.9 220.4 L 216 220.4 L 216 233.1 L 218.1 233.1 L 218.1 235.2 L 216 235.2 L 216 240.4 L 213.6 240.4 Z M 213.6 222.9 L 207.9 233.1 L 213.6 233.1 L 213.6 222.9 Z " stroke="none" fill="#d0d1d4"/>  </g>  <g id="Polygon214670">    <path d="M 148.9 204.4 L 148.9 199.2 L 141 199.2 L 141 197.2 L 148.2 184.4 L 151.2 184.4 L 151.2 197.1 L 153.4 197.1 L 153.4 199.2 L 151.2 199.2 L 151.2 204.4 L 148.9 204.4 Z M 148.9 186.9 L 143.1 197.1 L 148.9 197.1 L 148.9 186.9 Z M 162.7 204.4 L 162.7 199.2 L 154.8 199.2 L 154.8 197.2 L 162 184.4 L 165.1 184.4 L 165.1 197.1 L 167.3 197.1 L 167.3 199.2 L 165.1 199.2 L 165.1 204.4 L 162.7 204.4 Z M 162.7 186.9 L 157 197.1 L 162.7 197.1 L 162.7 186.9 Z M 169.3 199.5 C 169.3 196.8 171.3 194.8 173.3 194.1 C 171.5 193.4 169.6 191.7 169.6 189.2 C 169.6 185.7 172.4 184.1 175.3 184.1 C 178.2 184.1 180.9 185.7 180.9 189.2 C 180.9 191.7 179.1 193.4 177.3 194.1 C 179.2 194.8 181.2 196.8 181.2 199.4 C 181.2 202.7 178.8 204.7 175.3 204.7 C 171.8 204.7 169.3 202.7 169.3 199.5 Z M 178.5 189.5 C 178.5 187.5 177.2 186.2 175.3 186.2 C 173.3 186.2 172 187.5 172 189.5 C 172 191.9 174.5 192.9 175.3 193.2 C 176.1 192.9 178.5 191.9 178.5 189.5 Z M 178.8 199.2 C 178.8 196.5 176.1 195.2 175.3 195 C 174.4 195.2 171.8 196.5 171.8 199.2 C 171.8 201.3 173.3 202.6 175.3 202.6 C 177.2 202.6 178.8 201.3 178.8 199.2 Z M 184.4 203.1 C 184.4 202.2 185.1 201.5 186 201.5 C 186.9 201.5 187.6 202.2 187.6 203.1 C 187.6 204 186.9 204.7 186 204.7 C 185.1 204.7 184.4 204 184.4 203.1 Z M 190.8 194.4 C 190.8 189 192.7 184.1 197.6 184.1 C 199.7 184.1 201.3 185.1 202.2 186.6 C 202.2 186.6 200.9 188.2 200.9 188.2 C 200.2 187 199.2 186.2 197.6 186.2 C 194.4 186.2 193.2 190.4 193.2 194.2 C 193.2 194.4 193.2 194.5 193.2 194.8 C 193.9 193.4 195.6 191.8 197.7 191.8 C 200.6 191.8 202.9 194 202.9 198.2 C 202.9 201.6 200.8 204.7 197.1 204.7 C 192.4 204.7 190.8 199.7 190.8 194.4 Z M 200.5 198.3 C 200.5 195.1 198.9 193.9 197.1 193.9 C 195.4 193.9 194 195.3 193.3 197 C 193.4 199.2 194.2 202.6 197 202.6 C 199.4 202.6 200.5 200.4 200.5 198.3 Z M 205.8 204.4 C 205.8 204.4 205.75 202.43 205.8 202.4 C 212.3 194.9 214.5 192.5 214.5 189.5 C 214.5 187.4 213 186.2 211.3 186.2 C 209.4 186.2 208.1 187.1 207.1 188.7 C 207.1 188.7 205.5 187.3 205.5 187.3 C 206.9 185.2 208.8 184.1 211.4 184.1 C 214.4 184.1 217 186 217 189.5 C 217 192.9 214.5 195.9 209.1 202.2 C 209.14 202.25 217.1 202.2 217.1 202.2 L 217.1 204.4 L 205.8 204.4 Z " stroke="none" fill="#d0d1d4"/>  </g>  <g id="Polygon214669">    <path d="M 131.1 168.4 C 131.1 168.4 131.12 166.43 131.1 166.4 C 137.7 158.9 139.9 156.5 139.9 153.5 C 139.9 151.4 138.4 150.2 136.7 150.2 C 134.8 150.2 133.4 151.1 132.5 152.7 C 132.5 152.7 130.9 151.3 130.9 151.3 C 132.2 149.2 134.2 148.1 136.7 148.1 C 139.8 148.1 142.3 150 142.3 153.5 C 142.3 156.9 139.8 159.9 134.5 166.2 C 134.51 166.25 142.4 166.2 142.4 166.2 L 142.4 168.4 L 131.1 168.4 Z M 145.8 165.5 C 145.8 165.5 147.3 164 147.3 164 C 148.3 165.7 149.6 166.6 151.6 166.6 C 153.8 166.6 155.1 164.6 155.1 162.3 C 155.1 159.4 153.8 157.8 151.7 157.8 C 150.3 157.8 149.2 158.4 148.1 159.7 C 148.1 159.71 146.3 159.1 146.3 159.1 L 146.3 148.4 L 156.5 148.4 L 156.5 150.5 L 148.7 150.5 C 148.7 150.5 148.7 157.49 148.7 157.5 C 149.5 156.5 150.8 155.7 152.4 155.7 C 155.3 155.7 157.6 158 157.6 162.2 C 157.6 166 155.1 168.7 151.6 168.7 C 148.7 168.7 147 167.5 145.8 165.5 Z M 160.5 168.4 C 160.5 168.4 160.52 166.43 160.5 166.4 C 167.1 158.9 169.3 156.5 169.3 153.5 C 169.3 151.4 167.8 150.2 166.1 150.2 C 164.2 150.2 162.8 151.1 161.9 152.7 C 161.9 152.7 160.3 151.3 160.3 151.3 C 161.6 149.2 163.6 148.1 166.1 148.1 C 169.2 148.1 171.7 150 171.7 153.5 C 171.7 156.9 169.2 159.9 163.9 166.2 C 163.91 166.25 171.8 166.2 171.8 166.2 L 171.8 168.4 L 160.5 168.4 Z M 178.6 168.4 L 178.6 151.5 L 175.5 154.8 L 174 153.3 L 178.8 148.4 L 180.9 148.4 L 180.9 168.4 L 178.6 168.4 Z M 184.9 167.1 C 184.9 166.2 185.6 165.5 186.5 165.5 C 187.3 165.5 188.1 166.2 188.1 167.1 C 188.1 168 187.3 168.7 186.5 168.7 C 185.6 168.7 184.9 168 184.9 167.1 Z M 190.8 165.4 C 190.8 165.4 192.3 164 192.3 164 C 193.2 165.5 194.7 166.6 196.6 166.6 C 199 166.6 200.2 165.1 200.2 162.8 C 200.2 160.1 198.5 159.2 196.4 159.2 C 195.8 159.2 195.1 159.2 194.8 159.2 C 194.8 159.2 194.8 157 194.8 157 C 195.1 157.1 195.9 157.1 196.4 157.1 C 198.4 157.1 200 156 200 153.7 C 200 151.3 198.6 150.2 196.5 150.2 C 194.8 150.2 193.5 151.1 192.5 152.6 C 192.5 152.6 191 151.2 191 151.2 C 192.2 149.3 194.2 148.1 196.7 148.1 C 199.9 148.1 202.4 149.8 202.4 153.4 C 202.4 155.9 200.6 157.6 198.8 158 C 200.6 158.3 202.6 160.1 202.6 163 C 202.6 166.3 200.5 168.7 196.7 168.7 C 193.8 168.7 191.8 167.2 190.8 165.4 Z M 205.5 158.4 C 205.5 153 207.4 148.1 212.2 148.1 C 214.3 148.1 215.9 149.1 216.9 150.6 C 216.9 150.6 215.6 152.2 215.6 152.2 C 214.8 151 213.9 150.2 212.3 150.2 C 209.1 150.2 207.9 154.4 207.9 158.2 C 207.9 158.4 207.9 158.5 207.9 158.8 C 208.6 157.4 210.3 155.8 212.3 155.8 C 215.2 155.8 217.6 158 217.6 162.2 C 217.6 165.6 215.5 168.7 211.8 168.7 C 207 168.7 205.5 163.7 205.5 158.4 Z M 215.1 162.3 C 215.1 159.1 213.6 157.9 211.7 157.9 C 210 157.9 208.7 159.3 207.9 161 C 208.1 163.2 208.9 166.6 211.7 166.6 C 214.1 166.6 215.1 164.4 215.1 162.3 Z " stroke="none" fill="#d0d1d4"/>  </g>  <g id="Polygon214668">    <path d="M 154.8 127.5 C 154.8 124.8 156.9 122.8 158.8 122.1 C 157 121.4 155.1 119.7 155.1 117.2 C 155.1 113.7 157.9 112.1 160.8 112.1 C 163.7 112.1 166.5 113.7 166.5 117.2 C 166.5 119.7 164.6 121.4 162.8 122.1 C 164.7 122.8 166.7 124.8 166.7 127.4 C 166.7 130.7 164.3 132.7 160.8 132.7 C 157.3 132.7 154.8 130.7 154.8 127.5 Z M 164.1 117.5 C 164.1 115.5 162.7 114.2 160.8 114.2 C 158.8 114.2 157.5 115.5 157.5 117.5 C 157.5 119.9 160 120.9 160.8 121.2 C 161.6 120.9 164.1 119.9 164.1 117.5 Z M 164.3 127.2 C 164.3 124.5 161.6 123.2 160.8 123 C 159.9 123.2 157.3 124.5 157.3 127.2 C 157.3 129.3 158.8 130.6 160.8 130.6 C 162.7 130.6 164.3 129.3 164.3 127.2 Z M 169.7 132.4 C 169.7 132.4 169.67 130.43 169.7 130.4 C 176.2 122.9 178.5 120.5 178.5 117.5 C 178.5 115.4 177 114.2 175.2 114.2 C 173.4 114.2 172 115.1 171 116.7 C 171 116.7 169.5 115.3 169.5 115.3 C 170.8 113.2 172.7 112.1 175.3 112.1 C 178.3 112.1 180.9 114 180.9 117.5 C 180.9 120.9 178.4 123.9 173.1 130.2 C 173.06 130.25 181 130.2 181 130.2 L 181 132.4 L 169.7 132.4 Z M 184.6 131.1 C 184.6 130.2 185.3 129.5 186.2 129.5 C 187 129.5 187.8 130.2 187.8 131.1 C 187.8 132 187 132.7 186.2 132.7 C 185.3 132.7 184.6 132 184.6 131.1 Z M 190.9 127.5 C 190.9 124.8 192.9 122.8 194.9 122.1 C 193.1 121.4 191.2 119.7 191.2 117.2 C 191.2 113.7 194 112.1 196.9 112.1 C 199.8 112.1 202.5 113.7 202.5 117.2 C 202.5 119.7 200.7 121.4 198.9 122.1 C 200.8 122.8 202.8 124.8 202.8 127.4 C 202.8 130.7 200.4 132.7 196.9 132.7 C 193.4 132.7 190.9 130.7 190.9 127.5 Z M 200.1 117.5 C 200.1 115.5 198.8 114.2 196.9 114.2 C 194.9 114.2 193.6 115.5 193.6 117.5 C 193.6 119.9 196.1 120.9 196.9 121.2 C 197.7 120.9 200.1 119.9 200.1 117.5 Z M 200.4 127.2 C 200.4 124.5 197.7 123.2 196.9 123 C 196 123.2 193.4 124.5 193.4 127.2 C 193.4 129.3 194.9 130.6 196.9 130.6 C 198.8 130.6 200.4 129.3 200.4 127.2 Z M 205.8 132.4 C 205.8 132.4 205.75 130.43 205.8 130.4 C 212.3 122.9 214.5 120.5 214.5 117.5 C 214.5 115.4 213 114.2 211.3 114.2 C 209.4 114.2 208.1 115.1 207.1 116.7 C 207.1 116.7 205.5 115.3 205.5 115.3 C 206.9 113.2 208.8 112.1 211.4 112.1 C 214.4 112.1 217 114 217 117.5 C 217 120.9 214.5 123.9 209.1 130.2 C 209.14 130.25 217.1 130.2 217.1 130.2 L 217.1 132.4 L 205.8 132.4 Z " stroke="none" fill="#d0d1d4"/>  </g>  <g id="Polygon214667">    <path d="M 150.6 96.4 C 150.6 96.4 150.62 94.43 150.6 94.4 C 157.2 86.9 159.4 84.5 159.4 81.5 C 159.4 79.4 157.9 78.2 156.2 78.2 C 154.3 78.2 152.9 79.1 152 80.7 C 152 80.7 150.4 79.3 150.4 79.3 C 151.7 77.2 153.7 76.1 156.2 76.1 C 159.3 76.1 161.8 78 161.8 81.5 C 161.8 84.9 159.3 87.9 154 94.2 C 154.01 94.25 161.9 94.2 161.9 94.2 L 161.9 96.4 L 150.6 96.4 Z M 165.3 93.5 C 165.3 93.5 166.8 92 166.8 92 C 167.8 93.7 169.1 94.6 171.1 94.6 C 173.3 94.6 174.6 92.6 174.6 90.3 C 174.6 87.4 173.3 85.8 171.2 85.8 C 169.8 85.8 168.7 86.4 167.6 87.7 C 167.6 87.71 165.8 87.1 165.8 87.1 L 165.8 76.4 L 176 76.4 L 176 78.5 L 168.2 78.5 C 168.2 78.5 168.2 85.49 168.2 85.5 C 169 84.5 170.3 83.7 171.9 83.7 C 174.8 83.7 177.1 86 177.1 90.2 C 177.1 94 174.6 96.7 171.1 96.7 C 168.2 96.7 166.5 95.5 165.3 93.5 Z M 183.4 96.4 L 183.4 79.5 L 180.3 82.8 L 178.9 81.3 L 183.7 76.4 L 185.8 76.4 L 185.8 96.4 L 183.4 96.4 Z M 189.7 95.1 C 189.7 94.2 190.4 93.5 191.3 93.5 C 192.2 93.5 192.9 94.2 192.9 95.1 C 192.9 96 192.2 96.7 191.3 96.7 C 190.4 96.7 189.7 96 189.7 95.1 Z M 196.3 96.4 C 196.3 96.4 196.31 94.43 196.3 94.4 C 202.8 86.9 205.1 84.5 205.1 81.5 C 205.1 79.4 203.6 78.2 201.9 78.2 C 200 78.2 198.6 79.1 197.7 80.7 C 197.7 80.7 196.1 79.3 196.1 79.3 C 197.4 77.2 199.4 76.1 201.9 76.1 C 205 76.1 207.5 78 207.5 81.5 C 207.5 84.9 205 87.9 199.7 94.2 C 199.7 94.25 207.6 94.2 207.6 94.2 L 207.6 96.4 L 196.3 96.4 Z M 214.4 96.4 L 214.4 79.5 L 211.3 82.8 L 209.8 81.3 L 214.6 76.4 L 216.7 76.4 L 216.7 96.4 L 214.4 96.4 Z " stroke="none" fill="#d0d1d4"/>  </g>  <g id="Polygon214666">    <path d="M 131.9 57.4 C 131.9 57.4 133.5 56 133.5 56 C 134.4 57.5 135.9 58.6 137.8 58.6 C 140.2 58.6 141.4 57.1 141.4 54.8 C 141.4 52.1 139.6 51.2 137.6 51.2 C 137 51.2 136.3 51.2 136 51.2 C 136 51.2 136 49 136 49 C 136.3 49.1 137 49.1 137.5 49.1 C 139.5 49.1 141.2 48 141.2 45.7 C 141.2 43.3 139.7 42.2 137.7 42.2 C 135.9 42.2 134.7 43.1 133.7 44.6 C 133.7 44.6 132.2 43.2 132.2 43.2 C 133.4 41.3 135.4 40.1 137.9 40.1 C 141.1 40.1 143.5 41.8 143.5 45.4 C 143.5 47.9 141.8 49.6 140 50 C 141.7 50.3 143.8 52.1 143.8 55 C 143.8 58.3 141.7 60.7 137.9 60.7 C 135 60.7 132.9 59.2 131.9 57.4 Z M 146.1 57.4 C 146.1 57.4 147.7 56 147.7 56 C 148.6 57.5 150.1 58.6 152 58.6 C 154.4 58.6 155.6 57.1 155.6 54.8 C 155.6 52.1 153.8 51.2 151.8 51.2 C 151.2 51.2 150.5 51.2 150.2 51.2 C 150.2 51.2 150.2 49 150.2 49 C 150.5 49.1 151.2 49.1 151.7 49.1 C 153.7 49.1 155.4 48 155.4 45.7 C 155.4 43.3 153.9 42.2 151.9 42.2 C 150.1 42.2 148.9 43.1 147.9 44.6 C 147.9 44.6 146.4 43.2 146.4 43.2 C 147.6 41.3 149.6 40.1 152.1 40.1 C 155.3 40.1 157.7 41.8 157.7 45.4 C 157.7 47.9 156 49.6 154.2 50 C 155.9 50.3 158 52.1 158 55 C 158 58.3 155.9 60.7 152.1 60.7 C 149.2 60.7 147.1 59.2 146.1 57.4 Z M 168 60.4 L 168 55.2 L 160.1 55.2 L 160.1 53.2 L 167.4 40.4 L 170.4 40.4 L 170.4 53.1 L 172.6 53.1 L 172.6 55.2 L 170.4 55.2 L 170.4 60.4 L 168 60.4 Z M 168 42.9 L 162.3 53.1 L 168 53.1 L 168 42.9 Z M 174.6 55.5 C 174.6 52.8 176.7 50.8 178.6 50.1 C 176.8 49.4 174.9 47.7 174.9 45.2 C 174.9 41.7 177.7 40.1 180.6 40.1 C 183.5 40.1 186.3 41.7 186.3 45.2 C 186.3 47.7 184.4 49.4 182.6 50.1 C 184.5 50.8 186.5 52.8 186.5 55.4 C 186.5 58.7 184.1 60.7 180.6 60.7 C 177.1 60.7 174.6 58.7 174.6 55.5 Z M 183.9 45.5 C 183.9 43.5 182.5 42.2 180.6 42.2 C 178.6 42.2 177.3 43.5 177.3 45.5 C 177.3 47.9 179.8 48.9 180.6 49.2 C 181.4 48.9 183.9 47.9 183.9 45.5 Z M 184.1 55.2 C 184.1 52.5 181.4 51.2 180.6 51 C 179.7 51.2 177.1 52.5 177.1 55.2 C 177.1 57.3 178.6 58.6 180.6 58.6 C 182.5 58.6 184.1 57.3 184.1 55.2 Z M 189.7 59.1 C 189.7 58.2 190.4 57.5 191.3 57.5 C 192.2 57.5 192.9 58.2 192.9 59.1 C 192.9 60 192.2 60.7 191.3 60.7 C 190.4 60.7 189.7 60 189.7 59.1 Z M 196.3 60.4 C 196.3 60.4 196.31 58.43 196.3 58.4 C 202.8 50.9 205.1 48.5 205.1 45.5 C 205.1 43.4 203.6 42.2 201.9 42.2 C 200 42.2 198.6 43.1 197.7 44.7 C 197.7 44.7 196.1 43.3 196.1 43.3 C 197.4 41.2 199.4 40.1 201.9 40.1 C 205 40.1 207.5 42 207.5 45.5 C 207.5 48.9 205 51.9 199.7 58.2 C 199.7 58.25 207.6 58.2 207.6 58.2 L 207.6 60.4 L 196.3 60.4 Z M 214.4 60.4 L 214.4 43.5 L 211.3 46.8 L 209.8 45.3 L 214.6 40.4 L 216.7 40.4 L 216.7 60.4 L 214.4 60.4 Z " stroke="none" fill="#d0d1d4"/>  </g>  <g id="Polygon214665">    <path d="M 133.8 24.4 L 133.8 7.5 L 130.7 10.8 L 129.3 9.3 L 134.1 4.4 L 136.2 4.4 L 136.2 24.4 L 133.8 24.4 Z M 139.9 24.4 C 139.9 24.4 139.88 22.43 139.9 22.4 C 146.4 14.9 148.7 12.5 148.7 9.5 C 148.7 7.4 147.2 6.2 145.5 6.2 C 143.6 6.2 142.2 7.1 141.2 8.7 C 141.2 8.7 139.7 7.3 139.7 7.3 C 141 5.2 142.9 4.1 145.5 4.1 C 148.5 4.1 151.1 6 151.1 9.5 C 151.1 12.9 148.6 15.9 143.3 22.2 C 143.27 22.25 151.2 22.2 151.2 22.2 L 151.2 24.4 L 139.9 24.4 Z M 154.5 21.5 C 154.5 21.5 156.1 20 156.1 20 C 157.1 21.7 158.4 22.6 160.3 22.6 C 162.5 22.6 163.9 20.6 163.9 18.3 C 163.9 15.4 162.6 13.8 160.5 13.8 C 159.1 13.8 158 14.4 156.9 15.7 C 156.86 15.71 155.1 15.1 155.1 15.1 L 155.1 4.4 L 165.3 4.4 L 165.3 6.5 L 157.5 6.5 C 157.5 6.5 157.46 13.49 157.5 13.5 C 158.2 12.5 159.6 11.7 161.1 11.7 C 164 11.7 166.3 14 166.3 18.2 C 166.3 22 163.9 24.7 160.4 24.7 C 157.5 24.7 155.7 23.5 154.5 21.5 Z M 169.1 14.4 C 169.1 9.6 170.7 4.1 175.4 4.1 C 180 4.1 181.6 9.6 181.6 14.4 C 181.6 19.2 180 24.7 175.4 24.7 C 170.7 24.7 169.1 19.2 169.1 14.4 Z M 179.2 14.4 C 179.2 10.4 178.5 6.2 175.4 6.2 C 172.3 6.2 171.6 10.4 171.6 14.4 C 171.6 18.3 172.3 22.6 175.4 22.6 C 178.5 22.6 179.2 18.3 179.2 14.4 Z M 184.9 23.1 C 184.9 22.2 185.6 21.5 186.5 21.5 C 187.3 21.5 188.1 22.2 188.1 23.1 C 188.1 24 187.3 24.7 186.5 24.7 C 185.6 24.7 184.9 24 184.9 23.1 Z M 190.8 21.4 C 190.8 21.4 192.3 20 192.3 20 C 193.2 21.5 194.7 22.6 196.6 22.6 C 199 22.6 200.2 21.1 200.2 18.8 C 200.2 16.1 198.5 15.2 196.4 15.2 C 195.8 15.2 195.1 15.2 194.8 15.2 C 194.8 15.2 194.8 13 194.8 13 C 195.1 13.1 195.9 13.1 196.4 13.1 C 198.4 13.1 200 12 200 9.7 C 200 7.3 198.6 6.2 196.5 6.2 C 194.8 6.2 193.5 7.1 192.5 8.6 C 192.5 8.6 191 7.2 191 7.2 C 192.2 5.3 194.2 4.1 196.7 4.1 C 199.9 4.1 202.4 5.8 202.4 9.4 C 202.4 11.9 200.6 13.6 198.8 14 C 200.6 14.3 202.6 16.1 202.6 19 C 202.6 22.3 200.5 24.7 196.7 24.7 C 193.8 24.7 191.8 23.2 190.8 21.4 Z M 205.5 14.4 C 205.5 9 207.4 4.1 212.2 4.1 C 214.3 4.1 215.9 5.1 216.9 6.6 C 216.9 6.6 215.6 8.2 215.6 8.2 C 214.8 7 213.9 6.2 212.3 6.2 C 209.1 6.2 207.9 10.4 207.9 14.2 C 207.9 14.4 207.9 14.5 207.9 14.8 C 208.6 13.4 210.3 11.8 212.3 11.8 C 215.2 11.8 217.6 14 217.6 18.2 C 217.6 21.6 215.5 24.7 211.8 24.7 C 207 24.7 205.5 19.7 205.5 14.4 Z M 215.1 18.3 C 215.1 15.1 213.6 13.9 211.7 13.9 C 210 13.9 208.7 15.3 207.9 17 C 208.1 19.2 208.9 22.6 211.7 22.6 C 214.1 22.6 215.1 20.4 215.1 18.3 Z " stroke="none" fill="#d0d1d4"/>  </g></svg>