<?xml version="1.0" standalone="no"?><!DOCTYPE svg PUBLIC "-//W3C//DTD SVG 1.1//EN" "http://www.w3.org/Graphics/SVG/1.1/DTD/svg11.dtd"><svg xmlns="http://www.w3.org/2000/svg" version="1.1" width="486px" height="189.4px" viewBox="0 0 486 189.4">  <desc>While this dish is now forgotten, it was such a distinct dish it was almost synonymous with Singapore as a country</desc>  <defs/>  <g id="Polygon178486">    <path d="M 3.1 160.7 C 3.1 160.7 4.9 158.3 4.9 158.3 C 6.3 159.9 8.5 161.2 11.1 161.2 C 14.5 161.2 16 159.2 16 156.9 C 16 150.4 3.9 152.1 3.9 143.5 C 3.9 139.4 7.1 136.5 11.6 136.5 C 14.5 136.5 16.9 137.5 18.7 139.3 C 18.7 139.3 17 141.7 17 141.7 C 15.6 140.1 13.6 139.3 11.5 139.3 C 9.1 139.3 7.2 140.9 7.2 143.3 C 7.2 149 19.2 147.7 19.2 156.7 C 19.2 160.6 16.6 164.1 11.1 164.1 C 7.6 164.1 4.9 162.8 3.1 160.7 Z M 22.9 139.5 C 22.9 138.4 23.8 137.6 24.8 137.6 C 25.9 137.6 26.8 138.4 26.8 139.5 C 26.8 140.6 25.9 141.5 24.8 141.5 C 23.8 141.5 22.9 140.6 22.9 139.5 Z M 23.4 163.6 L 23.4 144.3 L 26.3 144.3 L 26.3 163.6 L 23.4 163.6 Z M 42 163.6 C 42 163.6 41.98 149.84 42 149.8 C 42 147.3 40.8 146.4 38.9 146.4 C 37 146.4 35.3 147.8 34.4 149.4 C 34.38 149.44 34.4 163.6 34.4 163.6 L 31.5 163.6 L 31.5 144.3 L 34.4 144.3 C 34.4 144.3 34.38 147.04 34.4 147 C 35.5 145.4 37.7 143.8 40 143.8 C 43.3 143.8 44.9 145.6 44.9 149 C 44.86 149.04 44.9 163.6 44.9 163.6 L 42 163.6 Z M 50 169 C 50 169 51.3 166.8 51.3 166.8 C 52.6 168.2 54.2 169 56.3 169 C 59 169 61.2 167.5 61.2 163.8 C 61.2 163.8 61.2 160.5 61.2 160.5 C 60.1 162.5 58.1 163.8 56.1 163.8 C 51.8 163.8 49.2 159.9 49.2 153.8 C 49.2 147.8 51.7 143.8 56.1 143.8 C 58.1 143.8 60 144.9 61.2 147.1 C 61.18 147.08 61.2 144.3 61.2 144.3 L 64.1 144.3 C 64.1 144.3 64.06 163.56 64.1 163.6 C 64.1 169.5 60.5 171.4 56.4 171.4 C 53.8 171.4 51.8 170.8 50 169 Z M 61.2 158.1 C 61.2 158.1 61.2 149.5 61.2 149.5 C 60.5 147.8 58.7 146.4 56.8 146.4 C 53.7 146.4 52.2 149.7 52.2 153.8 C 52.2 158 53.7 161.3 56.8 161.3 C 58.7 161.3 60.5 159.8 61.2 158.1 Z M 79.2 163.6 C 79.2 163.6 79.22 161.52 79.2 161.5 C 78 163.3 76.1 164.1 74.1 164.1 C 71 164.1 68.3 161.7 68.3 157.6 C 68.3 153.6 71 151.3 74.1 151.3 C 76.1 151.3 78 152 79.2 153.8 C 79.2 153.8 79.2 150.4 79.2 150.4 C 79.2 147.8 77.8 146.3 75.3 146.3 C 73.5 146.3 71.9 147 70.4 148.6 C 70.4 148.6 69.1 146.6 69.1 146.6 C 71 144.7 73.3 143.8 75.7 143.8 C 79.5 143.8 82.1 145.7 82.1 150.1 C 82.1 150.08 82.1 163.6 82.1 163.6 L 79.2 163.6 Z M 79.2 159.6 C 79.2 159.6 79.2 155.9 79.2 155.9 C 78.3 154.2 76.7 153.4 75.1 153.4 C 72.7 153.4 71.2 155.3 71.2 157.7 C 71.2 160.1 72.7 162 75.1 162 C 76.7 162 78.3 161.2 79.2 159.6 Z M 90.2 160.8 C 90.18 160.8 90.2 171 90.2 171 L 87.3 171 L 87.3 144.3 L 90.2 144.3 C 90.2 144.3 90.18 147.04 90.2 147 C 91.3 145.1 93.2 143.8 95.3 143.8 C 99.6 143.8 102.2 147.8 102.2 153.9 C 102.2 160 99.6 164.1 95.3 164.1 C 93.3 164.1 91.4 163 90.2 160.8 Z M 99.2 153.9 C 99.2 149.8 97.7 146.4 94.5 146.4 C 92.7 146.4 90.9 147.8 90.2 149.5 C 90.2 149.5 90.2 158.3 90.2 158.3 C 90.9 160 92.7 161.5 94.5 161.5 C 97.7 161.5 99.2 158.1 99.2 153.9 Z M 105.5 153.9 C 105.5 148.5 108.2 143.8 113.3 143.8 C 118.5 143.8 121.2 148.5 121.2 153.9 C 121.2 159.4 118.5 164.1 113.3 164.1 C 108.2 164.1 105.5 159.4 105.5 153.9 Z M 118.2 153.9 C 118.2 150 116.7 146.4 113.3 146.4 C 110 146.4 108.5 150 108.5 153.9 C 108.5 157.8 110 161.5 113.3 161.5 C 116.7 161.5 118.2 157.8 118.2 153.9 Z M 125.5 163.6 L 125.5 144.3 L 128.4 144.3 C 128.4 144.3 128.38 147.36 128.4 147.4 C 129.6 145.3 131.5 143.9 133.9 143.9 C 133.9 143.9 133.9 146.8 133.9 146.8 C 133.5 146.8 133.2 146.7 132.9 146.7 C 131.1 146.7 129.2 148.3 128.4 149.9 C 128.38 149.88 128.4 163.6 128.4 163.6 L 125.5 163.6 Z M 136.2 153.9 C 136.2 148.3 139.2 143.8 144.1 143.8 C 149.1 143.8 151.7 148.4 151.7 154 C 151.7 154 151.7 154.9 151.7 154.9 C 151.7 154.9 139.18 154.88 139.2 154.9 C 139.3 158.8 141.3 161.7 144.7 161.7 C 146.4 161.7 148.1 160.8 149.3 159.3 C 149.3 159.3 150.9 161 150.9 161 C 149.3 162.9 147.1 164.1 144.5 164.1 C 139.3 164.1 136.2 159.8 136.2 153.9 Z M 144 146.2 C 140.6 146.2 139.3 149.9 139.2 152.8 C 139.2 152.8 148.9 152.8 148.9 152.8 C 148.8 149.8 147.5 146.2 144 146.2 Z M 174.4 163.6 C 174.4 163.6 174.42 161.52 174.4 161.5 C 173.2 163.3 171.3 164.1 169.3 164.1 C 166.2 164.1 163.5 161.7 163.5 157.6 C 163.5 153.6 166.2 151.3 169.3 151.3 C 171.3 151.3 173.2 152 174.4 153.8 C 174.4 153.8 174.4 150.4 174.4 150.4 C 174.4 147.8 173 146.3 170.5 146.3 C 168.7 146.3 167.1 147 165.6 148.6 C 165.6 148.6 164.3 146.6 164.3 146.6 C 166.2 144.7 168.5 143.8 170.9 143.8 C 174.7 143.8 177.3 145.7 177.3 150.1 C 177.3 150.08 177.3 163.6 177.3 163.6 L 174.4 163.6 Z M 174.4 159.6 C 174.4 159.6 174.4 155.9 174.4 155.9 C 173.5 154.2 171.9 153.4 170.3 153.4 C 167.9 153.4 166.4 155.3 166.4 157.7 C 166.4 160.1 167.9 162 170.3 162 C 171.9 162 173.5 161.2 174.4 159.6 Z M 181 161.4 C 181 161.4 182.4 159.3 182.4 159.3 C 183.5 160.7 185.4 161.8 187.5 161.8 C 189.7 161.8 191.2 160.5 191.2 158.6 C 191.2 154.1 181.5 155.7 181.5 149 C 181.5 146.1 183.9 143.8 187.7 143.8 C 190.3 143.8 192.2 144.8 193.6 146.3 C 193.6 146.3 192.2 148.2 192.2 148.2 C 191.3 147 189.6 146.1 187.7 146.1 C 185.6 146.1 184.3 147.4 184.3 148.9 C 184.3 153 193.9 151.6 193.9 158.6 C 193.9 161.8 191.5 164.1 187.5 164.1 C 184.8 164.1 182.6 163.2 181 161.4 Z M 216.5 163.6 C 216.5 163.6 216.54 161.52 216.5 161.5 C 215.3 163.3 213.4 164.1 211.5 164.1 C 208.3 164.1 205.6 161.7 205.6 157.6 C 205.6 153.6 208.3 151.3 211.5 151.3 C 213.4 151.3 215.3 152 216.5 153.8 C 216.5 153.8 216.5 150.4 216.5 150.4 C 216.5 147.8 215.1 146.3 212.6 146.3 C 210.8 146.3 209.2 147 207.7 148.6 C 207.7 148.6 206.5 146.6 206.5 146.6 C 208.3 144.7 210.6 143.8 213 143.8 C 216.9 143.8 219.4 145.7 219.4 150.1 C 219.42 150.08 219.4 163.6 219.4 163.6 L 216.5 163.6 Z M 216.5 159.6 C 216.5 159.6 216.5 155.9 216.5 155.9 C 215.7 154.2 214.1 153.4 212.4 153.4 C 210 153.4 208.5 155.3 208.5 157.7 C 208.5 160.1 210 162 212.4 162 C 214.1 162 215.7 161.2 216.5 159.6 Z M 232.3 153.9 C 232.3 148.2 235.3 143.8 240.3 143.8 C 243 143.8 244.6 144.9 245.8 146.4 C 245.8 146.4 244.3 148.3 244.3 148.3 C 243.2 146.9 242 146.4 240.5 146.4 C 237.1 146.4 235.3 149.8 235.3 153.9 C 235.3 158 237.1 161.5 240.5 161.5 C 242 161.5 243.2 160.9 244.3 159.6 C 244.3 159.6 245.8 161.5 245.8 161.5 C 244.6 163 243 164.1 240.3 164.1 C 235.3 164.1 232.3 159.6 232.3 153.9 Z M 248.5 153.9 C 248.5 148.5 251.3 143.8 256.4 143.8 C 261.6 143.8 264.3 148.5 264.3 153.9 C 264.3 159.4 261.6 164.1 256.4 164.1 C 251.3 164.1 248.5 159.4 248.5 153.9 Z M 261.3 153.9 C 261.3 150 259.8 146.4 256.4 146.4 C 253.1 146.4 251.5 150 251.5 153.9 C 251.5 157.8 253.1 161.5 256.4 161.5 C 259.8 161.5 261.3 157.8 261.3 153.9 Z M 279 163.6 C 279 163.6 279.02 160.92 279 160.9 C 277.9 162.6 275.8 164.1 273.4 164.1 C 270.1 164.1 268.6 162.4 268.6 158.9 C 268.58 158.92 268.6 144.3 268.6 144.3 L 271.4 144.3 C 271.4 144.3 271.42 158.08 271.4 158.1 C 271.4 160.6 272.6 161.5 274.5 161.5 C 276.4 161.5 278.2 160.1 279 158.5 C 279.02 158.52 279 144.3 279 144.3 L 281.9 144.3 L 281.9 163.6 L 279 163.6 Z M 297.6 163.6 C 297.6 163.6 297.62 149.84 297.6 149.8 C 297.6 147.3 296.5 146.4 294.5 146.4 C 292.7 146.4 290.9 147.8 290 149.4 C 290.02 149.44 290 163.6 290 163.6 L 287.2 163.6 L 287.2 144.3 L 290 144.3 C 290 144.3 290.02 147.04 290 147 C 291.1 145.4 293.3 143.8 295.6 143.8 C 298.9 143.8 300.5 145.6 300.5 149 C 300.5 149.04 300.5 163.6 300.5 163.6 L 297.6 163.6 Z M 306.3 159.7 C 306.34 159.72 306.3 146.8 306.3 146.8 L 303.8 146.8 L 303.8 144.3 L 306.3 144.3 L 306.3 139 L 309.2 139 L 309.2 144.3 L 312.5 144.3 L 312.5 146.8 L 309.2 146.8 C 309.2 146.8 309.22 159.2 309.2 159.2 C 309.2 160.7 309.7 161.5 310.8 161.5 C 311.5 161.5 312.1 161.2 312.5 160.8 C 312.5 160.8 313.3 162.9 313.3 162.9 C 312.7 163.6 311.7 164.1 310.2 164.1 C 307.6 164.1 306.3 162.6 306.3 159.7 Z M 316.3 163.6 L 316.3 144.3 L 319.1 144.3 C 319.1 144.3 319.14 147.36 319.1 147.4 C 320.4 145.3 322.3 143.9 324.6 143.9 C 324.6 143.9 324.6 146.8 324.6 146.8 C 324.3 146.8 324 146.7 323.7 146.7 C 321.9 146.7 319.9 148.3 319.1 149.9 C 319.14 149.88 319.1 163.6 319.1 163.6 L 316.3 163.6 Z M 327.4 168.6 C 327.7 168.8 328.3 168.9 328.7 168.9 C 329.8 168.9 330.4 168.4 330.9 167 C 330.94 166.96 332 164 332 164 L 325.5 144.3 L 328.7 144.3 L 333.5 160.1 L 338.3 144.3 L 341.4 144.3 C 341.4 144.3 333.66 167.68 333.7 167.7 C 332.7 170.5 331.1 171.4 328.9 171.4 C 328.3 171.4 327.4 171.3 326.9 171.2 C 326.9 171.2 327.4 168.6 327.4 168.6 Z M 342.1 161.8 C 342.1 160.7 343 159.7 344.2 159.7 C 345.3 159.7 346.3 160.7 346.3 161.8 C 346.3 163 345.3 164 344.2 164 C 343 164 342.1 163 342.1 161.8 Z " stroke="none" fill="#b13d24"/>  </g>  <g id="Polygon178485">    <path d="M 18.9 119.6 L 14.7 104.1 L 10.6 119.6 L 7.7 119.6 L 2.5 100.3 L 5.5 100.3 L 9.3 115.7 L 13.3 100.3 L 16.1 100.3 L 20.2 115.7 L 24 100.3 L 27 100.3 L 21.8 119.6 L 18.9 119.6 Z M 40.1 119.6 C 40.1 119.6 40.06 117.52 40.1 117.5 C 38.8 119.3 36.9 120.1 35 120.1 C 31.9 120.1 29.1 117.7 29.1 113.6 C 29.1 109.6 31.8 107.3 35 107.3 C 36.9 107.3 38.9 108 40.1 109.8 C 40.1 109.8 40.1 106.4 40.1 106.4 C 40.1 103.8 38.6 102.3 36.1 102.3 C 34.3 102.3 32.7 103 31.3 104.6 C 31.3 104.6 30 102.6 30 102.6 C 31.8 100.7 34.1 99.8 36.5 99.8 C 40.4 99.8 42.9 101.7 42.9 106.1 C 42.94 106.08 42.9 119.6 42.9 119.6 L 40.1 119.6 Z M 40.1 115.6 C 40.1 115.6 40.1 111.9 40.1 111.9 C 39.2 110.2 37.6 109.4 35.9 109.4 C 33.5 109.4 32.1 111.3 32.1 113.7 C 32.1 116.1 33.5 118 35.9 118 C 37.6 118 39.2 117.2 40.1 115.6 Z M 46.6 117.4 C 46.6 117.4 48.1 115.3 48.1 115.3 C 49.2 116.7 51 117.8 53.1 117.8 C 55.3 117.8 56.8 116.5 56.8 114.6 C 56.8 110.1 47.2 111.7 47.2 105 C 47.2 102.1 49.5 99.8 53.3 99.8 C 55.9 99.8 57.9 100.8 59.2 102.3 C 59.2 102.3 57.9 104.2 57.9 104.2 C 56.9 103 55.3 102.1 53.4 102.1 C 51.3 102.1 49.9 103.4 49.9 104.9 C 49.9 109 59.6 107.6 59.6 114.6 C 59.6 117.8 57.1 120.1 53.1 120.1 C 50.4 120.1 48.2 119.2 46.6 117.4 Z M 82.2 119.6 C 82.2 119.6 82.18 117.52 82.2 117.5 C 80.9 119.3 79.1 120.1 77.1 120.1 C 74 120.1 71.3 117.7 71.3 113.6 C 71.3 109.6 73.9 107.3 77.1 107.3 C 79.1 107.3 81 108 82.2 109.8 C 82.2 109.8 82.2 106.4 82.2 106.4 C 82.2 103.8 80.7 102.3 78.2 102.3 C 76.4 102.3 74.9 103 73.4 104.6 C 73.4 104.6 72.1 102.6 72.1 102.6 C 73.9 100.7 76.2 99.8 78.7 99.8 C 82.5 99.8 85.1 101.7 85.1 106.1 C 85.06 106.08 85.1 119.6 85.1 119.6 L 82.2 119.6 Z M 82.2 115.6 C 82.2 115.6 82.2 111.9 82.2 111.9 C 81.3 110.2 79.7 109.4 78 109.4 C 75.6 109.4 74.2 111.3 74.2 113.7 C 74.2 116.1 75.6 118 78 118 C 79.7 118 81.3 117.2 82.2 115.6 Z M 90.3 119.6 L 90.3 92.9 L 93.1 92.9 L 93.1 119.6 L 90.3 119.6 Z M 117.9 119.6 C 117.9 119.6 117.94 105.6 117.9 105.6 C 117.9 103.5 117.1 102.4 115.3 102.4 C 113.5 102.4 111.8 103.9 111.1 105.4 C 111.06 105.44 111.1 119.6 111.1 119.6 L 108.2 119.6 C 108.2 119.6 108.18 105.6 108.2 105.6 C 108.2 103.5 107.3 102.4 105.5 102.4 C 103.7 102.4 102.1 103.9 101.3 105.4 C 101.26 105.44 101.3 119.6 101.3 119.6 L 98.4 119.6 L 98.4 100.3 L 101.3 100.3 C 101.3 100.3 101.26 103.04 101.3 103 C 102.1 101.6 104.2 99.8 106.5 99.8 C 109 99.8 110.5 101.2 110.9 103.2 C 111.9 101.5 114 99.8 116.3 99.8 C 119.2 99.8 120.8 101.4 120.8 104.8 C 120.82 104.84 120.8 119.6 120.8 119.6 L 117.9 119.6 Z M 125.1 109.9 C 125.1 104.5 127.9 99.8 133 99.8 C 138.2 99.8 140.9 104.5 140.9 109.9 C 140.9 115.4 138.2 120.1 133 120.1 C 127.9 120.1 125.1 115.4 125.1 109.9 Z M 137.9 109.9 C 137.9 106 136.4 102.4 133 102.4 C 129.7 102.4 128.1 106 128.1 109.9 C 128.1 113.8 129.7 117.5 133 117.5 C 136.4 117.5 137.9 113.8 137.9 109.9 Z M 143.6 117.4 C 143.6 117.4 145.1 115.3 145.1 115.3 C 146.2 116.7 148 117.8 150.1 117.8 C 152.3 117.8 153.8 116.5 153.8 114.6 C 153.8 110.1 144.2 111.7 144.2 105 C 144.2 102.1 146.5 99.8 150.3 99.8 C 152.9 99.8 154.9 100.8 156.2 102.3 C 156.2 102.3 154.9 104.2 154.9 104.2 C 153.9 103 152.3 102.1 150.4 102.1 C 148.3 102.1 146.9 103.4 146.9 104.9 C 146.9 109 156.6 107.6 156.6 114.6 C 156.6 117.8 154.1 120.1 150.1 120.1 C 147.4 120.1 145.2 119.2 143.6 117.4 Z M 161.2 115.7 C 161.22 115.72 161.2 102.8 161.2 102.8 L 158.7 102.8 L 158.7 100.3 L 161.2 100.3 L 161.2 95 L 164.1 95 L 164.1 100.3 L 167.4 100.3 L 167.4 102.8 L 164.1 102.8 C 164.1 102.8 164.1 115.2 164.1 115.2 C 164.1 116.7 164.5 117.5 165.7 117.5 C 166.4 117.5 167 117.2 167.3 116.8 C 167.3 116.8 168.2 118.9 168.2 118.9 C 167.5 119.6 166.6 120.1 165.1 120.1 C 162.5 120.1 161.2 118.6 161.2 115.7 Z M 178.2 117.4 C 178.2 117.4 179.7 115.3 179.7 115.3 C 180.8 116.7 182.6 117.8 184.7 117.8 C 186.9 117.8 188.4 116.5 188.4 114.6 C 188.4 110.1 178.8 111.7 178.8 105 C 178.8 102.1 181.1 99.8 184.9 99.8 C 187.5 99.8 189.5 100.8 190.8 102.3 C 190.8 102.3 189.5 104.2 189.5 104.2 C 188.5 103 186.9 102.1 185 102.1 C 182.9 102.1 181.5 103.4 181.5 104.9 C 181.5 109 191.2 107.6 191.2 114.6 C 191.2 117.8 188.7 120.1 184.7 120.1 C 182 120.1 179.8 119.2 178.2 117.4 Z M 194.7 124.6 C 195.1 124.8 195.7 124.9 196 124.9 C 197.1 124.9 197.7 124.4 198.3 123 C 198.26 122.96 199.3 120 199.3 120 L 192.9 100.3 L 196 100.3 L 200.8 116.1 L 205.6 100.3 L 208.7 100.3 C 208.7 100.3 200.98 123.68 201 123.7 C 200 126.5 198.5 127.4 196.2 127.4 C 195.6 127.4 194.7 127.3 194.3 127.2 C 194.3 127.2 194.7 124.6 194.7 124.6 Z M 222 119.6 C 222 119.6 222.02 105.84 222 105.8 C 222 103.3 220.9 102.4 218.9 102.4 C 217.1 102.4 215.3 103.8 214.4 105.4 C 214.42 105.44 214.4 119.6 214.4 119.6 L 211.6 119.6 L 211.6 100.3 L 214.4 100.3 C 214.4 100.3 214.42 103.04 214.4 103 C 215.5 101.4 217.7 99.8 220 99.8 C 223.3 99.8 224.9 101.6 224.9 105 C 224.9 105.04 224.9 119.6 224.9 119.6 L 222 119.6 Z M 229.2 109.9 C 229.2 104.5 231.9 99.8 237.1 99.8 C 242.3 99.8 244.9 104.5 244.9 109.9 C 244.9 115.4 242.3 120.1 237.1 120.1 C 231.9 120.1 229.2 115.4 229.2 109.9 Z M 241.9 109.9 C 241.9 106 240.5 102.4 237.1 102.4 C 233.7 102.4 232.2 106 232.2 109.9 C 232.2 113.8 233.7 117.5 237.1 117.5 C 240.5 117.5 241.9 113.8 241.9 109.9 Z M 259.7 119.6 C 259.7 119.6 259.7 105.84 259.7 105.8 C 259.7 103.3 258.5 102.4 256.6 102.4 C 254.7 102.4 253 103.8 252.1 105.4 C 252.1 105.44 252.1 119.6 252.1 119.6 L 249.3 119.6 L 249.3 100.3 L 252.1 100.3 C 252.1 100.3 252.1 103.04 252.1 103 C 253.2 101.4 255.4 99.8 257.7 99.8 C 261 99.8 262.6 101.6 262.6 105 C 262.58 105.04 262.6 119.6 262.6 119.6 L 259.7 119.6 Z M 267.3 124.6 C 267.7 124.8 268.3 124.9 268.6 124.9 C 269.7 124.9 270.3 124.4 270.9 123 C 270.86 122.96 271.9 120 271.9 120 L 265.5 100.3 L 268.6 100.3 L 273.4 116.1 L 278.2 100.3 L 281.3 100.3 C 281.3 100.3 273.58 123.68 273.6 123.7 C 272.6 126.5 271.1 127.4 268.8 127.4 C 268.2 127.4 267.3 127.3 266.9 127.2 C 266.9 127.2 267.3 124.6 267.3 124.6 Z M 303.7 119.6 C 303.7 119.6 303.7 105.6 303.7 105.6 C 303.7 103.5 302.9 102.4 301 102.4 C 299.3 102.4 297.6 103.9 296.8 105.4 C 296.82 105.44 296.8 119.6 296.8 119.6 L 293.9 119.6 C 293.9 119.6 293.94 105.6 293.9 105.6 C 293.9 103.5 293.1 102.4 291.2 102.4 C 289.5 102.4 287.9 103.9 287 105.4 C 287.02 105.44 287 119.6 287 119.6 L 284.2 119.6 L 284.2 100.3 L 287 100.3 C 287 100.3 287.02 103.04 287 103 C 287.8 101.6 290 99.8 292.3 99.8 C 294.8 99.8 296.3 101.2 296.7 103.2 C 297.6 101.5 299.8 99.8 302.1 99.8 C 304.9 99.8 306.6 101.4 306.6 104.8 C 306.58 104.84 306.6 119.6 306.6 119.6 L 303.7 119.6 Z M 310.9 109.9 C 310.9 104.5 313.6 99.8 318.7 99.8 C 323.9 99.8 326.6 104.5 326.6 109.9 C 326.6 115.4 323.9 120.1 318.7 120.1 C 313.6 120.1 310.9 115.4 310.9 109.9 Z M 323.6 109.9 C 323.6 106 322.1 102.4 318.7 102.4 C 315.4 102.4 313.9 106 313.9 109.9 C 313.9 113.8 315.4 117.5 318.7 117.5 C 322.1 117.5 323.6 113.8 323.6 109.9 Z M 341.4 119.6 C 341.4 119.6 341.38 116.92 341.4 116.9 C 340.2 118.6 338.2 120.1 335.8 120.1 C 332.5 120.1 330.9 118.4 330.9 114.9 C 330.94 114.92 330.9 100.3 330.9 100.3 L 333.8 100.3 C 333.8 100.3 333.78 114.08 333.8 114.1 C 333.8 116.6 335 117.5 336.9 117.5 C 338.8 117.5 340.5 116.1 341.4 114.5 C 341.38 114.52 341.4 100.3 341.4 100.3 L 344.3 100.3 L 344.3 119.6 L 341.4 119.6 Z M 348 117.4 C 348 117.4 349.4 115.3 349.4 115.3 C 350.5 116.7 352.4 117.8 354.5 117.8 C 356.7 117.8 358.2 116.5 358.2 114.6 C 358.2 110.1 348.5 111.7 348.5 105 C 348.5 102.1 350.9 99.8 354.7 99.8 C 357.3 99.8 359.2 100.8 360.6 102.3 C 360.6 102.3 359.2 104.2 359.2 104.2 C 358.3 103 356.6 102.1 354.7 102.1 C 352.6 102.1 351.3 103.4 351.3 104.9 C 351.3 109 360.9 107.6 360.9 114.6 C 360.9 117.8 358.5 120.1 354.5 120.1 C 351.8 120.1 349.6 119.2 348 117.4 Z M 387.9 119.6 L 383.7 104.1 L 379.6 119.6 L 376.7 119.6 L 371.5 100.3 L 374.5 100.3 L 378.3 115.7 L 382.3 100.3 L 385.1 100.3 L 389.2 115.7 L 393 100.3 L 396 100.3 L 390.8 119.6 L 387.9 119.6 Z M 398.6 95.5 C 398.6 94.4 399.5 93.6 400.5 93.6 C 401.6 93.6 402.5 94.4 402.5 95.5 C 402.5 96.6 401.6 97.5 400.5 97.5 C 399.5 97.5 398.6 96.6 398.6 95.5 Z M 399.1 119.6 L 399.1 100.3 L 402 100.3 L 402 119.6 L 399.1 119.6 Z M 407.8 115.7 C 407.82 115.72 407.8 102.8 407.8 102.8 L 405.3 102.8 L 405.3 100.3 L 407.8 100.3 L 407.8 95 L 410.7 95 L 410.7 100.3 L 414 100.3 L 414 102.8 L 410.7 102.8 C 410.7 102.8 410.7 115.2 410.7 115.2 C 410.7 116.7 411.1 117.5 412.3 117.5 C 413 117.5 413.6 117.2 413.9 116.8 C 413.9 116.8 414.8 118.9 414.8 118.9 C 414.1 119.6 413.2 120.1 411.7 120.1 C 409.1 120.1 407.8 118.6 407.8 115.7 Z M 428.3 119.6 C 428.3 119.6 428.25 105.8 428.3 105.8 C 428.3 103.2 427.1 102.4 425.1 102.4 C 423.3 102.4 421.5 103.8 420.6 105.4 C 420.61 105.44 420.6 119.6 420.6 119.6 L 417.8 119.6 L 417.8 92.9 L 420.6 92.9 C 420.6 92.9 420.61 103.04 420.6 103 C 421.7 101.4 423.9 99.8 426.3 99.8 C 429.5 99.8 431.1 101.4 431.1 105 C 431.09 104.96 431.1 119.6 431.1 119.6 L 428.3 119.6 Z " stroke="none" fill="#b13d24"/>  </g>  <g id="Polygon178484">    <path d="M 4.1 51.5 C 4.1 50.4 5 49.6 6 49.6 C 7.1 49.6 8 50.4 8 51.5 C 8 52.6 7.1 53.5 6 53.5 C 5 53.5 4.1 52.6 4.1 51.5 Z M 4.6 75.6 L 4.6 56.3 L 7.5 56.3 L 7.5 75.6 L 4.6 75.6 Z M 13.3 71.7 C 13.3 71.72 13.3 58.8 13.3 58.8 L 10.7 58.8 L 10.7 56.3 L 13.3 56.3 L 13.3 51 L 16.2 51 L 16.2 56.3 L 19.5 56.3 L 19.5 58.8 L 16.2 58.8 C 16.2 58.8 16.18 71.2 16.2 71.2 C 16.2 72.7 16.6 73.5 17.7 73.5 C 18.5 73.5 19.1 73.2 19.4 72.8 C 19.4 72.8 20.3 74.9 20.3 74.9 C 19.6 75.6 18.7 76.1 17.2 76.1 C 14.5 76.1 13.3 74.6 13.3 71.7 Z M 46.1 75.6 L 42 60.1 L 37.8 75.6 L 34.9 75.6 L 29.7 56.3 L 32.7 56.3 L 36.5 71.7 L 40.6 56.3 L 43.3 56.3 L 47.4 71.7 L 51.2 56.3 L 54.2 56.3 L 49.1 75.6 L 46.1 75.6 Z M 67.3 75.6 C 67.3 75.6 67.3 73.52 67.3 73.5 C 66.1 75.3 64.2 76.1 62.2 76.1 C 59.1 76.1 56.4 73.7 56.4 69.6 C 56.4 65.6 59.1 63.3 62.2 63.3 C 64.2 63.3 66.1 64 67.3 65.8 C 67.3 65.8 67.3 62.4 67.3 62.4 C 67.3 59.8 65.9 58.3 63.3 58.3 C 61.5 58.3 60 59 58.5 60.6 C 58.5 60.6 57.2 58.6 57.2 58.6 C 59.1 56.7 61.3 55.8 63.8 55.8 C 67.6 55.8 70.2 57.7 70.2 62.1 C 70.18 62.08 70.2 75.6 70.2 75.6 L 67.3 75.6 Z M 67.3 71.6 C 67.3 71.6 67.3 67.9 67.3 67.9 C 66.4 66.2 64.8 65.4 63.1 65.4 C 60.7 65.4 59.3 67.3 59.3 69.7 C 59.3 72.1 60.7 74 63.1 74 C 64.8 74 66.4 73.2 67.3 71.6 Z M 73.9 73.4 C 73.9 73.4 75.3 71.3 75.3 71.3 C 76.4 72.7 78.3 73.8 80.3 73.8 C 82.6 73.8 84.1 72.5 84.1 70.6 C 84.1 66.1 74.4 67.7 74.4 61 C 74.4 58.1 76.7 55.8 80.6 55.8 C 83.1 55.8 85.1 56.8 86.5 58.3 C 86.5 58.3 85.1 60.2 85.1 60.2 C 84.1 59 82.5 58.1 80.6 58.1 C 78.5 58.1 77.2 59.4 77.2 60.9 C 77.2 65 86.8 63.6 86.8 70.6 C 86.8 73.8 84.3 76.1 80.4 76.1 C 77.7 76.1 75.5 75.2 73.9 73.4 Z M 97.9 73.4 C 97.9 73.4 99.4 71.3 99.4 71.3 C 100.5 72.7 102.3 73.8 104.4 73.8 C 106.7 73.8 108.1 72.5 108.1 70.6 C 108.1 66.1 98.5 67.7 98.5 61 C 98.5 58.1 100.8 55.8 104.7 55.8 C 107.2 55.8 109.2 56.8 110.5 58.3 C 110.5 58.3 109.2 60.2 109.2 60.2 C 108.2 59 106.6 58.1 104.7 58.1 C 102.6 58.1 101.3 59.4 101.3 60.9 C 101.3 65 110.9 63.6 110.9 70.6 C 110.9 73.8 108.4 76.1 104.5 76.1 C 101.7 76.1 99.5 75.2 97.9 73.4 Z M 125.4 75.6 C 125.4 75.6 125.42 72.92 125.4 72.9 C 124.3 74.6 122.2 76.1 119.8 76.1 C 116.5 76.1 115 74.4 115 70.9 C 114.98 70.92 115 56.3 115 56.3 L 117.8 56.3 C 117.8 56.3 117.82 70.08 117.8 70.1 C 117.8 72.6 119 73.5 120.9 73.5 C 122.8 73.5 124.6 72.1 125.4 70.5 C 125.42 70.52 125.4 56.3 125.4 56.3 L 128.3 56.3 L 128.3 75.6 L 125.4 75.6 Z M 132.6 65.9 C 132.6 60.2 135.7 55.8 140.6 55.8 C 143.3 55.8 144.9 56.9 146.1 58.4 C 146.1 58.4 144.6 60.3 144.6 60.3 C 143.5 58.9 142.3 58.4 140.9 58.4 C 137.4 58.4 135.6 61.8 135.6 65.9 C 135.6 70 137.4 73.5 140.9 73.5 C 142.3 73.5 143.5 72.9 144.6 71.6 C 144.6 71.6 146.1 73.5 146.1 73.5 C 144.9 75 143.3 76.1 140.6 76.1 C 135.7 76.1 132.6 71.6 132.6 65.9 Z M 160.3 75.6 C 160.3 75.6 160.3 61.8 160.3 61.8 C 160.3 59.2 159.1 58.4 157.2 58.4 C 155.3 58.4 153.5 59.8 152.7 61.4 C 152.66 61.44 152.7 75.6 152.7 75.6 L 149.8 75.6 L 149.8 48.9 L 152.7 48.9 C 152.7 48.9 152.66 59.04 152.7 59 C 153.8 57.4 156 55.8 158.3 55.8 C 161.6 55.8 163.1 57.4 163.1 61 C 163.14 60.96 163.1 75.6 163.1 75.6 L 160.3 75.6 Z M 186.9 75.6 C 186.9 75.6 186.94 73.52 186.9 73.5 C 185.7 75.3 183.8 76.1 181.9 76.1 C 178.7 76.1 176 73.7 176 69.6 C 176 65.6 178.7 63.3 181.9 63.3 C 183.8 63.3 185.7 64 186.9 65.8 C 186.9 65.8 186.9 62.4 186.9 62.4 C 186.9 59.8 185.5 58.3 183 58.3 C 181.2 58.3 179.6 59 178.1 60.6 C 178.1 60.6 176.9 58.6 176.9 58.6 C 178.7 56.7 181 55.8 183.4 55.8 C 187.3 55.8 189.8 57.7 189.8 62.1 C 189.82 62.08 189.8 75.6 189.8 75.6 L 186.9 75.6 Z M 186.9 71.6 C 186.9 71.6 186.9 67.9 186.9 67.9 C 186.1 66.2 184.5 65.4 182.8 65.4 C 180.4 65.4 178.9 67.3 178.9 69.7 C 178.9 72.1 180.4 74 182.8 74 C 184.5 74 186.1 73.2 186.9 71.6 Z M 214.7 75.6 C 214.7 75.6 214.7 72.84 214.7 72.8 C 213.6 74.8 211.7 76.1 209.6 76.1 C 205.3 76.1 202.7 72 202.7 66 C 202.7 60 205.3 55.8 209.6 55.8 C 211.6 55.8 213.5 56.9 214.7 59.1 C 214.7 59.08 214.7 48.9 214.7 48.9 L 217.6 48.9 L 217.6 75.6 L 214.7 75.6 Z M 214.7 70.4 C 214.7 70.4 214.7 61.5 214.7 61.5 C 214 59.8 212.2 58.4 210.3 58.4 C 207.2 58.4 205.7 61.8 205.7 66 C 205.7 70.1 207.2 73.5 210.3 73.5 C 212.2 73.5 214 72.1 214.7 70.4 Z M 222.3 51.5 C 222.3 50.4 223.2 49.6 224.3 49.6 C 225.3 49.6 226.2 50.4 226.2 51.5 C 226.2 52.6 225.3 53.5 224.3 53.5 C 223.2 53.5 222.3 52.6 222.3 51.5 Z M 222.9 75.6 L 222.9 56.3 L 225.7 56.3 L 225.7 75.6 L 222.9 75.6 Z M 229.4 73.4 C 229.4 73.4 230.9 71.3 230.9 71.3 C 232 72.7 233.8 73.8 235.9 73.8 C 238.1 73.8 239.6 72.5 239.6 70.6 C 239.6 66.1 230 67.7 230 61 C 230 58.1 232.3 55.8 236.1 55.8 C 238.7 55.8 240.7 56.8 242 58.3 C 242 58.3 240.7 60.2 240.7 60.2 C 239.7 59 238.1 58.1 236.2 58.1 C 234.1 58.1 232.7 59.4 232.7 60.9 C 232.7 65 242.4 63.6 242.4 70.6 C 242.4 73.8 239.9 76.1 235.9 76.1 C 233.2 76.1 231 75.2 229.4 73.4 Z M 247 71.7 C 247.02 71.72 247 58.8 247 58.8 L 244.5 58.8 L 244.5 56.3 L 247 56.3 L 247 51 L 249.9 51 L 249.9 56.3 L 253.2 56.3 L 253.2 58.8 L 249.9 58.8 C 249.9 58.8 249.9 71.2 249.9 71.2 C 249.9 72.7 250.3 73.5 251.5 73.5 C 252.2 73.5 252.8 73.2 253.1 72.8 C 253.1 72.8 254 74.9 254 74.9 C 253.3 75.6 252.4 76.1 250.9 76.1 C 248.3 76.1 247 74.6 247 71.7 Z M 256.4 51.5 C 256.4 50.4 257.3 49.6 258.4 49.6 C 259.5 49.6 260.3 50.4 260.3 51.5 C 260.3 52.6 259.5 53.5 258.4 53.5 C 257.3 53.5 256.4 52.6 256.4 51.5 Z M 257 75.6 L 257 56.3 L 259.8 56.3 L 259.8 75.6 L 257 75.6 Z M 275.5 75.6 C 275.5 75.6 275.54 61.84 275.5 61.8 C 275.5 59.3 274.4 58.4 272.5 58.4 C 270.6 58.4 268.8 59.8 267.9 61.4 C 267.94 61.44 267.9 75.6 267.9 75.6 L 265.1 75.6 L 265.1 56.3 L 267.9 56.3 C 267.9 56.3 267.94 59.04 267.9 59 C 269.1 57.4 271.2 55.8 273.5 55.8 C 276.8 55.8 278.4 57.6 278.4 61 C 278.42 61.04 278.4 75.6 278.4 75.6 L 275.5 75.6 Z M 282.7 65.9 C 282.7 60.2 285.8 55.8 290.7 55.8 C 293.4 55.8 295.1 56.9 296.3 58.4 C 296.3 58.4 294.7 60.3 294.7 60.3 C 293.7 58.9 292.5 58.4 291 58.4 C 287.5 58.4 285.7 61.8 285.7 65.9 C 285.7 70 287.5 73.5 291 73.5 C 292.5 73.5 293.7 72.9 294.7 71.6 C 294.7 71.6 296.3 73.5 296.3 73.5 C 295.1 75 293.4 76.1 290.7 76.1 C 285.8 76.1 282.7 71.6 282.7 65.9 Z M 300.5 71.7 C 300.5 71.72 300.5 58.8 300.5 58.8 L 297.9 58.8 L 297.9 56.3 L 300.5 56.3 L 300.5 51 L 303.4 51 L 303.4 56.3 L 306.7 56.3 L 306.7 58.8 L 303.4 58.8 C 303.4 58.8 303.38 71.2 303.4 71.2 C 303.4 72.7 303.8 73.5 304.9 73.5 C 305.7 73.5 306.3 73.2 306.6 72.8 C 306.6 72.8 307.5 74.9 307.5 74.9 C 306.8 75.6 305.9 76.1 304.4 76.1 C 301.7 76.1 300.5 74.6 300.5 71.7 Z M 330.1 75.6 C 330.1 75.6 330.1 72.84 330.1 72.8 C 329 74.8 327.1 76.1 325 76.1 C 320.7 76.1 318.1 72 318.1 66 C 318.1 60 320.7 55.8 325 55.8 C 327 55.8 328.9 56.9 330.1 59.1 C 330.1 59.08 330.1 48.9 330.1 48.9 L 333 48.9 L 333 75.6 L 330.1 75.6 Z M 330.1 70.4 C 330.1 70.4 330.1 61.5 330.1 61.5 C 329.4 59.8 327.6 58.4 325.7 58.4 C 322.6 58.4 321.1 61.8 321.1 66 C 321.1 70.1 322.6 73.5 325.7 73.5 C 327.6 73.5 329.4 72.1 330.1 70.4 Z M 337.7 51.5 C 337.7 50.4 338.6 49.6 339.7 49.6 C 340.7 49.6 341.6 50.4 341.6 51.5 C 341.6 52.6 340.7 53.5 339.7 53.5 C 338.6 53.5 337.7 52.6 337.7 51.5 Z M 338.3 75.6 L 338.3 56.3 L 341.1 56.3 L 341.1 75.6 L 338.3 75.6 Z M 344.8 73.4 C 344.8 73.4 346.3 71.3 346.3 71.3 C 347.4 72.7 349.2 73.8 351.3 73.8 C 353.5 73.8 355 72.5 355 70.6 C 355 66.1 345.4 67.7 345.4 61 C 345.4 58.1 347.7 55.8 351.5 55.8 C 354.1 55.8 356.1 56.8 357.4 58.3 C 357.4 58.3 356.1 60.2 356.1 60.2 C 355.1 59 353.5 58.1 351.6 58.1 C 349.5 58.1 348.1 59.4 348.1 60.9 C 348.1 65 357.8 63.6 357.8 70.6 C 357.8 73.8 355.3 76.1 351.3 76.1 C 348.6 76.1 346.4 75.2 344.8 73.4 Z M 372.3 75.6 C 372.3 75.6 372.34 61.8 372.3 61.8 C 372.3 59.2 371.1 58.4 369.2 58.4 C 367.3 58.4 365.6 59.8 364.7 61.4 C 364.7 61.44 364.7 75.6 364.7 75.6 L 361.9 75.6 L 361.9 48.9 L 364.7 48.9 C 364.7 48.9 364.7 59.04 364.7 59 C 365.8 57.4 368 55.8 370.3 55.8 C 373.6 55.8 375.2 57.4 375.2 61 C 375.18 60.96 375.2 75.6 375.2 75.6 L 372.3 75.6 Z M 388.5 51.5 C 388.5 50.4 389.4 49.6 390.5 49.6 C 391.5 49.6 392.4 50.4 392.4 51.5 C 392.4 52.6 391.5 53.5 390.5 53.5 C 389.4 53.5 388.5 52.6 388.5 51.5 Z M 389.1 75.6 L 389.1 56.3 L 391.9 56.3 L 391.9 75.6 L 389.1 75.6 Z M 397.7 71.7 C 397.73 71.72 397.7 58.8 397.7 58.8 L 395.2 58.8 L 395.2 56.3 L 397.7 56.3 L 397.7 51 L 400.6 51 L 400.6 56.3 L 403.9 56.3 L 403.9 58.8 L 400.6 58.8 C 400.6 58.8 400.61 71.2 400.6 71.2 C 400.6 72.7 401.1 73.5 402.2 73.5 C 402.9 73.5 403.5 73.2 403.9 72.8 C 403.9 72.8 404.7 74.9 404.7 74.9 C 404.1 75.6 403.1 76.1 401.6 76.1 C 399 76.1 397.7 74.6 397.7 71.7 Z " stroke="none" fill="#b13d24"/>  </g>  <g id="Polygon178483">    <path d="M 20.6 31.6 L 16.3 10.6 L 11.9 31.6 L 8.5 31.6 L 2.6 4.9 L 6 4.9 L 10.4 26.7 L 14.9 4.9 L 17.6 4.9 L 22.2 26.7 L 26.5 4.9 L 29.9 4.9 L 24 31.6 L 20.6 31.6 Z M 43.7 31.6 C 43.7 31.6 43.7 17.8 43.7 17.8 C 43.7 15.2 42.5 14.4 40.6 14.4 C 38.7 14.4 36.9 15.8 36.1 17.4 C 36.06 17.44 36.1 31.6 36.1 31.6 L 33.2 31.6 L 33.2 4.9 L 36.1 4.9 C 36.1 4.9 36.06 15.04 36.1 15 C 37.2 13.4 39.4 11.8 41.7 11.8 C 45 11.8 46.5 13.4 46.5 17 C 46.54 16.96 46.5 31.6 46.5 31.6 L 43.7 31.6 Z M 51.3 7.5 C 51.3 6.4 52.2 5.6 53.2 5.6 C 54.3 5.6 55.2 6.4 55.2 7.5 C 55.2 8.6 54.3 9.5 53.2 9.5 C 52.2 9.5 51.3 8.6 51.3 7.5 Z M 51.8 31.6 L 51.8 12.3 L 54.7 12.3 L 54.7 31.6 L 51.8 31.6 Z M 59.9 31.6 L 59.9 4.9 L 62.8 4.9 L 62.8 31.6 L 59.9 31.6 Z M 67.1 21.9 C 67.1 16.3 70.1 11.8 74.9 11.8 C 80 11.8 82.6 16.4 82.6 22 C 82.58 22 82.6 22.9 82.6 22.9 C 82.6 22.9 70.06 22.88 70.1 22.9 C 70.2 26.8 72.2 29.7 75.6 29.7 C 77.3 29.7 79 28.8 80.2 27.3 C 80.2 27.3 81.7 29 81.7 29 C 80.2 30.9 78 32.1 75.4 32.1 C 70.2 32.1 67.1 27.8 67.1 21.9 Z M 74.9 14.2 C 71.5 14.2 70.1 17.9 70.1 20.8 C 70.1 20.8 79.7 20.8 79.7 20.8 C 79.7 17.8 78.4 14.2 74.9 14.2 Z M 95.9 27.7 C 95.94 27.72 95.9 14.8 95.9 14.8 L 93.4 14.8 L 93.4 12.3 L 95.9 12.3 L 95.9 7 L 98.8 7 L 98.8 12.3 L 102.1 12.3 L 102.1 14.8 L 98.8 14.8 C 98.8 14.8 98.82 27.2 98.8 27.2 C 98.8 28.7 99.3 29.5 100.4 29.5 C 101.1 29.5 101.7 29.2 102.1 28.8 C 102.1 28.8 102.9 30.9 102.9 30.9 C 102.3 31.6 101.3 32.1 99.8 32.1 C 97.2 32.1 95.9 30.6 95.9 27.7 Z M 116.4 31.6 C 116.4 31.6 116.38 17.8 116.4 17.8 C 116.4 15.2 115.2 14.4 113.3 14.4 C 111.4 14.4 109.6 15.8 108.7 17.4 C 108.74 17.44 108.7 31.6 108.7 31.6 L 105.9 31.6 L 105.9 4.9 L 108.7 4.9 C 108.7 4.9 108.74 15.04 108.7 15 C 109.9 13.4 112.1 11.8 114.4 11.8 C 117.7 11.8 119.2 13.4 119.2 17 C 119.22 16.96 119.2 31.6 119.2 31.6 L 116.4 31.6 Z M 123.9 7.5 C 123.9 6.4 124.9 5.6 125.9 5.6 C 127 5.6 127.9 6.4 127.9 7.5 C 127.9 8.6 127 9.5 125.9 9.5 C 124.9 9.5 123.9 8.6 123.9 7.5 Z M 124.5 31.6 L 124.5 12.3 L 127.3 12.3 L 127.3 31.6 L 124.5 31.6 Z M 131.1 29.4 C 131.1 29.4 132.5 27.3 132.5 27.3 C 133.6 28.7 135.5 29.8 137.5 29.8 C 139.8 29.8 141.3 28.5 141.3 26.6 C 141.3 22.1 131.6 23.7 131.6 17 C 131.6 14.1 133.9 11.8 137.8 11.8 C 140.3 11.8 142.3 12.8 143.7 14.3 C 143.7 14.3 142.3 16.2 142.3 16.2 C 141.3 15 139.7 14.1 137.8 14.1 C 135.7 14.1 134.4 15.4 134.4 16.9 C 134.4 21 144 19.6 144 26.6 C 144 29.8 141.5 32.1 137.6 32.1 C 134.9 32.1 132.7 31.2 131.1 29.4 Z M 167.7 31.6 C 167.7 31.6 167.74 28.84 167.7 28.8 C 166.6 30.8 164.7 32.1 162.7 32.1 C 158.3 32.1 155.7 28 155.7 22 C 155.7 16 158.3 11.8 162.7 11.8 C 164.6 11.8 166.6 12.9 167.7 15.1 C 167.74 15.08 167.7 4.9 167.7 4.9 L 170.6 4.9 L 170.6 31.6 L 167.7 31.6 Z M 167.7 26.4 C 167.7 26.4 167.7 17.5 167.7 17.5 C 167 15.8 165.2 14.4 163.4 14.4 C 160.2 14.4 158.7 17.8 158.7 22 C 158.7 26.1 160.2 29.5 163.4 29.5 C 165.2 29.5 167 28.1 167.7 26.4 Z M 175.3 7.5 C 175.3 6.4 176.3 5.6 177.3 5.6 C 178.4 5.6 179.3 6.4 179.3 7.5 C 179.3 8.6 178.4 9.5 177.3 9.5 C 176.3 9.5 175.3 8.6 175.3 7.5 Z M 175.9 31.6 L 175.9 12.3 L 178.7 12.3 L 178.7 31.6 L 175.9 31.6 Z M 182.5 29.4 C 182.5 29.4 183.9 27.3 183.9 27.3 C 185 28.7 186.9 29.8 188.9 29.8 C 191.2 29.8 192.7 28.5 192.7 26.6 C 192.7 22.1 183 23.7 183 17 C 183 14.1 185.3 11.8 189.2 11.8 C 191.7 11.8 193.7 12.8 195.1 14.3 C 195.1 14.3 193.7 16.2 193.7 16.2 C 192.7 15 191.1 14.1 189.2 14.1 C 187.1 14.1 185.8 15.4 185.8 16.9 C 185.8 21 195.4 19.6 195.4 26.6 C 195.4 29.8 192.9 32.1 189 32.1 C 186.3 32.1 184.1 31.2 182.5 29.4 Z M 210 31.6 C 210 31.6 209.98 17.8 210 17.8 C 210 15.2 208.8 14.4 206.9 14.4 C 205 14.4 203.2 15.8 202.3 17.4 C 202.34 17.44 202.3 31.6 202.3 31.6 L 199.5 31.6 L 199.5 4.9 L 202.3 4.9 C 202.3 4.9 202.34 15.04 202.3 15 C 203.5 13.4 205.7 11.8 208 11.8 C 211.3 11.8 212.8 13.4 212.8 17 C 212.82 16.96 212.8 31.6 212.8 31.6 L 210 31.6 Z M 226.1 7.5 C 226.1 6.4 227.1 5.6 228.1 5.6 C 229.2 5.6 230.1 6.4 230.1 7.5 C 230.1 8.6 229.2 9.5 228.1 9.5 C 227.1 9.5 226.1 8.6 226.1 7.5 Z M 226.7 31.6 L 226.7 12.3 L 229.5 12.3 L 229.5 31.6 L 226.7 31.6 Z M 233.3 29.4 C 233.3 29.4 234.7 27.3 234.7 27.3 C 235.8 28.7 237.7 29.8 239.7 29.8 C 242 29.8 243.5 28.5 243.5 26.6 C 243.5 22.1 233.8 23.7 233.8 17 C 233.8 14.1 236.1 11.8 240 11.8 C 242.5 11.8 244.5 12.8 245.9 14.3 C 245.9 14.3 244.5 16.2 244.5 16.2 C 243.5 15 241.9 14.1 240 14.1 C 237.9 14.1 236.6 15.4 236.6 16.9 C 236.6 21 246.2 19.6 246.2 26.6 C 246.2 29.8 243.7 32.1 239.8 32.1 C 237.1 32.1 234.9 31.2 233.3 29.4 Z M 269.3 31.6 C 269.3 31.6 269.34 17.84 269.3 17.8 C 269.3 15.3 268.2 14.4 266.3 14.4 C 264.4 14.4 262.6 15.8 261.7 17.4 C 261.74 17.44 261.7 31.6 261.7 31.6 L 258.9 31.6 L 258.9 12.3 L 261.7 12.3 C 261.7 12.3 261.74 15.04 261.7 15 C 262.9 13.4 265 11.8 267.3 11.8 C 270.6 11.8 272.2 13.6 272.2 17 C 272.22 17.04 272.2 31.6 272.2 31.6 L 269.3 31.6 Z M 276.5 21.9 C 276.5 16.5 279.3 11.8 284.4 11.8 C 289.6 11.8 292.3 16.5 292.3 21.9 C 292.3 27.4 289.6 32.1 284.4 32.1 C 279.3 32.1 276.5 27.4 276.5 21.9 Z M 289.3 21.9 C 289.3 18 287.8 14.4 284.4 14.4 C 281.1 14.4 279.5 18 279.5 21.9 C 279.5 25.8 281.1 29.5 284.4 29.5 C 287.8 29.5 289.3 25.8 289.3 21.9 Z M 310.8 31.6 L 306.7 16.1 L 302.5 31.6 L 299.6 31.6 L 294.5 12.3 L 297.5 12.3 L 301.2 27.7 L 305.3 12.3 L 308 12.3 L 312.1 27.7 L 315.9 12.3 L 318.9 12.3 L 313.8 31.6 L 310.8 31.6 Z M 331.4 31.6 L 331.4 14.8 L 328.8 14.8 L 328.8 12.3 L 331.4 12.3 C 331.4 12.3 331.38 9.92 331.4 9.9 C 331.4 6.6 333.2 4.5 336.2 4.5 C 337.5 4.5 338.7 4.9 339.7 5.8 C 339.7 5.8 338.5 7.8 338.5 7.8 C 338 7.3 337.4 7 336.7 7 C 335.1 7 334.3 8 334.3 9.9 C 334.26 9.92 334.3 12.3 334.3 12.3 L 337.5 12.3 L 337.5 14.8 L 334.3 14.8 L 334.3 31.6 L 331.4 31.6 Z M 339.9 21.9 C 339.9 16.5 342.6 11.8 347.7 11.8 C 352.9 11.8 355.6 16.5 355.6 21.9 C 355.6 27.4 352.9 32.1 347.7 32.1 C 342.6 32.1 339.9 27.4 339.9 21.9 Z M 352.6 21.9 C 352.6 18 351.1 14.4 347.7 14.4 C 344.4 14.4 342.9 18 342.9 21.9 C 342.9 25.8 344.4 29.5 347.7 29.5 C 351.1 29.5 352.6 25.8 352.6 21.9 Z M 359.9 31.6 L 359.9 12.3 L 362.8 12.3 C 362.8 12.3 362.78 15.36 362.8 15.4 C 364 13.3 365.9 11.9 368.3 11.9 C 368.3 11.9 368.3 14.8 368.3 14.8 C 367.9 14.8 367.6 14.7 367.3 14.7 C 365.5 14.7 363.6 16.3 362.8 17.9 C 362.78 17.88 362.8 31.6 362.8 31.6 L 359.9 31.6 Z M 371.4 37 C 371.4 37 372.7 34.8 372.7 34.8 C 374 36.2 375.7 37 377.8 37 C 380.4 37 382.6 35.5 382.6 31.8 C 382.6 31.8 382.6 28.5 382.6 28.5 C 381.5 30.5 379.6 31.8 377.5 31.8 C 373.2 31.8 370.6 27.9 370.6 21.8 C 370.6 15.8 373.2 11.8 377.5 11.8 C 379.5 11.8 381.4 12.9 382.6 15.1 C 382.62 15.08 382.6 12.3 382.6 12.3 L 385.5 12.3 C 385.5 12.3 385.5 31.56 385.5 31.6 C 385.5 37.5 381.9 39.4 377.9 39.4 C 375.3 39.4 373.3 38.8 371.4 37 Z M 382.6 26.1 C 382.6 26.1 382.6 17.5 382.6 17.5 C 381.9 15.8 380.1 14.4 378.3 14.4 C 375.1 14.4 373.6 17.7 373.6 21.8 C 373.6 26 375.1 29.3 378.3 29.3 C 380.1 29.3 381.9 27.8 382.6 26.1 Z M 389.8 21.9 C 389.8 16.5 392.5 11.8 397.6 11.8 C 402.8 11.8 405.5 16.5 405.5 21.9 C 405.5 27.4 402.8 32.1 397.6 32.1 C 392.5 32.1 389.8 27.4 389.8 21.9 Z M 402.5 21.9 C 402.5 18 401 14.4 397.6 14.4 C 394.3 14.4 392.8 18 392.8 21.9 C 392.8 25.8 394.3 29.5 397.6 29.5 C 401 29.5 402.5 25.8 402.5 21.9 Z M 410.4 27.7 C 410.38 27.72 410.4 14.8 410.4 14.8 L 407.8 14.8 L 407.8 12.3 L 410.4 12.3 L 410.4 7 L 413.3 7 L 413.3 12.3 L 416.5 12.3 L 416.5 14.8 L 413.3 14.8 C 413.3 14.8 413.26 27.2 413.3 27.2 C 413.3 28.7 413.7 29.5 414.8 29.5 C 415.5 29.5 416.1 29.2 416.5 28.8 C 416.5 28.8 417.4 30.9 417.4 30.9 C 416.7 31.6 415.7 32.1 414.3 32.1 C 411.6 32.1 410.4 30.6 410.4 27.7 Z M 420.9 27.7 C 420.89 27.72 420.9 14.8 420.9 14.8 L 418.3 14.8 L 418.3 12.3 L 420.9 12.3 L 420.9 7 L 423.8 7 L 423.8 12.3 L 427.1 12.3 L 427.1 14.8 L 423.8 14.8 C 423.8 14.8 423.77 27.2 423.8 27.2 C 423.8 28.7 424.2 29.5 425.3 29.5 C 426.1 29.5 426.7 29.2 427 28.8 C 427 28.8 427.9 30.9 427.9 30.9 C 427.2 31.6 426.3 32.1 424.8 32.1 C 422.1 32.1 420.9 30.6 420.9 27.7 Z M 429.9 21.9 C 429.9 16.3 432.9 11.8 437.7 11.8 C 442.8 11.8 445.4 16.4 445.4 22 C 445.37 22 445.4 22.9 445.4 22.9 C 445.4 22.9 432.85 22.88 432.9 22.9 C 433 26.8 435 29.7 438.4 29.7 C 440.1 29.7 441.8 28.8 443 27.3 C 443 27.3 444.5 29 444.5 29 C 443 30.9 440.8 32.1 438.2 32.1 C 433 32.1 429.9 27.8 429.9 21.9 Z M 437.7 14.2 C 434.3 14.2 432.9 17.9 432.9 20.8 C 432.9 20.8 442.5 20.8 442.5 20.8 C 442.5 17.8 441.2 14.2 437.7 14.2 Z M 460 31.6 C 460 31.6 460.01 17.84 460 17.8 C 460 15.3 458.9 14.4 456.9 14.4 C 455.1 14.4 453.3 15.8 452.4 17.4 C 452.41 17.44 452.4 31.6 452.4 31.6 L 449.6 31.6 L 449.6 12.3 L 452.4 12.3 C 452.4 12.3 452.41 15.04 452.4 15 C 453.5 13.4 455.7 11.8 458 11.8 C 461.3 11.8 462.9 13.6 462.9 17 C 462.89 17.04 462.9 31.6 462.9 31.6 L 460 31.6 Z M 469.3 36.6 C 469.3 36.6 467.8 35.5 467.8 35.5 C 469.1 34.6 470.2 33 470.4 31.8 C 470.3 31.8 470 31.8 469.9 31.8 C 468.8 31.8 468 31 468 29.8 C 468 28.7 468.9 27.7 470.1 27.7 C 471.3 27.7 472.5 28.8 472.5 30.7 C 472.5 33.1 471.1 35.4 469.3 36.6 Z " stroke="none" fill="#b13d24"/>  </g></svg>