<?xml version="1.0" standalone="no"?><!DOCTYPE svg PUBLIC "-//W3C//DTD SVG 1.1//EN" "http://www.w3.org/Graphics/SVG/1.1/DTD/svg11.dtd"><svg xmlns="http://www.w3.org/2000/svg" version="1.1" width="486px" height="189.4px" viewBox="0 0 486 189.4">  <desc>Historically eaten as breakfast, this sweet and savoury dish is equally as delightful any other time of day</desc>  <defs/>  <g id="Polygon210016">    <path d="M 5.2 159.7 C 5.18 159.72 5.2 146.8 5.2 146.8 L 2.6 146.8 L 2.6 144.3 L 5.2 144.3 L 5.2 139 L 8.1 139 L 8.1 144.3 L 11.3 144.3 L 11.3 146.8 L 8.1 146.8 C 8.1 146.8 8.06 159.2 8.1 159.2 C 8.1 160.7 8.5 161.5 9.6 161.5 C 10.3 161.5 10.9 161.2 11.3 160.8 C 11.3 160.8 12.2 162.9 12.2 162.9 C 11.5 163.6 10.5 164.1 9.1 164.1 C 6.4 164.1 5.2 162.6 5.2 159.7 Z M 14.6 139.5 C 14.6 138.4 15.5 137.6 16.5 137.6 C 17.6 137.6 18.5 138.4 18.5 139.5 C 18.5 140.6 17.6 141.5 16.5 141.5 C 15.5 141.5 14.6 140.6 14.6 139.5 Z M 15.1 163.6 L 15.1 144.3 L 18 144.3 L 18 163.6 L 15.1 163.6 Z M 42.8 163.6 C 42.8 163.6 42.78 149.6 42.8 149.6 C 42.8 147.5 41.9 146.4 40.1 146.4 C 38.4 146.4 36.7 147.9 35.9 149.4 C 35.9 149.44 35.9 163.6 35.9 163.6 L 33 163.6 C 33 163.6 33.02 149.6 33 149.6 C 33 147.5 32.2 146.4 30.3 146.4 C 28.6 146.4 26.9 147.9 26.1 149.4 C 26.1 149.44 26.1 163.6 26.1 163.6 L 23.3 163.6 L 23.3 144.3 L 26.1 144.3 C 26.1 144.3 26.1 147.04 26.1 147 C 26.9 145.6 29.1 143.8 31.4 143.8 C 33.9 143.8 35.4 145.2 35.7 147.2 C 36.7 145.5 38.9 143.8 41.2 143.8 C 44 143.8 45.7 145.4 45.7 148.8 C 45.66 148.84 45.7 163.6 45.7 163.6 L 42.8 163.6 Z M 50 153.9 C 50 148.3 52.9 143.8 57.8 143.8 C 62.9 143.8 65.5 148.4 65.5 154 C 65.46 154 65.5 154.9 65.5 154.9 C 65.5 154.9 52.94 154.88 52.9 154.9 C 53.1 158.8 55.1 161.7 58.5 161.7 C 60.2 161.7 61.9 160.8 63.1 159.3 C 63.1 159.3 64.6 161 64.6 161 C 63.1 162.9 60.9 164.1 58.3 164.1 C 53.1 164.1 50 159.8 50 153.9 Z M 57.8 146.2 C 54.4 146.2 53 149.9 52.9 152.8 C 52.9 152.8 62.6 152.8 62.6 152.8 C 62.6 149.8 61.3 146.2 57.8 146.2 Z M 77.3 153.9 C 77.3 148.5 80 143.8 85.1 143.8 C 90.3 143.8 93 148.5 93 153.9 C 93 159.4 90.3 164.1 85.1 164.1 C 80 164.1 77.3 159.4 77.3 153.9 Z M 90 153.9 C 90 150 88.5 146.4 85.1 146.4 C 81.8 146.4 80.3 150 80.3 153.9 C 80.3 157.8 81.8 161.5 85.1 161.5 C 88.5 161.5 90 157.8 90 153.9 Z M 98 163.6 L 98 146.8 L 95.5 146.8 L 95.5 144.3 L 98 144.3 C 98 144.3 98.02 141.92 98 141.9 C 98 138.6 99.9 136.5 102.9 136.5 C 104.1 136.5 105.3 136.9 106.3 137.8 C 106.3 137.8 105.2 139.8 105.2 139.8 C 104.7 139.3 104.1 139 103.3 139 C 101.7 139 100.9 140 100.9 141.9 C 100.9 141.92 100.9 144.3 100.9 144.3 L 104.2 144.3 L 104.2 146.8 L 100.9 146.8 L 100.9 163.6 L 98 163.6 Z M 127.1 163.6 C 127.1 163.6 127.14 160.84 127.1 160.8 C 126 162.8 124.1 164.1 122.1 164.1 C 117.7 164.1 115.1 160 115.1 154 C 115.1 148 117.7 143.8 122.1 143.8 C 124 143.8 126 144.9 127.1 147.1 C 127.14 147.08 127.1 136.9 127.1 136.9 L 130 136.9 L 130 163.6 L 127.1 163.6 Z M 127.1 158.4 C 127.1 158.4 127.1 149.5 127.1 149.5 C 126.4 147.8 124.6 146.4 122.8 146.4 C 119.6 146.4 118.1 149.8 118.1 154 C 118.1 158.1 119.6 161.5 122.8 161.5 C 124.6 161.5 126.4 160.1 127.1 158.4 Z M 145.2 163.6 C 145.2 163.6 145.22 161.52 145.2 161.5 C 144 163.3 142.1 164.1 140.1 164.1 C 137 164.1 134.3 161.7 134.3 157.6 C 134.3 153.6 137 151.3 140.1 151.3 C 142.1 151.3 144 152 145.2 153.8 C 145.2 153.8 145.2 150.4 145.2 150.4 C 145.2 147.8 143.8 146.3 141.3 146.3 C 139.5 146.3 137.9 147 136.4 148.6 C 136.4 148.6 135.1 146.6 135.1 146.6 C 137 144.7 139.3 143.8 141.7 143.8 C 145.5 143.8 148.1 145.7 148.1 150.1 C 148.1 150.08 148.1 163.6 148.1 163.6 L 145.2 163.6 Z M 145.2 159.6 C 145.2 159.6 145.2 155.9 145.2 155.9 C 144.3 154.2 142.7 153.4 141.1 153.4 C 138.7 153.4 137.2 155.3 137.2 157.7 C 137.2 160.1 138.7 162 141.1 162 C 142.7 162 144.3 161.2 145.2 159.6 Z M 152.8 168.6 C 153.1 168.8 153.7 168.9 154.1 168.9 C 155.2 168.9 155.8 168.4 156.3 167 C 156.34 166.96 157.4 164 157.4 164 L 150.9 144.3 L 154.1 144.3 L 158.9 160.1 L 163.7 144.3 L 166.8 144.3 C 166.8 144.3 159.06 167.68 159.1 167.7 C 158.1 170.5 156.5 171.4 154.3 171.4 C 153.7 171.4 152.8 171.3 152.3 171.2 C 152.3 171.2 152.8 168.6 152.8 168.6 Z M 167.5 161.8 C 167.5 160.7 168.4 159.7 169.6 159.7 C 170.7 159.7 171.7 160.7 171.7 161.8 C 171.7 163 170.7 164 169.6 164 C 168.4 164 167.5 163 167.5 161.8 Z " stroke="none" fill="#b13d24"/>  </g>  <g id="Polygon210015">    <path d="M 3.7 109.9 C 3.7 104.3 6.6 99.8 11.5 99.8 C 16.6 99.8 19.1 104.4 19.1 110 C 19.14 110 19.1 110.9 19.1 110.9 C 19.1 110.9 6.62 110.88 6.6 110.9 C 6.7 114.8 8.7 117.7 12.2 117.7 C 13.9 117.7 15.6 116.8 16.8 115.3 C 16.8 115.3 18.3 117 18.3 117 C 16.7 118.9 14.5 120.1 11.9 120.1 C 6.8 120.1 3.7 115.8 3.7 109.9 Z M 11.5 102.2 C 8.1 102.2 6.7 105.9 6.6 108.8 C 6.6 108.8 16.3 108.8 16.3 108.8 C 16.3 105.8 15 102.2 11.5 102.2 Z M 34.3 114.3 C 34.3 114.3 34.3 105.5 34.3 105.5 C 33.6 103.8 31.8 102.4 30 102.4 C 26.8 102.4 25.3 105.8 25.3 109.9 C 25.3 114.1 26.8 117.5 30 117.5 C 31.8 117.5 33.6 116 34.3 114.3 Z M 22.3 109.9 C 22.3 103.8 24.9 99.8 29.3 99.8 C 31.3 99.8 33.2 101.1 34.3 103 C 34.34 103.04 34.3 100.3 34.3 100.3 L 37.2 100.3 L 37.2 127 L 34.3 127 C 34.3 127 34.34 116.8 34.3 116.8 C 33.1 119 31.2 120.1 29.3 120.1 C 24.9 120.1 22.3 116 22.3 109.9 Z M 52.9 119.6 C 52.9 119.6 52.9 116.92 52.9 116.9 C 51.7 118.6 49.7 120.1 47.3 120.1 C 44 120.1 42.5 118.4 42.5 114.9 C 42.46 114.92 42.5 100.3 42.5 100.3 L 45.3 100.3 C 45.3 100.3 45.3 114.08 45.3 114.1 C 45.3 116.6 46.5 117.5 48.4 117.5 C 50.3 117.5 52.1 116.1 52.9 114.5 C 52.9 114.52 52.9 100.3 52.9 100.3 L 55.8 100.3 L 55.8 119.6 L 52.9 119.6 Z M 71 119.6 C 71 119.6 70.98 117.52 71 117.5 C 69.7 119.3 67.9 120.1 65.9 120.1 C 62.8 120.1 60.1 117.7 60.1 113.6 C 60.1 109.6 62.7 107.3 65.9 107.3 C 67.9 107.3 69.8 108 71 109.8 C 71 109.8 71 106.4 71 106.4 C 71 103.8 69.5 102.3 67 102.3 C 65.2 102.3 63.7 103 62.2 104.6 C 62.2 104.6 60.9 102.6 60.9 102.6 C 62.7 100.7 65 99.8 67.5 99.8 C 71.3 99.8 73.9 101.7 73.9 106.1 C 73.86 106.08 73.9 119.6 73.9 119.6 L 71 119.6 Z M 71 115.6 C 71 115.6 71 111.9 71 111.9 C 70.1 110.2 68.5 109.4 66.8 109.4 C 64.4 109.4 63 111.3 63 113.7 C 63 116.1 64.4 118 66.8 118 C 68.5 118 70.1 117.2 71 115.6 Z M 79.1 119.6 L 79.1 92.9 L 81.9 92.9 L 81.9 119.6 L 79.1 119.6 Z M 87.2 119.6 L 87.2 92.9 L 90.1 92.9 L 90.1 119.6 L 87.2 119.6 Z M 94.8 124.6 C 95.1 124.8 95.7 124.9 96.1 124.9 C 97.2 124.9 97.8 124.4 98.3 123 C 98.34 122.96 99.4 120 99.4 120 L 92.9 100.3 L 96.1 100.3 L 100.9 116.1 L 105.7 100.3 L 108.8 100.3 C 108.8 100.3 101.06 123.68 101.1 123.7 C 100.1 126.5 98.5 127.4 96.3 127.4 C 95.7 127.4 94.8 127.3 94.3 127.2 C 94.3 127.2 94.8 124.6 94.8 124.6 Z M 130.2 119.6 C 130.2 119.6 130.18 117.52 130.2 117.5 C 128.9 119.3 127.1 120.1 125.1 120.1 C 122 120.1 119.3 117.7 119.3 113.6 C 119.3 109.6 121.9 107.3 125.1 107.3 C 127.1 107.3 129 108 130.2 109.8 C 130.2 109.8 130.2 106.4 130.2 106.4 C 130.2 103.8 128.7 102.3 126.2 102.3 C 124.4 102.3 122.9 103 121.4 104.6 C 121.4 104.6 120.1 102.6 120.1 102.6 C 121.9 100.7 124.2 99.8 126.7 99.8 C 130.5 99.8 133.1 101.7 133.1 106.1 C 133.06 106.08 133.1 119.6 133.1 119.6 L 130.2 119.6 Z M 130.2 115.6 C 130.2 115.6 130.2 111.9 130.2 111.9 C 129.3 110.2 127.7 109.4 126 109.4 C 123.6 109.4 122.2 111.3 122.2 113.7 C 122.2 116.1 123.6 118 126 118 C 127.7 118 129.3 117.2 130.2 115.6 Z M 136.7 117.4 C 136.7 117.4 138.2 115.3 138.2 115.3 C 139.3 116.7 141.1 117.8 143.2 117.8 C 145.5 117.8 146.9 116.5 146.9 114.6 C 146.9 110.1 137.3 111.7 137.3 105 C 137.3 102.1 139.6 99.8 143.5 99.8 C 146 99.8 148 100.8 149.3 102.3 C 149.3 102.3 148 104.2 148 104.2 C 147 103 145.4 102.1 143.5 102.1 C 141.4 102.1 140.1 103.4 140.1 104.9 C 140.1 109 149.7 107.6 149.7 114.6 C 149.7 117.8 147.2 120.1 143.3 120.1 C 140.5 120.1 138.3 119.2 136.7 117.4 Z M 173.4 119.6 C 173.4 119.6 173.42 116.84 173.4 116.8 C 172.3 118.8 170.4 120.1 168.3 120.1 C 164 120.1 161.4 116 161.4 110 C 161.4 104 164 99.8 168.3 99.8 C 170.3 99.8 172.3 100.9 173.4 103.1 C 173.42 103.08 173.4 92.9 173.4 92.9 L 176.3 92.9 L 176.3 119.6 L 173.4 119.6 Z M 173.4 114.4 C 173.4 114.4 173.4 105.5 173.4 105.5 C 172.7 103.8 170.9 102.4 169.1 102.4 C 165.9 102.4 164.4 105.8 164.4 110 C 164.4 114.1 165.9 117.5 169.1 117.5 C 170.9 117.5 172.7 116.1 173.4 114.4 Z M 180.6 109.9 C 180.6 104.3 183.6 99.8 188.5 99.8 C 193.5 99.8 196.1 104.4 196.1 110 C 196.1 110 196.1 110.9 196.1 110.9 C 196.1 110.9 183.58 110.88 183.6 110.9 C 183.7 114.8 185.7 117.7 189.1 117.7 C 190.8 117.7 192.5 116.8 193.7 115.3 C 193.7 115.3 195.3 117 195.3 117 C 193.7 118.9 191.5 120.1 188.9 120.1 C 183.7 120.1 180.6 115.8 180.6 109.9 Z M 188.4 102.2 C 185 102.2 183.7 105.9 183.6 108.8 C 183.6 108.8 193.3 108.8 193.3 108.8 C 193.2 105.8 191.9 102.2 188.4 102.2 Z M 200.3 119.6 L 200.3 92.9 L 203.1 92.9 L 203.1 119.6 L 200.3 119.6 Z M 207.9 95.5 C 207.9 94.4 208.8 93.6 209.8 93.6 C 210.9 93.6 211.8 94.4 211.8 95.5 C 211.8 96.6 210.9 97.5 209.8 97.5 C 208.8 97.5 207.9 96.6 207.9 95.5 Z M 208.4 119.6 L 208.4 100.3 L 211.3 100.3 L 211.3 119.6 L 208.4 119.6 Z M 216.4 125 C 216.4 125 217.7 122.8 217.7 122.8 C 219 124.2 220.6 125 222.7 125 C 225.4 125 227.6 123.5 227.6 119.8 C 227.6 119.8 227.6 116.5 227.6 116.5 C 226.5 118.5 224.5 119.8 222.5 119.8 C 218.2 119.8 215.6 115.9 215.6 109.8 C 215.6 103.8 218.1 99.8 222.5 99.8 C 224.5 99.8 226.4 100.9 227.6 103.1 C 227.58 103.08 227.6 100.3 227.6 100.3 L 230.5 100.3 C 230.5 100.3 230.46 119.56 230.5 119.6 C 230.5 125.5 226.9 127.4 222.8 127.4 C 220.2 127.4 218.2 126.8 216.4 125 Z M 227.6 114.1 C 227.6 114.1 227.6 105.5 227.6 105.5 C 226.9 103.8 225.1 102.4 223.2 102.4 C 220.1 102.4 218.6 105.7 218.6 109.8 C 218.6 114 220.1 117.3 223.2 117.3 C 225.1 117.3 226.9 115.8 227.6 114.1 Z M 246.2 119.6 C 246.2 119.6 246.18 105.8 246.2 105.8 C 246.2 103.2 245 102.4 243.1 102.4 C 241.2 102.4 239.4 103.8 238.5 105.4 C 238.54 105.44 238.5 119.6 238.5 119.6 L 235.7 119.6 L 235.7 92.9 L 238.5 92.9 C 238.5 92.9 238.54 103.04 238.5 103 C 239.7 101.4 241.9 99.8 244.2 99.8 C 247.5 99.8 249 101.4 249 105 C 249.02 104.96 249 119.6 249 119.6 L 246.2 119.6 Z M 254.9 115.7 C 254.86 115.72 254.9 102.8 254.9 102.8 L 252.3 102.8 L 252.3 100.3 L 254.9 100.3 L 254.9 95 L 257.7 95 L 257.7 100.3 L 261 100.3 L 261 102.8 L 257.7 102.8 C 257.7 102.8 257.74 115.2 257.7 115.2 C 257.7 116.7 258.2 117.5 259.3 117.5 C 260 117.5 260.6 117.2 261 116.8 C 261 116.8 261.9 118.9 261.9 118.9 C 261.2 119.6 260.2 120.1 258.7 120.1 C 256.1 120.1 254.9 118.6 254.9 115.7 Z M 265.5 119.6 L 265.5 102.8 L 262.9 102.8 L 262.9 100.3 L 265.5 100.3 C 265.5 100.3 265.5 97.92 265.5 97.9 C 265.5 94.6 267.3 92.5 270.3 92.5 C 271.6 92.5 272.8 92.9 273.8 93.8 C 273.8 93.8 272.7 95.8 272.7 95.8 C 272.1 95.3 271.5 95 270.8 95 C 269.2 95 268.4 96 268.4 97.9 C 268.38 97.92 268.4 100.3 268.4 100.3 L 271.7 100.3 L 271.7 102.8 L 268.4 102.8 L 268.4 119.6 L 265.5 119.6 Z M 285.4 119.6 C 285.4 119.6 285.42 116.92 285.4 116.9 C 284.3 118.6 282.2 120.1 279.8 120.1 C 276.5 120.1 275 118.4 275 114.9 C 274.98 114.92 275 100.3 275 100.3 L 277.8 100.3 C 277.8 100.3 277.82 114.08 277.8 114.1 C 277.8 116.6 279 117.5 280.9 117.5 C 282.8 117.5 284.6 116.1 285.4 114.5 C 285.42 114.52 285.4 100.3 285.4 100.3 L 288.3 100.3 L 288.3 119.6 L 285.4 119.6 Z M 293.6 119.6 L 293.6 92.9 L 296.4 92.9 L 296.4 119.6 L 293.6 119.6 Z M 320.2 119.6 C 320.2 119.6 320.22 117.52 320.2 117.5 C 319 119.3 317.1 120.1 315.1 120.1 C 312 120.1 309.3 117.7 309.3 113.6 C 309.3 109.6 312 107.3 315.1 107.3 C 317.1 107.3 319 108 320.2 109.8 C 320.2 109.8 320.2 106.4 320.2 106.4 C 320.2 103.8 318.8 102.3 316.3 102.3 C 314.5 102.3 312.9 103 311.4 104.6 C 311.4 104.6 310.1 102.6 310.1 102.6 C 312 100.7 314.3 99.8 316.7 99.8 C 320.5 99.8 323.1 101.7 323.1 106.1 C 323.1 106.08 323.1 119.6 323.1 119.6 L 320.2 119.6 Z M 320.2 115.6 C 320.2 115.6 320.2 111.9 320.2 111.9 C 319.3 110.2 317.7 109.4 316.1 109.4 C 313.7 109.4 312.2 111.3 312.2 113.7 C 312.2 116.1 313.7 118 316.1 118 C 317.7 118 319.3 117.2 320.2 115.6 Z M 338.8 119.6 C 338.8 119.6 338.78 105.84 338.8 105.8 C 338.8 103.3 337.6 102.4 335.7 102.4 C 333.8 102.4 332.1 103.8 331.2 105.4 C 331.18 105.44 331.2 119.6 331.2 119.6 L 328.3 119.6 L 328.3 100.3 L 331.2 100.3 C 331.2 100.3 331.18 103.04 331.2 103 C 332.3 101.4 334.5 99.8 336.8 99.8 C 340.1 99.8 341.7 101.6 341.7 105 C 341.66 105.04 341.7 119.6 341.7 119.6 L 338.8 119.6 Z M 346.4 124.6 C 346.7 124.8 347.3 124.9 347.7 124.9 C 348.8 124.9 349.4 124.4 349.9 123 C 349.94 122.96 351 120 351 120 L 344.5 100.3 L 347.7 100.3 L 352.5 116.1 L 357.3 100.3 L 360.4 100.3 C 360.4 100.3 352.66 123.68 352.7 123.7 C 351.7 126.5 350.1 127.4 347.9 127.4 C 347.3 127.4 346.4 127.3 345.9 127.2 C 345.9 127.2 346.4 124.6 346.4 124.6 Z M 370.9 109.9 C 370.9 104.5 373.6 99.8 378.7 99.8 C 383.9 99.8 386.6 104.5 386.6 109.9 C 386.6 115.4 383.9 120.1 378.7 120.1 C 373.6 120.1 370.9 115.4 370.9 109.9 Z M 383.6 109.9 C 383.6 106 382.1 102.4 378.7 102.4 C 375.4 102.4 373.9 106 373.9 109.9 C 373.9 113.8 375.4 117.5 378.7 117.5 C 382.1 117.5 383.6 113.8 383.6 109.9 Z M 391.5 115.7 C 391.5 115.72 391.5 102.8 391.5 102.8 L 388.9 102.8 L 388.9 100.3 L 391.5 100.3 L 391.5 95 L 394.4 95 L 394.4 100.3 L 397.7 100.3 L 397.7 102.8 L 394.4 102.8 C 394.4 102.8 394.38 115.2 394.4 115.2 C 394.4 116.7 394.8 117.5 395.9 117.5 C 396.7 117.5 397.3 117.2 397.6 116.8 C 397.6 116.8 398.5 118.9 398.5 118.9 C 397.8 119.6 396.9 120.1 395.4 120.1 C 392.7 120.1 391.5 118.6 391.5 115.7 Z M 411.9 119.6 C 411.9 119.6 411.93 105.8 411.9 105.8 C 411.9 103.2 410.7 102.4 408.8 102.4 C 406.9 102.4 405.2 103.8 404.3 105.4 C 404.29 105.44 404.3 119.6 404.3 119.6 L 401.5 119.6 L 401.5 92.9 L 404.3 92.9 C 404.3 92.9 404.29 103.04 404.3 103 C 405.4 101.4 407.6 99.8 409.9 99.8 C 413.2 99.8 414.8 101.4 414.8 105 C 414.77 104.96 414.8 119.6 414.8 119.6 L 411.9 119.6 Z M 419.1 109.9 C 419.1 104.3 422.1 99.8 426.9 99.8 C 432 99.8 434.6 104.4 434.6 110 C 434.57 110 434.6 110.9 434.6 110.9 C 434.6 110.9 422.05 110.88 422.1 110.9 C 422.2 114.8 424.2 117.7 427.6 117.7 C 429.3 117.7 431 116.8 432.2 115.3 C 432.2 115.3 433.7 117 433.7 117 C 432.2 118.9 430 120.1 427.4 120.1 C 422.2 120.1 419.1 115.8 419.1 109.9 Z M 426.9 102.2 C 423.5 102.2 422.1 105.9 422.1 108.8 C 422.1 108.8 431.7 108.8 431.7 108.8 C 431.7 105.8 430.4 102.2 426.9 102.2 Z M 438.8 119.6 L 438.8 100.3 L 441.6 100.3 C 441.6 100.3 441.61 103.36 441.6 103.4 C 442.9 101.3 444.7 99.9 447.1 99.9 C 447.1 99.9 447.1 102.8 447.1 102.8 C 446.8 102.8 446.5 102.7 446.1 102.7 C 444.4 102.7 442.4 104.3 441.6 105.9 C 441.61 105.88 441.6 119.6 441.6 119.6 L 438.8 119.6 Z " stroke="none" fill="#b13d24"/>  </g>  <g id="Polygon210014">    <path d="M 5.2 71.7 C 5.18 71.72 5.2 58.8 5.2 58.8 L 2.6 58.8 L 2.6 56.3 L 5.2 56.3 L 5.2 51 L 8.1 51 L 8.1 56.3 L 11.3 56.3 L 11.3 58.8 L 8.1 58.8 C 8.1 58.8 8.06 71.2 8.1 71.2 C 8.1 72.7 8.5 73.5 9.6 73.5 C 10.3 73.5 10.9 73.2 11.3 72.8 C 11.3 72.8 12.2 74.9 12.2 74.9 C 11.5 75.6 10.5 76.1 9.1 76.1 C 6.4 76.1 5.2 74.6 5.2 71.7 Z M 25.6 75.6 C 25.6 75.6 25.62 61.8 25.6 61.8 C 25.6 59.2 24.4 58.4 22.5 58.4 C 20.6 58.4 18.9 59.8 18 61.4 C 17.98 61.44 18 75.6 18 75.6 L 15.1 75.6 L 15.1 48.9 L 18 48.9 C 18 48.9 17.98 59.04 18 59 C 19.1 57.4 21.3 55.8 23.6 55.8 C 26.9 55.8 28.5 57.4 28.5 61 C 28.46 60.96 28.5 75.6 28.5 75.6 L 25.6 75.6 Z M 33.2 51.5 C 33.2 50.4 34.1 49.6 35.1 49.6 C 36.2 49.6 37.1 50.4 37.1 51.5 C 37.1 52.6 36.2 53.5 35.1 53.5 C 34.1 53.5 33.2 52.6 33.2 51.5 Z M 33.7 75.6 L 33.7 56.3 L 36.6 56.3 L 36.6 75.6 L 33.7 75.6 Z M 40.3 73.4 C 40.3 73.4 41.7 71.3 41.7 71.3 C 42.9 72.7 44.7 73.8 46.8 73.8 C 49 73.8 50.5 72.5 50.5 70.6 C 50.5 66.1 40.9 67.7 40.9 61 C 40.9 58.1 43.2 55.8 47 55.8 C 49.6 55.8 51.5 56.8 52.9 58.3 C 52.9 58.3 51.5 60.2 51.5 60.2 C 50.6 59 48.9 58.1 47.1 58.1 C 44.9 58.1 43.6 59.4 43.6 60.9 C 43.6 65 53.3 63.6 53.3 70.6 C 53.3 73.8 50.8 76.1 46.8 76.1 C 44.1 76.1 41.9 75.2 40.3 73.4 Z M 64.4 73.4 C 64.4 73.4 65.8 71.3 65.8 71.3 C 66.9 72.7 68.8 73.8 70.9 73.8 C 73.1 73.8 74.6 72.5 74.6 70.6 C 74.6 66.1 64.9 67.7 64.9 61 C 64.9 58.1 67.3 55.8 71.1 55.8 C 73.7 55.8 75.6 56.8 77 58.3 C 77 58.3 75.6 60.2 75.6 60.2 C 74.7 59 73 58.1 71.1 58.1 C 69 58.1 67.7 59.4 67.7 60.9 C 67.7 65 77.3 63.6 77.3 70.6 C 77.3 73.8 74.9 76.1 70.9 76.1 C 68.2 76.1 66 75.2 64.4 73.4 Z M 95.7 75.6 L 91.5 60.1 L 87.4 75.6 L 84.5 75.6 L 79.3 56.3 L 82.3 56.3 L 86.1 71.7 L 90.1 56.3 L 92.9 56.3 L 97 71.7 L 100.8 56.3 L 103.8 56.3 L 98.6 75.6 L 95.7 75.6 Z M 106 65.9 C 106 60.3 108.9 55.8 113.8 55.8 C 118.9 55.8 121.5 60.4 121.5 66 C 121.46 66 121.5 66.9 121.5 66.9 C 121.5 66.9 108.94 66.88 108.9 66.9 C 109.1 70.8 111.1 73.7 114.5 73.7 C 116.2 73.7 117.9 72.8 119.1 71.3 C 119.1 71.3 120.6 73 120.6 73 C 119.1 74.9 116.9 76.1 114.3 76.1 C 109.1 76.1 106 71.8 106 65.9 Z M 113.8 58.2 C 110.4 58.2 109 61.9 108.9 64.8 C 108.9 64.8 118.6 64.8 118.6 64.8 C 118.6 61.8 117.3 58.2 113.8 58.2 Z M 124.7 65.9 C 124.7 60.3 127.7 55.8 132.5 55.8 C 137.6 55.8 140.2 60.4 140.2 66 C 140.18 66 140.2 66.9 140.2 66.9 C 140.2 66.9 127.66 66.88 127.7 66.9 C 127.8 70.8 129.8 73.7 133.2 73.7 C 134.9 73.7 136.6 72.8 137.8 71.3 C 137.8 71.3 139.3 73 139.3 73 C 137.8 74.9 135.6 76.1 133 76.1 C 127.8 76.1 124.7 71.8 124.7 65.9 Z M 132.5 58.2 C 129.1 58.2 127.7 61.9 127.7 64.8 C 127.7 64.8 137.3 64.8 137.3 64.8 C 137.3 61.8 136 58.2 132.5 58.2 Z M 144.9 71.7 C 144.94 71.72 144.9 58.8 144.9 58.8 L 142.4 58.8 L 142.4 56.3 L 144.9 56.3 L 144.9 51 L 147.8 51 L 147.8 56.3 L 151.1 56.3 L 151.1 58.8 L 147.8 58.8 C 147.8 58.8 147.82 71.2 147.8 71.2 C 147.8 72.7 148.3 73.5 149.4 73.5 C 150.1 73.5 150.7 73.2 151.1 72.8 C 151.1 72.8 151.9 74.9 151.9 74.9 C 151.3 75.6 150.3 76.1 148.8 76.1 C 146.2 76.1 144.9 74.6 144.9 71.7 Z M 173.4 75.6 C 173.4 75.6 173.42 73.52 173.4 73.5 C 172.2 75.3 170.3 76.1 168.3 76.1 C 165.2 76.1 162.5 73.7 162.5 69.6 C 162.5 65.6 165.2 63.3 168.3 63.3 C 170.3 63.3 172.2 64 173.4 65.8 C 173.4 65.8 173.4 62.4 173.4 62.4 C 173.4 59.8 172 58.3 169.5 58.3 C 167.7 58.3 166.1 59 164.6 60.6 C 164.6 60.6 163.3 58.6 163.3 58.6 C 165.2 56.7 167.5 55.8 169.9 55.8 C 173.7 55.8 176.3 57.7 176.3 62.1 C 176.3 62.08 176.3 75.6 176.3 75.6 L 173.4 75.6 Z M 173.4 71.6 C 173.4 71.6 173.4 67.9 173.4 67.9 C 172.5 66.2 170.9 65.4 169.3 65.4 C 166.9 65.4 165.4 67.3 165.4 69.7 C 165.4 72.1 166.9 74 169.3 74 C 170.9 74 172.5 73.2 173.4 71.6 Z M 192 75.6 C 192 75.6 191.98 61.84 192 61.8 C 192 59.3 190.8 58.4 188.9 58.4 C 187 58.4 185.3 59.8 184.4 61.4 C 184.38 61.44 184.4 75.6 184.4 75.6 L 181.5 75.6 L 181.5 56.3 L 184.4 56.3 C 184.4 56.3 184.38 59.04 184.4 59 C 185.5 57.4 187.7 55.8 190 55.8 C 193.3 55.8 194.9 57.6 194.9 61 C 194.86 61.04 194.9 75.6 194.9 75.6 L 192 75.6 Z M 211.2 75.6 C 211.2 75.6 211.18 72.84 211.2 72.8 C 210.1 74.8 208.1 76.1 206.1 76.1 C 201.8 76.1 199.2 72 199.2 66 C 199.2 60 201.7 55.8 206.1 55.8 C 208.1 55.8 210 56.9 211.2 59.1 C 211.18 59.08 211.2 48.9 211.2 48.9 L 214.1 48.9 L 214.1 75.6 L 211.2 75.6 Z M 211.2 70.4 C 211.2 70.4 211.2 61.5 211.2 61.5 C 210.5 59.8 208.7 58.4 206.8 58.4 C 203.7 58.4 202.2 61.8 202.2 66 C 202.2 70.1 203.7 73.5 206.8 73.5 C 208.7 73.5 210.5 72.1 211.2 70.4 Z M 226.4 73.4 C 226.4 73.4 227.8 71.3 227.8 71.3 C 228.9 72.7 230.8 73.8 232.9 73.8 C 235.1 73.8 236.6 72.5 236.6 70.6 C 236.6 66.1 226.9 67.7 226.9 61 C 226.9 58.1 229.3 55.8 233.1 55.8 C 235.7 55.8 237.6 56.8 239 58.3 C 239 58.3 237.6 60.2 237.6 60.2 C 236.7 59 235 58.1 233.1 58.1 C 231 58.1 229.7 59.4 229.7 60.9 C 229.7 65 239.3 63.6 239.3 70.6 C 239.3 73.8 236.9 76.1 232.9 76.1 C 230.2 76.1 228 75.2 226.4 73.4 Z M 253.3 75.6 C 253.3 75.6 253.34 73.52 253.3 73.5 C 252.1 75.3 250.2 76.1 248.3 76.1 C 245.1 76.1 242.4 73.7 242.4 69.6 C 242.4 65.6 245.1 63.3 248.3 63.3 C 250.2 63.3 252.1 64 253.3 65.8 C 253.3 65.8 253.3 62.4 253.3 62.4 C 253.3 59.8 251.9 58.3 249.4 58.3 C 247.6 58.3 246 59 244.5 60.6 C 244.5 60.6 243.3 58.6 243.3 58.6 C 245.1 56.7 247.4 55.8 249.8 55.8 C 253.7 55.8 256.2 57.7 256.2 62.1 C 256.22 62.08 256.2 75.6 256.2 75.6 L 253.3 75.6 Z M 253.3 71.6 C 253.3 71.6 253.3 67.9 253.3 67.9 C 252.5 66.2 250.9 65.4 249.2 65.4 C 246.8 65.4 245.3 67.3 245.3 69.7 C 245.3 72.1 246.8 74 249.2 74 C 250.9 74 252.5 73.2 253.3 71.6 Z M 265.4 75.6 L 259.1 56.3 L 262.2 56.3 L 267 72.2 L 271.8 56.3 L 274.9 56.3 L 268.5 75.6 L 265.4 75.6 Z M 276.8 65.9 C 276.8 60.5 279.5 55.8 284.7 55.8 C 289.9 55.8 292.5 60.5 292.5 65.9 C 292.5 71.4 289.9 76.1 284.7 76.1 C 279.5 76.1 276.8 71.4 276.8 65.9 Z M 289.5 65.9 C 289.5 62 288.1 58.4 284.7 58.4 C 281.3 58.4 279.8 62 279.8 65.9 C 279.8 69.8 281.3 73.5 284.7 73.5 C 288.1 73.5 289.5 69.8 289.5 65.9 Z M 307.3 75.6 C 307.3 75.6 307.3 72.92 307.3 72.9 C 306.1 74.6 304.1 76.1 301.7 76.1 C 298.4 76.1 296.9 74.4 296.9 70.9 C 296.86 70.92 296.9 56.3 296.9 56.3 L 299.7 56.3 C 299.7 56.3 299.7 70.08 299.7 70.1 C 299.7 72.6 300.9 73.5 302.8 73.5 C 304.7 73.5 306.5 72.1 307.3 70.5 C 307.3 70.52 307.3 56.3 307.3 56.3 L 310.2 56.3 L 310.2 75.6 L 307.3 75.6 Z M 315.5 75.6 L 315.5 56.3 L 318.3 56.3 C 318.3 56.3 318.3 59.36 318.3 59.4 C 319.5 57.3 321.4 55.9 323.8 55.9 C 323.8 55.9 323.8 58.8 323.8 58.8 C 323.5 58.8 323.1 58.7 322.8 58.7 C 321.1 58.7 319.1 60.3 318.3 61.9 C 318.3 61.88 318.3 75.6 318.3 75.6 L 315.5 75.6 Z M 326.5 80.6 C 326.9 80.8 327.5 80.9 327.8 80.9 C 328.9 80.9 329.6 80.4 330.1 79 C 330.1 78.96 331.1 76 331.1 76 L 324.7 56.3 L 327.8 56.3 L 332.6 72.1 L 337.5 56.3 L 340.5 56.3 C 340.5 56.3 332.82 79.68 332.8 79.7 C 331.9 82.5 330.3 83.4 328 83.4 C 327.4 83.4 326.5 83.3 326.1 83.2 C 326.1 83.2 326.5 80.6 326.5 80.6 Z M 363.1 75.6 C 363.1 75.6 363.06 72.84 363.1 72.8 C 361.9 74.8 360 76.1 358 76.1 C 353.7 76.1 351.1 72 351.1 66 C 351.1 60 353.6 55.8 358 55.8 C 359.9 55.8 361.9 56.9 363.1 59.1 C 363.06 59.08 363.1 48.9 363.1 48.9 L 365.9 48.9 L 365.9 75.6 L 363.1 75.6 Z M 363.1 70.4 C 363.1 70.4 363.1 61.5 363.1 61.5 C 362.3 59.8 360.5 58.4 358.7 58.4 C 355.5 58.4 354.1 61.8 354.1 66 C 354.1 70.1 355.5 73.5 358.7 73.5 C 360.5 73.5 362.3 72.1 363.1 70.4 Z M 370.7 51.5 C 370.7 50.4 371.6 49.6 372.6 49.6 C 373.7 49.6 374.6 50.4 374.6 51.5 C 374.6 52.6 373.7 53.5 372.6 53.5 C 371.6 53.5 370.7 52.6 370.7 51.5 Z M 371.2 75.6 L 371.2 56.3 L 374.1 56.3 L 374.1 75.6 L 371.2 75.6 Z M 377.8 73.4 C 377.8 73.4 379.2 71.3 379.2 71.3 C 380.3 72.7 382.2 73.8 384.3 73.8 C 386.5 73.8 388 72.5 388 70.6 C 388 66.1 378.3 67.7 378.3 61 C 378.3 58.1 380.7 55.8 384.5 55.8 C 387.1 55.8 389 56.8 390.4 58.3 C 390.4 58.3 389 60.2 389 60.2 C 388.1 59 386.4 58.1 384.5 58.1 C 382.4 58.1 381.1 59.4 381.1 60.9 C 381.1 65 390.7 63.6 390.7 70.6 C 390.7 73.8 388.3 76.1 384.3 76.1 C 381.6 76.1 379.4 75.2 377.8 73.4 Z M 405.3 75.6 C 405.3 75.6 405.3 61.8 405.3 61.8 C 405.3 59.2 404.1 58.4 402.2 58.4 C 400.3 58.4 398.5 59.8 397.7 61.4 C 397.66 61.44 397.7 75.6 397.7 75.6 L 394.8 75.6 L 394.8 48.9 L 397.7 48.9 C 397.7 48.9 397.66 59.04 397.7 59 C 398.8 57.4 401 55.8 403.3 55.8 C 406.6 55.8 408.1 57.4 408.1 61 C 408.14 60.96 408.1 75.6 408.1 75.6 L 405.3 75.6 Z M 421.5 51.5 C 421.5 50.4 422.4 49.6 423.4 49.6 C 424.5 49.6 425.4 50.4 425.4 51.5 C 425.4 52.6 424.5 53.5 423.4 53.5 C 422.4 53.5 421.5 52.6 421.5 51.5 Z M 422 75.6 L 422 56.3 L 424.9 56.3 L 424.9 75.6 L 422 75.6 Z M 428.6 73.4 C 428.6 73.4 430 71.3 430 71.3 C 431.1 72.7 433 73.8 435.1 73.8 C 437.3 73.8 438.8 72.5 438.8 70.6 C 438.8 66.1 429.1 67.7 429.1 61 C 429.1 58.1 431.5 55.8 435.3 55.8 C 437.9 55.8 439.8 56.8 441.2 58.3 C 441.2 58.3 439.8 60.2 439.8 60.2 C 438.9 59 437.2 58.1 435.3 58.1 C 433.2 58.1 431.9 59.4 431.9 60.9 C 431.9 65 441.5 63.6 441.5 70.6 C 441.5 73.8 439.1 76.1 435.1 76.1 C 432.4 76.1 430.2 75.2 428.6 73.4 Z " stroke="none" fill="#b13d24"/>  </g>  <g id="Polygon210013">    <path d="M 18.9 31.6 L 18.9 19.3 L 8 19.3 L 8 31.6 L 4.8 31.6 L 4.8 4.9 L 8 4.9 L 8 16.5 L 18.9 16.5 L 18.9 4.9 L 22.1 4.9 L 22.1 31.6 L 18.9 31.6 Z M 27 7.5 C 27 6.4 27.9 5.6 29 5.6 C 30.1 5.6 30.9 6.4 30.9 7.5 C 30.9 8.6 30.1 9.5 29 9.5 C 27.9 9.5 27 8.6 27 7.5 Z M 27.6 31.6 L 27.6 12.3 L 30.4 12.3 L 30.4 31.6 L 27.6 31.6 Z M 34.1 29.4 C 34.1 29.4 35.6 27.3 35.6 27.3 C 36.7 28.7 38.5 29.8 40.6 29.8 C 42.9 29.8 44.3 28.5 44.3 26.6 C 44.3 22.1 34.7 23.7 34.7 17 C 34.7 14.1 37 11.8 40.9 11.8 C 43.4 11.8 45.4 12.8 46.7 14.3 C 46.7 14.3 45.4 16.2 45.4 16.2 C 44.4 15 42.8 14.1 40.9 14.1 C 38.8 14.1 37.5 15.4 37.5 16.9 C 37.5 21 47.1 19.6 47.1 26.6 C 47.1 29.8 44.6 32.1 40.7 32.1 C 37.9 32.1 35.7 31.2 34.1 29.4 Z M 51.7 27.7 C 51.74 27.72 51.7 14.8 51.7 14.8 L 49.2 14.8 L 49.2 12.3 L 51.7 12.3 L 51.7 7 L 54.6 7 L 54.6 12.3 L 57.9 12.3 L 57.9 14.8 L 54.6 14.8 C 54.6 14.8 54.62 27.2 54.6 27.2 C 54.6 28.7 55.1 29.5 56.2 29.5 C 56.9 29.5 57.5 29.2 57.9 28.8 C 57.9 28.8 58.7 30.9 58.7 30.9 C 58.1 31.6 57.1 32.1 55.6 32.1 C 53 32.1 51.7 30.6 51.7 27.7 Z M 60.7 21.9 C 60.7 16.5 63.5 11.8 68.6 11.8 C 73.8 11.8 76.5 16.5 76.5 21.9 C 76.5 27.4 73.8 32.1 68.6 32.1 C 63.5 32.1 60.7 27.4 60.7 21.9 Z M 73.5 21.9 C 73.5 18 72 14.4 68.6 14.4 C 65.3 14.4 63.7 18 63.7 21.9 C 63.7 25.8 65.3 29.5 68.6 29.5 C 72 29.5 73.5 25.8 73.5 21.9 Z M 80.8 31.6 L 80.8 12.3 L 83.6 12.3 C 83.6 12.3 83.62 15.36 83.6 15.4 C 84.9 13.3 86.7 11.9 89.1 11.9 C 89.1 11.9 89.1 14.8 89.1 14.8 C 88.8 14.8 88.5 14.7 88.1 14.7 C 86.4 14.7 84.4 16.3 83.6 17.9 C 83.62 17.88 83.6 31.6 83.6 31.6 L 80.8 31.6 Z M 91.9 7.5 C 91.9 6.4 92.8 5.6 93.8 5.6 C 94.9 5.6 95.8 6.4 95.8 7.5 C 95.8 8.6 94.9 9.5 93.8 9.5 C 92.8 9.5 91.9 8.6 91.9 7.5 Z M 92.4 31.6 L 92.4 12.3 L 95.3 12.3 L 95.3 31.6 L 92.4 31.6 Z M 99.6 21.9 C 99.6 16.2 102.6 11.8 107.6 11.8 C 110.3 11.8 111.9 12.9 113.1 14.4 C 113.1 14.4 111.5 16.3 111.5 16.3 C 110.5 14.9 109.3 14.4 107.8 14.4 C 104.4 14.4 102.6 17.8 102.6 21.9 C 102.6 26 104.4 29.5 107.8 29.5 C 109.3 29.5 110.5 28.9 111.5 27.6 C 111.5 27.6 113.1 29.5 113.1 29.5 C 111.9 31 110.3 32.1 107.6 32.1 C 102.6 32.1 99.6 27.6 99.6 21.9 Z M 126.7 31.6 C 126.7 31.6 126.7 29.52 126.7 29.5 C 125.5 31.3 123.6 32.1 121.6 32.1 C 118.5 32.1 115.8 29.7 115.8 25.6 C 115.8 21.6 118.5 19.3 121.6 19.3 C 123.6 19.3 125.5 20 126.7 21.8 C 126.7 21.8 126.7 18.4 126.7 18.4 C 126.7 15.8 125.3 14.3 122.7 14.3 C 120.9 14.3 119.4 15 117.9 16.6 C 117.9 16.6 116.6 14.6 116.6 14.6 C 118.5 12.7 120.7 11.8 123.2 11.8 C 127 11.8 129.6 13.7 129.6 18.1 C 129.58 18.08 129.6 31.6 129.6 31.6 L 126.7 31.6 Z M 126.7 27.6 C 126.7 27.6 126.7 23.9 126.7 23.9 C 125.8 22.2 124.2 21.4 122.5 21.4 C 120.1 21.4 118.7 23.3 118.7 25.7 C 118.7 28.1 120.1 30 122.5 30 C 124.2 30 125.8 29.2 126.7 27.6 Z M 134.8 31.6 L 134.8 4.9 L 137.7 4.9 L 137.7 31.6 L 134.8 31.6 Z M 142.9 31.6 L 142.9 4.9 L 145.8 4.9 L 145.8 31.6 L 142.9 31.6 Z M 150.5 36.6 C 150.9 36.8 151.5 36.9 151.8 36.9 C 152.9 36.9 153.5 36.4 154.1 35 C 154.06 34.96 155.1 32 155.1 32 L 148.7 12.3 L 151.8 12.3 L 156.6 28.1 L 161.4 12.3 L 164.5 12.3 C 164.5 12.3 156.78 35.68 156.8 35.7 C 155.8 38.5 154.3 39.4 152 39.4 C 151.4 39.4 150.5 39.3 150.1 39.2 C 150.1 39.2 150.5 36.6 150.5 36.6 Z M 175 21.9 C 175 16.3 178 11.8 182.9 11.8 C 187.9 11.8 190.5 16.4 190.5 22 C 190.5 22 190.5 22.9 190.5 22.9 C 190.5 22.9 177.98 22.88 178 22.9 C 178.1 26.8 180.1 29.7 183.5 29.7 C 185.2 29.7 186.9 28.8 188.1 27.3 C 188.1 27.3 189.7 29 189.7 29 C 188.1 30.9 185.9 32.1 183.3 32.1 C 178.1 32.1 175 27.8 175 21.9 Z M 182.8 14.2 C 179.4 14.2 178.1 17.9 178 20.8 C 178 20.8 187.7 20.8 187.7 20.8 C 187.6 17.8 186.3 14.2 182.8 14.2 Z M 204.6 31.6 C 204.6 31.6 204.62 29.52 204.6 29.5 C 203.4 31.3 201.5 32.1 199.5 32.1 C 196.4 32.1 193.7 29.7 193.7 25.6 C 193.7 21.6 196.4 19.3 199.5 19.3 C 201.5 19.3 203.4 20 204.6 21.8 C 204.6 21.8 204.6 18.4 204.6 18.4 C 204.6 15.8 203.2 14.3 200.7 14.3 C 198.9 14.3 197.3 15 195.8 16.6 C 195.8 16.6 194.5 14.6 194.5 14.6 C 196.4 12.7 198.7 11.8 201.1 11.8 C 204.9 11.8 207.5 13.7 207.5 18.1 C 207.5 18.08 207.5 31.6 207.5 31.6 L 204.6 31.6 Z M 204.6 27.6 C 204.6 27.6 204.6 23.9 204.6 23.9 C 203.7 22.2 202.1 21.4 200.5 21.4 C 198.1 21.4 196.6 23.3 196.6 25.7 C 196.6 28.1 198.1 30 200.5 30 C 202.1 30 203.7 29.2 204.6 27.6 Z M 213.3 27.7 C 213.3 27.72 213.3 14.8 213.3 14.8 L 210.7 14.8 L 210.7 12.3 L 213.3 12.3 L 213.3 7 L 216.2 7 L 216.2 12.3 L 219.5 12.3 L 219.5 14.8 L 216.2 14.8 C 216.2 14.8 216.18 27.2 216.2 27.2 C 216.2 28.7 216.6 29.5 217.7 29.5 C 218.5 29.5 219.1 29.2 219.4 28.8 C 219.4 28.8 220.3 30.9 220.3 30.9 C 219.6 31.6 218.7 32.1 217.2 32.1 C 214.5 32.1 213.3 30.6 213.3 27.7 Z M 222.3 21.9 C 222.3 16.3 225.3 11.8 230.1 11.8 C 235.2 11.8 237.8 16.4 237.8 22 C 237.78 22 237.8 22.9 237.8 22.9 C 237.8 22.9 225.26 22.88 225.3 22.9 C 225.4 26.8 227.4 29.7 230.8 29.7 C 232.5 29.7 234.2 28.8 235.4 27.3 C 235.4 27.3 236.9 29 236.9 29 C 235.4 30.9 233.2 32.1 230.6 32.1 C 225.4 32.1 222.3 27.8 222.3 21.9 Z M 230.1 14.2 C 226.7 14.2 225.3 17.9 225.3 20.8 C 225.3 20.8 234.9 20.8 234.9 20.8 C 234.9 17.8 233.6 14.2 230.1 14.2 Z M 252.4 31.6 C 252.4 31.6 252.42 17.84 252.4 17.8 C 252.4 15.3 251.3 14.4 249.3 14.4 C 247.5 14.4 245.7 15.8 244.8 17.4 C 244.82 17.44 244.8 31.6 244.8 31.6 L 242 31.6 L 242 12.3 L 244.8 12.3 C 244.8 12.3 244.82 15.04 244.8 15 C 245.9 13.4 248.1 11.8 250.4 11.8 C 253.7 11.8 255.3 13.6 255.3 17 C 255.3 17.04 255.3 31.6 255.3 31.6 L 252.4 31.6 Z M 279.1 31.6 C 279.1 31.6 279.1 29.52 279.1 29.5 C 277.9 31.3 276 32.1 274 32.1 C 270.9 32.1 268.2 29.7 268.2 25.6 C 268.2 21.6 270.9 19.3 274 19.3 C 276 19.3 277.9 20 279.1 21.8 C 279.1 21.8 279.1 18.4 279.1 18.4 C 279.1 15.8 277.7 14.3 275.1 14.3 C 273.3 14.3 271.8 15 270.3 16.6 C 270.3 16.6 269 14.6 269 14.6 C 270.9 12.7 273.1 11.8 275.6 11.8 C 279.4 11.8 282 13.7 282 18.1 C 281.98 18.08 282 31.6 282 31.6 L 279.1 31.6 Z M 279.1 27.6 C 279.1 27.6 279.1 23.9 279.1 23.9 C 278.2 22.2 276.6 21.4 274.9 21.4 C 272.5 21.4 271.1 23.3 271.1 25.7 C 271.1 28.1 272.5 30 274.9 30 C 276.6 30 278.2 29.2 279.1 27.6 Z M 285.7 29.4 C 285.7 29.4 287.1 27.3 287.1 27.3 C 288.2 28.7 290.1 29.8 292.1 29.8 C 294.4 29.8 295.9 28.5 295.9 26.6 C 295.9 22.1 286.2 23.7 286.2 17 C 286.2 14.1 288.5 11.8 292.4 11.8 C 294.9 11.8 296.9 12.8 298.3 14.3 C 298.3 14.3 296.9 16.2 296.9 16.2 C 295.9 15 294.3 14.1 292.4 14.1 C 290.3 14.1 289 15.4 289 16.9 C 289 21 298.6 19.6 298.6 26.6 C 298.6 29.8 296.1 32.1 292.2 32.1 C 289.5 32.1 287.3 31.2 285.7 29.4 Z M 318.5 29.5 C 321.7 29.5 323.1 26.1 323.1 22 C 323.1 17.8 321.7 14.4 318.5 14.4 C 316.7 14.4 314.9 15.9 314.1 17.6 C 314.1 17.6 314.1 26.4 314.1 26.4 C 314.9 28.1 316.7 29.5 318.5 29.5 Z M 311.3 31.6 L 311.3 4.9 L 314.1 4.9 C 314.1 4.9 314.14 15.08 314.1 15.1 C 315.3 12.9 317.3 11.8 319.2 11.8 C 323.6 11.8 326.1 16 326.1 22 C 326.1 28 323.6 32.1 319.2 32.1 C 317.2 32.1 315.3 30.8 314.1 28.8 C 314.14 28.84 314.1 31.6 314.1 31.6 L 311.3 31.6 Z M 330.5 31.6 L 330.5 12.3 L 333.3 12.3 C 333.3 12.3 333.34 15.36 333.3 15.4 C 334.6 13.3 336.5 11.9 338.8 11.9 C 338.8 11.9 338.8 14.8 338.8 14.8 C 338.5 14.8 338.2 14.7 337.9 14.7 C 336.1 14.7 334.1 16.3 333.3 17.9 C 333.34 17.88 333.3 31.6 333.3 31.6 L 330.5 31.6 Z M 341.2 21.9 C 341.2 16.3 344.1 11.8 349 11.8 C 354.1 11.8 356.7 16.4 356.7 22 C 356.65 22 356.7 22.9 356.7 22.9 C 356.7 22.9 344.13 22.88 344.1 22.9 C 344.3 26.8 346.3 29.7 349.7 29.7 C 351.4 29.7 353.1 28.8 354.3 27.3 C 354.3 27.3 355.8 29 355.8 29 C 354.3 30.9 352.1 32.1 349.5 32.1 C 344.3 32.1 341.2 27.8 341.2 21.9 Z M 349 14.2 C 345.6 14.2 344.2 17.9 344.1 20.8 C 344.1 20.8 353.8 20.8 353.8 20.8 C 353.8 17.8 352.5 14.2 349 14.2 Z M 370.8 31.6 C 370.8 31.6 370.77 29.52 370.8 29.5 C 369.5 31.3 367.7 32.1 365.7 32.1 C 362.6 32.1 359.9 29.7 359.9 25.6 C 359.9 21.6 362.5 19.3 365.7 19.3 C 367.7 19.3 369.6 20 370.8 21.8 C 370.8 21.8 370.8 18.4 370.8 18.4 C 370.8 15.8 369.3 14.3 366.8 14.3 C 365 14.3 363.5 15 362 16.6 C 362 16.6 360.7 14.6 360.7 14.6 C 362.5 12.7 364.8 11.8 367.3 11.8 C 371.1 11.8 373.7 13.7 373.7 18.1 C 373.65 18.08 373.7 31.6 373.7 31.6 L 370.8 31.6 Z M 370.8 27.6 C 370.8 27.6 370.8 23.9 370.8 23.9 C 369.9 22.2 368.3 21.4 366.6 21.4 C 364.2 21.4 362.8 23.3 362.8 25.7 C 362.8 28.1 364.2 30 366.6 30 C 368.3 30 369.9 29.2 370.8 27.6 Z M 389.8 31.6 L 384.5 22.9 L 381.7 26.4 L 381.7 31.6 L 378.9 31.6 L 378.9 4.9 L 381.7 4.9 L 381.7 22.8 L 389.8 12.3 L 393.2 12.3 L 386.4 21 L 393.2 31.6 L 389.8 31.6 Z M 397.1 31.6 L 397.1 14.8 L 394.5 14.8 L 394.5 12.3 L 397.1 12.3 C 397.1 12.3 397.09 9.92 397.1 9.9 C 397.1 6.6 398.9 4.5 401.9 4.5 C 403.2 4.5 404.4 4.9 405.4 5.8 C 405.4 5.8 404.3 7.8 404.3 7.8 C 403.7 7.3 403.1 7 402.4 7 C 400.8 7 400 8 400 9.9 C 399.97 9.92 400 12.3 400 12.3 L 403.3 12.3 L 403.3 14.8 L 400 14.8 L 400 31.6 L 397.1 31.6 Z M 416.5 31.6 C 416.5 31.6 416.49 29.52 416.5 29.5 C 415.3 31.3 413.4 32.1 411.4 32.1 C 408.3 32.1 405.6 29.7 405.6 25.6 C 405.6 21.6 408.3 19.3 411.4 19.3 C 413.4 19.3 415.3 20 416.5 21.8 C 416.5 21.8 416.5 18.4 416.5 18.4 C 416.5 15.8 415.1 14.3 412.5 14.3 C 410.7 14.3 409.2 15 407.7 16.6 C 407.7 16.6 406.4 14.6 406.4 14.6 C 408.3 12.7 410.5 11.8 413 11.8 C 416.8 11.8 419.4 13.7 419.4 18.1 C 419.37 18.08 419.4 31.6 419.4 31.6 L 416.5 31.6 Z M 416.5 27.6 C 416.5 27.6 416.5 23.9 416.5 23.9 C 415.6 22.2 414 21.4 412.3 21.4 C 409.9 21.4 408.5 23.3 408.5 25.7 C 408.5 28.1 409.9 30 412.3 30 C 414 30 415.6 29.2 416.5 27.6 Z M 423.1 29.4 C 423.1 29.4 424.5 27.3 424.5 27.3 C 425.6 28.7 427.5 29.8 429.5 29.8 C 431.8 29.8 433.3 28.5 433.3 26.6 C 433.3 22.1 423.6 23.7 423.6 17 C 423.6 14.1 425.9 11.8 429.8 11.8 C 432.3 11.8 434.3 12.8 435.7 14.3 C 435.7 14.3 434.3 16.2 434.3 16.2 C 433.3 15 431.7 14.1 429.8 14.1 C 427.7 14.1 426.4 15.4 426.4 16.9 C 426.4 21 436 19.6 436 26.6 C 436 29.8 433.5 32.1 429.6 32.1 C 426.9 32.1 424.7 31.2 423.1 29.4 Z M 440.7 27.7 C 440.65 27.72 440.7 14.8 440.7 14.8 L 438.1 14.8 L 438.1 12.3 L 440.7 12.3 L 440.7 7 L 443.5 7 L 443.5 12.3 L 446.8 12.3 L 446.8 14.8 L 443.5 14.8 C 443.5 14.8 443.53 27.2 443.5 27.2 C 443.5 28.7 444 29.5 445.1 29.5 C 445.8 29.5 446.4 29.2 446.8 28.8 C 446.8 28.8 447.7 30.9 447.7 30.9 C 447 31.6 446 32.1 444.5 32.1 C 441.9 32.1 440.7 30.6 440.7 27.7 Z M 451.7 36.6 C 451.7 36.6 450.3 35.5 450.3 35.5 C 451.5 34.6 452.7 33 452.8 31.8 C 452.7 31.8 452.5 31.8 452.3 31.8 C 451.2 31.8 450.4 31 450.4 29.8 C 450.4 28.7 451.3 27.7 452.5 27.7 C 453.8 27.7 454.9 28.8 454.9 30.7 C 454.9 33.1 453.5 35.4 451.7 36.6 Z " stroke="none" fill="#b13d24"/>  </g></svg>