<?xml version="1.0" standalone="no"?><!DOCTYPE svg PUBLIC "-//W3C//DTD SVG 1.1//EN" "http://www.w3.org/Graphics/SVG/1.1/DTD/svg11.dtd"><svg xmlns="http://www.w3.org/2000/svg" version="1.1" width="651px" height="141.6px" viewBox="0 0 651 141.6">  <desc>Hair Wax Icing and Petroleum Jelly Filling</desc>  <defs/>  <g id="Polygon193556">    <path d="M 0.5 101.8 C 0.5 101.8 2.5 95.6 2.5 95.6 C 3.5 96.8 4.9 97.3 6.2 97.3 C 8.6 97.3 10.3 95.9 10.3 92.9 C 10.32 92.88 10.3 63.2 10.3 63.2 L 17.9 63.2 C 17.9 63.2 17.88 93.24 17.9 93.2 C 17.9 100.7 13.4 104 7 104 C 4.7 104 2.4 103.4 0.5 101.8 Z M 22.5 88.7 C 22.5 80.3 26.1 73.6 33.4 73.6 C 40.7 73.6 43.7 80.1 43.7 88.6 C 43.74 88.62 43.7 91 43.7 91 C 43.7 91 29.04 90.96 29 91 C 29.1 95.2 30.9 98.5 34.7 98.5 C 36.4 98.5 38.2 97.4 39.5 95.6 C 39.5 95.6 42.8 99.4 42.8 99.4 C 40.6 102.3 37.3 104 34 104 C 26.5 104 22.5 97.6 22.5 88.7 Z M 33.2 79.1 C 29.9 79.1 29 83.2 29 86.2 C 29 86.2 37.2 86.2 37.2 86.2 C 37.2 83 36.5 79.1 33.2 79.1 Z M 47.9 103.3 L 47.9 63.2 L 54.7 63.2 L 54.7 103.3 L 47.9 103.3 Z M 60.1 103.3 L 60.1 63.2 L 66.9 63.2 L 66.9 103.3 L 60.1 103.3 Z M 73 108.7 C 73.4 108.9 74 109 74.3 109 C 75.6 109 76.3 108.4 76.7 107 C 76.74 106.98 77.6 104 77.6 104 L 69.7 74.3 L 76.9 74.3 L 81 94.7 L 85.2 74.3 L 92.3 74.3 C 92.3 74.3 83.22 108.36 83.2 108.4 C 81.8 113.6 79.4 115 75.2 115 C 74.3 115 72.7 114.8 72 114.6 C 72 114.6 73 108.7 73 108.7 Z M 105.3 103.3 L 105.3 63.2 L 122.8 63.2 L 122.8 69.9 L 112.9 69.9 L 112.9 79.6 L 122.4 79.6 L 122.4 86.2 L 112.9 86.2 L 112.9 103.3 L 105.3 103.3 Z M 126.7 66.8 C 126.7 64.5 128.6 62.6 130.9 62.6 C 133.1 62.6 135 64.5 135 66.8 C 135 69.1 133.1 70.9 130.9 70.9 C 128.6 70.9 126.7 69.1 126.7 66.8 Z M 127.5 103.3 L 127.5 74.3 L 134.3 74.3 L 134.3 103.3 L 127.5 103.3 Z M 139.7 103.3 L 139.7 63.2 L 146.5 63.2 L 146.5 103.3 L 139.7 103.3 Z M 152 103.3 L 152 63.2 L 158.8 63.2 L 158.8 103.3 L 152 103.3 Z M 163.4 66.8 C 163.4 64.5 165.4 62.6 167.6 62.6 C 169.9 62.6 171.7 64.5 171.7 66.8 C 171.7 69.1 169.9 70.9 167.6 70.9 C 165.4 70.9 163.4 69.1 163.4 66.8 Z M 164.2 103.3 L 164.2 74.3 L 171 74.3 L 171 103.3 L 164.2 103.3 Z M 189.4 103.3 C 189.4 103.3 189.36 82.62 189.4 82.6 C 189.4 80.6 188.6 79.6 187.1 79.6 C 185.4 79.6 183.9 81.5 183.2 83.3 C 183.24 83.34 183.2 103.3 183.2 103.3 L 176.5 103.3 L 176.5 74.3 L 183.2 74.3 C 183.2 74.3 183.24 78.06 183.2 78.1 C 184.4 75.7 187.4 73.6 190 73.6 C 194.4 73.6 196.2 76.1 196.2 80.2 C 196.2 80.16 196.2 103.3 196.2 103.3 L 189.4 103.3 Z M 201.6 111.9 C 201.6 111.9 203.9 106.4 203.9 106.4 C 205.6 108.1 207.6 109.1 209.8 109.1 C 212.7 109.1 214.7 107.3 214.7 102.8 C 214.7 102.8 214.7 98.6 214.7 98.6 C 213.5 101.5 211.1 103 209.1 103 C 203.4 103 200.5 97.6 200.5 88.3 C 200.5 79.2 203.4 73.6 209.1 73.6 C 211.1 73.6 213.5 74.9 214.7 77.9 C 214.74 77.88 214.7 74.3 214.7 74.3 L 221.5 74.3 C 221.5 74.3 221.52 102.3 221.5 102.3 C 221.5 112.3 216.2 115 210.5 115 C 206.9 115 204 114.2 201.6 111.9 Z M 214.7 93.5 C 214.7 93.5 214.7 83 214.7 83 C 214.1 81.1 212.8 79.6 211.3 79.6 C 208.3 79.6 207.5 83.2 207.5 88.3 C 207.5 93.4 208.3 97 211.3 97 C 212.8 97 214.1 95.5 214.7 93.5 Z " stroke="none" fill="#b13d24"/>  </g>  <g id="Polygon193555">    <path d="M 18.4 47.4 L 18.4 30.1 L 10.7 30.1 L 10.7 47.4 L 3.1 47.4 L 3.1 7.4 L 10.7 7.4 L 10.7 23.5 L 18.4 23.5 L 18.4 7.4 L 25.9 7.4 L 25.9 47.4 L 18.4 47.4 Z M 44.4 47.4 C 44.4 47.4 44.4 44.64 44.4 44.6 C 43.1 46.9 40.4 48.1 38.3 48.1 C 33.8 48.1 30.5 44.4 30.5 38.5 C 30.5 32.6 33.8 29 38.3 29 C 40.4 29 43.2 30.1 44.4 32.3 C 44.4 32.3 44.4 28.7 44.4 28.7 C 44.4 25.4 43.1 23.5 40 23.5 C 38.1 23.5 36.1 24.4 34.1 26.3 C 34.1 26.3 31.6 21.5 31.6 21.5 C 34.3 18.7 38.4 17.7 41.4 17.7 C 47.3 17.7 51.2 20.7 51.2 27.2 C 51.18 27.18 51.2 47.4 51.2 47.4 L 44.4 47.4 Z M 44.4 40.6 C 44.4 40.6 44.4 36.7 44.4 36.7 C 43.7 34.9 42.2 33.7 40.7 33.7 C 38.4 33.7 37.3 35.8 37.3 38.6 C 37.3 41.3 38.4 43.6 40.7 43.6 C 42.2 43.6 43.7 42.4 44.4 40.6 Z M 55.9 10.9 C 55.9 8.6 57.8 6.8 60.1 6.8 C 62.3 6.8 64.2 8.6 64.2 10.9 C 64.2 13.2 62.3 15 60.1 15 C 57.8 15 55.9 13.2 55.9 10.9 Z M 56.7 47.4 L 56.7 18.4 L 63.5 18.4 L 63.5 47.4 L 56.7 47.4 Z M 68.9 47.4 L 68.9 18.4 L 75.7 18.4 C 75.7 18.4 75.72 22.44 75.7 22.4 C 76.9 19.8 79.7 17.7 82.2 17.7 C 82.2 17.7 82.2 24.4 82.2 24.4 C 81.8 24.2 81.3 24.2 80.9 24.2 C 78.9 24.2 76.9 25.8 75.7 27.9 C 75.72 27.9 75.7 47.4 75.7 47.4 L 68.9 47.4 Z M 114.5 47.4 L 111.2 21.6 L 107.9 47.4 L 100.3 47.4 L 93.4 7.4 L 101.1 7.4 L 104.5 34.2 L 108.2 7.4 L 114.2 7.4 L 118.1 34.2 L 121.4 7.4 L 129.1 7.4 L 122.2 47.4 L 114.5 47.4 Z M 143.8 47.4 C 143.8 47.4 143.76 44.64 143.8 44.6 C 142.5 46.9 139.8 48.1 137.7 48.1 C 133.1 48.1 129.8 44.4 129.8 38.5 C 129.8 32.6 133.1 29 137.7 29 C 139.8 29 142.6 30.1 143.8 32.3 C 143.8 32.3 143.8 28.7 143.8 28.7 C 143.8 25.4 142.4 23.5 139.4 23.5 C 137.5 23.5 135.4 24.4 133.5 26.3 C 133.5 26.3 131 21.5 131 21.5 C 133.6 18.7 137.8 17.7 140.8 17.7 C 146.7 17.7 150.5 20.7 150.5 27.2 C 150.54 27.18 150.5 47.4 150.5 47.4 L 143.8 47.4 Z M 143.8 40.6 C 143.8 40.6 143.8 36.7 143.8 36.7 C 143 34.9 141.6 33.7 140.1 33.7 C 137.8 33.7 136.6 35.8 136.6 38.6 C 136.6 41.3 137.8 43.6 140.1 43.6 C 141.6 43.6 143 42.4 143.8 40.6 Z M 168.2 47.4 L 164.5 37.8 L 160.7 47.4 L 153.5 47.4 L 160.3 32.8 L 153.8 18.4 L 161 18.4 L 164.5 27.8 L 167.9 18.4 L 175.1 18.4 L 168.7 32.8 L 175.4 47.4 L 168.2 47.4 Z M 188.5 47.4 L 188.5 7.4 L 196.1 7.4 L 196.1 47.4 L 188.5 47.4 Z M 200.8 32.9 C 200.8 24.1 204.9 17.7 211.9 17.7 C 215.1 17.7 217.5 18.9 218.9 20.3 C 218.9 20.3 216.7 25.6 216.7 25.6 C 215.5 24.3 214.4 23.7 213.1 23.7 C 209.5 23.7 207.8 27.8 207.8 32.9 C 207.8 37.9 209.5 42.1 213.1 42.1 C 214.4 42.1 215.5 41.5 216.7 40.3 C 216.7 40.3 218.9 45.5 218.9 45.5 C 217.5 47 215.1 48.1 211.9 48.1 C 204.9 48.1 200.8 41.7 200.8 32.9 Z M 221.8 10.9 C 221.8 8.6 223.7 6.8 226 6.8 C 228.2 6.8 230.1 8.6 230.1 10.9 C 230.1 13.2 228.2 15 226 15 C 223.7 15 221.8 13.2 221.8 10.9 Z M 222.6 47.4 L 222.6 18.4 L 229.4 18.4 L 229.4 47.4 L 222.6 47.4 Z M 247.7 47.4 C 247.7 47.4 247.74 26.76 247.7 26.8 C 247.7 24.7 247 23.7 245.5 23.7 C 243.8 23.7 242.3 25.6 241.6 27.5 C 241.62 27.48 241.6 47.4 241.6 47.4 L 234.8 47.4 L 234.8 18.4 L 241.6 18.4 C 241.6 18.4 241.62 22.2 241.6 22.2 C 242.8 19.9 245.8 17.7 248.4 17.7 C 252.8 17.7 254.6 20.3 254.6 24.3 C 254.58 24.3 254.6 47.4 254.6 47.4 L 247.7 47.4 Z M 260 56 C 260 56 262.3 50.5 262.3 50.5 C 263.9 52.2 266 53.3 268.2 53.3 C 271.1 53.3 273.1 51.4 273.1 46.9 C 273.1 46.9 273.1 42.7 273.1 42.7 C 271.9 45.7 269.5 47.2 267.5 47.2 C 261.8 47.2 258.9 41.8 258.9 32.5 C 258.9 23.3 261.8 17.7 267.5 17.7 C 269.5 17.7 271.9 19 273.1 22 C 273.12 22.02 273.1 18.4 273.1 18.4 L 279.9 18.4 C 279.9 18.4 279.9 46.44 279.9 46.4 C 279.9 56.4 274.6 59.2 268.9 59.2 C 265.3 59.2 262.4 58.3 260 56 Z M 273.1 37.7 C 273.1 37.7 273.1 27.2 273.1 27.2 C 272.5 25.3 271.1 23.7 269.7 23.7 C 266.7 23.7 265.9 27.4 265.9 32.5 C 265.9 37.6 266.7 41.2 269.7 41.2 C 271.1 41.2 272.5 39.6 273.1 37.7 Z M 307.8 47.4 C 307.8 47.4 307.8 44.64 307.8 44.6 C 306.5 46.9 303.8 48.1 301.7 48.1 C 297.2 48.1 293.9 44.4 293.9 38.5 C 293.9 32.6 297.2 29 301.7 29 C 303.8 29 306.6 30.1 307.8 32.3 C 307.8 32.3 307.8 28.7 307.8 28.7 C 307.8 25.4 306.5 23.5 303.4 23.5 C 301.5 23.5 299.5 24.4 297.5 26.3 C 297.5 26.3 295 21.5 295 21.5 C 297.7 18.7 301.8 17.7 304.8 17.7 C 310.7 17.7 314.6 20.7 314.6 27.2 C 314.58 27.18 314.6 47.4 314.6 47.4 L 307.8 47.4 Z M 307.8 40.6 C 307.8 40.6 307.8 36.7 307.8 36.7 C 307.1 34.9 305.6 33.7 304.1 33.7 C 301.8 33.7 300.7 35.8 300.7 38.6 C 300.7 41.3 301.8 43.6 304.1 43.6 C 305.6 43.6 307.1 42.4 307.8 40.6 Z M 333 47.4 C 333 47.4 333 26.76 333 26.8 C 333 24.7 332.3 23.7 330.8 23.7 C 329 23.7 327.5 25.6 326.9 27.5 C 326.88 27.48 326.9 47.4 326.9 47.4 L 320.1 47.4 L 320.1 18.4 L 326.9 18.4 C 326.9 18.4 326.88 22.2 326.9 22.2 C 328 19.9 331 17.7 333.7 17.7 C 338 17.7 339.8 20.3 339.8 24.3 C 339.84 24.3 339.8 47.4 339.8 47.4 L 333 47.4 Z M 358.4 47.4 C 358.4 47.4 358.38 43.8 358.4 43.8 C 357.1 46.7 354.8 48.1 352.7 48.1 C 347 48.1 344.2 42.2 344.2 32.9 C 344.2 23.8 347 17.7 352.7 17.7 C 354.8 17.7 357.2 19 358.4 22 C 358.38 22.02 358.4 7.4 358.4 7.4 L 365.2 7.4 L 365.2 47.4 L 358.4 47.4 Z M 358.4 38.6 C 358.4 38.6 358.4 27.2 358.4 27.2 C 357.8 25.3 356.4 23.7 355 23.7 C 352 23.7 351.1 27.8 351.1 32.9 C 351.1 38 352 42.1 355 42.1 C 356.4 42.1 357.8 40.6 358.4 38.6 Z M 380.8 47.4 L 380.8 7.4 C 380.8 7.4 391.61 7.38 391.6 7.4 C 399.4 7.4 402.9 13.3 402.9 20 C 402.9 26.8 399.4 32.7 391.6 32.7 C 391.61 32.7 388.4 32.7 388.4 32.7 L 388.4 47.4 L 380.8 47.4 Z M 395.2 20 C 395.2 16.4 393.7 14 390.8 14 C 390.83 14.04 388.4 14 388.4 14 L 388.4 26 C 388.4 26 390.83 26.04 390.8 26 C 393.7 26 395.2 23.6 395.2 20 Z M 404.6 32.9 C 404.6 24.5 408.2 17.7 415.4 17.7 C 422.8 17.7 425.8 24.2 425.8 32.8 C 425.81 32.76 425.8 35.1 425.8 35.1 C 425.8 35.1 411.11 35.1 411.1 35.1 C 411.2 39.4 413 42.6 416.8 42.6 C 418.4 42.6 420.3 41.5 421.6 39.7 C 421.6 39.7 424.9 43.5 424.9 43.5 C 422.6 46.4 419.4 48.1 416.1 48.1 C 408.5 48.1 404.6 41.8 404.6 32.9 Z M 415.3 23.2 C 412 23.2 411.1 27.3 411.1 30.4 C 411.1 30.4 419.3 30.4 419.3 30.4 C 419.3 27.1 418.6 23.2 415.3 23.2 Z M 430.9 40.7 C 430.85 40.74 430.9 24.3 430.9 24.3 L 428.2 24.3 L 428.2 18.4 L 430.9 18.4 L 430.9 10.5 L 437.6 10.5 L 437.6 18.4 L 441.3 18.4 L 441.3 24.3 L 437.6 24.3 C 437.6 24.3 437.63 39.42 437.6 39.4 C 437.6 41.2 438.1 42.1 439.3 42.1 C 439.9 42.1 440.5 41.8 440.9 41.3 C 440.9 41.3 442.3 46.6 442.3 46.6 C 441.2 47.5 439.6 48.1 437.5 48.1 C 432.8 48.1 430.9 45.7 430.9 40.7 Z M 445.4 47.4 L 445.4 18.4 L 452.2 18.4 C 452.2 18.4 452.21 22.44 452.2 22.4 C 453.4 19.8 456.2 17.7 458.7 17.7 C 458.7 17.7 458.7 24.4 458.7 24.4 C 458.3 24.2 457.8 24.2 457.4 24.2 C 455.4 24.2 453.4 25.8 452.2 27.9 C 452.21 27.9 452.2 47.4 452.2 47.4 L 445.4 47.4 Z M 461.1 32.9 C 461.1 24.8 464.4 17.7 472 17.7 C 479.6 17.7 482.9 24.8 482.9 32.9 C 482.9 40.9 479.6 48.1 472 48.1 C 464.4 48.1 461.1 40.9 461.1 32.9 Z M 475.9 32.9 C 475.9 28 475 23.7 472 23.7 C 469 23.7 468.1 28 468.1 32.9 C 468.1 37.9 469 42.1 472 42.1 C 475 42.1 475.9 37.9 475.9 32.9 Z M 487.3 47.4 L 487.3 7.4 L 494 7.4 L 494 47.4 L 487.3 47.4 Z M 498.4 32.9 C 498.4 24.5 502 17.7 509.2 17.7 C 516.5 17.7 519.6 24.2 519.6 32.8 C 519.59 32.76 519.6 35.1 519.6 35.1 C 519.6 35.1 504.89 35.1 504.9 35.1 C 505 39.4 506.8 42.6 510.6 42.6 C 512.2 42.6 514.1 41.5 515.4 39.7 C 515.4 39.7 518.7 43.5 518.7 43.5 C 516.4 46.4 513.2 48.1 509.9 48.1 C 502.3 48.1 498.4 41.8 498.4 32.9 Z M 509 23.2 C 505.7 23.2 504.9 27.3 504.9 30.4 C 504.9 30.4 513.1 30.4 513.1 30.4 C 513.1 27.1 512.3 23.2 509 23.2 Z M 536.6 47.4 C 536.6 47.4 536.63 43.74 536.6 43.7 C 535.5 46.1 532.7 48.1 529.9 48.1 C 525.5 48.1 523.7 45.7 523.7 41.6 C 523.73 41.58 523.7 18.4 523.7 18.4 L 530.5 18.4 C 530.5 18.4 530.51 39.18 530.5 39.2 C 530.5 41.2 531.2 42.1 532.7 42.1 C 534.5 42.1 536 40.3 536.6 38.5 C 536.63 38.46 536.6 18.4 536.6 18.4 L 543.5 18.4 L 543.5 47.4 L 536.6 47.4 Z M 574.8 47.4 C 574.8 47.4 574.79 26.76 574.8 26.8 C 574.8 24.6 574 23.7 572.6 23.7 C 570.7 23.7 569.3 25.7 568.7 27.5 C 568.67 27.48 568.7 47.4 568.7 47.4 L 561.8 47.4 C 561.8 47.4 561.83 26.76 561.8 26.8 C 561.8 24.8 561.2 23.7 559.6 23.7 C 557.8 23.7 556.3 25.7 555.7 27.5 C 555.71 27.48 555.7 47.4 555.7 47.4 L 548.9 47.4 L 548.9 18.4 L 555.7 18.4 C 555.7 18.4 555.71 22.2 555.7 22.2 C 556.7 20 559.7 17.7 562.5 17.7 C 565.6 17.7 568 19.2 568.4 22.5 C 569.5 20.1 572.6 17.7 575.5 17.7 C 579.1 17.7 581.6 19.6 581.6 24.3 C 581.57 24.3 581.6 47.4 581.6 47.4 L 574.8 47.4 Z " stroke="none" fill="#b13d24"/>  </g></svg>