<?xml version="1.0" standalone="no"?><!DOCTYPE svg PUBLIC "-//W3C//DTD SVG 1.1//EN" "http://www.w3.org/Graphics/SVG/1.1/DTD/svg11.dtd"><svg xmlns="http://www.w3.org/2000/svg" version="1.1" width="682px" height="104px" viewBox="0 0 682 104">  <desc>A variety of sushi served with wasabi, Johor Bahru, Johor, Malaysia, circa March 2020 (recovered)</desc>  <defs/>  <g id="Polygon139258">    <path d="M 77.9 72.8 C 77.9 72.8 78.7 71.4 78.7 71.4 C 79.3 72.1 80.1 72.6 81.1 72.6 C 82.7 72.6 83.6 71.6 83.6 69.9 C 83.63 69.87 83.6 58 83.6 58 L 85.5 58 C 85.5 58 85.53 69.92 85.5 69.9 C 85.5 72.9 83.7 74.3 81.2 74.3 C 79.9 74.3 78.8 73.9 77.9 72.8 Z M 88.2 68.2 C 88.2 65 89.9 62.1 92.9 62.1 C 96 62.1 97.7 65 97.7 68.2 C 97.7 71.5 96 74.3 92.9 74.3 C 89.9 74.3 88.2 71.5 88.2 68.2 Z M 95.9 68.2 C 95.9 65.9 95 63.7 92.9 63.7 C 90.9 63.7 90 65.9 90 68.2 C 90 70.6 90.9 72.8 92.9 72.8 C 95 72.8 95.9 70.6 95.9 68.2 Z M 106.5 74 C 106.5 74 106.53 65.75 106.5 65.7 C 106.5 64.2 105.8 63.7 104.7 63.7 C 103.5 63.7 102.5 64.6 101.9 65.5 C 101.95 65.53 101.9 74 101.9 74 L 100.2 74 L 100.2 58 L 101.9 58 C 101.9 58 101.95 64.09 101.9 64.1 C 102.6 63.1 103.9 62.1 105.3 62.1 C 107.3 62.1 108.2 63.1 108.2 65.2 C 108.23 65.24 108.2 74 108.2 74 L 106.5 74 Z M 110.8 68.2 C 110.8 65 112.5 62.1 115.5 62.1 C 118.7 62.1 120.3 65 120.3 68.2 C 120.3 71.5 118.7 74.3 115.5 74.3 C 112.5 74.3 110.8 71.5 110.8 68.2 Z M 118.5 68.2 C 118.5 65.9 117.6 63.7 115.5 63.7 C 113.5 63.7 112.6 65.9 112.6 68.2 C 112.6 70.6 113.5 72.8 115.5 72.8 C 117.6 72.8 118.5 70.6 118.5 68.2 Z M 122.9 74 L 122.9 62.4 L 124.6 62.4 C 124.6 62.4 124.55 64.28 124.6 64.3 C 125.3 63.1 126.4 62.2 127.8 62.2 C 127.8 62.2 127.8 64 127.8 64 C 127.7 63.9 127.5 63.9 127.3 63.9 C 126.2 63.9 125 64.8 124.6 65.8 C 124.55 65.79 124.6 74 124.6 74 L 122.9 74 Z M 135.1 74 L 135.1 58 C 135.1 58 140.39 58.02 140.4 58 C 142.9 58 144.4 59.7 144.4 62.1 C 144.4 64.1 143.3 65.4 141.9 65.8 C 143.5 66 144.6 67.8 144.6 69.7 C 144.6 72.3 143.2 74 140.5 74 C 140.54 74.03 135.1 74 135.1 74 Z M 142.4 62.4 C 142.4 60.9 141.7 59.7 140 59.7 C 140.03 59.7 137 59.7 137 59.7 L 137 65 C 137 65 140.03 65 140 65 C 141.7 65 142.4 63.8 142.4 62.4 Z M 142.6 69.5 C 142.6 68 141.9 66.7 140.2 66.7 C 140.15 66.68 137 66.7 137 66.7 L 137 72.3 C 137 72.3 140.15 72.32 140.2 72.3 C 141.8 72.3 142.6 71.3 142.6 69.5 Z M 153.3 74 C 153.3 74 153.33 72.78 153.3 72.8 C 152.6 73.8 151.5 74.3 150.3 74.3 C 148.4 74.3 146.8 72.9 146.8 70.4 C 146.8 68 148.4 66.6 150.3 66.6 C 151.5 66.6 152.6 67.1 153.3 68.1 C 153.3 68.1 153.3 66.1 153.3 66.1 C 153.3 64.5 152.5 63.6 151 63.6 C 149.9 63.6 148.9 64 148 65 C 148 65 147.3 63.8 147.3 63.8 C 148.4 62.7 149.8 62.1 151.2 62.1 C 153.5 62.1 155.1 63.3 155.1 65.9 C 155.06 65.91 155.1 74 155.1 74 L 153.3 74 Z M 153.3 71.6 C 153.3 71.6 153.3 69.4 153.3 69.4 C 152.8 68.4 151.8 67.9 150.8 67.9 C 149.4 67.9 148.5 69 148.5 70.5 C 148.5 71.9 149.4 73.1 150.8 73.1 C 151.8 73.1 152.8 72.6 153.3 71.6 Z M 164.5 74 C 164.5 74 164.49 65.75 164.5 65.7 C 164.5 64.2 163.8 63.7 162.6 63.7 C 161.5 63.7 160.4 64.6 159.9 65.5 C 159.91 65.53 159.9 74 159.9 74 L 158.2 74 L 158.2 58 L 159.9 58 C 159.9 58 159.91 64.09 159.9 64.1 C 160.6 63.1 161.9 62.1 163.3 62.1 C 165.3 62.1 166.2 63.1 166.2 65.2 C 166.19 65.24 166.2 74 166.2 74 L 164.5 74 Z M 169.4 74 L 169.4 62.4 L 171.1 62.4 C 171.1 62.4 171.07 64.28 171.1 64.3 C 171.8 63.1 172.9 62.2 174.4 62.2 C 174.4 62.2 174.4 64 174.4 64 C 174.2 63.9 174 63.9 173.8 63.9 C 172.7 63.9 171.5 64.8 171.1 65.8 C 171.07 65.79 171.1 74 171.1 74 L 169.4 74 Z M 182.6 74 C 182.6 74 182.61 72.42 182.6 72.4 C 181.9 73.4 180.7 74.3 179.2 74.3 C 177.3 74.3 176.3 73.3 176.3 71.2 C 176.34 71.22 176.3 62.4 176.3 62.4 L 178 62.4 C 178 62.4 178.05 70.71 178 70.7 C 178 72.2 178.8 72.8 179.9 72.8 C 181 72.8 182.1 71.9 182.6 71 C 182.61 70.98 182.6 62.4 182.6 62.4 L 184.3 62.4 L 184.3 74 L 182.6 74 Z M 188.2 77 C 188.2 77 187.3 76.4 187.3 76.4 C 188.1 75.8 188.7 74.9 188.8 74.1 C 188.8 74.1 188.6 74.1 188.5 74.1 C 187.9 74.1 187.4 73.6 187.4 73 C 187.4 72.3 187.9 71.7 188.6 71.7 C 189.4 71.7 190.1 72.3 190.1 73.5 C 190.1 74.9 189.2 76.3 188.2 77 Z M 196.8 72.8 C 196.8 72.8 197.6 71.4 197.6 71.4 C 198.2 72.1 199 72.6 200 72.6 C 201.6 72.6 202.5 71.6 202.5 69.9 C 202.53 69.87 202.5 58 202.5 58 L 204.4 58 C 204.4 58 204.42 69.92 204.4 69.9 C 204.4 72.9 202.6 74.3 200.1 74.3 C 198.8 74.3 197.7 73.9 196.8 72.8 Z M 207.1 68.2 C 207.1 65 208.7 62.1 211.8 62.1 C 214.9 62.1 216.5 65 216.5 68.2 C 216.5 71.5 214.9 74.3 211.8 74.3 C 208.7 74.3 207.1 71.5 207.1 68.2 Z M 214.7 68.2 C 214.7 65.9 213.9 63.7 211.8 63.7 C 209.8 63.7 208.9 65.9 208.9 68.2 C 208.9 70.6 209.8 72.8 211.8 72.8 C 213.9 72.8 214.7 70.6 214.7 68.2 Z M 225.4 74 C 225.4 74 225.42 65.75 225.4 65.7 C 225.4 64.2 224.7 63.7 223.6 63.7 C 222.4 63.7 221.4 64.6 220.8 65.5 C 220.84 65.53 220.8 74 220.8 74 L 219.1 74 L 219.1 58 L 220.8 58 C 220.8 58 220.84 64.09 220.8 64.1 C 221.5 63.1 222.8 62.1 224.2 62.1 C 226.2 62.1 227.1 63.1 227.1 65.2 C 227.13 65.24 227.1 74 227.1 74 L 225.4 74 Z M 229.7 68.2 C 229.7 65 231.4 62.1 234.4 62.1 C 237.5 62.1 239.2 65 239.2 68.2 C 239.2 71.5 237.5 74.3 234.4 74.3 C 231.4 74.3 229.7 71.5 229.7 68.2 Z M 237.4 68.2 C 237.4 65.9 236.5 63.7 234.4 63.7 C 232.4 63.7 231.5 65.9 231.5 68.2 C 231.5 70.6 232.4 72.8 234.4 72.8 C 236.5 72.8 237.4 70.6 237.4 68.2 Z M 241.7 74 L 241.7 62.4 L 243.4 62.4 C 243.4 62.4 243.45 64.28 243.4 64.3 C 244.2 63.1 245.3 62.2 246.7 62.2 C 246.7 62.2 246.7 64 246.7 64 C 246.5 63.9 246.4 63.9 246.2 63.9 C 245.1 63.9 243.9 64.8 243.4 65.8 C 243.45 65.79 243.4 74 243.4 74 L 241.7 74 Z M 247.6 77 C 247.6 77 246.8 76.4 246.8 76.4 C 247.5 75.8 248.2 74.9 248.3 74.1 C 248.2 74.1 248.1 74.1 248 74.1 C 247.3 74.1 246.9 73.6 246.9 73 C 246.9 72.3 247.4 71.7 248.1 71.7 C 248.9 71.7 249.5 72.3 249.5 73.5 C 249.5 74.9 248.7 76.3 247.6 77 Z M 268.9 74 L 268.9 61.4 L 264.6 74 L 263.8 74 L 259.6 61.4 L 259.6 74 L 257.7 74 L 257.7 58 L 260.4 58 L 264.2 69.4 L 268.1 58 L 270.7 58 L 270.7 74 L 268.9 74 Z M 280 74 C 280 74 279.95 72.78 280 72.8 C 279.2 73.8 278.1 74.3 276.9 74.3 C 275 74.3 273.4 72.9 273.4 70.4 C 273.4 68 275 66.6 276.9 66.6 C 278.1 66.6 279.2 67.1 280 68.1 C 280 68.1 280 66.1 280 66.1 C 280 64.5 279.1 63.6 277.6 63.6 C 276.5 63.6 275.6 64 274.7 65 C 274.7 65 273.9 63.8 273.9 63.8 C 275 62.7 276.4 62.1 277.8 62.1 C 280.1 62.1 281.7 63.3 281.7 65.9 C 281.68 65.91 281.7 74 281.7 74 L 280 74 Z M 280 71.6 C 280 71.6 280 69.4 280 69.4 C 279.4 68.4 278.5 67.9 277.5 67.9 C 276 67.9 275.2 69 275.2 70.5 C 275.2 71.9 276 73.1 277.5 73.1 C 278.5 73.1 279.4 72.6 280 71.6 Z M 284.8 74 L 284.8 58 L 286.5 58 L 286.5 74 L 284.8 74 Z M 295.6 74 C 295.6 74 295.65 72.78 295.6 72.8 C 294.9 73.8 293.8 74.3 292.6 74.3 C 290.7 74.3 289.1 72.9 289.1 70.4 C 289.1 68 290.7 66.6 292.6 66.6 C 293.8 66.6 294.9 67.1 295.6 68.1 C 295.6 68.1 295.6 66.1 295.6 66.1 C 295.6 64.5 294.8 63.6 293.3 63.6 C 292.2 63.6 291.3 64 290.4 65 C 290.4 65 289.6 63.8 289.6 63.8 C 290.7 62.7 292.1 62.1 293.5 62.1 C 295.8 62.1 297.4 63.3 297.4 65.9 C 297.37 65.91 297.4 74 297.4 74 L 295.6 74 Z M 295.6 71.6 C 295.6 71.6 295.6 69.4 295.6 69.4 C 295.1 68.4 294.2 67.9 293.2 67.9 C 291.7 67.9 290.8 69 290.8 70.5 C 290.8 71.9 291.7 73.1 293.2 73.1 C 294.2 73.1 295.1 72.6 295.6 71.6 Z M 300.2 77 C 300.4 77.1 300.8 77.2 301 77.2 C 301.6 77.2 302 76.9 302.3 76 C 302.32 76.04 302.9 74.3 302.9 74.3 L 299.1 62.4 L 301 62.4 L 303.8 71.9 L 306.7 62.4 L 308.6 62.4 C 308.6 62.4 303.95 76.47 304 76.5 C 303.4 78.2 302.4 78.7 301.1 78.7 C 300.7 78.7 300.2 78.7 299.9 78.6 C 299.9 78.6 300.2 77 300.2 77 Z M 309.4 72.7 C 309.4 72.7 310.2 71.5 310.2 71.5 C 310.9 72.3 312 72.9 313.3 72.9 C 314.6 72.9 315.5 72.2 315.5 71 C 315.5 68.3 309.7 69.3 309.7 65.3 C 309.7 63.5 311.1 62.1 313.4 62.1 C 314.9 62.1 316.1 62.7 316.9 63.6 C 316.9 63.6 316.1 64.8 316.1 64.8 C 315.5 64 314.6 63.5 313.4 63.5 C 312.2 63.5 311.4 64.3 311.4 65.2 C 311.4 67.7 317.2 66.8 317.2 71 C 317.2 72.9 315.7 74.3 313.3 74.3 C 311.7 74.3 310.3 73.8 309.4 72.7 Z M 319.3 59.6 C 319.3 58.9 319.8 58.4 320.4 58.4 C 321.1 58.4 321.6 58.9 321.6 59.6 C 321.6 60.2 321.1 60.8 320.4 60.8 C 319.8 60.8 319.3 60.2 319.3 59.6 Z M 319.6 74 L 319.6 62.4 L 321.3 62.4 L 321.3 74 L 319.6 74 Z M 330.4 74 C 330.4 74 330.42 72.78 330.4 72.8 C 329.7 73.8 328.5 74.3 327.4 74.3 C 325.5 74.3 323.9 72.9 323.9 70.4 C 323.9 68 325.5 66.6 327.4 66.6 C 328.5 66.6 329.7 67.1 330.4 68.1 C 330.4 68.1 330.4 66.1 330.4 66.1 C 330.4 64.5 329.6 63.6 328 63.6 C 327 63.6 326 64 325.1 65 C 325.1 65 324.4 63.8 324.4 63.8 C 325.5 62.7 326.8 62.1 328.3 62.1 C 330.6 62.1 332.1 63.3 332.1 65.9 C 332.15 65.91 332.1 74 332.1 74 L 330.4 74 Z M 330.4 71.6 C 330.4 71.6 330.4 69.4 330.4 69.4 C 329.9 68.4 328.9 67.9 327.9 67.9 C 326.5 67.9 325.6 69 325.6 70.5 C 325.6 71.9 326.5 73.1 327.9 73.1 C 328.9 73.1 329.9 72.6 330.4 71.6 Z M 335.9 77 C 335.9 77 335.1 76.4 335.1 76.4 C 335.8 75.8 336.5 74.9 336.6 74.1 C 336.6 74.1 336.4 74.1 336.3 74.1 C 335.7 74.1 335.2 73.6 335.2 73 C 335.2 72.3 335.7 71.7 336.4 71.7 C 337.2 71.7 337.9 72.3 337.9 73.5 C 337.9 74.9 337 76.3 335.9 77 Z M 345.3 68.2 C 345.3 64.8 347.2 62.1 350.1 62.1 C 351.8 62.1 352.7 62.8 353.5 63.7 C 353.5 63.7 352.5 64.9 352.5 64.9 C 351.9 64 351.2 63.7 350.3 63.7 C 348.2 63.7 347.1 65.7 347.1 68.2 C 347.1 70.7 348.2 72.8 350.3 72.8 C 351.2 72.8 351.9 72.4 352.5 71.6 C 352.5 71.6 353.5 72.8 353.5 72.8 C 352.7 73.7 351.8 74.3 350.1 74.3 C 347.2 74.3 345.3 71.6 345.3 68.2 Z M 355.3 59.6 C 355.3 58.9 355.9 58.4 356.5 58.4 C 357.2 58.4 357.7 58.9 357.7 59.6 C 357.7 60.2 357.2 60.8 356.5 60.8 C 355.9 60.8 355.3 60.2 355.3 59.6 Z M 355.7 74 L 355.7 62.4 L 357.4 62.4 L 357.4 74 L 355.7 74 Z M 360.5 74 L 360.5 62.4 L 362.2 62.4 C 362.2 62.4 362.24 64.28 362.2 64.3 C 363 63.1 364.1 62.2 365.5 62.2 C 365.5 62.2 365.5 64 365.5 64 C 365.3 63.9 365.1 63.9 365 63.9 C 363.9 63.9 362.7 64.8 362.2 65.8 C 362.24 65.79 362.2 74 362.2 74 L 360.5 74 Z M 366.9 68.2 C 366.9 64.8 368.8 62.1 371.7 62.1 C 373.4 62.1 374.3 62.8 375.1 63.7 C 375.1 63.7 374.1 64.9 374.1 64.9 C 373.5 64 372.8 63.7 371.9 63.7 C 369.8 63.7 368.7 65.7 368.7 68.2 C 368.7 70.7 369.8 72.8 371.9 72.8 C 372.8 72.8 373.5 72.4 374.1 71.6 C 374.1 71.6 375.1 72.8 375.1 72.8 C 374.3 73.7 373.4 74.3 371.7 74.3 C 368.8 74.3 366.9 71.6 366.9 68.2 Z M 383.2 74 C 383.2 74 383.22 72.78 383.2 72.8 C 382.5 73.8 381.3 74.3 380.2 74.3 C 378.3 74.3 376.7 72.9 376.7 70.4 C 376.7 68 378.3 66.6 380.2 66.6 C 381.3 66.6 382.5 67.1 383.2 68.1 C 383.2 68.1 383.2 66.1 383.2 66.1 C 383.2 64.5 382.4 63.6 380.8 63.6 C 379.8 63.6 378.8 64 377.9 65 C 377.9 65 377.2 63.8 377.2 63.8 C 378.3 62.7 379.6 62.1 381.1 62.1 C 383.4 62.1 384.9 63.3 384.9 65.9 C 384.95 65.91 384.9 74 384.9 74 L 383.2 74 Z M 383.2 71.6 C 383.2 71.6 383.2 69.4 383.2 69.4 C 382.7 68.4 381.7 67.9 380.7 67.9 C 379.3 67.9 378.4 69 378.4 70.5 C 378.4 71.9 379.3 73.1 380.7 73.1 C 381.7 73.1 382.7 72.6 383.2 71.6 Z M 404.5 74 L 404.5 61.4 L 400.2 74 L 399.5 74 L 395.3 61.4 L 395.3 74 L 393.3 74 L 393.3 58 L 396 58 L 399.9 69.4 L 403.8 58 L 406.4 58 L 406.4 74 L 404.5 74 Z M 415.6 74 C 415.6 74 415.6 72.78 415.6 72.8 C 414.9 73.8 413.7 74.3 412.5 74.3 C 410.7 74.3 409 72.9 409 70.4 C 409 68 410.7 66.6 412.5 66.6 C 413.7 66.6 414.9 67.1 415.6 68.1 C 415.6 68.1 415.6 66.1 415.6 66.1 C 415.6 64.5 414.7 63.6 413.2 63.6 C 412.1 63.6 411.2 64 410.3 65 C 410.3 65 409.5 63.8 409.5 63.8 C 410.7 62.7 412 62.1 413.5 62.1 C 415.8 62.1 417.3 63.3 417.3 65.9 C 417.32 65.91 417.3 74 417.3 74 L 415.6 74 Z M 415.6 71.6 C 415.6 71.6 415.6 69.4 415.6 69.4 C 415.1 68.4 414.1 67.9 413.1 67.9 C 411.7 67.9 410.8 69 410.8 70.5 C 410.8 71.9 411.7 73.1 413.1 73.1 C 414.1 73.1 415.1 72.6 415.6 71.6 Z M 420.5 74 L 420.5 62.4 L 422.2 62.4 C 422.2 62.4 422.17 64.28 422.2 64.3 C 422.9 63.1 424 62.2 425.5 62.2 C 425.5 62.2 425.5 64 425.5 64 C 425.3 63.9 425.1 63.9 424.9 63.9 C 423.8 63.9 422.7 64.8 422.2 65.8 C 422.17 65.79 422.2 74 422.2 74 L 420.5 74 Z M 426.9 68.2 C 426.9 64.8 428.7 62.1 431.7 62.1 C 433.3 62.1 434.3 62.8 435 63.7 C 435 63.7 434.1 64.9 434.1 64.9 C 433.4 64 432.7 63.7 431.8 63.7 C 429.8 63.7 428.7 65.7 428.7 68.2 C 428.7 70.7 429.8 72.8 431.8 72.8 C 432.7 72.8 433.4 72.4 434.1 71.6 C 434.1 71.6 435 72.8 435 72.8 C 434.3 73.7 433.3 74.3 431.7 74.3 C 428.7 74.3 426.9 71.6 426.9 68.2 Z M 443.5 74 C 443.5 74 443.48 65.75 443.5 65.7 C 443.5 64.2 442.8 63.7 441.6 63.7 C 440.5 63.7 439.4 64.6 438.9 65.5 C 438.9 65.53 438.9 74 438.9 74 L 437.2 74 L 437.2 58 L 438.9 58 C 438.9 58 438.9 64.09 438.9 64.1 C 439.6 63.1 440.9 62.1 442.3 62.1 C 444.3 62.1 445.2 63.1 445.2 65.2 C 445.19 65.24 445.2 74 445.2 74 L 443.5 74 Z M 453.2 74 C 453.2 74 453.2 72.47 453.2 72.5 C 458.4 66.4 460.2 64.5 460.2 62.1 C 460.2 60.4 459 59.5 457.7 59.5 C 456.2 59.5 455.1 60.2 454.3 61.5 C 454.3 61.5 453 60.3 453 60.3 C 454.1 58.7 455.7 57.8 457.7 57.8 C 460.1 57.8 462.2 59.4 462.2 62.1 C 462.2 64.8 460.2 67.2 455.9 72.3 C 455.91 72.32 462.3 72.3 462.3 72.3 L 462.3 74 L 453.2 74 Z M 464.8 66 C 464.8 62.2 466.1 57.8 469.8 57.8 C 473.6 57.8 474.8 62.2 474.8 66 C 474.8 69.9 473.6 74.3 469.8 74.3 C 466.1 74.3 464.8 69.9 464.8 66 Z M 472.9 66 C 472.9 62.9 472.3 59.5 469.8 59.5 C 467.4 59.5 466.8 62.9 466.8 66 C 466.8 69.2 467.3 72.6 469.8 72.6 C 472.3 72.6 472.9 69.2 472.9 66 Z M 477.2 74 C 477.2 74 477.23 72.47 477.2 72.5 C 482.5 66.4 484.3 64.5 484.3 62.1 C 484.3 60.4 483.1 59.5 481.7 59.5 C 480.2 59.5 479.1 60.2 478.3 61.5 C 478.3 61.5 477.1 60.3 477.1 60.3 C 478.1 58.7 479.7 57.8 481.7 57.8 C 484.2 57.8 486.2 59.4 486.2 62.1 C 486.2 64.8 484.2 67.2 479.9 72.3 C 479.94 72.32 486.3 72.3 486.3 72.3 L 486.3 74 L 477.2 74 Z M 488.8 66 C 488.8 62.2 490.1 57.8 493.8 57.8 C 497.6 57.8 498.9 62.2 498.9 66 C 498.9 69.9 497.6 74.3 493.8 74.3 C 490.1 74.3 488.8 69.9 488.8 66 Z M 496.9 66 C 496.9 62.9 496.3 59.5 493.8 59.5 C 491.4 59.5 490.8 62.9 490.8 66 C 490.8 69.2 491.4 72.6 493.8 72.6 C 496.3 72.6 496.9 69.2 496.9 66 Z M 509.1 78.8 C 507.3 75.7 506.2 72.1 506.2 68.2 C 506.2 64.3 507.3 60.7 509.1 57.6 C 509.1 57.6 510.2 58.2 510.2 58.2 C 508.9 61.3 508.1 64.2 508.1 68.2 C 508.1 72.2 508.9 75.1 510.2 78.1 C 510.2 78.1 509.1 78.8 509.1 78.8 Z M 512.2 74 L 512.2 62.4 L 513.9 62.4 C 513.9 62.4 513.92 64.28 513.9 64.3 C 514.7 63.1 515.8 62.2 517.2 62.2 C 517.2 62.2 517.2 64 517.2 64 C 517 63.9 516.8 63.9 516.6 63.9 C 515.6 63.9 514.4 64.8 513.9 65.8 C 513.92 65.79 513.9 74 513.9 74 L 512.2 74 Z M 518.6 68.2 C 518.6 64.9 520.4 62.1 523.3 62.1 C 526.4 62.1 527.9 64.9 527.9 68.3 C 527.91 68.27 527.9 68.8 527.9 68.8 C 527.9 68.8 520.4 68.79 520.4 68.8 C 520.5 71.1 521.7 72.9 523.7 72.9 C 524.7 72.9 525.8 72.4 526.5 71.5 C 526.5 71.5 527.4 72.5 527.4 72.5 C 526.5 73.6 525.2 74.3 523.6 74.3 C 520.5 74.3 518.6 71.8 518.6 68.2 Z M 523.3 63.6 C 521.3 63.6 520.4 65.8 520.4 67.5 C 520.4 67.5 526.2 67.5 526.2 67.5 C 526.2 65.7 525.4 63.6 523.3 63.6 Z M 529.9 68.2 C 529.9 64.8 531.7 62.1 534.7 62.1 C 536.3 62.1 537.2 62.8 538 63.7 C 538 63.7 537 64.9 537 64.9 C 536.4 64 535.7 63.7 534.8 63.7 C 532.7 63.7 531.7 65.7 531.7 68.2 C 531.7 70.7 532.7 72.8 534.8 72.8 C 535.7 72.8 536.4 72.4 537 71.6 C 537 71.6 538 72.8 538 72.8 C 537.2 73.7 536.3 74.3 534.7 74.3 C 531.7 74.3 529.9 71.6 529.9 68.2 Z M 539.6 68.2 C 539.6 65 541.2 62.1 544.3 62.1 C 547.4 62.1 549 65 549 68.2 C 549 71.5 547.4 74.3 544.3 74.3 C 541.2 74.3 539.6 71.5 539.6 68.2 Z M 547.2 68.2 C 547.2 65.9 546.3 63.7 544.3 63.7 C 542.3 63.7 541.4 65.9 541.4 68.2 C 541.4 70.6 542.3 72.8 544.3 72.8 C 546.3 72.8 547.2 70.6 547.2 68.2 Z M 554 74 L 550.2 62.4 L 552.1 62.4 L 554.9 72 L 557.8 62.4 L 559.7 62.4 L 555.9 74 L 554 74 Z M 560.8 68.2 C 560.8 64.9 562.6 62.1 565.5 62.1 C 568.6 62.1 570.1 64.9 570.1 68.3 C 570.13 68.27 570.1 68.8 570.1 68.8 C 570.1 68.8 562.62 68.79 562.6 68.8 C 562.7 71.1 563.9 72.9 566 72.9 C 567 72.9 568 72.4 568.7 71.5 C 568.7 71.5 569.6 72.5 569.6 72.5 C 568.7 73.6 567.4 74.3 565.8 74.3 C 562.7 74.3 560.8 71.8 560.8 68.2 Z M 565.5 63.6 C 563.5 63.6 562.7 65.8 562.6 67.5 C 562.6 67.5 568.4 67.5 568.4 67.5 C 568.4 65.7 567.6 63.6 565.5 63.6 Z M 572.6 74 L 572.6 62.4 L 574.4 62.4 C 574.4 62.4 574.35 64.28 574.4 64.3 C 575.1 63.1 576.2 62.2 577.6 62.2 C 577.6 62.2 577.6 64 577.6 64 C 577.4 63.9 577.3 63.9 577.1 63.9 C 576 63.9 574.8 64.8 574.4 65.8 C 574.35 65.79 574.4 74 574.4 74 L 572.6 74 Z M 579.1 68.2 C 579.1 64.9 580.8 62.1 583.8 62.1 C 586.8 62.1 588.3 64.9 588.3 68.3 C 588.34 68.27 588.3 68.8 588.3 68.8 C 588.3 68.8 580.83 68.79 580.8 68.8 C 580.9 71.1 582.1 72.9 584.2 72.9 C 585.2 72.9 586.2 72.4 586.9 71.5 C 586.9 71.5 587.8 72.5 587.8 72.5 C 586.9 73.6 585.6 74.3 584 74.3 C 580.9 74.3 579.1 71.8 579.1 68.2 Z M 583.7 63.6 C 581.7 63.6 580.9 65.8 580.8 67.5 C 580.8 67.5 586.6 67.5 586.6 67.5 C 586.6 65.7 585.8 63.6 583.7 63.6 Z M 597.5 74 C 597.5 74 597.49 72.37 597.5 72.4 C 596.8 73.5 595.7 74.3 594.4 74.3 C 591.8 74.3 590.3 71.9 590.3 68.2 C 590.3 64.6 591.8 62.1 594.4 62.1 C 595.6 62.1 596.8 62.8 597.5 64.1 C 597.49 64.11 597.5 58 597.5 58 L 599.2 58 L 599.2 74 L 597.5 74 Z M 597.5 70.9 C 597.5 70.9 597.5 65.6 597.5 65.6 C 597.1 64.6 596 63.7 594.9 63.7 C 593 63.7 592.1 65.7 592.1 68.2 C 592.1 70.7 593 72.8 594.9 72.8 C 596 72.8 597.1 71.9 597.5 70.9 Z M 601.2 78.1 C 602.5 75.1 603.3 72.2 603.3 68.2 C 603.3 64.2 602.5 61.3 601.2 58.2 C 601.2 58.2 602.3 57.6 602.3 57.6 C 604.2 60.7 605.2 64.3 605.2 68.2 C 605.2 72.1 604.2 75.7 602.3 78.8 C 602.3 78.8 601.2 78.1 601.2 78.1 Z " stroke="none" fill="#7c7979"/>  </g>  <g id="Polygon139257">    <path d="M 146.9 44 L 145.6 39.5 L 138.5 39.5 L 137.2 44 L 134.6 44 L 140.6 24 L 143.5 24 L 149.5 44 L 146.9 44 Z M 142 26.7 L 139 37.4 L 145.1 37.4 L 142 26.7 Z M 161.1 44 L 156.3 29.5 L 158.7 29.5 L 162.3 41.5 L 165.9 29.5 L 168.2 29.5 L 163.5 44 L 161.1 44 Z M 177.8 44 C 177.8 44 177.82 42.47 177.8 42.5 C 176.9 43.8 175.5 44.4 174 44.4 C 171.7 44.4 169.6 42.6 169.6 39.6 C 169.6 36.5 171.6 34.8 174 34.8 C 175.5 34.8 176.9 35.4 177.8 36.6 C 177.8 36.6 177.8 34.1 177.8 34.1 C 177.8 32.1 176.7 31 174.9 31 C 173.5 31 172.3 31.5 171.2 32.8 C 171.2 32.8 170.3 31.3 170.3 31.3 C 171.6 29.8 173.4 29.2 175.2 29.2 C 178.1 29.2 180 30.6 180 33.9 C 179.98 33.89 180 44 180 44 L 177.8 44 Z M 177.8 41 C 177.8 41 177.8 38.2 177.8 38.2 C 177.2 37 176 36.4 174.7 36.4 C 172.9 36.4 171.8 37.8 171.8 39.6 C 171.8 41.4 172.9 42.8 174.7 42.8 C 176 42.8 177.2 42.2 177.8 41 Z M 183.9 44 L 183.9 29.5 L 186 29.5 C 186 29.5 186.04 31.85 186 31.8 C 187 30.3 188.4 29.2 190.2 29.2 C 190.2 29.2 190.2 31.5 190.2 31.5 C 189.9 31.4 189.7 31.4 189.4 31.4 C 188.1 31.4 186.6 32.5 186 33.7 C 186.04 33.74 186 44 186 44 L 183.9 44 Z M 192.2 26 C 192.2 25.2 192.9 24.5 193.7 24.5 C 194.5 24.5 195.2 25.2 195.2 26 C 195.2 26.8 194.5 27.4 193.7 27.4 C 192.9 27.4 192.2 26.8 192.2 26 Z M 192.6 44 L 192.6 29.5 L 194.8 29.5 L 194.8 44 L 192.6 44 Z M 198 36.8 C 198 32.6 200.2 29.2 203.9 29.2 C 207.7 29.2 209.6 32.6 209.6 36.8 C 209.62 36.83 209.6 37.5 209.6 37.5 C 209.6 37.5 200.23 37.49 200.2 37.5 C 200.3 40.4 201.8 42.6 204.4 42.6 C 205.7 42.6 207 42 207.9 40.8 C 207.9 40.8 209 42.1 209 42.1 C 207.8 43.5 206.2 44.4 204.2 44.4 C 200.4 44.4 198 41.2 198 36.8 Z M 203.9 31 C 201.3 31 200.3 33.8 200.2 35.9 C 200.2 35.9 207.5 35.9 207.5 35.9 C 207.5 33.7 206.5 31 203.9 31 Z M 213.2 41.1 C 213.19 41.12 213.2 31.4 213.2 31.4 L 211.3 31.4 L 211.3 29.5 L 213.2 29.5 L 213.2 25.6 L 215.3 25.6 L 215.3 29.5 L 217.8 29.5 L 217.8 31.4 L 215.3 31.4 C 215.3 31.4 215.35 40.73 215.3 40.7 C 215.3 41.8 215.7 42.5 216.5 42.5 C 217.1 42.5 217.5 42.2 217.8 41.9 C 217.8 41.9 218.4 43.5 218.4 43.5 C 217.9 44 217.2 44.4 216.1 44.4 C 214.1 44.4 213.2 43.3 213.2 41.1 Z M 220.2 47.8 C 220.5 47.9 221 48 221.2 48 C 222 48 222.5 47.7 222.9 46.5 C 222.91 46.55 223.7 44.3 223.7 44.3 L 218.9 29.5 L 221.2 29.5 L 224.8 41.4 L 228.4 29.5 L 230.7 29.5 C 230.7 29.5 224.95 47.09 224.9 47.1 C 224.2 49.2 223.1 49.9 221.3 49.9 C 220.9 49.9 220.2 49.8 219.9 49.7 C 219.9 49.7 220.2 47.8 220.2 47.8 Z M 238.6 36.8 C 238.6 32.7 240.7 29.2 244.5 29.2 C 248.4 29.2 250.4 32.7 250.4 36.8 C 250.4 40.8 248.4 44.4 244.5 44.4 C 240.7 44.4 238.6 40.8 238.6 36.8 Z M 248.2 36.8 C 248.2 33.9 247.1 31.1 244.5 31.1 C 242 31.1 240.9 33.9 240.9 36.8 C 240.9 39.7 242 42.5 244.5 42.5 C 247.1 42.5 248.2 39.7 248.2 36.8 Z M 254.2 44 L 254.2 31.4 L 252.2 31.4 L 252.2 29.5 L 254.2 29.5 C 254.2 29.5 254.17 27.77 254.2 27.8 C 254.2 25.2 255.5 23.7 257.8 23.7 C 258.8 23.7 259.7 24 260.4 24.7 C 260.4 24.7 259.5 26.2 259.5 26.2 C 259.1 25.8 258.7 25.5 258.1 25.5 C 256.9 25.5 256.3 26.4 256.3 27.8 C 256.33 27.77 256.3 29.5 256.3 29.5 L 258.8 29.5 L 258.8 31.4 L 256.3 31.4 L 256.3 44 L 254.2 44 Z M 266.6 42.3 C 266.6 42.3 267.6 40.8 267.6 40.8 C 268.5 41.8 269.9 42.6 271.4 42.6 C 273.1 42.6 274.2 41.7 274.2 40.3 C 274.2 36.9 267 38.1 267 33.1 C 267 30.9 268.7 29.2 271.6 29.2 C 273.5 29.2 275 29.9 276 31 C 276 31 275 32.5 275 32.5 C 274.3 31.5 273 30.9 271.6 30.9 C 270 30.9 269 31.8 269 33 C 269 36.1 276.3 35 276.3 40.2 C 276.3 42.6 274.4 44.4 271.4 44.4 C 269.4 44.4 267.8 43.7 266.6 42.3 Z M 287.2 44 C 287.2 44 287.17 42.02 287.2 42 C 286.3 43.3 284.8 44.4 283 44.4 C 280.5 44.4 279.3 43.2 279.3 40.5 C 279.34 40.52 279.3 29.5 279.3 29.5 L 281.5 29.5 C 281.5 29.5 281.47 39.89 281.5 39.9 C 281.5 41.8 282.4 42.5 283.8 42.5 C 285.2 42.5 286.5 41.4 287.2 40.2 C 287.17 40.22 287.2 29.5 287.2 29.5 L 289.3 29.5 L 289.3 44 L 287.2 44 Z M 292.1 42.3 C 292.1 42.3 293.2 40.8 293.2 40.8 C 294 41.8 295.4 42.6 297 42.6 C 298.7 42.6 299.8 41.7 299.8 40.3 C 299.8 36.9 292.5 38.1 292.5 33.1 C 292.5 30.9 294.3 29.2 297.2 29.2 C 299.1 29.2 300.5 29.9 301.6 31 C 301.6 31 300.5 32.5 300.5 32.5 C 299.8 31.5 298.6 30.9 297.2 30.9 C 295.6 30.9 294.6 31.8 294.6 33 C 294.6 36.1 301.8 35 301.8 40.2 C 301.8 42.6 300 44.4 297 44.4 C 295 44.4 293.3 43.7 292.1 42.3 Z M 312.8 44 C 312.8 44 312.76 33.68 312.8 33.7 C 312.8 31.8 311.9 31.1 310.4 31.1 C 309 31.1 307.7 32.2 307 33.4 C 307.03 33.41 307 44 307 44 L 304.9 44 L 304.9 24 L 307 24 C 307 24 307.03 31.61 307 31.6 C 307.9 30.3 309.5 29.2 311.3 29.2 C 313.7 29.2 314.9 30.4 314.9 33 C 314.89 33.05 314.9 44 314.9 44 L 312.8 44 Z M 318.4 26 C 318.4 25.2 319.1 24.5 319.9 24.5 C 320.7 24.5 321.4 25.2 321.4 26 C 321.4 26.8 320.7 27.4 319.9 27.4 C 319.1 27.4 318.4 26.8 318.4 26 Z M 318.8 44 L 318.8 29.5 L 321 29.5 L 321 44 L 318.8 44 Z M 330.2 42.3 C 330.2 42.3 331.3 40.8 331.3 40.8 C 332.1 41.8 333.5 42.6 335.1 42.6 C 336.8 42.6 337.9 41.7 337.9 40.3 C 337.9 36.9 330.6 38.1 330.6 33.1 C 330.6 30.9 332.4 29.2 335.3 29.2 C 337.2 29.2 338.6 29.9 339.7 31 C 339.7 31 338.6 32.5 338.6 32.5 C 337.9 31.5 336.7 30.9 335.3 30.9 C 333.7 30.9 332.7 31.8 332.7 33 C 332.7 36.1 339.9 35 339.9 40.2 C 339.9 42.6 338.1 44.4 335.1 44.4 C 333.1 44.4 331.4 43.7 330.2 42.3 Z M 342.3 36.8 C 342.3 32.6 344.5 29.2 348.2 29.2 C 352 29.2 353.9 32.6 353.9 36.8 C 353.89 36.83 353.9 37.5 353.9 37.5 C 353.9 37.5 344.5 37.49 344.5 37.5 C 344.6 40.4 346.1 42.6 348.7 42.6 C 349.9 42.6 351.2 42 352.1 40.8 C 352.1 40.8 353.3 42.1 353.3 42.1 C 352.1 43.5 350.4 44.4 348.5 44.4 C 344.6 44.4 342.3 41.2 342.3 36.8 Z M 348.1 31 C 345.6 31 344.6 33.8 344.5 35.9 C 344.5 35.9 351.8 35.9 351.8 35.9 C 351.7 33.7 350.8 31 348.1 31 Z M 357 44 L 357 29.5 L 359.2 29.5 C 359.2 29.5 359.17 31.85 359.2 31.8 C 360.1 30.3 361.5 29.2 363.3 29.2 C 363.3 29.2 363.3 31.5 363.3 31.5 C 363 31.4 362.8 31.4 362.6 31.4 C 361.2 31.4 359.8 32.5 359.2 33.7 C 359.17 33.74 359.2 44 359.2 44 L 357 44 Z M 368.7 44 L 364 29.5 L 366.3 29.5 L 369.9 41.5 L 373.5 29.5 L 375.8 29.5 L 371.1 44 L 368.7 44 Z M 377.3 36.8 C 377.3 32.6 379.5 29.2 383.2 29.2 C 387 29.2 388.9 32.6 388.9 36.8 C 388.9 36.83 388.9 37.5 388.9 37.5 C 388.9 37.5 379.51 37.49 379.5 37.5 C 379.6 40.4 381.1 42.6 383.7 42.6 C 384.9 42.6 386.2 42 387.1 40.8 C 387.1 40.8 388.3 42.1 388.3 42.1 C 387.1 43.5 385.4 44.4 383.5 44.4 C 379.6 44.4 377.3 41.2 377.3 36.8 Z M 383.1 31 C 380.6 31 379.6 33.8 379.5 35.9 C 379.5 35.9 386.8 35.9 386.8 35.9 C 386.7 33.7 385.8 31 383.1 31 Z M 400.3 44 C 400.3 44 400.33 41.96 400.3 42 C 399.5 43.4 398 44.4 396.5 44.4 C 393.3 44.4 391.3 41.4 391.3 36.8 C 391.3 32.3 393.2 29.2 396.5 29.2 C 398 29.2 399.5 30 400.3 31.6 C 400.33 31.64 400.3 24 400.3 24 L 402.5 24 L 402.5 44 L 400.3 44 Z M 400.3 40.1 C 400.3 40.1 400.3 33.5 400.3 33.5 C 399.8 32.2 398.4 31.1 397.1 31.1 C 394.7 31.1 393.6 33.6 393.6 36.8 C 393.6 39.9 394.7 42.5 397.1 42.5 C 398.4 42.5 399.8 41.4 400.3 40.1 Z M 423.6 44 L 420.5 32.4 L 417.4 44 L 415.2 44 L 411.3 29.5 L 413.6 29.5 L 416.4 41.1 L 419.4 29.5 L 421.5 29.5 L 424.6 41.1 L 427.4 29.5 L 429.7 29.5 L 425.8 44 L 423.6 44 Z M 431.6 26 C 431.6 25.2 432.3 24.5 433.1 24.5 C 433.9 24.5 434.6 25.2 434.6 26 C 434.6 26.8 433.9 27.4 433.1 27.4 C 432.3 27.4 431.6 26.8 431.6 26 Z M 432 44 L 432 29.5 L 434.2 29.5 L 434.2 44 L 432 44 Z M 438.5 41.1 C 438.54 41.12 438.5 31.4 438.5 31.4 L 436.6 31.4 L 436.6 29.5 L 438.5 29.5 L 438.5 25.6 L 440.7 25.6 L 440.7 29.5 L 443.2 29.5 L 443.2 31.4 L 440.7 31.4 C 440.7 31.4 440.7 40.73 440.7 40.7 C 440.7 41.8 441 42.5 441.9 42.5 C 442.4 42.5 442.9 42.2 443.1 41.9 C 443.1 41.9 443.8 43.5 443.8 43.5 C 443.3 44 442.6 44.4 441.5 44.4 C 439.5 44.4 438.5 43.3 438.5 41.1 Z M 453.9 44 C 453.9 44 453.87 33.68 453.9 33.7 C 453.9 31.8 453 31.1 451.5 31.1 C 450.1 31.1 448.8 32.2 448.1 33.4 C 448.14 33.41 448.1 44 448.1 44 L 446 44 L 446 24 L 448.1 24 C 448.1 24 448.14 31.61 448.1 31.6 C 449 30.3 450.6 29.2 452.4 29.2 C 454.8 29.2 456 30.4 456 33 C 456 33.05 456 44 456 44 L 453.9 44 Z M 477.1 44 L 474 32.4 L 470.9 44 L 468.7 44 L 464.8 29.5 L 467.1 29.5 L 469.9 41.1 L 473 29.5 L 475 29.5 L 478.1 41.1 L 480.9 29.5 L 483.2 29.5 L 479.3 44 L 477.1 44 Z M 493 44 C 493 44 492.99 42.47 493 42.5 C 492.1 43.8 490.7 44.4 489.2 44.4 C 486.8 44.4 484.8 42.6 484.8 39.6 C 484.8 36.5 486.8 34.8 489.2 34.8 C 490.7 34.8 492.1 35.4 493 36.6 C 493 36.6 493 34.1 493 34.1 C 493 32.1 491.9 31 490 31 C 488.7 31 487.5 31.5 486.4 32.8 C 486.4 32.8 485.4 31.3 485.4 31.3 C 486.8 29.8 488.5 29.2 490.4 29.2 C 493.2 29.2 495.2 30.6 495.2 33.9 C 495.15 33.89 495.2 44 495.2 44 L 493 44 Z M 493 41 C 493 41 493 38.2 493 38.2 C 492.3 37 491.1 36.4 489.9 36.4 C 488.1 36.4 487 37.8 487 39.6 C 487 41.4 488.1 42.8 489.9 42.8 C 491.1 42.8 492.3 42.2 493 41 Z M 497.9 42.3 C 497.9 42.3 499 40.8 499 40.8 C 499.8 41.8 501.2 42.6 502.8 42.6 C 504.5 42.6 505.6 41.7 505.6 40.3 C 505.6 36.9 498.3 38.1 498.3 33.1 C 498.3 30.9 500.1 29.2 503 29.2 C 504.9 29.2 506.3 29.9 507.4 31 C 507.4 31 506.3 32.5 506.3 32.5 C 505.6 31.5 504.4 30.9 503 30.9 C 501.4 30.9 500.4 31.8 500.4 33 C 500.4 36.1 507.6 35 507.6 40.2 C 507.6 42.6 505.8 44.4 502.8 44.4 C 500.8 44.4 499.1 43.7 497.9 42.3 Z M 518.1 44 C 518.1 44 518.13 42.47 518.1 42.5 C 517.2 43.8 515.8 44.4 514.3 44.4 C 512 44.4 509.9 42.6 509.9 39.6 C 509.9 36.5 512 34.8 514.3 34.8 C 515.8 34.8 517.2 35.4 518.1 36.6 C 518.1 36.6 518.1 34.1 518.1 34.1 C 518.1 32.1 517.1 31 515.2 31 C 513.8 31 512.6 31.5 511.5 32.8 C 511.5 32.8 510.6 31.3 510.6 31.3 C 512 29.8 513.7 29.2 515.5 29.2 C 518.4 29.2 520.3 30.6 520.3 33.9 C 520.29 33.89 520.3 44 520.3 44 L 518.1 44 Z M 518.1 41 C 518.1 41 518.1 38.2 518.1 38.2 C 517.5 37 516.3 36.4 515 36.4 C 513.2 36.4 512.1 37.8 512.1 39.6 C 512.1 41.4 513.2 42.8 515 42.8 C 516.3 42.8 517.5 42.2 518.1 41 Z M 529.6 42.5 C 532 42.5 533.1 39.9 533.1 36.8 C 533.1 33.6 532 31.1 529.6 31.1 C 528.3 31.1 526.9 32.2 526.4 33.5 C 526.4 33.5 526.4 40.1 526.4 40.1 C 526.9 41.4 528.3 42.5 529.6 42.5 Z M 524.2 44 L 524.2 24 L 526.4 24 C 526.4 24 526.35 31.64 526.4 31.6 C 527.3 30 528.7 29.2 530.2 29.2 C 533.4 29.2 535.4 32.3 535.4 36.8 C 535.4 41.4 533.4 44.4 530.2 44.4 C 528.6 44.4 527.2 43.4 526.4 42 C 526.35 41.96 526.4 44 526.4 44 L 524.2 44 Z M 538.2 26 C 538.2 25.2 538.9 24.5 539.7 24.5 C 540.5 24.5 541.1 25.2 541.1 26 C 541.1 26.8 540.5 27.4 539.7 27.4 C 538.9 27.4 538.2 26.8 538.2 26 Z M 538.6 44 L 538.6 29.5 L 540.8 29.5 L 540.8 44 L 538.6 44 Z M 545.5 47.8 C 545.5 47.8 544.4 46.9 544.4 46.9 C 545.4 46.3 546.2 45.1 546.4 44.1 C 546.3 44.1 546.1 44.2 546 44.2 C 545.2 44.2 544.6 43.5 544.6 42.7 C 544.6 41.8 545.2 41.1 546.1 41.1 C 547.1 41.1 547.9 41.9 547.9 43.4 C 547.9 45.2 546.9 46.8 545.5 47.8 Z " stroke="none" fill="#a8a6a6"/>  </g></svg>