<?xml version="1.0" standalone="no"?><!DOCTYPE svg PUBLIC "-//W3C//DTD SVG 1.1//EN" "http://www.w3.org/Graphics/SVG/1.1/DTD/svg11.dtd"><svg xmlns="http://www.w3.org/2000/svg" version="1.1" width="191px" height="44.3px" viewBox="0 0 191 44.3">  <desc>18 hrs 35 mins</desc>  <defs/>  <g id="Polygon136732">    <path d="M 16.5 23.7 L 16.5 8.9 L 13.5 12 L 11.1 9.6 L 17 3.7 L 20.5 3.7 L 20.5 23.7 L 16.5 23.7 Z M 23.3 18.6 C 23.3 16.2 25 14.2 27.1 13.4 C 25.2 12.7 23.5 11.1 23.5 8.6 C 23.5 4.9 26.9 3.4 30.2 3.4 C 33.4 3.4 36.8 4.9 36.8 8.6 C 36.8 11.1 35.1 12.7 33.2 13.4 C 35.3 14.2 37.1 16.2 37.1 18.6 C 37.1 22.1 34.1 24.1 30.2 24.1 C 26.2 24.1 23.3 22.1 23.3 18.6 Z M 32.7 9.3 C 32.7 7.8 31.7 6.9 30.2 6.9 C 28.6 6.9 27.6 7.8 27.6 9.3 C 27.6 11 29.4 11.8 30.2 11.9 C 30.9 11.8 32.7 11 32.7 9.3 Z M 33 18.1 C 33 16.1 31 15.1 30.2 15 C 29.3 15.1 27.3 16.1 27.3 18.1 C 27.3 19.6 28.5 20.5 30.2 20.5 C 31.7 20.5 33 19.6 33 18.1 Z M 54.1 23.7 C 54.1 23.7 54.07 14.1 54.1 14.1 C 54.1 12.6 53.4 12 52.2 12 C 51 12 50 13 49.5 13.8 C 49.54 13.83 49.5 23.7 49.5 23.7 L 45.9 23.7 L 45.9 3.7 L 49.5 3.7 C 49.5 3.7 49.54 11.1 49.5 11.1 C 50.3 10 51.9 8.8 53.8 8.8 C 56.5 8.8 57.7 10.3 57.7 12.7 C 57.67 12.75 57.7 23.7 57.7 23.7 L 54.1 23.7 Z M 60.9 23.7 L 60.9 9.2 L 64.5 9.2 C 64.5 9.2 64.51 11.19 64.5 11.2 C 65.3 9.9 66.9 8.8 68.5 8.8 C 68.5 8.8 68.5 12.4 68.5 12.4 C 68.2 12.3 67.9 12.3 67.6 12.3 C 66.5 12.3 65.1 13 64.5 14 C 64.51 14.04 64.5 23.7 64.5 23.7 L 60.9 23.7 Z M 69.4 22 C 69.4 22 70.9 19.5 70.9 19.5 C 71.8 20.4 73.5 21.2 74.9 21.2 C 76.3 21.2 77.1 20.6 77.1 19.7 C 77.1 17.3 69.9 18.6 69.9 13.2 C 69.9 10.9 71.8 8.8 75.2 8.8 C 77.2 8.8 78.9 9.6 80.2 10.7 C 80.2 10.7 78.8 13.1 78.8 13.1 C 78 12.3 76.7 11.6 75.2 11.6 C 74.1 11.6 73.3 12.2 73.3 13 C 73.3 15.2 80.5 14.1 80.5 19.6 C 80.5 22.2 78.4 24.1 75 24.1 C 72.6 24.1 70.6 23.3 69.4 22 Z M 88.2 20.8 C 88.2 20.8 90.6 18.3 90.6 18.3 C 91.6 19.6 93.2 20.5 94.8 20.5 C 96.9 20.5 97.9 19.4 97.9 17.8 C 97.9 16 96.6 15.3 94.7 15.3 C 94 15.3 93.1 15.3 92.8 15.4 C 92.8 15.4 92.8 11.7 92.8 11.7 C 93.1 11.8 94.1 11.8 94.6 11.8 C 96.4 11.8 97.6 11 97.6 9.4 C 97.6 7.8 96.4 7 94.7 7 C 93.1 7 91.7 7.7 90.7 9 C 90.7 9 88.4 6.6 88.4 6.6 C 89.9 4.6 92.1 3.4 95 3.4 C 99 3.4 101.6 5.3 101.6 8.8 C 101.6 11.1 99.9 13 97.8 13.4 C 99.9 13.7 101.9 15.5 101.9 18.2 C 101.9 21.7 99.2 24.1 95 24.1 C 91.8 24.1 89.4 22.6 88.2 20.8 Z M 104.1 20.9 C 104.1 20.9 106.5 18.3 106.5 18.3 C 107.6 19.7 109 20.5 110.7 20.5 C 112.6 20.5 113.7 19 113.7 17.3 C 113.7 15.4 112.7 14.2 110.9 14.2 C 109.5 14.2 108.5 14.7 107.6 15.8 C 107.56 15.84 104.7 15.1 104.7 15.1 L 104.7 3.7 L 116.7 3.7 L 116.7 7.2 L 108.7 7.2 C 108.7 7.2 108.67 12.36 108.7 12.4 C 109.5 11.4 110.8 10.7 112.3 10.7 C 115.4 10.7 117.8 13.1 117.8 17.2 C 117.8 21.2 115.1 24.1 110.8 24.1 C 107.7 24.1 105.6 22.9 104.1 20.9 Z M 142.2 23.7 C 142.2 23.7 142.15 13.95 142.2 13.9 C 142.2 12.7 141.6 12 140.5 12 C 139.4 12 138.5 13 138 13.8 C 138.01 13.83 138 23.7 138 23.7 L 134.4 23.7 C 134.4 23.7 134.41 13.95 134.4 13.9 C 134.4 12.8 133.9 12 132.8 12 C 131.7 12 130.7 13 130.3 13.8 C 130.27 13.83 130.3 23.7 130.3 23.7 L 126.7 23.7 L 126.7 9.2 L 130.3 9.2 C 130.3 9.2 130.27 11.1 130.3 11.1 C 130.8 10.1 132.6 8.8 134.4 8.8 C 136.2 8.8 137.5 9.7 137.9 11.4 C 138.6 10.1 140.3 8.8 142.1 8.8 C 144.3 8.8 145.8 10 145.8 12.7 C 145.75 12.69 145.8 23.7 145.8 23.7 L 142.2 23.7 Z M 148.6 5.4 C 148.6 4.2 149.6 3.2 150.8 3.2 C 152 3.2 153 4.2 153 5.4 C 153 6.6 152 7.6 150.8 7.6 C 149.6 7.6 148.6 6.6 148.6 5.4 Z M 149 23.7 L 149 9.2 L 152.6 9.2 L 152.6 23.7 L 149 23.7 Z M 164 23.7 C 164 23.7 163.96 14.16 164 14.2 C 164 12.6 163.3 12 162.1 12 C 160.9 12 159.9 13 159.4 13.8 C 159.43 13.83 159.4 23.7 159.4 23.7 L 155.8 23.7 L 155.8 9.2 L 159.4 9.2 C 159.4 9.2 159.43 11.1 159.4 11.1 C 160.2 10 161.8 8.8 163.7 8.8 C 166.4 8.8 167.6 10.4 167.6 12.8 C 167.56 12.81 167.6 23.7 167.6 23.7 L 164 23.7 Z M 169.7 22 C 169.7 22 171.2 19.5 171.2 19.5 C 172.1 20.4 173.8 21.2 175.2 21.2 C 176.6 21.2 177.4 20.6 177.4 19.7 C 177.4 17.3 170.2 18.6 170.2 13.2 C 170.2 10.9 172.1 8.8 175.5 8.8 C 177.5 8.8 179.3 9.6 180.5 10.7 C 180.5 10.7 179.1 13.1 179.1 13.1 C 178.4 12.3 177 11.6 175.5 11.6 C 174.4 11.6 173.6 12.2 173.6 13 C 173.6 15.2 180.8 14.1 180.8 19.6 C 180.8 22.2 178.7 24.1 175.3 24.1 C 173 24.1 170.9 23.3 169.7 22 Z " stroke="none" fill="#d3d2d2"/>  </g></svg>