<?xml version="1.0" standalone="no"?><!DOCTYPE svg PUBLIC "-//W3C//DTD SVG 1.1//EN" "http://www.w3.org/Graphics/SVG/1.1/DTD/svg11.dtd"><svg xmlns="http://www.w3.org/2000/svg" version="1.1" width="651px" height="85.6px" viewBox="0 0 651 85.6">  <desc>Thick Spicy Glue Sauce</desc>  <defs/>  <g id="Polygon188252">    <path d="M 7.1 47.4 L 7.1 14 L 1.1 14 L 1.1 7.4 L 20.8 7.4 L 20.8 14 L 14.7 14 L 14.7 47.4 L 7.1 47.4 Z M 37.5 47.4 C 37.5 47.4 37.5 26.64 37.5 26.6 C 37.5 24.7 36.8 23.7 35.3 23.7 C 33.5 23.7 32 25.6 31.4 27.5 C 31.38 27.48 31.4 47.4 31.4 47.4 L 24.6 47.4 L 24.6 7.4 L 31.4 7.4 C 31.4 7.4 31.38 22.2 31.4 22.2 C 32.5 19.9 35.5 17.7 38.2 17.7 C 42.5 17.7 44.3 20.1 44.3 24.2 C 44.34 24.24 44.3 47.4 44.3 47.4 L 37.5 47.4 Z M 49 10.9 C 49 8.6 50.9 6.8 53.2 6.8 C 55.4 6.8 57.3 8.6 57.3 10.9 C 57.3 13.2 55.4 15 53.2 15 C 50.9 15 49 13.2 49 10.9 Z M 49.8 47.4 L 49.8 18.4 L 56.6 18.4 L 56.6 47.4 L 49.8 47.4 Z M 60.9 32.9 C 60.9 24.1 65 17.7 71.9 17.7 C 75.2 17.7 77.6 18.9 79 20.3 C 79 20.3 76.8 25.6 76.8 25.6 C 75.6 24.3 74.5 23.7 73.1 23.7 C 69.6 23.7 67.9 27.8 67.9 32.9 C 67.9 37.9 69.6 42.1 73.1 42.1 C 74.5 42.1 75.6 41.5 76.8 40.3 C 76.8 40.3 79 45.5 79 45.5 C 77.6 47 75.2 48.1 71.9 48.1 C 65 48.1 60.9 41.7 60.9 32.9 Z M 96.4 47.4 L 92.1 35.8 L 89.5 40.6 L 89.5 47.4 L 82.7 47.4 L 82.7 7.4 L 89.5 7.4 L 89.5 31.8 L 96.1 18.4 L 103.5 18.4 L 96.6 31.3 L 103.8 47.4 L 96.4 47.4 Z M 114.6 44.2 C 114.6 44.2 117.9 38.2 117.9 38.2 C 119.5 40.3 122.1 41.4 124.4 41.4 C 126.8 41.4 128.5 39.6 128.5 37 C 128.5 29.9 115.7 29.9 115.7 17.9 C 115.7 11.9 119.8 6.7 126.9 6.7 C 130.3 6.7 133.4 7.9 135.6 10 C 135.6 10 132.7 15.8 132.7 15.8 C 131.1 14.2 129.2 13.4 127.1 13.4 C 125 13.4 123.4 15.1 123.4 17.5 C 123.4 23.7 136.1 24.5 136.1 36.5 C 136.1 43.3 131.8 48.1 124.9 48.1 C 120.5 48.1 117.2 46.7 114.6 44.2 Z M 147.2 43.8 C 147.18 43.8 147.2 58.4 147.2 58.4 L 140.4 58.4 L 140.4 18.4 L 147.2 18.4 C 147.2 18.4 147.18 22.02 147.2 22 C 148.4 19.1 150.8 17.7 152.8 17.7 C 158.5 17.7 161.4 23.6 161.4 32.9 C 161.4 42 158.5 48.1 152.8 48.1 C 150.8 48.1 148.4 46.8 147.2 43.8 Z M 154.4 32.9 C 154.4 27.8 153.6 23.7 150.6 23.7 C 149.2 23.7 147.8 25.1 147.2 27.1 C 147.2 27.1 147.2 38.6 147.2 38.6 C 147.8 40.6 149.2 42.1 150.6 42.1 C 153.6 42.1 154.4 38 154.4 32.9 Z M 165 10.9 C 165 8.6 166.9 6.8 169.1 6.8 C 171.4 6.8 173.3 8.6 173.3 10.9 C 173.3 13.2 171.4 15 169.1 15 C 166.9 15 165 13.2 165 10.9 Z M 165.8 47.4 L 165.8 18.4 L 172.6 18.4 L 172.6 47.4 L 165.8 47.4 Z M 176.9 32.9 C 176.9 24.1 181 17.7 187.9 17.7 C 191.2 17.7 193.6 18.9 194.9 20.3 C 194.9 20.3 192.8 25.6 192.8 25.6 C 191.6 24.3 190.5 23.7 189.1 23.7 C 185.6 23.7 183.8 27.8 183.8 32.9 C 183.8 37.9 185.6 42.1 189.1 42.1 C 190.5 42.1 191.6 41.5 192.8 40.3 C 192.8 40.3 194.9 45.5 194.9 45.5 C 193.6 47 191.2 48.1 187.9 48.1 C 181 48.1 176.9 41.7 176.9 32.9 Z M 199.3 52.9 C 199.7 53 200.3 53.2 200.6 53.2 C 201.9 53.2 202.6 52.6 203 51.1 C 203.04 51.12 203.9 48.1 203.9 48.1 L 196 18.4 L 203.2 18.4 L 207.3 38.8 L 211.5 18.4 L 218.6 18.4 C 218.6 18.4 209.52 52.5 209.5 52.5 C 208.1 57.8 205.7 59.2 201.5 59.2 C 200.6 59.2 199 59 198.3 58.7 C 198.3 58.7 199.3 52.9 199.3 52.9 Z M 230.3 27.4 C 230.3 15.1 234.2 6.7 242.9 6.7 C 248.5 6.7 251.6 11 252.9 16.1 C 252.9 16.1 246.9 18.4 246.9 18.4 C 246.2 15.6 245.2 13.4 242.9 13.4 C 239.9 13.4 238.1 17.8 238.1 27.4 C 238.1 37 239.9 41.4 242.9 41.4 C 244.6 41.4 245.7 40.7 246.5 39.6 C 246.48 39.6 246.5 32.3 246.5 32.3 L 242 32.3 L 242 25.7 L 253.1 25.7 C 253.1 25.7 253.14 42.84 253.1 42.8 C 250.5 46.2 247.4 48.1 242.9 48.1 C 234.2 48.1 230.3 39.7 230.3 27.4 Z M 258.4 47.4 L 258.4 7.4 L 265.2 7.4 L 265.2 47.4 L 258.4 47.4 Z M 283.6 47.4 C 283.6 47.4 283.56 43.74 283.6 43.7 C 282.4 46.1 279.6 48.1 276.8 48.1 C 272.4 48.1 270.7 45.7 270.7 41.6 C 270.66 41.58 270.7 18.4 270.7 18.4 L 277.4 18.4 C 277.4 18.4 277.44 39.18 277.4 39.2 C 277.4 41.2 278.2 42.1 279.7 42.1 C 281.4 42.1 282.9 40.3 283.6 38.5 C 283.56 38.46 283.6 18.4 283.6 18.4 L 290.4 18.4 L 290.4 47.4 L 283.6 47.4 Z M 294.7 32.9 C 294.7 24.5 298.3 17.7 305.6 17.7 C 312.9 17.7 316 24.2 316 32.8 C 315.96 32.76 316 35.1 316 35.1 C 316 35.1 301.26 35.1 301.3 35.1 C 301.3 39.4 303.1 42.6 307 42.6 C 308.6 42.6 310.4 41.5 311.8 39.7 C 311.8 39.7 315.1 43.5 315.1 43.5 C 312.8 46.4 309.5 48.1 306.2 48.1 C 298.7 48.1 294.7 41.8 294.7 32.9 Z M 305.4 23.2 C 302.1 23.2 301.3 27.3 301.3 30.4 C 301.3 30.4 309.4 30.4 309.4 30.4 C 309.4 27.1 308.7 23.2 305.4 23.2 Z M 327.8 44.2 C 327.8 44.2 331.1 38.2 331.1 38.2 C 332.8 40.3 335.3 41.4 337.7 41.4 C 340.1 41.4 341.7 39.6 341.7 37 C 341.7 29.9 329 29.9 329 17.9 C 329 11.9 333.1 6.7 340.1 6.7 C 343.5 6.7 346.6 7.9 348.8 10 C 348.8 10 345.9 15.8 345.9 15.8 C 344.3 14.2 342.5 13.4 340.4 13.4 C 338.2 13.4 336.7 15.1 336.7 17.5 C 336.7 23.7 349.4 24.5 349.4 36.5 C 349.4 43.3 345 48.1 338.2 48.1 C 333.8 48.1 330.4 46.7 327.8 44.2 Z M 366.2 47.4 C 366.2 47.4 366.23 44.64 366.2 44.6 C 365 46.9 362.3 48.1 360.2 48.1 C 355.6 48.1 352.3 44.4 352.3 38.5 C 352.3 32.6 355.6 29 360.2 29 C 362.3 29 365 30.1 366.2 32.3 C 366.2 32.3 366.2 28.7 366.2 28.7 C 366.2 25.4 364.9 23.5 361.9 23.5 C 359.9 23.5 357.9 24.4 356 26.3 C 356 26.3 353.5 21.5 353.5 21.5 C 356.1 18.7 360.2 17.7 363.2 17.7 C 369.2 17.7 373 20.7 373 27.2 C 373.01 27.18 373 47.4 373 47.4 L 366.2 47.4 Z M 366.2 40.6 C 366.2 40.6 366.2 36.7 366.2 36.7 C 365.5 34.9 364.1 33.7 362.6 33.7 C 360.2 33.7 359.1 35.8 359.1 38.6 C 359.1 41.3 360.2 43.6 362.6 43.6 C 364.1 43.6 365.5 42.4 366.2 40.6 Z M 391.4 47.4 C 391.4 47.4 391.43 43.74 391.4 43.7 C 390.3 46.1 387.5 48.1 384.7 48.1 C 380.3 48.1 378.5 45.7 378.5 41.6 C 378.53 41.58 378.5 18.4 378.5 18.4 L 385.3 18.4 C 385.3 18.4 385.31 39.18 385.3 39.2 C 385.3 41.2 386 42.1 387.5 42.1 C 389.3 42.1 390.8 40.3 391.4 38.5 C 391.43 38.46 391.4 18.4 391.4 18.4 L 398.3 18.4 L 398.3 47.4 L 391.4 47.4 Z M 402.6 32.9 C 402.6 24.1 406.7 17.7 413.6 17.7 C 416.9 17.7 419.3 18.9 420.7 20.3 C 420.7 20.3 418.5 25.6 418.5 25.6 C 417.3 24.3 416.2 23.7 414.8 23.7 C 411.3 23.7 409.6 27.8 409.6 32.9 C 409.6 37.9 411.3 42.1 414.8 42.1 C 416.2 42.1 417.3 41.5 418.5 40.3 C 418.5 40.3 420.7 45.5 420.7 45.5 C 419.3 47 416.9 48.1 413.6 48.1 C 406.7 48.1 402.6 41.7 402.6 32.9 Z M 423.2 32.9 C 423.2 24.5 426.8 17.7 434.1 17.7 C 441.4 17.7 444.5 24.2 444.5 32.8 C 444.47 32.76 444.5 35.1 444.5 35.1 C 444.5 35.1 429.77 35.1 429.8 35.1 C 429.8 39.4 431.6 42.6 435.5 42.6 C 437.1 42.6 439 41.5 440.3 39.7 C 440.3 39.7 443.6 43.5 443.6 43.5 C 441.3 46.4 438.1 48.1 434.8 48.1 C 427.2 48.1 423.2 41.8 423.2 32.9 Z M 433.9 23.2 C 430.6 23.2 429.8 27.3 429.8 30.4 C 429.8 30.4 437.9 30.4 437.9 30.4 C 437.9 27.1 437.2 23.2 433.9 23.2 Z " stroke="none" fill="#b13d24"/>  </g></svg>