<?xml version="1.0" standalone="no"?><!DOCTYPE svg PUBLIC "-//W3C//DTD SVG 1.1//EN" "http://www.w3.org/Graphics/SVG/1.1/DTD/svg11.dtd"><svg xmlns="http://www.w3.org/2000/svg" version="1.1" width="510px" height="85.6px" viewBox="0 0 510 85.6">  <desc>Steak</desc>  <defs/>  <g id="Polygon145091">    <path d="M 0.7 44.2 C 0.7 44.2 4 38.2 4 38.2 C 5.6 40.3 8.2 41.4 10.6 41.4 C 13 41.4 14.6 39.6 14.6 37 C 14.6 29.9 1.9 29.9 1.9 17.9 C 1.9 11.9 5.9 6.7 13 6.7 C 16.4 6.7 19.5 7.9 21.7 10 C 21.7 10 18.8 15.8 18.8 15.8 C 17.2 14.2 15.4 13.4 13.3 13.4 C 11.1 13.4 9.5 15.1 9.5 17.5 C 9.5 23.7 22.3 24.5 22.3 36.5 C 22.3 43.3 17.9 48.1 11 48.1 C 6.7 48.1 3.3 46.7 0.7 44.2 Z M 26.8 40.7 C 26.82 40.74 26.8 24.3 26.8 24.3 L 24.1 24.3 L 24.1 18.4 L 26.8 18.4 L 26.8 10.5 L 33.6 10.5 L 33.6 18.4 L 37.3 18.4 L 37.3 24.3 L 33.6 24.3 C 33.6 24.3 33.6 39.42 33.6 39.4 C 33.6 41.2 34 42.1 35.2 42.1 C 35.9 42.1 36.5 41.8 36.8 41.3 C 36.8 41.3 38.2 46.6 38.2 46.6 C 37.2 47.5 35.6 48.1 33.5 48.1 C 28.7 48.1 26.8 45.7 26.8 40.7 Z M 40.3 32.9 C 40.3 24.5 43.9 17.7 51.1 17.7 C 58.4 17.7 61.5 24.2 61.5 32.8 C 61.5 32.76 61.5 35.1 61.5 35.1 C 61.5 35.1 46.8 35.1 46.8 35.1 C 46.9 39.4 48.7 42.6 52.5 42.6 C 54.1 42.6 56 41.5 57.3 39.7 C 57.3 39.7 60.6 43.5 60.6 43.5 C 58.3 46.4 55.1 48.1 51.8 48.1 C 44.2 48.1 40.3 41.8 40.3 32.9 Z M 50.9 23.2 C 47.6 23.2 46.8 27.3 46.8 30.4 C 46.8 30.4 55 30.4 55 30.4 C 55 27.1 54.2 23.2 50.9 23.2 Z M 78.2 47.4 C 78.2 47.4 78.24 44.64 78.2 44.6 C 77 46.9 74.3 48.1 72.2 48.1 C 67.6 48.1 64.3 44.4 64.3 38.5 C 64.3 32.6 67.6 29 72.2 29 C 74.3 29 77 30.1 78.2 32.3 C 78.2 32.3 78.2 28.7 78.2 28.7 C 78.2 25.4 76.9 23.5 73.9 23.5 C 71.9 23.5 69.9 24.4 68 26.3 C 68 26.3 65.5 21.5 65.5 21.5 C 68.1 18.7 72.2 17.7 75.2 17.7 C 81.2 17.7 85 20.7 85 27.2 C 85.02 27.18 85 47.4 85 47.4 L 78.2 47.4 Z M 78.2 40.6 C 78.2 40.6 78.2 36.7 78.2 36.7 C 77.5 34.9 76.1 33.7 74.6 33.7 C 72.2 33.7 71.1 35.8 71.1 38.6 C 71.1 41.3 72.2 43.6 74.6 43.6 C 76.1 43.6 77.5 42.4 78.2 40.6 Z M 104.2 47.4 L 100 35.8 L 97.3 40.6 L 97.3 47.4 L 90.5 47.4 L 90.5 7.4 L 97.3 7.4 L 97.3 31.8 L 104 18.4 L 111.4 18.4 L 104.5 31.3 L 111.7 47.4 L 104.2 47.4 Z " stroke="none" fill="#b13d24"/>  </g></svg>