<?xml version="1.0" standalone="no"?><!DOCTYPE svg PUBLIC "-//W3C//DTD SVG 1.1//EN" "http://www.w3.org/Graphics/SVG/1.1/DTD/svg11.dtd"><svg xmlns="http://www.w3.org/2000/svg" version="1.1" width="648px" height="575.3px" viewBox="0 0 648 575.3">  <desc>Cut up a bar of soap into smaller pieces Mix together Yellow 5 and Yellow 6 in equal parts, and add in the tetraxant</desc>  <defs/>  <g id="Polygon201059">    <path d="M 307.5 343.9 C 305.7 343.9 304.3 342.5 304.3 340.8 C 304.3 339 305.7 337.6 307.5 337.6 C 309.2 337.6 310.7 339 310.7 340.8 C 310.7 342.5 309.2 343.9 307.5 343.9 Z M 324.7 343.9 C 322.9 343.9 321.4 342.5 321.4 340.8 C 321.4 339 322.9 337.6 324.7 337.6 C 326.4 337.6 327.9 339 327.9 340.8 C 327.9 342.5 326.4 343.9 324.7 343.9 Z M 341.8 343.9 C 340.1 343.9 338.6 342.5 338.6 340.8 C 338.6 339 340.1 337.6 341.8 337.6 C 343.6 337.6 345.1 339 345.1 340.8 C 345.1 342.5 343.6 343.9 341.8 343.9 Z " stroke="none" fill="#b13d24"/>  </g>  <g id="Polygon201058">    <path d="M 45 276 C 45 276 44.97 265.52 45 265.5 C 45 264 44.3 263.1 43 263.1 C 41.7 263.1 40.4 264.2 39.8 265.4 C 39.81 265.4 39.8 276 39.8 276 L 37.6 276 C 37.6 276 37.65 265.52 37.6 265.5 C 37.6 264 37 263.1 35.6 263.1 C 34.3 263.1 33.1 264.2 32.5 265.4 C 32.46 265.4 32.5 276 32.5 276 L 30.3 276 L 30.3 261.5 L 32.5 261.5 C 32.5 261.5 32.46 263.6 32.5 263.6 C 33.1 262.5 34.7 261.2 36.4 261.2 C 38.3 261.2 39.4 262.2 39.7 263.8 C 40.4 262.4 42 261.2 43.8 261.2 C 45.9 261.2 47.1 262.3 47.1 265 C 47.13 264.95 47.1 276 47.1 276 L 45 276 Z M 50.1 268.8 C 50.1 264.7 52.1 261.2 55.9 261.2 C 59.8 261.2 61.9 264.7 61.9 268.8 C 61.9 272.8 59.8 276.4 55.9 276.4 C 52.1 276.4 50.1 272.8 50.1 268.8 Z M 59.6 268.8 C 59.6 265.9 58.5 263.1 55.9 263.1 C 53.5 263.1 52.3 265.9 52.3 268.8 C 52.3 271.7 53.5 274.5 55.9 274.5 C 58.5 274.5 59.6 271.7 59.6 268.8 Z M 64.8 276 L 64.8 261.5 L 66.9 261.5 C 66.9 261.5 66.93 263.84 66.9 263.8 C 67.9 262.3 69.3 261.2 71 261.2 C 71 261.2 71 263.5 71 263.5 C 70.8 263.4 70.6 263.4 70.3 263.4 C 69 263.4 67.5 264.5 66.9 265.7 C 66.93 265.73 66.9 276 66.9 276 L 64.8 276 Z M 72.5 268.8 C 72.5 264.6 74.7 261.2 78.4 261.2 C 82.2 261.2 84.1 264.6 84.1 268.8 C 84.12 268.82 84.1 269.5 84.1 269.5 C 84.1 269.5 74.73 269.48 74.7 269.5 C 74.8 272.4 76.3 274.6 78.9 274.6 C 80.2 274.6 81.4 274 82.3 272.8 C 82.3 272.8 83.5 274.1 83.5 274.1 C 82.3 275.5 80.7 276.4 78.7 276.4 C 74.8 276.4 72.5 273.2 72.5 268.8 Z M 78.4 263 C 75.8 263 74.8 265.8 74.7 267.9 C 74.7 267.9 82 267.9 82 267.9 C 82 265.7 81 263 78.4 263 Z M 93.5 273.1 C 93.53 273.11 93.5 263.4 93.5 263.4 L 91.6 263.4 L 91.6 261.5 L 93.5 261.5 L 93.5 257.6 L 95.7 257.6 L 95.7 261.5 L 98.2 261.5 L 98.2 263.4 L 95.7 263.4 C 95.7 263.4 95.69 272.72 95.7 272.7 C 95.7 273.8 96 274.5 96.9 274.5 C 97.4 274.5 97.9 274.2 98.1 273.9 C 98.1 273.9 98.8 275.5 98.8 275.5 C 98.3 276 97.6 276.4 96.4 276.4 C 94.5 276.4 93.5 275.3 93.5 273.1 Z M 100.3 258 C 100.3 257.2 101 256.5 101.8 256.5 C 102.6 256.5 103.2 257.2 103.2 258 C 103.2 258.8 102.6 259.4 101.8 259.4 C 101 259.4 100.3 258.8 100.3 258 Z M 100.7 276 L 100.7 261.5 L 102.8 261.5 L 102.8 276 L 100.7 276 Z M 121.1 276 C 121.1 276 121.13 265.52 121.1 265.5 C 121.1 264 120.5 263.1 119.1 263.1 C 117.8 263.1 116.5 264.2 116 265.4 C 115.97 265.4 116 276 116 276 L 113.8 276 C 113.8 276 113.81 265.52 113.8 265.5 C 113.8 264 113.2 263.1 111.8 263.1 C 110.5 263.1 109.3 264.2 108.6 265.4 C 108.62 265.4 108.6 276 108.6 276 L 106.5 276 L 106.5 261.5 L 108.6 261.5 C 108.6 261.5 108.62 263.6 108.6 263.6 C 109.2 262.5 110.8 261.2 112.6 261.2 C 114.4 261.2 115.6 262.2 115.9 263.8 C 116.6 262.4 118.2 261.2 119.9 261.2 C 122.1 261.2 123.3 262.3 123.3 265 C 123.29 264.95 123.3 276 123.3 276 L 121.1 276 Z M 126.2 268.8 C 126.2 264.6 128.5 261.2 132.1 261.2 C 135.9 261.2 137.8 264.6 137.8 268.8 C 137.84 268.82 137.8 269.5 137.8 269.5 C 137.8 269.5 128.45 269.48 128.5 269.5 C 128.5 272.4 130 274.6 132.6 274.6 C 133.9 274.6 135.2 274 136.1 272.8 C 136.1 272.8 137.2 274.1 137.2 274.1 C 136 275.5 134.4 276.4 132.4 276.4 C 128.6 276.4 126.2 273.2 126.2 268.8 Z M 132.1 263 C 129.5 263 128.5 265.8 128.5 267.9 C 128.5 267.9 135.7 267.9 135.7 267.9 C 135.7 265.7 134.7 263 132.1 263 Z M 139.5 274.3 C 139.5 274.3 140.6 272.8 140.6 272.8 C 141.4 273.8 142.8 274.6 144.4 274.6 C 146.1 274.6 147.2 273.7 147.2 272.3 C 147.2 268.9 139.9 270.1 139.9 265.1 C 139.9 262.9 141.7 261.2 144.6 261.2 C 146.5 261.2 148 261.9 149 263 C 149 263 148 264.5 148 264.5 C 147.2 263.5 146 262.9 144.6 262.9 C 143 262.9 142 263.8 142 265 C 142 268.1 149.2 267 149.2 272.2 C 149.2 274.6 147.4 276.4 144.4 276.4 C 142.4 276.4 140.7 275.7 139.5 274.3 Z M 151.9 274.7 C 151.9 273.9 152.6 273.1 153.4 273.1 C 154.3 273.1 155.1 273.9 155.1 274.7 C 155.1 275.6 154.3 276.3 153.4 276.3 C 152.6 276.3 151.9 275.6 151.9 274.7 Z M 164.8 276 L 164.8 256 L 175.1 256 L 175.1 258.1 L 167.2 258.1 L 167.2 264.7 L 174.9 264.7 L 174.9 266.8 L 167.2 266.8 L 167.2 273.9 L 175.1 273.9 L 175.1 276 L 164.8 276 Z M 186.1 276 C 186.1 276 186.05 265.7 186.1 265.7 C 186.1 263.8 185.2 263.1 183.7 263.1 C 182.3 263.1 181 264.2 180.4 265.4 C 180.35 265.4 180.4 276 180.4 276 L 178.2 276 L 178.2 261.5 L 180.4 261.5 C 180.4 261.5 180.35 263.6 180.4 263.6 C 181.2 262.3 182.8 261.2 184.6 261.2 C 187 261.2 188.2 262.5 188.2 265.1 C 188.21 265.1 188.2 276 188.2 276 L 186.1 276 Z M 191.5 258 C 191.5 257.2 192.1 256.5 192.9 256.5 C 193.7 256.5 194.4 257.2 194.4 258 C 194.4 258.8 193.7 259.4 192.9 259.4 C 192.1 259.4 191.5 258.8 191.5 258 Z M 187.9 280.9 C 187.9 280.9 188.7 279.3 188.7 279.3 C 189.1 279.7 189.5 280.1 190.2 280.1 C 191.2 280.1 191.9 279.4 191.9 277.8 C 191.87 277.79 191.9 261.5 191.9 261.5 L 194 261.5 C 194 261.5 194 277.79 194 277.8 C 194 280.6 192.7 281.9 190.4 281.9 C 189.3 281.9 188.6 281.6 187.9 280.9 Z M 196.9 268.8 C 196.9 264.7 199 261.2 202.8 261.2 C 206.7 261.2 208.7 264.7 208.7 268.8 C 208.7 272.8 206.7 276.4 202.8 276.4 C 199 276.4 196.9 272.8 196.9 268.8 Z M 206.5 268.8 C 206.5 265.9 205.4 263.1 202.8 263.1 C 200.3 263.1 199.2 265.9 199.2 268.8 C 199.2 271.7 200.3 274.5 202.8 274.5 C 205.4 274.5 206.5 271.7 206.5 268.8 Z M 211.3 279.8 C 211.5 279.9 212 280 212.2 280 C 213.1 280 213.5 279.7 213.9 278.5 C 213.92 278.54 214.7 276.3 214.7 276.3 L 209.9 261.5 L 212.2 261.5 L 215.8 273.4 L 219.4 261.5 L 221.8 261.5 C 221.8 261.5 215.96 279.08 216 279.1 C 215.2 281.2 214.1 281.9 212.4 281.9 C 211.9 281.9 211.3 281.8 210.9 281.7 C 210.9 281.7 211.3 279.8 211.3 279.8 Z M 222 274.7 C 222 273.9 222.7 273.1 223.6 273.1 C 224.4 273.1 225.2 273.9 225.2 274.7 C 225.2 275.6 224.4 276.3 223.6 276.3 C 222.7 276.3 222 275.6 222 274.7 Z " stroke="none" fill="#efd8d3"/>  </g>  <g id="Polygon201057">    <path d="M 0.9 237.1 C 0.9 237.1 2.4 235.6 2.4 235.6 C 3.4 237.1 4.8 238.3 6.7 238.3 C 9.1 238.3 10.3 236.8 10.3 234.4 C 10.3 231.7 8.6 230.8 6.5 230.8 C 5.9 230.8 5.2 230.8 4.9 230.8 C 4.9 230.8 4.9 228.7 4.9 228.7 C 5.2 228.7 6 228.7 6.5 228.7 C 8.5 228.7 10.1 227.6 10.1 225.4 C 10.1 223 8.7 221.8 6.7 221.8 C 4.9 221.8 3.6 222.8 2.6 224.2 C 2.6 224.2 1.1 222.9 1.1 222.9 C 2.3 220.9 4.3 219.7 6.8 219.7 C 10.1 219.7 12.5 221.5 12.5 225 C 12.5 227.5 10.7 229.3 8.9 229.7 C 10.7 229.9 12.8 231.7 12.8 234.6 C 12.8 238 10.6 240.4 6.8 240.4 C 4 240.4 1.9 238.9 0.9 237.1 Z M 15.7 238.7 C 15.7 237.9 16.4 237.1 17.3 237.1 C 18.2 237.1 18.9 237.9 18.9 238.7 C 18.9 239.6 18.2 240.3 17.3 240.3 C 16.4 240.3 15.7 239.6 15.7 238.7 Z M 30.4 240 L 30.4 220 L 40.7 220 L 40.7 222.1 L 32.8 222.1 L 32.8 228.7 L 40.5 228.7 L 40.5 230.8 L 32.8 230.8 L 32.8 240 L 30.4 240 Z M 42.8 232.8 C 42.8 228.7 44.9 225.2 48.7 225.2 C 52.6 225.2 54.6 228.7 54.6 232.8 C 54.6 236.8 52.6 240.4 48.7 240.4 C 44.9 240.4 42.8 236.8 42.8 232.8 Z M 52.4 232.8 C 52.4 229.9 51.3 227.1 48.7 227.1 C 46.2 227.1 45.1 229.9 45.1 232.8 C 45.1 235.7 46.2 238.5 48.7 238.5 C 51.3 238.5 52.4 235.7 52.4 232.8 Z M 57.6 240 L 57.6 225.5 L 59.7 225.5 C 59.7 225.5 59.7 227.84 59.7 227.8 C 60.6 226.3 62 225.2 63.8 225.2 C 63.8 225.2 63.8 227.5 63.8 227.5 C 63.6 227.4 63.3 227.4 63.1 227.4 C 61.8 227.4 60.3 228.5 59.7 229.7 C 59.7 229.73 59.7 240 59.7 240 L 57.6 240 Z M 77.5 238.5 C 79.9 238.5 81 235.9 81 232.8 C 81 229.6 79.9 227.1 77.5 227.1 C 76.2 227.1 74.8 228.2 74.3 229.5 C 74.3 229.5 74.3 236.1 74.3 236.1 C 74.8 237.4 76.2 238.5 77.5 238.5 Z M 72.1 240 L 72.1 220 L 74.3 220 C 74.3 220 74.28 227.63 74.3 227.6 C 75.2 226 76.6 225.2 78.1 225.2 C 81.4 225.2 83.3 228.3 83.3 232.8 C 83.3 237.4 81.4 240.4 78.1 240.4 C 76.6 240.4 75.1 239.4 74.3 238 C 74.28 237.95 74.3 240 74.3 240 L 72.1 240 Z M 85.5 232.8 C 85.5 228.6 87.7 225.2 91.4 225.2 C 95.2 225.2 97.1 228.6 97.1 232.8 C 97.14 232.82 97.1 233.5 97.1 233.5 C 97.1 233.5 87.75 233.48 87.7 233.5 C 87.8 236.4 89.3 238.6 91.9 238.6 C 93.2 238.6 94.5 238 95.4 236.8 C 95.4 236.8 96.5 238.1 96.5 238.1 C 95.3 239.5 93.7 240.4 91.7 240.4 C 87.9 240.4 85.5 237.2 85.5 232.8 Z M 91.4 227 C 88.8 227 87.8 229.8 87.7 231.9 C 87.7 231.9 95 231.9 95 231.9 C 95 229.7 94 227 91.4 227 Z M 98.8 238.3 C 98.8 238.3 99.9 236.8 99.9 236.8 C 100.7 237.8 102.1 238.6 103.7 238.6 C 105.4 238.6 106.5 237.7 106.5 236.3 C 106.5 232.9 99.2 234.1 99.2 229.1 C 99.2 226.9 101 225.2 103.9 225.2 C 105.8 225.2 107.2 225.9 108.3 227 C 108.3 227 107.2 228.5 107.2 228.5 C 106.5 227.5 105.3 226.9 103.9 226.9 C 102.3 226.9 101.3 227.8 101.3 229 C 101.3 232.1 108.5 231 108.5 236.2 C 108.5 238.6 106.7 240.4 103.7 240.4 C 101.7 240.4 100 239.7 98.8 238.3 Z M 111.7 237.1 C 111.71 237.11 111.7 227.4 111.7 227.4 L 109.8 227.4 L 109.8 225.5 L 111.7 225.5 L 111.7 221.6 L 113.9 221.6 L 113.9 225.5 L 116.3 225.5 L 116.3 227.4 L 113.9 227.4 C 113.9 227.4 113.87 236.72 113.9 236.7 C 113.9 237.8 114.2 238.5 115 238.5 C 115.6 238.5 116 238.2 116.3 237.9 C 116.3 237.9 117 239.5 117 239.5 C 116.5 240 115.7 240.4 114.6 240.4 C 112.6 240.4 111.7 239.3 111.7 237.1 Z M 125 240 L 125 225.5 L 127.2 225.5 C 127.2 225.5 127.16 227.84 127.2 227.8 C 128.1 226.3 129.5 225.2 131.3 225.2 C 131.3 225.2 131.3 227.5 131.3 227.5 C 131 227.4 130.8 227.4 130.6 227.4 C 129.2 227.4 127.8 228.5 127.2 229.7 C 127.16 229.73 127.2 240 127.2 240 L 125 240 Z M 132.7 232.8 C 132.7 228.6 135 225.2 138.6 225.2 C 142.4 225.2 144.4 228.6 144.4 232.8 C 144.35 232.82 144.4 233.5 144.4 233.5 C 144.4 233.5 134.96 233.48 135 233.5 C 135.1 236.4 136.6 238.6 139.1 238.6 C 140.4 238.6 141.7 238 142.6 236.8 C 142.6 236.8 143.7 238.1 143.7 238.1 C 142.6 239.5 140.9 240.4 139 240.4 C 135.1 240.4 132.7 237.2 132.7 232.8 Z M 138.6 227 C 136 227 135 229.8 135 231.9 C 135 231.9 142.2 231.9 142.2 231.9 C 142.2 229.7 141.2 227 138.6 227 Z M 146 238.3 C 146 238.3 147.1 236.8 147.1 236.8 C 148 237.8 149.3 238.6 150.9 238.6 C 152.6 238.6 153.7 237.7 153.7 236.3 C 153.7 232.9 146.5 234.1 146.5 229.1 C 146.5 226.9 148.2 225.2 151.1 225.2 C 153 225.2 154.5 225.9 155.5 227 C 155.5 227 154.5 228.5 154.5 228.5 C 153.7 227.5 152.5 226.9 151.1 226.9 C 149.5 226.9 148.5 227.8 148.5 229 C 148.5 232.1 155.8 231 155.8 236.2 C 155.8 238.6 153.9 240.4 150.9 240.4 C 148.9 240.4 147.2 239.7 146 238.3 Z M 166.3 240 C 166.3 240 166.34 238.01 166.3 238 C 165.5 239.3 163.9 240.4 162.1 240.4 C 159.7 240.4 158.5 239.2 158.5 236.5 C 158.51 236.51 158.5 225.5 158.5 225.5 L 160.6 225.5 C 160.6 225.5 160.64 235.88 160.6 235.9 C 160.6 237.8 161.5 238.5 163 238.5 C 164.4 238.5 165.7 237.4 166.3 236.2 C 166.34 236.21 166.3 225.5 166.3 225.5 L 168.5 225.5 L 168.5 240 L 166.3 240 Z M 172.2 240 L 172.2 220 L 174.3 220 L 174.3 240 L 172.2 240 Z M 178.4 237.1 C 178.37 237.11 178.4 227.4 178.4 227.4 L 176.5 227.4 L 176.5 225.5 L 178.4 225.5 L 178.4 221.6 L 180.5 221.6 L 180.5 225.5 L 183 225.5 L 183 227.4 L 180.5 227.4 C 180.5 227.4 180.53 236.72 180.5 236.7 C 180.5 237.8 180.9 238.5 181.7 238.5 C 182.2 238.5 182.7 238.2 183 237.9 C 183 237.9 183.6 239.5 183.6 239.5 C 183.1 240 182.4 240.4 181.3 240.4 C 179.3 240.4 178.4 239.3 178.4 237.1 Z M 184.4 238.3 C 184.4 238.3 185.5 236.8 185.5 236.8 C 186.3 237.8 187.7 238.6 189.2 238.6 C 190.9 238.6 192 237.7 192 236.3 C 192 232.9 184.8 234.1 184.8 229.1 C 184.8 226.9 186.5 225.2 189.4 225.2 C 191.3 225.2 192.8 225.9 193.8 227 C 193.8 227 192.8 228.5 192.8 228.5 C 192.1 227.5 190.9 226.9 189.4 226.9 C 187.9 226.9 186.9 227.8 186.9 229 C 186.9 232.1 194.1 231 194.1 236.2 C 194.1 238.6 192.2 240.4 189.3 240.4 C 187.2 240.4 185.6 239.7 184.4 238.3 Z M 197.7 243.8 C 197.7 243.8 196.6 242.9 196.6 242.9 C 197.5 242.3 198.4 241.1 198.5 240.1 C 198.4 240.1 198.2 240.2 198.1 240.2 C 197.3 240.2 196.7 239.5 196.7 238.7 C 196.7 237.8 197.4 237.1 198.3 237.1 C 199.2 237.1 200.1 237.9 200.1 239.4 C 200.1 241.2 199 242.8 197.7 243.8 Z M 209.5 240 L 209.5 220 L 211.7 220 L 211.7 240 L 209.5 240 Z M 214.6 232.8 C 214.6 228.6 216.8 225.2 220.5 225.2 C 224.3 225.2 226.2 228.6 226.2 232.8 C 226.22 232.82 226.2 233.5 226.2 233.5 C 226.2 233.5 216.83 233.48 216.8 233.5 C 216.9 236.4 218.4 238.6 221 238.6 C 222.3 238.6 223.6 238 224.5 236.8 C 224.5 236.8 225.6 238.1 225.6 238.1 C 224.4 239.5 222.8 240.4 220.8 240.4 C 217 240.4 214.6 237.2 214.6 232.8 Z M 220.5 227 C 217.9 227 216.9 229.8 216.8 231.9 C 216.8 231.9 224.1 231.9 224.1 231.9 C 224.1 229.7 223.1 227 220.5 227 Z M 229.5 237.1 C 229.49 237.11 229.5 227.4 229.5 227.4 L 227.6 227.4 L 227.6 225.5 L 229.5 225.5 L 229.5 221.6 L 231.7 221.6 L 231.7 225.5 L 234.1 225.5 L 234.1 227.4 L 231.7 227.4 C 231.7 227.4 231.65 236.72 231.7 236.7 C 231.7 237.8 232 238.5 232.8 238.5 C 233.4 238.5 233.8 238.2 234.1 237.9 C 234.1 237.9 234.7 239.5 234.7 239.5 C 234.2 240 233.5 240.4 232.4 240.4 C 230.4 240.4 229.5 239.3 229.5 237.1 Z M 243.2 237.1 C 243.23 237.11 243.2 227.4 243.2 227.4 L 241.3 227.4 L 241.3 225.5 L 243.2 225.5 L 243.2 221.6 L 245.4 221.6 L 245.4 225.5 L 247.9 225.5 L 247.9 227.4 L 245.4 227.4 C 245.4 227.4 245.39 236.72 245.4 236.7 C 245.4 237.8 245.7 238.5 246.6 238.5 C 247.1 238.5 247.6 238.2 247.8 237.9 C 247.8 237.9 248.5 239.5 248.5 239.5 C 248 240 247.3 240.4 246.1 240.4 C 244.2 240.4 243.2 239.3 243.2 237.1 Z M 258.3 240 C 258.3 240 258.26 229.67 258.3 229.7 C 258.3 227.8 257.4 227.1 255.9 227.1 C 254.5 227.1 253.2 228.2 252.5 229.4 C 252.53 229.4 252.5 240 252.5 240 L 250.4 240 L 250.4 220 L 252.5 220 C 252.5 220 252.53 227.6 252.5 227.6 C 253.4 226.3 255 225.2 256.8 225.2 C 259.2 225.2 260.4 226.4 260.4 229 C 260.39 229.04 260.4 240 260.4 240 L 258.3 240 Z M 263.3 232.8 C 263.3 228.6 265.5 225.2 269.2 225.2 C 273 225.2 274.9 228.6 274.9 232.8 C 274.94 232.82 274.9 233.5 274.9 233.5 C 274.9 233.5 265.55 233.48 265.5 233.5 C 265.6 236.4 267.1 238.6 269.7 238.6 C 271 238.6 272.3 238 273.2 236.8 C 273.2 236.8 274.3 238.1 274.3 238.1 C 273.1 239.5 271.5 240.4 269.5 240.4 C 265.7 240.4 263.3 237.2 263.3 232.8 Z M 269.2 227 C 266.6 227 265.6 229.8 265.5 231.9 C 265.5 231.9 272.8 231.9 272.8 231.9 C 272.8 229.7 271.8 227 269.2 227 Z M 283.2 232.8 C 283.2 228.5 285.5 225.2 289.2 225.2 C 291.2 225.2 292.5 226 293.4 227.1 C 293.4 227.1 292.2 228.6 292.2 228.6 C 291.4 227.5 290.5 227.1 289.4 227.1 C 286.8 227.1 285.5 229.7 285.5 232.8 C 285.5 235.9 286.8 238.5 289.4 238.5 C 290.5 238.5 291.4 238 292.2 237 C 292.2 237 293.4 238.5 293.4 238.5 C 292.5 239.6 291.2 240.4 289.2 240.4 C 285.5 240.4 283.2 237.1 283.2 232.8 Z M 295.1 232.8 C 295.1 228.7 297.1 225.2 301 225.2 C 304.9 225.2 306.9 228.7 306.9 232.8 C 306.9 236.8 304.9 240.4 301 240.4 C 297.1 240.4 295.1 236.8 295.1 232.8 Z M 304.6 232.8 C 304.6 229.9 303.5 227.1 301 227.1 C 298.5 227.1 297.3 229.9 297.3 232.8 C 297.3 235.7 298.5 238.5 301 238.5 C 303.5 238.5 304.6 235.7 304.6 232.8 Z M 317.3 240 C 317.3 240 317.27 238.46 317.3 238.5 C 316.3 239.8 314.9 240.4 313.5 240.4 C 311.1 240.4 309.1 238.6 309.1 235.6 C 309.1 232.5 311.1 230.8 313.5 230.8 C 314.9 230.8 316.4 231.4 317.3 232.6 C 317.3 232.6 317.3 230.1 317.3 230.1 C 317.3 228.1 316.2 227 314.3 227 C 312.9 227 311.8 227.5 310.7 228.8 C 310.7 228.8 309.7 227.3 309.7 227.3 C 311.1 225.8 312.8 225.2 314.6 225.2 C 317.5 225.2 319.4 226.6 319.4 229.9 C 319.43 229.88 319.4 240 319.4 240 L 317.3 240 Z M 317.3 237 C 317.3 237 317.3 234.2 317.3 234.2 C 316.6 233 315.4 232.4 314.1 232.4 C 312.3 232.4 311.3 233.8 311.3 235.6 C 311.3 237.4 312.3 238.8 314.1 238.8 C 315.4 238.8 316.6 238.2 317.3 237 Z M 323.5 237.1 C 323.48 237.11 323.5 227.4 323.5 227.4 L 321.6 227.4 L 321.6 225.5 L 323.5 225.5 L 323.5 221.6 L 325.6 221.6 L 325.6 225.5 L 328.1 225.5 L 328.1 227.4 L 325.6 227.4 C 325.6 227.4 325.64 236.72 325.6 236.7 C 325.6 237.8 326 238.5 326.8 238.5 C 327.3 238.5 327.8 238.2 328.1 237.9 C 328.1 237.9 328.7 239.5 328.7 239.5 C 328.2 240 327.5 240.4 326.4 240.4 C 324.4 240.4 323.5 239.3 323.5 237.1 Z M 345.1 240 C 345.1 240 345.08 237.95 345.1 238 C 344.2 239.4 342.8 240.4 341.3 240.4 C 338 240.4 336.1 237.4 336.1 232.8 C 336.1 228.3 338 225.2 341.3 225.2 C 342.7 225.2 344.2 226 345.1 227.6 C 345.08 227.63 345.1 220 345.1 220 L 347.2 220 L 347.2 240 L 345.1 240 Z M 345.1 236.1 C 345.1 236.1 345.1 229.5 345.1 229.5 C 344.5 228.2 343.2 227.1 341.8 227.1 C 339.4 227.1 338.3 229.6 338.3 232.8 C 338.3 235.9 339.4 238.5 341.8 238.5 C 343.2 238.5 344.5 237.4 345.1 236.1 Z M 350.9 240 L 350.9 225.5 L 353 225.5 C 353 225.5 353.03 227.84 353 227.8 C 354 226.3 355.4 225.2 357.1 225.2 C 357.1 225.2 357.1 227.5 357.1 227.5 C 356.9 227.4 356.7 227.4 356.4 227.4 C 355.1 227.4 353.6 228.5 353 229.7 C 353.03 229.73 353 240 353 240 L 350.9 240 Z M 358.9 243.8 C 359.2 243.9 359.6 244 359.9 244 C 360.7 244 361.2 243.7 361.6 242.5 C 361.58 242.54 362.4 240.3 362.4 240.3 L 357.5 225.5 L 359.9 225.5 L 363.5 237.4 L 367.1 225.5 L 369.4 225.5 C 369.4 225.5 363.62 243.08 363.6 243.1 C 362.9 245.2 361.7 245.9 360 245.9 C 359.6 245.9 358.9 245.8 358.6 245.7 C 358.6 245.7 358.9 243.8 358.9 243.8 Z M 384.9 240 C 384.9 240 384.86 238.46 384.9 238.5 C 383.9 239.8 382.5 240.4 381 240.4 C 378.7 240.4 376.7 238.6 376.7 235.6 C 376.7 232.5 378.7 230.8 381 230.8 C 382.5 230.8 384 231.4 384.9 232.6 C 384.9 232.6 384.9 230.1 384.9 230.1 C 384.9 228.1 383.8 227 381.9 227 C 380.5 227 379.4 227.5 378.3 228.8 C 378.3 228.8 377.3 227.3 377.3 227.3 C 378.7 225.8 380.4 225.2 382.2 225.2 C 385.1 225.2 387 226.6 387 229.9 C 387.02 229.88 387 240 387 240 L 384.9 240 Z M 384.9 237 C 384.9 237 384.9 234.2 384.9 234.2 C 384.2 233 383 232.4 381.7 232.4 C 379.9 232.4 378.9 233.8 378.9 235.6 C 378.9 237.4 379.9 238.8 381.7 238.8 C 383 238.8 384.2 238.2 384.9 237 Z M 398.5 240 C 398.5 240 398.48 229.7 398.5 229.7 C 398.5 227.8 397.6 227.1 396.2 227.1 C 394.8 227.1 393.4 228.2 392.8 229.4 C 392.78 229.4 392.8 240 392.8 240 L 390.6 240 L 390.6 225.5 L 392.8 225.5 C 392.8 225.5 392.78 227.6 392.8 227.6 C 393.6 226.3 395.2 225.2 397 225.2 C 399.4 225.2 400.6 226.5 400.6 229.1 C 400.64 229.1 400.6 240 400.6 240 L 398.5 240 Z M 412.6 240 C 412.6 240 412.58 237.95 412.6 238 C 411.7 239.4 410.3 240.4 408.8 240.4 C 405.5 240.4 403.6 237.4 403.6 232.8 C 403.6 228.3 405.5 225.2 408.8 225.2 C 410.2 225.2 411.7 226 412.6 227.6 C 412.58 227.63 412.6 220 412.6 220 L 414.7 220 L 414.7 240 L 412.6 240 Z M 412.6 236.1 C 412.6 236.1 412.6 229.5 412.6 229.5 C 412 228.2 410.7 227.1 409.3 227.1 C 406.9 227.1 405.8 229.6 405.8 232.8 C 405.8 235.9 406.9 238.5 409.3 238.5 C 410.7 238.5 412 237.4 412.6 236.1 Z M 424.5 240 L 424.5 225.5 L 426.7 225.5 C 426.7 225.5 426.68 227.84 426.7 227.8 C 427.6 226.3 429 225.2 430.8 225.2 C 430.8 225.2 430.8 227.5 430.8 227.5 C 430.5 227.4 430.3 227.4 430.1 227.4 C 428.7 227.4 427.3 228.5 426.7 229.7 C 426.68 229.73 426.7 240 426.7 240 L 424.5 240 Z M 432.3 232.8 C 432.3 228.6 434.5 225.2 438.1 225.2 C 441.9 225.2 443.9 228.6 443.9 232.8 C 443.87 232.82 443.9 233.5 443.9 233.5 C 443.9 233.5 434.48 233.48 434.5 233.5 C 434.6 236.4 436.1 238.6 438.6 238.6 C 439.9 238.6 441.2 238 442.1 236.8 C 442.1 236.8 443.2 238.1 443.2 238.1 C 442.1 239.5 440.4 240.4 438.5 240.4 C 434.6 240.4 432.3 237.2 432.3 232.8 Z M 438.1 227 C 435.6 227 434.5 229.8 434.5 231.9 C 434.5 231.9 441.7 231.9 441.7 231.9 C 441.7 229.7 440.7 227 438.1 227 Z M 448.8 237.9 C 448.85 237.92 448.8 245.5 448.8 245.5 L 446.7 245.5 L 446.7 225.5 L 448.8 225.5 C 448.8 225.5 448.85 227.6 448.8 227.6 C 449.7 226.1 451.1 225.2 452.7 225.2 C 455.9 225.2 457.8 228.2 457.8 232.8 C 457.8 237.3 455.9 240.4 452.7 240.4 C 451.2 240.4 449.7 239.5 448.8 237.9 Z M 455.6 232.8 C 455.6 229.6 454.5 227.1 452.1 227.1 C 450.8 227.1 449.4 228.2 448.8 229.4 C 448.8 229.4 448.8 236.1 448.8 236.1 C 449.4 237.3 450.8 238.5 452.1 238.5 C 454.5 238.5 455.6 235.9 455.6 232.8 Z M 460 232.8 C 460 228.6 462.3 225.2 465.9 225.2 C 469.7 225.2 471.6 228.6 471.6 232.8 C 471.65 232.82 471.6 233.5 471.6 233.5 C 471.6 233.5 462.26 233.48 462.3 233.5 C 462.3 236.4 463.8 238.6 466.4 238.6 C 467.7 238.6 469 238 469.9 236.8 C 469.9 236.8 471 238.1 471 238.1 C 469.8 239.5 468.2 240.4 466.2 240.4 C 462.4 240.4 460 237.2 460 232.8 Z M 465.9 227 C 463.3 227 462.3 229.8 462.3 231.9 C 462.3 231.9 469.5 231.9 469.5 231.9 C 469.5 229.7 468.5 227 465.9 227 Z M 481.9 240 C 481.9 240 481.93 238.46 481.9 238.5 C 481 239.8 479.6 240.4 478.1 240.4 C 475.8 240.4 473.7 238.6 473.7 235.6 C 473.7 232.5 475.8 230.8 478.1 230.8 C 479.6 230.8 481 231.4 481.9 232.6 C 481.9 232.6 481.9 230.1 481.9 230.1 C 481.9 228.1 480.9 227 479 227 C 477.6 227 476.4 227.5 475.3 228.8 C 475.3 228.8 474.4 227.3 474.4 227.3 C 475.8 225.8 477.5 225.2 479.3 225.2 C 482.2 225.2 484.1 226.6 484.1 229.9 C 484.09 229.88 484.1 240 484.1 240 L 481.9 240 Z M 481.9 237 C 481.9 237 481.9 234.2 481.9 234.2 C 481.3 233 480.1 232.4 478.8 232.4 C 477 232.4 475.9 233.8 475.9 235.6 C 475.9 237.4 477 238.8 478.8 238.8 C 480.1 238.8 481.3 238.2 481.9 237 Z M 488.1 237.1 C 488.14 237.11 488.1 227.4 488.1 227.4 L 486.2 227.4 L 486.2 225.5 L 488.1 225.5 L 488.1 221.6 L 490.3 221.6 L 490.3 225.5 L 492.8 225.5 L 492.8 227.4 L 490.3 227.4 C 490.3 227.4 490.3 236.72 490.3 236.7 C 490.3 237.8 490.6 238.5 491.5 238.5 C 492 238.5 492.5 238.2 492.7 237.9 C 492.7 237.9 493.4 239.5 493.4 239.5 C 492.9 240 492.2 240.4 491.1 240.4 C 489.1 240.4 488.1 239.3 488.1 237.1 Z M 501.9 237.1 C 501.88 237.11 501.9 227.4 501.9 227.4 L 500 227.4 L 500 225.5 L 501.9 225.5 L 501.9 221.6 L 504 221.6 L 504 225.5 L 506.5 225.5 L 506.5 227.4 L 504 227.4 C 504 227.4 504.04 236.72 504 236.7 C 504 237.8 504.4 238.5 505.2 238.5 C 505.8 238.5 506.2 238.2 506.5 237.9 C 506.5 237.9 507.1 239.5 507.1 239.5 C 506.6 240 505.9 240.4 504.8 240.4 C 502.8 240.4 501.9 239.3 501.9 237.1 Z M 516.9 240 C 516.9 240 516.91 229.67 516.9 229.7 C 516.9 227.8 516 227.1 514.6 227.1 C 513.2 227.1 511.8 228.2 511.2 229.4 C 511.18 229.4 511.2 240 511.2 240 L 509.1 240 L 509.1 220 L 511.2 220 C 511.2 220 511.18 227.6 511.2 227.6 C 512 226.3 513.7 225.2 515.4 225.2 C 517.9 225.2 519 226.4 519 229 C 519.04 229.04 519 240 519 240 L 516.9 240 Z M 522 232.8 C 522 228.6 524.2 225.2 527.9 225.2 C 531.7 225.2 533.6 228.6 533.6 232.8 C 533.59 232.82 533.6 233.5 533.6 233.5 C 533.6 233.5 524.2 233.48 524.2 233.5 C 524.3 236.4 525.8 238.6 528.4 238.6 C 529.6 238.6 530.9 238 531.8 236.8 C 531.8 236.8 533 238.1 533 238.1 C 531.8 239.5 530.1 240.4 528.2 240.4 C 524.3 240.4 522 237.2 522 232.8 Z M 527.8 227 C 525.3 227 524.3 229.8 524.2 231.9 C 524.2 231.9 531.5 231.9 531.5 231.9 C 531.4 229.7 530.5 227 527.8 227 Z M 544.7 237.9 C 544.72 237.92 544.7 245.5 544.7 245.5 L 542.6 245.5 L 542.6 225.5 L 544.7 225.5 C 544.7 225.5 544.72 227.6 544.7 227.6 C 545.6 226.1 547 225.2 548.5 225.2 C 551.8 225.2 553.7 228.2 553.7 232.8 C 553.7 237.3 551.8 240.4 548.5 240.4 C 547.1 240.4 545.6 239.5 544.7 237.9 Z M 551.5 232.8 C 551.5 229.6 550.4 227.1 548 227.1 C 546.6 227.1 545.3 228.2 544.7 229.4 C 544.7 229.4 544.7 236.1 544.7 236.1 C 545.3 237.3 546.6 238.5 548 238.5 C 550.4 238.5 551.5 235.9 551.5 232.8 Z M 556.6 240 L 556.6 225.5 L 558.8 225.5 C 558.8 225.5 558.76 227.84 558.8 227.8 C 559.7 226.3 561.1 225.2 562.9 225.2 C 562.9 225.2 562.9 227.5 562.9 227.5 C 562.6 227.4 562.4 227.4 562.2 227.4 C 560.8 227.4 559.4 228.5 558.8 229.7 C 558.76 229.73 558.8 240 558.8 240 L 556.6 240 Z M 564.3 232.8 C 564.3 228.7 566.4 225.2 570.2 225.2 C 574.1 225.2 576.1 228.7 576.1 232.8 C 576.1 236.8 574.1 240.4 570.2 240.4 C 566.4 240.4 564.3 236.8 564.3 232.8 Z M 573.9 232.8 C 573.9 229.9 572.8 227.1 570.2 227.1 C 567.7 227.1 566.6 229.9 566.6 232.8 C 566.6 235.7 567.7 238.5 570.2 238.5 C 572.8 238.5 573.9 235.7 573.9 232.8 Z M 578.4 232.8 C 578.4 228.5 580.6 225.2 584.4 225.2 C 586.4 225.2 587.6 226 588.5 227.1 C 588.5 227.1 587.3 228.6 587.3 228.6 C 586.5 227.5 585.6 227.1 584.5 227.1 C 582 227.1 580.6 229.7 580.6 232.8 C 580.6 235.9 582 238.5 584.5 238.5 C 585.6 238.5 586.5 238 587.3 237 C 587.3 237 588.5 238.5 588.5 238.5 C 587.6 239.6 586.4 240.4 584.4 240.4 C 580.6 240.4 578.4 237.1 578.4 232.8 Z M 590.2 232.8 C 590.2 228.6 592.5 225.2 596.1 225.2 C 599.9 225.2 601.8 228.6 601.8 232.8 C 601.84 232.82 601.8 233.5 601.8 233.5 C 601.8 233.5 592.45 233.48 592.5 233.5 C 592.5 236.4 594 238.6 596.6 238.6 C 597.9 238.6 599.2 238 600.1 236.8 C 600.1 236.8 601.2 238.1 601.2 238.1 C 600 239.5 598.4 240.4 596.4 240.4 C 592.6 240.4 590.2 237.2 590.2 232.8 Z M 596.1 227 C 593.5 227 592.5 229.8 592.5 231.9 C 592.5 231.9 599.7 231.9 599.7 231.9 C 599.7 229.7 598.7 227 596.1 227 Z M 603.5 238.3 C 603.5 238.3 604.6 236.8 604.6 236.8 C 605.4 237.8 606.8 238.6 608.4 238.6 C 610.1 238.6 611.2 237.7 611.2 236.3 C 611.2 232.9 603.9 234.1 603.9 229.1 C 603.9 226.9 605.7 225.2 608.6 225.2 C 610.5 225.2 612 225.9 613 227 C 613 227 612 228.5 612 228.5 C 611.2 227.5 610 226.9 608.6 226.9 C 607 226.9 606 227.8 606 229 C 606 232.1 613.2 231 613.2 236.2 C 613.2 238.6 611.4 240.4 608.4 240.4 C 606.4 240.4 604.7 239.7 603.5 238.3 Z M 614.8 238.3 C 614.8 238.3 615.9 236.8 615.9 236.8 C 616.8 237.8 618.1 238.6 619.7 238.6 C 621.4 238.6 622.5 237.7 622.5 236.3 C 622.5 232.9 615.3 234.1 615.3 229.1 C 615.3 226.9 617 225.2 619.9 225.2 C 621.8 225.2 623.3 225.9 624.3 227 C 624.3 227 623.3 228.5 623.3 228.5 C 622.5 227.5 621.3 226.9 619.9 226.9 C 618.3 226.9 617.3 227.8 617.3 229 C 617.3 232.1 624.6 231 624.6 236.2 C 624.6 238.6 622.7 240.4 619.7 240.4 C 617.7 240.4 616 239.7 614.8 238.3 Z M 632.4 237.1 C 632.4 237.1 633.9 235.6 633.9 235.6 C 634.8 237.1 636.3 238.3 638.2 238.3 C 640.6 238.3 641.8 236.8 641.8 234.4 C 641.8 231.7 640.1 230.8 638 230.8 C 637.4 230.8 636.7 230.8 636.4 230.8 C 636.4 230.8 636.4 228.7 636.4 228.7 C 636.7 228.7 637.5 228.7 638 228.7 C 640 228.7 641.6 227.6 641.6 225.4 C 641.6 223 640.2 221.8 638.1 221.8 C 636.4 221.8 635.1 222.8 634.1 224.2 C 634.1 224.2 632.6 222.9 632.6 222.9 C 633.8 220.9 635.8 219.7 638.3 219.7 C 641.5 219.7 644 221.5 644 225 C 644 227.5 642.2 229.3 640.4 229.7 C 642.2 229.9 644.2 231.7 644.2 234.6 C 644.2 238 642.1 240.4 638.3 240.4 C 635.4 240.4 633.4 238.9 632.4 237.1 Z " stroke="none" fill="#efd8d3"/>  </g>  <g id="Polygon201056">    <path d="M 30.4 168 L 30.4 148 L 40.7 148 L 40.7 150.1 L 32.8 150.1 L 32.8 156.7 L 40.5 156.7 L 40.5 158.8 L 32.8 158.8 L 32.8 165.9 L 40.7 165.9 L 40.7 168 L 30.4 168 Z M 46.8 168 L 42.1 153.5 L 44.4 153.5 L 48 165.5 L 51.6 153.5 L 53.9 153.5 L 49.2 168 L 46.8 168 Z M 55.1 160.8 C 55.1 156.6 57.3 153.2 61 153.2 C 64.8 153.2 66.7 156.6 66.7 160.8 C 66.69 160.82 66.7 161.5 66.7 161.5 C 66.7 161.5 57.3 161.48 57.3 161.5 C 57.4 164.4 58.9 166.6 61.5 166.6 C 62.7 166.6 64 166 64.9 164.8 C 64.9 164.8 66.1 166.1 66.1 166.1 C 64.9 167.5 63.2 168.4 61.3 168.4 C 57.4 168.4 55.1 165.2 55.1 160.8 Z M 60.9 155 C 58.4 155 57.4 157.8 57.3 159.9 C 57.3 159.9 64.6 159.9 64.6 159.9 C 64.5 157.7 63.6 155 60.9 155 Z M 77.4 168 C 77.4 168 77.37 157.7 77.4 157.7 C 77.4 155.8 76.5 155.1 75.1 155.1 C 73.6 155.1 72.3 156.2 71.7 157.4 C 71.67 157.4 71.7 168 71.7 168 L 69.5 168 L 69.5 153.5 L 71.7 153.5 C 71.7 153.5 71.67 155.6 71.7 155.6 C 72.5 154.3 74.1 153.2 75.9 153.2 C 78.3 153.2 79.5 154.5 79.5 157.1 C 79.53 157.1 79.5 168 79.5 168 L 77.4 168 Z M 83.2 168 L 83.2 148 L 85.3 148 L 85.3 168 L 83.2 168 Z M 88.6 171.8 C 88.8 171.9 89.3 172 89.5 172 C 90.4 172 90.8 171.7 91.2 170.5 C 91.23 170.54 92 168.3 92 168.3 L 87.2 153.5 L 89.5 153.5 L 93.1 165.4 L 96.7 153.5 L 99.1 153.5 C 99.1 153.5 93.27 171.08 93.3 171.1 C 92.5 173.2 91.4 173.9 89.7 173.9 C 89.2 173.9 88.6 173.8 88.2 173.7 C 88.2 173.7 88.6 171.8 88.6 171.8 Z M 106.3 160.8 C 106.3 156.5 108.6 153.2 112.3 153.2 C 114.4 153.2 115.6 154 116.5 155.1 C 116.5 155.1 115.3 156.6 115.3 156.6 C 114.5 155.5 113.6 155.1 112.5 155.1 C 109.9 155.1 108.6 157.7 108.6 160.8 C 108.6 163.9 109.9 166.5 112.5 166.5 C 113.6 166.5 114.5 166 115.3 165 C 115.3 165 116.5 166.5 116.5 166.5 C 115.6 167.6 114.4 168.4 112.3 168.4 C 108.6 168.4 106.3 165.1 106.3 160.8 Z M 118.2 160.8 C 118.2 156.7 120.3 153.2 124.1 153.2 C 128 153.2 130 156.7 130 160.8 C 130 164.8 128 168.4 124.1 168.4 C 120.3 168.4 118.2 164.8 118.2 160.8 Z M 127.8 160.8 C 127.8 157.9 126.7 155.1 124.1 155.1 C 121.6 155.1 120.5 157.9 120.5 160.8 C 120.5 163.7 121.6 166.5 124.1 166.5 C 126.7 166.5 127.8 163.7 127.8 160.8 Z M 140.4 168 C 140.4 168 140.39 166.46 140.4 166.5 C 139.5 167.8 138.1 168.4 136.6 168.4 C 134.2 168.4 132.2 166.6 132.2 163.6 C 132.2 160.5 134.2 158.8 136.6 158.8 C 138.1 158.8 139.5 159.4 140.4 160.6 C 140.4 160.6 140.4 158.1 140.4 158.1 C 140.4 156.1 139.3 155 137.4 155 C 136.1 155 134.9 155.5 133.8 156.8 C 133.8 156.8 132.8 155.3 132.8 155.3 C 134.2 153.8 135.9 153.2 137.8 153.2 C 140.6 153.2 142.6 154.6 142.6 157.9 C 142.55 157.88 142.6 168 142.6 168 L 140.4 168 Z M 140.4 165 C 140.4 165 140.4 162.2 140.4 162.2 C 139.7 161 138.5 160.4 137.3 160.4 C 135.5 160.4 134.4 161.8 134.4 163.6 C 134.4 165.4 135.5 166.8 137.3 166.8 C 138.5 166.8 139.7 166.2 140.4 165 Z M 146.6 165.1 C 146.6 165.11 146.6 155.4 146.6 155.4 L 144.7 155.4 L 144.7 153.5 L 146.6 153.5 L 146.6 149.6 L 148.8 149.6 L 148.8 153.5 L 151.2 153.5 L 151.2 155.4 L 148.8 155.4 C 148.8 155.4 148.76 164.72 148.8 164.7 C 148.8 165.8 149.1 166.5 149.9 166.5 C 150.5 166.5 150.9 166.2 151.2 165.9 C 151.2 165.9 151.9 167.5 151.9 167.5 C 151.3 168 150.6 168.4 149.5 168.4 C 147.5 168.4 146.6 167.3 146.6 165.1 Z M 160.3 165.1 C 160.34 165.11 160.3 155.4 160.3 155.4 L 158.4 155.4 L 158.4 153.5 L 160.3 153.5 L 160.3 149.6 L 162.5 149.6 L 162.5 153.5 L 165 153.5 L 165 155.4 L 162.5 155.4 C 162.5 155.4 162.5 164.72 162.5 164.7 C 162.5 165.8 162.8 166.5 163.7 166.5 C 164.2 166.5 164.7 166.2 164.9 165.9 C 164.9 165.9 165.6 167.5 165.6 167.5 C 165.1 168 164.4 168.4 163.3 168.4 C 161.3 168.4 160.3 167.3 160.3 165.1 Z M 175.4 168 C 175.4 168 175.37 157.67 175.4 157.7 C 175.4 155.8 174.5 155.1 173 155.1 C 171.6 155.1 170.3 156.2 169.6 157.4 C 169.64 157.4 169.6 168 169.6 168 L 167.5 168 L 167.5 148 L 169.6 148 C 169.6 148 169.64 155.6 169.6 155.6 C 170.5 154.3 172.1 153.2 173.9 153.2 C 176.3 153.2 177.5 154.4 177.5 157 C 177.5 157.04 177.5 168 177.5 168 L 175.4 168 Z M 180.4 160.8 C 180.4 156.6 182.7 153.2 186.3 153.2 C 190.1 153.2 192.1 156.6 192.1 160.8 C 192.05 160.82 192.1 161.5 192.1 161.5 C 192.1 161.5 182.66 161.48 182.7 161.5 C 182.8 164.4 184.3 166.6 186.8 166.6 C 188.1 166.6 189.4 166 190.3 164.8 C 190.3 164.8 191.4 166.1 191.4 166.1 C 190.3 167.5 188.6 168.4 186.7 168.4 C 182.8 168.4 180.4 165.2 180.4 160.8 Z M 186.3 155 C 183.7 155 182.7 157.8 182.7 159.9 C 182.7 159.9 189.9 159.9 189.9 159.9 C 189.9 157.7 188.9 155 186.3 155 Z M 199.9 166.3 C 199.9 166.3 201 164.8 201 164.8 C 201.8 165.8 203.2 166.6 204.7 166.6 C 206.4 166.6 207.5 165.7 207.5 164.3 C 207.5 160.9 200.3 162.1 200.3 157.1 C 200.3 154.9 202 153.2 204.9 153.2 C 206.8 153.2 208.3 153.9 209.3 155 C 209.3 155 208.3 156.5 208.3 156.5 C 207.6 155.5 206.4 154.9 205 154.9 C 203.4 154.9 202.4 155.8 202.4 157 C 202.4 160.1 209.6 159 209.6 164.2 C 209.6 166.6 207.7 168.4 204.8 168.4 C 202.7 168.4 201.1 167.7 199.9 166.3 Z M 211.6 160.8 C 211.6 156.7 213.7 153.2 217.5 153.2 C 221.4 153.2 223.4 156.7 223.4 160.8 C 223.4 164.8 221.4 168.4 217.5 168.4 C 213.7 168.4 211.6 164.8 211.6 160.8 Z M 221.2 160.8 C 221.2 157.9 220.1 155.1 217.5 155.1 C 215 155.1 213.9 157.9 213.9 160.8 C 213.9 163.7 215 166.5 217.5 166.5 C 220.1 166.5 221.2 163.7 221.2 160.8 Z M 233.8 168 C 233.8 168 233.81 166.46 233.8 166.5 C 232.9 167.8 231.5 168.4 230 168.4 C 227.7 168.4 225.6 166.6 225.6 163.6 C 225.6 160.5 227.6 158.8 230 158.8 C 231.5 158.8 232.9 159.4 233.8 160.6 C 233.8 160.6 233.8 158.1 233.8 158.1 C 233.8 156.1 232.7 155 230.8 155 C 229.5 155 228.3 155.5 227.2 156.8 C 227.2 156.8 226.3 155.3 226.3 155.3 C 227.6 153.8 229.3 153.2 231.2 153.2 C 234.1 153.2 236 154.6 236 157.9 C 235.97 157.88 236 168 236 168 L 233.8 168 Z M 233.8 165 C 233.8 165 233.8 162.2 233.8 162.2 C 233.2 161 232 160.4 230.7 160.4 C 228.9 160.4 227.8 161.8 227.8 163.6 C 227.8 165.4 228.9 166.8 230.7 166.8 C 232 166.8 233.2 166.2 233.8 165 Z M 241.7 165.9 C 241.73 165.92 241.7 173.5 241.7 173.5 L 239.6 173.5 L 239.6 153.5 L 241.7 153.5 C 241.7 153.5 241.73 155.6 241.7 155.6 C 242.6 154.1 244 153.2 245.5 153.2 C 248.8 153.2 250.7 156.2 250.7 160.8 C 250.7 165.3 248.8 168.4 245.5 168.4 C 244.1 168.4 242.6 167.5 241.7 165.9 Z M 248.5 160.8 C 248.5 157.6 247.4 155.1 245 155.1 C 243.7 155.1 242.3 156.2 241.7 157.4 C 241.7 157.4 241.7 164.1 241.7 164.1 C 242.3 165.3 243.7 166.5 245 166.5 C 247.4 166.5 248.5 163.9 248.5 160.8 Z M 261.9 165.9 C 261.92 165.92 261.9 173.5 261.9 173.5 L 259.8 173.5 L 259.8 153.5 L 261.9 153.5 C 261.9 153.5 261.92 155.6 261.9 155.6 C 262.8 154.1 264.2 153.2 265.7 153.2 C 269 153.2 270.9 156.2 270.9 160.8 C 270.9 165.3 269 168.4 265.7 168.4 C 264.3 168.4 262.8 167.5 261.9 165.9 Z M 268.7 160.8 C 268.7 157.6 267.6 155.1 265.2 155.1 C 263.8 155.1 262.5 156.2 261.9 157.4 C 261.9 157.4 261.9 164.1 261.9 164.1 C 262.5 165.3 263.8 166.5 265.2 166.5 C 267.6 166.5 268.7 163.9 268.7 160.8 Z M 273.4 150 C 273.4 149.2 274.1 148.5 274.9 148.5 C 275.7 148.5 276.4 149.2 276.4 150 C 276.4 150.8 275.7 151.4 274.9 151.4 C 274.1 151.4 273.4 150.8 273.4 150 Z M 273.8 168 L 273.8 153.5 L 276 153.5 L 276 168 L 273.8 168 Z M 278.9 160.8 C 278.9 156.6 281.1 153.2 284.8 153.2 C 288.6 153.2 290.5 156.6 290.5 160.8 C 290.51 160.82 290.5 161.5 290.5 161.5 C 290.5 161.5 281.12 161.48 281.1 161.5 C 281.2 164.4 282.7 166.6 285.3 166.6 C 286.6 166.6 287.8 166 288.7 164.8 C 288.7 164.8 289.9 166.1 289.9 166.1 C 288.7 167.5 287.1 168.4 285.1 168.4 C 281.2 168.4 278.9 165.2 278.9 160.8 Z M 284.8 155 C 282.2 155 281.2 157.8 281.1 159.9 C 281.1 159.9 288.4 159.9 288.4 159.9 C 288.4 157.7 287.4 155 284.8 155 Z M 292.6 160.8 C 292.6 156.5 294.9 153.2 298.6 153.2 C 300.7 153.2 301.9 154 302.8 155.1 C 302.8 155.1 301.6 156.6 301.6 156.6 C 300.8 155.5 299.9 155.1 298.8 155.1 C 296.2 155.1 294.9 157.7 294.9 160.8 C 294.9 163.9 296.2 166.5 298.8 166.5 C 299.9 166.5 300.8 166 301.6 165 C 301.6 165 302.8 166.5 302.8 166.5 C 301.9 167.6 300.7 168.4 298.6 168.4 C 294.9 168.4 292.6 165.1 292.6 160.8 Z M 304.5 160.8 C 304.5 156.6 306.7 153.2 310.4 153.2 C 314.2 153.2 316.1 156.6 316.1 160.8 C 316.13 160.82 316.1 161.5 316.1 161.5 C 316.1 161.5 306.74 161.48 306.7 161.5 C 306.8 164.4 308.3 166.6 310.9 166.6 C 312.2 166.6 313.5 166 314.4 164.8 C 314.4 164.8 315.5 166.1 315.5 166.1 C 314.3 167.5 312.7 168.4 310.7 168.4 C 306.9 168.4 304.5 165.2 304.5 160.8 Z M 310.4 155 C 307.8 155 306.8 157.8 306.7 159.9 C 306.7 159.9 314 159.9 314 159.9 C 314 157.7 313 155 310.4 155 Z M 317.8 166.3 C 317.8 166.3 318.9 164.8 318.9 164.8 C 319.7 165.8 321.1 166.6 322.7 166.6 C 324.3 166.6 325.5 165.7 325.5 164.3 C 325.5 160.9 318.2 162.1 318.2 157.1 C 318.2 154.9 320 153.2 322.8 153.2 C 324.8 153.2 326.2 153.9 327.3 155 C 327.3 155 326.2 156.5 326.2 156.5 C 325.5 155.5 324.3 154.9 322.9 154.9 C 321.3 154.9 320.3 155.8 320.3 157 C 320.3 160.1 327.5 159 327.5 164.2 C 327.5 166.6 325.7 168.4 322.7 168.4 C 320.7 168.4 319 167.7 317.8 166.3 Z M 330.1 166.7 C 330.1 165.9 330.9 165.1 331.7 165.1 C 332.6 165.1 333.3 165.9 333.3 166.7 C 333.3 167.6 332.6 168.3 331.7 168.3 C 330.9 168.3 330.1 167.6 330.1 166.7 Z " stroke="none" fill="#efd8d3"/>  </g>  <g id="Polygon201055">    <path d="M 37.8 132 C 37.8 132 37.77 130.46 37.8 130.5 C 36.8 131.8 35.4 132.4 34 132.4 C 31.6 132.4 29.6 130.6 29.6 127.6 C 29.6 124.5 31.6 122.8 34 122.8 C 35.4 122.8 36.9 123.4 37.8 124.6 C 37.8 124.6 37.8 122.1 37.8 122.1 C 37.8 120.1 36.7 119 34.8 119 C 33.4 119 32.3 119.5 31.2 120.8 C 31.2 120.8 30.2 119.3 30.2 119.3 C 31.6 117.8 33.3 117.2 35.1 117.2 C 38 117.2 39.9 118.6 39.9 121.9 C 39.93 121.88 39.9 132 39.9 132 L 37.8 132 Z M 37.8 129 C 37.8 129 37.8 126.2 37.8 126.2 C 37.1 125 35.9 124.4 34.6 124.4 C 32.8 124.4 31.8 125.8 31.8 127.6 C 31.8 129.4 32.8 130.8 34.6 130.8 C 35.9 130.8 37.1 130.2 37.8 129 Z M 51.8 132 C 51.8 132 51.84 129.95 51.8 130 C 51 131.4 49.6 132.4 48 132.4 C 44.8 132.4 42.8 129.4 42.8 124.8 C 42.8 120.3 44.8 117.2 48 117.2 C 49.5 117.2 51 118 51.8 119.6 C 51.84 119.63 51.8 112 51.8 112 L 54 112 L 54 132 L 51.8 132 Z M 51.8 128.1 C 51.8 128.1 51.8 121.5 51.8 121.5 C 51.3 120.2 49.9 119.1 48.6 119.1 C 46.2 119.1 45.1 121.6 45.1 124.8 C 45.1 127.9 46.2 130.5 48.6 130.5 C 49.9 130.5 51.3 129.4 51.8 128.1 Z M 65.9 132 C 65.9 132 65.94 129.95 65.9 130 C 65.1 131.4 63.7 132.4 62.1 132.4 C 58.9 132.4 56.9 129.4 56.9 124.8 C 56.9 120.3 58.9 117.2 62.1 117.2 C 63.6 117.2 65.1 118 65.9 119.6 C 65.94 119.63 65.9 112 65.9 112 L 68.1 112 L 68.1 132 L 65.9 132 Z M 65.9 128.1 C 65.9 128.1 65.9 121.5 65.9 121.5 C 65.4 120.2 64 119.1 62.7 119.1 C 60.3 119.1 59.2 121.6 59.2 124.8 C 59.2 127.9 60.3 130.5 62.7 130.5 C 64 130.5 65.4 129.4 65.9 128.1 Z M 77.5 114 C 77.5 113.2 78.2 112.5 79 112.5 C 79.8 112.5 80.4 113.2 80.4 114 C 80.4 114.8 79.8 115.4 79 115.4 C 78.2 115.4 77.5 114.8 77.5 114 Z M 77.9 132 L 77.9 117.5 L 80 117.5 L 80 132 L 77.9 132 Z M 91.5 132 C 91.5 132 91.53 121.7 91.5 121.7 C 91.5 119.8 90.7 119.1 89.2 119.1 C 87.8 119.1 86.5 120.2 85.8 121.4 C 85.83 121.4 85.8 132 85.8 132 L 83.7 132 L 83.7 117.5 L 85.8 117.5 C 85.8 117.5 85.83 119.6 85.8 119.6 C 86.7 118.3 88.3 117.2 90 117.2 C 92.5 117.2 93.7 118.5 93.7 121.1 C 93.69 121.1 93.7 132 93.7 132 L 91.5 132 Z M 103.9 129.1 C 103.92 129.11 103.9 119.4 103.9 119.4 L 102 119.4 L 102 117.5 L 103.9 117.5 L 103.9 113.6 L 106.1 113.6 L 106.1 117.5 L 108.5 117.5 L 108.5 119.4 L 106.1 119.4 C 106.1 119.4 106.08 128.72 106.1 128.7 C 106.1 129.8 106.4 130.5 107.2 130.5 C 107.8 130.5 108.2 130.2 108.5 129.9 C 108.5 129.9 109.2 131.5 109.2 131.5 C 108.7 132 107.9 132.4 106.8 132.4 C 104.8 132.4 103.9 131.3 103.9 129.1 Z M 118.9 132 C 118.9 132 118.94 121.67 118.9 121.7 C 118.9 119.8 118 119.1 116.6 119.1 C 115.2 119.1 113.9 120.2 113.2 121.4 C 113.21 121.4 113.2 132 113.2 132 L 111.1 132 L 111.1 112 L 113.2 112 C 113.2 112 113.21 119.6 113.2 119.6 C 114.1 118.3 115.7 117.2 117.4 117.2 C 119.9 117.2 121.1 118.4 121.1 121 C 121.07 121.04 121.1 132 121.1 132 L 118.9 132 Z M 124 124.8 C 124 120.6 126.2 117.2 129.9 117.2 C 133.7 117.2 135.6 120.6 135.6 124.8 C 135.62 124.82 135.6 125.5 135.6 125.5 C 135.6 125.5 126.23 125.48 126.2 125.5 C 126.3 128.4 127.8 130.6 130.4 130.6 C 131.7 130.6 133 130 133.9 128.8 C 133.9 128.8 135 130.1 135 130.1 C 133.8 131.5 132.2 132.4 130.2 132.4 C 126.4 132.4 124 129.2 124 124.8 Z M 129.9 119 C 127.3 119 126.3 121.8 126.2 123.9 C 126.2 123.9 133.5 123.9 133.5 123.9 C 133.5 121.7 132.5 119 129.9 119 Z M 145 129.1 C 145.04 129.11 145 119.4 145 119.4 L 143.1 119.4 L 143.1 117.5 L 145 117.5 L 145 113.6 L 147.2 113.6 L 147.2 117.5 L 149.7 117.5 L 149.7 119.4 L 147.2 119.4 C 147.2 119.4 147.2 128.72 147.2 128.7 C 147.2 129.8 147.5 130.5 148.4 130.5 C 148.9 130.5 149.4 130.2 149.6 129.9 C 149.6 129.9 150.3 131.5 150.3 131.5 C 149.8 132 149.1 132.4 148 132.4 C 146 132.4 145 131.3 145 129.1 Z M 151.5 124.8 C 151.5 120.6 153.7 117.2 157.4 117.2 C 161.2 117.2 163.1 120.6 163.1 124.8 C 163.1 124.82 163.1 125.5 163.1 125.5 C 163.1 125.5 153.71 125.48 153.7 125.5 C 153.8 128.4 155.3 130.6 157.9 130.6 C 159.1 130.6 160.4 130 161.3 128.8 C 161.3 128.8 162.5 130.1 162.5 130.1 C 161.3 131.5 159.7 132.4 157.7 132.4 C 153.8 132.4 151.5 129.2 151.5 124.8 Z M 157.3 119 C 154.8 119 153.8 121.8 153.7 123.9 C 153.7 123.9 161 123.9 161 123.9 C 160.9 121.7 160 119 157.3 119 Z M 166.4 129.1 C 166.37 129.11 166.4 119.4 166.4 119.4 L 164.5 119.4 L 164.5 117.5 L 166.4 117.5 L 166.4 113.6 L 168.5 113.6 L 168.5 117.5 L 171 117.5 L 171 119.4 L 168.5 119.4 C 168.5 119.4 168.53 128.72 168.5 128.7 C 168.5 129.8 168.9 130.5 169.7 130.5 C 170.2 130.5 170.7 130.2 171 129.9 C 171 129.9 171.6 131.5 171.6 131.5 C 171.1 132 170.4 132.4 169.3 132.4 C 167.3 132.4 166.4 131.3 166.4 129.1 Z M 173.5 132 L 173.5 117.5 L 175.7 117.5 C 175.7 117.5 175.67 119.84 175.7 119.8 C 176.6 118.3 178 117.2 179.8 117.2 C 179.8 117.2 179.8 119.5 179.8 119.5 C 179.5 119.4 179.3 119.4 179.1 119.4 C 177.7 119.4 176.3 120.5 175.7 121.7 C 175.67 121.73 175.7 132 175.7 132 L 173.5 132 Z M 189.4 132 C 189.4 132 189.41 130.46 189.4 130.5 C 188.5 131.8 187.1 132.4 185.6 132.4 C 183.3 132.4 181.2 130.6 181.2 127.6 C 181.2 124.5 183.2 122.8 185.6 122.8 C 187.1 122.8 188.5 123.4 189.4 124.6 C 189.4 124.6 189.4 122.1 189.4 122.1 C 189.4 120.1 188.3 119 186.4 119 C 185.1 119 183.9 119.5 182.8 120.8 C 182.8 120.8 181.9 119.3 181.9 119.3 C 183.2 117.8 184.9 117.2 186.8 117.2 C 189.7 117.2 191.6 118.6 191.6 121.9 C 191.57 121.88 191.6 132 191.6 132 L 189.4 132 Z M 189.4 129 C 189.4 129 189.4 126.2 189.4 126.2 C 188.8 125 187.6 124.4 186.3 124.4 C 184.5 124.4 183.4 125.8 183.4 127.6 C 183.4 129.4 184.5 130.8 186.3 130.8 C 187.6 130.8 188.8 130.2 189.4 129 Z M 202.6 132 L 199.3 126.2 L 196 132 L 193.6 132 L 198 124.6 L 193.8 117.5 L 196.2 117.5 L 199.3 123.1 L 202.4 117.5 L 204.8 117.5 L 200.6 124.6 L 205 132 L 202.6 132 Z M 214.5 132 C 214.5 132 214.52 130.46 214.5 130.5 C 213.6 131.8 212.2 132.4 210.7 132.4 C 208.4 132.4 206.3 130.6 206.3 127.6 C 206.3 124.5 208.3 122.8 210.7 122.8 C 212.2 122.8 213.6 123.4 214.5 124.6 C 214.5 124.6 214.5 122.1 214.5 122.1 C 214.5 120.1 213.4 119 211.6 119 C 210.2 119 209 119.5 207.9 120.8 C 207.9 120.8 207 119.3 207 119.3 C 208.3 117.8 210.1 117.2 211.9 117.2 C 214.8 117.2 216.7 118.6 216.7 121.9 C 216.68 121.88 216.7 132 216.7 132 L 214.5 132 Z M 214.5 129 C 214.5 129 214.5 126.2 214.5 126.2 C 213.9 125 212.7 124.4 211.4 124.4 C 209.6 124.4 208.5 125.8 208.5 127.6 C 208.5 129.4 209.6 130.8 211.4 130.8 C 212.7 130.8 213.9 130.2 214.5 129 Z M 228.1 132 C 228.1 132 228.14 121.7 228.1 121.7 C 228.1 119.8 227.3 119.1 225.8 119.1 C 224.4 119.1 223.1 120.2 222.4 121.4 C 222.44 121.4 222.4 132 222.4 132 L 220.3 132 L 220.3 117.5 L 222.4 117.5 C 222.4 117.5 222.44 119.6 222.4 119.6 C 223.3 118.3 224.9 117.2 226.6 117.2 C 229.1 117.2 230.3 118.5 230.3 121.1 C 230.3 121.1 230.3 132 230.3 132 L 228.1 132 Z M 234.4 129.1 C 234.38 129.11 234.4 119.4 234.4 119.4 L 232.5 119.4 L 232.5 117.5 L 234.4 117.5 L 234.4 113.6 L 236.5 113.6 L 236.5 117.5 L 239 117.5 L 239 119.4 L 236.5 119.4 C 236.5 119.4 236.54 128.72 236.5 128.7 C 236.5 129.8 236.9 130.5 237.7 130.5 C 238.3 130.5 238.7 130.2 239 129.9 C 239 129.9 239.6 131.5 239.6 131.5 C 239.1 132 238.4 132.4 237.3 132.4 C 235.3 132.4 234.4 131.3 234.4 129.1 Z M 249.4 132 C 249.4 132 249.41 121.67 249.4 121.7 C 249.4 119.8 248.5 119.1 247.1 119.1 C 245.7 119.1 244.3 120.2 243.7 121.4 C 243.68 121.4 243.7 132 243.7 132 L 241.6 132 L 241.6 112 L 243.7 112 C 243.7 112 243.68 119.6 243.7 119.6 C 244.5 118.3 246.2 117.2 247.9 117.2 C 250.4 117.2 251.5 118.4 251.5 121 C 251.54 121.04 251.5 132 251.5 132 L 249.4 132 Z M 262.6 132 C 262.6 132 262.64 130.46 262.6 130.5 C 261.7 131.8 260.3 132.4 258.8 132.4 C 256.5 132.4 254.5 130.6 254.5 127.6 C 254.5 124.5 256.5 122.8 258.8 122.8 C 260.3 122.8 261.7 123.4 262.6 124.6 C 262.6 124.6 262.6 122.1 262.6 122.1 C 262.6 120.1 261.6 119 259.7 119 C 258.3 119 257.2 119.5 256 120.8 C 256 120.8 255.1 119.3 255.1 119.3 C 256.5 117.8 258.2 117.2 260 117.2 C 262.9 117.2 264.8 118.6 264.8 121.9 C 264.8 121.88 264.8 132 264.8 132 L 262.6 132 Z M 262.6 129 C 262.6 129 262.6 126.2 262.6 126.2 C 262 125 260.8 124.4 259.5 124.4 C 257.7 124.4 256.6 125.8 256.6 127.6 C 256.6 129.4 257.7 130.8 259.5 130.8 C 260.8 130.8 262 130.2 262.6 129 Z M 276.3 132 C 276.3 132 276.26 121.7 276.3 121.7 C 276.3 119.8 275.4 119.1 274 119.1 C 272.5 119.1 271.2 120.2 270.6 121.4 C 270.56 121.4 270.6 132 270.6 132 L 268.4 132 L 268.4 117.5 L 270.6 117.5 C 270.6 117.5 270.56 119.6 270.6 119.6 C 271.4 118.3 273 117.2 274.8 117.2 C 277.2 117.2 278.4 118.5 278.4 121.1 C 278.42 121.1 278.4 132 278.4 132 L 276.3 132 Z M 281.4 124.8 C 281.4 120.6 283.6 117.2 287.2 117.2 C 291.1 117.2 293 120.6 293 124.8 C 292.97 124.82 293 125.5 293 125.5 C 293 125.5 283.58 125.48 283.6 125.5 C 283.7 128.4 285.2 130.6 287.8 130.6 C 289 130.6 290.3 130 291.2 128.8 C 291.2 128.8 292.3 130.1 292.3 130.1 C 291.2 131.5 289.5 132.4 287.6 132.4 C 283.7 132.4 281.4 129.2 281.4 124.8 Z M 287.2 119 C 284.7 119 283.6 121.8 283.6 123.9 C 283.6 123.9 290.8 123.9 290.8 123.9 C 290.8 121.7 289.9 119 287.2 119 Z M 309.4 132 C 309.4 132 309.41 130.46 309.4 130.5 C 308.5 131.8 307.1 132.4 305.6 132.4 C 303.3 132.4 301.2 130.6 301.2 127.6 C 301.2 124.5 303.2 122.8 305.6 122.8 C 307.1 122.8 308.5 123.4 309.4 124.6 C 309.4 124.6 309.4 122.1 309.4 122.1 C 309.4 120.1 308.3 119 306.4 119 C 305.1 119 303.9 119.5 302.8 120.8 C 302.8 120.8 301.8 119.3 301.8 119.3 C 303.2 117.8 304.9 117.2 306.8 117.2 C 309.6 117.2 311.6 118.6 311.6 121.9 C 311.57 121.88 311.6 132 311.6 132 L 309.4 132 Z M 309.4 129 C 309.4 129 309.4 126.2 309.4 126.2 C 308.7 125 307.5 124.4 306.3 124.4 C 304.5 124.4 303.4 125.8 303.4 127.6 C 303.4 129.4 304.5 130.8 306.3 130.8 C 307.5 130.8 308.7 130.2 309.4 129 Z M 323 132 C 323 132 323.03 121.7 323 121.7 C 323 119.8 322.2 119.1 320.7 119.1 C 319.3 119.1 318 120.2 317.3 121.4 C 317.33 121.4 317.3 132 317.3 132 L 315.2 132 L 315.2 117.5 L 317.3 117.5 C 317.3 117.5 317.33 119.6 317.3 119.6 C 318.2 118.3 319.8 117.2 321.5 117.2 C 324 117.2 325.2 118.5 325.2 121.1 C 325.19 121.1 325.2 132 325.2 132 L 323 132 Z M 337.1 132 C 337.1 132 337.13 129.95 337.1 130 C 336.3 131.4 334.8 132.4 333.3 132.4 C 330.1 132.4 328.1 129.4 328.1 124.8 C 328.1 120.3 330 117.2 333.3 117.2 C 334.8 117.2 336.3 118 337.1 119.6 C 337.13 119.63 337.1 112 337.1 112 L 339.3 112 L 339.3 132 L 337.1 132 Z M 337.1 128.1 C 337.1 128.1 337.1 121.5 337.1 121.5 C 336.6 120.2 335.2 119.1 333.9 119.1 C 331.5 119.1 330.4 121.6 330.4 124.8 C 330.4 127.9 331.5 130.5 333.9 130.5 C 335.2 130.5 336.6 129.4 337.1 128.1 Z M 349.5 129.1 C 349.52 129.11 349.5 119.4 349.5 119.4 L 347.6 119.4 L 347.6 117.5 L 349.5 117.5 L 349.5 113.6 L 351.7 113.6 L 351.7 117.5 L 354.1 117.5 L 354.1 119.4 L 351.7 119.4 C 351.7 119.4 351.68 128.72 351.7 128.7 C 351.7 129.8 352 130.5 352.8 130.5 C 353.4 130.5 353.8 130.2 354.1 129.9 C 354.1 129.9 354.8 131.5 354.8 131.5 C 354.3 132 353.5 132.4 352.4 132.4 C 350.4 132.4 349.5 131.3 349.5 129.1 Z M 356.7 132 L 356.7 117.5 L 358.8 117.5 C 358.8 117.5 358.82 119.84 358.8 119.8 C 359.7 118.3 361.2 117.2 362.9 117.2 C 362.9 117.2 362.9 119.5 362.9 119.5 C 362.7 119.4 362.4 119.4 362.2 119.4 C 360.9 119.4 359.4 120.5 358.8 121.7 C 358.82 121.73 358.8 132 358.8 132 L 356.7 132 Z M 364.7 114 C 364.7 113.2 365.4 112.5 366.2 112.5 C 367 112.5 367.6 113.2 367.6 114 C 367.6 114.8 367 115.4 366.2 115.4 C 365.4 115.4 364.7 114.8 364.7 114 Z M 365.1 132 L 365.1 117.5 L 367.2 117.5 L 367.2 132 L 365.1 132 Z M 385.5 132 C 385.5 132 385.55 121.52 385.5 121.5 C 385.5 120 384.9 119.1 383.5 119.1 C 382.2 119.1 381 120.2 380.4 121.4 C 380.39 121.4 380.4 132 380.4 132 L 378.2 132 C 378.2 132 378.23 121.52 378.2 121.5 C 378.2 120 377.6 119.1 376.2 119.1 C 374.9 119.1 373.7 120.2 373 121.4 C 373.04 121.4 373 132 373 132 L 370.9 132 L 370.9 117.5 L 373 117.5 C 373 117.5 373.04 119.6 373 119.6 C 373.6 118.5 375.3 117.2 377 117.2 C 378.9 117.2 380 118.2 380.3 119.8 C 381 118.4 382.6 117.2 384.3 117.2 C 386.5 117.2 387.7 118.3 387.7 121 C 387.71 120.95 387.7 132 387.7 132 L 385.5 132 Z M 390.6 124.8 C 390.6 120.6 392.9 117.2 396.5 117.2 C 400.3 117.2 402.3 120.6 402.3 124.8 C 402.26 124.82 402.3 125.5 402.3 125.5 C 402.3 125.5 392.87 125.48 392.9 125.5 C 393 128.4 394.5 130.6 397 130.6 C 398.3 130.6 399.6 130 400.5 128.8 C 400.5 128.8 401.6 130.1 401.6 130.1 C 400.5 131.5 398.8 132.4 396.9 132.4 C 393 132.4 390.6 129.2 390.6 124.8 Z M 396.5 119 C 393.9 119 392.9 121.8 392.9 123.9 C 392.9 123.9 400.1 123.9 400.1 123.9 C 400.1 121.7 399.1 119 396.5 119 Z M 405.5 129.1 C 405.53 129.11 405.5 119.4 405.5 119.4 L 403.6 119.4 L 403.6 117.5 L 405.5 117.5 L 405.5 113.6 L 407.7 113.6 L 407.7 117.5 L 410.1 117.5 L 410.1 119.4 L 407.7 119.4 C 407.7 119.4 407.69 128.72 407.7 128.7 C 407.7 129.8 408 130.5 408.9 130.5 C 409.4 130.5 409.8 130.2 410.1 129.9 C 410.1 129.9 410.8 131.5 410.8 131.5 C 410.3 132 409.5 132.4 408.4 132.4 C 406.5 132.4 405.5 131.3 405.5 129.1 Z M 420.6 132 C 420.6 132 420.56 121.67 420.6 121.7 C 420.6 119.8 419.7 119.1 418.2 119.1 C 416.8 119.1 415.5 120.2 414.8 121.4 C 414.83 121.4 414.8 132 414.8 132 L 412.7 132 L 412.7 112 L 414.8 112 C 414.8 112 414.83 119.6 414.8 119.6 C 415.7 118.3 417.3 117.2 419.1 117.2 C 421.5 117.2 422.7 118.4 422.7 121 C 422.69 121.04 422.7 132 422.7 132 L 420.6 132 Z M 425.9 135.8 C 426.2 135.9 426.6 136 426.9 136 C 427.7 136 428.2 135.7 428.6 134.5 C 428.6 134.54 429.4 132.3 429.4 132.3 L 424.5 117.5 L 426.9 117.5 L 430.5 129.4 L 434.1 117.5 L 436.4 117.5 C 436.4 117.5 430.64 135.08 430.6 135.1 C 429.9 137.2 428.7 137.9 427 137.9 C 426.6 137.9 425.9 137.8 425.6 137.7 C 425.6 137.7 425.9 135.8 425.9 135.8 Z M 438.3 132 L 438.3 112 L 440.4 112 L 440.4 132 L 438.3 132 Z M 451.5 132 C 451.5 132 451.52 130.46 451.5 130.5 C 450.6 131.8 449.2 132.4 447.7 132.4 C 445.4 132.4 443.3 130.6 443.3 127.6 C 443.3 124.5 445.3 122.8 447.7 122.8 C 449.2 122.8 450.6 123.4 451.5 124.6 C 451.5 124.6 451.5 122.1 451.5 122.1 C 451.5 120.1 450.4 119 448.5 119 C 447.2 119 446 119.5 444.9 120.8 C 444.9 120.8 444 119.3 444 119.3 C 445.3 117.8 447 117.2 448.9 117.2 C 451.8 117.2 453.7 118.6 453.7 121.9 C 453.68 121.88 453.7 132 453.7 132 L 451.5 132 Z M 451.5 129 C 451.5 129 451.5 126.2 451.5 126.2 C 450.9 125 449.7 124.4 448.4 124.4 C 446.6 124.4 445.5 125.8 445.5 127.6 C 445.5 129.4 446.6 130.8 448.4 130.8 C 449.7 130.8 450.9 130.2 451.5 129 Z M 471.9 132 C 471.9 132 471.95 121.52 471.9 121.5 C 471.9 120 471.3 119.1 469.9 119.1 C 468.6 119.1 467.4 120.2 466.8 121.4 C 466.79 121.4 466.8 132 466.8 132 L 464.6 132 C 464.6 132 464.63 121.52 464.6 121.5 C 464.6 120 464 119.1 462.6 119.1 C 461.3 119.1 460.1 120.2 459.4 121.4 C 459.44 121.4 459.4 132 459.4 132 L 457.3 132 L 457.3 117.5 L 459.4 117.5 C 459.4 117.5 459.44 119.6 459.4 119.6 C 460 118.5 461.7 117.2 463.4 117.2 C 465.3 117.2 466.4 118.2 466.7 119.8 C 467.4 118.4 469 117.2 470.7 117.2 C 472.9 117.2 474.1 118.3 474.1 121 C 474.11 120.95 474.1 132 474.1 132 L 471.9 132 Z M 477.3 114 C 477.3 113.2 478 112.5 478.8 112.5 C 479.6 112.5 480.3 113.2 480.3 114 C 480.3 114.8 479.6 115.4 478.8 115.4 C 478 115.4 477.3 114.8 477.3 114 Z M 477.8 132 L 477.8 117.5 L 479.9 117.5 L 479.9 132 L 477.8 132 Z M 491.4 132 C 491.4 132 491.38 121.7 491.4 121.7 C 491.4 119.8 490.5 119.1 489.1 119.1 C 487.7 119.1 486.3 120.2 485.7 121.4 C 485.68 121.4 485.7 132 485.7 132 L 483.6 132 L 483.6 117.5 L 485.7 117.5 C 485.7 117.5 485.68 119.6 485.7 119.6 C 486.5 118.3 488.1 117.2 489.9 117.2 C 492.3 117.2 493.5 118.5 493.5 121.1 C 493.54 121.1 493.5 132 493.5 132 L 491.4 132 Z M 496.5 124.8 C 496.5 120.6 498.7 117.2 502.4 117.2 C 506.2 117.2 508.1 120.6 508.1 124.8 C 508.09 124.82 508.1 125.5 508.1 125.5 C 508.1 125.5 498.7 125.48 498.7 125.5 C 498.8 128.4 500.3 130.6 502.9 130.6 C 504.1 130.6 505.4 130 506.3 128.8 C 506.3 128.8 507.5 130.1 507.5 130.1 C 506.3 131.5 504.6 132.4 502.7 132.4 C 498.8 132.4 496.5 129.2 496.5 124.8 Z M 502.3 119 C 499.8 119 498.8 121.8 498.7 123.9 C 498.7 123.9 506 123.9 506 123.9 C 505.9 121.7 505 119 502.3 119 Z M 516.4 124.8 C 516.4 120.7 518.4 117.2 522.3 117.2 C 526.2 117.2 528.2 120.7 528.2 124.8 C 528.2 128.8 526.2 132.4 522.3 132.4 C 518.4 132.4 516.4 128.8 516.4 124.8 Z M 525.9 124.8 C 525.9 121.9 524.8 119.1 522.3 119.1 C 519.8 119.1 518.6 121.9 518.6 124.8 C 518.6 127.7 519.8 130.5 522.3 130.5 C 524.8 130.5 525.9 127.7 525.9 124.8 Z M 537.8 132 L 534.5 126.2 L 531.1 132 L 528.7 132 L 533.1 124.6 L 529 117.5 L 531.4 117.5 L 534.5 123.1 L 537.6 117.5 L 540 117.5 L 535.8 124.6 L 540.2 132 L 537.8 132 Z M 541.8 114 C 541.8 113.2 542.5 112.5 543.3 112.5 C 544.1 112.5 544.8 113.2 544.8 114 C 544.8 114.8 544.1 115.4 543.3 115.4 C 542.5 115.4 541.8 114.8 541.8 114 Z M 542.2 132 L 542.2 117.5 L 544.4 117.5 L 544.4 132 L 542.2 132 Z M 556.3 132 C 556.3 132 556.3 129.95 556.3 130 C 555.5 131.4 554 132.4 552.5 132.4 C 549.3 132.4 547.3 129.4 547.3 124.8 C 547.3 120.3 549.2 117.2 552.5 117.2 C 554 117.2 555.4 118 556.3 119.6 C 556.3 119.63 556.3 112 556.3 112 L 558.5 112 L 558.5 132 L 556.3 132 Z M 556.3 128.1 C 556.3 128.1 556.3 121.5 556.3 121.5 C 555.8 120.2 554.4 119.1 553 119.1 C 550.7 119.1 549.6 121.6 549.6 124.8 C 549.6 127.9 550.7 130.5 553 130.5 C 554.4 130.5 555.8 129.4 556.3 128.1 Z M 561.4 124.8 C 561.4 120.6 563.6 117.2 567.3 117.2 C 571.1 117.2 573 120.6 573 124.8 C 573.01 124.82 573 125.5 573 125.5 C 573 125.5 563.62 125.48 563.6 125.5 C 563.7 128.4 565.2 130.6 567.8 130.6 C 569.1 130.6 570.3 130 571.2 128.8 C 571.2 128.8 572.4 130.1 572.4 130.1 C 571.2 131.5 569.6 132.4 567.6 132.4 C 563.7 132.4 561.4 129.2 561.4 124.8 Z M 567.3 119 C 564.7 119 563.7 121.8 563.6 123.9 C 563.6 123.9 570.9 123.9 570.9 123.9 C 570.9 121.7 569.9 119 567.3 119 Z M 575.6 130.7 C 575.6 129.9 576.3 129.1 577.2 129.1 C 578.1 129.1 578.8 129.9 578.8 130.7 C 578.8 131.6 578.1 132.3 577.2 132.3 C 576.3 132.3 575.6 131.6 575.6 130.7 Z " stroke="none" fill="#efd8d3"/>  </g>  <g id="Polygon201054">    <path d="M 1.6 96 C 1.6 96 1.59 94.07 1.6 94.1 C 8.1 86.5 10.4 84.1 10.4 81.2 C 10.4 79 8.9 77.8 7.2 77.8 C 5.3 77.8 3.9 78.8 2.9 80.4 C 2.9 80.4 1.4 78.9 1.4 78.9 C 2.7 76.9 4.7 75.7 7.2 75.7 C 10.3 75.7 12.8 77.7 12.8 81.2 C 12.8 84.5 10.3 87.5 5 93.9 C 4.98 93.89 12.9 93.9 12.9 93.9 L 12.9 96 L 1.6 96 Z M 16.2 94.7 C 16.2 93.9 16.9 93.1 17.8 93.1 C 18.7 93.1 19.4 93.9 19.4 94.7 C 19.4 95.6 18.7 96.3 17.8 96.3 C 16.9 96.3 16.2 95.6 16.2 94.7 Z M 44.4 96 L 44.4 80.3 L 39.1 96 L 38.1 96 L 32.8 80.3 L 32.8 96 L 30.4 96 L 30.4 76 L 33.8 76 L 38.6 90.2 L 43.5 76 L 46.7 76 L 46.7 96 L 44.4 96 Z M 50.1 78 C 50.1 77.2 50.8 76.5 51.6 76.5 C 52.4 76.5 53 77.2 53 78 C 53 78.8 52.4 79.4 51.6 79.4 C 50.8 79.4 50.1 78.8 50.1 78 Z M 50.5 96 L 50.5 81.5 L 52.6 81.5 L 52.6 96 L 50.5 96 Z M 63.7 96 L 60.4 90.2 L 57.1 96 L 54.7 96 L 59.1 88.6 L 54.9 81.5 L 57.3 81.5 L 60.4 87.1 L 63.5 81.5 L 65.9 81.5 L 61.7 88.6 L 66.1 96 L 63.7 96 Z M 74.8 93.1 C 74.76 93.11 74.8 83.4 74.8 83.4 L 72.8 83.4 L 72.8 81.5 L 74.8 81.5 L 74.8 77.6 L 76.9 77.6 L 76.9 81.5 L 79.4 81.5 L 79.4 83.4 L 76.9 83.4 C 76.9 83.4 76.92 92.72 76.9 92.7 C 76.9 93.8 77.2 94.5 78.1 94.5 C 78.6 94.5 79.1 94.2 79.3 93.9 C 79.3 93.9 80 95.5 80 95.5 C 79.5 96 78.8 96.4 77.7 96.4 C 75.7 96.4 74.8 95.3 74.8 93.1 Z M 81.2 88.8 C 81.2 84.7 83.2 81.2 87.1 81.2 C 91 81.2 93 84.7 93 88.8 C 93 92.8 91 96.4 87.1 96.4 C 83.2 96.4 81.2 92.8 81.2 88.8 Z M 90.7 88.8 C 90.7 85.9 89.6 83.1 87.1 83.1 C 84.6 83.1 83.5 85.9 83.5 88.8 C 83.5 91.7 84.6 94.5 87.1 94.5 C 89.6 94.5 90.7 91.7 90.7 88.8 Z M 95.8 100.1 C 95.8 100.1 96.8 98.4 96.8 98.4 C 97.8 99.5 99 100.1 100.6 100.1 C 102.6 100.1 104.2 98.9 104.2 96.1 C 104.2 96.1 104.2 93.7 104.2 93.7 C 103.4 95.2 101.9 96.2 100.4 96.2 C 97.2 96.2 95.2 93.3 95.2 88.7 C 95.2 84.2 97.1 81.2 100.4 81.2 C 101.9 81.2 103.3 82 104.2 83.6 C 104.21 83.63 104.2 81.5 104.2 81.5 L 106.4 81.5 C 106.4 81.5 106.37 95.99 106.4 96 C 106.4 100.5 103.7 101.9 100.6 101.9 C 98.7 101.9 97.2 101.5 95.8 100.1 Z M 104.2 91.9 C 104.2 91.9 104.2 85.5 104.2 85.5 C 103.7 84.2 102.3 83.1 100.9 83.1 C 98.6 83.1 97.5 85.6 97.5 88.7 C 97.5 91.8 98.6 94.3 100.9 94.3 C 102.3 94.3 103.7 93.1 104.2 91.9 Z M 109.3 88.8 C 109.3 84.6 111.5 81.2 115.2 81.2 C 119 81.2 120.9 84.6 120.9 88.8 C 120.89 88.82 120.9 89.5 120.9 89.5 C 120.9 89.5 111.5 89.48 111.5 89.5 C 111.6 92.4 113.1 94.6 115.7 94.6 C 116.9 94.6 118.2 94 119.1 92.8 C 119.1 92.8 120.3 94.1 120.3 94.1 C 119.1 95.5 117.4 96.4 115.5 96.4 C 111.6 96.4 109.3 93.2 109.3 88.8 Z M 115.1 83 C 112.6 83 111.6 85.8 111.5 87.9 C 111.5 87.9 118.8 87.9 118.8 87.9 C 118.7 85.7 117.8 83 115.1 83 Z M 124.2 93.1 C 124.16 93.11 124.2 83.4 124.2 83.4 L 122.2 83.4 L 122.2 81.5 L 124.2 81.5 L 124.2 77.6 L 126.3 77.6 L 126.3 81.5 L 128.8 81.5 L 128.8 83.4 L 126.3 83.4 C 126.3 83.4 126.32 92.72 126.3 92.7 C 126.3 93.8 126.7 94.5 127.5 94.5 C 128 94.5 128.5 94.2 128.8 93.9 C 128.8 93.9 129.4 95.5 129.4 95.5 C 128.9 96 128.2 96.4 127.1 96.4 C 125.1 96.4 124.2 95.3 124.2 93.1 Z M 139.2 96 C 139.2 96 139.19 85.67 139.2 85.7 C 139.2 83.8 138.3 83.1 136.9 83.1 C 135.4 83.1 134.1 84.2 133.5 85.4 C 133.46 85.4 133.5 96 133.5 96 L 131.3 96 L 131.3 76 L 133.5 76 C 133.5 76 133.46 83.6 133.5 83.6 C 134.3 82.3 136 81.2 137.7 81.2 C 140.2 81.2 141.3 82.4 141.3 85 C 141.32 85.04 141.3 96 141.3 96 L 139.2 96 Z M 144.3 88.8 C 144.3 84.6 146.5 81.2 150.1 81.2 C 154 81.2 155.9 84.6 155.9 88.8 C 155.87 88.82 155.9 89.5 155.9 89.5 C 155.9 89.5 146.48 89.48 146.5 89.5 C 146.6 92.4 148.1 94.6 150.7 94.6 C 151.9 94.6 153.2 94 154.1 92.8 C 154.1 92.8 155.2 94.1 155.2 94.1 C 154.1 95.5 152.4 96.4 150.5 96.4 C 146.6 96.4 144.3 93.2 144.3 88.8 Z M 150.1 83 C 147.6 83 146.5 85.8 146.5 87.9 C 146.5 87.9 153.7 87.9 153.7 87.9 C 153.7 85.7 152.8 83 150.1 83 Z M 158.7 96 L 158.7 81.5 L 160.9 81.5 C 160.9 81.5 160.85 83.84 160.9 83.8 C 161.8 82.3 163.2 81.2 165 81.2 C 165 81.2 165 83.5 165 83.5 C 164.7 83.4 164.5 83.4 164.2 83.4 C 162.9 83.4 161.5 84.5 160.9 85.7 C 160.85 85.73 160.9 96 160.9 96 L 158.7 96 Z M 177.6 96 L 177.6 87.6 L 171.4 76 L 174.1 76 L 178.8 85.3 L 183.5 76 L 186.2 76 L 180 87.6 L 180 96 L 177.6 96 Z M 184.5 88.8 C 184.5 84.6 186.7 81.2 190.4 81.2 C 194.2 81.2 196.1 84.6 196.1 88.8 C 196.1 88.82 196.1 89.5 196.1 89.5 C 196.1 89.5 186.71 89.48 186.7 89.5 C 186.8 92.4 188.3 94.6 190.9 94.6 C 192.1 94.6 193.4 94 194.3 92.8 C 194.3 92.8 195.5 94.1 195.5 94.1 C 194.3 95.5 192.7 96.4 190.7 96.4 C 186.8 96.4 184.5 93.2 184.5 88.8 Z M 190.3 83 C 187.8 83 186.8 85.8 186.7 87.9 C 186.7 87.9 194 87.9 194 87.9 C 193.9 85.7 193 83 190.3 83 Z M 199 96 L 199 76 L 201.1 76 L 201.1 96 L 199 96 Z M 204.7 96 L 204.7 76 L 206.9 76 L 206.9 96 L 204.7 96 Z M 209.8 88.8 C 209.8 84.7 211.9 81.2 215.7 81.2 C 219.6 81.2 221.6 84.7 221.6 88.8 C 221.6 92.8 219.6 96.4 215.7 96.4 C 211.9 96.4 209.8 92.8 209.8 88.8 Z M 219.4 88.8 C 219.4 85.9 218.2 83.1 215.7 83.1 C 213.2 83.1 212.1 85.9 212.1 88.8 C 212.1 91.7 213.2 94.5 215.7 94.5 C 218.2 94.5 219.4 91.7 219.4 88.8 Z M 235.2 96 L 232.1 84.4 L 229 96 L 226.8 96 L 223 81.5 L 225.2 81.5 L 228 93.1 L 231.1 81.5 L 233.1 81.5 L 236.2 93.1 L 239.1 81.5 L 241.3 81.5 L 237.4 96 L 235.2 96 Z M 249.1 93.1 C 249.1 93.1 250.7 91.7 250.7 91.7 C 251.7 93.3 253 94.3 254.9 94.3 C 257.1 94.3 258.5 92.2 258.5 89.9 C 258.5 87.1 257.2 85.5 255.1 85.5 C 253.7 85.5 252.6 86 251.5 87.4 C 251.45 87.35 249.7 86.8 249.7 86.8 L 249.7 76 L 259.9 76 L 259.9 78.1 L 252.1 78.1 C 252.1 78.1 252.05 85.13 252.1 85.1 C 252.8 84.2 254.2 83.4 255.7 83.4 C 258.6 83.4 260.9 85.7 260.9 89.8 C 260.9 93.6 258.5 96.4 255 96.4 C 252.1 96.4 250.3 95.1 249.1 93.1 Z M 277.6 96 C 277.6 96 277.55 94.46 277.6 94.5 C 276.6 95.8 275.2 96.4 273.7 96.4 C 271.4 96.4 269.4 94.6 269.4 91.6 C 269.4 88.5 271.4 86.8 273.7 86.8 C 275.2 86.8 276.7 87.4 277.6 88.6 C 277.6 88.6 277.6 86.1 277.6 86.1 C 277.6 84.1 276.5 83 274.6 83 C 273.2 83 272.1 83.5 271 84.8 C 271 84.8 270 83.3 270 83.3 C 271.4 81.8 273.1 81.2 274.9 81.2 C 277.8 81.2 279.7 82.6 279.7 85.9 C 279.71 85.88 279.7 96 279.7 96 L 277.6 96 Z M 277.6 93 C 277.6 93 277.6 90.2 277.6 90.2 C 276.9 89 275.7 88.4 274.4 88.4 C 272.6 88.4 271.6 89.8 271.6 91.6 C 271.6 93.4 272.6 94.8 274.4 94.8 C 275.7 94.8 276.9 94.2 277.6 93 Z M 291.2 96 C 291.2 96 291.17 85.7 291.2 85.7 C 291.2 83.8 290.3 83.1 288.9 83.1 C 287.5 83.1 286.1 84.2 285.5 85.4 C 285.47 85.4 285.5 96 285.5 96 L 283.3 96 L 283.3 81.5 L 285.5 81.5 C 285.5 81.5 285.47 83.6 285.5 83.6 C 286.3 82.3 287.9 81.2 289.7 81.2 C 292.1 81.2 293.3 82.5 293.3 85.1 C 293.33 85.1 293.3 96 293.3 96 L 291.2 96 Z M 305.3 96 C 305.3 96 305.27 93.95 305.3 94 C 304.4 95.4 303 96.4 301.5 96.4 C 298.2 96.4 296.3 93.4 296.3 88.8 C 296.3 84.3 298.2 81.2 301.5 81.2 C 302.9 81.2 304.4 82 305.3 83.6 C 305.27 83.63 305.3 76 305.3 76 L 307.4 76 L 307.4 96 L 305.3 96 Z M 305.3 92.1 C 305.3 92.1 305.3 85.5 305.3 85.5 C 304.7 84.2 303.4 83.1 302 83.1 C 299.6 83.1 298.5 85.6 298.5 88.8 C 298.5 91.9 299.6 94.5 302 94.5 C 303.4 94.5 304.7 93.4 305.3 92.1 Z M 321.6 96 L 321.6 87.6 L 315.4 76 L 318 76 L 322.8 85.3 L 327.5 76 L 330.1 76 L 323.9 87.6 L 323.9 96 L 321.6 96 Z M 328.4 88.8 C 328.4 84.6 330.6 81.2 334.3 81.2 C 338.1 81.2 340 84.6 340 88.8 C 340.04 88.82 340 89.5 340 89.5 C 340 89.5 330.65 89.48 330.6 89.5 C 330.7 92.4 332.2 94.6 334.8 94.6 C 336.1 94.6 337.4 94 338.3 92.8 C 338.3 92.8 339.4 94.1 339.4 94.1 C 338.2 95.5 336.6 96.4 334.6 96.4 C 330.8 96.4 328.4 93.2 328.4 88.8 Z M 334.3 83 C 331.7 83 330.7 85.8 330.6 87.9 C 330.6 87.9 337.9 87.9 337.9 87.9 C 337.9 85.7 336.9 83 334.3 83 Z M 342.9 96 L 342.9 76 L 345 76 L 345 96 L 342.9 96 Z M 348.7 96 L 348.7 76 L 350.8 76 L 350.8 96 L 348.7 96 Z M 353.7 88.8 C 353.7 84.7 355.8 81.2 359.6 81.2 C 363.5 81.2 365.5 84.7 365.5 88.8 C 365.5 92.8 363.5 96.4 359.6 96.4 C 355.8 96.4 353.7 92.8 353.7 88.8 Z M 363.3 88.8 C 363.3 85.9 362.2 83.1 359.6 83.1 C 357.1 83.1 356 85.9 356 88.8 C 356 91.7 357.1 94.5 359.6 94.5 C 362.2 94.5 363.3 91.7 363.3 88.8 Z M 379.2 96 L 376.1 84.4 L 372.9 96 L 370.8 96 L 366.9 81.5 L 369.1 81.5 L 372 93.1 L 375 81.5 L 377.1 81.5 L 380.1 93.1 L 383 81.5 L 385.2 81.5 L 381.4 96 L 379.2 96 Z M 392.9 86 C 392.9 80.7 394.8 75.7 399.6 75.7 C 401.7 75.7 403.3 76.7 404.3 78.2 C 404.3 78.2 403 79.9 403 79.9 C 402.3 78.6 401.3 77.8 399.7 77.8 C 396.5 77.8 395.3 82 395.3 85.8 C 395.3 86.1 395.3 86.2 395.3 86.4 C 396 85 397.7 83.5 399.7 83.5 C 402.6 83.5 405 85.6 405 89.9 C 405 93.3 402.9 96.4 399.2 96.4 C 394.5 96.4 392.9 91.4 392.9 86 Z M 402.6 89.9 C 402.6 86.8 401 85.6 399.1 85.6 C 397.5 85.6 396.1 87 395.4 88.6 C 395.5 90.9 396.3 94.3 399.1 94.3 C 401.5 94.3 402.6 92 402.6 89.9 Z M 413.7 78 C 413.7 77.2 414.3 76.5 415.1 76.5 C 415.9 76.5 416.6 77.2 416.6 78 C 416.6 78.8 415.9 79.4 415.1 79.4 C 414.3 79.4 413.7 78.8 413.7 78 Z M 414.1 96 L 414.1 81.5 L 416.2 81.5 L 416.2 96 L 414.1 96 Z M 427.7 96 C 427.7 96 427.7 85.7 427.7 85.7 C 427.7 83.8 426.8 83.1 425.4 83.1 C 424 83.1 422.7 84.2 422 85.4 C 422 85.4 422 96 422 96 L 419.9 96 L 419.9 81.5 L 422 81.5 C 422 81.5 422 83.6 422 83.6 C 422.8 82.3 424.5 81.2 426.2 81.2 C 428.7 81.2 429.9 82.5 429.9 85.1 C 429.86 85.1 429.9 96 429.9 96 L 427.7 96 Z M 438.9 88.8 C 438.9 84.6 441.2 81.2 444.8 81.2 C 448.6 81.2 450.6 84.6 450.6 88.8 C 450.56 88.82 450.6 89.5 450.6 89.5 C 450.6 89.5 441.17 89.48 441.2 89.5 C 441.3 92.4 442.8 94.6 445.3 94.6 C 446.6 94.6 447.9 94 448.8 92.8 C 448.8 92.8 449.9 94.1 449.9 94.1 C 448.8 95.5 447.1 96.4 445.2 96.4 C 441.3 96.4 438.9 93.2 438.9 88.8 Z M 444.8 83 C 442.2 83 441.2 85.8 441.2 87.9 C 441.2 87.9 448.4 87.9 448.4 87.9 C 448.4 85.7 447.4 83 444.8 83 Z M 461.7 92.1 C 461.7 92.1 461.7 85.4 461.7 85.4 C 461.1 84.2 459.7 83.1 458.4 83.1 C 456 83.1 454.9 85.6 454.9 88.8 C 454.9 91.9 456 94.5 458.4 94.5 C 459.7 94.5 461.1 93.3 461.7 92.1 Z M 452.7 88.8 C 452.7 84.2 454.6 81.2 457.8 81.2 C 459.3 81.2 460.8 82.1 461.7 83.6 C 461.66 83.6 461.7 81.5 461.7 81.5 L 463.8 81.5 L 463.8 101.5 L 461.7 101.5 C 461.7 101.5 461.66 93.92 461.7 93.9 C 460.8 95.5 459.3 96.4 457.8 96.4 C 454.6 96.4 452.7 93.3 452.7 88.8 Z M 475.3 96 C 475.3 96 475.28 94.01 475.3 94 C 474.4 95.3 472.9 96.4 471.1 96.4 C 468.6 96.4 467.4 95.2 467.4 92.5 C 467.45 92.51 467.4 81.5 467.4 81.5 L 469.6 81.5 C 469.6 81.5 469.58 91.88 469.6 91.9 C 469.6 93.8 470.5 94.5 471.9 94.5 C 473.3 94.5 474.6 93.4 475.3 92.2 C 475.28 92.21 475.3 81.5 475.3 81.5 L 477.4 81.5 L 477.4 96 L 475.3 96 Z M 488.5 96 C 488.5 96 488.54 94.46 488.5 94.5 C 487.6 95.8 486.2 96.4 484.7 96.4 C 482.4 96.4 480.3 94.6 480.3 91.6 C 480.3 88.5 482.4 86.8 484.7 86.8 C 486.2 86.8 487.6 87.4 488.5 88.6 C 488.5 88.6 488.5 86.1 488.5 86.1 C 488.5 84.1 487.5 83 485.6 83 C 484.2 83 483 83.5 481.9 84.8 C 481.9 84.8 481 83.3 481 83.3 C 482.4 81.8 484.1 81.2 485.9 81.2 C 488.8 81.2 490.7 82.6 490.7 85.9 C 490.7 85.88 490.7 96 490.7 96 L 488.5 96 Z M 488.5 93 C 488.5 93 488.5 90.2 488.5 90.2 C 487.9 89 486.7 88.4 485.4 88.4 C 483.6 88.4 482.5 89.8 482.5 91.6 C 482.5 93.4 483.6 94.8 485.4 94.8 C 486.7 94.8 487.9 94.2 488.5 93 Z M 494.3 96 L 494.3 76 L 496.5 76 L 496.5 96 L 494.3 96 Z M 508.4 93.9 C 508.4 93.92 508.4 101.5 508.4 101.5 L 506.3 101.5 L 506.3 81.5 L 508.4 81.5 C 508.4 81.5 508.4 83.6 508.4 83.6 C 509.2 82.1 510.7 81.2 512.2 81.2 C 515.5 81.2 517.4 84.2 517.4 88.8 C 517.4 93.3 515.5 96.4 512.2 96.4 C 510.7 96.4 509.3 95.5 508.4 93.9 Z M 515.1 88.8 C 515.1 85.6 514 83.1 511.7 83.1 C 510.3 83.1 509 84.2 508.4 85.4 C 508.4 85.4 508.4 92.1 508.4 92.1 C 509 93.3 510.3 94.5 511.7 94.5 C 514 94.5 515.1 91.9 515.1 88.8 Z M 527.7 96 C 527.7 96 527.75 94.46 527.7 94.5 C 526.8 95.8 525.4 96.4 523.9 96.4 C 521.6 96.4 519.6 94.6 519.6 91.6 C 519.6 88.5 521.6 86.8 523.9 86.8 C 525.4 86.8 526.8 87.4 527.7 88.6 C 527.7 88.6 527.7 86.1 527.7 86.1 C 527.7 84.1 526.7 83 524.8 83 C 523.4 83 522.3 83.5 521.1 84.8 C 521.1 84.8 520.2 83.3 520.2 83.3 C 521.6 81.8 523.3 81.2 525.1 81.2 C 528 81.2 529.9 82.6 529.9 85.9 C 529.91 85.88 529.9 96 529.9 96 L 527.7 96 Z M 527.7 93 C 527.7 93 527.7 90.2 527.7 90.2 C 527.1 89 525.9 88.4 524.6 88.4 C 522.8 88.4 521.7 89.8 521.7 91.6 C 521.7 93.4 522.8 94.8 524.6 94.8 C 525.9 94.8 527.1 94.2 527.7 93 Z M 533.5 96 L 533.5 81.5 L 535.7 81.5 C 535.7 81.5 535.66 83.84 535.7 83.8 C 536.6 82.3 538 81.2 539.8 81.2 C 539.8 81.2 539.8 83.5 539.8 83.5 C 539.5 83.4 539.3 83.4 539.1 83.4 C 537.7 83.4 536.3 84.5 535.7 85.7 C 535.66 85.73 535.7 96 535.7 96 L 533.5 96 Z M 542.4 93.1 C 542.38 93.11 542.4 83.4 542.4 83.4 L 540.5 83.4 L 540.5 81.5 L 542.4 81.5 L 542.4 77.6 L 544.5 77.6 L 544.5 81.5 L 547 81.5 L 547 83.4 L 544.5 83.4 C 544.5 83.4 544.54 92.72 544.5 92.7 C 544.5 93.8 544.9 94.5 545.7 94.5 C 546.3 94.5 546.7 94.2 547 93.9 C 547 93.9 547.6 95.5 547.6 95.5 C 547.1 96 546.4 96.4 545.3 96.4 C 543.3 96.4 542.4 95.3 542.4 93.1 Z M 548.4 94.3 C 548.4 94.3 549.5 92.8 549.5 92.8 C 550.3 93.8 551.7 94.6 553.2 94.6 C 554.9 94.6 556 93.7 556 92.3 C 556 88.9 548.8 90.1 548.8 85.1 C 548.8 82.9 550.5 81.2 553.4 81.2 C 555.3 81.2 556.8 81.9 557.8 83 C 557.8 83 556.8 84.5 556.8 84.5 C 556.1 83.5 554.9 82.9 553.5 82.9 C 551.9 82.9 550.9 83.8 550.9 85 C 550.9 88.1 558.1 87 558.1 92.2 C 558.1 94.6 556.2 96.4 553.3 96.4 C 551.2 96.4 549.6 95.7 548.4 94.3 Z M 561.7 99.8 C 561.7 99.8 560.6 98.9 560.6 98.9 C 561.6 98.3 562.4 97.1 562.5 96.1 C 562.5 96.1 562.2 96.2 562.1 96.2 C 561.3 96.2 560.7 95.5 560.7 94.7 C 560.7 93.8 561.4 93.1 562.3 93.1 C 563.2 93.1 564.1 93.9 564.1 95.4 C 564.1 97.2 563 98.8 561.7 99.8 Z M 581 96 C 581 96 580.99 94.46 581 94.5 C 580.1 95.8 578.7 96.4 577.2 96.4 C 574.8 96.4 572.8 94.6 572.8 91.6 C 572.8 88.5 574.8 86.8 577.2 86.8 C 578.7 86.8 580.1 87.4 581 88.6 C 581 88.6 581 86.1 581 86.1 C 581 84.1 579.9 83 578 83 C 576.7 83 575.5 83.5 574.4 84.8 C 574.4 84.8 573.4 83.3 573.4 83.3 C 574.8 81.8 576.5 81.2 578.4 81.2 C 581.2 81.2 583.2 82.6 583.2 85.9 C 583.15 85.88 583.2 96 583.2 96 L 581 96 Z M 581 93 C 581 93 581 90.2 581 90.2 C 580.3 89 579.1 88.4 577.9 88.4 C 576.1 88.4 575 89.8 575 91.6 C 575 93.4 576.1 94.8 577.9 94.8 C 579.1 94.8 580.3 94.2 581 93 Z M 594.6 96 C 594.6 96 594.61 85.7 594.6 85.7 C 594.6 83.8 593.7 83.1 592.3 83.1 C 590.9 83.1 589.6 84.2 588.9 85.4 C 588.91 85.4 588.9 96 588.9 96 L 586.8 96 L 586.8 81.5 L 588.9 81.5 C 588.9 81.5 588.91 83.6 588.9 83.6 C 589.8 82.3 591.4 81.2 593.1 81.2 C 595.6 81.2 596.8 82.5 596.8 85.1 C 596.77 85.1 596.8 96 596.8 96 L 594.6 96 Z M 608.7 96 C 608.7 96 608.71 93.95 608.7 94 C 607.9 95.4 606.4 96.4 604.9 96.4 C 601.7 96.4 599.7 93.4 599.7 88.8 C 599.7 84.3 601.6 81.2 604.9 81.2 C 606.4 81.2 607.8 82 608.7 83.6 C 608.71 83.63 608.7 76 608.7 76 L 610.9 76 L 610.9 96 L 608.7 96 Z M 608.7 92.1 C 608.7 92.1 608.7 85.5 608.7 85.5 C 608.2 84.2 606.8 83.1 605.4 83.1 C 603.1 83.1 602 85.6 602 88.8 C 602 91.9 603.1 94.5 605.4 94.5 C 606.8 94.5 608.2 93.4 608.7 92.1 Z " stroke="none" fill="#efd8d3"/>  </g>  <g id="Polygon201053">    <path d="M 5 24 L 5 7.2 L 1.9 10.5 L 0.4 9 L 5.3 4 L 7.3 4 L 7.3 24 L 5 24 Z M 11 22.7 C 11 21.9 11.7 21.1 12.6 21.1 C 13.4 21.1 14.2 21.9 14.2 22.7 C 14.2 23.6 13.4 24.3 12.6 24.3 C 11.7 24.3 11 23.6 11 22.7 Z M 29.8 14 C 29.8 8 32.8 3.7 37.5 3.7 C 40.6 3.7 42.3 5.5 43.4 7.6 C 43.4 7.6 41.4 8.5 41.4 8.5 C 40.6 6.9 39.3 5.8 37.5 5.8 C 34.3 5.8 32.2 9.3 32.2 14 C 32.2 18.8 34.3 22.3 37.5 22.3 C 39.4 22.3 40.7 21 41.4 19.3 C 41.4 19.3 43.4 20.2 43.4 20.2 C 42.3 22.4 40.6 24.4 37.5 24.4 C 32.8 24.4 29.8 20 29.8 14 Z M 53.8 24 C 53.8 24 53.85 22.01 53.8 22 C 53 23.3 51.4 24.4 49.6 24.4 C 47.2 24.4 46 23.2 46 20.5 C 46.02 20.51 46 9.5 46 9.5 L 48.1 9.5 C 48.1 9.5 48.15 19.88 48.1 19.9 C 48.1 21.8 49 22.5 50.5 22.5 C 51.9 22.5 53.2 21.4 53.8 20.2 C 53.85 20.21 53.8 9.5 53.8 9.5 L 56 9.5 L 56 24 L 53.8 24 Z M 60.1 21.1 C 60.09 21.11 60.1 11.4 60.1 11.4 L 58.2 11.4 L 58.2 9.5 L 60.1 9.5 L 60.1 5.6 L 62.2 5.6 L 62.2 9.5 L 64.7 9.5 L 64.7 11.4 L 62.2 11.4 C 62.2 11.4 62.25 20.72 62.2 20.7 C 62.2 21.8 62.6 22.5 63.4 22.5 C 64 22.5 64.4 22.2 64.7 21.9 C 64.7 21.9 65.3 23.5 65.3 23.5 C 64.8 24 64.1 24.4 63 24.4 C 61 24.4 60.1 23.3 60.1 21.1 Z M 81.2 24 C 81.2 24 81.24 22.01 81.2 22 C 80.4 23.3 78.8 24.4 77 24.4 C 74.6 24.4 73.4 23.2 73.4 20.5 C 73.41 20.51 73.4 9.5 73.4 9.5 L 75.5 9.5 C 75.5 9.5 75.54 19.88 75.5 19.9 C 75.5 21.8 76.4 22.5 77.8 22.5 C 79.3 22.5 80.6 21.4 81.2 20.2 C 81.24 20.21 81.2 9.5 81.2 9.5 L 83.4 9.5 L 83.4 24 L 81.2 24 Z M 89.2 21.9 C 89.19 21.92 89.2 29.5 89.2 29.5 L 87.1 29.5 L 87.1 9.5 L 89.2 9.5 C 89.2 9.5 89.19 11.6 89.2 11.6 C 90 10.1 91.5 9.2 93 9.2 C 96.3 9.2 98.2 12.2 98.2 16.8 C 98.2 21.3 96.3 24.4 93 24.4 C 91.5 24.4 90.1 23.5 89.2 21.9 Z M 95.9 16.8 C 95.9 13.6 94.8 11.1 92.5 11.1 C 91.1 11.1 89.8 12.2 89.2 13.4 C 89.2 13.4 89.2 20.1 89.2 20.1 C 89.8 21.3 91.1 22.5 92.5 22.5 C 94.8 22.5 95.9 19.9 95.9 16.8 Z M 114.7 24 C 114.7 24 114.69 22.46 114.7 22.5 C 113.8 23.8 112.3 24.4 110.9 24.4 C 108.5 24.4 106.5 22.6 106.5 19.6 C 106.5 16.5 108.5 14.8 110.9 14.8 C 112.3 14.8 113.8 15.4 114.7 16.6 C 114.7 16.6 114.7 14.1 114.7 14.1 C 114.7 12.1 113.6 11 111.7 11 C 110.4 11 109.2 11.5 108.1 12.8 C 108.1 12.8 107.1 11.3 107.1 11.3 C 108.5 9.8 110.2 9.2 112 9.2 C 114.9 9.2 116.8 10.6 116.8 13.9 C 116.85 13.88 116.8 24 116.8 24 L 114.7 24 Z M 114.7 21 C 114.7 21 114.7 18.2 114.7 18.2 C 114 17 112.8 16.4 111.6 16.4 C 109.8 16.4 108.7 17.8 108.7 19.6 C 108.7 21.4 109.8 22.8 111.6 22.8 C 112.8 22.8 114 22.2 114.7 21 Z M 132 22.5 C 134.4 22.5 135.5 19.9 135.5 16.8 C 135.5 13.6 134.4 11.1 132 11.1 C 130.7 11.1 129.3 12.2 128.8 13.5 C 128.8 13.5 128.8 20.1 128.8 20.1 C 129.3 21.4 130.7 22.5 132 22.5 Z M 126.6 24 L 126.6 4 L 128.8 4 C 128.8 4 128.75 11.63 128.8 11.6 C 129.7 10 131.1 9.2 132.6 9.2 C 135.8 9.2 137.8 12.3 137.8 16.8 C 137.8 21.4 135.8 24.4 132.6 24.4 C 131 24.4 129.6 23.4 128.8 22 C 128.75 21.95 128.8 24 128.8 24 L 126.6 24 Z M 148.2 24 C 148.2 24 148.16 22.46 148.2 22.5 C 147.2 23.8 145.8 24.4 144.4 24.4 C 142 24.4 140 22.6 140 19.6 C 140 16.5 142 14.8 144.4 14.8 C 145.8 14.8 147.3 15.4 148.2 16.6 C 148.2 16.6 148.2 14.1 148.2 14.1 C 148.2 12.1 147.1 11 145.2 11 C 143.8 11 142.7 11.5 141.6 12.8 C 141.6 12.8 140.6 11.3 140.6 11.3 C 142 9.8 143.7 9.2 145.5 9.2 C 148.4 9.2 150.3 10.6 150.3 13.9 C 150.32 13.88 150.3 24 150.3 24 L 148.2 24 Z M 148.2 21 C 148.2 21 148.2 18.2 148.2 18.2 C 147.5 17 146.3 16.4 145 16.4 C 143.2 16.4 142.2 17.8 142.2 19.6 C 142.2 21.4 143.2 22.8 145 22.8 C 146.3 22.8 147.5 22.2 148.2 21 Z M 154 24 L 154 9.5 L 156.1 9.5 C 156.1 9.5 156.08 11.84 156.1 11.8 C 157 10.3 158.4 9.2 160.2 9.2 C 160.2 9.2 160.2 11.5 160.2 11.5 C 160 11.4 159.7 11.4 159.5 11.4 C 158.2 11.4 156.7 12.5 156.1 13.7 C 156.08 13.73 156.1 24 156.1 24 L 154 24 Z M 167.8 16.8 C 167.8 12.7 169.9 9.2 173.7 9.2 C 177.6 9.2 179.6 12.7 179.6 16.8 C 179.6 20.8 177.6 24.4 173.7 24.4 C 169.9 24.4 167.8 20.8 167.8 16.8 Z M 177.4 16.8 C 177.4 13.9 176.2 11.1 173.7 11.1 C 171.2 11.1 170.1 13.9 170.1 16.8 C 170.1 19.7 171.2 22.5 173.7 22.5 C 176.2 22.5 177.4 19.7 177.4 16.8 Z M 183.1 24 L 183.1 11.4 L 181.1 11.4 L 181.1 9.5 L 183.1 9.5 C 183.1 9.5 183.05 7.76 183.1 7.8 C 183.1 5.2 184.4 3.7 186.7 3.7 C 187.6 3.7 188.5 4 189.3 4.7 C 189.3 4.7 188.4 6.2 188.4 6.2 C 188 5.8 187.6 5.5 187 5.5 C 185.8 5.5 185.2 6.4 185.2 7.8 C 185.21 7.76 185.2 9.5 185.2 9.5 L 187.7 9.5 L 187.7 11.4 L 185.2 11.4 L 185.2 24 L 183.1 24 Z M 194.8 22.3 C 194.8 22.3 195.9 20.8 195.9 20.8 C 196.8 21.8 198.1 22.6 199.7 22.6 C 201.4 22.6 202.5 21.7 202.5 20.3 C 202.5 16.9 195.3 18.1 195.3 13.1 C 195.3 10.9 197 9.2 199.9 9.2 C 201.8 9.2 203.3 9.9 204.3 11 C 204.3 11 203.3 12.5 203.3 12.5 C 202.6 11.5 201.3 10.9 199.9 10.9 C 198.3 10.9 197.3 11.8 197.3 13 C 197.3 16.1 204.6 15 204.6 20.2 C 204.6 22.6 202.7 24.4 199.7 24.4 C 197.7 24.4 196 23.7 194.8 22.3 Z M 206.6 16.8 C 206.6 12.7 208.6 9.2 212.5 9.2 C 216.4 9.2 218.4 12.7 218.4 16.8 C 218.4 20.8 216.4 24.4 212.5 24.4 C 208.6 24.4 206.6 20.8 206.6 16.8 Z M 216.1 16.8 C 216.1 13.9 215 11.1 212.5 11.1 C 210 11.1 208.9 13.9 208.9 16.8 C 208.9 19.7 210 22.5 212.5 22.5 C 215 22.5 216.1 19.7 216.1 16.8 Z M 228.8 24 C 228.8 24 228.77 22.46 228.8 22.5 C 227.8 23.8 226.4 24.4 225 24.4 C 222.6 24.4 220.6 22.6 220.6 19.6 C 220.6 16.5 222.6 14.8 225 14.8 C 226.4 14.8 227.9 15.4 228.8 16.6 C 228.8 16.6 228.8 14.1 228.8 14.1 C 228.8 12.1 227.7 11 225.8 11 C 224.5 11 223.3 11.5 222.2 12.8 C 222.2 12.8 221.2 11.3 221.2 11.3 C 222.6 9.8 224.3 9.2 226.1 9.2 C 229 9.2 230.9 10.6 230.9 13.9 C 230.93 13.88 230.9 24 230.9 24 L 228.8 24 Z M 228.8 21 C 228.8 21 228.8 18.2 228.8 18.2 C 228.1 17 226.9 16.4 225.7 16.4 C 223.9 16.4 222.8 17.8 222.8 19.6 C 222.8 21.4 223.9 22.8 225.7 22.8 C 226.9 22.8 228.1 22.2 228.8 21 Z M 236.7 21.9 C 236.69 21.92 236.7 29.5 236.7 29.5 L 234.6 29.5 L 234.6 9.5 L 236.7 9.5 C 236.7 9.5 236.69 11.6 236.7 11.6 C 237.5 10.1 239 9.2 240.5 9.2 C 243.8 9.2 245.7 12.2 245.7 16.8 C 245.7 21.3 243.8 24.4 240.5 24.4 C 239 24.4 237.6 23.5 236.7 21.9 Z M 243.4 16.8 C 243.4 13.6 242.3 11.1 240 11.1 C 238.6 11.1 237.3 12.2 236.7 13.4 C 236.7 13.4 236.7 20.1 236.7 20.1 C 237.3 21.3 238.6 22.5 240 22.5 C 242.3 22.5 243.4 19.9 243.4 16.8 Z M 254.3 6 C 254.3 5.2 255 4.5 255.8 4.5 C 256.6 4.5 257.3 5.2 257.3 6 C 257.3 6.8 256.6 7.4 255.8 7.4 C 255 7.4 254.3 6.8 254.3 6 Z M 254.8 24 L 254.8 9.5 L 256.9 9.5 L 256.9 24 L 254.8 24 Z M 268.4 24 C 268.4 24 268.37 13.7 268.4 13.7 C 268.4 11.8 267.5 11.1 266.1 11.1 C 264.7 11.1 263.3 12.2 262.7 13.4 C 262.67 13.4 262.7 24 262.7 24 L 260.5 24 L 260.5 9.5 L 262.7 9.5 C 262.7 9.5 262.67 11.6 262.7 11.6 C 263.5 10.3 265.1 9.2 266.9 9.2 C 269.3 9.2 270.5 10.5 270.5 13.1 C 270.53 13.1 270.5 24 270.5 24 L 268.4 24 Z M 274.6 21.1 C 274.61 21.11 274.6 11.4 274.6 11.4 L 272.7 11.4 L 272.7 9.5 L 274.6 9.5 L 274.6 5.6 L 276.8 5.6 L 276.8 9.5 L 279.2 9.5 L 279.2 11.4 L 276.8 11.4 C 276.8 11.4 276.77 20.72 276.8 20.7 C 276.8 21.8 277.1 22.5 277.9 22.5 C 278.5 22.5 278.9 22.2 279.2 21.9 C 279.2 21.9 279.9 23.5 279.9 23.5 C 279.4 24 278.6 24.4 277.5 24.4 C 275.5 24.4 274.6 23.3 274.6 21.1 Z M 281.1 16.8 C 281.1 12.7 283.1 9.2 286.9 9.2 C 290.8 9.2 292.9 12.7 292.9 16.8 C 292.9 20.8 290.8 24.4 286.9 24.4 C 283.1 24.4 281.1 20.8 281.1 16.8 Z M 290.6 16.8 C 290.6 13.9 289.5 11.1 286.9 11.1 C 284.5 11.1 283.3 13.9 283.3 16.8 C 283.3 19.7 284.5 22.5 286.9 22.5 C 289.5 22.5 290.6 19.7 290.6 16.8 Z M 300.8 22.3 C 300.8 22.3 301.9 20.8 301.9 20.8 C 302.7 21.8 304.1 22.6 305.6 22.6 C 307.3 22.6 308.4 21.7 308.4 20.3 C 308.4 16.9 301.2 18.1 301.2 13.1 C 301.2 10.9 302.9 9.2 305.8 9.2 C 307.7 9.2 309.2 9.9 310.2 11 C 310.2 11 309.2 12.5 309.2 12.5 C 308.5 11.5 307.3 10.9 305.8 10.9 C 304.3 10.9 303.3 11.8 303.3 13 C 303.3 16.1 310.5 15 310.5 20.2 C 310.5 22.6 308.6 24.4 305.7 24.4 C 303.6 24.4 302 23.7 300.8 22.3 Z M 327.9 24 C 327.9 24 327.89 13.52 327.9 13.5 C 327.9 12 327.3 11.1 325.9 11.1 C 324.6 11.1 323.3 12.2 322.7 13.4 C 322.73 13.4 322.7 24 322.7 24 L 320.6 24 C 320.6 24 320.57 13.52 320.6 13.5 C 320.6 12 319.9 11.1 318.5 11.1 C 317.2 11.1 316 12.2 315.4 13.4 C 315.38 13.4 315.4 24 315.4 24 L 313.3 24 L 313.3 9.5 L 315.4 9.5 C 315.4 9.5 315.38 11.6 315.4 11.6 C 316 10.5 317.6 9.2 319.3 9.2 C 321.2 9.2 322.3 10.2 322.6 11.8 C 323.3 10.4 325 9.2 326.7 9.2 C 328.8 9.2 330.1 10.3 330.1 13 C 330.05 12.95 330.1 24 330.1 24 L 327.9 24 Z M 341.2 24 C 341.2 24 341.15 22.46 341.2 22.5 C 340.2 23.8 338.8 24.4 337.3 24.4 C 335 24.4 333 22.6 333 19.6 C 333 16.5 335 14.8 337.3 14.8 C 338.8 14.8 340.3 15.4 341.2 16.6 C 341.2 16.6 341.2 14.1 341.2 14.1 C 341.2 12.1 340.1 11 338.2 11 C 336.8 11 335.7 11.5 334.6 12.8 C 334.6 12.8 333.6 11.3 333.6 11.3 C 335 9.8 336.7 9.2 338.5 9.2 C 341.4 9.2 343.3 10.6 343.3 13.9 C 343.31 13.88 343.3 24 343.3 24 L 341.2 24 Z M 341.2 21 C 341.2 21 341.2 18.2 341.2 18.2 C 340.5 17 339.3 16.4 338 16.4 C 336.2 16.4 335.2 17.8 335.2 19.6 C 335.2 21.4 336.2 22.8 338 22.8 C 339.3 22.8 340.5 22.2 341.2 21 Z M 346.9 24 L 346.9 4 L 349.1 4 L 349.1 24 L 346.9 24 Z M 352.7 24 L 352.7 4 L 354.9 4 L 354.9 24 L 352.7 24 Z M 357.8 16.8 C 357.8 12.6 360 9.2 363.7 9.2 C 367.5 9.2 369.4 12.6 369.4 16.8 C 369.41 16.82 369.4 17.5 369.4 17.5 C 369.4 17.5 360.02 17.48 360 17.5 C 360.1 20.4 361.6 22.6 364.2 22.6 C 365.4 22.6 366.7 22 367.6 20.8 C 367.6 20.8 368.8 22.1 368.8 22.1 C 367.6 23.5 366 24.4 364 24.4 C 360.1 24.4 357.8 21.2 357.8 16.8 Z M 363.6 11 C 361.1 11 360.1 13.8 360 15.9 C 360 15.9 367.3 15.9 367.3 15.9 C 367.2 13.7 366.3 11 363.6 11 Z M 372.3 24 L 372.3 9.5 L 374.4 9.5 C 374.4 9.5 374.39 11.84 374.4 11.8 C 375.3 10.3 376.7 9.2 378.5 9.2 C 378.5 9.2 378.5 11.5 378.5 11.5 C 378.3 11.4 378 11.4 377.8 11.4 C 376.5 11.4 375 12.5 374.4 13.7 C 374.39 13.73 374.4 24 374.4 24 L 372.3 24 Z M 389 21.9 C 388.97 21.92 389 29.5 389 29.5 L 386.8 29.5 L 386.8 9.5 L 389 9.5 C 389 9.5 388.97 11.6 389 11.6 C 389.8 10.1 391.2 9.2 392.8 9.2 C 396 9.2 398 12.2 398 16.8 C 398 21.3 396 24.4 392.8 24.4 C 391.3 24.4 389.9 23.5 389 21.9 Z M 395.7 16.8 C 395.7 13.6 394.6 11.1 392.2 11.1 C 390.9 11.1 389.5 12.2 389 13.4 C 389 13.4 389 20.1 389 20.1 C 389.5 21.3 390.9 22.5 392.2 22.5 C 394.6 22.5 395.7 19.9 395.7 16.8 Z M 400.5 6 C 400.5 5.2 401.1 4.5 401.9 4.5 C 402.7 4.5 403.4 5.2 403.4 6 C 403.4 6.8 402.7 7.4 401.9 7.4 C 401.1 7.4 400.5 6.8 400.5 6 Z M 400.9 24 L 400.9 9.5 L 403 9.5 L 403 24 L 400.9 24 Z M 405.9 16.8 C 405.9 12.6 408.2 9.2 411.8 9.2 C 415.6 9.2 417.6 12.6 417.6 16.8 C 417.56 16.82 417.6 17.5 417.6 17.5 C 417.6 17.5 408.17 17.48 408.2 17.5 C 408.3 20.4 409.8 22.6 412.3 22.6 C 413.6 22.6 414.9 22 415.8 20.8 C 415.8 20.8 416.9 22.1 416.9 22.1 C 415.8 23.5 414.1 24.4 412.2 24.4 C 408.3 24.4 405.9 21.2 405.9 16.8 Z M 411.8 11 C 409.2 11 408.2 13.8 408.2 15.9 C 408.2 15.9 415.4 15.9 415.4 15.9 C 415.4 13.7 414.4 11 411.8 11 Z M 419.7 16.8 C 419.7 12.5 422 9.2 425.7 9.2 C 427.7 9.2 428.9 10 429.8 11.1 C 429.8 11.1 428.7 12.6 428.7 12.6 C 427.9 11.5 427 11.1 425.9 11.1 C 423.3 11.1 421.9 13.7 421.9 16.8 C 421.9 19.9 423.3 22.5 425.9 22.5 C 427 22.5 427.9 22 428.7 21 C 428.7 21 429.8 22.5 429.8 22.5 C 428.9 23.6 427.7 24.4 425.7 24.4 C 422 24.4 419.7 21.1 419.7 16.8 Z M 431.6 16.8 C 431.6 12.6 433.8 9.2 437.4 9.2 C 441.3 9.2 443.2 12.6 443.2 16.8 C 443.18 16.82 443.2 17.5 443.2 17.5 C 443.2 17.5 433.79 17.48 433.8 17.5 C 433.9 20.4 435.4 22.6 438 22.6 C 439.2 22.6 440.5 22 441.4 20.8 C 441.4 20.8 442.5 22.1 442.5 22.1 C 441.4 23.5 439.7 24.4 437.8 24.4 C 433.9 24.4 431.6 21.2 431.6 16.8 Z M 437.4 11 C 434.9 11 433.8 13.8 433.8 15.9 C 433.8 15.9 441 15.9 441 15.9 C 441 13.7 440.1 11 437.4 11 Z M 444.9 22.3 C 444.9 22.3 445.9 20.8 445.9 20.8 C 446.8 21.8 448.2 22.6 449.7 22.6 C 451.4 22.6 452.5 21.7 452.5 20.3 C 452.5 16.9 445.3 18.1 445.3 13.1 C 445.3 10.9 447 9.2 449.9 9.2 C 451.8 9.2 453.3 9.9 454.3 11 C 454.3 11 453.3 12.5 453.3 12.5 C 452.6 11.5 451.3 10.9 449.9 10.9 C 448.3 10.9 447.3 11.8 447.3 13 C 447.3 16.1 454.6 15 454.6 20.2 C 454.6 22.6 452.7 24.4 449.7 24.4 C 447.7 24.4 446.1 23.7 444.9 22.3 Z M 457.2 22.7 C 457.2 21.9 457.9 21.1 458.8 21.1 C 459.6 21.1 460.4 21.9 460.4 22.7 C 460.4 23.6 459.6 24.3 458.8 24.3 C 457.9 24.3 457.2 23.6 457.2 22.7 Z " stroke="none" fill="#efd8d3"/>  </g></svg>