<?xml version="1.0" standalone="no"?><!DOCTYPE svg PUBLIC "-//W3C//DTD SVG 1.1//EN" "http://www.w3.org/Graphics/SVG/1.1/DTD/svg11.dtd"><svg xmlns="http://www.w3.org/2000/svg" version="1.1" width="651px" height="85.6px" viewBox="0 0 651 85.6">  <desc>Fresh Foam Slices</desc>  <defs/>  <g id="Polygon179595">    <path d="M 3.1 47.4 L 3.1 7.4 L 20.6 7.4 L 20.6 14 L 10.7 14 L 10.7 23.7 L 20.2 23.7 L 20.2 30.4 L 10.7 30.4 L 10.7 47.4 L 3.1 47.4 Z M 25.3 47.4 L 25.3 18.4 L 32.1 18.4 C 32.1 18.4 32.1 22.44 32.1 22.4 C 33.2 19.8 36.1 17.7 38.6 17.7 C 38.6 17.7 38.6 24.4 38.6 24.4 C 38.2 24.2 37.7 24.2 37.3 24.2 C 35.3 24.2 33.2 25.8 32.1 27.9 C 32.1 27.9 32.1 47.4 32.1 47.4 L 25.3 47.4 Z M 41 32.9 C 41 24.5 44.6 17.7 51.8 17.7 C 59.2 17.7 62.2 24.2 62.2 32.8 C 62.22 32.76 62.2 35.1 62.2 35.1 C 62.2 35.1 47.52 35.1 47.5 35.1 C 47.6 39.4 49.4 42.6 53.2 42.6 C 54.8 42.6 56.7 41.5 58 39.7 C 58 39.7 61.3 43.5 61.3 43.5 C 59 46.4 55.8 48.1 52.5 48.1 C 44.9 48.1 41 41.8 41 32.9 Z M 51.7 23.2 C 48.4 23.2 47.5 27.3 47.5 30.4 C 47.5 30.4 55.7 30.4 55.7 30.4 C 55.7 27.1 55 23.2 51.7 23.2 Z M 64.3 44.3 C 64.3 44.3 67.1 39.7 67.1 39.7 C 68.7 41.4 70.9 42.8 73.1 42.8 C 75.3 42.8 76.8 41.6 76.8 39.7 C 76.8 34.9 65.3 36 65.3 25.9 C 65.3 21.5 68.6 17.7 74.6 17.7 C 77.9 17.7 80.9 19 83.1 21.1 C 83.1 21.1 80.3 25.7 80.3 25.7 C 79.2 24.3 77.1 23 74.8 23 C 72.9 23 71.6 24.2 71.6 25.7 C 71.6 30.1 83.2 29.3 83.2 39.5 C 83.2 44.6 79.3 48.1 73.7 48.1 C 69.4 48.1 66.2 46.6 64.3 44.3 Z M 100 47.4 C 100 47.4 100.02 26.64 100 26.6 C 100 24.7 99.3 23.7 97.8 23.7 C 96.1 23.7 94.6 25.6 93.9 27.5 C 93.9 27.48 93.9 47.4 93.9 47.4 L 87.1 47.4 L 87.1 7.4 L 93.9 7.4 C 93.9 7.4 93.9 22.2 93.9 22.2 C 95 19.9 98 17.7 100.7 17.7 C 105.1 17.7 106.9 20.1 106.9 24.2 C 106.86 24.24 106.9 47.4 106.9 47.4 L 100 47.4 Z M 122.5 47.4 L 122.5 7.4 L 140 7.4 L 140 14 L 130 14 L 130 23.7 L 139.6 23.7 L 139.6 30.4 L 130 30.4 L 130 47.4 L 122.5 47.4 Z M 143.5 32.9 C 143.5 24.8 146.8 17.7 154.4 17.7 C 162 17.7 165.3 24.8 165.3 32.9 C 165.3 40.9 162 48.1 154.4 48.1 C 146.8 48.1 143.5 40.9 143.5 32.9 Z M 158.3 32.9 C 158.3 28 157.4 23.7 154.4 23.7 C 151.4 23.7 150.5 28 150.5 32.9 C 150.5 37.9 151.4 42.1 154.4 42.1 C 157.4 42.1 158.3 37.9 158.3 32.9 Z M 182.3 47.4 C 182.3 47.4 182.28 44.64 182.3 44.6 C 181 46.9 178.3 48.1 176.2 48.1 C 171.7 48.1 168.4 44.4 168.4 38.5 C 168.4 32.6 171.7 29 176.2 29 C 178.3 29 181.1 30.1 182.3 32.3 C 182.3 32.3 182.3 28.7 182.3 28.7 C 182.3 25.4 181 23.5 177.9 23.5 C 176 23.5 173.9 24.4 172 26.3 C 172 26.3 169.5 21.5 169.5 21.5 C 172.1 18.7 176.3 17.7 179.3 17.7 C 185.2 17.7 189.1 20.7 189.1 27.2 C 189.06 27.18 189.1 47.4 189.1 47.4 L 182.3 47.4 Z M 182.3 40.6 C 182.3 40.6 182.3 36.7 182.3 36.7 C 181.6 34.9 180.1 33.7 178.6 33.7 C 176.3 33.7 175.1 35.8 175.1 38.6 C 175.1 41.3 176.3 43.6 178.6 43.6 C 180.1 43.6 181.6 42.4 182.3 40.6 Z M 220.4 47.4 C 220.4 47.4 220.44 26.76 220.4 26.8 C 220.4 24.6 219.7 23.7 218.2 23.7 C 216.4 23.7 214.9 25.7 214.3 27.5 C 214.32 27.48 214.3 47.4 214.3 47.4 L 207.5 47.4 C 207.5 47.4 207.48 26.76 207.5 26.8 C 207.5 24.8 206.8 23.7 205.3 23.7 C 203.5 23.7 202 25.7 201.4 27.5 C 201.36 27.48 201.4 47.4 201.4 47.4 L 194.6 47.4 L 194.6 18.4 L 201.4 18.4 C 201.4 18.4 201.36 22.2 201.4 22.2 C 202.4 20 205.4 17.7 208.1 17.7 C 211.2 17.7 213.6 19.2 214.1 22.5 C 215.2 20.1 218.2 17.7 221.1 17.7 C 224.7 17.7 227.2 19.6 227.2 24.3 C 227.22 24.3 227.2 47.4 227.2 47.4 L 220.4 47.4 Z M 240.5 44.2 C 240.5 44.2 243.8 38.2 243.8 38.2 C 245.4 40.3 248 41.4 250.3 41.4 C 252.7 41.4 254.3 39.6 254.3 37 C 254.3 29.9 241.6 29.9 241.6 17.9 C 241.6 11.9 245.7 6.7 252.8 6.7 C 256.1 6.7 259.3 7.9 261.5 10 C 261.5 10 258.5 15.8 258.5 15.8 C 257 14.2 255.1 13.4 253 13.4 C 250.9 13.4 249.3 15.1 249.3 17.5 C 249.3 23.7 262 24.5 262 36.5 C 262 43.3 257.6 48.1 250.8 48.1 C 246.4 48.1 243.1 46.7 240.5 44.2 Z M 266.3 47.4 L 266.3 7.4 L 273.1 7.4 L 273.1 47.4 L 266.3 47.4 Z M 277.7 10.9 C 277.7 8.6 279.7 6.8 281.9 6.8 C 284.2 6.8 286 8.6 286 10.9 C 286 13.2 284.2 15 281.9 15 C 279.7 15 277.7 13.2 277.7 10.9 Z M 278.5 47.4 L 278.5 18.4 L 285.3 18.4 L 285.3 47.4 L 278.5 47.4 Z M 289.6 32.9 C 289.6 24.1 293.7 17.7 300.7 17.7 C 303.9 17.7 306.3 18.9 307.7 20.3 C 307.7 20.3 305.5 25.6 305.5 25.6 C 304.3 24.3 303.2 23.7 301.9 23.7 C 298.3 23.7 296.6 27.8 296.6 32.9 C 296.6 37.9 298.3 42.1 301.9 42.1 C 303.2 42.1 304.3 41.5 305.5 40.3 C 305.5 40.3 307.7 45.5 307.7 45.5 C 306.3 47 303.9 48.1 300.7 48.1 C 293.7 48.1 289.6 41.7 289.6 32.9 Z M 310.3 32.9 C 310.3 24.5 313.9 17.7 321.1 17.7 C 328.4 17.7 331.5 24.2 331.5 32.8 C 331.49 32.76 331.5 35.1 331.5 35.1 C 331.5 35.1 316.79 35.1 316.8 35.1 C 316.9 39.4 318.7 42.6 322.5 42.6 C 324.1 42.6 326 41.5 327.3 39.7 C 327.3 39.7 330.6 43.5 330.6 43.5 C 328.3 46.4 325.1 48.1 321.8 48.1 C 314.2 48.1 310.3 41.8 310.3 32.9 Z M 320.9 23.2 C 317.6 23.2 316.8 27.3 316.8 30.4 C 316.8 30.4 325 30.4 325 30.4 C 325 27.1 324.2 23.2 320.9 23.2 Z M 333.6 44.3 C 333.6 44.3 336.4 39.7 336.4 39.7 C 338 41.4 340.1 42.8 342.4 42.8 C 344.6 42.8 346.1 41.6 346.1 39.7 C 346.1 34.9 334.6 36 334.6 25.9 C 334.6 21.5 337.9 17.7 343.9 17.7 C 347.2 17.7 350.2 19 352.4 21.1 C 352.4 21.1 349.6 25.7 349.6 25.7 C 348.5 24.3 346.4 23 344 23 C 342.2 23 340.9 24.2 340.9 25.7 C 340.9 30.1 352.5 29.3 352.5 39.5 C 352.5 44.6 348.5 48.1 343 48.1 C 338.7 48.1 335.5 46.6 333.6 44.3 Z " stroke="none" fill="#b13d24"/>  </g></svg>