<?xml version="1.0" standalone="no"?><!DOCTYPE svg PUBLIC "-//W3C//DTD SVG 1.1//EN" "http://www.w3.org/Graphics/SVG/1.1/DTD/svg11.dtd"><svg xmlns="http://www.w3.org/2000/svg" version="1.1" width="219px" height="517.3px" viewBox="0 0 219 517.3">  <desc>500 ml tbsp 3 ml 5 tbsp 125 ml 70 ml 5 g 10 g 8 ml 12 ml 2 tsp to taste optional to taste</desc>  <defs/>  <g id="Polygon151145">    <path d="M 2.4 497.8 C 2.4 497.79 2.4 488.1 2.4 488.1 L 0.5 488.1 L 0.5 486.2 L 2.4 486.2 L 2.4 482.3 L 4.6 482.3 L 4.6 486.2 L 7 486.2 L 7 488.1 L 4.6 488.1 C 4.6 488.1 4.56 497.4 4.6 497.4 C 4.6 498.5 4.9 499.1 5.7 499.1 C 6.3 499.1 6.7 498.9 7 498.6 C 7 498.6 7.6 500.2 7.6 500.2 C 7.1 500.7 6.4 501.1 5.3 501.1 C 3.3 501.1 2.4 500 2.4 497.8 Z M 9.1 493.4 C 9.1 489.4 11.2 485.9 15 485.9 C 18.9 485.9 20.9 489.4 20.9 493.4 C 20.9 497.5 18.9 501.1 15 501.1 C 11.2 501.1 9.1 497.5 9.1 493.4 Z M 18.7 493.4 C 18.7 490.5 17.6 487.8 15 487.8 C 12.5 487.8 11.4 490.5 11.4 493.4 C 11.4 496.4 12.5 499.1 15 499.1 C 17.6 499.1 18.7 496.4 18.7 493.4 Z M 31 497.8 C 31.05 497.79 31 488.1 31 488.1 L 29.1 488.1 L 29.1 486.2 L 31 486.2 L 31 482.3 L 33.2 482.3 L 33.2 486.2 L 35.7 486.2 L 35.7 488.1 L 33.2 488.1 C 33.2 488.1 33.21 497.4 33.2 497.4 C 33.2 498.5 33.5 499.1 34.4 499.1 C 34.9 499.1 35.4 498.9 35.6 498.6 C 35.6 498.6 36.3 500.2 36.3 500.2 C 35.8 500.7 35.1 501.1 34 501.1 C 32 501.1 31 500 31 497.8 Z M 46 500.7 C 46 500.7 45.96 499.14 46 499.1 C 45 500.5 43.6 501.1 42.1 501.1 C 39.8 501.1 37.8 499.3 37.8 496.2 C 37.8 493.2 39.8 491.5 42.1 491.5 C 43.6 491.5 45.1 492 46 493.3 C 46 493.3 46 490.8 46 490.8 C 46 488.8 44.9 487.7 43 487.7 C 41.6 487.7 40.5 488.2 39.4 489.5 C 39.4 489.5 38.4 488 38.4 488 C 39.8 486.5 41.5 485.9 43.3 485.9 C 46.2 485.9 48.1 487.3 48.1 490.6 C 48.12 490.56 48.1 500.7 48.1 500.7 L 46 500.7 Z M 46 497.7 C 46 497.7 46 494.9 46 494.9 C 45.3 493.7 44.1 493.1 42.8 493.1 C 41 493.1 40 494.5 40 496.3 C 40 498.1 41 499.5 42.8 499.5 C 44.1 499.5 45.3 498.9 46 497.7 Z M 50.9 499 C 50.9 499 52 497.5 52 497.5 C 52.8 498.5 54.2 499.3 55.7 499.3 C 57.4 499.3 58.5 498.4 58.5 497 C 58.5 493.6 51.3 494.8 51.3 489.8 C 51.3 487.6 53 485.9 55.9 485.9 C 57.8 485.9 59.3 486.6 60.3 487.7 C 60.3 487.7 59.3 489.2 59.3 489.2 C 58.6 488.2 57.4 487.6 55.9 487.6 C 54.4 487.6 53.4 488.5 53.4 489.7 C 53.4 492.8 60.6 491.7 60.6 496.9 C 60.6 499.3 58.7 501.1 55.8 501.1 C 53.7 501.1 52.1 500.4 50.9 499 Z M 64.1 497.8 C 64.08 497.79 64.1 488.1 64.1 488.1 L 62.2 488.1 L 62.2 486.2 L 64.1 486.2 L 64.1 482.3 L 66.2 482.3 L 66.2 486.2 L 68.7 486.2 L 68.7 488.1 L 66.2 488.1 C 66.2 488.1 66.24 497.4 66.2 497.4 C 66.2 498.5 66.6 499.1 67.4 499.1 C 67.9 499.1 68.4 498.9 68.7 498.6 C 68.7 498.6 69.3 500.2 69.3 500.2 C 68.8 500.7 68.1 501.1 67 501.1 C 65 501.1 64.1 500 64.1 497.8 Z M 70.8 493.4 C 70.8 489.2 73 485.9 76.7 485.9 C 80.5 485.9 82.4 489.3 82.4 493.5 C 82.44 493.5 82.4 494.2 82.4 494.2 C 82.4 494.2 73.05 494.16 73 494.2 C 73.1 497.1 74.6 499.3 77.2 499.3 C 78.5 499.3 79.8 498.6 80.7 497.5 C 80.7 497.5 81.8 498.8 81.8 498.8 C 80.6 500.2 79 501.1 77 501.1 C 73.2 501.1 70.8 497.9 70.8 493.4 Z M 76.7 487.7 C 74.1 487.7 73.1 490.4 73 492.6 C 73 492.6 80.3 492.6 80.3 492.6 C 80.3 490.4 79.3 487.7 76.7 487.7 Z " stroke="none" fill="#d0d1d4"/>  </g>  <g id="Polygon151144">    <path d="M 1.3 457.4 C 1.3 453.4 3.3 449.9 7.1 449.9 C 11 449.9 13 453.4 13 457.4 C 13 461.5 11 465.1 7.1 465.1 C 3.3 465.1 1.3 461.5 1.3 457.4 Z M 10.8 457.4 C 10.8 454.5 9.7 451.8 7.1 451.8 C 4.7 451.8 3.5 454.5 3.5 457.4 C 3.5 460.4 4.7 463.1 7.1 463.1 C 9.7 463.1 10.8 460.4 10.8 457.4 Z M 18.4 462.6 C 18.42 462.6 18.4 470.2 18.4 470.2 L 16.3 470.2 L 16.3 450.2 L 18.4 450.2 C 18.4 450.2 18.42 452.28 18.4 452.3 C 19.3 450.8 20.7 449.9 22.2 449.9 C 25.5 449.9 27.4 452.9 27.4 457.4 C 27.4 462 25.5 465.1 22.2 465.1 C 20.8 465.1 19.3 464.2 18.4 462.6 Z M 25.2 457.4 C 25.2 454.3 24.1 451.8 21.7 451.8 C 20.3 451.8 19 452.9 18.4 454.1 C 18.4 454.1 18.4 460.7 18.4 460.7 C 19 462 20.3 463.1 21.7 463.1 C 24.1 463.1 25.2 460.6 25.2 457.4 Z M 31 461.8 C 31.05 461.79 31 452.1 31 452.1 L 29.1 452.1 L 29.1 450.2 L 31 450.2 L 31 446.3 L 33.2 446.3 L 33.2 450.2 L 35.7 450.2 L 35.7 452.1 L 33.2 452.1 C 33.2 452.1 33.21 461.4 33.2 461.4 C 33.2 462.5 33.5 463.1 34.4 463.1 C 34.9 463.1 35.4 462.9 35.6 462.6 C 35.6 462.6 36.3 464.2 36.3 464.2 C 35.8 464.7 35.1 465.1 34 465.1 C 32 465.1 31 464 31 461.8 Z M 38.1 446.6 C 38.1 445.8 38.8 445.2 39.6 445.2 C 40.4 445.2 41 445.8 41 446.6 C 41 447.5 40.4 448.1 39.6 448.1 C 38.8 448.1 38.1 447.5 38.1 446.6 Z M 38.5 464.7 L 38.5 450.2 L 40.6 450.2 L 40.6 464.7 L 38.5 464.7 Z M 43.9 457.4 C 43.9 453.4 45.9 449.9 49.8 449.9 C 53.7 449.9 55.7 453.4 55.7 457.4 C 55.7 461.5 53.7 465.1 49.8 465.1 C 45.9 465.1 43.9 461.5 43.9 457.4 Z M 53.4 457.4 C 53.4 454.5 52.3 451.8 49.8 451.8 C 47.3 451.8 46.1 454.5 46.1 457.4 C 46.1 460.4 47.3 463.1 49.8 463.1 C 52.3 463.1 53.4 460.4 53.4 457.4 Z M 66.7 464.7 C 66.7 464.7 66.75 454.38 66.7 454.4 C 66.7 452.5 65.9 451.8 64.4 451.8 C 63 451.8 61.7 452.9 61 454.1 C 61.05 454.08 61 464.7 61 464.7 L 58.9 464.7 L 58.9 450.2 L 61 450.2 C 61 450.2 61.05 452.28 61 452.3 C 61.9 451 63.5 449.9 65.2 449.9 C 67.7 449.9 68.9 451.2 68.9 453.8 C 68.91 453.78 68.9 464.7 68.9 464.7 L 66.7 464.7 Z M 80.3 464.7 C 80.3 464.7 80.31 463.14 80.3 463.1 C 79.4 464.5 78 465.1 76.5 465.1 C 74.2 465.1 72.1 463.3 72.1 460.2 C 72.1 457.2 74.1 455.5 76.5 455.5 C 78 455.5 79.4 456 80.3 457.3 C 80.3 457.3 80.3 454.8 80.3 454.8 C 80.3 452.8 79.2 451.7 77.3 451.7 C 76 451.7 74.8 452.2 73.7 453.5 C 73.7 453.5 72.7 452 72.7 452 C 74.1 450.5 75.8 449.9 77.7 449.9 C 80.5 449.9 82.5 451.3 82.5 454.6 C 82.47 454.56 82.5 464.7 82.5 464.7 L 80.3 464.7 Z M 80.3 461.7 C 80.3 461.7 80.3 458.9 80.3 458.9 C 79.6 457.7 78.4 457.1 77.2 457.1 C 75.4 457.1 74.3 458.5 74.3 460.3 C 74.3 462.1 75.4 463.5 77.2 463.5 C 78.4 463.5 79.6 462.9 80.3 461.7 Z M 86.4 464.7 L 86.4 444.7 L 88.5 444.7 L 88.5 464.7 L 86.4 464.7 Z " stroke="none" fill="#d0d1d4"/>  </g>  <g id="Polygon151143">    <path d="M 2.4 425.8 C 2.4 425.79 2.4 416.1 2.4 416.1 L 0.5 416.1 L 0.5 414.2 L 2.4 414.2 L 2.4 410.3 L 4.6 410.3 L 4.6 414.2 L 7 414.2 L 7 416.1 L 4.6 416.1 C 4.6 416.1 4.56 425.4 4.6 425.4 C 4.6 426.5 4.9 427.1 5.7 427.1 C 6.3 427.1 6.7 426.9 7 426.6 C 7 426.6 7.6 428.2 7.6 428.2 C 7.1 428.7 6.4 429.1 5.3 429.1 C 3.3 429.1 2.4 428 2.4 425.8 Z M 9.1 421.4 C 9.1 417.4 11.2 413.9 15 413.9 C 18.9 413.9 20.9 417.4 20.9 421.4 C 20.9 425.5 18.9 429.1 15 429.1 C 11.2 429.1 9.1 425.5 9.1 421.4 Z M 18.7 421.4 C 18.7 418.5 17.6 415.8 15 415.8 C 12.5 415.8 11.4 418.5 11.4 421.4 C 11.4 424.4 12.5 427.1 15 427.1 C 17.6 427.1 18.7 424.4 18.7 421.4 Z M 31 425.8 C 31.05 425.79 31 416.1 31 416.1 L 29.1 416.1 L 29.1 414.2 L 31 414.2 L 31 410.3 L 33.2 410.3 L 33.2 414.2 L 35.7 414.2 L 35.7 416.1 L 33.2 416.1 C 33.2 416.1 33.21 425.4 33.2 425.4 C 33.2 426.5 33.5 427.1 34.4 427.1 C 34.9 427.1 35.4 426.9 35.6 426.6 C 35.6 426.6 36.3 428.2 36.3 428.2 C 35.8 428.7 35.1 429.1 34 429.1 C 32 429.1 31 428 31 425.8 Z M 46 428.7 C 46 428.7 45.96 427.14 46 427.1 C 45 428.5 43.6 429.1 42.1 429.1 C 39.8 429.1 37.8 427.3 37.8 424.2 C 37.8 421.2 39.8 419.5 42.1 419.5 C 43.6 419.5 45.1 420 46 421.3 C 46 421.3 46 418.8 46 418.8 C 46 416.8 44.9 415.7 43 415.7 C 41.6 415.7 40.5 416.2 39.4 417.5 C 39.4 417.5 38.4 416 38.4 416 C 39.8 414.5 41.5 413.9 43.3 413.9 C 46.2 413.9 48.1 415.3 48.1 418.6 C 48.12 418.56 48.1 428.7 48.1 428.7 L 46 428.7 Z M 46 425.7 C 46 425.7 46 422.9 46 422.9 C 45.3 421.7 44.1 421.1 42.8 421.1 C 41 421.1 40 422.5 40 424.3 C 40 426.1 41 427.5 42.8 427.5 C 44.1 427.5 45.3 426.9 46 425.7 Z M 50.9 427 C 50.9 427 52 425.5 52 425.5 C 52.8 426.5 54.2 427.3 55.7 427.3 C 57.4 427.3 58.5 426.4 58.5 425 C 58.5 421.6 51.3 422.8 51.3 417.8 C 51.3 415.6 53 413.9 55.9 413.9 C 57.8 413.9 59.3 414.6 60.3 415.7 C 60.3 415.7 59.3 417.2 59.3 417.2 C 58.6 416.2 57.4 415.6 55.9 415.6 C 54.4 415.6 53.4 416.5 53.4 417.7 C 53.4 420.8 60.6 419.7 60.6 424.9 C 60.6 427.3 58.7 429.1 55.8 429.1 C 53.7 429.1 52.1 428.4 50.9 427 Z M 64.1 425.8 C 64.08 425.79 64.1 416.1 64.1 416.1 L 62.2 416.1 L 62.2 414.2 L 64.1 414.2 L 64.1 410.3 L 66.2 410.3 L 66.2 414.2 L 68.7 414.2 L 68.7 416.1 L 66.2 416.1 C 66.2 416.1 66.24 425.4 66.2 425.4 C 66.2 426.5 66.6 427.1 67.4 427.1 C 67.9 427.1 68.4 426.9 68.7 426.6 C 68.7 426.6 69.3 428.2 69.3 428.2 C 68.8 428.7 68.1 429.1 67 429.1 C 65 429.1 64.1 428 64.1 425.8 Z M 70.8 421.4 C 70.8 417.2 73 413.9 76.7 413.9 C 80.5 413.9 82.4 417.3 82.4 421.5 C 82.44 421.5 82.4 422.2 82.4 422.2 C 82.4 422.2 73.05 422.16 73 422.2 C 73.1 425.1 74.6 427.3 77.2 427.3 C 78.5 427.3 79.8 426.6 80.7 425.5 C 80.7 425.5 81.8 426.8 81.8 426.8 C 80.6 428.2 79 429.1 77 429.1 C 73.2 429.1 70.8 425.9 70.8 421.4 Z M 76.7 415.7 C 74.1 415.7 73.1 418.4 73 420.6 C 73 420.6 80.3 420.6 80.3 420.6 C 80.3 418.4 79.3 415.7 76.7 415.7 Z " stroke="none" fill="#d0d1d4"/>  </g>  <g id="Polygon151142">    <path d="M 1.6 392.7 C 1.6 392.7 1.59 390.75 1.6 390.8 C 8.1 383.2 10.4 380.8 10.4 377.9 C 10.4 375.7 8.9 374.5 7.2 374.5 C 5.3 374.5 3.9 375.5 2.9 377 C 2.9 377 1.4 375.6 1.4 375.6 C 2.7 373.6 4.7 372.4 7.2 372.4 C 10.3 372.4 12.8 374.4 12.8 377.9 C 12.8 381.2 10.3 384.2 5 390.6 C 4.98 390.57 12.9 390.6 12.9 390.6 L 12.9 392.7 L 1.6 392.7 Z M 23.5 389.8 C 23.52 389.79 23.5 380.1 23.5 380.1 L 21.6 380.1 L 21.6 378.2 L 23.5 378.2 L 23.5 374.3 L 25.7 374.3 L 25.7 378.2 L 28.1 378.2 L 28.1 380.1 L 25.7 380.1 C 25.7 380.1 25.68 389.4 25.7 389.4 C 25.7 390.5 26 391.1 26.8 391.1 C 27.4 391.1 27.8 390.9 28.1 390.6 C 28.1 390.6 28.8 392.2 28.8 392.2 C 28.3 392.7 27.5 393.1 26.4 393.1 C 24.4 393.1 23.5 392 23.5 389.8 Z M 29.8 391 C 29.8 391 30.9 389.5 30.9 389.5 C 31.7 390.5 33.1 391.3 34.7 391.3 C 36.4 391.3 37.5 390.4 37.5 389 C 37.5 385.6 30.2 386.8 30.2 381.8 C 30.2 379.6 32 377.9 34.9 377.9 C 36.8 377.9 38.2 378.6 39.3 379.7 C 39.3 379.7 38.2 381.2 38.2 381.2 C 37.5 380.2 36.3 379.6 34.9 379.6 C 33.3 379.6 32.3 380.5 32.3 381.7 C 32.3 384.8 39.5 383.7 39.5 388.9 C 39.5 391.3 37.7 393.1 34.7 393.1 C 32.7 393.1 31 392.4 29.8 391 Z M 44.7 390.6 C 44.73 390.6 44.7 398.2 44.7 398.2 L 42.6 398.2 L 42.6 378.2 L 44.7 378.2 C 44.7 378.2 44.73 380.28 44.7 380.3 C 45.6 378.8 47 377.9 48.5 377.9 C 51.8 377.9 53.7 380.9 53.7 385.4 C 53.7 390 51.8 393.1 48.5 393.1 C 47.1 393.1 45.6 392.2 44.7 390.6 Z M 51.5 385.4 C 51.5 382.3 50.4 379.8 48 379.8 C 46.6 379.8 45.3 380.9 44.7 382.1 C 44.7 382.1 44.7 388.7 44.7 388.7 C 45.3 390 46.6 391.1 48 391.1 C 50.4 391.1 51.5 388.6 51.5 385.4 Z M 56.6 391.4 C 56.6 390.5 57.3 389.8 58.2 389.8 C 59 389.8 59.8 390.5 59.8 391.4 C 59.8 392.3 59 393 58.2 393 C 57.3 393 56.6 392.3 56.6 391.4 Z " stroke="none" fill="#d0d1d4"/>  </g>  <g id="Polygon151141">    <path d="M 5 356.7 L 5 339.8 L 1.9 343.1 L 0.4 341.6 L 5.3 336.7 L 7.3 336.7 L 7.3 356.7 L 5 356.7 Z M 11 356.7 C 11 356.7 11.04 354.75 11 354.8 C 17.6 347.2 19.8 344.8 19.8 341.9 C 19.8 339.7 18.3 338.5 16.6 338.5 C 14.7 338.5 13.3 339.5 12.4 341 C 12.4 341 10.8 339.6 10.8 339.6 C 12.1 337.6 14.1 336.4 16.6 336.4 C 19.7 336.4 22.3 338.4 22.3 341.9 C 22.3 345.2 19.7 348.2 14.4 354.6 C 14.43 354.57 22.3 354.6 22.3 354.6 L 22.3 356.7 L 11 356.7 Z M 47.2 356.7 C 47.2 356.7 47.19 346.2 47.2 346.2 C 47.2 344.6 46.6 343.8 45.2 343.8 C 43.9 343.8 42.6 344.9 42 346.1 C 42.03 346.08 42 356.7 42 356.7 L 39.9 356.7 C 39.9 356.7 39.87 346.2 39.9 346.2 C 39.9 344.6 39.2 343.8 37.8 343.8 C 36.5 343.8 35.3 344.9 34.7 346.1 C 34.68 346.08 34.7 356.7 34.7 356.7 L 32.5 356.7 L 32.5 342.2 L 34.7 342.2 C 34.7 342.2 34.68 344.28 34.7 344.3 C 35.3 343.2 36.9 341.9 38.6 341.9 C 40.5 341.9 41.6 342.9 41.9 344.4 C 42.6 343.1 44.2 341.9 46 341.9 C 48.1 341.9 49.3 343 49.3 345.6 C 49.35 345.63 49.3 356.7 49.3 356.7 L 47.2 356.7 Z M 53.3 356.7 L 53.3 336.7 L 55.4 336.7 L 55.4 356.7 L 53.3 356.7 Z " stroke="none" fill="#d0d1d4"/>  </g>  <g id="Polygon151140">    <path d="M 1.4 315.8 C 1.4 313.1 3.4 311.1 5.3 310.4 C 3.5 309.7 1.6 308 1.6 305.5 C 1.6 302 4.4 300.4 7.3 300.4 C 10.2 300.4 13 302 13 305.5 C 13 308 11.1 309.7 9.3 310.4 C 11.2 311.1 13.2 313.1 13.2 315.8 C 13.2 319.1 10.8 321.1 7.3 321.1 C 3.8 321.1 1.4 319.1 1.4 315.8 Z M 10.6 305.8 C 10.6 303.8 9.2 302.5 7.3 302.5 C 5.3 302.5 4 303.8 4 305.8 C 4 308.3 6.5 309.3 7.3 309.5 C 8.1 309.3 10.6 308.3 10.6 305.8 Z M 10.8 315.5 C 10.8 312.8 8.1 311.5 7.3 311.4 C 6.4 311.5 3.8 312.8 3.8 315.5 C 3.8 317.7 5.3 318.9 7.3 318.9 C 9.2 318.9 10.8 317.7 10.8 315.5 Z M 37.6 320.7 C 37.6 320.7 37.65 310.2 37.6 310.2 C 37.6 308.6 37 307.8 35.6 307.8 C 34.3 307.8 33.1 308.9 32.5 310.1 C 32.49 310.08 32.5 320.7 32.5 320.7 L 30.3 320.7 C 30.3 320.7 30.33 310.2 30.3 310.2 C 30.3 308.6 29.7 307.8 28.3 307.8 C 27 307.8 25.8 308.9 25.1 310.1 C 25.14 310.08 25.1 320.7 25.1 320.7 L 23 320.7 L 23 306.2 L 25.1 306.2 C 25.1 306.2 25.14 308.28 25.1 308.3 C 25.7 307.2 27.4 305.9 29.1 305.9 C 31 305.9 32.1 306.9 32.4 308.4 C 33.1 307.1 34.7 305.9 36.4 305.9 C 38.6 305.9 39.8 307 39.8 309.6 C 39.81 309.63 39.8 320.7 39.8 320.7 L 37.6 320.7 Z M 43.8 320.7 L 43.8 300.7 L 45.9 300.7 L 45.9 320.7 L 43.8 320.7 Z " stroke="none" fill="#d0d1d4"/>  </g>  <g id="Polygon151139">    <path d="M 5 284.7 L 5 267.8 L 1.9 271.1 L 0.4 269.6 L 5.3 264.7 L 7.3 264.7 L 7.3 284.7 L 5 284.7 Z M 10.9 274.7 C 10.9 269.9 12.4 264.4 17.1 264.4 C 21.8 264.4 23.4 269.9 23.4 274.7 C 23.4 279.5 21.8 285.1 17.1 285.1 C 12.4 285.1 10.9 279.5 10.9 274.7 Z M 21 274.7 C 21 270.8 20.2 266.5 17.1 266.5 C 14.1 266.5 13.3 270.8 13.3 274.7 C 13.3 278.6 14 282.9 17.1 282.9 C 20.2 282.9 21 278.6 21 274.7 Z M 33.1 288.8 C 33.1 288.8 34.1 287.1 34.1 287.1 C 35.1 288.2 36.3 288.8 37.9 288.8 C 39.9 288.8 41.5 287.6 41.5 284.8 C 41.5 284.8 41.5 282.4 41.5 282.4 C 40.7 283.9 39.2 284.9 37.7 284.9 C 34.5 284.9 32.5 281.9 32.5 277.4 C 32.5 272.9 34.4 269.9 37.7 269.9 C 39.2 269.9 40.6 270.7 41.5 272.3 C 41.52 272.31 41.5 270.2 41.5 270.2 L 43.7 270.2 C 43.7 270.2 43.68 284.67 43.7 284.7 C 43.7 289.1 41 290.6 37.9 290.6 C 36 290.6 34.5 290.1 33.1 288.8 Z M 41.5 280.6 C 41.5 280.6 41.5 274.1 41.5 274.1 C 41 272.9 39.6 271.8 38.2 271.8 C 35.9 271.8 34.8 274.3 34.8 277.4 C 34.8 280.5 35.9 283 38.2 283 C 39.6 283 41 281.8 41.5 280.6 Z " stroke="none" fill="#d0d1d4"/>  </g>  <g id="Polygon151138">    <path d="M 1.6 245.8 C 1.6 245.8 3.1 244.4 3.1 244.4 C 4.1 246 5.4 246.9 7.4 246.9 C 9.6 246.9 10.9 244.9 10.9 242.6 C 10.9 239.7 9.6 238.2 7.5 238.2 C 6.1 238.2 5 238.7 3.9 240 C 3.9 240.03 2.1 239.4 2.1 239.4 L 2.1 228.7 L 12.3 228.7 L 12.3 230.8 L 4.5 230.8 C 4.5 230.8 4.5 237.81 4.5 237.8 C 5.3 236.9 6.6 236.1 8.2 236.1 C 11.1 236.1 13.4 238.4 13.4 242.5 C 13.4 246.3 10.9 249.1 7.4 249.1 C 4.5 249.1 2.8 247.8 1.6 245.8 Z M 23 252.8 C 23 252.8 24 251.1 24 251.1 C 25 252.2 26.2 252.8 27.8 252.8 C 29.8 252.8 31.4 251.6 31.4 248.8 C 31.4 248.8 31.4 246.4 31.4 246.4 C 30.6 247.9 29.2 248.9 27.6 248.9 C 24.4 248.9 22.4 245.9 22.4 241.4 C 22.4 236.9 24.4 233.9 27.6 233.9 C 29.1 233.9 30.5 234.7 31.4 236.3 C 31.44 236.31 31.4 234.2 31.4 234.2 L 33.6 234.2 C 33.6 234.2 33.6 248.67 33.6 248.7 C 33.6 253.1 30.9 254.6 27.9 254.6 C 25.9 254.6 24.4 254.1 23 252.8 Z M 31.4 244.6 C 31.4 244.6 31.4 238.1 31.4 238.1 C 30.9 236.9 29.5 235.8 28.2 235.8 C 25.8 235.8 24.7 238.3 24.7 241.4 C 24.7 244.5 25.8 247 28.2 247 C 29.5 247 30.9 245.8 31.4 244.6 Z " stroke="none" fill="#d0d1d4"/>  </g>  <g id="Polygon151137">    <path d="M 3 212.7 L 9.2 194.8 L 0.8 194.8 L 0.8 192.7 L 11.9 192.7 L 11.9 194.3 L 5.5 212.7 L 3 212.7 Z M 14.1 202.7 C 14.1 197.9 15.7 192.4 20.3 192.4 C 25 192.4 26.6 197.9 26.6 202.7 C 26.6 207.5 25 213.1 20.3 213.1 C 15.7 213.1 14.1 207.5 14.1 202.7 Z M 24.2 202.7 C 24.2 198.8 23.4 194.5 20.3 194.5 C 17.3 194.5 16.5 198.8 16.5 202.7 C 16.5 206.6 17.2 210.9 20.3 210.9 C 23.4 210.9 24.2 206.6 24.2 202.7 Z M 51.1 212.7 C 51.1 212.7 51.09 202.2 51.1 202.2 C 51.1 200.6 50.5 199.8 49.1 199.8 C 47.8 199.8 46.5 200.9 45.9 202.1 C 45.93 202.08 45.9 212.7 45.9 212.7 L 43.8 212.7 C 43.8 212.7 43.77 202.2 43.8 202.2 C 43.8 200.6 43.1 199.8 41.7 199.8 C 40.4 199.8 39.2 200.9 38.6 202.1 C 38.58 202.08 38.6 212.7 38.6 212.7 L 36.4 212.7 L 36.4 198.2 L 38.6 198.2 C 38.6 198.2 38.58 200.28 38.6 200.3 C 39.2 199.2 40.8 197.9 42.5 197.9 C 44.4 197.9 45.5 198.9 45.8 200.4 C 46.5 199.1 48.1 197.9 49.9 197.9 C 52 197.9 53.2 199 53.2 201.6 C 53.25 201.63 53.2 212.7 53.2 212.7 L 51.1 212.7 Z M 57.2 212.7 L 57.2 192.7 L 59.3 192.7 L 59.3 212.7 L 57.2 212.7 Z " stroke="none" fill="#d0d1d4"/>  </g>  <g id="Polygon151136">    <path d="M 5 176.7 L 5 159.8 L 1.9 163.1 L 0.4 161.6 L 5.3 156.7 L 7.3 156.7 L 7.3 176.7 L 5 176.7 Z M 11 176.7 C 11 176.7 11.04 174.75 11 174.8 C 17.6 167.2 19.8 164.8 19.8 161.9 C 19.8 159.7 18.3 158.5 16.6 158.5 C 14.7 158.5 13.3 159.5 12.4 161 C 12.4 161 10.8 159.6 10.8 159.6 C 12.1 157.6 14.1 156.4 16.6 156.4 C 19.7 156.4 22.3 158.4 22.3 161.9 C 22.3 165.2 19.7 168.2 14.4 174.6 C 14.43 174.57 22.3 174.6 22.3 174.6 L 22.3 176.7 L 11 176.7 Z M 25.7 173.8 C 25.7 173.8 27.3 172.4 27.3 172.4 C 28.2 174 29.5 174.9 31.5 174.9 C 33.7 174.9 35.1 172.9 35.1 170.6 C 35.1 167.7 33.7 166.2 31.6 166.2 C 30.2 166.2 29.1 166.7 28 168 C 28.02 168.03 26.2 167.4 26.2 167.4 L 26.2 156.7 L 36.4 156.7 L 36.4 158.8 L 28.6 158.8 C 28.6 158.8 28.62 165.81 28.6 165.8 C 29.4 164.9 30.7 164.1 32.3 164.1 C 35.2 164.1 37.5 166.4 37.5 170.5 C 37.5 174.3 35 177.1 31.6 177.1 C 28.6 177.1 26.9 175.8 25.7 173.8 Z M 61.9 176.7 C 61.9 176.7 61.92 166.2 61.9 166.2 C 61.9 164.6 61.3 163.8 59.9 163.8 C 58.6 163.8 57.3 164.9 56.8 166.1 C 56.76 166.08 56.8 176.7 56.8 176.7 L 54.6 176.7 C 54.6 176.7 54.6 166.2 54.6 166.2 C 54.6 164.6 54 163.8 52.6 163.8 C 51.3 163.8 50 164.9 49.4 166.1 C 49.41 166.08 49.4 176.7 49.4 176.7 L 47.3 176.7 L 47.3 162.2 L 49.4 162.2 C 49.4 162.2 49.41 164.28 49.4 164.3 C 50 163.2 51.6 161.9 53.4 161.9 C 55.2 161.9 56.4 162.9 56.6 164.4 C 57.4 163.1 59 161.9 60.7 161.9 C 62.8 161.9 64.1 163 64.1 165.6 C 64.08 165.63 64.1 176.7 64.1 176.7 L 61.9 176.7 Z M 68 176.7 L 68 156.7 L 70.2 156.7 L 70.2 176.7 L 68 176.7 Z " stroke="none" fill="#d0d1d4"/>  </g>  <g id="Polygon151135">    <path d="M 1.6 137.8 C 1.6 137.8 3.1 136.4 3.1 136.4 C 4.1 138 5.4 138.9 7.4 138.9 C 9.6 138.9 10.9 136.9 10.9 134.6 C 10.9 131.7 9.6 130.2 7.5 130.2 C 6.1 130.2 5 130.7 3.9 132 C 3.9 132.03 2.1 131.4 2.1 131.4 L 2.1 120.7 L 12.3 120.7 L 12.3 122.8 L 4.5 122.8 C 4.5 122.8 4.5 129.81 4.5 129.8 C 5.3 128.9 6.6 128.1 8.2 128.1 C 11.1 128.1 13.4 130.4 13.4 134.5 C 13.4 138.3 10.9 141.1 7.4 141.1 C 4.5 141.1 2.8 139.8 1.6 137.8 Z M 23.6 137.8 C 23.58 137.79 23.6 128.1 23.6 128.1 L 21.7 128.1 L 21.7 126.2 L 23.6 126.2 L 23.6 122.3 L 25.7 122.3 L 25.7 126.2 L 28.2 126.2 L 28.2 128.1 L 25.7 128.1 C 25.7 128.1 25.74 137.4 25.7 137.4 C 25.7 138.5 26.1 139.1 26.9 139.1 C 27.4 139.1 27.9 138.9 28.2 138.6 C 28.2 138.6 28.8 140.2 28.8 140.2 C 28.3 140.7 27.6 141.1 26.5 141.1 C 24.5 141.1 23.6 140 23.6 137.8 Z M 36.4 139.1 C 38.8 139.1 39.9 136.6 39.9 133.5 C 39.9 130.3 38.8 127.8 36.4 127.8 C 35.1 127.8 33.7 128.9 33.2 130.2 C 33.2 130.2 33.2 136.8 33.2 136.8 C 33.7 138.1 35.1 139.1 36.4 139.1 Z M 31 140.7 L 31 120.7 L 33.2 120.7 C 33.2 120.7 33.18 128.31 33.2 128.3 C 34.1 126.7 35.5 125.9 37 125.9 C 40.3 125.9 42.2 129 42.2 133.5 C 42.2 138 40.3 141.1 37 141.1 C 35.5 141.1 34 140.1 33.2 138.6 C 33.18 138.63 33.2 140.7 33.2 140.7 L 31 140.7 Z M 44.3 139 C 44.3 139 45.4 137.5 45.4 137.5 C 46.2 138.5 47.6 139.3 49.1 139.3 C 50.8 139.3 51.9 138.4 51.9 137 C 51.9 133.6 44.7 134.8 44.7 129.8 C 44.7 127.6 46.4 125.9 49.3 125.9 C 51.2 125.9 52.7 126.6 53.7 127.7 C 53.7 127.7 52.7 129.2 52.7 129.2 C 52 128.2 50.8 127.6 49.3 127.6 C 47.8 127.6 46.8 128.5 46.8 129.7 C 46.8 132.8 54 131.7 54 136.9 C 54 139.3 52.1 141.1 49.2 141.1 C 47.1 141.1 45.5 140.4 44.3 139 Z M 59.2 138.6 C 59.19 138.6 59.2 146.2 59.2 146.2 L 57.1 146.2 L 57.1 126.2 L 59.2 126.2 C 59.2 126.2 59.19 128.28 59.2 128.3 C 60 126.8 61.5 125.9 63 125.9 C 66.3 125.9 68.2 128.9 68.2 133.4 C 68.2 138 66.3 141.1 63 141.1 C 61.5 141.1 60.1 140.2 59.2 138.6 Z M 65.9 133.4 C 65.9 130.3 64.8 127.8 62.5 127.8 C 61.1 127.8 59.8 128.9 59.2 130.1 C 59.2 130.1 59.2 136.7 59.2 136.7 C 59.8 138 61.1 139.1 62.5 139.1 C 64.8 139.1 65.9 136.6 65.9 133.4 Z M 71 139.4 C 71 138.5 71.8 137.8 72.6 137.8 C 73.5 137.8 74.2 138.5 74.2 139.4 C 74.2 140.3 73.5 141 72.6 141 C 71.8 141 71 140.3 71 139.4 Z " stroke="none" fill="#d0d1d4"/>  </g>  <g id="Polygon151134">    <path d="M 0.9 101.7 C 0.9 101.7 2.4 100.3 2.4 100.3 C 3.4 101.8 4.8 102.9 6.7 102.9 C 9.1 102.9 10.3 101.4 10.3 99.1 C 10.3 96.4 8.6 95.5 6.5 95.5 C 5.9 95.5 5.2 95.5 4.9 95.5 C 4.9 95.5 4.9 93.4 4.9 93.4 C 5.2 93.4 6 93.4 6.5 93.4 C 8.5 93.4 10.1 92.3 10.1 90 C 10.1 87.7 8.7 86.5 6.7 86.5 C 4.9 86.5 3.6 87.5 2.6 88.9 C 2.6 88.9 1.1 87.5 1.1 87.5 C 2.3 85.6 4.3 84.4 6.8 84.4 C 10.1 84.4 12.5 86.2 12.5 89.7 C 12.5 92.2 10.7 93.9 8.9 94.4 C 10.7 94.6 12.8 96.4 12.8 99.3 C 12.8 102.6 10.6 105.1 6.8 105.1 C 4 105.1 1.9 103.6 0.9 101.7 Z M 37.3 104.7 C 37.3 104.7 37.26 94.2 37.3 94.2 C 37.3 92.6 36.6 91.8 35.2 91.8 C 34 91.8 32.7 92.9 32.1 94.1 C 32.1 94.08 32.1 104.7 32.1 104.7 L 29.9 104.7 C 29.9 104.7 29.94 94.2 29.9 94.2 C 29.9 92.6 29.3 91.8 27.9 91.8 C 26.6 91.8 25.4 92.9 24.7 94.1 C 24.75 94.08 24.7 104.7 24.7 104.7 L 22.6 104.7 L 22.6 90.2 L 24.7 90.2 C 24.7 90.2 24.75 92.28 24.7 92.3 C 25.3 91.2 27 89.9 28.7 89.9 C 30.6 89.9 31.7 90.9 32 92.4 C 32.7 91.1 34.3 89.9 36.1 89.9 C 38.2 89.9 39.4 91 39.4 93.6 C 39.42 93.63 39.4 104.7 39.4 104.7 L 37.3 104.7 Z M 43.4 104.7 L 43.4 84.7 L 45.5 84.7 L 45.5 104.7 L 43.4 104.7 Z " stroke="none" fill="#d0d1d4"/>  </g>  <g id="Polygon151133">    <path d="M 3.3 60.7 L 3.3 50.9 L 1.4 52.9 L 0.4 51.9 L 3.5 48.7 L 5.1 48.7 L 5.1 60.7 L 3.3 60.7 Z M 12.7 68.7 C 12.7 68.7 12.66 67.38 12.7 67.4 C 16.9 63.2 18.4 61.7 18.4 59.9 C 18.4 58.6 17.4 58 16.3 58 C 15.1 58 14.1 58.6 13.6 59.5 C 13.6 59.5 12.5 58.4 12.5 58.4 C 13.4 57.2 14.8 56.5 16.4 56.5 C 18.4 56.5 20.1 57.7 20.1 59.9 C 20.1 62 18.4 63.8 15 67.3 C 15 67.26 20.2 67.3 20.2 67.3 L 20.2 68.7 L 12.7 68.7 Z M 5 68.7 L 3.5 68.7 L 14 48.7 L 15.5 48.7 L 5 68.7 Z M 30.1 65.8 C 30.06 65.79 30.1 56.1 30.1 56.1 L 28.1 56.1 L 28.1 54.2 L 30.1 54.2 L 30.1 50.3 L 32.2 50.3 L 32.2 54.2 L 34.7 54.2 L 34.7 56.1 L 32.2 56.1 C 32.2 56.1 32.22 65.4 32.2 65.4 C 32.2 66.5 32.5 67.1 33.4 67.1 C 33.9 67.1 34.4 66.9 34.6 66.6 C 34.6 66.6 35.3 68.2 35.3 68.2 C 34.8 68.7 34.1 69.1 33 69.1 C 31 69.1 30.1 68 30.1 65.8 Z M 42.9 67.1 C 45.3 67.1 46.4 64.6 46.4 61.5 C 46.4 58.3 45.3 55.8 42.9 55.8 C 41.6 55.8 40.2 56.9 39.7 58.2 C 39.7 58.2 39.7 64.8 39.7 64.8 C 40.2 66.1 41.6 67.1 42.9 67.1 Z M 37.5 68.7 L 37.5 48.7 L 39.7 48.7 C 39.7 48.7 39.66 56.31 39.7 56.3 C 40.6 54.7 42 53.9 43.5 53.9 C 46.7 53.9 48.7 57 48.7 61.5 C 48.7 66 46.7 69.1 43.5 69.1 C 41.9 69.1 40.5 68.1 39.7 66.6 C 39.66 66.63 39.7 68.7 39.7 68.7 L 37.5 68.7 Z M 50.8 67 C 50.8 67 51.8 65.5 51.8 65.5 C 52.7 66.5 54.1 67.3 55.6 67.3 C 57.3 67.3 58.4 66.4 58.4 65 C 58.4 61.6 51.2 62.8 51.2 57.8 C 51.2 55.6 52.9 53.9 55.8 53.9 C 57.7 53.9 59.2 54.6 60.2 55.7 C 60.2 55.7 59.2 57.2 59.2 57.2 C 58.5 56.2 57.2 55.6 55.8 55.6 C 54.2 55.6 53.2 56.5 53.2 57.7 C 53.2 60.8 60.5 59.7 60.5 64.9 C 60.5 67.3 58.6 69.1 55.6 69.1 C 53.6 69.1 52 68.4 50.8 67 Z M 65.7 66.6 C 65.67 66.6 65.7 74.2 65.7 74.2 L 63.5 74.2 L 63.5 54.2 L 65.7 54.2 C 65.7 54.2 65.67 56.28 65.7 56.3 C 66.5 54.8 67.9 53.9 69.5 53.9 C 72.7 53.9 74.7 56.9 74.7 61.4 C 74.7 66 72.7 69.1 69.5 69.1 C 68 69.1 66.6 68.2 65.7 66.6 Z M 72.4 61.4 C 72.4 58.3 71.3 55.8 68.9 55.8 C 67.6 55.8 66.2 56.9 65.7 58.1 C 65.7 58.1 65.7 64.7 65.7 64.7 C 66.2 66 67.6 67.1 68.9 67.1 C 71.3 67.1 72.4 64.6 72.4 61.4 Z M 77.5 67.4 C 77.5 66.5 78.2 65.8 79.1 65.8 C 80 65.8 80.7 66.5 80.7 67.4 C 80.7 68.3 80 69 79.1 69 C 78.2 69 77.5 68.3 77.5 67.4 Z " stroke="none" fill="#d0d1d4"/>  </g>  <g id="Polygon151132">    <path d="M 1.6 29.8 C 1.6 29.8 3.1 28.4 3.1 28.4 C 4.1 30 5.4 30.9 7.4 30.9 C 9.6 30.9 10.9 28.9 10.9 26.6 C 10.9 23.7 9.6 22.2 7.5 22.2 C 6.1 22.2 5 22.7 3.9 24 C 3.9 24.03 2.1 23.4 2.1 23.4 L 2.1 12.7 L 12.3 12.7 L 12.3 14.8 L 4.5 14.8 C 4.5 14.8 4.5 21.81 4.5 21.8 C 5.3 20.9 6.6 20.1 8.2 20.1 C 11.1 20.1 13.4 22.4 13.4 26.5 C 13.4 30.3 10.9 33.1 7.4 33.1 C 4.5 33.1 2.8 31.8 1.6 29.8 Z M 16.1 22.7 C 16.1 17.9 17.7 12.4 22.4 12.4 C 27.1 12.4 28.7 17.9 28.7 22.7 C 28.7 27.5 27.1 33.1 22.4 33.1 C 17.7 33.1 16.1 27.5 16.1 22.7 Z M 26.2 22.7 C 26.2 18.8 25.5 14.5 22.4 14.5 C 19.3 14.5 18.6 18.8 18.6 22.7 C 18.6 26.6 19.3 30.9 22.4 30.9 C 25.5 30.9 26.2 26.6 26.2 22.7 Z M 31.5 22.7 C 31.5 17.9 33.1 12.4 37.8 12.4 C 42.4 12.4 44 17.9 44 22.7 C 44 27.5 42.4 33.1 37.8 33.1 C 33.1 33.1 31.5 27.5 31.5 22.7 Z M 41.6 22.7 C 41.6 18.8 40.9 14.5 37.8 14.5 C 34.7 14.5 34 18.8 34 22.7 C 34 26.6 34.7 30.9 37.8 30.9 C 40.9 30.9 41.6 26.6 41.6 22.7 Z M 68.5 32.7 C 68.5 32.7 68.52 22.2 68.5 22.2 C 68.5 20.6 67.9 19.8 66.5 19.8 C 65.2 19.8 63.9 20.9 63.4 22.1 C 63.36 22.08 63.4 32.7 63.4 32.7 L 61.2 32.7 C 61.2 32.7 61.2 22.2 61.2 22.2 C 61.2 20.6 60.6 19.8 59.2 19.8 C 57.9 19.8 56.6 20.9 56 22.1 C 56.01 22.08 56 32.7 56 32.7 L 53.9 32.7 L 53.9 18.2 L 56 18.2 C 56 18.2 56.01 20.28 56 20.3 C 56.6 19.2 58.2 17.9 60 17.9 C 61.8 17.9 63 18.9 63.2 20.4 C 64 19.1 65.6 17.9 67.3 17.9 C 69.4 17.9 70.7 19 70.7 21.6 C 70.68 21.63 70.7 32.7 70.7 32.7 L 68.5 32.7 Z M 74.6 32.7 L 74.6 12.7 L 76.8 12.7 L 76.8 32.7 L 74.6 32.7 Z " stroke="none" fill="#d0d1d4"/>  </g></svg>