<?xml version="1.0" standalone="no"?><!DOCTYPE svg PUBLIC "-//W3C//DTD SVG 1.1//EN" "http://www.w3.org/Graphics/SVG/1.1/DTD/svg11.dtd"><svg xmlns="http://www.w3.org/2000/svg" version="1.1" width="274px" height="587px" viewBox="0 0 274 587">  <desc>Floral foam Extruded polystyrene Paper pulp Silicone phone casing Tissue paper Neoprene shoe glue White modelling cla</desc>  <defs/>  <g id="Polygon150956">    <path d="M 4.3 569.4 C 2.9 569.4 1.8 568.3 1.8 566.9 C 1.8 565.5 2.9 564.3 4.3 564.3 C 5.7 564.3 6.9 565.5 6.9 566.9 C 6.9 568.3 5.7 569.4 4.3 569.4 Z M 15 572.7 L 15 556.7 C 15 556.7 20.26 556.69 20.3 556.7 C 22.8 556.7 24.2 558.3 24.2 560.8 C 24.2 562.8 23.2 564.1 21.8 564.4 C 23.3 564.7 24.5 566.5 24.5 568.4 C 24.5 571 23.1 572.7 20.4 572.7 C 20.4 572.7 15 572.7 15 572.7 Z M 22.2 561 C 22.2 559.5 21.5 558.4 19.9 558.4 C 19.9 558.37 16.9 558.4 16.9 558.4 L 16.9 563.7 C 16.9 563.7 19.9 563.68 19.9 563.7 C 21.5 563.7 22.2 562.5 22.2 561 Z M 22.5 568.2 C 22.5 566.7 21.7 565.4 20 565.4 C 20.02 565.36 16.9 565.4 16.9 565.4 L 16.9 571 C 16.9 571 20.02 571 20 571 C 21.7 571 22.5 569.9 22.5 568.2 Z M 27 572.7 L 27 556.7 L 28.7 556.7 L 28.7 572.7 L 27 572.7 Z M 37.9 572.7 C 37.9 572.7 37.9 571.09 37.9 571.1 C 37.2 572.1 36 573 34.5 573 C 32.6 573 31.6 572 31.6 569.9 C 31.63 569.89 31.6 561.1 31.6 561.1 L 33.3 561.1 C 33.3 561.1 33.34 569.39 33.3 569.4 C 33.3 570.9 34.1 571.5 35.2 571.5 C 36.3 571.5 37.4 570.6 37.9 569.7 C 37.9 569.65 37.9 561.1 37.9 561.1 L 39.6 561.1 L 39.6 572.7 L 37.9 572.7 Z M 42 566.9 C 42 563.5 43.8 560.8 46.7 560.8 C 49.7 560.8 51.3 563.6 51.3 566.9 C 51.26 566.94 51.3 567.5 51.3 567.5 C 51.3 567.5 43.75 567.47 43.8 567.5 C 43.8 569.8 45 571.5 47.1 571.5 C 48.1 571.5 49.1 571 49.8 570.1 C 49.8 570.1 50.8 571.1 50.8 571.1 C 49.8 572.3 48.5 573 46.9 573 C 43.8 573 42 570.4 42 566.9 Z M 46.7 562.3 C 44.6 562.3 43.8 564.5 43.8 566.2 C 43.8 566.2 49.6 566.2 49.6 566.2 C 49.5 564.4 48.8 562.3 46.7 562.3 Z M 60.9 572.7 L 60.9 559.2 L 58.4 561.9 L 57.2 560.7 L 61.1 556.7 L 62.8 556.7 L 62.8 572.7 L 60.9 572.7 Z M 79 572.7 C 78.6 572.2 78.2 571.7 77.8 571.1 C 76.8 572.2 75.6 573 74 573 C 71.8 573 70 571.5 70 568.7 C 70 566.2 71.4 564.9 72.9 563.8 C 72.3 562.6 71.8 561.3 71.8 560.3 C 71.8 558 73.2 556.5 75.1 556.5 C 76.8 556.5 78.1 557.7 78.1 559.6 C 78.1 561.9 76.5 563 74.9 564.2 C 75.4 565 75.9 565.8 76.3 566.4 C 76.8 567.2 77.3 567.8 77.7 568.4 C 78.4 567.2 78.8 565.8 79 564.9 C 79 564.9 80.5 565.5 80.5 565.5 C 80 566.9 79.5 568.4 78.7 569.7 C 79.4 570.6 80.2 571.5 81.2 572.7 C 81.2 572.7 79 572.7 79 572.7 Z M 76.8 569.9 C 76.1 569 75.5 568.1 75.1 567.5 C 74.6 566.7 74 566 73.6 565.1 C 72.6 566 71.8 567 71.8 568.6 C 71.8 570.5 73 571.5 74.2 571.5 C 75.3 571.5 76.1 570.9 76.8 569.9 Z M 74.3 562.9 C 75.5 562 76.6 561.2 76.6 559.6 C 76.6 558.4 75.9 557.8 75.2 557.8 C 74.2 557.8 73.5 558.7 73.5 560.3 C 73.5 561.1 73.8 562 74.3 562.9 Z M 88 572.7 L 88 556.7 C 88 556.7 93.26 556.69 93.3 556.7 C 95.8 556.7 97.2 558.3 97.2 560.8 C 97.2 562.8 96.2 564.1 94.8 564.4 C 96.3 564.7 97.5 566.5 97.5 568.4 C 97.5 571 96.1 572.7 93.4 572.7 C 93.41 572.7 88 572.7 88 572.7 Z M 95.3 561 C 95.3 559.5 94.5 558.4 92.9 558.4 C 92.9 558.37 89.9 558.4 89.9 558.4 L 89.9 563.7 C 89.9 563.7 92.9 563.68 92.9 563.7 C 94.5 563.7 95.3 562.5 95.3 561 Z M 95.5 568.2 C 95.5 566.7 94.7 565.4 93 565.4 C 93.02 565.36 89.9 565.4 89.9 565.4 L 89.9 571 C 89.9 571 93.02 571 93 571 C 94.7 571 95.5 569.9 95.5 568.2 Z M 100 572.7 L 100 556.7 L 101.7 556.7 L 101.7 572.7 L 100 572.7 Z M 110.9 572.7 C 110.9 572.7 110.9 571.09 110.9 571.1 C 110.2 572.1 109 573 107.5 573 C 105.6 573 104.6 572 104.6 569.9 C 104.64 569.89 104.6 561.1 104.6 561.1 L 106.3 561.1 C 106.3 561.1 106.34 569.39 106.3 569.4 C 106.3 570.9 107.1 571.5 108.2 571.5 C 109.3 571.5 110.4 570.6 110.9 569.7 C 110.9 569.65 110.9 561.1 110.9 561.1 L 112.6 561.1 L 112.6 572.7 L 110.9 572.7 Z M 115 566.9 C 115 563.5 116.8 560.8 119.7 560.8 C 122.7 560.8 124.3 563.6 124.3 566.9 C 124.27 566.94 124.3 567.5 124.3 567.5 C 124.3 567.5 116.76 567.47 116.8 567.5 C 116.8 569.8 118 571.5 120.1 571.5 C 121.1 571.5 122.1 571 122.9 570.1 C 122.9 570.1 123.8 571.1 123.8 571.1 C 122.8 572.3 121.5 573 119.9 573 C 116.9 573 115 570.4 115 566.9 Z M 119.7 562.3 C 117.6 562.3 116.8 564.5 116.8 566.2 C 116.8 566.2 122.6 566.2 122.6 566.2 C 122.5 564.4 121.8 562.3 119.7 562.3 Z M 131.2 572.7 C 131.2 572.7 131.16 571.14 131.2 571.1 C 136.4 565.1 138.2 563.2 138.2 560.8 C 138.2 559.1 137 558.2 135.6 558.2 C 134.1 558.2 133 558.9 132.2 560.2 C 132.2 560.2 131 559 131 559 C 132 557.4 133.6 556.5 135.6 556.5 C 138.1 556.5 140.1 558 140.1 560.8 C 140.1 563.5 138.1 565.9 133.9 571 C 133.87 571 140.2 571 140.2 571 L 140.2 572.7 L 131.2 572.7 Z " stroke="none" fill="#7c7979"/>  </g>  <g id="Polygon150955">    <path d="M 4.3 533.4 C 2.9 533.4 1.8 532.3 1.8 530.9 C 1.8 529.5 2.9 528.3 4.3 528.3 C 5.7 528.3 6.9 529.5 6.9 530.9 C 6.9 532.3 5.7 533.4 4.3 533.4 Z M 22.2 536.7 L 19.2 530.3 L 16.9 530.3 L 16.9 536.7 L 15 536.7 L 15 520.7 C 15 520.7 19.85 520.69 19.8 520.7 C 22.4 520.7 24.2 522.5 24.2 525.5 C 24.2 528.3 22.6 529.7 21 530 C 21.05 530 24.4 536.7 24.4 536.7 L 22.2 536.7 Z M 22.3 525.5 C 22.3 523.7 21.3 522.4 19.6 522.4 C 19.63 522.37 16.9 522.4 16.9 522.4 L 16.9 528.6 C 16.9 528.6 19.63 528.61 19.6 528.6 C 21.3 528.6 22.3 527.3 22.3 525.5 Z M 25.7 530.9 C 25.7 527.5 27.4 524.8 30.4 524.8 C 33.4 524.8 34.9 527.6 34.9 530.9 C 34.94 530.94 34.9 531.5 34.9 531.5 C 34.9 531.5 27.43 531.47 27.4 531.5 C 27.5 533.8 28.7 535.5 30.8 535.5 C 31.8 535.5 32.8 535 33.5 534.1 C 33.5 534.1 34.4 535.1 34.4 535.1 C 33.5 536.3 32.2 537 30.6 537 C 27.5 537 25.7 534.4 25.7 530.9 Z M 30.3 526.3 C 28.3 526.3 27.5 528.5 27.4 530.2 C 27.4 530.2 33.2 530.2 33.2 530.2 C 33.2 528.4 32.4 526.3 30.3 526.3 Z M 43.8 536.7 C 43.8 536.7 43.85 535.04 43.8 535 C 43.2 536.2 42 537 40.8 537 C 38.2 537 36.6 534.6 36.6 530.9 C 36.6 527.3 38.2 524.8 40.8 524.8 C 42 524.8 43.2 525.5 43.8 526.8 C 43.85 526.79 43.8 520.7 43.8 520.7 L 45.6 520.7 L 45.6 536.7 L 43.8 536.7 Z M 43.8 533.6 C 43.8 533.6 43.8 528.3 43.8 528.3 C 43.4 527.2 42.3 526.4 41.2 526.4 C 39.3 526.4 38.4 528.4 38.4 530.9 C 38.4 533.4 39.3 535.5 41.2 535.5 C 42.3 535.5 43.4 534.6 43.8 533.6 Z M 58.7 536.7 L 58.7 532.6 L 52.4 532.6 L 52.4 530.9 L 58.2 520.7 L 60.6 520.7 L 60.6 530.9 L 62.4 530.9 L 62.4 532.6 L 60.6 532.6 L 60.6 536.7 L 58.7 536.7 Z M 58.7 522.8 L 54.1 530.9 L 58.7 530.9 L 58.7 522.8 Z M 63.8 528.7 C 63.8 524.8 65.1 520.5 68.8 520.5 C 72.6 520.5 73.8 524.8 73.8 528.7 C 73.8 532.5 72.6 537 68.8 537 C 65.1 537 63.8 532.5 63.8 528.7 Z M 71.9 528.7 C 71.9 525.5 71.3 522.2 68.8 522.2 C 66.4 522.2 65.8 525.5 65.8 528.7 C 65.8 531.9 66.4 535.3 68.8 535.3 C 71.3 535.3 71.9 531.9 71.9 528.7 Z M 89.6 536.7 C 89.2 536.2 88.8 535.7 88.3 535.1 C 87.3 536.2 86.1 537 84.6 537 C 82.3 537 80.5 535.5 80.5 532.7 C 80.5 530.2 81.9 528.9 83.4 527.8 C 82.8 526.6 82.4 525.3 82.4 524.3 C 82.4 522 83.8 520.5 85.7 520.5 C 87.4 520.5 88.7 521.7 88.7 523.6 C 88.7 525.9 87 527 85.4 528.2 C 85.9 529 86.4 529.8 86.9 530.4 C 87.4 531.2 87.8 531.8 88.3 532.4 C 88.9 531.2 89.3 529.8 89.5 528.9 C 89.5 528.9 91 529.5 91 529.5 C 90.6 530.9 90 532.4 89.3 533.7 C 90 534.6 90.8 535.5 91.7 536.7 C 91.7 536.7 89.6 536.7 89.6 536.7 Z M 87.4 533.9 C 86.7 533 86 532.1 85.6 531.5 C 85.1 530.7 84.6 530 84.1 529.1 C 83.1 530 82.4 531 82.4 532.6 C 82.4 534.5 83.5 535.5 84.8 535.5 C 85.8 535.5 86.7 534.9 87.4 533.9 Z M 84.8 526.9 C 86.1 526 87.1 525.2 87.1 523.6 C 87.1 522.4 86.5 521.8 85.7 521.8 C 84.7 521.8 84.1 522.7 84.1 524.3 C 84.1 525.1 84.4 526 84.8 526.9 Z M 105.8 536.7 L 102.7 530.3 L 100.4 530.3 L 100.4 536.7 L 98.5 536.7 L 98.5 520.7 C 98.5 520.7 103.39 520.69 103.4 520.7 C 106 520.7 107.8 522.5 107.8 525.5 C 107.8 528.3 106.2 529.7 104.6 530 C 104.59 530 108 536.7 108 536.7 L 105.8 536.7 Z M 105.8 525.5 C 105.8 523.7 104.8 522.4 103.2 522.4 C 103.17 522.37 100.4 522.4 100.4 522.4 L 100.4 528.6 C 100.4 528.6 103.17 528.61 103.2 528.6 C 104.8 528.6 105.8 527.3 105.8 525.5 Z M 109.2 530.9 C 109.2 527.5 111 524.8 113.9 524.8 C 116.9 524.8 118.5 527.6 118.5 530.9 C 118.49 530.94 118.5 531.5 118.5 531.5 C 118.5 531.5 110.97 531.47 111 531.5 C 111 533.8 112.2 535.5 114.3 535.5 C 115.3 535.5 116.3 535 117.1 534.1 C 117.1 534.1 118 535.1 118 535.1 C 117 536.3 115.7 537 114.2 537 C 111.1 537 109.2 534.4 109.2 530.9 Z M 113.9 526.3 C 111.8 526.3 111 528.5 111 530.2 C 111 530.2 116.8 530.2 116.8 530.2 C 116.8 528.4 116 526.3 113.9 526.3 Z M 127.4 536.7 C 127.4 536.7 127.39 535.04 127.4 535 C 126.7 536.2 125.6 537 124.3 537 C 121.7 537 120.2 534.6 120.2 530.9 C 120.2 527.3 121.7 524.8 124.3 524.8 C 125.5 524.8 126.7 525.5 127.4 526.8 C 127.39 526.79 127.4 520.7 127.4 520.7 L 129.1 520.7 L 129.1 536.7 L 127.4 536.7 Z M 127.4 533.6 C 127.4 533.6 127.4 528.3 127.4 528.3 C 127 527.2 125.9 526.4 124.8 526.4 C 122.9 526.4 122 528.4 122 530.9 C 122 533.4 122.9 535.5 124.8 535.5 C 125.9 535.5 127 534.6 127.4 533.6 Z M 136.1 534.3 C 136.1 534.3 137.3 533.2 137.3 533.2 C 138.1 534.4 139.2 535.3 140.8 535.3 C 142.7 535.3 143.7 534.1 143.7 532.2 C 143.7 530.1 142.2 529.3 140.6 529.3 C 140.1 529.3 139.6 529.3 139.3 529.4 C 139.3 529.4 139.3 527.6 139.3 527.6 C 139.6 527.7 140.2 527.7 140.6 527.7 C 142.2 527.7 143.5 526.8 143.5 525 C 143.5 523.1 142.3 522.2 140.7 522.2 C 139.3 522.2 138.3 522.9 137.5 524.1 C 137.5 524.1 136.3 523 136.3 523 C 137.2 521.4 138.8 520.5 140.8 520.5 C 143.4 520.5 145.4 521.9 145.4 524.7 C 145.4 526.7 144 528.1 142.5 528.4 C 143.9 528.6 145.6 530.1 145.6 532.4 C 145.6 535 143.9 537 140.8 537 C 138.5 537 136.9 535.8 136.1 534.3 Z " stroke="none" fill="#7c7979"/>  </g>  <g id="Polygon150954">    <path d="M 4.3 497.4 C 2.9 497.4 1.8 496.3 1.8 494.9 C 1.8 493.5 2.9 492.3 4.3 492.3 C 5.7 492.3 6.9 493.5 6.9 494.9 C 6.9 496.3 5.7 497.4 4.3 497.4 Z M 18.3 500.7 L 18.3 493.9 L 13.4 484.7 L 15.5 484.7 L 19.3 492.1 L 23 484.7 L 25.2 484.7 L 20.2 493.9 L 20.2 500.7 L 18.3 500.7 Z M 23.8 494.9 C 23.8 491.5 25.6 488.8 28.5 488.8 C 31.6 488.8 33.1 491.6 33.1 494.9 C 33.1 494.94 33.1 495.5 33.1 495.5 C 33.1 495.5 25.58 495.47 25.6 495.5 C 25.7 497.8 26.9 499.5 28.9 499.5 C 29.9 499.5 31 499 31.7 498.1 C 31.7 498.1 32.6 499.1 32.6 499.1 C 31.7 500.3 30.3 501 28.8 501 C 25.7 501 23.8 498.4 23.8 494.9 Z M 28.5 490.3 C 26.4 490.3 25.6 492.5 25.6 494.2 C 25.6 494.2 31.4 494.2 31.4 494.2 C 31.4 492.4 30.6 490.3 28.5 490.3 Z M 35.4 500.7 L 35.4 484.7 L 37.1 484.7 L 37.1 500.7 L 35.4 500.7 Z M 40 500.7 L 40 484.7 L 41.7 484.7 L 41.7 500.7 L 40 500.7 Z M 44.1 494.9 C 44.1 491.6 45.7 488.8 48.8 488.8 C 51.9 488.8 53.5 491.6 53.5 494.9 C 53.5 498.2 51.9 501 48.8 501 C 45.7 501 44.1 498.2 44.1 494.9 Z M 51.7 494.9 C 51.7 492.6 50.8 490.4 48.8 490.4 C 46.8 490.4 45.9 492.6 45.9 494.9 C 45.9 497.2 46.8 499.5 48.8 499.5 C 50.8 499.5 51.7 497.2 51.7 494.9 Z M 64.4 500.7 L 61.9 491.4 L 59.4 500.7 L 57.7 500.7 L 54.6 489.1 L 56.4 489.1 L 58.6 498.4 L 61.1 489.1 L 62.7 489.1 L 65.2 498.4 L 67.5 489.1 L 69.3 489.1 L 66.2 500.7 L 64.4 500.7 Z M 75.5 498.4 C 75.5 498.4 76.8 497.2 76.8 497.2 C 77.5 498.5 78.6 499.3 80.2 499.3 C 81.9 499.3 83 497.7 83 495.8 C 83 493.5 81.9 492.3 80.3 492.3 C 79.1 492.3 78.3 492.7 77.4 493.8 C 77.37 493.76 76 493.3 76 493.3 L 76 484.7 L 84.1 484.7 L 84.1 486.4 L 77.9 486.4 C 77.9 486.4 77.85 491.99 77.9 492 C 78.5 491.2 79.5 490.6 80.8 490.6 C 83.1 490.6 85 492.4 85 495.8 C 85 498.8 83 501 80.2 501 C 77.9 501 76.5 500 75.5 498.4 Z M 100.6 500.7 C 100.2 500.2 99.8 499.7 99.4 499.1 C 98.4 500.2 97.1 501 95.6 501 C 93.4 501 91.6 499.5 91.6 496.7 C 91.6 494.2 93 492.9 94.5 491.8 C 93.9 490.6 93.4 489.3 93.4 488.3 C 93.4 486 94.8 484.5 96.7 484.5 C 98.4 484.5 99.7 485.7 99.7 487.6 C 99.7 489.9 98.1 491 96.5 492.2 C 97 493 97.5 493.8 97.9 494.4 C 98.4 495.2 98.9 495.8 99.3 496.4 C 100 495.2 100.4 493.8 100.6 492.9 C 100.6 492.9 102.1 493.5 102.1 493.5 C 101.6 494.9 101.1 496.4 100.3 497.7 C 101 498.6 101.8 499.5 102.8 500.7 C 102.8 500.7 100.6 500.7 100.6 500.7 Z M 98.4 497.9 C 97.7 497 97.1 496.1 96.7 495.5 C 96.2 494.7 95.6 494 95.2 493.1 C 94.2 494 93.4 495 93.4 496.6 C 93.4 498.5 94.6 499.5 95.8 499.5 C 96.9 499.5 97.7 498.9 98.4 497.9 Z M 95.9 490.9 C 97.1 490 98.2 489.2 98.2 487.6 C 98.2 486.4 97.5 485.8 96.8 485.8 C 95.8 485.8 95.1 486.7 95.1 488.3 C 95.1 489.1 95.4 490 95.9 490.9 Z M 112.9 500.7 L 112.9 493.9 L 108 484.7 L 110.1 484.7 L 113.9 492.1 L 117.6 484.7 L 119.8 484.7 L 114.8 493.9 L 114.8 500.7 L 112.9 500.7 Z M 118.4 494.9 C 118.4 491.5 120.2 488.8 123.1 488.8 C 126.2 488.8 127.7 491.6 127.7 494.9 C 127.7 494.94 127.7 495.5 127.7 495.5 C 127.7 495.5 120.19 495.47 120.2 495.5 C 120.3 497.8 121.5 499.5 123.5 499.5 C 124.5 499.5 125.6 499 126.3 498.1 C 126.3 498.1 127.2 499.1 127.2 499.1 C 126.3 500.3 124.9 501 123.4 501 C 120.3 501 118.4 498.4 118.4 494.9 Z M 123.1 490.3 C 121.1 490.3 120.2 492.5 120.2 494.2 C 120.2 494.2 126 494.2 126 494.2 C 126 492.4 125.2 490.3 123.1 490.3 Z M 130 500.7 L 130 484.7 L 131.7 484.7 L 131.7 500.7 L 130 500.7 Z M 134.6 500.7 L 134.6 484.7 L 136.3 484.7 L 136.3 500.7 L 134.6 500.7 Z M 138.7 494.9 C 138.7 491.6 140.3 488.8 143.4 488.8 C 146.5 488.8 148.1 491.6 148.1 494.9 C 148.1 498.2 146.5 501 143.4 501 C 140.3 501 138.7 498.2 138.7 494.9 Z M 146.3 494.9 C 146.3 492.6 145.4 490.4 143.4 490.4 C 141.4 490.4 140.5 492.6 140.5 494.9 C 140.5 497.2 141.4 499.5 143.4 499.5 C 145.4 499.5 146.3 497.2 146.3 494.9 Z M 159 500.7 L 156.5 491.4 L 154 500.7 L 152.3 500.7 L 149.2 489.1 L 151 489.1 L 153.2 498.4 L 155.7 489.1 L 157.3 489.1 L 159.8 498.4 L 162.1 489.1 L 163.9 489.1 L 160.8 500.7 L 159 500.7 Z M 170 492.7 C 170 488.4 171.5 484.5 175.4 484.5 C 177.1 484.5 178.3 485.2 179.1 486.4 C 179.1 486.4 178.1 487.8 178.1 487.8 C 177.5 486.8 176.7 486.2 175.4 486.2 C 172.9 486.2 171.9 489.5 171.9 492.5 C 171.9 492.8 171.9 492.8 171.9 493 C 172.5 491.9 173.8 490.7 175.5 490.7 C 177.8 490.7 179.7 492.4 179.7 495.8 C 179.7 498.5 178 501 175.1 501 C 171.2 501 170 497 170 492.7 Z M 177.7 495.8 C 177.7 493.3 176.5 492.3 175 492.3 C 173.6 492.3 172.6 493.5 172 494.8 C 172.1 496.6 172.7 499.3 175 499.3 C 176.9 499.3 177.7 497.5 177.7 495.8 Z " stroke="none" fill="#7c7979"/>  </g>  <g id="Polygon150953">    <path d="M 12.5 464.7 L 11.2 460.2 L 4.1 460.2 L 2.8 464.7 L 0.2 464.7 L 6.2 444.7 L 9.1 444.7 L 15.1 464.7 L 12.5 464.7 Z M 7.6 447.3 L 4.6 458.1 L 10.7 458.1 L 7.6 447.3 Z M 17 464.7 L 17 450.2 L 19.1 450.2 C 19.1 450.2 19.14 452.52 19.1 452.5 C 20.1 451 21.5 449.9 23.2 449.9 C 23.2 449.9 23.2 452.1 23.2 452.1 C 23 452.1 22.8 452 22.5 452 C 21.2 452 19.7 453.2 19.1 454.4 C 19.14 454.41 19.1 464.7 19.1 464.7 L 17 464.7 Z M 25.9 461.8 C 25.86 461.79 25.9 452.1 25.9 452.1 L 23.9 452.1 L 23.9 450.2 L 25.9 450.2 L 25.9 446.3 L 28 446.3 L 28 450.2 L 30.5 450.2 L 30.5 452.1 L 28 452.1 C 28 452.1 28.02 461.4 28 461.4 C 28 462.5 28.3 463.1 29.2 463.1 C 29.7 463.1 30.2 462.9 30.4 462.6 C 30.4 462.6 31.1 464.2 31.1 464.2 C 30.6 464.7 29.9 465.1 28.8 465.1 C 26.8 465.1 25.9 464 25.9 461.8 Z M 32.6 446.6 C 32.6 445.8 33.3 445.2 34.1 445.2 C 34.9 445.2 35.5 445.8 35.5 446.6 C 35.5 447.5 34.9 448.1 34.1 448.1 C 33.3 448.1 32.6 447.5 32.6 446.6 Z M 33 464.7 L 33 450.2 L 35.2 450.2 L 35.2 464.7 L 33 464.7 Z M 39.3 464.7 L 39.3 452.1 L 37.4 452.1 L 37.4 450.2 L 39.3 450.2 C 39.3 450.2 39.33 448.44 39.3 448.4 C 39.3 445.9 40.8 444.4 42.9 444.4 C 43.6 444.4 44.2 444.5 44.7 444.8 C 44.7 444.8 44.2 446.5 44.2 446.5 C 43.9 446.3 43.6 446.2 43.2 446.2 C 42.1 446.2 41.5 447 41.5 448.4 C 41.49 448.44 41.5 450.2 41.5 450.2 L 43.9 450.2 L 43.9 452.1 L 41.5 452.1 L 41.5 464.7 L 39.3 464.7 Z M 46 446.6 C 46 445.8 46.7 445.2 47.5 445.2 C 48.3 445.2 49 445.8 49 446.6 C 49 447.5 48.3 448.1 47.5 448.1 C 46.7 448.1 46 447.5 46 446.6 Z M 46.4 464.7 L 46.4 450.2 L 48.6 450.2 L 48.6 464.7 L 46.4 464.7 Z M 51.5 457.4 C 51.5 453.2 53.8 449.9 57.5 449.9 C 59.5 449.9 60.7 450.7 61.6 451.8 C 61.6 451.8 60.5 453.2 60.5 453.2 C 59.7 452.2 58.8 451.8 57.7 451.8 C 55.1 451.8 53.8 454.4 53.8 457.4 C 53.8 460.5 55.1 463.1 57.7 463.1 C 58.8 463.1 59.7 462.7 60.5 461.7 C 60.5 461.7 61.6 463.1 61.6 463.1 C 60.7 464.3 59.5 465.1 57.5 465.1 C 53.8 465.1 51.5 461.7 51.5 457.4 Z M 63.7 446.6 C 63.7 445.8 64.4 445.2 65.2 445.2 C 66 445.2 66.6 445.8 66.6 446.6 C 66.6 447.5 66 448.1 65.2 448.1 C 64.4 448.1 63.7 447.5 63.7 446.6 Z M 64.1 464.7 L 64.1 450.2 L 66.2 450.2 L 66.2 464.7 L 64.1 464.7 Z M 77.3 464.7 C 77.3 464.7 77.34 463.14 77.3 463.1 C 76.4 464.5 75 465.1 73.5 465.1 C 71.2 465.1 69.1 463.3 69.1 460.2 C 69.1 457.2 71.2 455.5 73.5 455.5 C 75 455.5 76.4 456 77.3 457.3 C 77.3 457.3 77.3 454.8 77.3 454.8 C 77.3 452.8 76.3 451.7 74.4 451.7 C 73 451.7 71.8 452.2 70.7 453.5 C 70.7 453.5 69.8 452 69.8 452 C 71.2 450.5 72.9 449.9 74.7 449.9 C 77.6 449.9 79.5 451.3 79.5 454.6 C 79.5 454.56 79.5 464.7 79.5 464.7 L 77.3 464.7 Z M 77.3 461.7 C 77.3 461.7 77.3 458.9 77.3 458.9 C 76.7 457.7 75.5 457.1 74.2 457.1 C 72.4 457.1 71.3 458.5 71.3 460.3 C 71.3 462.1 72.4 463.5 74.2 463.5 C 75.5 463.5 76.7 462.9 77.3 461.7 Z M 83.1 464.7 L 83.1 444.7 L 85.3 444.7 L 85.3 464.7 L 83.1 464.7 Z M 95.6 464.7 L 95.6 452.1 L 93.7 452.1 L 93.7 450.2 L 95.6 450.2 C 95.6 450.2 95.58 448.44 95.6 448.4 C 95.6 445.9 97 444.4 99.2 444.4 C 100.2 444.4 101.1 444.7 101.8 445.4 C 101.8 445.4 100.9 446.9 100.9 446.9 C 100.6 446.5 100.1 446.2 99.5 446.2 C 98.3 446.2 97.7 447 97.7 448.4 C 97.74 448.44 97.7 450.2 97.7 450.2 L 100.2 450.2 L 100.2 452.1 L 97.7 452.1 L 97.7 464.7 L 95.6 464.7 Z M 101.7 457.4 C 101.7 453.4 103.7 449.9 107.5 449.9 C 111.4 449.9 113.5 453.4 113.5 457.4 C 113.5 461.5 111.4 465.1 107.5 465.1 C 103.7 465.1 101.7 461.5 101.7 457.4 Z M 111.2 457.4 C 111.2 454.5 110.1 451.8 107.5 451.8 C 105.1 451.8 103.9 454.5 103.9 457.4 C 103.9 460.4 105.1 463.1 107.5 463.1 C 110.1 463.1 111.2 460.4 111.2 457.4 Z M 115.7 457.4 C 115.7 453.4 117.7 449.9 121.6 449.9 C 125.5 449.9 127.5 453.4 127.5 457.4 C 127.5 461.5 125.5 465.1 121.6 465.1 C 117.7 465.1 115.7 461.5 115.7 457.4 Z M 125.2 457.4 C 125.2 454.5 124.1 451.8 121.6 451.8 C 119.1 451.8 117.9 454.5 117.9 457.4 C 117.9 460.4 119.1 463.1 121.6 463.1 C 124.1 463.1 125.2 460.4 125.2 457.4 Z M 138.7 464.7 C 138.7 464.7 138.69 462.63 138.7 462.6 C 137.8 464.1 136.4 465.1 134.9 465.1 C 131.6 465.1 129.7 462 129.7 457.5 C 129.7 453 131.6 449.9 134.9 449.9 C 136.3 449.9 137.8 450.7 138.7 452.3 C 138.69 452.31 138.7 444.7 138.7 444.7 L 140.8 444.7 L 140.8 464.7 L 138.7 464.7 Z M 138.7 460.8 C 138.7 460.8 138.7 454.1 138.7 454.1 C 138.1 452.9 136.8 451.8 135.4 451.8 C 133 451.8 131.9 454.3 131.9 457.5 C 131.9 460.6 133 463.1 135.4 463.1 C 136.8 463.1 138.1 462.1 138.7 460.8 Z M 158.9 464.7 C 158.9 464.7 158.94 462.63 158.9 462.6 C 158.1 464.1 156.7 465.1 155.1 465.1 C 151.9 465.1 149.9 462 149.9 457.5 C 149.9 453 151.9 449.9 155.1 449.9 C 156.6 449.9 158.1 450.7 158.9 452.3 C 158.94 452.31 158.9 444.7 158.9 444.7 L 161.1 444.7 L 161.1 464.7 L 158.9 464.7 Z M 158.9 460.8 C 158.9 460.8 158.9 454.1 158.9 454.1 C 158.4 452.9 157 451.8 155.7 451.8 C 153.3 451.8 152.2 454.3 152.2 457.5 C 152.2 460.6 153.3 463.1 155.7 463.1 C 157 463.1 158.4 462.1 158.9 460.8 Z M 164.3 468.5 C 164.6 468.6 165.1 468.7 165.3 468.7 C 166.1 468.7 166.6 468.3 167 467.2 C 167.01 467.22 167.8 465 167.8 465 L 163 450.2 L 165.3 450.2 L 168.9 462.1 L 172.5 450.2 L 174.8 450.2 C 174.8 450.2 169.05 467.76 169 467.8 C 168.3 469.9 167.2 470.6 165.4 470.6 C 165 470.6 164.3 470.5 164 470.4 C 164 470.4 164.3 468.5 164.3 468.5 Z M 176 457.4 C 176 453.2 178.2 449.9 181.9 449.9 C 185.7 449.9 187.6 453.3 187.6 457.5 C 187.59 457.5 187.6 458.2 187.6 458.2 C 187.6 458.2 178.2 458.16 178.2 458.2 C 178.3 461.1 179.8 463.3 182.4 463.3 C 183.6 463.3 184.9 462.6 185.8 461.5 C 185.8 461.5 187 462.8 187 462.8 C 185.8 464.2 184.1 465.1 182.2 465.1 C 178.3 465.1 176 461.9 176 457.4 Z M 181.8 451.7 C 179.3 451.7 178.3 454.4 178.2 456.6 C 178.2 456.6 185.5 456.6 185.5 456.6 C 185.4 454.4 184.5 451.7 181.8 451.7 Z " stroke="none" fill="#d3d2d2"/>  </g>  <g id="Polygon150952">    <path d="M 4.3 425.4 C 2.9 425.4 1.8 424.3 1.8 422.9 C 1.8 421.5 2.9 420.3 4.3 420.3 C 5.7 420.3 6.9 421.5 6.9 422.9 C 6.9 424.3 5.7 425.4 4.3 425.4 Z M 18.3 428.7 L 13.5 412.7 L 15.5 412.7 L 19.4 426.4 L 23.3 412.7 L 25.3 412.7 L 20.5 428.7 L 18.3 428.7 Z M 25.4 422.9 C 25.4 419.5 27.1 416.8 30.1 416.8 C 33.1 416.8 34.7 419.6 34.7 422.9 C 34.66 422.94 34.7 423.5 34.7 423.5 C 34.7 423.5 27.14 423.47 27.1 423.5 C 27.2 425.8 28.4 427.5 30.5 427.5 C 31.5 427.5 32.5 427 33.2 426.1 C 33.2 426.1 34.2 427.1 34.2 427.1 C 33.2 428.3 31.9 429 30.3 429 C 27.2 429 25.4 426.4 25.4 422.9 Z M 30 418.3 C 28 418.3 27.2 420.5 27.1 422.2 C 27.1 422.2 33 422.2 33 422.2 C 32.9 420.4 32.2 418.3 30 418.3 Z M 36.9 428.7 L 36.9 417.1 L 38.6 417.1 C 38.6 417.1 38.64 418.96 38.6 419 C 39.4 417.7 40.5 416.9 41.9 416.9 C 41.9 416.9 41.9 418.6 41.9 418.6 C 41.7 418.6 41.5 418.6 41.4 418.6 C 40.3 418.6 39.1 419.5 38.6 420.5 C 38.64 420.47 38.6 428.7 38.6 428.7 L 36.9 428.7 Z M 55.4 428.7 C 55.4 428.7 55.39 420.3 55.4 420.3 C 55.4 419.1 54.9 418.4 53.8 418.4 C 52.8 418.4 51.7 419.3 51.3 420.2 C 51.26 420.2 51.3 428.7 51.3 428.7 L 49.5 428.7 C 49.5 428.7 49.53 420.3 49.5 420.3 C 49.5 419.1 49 418.4 47.9 418.4 C 46.9 418.4 45.9 419.3 45.4 420.2 C 45.38 420.2 45.4 428.7 45.4 428.7 L 43.7 428.7 L 43.7 417.1 L 45.4 417.1 C 45.4 417.1 45.38 418.76 45.4 418.8 C 45.9 417.9 47.2 416.8 48.6 416.8 C 50 416.8 51 417.7 51.2 418.9 C 51.7 417.8 53 416.8 54.4 416.8 C 56.1 416.8 57.1 417.8 57.1 419.8 C 57.12 419.84 57.1 428.7 57.1 428.7 L 55.4 428.7 Z M 59.7 414.3 C 59.7 413.6 60.3 413.1 60.9 413.1 C 61.5 413.1 62.1 413.6 62.1 414.3 C 62.1 414.9 61.5 415.4 60.9 415.4 C 60.3 415.4 59.7 414.9 59.7 414.3 Z M 60 428.7 L 60 417.1 L 61.8 417.1 L 61.8 428.7 L 60 428.7 Z M 64.7 428.7 L 64.7 412.7 L 66.4 412.7 L 66.4 428.7 L 64.7 428.7 Z M 69.3 428.7 L 69.3 412.7 L 71 412.7 L 71 428.7 L 69.3 428.7 Z M 73.6 414.3 C 73.6 413.6 74.2 413.1 74.8 413.1 C 75.4 413.1 76 413.6 76 414.3 C 76 414.9 75.4 415.4 74.8 415.4 C 74.2 415.4 73.6 414.9 73.6 414.3 Z M 73.9 428.7 L 73.9 417.1 L 75.6 417.1 L 75.6 428.7 L 73.9 428.7 Z M 78 422.9 C 78 419.6 79.6 416.8 82.7 416.8 C 85.8 416.8 87.4 419.6 87.4 422.9 C 87.4 426.2 85.8 429 82.7 429 C 79.6 429 78 426.2 78 422.9 Z M 85.6 422.9 C 85.6 420.6 84.7 418.4 82.7 418.4 C 80.7 418.4 79.8 420.6 79.8 422.9 C 79.8 425.2 80.7 427.5 82.7 427.5 C 84.7 427.5 85.6 425.2 85.6 422.9 Z M 96 428.7 C 96 428.7 96.05 420.44 96 420.4 C 96 418.9 95.3 418.4 94.2 418.4 C 93.1 418.4 92 419.2 91.5 420.2 C 91.49 420.2 91.5 428.7 91.5 428.7 L 89.8 428.7 L 89.8 417.1 L 91.5 417.1 C 91.5 417.1 91.49 418.76 91.5 418.8 C 92.2 417.8 93.5 416.8 94.8 416.8 C 96.8 416.8 97.8 417.9 97.8 420 C 97.77 419.96 97.8 428.7 97.8 428.7 L 96 428.7 Z " stroke="none" fill="#7c7979"/>  </g>  <g id="Polygon150951">    <path d="M 4.3 389.4 C 2.9 389.4 1.8 388.3 1.8 386.9 C 1.8 385.5 2.9 384.3 4.3 384.3 C 5.7 384.3 6.9 385.5 6.9 386.9 C 6.9 388.3 5.7 389.4 4.3 389.4 Z M 14.4 384.7 C 14.4 379.9 16.8 376.4 20.6 376.4 C 23 376.4 24.4 377.9 25.3 379.5 C 25.3 379.5 23.7 380.3 23.7 380.3 C 23.1 379 22 378.1 20.6 378.1 C 18 378.1 16.4 380.9 16.4 384.7 C 16.4 388.5 18 391.3 20.6 391.3 C 22.1 391.3 23.1 390.3 23.7 388.9 C 23.7 388.9 25.3 389.7 25.3 389.7 C 24.5 391.4 23.1 393 20.6 393 C 16.8 393 14.4 389.5 14.4 384.7 Z M 33.4 392.7 C 33.4 392.7 33.36 391.45 33.4 391.5 C 32.6 392.5 31.5 393 30.3 393 C 28.4 393 26.8 391.5 26.8 389.1 C 26.8 386.7 28.4 385.3 30.3 385.3 C 31.5 385.3 32.6 385.8 33.4 386.8 C 33.4 386.8 33.4 384.8 33.4 384.8 C 33.4 383.2 32.5 382.3 31 382.3 C 29.9 382.3 29 382.7 28.1 383.7 C 28.1 383.7 27.3 382.5 27.3 382.5 C 28.4 381.3 29.8 380.8 31.2 380.8 C 33.6 380.8 35.1 381.9 35.1 384.6 C 35.09 384.59 35.1 392.7 35.1 392.7 L 33.4 392.7 Z M 33.4 390.3 C 33.4 390.3 33.4 388.1 33.4 388.1 C 32.8 387.1 31.9 386.6 30.9 386.6 C 29.4 386.6 28.6 387.7 28.6 389.1 C 28.6 390.6 29.4 391.7 30.9 391.7 C 31.9 391.7 32.8 391.2 33.4 390.3 Z M 44.6 392.7 C 44.6 392.7 44.62 391.04 44.6 391 C 43.9 392.2 42.8 393 41.6 393 C 39 393 37.4 390.6 37.4 386.9 C 37.4 383.3 39 380.8 41.6 380.8 C 42.7 380.8 43.9 381.5 44.6 382.8 C 44.62 382.79 44.6 376.7 44.6 376.7 L 46.3 376.7 L 46.3 392.7 L 44.6 392.7 Z M 44.6 389.6 C 44.6 389.6 44.6 384.3 44.6 384.3 C 44.2 383.2 43.1 382.4 42 382.4 C 40.1 382.4 39.2 384.4 39.2 386.9 C 39.2 389.4 40.1 391.5 42 391.5 C 43.1 391.5 44.2 390.6 44.6 389.6 Z M 61 392.7 C 61 392.7 60.98 384.3 61 384.3 C 61 383.1 60.5 382.4 59.4 382.4 C 58.3 382.4 57.3 383.3 56.9 384.2 C 56.85 384.2 56.9 392.7 56.9 392.7 L 55.1 392.7 C 55.1 392.7 55.13 384.3 55.1 384.3 C 55.1 383.1 54.6 382.4 53.5 382.4 C 52.5 382.4 51.5 383.3 51 384.2 C 50.97 384.2 51 392.7 51 392.7 L 49.3 392.7 L 49.3 381.1 L 51 381.1 C 51 381.1 50.97 382.76 51 382.8 C 51.5 381.9 52.8 380.8 54.1 380.8 C 55.6 380.8 56.5 381.7 56.8 382.9 C 57.3 381.8 58.6 380.8 60 380.8 C 61.7 380.8 62.7 381.8 62.7 383.8 C 62.71 383.84 62.7 392.7 62.7 392.7 L 61 392.7 Z M 65.3 378.3 C 65.3 377.6 65.9 377.1 66.5 377.1 C 67.1 377.1 67.7 377.6 67.7 378.3 C 67.7 378.9 67.1 379.4 66.5 379.4 C 65.9 379.4 65.3 378.9 65.3 378.3 Z M 65.6 392.7 L 65.6 381.1 L 67.3 381.1 L 67.3 392.7 L 65.6 392.7 Z M 76.5 392.7 C 76.5 392.7 76.53 391.09 76.5 391.1 C 75.8 392.1 74.6 393 73.2 393 C 71.2 393 70.3 392 70.3 389.9 C 70.27 389.89 70.3 381.1 70.3 381.1 L 72 381.1 C 72 381.1 71.97 389.39 72 389.4 C 72 390.9 72.7 391.5 73.8 391.5 C 75 391.5 76 390.6 76.5 389.7 C 76.53 389.65 76.5 381.1 76.5 381.1 L 78.3 381.1 L 78.3 392.7 L 76.5 392.7 Z M 92.9 392.7 C 92.9 392.7 92.9 384.3 92.9 384.3 C 92.9 383.1 92.4 382.4 91.3 382.4 C 90.3 382.4 89.2 383.3 88.8 384.2 C 88.77 384.2 88.8 392.7 88.8 392.7 L 87 392.7 C 87 392.7 87.05 384.3 87 384.3 C 87 383.1 86.5 382.4 85.4 382.4 C 84.4 382.4 83.4 383.3 82.9 384.2 C 82.89 384.2 82.9 392.7 82.9 392.7 L 81.2 392.7 L 81.2 381.1 L 82.9 381.1 C 82.9 381.1 82.89 382.76 82.9 382.8 C 83.4 381.9 84.7 380.8 86.1 380.8 C 87.6 380.8 88.5 381.7 88.7 382.9 C 89.3 381.8 90.6 380.8 91.9 380.8 C 93.6 380.8 94.6 381.8 94.6 383.8 C 94.63 383.84 94.6 392.7 94.6 392.7 L 92.9 392.7 Z M 105.9 392.7 L 105.9 385.9 L 101 376.7 L 103.1 376.7 L 106.9 384.1 L 110.7 376.7 L 112.8 376.7 L 107.8 385.9 L 107.8 392.7 L 105.9 392.7 Z M 111.4 386.9 C 111.4 383.5 113.2 380.8 116.1 380.8 C 119.2 380.8 120.7 383.6 120.7 386.9 C 120.72 386.94 120.7 387.5 120.7 387.5 C 120.7 387.5 113.21 387.47 113.2 387.5 C 113.3 389.8 114.5 391.5 116.5 391.5 C 117.5 391.5 118.6 391 119.3 390.1 C 119.3 390.1 120.2 391.1 120.2 391.1 C 119.3 392.3 118 393 116.4 393 C 113.3 393 111.4 390.4 111.4 386.9 Z M 116.1 382.3 C 114.1 382.3 113.3 384.5 113.2 386.2 C 113.2 386.2 119 386.2 119 386.2 C 119 384.4 118.2 382.3 116.1 382.3 Z M 123 392.7 L 123 376.7 L 124.7 376.7 L 124.7 392.7 L 123 392.7 Z M 127.6 392.7 L 127.6 376.7 L 129.3 376.7 L 129.3 392.7 L 127.6 392.7 Z M 131.7 386.9 C 131.7 383.6 133.3 380.8 136.4 380.8 C 139.5 380.8 141.1 383.6 141.1 386.9 C 141.1 390.2 139.5 393 136.4 393 C 133.3 393 131.7 390.2 131.7 386.9 Z M 139.3 386.9 C 139.3 384.6 138.4 382.4 136.4 382.4 C 134.4 382.4 133.5 384.6 133.5 386.9 C 133.5 389.2 134.4 391.5 136.4 391.5 C 138.4 391.5 139.3 389.2 139.3 386.9 Z M 152 392.7 L 149.5 383.4 L 147 392.7 L 145.3 392.7 L 142.2 381.1 L 144 381.1 L 146.3 390.4 L 148.7 381.1 L 150.3 381.1 L 152.8 390.4 L 155.1 381.1 L 156.9 381.1 L 153.8 392.7 L 152 392.7 Z " stroke="none" fill="#7c7979"/>  </g>  <g id="Polygon150950">    <path d="M 4.3 353.4 C 2.9 353.4 1.8 352.3 1.8 350.9 C 1.8 349.5 2.9 348.3 4.3 348.3 C 5.7 348.3 6.9 349.5 6.9 350.9 C 6.9 352.3 5.7 353.4 4.3 353.4 Z M 17.7 356.7 L 17.7 342.4 L 13.9 342.4 L 13.9 340.7 L 23.4 340.7 L 23.4 342.4 L 19.6 342.4 L 19.6 356.7 L 17.7 356.7 Z M 25 342.3 C 25 341.6 25.5 341.1 26.2 341.1 C 26.8 341.1 27.3 341.6 27.3 342.3 C 27.3 342.9 26.8 343.4 26.2 343.4 C 25.5 343.4 25 342.9 25 342.3 Z M 25.3 356.7 L 25.3 345.1 L 27 345.1 L 27 356.7 L 25.3 356.7 Z M 30.3 354.4 C 30.29 354.37 30.3 346.6 30.3 346.6 L 28.8 346.6 L 28.8 345.1 L 30.3 345.1 L 30.3 341.9 L 32 341.9 L 32 345.1 L 34 345.1 L 34 346.6 L 32 346.6 C 32 346.6 32.02 354.06 32 354.1 C 32 354.9 32.3 355.5 33 355.5 C 33.4 355.5 33.7 355.3 34 355 C 34 355 34.5 356.3 34.5 356.3 C 34.1 356.7 33.5 357 32.6 357 C 31 357 30.3 356.1 30.3 354.4 Z M 42 356.7 C 42 356.7 41.97 355.45 42 355.5 C 41.2 356.5 40.1 357 38.9 357 C 37.1 357 35.4 355.5 35.4 353.1 C 35.4 350.7 37 349.3 38.9 349.3 C 40.1 349.3 41.3 349.8 42 350.8 C 42 350.8 42 348.8 42 348.8 C 42 347.2 41.1 346.3 39.6 346.3 C 38.5 346.3 37.6 346.7 36.7 347.7 C 36.7 347.7 35.9 346.5 35.9 346.5 C 37 345.3 38.4 344.8 39.9 344.8 C 42.2 344.8 43.7 345.9 43.7 348.6 C 43.7 348.59 43.7 356.7 43.7 356.7 L 42 356.7 Z M 42 354.3 C 42 354.3 42 352.1 42 352.1 C 41.4 351.1 40.5 350.6 39.5 350.6 C 38 350.6 37.2 351.7 37.2 353.1 C 37.2 354.6 38 355.7 39.5 355.7 C 40.5 355.7 41.4 355.2 42 354.3 Z M 52.9 356.7 C 52.9 356.7 52.87 348.44 52.9 348.4 C 52.9 346.9 52.2 346.4 51 346.4 C 49.9 346.4 48.8 347.2 48.3 348.2 C 48.31 348.2 48.3 356.7 48.3 356.7 L 46.6 356.7 L 46.6 345.1 L 48.3 345.1 C 48.3 345.1 48.31 346.76 48.3 346.8 C 49 345.8 50.3 344.8 51.7 344.8 C 53.6 344.8 54.6 345.9 54.6 348 C 54.6 347.96 54.6 356.7 54.6 356.7 L 52.9 356.7 Z M 57.2 342.3 C 57.2 341.6 57.7 341.1 58.4 341.1 C 59 341.1 59.5 341.6 59.5 342.3 C 59.5 342.9 59 343.4 58.4 343.4 C 57.7 343.4 57.2 342.9 57.2 342.3 Z M 57.5 356.7 L 57.5 345.1 L 59.2 345.1 L 59.2 356.7 L 57.5 356.7 Z M 68.4 356.7 C 68.4 356.7 68.42 355.09 68.4 355.1 C 67.7 356.1 66.5 357 65.1 357 C 63.1 357 62.2 356 62.2 353.9 C 62.16 353.89 62.2 345.1 62.2 345.1 L 63.9 345.1 C 63.9 345.1 63.86 353.39 63.9 353.4 C 63.9 354.9 64.6 355.5 65.7 355.5 C 66.9 355.5 67.9 354.6 68.4 353.7 C 68.42 353.65 68.4 345.1 68.4 345.1 L 70.2 345.1 L 70.2 356.7 L 68.4 356.7 Z M 84.8 356.7 C 84.8 356.7 84.79 348.3 84.8 348.3 C 84.8 347.1 84.3 346.4 83.2 346.4 C 82.2 346.4 81.1 347.3 80.7 348.2 C 80.66 348.2 80.7 356.7 80.7 356.7 L 78.9 356.7 C 78.9 356.7 78.93 348.3 78.9 348.3 C 78.9 347.1 78.4 346.4 77.3 346.4 C 76.3 346.4 75.3 347.3 74.8 348.2 C 74.78 348.2 74.8 356.7 74.8 356.7 L 73.1 356.7 L 73.1 345.1 L 74.8 345.1 C 74.8 345.1 74.78 346.76 74.8 346.8 C 75.3 345.9 76.6 344.8 78 344.8 C 79.4 344.8 80.4 345.7 80.6 346.9 C 81.1 345.8 82.4 344.8 83.8 344.8 C 85.5 344.8 86.5 345.8 86.5 347.8 C 86.52 347.84 86.5 356.7 86.5 356.7 L 84.8 356.7 Z M 104 356.7 L 101.3 344.1 L 98.8 356.7 L 96.7 356.7 L 93.2 340.7 L 95.2 340.7 L 97.8 353.7 L 100.6 340.7 L 102.2 340.7 L 104.9 353.7 L 107.5 340.7 L 109.6 340.7 L 106 356.7 L 104 356.7 Z M 117.6 356.7 C 117.6 356.7 117.57 348.42 117.6 348.4 C 117.6 346.9 116.9 346.4 115.7 346.4 C 114.6 346.4 113.5 347.2 113 348.2 C 112.99 348.2 113 356.7 113 356.7 L 111.3 356.7 L 111.3 340.7 L 113 340.7 C 113 340.7 112.99 346.76 113 346.8 C 113.7 345.8 115 344.8 116.4 344.8 C 118.3 344.8 119.3 345.8 119.3 347.9 C 119.28 347.92 119.3 356.7 119.3 356.7 L 117.6 356.7 Z M 121.9 342.3 C 121.9 341.6 122.4 341.1 123 341.1 C 123.7 341.1 124.2 341.6 124.2 342.3 C 124.2 342.9 123.7 343.4 123 343.4 C 122.4 343.4 121.9 342.9 121.9 342.3 Z M 122.2 356.7 L 122.2 345.1 L 123.9 345.1 L 123.9 356.7 L 122.2 356.7 Z M 127.2 354.4 C 127.17 354.37 127.2 346.6 127.2 346.6 L 125.6 346.6 L 125.6 345.1 L 127.2 345.1 L 127.2 341.9 L 128.9 341.9 L 128.9 345.1 L 130.9 345.1 L 130.9 346.6 L 128.9 346.6 C 128.9 346.6 128.9 354.06 128.9 354.1 C 128.9 354.9 129.2 355.5 129.8 355.5 C 130.3 355.5 130.6 355.3 130.8 355 C 130.8 355 131.4 356.3 131.4 356.3 C 131 356.7 130.4 357 129.5 357 C 127.9 357 127.2 356.1 127.2 354.4 Z M 132.3 350.9 C 132.3 347.5 134.1 344.8 137 344.8 C 140.1 344.8 141.6 347.6 141.6 350.9 C 141.62 350.94 141.6 351.5 141.6 351.5 C 141.6 351.5 134.11 351.47 134.1 351.5 C 134.2 353.8 135.4 355.5 137.4 355.5 C 138.5 355.5 139.5 355 140.2 354.1 C 140.2 354.1 141.1 355.1 141.1 355.1 C 140.2 356.3 138.9 357 137.3 357 C 134.2 357 132.3 354.4 132.3 350.9 Z M 137 346.3 C 135 346.3 134.2 348.5 134.1 350.2 C 134.1 350.2 139.9 350.2 139.9 350.2 C 139.9 348.4 139.1 346.3 137 346.3 Z " stroke="none" fill="#7c7979"/>  </g>  <g id="Polygon150949">    <path d="M 12.8 320.7 L 4.5 305.8 L 4.5 320.7 L 2.1 320.7 L 2.1 300.7 L 4.5 300.7 L 12.7 315.3 L 12.7 300.7 L 15.1 300.7 L 15.1 320.7 L 12.8 320.7 Z M 18.1 313.4 C 18.1 309.4 20.2 305.9 24 305.9 C 27.9 305.9 29.9 309.4 29.9 313.4 C 29.9 317.5 27.9 321.1 24 321.1 C 20.2 321.1 18.1 317.5 18.1 313.4 Z M 27.7 313.4 C 27.7 310.5 26.5 307.8 24 307.8 C 21.5 307.8 20.4 310.5 20.4 313.4 C 20.4 316.4 21.5 319.1 24 319.1 C 26.5 319.1 27.7 316.4 27.7 313.4 Z M 40.7 320.7 C 40.7 320.7 40.68 310.38 40.7 310.4 C 40.7 308.5 39.8 307.8 38.4 307.8 C 37 307.8 35.6 308.9 35 310.1 C 34.98 310.08 35 320.7 35 320.7 L 32.8 320.7 L 32.8 306.2 L 35 306.2 C 35 306.2 34.98 308.28 35 308.3 C 35.8 307 37.4 305.9 39.2 305.9 C 41.6 305.9 42.8 307.2 42.8 309.8 C 42.84 309.78 42.8 320.7 42.8 320.7 L 40.7 320.7 Z M 45.4 314.4 L 45.4 312.5 L 51.6 312.5 L 51.6 314.4 L 45.4 314.4 Z M 54.6 317.8 C 54.63 317.79 54.6 308.1 54.6 308.1 L 52.7 308.1 L 52.7 306.2 L 54.6 306.2 L 54.6 302.3 L 56.8 302.3 L 56.8 306.2 L 59.2 306.2 L 59.2 308.1 L 56.8 308.1 C 56.8 308.1 56.79 317.4 56.8 317.4 C 56.8 318.5 57.1 319.1 58 319.1 C 58.5 319.1 58.9 318.9 59.2 318.6 C 59.2 318.6 59.9 320.2 59.9 320.2 C 59.4 320.7 58.6 321.1 57.5 321.1 C 55.6 321.1 54.6 320 54.6 317.8 Z M 61.1 313.4 C 61.1 309.4 63.1 305.9 67 305.9 C 70.9 305.9 72.9 309.4 72.9 313.4 C 72.9 317.5 70.9 321.1 67 321.1 C 63.1 321.1 61.1 317.5 61.1 313.4 Z M 70.6 313.4 C 70.6 310.5 69.5 307.8 67 307.8 C 64.5 307.8 63.3 310.5 63.3 313.4 C 63.3 316.4 64.5 319.1 67 319.1 C 69.5 319.1 70.6 316.4 70.6 313.4 Z M 82.5 320.7 L 79.2 314.9 L 75.8 320.7 L 73.4 320.7 L 77.8 313.3 L 73.7 306.2 L 76.1 306.2 L 79.2 311.7 L 82.3 306.2 L 84.7 306.2 L 80.5 313.3 L 84.9 320.7 L 82.5 320.7 Z M 86.5 302.6 C 86.5 301.8 87.2 301.2 88 301.2 C 88.8 301.2 89.5 301.8 89.5 302.6 C 89.5 303.5 88.8 304.1 88 304.1 C 87.2 304.1 86.5 303.5 86.5 302.6 Z M 86.9 320.7 L 86.9 306.2 L 89.1 306.2 L 89.1 320.7 L 86.9 320.7 Z M 92 313.4 C 92 309.2 94.3 305.9 98 305.9 C 100 305.9 101.2 306.7 102.1 307.8 C 102.1 307.8 101 309.2 101 309.2 C 100.2 308.2 99.3 307.8 98.2 307.8 C 95.6 307.8 94.3 310.4 94.3 313.4 C 94.3 316.5 95.6 319.1 98.2 319.1 C 99.3 319.1 100.2 318.7 101 317.7 C 101 317.7 102.1 319.1 102.1 319.1 C 101.2 320.3 100 321.1 98 321.1 C 94.3 321.1 92 317.7 92 313.4 Z M 118.2 320.7 C 118.2 320.7 118.2 319.14 118.2 319.1 C 117.3 320.5 115.9 321.1 114.4 321.1 C 112 321.1 110 319.3 110 316.2 C 110 313.2 112 311.5 114.4 311.5 C 115.9 311.5 117.3 312 118.2 313.3 C 118.2 313.3 118.2 310.8 118.2 310.8 C 118.2 308.8 117.1 307.7 115.2 307.7 C 113.9 307.7 112.7 308.2 111.6 309.5 C 111.6 309.5 110.6 308 110.6 308 C 112 306.5 113.7 305.9 115.6 305.9 C 118.4 305.9 120.4 307.3 120.4 310.6 C 120.36 310.56 120.4 320.7 120.4 320.7 L 118.2 320.7 Z M 118.2 317.7 C 118.2 317.7 118.2 314.9 118.2 314.9 C 117.5 313.7 116.3 313.1 115.1 313.1 C 113.3 313.1 112.2 314.5 112.2 316.3 C 112.2 318.1 113.3 319.5 115.1 319.5 C 116.3 319.5 117.5 318.9 118.2 317.7 Z M 123.3 313.4 C 123.3 309.2 125.5 305.9 129.3 305.9 C 131.3 305.9 132.5 306.7 133.4 307.8 C 133.4 307.8 132.2 309.2 132.2 309.2 C 131.5 308.2 130.6 307.8 129.4 307.8 C 126.9 307.8 125.5 310.4 125.5 313.4 C 125.5 316.5 126.9 319.1 129.4 319.1 C 130.6 319.1 131.5 318.7 132.2 317.7 C 132.2 317.7 133.4 319.1 133.4 319.1 C 132.5 320.3 131.3 321.1 129.3 321.1 C 125.5 321.1 123.3 317.7 123.3 313.4 Z M 135.9 320.7 L 135.9 306.2 L 138 306.2 C 138 306.2 138 308.52 138 308.5 C 138.9 307 140.3 305.9 142.1 305.9 C 142.1 305.9 142.1 308.1 142.1 308.1 C 141.9 308.1 141.6 308 141.4 308 C 140.1 308 138.6 309.2 138 310.4 C 138 310.41 138 320.7 138 320.7 L 135.9 320.7 Z M 143.9 324.5 C 144.1 324.6 144.6 324.7 144.8 324.7 C 145.7 324.7 146.2 324.3 146.5 323.2 C 146.55 323.22 147.3 321 147.3 321 L 142.5 306.2 L 144.8 306.2 L 148.4 318.1 L 152.1 306.2 L 154.4 306.2 C 154.4 306.2 148.59 323.76 148.6 323.8 C 147.9 325.9 146.7 326.6 145 326.6 C 144.5 326.6 143.9 326.5 143.5 326.4 C 143.5 326.4 143.9 324.5 143.9 324.5 Z M 156.2 320.7 L 156.2 300.7 L 158.4 300.7 L 158.4 320.7 L 156.2 320.7 Z M 161.6 302.6 C 161.6 301.8 162.3 301.2 163.1 301.2 C 163.9 301.2 164.5 301.8 164.5 302.6 C 164.5 303.5 163.9 304.1 163.1 304.1 C 162.3 304.1 161.6 303.5 161.6 302.6 Z M 162 320.7 L 162 306.2 L 164.2 306.2 L 164.2 320.7 L 162 320.7 Z M 167.1 313.4 C 167.1 309.2 169.4 305.9 173.1 305.9 C 175.1 305.9 176.3 306.7 177.2 307.8 C 177.2 307.8 176.1 309.2 176.1 309.2 C 175.3 308.2 174.4 307.8 173.3 307.8 C 170.7 307.8 169.3 310.4 169.3 313.4 C 169.3 316.5 170.7 319.1 173.3 319.1 C 174.4 319.1 175.3 318.7 176.1 317.7 C 176.1 317.7 177.2 319.1 177.2 319.1 C 176.3 320.3 175.1 321.1 173.1 321.1 C 169.4 321.1 167.1 317.7 167.1 313.4 Z M 188 318.6 C 187.98 318.6 188 326.2 188 326.2 L 185.8 326.2 L 185.8 306.2 L 188 306.2 C 188 306.2 187.98 308.28 188 308.3 C 188.8 306.8 190.3 305.9 191.8 305.9 C 195.1 305.9 197 308.9 197 313.4 C 197 318 195.1 321.1 191.8 321.1 C 190.3 321.1 188.9 320.2 188 318.6 Z M 194.7 313.4 C 194.7 310.3 193.6 307.8 191.2 307.8 C 189.9 307.8 188.5 308.9 188 310.1 C 188 310.1 188 316.7 188 316.7 C 188.5 318 189.9 319.1 191.2 319.1 C 193.6 319.1 194.7 316.6 194.7 313.4 Z M 207.3 320.7 C 207.3 320.7 207.33 319.14 207.3 319.1 C 206.4 320.5 205 321.1 203.5 321.1 C 201.2 321.1 199.1 319.3 199.1 316.2 C 199.1 313.2 201.1 311.5 203.5 311.5 C 205 311.5 206.4 312 207.3 313.3 C 207.3 313.3 207.3 310.8 207.3 310.8 C 207.3 308.8 206.2 307.7 204.4 307.7 C 203 307.7 201.8 308.2 200.7 309.5 C 200.7 309.5 199.8 308 199.8 308 C 201.1 306.5 202.9 305.9 204.7 305.9 C 207.6 305.9 209.5 307.3 209.5 310.6 C 209.49 310.56 209.5 320.7 209.5 320.7 L 207.3 320.7 Z M 207.3 317.7 C 207.3 317.7 207.3 314.9 207.3 314.9 C 206.7 313.7 205.5 313.1 204.2 313.1 C 202.4 313.1 201.3 314.5 201.3 316.3 C 201.3 318.1 202.4 319.5 204.2 319.5 C 205.5 319.5 206.7 318.9 207.3 317.7 Z M 212.7 302.6 C 212.7 301.8 213.4 301.2 214.2 301.2 C 215 301.2 215.6 301.8 215.6 302.6 C 215.6 303.5 215 304.1 214.2 304.1 C 213.4 304.1 212.7 303.5 212.7 302.6 Z M 213.1 320.7 L 213.1 306.2 L 215.2 306.2 L 215.2 320.7 L 213.1 320.7 Z M 226.7 320.7 C 226.7 320.7 226.73 310.38 226.7 310.4 C 226.7 308.5 225.9 307.8 224.4 307.8 C 223 307.8 221.7 308.9 221 310.1 C 221.03 310.08 221 320.7 221 320.7 L 218.9 320.7 L 218.9 306.2 L 221 306.2 C 221 306.2 221.03 308.28 221 308.3 C 221.9 307 223.5 305.9 225.2 305.9 C 227.7 305.9 228.9 307.2 228.9 309.8 C 228.89 309.78 228.9 320.7 228.9 320.7 L 226.7 320.7 Z M 233 317.8 C 232.97 317.79 233 308.1 233 308.1 L 231.1 308.1 L 231.1 306.2 L 233 306.2 L 233 302.3 L 235.1 302.3 L 235.1 306.2 L 237.6 306.2 L 237.6 308.1 L 235.1 308.1 C 235.1 308.1 235.13 317.4 235.1 317.4 C 235.1 318.5 235.5 319.1 236.3 319.1 C 236.8 319.1 237.3 318.9 237.6 318.6 C 237.6 318.6 238.2 320.2 238.2 320.2 C 237.7 320.7 237 321.1 235.9 321.1 C 233.9 321.1 233 320 233 317.8 Z " stroke="none" fill="#d3d2d2"/>  </g>  <g id="Polygon150948">    <path d="M 2.1 284.7 L 2.1 264.7 C 2.1 264.7 8.19 264.69 8.2 264.7 C 11.8 264.7 13.7 267.5 13.7 270.7 C 13.7 273.9 11.8 276.7 8.2 276.7 C 8.19 276.69 4.5 276.7 4.5 276.7 L 4.5 284.7 L 2.1 284.7 Z M 11.3 270.7 C 11.3 268.4 10 266.8 7.9 266.8 C 7.95 266.79 4.5 266.8 4.5 266.8 L 4.5 274.6 C 4.5 274.6 7.95 274.59 7.9 274.6 C 10 274.6 11.3 273 11.3 270.7 Z M 15.1 277.4 C 15.1 273.2 17.3 269.9 20.9 269.9 C 24.8 269.9 26.7 273.3 26.7 277.5 C 26.67 277.5 26.7 278.2 26.7 278.2 C 26.7 278.2 17.28 278.16 17.3 278.2 C 17.4 281.1 18.9 283.3 21.5 283.3 C 22.7 283.3 24 282.6 24.9 281.5 C 24.9 281.5 26 282.8 26 282.8 C 24.9 284.2 23.2 285.1 21.3 285.1 C 17.4 285.1 15.1 281.9 15.1 277.4 Z M 20.9 271.7 C 18.4 271.7 17.3 274.4 17.3 276.6 C 17.3 276.6 24.5 276.6 24.5 276.6 C 24.5 274.4 23.6 271.7 20.9 271.7 Z M 29.5 284.7 L 29.5 270.2 L 31.6 270.2 C 31.6 270.2 31.65 272.52 31.6 272.5 C 32.6 271 34 269.9 35.8 269.9 C 35.8 269.9 35.8 272.1 35.8 272.1 C 35.5 272.1 35.3 272 35 272 C 33.7 272 32.2 273.2 31.6 274.4 C 31.65 274.41 31.6 284.7 31.6 284.7 L 29.5 284.7 Z M 52.6 284.7 C 52.6 284.7 52.59 274.2 52.6 274.2 C 52.6 272.6 52 271.8 50.6 271.8 C 49.3 271.8 48 272.9 47.4 274.1 C 47.43 274.08 47.4 284.7 47.4 284.7 L 45.3 284.7 C 45.3 284.7 45.27 274.2 45.3 274.2 C 45.3 272.6 44.6 271.8 43.2 271.8 C 41.9 271.8 40.7 272.9 40.1 274.1 C 40.08 274.08 40.1 284.7 40.1 284.7 L 37.9 284.7 L 37.9 270.2 L 40.1 270.2 C 40.1 270.2 40.08 272.28 40.1 272.3 C 40.7 271.2 42.3 269.9 44 269.9 C 45.9 269.9 47 270.9 47.3 272.4 C 48 271.1 49.6 269.9 51.4 269.9 C 53.5 269.9 54.7 271 54.7 273.6 C 54.75 273.63 54.7 284.7 54.7 284.7 L 52.6 284.7 Z M 65.8 284.7 C 65.8 284.7 65.85 283.14 65.8 283.1 C 64.9 284.5 63.5 285.1 62 285.1 C 59.7 285.1 57.7 283.3 57.7 280.2 C 57.7 277.2 59.7 275.5 62 275.5 C 63.5 275.5 64.9 276 65.8 277.3 C 65.8 277.3 65.8 274.8 65.8 274.8 C 65.8 272.8 64.8 271.7 62.9 271.7 C 61.5 271.7 60.4 272.2 59.2 273.5 C 59.2 273.5 58.3 272 58.3 272 C 59.7 270.5 61.4 269.9 63.2 269.9 C 66.1 269.9 68 271.3 68 274.6 C 68.01 274.56 68 284.7 68 284.7 L 65.8 284.7 Z M 65.8 281.7 C 65.8 281.7 65.8 278.9 65.8 278.9 C 65.2 277.7 64 277.1 62.7 277.1 C 60.9 277.1 59.8 278.5 59.8 280.3 C 59.8 282.1 60.9 283.5 62.7 283.5 C 64 283.5 65.2 282.9 65.8 281.7 Z M 79.5 284.7 C 79.5 284.7 79.47 274.38 79.5 274.4 C 79.5 272.5 78.6 271.8 77.2 271.8 C 75.7 271.8 74.4 272.9 73.8 274.1 C 73.77 274.08 73.8 284.7 73.8 284.7 L 71.6 284.7 L 71.6 270.2 L 73.8 270.2 C 73.8 270.2 73.77 272.28 73.8 272.3 C 74.6 271 76.2 269.9 78 269.9 C 80.4 269.9 81.6 271.2 81.6 273.8 C 81.63 273.78 81.6 284.7 81.6 284.7 L 79.5 284.7 Z M 84.6 277.4 C 84.6 273.2 86.8 269.9 90.4 269.9 C 94.3 269.9 96.2 273.3 96.2 277.5 C 96.18 277.5 96.2 278.2 96.2 278.2 C 96.2 278.2 86.79 278.16 86.8 278.2 C 86.9 281.1 88.4 283.3 91 283.3 C 92.2 283.3 93.5 282.6 94.4 281.5 C 94.4 281.5 95.5 282.8 95.5 282.8 C 94.4 284.2 92.7 285.1 90.8 285.1 C 86.9 285.1 84.6 281.9 84.6 277.4 Z M 90.4 271.7 C 87.9 271.7 86.8 274.4 86.8 276.6 C 86.8 276.6 94 276.6 94 276.6 C 94 274.4 93.1 271.7 90.4 271.7 Z M 106.9 284.7 C 106.9 284.7 106.86 274.38 106.9 274.4 C 106.9 272.5 106 271.8 104.5 271.8 C 103.1 271.8 101.8 272.9 101.2 274.1 C 101.16 274.08 101.2 284.7 101.2 284.7 L 99 284.7 L 99 270.2 L 101.2 270.2 C 101.2 270.2 101.16 272.28 101.2 272.3 C 102 271 103.6 269.9 105.4 269.9 C 107.8 269.9 109 271.2 109 273.8 C 109.02 273.78 109 284.7 109 284.7 L 106.9 284.7 Z M 113.1 281.8 C 113.1 281.79 113.1 272.1 113.1 272.1 L 111.2 272.1 L 111.2 270.2 L 113.1 270.2 L 113.1 266.3 L 115.3 266.3 L 115.3 270.2 L 117.7 270.2 L 117.7 272.1 L 115.3 272.1 C 115.3 272.1 115.26 281.4 115.3 281.4 C 115.3 282.5 115.6 283.1 116.4 283.1 C 117 283.1 117.4 282.9 117.7 282.6 C 117.7 282.6 118.3 284.2 118.3 284.2 C 117.8 284.7 117.1 285.1 116 285.1 C 114 285.1 113.1 284 113.1 281.8 Z M 141.1 284.7 C 141.1 284.7 141.06 274.2 141.1 274.2 C 141.1 272.6 140.4 271.8 139 271.8 C 137.8 271.8 136.5 272.9 135.9 274.1 C 135.9 274.08 135.9 284.7 135.9 284.7 L 133.7 284.7 C 133.7 284.7 133.74 274.2 133.7 274.2 C 133.7 272.6 133.1 271.8 131.7 271.8 C 130.4 271.8 129.2 272.9 128.5 274.1 C 128.55 274.08 128.5 284.7 128.5 284.7 L 126.4 284.7 L 126.4 270.2 L 128.5 270.2 C 128.5 270.2 128.55 272.28 128.5 272.3 C 129.1 271.2 130.8 269.9 132.5 269.9 C 134.4 269.9 135.5 270.9 135.8 272.4 C 136.5 271.1 138.1 269.9 139.9 269.9 C 142 269.9 143.2 271 143.2 273.6 C 143.22 273.63 143.2 284.7 143.2 284.7 L 141.1 284.7 Z M 154.3 284.7 C 154.3 284.7 154.32 283.14 154.3 283.1 C 153.4 284.5 152 285.1 150.5 285.1 C 148.2 285.1 146.1 283.3 146.1 280.2 C 146.1 277.2 148.1 275.5 150.5 275.5 C 152 275.5 153.4 276 154.3 277.3 C 154.3 277.3 154.3 274.8 154.3 274.8 C 154.3 272.8 153.2 271.7 151.3 271.7 C 150 271.7 148.8 272.2 147.7 273.5 C 147.7 273.5 146.8 272 146.8 272 C 148.1 270.5 149.8 269.9 151.7 269.9 C 154.6 269.9 156.5 271.3 156.5 274.6 C 156.48 274.56 156.5 284.7 156.5 284.7 L 154.3 284.7 Z M 154.3 281.7 C 154.3 281.7 154.3 278.9 154.3 278.9 C 153.7 277.7 152.5 277.1 151.2 277.1 C 149.4 277.1 148.3 278.5 148.3 280.3 C 148.3 282.1 149.4 283.5 151.2 283.5 C 152.5 283.5 153.7 282.9 154.3 281.7 Z M 160.1 284.7 L 160.1 270.2 L 162.2 270.2 C 162.2 270.2 162.24 272.52 162.2 272.5 C 163.2 271 164.6 269.9 166.3 269.9 C 166.3 269.9 166.3 272.1 166.3 272.1 C 166.1 272.1 165.9 272 165.6 272 C 164.3 272 162.8 273.2 162.2 274.4 C 162.24 274.41 162.2 284.7 162.2 284.7 L 160.1 284.7 Z M 176.7 284.7 L 172.7 278.2 L 170.7 280.8 L 170.7 284.7 L 168.5 284.7 L 168.5 264.7 L 170.7 264.7 L 170.7 278.1 L 176.7 270.2 L 179.2 270.2 L 174.2 276.7 L 179.2 284.7 L 176.7 284.7 Z M 180.5 277.4 C 180.5 273.2 182.8 269.9 186.4 269.9 C 190.2 269.9 192.1 273.3 192.1 277.5 C 192.15 277.5 192.1 278.2 192.1 278.2 C 192.1 278.2 182.76 278.16 182.8 278.2 C 182.8 281.1 184.3 283.3 186.9 283.3 C 188.2 283.3 189.5 282.6 190.4 281.5 C 190.4 281.5 191.5 282.8 191.5 282.8 C 190.3 284.2 188.7 285.1 186.7 285.1 C 182.9 285.1 180.5 281.9 180.5 277.4 Z M 186.4 271.7 C 183.8 271.7 182.8 274.4 182.8 276.6 C 182.8 276.6 190 276.6 190 276.6 C 190 274.4 189 271.7 186.4 271.7 Z M 195 284.7 L 195 270.2 L 197.1 270.2 C 197.1 270.2 197.13 272.52 197.1 272.5 C 198.1 271 199.5 269.9 201.2 269.9 C 201.2 269.9 201.2 272.1 201.2 272.1 C 201 272.1 200.8 272 200.5 272 C 199.2 272 197.7 273.2 197.1 274.4 C 197.13 274.41 197.1 284.7 197.1 284.7 L 195 284.7 Z " stroke="none" fill="#d3d2d2"/>  </g>  <g id="Polygon150947">    <path d="M 14 248.7 L 10.7 232.9 L 7.5 248.7 L 4.9 248.7 L 0.5 228.7 L 3 228.7 L 6.3 245 L 9.7 228.7 L 11.7 228.7 L 15.1 245 L 18.4 228.7 L 21 228.7 L 16.5 248.7 L 14 248.7 Z M 31 248.7 C 31 248.7 30.99 238.35 31 238.4 C 31 236.4 30.1 235.8 28.6 235.8 C 27.2 235.8 25.9 236.9 25.3 238.1 C 25.26 238.08 25.3 248.7 25.3 248.7 L 23.1 248.7 L 23.1 228.7 L 25.3 228.7 C 25.3 228.7 25.26 236.28 25.3 236.3 C 26.1 235 27.7 233.9 29.5 233.9 C 31.9 233.9 33.1 235.1 33.1 237.7 C 33.12 237.72 33.1 248.7 33.1 248.7 L 31 248.7 Z M 36.4 230.6 C 36.4 229.8 37 229.2 37.8 229.2 C 38.6 229.2 39.3 229.8 39.3 230.6 C 39.3 231.5 38.6 232.1 37.8 232.1 C 37 232.1 36.4 231.5 36.4 230.6 Z M 36.8 248.7 L 36.8 234.2 L 38.9 234.2 L 38.9 248.7 L 36.8 248.7 Z M 43 245.8 C 42.99 245.79 43 236.1 43 236.1 L 41.1 236.1 L 41.1 234.2 L 43 234.2 L 43 230.3 L 45.1 230.3 L 45.1 234.2 L 47.6 234.2 L 47.6 236.1 L 45.1 236.1 C 45.1 236.1 45.15 245.4 45.1 245.4 C 45.1 246.5 45.5 247.1 46.3 247.1 C 46.9 247.1 47.3 246.9 47.6 246.6 C 47.6 246.6 48.2 248.2 48.2 248.2 C 47.7 248.7 47 249.1 45.9 249.1 C 43.9 249.1 43 248 43 245.8 Z M 49.4 241.4 C 49.4 237.2 51.7 233.9 55.3 233.9 C 59.1 233.9 61 237.3 61 241.5 C 61.05 241.5 61 242.2 61 242.2 C 61 242.2 51.66 242.16 51.7 242.2 C 51.7 245.1 53.2 247.3 55.8 247.3 C 57.1 247.3 58.4 246.6 59.3 245.5 C 59.3 245.5 60.4 246.8 60.4 246.8 C 59.2 248.2 57.6 249.1 55.6 249.1 C 51.8 249.1 49.4 245.9 49.4 241.4 Z M 55.3 235.7 C 52.7 235.7 51.7 238.4 51.7 240.6 C 51.7 240.6 58.9 240.6 58.9 240.6 C 58.9 238.4 57.9 235.7 55.3 235.7 Z M 84.7 248.7 C 84.7 248.7 84.69 238.2 84.7 238.2 C 84.7 236.6 84.1 235.8 82.7 235.8 C 81.4 235.8 80.1 236.9 79.5 238.1 C 79.53 238.08 79.5 248.7 79.5 248.7 L 77.4 248.7 C 77.4 248.7 77.37 238.2 77.4 238.2 C 77.4 236.6 76.7 235.8 75.3 235.8 C 74 235.8 72.8 236.9 72.2 238.1 C 72.18 238.08 72.2 248.7 72.2 248.7 L 70 248.7 L 70 234.2 L 72.2 234.2 C 72.2 234.2 72.18 236.28 72.2 236.3 C 72.8 235.2 74.4 233.9 76.1 233.9 C 78 233.9 79.1 234.9 79.4 236.4 C 80.1 235.1 81.7 233.9 83.5 233.9 C 85.6 233.9 86.8 235 86.8 237.6 C 86.85 237.63 86.8 248.7 86.8 248.7 L 84.7 248.7 Z M 89.8 241.4 C 89.8 237.4 91.8 233.9 95.7 233.9 C 99.6 233.9 101.6 237.4 101.6 241.4 C 101.6 245.5 99.6 249.1 95.7 249.1 C 91.8 249.1 89.8 245.5 89.8 241.4 Z M 99.3 241.4 C 99.3 238.5 98.2 235.8 95.7 235.8 C 93.2 235.8 92 238.5 92 241.4 C 92 244.4 93.2 247.1 95.7 247.1 C 98.2 247.1 99.3 244.4 99.3 241.4 Z M 112.8 248.7 C 112.8 248.7 112.8 246.63 112.8 246.6 C 112 248.1 110.5 249.1 109 249.1 C 105.7 249.1 103.8 246 103.8 241.5 C 103.8 237 105.7 233.9 109 233.9 C 110.5 233.9 111.9 234.7 112.8 236.3 C 112.8 236.31 112.8 228.7 112.8 228.7 L 115 228.7 L 115 248.7 L 112.8 248.7 Z M 112.8 244.8 C 112.8 244.8 112.8 238.1 112.8 238.1 C 112.3 236.9 110.9 235.8 109.5 235.8 C 107.2 235.8 106 238.3 106 241.5 C 106 244.6 107.2 247.1 109.5 247.1 C 110.9 247.1 112.3 246.1 112.8 244.8 Z M 117.9 241.4 C 117.9 237.2 120.1 233.9 123.8 233.9 C 127.6 233.9 129.5 237.3 129.5 241.5 C 129.51 241.5 129.5 242.2 129.5 242.2 C 129.5 242.2 120.12 242.16 120.1 242.2 C 120.2 245.1 121.7 247.3 124.3 247.3 C 125.5 247.3 126.8 246.6 127.7 245.5 C 127.7 245.5 128.9 246.8 128.9 246.8 C 127.7 248.2 126.1 249.1 124.1 249.1 C 120.2 249.1 117.9 245.9 117.9 241.4 Z M 123.7 235.7 C 121.2 235.7 120.2 238.4 120.1 240.6 C 120.1 240.6 127.4 240.6 127.4 240.6 C 127.3 238.4 126.4 235.7 123.7 235.7 Z M 132.4 248.7 L 132.4 228.7 L 134.5 228.7 L 134.5 248.7 L 132.4 248.7 Z M 138.1 248.7 L 138.1 228.7 L 140.3 228.7 L 140.3 248.7 L 138.1 248.7 Z M 143.5 230.6 C 143.5 229.8 144.2 229.2 145 229.2 C 145.8 229.2 146.5 229.8 146.5 230.6 C 146.5 231.5 145.8 232.1 145 232.1 C 144.2 232.1 143.5 231.5 143.5 230.6 Z M 143.9 248.7 L 143.9 234.2 L 146.1 234.2 L 146.1 248.7 L 143.9 248.7 Z M 157.6 248.7 C 157.6 248.7 157.56 238.38 157.6 238.4 C 157.6 236.5 156.7 235.8 155.2 235.8 C 153.8 235.8 152.5 236.9 151.9 238.1 C 151.86 238.08 151.9 248.7 151.9 248.7 L 149.7 248.7 L 149.7 234.2 L 151.9 234.2 C 151.9 234.2 151.86 236.28 151.9 236.3 C 152.7 235 154.3 233.9 156.1 233.9 C 158.5 233.9 159.7 235.2 159.7 237.8 C 159.72 237.78 159.7 248.7 159.7 248.7 L 157.6 248.7 Z M 163.3 252.8 C 163.3 252.8 164.2 251.1 164.2 251.1 C 165.2 252.2 166.4 252.8 168 252.8 C 170 252.8 171.7 251.6 171.7 248.8 C 171.7 248.8 171.7 246.4 171.7 246.4 C 170.8 247.9 169.4 248.9 167.8 248.9 C 164.6 248.9 162.7 245.9 162.7 241.4 C 162.7 236.9 164.6 233.9 167.8 233.9 C 169.3 233.9 170.8 234.7 171.7 236.3 C 171.66 236.31 171.7 234.2 171.7 234.2 L 173.8 234.2 C 173.8 234.2 173.82 248.67 173.8 248.7 C 173.8 253.1 171.1 254.6 168.1 254.6 C 166.1 254.6 164.6 254.1 163.3 252.8 Z M 171.7 244.6 C 171.7 244.6 171.7 238.1 171.7 238.1 C 171.1 236.9 169.8 235.8 168.4 235.8 C 166 235.8 164.9 238.3 164.9 241.4 C 164.9 244.5 166 247 168.4 247 C 169.8 247 171.1 245.8 171.7 244.6 Z M 182.9 241.4 C 182.9 237.2 185.2 233.9 188.9 233.9 C 190.9 233.9 192.1 234.7 193 235.8 C 193 235.8 191.8 237.2 191.8 237.2 C 191.1 236.2 190.2 235.8 189.1 235.8 C 186.5 235.8 185.1 238.4 185.1 241.4 C 185.1 244.5 186.5 247.1 189.1 247.1 C 190.2 247.1 191.1 246.7 191.8 245.7 C 191.8 245.7 193 247.1 193 247.1 C 192.1 248.3 190.9 249.1 188.9 249.1 C 185.2 249.1 182.9 245.7 182.9 241.4 Z M 195.5 248.7 L 195.5 228.7 L 197.6 228.7 L 197.6 248.7 L 195.5 248.7 Z M 208.7 248.7 C 208.7 248.7 208.7 247.14 208.7 247.1 C 207.8 248.5 206.4 249.1 204.9 249.1 C 202.6 249.1 200.5 247.3 200.5 244.2 C 200.5 241.2 202.5 239.5 204.9 239.5 C 206.4 239.5 207.8 240 208.7 241.3 C 208.7 241.3 208.7 238.8 208.7 238.8 C 208.7 236.8 207.6 235.7 205.7 235.7 C 204.4 235.7 203.2 236.2 202.1 237.5 C 202.1 237.5 201.1 236 201.1 236 C 202.5 234.5 204.2 233.9 206.1 233.9 C 208.9 233.9 210.9 235.3 210.9 238.6 C 210.86 238.56 210.9 248.7 210.9 248.7 L 208.7 248.7 Z M 208.7 245.7 C 208.7 245.7 208.7 242.9 208.7 242.9 C 208 241.7 206.8 241.1 205.6 241.1 C 203.8 241.1 202.7 242.5 202.7 244.3 C 202.7 246.1 203.8 247.5 205.6 247.5 C 206.8 247.5 208 246.9 208.7 245.7 Z M 214.1 252.5 C 214.3 252.6 214.8 252.7 215 252.7 C 215.9 252.7 216.4 252.3 216.7 251.2 C 216.74 251.22 217.5 249 217.5 249 L 212.7 234.2 L 215 234.2 L 218.6 246.1 L 222.3 234.2 L 224.6 234.2 C 224.6 234.2 218.78 251.76 218.8 251.8 C 218.1 253.9 216.9 254.6 215.2 254.6 C 214.7 254.6 214.1 254.5 213.7 254.4 C 213.7 254.4 214.1 252.5 214.1 252.5 Z " stroke="none" fill="#d3d2d2"/>  </g>  <g id="Polygon150946">    <path d="M 12.8 212.7 L 4.5 197.8 L 4.5 212.7 L 2.1 212.7 L 2.1 192.7 L 4.5 192.7 L 12.7 207.3 L 12.7 192.7 L 15.1 192.7 L 15.1 212.7 L 12.8 212.7 Z M 18.1 205.4 C 18.1 201.2 20.3 197.9 24 197.9 C 27.8 197.9 29.7 201.3 29.7 205.5 C 29.73 205.5 29.7 206.2 29.7 206.2 C 29.7 206.2 20.34 206.16 20.3 206.2 C 20.4 209.1 21.9 211.3 24.5 211.3 C 25.8 211.3 27.1 210.6 28 209.5 C 28 209.5 29.1 210.8 29.1 210.8 C 27.9 212.2 26.3 213.1 24.3 213.1 C 20.5 213.1 18.1 209.9 18.1 205.4 Z M 24 199.7 C 21.4 199.7 20.4 202.4 20.3 204.6 C 20.3 204.6 27.6 204.6 27.6 204.6 C 27.6 202.4 26.6 199.7 24 199.7 Z M 31.9 205.4 C 31.9 201.4 33.9 197.9 37.7 197.9 C 41.6 197.9 43.6 201.4 43.6 205.4 C 43.6 209.5 41.6 213.1 37.7 213.1 C 33.9 213.1 31.9 209.5 31.9 205.4 Z M 41.4 205.4 C 41.4 202.5 40.3 199.8 37.7 199.8 C 35.2 199.8 34.1 202.5 34.1 205.4 C 34.1 208.4 35.2 211.1 37.7 211.1 C 40.3 211.1 41.4 208.4 41.4 205.4 Z M 48.7 210.6 C 48.72 210.6 48.7 218.2 48.7 218.2 L 46.6 218.2 L 46.6 198.2 L 48.7 198.2 C 48.7 198.2 48.72 200.28 48.7 200.3 C 49.6 198.8 51 197.9 52.5 197.9 C 55.8 197.9 57.7 200.9 57.7 205.4 C 57.7 210 55.8 213.1 52.5 213.1 C 51.1 213.1 49.6 212.2 48.7 210.6 Z M 55.5 205.4 C 55.5 202.3 54.4 199.8 52 199.8 C 50.6 199.8 49.3 200.9 48.7 202.1 C 48.7 202.1 48.7 208.7 48.7 208.7 C 49.3 210 50.6 211.1 52 211.1 C 54.4 211.1 55.5 208.6 55.5 205.4 Z M 60.6 212.7 L 60.6 198.2 L 62.8 198.2 C 62.8 198.2 62.76 200.52 62.8 200.5 C 63.7 199 65.1 197.9 66.9 197.9 C 66.9 197.9 66.9 200.1 66.9 200.1 C 66.6 200.1 66.4 200 66.1 200 C 64.8 200 63.4 201.2 62.8 202.4 C 62.76 202.41 62.8 212.7 62.8 212.7 L 60.6 212.7 Z M 68.3 205.4 C 68.3 201.2 70.6 197.9 74.2 197.9 C 78 197.9 79.9 201.3 79.9 205.5 C 79.95 205.5 79.9 206.2 79.9 206.2 C 79.9 206.2 70.56 206.16 70.6 206.2 C 70.6 209.1 72.1 211.3 74.7 211.3 C 76 211.3 77.3 210.6 78.2 209.5 C 78.2 209.5 79.3 210.8 79.3 210.8 C 78.1 212.2 76.5 213.1 74.5 213.1 C 70.7 213.1 68.3 209.9 68.3 205.4 Z M 74.2 199.7 C 71.6 199.7 70.6 202.4 70.6 204.6 C 70.6 204.6 77.8 204.6 77.8 204.6 C 77.8 202.4 76.8 199.7 74.2 199.7 Z M 90.6 212.7 C 90.6 212.7 90.63 202.38 90.6 202.4 C 90.6 200.5 89.8 199.8 88.3 199.8 C 86.9 199.8 85.6 200.9 84.9 202.1 C 84.93 202.08 84.9 212.7 84.9 212.7 L 82.8 212.7 L 82.8 198.2 L 84.9 198.2 C 84.9 198.2 84.93 200.28 84.9 200.3 C 85.8 199 87.4 197.9 89.1 197.9 C 91.6 197.9 92.8 199.2 92.8 201.8 C 92.79 201.78 92.8 212.7 92.8 212.7 L 90.6 212.7 Z M 95.7 205.4 C 95.7 201.2 97.9 197.9 101.6 197.9 C 105.4 197.9 107.3 201.3 107.3 205.5 C 107.34 205.5 107.3 206.2 107.3 206.2 C 107.3 206.2 97.95 206.16 97.9 206.2 C 98 209.1 99.5 211.3 102.1 211.3 C 103.4 211.3 104.7 210.6 105.6 209.5 C 105.6 209.5 106.7 210.8 106.7 210.8 C 105.5 212.2 103.9 213.1 101.9 213.1 C 98.1 213.1 95.7 209.9 95.7 205.4 Z M 101.6 199.7 C 99 199.7 98 202.4 97.9 204.6 C 97.9 204.6 105.2 204.6 105.2 204.6 C 105.2 202.4 104.2 199.7 101.6 199.7 Z M 115.2 211 C 115.2 211 116.2 209.5 116.2 209.5 C 117.1 210.5 118.5 211.3 120 211.3 C 121.7 211.3 122.8 210.4 122.8 209 C 122.8 205.6 115.6 206.8 115.6 201.8 C 115.6 199.6 117.3 197.9 120.2 197.9 C 122.1 197.9 123.6 198.6 124.6 199.7 C 124.6 199.7 123.6 201.2 123.6 201.2 C 122.9 200.2 121.6 199.6 120.2 199.6 C 118.6 199.6 117.7 200.5 117.7 201.7 C 117.7 204.8 124.9 203.7 124.9 208.9 C 124.9 211.3 123 213.1 120.1 213.1 C 118 213.1 116.4 212.4 115.2 211 Z M 135.5 212.7 C 135.5 212.7 135.51 202.35 135.5 202.4 C 135.5 200.4 134.6 199.8 133.2 199.8 C 131.8 199.8 130.4 200.9 129.8 202.1 C 129.78 202.08 129.8 212.7 129.8 212.7 L 127.6 212.7 L 127.6 192.7 L 129.8 192.7 C 129.8 192.7 129.78 200.28 129.8 200.3 C 130.6 199 132.3 197.9 134 197.9 C 136.5 197.9 137.6 199.1 137.6 201.7 C 137.64 201.72 137.6 212.7 137.6 212.7 L 135.5 212.7 Z M 140.6 205.4 C 140.6 201.4 142.6 197.9 146.5 197.9 C 150.4 197.9 152.4 201.4 152.4 205.4 C 152.4 209.5 150.4 213.1 146.5 213.1 C 142.6 213.1 140.6 209.5 140.6 205.4 Z M 150.1 205.4 C 150.1 202.5 149 199.8 146.5 199.8 C 144 199.8 142.8 202.5 142.8 205.4 C 142.8 208.4 144 211.1 146.5 211.1 C 149 211.1 150.1 208.4 150.1 205.4 Z M 154.6 205.4 C 154.6 201.2 156.8 197.9 160.5 197.9 C 164.3 197.9 166.2 201.3 166.2 205.5 C 166.2 205.5 166.2 206.2 166.2 206.2 C 166.2 206.2 156.81 206.16 156.8 206.2 C 156.9 209.1 158.4 211.3 161 211.3 C 162.2 211.3 163.5 210.6 164.4 209.5 C 164.4 209.5 165.6 210.8 165.6 210.8 C 164.4 212.2 162.7 213.1 160.8 213.1 C 156.9 213.1 154.6 209.9 154.6 205.4 Z M 160.4 199.7 C 157.9 199.7 156.9 202.4 156.8 204.6 C 156.8 204.6 164.1 204.6 164.1 204.6 C 164 202.4 163.1 199.7 160.4 199.7 Z M 175.1 216.8 C 175.1 216.8 176.1 215.1 176.1 215.1 C 177 216.2 178.3 216.8 179.8 216.8 C 181.8 216.8 183.5 215.6 183.5 212.8 C 183.5 212.8 183.5 210.4 183.5 210.4 C 182.6 211.9 181.2 212.9 179.7 212.9 C 176.4 212.9 174.5 209.9 174.5 205.4 C 174.5 200.9 176.4 197.9 179.7 197.9 C 181.1 197.9 182.6 198.7 183.5 200.3 C 183.48 200.31 183.5 198.2 183.5 198.2 L 185.6 198.2 C 185.6 198.2 185.64 212.67 185.6 212.7 C 185.6 217.1 182.9 218.6 179.9 218.6 C 178 218.6 176.5 218.1 175.1 216.8 Z M 183.5 208.6 C 183.5 208.6 183.5 202.1 183.5 202.1 C 182.9 200.9 181.6 199.8 180.2 199.8 C 177.8 199.8 176.7 202.3 176.7 205.4 C 176.7 208.5 177.8 211 180.2 211 C 181.6 211 182.9 209.8 183.5 208.6 Z M 189.3 212.7 L 189.3 192.7 L 191.4 192.7 L 191.4 212.7 L 189.3 212.7 Z M 202.9 212.7 C 202.9 212.7 202.89 210.69 202.9 210.7 C 202 212 200.5 213.1 198.7 213.1 C 196.2 213.1 195.1 211.8 195.1 209.2 C 195.06 209.19 195.1 198.2 195.1 198.2 L 197.2 198.2 C 197.2 198.2 197.19 208.56 197.2 208.6 C 197.2 210.5 198.1 211.1 199.5 211.1 C 200.9 211.1 202.3 210.1 202.9 208.9 C 202.89 208.89 202.9 198.2 202.9 198.2 L 205 198.2 L 205 212.7 L 202.9 212.7 Z M 208 205.4 C 208 201.2 210.2 197.9 213.9 197.9 C 217.7 197.9 219.6 201.3 219.6 205.5 C 219.6 205.5 219.6 206.2 219.6 206.2 C 219.6 206.2 210.21 206.16 210.2 206.2 C 210.3 209.1 211.8 211.3 214.4 211.3 C 215.6 211.3 216.9 210.6 217.8 209.5 C 217.8 209.5 219 210.8 219 210.8 C 217.8 212.2 216.1 213.1 214.2 213.1 C 210.3 213.1 208 209.9 208 205.4 Z M 213.8 199.7 C 211.3 199.7 210.3 202.4 210.2 204.6 C 210.2 204.6 217.5 204.6 217.5 204.6 C 217.4 202.4 216.5 199.7 213.8 199.7 Z " stroke="none" fill="#d3d2d2"/>  </g>  <g id="Polygon150945">    <path d="M 5.5 176.7 L 5.5 158.8 L 0.8 158.8 L 0.8 156.7 L 12.6 156.7 L 12.6 158.8 L 7.9 158.8 L 7.9 176.7 L 5.5 176.7 Z M 14.6 158.6 C 14.6 157.8 15.3 157.2 16.1 157.2 C 16.9 157.2 17.6 157.8 17.6 158.6 C 17.6 159.5 16.9 160.1 16.1 160.1 C 15.3 160.1 14.6 159.5 14.6 158.6 Z M 15.1 176.7 L 15.1 162.2 L 17.2 162.2 L 17.2 176.7 L 15.1 176.7 Z M 19.7 175 C 19.7 175 20.8 173.5 20.8 173.5 C 21.6 174.5 23 175.3 24.5 175.3 C 26.2 175.3 27.3 174.4 27.3 173 C 27.3 169.6 20.1 170.8 20.1 165.8 C 20.1 163.6 21.8 161.9 24.7 161.9 C 26.6 161.9 28.1 162.6 29.1 163.7 C 29.1 163.7 28.1 165.2 28.1 165.2 C 27.4 164.2 26.2 163.6 24.7 163.6 C 23.2 163.6 22.2 164.5 22.2 165.7 C 22.2 168.8 29.4 167.7 29.4 172.9 C 29.4 175.3 27.5 177.1 24.6 177.1 C 22.5 177.1 20.9 176.4 19.7 175 Z M 31 175 C 31 175 32.1 173.5 32.1 173.5 C 32.9 174.5 34.3 175.3 35.8 175.3 C 37.5 175.3 38.6 174.4 38.6 173 C 38.6 169.6 31.4 170.8 31.4 165.8 C 31.4 163.6 33.1 161.9 36 161.9 C 37.9 161.9 39.4 162.6 40.4 163.7 C 40.4 163.7 39.4 165.2 39.4 165.2 C 38.7 164.2 37.5 163.6 36.1 163.6 C 34.5 163.6 33.5 164.5 33.5 165.7 C 33.5 168.8 40.7 167.7 40.7 172.9 C 40.7 175.3 38.8 177.1 35.9 177.1 C 33.8 177.1 32.2 176.4 31 175 Z M 51.3 176.7 C 51.3 176.7 51.3 174.69 51.3 174.7 C 50.4 176 48.9 177.1 47.1 177.1 C 44.6 177.1 43.5 175.8 43.5 173.2 C 43.47 173.19 43.5 162.2 43.5 162.2 L 45.6 162.2 C 45.6 162.2 45.6 172.56 45.6 172.6 C 45.6 174.5 46.5 175.1 47.9 175.1 C 49.3 175.1 50.7 174.1 51.3 172.9 C 51.3 172.89 51.3 162.2 51.3 162.2 L 53.5 162.2 L 53.5 176.7 L 51.3 176.7 Z M 56.4 169.4 C 56.4 165.2 58.6 161.9 62.3 161.9 C 66.1 161.9 68 165.3 68 169.5 C 68.01 169.5 68 170.2 68 170.2 C 68 170.2 58.62 170.16 58.6 170.2 C 58.7 173.1 60.2 175.3 62.8 175.3 C 64 175.3 65.3 174.6 66.2 173.5 C 66.2 173.5 67.4 174.8 67.4 174.8 C 66.2 176.2 64.6 177.1 62.6 177.1 C 58.7 177.1 56.4 173.9 56.4 169.4 Z M 62.2 163.7 C 59.7 163.7 58.7 166.4 58.6 168.6 C 58.6 168.6 65.9 168.6 65.9 168.6 C 65.8 166.4 64.9 163.7 62.2 163.7 Z M 79.1 174.6 C 79.14 174.6 79.1 182.2 79.1 182.2 L 77 182.2 L 77 162.2 L 79.1 162.2 C 79.1 162.2 79.14 164.28 79.1 164.3 C 80 162.8 81.4 161.9 82.9 161.9 C 86.2 161.9 88.1 164.9 88.1 169.4 C 88.1 174 86.2 177.1 82.9 177.1 C 81.5 177.1 80 176.2 79.1 174.6 Z M 85.9 169.4 C 85.9 166.3 84.8 163.8 82.4 163.8 C 81.1 163.8 79.7 164.9 79.1 166.1 C 79.1 166.1 79.1 172.7 79.1 172.7 C 79.7 174 81.1 175.1 82.4 175.1 C 84.8 175.1 85.9 172.6 85.9 169.4 Z M 98.5 176.7 C 98.5 176.7 98.49 175.14 98.5 175.1 C 97.6 176.5 96.1 177.1 94.7 177.1 C 92.3 177.1 90.3 175.3 90.3 172.2 C 90.3 169.2 92.3 167.5 94.7 167.5 C 96.1 167.5 97.6 168 98.5 169.3 C 98.5 169.3 98.5 166.8 98.5 166.8 C 98.5 164.8 97.4 163.7 95.5 163.7 C 94.2 163.7 93 164.2 91.9 165.5 C 91.9 165.5 90.9 164 90.9 164 C 92.3 162.5 94 161.9 95.8 161.9 C 98.7 161.9 100.6 163.3 100.6 166.6 C 100.65 166.56 100.6 176.7 100.6 176.7 L 98.5 176.7 Z M 98.5 173.7 C 98.5 173.7 98.5 170.9 98.5 170.9 C 97.8 169.7 96.6 169.1 95.4 169.1 C 93.6 169.1 92.5 170.5 92.5 172.3 C 92.5 174.1 93.6 175.5 95.4 175.5 C 96.6 175.5 97.8 174.9 98.5 173.7 Z M 106.4 174.6 C 106.41 174.6 106.4 182.2 106.4 182.2 L 104.3 182.2 L 104.3 162.2 L 106.4 162.2 C 106.4 162.2 106.41 164.28 106.4 164.3 C 107.2 162.8 108.7 161.9 110.2 161.9 C 113.5 161.9 115.4 164.9 115.4 169.4 C 115.4 174 113.5 177.1 110.2 177.1 C 108.7 177.1 107.3 176.2 106.4 174.6 Z M 113.2 169.4 C 113.2 166.3 112 163.8 109.7 163.8 C 108.3 163.8 107 164.9 106.4 166.1 C 106.4 166.1 106.4 172.7 106.4 172.7 C 107 174 108.3 175.1 109.7 175.1 C 112 175.1 113.2 172.6 113.2 169.4 Z M 117.6 169.4 C 117.6 165.2 119.8 161.9 123.5 161.9 C 127.3 161.9 129.2 165.3 129.2 169.5 C 129.21 169.5 129.2 170.2 129.2 170.2 C 129.2 170.2 119.82 170.16 119.8 170.2 C 119.9 173.1 121.4 175.3 124 175.3 C 125.2 175.3 126.5 174.6 127.4 173.5 C 127.4 173.5 128.6 174.8 128.6 174.8 C 127.4 176.2 125.8 177.1 123.8 177.1 C 119.9 177.1 117.6 173.9 117.6 169.4 Z M 123.4 163.7 C 120.9 163.7 119.9 166.4 119.8 168.6 C 119.8 168.6 127.1 168.6 127.1 168.6 C 127 166.4 126.1 163.7 123.4 163.7 Z M 132.1 176.7 L 132.1 162.2 L 134.2 162.2 C 134.2 162.2 134.19 164.52 134.2 164.5 C 135.1 163 136.5 161.9 138.3 161.9 C 138.3 161.9 138.3 164.1 138.3 164.1 C 138.1 164.1 137.8 164 137.6 164 C 136.3 164 134.8 165.2 134.2 166.4 C 134.19 166.41 134.2 176.7 134.2 176.7 L 132.1 176.7 Z " stroke="none" fill="#d3d2d2"/>  </g>  <g id="Polygon150944">    <path d="M 0.9 138.5 C 0.9 138.5 2.2 136.7 2.2 136.7 C 3.2 137.9 4.9 138.9 6.8 138.9 C 9.4 138.9 10.5 137.4 10.5 135.7 C 10.5 130.8 1.5 132.1 1.5 125.6 C 1.5 122.6 3.9 120.4 7.2 120.4 C 9.4 120.4 11.2 121.1 12.5 122.5 C 12.5 122.5 11.3 124.3 11.3 124.3 C 10.2 123.1 8.7 122.5 7.1 122.5 C 5.3 122.5 3.9 123.7 3.9 125.5 C 3.9 129.7 12.9 128.8 12.9 135.5 C 12.9 138.5 11 141.1 6.8 141.1 C 4.2 141.1 2.2 140.1 0.9 138.5 Z M 15.4 122.6 C 15.4 121.8 16 121.2 16.8 121.2 C 17.6 121.2 18.3 121.8 18.3 122.6 C 18.3 123.5 17.6 124.1 16.8 124.1 C 16 124.1 15.4 123.5 15.4 122.6 Z M 15.8 140.7 L 15.8 126.2 L 17.9 126.2 L 17.9 140.7 L 15.8 140.7 Z M 21.6 140.7 L 21.6 120.7 L 23.7 120.7 L 23.7 140.7 L 21.6 140.7 Z M 26.9 122.6 C 26.9 121.8 27.6 121.2 28.4 121.2 C 29.2 121.2 29.9 121.8 29.9 122.6 C 29.9 123.5 29.2 124.1 28.4 124.1 C 27.6 124.1 26.9 123.5 26.9 122.6 Z M 27.4 140.7 L 27.4 126.2 L 29.5 126.2 L 29.5 140.7 L 27.4 140.7 Z M 32.4 133.4 C 32.4 129.2 34.7 125.9 38.4 125.9 C 40.4 125.9 41.7 126.7 42.6 127.8 C 42.6 127.8 41.4 129.2 41.4 129.2 C 40.6 128.2 39.7 127.8 38.6 127.8 C 36 127.8 34.7 130.4 34.7 133.4 C 34.7 136.5 36 139.1 38.6 139.1 C 39.7 139.1 40.6 138.7 41.4 137.7 C 41.4 137.7 42.6 139.1 42.6 139.1 C 41.7 140.3 40.4 141.1 38.4 141.1 C 34.7 141.1 32.4 137.7 32.4 133.4 Z M 44.3 133.4 C 44.3 129.4 46.3 125.9 50.2 125.9 C 54.1 125.9 56.1 129.4 56.1 133.4 C 56.1 137.5 54.1 141.1 50.2 141.1 C 46.3 141.1 44.3 137.5 44.3 133.4 Z M 53.8 133.4 C 53.8 130.5 52.7 127.8 50.2 127.8 C 47.7 127.8 46.6 130.5 46.6 133.4 C 46.6 136.4 47.7 139.1 50.2 139.1 C 52.7 139.1 53.8 136.4 53.8 133.4 Z M 66.9 140.7 C 66.9 140.7 66.87 130.38 66.9 130.4 C 66.9 128.5 66 127.8 64.6 127.8 C 63.1 127.8 61.8 128.9 61.2 130.1 C 61.17 130.08 61.2 140.7 61.2 140.7 L 59 140.7 L 59 126.2 L 61.2 126.2 C 61.2 126.2 61.17 128.28 61.2 128.3 C 62 127 63.6 125.9 65.4 125.9 C 67.8 125.9 69 127.2 69 129.8 C 69.03 129.78 69 140.7 69 140.7 L 66.9 140.7 Z M 72 133.4 C 72 129.2 74.2 125.9 77.8 125.9 C 81.7 125.9 83.6 129.3 83.6 133.5 C 83.58 133.5 83.6 134.2 83.6 134.2 C 83.6 134.2 74.19 134.16 74.2 134.2 C 74.3 137.1 75.8 139.3 78.4 139.3 C 79.6 139.3 80.9 138.6 81.8 137.5 C 81.8 137.5 82.9 138.8 82.9 138.8 C 81.8 140.2 80.1 141.1 78.2 141.1 C 74.3 141.1 72 137.9 72 133.4 Z M 77.8 127.7 C 75.3 127.7 74.2 130.4 74.2 132.6 C 74.2 132.6 81.4 132.6 81.4 132.6 C 81.4 130.4 80.5 127.7 77.8 127.7 Z M 94.7 138.6 C 94.71 138.6 94.7 146.2 94.7 146.2 L 92.6 146.2 L 92.6 126.2 L 94.7 126.2 C 94.7 126.2 94.71 128.28 94.7 128.3 C 95.5 126.8 97 125.9 98.5 125.9 C 101.8 125.9 103.7 128.9 103.7 133.4 C 103.7 138 101.8 141.1 98.5 141.1 C 97 141.1 95.6 140.2 94.7 138.6 Z M 101.5 133.4 C 101.5 130.3 100.3 127.8 98 127.8 C 96.6 127.8 95.3 128.9 94.7 130.1 C 94.7 130.1 94.7 136.7 94.7 136.7 C 95.3 138 96.6 139.1 98 139.1 C 100.3 139.1 101.5 136.6 101.5 133.4 Z M 114.5 140.7 C 114.5 140.7 114.48 130.35 114.5 130.4 C 114.5 128.4 113.6 127.8 112.1 127.8 C 110.7 127.8 109.4 128.9 108.7 130.1 C 108.75 130.08 108.7 140.7 108.7 140.7 L 106.6 140.7 L 106.6 120.7 L 108.7 120.7 C 108.7 120.7 108.75 128.28 108.7 128.3 C 109.6 127 111.2 125.9 113 125.9 C 115.4 125.9 116.6 127.1 116.6 129.7 C 116.61 129.72 116.6 140.7 116.6 140.7 L 114.5 140.7 Z M 119.5 133.4 C 119.5 129.4 121.6 125.9 125.4 125.9 C 129.3 125.9 131.3 129.4 131.3 133.4 C 131.3 137.5 129.3 141.1 125.4 141.1 C 121.6 141.1 119.5 137.5 119.5 133.4 Z M 129.1 133.4 C 129.1 130.5 128 127.8 125.4 127.8 C 122.9 127.8 121.8 130.5 121.8 133.4 C 121.8 136.4 122.9 139.1 125.4 139.1 C 128 139.1 129.1 136.4 129.1 133.4 Z M 142.1 140.7 C 142.1 140.7 142.11 130.38 142.1 130.4 C 142.1 128.5 141.2 127.8 139.8 127.8 C 138.4 127.8 137.1 128.9 136.4 130.1 C 136.41 130.08 136.4 140.7 136.4 140.7 L 134.3 140.7 L 134.3 126.2 L 136.4 126.2 C 136.4 126.2 136.41 128.28 136.4 128.3 C 137.2 127 138.9 125.9 140.6 125.9 C 143.1 125.9 144.3 127.2 144.3 129.8 C 144.27 129.78 144.3 140.7 144.3 140.7 L 142.1 140.7 Z M 147.2 133.4 C 147.2 129.2 149.4 125.9 153.1 125.9 C 156.9 125.9 158.8 129.3 158.8 133.5 C 158.82 133.5 158.8 134.2 158.8 134.2 C 158.8 134.2 149.43 134.16 149.4 134.2 C 149.5 137.1 151 139.3 153.6 139.3 C 154.9 139.3 156.1 138.6 157 137.5 C 157 137.5 158.2 138.8 158.2 138.8 C 157 140.2 155.4 141.1 153.4 141.1 C 149.5 141.1 147.2 137.9 147.2 133.4 Z M 153.1 127.7 C 150.5 127.7 149.5 130.4 149.4 132.6 C 149.4 132.6 156.7 132.6 156.7 132.6 C 156.7 130.4 155.7 127.7 153.1 127.7 Z M 167.1 133.4 C 167.1 129.2 169.4 125.9 173.1 125.9 C 175.1 125.9 176.3 126.7 177.2 127.8 C 177.2 127.8 176.1 129.2 176.1 129.2 C 175.3 128.2 174.4 127.8 173.3 127.8 C 170.7 127.8 169.3 130.4 169.3 133.4 C 169.3 136.5 170.7 139.1 173.3 139.1 C 174.4 139.1 175.3 138.7 176.1 137.7 C 176.1 137.7 177.2 139.1 177.2 139.1 C 176.3 140.3 175.1 141.1 173.1 141.1 C 169.4 141.1 167.1 137.7 167.1 133.4 Z M 187.1 140.7 C 187.1 140.7 187.14 139.14 187.1 139.1 C 186.2 140.5 184.8 141.1 183.3 141.1 C 181 141.1 178.9 139.3 178.9 136.2 C 178.9 133.2 181 131.5 183.3 131.5 C 184.8 131.5 186.2 132 187.1 133.3 C 187.1 133.3 187.1 130.8 187.1 130.8 C 187.1 128.8 186.1 127.7 184.2 127.7 C 182.8 127.7 181.6 128.2 180.5 129.5 C 180.5 129.5 179.6 128 179.6 128 C 181 126.5 182.7 125.9 184.5 125.9 C 187.4 125.9 189.3 127.3 189.3 130.6 C 189.3 130.56 189.3 140.7 189.3 140.7 L 187.1 140.7 Z M 187.1 137.7 C 187.1 137.7 187.1 134.9 187.1 134.9 C 186.5 133.7 185.3 133.1 184 133.1 C 182.2 133.1 181.1 134.5 181.1 136.3 C 181.1 138.1 182.2 139.5 184 139.5 C 185.3 139.5 186.5 138.9 187.1 137.7 Z M 191.8 139 C 191.8 139 192.8 137.5 192.8 137.5 C 193.7 138.5 195.1 139.3 196.6 139.3 C 198.3 139.3 199.4 138.4 199.4 137 C 199.4 133.6 192.2 134.8 192.2 129.8 C 192.2 127.6 193.9 125.9 196.8 125.9 C 198.7 125.9 200.2 126.6 201.2 127.7 C 201.2 127.7 200.2 129.2 200.2 129.2 C 199.5 128.2 198.2 127.6 196.8 127.6 C 195.2 127.6 194.2 128.5 194.2 129.7 C 194.2 132.8 201.5 131.7 201.5 136.9 C 201.5 139.3 199.6 141.1 196.6 141.1 C 194.6 141.1 193 140.4 191.8 139 Z M 203.8 122.6 C 203.8 121.8 204.5 121.2 205.3 121.2 C 206.1 121.2 206.8 121.8 206.8 122.6 C 206.8 123.5 206.1 124.1 205.3 124.1 C 204.5 124.1 203.8 123.5 203.8 122.6 Z M 204.2 140.7 L 204.2 126.2 L 206.4 126.2 L 206.4 140.7 L 204.2 140.7 Z M 217.9 140.7 C 217.9 140.7 217.85 130.38 217.9 130.4 C 217.9 128.5 217 127.8 215.5 127.8 C 214.1 127.8 212.8 128.9 212.2 130.1 C 212.15 130.08 212.2 140.7 212.2 140.7 L 210 140.7 L 210 126.2 L 212.2 126.2 C 212.2 126.2 212.15 128.28 212.2 128.3 C 213 127 214.6 125.9 216.4 125.9 C 218.8 125.9 220 127.2 220 129.8 C 220.01 129.78 220 140.7 220 140.7 L 217.9 140.7 Z M 223.6 144.8 C 223.6 144.8 224.5 143.1 224.5 143.1 C 225.5 144.2 226.7 144.8 228.3 144.8 C 230.3 144.8 232 143.6 232 140.8 C 232 140.8 232 138.4 232 138.4 C 231.1 139.9 229.7 140.9 228.1 140.9 C 224.9 140.9 223 137.9 223 133.4 C 223 128.9 224.9 125.9 228.1 125.9 C 229.6 125.9 231.1 126.7 232 128.3 C 231.95 128.31 232 126.2 232 126.2 L 234.1 126.2 C 234.1 126.2 234.11 140.67 234.1 140.7 C 234.1 145.1 231.4 146.6 228.4 146.6 C 226.4 146.6 224.9 146.1 223.6 144.8 Z M 232 136.6 C 232 136.6 232 130.1 232 130.1 C 231.4 128.9 230.1 127.8 228.7 127.8 C 226.3 127.8 225.2 130.3 225.2 133.4 C 225.2 136.5 226.3 139 228.7 139 C 230.1 139 231.4 137.8 232 136.6 Z " stroke="none" fill="#d3d2d2"/>  </g>  <g id="Polygon150943">    <path d="M 2.1 104.7 L 2.1 84.7 C 2.1 84.7 8.19 84.69 8.2 84.7 C 11.8 84.7 13.7 87.5 13.7 90.7 C 13.7 93.9 11.8 96.7 8.2 96.7 C 8.19 96.69 4.5 96.7 4.5 96.7 L 4.5 104.7 L 2.1 104.7 Z M 11.3 90.7 C 11.3 88.4 10 86.8 7.9 86.8 C 7.95 86.79 4.5 86.8 4.5 86.8 L 4.5 94.6 C 4.5 94.6 7.95 94.59 7.9 94.6 C 10 94.6 11.3 93 11.3 90.7 Z M 23.2 104.7 C 23.2 104.7 23.16 103.14 23.2 103.1 C 22.2 104.5 20.8 105.1 19.4 105.1 C 17 105.1 15 103.3 15 100.2 C 15 97.2 17 95.5 19.4 95.5 C 20.8 95.5 22.3 96 23.2 97.3 C 23.2 97.3 23.2 94.8 23.2 94.8 C 23.2 92.8 22.1 91.7 20.2 91.7 C 18.8 91.7 17.7 92.2 16.6 93.5 C 16.6 93.5 15.6 92 15.6 92 C 17 90.5 18.7 89.9 20.5 89.9 C 23.4 89.9 25.3 91.3 25.3 94.6 C 25.32 94.56 25.3 104.7 25.3 104.7 L 23.2 104.7 Z M 23.2 101.7 C 23.2 101.7 23.2 98.9 23.2 98.9 C 22.5 97.7 21.3 97.1 20 97.1 C 18.2 97.1 17.2 98.5 17.2 100.3 C 17.2 102.1 18.2 103.5 20 103.5 C 21.3 103.5 22.5 102.9 23.2 101.7 Z M 31.1 102.6 C 31.08 102.6 31.1 110.2 31.1 110.2 L 28.9 110.2 L 28.9 90.2 L 31.1 90.2 C 31.1 90.2 31.08 92.28 31.1 92.3 C 31.9 90.8 33.4 89.9 34.9 89.9 C 38.2 89.9 40.1 92.9 40.1 97.4 C 40.1 102 38.2 105.1 34.9 105.1 C 33.4 105.1 32 104.2 31.1 102.6 Z M 37.8 97.4 C 37.8 94.3 36.7 91.8 34.3 91.8 C 33 91.8 31.6 92.9 31.1 94.1 C 31.1 94.1 31.1 100.7 31.1 100.7 C 31.6 102 33 103.1 34.3 103.1 C 36.7 103.1 37.8 100.6 37.8 97.4 Z M 42.3 97.4 C 42.3 93.2 44.5 89.9 48.1 89.9 C 52 89.9 53.9 93.3 53.9 97.5 C 53.88 97.5 53.9 98.2 53.9 98.2 C 53.9 98.2 44.49 98.16 44.5 98.2 C 44.6 101.1 46.1 103.3 48.7 103.3 C 49.9 103.3 51.2 102.6 52.1 101.5 C 52.1 101.5 53.2 102.8 53.2 102.8 C 52.1 104.2 50.4 105.1 48.5 105.1 C 44.6 105.1 42.3 101.9 42.3 97.4 Z M 48.1 91.7 C 45.6 91.7 44.5 94.4 44.5 96.6 C 44.5 96.6 51.7 96.6 51.7 96.6 C 51.7 94.4 50.8 91.7 48.1 91.7 Z M 56.7 104.7 L 56.7 90.2 L 58.9 90.2 C 58.9 90.2 58.86 92.52 58.9 92.5 C 59.8 91 61.2 89.9 63 89.9 C 63 89.9 63 92.1 63 92.1 C 62.7 92.1 62.5 92 62.2 92 C 60.9 92 59.5 93.2 58.9 94.4 C 58.86 94.41 58.9 104.7 58.9 104.7 L 56.7 104.7 Z M 73.4 102.6 C 73.44 102.6 73.4 110.2 73.4 110.2 L 71.3 110.2 L 71.3 90.2 L 73.4 90.2 C 73.4 90.2 73.44 92.28 73.4 92.3 C 74.3 90.8 75.7 89.9 77.2 89.9 C 80.5 89.9 82.4 92.9 82.4 97.4 C 82.4 102 80.5 105.1 77.2 105.1 C 75.8 105.1 74.3 104.2 73.4 102.6 Z M 80.2 97.4 C 80.2 94.3 79.1 91.8 76.7 91.8 C 75.4 91.8 74 92.9 73.4 94.1 C 73.4 94.1 73.4 100.7 73.4 100.7 C 74 102 75.4 103.1 76.7 103.1 C 79.1 103.1 80.2 100.6 80.2 97.4 Z M 93.2 104.7 C 93.2 104.7 93.18 102.69 93.2 102.7 C 92.3 104 90.8 105.1 89 105.1 C 86.5 105.1 85.3 103.8 85.3 101.2 C 85.35 101.19 85.3 90.2 85.3 90.2 L 87.5 90.2 C 87.5 90.2 87.48 100.56 87.5 100.6 C 87.5 102.5 88.4 103.1 89.8 103.1 C 91.2 103.1 92.5 102.1 93.2 100.9 C 93.18 100.89 93.2 90.2 93.2 90.2 L 95.3 90.2 L 95.3 104.7 L 93.2 104.7 Z M 99 104.7 L 99 84.7 L 101.1 84.7 L 101.1 104.7 L 99 104.7 Z M 106.9 102.6 C 106.92 102.6 106.9 110.2 106.9 110.2 L 104.8 110.2 L 104.8 90.2 L 106.9 90.2 C 106.9 90.2 106.92 92.28 106.9 92.3 C 107.8 90.8 109.2 89.9 110.7 89.9 C 114 89.9 115.9 92.9 115.9 97.4 C 115.9 102 114 105.1 110.7 105.1 C 109.3 105.1 107.8 104.2 106.9 102.6 Z M 113.7 97.4 C 113.7 94.3 112.6 91.8 110.2 91.8 C 108.8 91.8 107.5 92.9 106.9 94.1 C 106.9 94.1 106.9 100.7 106.9 100.7 C 107.5 102 108.8 103.1 110.2 103.1 C 112.6 103.1 113.7 100.6 113.7 97.4 Z " stroke="none" fill="#d3d2d2"/>  </g>  <g id="Polygon150942">    <path d="M 2.1 68.7 L 2.1 48.7 L 12.4 48.7 L 12.4 50.8 L 4.5 50.8 L 4.5 57.4 L 12.2 57.4 L 12.2 59.5 L 4.5 59.5 L 4.5 66.6 L 12.4 66.6 L 12.4 68.7 L 2.1 68.7 Z M 22.9 68.7 L 19.6 62.9 L 16.3 68.7 L 13.9 68.7 L 18.3 61.3 L 14.1 54.2 L 16.5 54.2 L 19.6 59.7 L 22.7 54.2 L 25.1 54.2 L 20.9 61.3 L 25.3 68.7 L 22.9 68.7 Z M 27.8 65.8 C 27.81 65.79 27.8 56.1 27.8 56.1 L 25.9 56.1 L 25.9 54.2 L 27.8 54.2 L 27.8 50.3 L 30 50.3 L 30 54.2 L 32.4 54.2 L 32.4 56.1 L 30 56.1 C 30 56.1 29.97 65.4 30 65.4 C 30 66.5 30.3 67.1 31.1 67.1 C 31.7 67.1 32.1 66.9 32.4 66.6 C 32.4 66.6 33.1 68.2 33.1 68.2 C 32.5 68.7 31.8 69.1 30.7 69.1 C 28.7 69.1 27.8 68 27.8 65.8 Z M 35 68.7 L 35 54.2 L 37.1 54.2 C 37.1 54.2 37.11 56.52 37.1 56.5 C 38 55 39.4 53.9 41.2 53.9 C 41.2 53.9 41.2 56.1 41.2 56.1 C 41 56.1 40.7 56 40.5 56 C 39.2 56 37.7 57.2 37.1 58.4 C 37.11 58.41 37.1 68.7 37.1 68.7 L 35 68.7 Z M 51.2 68.7 C 51.2 68.7 51.24 66.69 51.2 66.7 C 50.4 68 48.8 69.1 47 69.1 C 44.6 69.1 43.4 67.8 43.4 65.2 C 43.41 65.19 43.4 54.2 43.4 54.2 L 45.5 54.2 C 45.5 54.2 45.54 64.56 45.5 64.6 C 45.5 66.5 46.4 67.1 47.8 67.1 C 49.3 67.1 50.6 66.1 51.2 64.9 C 51.24 64.89 51.2 54.2 51.2 54.2 L 53.4 54.2 L 53.4 68.7 L 51.2 68.7 Z M 65.3 68.7 C 65.3 68.7 65.34 66.63 65.3 66.6 C 64.5 68.1 63.1 69.1 61.5 69.1 C 58.3 69.1 56.3 66 56.3 61.5 C 56.3 57 58.3 53.9 61.5 53.9 C 63 53.9 64.5 54.7 65.3 56.3 C 65.34 56.31 65.3 48.7 65.3 48.7 L 67.5 48.7 L 67.5 68.7 L 65.3 68.7 Z M 65.3 64.8 C 65.3 64.8 65.3 58.1 65.3 58.1 C 64.8 56.9 63.4 55.8 62.1 55.8 C 59.7 55.8 58.6 58.3 58.6 61.5 C 58.6 64.6 59.7 67.1 62.1 67.1 C 63.4 67.1 64.8 66.1 65.3 64.8 Z M 70.4 61.4 C 70.4 57.2 72.7 53.9 76.3 53.9 C 80.1 53.9 82 57.3 82 61.5 C 82.05 61.5 82 62.2 82 62.2 C 82 62.2 72.66 62.16 72.7 62.2 C 72.7 65.1 74.2 67.3 76.8 67.3 C 78.1 67.3 79.4 66.6 80.3 65.5 C 80.3 65.5 81.4 66.8 81.4 66.8 C 80.2 68.2 78.6 69.1 76.6 69.1 C 72.8 69.1 70.4 65.9 70.4 61.4 Z M 76.3 55.7 C 73.7 55.7 72.7 58.4 72.7 60.6 C 72.7 60.6 79.9 60.6 79.9 60.6 C 79.9 58.4 78.9 55.7 76.3 55.7 Z M 93.2 68.7 C 93.2 68.7 93.18 66.63 93.2 66.6 C 92.3 68.1 90.9 69.1 89.4 69.1 C 86.1 69.1 84.2 66 84.2 61.5 C 84.2 57 86.1 53.9 89.4 53.9 C 90.8 53.9 92.3 54.7 93.2 56.3 C 93.18 56.31 93.2 48.7 93.2 48.7 L 95.3 48.7 L 95.3 68.7 L 93.2 68.7 Z M 93.2 64.8 C 93.2 64.8 93.2 58.1 93.2 58.1 C 92.6 56.9 91.3 55.8 89.9 55.8 C 87.5 55.8 86.4 58.3 86.4 61.5 C 86.4 64.6 87.5 67.1 89.9 67.1 C 91.3 67.1 92.6 66.1 93.2 64.8 Z M 107.3 66.6 C 107.28 66.6 107.3 74.2 107.3 74.2 L 105.1 74.2 L 105.1 54.2 L 107.3 54.2 C 107.3 54.2 107.28 56.28 107.3 56.3 C 108.1 54.8 109.6 53.9 111.1 53.9 C 114.4 53.9 116.3 56.9 116.3 61.4 C 116.3 66 114.4 69.1 111.1 69.1 C 109.6 69.1 108.2 68.2 107.3 66.6 Z M 114 61.4 C 114 58.3 112.9 55.8 110.5 55.8 C 109.2 55.8 107.8 56.9 107.3 58.1 C 107.3 58.1 107.3 64.7 107.3 64.7 C 107.8 66 109.2 67.1 110.5 67.1 C 112.9 67.1 114 64.6 114 61.4 Z M 118.5 61.4 C 118.5 57.4 120.5 53.9 124.3 53.9 C 128.2 53.9 130.3 57.4 130.3 61.4 C 130.3 65.5 128.2 69.1 124.3 69.1 C 120.5 69.1 118.5 65.5 118.5 61.4 Z M 128 61.4 C 128 58.5 126.9 55.8 124.3 55.8 C 121.9 55.8 120.7 58.5 120.7 61.4 C 120.7 64.4 121.9 67.1 124.3 67.1 C 126.9 67.1 128 64.4 128 61.4 Z M 133.2 68.7 L 133.2 48.7 L 135.3 48.7 L 135.3 68.7 L 133.2 68.7 Z M 138.6 72.5 C 138.8 72.6 139.3 72.7 139.5 72.7 C 140.4 72.7 140.8 72.3 141.2 71.2 C 141.24 71.22 142 69 142 69 L 137.2 54.2 L 139.5 54.2 L 143.1 66.1 L 146.8 54.2 L 149.1 54.2 C 149.1 54.2 143.28 71.76 143.3 71.8 C 142.6 73.9 141.4 74.6 139.7 74.6 C 139.2 74.6 138.6 74.5 138.2 74.4 C 138.2 74.4 138.6 72.5 138.6 72.5 Z M 149.8 67 C 149.8 67 150.8 65.5 150.8 65.5 C 151.7 66.5 153.1 67.3 154.6 67.3 C 156.3 67.3 157.4 66.4 157.4 65 C 157.4 61.6 150.2 62.8 150.2 57.8 C 150.2 55.6 151.9 53.9 154.8 53.9 C 156.7 53.9 158.2 54.6 159.2 55.7 C 159.2 55.7 158.2 57.2 158.2 57.2 C 157.5 56.2 156.2 55.6 154.8 55.6 C 153.2 55.6 152.2 56.5 152.2 57.7 C 152.2 60.8 159.5 59.7 159.5 64.9 C 159.5 67.3 157.6 69.1 154.6 69.1 C 152.6 69.1 151 68.4 149.8 67 Z M 162.7 65.8 C 162.66 65.79 162.7 56.1 162.7 56.1 L 160.7 56.1 L 160.7 54.2 L 162.7 54.2 L 162.7 50.3 L 164.8 50.3 L 164.8 54.2 L 167.3 54.2 L 167.3 56.1 L 164.8 56.1 C 164.8 56.1 164.82 65.4 164.8 65.4 C 164.8 66.5 165.1 67.1 166 67.1 C 166.5 67.1 167 66.9 167.2 66.6 C 167.2 66.6 167.9 68.2 167.9 68.2 C 167.4 68.7 166.7 69.1 165.6 69.1 C 163.6 69.1 162.7 68 162.7 65.8 Z M 169.4 72.5 C 169.7 72.6 170.1 72.7 170.4 72.7 C 171.2 72.7 171.7 72.3 172.1 71.2 C 172.08 71.22 172.9 69 172.9 69 L 168 54.2 L 170.4 54.2 L 174 66.1 L 177.6 54.2 L 179.9 54.2 C 179.9 54.2 174.12 71.76 174.1 71.8 C 173.4 73.9 172.2 74.6 170.5 74.6 C 170.1 74.6 169.4 74.5 169.1 74.4 C 169.1 74.4 169.4 72.5 169.4 72.5 Z M 181.8 68.7 L 181.8 54.2 L 183.9 54.2 C 183.9 54.2 183.9 56.52 183.9 56.5 C 184.8 55 186.2 53.9 188 53.9 C 188 53.9 188 56.1 188 56.1 C 187.8 56.1 187.5 56 187.3 56 C 186 56 184.5 57.2 183.9 58.4 C 183.9 58.41 183.9 68.7 183.9 68.7 L 181.8 68.7 Z M 189.5 61.4 C 189.5 57.2 191.7 53.9 195.4 53.9 C 199.2 53.9 201.1 57.3 201.1 61.5 C 201.09 61.5 201.1 62.2 201.1 62.2 C 201.1 62.2 191.7 62.16 191.7 62.2 C 191.8 65.1 193.3 67.3 195.9 67.3 C 197.1 67.3 198.4 66.6 199.3 65.5 C 199.3 65.5 200.5 66.8 200.5 66.8 C 199.3 68.2 197.6 69.1 195.7 69.1 C 191.8 69.1 189.5 65.9 189.5 61.4 Z M 195.3 55.7 C 192.8 55.7 191.8 58.4 191.7 60.6 C 191.7 60.6 199 60.6 199 60.6 C 198.9 58.4 198 55.7 195.3 55.7 Z M 211.8 68.7 C 211.8 68.7 211.77 58.38 211.8 58.4 C 211.8 56.5 210.9 55.8 209.5 55.8 C 208 55.8 206.7 56.9 206.1 58.1 C 206.07 58.08 206.1 68.7 206.1 68.7 L 203.9 68.7 L 203.9 54.2 L 206.1 54.2 C 206.1 54.2 206.07 56.28 206.1 56.3 C 206.9 55 208.5 53.9 210.3 53.9 C 212.7 53.9 213.9 55.2 213.9 57.8 C 213.93 57.78 213.9 68.7 213.9 68.7 L 211.8 68.7 Z M 216.9 61.4 C 216.9 57.2 219.1 53.9 222.7 53.9 C 226.6 53.9 228.5 57.3 228.5 61.5 C 228.47 61.5 228.5 62.2 228.5 62.2 C 228.5 62.2 219.08 62.16 219.1 62.2 C 219.2 65.1 220.7 67.3 223.3 67.3 C 224.5 67.3 225.8 66.6 226.7 65.5 C 226.7 65.5 227.8 66.8 227.8 66.8 C 226.7 68.2 225 69.1 223.1 69.1 C 219.2 69.1 216.9 65.9 216.9 61.4 Z M 222.7 55.7 C 220.2 55.7 219.1 58.4 219.1 60.6 C 219.1 60.6 226.3 60.6 226.3 60.6 C 226.3 58.4 225.4 55.7 222.7 55.7 Z " stroke="none" fill="#d3d2d2"/>  </g>  <g id="Polygon150941">    <path d="M 2.1 32.7 L 2.1 12.7 L 12.4 12.7 L 12.4 14.8 L 4.5 14.8 L 4.5 21.4 L 12.2 21.4 L 12.2 23.5 L 4.5 23.5 L 4.5 32.7 L 2.1 32.7 Z M 15.2 32.7 L 15.2 12.7 L 17.3 12.7 L 17.3 32.7 L 15.2 32.7 Z M 20.3 25.4 C 20.3 21.4 22.3 17.9 26.2 17.9 C 30.1 17.9 32.1 21.4 32.1 25.4 C 32.1 29.5 30.1 33.1 26.2 33.1 C 22.3 33.1 20.3 29.5 20.3 25.4 Z M 29.8 25.4 C 29.8 22.5 28.7 19.8 26.2 19.8 C 23.7 19.8 22.5 22.5 22.5 25.4 C 22.5 28.4 23.7 31.1 26.2 31.1 C 28.7 31.1 29.8 28.4 29.8 25.4 Z M 35 32.7 L 35 18.2 L 37.1 18.2 C 37.1 18.2 37.14 20.52 37.1 20.5 C 38.1 19 39.5 17.9 41.2 17.9 C 41.2 17.9 41.2 20.1 41.2 20.1 C 41 20.1 40.8 20 40.5 20 C 39.2 20 37.7 21.2 37.1 22.4 C 37.14 22.41 37.1 32.7 37.1 32.7 L 35 32.7 Z M 50.9 32.7 C 50.9 32.7 50.88 31.14 50.9 31.1 C 49.9 32.5 48.5 33.1 47.1 33.1 C 44.7 33.1 42.7 31.3 42.7 28.2 C 42.7 25.2 44.7 23.5 47.1 23.5 C 48.5 23.5 50 24 50.9 25.3 C 50.9 25.3 50.9 22.8 50.9 22.8 C 50.9 20.8 49.8 19.7 47.9 19.7 C 46.6 19.7 45.4 20.2 44.3 21.5 C 44.3 21.5 43.3 20 43.3 20 C 44.7 18.5 46.4 17.9 48.2 17.9 C 51.1 17.9 53 19.3 53 22.6 C 53.04 22.56 53 32.7 53 32.7 L 50.9 32.7 Z M 50.9 29.7 C 50.9 29.7 50.9 26.9 50.9 26.9 C 50.2 25.7 49 25.1 47.8 25.1 C 46 25.1 44.9 26.5 44.9 28.3 C 44.9 30.1 46 31.5 47.8 31.5 C 49 31.5 50.2 30.9 50.9 29.7 Z M 56.7 32.7 L 56.7 12.7 L 58.8 12.7 L 58.8 32.7 L 56.7 32.7 Z M 69.1 32.7 L 69.1 20.1 L 67.2 20.1 L 67.2 18.2 L 69.1 18.2 C 69.1 18.2 69.12 16.44 69.1 16.4 C 69.1 13.9 70.5 12.4 72.7 12.4 C 73.7 12.4 74.6 12.7 75.3 13.4 C 75.3 13.4 74.5 14.9 74.5 14.9 C 74.1 14.5 73.6 14.2 73.1 14.2 C 71.9 14.2 71.3 15 71.3 16.4 C 71.28 16.44 71.3 18.2 71.3 18.2 L 73.7 18.2 L 73.7 20.1 L 71.3 20.1 L 71.3 32.7 L 69.1 32.7 Z M 75.2 25.4 C 75.2 21.4 77.2 17.9 81.1 17.9 C 85 17.9 87 21.4 87 25.4 C 87 29.5 85 33.1 81.1 33.1 C 77.2 33.1 75.2 29.5 75.2 25.4 Z M 84.7 25.4 C 84.7 22.5 83.6 19.8 81.1 19.8 C 78.6 19.8 77.5 22.5 77.5 25.4 C 77.5 28.4 78.6 31.1 81.1 31.1 C 83.6 31.1 84.7 28.4 84.7 25.4 Z M 97.4 32.7 C 97.4 32.7 97.38 31.14 97.4 31.1 C 96.4 32.5 95 33.1 93.6 33.1 C 91.2 33.1 89.2 31.3 89.2 28.2 C 89.2 25.2 91.2 23.5 93.6 23.5 C 95 23.5 96.5 24 97.4 25.3 C 97.4 25.3 97.4 22.8 97.4 22.8 C 97.4 20.8 96.3 19.7 94.4 19.7 C 93.1 19.7 91.9 20.2 90.8 21.5 C 90.8 21.5 89.8 20 89.8 20 C 91.2 18.5 92.9 17.9 94.7 17.9 C 97.6 17.9 99.5 19.3 99.5 22.6 C 99.54 22.56 99.5 32.7 99.5 32.7 L 97.4 32.7 Z M 97.4 29.7 C 97.4 29.7 97.4 26.9 97.4 26.9 C 96.7 25.7 95.5 25.1 94.3 25.1 C 92.5 25.1 91.4 26.5 91.4 28.3 C 91.4 30.1 92.5 31.5 94.3 31.5 C 95.5 31.5 96.7 30.9 97.4 29.7 Z M 117.8 32.7 C 117.8 32.7 117.81 22.2 117.8 22.2 C 117.8 20.6 117.2 19.8 115.8 19.8 C 114.5 19.8 113.2 20.9 112.6 22.1 C 112.65 22.08 112.6 32.7 112.6 32.7 L 110.5 32.7 C 110.5 32.7 110.49 22.2 110.5 22.2 C 110.5 20.6 109.9 19.8 108.4 19.8 C 107.2 19.8 105.9 20.9 105.3 22.1 C 105.3 22.08 105.3 32.7 105.3 32.7 L 103.2 32.7 L 103.2 18.2 L 105.3 18.2 C 105.3 18.2 105.3 20.28 105.3 20.3 C 105.9 19.2 107.5 17.9 109.3 17.9 C 111.1 17.9 112.3 18.9 112.5 20.4 C 113.2 19.1 114.9 17.9 116.6 17.9 C 118.7 17.9 120 19 120 21.6 C 119.97 21.63 120 32.7 120 32.7 L 117.8 32.7 Z " stroke="none" fill="#d3d2d2"/>  </g></svg>