<?xml version="1.0" standalone="no"?><!DOCTYPE svg PUBLIC "-//W3C//DTD SVG 1.1//EN" "http://www.w3.org/Graphics/SVG/1.1/DTD/svg11.dtd"><svg xmlns="http://www.w3.org/2000/svg" version="1.1" width="627px" height="57.4px" viewBox="0 0 627 57.4">  <desc>Taste history in the comfort of your home</desc>  <defs/>  <g id="Polygon112100">    <path d="M 9.3 31.6 L 9.3 7.7 L 3 7.7 L 3 4.9 L 18.8 4.9 L 18.8 7.7 L 12.5 7.7 L 12.5 31.6 L 9.3 31.6 Z M 29.6 31.6 C 29.6 31.6 29.62 29.52 29.6 29.5 C 28.4 31.3 26.5 32.1 24.5 32.1 C 21.4 32.1 18.7 29.7 18.7 25.6 C 18.7 21.6 21.4 19.3 24.5 19.3 C 26.5 19.3 28.4 20 29.6 21.8 C 29.6 21.8 29.6 18.4 29.6 18.4 C 29.6 15.8 28.2 14.3 25.7 14.3 C 23.9 14.3 22.3 15 20.8 16.6 C 20.8 16.6 19.5 14.6 19.5 14.6 C 21.4 12.7 23.7 11.8 26.1 11.8 C 29.9 11.8 32.5 13.7 32.5 18.1 C 32.5 18.08 32.5 31.6 32.5 31.6 L 29.6 31.6 Z M 29.6 27.6 C 29.6 27.6 29.6 23.9 29.6 23.9 C 28.7 22.2 27.1 21.4 25.5 21.4 C 23.1 21.4 21.6 23.3 21.6 25.7 C 21.6 28.1 23.1 30 25.5 30 C 27.1 30 28.7 29.2 29.6 27.6 Z M 36.2 29.4 C 36.2 29.4 37.6 27.3 37.6 27.3 C 38.7 28.7 40.6 29.8 42.7 29.8 C 44.9 29.8 46.4 28.5 46.4 26.6 C 46.4 22.1 36.7 23.7 36.7 17 C 36.7 14.1 39.1 11.8 42.9 11.8 C 45.5 11.8 47.4 12.8 48.8 14.3 C 48.8 14.3 47.4 16.2 47.4 16.2 C 46.5 15 44.8 14.1 42.9 14.1 C 40.8 14.1 39.5 15.4 39.5 16.9 C 39.5 21 49.1 19.6 49.1 26.6 C 49.1 29.8 46.7 32.1 42.7 32.1 C 40 32.1 37.8 31.2 36.2 29.4 Z M 53.8 27.7 C 53.78 27.72 53.8 14.8 53.8 14.8 L 51.2 14.8 L 51.2 12.3 L 53.8 12.3 L 53.8 7 L 56.7 7 L 56.7 12.3 L 59.9 12.3 L 59.9 14.8 L 56.7 14.8 C 56.7 14.8 56.66 27.2 56.7 27.2 C 56.7 28.7 57.1 29.5 58.2 29.5 C 58.9 29.5 59.5 29.2 59.9 28.8 C 59.9 28.8 60.8 30.9 60.8 30.9 C 60.1 31.6 59.1 32.1 57.7 32.1 C 55 32.1 53.8 30.6 53.8 27.7 Z M 62.8 21.9 C 62.8 16.3 65.7 11.8 70.6 11.8 C 75.7 11.8 78.3 16.4 78.3 22 C 78.26 22 78.3 22.9 78.3 22.9 C 78.3 22.9 65.74 22.88 65.7 22.9 C 65.9 26.8 67.9 29.7 71.3 29.7 C 73 29.7 74.7 28.8 75.9 27.3 C 75.9 27.3 77.4 29 77.4 29 C 75.9 30.9 73.7 32.1 71.1 32.1 C 65.9 32.1 62.8 27.8 62.8 21.9 Z M 70.6 14.2 C 67.2 14.2 65.8 17.9 65.7 20.8 C 65.7 20.8 75.4 20.8 75.4 20.8 C 75.4 17.8 74.1 14.2 70.6 14.2 Z M 101.5 31.6 C 101.5 31.6 101.54 17.8 101.5 17.8 C 101.5 15.2 100.3 14.4 98.4 14.4 C 96.5 14.4 94.8 15.8 93.9 17.4 C 93.9 17.44 93.9 31.6 93.9 31.6 L 91.1 31.6 L 91.1 4.9 L 93.9 4.9 C 93.9 4.9 93.9 15.04 93.9 15 C 95 13.4 97.2 11.8 99.5 11.8 C 102.8 11.8 104.4 13.4 104.4 17 C 104.38 16.96 104.4 31.6 104.4 31.6 L 101.5 31.6 Z M 109.1 7.5 C 109.1 6.4 110 5.6 111.1 5.6 C 112.1 5.6 113 6.4 113 7.5 C 113 8.6 112.1 9.5 111.1 9.5 C 110 9.5 109.1 8.6 109.1 7.5 Z M 109.7 31.6 L 109.7 12.3 L 112.5 12.3 L 112.5 31.6 L 109.7 31.6 Z M 116.2 29.4 C 116.2 29.4 117.7 27.3 117.7 27.3 C 118.8 28.7 120.6 29.8 122.7 29.8 C 124.9 29.8 126.4 28.5 126.4 26.6 C 126.4 22.1 116.8 23.7 116.8 17 C 116.8 14.1 119.1 11.8 122.9 11.8 C 125.5 11.8 127.5 12.8 128.8 14.3 C 128.8 14.3 127.5 16.2 127.5 16.2 C 126.5 15 124.9 14.1 123 14.1 C 120.9 14.1 119.5 15.4 119.5 16.9 C 119.5 21 129.2 19.6 129.2 26.6 C 129.2 29.8 126.7 32.1 122.7 32.1 C 120 32.1 117.8 31.2 116.2 29.4 Z M 133.8 27.7 C 133.82 27.72 133.8 14.8 133.8 14.8 L 131.3 14.8 L 131.3 12.3 L 133.8 12.3 L 133.8 7 L 136.7 7 L 136.7 12.3 L 140 12.3 L 140 14.8 L 136.7 14.8 C 136.7 14.8 136.7 27.2 136.7 27.2 C 136.7 28.7 137.1 29.5 138.3 29.5 C 139 29.5 139.6 29.2 139.9 28.8 C 139.9 28.8 140.8 30.9 140.8 30.9 C 140.1 31.6 139.2 32.1 137.7 32.1 C 135.1 32.1 133.8 30.6 133.8 27.7 Z M 142.8 21.9 C 142.8 16.5 145.5 11.8 150.7 11.8 C 155.9 11.8 158.5 16.5 158.5 21.9 C 158.5 27.4 155.9 32.1 150.7 32.1 C 145.5 32.1 142.8 27.4 142.8 21.9 Z M 155.5 21.9 C 155.5 18 154.1 14.4 150.7 14.4 C 147.3 14.4 145.8 18 145.8 21.9 C 145.8 25.8 147.3 29.5 150.7 29.5 C 154.1 29.5 155.5 25.8 155.5 21.9 Z M 162.9 31.6 L 162.9 12.3 L 165.7 12.3 C 165.7 12.3 165.7 15.36 165.7 15.4 C 166.9 13.3 168.8 11.9 171.2 11.9 C 171.2 11.9 171.2 14.8 171.2 14.8 C 170.9 14.8 170.5 14.7 170.2 14.7 C 168.5 14.7 166.5 16.3 165.7 17.9 C 165.7 17.88 165.7 31.6 165.7 31.6 L 162.9 31.6 Z M 173.9 36.6 C 174.3 36.8 174.9 36.9 175.2 36.9 C 176.3 36.9 177 36.4 177.5 35 C 177.5 34.96 178.5 32 178.5 32 L 172.1 12.3 L 175.2 12.3 L 180 28.1 L 184.9 12.3 L 187.9 12.3 C 187.9 12.3 180.22 35.68 180.2 35.7 C 179.3 38.5 177.7 39.4 175.4 39.4 C 174.8 39.4 173.9 39.3 173.5 39.2 C 173.5 39.2 173.9 36.6 173.9 36.6 Z M 200.6 7.5 C 200.6 6.4 201.5 5.6 202.5 5.6 C 203.6 5.6 204.5 6.4 204.5 7.5 C 204.5 8.6 203.6 9.5 202.5 9.5 C 201.5 9.5 200.6 8.6 200.6 7.5 Z M 201.1 31.6 L 201.1 12.3 L 204 12.3 L 204 31.6 L 201.1 31.6 Z M 219.7 31.6 C 219.7 31.6 219.7 17.84 219.7 17.8 C 219.7 15.3 218.5 14.4 216.6 14.4 C 214.7 14.4 213 15.8 212.1 17.4 C 212.1 17.44 212.1 31.6 212.1 31.6 L 209.3 31.6 L 209.3 12.3 L 212.1 12.3 C 212.1 12.3 212.1 15.04 212.1 15 C 213.2 13.4 215.4 11.8 217.7 11.8 C 221 11.8 222.6 13.6 222.6 17 C 222.58 17.04 222.6 31.6 222.6 31.6 L 219.7 31.6 Z M 237 27.7 C 237.02 27.72 237 14.8 237 14.8 L 234.5 14.8 L 234.5 12.3 L 237 12.3 L 237 7 L 239.9 7 L 239.9 12.3 L 243.2 12.3 L 243.2 14.8 L 239.9 14.8 C 239.9 14.8 239.9 27.2 239.9 27.2 C 239.9 28.7 240.3 29.5 241.5 29.5 C 242.2 29.5 242.8 29.2 243.1 28.8 C 243.1 28.8 244 30.9 244 30.9 C 243.3 31.6 242.4 32.1 240.9 32.1 C 238.3 32.1 237 30.6 237 27.7 Z M 257.5 31.6 C 257.5 31.6 257.46 17.8 257.5 17.8 C 257.5 15.2 256.3 14.4 254.3 14.4 C 252.5 14.4 250.7 15.8 249.8 17.4 C 249.82 17.44 249.8 31.6 249.8 31.6 L 247 31.6 L 247 4.9 L 249.8 4.9 C 249.8 4.9 249.82 15.04 249.8 15 C 250.9 13.4 253.1 11.8 255.5 11.8 C 258.7 11.8 260.3 13.4 260.3 17 C 260.3 16.96 260.3 31.6 260.3 31.6 L 257.5 31.6 Z M 264.6 21.9 C 264.6 16.3 267.6 11.8 272.5 11.8 C 277.5 11.8 280.1 16.4 280.1 22 C 280.1 22 280.1 22.9 280.1 22.9 C 280.1 22.9 267.58 22.88 267.6 22.9 C 267.7 26.8 269.7 29.7 273.1 29.7 C 274.8 29.7 276.5 28.8 277.7 27.3 C 277.7 27.3 279.3 29 279.3 29 C 277.7 30.9 275.5 32.1 272.9 32.1 C 267.7 32.1 264.6 27.8 264.6 21.9 Z M 272.4 14.2 C 269 14.2 267.7 17.9 267.6 20.8 C 267.6 20.8 277.3 20.8 277.3 20.8 C 277.2 17.8 275.9 14.2 272.4 14.2 Z M 291.9 21.9 C 291.9 16.2 295 11.8 299.9 11.8 C 302.6 11.8 304.3 12.9 305.5 14.4 C 305.5 14.4 303.9 16.3 303.9 16.3 C 302.9 14.9 301.7 14.4 300.2 14.4 C 296.7 14.4 294.9 17.8 294.9 21.9 C 294.9 26 296.7 29.5 300.2 29.5 C 301.7 29.5 302.9 28.9 303.9 27.6 C 303.9 27.6 305.5 29.5 305.5 29.5 C 304.3 31 302.6 32.1 299.9 32.1 C 295 32.1 291.9 27.6 291.9 21.9 Z M 308.2 21.9 C 308.2 16.5 310.9 11.8 316 11.8 C 321.2 11.8 323.9 16.5 323.9 21.9 C 323.9 27.4 321.2 32.1 316 32.1 C 310.9 32.1 308.2 27.4 308.2 21.9 Z M 320.9 21.9 C 320.9 18 319.4 14.4 316 14.4 C 312.7 14.4 311.2 18 311.2 21.9 C 311.2 25.8 312.7 29.5 316 29.5 C 319.4 29.5 320.9 25.8 320.9 21.9 Z M 347.7 31.6 C 347.7 31.6 347.74 17.6 347.7 17.6 C 347.7 15.5 346.9 14.4 345.1 14.4 C 343.3 14.4 341.6 15.9 340.9 17.4 C 340.86 17.44 340.9 31.6 340.9 31.6 L 338 31.6 C 338 31.6 337.98 17.6 338 17.6 C 338 15.5 337.1 14.4 335.3 14.4 C 333.5 14.4 331.9 15.9 331.1 17.4 C 331.06 17.44 331.1 31.6 331.1 31.6 L 328.2 31.6 L 328.2 12.3 L 331.1 12.3 C 331.1 12.3 331.06 15.04 331.1 15 C 331.9 13.6 334 11.8 336.3 11.8 C 338.8 11.8 340.3 13.2 340.7 15.2 C 341.7 13.5 343.8 11.8 346.1 11.8 C 349 11.8 350.6 13.4 350.6 16.8 C 350.62 16.84 350.6 31.6 350.6 31.6 L 347.7 31.6 Z M 356.6 31.6 L 356.6 14.8 L 354 14.8 L 354 12.3 L 356.6 12.3 C 356.6 12.3 356.58 9.92 356.6 9.9 C 356.6 6.6 358.4 4.5 361.4 4.5 C 362.7 4.5 363.9 4.9 364.9 5.8 C 364.9 5.8 363.7 7.8 363.7 7.8 C 363.2 7.3 362.6 7 361.9 7 C 360.3 7 359.5 8 359.5 9.9 C 359.46 9.92 359.5 12.3 359.5 12.3 L 362.7 12.3 L 362.7 14.8 L 359.5 14.8 L 359.5 31.6 L 356.6 31.6 Z M 365.1 21.9 C 365.1 16.5 367.8 11.8 372.9 11.8 C 378.1 11.8 380.8 16.5 380.8 21.9 C 380.8 27.4 378.1 32.1 372.9 32.1 C 367.8 32.1 365.1 27.4 365.1 21.9 Z M 377.8 21.9 C 377.8 18 376.3 14.4 372.9 14.4 C 369.6 14.4 368.1 18 368.1 21.9 C 368.1 25.8 369.6 29.5 372.9 29.5 C 376.3 29.5 377.8 25.8 377.8 21.9 Z M 385.1 31.6 L 385.1 12.3 L 388 12.3 C 388 12.3 387.98 15.36 388 15.4 C 389.2 13.3 391.1 11.9 393.5 11.9 C 393.5 11.9 393.5 14.8 393.5 14.8 C 393.1 14.8 392.8 14.7 392.5 14.7 C 390.7 14.7 388.8 16.3 388 17.9 C 387.98 17.88 388 31.6 388 31.6 L 385.1 31.6 Z M 397.3 27.7 C 397.34 27.72 397.3 14.8 397.3 14.8 L 394.8 14.8 L 394.8 12.3 L 397.3 12.3 L 397.3 7 L 400.2 7 L 400.2 12.3 L 403.5 12.3 L 403.5 14.8 L 400.2 14.8 C 400.2 14.8 400.22 27.2 400.2 27.2 C 400.2 28.7 400.7 29.5 401.8 29.5 C 402.5 29.5 403.1 29.2 403.5 28.8 C 403.5 28.8 404.3 30.9 404.3 30.9 C 403.7 31.6 402.7 32.1 401.2 32.1 C 398.6 32.1 397.3 30.6 397.3 27.7 Z M 414.9 21.9 C 414.9 16.5 417.7 11.8 422.8 11.8 C 428 11.8 430.7 16.5 430.7 21.9 C 430.7 27.4 428 32.1 422.8 32.1 C 417.7 32.1 414.9 27.4 414.9 21.9 Z M 427.7 21.9 C 427.7 18 426.2 14.4 422.8 14.4 C 419.5 14.4 417.9 18 417.9 21.9 C 417.9 25.8 419.5 29.5 422.8 29.5 C 426.2 29.5 427.7 25.8 427.7 21.9 Z M 435.7 31.6 L 435.7 14.8 L 433.1 14.8 L 433.1 12.3 L 435.7 12.3 C 435.7 12.3 435.65 9.92 435.7 9.9 C 435.7 6.6 437.5 4.5 440.5 4.5 C 441.8 4.5 443 4.9 443.9 5.8 C 443.9 5.8 442.8 7.8 442.8 7.8 C 442.3 7.3 441.7 7 440.9 7 C 439.3 7 438.5 8 438.5 9.9 C 438.53 9.92 438.5 12.3 438.5 12.3 L 441.8 12.3 L 441.8 14.8 L 438.5 14.8 L 438.5 31.6 L 435.7 31.6 Z M 453.2 36.6 C 453.5 36.8 454.1 36.9 454.5 36.9 C 455.6 36.9 456.2 36.4 456.7 35 C 456.73 34.96 457.8 32 457.8 32 L 451.3 12.3 L 454.5 12.3 L 459.3 28.1 L 464.1 12.3 L 467.2 12.3 C 467.2 12.3 459.45 35.68 459.5 35.7 C 458.5 38.5 456.9 39.4 454.7 39.4 C 454.1 39.4 453.2 39.3 452.7 39.2 C 452.7 39.2 453.2 36.6 453.2 36.6 Z M 469.1 21.9 C 469.1 16.5 471.8 11.8 476.9 11.8 C 482.1 11.8 484.8 16.5 484.8 21.9 C 484.8 27.4 482.1 32.1 476.9 32.1 C 471.8 32.1 469.1 27.4 469.1 21.9 Z M 481.8 21.9 C 481.8 18 480.3 14.4 476.9 14.4 C 473.6 14.4 472.1 18 472.1 21.9 C 472.1 25.8 473.6 29.5 476.9 29.5 C 480.3 29.5 481.8 25.8 481.8 21.9 Z M 499.6 31.6 C 499.6 31.6 499.57 28.92 499.6 28.9 C 498.4 30.6 496.4 32.1 494 32.1 C 490.7 32.1 489.1 30.4 489.1 26.9 C 489.13 26.92 489.1 12.3 489.1 12.3 L 492 12.3 C 492 12.3 491.97 26.08 492 26.1 C 492 28.6 493.2 29.5 495.1 29.5 C 497 29.5 498.7 28.1 499.6 26.5 C 499.57 26.52 499.6 12.3 499.6 12.3 L 502.5 12.3 L 502.5 31.6 L 499.6 31.6 Z M 507.7 31.6 L 507.7 12.3 L 510.6 12.3 C 510.6 12.3 510.57 15.36 510.6 15.4 C 511.8 13.3 513.7 11.9 516.1 11.9 C 516.1 11.9 516.1 14.8 516.1 14.8 C 515.7 14.8 515.4 14.7 515.1 14.7 C 513.3 14.7 511.4 16.3 510.6 17.9 C 510.57 17.88 510.6 31.6 510.6 31.6 L 507.7 31.6 Z M 538.5 31.6 C 538.5 31.6 538.45 17.8 538.5 17.8 C 538.5 15.2 537.3 14.4 535.3 14.4 C 533.5 14.4 531.7 15.8 530.8 17.4 C 530.81 17.44 530.8 31.6 530.8 31.6 L 528 31.6 L 528 4.9 L 530.8 4.9 C 530.8 4.9 530.81 15.04 530.8 15 C 531.9 13.4 534.1 11.8 536.5 11.8 C 539.7 11.8 541.3 13.4 541.3 17 C 541.29 16.96 541.3 31.6 541.3 31.6 L 538.5 31.6 Z M 545.6 21.9 C 545.6 16.5 548.3 11.8 553.5 11.8 C 558.7 11.8 561.3 16.5 561.3 21.9 C 561.3 27.4 558.7 32.1 553.5 32.1 C 548.3 32.1 545.6 27.4 545.6 21.9 Z M 558.3 21.9 C 558.3 18 556.9 14.4 553.5 14.4 C 550.1 14.4 548.6 18 548.6 21.9 C 548.6 25.8 550.1 29.5 553.5 29.5 C 556.9 29.5 558.3 25.8 558.3 21.9 Z M 585.2 31.6 C 585.2 31.6 585.17 17.6 585.2 17.6 C 585.2 15.5 584.3 14.4 582.5 14.4 C 580.8 14.4 579.1 15.9 578.3 17.4 C 578.29 17.44 578.3 31.6 578.3 31.6 L 575.4 31.6 C 575.4 31.6 575.41 17.6 575.4 17.6 C 575.4 15.5 574.6 14.4 572.7 14.4 C 571 14.4 569.3 15.9 568.5 17.4 C 568.49 17.44 568.5 31.6 568.5 31.6 L 565.7 31.6 L 565.7 12.3 L 568.5 12.3 C 568.5 12.3 568.49 15.04 568.5 15 C 569.3 13.6 571.5 11.8 573.8 11.8 C 576.3 11.8 577.8 13.2 578.1 15.2 C 579.1 13.5 581.3 11.8 583.6 11.8 C 586.4 11.8 588.1 13.4 588.1 16.8 C 588.05 16.84 588.1 31.6 588.1 31.6 L 585.2 31.6 Z M 592.4 21.9 C 592.4 16.3 595.3 11.8 600.2 11.8 C 605.3 11.8 607.9 16.4 607.9 22 C 607.85 22 607.9 22.9 607.9 22.9 C 607.9 22.9 595.33 22.88 595.3 22.9 C 595.5 26.8 597.5 29.7 600.9 29.7 C 602.6 29.7 604.3 28.8 605.5 27.3 C 605.5 27.3 607 29 607 29 C 605.5 30.9 603.3 32.1 600.7 32.1 C 595.5 32.1 592.4 27.8 592.4 21.9 Z M 600.2 14.2 C 596.8 14.2 595.4 17.9 595.3 20.8 C 595.3 20.8 605 20.8 605 20.8 C 605 17.8 603.7 14.2 600.2 14.2 Z M 611.7 29.8 C 611.7 28.7 612.7 27.7 613.8 27.7 C 615 27.7 616 28.7 616 29.8 C 616 31 615 32 613.8 32 C 612.7 32 611.7 31 611.7 29.8 Z " stroke="none" fill="#b13d24"/>  </g></svg>