<?xml version="1.0" standalone="no"?><!DOCTYPE svg PUBLIC "-//W3C//DTD SVG 1.1//EN" "http://www.w3.org/Graphics/SVG/1.1/DTD/svg11.dtd"><svg xmlns="http://www.w3.org/2000/svg" version="1.1" width="486px" height="189.4px" viewBox="0 0 486 189.4">  <desc>This delicious dish was one of the stars of Singapore s street food scene in the beginning of this 21st century</desc>  <defs/>  <g id="Polygon164270">    <path d="M 5.2 159.7 C 5.18 159.72 5.2 146.8 5.2 146.8 L 2.6 146.8 L 2.6 144.3 L 5.2 144.3 L 5.2 139 L 8.1 139 L 8.1 144.3 L 11.3 144.3 L 11.3 146.8 L 8.1 146.8 C 8.1 146.8 8.06 159.2 8.1 159.2 C 8.1 160.7 8.5 161.5 9.6 161.5 C 10.3 161.5 10.9 161.2 11.3 160.8 C 11.3 160.8 12.2 162.9 12.2 162.9 C 11.5 163.6 10.5 164.1 9.1 164.1 C 6.4 164.1 5.2 162.6 5.2 159.7 Z M 25.6 163.6 C 25.6 163.6 25.62 149.8 25.6 149.8 C 25.6 147.2 24.4 146.4 22.5 146.4 C 20.6 146.4 18.9 147.8 18 149.4 C 17.98 149.44 18 163.6 18 163.6 L 15.1 163.6 L 15.1 136.9 L 18 136.9 C 18 136.9 17.98 147.04 18 147 C 19.1 145.4 21.3 143.8 23.6 143.8 C 26.9 143.8 28.5 145.4 28.5 149 C 28.46 148.96 28.5 163.6 28.5 163.6 L 25.6 163.6 Z M 33.2 139.5 C 33.2 138.4 34.1 137.6 35.1 137.6 C 36.2 137.6 37.1 138.4 37.1 139.5 C 37.1 140.6 36.2 141.5 35.1 141.5 C 34.1 141.5 33.2 140.6 33.2 139.5 Z M 33.7 163.6 L 33.7 144.3 L 36.6 144.3 L 36.6 163.6 L 33.7 163.6 Z M 40.3 161.4 C 40.3 161.4 41.7 159.3 41.7 159.3 C 42.9 160.7 44.7 161.8 46.8 161.8 C 49 161.8 50.5 160.5 50.5 158.6 C 50.5 154.1 40.9 155.7 40.9 149 C 40.9 146.1 43.2 143.8 47 143.8 C 49.6 143.8 51.5 144.8 52.9 146.3 C 52.9 146.3 51.5 148.2 51.5 148.2 C 50.6 147 48.9 146.1 47.1 146.1 C 44.9 146.1 43.6 147.4 43.6 148.9 C 43.6 153 53.3 151.6 53.3 158.6 C 53.3 161.8 50.8 164.1 46.8 164.1 C 44.1 164.1 41.9 163.2 40.3 161.4 Z M 65.4 163.6 C 65.4 163.6 65.42 161 65.4 161 C 74.1 151 77.1 147.7 77.1 143.8 C 77.1 141 75.1 139.4 72.9 139.4 C 70.3 139.4 68.5 140.6 67.2 142.7 C 67.2 142.7 65.1 140.8 65.1 140.8 C 66.9 138.1 69.5 136.5 72.9 136.5 C 77 136.5 80.4 139.2 80.4 143.8 C 80.4 148.3 77 152.3 69.9 160.8 C 69.94 160.76 80.5 160.8 80.5 160.8 L 80.5 163.6 L 65.4 163.6 Z M 89.5 163.6 L 89.5 141.1 L 85.4 145.5 L 83.5 143.5 L 89.9 136.9 L 92.7 136.9 L 92.7 163.6 L 89.5 163.6 Z M 96.1 149 C 96.1 149 96.9 147.8 96.9 147.8 C 97.6 148.6 98.7 149.2 99.9 149.2 C 101.2 149.2 102 148.5 102 147.4 C 102 144.8 96.4 145.7 96.4 141.8 C 96.4 140.1 97.8 138.7 100 138.7 C 101.5 138.7 102.6 139.3 103.4 140.2 C 103.4 140.2 102.6 141.3 102.6 141.3 C 102.1 140.6 101.1 140.1 100 140.1 C 98.8 140.1 98 140.8 98 141.7 C 98 144.1 103.6 143.3 103.6 147.3 C 103.6 149.2 102.2 150.6 99.9 150.6 C 98.3 150.6 97 150 96.1 149 Z M 106.4 148 C 106.35 148.02 106.4 140.5 106.4 140.5 L 104.9 140.5 L 104.9 139 L 106.4 139 L 106.4 135.9 L 108 135.9 L 108 139 L 109.9 139 L 109.9 140.5 L 108 140.5 C 108 140.5 108.03 147.71 108 147.7 C 108 148.6 108.3 149.1 108.9 149.1 C 109.4 149.1 109.7 148.9 109.9 148.6 C 109.9 148.6 110.4 149.9 110.4 149.9 C 110 150.3 109.5 150.6 108.6 150.6 C 107.1 150.6 106.4 149.7 106.4 148 Z M 120.9 153.9 C 120.9 148.2 123.9 143.8 128.9 143.8 C 131.6 143.8 133.2 144.9 134.4 146.4 C 134.4 146.4 132.9 148.3 132.9 148.3 C 131.8 146.9 130.6 146.4 129.1 146.4 C 125.7 146.4 123.9 149.8 123.9 153.9 C 123.9 158 125.7 161.5 129.1 161.5 C 130.6 161.5 131.8 160.9 132.9 159.6 C 132.9 159.6 134.4 161.5 134.4 161.5 C 133.2 163 131.6 164.1 128.9 164.1 C 123.9 164.1 120.9 159.6 120.9 153.9 Z M 137.1 153.9 C 137.1 148.3 140.1 143.8 145 143.8 C 150.1 143.8 152.6 148.4 152.6 154 C 152.62 154 152.6 154.9 152.6 154.9 C 152.6 154.9 140.1 154.88 140.1 154.9 C 140.2 158.8 142.2 161.7 145.7 161.7 C 147.3 161.7 149.1 160.8 150.3 159.3 C 150.3 159.3 151.8 161 151.8 161 C 150.2 162.9 148 164.1 145.4 164.1 C 140.3 164.1 137.1 159.8 137.1 153.9 Z M 144.9 146.2 C 141.5 146.2 140.2 149.9 140.1 152.8 C 140.1 152.8 149.8 152.8 149.8 152.8 C 149.7 149.8 148.5 146.2 144.9 146.2 Z M 167.3 163.6 C 167.3 163.6 167.26 149.84 167.3 149.8 C 167.3 147.3 166.1 146.4 164.2 146.4 C 162.3 146.4 160.5 147.8 159.7 149.4 C 159.66 149.44 159.7 163.6 159.7 163.6 L 156.8 163.6 L 156.8 144.3 L 159.7 144.3 C 159.7 144.3 159.66 147.04 159.7 147 C 160.8 145.4 162.9 143.8 165.3 143.8 C 168.5 143.8 170.1 145.6 170.1 149 C 170.14 149.04 170.1 163.6 170.1 163.6 L 167.3 163.6 Z M 176 159.7 C 175.98 159.72 176 146.8 176 146.8 L 173.4 146.8 L 173.4 144.3 L 176 144.3 L 176 139 L 178.9 139 L 178.9 144.3 L 182.1 144.3 L 182.1 146.8 L 178.9 146.8 C 178.9 146.8 178.86 159.2 178.9 159.2 C 178.9 160.7 179.3 161.5 180.4 161.5 C 181.1 161.5 181.7 161.2 182.1 160.8 C 182.1 160.8 183 162.9 183 162.9 C 182.3 163.6 181.3 164.1 179.9 164.1 C 177.2 164.1 176 162.6 176 159.7 Z M 196.4 163.6 C 196.4 163.6 196.38 160.92 196.4 160.9 C 195.2 162.6 193.2 164.1 190.8 164.1 C 187.5 164.1 185.9 162.4 185.9 158.9 C 185.94 158.92 185.9 144.3 185.9 144.3 L 188.8 144.3 C 188.8 144.3 188.78 158.08 188.8 158.1 C 188.8 160.6 190 161.5 191.9 161.5 C 193.8 161.5 195.5 160.1 196.4 158.5 C 196.38 158.52 196.4 144.3 196.4 144.3 L 199.3 144.3 L 199.3 163.6 L 196.4 163.6 Z M 204.5 163.6 L 204.5 144.3 L 207.4 144.3 C 207.4 144.3 207.38 147.36 207.4 147.4 C 208.6 145.3 210.5 143.9 212.9 143.9 C 212.9 143.9 212.9 146.8 212.9 146.8 C 212.5 146.8 212.2 146.7 211.9 146.7 C 210.1 146.7 208.2 148.3 207.4 149.9 C 207.38 149.88 207.4 163.6 207.4 163.6 L 204.5 163.6 Z M 215.6 168.6 C 216 168.8 216.6 168.9 216.9 168.9 C 218 168.9 218.7 168.4 219.2 167 C 219.18 166.96 220.2 164 220.2 164 L 213.8 144.3 L 216.9 144.3 L 221.7 160.1 L 226.5 144.3 L 229.6 144.3 C 229.6 144.3 221.9 167.68 221.9 167.7 C 220.9 170.5 219.4 171.4 217.1 171.4 C 216.5 171.4 215.6 171.3 215.2 171.2 C 215.2 171.2 215.6 168.6 215.6 168.6 Z M 230.3 161.8 C 230.3 160.7 231.3 159.7 232.4 159.7 C 233.6 159.7 234.6 160.7 234.6 161.8 C 234.6 163 233.6 164 232.4 164 C 231.3 164 230.3 163 230.3 161.8 Z " stroke="none" fill="#b13d24"/>  </g>  <g id="Polygon164269">    <path d="M 5.3 119.6 L 5.3 102.8 L 2.7 102.8 L 2.7 100.3 L 5.3 100.3 C 5.3 100.3 5.3 97.92 5.3 97.9 C 5.3 94.6 7.1 92.5 10.1 92.5 C 11.4 92.5 12.6 92.9 13.6 93.8 C 13.6 93.8 12.5 95.8 12.5 95.8 C 11.9 95.3 11.3 95 10.6 95 C 9 95 8.2 96 8.2 97.9 C 8.18 97.92 8.2 100.3 8.2 100.3 L 11.5 100.3 L 11.5 102.8 L 8.2 102.8 L 8.2 119.6 L 5.3 119.6 Z M 13.8 109.9 C 13.8 104.5 16.5 99.8 21.7 99.8 C 26.9 99.8 29.5 104.5 29.5 109.9 C 29.5 115.4 26.9 120.1 21.7 120.1 C 16.5 120.1 13.8 115.4 13.8 109.9 Z M 26.5 109.9 C 26.5 106 25.1 102.4 21.7 102.4 C 18.3 102.4 16.8 106 16.8 109.9 C 16.8 113.8 18.3 117.5 21.7 117.5 C 25.1 117.5 26.5 113.8 26.5 109.9 Z M 32.9 109.9 C 32.9 104.5 35.6 99.8 40.7 99.8 C 45.9 99.8 48.6 104.5 48.6 109.9 C 48.6 115.4 45.9 120.1 40.7 120.1 C 35.6 120.1 32.9 115.4 32.9 109.9 Z M 45.6 109.9 C 45.6 106 44.1 102.4 40.7 102.4 C 37.4 102.4 35.9 106 35.9 109.9 C 35.9 113.8 37.4 117.5 40.7 117.5 C 44.1 117.5 45.6 113.8 45.6 109.9 Z M 64 119.6 C 64 119.6 63.98 116.84 64 116.8 C 62.9 118.8 60.9 120.1 58.9 120.1 C 54.6 120.1 52 116 52 110 C 52 104 54.5 99.8 58.9 99.8 C 60.9 99.8 62.8 100.9 64 103.1 C 63.98 103.08 64 92.9 64 92.9 L 66.9 92.9 L 66.9 119.6 L 64 119.6 Z M 64 114.4 C 64 114.4 64 105.5 64 105.5 C 63.3 103.8 61.5 102.4 59.6 102.4 C 56.5 102.4 55 105.8 55 110 C 55 114.1 56.5 117.5 59.6 117.5 C 61.5 117.5 63.3 116.1 64 114.4 Z M 79.2 117.4 C 79.2 117.4 80.6 115.3 80.6 115.3 C 81.7 116.7 83.6 117.8 85.7 117.8 C 87.9 117.8 89.4 116.5 89.4 114.6 C 89.4 110.1 79.7 111.7 79.7 105 C 79.7 102.1 82.1 99.8 85.9 99.8 C 88.5 99.8 90.4 100.8 91.8 102.3 C 91.8 102.3 90.4 104.2 90.4 104.2 C 89.5 103 87.8 102.1 85.9 102.1 C 83.8 102.1 82.5 103.4 82.5 104.9 C 82.5 109 92.1 107.6 92.1 114.6 C 92.1 117.8 89.7 120.1 85.7 120.1 C 83 120.1 80.8 119.2 79.2 117.4 Z M 95.3 109.9 C 95.3 104.2 98.3 99.8 103.3 99.8 C 105.9 99.8 107.6 100.9 108.8 102.4 C 108.8 102.4 107.2 104.3 107.2 104.3 C 106.2 102.9 105 102.4 103.5 102.4 C 100.1 102.4 98.3 105.8 98.3 109.9 C 98.3 114 100.1 117.5 103.5 117.5 C 105 117.5 106.2 116.9 107.2 115.6 C 107.2 115.6 108.8 117.5 108.8 117.5 C 107.6 119 105.9 120.1 103.3 120.1 C 98.3 120.1 95.3 115.6 95.3 109.9 Z M 111.5 109.9 C 111.5 104.3 114.5 99.8 119.3 99.8 C 124.4 99.8 127 104.4 127 110 C 126.98 110 127 110.9 127 110.9 C 127 110.9 114.46 110.88 114.5 110.9 C 114.6 114.8 116.6 117.7 120 117.7 C 121.7 117.7 123.4 116.8 124.6 115.3 C 124.6 115.3 126.1 117 126.1 117 C 124.6 118.9 122.4 120.1 119.8 120.1 C 114.6 120.1 111.5 115.8 111.5 109.9 Z M 119.3 102.2 C 115.9 102.2 114.5 105.9 114.5 108.8 C 114.5 108.8 124.1 108.8 124.1 108.8 C 124.1 105.8 122.8 102.2 119.3 102.2 Z M 141.6 119.6 C 141.6 119.6 141.62 105.84 141.6 105.8 C 141.6 103.3 140.5 102.4 138.5 102.4 C 136.7 102.4 134.9 103.8 134 105.4 C 134.02 105.44 134 119.6 134 119.6 L 131.2 119.6 L 131.2 100.3 L 134 100.3 C 134 100.3 134.02 103.04 134 103 C 135.1 101.4 137.3 99.8 139.6 99.8 C 142.9 99.8 144.5 101.6 144.5 105 C 144.5 105.04 144.5 119.6 144.5 119.6 L 141.6 119.6 Z M 148.8 109.9 C 148.8 104.3 151.8 99.8 156.7 99.8 C 161.7 99.8 164.3 104.4 164.3 110 C 164.3 110 164.3 110.9 164.3 110.9 C 164.3 110.9 151.78 110.88 151.8 110.9 C 151.9 114.8 153.9 117.7 157.3 117.7 C 159 117.7 160.7 116.8 161.9 115.3 C 161.9 115.3 163.5 117 163.5 117 C 161.9 118.9 159.7 120.1 157.1 120.1 C 151.9 120.1 148.8 115.8 148.8 109.9 Z M 156.6 102.2 C 153.2 102.2 151.9 105.9 151.8 108.8 C 151.8 108.8 161.5 108.8 161.5 108.8 C 161.4 105.8 160.1 102.2 156.6 102.2 Z M 176.5 95.5 C 176.5 94.4 177.5 93.6 178.5 93.6 C 179.6 93.6 180.5 94.4 180.5 95.5 C 180.5 96.6 179.6 97.5 178.5 97.5 C 177.5 97.5 176.5 96.6 176.5 95.5 Z M 177.1 119.6 L 177.1 100.3 L 179.9 100.3 L 179.9 119.6 L 177.1 119.6 Z M 195.7 119.6 C 195.7 119.6 195.66 105.84 195.7 105.8 C 195.7 103.3 194.5 102.4 192.6 102.4 C 190.7 102.4 188.9 103.8 188.1 105.4 C 188.06 105.44 188.1 119.6 188.1 119.6 L 185.2 119.6 L 185.2 100.3 L 188.1 100.3 C 188.1 100.3 188.06 103.04 188.1 103 C 189.2 101.4 191.3 99.8 193.7 99.8 C 196.9 99.8 198.5 101.6 198.5 105 C 198.54 105.04 198.5 119.6 198.5 119.6 L 195.7 119.6 Z M 213 115.7 C 212.98 115.72 213 102.8 213 102.8 L 210.4 102.8 L 210.4 100.3 L 213 100.3 L 213 95 L 215.9 95 L 215.9 100.3 L 219.1 100.3 L 219.1 102.8 L 215.9 102.8 C 215.9 102.8 215.86 115.2 215.9 115.2 C 215.9 116.7 216.3 117.5 217.4 117.5 C 218.1 117.5 218.7 117.2 219.1 116.8 C 219.1 116.8 220 118.9 220 118.9 C 219.3 119.6 218.3 120.1 216.9 120.1 C 214.2 120.1 213 118.6 213 115.7 Z M 233.4 119.6 C 233.4 119.6 233.42 105.8 233.4 105.8 C 233.4 103.2 232.2 102.4 230.3 102.4 C 228.4 102.4 226.7 103.8 225.8 105.4 C 225.78 105.44 225.8 119.6 225.8 119.6 L 222.9 119.6 L 222.9 92.9 L 225.8 92.9 C 225.8 92.9 225.78 103.04 225.8 103 C 226.9 101.4 229.1 99.8 231.4 99.8 C 234.7 99.8 236.3 101.4 236.3 105 C 236.26 104.96 236.3 119.6 236.3 119.6 L 233.4 119.6 Z M 240.6 109.9 C 240.6 104.3 243.5 99.8 248.4 99.8 C 253.5 99.8 256.1 104.4 256.1 110 C 256.06 110 256.1 110.9 256.1 110.9 C 256.1 110.9 243.54 110.88 243.5 110.9 C 243.7 114.8 245.7 117.7 249.1 117.7 C 250.8 117.7 252.5 116.8 253.7 115.3 C 253.7 115.3 255.2 117 255.2 117 C 253.7 118.9 251.5 120.1 248.9 120.1 C 243.7 120.1 240.6 115.8 240.6 109.9 Z M 248.4 102.2 C 245 102.2 243.6 105.9 243.5 108.8 C 243.5 108.8 253.2 108.8 253.2 108.8 C 253.2 105.8 251.9 102.2 248.4 102.2 Z M 276.1 117.5 C 279.2 117.5 280.7 114.1 280.7 110 C 280.7 105.8 279.2 102.4 276.1 102.4 C 274.3 102.4 272.5 103.9 271.7 105.6 C 271.7 105.6 271.7 114.4 271.7 114.4 C 272.5 116.1 274.3 117.5 276.1 117.5 Z M 268.9 119.6 L 268.9 92.9 L 271.7 92.9 C 271.7 92.9 271.7 103.08 271.7 103.1 C 272.9 100.9 274.8 99.8 276.8 99.8 C 281.1 99.8 283.7 104 283.7 110 C 283.7 116 281.1 120.1 276.8 120.1 C 274.7 120.1 272.8 118.8 271.7 116.8 C 271.7 116.84 271.7 119.6 271.7 119.6 L 268.9 119.6 Z M 287.1 109.9 C 287.1 104.3 290.1 99.8 294.9 99.8 C 300 99.8 302.6 104.4 302.6 110 C 302.58 110 302.6 110.9 302.6 110.9 C 302.6 110.9 290.06 110.88 290.1 110.9 C 290.2 114.8 292.2 117.7 295.6 117.7 C 297.3 117.7 299 116.8 300.2 115.3 C 300.2 115.3 301.7 117 301.7 117 C 300.2 118.9 298 120.1 295.4 120.1 C 290.2 120.1 287.1 115.8 287.1 109.9 Z M 294.9 102.2 C 291.5 102.2 290.1 105.9 290.1 108.8 C 290.1 108.8 299.7 108.8 299.7 108.8 C 299.7 105.8 298.4 102.2 294.9 102.2 Z M 306.6 125 C 306.6 125 307.9 122.8 307.9 122.8 C 309.2 124.2 310.9 125 313 125 C 315.6 125 317.8 123.5 317.8 119.8 C 317.8 119.8 317.8 116.5 317.8 116.5 C 316.7 118.5 314.8 119.8 312.7 119.8 C 308.4 119.8 305.8 115.9 305.8 109.8 C 305.8 103.8 308.4 99.8 312.7 99.8 C 314.7 99.8 316.6 100.9 317.8 103.1 C 317.82 103.08 317.8 100.3 317.8 100.3 L 320.7 100.3 C 320.7 100.3 320.7 119.56 320.7 119.6 C 320.7 125.5 317.1 127.4 313.1 127.4 C 310.5 127.4 308.5 126.8 306.6 125 Z M 317.8 114.1 C 317.8 114.1 317.8 105.5 317.8 105.5 C 317.1 103.8 315.3 102.4 313.5 102.4 C 310.3 102.4 308.8 105.7 308.8 109.8 C 308.8 114 310.3 117.3 313.5 117.3 C 315.3 117.3 317.1 115.8 317.8 114.1 Z M 325.4 95.5 C 325.4 94.4 326.3 93.6 327.3 93.6 C 328.4 93.6 329.3 94.4 329.3 95.5 C 329.3 96.6 328.4 97.5 327.3 97.5 C 326.3 97.5 325.4 96.6 325.4 95.5 Z M 325.9 119.6 L 325.9 100.3 L 328.8 100.3 L 328.8 119.6 L 325.9 119.6 Z M 344.5 119.6 C 344.5 119.6 344.5 105.84 344.5 105.8 C 344.5 103.3 343.3 102.4 341.4 102.4 C 339.5 102.4 337.8 103.8 336.9 105.4 C 336.9 105.44 336.9 119.6 336.9 119.6 L 334.1 119.6 L 334.1 100.3 L 336.9 100.3 C 336.9 100.3 336.9 103.04 336.9 103 C 338 101.4 340.2 99.8 342.5 99.8 C 345.8 99.8 347.4 101.6 347.4 105 C 347.38 105.04 347.4 119.6 347.4 119.6 L 344.5 119.6 Z M 363.1 119.6 C 363.1 119.6 363.1 105.84 363.1 105.8 C 363.1 103.3 361.9 102.4 360 102.4 C 358.1 102.4 356.4 103.8 355.5 105.4 C 355.5 105.44 355.5 119.6 355.5 119.6 L 352.7 119.6 L 352.7 100.3 L 355.5 100.3 C 355.5 100.3 355.5 103.04 355.5 103 C 356.6 101.4 358.8 99.8 361.1 99.8 C 364.4 99.8 366 101.6 366 105 C 365.98 105.04 366 119.6 366 119.6 L 363.1 119.6 Z M 370.7 95.5 C 370.7 94.4 371.6 93.6 372.7 93.6 C 373.7 93.6 374.6 94.4 374.6 95.5 C 374.6 96.6 373.7 97.5 372.7 97.5 C 371.6 97.5 370.7 96.6 370.7 95.5 Z M 371.3 119.6 L 371.3 100.3 L 374.1 100.3 L 374.1 119.6 L 371.3 119.6 Z M 389.8 119.6 C 389.8 119.6 389.82 105.84 389.8 105.8 C 389.8 103.3 388.7 102.4 386.7 102.4 C 384.9 102.4 383.1 103.8 382.2 105.4 C 382.22 105.44 382.2 119.6 382.2 119.6 L 379.4 119.6 L 379.4 100.3 L 382.2 100.3 C 382.2 100.3 382.22 103.04 382.2 103 C 383.3 101.4 385.5 99.8 387.8 99.8 C 391.1 99.8 392.7 101.6 392.7 105 C 392.7 105.04 392.7 119.6 392.7 119.6 L 389.8 119.6 Z M 397.8 125 C 397.8 125 399.1 122.8 399.1 122.8 C 400.4 124.2 402.1 125 404.2 125 C 406.8 125 409 123.5 409 119.8 C 409 119.8 409 116.5 409 116.5 C 407.9 118.5 406 119.8 403.9 119.8 C 399.6 119.8 397 115.9 397 109.8 C 397 103.8 399.6 99.8 403.9 99.8 C 405.9 99.8 407.8 100.9 409 103.1 C 409.02 103.08 409 100.3 409 100.3 L 411.9 100.3 C 411.9 100.3 411.9 119.56 411.9 119.6 C 411.9 125.5 408.3 127.4 404.3 127.4 C 401.7 127.4 399.7 126.8 397.8 125 Z M 409 114.1 C 409 114.1 409 105.5 409 105.5 C 408.3 103.8 406.5 102.4 404.7 102.4 C 401.5 102.4 400 105.7 400 109.8 C 400 114 401.5 117.3 404.7 117.3 C 406.5 117.3 408.3 115.8 409 114.1 Z M 424.8 109.9 C 424.8 104.5 427.5 99.8 432.6 99.8 C 437.8 99.8 440.5 104.5 440.5 109.9 C 440.5 115.4 437.8 120.1 432.6 120.1 C 427.5 120.1 424.8 115.4 424.8 109.9 Z M 437.5 109.9 C 437.5 106 436 102.4 432.6 102.4 C 429.3 102.4 427.8 106 427.8 109.9 C 427.8 113.8 429.3 117.5 432.6 117.5 C 436 117.5 437.5 113.8 437.5 109.9 Z M 445.5 119.6 L 445.5 102.8 L 442.9 102.8 L 442.9 100.3 L 445.5 100.3 C 445.5 100.3 445.5 97.92 445.5 97.9 C 445.5 94.6 447.3 92.5 450.3 92.5 C 451.6 92.5 452.8 92.9 453.8 93.8 C 453.8 93.8 452.7 95.8 452.7 95.8 C 452.1 95.3 451.5 95 450.8 95 C 449.2 95 448.4 96 448.4 97.9 C 448.38 97.92 448.4 100.3 448.4 100.3 L 451.7 100.3 L 451.7 102.8 L 448.4 102.8 L 448.4 119.6 L 445.5 119.6 Z " stroke="none" fill="#b13d24"/>  </g>  <g id="Polygon164268">    <path d="M 5.2 71.7 C 5.18 71.72 5.2 58.8 5.2 58.8 L 2.6 58.8 L 2.6 56.3 L 5.2 56.3 L 5.2 51 L 8.1 51 L 8.1 56.3 L 11.3 56.3 L 11.3 58.8 L 8.1 58.8 C 8.1 58.8 8.06 71.2 8.1 71.2 C 8.1 72.7 8.5 73.5 9.6 73.5 C 10.3 73.5 10.9 73.2 11.3 72.8 C 11.3 72.8 12.2 74.9 12.2 74.9 C 11.5 75.6 10.5 76.1 9.1 76.1 C 6.4 76.1 5.2 74.6 5.2 71.7 Z M 25.6 75.6 C 25.6 75.6 25.62 61.8 25.6 61.8 C 25.6 59.2 24.4 58.4 22.5 58.4 C 20.6 58.4 18.9 59.8 18 61.4 C 17.98 61.44 18 75.6 18 75.6 L 15.1 75.6 L 15.1 48.9 L 18 48.9 C 18 48.9 17.98 59.04 18 59 C 19.1 57.4 21.3 55.8 23.6 55.8 C 26.9 55.8 28.5 57.4 28.5 61 C 28.46 60.96 28.5 75.6 28.5 75.6 L 25.6 75.6 Z M 32.8 65.9 C 32.8 60.3 35.7 55.8 40.6 55.8 C 45.7 55.8 48.3 60.4 48.3 66 C 48.26 66 48.3 66.9 48.3 66.9 C 48.3 66.9 35.74 66.88 35.7 66.9 C 35.9 70.8 37.9 73.7 41.3 73.7 C 43 73.7 44.7 72.8 45.9 71.3 C 45.9 71.3 47.4 73 47.4 73 C 45.9 74.9 43.7 76.1 41.1 76.1 C 35.9 76.1 32.8 71.8 32.8 65.9 Z M 40.6 58.2 C 37.2 58.2 35.8 61.9 35.7 64.8 C 35.7 64.8 45.4 64.8 45.4 64.8 C 45.4 61.8 44.1 58.2 40.6 58.2 Z M 59.5 73.4 C 59.5 73.4 60.9 71.3 60.9 71.3 C 62.1 72.7 63.9 73.8 66 73.8 C 68.2 73.8 69.7 72.5 69.7 70.6 C 69.7 66.1 60.1 67.7 60.1 61 C 60.1 58.1 62.4 55.8 66.2 55.8 C 68.8 55.8 70.7 56.8 72.1 58.3 C 72.1 58.3 70.7 60.2 70.7 60.2 C 69.8 59 68.1 58.1 66.3 58.1 C 64.1 58.1 62.8 59.4 62.8 60.9 C 62.8 65 72.5 63.6 72.5 70.6 C 72.5 73.8 70 76.1 66 76.1 C 63.3 76.1 61.1 75.2 59.5 73.4 Z M 77.1 71.7 C 77.1 71.72 77.1 58.8 77.1 58.8 L 74.5 58.8 L 74.5 56.3 L 77.1 56.3 L 77.1 51 L 80 51 L 80 56.3 L 83.3 56.3 L 83.3 58.8 L 80 58.8 C 80 58.8 79.98 71.2 80 71.2 C 80 72.7 80.4 73.5 81.5 73.5 C 82.3 73.5 82.9 73.2 83.2 72.8 C 83.2 72.8 84.1 74.9 84.1 74.9 C 83.4 75.6 82.5 76.1 81 76.1 C 78.3 76.1 77.1 74.6 77.1 71.7 Z M 97 75.6 C 97 75.6 96.98 73.52 97 73.5 C 95.7 75.3 93.9 76.1 91.9 76.1 C 88.8 76.1 86.1 73.7 86.1 69.6 C 86.1 65.6 88.7 63.3 91.9 63.3 C 93.9 63.3 95.8 64 97 65.8 C 97 65.8 97 62.4 97 62.4 C 97 59.8 95.5 58.3 93 58.3 C 91.2 58.3 89.7 59 88.2 60.6 C 88.2 60.6 86.9 58.6 86.9 58.6 C 88.7 56.7 91 55.8 93.5 55.8 C 97.3 55.8 99.9 57.7 99.9 62.1 C 99.86 62.08 99.9 75.6 99.9 75.6 L 97 75.6 Z M 97 71.6 C 97 71.6 97 67.9 97 67.9 C 96.1 66.2 94.5 65.4 92.8 65.4 C 90.4 65.4 89 67.3 89 69.7 C 89 72.1 90.4 74 92.8 74 C 94.5 74 96.1 73.2 97 71.6 Z M 105.1 75.6 L 105.1 56.3 L 107.9 56.3 C 107.9 56.3 107.94 59.36 107.9 59.4 C 109.2 57.3 111.1 55.9 113.4 55.9 C 113.4 55.9 113.4 58.8 113.4 58.8 C 113.1 58.8 112.8 58.7 112.5 58.7 C 110.7 58.7 108.7 60.3 107.9 61.9 C 107.94 61.88 107.9 75.6 107.9 75.6 L 105.1 75.6 Z M 115.2 73.4 C 115.2 73.4 116.6 71.3 116.6 71.3 C 117.7 72.7 119.6 73.8 121.7 73.8 C 123.9 73.8 125.4 72.5 125.4 70.6 C 125.4 66.1 115.7 67.7 115.7 61 C 115.7 58.1 118.1 55.8 121.9 55.8 C 124.5 55.8 126.4 56.8 127.8 58.3 C 127.8 58.3 126.4 60.2 126.4 60.2 C 125.5 59 123.8 58.1 121.9 58.1 C 119.8 58.1 118.5 59.4 118.5 60.9 C 118.5 65 128.1 63.6 128.1 70.6 C 128.1 73.8 125.7 76.1 121.7 76.1 C 119 76.1 116.8 75.2 115.2 73.4 Z M 139.9 65.9 C 139.9 60.5 142.6 55.8 147.7 55.8 C 152.9 55.8 155.6 60.5 155.6 65.9 C 155.6 71.4 152.9 76.1 147.7 76.1 C 142.6 76.1 139.9 71.4 139.9 65.9 Z M 152.6 65.9 C 152.6 62 151.1 58.4 147.7 58.4 C 144.4 58.4 142.9 62 142.9 65.9 C 142.9 69.8 144.4 73.5 147.7 73.5 C 151.1 73.5 152.6 69.8 152.6 65.9 Z M 160.6 75.6 L 160.6 58.8 L 158 58.8 L 158 56.3 L 160.6 56.3 C 160.6 56.3 160.58 53.92 160.6 53.9 C 160.6 50.6 162.4 48.5 165.4 48.5 C 166.7 48.5 167.9 48.9 168.9 49.8 C 168.9 49.8 167.7 51.8 167.7 51.8 C 167.2 51.3 166.6 51 165.9 51 C 164.3 51 163.5 52 163.5 53.9 C 163.46 53.92 163.5 56.3 163.5 56.3 L 166.7 56.3 L 166.7 58.8 L 163.5 58.8 L 163.5 75.6 L 160.6 75.6 Z M 177.2 72.7 C 177.2 72.7 178.9 70.3 178.9 70.3 C 180.3 71.9 182.5 73.2 185.1 73.2 C 188.5 73.2 190 71.2 190 68.9 C 190 62.4 178 64.1 178 55.5 C 178 51.4 181.2 48.5 185.6 48.5 C 188.6 48.5 191 49.5 192.7 51.3 C 192.7 51.3 191.1 53.7 191.1 53.7 C 189.6 52.1 187.7 51.3 185.5 51.3 C 183.1 51.3 181.2 52.9 181.2 55.3 C 181.2 61 193.3 59.7 193.3 68.7 C 193.3 72.6 190.7 76.1 185.1 76.1 C 181.7 76.1 179 74.8 177.2 72.7 Z M 196.9 51.5 C 196.9 50.4 197.8 49.6 198.9 49.6 C 199.9 49.6 200.8 50.4 200.8 51.5 C 200.8 52.6 199.9 53.5 198.9 53.5 C 197.8 53.5 196.9 52.6 196.9 51.5 Z M 197.5 75.6 L 197.5 56.3 L 200.3 56.3 L 200.3 75.6 L 197.5 75.6 Z M 216 75.6 C 216 75.6 216.02 61.84 216 61.8 C 216 59.3 214.9 58.4 212.9 58.4 C 211.1 58.4 209.3 59.8 208.4 61.4 C 208.42 61.44 208.4 75.6 208.4 75.6 L 205.6 75.6 L 205.6 56.3 L 208.4 56.3 C 208.4 56.3 208.42 59.04 208.4 59 C 209.5 57.4 211.7 55.8 214 55.8 C 217.3 55.8 218.9 57.6 218.9 61 C 218.9 61.04 218.9 75.6 218.9 75.6 L 216 75.6 Z M 224 81 C 224 81 225.3 78.8 225.3 78.8 C 226.6 80.2 228.3 81 230.4 81 C 233 81 235.2 79.5 235.2 75.8 C 235.2 75.8 235.2 72.5 235.2 72.5 C 234.1 74.5 232.2 75.8 230.1 75.8 C 225.8 75.8 223.2 71.9 223.2 65.8 C 223.2 59.8 225.8 55.8 230.1 55.8 C 232.1 55.8 234 56.9 235.2 59.1 C 235.22 59.08 235.2 56.3 235.2 56.3 L 238.1 56.3 C 238.1 56.3 238.1 75.56 238.1 75.6 C 238.1 81.5 234.5 83.4 230.5 83.4 C 227.9 83.4 225.9 82.8 224 81 Z M 235.2 70.1 C 235.2 70.1 235.2 61.5 235.2 61.5 C 234.5 59.8 232.7 58.4 230.9 58.4 C 227.7 58.4 226.2 61.7 226.2 65.8 C 226.2 70 227.7 73.3 230.9 73.3 C 232.7 73.3 234.5 71.8 235.2 70.1 Z M 253.3 75.6 C 253.3 75.6 253.26 73.52 253.3 73.5 C 252 75.3 250.1 76.1 248.2 76.1 C 245.1 76.1 242.3 73.7 242.3 69.6 C 242.3 65.6 245 63.3 248.2 63.3 C 250.1 63.3 252.1 64 253.3 65.8 C 253.3 65.8 253.3 62.4 253.3 62.4 C 253.3 59.8 251.8 58.3 249.3 58.3 C 247.5 58.3 245.9 59 244.5 60.6 C 244.5 60.6 243.2 58.6 243.2 58.6 C 245 56.7 247.3 55.8 249.7 55.8 C 253.6 55.8 256.1 57.7 256.1 62.1 C 256.14 62.08 256.1 75.6 256.1 75.6 L 253.3 75.6 Z M 253.3 71.6 C 253.3 71.6 253.3 67.9 253.3 67.9 C 252.4 66.2 250.8 65.4 249.1 65.4 C 246.7 65.4 245.3 67.3 245.3 69.7 C 245.3 72.1 246.7 74 249.1 74 C 250.8 74 252.4 73.2 253.3 71.6 Z M 264.2 72.8 C 264.22 72.8 264.2 83 264.2 83 L 261.4 83 L 261.4 56.3 L 264.2 56.3 C 264.2 56.3 264.22 59.04 264.2 59 C 265.3 57.1 267.3 55.8 269.3 55.8 C 273.7 55.8 276.2 59.8 276.2 65.9 C 276.2 72 273.7 76.1 269.3 76.1 C 267.3 76.1 265.4 75 264.2 72.8 Z M 273.2 65.9 C 273.2 61.8 271.7 58.4 268.6 58.4 C 266.8 58.4 265 59.8 264.2 61.5 C 264.2 61.5 264.2 70.3 264.2 70.3 C 265 72 266.8 73.5 268.6 73.5 C 271.7 73.5 273.2 70.1 273.2 65.9 Z M 279.5 65.9 C 279.5 60.5 282.3 55.8 287.4 55.8 C 292.6 55.8 295.3 60.5 295.3 65.9 C 295.3 71.4 292.6 76.1 287.4 76.1 C 282.3 76.1 279.5 71.4 279.5 65.9 Z M 292.3 65.9 C 292.3 62 290.8 58.4 287.4 58.4 C 284.1 58.4 282.5 62 282.5 65.9 C 282.5 69.8 284.1 73.5 287.4 73.5 C 290.8 73.5 292.3 69.8 292.3 65.9 Z M 299.6 75.6 L 299.6 56.3 L 302.4 56.3 C 302.4 56.3 302.42 59.36 302.4 59.4 C 303.7 57.3 305.5 55.9 307.9 55.9 C 307.9 55.9 307.9 58.8 307.9 58.8 C 307.6 58.8 307.3 58.7 306.9 58.7 C 305.2 58.7 303.2 60.3 302.4 61.9 C 302.42 61.88 302.4 75.6 302.4 75.6 L 299.6 75.6 Z M 310.3 65.9 C 310.3 60.3 313.2 55.8 318.1 55.8 C 323.2 55.8 325.7 60.4 325.7 66 C 325.74 66 325.7 66.9 325.7 66.9 C 325.7 66.9 313.22 66.88 313.2 66.9 C 313.3 70.8 315.3 73.7 318.8 73.7 C 320.5 73.7 322.2 72.8 323.4 71.3 C 323.4 71.3 324.9 73 324.9 73 C 323.3 74.9 321.1 76.1 318.5 76.1 C 313.4 76.1 310.3 71.8 310.3 65.9 Z M 318.1 58.2 C 314.7 58.2 313.3 61.9 313.2 64.8 C 313.2 64.8 322.9 64.8 322.9 64.8 C 322.9 61.8 321.6 58.2 318.1 58.2 Z M 330.9 57.4 C 330.9 57.4 329.5 56.2 329.5 56.2 C 330.7 55.4 331.9 53.8 332 52.5 C 331.9 52.6 331.7 52.6 331.5 52.6 C 330.4 52.6 329.6 51.8 329.6 50.6 C 329.6 49.5 330.5 48.5 331.7 48.5 C 333 48.5 334.1 49.6 334.1 51.5 C 334.1 53.9 332.7 56.2 330.9 57.4 Z M 336.1 73.4 C 336.1 73.4 337.5 71.3 337.5 71.3 C 338.6 72.7 340.5 73.8 342.5 73.8 C 344.8 73.8 346.3 72.5 346.3 70.6 C 346.3 66.1 336.6 67.7 336.6 61 C 336.6 58.1 338.9 55.8 342.8 55.8 C 345.3 55.8 347.3 56.8 348.7 58.3 C 348.7 58.3 347.3 60.2 347.3 60.2 C 346.3 59 344.7 58.1 342.8 58.1 C 340.7 58.1 339.4 59.4 339.4 60.9 C 339.4 65 349 63.6 349 70.6 C 349 73.8 346.5 76.1 342.6 76.1 C 339.9 76.1 337.7 75.2 336.1 73.4 Z M 360.1 73.4 C 360.1 73.4 361.6 71.3 361.6 71.3 C 362.7 72.7 364.5 73.8 366.6 73.8 C 368.9 73.8 370.3 72.5 370.3 70.6 C 370.3 66.1 360.7 67.7 360.7 61 C 360.7 58.1 363 55.8 366.9 55.8 C 369.4 55.8 371.4 56.8 372.7 58.3 C 372.7 58.3 371.4 60.2 371.4 60.2 C 370.4 59 368.8 58.1 366.9 58.1 C 364.8 58.1 363.5 59.4 363.5 60.9 C 363.5 65 373.1 63.6 373.1 70.6 C 373.1 73.8 370.6 76.1 366.7 76.1 C 363.9 76.1 361.7 75.2 360.1 73.4 Z M 377.7 71.7 C 377.74 71.72 377.7 58.8 377.7 58.8 L 375.2 58.8 L 375.2 56.3 L 377.7 56.3 L 377.7 51 L 380.6 51 L 380.6 56.3 L 383.9 56.3 L 383.9 58.8 L 380.6 58.8 C 380.6 58.8 380.62 71.2 380.6 71.2 C 380.6 72.7 381.1 73.5 382.2 73.5 C 382.9 73.5 383.5 73.2 383.9 72.8 C 383.9 72.8 384.7 74.9 384.7 74.9 C 384.1 75.6 383.1 76.1 381.6 76.1 C 379 76.1 377.7 74.6 377.7 71.7 Z M 387.7 75.6 L 387.7 56.3 L 390.5 56.3 C 390.5 56.3 390.53 59.36 390.5 59.4 C 391.8 57.3 393.7 55.9 396 55.9 C 396 55.9 396 58.8 396 58.8 C 395.7 58.8 395.4 58.7 395.1 58.7 C 393.3 58.7 391.3 60.3 390.5 61.9 C 390.53 61.88 390.5 75.6 390.5 75.6 L 387.7 75.6 Z M 398.4 65.9 C 398.4 60.3 401.3 55.8 406.2 55.8 C 411.3 55.8 413.9 60.4 413.9 66 C 413.85 66 413.9 66.9 413.9 66.9 C 413.9 66.9 401.33 66.88 401.3 66.9 C 401.5 70.8 403.5 73.7 406.9 73.7 C 408.6 73.7 410.3 72.8 411.5 71.3 C 411.5 71.3 413 73 413 73 C 411.5 74.9 409.3 76.1 406.7 76.1 C 401.5 76.1 398.4 71.8 398.4 65.9 Z M 406.2 58.2 C 402.8 58.2 401.4 61.9 401.3 64.8 C 401.3 64.8 411 64.8 411 64.8 C 411 61.8 409.7 58.2 406.2 58.2 Z M 417.1 65.9 C 417.1 60.3 420.1 55.8 424.9 55.8 C 430 55.8 432.6 60.4 432.6 66 C 432.57 66 432.6 66.9 432.6 66.9 C 432.6 66.9 420.05 66.88 420.1 66.9 C 420.2 70.8 422.2 73.7 425.6 73.7 C 427.3 73.7 429 72.8 430.2 71.3 C 430.2 71.3 431.7 73 431.7 73 C 430.2 74.9 428 76.1 425.4 76.1 C 420.2 76.1 417.1 71.8 417.1 65.9 Z M 424.9 58.2 C 421.5 58.2 420.1 61.9 420.1 64.8 C 420.1 64.8 429.7 64.8 429.7 64.8 C 429.7 61.8 428.4 58.2 424.9 58.2 Z M 437.3 71.7 C 437.33 71.72 437.3 58.8 437.3 58.8 L 434.8 58.8 L 434.8 56.3 L 437.3 56.3 L 437.3 51 L 440.2 51 L 440.2 56.3 L 443.5 56.3 L 443.5 58.8 L 440.2 58.8 C 440.2 58.8 440.21 71.2 440.2 71.2 C 440.2 72.7 440.7 73.5 441.8 73.5 C 442.5 73.5 443.1 73.2 443.5 72.8 C 443.5 72.8 444.3 74.9 444.3 74.9 C 443.7 75.6 442.7 76.1 441.2 76.1 C 438.6 76.1 437.3 74.6 437.3 71.7 Z " stroke="none" fill="#b13d24"/>  </g>  <g id="Polygon164267">    <path d="M 9.3 31.6 L 9.3 7.7 L 3 7.7 L 3 4.9 L 18.8 4.9 L 18.8 7.7 L 12.5 7.7 L 12.5 31.6 L 9.3 31.6 Z M 32.9 31.6 C 32.9 31.6 32.94 17.8 32.9 17.8 C 32.9 15.2 31.7 14.4 29.8 14.4 C 27.9 14.4 26.2 15.8 25.3 17.4 C 25.3 17.44 25.3 31.6 25.3 31.6 L 22.5 31.6 L 22.5 4.9 L 25.3 4.9 C 25.3 4.9 25.3 15.04 25.3 15 C 26.4 13.4 28.6 11.8 30.9 11.8 C 34.2 11.8 35.8 13.4 35.8 17 C 35.78 16.96 35.8 31.6 35.8 31.6 L 32.9 31.6 Z M 40.5 7.5 C 40.5 6.4 41.4 5.6 42.5 5.6 C 43.5 5.6 44.4 6.4 44.4 7.5 C 44.4 8.6 43.5 9.5 42.5 9.5 C 41.4 9.5 40.5 8.6 40.5 7.5 Z M 41.1 31.6 L 41.1 12.3 L 43.9 12.3 L 43.9 31.6 L 41.1 31.6 Z M 47.6 29.4 C 47.6 29.4 49.1 27.3 49.1 27.3 C 50.2 28.7 52 29.8 54.1 29.8 C 56.3 29.8 57.8 28.5 57.8 26.6 C 57.8 22.1 48.2 23.7 48.2 17 C 48.2 14.1 50.5 11.8 54.3 11.8 C 56.9 11.8 58.9 12.8 60.2 14.3 C 60.2 14.3 58.9 16.2 58.9 16.2 C 57.9 15 56.3 14.1 54.4 14.1 C 52.3 14.1 50.9 15.4 50.9 16.9 C 50.9 21 60.6 19.6 60.6 26.6 C 60.6 29.8 58.1 32.1 54.1 32.1 C 51.4 32.1 49.2 31.2 47.6 29.4 Z M 84.3 31.6 C 84.3 31.6 84.3 28.84 84.3 28.8 C 83.2 30.8 81.3 32.1 79.2 32.1 C 74.9 32.1 72.3 28 72.3 22 C 72.3 16 74.9 11.8 79.2 11.8 C 81.2 11.8 83.1 12.9 84.3 15.1 C 84.3 15.08 84.3 4.9 84.3 4.9 L 87.2 4.9 L 87.2 31.6 L 84.3 31.6 Z M 84.3 26.4 C 84.3 26.4 84.3 17.5 84.3 17.5 C 83.6 15.8 81.8 14.4 79.9 14.4 C 76.8 14.4 75.3 17.8 75.3 22 C 75.3 26.1 76.8 29.5 79.9 29.5 C 81.8 29.5 83.6 28.1 84.3 26.4 Z M 91.5 21.9 C 91.5 16.3 94.5 11.8 99.3 11.8 C 104.4 11.8 107 16.4 107 22 C 106.98 22 107 22.9 107 22.9 C 107 22.9 94.46 22.88 94.5 22.9 C 94.6 26.8 96.6 29.7 100 29.7 C 101.7 29.7 103.4 28.8 104.6 27.3 C 104.6 27.3 106.1 29 106.1 29 C 104.6 30.9 102.4 32.1 99.8 32.1 C 94.6 32.1 91.5 27.8 91.5 21.9 Z M 99.3 14.2 C 95.9 14.2 94.5 17.9 94.5 20.8 C 94.5 20.8 104.1 20.8 104.1 20.8 C 104.1 17.8 102.8 14.2 99.3 14.2 Z M 111.2 31.6 L 111.2 4.9 L 114 4.9 L 114 31.6 L 111.2 31.6 Z M 118.7 7.5 C 118.7 6.4 119.7 5.6 120.7 5.6 C 121.8 5.6 122.7 6.4 122.7 7.5 C 122.7 8.6 121.8 9.5 120.7 9.5 C 119.7 9.5 118.7 8.6 118.7 7.5 Z M 119.3 31.6 L 119.3 12.3 L 122.1 12.3 L 122.1 31.6 L 119.3 31.6 Z M 126.5 21.9 C 126.5 16.2 129.5 11.8 134.5 11.8 C 137.1 11.8 138.8 12.9 140 14.4 C 140 14.4 138.4 16.3 138.4 16.3 C 137.4 14.9 136.2 14.4 134.7 14.4 C 131.3 14.4 129.5 17.8 129.5 21.9 C 129.5 26 131.3 29.5 134.7 29.5 C 136.2 29.5 137.4 28.9 138.4 27.6 C 138.4 27.6 140 29.5 140 29.5 C 138.8 31 137.1 32.1 134.5 32.1 C 129.5 32.1 126.5 27.6 126.5 21.9 Z M 143.1 7.5 C 143.1 6.4 144 5.6 145.1 5.6 C 146.1 5.6 147 6.4 147 7.5 C 147 8.6 146.1 9.5 145.1 9.5 C 144 9.5 143.1 8.6 143.1 7.5 Z M 143.7 31.6 L 143.7 12.3 L 146.5 12.3 L 146.5 31.6 L 143.7 31.6 Z M 150.8 21.9 C 150.8 16.5 153.5 11.8 158.7 11.8 C 163.9 11.8 166.5 16.5 166.5 21.9 C 166.5 27.4 163.9 32.1 158.7 32.1 C 153.5 32.1 150.8 27.4 150.8 21.9 Z M 163.5 21.9 C 163.5 18 162.1 14.4 158.7 14.4 C 155.3 14.4 153.8 18 153.8 21.9 C 153.8 25.8 155.3 29.5 158.7 29.5 C 162.1 29.5 163.5 25.8 163.5 21.9 Z M 181.3 31.6 C 181.3 31.6 181.3 28.92 181.3 28.9 C 180.1 30.6 178.1 32.1 175.7 32.1 C 172.4 32.1 170.9 30.4 170.9 26.9 C 170.86 26.92 170.9 12.3 170.9 12.3 L 173.7 12.3 C 173.7 12.3 173.7 26.08 173.7 26.1 C 173.7 28.6 174.9 29.5 176.8 29.5 C 178.7 29.5 180.5 28.1 181.3 26.5 C 181.3 26.52 181.3 12.3 181.3 12.3 L 184.2 12.3 L 184.2 31.6 L 181.3 31.6 Z M 187.9 29.4 C 187.9 29.4 189.3 27.3 189.3 27.3 C 190.5 28.7 192.3 29.8 194.4 29.8 C 196.6 29.8 198.1 28.5 198.1 26.6 C 198.1 22.1 188.5 23.7 188.5 17 C 188.5 14.1 190.8 11.8 194.6 11.8 C 197.2 11.8 199.1 12.8 200.5 14.3 C 200.5 14.3 199.1 16.2 199.1 16.2 C 198.2 15 196.5 14.1 194.7 14.1 C 192.5 14.1 191.2 15.4 191.2 16.9 C 191.2 21 200.9 19.6 200.9 26.6 C 200.9 29.8 198.4 32.1 194.4 32.1 C 191.7 32.1 189.5 31.2 187.9 29.4 Z M 224.6 31.6 C 224.6 31.6 224.58 28.84 224.6 28.8 C 223.5 30.8 221.5 32.1 219.5 32.1 C 215.2 32.1 212.6 28 212.6 22 C 212.6 16 215.1 11.8 219.5 11.8 C 221.5 11.8 223.4 12.9 224.6 15.1 C 224.58 15.08 224.6 4.9 224.6 4.9 L 227.5 4.9 L 227.5 31.6 L 224.6 31.6 Z M 224.6 26.4 C 224.6 26.4 224.6 17.5 224.6 17.5 C 223.9 15.8 222.1 14.4 220.2 14.4 C 217.1 14.4 215.6 17.8 215.6 22 C 215.6 26.1 217.1 29.5 220.2 29.5 C 222.1 29.5 223.9 28.1 224.6 26.4 Z M 232.2 7.5 C 232.2 6.4 233.1 5.6 234.1 5.6 C 235.2 5.6 236.1 6.4 236.1 7.5 C 236.1 8.6 235.2 9.5 234.1 9.5 C 233.1 9.5 232.2 8.6 232.2 7.5 Z M 232.7 31.6 L 232.7 12.3 L 235.6 12.3 L 235.6 31.6 L 232.7 31.6 Z M 239.3 29.4 C 239.3 29.4 240.7 27.3 240.7 27.3 C 241.9 28.7 243.7 29.8 245.8 29.8 C 248 29.8 249.5 28.5 249.5 26.6 C 249.5 22.1 239.9 23.7 239.9 17 C 239.9 14.1 242.2 11.8 246 11.8 C 248.6 11.8 250.5 12.8 251.9 14.3 C 251.9 14.3 250.5 16.2 250.5 16.2 C 249.6 15 247.9 14.1 246.1 14.1 C 243.9 14.1 242.6 15.4 242.6 16.9 C 242.6 21 252.3 19.6 252.3 26.6 C 252.3 29.8 249.8 32.1 245.8 32.1 C 243.1 32.1 240.9 31.2 239.3 29.4 Z M 266.8 31.6 C 266.8 31.6 266.82 17.8 266.8 17.8 C 266.8 15.2 265.6 14.4 263.7 14.4 C 261.8 14.4 260.1 15.8 259.2 17.4 C 259.18 17.44 259.2 31.6 259.2 31.6 L 256.3 31.6 L 256.3 4.9 L 259.2 4.9 C 259.2 4.9 259.18 15.04 259.2 15 C 260.3 13.4 262.5 11.8 264.8 11.8 C 268.1 11.8 269.7 13.4 269.7 17 C 269.66 16.96 269.7 31.6 269.7 31.6 L 266.8 31.6 Z M 297.8 31.6 L 293.7 16.1 L 289.5 31.6 L 286.6 31.6 L 281.4 12.3 L 284.4 12.3 L 288.2 27.7 L 292.3 12.3 L 295 12.3 L 299.1 27.7 L 302.9 12.3 L 305.9 12.3 L 300.7 31.6 L 297.8 31.6 Z M 319 31.6 C 319 31.6 318.98 29.52 319 29.5 C 317.7 31.3 315.9 32.1 313.9 32.1 C 310.8 32.1 308.1 29.7 308.1 25.6 C 308.1 21.6 310.7 19.3 313.9 19.3 C 315.9 19.3 317.8 20 319 21.8 C 319 21.8 319 18.4 319 18.4 C 319 15.8 317.5 14.3 315 14.3 C 313.2 14.3 311.7 15 310.2 16.6 C 310.2 16.6 308.9 14.6 308.9 14.6 C 310.7 12.7 313 11.8 315.5 11.8 C 319.3 11.8 321.9 13.7 321.9 18.1 C 321.86 18.08 321.9 31.6 321.9 31.6 L 319 31.6 Z M 319 27.6 C 319 27.6 319 23.9 319 23.9 C 318.1 22.2 316.5 21.4 314.8 21.4 C 312.4 21.4 311 23.3 311 25.7 C 311 28.1 312.4 30 314.8 30 C 316.5 30 318.1 29.2 319 27.6 Z M 325.5 29.4 C 325.5 29.4 327 27.3 327 27.3 C 328.1 28.7 329.9 29.8 332 29.8 C 334.3 29.8 335.7 28.5 335.7 26.6 C 335.7 22.1 326.1 23.7 326.1 17 C 326.1 14.1 328.4 11.8 332.3 11.8 C 334.8 11.8 336.8 12.8 338.1 14.3 C 338.1 14.3 336.8 16.2 336.8 16.2 C 335.8 15 334.2 14.1 332.3 14.1 C 330.2 14.1 328.9 15.4 328.9 16.9 C 328.9 21 338.5 19.6 338.5 26.6 C 338.5 29.8 336 32.1 332.1 32.1 C 329.3 32.1 327.1 31.2 325.5 29.4 Z M 350.2 21.9 C 350.2 16.5 352.9 11.8 358.1 11.8 C 363.3 11.8 365.9 16.5 365.9 21.9 C 365.9 27.4 363.3 32.1 358.1 32.1 C 352.9 32.1 350.2 27.4 350.2 21.9 Z M 362.9 21.9 C 362.9 18 361.5 14.4 358.1 14.4 C 354.7 14.4 353.2 18 353.2 21.9 C 353.2 25.8 354.7 29.5 358.1 29.5 C 361.5 29.5 362.9 25.8 362.9 21.9 Z M 380.7 31.6 C 380.7 31.6 380.7 17.84 380.7 17.8 C 380.7 15.3 379.5 14.4 377.6 14.4 C 375.7 14.4 374 15.8 373.1 17.4 C 373.1 17.44 373.1 31.6 373.1 31.6 L 370.3 31.6 L 370.3 12.3 L 373.1 12.3 C 373.1 12.3 373.1 15.04 373.1 15 C 374.2 13.4 376.4 11.8 378.7 11.8 C 382 11.8 383.6 13.6 383.6 17 C 383.58 17.04 383.6 31.6 383.6 31.6 L 380.7 31.6 Z M 387.9 21.9 C 387.9 16.3 390.9 11.8 395.7 11.8 C 400.8 11.8 403.4 16.4 403.4 22 C 403.38 22 403.4 22.9 403.4 22.9 C 403.4 22.9 390.86 22.88 390.9 22.9 C 391 26.8 393 29.7 396.4 29.7 C 398.1 29.7 399.8 28.8 401 27.3 C 401 27.3 402.5 29 402.5 29 C 401 30.9 398.8 32.1 396.2 32.1 C 391 32.1 387.9 27.8 387.9 21.9 Z M 395.7 14.2 C 392.3 14.2 390.9 17.9 390.9 20.8 C 390.9 20.8 400.5 20.8 400.5 20.8 C 400.5 17.8 399.2 14.2 395.7 14.2 Z M 415.2 21.9 C 415.2 16.5 417.9 11.8 423.1 11.8 C 428.3 11.8 430.9 16.5 430.9 21.9 C 430.9 27.4 428.3 32.1 423.1 32.1 C 417.9 32.1 415.2 27.4 415.2 21.9 Z M 427.9 21.9 C 427.9 18 426.5 14.4 423.1 14.4 C 419.7 14.4 418.2 18 418.2 21.9 C 418.2 25.8 419.7 29.5 423.1 29.5 C 426.5 29.5 427.9 25.8 427.9 21.9 Z M 435.9 31.6 L 435.9 14.8 L 433.4 14.8 L 433.4 12.3 L 435.9 12.3 C 435.9 12.3 435.94 9.92 435.9 9.9 C 435.9 6.6 437.8 4.5 440.8 4.5 C 442.1 4.5 443.3 4.9 444.2 5.8 C 444.2 5.8 443.1 7.8 443.1 7.8 C 442.6 7.3 442 7 441.2 7 C 439.6 7 438.8 8 438.8 9.9 C 438.82 9.92 438.8 12.3 438.8 12.3 L 442.1 12.3 L 442.1 14.8 L 438.8 14.8 L 438.8 31.6 L 435.9 31.6 Z " stroke="none" fill="#b13d24"/>  </g></svg>