<?xml version="1.0" standalone="no"?><!DOCTYPE svg PUBLIC "-//W3C//DTD SVG 1.1//EN" "http://www.w3.org/Graphics/SVG/1.1/DTD/svg11.dtd"><svg xmlns="http://www.w3.org/2000/svg" version="1.1" width="219px" height="545.3px" viewBox="0 0 219 545.3">  <desc>170 ml 125 ml 3 ml tsp tsp 15 g 5 drops 2 tsp 10 g 18 ml tsp tsp 3 drops to taste</desc>  <defs/>  <g id="Polygon160046">    <path d="M 2.4 497.8 C 2.4 497.79 2.4 488.1 2.4 488.1 L 0.5 488.1 L 0.5 486.2 L 2.4 486.2 L 2.4 482.3 L 4.6 482.3 L 4.6 486.2 L 7 486.2 L 7 488.1 L 4.6 488.1 C 4.6 488.1 4.56 497.4 4.6 497.4 C 4.6 498.5 4.9 499.1 5.7 499.1 C 6.3 499.1 6.7 498.9 7 498.6 C 7 498.6 7.6 500.2 7.6 500.2 C 7.1 500.7 6.4 501.1 5.3 501.1 C 3.3 501.1 2.4 500 2.4 497.8 Z M 9.1 493.4 C 9.1 489.4 11.2 485.9 15 485.9 C 18.9 485.9 20.9 489.4 20.9 493.4 C 20.9 497.5 18.9 501.1 15 501.1 C 11.2 501.1 9.1 497.5 9.1 493.4 Z M 18.7 493.4 C 18.7 490.5 17.6 487.8 15 487.8 C 12.5 487.8 11.4 490.5 11.4 493.4 C 11.4 496.4 12.5 499.1 15 499.1 C 17.6 499.1 18.7 496.4 18.7 493.4 Z M 31 497.8 C 31.05 497.79 31 488.1 31 488.1 L 29.1 488.1 L 29.1 486.2 L 31 486.2 L 31 482.3 L 33.2 482.3 L 33.2 486.2 L 35.7 486.2 L 35.7 488.1 L 33.2 488.1 C 33.2 488.1 33.21 497.4 33.2 497.4 C 33.2 498.5 33.5 499.1 34.4 499.1 C 34.9 499.1 35.4 498.9 35.6 498.6 C 35.6 498.6 36.3 500.2 36.3 500.2 C 35.8 500.7 35.1 501.1 34 501.1 C 32 501.1 31 500 31 497.8 Z M 46 500.7 C 46 500.7 45.96 499.14 46 499.1 C 45 500.5 43.6 501.1 42.1 501.1 C 39.8 501.1 37.8 499.3 37.8 496.2 C 37.8 493.2 39.8 491.5 42.1 491.5 C 43.6 491.5 45.1 492 46 493.3 C 46 493.3 46 490.8 46 490.8 C 46 488.8 44.9 487.7 43 487.7 C 41.6 487.7 40.5 488.2 39.4 489.5 C 39.4 489.5 38.4 488 38.4 488 C 39.8 486.5 41.5 485.9 43.3 485.9 C 46.2 485.9 48.1 487.3 48.1 490.6 C 48.12 490.56 48.1 500.7 48.1 500.7 L 46 500.7 Z M 46 497.7 C 46 497.7 46 494.9 46 494.9 C 45.3 493.7 44.1 493.1 42.8 493.1 C 41 493.1 40 494.5 40 496.3 C 40 498.1 41 499.5 42.8 499.5 C 44.1 499.5 45.3 498.9 46 497.7 Z M 50.9 499 C 50.9 499 52 497.5 52 497.5 C 52.8 498.5 54.2 499.3 55.7 499.3 C 57.4 499.3 58.5 498.4 58.5 497 C 58.5 493.6 51.3 494.8 51.3 489.8 C 51.3 487.6 53 485.9 55.9 485.9 C 57.8 485.9 59.3 486.6 60.3 487.7 C 60.3 487.7 59.3 489.2 59.3 489.2 C 58.6 488.2 57.4 487.6 55.9 487.6 C 54.4 487.6 53.4 488.5 53.4 489.7 C 53.4 492.8 60.6 491.7 60.6 496.9 C 60.6 499.3 58.7 501.1 55.8 501.1 C 53.7 501.1 52.1 500.4 50.9 499 Z M 64.1 497.8 C 64.08 497.79 64.1 488.1 64.1 488.1 L 62.2 488.1 L 62.2 486.2 L 64.1 486.2 L 64.1 482.3 L 66.2 482.3 L 66.2 486.2 L 68.7 486.2 L 68.7 488.1 L 66.2 488.1 C 66.2 488.1 66.24 497.4 66.2 497.4 C 66.2 498.5 66.6 499.1 67.4 499.1 C 67.9 499.1 68.4 498.9 68.7 498.6 C 68.7 498.6 69.3 500.2 69.3 500.2 C 68.8 500.7 68.1 501.1 67 501.1 C 65 501.1 64.1 500 64.1 497.8 Z M 70.8 493.4 C 70.8 489.2 73 485.9 76.7 485.9 C 80.5 485.9 82.4 489.3 82.4 493.5 C 82.44 493.5 82.4 494.2 82.4 494.2 C 82.4 494.2 73.05 494.16 73 494.2 C 73.1 497.1 74.6 499.3 77.2 499.3 C 78.5 499.3 79.8 498.6 80.7 497.5 C 80.7 497.5 81.8 498.8 81.8 498.8 C 80.6 500.2 79 501.1 77 501.1 C 73.2 501.1 70.8 497.9 70.8 493.4 Z M 76.7 487.7 C 74.1 487.7 73.1 490.4 73 492.6 C 73 492.6 80.3 492.6 80.3 492.6 C 80.3 490.4 79.3 487.7 76.7 487.7 Z " stroke="none" fill="#d0d1d4"/>  </g>  <g id="Polygon160045">    <path d="M 0.9 461.7 C 0.9 461.7 2.4 460.3 2.4 460.3 C 3.4 461.8 4.8 462.9 6.7 462.9 C 9.1 462.9 10.3 461.4 10.3 459.1 C 10.3 456.4 8.6 455.5 6.5 455.5 C 5.9 455.5 5.2 455.5 4.9 455.5 C 4.9 455.5 4.9 453.4 4.9 453.4 C 5.2 453.4 6 453.4 6.5 453.4 C 8.5 453.4 10.1 452.3 10.1 450 C 10.1 447.7 8.7 446.5 6.7 446.5 C 4.9 446.5 3.6 447.5 2.6 448.9 C 2.6 448.9 1.1 447.5 1.1 447.5 C 2.3 445.6 4.3 444.4 6.8 444.4 C 10.1 444.4 12.5 446.2 12.5 449.7 C 12.5 452.2 10.7 453.9 8.9 454.4 C 10.7 454.6 12.8 456.4 12.8 459.3 C 12.8 462.6 10.6 465.1 6.8 465.1 C 4 465.1 1.9 463.6 0.9 461.7 Z M 30.9 464.7 C 30.9 464.7 30.9 462.63 30.9 462.6 C 30.1 464.1 28.6 465.1 27.1 465.1 C 23.8 465.1 21.9 462 21.9 457.5 C 21.9 453 23.8 449.9 27.1 449.9 C 28.6 449.9 30 450.7 30.9 452.3 C 30.9 452.31 30.9 444.7 30.9 444.7 L 33.1 444.7 L 33.1 464.7 L 30.9 464.7 Z M 30.9 460.8 C 30.9 460.8 30.9 454.1 30.9 454.1 C 30.4 452.9 29 451.8 27.6 451.8 C 25.3 451.8 24.1 454.3 24.1 457.5 C 24.1 460.6 25.3 463.1 27.6 463.1 C 29 463.1 30.4 462.1 30.9 460.8 Z M 37 464.7 L 37 450.2 L 39.1 450.2 C 39.1 450.2 39.15 452.52 39.1 452.5 C 40.1 451 41.5 449.9 43.3 449.9 C 43.3 449.9 43.3 452.1 43.3 452.1 C 43 452.1 42.8 452 42.5 452 C 41.2 452 39.7 453.2 39.1 454.4 C 39.15 454.41 39.1 464.7 39.1 464.7 L 37 464.7 Z M 45 457.4 C 45 453.4 47.1 449.9 50.9 449.9 C 54.8 449.9 56.8 453.4 56.8 457.4 C 56.8 461.5 54.8 465.1 50.9 465.1 C 47.1 465.1 45 461.5 45 457.4 Z M 54.6 457.4 C 54.6 454.5 53.5 451.8 50.9 451.8 C 48.4 451.8 47.3 454.5 47.3 457.4 C 47.3 460.4 48.4 463.1 50.9 463.1 C 53.5 463.1 54.6 460.4 54.6 457.4 Z M 62.2 462.6 C 62.19 462.6 62.2 470.2 62.2 470.2 L 60.1 470.2 L 60.1 450.2 L 62.2 450.2 C 62.2 450.2 62.19 452.28 62.2 452.3 C 63 450.8 64.5 449.9 66 449.9 C 69.3 449.9 71.2 452.9 71.2 457.4 C 71.2 462 69.3 465.1 66 465.1 C 64.5 465.1 63.1 464.2 62.2 462.6 Z M 68.9 457.4 C 68.9 454.3 67.8 451.8 65.5 451.8 C 64.1 451.8 62.8 452.9 62.2 454.1 C 62.2 454.1 62.2 460.7 62.2 460.7 C 62.8 462 64.1 463.1 65.5 463.1 C 67.8 463.1 68.9 460.6 68.9 457.4 Z M 73.2 463 C 73.2 463 74.3 461.5 74.3 461.5 C 75.1 462.5 76.5 463.3 78.1 463.3 C 79.8 463.3 80.9 462.4 80.9 461 C 80.9 457.6 73.6 458.8 73.6 453.8 C 73.6 451.6 75.4 449.9 78.3 449.9 C 80.2 449.9 81.7 450.6 82.7 451.7 C 82.7 451.7 81.7 453.2 81.7 453.2 C 80.9 452.2 79.7 451.6 78.3 451.6 C 76.7 451.6 75.7 452.5 75.7 453.7 C 75.7 456.8 82.9 455.7 82.9 460.9 C 82.9 463.3 81.1 465.1 78.1 465.1 C 76.1 465.1 74.4 464.4 73.2 463 Z " stroke="none" fill="#d0d1d4"/>  </g>  <g id="Polygon160044">    <path d="M 3.3 420.7 L 3.3 410.9 L 1.4 412.9 L 0.4 411.9 L 3.5 408.7 L 5.1 408.7 L 5.1 420.7 L 3.3 420.7 Z M 18 425.7 L 18 428.7 L 16.3 428.7 L 16.3 425.7 L 11.2 425.7 L 11.2 424.3 L 15.7 416.7 L 18 416.7 L 18 424.3 L 19.4 424.3 L 19.4 425.7 L 18 425.7 Z M 16.3 418.5 L 12.8 424.3 L 16.3 424.3 L 16.3 418.5 Z M 5 428.7 L 3.5 428.7 L 14 408.7 L 15.5 408.7 L 5 428.7 Z M 29 425.8 C 29.04 425.79 29 416.1 29 416.1 L 27.1 416.1 L 27.1 414.2 L 29 414.2 L 29 410.3 L 31.2 410.3 L 31.2 414.2 L 33.7 414.2 L 33.7 416.1 L 31.2 416.1 C 31.2 416.1 31.2 425.4 31.2 425.4 C 31.2 426.5 31.5 427.1 32.4 427.1 C 32.9 427.1 33.4 426.9 33.6 426.6 C 33.6 426.6 34.3 428.2 34.3 428.2 C 33.8 428.7 33.1 429.1 31.9 429.1 C 30 429.1 29 428 29 425.8 Z M 35.3 427 C 35.3 427 36.4 425.5 36.4 425.5 C 37.3 426.5 38.6 427.3 40.2 427.3 C 41.9 427.3 43 426.4 43 425 C 43 421.6 35.8 422.8 35.8 417.8 C 35.8 415.6 37.5 413.9 40.4 413.9 C 42.3 413.9 43.8 414.6 44.8 415.7 C 44.8 415.7 43.8 417.2 43.8 417.2 C 43 416.2 41.8 415.6 40.4 415.6 C 38.8 415.6 37.8 416.5 37.8 417.7 C 37.8 420.8 45.1 419.7 45.1 424.9 C 45.1 427.3 43.2 429.1 40.2 429.1 C 38.2 429.1 36.5 428.4 35.3 427 Z M 50.2 426.6 C 50.25 426.6 50.2 434.2 50.2 434.2 L 48.1 434.2 L 48.1 414.2 L 50.2 414.2 C 50.2 414.2 50.25 416.28 50.2 416.3 C 51.1 414.8 52.5 413.9 54.1 413.9 C 57.3 413.9 59.2 416.9 59.2 421.4 C 59.2 426 57.3 429.1 54.1 429.1 C 52.6 429.1 51.1 428.2 50.2 426.6 Z M 57 421.4 C 57 418.3 55.9 415.8 53.5 415.8 C 52.2 415.8 50.8 416.9 50.2 418.1 C 50.2 418.1 50.2 424.7 50.2 424.7 C 50.8 426 52.2 427.1 53.5 427.1 C 55.9 427.1 57 424.6 57 421.4 Z M 62.1 427.4 C 62.1 426.5 62.8 425.8 63.7 425.8 C 64.6 425.8 65.3 426.5 65.3 427.4 C 65.3 428.3 64.6 429 63.7 429 C 62.8 429 62.1 428.3 62.1 427.4 Z " stroke="none" fill="#d0d1d4"/>  </g>  <g id="Polygon160043">    <path d="M 3.3 384.7 L 3.3 374.9 L 1.4 376.9 L 0.4 375.9 L 3.5 372.7 L 5.1 372.7 L 5.1 384.7 L 3.3 384.7 Z M 18 389.7 L 18 392.7 L 16.3 392.7 L 16.3 389.7 L 11.2 389.7 L 11.2 388.3 L 15.7 380.7 L 18 380.7 L 18 388.3 L 19.4 388.3 L 19.4 389.7 L 18 389.7 Z M 16.3 382.5 L 12.8 388.3 L 16.3 388.3 L 16.3 382.5 Z M 5 392.7 L 3.5 392.7 L 14 372.7 L 15.5 372.7 L 5 392.7 Z M 29 389.8 C 29.04 389.79 29 380.1 29 380.1 L 27.1 380.1 L 27.1 378.2 L 29 378.2 L 29 374.3 L 31.2 374.3 L 31.2 378.2 L 33.7 378.2 L 33.7 380.1 L 31.2 380.1 C 31.2 380.1 31.2 389.4 31.2 389.4 C 31.2 390.5 31.5 391.1 32.4 391.1 C 32.9 391.1 33.4 390.9 33.6 390.6 C 33.6 390.6 34.3 392.2 34.3 392.2 C 33.8 392.7 33.1 393.1 31.9 393.1 C 30 393.1 29 392 29 389.8 Z M 35.3 391 C 35.3 391 36.4 389.5 36.4 389.5 C 37.3 390.5 38.6 391.3 40.2 391.3 C 41.9 391.3 43 390.4 43 389 C 43 385.6 35.8 386.8 35.8 381.8 C 35.8 379.6 37.5 377.9 40.4 377.9 C 42.3 377.9 43.8 378.6 44.8 379.7 C 44.8 379.7 43.8 381.2 43.8 381.2 C 43 380.2 41.8 379.6 40.4 379.6 C 38.8 379.6 37.8 380.5 37.8 381.7 C 37.8 384.8 45.1 383.7 45.1 388.9 C 45.1 391.3 43.2 393.1 40.2 393.1 C 38.2 393.1 36.5 392.4 35.3 391 Z M 50.2 390.6 C 50.25 390.6 50.2 398.2 50.2 398.2 L 48.1 398.2 L 48.1 378.2 L 50.2 378.2 C 50.2 378.2 50.25 380.28 50.2 380.3 C 51.1 378.8 52.5 377.9 54.1 377.9 C 57.3 377.9 59.2 380.9 59.2 385.4 C 59.2 390 57.3 393.1 54.1 393.1 C 52.6 393.1 51.1 392.2 50.2 390.6 Z M 57 385.4 C 57 382.3 55.9 379.8 53.5 379.8 C 52.2 379.8 50.8 380.9 50.2 382.1 C 50.2 382.1 50.2 388.7 50.2 388.7 C 50.8 390 52.2 391.1 53.5 391.1 C 55.9 391.1 57 388.6 57 385.4 Z M 62.1 391.4 C 62.1 390.5 62.8 389.8 63.7 389.8 C 64.6 389.8 65.3 390.5 65.3 391.4 C 65.3 392.3 64.6 393 63.7 393 C 62.8 393 62.1 392.3 62.1 391.4 Z " stroke="none" fill="#d0d1d4"/>  </g>  <g id="Polygon160042">    <path d="M 5 356.7 L 5 339.8 L 1.9 343.1 L 0.4 341.6 L 5.3 336.7 L 7.3 336.7 L 7.3 356.7 L 5 356.7 Z M 10.8 351.8 C 10.8 349.1 12.8 347.1 14.8 346.4 C 13 345.7 11.1 344 11.1 341.5 C 11.1 338 13.9 336.4 16.7 336.4 C 19.6 336.4 22.4 338 22.4 341.5 C 22.4 344 20.5 345.7 18.7 346.4 C 20.7 347.1 22.7 349.1 22.7 351.8 C 22.7 355.1 20.2 357.1 16.7 357.1 C 13.2 357.1 10.8 355.1 10.8 351.8 Z M 20 341.8 C 20 339.8 18.7 338.5 16.7 338.5 C 14.8 338.5 13.5 339.8 13.5 341.8 C 13.5 344.3 16 345.3 16.7 345.5 C 17.5 345.3 20 344.3 20 341.8 Z M 20.3 351.5 C 20.3 348.8 17.6 347.5 16.7 347.4 C 15.9 347.5 13.2 348.8 13.2 351.5 C 13.2 353.7 14.8 354.9 16.7 354.9 C 18.7 354.9 20.3 353.7 20.3 351.5 Z M 47.1 356.7 C 47.1 356.7 47.1 346.2 47.1 346.2 C 47.1 344.6 46.5 343.8 45.1 343.8 C 43.8 343.8 42.5 344.9 41.9 346.1 C 41.94 346.08 41.9 356.7 41.9 356.7 L 39.8 356.7 C 39.8 356.7 39.78 346.2 39.8 346.2 C 39.8 344.6 39.1 343.8 37.7 343.8 C 36.4 343.8 35.2 344.9 34.6 346.1 C 34.59 346.08 34.6 356.7 34.6 356.7 L 32.5 356.7 L 32.5 342.2 L 34.6 342.2 C 34.6 342.2 34.59 344.28 34.6 344.3 C 35.2 343.2 36.8 341.9 38.5 341.9 C 40.4 341.9 41.5 342.9 41.8 344.4 C 42.5 343.1 44.2 341.9 45.9 341.9 C 48 341.9 49.3 343 49.3 345.6 C 49.26 345.63 49.3 356.7 49.3 356.7 L 47.1 356.7 Z M 53.2 356.7 L 53.2 336.7 L 55.3 336.7 L 55.3 356.7 L 53.2 356.7 Z " stroke="none" fill="#d0d1d4"/>  </g>  <g id="Polygon160041">    <path d="M 5 320.7 L 5 303.8 L 1.9 307.1 L 0.4 305.6 L 5.3 300.7 L 7.3 300.7 L 7.3 320.7 L 5 320.7 Z M 10.9 310.7 C 10.9 305.9 12.4 300.4 17.1 300.4 C 21.8 300.4 23.4 305.9 23.4 310.7 C 23.4 315.5 21.8 321.1 17.1 321.1 C 12.4 321.1 10.9 315.5 10.9 310.7 Z M 21 310.7 C 21 306.8 20.2 302.5 17.1 302.5 C 14.1 302.5 13.3 306.8 13.3 310.7 C 13.3 314.6 14 318.9 17.1 318.9 C 20.2 318.9 21 314.6 21 310.7 Z M 33.1 324.8 C 33.1 324.8 34.1 323.1 34.1 323.1 C 35.1 324.2 36.3 324.8 37.9 324.8 C 39.9 324.8 41.5 323.6 41.5 320.8 C 41.5 320.8 41.5 318.4 41.5 318.4 C 40.7 319.9 39.2 320.9 37.7 320.9 C 34.5 320.9 32.5 317.9 32.5 313.4 C 32.5 308.9 34.4 305.9 37.7 305.9 C 39.2 305.9 40.6 306.7 41.5 308.3 C 41.52 308.31 41.5 306.2 41.5 306.2 L 43.7 306.2 C 43.7 306.2 43.68 320.67 43.7 320.7 C 43.7 325.1 41 326.6 37.9 326.6 C 36 326.6 34.5 326.1 33.1 324.8 Z M 41.5 316.6 C 41.5 316.6 41.5 310.1 41.5 310.1 C 41 308.9 39.6 307.8 38.2 307.8 C 35.9 307.8 34.8 310.3 34.8 313.4 C 34.8 316.5 35.9 319 38.2 319 C 39.6 319 41 317.8 41.5 316.6 Z " stroke="none" fill="#d0d1d4"/>  </g>  <g id="Polygon160040">    <path d="M 1.6 284.7 C 1.6 284.7 1.59 282.75 1.6 282.8 C 8.1 275.2 10.4 272.8 10.4 269.9 C 10.4 267.7 8.9 266.5 7.2 266.5 C 5.3 266.5 3.9 267.5 2.9 269 C 2.9 269 1.4 267.6 1.4 267.6 C 2.7 265.6 4.7 264.4 7.2 264.4 C 10.3 264.4 12.8 266.4 12.8 269.9 C 12.8 273.2 10.3 276.2 5 282.6 C 4.98 282.57 12.9 282.6 12.9 282.6 L 12.9 284.7 L 1.6 284.7 Z M 23.5 281.8 C 23.52 281.79 23.5 272.1 23.5 272.1 L 21.6 272.1 L 21.6 270.2 L 23.5 270.2 L 23.5 266.3 L 25.7 266.3 L 25.7 270.2 L 28.1 270.2 L 28.1 272.1 L 25.7 272.1 C 25.7 272.1 25.68 281.4 25.7 281.4 C 25.7 282.5 26 283.1 26.8 283.1 C 27.4 283.1 27.8 282.9 28.1 282.6 C 28.1 282.6 28.8 284.2 28.8 284.2 C 28.3 284.7 27.5 285.1 26.4 285.1 C 24.4 285.1 23.5 284 23.5 281.8 Z M 29.8 283 C 29.8 283 30.9 281.5 30.9 281.5 C 31.7 282.5 33.1 283.3 34.7 283.3 C 36.4 283.3 37.5 282.4 37.5 281 C 37.5 277.6 30.2 278.8 30.2 273.8 C 30.2 271.6 32 269.9 34.9 269.9 C 36.8 269.9 38.2 270.6 39.3 271.7 C 39.3 271.7 38.2 273.2 38.2 273.2 C 37.5 272.2 36.3 271.6 34.9 271.6 C 33.3 271.6 32.3 272.5 32.3 273.7 C 32.3 276.8 39.5 275.7 39.5 280.9 C 39.5 283.3 37.7 285.1 34.7 285.1 C 32.7 285.1 31 284.4 29.8 283 Z M 44.7 282.6 C 44.73 282.6 44.7 290.2 44.7 290.2 L 42.6 290.2 L 42.6 270.2 L 44.7 270.2 C 44.7 270.2 44.73 272.28 44.7 272.3 C 45.6 270.8 47 269.9 48.5 269.9 C 51.8 269.9 53.7 272.9 53.7 277.4 C 53.7 282 51.8 285.1 48.5 285.1 C 47.1 285.1 45.6 284.2 44.7 282.6 Z M 51.5 277.4 C 51.5 274.3 50.4 271.8 48 271.8 C 46.6 271.8 45.3 272.9 44.7 274.1 C 44.7 274.1 44.7 280.7 44.7 280.7 C 45.3 282 46.6 283.1 48 283.1 C 50.4 283.1 51.5 280.6 51.5 277.4 Z M 56.6 283.4 C 56.6 282.5 57.3 281.8 58.2 281.8 C 59 281.8 59.8 282.5 59.8 283.4 C 59.8 284.3 59 285 58.2 285 C 57.3 285 56.6 284.3 56.6 283.4 Z " stroke="none" fill="#d0d1d4"/>  </g>  <g id="Polygon160039">    <path d="M 1.6 245.8 C 1.6 245.8 3.1 244.4 3.1 244.4 C 4.1 246 5.4 246.9 7.4 246.9 C 9.6 246.9 10.9 244.9 10.9 242.6 C 10.9 239.7 9.6 238.2 7.5 238.2 C 6.1 238.2 5 238.7 3.9 240 C 3.9 240.03 2.1 239.4 2.1 239.4 L 2.1 228.7 L 12.3 228.7 L 12.3 230.8 L 4.5 230.8 C 4.5 230.8 4.5 237.81 4.5 237.8 C 5.3 236.9 6.6 236.1 8.2 236.1 C 11.1 236.1 13.4 238.4 13.4 242.5 C 13.4 246.3 10.9 249.1 7.4 249.1 C 4.5 249.1 2.8 247.8 1.6 245.8 Z M 31.4 248.7 C 31.4 248.7 31.44 246.63 31.4 246.6 C 30.6 248.1 29.2 249.1 27.6 249.1 C 24.4 249.1 22.4 246 22.4 241.5 C 22.4 237 24.4 233.9 27.6 233.9 C 29.1 233.9 30.6 234.7 31.4 236.3 C 31.44 236.31 31.4 228.7 31.4 228.7 L 33.6 228.7 L 33.6 248.7 L 31.4 248.7 Z M 31.4 244.8 C 31.4 244.8 31.4 238.1 31.4 238.1 C 30.9 236.9 29.5 235.8 28.2 235.8 C 25.8 235.8 24.7 238.3 24.7 241.5 C 24.7 244.6 25.8 247.1 28.2 247.1 C 29.5 247.1 30.9 246.1 31.4 244.8 Z M 37.6 248.7 L 37.6 234.2 L 39.7 234.2 C 39.7 234.2 39.69 236.52 39.7 236.5 C 40.6 235 42 233.9 43.8 233.9 C 43.8 233.9 43.8 236.1 43.8 236.1 C 43.6 236.1 43.3 236 43.1 236 C 41.8 236 40.3 237.2 39.7 238.4 C 39.69 238.41 39.7 248.7 39.7 248.7 L 37.6 248.7 Z M 45.6 241.4 C 45.6 237.4 47.6 233.9 51.4 233.9 C 55.3 233.9 57.4 237.4 57.4 241.4 C 57.4 245.5 55.3 249.1 51.4 249.1 C 47.6 249.1 45.6 245.5 45.6 241.4 Z M 55.1 241.4 C 55.1 238.5 54 235.8 51.4 235.8 C 49 235.8 47.8 238.5 47.8 241.4 C 47.8 244.4 49 247.1 51.4 247.1 C 54 247.1 55.1 244.4 55.1 241.4 Z M 62.7 246.6 C 62.73 246.6 62.7 254.2 62.7 254.2 L 60.6 254.2 L 60.6 234.2 L 62.7 234.2 C 62.7 234.2 62.73 236.28 62.7 236.3 C 63.6 234.8 65 233.9 66.5 233.9 C 69.8 233.9 71.7 236.9 71.7 241.4 C 71.7 246 69.8 249.1 66.5 249.1 C 65.1 249.1 63.6 248.2 62.7 246.6 Z M 69.5 241.4 C 69.5 238.3 68.4 235.8 66 235.8 C 64.6 235.8 63.3 236.9 62.7 238.1 C 62.7 238.1 62.7 244.7 62.7 244.7 C 63.3 246 64.6 247.1 66 247.1 C 68.4 247.1 69.5 244.6 69.5 241.4 Z M 73.8 247 C 73.8 247 74.8 245.5 74.8 245.5 C 75.7 246.5 77.1 247.3 78.6 247.3 C 80.3 247.3 81.4 246.4 81.4 245 C 81.4 241.6 74.2 242.8 74.2 237.8 C 74.2 235.6 75.9 233.9 78.8 233.9 C 80.7 233.9 82.2 234.6 83.2 235.7 C 83.2 235.7 82.2 237.2 82.2 237.2 C 81.5 236.2 80.2 235.6 78.8 235.6 C 77.2 235.6 76.3 236.5 76.3 237.7 C 76.3 240.8 83.5 239.7 83.5 244.9 C 83.5 247.3 81.6 249.1 78.7 249.1 C 76.6 249.1 75 248.4 73.8 247 Z " stroke="none" fill="#d0d1d4"/>  </g>  <g id="Polygon160038">    <path d="M 5 212.7 L 5 195.8 L 1.9 199.1 L 0.4 197.6 L 5.3 192.7 L 7.3 192.7 L 7.3 212.7 L 5 212.7 Z M 11 209.8 C 11 209.8 12.6 208.4 12.6 208.4 C 13.6 210 14.9 210.9 16.8 210.9 C 19 210.9 20.4 208.9 20.4 206.6 C 20.4 203.7 19 202.2 17 202.2 C 15.6 202.2 14.5 202.7 13.3 204 C 13.35 204.03 11.6 203.4 11.6 203.4 L 11.6 192.7 L 21.8 192.7 L 21.8 194.8 L 13.9 194.8 C 13.9 194.8 13.95 201.81 13.9 201.8 C 14.7 200.9 16 200.1 17.6 200.1 C 20.5 200.1 22.8 202.4 22.8 206.5 C 22.8 210.3 20.4 213.1 16.9 213.1 C 13.9 213.1 12.2 211.8 11 209.8 Z M 32.5 216.8 C 32.5 216.8 33.5 215.1 33.5 215.1 C 34.4 216.2 35.7 216.8 37.3 216.8 C 39.2 216.8 40.9 215.6 40.9 212.8 C 40.9 212.8 40.9 210.4 40.9 210.4 C 40 211.9 38.6 212.9 37.1 212.9 C 33.8 212.9 31.9 209.9 31.9 205.4 C 31.9 200.9 33.8 197.9 37.1 197.9 C 38.5 197.9 40 198.7 40.9 200.3 C 40.89 200.31 40.9 198.2 40.9 198.2 L 43 198.2 C 43 198.2 43.05 212.67 43 212.7 C 43 217.1 40.3 218.6 37.3 218.6 C 35.4 218.6 33.9 218.1 32.5 216.8 Z M 40.9 208.6 C 40.9 208.6 40.9 202.1 40.9 202.1 C 40.3 200.9 39 199.8 37.6 199.8 C 35.2 199.8 34.1 202.3 34.1 205.4 C 34.1 208.5 35.2 211 37.6 211 C 39 211 40.3 209.8 40.9 208.6 Z " stroke="none" fill="#d0d1d4"/>  </g>  <g id="Polygon160037">    <path d="M 3.3 168.7 L 3.3 158.9 L 1.4 160.9 L 0.4 159.9 L 3.5 156.7 L 5.1 156.7 L 5.1 168.7 L 3.3 168.7 Z M 12.7 176.7 C 12.7 176.7 12.66 175.38 12.7 175.4 C 16.9 171.2 18.4 169.7 18.4 167.9 C 18.4 166.6 17.4 166 16.3 166 C 15.1 166 14.1 166.6 13.6 167.5 C 13.6 167.5 12.5 166.4 12.5 166.4 C 13.4 165.2 14.8 164.5 16.4 164.5 C 18.4 164.5 20.1 165.7 20.1 167.9 C 20.1 170 18.4 171.8 15 175.3 C 15 175.26 20.2 175.3 20.2 175.3 L 20.2 176.7 L 12.7 176.7 Z M 5 176.7 L 3.5 176.7 L 14 156.7 L 15.5 156.7 L 5 176.7 Z M 30.1 173.8 C 30.06 173.79 30.1 164.1 30.1 164.1 L 28.1 164.1 L 28.1 162.2 L 30.1 162.2 L 30.1 158.3 L 32.2 158.3 L 32.2 162.2 L 34.7 162.2 L 34.7 164.1 L 32.2 164.1 C 32.2 164.1 32.22 173.4 32.2 173.4 C 32.2 174.5 32.5 175.1 33.4 175.1 C 33.9 175.1 34.4 174.9 34.6 174.6 C 34.6 174.6 35.3 176.2 35.3 176.2 C 34.8 176.7 34.1 177.1 33 177.1 C 31 177.1 30.1 176 30.1 173.8 Z M 36.4 175 C 36.4 175 37.4 173.5 37.4 173.5 C 38.3 174.5 39.7 175.3 41.2 175.3 C 42.9 175.3 44 174.4 44 173 C 44 169.6 36.8 170.8 36.8 165.8 C 36.8 163.6 38.5 161.9 41.4 161.9 C 43.3 161.9 44.8 162.6 45.8 163.7 C 45.8 163.7 44.8 165.2 44.8 165.2 C 44.1 164.2 42.8 163.6 41.4 163.6 C 39.8 163.6 38.8 164.5 38.8 165.7 C 38.8 168.8 46.1 167.7 46.1 172.9 C 46.1 175.3 44.2 177.1 41.2 177.1 C 39.2 177.1 37.6 176.4 36.4 175 Z M 51.3 174.6 C 51.27 174.6 51.3 182.2 51.3 182.2 L 49.1 182.2 L 49.1 162.2 L 51.3 162.2 C 51.3 162.2 51.27 164.28 51.3 164.3 C 52.1 162.8 53.5 161.9 55.1 161.9 C 58.3 161.9 60.3 164.9 60.3 169.4 C 60.3 174 58.3 177.1 55.1 177.1 C 53.6 177.1 52.2 176.2 51.3 174.6 Z M 58 169.4 C 58 166.3 56.9 163.8 54.5 163.8 C 53.2 163.8 51.8 164.9 51.3 166.1 C 51.3 166.1 51.3 172.7 51.3 172.7 C 51.8 174 53.2 175.1 54.5 175.1 C 56.9 175.1 58 172.6 58 169.4 Z M 63.1 175.4 C 63.1 174.5 63.8 173.8 64.7 173.8 C 65.6 173.8 66.3 174.5 66.3 175.4 C 66.3 176.3 65.6 177 64.7 177 C 63.8 177 63.1 176.3 63.1 175.4 Z " stroke="none" fill="#d0d1d4"/>  </g>  <g id="Polygon160036">    <path d="M 3.3 132.7 L 3.3 122.9 L 1.4 124.9 L 0.4 123.9 L 3.5 120.7 L 5.1 120.7 L 5.1 132.7 L 3.3 132.7 Z M 18 137.7 L 18 140.7 L 16.3 140.7 L 16.3 137.7 L 11.2 137.7 L 11.2 136.3 L 15.7 128.7 L 18 128.7 L 18 136.3 L 19.4 136.3 L 19.4 137.7 L 18 137.7 Z M 16.3 130.5 L 12.8 136.3 L 16.3 136.3 L 16.3 130.5 Z M 5 140.7 L 3.5 140.7 L 14 120.7 L 15.5 120.7 L 5 140.7 Z M 29 137.8 C 29.04 137.79 29 128.1 29 128.1 L 27.1 128.1 L 27.1 126.2 L 29 126.2 L 29 122.3 L 31.2 122.3 L 31.2 126.2 L 33.7 126.2 L 33.7 128.1 L 31.2 128.1 C 31.2 128.1 31.2 137.4 31.2 137.4 C 31.2 138.5 31.5 139.1 32.4 139.1 C 32.9 139.1 33.4 138.9 33.6 138.6 C 33.6 138.6 34.3 140.2 34.3 140.2 C 33.8 140.7 33.1 141.1 31.9 141.1 C 30 141.1 29 140 29 137.8 Z M 35.3 139 C 35.3 139 36.4 137.5 36.4 137.5 C 37.3 138.5 38.6 139.3 40.2 139.3 C 41.9 139.3 43 138.4 43 137 C 43 133.6 35.8 134.8 35.8 129.8 C 35.8 127.6 37.5 125.9 40.4 125.9 C 42.3 125.9 43.8 126.6 44.8 127.7 C 44.8 127.7 43.8 129.2 43.8 129.2 C 43 128.2 41.8 127.6 40.4 127.6 C 38.8 127.6 37.8 128.5 37.8 129.7 C 37.8 132.8 45.1 131.7 45.1 136.9 C 45.1 139.3 43.2 141.1 40.2 141.1 C 38.2 141.1 36.5 140.4 35.3 139 Z M 50.2 138.6 C 50.25 138.6 50.2 146.2 50.2 146.2 L 48.1 146.2 L 48.1 126.2 L 50.2 126.2 C 50.2 126.2 50.25 128.28 50.2 128.3 C 51.1 126.8 52.5 125.9 54.1 125.9 C 57.3 125.9 59.2 128.9 59.2 133.4 C 59.2 138 57.3 141.1 54.1 141.1 C 52.6 141.1 51.1 140.2 50.2 138.6 Z M 57 133.4 C 57 130.3 55.9 127.8 53.5 127.8 C 52.2 127.8 50.8 128.9 50.2 130.1 C 50.2 130.1 50.2 136.7 50.2 136.7 C 50.8 138 52.2 139.1 53.5 139.1 C 55.9 139.1 57 136.6 57 133.4 Z M 62.1 139.4 C 62.1 138.5 62.8 137.8 63.7 137.8 C 64.6 137.8 65.3 138.5 65.3 139.4 C 65.3 140.3 64.6 141 63.7 141 C 62.8 141 62.1 140.3 62.1 139.4 Z " stroke="none" fill="#d0d1d4"/>  </g>  <g id="Polygon160035">    <path d="M 0.9 101.7 C 0.9 101.7 2.4 100.3 2.4 100.3 C 3.4 101.8 4.8 102.9 6.7 102.9 C 9.1 102.9 10.3 101.4 10.3 99.1 C 10.3 96.4 8.6 95.5 6.5 95.5 C 5.9 95.5 5.2 95.5 4.9 95.5 C 4.9 95.5 4.9 93.4 4.9 93.4 C 5.2 93.4 6 93.4 6.5 93.4 C 8.5 93.4 10.1 92.3 10.1 90 C 10.1 87.7 8.7 86.5 6.7 86.5 C 4.9 86.5 3.6 87.5 2.6 88.9 C 2.6 88.9 1.1 87.5 1.1 87.5 C 2.3 85.6 4.3 84.4 6.8 84.4 C 10.1 84.4 12.5 86.2 12.5 89.7 C 12.5 92.2 10.7 93.9 8.9 94.4 C 10.7 94.6 12.8 96.4 12.8 99.3 C 12.8 102.6 10.6 105.1 6.8 105.1 C 4 105.1 1.9 103.6 0.9 101.7 Z M 37.3 104.7 C 37.3 104.7 37.26 94.2 37.3 94.2 C 37.3 92.6 36.6 91.8 35.2 91.8 C 34 91.8 32.7 92.9 32.1 94.1 C 32.1 94.08 32.1 104.7 32.1 104.7 L 29.9 104.7 C 29.9 104.7 29.94 94.2 29.9 94.2 C 29.9 92.6 29.3 91.8 27.9 91.8 C 26.6 91.8 25.4 92.9 24.7 94.1 C 24.75 94.08 24.7 104.7 24.7 104.7 L 22.6 104.7 L 22.6 90.2 L 24.7 90.2 C 24.7 90.2 24.75 92.28 24.7 92.3 C 25.3 91.2 27 89.9 28.7 89.9 C 30.6 89.9 31.7 90.9 32 92.4 C 32.7 91.1 34.3 89.9 36.1 89.9 C 38.2 89.9 39.4 91 39.4 93.6 C 39.42 93.63 39.4 104.7 39.4 104.7 L 37.3 104.7 Z M 43.4 104.7 L 43.4 84.7 L 45.5 84.7 L 45.5 104.7 L 43.4 104.7 Z " stroke="none" fill="#d0d1d4"/>  </g>  <g id="Polygon160034">    <path d="M 5 68.7 L 5 51.8 L 1.9 55.1 L 0.4 53.6 L 5.3 48.7 L 7.3 48.7 L 7.3 68.7 L 5 68.7 Z M 11 68.7 C 11 68.7 11.04 66.75 11 66.8 C 17.6 59.2 19.8 56.8 19.8 53.9 C 19.8 51.7 18.3 50.5 16.6 50.5 C 14.7 50.5 13.3 51.5 12.4 53 C 12.4 53 10.8 51.6 10.8 51.6 C 12.1 49.6 14.1 48.4 16.6 48.4 C 19.7 48.4 22.3 50.4 22.3 53.9 C 22.3 57.2 19.7 60.2 14.4 66.6 C 14.43 66.57 22.3 66.6 22.3 66.6 L 22.3 68.7 L 11 68.7 Z M 25.7 65.8 C 25.7 65.8 27.3 64.4 27.3 64.4 C 28.2 66 29.5 66.9 31.5 66.9 C 33.7 66.9 35.1 64.9 35.1 62.6 C 35.1 59.7 33.7 58.2 31.6 58.2 C 30.2 58.2 29.1 58.7 28 60 C 28.02 60.03 26.2 59.4 26.2 59.4 L 26.2 48.7 L 36.4 48.7 L 36.4 50.8 L 28.6 50.8 C 28.6 50.8 28.62 57.81 28.6 57.8 C 29.4 56.9 30.7 56.1 32.3 56.1 C 35.2 56.1 37.5 58.4 37.5 62.5 C 37.5 66.3 35 69.1 31.6 69.1 C 28.6 69.1 26.9 67.8 25.7 65.8 Z M 61.9 68.7 C 61.9 68.7 61.92 58.2 61.9 58.2 C 61.9 56.6 61.3 55.8 59.9 55.8 C 58.6 55.8 57.3 56.9 56.8 58.1 C 56.76 58.08 56.8 68.7 56.8 68.7 L 54.6 68.7 C 54.6 68.7 54.6 58.2 54.6 58.2 C 54.6 56.6 54 55.8 52.6 55.8 C 51.3 55.8 50 56.9 49.4 58.1 C 49.41 58.08 49.4 68.7 49.4 68.7 L 47.3 68.7 L 47.3 54.2 L 49.4 54.2 C 49.4 54.2 49.41 56.28 49.4 56.3 C 50 55.2 51.6 53.9 53.4 53.9 C 55.2 53.9 56.4 54.9 56.6 56.4 C 57.4 55.1 59 53.9 60.7 53.9 C 62.8 53.9 64.1 55 64.1 57.6 C 64.08 57.63 64.1 68.7 64.1 68.7 L 61.9 68.7 Z M 68 68.7 L 68 48.7 L 70.2 48.7 L 70.2 68.7 L 68 68.7 Z " stroke="none" fill="#d0d1d4"/>  </g>  <g id="Polygon160033">    <path d="M 5 32.7 L 5 15.8 L 1.9 19.1 L 0.4 17.6 L 5.3 12.7 L 7.3 12.7 L 7.3 32.7 L 5 32.7 Z M 12.4 32.7 L 18.7 14.8 L 10.2 14.8 L 10.2 12.7 L 21.4 12.7 L 21.4 14.3 L 15 32.7 L 12.4 32.7 Z M 23.5 22.7 C 23.5 17.9 25.1 12.4 29.8 12.4 C 34.5 12.4 36.1 17.9 36.1 22.7 C 36.1 27.5 34.5 33.1 29.8 33.1 C 25.1 33.1 23.5 27.5 23.5 22.7 Z M 33.6 22.7 C 33.6 18.8 32.9 14.5 29.8 14.5 C 26.7 14.5 26 18.8 26 22.7 C 26 26.6 26.7 30.9 29.8 30.9 C 32.9 30.9 33.6 26.6 33.6 22.7 Z M 60.5 32.7 C 60.5 32.7 60.54 22.2 60.5 22.2 C 60.5 20.6 59.9 19.8 58.5 19.8 C 57.2 19.8 55.9 20.9 55.4 22.1 C 55.38 22.08 55.4 32.7 55.4 32.7 L 53.2 32.7 C 53.2 32.7 53.22 22.2 53.2 22.2 C 53.2 20.6 52.6 19.8 51.2 19.8 C 49.9 19.8 48.7 20.9 48 22.1 C 48.03 22.08 48 32.7 48 32.7 L 45.9 32.7 L 45.9 18.2 L 48 18.2 C 48 18.2 48.03 20.28 48 20.3 C 48.6 19.2 50.2 17.9 52 17.9 C 53.8 17.9 55 18.9 55.3 20.4 C 56 19.1 57.6 17.9 59.3 17.9 C 61.5 17.9 62.7 19 62.7 21.6 C 62.7 21.63 62.7 32.7 62.7 32.7 L 60.5 32.7 Z M 66.7 32.7 L 66.7 12.7 L 68.8 12.7 L 68.8 32.7 L 66.7 32.7 Z " stroke="none" fill="#d0d1d4"/>  </g></svg>