<?xml version="1.0" standalone="no"?><!DOCTYPE svg PUBLIC "-//W3C//DTD SVG 1.1//EN" "http://www.w3.org/Graphics/SVG/1.1/DTD/svg11.dtd"><svg xmlns="http://www.w3.org/2000/svg" version="1.1" width="191px" height="44.3px" viewBox="0 0 191 44.3">  <desc>28 hrs 45 mins</desc>  <defs/>  <g id="Polygon198824">    <path d="M 10.1 23.7 C 10.1 23.7 10.09 20.46 10.1 20.5 C 17.4 13.3 18.9 11.8 18.9 9.5 C 18.9 7.9 17.8 7 16.3 7 C 14.5 7 13.1 7.8 12 9.2 C 12 9.2 9.6 6.7 9.6 6.7 C 11.2 4.5 13.6 3.4 16.3 3.4 C 20.2 3.4 23 5.7 23 9.4 C 23 12.5 21 15.1 16 20.2 C 16.03 20.16 23.1 20.2 23.1 20.2 L 23.1 23.7 L 10.1 23.7 Z M 25.4 18.6 C 25.4 16.2 27.1 14.2 29.2 13.4 C 27.3 12.7 25.6 11.1 25.6 8.6 C 25.6 4.9 29 3.4 32.3 3.4 C 35.5 3.4 38.9 4.9 38.9 8.6 C 38.9 11.1 37.2 12.7 35.3 13.4 C 37.4 14.2 39.2 16.2 39.2 18.6 C 39.2 22.1 36.2 24.1 32.3 24.1 C 28.3 24.1 25.4 22.1 25.4 18.6 Z M 34.8 9.3 C 34.8 7.8 33.8 6.9 32.3 6.9 C 30.7 6.9 29.7 7.8 29.7 9.3 C 29.7 11 31.5 11.8 32.3 11.9 C 33 11.8 34.8 11 34.8 9.3 Z M 35.1 18.1 C 35.1 16.1 33.1 15.1 32.3 15 C 31.4 15.1 29.4 16.1 29.4 18.1 C 29.4 19.6 30.6 20.5 32.3 20.5 C 33.8 20.5 35.1 19.6 35.1 18.1 Z M 56.2 23.7 C 56.2 23.7 56.17 14.1 56.2 14.1 C 56.2 12.6 55.5 12 54.3 12 C 53.1 12 52.1 13 51.6 13.8 C 51.64 13.83 51.6 23.7 51.6 23.7 L 48 23.7 L 48 3.7 L 51.6 3.7 C 51.6 3.7 51.64 11.1 51.6 11.1 C 52.4 10 54 8.8 55.9 8.8 C 58.6 8.8 59.8 10.3 59.8 12.7 C 59.77 12.75 59.8 23.7 59.8 23.7 L 56.2 23.7 Z M 63 23.7 L 63 9.2 L 66.6 9.2 C 66.6 9.2 66.61 11.19 66.6 11.2 C 67.4 9.9 69 8.8 70.6 8.8 C 70.6 8.8 70.6 12.4 70.6 12.4 C 70.3 12.3 70 12.3 69.7 12.3 C 68.6 12.3 67.2 13 66.6 14 C 66.61 14.04 66.6 23.7 66.6 23.7 L 63 23.7 Z M 71.5 22 C 71.5 22 73 19.5 73 19.5 C 73.9 20.4 75.6 21.2 77 21.2 C 78.4 21.2 79.2 20.6 79.2 19.7 C 79.2 17.3 72 18.6 72 13.2 C 72 10.9 73.9 8.8 77.3 8.8 C 79.3 8.8 81 9.6 82.3 10.7 C 82.3 10.7 80.9 13.1 80.9 13.1 C 80.1 12.3 78.8 11.6 77.3 11.6 C 76.2 11.6 75.4 12.2 75.4 13 C 75.4 15.2 82.6 14.1 82.6 19.6 C 82.6 22.2 80.5 24.1 77.1 24.1 C 74.7 24.1 72.7 23.3 71.5 22 Z M 98.4 23.7 L 98.4 19.4 L 90.3 19.4 L 90.3 16.1 L 97.3 3.7 L 102.4 3.7 L 102.4 15.9 L 104.4 15.9 L 104.4 19.4 L 102.4 19.4 L 102.4 23.7 L 98.4 23.7 Z M 98.4 7.8 L 93.9 15.9 L 98.4 15.9 L 98.4 7.8 Z M 106.2 20.9 C 106.2 20.9 108.6 18.3 108.6 18.3 C 109.7 19.7 111.1 20.5 112.8 20.5 C 114.7 20.5 115.8 19 115.8 17.3 C 115.8 15.4 114.8 14.2 113 14.2 C 111.6 14.2 110.6 14.7 109.7 15.8 C 109.69 15.84 106.8 15.1 106.8 15.1 L 106.8 3.7 L 118.8 3.7 L 118.8 7.2 L 110.8 7.2 C 110.8 7.2 110.8 12.36 110.8 12.4 C 111.6 11.4 112.9 10.7 114.5 10.7 C 117.5 10.7 119.9 13.1 119.9 17.2 C 119.9 21.2 117.2 24.1 112.9 24.1 C 109.8 24.1 107.7 22.9 106.2 20.9 Z M 144.3 23.7 C 144.3 23.7 144.28 13.95 144.3 13.9 C 144.3 12.7 143.8 12 142.6 12 C 141.5 12 140.6 13 140.1 13.8 C 140.14 13.83 140.1 23.7 140.1 23.7 L 136.5 23.7 C 136.5 23.7 136.54 13.95 136.5 13.9 C 136.5 12.8 136.1 12 134.9 12 C 133.8 12 132.9 13 132.4 13.8 C 132.4 13.83 132.4 23.7 132.4 23.7 L 128.8 23.7 L 128.8 9.2 L 132.4 9.2 C 132.4 9.2 132.4 11.1 132.4 11.1 C 133 10.1 134.7 8.8 136.5 8.8 C 138.3 8.8 139.6 9.7 140 11.4 C 140.7 10.1 142.4 8.8 144.2 8.8 C 146.4 8.8 147.9 10 147.9 12.7 C 147.88 12.69 147.9 23.7 147.9 23.7 L 144.3 23.7 Z M 150.8 5.4 C 150.8 4.2 151.8 3.2 152.9 3.2 C 154.1 3.2 155.1 4.2 155.1 5.4 C 155.1 6.6 154.1 7.6 152.9 7.6 C 151.8 7.6 150.8 6.6 150.8 5.4 Z M 151.1 23.7 L 151.1 9.2 L 154.7 9.2 L 154.7 23.7 L 151.1 23.7 Z M 166.1 23.7 C 166.1 23.7 166.09 14.16 166.1 14.2 C 166.1 12.6 165.4 12 164.2 12 C 163 12 162.1 13 161.6 13.8 C 161.56 13.83 161.6 23.7 161.6 23.7 L 158 23.7 L 158 9.2 L 161.6 9.2 C 161.6 9.2 161.56 11.1 161.6 11.1 C 162.3 10 164 8.8 165.8 8.8 C 168.5 8.8 169.7 10.4 169.7 12.8 C 169.69 12.81 169.7 23.7 169.7 23.7 L 166.1 23.7 Z M 171.9 22 C 171.9 22 173.4 19.5 173.4 19.5 C 174.3 20.4 175.9 21.2 177.4 21.2 C 178.8 21.2 179.5 20.6 179.5 19.7 C 179.5 17.3 172.3 18.6 172.3 13.2 C 172.3 10.9 174.2 8.8 177.6 8.8 C 179.7 8.8 181.4 9.6 182.7 10.7 C 182.7 10.7 181.2 13.1 181.2 13.1 C 180.5 12.3 179.1 11.6 177.7 11.6 C 176.5 11.6 175.8 12.2 175.8 13 C 175.8 15.2 183 14.1 183 19.6 C 183 22.2 180.8 24.1 177.4 24.1 C 175.1 24.1 173.1 23.3 171.9 22 Z " stroke="none" fill="#d3d2d2"/>  </g></svg>