<?xml version="1.0" standalone="no"?><!DOCTYPE svg PUBLIC "-//W3C//DTD SVG 1.1//EN" "http://www.w3.org/Graphics/SVG/1.1/DTD/svg11.dtd"><svg xmlns="http://www.w3.org/2000/svg" version="1.1" width="486px" height="189.4px" viewBox="0 0 486 189.4">  <desc>A spicy and highly savoury dish, eating it was considered a skill not everyone had, even back in the days</desc>  <defs/>  <g id="Polygon189612">    <path d="M 5.2 159.7 C 5.18 159.72 5.2 146.8 5.2 146.8 L 2.6 146.8 L 2.6 144.3 L 5.2 144.3 L 5.2 139 L 8.1 139 L 8.1 144.3 L 11.3 144.3 L 11.3 146.8 L 8.1 146.8 C 8.1 146.8 8.06 159.2 8.1 159.2 C 8.1 160.7 8.5 161.5 9.6 161.5 C 10.3 161.5 10.9 161.2 11.3 160.8 C 11.3 160.8 12.2 162.9 12.2 162.9 C 11.5 163.6 10.5 164.1 9.1 164.1 C 6.4 164.1 5.2 162.6 5.2 159.7 Z M 25.6 163.6 C 25.6 163.6 25.62 149.8 25.6 149.8 C 25.6 147.2 24.4 146.4 22.5 146.4 C 20.6 146.4 18.9 147.8 18 149.4 C 17.98 149.44 18 163.6 18 163.6 L 15.1 163.6 L 15.1 136.9 L 18 136.9 C 18 136.9 17.98 147.04 18 147 C 19.1 145.4 21.3 143.8 23.6 143.8 C 26.9 143.8 28.5 145.4 28.5 149 C 28.46 148.96 28.5 163.6 28.5 163.6 L 25.6 163.6 Z M 32.8 153.9 C 32.8 148.3 35.7 143.8 40.6 143.8 C 45.7 143.8 48.3 148.4 48.3 154 C 48.26 154 48.3 154.9 48.3 154.9 C 48.3 154.9 35.74 154.88 35.7 154.9 C 35.9 158.8 37.9 161.7 41.3 161.7 C 43 161.7 44.7 160.8 45.9 159.3 C 45.9 159.3 47.4 161 47.4 161 C 45.9 162.9 43.7 164.1 41.1 164.1 C 35.9 164.1 32.8 159.8 32.8 153.9 Z M 40.6 146.2 C 37.2 146.2 35.8 149.9 35.7 152.8 C 35.7 152.8 45.4 152.8 45.4 152.8 C 45.4 149.8 44.1 146.2 40.6 146.2 Z M 72.1 163.6 C 72.1 163.6 72.1 160.84 72.1 160.8 C 71 162.8 69.1 164.1 67 164.1 C 62.7 164.1 60.1 160 60.1 154 C 60.1 148 62.7 143.8 67 143.8 C 69 143.8 70.9 144.9 72.1 147.1 C 72.1 147.08 72.1 136.9 72.1 136.9 L 75 136.9 L 75 163.6 L 72.1 163.6 Z M 72.1 158.4 C 72.1 158.4 72.1 149.5 72.1 149.5 C 71.4 147.8 69.6 146.4 67.7 146.4 C 64.6 146.4 63.1 149.8 63.1 154 C 63.1 158.1 64.6 161.5 67.7 161.5 C 69.6 161.5 71.4 160.1 72.1 158.4 Z M 90.2 163.6 C 90.2 163.6 90.18 161.52 90.2 161.5 C 88.9 163.3 87.1 164.1 85.1 164.1 C 82 164.1 79.3 161.7 79.3 157.6 C 79.3 153.6 81.9 151.3 85.1 151.3 C 87.1 151.3 89 152 90.2 153.8 C 90.2 153.8 90.2 150.4 90.2 150.4 C 90.2 147.8 88.7 146.3 86.2 146.3 C 84.4 146.3 82.9 147 81.4 148.6 C 81.4 148.6 80.1 146.6 80.1 146.6 C 81.9 144.7 84.2 143.8 86.7 143.8 C 90.5 143.8 93.1 145.7 93.1 150.1 C 93.06 150.08 93.1 163.6 93.1 163.6 L 90.2 163.6 Z M 90.2 159.6 C 90.2 159.6 90.2 155.9 90.2 155.9 C 89.3 154.2 87.7 153.4 86 153.4 C 83.6 153.4 82.2 155.3 82.2 157.7 C 82.2 160.1 83.6 162 86 162 C 87.7 162 89.3 161.2 90.2 159.6 Z M 97.7 168.6 C 98.1 168.8 98.7 168.9 99 168.9 C 100.1 168.9 100.8 168.4 101.3 167 C 101.3 166.96 102.3 164 102.3 164 L 95.9 144.3 L 99 144.3 L 103.8 160.1 L 108.7 144.3 L 111.7 144.3 C 111.7 144.3 104.02 167.68 104 167.7 C 103.1 170.5 101.5 171.4 99.2 171.4 C 98.6 171.4 97.7 171.3 97.3 171.2 C 97.3 171.2 97.7 168.6 97.7 168.6 Z M 113.1 161.4 C 113.1 161.4 114.5 159.3 114.5 159.3 C 115.6 160.7 117.5 161.8 119.5 161.8 C 121.8 161.8 123.3 160.5 123.3 158.6 C 123.3 154.1 113.6 155.7 113.6 149 C 113.6 146.1 115.9 143.8 119.8 143.8 C 122.3 143.8 124.3 144.8 125.7 146.3 C 125.7 146.3 124.3 148.2 124.3 148.2 C 123.3 147 121.7 146.1 119.8 146.1 C 117.7 146.1 116.4 147.4 116.4 148.9 C 116.4 153 126 151.6 126 158.6 C 126 161.8 123.5 164.1 119.6 164.1 C 116.9 164.1 114.7 163.2 113.1 161.4 Z M 129.9 161.8 C 129.9 160.7 130.9 159.7 132 159.7 C 133.2 159.7 134.2 160.7 134.2 161.8 C 134.2 163 133.2 164 132 164 C 130.9 164 129.9 163 129.9 161.8 Z " stroke="none" fill="#b13d24"/>  </g>  <g id="Polygon189611">    <path d="M 15.1 119.6 C 15.1 119.6 15.06 105.84 15.1 105.8 C 15.1 103.3 13.9 102.4 12 102.4 C 10.1 102.4 8.3 103.8 7.5 105.4 C 7.46 105.44 7.5 119.6 7.5 119.6 L 4.6 119.6 L 4.6 100.3 L 7.5 100.3 C 7.5 100.3 7.46 103.04 7.5 103 C 8.6 101.4 10.7 99.8 13.1 99.8 C 16.3 99.8 17.9 101.6 17.9 105 C 17.94 105.04 17.9 119.6 17.9 119.6 L 15.1 119.6 Z M 22.3 109.9 C 22.3 104.5 25 99.8 30.1 99.8 C 35.3 99.8 38 104.5 38 109.9 C 38 115.4 35.3 120.1 30.1 120.1 C 25 120.1 22.3 115.4 22.3 109.9 Z M 35 109.9 C 35 106 33.5 102.4 30.1 102.4 C 26.8 102.4 25.3 106 25.3 109.9 C 25.3 113.8 26.8 117.5 30.1 117.5 C 33.5 117.5 35 113.8 35 109.9 Z M 42.9 115.7 C 42.86 115.72 42.9 102.8 42.9 102.8 L 40.3 102.8 L 40.3 100.3 L 42.9 100.3 L 42.9 95 L 45.7 95 L 45.7 100.3 L 49 100.3 L 49 102.8 L 45.7 102.8 C 45.7 102.8 45.74 115.2 45.7 115.2 C 45.7 116.7 46.2 117.5 47.3 117.5 C 48 117.5 48.6 117.2 49 116.8 C 49 116.8 49.9 118.9 49.9 118.9 C 49.2 119.6 48.2 120.1 46.7 120.1 C 44.1 120.1 42.9 118.6 42.9 115.7 Z M 60.5 109.9 C 60.5 104.3 63.4 99.8 68.3 99.8 C 73.4 99.8 75.9 104.4 75.9 110 C 75.94 110 75.9 110.9 75.9 110.9 C 75.9 110.9 63.42 110.88 63.4 110.9 C 63.5 114.8 65.5 117.7 69 117.7 C 70.7 117.7 72.4 116.8 73.6 115.3 C 73.6 115.3 75.1 117 75.1 117 C 73.5 118.9 71.3 120.1 68.7 120.1 C 63.6 120.1 60.5 115.8 60.5 109.9 Z M 68.3 102.2 C 64.9 102.2 63.5 105.9 63.4 108.8 C 63.4 108.8 73.1 108.8 73.1 108.8 C 73.1 105.8 71.8 102.2 68.3 102.2 Z M 84.1 119.6 L 77.7 100.3 L 80.9 100.3 L 85.7 116.2 L 90.5 100.3 L 93.6 100.3 L 87.2 119.6 L 84.1 119.6 Z M 95.5 109.9 C 95.5 104.3 98.5 99.8 103.3 99.8 C 108.4 99.8 111 104.4 111 110 C 110.98 110 111 110.9 111 110.9 C 111 110.9 98.46 110.88 98.5 110.9 C 98.6 114.8 100.6 117.7 104 117.7 C 105.7 117.7 107.4 116.8 108.6 115.3 C 108.6 115.3 110.1 117 110.1 117 C 108.6 118.9 106.4 120.1 103.8 120.1 C 98.6 120.1 95.5 115.8 95.5 109.9 Z M 103.3 102.2 C 99.9 102.2 98.5 105.9 98.5 108.8 C 98.5 108.8 108.1 108.8 108.1 108.8 C 108.1 105.8 106.8 102.2 103.3 102.2 Z M 115.2 119.6 L 115.2 100.3 L 118 100.3 C 118 100.3 118.02 103.36 118 103.4 C 119.3 101.3 121.1 99.9 123.5 99.9 C 123.5 99.9 123.5 102.8 123.5 102.8 C 123.2 102.8 122.9 102.7 122.5 102.7 C 120.8 102.7 118.8 104.3 118 105.9 C 118.02 105.88 118 119.6 118 119.6 L 115.2 119.6 Z M 126.3 124.6 C 126.6 124.8 127.2 124.9 127.5 124.9 C 128.7 124.9 129.3 124.4 129.8 123 C 129.82 122.96 130.9 120 130.9 120 L 124.4 100.3 L 127.5 100.3 L 132.3 116.1 L 137.2 100.3 L 140.3 100.3 C 140.3 100.3 132.54 123.68 132.5 123.7 C 131.6 126.5 130 127.4 127.7 127.4 C 127.1 127.4 126.3 127.3 125.8 127.2 C 125.8 127.2 126.3 124.6 126.3 124.6 Z M 142.2 109.9 C 142.2 104.5 144.9 99.8 150 99.8 C 155.2 99.8 157.9 104.5 157.9 109.9 C 157.9 115.4 155.2 120.1 150 120.1 C 144.9 120.1 142.2 115.4 142.2 109.9 Z M 154.9 109.9 C 154.9 106 153.4 102.4 150 102.4 C 146.7 102.4 145.2 106 145.2 109.9 C 145.2 113.8 146.7 117.5 150 117.5 C 153.4 117.5 154.9 113.8 154.9 109.9 Z M 172.7 119.6 C 172.7 119.6 172.66 105.84 172.7 105.8 C 172.7 103.3 171.5 102.4 169.6 102.4 C 167.7 102.4 165.9 103.8 165.1 105.4 C 165.06 105.44 165.1 119.6 165.1 119.6 L 162.2 119.6 L 162.2 100.3 L 165.1 100.3 C 165.1 100.3 165.06 103.04 165.1 103 C 166.2 101.4 168.3 99.8 170.7 99.8 C 173.9 99.8 175.5 101.6 175.5 105 C 175.54 105.04 175.5 119.6 175.5 119.6 L 172.7 119.6 Z M 179.9 109.9 C 179.9 104.3 182.8 99.8 187.7 99.8 C 192.8 99.8 195.3 104.4 195.3 110 C 195.34 110 195.3 110.9 195.3 110.9 C 195.3 110.9 182.82 110.88 182.8 110.9 C 182.9 114.8 184.9 117.7 188.4 117.7 C 190.1 117.7 191.8 116.8 193 115.3 C 193 115.3 194.5 117 194.5 117 C 192.9 118.9 190.7 120.1 188.1 120.1 C 183 120.1 179.9 115.8 179.9 109.9 Z M 187.7 102.2 C 184.3 102.2 182.9 105.9 182.8 108.8 C 182.8 108.8 192.5 108.8 192.5 108.8 C 192.5 105.8 191.2 102.2 187.7 102.2 Z M 218.6 119.6 C 218.6 119.6 218.62 105.8 218.6 105.8 C 218.6 103.2 217.4 102.4 215.5 102.4 C 213.6 102.4 211.9 103.8 211 105.4 C 210.98 105.44 211 119.6 211 119.6 L 208.1 119.6 L 208.1 92.9 L 211 92.9 C 211 92.9 210.98 103.04 211 103 C 212.1 101.4 214.3 99.8 216.6 99.8 C 219.9 99.8 221.5 101.4 221.5 105 C 221.46 104.96 221.5 119.6 221.5 119.6 L 218.6 119.6 Z M 236.7 119.6 C 236.7 119.6 236.66 117.52 236.7 117.5 C 235.4 119.3 233.5 120.1 231.6 120.1 C 228.5 120.1 225.7 117.7 225.7 113.6 C 225.7 109.6 228.4 107.3 231.6 107.3 C 233.5 107.3 235.5 108 236.7 109.8 C 236.7 109.8 236.7 106.4 236.7 106.4 C 236.7 103.8 235.2 102.3 232.7 102.3 C 230.9 102.3 229.3 103 227.9 104.6 C 227.9 104.6 226.6 102.6 226.6 102.6 C 228.4 100.7 230.7 99.8 233.1 99.8 C 237 99.8 239.5 101.7 239.5 106.1 C 239.54 106.08 239.5 119.6 239.5 119.6 L 236.7 119.6 Z M 236.7 115.6 C 236.7 115.6 236.7 111.9 236.7 111.9 C 235.8 110.2 234.2 109.4 232.5 109.4 C 230.1 109.4 228.7 111.3 228.7 113.7 C 228.7 116.1 230.1 118 232.5 118 C 234.2 118 235.8 117.2 236.7 115.6 Z M 255.8 119.6 C 255.8 119.6 255.82 116.84 255.8 116.8 C 254.7 118.8 252.8 120.1 250.7 120.1 C 246.4 120.1 243.8 116 243.8 110 C 243.8 104 246.4 99.8 250.7 99.8 C 252.7 99.8 254.7 100.9 255.8 103.1 C 255.82 103.08 255.8 92.9 255.8 92.9 L 258.7 92.9 L 258.7 119.6 L 255.8 119.6 Z M 255.8 114.4 C 255.8 114.4 255.8 105.5 255.8 105.5 C 255.1 103.8 253.3 102.4 251.5 102.4 C 248.3 102.4 246.8 105.8 246.8 110 C 246.8 114.1 248.3 117.5 251.5 117.5 C 253.3 117.5 255.1 116.1 255.8 114.4 Z M 265.1 124.6 C 265.1 124.6 263.6 123.5 263.6 123.5 C 264.9 122.6 266 121 266.2 119.8 C 266.1 119.8 265.8 119.8 265.7 119.8 C 264.6 119.8 263.8 119 263.8 117.8 C 263.8 116.7 264.7 115.7 265.9 115.7 C 267.1 115.7 268.3 116.8 268.3 118.7 C 268.3 121.1 266.9 123.4 265.1 124.6 Z M 280.7 109.9 C 280.7 104.3 283.7 99.8 288.6 99.8 C 293.7 99.8 296.2 104.4 296.2 110 C 296.22 110 296.2 110.9 296.2 110.9 C 296.2 110.9 283.7 110.88 283.7 110.9 C 283.8 114.8 285.8 117.7 289.3 117.7 C 290.9 117.7 292.7 116.8 293.9 115.3 C 293.9 115.3 295.4 117 295.4 117 C 293.8 118.9 291.6 120.1 289 120.1 C 283.9 120.1 280.7 115.8 280.7 109.9 Z M 288.5 102.2 C 285.1 102.2 283.8 105.9 283.7 108.8 C 283.7 108.8 293.4 108.8 293.4 108.8 C 293.3 105.8 292.1 102.2 288.5 102.2 Z M 304.3 119.6 L 298 100.3 L 301.1 100.3 L 305.9 116.2 L 310.8 100.3 L 313.9 100.3 L 307.5 119.6 L 304.3 119.6 Z M 315.8 109.9 C 315.8 104.3 318.7 99.8 323.6 99.8 C 328.7 99.8 331.3 104.4 331.3 110 C 331.26 110 331.3 110.9 331.3 110.9 C 331.3 110.9 318.74 110.88 318.7 110.9 C 318.9 114.8 320.9 117.7 324.3 117.7 C 326 117.7 327.7 116.8 328.9 115.3 C 328.9 115.3 330.4 117 330.4 117 C 328.9 118.9 326.7 120.1 324.1 120.1 C 318.9 120.1 315.8 115.8 315.8 109.9 Z M 323.6 102.2 C 320.2 102.2 318.8 105.9 318.7 108.8 C 318.7 108.8 328.4 108.8 328.4 108.8 C 328.4 105.8 327.1 102.2 323.6 102.2 Z M 345.9 119.6 C 345.9 119.6 345.9 105.84 345.9 105.8 C 345.9 103.3 344.7 102.4 342.8 102.4 C 340.9 102.4 339.2 103.8 338.3 105.4 C 338.3 105.44 338.3 119.6 338.3 119.6 L 335.5 119.6 L 335.5 100.3 L 338.3 100.3 C 338.3 100.3 338.3 103.04 338.3 103 C 339.4 101.4 341.6 99.8 343.9 99.8 C 347.2 99.8 348.8 101.6 348.8 105 C 348.78 105.04 348.8 119.6 348.8 119.6 L 345.9 119.6 Z M 369.9 117.5 C 373 117.5 374.5 114.1 374.5 110 C 374.5 105.8 373 102.4 369.9 102.4 C 368.1 102.4 366.3 103.9 365.5 105.6 C 365.5 105.6 365.5 114.4 365.5 114.4 C 366.3 116.1 368.1 117.5 369.9 117.5 Z M 362.7 119.6 L 362.7 92.9 L 365.5 92.9 C 365.5 92.9 365.5 103.08 365.5 103.1 C 366.7 100.9 368.6 99.8 370.6 99.8 C 374.9 99.8 377.5 104 377.5 110 C 377.5 116 374.9 120.1 370.6 120.1 C 368.5 120.1 366.6 118.8 365.5 116.8 C 365.5 116.84 365.5 119.6 365.5 119.6 L 362.7 119.6 Z M 391.8 119.6 C 391.8 119.6 391.78 117.52 391.8 117.5 C 390.5 119.3 388.7 120.1 386.7 120.1 C 383.6 120.1 380.9 117.7 380.9 113.6 C 380.9 109.6 383.5 107.3 386.7 107.3 C 388.7 107.3 390.6 108 391.8 109.8 C 391.8 109.8 391.8 106.4 391.8 106.4 C 391.8 103.8 390.3 102.3 387.8 102.3 C 386 102.3 384.5 103 383 104.6 C 383 104.6 381.7 102.6 381.7 102.6 C 383.5 100.7 385.8 99.8 388.3 99.8 C 392.1 99.8 394.7 101.7 394.7 106.1 C 394.66 106.08 394.7 119.6 394.7 119.6 L 391.8 119.6 Z M 391.8 115.6 C 391.8 115.6 391.8 111.9 391.8 111.9 C 390.9 110.2 389.3 109.4 387.6 109.4 C 385.2 109.4 383.8 111.3 383.8 113.7 C 383.8 116.1 385.2 118 387.6 118 C 389.3 118 390.9 117.2 391.8 115.6 Z M 398.9 109.9 C 398.9 104.2 402 99.8 406.9 99.8 C 409.6 99.8 411.3 100.9 412.5 102.4 C 412.5 102.4 410.9 104.3 410.9 104.3 C 409.9 102.9 408.7 102.4 407.2 102.4 C 403.7 102.4 401.9 105.8 401.9 109.9 C 401.9 114 403.7 117.5 407.2 117.5 C 408.7 117.5 409.9 116.9 410.9 115.6 C 410.9 115.6 412.5 117.5 412.5 117.5 C 411.3 119 409.6 120.1 406.9 120.1 C 402 120.1 398.9 115.6 398.9 109.9 Z M 427 119.6 L 421.7 110.9 L 419 114.4 L 419 119.6 L 416.1 119.6 L 416.1 92.9 L 419 92.9 L 419 110.8 L 427 100.3 L 430.4 100.3 L 423.7 109 L 430.4 119.6 L 427 119.6 Z M 441.7 95.5 C 441.7 94.4 442.6 93.6 443.7 93.6 C 444.7 93.6 445.6 94.4 445.6 95.5 C 445.6 96.6 444.7 97.5 443.7 97.5 C 442.6 97.5 441.7 96.6 441.7 95.5 Z M 442.3 119.6 L 442.3 100.3 L 445.1 100.3 L 445.1 119.6 L 442.3 119.6 Z M 460.8 119.6 C 460.8 119.6 460.81 105.84 460.8 105.8 C 460.8 103.3 459.7 102.4 457.7 102.4 C 455.9 102.4 454.1 103.8 453.2 105.4 C 453.21 105.44 453.2 119.6 453.2 119.6 L 450.4 119.6 L 450.4 100.3 L 453.2 100.3 C 453.2 100.3 453.21 103.04 453.2 103 C 454.3 101.4 456.5 99.8 458.8 99.8 C 462.1 99.8 463.7 101.6 463.7 105 C 463.69 105.04 463.7 119.6 463.7 119.6 L 460.8 119.6 Z " stroke="none" fill="#b13d24"/>  </g>  <g id="Polygon189610">    <path d="M 3.7 65.9 C 3.7 60.3 6.6 55.8 11.5 55.8 C 16.6 55.8 19.1 60.4 19.1 66 C 19.14 66 19.1 66.9 19.1 66.9 C 19.1 66.9 6.62 66.88 6.6 66.9 C 6.7 70.8 8.7 73.7 12.2 73.7 C 13.9 73.7 15.6 72.8 16.8 71.3 C 16.8 71.3 18.3 73 18.3 73 C 16.7 74.9 14.5 76.1 11.9 76.1 C 6.8 76.1 3.7 71.8 3.7 65.9 Z M 11.5 58.2 C 8.1 58.2 6.7 61.9 6.6 64.8 C 6.6 64.8 16.3 64.8 16.3 64.8 C 16.3 61.8 15 58.2 11.5 58.2 Z M 33.3 75.6 C 33.3 75.6 33.26 73.52 33.3 73.5 C 32 75.3 30.1 76.1 28.2 76.1 C 25.1 76.1 22.3 73.7 22.3 69.6 C 22.3 65.6 25 63.3 28.2 63.3 C 30.1 63.3 32.1 64 33.3 65.8 C 33.3 65.8 33.3 62.4 33.3 62.4 C 33.3 59.8 31.8 58.3 29.3 58.3 C 27.5 58.3 25.9 59 24.5 60.6 C 24.5 60.6 23.2 58.6 23.2 58.6 C 25 56.7 27.3 55.8 29.7 55.8 C 33.6 55.8 36.1 57.7 36.1 62.1 C 36.14 62.08 36.1 75.6 36.1 75.6 L 33.3 75.6 Z M 33.3 71.6 C 33.3 71.6 33.3 67.9 33.3 67.9 C 32.4 66.2 30.8 65.4 29.1 65.4 C 26.7 65.4 25.3 67.3 25.3 69.7 C 25.3 72.1 26.7 74 29.1 74 C 30.8 74 32.4 73.2 33.3 71.6 Z M 41.9 71.7 C 41.94 71.72 41.9 58.8 41.9 58.8 L 39.4 58.8 L 39.4 56.3 L 41.9 56.3 L 41.9 51 L 44.8 51 L 44.8 56.3 L 48.1 56.3 L 48.1 58.8 L 44.8 58.8 C 44.8 58.8 44.82 71.2 44.8 71.2 C 44.8 72.7 45.3 73.5 46.4 73.5 C 47.1 73.5 47.7 73.2 48.1 72.8 C 48.1 72.8 48.9 74.9 48.9 74.9 C 48.3 75.6 47.3 76.1 45.8 76.1 C 43.2 76.1 41.9 74.6 41.9 71.7 Z M 51.3 51.5 C 51.3 50.4 52.3 49.6 53.3 49.6 C 54.4 49.6 55.3 50.4 55.3 51.5 C 55.3 52.6 54.4 53.5 53.3 53.5 C 52.3 53.5 51.3 52.6 51.3 51.5 Z M 51.9 75.6 L 51.9 56.3 L 54.7 56.3 L 54.7 75.6 L 51.9 75.6 Z M 70.5 75.6 C 70.5 75.6 70.46 61.84 70.5 61.8 C 70.5 59.3 69.3 58.4 67.4 58.4 C 65.5 58.4 63.7 59.8 62.9 61.4 C 62.86 61.44 62.9 75.6 62.9 75.6 L 60 75.6 L 60 56.3 L 62.9 56.3 C 62.9 56.3 62.86 59.04 62.9 59 C 64 57.4 66.1 55.8 68.5 55.8 C 71.7 55.8 73.3 57.6 73.3 61 C 73.34 61.04 73.3 75.6 73.3 75.6 L 70.5 75.6 Z M 78.5 81 C 78.5 81 79.8 78.8 79.8 78.8 C 81.1 80.2 82.7 81 84.8 81 C 87.5 81 89.7 79.5 89.7 75.8 C 89.7 75.8 89.7 72.5 89.7 72.5 C 88.5 74.5 86.6 75.8 84.6 75.8 C 80.3 75.8 77.7 71.9 77.7 65.8 C 77.7 59.8 80.2 55.8 84.6 55.8 C 86.5 55.8 88.5 56.9 89.7 59.1 C 89.66 59.08 89.7 56.3 89.7 56.3 L 92.5 56.3 C 92.5 56.3 92.54 75.56 92.5 75.6 C 92.5 81.5 88.9 83.4 84.9 83.4 C 82.3 83.4 80.3 82.8 78.5 81 Z M 89.7 70.1 C 89.7 70.1 89.7 61.5 89.7 61.5 C 88.9 59.8 87.1 58.4 85.3 58.4 C 82.1 58.4 80.7 61.7 80.7 65.8 C 80.7 70 82.1 73.3 85.3 73.3 C 87.1 73.3 88.9 71.8 89.7 70.1 Z M 105.8 51.5 C 105.8 50.4 106.7 49.6 107.8 49.6 C 108.9 49.6 109.7 50.4 109.7 51.5 C 109.7 52.6 108.9 53.5 107.8 53.5 C 106.7 53.5 105.8 52.6 105.8 51.5 Z M 106.4 75.6 L 106.4 56.3 L 109.2 56.3 L 109.2 75.6 L 106.4 75.6 Z M 115.1 71.7 C 115.06 71.72 115.1 58.8 115.1 58.8 L 112.5 58.8 L 112.5 56.3 L 115.1 56.3 L 115.1 51 L 117.9 51 L 117.9 56.3 L 121.2 56.3 L 121.2 58.8 L 117.9 58.8 C 117.9 58.8 117.94 71.2 117.9 71.2 C 117.9 72.7 118.4 73.5 119.5 73.5 C 120.2 73.5 120.8 73.2 121.2 72.8 C 121.2 72.8 122.1 74.9 122.1 74.9 C 121.4 75.6 120.4 76.1 118.9 76.1 C 116.3 76.1 115.1 74.6 115.1 71.7 Z M 147.9 75.6 L 143.7 60.1 L 139.6 75.6 L 136.7 75.6 L 131.5 56.3 L 134.5 56.3 L 138.3 71.7 L 142.3 56.3 L 145.1 56.3 L 149.2 71.7 L 153 56.3 L 156 56.3 L 150.8 75.6 L 147.9 75.6 Z M 169.1 75.6 C 169.1 75.6 169.06 73.52 169.1 73.5 C 167.8 75.3 165.9 76.1 164 76.1 C 160.9 76.1 158.1 73.7 158.1 69.6 C 158.1 65.6 160.8 63.3 164 63.3 C 165.9 63.3 167.9 64 169.1 65.8 C 169.1 65.8 169.1 62.4 169.1 62.4 C 169.1 59.8 167.6 58.3 165.1 58.3 C 163.3 58.3 161.7 59 160.3 60.6 C 160.3 60.6 159 58.6 159 58.6 C 160.8 56.7 163.1 55.8 165.5 55.8 C 169.4 55.8 171.9 57.7 171.9 62.1 C 171.94 62.08 171.9 75.6 171.9 75.6 L 169.1 75.6 Z M 169.1 71.6 C 169.1 71.6 169.1 67.9 169.1 67.9 C 168.2 66.2 166.6 65.4 164.9 65.4 C 162.5 65.4 161.1 67.3 161.1 69.7 C 161.1 72.1 162.5 74 164.9 74 C 166.6 74 168.2 73.2 169.1 71.6 Z M 175.6 73.4 C 175.6 73.4 177.1 71.3 177.1 71.3 C 178.2 72.7 180 73.8 182.1 73.8 C 184.3 73.8 185.8 72.5 185.8 70.6 C 185.8 66.1 176.2 67.7 176.2 61 C 176.2 58.1 178.5 55.8 182.3 55.8 C 184.9 55.8 186.9 56.8 188.2 58.3 C 188.2 58.3 186.9 60.2 186.9 60.2 C 185.9 59 184.3 58.1 182.4 58.1 C 180.3 58.1 178.9 59.4 178.9 60.9 C 178.9 65 188.6 63.6 188.6 70.6 C 188.6 73.8 186.1 76.1 182.1 76.1 C 179.4 76.1 177.2 75.2 175.6 73.4 Z M 200.3 65.9 C 200.3 60.2 203.3 55.8 208.3 55.8 C 211 55.8 212.6 56.9 213.8 58.4 C 213.8 58.4 212.3 60.3 212.3 60.3 C 211.2 58.9 210 58.4 208.5 58.4 C 205.1 58.4 203.3 61.8 203.3 65.9 C 203.3 70 205.1 73.5 208.5 73.5 C 210 73.5 211.2 72.9 212.3 71.6 C 212.3 71.6 213.8 73.5 213.8 73.5 C 212.6 75 211 76.1 208.3 76.1 C 203.3 76.1 200.3 71.6 200.3 65.9 Z M 216.5 65.9 C 216.5 60.5 219.3 55.8 224.4 55.8 C 229.6 55.8 232.3 60.5 232.3 65.9 C 232.3 71.4 229.6 76.1 224.4 76.1 C 219.3 76.1 216.5 71.4 216.5 65.9 Z M 229.3 65.9 C 229.3 62 227.8 58.4 224.4 58.4 C 221.1 58.4 219.5 62 219.5 65.9 C 219.5 69.8 221.1 73.5 224.4 73.5 C 227.8 73.5 229.3 69.8 229.3 65.9 Z M 247 75.6 C 247 75.6 247.02 61.84 247 61.8 C 247 59.3 245.9 58.4 243.9 58.4 C 242.1 58.4 240.3 59.8 239.4 61.4 C 239.42 61.44 239.4 75.6 239.4 75.6 L 236.6 75.6 L 236.6 56.3 L 239.4 56.3 C 239.4 56.3 239.42 59.04 239.4 59 C 240.5 57.4 242.7 55.8 245 55.8 C 248.3 55.8 249.9 57.6 249.9 61 C 249.9 61.04 249.9 75.6 249.9 75.6 L 247 75.6 Z M 253.6 73.4 C 253.6 73.4 255.1 71.3 255.1 71.3 C 256.2 72.7 258 73.8 260.1 73.8 C 262.3 73.8 263.8 72.5 263.8 70.6 C 263.8 66.1 254.2 67.7 254.2 61 C 254.2 58.1 256.5 55.8 260.3 55.8 C 262.9 55.8 264.9 56.8 266.2 58.3 C 266.2 58.3 264.9 60.2 264.9 60.2 C 263.9 59 262.3 58.1 260.4 58.1 C 258.3 58.1 256.9 59.4 256.9 60.9 C 256.9 65 266.6 63.6 266.6 70.6 C 266.6 73.8 264.1 76.1 260.1 76.1 C 257.4 76.1 255.2 75.2 253.6 73.4 Z M 270.1 51.5 C 270.1 50.4 271 49.6 272.1 49.6 C 273.1 49.6 274 50.4 274 51.5 C 274 52.6 273.1 53.5 272.1 53.5 C 271 53.5 270.1 52.6 270.1 51.5 Z M 270.7 75.6 L 270.7 56.3 L 273.5 56.3 L 273.5 75.6 L 270.7 75.6 Z M 289.8 75.6 C 289.8 75.6 289.82 72.84 289.8 72.8 C 288.7 74.8 286.8 76.1 284.7 76.1 C 280.4 76.1 277.8 72 277.8 66 C 277.8 60 280.4 55.8 284.7 55.8 C 286.7 55.8 288.7 56.9 289.8 59.1 C 289.82 59.08 289.8 48.9 289.8 48.9 L 292.7 48.9 L 292.7 75.6 L 289.8 75.6 Z M 289.8 70.4 C 289.8 70.4 289.8 61.5 289.8 61.5 C 289.1 59.8 287.3 58.4 285.5 58.4 C 282.3 58.4 280.8 61.8 280.8 66 C 280.8 70.1 282.3 73.5 285.5 73.5 C 287.3 73.5 289.1 72.1 289.8 70.4 Z M 297 65.9 C 297 60.3 300 55.8 304.9 55.8 C 309.9 55.8 312.5 60.4 312.5 66 C 312.5 66 312.5 66.9 312.5 66.9 C 312.5 66.9 299.98 66.88 300 66.9 C 300.1 70.8 302.1 73.7 305.5 73.7 C 307.2 73.7 308.9 72.8 310.1 71.3 C 310.1 71.3 311.7 73 311.7 73 C 310.1 74.9 307.9 76.1 305.3 76.1 C 300.1 76.1 297 71.8 297 65.9 Z M 304.8 58.2 C 301.4 58.2 300.1 61.9 300 64.8 C 300 64.8 309.7 64.8 309.7 64.8 C 309.6 61.8 308.3 58.2 304.8 58.2 Z M 316.7 75.6 L 316.7 56.3 L 319.5 56.3 C 319.5 56.3 319.54 59.36 319.5 59.4 C 320.8 57.3 322.7 55.9 325 55.9 C 325 55.9 325 58.8 325 58.8 C 324.7 58.8 324.4 58.7 324.1 58.7 C 322.3 58.7 320.3 60.3 319.5 61.9 C 319.54 61.88 319.5 75.6 319.5 75.6 L 316.7 75.6 Z M 327.4 65.9 C 327.4 60.3 330.3 55.8 335.2 55.8 C 340.3 55.8 342.9 60.4 342.9 66 C 342.86 66 342.9 66.9 342.9 66.9 C 342.9 66.9 330.34 66.88 330.3 66.9 C 330.5 70.8 332.5 73.7 335.9 73.7 C 337.6 73.7 339.3 72.8 340.5 71.3 C 340.5 71.3 342 73 342 73 C 340.5 74.9 338.3 76.1 335.7 76.1 C 330.5 76.1 327.4 71.8 327.4 65.9 Z M 335.2 58.2 C 331.8 58.2 330.4 61.9 330.3 64.8 C 330.3 64.8 340 64.8 340 64.8 C 340 61.8 338.7 58.2 335.2 58.2 Z M 358.1 75.6 C 358.1 75.6 358.1 72.84 358.1 72.8 C 357 74.8 355.1 76.1 353 76.1 C 348.7 76.1 346.1 72 346.1 66 C 346.1 60 348.7 55.8 353 55.8 C 355 55.8 356.9 56.9 358.1 59.1 C 358.1 59.08 358.1 48.9 358.1 48.9 L 361 48.9 L 361 75.6 L 358.1 75.6 Z M 358.1 70.4 C 358.1 70.4 358.1 61.5 358.1 61.5 C 357.4 59.8 355.6 58.4 353.7 58.4 C 350.6 58.4 349.1 61.8 349.1 66 C 349.1 70.1 350.6 73.5 353.7 73.5 C 355.6 73.5 357.4 72.1 358.1 70.4 Z M 384.8 75.6 C 384.8 75.6 384.77 73.52 384.8 73.5 C 383.5 75.3 381.7 76.1 379.7 76.1 C 376.6 76.1 373.9 73.7 373.9 69.6 C 373.9 65.6 376.5 63.3 379.7 63.3 C 381.7 63.3 383.6 64 384.8 65.8 C 384.8 65.8 384.8 62.4 384.8 62.4 C 384.8 59.8 383.3 58.3 380.8 58.3 C 379 58.3 377.5 59 376 60.6 C 376 60.6 374.7 58.6 374.7 58.6 C 376.5 56.7 378.8 55.8 381.3 55.8 C 385.1 55.8 387.7 57.7 387.7 62.1 C 387.65 62.08 387.7 75.6 387.7 75.6 L 384.8 75.6 Z M 384.8 71.6 C 384.8 71.6 384.8 67.9 384.8 67.9 C 383.9 66.2 382.3 65.4 380.6 65.4 C 378.2 65.4 376.8 67.3 376.8 69.7 C 376.8 72.1 378.2 74 380.6 74 C 382.3 74 383.9 73.2 384.8 71.6 Z M 399.9 73.4 C 399.9 73.4 401.4 71.3 401.4 71.3 C 402.5 72.7 404.3 73.8 406.4 73.8 C 408.7 73.8 410.1 72.5 410.1 70.6 C 410.1 66.1 400.5 67.7 400.5 61 C 400.5 58.1 402.8 55.8 406.7 55.8 C 409.2 55.8 411.2 56.8 412.5 58.3 C 412.5 58.3 411.2 60.2 411.2 60.2 C 410.2 59 408.6 58.1 406.7 58.1 C 404.6 58.1 403.3 59.4 403.3 60.9 C 403.3 65 412.9 63.6 412.9 70.6 C 412.9 73.8 410.4 76.1 406.5 76.1 C 403.7 76.1 401.5 75.2 399.9 73.4 Z M 427.9 75.6 L 422.5 66.9 L 419.8 70.4 L 419.8 75.6 L 417 75.6 L 417 48.9 L 419.8 48.9 L 419.8 66.8 L 427.9 56.3 L 431.3 56.3 L 424.5 65 L 431.3 75.6 L 427.9 75.6 Z M 433.9 51.5 C 433.9 50.4 434.9 49.6 435.9 49.6 C 437 49.6 437.9 50.4 437.9 51.5 C 437.9 52.6 437 53.5 435.9 53.5 C 434.9 53.5 433.9 52.6 433.9 51.5 Z M 434.5 75.6 L 434.5 56.3 L 437.3 56.3 L 437.3 75.6 L 434.5 75.6 Z M 442.6 75.6 L 442.6 48.9 L 445.5 48.9 L 445.5 75.6 L 442.6 75.6 Z M 450.7 75.6 L 450.7 48.9 L 453.6 48.9 L 453.6 75.6 L 450.7 75.6 Z " stroke="none" fill="#b13d24"/>  </g>  <g id="Polygon189609">    <path d="M 18.7 31.6 L 16.9 25.6 L 7.5 25.6 L 5.7 31.6 L 2.3 31.6 L 10.3 4.9 L 14.1 4.9 L 22.1 31.6 L 18.7 31.6 Z M 12.2 8.4 L 8.1 22.8 L 16.3 22.8 L 12.2 8.4 Z M 32.1 29.4 C 32.1 29.4 33.5 27.3 33.5 27.3 C 34.7 28.7 36.5 29.8 38.6 29.8 C 40.8 29.8 42.3 28.5 42.3 26.6 C 42.3 22.1 32.7 23.7 32.7 17 C 32.7 14.1 35 11.8 38.8 11.8 C 41.4 11.8 43.3 12.8 44.7 14.3 C 44.7 14.3 43.3 16.2 43.3 16.2 C 42.4 15 40.7 14.1 38.9 14.1 C 36.7 14.1 35.4 15.4 35.4 16.9 C 35.4 21 45.1 19.6 45.1 26.6 C 45.1 29.8 42.6 32.1 38.6 32.1 C 35.9 32.1 33.7 31.2 32.1 29.4 Z M 52 28.8 C 51.98 28.8 52 39 52 39 L 49.1 39 L 49.1 12.3 L 52 12.3 C 52 12.3 51.98 15.04 52 15 C 53.1 13.1 55 11.8 57.1 11.8 C 61.4 11.8 64 15.8 64 21.9 C 64 28 61.4 32.1 57.1 32.1 C 55.1 32.1 53.2 31 52 28.8 Z M 61 21.9 C 61 17.8 59.5 14.4 56.3 14.4 C 54.5 14.4 52.7 15.8 52 17.5 C 52 17.5 52 26.3 52 26.3 C 52.7 28 54.5 29.5 56.3 29.5 C 59.5 29.5 61 26.1 61 21.9 Z M 67.7 7.5 C 67.7 6.4 68.6 5.6 69.7 5.6 C 70.7 5.6 71.6 6.4 71.6 7.5 C 71.6 8.6 70.7 9.5 69.7 9.5 C 68.6 9.5 67.7 8.6 67.7 7.5 Z M 68.3 31.6 L 68.3 12.3 L 71.1 12.3 L 71.1 31.6 L 68.3 31.6 Z M 75.4 21.9 C 75.4 16.2 78.5 11.8 83.4 11.8 C 86.1 11.8 87.7 12.9 88.9 14.4 C 88.9 14.4 87.4 16.3 87.4 16.3 C 86.3 14.9 85.1 14.4 83.7 14.4 C 80.2 14.4 78.4 17.8 78.4 21.9 C 78.4 26 80.2 29.5 83.7 29.5 C 85.1 29.5 86.3 28.9 87.4 27.6 C 87.4 27.6 88.9 29.5 88.9 29.5 C 87.7 31 86.1 32.1 83.4 32.1 C 78.5 32.1 75.4 27.6 75.4 21.9 Z M 92.1 36.6 C 92.4 36.8 93 36.9 93.3 36.9 C 94.5 36.9 95.1 36.4 95.6 35 C 95.62 34.96 96.7 32 96.7 32 L 90.2 12.3 L 93.3 12.3 L 98.1 28.1 L 103 12.3 L 106.1 12.3 C 106.1 12.3 98.34 35.68 98.3 35.7 C 97.4 38.5 95.8 39.4 93.5 39.4 C 92.9 39.4 92.1 39.3 91.6 39.2 C 91.6 39.2 92.1 36.6 92.1 36.6 Z M 127.5 31.6 C 127.5 31.6 127.46 29.52 127.5 29.5 C 126.2 31.3 124.3 32.1 122.4 32.1 C 119.3 32.1 116.5 29.7 116.5 25.6 C 116.5 21.6 119.2 19.3 122.4 19.3 C 124.3 19.3 126.3 20 127.5 21.8 C 127.5 21.8 127.5 18.4 127.5 18.4 C 127.5 15.8 126 14.3 123.5 14.3 C 121.7 14.3 120.1 15 118.7 16.6 C 118.7 16.6 117.4 14.6 117.4 14.6 C 119.2 12.7 121.5 11.8 123.9 11.8 C 127.8 11.8 130.3 13.7 130.3 18.1 C 130.34 18.08 130.3 31.6 130.3 31.6 L 127.5 31.6 Z M 127.5 27.6 C 127.5 27.6 127.5 23.9 127.5 23.9 C 126.6 22.2 125 21.4 123.3 21.4 C 120.9 21.4 119.5 23.3 119.5 25.7 C 119.5 28.1 120.9 30 123.3 30 C 125 30 126.6 29.2 127.5 27.6 Z M 146 31.6 C 146 31.6 146.02 17.84 146 17.8 C 146 15.3 144.9 14.4 142.9 14.4 C 141.1 14.4 139.3 15.8 138.4 17.4 C 138.42 17.44 138.4 31.6 138.4 31.6 L 135.6 31.6 L 135.6 12.3 L 138.4 12.3 C 138.4 12.3 138.42 15.04 138.4 15 C 139.5 13.4 141.7 11.8 144 11.8 C 147.3 11.8 148.9 13.6 148.9 17 C 148.9 17.04 148.9 31.6 148.9 31.6 L 146 31.6 Z M 165.2 31.6 C 165.2 31.6 165.22 28.84 165.2 28.8 C 164.1 30.8 162.2 32.1 160.1 32.1 C 155.8 32.1 153.2 28 153.2 22 C 153.2 16 155.8 11.8 160.1 11.8 C 162.1 11.8 164.1 12.9 165.2 15.1 C 165.22 15.08 165.2 4.9 165.2 4.9 L 168.1 4.9 L 168.1 31.6 L 165.2 31.6 Z M 165.2 26.4 C 165.2 26.4 165.2 17.5 165.2 17.5 C 164.5 15.8 162.7 14.4 160.9 14.4 C 157.7 14.4 156.2 17.8 156.2 22 C 156.2 26.1 157.7 29.5 160.9 29.5 C 162.7 29.5 164.5 28.1 165.2 26.4 Z M 192.5 31.6 C 192.5 31.6 192.46 17.8 192.5 17.8 C 192.5 15.2 191.3 14.4 189.3 14.4 C 187.5 14.4 185.7 15.8 184.8 17.4 C 184.82 17.44 184.8 31.6 184.8 31.6 L 182 31.6 L 182 4.9 L 184.8 4.9 C 184.8 4.9 184.82 15.04 184.8 15 C 185.9 13.4 188.1 11.8 190.5 11.8 C 193.7 11.8 195.3 13.4 195.3 17 C 195.3 16.96 195.3 31.6 195.3 31.6 L 192.5 31.6 Z M 200 7.5 C 200 6.4 200.9 5.6 202 5.6 C 203.1 5.6 203.9 6.4 203.9 7.5 C 203.9 8.6 203.1 9.5 202 9.5 C 200.9 9.5 200 8.6 200 7.5 Z M 200.6 31.6 L 200.6 12.3 L 203.4 12.3 L 203.4 31.6 L 200.6 31.6 Z M 208.5 37 C 208.5 37 209.9 34.8 209.9 34.8 C 211.1 36.2 212.8 37 214.9 37 C 217.5 37 219.7 35.5 219.7 31.8 C 219.7 31.8 219.7 28.5 219.7 28.5 C 218.6 30.5 216.7 31.8 214.7 31.8 C 210.3 31.8 207.7 27.9 207.7 21.8 C 207.7 15.8 210.3 11.8 214.7 11.8 C 216.6 11.8 218.5 12.9 219.7 15.1 C 219.74 15.08 219.7 12.3 219.7 12.3 L 222.6 12.3 C 222.6 12.3 222.62 31.56 222.6 31.6 C 222.6 37.5 219 39.4 215 39.4 C 212.4 39.4 210.4 38.8 208.5 37 Z M 219.7 26.1 C 219.7 26.1 219.7 17.5 219.7 17.5 C 219 15.8 217.2 14.4 215.4 14.4 C 212.2 14.4 210.7 17.7 210.7 21.8 C 210.7 26 212.2 29.3 215.4 29.3 C 217.2 29.3 219 27.8 219.7 26.1 Z M 238.3 31.6 C 238.3 31.6 238.34 17.8 238.3 17.8 C 238.3 15.2 237.1 14.4 235.2 14.4 C 233.3 14.4 231.6 15.8 230.7 17.4 C 230.7 17.44 230.7 31.6 230.7 31.6 L 227.9 31.6 L 227.9 4.9 L 230.7 4.9 C 230.7 4.9 230.7 15.04 230.7 15 C 231.8 13.4 234 11.8 236.3 11.8 C 239.6 11.8 241.2 13.4 241.2 17 C 241.18 16.96 241.2 31.6 241.2 31.6 L 238.3 31.6 Z M 246.5 31.6 L 246.5 4.9 L 249.3 4.9 L 249.3 31.6 L 246.5 31.6 Z M 254 36.6 C 254.4 36.8 255 36.9 255.3 36.9 C 256.4 36.9 257.1 36.4 257.6 35 C 257.58 34.96 258.6 32 258.6 32 L 252.2 12.3 L 255.3 12.3 L 260.1 28.1 L 264.9 12.3 L 268 12.3 C 268 12.3 260.3 35.68 260.3 35.7 C 259.3 38.5 257.8 39.4 255.5 39.4 C 254.9 39.4 254 39.3 253.6 39.2 C 253.6 39.2 254 36.6 254 36.6 Z M 277.9 29.4 C 277.9 29.4 279.4 27.3 279.4 27.3 C 280.5 28.7 282.3 29.8 284.4 29.8 C 286.7 29.8 288.1 28.5 288.1 26.6 C 288.1 22.1 278.5 23.7 278.5 17 C 278.5 14.1 280.8 11.8 284.7 11.8 C 287.2 11.8 289.2 12.8 290.5 14.3 C 290.5 14.3 289.2 16.2 289.2 16.2 C 288.2 15 286.6 14.1 284.7 14.1 C 282.6 14.1 281.3 15.4 281.3 16.9 C 281.3 21 290.9 19.6 290.9 26.6 C 290.9 29.8 288.4 32.1 284.5 32.1 C 281.7 32.1 279.5 31.2 277.9 29.4 Z M 304.9 31.6 C 304.9 31.6 304.9 29.52 304.9 29.5 C 303.7 31.3 301.8 32.1 299.8 32.1 C 296.7 32.1 294 29.7 294 25.6 C 294 21.6 296.7 19.3 299.8 19.3 C 301.8 19.3 303.7 20 304.9 21.8 C 304.9 21.8 304.9 18.4 304.9 18.4 C 304.9 15.8 303.5 14.3 300.9 14.3 C 299.1 14.3 297.6 15 296.1 16.6 C 296.1 16.6 294.8 14.6 294.8 14.6 C 296.7 12.7 298.9 11.8 301.4 11.8 C 305.2 11.8 307.8 13.7 307.8 18.1 C 307.78 18.08 307.8 31.6 307.8 31.6 L 304.9 31.6 Z M 304.9 27.6 C 304.9 27.6 304.9 23.9 304.9 23.9 C 304 22.2 302.4 21.4 300.7 21.4 C 298.3 21.4 296.9 23.3 296.9 25.7 C 296.9 28.1 298.3 30 300.7 30 C 302.4 30 304 29.2 304.9 27.6 Z M 316.9 31.6 L 310.6 12.3 L 313.7 12.3 L 318.5 28.2 L 323.4 12.3 L 326.5 12.3 L 320.1 31.6 L 316.9 31.6 Z M 328.4 21.9 C 328.4 16.5 331.1 11.8 336.2 11.8 C 341.4 11.8 344.1 16.5 344.1 21.9 C 344.1 27.4 341.4 32.1 336.2 32.1 C 331.1 32.1 328.4 27.4 328.4 21.9 Z M 341.1 21.9 C 341.1 18 339.6 14.4 336.2 14.4 C 332.9 14.4 331.4 18 331.4 21.9 C 331.4 25.8 332.9 29.5 336.2 29.5 C 339.6 29.5 341.1 25.8 341.1 21.9 Z M 358.9 31.6 C 358.9 31.6 358.86 28.92 358.9 28.9 C 357.7 30.6 355.7 32.1 353.3 32.1 C 350 32.1 348.4 30.4 348.4 26.9 C 348.42 26.92 348.4 12.3 348.4 12.3 L 351.3 12.3 C 351.3 12.3 351.26 26.08 351.3 26.1 C 351.3 28.6 352.5 29.5 354.3 29.5 C 356.3 29.5 358 28.1 358.9 26.5 C 358.86 26.52 358.9 12.3 358.9 12.3 L 361.7 12.3 L 361.7 31.6 L 358.9 31.6 Z M 367 31.6 L 367 12.3 L 369.9 12.3 C 369.9 12.3 369.86 15.36 369.9 15.4 C 371.1 13.3 373 11.9 375.3 11.9 C 375.3 11.9 375.3 14.8 375.3 14.8 C 375 14.8 374.7 14.7 374.4 14.7 C 372.6 14.7 370.7 16.3 369.9 17.9 C 369.86 17.88 369.9 31.6 369.9 31.6 L 367 31.6 Z M 378.1 36.6 C 378.5 36.8 379.1 36.9 379.4 36.9 C 380.5 36.9 381.1 36.4 381.7 35 C 381.66 34.96 382.7 32 382.7 32 L 376.3 12.3 L 379.4 12.3 L 384.2 28.1 L 389 12.3 L 392.1 12.3 C 392.1 12.3 384.38 35.68 384.4 35.7 C 383.4 38.5 381.9 39.4 379.6 39.4 C 379 39.4 378.1 39.3 377.7 39.2 C 377.7 39.2 378.1 36.6 378.1 36.6 Z M 414.6 31.6 C 414.6 31.6 414.62 28.84 414.6 28.8 C 413.5 30.8 411.6 32.1 409.5 32.1 C 405.2 32.1 402.6 28 402.6 22 C 402.6 16 405.2 11.8 409.5 11.8 C 411.5 11.8 413.5 12.9 414.6 15.1 C 414.62 15.08 414.6 4.9 414.6 4.9 L 417.5 4.9 L 417.5 31.6 L 414.6 31.6 Z M 414.6 26.4 C 414.6 26.4 414.6 17.5 414.6 17.5 C 413.9 15.8 412.1 14.4 410.3 14.4 C 407.1 14.4 405.6 17.8 405.6 22 C 405.6 26.1 407.1 29.5 410.3 29.5 C 412.1 29.5 413.9 28.1 414.6 26.4 Z M 422.2 7.5 C 422.2 6.4 423.1 5.6 424.2 5.6 C 425.3 5.6 426.1 6.4 426.1 7.5 C 426.1 8.6 425.3 9.5 424.2 9.5 C 423.1 9.5 422.2 8.6 422.2 7.5 Z M 422.8 31.6 L 422.8 12.3 L 425.6 12.3 L 425.6 31.6 L 422.8 31.6 Z M 429.3 29.4 C 429.3 29.4 430.8 27.3 430.8 27.3 C 431.9 28.7 433.7 29.8 435.8 29.8 C 438.1 29.8 439.5 28.5 439.5 26.6 C 439.5 22.1 429.9 23.7 429.9 17 C 429.9 14.1 432.2 11.8 436.1 11.8 C 438.6 11.8 440.6 12.8 441.9 14.3 C 441.9 14.3 440.6 16.2 440.6 16.2 C 439.6 15 438 14.1 436.1 14.1 C 434 14.1 432.7 15.4 432.7 16.9 C 432.7 21 442.3 19.6 442.3 26.6 C 442.3 29.8 439.8 32.1 435.9 32.1 C 433.1 32.1 430.9 31.2 429.3 29.4 Z M 456.9 31.6 C 456.9 31.6 456.85 17.8 456.9 17.8 C 456.9 15.2 455.7 14.4 453.7 14.4 C 451.9 14.4 450.1 15.8 449.2 17.4 C 449.21 17.44 449.2 31.6 449.2 31.6 L 446.4 31.6 L 446.4 4.9 L 449.2 4.9 C 449.2 4.9 449.21 15.04 449.2 15 C 450.3 13.4 452.5 11.8 454.9 11.8 C 458.1 11.8 459.7 13.4 459.7 17 C 459.69 16.96 459.7 31.6 459.7 31.6 L 456.9 31.6 Z M 466.1 36.6 C 466.1 36.6 464.6 35.5 464.6 35.5 C 465.9 34.6 467 33 467.2 31.8 C 467.1 31.8 466.8 31.8 466.7 31.8 C 465.6 31.8 464.8 31 464.8 29.8 C 464.8 28.7 465.7 27.7 466.9 27.7 C 468.1 27.7 469.3 28.8 469.3 30.7 C 469.3 33.1 467.9 35.4 466.1 36.6 Z " stroke="none" fill="#b13d24"/>  </g></svg>