<?xml version="1.0" standalone="no"?><!DOCTYPE svg PUBLIC "-//W3C//DTD SVG 1.1//EN" "http://www.w3.org/Graphics/SVG/1.1/DTD/svg11.dtd"><svg xmlns="http://www.w3.org/2000/svg" version="1.1" width="274px" height="440.3px" viewBox="0 0 274 440.3">  <desc>Alcanivorase extract (Z)-5-Octenyl acetate Mercapto-methylbutanol Ethyldihydro thiazole (Methylthio)octan-3-one Butox</desc>  <defs/>  <g id="Polygon152513">    <path d="M 2.1 392.7 L 2.1 372.7 L 4.5 372.7 L 4.5 392.7 L 2.1 392.7 Z M 7.6 385.4 C 7.6 381.4 9.6 377.8 13.4 377.8 C 17.3 377.8 19.3 381.4 19.3 385.4 C 19.3 389.5 17.3 393.1 13.4 393.1 C 9.6 393.1 7.6 389.5 7.6 385.4 Z M 17.1 385.4 C 17.1 382.5 16 379.8 13.4 379.8 C 10.9 379.8 9.8 382.5 9.8 385.4 C 9.8 388.4 10.9 391.1 13.4 391.1 C 16 391.1 17.1 388.4 17.1 385.4 Z M 30.6 392.7 C 30.6 392.7 30.57 390.63 30.6 390.6 C 29.7 392.1 28.3 393.1 26.8 393.1 C 23.5 393.1 21.6 390 21.6 385.5 C 21.6 381 23.5 377.8 26.8 377.8 C 28.2 377.8 29.7 378.7 30.6 380.3 C 30.57 380.31 30.6 372.7 30.6 372.7 L 32.7 372.7 L 32.7 392.7 L 30.6 392.7 Z M 30.6 388.8 C 30.6 388.8 30.6 382.1 30.6 382.1 C 30 380.9 28.7 379.8 27.3 379.8 C 24.9 379.8 23.8 382.3 23.8 385.5 C 23.8 388.6 24.9 391.1 27.3 391.1 C 28.7 391.1 30 390.1 30.6 388.8 Z M 36 374.6 C 36 373.8 36.7 373.2 37.4 373.2 C 38.2 373.2 38.9 373.8 38.9 374.6 C 38.9 375.4 38.2 376.1 37.4 376.1 C 36.7 376.1 36 375.4 36 374.6 Z M 36.4 392.7 L 36.4 378.2 L 38.5 378.2 L 38.5 392.7 L 36.4 392.7 Z M 41 391 C 41 391 42.1 389.5 42.1 389.5 C 42.9 390.5 44.3 391.3 45.9 391.3 C 47.5 391.3 48.7 390.4 48.7 389 C 48.7 385.6 41.4 386.8 41.4 381.7 C 41.4 379.6 43.2 377.8 46 377.8 C 48 377.8 49.4 378.6 50.5 379.7 C 50.5 379.7 49.4 381.2 49.4 381.2 C 48.7 380.2 47.5 379.6 46.1 379.6 C 44.5 379.6 43.5 380.5 43.5 381.7 C 43.5 384.8 50.7 383.7 50.7 388.9 C 50.7 391.3 48.9 393.1 45.9 393.1 C 43.9 393.1 42.2 392.4 41 391 Z M 52.8 385.4 C 52.8 381.2 55 377.8 58.6 377.8 C 62.5 377.8 64.4 381.3 64.4 385.5 C 64.38 385.5 64.4 386.2 64.4 386.2 C 64.4 386.2 54.99 386.16 55 386.2 C 55.1 389.1 56.6 391.3 59.2 391.3 C 60.4 391.3 61.7 390.6 62.6 389.5 C 62.6 389.5 63.7 390.7 63.7 390.7 C 62.6 392.2 60.9 393.1 59 393.1 C 55.1 393.1 52.8 389.9 52.8 385.4 Z M 58.6 379.6 C 56.1 379.6 55 382.4 55 384.6 C 55 384.6 62.2 384.6 62.2 384.6 C 62.2 382.3 61.3 379.6 58.6 379.6 Z M 75.5 392.7 C 75.5 392.7 75.51 390.63 75.5 390.6 C 74.7 392.1 73.2 393.1 71.7 393.1 C 68.5 393.1 66.5 390 66.5 385.5 C 66.5 381 68.4 377.8 71.7 377.8 C 73.2 377.8 74.6 378.7 75.5 380.3 C 75.51 380.31 75.5 372.7 75.5 372.7 L 77.7 372.7 L 77.7 392.7 L 75.5 392.7 Z M 75.5 388.8 C 75.5 388.8 75.5 382.1 75.5 382.1 C 75 380.9 73.6 379.8 72.2 379.8 C 69.9 379.8 68.8 382.3 68.8 385.5 C 68.8 388.6 69.9 391.1 72.2 391.1 C 73.6 391.1 75 390.1 75.5 388.8 Z M 86.4 390.5 C 86.4 390.5 87.7 388.7 87.7 388.7 C 88.7 389.9 90.4 390.9 92.3 390.9 C 94.9 390.9 96 389.4 96 387.7 C 96 382.8 87 384.1 87 377.6 C 87 374.5 89.4 372.4 92.7 372.4 C 94.9 372.4 96.7 373.1 98 374.5 C 98 374.5 96.8 376.3 96.8 376.3 C 95.7 375.1 94.2 374.5 92.6 374.5 C 90.8 374.5 89.4 375.7 89.4 377.5 C 89.4 381.7 98.4 380.8 98.4 387.5 C 98.4 390.4 96.5 393.1 92.3 393.1 C 89.7 393.1 87.7 392.1 86.4 390.5 Z M 108.7 392.7 C 108.7 392.7 108.72 391.14 108.7 391.1 C 107.8 392.5 106.4 393.1 104.9 393.1 C 102.6 393.1 100.5 391.3 100.5 388.2 C 100.5 385.2 102.5 383.5 104.9 383.5 C 106.4 383.5 107.8 384 108.7 385.3 C 108.7 385.3 108.7 382.8 108.7 382.8 C 108.7 380.8 107.6 379.7 105.7 379.7 C 104.4 379.7 103.2 380.2 102.1 381.5 C 102.1 381.5 101.2 379.9 101.2 379.9 C 102.5 378.5 104.2 377.8 106.1 377.8 C 109 377.8 110.9 379.3 110.9 382.6 C 110.88 382.56 110.9 392.7 110.9 392.7 L 108.7 392.7 Z M 108.7 389.7 C 108.7 389.7 108.7 386.9 108.7 386.9 C 108.1 385.7 106.9 385 105.6 385 C 103.8 385 102.7 386.5 102.7 388.3 C 102.7 390.1 103.8 391.5 105.6 391.5 C 106.9 391.5 108.1 390.9 108.7 389.7 Z M 114.5 392.7 L 114.5 372.7 L 116.6 372.7 L 116.6 392.7 L 114.5 392.7 Z M 120.7 389.8 C 120.72 389.79 120.7 380.1 120.7 380.1 L 118.8 380.1 L 118.8 378.2 L 120.7 378.2 L 120.7 374.2 L 122.9 374.2 L 122.9 378.2 L 125.3 378.2 L 125.3 380.1 L 122.9 380.1 C 122.9 380.1 122.88 389.4 122.9 389.4 C 122.9 390.5 123.2 391.1 124 391.1 C 124.6 391.1 125 390.9 125.3 390.6 C 125.3 390.6 126 392.2 126 392.2 C 125.5 392.7 124.7 393.1 123.6 393.1 C 121.6 393.1 120.7 391.9 120.7 389.8 Z " stroke="none" fill="#d3d2d2"/>  </g>  <g id="Polygon152512">    <path d="M 2.1 356.7 L 2.1 336.7 C 2.1 336.7 8.19 336.69 8.2 336.7 C 11.8 336.7 13.7 339.4 13.7 342.7 C 13.7 345.9 11.8 348.7 8.2 348.7 C 8.19 348.69 4.5 348.7 4.5 348.7 L 4.5 356.7 L 2.1 356.7 Z M 11.3 342.7 C 11.3 340.4 10 338.8 7.9 338.8 C 7.95 338.79 4.5 338.8 4.5 338.8 L 4.5 346.6 C 4.5 346.6 7.95 346.59 7.9 346.6 C 10 346.6 11.3 345 11.3 342.7 Z M 24.1 356.7 C 24.1 356.7 24.15 346.35 24.1 346.3 C 24.1 344.4 23.2 343.8 21.8 343.8 C 20.4 343.8 19.1 344.9 18.4 346.1 C 18.42 346.08 18.4 356.7 18.4 356.7 L 16.3 356.7 L 16.3 336.7 L 18.4 336.7 C 18.4 336.7 18.42 344.28 18.4 344.3 C 19.3 343 20.9 341.8 22.6 341.8 C 25.1 341.8 26.3 343.1 26.3 345.7 C 26.28 345.72 26.3 356.7 26.3 356.7 L 24.1 356.7 Z M 29.2 349.4 C 29.2 345.2 31.4 341.8 35.1 341.8 C 38.9 341.8 40.8 345.3 40.8 349.5 C 40.83 349.5 40.8 350.2 40.8 350.2 C 40.8 350.2 31.44 350.16 31.4 350.2 C 31.5 353.1 33 355.3 35.6 355.3 C 36.9 355.3 38.2 354.6 39.1 353.5 C 39.1 353.5 40.2 354.7 40.2 354.7 C 39 356.2 37.4 357.1 35.4 357.1 C 31.6 357.1 29.2 353.9 29.2 349.4 Z M 35.1 343.6 C 32.5 343.6 31.5 346.4 31.4 348.6 C 31.4 348.6 38.7 348.6 38.7 348.6 C 38.7 346.3 37.7 343.6 35.1 343.6 Z M 51.5 356.7 C 51.5 356.7 51.51 346.38 51.5 346.4 C 51.5 344.5 50.6 343.8 49.2 343.8 C 47.8 343.8 46.5 344.9 45.8 346.1 C 45.81 346.08 45.8 356.7 45.8 356.7 L 43.7 356.7 L 43.7 342.2 L 45.8 342.2 C 45.8 342.2 45.81 344.28 45.8 344.3 C 46.6 343 48.3 341.8 50 341.8 C 52.5 341.8 53.7 343.2 53.7 345.8 C 53.67 345.78 53.7 356.7 53.7 356.7 L 51.5 356.7 Z M 56.9 360.4 C 57.2 360.6 57.6 360.7 57.9 360.7 C 58.7 360.7 59.2 360.3 59.6 359.2 C 59.58 359.22 60.4 357 60.4 357 L 55.5 342.2 L 57.9 342.2 L 61.5 354.1 L 65.1 342.2 L 67.4 342.2 C 67.4 342.2 61.62 359.76 61.6 359.8 C 60.9 361.9 59.7 362.6 58 362.6 C 57.6 362.6 56.9 362.5 56.6 362.4 C 56.6 362.4 56.9 360.4 56.9 360.4 Z M 69.3 356.7 L 69.3 336.7 L 71.4 336.7 L 71.4 356.7 L 69.3 356.7 Z M 74 350.4 L 74 348.5 L 80.2 348.5 L 80.2 350.4 L 74 350.4 Z M 82.3 353.8 C 82.3 353.8 83.9 352.3 83.9 352.3 C 84.9 354 86.2 354.9 88.2 354.9 C 90.4 354.9 91.7 352.9 91.7 350.6 C 91.7 347.7 90.4 346.2 88.3 346.2 C 86.9 346.2 85.8 346.7 84.7 348 C 84.69 348.03 82.9 347.4 82.9 347.4 L 82.9 336.7 L 93.1 336.7 L 93.1 338.8 L 85.3 338.8 C 85.3 338.8 85.29 345.81 85.3 345.8 C 86.1 344.8 87.4 344.1 89 344.1 C 91.9 344.1 94.2 346.3 94.2 350.5 C 94.2 354.3 91.7 357.1 88.2 357.1 C 85.3 357.1 83.6 355.8 82.3 353.8 Z M 96.1 350.4 L 96.1 348.5 L 102.3 348.5 L 102.3 350.4 L 96.1 350.4 Z M 112.3 356.7 C 112.3 356.7 112.35 355.14 112.3 355.1 C 111.4 356.5 110 357.1 108.5 357.1 C 106.2 357.1 104.2 355.3 104.2 352.2 C 104.2 349.2 106.2 347.5 108.5 347.5 C 110 347.5 111.4 348 112.3 349.3 C 112.3 349.3 112.3 346.8 112.3 346.8 C 112.3 344.8 111.3 343.7 109.4 343.7 C 108 343.7 106.9 344.2 105.7 345.5 C 105.7 345.5 104.8 343.9 104.8 343.9 C 106.2 342.5 107.9 341.8 109.7 341.8 C 112.6 341.8 114.5 343.3 114.5 346.6 C 114.51 346.56 114.5 356.7 114.5 356.7 L 112.3 356.7 Z M 112.3 353.7 C 112.3 353.7 112.3 350.9 112.3 350.9 C 111.7 349.7 110.5 349 109.2 349 C 107.4 349 106.3 350.5 106.3 352.3 C 106.3 354.1 107.4 355.5 109.2 355.5 C 110.5 355.5 111.7 354.9 112.3 353.7 Z M 132.8 356.7 C 132.8 356.7 132.78 346.2 132.8 346.2 C 132.8 344.6 132.1 343.8 130.8 343.8 C 129.5 343.8 128.2 344.9 127.6 346.1 C 127.62 346.08 127.6 356.7 127.6 356.7 L 125.5 356.7 C 125.5 356.7 125.46 346.2 125.5 346.2 C 125.5 344.6 124.8 343.8 123.4 343.8 C 122.1 343.8 120.9 344.9 120.3 346.1 C 120.27 346.08 120.3 356.7 120.3 356.7 L 118.1 356.7 L 118.1 342.2 L 120.3 342.2 C 120.3 342.2 120.27 344.28 120.3 344.3 C 120.9 343.2 122.5 341.8 124.2 341.8 C 126.1 341.8 127.2 342.9 127.5 344.4 C 128.2 343.1 129.8 341.8 131.6 341.8 C 133.7 341.8 134.9 343 134.9 345.6 C 134.94 345.63 134.9 356.7 134.9 356.7 L 132.8 356.7 Z M 137.9 349.4 C 137.9 345.2 140.1 341.8 143.8 341.8 C 147.6 341.8 149.5 345.3 149.5 349.5 C 149.49 349.5 149.5 350.2 149.5 350.2 C 149.5 350.2 140.1 350.16 140.1 350.2 C 140.2 353.1 141.7 355.3 144.3 355.3 C 145.5 355.3 146.8 354.6 147.7 353.5 C 147.7 353.5 148.9 354.7 148.9 354.7 C 147.7 356.2 146 357.1 144.1 357.1 C 140.2 357.1 137.9 353.9 137.9 349.4 Z M 143.7 343.6 C 141.2 343.6 140.2 346.4 140.1 348.6 C 140.1 348.6 147.4 348.6 147.4 348.6 C 147.3 346.3 146.4 343.6 143.7 343.6 Z M 151.6 349.4 C 151.6 345.1 153.9 341.8 157.6 341.8 C 159.6 341.8 160.9 342.7 161.8 343.8 C 161.8 343.8 160.6 345.2 160.6 345.2 C 159.8 344.2 158.9 343.8 157.8 343.8 C 155.2 343.8 153.9 346.3 153.9 349.4 C 153.9 352.5 155.2 355.1 157.8 355.1 C 158.9 355.1 159.8 354.7 160.6 353.7 C 160.6 353.7 161.8 355.1 161.8 355.1 C 160.9 356.3 159.6 357.1 157.6 357.1 C 153.9 357.1 151.6 353.7 151.6 349.4 Z M 164.6 353.8 C 164.64 353.79 164.6 344.1 164.6 344.1 L 162.7 344.1 L 162.7 342.2 L 164.6 342.2 L 164.6 338.2 L 166.8 338.2 L 166.8 342.2 L 169.3 342.2 L 169.3 344.1 L 166.8 344.1 C 166.8 344.1 166.8 353.4 166.8 353.4 C 166.8 354.5 167.1 355.1 168 355.1 C 168.5 355.1 169 354.9 169.2 354.6 C 169.2 354.6 169.9 356.2 169.9 356.2 C 169.4 356.7 168.7 357.1 167.5 357.1 C 165.6 357.1 164.6 355.9 164.6 353.8 Z M 171.4 338.6 C 171.4 337.8 172.1 337.2 172.9 337.2 C 173.7 337.2 174.3 337.8 174.3 338.6 C 174.3 339.4 173.7 340.1 172.9 340.1 C 172.1 340.1 171.4 339.4 171.4 338.6 Z M 171.8 356.7 L 171.8 342.2 L 173.9 342.2 L 173.9 356.7 L 171.8 356.7 Z M 185.4 356.7 C 185.4 356.7 185.43 346.38 185.4 346.4 C 185.4 344.5 184.6 343.8 183.1 343.8 C 181.7 343.8 180.4 344.9 179.7 346.1 C 179.73 346.08 179.7 356.7 179.7 356.7 L 177.6 356.7 L 177.6 342.2 L 179.7 342.2 C 179.7 342.2 179.73 344.28 179.7 344.3 C 180.6 343 182.2 341.8 183.9 341.8 C 186.4 341.8 187.6 343.2 187.6 345.8 C 187.59 345.78 187.6 356.7 187.6 356.7 L 185.4 356.7 Z " stroke="none" fill="#d3d2d2"/>  </g>  <g id="Polygon152511">    <path d="M 5.5 320.7 L 5.5 302.8 L 0.8 302.8 L 0.8 300.7 L 12.6 300.7 L 12.6 302.8 L 7.9 302.8 L 7.9 320.7 L 5.5 320.7 Z M 11.9 313.4 C 11.9 309.2 14.1 305.8 17.7 305.8 C 21.5 305.8 23.5 309.3 23.5 313.5 C 23.46 313.5 23.5 314.2 23.5 314.2 C 23.5 314.2 14.07 314.16 14.1 314.2 C 14.2 317.1 15.7 319.3 18.2 319.3 C 19.5 319.3 20.8 318.6 21.7 317.5 C 21.7 317.5 22.8 318.7 22.8 318.7 C 21.7 320.2 20 321.1 18.1 321.1 C 14.2 321.1 11.9 317.9 11.9 313.4 Z M 17.7 307.6 C 15.2 307.6 14.1 310.4 14.1 312.6 C 14.1 312.6 21.3 312.6 21.3 312.6 C 21.3 310.3 20.3 307.6 17.7 307.6 Z M 26.7 317.8 C 26.73 317.79 26.7 308.1 26.7 308.1 L 24.8 308.1 L 24.8 306.2 L 26.7 306.2 L 26.7 302.2 L 28.9 302.2 L 28.9 306.2 L 31.3 306.2 L 31.3 308.1 L 28.9 308.1 C 28.9 308.1 28.89 317.4 28.9 317.4 C 28.9 318.5 29.2 319.1 30.1 319.1 C 30.6 319.1 31 318.9 31.3 318.6 C 31.3 318.6 32 320.2 32 320.2 C 31.5 320.7 30.7 321.1 29.6 321.1 C 27.7 321.1 26.7 319.9 26.7 317.8 Z M 33.9 320.7 L 33.9 306.2 L 36 306.2 C 36 306.2 36.03 308.52 36 308.5 C 37 307 38.4 305.9 40.1 305.9 C 40.1 305.9 40.1 308.1 40.1 308.1 C 39.9 308.1 39.7 308 39.4 308 C 38.1 308 36.6 309.2 36 310.4 C 36.03 310.41 36 320.7 36 320.7 L 33.9 320.7 Z M 49.8 320.7 C 49.8 320.7 49.77 319.14 49.8 319.1 C 48.8 320.5 47.4 321.1 46 321.1 C 43.6 321.1 41.6 319.3 41.6 316.2 C 41.6 313.2 43.6 311.5 46 311.5 C 47.4 311.5 48.9 312 49.8 313.3 C 49.8 313.3 49.8 310.8 49.8 310.8 C 49.8 308.8 48.7 307.7 46.8 307.7 C 45.4 307.7 44.3 308.2 43.2 309.5 C 43.2 309.5 42.2 307.9 42.2 307.9 C 43.6 306.5 45.3 305.8 47.1 305.8 C 50 305.8 51.9 307.3 51.9 310.6 C 51.93 310.56 51.9 320.7 51.9 320.7 L 49.8 320.7 Z M 49.8 317.7 C 49.8 317.7 49.8 314.9 49.8 314.9 C 49.1 313.7 47.9 313 46.6 313 C 44.8 313 43.8 314.5 43.8 316.3 C 43.8 318.1 44.8 319.5 46.6 319.5 C 47.9 319.5 49.1 318.9 49.8 317.7 Z M 70.2 320.7 C 70.2 320.7 70.2 310.2 70.2 310.2 C 70.2 308.6 69.6 307.8 68.2 307.8 C 66.9 307.8 65.6 308.9 65 310.1 C 65.04 310.08 65 320.7 65 320.7 L 62.9 320.7 C 62.9 320.7 62.88 310.2 62.9 310.2 C 62.9 308.6 62.2 307.8 60.8 307.8 C 59.5 307.8 58.3 308.9 57.7 310.1 C 57.69 310.08 57.7 320.7 57.7 320.7 L 55.6 320.7 L 55.6 306.2 L 57.7 306.2 C 57.7 306.2 57.69 308.28 57.7 308.3 C 58.3 307.2 59.9 305.8 61.6 305.8 C 63.5 305.8 64.6 306.9 64.9 308.4 C 65.6 307.1 67.3 305.8 69 305.8 C 71.1 305.8 72.4 307 72.4 309.6 C 72.36 309.63 72.4 320.7 72.4 320.7 L 70.2 320.7 Z M 75.6 324.4 C 75.9 324.6 76.3 324.7 76.6 324.7 C 77.4 324.7 77.9 324.3 78.3 323.2 C 78.27 323.22 79 321 79 321 L 74.2 306.2 L 76.6 306.2 L 80.2 318.1 L 83.8 306.2 L 86.1 306.2 C 86.1 306.2 80.31 323.76 80.3 323.8 C 79.6 325.9 78.4 326.6 76.7 326.6 C 76.3 326.6 75.6 326.5 75.3 326.4 C 75.3 326.4 75.6 324.4 75.6 324.4 Z M 88 320.7 L 88 300.7 L 90.1 300.7 L 90.1 320.7 L 88 320.7 Z M 95.9 318.6 C 95.88 318.6 95.9 326.2 95.9 326.2 L 93.7 326.2 L 93.7 306.2 L 95.9 306.2 C 95.9 306.2 95.88 308.28 95.9 308.3 C 96.7 306.8 98.2 305.8 99.7 305.8 C 103 305.8 104.9 308.9 104.9 313.4 C 104.9 318 103 321.1 99.7 321.1 C 98.2 321.1 96.8 320.2 95.9 318.6 Z M 102.6 313.4 C 102.6 310.3 101.5 307.8 99.1 307.8 C 97.8 307.8 96.4 308.8 95.9 310.1 C 95.9 310.1 95.9 316.7 95.9 316.7 C 96.4 318 97.8 319.1 99.1 319.1 C 101.5 319.1 102.6 316.6 102.6 313.4 Z M 107.8 320.7 L 107.8 306.2 L 109.9 306.2 C 109.9 306.2 109.92 308.52 109.9 308.5 C 110.8 307 112.3 305.9 114 305.9 C 114 305.9 114 308.1 114 308.1 C 113.8 308.1 113.5 308 113.3 308 C 112 308 110.5 309.2 109.9 310.4 C 109.92 310.41 109.9 320.7 109.9 320.7 L 107.8 320.7 Z M 115.5 313.4 C 115.5 309.4 117.5 305.8 121.4 305.8 C 125.3 305.8 127.3 309.4 127.3 313.4 C 127.3 317.5 125.3 321.1 121.4 321.1 C 117.5 321.1 115.5 317.5 115.5 313.4 Z M 125 313.4 C 125 310.5 123.9 307.8 121.4 307.8 C 118.9 307.8 117.7 310.5 117.7 313.4 C 117.7 316.4 118.9 319.1 121.4 319.1 C 123.9 319.1 125 316.4 125 313.4 Z M 136.9 320.7 L 133.6 314.9 L 130.3 320.7 L 127.9 320.7 L 132.3 313.3 L 128.1 306.2 L 130.5 306.2 L 133.6 311.7 L 136.7 306.2 L 139.1 306.2 L 134.9 313.3 L 139.3 320.7 L 136.9 320.7 Z M 140.9 302.6 C 140.9 301.8 141.6 301.2 142.4 301.2 C 143.2 301.2 143.9 301.8 143.9 302.6 C 143.9 303.4 143.2 304.1 142.4 304.1 C 141.6 304.1 140.9 303.4 140.9 302.6 Z M 141.4 320.7 L 141.4 306.2 L 143.5 306.2 L 143.5 320.7 L 141.4 320.7 Z M 155 320.7 C 155 320.7 154.98 310.38 155 310.4 C 155 308.5 154.1 307.8 152.7 307.8 C 151.3 307.8 149.9 308.9 149.3 310.1 C 149.28 310.08 149.3 320.7 149.3 320.7 L 147.1 320.7 L 147.1 306.2 L 149.3 306.2 C 149.3 306.2 149.28 308.28 149.3 308.3 C 150.1 307 151.7 305.8 153.5 305.8 C 155.9 305.8 157.1 307.2 157.1 309.8 C 157.14 309.78 157.1 320.7 157.1 320.7 L 155 320.7 Z M 172.3 319.1 C 174.7 319.1 175.8 316.6 175.8 313.5 C 175.8 310.3 174.7 307.8 172.3 307.8 C 171 307.8 169.6 308.9 169.1 310.2 C 169.1 310.2 169.1 316.8 169.1 316.8 C 169.6 318.1 171 319.1 172.3 319.1 Z M 166.9 320.7 L 166.9 300.7 L 169.1 300.7 C 169.1 300.7 169.08 308.31 169.1 308.3 C 170 306.7 171.4 305.8 172.9 305.8 C 176.2 305.8 178.1 309 178.1 313.5 C 178.1 318 176.2 321.1 172.9 321.1 C 171.4 321.1 169.9 320.1 169.1 318.6 C 169.08 318.63 169.1 320.7 169.1 320.7 L 166.9 320.7 Z M 180.3 313.4 C 180.3 309.2 182.5 305.8 186.2 305.8 C 190 305.8 191.9 309.3 191.9 313.5 C 191.94 313.5 191.9 314.2 191.9 314.2 C 191.9 314.2 182.55 314.16 182.5 314.2 C 182.6 317.1 184.1 319.3 186.7 319.3 C 188 319.3 189.3 318.6 190.2 317.5 C 190.2 317.5 191.3 318.7 191.3 318.7 C 190.1 320.2 188.5 321.1 186.5 321.1 C 182.7 321.1 180.3 317.9 180.3 313.4 Z M 186.2 307.6 C 183.6 307.6 182.6 310.4 182.5 312.6 C 182.5 312.6 189.8 312.6 189.8 312.6 C 189.8 310.3 188.8 307.6 186.2 307.6 Z M 202.6 320.7 C 202.6 320.7 202.62 310.38 202.6 310.4 C 202.6 308.5 201.7 307.8 200.3 307.8 C 198.9 307.8 197.6 308.9 196.9 310.1 C 196.92 310.08 196.9 320.7 196.9 320.7 L 194.8 320.7 L 194.8 306.2 L 196.9 306.2 C 196.9 306.2 196.92 308.28 196.9 308.3 C 197.8 307 199.4 305.8 201.1 305.8 C 203.6 305.8 204.8 307.2 204.8 309.8 C 204.78 309.78 204.8 320.7 204.8 320.7 L 202.6 320.7 Z M 207.7 320.7 L 207.7 319 L 214 308.1 L 207.7 308.1 L 207.7 306.2 L 216.7 306.2 L 216.7 307.9 L 210.4 318.8 L 216.8 318.8 L 216.8 320.7 L 207.7 320.7 Z M 219 313.4 C 219 309.4 221.1 305.8 224.9 305.8 C 228.8 305.8 230.8 309.4 230.8 313.4 C 230.8 317.5 228.8 321.1 224.9 321.1 C 221.1 321.1 219 317.5 219 313.4 Z M 228.6 313.4 C 228.6 310.5 227.5 307.8 224.9 307.8 C 222.4 307.8 221.3 310.5 221.3 313.4 C 221.3 316.4 222.4 319.1 224.9 319.1 C 227.5 319.1 228.6 316.4 228.6 313.4 Z M 241.2 320.7 C 241.2 320.7 241.19 319.14 241.2 319.1 C 240.3 320.5 238.9 321.1 237.4 321.1 C 235 321.1 233 319.3 233 316.2 C 233 313.2 235 311.5 237.4 311.5 C 238.9 311.5 240.3 312 241.2 313.3 C 241.2 313.3 241.2 310.8 241.2 310.8 C 241.2 308.8 240.1 307.7 238.2 307.7 C 236.9 307.7 235.7 308.2 234.6 309.5 C 234.6 309.5 233.6 307.9 233.6 307.9 C 235 306.5 236.7 305.8 238.6 305.8 C 241.4 305.8 243.4 307.3 243.4 310.6 C 243.35 310.56 243.4 320.7 243.4 320.7 L 241.2 320.7 Z M 241.2 317.7 C 241.2 317.7 241.2 314.9 241.2 314.9 C 240.5 313.7 239.3 313 238.1 313 C 236.3 313 235.2 314.5 235.2 316.3 C 235.2 318.1 236.3 319.5 238.1 319.5 C 239.3 319.5 240.5 318.9 241.2 317.7 Z M 247.4 317.8 C 247.4 317.79 247.4 308.1 247.4 308.1 L 245.5 308.1 L 245.5 306.2 L 247.4 306.2 L 247.4 302.2 L 249.6 302.2 L 249.6 306.2 L 252 306.2 L 252 308.1 L 249.6 308.1 C 249.6 308.1 249.56 317.4 249.6 317.4 C 249.6 318.5 249.9 319.1 250.7 319.1 C 251.3 319.1 251.7 318.9 252 318.6 C 252 318.6 252.7 320.2 252.7 320.2 C 252.1 320.7 251.4 321.1 250.3 321.1 C 248.3 321.1 247.4 319.9 247.4 317.8 Z M 253.9 313.4 C 253.9 309.2 256.1 305.8 259.7 305.8 C 263.5 305.8 265.5 309.3 265.5 313.5 C 265.46 313.5 265.5 314.2 265.5 314.2 C 265.5 314.2 256.07 314.16 256.1 314.2 C 256.2 317.1 257.7 319.3 260.2 319.3 C 261.5 319.3 262.8 318.6 263.7 317.5 C 263.7 317.5 264.8 318.7 264.8 318.7 C 263.7 320.2 262 321.1 260.1 321.1 C 256.2 321.1 253.9 317.9 253.9 313.4 Z M 259.7 307.6 C 257.2 307.6 256.1 310.4 256.1 312.6 C 256.1 312.6 263.3 312.6 263.3 312.6 C 263.3 310.3 262.3 307.6 259.7 307.6 Z " stroke="none" fill="#d3d2d2"/>  </g>  <g id="Polygon152510">    <path d="M 12.7 284.7 L 12.7 275.5 L 4.5 275.5 L 4.5 284.7 L 2.1 284.7 L 2.1 264.7 L 4.5 264.7 L 4.5 273.4 L 12.7 273.4 L 12.7 264.7 L 15.1 264.7 L 15.1 284.7 L 12.7 284.7 Z M 18.2 277.4 C 18.2 273.2 20.4 269.8 24.1 269.8 C 27.9 269.8 29.8 273.3 29.8 277.5 C 29.79 277.5 29.8 278.2 29.8 278.2 C 29.8 278.2 20.4 278.16 20.4 278.2 C 20.5 281.1 22 283.3 24.6 283.3 C 25.8 283.3 27.1 282.6 28 281.5 C 28 281.5 29.2 282.7 29.2 282.7 C 28 284.2 26.3 285.1 24.4 285.1 C 20.5 285.1 18.2 281.9 18.2 277.4 Z M 24 271.6 C 21.5 271.6 20.5 274.4 20.4 276.6 C 20.4 276.6 27.7 276.6 27.7 276.6 C 27.6 274.3 26.7 271.6 24 271.6 Z M 40.1 284.7 L 36.7 278.9 L 33.4 284.7 L 31 284.7 L 35.4 277.3 L 31.3 270.2 L 33.7 270.2 L 36.7 275.7 L 39.8 270.2 L 42.2 270.2 L 38.1 277.3 L 42.5 284.7 L 40.1 284.7 Z M 52 284.7 C 52 284.7 51.96 283.14 52 283.1 C 51 284.5 49.6 285.1 48.1 285.1 C 45.8 285.1 43.8 283.3 43.8 280.2 C 43.8 277.2 45.8 275.5 48.1 275.5 C 49.6 275.5 51.1 276 52 277.3 C 52 277.3 52 274.8 52 274.8 C 52 272.8 50.9 271.7 49 271.7 C 47.6 271.7 46.5 272.2 45.4 273.5 C 45.4 273.5 44.4 271.9 44.4 271.9 C 45.8 270.5 47.5 269.8 49.3 269.8 C 52.2 269.8 54.1 271.3 54.1 274.6 C 54.12 274.56 54.1 284.7 54.1 284.7 L 52 284.7 Z M 52 281.7 C 52 281.7 52 278.9 52 278.9 C 51.3 277.7 50.1 277 48.8 277 C 47 277 46 278.5 46 280.3 C 46 282.1 47 283.5 48.8 283.5 C 50.1 283.5 51.3 282.9 52 281.7 Z M 57.7 284.7 L 57.7 264.7 L 59.9 264.7 L 59.9 284.7 L 57.7 284.7 Z M 62.8 277.4 C 62.8 273.4 64.9 269.8 68.7 269.8 C 72.6 269.8 74.6 273.4 74.6 277.4 C 74.6 281.5 72.6 285.1 68.7 285.1 C 64.9 285.1 62.8 281.5 62.8 277.4 Z M 72.4 277.4 C 72.4 274.5 71.2 271.8 68.7 271.8 C 66.2 271.8 65.1 274.5 65.1 277.4 C 65.1 280.4 66.2 283.1 68.7 283.1 C 71.2 283.1 72.4 280.4 72.4 277.4 Z M 82.9 283.1 C 85.3 283.1 86.4 280.6 86.4 277.5 C 86.4 274.3 85.3 271.8 82.9 271.8 C 81.6 271.8 80.2 272.9 79.7 274.2 C 79.7 274.2 79.7 280.8 79.7 280.8 C 80.2 282.1 81.6 283.1 82.9 283.1 Z M 77.5 284.7 L 77.5 264.7 L 79.7 264.7 C 79.7 264.7 79.68 272.31 79.7 272.3 C 80.6 270.7 82 269.8 83.5 269.8 C 86.8 269.8 88.7 273 88.7 277.5 C 88.7 282 86.8 285.1 83.5 285.1 C 82 285.1 80.5 284.1 79.7 282.6 C 79.68 282.63 79.7 284.7 79.7 284.7 L 77.5 284.7 Z M 99.5 284.7 C 99.5 284.7 99.48 282.69 99.5 282.7 C 98.6 283.9 97.1 285.1 95.3 285.1 C 92.8 285.1 91.6 283.8 91.6 281.2 C 91.65 281.19 91.6 270.2 91.6 270.2 L 93.8 270.2 C 93.8 270.2 93.78 280.56 93.8 280.6 C 93.8 282.5 94.7 283.1 96.1 283.1 C 97.5 283.1 98.8 282.1 99.5 280.9 C 99.48 280.89 99.5 270.2 99.5 270.2 L 101.6 270.2 L 101.6 284.7 L 99.5 284.7 Z M 105.3 284.7 L 105.3 264.7 L 107.4 264.7 L 107.4 284.7 L 105.3 284.7 Z M 113.2 282.6 C 113.22 282.6 113.2 290.2 113.2 290.2 L 111.1 290.2 L 111.1 270.2 L 113.2 270.2 C 113.2 270.2 113.22 272.28 113.2 272.3 C 114.1 270.8 115.5 269.8 117 269.8 C 120.3 269.8 122.2 272.9 122.2 277.4 C 122.2 282 120.3 285.1 117 285.1 C 115.6 285.1 114.1 284.2 113.2 282.6 Z M 120 277.4 C 120 274.3 118.9 271.8 116.5 271.8 C 115.1 271.8 113.8 272.8 113.2 274.1 C 113.2 274.1 113.2 280.7 113.2 280.7 C 113.8 282 115.1 283.1 116.5 283.1 C 118.9 283.1 120 280.6 120 277.4 Z M 133 284.7 C 133 284.7 132.99 274.35 133 274.3 C 133 272.4 132.1 271.8 130.6 271.8 C 129.2 271.8 127.9 272.9 127.3 274.1 C 127.26 274.08 127.3 284.7 127.3 284.7 L 125.1 284.7 L 125.1 264.7 L 127.3 264.7 C 127.3 264.7 127.26 272.28 127.3 272.3 C 128.1 271 129.7 269.8 131.5 269.8 C 133.9 269.8 135.1 271.1 135.1 273.7 C 135.12 273.72 135.1 284.7 135.1 284.7 L 133 284.7 Z M 138.4 288.4 C 138.6 288.6 139.1 288.7 139.3 288.7 C 140.2 288.7 140.6 288.3 141 287.2 C 141.03 287.22 141.8 285 141.8 285 L 137 270.2 L 139.3 270.2 L 142.9 282.1 L 146.5 270.2 L 148.9 270.2 C 148.9 270.2 143.07 287.76 143.1 287.8 C 142.3 289.9 141.2 290.6 139.5 290.6 C 139 290.6 138.4 290.5 138 290.4 C 138 290.4 138.4 288.4 138.4 288.4 Z M 150.7 284.7 L 150.7 270.2 L 152.8 270.2 C 152.8 270.2 152.85 272.52 152.8 272.5 C 153.8 271 155.2 269.9 157 269.9 C 157 269.9 157 272.1 157 272.1 C 156.7 272.1 156.5 272 156.2 272 C 154.9 272 153.4 273.2 152.8 274.4 C 152.85 274.41 152.8 284.7 152.8 284.7 L 150.7 284.7 Z M 167.4 284.7 C 167.4 284.7 167.43 282.63 167.4 282.6 C 166.6 284.1 165.1 285.1 163.6 285.1 C 160.4 285.1 158.4 282 158.4 277.5 C 158.4 273 160.3 269.8 163.6 269.8 C 165.1 269.8 166.6 270.7 167.4 272.3 C 167.43 272.31 167.4 264.7 167.4 264.7 L 169.6 264.7 L 169.6 284.7 L 167.4 284.7 Z M 167.4 280.8 C 167.4 280.8 167.4 274.1 167.4 274.1 C 166.9 272.9 165.5 271.8 164.2 271.8 C 161.8 271.8 160.7 274.3 160.7 277.5 C 160.7 280.6 161.8 283.1 164.2 283.1 C 165.5 283.1 166.9 282.1 167.4 280.8 Z M 172.5 277.4 C 172.5 273.4 174.6 269.8 178.4 269.8 C 182.3 269.8 184.3 273.4 184.3 277.4 C 184.3 281.5 182.3 285.1 178.4 285.1 C 174.6 285.1 172.5 281.5 172.5 277.4 Z M 182.1 277.4 C 182.1 274.5 181 271.8 178.4 271.8 C 175.9 271.8 174.8 274.5 174.8 277.4 C 174.8 280.4 175.9 283.1 178.4 283.1 C 181 283.1 182.1 280.4 182.1 277.4 Z M 194.7 284.7 C 194.7 284.7 194.7 283.14 194.7 283.1 C 193.8 284.5 192.4 285.1 190.9 285.1 C 188.5 285.1 186.5 283.3 186.5 280.2 C 186.5 277.2 188.5 275.5 190.9 275.5 C 192.4 275.5 193.8 276 194.7 277.3 C 194.7 277.3 194.7 274.8 194.7 274.8 C 194.7 272.8 193.6 271.7 191.7 271.7 C 190.4 271.7 189.2 272.2 188.1 273.5 C 188.1 273.5 187.1 271.9 187.1 271.9 C 188.5 270.5 190.2 269.8 192.1 269.8 C 194.9 269.8 196.9 271.3 196.9 274.6 C 196.86 274.56 196.9 284.7 196.9 284.7 L 194.7 284.7 Z M 194.7 281.7 C 194.7 281.7 194.7 278.9 194.7 278.9 C 194 277.7 192.8 277 191.6 277 C 189.8 277 188.7 278.5 188.7 280.3 C 188.7 282.1 189.8 283.5 191.6 283.5 C 192.8 283.5 194 282.9 194.7 281.7 Z M 200.9 281.8 C 200.91 281.79 200.9 272.1 200.9 272.1 L 199 272.1 L 199 270.2 L 200.9 270.2 L 200.9 266.2 L 203.1 266.2 L 203.1 270.2 L 205.5 270.2 L 205.5 272.1 L 203.1 272.1 C 203.1 272.1 203.07 281.4 203.1 281.4 C 203.1 282.5 203.4 283.1 204.2 283.1 C 204.8 283.1 205.2 282.9 205.5 282.6 C 205.5 282.6 206.2 284.2 206.2 284.2 C 205.6 284.7 204.9 285.1 203.8 285.1 C 201.8 285.1 200.9 283.9 200.9 281.8 Z M 207.4 277.4 C 207.4 273.2 209.6 269.8 213.2 269.8 C 217 269.8 219 273.3 219 277.5 C 218.97 277.5 219 278.2 219 278.2 C 219 278.2 209.58 278.16 209.6 278.2 C 209.7 281.1 211.2 283.3 213.7 283.3 C 215 283.3 216.3 282.6 217.2 281.5 C 217.2 281.5 218.3 282.7 218.3 282.7 C 217.2 284.2 215.5 285.1 213.6 285.1 C 209.7 285.1 207.4 281.9 207.4 277.4 Z M 213.2 271.6 C 210.7 271.6 209.6 274.4 209.6 276.6 C 209.6 276.6 216.8 276.6 216.8 276.6 C 216.8 274.3 215.8 271.6 213.2 271.6 Z " stroke="none" fill="#d3d2d2"/>  </g>  <g id="Polygon152509">    <path d="M 1.4 238.7 C 1.4 232.7 4.4 228.4 9.2 228.4 C 12.2 228.4 13.9 230.2 15 232.3 C 15 232.3 13 233.2 13 233.2 C 12.2 231.6 10.9 230.5 9.2 230.5 C 5.9 230.5 3.9 234 3.9 238.7 C 3.9 243.4 5.9 246.9 9.2 246.9 C 11 246.9 12.3 245.7 13.1 244 C 13.1 244 15.1 244.9 15.1 244.9 C 14 247.1 12.3 249.1 9.2 249.1 C 4.4 249.1 1.4 244.7 1.4 238.7 Z M 25.1 248.7 C 25.1 248.7 25.11 247.14 25.1 247.1 C 24.2 248.5 22.8 249.1 21.3 249.1 C 19 249.1 16.9 247.3 16.9 244.2 C 16.9 241.2 18.9 239.5 21.3 239.5 C 22.8 239.5 24.2 240 25.1 241.3 C 25.1 241.3 25.1 238.8 25.1 238.8 C 25.1 236.8 24 235.7 22.1 235.7 C 20.8 235.7 19.6 236.2 18.5 237.5 C 18.5 237.5 17.5 235.9 17.5 235.9 C 18.9 234.5 20.6 233.8 22.5 233.8 C 25.3 233.8 27.3 235.3 27.3 238.6 C 27.27 238.56 27.3 248.7 27.3 248.7 L 25.1 248.7 Z M 25.1 245.7 C 25.1 245.7 25.1 242.9 25.1 242.9 C 24.4 241.7 23.2 241 22 241 C 20.2 241 19.1 242.5 19.1 244.3 C 19.1 246.1 20.2 247.5 22 247.5 C 23.2 247.5 24.4 246.9 25.1 245.7 Z M 33 246.6 C 33.03 246.6 33 254.2 33 254.2 L 30.9 254.2 L 30.9 234.2 L 33 234.2 C 33 234.2 33.03 236.28 33 236.3 C 33.9 234.8 35.3 233.8 36.8 233.8 C 40.1 233.8 42 236.9 42 241.4 C 42 246 40.1 249.1 36.8 249.1 C 35.4 249.1 33.9 248.2 33 246.6 Z M 39.8 241.4 C 39.8 238.3 38.7 235.8 36.3 235.8 C 34.9 235.8 33.6 236.8 33 238.1 C 33 238.1 33 244.7 33 244.7 C 33.6 246 34.9 247.1 36.3 247.1 C 38.7 247.1 39.8 244.6 39.8 241.4 Z M 43.8 247 C 43.8 247 44.8 245.5 44.8 245.5 C 45.7 246.5 47.1 247.3 48.6 247.3 C 50.3 247.3 51.4 246.4 51.4 245 C 51.4 241.6 44.2 242.8 44.2 237.7 C 44.2 235.6 45.9 233.8 48.8 233.8 C 50.7 233.8 52.2 234.6 53.2 235.7 C 53.2 235.7 52.2 237.2 52.2 237.2 C 51.5 236.2 50.2 235.6 48.8 235.6 C 47.2 235.6 46.3 236.5 46.3 237.7 C 46.3 240.8 53.5 239.7 53.5 244.9 C 53.5 247.3 51.6 249.1 48.7 249.1 C 46.6 249.1 45 248.4 43.8 247 Z M 63.7 248.7 C 63.7 248.7 63.69 247.14 63.7 247.1 C 62.8 248.5 61.3 249.1 59.9 249.1 C 57.5 249.1 55.5 247.3 55.5 244.2 C 55.5 241.2 57.5 239.5 59.9 239.5 C 61.3 239.5 62.8 240 63.7 241.3 C 63.7 241.3 63.7 238.8 63.7 238.8 C 63.7 236.8 62.6 235.7 60.7 235.7 C 59.4 235.7 58.2 236.2 57.1 237.5 C 57.1 237.5 56.1 235.9 56.1 235.9 C 57.5 234.5 59.2 233.8 61 233.8 C 63.9 233.8 65.8 235.3 65.8 238.6 C 65.85 238.56 65.8 248.7 65.8 248.7 L 63.7 248.7 Z M 63.7 245.7 C 63.7 245.7 63.7 242.9 63.7 242.9 C 63 241.7 61.8 241 60.6 241 C 58.8 241 57.7 242.5 57.7 244.3 C 57.7 246.1 58.8 247.5 60.6 247.5 C 61.8 247.5 63 246.9 63.7 245.7 Z M 69.1 230.6 C 69.1 229.8 69.7 229.2 70.5 229.2 C 71.3 229.2 72 229.8 72 230.6 C 72 231.4 71.3 232.1 70.5 232.1 C 69.7 232.1 69.1 231.4 69.1 230.6 Z M 69.5 248.7 L 69.5 234.2 L 71.6 234.2 L 71.6 248.7 L 69.5 248.7 Z M 74.5 241.4 C 74.5 237.1 76.8 233.8 80.5 233.8 C 82.6 233.8 83.8 234.7 84.7 235.8 C 84.7 235.8 83.5 237.2 83.5 237.2 C 82.7 236.2 81.8 235.8 80.7 235.8 C 78.1 235.8 76.8 238.3 76.8 241.4 C 76.8 244.5 78.1 247.1 80.7 247.1 C 81.8 247.1 82.7 246.7 83.5 245.7 C 83.5 245.7 84.7 247.1 84.7 247.1 C 83.8 248.3 82.6 249.1 80.5 249.1 C 76.8 249.1 74.5 245.7 74.5 241.4 Z M 86.7 230.6 C 86.7 229.8 87.4 229.2 88.2 229.2 C 89 229.2 89.7 229.8 89.7 230.6 C 89.7 231.4 89 232.1 88.2 232.1 C 87.4 232.1 86.7 231.4 86.7 230.6 Z M 87.1 248.7 L 87.1 234.2 L 89.3 234.2 L 89.3 248.7 L 87.1 248.7 Z M 100.8 248.7 C 100.8 248.7 100.77 238.38 100.8 238.4 C 100.8 236.5 99.9 235.8 98.5 235.8 C 97 235.8 95.7 236.9 95.1 238.1 C 95.07 238.08 95.1 248.7 95.1 248.7 L 92.9 248.7 L 92.9 234.2 L 95.1 234.2 C 95.1 234.2 95.07 236.28 95.1 236.3 C 95.9 235 97.5 233.8 99.3 233.8 C 101.7 233.8 102.9 235.2 102.9 237.8 C 102.93 237.78 102.9 248.7 102.9 248.7 L 100.8 248.7 Z M 105.9 241.4 C 105.9 237.4 107.9 233.8 111.7 233.8 C 115.6 233.8 117.7 237.4 117.7 241.4 C 117.7 245.5 115.6 249.1 111.7 249.1 C 107.9 249.1 105.9 245.5 105.9 241.4 Z M 115.4 241.4 C 115.4 238.5 114.3 235.8 111.7 235.8 C 109.3 235.8 108.1 238.5 108.1 241.4 C 108.1 244.4 109.3 247.1 111.7 247.1 C 114.3 247.1 115.4 244.4 115.4 241.4 Z M 128 248.7 C 128 248.7 128.04 247.14 128 247.1 C 127.1 248.5 125.7 249.1 124.2 249.1 C 121.9 249.1 119.8 247.3 119.8 244.2 C 119.8 241.2 121.9 239.5 124.2 239.5 C 125.7 239.5 127.1 240 128 241.3 C 128 241.3 128 238.8 128 238.8 C 128 236.8 127 235.7 125.1 235.7 C 123.7 235.7 122.5 236.2 121.4 237.5 C 121.4 237.5 120.5 235.9 120.5 235.9 C 121.9 234.5 123.6 233.8 125.4 233.8 C 128.3 233.8 130.2 235.3 130.2 238.6 C 130.2 238.56 130.2 248.7 130.2 248.7 L 128 248.7 Z M 128 245.7 C 128 245.7 128 242.9 128 242.9 C 127.4 241.7 126.2 241 124.9 241 C 123.1 241 122 242.5 122 244.3 C 122 246.1 123.1 247.5 124.9 247.5 C 126.2 247.5 127.4 246.9 128 245.7 Z M 134.2 245.8 C 134.25 245.79 134.2 236.1 134.2 236.1 L 132.3 236.1 L 132.3 234.2 L 134.2 234.2 L 134.2 230.2 L 136.4 230.2 L 136.4 234.2 L 138.9 234.2 L 138.9 236.1 L 136.4 236.1 C 136.4 236.1 136.41 245.4 136.4 245.4 C 136.4 246.5 136.7 247.1 137.6 247.1 C 138.1 247.1 138.6 246.9 138.8 246.6 C 138.8 246.6 139.5 248.2 139.5 248.2 C 139 248.7 138.3 249.1 137.2 249.1 C 135.2 249.1 134.2 247.9 134.2 245.8 Z M 140.7 241.4 C 140.7 237.2 142.9 233.8 146.6 233.8 C 150.4 233.8 152.3 237.3 152.3 241.5 C 152.31 241.5 152.3 242.2 152.3 242.2 C 152.3 242.2 142.92 242.16 142.9 242.2 C 143 245.1 144.5 247.3 147.1 247.3 C 148.3 247.3 149.6 246.6 150.5 245.5 C 150.5 245.5 151.7 246.7 151.7 246.7 C 150.5 248.2 148.9 249.1 146.9 249.1 C 143 249.1 140.7 245.9 140.7 241.4 Z M 146.5 235.6 C 144 235.6 143 238.4 142.9 240.6 C 142.9 240.6 150.2 240.6 150.2 240.6 C 150.1 238.3 149.2 235.6 146.5 235.6 Z " stroke="none" fill="#d3d2d2"/>  </g>  <g id="Polygon152508">    <path d="M 2.1 212.7 L 2.1 192.7 C 2.1 192.7 8.73 192.69 8.7 192.7 C 11.9 192.7 13.7 194.8 13.7 197.8 C 13.7 200.3 12.4 201.9 10.6 202.4 C 12.6 202.7 14 204.9 14 207.3 C 14 210.5 12.3 212.7 8.9 212.7 C 8.91 212.7 2.1 212.7 2.1 212.7 Z M 11.2 198.1 C 11.2 196.3 10.3 194.8 8.3 194.8 C 8.28 194.79 4.5 194.8 4.5 194.8 L 4.5 201.4 C 4.5 201.4 8.28 201.42 8.3 201.4 C 10.3 201.4 11.2 200 11.2 198.1 Z M 11.6 207.1 C 11.6 205.2 10.6 203.5 8.4 203.5 C 8.43 203.52 4.5 203.5 4.5 203.5 L 4.5 210.6 C 4.5 210.6 8.43 210.57 8.4 210.6 C 10.5 210.6 11.6 209.2 11.6 207.1 Z M 24.7 212.7 C 24.7 212.7 24.69 210.69 24.7 210.7 C 23.8 211.9 22.3 213.1 20.5 213.1 C 18 213.1 16.9 211.8 16.9 209.2 C 16.86 209.19 16.9 198.2 16.9 198.2 L 19 198.2 C 19 198.2 18.99 208.56 19 208.6 C 19 210.5 19.9 211.1 21.3 211.1 C 22.7 211.1 24.1 210.1 24.7 208.9 C 24.69 208.89 24.7 198.2 24.7 198.2 L 26.8 198.2 L 26.8 212.7 L 24.7 212.7 Z M 30.6 209.8 C 30.63 209.79 30.6 200.1 30.6 200.1 L 28.7 200.1 L 28.7 198.2 L 30.6 198.2 L 30.6 194.2 L 32.8 194.2 L 32.8 198.2 L 35.2 198.2 L 35.2 200.1 L 32.8 200.1 C 32.8 200.1 32.79 209.4 32.8 209.4 C 32.8 210.5 33.1 211.1 34 211.1 C 34.5 211.1 34.9 210.9 35.2 210.6 C 35.2 210.6 35.9 212.2 35.9 212.2 C 35.4 212.7 34.6 213.1 33.5 213.1 C 31.6 213.1 30.6 211.9 30.6 209.8 Z M 36.8 205.4 C 36.8 201.4 38.8 197.8 42.7 197.8 C 46.6 197.8 48.6 201.4 48.6 205.4 C 48.6 209.5 46.6 213.1 42.7 213.1 C 38.8 213.1 36.8 209.5 36.8 205.4 Z M 46.3 205.4 C 46.3 202.5 45.2 199.8 42.7 199.8 C 40.2 199.8 39 202.5 39 205.4 C 39 208.4 40.2 211.1 42.7 211.1 C 45.2 211.1 46.3 208.4 46.3 205.4 Z M 57.9 212.7 L 54.6 206.9 L 51.2 212.7 L 48.8 212.7 L 53.2 205.3 L 49.1 198.2 L 51.5 198.2 L 54.6 203.7 L 57.7 198.2 L 60.1 198.2 L 55.9 205.3 L 60.3 212.7 L 57.9 212.7 Z M 61.6 216.4 C 61.9 216.6 62.3 216.7 62.6 216.7 C 63.4 216.7 63.9 216.3 64.3 215.2 C 64.29 215.22 65.1 213 65.1 213 L 60.2 198.2 L 62.6 198.2 L 66.2 210.1 L 69.8 198.2 L 72.1 198.2 C 72.1 198.2 66.33 215.76 66.3 215.8 C 65.6 217.9 64.4 218.6 62.7 218.6 C 62.3 218.6 61.6 218.5 61.3 218.4 C 61.3 218.4 61.6 216.4 61.6 216.4 Z M 75.8 210.6 C 75.81 210.6 75.8 218.2 75.8 218.2 L 73.7 218.2 L 73.7 198.2 L 75.8 198.2 C 75.8 198.2 75.81 200.28 75.8 200.3 C 76.6 198.8 78.1 197.8 79.6 197.8 C 82.9 197.8 84.8 200.9 84.8 205.4 C 84.8 210 82.9 213.1 79.6 213.1 C 78.1 213.1 76.7 212.2 75.8 210.6 Z M 82.6 205.4 C 82.6 202.3 81.4 199.8 79.1 199.8 C 77.7 199.8 76.4 200.8 75.8 202.1 C 75.8 202.1 75.8 208.7 75.8 208.7 C 76.4 210 77.7 211.1 79.1 211.1 C 81.4 211.1 82.6 208.6 82.6 205.4 Z M 95.3 212.7 C 95.3 212.7 95.28 202.35 95.3 202.3 C 95.3 200.4 94.4 199.8 92.9 199.8 C 91.5 199.8 90.2 200.9 89.5 202.1 C 89.55 202.08 89.5 212.7 89.5 212.7 L 87.4 212.7 L 87.4 192.7 L 89.5 192.7 C 89.5 192.7 89.55 200.28 89.5 200.3 C 90.4 199 92 197.8 93.8 197.8 C 96.2 197.8 97.4 199.1 97.4 201.7 C 97.41 201.72 97.4 212.7 97.4 212.7 L 95.3 212.7 Z M 100 205.4 C 100 201.2 102.3 197.8 105.9 197.8 C 109.7 197.8 111.7 201.3 111.7 205.5 C 111.66 205.5 111.7 206.2 111.7 206.2 C 111.7 206.2 102.27 206.16 102.3 206.2 C 102.4 209.1 103.9 211.3 106.4 211.3 C 107.7 211.3 109 210.6 109.9 209.5 C 109.9 209.5 111 210.7 111 210.7 C 109.9 212.2 108.2 213.1 106.3 213.1 C 102.4 213.1 100 209.9 100 205.4 Z M 105.9 199.6 C 103.3 199.6 102.3 202.4 102.3 204.6 C 102.3 204.6 109.5 204.6 109.5 204.6 C 109.5 202.3 108.5 199.6 105.9 199.6 Z M 122 212.7 C 122 212.7 122.04 202.38 122 202.4 C 122 200.5 121.2 199.8 119.7 199.8 C 118.3 199.8 117 200.9 116.3 202.1 C 116.34 202.08 116.3 212.7 116.3 212.7 L 114.2 212.7 L 114.2 198.2 L 116.3 198.2 C 116.3 198.2 116.34 200.28 116.3 200.3 C 117.2 199 118.8 197.8 120.5 197.8 C 123 197.8 124.2 199.2 124.2 201.8 C 124.2 201.78 124.2 212.7 124.2 212.7 L 122 212.7 Z M 127.1 216.4 C 127.4 216.6 127.9 216.7 128.1 216.7 C 128.9 216.7 129.4 216.3 129.8 215.2 C 129.81 215.22 130.6 213 130.6 213 L 125.8 198.2 L 128.1 198.2 L 131.7 210.1 L 135.3 198.2 L 137.6 198.2 C 137.6 198.2 131.85 215.76 131.8 215.8 C 131.1 217.9 130 218.6 128.2 218.6 C 127.8 218.6 127.1 218.5 126.8 218.4 C 126.8 218.4 127.1 216.4 127.1 216.4 Z M 139.2 212.7 L 139.2 192.7 L 141.3 192.7 L 141.3 212.7 L 139.2 212.7 Z M 154 210.6 C 153.96 210.6 154 218.2 154 218.2 L 151.8 218.2 L 151.8 198.2 L 154 198.2 C 154 198.2 153.96 200.28 154 200.3 C 154.8 198.8 156.2 197.8 157.8 197.8 C 161 197.8 163 200.9 163 205.4 C 163 210 161 213.1 157.8 213.1 C 156.3 213.1 154.9 212.2 154 210.6 Z M 160.7 205.4 C 160.7 202.3 159.6 199.8 157.2 199.8 C 155.9 199.8 154.5 200.8 154 202.1 C 154 202.1 154 208.7 154 208.7 C 154.5 210 155.9 211.1 157.2 211.1 C 159.6 211.1 160.7 208.6 160.7 205.4 Z M 165.6 212.7 L 165.6 198.2 L 167.7 198.2 C 167.7 198.2 167.7 200.52 167.7 200.5 C 168.6 199 170 197.9 171.8 197.9 C 171.8 197.9 171.8 200.1 171.8 200.1 C 171.6 200.1 171.3 200 171.1 200 C 169.8 200 168.3 201.2 167.7 202.4 C 167.7 202.41 167.7 212.7 167.7 212.7 L 165.6 212.7 Z M 173 205.4 C 173 201.4 175 197.8 178.9 197.8 C 182.8 197.8 184.8 201.4 184.8 205.4 C 184.8 209.5 182.8 213.1 178.9 213.1 C 175 213.1 173 209.5 173 205.4 Z M 182.5 205.4 C 182.5 202.5 181.4 199.8 178.9 199.8 C 176.4 199.8 175.2 202.5 175.2 205.4 C 175.2 208.4 176.4 211.1 178.9 211.1 C 181.4 211.1 182.5 208.4 182.5 205.4 Z M 189.5 210.6 C 189.54 210.6 189.5 218.2 189.5 218.2 L 187.4 218.2 L 187.4 198.2 L 189.5 198.2 C 189.5 198.2 189.54 200.28 189.5 200.3 C 190.4 198.8 191.8 197.8 193.3 197.8 C 196.6 197.8 198.5 200.9 198.5 205.4 C 198.5 210 196.6 213.1 193.3 213.1 C 191.9 213.1 190.4 212.2 189.5 210.6 Z M 196.3 205.4 C 196.3 202.3 195.2 199.8 192.8 199.8 C 191.5 199.8 190.1 200.8 189.5 202.1 C 189.5 202.1 189.5 208.7 189.5 208.7 C 190.1 210 191.5 211.1 192.8 211.1 C 195.2 211.1 196.3 208.6 196.3 205.4 Z M 208.6 212.7 C 208.6 212.7 208.59 211.14 208.6 211.1 C 207.7 212.5 206.2 213.1 204.8 213.1 C 202.4 213.1 200.4 211.3 200.4 208.2 C 200.4 205.2 202.4 203.5 204.8 203.5 C 206.2 203.5 207.7 204 208.6 205.3 C 208.6 205.3 208.6 202.8 208.6 202.8 C 208.6 200.8 207.5 199.7 205.6 199.7 C 204.3 199.7 203.1 200.2 202 201.5 C 202 201.5 201 199.9 201 199.9 C 202.4 198.5 204.1 197.8 205.9 197.8 C 208.8 197.8 210.7 199.3 210.7 202.6 C 210.75 202.56 210.7 212.7 210.7 212.7 L 208.6 212.7 Z M 208.6 209.7 C 208.6 209.7 208.6 206.9 208.6 206.9 C 207.9 205.7 206.7 205 205.5 205 C 203.7 205 202.6 206.5 202.6 208.3 C 202.6 210.1 203.7 211.5 205.5 211.5 C 206.7 211.5 207.9 210.9 208.6 209.7 Z M 221.9 212.7 C 221.9 212.7 221.91 202.38 221.9 202.4 C 221.9 200.5 221 199.8 219.6 199.8 C 218.2 199.8 216.9 200.9 216.2 202.1 C 216.21 202.08 216.2 212.7 216.2 212.7 L 214.1 212.7 L 214.1 198.2 L 216.2 198.2 C 216.2 198.2 216.21 200.28 216.2 200.3 C 217 199 218.7 197.8 220.4 197.8 C 222.9 197.8 224.1 199.2 224.1 201.8 C 224.07 201.78 224.1 212.7 224.1 212.7 L 221.9 212.7 Z M 226.7 205.4 C 226.7 201.4 228.7 197.8 232.6 197.8 C 236.5 197.8 238.5 201.4 238.5 205.4 C 238.5 209.5 236.5 213.1 232.6 213.1 C 228.7 213.1 226.7 209.5 226.7 205.4 Z M 236.2 205.4 C 236.2 202.5 235.1 199.8 232.6 199.8 C 230.1 199.8 229 202.5 229 205.4 C 229 208.4 230.1 211.1 232.6 211.1 C 235.1 211.1 236.2 208.4 236.2 205.4 Z M 249 212.7 C 249 212.7 248.97 202.38 249 202.4 C 249 200.5 248.1 199.8 246.7 199.8 C 245.2 199.8 243.9 200.9 243.3 202.1 C 243.27 202.08 243.3 212.7 243.3 212.7 L 241.1 212.7 L 241.1 198.2 L 243.3 198.2 C 243.3 198.2 243.27 200.28 243.3 200.3 C 244.1 199 245.7 197.8 247.5 197.8 C 249.9 197.8 251.1 199.2 251.1 201.8 C 251.13 201.78 251.1 212.7 251.1 212.7 L 249 212.7 Z M 253.8 205.4 C 253.8 201.2 256 197.8 259.6 197.8 C 263.5 197.8 265.4 201.3 265.4 205.5 C 265.38 205.5 265.4 206.2 265.4 206.2 C 265.4 206.2 255.99 206.16 256 206.2 C 256.1 209.1 257.6 211.3 260.2 211.3 C 261.4 211.3 262.7 210.6 263.6 209.5 C 263.6 209.5 264.7 210.7 264.7 210.7 C 263.6 212.2 261.9 213.1 260 213.1 C 256.1 213.1 253.8 209.9 253.8 205.4 Z M 259.6 199.6 C 257.1 199.6 256 202.4 256 204.6 C 256 204.6 263.2 204.6 263.2 204.6 C 263.2 202.3 262.3 199.6 259.6 199.6 Z " stroke="none" fill="#d3d2d2"/>  </g>  <g id="Polygon152507">    <path d="M 4.9 182.7 C 2.6 178.8 1.4 174.2 1.4 169.4 C 1.4 164.6 2.6 160 4.9 156.1 C 4.9 156.1 6.3 157 6.3 157 C 4.7 160.8 3.8 164.4 3.8 169.4 C 3.8 174.4 4.7 178 6.3 181.8 C 6.3 181.8 4.9 182.7 4.9 182.7 Z M 22.6 176.7 L 22.6 161 L 17.3 176.7 L 16.3 176.7 L 11.1 161 L 11.1 176.7 L 8.7 176.7 L 8.7 156.7 L 12 156.7 L 16.8 170.9 L 21.7 156.7 L 25 156.7 L 25 176.7 L 22.6 176.7 Z M 28 169.4 C 28 165.2 30.2 161.8 33.9 161.8 C 37.7 161.8 39.6 165.3 39.6 169.5 C 39.63 169.5 39.6 170.2 39.6 170.2 C 39.6 170.2 30.24 170.16 30.2 170.2 C 30.3 173.1 31.8 175.3 34.4 175.3 C 35.7 175.3 37 174.6 37.9 173.5 C 37.9 173.5 39 174.7 39 174.7 C 37.8 176.2 36.2 177.1 34.2 177.1 C 30.4 177.1 28 173.9 28 169.4 Z M 33.9 163.6 C 31.3 163.6 30.3 166.4 30.2 168.6 C 30.2 168.6 37.5 168.6 37.5 168.6 C 37.5 166.3 36.5 163.6 33.9 163.6 Z M 42.9 173.8 C 42.9 173.79 42.9 164.1 42.9 164.1 L 41 164.1 L 41 162.2 L 42.9 162.2 L 42.9 158.2 L 45.1 158.2 L 45.1 162.2 L 47.5 162.2 L 47.5 164.1 L 45.1 164.1 C 45.1 164.1 45.06 173.4 45.1 173.4 C 45.1 174.5 45.4 175.1 46.2 175.1 C 46.8 175.1 47.2 174.9 47.5 174.6 C 47.5 174.6 48.1 176.2 48.1 176.2 C 47.6 176.7 46.9 177.1 45.8 177.1 C 43.8 177.1 42.9 175.9 42.9 173.8 Z M 57.9 176.7 C 57.9 176.7 57.93 166.35 57.9 166.3 C 57.9 164.4 57 163.8 55.6 163.8 C 54.2 163.8 52.9 164.9 52.2 166.1 C 52.2 166.08 52.2 176.7 52.2 176.7 L 50.1 176.7 L 50.1 156.7 L 52.2 156.7 C 52.2 156.7 52.2 164.28 52.2 164.3 C 53 163 54.7 161.8 56.4 161.8 C 58.9 161.8 60.1 163.1 60.1 165.7 C 60.06 165.72 60.1 176.7 60.1 176.7 L 57.9 176.7 Z M 63.3 180.4 C 63.6 180.6 64 180.7 64.3 180.7 C 65.1 180.7 65.6 180.3 66 179.2 C 65.97 179.22 66.7 177 66.7 177 L 61.9 162.2 L 64.3 162.2 L 67.9 174.1 L 71.5 162.2 L 73.8 162.2 C 73.8 162.2 68.01 179.76 68 179.8 C 67.3 181.9 66.1 182.6 64.4 182.6 C 64 182.6 63.3 182.5 63 182.4 C 63 182.4 63.3 180.4 63.3 180.4 Z M 75.7 176.7 L 75.7 156.7 L 77.8 156.7 L 77.8 176.7 L 75.7 176.7 Z M 81.9 173.8 C 81.87 173.79 81.9 164.1 81.9 164.1 L 79.9 164.1 L 79.9 162.2 L 81.9 162.2 L 81.9 158.2 L 84 158.2 L 84 162.2 L 86.5 162.2 L 86.5 164.1 L 84 164.1 C 84 164.1 84.03 173.4 84 173.4 C 84 174.5 84.4 175.1 85.2 175.1 C 85.7 175.1 86.2 174.9 86.5 174.6 C 86.5 174.6 87.1 176.2 87.1 176.2 C 86.6 176.7 85.9 177.1 84.8 177.1 C 82.8 177.1 81.9 175.9 81.9 173.8 Z M 96.9 176.7 C 96.9 176.7 96.9 166.35 96.9 166.3 C 96.9 164.4 96 163.8 94.6 163.8 C 93.1 163.8 91.8 164.9 91.2 166.1 C 91.17 166.08 91.2 176.7 91.2 176.7 L 89 176.7 L 89 156.7 L 91.2 156.7 C 91.2 156.7 91.17 164.28 91.2 164.3 C 92 163 93.7 161.8 95.4 161.8 C 97.9 161.8 99 163.1 99 165.7 C 99.03 165.72 99 176.7 99 176.7 L 96.9 176.7 Z M 102.3 158.6 C 102.3 157.8 103 157.2 103.7 157.2 C 104.5 157.2 105.2 157.8 105.2 158.6 C 105.2 159.4 104.5 160.1 103.7 160.1 C 103 160.1 102.3 159.4 102.3 158.6 Z M 102.7 176.7 L 102.7 162.2 L 104.8 162.2 L 104.8 176.7 L 102.7 176.7 Z M 107.8 169.4 C 107.8 165.4 109.8 161.8 113.6 161.8 C 117.5 161.8 119.5 165.4 119.5 169.4 C 119.5 173.5 117.5 177.1 113.6 177.1 C 109.8 177.1 107.8 173.5 107.8 169.4 Z M 117.3 169.4 C 117.3 166.5 116.2 163.8 113.6 163.8 C 111.1 163.8 110 166.5 110 169.4 C 110 172.4 111.1 175.1 113.6 175.1 C 116.2 175.1 117.3 172.4 117.3 169.4 Z M 121 181.8 C 122.6 178 123.6 174.4 123.6 169.4 C 123.6 164.4 122.6 160.8 121 157 C 121 157 122.4 156.1 122.4 156.1 C 124.7 160 126 164.6 126 169.4 C 126 174.2 124.7 178.8 122.4 182.7 C 122.4 182.7 121 181.8 121 181.8 Z M 128.3 169.4 C 128.3 165.4 130.4 161.8 134.2 161.8 C 138.1 161.8 140.1 165.4 140.1 169.4 C 140.1 173.5 138.1 177.1 134.2 177.1 C 130.4 177.1 128.3 173.5 128.3 169.4 Z M 137.9 169.4 C 137.9 166.5 136.8 163.8 134.2 163.8 C 131.7 163.8 130.6 166.5 130.6 169.4 C 130.6 172.4 131.7 175.1 134.2 175.1 C 136.8 175.1 137.9 172.4 137.9 169.4 Z M 142.3 169.4 C 142.3 165.1 144.6 161.8 148.3 161.8 C 150.4 161.8 151.6 162.7 152.5 163.8 C 152.5 163.8 151.3 165.2 151.3 165.2 C 150.5 164.2 149.6 163.8 148.5 163.8 C 145.9 163.8 144.6 166.3 144.6 169.4 C 144.6 172.5 145.9 175.1 148.5 175.1 C 149.6 175.1 150.5 174.7 151.3 173.7 C 151.3 173.7 152.5 175.1 152.5 175.1 C 151.6 176.3 150.4 177.1 148.3 177.1 C 144.6 177.1 142.3 173.7 142.3 169.4 Z M 155.4 173.8 C 155.37 173.79 155.4 164.1 155.4 164.1 L 153.4 164.1 L 153.4 162.2 L 155.4 162.2 L 155.4 158.2 L 157.5 158.2 L 157.5 162.2 L 160 162.2 L 160 164.1 L 157.5 164.1 C 157.5 164.1 157.53 173.4 157.5 173.4 C 157.5 174.5 157.9 175.1 158.7 175.1 C 159.2 175.1 159.7 174.9 160 174.6 C 160 174.6 160.6 176.2 160.6 176.2 C 160.1 176.7 159.4 177.1 158.3 177.1 C 156.3 177.1 155.4 175.9 155.4 173.8 Z M 170 176.7 C 170 176.7 169.98 175.14 170 175.1 C 169 176.5 167.6 177.1 166.2 177.1 C 163.8 177.1 161.8 175.3 161.8 172.2 C 161.8 169.2 163.8 167.5 166.2 167.5 C 167.6 167.5 169.1 168 170 169.3 C 170 169.3 170 166.8 170 166.8 C 170 164.8 168.9 163.7 167 163.7 C 165.7 163.7 164.5 164.2 163.4 165.5 C 163.4 165.5 162.4 163.9 162.4 163.9 C 163.8 162.5 165.5 161.8 167.3 161.8 C 170.2 161.8 172.1 163.3 172.1 166.6 C 172.14 166.56 172.1 176.7 172.1 176.7 L 170 176.7 Z M 170 173.7 C 170 173.7 170 170.9 170 170.9 C 169.3 169.7 168.1 169 166.9 169 C 165.1 169 164 170.5 164 172.3 C 164 174.1 165.1 175.5 166.9 175.5 C 168.1 175.5 169.3 174.9 170 173.7 Z M 183.6 176.7 C 183.6 176.7 183.6 166.38 183.6 166.4 C 183.6 164.5 182.7 163.8 181.3 163.8 C 179.9 163.8 178.6 164.9 177.9 166.1 C 177.9 166.08 177.9 176.7 177.9 176.7 L 175.8 176.7 L 175.8 162.2 L 177.9 162.2 C 177.9 162.2 177.9 164.28 177.9 164.3 C 178.7 163 180.4 161.8 182.1 161.8 C 184.6 161.8 185.8 163.2 185.8 165.8 C 185.76 165.78 185.8 176.7 185.8 176.7 L 183.6 176.7 Z M 188.3 170.4 L 188.3 168.5 L 194.5 168.5 L 194.5 170.4 L 188.3 170.4 Z M 196 173.7 C 196 173.7 197.6 172.3 197.6 172.3 C 198.5 173.8 200 174.9 201.9 174.9 C 204.3 174.9 205.5 173.4 205.5 171.1 C 205.5 168.4 203.7 167.5 201.7 167.5 C 201.1 167.5 200.4 167.5 200.1 167.5 C 200.1 167.5 200.1 165.4 200.1 165.4 C 200.4 165.4 201.1 165.4 201.6 165.4 C 203.6 165.4 205.3 164.3 205.3 162 C 205.3 159.7 203.8 158.5 201.8 158.5 C 200 158.5 198.8 159.4 197.8 160.9 C 197.8 160.9 196.3 159.5 196.3 159.5 C 197.5 157.6 199.5 156.4 202 156.4 C 205.2 156.4 207.6 158.2 207.6 161.7 C 207.6 164.2 205.9 165.9 204.1 166.3 C 205.8 166.6 207.9 168.4 207.9 171.3 C 207.9 174.6 205.8 177.1 202 177.1 C 199.1 177.1 197 175.6 196 173.7 Z M 209.9 170.4 L 209.9 168.5 L 216.1 168.5 L 216.1 170.4 L 209.9 170.4 Z M 218 169.4 C 218 165.4 220 161.8 223.9 161.8 C 227.8 161.8 229.8 165.4 229.8 169.4 C 229.8 173.5 227.8 177.1 223.9 177.1 C 220 177.1 218 173.5 218 169.4 Z M 227.5 169.4 C 227.5 166.5 226.4 163.8 223.9 163.8 C 221.4 163.8 220.3 166.5 220.3 169.4 C 220.3 172.4 221.4 175.1 223.9 175.1 C 226.4 175.1 227.5 172.4 227.5 169.4 Z M 240.6 176.7 C 240.6 176.7 240.56 166.38 240.6 166.4 C 240.6 164.5 239.7 163.8 238.3 163.8 C 236.8 163.8 235.5 164.9 234.9 166.1 C 234.86 166.08 234.9 176.7 234.9 176.7 L 232.7 176.7 L 232.7 162.2 L 234.9 162.2 C 234.9 162.2 234.86 164.28 234.9 164.3 C 235.7 163 237.3 161.8 239.1 161.8 C 241.5 161.8 242.7 163.2 242.7 165.8 C 242.72 165.78 242.7 176.7 242.7 176.7 L 240.6 176.7 Z M 245.7 169.4 C 245.7 165.2 247.9 161.8 251.5 161.8 C 255.4 161.8 257.3 165.3 257.3 169.5 C 257.27 169.5 257.3 170.2 257.3 170.2 C 257.3 170.2 247.88 170.16 247.9 170.2 C 248 173.1 249.5 175.3 252.1 175.3 C 253.3 175.3 254.6 174.6 255.5 173.5 C 255.5 173.5 256.6 174.7 256.6 174.7 C 255.5 176.2 253.8 177.1 251.9 177.1 C 248 177.1 245.7 173.9 245.7 169.4 Z M 251.5 163.6 C 249 163.6 247.9 166.4 247.9 168.6 C 247.9 168.6 255.1 168.6 255.1 168.6 C 255.1 166.3 254.2 163.6 251.5 163.6 Z " stroke="none" fill="#d3d2d2"/>  </g>  <g id="Polygon152506">    <path d="M 2.1 140.7 L 2.1 120.7 L 12.4 120.7 L 12.4 122.8 L 4.5 122.8 L 4.5 129.4 L 12.2 129.4 L 12.2 131.5 L 4.5 131.5 L 4.5 138.6 L 12.4 138.6 L 12.4 140.7 L 2.1 140.7 Z M 15.9 137.8 C 15.93 137.79 15.9 128.1 15.9 128.1 L 14 128.1 L 14 126.2 L 15.9 126.2 L 15.9 122.2 L 18.1 122.2 L 18.1 126.2 L 20.5 126.2 L 20.5 128.1 L 18.1 128.1 C 18.1 128.1 18.09 137.4 18.1 137.4 C 18.1 138.5 18.4 139.1 19.3 139.1 C 19.8 139.1 20.2 138.9 20.5 138.6 C 20.5 138.6 21.2 140.2 21.2 140.2 C 20.7 140.7 19.9 141.1 18.8 141.1 C 16.9 141.1 15.9 139.9 15.9 137.8 Z M 31 140.7 C 31 140.7 30.96 130.35 31 130.3 C 31 128.4 30.1 127.8 28.6 127.8 C 27.2 127.8 25.9 128.9 25.2 130.1 C 25.23 130.08 25.2 140.7 25.2 140.7 L 23.1 140.7 L 23.1 120.7 L 25.2 120.7 C 25.2 120.7 25.23 128.28 25.2 128.3 C 26.1 127 27.7 125.8 29.5 125.8 C 31.9 125.8 33.1 127.1 33.1 129.7 C 33.09 129.72 33.1 140.7 33.1 140.7 L 31 140.7 Z M 36.3 144.4 C 36.6 144.6 37 144.7 37.3 144.7 C 38.1 144.7 38.6 144.3 39 143.2 C 39 143.22 39.8 141 39.8 141 L 34.9 126.2 L 37.3 126.2 L 40.9 138.1 L 44.5 126.2 L 46.8 126.2 C 46.8 126.2 41.04 143.76 41 143.8 C 40.3 145.9 39.1 146.6 37.4 146.6 C 37 146.6 36.3 146.5 36 146.4 C 36 146.4 36.3 144.4 36.3 144.4 Z M 48.7 140.7 L 48.7 120.7 L 50.8 120.7 L 50.8 140.7 L 48.7 140.7 Z M 62.8 140.7 C 62.8 140.7 62.76 138.63 62.8 138.6 C 61.9 140.1 60.5 141.1 58.9 141.1 C 55.7 141.1 53.8 138 53.8 133.5 C 53.8 129 55.7 125.8 58.9 125.8 C 60.4 125.8 61.9 126.7 62.8 128.3 C 62.76 128.31 62.8 120.7 62.8 120.7 L 64.9 120.7 L 64.9 140.7 L 62.8 140.7 Z M 62.8 136.8 C 62.8 136.8 62.8 130.1 62.8 130.1 C 62.2 128.9 60.9 127.8 59.5 127.8 C 57.1 127.8 56 130.3 56 133.5 C 56 136.6 57.1 139.1 59.5 139.1 C 60.9 139.1 62.2 138.1 62.8 136.8 Z M 68.2 122.6 C 68.2 121.8 68.8 121.2 69.6 121.2 C 70.4 121.2 71.1 121.8 71.1 122.6 C 71.1 123.4 70.4 124.1 69.6 124.1 C 68.8 124.1 68.2 123.4 68.2 122.6 Z M 68.6 140.7 L 68.6 126.2 L 70.7 126.2 L 70.7 140.7 L 68.6 140.7 Z M 82.2 140.7 C 82.2 140.7 82.23 130.35 82.2 130.3 C 82.2 128.4 81.3 127.8 79.9 127.8 C 78.5 127.8 77.2 128.9 76.5 130.1 C 76.5 130.08 76.5 140.7 76.5 140.7 L 74.4 140.7 L 74.4 120.7 L 76.5 120.7 C 76.5 120.7 76.5 128.28 76.5 128.3 C 77.3 127 79 125.8 80.7 125.8 C 83.2 125.8 84.4 127.1 84.4 129.7 C 84.36 129.72 84.4 140.7 84.4 140.7 L 82.2 140.7 Z M 87.6 144.4 C 87.9 144.6 88.3 144.7 88.6 144.7 C 89.4 144.7 89.9 144.3 90.3 143.2 C 90.27 143.22 91 141 91 141 L 86.2 126.2 L 88.6 126.2 L 92.2 138.1 L 95.8 126.2 L 98.1 126.2 C 98.1 126.2 92.31 143.76 92.3 143.8 C 91.6 145.9 90.4 146.6 88.7 146.6 C 88.3 146.6 87.6 146.5 87.3 146.4 C 87.3 146.4 87.6 144.4 87.6 144.4 Z M 108.2 140.7 C 108.2 140.7 108.24 138.63 108.2 138.6 C 107.4 140.1 106 141.1 104.4 141.1 C 101.2 141.1 99.2 138 99.2 133.5 C 99.2 129 101.2 125.8 104.4 125.8 C 105.9 125.8 107.4 126.7 108.2 128.3 C 108.24 128.31 108.2 120.7 108.2 120.7 L 110.4 120.7 L 110.4 140.7 L 108.2 140.7 Z M 108.2 136.8 C 108.2 136.8 108.2 130.1 108.2 130.1 C 107.7 128.9 106.3 127.8 105 127.8 C 102.6 127.8 101.5 130.3 101.5 133.5 C 101.5 136.6 102.6 139.1 105 139.1 C 106.3 139.1 107.7 138.1 108.2 136.8 Z M 114.1 140.7 L 114.1 126.2 L 116.2 126.2 C 116.2 126.2 116.19 128.52 116.2 128.5 C 117.1 127 118.5 125.9 120.3 125.9 C 120.3 125.9 120.3 128.1 120.3 128.1 C 120.1 128.1 119.8 128 119.6 128 C 118.3 128 116.8 129.2 116.2 130.4 C 116.19 130.41 116.2 140.7 116.2 140.7 L 114.1 140.7 Z M 121.8 133.4 C 121.8 129.4 123.8 125.8 127.6 125.8 C 131.5 125.8 133.6 129.4 133.6 133.4 C 133.6 137.5 131.5 141.1 127.6 141.1 C 123.8 141.1 121.8 137.5 121.8 133.4 Z M 131.3 133.4 C 131.3 130.5 130.2 127.8 127.6 127.8 C 125.2 127.8 124 130.5 124 133.4 C 124 136.4 125.2 139.1 127.6 139.1 C 130.2 139.1 131.3 136.4 131.3 133.4 Z M 143.1 137.8 C 143.07 137.79 143.1 128.1 143.1 128.1 L 141.1 128.1 L 141.1 126.2 L 143.1 126.2 L 143.1 122.2 L 145.2 122.2 L 145.2 126.2 L 147.7 126.2 L 147.7 128.1 L 145.2 128.1 C 145.2 128.1 145.23 137.4 145.2 137.4 C 145.2 138.5 145.6 139.1 146.4 139.1 C 146.9 139.1 147.4 138.9 147.7 138.6 C 147.7 138.6 148.3 140.2 148.3 140.2 C 147.8 140.7 147.1 141.1 146 141.1 C 144 141.1 143.1 139.9 143.1 137.8 Z M 158.1 140.7 C 158.1 140.7 158.1 130.35 158.1 130.3 C 158.1 128.4 157.2 127.8 155.8 127.8 C 154.3 127.8 153 128.9 152.4 130.1 C 152.37 130.08 152.4 140.7 152.4 140.7 L 150.2 140.7 L 150.2 120.7 L 152.4 120.7 C 152.4 120.7 152.37 128.28 152.4 128.3 C 153.2 127 154.9 125.8 156.6 125.8 C 159.1 125.8 160.2 127.1 160.2 129.7 C 160.23 129.72 160.2 140.7 160.2 140.7 L 158.1 140.7 Z M 163.5 122.6 C 163.5 121.8 164.2 121.2 164.9 121.2 C 165.7 121.2 166.4 121.8 166.4 122.6 C 166.4 123.4 165.7 124.1 164.9 124.1 C 164.2 124.1 163.5 123.4 163.5 122.6 Z M 163.9 140.7 L 163.9 126.2 L 166 126.2 L 166 140.7 L 163.9 140.7 Z M 177.1 140.7 C 177.1 140.7 177.12 139.14 177.1 139.1 C 176.2 140.5 174.8 141.1 173.3 141.1 C 171 141.1 168.9 139.3 168.9 136.2 C 168.9 133.2 170.9 131.5 173.3 131.5 C 174.8 131.5 176.2 132 177.1 133.3 C 177.1 133.3 177.1 130.8 177.1 130.8 C 177.1 128.8 176 127.7 174.1 127.7 C 172.8 127.7 171.6 128.2 170.5 129.5 C 170.5 129.5 169.6 127.9 169.6 127.9 C 170.9 126.5 172.6 125.8 174.5 125.8 C 177.4 125.8 179.3 127.3 179.3 130.6 C 179.28 130.56 179.3 140.7 179.3 140.7 L 177.1 140.7 Z M 177.1 137.7 C 177.1 137.7 177.1 134.9 177.1 134.9 C 176.5 133.7 175.3 133 174 133 C 172.2 133 171.1 134.5 171.1 136.3 C 171.1 138.1 172.2 139.5 174 139.5 C 175.3 139.5 176.5 138.9 177.1 137.7 Z M 182.2 140.7 L 182.2 139 L 188.5 128.1 L 182.2 128.1 L 182.2 126.2 L 191.1 126.2 L 191.1 127.9 L 184.9 138.8 L 191.2 138.8 L 191.2 140.7 L 182.2 140.7 Z M 193.5 133.4 C 193.5 129.4 195.5 125.8 199.4 125.8 C 203.3 125.8 205.3 129.4 205.3 133.4 C 205.3 137.5 203.3 141.1 199.4 141.1 C 195.5 141.1 193.5 137.5 193.5 133.4 Z M 203 133.4 C 203 130.5 201.9 127.8 199.4 127.8 C 196.9 127.8 195.7 130.5 195.7 133.4 C 195.7 136.4 196.9 139.1 199.4 139.1 C 201.9 139.1 203 136.4 203 133.4 Z M 208.2 140.7 L 208.2 120.7 L 210.4 120.7 L 210.4 140.7 L 208.2 140.7 Z M 213.3 133.4 C 213.3 129.2 215.5 125.8 219.2 125.8 C 223 125.8 224.9 129.3 224.9 133.5 C 224.9 133.5 224.9 134.2 224.9 134.2 C 224.9 134.2 215.51 134.16 215.5 134.2 C 215.6 137.1 217.1 139.3 219.7 139.3 C 220.9 139.3 222.2 138.6 223.1 137.5 C 223.1 137.5 224.3 138.7 224.3 138.7 C 223.1 140.2 221.5 141.1 219.5 141.1 C 215.6 141.1 213.3 137.9 213.3 133.4 Z M 219.1 127.6 C 216.6 127.6 215.6 130.4 215.5 132.6 C 215.5 132.6 222.8 132.6 222.8 132.6 C 222.7 130.3 221.8 127.6 219.1 127.6 Z " stroke="none" fill="#d3d2d2"/>  </g>  <g id="Polygon152505">    <path d="M 16 104.7 L 16 89 L 10.7 104.7 L 9.8 104.7 L 4.5 89 L 4.5 104.7 L 2.1 104.7 L 2.1 84.7 L 5.4 84.7 L 10.3 98.9 L 15.1 84.7 L 18.4 84.7 L 18.4 104.7 L 16 104.7 Z M 21.4 97.4 C 21.4 93.2 23.7 89.8 27.3 89.8 C 31.1 89.8 33.1 93.3 33.1 97.5 C 33.06 97.5 33.1 98.2 33.1 98.2 C 33.1 98.2 23.67 98.16 23.7 98.2 C 23.8 101.1 25.3 103.3 27.8 103.3 C 29.1 103.3 30.4 102.6 31.3 101.5 C 31.3 101.5 32.4 102.7 32.4 102.7 C 31.3 104.2 29.6 105.1 27.7 105.1 C 23.8 105.1 21.4 101.9 21.4 97.4 Z M 27.3 91.6 C 24.7 91.6 23.7 94.4 23.7 96.6 C 23.7 96.6 30.9 96.6 30.9 96.6 C 30.9 94.3 29.9 91.6 27.3 91.6 Z M 35.9 104.7 L 35.9 90.2 L 38 90.2 C 38 90.2 38.04 92.52 38 92.5 C 39 91 40.4 89.9 42.1 89.9 C 42.1 89.9 42.1 92.1 42.1 92.1 C 41.9 92.1 41.7 92 41.4 92 C 40.1 92 38.6 93.2 38 94.4 C 38.04 94.41 38 104.7 38 104.7 L 35.9 104.7 Z M 43.6 97.4 C 43.6 93.1 45.9 89.8 49.6 89.8 C 51.6 89.8 52.9 90.7 53.8 91.8 C 53.8 91.8 52.6 93.2 52.6 93.2 C 51.8 92.2 50.9 91.8 49.8 91.8 C 47.2 91.8 45.9 94.3 45.9 97.4 C 45.9 100.5 47.2 103.1 49.8 103.1 C 50.9 103.1 51.8 102.7 52.6 101.7 C 52.6 101.7 53.8 103.1 53.8 103.1 C 52.9 104.3 51.6 105.1 49.6 105.1 C 45.9 105.1 43.6 101.7 43.6 97.4 Z M 63.7 104.7 C 63.7 104.7 63.66 103.14 63.7 103.1 C 62.7 104.5 61.3 105.1 59.8 105.1 C 57.5 105.1 55.5 103.3 55.5 100.2 C 55.5 97.2 57.5 95.5 59.8 95.5 C 61.3 95.5 62.8 96 63.7 97.3 C 63.7 97.3 63.7 94.8 63.7 94.8 C 63.7 92.8 62.6 91.7 60.7 91.7 C 59.3 91.7 58.2 92.2 57.1 93.5 C 57.1 93.5 56.1 91.9 56.1 91.9 C 57.5 90.5 59.2 89.8 61 89.8 C 63.9 89.8 65.8 91.3 65.8 94.6 C 65.82 94.56 65.8 104.7 65.8 104.7 L 63.7 104.7 Z M 63.7 101.7 C 63.7 101.7 63.7 98.9 63.7 98.9 C 63 97.7 61.8 97 60.5 97 C 58.7 97 57.7 98.5 57.7 100.3 C 57.7 102.1 58.7 103.5 60.5 103.5 C 61.8 103.5 63 102.9 63.7 101.7 Z M 71.6 102.6 C 71.58 102.6 71.6 110.2 71.6 110.2 L 69.4 110.2 L 69.4 90.2 L 71.6 90.2 C 71.6 90.2 71.58 92.28 71.6 92.3 C 72.4 90.8 73.9 89.8 75.4 89.8 C 78.7 89.8 80.6 92.9 80.6 97.4 C 80.6 102 78.7 105.1 75.4 105.1 C 73.9 105.1 72.5 104.2 71.6 102.6 Z M 78.3 97.4 C 78.3 94.3 77.2 91.8 74.8 91.8 C 73.5 91.8 72.1 92.8 71.6 94.1 C 71.6 94.1 71.6 100.7 71.6 100.7 C 72.1 102 73.5 103.1 74.8 103.1 C 77.2 103.1 78.3 100.6 78.3 97.4 Z M 83.9 101.8 C 83.91 101.79 83.9 92.1 83.9 92.1 L 82 92.1 L 82 90.2 L 83.9 90.2 L 83.9 86.2 L 86.1 86.2 L 86.1 90.2 L 88.5 90.2 L 88.5 92.1 L 86.1 92.1 C 86.1 92.1 86.07 101.4 86.1 101.4 C 86.1 102.5 86.4 103.1 87.2 103.1 C 87.8 103.1 88.2 102.9 88.5 102.6 C 88.5 102.6 89.2 104.2 89.2 104.2 C 88.6 104.7 87.9 105.1 86.8 105.1 C 84.8 105.1 83.9 103.9 83.9 101.8 Z M 90.4 97.4 C 90.4 93.4 92.4 89.8 96.2 89.8 C 100.1 89.8 102.1 93.4 102.1 97.4 C 102.1 101.5 100.1 105.1 96.2 105.1 C 92.4 105.1 90.4 101.5 90.4 97.4 Z M 99.9 97.4 C 99.9 94.5 98.8 91.8 96.2 91.8 C 93.7 91.8 92.6 94.5 92.6 97.4 C 92.6 100.4 93.7 103.1 96.2 103.1 C 98.8 103.1 99.9 100.4 99.9 97.4 Z M 104 98.4 L 104 96.5 L 110.2 96.5 L 110.2 98.4 L 104 98.4 Z M 127.4 104.7 C 127.4 104.7 127.44 94.2 127.4 94.2 C 127.4 92.6 126.8 91.8 125.4 91.8 C 124.1 91.8 122.8 92.9 122.3 94.1 C 122.28 94.08 122.3 104.7 122.3 104.7 L 120.1 104.7 C 120.1 104.7 120.12 94.2 120.1 94.2 C 120.1 92.6 119.5 91.8 118.1 91.8 C 116.8 91.8 115.6 92.9 114.9 94.1 C 114.93 94.08 114.9 104.7 114.9 104.7 L 112.8 104.7 L 112.8 90.2 L 114.9 90.2 C 114.9 90.2 114.93 92.28 114.9 92.3 C 115.5 91.2 117.1 89.8 118.9 89.8 C 120.7 89.8 121.9 90.9 122.2 92.4 C 122.9 91.1 124.5 89.8 126.2 89.8 C 128.4 89.8 129.6 91 129.6 93.6 C 129.6 93.63 129.6 104.7 129.6 104.7 L 127.4 104.7 Z M 132.5 97.4 C 132.5 93.2 134.8 89.8 138.4 89.8 C 142.2 89.8 144.1 93.3 144.1 97.5 C 144.15 97.5 144.1 98.2 144.1 98.2 C 144.1 98.2 134.76 98.16 134.8 98.2 C 134.8 101.1 136.3 103.3 138.9 103.3 C 140.2 103.3 141.5 102.6 142.4 101.5 C 142.4 101.5 143.5 102.7 143.5 102.7 C 142.3 104.2 140.7 105.1 138.7 105.1 C 134.9 105.1 132.5 101.9 132.5 97.4 Z M 138.4 91.6 C 135.8 91.6 134.8 94.4 134.8 96.6 C 134.8 96.6 142 96.6 142 96.6 C 142 94.3 141 91.6 138.4 91.6 Z M 147.4 101.8 C 147.42 101.79 147.4 92.1 147.4 92.1 L 145.5 92.1 L 145.5 90.2 L 147.4 90.2 L 147.4 86.2 L 149.6 86.2 L 149.6 90.2 L 152 90.2 L 152 92.1 L 149.6 92.1 C 149.6 92.1 149.58 101.4 149.6 101.4 C 149.6 102.5 149.9 103.1 150.7 103.1 C 151.3 103.1 151.7 102.9 152 102.6 C 152 102.6 152.7 104.2 152.7 104.2 C 152.2 104.7 151.4 105.1 150.3 105.1 C 148.3 105.1 147.4 103.9 147.4 101.8 Z M 162.4 104.7 C 162.4 104.7 162.45 94.35 162.4 94.3 C 162.4 92.4 161.5 91.8 160.1 91.8 C 158.7 91.8 157.4 92.9 156.7 94.1 C 156.72 94.08 156.7 104.7 156.7 104.7 L 154.6 104.7 L 154.6 84.7 L 156.7 84.7 C 156.7 84.7 156.72 92.28 156.7 92.3 C 157.6 91 159.2 89.8 160.9 89.8 C 163.4 89.8 164.6 91.1 164.6 93.7 C 164.58 93.72 164.6 104.7 164.6 104.7 L 162.4 104.7 Z M 167.8 108.4 C 168.1 108.6 168.5 108.7 168.8 108.7 C 169.6 108.7 170.1 108.3 170.5 107.2 C 170.49 107.22 171.3 105 171.3 105 L 166.4 90.2 L 168.8 90.2 L 172.4 102.1 L 176 90.2 L 178.3 90.2 C 178.3 90.2 172.53 107.76 172.5 107.8 C 171.8 109.9 170.6 110.6 168.9 110.6 C 168.5 110.6 167.8 110.5 167.5 110.4 C 167.5 110.4 167.8 108.4 167.8 108.4 Z M 180.2 104.7 L 180.2 84.7 L 182.3 84.7 L 182.3 104.7 L 180.2 104.7 Z M 191.4 103.1 C 193.7 103.1 194.8 100.6 194.8 97.5 C 194.8 94.3 193.7 91.8 191.4 91.8 C 190 91.8 188.7 92.9 188.1 94.2 C 188.1 94.2 188.1 100.8 188.1 100.8 C 188.7 102.1 190 103.1 191.4 103.1 Z M 186 104.7 L 186 84.7 L 188.1 84.7 C 188.1 84.7 188.1 92.31 188.1 92.3 C 189 90.7 190.4 89.8 191.9 89.8 C 195.2 89.8 197.1 93 197.1 97.5 C 197.1 102 195.2 105.1 191.9 105.1 C 190.4 105.1 188.9 104.1 188.1 102.6 C 188.1 102.63 188.1 104.7 188.1 104.7 L 186 104.7 Z M 207.9 104.7 C 207.9 104.7 207.9 102.69 207.9 102.7 C 207 103.9 205.5 105.1 203.7 105.1 C 201.2 105.1 200.1 103.8 200.1 101.2 C 200.07 101.19 200.1 90.2 200.1 90.2 L 202.2 90.2 C 202.2 90.2 202.2 100.56 202.2 100.6 C 202.2 102.5 203.1 103.1 204.5 103.1 C 205.9 103.1 207.3 102.1 207.9 100.9 C 207.9 100.89 207.9 90.2 207.9 90.2 L 210.1 90.2 L 210.1 104.7 L 207.9 104.7 Z M 214.1 101.8 C 214.14 101.79 214.1 92.1 214.1 92.1 L 212.2 92.1 L 212.2 90.2 L 214.1 90.2 L 214.1 86.2 L 216.3 86.2 L 216.3 90.2 L 218.8 90.2 L 218.8 92.1 L 216.3 92.1 C 216.3 92.1 216.3 101.4 216.3 101.4 C 216.3 102.5 216.6 103.1 217.5 103.1 C 218 103.1 218.5 102.9 218.7 102.6 C 218.7 102.6 219.4 104.2 219.4 104.2 C 218.9 104.7 218.2 105.1 217 105.1 C 215.1 105.1 214.1 103.9 214.1 101.8 Z M 228.7 104.7 C 228.7 104.7 228.74 103.14 228.7 103.1 C 227.8 104.5 226.4 105.1 224.9 105.1 C 222.6 105.1 220.6 103.3 220.6 100.2 C 220.6 97.2 222.6 95.5 224.9 95.5 C 226.4 95.5 227.8 96 228.7 97.3 C 228.7 97.3 228.7 94.8 228.7 94.8 C 228.7 92.8 227.7 91.7 225.8 91.7 C 224.4 91.7 223.3 92.2 222.1 93.5 C 222.1 93.5 221.2 91.9 221.2 91.9 C 222.6 90.5 224.3 89.8 226.1 89.8 C 229 89.8 230.9 91.3 230.9 94.6 C 230.9 94.56 230.9 104.7 230.9 104.7 L 228.7 104.7 Z M 228.7 101.7 C 228.7 101.7 228.7 98.9 228.7 98.9 C 228.1 97.7 226.9 97 225.6 97 C 223.8 97 222.7 98.5 222.7 100.3 C 222.7 102.1 223.8 103.5 225.6 103.5 C 226.9 103.5 228.1 102.9 228.7 101.7 Z M 242.4 104.7 C 242.4 104.7 242.36 94.38 242.4 94.4 C 242.4 92.5 241.5 91.8 240.1 91.8 C 238.6 91.8 237.3 92.9 236.7 94.1 C 236.66 94.08 236.7 104.7 236.7 104.7 L 234.5 104.7 L 234.5 90.2 L 236.7 90.2 C 236.7 90.2 236.66 92.28 236.7 92.3 C 237.5 91 239.1 89.8 240.9 89.8 C 243.3 89.8 244.5 91.2 244.5 93.8 C 244.52 93.78 244.5 104.7 244.5 104.7 L 242.4 104.7 Z M 247.5 97.4 C 247.5 93.4 249.5 89.8 253.3 89.8 C 257.2 89.8 259.3 93.4 259.3 97.4 C 259.3 101.5 257.2 105.1 253.3 105.1 C 249.5 105.1 247.5 101.5 247.5 97.4 Z M 257 97.4 C 257 94.5 255.9 91.8 253.3 91.8 C 250.9 91.8 249.7 94.5 249.7 97.4 C 249.7 100.4 250.9 103.1 253.3 103.1 C 255.9 103.1 257 100.4 257 97.4 Z M 262.2 104.7 L 262.2 84.7 L 264.3 84.7 L 264.3 104.7 L 262.2 104.7 Z " stroke="none" fill="#d3d2d2"/>  </g>  <g id="Polygon152504">    <path d="M 4.9 74.7 C 2.6 70.8 1.4 66.2 1.4 61.4 C 1.4 56.6 2.6 52 4.9 48.1 C 4.9 48.1 6.3 49 6.3 49 C 4.7 52.8 3.8 56.4 3.8 61.4 C 3.8 66.4 4.7 70 6.3 73.8 C 6.3 73.8 4.9 74.7 4.9 74.7 Z M 7.8 68.7 L 7.8 66.7 L 16.2 50.8 L 7.8 50.8 L 7.8 48.7 L 19 48.7 L 19 50.7 L 10.6 66.6 L 19.2 66.6 L 19.2 68.7 L 7.8 68.7 Z M 20.7 73.8 C 22.3 70 23.2 66.4 23.2 61.4 C 23.2 56.4 22.3 52.8 20.7 49 C 20.7 49 22 48.1 22 48.1 C 24.4 52 25.6 56.6 25.6 61.4 C 25.6 66.2 24.4 70.8 22 74.7 C 22 74.7 20.7 73.8 20.7 73.8 Z M 27.6 62.4 L 27.6 60.5 L 33.8 60.5 L 33.8 62.4 L 27.6 62.4 Z M 36 65.8 C 36 65.8 37.6 64.3 37.6 64.3 C 38.5 66 39.8 66.9 41.8 66.9 C 44 66.9 45.4 64.9 45.4 62.6 C 45.4 59.7 44 58.2 41.9 58.2 C 40.5 58.2 39.4 58.7 38.3 60 C 38.31 60.03 36.5 59.4 36.5 59.4 L 36.5 48.7 L 46.7 48.7 L 46.7 50.8 L 38.9 50.8 C 38.9 50.8 38.91 57.81 38.9 57.8 C 39.7 56.8 41 56.1 42.6 56.1 C 45.5 56.1 47.8 58.3 47.8 62.5 C 47.8 66.3 45.3 69.1 41.8 69.1 C 38.9 69.1 37.2 67.8 36 65.8 Z M 49.7 62.4 L 49.7 60.5 L 55.9 60.5 L 55.9 62.4 L 49.7 62.4 Z M 58 58.7 C 58 52.9 60.7 48.4 65.5 48.4 C 70.4 48.4 73.1 52.9 73.1 58.7 C 73.1 64.5 70.4 69.1 65.5 69.1 C 60.7 69.1 58 64.5 58 58.7 Z M 70.6 58.7 C 70.6 54.1 68.8 50.5 65.5 50.5 C 62.2 50.5 60.4 54.1 60.4 58.7 C 60.4 63.3 62.2 66.9 65.5 66.9 C 68.8 66.9 70.6 63.3 70.6 58.7 Z M 75.5 61.4 C 75.5 57.1 77.8 53.8 81.5 53.8 C 83.5 53.8 84.7 54.7 85.6 55.8 C 85.6 55.8 84.4 57.2 84.4 57.2 C 83.7 56.2 82.8 55.8 81.7 55.8 C 79.1 55.8 77.7 58.3 77.7 61.4 C 77.7 64.5 79.1 67.1 81.7 67.1 C 82.8 67.1 83.7 66.7 84.4 65.7 C 84.4 65.7 85.6 67.1 85.6 67.1 C 84.7 68.3 83.5 69.1 81.5 69.1 C 77.8 69.1 75.5 65.7 75.5 61.4 Z M 88.5 65.8 C 88.5 65.79 88.5 56.1 88.5 56.1 L 86.6 56.1 L 86.6 54.2 L 88.5 54.2 L 88.5 50.2 L 90.7 50.2 L 90.7 54.2 L 93.1 54.2 L 93.1 56.1 L 90.7 56.1 C 90.7 56.1 90.66 65.4 90.7 65.4 C 90.7 66.5 91 67.1 91.8 67.1 C 92.4 67.1 92.8 66.9 93.1 66.6 C 93.1 66.6 93.7 68.2 93.7 68.2 C 93.2 68.7 92.5 69.1 91.4 69.1 C 89.4 69.1 88.5 67.9 88.5 65.8 Z M 94.9 61.4 C 94.9 57.2 97.2 53.8 100.8 53.8 C 104.6 53.8 106.6 57.3 106.6 61.5 C 106.56 61.5 106.6 62.2 106.6 62.2 C 106.6 62.2 97.17 62.16 97.2 62.2 C 97.3 65.1 98.8 67.3 101.3 67.3 C 102.6 67.3 103.9 66.6 104.8 65.5 C 104.8 65.5 105.9 66.7 105.9 66.7 C 104.8 68.2 103.1 69.1 101.2 69.1 C 97.3 69.1 94.9 65.9 94.9 61.4 Z M 100.8 55.6 C 98.2 55.6 97.2 58.4 97.2 60.6 C 97.2 60.6 104.4 60.6 104.4 60.6 C 104.4 58.3 103.4 55.6 100.8 55.6 Z M 117.2 68.7 C 117.2 68.7 117.24 58.38 117.2 58.4 C 117.2 56.5 116.4 55.8 114.9 55.8 C 113.5 55.8 112.2 56.9 111.5 58.1 C 111.54 58.08 111.5 68.7 111.5 68.7 L 109.4 68.7 L 109.4 54.2 L 111.5 54.2 C 111.5 54.2 111.54 56.28 111.5 56.3 C 112.4 55 114 53.8 115.7 53.8 C 118.2 53.8 119.4 55.2 119.4 57.8 C 119.4 57.78 119.4 68.7 119.4 68.7 L 117.2 68.7 Z M 122.6 72.4 C 122.9 72.6 123.4 72.7 123.6 72.7 C 124.4 72.7 124.9 72.3 125.3 71.2 C 125.31 71.22 126.1 69 126.1 69 L 121.3 54.2 L 123.6 54.2 L 127.2 66.1 L 130.8 54.2 L 133.1 54.2 C 133.1 54.2 127.35 71.76 127.3 71.8 C 126.6 73.9 125.5 74.6 123.7 74.6 C 123.3 74.6 122.6 74.5 122.3 74.4 C 122.3 74.4 122.6 72.4 122.6 72.4 Z M 135 68.7 L 135 48.7 L 137.1 48.7 L 137.1 68.7 L 135 68.7 Z M 154.4 68.7 C 154.4 68.7 154.38 67.14 154.4 67.1 C 153.4 68.5 152 69.1 150.6 69.1 C 148.2 69.1 146.2 67.3 146.2 64.2 C 146.2 61.2 148.2 59.5 150.6 59.5 C 152 59.5 153.5 60 154.4 61.3 C 154.4 61.3 154.4 58.8 154.4 58.8 C 154.4 56.8 153.3 55.7 151.4 55.7 C 150.1 55.7 148.9 56.2 147.8 57.5 C 147.8 57.5 146.8 55.9 146.8 55.9 C 148.2 54.5 149.9 53.8 151.7 53.8 C 154.6 53.8 156.5 55.3 156.5 58.6 C 156.54 58.56 156.5 68.7 156.5 68.7 L 154.4 68.7 Z M 154.4 65.7 C 154.4 65.7 154.4 62.9 154.4 62.9 C 153.7 61.7 152.5 61 151.3 61 C 149.5 61 148.4 62.5 148.4 64.3 C 148.4 66.1 149.5 67.5 151.3 67.5 C 152.5 67.5 153.7 66.9 154.4 65.7 Z M 159.4 61.4 C 159.4 57.1 161.7 53.8 165.4 53.8 C 167.5 53.8 168.7 54.7 169.6 55.8 C 169.6 55.8 168.4 57.2 168.4 57.2 C 167.6 56.2 166.7 55.8 165.6 55.8 C 163 55.8 161.7 58.3 161.7 61.4 C 161.7 64.5 163 67.1 165.6 67.1 C 166.7 67.1 167.6 66.7 168.4 65.7 C 168.4 65.7 169.6 67.1 169.6 67.1 C 168.7 68.3 167.5 69.1 165.4 69.1 C 161.7 69.1 159.4 65.7 159.4 61.4 Z M 171.3 61.4 C 171.3 57.2 173.5 53.8 177.2 53.8 C 181 53.8 182.9 57.3 182.9 61.5 C 182.94 61.5 182.9 62.2 182.9 62.2 C 182.9 62.2 173.55 62.16 173.5 62.2 C 173.6 65.1 175.1 67.3 177.7 67.3 C 179 67.3 180.3 66.6 181.2 65.5 C 181.2 65.5 182.3 66.7 182.3 66.7 C 181.1 68.2 179.5 69.1 177.5 69.1 C 173.7 69.1 171.3 65.9 171.3 61.4 Z M 177.2 55.6 C 174.6 55.6 173.6 58.4 173.5 60.6 C 173.5 60.6 180.8 60.6 180.8 60.6 C 180.8 58.3 179.8 55.6 177.2 55.6 Z M 186.2 65.8 C 186.21 65.79 186.2 56.1 186.2 56.1 L 184.3 56.1 L 184.3 54.2 L 186.2 54.2 L 186.2 50.2 L 188.4 50.2 L 188.4 54.2 L 190.8 54.2 L 190.8 56.1 L 188.4 56.1 C 188.4 56.1 188.37 65.4 188.4 65.4 C 188.4 66.5 188.7 67.1 189.5 67.1 C 190.1 67.1 190.5 66.9 190.8 66.6 C 190.8 66.6 191.5 68.2 191.5 68.2 C 190.9 68.7 190.2 69.1 189.1 69.1 C 187.1 69.1 186.2 67.9 186.2 65.8 Z M 200.8 68.7 C 200.8 68.7 200.82 67.14 200.8 67.1 C 199.9 68.5 198.5 69.1 197 69.1 C 194.7 69.1 192.6 67.3 192.6 64.2 C 192.6 61.2 194.6 59.5 197 59.5 C 198.5 59.5 199.9 60 200.8 61.3 C 200.8 61.3 200.8 58.8 200.8 58.8 C 200.8 56.8 199.7 55.7 197.8 55.7 C 196.5 55.7 195.3 56.2 194.2 57.5 C 194.2 57.5 193.3 55.9 193.3 55.9 C 194.6 54.5 196.3 53.8 198.2 53.8 C 201.1 53.8 203 55.3 203 58.6 C 202.98 58.56 203 68.7 203 68.7 L 200.8 68.7 Z M 200.8 65.7 C 200.8 65.7 200.8 62.9 200.8 62.9 C 200.2 61.7 199 61 197.7 61 C 195.9 61 194.8 62.5 194.8 64.3 C 194.8 66.1 195.9 67.5 197.7 67.5 C 199 67.5 200.2 66.9 200.8 65.7 Z M 207 65.8 C 207.03 65.79 207 56.1 207 56.1 L 205.1 56.1 L 205.1 54.2 L 207 54.2 L 207 50.2 L 209.2 50.2 L 209.2 54.2 L 211.6 54.2 L 211.6 56.1 L 209.2 56.1 C 209.2 56.1 209.19 65.4 209.2 65.4 C 209.2 66.5 209.5 67.1 210.4 67.1 C 210.9 67.1 211.3 66.9 211.6 66.6 C 211.6 66.6 212.3 68.2 212.3 68.2 C 211.8 68.7 211 69.1 209.9 69.1 C 208 69.1 207 67.9 207 65.8 Z M 213.5 61.4 C 213.5 57.2 215.7 53.8 219.4 53.8 C 223.2 53.8 225.1 57.3 225.1 61.5 C 225.08 61.5 225.1 62.2 225.1 62.2 C 225.1 62.2 215.69 62.16 215.7 62.2 C 215.8 65.1 217.3 67.3 219.9 67.3 C 221.1 67.3 222.4 66.6 223.3 65.5 C 223.3 65.5 224.5 66.7 224.5 66.7 C 223.3 68.2 221.6 69.1 219.7 69.1 C 215.8 69.1 213.5 65.9 213.5 61.4 Z M 219.3 55.6 C 216.8 55.6 215.8 58.4 215.7 60.6 C 215.7 60.6 223 60.6 223 60.6 C 222.9 58.3 222 55.6 219.3 55.6 Z " stroke="none" fill="#d3d2d2"/>  </g>  <g id="Polygon152503">    <path d="M 12.5 32.7 L 11.2 28.2 L 4.1 28.2 L 2.8 32.7 L 0.2 32.7 L 6.2 12.7 L 9.1 12.7 L 15.1 32.7 L 12.5 32.7 Z M 7.6 15.3 L 4.6 26.1 L 10.7 26.1 L 7.6 15.3 Z M 17.3 32.7 L 17.3 12.7 L 19.4 12.7 L 19.4 32.7 L 17.3 32.7 Z M 22.7 25.4 C 22.7 21.1 25 17.8 28.7 17.8 C 30.7 17.8 31.9 18.7 32.8 19.8 C 32.8 19.8 31.6 21.2 31.6 21.2 C 30.9 20.2 30 19.8 28.9 19.8 C 26.3 19.8 24.9 22.3 24.9 25.4 C 24.9 28.5 26.3 31.1 28.9 31.1 C 30 31.1 30.9 30.7 31.6 29.7 C 31.6 29.7 32.8 31.1 32.8 31.1 C 31.9 32.3 30.7 33.1 28.7 33.1 C 25 33.1 22.7 29.7 22.7 25.4 Z M 43 32.7 C 43 32.7 43.02 31.14 43 31.1 C 42.1 32.5 40.7 33.1 39.2 33.1 C 36.9 33.1 34.8 31.3 34.8 28.2 C 34.8 25.2 36.8 23.5 39.2 23.5 C 40.7 23.5 42.1 24 43 25.3 C 43 25.3 43 22.8 43 22.8 C 43 20.8 41.9 19.7 40 19.7 C 38.7 19.7 37.5 20.2 36.4 21.5 C 36.4 21.5 35.5 19.9 35.5 19.9 C 36.8 18.5 38.5 17.8 40.4 17.8 C 43.3 17.8 45.2 19.3 45.2 22.6 C 45.18 22.56 45.2 32.7 45.2 32.7 L 43 32.7 Z M 43 29.7 C 43 29.7 43 26.9 43 26.9 C 42.4 25.7 41.2 25 39.9 25 C 38.1 25 37 26.5 37 28.3 C 37 30.1 38.1 31.5 39.9 31.5 C 41.2 31.5 42.4 30.9 43 29.7 Z M 56.9 32.7 C 56.9 32.7 56.94 22.38 56.9 22.4 C 56.9 20.5 56.1 19.8 54.6 19.8 C 53.2 19.8 51.9 20.9 51.2 22.1 C 51.24 22.08 51.2 32.7 51.2 32.7 L 49.1 32.7 L 49.1 18.2 L 51.2 18.2 C 51.2 18.2 51.24 20.28 51.2 20.3 C 52.1 19 53.7 17.8 55.4 17.8 C 57.9 17.8 59.1 19.2 59.1 21.8 C 59.1 21.78 59.1 32.7 59.1 32.7 L 56.9 32.7 Z M 62.6 14.6 C 62.6 13.8 63.3 13.2 64.1 13.2 C 64.9 13.2 65.6 13.8 65.6 14.6 C 65.6 15.4 64.9 16.1 64.1 16.1 C 63.3 16.1 62.6 15.4 62.6 14.6 Z M 63.1 32.7 L 63.1 18.2 L 65.2 18.2 L 65.2 32.7 L 63.1 32.7 Z M 72.1 32.7 L 67.3 18.2 L 69.7 18.2 L 73.3 30.1 L 76.9 18.2 L 79.2 18.2 L 74.5 32.7 L 72.1 32.7 Z M 80.7 25.4 C 80.7 21.4 82.7 17.8 86.5 17.8 C 90.4 17.8 92.5 21.4 92.5 25.4 C 92.5 29.5 90.4 33.1 86.5 33.1 C 82.7 33.1 80.7 29.5 80.7 25.4 Z M 90.2 25.4 C 90.2 22.5 89.1 19.8 86.5 19.8 C 84.1 19.8 82.9 22.5 82.9 25.4 C 82.9 28.4 84.1 31.1 86.5 31.1 C 89.1 31.1 90.2 28.4 90.2 25.4 Z M 95.7 32.7 L 95.7 18.2 L 97.8 18.2 C 97.8 18.2 97.83 20.52 97.8 20.5 C 98.8 19 100.2 17.9 101.9 17.9 C 101.9 17.9 101.9 20.1 101.9 20.1 C 101.7 20.1 101.5 20 101.2 20 C 99.9 20 98.4 21.2 97.8 22.4 C 97.83 22.41 97.8 32.7 97.8 32.7 L 95.7 32.7 Z M 111.9 32.7 C 111.9 32.7 111.87 31.14 111.9 31.1 C 110.9 32.5 109.5 33.1 108.1 33.1 C 105.7 33.1 103.7 31.3 103.7 28.2 C 103.7 25.2 105.7 23.5 108.1 23.5 C 109.5 23.5 111 24 111.9 25.3 C 111.9 25.3 111.9 22.8 111.9 22.8 C 111.9 20.8 110.8 19.7 108.9 19.7 C 107.5 19.7 106.4 20.2 105.3 21.5 C 105.3 21.5 104.3 19.9 104.3 19.9 C 105.7 18.5 107.4 17.8 109.2 17.8 C 112.1 17.8 114 19.3 114 22.6 C 114.03 22.56 114 32.7 114 32.7 L 111.9 32.7 Z M 111.9 29.7 C 111.9 29.7 111.9 26.9 111.9 26.9 C 111.2 25.7 110 25 108.7 25 C 106.9 25 105.9 26.5 105.9 28.3 C 105.9 30.1 106.9 31.5 108.7 31.5 C 110 31.5 111.2 30.9 111.9 29.7 Z M 116.8 31 C 116.8 31 117.9 29.5 117.9 29.5 C 118.7 30.5 120.1 31.3 121.6 31.3 C 123.3 31.3 124.4 30.4 124.4 29 C 124.4 25.6 117.2 26.8 117.2 21.7 C 117.2 19.6 118.9 17.8 121.8 17.8 C 123.7 17.8 125.2 18.6 126.2 19.7 C 126.2 19.7 125.2 21.2 125.2 21.2 C 124.5 20.2 123.3 19.6 121.9 19.6 C 120.3 19.6 119.3 20.5 119.3 21.7 C 119.3 24.8 126.5 23.7 126.5 28.9 C 126.5 31.3 124.6 33.1 121.7 33.1 C 119.6 33.1 118 32.4 116.8 31 Z M 128.8 25.4 C 128.8 21.2 131.1 17.8 134.7 17.8 C 138.5 17.8 140.5 21.3 140.5 25.5 C 140.46 25.5 140.5 26.2 140.5 26.2 C 140.5 26.2 131.07 26.16 131.1 26.2 C 131.2 29.1 132.7 31.3 135.2 31.3 C 136.5 31.3 137.8 30.6 138.7 29.5 C 138.7 29.5 139.8 30.7 139.8 30.7 C 138.7 32.2 137 33.1 135.1 33.1 C 131.2 33.1 128.8 29.9 128.8 25.4 Z M 134.7 19.6 C 132.1 19.6 131.1 22.4 131.1 24.6 C 131.1 24.6 138.3 24.6 138.3 24.6 C 138.3 22.3 137.3 19.6 134.7 19.6 Z M 149.3 25.4 C 149.3 21.2 151.6 17.8 155.2 17.8 C 159 17.8 160.9 21.3 160.9 25.5 C 160.95 25.5 160.9 26.2 160.9 26.2 C 160.9 26.2 151.56 26.16 151.6 26.2 C 151.6 29.1 153.1 31.3 155.7 31.3 C 157 31.3 158.3 30.6 159.2 29.5 C 159.2 29.5 160.3 30.7 160.3 30.7 C 159.1 32.2 157.5 33.1 155.5 33.1 C 151.7 33.1 149.3 29.9 149.3 25.4 Z M 155.2 19.6 C 152.6 19.6 151.6 22.4 151.6 24.6 C 151.6 24.6 158.8 24.6 158.8 24.6 C 158.8 22.3 157.8 19.6 155.2 19.6 Z M 171.5 32.7 L 168.2 26.9 L 164.9 32.7 L 162.5 32.7 L 166.9 25.3 L 162.7 18.2 L 165.1 18.2 L 168.2 23.7 L 171.3 18.2 L 173.7 18.2 L 169.5 25.3 L 173.9 32.7 L 171.5 32.7 Z M 176.7 29.8 C 176.7 29.79 176.7 20.1 176.7 20.1 L 174.8 20.1 L 174.8 18.2 L 176.7 18.2 L 176.7 14.2 L 178.9 14.2 L 178.9 18.2 L 181.3 18.2 L 181.3 20.1 L 178.9 20.1 C 178.9 20.1 178.86 29.4 178.9 29.4 C 178.9 30.5 179.2 31.1 180 31.1 C 180.6 31.1 181 30.9 181.3 30.6 C 181.3 30.6 181.9 32.2 181.9 32.2 C 181.4 32.7 180.7 33.1 179.6 33.1 C 177.6 33.1 176.7 31.9 176.7 29.8 Z M 184.2 32.7 L 184.2 18.2 L 186.3 18.2 C 186.3 18.2 186.29 20.52 186.3 20.5 C 187.2 19 188.6 17.9 190.4 17.9 C 190.4 17.9 190.4 20.1 190.4 20.1 C 190.2 20.1 189.9 20 189.7 20 C 188.4 20 186.9 21.2 186.3 22.4 C 186.29 22.41 186.3 32.7 186.3 32.7 L 184.2 32.7 Z M 200.3 32.7 C 200.3 32.7 200.33 31.14 200.3 31.1 C 199.4 32.5 198 33.1 196.5 33.1 C 194.2 33.1 192.1 31.3 192.1 28.2 C 192.1 25.2 194.2 23.5 196.5 23.5 C 198 23.5 199.4 24 200.3 25.3 C 200.3 25.3 200.3 22.8 200.3 22.8 C 200.3 20.8 199.3 19.7 197.4 19.7 C 196 19.7 194.8 20.2 193.7 21.5 C 193.7 21.5 192.8 19.9 192.8 19.9 C 194.2 18.5 195.9 17.8 197.7 17.8 C 200.6 17.8 202.5 19.3 202.5 22.6 C 202.49 22.56 202.5 32.7 202.5 32.7 L 200.3 32.7 Z M 200.3 29.7 C 200.3 29.7 200.3 26.9 200.3 26.9 C 199.7 25.7 198.5 25 197.2 25 C 195.4 25 194.3 26.5 194.3 28.3 C 194.3 30.1 195.4 31.5 197.2 31.5 C 198.5 31.5 199.7 30.9 200.3 29.7 Z M 205.7 25.4 C 205.7 21.1 208 17.8 211.7 17.8 C 213.7 17.8 214.9 18.7 215.8 19.8 C 215.8 19.8 214.7 21.2 214.7 21.2 C 213.9 20.2 213 19.8 211.9 19.8 C 209.3 19.8 208 22.3 208 25.4 C 208 28.5 209.3 31.1 211.9 31.1 C 213 31.1 213.9 30.7 214.7 29.7 C 214.7 29.7 215.8 31.1 215.8 31.1 C 214.9 32.3 213.7 33.1 211.7 33.1 C 208 33.1 205.7 29.7 205.7 25.4 Z M 219 29.8 C 219.02 29.79 219 20.1 219 20.1 L 217.1 20.1 L 217.1 18.2 L 219 18.2 L 219 14.2 L 221.2 14.2 L 221.2 18.2 L 223.6 18.2 L 223.6 20.1 L 221.2 20.1 C 221.2 20.1 221.18 29.4 221.2 29.4 C 221.2 30.5 221.5 31.1 222.4 31.1 C 222.9 31.1 223.3 30.9 223.6 30.6 C 223.6 30.6 224.3 32.2 224.3 32.2 C 223.8 32.7 223 33.1 221.9 33.1 C 220 33.1 219 31.9 219 29.8 Z " stroke="none" fill="#d3d2d2"/>  </g></svg>