<?xml version="1.0" standalone="no"?><!DOCTYPE svg PUBLIC "-//W3C//DTD SVG 1.1//EN" "http://www.w3.org/Graphics/SVG/1.1/DTD/svg11.dtd"><svg xmlns="http://www.w3.org/2000/svg" version="1.1" width="510px" height="85.6px" viewBox="0 0 510 85.6">  <desc>Chilli Crab</desc>  <defs/>  <g id="Polygon140678">    <path d="M 1.9 27.4 C 1.9 15.5 5.6 6.7 14.4 6.7 C 20.9 6.7 23.2 11.9 24.4 16.1 C 24.4 16.1 18.4 18.4 18.4 18.4 C 17.6 15.3 16.6 13.4 14.4 13.4 C 10.8 13.4 9.6 19.3 9.6 27.4 C 9.6 35.6 10.8 41.4 14.4 41.4 C 16.9 41.4 17.9 38.9 18.5 35.6 C 18.5 35.6 24.5 37.8 24.5 37.8 C 23.4 42.4 21.1 48.1 14.4 48.1 C 5.6 48.1 1.9 39.3 1.9 27.4 Z M 41.4 47.4 C 41.4 47.4 41.4 26.64 41.4 26.6 C 41.4 24.7 40.7 23.7 39.2 23.7 C 37.4 23.7 35.9 25.6 35.3 27.5 C 35.28 27.48 35.3 47.4 35.3 47.4 L 28.5 47.4 L 28.5 7.4 L 35.3 7.4 C 35.3 7.4 35.28 22.2 35.3 22.2 C 36.4 19.9 39.4 17.7 42.1 17.7 C 46.4 17.7 48.2 20.1 48.2 24.2 C 48.24 24.24 48.2 47.4 48.2 47.4 L 41.4 47.4 Z M 52.9 10.9 C 52.9 8.6 54.8 6.8 57.1 6.8 C 59.3 6.8 61.2 8.6 61.2 10.9 C 61.2 13.2 59.3 15 57.1 15 C 54.8 15 52.9 13.2 52.9 10.9 Z M 53.7 47.4 L 53.7 18.4 L 60.5 18.4 L 60.5 47.4 L 53.7 47.4 Z M 65.9 47.4 L 65.9 7.4 L 72.7 7.4 L 72.7 47.4 L 65.9 47.4 Z M 78.2 47.4 L 78.2 7.4 L 85 7.4 L 85 47.4 L 78.2 47.4 Z M 89.6 10.9 C 89.6 8.6 91.6 6.8 93.8 6.8 C 96.1 6.8 97.9 8.6 97.9 10.9 C 97.9 13.2 96.1 15 93.8 15 C 91.6 15 89.6 13.2 89.6 10.9 Z M 90.4 47.4 L 90.4 18.4 L 97.2 18.4 L 97.2 47.4 L 90.4 47.4 Z M 111.5 27.4 C 111.5 15.5 115.3 6.7 124.1 6.7 C 130.6 6.7 132.8 11.9 134.1 16.1 C 134.1 16.1 128.1 18.4 128.1 18.4 C 127.3 15.3 126.3 13.4 124.1 13.4 C 120.5 13.4 119.3 19.3 119.3 27.4 C 119.3 35.6 120.5 41.4 124.1 41.4 C 126.5 41.4 127.6 38.9 128.2 35.6 C 128.2 35.6 134.2 37.8 134.2 37.8 C 133.1 42.4 130.7 48.1 124.1 48.1 C 115.3 48.1 111.5 39.3 111.5 27.4 Z M 138.2 47.4 L 138.2 18.4 L 145 18.4 C 145 18.4 144.96 22.44 145 22.4 C 146.1 19.8 148.9 17.7 151.4 17.7 C 151.4 17.7 151.4 24.4 151.4 24.4 C 151 24.2 150.5 24.2 150.1 24.2 C 148.1 24.2 146.1 25.8 145 27.9 C 144.96 27.9 145 47.4 145 47.4 L 138.2 47.4 Z M 167.6 47.4 C 167.6 47.4 167.58 44.64 167.6 44.6 C 166.3 46.9 163.6 48.1 161.5 48.1 C 157 48.1 153.7 44.4 153.7 38.5 C 153.7 32.6 157 29 161.5 29 C 163.6 29 166.4 30.1 167.6 32.3 C 167.6 32.3 167.6 28.7 167.6 28.7 C 167.6 25.4 166.3 23.5 163.2 23.5 C 161.3 23.5 159.2 24.4 157.3 26.3 C 157.3 26.3 154.8 21.5 154.8 21.5 C 157.4 18.7 161.6 17.7 164.6 17.7 C 170.5 17.7 174.4 20.7 174.4 27.2 C 174.36 27.18 174.4 47.4 174.4 47.4 L 167.6 47.4 Z M 167.6 40.6 C 167.6 40.6 167.6 36.7 167.6 36.7 C 166.9 34.9 165.4 33.7 163.9 33.7 C 161.6 33.7 160.4 35.8 160.4 38.6 C 160.4 41.3 161.6 43.6 163.9 43.6 C 165.4 43.6 166.9 42.4 167.6 40.6 Z M 190.1 42.1 C 193.1 42.1 193.9 38 193.9 32.9 C 193.9 27.8 193.1 23.7 190.1 23.7 C 188.6 23.7 187.3 25.3 186.7 27.2 C 186.7 27.2 186.7 38.6 186.7 38.6 C 187.3 40.6 188.6 42.1 190.1 42.1 Z M 179.9 47.4 L 179.9 7.4 L 186.7 7.4 C 186.7 7.4 186.66 22.02 186.7 22 C 187.9 19 190.3 17.7 192.3 17.7 C 198 17.7 200.9 23.8 200.9 32.9 C 200.9 42.2 198 48.1 192.3 48.1 C 190.3 48.1 187.9 46.7 186.7 43.8 C 186.66 43.8 186.7 47.4 186.7 47.4 L 179.9 47.4 Z " stroke="none" fill="#b13d24"/>  </g></svg>