<?xml version="1.0" standalone="no"?><!DOCTYPE svg PUBLIC "-//W3C//DTD SVG 1.1//EN" "http://www.w3.org/Graphics/SVG/1.1/DTD/svg11.dtd"><svg xmlns="http://www.w3.org/2000/svg" version="1.1" width="268px" height="102.1px" viewBox="0 0 268 102.1">  <desc>Foreword</desc>  <defs/>  <g id="Polygon229906">    <path d="M 3.7 56.9 L 3.7 8.9 L 24.8 8.9 L 24.8 16.8 L 12.8 16.8 L 12.8 28.4 L 24.3 28.4 L 24.3 36.4 L 12.8 36.4 L 12.8 56.9 L 3.7 56.9 Z M 29 39.5 C 29 29.8 33 21.2 42 21.2 C 51.2 21.2 55.2 29.8 55.2 39.5 C 55.2 49.1 51.2 57.7 42 57.7 C 33 57.7 29 49.1 29 39.5 Z M 46.7 39.5 C 46.7 33.6 45.7 28.4 42 28.4 C 38.4 28.4 37.4 33.6 37.4 39.5 C 37.4 45.4 38.4 50.5 42 50.5 C 45.7 50.5 46.7 45.4 46.7 39.5 Z M 60.4 56.9 L 60.4 22.1 L 68.5 22.1 C 68.5 22.1 68.54 26.93 68.5 26.9 C 69.9 23.8 73.3 21.2 76.3 21.2 C 76.3 21.2 76.3 29.2 76.3 29.2 C 75.8 29.1 75.2 29 74.7 29 C 72.4 29 69.9 31 68.5 33.5 C 68.54 33.48 68.5 56.9 68.5 56.9 L 60.4 56.9 Z M 79.2 39.5 C 79.2 29.4 83.5 21.2 92.2 21.2 C 101 21.2 104.7 29.1 104.7 39.3 C 104.69 39.31 104.7 42.1 104.7 42.1 C 104.7 42.1 87.05 42.12 87 42.1 C 87.1 47.2 89.3 51.1 93.9 51.1 C 95.8 51.1 98.1 49.8 99.6 47.7 C 99.6 47.7 103.6 52.2 103.6 52.2 C 100.9 55.7 97 57.7 93 57.7 C 84 57.7 79.2 50.1 79.2 39.5 Z M 92 27.9 C 88.1 27.9 87 32.8 87 36.4 C 87 36.4 96.8 36.4 96.8 36.4 C 96.8 32.5 96 27.9 92 27.9 Z M 133.2 56.9 L 128.2 33.2 L 123.3 56.9 L 114.7 56.9 L 106.7 22.1 L 115.1 22.1 L 119.5 45.9 L 124.1 22.1 L 131.9 22.1 L 136.8 45.9 L 141.3 22.1 L 149.8 22.1 L 141.7 56.9 L 133.2 56.9 Z M 152.1 39.5 C 152.1 29.8 156 21.2 165.1 21.2 C 174.2 21.2 178.2 29.8 178.2 39.5 C 178.2 49.1 174.2 57.7 165.1 57.7 C 156 57.7 152.1 49.1 152.1 39.5 Z M 169.8 39.5 C 169.8 33.6 168.8 28.4 165.1 28.4 C 161.5 28.4 160.5 33.6 160.5 39.5 C 160.5 45.4 161.5 50.5 165.1 50.5 C 168.8 50.5 169.8 45.4 169.8 39.5 Z M 183.5 56.9 L 183.5 22.1 L 191.6 22.1 C 191.6 22.1 191.59 26.93 191.6 26.9 C 193 23.8 196.3 21.2 199.4 21.2 C 199.4 21.2 199.4 29.2 199.4 29.2 C 198.9 29.1 198.3 29 197.8 29 C 195.4 29 193 31 191.6 33.5 C 191.59 33.48 191.6 56.9 191.6 56.9 L 183.5 56.9 Z M 219.3 56.9 C 219.3 56.9 219.31 52.56 219.3 52.6 C 217.8 56 215 57.7 212.5 57.7 C 205.7 57.7 202.2 50.7 202.2 39.5 C 202.2 28.6 205.7 21.2 212.5 21.2 C 215 21.2 217.9 22.8 219.3 26.4 C 219.31 26.42 219.3 8.9 219.3 8.9 L 227.4 8.9 L 227.4 56.9 L 219.3 56.9 Z M 219.3 46.4 C 219.3 46.4 219.3 32.6 219.3 32.6 C 218.6 30.3 216.9 28.4 215.2 28.4 C 211.6 28.4 210.6 33.3 210.6 39.5 C 210.6 45.6 211.6 50.5 215.2 50.5 C 216.9 50.5 218.6 48.7 219.3 46.4 Z " stroke="none" fill="#e9e8e8"/>  </g></svg>