<?xml version="1.0" standalone="no"?><!DOCTYPE svg PUBLIC "-//W3C//DTD SVG 1.1//EN" "http://www.w3.org/Graphics/SVG/1.1/DTD/svg11.dtd"><svg xmlns="http://www.w3.org/2000/svg" version="1.1" width="219px" height="395.3px" viewBox="0 0 219 395.3">  <desc>108 63 190 88 126 02 2402 03 275 55 263 14 236 62 170 95 259 76 2991 90</desc>  <defs/>  <g id="Polygon227987">    <path d="M 129.8 348.4 C 129.8 348.4 129.83 346.43 129.8 346.4 C 136.4 338.9 138.6 336.5 138.6 333.5 C 138.6 331.4 137.1 330.2 135.4 330.2 C 133.5 330.2 132.1 331.1 131.2 332.7 C 131.2 332.7 129.6 331.3 129.6 331.3 C 130.9 329.2 132.9 328.1 135.4 328.1 C 138.5 328.1 141 330 141 333.5 C 141 336.9 138.5 339.9 133.2 346.2 C 133.22 346.25 141.1 346.2 141.1 346.2 L 141.1 348.4 L 129.8 348.4 Z M 144.8 346.2 C 144.8 346.2 146.1 344.5 146.1 344.5 C 146.9 345.8 147.8 346.6 149.5 346.6 C 152.7 346.6 153.8 342.3 153.8 338.6 C 153.8 338.3 153.8 338.2 153.8 338 C 153.1 339.4 151.5 340.9 149.4 340.9 C 146.5 340.9 144.2 338.8 144.2 334.5 C 144.2 331.2 146.2 328 149.9 328 C 154.7 328 156.3 333 156.3 338.4 C 156.3 343.8 154.3 348.7 149.5 348.7 C 147.4 348.7 145.8 347.7 144.8 346.2 Z M 153.8 335.8 C 153.6 333.6 152.9 330.2 150 330.2 C 147.6 330.2 146.6 332.4 146.6 334.5 C 146.6 337.7 148.1 338.9 150 338.9 C 151.7 338.9 153 337.4 153.8 335.8 Z M 159.6 346.2 C 159.6 346.2 160.9 344.5 160.9 344.5 C 161.7 345.8 162.6 346.6 164.2 346.6 C 167.5 346.6 168.6 342.3 168.6 338.6 C 168.6 338.3 168.6 338.2 168.6 338 C 167.9 339.4 166.2 340.9 164.2 340.9 C 161.3 340.9 158.9 338.8 158.9 334.5 C 158.9 331.2 161 328 164.7 328 C 169.5 328 171 333 171 338.4 C 171 343.8 169.1 348.7 164.2 348.7 C 162.1 348.7 160.6 347.7 159.6 346.2 Z M 168.5 335.8 C 168.4 333.6 167.6 330.2 164.8 330.2 C 162.4 330.2 161.4 332.4 161.4 334.5 C 161.4 337.7 162.9 338.9 164.8 338.9 C 166.5 338.9 167.8 337.4 168.5 335.8 Z M 177.4 348.4 L 177.4 331.5 L 174.3 334.8 L 172.9 333.3 L 177.7 328.4 L 179.8 328.4 L 179.8 348.4 L 177.4 348.4 Z M 183.7 347.1 C 183.7 346.2 184.4 345.5 185.3 345.5 C 186.2 345.5 186.9 346.2 186.9 347.1 C 186.9 348 186.2 348.7 185.3 348.7 C 184.4 348.7 183.7 348 183.7 347.1 Z M 190.6 346.2 C 190.6 346.2 192 344.5 192 344.5 C 192.7 345.8 193.6 346.6 195.3 346.6 C 198.5 346.6 199.6 342.3 199.6 338.6 C 199.6 338.3 199.6 338.2 199.6 338 C 198.9 339.4 197.3 340.9 195.2 340.9 C 192.3 340.9 190 338.8 190 334.5 C 190 331.2 192 328 195.7 328 C 200.5 328 202.1 333 202.1 338.4 C 202.1 343.8 200.1 348.7 195.3 348.7 C 193.2 348.7 191.6 347.7 190.6 346.2 Z M 199.6 335.8 C 199.5 333.6 198.7 330.2 195.9 330.2 C 193.5 330.2 192.4 332.4 192.4 334.5 C 192.4 337.7 193.9 338.9 195.8 338.9 C 197.5 338.9 198.9 337.4 199.6 335.8 Z M 204.9 338.4 C 204.9 333.6 206.5 328.1 211.2 328.1 C 215.8 328.1 217.4 333.6 217.4 338.4 C 217.4 343.2 215.8 348.7 211.2 348.7 C 206.5 348.7 204.9 343.2 204.9 338.4 Z M 215 338.4 C 215 334.4 214.2 330.2 211.2 330.2 C 208.1 330.2 207.3 334.4 207.3 338.4 C 207.3 342.3 208.1 346.6 211.2 346.6 C 214.2 346.6 215 342.3 215 338.4 Z " stroke="none" fill="#d0d1d4"/>  </g>  <g id="Polygon227986">    <path d="M 142 312.4 C 142 312.4 142.01 310.43 142 310.4 C 148.5 302.9 150.8 300.5 150.8 297.5 C 150.8 295.4 149.3 294.2 147.6 294.2 C 145.7 294.2 144.3 295.1 143.4 296.7 C 143.4 296.7 141.8 295.3 141.8 295.3 C 143.1 293.2 145.1 292.1 147.6 292.1 C 150.7 292.1 153.2 294 153.2 297.5 C 153.2 300.9 150.7 303.9 145.4 310.2 C 145.4 310.25 153.3 310.2 153.3 310.2 L 153.3 312.4 L 142 312.4 Z M 156.6 309.5 C 156.6 309.5 158.2 308 158.2 308 C 159.2 309.7 160.5 310.6 162.5 310.6 C 164.7 310.6 166 308.6 166 306.3 C 166 303.4 164.7 301.8 162.6 301.8 C 161.2 301.8 160.1 302.4 159 303.7 C 158.99 303.71 157.2 303.1 157.2 303.1 L 157.2 292.4 L 167.4 292.4 L 167.4 294.5 L 159.6 294.5 C 159.6 294.5 159.59 301.49 159.6 301.5 C 160.4 300.5 161.7 299.7 163.3 299.7 C 166.2 299.7 168.5 302 168.5 306.2 C 168.5 310 166 312.7 162.5 312.7 C 159.6 312.7 157.9 311.5 156.6 309.5 Z M 171.7 310.2 C 171.7 310.2 173.1 308.5 173.1 308.5 C 173.8 309.8 174.7 310.6 176.4 310.6 C 179.6 310.6 180.7 306.3 180.7 302.6 C 180.7 302.3 180.7 302.2 180.7 302 C 180 303.4 178.4 304.9 176.3 304.9 C 173.4 304.9 171.1 302.8 171.1 298.5 C 171.1 295.2 173.1 292 176.8 292 C 181.6 292 183.2 297 183.2 302.4 C 183.2 307.8 181.2 312.7 176.4 312.7 C 174.3 312.7 172.7 311.7 171.7 310.2 Z M 180.7 299.8 C 180.6 297.6 179.8 294.2 177 294.2 C 174.6 294.2 173.5 296.4 173.5 298.5 C 173.5 301.7 175 302.9 176.9 302.9 C 178.6 302.9 180 301.4 180.7 299.8 Z M 186.4 311.1 C 186.4 310.2 187.1 309.5 188 309.5 C 188.9 309.5 189.6 310.2 189.6 311.1 C 189.6 312 188.9 312.7 188 312.7 C 187.1 312.7 186.4 312 186.4 311.1 Z M 194.4 312.4 L 200.7 294.5 L 192.2 294.5 L 192.2 292.4 L 203.3 292.4 L 203.3 294 L 196.9 312.4 L 194.4 312.4 Z M 205.5 302.4 C 205.5 297 207.4 292.1 212.2 292.1 C 214.3 292.1 215.9 293.1 216.9 294.6 C 216.9 294.6 215.6 296.2 215.6 296.2 C 214.8 295 213.9 294.2 212.3 294.2 C 209.1 294.2 207.9 298.4 207.9 302.2 C 207.9 302.4 207.9 302.5 207.9 302.8 C 208.6 301.4 210.3 299.8 212.3 299.8 C 215.2 299.8 217.6 302 217.6 306.2 C 217.6 309.6 215.5 312.7 211.8 312.7 C 207 312.7 205.5 307.7 205.5 302.4 Z M 215.1 306.3 C 215.1 303.1 213.6 301.9 211.7 301.9 C 210 301.9 208.7 303.3 207.9 305 C 208.1 307.2 208.9 310.6 211.7 310.6 C 214.1 310.6 215.1 308.4 215.1 306.3 Z " stroke="none" fill="#d0d1d4"/>  </g>  <g id="Polygon227985">    <path d="M 150 276.4 L 150 259.5 L 146.9 262.8 L 145.5 261.3 L 150.3 256.4 L 152.4 256.4 L 152.4 276.4 L 150 276.4 Z M 157.5 276.4 L 163.7 258.5 L 155.3 258.5 L 155.3 256.4 L 166.4 256.4 L 166.4 258 L 160 276.4 L 157.5 276.4 Z M 168.6 266.4 C 168.6 261.6 170.1 256.1 174.8 256.1 C 179.5 256.1 181.1 261.6 181.1 266.4 C 181.1 271.2 179.5 276.7 174.8 276.7 C 170.1 276.7 168.6 271.2 168.6 266.4 Z M 178.7 266.4 C 178.7 262.4 177.9 258.2 174.8 258.2 C 171.8 258.2 171 262.4 171 266.4 C 171 270.3 171.7 274.6 174.8 274.6 C 177.9 274.6 178.7 270.3 178.7 266.4 Z M 184.3 275.1 C 184.3 274.2 185.1 273.5 185.9 273.5 C 186.8 273.5 187.5 274.2 187.5 275.1 C 187.5 276 186.8 276.7 185.9 276.7 C 185.1 276.7 184.3 276 184.3 275.1 Z M 191.3 274.2 C 191.3 274.2 192.6 272.5 192.6 272.5 C 193.3 273.8 194.3 274.6 195.9 274.6 C 199.2 274.6 200.3 270.3 200.3 266.6 C 200.3 266.3 200.3 266.2 200.3 266 C 199.6 267.4 197.9 268.9 195.9 268.9 C 192.9 268.9 190.6 266.8 190.6 262.5 C 190.6 259.2 192.7 256 196.4 256 C 201.1 256 202.7 261 202.7 266.4 C 202.7 271.8 200.7 276.7 195.9 276.7 C 193.8 276.7 192.3 275.7 191.3 274.2 Z M 200.2 263.8 C 200.1 261.6 199.3 258.2 196.5 258.2 C 194.1 258.2 193 260.4 193 262.5 C 193 265.7 194.6 266.9 196.5 266.9 C 198.1 266.9 199.5 265.4 200.2 263.8 Z M 205.7 273.5 C 205.7 273.5 207.3 272 207.3 272 C 208.2 273.7 209.5 274.6 211.5 274.6 C 213.7 274.6 215.1 272.6 215.1 270.3 C 215.1 267.4 213.7 265.8 211.6 265.8 C 210.2 265.8 209.1 266.4 208 267.7 C 208 267.71 206.2 267.1 206.2 267.1 L 206.2 256.4 L 216.4 256.4 L 216.4 258.5 L 208.6 258.5 C 208.6 258.5 208.6 265.49 208.6 265.5 C 209.4 264.5 210.7 263.7 212.3 263.7 C 215.2 263.7 217.5 266 217.5 270.2 C 217.5 274 215 276.7 211.5 276.7 C 208.6 276.7 206.9 275.5 205.7 273.5 Z " stroke="none" fill="#d0d1d4"/>  </g>  <g id="Polygon227984">    <path d="M 140.5 240.4 C 140.5 240.4 140.54 238.43 140.5 238.4 C 147.1 230.9 149.3 228.5 149.3 225.5 C 149.3 223.4 147.8 222.2 146.1 222.2 C 144.2 222.2 142.8 223.1 141.9 224.7 C 141.9 224.7 140.3 223.3 140.3 223.3 C 141.6 221.2 143.6 220.1 146.1 220.1 C 149.2 220.1 151.8 222 151.8 225.5 C 151.8 228.9 149.2 231.9 143.9 238.2 C 143.93 238.25 151.8 238.2 151.8 238.2 L 151.8 240.4 L 140.5 240.4 Z M 154.5 237.4 C 154.5 237.4 156 236 156 236 C 157 237.5 158.4 238.6 160.3 238.6 C 162.8 238.6 164 237.1 164 234.8 C 164 232.1 162.2 231.2 160.2 231.2 C 159.5 231.2 158.8 231.2 158.6 231.2 C 158.6 231.2 158.6 229 158.6 229 C 158.8 229.1 159.6 229.1 160.1 229.1 C 162.1 229.1 163.7 228 163.7 225.7 C 163.7 223.3 162.3 222.2 160.3 222.2 C 158.5 222.2 157.2 223.1 156.2 224.6 C 156.2 224.6 154.7 223.2 154.7 223.2 C 155.9 221.3 157.9 220.1 160.4 220.1 C 163.7 220.1 166.1 221.8 166.1 225.4 C 166.1 227.9 164.4 229.6 162.5 230 C 164.3 230.3 166.4 232.1 166.4 235 C 166.4 238.3 164.2 240.7 160.4 240.7 C 157.6 240.7 155.5 239.2 154.5 237.4 Z M 169.2 230.4 C 169.2 225 171.1 220.1 176 220.1 C 178.1 220.1 179.7 221.1 180.6 222.6 C 180.6 222.6 179.3 224.2 179.3 224.2 C 178.6 223 177.6 222.2 176 222.2 C 172.8 222.2 171.6 226.4 171.6 230.2 C 171.6 230.4 171.6 230.5 171.6 230.8 C 172.3 229.4 174 227.8 176.1 227.8 C 179 227.8 181.3 230 181.3 234.2 C 181.3 237.6 179.2 240.7 175.5 240.7 C 170.8 240.7 169.2 235.7 169.2 230.4 Z M 178.9 234.3 C 178.9 231.1 177.3 229.9 175.5 229.9 C 173.8 229.9 172.4 231.3 171.7 233 C 171.8 235.2 172.6 238.6 175.4 238.6 C 177.8 238.6 178.9 236.4 178.9 234.3 Z M 184.4 239.1 C 184.4 238.2 185.1 237.5 186 237.5 C 186.9 237.5 187.6 238.2 187.6 239.1 C 187.6 240 186.9 240.7 186 240.7 C 185.1 240.7 184.4 240 184.4 239.1 Z M 190.8 230.4 C 190.8 225 192.7 220.1 197.6 220.1 C 199.7 220.1 201.3 221.1 202.2 222.6 C 202.2 222.6 200.9 224.2 200.9 224.2 C 200.2 223 199.2 222.2 197.6 222.2 C 194.4 222.2 193.2 226.4 193.2 230.2 C 193.2 230.4 193.2 230.5 193.2 230.8 C 193.9 229.4 195.6 227.8 197.7 227.8 C 200.6 227.8 202.9 230 202.9 234.2 C 202.9 237.6 200.8 240.7 197.1 240.7 C 192.4 240.7 190.8 235.7 190.8 230.4 Z M 200.5 234.3 C 200.5 231.1 198.9 229.9 197.1 229.9 C 195.4 229.9 194 231.3 193.3 233 C 193.4 235.2 194.2 238.6 197 238.6 C 199.4 238.6 200.5 236.4 200.5 234.3 Z M 205.8 240.4 C 205.8 240.4 205.75 238.43 205.8 238.4 C 212.3 230.9 214.5 228.5 214.5 225.5 C 214.5 223.4 213 222.2 211.3 222.2 C 209.4 222.2 208.1 223.1 207.1 224.7 C 207.1 224.7 205.5 223.3 205.5 223.3 C 206.9 221.2 208.8 220.1 211.4 220.1 C 214.4 220.1 217 222 217 225.5 C 217 228.9 214.5 231.9 209.1 238.2 C 209.14 238.25 217.1 238.2 217.1 238.2 L 217.1 240.4 L 205.8 240.4 Z " stroke="none" fill="#d0d1d4"/>  </g>  <g id="Polygon227983">    <path d="M 146.7 204.4 C 146.7 204.4 146.66 202.43 146.7 202.4 C 153.2 194.9 155.4 192.5 155.4 189.5 C 155.4 187.4 153.9 186.2 152.2 186.2 C 150.3 186.2 149 187.1 148 188.7 C 148 188.7 146.4 187.3 146.4 187.3 C 147.8 185.2 149.7 184.1 152.3 184.1 C 155.3 184.1 157.9 186 157.9 189.5 C 157.9 192.9 155.4 195.9 150 202.2 C 150.05 202.25 158 202.2 158 202.2 L 158 204.4 L 146.7 204.4 Z M 161.1 194.4 C 161.1 189 163.1 184.1 167.9 184.1 C 170 184.1 171.6 185.1 172.6 186.6 C 172.6 186.6 171.3 188.2 171.3 188.2 C 170.5 187 169.6 186.2 167.9 186.2 C 164.7 186.2 163.5 190.4 163.5 194.2 C 163.5 194.4 163.5 194.5 163.6 194.8 C 164.3 193.4 165.9 191.8 168 191.8 C 170.9 191.8 173.2 194 173.2 198.2 C 173.2 201.6 171.2 204.7 167.5 204.7 C 162.7 204.7 161.1 199.7 161.1 194.4 Z M 170.8 198.3 C 170.8 195.1 169.3 193.9 167.4 193.9 C 165.7 193.9 164.4 195.3 163.6 197 C 163.8 199.2 164.5 202.6 167.4 202.6 C 169.8 202.6 170.8 200.4 170.8 198.3 Z M 175.4 201.4 C 175.4 201.4 176.9 200 176.9 200 C 177.9 201.5 179.3 202.6 181.2 202.6 C 183.6 202.6 184.8 201.1 184.8 198.8 C 184.8 196.1 183.1 195.2 181 195.2 C 180.4 195.2 179.7 195.2 179.4 195.2 C 179.4 195.2 179.4 193 179.4 193 C 179.7 193.1 180.5 193.1 181 193.1 C 183 193.1 184.6 192 184.6 189.7 C 184.6 187.3 183.2 186.2 181.2 186.2 C 179.4 186.2 178.1 187.1 177.1 188.6 C 177.1 188.6 175.6 187.2 175.6 187.2 C 176.8 185.3 178.8 184.1 181.3 184.1 C 184.5 184.1 187 185.8 187 189.4 C 187 191.9 185.2 193.6 183.4 194 C 185.2 194.3 187.2 196.1 187.2 199 C 187.2 202.3 185.1 204.7 181.3 204.7 C 178.5 204.7 176.4 203.2 175.4 201.4 Z M 190.5 203.1 C 190.5 202.2 191.2 201.5 192.1 201.5 C 193 201.5 193.7 202.2 193.7 203.1 C 193.7 204 193 204.7 192.1 204.7 C 191.2 204.7 190.5 204 190.5 203.1 Z M 200.5 204.4 L 200.5 187.5 L 197.4 190.8 L 196 189.3 L 200.8 184.4 L 202.9 184.4 L 202.9 204.4 L 200.5 204.4 Z M 213.6 204.4 L 213.6 199.2 L 205.7 199.2 L 205.7 197.2 L 212.9 184.4 L 216 184.4 L 216 197.1 L 218.1 197.1 L 218.1 199.2 L 216 199.2 L 216 204.4 L 213.6 204.4 Z M 213.6 186.9 L 207.9 197.1 L 213.6 197.1 L 213.6 186.9 Z " stroke="none" fill="#d0d1d4"/>  </g>  <g id="Polygon227982">    <path d="M 142.1 168.4 C 142.1 168.4 142.07 166.43 142.1 166.4 C 148.6 158.9 150.9 156.5 150.9 153.5 C 150.9 151.4 149.4 150.2 147.6 150.2 C 145.8 150.2 144.4 151.1 143.4 152.7 C 143.4 152.7 141.9 151.3 141.9 151.3 C 143.2 149.2 145.1 148.1 147.7 148.1 C 150.7 148.1 153.3 150 153.3 153.5 C 153.3 156.9 150.8 159.9 145.5 166.2 C 145.46 166.25 153.4 166.2 153.4 166.2 L 153.4 168.4 L 142.1 168.4 Z M 158.1 168.4 L 164.4 150.5 L 155.9 150.5 L 155.9 148.4 L 167.1 148.4 L 167.1 150 L 160.7 168.4 L 158.1 168.4 Z M 169.4 165.5 C 169.4 165.5 171 164 171 164 C 171.9 165.7 173.2 166.6 175.2 166.6 C 177.4 166.6 178.8 164.6 178.8 162.3 C 178.8 159.4 177.4 157.8 175.3 157.8 C 173.9 157.8 172.8 158.4 171.7 159.7 C 171.7 159.71 169.9 159.1 169.9 159.1 L 169.9 148.4 L 180.1 148.4 L 180.1 150.5 L 172.3 150.5 C 172.3 150.5 172.3 157.49 172.3 157.5 C 173.1 156.5 174.4 155.7 176 155.7 C 178.9 155.7 181.2 158 181.2 162.2 C 181.2 166 178.7 168.7 175.2 168.7 C 172.3 168.7 170.6 167.5 169.4 165.5 Z M 184.4 167.1 C 184.4 166.2 185.1 165.5 186 165.5 C 186.8 165.5 187.6 166.2 187.6 167.1 C 187.6 168 186.8 168.7 186 168.7 C 185.1 168.7 184.4 168 184.4 167.1 Z M 190.9 165.5 C 190.9 165.5 192.5 164 192.5 164 C 193.5 165.7 194.8 166.6 196.8 166.6 C 198.9 166.6 200.3 164.6 200.3 162.3 C 200.3 159.4 199 157.8 196.9 157.8 C 195.5 157.8 194.4 158.4 193.3 159.7 C 193.27 159.71 191.5 159.1 191.5 159.1 L 191.5 148.4 L 201.7 148.4 L 201.7 150.5 L 193.9 150.5 C 193.9 150.5 193.87 157.49 193.9 157.5 C 194.7 156.5 196 155.7 197.6 155.7 C 200.4 155.7 202.8 158 202.8 162.2 C 202.8 166 200.3 168.7 196.8 168.7 C 193.9 168.7 192.2 167.5 190.9 165.5 Z M 205.7 165.5 C 205.7 165.5 207.3 164 207.3 164 C 208.2 165.7 209.5 166.6 211.5 166.6 C 213.7 166.6 215.1 164.6 215.1 162.3 C 215.1 159.4 213.7 157.8 211.6 157.8 C 210.2 157.8 209.1 158.4 208 159.7 C 208 159.71 206.2 159.1 206.2 159.1 L 206.2 148.4 L 216.4 148.4 L 216.4 150.5 L 208.6 150.5 C 208.6 150.5 208.6 157.49 208.6 157.5 C 209.4 156.5 210.7 155.7 212.3 155.7 C 215.2 155.7 217.5 158 217.5 162.2 C 217.5 166 215 168.7 211.5 168.7 C 208.6 168.7 206.9 167.5 205.7 165.5 Z " stroke="none" fill="#d0d1d4"/>  </g>  <g id="Polygon227981">    <path d="M 125.5 132.4 C 125.5 132.4 125.48 130.43 125.5 130.4 C 132 122.9 134.3 120.5 134.3 117.5 C 134.3 115.4 132.8 114.2 131.1 114.2 C 129.2 114.2 127.8 115.1 126.8 116.7 C 126.8 116.7 125.3 115.3 125.3 115.3 C 126.6 113.2 128.5 112.1 131.1 112.1 C 134.1 112.1 136.7 114 136.7 117.5 C 136.7 120.9 134.2 123.9 128.9 130.2 C 128.87 130.25 136.8 130.2 136.8 130.2 L 136.8 132.4 L 125.5 132.4 Z M 147.2 132.4 L 147.2 127.2 L 139.2 127.2 L 139.2 125.2 L 146.5 112.4 L 149.5 112.4 L 149.5 125.1 L 151.7 125.1 L 151.7 127.2 L 149.5 127.2 L 149.5 132.4 L 147.2 132.4 Z M 147.2 114.9 L 141.4 125.1 L 147.2 125.1 L 147.2 114.9 Z M 153.8 122.4 C 153.8 117.6 155.4 112.1 160.1 112.1 C 164.8 112.1 166.4 117.6 166.4 122.4 C 166.4 127.2 164.8 132.7 160.1 132.7 C 155.4 132.7 153.8 127.2 153.8 122.4 Z M 163.9 122.4 C 163.9 118.4 163.2 114.2 160.1 114.2 C 157 114.2 156.3 118.4 156.3 122.4 C 156.3 126.3 157 130.6 160.1 130.6 C 163.2 130.6 163.9 126.3 163.9 122.4 Z M 169.4 132.4 C 169.4 132.4 169.37 130.43 169.4 130.4 C 175.9 122.9 178.2 120.5 178.2 117.5 C 178.2 115.4 176.7 114.2 174.9 114.2 C 173.1 114.2 171.7 115.1 170.7 116.7 C 170.7 116.7 169.2 115.3 169.2 115.3 C 170.5 113.2 172.4 112.1 175 112.1 C 178 112.1 180.6 114 180.6 117.5 C 180.6 120.9 178.1 123.9 172.8 130.2 C 172.76 130.25 180.7 130.2 180.7 130.2 L 180.7 132.4 L 169.4 132.4 Z M 184.3 131.1 C 184.3 130.2 185 129.5 185.9 129.5 C 186.7 129.5 187.5 130.2 187.5 131.1 C 187.5 132 186.7 132.7 185.9 132.7 C 185 132.7 184.3 132 184.3 131.1 Z M 190.7 122.4 C 190.7 117.6 192.3 112.1 197 112.1 C 201.6 112.1 203.2 117.6 203.2 122.4 C 203.2 127.2 201.6 132.7 197 132.7 C 192.3 132.7 190.7 127.2 190.7 122.4 Z M 200.8 122.4 C 200.8 118.4 200.1 114.2 197 114.2 C 193.9 114.2 193.2 118.4 193.2 122.4 C 193.2 126.3 193.9 130.6 197 130.6 C 200.1 130.6 200.8 126.3 200.8 122.4 Z M 205.5 129.4 C 205.5 129.4 207.1 128 207.1 128 C 208 129.5 209.5 130.6 211.4 130.6 C 213.8 130.6 215 129.1 215 126.8 C 215 124.1 213.2 123.2 211.2 123.2 C 210.6 123.2 209.9 123.2 209.6 123.2 C 209.6 123.2 209.6 121 209.6 121 C 209.9 121.1 210.6 121.1 211.1 121.1 C 213.1 121.1 214.8 120 214.8 117.7 C 214.8 115.3 213.3 114.2 211.3 114.2 C 209.5 114.2 208.3 115.1 207.3 116.6 C 207.3 116.6 205.8 115.2 205.8 115.2 C 207 113.3 209 112.1 211.5 112.1 C 214.7 112.1 217.1 113.8 217.1 117.4 C 217.1 119.9 215.4 121.6 213.6 122 C 215.3 122.3 217.4 124.1 217.4 127 C 217.4 130.3 215.3 132.7 211.5 132.7 C 208.6 132.7 206.5 131.2 205.5 129.4 Z " stroke="none" fill="#d0d1d4"/>  </g>  <g id="Polygon227980">    <path d="M 148.1 96.4 L 148.1 79.5 L 145 82.8 L 143.5 81.3 L 148.3 76.4 L 150.4 76.4 L 150.4 96.4 L 148.1 96.4 Z M 154.1 96.4 C 154.1 96.4 154.13 94.43 154.1 94.4 C 160.7 86.9 162.9 84.5 162.9 81.5 C 162.9 79.4 161.4 78.2 159.7 78.2 C 157.8 78.2 156.4 79.1 155.5 80.7 C 155.5 80.7 153.9 79.3 153.9 79.3 C 155.2 77.2 157.2 76.1 159.7 76.1 C 162.8 76.1 165.3 78 165.3 81.5 C 165.3 84.9 162.8 87.9 157.5 94.2 C 157.52 94.25 165.4 94.2 165.4 94.2 L 165.4 96.4 L 154.1 96.4 Z M 168.6 86.4 C 168.6 81 170.5 76.1 175.4 76.1 C 177.5 76.1 179.1 77.1 180 78.6 C 180 78.6 178.7 80.2 178.7 80.2 C 178 79 177 78.2 175.4 78.2 C 172.2 78.2 171 82.4 171 86.2 C 171 86.4 171 86.5 171 86.8 C 171.7 85.4 173.4 83.8 175.5 83.8 C 178.4 83.8 180.7 86 180.7 90.2 C 180.7 93.6 178.6 96.7 174.9 96.7 C 170.2 96.7 168.6 91.7 168.6 86.4 Z M 178.3 90.3 C 178.3 87.1 176.7 85.9 174.9 85.9 C 173.2 85.9 171.8 87.3 171.1 89 C 171.2 91.2 172 94.6 174.8 94.6 C 177.2 94.6 178.3 92.4 178.3 90.3 Z M 183.8 95.1 C 183.8 94.2 184.5 93.5 185.4 93.5 C 186.3 93.5 187 94.2 187 95.1 C 187 96 186.3 96.7 185.4 96.7 C 184.5 96.7 183.8 96 183.8 95.1 Z M 190.2 86.4 C 190.2 81.6 191.8 76.1 196.5 76.1 C 201.2 76.1 202.8 81.6 202.8 86.4 C 202.8 91.2 201.2 96.7 196.5 96.7 C 191.8 96.7 190.2 91.2 190.2 86.4 Z M 200.3 86.4 C 200.3 82.4 199.6 78.2 196.5 78.2 C 193.4 78.2 192.7 82.4 192.7 86.4 C 192.7 90.3 193.4 94.6 196.5 94.6 C 199.6 94.6 200.3 90.3 200.3 86.4 Z M 205.8 96.4 C 205.8 96.4 205.75 94.43 205.8 94.4 C 212.3 86.9 214.5 84.5 214.5 81.5 C 214.5 79.4 213 78.2 211.3 78.2 C 209.4 78.2 208.1 79.1 207.1 80.7 C 207.1 80.7 205.5 79.3 205.5 79.3 C 206.9 77.2 208.8 76.1 211.4 76.1 C 214.4 76.1 217 78 217 81.5 C 217 84.9 214.5 87.9 209.1 94.2 C 209.14 94.25 217.1 94.2 217.1 94.2 L 217.1 96.4 L 205.8 96.4 Z " stroke="none" fill="#d0d1d4"/>  </g>  <g id="Polygon227979">    <path d="M 148.2 60.4 L 148.2 43.5 L 145.2 46.8 L 143.7 45.3 L 148.5 40.4 L 150.6 40.4 L 150.6 60.4 L 148.2 60.4 Z M 154.6 58.2 C 154.6 58.2 156 56.5 156 56.5 C 156.7 57.8 157.6 58.6 159.3 58.6 C 162.5 58.6 163.6 54.3 163.6 50.6 C 163.6 50.3 163.6 50.2 163.6 50 C 162.9 51.4 161.3 52.9 159.2 52.9 C 156.3 52.9 154 50.8 154 46.5 C 154 43.2 156 40 159.7 40 C 164.5 40 166.1 45 166.1 50.4 C 166.1 55.8 164.1 60.7 159.3 60.7 C 157.2 60.7 155.6 59.7 154.6 58.2 Z M 163.6 47.8 C 163.5 45.6 162.7 42.2 159.9 42.2 C 157.5 42.2 156.4 44.4 156.4 46.5 C 156.4 49.7 157.9 50.9 159.8 50.9 C 161.5 50.9 162.9 49.4 163.6 47.8 Z M 168.9 50.4 C 168.9 45.6 170.5 40.1 175.2 40.1 C 179.8 40.1 181.4 45.6 181.4 50.4 C 181.4 55.2 179.8 60.7 175.2 60.7 C 170.5 60.7 168.9 55.2 168.9 50.4 Z M 179 50.4 C 179 46.4 178.2 42.2 175.2 42.2 C 172.1 42.2 171.3 46.4 171.3 50.4 C 171.3 54.3 172.1 58.6 175.2 58.6 C 178.2 58.6 179 54.3 179 50.4 Z M 184.7 59.1 C 184.7 58.2 185.4 57.5 186.3 57.5 C 187.1 57.5 187.9 58.2 187.9 59.1 C 187.9 60 187.1 60.7 186.3 60.7 C 185.4 60.7 184.7 60 184.7 59.1 Z M 191 55.5 C 191 52.8 193 50.8 195 50.1 C 193.2 49.4 191.3 47.7 191.3 45.2 C 191.3 41.7 194.1 40.1 197 40.1 C 199.8 40.1 202.6 41.7 202.6 45.2 C 202.6 47.7 200.7 49.4 198.9 50.1 C 200.9 50.8 202.9 52.8 202.9 55.4 C 202.9 58.7 200.4 60.7 197 60.7 C 193.5 60.7 191 58.7 191 55.5 Z M 200.2 45.5 C 200.2 43.5 198.9 42.2 197 42.2 C 195 42.2 193.7 43.5 193.7 45.5 C 193.7 47.9 196.2 48.9 197 49.2 C 197.7 48.9 200.2 47.9 200.2 45.5 Z M 200.5 55.2 C 200.5 52.5 197.8 51.2 197 51 C 196.1 51.2 193.5 52.5 193.5 55.2 C 193.5 57.3 195 58.6 197 58.6 C 198.9 58.6 200.5 57.3 200.5 55.2 Z M 205.6 55.5 C 205.6 52.8 207.6 50.8 209.6 50.1 C 207.8 49.4 205.9 47.7 205.9 45.2 C 205.9 41.7 208.7 40.1 211.5 40.1 C 214.4 40.1 217.2 41.7 217.2 45.2 C 217.2 47.7 215.3 49.4 213.5 50.1 C 215.5 50.8 217.5 52.8 217.5 55.4 C 217.5 58.7 215 60.7 211.5 60.7 C 208 60.7 205.6 58.7 205.6 55.5 Z M 214.8 45.5 C 214.8 43.5 213.5 42.2 211.5 42.2 C 209.6 42.2 208.3 43.5 208.3 45.5 C 208.3 47.9 210.8 48.9 211.5 49.2 C 212.3 48.9 214.8 47.9 214.8 45.5 Z M 215.1 55.2 C 215.1 52.5 212.4 51.2 211.5 51 C 210.7 51.2 208 52.5 208 55.2 C 208 57.3 209.6 58.6 211.5 58.6 C 213.5 58.6 215.1 57.3 215.1 55.2 Z " stroke="none" fill="#d0d1d4"/>  </g>  <g id="Polygon227978">    <path d="M 148.6 24.4 L 148.6 7.5 L 145.5 10.8 L 144.1 9.3 L 148.9 4.4 L 151 4.4 L 151 24.4 L 148.6 24.4 Z M 154.5 14.4 C 154.5 9.6 156.1 4.1 160.8 4.1 C 165.5 4.1 167.1 9.6 167.1 14.4 C 167.1 19.2 165.5 24.7 160.8 24.7 C 156.1 24.7 154.5 19.2 154.5 14.4 Z M 164.6 14.4 C 164.6 10.4 163.9 6.2 160.8 6.2 C 157.7 6.2 157 10.4 157 14.4 C 157 18.3 157.7 22.6 160.8 22.6 C 163.9 22.6 164.6 18.3 164.6 14.4 Z M 169.8 19.5 C 169.8 16.8 171.8 14.8 173.8 14.1 C 172 13.4 170.1 11.7 170.1 9.2 C 170.1 5.7 172.9 4.1 175.8 4.1 C 178.6 4.1 181.4 5.7 181.4 9.2 C 181.4 11.7 179.5 13.4 177.7 14.1 C 179.7 14.8 181.7 16.8 181.7 19.4 C 181.7 22.7 179.2 24.7 175.8 24.7 C 172.2 24.7 169.8 22.7 169.8 19.5 Z M 179 9.5 C 179 7.5 177.7 6.2 175.8 6.2 C 173.8 6.2 172.5 7.5 172.5 9.5 C 172.5 11.9 175 12.9 175.8 13.2 C 176.5 12.9 179 11.9 179 9.5 Z M 179.3 19.2 C 179.3 16.5 176.6 15.2 175.8 15 C 174.9 15.2 172.2 16.5 172.2 19.2 C 172.2 21.3 173.8 22.6 175.8 22.6 C 177.7 22.6 179.3 21.3 179.3 19.2 Z M 184.9 23.1 C 184.9 22.2 185.6 21.5 186.5 21.5 C 187.3 21.5 188.1 22.2 188.1 23.1 C 188.1 24 187.3 24.7 186.5 24.7 C 185.6 24.7 184.9 24 184.9 23.1 Z M 191.3 14.4 C 191.3 9 193.2 4.1 198 4.1 C 200.1 4.1 201.7 5.1 202.7 6.6 C 202.7 6.6 201.4 8.2 201.4 8.2 C 200.7 7 199.7 6.2 198.1 6.2 C 194.9 6.2 193.7 10.4 193.7 14.2 C 193.7 14.4 193.7 14.5 193.7 14.8 C 194.4 13.4 196.1 11.8 198.1 11.8 C 201 11.8 203.4 14 203.4 18.2 C 203.4 21.6 201.3 24.7 197.6 24.7 C 192.9 24.7 191.3 19.7 191.3 14.4 Z M 201 18.3 C 201 15.1 199.4 13.9 197.5 13.9 C 195.9 13.9 194.5 15.3 193.8 17 C 193.9 19.2 194.7 22.6 197.5 22.6 C 199.9 22.6 201 20.4 201 18.3 Z M 205.5 21.4 C 205.5 21.4 207.1 20 207.1 20 C 208 21.5 209.5 22.6 211.4 22.6 C 213.8 22.6 215 21.1 215 18.8 C 215 16.1 213.2 15.2 211.2 15.2 C 210.6 15.2 209.9 15.2 209.6 15.2 C 209.6 15.2 209.6 13 209.6 13 C 209.9 13.1 210.6 13.1 211.1 13.1 C 213.1 13.1 214.8 12 214.8 9.7 C 214.8 7.3 213.3 6.2 211.3 6.2 C 209.5 6.2 208.3 7.1 207.3 8.6 C 207.3 8.6 205.8 7.2 205.8 7.2 C 207 5.3 209 4.1 211.5 4.1 C 214.7 4.1 217.1 5.8 217.1 9.4 C 217.1 11.9 215.4 13.6 213.6 14 C 215.3 14.3 217.4 16.1 217.4 19 C 217.4 22.3 215.3 24.7 211.5 24.7 C 208.6 24.7 206.5 23.2 205.5 21.4 Z " stroke="none" fill="#d0d1d4"/>  </g></svg>