<?xml version="1.0" standalone="no"?><!DOCTYPE svg PUBLIC "-//W3C//DTD SVG 1.1//EN" "http://www.w3.org/Graphics/SVG/1.1/DTD/svg11.dtd"><svg xmlns="http://www.w3.org/2000/svg" version="1.1" width="274px" height="443px" viewBox="0 0 274 443">  <desc>EPE packing foam Hair wax Polyester fibre stuffing White glue Leather strips Petroleum jelly Non-toxic acrylic paint</desc>  <defs/>  <g id="Polygon156864">    <path d="M 4.3 425.4 C 2.9 425.4 1.8 424.3 1.8 422.9 C 1.8 421.5 2.9 420.3 4.3 420.3 C 5.7 420.3 6.9 421.5 6.9 422.9 C 6.9 424.3 5.7 425.4 4.3 425.4 Z M 15 428.7 L 15 412.7 C 15 412.7 20.26 412.69 20.3 412.7 C 22.8 412.7 24.2 414.3 24.2 416.8 C 24.2 418.8 23.2 420.1 21.8 420.4 C 23.3 420.7 24.5 422.5 24.5 424.4 C 24.5 427 23.1 428.7 20.4 428.7 C 20.4 428.7 15 428.7 15 428.7 Z M 22.2 417 C 22.2 415.5 21.5 414.4 19.9 414.4 C 19.9 414.37 16.9 414.4 16.9 414.4 L 16.9 419.7 C 16.9 419.7 19.9 419.68 19.9 419.7 C 21.5 419.7 22.2 418.5 22.2 417 Z M 22.5 424.2 C 22.5 422.7 21.7 421.4 20 421.4 C 20.02 421.36 16.9 421.4 16.9 421.4 L 16.9 427 C 16.9 427 20.02 427 20 427 C 21.7 427 22.5 425.9 22.5 424.2 Z M 27 428.7 L 27 412.7 L 28.7 412.7 L 28.7 428.7 L 27 428.7 Z M 37.9 428.7 C 37.9 428.7 37.9 427.09 37.9 427.1 C 37.2 428.1 36 429 34.5 429 C 32.6 429 31.6 428 31.6 425.9 C 31.63 425.89 31.6 417.1 31.6 417.1 L 33.3 417.1 C 33.3 417.1 33.34 425.39 33.3 425.4 C 33.3 426.9 34.1 427.5 35.2 427.5 C 36.3 427.5 37.4 426.6 37.9 425.7 C 37.9 425.65 37.9 417.1 37.9 417.1 L 39.6 417.1 L 39.6 428.7 L 37.9 428.7 Z M 42 422.9 C 42 419.5 43.8 416.8 46.7 416.8 C 49.7 416.8 51.3 419.6 51.3 422.9 C 51.26 422.94 51.3 423.5 51.3 423.5 C 51.3 423.5 43.75 423.47 43.8 423.5 C 43.8 425.8 45 427.5 47.1 427.5 C 48.1 427.5 49.1 427 49.8 426.1 C 49.8 426.1 50.8 427.1 50.8 427.1 C 49.8 428.3 48.5 429 46.9 429 C 43.8 429 42 426.4 42 422.9 Z M 46.7 418.3 C 44.6 418.3 43.8 420.5 43.8 422.2 C 43.8 422.2 49.6 422.2 49.6 422.2 C 49.5 420.4 48.8 418.3 46.7 418.3 Z M 60.9 428.7 L 60.9 415.2 L 58.4 417.9 L 57.2 416.7 L 61.1 412.7 L 62.8 412.7 L 62.8 428.7 L 60.9 428.7 Z M 79 428.7 C 78.6 428.2 78.2 427.7 77.8 427.1 C 76.8 428.2 75.6 429 74 429 C 71.8 429 70 427.5 70 424.7 C 70 422.2 71.4 420.9 72.9 419.8 C 72.3 418.6 71.8 417.3 71.8 416.3 C 71.8 414 73.2 412.5 75.1 412.5 C 76.8 412.5 78.1 413.7 78.1 415.6 C 78.1 417.9 76.5 419 74.9 420.2 C 75.4 421 75.9 421.8 76.3 422.4 C 76.8 423.2 77.3 423.8 77.7 424.4 C 78.4 423.2 78.8 421.8 79 420.9 C 79 420.9 80.5 421.5 80.5 421.5 C 80 422.9 79.5 424.4 78.7 425.7 C 79.4 426.6 80.2 427.5 81.2 428.7 C 81.2 428.7 79 428.7 79 428.7 Z M 76.8 425.9 C 76.1 425 75.5 424.1 75.1 423.5 C 74.6 422.7 74 422 73.6 421.1 C 72.6 422 71.8 423 71.8 424.6 C 71.8 426.5 73 427.5 74.2 427.5 C 75.3 427.5 76.1 426.9 76.8 425.9 Z M 74.3 418.9 C 75.5 418 76.6 417.2 76.6 415.6 C 76.6 414.4 75.9 413.8 75.2 413.8 C 74.2 413.8 73.5 414.7 73.5 416.3 C 73.5 417.1 73.8 418 74.3 418.9 Z M 88 428.7 L 88 412.7 C 88 412.7 93.26 412.69 93.3 412.7 C 95.8 412.7 97.2 414.3 97.2 416.8 C 97.2 418.8 96.2 420.1 94.8 420.4 C 96.3 420.7 97.5 422.5 97.5 424.4 C 97.5 427 96.1 428.7 93.4 428.7 C 93.41 428.7 88 428.7 88 428.7 Z M 95.3 417 C 95.3 415.5 94.5 414.4 92.9 414.4 C 92.9 414.37 89.9 414.4 89.9 414.4 L 89.9 419.7 C 89.9 419.7 92.9 419.68 92.9 419.7 C 94.5 419.7 95.3 418.5 95.3 417 Z M 95.5 424.2 C 95.5 422.7 94.7 421.4 93 421.4 C 93.02 421.36 89.9 421.4 89.9 421.4 L 89.9 427 C 89.9 427 93.02 427 93 427 C 94.7 427 95.5 425.9 95.5 424.2 Z M 100 428.7 L 100 412.7 L 101.7 412.7 L 101.7 428.7 L 100 428.7 Z M 110.9 428.7 C 110.9 428.7 110.9 427.09 110.9 427.1 C 110.2 428.1 109 429 107.5 429 C 105.6 429 104.6 428 104.6 425.9 C 104.64 425.89 104.6 417.1 104.6 417.1 L 106.3 417.1 C 106.3 417.1 106.34 425.39 106.3 425.4 C 106.3 426.9 107.1 427.5 108.2 427.5 C 109.3 427.5 110.4 426.6 110.9 425.7 C 110.9 425.65 110.9 417.1 110.9 417.1 L 112.6 417.1 L 112.6 428.7 L 110.9 428.7 Z M 115 422.9 C 115 419.5 116.8 416.8 119.7 416.8 C 122.7 416.8 124.3 419.6 124.3 422.9 C 124.27 422.94 124.3 423.5 124.3 423.5 C 124.3 423.5 116.76 423.47 116.8 423.5 C 116.8 425.8 118 427.5 120.1 427.5 C 121.1 427.5 122.1 427 122.9 426.1 C 122.9 426.1 123.8 427.1 123.8 427.1 C 122.8 428.3 121.5 429 119.9 429 C 116.9 429 115 426.4 115 422.9 Z M 119.7 418.3 C 117.6 418.3 116.8 420.5 116.8 422.2 C 116.8 422.2 122.6 422.2 122.6 422.2 C 122.5 420.4 121.8 418.3 119.7 418.3 Z M 131.2 428.7 C 131.2 428.7 131.16 427.14 131.2 427.1 C 136.4 421.1 138.2 419.2 138.2 416.8 C 138.2 415.1 137 414.2 135.6 414.2 C 134.1 414.2 133 414.9 132.2 416.2 C 132.2 416.2 131 415 131 415 C 132 413.4 133.6 412.5 135.6 412.5 C 138.1 412.5 140.1 414 140.1 416.8 C 140.1 419.5 138.1 421.9 133.9 427 C 133.87 427 140.2 427 140.2 427 L 140.2 428.7 L 131.2 428.7 Z " stroke="none" fill="#7c7979"/>  </g>  <g id="Polygon156863">    <path d="M 4.3 389.4 C 2.9 389.4 1.8 388.3 1.8 386.9 C 1.8 385.5 2.9 384.3 4.3 384.3 C 5.7 384.3 6.9 385.5 6.9 386.9 C 6.9 388.3 5.7 389.4 4.3 389.4 Z M 22.2 392.7 L 19.2 386.3 L 16.9 386.3 L 16.9 392.7 L 15 392.7 L 15 376.7 C 15 376.7 19.85 376.69 19.8 376.7 C 22.4 376.7 24.2 378.5 24.2 381.5 C 24.2 384.3 22.6 385.7 21 386 C 21.05 386 24.4 392.7 24.4 392.7 L 22.2 392.7 Z M 22.3 381.5 C 22.3 379.7 21.3 378.4 19.6 378.4 C 19.63 378.37 16.9 378.4 16.9 378.4 L 16.9 384.6 C 16.9 384.6 19.63 384.61 19.6 384.6 C 21.3 384.6 22.3 383.3 22.3 381.5 Z M 25.7 386.9 C 25.7 383.5 27.4 380.8 30.4 380.8 C 33.4 380.8 34.9 383.6 34.9 386.9 C 34.94 386.94 34.9 387.5 34.9 387.5 C 34.9 387.5 27.43 387.47 27.4 387.5 C 27.5 389.8 28.7 391.5 30.8 391.5 C 31.8 391.5 32.8 391 33.5 390.1 C 33.5 390.1 34.4 391.1 34.4 391.1 C 33.5 392.3 32.2 393 30.6 393 C 27.5 393 25.7 390.4 25.7 386.9 Z M 30.3 382.3 C 28.3 382.3 27.5 384.5 27.4 386.2 C 27.4 386.2 33.2 386.2 33.2 386.2 C 33.2 384.4 32.4 382.3 30.3 382.3 Z M 43.8 392.7 C 43.8 392.7 43.85 391.04 43.8 391 C 43.2 392.2 42 393 40.8 393 C 38.2 393 36.6 390.6 36.6 386.9 C 36.6 383.3 38.2 380.8 40.8 380.8 C 42 380.8 43.2 381.5 43.8 382.8 C 43.85 382.79 43.8 376.7 43.8 376.7 L 45.6 376.7 L 45.6 392.7 L 43.8 392.7 Z M 43.8 389.6 C 43.8 389.6 43.8 384.3 43.8 384.3 C 43.4 383.2 42.3 382.4 41.2 382.4 C 39.3 382.4 38.4 384.4 38.4 386.9 C 38.4 389.4 39.3 391.5 41.2 391.5 C 42.3 391.5 43.4 390.6 43.8 389.6 Z M 58.7 392.7 L 58.7 388.6 L 52.4 388.6 L 52.4 386.9 L 58.2 376.7 L 60.6 376.7 L 60.6 386.9 L 62.4 386.9 L 62.4 388.6 L 60.6 388.6 L 60.6 392.7 L 58.7 392.7 Z M 58.7 378.8 L 54.1 386.9 L 58.7 386.9 L 58.7 378.8 Z M 63.8 384.7 C 63.8 380.8 65.1 376.5 68.8 376.5 C 72.6 376.5 73.8 380.8 73.8 384.7 C 73.8 388.5 72.6 393 68.8 393 C 65.1 393 63.8 388.5 63.8 384.7 Z M 71.9 384.7 C 71.9 381.5 71.3 378.2 68.8 378.2 C 66.4 378.2 65.8 381.5 65.8 384.7 C 65.8 387.9 66.4 391.3 68.8 391.3 C 71.3 391.3 71.9 387.9 71.9 384.7 Z M 89.6 392.7 C 89.2 392.2 88.8 391.7 88.3 391.1 C 87.3 392.2 86.1 393 84.6 393 C 82.3 393 80.5 391.5 80.5 388.7 C 80.5 386.2 81.9 384.9 83.4 383.8 C 82.8 382.6 82.4 381.3 82.4 380.3 C 82.4 378 83.8 376.5 85.7 376.5 C 87.4 376.5 88.7 377.7 88.7 379.6 C 88.7 381.9 87 383 85.4 384.2 C 85.9 385 86.4 385.8 86.9 386.4 C 87.4 387.2 87.8 387.8 88.3 388.4 C 88.9 387.2 89.3 385.8 89.5 384.9 C 89.5 384.9 91 385.5 91 385.5 C 90.6 386.9 90 388.4 89.3 389.7 C 90 390.6 90.8 391.5 91.7 392.7 C 91.7 392.7 89.6 392.7 89.6 392.7 Z M 87.4 389.9 C 86.7 389 86 388.1 85.6 387.5 C 85.1 386.7 84.6 386 84.1 385.1 C 83.1 386 82.4 387 82.4 388.6 C 82.4 390.5 83.5 391.5 84.8 391.5 C 85.8 391.5 86.7 390.9 87.4 389.9 Z M 84.8 382.9 C 86.1 382 87.1 381.2 87.1 379.6 C 87.1 378.4 86.5 377.8 85.7 377.8 C 84.7 377.8 84.1 378.7 84.1 380.3 C 84.1 381.1 84.4 382 84.8 382.9 Z M 105.8 392.7 L 102.7 386.3 L 100.4 386.3 L 100.4 392.7 L 98.5 392.7 L 98.5 376.7 C 98.5 376.7 103.39 376.69 103.4 376.7 C 106 376.7 107.8 378.5 107.8 381.5 C 107.8 384.3 106.2 385.7 104.6 386 C 104.59 386 108 392.7 108 392.7 L 105.8 392.7 Z M 105.8 381.5 C 105.8 379.7 104.8 378.4 103.2 378.4 C 103.17 378.37 100.4 378.4 100.4 378.4 L 100.4 384.6 C 100.4 384.6 103.17 384.61 103.2 384.6 C 104.8 384.6 105.8 383.3 105.8 381.5 Z M 109.2 386.9 C 109.2 383.5 111 380.8 113.9 380.8 C 116.9 380.8 118.5 383.6 118.5 386.9 C 118.49 386.94 118.5 387.5 118.5 387.5 C 118.5 387.5 110.97 387.47 111 387.5 C 111 389.8 112.2 391.5 114.3 391.5 C 115.3 391.5 116.3 391 117.1 390.1 C 117.1 390.1 118 391.1 118 391.1 C 117 392.3 115.7 393 114.2 393 C 111.1 393 109.2 390.4 109.2 386.9 Z M 113.9 382.3 C 111.8 382.3 111 384.5 111 386.2 C 111 386.2 116.8 386.2 116.8 386.2 C 116.8 384.4 116 382.3 113.9 382.3 Z M 127.4 392.7 C 127.4 392.7 127.39 391.04 127.4 391 C 126.7 392.2 125.6 393 124.3 393 C 121.7 393 120.2 390.6 120.2 386.9 C 120.2 383.3 121.7 380.8 124.3 380.8 C 125.5 380.8 126.7 381.5 127.4 382.8 C 127.39 382.79 127.4 376.7 127.4 376.7 L 129.1 376.7 L 129.1 392.7 L 127.4 392.7 Z M 127.4 389.6 C 127.4 389.6 127.4 384.3 127.4 384.3 C 127 383.2 125.9 382.4 124.8 382.4 C 122.9 382.4 122 384.4 122 386.9 C 122 389.4 122.9 391.5 124.8 391.5 C 125.9 391.5 127 390.6 127.4 389.6 Z M 136.1 390.3 C 136.1 390.3 137.3 389.2 137.3 389.2 C 138.1 390.4 139.2 391.3 140.8 391.3 C 142.7 391.3 143.7 390.1 143.7 388.2 C 143.7 386.1 142.2 385.3 140.6 385.3 C 140.1 385.3 139.6 385.3 139.3 385.4 C 139.3 385.4 139.3 383.6 139.3 383.6 C 139.6 383.7 140.2 383.7 140.6 383.7 C 142.2 383.7 143.5 382.8 143.5 381 C 143.5 379.1 142.3 378.2 140.7 378.2 C 139.3 378.2 138.3 378.9 137.5 380.1 C 137.5 380.1 136.3 379 136.3 379 C 137.2 377.4 138.8 376.5 140.8 376.5 C 143.4 376.5 145.4 377.9 145.4 380.7 C 145.4 382.7 144 384.1 142.5 384.4 C 143.9 384.6 145.6 386.1 145.6 388.4 C 145.6 391 143.9 393 140.8 393 C 138.5 393 136.9 391.8 136.1 390.3 Z " stroke="none" fill="#7c7979"/>  </g>  <g id="Polygon156862">    <path d="M 4.3 353.4 C 2.9 353.4 1.8 352.3 1.8 350.9 C 1.8 349.5 2.9 348.3 4.3 348.3 C 5.7 348.3 6.9 349.5 6.9 350.9 C 6.9 352.3 5.7 353.4 4.3 353.4 Z M 18.3 356.7 L 18.3 349.9 L 13.4 340.7 L 15.5 340.7 L 19.3 348.1 L 23 340.7 L 25.2 340.7 L 20.2 349.9 L 20.2 356.7 L 18.3 356.7 Z M 23.8 350.9 C 23.8 347.5 25.6 344.8 28.5 344.8 C 31.6 344.8 33.1 347.6 33.1 350.9 C 33.1 350.94 33.1 351.5 33.1 351.5 C 33.1 351.5 25.58 351.47 25.6 351.5 C 25.7 353.8 26.9 355.5 28.9 355.5 C 29.9 355.5 31 355 31.7 354.1 C 31.7 354.1 32.6 355.1 32.6 355.1 C 31.7 356.3 30.3 357 28.8 357 C 25.7 357 23.8 354.4 23.8 350.9 Z M 28.5 346.3 C 26.4 346.3 25.6 348.5 25.6 350.2 C 25.6 350.2 31.4 350.2 31.4 350.2 C 31.4 348.4 30.6 346.3 28.5 346.3 Z M 35.4 356.7 L 35.4 340.7 L 37.1 340.7 L 37.1 356.7 L 35.4 356.7 Z M 40 356.7 L 40 340.7 L 41.7 340.7 L 41.7 356.7 L 40 356.7 Z M 44.1 350.9 C 44.1 347.6 45.7 344.8 48.8 344.8 C 51.9 344.8 53.5 347.6 53.5 350.9 C 53.5 354.2 51.9 357 48.8 357 C 45.7 357 44.1 354.2 44.1 350.9 Z M 51.7 350.9 C 51.7 348.6 50.8 346.4 48.8 346.4 C 46.8 346.4 45.9 348.6 45.9 350.9 C 45.9 353.2 46.8 355.5 48.8 355.5 C 50.8 355.5 51.7 353.2 51.7 350.9 Z M 64.4 356.7 L 61.9 347.4 L 59.4 356.7 L 57.7 356.7 L 54.6 345.1 L 56.4 345.1 L 58.6 354.4 L 61.1 345.1 L 62.7 345.1 L 65.2 354.4 L 67.5 345.1 L 69.3 345.1 L 66.2 356.7 L 64.4 356.7 Z M 75.5 354.4 C 75.5 354.4 76.8 353.2 76.8 353.2 C 77.5 354.5 78.6 355.3 80.2 355.3 C 81.9 355.3 83 353.7 83 351.8 C 83 349.5 81.9 348.3 80.3 348.3 C 79.1 348.3 78.3 348.7 77.4 349.8 C 77.37 349.76 76 349.3 76 349.3 L 76 340.7 L 84.1 340.7 L 84.1 342.4 L 77.9 342.4 C 77.9 342.4 77.85 347.99 77.9 348 C 78.5 347.2 79.5 346.6 80.8 346.6 C 83.1 346.6 85 348.4 85 351.8 C 85 354.8 83 357 80.2 357 C 77.9 357 76.5 356 75.5 354.4 Z M 100.6 356.7 C 100.2 356.2 99.8 355.7 99.4 355.1 C 98.4 356.2 97.1 357 95.6 357 C 93.4 357 91.6 355.5 91.6 352.7 C 91.6 350.2 93 348.9 94.5 347.8 C 93.9 346.6 93.4 345.3 93.4 344.3 C 93.4 342 94.8 340.5 96.7 340.5 C 98.4 340.5 99.7 341.7 99.7 343.6 C 99.7 345.9 98.1 347 96.5 348.2 C 97 349 97.5 349.8 97.9 350.4 C 98.4 351.2 98.9 351.8 99.3 352.4 C 100 351.2 100.4 349.8 100.6 348.9 C 100.6 348.9 102.1 349.5 102.1 349.5 C 101.6 350.9 101.1 352.4 100.3 353.7 C 101 354.6 101.8 355.5 102.8 356.7 C 102.8 356.7 100.6 356.7 100.6 356.7 Z M 98.4 353.9 C 97.7 353 97.1 352.1 96.7 351.5 C 96.2 350.7 95.6 350 95.2 349.1 C 94.2 350 93.4 351 93.4 352.6 C 93.4 354.5 94.6 355.5 95.8 355.5 C 96.9 355.5 97.7 354.9 98.4 353.9 Z M 95.9 346.9 C 97.1 346 98.2 345.2 98.2 343.6 C 98.2 342.4 97.5 341.8 96.8 341.8 C 95.8 341.8 95.1 342.7 95.1 344.3 C 95.1 345.1 95.4 346 95.9 346.9 Z M 112.9 356.7 L 112.9 349.9 L 108 340.7 L 110.1 340.7 L 113.9 348.1 L 117.6 340.7 L 119.8 340.7 L 114.8 349.9 L 114.8 356.7 L 112.9 356.7 Z M 118.4 350.9 C 118.4 347.5 120.2 344.8 123.1 344.8 C 126.2 344.8 127.7 347.6 127.7 350.9 C 127.7 350.94 127.7 351.5 127.7 351.5 C 127.7 351.5 120.19 351.47 120.2 351.5 C 120.3 353.8 121.5 355.5 123.5 355.5 C 124.5 355.5 125.6 355 126.3 354.1 C 126.3 354.1 127.2 355.1 127.2 355.1 C 126.3 356.3 124.9 357 123.4 357 C 120.3 357 118.4 354.4 118.4 350.9 Z M 123.1 346.3 C 121.1 346.3 120.2 348.5 120.2 350.2 C 120.2 350.2 126 350.2 126 350.2 C 126 348.4 125.2 346.3 123.1 346.3 Z M 130 356.7 L 130 340.7 L 131.7 340.7 L 131.7 356.7 L 130 356.7 Z M 134.6 356.7 L 134.6 340.7 L 136.3 340.7 L 136.3 356.7 L 134.6 356.7 Z M 138.7 350.9 C 138.7 347.6 140.3 344.8 143.4 344.8 C 146.5 344.8 148.1 347.6 148.1 350.9 C 148.1 354.2 146.5 357 143.4 357 C 140.3 357 138.7 354.2 138.7 350.9 Z M 146.3 350.9 C 146.3 348.6 145.4 346.4 143.4 346.4 C 141.4 346.4 140.5 348.6 140.5 350.9 C 140.5 353.2 141.4 355.5 143.4 355.5 C 145.4 355.5 146.3 353.2 146.3 350.9 Z M 159 356.7 L 156.5 347.4 L 154 356.7 L 152.3 356.7 L 149.2 345.1 L 151 345.1 L 153.2 354.4 L 155.7 345.1 L 157.3 345.1 L 159.8 354.4 L 162.1 345.1 L 163.9 345.1 L 160.8 356.7 L 159 356.7 Z M 170 348.7 C 170 344.4 171.5 340.5 175.4 340.5 C 177.1 340.5 178.3 341.2 179.1 342.4 C 179.1 342.4 178.1 343.8 178.1 343.8 C 177.5 342.8 176.7 342.2 175.4 342.2 C 172.9 342.2 171.9 345.5 171.9 348.5 C 171.9 348.8 171.9 348.8 171.9 349 C 172.5 347.9 173.8 346.7 175.5 346.7 C 177.8 346.7 179.7 348.4 179.7 351.8 C 179.7 354.5 178 357 175.1 357 C 171.2 357 170 353 170 348.7 Z M 177.7 351.8 C 177.7 349.3 176.5 348.3 175 348.3 C 173.6 348.3 172.6 349.5 172 350.8 C 172.1 352.6 172.7 355.3 175 355.3 C 176.9 355.3 177.7 353.5 177.7 351.8 Z " stroke="none" fill="#7c7979"/>  </g>  <g id="Polygon156861">    <path d="M 12.5 320.7 L 11.2 316.2 L 4.1 316.2 L 2.8 320.7 L 0.2 320.7 L 6.2 300.7 L 9.1 300.7 L 15.1 320.7 L 12.5 320.7 Z M 7.6 303.3 L 4.6 314.1 L 10.7 314.1 L 7.6 303.3 Z M 17 320.7 L 17 306.2 L 19.1 306.2 C 19.1 306.2 19.14 308.52 19.1 308.5 C 20.1 307 21.5 305.9 23.2 305.9 C 23.2 305.9 23.2 308.1 23.2 308.1 C 23 308.1 22.8 308 22.5 308 C 21.2 308 19.7 309.2 19.1 310.4 C 19.14 310.41 19.1 320.7 19.1 320.7 L 17 320.7 Z M 25.9 317.8 C 25.86 317.79 25.9 308.1 25.9 308.1 L 23.9 308.1 L 23.9 306.2 L 25.9 306.2 L 25.9 302.3 L 28 302.3 L 28 306.2 L 30.5 306.2 L 30.5 308.1 L 28 308.1 C 28 308.1 28.02 317.4 28 317.4 C 28 318.5 28.3 319.1 29.2 319.1 C 29.7 319.1 30.2 318.9 30.4 318.6 C 30.4 318.6 31.1 320.2 31.1 320.2 C 30.6 320.7 29.9 321.1 28.8 321.1 C 26.8 321.1 25.9 320 25.9 317.8 Z M 32.6 302.6 C 32.6 301.8 33.3 301.2 34.1 301.2 C 34.9 301.2 35.5 301.8 35.5 302.6 C 35.5 303.5 34.9 304.1 34.1 304.1 C 33.3 304.1 32.6 303.5 32.6 302.6 Z M 33 320.7 L 33 306.2 L 35.2 306.2 L 35.2 320.7 L 33 320.7 Z M 39.3 320.7 L 39.3 308.1 L 37.4 308.1 L 37.4 306.2 L 39.3 306.2 C 39.3 306.2 39.33 304.44 39.3 304.4 C 39.3 301.9 40.8 300.4 42.9 300.4 C 43.6 300.4 44.2 300.5 44.7 300.8 C 44.7 300.8 44.2 302.5 44.2 302.5 C 43.9 302.3 43.6 302.2 43.2 302.2 C 42.1 302.2 41.5 303 41.5 304.4 C 41.49 304.44 41.5 306.2 41.5 306.2 L 43.9 306.2 L 43.9 308.1 L 41.5 308.1 L 41.5 320.7 L 39.3 320.7 Z M 46 302.6 C 46 301.8 46.7 301.2 47.5 301.2 C 48.3 301.2 49 301.8 49 302.6 C 49 303.5 48.3 304.1 47.5 304.1 C 46.7 304.1 46 303.5 46 302.6 Z M 46.4 320.7 L 46.4 306.2 L 48.6 306.2 L 48.6 320.7 L 46.4 320.7 Z M 51.5 313.4 C 51.5 309.2 53.8 305.9 57.5 305.9 C 59.5 305.9 60.7 306.7 61.6 307.8 C 61.6 307.8 60.5 309.2 60.5 309.2 C 59.7 308.2 58.8 307.8 57.7 307.8 C 55.1 307.8 53.8 310.4 53.8 313.4 C 53.8 316.5 55.1 319.1 57.7 319.1 C 58.8 319.1 59.7 318.7 60.5 317.7 C 60.5 317.7 61.6 319.1 61.6 319.1 C 60.7 320.3 59.5 321.1 57.5 321.1 C 53.8 321.1 51.5 317.7 51.5 313.4 Z M 63.7 302.6 C 63.7 301.8 64.4 301.2 65.2 301.2 C 66 301.2 66.6 301.8 66.6 302.6 C 66.6 303.5 66 304.1 65.2 304.1 C 64.4 304.1 63.7 303.5 63.7 302.6 Z M 64.1 320.7 L 64.1 306.2 L 66.2 306.2 L 66.2 320.7 L 64.1 320.7 Z M 77.3 320.7 C 77.3 320.7 77.34 319.14 77.3 319.1 C 76.4 320.5 75 321.1 73.5 321.1 C 71.2 321.1 69.1 319.3 69.1 316.2 C 69.1 313.2 71.2 311.5 73.5 311.5 C 75 311.5 76.4 312 77.3 313.3 C 77.3 313.3 77.3 310.8 77.3 310.8 C 77.3 308.8 76.3 307.7 74.4 307.7 C 73 307.7 71.8 308.2 70.7 309.5 C 70.7 309.5 69.8 308 69.8 308 C 71.2 306.5 72.9 305.9 74.7 305.9 C 77.6 305.9 79.5 307.3 79.5 310.6 C 79.5 310.56 79.5 320.7 79.5 320.7 L 77.3 320.7 Z M 77.3 317.7 C 77.3 317.7 77.3 314.9 77.3 314.9 C 76.7 313.7 75.5 313.1 74.2 313.1 C 72.4 313.1 71.3 314.5 71.3 316.3 C 71.3 318.1 72.4 319.5 74.2 319.5 C 75.5 319.5 76.7 318.9 77.3 317.7 Z M 83.1 320.7 L 83.1 300.7 L 85.3 300.7 L 85.3 320.7 L 83.1 320.7 Z M 95.6 320.7 L 95.6 308.1 L 93.7 308.1 L 93.7 306.2 L 95.6 306.2 C 95.6 306.2 95.58 304.44 95.6 304.4 C 95.6 301.9 97 300.4 99.2 300.4 C 100.2 300.4 101.1 300.7 101.8 301.4 C 101.8 301.4 100.9 302.9 100.9 302.9 C 100.6 302.5 100.1 302.2 99.5 302.2 C 98.3 302.2 97.7 303 97.7 304.4 C 97.74 304.44 97.7 306.2 97.7 306.2 L 100.2 306.2 L 100.2 308.1 L 97.7 308.1 L 97.7 320.7 L 95.6 320.7 Z M 101.7 313.4 C 101.7 309.4 103.7 305.9 107.5 305.9 C 111.4 305.9 113.5 309.4 113.5 313.4 C 113.5 317.5 111.4 321.1 107.5 321.1 C 103.7 321.1 101.7 317.5 101.7 313.4 Z M 111.2 313.4 C 111.2 310.5 110.1 307.8 107.5 307.8 C 105.1 307.8 103.9 310.5 103.9 313.4 C 103.9 316.4 105.1 319.1 107.5 319.1 C 110.1 319.1 111.2 316.4 111.2 313.4 Z M 115.7 313.4 C 115.7 309.4 117.7 305.9 121.6 305.9 C 125.5 305.9 127.5 309.4 127.5 313.4 C 127.5 317.5 125.5 321.1 121.6 321.1 C 117.7 321.1 115.7 317.5 115.7 313.4 Z M 125.2 313.4 C 125.2 310.5 124.1 307.8 121.6 307.8 C 119.1 307.8 117.9 310.5 117.9 313.4 C 117.9 316.4 119.1 319.1 121.6 319.1 C 124.1 319.1 125.2 316.4 125.2 313.4 Z M 138.7 320.7 C 138.7 320.7 138.69 318.63 138.7 318.6 C 137.8 320.1 136.4 321.1 134.9 321.1 C 131.6 321.1 129.7 318 129.7 313.5 C 129.7 309 131.6 305.9 134.9 305.9 C 136.3 305.9 137.8 306.7 138.7 308.3 C 138.69 308.31 138.7 300.7 138.7 300.7 L 140.8 300.7 L 140.8 320.7 L 138.7 320.7 Z M 138.7 316.8 C 138.7 316.8 138.7 310.1 138.7 310.1 C 138.1 308.9 136.8 307.8 135.4 307.8 C 133 307.8 131.9 310.3 131.9 313.5 C 131.9 316.6 133 319.1 135.4 319.1 C 136.8 319.1 138.1 318.1 138.7 316.8 Z M 158.9 320.7 C 158.9 320.7 158.94 318.63 158.9 318.6 C 158.1 320.1 156.7 321.1 155.1 321.1 C 151.9 321.1 149.9 318 149.9 313.5 C 149.9 309 151.9 305.9 155.1 305.9 C 156.6 305.9 158.1 306.7 158.9 308.3 C 158.94 308.31 158.9 300.7 158.9 300.7 L 161.1 300.7 L 161.1 320.7 L 158.9 320.7 Z M 158.9 316.8 C 158.9 316.8 158.9 310.1 158.9 310.1 C 158.4 308.9 157 307.8 155.7 307.8 C 153.3 307.8 152.2 310.3 152.2 313.5 C 152.2 316.6 153.3 319.1 155.7 319.1 C 157 319.1 158.4 318.1 158.9 316.8 Z M 164.3 324.5 C 164.6 324.6 165.1 324.7 165.3 324.7 C 166.1 324.7 166.6 324.3 167 323.2 C 167.01 323.22 167.8 321 167.8 321 L 163 306.2 L 165.3 306.2 L 168.9 318.1 L 172.5 306.2 L 174.8 306.2 C 174.8 306.2 169.05 323.76 169 323.8 C 168.3 325.9 167.2 326.6 165.4 326.6 C 165 326.6 164.3 326.5 164 326.4 C 164 326.4 164.3 324.5 164.3 324.5 Z M 176 313.4 C 176 309.2 178.2 305.9 181.9 305.9 C 185.7 305.9 187.6 309.3 187.6 313.5 C 187.59 313.5 187.6 314.2 187.6 314.2 C 187.6 314.2 178.2 314.16 178.2 314.2 C 178.3 317.1 179.8 319.3 182.4 319.3 C 183.6 319.3 184.9 318.6 185.8 317.5 C 185.8 317.5 187 318.8 187 318.8 C 185.8 320.2 184.1 321.1 182.2 321.1 C 178.3 321.1 176 317.9 176 313.4 Z M 181.8 307.7 C 179.3 307.7 178.3 310.4 178.2 312.6 C 178.2 312.6 185.5 312.6 185.5 312.6 C 185.4 310.4 184.5 307.7 181.8 307.7 Z " stroke="none" fill="#d3d2d2"/>  </g>  <g id="Polygon156860">    <path d="M 4.3 281.4 C 2.9 281.4 1.8 280.3 1.8 278.9 C 1.8 277.5 2.9 276.3 4.3 276.3 C 5.7 276.3 6.9 277.5 6.9 278.9 C 6.9 280.3 5.7 281.4 4.3 281.4 Z M 14.4 276.7 C 14.4 271.9 16.8 268.4 20.6 268.4 C 23 268.4 24.4 269.9 25.3 271.5 C 25.3 271.5 23.7 272.3 23.7 272.3 C 23.1 271 22 270.1 20.6 270.1 C 18 270.1 16.4 272.9 16.4 276.7 C 16.4 280.5 18 283.3 20.6 283.3 C 22.1 283.3 23.1 282.3 23.7 280.9 C 23.7 280.9 25.3 281.7 25.3 281.7 C 24.5 283.4 23.1 285 20.6 285 C 16.8 285 14.4 281.5 14.4 276.7 Z M 27.4 284.7 L 27.4 273.1 L 29.1 273.1 C 29.1 273.1 29.11 274.96 29.1 275 C 29.9 273.7 31 272.9 32.4 272.9 C 32.4 272.9 32.4 274.6 32.4 274.6 C 32.2 274.6 32 274.6 31.8 274.6 C 30.8 274.6 29.6 275.5 29.1 276.5 C 29.11 276.47 29.1 284.7 29.1 284.7 L 27.4 284.7 Z M 33.8 270.3 C 33.8 269.6 34.4 269.1 35 269.1 C 35.6 269.1 36.2 269.6 36.2 270.3 C 36.2 270.9 35.6 271.4 35 271.4 C 34.4 271.4 33.8 270.9 33.8 270.3 Z M 34.2 284.7 L 34.2 273.1 L 35.9 273.1 L 35.9 284.7 L 34.2 284.7 Z M 50.5 284.7 C 50.5 284.7 50.49 276.3 50.5 276.3 C 50.5 275.1 50 274.4 48.9 274.4 C 47.9 274.4 46.8 275.3 46.4 276.2 C 46.37 276.2 46.4 284.7 46.4 284.7 L 44.6 284.7 C 44.6 284.7 44.64 276.3 44.6 276.3 C 44.6 275.1 44.1 274.4 43 274.4 C 42 274.4 41 275.3 40.5 276.2 C 40.49 276.2 40.5 284.7 40.5 284.7 L 38.8 284.7 L 38.8 273.1 L 40.5 273.1 C 40.5 273.1 40.49 274.76 40.5 274.8 C 41 273.9 42.3 272.8 43.7 272.8 C 45.1 272.8 46.1 273.7 46.3 274.9 C 46.8 273.8 48.1 272.8 49.5 272.8 C 51.2 272.8 52.2 273.8 52.2 275.8 C 52.22 275.84 52.2 284.7 52.2 284.7 L 50.5 284.7 Z M 54.2 283.4 C 54.2 283.4 55.1 282.1 55.1 282.1 C 55.8 282.9 56.9 283.6 58.1 283.6 C 59.4 283.6 60.3 282.8 60.3 281.7 C 60.3 279 54.6 279.9 54.6 275.9 C 54.6 274.2 55.9 272.8 58.2 272.8 C 59.8 272.8 61 273.4 61.8 274.3 C 61.8 274.3 61 275.5 61 275.5 C 60.4 274.7 59.4 274.2 58.3 274.2 C 57 274.2 56.2 275 56.2 275.9 C 56.2 278.4 62 277.5 62 281.7 C 62 283.6 60.5 285 58.1 285 C 56.5 285 55.2 284.5 54.2 283.4 Z M 63.6 278.9 C 63.6 275.6 65.3 272.8 68.3 272.8 C 71.4 272.8 73.1 275.6 73.1 278.9 C 73.1 282.2 71.4 285 68.3 285 C 65.3 285 63.6 282.2 63.6 278.9 Z M 71.3 278.9 C 71.3 276.6 70.4 274.4 68.3 274.4 C 66.3 274.4 65.4 276.6 65.4 278.9 C 65.4 281.2 66.3 283.5 68.3 283.5 C 70.4 283.5 71.3 281.2 71.3 278.9 Z M 81.7 284.7 C 81.7 284.7 81.67 276.44 81.7 276.4 C 81.7 274.9 81 274.4 79.8 274.4 C 78.7 274.4 77.6 275.2 77.1 276.2 C 77.11 276.2 77.1 284.7 77.1 284.7 L 75.4 284.7 L 75.4 273.1 L 77.1 273.1 C 77.1 273.1 77.11 274.76 77.1 274.8 C 77.8 273.8 79.1 272.8 80.5 272.8 C 82.4 272.8 83.4 273.9 83.4 276 C 83.4 275.96 83.4 284.7 83.4 284.7 L 81.7 284.7 Z M 98.6 284.7 L 95.6 278.3 L 93.3 278.3 L 93.3 284.7 L 91.3 284.7 L 91.3 268.7 C 91.3 268.7 96.24 268.69 96.2 268.7 C 98.8 268.7 100.6 270.5 100.6 273.5 C 100.6 276.3 99 277.7 97.4 278 C 97.44 278 100.8 284.7 100.8 284.7 L 98.6 284.7 Z M 98.7 273.5 C 98.7 271.7 97.7 270.4 96 270.4 C 96.02 270.37 93.3 270.4 93.3 270.4 L 93.3 276.6 C 93.3 276.6 96.02 276.61 96 276.6 C 97.7 276.6 98.7 275.3 98.7 273.5 Z M 102 278.9 C 102 275.5 103.8 272.8 106.7 272.8 C 109.8 272.8 111.3 275.6 111.3 278.9 C 111.33 278.94 111.3 279.5 111.3 279.5 C 111.3 279.5 103.82 279.47 103.8 279.5 C 103.9 281.8 105.1 283.5 107.2 283.5 C 108.2 283.5 109.2 283 109.9 282.1 C 109.9 282.1 110.8 283.1 110.8 283.1 C 109.9 284.3 108.6 285 107 285 C 103.9 285 102 282.4 102 278.9 Z M 106.7 274.3 C 104.7 274.3 103.9 276.5 103.8 278.2 C 103.8 278.2 109.6 278.2 109.6 278.2 C 109.6 276.4 108.8 274.3 106.7 274.3 Z M 120.2 284.7 C 120.2 284.7 120.24 283.04 120.2 283 C 119.6 284.2 118.4 285 117.2 285 C 114.6 285 113 282.6 113 278.9 C 113 275.3 114.6 272.8 117.2 272.8 C 118.4 272.8 119.5 273.5 120.2 274.8 C 120.24 274.79 120.2 268.7 120.2 268.7 L 122 268.7 L 122 284.7 L 120.2 284.7 Z M 120.2 281.6 C 120.2 281.6 120.2 276.3 120.2 276.3 C 119.8 275.2 118.7 274.4 117.6 274.4 C 115.7 274.4 114.8 276.4 114.8 278.9 C 114.8 281.4 115.7 283.5 117.6 283.5 C 118.7 283.5 119.8 282.6 120.2 281.6 Z " stroke="none" fill="#d3d2d2"/>  </g>  <g id="Polygon156859">    <path d="M 12.8 248.7 L 4.5 233.8 L 4.5 248.7 L 2.1 248.7 L 2.1 228.7 L 4.5 228.7 L 12.7 243.3 L 12.7 228.7 L 15.1 228.7 L 15.1 248.7 L 12.8 248.7 Z M 18.1 241.4 C 18.1 237.4 20.2 233.9 24 233.9 C 27.9 233.9 29.9 237.4 29.9 241.4 C 29.9 245.5 27.9 249.1 24 249.1 C 20.2 249.1 18.1 245.5 18.1 241.4 Z M 27.7 241.4 C 27.7 238.5 26.5 235.8 24 235.8 C 21.5 235.8 20.4 238.5 20.4 241.4 C 20.4 244.4 21.5 247.1 24 247.1 C 26.5 247.1 27.7 244.4 27.7 241.4 Z M 40.7 248.7 C 40.7 248.7 40.68 238.38 40.7 238.4 C 40.7 236.5 39.8 235.8 38.4 235.8 C 37 235.8 35.6 236.9 35 238.1 C 34.98 238.08 35 248.7 35 248.7 L 32.8 248.7 L 32.8 234.2 L 35 234.2 C 35 234.2 34.98 236.28 35 236.3 C 35.8 235 37.4 233.9 39.2 233.9 C 41.6 233.9 42.8 235.2 42.8 237.8 C 42.84 237.78 42.8 248.7 42.8 248.7 L 40.7 248.7 Z M 45.4 242.4 L 45.4 240.5 L 51.6 240.5 L 51.6 242.4 L 45.4 242.4 Z M 54.6 245.8 C 54.63 245.79 54.6 236.1 54.6 236.1 L 52.7 236.1 L 52.7 234.2 L 54.6 234.2 L 54.6 230.3 L 56.8 230.3 L 56.8 234.2 L 59.2 234.2 L 59.2 236.1 L 56.8 236.1 C 56.8 236.1 56.79 245.4 56.8 245.4 C 56.8 246.5 57.1 247.1 58 247.1 C 58.5 247.1 58.9 246.9 59.2 246.6 C 59.2 246.6 59.9 248.2 59.9 248.2 C 59.4 248.7 58.6 249.1 57.5 249.1 C 55.6 249.1 54.6 248 54.6 245.8 Z M 61.1 241.4 C 61.1 237.4 63.1 233.9 67 233.9 C 70.9 233.9 72.9 237.4 72.9 241.4 C 72.9 245.5 70.9 249.1 67 249.1 C 63.1 249.1 61.1 245.5 61.1 241.4 Z M 70.6 241.4 C 70.6 238.5 69.5 235.8 67 235.8 C 64.5 235.8 63.3 238.5 63.3 241.4 C 63.3 244.4 64.5 247.1 67 247.1 C 69.5 247.1 70.6 244.4 70.6 241.4 Z M 82.5 248.7 L 79.2 242.9 L 75.8 248.7 L 73.4 248.7 L 77.8 241.3 L 73.7 234.2 L 76.1 234.2 L 79.2 239.7 L 82.3 234.2 L 84.7 234.2 L 80.5 241.3 L 84.9 248.7 L 82.5 248.7 Z M 86.5 230.6 C 86.5 229.8 87.2 229.2 88 229.2 C 88.8 229.2 89.5 229.8 89.5 230.6 C 89.5 231.5 88.8 232.1 88 232.1 C 87.2 232.1 86.5 231.5 86.5 230.6 Z M 86.9 248.7 L 86.9 234.2 L 89.1 234.2 L 89.1 248.7 L 86.9 248.7 Z M 92 241.4 C 92 237.2 94.3 233.9 98 233.9 C 100 233.9 101.2 234.7 102.1 235.8 C 102.1 235.8 101 237.2 101 237.2 C 100.2 236.2 99.3 235.8 98.2 235.8 C 95.6 235.8 94.3 238.4 94.3 241.4 C 94.3 244.5 95.6 247.1 98.2 247.1 C 99.3 247.1 100.2 246.7 101 245.7 C 101 245.7 102.1 247.1 102.1 247.1 C 101.2 248.3 100 249.1 98 249.1 C 94.3 249.1 92 245.7 92 241.4 Z M 118.2 248.7 C 118.2 248.7 118.2 247.14 118.2 247.1 C 117.3 248.5 115.9 249.1 114.4 249.1 C 112 249.1 110 247.3 110 244.2 C 110 241.2 112 239.5 114.4 239.5 C 115.9 239.5 117.3 240 118.2 241.3 C 118.2 241.3 118.2 238.8 118.2 238.8 C 118.2 236.8 117.1 235.7 115.2 235.7 C 113.9 235.7 112.7 236.2 111.6 237.5 C 111.6 237.5 110.6 236 110.6 236 C 112 234.5 113.7 233.9 115.6 233.9 C 118.4 233.9 120.4 235.3 120.4 238.6 C 120.36 238.56 120.4 248.7 120.4 248.7 L 118.2 248.7 Z M 118.2 245.7 C 118.2 245.7 118.2 242.9 118.2 242.9 C 117.5 241.7 116.3 241.1 115.1 241.1 C 113.3 241.1 112.2 242.5 112.2 244.3 C 112.2 246.1 113.3 247.5 115.1 247.5 C 116.3 247.5 117.5 246.9 118.2 245.7 Z M 123.3 241.4 C 123.3 237.2 125.5 233.9 129.3 233.9 C 131.3 233.9 132.5 234.7 133.4 235.8 C 133.4 235.8 132.2 237.2 132.2 237.2 C 131.5 236.2 130.6 235.8 129.4 235.8 C 126.9 235.8 125.5 238.4 125.5 241.4 C 125.5 244.5 126.9 247.1 129.4 247.1 C 130.6 247.1 131.5 246.7 132.2 245.7 C 132.2 245.7 133.4 247.1 133.4 247.1 C 132.5 248.3 131.3 249.1 129.3 249.1 C 125.5 249.1 123.3 245.7 123.3 241.4 Z M 135.9 248.7 L 135.9 234.2 L 138 234.2 C 138 234.2 138 236.52 138 236.5 C 138.9 235 140.3 233.9 142.1 233.9 C 142.1 233.9 142.1 236.1 142.1 236.1 C 141.9 236.1 141.6 236 141.4 236 C 140.1 236 138.6 237.2 138 238.4 C 138 238.41 138 248.7 138 248.7 L 135.9 248.7 Z M 143.9 252.5 C 144.1 252.6 144.6 252.7 144.8 252.7 C 145.7 252.7 146.2 252.3 146.5 251.2 C 146.55 251.22 147.3 249 147.3 249 L 142.5 234.2 L 144.8 234.2 L 148.4 246.1 L 152.1 234.2 L 154.4 234.2 C 154.4 234.2 148.59 251.76 148.6 251.8 C 147.9 253.9 146.7 254.6 145 254.6 C 144.5 254.6 143.9 254.5 143.5 254.4 C 143.5 254.4 143.9 252.5 143.9 252.5 Z M 156.2 248.7 L 156.2 228.7 L 158.4 228.7 L 158.4 248.7 L 156.2 248.7 Z M 161.6 230.6 C 161.6 229.8 162.3 229.2 163.1 229.2 C 163.9 229.2 164.5 229.8 164.5 230.6 C 164.5 231.5 163.9 232.1 163.1 232.1 C 162.3 232.1 161.6 231.5 161.6 230.6 Z M 162 248.7 L 162 234.2 L 164.2 234.2 L 164.2 248.7 L 162 248.7 Z M 167.1 241.4 C 167.1 237.2 169.4 233.9 173.1 233.9 C 175.1 233.9 176.3 234.7 177.2 235.8 C 177.2 235.8 176.1 237.2 176.1 237.2 C 175.3 236.2 174.4 235.8 173.3 235.8 C 170.7 235.8 169.3 238.4 169.3 241.4 C 169.3 244.5 170.7 247.1 173.3 247.1 C 174.4 247.1 175.3 246.7 176.1 245.7 C 176.1 245.7 177.2 247.1 177.2 247.1 C 176.3 248.3 175.1 249.1 173.1 249.1 C 169.4 249.1 167.1 245.7 167.1 241.4 Z M 188 246.6 C 187.98 246.6 188 254.2 188 254.2 L 185.8 254.2 L 185.8 234.2 L 188 234.2 C 188 234.2 187.98 236.28 188 236.3 C 188.8 234.8 190.3 233.9 191.8 233.9 C 195.1 233.9 197 236.9 197 241.4 C 197 246 195.1 249.1 191.8 249.1 C 190.3 249.1 188.9 248.2 188 246.6 Z M 194.7 241.4 C 194.7 238.3 193.6 235.8 191.2 235.8 C 189.9 235.8 188.5 236.9 188 238.1 C 188 238.1 188 244.7 188 244.7 C 188.5 246 189.9 247.1 191.2 247.1 C 193.6 247.1 194.7 244.6 194.7 241.4 Z M 207.3 248.7 C 207.3 248.7 207.33 247.14 207.3 247.1 C 206.4 248.5 205 249.1 203.5 249.1 C 201.2 249.1 199.1 247.3 199.1 244.2 C 199.1 241.2 201.1 239.5 203.5 239.5 C 205 239.5 206.4 240 207.3 241.3 C 207.3 241.3 207.3 238.8 207.3 238.8 C 207.3 236.8 206.2 235.7 204.4 235.7 C 203 235.7 201.8 236.2 200.7 237.5 C 200.7 237.5 199.8 236 199.8 236 C 201.1 234.5 202.9 233.9 204.7 233.9 C 207.6 233.9 209.5 235.3 209.5 238.6 C 209.49 238.56 209.5 248.7 209.5 248.7 L 207.3 248.7 Z M 207.3 245.7 C 207.3 245.7 207.3 242.9 207.3 242.9 C 206.7 241.7 205.5 241.1 204.2 241.1 C 202.4 241.1 201.3 242.5 201.3 244.3 C 201.3 246.1 202.4 247.5 204.2 247.5 C 205.5 247.5 206.7 246.9 207.3 245.7 Z M 212.7 230.6 C 212.7 229.8 213.4 229.2 214.2 229.2 C 215 229.2 215.6 229.8 215.6 230.6 C 215.6 231.5 215 232.1 214.2 232.1 C 213.4 232.1 212.7 231.5 212.7 230.6 Z M 213.1 248.7 L 213.1 234.2 L 215.2 234.2 L 215.2 248.7 L 213.1 248.7 Z M 226.7 248.7 C 226.7 248.7 226.73 238.38 226.7 238.4 C 226.7 236.5 225.9 235.8 224.4 235.8 C 223 235.8 221.7 236.9 221 238.1 C 221.03 238.08 221 248.7 221 248.7 L 218.9 248.7 L 218.9 234.2 L 221 234.2 C 221 234.2 221.03 236.28 221 236.3 C 221.9 235 223.5 233.9 225.2 233.9 C 227.7 233.9 228.9 235.2 228.9 237.8 C 228.89 237.78 228.9 248.7 228.9 248.7 L 226.7 248.7 Z M 233 245.8 C 232.97 245.79 233 236.1 233 236.1 L 231.1 236.1 L 231.1 234.2 L 233 234.2 L 233 230.3 L 235.1 230.3 L 235.1 234.2 L 237.6 234.2 L 237.6 236.1 L 235.1 236.1 C 235.1 236.1 235.13 245.4 235.1 245.4 C 235.1 246.5 235.5 247.1 236.3 247.1 C 236.8 247.1 237.3 246.9 237.6 246.6 C 237.6 246.6 238.2 248.2 238.2 248.2 C 237.7 248.7 237 249.1 235.9 249.1 C 233.9 249.1 233 248 233 245.8 Z " stroke="none" fill="#d3d2d2"/>  </g>  <g id="Polygon156858">    <path d="M 2.1 212.7 L 2.1 192.7 C 2.1 192.7 8.19 192.69 8.2 192.7 C 11.8 192.7 13.7 195.5 13.7 198.7 C 13.7 201.9 11.8 204.7 8.2 204.7 C 8.19 204.69 4.5 204.7 4.5 204.7 L 4.5 212.7 L 2.1 212.7 Z M 11.3 198.7 C 11.3 196.4 10 194.8 7.9 194.8 C 7.95 194.79 4.5 194.8 4.5 194.8 L 4.5 202.6 C 4.5 202.6 7.95 202.59 7.9 202.6 C 10 202.6 11.3 201 11.3 198.7 Z M 15.1 205.4 C 15.1 201.2 17.3 197.9 20.9 197.9 C 24.8 197.9 26.7 201.3 26.7 205.5 C 26.67 205.5 26.7 206.2 26.7 206.2 C 26.7 206.2 17.28 206.16 17.3 206.2 C 17.4 209.1 18.9 211.3 21.5 211.3 C 22.7 211.3 24 210.6 24.9 209.5 C 24.9 209.5 26 210.8 26 210.8 C 24.9 212.2 23.2 213.1 21.3 213.1 C 17.4 213.1 15.1 209.9 15.1 205.4 Z M 20.9 199.7 C 18.4 199.7 17.3 202.4 17.3 204.6 C 17.3 204.6 24.5 204.6 24.5 204.6 C 24.5 202.4 23.6 199.7 20.9 199.7 Z M 29.9 209.8 C 29.94 209.79 29.9 200.1 29.9 200.1 L 28 200.1 L 28 198.2 L 29.9 198.2 L 29.9 194.3 L 32.1 194.3 L 32.1 198.2 L 34.6 198.2 L 34.6 200.1 L 32.1 200.1 C 32.1 200.1 32.1 209.4 32.1 209.4 C 32.1 210.5 32.4 211.1 33.3 211.1 C 33.8 211.1 34.3 210.9 34.5 210.6 C 34.5 210.6 35.2 212.2 35.2 212.2 C 34.7 212.7 34 213.1 32.8 213.1 C 30.9 213.1 29.9 212 29.9 209.8 Z M 37.1 212.7 L 37.1 198.2 L 39.2 198.2 C 39.2 198.2 39.24 200.52 39.2 200.5 C 40.2 199 41.6 197.9 43.3 197.9 C 43.3 197.9 43.3 200.1 43.3 200.1 C 43.1 200.1 42.9 200 42.6 200 C 41.3 200 39.8 201.2 39.2 202.4 C 39.24 202.41 39.2 212.7 39.2 212.7 L 37.1 212.7 Z M 44.8 205.4 C 44.8 201.4 46.9 197.9 50.7 197.9 C 54.6 197.9 56.6 201.4 56.6 205.4 C 56.6 209.5 54.6 213.1 50.7 213.1 C 46.9 213.1 44.8 209.5 44.8 205.4 Z M 54.4 205.4 C 54.4 202.5 53.2 199.8 50.7 199.8 C 48.2 199.8 47.1 202.5 47.1 205.4 C 47.1 208.4 48.2 211.1 50.7 211.1 C 53.2 211.1 54.4 208.4 54.4 205.4 Z M 59.5 212.7 L 59.5 192.7 L 61.7 192.7 L 61.7 212.7 L 59.5 212.7 Z M 64.6 205.4 C 64.6 201.2 66.8 197.9 70.5 197.9 C 74.3 197.9 76.2 201.3 76.2 205.5 C 76.23 205.5 76.2 206.2 76.2 206.2 C 76.2 206.2 66.84 206.16 66.8 206.2 C 66.9 209.1 68.4 211.3 71 211.3 C 72.3 211.3 73.6 210.6 74.5 209.5 C 74.5 209.5 75.6 210.8 75.6 210.8 C 74.4 212.2 72.8 213.1 70.8 213.1 C 67 213.1 64.6 209.9 64.6 205.4 Z M 70.5 199.7 C 67.9 199.7 66.9 202.4 66.8 204.6 C 66.8 204.6 74.1 204.6 74.1 204.6 C 74.1 202.4 73.1 199.7 70.5 199.7 Z M 86.9 212.7 C 86.9 212.7 86.91 210.69 86.9 210.7 C 86 212 84.5 213.1 82.7 213.1 C 80.2 213.1 79.1 211.8 79.1 209.2 C 79.08 209.19 79.1 198.2 79.1 198.2 L 81.2 198.2 C 81.2 198.2 81.21 208.56 81.2 208.6 C 81.2 210.5 82.1 211.1 83.5 211.1 C 85 211.1 86.3 210.1 86.9 208.9 C 86.91 208.89 86.9 198.2 86.9 198.2 L 89.1 198.2 L 89.1 212.7 L 86.9 212.7 Z M 107.4 212.7 C 107.4 212.7 107.37 202.2 107.4 202.2 C 107.4 200.6 106.7 199.8 105.4 199.8 C 104.1 199.8 102.8 200.9 102.2 202.1 C 102.21 202.08 102.2 212.7 102.2 212.7 L 100 212.7 C 100 212.7 100.05 202.2 100 202.2 C 100 200.6 99.4 199.8 98 199.8 C 96.7 199.8 95.5 200.9 94.9 202.1 C 94.86 202.08 94.9 212.7 94.9 212.7 L 92.7 212.7 L 92.7 198.2 L 94.9 198.2 C 94.9 198.2 94.86 200.28 94.9 200.3 C 95.5 199.2 97.1 197.9 98.8 197.9 C 100.7 197.9 101.8 198.9 102.1 200.4 C 102.8 199.1 104.4 197.9 106.2 197.9 C 108.3 197.9 109.5 199 109.5 201.6 C 109.53 201.63 109.5 212.7 109.5 212.7 L 107.4 212.7 Z M 118.9 194.6 C 118.9 193.8 119.6 193.2 120.4 193.2 C 121.2 193.2 121.9 193.8 121.9 194.6 C 121.9 195.5 121.2 196.1 120.4 196.1 C 119.6 196.1 118.9 195.5 118.9 194.6 Z M 115.4 217.6 C 115.4 217.6 116.2 216 116.2 216 C 116.5 216.4 117 216.8 117.7 216.8 C 118.6 216.8 119.3 216.1 119.3 214.5 C 119.34 214.47 119.3 198.2 119.3 198.2 L 121.5 198.2 C 121.5 198.2 121.47 214.47 121.5 214.5 C 121.5 217.3 120.2 218.6 117.9 218.6 C 116.7 218.6 116 218.3 115.4 217.6 Z M 124.4 205.4 C 124.4 201.2 126.6 197.9 130.3 197.9 C 134.1 197.9 136 201.3 136 205.5 C 136.02 205.5 136 206.2 136 206.2 C 136 206.2 126.63 206.16 126.6 206.2 C 126.7 209.1 128.2 211.3 130.8 211.3 C 132.1 211.3 133.3 210.6 134.2 209.5 C 134.2 209.5 135.4 210.8 135.4 210.8 C 134.2 212.2 132.6 213.1 130.6 213.1 C 126.7 213.1 124.4 209.9 124.4 205.4 Z M 130.3 199.7 C 127.7 199.7 126.7 202.4 126.6 204.6 C 126.6 204.6 133.9 204.6 133.9 204.6 C 133.9 202.4 132.9 199.7 130.3 199.7 Z M 138.9 212.7 L 138.9 192.7 L 141 192.7 L 141 212.7 L 138.9 212.7 Z M 144.7 212.7 L 144.7 192.7 L 146.8 192.7 L 146.8 212.7 L 144.7 212.7 Z M 150 216.5 C 150.3 216.6 150.7 216.7 151 216.7 C 151.8 216.7 152.3 216.3 152.7 215.2 C 152.7 215.22 153.5 213 153.5 213 L 148.6 198.2 L 151 198.2 L 154.6 210.1 L 158.2 198.2 L 160.5 198.2 C 160.5 198.2 154.74 215.76 154.7 215.8 C 154 217.9 152.8 218.6 151.1 218.6 C 150.7 218.6 150 218.5 149.7 218.4 C 149.7 218.4 150 216.5 150 216.5 Z " stroke="none" fill="#d3d2d2"/>  </g>  <g id="Polygon156857">    <path d="M 2.1 176.7 L 2.1 156.7 L 4.5 156.7 L 4.5 174.6 L 11.7 174.6 L 11.7 176.7 L 2.1 176.7 Z M 13 169.4 C 13 165.2 15.3 161.9 18.9 161.9 C 22.7 161.9 24.7 165.3 24.7 169.5 C 24.66 169.5 24.7 170.2 24.7 170.2 C 24.7 170.2 15.27 170.16 15.3 170.2 C 15.4 173.1 16.9 175.3 19.4 175.3 C 20.7 175.3 22 174.6 22.9 173.5 C 22.9 173.5 24 174.8 24 174.8 C 22.9 176.2 21.2 177.1 19.3 177.1 C 15.4 177.1 13 173.9 13 169.4 Z M 18.9 163.7 C 16.3 163.7 15.3 166.4 15.3 168.6 C 15.3 168.6 22.5 168.6 22.5 168.6 C 22.5 166.4 21.5 163.7 18.9 163.7 Z M 34.9 176.7 C 34.9 176.7 34.95 175.14 34.9 175.1 C 34 176.5 32.6 177.1 31.1 177.1 C 28.8 177.1 26.8 175.3 26.8 172.2 C 26.8 169.2 28.8 167.5 31.1 167.5 C 32.6 167.5 34 168 34.9 169.3 C 34.9 169.3 34.9 166.8 34.9 166.8 C 34.9 164.8 33.9 163.7 32 163.7 C 30.6 163.7 29.5 164.2 28.3 165.5 C 28.3 165.5 27.4 164 27.4 164 C 28.8 162.5 30.5 161.9 32.3 161.9 C 35.2 161.9 37.1 163.3 37.1 166.6 C 37.11 166.56 37.1 176.7 37.1 176.7 L 34.9 176.7 Z M 34.9 173.7 C 34.9 173.7 34.9 170.9 34.9 170.9 C 34.3 169.7 33.1 169.1 31.8 169.1 C 30 169.1 28.9 170.5 28.9 172.3 C 28.9 174.1 30 175.5 31.8 175.5 C 33.1 175.5 34.3 174.9 34.9 173.7 Z M 41.2 173.8 C 41.16 173.79 41.2 164.1 41.2 164.1 L 39.2 164.1 L 39.2 162.2 L 41.2 162.2 L 41.2 158.3 L 43.3 158.3 L 43.3 162.2 L 45.8 162.2 L 45.8 164.1 L 43.3 164.1 C 43.3 164.1 43.32 173.4 43.3 173.4 C 43.3 174.5 43.6 175.1 44.5 175.1 C 45 175.1 45.5 174.9 45.7 174.6 C 45.7 174.6 46.4 176.2 46.4 176.2 C 45.9 176.7 45.2 177.1 44.1 177.1 C 42.1 177.1 41.2 176 41.2 173.8 Z M 56.2 176.7 C 56.2 176.7 56.19 166.35 56.2 166.4 C 56.2 164.4 55.3 163.8 53.8 163.8 C 52.4 163.8 51.1 164.9 50.5 166.1 C 50.46 166.08 50.5 176.7 50.5 176.7 L 48.3 176.7 L 48.3 156.7 L 50.5 156.7 C 50.5 156.7 50.46 164.28 50.5 164.3 C 51.3 163 52.9 161.9 54.7 161.9 C 57.1 161.9 58.3 163.1 58.3 165.7 C 58.32 165.72 58.3 176.7 58.3 176.7 L 56.2 176.7 Z M 61.3 169.4 C 61.3 165.2 63.5 161.9 67.1 161.9 C 70.9 161.9 72.9 165.3 72.9 169.5 C 72.87 169.5 72.9 170.2 72.9 170.2 C 72.9 170.2 63.48 170.16 63.5 170.2 C 63.6 173.1 65.1 175.3 67.6 175.3 C 68.9 175.3 70.2 174.6 71.1 173.5 C 71.1 173.5 72.2 174.8 72.2 174.8 C 71.1 176.2 69.4 177.1 67.5 177.1 C 63.6 177.1 61.3 173.9 61.3 169.4 Z M 67.1 163.7 C 64.6 163.7 63.5 166.4 63.5 168.6 C 63.5 168.6 70.7 168.6 70.7 168.6 C 70.7 166.4 69.7 163.7 67.1 163.7 Z M 75.7 176.7 L 75.7 162.2 L 77.8 162.2 C 77.8 162.2 77.85 164.52 77.8 164.5 C 78.8 163 80.2 161.9 82 161.9 C 82 161.9 82 164.1 82 164.1 C 81.7 164.1 81.5 164 81.2 164 C 79.9 164 78.4 165.2 77.8 166.4 C 77.85 166.41 77.8 176.7 77.8 176.7 L 75.7 176.7 Z M 89.1 175 C 89.1 175 90.2 173.5 90.2 173.5 C 91 174.5 92.4 175.3 94 175.3 C 95.7 175.3 96.8 174.4 96.8 173 C 96.8 169.6 89.5 170.8 89.5 165.8 C 89.5 163.6 91.3 161.9 94.2 161.9 C 96.1 161.9 97.6 162.6 98.6 163.7 C 98.6 163.7 97.6 165.2 97.6 165.2 C 96.8 164.2 95.6 163.6 94.2 163.6 C 92.6 163.6 91.6 164.5 91.6 165.7 C 91.6 168.8 98.8 167.7 98.8 172.9 C 98.8 175.3 97 177.1 94 177.1 C 92 177.1 90.3 176.4 89.1 175 Z M 102 173.8 C 102.03 173.79 102 164.1 102 164.1 L 100.1 164.1 L 100.1 162.2 L 102 162.2 L 102 158.3 L 104.2 158.3 L 104.2 162.2 L 106.6 162.2 L 106.6 164.1 L 104.2 164.1 C 104.2 164.1 104.19 173.4 104.2 173.4 C 104.2 174.5 104.5 175.1 105.4 175.1 C 105.9 175.1 106.3 174.9 106.6 174.6 C 106.6 174.6 107.3 176.2 107.3 176.2 C 106.8 176.7 106 177.1 104.9 177.1 C 103 177.1 102 176 102 173.8 Z M 109.2 176.7 L 109.2 162.2 L 111.3 162.2 C 111.3 162.2 111.33 164.52 111.3 164.5 C 112.3 163 113.7 161.9 115.4 161.9 C 115.4 161.9 115.4 164.1 115.4 164.1 C 115.2 164.1 115 164 114.7 164 C 113.4 164 111.9 165.2 111.3 166.4 C 111.33 166.41 111.3 176.7 111.3 176.7 L 109.2 176.7 Z M 117.2 158.6 C 117.2 157.8 117.9 157.2 118.7 157.2 C 119.5 157.2 120.1 157.8 120.1 158.6 C 120.1 159.5 119.5 160.1 118.7 160.1 C 117.9 160.1 117.2 159.5 117.2 158.6 Z M 117.6 176.7 L 117.6 162.2 L 119.8 162.2 L 119.8 176.7 L 117.6 176.7 Z M 125.5 174.6 C 125.55 174.6 125.5 182.2 125.5 182.2 L 123.4 182.2 L 123.4 162.2 L 125.5 162.2 C 125.5 162.2 125.55 164.28 125.5 164.3 C 126.4 162.8 127.8 161.9 129.4 161.9 C 132.6 161.9 134.5 164.9 134.5 169.4 C 134.5 174 132.6 177.1 129.4 177.1 C 127.9 177.1 126.4 176.2 125.5 174.6 Z M 132.3 169.4 C 132.3 166.3 131.2 163.8 128.8 163.8 C 127.5 163.8 126.1 164.9 125.5 166.1 C 125.5 166.1 125.5 172.7 125.5 172.7 C 126.1 174 127.5 175.1 128.8 175.1 C 131.2 175.1 132.3 172.6 132.3 169.4 Z M 136.3 175 C 136.3 175 137.4 173.5 137.4 173.5 C 138.2 174.5 139.6 175.3 141.1 175.3 C 142.8 175.3 143.9 174.4 143.9 173 C 143.9 169.6 136.7 170.8 136.7 165.8 C 136.7 163.6 138.4 161.9 141.3 161.9 C 143.2 161.9 144.7 162.6 145.7 163.7 C 145.7 163.7 144.7 165.2 144.7 165.2 C 144 164.2 142.8 163.6 141.4 163.6 C 139.8 163.6 138.8 164.5 138.8 165.7 C 138.8 168.8 146 167.7 146 172.9 C 146 175.3 144.1 177.1 141.2 177.1 C 139.1 177.1 137.5 176.4 136.3 175 Z " stroke="none" fill="#d3d2d2"/>  </g>  <g id="Polygon156856">    <path d="M 14 140.7 L 10.7 124.9 L 7.5 140.7 L 4.9 140.7 L 0.5 120.7 L 3 120.7 L 6.3 137 L 9.7 120.7 L 11.7 120.7 L 15.1 137 L 18.4 120.7 L 21 120.7 L 16.5 140.7 L 14 140.7 Z M 31 140.7 C 31 140.7 30.99 130.35 31 130.4 C 31 128.4 30.1 127.8 28.6 127.8 C 27.2 127.8 25.9 128.9 25.3 130.1 C 25.26 130.08 25.3 140.7 25.3 140.7 L 23.1 140.7 L 23.1 120.7 L 25.3 120.7 C 25.3 120.7 25.26 128.28 25.3 128.3 C 26.1 127 27.7 125.9 29.5 125.9 C 31.9 125.9 33.1 127.1 33.1 129.7 C 33.12 129.72 33.1 140.7 33.1 140.7 L 31 140.7 Z M 36.4 122.6 C 36.4 121.8 37 121.2 37.8 121.2 C 38.6 121.2 39.3 121.8 39.3 122.6 C 39.3 123.5 38.6 124.1 37.8 124.1 C 37 124.1 36.4 123.5 36.4 122.6 Z M 36.8 140.7 L 36.8 126.2 L 38.9 126.2 L 38.9 140.7 L 36.8 140.7 Z M 43 137.8 C 42.99 137.79 43 128.1 43 128.1 L 41.1 128.1 L 41.1 126.2 L 43 126.2 L 43 122.3 L 45.1 122.3 L 45.1 126.2 L 47.6 126.2 L 47.6 128.1 L 45.1 128.1 C 45.1 128.1 45.15 137.4 45.1 137.4 C 45.1 138.5 45.5 139.1 46.3 139.1 C 46.9 139.1 47.3 138.9 47.6 138.6 C 47.6 138.6 48.2 140.2 48.2 140.2 C 47.7 140.7 47 141.1 45.9 141.1 C 43.9 141.1 43 140 43 137.8 Z M 49.4 133.4 C 49.4 129.2 51.7 125.9 55.3 125.9 C 59.1 125.9 61 129.3 61 133.5 C 61.05 133.5 61 134.2 61 134.2 C 61 134.2 51.66 134.16 51.7 134.2 C 51.7 137.1 53.2 139.3 55.8 139.3 C 57.1 139.3 58.4 138.6 59.3 137.5 C 59.3 137.5 60.4 138.8 60.4 138.8 C 59.2 140.2 57.6 141.1 55.6 141.1 C 51.8 141.1 49.4 137.9 49.4 133.4 Z M 55.3 127.7 C 52.7 127.7 51.7 130.4 51.7 132.6 C 51.7 132.6 58.9 132.6 58.9 132.6 C 58.9 130.4 57.9 127.7 55.3 127.7 Z M 69.9 144.8 C 69.9 144.8 70.9 143.1 70.9 143.1 C 71.9 144.2 73.1 144.8 74.7 144.8 C 76.7 144.8 78.3 143.6 78.3 140.8 C 78.3 140.8 78.3 138.4 78.3 138.4 C 77.5 139.9 76 140.9 74.5 140.9 C 71.3 140.9 69.3 137.9 69.3 133.4 C 69.3 128.9 71.2 125.9 74.5 125.9 C 76 125.9 77.4 126.7 78.3 128.3 C 78.33 128.31 78.3 126.2 78.3 126.2 L 80.5 126.2 C 80.5 126.2 80.49 140.67 80.5 140.7 C 80.5 145.1 77.8 146.6 74.8 146.6 C 72.8 146.6 71.3 146.1 69.9 144.8 Z M 78.3 136.6 C 78.3 136.6 78.3 130.1 78.3 130.1 C 77.8 128.9 76.4 127.8 75.1 127.8 C 72.7 127.8 71.6 130.3 71.6 133.4 C 71.6 136.5 72.7 139 75.1 139 C 76.4 139 77.8 137.8 78.3 136.6 Z M 84.1 140.7 L 84.1 120.7 L 86.2 120.7 L 86.2 140.7 L 84.1 140.7 Z M 97.7 140.7 C 97.7 140.7 97.74 138.69 97.7 138.7 C 96.9 140 95.3 141.1 93.5 141.1 C 91.1 141.1 89.9 139.8 89.9 137.2 C 89.91 137.19 89.9 126.2 89.9 126.2 L 92 126.2 C 92 126.2 92.04 136.56 92 136.6 C 92 138.5 92.9 139.1 94.3 139.1 C 95.8 139.1 97.1 138.1 97.7 136.9 C 97.74 136.89 97.7 126.2 97.7 126.2 L 99.9 126.2 L 99.9 140.7 L 97.7 140.7 Z M 102.8 133.4 C 102.8 129.2 105.1 125.9 108.7 125.9 C 112.5 125.9 114.4 129.3 114.4 133.5 C 114.45 133.5 114.4 134.2 114.4 134.2 C 114.4 134.2 105.06 134.16 105.1 134.2 C 105.1 137.1 106.6 139.3 109.2 139.3 C 110.5 139.3 111.8 138.6 112.7 137.5 C 112.7 137.5 113.8 138.8 113.8 138.8 C 112.6 140.2 111 141.1 109 141.1 C 105.2 141.1 102.8 137.9 102.8 133.4 Z M 108.7 127.7 C 106.1 127.7 105.1 130.4 105.1 132.6 C 105.1 132.6 112.3 132.6 112.3 132.6 C 112.3 130.4 111.3 127.7 108.7 127.7 Z " stroke="none" fill="#d3d2d2"/>  </g>  <g id="Polygon156855">    <path d="M 2.1 104.7 L 2.1 84.7 C 2.1 84.7 8.19 84.69 8.2 84.7 C 11.8 84.7 13.7 87.5 13.7 90.7 C 13.7 93.9 11.8 96.7 8.2 96.7 C 8.19 96.69 4.5 96.7 4.5 96.7 L 4.5 104.7 L 2.1 104.7 Z M 11.3 90.7 C 11.3 88.4 10 86.8 7.9 86.8 C 7.95 86.79 4.5 86.8 4.5 86.8 L 4.5 94.6 C 4.5 94.6 7.95 94.59 7.9 94.6 C 10 94.6 11.3 93 11.3 90.7 Z M 15.1 97.4 C 15.1 93.4 17.1 89.9 20.9 89.9 C 24.8 89.9 26.9 93.4 26.9 97.4 C 26.9 101.5 24.8 105.1 20.9 105.1 C 17.1 105.1 15.1 101.5 15.1 97.4 Z M 24.6 97.4 C 24.6 94.5 23.5 91.8 20.9 91.8 C 18.5 91.8 17.3 94.5 17.3 97.4 C 17.3 100.4 18.5 103.1 20.9 103.1 C 23.5 103.1 24.6 100.4 24.6 97.4 Z M 29.8 104.7 L 29.8 84.7 L 31.9 84.7 L 31.9 104.7 L 29.8 104.7 Z M 35.2 108.5 C 35.4 108.6 35.9 108.7 36.1 108.7 C 37 108.7 37.4 108.3 37.8 107.2 C 37.83 107.22 38.6 105 38.6 105 L 33.8 90.2 L 36.1 90.2 L 39.7 102.1 L 43.3 90.2 L 45.7 90.2 C 45.7 90.2 39.87 107.76 39.9 107.8 C 39.1 109.9 38 110.6 36.3 110.6 C 35.8 110.6 35.2 110.5 34.8 110.4 C 34.8 110.4 35.2 108.5 35.2 108.5 Z M 46.8 97.4 C 46.8 93.2 49 89.9 52.7 89.9 C 56.5 89.9 58.4 93.3 58.4 97.5 C 58.41 97.5 58.4 98.2 58.4 98.2 C 58.4 98.2 49.02 98.16 49 98.2 C 49.1 101.1 50.6 103.3 53.2 103.3 C 54.4 103.3 55.7 102.6 56.6 101.5 C 56.6 101.5 57.8 102.8 57.8 102.8 C 56.6 104.2 55 105.1 53 105.1 C 49.1 105.1 46.8 101.9 46.8 97.4 Z M 52.6 91.7 C 50.1 91.7 49.1 94.4 49 96.6 C 49 96.6 56.3 96.6 56.3 96.6 C 56.2 94.4 55.3 91.7 52.6 91.7 Z M 60.1 103 C 60.1 103 61.2 101.5 61.2 101.5 C 62 102.5 63.4 103.3 64.9 103.3 C 66.6 103.3 67.7 102.4 67.7 101 C 67.7 97.6 60.5 98.8 60.5 93.8 C 60.5 91.6 62.2 89.9 65.1 89.9 C 67 89.9 68.5 90.6 69.5 91.7 C 69.5 91.7 68.5 93.2 68.5 93.2 C 67.8 92.2 66.6 91.6 65.2 91.6 C 63.6 91.6 62.6 92.5 62.6 93.7 C 62.6 96.8 69.8 95.7 69.8 100.9 C 69.8 103.3 67.9 105.1 65 105.1 C 62.9 105.1 61.3 104.4 60.1 103 Z M 73 101.8 C 72.99 101.79 73 92.1 73 92.1 L 71.1 92.1 L 71.1 90.2 L 73 90.2 L 73 86.3 L 75.1 86.3 L 75.1 90.2 L 77.6 90.2 L 77.6 92.1 L 75.1 92.1 C 75.1 92.1 75.15 101.4 75.1 101.4 C 75.1 102.5 75.5 103.1 76.3 103.1 C 76.9 103.1 77.3 102.9 77.6 102.6 C 77.6 102.6 78.2 104.2 78.2 104.2 C 77.7 104.7 77 105.1 75.9 105.1 C 73.9 105.1 73 104 73 101.8 Z M 79.4 97.4 C 79.4 93.2 81.7 89.9 85.3 89.9 C 89.1 89.9 91 93.3 91 97.5 C 91.05 97.5 91 98.2 91 98.2 C 91 98.2 81.66 98.16 81.7 98.2 C 81.7 101.1 83.2 103.3 85.8 103.3 C 87.1 103.3 88.4 102.6 89.3 101.5 C 89.3 101.5 90.4 102.8 90.4 102.8 C 89.2 104.2 87.6 105.1 85.6 105.1 C 81.8 105.1 79.4 101.9 79.4 97.4 Z M 85.3 91.7 C 82.7 91.7 81.7 94.4 81.7 96.6 C 81.7 96.6 88.9 96.6 88.9 96.6 C 88.9 94.4 87.9 91.7 85.3 91.7 Z M 93.9 104.7 L 93.9 90.2 L 96 90.2 C 96 90.2 96.03 92.52 96 92.5 C 97 91 98.4 89.9 100.1 89.9 C 100.1 89.9 100.1 92.1 100.1 92.1 C 99.9 92.1 99.7 92 99.4 92 C 98.1 92 96.6 93.2 96 94.4 C 96.03 94.41 96 104.7 96 104.7 L 93.9 104.7 Z M 109 104.7 L 109 92.1 L 107.1 92.1 L 107.1 90.2 L 109 90.2 C 109 90.2 108.99 88.44 109 88.4 C 109 85.9 110.4 84.4 112.5 84.4 C 113.3 84.4 113.9 84.5 114.4 84.8 C 114.4 84.8 113.8 86.5 113.8 86.5 C 113.6 86.3 113.3 86.2 112.9 86.2 C 111.8 86.2 111.1 87 111.1 88.4 C 111.15 88.44 111.1 90.2 111.1 90.2 L 113.6 90.2 L 113.6 92.1 L 111.1 92.1 L 111.1 104.7 L 109 104.7 Z M 115.7 86.6 C 115.7 85.8 116.4 85.2 117.1 85.2 C 118 85.2 118.6 85.8 118.6 86.6 C 118.6 87.5 118 88.1 117.1 88.1 C 116.4 88.1 115.7 87.5 115.7 86.6 Z M 116.1 104.7 L 116.1 90.2 L 118.2 90.2 L 118.2 104.7 L 116.1 104.7 Z M 127.3 103.1 C 129.7 103.1 130.8 100.6 130.8 97.5 C 130.8 94.3 129.7 91.8 127.3 91.8 C 125.9 91.8 124.6 92.9 124 94.2 C 124 94.2 124 100.8 124 100.8 C 124.6 102.1 125.9 103.1 127.3 103.1 Z M 121.9 104.7 L 121.9 84.7 L 124 84.7 C 124 84.7 124.02 92.31 124 92.3 C 124.9 90.7 126.4 89.9 127.8 89.9 C 131.1 89.9 133 93 133 97.5 C 133 102 131.1 105.1 127.8 105.1 C 126.3 105.1 124.9 104.1 124 102.6 C 124.02 102.63 124 104.7 124 104.7 L 121.9 104.7 Z M 136 104.7 L 136 90.2 L 138.1 90.2 C 138.1 90.2 138.12 92.52 138.1 92.5 C 139 91 140.5 89.9 142.2 89.9 C 142.2 89.9 142.2 92.1 142.2 92.1 C 142 92.1 141.7 92 141.5 92 C 140.2 92 138.7 93.2 138.1 94.4 C 138.12 94.41 138.1 104.7 138.1 104.7 L 136 104.7 Z M 143.7 97.4 C 143.7 93.2 145.9 89.9 149.6 89.9 C 153.4 89.9 155.3 93.3 155.3 97.5 C 155.31 97.5 155.3 98.2 155.3 98.2 C 155.3 98.2 145.92 98.16 145.9 98.2 C 146 101.1 147.5 103.3 150.1 103.3 C 151.3 103.3 152.6 102.6 153.5 101.5 C 153.5 101.5 154.7 102.8 154.7 102.8 C 153.5 104.2 151.9 105.1 149.9 105.1 C 146 105.1 143.7 101.9 143.7 97.4 Z M 149.5 91.7 C 147 91.7 146 94.4 145.9 96.6 C 145.9 96.6 153.2 96.6 153.2 96.6 C 153.1 94.4 152.2 91.7 149.5 91.7 Z M 163.1 103 C 163.1 103 164.2 101.5 164.2 101.5 C 165.1 102.5 166.4 103.3 168 103.3 C 169.7 103.3 170.8 102.4 170.8 101 C 170.8 97.6 163.6 98.8 163.6 93.8 C 163.6 91.6 165.3 89.9 168.2 89.9 C 170.1 89.9 171.6 90.6 172.6 91.7 C 172.6 91.7 171.6 93.2 171.6 93.2 C 170.8 92.2 169.6 91.6 168.2 91.6 C 166.6 91.6 165.6 92.5 165.6 93.7 C 165.6 96.8 172.9 95.7 172.9 100.9 C 172.9 103.3 171 105.1 168 105.1 C 166 105.1 164.3 104.4 163.1 103 Z M 176 101.8 C 176.04 101.79 176 92.1 176 92.1 L 174.1 92.1 L 174.1 90.2 L 176 90.2 L 176 86.3 L 178.2 86.3 L 178.2 90.2 L 180.7 90.2 L 180.7 92.1 L 178.2 92.1 C 178.2 92.1 178.2 101.4 178.2 101.4 C 178.2 102.5 178.5 103.1 179.4 103.1 C 179.9 103.1 180.4 102.9 180.6 102.6 C 180.6 102.6 181.3 104.2 181.3 104.2 C 180.8 104.7 180.1 105.1 178.9 105.1 C 177 105.1 176 104 176 101.8 Z M 191 104.7 C 191 104.7 191.03 102.69 191 102.7 C 190.2 104 188.6 105.1 186.8 105.1 C 184.4 105.1 183.2 103.8 183.2 101.2 C 183.2 101.19 183.2 90.2 183.2 90.2 L 185.3 90.2 C 185.3 90.2 185.33 100.56 185.3 100.6 C 185.3 102.5 186.2 103.1 187.6 103.1 C 189.1 103.1 190.4 102.1 191 100.9 C 191.03 100.89 191 90.2 191 90.2 L 193.2 90.2 L 193.2 104.7 L 191 104.7 Z M 205 104.7 L 205 92.1 L 203.1 92.1 L 203.1 90.2 L 205 90.2 C 205 90.2 204.98 88.44 205 88.4 C 205 85.9 206.4 84.4 208.5 84.4 C 209.3 84.4 209.9 84.5 210.4 84.8 C 210.4 84.8 209.8 86.5 209.8 86.5 C 209.6 86.3 209.3 86.2 208.9 86.2 C 207.8 86.2 207.1 87 207.1 88.4 C 207.14 88.44 207.1 90.2 207.1 90.2 L 209.6 90.2 L 209.6 92.1 L 207.1 92.1 L 207.1 104.7 L 205 104.7 Z M 211.6 86.6 C 211.6 85.8 212.3 85.2 213.1 85.2 C 213.9 85.2 214.6 85.8 214.6 86.6 C 214.6 87.5 213.9 88.1 213.1 88.1 C 212.3 88.1 211.6 87.5 211.6 86.6 Z M 212.1 104.7 L 212.1 90.2 L 214.2 90.2 L 214.2 104.7 L 212.1 104.7 Z M 197.4 104.7 L 197.4 92.1 L 195.4 92.1 L 195.4 90.2 L 197.4 90.2 C 197.4 90.2 197.36 88.44 197.4 88.4 C 197.4 85.9 198.7 84.4 201 84.4 C 202 84.4 202.9 84.7 203.6 85.4 C 203.6 85.4 202.7 86.9 202.7 86.9 C 202.3 86.5 201.9 86.2 201.3 86.2 C 200.1 86.2 199.5 87 199.5 88.4 C 199.52 88.44 199.5 90.2 199.5 90.2 L 202 90.2 L 202 92.1 L 199.5 92.1 L 199.5 104.7 L 197.4 104.7 Z M 225.7 104.7 C 225.7 104.7 225.68 94.38 225.7 94.4 C 225.7 92.5 224.8 91.8 223.4 91.8 C 222 91.8 220.6 92.9 220 94.1 C 219.98 94.08 220 104.7 220 104.7 L 217.9 104.7 L 217.9 90.2 L 220 90.2 C 220 90.2 219.98 92.28 220 92.3 C 220.8 91 222.4 89.9 224.2 89.9 C 226.6 89.9 227.8 91.2 227.8 93.8 C 227.84 93.78 227.8 104.7 227.8 104.7 L 225.7 104.7 Z M 231.4 108.8 C 231.4 108.8 232.4 107.1 232.4 107.1 C 233.3 108.2 234.6 108.8 236.2 108.8 C 238.1 108.8 239.8 107.6 239.8 104.8 C 239.8 104.8 239.8 102.4 239.8 102.4 C 238.9 103.9 237.5 104.9 236 104.9 C 232.7 104.9 230.8 101.9 230.8 97.4 C 230.8 92.9 232.7 89.9 236 89.9 C 237.4 89.9 238.9 90.7 239.8 92.3 C 239.78 92.31 239.8 90.2 239.8 90.2 L 241.9 90.2 C 241.9 90.2 241.94 104.67 241.9 104.7 C 241.9 109.1 239.2 110.6 236.2 110.6 C 234.3 110.6 232.8 110.1 231.4 108.8 Z M 239.8 100.6 C 239.8 100.6 239.8 94.1 239.8 94.1 C 239.2 92.9 237.9 91.8 236.5 91.8 C 234.1 91.8 233 94.3 233 97.4 C 233 100.5 234.1 103 236.5 103 C 237.9 103 239.2 101.8 239.8 100.6 Z " stroke="none" fill="#d3d2d2"/>  </g>  <g id="Polygon156854">    <path d="M 12.7 68.7 L 12.7 59.5 L 4.5 59.5 L 4.5 68.7 L 2.1 68.7 L 2.1 48.7 L 4.5 48.7 L 4.5 57.4 L 12.7 57.4 L 12.7 48.7 L 15.1 48.7 L 15.1 68.7 L 12.7 68.7 Z M 26.3 68.7 C 26.3 68.7 26.34 67.14 26.3 67.1 C 25.4 68.5 24 69.1 22.5 69.1 C 20.2 69.1 18.1 67.3 18.1 64.2 C 18.1 61.2 20.2 59.5 22.5 59.5 C 24 59.5 25.4 60 26.3 61.3 C 26.3 61.3 26.3 58.8 26.3 58.8 C 26.3 56.8 25.3 55.7 23.4 55.7 C 22 55.7 20.8 56.2 19.7 57.5 C 19.7 57.5 18.8 56 18.8 56 C 20.2 54.5 21.9 53.9 23.7 53.9 C 26.6 53.9 28.5 55.3 28.5 58.6 C 28.5 58.56 28.5 68.7 28.5 68.7 L 26.3 68.7 Z M 26.3 65.7 C 26.3 65.7 26.3 62.9 26.3 62.9 C 25.7 61.7 24.5 61.1 23.2 61.1 C 21.4 61.1 20.3 62.5 20.3 64.3 C 20.3 66.1 21.4 67.5 23.2 67.5 C 24.5 67.5 25.7 66.9 26.3 65.7 Z M 31.7 50.6 C 31.7 49.8 32.4 49.2 33.2 49.2 C 34 49.2 34.6 49.8 34.6 50.6 C 34.6 51.5 34 52.1 33.2 52.1 C 32.4 52.1 31.7 51.5 31.7 50.6 Z M 32.1 68.7 L 32.1 54.2 L 34.3 54.2 L 34.3 68.7 L 32.1 68.7 Z M 37.9 68.7 L 37.9 54.2 L 40 54.2 C 40 54.2 40.05 56.52 40 56.5 C 41 55 42.4 53.9 44.2 53.9 C 44.2 53.9 44.2 56.1 44.2 56.1 C 43.9 56.1 43.7 56 43.4 56 C 42.1 56 40.6 57.2 40 58.4 C 40.05 58.41 40 68.7 40 68.7 L 37.9 68.7 Z M 63.2 68.7 L 60.1 57.1 L 57 68.7 L 54.8 68.7 L 50.9 54.2 L 53.2 54.2 L 56 65.8 L 59 54.2 L 61.1 54.2 L 64.2 65.8 L 67 54.2 L 69.3 54.2 L 65.4 68.7 L 63.2 68.7 Z M 78.8 68.7 C 78.8 68.7 78.78 67.14 78.8 67.1 C 77.8 68.5 76.4 69.1 75 69.1 C 72.6 69.1 70.6 67.3 70.6 64.2 C 70.6 61.2 72.6 59.5 75 59.5 C 76.4 59.5 77.9 60 78.8 61.3 C 78.8 61.3 78.8 58.8 78.8 58.8 C 78.8 56.8 77.7 55.7 75.8 55.7 C 74.5 55.7 73.3 56.2 72.2 57.5 C 72.2 57.5 71.2 56 71.2 56 C 72.6 54.5 74.3 53.9 76.1 53.9 C 79 53.9 80.9 55.3 80.9 58.6 C 80.94 58.56 80.9 68.7 80.9 68.7 L 78.8 68.7 Z M 78.8 65.7 C 78.8 65.7 78.8 62.9 78.8 62.9 C 78.1 61.7 76.9 61.1 75.7 61.1 C 73.9 61.1 72.8 62.5 72.8 64.3 C 72.8 66.1 73.9 67.5 75.7 67.5 C 76.9 67.5 78.1 66.9 78.8 65.7 Z M 92 68.7 L 88.7 62.9 L 85.3 68.7 L 82.9 68.7 L 87.4 61.3 L 83.2 54.2 L 85.6 54.2 L 88.7 59.7 L 91.8 54.2 L 94.2 54.2 L 90 61.3 L 94.4 68.7 L 92 68.7 Z " stroke="none" fill="#d3d2d2"/>  </g>  <g id="Polygon156853">    <path d="M 2.1 32.7 L 2.1 12.7 L 12.4 12.7 L 12.4 14.8 L 4.5 14.8 L 4.5 21.4 L 12.2 21.4 L 12.2 23.5 L 4.5 23.5 L 4.5 30.6 L 12.4 30.6 L 12.4 32.7 L 2.1 32.7 Z M 15.6 32.7 L 15.6 12.7 C 15.6 12.7 21.72 12.69 21.7 12.7 C 25.4 12.7 27.2 15.5 27.2 18.7 C 27.2 21.9 25.3 24.7 21.7 24.7 C 21.72 24.69 18 24.7 18 24.7 L 18 32.7 L 15.6 32.7 Z M 24.8 18.7 C 24.8 16.4 23.5 14.8 21.5 14.8 C 21.48 14.79 18 14.8 18 14.8 L 18 22.6 C 18 22.6 21.48 22.59 21.5 22.6 C 23.5 22.6 24.8 21 24.8 18.7 Z M 29.9 32.7 L 29.9 12.7 L 40.2 12.7 L 40.2 14.8 L 32.3 14.8 L 32.3 21.4 L 40 21.4 L 40 23.5 L 32.3 23.5 L 32.3 30.6 L 40.2 30.6 L 40.2 32.7 L 29.9 32.7 Z M 51.6 30.6 C 51.63 30.6 51.6 38.2 51.6 38.2 L 49.5 38.2 L 49.5 18.2 L 51.6 18.2 C 51.6 18.2 51.63 20.28 51.6 20.3 C 52.5 18.8 53.9 17.9 55.4 17.9 C 58.7 17.9 60.6 20.9 60.6 25.4 C 60.6 30 58.7 33.1 55.4 33.1 C 54 33.1 52.5 32.2 51.6 30.6 Z M 58.4 25.4 C 58.4 22.3 57.3 19.8 54.9 19.8 C 53.5 19.8 52.2 20.9 51.6 22.1 C 51.6 22.1 51.6 28.7 51.6 28.7 C 52.2 30 53.5 31.1 54.9 31.1 C 57.3 31.1 58.4 28.6 58.4 25.4 Z M 71 32.7 C 71 32.7 70.98 31.14 71 31.1 C 70 32.5 68.6 33.1 67.2 33.1 C 64.8 33.1 62.8 31.3 62.8 28.2 C 62.8 25.2 64.8 23.5 67.2 23.5 C 68.6 23.5 70.1 24 71 25.3 C 71 25.3 71 22.8 71 22.8 C 71 20.8 69.9 19.7 68 19.7 C 66.7 19.7 65.5 20.2 64.4 21.5 C 64.4 21.5 63.4 20 63.4 20 C 64.8 18.5 66.5 17.9 68.3 17.9 C 71.2 17.9 73.1 19.3 73.1 22.6 C 73.14 22.56 73.1 32.7 73.1 32.7 L 71 32.7 Z M 71 29.7 C 71 29.7 71 26.9 71 26.9 C 70.3 25.7 69.1 25.1 67.9 25.1 C 66.1 25.1 65 26.5 65 28.3 C 65 30.1 66.1 31.5 67.9 31.5 C 69.1 31.5 70.3 30.9 71 29.7 Z M 76 25.4 C 76 21.2 78.3 17.9 82 17.9 C 84.1 17.9 85.3 18.7 86.2 19.8 C 86.2 19.8 85 21.2 85 21.2 C 84.2 20.2 83.3 19.8 82.2 19.8 C 79.6 19.8 78.3 22.4 78.3 25.4 C 78.3 28.5 79.6 31.1 82.2 31.1 C 83.3 31.1 84.2 30.7 85 29.7 C 85 29.7 86.2 31.1 86.2 31.1 C 85.3 32.3 84.1 33.1 82 33.1 C 78.3 33.1 76 29.7 76 25.4 Z M 96.8 32.7 L 92.8 26.2 L 90.8 28.8 L 90.8 32.7 L 88.6 32.7 L 88.6 12.7 L 90.8 12.7 L 90.8 26.1 L 96.8 18.2 L 99.4 18.2 L 94.3 24.7 L 99.4 32.7 L 96.8 32.7 Z M 101.1 14.6 C 101.1 13.8 101.8 13.2 102.5 13.2 C 103.3 13.2 104 13.8 104 14.6 C 104 15.5 103.3 16.1 102.5 16.1 C 101.8 16.1 101.1 15.5 101.1 14.6 Z M 101.5 32.7 L 101.5 18.2 L 103.6 18.2 L 103.6 32.7 L 101.5 32.7 Z M 115.1 32.7 C 115.1 32.7 115.11 22.38 115.1 22.4 C 115.1 20.5 114.2 19.8 112.8 19.8 C 111.4 19.8 110.1 20.9 109.4 22.1 C 109.41 22.08 109.4 32.7 109.4 32.7 L 107.3 32.7 L 107.3 18.2 L 109.4 18.2 C 109.4 18.2 109.41 20.28 109.4 20.3 C 110.2 19 111.9 17.9 113.6 17.9 C 116.1 17.9 117.3 19.2 117.3 21.8 C 117.27 21.78 117.3 32.7 117.3 32.7 L 115.1 32.7 Z M 120.8 36.8 C 120.8 36.8 121.8 35.1 121.8 35.1 C 122.8 36.2 124 36.8 125.6 36.8 C 127.6 36.8 129.2 35.6 129.2 32.8 C 129.2 32.8 129.2 30.4 129.2 30.4 C 128.4 31.9 126.9 32.9 125.4 32.9 C 122.2 32.9 120.2 29.9 120.2 25.4 C 120.2 20.9 122.1 17.9 125.4 17.9 C 126.9 17.9 128.3 18.7 129.2 20.3 C 129.21 20.31 129.2 18.2 129.2 18.2 L 131.4 18.2 C 131.4 18.2 131.37 32.67 131.4 32.7 C 131.4 37.1 128.7 38.6 125.6 38.6 C 123.7 38.6 122.2 38.1 120.8 36.8 Z M 129.2 28.6 C 129.2 28.6 129.2 22.1 129.2 22.1 C 128.7 20.9 127.3 19.8 125.9 19.8 C 123.6 19.8 122.5 22.3 122.5 25.4 C 122.5 28.5 123.6 31 125.9 31 C 127.3 31 128.7 29.8 129.2 28.6 Z M 141.7 32.7 L 141.7 20.1 L 139.7 20.1 L 139.7 18.2 L 141.7 18.2 C 141.7 18.2 141.66 16.44 141.7 16.4 C 141.7 13.9 143 12.4 145.3 12.4 C 146.2 12.4 147.1 12.7 147.9 13.4 C 147.9 13.4 147 14.9 147 14.9 C 146.6 14.5 146.2 14.2 145.6 14.2 C 144.4 14.2 143.8 15 143.8 16.4 C 143.82 16.44 143.8 18.2 143.8 18.2 L 146.3 18.2 L 146.3 20.1 L 143.8 20.1 L 143.8 32.7 L 141.7 32.7 Z M 147.7 25.4 C 147.7 21.4 149.8 17.9 153.6 17.9 C 157.5 17.9 159.5 21.4 159.5 25.4 C 159.5 29.5 157.5 33.1 153.6 33.1 C 149.8 33.1 147.7 29.5 147.7 25.4 Z M 157.3 25.4 C 157.3 22.5 156.2 19.8 153.6 19.8 C 151.1 19.8 150 22.5 150 25.4 C 150 28.4 151.1 31.1 153.6 31.1 C 156.2 31.1 157.3 28.4 157.3 25.4 Z M 169.9 32.7 C 169.9 32.7 169.92 31.14 169.9 31.1 C 169 32.5 167.6 33.1 166.1 33.1 C 163.8 33.1 161.7 31.3 161.7 28.2 C 161.7 25.2 163.7 23.5 166.1 23.5 C 167.6 23.5 169 24 169.9 25.3 C 169.9 25.3 169.9 22.8 169.9 22.8 C 169.9 20.8 168.8 19.7 166.9 19.7 C 165.6 19.7 164.4 20.2 163.3 21.5 C 163.3 21.5 162.4 20 162.4 20 C 163.7 18.5 165.4 17.9 167.3 17.9 C 170.2 17.9 172.1 19.3 172.1 22.6 C 172.08 22.56 172.1 32.7 172.1 32.7 L 169.9 32.7 Z M 169.9 29.7 C 169.9 29.7 169.9 26.9 169.9 26.9 C 169.3 25.7 168.1 25.1 166.8 25.1 C 165 25.1 163.9 26.5 163.9 28.3 C 163.9 30.1 165 31.5 166.8 31.5 C 168.1 31.5 169.3 30.9 169.9 29.7 Z M 190.3 32.7 C 190.3 32.7 190.35 22.2 190.3 22.2 C 190.3 20.6 189.7 19.8 188.3 19.8 C 187 19.8 185.8 20.9 185.2 22.1 C 185.19 22.08 185.2 32.7 185.2 32.7 L 183 32.7 C 183 32.7 183.03 22.2 183 22.2 C 183 20.6 182.4 19.8 181 19.8 C 179.7 19.8 178.5 20.9 177.8 22.1 C 177.84 22.08 177.8 32.7 177.8 32.7 L 175.7 32.7 L 175.7 18.2 L 177.8 18.2 C 177.8 18.2 177.84 20.28 177.8 20.3 C 178.4 19.2 180.1 17.9 181.8 17.9 C 183.7 17.9 184.8 18.9 185.1 20.4 C 185.8 19.1 187.4 17.9 189.1 17.9 C 191.3 17.9 192.5 19 192.5 21.6 C 192.51 21.63 192.5 32.7 192.5 32.7 L 190.3 32.7 Z " stroke="none" fill="#d3d2d2"/>  </g></svg>