<?xml version="1.0" standalone="no"?><!DOCTYPE svg PUBLIC "-//W3C//DTD SVG 1.1//EN" "http://www.w3.org/Graphics/SVG/1.1/DTD/svg11.dtd"><svg xmlns="http://www.w3.org/2000/svg" version="1.1" width="651px" height="85.6px" viewBox="0 0 651 85.6">  <desc>Fresh Crisp Tissues</desc>  <defs/>  <g id="Polygon175749">    <path d="M 3.1 47.4 L 3.1 7.4 L 20.6 7.4 L 20.6 14 L 10.7 14 L 10.7 23.7 L 20.2 23.7 L 20.2 30.4 L 10.7 30.4 L 10.7 47.4 L 3.1 47.4 Z M 25.3 47.4 L 25.3 18.4 L 32.1 18.4 C 32.1 18.4 32.1 22.44 32.1 22.4 C 33.2 19.8 36.1 17.7 38.6 17.7 C 38.6 17.7 38.6 24.4 38.6 24.4 C 38.2 24.2 37.7 24.2 37.3 24.2 C 35.3 24.2 33.2 25.8 32.1 27.9 C 32.1 27.9 32.1 47.4 32.1 47.4 L 25.3 47.4 Z M 41 32.9 C 41 24.5 44.6 17.7 51.8 17.7 C 59.2 17.7 62.2 24.2 62.2 32.8 C 62.22 32.76 62.2 35.1 62.2 35.1 C 62.2 35.1 47.52 35.1 47.5 35.1 C 47.6 39.4 49.4 42.6 53.2 42.6 C 54.8 42.6 56.7 41.5 58 39.7 C 58 39.7 61.3 43.5 61.3 43.5 C 59 46.4 55.8 48.1 52.5 48.1 C 44.9 48.1 41 41.8 41 32.9 Z M 51.7 23.2 C 48.4 23.2 47.5 27.3 47.5 30.4 C 47.5 30.4 55.7 30.4 55.7 30.4 C 55.7 27.1 55 23.2 51.7 23.2 Z M 64.3 44.3 C 64.3 44.3 67.1 39.7 67.1 39.7 C 68.7 41.4 70.9 42.8 73.1 42.8 C 75.3 42.8 76.8 41.6 76.8 39.7 C 76.8 34.9 65.3 36 65.3 25.9 C 65.3 21.5 68.6 17.7 74.6 17.7 C 77.9 17.7 80.9 19 83.1 21.1 C 83.1 21.1 80.3 25.7 80.3 25.7 C 79.2 24.3 77.1 23 74.8 23 C 72.9 23 71.6 24.2 71.6 25.7 C 71.6 30.1 83.2 29.3 83.2 39.5 C 83.2 44.6 79.3 48.1 73.7 48.1 C 69.4 48.1 66.2 46.6 64.3 44.3 Z M 100 47.4 C 100 47.4 100.02 26.64 100 26.6 C 100 24.7 99.3 23.7 97.8 23.7 C 96.1 23.7 94.6 25.6 93.9 27.5 C 93.9 27.48 93.9 47.4 93.9 47.4 L 87.1 47.4 L 87.1 7.4 L 93.9 7.4 C 93.9 7.4 93.9 22.2 93.9 22.2 C 95 19.9 98 17.7 100.7 17.7 C 105.1 17.7 106.9 20.1 106.9 24.2 C 106.86 24.24 106.9 47.4 106.9 47.4 L 100 47.4 Z M 121.2 27.4 C 121.2 15.5 125 6.7 133.7 6.7 C 140.2 6.7 142.5 11.9 143.8 16.1 C 143.8 16.1 137.8 18.4 137.8 18.4 C 136.9 15.3 136 13.4 133.7 13.4 C 130.1 13.4 128.9 19.3 128.9 27.4 C 128.9 35.6 130.1 41.4 133.7 41.4 C 136.2 41.4 137.3 38.9 137.8 35.6 C 137.8 35.6 143.9 37.8 143.9 37.8 C 142.7 42.4 140.4 48.1 133.7 48.1 C 125 48.1 121.2 39.3 121.2 27.4 Z M 147.8 47.4 L 147.8 18.4 L 154.6 18.4 C 154.6 18.4 154.62 22.44 154.6 22.4 C 155.8 19.8 158.6 17.7 161.1 17.7 C 161.1 17.7 161.1 24.4 161.1 24.4 C 160.7 24.2 160.2 24.2 159.8 24.2 C 157.8 24.2 155.8 25.8 154.6 27.9 C 154.62 27.9 154.6 47.4 154.6 47.4 L 147.8 47.4 Z M 163.9 10.9 C 163.9 8.6 165.8 6.8 168 6.8 C 170.3 6.8 172.1 8.6 172.1 10.9 C 172.1 13.2 170.3 15 168 15 C 165.8 15 163.9 13.2 163.9 10.9 Z M 164.6 47.4 L 164.6 18.4 L 171.4 18.4 L 171.4 47.4 L 164.6 47.4 Z M 174.8 44.3 C 174.8 44.3 177.7 39.7 177.7 39.7 C 179.2 41.4 181.4 42.8 183.7 42.8 C 185.8 42.8 187.3 41.6 187.3 39.7 C 187.3 34.9 175.9 36 175.9 25.9 C 175.9 21.5 179.2 17.7 185.1 17.7 C 188.4 17.7 191.5 19 193.6 21.1 C 193.6 21.1 190.9 25.7 190.9 25.7 C 189.7 24.3 187.6 23 185.3 23 C 183.4 23 182.2 24.2 182.2 25.7 C 182.2 30.1 193.7 29.3 193.7 39.5 C 193.7 44.6 189.8 48.1 184.3 48.1 C 179.9 48.1 176.8 46.6 174.8 44.3 Z M 204.4 43.8 C 204.42 43.8 204.4 58.4 204.4 58.4 L 197.6 58.4 L 197.6 18.4 L 204.4 18.4 C 204.4 18.4 204.42 22.02 204.4 22 C 205.7 19.1 208 17.7 210.1 17.7 C 215.8 17.7 218.6 23.6 218.6 32.9 C 218.6 42 215.8 48.1 210.1 48.1 C 208 48.1 205.6 46.8 204.4 43.8 Z M 211.7 32.9 C 211.7 27.8 210.8 23.7 207.8 23.7 C 206.4 23.7 205 25.1 204.4 27.1 C 204.4 27.1 204.4 38.6 204.4 38.6 C 205 40.6 206.4 42.1 207.8 42.1 C 210.8 42.1 211.7 38 211.7 32.9 Z M 237.2 47.4 L 237.2 14 L 231.1 14 L 231.1 7.4 L 250.8 7.4 L 250.8 14 L 244.7 14 L 244.7 47.4 L 237.2 47.4 Z M 253.9 10.9 C 253.9 8.6 255.8 6.8 258 6.8 C 260.3 6.8 262.1 8.6 262.1 10.9 C 262.1 13.2 260.3 15 258 15 C 255.8 15 253.9 13.2 253.9 10.9 Z M 254.6 47.4 L 254.6 18.4 L 261.4 18.4 L 261.4 47.4 L 254.6 47.4 Z M 264.8 44.3 C 264.8 44.3 267.7 39.7 267.7 39.7 C 269.2 41.4 271.4 42.8 273.7 42.8 C 275.8 42.8 277.3 41.6 277.3 39.7 C 277.3 34.9 265.9 36 265.9 25.9 C 265.9 21.5 269.2 17.7 275.1 17.7 C 278.4 17.7 281.5 19 283.6 21.1 C 283.6 21.1 280.9 25.7 280.9 25.7 C 279.7 24.3 277.6 23 275.3 23 C 273.4 23 272.2 24.2 272.2 25.7 C 272.2 30.1 283.7 29.3 283.7 39.5 C 283.7 44.6 279.8 48.1 274.3 48.1 C 269.9 48.1 266.8 46.6 264.8 44.3 Z M 285.6 44.3 C 285.6 44.3 288.4 39.7 288.4 39.7 C 290 41.4 292.1 42.8 294.4 42.8 C 296.6 42.8 298.1 41.6 298.1 39.7 C 298.1 34.9 286.6 36 286.6 25.9 C 286.6 21.5 289.9 17.7 295.9 17.7 C 299.2 17.7 302.2 19 304.4 21.1 C 304.4 21.1 301.6 25.7 301.6 25.7 C 300.5 24.3 298.4 23 296 23 C 294.2 23 292.9 24.2 292.9 25.7 C 292.9 30.1 304.5 29.3 304.5 39.5 C 304.5 44.6 300.5 48.1 295 48.1 C 290.7 48.1 287.5 46.6 285.6 44.3 Z M 321.3 47.4 C 321.3 47.4 321.29 43.74 321.3 43.7 C 320.2 46.1 317.3 48.1 314.5 48.1 C 310.1 48.1 308.4 45.7 308.4 41.6 C 308.39 41.58 308.4 18.4 308.4 18.4 L 315.2 18.4 C 315.2 18.4 315.17 39.18 315.2 39.2 C 315.2 41.2 315.9 42.1 317.4 42.1 C 319.1 42.1 320.6 40.3 321.3 38.5 C 321.29 38.46 321.3 18.4 321.3 18.4 L 328.1 18.4 L 328.1 47.4 L 321.3 47.4 Z M 332.5 32.9 C 332.5 24.5 336.1 17.7 343.3 17.7 C 350.6 17.7 353.7 24.2 353.7 32.8 C 353.69 32.76 353.7 35.1 353.7 35.1 C 353.7 35.1 338.99 35.1 339 35.1 C 339.1 39.4 340.9 42.6 344.7 42.6 C 346.3 42.6 348.2 41.5 349.5 39.7 C 349.5 39.7 352.8 43.5 352.8 43.5 C 350.5 46.4 347.3 48.1 344 48.1 C 336.4 48.1 332.5 41.8 332.5 32.9 Z M 343.1 23.2 C 339.8 23.2 339 27.3 339 30.4 C 339 30.4 347.2 30.4 347.2 30.4 C 347.2 27.1 346.4 23.2 343.1 23.2 Z M 355.8 44.3 C 355.8 44.3 358.6 39.7 358.6 39.7 C 360.2 41.4 362.3 42.8 364.6 42.8 C 366.8 42.8 368.3 41.6 368.3 39.7 C 368.3 34.9 356.8 36 356.8 25.9 C 356.8 21.5 360.1 17.7 366.1 17.7 C 369.4 17.7 372.4 19 374.6 21.1 C 374.6 21.1 371.8 25.7 371.8 25.7 C 370.7 24.3 368.6 23 366.2 23 C 364.4 23 363.1 24.2 363.1 25.7 C 363.1 30.1 374.7 29.3 374.7 39.5 C 374.7 44.6 370.7 48.1 365.2 48.1 C 360.9 48.1 357.7 46.6 355.8 44.3 Z " stroke="none" fill="#b13d24"/>  </g></svg>