<?xml version="1.0" standalone="no"?><!DOCTYPE svg PUBLIC "-//W3C//DTD SVG 1.1//EN" "http://www.w3.org/Graphics/SVG/1.1/DTD/svg11.dtd"><svg xmlns="http://www.w3.org/2000/svg" version="1.1" width="516px" height="85.6px" viewBox="0 0 516 85.6">  <desc>Flavour and Additive</desc>  <defs/>  <g id="Polygon161688">    <path d="M 57.2 47.4 L 57.2 7.4 L 74.7 7.4 L 74.7 14 L 64.7 14 L 64.7 23.7 L 74.3 23.7 L 74.3 30.4 L 64.7 30.4 L 64.7 47.4 L 57.2 47.4 Z M 79.4 47.4 L 79.4 7.4 L 86.2 7.4 L 86.2 47.4 L 79.4 47.4 Z M 104.2 47.4 C 104.2 47.4 104.23 44.64 104.2 44.6 C 103 46.9 100.3 48.1 98.2 48.1 C 93.6 48.1 90.3 44.4 90.3 38.5 C 90.3 32.6 93.6 29 98.2 29 C 100.3 29 103 30.1 104.2 32.3 C 104.2 32.3 104.2 28.7 104.2 28.7 C 104.2 25.4 102.9 23.5 99.8 23.5 C 97.9 23.5 95.9 24.4 94 26.3 C 94 26.3 91.4 21.5 91.4 21.5 C 94.1 18.7 98.2 17.7 101.2 17.7 C 107.2 17.7 111 20.7 111 27.2 C 111.01 27.18 111 47.4 111 47.4 L 104.2 47.4 Z M 104.2 40.6 C 104.2 40.6 104.2 36.7 104.2 36.7 C 103.5 34.9 102.1 33.7 100.6 33.7 C 98.2 33.7 97.1 35.8 97.1 38.6 C 97.1 41.3 98.2 43.6 100.6 43.6 C 102.1 43.6 103.5 42.4 104.2 40.6 Z M 121.5 47.4 L 113.9 18.4 L 121.1 18.4 L 125.2 38.9 L 129.4 18.4 L 136.5 18.4 L 128.8 47.4 L 121.5 47.4 Z M 138.2 32.9 C 138.2 24.8 141.5 17.7 149 17.7 C 156.7 17.7 160 24.8 160 32.9 C 160 40.9 156.7 48.1 149 48.1 C 141.5 48.1 138.2 40.9 138.2 32.9 Z M 152.9 32.9 C 152.9 28 152.1 23.7 149 23.7 C 146 23.7 145.2 28 145.2 32.9 C 145.2 37.9 146 42.1 149 42.1 C 152.1 42.1 152.9 37.9 152.9 32.9 Z M 177.2 47.4 C 177.2 47.4 177.25 43.74 177.2 43.7 C 176.1 46.1 173.3 48.1 170.5 48.1 C 166.1 48.1 164.3 45.7 164.3 41.6 C 164.35 41.58 164.3 18.4 164.3 18.4 L 171.1 18.4 C 171.1 18.4 171.13 39.18 171.1 39.2 C 171.1 41.2 171.8 42.1 173.3 42.1 C 175.1 42.1 176.6 40.3 177.2 38.5 C 177.25 38.46 177.2 18.4 177.2 18.4 L 184.1 18.4 L 184.1 47.4 L 177.2 47.4 Z M 189.5 47.4 L 189.5 18.4 L 196.3 18.4 C 196.3 18.4 196.33 22.44 196.3 22.4 C 197.5 19.8 200.3 17.7 202.8 17.7 C 202.8 17.7 202.8 24.4 202.8 24.4 C 202.4 24.2 201.9 24.2 201.5 24.2 C 199.5 24.2 197.5 25.8 196.3 27.9 C 196.33 27.9 196.3 47.4 196.3 47.4 L 189.5 47.4 Z M 228.7 47.4 C 228.7 47.4 228.73 44.64 228.7 44.6 C 227.5 46.9 224.8 48.1 222.7 48.1 C 218.1 48.1 214.8 44.4 214.8 38.5 C 214.8 32.6 218.1 29 222.7 29 C 224.8 29 227.5 30.1 228.7 32.3 C 228.7 32.3 228.7 28.7 228.7 28.7 C 228.7 25.4 227.4 23.5 224.3 23.5 C 222.4 23.5 220.4 24.4 218.5 26.3 C 218.5 26.3 215.9 21.5 215.9 21.5 C 218.6 18.7 222.7 17.7 225.7 17.7 C 231.7 17.7 235.5 20.7 235.5 27.2 C 235.51 27.18 235.5 47.4 235.5 47.4 L 228.7 47.4 Z M 228.7 40.6 C 228.7 40.6 228.7 36.7 228.7 36.7 C 228 34.9 226.6 33.7 225.1 33.7 C 222.7 33.7 221.6 35.8 221.6 38.6 C 221.6 41.3 222.7 43.6 225.1 43.6 C 226.6 43.6 228 42.4 228.7 40.6 Z M 253.9 47.4 C 253.9 47.4 253.92 26.76 253.9 26.8 C 253.9 24.7 253.2 23.7 251.7 23.7 C 250 23.7 248.5 25.6 247.8 27.5 C 247.8 27.48 247.8 47.4 247.8 47.4 L 241 47.4 L 241 18.4 L 247.8 18.4 C 247.8 18.4 247.8 22.2 247.8 22.2 C 248.9 19.9 251.9 17.7 254.6 17.7 C 259 17.7 260.8 20.3 260.8 24.3 C 260.76 24.3 260.8 47.4 260.8 47.4 L 253.9 47.4 Z M 279.3 47.4 C 279.3 47.4 279.3 43.8 279.3 43.8 C 278 46.7 275.7 48.1 273.7 48.1 C 268 48.1 265.1 42.2 265.1 32.9 C 265.1 23.8 268 17.7 273.7 17.7 C 275.7 17.7 278.1 19 279.3 22 C 279.3 22.02 279.3 7.4 279.3 7.4 L 286.1 7.4 L 286.1 47.4 L 279.3 47.4 Z M 279.3 38.6 C 279.3 38.6 279.3 27.2 279.3 27.2 C 278.7 25.3 277.3 23.7 275.9 23.7 C 272.9 23.7 272 27.8 272 32.9 C 272 38 272.9 42.1 275.9 42.1 C 277.3 42.1 278.7 40.6 279.3 38.6 Z M 316.3 47.4 L 315.1 40 L 307.6 40 L 306.4 47.4 L 298.6 47.4 L 307 7.4 L 315.7 7.4 L 324.1 47.4 L 316.3 47.4 Z M 311.3 15.8 L 308.5 33.4 L 314.2 33.4 L 311.3 15.8 Z M 339.8 47.4 C 339.8 47.4 339.78 43.8 339.8 43.8 C 338.5 46.7 336.2 48.1 334.1 48.1 C 328.4 48.1 325.6 42.2 325.6 32.9 C 325.6 23.8 328.4 17.7 334.1 17.7 C 336.2 17.7 338.6 19 339.8 22 C 339.78 22.02 339.8 7.4 339.8 7.4 L 346.6 7.4 L 346.6 47.4 L 339.8 47.4 Z M 339.8 38.6 C 339.8 38.6 339.8 27.2 339.8 27.2 C 339.2 25.3 337.8 23.7 336.4 23.7 C 333.4 23.7 332.5 27.8 332.5 32.9 C 332.5 38 333.4 42.1 336.4 42.1 C 337.8 42.1 339.2 40.6 339.8 38.6 Z M 365.2 47.4 C 365.2 47.4 365.16 43.8 365.2 43.8 C 363.9 46.7 361.6 48.1 359.5 48.1 C 353.8 48.1 350.9 42.2 350.9 32.9 C 350.9 23.8 353.8 17.7 359.5 17.7 C 361.6 17.7 364 19 365.2 22 C 365.16 22.02 365.2 7.4 365.2 7.4 L 371.9 7.4 L 371.9 47.4 L 365.2 47.4 Z M 365.2 38.6 C 365.2 38.6 365.2 27.2 365.2 27.2 C 364.6 25.3 363.2 23.7 361.7 23.7 C 358.7 23.7 357.9 27.8 357.9 32.9 C 357.9 38 358.7 42.1 361.7 42.1 C 363.2 42.1 364.6 40.6 365.2 38.6 Z M 376.7 10.9 C 376.7 8.6 378.6 6.8 380.8 6.8 C 383.1 6.8 385 8.6 385 10.9 C 385 13.2 383.1 15 380.8 15 C 378.6 15 376.7 13.2 376.7 10.9 Z M 377.5 47.4 L 377.5 18.4 L 384.2 18.4 L 384.2 47.4 L 377.5 47.4 Z M 390.6 40.7 C 390.6 40.74 390.6 24.3 390.6 24.3 L 387.9 24.3 L 387.9 18.4 L 390.6 18.4 L 390.6 10.5 L 397.4 10.5 L 397.4 18.4 L 401 18.4 L 401 24.3 L 397.4 24.3 C 397.4 24.3 397.38 39.42 397.4 39.4 C 397.4 41.2 397.8 42.1 399 42.1 C 399.7 42.1 400.3 41.8 400.6 41.3 C 400.6 41.3 402 46.6 402 46.6 C 401 47.5 399.4 48.1 397.3 48.1 C 392.5 48.1 390.6 45.7 390.6 40.7 Z M 404.4 10.9 C 404.4 8.6 406.3 6.8 408.5 6.8 C 410.8 6.8 412.7 8.6 412.7 10.9 C 412.7 13.2 410.8 15 408.5 15 C 406.3 15 404.4 13.2 404.4 10.9 Z M 405.2 47.4 L 405.2 18.4 L 412 18.4 L 412 47.4 L 405.2 47.4 Z M 422.4 47.4 L 414.8 18.4 L 422 18.4 L 426.1 38.9 L 430.3 18.4 L 437.4 18.4 L 429.7 47.4 L 422.4 47.4 Z M 439.1 32.9 C 439.1 24.5 442.7 17.7 449.9 17.7 C 457.3 17.7 460.3 24.2 460.3 32.8 C 460.32 32.76 460.3 35.1 460.3 35.1 C 460.3 35.1 445.62 35.1 445.6 35.1 C 445.7 39.4 447.5 42.6 451.3 42.6 C 452.9 42.6 454.8 41.5 456.1 39.7 C 456.1 39.7 459.4 43.5 459.4 43.5 C 457.1 46.4 453.9 48.1 450.6 48.1 C 443 48.1 439.1 41.8 439.1 32.9 Z M 449.8 23.2 C 446.5 23.2 445.6 27.3 445.6 30.4 C 445.6 30.4 453.8 30.4 453.8 30.4 C 453.8 27.1 453.1 23.2 449.8 23.2 Z " stroke="none" fill="#b13d24"/>  </g></svg>