<?xml version="1.0" standalone="no"?><!DOCTYPE svg PUBLIC "-//W3C//DTD SVG 1.1//EN" "http://www.w3.org/Graphics/SVG/1.1/DTD/svg11.dtd"><svg xmlns="http://www.w3.org/2000/svg" version="1.1" width="191px" height="33.2px" viewBox="0 0 191 33.2">  <desc>STAY FULL FOR:</desc>  <defs/>  <g id="Polygon187441">    <path d="M 28.9 14.3 C 28.9 14.3 30.2 12.3 30.2 12.3 C 31 13.1 32.1 13.7 33.5 13.7 C 34.6 13.7 35.3 13 35.3 12.2 C 35.3 9.9 29.3 10.7 29.3 6.1 C 29.3 4 31 2.2 33.7 2.2 C 35.3 2.2 36.7 2.8 37.8 3.7 C 37.8 3.7 36.5 5.7 36.5 5.7 C 35.7 5 34.7 4.6 33.6 4.6 C 32.7 4.6 32.1 5.1 32.1 6 C 32.1 8 38 7.5 38 12 C 38 14.3 36.4 16 33.5 16 C 31.5 16 30 15.4 28.9 14.3 Z M 42.5 15.8 L 42.5 4.8 L 39.6 4.8 L 39.6 2.5 L 48.2 2.5 L 48.2 4.8 L 45.2 4.8 L 45.2 15.8 L 42.5 15.8 Z M 56.6 15.8 L 56 13.4 L 51.9 13.4 L 51.3 15.8 L 48.4 15.8 L 52.4 2.5 L 55.6 2.5 L 59.6 15.8 L 56.6 15.8 Z M 54 5.3 L 52.5 11.1 L 55.5 11.1 L 54 5.3 Z M 63.4 15.8 L 63.4 10.3 L 59.3 2.5 L 62.3 2.5 L 64.8 7.8 L 67.3 2.5 L 70.2 2.5 L 66.1 10.3 L 66.1 15.8 L 63.4 15.8 Z M 77.1 15.8 L 77.1 2.5 L 84.8 2.5 L 84.8 4.8 L 79.8 4.8 L 79.8 7.8 L 84.6 7.8 L 84.6 10.2 L 79.8 10.2 L 79.8 15.8 L 77.1 15.8 Z M 87.4 11.2 C 87.39 11.2 87.4 2.5 87.4 2.5 L 90.1 2.5 C 90.1 2.5 90.09 11.22 90.1 11.2 C 90.1 12.8 90.9 13.7 92.3 13.7 C 93.7 13.7 94.5 12.8 94.5 11.2 C 94.51 11.22 94.5 2.5 94.5 2.5 L 97.2 2.5 C 97.2 2.5 97.21 11.2 97.2 11.2 C 97.2 14.3 95.3 16 92.3 16 C 89.3 16 87.4 14.3 87.4 11.2 Z M 100.4 15.8 L 100.4 2.5 L 103 2.5 L 103 13.4 L 107.5 13.4 L 107.5 15.8 L 100.4 15.8 Z M 110 15.8 L 110 2.5 L 112.7 2.5 L 112.7 13.4 L 117.2 13.4 L 117.2 15.8 L 110 15.8 Z M 124.7 15.8 L 124.7 2.5 L 132.4 2.5 L 132.4 4.8 L 127.4 4.8 L 127.4 7.8 L 132.2 7.8 L 132.2 10.2 L 127.4 10.2 L 127.4 15.8 L 124.7 15.8 Z M 134.4 9.1 C 134.4 5.2 136.5 2.2 140 2.2 C 143.5 2.2 145.6 5.2 145.6 9.1 C 145.6 13.1 143.5 16 140 16 C 136.5 16 134.4 13.1 134.4 9.1 Z M 142.8 9.1 C 142.8 6.6 141.8 4.6 140 4.6 C 138.2 4.6 137.2 6.6 137.2 9.1 C 137.2 11.7 138.2 13.7 140 13.7 C 141.8 13.7 142.8 11.7 142.8 9.1 Z M 154.4 15.8 L 152.3 11 L 150.9 11 L 150.9 15.8 L 148.2 15.8 L 148.2 2.5 C 148.2 2.5 153.21 2.46 153.2 2.5 C 155.6 2.5 157.3 4.2 157.3 6.7 C 157.3 9 156 10.1 154.9 10.5 C 154.95 10.5 157.4 15.8 157.4 15.8 L 154.4 15.8 Z M 154.5 6.7 C 154.5 5.6 153.8 4.8 152.8 4.8 C 152.81 4.82 150.9 4.8 150.9 4.8 L 150.9 8.6 C 150.9 8.6 152.81 8.62 152.8 8.6 C 153.8 8.6 154.5 7.9 154.5 6.7 Z M 159.8 7.5 C 159.8 6.7 160.5 6 161.4 6 C 162.2 6 162.9 6.7 162.9 7.5 C 162.9 8.4 162.2 9.1 161.4 9.1 C 160.5 9.1 159.8 8.4 159.8 7.5 Z M 159.8 14.5 C 159.8 13.6 160.5 12.9 161.4 12.9 C 162.2 12.9 162.9 13.6 162.9 14.5 C 162.9 15.3 162.2 16 161.4 16 C 160.5 16 159.8 15.3 159.8 14.5 Z " stroke="none" fill="#b13d24"/>  </g></svg>