<?xml version="1.0" standalone="no"?><!DOCTYPE svg PUBLIC "-//W3C//DTD SVG 1.1//EN" "http://www.w3.org/Graphics/SVG/1.1/DTD/svg11.dtd"><svg xmlns="http://www.w3.org/2000/svg" version="1.1" width="682px" height="104px" viewBox="0 0 682 104">  <desc>Steak, baked potatoes and steamed vegetables Jurong East, Singapore, circa June 2018 (recovered)</desc>  <defs/>  <g id="Polygon145141">    <path d="M 111.4 72.8 C 111.4 72.8 112.3 71.4 112.3 71.4 C 112.9 72.1 113.6 72.6 114.6 72.6 C 116.2 72.6 117.2 71.6 117.2 69.9 C 117.19 69.87 117.2 58 117.2 58 L 119.1 58 C 119.1 58 119.08 69.92 119.1 69.9 C 119.1 72.9 117.3 74.3 114.8 74.3 C 113.5 74.3 112.3 73.9 111.4 72.8 Z M 128.6 74 C 128.6 74 128.61 72.42 128.6 72.4 C 127.9 73.4 126.7 74.3 125.3 74.3 C 123.3 74.3 122.3 73.3 122.3 71.2 C 122.35 71.22 122.3 62.4 122.3 62.4 L 124.1 62.4 C 124.1 62.4 124.05 70.71 124.1 70.7 C 124.1 72.2 124.8 72.8 125.9 72.8 C 127.1 72.8 128.1 71.9 128.6 71 C 128.61 70.98 128.6 62.4 128.6 62.4 L 130.3 62.4 L 130.3 74 L 128.6 74 Z M 133.5 74 L 133.5 62.4 L 135.2 62.4 C 135.2 62.4 135.21 64.28 135.2 64.3 C 136 63.1 137.1 62.2 138.5 62.2 C 138.5 62.2 138.5 64 138.5 64 C 138.3 63.9 138.1 63.9 137.9 63.9 C 136.9 63.9 135.7 64.8 135.2 65.8 C 135.21 65.79 135.2 74 135.2 74 L 133.5 74 Z M 139.9 68.2 C 139.9 65 141.5 62.1 144.6 62.1 C 147.7 62.1 149.3 65 149.3 68.2 C 149.3 71.5 147.7 74.3 144.6 74.3 C 141.5 74.3 139.9 71.5 139.9 68.2 Z M 147.5 68.2 C 147.5 65.9 146.7 63.7 144.6 63.7 C 142.6 63.7 141.7 65.9 141.7 68.2 C 141.7 70.6 142.6 72.8 144.6 72.8 C 146.7 72.8 147.5 70.6 147.5 68.2 Z M 158.2 74 C 158.2 74 158.2 65.77 158.2 65.8 C 158.2 64.2 157.5 63.7 156.4 63.7 C 155.2 63.7 154.2 64.6 153.6 65.5 C 153.64 65.53 153.6 74 153.6 74 L 151.9 74 L 151.9 62.4 L 153.6 62.4 C 153.6 62.4 153.64 64.09 153.6 64.1 C 154.3 63.1 155.6 62.1 157 62.1 C 159 62.1 159.9 63.2 159.9 65.3 C 159.93 65.29 159.9 74 159.9 74 L 158.2 74 Z M 163 77.3 C 163 77.3 163.8 75.9 163.8 75.9 C 164.6 76.8 165.5 77.3 166.8 77.3 C 168.4 77.3 169.7 76.4 169.7 74.1 C 169.7 74.1 169.7 72.2 169.7 72.2 C 169 73.4 167.9 74.2 166.7 74.2 C 164.1 74.2 162.5 71.8 162.5 68.2 C 162.5 64.6 164.1 62.1 166.7 62.1 C 167.8 62.1 169 62.8 169.7 64.1 C 169.72 64.11 169.7 62.4 169.7 62.4 L 171.4 62.4 C 171.4 62.4 171.45 74 171.4 74 C 171.4 77.6 169.3 78.7 166.9 78.7 C 165.3 78.7 164.1 78.4 163 77.3 Z M 169.7 70.7 C 169.7 70.7 169.7 65.6 169.7 65.6 C 169.3 64.6 168.2 63.7 167.1 63.7 C 165.2 63.7 164.3 65.7 164.3 68.2 C 164.3 70.7 165.2 72.6 167.1 72.6 C 168.2 72.6 169.3 71.7 169.7 70.7 Z M 179.8 74 L 179.8 58 L 188.1 58 L 188.1 59.7 L 181.8 59.7 L 181.8 65 L 187.9 65 L 187.9 66.7 L 181.8 66.7 L 181.8 72.3 L 188.1 72.3 L 188.1 74 L 179.8 74 Z M 196.8 74 C 196.8 74 196.77 72.78 196.8 72.8 C 196 73.8 194.9 74.3 193.7 74.3 C 191.8 74.3 190.2 72.9 190.2 70.4 C 190.2 68 191.8 66.6 193.7 66.6 C 194.9 66.6 196 67.1 196.8 68.1 C 196.8 68.1 196.8 66.1 196.8 66.1 C 196.8 64.5 195.9 63.6 194.4 63.6 C 193.3 63.6 192.4 64 191.5 65 C 191.5 65 190.7 63.8 190.7 63.8 C 191.8 62.7 193.2 62.1 194.7 62.1 C 197 62.1 198.5 63.3 198.5 65.9 C 198.5 65.91 198.5 74 198.5 74 L 196.8 74 Z M 196.8 71.6 C 196.8 71.6 196.8 69.4 196.8 69.4 C 196.2 68.4 195.3 67.9 194.3 67.9 C 192.8 67.9 192 69 192 70.5 C 192 71.9 192.8 73.1 194.3 73.1 C 195.3 73.1 196.2 72.6 196.8 71.6 Z M 200.7 72.7 C 200.7 72.7 201.6 71.5 201.6 71.5 C 202.2 72.3 203.3 72.9 204.6 72.9 C 205.9 72.9 206.8 72.2 206.8 71 C 206.8 68.3 201 69.3 201 65.3 C 201 63.5 202.4 62.1 204.7 62.1 C 206.3 62.1 207.4 62.7 208.3 63.6 C 208.3 63.6 207.4 64.8 207.4 64.8 C 206.9 64 205.9 63.5 204.8 63.5 C 203.5 63.5 202.7 64.3 202.7 65.2 C 202.7 67.7 208.5 66.8 208.5 71 C 208.5 72.9 207 74.3 204.6 74.3 C 203 74.3 201.7 73.8 200.7 72.7 Z M 211.3 71.7 C 211.26 71.7 211.3 63.9 211.3 63.9 L 209.7 63.9 L 209.7 62.4 L 211.3 62.4 L 211.3 59.3 L 213 59.3 L 213 62.4 L 215 62.4 L 215 63.9 L 213 63.9 C 213 63.9 212.99 71.39 213 71.4 C 213 72.3 213.3 72.8 213.9 72.8 C 214.4 72.8 214.7 72.6 214.9 72.3 C 214.9 72.3 215.5 73.6 215.5 73.6 C 215.1 74 214.5 74.3 213.6 74.3 C 212 74.3 211.3 73.4 211.3 71.7 Z M 217.9 77 C 217.9 77 217 76.4 217 76.4 C 217.8 75.8 218.5 74.9 218.6 74.1 C 218.5 74.1 218.3 74.1 218.2 74.1 C 217.6 74.1 217.1 73.6 217.1 73 C 217.1 72.3 217.6 71.7 218.4 71.7 C 219.1 71.7 219.8 72.3 219.8 73.5 C 219.8 74.9 219 76.3 217.9 77 Z M 227 72.3 C 227 72.3 228 70.8 228 70.8 C 228.9 71.8 230.2 72.6 231.8 72.6 C 233.8 72.6 234.7 71.4 234.7 70 C 234.7 66.1 227.5 67.1 227.5 62 C 227.5 59.5 229.4 57.8 232 57.8 C 233.8 57.8 235.3 58.4 236.3 59.4 C 236.3 59.4 235.3 60.9 235.3 60.9 C 234.4 59.9 233.3 59.5 232 59.5 C 230.5 59.5 229.4 60.4 229.4 61.9 C 229.4 65.2 236.6 64.5 236.6 69.9 C 236.6 72.2 235.1 74.3 231.8 74.3 C 229.7 74.3 228.1 73.5 227 72.3 Z M 238.8 59.6 C 238.8 58.9 239.4 58.4 240 58.4 C 240.6 58.4 241.2 58.9 241.2 59.6 C 241.2 60.2 240.6 60.8 240 60.8 C 239.4 60.8 238.8 60.2 238.8 59.6 Z M 239.2 74 L 239.2 62.4 L 240.9 62.4 L 240.9 74 L 239.2 74 Z M 250.3 74 C 250.3 74 250.29 65.77 250.3 65.8 C 250.3 64.2 249.6 63.7 248.4 63.7 C 247.3 63.7 246.3 64.6 245.7 65.5 C 245.73 65.53 245.7 74 245.7 74 L 244 74 L 244 62.4 L 245.7 62.4 C 245.7 62.4 245.73 64.09 245.7 64.1 C 246.4 63.1 247.7 62.1 249.1 62.1 C 251.1 62.1 252 63.2 252 65.3 C 252.02 65.29 252 74 252 74 L 250.3 74 Z M 255.1 77.3 C 255.1 77.3 255.9 75.9 255.9 75.9 C 256.6 76.8 257.6 77.3 258.9 77.3 C 260.5 77.3 261.8 76.4 261.8 74.1 C 261.8 74.1 261.8 72.2 261.8 72.2 C 261.1 73.4 260 74.2 258.8 74.2 C 256.2 74.2 254.6 71.8 254.6 68.2 C 254.6 64.6 256.1 62.1 258.8 62.1 C 259.9 62.1 261.1 62.8 261.8 64.1 C 261.81 64.11 261.8 62.4 261.8 62.4 L 263.5 62.4 C 263.5 62.4 263.54 74 263.5 74 C 263.5 77.6 261.4 78.7 259 78.7 C 257.4 78.7 256.2 78.4 255.1 77.3 Z M 261.8 70.7 C 261.8 70.7 261.8 65.6 261.8 65.6 C 261.4 64.6 260.3 63.7 259.2 63.7 C 257.3 63.7 256.4 65.7 256.4 68.2 C 256.4 70.7 257.3 72.6 259.2 72.6 C 260.3 72.6 261.4 71.7 261.8 70.7 Z M 272.6 74 C 272.6 74 272.63 72.78 272.6 72.8 C 271.9 73.8 270.8 74.3 269.6 74.3 C 267.7 74.3 266.1 72.9 266.1 70.4 C 266.1 68 267.7 66.6 269.6 66.6 C 270.8 66.6 271.9 67.1 272.6 68.1 C 272.6 68.1 272.6 66.1 272.6 66.1 C 272.6 64.5 271.8 63.6 270.3 63.6 C 269.2 63.6 268.2 64 267.4 65 C 267.4 65 266.6 63.8 266.6 63.8 C 267.7 62.7 269.1 62.1 270.5 62.1 C 272.8 62.1 274.4 63.3 274.4 65.9 C 274.36 65.91 274.4 74 274.4 74 L 272.6 74 Z M 272.6 71.6 C 272.6 71.6 272.6 69.4 272.6 69.4 C 272.1 68.4 271.1 67.9 270.1 67.9 C 268.7 67.9 267.8 69 267.8 70.5 C 267.8 71.9 268.7 73.1 270.1 73.1 C 271.1 73.1 272.1 72.6 272.6 71.6 Z M 279.2 72.3 C 279.21 72.35 279.2 78.4 279.2 78.4 L 277.5 78.4 L 277.5 62.4 L 279.2 62.4 C 279.2 62.4 279.21 64.09 279.2 64.1 C 279.9 62.9 281 62.1 282.3 62.1 C 284.9 62.1 286.4 64.6 286.4 68.2 C 286.4 71.8 284.9 74.3 282.3 74.3 C 281.1 74.3 279.9 73.6 279.2 72.3 Z M 284.6 68.2 C 284.6 65.7 283.7 63.7 281.8 63.7 C 280.7 63.7 279.7 64.5 279.2 65.6 C 279.2 65.6 279.2 70.9 279.2 70.9 C 279.7 71.9 280.7 72.8 281.8 72.8 C 283.7 72.8 284.6 70.7 284.6 68.2 Z M 288.4 68.2 C 288.4 65 290 62.1 293.1 62.1 C 296.2 62.1 297.8 65 297.8 68.2 C 297.8 71.5 296.2 74.3 293.1 74.3 C 290 74.3 288.4 71.5 288.4 68.2 Z M 296 68.2 C 296 65.9 295.1 63.7 293.1 63.7 C 291.1 63.7 290.2 65.9 290.2 68.2 C 290.2 70.6 291.1 72.8 293.1 72.8 C 295.1 72.8 296 70.6 296 68.2 Z M 300.4 74 L 300.4 62.4 L 302.1 62.4 C 302.1 62.4 302.13 64.28 302.1 64.3 C 302.9 63.1 304 62.2 305.4 62.2 C 305.4 62.2 305.4 64 305.4 64 C 305.2 63.9 305 63.9 304.8 63.9 C 303.8 63.9 302.6 64.8 302.1 65.8 C 302.13 65.79 302.1 74 302.1 74 L 300.4 74 Z M 306.8 68.2 C 306.8 64.9 308.6 62.1 311.5 62.1 C 314.6 62.1 316.1 64.9 316.1 68.3 C 316.12 68.27 316.1 68.8 316.1 68.8 C 316.1 68.8 308.61 68.79 308.6 68.8 C 308.7 71.1 309.9 72.9 311.9 72.9 C 313 72.9 314 72.4 314.7 71.5 C 314.7 71.5 315.6 72.5 315.6 72.5 C 314.7 73.6 313.4 74.3 311.8 74.3 C 308.7 74.3 306.8 71.8 306.8 68.2 Z M 311.5 63.6 C 309.5 63.6 308.7 65.8 308.6 67.5 C 308.6 67.5 314.4 67.5 314.4 67.5 C 314.4 65.7 313.6 63.6 311.5 63.6 Z M 319.2 77 C 319.2 77 318.3 76.4 318.3 76.4 C 319.1 75.8 319.8 74.9 319.9 74.1 C 319.8 74.1 319.6 74.1 319.5 74.1 C 318.9 74.1 318.4 73.6 318.4 73 C 318.4 72.3 318.9 71.7 319.7 71.7 C 320.4 71.7 321.1 72.3 321.1 73.5 C 321.1 74.9 320.3 76.3 319.2 77 Z M 328.6 68.2 C 328.6 64.8 330.4 62.1 333.4 62.1 C 335 62.1 336 62.8 336.7 63.7 C 336.7 63.7 335.8 64.9 335.8 64.9 C 335.1 64 334.4 63.7 333.5 63.7 C 331.5 63.7 330.4 65.7 330.4 68.2 C 330.4 70.7 331.5 72.8 333.5 72.8 C 334.4 72.8 335.1 72.4 335.8 71.6 C 335.8 71.6 336.7 72.8 336.7 72.8 C 336 73.7 335 74.3 333.4 74.3 C 330.4 74.3 328.6 71.6 328.6 68.2 Z M 338.6 59.6 C 338.6 58.9 339.1 58.4 339.8 58.4 C 340.4 58.4 340.9 58.9 340.9 59.6 C 340.9 60.2 340.4 60.8 339.8 60.8 C 339.1 60.8 338.6 60.2 338.6 59.6 Z M 338.9 74 L 338.9 62.4 L 340.6 62.4 L 340.6 74 L 338.9 74 Z M 343.8 74 L 343.8 62.4 L 345.5 62.4 C 345.5 62.4 345.49 64.28 345.5 64.3 C 346.2 63.1 347.4 62.2 348.8 62.2 C 348.8 62.2 348.8 64 348.8 64 C 348.6 63.9 348.4 63.9 348.2 63.9 C 347.1 63.9 346 64.8 345.5 65.8 C 345.49 65.79 345.5 74 345.5 74 L 343.8 74 Z M 350.2 68.2 C 350.2 64.8 352 62.1 355 62.1 C 356.6 62.1 357.6 62.8 358.3 63.7 C 358.3 63.7 357.4 64.9 357.4 64.9 C 356.7 64 356 63.7 355.1 63.7 C 353.1 63.7 352 65.7 352 68.2 C 352 70.7 353.1 72.8 355.1 72.8 C 356 72.8 356.7 72.4 357.4 71.6 C 357.4 71.6 358.3 72.8 358.3 72.8 C 357.6 73.7 356.6 74.3 355 74.3 C 352 74.3 350.2 71.6 350.2 68.2 Z M 366.5 74 C 366.5 74 366.47 72.78 366.5 72.8 C 365.7 73.8 364.6 74.3 363.4 74.3 C 361.5 74.3 359.9 72.9 359.9 70.4 C 359.9 68 361.5 66.6 363.4 66.6 C 364.6 66.6 365.7 67.1 366.5 68.1 C 366.5 68.1 366.5 66.1 366.5 66.1 C 366.5 64.5 365.6 63.6 364.1 63.6 C 363 63.6 362.1 64 361.2 65 C 361.2 65 360.4 63.8 360.4 63.8 C 361.5 62.7 362.9 62.1 364.4 62.1 C 366.7 62.1 368.2 63.3 368.2 65.9 C 368.2 65.91 368.2 74 368.2 74 L 366.5 74 Z M 366.5 71.6 C 366.5 71.6 366.5 69.4 366.5 69.4 C 365.9 68.4 365 67.9 364 67.9 C 362.5 67.9 361.7 69 361.7 70.5 C 361.7 71.9 362.5 73.1 364 73.1 C 365 73.1 365.9 72.6 366.5 71.6 Z M 375.1 72.8 C 375.1 72.8 376 71.4 376 71.4 C 376.6 72.1 377.3 72.6 378.3 72.6 C 379.9 72.6 380.9 71.6 380.9 69.9 C 380.89 69.87 380.9 58 380.9 58 L 382.8 58 C 382.8 58 382.79 69.92 382.8 69.9 C 382.8 72.9 381 74.3 378.5 74.3 C 377.2 74.3 376 73.9 375.1 72.8 Z M 392.3 74 C 392.3 74 392.32 72.42 392.3 72.4 C 391.6 73.4 390.4 74.3 389 74.3 C 387 74.3 386.1 73.3 386.1 71.2 C 386.05 71.22 386.1 62.4 386.1 62.4 L 387.8 62.4 C 387.8 62.4 387.76 70.71 387.8 70.7 C 387.8 72.2 388.5 72.8 389.6 72.8 C 390.8 72.8 391.8 71.9 392.3 71 C 392.32 70.98 392.3 62.4 392.3 62.4 L 394 62.4 L 394 74 L 392.3 74 Z M 403.5 74 C 403.5 74 403.48 65.77 403.5 65.8 C 403.5 64.2 402.8 63.7 401.6 63.7 C 400.5 63.7 399.4 64.6 398.9 65.5 C 398.92 65.53 398.9 74 398.9 74 L 397.2 74 L 397.2 62.4 L 398.9 62.4 C 398.9 62.4 398.92 64.09 398.9 64.1 C 399.6 63.1 400.9 62.1 402.3 62.1 C 404.2 62.1 405.2 63.2 405.2 65.3 C 405.2 65.29 405.2 74 405.2 74 L 403.5 74 Z M 407.8 68.2 C 407.8 64.9 409.6 62.1 412.5 62.1 C 415.5 62.1 417.1 64.9 417.1 68.3 C 417.08 68.27 417.1 68.8 417.1 68.8 C 417.1 68.8 409.57 68.79 409.6 68.8 C 409.6 71.1 410.8 72.9 412.9 72.9 C 413.9 72.9 414.9 72.4 415.7 71.5 C 415.7 71.5 416.6 72.5 416.6 72.5 C 415.6 73.6 414.3 74.3 412.8 74.3 C 409.7 74.3 407.8 71.8 407.8 68.2 Z M 412.5 63.6 C 410.4 63.6 409.6 65.8 409.6 67.5 C 409.6 67.5 415.4 67.5 415.4 67.5 C 415.4 65.7 414.6 63.6 412.5 63.6 Z M 424.5 74 C 424.5 74 424.45 72.47 424.5 72.5 C 429.7 66.4 431.5 64.5 431.5 62.1 C 431.5 60.4 430.3 59.5 428.9 59.5 C 427.4 59.5 426.3 60.2 425.5 61.5 C 425.5 61.5 424.3 60.3 424.3 60.3 C 425.3 58.7 426.9 57.8 428.9 57.8 C 431.4 57.8 433.4 59.4 433.4 62.1 C 433.4 64.8 431.4 67.2 427.2 72.3 C 427.16 72.32 433.5 72.3 433.5 72.3 L 433.5 74 L 424.5 74 Z M 436 66 C 436 62.2 437.3 57.8 441.1 57.8 C 444.8 57.8 446.1 62.2 446.1 66 C 446.1 69.9 444.8 74.3 441.1 74.3 C 437.3 74.3 436 69.9 436 66 Z M 444.1 66 C 444.1 62.9 443.5 59.5 441.1 59.5 C 438.6 59.5 438 62.9 438 66 C 438 69.2 438.6 72.6 441.1 72.6 C 443.5 72.6 444.1 69.2 444.1 66 Z M 451.2 74 L 451.2 60.5 L 448.7 63.2 L 447.6 62 L 451.4 58 L 453.1 58 L 453.1 74 L 451.2 74 Z M 455.8 70.1 C 455.8 68 457.5 66.4 459 65.8 C 457.6 65.2 456.1 63.9 456.1 61.9 C 456.1 59.1 458.3 57.8 460.6 57.8 C 462.9 57.8 465.1 59.1 465.1 61.9 C 465.1 63.9 463.6 65.2 462.2 65.8 C 463.7 66.4 465.3 68 465.3 70.1 C 465.3 72.7 463.4 74.3 460.6 74.3 C 457.8 74.3 455.8 72.7 455.8 70.1 Z M 463.2 62.1 C 463.2 60.5 462.2 59.5 460.6 59.5 C 459 59.5 458 60.5 458 62.1 C 458 64.1 460 64.9 460.6 65 C 461.2 64.9 463.2 64.1 463.2 62.1 Z M 463.4 69.8 C 463.4 67.7 461.3 66.7 460.6 66.6 C 459.9 66.7 457.8 67.7 457.8 69.9 C 457.8 71.6 459 72.6 460.6 72.6 C 462.1 72.6 463.4 71.6 463.4 69.8 Z M 475.5 78.8 C 473.7 75.7 472.7 72.1 472.7 68.2 C 472.7 64.3 473.7 60.7 475.5 57.6 C 475.5 57.6 476.6 58.2 476.6 58.2 C 475.4 61.3 474.6 64.2 474.6 68.2 C 474.6 72.2 475.4 75.1 476.6 78.1 C 476.6 78.1 475.5 78.8 475.5 78.8 Z M 478.7 74 L 478.7 62.4 L 480.4 62.4 C 480.4 62.4 480.37 64.28 480.4 64.3 C 481.1 63.1 482.2 62.2 483.7 62.2 C 483.7 62.2 483.7 64 483.7 64 C 483.5 63.9 483.3 63.9 483.1 63.9 C 482 63.9 480.9 64.8 480.4 65.8 C 480.37 65.79 480.4 74 480.4 74 L 478.7 74 Z M 485.1 68.2 C 485.1 64.9 486.9 62.1 489.8 62.1 C 492.8 62.1 494.4 64.9 494.4 68.3 C 494.36 68.27 494.4 68.8 494.4 68.8 C 494.4 68.8 486.85 68.79 486.9 68.8 C 486.9 71.1 488.1 72.9 490.2 72.9 C 491.2 72.9 492.2 72.4 492.9 71.5 C 492.9 71.5 493.9 72.5 493.9 72.5 C 492.9 73.6 491.6 74.3 490 74.3 C 486.9 74.3 485.1 71.8 485.1 68.2 Z M 489.8 63.6 C 487.7 63.6 486.9 65.8 486.9 67.5 C 486.9 67.5 492.7 67.5 492.7 67.5 C 492.6 65.7 491.9 63.6 489.8 63.6 Z M 496.3 68.2 C 496.3 64.8 498.1 62.1 501.1 62.1 C 502.7 62.1 503.7 62.8 504.4 63.7 C 504.4 63.7 503.5 64.9 503.5 64.9 C 502.9 64 502.1 63.7 501.2 63.7 C 499.2 63.7 498.1 65.7 498.1 68.2 C 498.1 70.7 499.2 72.8 501.2 72.8 C 502.1 72.8 502.9 72.4 503.5 71.6 C 503.5 71.6 504.4 72.8 504.4 72.8 C 503.7 73.7 502.7 74.3 501.1 74.3 C 498.1 74.3 496.3 71.6 496.3 68.2 Z M 506 68.2 C 506 65 507.7 62.1 510.8 62.1 C 513.9 62.1 515.5 65 515.5 68.2 C 515.5 71.5 513.9 74.3 510.8 74.3 C 507.7 74.3 506 71.5 506 68.2 Z M 513.7 68.2 C 513.7 65.9 512.8 63.7 510.8 63.7 C 508.8 63.7 507.8 65.9 507.8 68.2 C 507.8 70.6 508.8 72.8 510.8 72.8 C 512.8 72.8 513.7 70.6 513.7 68.2 Z M 520.4 74 L 516.6 62.4 L 518.5 62.4 L 521.4 72 L 524.3 62.4 L 526.1 62.4 L 522.3 74 L 520.4 74 Z M 527.3 68.2 C 527.3 64.9 529.1 62.1 532 62.1 C 535 62.1 536.6 64.9 536.6 68.3 C 536.58 68.27 536.6 68.8 536.6 68.8 C 536.6 68.8 529.07 68.79 529.1 68.8 C 529.1 71.1 530.3 72.9 532.4 72.9 C 533.4 72.9 534.4 72.4 535.2 71.5 C 535.2 71.5 536.1 72.5 536.1 72.5 C 535.1 73.6 533.8 74.3 532.3 74.3 C 529.2 74.3 527.3 71.8 527.3 68.2 Z M 532 63.6 C 529.9 63.6 529.1 65.8 529.1 67.5 C 529.1 67.5 534.9 67.5 534.9 67.5 C 534.8 65.7 534.1 63.6 532 63.6 Z M 539.1 74 L 539.1 62.4 L 540.8 62.4 C 540.8 62.4 540.8 64.28 540.8 64.3 C 541.5 63.1 542.7 62.2 544.1 62.2 C 544.1 62.2 544.1 64 544.1 64 C 543.9 63.9 543.7 63.9 543.5 63.9 C 542.5 63.9 541.3 64.8 540.8 65.8 C 540.8 65.79 540.8 74 540.8 74 L 539.1 74 Z M 545.5 68.2 C 545.5 64.9 547.3 62.1 550.2 62.1 C 553.3 62.1 554.8 64.9 554.8 68.3 C 554.79 68.27 554.8 68.8 554.8 68.8 C 554.8 68.8 547.28 68.79 547.3 68.8 C 547.4 71.1 548.6 72.9 550.6 72.9 C 551.6 72.9 552.7 72.4 553.4 71.5 C 553.4 71.5 554.3 72.5 554.3 72.5 C 553.4 73.6 552 74.3 550.5 74.3 C 547.4 74.3 545.5 71.8 545.5 68.2 Z M 550.2 63.6 C 548.1 63.6 547.3 65.8 547.3 67.5 C 547.3 67.5 553.1 67.5 553.1 67.5 C 553.1 65.7 552.3 63.6 550.2 63.6 Z M 563.9 74 C 563.9 74 563.94 72.37 563.9 72.4 C 563.3 73.5 562.1 74.3 560.9 74.3 C 558.3 74.3 556.7 71.9 556.7 68.2 C 556.7 64.6 558.3 62.1 560.9 62.1 C 562.1 62.1 563.2 62.8 563.9 64.1 C 563.94 64.11 563.9 58 563.9 58 L 565.7 58 L 565.7 74 L 563.9 74 Z M 563.9 70.9 C 563.9 70.9 563.9 65.6 563.9 65.6 C 563.5 64.6 562.4 63.7 561.3 63.7 C 559.4 63.7 558.5 65.7 558.5 68.2 C 558.5 70.7 559.4 72.8 561.3 72.8 C 562.4 72.8 563.5 71.9 563.9 70.9 Z M 567.7 78.1 C 569 75.1 569.7 72.2 569.7 68.2 C 569.7 64.2 569 61.3 567.7 58.2 C 567.7 58.2 568.8 57.6 568.8 57.6 C 570.6 60.7 571.6 64.3 571.6 68.2 C 571.6 72.1 570.6 75.7 568.8 78.8 C 568.8 78.8 567.7 78.1 567.7 78.1 Z " stroke="none" fill="#7c7979"/>  </g>  <g id="Polygon145140">    <path d="M 78.3 41.9 C 78.3 41.9 79.6 40 79.6 40 C 80.7 41.3 82.3 42.3 84.3 42.3 C 86.8 42.3 87.9 40.7 87.9 39 C 87.9 34.1 78.9 35.4 78.9 28.9 C 78.9 25.9 81.3 23.7 84.6 23.7 C 86.9 23.7 88.7 24.4 90 25.8 C 90 25.8 88.7 27.6 88.7 27.6 C 87.6 26.4 86.2 25.8 84.6 25.8 C 82.8 25.8 81.3 27 81.3 28.8 C 81.3 33 90.4 32.1 90.4 38.8 C 90.4 41.8 88.4 44.4 84.3 44.4 C 81.7 44.4 79.7 43.4 78.3 41.9 Z M 93.5 41.1 C 93.52 41.12 93.5 31.4 93.5 31.4 L 91.6 31.4 L 91.6 29.5 L 93.5 29.5 L 93.5 25.6 L 95.7 25.6 L 95.7 29.5 L 98.1 29.5 L 98.1 31.4 L 95.7 31.4 C 95.7 31.4 95.68 40.73 95.7 40.7 C 95.7 41.8 96 42.5 96.9 42.5 C 97.4 42.5 97.8 42.2 98.1 41.9 C 98.1 41.9 98.8 43.5 98.8 43.5 C 98.3 44 97.5 44.4 96.4 44.4 C 94.5 44.4 93.5 43.3 93.5 41.1 Z M 100.3 36.8 C 100.3 32.6 102.5 29.2 106.2 29.2 C 110 29.2 111.9 32.6 111.9 36.8 C 111.88 36.83 111.9 37.5 111.9 37.5 C 111.9 37.5 102.49 37.49 102.5 37.5 C 102.6 40.4 104.1 42.6 106.7 42.6 C 107.9 42.6 109.2 42 110.1 40.8 C 110.1 40.8 111.3 42.1 111.3 42.1 C 110.1 43.5 108.4 44.4 106.5 44.4 C 102.6 44.4 100.3 41.2 100.3 36.8 Z M 106.1 31 C 103.6 31 102.6 33.8 102.5 35.9 C 102.5 35.9 109.8 35.9 109.8 35.9 C 109.7 33.7 108.8 31 106.1 31 Z M 122.5 44 C 122.5 44 122.47 42.47 122.5 42.5 C 121.5 43.8 120.1 44.4 118.7 44.4 C 116.3 44.4 114.3 42.6 114.3 39.6 C 114.3 36.5 116.3 34.8 118.7 34.8 C 120.1 34.8 121.6 35.4 122.5 36.6 C 122.5 36.6 122.5 34.1 122.5 34.1 C 122.5 32.1 121.4 31 119.5 31 C 118.2 31 117 31.5 115.9 32.8 C 115.9 32.8 114.9 31.3 114.9 31.3 C 116.3 29.8 118 29.2 119.8 29.2 C 122.7 29.2 124.6 30.6 124.6 33.9 C 124.63 33.89 124.6 44 124.6 44 L 122.5 44 Z M 122.5 41 C 122.5 41 122.5 38.2 122.5 38.2 C 121.8 37 120.6 36.4 119.4 36.4 C 117.6 36.4 116.5 37.8 116.5 39.6 C 116.5 41.4 117.6 42.8 119.4 42.8 C 120.6 42.8 121.8 42.2 122.5 41 Z M 136.7 44 L 132.7 37.5 L 130.7 40.1 L 130.7 44 L 128.6 44 L 128.6 24 L 130.7 24 L 130.7 37.4 L 136.7 29.5 L 139.3 29.5 L 134.2 36 L 139.3 44 L 136.7 44 Z M 142.5 47.8 C 142.5 47.8 141.4 46.9 141.4 46.9 C 142.4 46.3 143.2 45.1 143.4 44.1 C 143.3 44.1 143.1 44.2 143 44.2 C 142.2 44.2 141.6 43.5 141.6 42.7 C 141.6 41.8 142.2 41.1 143.1 41.1 C 144.1 41.1 144.9 41.9 144.9 43.4 C 144.9 45.2 143.9 46.8 142.5 47.8 Z M 160.4 42.5 C 162.8 42.5 163.9 39.9 163.9 36.8 C 163.9 33.6 162.8 31.1 160.4 31.1 C 159 31.1 157.7 32.2 157.1 33.5 C 157.1 33.5 157.1 40.1 157.1 40.1 C 157.7 41.4 159 42.5 160.4 42.5 Z M 155 44 L 155 24 L 157.1 24 C 157.1 24 157.12 31.64 157.1 31.6 C 158 30 159.5 29.2 160.9 29.2 C 164.2 29.2 166.1 32.3 166.1 36.8 C 166.1 41.4 164.2 44.4 160.9 44.4 C 159.4 44.4 158 43.4 157.1 42 C 157.12 41.96 157.1 44 157.1 44 L 155 44 Z M 176.8 44 C 176.8 44 176.83 42.47 176.8 42.5 C 175.9 43.8 174.5 44.4 173 44.4 C 170.7 44.4 168.6 42.6 168.6 39.6 C 168.6 36.5 170.7 34.8 173 34.8 C 174.5 34.8 175.9 35.4 176.8 36.6 C 176.8 36.6 176.8 34.1 176.8 34.1 C 176.8 32.1 175.8 31 173.9 31 C 172.5 31 171.3 31.5 170.2 32.8 C 170.2 32.8 169.3 31.3 169.3 31.3 C 170.7 29.8 172.4 29.2 174.2 29.2 C 177.1 29.2 179 30.6 179 33.9 C 178.99 33.89 179 44 179 44 L 176.8 44 Z M 176.8 41 C 176.8 41 176.8 38.2 176.8 38.2 C 176.2 37 175 36.4 173.7 36.4 C 171.9 36.4 170.8 37.8 170.8 39.6 C 170.8 41.4 171.9 42.8 173.7 42.8 C 175 42.8 176.2 42.2 176.8 41 Z M 191.1 44 L 187.1 37.5 L 185.1 40.1 L 185.1 44 L 182.9 44 L 182.9 24 L 185.1 24 L 185.1 37.4 L 191.1 29.5 L 193.6 29.5 L 188.6 36 L 193.6 44 L 191.1 44 Z M 195.2 36.8 C 195.2 32.6 197.4 29.2 201.1 29.2 C 204.9 29.2 206.8 32.6 206.8 36.8 C 206.83 36.83 206.8 37.5 206.8 37.5 C 206.8 37.5 197.44 37.49 197.4 37.5 C 197.5 40.4 199 42.6 201.6 42.6 C 202.9 42.6 204.2 42 205.1 40.8 C 205.1 40.8 206.2 42.1 206.2 42.1 C 205 43.5 203.4 44.4 201.4 44.4 C 197.6 44.4 195.2 41.2 195.2 36.8 Z M 201.1 31 C 198.5 31 197.5 33.8 197.4 35.9 C 197.4 35.9 204.7 35.9 204.7 35.9 C 204.7 33.7 203.7 31 201.1 31 Z M 218.3 44 C 218.3 44 218.26 41.96 218.3 42 C 217.4 43.4 216 44.4 214.5 44.4 C 211.2 44.4 209.3 41.4 209.3 36.8 C 209.3 32.3 211.2 29.2 214.5 29.2 C 215.9 29.2 217.4 30 218.3 31.6 C 218.26 31.64 218.3 24 218.3 24 L 220.4 24 L 220.4 44 L 218.3 44 Z M 218.3 40.1 C 218.3 40.1 218.3 33.5 218.3 33.5 C 217.7 32.2 216.4 31.1 215 31.1 C 212.6 31.1 211.5 33.6 211.5 36.8 C 211.5 39.9 212.6 42.5 215 42.5 C 216.4 42.5 217.7 41.4 218.3 40.1 Z M 233 41.9 C 232.96 41.93 233 49.5 233 49.5 L 230.8 49.5 L 230.8 29.5 L 233 29.5 C 233 29.5 232.96 31.61 233 31.6 C 233.8 30.1 235.2 29.2 236.8 29.2 C 240 29.2 242 32.2 242 36.8 C 242 41.3 240 44.4 236.8 44.4 C 235.3 44.4 233.9 43.5 233 41.9 Z M 239.7 36.8 C 239.7 33.6 238.6 31.1 236.2 31.1 C 234.9 31.1 233.5 32.2 233 33.4 C 233 33.4 233 40.1 233 40.1 C 233.5 41.3 234.9 42.5 236.2 42.5 C 238.6 42.5 239.7 39.9 239.7 36.8 Z M 244.4 36.8 C 244.4 32.7 246.5 29.2 250.3 29.2 C 254.2 29.2 256.2 32.7 256.2 36.8 C 256.2 40.8 254.2 44.4 250.3 44.4 C 246.5 44.4 244.4 40.8 244.4 36.8 Z M 254 36.8 C 254 33.9 252.9 31.1 250.3 31.1 C 247.8 31.1 246.7 33.9 246.7 36.8 C 246.7 39.7 247.8 42.5 250.3 42.5 C 252.9 42.5 254 39.7 254 36.8 Z M 259.9 41.1 C 259.9 41.12 259.9 31.4 259.9 31.4 L 258 31.4 L 258 29.5 L 259.9 29.5 L 259.9 25.6 L 262.1 25.6 L 262.1 29.5 L 264.5 29.5 L 264.5 31.4 L 262.1 31.4 C 262.1 31.4 262.06 40.73 262.1 40.7 C 262.1 41.8 262.4 42.5 263.2 42.5 C 263.8 42.5 264.2 42.2 264.5 41.9 C 264.5 41.9 265.1 43.5 265.1 43.5 C 264.6 44 263.9 44.4 262.8 44.4 C 260.8 44.4 259.9 43.3 259.9 41.1 Z M 274.8 44 C 274.8 44 274.81 42.47 274.8 42.5 C 273.9 43.8 272.5 44.4 271 44.4 C 268.7 44.4 266.6 42.6 266.6 39.6 C 266.6 36.5 268.6 34.8 271 34.8 C 272.5 34.8 273.9 35.4 274.8 36.6 C 274.8 36.6 274.8 34.1 274.8 34.1 C 274.8 32.1 273.7 31 271.8 31 C 270.5 31 269.3 31.5 268.2 32.8 C 268.2 32.8 267.2 31.3 267.2 31.3 C 268.6 29.8 270.3 29.2 272.2 29.2 C 275 29.2 277 30.6 277 33.9 C 276.97 33.89 277 44 277 44 L 274.8 44 Z M 274.8 41 C 274.8 41 274.8 38.2 274.8 38.2 C 274.1 37 272.9 36.4 271.7 36.4 C 269.9 36.4 268.8 37.8 268.8 39.6 C 268.8 41.4 269.9 42.8 271.7 42.8 C 272.9 42.8 274.1 42.2 274.8 41 Z M 281.3 41.1 C 281.32 41.12 281.3 31.4 281.3 31.4 L 279.4 31.4 L 279.4 29.5 L 281.3 29.5 L 281.3 25.6 L 283.5 25.6 L 283.5 29.5 L 285.9 29.5 L 285.9 31.4 L 283.5 31.4 C 283.5 31.4 283.48 40.73 283.5 40.7 C 283.5 41.8 283.8 42.5 284.6 42.5 C 285.2 42.5 285.6 42.2 285.9 41.9 C 285.9 41.9 286.6 43.5 286.6 43.5 C 286.1 44 285.3 44.4 284.2 44.4 C 282.2 44.4 281.3 43.3 281.3 41.1 Z M 288.1 36.8 C 288.1 32.7 290.1 29.2 293.9 29.2 C 297.8 29.2 299.9 32.7 299.9 36.8 C 299.9 40.8 297.8 44.4 293.9 44.4 C 290.1 44.4 288.1 40.8 288.1 36.8 Z M 297.6 36.8 C 297.6 33.9 296.5 31.1 293.9 31.1 C 291.5 31.1 290.3 33.9 290.3 36.8 C 290.3 39.7 291.5 42.5 293.9 42.5 C 296.5 42.5 297.6 39.7 297.6 36.8 Z M 302.4 36.8 C 302.4 32.6 304.6 29.2 308.3 29.2 C 312.1 29.2 314 32.6 314 36.8 C 313.99 36.83 314 37.5 314 37.5 C 314 37.5 304.6 37.49 304.6 37.5 C 304.7 40.4 306.2 42.6 308.8 42.6 C 310 42.6 311.3 42 312.2 40.8 C 312.2 40.8 313.4 42.1 313.4 42.1 C 312.2 43.5 310.5 44.4 308.6 44.4 C 304.7 44.4 302.4 41.2 302.4 36.8 Z M 308.2 31 C 305.7 31 304.7 33.8 304.6 35.9 C 304.6 35.9 311.9 35.9 311.9 35.9 C 311.8 33.7 310.9 31 308.2 31 Z M 316 42.3 C 316 42.3 317 40.8 317 40.8 C 317.9 41.8 319.3 42.6 320.8 42.6 C 322.5 42.6 323.6 41.7 323.6 40.3 C 323.6 36.9 316.4 38.1 316.4 33.1 C 316.4 30.9 318.1 29.2 321 29.2 C 322.9 29.2 324.4 29.9 325.4 31 C 325.4 31 324.4 32.5 324.4 32.5 C 323.7 31.5 322.4 30.9 321 30.9 C 319.4 30.9 318.5 31.8 318.5 33 C 318.5 36.1 325.7 35 325.7 40.2 C 325.7 42.6 323.8 44.4 320.9 44.4 C 318.8 44.4 317.2 43.7 316 42.3 Z M 342.6 44 C 342.6 44 342.64 42.47 342.6 42.5 C 341.7 43.8 340.3 44.4 338.8 44.4 C 336.5 44.4 334.4 42.6 334.4 39.6 C 334.4 36.5 336.5 34.8 338.8 34.8 C 340.3 34.8 341.7 35.4 342.6 36.6 C 342.6 36.6 342.6 34.1 342.6 34.1 C 342.6 32.1 341.6 31 339.7 31 C 338.3 31 337.1 31.5 336 32.8 C 336 32.8 335.1 31.3 335.1 31.3 C 336.5 29.8 338.2 29.2 340 29.2 C 342.9 29.2 344.8 30.6 344.8 33.9 C 344.8 33.89 344.8 44 344.8 44 L 342.6 44 Z M 342.6 41 C 342.6 41 342.6 38.2 342.6 38.2 C 342 37 340.8 36.4 339.5 36.4 C 337.7 36.4 336.6 37.8 336.6 39.6 C 336.6 41.4 337.7 42.8 339.5 42.8 C 340.8 42.8 342 42.2 342.6 41 Z M 356.6 44 C 356.6 44 356.56 33.71 356.6 33.7 C 356.6 31.8 355.7 31.1 354.2 31.1 C 352.8 31.1 351.5 32.2 350.9 33.4 C 350.86 33.41 350.9 44 350.9 44 L 348.7 44 L 348.7 29.5 L 350.9 29.5 C 350.9 29.5 350.86 31.61 350.9 31.6 C 351.7 30.3 353.3 29.2 355.1 29.2 C 357.5 29.2 358.7 30.5 358.7 33.1 C 358.72 33.11 358.7 44 358.7 44 L 356.6 44 Z M 371 44 C 371 44 370.96 41.96 371 42 C 370.1 43.4 368.7 44.4 367.1 44.4 C 363.9 44.4 362 41.4 362 36.8 C 362 32.3 363.9 29.2 367.1 29.2 C 368.6 29.2 370.1 30 371 31.6 C 370.96 31.64 371 24 371 24 L 373.1 24 L 373.1 44 L 371 44 Z M 371 40.1 C 371 40.1 371 33.5 371 33.5 C 370.4 32.2 369.1 31.1 367.7 31.1 C 365.3 31.1 364.2 33.6 364.2 36.8 C 364.2 39.9 365.3 42.5 367.7 42.5 C 369.1 42.5 370.4 41.4 371 40.1 Z M 382.4 42.3 C 382.4 42.3 383.4 40.8 383.4 40.8 C 384.3 41.8 385.7 42.6 387.2 42.6 C 388.9 42.6 390 41.7 390 40.3 C 390 36.9 382.8 38.1 382.8 33.1 C 382.8 30.9 384.5 29.2 387.4 29.2 C 389.3 29.2 390.8 29.9 391.8 31 C 391.8 31 390.8 32.5 390.8 32.5 C 390.1 31.5 388.8 30.9 387.4 30.9 C 385.8 30.9 384.8 31.8 384.8 33 C 384.8 36.1 392.1 35 392.1 40.2 C 392.1 42.6 390.2 44.4 387.2 44.4 C 385.2 44.4 383.6 43.7 382.4 42.3 Z M 395.6 41.1 C 395.56 41.12 395.6 31.4 395.6 31.4 L 393.6 31.4 L 393.6 29.5 L 395.6 29.5 L 395.6 25.6 L 397.7 25.6 L 397.7 29.5 L 400.2 29.5 L 400.2 31.4 L 397.7 31.4 C 397.7 31.4 397.72 40.73 397.7 40.7 C 397.7 41.8 398 42.5 398.9 42.5 C 399.4 42.5 399.9 42.2 400.1 41.9 C 400.1 41.9 400.8 43.5 400.8 43.5 C 400.3 44 399.6 44.4 398.5 44.4 C 396.5 44.4 395.6 43.3 395.6 41.1 Z M 402.3 36.8 C 402.3 32.6 404.5 29.2 408.2 29.2 C 412 29.2 413.9 32.6 413.9 36.8 C 413.92 36.83 413.9 37.5 413.9 37.5 C 413.9 37.5 404.53 37.49 404.5 37.5 C 404.6 40.4 406.1 42.6 408.7 42.6 C 410 42.6 411.2 42 412.1 40.8 C 412.1 40.8 413.3 42.1 413.3 42.1 C 412.1 43.5 410.5 44.4 408.5 44.4 C 404.6 44.4 402.3 41.2 402.3 36.8 Z M 408.2 31 C 405.6 31 404.6 33.8 404.5 35.9 C 404.5 35.9 411.8 35.9 411.8 35.9 C 411.8 33.7 410.8 31 408.2 31 Z M 424.5 44 C 424.5 44 424.51 42.47 424.5 42.5 C 423.6 43.8 422.2 44.4 420.7 44.4 C 418.4 44.4 416.3 42.6 416.3 39.6 C 416.3 36.5 418.3 34.8 420.7 34.8 C 422.2 34.8 423.6 35.4 424.5 36.6 C 424.5 36.6 424.5 34.1 424.5 34.1 C 424.5 32.1 423.4 31 421.5 31 C 420.2 31 419 31.5 417.9 32.8 C 417.9 32.8 416.9 31.3 416.9 31.3 C 418.3 29.8 420 29.2 421.9 29.2 C 424.7 29.2 426.7 30.6 426.7 33.9 C 426.67 33.89 426.7 44 426.7 44 L 424.5 44 Z M 424.5 41 C 424.5 41 424.5 38.2 424.5 38.2 C 423.8 37 422.6 36.4 421.4 36.4 C 419.6 36.4 418.5 37.8 418.5 39.6 C 418.5 41.4 419.6 42.8 421.4 42.8 C 422.6 42.8 423.8 42.2 424.5 41 Z M 445.2 44 C 445.2 44 445.24 33.53 445.2 33.5 C 445.2 32 444.6 31.1 443.2 31.1 C 441.9 31.1 440.6 32.2 440.1 33.4 C 440.08 33.41 440.1 44 440.1 44 L 437.9 44 C 437.9 44 437.92 33.53 437.9 33.5 C 437.9 32 437.3 31.1 435.9 31.1 C 434.6 31.1 433.4 32.2 432.7 33.4 C 432.73 33.41 432.7 44 432.7 44 L 430.6 44 L 430.6 29.5 L 432.7 29.5 C 432.7 29.5 432.73 31.61 432.7 31.6 C 433.3 30.5 434.9 29.2 436.7 29.2 C 438.5 29.2 439.7 30.2 440 31.8 C 440.7 30.4 442.3 29.2 444 29.2 C 446.2 29.2 447.4 30.3 447.4 33 C 447.4 32.96 447.4 44 447.4 44 L 445.2 44 Z M 450.6 36.8 C 450.6 32.6 452.9 29.2 456.5 29.2 C 460.3 29.2 462.2 32.6 462.2 36.8 C 462.24 36.83 462.2 37.5 462.2 37.5 C 462.2 37.5 452.85 37.49 452.9 37.5 C 452.9 40.4 454.4 42.6 457 42.6 C 458.3 42.6 459.6 42 460.5 40.8 C 460.5 40.8 461.6 42.1 461.6 42.1 C 460.4 43.5 458.8 44.4 456.8 44.4 C 453 44.4 450.6 41.2 450.6 36.8 Z M 456.5 31 C 453.9 31 452.9 33.8 452.9 35.9 C 452.9 35.9 460.1 35.9 460.1 35.9 C 460.1 33.7 459.1 31 456.5 31 Z M 473.7 44 C 473.7 44 473.67 41.96 473.7 42 C 472.8 43.4 471.4 44.4 469.9 44.4 C 466.6 44.4 464.7 41.4 464.7 36.8 C 464.7 32.3 466.6 29.2 469.9 29.2 C 471.3 29.2 472.8 30 473.7 31.6 C 473.67 31.64 473.7 24 473.7 24 L 475.8 24 L 475.8 44 L 473.7 44 Z M 473.7 40.1 C 473.7 40.1 473.7 33.5 473.7 33.5 C 473.1 32.2 471.8 31.1 470.4 31.1 C 468 31.1 466.9 33.6 466.9 36.8 C 466.9 39.9 468 42.5 470.4 42.5 C 471.8 42.5 473.1 41.4 473.7 40.1 Z M 489.2 44 L 484.4 29.5 L 486.8 29.5 L 490.4 41.5 L 494 29.5 L 496.3 29.5 L 491.6 44 L 489.2 44 Z M 497.8 36.8 C 497.8 32.6 500 29.2 503.6 29.2 C 507.5 29.2 509.4 32.6 509.4 36.8 C 509.37 36.83 509.4 37.5 509.4 37.5 C 509.4 37.5 499.98 37.49 500 37.5 C 500.1 40.4 501.6 42.6 504.2 42.6 C 505.4 42.6 506.7 42 507.6 40.8 C 507.6 40.8 508.7 42.1 508.7 42.1 C 507.6 43.5 505.9 44.4 504 44.4 C 500.1 44.4 497.8 41.2 497.8 36.8 Z M 503.6 31 C 501.1 31 500 33.8 500 35.9 C 500 35.9 507.2 35.9 507.2 35.9 C 507.2 33.7 506.3 31 503.6 31 Z M 512.4 48.1 C 512.4 48.1 513.4 46.4 513.4 46.4 C 514.4 47.5 515.6 48.1 517.2 48.1 C 519.2 48.1 520.8 46.9 520.8 44.1 C 520.8 44.1 520.8 41.7 520.8 41.7 C 520 43.2 518.5 44.2 517 44.2 C 513.8 44.2 511.8 41.3 511.8 36.7 C 511.8 32.2 513.7 29.2 517 29.2 C 518.5 29.2 519.9 30 520.8 31.6 C 520.8 31.64 520.8 29.5 520.8 29.5 L 523 29.5 C 523 29.5 522.96 44 523 44 C 523 48.5 520.3 49.9 517.2 49.9 C 515.3 49.9 513.8 49.5 512.4 48.1 Z M 520.8 39.9 C 520.8 39.9 520.8 33.5 520.8 33.5 C 520.3 32.2 518.9 31.1 517.5 31.1 C 515.2 31.1 514.1 33.6 514.1 36.7 C 514.1 39.8 515.2 42.3 517.5 42.3 C 518.9 42.3 520.3 41.1 520.8 39.9 Z M 526.2 36.8 C 526.2 32.6 528.4 29.2 532.1 29.2 C 535.9 29.2 537.8 32.6 537.8 36.8 C 537.78 36.83 537.8 37.5 537.8 37.5 C 537.8 37.5 528.39 37.49 528.4 37.5 C 528.5 40.4 530 42.6 532.6 42.6 C 533.8 42.6 535.1 42 536 40.8 C 536 40.8 537.2 42.1 537.2 42.1 C 536 43.5 534.3 44.4 532.4 44.4 C 528.5 44.4 526.2 41.2 526.2 36.8 Z M 532 31 C 529.5 31 528.5 33.8 528.4 35.9 C 528.4 35.9 535.7 35.9 535.7 35.9 C 535.6 33.7 534.7 31 532 31 Z M 541.4 41.1 C 541.35 41.12 541.4 31.4 541.4 31.4 L 539.4 31.4 L 539.4 29.5 L 541.4 29.5 L 541.4 25.6 L 543.5 25.6 L 543.5 29.5 L 546 29.5 L 546 31.4 L 543.5 31.4 C 543.5 31.4 543.51 40.73 543.5 40.7 C 543.5 41.8 543.8 42.5 544.7 42.5 C 545.2 42.5 545.7 42.2 545.9 41.9 C 545.9 41.9 546.6 43.5 546.6 43.5 C 546.1 44 545.4 44.4 544.3 44.4 C 542.3 44.4 541.4 43.3 541.4 41.1 Z M 556.3 44 C 556.3 44 556.26 42.47 556.3 42.5 C 555.3 43.8 553.9 44.4 552.5 44.4 C 550.1 44.4 548.1 42.6 548.1 39.6 C 548.1 36.5 550.1 34.8 552.5 34.8 C 553.9 34.8 555.4 35.4 556.3 36.6 C 556.3 36.6 556.3 34.1 556.3 34.1 C 556.3 32.1 555.2 31 553.3 31 C 551.9 31 550.8 31.5 549.7 32.8 C 549.7 32.8 548.7 31.3 548.7 31.3 C 550.1 29.8 551.8 29.2 553.6 29.2 C 556.5 29.2 558.4 30.6 558.4 33.9 C 558.42 33.89 558.4 44 558.4 44 L 556.3 44 Z M 556.3 41 C 556.3 41 556.3 38.2 556.3 38.2 C 555.6 37 554.4 36.4 553.1 36.4 C 551.3 36.4 550.3 37.8 550.3 39.6 C 550.3 41.4 551.3 42.8 553.1 42.8 C 554.4 42.8 555.6 42.2 556.3 41 Z M 567.8 42.5 C 570.1 42.5 571.2 39.9 571.2 36.8 C 571.2 33.6 570.1 31.1 567.8 31.1 C 566.4 31.1 565.1 32.2 564.5 33.5 C 564.5 33.5 564.5 40.1 564.5 40.1 C 565.1 41.4 566.4 42.5 567.8 42.5 Z M 562.4 44 L 562.4 24 L 564.5 24 C 564.5 24 564.48 31.64 564.5 31.6 C 565.4 30 566.8 29.2 568.3 29.2 C 571.6 29.2 573.5 32.3 573.5 36.8 C 573.5 41.4 571.6 44.4 568.3 44.4 C 566.8 44.4 565.3 43.4 564.5 42 C 564.48 41.96 564.5 44 564.5 44 L 562.4 44 Z M 576.8 44 L 576.8 24 L 578.9 24 L 578.9 44 L 576.8 44 Z M 582.1 36.8 C 582.1 32.6 584.3 29.2 588 29.2 C 591.8 29.2 593.7 32.6 593.7 36.8 C 593.73 36.83 593.7 37.5 593.7 37.5 C 593.7 37.5 584.34 37.49 584.3 37.5 C 584.4 40.4 585.9 42.6 588.5 42.6 C 589.8 42.6 591.1 42 592 40.8 C 592 40.8 593.1 42.1 593.1 42.1 C 591.9 43.5 590.3 44.4 588.3 44.4 C 584.5 44.4 582.1 41.2 582.1 36.8 Z M 588 31 C 585.4 31 584.4 33.8 584.3 35.9 C 584.3 35.9 591.6 35.9 591.6 35.9 C 591.6 33.7 590.6 31 588 31 Z M 595.7 42.3 C 595.7 42.3 596.8 40.8 596.8 40.8 C 597.6 41.8 599 42.6 600.6 42.6 C 602.3 42.6 603.4 41.7 603.4 40.3 C 603.4 36.9 596.1 38.1 596.1 33.1 C 596.1 30.9 597.9 29.2 600.8 29.2 C 602.7 29.2 604.1 29.9 605.2 31 C 605.2 31 604.1 32.5 604.1 32.5 C 603.4 31.5 602.2 30.9 600.8 30.9 C 599.2 30.9 598.2 31.8 598.2 33 C 598.2 36.1 605.4 35 605.4 40.2 C 605.4 42.6 603.6 44.4 600.6 44.4 C 598.6 44.4 596.9 43.7 595.7 42.3 Z " stroke="none" fill="#a8a6a6"/>  </g></svg>