<?xml version="1.0" standalone="no"?><!DOCTYPE svg PUBLIC "-//W3C//DTD SVG 1.1//EN" "http://www.w3.org/Graphics/SVG/1.1/DTD/svg11.dtd"><svg xmlns="http://www.w3.org/2000/svg" version="1.1" width="140px" height="36px" viewBox="0 0 140 36">  <desc>LOAEL (mg kg)</desc>  <defs/>  <g id="Polygon224889">    <path d="M 3.4 19.9 L 3.4 3.9 L 6.6 3.9 L 6.6 17.1 L 12 17.1 L 12 19.9 L 3.4 19.9 Z M 12.8 12 C 12.8 7.2 15.3 3.7 19.5 3.7 C 23.7 3.7 26.1 7.2 26.1 12 C 26.1 16.7 23.7 20.2 19.5 20.2 C 15.3 20.2 12.8 16.7 12.8 12 Z M 22.9 12 C 22.9 8.9 21.7 6.5 19.5 6.5 C 17.3 6.5 16.1 8.9 16.1 12 C 16.1 15 17.3 17.4 19.5 17.4 C 21.7 17.4 22.9 15 22.9 12 Z M 36.3 19.9 L 35.5 17.1 L 30.6 17.1 L 29.9 19.9 L 26.4 19.9 L 31.1 3.9 L 35 3.9 L 39.8 19.9 L 36.3 19.9 Z M 33.1 7.3 L 31.3 14.3 L 34.9 14.3 L 33.1 7.3 Z M 41.1 19.9 L 41.1 3.9 L 50.3 3.9 L 50.3 6.8 L 44.4 6.8 L 44.4 10.4 L 50.1 10.4 L 50.1 13.2 L 44.4 13.2 L 44.4 17.1 L 50.3 17.1 L 50.3 19.9 L 41.1 19.9 Z M 52.7 19.9 L 52.7 3.9 L 55.9 3.9 L 55.9 17.1 L 61.3 17.1 L 61.3 19.9 L 52.7 19.9 Z M 71.1 24.7 C 69.1 21.8 67.9 18 67.9 14.1 C 67.9 10.2 69.1 6.5 71.1 3.5 C 71.1 3.5 73 4.7 73 4.7 C 71.8 7.6 71 10.5 71 14.1 C 71 17.8 71.8 20.6 73 23.5 C 73 23.5 71.1 24.7 71.1 24.7 Z M 87.2 19.9 C 87.2 19.9 87.19 12.14 87.2 12.1 C 87.2 11.2 86.8 10.6 85.9 10.6 C 85 10.6 84.2 11.4 83.9 12 C 83.87 12.05 83.9 19.9 83.9 19.9 L 81 19.9 C 81 19.9 80.99 12.14 81 12.1 C 81 11.2 80.6 10.6 79.7 10.6 C 78.8 10.6 78 11.4 77.7 12 C 77.68 12.05 77.7 19.9 77.7 19.9 L 74.8 19.9 L 74.8 8.4 L 77.7 8.4 C 77.7 8.4 77.68 9.86 77.7 9.9 C 78.1 9.1 79.5 8.1 80.9 8.1 C 82.4 8.1 83.4 8.8 83.8 10.1 C 84.3 9.1 85.7 8.1 87.1 8.1 C 88.9 8.1 90.1 9 90.1 11.1 C 90.07 11.14 90.1 19.9 90.1 19.9 L 87.2 19.9 Z M 92.5 23.2 C 92.5 23.2 93.7 21 93.7 21 C 94.5 21.8 95.5 22.2 96.7 22.2 C 98 22.2 99.3 21.5 99.3 19.5 C 99.3 19.5 99.3 18.1 99.3 18.1 C 98.5 19.2 97.5 19.8 96.3 19.8 C 93.8 19.8 92.1 17.8 92.1 14 C 92.1 10.2 93.7 8.1 96.3 8.1 C 97.5 8.1 98.6 8.6 99.3 9.8 C 99.26 9.82 99.3 8.4 99.3 8.4 L 102.1 8.4 C 102.1 8.4 102.14 19.34 102.1 19.3 C 102.1 23.6 99.4 24.6 96.8 24.6 C 95.1 24.6 93.7 24.2 92.5 23.2 Z M 99.3 16 C 99.3 16 99.3 12 99.3 12 C 98.9 11.2 98.1 10.6 97.3 10.6 C 95.8 10.6 95 12 95 14 C 95 16 95.8 17.3 97.3 17.3 C 98.1 17.3 98.9 16.7 99.3 16 Z M 103.5 20.4 L 108.1 3.5 L 110.1 3.5 L 105.5 20.4 L 103.5 20.4 Z M 117.9 19.9 L 115.5 15.4 L 114.3 17.1 L 114.3 19.9 L 111.4 19.9 L 111.4 3.9 L 114.3 3.9 L 114.3 13.6 L 117.8 8.4 L 121.2 8.4 L 117.5 13.6 L 121.3 19.9 L 117.9 19.9 Z M 122.3 23.2 C 122.3 23.2 123.5 21 123.5 21 C 124.3 21.8 125.3 22.2 126.5 22.2 C 127.8 22.2 129.1 21.5 129.1 19.5 C 129.1 19.5 129.1 18.1 129.1 18.1 C 128.3 19.2 127.3 19.8 126.1 19.8 C 123.6 19.8 121.9 17.8 121.9 14 C 121.9 10.2 123.5 8.1 126.1 8.1 C 127.3 8.1 128.4 8.6 129.1 9.8 C 129.07 9.82 129.1 8.4 129.1 8.4 L 131.9 8.4 C 131.9 8.4 131.95 19.34 131.9 19.3 C 131.9 23.6 129.2 24.6 126.6 24.6 C 124.9 24.6 123.5 24.2 122.3 23.2 Z M 129.1 16 C 129.1 16 129.1 12 129.1 12 C 128.7 11.2 127.9 10.6 127.1 10.6 C 125.6 10.6 124.8 12 124.8 14 C 124.8 16 125.6 17.3 127.1 17.3 C 127.9 17.3 128.7 16.7 129.1 16 Z M 133.7 23.5 C 135 20.6 135.7 17.8 135.7 14.1 C 135.7 10.5 135 7.6 133.7 4.7 C 133.7 4.7 135.7 3.5 135.7 3.5 C 137.7 6.5 138.9 10.2 138.9 14.1 C 138.9 18 137.7 21.8 135.7 24.7 C 135.7 24.7 133.7 23.5 133.7 23.5 Z " stroke="none" fill="#c87766"/>  </g></svg>