<?xml version="1.0" standalone="no"?><!DOCTYPE svg PUBLIC "-//W3C//DTD SVG 1.1//EN" "http://www.w3.org/Graphics/SVG/1.1/DTD/svg11.dtd"><svg xmlns="http://www.w3.org/2000/svg" version="1.1" width="486px" height="178.4px" viewBox="0 0 486 178.4">  <desc>A unique dish that made use of an animal part most people back then did not usually appreciate</desc>  <defs/>  <g id="Polygon142572">    <path d="M 5.2 115.7 C 5.18 115.72 5.2 102.8 5.2 102.8 L 2.6 102.8 L 2.6 100.3 L 5.2 100.3 L 5.2 95 L 8.1 95 L 8.1 100.3 L 11.3 100.3 L 11.3 102.8 L 8.1 102.8 C 8.1 102.8 8.06 115.2 8.1 115.2 C 8.1 116.7 8.5 117.5 9.6 117.5 C 10.3 117.5 10.9 117.2 11.3 116.8 C 11.3 116.8 12.2 118.9 12.2 118.9 C 11.5 119.6 10.5 120.1 9.1 120.1 C 6.4 120.1 5.2 118.6 5.2 115.7 Z M 25.6 119.6 C 25.6 119.6 25.62 105.8 25.6 105.8 C 25.6 103.2 24.4 102.4 22.5 102.4 C 20.6 102.4 18.9 103.8 18 105.4 C 17.98 105.44 18 119.6 18 119.6 L 15.1 119.6 L 15.1 92.9 L 18 92.9 C 18 92.9 17.98 103.04 18 103 C 19.1 101.4 21.3 99.8 23.6 99.8 C 26.9 99.8 28.5 101.4 28.5 105 C 28.46 104.96 28.5 119.6 28.5 119.6 L 25.6 119.6 Z M 32.8 109.9 C 32.8 104.3 35.7 99.8 40.6 99.8 C 45.7 99.8 48.3 104.4 48.3 110 C 48.26 110 48.3 110.9 48.3 110.9 C 48.3 110.9 35.74 110.88 35.7 110.9 C 35.9 114.8 37.9 117.7 41.3 117.7 C 43 117.7 44.7 116.8 45.9 115.3 C 45.9 115.3 47.4 117 47.4 117 C 45.9 118.9 43.7 120.1 41.1 120.1 C 35.9 120.1 32.8 115.8 32.8 109.9 Z M 40.6 102.2 C 37.2 102.2 35.8 105.9 35.7 108.8 C 35.7 108.8 45.4 108.8 45.4 108.8 C 45.4 105.8 44.1 102.2 40.6 102.2 Z M 62.9 119.6 C 62.9 119.6 62.9 105.84 62.9 105.8 C 62.9 103.3 61.7 102.4 59.8 102.4 C 57.9 102.4 56.2 103.8 55.3 105.4 C 55.3 105.44 55.3 119.6 55.3 119.6 L 52.5 119.6 L 52.5 100.3 L 55.3 100.3 C 55.3 100.3 55.3 103.04 55.3 103 C 56.4 101.4 58.6 99.8 60.9 99.8 C 64.2 99.8 65.8 101.6 65.8 105 C 65.78 105.04 65.8 119.6 65.8 119.6 L 62.9 119.6 Z M 90.7 119.6 C 90.7 119.6 90.7 116.84 90.7 116.8 C 89.6 118.8 87.7 120.1 85.6 120.1 C 81.3 120.1 78.7 116 78.7 110 C 78.7 104 81.3 99.8 85.6 99.8 C 87.6 99.8 89.5 100.9 90.7 103.1 C 90.7 103.08 90.7 92.9 90.7 92.9 L 93.6 92.9 L 93.6 119.6 L 90.7 119.6 Z M 90.7 114.4 C 90.7 114.4 90.7 105.5 90.7 105.5 C 90 103.8 88.2 102.4 86.3 102.4 C 83.2 102.4 81.7 105.8 81.7 110 C 81.7 114.1 83.2 117.5 86.3 117.5 C 88.2 117.5 90 116.1 90.7 114.4 Z M 98.3 95.5 C 98.3 94.4 99.2 93.6 100.3 93.6 C 101.3 93.6 102.2 94.4 102.2 95.5 C 102.2 96.6 101.3 97.5 100.3 97.5 C 99.2 97.5 98.3 96.6 98.3 95.5 Z M 98.9 119.6 L 98.9 100.3 L 101.7 100.3 L 101.7 119.6 L 98.9 119.6 Z M 118 119.6 C 118 119.6 118.02 116.84 118 116.8 C 116.9 118.8 115 120.1 112.9 120.1 C 108.6 120.1 106 116 106 110 C 106 104 108.6 99.8 112.9 99.8 C 114.9 99.8 116.9 100.9 118 103.1 C 118.02 103.08 118 92.9 118 92.9 L 120.9 92.9 L 120.9 119.6 L 118 119.6 Z M 118 114.4 C 118 114.4 118 105.5 118 105.5 C 117.3 103.8 115.5 102.4 113.7 102.4 C 110.5 102.4 109 105.8 109 110 C 109 114.1 110.5 117.5 113.7 117.5 C 115.5 117.5 117.3 116.1 118 114.4 Z M 145.2 119.6 C 145.2 119.6 145.22 105.84 145.2 105.8 C 145.2 103.3 144.1 102.4 142.1 102.4 C 140.3 102.4 138.5 103.8 137.6 105.4 C 137.62 105.44 137.6 119.6 137.6 119.6 L 134.8 119.6 L 134.8 100.3 L 137.6 100.3 C 137.6 100.3 137.62 103.04 137.6 103 C 138.7 101.4 140.9 99.8 143.2 99.8 C 146.5 99.8 148.1 101.6 148.1 105 C 148.1 105.04 148.1 119.6 148.1 119.6 L 145.2 119.6 Z M 152.4 109.9 C 152.4 104.5 155.1 99.8 160.3 99.8 C 165.5 99.8 168.1 104.5 168.1 109.9 C 168.1 115.4 165.5 120.1 160.3 120.1 C 155.1 120.1 152.4 115.4 152.4 109.9 Z M 165.1 109.9 C 165.1 106 163.7 102.4 160.3 102.4 C 156.9 102.4 155.4 106 155.4 109.9 C 155.4 113.8 156.9 117.5 160.3 117.5 C 163.7 117.5 165.1 113.8 165.1 109.9 Z M 173 115.7 C 173.02 115.72 173 102.8 173 102.8 L 170.5 102.8 L 170.5 100.3 L 173 100.3 L 173 95 L 175.9 95 L 175.9 100.3 L 179.2 100.3 L 179.2 102.8 L 175.9 102.8 C 175.9 102.8 175.9 115.2 175.9 115.2 C 175.9 116.7 176.3 117.5 177.5 117.5 C 178.2 117.5 178.8 117.2 179.1 116.8 C 179.1 116.8 180 118.9 180 118.9 C 179.3 119.6 178.4 120.1 176.9 120.1 C 174.3 120.1 173 118.6 173 115.7 Z M 202 119.6 C 202 119.6 202.02 116.92 202 116.9 C 200.9 118.6 198.8 120.1 196.4 120.1 C 193.1 120.1 191.6 118.4 191.6 114.9 C 191.58 114.92 191.6 100.3 191.6 100.3 L 194.4 100.3 C 194.4 100.3 194.42 114.08 194.4 114.1 C 194.4 116.6 195.6 117.5 197.5 117.5 C 199.4 117.5 201.2 116.1 202 114.5 C 202.02 114.52 202 100.3 202 100.3 L 204.9 100.3 L 204.9 119.6 L 202 119.6 Z M 208.6 117.4 C 208.6 117.4 210.1 115.3 210.1 115.3 C 211.2 116.7 213 117.8 215.1 117.8 C 217.3 117.8 218.8 116.5 218.8 114.6 C 218.8 110.1 209.2 111.7 209.2 105 C 209.2 102.1 211.5 99.8 215.3 99.8 C 217.9 99.8 219.9 100.8 221.2 102.3 C 221.2 102.3 219.9 104.2 219.9 104.2 C 218.9 103 217.3 102.1 215.4 102.1 C 213.3 102.1 211.9 103.4 211.9 104.9 C 211.9 109 221.6 107.6 221.6 114.6 C 221.6 117.8 219.1 120.1 215.1 120.1 C 212.4 120.1 210.2 119.2 208.6 117.4 Z M 236.1 119.6 C 236.1 119.6 236.1 116.92 236.1 116.9 C 234.9 118.6 232.9 120.1 230.5 120.1 C 227.2 120.1 225.7 118.4 225.7 114.9 C 225.66 114.92 225.7 100.3 225.7 100.3 L 228.5 100.3 C 228.5 100.3 228.5 114.08 228.5 114.1 C 228.5 116.6 229.7 117.5 231.6 117.5 C 233.5 117.5 235.3 116.1 236.1 114.5 C 236.1 114.52 236.1 100.3 236.1 100.3 L 239 100.3 L 239 119.6 L 236.1 119.6 Z M 254.2 119.6 C 254.2 119.6 254.18 117.52 254.2 117.5 C 252.9 119.3 251.1 120.1 249.1 120.1 C 246 120.1 243.3 117.7 243.3 113.6 C 243.3 109.6 245.9 107.3 249.1 107.3 C 251.1 107.3 253 108 254.2 109.8 C 254.2 109.8 254.2 106.4 254.2 106.4 C 254.2 103.8 252.7 102.3 250.2 102.3 C 248.4 102.3 246.9 103 245.4 104.6 C 245.4 104.6 244.1 102.6 244.1 102.6 C 245.9 100.7 248.2 99.8 250.7 99.8 C 254.5 99.8 257.1 101.7 257.1 106.1 C 257.06 106.08 257.1 119.6 257.1 119.6 L 254.2 119.6 Z M 254.2 115.6 C 254.2 115.6 254.2 111.9 254.2 111.9 C 253.3 110.2 251.7 109.4 250 109.4 C 247.6 109.4 246.2 111.3 246.2 113.7 C 246.2 116.1 247.6 118 250 118 C 251.7 118 253.3 117.2 254.2 115.6 Z M 262.3 119.6 L 262.3 92.9 L 265.1 92.9 L 265.1 119.6 L 262.3 119.6 Z M 270.4 119.6 L 270.4 92.9 L 273.3 92.9 L 273.3 119.6 L 270.4 119.6 Z M 278 124.6 C 278.3 124.8 278.9 124.9 279.3 124.9 C 280.4 124.9 281 124.4 281.5 123 C 281.54 122.96 282.6 120 282.6 120 L 276.1 100.3 L 279.3 100.3 L 284.1 116.1 L 288.9 100.3 L 292 100.3 C 292 100.3 284.26 123.68 284.3 123.7 C 283.3 126.5 281.7 127.4 279.5 127.4 C 278.9 127.4 278 127.3 277.5 127.2 C 277.5 127.2 278 124.6 278 124.6 Z M 313.4 119.6 C 313.4 119.6 313.38 117.52 313.4 117.5 C 312.1 119.3 310.3 120.1 308.3 120.1 C 305.2 120.1 302.5 117.7 302.5 113.6 C 302.5 109.6 305.1 107.3 308.3 107.3 C 310.3 107.3 312.2 108 313.4 109.8 C 313.4 109.8 313.4 106.4 313.4 106.4 C 313.4 103.8 311.9 102.3 309.4 102.3 C 307.6 102.3 306.1 103 304.6 104.6 C 304.6 104.6 303.3 102.6 303.3 102.6 C 305.1 100.7 307.4 99.8 309.9 99.8 C 313.7 99.8 316.3 101.7 316.3 106.1 C 316.26 106.08 316.3 119.6 316.3 119.6 L 313.4 119.6 Z M 313.4 115.6 C 313.4 115.6 313.4 111.9 313.4 111.9 C 312.5 110.2 310.9 109.4 309.2 109.4 C 306.8 109.4 305.4 111.3 305.4 113.7 C 305.4 116.1 306.8 118 309.2 118 C 310.9 118 312.5 117.2 313.4 115.6 Z M 324.3 116.8 C 324.34 116.8 324.3 127 324.3 127 L 321.5 127 L 321.5 100.3 L 324.3 100.3 C 324.3 100.3 324.34 103.04 324.3 103 C 325.5 101.1 327.4 99.8 329.4 99.8 C 333.8 99.8 336.3 103.8 336.3 109.9 C 336.3 116 333.8 120.1 329.4 120.1 C 327.5 120.1 325.5 119 324.3 116.8 Z M 333.3 109.9 C 333.3 105.8 331.9 102.4 328.7 102.4 C 326.9 102.4 325.1 103.8 324.3 105.5 C 324.3 105.5 324.3 114.3 324.3 114.3 C 325.1 116 326.9 117.5 328.7 117.5 C 331.9 117.5 333.3 114.1 333.3 109.9 Z M 343.5 116.8 C 343.46 116.8 343.5 127 343.5 127 L 340.6 127 L 340.6 100.3 L 343.5 100.3 C 343.5 100.3 343.46 103.04 343.5 103 C 344.6 101.1 346.5 99.8 348.5 99.8 C 352.9 99.8 355.5 103.8 355.5 109.9 C 355.5 116 352.9 120.1 348.5 120.1 C 346.6 120.1 344.7 119 343.5 116.8 Z M 352.5 109.9 C 352.5 105.8 351 102.4 347.8 102.4 C 346 102.4 344.2 103.8 343.5 105.5 C 343.5 105.5 343.5 114.3 343.5 114.3 C 344.2 116 346 117.5 347.8 117.5 C 351 117.5 352.5 114.1 352.5 109.9 Z M 359.7 119.6 L 359.7 100.3 L 362.6 100.3 C 362.6 100.3 362.58 103.36 362.6 103.4 C 363.8 101.3 365.7 99.9 368.1 99.9 C 368.1 99.9 368.1 102.8 368.1 102.8 C 367.7 102.8 367.4 102.7 367.1 102.7 C 365.3 102.7 363.4 104.3 362.6 105.9 C 362.58 105.88 362.6 119.6 362.6 119.6 L 359.7 119.6 Z M 370.4 109.9 C 370.4 104.3 373.4 99.8 378.3 99.8 C 383.3 99.8 385.9 104.4 385.9 110 C 385.9 110 385.9 110.9 385.9 110.9 C 385.9 110.9 373.38 110.88 373.4 110.9 C 373.5 114.8 375.5 117.7 378.9 117.7 C 380.6 117.7 382.3 116.8 383.5 115.3 C 383.5 115.3 385.1 117 385.1 117 C 383.5 118.9 381.3 120.1 378.7 120.1 C 373.5 120.1 370.4 115.8 370.4 109.9 Z M 378.2 102.2 C 374.8 102.2 373.5 105.9 373.4 108.8 C 373.4 108.8 383.1 108.8 383.1 108.8 C 383 105.8 381.7 102.2 378.2 102.2 Z M 389.1 109.9 C 389.1 104.2 392.2 99.8 397.1 99.8 C 399.8 99.8 401.5 100.9 402.7 102.4 C 402.7 102.4 401.1 104.3 401.1 104.3 C 400.1 102.9 398.9 102.4 397.4 102.4 C 393.9 102.4 392.1 105.8 392.1 109.9 C 392.1 114 393.9 117.5 397.4 117.5 C 398.9 117.5 400.1 116.9 401.1 115.6 C 401.1 115.6 402.7 117.5 402.7 117.5 C 401.5 119 399.8 120.1 397.1 120.1 C 392.2 120.1 389.1 115.6 389.1 109.9 Z M 405.8 95.5 C 405.8 94.4 406.7 93.6 407.7 93.6 C 408.8 93.6 409.7 94.4 409.7 95.5 C 409.7 96.6 408.8 97.5 407.7 97.5 C 406.7 97.5 405.8 96.6 405.8 95.5 Z M 406.3 119.6 L 406.3 100.3 L 409.2 100.3 L 409.2 119.6 L 406.3 119.6 Z M 424.4 119.6 C 424.4 119.6 424.38 117.52 424.4 117.5 C 423.1 119.3 421.3 120.1 419.3 120.1 C 416.2 120.1 413.5 117.7 413.5 113.6 C 413.5 109.6 416.1 107.3 419.3 107.3 C 421.3 107.3 423.2 108 424.4 109.8 C 424.4 109.8 424.4 106.4 424.4 106.4 C 424.4 103.8 422.9 102.3 420.4 102.3 C 418.6 102.3 417.1 103 415.6 104.6 C 415.6 104.6 414.3 102.6 414.3 102.6 C 416.1 100.7 418.4 99.8 420.9 99.8 C 424.7 99.8 427.3 101.7 427.3 106.1 C 427.26 106.08 427.3 119.6 427.3 119.6 L 424.4 119.6 Z M 424.4 115.6 C 424.4 115.6 424.4 111.9 424.4 111.9 C 423.5 110.2 421.9 109.4 420.2 109.4 C 417.8 109.4 416.4 111.3 416.4 113.7 C 416.4 116.1 417.8 118 420.2 118 C 421.9 118 423.5 117.2 424.4 115.6 Z M 433.1 115.7 C 433.05 115.72 433.1 102.8 433.1 102.8 L 430.5 102.8 L 430.5 100.3 L 433.1 100.3 L 433.1 95 L 435.9 95 L 435.9 100.3 L 439.2 100.3 L 439.2 102.8 L 435.9 102.8 C 435.9 102.8 435.93 115.2 435.9 115.2 C 435.9 116.7 436.4 117.5 437.5 117.5 C 438.2 117.5 438.8 117.2 439.2 116.8 C 439.2 116.8 440.1 118.9 440.1 118.9 C 439.4 119.6 438.4 120.1 436.9 120.1 C 434.3 120.1 433.1 118.6 433.1 115.7 Z M 442.1 109.9 C 442.1 104.3 445 99.8 449.9 99.8 C 455 99.8 457.5 104.4 457.5 110 C 457.53 110 457.5 110.9 457.5 110.9 C 457.5 110.9 445.01 110.88 445 110.9 C 445.1 114.8 447.1 117.7 450.6 117.7 C 452.3 117.7 454 116.8 455.2 115.3 C 455.2 115.3 456.7 117 456.7 117 C 455.1 118.9 452.9 120.1 450.3 120.1 C 445.2 120.1 442.1 115.8 442.1 109.9 Z M 449.9 102.2 C 446.5 102.2 445.1 105.9 445 108.8 C 445 108.8 454.7 108.8 454.7 108.8 C 454.7 105.8 453.4 102.2 449.9 102.2 Z M 461.4 117.8 C 461.4 116.7 462.3 115.7 463.5 115.7 C 464.7 115.7 465.7 116.7 465.7 117.8 C 465.7 119 464.7 120 463.5 120 C 462.3 120 461.4 119 461.4 117.8 Z " stroke="none" fill="#b13d24"/>  </g>  <g id="Polygon142571">    <path d="M 14.5 75.6 C 14.5 75.6 14.54 73.52 14.5 73.5 C 13.3 75.3 11.4 76.1 9.5 76.1 C 6.3 76.1 3.6 73.7 3.6 69.6 C 3.6 65.6 6.3 63.3 9.5 63.3 C 11.4 63.3 13.3 64 14.5 65.8 C 14.5 65.8 14.5 62.4 14.5 62.4 C 14.5 59.8 13.1 58.3 10.6 58.3 C 8.8 58.3 7.2 59 5.7 60.6 C 5.7 60.6 4.5 58.6 4.5 58.6 C 6.3 56.7 8.6 55.8 11 55.8 C 14.9 55.8 17.4 57.7 17.4 62.1 C 17.42 62.08 17.4 75.6 17.4 75.6 L 14.5 75.6 Z M 14.5 71.6 C 14.5 71.6 14.5 67.9 14.5 67.9 C 13.7 66.2 12.1 65.4 10.4 65.4 C 8 65.4 6.5 67.3 6.5 69.7 C 6.5 72.1 8 74 10.4 74 C 12.1 74 13.7 73.2 14.5 71.6 Z M 33.1 75.6 C 33.1 75.6 33.1 61.84 33.1 61.8 C 33.1 59.3 31.9 58.4 30 58.4 C 28.1 58.4 26.4 59.8 25.5 61.4 C 25.5 61.44 25.5 75.6 25.5 75.6 L 22.7 75.6 L 22.7 56.3 L 25.5 56.3 C 25.5 56.3 25.5 59.04 25.5 59 C 26.6 57.4 28.8 55.8 31.1 55.8 C 34.4 55.8 36 57.6 36 61 C 35.98 61.04 36 75.6 36 75.6 L 33.1 75.6 Z M 59.6 75.6 C 59.6 75.6 59.61 73.52 59.6 73.5 C 58.4 75.3 56.5 76.1 54.5 76.1 C 51.4 76.1 48.7 73.7 48.7 69.6 C 48.7 65.6 51.4 63.3 54.5 63.3 C 56.5 63.3 58.4 64 59.6 65.8 C 59.6 65.8 59.6 62.4 59.6 62.4 C 59.6 59.8 58.2 58.3 55.6 58.3 C 53.8 58.3 52.3 59 50.8 60.6 C 50.8 60.6 49.5 58.6 49.5 58.6 C 51.4 56.7 53.6 55.8 56.1 55.8 C 59.9 55.8 62.5 57.7 62.5 62.1 C 62.49 62.08 62.5 75.6 62.5 75.6 L 59.6 75.6 Z M 59.6 71.6 C 59.6 71.6 59.6 67.9 59.6 67.9 C 58.7 66.2 57.1 65.4 55.4 65.4 C 53 65.4 51.6 67.3 51.6 69.7 C 51.6 72.1 53 74 55.4 74 C 57.1 74 58.7 73.2 59.6 71.6 Z M 78.2 75.6 C 78.2 75.6 78.17 61.84 78.2 61.8 C 78.2 59.3 77 58.4 75.1 58.4 C 73.2 58.4 71.4 59.8 70.6 61.4 C 70.57 61.44 70.6 75.6 70.6 75.6 L 67.7 75.6 L 67.7 56.3 L 70.6 56.3 C 70.6 56.3 70.57 59.04 70.6 59 C 71.7 57.4 73.8 55.8 76.2 55.8 C 79.4 55.8 81 57.6 81 61 C 81.05 61.04 81 75.6 81 75.6 L 78.2 75.6 Z M 85.8 51.5 C 85.8 50.4 86.7 49.6 87.7 49.6 C 88.8 49.6 89.7 50.4 89.7 51.5 C 89.7 52.6 88.8 53.5 87.7 53.5 C 86.7 53.5 85.8 52.6 85.8 51.5 Z M 86.3 75.6 L 86.3 56.3 L 89.2 56.3 L 89.2 75.6 L 86.3 75.6 Z M 114 75.6 C 114 75.6 113.97 61.6 114 61.6 C 114 59.5 113.1 58.4 111.3 58.4 C 109.6 58.4 107.8 59.9 107.1 61.4 C 107.09 61.44 107.1 75.6 107.1 75.6 L 104.2 75.6 C 104.2 75.6 104.21 61.6 104.2 61.6 C 104.2 59.5 103.4 58.4 101.5 58.4 C 99.8 58.4 98.1 59.9 97.3 61.4 C 97.29 61.44 97.3 75.6 97.3 75.6 L 94.4 75.6 L 94.4 56.3 L 97.3 56.3 C 97.3 56.3 97.29 59.04 97.3 59 C 98.1 57.6 100.2 55.8 102.6 55.8 C 105 55.8 106.6 57.2 106.9 59.2 C 107.9 57.5 110 55.8 112.4 55.8 C 115.2 55.8 116.8 57.4 116.8 60.8 C 116.85 60.84 116.8 75.6 116.8 75.6 L 114 75.6 Z M 132 75.6 C 132 75.6 132.05 73.52 132 73.5 C 130.8 75.3 128.9 76.1 127 76.1 C 123.8 76.1 121.1 73.7 121.1 69.6 C 121.1 65.6 123.8 63.3 127 63.3 C 128.9 63.3 130.8 64 132 65.8 C 132 65.8 132 62.4 132 62.4 C 132 59.8 130.6 58.3 128.1 58.3 C 126.3 58.3 124.7 59 123.2 60.6 C 123.2 60.6 122 58.6 122 58.6 C 123.8 56.7 126.1 55.8 128.5 55.8 C 132.4 55.8 134.9 57.7 134.9 62.1 C 134.93 62.08 134.9 75.6 134.9 75.6 L 132 75.6 Z M 132 71.6 C 132 71.6 132 67.9 132 67.9 C 131.2 66.2 129.6 65.4 127.9 65.4 C 125.5 65.4 124 67.3 124 69.7 C 124 72.1 125.5 74 127.9 74 C 129.6 74 131.2 73.2 132 71.6 Z M 140.2 75.6 L 140.2 48.9 L 143 48.9 L 143 75.6 L 140.2 75.6 Z M 159.5 72.8 C 159.55 72.8 159.5 83 159.5 83 L 156.7 83 L 156.7 56.3 L 159.5 56.3 C 159.5 56.3 159.55 59.04 159.5 59 C 160.7 57.1 162.6 55.8 164.6 55.8 C 169 55.8 171.5 59.8 171.5 65.9 C 171.5 72 169 76.1 164.6 76.1 C 162.7 76.1 160.7 75 159.5 72.8 Z M 168.5 65.9 C 168.5 61.8 167.1 58.4 163.9 58.4 C 162.1 58.4 160.3 59.8 159.5 61.5 C 159.5 61.5 159.5 70.3 159.5 70.3 C 160.3 72 162.1 73.5 163.9 73.5 C 167.1 73.5 168.5 70.1 168.5 65.9 Z M 185.7 75.6 C 185.7 75.6 185.75 73.52 185.7 73.5 C 184.5 75.3 182.6 76.1 180.7 76.1 C 177.5 76.1 174.8 73.7 174.8 69.6 C 174.8 65.6 177.5 63.3 180.7 63.3 C 182.6 63.3 184.5 64 185.7 65.8 C 185.7 65.8 185.7 62.4 185.7 62.4 C 185.7 59.8 184.3 58.3 181.8 58.3 C 180 58.3 178.4 59 176.9 60.6 C 176.9 60.6 175.7 58.6 175.7 58.6 C 177.5 56.7 179.8 55.8 182.2 55.8 C 186.1 55.8 188.6 57.7 188.6 62.1 C 188.63 62.08 188.6 75.6 188.6 75.6 L 185.7 75.6 Z M 185.7 71.6 C 185.7 71.6 185.7 67.9 185.7 67.9 C 184.9 66.2 183.3 65.4 181.6 65.4 C 179.2 65.4 177.7 67.3 177.7 69.7 C 177.7 72.1 179.2 74 181.6 74 C 183.3 74 184.9 73.2 185.7 71.6 Z M 193.9 75.6 L 193.9 56.3 L 196.7 56.3 C 196.7 56.3 196.71 59.36 196.7 59.4 C 197.9 57.3 199.8 55.9 202.2 55.9 C 202.2 55.9 202.2 58.8 202.2 58.8 C 201.9 58.8 201.5 58.7 201.2 58.7 C 199.5 58.7 197.5 60.3 196.7 61.9 C 196.71 61.88 196.7 75.6 196.7 75.6 L 193.9 75.6 Z M 206.1 71.7 C 206.07 71.72 206.1 58.8 206.1 58.8 L 203.5 58.8 L 203.5 56.3 L 206.1 56.3 L 206.1 51 L 208.9 51 L 208.9 56.3 L 212.2 56.3 L 212.2 58.8 L 208.9 58.8 C 208.9 58.8 208.95 71.2 208.9 71.2 C 208.9 72.7 209.4 73.5 210.5 73.5 C 211.2 73.5 211.8 73.2 212.2 72.8 C 212.2 72.8 213.1 74.9 213.1 74.9 C 212.4 75.6 211.4 76.1 209.9 76.1 C 207.3 76.1 206.1 74.6 206.1 71.7 Z M 244 75.6 C 244 75.6 243.97 61.6 244 61.6 C 244 59.5 243.1 58.4 241.3 58.4 C 239.6 58.4 237.8 59.9 237.1 61.4 C 237.09 61.44 237.1 75.6 237.1 75.6 L 234.2 75.6 C 234.2 75.6 234.21 61.6 234.2 61.6 C 234.2 59.5 233.4 58.4 231.5 58.4 C 229.8 58.4 228.1 59.9 227.3 61.4 C 227.29 61.44 227.3 75.6 227.3 75.6 L 224.4 75.6 L 224.4 56.3 L 227.3 56.3 C 227.3 56.3 227.29 59.04 227.3 59 C 228.1 57.6 230.2 55.8 232.6 55.8 C 235 55.8 236.6 57.2 236.9 59.2 C 237.9 57.5 240 55.8 242.4 55.8 C 245.2 55.8 246.8 57.4 246.8 60.8 C 246.85 60.84 246.8 75.6 246.8 75.6 L 244 75.6 Z M 251.2 65.9 C 251.2 60.5 253.9 55.8 259 55.8 C 264.2 55.8 266.9 60.5 266.9 65.9 C 266.9 71.4 264.2 76.1 259 76.1 C 253.9 76.1 251.2 71.4 251.2 65.9 Z M 263.9 65.9 C 263.9 62 262.4 58.4 259 58.4 C 255.7 58.4 254.2 62 254.2 65.9 C 254.2 69.8 255.7 73.5 259 73.5 C 262.4 73.5 263.9 69.8 263.9 65.9 Z M 269.6 73.4 C 269.6 73.4 271.1 71.3 271.1 71.3 C 272.2 72.7 274 73.8 276.1 73.8 C 278.4 73.8 279.8 72.5 279.8 70.6 C 279.8 66.1 270.2 67.7 270.2 61 C 270.2 58.1 272.5 55.8 276.4 55.8 C 278.9 55.8 280.9 56.8 282.2 58.3 C 282.2 58.3 280.9 60.2 280.9 60.2 C 279.9 59 278.3 58.1 276.4 58.1 C 274.3 58.1 273 59.4 273 60.9 C 273 65 282.6 63.6 282.6 70.6 C 282.6 73.8 280.1 76.1 276.2 76.1 C 273.4 76.1 271.2 75.2 269.6 73.4 Z M 287.2 71.7 C 287.25 71.72 287.2 58.8 287.2 58.8 L 284.7 58.8 L 284.7 56.3 L 287.2 56.3 L 287.2 51 L 290.1 51 L 290.1 56.3 L 293.4 56.3 L 293.4 58.8 L 290.1 58.8 C 290.1 58.8 290.13 71.2 290.1 71.2 C 290.1 72.7 290.6 73.5 291.7 73.5 C 292.4 73.5 293 73.2 293.4 72.8 C 293.4 72.8 294.2 74.9 294.2 74.9 C 293.6 75.6 292.6 76.1 291.1 76.1 C 288.5 76.1 287.2 74.6 287.2 71.7 Z M 308.5 72.8 C 308.47 72.8 308.5 83 308.5 83 L 305.6 83 L 305.6 56.3 L 308.5 56.3 C 308.5 56.3 308.47 59.04 308.5 59 C 309.6 57.1 311.5 55.8 313.6 55.8 C 317.9 55.8 320.5 59.8 320.5 65.9 C 320.5 72 317.9 76.1 313.6 76.1 C 311.6 76.1 309.7 75 308.5 72.8 Z M 317.5 65.9 C 317.5 61.8 316 58.4 312.8 58.4 C 311 58.4 309.2 59.8 308.5 61.5 C 308.5 61.5 308.5 70.3 308.5 70.3 C 309.2 72 311 73.5 312.8 73.5 C 316 73.5 317.5 70.1 317.5 65.9 Z M 323.8 65.9 C 323.8 60.3 326.8 55.8 331.6 55.8 C 336.7 55.8 339.3 60.4 339.3 66 C 339.27 66 339.3 66.9 339.3 66.9 C 339.3 66.9 326.75 66.88 326.8 66.9 C 326.9 70.8 328.9 73.7 332.3 73.7 C 334 73.7 335.7 72.8 336.9 71.3 C 336.9 71.3 338.4 73 338.4 73 C 336.9 74.9 334.7 76.1 332.1 76.1 C 326.9 76.1 323.8 71.8 323.8 65.9 Z M 331.6 58.2 C 328.2 58.2 326.8 61.9 326.8 64.8 C 326.8 64.8 336.4 64.8 336.4 64.8 C 336.4 61.8 335.1 58.2 331.6 58.2 Z M 342.5 65.9 C 342.5 60.5 345.2 55.8 350.4 55.8 C 355.6 55.8 358.2 60.5 358.2 65.9 C 358.2 71.4 355.6 76.1 350.4 76.1 C 345.2 76.1 342.5 71.4 342.5 65.9 Z M 355.2 65.9 C 355.2 62 353.8 58.4 350.4 58.4 C 347 58.4 345.5 62 345.5 65.9 C 345.5 69.8 347 73.5 350.4 73.5 C 353.8 73.5 355.2 69.8 355.2 65.9 Z M 365.4 72.8 C 365.39 72.8 365.4 83 365.4 83 L 362.6 83 L 362.6 56.3 L 365.4 56.3 C 365.4 56.3 365.39 59.04 365.4 59 C 366.5 57.1 368.4 55.8 370.5 55.8 C 374.8 55.8 377.4 59.8 377.4 65.9 C 377.4 72 374.8 76.1 370.5 76.1 C 368.5 76.1 366.6 75 365.4 72.8 Z M 374.4 65.9 C 374.4 61.8 372.9 58.4 369.8 58.4 C 368 58.4 366.2 59.8 365.4 61.5 C 365.4 61.5 365.4 70.3 365.4 70.3 C 366.2 72 368 73.5 369.8 73.5 C 372.9 73.5 374.4 70.1 374.4 65.9 Z M 381.7 75.6 L 381.7 48.9 L 384.5 48.9 L 384.5 75.6 L 381.7 75.6 Z M 388.8 65.9 C 388.8 60.3 391.8 55.8 396.7 55.8 C 401.7 55.8 404.3 60.4 404.3 66 C 404.31 66 404.3 66.9 404.3 66.9 C 404.3 66.9 391.79 66.88 391.8 66.9 C 391.9 70.8 393.9 73.7 397.3 73.7 C 399 73.7 400.7 72.8 401.9 71.3 C 401.9 71.3 403.5 73 403.5 73 C 401.9 74.9 399.7 76.1 397.1 76.1 C 391.9 76.1 388.8 71.8 388.8 65.9 Z M 396.6 58.2 C 393.2 58.2 391.9 61.9 391.8 64.8 C 391.8 64.8 401.5 64.8 401.5 64.8 C 401.4 61.8 400.1 58.2 396.6 58.2 Z M 424.1 73.5 C 427.3 73.5 428.8 70.1 428.8 66 C 428.8 61.8 427.3 58.4 424.1 58.4 C 422.3 58.4 420.5 59.9 419.8 61.6 C 419.8 61.6 419.8 70.4 419.8 70.4 C 420.5 72.1 422.3 73.5 424.1 73.5 Z M 416.9 75.6 L 416.9 48.9 L 419.8 48.9 C 419.8 48.9 419.77 59.08 419.8 59.1 C 421 56.9 422.9 55.8 424.9 55.8 C 429.2 55.8 431.8 60 431.8 66 C 431.8 72 429.2 76.1 424.9 76.1 C 422.8 76.1 420.9 74.8 419.8 72.8 C 419.77 72.84 419.8 75.6 419.8 75.6 L 416.9 75.6 Z M 446.1 75.6 C 446.1 75.6 446.05 73.52 446.1 73.5 C 444.8 75.3 442.9 76.1 441 76.1 C 437.9 76.1 435.1 73.7 435.1 69.6 C 435.1 65.6 437.8 63.3 441 63.3 C 442.9 63.3 444.9 64 446.1 65.8 C 446.1 65.8 446.1 62.4 446.1 62.4 C 446.1 59.8 444.6 58.3 442.1 58.3 C 440.3 58.3 438.7 59 437.3 60.6 C 437.3 60.6 436 58.6 436 58.6 C 437.8 56.7 440.1 55.8 442.5 55.8 C 446.4 55.8 448.9 57.7 448.9 62.1 C 448.93 62.08 448.9 75.6 448.9 75.6 L 446.1 75.6 Z M 446.1 71.6 C 446.1 71.6 446.1 67.9 446.1 67.9 C 445.2 66.2 443.6 65.4 441.9 65.4 C 439.5 65.4 438.1 67.3 438.1 69.7 C 438.1 72.1 439.5 74 441.9 74 C 443.6 74 445.2 73.2 446.1 71.6 Z M 453.2 65.9 C 453.2 60.2 456.3 55.8 461.2 55.8 C 463.9 55.8 465.5 56.9 466.7 58.4 C 466.7 58.4 465.2 60.3 465.2 60.3 C 464.1 58.9 462.9 58.4 461.5 58.4 C 458 58.4 456.2 61.8 456.2 65.9 C 456.2 70 458 73.5 461.5 73.5 C 462.9 73.5 464.1 72.9 465.2 71.6 C 465.2 71.6 466.7 73.5 466.7 73.5 C 465.5 75 463.9 76.1 461.2 76.1 C 456.3 76.1 453.2 71.6 453.2 65.9 Z M 481.3 75.6 L 476 66.9 L 473.3 70.4 L 473.3 75.6 L 470.4 75.6 L 470.4 48.9 L 473.3 48.9 L 473.3 66.8 L 481.3 56.3 L 484.7 56.3 L 477.9 65 L 484.7 75.6 L 481.3 75.6 Z " stroke="none" fill="#b13d24"/>  </g>  <g id="Polygon142570">    <path d="M 18.7 31.6 L 16.9 25.6 L 7.5 25.6 L 5.7 31.6 L 2.3 31.6 L 10.3 4.9 L 14.1 4.9 L 22.1 31.6 L 18.7 31.6 Z M 12.2 8.4 L 8.1 22.8 L 16.3 22.8 L 12.2 8.4 Z M 44.1 31.6 C 44.1 31.6 44.1 28.92 44.1 28.9 C 42.9 30.6 40.9 32.1 38.5 32.1 C 35.2 32.1 33.7 30.4 33.7 26.9 C 33.66 26.92 33.7 12.3 33.7 12.3 L 36.5 12.3 C 36.5 12.3 36.5 26.08 36.5 26.1 C 36.5 28.6 37.7 29.5 39.6 29.5 C 41.5 29.5 43.3 28.1 44.1 26.5 C 44.1 26.52 44.1 12.3 44.1 12.3 L 47 12.3 L 47 31.6 L 44.1 31.6 Z M 62.7 31.6 C 62.7 31.6 62.7 17.84 62.7 17.8 C 62.7 15.3 61.5 14.4 59.6 14.4 C 57.7 14.4 56 15.8 55.1 17.4 C 55.1 17.44 55.1 31.6 55.1 31.6 L 52.3 31.6 L 52.3 12.3 L 55.1 12.3 C 55.1 12.3 55.1 15.04 55.1 15 C 56.2 13.4 58.4 11.8 60.7 11.8 C 64 11.8 65.6 13.6 65.6 17 C 65.58 17.04 65.6 31.6 65.6 31.6 L 62.7 31.6 Z M 70.3 7.5 C 70.3 6.4 71.2 5.6 72.3 5.6 C 73.3 5.6 74.2 6.4 74.2 7.5 C 74.2 8.6 73.3 9.5 72.3 9.5 C 71.2 9.5 70.3 8.6 70.3 7.5 Z M 70.9 31.6 L 70.9 12.3 L 73.7 12.3 L 73.7 31.6 L 70.9 31.6 Z M 90 26.3 C 90 26.3 90 17.5 90 17.5 C 89.2 15.8 87.4 14.4 85.6 14.4 C 82.5 14.4 81 17.8 81 21.9 C 81 26.1 82.5 29.5 85.6 29.5 C 87.4 29.5 89.2 28 90 26.3 Z M 78 21.9 C 78 15.8 80.5 11.8 84.9 11.8 C 86.9 11.8 88.9 13.1 90 15 C 89.98 15.04 90 12.3 90 12.3 L 92.8 12.3 L 92.8 39 L 90 39 C 90 39 89.98 28.8 90 28.8 C 88.8 31 86.9 32.1 84.9 32.1 C 80.5 32.1 78 28 78 21.9 Z M 108.5 31.6 C 108.5 31.6 108.54 28.92 108.5 28.9 C 107.4 30.6 105.3 32.1 102.9 32.1 C 99.7 32.1 98.1 30.4 98.1 26.9 C 98.1 26.92 98.1 12.3 98.1 12.3 L 100.9 12.3 C 100.9 12.3 100.94 26.08 100.9 26.1 C 100.9 28.6 102.1 29.5 104 29.5 C 105.9 29.5 107.7 28.1 108.5 26.5 C 108.54 26.52 108.5 12.3 108.5 12.3 L 111.4 12.3 L 111.4 31.6 L 108.5 31.6 Z M 115.7 21.9 C 115.7 16.3 118.7 11.8 123.6 11.8 C 128.7 11.8 131.2 16.4 131.2 22 C 131.22 22 131.2 22.9 131.2 22.9 C 131.2 22.9 118.7 22.88 118.7 22.9 C 118.8 26.8 120.8 29.7 124.3 29.7 C 125.9 29.7 127.7 28.8 128.9 27.3 C 128.9 27.3 130.4 29 130.4 29 C 128.8 30.9 126.6 32.1 124 32.1 C 118.9 32.1 115.7 27.8 115.7 21.9 Z M 123.5 14.2 C 120.1 14.2 118.8 17.9 118.7 20.8 C 118.7 20.8 128.4 20.8 128.4 20.8 C 128.3 17.8 127.1 14.2 123.5 14.2 Z M 155.1 31.6 C 155.1 31.6 155.06 28.84 155.1 28.8 C 153.9 30.8 152 32.1 150 32.1 C 145.7 32.1 143.1 28 143.1 22 C 143.1 16 145.6 11.8 150 11.8 C 151.9 11.8 153.9 12.9 155.1 15.1 C 155.06 15.08 155.1 4.9 155.1 4.9 L 157.9 4.9 L 157.9 31.6 L 155.1 31.6 Z M 155.1 26.4 C 155.1 26.4 155.1 17.5 155.1 17.5 C 154.3 15.8 152.5 14.4 150.7 14.4 C 147.5 14.4 146.1 17.8 146.1 22 C 146.1 26.1 147.5 29.5 150.7 29.5 C 152.5 29.5 154.3 28.1 155.1 26.4 Z M 162.7 7.5 C 162.7 6.4 163.6 5.6 164.6 5.6 C 165.7 5.6 166.6 6.4 166.6 7.5 C 166.6 8.6 165.7 9.5 164.6 9.5 C 163.6 9.5 162.7 8.6 162.7 7.5 Z M 163.2 31.6 L 163.2 12.3 L 166.1 12.3 L 166.1 31.6 L 163.2 31.6 Z M 169.8 29.4 C 169.8 29.4 171.2 27.3 171.2 27.3 C 172.3 28.7 174.2 29.8 176.3 29.8 C 178.5 29.8 180 28.5 180 26.6 C 180 22.1 170.3 23.7 170.3 17 C 170.3 14.1 172.7 11.8 176.5 11.8 C 179.1 11.8 181 12.8 182.4 14.3 C 182.4 14.3 181 16.2 181 16.2 C 180.1 15 178.4 14.1 176.5 14.1 C 174.4 14.1 173.1 15.4 173.1 16.9 C 173.1 21 182.7 19.6 182.7 26.6 C 182.7 29.8 180.3 32.1 176.3 32.1 C 173.6 32.1 171.4 31.2 169.8 29.4 Z M 197.3 31.6 C 197.3 31.6 197.3 17.8 197.3 17.8 C 197.3 15.2 196.1 14.4 194.2 14.4 C 192.3 14.4 190.5 15.8 189.7 17.4 C 189.66 17.44 189.7 31.6 189.7 31.6 L 186.8 31.6 L 186.8 4.9 L 189.7 4.9 C 189.7 4.9 189.66 15.04 189.7 15 C 190.8 13.4 193 11.8 195.3 11.8 C 198.6 11.8 200.1 13.4 200.1 17 C 200.14 16.96 200.1 31.6 200.1 31.6 L 197.3 31.6 Z M 214.6 27.7 C 214.58 27.72 214.6 14.8 214.6 14.8 L 212 14.8 L 212 12.3 L 214.6 12.3 L 214.6 7 L 217.5 7 L 217.5 12.3 L 220.7 12.3 L 220.7 14.8 L 217.5 14.8 C 217.5 14.8 217.46 27.2 217.5 27.2 C 217.5 28.7 217.9 29.5 219 29.5 C 219.7 29.5 220.3 29.2 220.7 28.8 C 220.7 28.8 221.6 30.9 221.6 30.9 C 220.9 31.6 219.9 32.1 218.5 32.1 C 215.8 32.1 214.6 30.6 214.6 27.7 Z M 235 31.6 C 235 31.6 235.02 17.8 235 17.8 C 235 15.2 233.8 14.4 231.9 14.4 C 230 14.4 228.3 15.8 227.4 17.4 C 227.38 17.44 227.4 31.6 227.4 31.6 L 224.5 31.6 L 224.5 4.9 L 227.4 4.9 C 227.4 4.9 227.38 15.04 227.4 15 C 228.5 13.4 230.7 11.8 233 11.8 C 236.3 11.8 237.9 13.4 237.9 17 C 237.86 16.96 237.9 31.6 237.9 31.6 L 235 31.6 Z M 253.1 31.6 C 253.1 31.6 253.06 29.52 253.1 29.5 C 251.8 31.3 249.9 32.1 248 32.1 C 244.9 32.1 242.1 29.7 242.1 25.6 C 242.1 21.6 244.8 19.3 248 19.3 C 249.9 19.3 251.9 20 253.1 21.8 C 253.1 21.8 253.1 18.4 253.1 18.4 C 253.1 15.8 251.6 14.3 249.1 14.3 C 247.3 14.3 245.7 15 244.3 16.6 C 244.3 16.6 243 14.6 243 14.6 C 244.8 12.7 247.1 11.8 249.5 11.8 C 253.4 11.8 255.9 13.7 255.9 18.1 C 255.94 18.08 255.9 31.6 255.9 31.6 L 253.1 31.6 Z M 253.1 27.6 C 253.1 27.6 253.1 23.9 253.1 23.9 C 252.2 22.2 250.6 21.4 248.9 21.4 C 246.5 21.4 245.1 23.3 245.1 25.7 C 245.1 28.1 246.5 30 248.9 30 C 250.6 30 252.2 29.2 253.1 27.6 Z M 261.7 27.7 C 261.74 27.72 261.7 14.8 261.7 14.8 L 259.2 14.8 L 259.2 12.3 L 261.7 12.3 L 261.7 7 L 264.6 7 L 264.6 12.3 L 267.9 12.3 L 267.9 14.8 L 264.6 14.8 C 264.6 14.8 264.62 27.2 264.6 27.2 C 264.6 28.7 265.1 29.5 266.2 29.5 C 266.9 29.5 267.5 29.2 267.9 28.8 C 267.9 28.8 268.7 30.9 268.7 30.9 C 268.1 31.6 267.1 32.1 265.6 32.1 C 263 32.1 261.7 30.6 261.7 27.7 Z M 299.8 31.6 C 299.8 31.6 299.82 17.6 299.8 17.6 C 299.8 15.5 299 14.4 297.1 14.4 C 295.4 14.4 293.7 15.9 292.9 17.4 C 292.94 17.44 292.9 31.6 292.9 31.6 L 290.1 31.6 C 290.1 31.6 290.06 17.6 290.1 17.6 C 290.1 15.5 289.2 14.4 287.3 14.4 C 285.6 14.4 284 15.9 283.1 17.4 C 283.14 17.44 283.1 31.6 283.1 31.6 L 280.3 31.6 L 280.3 12.3 L 283.1 12.3 C 283.1 12.3 283.14 15.04 283.1 15 C 283.9 13.6 286.1 11.8 288.4 11.8 C 290.9 11.8 292.4 13.2 292.8 15.2 C 293.7 13.5 295.9 11.8 298.2 11.8 C 301.1 11.8 302.7 13.4 302.7 16.8 C 302.7 16.84 302.7 31.6 302.7 31.6 L 299.8 31.6 Z M 317.9 31.6 C 317.9 31.6 317.9 29.52 317.9 29.5 C 316.7 31.3 314.8 32.1 312.8 32.1 C 309.7 32.1 307 29.7 307 25.6 C 307 21.6 309.7 19.3 312.8 19.3 C 314.8 19.3 316.7 20 317.9 21.8 C 317.9 21.8 317.9 18.4 317.9 18.4 C 317.9 15.8 316.5 14.3 313.9 14.3 C 312.1 14.3 310.6 15 309.1 16.6 C 309.1 16.6 307.8 14.6 307.8 14.6 C 309.7 12.7 311.9 11.8 314.4 11.8 C 318.2 11.8 320.8 13.7 320.8 18.1 C 320.78 18.08 320.8 31.6 320.8 31.6 L 317.9 31.6 Z M 317.9 27.6 C 317.9 27.6 317.9 23.9 317.9 23.9 C 317 22.2 315.4 21.4 313.7 21.4 C 311.3 21.4 309.9 23.3 309.9 25.7 C 309.9 28.1 311.3 30 313.7 30 C 315.4 30 317 29.2 317.9 27.6 Z M 337.1 31.6 C 337.1 31.6 337.06 28.84 337.1 28.8 C 335.9 30.8 334 32.1 332 32.1 C 327.7 32.1 325.1 28 325.1 22 C 325.1 16 327.6 11.8 332 11.8 C 333.9 11.8 335.9 12.9 337.1 15.1 C 337.06 15.08 337.1 4.9 337.1 4.9 L 339.9 4.9 L 339.9 31.6 L 337.1 31.6 Z M 337.1 26.4 C 337.1 26.4 337.1 17.5 337.1 17.5 C 336.3 15.8 334.5 14.4 332.7 14.4 C 329.5 14.4 328.1 17.8 328.1 22 C 328.1 26.1 329.5 29.5 332.7 29.5 C 334.5 29.5 336.3 28.1 337.1 26.4 Z M 344.3 21.9 C 344.3 16.3 347.2 11.8 352.1 11.8 C 357.2 11.8 359.7 16.4 359.7 22 C 359.74 22 359.7 22.9 359.7 22.9 C 359.7 22.9 347.22 22.88 347.2 22.9 C 347.3 26.8 349.3 29.7 352.8 29.7 C 354.5 29.7 356.2 28.8 357.4 27.3 C 357.4 27.3 358.9 29 358.9 29 C 357.3 30.9 355.1 32.1 352.5 32.1 C 347.4 32.1 344.3 27.8 344.3 21.9 Z M 352.1 14.2 C 348.7 14.2 347.3 17.9 347.2 20.8 C 347.2 20.8 356.9 20.8 356.9 20.8 C 356.9 17.8 355.6 14.2 352.1 14.2 Z M 383 31.6 C 383 31.6 382.98 28.92 383 28.9 C 381.8 30.6 379.8 32.1 377.4 32.1 C 374.1 32.1 372.5 30.4 372.5 26.9 C 372.54 26.92 372.5 12.3 372.5 12.3 L 375.4 12.3 C 375.4 12.3 375.38 26.08 375.4 26.1 C 375.4 28.6 376.6 29.5 378.5 29.5 C 380.4 29.5 382.1 28.1 383 26.5 C 382.98 26.52 383 12.3 383 12.3 L 385.9 12.3 L 385.9 31.6 L 383 31.6 Z M 389.6 29.4 C 389.6 29.4 391 27.3 391 27.3 C 392.1 28.7 394 29.8 396.1 29.8 C 398.3 29.8 399.8 28.5 399.8 26.6 C 399.8 22.1 390.1 23.7 390.1 17 C 390.1 14.1 392.5 11.8 396.3 11.8 C 398.9 11.8 400.8 12.8 402.2 14.3 C 402.2 14.3 400.8 16.2 400.8 16.2 C 399.9 15 398.2 14.1 396.3 14.1 C 394.2 14.1 392.9 15.4 392.9 16.9 C 392.9 21 402.5 19.6 402.5 26.6 C 402.5 29.8 400.1 32.1 396.1 32.1 C 393.4 32.1 391.2 31.2 389.6 29.4 Z M 405.7 21.9 C 405.7 16.3 408.6 11.8 413.5 11.8 C 418.6 11.8 421.1 16.4 421.1 22 C 421.14 22 421.1 22.9 421.1 22.9 C 421.1 22.9 408.62 22.88 408.6 22.9 C 408.7 26.8 410.7 29.7 414.2 29.7 C 415.9 29.7 417.6 28.8 418.8 27.3 C 418.8 27.3 420.3 29 420.3 29 C 418.7 30.9 416.5 32.1 413.9 32.1 C 408.8 32.1 405.7 27.8 405.7 21.9 Z M 413.5 14.2 C 410.1 14.2 408.7 17.9 408.6 20.8 C 408.6 20.8 418.3 20.8 418.3 20.8 C 418.3 17.8 417 14.2 413.5 14.2 Z M 433 21.9 C 433 16.5 435.7 11.8 440.8 11.8 C 446 11.8 448.7 16.5 448.7 21.9 C 448.7 27.4 446 32.1 440.8 32.1 C 435.7 32.1 433 27.4 433 21.9 Z M 445.7 21.9 C 445.7 18 444.2 14.4 440.8 14.4 C 437.5 14.4 436 18 436 21.9 C 436 25.8 437.5 29.5 440.8 29.5 C 444.2 29.5 445.7 25.8 445.7 21.9 Z M 453.7 31.6 L 453.7 14.8 L 451.1 14.8 L 451.1 12.3 L 453.7 12.3 C 453.7 12.3 453.7 9.92 453.7 9.9 C 453.7 6.6 455.5 4.5 458.5 4.5 C 459.8 4.5 461 4.9 462 5.8 C 462 5.8 460.9 7.8 460.9 7.8 C 460.3 7.3 459.7 7 459 7 C 457.4 7 456.6 8 456.6 9.9 C 456.58 9.92 456.6 12.3 456.6 12.3 L 459.9 12.3 L 459.9 14.8 L 456.6 14.8 L 456.6 31.6 L 453.7 31.6 Z " stroke="none" fill="#b13d24"/>  </g></svg>