<?xml version="1.0" standalone="no"?><!DOCTYPE svg PUBLIC "-//W3C//DTD SVG 1.1//EN" "http://www.w3.org/Graphics/SVG/1.1/DTD/svg11.dtd"><svg xmlns="http://www.w3.org/2000/svg" version="1.1" width="219px" height="337.3px" viewBox="0 0 219 337.3">  <desc>70 ml 125 ml 20 ml 5 drops 12 ml 2 tbsp 2 tsp optional optional</desc>  <defs/>  <g id="Polygon148224">    <path d="M 1.3 313.4 C 1.3 309.4 3.3 305.9 7.1 305.9 C 11 305.9 13 309.4 13 313.4 C 13 317.5 11 321.1 7.1 321.1 C 3.3 321.1 1.3 317.5 1.3 313.4 Z M 10.8 313.4 C 10.8 310.5 9.7 307.8 7.1 307.8 C 4.7 307.8 3.5 310.5 3.5 313.4 C 3.5 316.4 4.7 319.1 7.1 319.1 C 9.7 319.1 10.8 316.4 10.8 313.4 Z M 18.4 318.6 C 18.42 318.6 18.4 326.2 18.4 326.2 L 16.3 326.2 L 16.3 306.2 L 18.4 306.2 C 18.4 306.2 18.42 308.28 18.4 308.3 C 19.3 306.8 20.7 305.9 22.2 305.9 C 25.5 305.9 27.4 308.9 27.4 313.4 C 27.4 318 25.5 321.1 22.2 321.1 C 20.8 321.1 19.3 320.2 18.4 318.6 Z M 25.2 313.4 C 25.2 310.3 24.1 307.8 21.7 307.8 C 20.3 307.8 19 308.9 18.4 310.1 C 18.4 310.1 18.4 316.7 18.4 316.7 C 19 318 20.3 319.1 21.7 319.1 C 24.1 319.1 25.2 316.6 25.2 313.4 Z M 31 317.8 C 31.05 317.79 31 308.1 31 308.1 L 29.1 308.1 L 29.1 306.2 L 31 306.2 L 31 302.3 L 33.2 302.3 L 33.2 306.2 L 35.7 306.2 L 35.7 308.1 L 33.2 308.1 C 33.2 308.1 33.21 317.4 33.2 317.4 C 33.2 318.5 33.5 319.1 34.4 319.1 C 34.9 319.1 35.4 318.9 35.6 318.6 C 35.6 318.6 36.3 320.2 36.3 320.2 C 35.8 320.7 35.1 321.1 34 321.1 C 32 321.1 31 320 31 317.8 Z M 38.1 302.6 C 38.1 301.8 38.8 301.2 39.6 301.2 C 40.4 301.2 41 301.8 41 302.6 C 41 303.5 40.4 304.1 39.6 304.1 C 38.8 304.1 38.1 303.5 38.1 302.6 Z M 38.5 320.7 L 38.5 306.2 L 40.6 306.2 L 40.6 320.7 L 38.5 320.7 Z M 43.9 313.4 C 43.9 309.4 45.9 305.9 49.8 305.9 C 53.7 305.9 55.7 309.4 55.7 313.4 C 55.7 317.5 53.7 321.1 49.8 321.1 C 45.9 321.1 43.9 317.5 43.9 313.4 Z M 53.4 313.4 C 53.4 310.5 52.3 307.8 49.8 307.8 C 47.3 307.8 46.1 310.5 46.1 313.4 C 46.1 316.4 47.3 319.1 49.8 319.1 C 52.3 319.1 53.4 316.4 53.4 313.4 Z M 66.7 320.7 C 66.7 320.7 66.75 310.38 66.7 310.4 C 66.7 308.5 65.9 307.8 64.4 307.8 C 63 307.8 61.7 308.9 61 310.1 C 61.05 310.08 61 320.7 61 320.7 L 58.9 320.7 L 58.9 306.2 L 61 306.2 C 61 306.2 61.05 308.28 61 308.3 C 61.9 307 63.5 305.9 65.2 305.9 C 67.7 305.9 68.9 307.2 68.9 309.8 C 68.91 309.78 68.9 320.7 68.9 320.7 L 66.7 320.7 Z M 80.3 320.7 C 80.3 320.7 80.31 319.14 80.3 319.1 C 79.4 320.5 78 321.1 76.5 321.1 C 74.2 321.1 72.1 319.3 72.1 316.2 C 72.1 313.2 74.1 311.5 76.5 311.5 C 78 311.5 79.4 312 80.3 313.3 C 80.3 313.3 80.3 310.8 80.3 310.8 C 80.3 308.8 79.2 307.7 77.3 307.7 C 76 307.7 74.8 308.2 73.7 309.5 C 73.7 309.5 72.7 308 72.7 308 C 74.1 306.5 75.8 305.9 77.7 305.9 C 80.5 305.9 82.5 307.3 82.5 310.6 C 82.47 310.56 82.5 320.7 82.5 320.7 L 80.3 320.7 Z M 80.3 317.7 C 80.3 317.7 80.3 314.9 80.3 314.9 C 79.6 313.7 78.4 313.1 77.2 313.1 C 75.4 313.1 74.3 314.5 74.3 316.3 C 74.3 318.1 75.4 319.5 77.2 319.5 C 78.4 319.5 79.6 318.9 80.3 317.7 Z M 86.4 320.7 L 86.4 300.7 L 88.5 300.7 L 88.5 320.7 L 86.4 320.7 Z " stroke="none" fill="#d0d1d4"/>  </g>  <g id="Polygon148223">    <path d="M 1.3 277.4 C 1.3 273.4 3.3 269.9 7.1 269.9 C 11 269.9 13 273.4 13 277.4 C 13 281.5 11 285.1 7.1 285.1 C 3.3 285.1 1.3 281.5 1.3 277.4 Z M 10.8 277.4 C 10.8 274.5 9.7 271.8 7.1 271.8 C 4.7 271.8 3.5 274.5 3.5 277.4 C 3.5 280.4 4.7 283.1 7.1 283.1 C 9.7 283.1 10.8 280.4 10.8 277.4 Z M 18.4 282.6 C 18.42 282.6 18.4 290.2 18.4 290.2 L 16.3 290.2 L 16.3 270.2 L 18.4 270.2 C 18.4 270.2 18.42 272.28 18.4 272.3 C 19.3 270.8 20.7 269.9 22.2 269.9 C 25.5 269.9 27.4 272.9 27.4 277.4 C 27.4 282 25.5 285.1 22.2 285.1 C 20.8 285.1 19.3 284.2 18.4 282.6 Z M 25.2 277.4 C 25.2 274.3 24.1 271.8 21.7 271.8 C 20.3 271.8 19 272.9 18.4 274.1 C 18.4 274.1 18.4 280.7 18.4 280.7 C 19 282 20.3 283.1 21.7 283.1 C 24.1 283.1 25.2 280.6 25.2 277.4 Z M 31 281.8 C 31.05 281.79 31 272.1 31 272.1 L 29.1 272.1 L 29.1 270.2 L 31 270.2 L 31 266.3 L 33.2 266.3 L 33.2 270.2 L 35.7 270.2 L 35.7 272.1 L 33.2 272.1 C 33.2 272.1 33.21 281.4 33.2 281.4 C 33.2 282.5 33.5 283.1 34.4 283.1 C 34.9 283.1 35.4 282.9 35.6 282.6 C 35.6 282.6 36.3 284.2 36.3 284.2 C 35.8 284.7 35.1 285.1 34 285.1 C 32 285.1 31 284 31 281.8 Z M 38.1 266.6 C 38.1 265.8 38.8 265.2 39.6 265.2 C 40.4 265.2 41 265.8 41 266.6 C 41 267.5 40.4 268.1 39.6 268.1 C 38.8 268.1 38.1 267.5 38.1 266.6 Z M 38.5 284.7 L 38.5 270.2 L 40.6 270.2 L 40.6 284.7 L 38.5 284.7 Z M 43.9 277.4 C 43.9 273.4 45.9 269.9 49.8 269.9 C 53.7 269.9 55.7 273.4 55.7 277.4 C 55.7 281.5 53.7 285.1 49.8 285.1 C 45.9 285.1 43.9 281.5 43.9 277.4 Z M 53.4 277.4 C 53.4 274.5 52.3 271.8 49.8 271.8 C 47.3 271.8 46.1 274.5 46.1 277.4 C 46.1 280.4 47.3 283.1 49.8 283.1 C 52.3 283.1 53.4 280.4 53.4 277.4 Z M 66.7 284.7 C 66.7 284.7 66.75 274.38 66.7 274.4 C 66.7 272.5 65.9 271.8 64.4 271.8 C 63 271.8 61.7 272.9 61 274.1 C 61.05 274.08 61 284.7 61 284.7 L 58.9 284.7 L 58.9 270.2 L 61 270.2 C 61 270.2 61.05 272.28 61 272.3 C 61.9 271 63.5 269.9 65.2 269.9 C 67.7 269.9 68.9 271.2 68.9 273.8 C 68.91 273.78 68.9 284.7 68.9 284.7 L 66.7 284.7 Z M 80.3 284.7 C 80.3 284.7 80.31 283.14 80.3 283.1 C 79.4 284.5 78 285.1 76.5 285.1 C 74.2 285.1 72.1 283.3 72.1 280.2 C 72.1 277.2 74.1 275.5 76.5 275.5 C 78 275.5 79.4 276 80.3 277.3 C 80.3 277.3 80.3 274.8 80.3 274.8 C 80.3 272.8 79.2 271.7 77.3 271.7 C 76 271.7 74.8 272.2 73.7 273.5 C 73.7 273.5 72.7 272 72.7 272 C 74.1 270.5 75.8 269.9 77.7 269.9 C 80.5 269.9 82.5 271.3 82.5 274.6 C 82.47 274.56 82.5 284.7 82.5 284.7 L 80.3 284.7 Z M 80.3 281.7 C 80.3 281.7 80.3 278.9 80.3 278.9 C 79.6 277.7 78.4 277.1 77.2 277.1 C 75.4 277.1 74.3 278.5 74.3 280.3 C 74.3 282.1 75.4 283.5 77.2 283.5 C 78.4 283.5 79.6 282.9 80.3 281.7 Z M 86.4 284.7 L 86.4 264.7 L 88.5 264.7 L 88.5 284.7 L 86.4 284.7 Z " stroke="none" fill="#d0d1d4"/>  </g>  <g id="Polygon148222">    <path d="M 1.6 248.7 C 1.6 248.7 1.59 246.75 1.6 246.8 C 8.1 239.2 10.4 236.8 10.4 233.9 C 10.4 231.7 8.9 230.5 7.2 230.5 C 5.3 230.5 3.9 231.5 2.9 233 C 2.9 233 1.4 231.6 1.4 231.6 C 2.7 229.6 4.7 228.4 7.2 228.4 C 10.3 228.4 12.8 230.4 12.8 233.9 C 12.8 237.2 10.3 240.2 5 246.6 C 4.98 246.57 12.9 246.6 12.9 246.6 L 12.9 248.7 L 1.6 248.7 Z M 23.5 245.8 C 23.52 245.79 23.5 236.1 23.5 236.1 L 21.6 236.1 L 21.6 234.2 L 23.5 234.2 L 23.5 230.3 L 25.7 230.3 L 25.7 234.2 L 28.1 234.2 L 28.1 236.1 L 25.7 236.1 C 25.7 236.1 25.68 245.4 25.7 245.4 C 25.7 246.5 26 247.1 26.8 247.1 C 27.4 247.1 27.8 246.9 28.1 246.6 C 28.1 246.6 28.8 248.2 28.8 248.2 C 28.3 248.7 27.5 249.1 26.4 249.1 C 24.4 249.1 23.5 248 23.5 245.8 Z M 29.8 247 C 29.8 247 30.9 245.5 30.9 245.5 C 31.7 246.5 33.1 247.3 34.7 247.3 C 36.4 247.3 37.5 246.4 37.5 245 C 37.5 241.6 30.2 242.8 30.2 237.8 C 30.2 235.6 32 233.9 34.9 233.9 C 36.8 233.9 38.2 234.6 39.3 235.7 C 39.3 235.7 38.2 237.2 38.2 237.2 C 37.5 236.2 36.3 235.6 34.9 235.6 C 33.3 235.6 32.3 236.5 32.3 237.7 C 32.3 240.8 39.5 239.7 39.5 244.9 C 39.5 247.3 37.7 249.1 34.7 249.1 C 32.7 249.1 31 248.4 29.8 247 Z M 44.7 246.6 C 44.73 246.6 44.7 254.2 44.7 254.2 L 42.6 254.2 L 42.6 234.2 L 44.7 234.2 C 44.7 234.2 44.73 236.28 44.7 236.3 C 45.6 234.8 47 233.9 48.5 233.9 C 51.8 233.9 53.7 236.9 53.7 241.4 C 53.7 246 51.8 249.1 48.5 249.1 C 47.1 249.1 45.6 248.2 44.7 246.6 Z M 51.5 241.4 C 51.5 238.3 50.4 235.8 48 235.8 C 46.6 235.8 45.3 236.9 44.7 238.1 C 44.7 238.1 44.7 244.7 44.7 244.7 C 45.3 246 46.6 247.1 48 247.1 C 50.4 247.1 51.5 244.6 51.5 241.4 Z M 56.6 247.4 C 56.6 246.5 57.3 245.8 58.2 245.8 C 59 245.8 59.8 246.5 59.8 247.4 C 59.8 248.3 59 249 58.2 249 C 57.3 249 56.6 248.3 56.6 247.4 Z " stroke="none" fill="#d0d1d4"/>  </g>  <g id="Polygon148221">    <path d="M 1.6 212.7 C 1.6 212.7 1.59 210.75 1.6 210.8 C 8.1 203.2 10.4 200.8 10.4 197.9 C 10.4 195.7 8.9 194.5 7.2 194.5 C 5.3 194.5 3.9 195.5 2.9 197 C 2.9 197 1.4 195.6 1.4 195.6 C 2.7 193.6 4.7 192.4 7.2 192.4 C 10.3 192.4 12.8 194.4 12.8 197.9 C 12.8 201.2 10.3 204.2 5 210.6 C 4.98 210.57 12.9 210.6 12.9 210.6 L 12.9 212.7 L 1.6 212.7 Z M 23.5 209.8 C 23.52 209.79 23.5 200.1 23.5 200.1 L 21.6 200.1 L 21.6 198.2 L 23.5 198.2 L 23.5 194.3 L 25.7 194.3 L 25.7 198.2 L 28.1 198.2 L 28.1 200.1 L 25.7 200.1 C 25.7 200.1 25.68 209.4 25.7 209.4 C 25.7 210.5 26 211.1 26.8 211.1 C 27.4 211.1 27.8 210.9 28.1 210.6 C 28.1 210.6 28.8 212.2 28.8 212.2 C 28.3 212.7 27.5 213.1 26.4 213.1 C 24.4 213.1 23.5 212 23.5 209.8 Z M 36.4 211.1 C 38.8 211.1 39.9 208.6 39.9 205.5 C 39.9 202.3 38.8 199.8 36.4 199.8 C 35 199.8 33.7 200.9 33.1 202.2 C 33.1 202.2 33.1 208.8 33.1 208.8 C 33.7 210.1 35 211.1 36.4 211.1 Z M 31 212.7 L 31 192.7 L 33.1 192.7 C 33.1 192.7 33.12 200.31 33.1 200.3 C 34 198.7 35.5 197.9 36.9 197.9 C 40.2 197.9 42.1 201 42.1 205.5 C 42.1 210 40.2 213.1 36.9 213.1 C 35.4 213.1 34 212.1 33.1 210.6 C 33.12 210.63 33.1 212.7 33.1 212.7 L 31 212.7 Z M 44.2 211 C 44.2 211 45.3 209.5 45.3 209.5 C 46.1 210.5 47.5 211.3 49.1 211.3 C 50.8 211.3 51.9 210.4 51.9 209 C 51.9 205.6 44.6 206.8 44.6 201.8 C 44.6 199.6 46.4 197.9 49.3 197.9 C 51.2 197.9 52.6 198.6 53.7 199.7 C 53.7 199.7 52.6 201.2 52.6 201.2 C 51.9 200.2 50.7 199.6 49.3 199.6 C 47.7 199.6 46.7 200.5 46.7 201.7 C 46.7 204.8 53.9 203.7 53.9 208.9 C 53.9 211.3 52.1 213.1 49.1 213.1 C 47.1 213.1 45.4 212.4 44.2 211 Z M 59.1 210.6 C 59.13 210.6 59.1 218.2 59.1 218.2 L 57 218.2 L 57 198.2 L 59.1 198.2 C 59.1 198.2 59.13 200.28 59.1 200.3 C 60 198.8 61.4 197.9 62.9 197.9 C 66.2 197.9 68.1 200.9 68.1 205.4 C 68.1 210 66.2 213.1 62.9 213.1 C 61.5 213.1 60 212.2 59.1 210.6 Z M 65.9 205.4 C 65.9 202.3 64.8 199.8 62.4 199.8 C 61 199.8 59.7 200.9 59.1 202.1 C 59.1 202.1 59.1 208.7 59.1 208.7 C 59.7 210 61 211.1 62.4 211.1 C 64.8 211.1 65.9 208.6 65.9 205.4 Z M 71 211.4 C 71 210.5 71.7 209.8 72.6 209.8 C 73.4 209.8 74.2 210.5 74.2 211.4 C 74.2 212.3 73.4 213 72.6 213 C 71.7 213 71 212.3 71 211.4 Z " stroke="none" fill="#d0d1d4"/>  </g>  <g id="Polygon148220">    <path d="M 5 176.7 L 5 159.8 L 1.9 163.1 L 0.4 161.6 L 5.3 156.7 L 7.3 156.7 L 7.3 176.7 L 5 176.7 Z M 11 176.7 C 11 176.7 11.04 174.75 11 174.8 C 17.6 167.2 19.8 164.8 19.8 161.9 C 19.8 159.7 18.3 158.5 16.6 158.5 C 14.7 158.5 13.3 159.5 12.4 161 C 12.4 161 10.8 159.6 10.8 159.6 C 12.1 157.6 14.1 156.4 16.6 156.4 C 19.7 156.4 22.3 158.4 22.3 161.9 C 22.3 165.2 19.7 168.2 14.4 174.6 C 14.43 174.57 22.3 174.6 22.3 174.6 L 22.3 176.7 L 11 176.7 Z M 47.2 176.7 C 47.2 176.7 47.19 166.2 47.2 166.2 C 47.2 164.6 46.6 163.8 45.2 163.8 C 43.9 163.8 42.6 164.9 42 166.1 C 42.03 166.08 42 176.7 42 176.7 L 39.9 176.7 C 39.9 176.7 39.87 166.2 39.9 166.2 C 39.9 164.6 39.2 163.8 37.8 163.8 C 36.5 163.8 35.3 164.9 34.7 166.1 C 34.68 166.08 34.7 176.7 34.7 176.7 L 32.5 176.7 L 32.5 162.2 L 34.7 162.2 C 34.7 162.2 34.68 164.28 34.7 164.3 C 35.3 163.2 36.9 161.9 38.6 161.9 C 40.5 161.9 41.6 162.9 41.9 164.4 C 42.6 163.1 44.2 161.9 46 161.9 C 48.1 161.9 49.3 163 49.3 165.6 C 49.35 165.63 49.3 176.7 49.3 176.7 L 47.2 176.7 Z M 53.3 176.7 L 53.3 156.7 L 55.4 156.7 L 55.4 176.7 L 53.3 176.7 Z " stroke="none" fill="#d0d1d4"/>  </g>  <g id="Polygon148219">    <path d="M 1.6 137.8 C 1.6 137.8 3.1 136.4 3.1 136.4 C 4.1 138 5.4 138.9 7.4 138.9 C 9.6 138.9 10.9 136.9 10.9 134.6 C 10.9 131.7 9.6 130.2 7.5 130.2 C 6.1 130.2 5 130.7 3.9 132 C 3.9 132.03 2.1 131.4 2.1 131.4 L 2.1 120.7 L 12.3 120.7 L 12.3 122.8 L 4.5 122.8 C 4.5 122.8 4.5 129.81 4.5 129.8 C 5.3 128.9 6.6 128.1 8.2 128.1 C 11.1 128.1 13.4 130.4 13.4 134.5 C 13.4 138.3 10.9 141.1 7.4 141.1 C 4.5 141.1 2.8 139.8 1.6 137.8 Z M 31.4 140.7 C 31.4 140.7 31.44 138.63 31.4 138.6 C 30.6 140.1 29.2 141.1 27.6 141.1 C 24.4 141.1 22.4 138 22.4 133.5 C 22.4 129 24.4 125.9 27.6 125.9 C 29.1 125.9 30.6 126.7 31.4 128.3 C 31.44 128.31 31.4 120.7 31.4 120.7 L 33.6 120.7 L 33.6 140.7 L 31.4 140.7 Z M 31.4 136.8 C 31.4 136.8 31.4 130.1 31.4 130.1 C 30.9 128.9 29.5 127.8 28.2 127.8 C 25.8 127.8 24.7 130.3 24.7 133.5 C 24.7 136.6 25.8 139.1 28.2 139.1 C 29.5 139.1 30.9 138.1 31.4 136.8 Z M 37.6 140.7 L 37.6 126.2 L 39.7 126.2 C 39.7 126.2 39.69 128.52 39.7 128.5 C 40.6 127 42 125.9 43.8 125.9 C 43.8 125.9 43.8 128.1 43.8 128.1 C 43.6 128.1 43.3 128 43.1 128 C 41.8 128 40.3 129.2 39.7 130.4 C 39.69 130.41 39.7 140.7 39.7 140.7 L 37.6 140.7 Z M 45.6 133.4 C 45.6 129.4 47.6 125.9 51.4 125.9 C 55.3 125.9 57.4 129.4 57.4 133.4 C 57.4 137.5 55.3 141.1 51.4 141.1 C 47.6 141.1 45.6 137.5 45.6 133.4 Z M 55.1 133.4 C 55.1 130.5 54 127.8 51.4 127.8 C 49 127.8 47.8 130.5 47.8 133.4 C 47.8 136.4 49 139.1 51.4 139.1 C 54 139.1 55.1 136.4 55.1 133.4 Z M 62.7 138.6 C 62.73 138.6 62.7 146.2 62.7 146.2 L 60.6 146.2 L 60.6 126.2 L 62.7 126.2 C 62.7 126.2 62.73 128.28 62.7 128.3 C 63.6 126.8 65 125.9 66.5 125.9 C 69.8 125.9 71.7 128.9 71.7 133.4 C 71.7 138 69.8 141.1 66.5 141.1 C 65.1 141.1 63.6 140.2 62.7 138.6 Z M 69.5 133.4 C 69.5 130.3 68.4 127.8 66 127.8 C 64.6 127.8 63.3 128.9 62.7 130.1 C 62.7 130.1 62.7 136.7 62.7 136.7 C 63.3 138 64.6 139.1 66 139.1 C 68.4 139.1 69.5 136.6 69.5 133.4 Z M 73.8 139 C 73.8 139 74.8 137.5 74.8 137.5 C 75.7 138.5 77.1 139.3 78.6 139.3 C 80.3 139.3 81.4 138.4 81.4 137 C 81.4 133.6 74.2 134.8 74.2 129.8 C 74.2 127.6 75.9 125.9 78.8 125.9 C 80.7 125.9 82.2 126.6 83.2 127.7 C 83.2 127.7 82.2 129.2 82.2 129.2 C 81.5 128.2 80.2 127.6 78.8 127.6 C 77.2 127.6 76.3 128.5 76.3 129.7 C 76.3 132.8 83.5 131.7 83.5 136.9 C 83.5 139.3 81.6 141.1 78.7 141.1 C 76.6 141.1 75 140.4 73.8 139 Z " stroke="none" fill="#d0d1d4"/>  </g>  <g id="Polygon148218">    <path d="M 1.6 104.7 C 1.6 104.7 1.59 102.75 1.6 102.8 C 8.1 95.2 10.4 92.8 10.4 89.9 C 10.4 87.7 8.9 86.5 7.2 86.5 C 5.3 86.5 3.9 87.5 2.9 89 C 2.9 89 1.4 87.6 1.4 87.6 C 2.7 85.6 4.7 84.4 7.2 84.4 C 10.3 84.4 12.8 86.4 12.8 89.9 C 12.8 93.2 10.3 96.2 5 102.6 C 4.98 102.57 12.9 102.6 12.9 102.6 L 12.9 104.7 L 1.6 104.7 Z M 16.1 94.7 C 16.1 89.9 17.7 84.4 22.3 84.4 C 27 84.4 28.6 89.9 28.6 94.7 C 28.6 99.5 27 105.1 22.3 105.1 C 17.7 105.1 16.1 99.5 16.1 94.7 Z M 26.2 94.7 C 26.2 90.8 25.4 86.5 22.3 86.5 C 19.3 86.5 18.5 90.8 18.5 94.7 C 18.5 98.6 19.3 102.9 22.3 102.9 C 25.4 102.9 26.2 98.6 26.2 94.7 Z M 53.1 104.7 C 53.1 104.7 53.1 94.2 53.1 94.2 C 53.1 92.6 52.5 91.8 51.1 91.8 C 49.8 91.8 48.5 92.9 47.9 94.1 C 47.94 94.08 47.9 104.7 47.9 104.7 L 45.8 104.7 C 45.8 104.7 45.78 94.2 45.8 94.2 C 45.8 92.6 45.1 91.8 43.7 91.8 C 42.4 91.8 41.2 92.9 40.6 94.1 C 40.59 94.08 40.6 104.7 40.6 104.7 L 38.5 104.7 L 38.5 90.2 L 40.6 90.2 C 40.6 90.2 40.59 92.28 40.6 92.3 C 41.2 91.2 42.8 89.9 44.5 89.9 C 46.4 89.9 47.5 90.9 47.8 92.4 C 48.5 91.1 50.2 89.9 51.9 89.9 C 54 89.9 55.3 91 55.3 93.6 C 55.26 93.63 55.3 104.7 55.3 104.7 L 53.1 104.7 Z M 59.2 104.7 L 59.2 84.7 L 61.3 84.7 L 61.3 104.7 L 59.2 104.7 Z " stroke="none" fill="#d0d1d4"/>  </g>  <g id="Polygon148217">    <path d="M 5 68.7 L 5 51.8 L 1.9 55.1 L 0.4 53.6 L 5.3 48.7 L 7.3 48.7 L 7.3 68.7 L 5 68.7 Z M 11 68.7 C 11 68.7 11.04 66.75 11 66.8 C 17.6 59.2 19.8 56.8 19.8 53.9 C 19.8 51.7 18.3 50.5 16.6 50.5 C 14.7 50.5 13.3 51.5 12.4 53 C 12.4 53 10.8 51.6 10.8 51.6 C 12.1 49.6 14.1 48.4 16.6 48.4 C 19.7 48.4 22.3 50.4 22.3 53.9 C 22.3 57.2 19.7 60.2 14.4 66.6 C 14.43 66.57 22.3 66.6 22.3 66.6 L 22.3 68.7 L 11 68.7 Z M 25.7 65.8 C 25.7 65.8 27.3 64.4 27.3 64.4 C 28.2 66 29.5 66.9 31.5 66.9 C 33.7 66.9 35.1 64.9 35.1 62.6 C 35.1 59.7 33.7 58.2 31.6 58.2 C 30.2 58.2 29.1 58.7 28 60 C 28.02 60.03 26.2 59.4 26.2 59.4 L 26.2 48.7 L 36.4 48.7 L 36.4 50.8 L 28.6 50.8 C 28.6 50.8 28.62 57.81 28.6 57.8 C 29.4 56.9 30.7 56.1 32.3 56.1 C 35.2 56.1 37.5 58.4 37.5 62.5 C 37.5 66.3 35 69.1 31.6 69.1 C 28.6 69.1 26.9 67.8 25.7 65.8 Z M 61.9 68.7 C 61.9 68.7 61.92 58.2 61.9 58.2 C 61.9 56.6 61.3 55.8 59.9 55.8 C 58.6 55.8 57.3 56.9 56.8 58.1 C 56.76 58.08 56.8 68.7 56.8 68.7 L 54.6 68.7 C 54.6 68.7 54.6 58.2 54.6 58.2 C 54.6 56.6 54 55.8 52.6 55.8 C 51.3 55.8 50 56.9 49.4 58.1 C 49.41 58.08 49.4 68.7 49.4 68.7 L 47.3 68.7 L 47.3 54.2 L 49.4 54.2 C 49.4 54.2 49.41 56.28 49.4 56.3 C 50 55.2 51.6 53.9 53.4 53.9 C 55.2 53.9 56.4 54.9 56.6 56.4 C 57.4 55.1 59 53.9 60.7 53.9 C 62.8 53.9 64.1 55 64.1 57.6 C 64.08 57.63 64.1 68.7 64.1 68.7 L 61.9 68.7 Z M 68 68.7 L 68 48.7 L 70.2 48.7 L 70.2 68.7 L 68 68.7 Z " stroke="none" fill="#d0d1d4"/>  </g>  <g id="Polygon148216">    <path d="M 3 32.7 L 9.2 14.8 L 0.8 14.8 L 0.8 12.7 L 11.9 12.7 L 11.9 14.3 L 5.5 32.7 L 3 32.7 Z M 14.1 22.7 C 14.1 17.9 15.7 12.4 20.3 12.4 C 25 12.4 26.6 17.9 26.6 22.7 C 26.6 27.5 25 33.1 20.3 33.1 C 15.7 33.1 14.1 27.5 14.1 22.7 Z M 24.2 22.7 C 24.2 18.8 23.4 14.5 20.3 14.5 C 17.3 14.5 16.5 18.8 16.5 22.7 C 16.5 26.6 17.2 30.9 20.3 30.9 C 23.4 30.9 24.2 26.6 24.2 22.7 Z M 51.1 32.7 C 51.1 32.7 51.09 22.2 51.1 22.2 C 51.1 20.6 50.5 19.8 49.1 19.8 C 47.8 19.8 46.5 20.9 45.9 22.1 C 45.93 22.08 45.9 32.7 45.9 32.7 L 43.8 32.7 C 43.8 32.7 43.77 22.2 43.8 22.2 C 43.8 20.6 43.1 19.8 41.7 19.8 C 40.4 19.8 39.2 20.9 38.6 22.1 C 38.58 22.08 38.6 32.7 38.6 32.7 L 36.4 32.7 L 36.4 18.2 L 38.6 18.2 C 38.6 18.2 38.58 20.28 38.6 20.3 C 39.2 19.2 40.8 17.9 42.5 17.9 C 44.4 17.9 45.5 18.9 45.8 20.4 C 46.5 19.1 48.1 17.9 49.9 17.9 C 52 17.9 53.2 19 53.2 21.6 C 53.25 21.63 53.2 32.7 53.2 32.7 L 51.1 32.7 Z M 57.2 32.7 L 57.2 12.7 L 59.3 12.7 L 59.3 32.7 L 57.2 32.7 Z " stroke="none" fill="#d0d1d4"/>  </g></svg>