<?xml version="1.0" standalone="no"?><!DOCTYPE svg PUBLIC "-//W3C//DTD SVG 1.1//EN" "http://www.w3.org/Graphics/SVG/1.1/DTD/svg11.dtd"><svg xmlns="http://www.w3.org/2000/svg" version="1.1" width="486px" height="189.4px" viewBox="0 0 486 189.4">  <desc>Delightfully crispy and salty, the dish was a huge favourite among many Singaporeans way back then</desc>  <defs/>  <g id="Polygon148448">    <path d="M 11.8 161.5 C 15 161.5 16.5 158.1 16.5 154 C 16.5 149.8 15 146.4 11.8 146.4 C 10 146.4 8.2 147.9 7.5 149.6 C 7.5 149.6 7.5 158.4 7.5 158.4 C 8.2 160.1 10 161.5 11.8 161.5 Z M 4.6 163.6 L 4.6 136.9 L 7.5 136.9 C 7.5 136.9 7.46 147.08 7.5 147.1 C 8.7 144.9 10.6 143.8 12.5 143.8 C 16.9 143.8 19.5 148 19.5 154 C 19.5 160 16.9 164.1 12.5 164.1 C 10.5 164.1 8.6 162.8 7.5 160.8 C 7.46 160.84 7.5 163.6 7.5 163.6 L 4.6 163.6 Z M 33.7 163.6 C 33.7 163.6 33.74 161.52 33.7 161.5 C 32.5 163.3 30.6 164.1 28.7 164.1 C 25.5 164.1 22.8 161.7 22.8 157.6 C 22.8 153.6 25.5 151.3 28.7 151.3 C 30.6 151.3 32.5 152 33.7 153.8 C 33.7 153.8 33.7 150.4 33.7 150.4 C 33.7 147.8 32.3 146.3 29.8 146.3 C 28 146.3 26.4 147 24.9 148.6 C 24.9 148.6 23.7 146.6 23.7 146.6 C 25.5 144.7 27.8 143.8 30.2 143.8 C 34.1 143.8 36.6 145.7 36.6 150.1 C 36.62 150.08 36.6 163.6 36.6 163.6 L 33.7 163.6 Z M 33.7 159.6 C 33.7 159.6 33.7 155.9 33.7 155.9 C 32.9 154.2 31.3 153.4 29.6 153.4 C 27.2 153.4 25.7 155.3 25.7 157.7 C 25.7 160.1 27.2 162 29.6 162 C 31.3 162 32.9 161.2 33.7 159.6 Z M 40.9 153.9 C 40.9 148.2 43.9 143.8 48.9 143.8 C 51.6 143.8 53.2 144.9 54.4 146.4 C 54.4 146.4 52.9 148.3 52.9 148.3 C 51.8 146.9 50.6 146.4 49.1 146.4 C 45.7 146.4 43.9 149.8 43.9 153.9 C 43.9 158 45.7 161.5 49.1 161.5 C 50.6 161.5 51.8 160.9 52.9 159.6 C 52.9 159.6 54.4 161.5 54.4 161.5 C 53.2 163 51.6 164.1 48.9 164.1 C 43.9 164.1 40.9 159.6 40.9 153.9 Z M 69 163.6 L 63.7 154.9 L 60.9 158.4 L 60.9 163.6 L 58.1 163.6 L 58.1 136.9 L 60.9 136.9 L 60.9 154.8 L 69 144.3 L 72.4 144.3 L 65.6 153 L 72.4 163.6 L 69 163.6 Z M 84.8 159.7 C 84.78 159.72 84.8 146.8 84.8 146.8 L 82.2 146.8 L 82.2 144.3 L 84.8 144.3 L 84.8 139 L 87.7 139 L 87.7 144.3 L 90.9 144.3 L 90.9 146.8 L 87.7 146.8 C 87.7 146.8 87.66 159.2 87.7 159.2 C 87.7 160.7 88.1 161.5 89.2 161.5 C 89.9 161.5 90.5 161.2 90.9 160.8 C 90.9 160.8 91.8 162.9 91.8 162.9 C 91.1 163.6 90.1 164.1 88.7 164.1 C 86 164.1 84.8 162.6 84.8 159.7 Z M 105.2 163.6 C 105.2 163.6 105.22 149.8 105.2 149.8 C 105.2 147.2 104 146.4 102.1 146.4 C 100.2 146.4 98.5 147.8 97.6 149.4 C 97.58 149.44 97.6 163.6 97.6 163.6 L 94.7 163.6 L 94.7 136.9 L 97.6 136.9 C 97.6 136.9 97.58 147.04 97.6 147 C 98.7 145.4 100.9 143.8 103.2 143.8 C 106.5 143.8 108.1 145.4 108.1 149 C 108.06 148.96 108.1 163.6 108.1 163.6 L 105.2 163.6 Z M 112.4 153.9 C 112.4 148.3 115.3 143.8 120.2 143.8 C 125.3 143.8 127.9 148.4 127.9 154 C 127.86 154 127.9 154.9 127.9 154.9 C 127.9 154.9 115.34 154.88 115.3 154.9 C 115.5 158.8 117.5 161.7 120.9 161.7 C 122.6 161.7 124.3 160.8 125.5 159.3 C 125.5 159.3 127 161 127 161 C 125.5 162.9 123.3 164.1 120.7 164.1 C 115.5 164.1 112.4 159.8 112.4 153.9 Z M 120.2 146.2 C 116.8 146.2 115.4 149.9 115.3 152.8 C 115.3 152.8 125 152.8 125 152.8 C 125 149.8 123.7 146.2 120.2 146.2 Z M 142.5 163.6 C 142.5 163.6 142.5 149.84 142.5 149.8 C 142.5 147.3 141.3 146.4 139.4 146.4 C 137.5 146.4 135.8 147.8 134.9 149.4 C 134.9 149.44 134.9 163.6 134.9 163.6 L 132.1 163.6 L 132.1 144.3 L 134.9 144.3 C 134.9 144.3 134.9 147.04 134.9 147 C 136 145.4 138.2 143.8 140.5 143.8 C 143.8 143.8 145.4 145.6 145.4 149 C 145.38 149.04 145.4 163.6 145.4 163.6 L 142.5 163.6 Z M 150.5 161.8 C 150.5 160.7 151.4 159.7 152.6 159.7 C 153.7 159.7 154.7 160.7 154.7 161.8 C 154.7 163 153.7 164 152.6 164 C 151.4 164 150.5 163 150.5 161.8 Z " stroke="none" fill="#b13d24"/>  </g>  <g id="Polygon148447">    <path d="M 14.5 119.6 C 14.5 119.6 14.54 117.52 14.5 117.5 C 13.3 119.3 11.4 120.1 9.5 120.1 C 6.3 120.1 3.6 117.7 3.6 113.6 C 3.6 109.6 6.3 107.3 9.5 107.3 C 11.4 107.3 13.3 108 14.5 109.8 C 14.5 109.8 14.5 106.4 14.5 106.4 C 14.5 103.8 13.1 102.3 10.6 102.3 C 8.8 102.3 7.2 103 5.7 104.6 C 5.7 104.6 4.5 102.6 4.5 102.6 C 6.3 100.7 8.6 99.8 11 99.8 C 14.9 99.8 17.4 101.7 17.4 106.1 C 17.42 106.08 17.4 119.6 17.4 119.6 L 14.5 119.6 Z M 14.5 115.6 C 14.5 115.6 14.5 111.9 14.5 111.9 C 13.7 110.2 12.1 109.4 10.4 109.4 C 8 109.4 6.5 111.3 6.5 113.7 C 6.5 116.1 8 118 10.4 118 C 12.1 118 13.7 117.2 14.5 115.6 Z M 42.2 119.6 C 42.2 119.6 42.18 105.6 42.2 105.6 C 42.2 103.5 41.3 102.4 39.5 102.4 C 37.8 102.4 36.1 103.9 35.3 105.4 C 35.3 105.44 35.3 119.6 35.3 119.6 L 32.4 119.6 C 32.4 119.6 32.42 105.6 32.4 105.6 C 32.4 103.5 31.6 102.4 29.7 102.4 C 28 102.4 26.3 103.9 25.5 105.4 C 25.5 105.44 25.5 119.6 25.5 119.6 L 22.7 119.6 L 22.7 100.3 L 25.5 100.3 C 25.5 100.3 25.5 103.04 25.5 103 C 26.3 101.6 28.5 99.8 30.8 99.8 C 33.3 99.8 34.8 101.2 35.1 103.2 C 36.1 101.5 38.3 99.8 40.6 99.8 C 43.4 99.8 45.1 101.4 45.1 104.8 C 45.06 104.84 45.1 119.6 45.1 119.6 L 42.2 119.6 Z M 49.4 109.9 C 49.4 104.5 52.1 99.8 57.2 99.8 C 62.4 99.8 65.1 104.5 65.1 109.9 C 65.1 115.4 62.4 120.1 57.2 120.1 C 52.1 120.1 49.4 115.4 49.4 109.9 Z M 62.1 109.9 C 62.1 106 60.6 102.4 57.2 102.4 C 53.9 102.4 52.4 106 52.4 109.9 C 52.4 113.8 53.9 117.5 57.2 117.5 C 60.6 117.5 62.1 113.8 62.1 109.9 Z M 79.9 119.6 C 79.9 119.6 79.86 105.84 79.9 105.8 C 79.9 103.3 78.7 102.4 76.8 102.4 C 74.9 102.4 73.1 103.8 72.3 105.4 C 72.26 105.44 72.3 119.6 72.3 119.6 L 69.4 119.6 L 69.4 100.3 L 72.3 100.3 C 72.3 100.3 72.26 103.04 72.3 103 C 73.4 101.4 75.5 99.8 77.9 99.8 C 81.1 99.8 82.7 101.6 82.7 105 C 82.74 105.04 82.7 119.6 82.7 119.6 L 79.9 119.6 Z M 87.9 125 C 87.9 125 89.2 122.8 89.2 122.8 C 90.5 124.2 92.1 125 94.2 125 C 96.9 125 99.1 123.5 99.1 119.8 C 99.1 119.8 99.1 116.5 99.1 116.5 C 97.9 118.5 96 119.8 94 119.8 C 89.7 119.8 87.1 115.9 87.1 109.8 C 87.1 103.8 89.6 99.8 94 99.8 C 95.9 99.8 97.9 100.9 99.1 103.1 C 99.06 103.08 99.1 100.3 99.1 100.3 L 101.9 100.3 C 101.9 100.3 101.94 119.56 101.9 119.6 C 101.9 125.5 98.3 127.4 94.3 127.4 C 91.7 127.4 89.7 126.8 87.9 125 Z M 99.1 114.1 C 99.1 114.1 99.1 105.5 99.1 105.5 C 98.3 103.8 96.5 102.4 94.7 102.4 C 91.5 102.4 90.1 105.7 90.1 109.8 C 90.1 114 91.5 117.3 94.7 117.3 C 96.5 117.3 98.3 115.8 99.1 114.1 Z M 135.3 119.6 C 135.3 119.6 135.3 105.6 135.3 105.6 C 135.3 103.5 134.5 102.4 132.6 102.4 C 130.9 102.4 129.2 103.9 128.4 105.4 C 128.42 105.44 128.4 119.6 128.4 119.6 L 125.5 119.6 C 125.5 119.6 125.54 105.6 125.5 105.6 C 125.5 103.5 124.7 102.4 122.8 102.4 C 121.1 102.4 119.5 103.9 118.6 105.4 C 118.62 105.44 118.6 119.6 118.6 119.6 L 115.8 119.6 L 115.8 100.3 L 118.6 100.3 C 118.6 100.3 118.62 103.04 118.6 103 C 119.4 101.6 121.6 99.8 123.9 99.8 C 126.4 99.8 127.9 101.2 128.3 103.2 C 129.2 101.5 131.4 99.8 133.7 99.8 C 136.5 99.8 138.2 101.4 138.2 104.8 C 138.18 104.84 138.2 119.6 138.2 119.6 L 135.3 119.6 Z M 153.4 119.6 C 153.4 119.6 153.38 117.52 153.4 117.5 C 152.1 119.3 150.3 120.1 148.3 120.1 C 145.2 120.1 142.5 117.7 142.5 113.6 C 142.5 109.6 145.1 107.3 148.3 107.3 C 150.3 107.3 152.2 108 153.4 109.8 C 153.4 109.8 153.4 106.4 153.4 106.4 C 153.4 103.8 151.9 102.3 149.4 102.3 C 147.6 102.3 146.1 103 144.6 104.6 C 144.6 104.6 143.3 102.6 143.3 102.6 C 145.1 100.7 147.4 99.8 149.9 99.8 C 153.7 99.8 156.3 101.7 156.3 106.1 C 156.26 106.08 156.3 119.6 156.3 119.6 L 153.4 119.6 Z M 153.4 115.6 C 153.4 115.6 153.4 111.9 153.4 111.9 C 152.5 110.2 150.9 109.4 149.2 109.4 C 146.8 109.4 145.4 111.3 145.4 113.7 C 145.4 116.1 146.8 118 149.2 118 C 150.9 118 152.5 117.2 153.4 115.6 Z M 171.9 119.6 C 171.9 119.6 171.94 105.84 171.9 105.8 C 171.9 103.3 170.8 102.4 168.9 102.4 C 167 102.4 165.2 103.8 164.3 105.4 C 164.34 105.44 164.3 119.6 164.3 119.6 L 161.5 119.6 L 161.5 100.3 L 164.3 100.3 C 164.3 100.3 164.34 103.04 164.3 103 C 165.5 101.4 167.6 99.8 169.9 99.8 C 173.2 99.8 174.8 101.6 174.8 105 C 174.82 105.04 174.8 119.6 174.8 119.6 L 171.9 119.6 Z M 179.5 124.6 C 179.9 124.8 180.5 124.9 180.8 124.9 C 181.9 124.9 182.6 124.4 183.1 123 C 183.1 122.96 184.1 120 184.1 120 L 177.7 100.3 L 180.8 100.3 L 185.6 116.1 L 190.5 100.3 L 193.5 100.3 C 193.5 100.3 185.82 123.68 185.8 123.7 C 184.9 126.5 183.3 127.4 181 127.4 C 180.4 127.4 179.5 127.3 179.1 127.2 C 179.1 127.2 179.5 124.6 179.5 124.6 Z M 203.5 116.7 C 203.5 116.7 205.3 114.3 205.3 114.3 C 206.7 115.9 208.9 117.2 211.5 117.2 C 214.9 117.2 216.4 115.2 216.4 112.9 C 216.4 106.4 204.3 108.1 204.3 99.5 C 204.3 95.4 207.5 92.5 212 92.5 C 214.9 92.5 217.3 93.5 219.1 95.3 C 219.1 95.3 217.4 97.7 217.4 97.7 C 216 96.1 214 95.3 211.9 95.3 C 209.5 95.3 207.6 96.9 207.6 99.3 C 207.6 105 219.6 103.7 219.6 112.7 C 219.6 116.6 217 120.1 211.5 120.1 C 208 120.1 205.3 118.8 203.5 116.7 Z M 223.3 95.5 C 223.3 94.4 224.2 93.6 225.2 93.6 C 226.3 93.6 227.2 94.4 227.2 95.5 C 227.2 96.6 226.3 97.5 225.2 97.5 C 224.2 97.5 223.3 96.6 223.3 95.5 Z M 223.8 119.6 L 223.8 100.3 L 226.7 100.3 L 226.7 119.6 L 223.8 119.6 Z M 242.4 119.6 C 242.4 119.6 242.38 105.84 242.4 105.8 C 242.4 103.3 241.2 102.4 239.3 102.4 C 237.4 102.4 235.7 103.8 234.8 105.4 C 234.78 105.44 234.8 119.6 234.8 119.6 L 231.9 119.6 L 231.9 100.3 L 234.8 100.3 C 234.8 100.3 234.78 103.04 234.8 103 C 235.9 101.4 238.1 99.8 240.4 99.8 C 243.7 99.8 245.3 101.6 245.3 105 C 245.26 105.04 245.3 119.6 245.3 119.6 L 242.4 119.6 Z M 250.4 125 C 250.4 125 251.7 122.8 251.7 122.8 C 253 124.2 254.6 125 256.7 125 C 259.4 125 261.6 123.5 261.6 119.8 C 261.6 119.8 261.6 116.5 261.6 116.5 C 260.5 118.5 258.5 119.8 256.5 119.8 C 252.2 119.8 249.6 115.9 249.6 109.8 C 249.6 103.8 252.1 99.8 256.5 99.8 C 258.5 99.8 260.4 100.9 261.6 103.1 C 261.58 103.08 261.6 100.3 261.6 100.3 L 264.5 100.3 C 264.5 100.3 264.46 119.56 264.5 119.6 C 264.5 125.5 260.9 127.4 256.8 127.4 C 254.2 127.4 252.2 126.8 250.4 125 Z M 261.6 114.1 C 261.6 114.1 261.6 105.5 261.6 105.5 C 260.9 103.8 259.1 102.4 257.2 102.4 C 254.1 102.4 252.6 105.7 252.6 109.8 C 252.6 114 254.1 117.3 257.2 117.3 C 259.1 117.3 260.9 115.8 261.6 114.1 Z M 279.6 119.6 C 279.6 119.6 279.62 117.52 279.6 117.5 C 278.4 119.3 276.5 120.1 274.5 120.1 C 271.4 120.1 268.7 117.7 268.7 113.6 C 268.7 109.6 271.4 107.3 274.5 107.3 C 276.5 107.3 278.4 108 279.6 109.8 C 279.6 109.8 279.6 106.4 279.6 106.4 C 279.6 103.8 278.2 102.3 275.7 102.3 C 273.9 102.3 272.3 103 270.8 104.6 C 270.8 104.6 269.5 102.6 269.5 102.6 C 271.4 100.7 273.7 99.8 276.1 99.8 C 279.9 99.8 282.5 101.7 282.5 106.1 C 282.5 106.08 282.5 119.6 282.5 119.6 L 279.6 119.6 Z M 279.6 115.6 C 279.6 115.6 279.6 111.9 279.6 111.9 C 278.7 110.2 277.1 109.4 275.5 109.4 C 273.1 109.4 271.6 111.3 271.6 113.7 C 271.6 116.1 273.1 118 275.5 118 C 277.1 118 278.7 117.2 279.6 115.6 Z M 290.6 116.8 C 290.58 116.8 290.6 127 290.6 127 L 287.7 127 L 287.7 100.3 L 290.6 100.3 C 290.6 100.3 290.58 103.04 290.6 103 C 291.7 101.1 293.6 99.8 295.7 99.8 C 300 99.8 302.6 103.8 302.6 109.9 C 302.6 116 300 120.1 295.7 120.1 C 293.7 120.1 291.8 119 290.6 116.8 Z M 299.6 109.9 C 299.6 105.8 298.1 102.4 294.9 102.4 C 293.1 102.4 291.3 103.8 290.6 105.5 C 290.6 105.5 290.6 114.3 290.6 114.3 C 291.3 116 293.1 117.5 294.9 117.5 C 298.1 117.5 299.6 114.1 299.6 109.9 Z M 305.9 109.9 C 305.9 104.5 308.6 99.8 313.7 99.8 C 318.9 99.8 321.6 104.5 321.6 109.9 C 321.6 115.4 318.9 120.1 313.7 120.1 C 308.6 120.1 305.9 115.4 305.9 109.9 Z M 318.6 109.9 C 318.6 106 317.1 102.4 313.7 102.4 C 310.4 102.4 308.9 106 308.9 109.9 C 308.9 113.8 310.4 117.5 313.7 117.5 C 317.1 117.5 318.6 113.8 318.6 109.9 Z M 325.9 119.6 L 325.9 100.3 L 328.8 100.3 C 328.8 100.3 328.78 103.36 328.8 103.4 C 330 101.3 331.9 99.9 334.3 99.9 C 334.3 99.9 334.3 102.8 334.3 102.8 C 333.9 102.8 333.6 102.7 333.3 102.7 C 331.5 102.7 329.6 104.3 328.8 105.9 C 328.78 105.88 328.8 119.6 328.8 119.6 L 325.9 119.6 Z M 336.6 109.9 C 336.6 104.3 339.6 99.8 344.5 99.8 C 349.5 99.8 352.1 104.4 352.1 110 C 352.1 110 352.1 110.9 352.1 110.9 C 352.1 110.9 339.58 110.88 339.6 110.9 C 339.7 114.8 341.7 117.7 345.1 117.7 C 346.8 117.7 348.5 116.8 349.7 115.3 C 349.7 115.3 351.3 117 351.3 117 C 349.7 118.9 347.5 120.1 344.9 120.1 C 339.7 120.1 336.6 115.8 336.6 109.9 Z M 344.4 102.2 C 341 102.2 339.7 105.9 339.6 108.8 C 339.6 108.8 349.3 108.8 349.3 108.8 C 349.2 105.8 347.9 102.2 344.4 102.2 Z M 366.2 119.6 C 366.2 119.6 366.22 117.52 366.2 117.5 C 365 119.3 363.1 120.1 361.1 120.1 C 358 120.1 355.3 117.7 355.3 113.6 C 355.3 109.6 358 107.3 361.1 107.3 C 363.1 107.3 365 108 366.2 109.8 C 366.2 109.8 366.2 106.4 366.2 106.4 C 366.2 103.8 364.8 102.3 362.3 102.3 C 360.5 102.3 358.9 103 357.4 104.6 C 357.4 104.6 356.1 102.6 356.1 102.6 C 358 100.7 360.3 99.8 362.7 99.8 C 366.5 99.8 369.1 101.7 369.1 106.1 C 369.1 106.08 369.1 119.6 369.1 119.6 L 366.2 119.6 Z M 366.2 115.6 C 366.2 115.6 366.2 111.9 366.2 111.9 C 365.3 110.2 363.7 109.4 362.1 109.4 C 359.7 109.4 358.2 111.3 358.2 113.7 C 358.2 116.1 359.7 118 362.1 118 C 363.7 118 365.3 117.2 366.2 115.6 Z M 384.8 119.6 C 384.8 119.6 384.78 105.84 384.8 105.8 C 384.8 103.3 383.6 102.4 381.7 102.4 C 379.8 102.4 378.1 103.8 377.2 105.4 C 377.18 105.44 377.2 119.6 377.2 119.6 L 374.3 119.6 L 374.3 100.3 L 377.2 100.3 C 377.2 100.3 377.18 103.04 377.2 103 C 378.3 101.4 380.5 99.8 382.8 99.8 C 386.1 99.8 387.7 101.6 387.7 105 C 387.66 105.04 387.7 119.6 387.7 119.6 L 384.8 119.6 Z M 391.4 117.4 C 391.4 117.4 392.8 115.3 392.8 115.3 C 393.9 116.7 395.8 117.8 397.9 117.8 C 400.1 117.8 401.6 116.5 401.6 114.6 C 401.6 110.1 391.9 111.7 391.9 105 C 391.9 102.1 394.3 99.8 398.1 99.8 C 400.7 99.8 402.6 100.8 404 102.3 C 404 102.3 402.6 104.2 402.6 104.2 C 401.7 103 400 102.1 398.1 102.1 C 396 102.1 394.7 103.4 394.7 104.9 C 394.7 109 404.3 107.6 404.3 114.6 C 404.3 117.8 401.9 120.1 397.9 120.1 C 395.2 120.1 393 119.2 391.4 117.4 Z M 431.3 119.6 L 427.1 104.1 L 423 119.6 L 420.1 119.6 L 414.9 100.3 L 417.9 100.3 L 421.7 115.7 L 425.7 100.3 L 428.5 100.3 L 432.6 115.7 L 436.4 100.3 L 439.4 100.3 L 434.2 119.6 L 431.3 119.6 Z M 452.5 119.6 C 452.5 119.6 452.46 117.52 452.5 117.5 C 451.2 119.3 449.3 120.1 447.4 120.1 C 444.3 120.1 441.5 117.7 441.5 113.6 C 441.5 109.6 444.2 107.3 447.4 107.3 C 449.3 107.3 451.3 108 452.5 109.8 C 452.5 109.8 452.5 106.4 452.5 106.4 C 452.5 103.8 451 102.3 448.5 102.3 C 446.7 102.3 445.1 103 443.7 104.6 C 443.7 104.6 442.4 102.6 442.4 102.6 C 444.2 100.7 446.5 99.8 448.9 99.8 C 452.8 99.8 455.3 101.7 455.3 106.1 C 455.34 106.08 455.3 119.6 455.3 119.6 L 452.5 119.6 Z M 452.5 115.6 C 452.5 115.6 452.5 111.9 452.5 111.9 C 451.6 110.2 450 109.4 448.3 109.4 C 445.9 109.4 444.5 111.3 444.5 113.7 C 444.5 116.1 445.9 118 448.3 118 C 450 118 451.6 117.2 452.5 115.6 Z M 460 124.6 C 460.4 124.8 461 124.9 461.3 124.9 C 462.4 124.9 463.1 124.4 463.6 123 C 463.57 122.96 464.6 120 464.6 120 L 458.2 100.3 L 461.3 100.3 L 466.1 116.1 L 470.9 100.3 L 474 100.3 C 474 100.3 466.29 123.68 466.3 123.7 C 465.3 126.5 463.8 127.4 461.5 127.4 C 460.9 127.4 460 127.3 459.6 127.2 C 459.6 127.2 460 124.6 460 124.6 Z " stroke="none" fill="#b13d24"/>  </g>  <g id="Polygon148446">    <path d="M 5.2 71.7 C 5.18 71.72 5.2 58.8 5.2 58.8 L 2.6 58.8 L 2.6 56.3 L 5.2 56.3 L 5.2 51 L 8.1 51 L 8.1 56.3 L 11.3 56.3 L 11.3 58.8 L 8.1 58.8 C 8.1 58.8 8.06 71.2 8.1 71.2 C 8.1 72.7 8.5 73.5 9.6 73.5 C 10.3 73.5 10.9 73.2 11.3 72.8 C 11.3 72.8 12.2 74.9 12.2 74.9 C 11.5 75.6 10.5 76.1 9.1 76.1 C 6.4 76.1 5.2 74.6 5.2 71.7 Z M 25.6 75.6 C 25.6 75.6 25.62 61.8 25.6 61.8 C 25.6 59.2 24.4 58.4 22.5 58.4 C 20.6 58.4 18.9 59.8 18 61.4 C 17.98 61.44 18 75.6 18 75.6 L 15.1 75.6 L 15.1 48.9 L 18 48.9 C 18 48.9 17.98 59.04 18 59 C 19.1 57.4 21.3 55.8 23.6 55.8 C 26.9 55.8 28.5 57.4 28.5 61 C 28.46 60.96 28.5 75.6 28.5 75.6 L 25.6 75.6 Z M 32.8 65.9 C 32.8 60.3 35.7 55.8 40.6 55.8 C 45.7 55.8 48.3 60.4 48.3 66 C 48.26 66 48.3 66.9 48.3 66.9 C 48.3 66.9 35.74 66.88 35.7 66.9 C 35.9 70.8 37.9 73.7 41.3 73.7 C 43 73.7 44.7 72.8 45.9 71.3 C 45.9 71.3 47.4 73 47.4 73 C 45.9 74.9 43.7 76.1 41.1 76.1 C 35.9 76.1 32.8 71.8 32.8 65.9 Z M 40.6 58.2 C 37.2 58.2 35.8 61.9 35.7 64.8 C 35.7 64.8 45.4 64.8 45.4 64.8 C 45.4 61.8 44.1 58.2 40.6 58.2 Z M 72.1 75.6 C 72.1 75.6 72.1 72.84 72.1 72.8 C 71 74.8 69.1 76.1 67 76.1 C 62.7 76.1 60.1 72 60.1 66 C 60.1 60 62.7 55.8 67 55.8 C 69 55.8 70.9 56.9 72.1 59.1 C 72.1 59.08 72.1 48.9 72.1 48.9 L 75 48.9 L 75 75.6 L 72.1 75.6 Z M 72.1 70.4 C 72.1 70.4 72.1 61.5 72.1 61.5 C 71.4 59.8 69.6 58.4 67.7 58.4 C 64.6 58.4 63.1 61.8 63.1 66 C 63.1 70.1 64.6 73.5 67.7 73.5 C 69.6 73.5 71.4 72.1 72.1 70.4 Z M 79.7 51.5 C 79.7 50.4 80.6 49.6 81.7 49.6 C 82.7 49.6 83.6 50.4 83.6 51.5 C 83.6 52.6 82.7 53.5 81.7 53.5 C 80.6 53.5 79.7 52.6 79.7 51.5 Z M 80.3 75.6 L 80.3 56.3 L 83.1 56.3 L 83.1 75.6 L 80.3 75.6 Z M 86.8 73.4 C 86.8 73.4 88.3 71.3 88.3 71.3 C 89.4 72.7 91.2 73.8 93.3 73.8 C 95.5 73.8 97 72.5 97 70.6 C 97 66.1 87.4 67.7 87.4 61 C 87.4 58.1 89.7 55.8 93.5 55.8 C 96.1 55.8 98.1 56.8 99.4 58.3 C 99.4 58.3 98.1 60.2 98.1 60.2 C 97.1 59 95.5 58.1 93.6 58.1 C 91.5 58.1 90.1 59.4 90.1 60.9 C 90.1 65 99.8 63.6 99.8 70.6 C 99.8 73.8 97.3 76.1 93.3 76.1 C 90.6 76.1 88.4 75.2 86.8 73.4 Z M 114.3 75.6 C 114.3 75.6 114.34 61.8 114.3 61.8 C 114.3 59.2 113.1 58.4 111.2 58.4 C 109.3 58.4 107.6 59.8 106.7 61.4 C 106.7 61.44 106.7 75.6 106.7 75.6 L 103.9 75.6 L 103.9 48.9 L 106.7 48.9 C 106.7 48.9 106.7 59.04 106.7 59 C 107.8 57.4 110 55.8 112.3 55.8 C 115.6 55.8 117.2 57.4 117.2 61 C 117.18 60.96 117.2 75.6 117.2 75.6 L 114.3 75.6 Z M 145.3 75.6 L 141.2 60.1 L 137 75.6 L 134.1 75.6 L 128.9 56.3 L 131.9 56.3 L 135.7 71.7 L 139.8 56.3 L 142.5 56.3 L 146.6 71.7 L 150.4 56.3 L 153.4 56.3 L 148.3 75.6 L 145.3 75.6 Z M 166.5 75.6 C 166.5 75.6 166.5 73.52 166.5 73.5 C 165.3 75.3 163.4 76.1 161.4 76.1 C 158.3 76.1 155.6 73.7 155.6 69.6 C 155.6 65.6 158.3 63.3 161.4 63.3 C 163.4 63.3 165.3 64 166.5 65.8 C 166.5 65.8 166.5 62.4 166.5 62.4 C 166.5 59.8 165.1 58.3 162.5 58.3 C 160.7 58.3 159.2 59 157.7 60.6 C 157.7 60.6 156.4 58.6 156.4 58.6 C 158.3 56.7 160.5 55.8 163 55.8 C 166.8 55.8 169.4 57.7 169.4 62.1 C 169.38 62.08 169.4 75.6 169.4 75.6 L 166.5 75.6 Z M 166.5 71.6 C 166.5 71.6 166.5 67.9 166.5 67.9 C 165.6 66.2 164 65.4 162.3 65.4 C 159.9 65.4 158.5 67.3 158.5 69.7 C 158.5 72.1 159.9 74 162.3 74 C 164 74 165.6 73.2 166.5 71.6 Z M 173.1 73.4 C 173.1 73.4 174.5 71.3 174.5 71.3 C 175.6 72.7 177.5 73.8 179.5 73.8 C 181.8 73.8 183.3 72.5 183.3 70.6 C 183.3 66.1 173.6 67.7 173.6 61 C 173.6 58.1 175.9 55.8 179.8 55.8 C 182.3 55.8 184.3 56.8 185.7 58.3 C 185.7 58.3 184.3 60.2 184.3 60.2 C 183.3 59 181.7 58.1 179.8 58.1 C 177.7 58.1 176.4 59.4 176.4 60.9 C 176.4 65 186 63.6 186 70.6 C 186 73.8 183.5 76.1 179.6 76.1 C 176.9 76.1 174.7 75.2 173.1 73.4 Z M 208.6 75.6 C 208.6 75.6 208.62 73.52 208.6 73.5 C 207.4 75.3 205.5 76.1 203.5 76.1 C 200.4 76.1 197.7 73.7 197.7 69.6 C 197.7 65.6 200.4 63.3 203.5 63.3 C 205.5 63.3 207.4 64 208.6 65.8 C 208.6 65.8 208.6 62.4 208.6 62.4 C 208.6 59.8 207.2 58.3 204.7 58.3 C 202.9 58.3 201.3 59 199.8 60.6 C 199.8 60.6 198.5 58.6 198.5 58.6 C 200.4 56.7 202.7 55.8 205.1 55.8 C 208.9 55.8 211.5 57.7 211.5 62.1 C 211.5 62.08 211.5 75.6 211.5 75.6 L 208.6 75.6 Z M 208.6 71.6 C 208.6 71.6 208.6 67.9 208.6 67.9 C 207.7 66.2 206.1 65.4 204.5 65.4 C 202.1 65.4 200.6 67.3 200.6 69.7 C 200.6 72.1 202.1 74 204.5 74 C 206.1 74 207.7 73.2 208.6 71.6 Z M 235.8 75.6 C 235.8 75.6 235.82 61.8 235.8 61.8 C 235.8 59.2 234.6 58.4 232.7 58.4 C 230.8 58.4 229.1 59.8 228.2 61.4 C 228.18 61.44 228.2 75.6 228.2 75.6 L 225.3 75.6 L 225.3 48.9 L 228.2 48.9 C 228.2 48.9 228.18 59.04 228.2 59 C 229.3 57.4 231.5 55.8 233.8 55.8 C 237.1 55.8 238.7 57.4 238.7 61 C 238.66 60.96 238.7 75.6 238.7 75.6 L 235.8 75.6 Z M 254.4 75.6 C 254.4 75.6 254.38 72.92 254.4 72.9 C 253.2 74.6 251.2 76.1 248.8 76.1 C 245.5 76.1 243.9 74.4 243.9 70.9 C 243.94 70.92 243.9 56.3 243.9 56.3 L 246.8 56.3 C 246.8 56.3 246.78 70.08 246.8 70.1 C 246.8 72.6 248 73.5 249.9 73.5 C 251.8 73.5 253.5 72.1 254.4 70.5 C 254.38 70.52 254.4 56.3 254.4 56.3 L 257.3 56.3 L 257.3 75.6 L 254.4 75.6 Z M 262.4 81 C 262.4 81 263.7 78.8 263.7 78.8 C 265 80.2 266.6 81 268.7 81 C 271.4 81 273.6 79.5 273.6 75.8 C 273.6 75.8 273.6 72.5 273.6 72.5 C 272.5 74.5 270.5 75.8 268.5 75.8 C 264.2 75.8 261.6 71.9 261.6 65.8 C 261.6 59.8 264.1 55.8 268.5 55.8 C 270.5 55.8 272.4 56.9 273.6 59.1 C 273.58 59.08 273.6 56.3 273.6 56.3 L 276.5 56.3 C 276.5 56.3 276.46 75.56 276.5 75.6 C 276.5 81.5 272.9 83.4 268.8 83.4 C 266.2 83.4 264.2 82.8 262.4 81 Z M 273.6 70.1 C 273.6 70.1 273.6 61.5 273.6 61.5 C 272.9 59.8 271.1 58.4 269.2 58.4 C 266.1 58.4 264.6 61.7 264.6 65.8 C 264.6 70 266.1 73.3 269.2 73.3 C 271.1 73.3 272.9 71.8 273.6 70.1 Z M 280.7 65.9 C 280.7 60.3 283.7 55.8 288.6 55.8 C 293.7 55.8 296.2 60.4 296.2 66 C 296.22 66 296.2 66.9 296.2 66.9 C 296.2 66.9 283.7 66.88 283.7 66.9 C 283.8 70.8 285.8 73.7 289.3 73.7 C 290.9 73.7 292.7 72.8 293.9 71.3 C 293.9 71.3 295.4 73 295.4 73 C 293.8 74.9 291.6 76.1 289 76.1 C 283.9 76.1 280.7 71.8 280.7 65.9 Z M 288.5 58.2 C 285.1 58.2 283.8 61.9 283.7 64.8 C 283.7 64.8 293.4 64.8 293.4 64.8 C 293.3 61.8 292.1 58.2 288.5 58.2 Z M 309.7 75.6 L 309.7 58.8 L 307.1 58.8 L 307.1 56.3 L 309.7 56.3 C 309.7 56.3 309.7 53.92 309.7 53.9 C 309.7 50.6 311.5 48.5 314.5 48.5 C 315.8 48.5 317 48.9 318 49.8 C 318 49.8 316.9 51.8 316.9 51.8 C 316.3 51.3 315.7 51 315 51 C 313.4 51 312.6 52 312.6 53.9 C 312.58 53.92 312.6 56.3 312.6 56.3 L 315.9 56.3 L 315.9 58.8 L 312.6 58.8 L 312.6 75.6 L 309.7 75.6 Z M 329.1 75.6 C 329.1 75.6 329.1 73.52 329.1 73.5 C 327.9 75.3 326 76.1 324 76.1 C 320.9 76.1 318.2 73.7 318.2 69.6 C 318.2 65.6 320.9 63.3 324 63.3 C 326 63.3 327.9 64 329.1 65.8 C 329.1 65.8 329.1 62.4 329.1 62.4 C 329.1 59.8 327.7 58.3 325.1 58.3 C 323.3 58.3 321.8 59 320.3 60.6 C 320.3 60.6 319 58.6 319 58.6 C 320.9 56.7 323.1 55.8 325.6 55.8 C 329.4 55.8 332 57.7 332 62.1 C 331.98 62.08 332 75.6 332 75.6 L 329.1 75.6 Z M 329.1 71.6 C 329.1 71.6 329.1 67.9 329.1 67.9 C 328.2 66.2 326.6 65.4 324.9 65.4 C 322.5 65.4 321.1 67.3 321.1 69.7 C 321.1 72.1 322.5 74 324.9 74 C 326.6 74 328.2 73.2 329.1 71.6 Z M 341.1 75.6 L 334.8 56.3 L 337.9 56.3 L 342.7 72.2 L 347.6 56.3 L 350.7 56.3 L 344.3 75.6 L 341.1 75.6 Z M 352.6 65.9 C 352.6 60.5 355.3 55.8 360.4 55.8 C 365.6 55.8 368.3 60.5 368.3 65.9 C 368.3 71.4 365.6 76.1 360.4 76.1 C 355.3 76.1 352.6 71.4 352.6 65.9 Z M 365.3 65.9 C 365.3 62 363.8 58.4 360.4 58.4 C 357.1 58.4 355.6 62 355.6 65.9 C 355.6 69.8 357.1 73.5 360.4 73.5 C 363.8 73.5 365.3 69.8 365.3 65.9 Z M 383.1 75.6 C 383.1 75.6 383.06 72.92 383.1 72.9 C 381.9 74.6 379.9 76.1 377.5 76.1 C 374.2 76.1 372.6 74.4 372.6 70.9 C 372.62 70.92 372.6 56.3 372.6 56.3 L 375.5 56.3 C 375.5 56.3 375.46 70.08 375.5 70.1 C 375.5 72.6 376.7 73.5 378.5 73.5 C 380.5 73.5 382.2 72.1 383.1 70.5 C 383.06 70.52 383.1 56.3 383.1 56.3 L 385.9 56.3 L 385.9 75.6 L 383.1 75.6 Z M 391.2 75.6 L 391.2 56.3 L 394.1 56.3 C 394.1 56.3 394.06 59.36 394.1 59.4 C 395.3 57.3 397.2 55.9 399.5 55.9 C 399.5 55.9 399.5 58.8 399.5 58.8 C 399.2 58.8 398.9 58.7 398.6 58.7 C 396.8 58.7 394.9 60.3 394.1 61.9 C 394.06 61.88 394.1 75.6 394.1 75.6 L 391.2 75.6 Z M 402.3 51.5 C 402.3 50.4 403.2 49.6 404.3 49.6 C 405.3 49.6 406.2 50.4 406.2 51.5 C 406.2 52.6 405.3 53.5 404.3 53.5 C 403.2 53.5 402.3 52.6 402.3 51.5 Z M 402.9 75.6 L 402.9 56.3 L 405.7 56.3 L 405.7 75.6 L 402.9 75.6 Z M 411.5 71.7 C 411.54 71.72 411.5 58.8 411.5 58.8 L 409 58.8 L 409 56.3 L 411.5 56.3 L 411.5 51 L 414.4 51 L 414.4 56.3 L 417.7 56.3 L 417.7 58.8 L 414.4 58.8 C 414.4 58.8 414.42 71.2 414.4 71.2 C 414.4 72.7 414.9 73.5 416 73.5 C 416.7 73.5 417.3 73.2 417.7 72.8 C 417.7 72.8 418.5 74.9 418.5 74.9 C 417.9 75.6 416.9 76.1 415.4 76.1 C 412.8 76.1 411.5 74.6 411.5 71.7 Z M 420.5 65.9 C 420.5 60.3 423.5 55.8 428.4 55.8 C 433.5 55.8 436 60.4 436 66 C 436.01 66 436 66.9 436 66.9 C 436 66.9 423.49 66.88 423.5 66.9 C 423.6 70.8 425.6 73.7 429.1 73.7 C 430.7 73.7 432.5 72.8 433.7 71.3 C 433.7 71.3 435.2 73 435.2 73 C 433.6 74.9 431.4 76.1 428.8 76.1 C 423.7 76.1 420.5 71.8 420.5 65.9 Z M 428.3 58.2 C 424.9 58.2 423.6 61.9 423.5 64.8 C 423.5 64.8 433.2 64.8 433.2 64.8 C 433.1 61.8 431.9 58.2 428.3 58.2 Z " stroke="none" fill="#b13d24"/>  </g>  <g id="Polygon148445">    <path d="M 4.8 31.6 L 4.8 4.9 C 4.8 4.9 11.9 4.92 11.9 4.9 C 18.8 4.9 22.6 10.6 22.6 18.3 C 22.6 26 18.8 31.6 11.9 31.6 C 11.9 31.6 4.8 31.6 4.8 31.6 Z M 19.3 18.3 C 19.3 12.2 16.9 7.7 11.9 7.7 C 11.9 7.72 8 7.7 8 7.7 L 8 28.8 C 8 28.8 11.9 28.76 11.9 28.8 C 16.8 28.8 19.3 24.3 19.3 18.3 Z M 26.2 21.9 C 26.2 16.3 29.2 11.8 34.1 11.8 C 39.1 11.8 41.7 16.4 41.7 22 C 41.7 22 41.7 22.9 41.7 22.9 C 41.7 22.9 29.18 22.88 29.2 22.9 C 29.3 26.8 31.3 29.7 34.7 29.7 C 36.4 29.7 38.1 28.8 39.3 27.3 C 39.3 27.3 40.9 29 40.9 29 C 39.3 30.9 37.1 32.1 34.5 32.1 C 29.3 32.1 26.2 27.8 26.2 21.9 Z M 34 14.2 C 30.6 14.2 29.3 17.9 29.2 20.8 C 29.2 20.8 38.9 20.8 38.9 20.8 C 38.8 17.8 37.5 14.2 34 14.2 Z M 45.9 31.6 L 45.9 4.9 L 48.7 4.9 L 48.7 31.6 L 45.9 31.6 Z M 53.5 7.5 C 53.5 6.4 54.4 5.6 55.4 5.6 C 56.5 5.6 57.4 6.4 57.4 7.5 C 57.4 8.6 56.5 9.5 55.4 9.5 C 54.4 9.5 53.5 8.6 53.5 7.5 Z M 54 31.6 L 54 12.3 L 56.9 12.3 L 56.9 31.6 L 54 31.6 Z M 62 37 C 62 37 63.3 34.8 63.3 34.8 C 64.6 36.2 66.2 37 68.3 37 C 71 37 73.2 35.5 73.2 31.8 C 73.2 31.8 73.2 28.5 73.2 28.5 C 72.1 30.5 70.1 31.8 68.1 31.8 C 63.8 31.8 61.2 27.9 61.2 21.8 C 61.2 15.8 63.7 11.8 68.1 11.8 C 70.1 11.8 72 12.9 73.2 15.1 C 73.18 15.08 73.2 12.3 73.2 12.3 L 76.1 12.3 C 76.1 12.3 76.06 31.56 76.1 31.6 C 76.1 37.5 72.5 39.4 68.4 39.4 C 65.8 39.4 63.8 38.8 62 37 Z M 73.2 26.1 C 73.2 26.1 73.2 17.5 73.2 17.5 C 72.5 15.8 70.7 14.4 68.8 14.4 C 65.7 14.4 64.2 17.7 64.2 21.8 C 64.2 26 65.7 29.3 68.8 29.3 C 70.7 29.3 72.5 27.8 73.2 26.1 Z M 91.8 31.6 C 91.8 31.6 91.78 17.8 91.8 17.8 C 91.8 15.2 90.6 14.4 88.7 14.4 C 86.8 14.4 85 15.8 84.1 17.4 C 84.14 17.44 84.1 31.6 84.1 31.6 L 81.3 31.6 L 81.3 4.9 L 84.1 4.9 C 84.1 4.9 84.14 15.04 84.1 15 C 85.3 13.4 87.5 11.8 89.8 11.8 C 93.1 11.8 94.6 13.4 94.6 17 C 94.62 16.96 94.6 31.6 94.6 31.6 L 91.8 31.6 Z M 100.5 27.7 C 100.46 27.72 100.5 14.8 100.5 14.8 L 97.9 14.8 L 97.9 12.3 L 100.5 12.3 L 100.5 7 L 103.3 7 L 103.3 12.3 L 106.6 12.3 L 106.6 14.8 L 103.3 14.8 C 103.3 14.8 103.34 27.2 103.3 27.2 C 103.3 28.7 103.8 29.5 104.9 29.5 C 105.6 29.5 106.2 29.2 106.6 28.8 C 106.6 28.8 107.5 30.9 107.5 30.9 C 106.8 31.6 105.8 32.1 104.3 32.1 C 101.7 32.1 100.5 30.6 100.5 27.7 Z M 111.1 31.6 L 111.1 14.8 L 108.5 14.8 L 108.5 12.3 L 111.1 12.3 C 111.1 12.3 111.1 9.92 111.1 9.9 C 111.1 6.6 112.9 4.5 115.9 4.5 C 117.2 4.5 118.4 4.9 119.4 5.8 C 119.4 5.8 118.3 7.8 118.3 7.8 C 117.7 7.3 117.1 7 116.4 7 C 114.8 7 114 8 114 9.9 C 113.98 9.92 114 12.3 114 12.3 L 117.3 12.3 L 117.3 14.8 L 114 14.8 L 114 31.6 L 111.1 31.6 Z M 131 31.6 C 131 31.6 131.02 28.92 131 28.9 C 129.9 30.6 127.8 32.1 125.4 32.1 C 122.1 32.1 120.6 30.4 120.6 26.9 C 120.58 26.92 120.6 12.3 120.6 12.3 L 123.4 12.3 C 123.4 12.3 123.42 26.08 123.4 26.1 C 123.4 28.6 124.6 29.5 126.5 29.5 C 128.4 29.5 130.2 28.1 131 26.5 C 131.02 26.52 131 12.3 131 12.3 L 133.9 12.3 L 133.9 31.6 L 131 31.6 Z M 139.2 31.6 L 139.2 4.9 L 142 4.9 L 142 31.6 L 139.2 31.6 Z M 147.3 31.6 L 147.3 4.9 L 150.1 4.9 L 150.1 31.6 L 147.3 31.6 Z M 154.9 36.6 C 155.2 36.8 155.8 36.9 156.1 36.9 C 157.3 36.9 157.9 36.4 158.4 35 C 158.42 34.96 159.5 32 159.5 32 L 153 12.3 L 156.1 12.3 L 160.9 28.1 L 165.8 12.3 L 168.9 12.3 C 168.9 12.3 161.14 35.68 161.1 35.7 C 160.2 38.5 158.6 39.4 156.3 39.4 C 155.7 39.4 154.9 39.3 154.4 39.2 C 154.4 39.2 154.9 36.6 154.9 36.6 Z M 179.4 21.9 C 179.4 16.2 182.4 11.8 187.4 11.8 C 190.1 11.8 191.7 12.9 192.9 14.4 C 192.9 14.4 191.3 16.3 191.3 16.3 C 190.3 14.9 189.1 14.4 187.6 14.4 C 184.2 14.4 182.4 17.8 182.4 21.9 C 182.4 26 184.2 29.5 187.6 29.5 C 189.1 29.5 190.3 28.9 191.3 27.6 C 191.3 27.6 192.9 29.5 192.9 29.5 C 191.7 31 190.1 32.1 187.4 32.1 C 182.4 32.1 179.4 27.6 179.4 21.9 Z M 196.6 31.6 L 196.6 12.3 L 199.4 12.3 C 199.4 12.3 199.42 15.36 199.4 15.4 C 200.7 13.3 202.5 11.9 204.9 11.9 C 204.9 11.9 204.9 14.8 204.9 14.8 C 204.6 14.8 204.3 14.7 203.9 14.7 C 202.2 14.7 200.2 16.3 199.4 17.9 C 199.42 17.88 199.4 31.6 199.4 31.6 L 196.6 31.6 Z M 207.7 7.5 C 207.7 6.4 208.6 5.6 209.6 5.6 C 210.7 5.6 211.6 6.4 211.6 7.5 C 211.6 8.6 210.7 9.5 209.6 9.5 C 208.6 9.5 207.7 8.6 207.7 7.5 Z M 208.2 31.6 L 208.2 12.3 L 211.1 12.3 L 211.1 31.6 L 208.2 31.6 Z M 214.8 29.4 C 214.8 29.4 216.2 27.3 216.2 27.3 C 217.3 28.7 219.2 29.8 221.3 29.8 C 223.5 29.8 225 28.5 225 26.6 C 225 22.1 215.3 23.7 215.3 17 C 215.3 14.1 217.7 11.8 221.5 11.8 C 224.1 11.8 226 12.8 227.4 14.3 C 227.4 14.3 226 16.2 226 16.2 C 225.1 15 223.4 14.1 221.5 14.1 C 219.4 14.1 218.1 15.4 218.1 16.9 C 218.1 21 227.7 19.6 227.7 26.6 C 227.7 29.8 225.3 32.1 221.3 32.1 C 218.6 32.1 216.4 31.2 214.8 29.4 Z M 234.7 28.8 C 234.66 28.8 234.7 39 234.7 39 L 231.8 39 L 231.8 12.3 L 234.7 12.3 C 234.7 12.3 234.66 15.04 234.7 15 C 235.8 13.1 237.7 11.8 239.7 11.8 C 244.1 11.8 246.7 15.8 246.7 21.9 C 246.7 28 244.1 32.1 239.7 32.1 C 237.8 32.1 235.9 31 234.7 28.8 Z M 243.7 21.9 C 243.7 17.8 242.2 14.4 239 14.4 C 237.2 14.4 235.4 15.8 234.7 17.5 C 234.7 17.5 234.7 26.3 234.7 26.3 C 235.4 28 237.2 29.5 239 29.5 C 242.2 29.5 243.7 26.1 243.7 21.9 Z M 250.4 36.6 C 250.7 36.8 251.3 36.9 251.7 36.9 C 252.8 36.9 253.4 36.4 253.9 35 C 253.94 34.96 255 32 255 32 L 248.5 12.3 L 251.7 12.3 L 256.5 28.1 L 261.3 12.3 L 264.4 12.3 C 264.4 12.3 256.66 35.68 256.7 35.7 C 255.7 38.5 254.1 39.4 251.9 39.4 C 251.3 39.4 250.4 39.3 249.9 39.2 C 249.9 39.2 250.4 36.6 250.4 36.6 Z M 285.8 31.6 C 285.8 31.6 285.78 29.52 285.8 29.5 C 284.5 31.3 282.7 32.1 280.7 32.1 C 277.6 32.1 274.9 29.7 274.9 25.6 C 274.9 21.6 277.5 19.3 280.7 19.3 C 282.7 19.3 284.6 20 285.8 21.8 C 285.8 21.8 285.8 18.4 285.8 18.4 C 285.8 15.8 284.3 14.3 281.8 14.3 C 280 14.3 278.5 15 277 16.6 C 277 16.6 275.7 14.6 275.7 14.6 C 277.5 12.7 279.8 11.8 282.3 11.8 C 286.1 11.8 288.7 13.7 288.7 18.1 C 288.66 18.08 288.7 31.6 288.7 31.6 L 285.8 31.6 Z M 285.8 27.6 C 285.8 27.6 285.8 23.9 285.8 23.9 C 284.9 22.2 283.3 21.4 281.6 21.4 C 279.2 21.4 277.8 23.3 277.8 25.7 C 277.8 28.1 279.2 30 281.6 30 C 283.3 30 284.9 29.2 285.8 27.6 Z M 304.3 31.6 C 304.3 31.6 304.34 17.84 304.3 17.8 C 304.3 15.3 303.2 14.4 301.3 14.4 C 299.4 14.4 297.6 15.8 296.7 17.4 C 296.74 17.44 296.7 31.6 296.7 31.6 L 293.9 31.6 L 293.9 12.3 L 296.7 12.3 C 296.7 12.3 296.74 15.04 296.7 15 C 297.9 13.4 300 11.8 302.3 11.8 C 305.6 11.8 307.2 13.6 307.2 17 C 307.22 17.04 307.2 31.6 307.2 31.6 L 304.3 31.6 Z M 323.5 31.6 C 323.5 31.6 323.54 28.84 323.5 28.8 C 322.4 30.8 320.5 32.1 318.5 32.1 C 314.1 32.1 311.5 28 311.5 22 C 311.5 16 314.1 11.8 318.5 11.8 C 320.4 11.8 322.4 12.9 323.5 15.1 C 323.54 15.08 323.5 4.9 323.5 4.9 L 326.4 4.9 L 326.4 31.6 L 323.5 31.6 Z M 323.5 26.4 C 323.5 26.4 323.5 17.5 323.5 17.5 C 322.8 15.8 321 14.4 319.2 14.4 C 316 14.4 314.5 17.8 314.5 22 C 314.5 26.1 316 29.5 319.2 29.5 C 321 29.5 322.8 28.1 323.5 26.4 Z M 338.7 29.4 C 338.7 29.4 340.2 27.3 340.2 27.3 C 341.3 28.7 343.1 29.8 345.2 29.8 C 347.5 29.8 348.9 28.5 348.9 26.6 C 348.9 22.1 339.3 23.7 339.3 17 C 339.3 14.1 341.6 11.8 345.5 11.8 C 348 11.8 350 12.8 351.3 14.3 C 351.3 14.3 350 16.2 350 16.2 C 349 15 347.4 14.1 345.5 14.1 C 343.4 14.1 342.1 15.4 342.1 16.9 C 342.1 21 351.7 19.6 351.7 26.6 C 351.7 29.8 349.2 32.1 345.3 32.1 C 342.5 32.1 340.3 31.2 338.7 29.4 Z M 365.7 31.6 C 365.7 31.6 365.7 29.52 365.7 29.5 C 364.5 31.3 362.6 32.1 360.6 32.1 C 357.5 32.1 354.8 29.7 354.8 25.6 C 354.8 21.6 357.5 19.3 360.6 19.3 C 362.6 19.3 364.5 20 365.7 21.8 C 365.7 21.8 365.7 18.4 365.7 18.4 C 365.7 15.8 364.3 14.3 361.7 14.3 C 359.9 14.3 358.4 15 356.9 16.6 C 356.9 16.6 355.6 14.6 355.6 14.6 C 357.5 12.7 359.7 11.8 362.2 11.8 C 366 11.8 368.6 13.7 368.6 18.1 C 368.58 18.08 368.6 31.6 368.6 31.6 L 365.7 31.6 Z M 365.7 27.6 C 365.7 27.6 365.7 23.9 365.7 23.9 C 364.8 22.2 363.2 21.4 361.5 21.4 C 359.1 21.4 357.7 23.3 357.7 25.7 C 357.7 28.1 359.1 30 361.5 30 C 363.2 30 364.8 29.2 365.7 27.6 Z M 373.8 31.6 L 373.8 4.9 L 376.7 4.9 L 376.7 31.6 L 373.8 31.6 Z M 382.5 27.7 C 382.5 27.72 382.5 14.8 382.5 14.8 L 379.9 14.8 L 379.9 12.3 L 382.5 12.3 L 382.5 7 L 385.4 7 L 385.4 12.3 L 388.7 12.3 L 388.7 14.8 L 385.4 14.8 C 385.4 14.8 385.38 27.2 385.4 27.2 C 385.4 28.7 385.8 29.5 386.9 29.5 C 387.7 29.5 388.3 29.2 388.6 28.8 C 388.6 28.8 389.5 30.9 389.5 30.9 C 388.8 31.6 387.9 32.1 386.4 32.1 C 383.7 32.1 382.5 30.6 382.5 27.7 Z M 391.9 36.6 C 392.3 36.8 392.9 36.9 393.2 36.9 C 394.3 36.9 394.9 36.4 395.5 35 C 395.45 34.96 396.5 32 396.5 32 L 390.1 12.3 L 393.2 12.3 L 398 28.1 L 402.8 12.3 L 405.9 12.3 C 405.9 12.3 398.17 35.68 398.2 35.7 C 397.2 38.5 395.7 39.4 393.4 39.4 C 392.8 39.4 391.9 39.3 391.5 39.2 C 391.5 39.2 391.9 36.6 391.9 36.6 Z M 407.9 36.6 C 407.9 36.6 406.4 35.5 406.4 35.5 C 407.7 34.6 408.8 33 409 31.8 C 408.9 31.8 408.6 31.8 408.5 31.8 C 407.4 31.8 406.6 31 406.6 29.8 C 406.6 28.7 407.5 27.7 408.7 27.7 C 409.9 27.7 411.1 28.8 411.1 30.7 C 411.1 33.1 409.7 35.4 407.9 36.6 Z " stroke="none" fill="#b13d24"/>  </g></svg>