<?xml version="1.0" standalone="no"?><!DOCTYPE svg PUBLIC "-//W3C//DTD SVG 1.1//EN" "http://www.w3.org/Graphics/SVG/1.1/DTD/svg11.dtd"><svg xmlns="http://www.w3.org/2000/svg" version="1.1" width="219px" height="373.3px" viewBox="0 0 219 373.3">  <desc>450 ml 125 ml 15 ml 20 g 3 ml tsp tsp 15 g 20 ml to taste</desc>  <defs/>  <g id="Polygon155588">    <path d="M 2.4 353.8 C 2.4 353.79 2.4 344.1 2.4 344.1 L 0.5 344.1 L 0.5 342.2 L 2.4 342.2 L 2.4 338.3 L 4.6 338.3 L 4.6 342.2 L 7 342.2 L 7 344.1 L 4.6 344.1 C 4.6 344.1 4.56 353.4 4.6 353.4 C 4.6 354.5 4.9 355.1 5.7 355.1 C 6.3 355.1 6.7 354.9 7 354.6 C 7 354.6 7.6 356.2 7.6 356.2 C 7.1 356.7 6.4 357.1 5.3 357.1 C 3.3 357.1 2.4 356 2.4 353.8 Z M 9.1 349.4 C 9.1 345.4 11.2 341.9 15 341.9 C 18.9 341.9 20.9 345.4 20.9 349.4 C 20.9 353.5 18.9 357.1 15 357.1 C 11.2 357.1 9.1 353.5 9.1 349.4 Z M 18.7 349.4 C 18.7 346.5 17.6 343.8 15 343.8 C 12.5 343.8 11.4 346.5 11.4 349.4 C 11.4 352.4 12.5 355.1 15 355.1 C 17.6 355.1 18.7 352.4 18.7 349.4 Z M 31 353.8 C 31.05 353.79 31 344.1 31 344.1 L 29.1 344.1 L 29.1 342.2 L 31 342.2 L 31 338.3 L 33.2 338.3 L 33.2 342.2 L 35.7 342.2 L 35.7 344.1 L 33.2 344.1 C 33.2 344.1 33.21 353.4 33.2 353.4 C 33.2 354.5 33.5 355.1 34.4 355.1 C 34.9 355.1 35.4 354.9 35.6 354.6 C 35.6 354.6 36.3 356.2 36.3 356.2 C 35.8 356.7 35.1 357.1 34 357.1 C 32 357.1 31 356 31 353.8 Z M 46 356.7 C 46 356.7 45.96 355.14 46 355.1 C 45 356.5 43.6 357.1 42.1 357.1 C 39.8 357.1 37.8 355.3 37.8 352.2 C 37.8 349.2 39.8 347.5 42.1 347.5 C 43.6 347.5 45.1 348 46 349.3 C 46 349.3 46 346.8 46 346.8 C 46 344.8 44.9 343.7 43 343.7 C 41.6 343.7 40.5 344.2 39.4 345.5 C 39.4 345.5 38.4 344 38.4 344 C 39.8 342.5 41.5 341.9 43.3 341.9 C 46.2 341.9 48.1 343.3 48.1 346.6 C 48.12 346.56 48.1 356.7 48.1 356.7 L 46 356.7 Z M 46 353.7 C 46 353.7 46 350.9 46 350.9 C 45.3 349.7 44.1 349.1 42.8 349.1 C 41 349.1 40 350.5 40 352.3 C 40 354.1 41 355.5 42.8 355.5 C 44.1 355.5 45.3 354.9 46 353.7 Z M 50.9 355 C 50.9 355 52 353.5 52 353.5 C 52.8 354.5 54.2 355.3 55.7 355.3 C 57.4 355.3 58.5 354.4 58.5 353 C 58.5 349.6 51.3 350.8 51.3 345.8 C 51.3 343.6 53 341.9 55.9 341.9 C 57.8 341.9 59.3 342.6 60.3 343.7 C 60.3 343.7 59.3 345.2 59.3 345.2 C 58.6 344.2 57.4 343.6 55.9 343.6 C 54.4 343.6 53.4 344.5 53.4 345.7 C 53.4 348.8 60.6 347.7 60.6 352.9 C 60.6 355.3 58.7 357.1 55.8 357.1 C 53.7 357.1 52.1 356.4 50.9 355 Z M 64.1 353.8 C 64.08 353.79 64.1 344.1 64.1 344.1 L 62.2 344.1 L 62.2 342.2 L 64.1 342.2 L 64.1 338.3 L 66.2 338.3 L 66.2 342.2 L 68.7 342.2 L 68.7 344.1 L 66.2 344.1 C 66.2 344.1 66.24 353.4 66.2 353.4 C 66.2 354.5 66.6 355.1 67.4 355.1 C 67.9 355.1 68.4 354.9 68.7 354.6 C 68.7 354.6 69.3 356.2 69.3 356.2 C 68.8 356.7 68.1 357.1 67 357.1 C 65 357.1 64.1 356 64.1 353.8 Z M 70.8 349.4 C 70.8 345.2 73 341.9 76.7 341.9 C 80.5 341.9 82.4 345.3 82.4 349.5 C 82.44 349.5 82.4 350.2 82.4 350.2 C 82.4 350.2 73.05 350.16 73 350.2 C 73.1 353.1 74.6 355.3 77.2 355.3 C 78.5 355.3 79.8 354.6 80.7 353.5 C 80.7 353.5 81.8 354.8 81.8 354.8 C 80.6 356.2 79 357.1 77 357.1 C 73.2 357.1 70.8 353.9 70.8 349.4 Z M 76.7 343.7 C 74.1 343.7 73.1 346.4 73 348.6 C 73 348.6 80.3 348.6 80.3 348.6 C 80.3 346.4 79.3 343.7 76.7 343.7 Z " stroke="none" fill="#d0d1d4"/>  </g>  <g id="Polygon155587">    <path d="M 1.6 320.7 C 1.6 320.7 1.59 318.75 1.6 318.8 C 8.1 311.2 10.4 308.8 10.4 305.9 C 10.4 303.7 8.9 302.5 7.2 302.5 C 5.3 302.5 3.9 303.5 2.9 305 C 2.9 305 1.4 303.6 1.4 303.6 C 2.7 301.6 4.7 300.4 7.2 300.4 C 10.3 300.4 12.8 302.4 12.8 305.9 C 12.8 309.2 10.3 312.2 5 318.6 C 4.98 318.57 12.9 318.6 12.9 318.6 L 12.9 320.7 L 1.6 320.7 Z M 16.1 310.7 C 16.1 305.9 17.7 300.4 22.3 300.4 C 27 300.4 28.6 305.9 28.6 310.7 C 28.6 315.5 27 321.1 22.3 321.1 C 17.7 321.1 16.1 315.5 16.1 310.7 Z M 26.2 310.7 C 26.2 306.8 25.4 302.5 22.3 302.5 C 19.3 302.5 18.5 306.8 18.5 310.7 C 18.5 314.6 19.3 318.9 22.3 318.9 C 25.4 318.9 26.2 314.6 26.2 310.7 Z M 53.1 320.7 C 53.1 320.7 53.1 310.2 53.1 310.2 C 53.1 308.6 52.5 307.8 51.1 307.8 C 49.8 307.8 48.5 308.9 47.9 310.1 C 47.94 310.08 47.9 320.7 47.9 320.7 L 45.8 320.7 C 45.8 320.7 45.78 310.2 45.8 310.2 C 45.8 308.6 45.1 307.8 43.7 307.8 C 42.4 307.8 41.2 308.9 40.6 310.1 C 40.59 310.08 40.6 320.7 40.6 320.7 L 38.5 320.7 L 38.5 306.2 L 40.6 306.2 C 40.6 306.2 40.59 308.28 40.6 308.3 C 41.2 307.2 42.8 305.9 44.5 305.9 C 46.4 305.9 47.5 306.9 47.8 308.4 C 48.5 307.1 50.2 305.9 51.9 305.9 C 54 305.9 55.3 307 55.3 309.6 C 55.26 309.63 55.3 320.7 55.3 320.7 L 53.1 320.7 Z M 59.2 320.7 L 59.2 300.7 L 61.3 300.7 L 61.3 320.7 L 59.2 320.7 Z " stroke="none" fill="#d0d1d4"/>  </g>  <g id="Polygon155586">    <path d="M 5 284.7 L 5 267.8 L 1.9 271.1 L 0.4 269.6 L 5.3 264.7 L 7.3 264.7 L 7.3 284.7 L 5 284.7 Z M 11 281.8 C 11 281.8 12.6 280.4 12.6 280.4 C 13.6 282 14.9 282.9 16.8 282.9 C 19 282.9 20.4 280.9 20.4 278.6 C 20.4 275.7 19 274.2 17 274.2 C 15.6 274.2 14.5 274.7 13.3 276 C 13.35 276.03 11.6 275.4 11.6 275.4 L 11.6 264.7 L 21.8 264.7 L 21.8 266.8 L 13.9 266.8 C 13.9 266.8 13.95 273.81 13.9 273.8 C 14.7 272.9 16 272.1 17.6 272.1 C 20.5 272.1 22.8 274.4 22.8 278.5 C 22.8 282.3 20.4 285.1 16.9 285.1 C 13.9 285.1 12.2 283.8 11 281.8 Z M 32.5 288.8 C 32.5 288.8 33.5 287.1 33.5 287.1 C 34.4 288.2 35.7 288.8 37.3 288.8 C 39.2 288.8 40.9 287.6 40.9 284.8 C 40.9 284.8 40.9 282.4 40.9 282.4 C 40 283.9 38.6 284.9 37.1 284.9 C 33.8 284.9 31.9 281.9 31.9 277.4 C 31.9 272.9 33.8 269.9 37.1 269.9 C 38.5 269.9 40 270.7 40.9 272.3 C 40.89 272.31 40.9 270.2 40.9 270.2 L 43 270.2 C 43 270.2 43.05 284.67 43 284.7 C 43 289.1 40.3 290.6 37.3 290.6 C 35.4 290.6 33.9 290.1 32.5 288.8 Z M 40.9 280.6 C 40.9 280.6 40.9 274.1 40.9 274.1 C 40.3 272.9 39 271.8 37.6 271.8 C 35.2 271.8 34.1 274.3 34.1 277.4 C 34.1 280.5 35.2 283 37.6 283 C 39 283 40.3 281.8 40.9 280.6 Z " stroke="none" fill="#d0d1d4"/>  </g>  <g id="Polygon155585">    <path d="M 3.3 240.7 L 3.3 230.9 L 1.4 232.9 L 0.4 231.9 L 3.5 228.7 L 5.1 228.7 L 5.1 240.7 L 3.3 240.7 Z M 12.7 248.7 C 12.7 248.7 12.66 247.38 12.7 247.4 C 16.9 243.2 18.4 241.7 18.4 239.9 C 18.4 238.6 17.4 238 16.3 238 C 15.1 238 14.1 238.6 13.6 239.5 C 13.6 239.5 12.5 238.4 12.5 238.4 C 13.4 237.2 14.8 236.5 16.4 236.5 C 18.4 236.5 20.1 237.7 20.1 239.9 C 20.1 242 18.4 243.8 15 247.3 C 15 247.26 20.2 247.3 20.2 247.3 L 20.2 248.7 L 12.7 248.7 Z M 5 248.7 L 3.5 248.7 L 14 228.7 L 15.5 228.7 L 5 248.7 Z M 30.1 245.8 C 30.06 245.79 30.1 236.1 30.1 236.1 L 28.1 236.1 L 28.1 234.2 L 30.1 234.2 L 30.1 230.3 L 32.2 230.3 L 32.2 234.2 L 34.7 234.2 L 34.7 236.1 L 32.2 236.1 C 32.2 236.1 32.22 245.4 32.2 245.4 C 32.2 246.5 32.5 247.1 33.4 247.1 C 33.9 247.1 34.4 246.9 34.6 246.6 C 34.6 246.6 35.3 248.2 35.3 248.2 C 34.8 248.7 34.1 249.1 33 249.1 C 31 249.1 30.1 248 30.1 245.8 Z M 36.4 247 C 36.4 247 37.4 245.5 37.4 245.5 C 38.3 246.5 39.7 247.3 41.2 247.3 C 42.9 247.3 44 246.4 44 245 C 44 241.6 36.8 242.8 36.8 237.8 C 36.8 235.6 38.5 233.9 41.4 233.9 C 43.3 233.9 44.8 234.6 45.8 235.7 C 45.8 235.7 44.8 237.2 44.8 237.2 C 44.1 236.2 42.8 235.6 41.4 235.6 C 39.8 235.6 38.8 236.5 38.8 237.7 C 38.8 240.8 46.1 239.7 46.1 244.9 C 46.1 247.3 44.2 249.1 41.2 249.1 C 39.2 249.1 37.6 248.4 36.4 247 Z M 51.3 246.6 C 51.27 246.6 51.3 254.2 51.3 254.2 L 49.1 254.2 L 49.1 234.2 L 51.3 234.2 C 51.3 234.2 51.27 236.28 51.3 236.3 C 52.1 234.8 53.5 233.9 55.1 233.9 C 58.3 233.9 60.3 236.9 60.3 241.4 C 60.3 246 58.3 249.1 55.1 249.1 C 53.6 249.1 52.2 248.2 51.3 246.6 Z M 58 241.4 C 58 238.3 56.9 235.8 54.5 235.8 C 53.2 235.8 51.8 236.9 51.3 238.1 C 51.3 238.1 51.3 244.7 51.3 244.7 C 51.8 246 53.2 247.1 54.5 247.1 C 56.9 247.1 58 244.6 58 241.4 Z M 63.1 247.4 C 63.1 246.5 63.8 245.8 64.7 245.8 C 65.6 245.8 66.3 246.5 66.3 247.4 C 66.3 248.3 65.6 249 64.7 249 C 63.8 249 63.1 248.3 63.1 247.4 Z " stroke="none" fill="#d0d1d4"/>  </g>  <g id="Polygon155584">    <path d="M 3.3 204.7 L 3.3 194.9 L 1.4 196.9 L 0.4 195.9 L 3.5 192.7 L 5.1 192.7 L 5.1 204.7 L 3.3 204.7 Z M 18 209.7 L 18 212.7 L 16.3 212.7 L 16.3 209.7 L 11.2 209.7 L 11.2 208.3 L 15.7 200.7 L 18 200.7 L 18 208.3 L 19.4 208.3 L 19.4 209.7 L 18 209.7 Z M 16.3 202.5 L 12.8 208.3 L 16.3 208.3 L 16.3 202.5 Z M 5 212.7 L 3.5 212.7 L 14 192.7 L 15.5 192.7 L 5 212.7 Z M 29 209.8 C 29.04 209.79 29 200.1 29 200.1 L 27.1 200.1 L 27.1 198.2 L 29 198.2 L 29 194.3 L 31.2 194.3 L 31.2 198.2 L 33.7 198.2 L 33.7 200.1 L 31.2 200.1 C 31.2 200.1 31.2 209.4 31.2 209.4 C 31.2 210.5 31.5 211.1 32.4 211.1 C 32.9 211.1 33.4 210.9 33.6 210.6 C 33.6 210.6 34.3 212.2 34.3 212.2 C 33.8 212.7 33.1 213.1 31.9 213.1 C 30 213.1 29 212 29 209.8 Z M 35.3 211 C 35.3 211 36.4 209.5 36.4 209.5 C 37.3 210.5 38.6 211.3 40.2 211.3 C 41.9 211.3 43 210.4 43 209 C 43 205.6 35.8 206.8 35.8 201.8 C 35.8 199.6 37.5 197.9 40.4 197.9 C 42.3 197.9 43.8 198.6 44.8 199.7 C 44.8 199.7 43.8 201.2 43.8 201.2 C 43 200.2 41.8 199.6 40.4 199.6 C 38.8 199.6 37.8 200.5 37.8 201.7 C 37.8 204.8 45.1 203.7 45.1 208.9 C 45.1 211.3 43.2 213.1 40.2 213.1 C 38.2 213.1 36.5 212.4 35.3 211 Z M 50.2 210.6 C 50.25 210.6 50.2 218.2 50.2 218.2 L 48.1 218.2 L 48.1 198.2 L 50.2 198.2 C 50.2 198.2 50.25 200.28 50.2 200.3 C 51.1 198.8 52.5 197.9 54.1 197.9 C 57.3 197.9 59.2 200.9 59.2 205.4 C 59.2 210 57.3 213.1 54.1 213.1 C 52.6 213.1 51.1 212.2 50.2 210.6 Z M 57 205.4 C 57 202.3 55.9 199.8 53.5 199.8 C 52.2 199.8 50.8 200.9 50.2 202.1 C 50.2 202.1 50.2 208.7 50.2 208.7 C 50.8 210 52.2 211.1 53.5 211.1 C 55.9 211.1 57 208.6 57 205.4 Z M 62.1 211.4 C 62.1 210.5 62.8 209.8 63.7 209.8 C 64.6 209.8 65.3 210.5 65.3 211.4 C 65.3 212.3 64.6 213 63.7 213 C 62.8 213 62.1 212.3 62.1 211.4 Z " stroke="none" fill="#d0d1d4"/>  </g>  <g id="Polygon155583">    <path d="M 0.9 173.7 C 0.9 173.7 2.4 172.3 2.4 172.3 C 3.4 173.8 4.8 174.9 6.7 174.9 C 9.1 174.9 10.3 173.4 10.3 171.1 C 10.3 168.4 8.6 167.5 6.5 167.5 C 5.9 167.5 5.2 167.5 4.9 167.5 C 4.9 167.5 4.9 165.4 4.9 165.4 C 5.2 165.4 6 165.4 6.5 165.4 C 8.5 165.4 10.1 164.3 10.1 162 C 10.1 159.7 8.7 158.5 6.7 158.5 C 4.9 158.5 3.6 159.5 2.6 160.9 C 2.6 160.9 1.1 159.5 1.1 159.5 C 2.3 157.6 4.3 156.4 6.8 156.4 C 10.1 156.4 12.5 158.2 12.5 161.7 C 12.5 164.2 10.7 165.9 8.9 166.4 C 10.7 166.6 12.8 168.4 12.8 171.3 C 12.8 174.6 10.6 177.1 6.8 177.1 C 4 177.1 1.9 175.6 0.9 173.7 Z M 37.3 176.7 C 37.3 176.7 37.26 166.2 37.3 166.2 C 37.3 164.6 36.6 163.8 35.2 163.8 C 34 163.8 32.7 164.9 32.1 166.1 C 32.1 166.08 32.1 176.7 32.1 176.7 L 29.9 176.7 C 29.9 176.7 29.94 166.2 29.9 166.2 C 29.9 164.6 29.3 163.8 27.9 163.8 C 26.6 163.8 25.4 164.9 24.7 166.1 C 24.75 166.08 24.7 176.7 24.7 176.7 L 22.6 176.7 L 22.6 162.2 L 24.7 162.2 C 24.7 162.2 24.75 164.28 24.7 164.3 C 25.3 163.2 27 161.9 28.7 161.9 C 30.6 161.9 31.7 162.9 32 164.4 C 32.7 163.1 34.3 161.9 36.1 161.9 C 38.2 161.9 39.4 163 39.4 165.6 C 39.42 165.63 39.4 176.7 39.4 176.7 L 37.3 176.7 Z M 43.4 176.7 L 43.4 156.7 L 45.5 156.7 L 45.5 176.7 L 43.4 176.7 Z " stroke="none" fill="#d0d1d4"/>  </g>  <g id="Polygon155582">    <path d="M 1.6 140.7 C 1.6 140.7 1.59 138.75 1.6 138.8 C 8.1 131.2 10.4 128.8 10.4 125.9 C 10.4 123.7 8.9 122.5 7.2 122.5 C 5.3 122.5 3.9 123.5 2.9 125 C 2.9 125 1.4 123.6 1.4 123.6 C 2.7 121.6 4.7 120.4 7.2 120.4 C 10.3 120.4 12.8 122.4 12.8 125.9 C 12.8 129.2 10.3 132.2 5 138.6 C 4.98 138.57 12.9 138.6 12.9 138.6 L 12.9 140.7 L 1.6 140.7 Z M 16.1 130.7 C 16.1 125.9 17.7 120.4 22.3 120.4 C 27 120.4 28.6 125.9 28.6 130.7 C 28.6 135.5 27 141.1 22.3 141.1 C 17.7 141.1 16.1 135.5 16.1 130.7 Z M 26.2 130.7 C 26.2 126.8 25.4 122.5 22.3 122.5 C 19.3 122.5 18.5 126.8 18.5 130.7 C 18.5 134.6 19.3 138.9 22.3 138.9 C 25.4 138.9 26.2 134.6 26.2 130.7 Z M 38.3 144.8 C 38.3 144.8 39.3 143.1 39.3 143.1 C 40.3 144.2 41.5 144.8 43.1 144.8 C 45.1 144.8 46.7 143.6 46.7 140.8 C 46.7 140.8 46.7 138.4 46.7 138.4 C 45.9 139.9 44.5 140.9 42.9 140.9 C 39.7 140.9 37.7 137.9 37.7 133.4 C 37.7 128.9 39.7 125.9 42.9 125.9 C 44.4 125.9 45.8 126.7 46.7 128.3 C 46.74 128.31 46.7 126.2 46.7 126.2 L 48.9 126.2 C 48.9 126.2 48.9 140.67 48.9 140.7 C 48.9 145.1 46.2 146.6 43.2 146.6 C 41.2 146.6 39.7 146.1 38.3 144.8 Z M 46.7 136.6 C 46.7 136.6 46.7 130.1 46.7 130.1 C 46.2 128.9 44.8 127.8 43.5 127.8 C 41.1 127.8 40 130.3 40 133.4 C 40 136.5 41.1 139 43.5 139 C 44.8 139 46.2 137.8 46.7 136.6 Z " stroke="none" fill="#d0d1d4"/>  </g>  <g id="Polygon155581">    <path d="M 5 104.7 L 5 87.8 L 1.9 91.1 L 0.4 89.6 L 5.3 84.7 L 7.3 84.7 L 7.3 104.7 L 5 104.7 Z M 11 101.8 C 11 101.8 12.6 100.4 12.6 100.4 C 13.6 102 14.9 102.9 16.8 102.9 C 19 102.9 20.4 100.9 20.4 98.6 C 20.4 95.7 19 94.2 17 94.2 C 15.6 94.2 14.5 94.7 13.3 96 C 13.35 96.03 11.6 95.4 11.6 95.4 L 11.6 84.7 L 21.8 84.7 L 21.8 86.8 L 13.9 86.8 C 13.9 86.8 13.95 93.81 13.9 93.8 C 14.7 92.9 16 92.1 17.6 92.1 C 20.5 92.1 22.8 94.4 22.8 98.5 C 22.8 102.3 20.4 105.1 16.9 105.1 C 13.9 105.1 12.2 103.8 11 101.8 Z M 47.2 104.7 C 47.2 104.7 47.25 94.2 47.2 94.2 C 47.2 92.6 46.6 91.8 45.2 91.8 C 43.9 91.8 42.7 92.9 42.1 94.1 C 42.09 94.08 42.1 104.7 42.1 104.7 L 39.9 104.7 C 39.9 104.7 39.93 94.2 39.9 94.2 C 39.9 92.6 39.3 91.8 37.9 91.8 C 36.6 91.8 35.4 92.9 34.7 94.1 C 34.74 94.08 34.7 104.7 34.7 104.7 L 32.6 104.7 L 32.6 90.2 L 34.7 90.2 C 34.7 90.2 34.74 92.28 34.7 92.3 C 35.3 91.2 37 89.9 38.7 89.9 C 40.6 89.9 41.7 90.9 42 92.4 C 42.7 91.1 44.3 89.9 46 89.9 C 48.2 89.9 49.4 91 49.4 93.6 C 49.41 93.63 49.4 104.7 49.4 104.7 L 47.2 104.7 Z M 53.4 104.7 L 53.4 84.7 L 55.5 84.7 L 55.5 104.7 L 53.4 104.7 Z " stroke="none" fill="#d0d1d4"/>  </g>  <g id="Polygon155580">    <path d="M 5 68.7 L 5 51.8 L 1.9 55.1 L 0.4 53.6 L 5.3 48.7 L 7.3 48.7 L 7.3 68.7 L 5 68.7 Z M 11 68.7 C 11 68.7 11.04 66.75 11 66.8 C 17.6 59.2 19.8 56.8 19.8 53.9 C 19.8 51.7 18.3 50.5 16.6 50.5 C 14.7 50.5 13.3 51.5 12.4 53 C 12.4 53 10.8 51.6 10.8 51.6 C 12.1 49.6 14.1 48.4 16.6 48.4 C 19.7 48.4 22.3 50.4 22.3 53.9 C 22.3 57.2 19.7 60.2 14.4 66.6 C 14.43 66.57 22.3 66.6 22.3 66.6 L 22.3 68.7 L 11 68.7 Z M 25.7 65.8 C 25.7 65.8 27.3 64.4 27.3 64.4 C 28.2 66 29.5 66.9 31.5 66.9 C 33.7 66.9 35.1 64.9 35.1 62.6 C 35.1 59.7 33.7 58.2 31.6 58.2 C 30.2 58.2 29.1 58.7 28 60 C 28.02 60.03 26.2 59.4 26.2 59.4 L 26.2 48.7 L 36.4 48.7 L 36.4 50.8 L 28.6 50.8 C 28.6 50.8 28.62 57.81 28.6 57.8 C 29.4 56.9 30.7 56.1 32.3 56.1 C 35.2 56.1 37.5 58.4 37.5 62.5 C 37.5 66.3 35 69.1 31.6 69.1 C 28.6 69.1 26.9 67.8 25.7 65.8 Z M 61.9 68.7 C 61.9 68.7 61.92 58.2 61.9 58.2 C 61.9 56.6 61.3 55.8 59.9 55.8 C 58.6 55.8 57.3 56.9 56.8 58.1 C 56.76 58.08 56.8 68.7 56.8 68.7 L 54.6 68.7 C 54.6 68.7 54.6 58.2 54.6 58.2 C 54.6 56.6 54 55.8 52.6 55.8 C 51.3 55.8 50 56.9 49.4 58.1 C 49.41 58.08 49.4 68.7 49.4 68.7 L 47.3 68.7 L 47.3 54.2 L 49.4 54.2 C 49.4 54.2 49.41 56.28 49.4 56.3 C 50 55.2 51.6 53.9 53.4 53.9 C 55.2 53.9 56.4 54.9 56.6 56.4 C 57.4 55.1 59 53.9 60.7 53.9 C 62.8 53.9 64.1 55 64.1 57.6 C 64.08 57.63 64.1 68.7 64.1 68.7 L 61.9 68.7 Z M 68 68.7 L 68 48.7 L 70.2 48.7 L 70.2 68.7 L 68 68.7 Z " stroke="none" fill="#d0d1d4"/>  </g>  <g id="Polygon155579">    <path d="M 8.6 32.7 L 8.6 27.6 L 0.7 27.6 L 0.7 25.5 L 7.9 12.7 L 11 12.7 L 11 25.5 L 13.2 25.5 L 13.2 27.6 L 11 27.6 L 11 32.7 L 8.6 32.7 Z M 8.6 15.3 L 2.9 25.5 L 8.6 25.5 L 8.6 15.3 Z M 15.4 29.8 C 15.4 29.8 17 28.4 17 28.4 C 18 30 19.3 30.9 21.2 30.9 C 23.4 30.9 24.8 28.9 24.8 26.6 C 24.8 23.7 23.5 22.2 21.4 22.2 C 20 22.2 18.9 22.7 17.8 24 C 17.76 24.03 16 23.4 16 23.4 L 16 12.7 L 26.2 12.7 L 26.2 14.8 L 18.4 14.8 C 18.4 14.8 18.36 21.81 18.4 21.8 C 19.1 20.9 20.5 20.1 22 20.1 C 24.9 20.1 27.2 22.4 27.2 26.5 C 27.2 30.3 24.8 33.1 21.3 33.1 C 18.4 33.1 16.6 31.8 15.4 29.8 Z M 30 22.7 C 30 17.9 31.6 12.4 36.3 12.4 C 40.9 12.4 42.5 17.9 42.5 22.7 C 42.5 27.5 40.9 33.1 36.3 33.1 C 31.6 33.1 30 27.5 30 22.7 Z M 40.1 22.7 C 40.1 18.8 39.4 14.5 36.3 14.5 C 33.2 14.5 32.5 18.8 32.5 22.7 C 32.5 26.6 33.2 30.9 36.3 30.9 C 39.4 30.9 40.1 26.6 40.1 22.7 Z M 67 32.7 C 67 32.7 67.02 22.2 67 22.2 C 67 20.6 66.4 19.8 65 19.8 C 63.7 19.8 62.4 20.9 61.9 22.1 C 61.86 22.08 61.9 32.7 61.9 32.7 L 59.7 32.7 C 59.7 32.7 59.7 22.2 59.7 22.2 C 59.7 20.6 59.1 19.8 57.7 19.8 C 56.4 19.8 55.1 20.9 54.5 22.1 C 54.51 22.08 54.5 32.7 54.5 32.7 L 52.4 32.7 L 52.4 18.2 L 54.5 18.2 C 54.5 18.2 54.51 20.28 54.5 20.3 C 55.1 19.2 56.7 17.9 58.5 17.9 C 60.3 17.9 61.5 18.9 61.7 20.4 C 62.5 19.1 64.1 17.9 65.8 17.9 C 67.9 17.9 69.2 19 69.2 21.6 C 69.18 21.63 69.2 32.7 69.2 32.7 L 67 32.7 Z M 73.1 32.7 L 73.1 12.7 L 75.3 12.7 L 75.3 32.7 L 73.1 32.7 Z " stroke="none" fill="#d0d1d4"/>  </g></svg>