<?xml version="1.0" standalone="no"?><!DOCTYPE svg PUBLIC "-//W3C//DTD SVG 1.1//EN" "http://www.w3.org/Graphics/SVG/1.1/DTD/svg11.dtd"><svg xmlns="http://www.w3.org/2000/svg" version="1.1" width="629px" height="197.6px" viewBox="0 0 629 197.6">  <desc>Paper Pulp Coated In Paper Crumbs with Julienned Foam and Soap Chips</desc>  <defs/>  <g id="Polygon122997">    <path d="M 15.4 159.4 C 15.4 159.4 15.36 156.64 15.4 156.6 C 14.1 158.9 11.4 160.1 9.3 160.1 C 4.7 160.1 1.4 156.4 1.4 150.5 C 1.4 144.6 4.7 141 9.3 141 C 11.4 141 14.2 142.1 15.4 144.3 C 15.4 144.3 15.4 140.7 15.4 140.7 C 15.4 137.4 14 135.5 11 135.5 C 9.1 135.5 7 136.4 5.1 138.3 C 5.1 138.3 2.6 133.5 2.6 133.5 C 5.2 130.7 9.4 129.7 12.4 129.7 C 18.3 129.7 22.1 132.7 22.1 139.2 C 22.14 139.18 22.1 159.4 22.1 159.4 L 15.4 159.4 Z M 15.4 152.6 C 15.4 152.6 15.4 148.7 15.4 148.7 C 14.6 146.9 13.2 145.7 11.7 145.7 C 9.4 145.7 8.2 147.8 8.2 150.6 C 8.2 153.3 9.4 155.6 11.7 155.6 C 13.2 155.6 14.6 154.4 15.4 152.6 Z M 40.6 159.4 C 40.6 159.4 40.56 138.76 40.6 138.8 C 40.6 136.7 39.8 135.7 38.3 135.7 C 36.6 135.7 35.1 137.6 34.4 139.5 C 34.44 139.48 34.4 159.4 34.4 159.4 L 27.7 159.4 L 27.7 130.4 L 34.4 130.4 C 34.4 130.4 34.44 134.2 34.4 134.2 C 35.6 131.9 38.6 129.7 41.2 129.7 C 45.6 129.7 47.4 132.3 47.4 136.3 C 47.4 136.3 47.4 159.4 47.4 159.4 L 40.6 159.4 Z M 65.9 159.4 C 65.9 159.4 65.94 155.8 65.9 155.8 C 64.7 158.7 62.3 160.1 60.3 160.1 C 54.6 160.1 51.7 154.2 51.7 144.9 C 51.7 135.8 54.6 129.7 60.3 129.7 C 62.3 129.7 64.7 131 65.9 134 C 65.94 134.02 65.9 119.4 65.9 119.4 L 72.7 119.4 L 72.7 159.4 L 65.9 159.4 Z M 65.9 150.6 C 65.9 150.6 65.9 139.2 65.9 139.2 C 65.3 137.3 64 135.7 62.5 135.7 C 59.5 135.7 58.7 139.8 58.7 144.9 C 58.7 150 59.5 154.1 62.5 154.1 C 64 154.1 65.3 152.6 65.9 150.6 Z M 86 156.2 C 86 156.2 89.3 150.2 89.3 150.2 C 90.9 152.3 93.5 153.4 95.8 153.4 C 98.2 153.4 99.8 151.6 99.8 149 C 99.8 141.9 87.1 141.9 87.1 129.9 C 87.1 123.9 91.2 118.7 98.3 118.7 C 101.6 118.7 104.8 119.9 107 122 C 107 122 104 127.8 104 127.8 C 102.5 126.2 100.6 125.4 98.5 125.4 C 96.4 125.4 94.8 127.1 94.8 129.5 C 94.8 135.7 107.5 136.5 107.5 148.5 C 107.5 155.3 103.1 160.1 96.3 160.1 C 91.9 160.1 88.6 158.7 86 156.2 Z M 110.6 144.9 C 110.6 136.8 113.9 129.7 121.5 129.7 C 129.1 129.7 132.4 136.8 132.4 144.9 C 132.4 152.9 129.1 160.1 121.5 160.1 C 113.9 160.1 110.6 152.9 110.6 144.9 Z M 125.4 144.9 C 125.4 140 124.6 135.7 121.5 135.7 C 118.5 135.7 117.7 140 117.7 144.9 C 117.7 149.9 118.5 154.1 121.5 154.1 C 124.6 154.1 125.4 149.9 125.4 144.9 Z M 149.4 159.4 C 149.4 159.4 149.4 156.64 149.4 156.6 C 148.1 158.9 145.4 160.1 143.3 160.1 C 138.8 160.1 135.5 156.4 135.5 150.5 C 135.5 144.6 138.8 141 143.3 141 C 145.4 141 148.2 142.1 149.4 144.3 C 149.4 144.3 149.4 140.7 149.4 140.7 C 149.4 137.4 148.1 135.5 145 135.5 C 143.1 135.5 141.1 136.4 139.1 138.3 C 139.1 138.3 136.6 133.5 136.6 133.5 C 139.3 130.7 143.4 129.7 146.4 129.7 C 152.3 129.7 156.2 132.7 156.2 139.2 C 156.18 139.18 156.2 159.4 156.2 159.4 L 149.4 159.4 Z M 149.4 152.6 C 149.4 152.6 149.4 148.7 149.4 148.7 C 148.7 146.9 147.2 145.7 145.7 145.7 C 143.4 145.7 142.3 147.8 142.3 150.6 C 142.3 153.3 143.4 155.6 145.7 155.6 C 147.2 155.6 148.7 154.4 149.4 152.6 Z M 168.5 155.8 C 168.48 155.8 168.5 170.4 168.5 170.4 L 161.7 170.4 L 161.7 130.4 L 168.5 130.4 C 168.5 130.4 168.48 134.02 168.5 134 C 169.7 131.1 172.1 129.7 174.1 129.7 C 179.8 129.7 182.7 135.6 182.7 144.9 C 182.7 154 179.8 160.1 174.1 160.1 C 172.1 160.1 169.7 158.8 168.5 155.8 Z M 175.7 144.9 C 175.7 139.8 174.9 135.7 171.9 135.7 C 170.5 135.7 169.1 137.1 168.5 139.1 C 168.5 139.1 168.5 150.6 168.5 150.6 C 169.1 152.6 170.5 154.1 171.9 154.1 C 174.9 154.1 175.7 150 175.7 144.9 Z M 196 139.4 C 196 127.5 199.7 118.7 208.5 118.7 C 215 118.7 217.3 123.9 218.5 128.1 C 218.5 128.1 212.5 130.4 212.5 130.4 C 211.7 127.3 210.7 125.4 208.5 125.4 C 204.9 125.4 203.7 131.3 203.7 139.4 C 203.7 147.6 204.9 153.4 208.5 153.4 C 211 153.4 212 150.9 212.6 147.6 C 212.6 147.6 218.6 149.8 218.6 149.8 C 217.5 154.4 215.2 160.1 208.5 160.1 C 199.7 160.1 196 151.3 196 139.4 Z M 235.5 159.4 C 235.5 159.4 235.5 138.64 235.5 138.6 C 235.5 136.7 234.8 135.7 233.3 135.7 C 231.5 135.7 230 137.6 229.4 139.5 C 229.38 139.48 229.4 159.4 229.4 159.4 L 222.6 159.4 L 222.6 119.4 L 229.4 119.4 C 229.4 119.4 229.38 134.2 229.4 134.2 C 230.5 131.9 233.5 129.7 236.2 129.7 C 240.5 129.7 242.3 132.1 242.3 136.2 C 242.34 136.24 242.3 159.4 242.3 159.4 L 235.5 159.4 Z M 247 122.9 C 247 120.6 248.9 118.8 251.2 118.8 C 253.4 118.8 255.3 120.6 255.3 122.9 C 255.3 125.2 253.4 127 251.2 127 C 248.9 127 247 125.2 247 122.9 Z M 247.8 159.4 L 247.8 130.4 L 254.6 130.4 L 254.6 159.4 L 247.8 159.4 Z M 266.8 155.8 C 266.82 155.8 266.8 170.4 266.8 170.4 L 260 170.4 L 260 130.4 L 266.8 130.4 C 266.8 130.4 266.82 134.02 266.8 134 C 268.1 131.1 270.4 129.7 272.5 129.7 C 278.2 129.7 281 135.6 281 144.9 C 281 154 278.2 160.1 272.5 160.1 C 270.4 160.1 268 158.8 266.8 155.8 Z M 274.1 144.9 C 274.1 139.8 273.2 135.7 270.2 135.7 C 268.8 135.7 267.4 137.1 266.8 139.1 C 266.8 139.1 266.8 150.6 266.8 150.6 C 267.4 152.6 268.8 154.1 270.2 154.1 C 273.2 154.1 274.1 150 274.1 144.9 Z M 283.4 156.3 C 283.4 156.3 286.2 151.7 286.2 151.7 C 287.8 153.4 289.9 154.8 292.2 154.8 C 294.4 154.8 295.9 153.6 295.9 151.7 C 295.9 146.9 284.4 148 284.4 137.9 C 284.4 133.5 287.7 129.7 293.6 129.7 C 296.9 129.7 300 131 302.2 133.1 C 302.2 133.1 299.4 137.7 299.4 137.7 C 298.3 136.3 296.2 135 293.8 135 C 292 135 290.7 136.2 290.7 137.7 C 290.7 142.1 302.3 141.3 302.3 151.5 C 302.3 156.6 298.3 160.1 292.8 160.1 C 288.5 160.1 285.3 158.6 283.4 156.3 Z " stroke="none" fill="#e9e8e8"/>  </g>  <g id="Polygon122996">    <path d="M 1.9 83.4 C 1.9 71.5 5.6 62.7 14.4 62.7 C 20.9 62.7 23.2 67.9 24.4 72.1 C 24.4 72.1 18.4 74.4 18.4 74.4 C 17.6 71.3 16.6 69.4 14.4 69.4 C 10.8 69.4 9.6 75.3 9.6 83.4 C 9.6 91.6 10.8 97.4 14.4 97.4 C 16.9 97.4 17.9 94.9 18.5 91.6 C 18.5 91.6 24.5 93.8 24.5 93.8 C 23.4 98.4 21.1 104.1 14.4 104.1 C 5.6 104.1 1.9 95.3 1.9 83.4 Z M 28.5 103.4 L 28.5 74.4 L 35.3 74.4 C 35.3 74.4 35.28 78.44 35.3 78.4 C 36.4 75.8 39.2 73.7 41.8 73.7 C 41.8 73.7 41.8 80.4 41.8 80.4 C 41.3 80.2 40.9 80.2 40.4 80.2 C 38.5 80.2 36.4 81.8 35.3 83.9 C 35.28 83.9 35.3 103.4 35.3 103.4 L 28.5 103.4 Z M 58.2 103.4 C 58.2 103.4 58.2 99.74 58.2 99.7 C 57.1 102.1 54.2 104.1 51.4 104.1 C 47 104.1 45.3 101.7 45.3 97.6 C 45.3 97.58 45.3 74.4 45.3 74.4 L 52.1 74.4 C 52.1 74.4 52.08 95.18 52.1 95.2 C 52.1 97.2 52.8 98.1 54.3 98.1 C 56 98.1 57.5 96.3 58.2 94.5 C 58.2 94.46 58.2 74.4 58.2 74.4 L 65 74.4 L 65 103.4 L 58.2 103.4 Z M 96.4 103.4 C 96.4 103.4 96.36 82.76 96.4 82.8 C 96.4 80.6 95.6 79.7 94.1 79.7 C 92.3 79.7 90.8 81.7 90.2 83.5 C 90.24 83.48 90.2 103.4 90.2 103.4 L 83.4 103.4 C 83.4 103.4 83.4 82.76 83.4 82.8 C 83.4 80.8 82.7 79.7 81.2 79.7 C 79.4 79.7 77.9 81.7 77.3 83.5 C 77.28 83.48 77.3 103.4 77.3 103.4 L 70.5 103.4 L 70.5 74.4 L 77.3 74.4 C 77.3 74.4 77.28 78.2 77.3 78.2 C 78.3 76 81.3 73.7 84.1 73.7 C 87.1 73.7 89.5 75.2 90 78.5 C 91.1 76.1 94.1 73.7 97 73.7 C 100.6 73.7 103.1 75.6 103.1 80.3 C 103.14 80.3 103.1 103.4 103.1 103.4 L 96.4 103.4 Z M 118.9 98.1 C 121.9 98.1 122.7 94 122.7 88.9 C 122.7 83.8 121.9 79.7 118.9 79.7 C 117.4 79.7 116 81.3 115.4 83.2 C 115.4 83.2 115.4 94.6 115.4 94.6 C 116 96.6 117.4 98.1 118.9 98.1 Z M 108.7 103.4 L 108.7 63.4 L 115.4 63.4 C 115.4 63.4 115.44 78.02 115.4 78 C 116.6 75 119 73.7 121.1 73.7 C 126.8 73.7 129.7 79.8 129.7 88.9 C 129.7 98.2 126.8 104.1 121.1 104.1 C 119 104.1 116.7 102.7 115.4 99.8 C 115.44 99.8 115.4 103.4 115.4 103.4 L 108.7 103.4 Z M 132 100.3 C 132 100.3 134.8 95.7 134.8 95.7 C 136.4 97.4 138.5 98.8 140.8 98.8 C 143 98.8 144.5 97.6 144.5 95.7 C 144.5 90.9 133 92 133 81.9 C 133 77.5 136.3 73.7 142.3 73.7 C 145.6 73.7 148.6 75 150.8 77.1 C 150.8 77.1 148 81.7 148 81.7 C 146.9 80.3 144.8 79 142.4 79 C 140.6 79 139.3 80.2 139.3 81.7 C 139.3 86.1 150.9 85.3 150.9 95.5 C 150.9 100.6 146.9 104.1 141.4 104.1 C 137.1 104.1 133.9 102.6 132 100.3 Z M 184.2 103.4 L 180.1 83.7 L 175.9 103.4 L 168.8 103.4 L 162.1 74.4 L 169.1 74.4 L 172.8 94.2 L 176.6 74.4 L 183.1 74.4 L 187.2 94.2 L 190.9 74.4 L 198 74.4 L 191.3 103.4 L 184.2 103.4 Z M 200.3 66.9 C 200.3 64.6 202.2 62.8 204.4 62.8 C 206.7 62.8 208.6 64.6 208.6 66.9 C 208.6 69.2 206.7 71 204.4 71 C 202.2 71 200.3 69.2 200.3 66.9 Z M 201.1 103.4 L 201.1 74.4 L 207.8 74.4 L 207.8 103.4 L 201.1 103.4 Z M 214.2 96.7 C 214.2 96.74 214.2 80.3 214.2 80.3 L 211.5 80.3 L 211.5 74.4 L 214.2 74.4 L 214.2 66.5 L 221 66.5 L 221 74.4 L 224.6 74.4 L 224.6 80.3 L 221 80.3 C 221 80.3 220.98 95.42 221 95.4 C 221 97.2 221.4 98.1 222.6 98.1 C 223.3 98.1 223.9 97.8 224.2 97.3 C 224.2 97.3 225.6 102.6 225.6 102.6 C 224.6 103.5 223 104.1 220.9 104.1 C 216.1 104.1 214.2 101.7 214.2 96.7 Z M 241.7 103.4 C 241.7 103.4 241.68 82.64 241.7 82.6 C 241.7 80.7 241 79.7 239.5 79.7 C 237.7 79.7 236.2 81.6 235.6 83.5 C 235.56 83.48 235.6 103.4 235.6 103.4 L 228.8 103.4 L 228.8 63.4 L 235.6 63.4 C 235.6 63.4 235.56 78.2 235.6 78.2 C 236.7 75.9 239.7 73.7 242.3 73.7 C 246.7 73.7 248.5 76.1 248.5 80.2 C 248.52 80.24 248.5 103.4 248.5 103.4 L 241.7 103.4 Z M 261.5 102 C 261.5 102 263.5 95.8 263.5 95.8 C 264.5 96.9 265.9 97.4 267.2 97.4 C 269.6 97.4 271.3 96.1 271.3 93 C 271.31 93.02 271.3 63.4 271.3 63.4 L 278.9 63.4 C 278.9 63.4 278.87 93.38 278.9 93.4 C 278.9 100.9 274.4 104.1 268 104.1 C 265.7 104.1 263.4 103.6 261.5 102 Z M 297.5 103.4 C 297.5 103.4 297.53 99.74 297.5 99.7 C 296.4 102.1 293.6 104.1 290.8 104.1 C 286.4 104.1 284.6 101.7 284.6 97.6 C 284.63 97.58 284.6 74.4 284.6 74.4 L 291.4 74.4 C 291.4 74.4 291.41 95.18 291.4 95.2 C 291.4 97.2 292.1 98.1 293.6 98.1 C 295.4 98.1 296.9 96.3 297.5 94.5 C 297.53 94.46 297.5 74.4 297.5 74.4 L 304.4 74.4 L 304.4 103.4 L 297.5 103.4 Z M 309.8 103.4 L 309.8 63.4 L 316.6 63.4 L 316.6 103.4 L 309.8 103.4 Z M 321.3 66.9 C 321.3 64.6 323.2 62.8 325.4 62.8 C 327.7 62.8 329.6 64.6 329.6 66.9 C 329.6 69.2 327.7 71 325.4 71 C 323.2 71 321.3 69.2 321.3 66.9 Z M 322.1 103.4 L 322.1 74.4 L 328.9 74.4 L 328.9 103.4 L 322.1 103.4 Z M 333.2 88.9 C 333.2 80.5 336.8 73.7 344 73.7 C 351.4 73.7 354.4 80.2 354.4 88.8 C 354.41 88.76 354.4 91.1 354.4 91.1 C 354.4 91.1 339.71 91.1 339.7 91.1 C 339.8 95.4 341.6 98.6 345.4 98.6 C 347 98.6 348.9 97.5 350.2 95.7 C 350.2 95.7 353.5 99.5 353.5 99.5 C 351.2 102.4 348 104.1 344.7 104.1 C 337.1 104.1 333.2 97.8 333.2 88.9 Z M 343.9 79.2 C 340.6 79.2 339.7 83.3 339.7 86.4 C 339.7 86.4 347.9 86.4 347.9 86.4 C 347.9 83.1 347.2 79.2 343.9 79.2 Z M 371.5 103.4 C 371.5 103.4 371.45 82.76 371.5 82.8 C 371.5 80.7 370.7 79.7 369.2 79.7 C 367.5 79.7 366 81.6 365.3 83.5 C 365.33 83.48 365.3 103.4 365.3 103.4 L 358.6 103.4 L 358.6 74.4 L 365.3 74.4 C 365.3 74.4 365.33 78.2 365.3 78.2 C 366.5 75.9 369.5 73.7 372.1 73.7 C 376.5 73.7 378.3 76.3 378.3 80.3 C 378.29 80.3 378.3 103.4 378.3 103.4 L 371.5 103.4 Z M 396.7 103.4 C 396.7 103.4 396.65 82.76 396.7 82.8 C 396.7 80.7 395.9 79.7 394.4 79.7 C 392.7 79.7 391.2 81.6 390.5 83.5 C 390.53 83.48 390.5 103.4 390.5 103.4 L 383.8 103.4 L 383.8 74.4 L 390.5 74.4 C 390.5 74.4 390.53 78.2 390.5 78.2 C 391.7 75.9 394.7 73.7 397.3 73.7 C 401.7 73.7 403.5 76.3 403.5 80.3 C 403.49 80.3 403.5 103.4 403.5 103.4 L 396.7 103.4 Z M 407.8 88.9 C 407.8 80.5 411.4 73.7 418.7 73.7 C 426 73.7 429.1 80.2 429.1 88.8 C 429.05 88.76 429.1 91.1 429.1 91.1 C 429.1 91.1 414.35 91.1 414.4 91.1 C 414.4 95.4 416.2 98.6 420.1 98.6 C 421.7 98.6 423.5 97.5 424.9 95.7 C 424.9 95.7 428.2 99.5 428.2 99.5 C 425.9 102.4 422.6 104.1 419.3 104.1 C 411.8 104.1 407.8 97.8 407.8 88.9 Z M 418.5 79.2 C 415.2 79.2 414.4 83.3 414.4 86.4 C 414.4 86.4 422.5 86.4 422.5 86.4 C 422.5 83.1 421.8 79.2 418.5 79.2 Z M 446.3 103.4 C 446.3 103.4 446.27 99.8 446.3 99.8 C 445 102.7 442.7 104.1 440.6 104.1 C 434.9 104.1 432.1 98.2 432.1 88.9 C 432.1 79.8 434.9 73.7 440.6 73.7 C 442.7 73.7 445.1 75 446.3 78 C 446.27 78.02 446.3 63.4 446.3 63.4 L 453.1 63.4 L 453.1 103.4 L 446.3 103.4 Z M 446.3 94.6 C 446.3 94.6 446.3 83.2 446.3 83.2 C 445.7 81.3 444.3 79.7 442.9 79.7 C 439.9 79.7 439 83.8 439 88.9 C 439 94 439.9 98.1 442.9 98.1 C 444.3 98.1 445.7 96.6 446.3 94.6 Z M 468.7 103.4 L 468.7 63.4 L 486.2 63.4 L 486.2 70 L 476.3 70 L 476.3 79.7 L 485.8 79.7 L 485.8 86.4 L 476.3 86.4 L 476.3 103.4 L 468.7 103.4 Z M 489.8 88.9 C 489.8 80.8 493.1 73.7 500.6 73.7 C 508.3 73.7 511.6 80.8 511.6 88.9 C 511.6 96.9 508.3 104.1 500.6 104.1 C 493.1 104.1 489.8 96.9 489.8 88.9 Z M 504.5 88.9 C 504.5 84 503.7 79.7 500.6 79.7 C 497.6 79.7 496.8 84 496.8 88.9 C 496.8 93.9 497.6 98.1 500.6 98.1 C 503.7 98.1 504.5 93.9 504.5 88.9 Z M 528.5 103.4 C 528.5 103.4 528.53 100.64 528.5 100.6 C 527.3 102.9 524.6 104.1 522.5 104.1 C 517.9 104.1 514.6 100.4 514.6 94.5 C 514.6 88.6 517.9 85 522.5 85 C 524.6 85 527.3 86.1 528.5 88.3 C 528.5 88.3 528.5 84.7 528.5 84.7 C 528.5 81.4 527.2 79.5 524.2 79.5 C 522.2 79.5 520.2 80.4 518.3 82.3 C 518.3 82.3 515.8 77.5 515.8 77.5 C 518.4 74.7 522.5 73.7 525.5 73.7 C 531.5 73.7 535.3 76.7 535.3 83.2 C 535.31 83.18 535.3 103.4 535.3 103.4 L 528.5 103.4 Z M 528.5 96.6 C 528.5 96.6 528.5 92.7 528.5 92.7 C 527.8 90.9 526.4 89.7 524.9 89.7 C 522.5 89.7 521.4 91.8 521.4 94.6 C 521.4 97.3 522.5 99.6 524.9 99.6 C 526.4 99.6 527.8 98.4 528.5 96.6 Z M 566.7 103.4 C 566.7 103.4 566.69 82.76 566.7 82.8 C 566.7 80.6 565.9 79.7 564.5 79.7 C 562.6 79.7 561.2 81.7 560.6 83.5 C 560.57 83.48 560.6 103.4 560.6 103.4 L 553.7 103.4 C 553.7 103.4 553.73 82.76 553.7 82.8 C 553.7 80.8 553.1 79.7 551.5 79.7 C 549.7 79.7 548.2 81.7 547.6 83.5 C 547.61 83.48 547.6 103.4 547.6 103.4 L 540.8 103.4 L 540.8 74.4 L 547.6 74.4 C 547.6 74.4 547.61 78.2 547.6 78.2 C 548.6 76 551.6 73.7 554.4 73.7 C 557.5 73.7 559.9 75.2 560.3 78.5 C 561.4 76.1 564.5 73.7 567.4 73.7 C 571 73.7 573.5 75.6 573.5 80.3 C 573.47 80.3 573.5 103.4 573.5 103.4 L 566.7 103.4 Z " stroke="none" fill="#e9e8e8"/>  </g>  <g id="Polygon122995">    <path d="M 3.1 47.4 L 3.1 7.4 C 3.1 7.4 13.92 7.38 13.9 7.4 C 21.7 7.4 25.2 13.3 25.2 20 C 25.2 26.8 21.7 32.7 13.9 32.7 C 13.92 32.7 10.7 32.7 10.7 32.7 L 10.7 47.4 L 3.1 47.4 Z M 17.5 20 C 17.5 16.4 16 14 13.1 14 C 13.14 14.04 10.7 14 10.7 14 L 10.7 26 C 10.7 26 13.14 26.04 13.1 26 C 16 26 17.5 23.6 17.5 20 Z M 40.9 47.4 C 40.9 47.4 40.92 44.64 40.9 44.6 C 39.7 46.9 37 48.1 34.9 48.1 C 30.3 48.1 27 44.4 27 38.5 C 27 32.6 30.3 29 34.9 29 C 37 29 39.7 30.1 40.9 32.3 C 40.9 32.3 40.9 28.7 40.9 28.7 C 40.9 25.4 39.6 23.5 36.5 23.5 C 34.6 23.5 32.6 24.4 30.7 26.3 C 30.7 26.3 28.1 21.5 28.1 21.5 C 30.8 18.7 34.9 17.7 37.9 17.7 C 43.9 17.7 47.7 20.7 47.7 27.2 C 47.7 27.18 47.7 47.4 47.7 47.4 L 40.9 47.4 Z M 40.9 40.6 C 40.9 40.6 40.9 36.7 40.9 36.7 C 40.2 34.9 38.8 33.7 37.3 33.7 C 34.9 33.7 33.8 35.8 33.8 38.6 C 33.8 41.3 34.9 43.6 37.3 43.6 C 38.8 43.6 40.2 42.4 40.9 40.6 Z M 60 43.8 C 60 43.8 60 58.4 60 58.4 L 53.2 58.4 L 53.2 18.4 L 60 18.4 C 60 18.4 60 22.02 60 22 C 61.3 19.1 63.6 17.7 65.6 17.7 C 71.3 17.7 74.2 23.6 74.2 32.9 C 74.2 42 71.3 48.1 65.6 48.1 C 63.6 48.1 61.2 46.8 60 43.8 Z M 67.3 32.9 C 67.3 27.8 66.4 23.7 63.4 23.7 C 62 23.7 60.6 25.1 60 27.1 C 60 27.1 60 38.6 60 38.6 C 60.6 40.6 62 42.1 63.4 42.1 C 66.4 42.1 67.3 38 67.3 32.9 Z M 77.5 32.9 C 77.5 24.5 81.1 17.7 88.3 17.7 C 95.6 17.7 98.7 24.2 98.7 32.8 C 98.7 32.76 98.7 35.1 98.7 35.1 C 98.7 35.1 84 35.1 84 35.1 C 84.1 39.4 85.9 42.6 89.7 42.6 C 91.3 42.6 93.2 41.5 94.5 39.7 C 94.5 39.7 97.8 43.5 97.8 43.5 C 95.5 46.4 92.3 48.1 89 48.1 C 81.4 48.1 77.5 41.8 77.5 32.9 Z M 88.1 23.2 C 84.8 23.2 84 27.3 84 30.4 C 84 30.4 92.2 30.4 92.2 30.4 C 92.2 27.1 91.4 23.2 88.1 23.2 Z M 102.8 47.4 L 102.8 18.4 L 109.6 18.4 C 109.6 18.4 109.62 22.44 109.6 22.4 C 110.8 19.8 113.6 17.7 116.1 17.7 C 116.1 17.7 116.1 24.4 116.1 24.4 C 115.7 24.2 115.2 24.2 114.8 24.2 C 112.8 24.2 110.8 25.8 109.6 27.9 C 109.62 27.9 109.6 47.4 109.6 47.4 L 102.8 47.4 Z M 129.8 47.4 L 129.8 7.4 C 129.8 7.4 140.58 7.38 140.6 7.4 C 148.4 7.4 151.9 13.3 151.9 20 C 151.9 26.8 148.4 32.7 140.6 32.7 C 140.58 32.7 137.3 32.7 137.3 32.7 L 137.3 47.4 L 129.8 47.4 Z M 144.2 20 C 144.2 16.4 142.6 14 139.8 14 C 139.8 14.04 137.3 14 137.3 14 L 137.3 26 C 137.3 26 139.8 26.04 139.8 26 C 142.6 26 144.2 23.6 144.2 20 Z M 168.8 47.4 C 168.8 47.4 168.78 43.74 168.8 43.7 C 167.6 46.1 164.8 48.1 162 48.1 C 157.6 48.1 155.9 45.7 155.9 41.6 C 155.88 41.58 155.9 18.4 155.9 18.4 L 162.7 18.4 C 162.7 18.4 162.66 39.18 162.7 39.2 C 162.7 41.2 163.4 42.1 164.9 42.1 C 166.6 42.1 168.1 40.3 168.8 38.5 C 168.78 38.46 168.8 18.4 168.8 18.4 L 175.6 18.4 L 175.6 47.4 L 168.8 47.4 Z M 181.1 47.4 L 181.1 7.4 L 187.9 7.4 L 187.9 47.4 L 181.1 47.4 Z M 200.1 43.8 C 200.1 43.8 200.1 58.4 200.1 58.4 L 193.3 58.4 L 193.3 18.4 L 200.1 18.4 C 200.1 18.4 200.1 22.02 200.1 22 C 201.4 19.1 203.7 17.7 205.7 17.7 C 211.4 17.7 214.3 23.6 214.3 32.9 C 214.3 42 211.4 48.1 205.7 48.1 C 203.7 48.1 201.3 46.8 200.1 43.8 Z M 207.4 32.9 C 207.4 27.8 206.5 23.7 203.5 23.7 C 202.1 23.7 200.7 25.1 200.1 27.1 C 200.1 27.1 200.1 38.6 200.1 38.6 C 200.7 40.6 202.1 42.1 203.5 42.1 C 206.5 42.1 207.4 38 207.4 32.9 Z M 227.6 27.4 C 227.6 15.5 231.4 6.7 240.1 6.7 C 246.6 6.7 248.9 11.9 250.1 16.1 C 250.1 16.1 244.1 18.4 244.1 18.4 C 243.3 15.3 242.3 13.4 240.1 13.4 C 236.5 13.4 235.3 19.3 235.3 27.4 C 235.3 35.6 236.5 41.4 240.1 41.4 C 242.6 41.4 243.7 38.9 244.2 35.6 C 244.2 35.6 250.3 37.8 250.3 37.8 C 249.1 42.4 246.8 48.1 240.1 48.1 C 231.4 48.1 227.6 39.3 227.6 27.4 Z M 253.1 32.9 C 253.1 24.8 256.4 17.7 263.9 17.7 C 271.6 17.7 274.9 24.8 274.9 32.9 C 274.9 40.9 271.6 48.1 263.9 48.1 C 256.4 48.1 253.1 40.9 253.1 32.9 Z M 267.8 32.9 C 267.8 28 267 23.7 263.9 23.7 C 260.9 23.7 260.1 28 260.1 32.9 C 260.1 37.9 260.9 42.1 263.9 42.1 C 267 42.1 267.8 37.9 267.8 32.9 Z M 291.8 47.4 C 291.8 47.4 291.83 44.64 291.8 44.6 C 290.6 46.9 287.9 48.1 285.8 48.1 C 281.2 48.1 277.9 44.4 277.9 38.5 C 277.9 32.6 281.2 29 285.8 29 C 287.9 29 290.6 30.1 291.8 32.3 C 291.8 32.3 291.8 28.7 291.8 28.7 C 291.8 25.4 290.5 23.5 287.5 23.5 C 285.5 23.5 283.5 24.4 281.6 26.3 C 281.6 26.3 279.1 21.5 279.1 21.5 C 281.7 18.7 285.8 17.7 288.8 17.7 C 294.8 17.7 298.6 20.7 298.6 27.2 C 298.61 27.18 298.6 47.4 298.6 47.4 L 291.8 47.4 Z M 291.8 40.6 C 291.8 40.6 291.8 36.7 291.8 36.7 C 291.1 34.9 289.7 33.7 288.2 33.7 C 285.8 33.7 284.7 35.8 284.7 38.6 C 284.7 41.3 285.8 43.6 288.2 43.6 C 289.7 43.6 291.1 42.4 291.8 40.6 Z M 305 40.7 C 305.03 40.74 305 24.3 305 24.3 L 302.3 24.3 L 302.3 18.4 L 305 18.4 L 305 10.5 L 311.8 10.5 L 311.8 18.4 L 315.5 18.4 L 315.5 24.3 L 311.8 24.3 C 311.8 24.3 311.81 39.42 311.8 39.4 C 311.8 41.2 312.2 42.1 313.4 42.1 C 314.1 42.1 314.7 41.8 315.1 41.3 C 315.1 41.3 316.4 46.6 316.4 46.6 C 315.4 47.5 313.8 48.1 311.7 48.1 C 307 48.1 305 45.7 305 40.7 Z M 318.5 32.9 C 318.5 24.5 322.1 17.7 329.3 17.7 C 336.7 17.7 339.7 24.2 339.7 32.8 C 339.71 32.76 339.7 35.1 339.7 35.1 C 339.7 35.1 325.01 35.1 325 35.1 C 325.1 39.4 326.9 42.6 330.7 42.6 C 332.3 42.6 334.2 41.5 335.5 39.7 C 335.5 39.7 338.8 43.5 338.8 43.5 C 336.5 46.4 333.3 48.1 330 48.1 C 322.4 48.1 318.5 41.8 318.5 32.9 Z M 329.2 23.2 C 325.9 23.2 325 27.3 325 30.4 C 325 30.4 333.2 30.4 333.2 30.4 C 333.2 27.1 332.5 23.2 329.2 23.2 Z M 356.9 47.4 C 356.9 47.4 356.93 43.8 356.9 43.8 C 355.7 46.7 353.3 48.1 351.3 48.1 C 345.6 48.1 342.7 42.2 342.7 32.9 C 342.7 23.8 345.6 17.7 351.3 17.7 C 353.3 17.7 355.7 19 356.9 22 C 356.93 22.02 356.9 7.4 356.9 7.4 L 363.7 7.4 L 363.7 47.4 L 356.9 47.4 Z M 356.9 38.6 C 356.9 38.6 356.9 27.2 356.9 27.2 C 356.3 25.3 355 23.7 353.5 23.7 C 350.5 23.7 349.7 27.8 349.7 32.9 C 349.7 38 350.5 42.1 353.5 42.1 C 355 42.1 356.3 40.6 356.9 38.6 Z M 379.4 47.4 L 379.4 7.4 L 386.9 7.4 L 386.9 47.4 L 379.4 47.4 Z M 405.7 47.4 C 405.7 47.4 405.71 26.76 405.7 26.8 C 405.7 24.7 405 23.7 403.5 23.7 C 401.8 23.7 400.3 25.6 399.6 27.5 C 399.59 27.48 399.6 47.4 399.6 47.4 L 392.8 47.4 L 392.8 18.4 L 399.6 18.4 C 399.6 18.4 399.59 22.2 399.6 22.2 C 400.7 19.9 403.7 17.7 406.4 17.7 C 410.8 17.7 412.6 20.3 412.6 24.3 C 412.55 24.3 412.6 47.4 412.6 47.4 L 405.7 47.4 Z M 428.2 47.4 L 428.2 7.4 C 428.2 7.4 438.95 7.38 439 7.4 C 446.8 7.4 450.2 13.3 450.2 20 C 450.2 26.8 446.8 32.7 439 32.7 C 438.95 32.7 435.7 32.7 435.7 32.7 L 435.7 47.4 L 428.2 47.4 Z M 442.6 20 C 442.6 16.4 441 14 438.2 14 C 438.17 14.04 435.7 14 435.7 14 L 435.7 26 C 435.7 26 438.17 26.04 438.2 26 C 441 26 442.6 23.6 442.6 20 Z M 466 47.4 C 466 47.4 465.95 44.64 466 44.6 C 464.7 46.9 462 48.1 459.9 48.1 C 455.3 48.1 452 44.4 452 38.5 C 452 32.6 455.3 29 459.9 29 C 462 29 464.8 30.1 466 32.3 C 466 32.3 466 28.7 466 28.7 C 466 25.4 464.6 23.5 461.6 23.5 C 459.7 23.5 457.6 24.4 455.7 26.3 C 455.7 26.3 453.2 21.5 453.2 21.5 C 455.8 18.7 460 17.7 463 17.7 C 468.9 17.7 472.7 20.7 472.7 27.2 C 472.73 27.18 472.7 47.4 472.7 47.4 L 466 47.4 Z M 466 40.6 C 466 40.6 466 36.7 466 36.7 C 465.2 34.9 463.8 33.7 462.3 33.7 C 460 33.7 458.8 35.8 458.8 38.6 C 458.8 41.3 460 43.6 462.3 43.6 C 463.8 43.6 465.2 42.4 466 40.6 Z M 485 43.8 C 485.03 43.8 485 58.4 485 58.4 L 478.3 58.4 L 478.3 18.4 L 485 18.4 C 485 18.4 485.03 22.02 485 22 C 486.3 19.1 488.6 17.7 490.7 17.7 C 496.4 17.7 499.3 23.6 499.3 32.9 C 499.3 42 496.4 48.1 490.7 48.1 C 488.6 48.1 486.2 46.8 485 43.8 Z M 492.3 32.9 C 492.3 27.8 491.5 23.7 488.5 23.7 C 487 23.7 485.6 25.1 485 27.1 C 485 27.1 485 38.6 485 38.6 C 485.6 40.6 487 42.1 488.5 42.1 C 491.5 42.1 492.3 38 492.3 32.9 Z M 502.5 32.9 C 502.5 24.5 506.1 17.7 513.4 17.7 C 520.7 17.7 523.7 24.2 523.7 32.8 C 523.73 32.76 523.7 35.1 523.7 35.1 C 523.7 35.1 509.03 35.1 509 35.1 C 509.1 39.4 510.9 42.6 514.7 42.6 C 516.4 42.6 518.2 41.5 519.5 39.7 C 519.5 39.7 522.8 43.5 522.8 43.5 C 520.6 46.4 517.3 48.1 514 48.1 C 506.5 48.1 502.5 41.8 502.5 32.9 Z M 513.2 23.2 C 509.9 23.2 509 27.3 509 30.4 C 509 30.4 517.2 30.4 517.2 30.4 C 517.2 27.1 516.5 23.2 513.2 23.2 Z M 527.9 47.4 L 527.9 18.4 L 534.6 18.4 C 534.6 18.4 534.65 22.44 534.6 22.4 C 535.8 19.8 538.6 17.7 541.1 17.7 C 541.1 17.7 541.1 24.4 541.1 24.4 C 540.7 24.2 540.2 24.2 539.8 24.2 C 537.8 24.2 535.8 25.8 534.6 27.9 C 534.65 27.9 534.6 47.4 534.6 47.4 L 527.9 47.4 Z " stroke="none" fill="#e9e8e8"/>  </g></svg>