<?xml version="1.0" standalone="no"?><!DOCTYPE svg PUBLIC "-//W3C//DTD SVG 1.1//EN" "http://www.w3.org/Graphics/SVG/1.1/DTD/svg11.dtd"><svg xmlns="http://www.w3.org/2000/svg" version="1.1" width="841px" height="256.1px" viewBox="0 0 841 256.1">  <desc>Floral Foam Bun with Paper Pulp Patty, Melted Silicone Slice and Julienned Foam</desc>  <defs/>  <g id="Polygon115280">    <path d="M 198.1 192.9 C 198.1 192.9 198.14 189.57 198.1 189.6 C 196.6 192.3 193.4 193.7 190.9 193.7 C 185.4 193.7 181.4 189.3 181.4 182.2 C 181.4 175.1 185.4 170.8 190.9 170.8 C 193.4 170.8 196.7 172.1 198.1 174.7 C 198.1 174.7 198.1 170.5 198.1 170.5 C 198.1 166.5 196.6 164.2 192.9 164.2 C 190.6 164.2 188.1 165.2 185.8 167.6 C 185.8 167.6 182.8 161.8 182.8 161.8 C 186 158.5 190.9 157.2 194.5 157.2 C 201.7 157.2 206.3 160.8 206.3 168.6 C 206.27 168.62 206.3 192.9 206.3 192.9 L 198.1 192.9 Z M 198.1 184.7 C 198.1 184.7 198.1 180 198.1 180 C 197.3 177.8 195.5 176.4 193.7 176.4 C 190.9 176.4 189.6 179 189.6 182.3 C 189.6 185.6 190.9 188.3 193.7 188.3 C 195.5 188.3 197.3 186.9 198.1 184.7 Z M 228.4 192.9 C 228.4 192.9 228.38 168.11 228.4 168.1 C 228.4 165.7 227.5 164.4 225.7 164.4 C 223.6 164.4 221.8 166.7 221 169 C 221.03 168.98 221 192.9 221 192.9 L 212.9 192.9 L 212.9 158.1 L 221 158.1 C 221 158.1 221.03 162.64 221 162.6 C 222.4 159.8 226 157.2 229.2 157.2 C 234.4 157.2 236.6 160.3 236.6 165.2 C 236.58 165.16 236.6 192.9 236.6 192.9 L 228.4 192.9 Z M 258.8 192.9 C 258.8 192.9 258.83 188.56 258.8 188.6 C 257.3 192 254.5 193.7 252.1 193.7 C 245.2 193.7 241.8 186.7 241.8 175.5 C 241.8 164.6 245.2 157.2 252.1 157.2 C 254.5 157.2 257.4 158.8 258.8 162.4 C 258.83 162.42 258.8 144.9 258.8 144.9 L 267 144.9 L 267 192.9 L 258.8 192.9 Z M 258.8 182.4 C 258.8 182.4 258.8 168.6 258.8 168.6 C 258.1 166.3 256.5 164.4 254.7 164.4 C 251.1 164.4 250.1 169.3 250.1 175.5 C 250.1 181.6 251.1 186.5 254.7 186.5 C 256.5 186.5 258.1 184.7 258.8 182.4 Z M 282.6 191.2 C 282.6 191.2 285 183.7 285 183.7 C 286.3 185.1 287.8 185.7 289.4 185.7 C 292.4 185.7 294.4 184.1 294.4 180.4 C 294.4 180.42 294.4 144.9 294.4 144.9 L 303.5 144.9 C 303.5 144.9 303.47 180.86 303.5 180.9 C 303.5 189.9 298.1 193.7 290.4 193.7 C 287.6 193.7 284.9 193.1 282.6 191.2 Z M 325.9 192.9 C 325.9 192.9 325.86 188.49 325.9 188.5 C 324.5 191.3 321.1 193.7 317.7 193.7 C 312.5 193.7 310.4 190.9 310.4 185.9 C 310.38 185.9 310.4 158.1 310.4 158.1 L 318.5 158.1 C 318.5 158.1 318.52 183.02 318.5 183 C 318.5 185.4 319.4 186.5 321.2 186.5 C 323.3 186.5 325.1 184.4 325.9 182.2 C 325.86 182.15 325.9 158.1 325.9 158.1 L 334.1 158.1 L 334.1 192.9 L 325.9 192.9 Z M 340.6 192.9 L 340.6 144.9 L 348.8 144.9 L 348.8 192.9 L 340.6 192.9 Z M 354.4 149.1 C 354.4 146.4 356.7 144.1 359.3 144.1 C 362.1 144.1 364.3 146.4 364.3 149.1 C 364.3 151.8 362.1 154 359.3 154 C 356.7 154 354.4 151.8 354.4 149.1 Z M 355.3 192.9 L 355.3 158.1 L 363.4 158.1 L 363.4 192.9 L 355.3 192.9 Z M 368.6 175.5 C 368.6 165.4 372.9 157.2 381.7 157.2 C 390.4 157.2 394.1 165.1 394.1 175.3 C 394.12 175.31 394.1 178.1 394.1 178.1 C 394.1 178.1 376.48 178.12 376.5 178.1 C 376.5 183.2 378.7 187.1 383.3 187.1 C 385.3 187.1 387.5 185.8 389.1 183.7 C 389.1 183.7 393 188.2 393 188.2 C 390.3 191.7 386.4 193.7 382.5 193.7 C 373.4 193.7 368.6 186.1 368.6 175.5 Z M 381.4 163.9 C 377.5 163.9 376.5 168.8 376.5 172.4 C 376.5 172.4 386.3 172.4 386.3 172.4 C 386.3 168.5 385.4 163.9 381.4 163.9 Z M 414.6 192.9 C 414.6 192.9 414.56 168.11 414.6 168.1 C 414.6 165.7 413.7 164.4 411.9 164.4 C 409.8 164.4 408 166.7 407.2 169 C 407.22 168.98 407.2 192.9 407.2 192.9 L 399.1 192.9 L 399.1 158.1 L 407.2 158.1 C 407.2 158.1 407.22 162.64 407.2 162.6 C 408.6 159.8 412.2 157.2 415.4 157.2 C 420.6 157.2 422.8 160.3 422.8 165.2 C 422.77 165.16 422.8 192.9 422.8 192.9 L 414.6 192.9 Z M 444.8 192.9 C 444.8 192.9 444.8 168.11 444.8 168.1 C 444.8 165.7 443.9 164.4 442.1 164.4 C 440.1 164.4 438.3 166.7 437.5 169 C 437.46 168.98 437.5 192.9 437.5 192.9 L 429.3 192.9 L 429.3 158.1 L 437.5 158.1 C 437.5 158.1 437.46 162.64 437.5 162.6 C 438.8 159.8 442.4 157.2 445.6 157.2 C 450.9 157.2 453 160.3 453 165.2 C 453.01 165.16 453 192.9 453 192.9 L 444.8 192.9 Z M 458.2 175.5 C 458.2 165.4 462.5 157.2 471.2 157.2 C 480 157.2 483.7 165.1 483.7 175.3 C 483.68 175.31 483.7 178.1 483.7 178.1 C 483.7 178.1 466.04 178.12 466 178.1 C 466.1 183.2 468.3 187.1 472.9 187.1 C 474.8 187.1 477.1 185.8 478.6 183.7 C 478.6 183.7 482.6 188.2 482.6 188.2 C 479.9 191.7 476 193.7 472 193.7 C 462.9 193.7 458.2 186.1 458.2 175.5 Z M 471 163.9 C 467.1 163.9 466 168.8 466 172.4 C 466 172.4 475.8 172.4 475.8 172.4 C 475.8 168.5 475 163.9 471 163.9 Z M 504.3 192.9 C 504.3 192.9 504.35 188.56 504.3 188.6 C 502.8 192 500 193.7 497.6 193.7 C 490.7 193.7 487.3 186.7 487.3 175.5 C 487.3 164.6 490.7 157.2 497.6 157.2 C 500 157.2 502.9 158.8 504.3 162.4 C 504.35 162.42 504.3 144.9 504.3 144.9 L 512.5 144.9 L 512.5 192.9 L 504.3 192.9 Z M 504.3 182.4 C 504.3 182.4 504.3 168.6 504.3 168.6 C 503.6 166.3 502 164.4 500.2 164.4 C 496.6 164.4 495.6 169.3 495.6 175.5 C 495.6 181.6 496.6 186.5 500.2 186.5 C 502 186.5 503.6 184.7 504.3 182.4 Z M 531.3 192.9 L 531.3 144.9 L 552.3 144.9 L 552.3 152.8 L 540.3 152.8 L 540.3 164.4 L 551.8 164.4 L 551.8 172.4 L 540.3 172.4 L 540.3 192.9 L 531.3 192.9 Z M 556.5 175.5 C 556.5 165.8 560.5 157.2 569.6 157.2 C 578.7 157.2 582.7 165.8 582.7 175.5 C 582.7 185.1 578.7 193.7 569.6 193.7 C 560.5 193.7 556.5 185.1 556.5 175.5 Z M 574.3 175.5 C 574.3 169.6 573.2 164.4 569.6 164.4 C 566 164.4 565 169.6 565 175.5 C 565 181.4 566 186.5 569.6 186.5 C 573.2 186.5 574.3 181.4 574.3 175.5 Z M 603.1 192.9 C 603.1 192.9 603.06 189.57 603.1 189.6 C 601.5 192.3 598.3 193.7 595.8 193.7 C 590.3 193.7 586.4 189.3 586.4 182.2 C 586.4 175.1 590.3 170.8 595.8 170.8 C 598.3 170.8 601.6 172.1 603.1 174.7 C 603.1 174.7 603.1 170.5 603.1 170.5 C 603.1 166.5 601.5 164.2 597.8 164.2 C 595.5 164.2 593 165.2 590.7 167.6 C 590.7 167.6 587.7 161.8 587.7 161.8 C 590.9 158.5 595.9 157.2 599.5 157.2 C 606.6 157.2 611.2 160.8 611.2 168.6 C 611.19 168.62 611.2 192.9 611.2 192.9 L 603.1 192.9 Z M 603.1 184.7 C 603.1 184.7 603.1 180 603.1 180 C 602.2 177.8 600.5 176.4 598.7 176.4 C 595.9 176.4 594.5 179 594.5 182.3 C 594.5 185.6 595.9 188.3 598.7 188.3 C 600.5 188.3 602.2 186.9 603.1 184.7 Z M 648.8 192.9 C 648.8 192.9 648.85 168.11 648.8 168.1 C 648.8 165.5 647.9 164.4 646.2 164.4 C 644 164.4 642.2 166.9 641.5 169 C 641.5 168.98 641.5 192.9 641.5 192.9 L 633.3 192.9 C 633.3 192.9 633.3 168.11 633.3 168.1 C 633.3 165.7 632.5 164.4 630.6 164.4 C 628.5 164.4 626.7 166.9 626 169 C 625.95 168.98 626 192.9 626 192.9 L 617.8 192.9 L 617.8 158.1 L 626 158.1 C 626 158.1 625.95 162.64 626 162.6 C 627.2 160 630.8 157.2 634.1 157.2 C 637.8 157.2 640.6 159 641.2 163 C 642.5 160.1 646.2 157.2 649.6 157.2 C 654 157.2 657 159.5 657 165.2 C 656.98 165.16 657 192.9 657 192.9 L 648.8 192.9 Z " stroke="none" fill="#e9e8e8"/>  </g>  <g id="Polygon115279">    <path d="M 104 124.9 L 104 76.9 C 104 76.9 116.96 76.86 117 76.9 C 126.3 76.9 130.5 84 130.5 92 C 130.5 100.1 126.3 107.2 117 107.2 C 116.96 107.24 113.1 107.2 113.1 107.2 L 113.1 124.9 L 104 124.9 Z M 121.3 92 C 121.3 87.7 119.4 84.8 116 84.8 C 116.02 84.85 113.1 84.8 113.1 84.8 L 113.1 99.2 C 113.1 99.2 116.02 99.25 116 99.2 C 119.4 99.2 121.3 96.4 121.3 92 Z M 149.4 124.9 C 149.4 124.9 149.36 121.57 149.4 121.6 C 147.8 124.3 144.6 125.7 142.1 125.7 C 136.6 125.7 132.7 121.3 132.7 114.2 C 132.7 107.1 136.6 102.8 142.1 102.8 C 144.6 102.8 147.9 104.1 149.4 106.7 C 149.4 106.7 149.4 102.5 149.4 102.5 C 149.4 98.5 147.8 96.2 144.1 96.2 C 141.8 96.2 139.3 97.2 137 99.6 C 137 99.6 134 93.8 134 93.8 C 137.2 90.5 142.2 89.2 145.8 89.2 C 152.9 89.2 157.5 92.8 157.5 100.6 C 157.49 100.62 157.5 124.9 157.5 124.9 L 149.4 124.9 Z M 149.4 116.7 C 149.4 116.7 149.4 112 149.4 112 C 148.5 109.8 146.8 108.4 145 108.4 C 142.2 108.4 140.8 111 140.8 114.3 C 140.8 117.6 142.2 120.3 145 120.3 C 146.8 120.3 148.5 118.9 149.4 116.7 Z M 165.2 116.9 C 165.2 116.89 165.2 97.2 165.2 97.2 L 162 97.2 L 162 90.1 L 165.2 90.1 L 165.2 80.6 L 173.3 80.6 L 173.3 90.1 L 177.7 90.1 L 177.7 97.2 L 173.3 97.2 C 173.3 97.2 173.33 115.3 173.3 115.3 C 173.3 117.5 173.8 118.5 175.3 118.5 C 176.1 118.5 176.8 118.2 177.2 117.6 C 177.2 117.6 178.9 123.9 178.9 123.9 C 177.7 125 175.7 125.7 173.2 125.7 C 167.5 125.7 165.2 122.9 165.2 116.9 Z M 183.8 116.9 C 183.77 116.89 183.8 97.2 183.8 97.2 L 180.5 97.2 L 180.5 90.1 L 183.8 90.1 L 183.8 80.6 L 191.9 80.6 L 191.9 90.1 L 196.3 90.1 L 196.3 97.2 L 191.9 97.2 C 191.9 97.2 191.91 115.3 191.9 115.3 C 191.9 117.5 192.4 118.5 193.9 118.5 C 194.6 118.5 195.4 118.2 195.8 117.6 C 195.8 117.6 197.5 123.9 197.5 123.9 C 196.2 125 194.3 125.7 191.8 125.7 C 186.1 125.7 183.8 122.9 183.8 116.9 Z M 202 131.4 C 202.5 131.6 203.2 131.8 203.6 131.8 C 205.2 131.8 206 131.1 206.5 129.3 C 206.52 129.34 207.5 125.7 207.5 125.7 L 198.1 90.1 L 206.7 90.1 L 211.6 114.6 L 216.7 90.1 L 225.2 90.1 C 225.2 90.1 214.3 131 214.3 131 C 212.6 137.3 209.8 139 204.7 139 C 203.6 139 201.6 138.8 200.8 138.5 C 200.8 138.5 202 131.4 202 131.4 Z M 229.6 134.5 C 229.6 134.5 226 131.6 226 131.6 C 228.3 130.3 230.9 127.3 231.4 124.8 C 231.2 124.9 230.6 125 230.1 125 C 227.6 125 225.6 123 225.6 120.3 C 225.6 117.4 227.9 115 230.8 115 C 233.9 115 236.6 117.5 236.6 121.9 C 236.6 127 233.8 131.6 229.6 134.5 Z M 283.3 124.9 L 283.3 96.5 L 275.3 124.9 L 272.3 124.9 L 264.4 96.5 L 264.4 124.9 L 255.3 124.9 L 255.3 76.9 L 266.9 76.9 L 273.8 101.4 L 280.9 76.9 L 292.2 76.9 L 292.2 124.9 L 283.3 124.9 Z M 297.9 107.5 C 297.9 97.4 302.2 89.2 310.9 89.2 C 319.7 89.2 323.4 97.1 323.4 107.3 C 323.38 107.31 323.4 110.1 323.4 110.1 C 323.4 110.1 305.74 110.12 305.7 110.1 C 305.8 115.2 308 119.1 312.6 119.1 C 314.5 119.1 316.8 117.8 318.3 115.7 C 318.3 115.7 322.3 120.2 322.3 120.2 C 319.6 123.7 315.7 125.7 311.7 125.7 C 302.6 125.7 297.9 118.1 297.9 107.5 Z M 310.7 95.9 C 306.7 95.9 305.7 100.8 305.7 104.4 C 305.7 104.4 315.5 104.4 315.5 104.4 C 315.5 100.5 314.7 95.9 310.7 95.9 Z M 328.3 124.9 L 328.3 76.9 L 336.5 76.9 L 336.5 124.9 L 328.3 124.9 Z M 344.1 116.9 C 344.11 116.89 344.1 97.2 344.1 97.2 L 340.9 97.2 L 340.9 90.1 L 344.1 90.1 L 344.1 80.6 L 352.2 80.6 L 352.2 90.1 L 356.6 90.1 L 356.6 97.2 L 352.2 97.2 C 352.2 97.2 352.25 115.3 352.2 115.3 C 352.2 117.5 352.8 118.5 354.2 118.5 C 355 118.5 355.7 118.2 356.1 117.6 C 356.1 117.6 357.8 123.9 357.8 123.9 C 356.6 125 354.6 125.7 352.1 125.7 C 346.4 125.7 344.1 122.9 344.1 116.9 Z M 360.2 107.5 C 360.2 97.4 364.6 89.2 373.3 89.2 C 382.1 89.2 385.7 97.1 385.7 107.3 C 385.73 107.31 385.7 110.1 385.7 110.1 C 385.7 110.1 368.09 110.12 368.1 110.1 C 368.2 115.2 370.3 119.1 374.9 119.1 C 376.9 119.1 379.1 117.8 380.7 115.7 C 380.7 115.7 384.6 120.2 384.6 120.2 C 381.9 123.7 378 125.7 374.1 125.7 C 365 125.7 360.2 118.1 360.2 107.5 Z M 373.1 95.9 C 369.1 95.9 368.1 100.8 368.1 104.4 C 368.1 104.4 377.9 104.4 377.9 104.4 C 377.9 100.5 377 95.9 373.1 95.9 Z M 406.4 124.9 C 406.4 124.9 406.39 120.56 406.4 120.6 C 404.9 124 402.1 125.7 399.6 125.7 C 392.8 125.7 389.3 118.7 389.3 107.5 C 389.3 96.6 392.8 89.2 399.6 89.2 C 402.1 89.2 405 90.8 406.4 94.4 C 406.39 94.42 406.4 76.9 406.4 76.9 L 414.5 76.9 L 414.5 124.9 L 406.4 124.9 Z M 406.4 114.4 C 406.4 114.4 406.4 100.6 406.4 100.6 C 405.7 98.3 404 96.4 402.3 96.4 C 398.7 96.4 397.7 101.3 397.7 107.5 C 397.7 113.6 398.7 118.5 402.3 118.5 C 404 118.5 405.7 116.7 406.4 114.4 Z M 430.4 121 C 430.4 121 434.4 113.9 434.4 113.9 C 436.3 116.4 439.4 117.7 442.2 117.7 C 445.1 117.7 447.1 115.5 447.1 112.4 C 447.1 103.9 431.8 103.9 431.8 89.5 C 431.8 82.3 436.7 76.1 445.2 76.1 C 449.2 76.1 453 77.4 455.6 80 C 455.6 80 452.1 86.9 452.1 86.9 C 450.2 85 448 84.1 445.5 84.1 C 442.9 84.1 441 86.1 441 89 C 441 96.4 456.3 97.4 456.3 111.8 C 456.3 119.9 451 125.7 442.8 125.7 C 437.6 125.7 433.5 124.1 430.4 121 Z M 460.5 81.1 C 460.5 78.4 462.8 76.1 465.4 76.1 C 468.2 76.1 470.4 78.4 470.4 81.1 C 470.4 83.8 468.2 86 465.4 86 C 462.8 86 460.5 83.8 460.5 81.1 Z M 461.4 124.9 L 461.4 90.1 L 469.5 90.1 L 469.5 124.9 L 461.4 124.9 Z M 476.1 124.9 L 476.1 76.9 L 484.2 76.9 L 484.2 124.9 L 476.1 124.9 Z M 489.8 81.1 C 489.8 78.4 492.1 76.1 494.8 76.1 C 497.5 76.1 499.8 78.4 499.8 81.1 C 499.8 83.8 497.5 86 494.8 86 C 492.1 86 489.8 83.8 489.8 81.1 Z M 490.8 124.9 L 490.8 90.1 L 498.9 90.1 L 498.9 124.9 L 490.8 124.9 Z M 504.1 107.5 C 504.1 96.9 509 89.2 517.3 89.2 C 521.2 89.2 524.1 90.7 525.8 92.3 C 525.8 92.3 523.2 98.7 523.2 98.7 C 521.7 97.2 520.4 96.4 518.8 96.4 C 514.5 96.4 512.4 101.4 512.4 107.5 C 512.4 113.5 514.5 118.5 518.8 118.5 C 520.4 118.5 521.7 117.8 523.2 116.3 C 523.2 116.3 525.8 122.6 525.8 122.6 C 524.1 124.4 521.2 125.7 517.3 125.7 C 509 125.7 504.1 118 504.1 107.5 Z M 528.9 107.5 C 528.9 97.8 532.8 89.2 541.9 89.2 C 551 89.2 555 97.8 555 107.5 C 555 117.1 551 125.7 541.9 125.7 C 532.8 125.7 528.9 117.1 528.9 107.5 Z M 546.6 107.5 C 546.6 101.6 545.6 96.4 541.9 96.4 C 538.3 96.4 537.3 101.6 537.3 107.5 C 537.3 113.4 538.3 118.5 541.9 118.5 C 545.6 118.5 546.6 113.4 546.6 107.5 Z M 575.7 124.9 C 575.7 124.9 575.73 100.11 575.7 100.1 C 575.7 97.7 574.9 96.4 573.1 96.4 C 571 96.4 569.2 98.7 568.4 101 C 568.39 100.98 568.4 124.9 568.4 124.9 L 560.3 124.9 L 560.3 90.1 L 568.4 90.1 C 568.4 90.1 568.39 94.64 568.4 94.6 C 569.8 91.8 573.4 89.2 576.5 89.2 C 581.8 89.2 583.9 92.3 583.9 97.2 C 583.94 97.16 583.9 124.9 583.9 124.9 L 575.7 124.9 Z M 589.1 107.5 C 589.1 97.4 593.4 89.2 602.2 89.2 C 610.9 89.2 614.6 97.1 614.6 107.3 C 614.61 107.31 614.6 110.1 614.6 110.1 C 614.6 110.1 596.97 110.12 597 110.1 C 597 115.2 599.2 119.1 603.8 119.1 C 605.8 119.1 608 117.8 609.6 115.7 C 609.6 115.7 613.5 120.2 613.5 120.2 C 610.8 123.7 606.9 125.7 602.9 125.7 C 593.9 125.7 589.1 118.1 589.1 107.5 Z M 601.9 95.9 C 598 95.9 597 100.8 597 104.4 C 597 104.4 606.8 104.4 606.8 104.4 C 606.8 100.5 605.9 95.9 601.9 95.9 Z M 628.9 121 C 628.9 121 632.8 113.9 632.8 113.9 C 634.8 116.4 637.9 117.7 640.7 117.7 C 643.6 117.7 645.5 115.5 645.5 112.4 C 645.5 103.9 630.2 103.9 630.2 89.5 C 630.2 82.3 635.1 76.1 643.6 76.1 C 647.7 76.1 651.4 77.4 654.1 80 C 654.1 80 650.5 86.9 650.5 86.9 C 648.7 85 646.4 84.1 643.9 84.1 C 641.3 84.1 639.5 86.1 639.5 89 C 639.5 96.4 654.7 97.4 654.7 111.8 C 654.7 119.9 649.5 125.7 641.3 125.7 C 636 125.7 632 124.1 628.9 121 Z M 659.8 124.9 L 659.8 76.9 L 668 76.9 L 668 124.9 L 659.8 124.9 Z M 673.6 81.1 C 673.6 78.4 675.9 76.1 678.5 76.1 C 681.3 76.1 683.5 78.4 683.5 81.1 C 683.5 83.8 681.3 86 678.5 86 C 675.9 86 673.6 83.8 673.6 81.1 Z M 674.5 124.9 L 674.5 90.1 L 682.7 90.1 L 682.7 124.9 L 674.5 124.9 Z M 687.8 107.5 C 687.8 96.9 692.7 89.2 701.1 89.2 C 705 89.2 707.9 90.7 709.5 92.3 C 709.5 92.3 706.9 98.7 706.9 98.7 C 705.5 97.2 704.2 96.4 702.5 96.4 C 698.3 96.4 696.2 101.4 696.2 107.5 C 696.2 113.5 698.3 118.5 702.5 118.5 C 704.2 118.5 705.5 117.8 706.9 116.3 C 706.9 116.3 709.5 122.6 709.5 122.6 C 707.9 124.4 705 125.7 701.1 125.7 C 692.7 125.7 687.8 118 687.8 107.5 Z M 712.6 107.5 C 712.6 97.4 716.9 89.2 725.6 89.2 C 734.4 89.2 738.1 97.1 738.1 107.3 C 738.09 107.31 738.1 110.1 738.1 110.1 C 738.1 110.1 720.45 110.12 720.5 110.1 C 720.5 115.2 722.7 119.1 727.3 119.1 C 729.2 119.1 731.5 117.8 733.1 115.7 C 733.1 115.7 737 120.2 737 120.2 C 734.3 123.7 730.4 125.7 726.4 125.7 C 717.4 125.7 712.6 118.1 712.6 107.5 Z M 725.4 95.9 C 721.5 95.9 720.5 100.8 720.5 104.4 C 720.5 104.4 730.2 104.4 730.2 104.4 C 730.2 100.5 729.4 95.9 725.4 95.9 Z " stroke="none" fill="#e9e8e8"/>  </g>  <g id="Polygon115278">    <path d="M 35.9 56.9 L 35.9 8.9 L 56.9 8.9 L 56.9 16.8 L 45 16.8 L 45 28.4 L 56.4 28.4 L 56.4 36.4 L 45 36.4 L 45 56.9 L 35.9 56.9 Z M 62.6 56.9 L 62.6 8.9 L 70.7 8.9 L 70.7 56.9 L 62.6 56.9 Z M 75.9 39.5 C 75.9 29.8 79.8 21.2 88.9 21.2 C 98.1 21.2 102 29.8 102 39.5 C 102 49.1 98.1 57.7 88.9 57.7 C 79.8 57.7 75.9 49.1 75.9 39.5 Z M 93.6 39.5 C 93.6 33.6 92.6 28.4 88.9 28.4 C 85.3 28.4 84.3 33.6 84.3 39.5 C 84.3 45.4 85.3 50.5 88.9 50.5 C 92.6 50.5 93.6 45.4 93.6 39.5 Z M 107.3 56.9 L 107.3 22.1 L 115.4 22.1 C 115.4 22.1 115.41 26.93 115.4 26.9 C 116.8 23.8 120.2 21.2 123.2 21.2 C 123.2 21.2 123.2 29.2 123.2 29.2 C 122.7 29.1 122.1 29 121.6 29 C 119.2 29 116.8 31 115.4 33.5 C 115.41 33.48 115.4 56.9 115.4 56.9 L 107.3 56.9 Z M 142.6 56.9 C 142.6 56.9 142.55 53.57 142.6 53.6 C 141 56.3 137.8 57.7 135.3 57.7 C 129.8 57.7 125.8 53.3 125.8 46.2 C 125.8 39.1 129.8 34.8 135.3 34.8 C 137.8 34.8 141.1 36.1 142.6 38.7 C 142.6 38.7 142.6 34.5 142.6 34.5 C 142.6 30.5 141 28.2 137.3 28.2 C 135 28.2 132.5 29.2 130.2 31.6 C 130.2 31.6 127.2 25.8 127.2 25.8 C 130.4 22.5 135.4 21.2 139 21.2 C 146.1 21.2 150.7 24.8 150.7 32.6 C 150.69 32.62 150.7 56.9 150.7 56.9 L 142.6 56.9 Z M 142.6 48.7 C 142.6 48.7 142.6 44 142.6 44 C 141.7 41.8 140 40.4 138.2 40.4 C 135.4 40.4 134 43 134 46.3 C 134 49.6 135.4 52.3 138.2 52.3 C 140 52.3 141.7 50.9 142.6 48.7 Z M 157.3 56.9 L 157.3 8.9 L 165.4 8.9 L 165.4 56.9 L 157.3 56.9 Z M 184.2 56.9 L 184.2 8.9 L 205.2 8.9 L 205.2 16.8 L 193.2 16.8 L 193.2 28.4 L 204.7 28.4 L 204.7 36.4 L 193.2 36.4 L 193.2 56.9 L 184.2 56.9 Z M 209.4 39.5 C 209.4 29.8 213.4 21.2 222.5 21.2 C 231.6 21.2 235.6 29.8 235.6 39.5 C 235.6 49.1 231.6 57.7 222.5 57.7 C 213.4 57.7 209.4 49.1 209.4 39.5 Z M 227.2 39.5 C 227.2 33.6 226.1 28.4 222.5 28.4 C 218.9 28.4 217.9 33.6 217.9 39.5 C 217.9 45.4 218.9 50.5 222.5 50.5 C 226.1 50.5 227.2 45.4 227.2 39.5 Z M 256 56.9 C 256 56.9 255.95 53.57 256 53.6 C 254.4 56.3 251.2 57.7 248.7 57.7 C 243.2 57.7 239.2 53.3 239.2 46.2 C 239.2 39.1 243.2 34.8 248.7 34.8 C 251.2 34.8 254.5 36.1 256 38.7 C 256 38.7 256 34.5 256 34.5 C 256 30.5 254.4 28.2 250.7 28.2 C 248.4 28.2 245.9 29.2 243.6 31.6 C 243.6 31.6 240.6 25.8 240.6 25.8 C 243.8 22.5 248.8 21.2 252.4 21.2 C 259.5 21.2 264.1 24.8 264.1 32.6 C 264.09 32.62 264.1 56.9 264.1 56.9 L 256 56.9 Z M 256 48.7 C 256 48.7 256 44 256 44 C 255.1 41.8 253.4 40.4 251.6 40.4 C 248.8 40.4 247.4 43 247.4 46.3 C 247.4 49.6 248.8 52.3 251.6 52.3 C 253.4 52.3 255.1 50.9 256 48.7 Z M 301.7 56.9 C 301.7 56.9 301.74 32.11 301.7 32.1 C 301.7 29.5 300.8 28.4 299.1 28.4 C 296.8 28.4 295.1 30.9 294.4 33 C 294.4 32.98 294.4 56.9 294.4 56.9 L 286.2 56.9 C 286.2 56.9 286.19 32.11 286.2 32.1 C 286.2 29.7 285.4 28.4 283.5 28.4 C 281.4 28.4 279.6 30.9 278.8 33 C 278.85 32.98 278.8 56.9 278.8 56.9 L 270.7 56.9 L 270.7 22.1 L 278.8 22.1 C 278.8 22.1 278.85 26.64 278.8 26.6 C 280.1 24 283.7 21.2 287 21.2 C 290.7 21.2 293.5 23 294.1 27 C 295.4 24.1 299.1 21.2 302.5 21.2 C 306.9 21.2 309.9 23.5 309.9 29.2 C 309.88 29.16 309.9 56.9 309.9 56.9 L 301.7 56.9 Z M 328.7 56.9 L 328.7 8.9 C 328.7 8.9 343.14 8.86 343.1 8.9 C 351.1 8.9 354.7 14.5 354.7 21.1 C 354.7 27.1 351.8 30.9 347.6 32.1 C 352.1 32.8 355.3 38 355.3 43.9 C 355.3 51.3 351.9 56.9 343.6 56.9 C 343.64 56.88 328.7 56.9 328.7 56.9 Z M 345.4 22.7 C 345.4 19.2 344.1 16.8 340.8 16.8 C 340.76 16.85 337.7 16.8 337.7 16.8 L 337.7 28.4 C 337.7 28.4 340.76 28.44 340.8 28.4 C 344.1 28.4 345.4 26.1 345.4 22.7 Z M 346 42.6 C 346 39.1 344.4 36.4 341.1 36.4 C 341.05 36.43 337.7 36.4 337.7 36.4 L 337.7 48.9 C 337.7 48.9 341.05 48.89 341.1 48.9 C 344.4 48.9 346 46.7 346 42.6 Z M 376.3 56.9 C 376.3 56.9 376.26 52.49 376.3 52.5 C 374.9 55.3 371.5 57.7 368.1 57.7 C 362.9 57.7 360.8 54.9 360.8 49.9 C 360.78 49.9 360.8 22.1 360.8 22.1 L 368.9 22.1 C 368.9 22.1 368.92 47.02 368.9 47 C 368.9 49.4 369.8 50.5 371.6 50.5 C 373.7 50.5 375.5 48.4 376.3 46.2 C 376.26 46.15 376.3 22.1 376.3 22.1 L 384.5 22.1 L 384.5 56.9 L 376.3 56.9 Z M 406.5 56.9 C 406.5 56.9 406.5 32.11 406.5 32.1 C 406.5 29.7 405.6 28.4 403.8 28.4 C 401.7 28.4 399.9 30.7 399.2 33 C 399.16 32.98 399.2 56.9 399.2 56.9 L 391 56.9 L 391 22.1 L 399.2 22.1 C 399.2 22.1 399.16 26.64 399.2 26.6 C 400.5 23.8 404.1 21.2 407.3 21.2 C 412.5 21.2 414.7 24.3 414.7 29.2 C 414.71 29.16 414.7 56.9 414.7 56.9 L 406.5 56.9 Z M 456.5 56.9 L 451.6 33.2 L 446.6 56.9 L 438 56.9 L 430 22.1 L 438.5 22.1 L 442.9 45.9 L 447.4 22.1 L 455.2 22.1 L 460.1 45.9 L 464.6 22.1 L 473.1 22.1 L 465 56.9 L 456.5 56.9 Z M 475.8 13.1 C 475.8 10.4 478.1 8.1 480.8 8.1 C 483.5 8.1 485.8 10.4 485.8 13.1 C 485.8 15.8 483.5 18 480.8 18 C 478.1 18 475.8 15.8 475.8 13.1 Z M 476.8 56.9 L 476.8 22.1 L 484.9 22.1 L 484.9 56.9 L 476.8 56.9 Z M 492.5 48.9 C 492.54 48.89 492.5 29.2 492.5 29.2 L 489.3 29.2 L 489.3 22.1 L 492.5 22.1 L 492.5 12.6 L 500.7 12.6 L 500.7 22.1 L 505.1 22.1 L 505.1 29.2 L 500.7 29.2 C 500.7 29.2 500.67 47.3 500.7 47.3 C 500.7 49.5 501.2 50.5 502.6 50.5 C 503.4 50.5 504.1 50.2 504.6 49.6 C 504.6 49.6 506.2 55.9 506.2 55.9 C 505 57 503.1 57.7 500.5 57.7 C 494.8 57.7 492.5 54.9 492.5 48.9 Z M 525.5 56.9 C 525.5 56.9 525.51 31.97 525.5 32 C 525.5 29.6 524.7 28.4 522.9 28.4 C 520.8 28.4 519 30.7 518.2 33 C 518.17 32.98 518.2 56.9 518.2 56.9 L 510 56.9 L 510 8.9 L 518.2 8.9 C 518.2 8.9 518.17 26.64 518.2 26.6 C 519.5 23.8 523.1 21.2 526.3 21.2 C 531.6 21.2 533.7 24.1 533.7 29.1 C 533.72 29.09 533.7 56.9 533.7 56.9 L 525.5 56.9 Z M 552.4 56.9 L 552.4 8.9 C 552.4 8.9 565.4 8.86 565.4 8.9 C 574.8 8.9 578.9 16 578.9 24 C 578.9 32.1 574.8 39.2 565.4 39.2 C 565.4 39.24 561.5 39.2 561.5 39.2 L 561.5 56.9 L 552.4 56.9 Z M 569.7 24 C 569.7 19.7 567.8 16.8 564.5 16.8 C 564.47 16.85 561.5 16.8 561.5 16.8 L 561.5 31.2 C 561.5 31.2 564.47 31.25 564.5 31.2 C 567.8 31.2 569.7 28.4 569.7 24 Z M 597.8 56.9 C 597.8 56.9 597.8 53.57 597.8 53.6 C 596.3 56.3 593 57.7 590.5 57.7 C 585.1 57.7 581.1 53.3 581.1 46.2 C 581.1 39.1 585.1 34.8 590.5 34.8 C 593 34.8 596.4 36.1 597.8 38.7 C 597.8 38.7 597.8 34.5 597.8 34.5 C 597.8 30.5 596.2 28.2 592.5 28.2 C 590.2 28.2 587.8 29.2 585.5 31.6 C 585.5 31.6 582.5 25.8 582.5 25.8 C 585.6 22.5 590.6 21.2 594.2 21.2 C 601.3 21.2 605.9 24.8 605.9 32.6 C 605.94 32.62 605.9 56.9 605.9 56.9 L 597.8 56.9 Z M 597.8 48.7 C 597.8 48.7 597.8 44 597.8 44 C 596.9 41.8 595.2 40.4 593.4 40.4 C 590.6 40.4 589.2 43 589.2 46.3 C 589.2 49.6 590.6 52.3 593.4 52.3 C 595.2 52.3 596.9 50.9 597.8 48.7 Z M 620.7 52.6 C 620.7 52.56 620.7 70.1 620.7 70.1 L 612.6 70.1 L 612.6 22.1 L 620.7 22.1 C 620.7 22.1 620.7 26.42 620.7 26.4 C 622.2 23 625 21.2 627.5 21.2 C 634.3 21.2 637.8 28.3 637.8 39.5 C 637.8 50.4 634.3 57.7 627.5 57.7 C 625 57.7 622.1 56.2 620.7 52.6 Z M 629.4 39.5 C 629.4 33.3 628.4 28.4 624.8 28.4 C 623.1 28.4 621.4 30.2 620.7 32.5 C 620.7 32.5 620.7 46.4 620.7 46.4 C 621.4 48.7 623.1 50.5 624.8 50.5 C 628.4 50.5 629.4 45.6 629.4 39.5 Z M 641.6 39.5 C 641.6 29.4 646 21.2 654.7 21.2 C 663.5 21.2 667.1 29.1 667.1 39.3 C 667.14 39.31 667.1 42.1 667.1 42.1 C 667.1 42.1 649.5 42.12 649.5 42.1 C 649.6 47.2 651.7 51.1 656.3 51.1 C 658.3 51.1 660.5 49.8 662.1 47.7 C 662.1 47.7 666.1 52.2 666.1 52.2 C 663.3 55.7 659.4 57.7 655.5 57.7 C 646.4 57.7 641.6 50.1 641.6 39.5 Z M 654.5 27.9 C 650.5 27.9 649.5 32.8 649.5 36.4 C 649.5 36.4 659.3 36.4 659.3 36.4 C 659.3 32.5 658.4 27.9 654.5 27.9 Z M 672.1 56.9 L 672.1 22.1 L 680.2 22.1 C 680.2 22.1 680.24 26.93 680.2 26.9 C 681.6 23.8 685 21.2 688 21.2 C 688 21.2 688 29.2 688 29.2 C 687.5 29.1 686.9 29 686.4 29 C 684.1 29 681.6 31 680.2 33.5 C 680.24 33.48 680.2 56.9 680.2 56.9 L 672.1 56.9 Z M 704.4 56.9 L 704.4 8.9 C 704.4 8.9 717.39 8.86 717.4 8.9 C 726.8 8.9 730.9 16 730.9 24 C 730.9 32.1 726.8 39.2 717.4 39.2 C 717.39 39.24 713.5 39.2 713.5 39.2 L 713.5 56.9 L 704.4 56.9 Z M 721.7 24 C 721.7 19.7 719.8 16.8 716.5 16.8 C 716.45 16.85 713.5 16.8 713.5 16.8 L 713.5 31.2 C 713.5 31.2 716.45 31.25 716.5 31.2 C 719.8 31.2 721.7 28.4 721.7 24 Z M 751.2 56.9 C 751.2 56.9 751.23 52.49 751.2 52.5 C 749.9 55.3 746.5 57.7 743.1 57.7 C 737.8 57.7 735.8 54.9 735.8 49.9 C 735.75 49.9 735.8 22.1 735.8 22.1 L 743.9 22.1 C 743.9 22.1 743.89 47.02 743.9 47 C 743.9 49.4 744.8 50.5 746.6 50.5 C 748.6 50.5 750.4 48.4 751.2 46.2 C 751.23 46.15 751.2 22.1 751.2 22.1 L 759.4 22.1 L 759.4 56.9 L 751.2 56.9 Z M 766 56.9 L 766 8.9 L 774.1 8.9 L 774.1 56.9 L 766 56.9 Z M 788.8 52.6 C 788.81 52.56 788.8 70.1 788.8 70.1 L 780.7 70.1 L 780.7 22.1 L 788.8 22.1 C 788.8 22.1 788.81 26.42 788.8 26.4 C 790.3 23 793.1 21.2 795.6 21.2 C 802.4 21.2 805.9 28.3 805.9 39.5 C 805.9 50.4 802.4 57.7 795.6 57.7 C 793.1 57.7 790.3 56.2 788.8 52.6 Z M 797.5 39.5 C 797.5 33.3 796.5 28.4 792.9 28.4 C 791.2 28.4 789.5 30.2 788.8 32.5 C 788.8 32.5 788.8 46.4 788.8 46.4 C 789.5 48.7 791.2 50.5 792.9 50.5 C 796.5 50.5 797.5 45.6 797.5 39.5 Z " stroke="none" fill="#e9e8e8"/>  </g></svg>