<?xml version="1.0" standalone="no"?><!DOCTYPE svg PUBLIC "-//W3C//DTD SVG 1.1//EN" "http://www.w3.org/Graphics/SVG/1.1/DTD/svg11.dtd"><svg xmlns="http://www.w3.org/2000/svg" version="1.1" width="648px" height="575.3px" viewBox="0 0 648 575.3">  <desc>Mix hair wax with myrosinase and equal parts of Blue 2 and Yellow 5 Serve as sauce or put inside piping bag or syrin</desc>  <defs/>  <g id="Polygon185727">    <path d="M 307.5 235.9 C 305.7 235.9 304.3 234.5 304.3 232.8 C 304.3 231 305.7 229.6 307.5 229.6 C 309.2 229.6 310.7 231 310.7 232.8 C 310.7 234.5 309.2 235.9 307.5 235.9 Z M 324.7 235.9 C 322.9 235.9 321.4 234.5 321.4 232.8 C 321.4 231 322.9 229.6 324.7 229.6 C 326.4 229.6 327.9 231 327.9 232.8 C 327.9 234.5 326.4 235.9 324.7 235.9 Z M 341.8 235.9 C 340.1 235.9 338.6 234.5 338.6 232.8 C 338.6 231 340.1 229.6 341.8 229.6 C 343.6 229.6 345.1 231 345.1 232.8 C 345.1 234.5 343.6 235.9 341.8 235.9 Z " stroke="none" fill="#b13d24"/>  </g>  <g id="Polygon185726">    <path d="M 29.2 166.3 C 29.2 166.3 30.2 164.8 30.2 164.8 C 31.1 165.8 32.5 166.6 34 166.6 C 35.7 166.6 36.8 165.7 36.8 164.3 C 36.8 160.9 29.6 162.1 29.6 157.1 C 29.6 154.9 31.3 153.2 34.2 153.2 C 36.1 153.2 37.6 153.9 38.6 155 C 38.6 155 37.6 156.5 37.6 156.5 C 36.9 155.5 35.6 154.9 34.2 154.9 C 32.6 154.9 31.6 155.8 31.6 157 C 31.6 160.1 38.9 159 38.9 164.2 C 38.9 166.6 37 168.4 34 168.4 C 32 168.4 30.4 167.7 29.2 166.3 Z M 49.9 164.1 C 49.9 164.1 49.9 157.4 49.9 157.4 C 49.3 156.2 48 155.1 46.6 155.1 C 44.2 155.1 43.1 157.6 43.1 160.8 C 43.1 163.9 44.2 166.5 46.6 166.5 C 48 166.5 49.3 165.3 49.9 164.1 Z M 40.9 160.8 C 40.9 156.2 42.8 153.2 46.1 153.2 C 47.6 153.2 49 154.1 49.9 155.6 C 49.89 155.6 49.9 153.5 49.9 153.5 L 52 153.5 L 52 173.5 L 49.9 173.5 C 49.9 173.5 49.89 165.92 49.9 165.9 C 49 167.5 47.5 168.4 46.1 168.4 C 42.8 168.4 40.9 165.3 40.9 160.8 Z M 63.5 168 C 63.5 168 63.51 166.01 63.5 166 C 62.6 167.3 61.1 168.4 59.3 168.4 C 56.8 168.4 55.7 167.2 55.7 164.5 C 55.68 164.51 55.7 153.5 55.7 153.5 L 57.8 153.5 C 57.8 153.5 57.81 163.88 57.8 163.9 C 57.8 165.8 58.7 166.5 60.1 166.5 C 61.6 166.5 62.9 165.4 63.5 164.2 C 63.51 164.21 63.5 153.5 63.5 153.5 L 65.7 153.5 L 65.7 168 L 63.5 168 Z M 68.6 160.8 C 68.6 156.6 70.8 153.2 74.5 153.2 C 78.3 153.2 80.2 156.6 80.2 160.8 C 80.22 160.82 80.2 161.5 80.2 161.5 C 80.2 161.5 70.83 161.48 70.8 161.5 C 70.9 164.4 72.4 166.6 75 166.6 C 76.3 166.6 77.5 166 78.4 164.8 C 78.4 164.8 79.6 166.1 79.6 166.1 C 78.4 167.5 76.8 168.4 74.8 168.4 C 70.9 168.4 68.6 165.2 68.6 160.8 Z M 74.5 155 C 71.9 155 70.9 157.8 70.8 159.9 C 70.8 159.9 78.1 159.9 78.1 159.9 C 78.1 157.7 77.1 155 74.5 155 Z M 82.3 160.8 C 82.3 156.6 84.6 153.2 88.2 153.2 C 92 153.2 94 156.6 94 160.8 C 93.96 160.82 94 161.5 94 161.5 C 94 161.5 84.57 161.48 84.6 161.5 C 84.7 164.4 86.2 166.6 88.7 166.6 C 90 166.6 91.3 166 92.2 164.8 C 92.2 164.8 93.3 166.1 93.3 166.1 C 92.2 167.5 90.5 168.4 88.6 168.4 C 84.7 168.4 82.3 165.2 82.3 160.8 Z M 88.2 155 C 85.6 155 84.6 157.8 84.6 159.9 C 84.6 159.9 91.8 159.9 91.8 159.9 C 91.8 157.7 90.8 155 88.2 155 Z M 96.1 168 L 96.1 166.3 L 102.4 155.4 L 96.1 155.4 L 96.1 153.5 L 105 153.5 L 105 155.2 L 98.8 166.1 L 105.1 166.1 L 105.1 168 L 96.1 168 Z M 107.4 160.8 C 107.4 156.6 109.6 153.2 113.3 153.2 C 117.1 153.2 119 156.6 119 160.8 C 119.01 160.82 119 161.5 119 161.5 C 119 161.5 109.62 161.48 109.6 161.5 C 109.7 164.4 111.2 166.6 113.8 166.6 C 115 166.6 116.3 166 117.2 164.8 C 117.2 164.8 118.4 166.1 118.4 166.1 C 117.2 167.5 115.6 168.4 113.6 168.4 C 109.7 168.4 107.4 165.2 107.4 160.8 Z M 113.2 155 C 110.7 155 109.7 157.8 109.6 159.9 C 109.6 159.9 116.9 159.9 116.9 159.9 C 116.8 157.7 115.9 155 113.2 155 Z M 127.3 160.8 C 127.3 156.7 129.3 153.2 133.2 153.2 C 137.1 153.2 139.1 156.7 139.1 160.8 C 139.1 164.8 137.1 168.4 133.2 168.4 C 129.3 168.4 127.3 164.8 127.3 160.8 Z M 136.8 160.8 C 136.8 157.9 135.7 155.1 133.2 155.1 C 130.7 155.1 129.5 157.9 129.5 160.8 C 129.5 163.7 130.7 166.5 133.2 166.5 C 135.7 166.5 136.8 163.7 136.8 160.8 Z M 149.8 168 C 149.8 168 149.84 166.01 149.8 166 C 149 167.3 147.4 168.4 145.6 168.4 C 143.2 168.4 142 167.2 142 164.5 C 142.01 164.51 142 153.5 142 153.5 L 144.1 153.5 C 144.1 153.5 144.14 163.88 144.1 163.9 C 144.1 165.8 145 166.5 146.5 166.5 C 147.9 166.5 149.2 165.4 149.8 164.2 C 149.84 164.21 149.8 153.5 149.8 153.5 L 152 153.5 L 152 168 L 149.8 168 Z M 156.1 165.1 C 156.08 165.11 156.1 155.4 156.1 155.4 L 154.2 155.4 L 154.2 153.5 L 156.1 153.5 L 156.1 149.6 L 158.2 149.6 L 158.2 153.5 L 160.7 153.5 L 160.7 155.4 L 158.2 155.4 C 158.2 155.4 158.24 164.72 158.2 164.7 C 158.2 165.8 158.6 166.5 159.4 166.5 C 160 166.5 160.4 166.2 160.7 165.9 C 160.7 165.9 161.3 167.5 161.3 167.5 C 160.8 168 160.1 168.4 159 168.4 C 157 168.4 156.1 167.3 156.1 165.1 Z M 176.8 168 C 176.8 168 176.84 166.46 176.8 166.5 C 175.9 167.8 174.5 168.4 173 168.4 C 170.7 168.4 168.7 166.6 168.7 163.6 C 168.7 160.5 170.7 158.8 173 158.8 C 174.5 158.8 175.9 159.4 176.8 160.6 C 176.8 160.6 176.8 158.1 176.8 158.1 C 176.8 156.1 175.8 155 173.9 155 C 172.5 155 171.4 155.5 170.2 156.8 C 170.2 156.8 169.3 155.3 169.3 155.3 C 170.7 153.8 172.4 153.2 174.2 153.2 C 177.1 153.2 179 154.6 179 157.9 C 179 157.88 179 168 179 168 L 176.8 168 Z M 176.8 165 C 176.8 165 176.8 162.2 176.8 162.2 C 176.2 161 175 160.4 173.7 160.4 C 171.9 160.4 170.8 161.8 170.8 163.6 C 170.8 165.4 171.9 166.8 173.7 166.8 C 175 166.8 176.2 166.2 176.8 165 Z M 181.5 166.3 C 181.5 166.3 182.5 164.8 182.5 164.8 C 183.4 165.8 184.8 166.6 186.3 166.6 C 188 166.6 189.1 165.7 189.1 164.3 C 189.1 160.9 181.9 162.1 181.9 157.1 C 181.9 154.9 183.6 153.2 186.5 153.2 C 188.4 153.2 189.9 153.9 190.9 155 C 190.9 155 189.9 156.5 189.9 156.5 C 189.2 155.5 187.9 154.9 186.5 154.9 C 184.9 154.9 184 155.8 184 157 C 184 160.1 191.2 159 191.2 164.2 C 191.2 166.6 189.3 168.4 186.4 168.4 C 184.3 168.4 182.7 167.7 181.5 166.3 Z M 200 172.1 C 200 172.1 201 170.4 201 170.4 C 201.9 171.5 203.2 172.1 204.7 172.1 C 206.7 172.1 208.4 170.9 208.4 168.1 C 208.4 168.1 208.4 165.7 208.4 165.7 C 207.5 167.2 206.1 168.2 204.6 168.2 C 201.3 168.2 199.4 165.3 199.4 160.7 C 199.4 156.2 201.3 153.2 204.6 153.2 C 206 153.2 207.5 154 208.4 155.6 C 208.37 155.63 208.4 153.5 208.4 153.5 L 210.5 153.5 C 210.5 153.5 210.53 167.99 210.5 168 C 210.5 172.5 207.8 173.9 204.8 173.9 C 202.9 173.9 201.4 173.5 200 172.1 Z M 208.4 163.9 C 208.4 163.9 208.4 157.5 208.4 157.5 C 207.8 156.2 206.5 155.1 205.1 155.1 C 202.7 155.1 201.6 157.6 201.6 160.7 C 201.6 163.8 202.7 166.3 205.1 166.3 C 206.5 166.3 207.8 165.1 208.4 163.9 Z M 221.6 168 C 221.6 168 221.6 166.46 221.6 166.5 C 220.7 167.8 219.3 168.4 217.8 168.4 C 215.5 168.4 213.4 166.6 213.4 163.6 C 213.4 160.5 215.4 158.8 217.8 158.8 C 219.3 158.8 220.7 159.4 221.6 160.6 C 221.6 160.6 221.6 158.1 221.6 158.1 C 221.6 156.1 220.5 155 218.6 155 C 217.3 155 216.1 155.5 215 156.8 C 215 156.8 214 155.3 214 155.3 C 215.4 153.8 217.1 153.2 219 153.2 C 221.8 153.2 223.8 154.6 223.8 157.9 C 223.76 157.88 223.8 168 223.8 168 L 221.6 168 Z M 221.6 165 C 221.6 165 221.6 162.2 221.6 162.2 C 220.9 161 219.7 160.4 218.5 160.4 C 216.7 160.4 215.6 161.8 215.6 163.6 C 215.6 165.4 216.7 166.8 218.5 166.8 C 219.7 166.8 220.9 166.2 221.6 165 Z M 227.4 168 L 227.4 153.5 L 229.5 153.5 C 229.5 153.5 229.52 155.84 229.5 155.8 C 230.5 154.3 231.9 153.2 233.6 153.2 C 233.6 153.2 233.6 155.5 233.6 155.5 C 233.4 155.4 233.2 155.4 232.9 155.4 C 231.6 155.4 230.1 156.5 229.5 157.7 C 229.52 157.73 229.5 168 229.5 168 L 227.4 168 Z M 243.7 168 C 243.7 168 243.65 157.7 243.7 157.7 C 243.7 155.8 242.8 155.1 241.3 155.1 C 239.9 155.1 238.6 156.2 238 157.4 C 237.95 157.4 238 168 238 168 L 235.8 168 L 235.8 153.5 L 238 153.5 C 238 153.5 237.95 155.6 238 155.6 C 238.8 154.3 240.4 153.2 242.2 153.2 C 244.6 153.2 245.8 154.5 245.8 157.1 C 245.81 157.1 245.8 168 245.8 168 L 243.7 168 Z M 249.1 150 C 249.1 149.2 249.7 148.5 250.5 148.5 C 251.3 148.5 252 149.2 252 150 C 252 150.8 251.3 151.4 250.5 151.4 C 249.7 151.4 249.1 150.8 249.1 150 Z M 249.5 168 L 249.5 153.5 L 251.6 153.5 L 251.6 168 L 249.5 168 Z M 254.1 166.3 C 254.1 166.3 255.2 164.8 255.2 164.8 C 256 165.8 257.4 166.6 259 166.6 C 260.6 166.6 261.7 165.7 261.7 164.3 C 261.7 160.9 254.5 162.1 254.5 157.1 C 254.5 154.9 256.3 153.2 259.1 153.2 C 261.1 153.2 262.5 153.9 263.5 155 C 263.5 155 262.5 156.5 262.5 156.5 C 261.8 155.5 260.6 154.9 259.2 154.9 C 257.6 154.9 256.6 155.8 256.6 157 C 256.6 160.1 263.8 159 263.8 164.2 C 263.8 166.6 262 168.4 259 168.4 C 256.9 168.4 255.3 167.7 254.1 166.3 Z M 274.4 168 C 274.4 168 274.43 157.67 274.4 157.7 C 274.4 155.8 273.5 155.1 272.1 155.1 C 270.7 155.1 269.4 156.2 268.7 157.4 C 268.7 157.4 268.7 168 268.7 168 L 266.6 168 L 266.6 148 L 268.7 148 C 268.7 148 268.7 155.6 268.7 155.6 C 269.5 154.3 271.2 153.2 272.9 153.2 C 275.4 153.2 276.6 154.4 276.6 157 C 276.56 157.04 276.6 168 276.6 168 L 274.4 168 Z M 280.1 166.7 C 280.1 165.9 280.8 165.1 281.7 165.1 C 282.5 165.1 283.3 165.9 283.3 166.7 C 283.3 167.6 282.5 168.3 281.7 168.3 C 280.8 168.3 280.1 167.6 280.1 166.7 Z " stroke="none" fill="#efd8d3"/>  </g>  <g id="Polygon185725">    <path d="M 1.6 132 C 1.6 132 1.59 130.07 1.6 130.1 C 8.1 122.5 10.4 120.1 10.4 117.2 C 10.4 115 8.9 113.8 7.2 113.8 C 5.3 113.8 3.9 114.8 2.9 116.4 C 2.9 116.4 1.4 114.9 1.4 114.9 C 2.7 112.9 4.7 111.7 7.2 111.7 C 10.3 111.7 12.8 113.7 12.8 117.2 C 12.8 120.5 10.3 123.5 5 129.9 C 4.98 129.89 12.9 129.9 12.9 129.9 L 12.9 132 L 1.6 132 Z M 16.2 130.7 C 16.2 129.9 16.9 129.1 17.8 129.1 C 18.7 129.1 19.4 129.9 19.4 130.7 C 19.4 131.6 18.7 132.3 17.8 132.3 C 16.9 132.3 16.2 131.6 16.2 130.7 Z M 29.2 129.9 C 29.2 129.9 30.5 128 30.5 128 C 31.6 129.3 33.2 130.3 35.2 130.3 C 37.7 130.3 38.8 128.7 38.8 127 C 38.8 122.1 29.8 123.4 29.8 116.9 C 29.8 113.9 32.2 111.7 35.5 111.7 C 37.8 111.7 39.6 112.4 40.9 113.8 C 40.9 113.8 39.6 115.6 39.6 115.6 C 38.5 114.4 37.1 113.8 35.5 113.8 C 33.7 113.8 32.2 115 32.2 116.8 C 32.2 121 41.3 120.1 41.3 126.8 C 41.3 129.8 39.3 132.4 35.2 132.4 C 32.6 132.4 30.6 131.4 29.2 129.9 Z M 43.4 124.8 C 43.4 120.6 45.6 117.2 49.3 117.2 C 53.1 117.2 55 120.6 55 124.8 C 55.02 124.82 55 125.5 55 125.5 C 55 125.5 45.63 125.48 45.6 125.5 C 45.7 128.4 47.2 130.6 49.8 130.6 C 51.1 130.6 52.3 130 53.2 128.8 C 53.2 128.8 54.4 130.1 54.4 130.1 C 53.2 131.5 51.6 132.4 49.6 132.4 C 45.7 132.4 43.4 129.2 43.4 124.8 Z M 49.3 119 C 46.7 119 45.7 121.8 45.6 123.9 C 45.6 123.9 52.9 123.9 52.9 123.9 C 52.9 121.7 51.9 119 49.3 119 Z M 57.9 132 L 57.9 117.5 L 60 117.5 C 60 117.5 60 119.84 60 119.8 C 60.9 118.3 62.3 117.2 64.1 117.2 C 64.1 117.2 64.1 119.5 64.1 119.5 C 63.9 119.4 63.6 119.4 63.4 119.4 C 62.1 119.4 60.6 120.5 60 121.7 C 60 121.73 60 132 60 132 L 57.9 132 Z M 69.2 132 L 64.5 117.5 L 66.8 117.5 L 70.4 129.5 L 74.1 117.5 L 76.4 117.5 L 71.6 132 L 69.2 132 Z M 77.5 124.8 C 77.5 120.6 79.7 117.2 83.4 117.2 C 87.2 117.2 89.1 120.6 89.1 124.8 C 89.12 124.82 89.1 125.5 89.1 125.5 C 89.1 125.5 79.73 125.48 79.7 125.5 C 79.8 128.4 81.3 130.6 83.9 130.6 C 85.2 130.6 86.5 130 87.4 128.8 C 87.4 128.8 88.5 130.1 88.5 130.1 C 87.3 131.5 85.7 132.4 83.7 132.4 C 79.9 132.4 77.5 129.2 77.5 124.8 Z M 83.4 119 C 80.8 119 79.8 121.8 79.7 123.9 C 79.7 123.9 87 123.9 87 123.9 C 87 121.7 86 119 83.4 119 Z M 105.6 132 C 105.6 132 105.56 130.46 105.6 130.5 C 104.6 131.8 103.2 132.4 101.8 132.4 C 99.4 132.4 97.4 130.6 97.4 127.6 C 97.4 124.5 99.4 122.8 101.8 122.8 C 103.2 122.8 104.7 123.4 105.6 124.6 C 105.6 124.6 105.6 122.1 105.6 122.1 C 105.6 120.1 104.5 119 102.6 119 C 101.2 119 100.1 119.5 99 120.8 C 99 120.8 98 119.3 98 119.3 C 99.4 117.8 101.1 117.2 102.9 117.2 C 105.8 117.2 107.7 118.6 107.7 121.9 C 107.72 121.88 107.7 132 107.7 132 L 105.6 132 Z M 105.6 129 C 105.6 129 105.6 126.2 105.6 126.2 C 104.9 125 103.7 124.4 102.4 124.4 C 100.6 124.4 99.6 125.8 99.6 127.6 C 99.6 129.4 100.6 130.8 102.4 130.8 C 103.7 130.8 104.9 130.2 105.6 129 Z M 110.2 130.3 C 110.2 130.3 111.3 128.8 111.3 128.8 C 112.1 129.8 113.5 130.6 115 130.6 C 116.7 130.6 117.8 129.7 117.8 128.3 C 117.8 124.9 110.6 126.1 110.6 121.1 C 110.6 118.9 112.3 117.2 115.2 117.2 C 117.1 117.2 118.6 117.9 119.6 119 C 119.6 119 118.6 120.5 118.6 120.5 C 117.9 119.5 116.7 118.9 115.3 118.9 C 113.7 118.9 112.7 119.8 112.7 121 C 112.7 124.1 119.9 123 119.9 128.2 C 119.9 130.6 118 132.4 115.1 132.4 C 113 132.4 111.4 131.7 110.2 130.3 Z M 127.6 130.3 C 127.6 130.3 128.7 128.8 128.7 128.8 C 129.6 129.8 130.9 130.6 132.5 130.6 C 134.2 130.6 135.3 129.7 135.3 128.3 C 135.3 124.9 128.1 126.1 128.1 121.1 C 128.1 118.9 129.8 117.2 132.7 117.2 C 134.6 117.2 136.1 117.9 137.1 119 C 137.1 119 136.1 120.5 136.1 120.5 C 135.4 119.5 134.1 118.9 132.7 118.9 C 131.1 118.9 130.1 119.8 130.1 121 C 130.1 124.1 137.4 123 137.4 128.2 C 137.4 130.6 135.5 132.4 132.5 132.4 C 130.5 132.4 128.8 131.7 127.6 130.3 Z M 147.6 132 C 147.6 132 147.56 130.46 147.6 130.5 C 146.6 131.8 145.2 132.4 143.8 132.4 C 141.4 132.4 139.4 130.6 139.4 127.6 C 139.4 124.5 141.4 122.8 143.8 122.8 C 145.2 122.8 146.7 123.4 147.6 124.6 C 147.6 124.6 147.6 122.1 147.6 122.1 C 147.6 120.1 146.5 119 144.6 119 C 143.2 119 142.1 119.5 141 120.8 C 141 120.8 140 119.3 140 119.3 C 141.4 117.8 143.1 117.2 144.9 117.2 C 147.8 117.2 149.7 118.6 149.7 121.9 C 149.72 121.88 149.7 132 149.7 132 L 147.6 132 Z M 147.6 129 C 147.6 129 147.6 126.2 147.6 126.2 C 146.9 125 145.7 124.4 144.4 124.4 C 142.6 124.4 141.6 125.8 141.6 127.6 C 141.6 129.4 142.6 130.8 144.4 130.8 C 145.7 130.8 146.9 130.2 147.6 129 Z M 161.2 132 C 161.2 132 161.18 130.01 161.2 130 C 160.3 131.3 158.8 132.4 157 132.4 C 154.5 132.4 153.4 131.2 153.4 128.5 C 153.35 128.51 153.4 117.5 153.4 117.5 L 155.5 117.5 C 155.5 117.5 155.48 127.88 155.5 127.9 C 155.5 129.8 156.4 130.5 157.8 130.5 C 159.2 130.5 160.6 129.4 161.2 128.2 C 161.18 128.21 161.2 117.5 161.2 117.5 L 163.3 117.5 L 163.3 132 L 161.2 132 Z M 166.3 124.8 C 166.3 120.5 168.6 117.2 172.3 117.2 C 174.3 117.2 175.5 118 176.4 119.1 C 176.4 119.1 175.3 120.6 175.3 120.6 C 174.5 119.5 173.6 119.1 172.5 119.1 C 169.9 119.1 168.5 121.7 168.5 124.8 C 168.5 127.9 169.9 130.5 172.5 130.5 C 173.6 130.5 174.5 130 175.3 129 C 175.3 129 176.4 130.5 176.4 130.5 C 175.5 131.6 174.3 132.4 172.3 132.4 C 168.6 132.4 166.3 129.1 166.3 124.8 Z M 178.2 124.8 C 178.2 120.6 180.4 117.2 184 117.2 C 187.9 117.2 189.8 120.6 189.8 124.8 C 189.77 124.82 189.8 125.5 189.8 125.5 C 189.8 125.5 180.38 125.48 180.4 125.5 C 180.5 128.4 182 130.6 184.6 130.6 C 185.8 130.6 187.1 130 188 128.8 C 188 128.8 189.1 130.1 189.1 130.1 C 188 131.5 186.3 132.4 184.4 132.4 C 180.5 132.4 178.2 129.2 178.2 124.8 Z M 184 119 C 181.5 119 180.4 121.8 180.4 123.9 C 180.4 123.9 187.6 123.9 187.6 123.9 C 187.6 121.7 186.7 119 184 119 Z M 198.1 124.8 C 198.1 120.7 200.1 117.2 203.9 117.2 C 207.8 117.2 209.8 120.7 209.8 124.8 C 209.8 128.8 207.8 132.4 203.9 132.4 C 200.1 132.4 198.1 128.8 198.1 124.8 Z M 207.6 124.8 C 207.6 121.9 206.5 119.1 203.9 119.1 C 201.4 119.1 200.3 121.9 200.3 124.8 C 200.3 127.7 201.4 130.5 203.9 130.5 C 206.5 130.5 207.6 127.7 207.6 124.8 Z M 212.8 132 L 212.8 117.5 L 214.9 117.5 C 214.9 117.5 214.91 119.84 214.9 119.8 C 215.8 118.3 217.3 117.2 219 117.2 C 219 117.2 219 119.5 219 119.5 C 218.8 119.4 218.5 119.4 218.3 119.4 C 217 119.4 215.5 120.5 214.9 121.7 C 214.91 121.73 214.9 132 214.9 132 L 212.8 132 Z M 229.5 129.9 C 229.49 129.92 229.5 137.5 229.5 137.5 L 227.4 137.5 L 227.4 117.5 L 229.5 117.5 C 229.5 117.5 229.49 119.6 229.5 119.6 C 230.3 118.1 231.8 117.2 233.3 117.2 C 236.6 117.2 238.5 120.2 238.5 124.8 C 238.5 129.3 236.6 132.4 233.3 132.4 C 231.8 132.4 230.4 131.5 229.5 129.9 Z M 236.2 124.8 C 236.2 121.6 235.1 119.1 232.8 119.1 C 231.4 119.1 230.1 120.2 229.5 121.4 C 229.5 121.4 229.5 128.1 229.5 128.1 C 230.1 129.3 231.4 130.5 232.8 130.5 C 235.1 130.5 236.2 127.9 236.2 124.8 Z M 249.2 132 C 249.2 132 249.23 130.01 249.2 130 C 248.4 131.3 246.8 132.4 245 132.4 C 242.6 132.4 241.4 131.2 241.4 128.5 C 241.4 128.51 241.4 117.5 241.4 117.5 L 243.5 117.5 C 243.5 117.5 243.53 127.88 243.5 127.9 C 243.5 129.8 244.4 130.5 245.8 130.5 C 247.3 130.5 248.6 129.4 249.2 128.2 C 249.23 128.21 249.2 117.5 249.2 117.5 L 251.4 117.5 L 251.4 132 L 249.2 132 Z M 255.5 129.1 C 255.47 129.11 255.5 119.4 255.5 119.4 L 253.6 119.4 L 253.6 117.5 L 255.5 117.5 L 255.5 113.6 L 257.6 113.6 L 257.6 117.5 L 260.1 117.5 L 260.1 119.4 L 257.6 119.4 C 257.6 119.4 257.63 128.72 257.6 128.7 C 257.6 129.8 258 130.5 258.8 130.5 C 259.3 130.5 259.8 130.2 260.1 129.9 C 260.1 129.9 260.7 131.5 260.7 131.5 C 260.2 132 259.5 132.4 258.4 132.4 C 256.4 132.4 255.5 131.3 255.5 129.1 Z M 268.4 114 C 268.4 113.2 269.1 112.5 269.8 112.5 C 270.7 112.5 271.3 113.2 271.3 114 C 271.3 114.8 270.7 115.4 269.8 115.4 C 269.1 115.4 268.4 114.8 268.4 114 Z M 268.8 132 L 268.8 117.5 L 270.9 117.5 L 270.9 132 L 268.8 132 Z M 282.4 132 C 282.4 132 282.41 121.7 282.4 121.7 C 282.4 119.8 281.5 119.1 280.1 119.1 C 278.7 119.1 277.4 120.2 276.7 121.4 C 276.71 121.4 276.7 132 276.7 132 L 274.6 132 L 274.6 117.5 L 276.7 117.5 C 276.7 117.5 276.71 119.6 276.7 119.6 C 277.6 118.3 279.2 117.2 280.9 117.2 C 283.4 117.2 284.6 118.5 284.6 121.1 C 284.57 121.1 284.6 132 284.6 132 L 282.4 132 Z M 287.1 130.3 C 287.1 130.3 288.1 128.8 288.1 128.8 C 289 129.8 290.4 130.6 291.9 130.6 C 293.6 130.6 294.7 129.7 294.7 128.3 C 294.7 124.9 287.5 126.1 287.5 121.1 C 287.5 118.9 289.2 117.2 292.1 117.2 C 294 117.2 295.5 117.9 296.5 119 C 296.5 119 295.5 120.5 295.5 120.5 C 294.8 119.5 293.5 118.9 292.1 118.9 C 290.5 118.9 289.6 119.8 289.6 121 C 289.6 124.1 296.8 123 296.8 128.2 C 296.8 130.6 294.9 132.4 292 132.4 C 289.9 132.4 288.3 131.7 287.1 130.3 Z M 299.1 114 C 299.1 113.2 299.8 112.5 300.6 112.5 C 301.4 112.5 302.1 113.2 302.1 114 C 302.1 114.8 301.4 115.4 300.6 115.4 C 299.8 115.4 299.1 114.8 299.1 114 Z M 299.5 132 L 299.5 117.5 L 301.7 117.5 L 301.7 132 L 299.5 132 Z M 313.6 132 C 313.6 132 313.61 129.95 313.6 130 C 312.8 131.4 311.3 132.4 309.8 132.4 C 306.6 132.4 304.6 129.4 304.6 124.8 C 304.6 120.3 306.5 117.2 309.8 117.2 C 311.3 117.2 312.7 118 313.6 119.6 C 313.61 119.63 313.6 112 313.6 112 L 315.8 112 L 315.8 132 L 313.6 132 Z M 313.6 128.1 C 313.6 128.1 313.6 121.5 313.6 121.5 C 313.1 120.2 311.7 119.1 310.3 119.1 C 308 119.1 306.9 121.6 306.9 124.8 C 306.9 127.9 308 130.5 310.3 130.5 C 311.7 130.5 313.1 129.4 313.6 128.1 Z M 318.7 124.8 C 318.7 120.6 320.9 117.2 324.6 117.2 C 328.4 117.2 330.3 120.6 330.3 124.8 C 330.32 124.82 330.3 125.5 330.3 125.5 C 330.3 125.5 320.93 125.48 320.9 125.5 C 321 128.4 322.5 130.6 325.1 130.6 C 326.4 130.6 327.6 130 328.5 128.8 C 328.5 128.8 329.7 130.1 329.7 130.1 C 328.5 131.5 326.9 132.4 324.9 132.4 C 321 132.4 318.7 129.2 318.7 124.8 Z M 324.6 119 C 322 119 321 121.8 320.9 123.9 C 320.9 123.9 328.2 123.9 328.2 123.9 C 328.2 121.7 327.2 119 324.6 119 Z M 341.4 129.9 C 341.45 129.92 341.4 137.5 341.4 137.5 L 339.3 137.5 L 339.3 117.5 L 341.4 117.5 C 341.4 117.5 341.45 119.6 341.4 119.6 C 342.3 118.1 343.7 117.2 345.3 117.2 C 348.5 117.2 350.4 120.2 350.4 124.8 C 350.4 129.3 348.5 132.4 345.3 132.4 C 343.8 132.4 342.3 131.5 341.4 129.9 Z M 348.2 124.8 C 348.2 121.6 347.1 119.1 344.7 119.1 C 343.4 119.1 342 120.2 341.4 121.4 C 341.4 121.4 341.4 128.1 341.4 128.1 C 342 129.3 343.4 130.5 344.7 130.5 C 347.1 130.5 348.2 127.9 348.2 124.8 Z M 352.9 114 C 352.9 113.2 353.6 112.5 354.4 112.5 C 355.2 112.5 355.9 113.2 355.9 114 C 355.9 114.8 355.2 115.4 354.4 115.4 C 353.6 115.4 352.9 114.8 352.9 114 Z M 353.4 132 L 353.4 117.5 L 355.5 117.5 L 355.5 132 L 353.4 132 Z M 361.3 129.9 C 361.28 129.92 361.3 137.5 361.3 137.5 L 359.1 137.5 L 359.1 117.5 L 361.3 117.5 C 361.3 117.5 361.28 119.6 361.3 119.6 C 362.1 118.1 363.6 117.2 365.1 117.2 C 368.4 117.2 370.3 120.2 370.3 124.8 C 370.3 129.3 368.4 132.4 365.1 132.4 C 363.6 132.4 362.2 131.5 361.3 129.9 Z M 368 124.8 C 368 121.6 366.9 119.1 364.5 119.1 C 363.2 119.1 361.8 120.2 361.3 121.4 C 361.3 121.4 361.3 128.1 361.3 128.1 C 361.8 129.3 363.2 130.5 364.5 130.5 C 366.9 130.5 368 127.9 368 124.8 Z M 372.8 114 C 372.8 113.2 373.5 112.5 374.2 112.5 C 375 112.5 375.7 113.2 375.7 114 C 375.7 114.8 375 115.4 374.2 115.4 C 373.5 115.4 372.8 114.8 372.8 114 Z M 373.2 132 L 373.2 117.5 L 375.3 117.5 L 375.3 132 L 373.2 132 Z M 386.8 132 C 386.8 132 386.81 121.7 386.8 121.7 C 386.8 119.8 385.9 119.1 384.5 119.1 C 383.1 119.1 381.8 120.2 381.1 121.4 C 381.11 121.4 381.1 132 381.1 132 L 379 132 L 379 117.5 L 381.1 117.5 C 381.1 117.5 381.11 119.6 381.1 119.6 C 381.9 118.3 383.6 117.2 385.3 117.2 C 387.8 117.2 389 118.5 389 121.1 C 388.97 121.1 389 132 389 132 L 386.8 132 Z M 392.5 136.1 C 392.5 136.1 393.5 134.4 393.5 134.4 C 394.5 135.5 395.7 136.1 397.3 136.1 C 399.3 136.1 400.9 134.9 400.9 132.1 C 400.9 132.1 400.9 129.7 400.9 129.7 C 400.1 131.2 398.6 132.2 397.1 132.2 C 393.9 132.2 391.9 129.3 391.9 124.7 C 391.9 120.2 393.8 117.2 397.1 117.2 C 398.6 117.2 400 118 400.9 119.6 C 400.91 119.63 400.9 117.5 400.9 117.5 L 403.1 117.5 C 403.1 117.5 403.07 131.99 403.1 132 C 403.1 136.5 400.4 137.9 397.3 137.9 C 395.4 137.9 393.9 137.5 392.5 136.1 Z M 400.9 127.9 C 400.9 127.9 400.9 121.5 400.9 121.5 C 400.4 120.2 399 119.1 397.6 119.1 C 395.3 119.1 394.2 121.6 394.2 124.7 C 394.2 127.8 395.3 130.3 397.6 130.3 C 399 130.3 400.4 129.1 400.9 127.9 Z M 418.2 130.5 C 420.6 130.5 421.7 127.9 421.7 124.8 C 421.7 121.6 420.6 119.1 418.2 119.1 C 416.9 119.1 415.5 120.2 415 121.5 C 415 121.5 415 128.1 415 128.1 C 415.5 129.4 416.9 130.5 418.2 130.5 Z M 412.8 132 L 412.8 112 L 415 112 C 415 112 414.98 119.63 415 119.6 C 415.9 118 417.3 117.2 418.8 117.2 C 422.1 117.2 424 120.3 424 124.8 C 424 129.4 422.1 132.4 418.8 132.4 C 417.3 132.4 415.8 131.4 415 130 C 414.98 129.95 415 132 415 132 L 412.8 132 Z M 434.4 132 C 434.4 132 434.39 130.46 434.4 130.5 C 433.5 131.8 432 132.4 430.6 132.4 C 428.2 132.4 426.2 130.6 426.2 127.6 C 426.2 124.5 428.2 122.8 430.6 122.8 C 432 122.8 433.5 123.4 434.4 124.6 C 434.4 124.6 434.4 122.1 434.4 122.1 C 434.4 120.1 433.3 119 431.4 119 C 430.1 119 428.9 119.5 427.8 120.8 C 427.8 120.8 426.8 119.3 426.8 119.3 C 428.2 117.8 429.9 117.2 431.7 117.2 C 434.6 117.2 436.5 118.6 436.5 121.9 C 436.55 121.88 436.5 132 436.5 132 L 434.4 132 Z M 434.4 129 C 434.4 129 434.4 126.2 434.4 126.2 C 433.7 125 432.5 124.4 431.3 124.4 C 429.5 124.4 428.4 125.8 428.4 127.6 C 428.4 129.4 429.5 130.8 431.3 130.8 C 432.5 130.8 433.7 130.2 434.4 129 Z M 440.1 136.1 C 440.1 136.1 441 134.4 441 134.4 C 442 135.5 443.2 136.1 444.8 136.1 C 446.8 136.1 448.5 134.9 448.5 132.1 C 448.5 132.1 448.5 129.7 448.5 129.7 C 447.6 131.2 446.2 132.2 444.6 132.2 C 441.4 132.2 439.5 129.3 439.5 124.7 C 439.5 120.2 441.4 117.2 444.6 117.2 C 446.1 117.2 447.6 118 448.5 119.6 C 448.46 119.63 448.5 117.5 448.5 117.5 L 450.6 117.5 C 450.6 117.5 450.62 131.99 450.6 132 C 450.6 136.5 447.9 137.9 444.9 137.9 C 442.9 137.9 441.4 137.5 440.1 136.1 Z M 448.5 127.9 C 448.5 127.9 448.5 121.5 448.5 121.5 C 447.9 120.2 446.6 119.1 445.2 119.1 C 442.8 119.1 441.7 121.6 441.7 124.7 C 441.7 127.8 442.8 130.3 445.2 130.3 C 446.6 130.3 447.9 129.1 448.5 127.9 Z M 459.7 124.8 C 459.7 120.7 461.7 117.2 465.6 117.2 C 469.5 117.2 471.5 120.7 471.5 124.8 C 471.5 128.8 469.5 132.4 465.6 132.4 C 461.7 132.4 459.7 128.8 459.7 124.8 Z M 469.2 124.8 C 469.2 121.9 468.1 119.1 465.6 119.1 C 463.1 119.1 461.9 121.9 461.9 124.8 C 461.9 127.7 463.1 130.5 465.6 130.5 C 468.1 130.5 469.2 127.7 469.2 124.8 Z M 474.4 132 L 474.4 117.5 L 476.5 117.5 C 476.5 117.5 476.54 119.84 476.5 119.8 C 477.5 118.3 478.9 117.2 480.6 117.2 C 480.6 117.2 480.6 119.5 480.6 119.5 C 480.4 119.4 480.2 119.4 479.9 119.4 C 478.6 119.4 477.1 120.5 476.5 121.7 C 476.54 121.73 476.5 132 476.5 132 L 474.4 132 Z M 487.8 130.3 C 487.8 130.3 488.9 128.8 488.9 128.8 C 489.7 129.8 491.1 130.6 492.7 130.6 C 494.4 130.6 495.5 129.7 495.5 128.3 C 495.5 124.9 488.2 126.1 488.2 121.1 C 488.2 118.9 490 117.2 492.9 117.2 C 494.8 117.2 496.2 117.9 497.3 119 C 497.3 119 496.2 120.5 496.2 120.5 C 495.5 119.5 494.3 118.9 492.9 118.9 C 491.3 118.9 490.3 119.8 490.3 121 C 490.3 124.1 497.5 123 497.5 128.2 C 497.5 130.6 495.7 132.4 492.7 132.4 C 490.7 132.4 489 131.7 487.8 130.3 Z M 499.9 135.8 C 500.1 135.9 500.6 136 500.8 136 C 501.7 136 502.2 135.7 502.5 134.5 C 502.55 134.54 503.3 132.3 503.3 132.3 L 498.5 117.5 L 500.8 117.5 L 504.4 129.4 L 508.1 117.5 L 510.4 117.5 C 510.4 117.5 504.59 135.08 504.6 135.1 C 503.9 137.2 502.7 137.9 501 137.9 C 500.5 137.9 499.9 137.8 499.5 137.7 C 499.5 137.7 499.9 135.8 499.9 135.8 Z M 512.2 132 L 512.2 117.5 L 514.4 117.5 C 514.4 117.5 514.37 119.84 514.4 119.8 C 515.3 118.3 516.7 117.2 518.5 117.2 C 518.5 117.2 518.5 119.5 518.5 119.5 C 518.2 119.4 518 119.4 517.8 119.4 C 516.4 119.4 515 120.5 514.4 121.7 C 514.37 121.73 514.4 132 514.4 132 L 512.2 132 Z M 520.2 114 C 520.2 113.2 520.9 112.5 521.7 112.5 C 522.5 112.5 523.2 113.2 523.2 114 C 523.2 114.8 522.5 115.4 521.7 115.4 C 520.9 115.4 520.2 114.8 520.2 114 Z M 520.7 132 L 520.7 117.5 L 522.8 117.5 L 522.8 132 L 520.7 132 Z M 534.3 132 C 534.3 132 534.28 121.7 534.3 121.7 C 534.3 119.8 533.4 119.1 532 119.1 C 530.6 119.1 529.2 120.2 528.6 121.4 C 528.58 121.4 528.6 132 528.6 132 L 526.5 132 L 526.5 117.5 L 528.6 117.5 C 528.6 117.5 528.58 119.6 528.6 119.6 C 529.4 118.3 531 117.2 532.8 117.2 C 535.2 117.2 536.4 118.5 536.4 121.1 C 536.44 121.1 536.4 132 536.4 132 L 534.3 132 Z M 540 136.1 C 540 136.1 541 134.4 541 134.4 C 541.9 135.5 543.2 136.1 544.8 136.1 C 546.7 136.1 548.4 134.9 548.4 132.1 C 548.4 132.1 548.4 129.7 548.4 129.7 C 547.5 131.2 546.1 132.2 544.6 132.2 C 541.3 132.2 539.4 129.3 539.4 124.7 C 539.4 120.2 541.3 117.2 544.6 117.2 C 546 117.2 547.5 118 548.4 119.6 C 548.38 119.63 548.4 117.5 548.4 117.5 L 550.5 117.5 C 550.5 117.5 550.54 131.99 550.5 132 C 550.5 136.5 547.8 137.9 544.8 137.9 C 542.9 137.9 541.4 137.5 540 136.1 Z M 548.4 127.9 C 548.4 127.9 548.4 121.5 548.4 121.5 C 547.8 120.2 546.5 119.1 545.1 119.1 C 542.7 119.1 541.6 121.6 541.6 124.7 C 541.6 127.8 542.7 130.3 545.1 130.3 C 546.5 130.3 547.8 129.1 548.4 127.9 Z M 553.5 124.8 C 553.5 120.6 555.7 117.2 559.3 117.2 C 563.1 117.2 565.1 120.6 565.1 124.8 C 565.06 124.82 565.1 125.5 565.1 125.5 C 565.1 125.5 555.67 125.48 555.7 125.5 C 555.8 128.4 557.3 130.6 559.8 130.6 C 561.1 130.6 562.4 130 563.3 128.8 C 563.3 128.8 564.4 130.1 564.4 130.1 C 563.3 131.5 561.6 132.4 559.7 132.4 C 555.8 132.4 553.5 129.2 553.5 124.8 Z M 559.3 119 C 556.8 119 555.7 121.8 555.7 123.9 C 555.7 123.9 562.9 123.9 562.9 123.9 C 562.9 121.7 561.9 119 559.3 119 Z M 581.5 132 C 581.5 132 581.5 130.46 581.5 130.5 C 580.6 131.8 579.2 132.4 577.7 132.4 C 575.4 132.4 573.3 130.6 573.3 127.6 C 573.3 124.5 575.3 122.8 577.7 122.8 C 579.2 122.8 580.6 123.4 581.5 124.6 C 581.5 124.6 581.5 122.1 581.5 122.1 C 581.5 120.1 580.4 119 578.5 119 C 577.2 119 576 119.5 574.9 120.8 C 574.9 120.8 573.9 119.3 573.9 119.3 C 575.3 117.8 577 117.2 578.9 117.2 C 581.7 117.2 583.7 118.6 583.7 121.9 C 583.66 121.88 583.7 132 583.7 132 L 581.5 132 Z M 581.5 129 C 581.5 129 581.5 126.2 581.5 126.2 C 580.8 125 579.6 124.4 578.4 124.4 C 576.6 124.4 575.5 125.8 575.5 127.6 C 575.5 129.4 576.6 130.8 578.4 130.8 C 579.6 130.8 580.8 130.2 581.5 129 Z M 595.1 132 C 595.1 132 595.12 121.7 595.1 121.7 C 595.1 119.8 594.3 119.1 592.8 119.1 C 591.4 119.1 590.1 120.2 589.4 121.4 C 589.42 121.4 589.4 132 589.4 132 L 587.3 132 L 587.3 117.5 L 589.4 117.5 C 589.4 117.5 589.42 119.6 589.4 119.6 C 590.3 118.3 591.9 117.2 593.6 117.2 C 596.1 117.2 597.3 118.5 597.3 121.1 C 597.28 121.1 597.3 132 597.3 132 L 595.1 132 Z M 609.2 132 C 609.2 132 609.22 129.95 609.2 130 C 608.4 131.4 606.9 132.4 605.4 132.4 C 602.2 132.4 600.2 129.4 600.2 124.8 C 600.2 120.3 602.1 117.2 605.4 117.2 C 606.9 117.2 608.4 118 609.2 119.6 C 609.22 119.63 609.2 112 609.2 112 L 611.4 112 L 611.4 132 L 609.2 132 Z M 609.2 128.1 C 609.2 128.1 609.2 121.5 609.2 121.5 C 608.7 120.2 607.3 119.1 606 119.1 C 603.6 119.1 602.5 121.6 602.5 124.8 C 602.5 127.9 603.6 130.5 606 130.5 C 607.3 130.5 608.7 129.4 609.2 128.1 Z " stroke="none" fill="#efd8d3"/>  </g>  <g id="Polygon185724">    <path d="M 37.8 60 C 37.8 60 37.77 58.46 37.8 58.5 C 36.8 59.8 35.4 60.4 34 60.4 C 31.6 60.4 29.6 58.6 29.6 55.6 C 29.6 52.5 31.6 50.8 34 50.8 C 35.4 50.8 36.9 51.4 37.8 52.6 C 37.8 52.6 37.8 50.1 37.8 50.1 C 37.8 48.1 36.7 47 34.8 47 C 33.4 47 32.3 47.5 31.2 48.8 C 31.2 48.8 30.2 47.3 30.2 47.3 C 31.6 45.8 33.3 45.2 35.1 45.2 C 38 45.2 39.9 46.6 39.9 49.9 C 39.93 49.88 39.9 60 39.9 60 L 37.8 60 Z M 37.8 57 C 37.8 57 37.8 54.2 37.8 54.2 C 37.1 53 35.9 52.4 34.6 52.4 C 32.8 52.4 31.8 53.8 31.8 55.6 C 31.8 57.4 32.8 58.8 34.6 58.8 C 35.9 58.8 37.1 58.2 37.8 57 Z M 51.4 60 C 51.4 60 51.39 49.7 51.4 49.7 C 51.4 47.8 50.5 47.1 49.1 47.1 C 47.7 47.1 46.3 48.2 45.7 49.4 C 45.69 49.4 45.7 60 45.7 60 L 43.6 60 L 43.6 45.5 L 45.7 45.5 C 45.7 45.5 45.69 47.6 45.7 47.6 C 46.5 46.3 48.1 45.2 49.9 45.2 C 52.3 45.2 53.5 46.5 53.5 49.1 C 53.55 49.1 53.5 60 53.5 60 L 51.4 60 Z M 65.5 60 C 65.5 60 65.49 57.95 65.5 58 C 64.6 59.4 63.2 60.4 61.7 60.4 C 58.4 60.4 56.5 57.4 56.5 52.8 C 56.5 48.3 58.4 45.2 61.7 45.2 C 63.1 45.2 64.6 46 65.5 47.6 C 65.49 47.63 65.5 40 65.5 40 L 67.6 40 L 67.6 60 L 65.5 60 Z M 65.5 56.1 C 65.5 56.1 65.5 49.5 65.5 49.5 C 64.9 48.2 63.6 47.1 62.2 47.1 C 59.8 47.1 58.7 49.6 58.7 52.8 C 58.7 55.9 59.8 58.5 62.2 58.5 C 63.6 58.5 64.9 57.4 65.5 56.1 Z M 81.8 60 L 81.8 51.6 L 75.6 40 L 78.3 40 L 83 49.3 L 87.7 40 L 90.3 40 L 84.1 51.6 L 84.1 60 L 81.8 60 Z M 88.6 52.8 C 88.6 48.6 90.9 45.2 94.5 45.2 C 98.3 45.2 100.3 48.6 100.3 52.8 C 100.26 52.82 100.3 53.5 100.3 53.5 C 100.3 53.5 90.87 53.48 90.9 53.5 C 91 56.4 92.5 58.6 95 58.6 C 96.3 58.6 97.6 58 98.5 56.8 C 98.5 56.8 99.6 58.1 99.6 58.1 C 98.5 59.5 96.8 60.4 94.9 60.4 C 91 60.4 88.6 57.2 88.6 52.8 Z M 94.5 47 C 91.9 47 90.9 49.8 90.9 51.9 C 90.9 51.9 98.1 51.9 98.1 51.9 C 98.1 49.7 97.1 47 94.5 47 Z M 103.1 60 L 103.1 40 L 105.2 40 L 105.2 60 L 103.1 60 Z M 108.9 60 L 108.9 40 L 111 40 L 111 60 L 108.9 60 Z M 114 52.8 C 114 48.7 116 45.2 119.8 45.2 C 123.7 45.2 125.8 48.7 125.8 52.8 C 125.8 56.8 123.7 60.4 119.8 60.4 C 116 60.4 114 56.8 114 52.8 Z M 123.5 52.8 C 123.5 49.9 122.4 47.1 119.8 47.1 C 117.4 47.1 116.2 49.9 116.2 52.8 C 116.2 55.7 117.4 58.5 119.8 58.5 C 122.4 58.5 123.5 55.7 123.5 52.8 Z M 139.4 60 L 136.3 48.4 L 133.2 60 L 131 60 L 127.1 45.5 L 129.4 45.5 L 132.2 57.1 L 135.2 45.5 L 137.3 45.5 L 140.4 57.1 L 143.2 45.5 L 145.5 45.5 L 141.6 60 L 139.4 60 Z M 153.3 57.1 C 153.3 57.1 154.9 55.7 154.9 55.7 C 155.8 57.3 157.1 58.3 159.1 58.3 C 161.3 58.3 162.7 56.2 162.7 53.9 C 162.7 51.1 161.3 49.5 159.2 49.5 C 157.8 49.5 156.7 50 155.6 51.4 C 155.6 51.35 153.8 50.8 153.8 50.8 L 153.8 40 L 164 40 L 164 42.1 L 156.2 42.1 C 156.2 42.1 156.2 49.13 156.2 49.1 C 157 48.2 158.3 47.4 159.9 47.4 C 162.8 47.4 165.1 49.7 165.1 53.8 C 165.1 57.6 162.6 60.4 159.1 60.4 C 156.2 60.4 154.5 59.1 153.3 57.1 Z M 168 58.7 C 168 57.9 168.7 57.1 169.6 57.1 C 170.4 57.1 171.2 57.9 171.2 58.7 C 171.2 59.6 170.4 60.3 169.6 60.3 C 168.7 60.3 168 59.6 168 58.7 Z " stroke="none" fill="#efd8d3"/>  </g>  <g id="Polygon185723">    <path d="M 5 24 L 5 7.2 L 1.9 10.5 L 0.4 9 L 5.3 4 L 7.3 4 L 7.3 24 L 5 24 Z M 11 22.7 C 11 21.9 11.7 21.1 12.6 21.1 C 13.4 21.1 14.2 21.9 14.2 22.7 C 14.2 23.6 13.4 24.3 12.6 24.3 C 11.7 24.3 11 23.6 11 22.7 Z M 44.4 24 L 44.4 8.3 L 39.1 24 L 38.1 24 L 32.8 8.3 L 32.8 24 L 30.4 24 L 30.4 4 L 33.8 4 L 38.6 18.2 L 43.5 4 L 46.7 4 L 46.7 24 L 44.4 24 Z M 50.1 6 C 50.1 5.2 50.8 4.5 51.6 4.5 C 52.4 4.5 53 5.2 53 6 C 53 6.8 52.4 7.4 51.6 7.4 C 50.8 7.4 50.1 6.8 50.1 6 Z M 50.5 24 L 50.5 9.5 L 52.6 9.5 L 52.6 24 L 50.5 24 Z M 63.7 24 L 60.4 18.2 L 57.1 24 L 54.7 24 L 59.1 16.6 L 54.9 9.5 L 57.3 9.5 L 60.4 15.1 L 63.5 9.5 L 65.9 9.5 L 61.7 16.6 L 66.1 24 L 63.7 24 Z M 82.2 24 C 82.2 24 82.2 13.67 82.2 13.7 C 82.2 11.8 81.3 11.1 79.9 11.1 C 78.4 11.1 77.1 12.2 76.5 13.4 C 76.47 13.4 76.5 24 76.5 24 L 74.3 24 L 74.3 4 L 76.5 4 C 76.5 4 76.47 11.6 76.5 11.6 C 77.3 10.3 79 9.2 80.7 9.2 C 83.2 9.2 84.3 10.4 84.3 13 C 84.33 13.04 84.3 24 84.3 24 L 82.2 24 Z M 95.4 24 C 95.4 24 95.43 22.46 95.4 22.5 C 94.5 23.8 93.1 24.4 91.6 24.4 C 89.3 24.4 87.2 22.6 87.2 19.6 C 87.2 16.5 89.2 14.8 91.6 14.8 C 93.1 14.8 94.5 15.4 95.4 16.6 C 95.4 16.6 95.4 14.1 95.4 14.1 C 95.4 12.1 94.3 11 92.5 11 C 91.1 11 89.9 11.5 88.8 12.8 C 88.8 12.8 87.9 11.3 87.9 11.3 C 89.2 9.8 91 9.2 92.8 9.2 C 95.7 9.2 97.6 10.6 97.6 13.9 C 97.59 13.88 97.6 24 97.6 24 L 95.4 24 Z M 95.4 21 C 95.4 21 95.4 18.2 95.4 18.2 C 94.8 17 93.6 16.4 92.3 16.4 C 90.5 16.4 89.4 17.8 89.4 19.6 C 89.4 21.4 90.5 22.8 92.3 22.8 C 93.6 22.8 94.8 22.2 95.4 21 Z M 100.8 6 C 100.8 5.2 101.5 4.5 102.3 4.5 C 103.1 4.5 103.7 5.2 103.7 6 C 103.7 6.8 103.1 7.4 102.3 7.4 C 101.5 7.4 100.8 6.8 100.8 6 Z M 101.2 24 L 101.2 9.5 L 103.3 9.5 L 103.3 24 L 101.2 24 Z M 107 24 L 107 9.5 L 109.1 9.5 C 109.1 9.5 109.13 11.84 109.1 11.8 C 110.1 10.3 111.5 9.2 113.2 9.2 C 113.2 9.2 113.2 11.5 113.2 11.5 C 113 11.4 112.8 11.4 112.5 11.4 C 111.2 11.4 109.7 12.5 109.1 13.7 C 109.13 13.73 109.1 24 109.1 24 L 107 24 Z M 132.3 24 L 129.2 12.4 L 126.1 24 L 123.9 24 L 120 9.5 L 122.2 9.5 L 125.1 21.1 L 128.1 9.5 L 130.2 9.5 L 133.3 21.1 L 136.1 9.5 L 138.4 9.5 L 134.5 24 L 132.3 24 Z M 147.9 24 C 147.9 24 147.86 22.46 147.9 22.5 C 146.9 23.8 145.5 24.4 144.1 24.4 C 141.7 24.4 139.7 22.6 139.7 19.6 C 139.7 16.5 141.7 14.8 144.1 14.8 C 145.5 14.8 147 15.4 147.9 16.6 C 147.9 16.6 147.9 14.1 147.9 14.1 C 147.9 12.1 146.8 11 144.9 11 C 143.5 11 142.4 11.5 141.3 12.8 C 141.3 12.8 140.3 11.3 140.3 11.3 C 141.7 9.8 143.4 9.2 145.2 9.2 C 148.1 9.2 150 10.6 150 13.9 C 150.02 13.88 150 24 150 24 L 147.9 24 Z M 147.9 21 C 147.9 21 147.9 18.2 147.9 18.2 C 147.2 17 146 16.4 144.7 16.4 C 142.9 16.4 141.9 17.8 141.9 19.6 C 141.9 21.4 142.9 22.8 144.7 22.8 C 146 22.8 147.2 22.2 147.9 21 Z M 161.1 24 L 157.8 18.2 L 154.4 24 L 152 24 L 156.4 16.6 L 152.3 9.5 L 154.7 9.5 L 157.8 15.1 L 160.9 9.5 L 163.3 9.5 L 159.1 16.6 L 163.5 24 L 161.1 24 Z M 182.4 24 L 179.3 12.4 L 176.2 24 L 174 24 L 170.1 9.5 L 172.3 9.5 L 175.2 21.1 L 178.2 9.5 L 180.3 9.5 L 183.4 21.1 L 186.2 9.5 L 188.5 9.5 L 184.6 24 L 182.4 24 Z M 190.1 6 C 190.1 5.2 190.8 4.5 191.6 4.5 C 192.4 4.5 193 5.2 193 6 C 193 6.8 192.4 7.4 191.6 7.4 C 190.8 7.4 190.1 6.8 190.1 6 Z M 190.5 24 L 190.5 9.5 L 192.7 9.5 L 192.7 24 L 190.5 24 Z M 196.7 21.1 C 196.73 21.11 196.7 11.4 196.7 11.4 L 194.8 11.4 L 194.8 9.5 L 196.7 9.5 L 196.7 5.6 L 198.9 5.6 L 198.9 9.5 L 201.4 9.5 L 201.4 11.4 L 198.9 11.4 C 198.9 11.4 198.89 20.72 198.9 20.7 C 198.9 21.8 199.2 22.5 200.1 22.5 C 200.6 22.5 201.1 22.2 201.3 21.9 C 201.3 21.9 202 23.5 202 23.5 C 201.5 24 200.8 24.4 199.6 24.4 C 197.7 24.4 196.7 23.3 196.7 21.1 Z M 211.8 24 C 211.8 24 211.76 13.67 211.8 13.7 C 211.8 11.8 210.9 11.1 209.4 11.1 C 208 11.1 206.7 12.2 206 13.4 C 206.03 13.4 206 24 206 24 L 203.9 24 L 203.9 4 L 206 4 C 206 4 206.03 11.6 206 11.6 C 206.9 10.3 208.5 9.2 210.3 9.2 C 212.7 9.2 213.9 10.4 213.9 13 C 213.89 13.04 213.9 24 213.9 24 L 211.8 24 Z M 238.3 24 C 238.3 24 238.34 13.52 238.3 13.5 C 238.3 12 237.7 11.1 236.3 11.1 C 235 11.1 233.8 12.2 233.2 13.4 C 233.18 13.4 233.2 24 233.2 24 L 231 24 C 231 24 231.02 13.52 231 13.5 C 231 12 230.4 11.1 229 11.1 C 227.7 11.1 226.5 12.2 225.8 13.4 C 225.83 13.4 225.8 24 225.8 24 L 223.7 24 L 223.7 9.5 L 225.8 9.5 C 225.8 9.5 225.83 11.6 225.8 11.6 C 226.4 10.5 228.1 9.2 229.8 9.2 C 231.7 9.2 232.8 10.2 233.1 11.8 C 233.8 10.4 235.4 9.2 237.1 9.2 C 239.3 9.2 240.5 10.3 240.5 13 C 240.5 12.95 240.5 24 240.5 24 L 238.3 24 Z M 243.7 27.8 C 244 27.9 244.5 28 244.7 28 C 245.5 28 246 27.7 246.4 26.5 C 246.41 26.54 247.2 24.3 247.2 24.3 L 242.4 9.5 L 244.7 9.5 L 248.3 21.4 L 251.9 9.5 L 254.2 9.5 C 254.2 9.5 248.45 27.08 248.5 27.1 C 247.7 29.2 246.6 29.9 244.9 29.9 C 244.4 29.9 243.7 29.8 243.4 29.7 C 243.4 29.7 243.7 27.8 243.7 27.8 Z M 256.1 24 L 256.1 9.5 L 258.2 9.5 C 258.2 9.5 258.23 11.84 258.2 11.8 C 259.2 10.3 260.6 9.2 262.3 9.2 C 262.3 9.2 262.3 11.5 262.3 11.5 C 262.1 11.4 261.9 11.4 261.6 11.4 C 260.3 11.4 258.8 12.5 258.2 13.7 C 258.23 13.73 258.2 24 258.2 24 L 256.1 24 Z M 263.8 16.8 C 263.8 12.7 265.9 9.2 269.7 9.2 C 273.6 9.2 275.6 12.7 275.6 16.8 C 275.6 20.8 273.6 24.4 269.7 24.4 C 265.9 24.4 263.8 20.8 263.8 16.8 Z M 273.4 16.8 C 273.4 13.9 272.2 11.1 269.7 11.1 C 267.2 11.1 266.1 13.9 266.1 16.8 C 266.1 19.7 267.2 22.5 269.7 22.5 C 272.2 22.5 273.4 19.7 273.4 16.8 Z M 277.4 22.3 C 277.4 22.3 278.5 20.8 278.5 20.8 C 279.3 21.8 280.7 22.6 282.2 22.6 C 283.9 22.6 285 21.7 285 20.3 C 285 16.9 277.8 18.1 277.8 13.1 C 277.8 10.9 279.5 9.2 282.4 9.2 C 284.3 9.2 285.8 9.9 286.8 11 C 286.8 11 285.8 12.5 285.8 12.5 C 285.1 11.5 283.9 10.9 282.4 10.9 C 280.9 10.9 279.9 11.8 279.9 13 C 279.9 16.1 287.1 15 287.1 20.2 C 287.1 22.6 285.2 24.4 282.3 24.4 C 280.2 24.4 278.6 23.7 277.4 22.3 Z M 289.4 6 C 289.4 5.2 290.1 4.5 290.9 4.5 C 291.7 4.5 292.4 5.2 292.4 6 C 292.4 6.8 291.7 7.4 290.9 7.4 C 290.1 7.4 289.4 6.8 289.4 6 Z M 289.8 24 L 289.8 9.5 L 292 9.5 L 292 24 L 289.8 24 Z M 303.5 24 C 303.5 24 303.47 13.7 303.5 13.7 C 303.5 11.8 302.6 11.1 301.2 11.1 C 299.7 11.1 298.4 12.2 297.8 13.4 C 297.77 13.4 297.8 24 297.8 24 L 295.6 24 L 295.6 9.5 L 297.8 9.5 C 297.8 9.5 297.77 11.6 297.8 11.6 C 298.6 10.3 300.2 9.2 302 9.2 C 304.4 9.2 305.6 10.5 305.6 13.1 C 305.63 13.1 305.6 24 305.6 24 L 303.5 24 Z M 316.7 24 C 316.7 24 316.73 22.46 316.7 22.5 C 315.8 23.8 314.4 24.4 312.9 24.4 C 310.6 24.4 308.5 22.6 308.5 19.6 C 308.5 16.5 310.5 14.8 312.9 14.8 C 314.4 14.8 315.8 15.4 316.7 16.6 C 316.7 16.6 316.7 14.1 316.7 14.1 C 316.7 12.1 315.6 11 313.8 11 C 312.4 11 311.2 11.5 310.1 12.8 C 310.1 12.8 309.2 11.3 309.2 11.3 C 310.5 9.8 312.3 9.2 314.1 9.2 C 317 9.2 318.9 10.6 318.9 13.9 C 318.89 13.88 318.9 24 318.9 24 L 316.7 24 Z M 316.7 21 C 316.7 21 316.7 18.2 316.7 18.2 C 316.1 17 314.9 16.4 313.6 16.4 C 311.8 16.4 310.7 17.8 310.7 19.6 C 310.7 21.4 311.8 22.8 313.6 22.8 C 314.9 22.8 316.1 22.2 316.7 21 Z M 321.3 22.3 C 321.3 22.3 322.4 20.8 322.4 20.8 C 323.3 21.8 324.6 22.6 326.2 22.6 C 327.9 22.6 329 21.7 329 20.3 C 329 16.9 321.8 18.1 321.8 13.1 C 321.8 10.9 323.5 9.2 326.4 9.2 C 328.3 9.2 329.8 9.9 330.8 11 C 330.8 11 329.8 12.5 329.8 12.5 C 329.1 11.5 327.8 10.9 326.4 10.9 C 324.8 10.9 323.8 11.8 323.8 13 C 323.8 16.1 331.1 15 331.1 20.2 C 331.1 22.6 329.2 24.4 326.2 24.4 C 324.2 24.4 322.5 23.7 321.3 22.3 Z M 333.1 16.8 C 333.1 12.6 335.3 9.2 339 9.2 C 342.8 9.2 344.7 12.6 344.7 16.8 C 344.72 16.82 344.7 17.5 344.7 17.5 C 344.7 17.5 335.33 17.48 335.3 17.5 C 335.4 20.4 336.9 22.6 339.5 22.6 C 340.8 22.6 342 22 342.9 20.8 C 342.9 20.8 344.1 22.1 344.1 22.1 C 342.9 23.5 341.3 24.4 339.3 24.4 C 335.4 24.4 333.1 21.2 333.1 16.8 Z M 339 11 C 336.4 11 335.4 13.8 335.3 15.9 C 335.3 15.9 342.6 15.9 342.6 15.9 C 342.6 13.7 341.6 11 339 11 Z M 361.2 24 C 361.2 24 361.16 22.46 361.2 22.5 C 360.2 23.8 358.8 24.4 357.3 24.4 C 355 24.4 353 22.6 353 19.6 C 353 16.5 355 14.8 357.3 14.8 C 358.8 14.8 360.3 15.4 361.2 16.6 C 361.2 16.6 361.2 14.1 361.2 14.1 C 361.2 12.1 360.1 11 358.2 11 C 356.8 11 355.7 11.5 354.6 12.8 C 354.6 12.8 353.6 11.3 353.6 11.3 C 355 9.8 356.7 9.2 358.5 9.2 C 361.4 9.2 363.3 10.6 363.3 13.9 C 363.32 13.88 363.3 24 363.3 24 L 361.2 24 Z M 361.2 21 C 361.2 21 361.2 18.2 361.2 18.2 C 360.5 17 359.3 16.4 358 16.4 C 356.2 16.4 355.2 17.8 355.2 19.6 C 355.2 21.4 356.2 22.8 358 22.8 C 359.3 22.8 360.5 22.2 361.2 21 Z M 374.8 24 C 374.8 24 374.78 13.7 374.8 13.7 C 374.8 11.8 373.9 11.1 372.5 11.1 C 371.1 11.1 369.7 12.2 369.1 13.4 C 369.08 13.4 369.1 24 369.1 24 L 366.9 24 L 366.9 9.5 L 369.1 9.5 C 369.1 9.5 369.08 11.6 369.1 11.6 C 369.9 10.3 371.5 9.2 373.3 9.2 C 375.7 9.2 376.9 10.5 376.9 13.1 C 376.94 13.1 376.9 24 376.9 24 L 374.8 24 Z M 388.9 24 C 388.9 24 388.88 21.95 388.9 22 C 388 23.4 386.6 24.4 385.1 24.4 C 381.8 24.4 379.9 21.4 379.9 16.8 C 379.9 12.3 381.8 9.2 385.1 9.2 C 386.5 9.2 388 10 388.9 11.6 C 388.88 11.63 388.9 4 388.9 4 L 391 4 L 391 24 L 388.9 24 Z M 388.9 20.1 C 388.9 20.1 388.9 13.5 388.9 13.5 C 388.3 12.2 387 11.1 385.6 11.1 C 383.2 11.1 382.1 13.6 382.1 16.8 C 382.1 19.9 383.2 22.5 385.6 22.5 C 387 22.5 388.3 21.4 388.9 20.1 Z M 400.1 16.8 C 400.1 12.6 402.3 9.2 406 9.2 C 409.8 9.2 411.7 12.6 411.7 16.8 C 411.74 16.82 411.7 17.5 411.7 17.5 C 411.7 17.5 402.35 17.48 402.3 17.5 C 402.4 20.4 403.9 22.6 406.5 22.6 C 407.8 22.6 409.1 22 410 20.8 C 410 20.8 411.1 22.1 411.1 22.1 C 409.9 23.5 408.3 24.4 406.3 24.4 C 402.5 24.4 400.1 21.2 400.1 16.8 Z M 406 11 C 403.4 11 402.4 13.8 402.3 15.9 C 402.3 15.9 409.6 15.9 409.6 15.9 C 409.6 13.7 408.6 11 406 11 Z M 422.8 20.1 C 422.8 20.1 422.8 13.4 422.8 13.4 C 422.3 12.2 420.9 11.1 419.6 11.1 C 417.2 11.1 416.1 13.6 416.1 16.8 C 416.1 19.9 417.2 22.5 419.6 22.5 C 420.9 22.5 422.3 21.3 422.8 20.1 Z M 413.8 16.8 C 413.8 12.2 415.8 9.2 419 9.2 C 420.5 9.2 422 10.1 422.8 11.6 C 422.84 11.6 422.8 9.5 422.8 9.5 L 425 9.5 L 425 29.5 L 422.8 29.5 C 422.8 29.5 422.84 21.92 422.8 21.9 C 421.9 23.5 420.5 24.4 419 24.4 C 415.8 24.4 413.8 21.3 413.8 16.8 Z M 436.5 24 C 436.5 24 436.46 22.01 436.5 22 C 435.6 23.3 434.1 24.4 432.3 24.4 C 429.8 24.4 428.6 23.2 428.6 20.5 C 428.63 20.51 428.6 9.5 428.6 9.5 L 430.8 9.5 C 430.8 9.5 430.76 19.88 430.8 19.9 C 430.8 21.8 431.7 22.5 433.1 22.5 C 434.5 22.5 435.8 21.4 436.5 20.2 C 436.46 20.21 436.5 9.5 436.5 9.5 L 438.6 9.5 L 438.6 24 L 436.5 24 Z M 449.7 24 C 449.7 24 449.72 22.46 449.7 22.5 C 448.8 23.8 447.4 24.4 445.9 24.4 C 443.6 24.4 441.5 22.6 441.5 19.6 C 441.5 16.5 443.5 14.8 445.9 14.8 C 447.4 14.8 448.8 15.4 449.7 16.6 C 449.7 16.6 449.7 14.1 449.7 14.1 C 449.7 12.1 448.6 11 446.7 11 C 445.4 11 444.2 11.5 443.1 12.8 C 443.1 12.8 442.2 11.3 442.2 11.3 C 443.5 9.8 445.2 9.2 447.1 9.2 C 450 9.2 451.9 10.6 451.9 13.9 C 451.88 13.88 451.9 24 451.9 24 L 449.7 24 Z M 449.7 21 C 449.7 21 449.7 18.2 449.7 18.2 C 449.1 17 447.9 16.4 446.6 16.4 C 444.8 16.4 443.7 17.8 443.7 19.6 C 443.7 21.4 444.8 22.8 446.6 22.8 C 447.9 22.8 449.1 22.2 449.7 21 Z M 455.5 24 L 455.5 4 L 457.6 4 L 457.6 24 L 455.5 24 Z M 469.6 21.9 C 469.58 21.92 469.6 29.5 469.6 29.5 L 467.4 29.5 L 467.4 9.5 L 469.6 9.5 C 469.6 9.5 469.58 11.6 469.6 11.6 C 470.4 10.1 471.9 9.2 473.4 9.2 C 476.7 9.2 478.6 12.2 478.6 16.8 C 478.6 21.3 476.7 24.4 473.4 24.4 C 471.9 24.4 470.5 23.5 469.6 21.9 Z M 476.3 16.8 C 476.3 13.6 475.2 11.1 472.8 11.1 C 471.5 11.1 470.1 12.2 469.6 13.4 C 469.6 13.4 469.6 20.1 469.6 20.1 C 470.1 21.3 471.5 22.5 472.8 22.5 C 475.2 22.5 476.3 19.9 476.3 16.8 Z M 488.9 24 C 488.9 24 488.93 22.46 488.9 22.5 C 488 23.8 486.6 24.4 485.1 24.4 C 482.8 24.4 480.7 22.6 480.7 19.6 C 480.7 16.5 482.7 14.8 485.1 14.8 C 486.6 14.8 488 15.4 488.9 16.6 C 488.9 16.6 488.9 14.1 488.9 14.1 C 488.9 12.1 487.8 11 486 11 C 484.6 11 483.4 11.5 482.3 12.8 C 482.3 12.8 481.4 11.3 481.4 11.3 C 482.7 9.8 484.5 9.2 486.3 9.2 C 489.2 9.2 491.1 10.6 491.1 13.9 C 491.09 13.88 491.1 24 491.1 24 L 488.9 24 Z M 488.9 21 C 488.9 21 488.9 18.2 488.9 18.2 C 488.3 17 487.1 16.4 485.8 16.4 C 484 16.4 482.9 17.8 482.9 19.6 C 482.9 21.4 484 22.8 485.8 22.8 C 487.1 22.8 488.3 22.2 488.9 21 Z M 494.7 24 L 494.7 9.5 L 496.8 9.5 C 496.8 9.5 496.85 11.84 496.8 11.8 C 497.8 10.3 499.2 9.2 501 9.2 C 501 9.2 501 11.5 501 11.5 C 500.7 11.4 500.5 11.4 500.2 11.4 C 498.9 11.4 497.4 12.5 496.8 13.7 C 496.85 13.73 496.8 24 496.8 24 L 494.7 24 Z M 503.6 21.1 C 503.57 21.11 503.6 11.4 503.6 11.4 L 501.6 11.4 L 501.6 9.5 L 503.6 9.5 L 503.6 5.6 L 505.7 5.6 L 505.7 9.5 L 508.2 9.5 L 508.2 11.4 L 505.7 11.4 C 505.7 11.4 505.73 20.72 505.7 20.7 C 505.7 21.8 506.1 22.5 506.9 22.5 C 507.4 22.5 507.9 22.2 508.2 21.9 C 508.2 21.9 508.8 23.5 508.8 23.5 C 508.3 24 507.6 24.4 506.5 24.4 C 504.5 24.4 503.6 23.3 503.6 21.1 Z M 509.6 22.3 C 509.6 22.3 510.6 20.8 510.6 20.8 C 511.5 21.8 512.9 22.6 514.4 22.6 C 516.1 22.6 517.2 21.7 517.2 20.3 C 517.2 16.9 510 18.1 510 13.1 C 510 10.9 511.7 9.2 514.6 9.2 C 516.5 9.2 518 9.9 519 11 C 519 11 518 12.5 518 12.5 C 517.3 11.5 516 10.9 514.6 10.9 C 513 10.9 512.1 11.8 512.1 13 C 512.1 16.1 519.3 15 519.3 20.2 C 519.3 22.6 517.4 24.4 514.5 24.4 C 512.4 24.4 510.8 23.7 509.6 22.3 Z M 527.5 16.8 C 527.5 12.7 529.5 9.2 533.4 9.2 C 537.3 9.2 539.3 12.7 539.3 16.8 C 539.3 20.8 537.3 24.4 533.4 24.4 C 529.5 24.4 527.5 20.8 527.5 16.8 Z M 537 16.8 C 537 13.9 535.9 11.1 533.4 11.1 C 530.9 11.1 529.7 13.9 529.7 16.8 C 529.7 19.7 530.9 22.5 533.4 22.5 C 535.9 22.5 537 19.7 537 16.8 Z M 542.7 24 L 542.7 11.4 L 540.8 11.4 L 540.8 9.5 L 542.7 9.5 C 542.7 9.5 542.71 7.76 542.7 7.8 C 542.7 5.2 544.1 3.7 546.3 3.7 C 547.3 3.7 548.2 4 548.9 4.7 C 548.9 4.7 548.1 6.2 548.1 6.2 C 547.7 5.8 547.2 5.5 546.7 5.5 C 545.5 5.5 544.9 6.4 544.9 7.8 C 544.87 7.76 544.9 9.5 544.9 9.5 L 547.3 9.5 L 547.3 11.4 L 544.9 11.4 L 544.9 24 L 542.7 24 Z M 555.8 24 L 555.8 4 C 555.8 4 562.42 4.01 562.4 4 C 565.6 4 567.4 6.1 567.4 9.1 C 567.4 11.6 566.1 13.2 564.3 13.7 C 566.3 14 567.7 16.2 567.7 18.6 C 567.7 21.9 566 24 562.6 24 C 562.6 24.02 555.8 24 555.8 24 Z M 564.9 9.4 C 564.9 7.6 564 6.1 562 6.1 C 561.97 6.11 558.2 6.1 558.2 6.1 L 558.2 12.7 C 558.2 12.7 561.97 12.74 562 12.7 C 564 12.7 564.9 11.3 564.9 9.4 Z M 565.2 18.4 C 565.2 16.5 564.3 14.8 562.1 14.8 C 562.12 14.84 558.2 14.8 558.2 14.8 L 558.2 21.9 C 558.2 21.9 562.12 21.89 562.1 21.9 C 564.2 21.9 565.2 20.6 565.2 18.4 Z M 570.9 24 L 570.9 4 L 573 4 L 573 24 L 570.9 24 Z M 584.5 24 C 584.5 24 584.47 22.01 584.5 22 C 583.6 23.3 582.1 24.4 580.3 24.4 C 577.8 24.4 576.6 23.2 576.6 20.5 C 576.64 20.51 576.6 9.5 576.6 9.5 L 578.8 9.5 C 578.8 9.5 578.77 19.88 578.8 19.9 C 578.8 21.8 579.7 22.5 581.1 22.5 C 582.5 22.5 583.8 21.4 584.5 20.2 C 584.47 20.21 584.5 9.5 584.5 9.5 L 586.6 9.5 L 586.6 24 L 584.5 24 Z M 589.6 16.8 C 589.6 12.6 591.8 9.2 595.5 9.2 C 599.3 9.2 601.2 12.6 601.2 16.8 C 601.18 16.82 601.2 17.5 601.2 17.5 C 601.2 17.5 591.79 17.48 591.8 17.5 C 591.9 20.4 593.4 22.6 596 22.6 C 597.2 22.6 598.5 22 599.4 20.8 C 599.4 20.8 600.6 22.1 600.6 22.1 C 599.4 23.5 597.7 24.4 595.8 24.4 C 591.9 24.4 589.6 21.2 589.6 16.8 Z M 595.4 11 C 592.9 11 591.9 13.8 591.8 15.9 C 591.8 15.9 599.1 15.9 599.1 15.9 C 599 13.7 598.1 11 595.4 11 Z M 609.8 24 C 609.8 24 609.79 22.07 609.8 22.1 C 616.3 14.5 618.6 12.1 618.6 9.2 C 618.6 7 617.1 5.8 615.4 5.8 C 613.5 5.8 612.1 6.8 611.1 8.4 C 611.1 8.4 609.6 6.9 609.6 6.9 C 610.9 4.9 612.9 3.7 615.4 3.7 C 618.5 3.7 621 5.7 621 9.2 C 621 12.5 618.5 15.5 613.2 21.9 C 613.18 21.89 621.1 21.9 621.1 21.9 L 621.1 24 L 609.8 24 Z " stroke="none" fill="#efd8d3"/>  </g></svg>