<?xml version="1.0" standalone="no"?><!DOCTYPE svg PUBLIC "-//W3C//DTD SVG 1.1//EN" "http://www.w3.org/Graphics/SVG/1.1/DTD/svg11.dtd"><svg xmlns="http://www.w3.org/2000/svg" version="1.1" width="651px" height="85.6px" viewBox="0 0 651 85.6">  <desc>Marinated Cardboard</desc>  <defs/>  <g id="Polygon197294">    <path d="M 26.4 47.4 L 26.4 23.8 L 19.7 47.4 L 17.2 47.4 L 10.7 23.8 L 10.7 47.4 L 3.1 47.4 L 3.1 7.4 L 12.7 7.4 L 18.5 27.8 L 24.4 7.4 L 33.8 7.4 L 33.8 47.4 L 26.4 47.4 Z M 52.3 47.4 C 52.3 47.4 52.32 44.64 52.3 44.6 C 51.1 46.9 48.4 48.1 46.3 48.1 C 41.7 48.1 38.4 44.4 38.4 38.5 C 38.4 32.6 41.7 29 46.3 29 C 48.4 29 51.1 30.1 52.3 32.3 C 52.3 32.3 52.3 28.7 52.3 28.7 C 52.3 25.4 51 23.5 47.9 23.5 C 46 23.5 44 24.4 42.1 26.3 C 42.1 26.3 39.5 21.5 39.5 21.5 C 42.2 18.7 46.3 17.7 49.3 17.7 C 55.3 17.7 59.1 20.7 59.1 27.2 C 59.1 27.18 59.1 47.4 59.1 47.4 L 52.3 47.4 Z M 52.3 40.6 C 52.3 40.6 52.3 36.7 52.3 36.7 C 51.6 34.9 50.2 33.7 48.7 33.7 C 46.3 33.7 45.2 35.8 45.2 38.6 C 45.2 41.3 46.3 43.6 48.7 43.6 C 50.2 43.6 51.6 42.4 52.3 40.6 Z M 64.6 47.4 L 64.6 18.4 L 71.4 18.4 C 71.4 18.4 71.4 22.44 71.4 22.4 C 72.5 19.8 75.4 17.7 77.9 17.7 C 77.9 17.7 77.9 24.4 77.9 24.4 C 77.5 24.2 77 24.2 76.6 24.2 C 74.6 24.2 72.5 25.8 71.4 27.9 C 71.4 27.9 71.4 47.4 71.4 47.4 L 64.6 47.4 Z M 80.6 10.9 C 80.6 8.6 82.6 6.8 84.8 6.8 C 87.1 6.8 88.9 8.6 88.9 10.9 C 88.9 13.2 87.1 15 84.8 15 C 82.6 15 80.6 13.2 80.6 10.9 Z M 81.4 47.4 L 81.4 18.4 L 88.2 18.4 L 88.2 47.4 L 81.4 47.4 Z M 106.6 47.4 C 106.6 47.4 106.56 26.76 106.6 26.8 C 106.6 24.7 105.8 23.7 104.3 23.7 C 102.6 23.7 101.1 25.6 100.4 27.5 C 100.44 27.48 100.4 47.4 100.4 47.4 L 93.7 47.4 L 93.7 18.4 L 100.4 18.4 C 100.4 18.4 100.44 22.2 100.4 22.2 C 101.6 19.9 104.6 17.7 107.2 17.7 C 111.6 17.7 113.4 20.3 113.4 24.3 C 113.4 24.3 113.4 47.4 113.4 47.4 L 106.6 47.4 Z M 131.5 47.4 C 131.5 47.4 131.46 44.64 131.5 44.6 C 130.2 46.9 127.5 48.1 125.4 48.1 C 120.8 48.1 117.5 44.4 117.5 38.5 C 117.5 32.6 120.8 29 125.4 29 C 127.5 29 130.3 30.1 131.5 32.3 C 131.5 32.3 131.5 28.7 131.5 28.7 C 131.5 25.4 130.1 23.5 127.1 23.5 C 125.2 23.5 123.1 24.4 121.2 26.3 C 121.2 26.3 118.7 21.5 118.7 21.5 C 121.3 18.7 125.5 17.7 128.5 17.7 C 134.4 17.7 138.2 20.7 138.2 27.2 C 138.24 27.18 138.2 47.4 138.2 47.4 L 131.5 47.4 Z M 131.5 40.6 C 131.5 40.6 131.5 36.7 131.5 36.7 C 130.7 34.9 129.3 33.7 127.8 33.7 C 125.5 33.7 124.3 35.8 124.3 38.6 C 124.3 41.3 125.5 43.6 127.8 43.6 C 129.3 43.6 130.7 42.4 131.5 40.6 Z M 144.7 40.7 C 144.66 40.74 144.7 24.3 144.7 24.3 L 142 24.3 L 142 18.4 L 144.7 18.4 L 144.7 10.5 L 151.4 10.5 L 151.4 18.4 L 155.1 18.4 L 155.1 24.3 L 151.4 24.3 C 151.4 24.3 151.44 39.42 151.4 39.4 C 151.4 41.2 151.9 42.1 153.1 42.1 C 153.7 42.1 154.3 41.8 154.7 41.3 C 154.7 41.3 156.1 46.6 156.1 46.6 C 155 47.5 153.4 48.1 151.3 48.1 C 146.6 48.1 144.7 45.7 144.7 40.7 Z M 158.1 32.9 C 158.1 24.5 161.7 17.7 169 17.7 C 176.3 17.7 179.3 24.2 179.3 32.8 C 179.34 32.76 179.3 35.1 179.3 35.1 C 179.3 35.1 164.64 35.1 164.6 35.1 C 164.7 39.4 166.5 42.6 170.3 42.6 C 172 42.6 173.8 41.5 175.1 39.7 C 175.1 39.7 178.4 43.5 178.4 43.5 C 176.2 46.4 172.9 48.1 169.6 48.1 C 162.1 48.1 158.1 41.8 158.1 32.9 Z M 168.8 23.2 C 165.5 23.2 164.6 27.3 164.6 30.4 C 164.6 30.4 172.8 30.4 172.8 30.4 C 172.8 27.1 172.1 23.2 168.8 23.2 Z M 196.6 47.4 C 196.6 47.4 196.56 43.8 196.6 43.8 C 195.3 46.7 193 48.1 190.9 48.1 C 185.2 48.1 182.3 42.2 182.3 32.9 C 182.3 23.8 185.2 17.7 190.9 17.7 C 193 17.7 195.4 19 196.6 22 C 196.56 22.02 196.6 7.4 196.6 7.4 L 203.3 7.4 L 203.3 47.4 L 196.6 47.4 Z M 196.6 38.6 C 196.6 38.6 196.6 27.2 196.6 27.2 C 196 25.3 194.6 23.7 193.1 23.7 C 190.1 23.7 189.3 27.8 189.3 32.9 C 189.3 38 190.1 42.1 193.1 42.1 C 194.6 42.1 196 40.6 196.6 38.6 Z M 217.7 27.4 C 217.7 15.5 221.5 6.7 230.3 6.7 C 236.8 6.7 239 11.9 240.3 16.1 C 240.3 16.1 234.3 18.4 234.3 18.4 C 233.5 15.3 232.5 13.4 230.3 13.4 C 226.7 13.4 225.5 19.3 225.5 27.4 C 225.5 35.6 226.7 41.4 230.3 41.4 C 232.7 41.4 233.8 38.9 234.4 35.6 C 234.4 35.6 240.4 37.8 240.4 37.8 C 239.3 42.4 236.9 48.1 230.3 48.1 C 221.5 48.1 217.7 39.3 217.7 27.4 Z M 257 47.4 C 257 47.4 256.98 44.64 257 44.6 C 255.7 46.9 253 48.1 250.9 48.1 C 246.4 48.1 243.1 44.4 243.1 38.5 C 243.1 32.6 246.4 29 250.9 29 C 253 29 255.8 30.1 257 32.3 C 257 32.3 257 28.7 257 28.7 C 257 25.4 255.7 23.5 252.6 23.5 C 250.7 23.5 248.6 24.4 246.7 26.3 C 246.7 26.3 244.2 21.5 244.2 21.5 C 246.8 18.7 251 17.7 254 17.7 C 259.9 17.7 263.8 20.7 263.8 27.2 C 263.76 27.18 263.8 47.4 263.8 47.4 L 257 47.4 Z M 257 40.6 C 257 40.6 257 36.7 257 36.7 C 256.3 34.9 254.8 33.7 253.3 33.7 C 251 33.7 249.8 35.8 249.8 38.6 C 249.8 41.3 251 43.6 253.3 43.6 C 254.8 43.6 256.3 42.4 257 40.6 Z M 269.3 47.4 L 269.3 18.4 L 276.1 18.4 C 276.1 18.4 276.06 22.44 276.1 22.4 C 277.2 19.8 280 17.7 282.5 17.7 C 282.5 17.7 282.5 24.4 282.5 24.4 C 282.1 24.2 281.6 24.2 281.2 24.2 C 279.2 24.2 277.2 25.8 276.1 27.9 C 276.06 27.9 276.1 47.4 276.1 47.4 L 269.3 47.4 Z M 299.2 47.4 C 299.2 47.4 299.16 43.8 299.2 43.8 C 297.9 46.7 295.6 48.1 293.5 48.1 C 287.8 48.1 284.9 42.2 284.9 32.9 C 284.9 23.8 287.8 17.7 293.5 17.7 C 295.6 17.7 298 19 299.2 22 C 299.16 22.02 299.2 7.4 299.2 7.4 L 305.9 7.4 L 305.9 47.4 L 299.2 47.4 Z M 299.2 38.6 C 299.2 38.6 299.2 27.2 299.2 27.2 C 298.6 25.3 297.2 23.7 295.7 23.7 C 292.7 23.7 291.9 27.8 291.9 32.9 C 291.9 38 292.7 42.1 295.7 42.1 C 297.2 42.1 298.6 40.6 299.2 38.6 Z M 321.7 42.1 C 324.7 42.1 325.5 38 325.5 32.9 C 325.5 27.8 324.7 23.7 321.7 23.7 C 320.2 23.7 318.8 25.3 318.2 27.2 C 318.2 27.2 318.2 38.6 318.2 38.6 C 318.8 40.6 320.2 42.1 321.7 42.1 Z M 311.5 47.4 L 311.5 7.4 L 318.2 7.4 C 318.2 7.4 318.23 22.02 318.2 22 C 319.4 19 321.8 17.7 323.9 17.7 C 329.6 17.7 332.5 23.8 332.5 32.9 C 332.5 42.2 329.6 48.1 323.9 48.1 C 321.8 48.1 319.5 46.7 318.2 43.8 C 318.23 43.8 318.2 47.4 318.2 47.4 L 311.5 47.4 Z M 335.7 32.9 C 335.7 24.8 339 17.7 346.6 17.7 C 354.2 17.7 357.5 24.8 357.5 32.9 C 357.5 40.9 354.2 48.1 346.6 48.1 C 339 48.1 335.7 40.9 335.7 32.9 Z M 350.5 32.9 C 350.5 28 349.6 23.7 346.6 23.7 C 343.6 23.7 342.7 28 342.7 32.9 C 342.7 37.9 343.6 42.1 346.6 42.1 C 349.6 42.1 350.5 37.9 350.5 32.9 Z M 374.5 47.4 C 374.5 47.4 374.45 44.64 374.5 44.6 C 373.2 46.9 370.5 48.1 368.4 48.1 C 363.8 48.1 360.5 44.4 360.5 38.5 C 360.5 32.6 363.8 29 368.4 29 C 370.5 29 373.3 30.1 374.5 32.3 C 374.5 32.3 374.5 28.7 374.5 28.7 C 374.5 25.4 373.1 23.5 370.1 23.5 C 368.2 23.5 366.1 24.4 364.2 26.3 C 364.2 26.3 361.7 21.5 361.7 21.5 C 364.3 18.7 368.5 17.7 371.5 17.7 C 377.4 17.7 381.2 20.7 381.2 27.2 C 381.23 27.18 381.2 47.4 381.2 47.4 L 374.5 47.4 Z M 374.5 40.6 C 374.5 40.6 374.5 36.7 374.5 36.7 C 373.7 34.9 372.3 33.7 370.8 33.7 C 368.5 33.7 367.3 35.8 367.3 38.6 C 367.3 41.3 368.5 43.6 370.8 43.6 C 372.3 43.6 373.7 42.4 374.5 40.6 Z M 386.8 47.4 L 386.8 18.4 L 393.5 18.4 C 393.5 18.4 393.53 22.44 393.5 22.4 C 394.7 19.8 397.5 17.7 400 17.7 C 400 17.7 400 24.4 400 24.4 C 399.6 24.2 399.1 24.2 398.7 24.2 C 396.7 24.2 394.7 25.8 393.5 27.9 C 393.53 27.9 393.5 47.4 393.5 47.4 L 386.8 47.4 Z M 416.6 47.4 C 416.6 47.4 416.63 43.8 416.6 43.8 C 415.4 46.7 413 48.1 411 48.1 C 405.3 48.1 402.4 42.2 402.4 32.9 C 402.4 23.8 405.3 17.7 411 17.7 C 413 17.7 415.4 19 416.6 22 C 416.63 22.02 416.6 7.4 416.6 7.4 L 423.4 7.4 L 423.4 47.4 L 416.6 47.4 Z M 416.6 38.6 C 416.6 38.6 416.6 27.2 416.6 27.2 C 416 25.3 414.7 23.7 413.2 23.7 C 410.2 23.7 409.4 27.8 409.4 32.9 C 409.4 38 410.2 42.1 413.2 42.1 C 414.7 42.1 416 40.6 416.6 38.6 Z " stroke="none" fill="#b13d24"/>  </g></svg>