<?xml version="1.0" standalone="no"?><!DOCTYPE svg PUBLIC "-//W3C//DTD SVG 1.1//EN" "http://www.w3.org/Graphics/SVG/1.1/DTD/svg11.dtd"><svg xmlns="http://www.w3.org/2000/svg" version="1.1" width="494px" height="395.3px" viewBox="0 0 494 395.3">  <desc>2,4-dibromophenol Alcanivorase extract Astaxanthin Butylcycloheptadiene Calcium monotyclium Cyclodecanolol Dictyopter</desc>  <defs/>  <g id="Polygon221396">    <path d="M 2.1 348.4 L 2.1 328.4 L 4.5 328.4 L 4.5 348.4 L 2.1 348.4 Z M 7.6 341.1 C 7.6 337 9.6 333.5 13.4 333.5 C 17.3 333.5 19.3 337 19.3 341.1 C 19.3 345.2 17.3 348.7 13.4 348.7 C 9.6 348.7 7.6 345.2 7.6 341.1 Z M 17.1 341.1 C 17.1 338.2 16 335.4 13.4 335.4 C 10.9 335.4 9.8 338.2 9.8 341.1 C 9.8 344.1 10.9 346.8 13.4 346.8 C 16 346.8 17.1 344.1 17.1 341.1 Z M 30.6 348.4 C 30.6 348.4 30.57 346.31 30.6 346.3 C 29.7 347.8 28.3 348.7 26.8 348.7 C 23.5 348.7 21.6 345.7 21.6 341.1 C 21.6 336.6 23.5 333.5 26.8 333.5 C 28.2 333.5 29.7 334.4 30.6 336 C 30.57 335.99 30.6 328.4 30.6 328.4 L 32.7 328.4 L 32.7 348.4 L 30.6 348.4 Z M 30.6 344.5 C 30.6 344.5 30.6 337.8 30.6 337.8 C 30 336.6 28.7 335.4 27.3 335.4 C 24.9 335.4 23.8 338 23.8 341.1 C 23.8 344.3 24.9 346.8 27.3 346.8 C 28.7 346.8 30 345.7 30.6 344.5 Z M 36 330.3 C 36 329.5 36.7 328.8 37.4 328.8 C 38.2 328.8 38.9 329.5 38.9 330.3 C 38.9 331.1 38.2 331.8 37.4 331.8 C 36.7 331.8 36 331.1 36 330.3 Z M 36.4 348.4 L 36.4 333.9 L 38.5 333.9 L 38.5 348.4 L 36.4 348.4 Z M 41 346.7 C 41 346.7 42.1 345.2 42.1 345.2 C 42.9 346.2 44.3 347 45.9 347 C 47.5 347 48.7 346 48.7 344.7 C 48.7 341.3 41.4 342.4 41.4 337.4 C 41.4 335.3 43.2 333.5 46 333.5 C 48 333.5 49.4 334.3 50.5 335.4 C 50.5 335.4 49.4 336.9 49.4 336.9 C 48.7 335.9 47.5 335.3 46.1 335.3 C 44.5 335.3 43.5 336.2 43.5 337.4 C 43.5 340.5 50.7 339.4 50.7 344.6 C 50.7 347 48.9 348.7 45.9 348.7 C 43.9 348.7 42.2 348.1 41 346.7 Z M 52.8 341.1 C 52.8 336.9 55 333.5 58.6 333.5 C 62.5 333.5 64.4 336.9 64.4 341.2 C 64.38 341.18 64.4 341.8 64.4 341.8 C 64.4 341.8 54.99 341.84 55 341.8 C 55.1 344.7 56.6 346.9 59.2 346.9 C 60.4 346.9 61.7 346.3 62.6 345.2 C 62.6 345.2 63.7 346.4 63.7 346.4 C 62.6 347.9 60.9 348.7 59 348.7 C 55.1 348.7 52.8 345.6 52.8 341.1 Z M 58.6 335.3 C 56.1 335.3 55 338.1 55 340.2 C 55 340.2 62.2 340.2 62.2 340.2 C 62.2 338 61.3 335.3 58.6 335.3 Z M 75.5 348.4 C 75.5 348.4 75.51 346.31 75.5 346.3 C 74.7 347.8 73.2 348.7 71.7 348.7 C 68.5 348.7 66.5 345.7 66.5 341.1 C 66.5 336.6 68.4 333.5 71.7 333.5 C 73.2 333.5 74.6 334.4 75.5 336 C 75.51 335.99 75.5 328.4 75.5 328.4 L 77.7 328.4 L 77.7 348.4 L 75.5 348.4 Z M 75.5 344.5 C 75.5 344.5 75.5 337.8 75.5 337.8 C 75 336.6 73.6 335.4 72.2 335.4 C 69.9 335.4 68.8 338 68.8 341.1 C 68.8 344.3 69.9 346.8 72.2 346.8 C 73.6 346.8 75 345.7 75.5 344.5 Z M 86.4 346.2 C 86.4 346.2 87.7 344.4 87.7 344.4 C 88.7 345.6 90.4 346.6 92.3 346.6 C 94.9 346.6 96 345 96 343.3 C 96 338.5 87 339.7 87 333.3 C 87 330.2 89.4 328 92.7 328 C 94.9 328 96.7 328.8 98 330.1 C 98 330.1 96.8 331.9 96.8 331.9 C 95.7 330.7 94.2 330.2 92.6 330.2 C 90.8 330.2 89.4 331.4 89.4 333.2 C 89.4 337.4 98.4 336.5 98.4 343.2 C 98.4 346.1 96.5 348.7 92.3 348.7 C 89.7 348.7 87.7 347.7 86.4 346.2 Z M 108.7 348.4 C 108.7 348.4 108.72 346.82 108.7 346.8 C 107.8 348.1 106.4 348.7 104.9 348.7 C 102.6 348.7 100.5 346.9 100.5 343.9 C 100.5 340.9 102.5 339.1 104.9 339.1 C 106.4 339.1 107.8 339.7 108.7 341 C 108.7 341 108.7 338.5 108.7 338.5 C 108.7 336.5 107.6 335.4 105.7 335.4 C 104.4 335.4 103.2 335.9 102.1 337.2 C 102.1 337.2 101.2 335.6 101.2 335.6 C 102.5 334.2 104.2 333.5 106.1 333.5 C 109 333.5 110.9 334.9 110.9 338.2 C 110.88 338.24 110.9 348.4 110.9 348.4 L 108.7 348.4 Z M 108.7 345.3 C 108.7 345.3 108.7 342.6 108.7 342.6 C 108.1 341.4 106.9 340.7 105.6 340.7 C 103.8 340.7 102.7 342.1 102.7 343.9 C 102.7 345.7 103.8 347.2 105.6 347.2 C 106.9 347.2 108.1 346.5 108.7 345.3 Z M 114.5 348.4 L 114.5 328.4 L 116.6 328.4 L 116.6 348.4 L 114.5 348.4 Z M 120.7 345.5 C 120.72 345.47 120.7 335.8 120.7 335.8 L 118.8 335.8 L 118.8 333.9 L 120.7 333.9 L 120.7 329.9 L 122.9 329.9 L 122.9 333.9 L 125.3 333.9 L 125.3 335.8 L 122.9 335.8 C 122.9 335.8 122.88 345.08 122.9 345.1 C 122.9 346.2 123.2 346.8 124 346.8 C 124.6 346.8 125 346.6 125.3 346.2 C 125.3 346.2 126 347.9 126 347.9 C 125.5 348.4 124.7 348.7 123.6 348.7 C 121.6 348.7 120.7 347.6 120.7 345.5 Z " stroke="none" fill="#d3d2d2"/>  </g>  <g id="Polygon221395">    <path d="M 2.1 312.4 L 2.1 292.4 L 12.4 292.4 L 12.4 294.5 L 4.5 294.5 L 4.5 301.1 L 12.2 301.1 L 12.2 303.2 L 4.5 303.2 L 4.5 310.2 L 12.4 310.2 L 12.4 312.4 L 2.1 312.4 Z M 14.8 305.1 C 14.8 300.8 17.1 297.5 20.8 297.5 C 22.8 297.5 24 298.3 24.9 299.4 C 24.9 299.4 23.8 300.9 23.8 300.9 C 23 299.9 22.1 299.4 21 299.4 C 18.4 299.4 17 302 17 305.1 C 17 308.2 18.4 310.8 21 310.8 C 22.1 310.8 23 310.4 23.8 309.3 C 23.8 309.3 24.9 310.8 24.9 310.8 C 24 312 22.8 312.7 20.8 312.7 C 17.1 312.7 14.8 309.4 14.8 305.1 Z M 27.8 309.5 C 27.81 309.47 27.8 299.8 27.8 299.8 L 25.9 299.8 L 25.9 297.9 L 27.8 297.9 L 27.8 293.9 L 30 293.9 L 30 297.9 L 32.4 297.9 L 32.4 299.8 L 30 299.8 C 30 299.8 29.97 309.08 30 309.1 C 30 310.2 30.3 310.8 31.1 310.8 C 31.7 310.8 32.1 310.6 32.4 310.2 C 32.4 310.2 33.1 311.9 33.1 311.9 C 32.5 312.4 31.8 312.7 30.7 312.7 C 28.7 312.7 27.8 311.6 27.8 309.5 Z M 34.3 305.1 C 34.3 301 36.3 297.5 40.1 297.5 C 44 297.5 46 301 46 305.1 C 46 309.2 44 312.7 40.1 312.7 C 36.3 312.7 34.3 309.2 34.3 305.1 Z M 43.8 305.1 C 43.8 302.2 42.7 299.4 40.1 299.4 C 37.6 299.4 36.5 302.2 36.5 305.1 C 36.5 308.1 37.6 310.8 40.1 310.8 C 42.7 310.8 43.8 308.1 43.8 305.1 Z M 48.3 305.1 C 48.3 300.8 50.5 297.5 54.3 297.5 C 56.3 297.5 57.5 298.3 58.4 299.4 C 58.4 299.4 57.2 300.9 57.2 300.9 C 56.5 299.9 55.6 299.4 54.4 299.4 C 51.9 299.4 50.5 302 50.5 305.1 C 50.5 308.2 51.9 310.8 54.4 310.8 C 55.6 310.8 56.5 310.4 57.2 309.3 C 57.2 309.3 58.4 310.8 58.4 310.8 C 57.5 312 56.3 312.7 54.3 312.7 C 50.5 312.7 48.3 309.4 48.3 305.1 Z M 68.3 312.4 C 68.3 312.4 68.31 310.82 68.3 310.8 C 67.4 312.1 66 312.7 64.5 312.7 C 62.2 312.7 60.1 310.9 60.1 307.9 C 60.1 304.9 62.1 303.1 64.5 303.1 C 66 303.1 67.4 303.7 68.3 305 C 68.3 305 68.3 302.5 68.3 302.5 C 68.3 300.5 67.2 299.4 65.3 299.4 C 64 299.4 62.8 299.9 61.7 301.2 C 61.7 301.2 60.7 299.6 60.7 299.6 C 62.1 298.2 63.8 297.5 65.7 297.5 C 68.5 297.5 70.5 298.9 70.5 302.2 C 70.47 302.24 70.5 312.4 70.5 312.4 L 68.3 312.4 Z M 68.3 309.3 C 68.3 309.3 68.3 306.6 68.3 306.6 C 67.6 305.4 66.4 304.7 65.2 304.7 C 63.4 304.7 62.3 306.1 62.3 307.9 C 62.3 309.7 63.4 311.2 65.2 311.2 C 66.4 311.2 67.6 310.5 68.3 309.3 Z M 74.1 312.4 L 74.1 297.9 L 76.2 297.9 C 76.2 297.9 76.23 300.2 76.2 300.2 C 77.2 298.7 78.6 297.6 80.3 297.6 C 80.3 297.6 80.3 299.8 80.3 299.8 C 80.1 299.7 79.9 299.7 79.6 299.7 C 78.3 299.7 76.8 300.9 76.2 302.1 C 76.23 302.09 76.2 312.4 76.2 312.4 L 74.1 312.4 Z M 84.7 310.3 C 84.66 310.28 84.7 317.9 84.7 317.9 L 82.5 317.9 L 82.5 297.9 L 84.7 297.9 C 84.7 297.9 84.66 299.96 84.7 300 C 85.5 298.5 86.9 297.5 88.5 297.5 C 91.7 297.5 93.7 300.6 93.7 305.1 C 93.7 309.6 91.7 312.7 88.5 312.7 C 87 312.7 85.6 311.9 84.7 310.3 Z M 91.4 305.1 C 91.4 302 90.3 299.4 87.9 299.4 C 86.6 299.4 85.2 300.5 84.7 301.8 C 84.7 301.8 84.7 308.4 84.7 308.4 C 85.2 309.7 86.6 310.8 87.9 310.8 C 90.3 310.8 91.4 308.3 91.4 305.1 Z M 95.8 305.1 C 95.8 300.9 98.1 297.5 101.7 297.5 C 105.5 297.5 107.5 300.9 107.5 305.2 C 107.46 305.18 107.5 305.8 107.5 305.8 C 107.5 305.8 98.07 305.84 98.1 305.8 C 98.2 308.7 99.7 310.9 102.2 310.9 C 103.5 310.9 104.8 310.3 105.7 309.2 C 105.7 309.2 106.8 310.4 106.8 310.4 C 105.7 311.9 104 312.7 102.1 312.7 C 98.2 312.7 95.8 309.6 95.8 305.1 Z M 101.7 299.3 C 99.1 299.3 98.1 302.1 98.1 304.2 C 98.1 304.2 105.3 304.2 105.3 304.2 C 105.3 302 104.3 299.3 101.7 299.3 Z M 118.1 312.4 C 118.1 312.4 118.14 302.06 118.1 302.1 C 118.1 300.1 117.3 299.4 115.8 299.4 C 114.4 299.4 113.1 300.6 112.4 301.8 C 112.44 301.76 112.4 312.4 112.4 312.4 L 110.3 312.4 L 110.3 297.9 L 112.4 297.9 C 112.4 297.9 112.44 299.96 112.4 300 C 113.3 298.7 114.9 297.5 116.6 297.5 C 119.1 297.5 120.3 298.8 120.3 301.5 C 120.3 301.46 120.3 312.4 120.3 312.4 L 118.1 312.4 Z M 123.2 305.1 C 123.2 300.9 125.5 297.5 129.1 297.5 C 132.9 297.5 134.8 300.9 134.8 305.2 C 134.85 305.18 134.8 305.8 134.8 305.8 C 134.8 305.8 125.46 305.84 125.5 305.8 C 125.5 308.7 127 310.9 129.6 310.9 C 130.9 310.9 132.2 310.3 133.1 309.2 C 133.1 309.2 134.2 310.4 134.2 310.4 C 133 311.9 131.4 312.7 129.4 312.7 C 125.6 312.7 123.2 309.6 123.2 305.1 Z M 129.1 299.3 C 126.5 299.3 125.5 302.1 125.5 304.2 C 125.5 304.2 132.7 304.2 132.7 304.2 C 132.7 302 131.7 299.3 129.1 299.3 Z " stroke="none" fill="#d3d2d2"/>  </g>  <g id="Polygon221394">    <path d="M 2.1 276.4 L 2.1 256.4 C 2.1 256.4 7.44 256.37 7.4 256.4 C 12.6 256.4 15.5 260.7 15.5 266.4 C 15.5 272.1 12.6 276.4 7.4 276.4 C 7.44 276.38 2.1 276.4 2.1 276.4 Z M 13 266.4 C 13 261.9 11.2 258.5 7.4 258.5 C 7.44 258.47 4.5 258.5 4.5 258.5 L 4.5 274.2 C 4.5 274.2 7.44 274.25 7.4 274.2 C 11.1 274.2 13 270.9 13 266.4 Z M 18.2 258.3 C 18.2 257.5 18.9 256.8 19.6 256.8 C 20.5 256.8 21.1 257.5 21.1 258.3 C 21.1 259.1 20.5 259.8 19.6 259.8 C 18.9 259.8 18.2 259.1 18.2 258.3 Z M 18.6 276.4 L 18.6 261.9 L 20.7 261.9 L 20.7 276.4 L 18.6 276.4 Z M 39 276.4 C 39 276.4 39.03 265.88 39 265.9 C 39 264.3 38.4 263.4 37 263.4 C 35.7 263.4 34.4 264.6 33.9 265.8 C 33.87 265.76 33.9 276.4 33.9 276.4 L 31.7 276.4 C 31.7 276.4 31.71 265.88 31.7 265.9 C 31.7 264.3 31.1 263.4 29.7 263.4 C 28.4 263.4 27.1 264.6 26.5 265.8 C 26.52 265.76 26.5 276.4 26.5 276.4 L 24.4 276.4 L 24.4 261.9 L 26.5 261.9 C 26.5 261.9 26.52 263.96 26.5 264 C 27.1 262.9 28.7 261.5 30.5 261.5 C 32.3 261.5 33.5 262.6 33.7 264.1 C 34.5 262.8 36.1 261.5 37.8 261.5 C 40 261.5 41.2 262.7 41.2 265.3 C 41.19 265.31 41.2 276.4 41.2 276.4 L 39 276.4 Z M 44.1 269.1 C 44.1 264.9 46.3 261.5 50 261.5 C 53.8 261.5 55.7 264.9 55.7 269.2 C 55.74 269.18 55.7 269.8 55.7 269.8 C 55.7 269.8 46.35 269.84 46.3 269.8 C 46.4 272.7 47.9 274.9 50.5 274.9 C 51.8 274.9 53.1 274.3 54 273.2 C 54 273.2 55.1 274.4 55.1 274.4 C 53.9 275.9 52.3 276.7 50.3 276.7 C 46.5 276.7 44.1 273.6 44.1 269.1 Z M 50 263.3 C 47.4 263.3 46.4 266.1 46.3 268.2 C 46.3 268.2 53.6 268.2 53.6 268.2 C 53.6 266 52.6 263.3 50 263.3 Z M 59 273.5 C 59.01 273.47 59 263.8 59 263.8 L 57.1 263.8 L 57.1 261.9 L 59 261.9 L 59 257.9 L 61.2 257.9 L 61.2 261.9 L 63.6 261.9 L 63.6 263.8 L 61.2 263.8 C 61.2 263.8 61.17 273.08 61.2 273.1 C 61.2 274.2 61.5 274.8 62.3 274.8 C 62.9 274.8 63.3 274.6 63.6 274.2 C 63.6 274.2 64.3 275.9 64.3 275.9 C 63.7 276.4 63 276.7 61.9 276.7 C 59.9 276.7 59 275.6 59 273.5 Z M 74 276.4 C 74 276.4 74.04 266.03 74 266 C 74 264.1 73.1 263.4 71.7 263.4 C 70.3 263.4 69 264.6 68.3 265.8 C 68.31 265.76 68.3 276.4 68.3 276.4 L 66.2 276.4 L 66.2 256.4 L 68.3 256.4 C 68.3 256.4 68.31 263.96 68.3 264 C 69.1 262.7 70.8 261.5 72.5 261.5 C 75 261.5 76.2 262.8 76.2 265.4 C 76.17 265.4 76.2 276.4 76.2 276.4 L 74 276.4 Z M 79.4 280.1 C 79.7 280.3 80.1 280.3 80.4 280.3 C 81.2 280.3 81.7 280 82.1 278.9 C 82.08 278.9 82.9 276.7 82.9 276.7 L 78 261.9 L 80.4 261.9 L 84 273.8 L 87.6 261.9 L 89.9 261.9 C 89.9 261.9 84.12 279.44 84.1 279.4 C 83.4 281.5 82.2 282.3 80.5 282.3 C 80.1 282.3 79.4 282.2 79.1 282 C 79.1 282 79.4 280.1 79.4 280.1 Z M 91.8 276.4 L 91.8 256.4 L 93.9 256.4 L 93.9 276.4 L 91.8 276.4 Z M 102.5 274.7 C 102.5 274.7 103.6 273.2 103.6 273.2 C 104.5 274.2 105.8 275 107.4 275 C 109.1 275 110.2 274 110.2 272.7 C 110.2 269.3 103 270.4 103 265.4 C 103 263.3 104.7 261.5 107.6 261.5 C 109.5 261.5 111 262.3 112 263.4 C 112 263.4 111 264.9 111 264.9 C 110.2 263.9 109 263.3 107.6 263.3 C 106 263.3 105 264.2 105 265.4 C 105 268.5 112.3 267.4 112.3 272.6 C 112.3 275 110.4 276.7 107.4 276.7 C 105.4 276.7 103.7 276.1 102.5 274.7 Z M 122.8 276.4 C 122.8 276.4 122.85 274.37 122.8 274.4 C 122 275.6 120.4 276.7 118.6 276.7 C 116.2 276.7 115 275.5 115 272.9 C 115.02 272.87 115 261.9 115 261.9 L 117.1 261.9 C 117.1 261.9 117.15 272.24 117.1 272.2 C 117.1 274.2 118 274.8 119.5 274.8 C 120.9 274.8 122.2 273.8 122.8 272.6 C 122.85 272.57 122.8 261.9 122.8 261.9 L 125 261.9 L 125 276.4 L 122.8 276.4 Z M 128.7 276.4 L 128.7 256.4 L 130.8 256.4 L 130.8 276.4 L 128.7 276.4 Z M 135 276.4 L 135 263.8 L 133 263.8 L 133 261.9 L 135 261.9 C 135 261.9 134.97 260.12 135 260.1 C 135 257.6 136.4 256.1 138.5 256.1 C 139.3 256.1 139.9 256.2 140.4 256.5 C 140.4 256.5 139.8 258.2 139.8 258.2 C 139.6 258 139.3 257.9 138.9 257.9 C 137.8 257.9 137.1 258.7 137.1 260.1 C 137.13 260.12 137.1 261.9 137.1 261.9 L 139.6 261.9 L 139.6 263.8 L 137.1 263.8 L 137.1 276.4 L 135 276.4 Z M 141.7 258.3 C 141.7 257.5 142.3 256.8 143.1 256.8 C 143.9 256.8 144.6 257.5 144.6 258.3 C 144.6 259.1 143.9 259.8 143.1 259.8 C 142.3 259.8 141.7 259.1 141.7 258.3 Z M 142.1 276.4 L 142.1 261.9 L 144.2 261.9 L 144.2 276.4 L 142.1 276.4 Z M 156.1 276.4 C 156.1 276.4 156.15 274.31 156.1 274.3 C 155.3 275.8 153.9 276.7 152.3 276.7 C 149.1 276.7 147.1 273.7 147.1 269.1 C 147.1 264.6 149.1 261.5 152.3 261.5 C 153.8 261.5 155.3 262.4 156.1 264 C 156.15 263.99 156.1 256.4 156.1 256.4 L 158.3 256.4 L 158.3 276.4 L 156.1 276.4 Z M 156.1 272.5 C 156.1 272.5 156.1 265.8 156.1 265.8 C 155.6 264.6 154.3 263.4 152.9 263.4 C 150.5 263.4 149.4 266 149.4 269.1 C 149.4 272.3 150.5 274.8 152.9 274.8 C 154.3 274.8 155.6 273.7 156.1 272.5 Z M 161.2 269.1 C 161.2 264.9 163.5 261.5 167.1 261.5 C 170.9 261.5 172.9 264.9 172.9 269.2 C 172.86 269.18 172.9 269.8 172.9 269.8 C 172.9 269.8 163.47 269.84 163.5 269.8 C 163.6 272.7 165.1 274.9 167.6 274.9 C 168.9 274.9 170.2 274.3 171.1 273.2 C 171.1 273.2 172.2 274.4 172.2 274.4 C 171.1 275.9 169.4 276.7 167.5 276.7 C 163.6 276.7 161.2 273.6 161.2 269.1 Z M 167.1 263.3 C 164.5 263.3 163.5 266.1 163.5 268.2 C 163.5 268.2 170.7 268.2 170.7 268.2 C 170.7 266 169.7 263.3 167.1 263.3 Z " stroke="none" fill="#d3d2d2"/>  </g>  <g id="Polygon221393">    <path d="M 2.1 240.4 L 2.1 220.4 C 2.1 220.4 7.44 220.37 7.4 220.4 C 12.6 220.4 15.5 224.7 15.5 230.4 C 15.5 236.1 12.6 240.4 7.4 240.4 C 7.44 240.38 2.1 240.4 2.1 240.4 Z M 13 230.4 C 13 225.9 11.2 222.5 7.4 222.5 C 7.44 222.47 4.5 222.5 4.5 222.5 L 4.5 238.2 C 4.5 238.2 7.44 238.25 7.4 238.2 C 11.1 238.2 13 234.9 13 230.4 Z M 18.2 222.3 C 18.2 221.5 18.9 220.8 19.6 220.8 C 20.5 220.8 21.1 221.5 21.1 222.3 C 21.1 223.1 20.5 223.8 19.6 223.8 C 18.9 223.8 18.2 223.1 18.2 222.3 Z M 18.6 240.4 L 18.6 225.9 L 20.7 225.9 L 20.7 240.4 L 18.6 240.4 Z M 23.7 233.1 C 23.7 228.8 25.9 225.5 29.7 225.5 C 31.7 225.5 32.9 226.3 33.8 227.4 C 33.8 227.4 32.6 228.9 32.6 228.9 C 31.9 227.9 31 227.4 29.8 227.4 C 27.3 227.4 25.9 230 25.9 233.1 C 25.9 236.2 27.3 238.8 29.8 238.8 C 31 238.8 31.9 238.4 32.6 237.3 C 32.6 237.3 33.8 238.8 33.8 238.8 C 32.9 240 31.7 240.7 29.7 240.7 C 25.9 240.7 23.7 237.4 23.7 233.1 Z M 36.7 237.5 C 36.69 237.47 36.7 227.8 36.7 227.8 L 34.8 227.8 L 34.8 225.9 L 36.7 225.9 L 36.7 221.9 L 38.8 221.9 L 38.8 225.9 L 41.3 225.9 L 41.3 227.8 L 38.8 227.8 C 38.8 227.8 38.85 237.08 38.8 237.1 C 38.8 238.2 39.2 238.8 40 238.8 C 40.6 238.8 41 238.6 41.3 238.2 C 41.3 238.2 41.9 239.9 41.9 239.9 C 41.4 240.4 40.7 240.7 39.6 240.7 C 37.6 240.7 36.7 239.6 36.7 237.5 Z M 43.4 244.1 C 43.7 244.3 44.2 244.3 44.4 244.3 C 45.2 244.3 45.7 244 46.1 242.9 C 46.11 242.9 46.9 240.7 46.9 240.7 L 42.1 225.9 L 44.4 225.9 L 48 237.8 L 51.6 225.9 L 53.9 225.9 C 53.9 225.9 48.15 243.44 48.1 243.4 C 47.4 245.5 46.3 246.3 44.5 246.3 C 44.1 246.3 43.4 246.2 43.1 246 C 43.1 246 43.4 244.1 43.4 244.1 Z M 55.1 233.1 C 55.1 229 57.1 225.5 61 225.5 C 64.9 225.5 66.9 229 66.9 233.1 C 66.9 237.2 64.9 240.7 61 240.7 C 57.1 240.7 55.1 237.2 55.1 233.1 Z M 64.6 233.1 C 64.6 230.2 63.5 227.4 61 227.4 C 58.5 227.4 57.3 230.2 57.3 233.1 C 57.3 236.1 58.5 238.8 61 238.8 C 63.5 238.8 64.6 236.1 64.6 233.1 Z M 71.9 238.3 C 71.94 238.28 71.9 245.9 71.9 245.9 L 69.8 245.9 L 69.8 225.9 L 71.9 225.9 C 71.9 225.9 71.94 227.96 71.9 228 C 72.8 226.5 74.2 225.5 75.7 225.5 C 79 225.5 80.9 228.6 80.9 233.1 C 80.9 237.6 79 240.7 75.7 240.7 C 74.3 240.7 72.8 239.9 71.9 238.3 Z M 78.7 233.1 C 78.7 230 77.6 227.4 75.2 227.4 C 73.9 227.4 72.5 228.5 71.9 229.8 C 71.9 229.8 71.9 236.4 71.9 236.4 C 72.5 237.7 73.9 238.8 75.2 238.8 C 77.6 238.8 78.7 236.3 78.7 233.1 Z M 84.3 237.5 C 84.27 237.47 84.3 227.8 84.3 227.8 L 82.3 227.8 L 82.3 225.9 L 84.3 225.9 L 84.3 221.9 L 86.4 221.9 L 86.4 225.9 L 88.9 225.9 L 88.9 227.8 L 86.4 227.8 C 86.4 227.8 86.43 237.08 86.4 237.1 C 86.4 238.2 86.8 238.8 87.6 238.8 C 88.1 238.8 88.6 238.6 88.9 238.2 C 88.9 238.2 89.5 239.9 89.5 239.9 C 89 240.4 88.3 240.7 87.2 240.7 C 85.2 240.7 84.3 239.6 84.3 237.5 Z M 90.7 233.1 C 90.7 228.9 92.9 225.5 96.6 225.5 C 100.4 225.5 102.3 228.9 102.3 233.2 C 102.33 233.18 102.3 233.8 102.3 233.8 C 102.3 233.8 92.94 233.84 92.9 233.8 C 93 236.7 94.5 238.9 97.1 238.9 C 98.4 238.9 99.7 238.3 100.6 237.2 C 100.6 237.2 101.7 238.4 101.7 238.4 C 100.5 239.9 98.9 240.7 96.9 240.7 C 93.1 240.7 90.7 237.6 90.7 233.1 Z M 96.6 227.3 C 94 227.3 93 230.1 92.9 232.2 C 92.9 232.2 100.2 232.2 100.2 232.2 C 100.2 230 99.2 227.3 96.6 227.3 Z M 105.2 240.4 L 105.2 225.9 L 107.3 225.9 C 107.3 225.9 107.31 228.2 107.3 228.2 C 108.2 226.7 109.6 225.6 111.4 225.6 C 111.4 225.6 111.4 227.8 111.4 227.8 C 111.2 227.7 110.9 227.7 110.7 227.7 C 109.4 227.7 107.9 228.9 107.3 230.1 C 107.31 230.09 107.3 240.4 107.3 240.4 L 105.2 240.4 Z M 112.9 233.1 C 112.9 228.9 115.1 225.5 118.8 225.5 C 122.6 225.5 124.5 228.9 124.5 233.2 C 124.5 233.18 124.5 233.8 124.5 233.8 C 124.5 233.8 115.11 233.84 115.1 233.8 C 115.2 236.7 116.7 238.9 119.3 238.9 C 120.5 238.9 121.8 238.3 122.7 237.2 C 122.7 237.2 123.9 238.4 123.9 238.4 C 122.7 239.9 121 240.7 119.1 240.7 C 115.2 240.7 112.9 237.6 112.9 233.1 Z M 118.7 227.3 C 116.2 227.3 115.2 230.1 115.1 232.2 C 115.1 232.2 122.4 232.2 122.4 232.2 C 122.3 230 121.4 227.3 118.7 227.3 Z M 135.2 240.4 C 135.2 240.4 135.18 230.06 135.2 230.1 C 135.2 228.1 134.3 227.4 132.9 227.4 C 131.5 227.4 130.1 228.6 129.5 229.8 C 129.48 229.76 129.5 240.4 129.5 240.4 L 127.3 240.4 L 127.3 225.9 L 129.5 225.9 C 129.5 225.9 129.48 227.96 129.5 228 C 130.3 226.7 131.9 225.5 133.7 225.5 C 136.1 225.5 137.3 226.8 137.3 229.5 C 137.34 229.46 137.3 240.4 137.3 240.4 L 135.2 240.4 Z M 140.3 233.1 C 140.3 228.9 142.5 225.5 146.2 225.5 C 150 225.5 151.9 228.9 151.9 233.2 C 151.89 233.18 151.9 233.8 151.9 233.8 C 151.9 233.8 142.5 233.84 142.5 233.8 C 142.6 236.7 144.1 238.9 146.7 238.9 C 147.9 238.9 149.2 238.3 150.1 237.2 C 150.1 237.2 151.3 238.4 151.3 238.4 C 150.1 239.9 148.4 240.7 146.5 240.7 C 142.6 240.7 140.3 237.6 140.3 233.1 Z M 146.1 227.3 C 143.6 227.3 142.6 230.1 142.5 232.2 C 142.5 232.2 149.8 232.2 149.8 232.2 C 149.7 230 148.8 227.3 146.1 227.3 Z " stroke="none" fill="#d3d2d2"/>  </g>  <g id="Polygon221392">    <path d="M 1.4 194.4 C 1.4 188.4 4.4 184 9.2 184 C 12.2 184 13.9 185.9 15 187.9 C 15 187.9 13 188.9 13 188.9 C 12.2 187.2 10.9 186.2 9.2 186.2 C 5.9 186.2 3.9 189.6 3.9 194.4 C 3.9 199.1 5.9 202.6 9.2 202.6 C 11 202.6 12.3 201.3 13.1 199.6 C 13.1 199.6 15.1 200.6 15.1 200.6 C 14 202.8 12.3 204.7 9.2 204.7 C 4.4 204.7 1.4 200.4 1.4 194.4 Z M 17 208.1 C 17.3 208.3 17.7 208.3 18 208.3 C 18.8 208.3 19.3 208 19.7 206.9 C 19.68 206.9 20.5 204.7 20.5 204.7 L 15.6 189.9 L 18 189.9 L 21.6 201.8 L 25.2 189.9 L 27.5 189.9 C 27.5 189.9 21.72 207.44 21.7 207.4 C 21 209.5 19.8 210.3 18.1 210.3 C 17.7 210.3 17 210.2 16.7 210 C 16.7 210 17 208.1 17 208.1 Z M 28.6 197.1 C 28.6 192.8 30.9 189.5 34.6 189.5 C 36.7 189.5 37.9 190.3 38.8 191.4 C 38.8 191.4 37.6 192.9 37.6 192.9 C 36.8 191.9 35.9 191.4 34.8 191.4 C 32.2 191.4 30.9 194 30.9 197.1 C 30.9 200.2 32.2 202.8 34.8 202.8 C 35.9 202.8 36.8 202.4 37.6 201.3 C 37.6 201.3 38.8 202.8 38.8 202.8 C 37.9 204 36.7 204.7 34.6 204.7 C 30.9 204.7 28.6 201.4 28.6 197.1 Z M 41.2 204.4 L 41.2 184.4 L 43.4 184.4 L 43.4 204.4 L 41.2 204.4 Z M 46.3 197.1 C 46.3 193 48.4 189.5 52.2 189.5 C 56.1 189.5 58.1 193 58.1 197.1 C 58.1 201.2 56.1 204.7 52.2 204.7 C 48.4 204.7 46.3 201.2 46.3 197.1 Z M 55.9 197.1 C 55.9 194.2 54.7 191.4 52.2 191.4 C 49.7 191.4 48.6 194.2 48.6 197.1 C 48.6 200.1 49.7 202.8 52.2 202.8 C 54.7 202.8 55.9 200.1 55.9 197.1 Z M 69.3 204.4 C 69.3 204.4 69.33 202.31 69.3 202.3 C 68.5 203.8 67 204.7 65.5 204.7 C 62.3 204.7 60.3 201.7 60.3 197.1 C 60.3 192.6 62.2 189.5 65.5 189.5 C 67 189.5 68.5 190.4 69.3 192 C 69.33 191.99 69.3 184.4 69.3 184.4 L 71.5 184.4 L 71.5 204.4 L 69.3 204.4 Z M 69.3 200.5 C 69.3 200.5 69.3 193.8 69.3 193.8 C 68.8 192.6 67.4 191.4 66.1 191.4 C 63.7 191.4 62.6 194 62.6 197.1 C 62.6 200.3 63.7 202.8 66.1 202.8 C 67.4 202.8 68.8 201.7 69.3 200.5 Z M 74.4 197.1 C 74.4 192.9 76.6 189.5 80.3 189.5 C 84.1 189.5 86 192.9 86 197.2 C 86.04 197.18 86 197.8 86 197.8 C 86 197.8 76.65 197.84 76.6 197.8 C 76.7 200.7 78.2 202.9 80.8 202.9 C 82.1 202.9 83.4 202.3 84.3 201.2 C 84.3 201.2 85.4 202.4 85.4 202.4 C 84.2 203.9 82.6 204.7 80.6 204.7 C 76.8 204.7 74.4 201.6 74.4 197.1 Z M 80.3 191.3 C 77.7 191.3 76.7 194.1 76.6 196.2 C 76.6 196.2 83.9 196.2 83.9 196.2 C 83.9 194 82.9 191.3 80.3 191.3 Z M 88.2 197.1 C 88.2 192.8 90.4 189.5 94.2 189.5 C 96.2 189.5 97.4 190.3 98.3 191.4 C 98.3 191.4 97.1 192.9 97.1 192.9 C 96.4 191.9 95.5 191.4 94.3 191.4 C 91.8 191.4 90.4 194 90.4 197.1 C 90.4 200.2 91.8 202.8 94.3 202.8 C 95.5 202.8 96.4 202.4 97.1 201.3 C 97.1 201.3 98.3 202.8 98.3 202.8 C 97.4 204 96.2 204.7 94.2 204.7 C 90.4 204.7 88.2 201.4 88.2 197.1 Z M 108.2 204.4 C 108.2 204.4 108.21 202.82 108.2 202.8 C 107.3 204.1 105.9 204.7 104.4 204.7 C 102.1 204.7 100 202.9 100 199.9 C 100 196.9 102 195.1 104.4 195.1 C 105.9 195.1 107.3 195.7 108.2 197 C 108.2 197 108.2 194.5 108.2 194.5 C 108.2 192.5 107.1 191.4 105.2 191.4 C 103.9 191.4 102.7 191.9 101.6 193.2 C 101.6 193.2 100.6 191.6 100.6 191.6 C 102 190.2 103.7 189.5 105.6 189.5 C 108.4 189.5 110.4 190.9 110.4 194.2 C 110.37 194.24 110.4 204.4 110.4 204.4 L 108.2 204.4 Z M 108.2 201.3 C 108.2 201.3 108.2 198.6 108.2 198.6 C 107.5 197.4 106.3 196.7 105.1 196.7 C 103.3 196.7 102.2 198.1 102.2 199.9 C 102.2 201.7 103.3 203.2 105.1 203.2 C 106.3 203.2 107.5 202.5 108.2 201.3 Z M 121.8 204.4 C 121.8 204.4 121.83 194.06 121.8 194.1 C 121.8 192.1 121 191.4 119.5 191.4 C 118.1 191.4 116.8 192.6 116.1 193.8 C 116.13 193.76 116.1 204.4 116.1 204.4 L 114 204.4 L 114 189.9 L 116.1 189.9 C 116.1 189.9 116.13 191.96 116.1 192 C 117 190.7 118.6 189.5 120.3 189.5 C 122.8 189.5 124 190.8 124 193.5 C 123.99 193.46 124 204.4 124 204.4 L 121.8 204.4 Z M 126.9 197.1 C 126.9 193 129 189.5 132.8 189.5 C 136.7 189.5 138.7 193 138.7 197.1 C 138.7 201.2 136.7 204.7 132.8 204.7 C 129 204.7 126.9 201.2 126.9 197.1 Z M 136.5 197.1 C 136.5 194.2 135.4 191.4 132.8 191.4 C 130.3 191.4 129.2 194.2 129.2 197.1 C 129.2 200.1 130.3 202.8 132.8 202.8 C 135.4 202.8 136.5 200.1 136.5 197.1 Z M 141.7 204.4 L 141.7 184.4 L 143.8 184.4 L 143.8 204.4 L 141.7 204.4 Z M 146.7 197.1 C 146.7 193 148.8 189.5 152.6 189.5 C 156.5 189.5 158.5 193 158.5 197.1 C 158.5 201.2 156.5 204.7 152.6 204.7 C 148.8 204.7 146.7 201.2 146.7 197.1 Z M 156.3 197.1 C 156.3 194.2 155.2 191.4 152.6 191.4 C 150.1 191.4 149 194.2 149 197.1 C 149 200.1 150.1 202.8 152.6 202.8 C 155.2 202.8 156.3 200.1 156.3 197.1 Z M 161.5 204.4 L 161.5 184.4 L 163.6 184.4 L 163.6 204.4 L 161.5 204.4 Z " stroke="none" fill="#d3d2d2"/>  </g>  <g id="Polygon221391">    <path d="M 1.4 158.4 C 1.4 152.4 4.4 148 9.2 148 C 12.2 148 13.9 149.9 15 151.9 C 15 151.9 13 152.9 13 152.9 C 12.2 151.2 10.9 150.2 9.2 150.2 C 5.9 150.2 3.9 153.6 3.9 158.4 C 3.9 163.1 5.9 166.6 9.2 166.6 C 11 166.6 12.3 165.3 13.1 163.6 C 13.1 163.6 15.1 164.6 15.1 164.6 C 14 166.8 12.3 168.7 9.2 168.7 C 4.4 168.7 1.4 164.4 1.4 158.4 Z M 25.1 168.4 C 25.1 168.4 25.11 166.82 25.1 166.8 C 24.2 168.1 22.8 168.7 21.3 168.7 C 19 168.7 16.9 166.9 16.9 163.9 C 16.9 160.9 18.9 159.1 21.3 159.1 C 22.8 159.1 24.2 159.7 25.1 161 C 25.1 161 25.1 158.5 25.1 158.5 C 25.1 156.5 24 155.4 22.1 155.4 C 20.8 155.4 19.6 155.9 18.5 157.2 C 18.5 157.2 17.5 155.6 17.5 155.6 C 18.9 154.2 20.6 153.5 22.5 153.5 C 25.3 153.5 27.3 154.9 27.3 158.2 C 27.27 158.24 27.3 168.4 27.3 168.4 L 25.1 168.4 Z M 25.1 165.3 C 25.1 165.3 25.1 162.6 25.1 162.6 C 24.4 161.4 23.2 160.7 22 160.7 C 20.2 160.7 19.1 162.1 19.1 163.9 C 19.1 165.7 20.2 167.2 22 167.2 C 23.2 167.2 24.4 166.5 25.1 165.3 Z M 30.9 168.4 L 30.9 148.4 L 33 148.4 L 33 168.4 L 30.9 168.4 Z M 36 161.1 C 36 156.8 38.2 153.5 42 153.5 C 44 153.5 45.2 154.3 46.1 155.4 C 46.1 155.4 44.9 156.9 44.9 156.9 C 44.2 155.9 43.3 155.4 42.1 155.4 C 39.6 155.4 38.2 158 38.2 161.1 C 38.2 164.2 39.6 166.8 42.1 166.8 C 43.3 166.8 44.2 166.4 44.9 165.3 C 44.9 165.3 46.1 166.8 46.1 166.8 C 45.2 168 44 168.7 42 168.7 C 38.2 168.7 36 165.4 36 161.1 Z M 48.1 150.3 C 48.1 149.5 48.8 148.8 49.6 148.8 C 50.4 148.8 51.1 149.5 51.1 150.3 C 51.1 151.1 50.4 151.8 49.6 151.8 C 48.8 151.8 48.1 151.1 48.1 150.3 Z M 48.6 168.4 L 48.6 153.9 L 50.7 153.9 L 50.7 168.4 L 48.6 168.4 Z M 62.2 168.4 C 62.2 168.4 62.19 166.37 62.2 166.4 C 61.3 167.6 59.8 168.7 58 168.7 C 55.5 168.7 54.4 167.5 54.4 164.9 C 54.36 164.87 54.4 153.9 54.4 153.9 L 56.5 153.9 C 56.5 153.9 56.49 164.24 56.5 164.2 C 56.5 166.2 57.4 166.8 58.8 166.8 C 60.2 166.8 61.6 165.8 62.2 164.6 C 62.19 164.57 62.2 153.9 62.2 153.9 L 64.3 153.9 L 64.3 168.4 L 62.2 168.4 Z M 82.6 168.4 C 82.6 168.4 82.65 157.88 82.6 157.9 C 82.6 156.3 82 155.4 80.6 155.4 C 79.3 155.4 78.1 156.6 77.5 157.8 C 77.49 157.76 77.5 168.4 77.5 168.4 L 75.3 168.4 C 75.3 168.4 75.33 157.88 75.3 157.9 C 75.3 156.3 74.7 155.4 73.3 155.4 C 72 155.4 70.8 156.6 70.1 157.8 C 70.14 157.76 70.1 168.4 70.1 168.4 L 68 168.4 L 68 153.9 L 70.1 153.9 C 70.1 153.9 70.14 155.96 70.1 156 C 70.7 154.9 72.4 153.5 74.1 153.5 C 76 153.5 77.1 154.6 77.4 156.1 C 78.1 154.8 79.7 153.5 81.4 153.5 C 83.6 153.5 84.8 154.7 84.8 157.3 C 84.81 157.31 84.8 168.4 84.8 168.4 L 82.6 168.4 Z M 109.3 168.4 C 109.3 168.4 109.26 157.88 109.3 157.9 C 109.3 156.3 108.6 155.4 107.2 155.4 C 106 155.4 104.7 156.6 104.1 157.8 C 104.1 157.76 104.1 168.4 104.1 168.4 L 101.9 168.4 C 101.9 168.4 101.94 157.88 101.9 157.9 C 101.9 156.3 101.3 155.4 99.9 155.4 C 98.6 155.4 97.4 156.6 96.7 157.8 C 96.75 157.76 96.7 168.4 96.7 168.4 L 94.6 168.4 L 94.6 153.9 L 96.7 153.9 C 96.7 153.9 96.75 155.96 96.7 156 C 97.3 154.9 99 153.5 100.7 153.5 C 102.6 153.5 103.7 154.6 104 156.1 C 104.7 154.8 106.3 153.5 108.1 153.5 C 110.2 153.5 111.4 154.7 111.4 157.3 C 111.42 157.31 111.4 168.4 111.4 168.4 L 109.3 168.4 Z M 114.4 161.1 C 114.4 157 116.4 153.5 120.2 153.5 C 124.1 153.5 126.1 157 126.1 161.1 C 126.1 165.2 124.1 168.7 120.2 168.7 C 116.4 168.7 114.4 165.2 114.4 161.1 Z M 123.9 161.1 C 123.9 158.2 122.8 155.4 120.2 155.4 C 117.7 155.4 116.6 158.2 116.6 161.1 C 116.6 164.1 117.7 166.8 120.2 166.8 C 122.8 166.8 123.9 164.1 123.9 161.1 Z M 136.9 168.4 C 136.9 168.4 136.92 158.06 136.9 158.1 C 136.9 156.1 136 155.4 134.6 155.4 C 133.2 155.4 131.9 156.6 131.2 157.8 C 131.22 157.76 131.2 168.4 131.2 168.4 L 129.1 168.4 L 129.1 153.9 L 131.2 153.9 C 131.2 153.9 131.22 155.96 131.2 156 C 132.1 154.7 133.7 153.5 135.4 153.5 C 137.9 153.5 139.1 154.8 139.1 157.5 C 139.08 157.46 139.1 168.4 139.1 168.4 L 136.9 168.4 Z M 142 161.1 C 142 157 144.1 153.5 147.9 153.5 C 151.8 153.5 153.8 157 153.8 161.1 C 153.8 165.2 151.8 168.7 147.9 168.7 C 144.1 168.7 142 165.2 142 161.1 Z M 151.6 161.1 C 151.6 158.2 150.4 155.4 147.9 155.4 C 145.4 155.4 144.3 158.2 144.3 161.1 C 144.3 164.1 145.4 166.8 147.9 166.8 C 150.4 166.8 151.6 164.1 151.6 161.1 Z M 157.2 165.5 C 157.17 165.47 157.2 155.8 157.2 155.8 L 155.2 155.8 L 155.2 153.9 L 157.2 153.9 L 157.2 149.9 L 159.3 149.9 L 159.3 153.9 L 161.8 153.9 L 161.8 155.8 L 159.3 155.8 C 159.3 155.8 159.33 165.08 159.3 165.1 C 159.3 166.2 159.7 166.8 160.5 166.8 C 161 166.8 161.5 166.6 161.8 166.2 C 161.8 166.2 162.4 167.9 162.4 167.9 C 161.9 168.4 161.2 168.7 160.1 168.7 C 158.1 168.7 157.2 167.6 157.2 165.5 Z M 163.9 172.1 C 164.2 172.3 164.6 172.3 164.9 172.3 C 165.7 172.3 166.2 172 166.6 170.9 C 166.59 170.9 167.4 168.7 167.4 168.7 L 162.5 153.9 L 164.9 153.9 L 168.5 165.8 L 172.1 153.9 L 174.4 153.9 C 174.4 153.9 168.63 171.44 168.6 171.4 C 167.9 173.5 166.7 174.3 165 174.3 C 164.6 174.3 163.9 174.2 163.6 174 C 163.6 174 163.9 172.1 163.9 172.1 Z M 175.6 161.1 C 175.6 156.8 177.8 153.5 181.6 153.5 C 183.6 153.5 184.8 154.3 185.7 155.4 C 185.7 155.4 184.5 156.9 184.5 156.9 C 183.7 155.9 182.8 155.4 181.7 155.4 C 179.2 155.4 177.8 158 177.8 161.1 C 177.8 164.2 179.2 166.8 181.7 166.8 C 182.8 166.8 183.7 166.4 184.5 165.3 C 184.5 165.3 185.7 166.8 185.7 166.8 C 184.8 168 183.6 168.7 181.6 168.7 C 177.8 168.7 175.6 165.4 175.6 161.1 Z M 188.2 168.4 L 188.2 148.4 L 190.3 148.4 L 190.3 168.4 L 188.2 168.4 Z M 193.5 150.3 C 193.5 149.5 194.2 148.8 195 148.8 C 195.8 148.8 196.5 149.5 196.5 150.3 C 196.5 151.1 195.8 151.8 195 151.8 C 194.2 151.8 193.5 151.1 193.5 150.3 Z M 193.9 168.4 L 193.9 153.9 L 196.1 153.9 L 196.1 168.4 L 193.9 168.4 Z M 207.6 168.4 C 207.6 168.4 207.56 166.37 207.6 166.4 C 206.7 167.6 205.2 168.7 203.4 168.7 C 200.9 168.7 199.7 167.5 199.7 164.9 C 199.73 164.87 199.7 153.9 199.7 153.9 L 201.9 153.9 C 201.9 153.9 201.86 164.24 201.9 164.2 C 201.9 166.2 202.8 166.8 204.2 166.8 C 205.6 166.8 206.9 165.8 207.6 164.6 C 207.56 164.57 207.6 153.9 207.6 153.9 L 209.7 153.9 L 209.7 168.4 L 207.6 168.4 Z M 228 168.4 C 228 168.4 228.02 157.88 228 157.9 C 228 156.3 227.4 155.4 226 155.4 C 224.7 155.4 223.4 156.6 222.9 157.8 C 222.86 157.76 222.9 168.4 222.9 168.4 L 220.7 168.4 C 220.7 168.4 220.7 157.88 220.7 157.9 C 220.7 156.3 220.1 155.4 218.7 155.4 C 217.4 155.4 216.1 156.6 215.5 157.8 C 215.51 157.76 215.5 168.4 215.5 168.4 L 213.4 168.4 L 213.4 153.9 L 215.5 153.9 C 215.5 153.9 215.51 155.96 215.5 156 C 216.1 154.9 217.7 153.5 219.5 153.5 C 221.3 153.5 222.5 154.6 222.7 156.1 C 223.5 154.8 225.1 153.5 226.8 153.5 C 229 153.5 230.2 154.7 230.2 157.3 C 230.18 157.31 230.2 168.4 230.2 168.4 L 228 168.4 Z " stroke="none" fill="#d3d2d2"/>  </g>  <g id="Polygon221390">    <path d="M 2.1 132.4 L 2.1 112.4 C 2.1 112.4 8.73 112.37 8.7 112.4 C 11.9 112.4 13.7 114.4 13.7 117.5 C 13.7 120 12.4 121.6 10.6 122.1 C 12.6 122.4 14 124.6 14 127 C 14 130.2 12.3 132.4 8.9 132.4 C 8.91 132.38 2.1 132.4 2.1 132.4 Z M 11.2 117.8 C 11.2 115.9 10.3 114.5 8.3 114.5 C 8.28 114.47 4.5 114.5 4.5 114.5 L 4.5 121.1 C 4.5 121.1 8.28 121.1 8.3 121.1 C 10.3 121.1 11.2 119.7 11.2 117.8 Z M 11.6 126.7 C 11.6 124.8 10.6 123.2 8.4 123.2 C 8.43 123.2 4.5 123.2 4.5 123.2 L 4.5 130.2 C 4.5 130.2 8.43 130.25 8.4 130.2 C 10.5 130.2 11.6 128.9 11.6 126.7 Z M 25 132.4 C 25 132.4 24.99 130.37 25 130.4 C 24.1 131.6 22.6 132.7 20.8 132.7 C 18.3 132.7 17.2 131.5 17.2 128.9 C 17.16 128.87 17.2 117.9 17.2 117.9 L 19.3 117.9 C 19.3 117.9 19.29 128.24 19.3 128.2 C 19.3 130.2 20.2 130.8 21.6 130.8 C 23 130.8 24.4 129.8 25 128.6 C 24.99 128.57 25 117.9 25 117.9 L 27.1 117.9 L 27.1 132.4 L 25 132.4 Z M 31.2 129.5 C 31.23 129.47 31.2 119.8 31.2 119.8 L 29.3 119.8 L 29.3 117.9 L 31.2 117.9 L 31.2 113.9 L 33.4 113.9 L 33.4 117.9 L 35.8 117.9 L 35.8 119.8 L 33.4 119.8 C 33.4 119.8 33.39 129.08 33.4 129.1 C 33.4 130.2 33.7 130.8 34.6 130.8 C 35.1 130.8 35.5 130.6 35.8 130.2 C 35.8 130.2 36.5 131.9 36.5 131.9 C 36 132.4 35.2 132.7 34.1 132.7 C 32.2 132.7 31.2 131.6 31.2 129.5 Z M 38 136.1 C 38.2 136.3 38.7 136.3 38.9 136.3 C 39.8 136.3 40.3 136 40.6 134.9 C 40.65 134.9 41.4 132.7 41.4 132.7 L 36.6 117.9 L 38.9 117.9 L 42.5 129.8 L 46.2 117.9 L 48.5 117.9 C 48.5 117.9 42.69 135.44 42.7 135.4 C 42 137.5 40.8 138.3 39.1 138.3 C 38.6 138.3 38 138.2 37.6 138 C 37.6 138 38 136.1 38 136.1 Z M 50.3 132.4 L 50.3 112.4 L 52.5 112.4 L 52.5 132.4 L 50.3 132.4 Z M 55.4 125.1 C 55.4 120.8 57.7 117.5 61.4 117.5 C 63.4 117.5 64.6 118.3 65.5 119.4 C 65.5 119.4 64.4 120.9 64.4 120.9 C 63.6 119.9 62.7 119.4 61.6 119.4 C 59 119.4 57.7 122 57.7 125.1 C 57.7 128.2 59 130.8 61.6 130.8 C 62.7 130.8 63.6 130.4 64.4 129.3 C 64.4 129.3 65.5 130.8 65.5 130.8 C 64.6 132 63.4 132.7 61.4 132.7 C 57.7 132.7 55.4 129.4 55.4 125.1 Z M 67.6 136.1 C 67.9 136.3 68.3 136.3 68.5 136.3 C 69.4 136.3 69.9 136 70.3 134.9 C 70.26 134.9 71 132.7 71 132.7 L 66.2 117.9 L 68.5 117.9 L 72.1 129.8 L 75.8 117.9 L 78.1 117.9 C 78.1 117.9 72.3 135.44 72.3 135.4 C 71.6 137.5 70.4 138.3 68.7 138.3 C 68.2 138.3 67.6 138.2 67.3 138 C 67.3 138 67.6 136.1 67.6 136.1 Z M 79.2 125.1 C 79.2 120.8 81.5 117.5 85.2 117.5 C 87.2 117.5 88.5 118.3 89.4 119.4 C 89.4 119.4 88.2 120.9 88.2 120.9 C 87.4 119.9 86.5 119.4 85.4 119.4 C 82.8 119.4 81.5 122 81.5 125.1 C 81.5 128.2 82.8 130.8 85.4 130.8 C 86.5 130.8 87.4 130.4 88.2 129.3 C 88.2 129.3 89.4 130.8 89.4 130.8 C 88.5 132 87.2 132.7 85.2 132.7 C 81.5 132.7 79.2 129.4 79.2 125.1 Z M 91.8 132.4 L 91.8 112.4 L 94 112.4 L 94 132.4 L 91.8 132.4 Z M 96.9 125.1 C 96.9 121 98.9 117.5 102.8 117.5 C 106.7 117.5 108.7 121 108.7 125.1 C 108.7 129.2 106.7 132.7 102.8 132.7 C 98.9 132.7 96.9 129.2 96.9 125.1 Z M 106.4 125.1 C 106.4 122.2 105.3 119.4 102.8 119.4 C 100.3 119.4 99.1 122.2 99.1 125.1 C 99.1 128.1 100.3 130.8 102.8 130.8 C 105.3 130.8 106.4 128.1 106.4 125.1 Z M 119.5 132.4 C 119.5 132.4 119.49 122.03 119.5 122 C 119.5 120.1 118.6 119.4 117.1 119.4 C 115.7 119.4 114.4 120.6 113.8 121.8 C 113.76 121.76 113.8 132.4 113.8 132.4 L 111.6 132.4 L 111.6 112.4 L 113.8 112.4 C 113.8 112.4 113.76 119.96 113.8 120 C 114.6 118.7 116.2 117.5 118 117.5 C 120.4 117.5 121.6 118.8 121.6 121.4 C 121.62 121.4 121.6 132.4 121.6 132.4 L 119.5 132.4 Z M 124.6 125.1 C 124.6 120.9 126.8 117.5 130.4 117.5 C 134.2 117.5 136.2 120.9 136.2 125.2 C 136.17 125.18 136.2 125.8 136.2 125.8 C 136.2 125.8 126.78 125.84 126.8 125.8 C 126.9 128.7 128.4 130.9 130.9 130.9 C 132.2 130.9 133.5 130.3 134.4 129.2 C 134.4 129.2 135.5 130.4 135.5 130.4 C 134.4 131.9 132.7 132.7 130.8 132.7 C 126.9 132.7 124.6 129.6 124.6 125.1 Z M 130.4 119.3 C 127.9 119.3 126.8 122.1 126.8 124.2 C 126.8 124.2 134 124.2 134 124.2 C 134 122 133 119.3 130.4 119.3 Z M 141.1 130.3 C 141.15 130.28 141.1 137.9 141.1 137.9 L 139 137.9 L 139 117.9 L 141.1 117.9 C 141.1 117.9 141.15 119.96 141.1 120 C 142 118.5 143.4 117.5 145 117.5 C 148.2 117.5 150.1 120.6 150.1 125.1 C 150.1 129.6 148.2 132.7 145 132.7 C 143.5 132.7 142 131.9 141.1 130.3 Z M 147.9 125.1 C 147.9 122 146.8 119.4 144.4 119.4 C 143.1 119.4 141.7 120.5 141.1 121.8 C 141.1 121.8 141.1 128.4 141.1 128.4 C 141.7 129.7 143.1 130.8 144.4 130.8 C 146.8 130.8 147.9 128.3 147.9 125.1 Z M 153.5 129.5 C 153.48 129.47 153.5 119.8 153.5 119.8 L 151.6 119.8 L 151.6 117.9 L 153.5 117.9 L 153.5 113.9 L 155.6 113.9 L 155.6 117.9 L 158.1 117.9 L 158.1 119.8 L 155.6 119.8 C 155.6 119.8 155.64 129.08 155.6 129.1 C 155.6 130.2 156 130.8 156.8 130.8 C 157.3 130.8 157.8 130.6 158.1 130.2 C 158.1 130.2 158.7 131.9 158.7 131.9 C 158.2 132.4 157.5 132.7 156.4 132.7 C 154.4 132.7 153.5 131.6 153.5 129.5 Z M 168.1 132.4 C 168.1 132.4 168.09 130.82 168.1 130.8 C 167.2 132.1 165.7 132.7 164.3 132.7 C 161.9 132.7 159.9 130.9 159.9 127.9 C 159.9 124.9 161.9 123.1 164.3 123.1 C 165.7 123.1 167.2 123.7 168.1 125 C 168.1 125 168.1 122.5 168.1 122.5 C 168.1 120.5 167 119.4 165.1 119.4 C 163.8 119.4 162.6 119.9 161.5 121.2 C 161.5 121.2 160.5 119.6 160.5 119.6 C 161.9 118.2 163.6 117.5 165.4 117.5 C 168.3 117.5 170.2 118.9 170.2 122.2 C 170.25 122.24 170.2 132.4 170.2 132.4 L 168.1 132.4 Z M 168.1 129.3 C 168.1 129.3 168.1 126.6 168.1 126.6 C 167.4 125.4 166.2 124.7 165 124.7 C 163.2 124.7 162.1 126.1 162.1 127.9 C 162.1 129.7 163.2 131.2 165 131.2 C 166.2 131.2 167.4 130.5 168.1 129.3 Z M 182.2 132.4 C 182.2 132.4 182.16 130.31 182.2 130.3 C 181.3 131.8 179.9 132.7 178.3 132.7 C 175.1 132.7 173.2 129.7 173.2 125.1 C 173.2 120.6 175.1 117.5 178.3 117.5 C 179.8 117.5 181.3 118.4 182.2 120 C 182.16 119.99 182.2 112.4 182.2 112.4 L 184.3 112.4 L 184.3 132.4 L 182.2 132.4 Z M 182.2 128.5 C 182.2 128.5 182.2 121.8 182.2 121.8 C 181.6 120.6 180.3 119.4 178.9 119.4 C 176.5 119.4 175.4 122 175.4 125.1 C 175.4 128.3 176.5 130.8 178.9 130.8 C 180.3 130.8 181.6 129.7 182.2 128.5 Z M 187.6 114.3 C 187.6 113.5 188.2 112.8 189 112.8 C 189.8 112.8 190.5 113.5 190.5 114.3 C 190.5 115.1 189.8 115.8 189 115.8 C 188.2 115.8 187.6 115.1 187.6 114.3 Z M 188 132.4 L 188 117.9 L 190.1 117.9 L 190.1 132.4 L 188 132.4 Z M 193 125.1 C 193 120.9 195.3 117.5 198.9 117.5 C 202.7 117.5 204.7 120.9 204.7 125.2 C 204.66 125.18 204.7 125.8 204.7 125.8 C 204.7 125.8 195.27 125.84 195.3 125.8 C 195.4 128.7 196.9 130.9 199.4 130.9 C 200.7 130.9 202 130.3 202.9 129.2 C 202.9 129.2 204 130.4 204 130.4 C 202.9 131.9 201.2 132.7 199.3 132.7 C 195.4 132.7 193 129.6 193 125.1 Z M 198.9 119.3 C 196.3 119.3 195.3 122.1 195.3 124.2 C 195.3 124.2 202.5 124.2 202.5 124.2 C 202.5 122 201.5 119.3 198.9 119.3 Z M 215.3 132.4 C 215.3 132.4 215.33 122.06 215.3 122.1 C 215.3 120.1 214.5 119.4 213 119.4 C 211.6 119.4 210.3 120.6 209.6 121.8 C 209.63 121.76 209.6 132.4 209.6 132.4 L 207.5 132.4 L 207.5 117.9 L 209.6 117.9 C 209.6 117.9 209.63 119.96 209.6 120 C 210.5 118.7 212.1 117.5 213.8 117.5 C 216.3 117.5 217.5 118.8 217.5 121.5 C 217.49 121.46 217.5 132.4 217.5 132.4 L 215.3 132.4 Z M 220.4 125.1 C 220.4 120.9 222.7 117.5 226.3 117.5 C 230.1 117.5 232 120.9 232 125.2 C 232.04 125.18 232 125.8 232 125.8 C 232 125.8 222.65 125.84 222.7 125.8 C 222.7 128.7 224.2 130.9 226.8 130.9 C 228.1 130.9 229.4 130.3 230.3 129.2 C 230.3 129.2 231.4 130.4 231.4 130.4 C 230.2 131.9 228.6 132.7 226.6 132.7 C 222.8 132.7 220.4 129.6 220.4 125.1 Z M 226.3 119.3 C 223.7 119.3 222.7 122.1 222.7 124.2 C 222.7 124.2 229.9 124.2 229.9 124.2 C 229.9 122 228.9 119.3 226.3 119.3 Z " stroke="none" fill="#d3d2d2"/>  </g>  <g id="Polygon221389">    <path d="M 12.5 96.4 L 11.2 91.8 L 4.1 91.8 L 2.8 96.4 L 0.2 96.4 L 6.2 76.4 L 9.1 76.4 L 15.1 96.4 L 12.5 96.4 Z M 7.6 79 L 4.6 89.7 L 10.7 89.7 L 7.6 79 Z M 15.8 94.7 C 15.8 94.7 16.9 93.2 16.9 93.2 C 17.8 94.2 19.1 95 20.7 95 C 22.4 95 23.5 94 23.5 92.7 C 23.5 89.3 16.3 90.4 16.3 85.4 C 16.3 83.3 18 81.5 20.9 81.5 C 22.8 81.5 24.3 82.3 25.3 83.4 C 25.3 83.4 24.3 84.9 24.3 84.9 C 23.5 83.9 22.3 83.3 20.9 83.3 C 19.3 83.3 18.3 84.2 18.3 85.4 C 18.3 88.5 25.6 87.4 25.6 92.6 C 25.6 95 23.7 96.7 20.7 96.7 C 18.7 96.7 17 96.1 15.8 94.7 Z M 28.7 93.5 C 28.74 93.47 28.7 83.8 28.7 83.8 L 26.8 83.8 L 26.8 81.9 L 28.7 81.9 L 28.7 77.9 L 30.9 77.9 L 30.9 81.9 L 33.4 81.9 L 33.4 83.8 L 30.9 83.8 C 30.9 83.8 30.9 93.08 30.9 93.1 C 30.9 94.2 31.2 94.8 32.1 94.8 C 32.6 94.8 33.1 94.6 33.3 94.2 C 33.3 94.2 34 95.9 34 95.9 C 33.5 96.4 32.8 96.7 31.6 96.7 C 29.7 96.7 28.7 95.6 28.7 93.5 Z M 43.3 96.4 C 43.3 96.4 43.35 94.82 43.3 94.8 C 42.4 96.1 41 96.7 39.5 96.7 C 37.2 96.7 35.2 94.9 35.2 91.9 C 35.2 88.9 37.2 87.1 39.5 87.1 C 41 87.1 42.4 87.7 43.3 89 C 43.3 89 43.3 86.5 43.3 86.5 C 43.3 84.5 42.3 83.4 40.4 83.4 C 39 83.4 37.9 83.9 36.7 85.2 C 36.7 85.2 35.8 83.6 35.8 83.6 C 37.2 82.2 38.9 81.5 40.7 81.5 C 43.6 81.5 45.5 82.9 45.5 86.2 C 45.51 86.24 45.5 96.4 45.5 96.4 L 43.3 96.4 Z M 43.3 93.3 C 43.3 93.3 43.3 90.6 43.3 90.6 C 42.7 89.4 41.5 88.7 40.2 88.7 C 38.4 88.7 37.3 90.1 37.3 91.9 C 37.3 93.7 38.4 95.2 40.2 95.2 C 41.5 95.2 42.7 94.5 43.3 93.3 Z M 56.6 96.4 L 53.2 90.6 L 49.9 96.4 L 47.5 96.4 L 51.9 89 L 47.8 81.9 L 50.2 81.9 L 53.2 87.4 L 56.3 81.9 L 58.7 81.9 L 54.6 89 L 59 96.4 L 56.6 96.4 Z M 68.5 96.4 C 68.5 96.4 68.46 94.82 68.5 94.8 C 67.5 96.1 66.1 96.7 64.6 96.7 C 62.3 96.7 60.3 94.9 60.3 91.9 C 60.3 88.9 62.3 87.1 64.6 87.1 C 66.1 87.1 67.6 87.7 68.5 89 C 68.5 89 68.5 86.5 68.5 86.5 C 68.5 84.5 67.4 83.4 65.5 83.4 C 64.1 83.4 63 83.9 61.9 85.2 C 61.9 85.2 60.9 83.6 60.9 83.6 C 62.3 82.2 64 81.5 65.8 81.5 C 68.7 81.5 70.6 82.9 70.6 86.2 C 70.62 86.24 70.6 96.4 70.6 96.4 L 68.5 96.4 Z M 68.5 93.3 C 68.5 93.3 68.5 90.6 68.5 90.6 C 67.8 89.4 66.6 88.7 65.3 88.7 C 63.5 88.7 62.5 90.1 62.5 91.9 C 62.5 93.7 63.5 95.2 65.3 95.2 C 66.6 95.2 67.8 94.5 68.5 93.3 Z M 82.1 96.4 C 82.1 96.4 82.08 86.06 82.1 86.1 C 82.1 84.1 81.2 83.4 79.8 83.4 C 78.4 83.4 77 84.6 76.4 85.8 C 76.38 85.76 76.4 96.4 76.4 96.4 L 74.2 96.4 L 74.2 81.9 L 76.4 81.9 C 76.4 81.9 76.38 83.96 76.4 84 C 77.2 82.7 78.8 81.5 80.6 81.5 C 83 81.5 84.2 82.8 84.2 85.5 C 84.24 85.46 84.2 96.4 84.2 96.4 L 82.1 96.4 Z M 88.3 93.5 C 88.32 93.47 88.3 83.8 88.3 83.8 L 86.4 83.8 L 86.4 81.9 L 88.3 81.9 L 88.3 77.9 L 90.5 77.9 L 90.5 81.9 L 92.9 81.9 L 92.9 83.8 L 90.5 83.8 C 90.5 83.8 90.48 93.08 90.5 93.1 C 90.5 94.2 90.8 94.8 91.6 94.8 C 92.2 94.8 92.6 94.6 92.9 94.2 C 92.9 94.2 93.6 95.9 93.6 95.9 C 93.1 96.4 92.3 96.7 91.2 96.7 C 89.2 96.7 88.3 95.6 88.3 93.5 Z M 103.3 96.4 C 103.3 96.4 103.35 86.03 103.3 86 C 103.3 84.1 102.4 83.4 101 83.4 C 99.6 83.4 98.3 84.6 97.6 85.8 C 97.62 85.76 97.6 96.4 97.6 96.4 L 95.5 96.4 L 95.5 76.4 L 97.6 76.4 C 97.6 76.4 97.62 83.96 97.6 84 C 98.5 82.7 100.1 81.5 101.8 81.5 C 104.3 81.5 105.5 82.8 105.5 85.4 C 105.48 85.4 105.5 96.4 105.5 96.4 L 103.3 96.4 Z M 108.7 78.3 C 108.7 77.5 109.4 76.8 110.2 76.8 C 111 76.8 111.7 77.5 111.7 78.3 C 111.7 79.1 111 79.8 110.2 79.8 C 109.4 79.8 108.7 79.1 108.7 78.3 Z M 109.1 96.4 L 109.1 81.9 L 111.3 81.9 L 111.3 96.4 L 109.1 96.4 Z M 122.8 96.4 C 122.8 96.4 122.76 86.06 122.8 86.1 C 122.8 84.1 121.9 83.4 120.4 83.4 C 119 83.4 117.7 84.6 117.1 85.8 C 117.06 85.76 117.1 96.4 117.1 96.4 L 114.9 96.4 L 114.9 81.9 L 117.1 81.9 C 117.1 81.9 117.06 83.96 117.1 84 C 117.9 82.7 119.5 81.5 121.3 81.5 C 123.7 81.5 124.9 82.8 124.9 85.5 C 124.92 85.46 124.9 96.4 124.9 96.4 L 122.8 96.4 Z " stroke="none" fill="#d3d2d2"/>  </g>  <g id="Polygon221388">    <path d="M 12.5 60.4 L 11.2 55.8 L 4.1 55.8 L 2.8 60.4 L 0.2 60.4 L 6.2 40.4 L 9.1 40.4 L 15.1 60.4 L 12.5 60.4 Z M 7.6 43 L 4.6 53.7 L 10.7 53.7 L 7.6 43 Z M 17 60.4 L 17 40.4 L 19.1 40.4 L 19.1 60.4 L 17 60.4 Z M 22.1 53.1 C 22.1 48.8 24.4 45.5 28.1 45.5 C 30.1 45.5 31.3 46.3 32.2 47.4 C 32.2 47.4 31 48.9 31 48.9 C 30.3 47.9 29.4 47.4 28.3 47.4 C 25.7 47.4 24.3 50 24.3 53.1 C 24.3 56.2 25.7 58.8 28.3 58.8 C 29.4 58.8 30.3 58.4 31 57.3 C 31 57.3 32.2 58.8 32.2 58.8 C 31.3 60 30.1 60.7 28.1 60.7 C 24.4 60.7 22.1 57.4 22.1 53.1 Z M 42.1 60.4 C 42.1 60.4 42.12 58.82 42.1 58.8 C 41.2 60.1 39.8 60.7 38.3 60.7 C 36 60.7 33.9 58.9 33.9 55.9 C 33.9 52.9 35.9 51.1 38.3 51.1 C 39.8 51.1 41.2 51.7 42.1 53 C 42.1 53 42.1 50.5 42.1 50.5 C 42.1 48.5 41 47.4 39.1 47.4 C 37.8 47.4 36.6 47.9 35.5 49.2 C 35.5 49.2 34.6 47.6 34.6 47.6 C 35.9 46.2 37.6 45.5 39.5 45.5 C 42.4 45.5 44.3 46.9 44.3 50.2 C 44.28 50.24 44.3 60.4 44.3 60.4 L 42.1 60.4 Z M 42.1 57.3 C 42.1 57.3 42.1 54.6 42.1 54.6 C 41.5 53.4 40.3 52.7 39 52.7 C 37.2 52.7 36.1 54.1 36.1 55.9 C 36.1 57.7 37.2 59.2 39 59.2 C 40.3 59.2 41.5 58.5 42.1 57.3 Z M 55.7 60.4 C 55.7 60.4 55.74 50.06 55.7 50.1 C 55.7 48.1 54.9 47.4 53.4 47.4 C 52 47.4 50.7 48.6 50 49.8 C 50.04 49.76 50 60.4 50 60.4 L 47.9 60.4 L 47.9 45.9 L 50 45.9 C 50 45.9 50.04 47.96 50 48 C 50.9 46.7 52.5 45.5 54.2 45.5 C 56.7 45.5 57.9 46.8 57.9 49.5 C 57.9 49.46 57.9 60.4 57.9 60.4 L 55.7 60.4 Z M 61.1 42.3 C 61.1 41.5 61.8 40.8 62.6 40.8 C 63.4 40.8 64.1 41.5 64.1 42.3 C 64.1 43.1 63.4 43.8 62.6 43.8 C 61.8 43.8 61.1 43.1 61.1 42.3 Z M 61.6 60.4 L 61.6 45.9 L 63.7 45.9 L 63.7 60.4 L 61.6 60.4 Z M 70.3 60.4 L 65.5 45.9 L 67.9 45.9 L 71.5 57.8 L 75.1 45.9 L 77.4 45.9 L 72.7 60.4 L 70.3 60.4 Z M 78.6 53.1 C 78.6 49 80.6 45.5 84.4 45.5 C 88.3 45.5 90.4 49 90.4 53.1 C 90.4 57.2 88.3 60.7 84.4 60.7 C 80.6 60.7 78.6 57.2 78.6 53.1 Z M 88.1 53.1 C 88.1 50.2 87 47.4 84.4 47.4 C 82 47.4 80.8 50.2 80.8 53.1 C 80.8 56.1 82 58.8 84.4 58.8 C 87 58.8 88.1 56.1 88.1 53.1 Z M 93.3 60.4 L 93.3 45.9 L 95.4 45.9 C 95.4 45.9 95.43 48.2 95.4 48.2 C 96.4 46.7 97.8 45.6 99.5 45.6 C 99.5 45.6 99.5 47.8 99.5 47.8 C 99.3 47.7 99.1 47.7 98.8 47.7 C 97.5 47.7 96 48.9 95.4 50.1 C 95.43 50.09 95.4 60.4 95.4 60.4 L 93.3 60.4 Z M 109.2 60.4 C 109.2 60.4 109.17 58.82 109.2 58.8 C 108.2 60.1 106.8 60.7 105.4 60.7 C 103 60.7 101 58.9 101 55.9 C 101 52.9 103 51.1 105.4 51.1 C 106.8 51.1 108.3 51.7 109.2 53 C 109.2 53 109.2 50.5 109.2 50.5 C 109.2 48.5 108.1 47.4 106.2 47.4 C 104.8 47.4 103.7 47.9 102.6 49.2 C 102.6 49.2 101.6 47.6 101.6 47.6 C 103 46.2 104.7 45.5 106.5 45.5 C 109.4 45.5 111.3 46.9 111.3 50.2 C 111.33 50.24 111.3 60.4 111.3 60.4 L 109.2 60.4 Z M 109.2 57.3 C 109.2 57.3 109.2 54.6 109.2 54.6 C 108.5 53.4 107.3 52.7 106 52.7 C 104.2 52.7 103.2 54.1 103.2 55.9 C 103.2 57.7 104.2 59.2 106 59.2 C 107.3 59.2 108.5 58.5 109.2 57.3 Z M 113.8 58.7 C 113.8 58.7 114.9 57.2 114.9 57.2 C 115.7 58.2 117.1 59 118.6 59 C 120.3 59 121.4 58 121.4 56.7 C 121.4 53.3 114.2 54.4 114.2 49.4 C 114.2 47.3 115.9 45.5 118.8 45.5 C 120.7 45.5 122.2 46.3 123.2 47.4 C 123.2 47.4 122.2 48.9 122.2 48.9 C 121.5 47.9 120.3 47.3 118.9 47.3 C 117.3 47.3 116.3 48.2 116.3 49.4 C 116.3 52.5 123.5 51.4 123.5 56.6 C 123.5 59 121.6 60.7 118.7 60.7 C 116.6 60.7 115 60.1 113.8 58.7 Z M 125.5 53.1 C 125.5 48.9 127.8 45.5 131.4 45.5 C 135.2 45.5 137.2 48.9 137.2 53.2 C 137.16 53.18 137.2 53.8 137.2 53.8 C 137.2 53.8 127.77 53.84 127.8 53.8 C 127.9 56.7 129.4 58.9 131.9 58.9 C 133.2 58.9 134.5 58.3 135.4 57.2 C 135.4 57.2 136.5 58.4 136.5 58.4 C 135.4 59.9 133.7 60.7 131.8 60.7 C 127.9 60.7 125.5 57.6 125.5 53.1 Z M 131.4 47.3 C 128.8 47.3 127.8 50.1 127.8 52.2 C 127.8 52.2 135 52.2 135 52.2 C 135 50 134 47.3 131.4 47.3 Z M 145.4 53.1 C 145.4 48.9 147.7 45.5 151.3 45.5 C 155.1 45.5 157 48.9 157 53.2 C 157.05 53.18 157 53.8 157 53.8 C 157 53.8 147.66 53.84 147.7 53.8 C 147.7 56.7 149.2 58.9 151.8 58.9 C 153.1 58.9 154.4 58.3 155.3 57.2 C 155.3 57.2 156.4 58.4 156.4 58.4 C 155.2 59.9 153.6 60.7 151.6 60.7 C 147.8 60.7 145.4 57.6 145.4 53.1 Z M 151.3 47.3 C 148.7 47.3 147.7 50.1 147.7 52.2 C 147.7 52.2 154.9 52.2 154.9 52.2 C 154.9 50 153.9 47.3 151.3 47.3 Z M 167.3 60.4 L 164 54.6 L 160.7 60.4 L 158.3 60.4 L 162.7 53 L 158.5 45.9 L 160.9 45.9 L 164 51.4 L 167.1 45.9 L 169.5 45.9 L 165.3 53 L 169.7 60.4 L 167.3 60.4 Z M 172.2 57.5 C 172.2 57.47 172.2 47.8 172.2 47.8 L 170.3 47.8 L 170.3 45.9 L 172.2 45.9 L 172.2 41.9 L 174.4 41.9 L 174.4 45.9 L 176.8 45.9 L 176.8 47.8 L 174.4 47.8 C 174.4 47.8 174.36 57.08 174.4 57.1 C 174.4 58.2 174.7 58.8 175.5 58.8 C 176.1 58.8 176.5 58.6 176.8 58.2 C 176.8 58.2 177.4 59.9 177.4 59.9 C 176.9 60.4 176.2 60.7 175.1 60.7 C 173.1 60.7 172.2 59.6 172.2 57.5 Z M 179.4 60.4 L 179.4 45.9 L 181.5 45.9 C 181.5 45.9 181.49 48.2 181.5 48.2 C 182.4 46.7 183.8 45.6 185.6 45.6 C 185.6 45.6 185.6 47.8 185.6 47.8 C 185.4 47.7 185.1 47.7 184.9 47.7 C 183.6 47.7 182.1 48.9 181.5 50.1 C 181.49 50.09 181.5 60.4 181.5 60.4 L 179.4 60.4 Z M 195.2 60.4 C 195.2 60.4 195.23 58.82 195.2 58.8 C 194.3 60.1 192.9 60.7 191.4 60.7 C 189.1 60.7 187 58.9 187 55.9 C 187 52.9 189.1 51.1 191.4 51.1 C 192.9 51.1 194.3 51.7 195.2 53 C 195.2 53 195.2 50.5 195.2 50.5 C 195.2 48.5 194.2 47.4 192.3 47.4 C 190.9 47.4 189.7 47.9 188.6 49.2 C 188.6 49.2 187.7 47.6 187.7 47.6 C 189.1 46.2 190.8 45.5 192.6 45.5 C 195.5 45.5 197.4 46.9 197.4 50.2 C 197.39 50.24 197.4 60.4 197.4 60.4 L 195.2 60.4 Z M 195.2 57.3 C 195.2 57.3 195.2 54.6 195.2 54.6 C 194.6 53.4 193.4 52.7 192.1 52.7 C 190.3 52.7 189.2 54.1 189.2 55.9 C 189.2 57.7 190.3 59.2 192.1 59.2 C 193.4 59.2 194.6 58.5 195.2 57.3 Z M 200.3 53.1 C 200.3 48.8 202.6 45.5 206.3 45.5 C 208.3 45.5 209.5 46.3 210.4 47.4 C 210.4 47.4 209.3 48.9 209.3 48.9 C 208.5 47.9 207.6 47.4 206.5 47.4 C 203.9 47.4 202.6 50 202.6 53.1 C 202.6 56.2 203.9 58.8 206.5 58.8 C 207.6 58.8 208.5 58.4 209.3 57.3 C 209.3 57.3 210.4 58.8 210.4 58.8 C 209.5 60 208.3 60.7 206.3 60.7 C 202.6 60.7 200.3 57.4 200.3 53.1 Z M 213.3 57.5 C 213.32 57.47 213.3 47.8 213.3 47.8 L 211.4 47.8 L 211.4 45.9 L 213.3 45.9 L 213.3 41.9 L 215.5 41.9 L 215.5 45.9 L 217.9 45.9 L 217.9 47.8 L 215.5 47.8 C 215.5 47.8 215.48 57.08 215.5 57.1 C 215.5 58.2 215.8 58.8 216.7 58.8 C 217.2 58.8 217.6 58.6 217.9 58.2 C 217.9 58.2 218.6 59.9 218.6 59.9 C 218.1 60.4 217.3 60.7 216.2 60.7 C 214.3 60.7 213.3 59.6 213.3 57.5 Z " stroke="none" fill="#d3d2d2"/>  </g>  <g id="Polygon221387">    <path d="M 1.6 24.4 C 1.6 24.4 1.59 22.43 1.6 22.4 C 8.1 14.9 10.4 12.5 10.4 9.5 C 10.4 7.4 8.9 6.2 7.2 6.2 C 5.3 6.2 3.9 7.1 2.9 8.7 C 2.9 8.7 1.4 7.3 1.4 7.3 C 2.7 5.2 4.7 4.1 7.2 4.1 C 10.3 4.1 12.8 6 12.8 9.5 C 12.8 12.9 10.3 15.9 5 22.2 C 4.98 22.25 12.9 22.2 12.9 22.2 L 12.9 24.4 L 1.6 24.4 Z M 17.2 28.2 C 17.2 28.2 16.1 27.3 16.1 27.3 C 17 26.6 17.9 25.5 18 24.5 C 17.9 24.5 17.7 24.5 17.6 24.5 C 16.8 24.5 16.2 23.9 16.2 23.1 C 16.2 22.2 16.9 21.5 17.8 21.5 C 18.7 21.5 19.6 22.3 19.6 23.7 C 19.6 25.5 18.5 27.2 17.2 28.2 Z M 29.5 24.4 L 29.5 19.2 L 21.6 19.2 L 21.6 17.2 L 28.8 4.4 L 31.9 4.4 L 31.9 17.1 L 34.1 17.1 L 34.1 19.2 L 31.9 19.2 L 31.9 24.4 L 29.5 24.4 Z M 29.5 6.9 L 23.8 17.1 L 29.5 17.1 L 29.5 6.9 Z M 35.4 18.1 L 35.4 16.2 L 41.6 16.2 L 41.6 18.1 L 35.4 18.1 Z M 52.4 24.4 C 52.4 24.4 52.44 22.31 52.4 22.3 C 51.6 23.8 50.2 24.7 48.6 24.7 C 45.4 24.7 43.4 21.7 43.4 17.1 C 43.4 12.6 45.4 9.5 48.6 9.5 C 50.1 9.5 51.6 10.4 52.4 12 C 52.44 11.99 52.4 4.4 52.4 4.4 L 54.6 4.4 L 54.6 24.4 L 52.4 24.4 Z M 52.4 20.5 C 52.4 20.5 52.4 13.8 52.4 13.8 C 51.9 12.6 50.5 11.4 49.2 11.4 C 46.8 11.4 45.7 14 45.7 17.1 C 45.7 20.3 46.8 22.8 49.2 22.8 C 50.5 22.8 51.9 21.7 52.4 20.5 Z M 57.8 6.3 C 57.8 5.5 58.5 4.8 59.3 4.8 C 60.1 4.8 60.8 5.5 60.8 6.3 C 60.8 7.1 60.1 7.8 59.3 7.8 C 58.5 7.8 57.8 7.1 57.8 6.3 Z M 58.3 24.4 L 58.3 9.9 L 60.4 9.9 L 60.4 24.4 L 58.3 24.4 Z M 69.4 22.8 C 71.8 22.8 72.9 20.3 72.9 17.1 C 72.9 14 71.8 11.4 69.4 11.4 C 68.1 11.4 66.7 12.6 66.2 13.8 C 66.2 13.8 66.2 20.5 66.2 20.5 C 66.7 21.7 68.1 22.8 69.4 22.8 Z M 64 24.4 L 64 4.4 L 66.2 4.4 C 66.2 4.4 66.18 11.99 66.2 12 C 67.1 10.4 68.5 9.5 70 9.5 C 73.3 9.5 75.2 12.6 75.2 17.1 C 75.2 21.7 73.3 24.7 70 24.7 C 68.5 24.7 67 23.8 66.2 22.3 C 66.18 22.31 66.2 24.4 66.2 24.4 L 64 24.4 Z M 78.1 24.4 L 78.1 9.9 L 80.3 9.9 C 80.3 9.9 80.28 12.2 80.3 12.2 C 81.2 10.7 82.6 9.6 84.4 9.6 C 84.4 9.6 84.4 11.8 84.4 11.8 C 84.1 11.7 83.9 11.7 83.7 11.7 C 82.3 11.7 80.9 12.9 80.3 14.1 C 80.28 14.09 80.3 24.4 80.3 24.4 L 78.1 24.4 Z M 85.9 17.1 C 85.9 13 87.9 9.5 91.7 9.5 C 95.6 9.5 97.6 13 97.6 17.1 C 97.6 21.2 95.6 24.7 91.7 24.7 C 87.9 24.7 85.9 21.2 85.9 17.1 Z M 95.4 17.1 C 95.4 14.2 94.3 11.4 91.7 11.4 C 89.2 11.4 88.1 14.2 88.1 17.1 C 88.1 20.1 89.2 22.8 91.7 22.8 C 94.3 22.8 95.4 20.1 95.4 17.1 Z M 115.2 24.4 C 115.2 24.4 115.23 13.88 115.2 13.9 C 115.2 12.3 114.6 11.4 113.2 11.4 C 111.9 11.4 110.6 12.6 110.1 13.8 C 110.07 13.76 110.1 24.4 110.1 24.4 L 107.9 24.4 C 107.9 24.4 107.91 13.88 107.9 13.9 C 107.9 12.3 107.3 11.4 105.9 11.4 C 104.6 11.4 103.3 12.6 102.7 13.8 C 102.72 13.76 102.7 24.4 102.7 24.4 L 100.6 24.4 L 100.6 9.9 L 102.7 9.9 C 102.7 9.9 102.72 11.96 102.7 12 C 103.3 10.9 104.9 9.5 106.7 9.5 C 108.5 9.5 109.7 10.6 109.9 12.1 C 110.7 10.8 112.3 9.5 114 9.5 C 116.2 9.5 117.4 10.7 117.4 13.3 C 117.39 13.31 117.4 24.4 117.4 24.4 L 115.2 24.4 Z M 120.3 17.1 C 120.3 13 122.4 9.5 126.2 9.5 C 130.1 9.5 132.1 13 132.1 17.1 C 132.1 21.2 130.1 24.7 126.2 24.7 C 122.4 24.7 120.3 21.2 120.3 17.1 Z M 129.9 17.1 C 129.9 14.2 128.8 11.4 126.2 11.4 C 123.7 11.4 122.6 14.2 122.6 17.1 C 122.6 20.1 123.7 22.8 126.2 22.8 C 128.8 22.8 129.9 20.1 129.9 17.1 Z M 137.2 22.3 C 137.19 22.28 137.2 29.9 137.2 29.9 L 135.1 29.9 L 135.1 9.9 L 137.2 9.9 C 137.2 9.9 137.19 11.96 137.2 12 C 138 10.5 139.5 9.5 141 9.5 C 144.3 9.5 146.2 12.6 146.2 17.1 C 146.2 21.6 144.3 24.7 141 24.7 C 139.5 24.7 138.1 23.9 137.2 22.3 Z M 143.9 17.1 C 143.9 14 142.8 11.4 140.5 11.4 C 139.1 11.4 137.8 12.5 137.2 13.8 C 137.2 13.8 137.2 20.4 137.2 20.4 C 137.8 21.7 139.1 22.8 140.5 22.8 C 142.8 22.8 143.9 20.3 143.9 17.1 Z M 157 24.4 C 157 24.4 156.96 14.03 157 14 C 157 12.1 156.1 11.4 154.6 11.4 C 153.2 11.4 151.9 12.6 151.2 13.8 C 151.23 13.76 151.2 24.4 151.2 24.4 L 149.1 24.4 L 149.1 4.4 L 151.2 4.4 C 151.2 4.4 151.23 11.96 151.2 12 C 152.1 10.7 153.7 9.5 155.5 9.5 C 157.9 9.5 159.1 10.8 159.1 13.4 C 159.09 13.4 159.1 24.4 159.1 24.4 L 157 24.4 Z M 162 17.1 C 162 12.9 164.2 9.5 167.9 9.5 C 171.7 9.5 173.6 12.9 173.6 17.2 C 173.64 17.18 173.6 17.8 173.6 17.8 C 173.6 17.8 164.25 17.84 164.2 17.8 C 164.3 20.7 165.8 22.9 168.4 22.9 C 169.7 22.9 171 22.3 171.9 21.2 C 171.9 21.2 173 22.4 173 22.4 C 171.8 23.9 170.2 24.7 168.2 24.7 C 164.4 24.7 162 21.6 162 17.1 Z M 167.9 11.3 C 165.3 11.3 164.3 14.1 164.2 16.2 C 164.2 16.2 171.5 16.2 171.5 16.2 C 171.5 14 170.5 11.3 167.9 11.3 Z M 184.3 24.4 C 184.3 24.4 184.32 14.06 184.3 14.1 C 184.3 12.1 183.4 11.4 182 11.4 C 180.6 11.4 179.3 12.6 178.6 13.8 C 178.62 13.76 178.6 24.4 178.6 24.4 L 176.5 24.4 L 176.5 9.9 L 178.6 9.9 C 178.6 9.9 178.62 11.96 178.6 12 C 179.5 10.7 181.1 9.5 182.8 9.5 C 185.3 9.5 186.5 10.8 186.5 13.5 C 186.48 13.46 186.5 24.4 186.5 24.4 L 184.3 24.4 Z M 189.4 17.1 C 189.4 13 191.5 9.5 195.3 9.5 C 199.2 9.5 201.2 13 201.2 17.1 C 201.2 21.2 199.2 24.7 195.3 24.7 C 191.5 24.7 189.4 21.2 189.4 17.1 Z M 199 17.1 C 199 14.2 197.8 11.4 195.3 11.4 C 192.8 11.4 191.7 14.2 191.7 17.1 C 191.7 20.1 192.8 22.8 195.3 22.8 C 197.8 22.8 199 20.1 199 17.1 Z M 204.1 24.4 L 204.1 4.4 L 206.3 4.4 L 206.3 24.4 L 204.1 24.4 Z " stroke="none" fill="#d3d2d2"/>  </g></svg>