<?xml version="1.0" standalone="no"?><!DOCTYPE svg PUBLIC "-//W3C//DTD SVG 1.1//EN" "http://www.w3.org/Graphics/SVG/1.1/DTD/svg11.dtd"><svg xmlns="http://www.w3.org/2000/svg" version="1.1" width="327px" height="43.1px" viewBox="0 0 327 43.1">  <desc>Discover this dish</desc>  <defs/>  <g id="Polygon114586">    <path d="M 62.7 23.7 L 62.7 3.7 C 62.7 3.7 69.16 3.69 69.2 3.7 C 74.7 3.7 77.9 7.8 77.9 13.7 C 77.9 19.6 74.7 23.7 69.2 23.7 C 69.16 23.7 62.7 23.7 62.7 23.7 Z M 73.8 13.7 C 73.8 9.7 72.2 7.2 69.2 7.2 C 69.16 7.23 66.7 7.2 66.7 7.2 L 66.7 20.2 C 66.7 20.2 69.16 20.16 69.2 20.2 C 72.1 20.2 73.8 17.5 73.8 13.7 Z M 80.1 5.4 C 80.1 4.2 81.1 3.2 82.3 3.2 C 83.5 3.2 84.4 4.2 84.4 5.4 C 84.4 6.6 83.5 7.6 82.3 7.6 C 81.1 7.6 80.1 6.6 80.1 5.4 Z M 80.5 23.7 L 80.5 9.2 L 84.1 9.2 L 84.1 23.7 L 80.5 23.7 Z M 86.2 22 C 86.2 22 87.7 19.5 87.7 19.5 C 88.6 20.4 90.3 21.2 91.7 21.2 C 93.1 21.2 93.9 20.6 93.9 19.7 C 93.9 17.3 86.7 18.6 86.7 13.2 C 86.7 10.9 88.6 8.9 92 8.9 C 94 8.9 95.7 9.6 97 10.7 C 97 10.7 95.6 13.1 95.6 13.1 C 94.8 12.3 93.5 11.6 92 11.6 C 90.9 11.6 90.1 12.2 90.1 13 C 90.1 15.2 97.3 14.1 97.3 19.6 C 97.3 22.2 95.2 24.1 91.8 24.1 C 89.4 24.1 87.4 23.3 86.2 22 Z M 98.9 16.4 C 98.9 12 101.6 8.9 105.6 8.9 C 107.8 8.9 109.3 9.8 110.2 10.8 C 110.2 10.8 108.4 13.3 108.4 13.3 C 107.7 12.5 106.9 12 105.9 12 C 103.9 12 102.6 13.9 102.6 16.4 C 102.6 19 103.9 20.9 105.9 20.9 C 106.9 20.9 107.7 20.4 108.4 19.6 C 108.4 19.6 110.2 22.1 110.2 22.1 C 109.3 23.1 107.8 24.1 105.6 24.1 C 101.6 24.1 98.9 20.9 98.9 16.4 Z M 111.6 16.4 C 111.6 12.4 113.8 8.9 118.1 8.9 C 122.4 8.9 124.7 12.4 124.7 16.4 C 124.7 20.5 122.4 24.1 118.1 24.1 C 113.8 24.1 111.6 20.5 111.6 16.4 Z M 120.9 16.4 C 120.9 14.1 120.1 12 118.1 12 C 116.2 12 115.3 14.1 115.3 16.4 C 115.3 18.8 116.2 20.9 118.1 20.9 C 120.1 20.9 120.9 18.8 120.9 16.4 Z M 130.3 23.7 L 125.5 9.2 L 129.3 9.2 L 132.2 19.4 L 135.2 9.2 L 139 9.2 L 134.2 23.7 L 130.3 23.7 Z M 139.8 16.4 C 139.8 12.2 142.3 8.9 146.3 8.9 C 150.3 8.9 152.5 12.1 152.5 16.6 C 152.53 16.59 152.5 17.6 152.5 17.6 C 152.5 17.6 143.44 17.61 143.4 17.6 C 143.6 19.6 144.8 21.2 147 21.2 C 148 21.2 149.3 20.6 150.1 19.7 C 150.1 19.7 151.8 21.9 151.8 21.9 C 150.5 23.3 148.5 24.1 146.6 24.1 C 142.5 24.1 139.8 21 139.8 16.4 Z M 146.2 11.8 C 144.2 11.8 143.5 13.7 143.4 15.2 C 143.4 15.2 149.1 15.2 149.1 15.2 C 149 13.7 148.3 11.8 146.2 11.8 Z M 154.9 23.7 L 154.9 9.2 L 158.5 9.2 C 158.5 9.2 158.53 11.19 158.5 11.2 C 159.3 9.9 160.9 8.9 162.5 8.9 C 162.5 8.9 162.5 12.4 162.5 12.4 C 162.2 12.3 161.9 12.3 161.6 12.3 C 160.5 12.3 159.1 13 158.5 14 C 158.53 14.04 158.5 23.7 158.5 23.7 L 154.9 23.7 Z M 171.5 20.2 C 171.46 20.22 171.5 12.4 171.5 12.4 L 169.6 12.4 L 169.6 9.2 L 171.5 9.2 L 171.5 5.3 L 175.1 5.3 L 175.1 9.2 L 177.5 9.2 L 177.5 12.4 L 175.1 12.4 C 175.1 12.4 175.06 19.38 175.1 19.4 C 175.1 20.3 175.4 20.9 176.1 20.9 C 176.6 20.9 177 20.7 177.2 20.5 C 177.2 20.5 177.9 23.2 177.9 23.2 C 177.4 23.7 176.5 24.1 175.1 24.1 C 172.6 24.1 171.5 22.8 171.5 20.2 Z M 187.9 23.7 C 187.9 23.7 187.93 14.1 187.9 14.1 C 187.9 12.6 187.2 12 186 12 C 184.8 12 183.9 13 183.4 13.8 C 183.4 13.83 183.4 23.7 183.4 23.7 L 179.8 23.7 L 179.8 3.7 L 183.4 3.7 C 183.4 3.7 183.4 11.1 183.4 11.1 C 184.1 10 185.8 8.9 187.6 8.9 C 190.3 8.9 191.5 10.3 191.5 12.7 C 191.53 12.75 191.5 23.7 191.5 23.7 L 187.9 23.7 Z M 194.4 5.4 C 194.4 4.2 195.4 3.2 196.6 3.2 C 197.8 3.2 198.7 4.2 198.7 5.4 C 198.7 6.6 197.8 7.6 196.6 7.6 C 195.4 7.6 194.4 6.6 194.4 5.4 Z M 194.8 23.7 L 194.8 9.2 L 198.4 9.2 L 198.4 23.7 L 194.8 23.7 Z M 200.5 22 C 200.5 22 202 19.5 202 19.5 C 202.9 20.4 204.5 21.2 206 21.2 C 207.4 21.2 208.2 20.6 208.2 19.7 C 208.2 17.3 201 18.6 201 13.2 C 201 10.9 202.9 8.9 206.3 8.9 C 208.3 8.9 210 9.6 211.3 10.7 C 211.3 10.7 209.9 13.1 209.9 13.1 C 209.1 12.3 207.8 11.6 206.3 11.6 C 205.2 11.6 204.4 12.2 204.4 13 C 204.4 15.2 211.6 14.1 211.6 19.6 C 211.6 22.2 209.5 24.1 206.1 24.1 C 203.7 24.1 201.7 23.3 200.5 22 Z M 228.6 23.7 C 228.6 23.7 228.55 21.87 228.6 21.9 C 227.7 23.3 226.3 24.1 224.9 24.1 C 221.6 24.1 219.5 21.2 219.5 16.5 C 219.5 11.8 221.6 8.9 224.9 8.9 C 226.3 8.9 227.7 9.5 228.6 11 C 228.55 11.04 228.6 3.7 228.6 3.7 L 232.1 3.7 L 232.1 23.7 L 228.6 23.7 Z M 228.6 19.2 C 228.6 19.2 228.6 13.7 228.6 13.7 C 228.1 12.8 227 12 226 12 C 224.2 12 223.2 13.9 223.2 16.5 C 223.2 19 224.2 20.9 226 20.9 C 227 20.9 228.1 20.1 228.6 19.2 Z M 235 5.4 C 235 4.2 236 3.2 237.2 3.2 C 238.4 3.2 239.3 4.2 239.3 5.4 C 239.3 6.6 238.4 7.6 237.2 7.6 C 236 7.6 235 6.6 235 5.4 Z M 235.4 23.7 L 235.4 9.2 L 239 9.2 L 239 23.7 L 235.4 23.7 Z M 241.1 22 C 241.1 22 242.7 19.5 242.7 19.5 C 243.5 20.4 245.2 21.2 246.6 21.2 C 248 21.2 248.8 20.6 248.8 19.7 C 248.8 17.3 241.6 18.6 241.6 13.2 C 241.6 10.9 243.5 8.9 246.9 8.9 C 249 8.9 250.7 9.6 251.9 10.7 C 251.9 10.7 250.5 13.1 250.5 13.1 C 249.8 12.3 248.4 11.6 246.9 11.6 C 245.8 11.6 245 12.2 245 13 C 245 15.2 252.2 14.1 252.2 19.6 C 252.2 22.2 250.1 24.1 246.7 24.1 C 244.4 24.1 242.4 23.3 241.1 22 Z M 262.8 23.7 C 262.8 23.7 262.75 14.1 262.8 14.1 C 262.8 12.6 262 12 260.8 12 C 259.7 12 258.7 13 258.2 13.8 C 258.22 13.83 258.2 23.7 258.2 23.7 L 254.6 23.7 L 254.6 3.7 L 258.2 3.7 C 258.2 3.7 258.22 11.1 258.2 11.1 C 259 10 260.6 8.9 262.5 8.9 C 265.1 8.9 266.3 10.3 266.3 12.7 C 266.35 12.75 266.3 23.7 266.3 23.7 L 262.8 23.7 Z " stroke="none" fill="#d3d2d2"/>  </g></svg>