<?xml version="1.0" standalone="no"?><!DOCTYPE svg PUBLIC "-//W3C//DTD SVG 1.1//EN" "http://www.w3.org/Graphics/SVG/1.1/DTD/svg11.dtd"><svg xmlns="http://www.w3.org/2000/svg" version="1.1" width="658px" height="197.6px" viewBox="0 0 658 197.6">  <desc>Browned Packing Foam with Leather Strips, Hair Wax Icing and Petroleum Jelly Filling</desc>  <defs/>  <g id="Polygon141450">    <path d="M 15.4 159.4 C 15.4 159.4 15.36 156.64 15.4 156.6 C 14.1 158.9 11.4 160.1 9.3 160.1 C 4.7 160.1 1.4 156.4 1.4 150.5 C 1.4 144.6 4.7 141 9.3 141 C 11.4 141 14.2 142.1 15.4 144.3 C 15.4 144.3 15.4 140.7 15.4 140.7 C 15.4 137.4 14 135.5 11 135.5 C 9.1 135.5 7 136.4 5.1 138.3 C 5.1 138.3 2.6 133.5 2.6 133.5 C 5.2 130.7 9.4 129.7 12.4 129.7 C 18.3 129.7 22.1 132.7 22.1 139.2 C 22.14 139.18 22.1 159.4 22.1 159.4 L 15.4 159.4 Z M 15.4 152.6 C 15.4 152.6 15.4 148.7 15.4 148.7 C 14.6 146.9 13.2 145.7 11.7 145.7 C 9.4 145.7 8.2 147.8 8.2 150.6 C 8.2 153.3 9.4 155.6 11.7 155.6 C 13.2 155.6 14.6 154.4 15.4 152.6 Z M 40.6 159.4 C 40.6 159.4 40.56 138.76 40.6 138.8 C 40.6 136.7 39.8 135.7 38.3 135.7 C 36.6 135.7 35.1 137.6 34.4 139.5 C 34.44 139.48 34.4 159.4 34.4 159.4 L 27.7 159.4 L 27.7 130.4 L 34.4 130.4 C 34.4 130.4 34.44 134.2 34.4 134.2 C 35.6 131.9 38.6 129.7 41.2 129.7 C 45.6 129.7 47.4 132.3 47.4 136.3 C 47.4 136.3 47.4 159.4 47.4 159.4 L 40.6 159.4 Z M 65.9 159.4 C 65.9 159.4 65.94 155.8 65.9 155.8 C 64.7 158.7 62.3 160.1 60.3 160.1 C 54.6 160.1 51.7 154.2 51.7 144.9 C 51.7 135.8 54.6 129.7 60.3 129.7 C 62.3 129.7 64.7 131 65.9 134 C 65.94 134.02 65.9 119.4 65.9 119.4 L 72.7 119.4 L 72.7 159.4 L 65.9 159.4 Z M 65.9 150.6 C 65.9 150.6 65.9 139.2 65.9 139.2 C 65.3 137.3 64 135.7 62.5 135.7 C 59.5 135.7 58.7 139.8 58.7 144.9 C 58.7 150 59.5 154.1 62.5 154.1 C 64 154.1 65.3 152.6 65.9 150.6 Z M 88.4 159.4 L 88.4 119.4 C 88.4 119.4 99.18 119.38 99.2 119.4 C 107 119.4 110.5 125.3 110.5 132 C 110.5 138.8 107 144.7 99.2 144.7 C 99.18 144.7 95.9 144.7 95.9 144.7 L 95.9 159.4 L 88.4 159.4 Z M 102.8 132 C 102.8 128.4 101.2 126 98.4 126 C 98.4 126.04 95.9 126 95.9 126 L 95.9 138 C 95.9 138 98.4 138.04 98.4 138 C 101.2 138 102.8 135.6 102.8 132 Z M 112.1 144.9 C 112.1 136.5 115.7 129.7 123 129.7 C 130.3 129.7 133.4 136.2 133.4 144.8 C 133.38 144.76 133.4 147.1 133.4 147.1 C 133.4 147.1 118.68 147.1 118.7 147.1 C 118.7 151.4 120.5 154.6 124.4 154.6 C 126 154.6 127.9 153.5 129.2 151.7 C 129.2 151.7 132.5 155.5 132.5 155.5 C 130.2 158.4 127 160.1 123.7 160.1 C 116.1 160.1 112.1 153.8 112.1 144.9 Z M 122.8 135.2 C 119.5 135.2 118.7 139.3 118.7 142.4 C 118.7 142.4 126.8 142.4 126.8 142.4 C 126.8 139.1 126.1 135.2 122.8 135.2 Z M 138.4 152.7 C 138.42 152.74 138.4 136.3 138.4 136.3 L 135.7 136.3 L 135.7 130.4 L 138.4 130.4 L 138.4 122.5 L 145.2 122.5 L 145.2 130.4 L 148.9 130.4 L 148.9 136.3 L 145.2 136.3 C 145.2 136.3 145.2 151.42 145.2 151.4 C 145.2 153.2 145.6 154.1 146.8 154.1 C 147.5 154.1 148.1 153.8 148.4 153.3 C 148.4 153.3 149.8 158.6 149.8 158.6 C 148.8 159.5 147.2 160.1 145.1 160.1 C 140.3 160.1 138.4 157.7 138.4 152.7 Z M 153 159.4 L 153 130.4 L 159.8 130.4 C 159.8 130.4 159.78 134.44 159.8 134.4 C 160.9 131.8 163.7 129.7 166.3 129.7 C 166.3 129.7 166.3 136.4 166.3 136.4 C 165.8 136.2 165.4 136.2 164.9 136.2 C 163 136.2 160.9 137.8 159.8 139.9 C 159.78 139.9 159.8 159.4 159.8 159.4 L 153 159.4 Z M 168.7 144.9 C 168.7 136.8 172 129.7 179.5 129.7 C 187.1 129.7 190.4 136.8 190.4 144.9 C 190.4 152.9 187.1 160.1 179.5 160.1 C 172 160.1 168.7 152.9 168.7 144.9 Z M 183.4 144.9 C 183.4 140 182.6 135.7 179.5 135.7 C 176.5 135.7 175.7 140 175.7 144.9 C 175.7 149.9 176.5 154.1 179.5 154.1 C 182.6 154.1 183.4 149.9 183.4 144.9 Z M 194.8 159.4 L 194.8 119.4 L 201.6 119.4 L 201.6 159.4 L 194.8 159.4 Z M 205.9 144.9 C 205.9 136.5 209.5 129.7 216.8 129.7 C 224.1 129.7 227.2 136.2 227.2 144.8 C 227.16 144.76 227.2 147.1 227.2 147.1 C 227.2 147.1 212.46 147.1 212.5 147.1 C 212.5 151.4 214.3 154.6 218.2 154.6 C 219.8 154.6 221.6 153.5 223 151.7 C 223 151.7 226.3 155.5 226.3 155.5 C 224 158.4 220.7 160.1 217.4 160.1 C 209.9 160.1 205.9 153.8 205.9 144.9 Z M 216.6 135.2 C 213.3 135.2 212.5 139.3 212.5 142.4 C 212.5 142.4 220.6 142.4 220.6 142.4 C 220.6 139.1 219.9 135.2 216.6 135.2 Z M 244.2 159.4 C 244.2 159.4 244.2 155.74 244.2 155.7 C 243.1 158.1 240.2 160.1 237.4 160.1 C 233 160.1 231.3 157.7 231.3 153.6 C 231.3 153.58 231.3 130.4 231.3 130.4 L 238.1 130.4 C 238.1 130.4 238.08 151.18 238.1 151.2 C 238.1 153.2 238.8 154.1 240.3 154.1 C 242 154.1 243.5 152.3 244.2 150.5 C 244.2 150.46 244.2 130.4 244.2 130.4 L 251 130.4 L 251 159.4 L 244.2 159.4 Z M 282.4 159.4 C 282.4 159.4 282.36 138.76 282.4 138.8 C 282.4 136.6 281.6 135.7 280.1 135.7 C 278.3 135.7 276.8 137.7 276.2 139.5 C 276.24 139.48 276.2 159.4 276.2 159.4 L 269.4 159.4 C 269.4 159.4 269.4 138.76 269.4 138.8 C 269.4 136.8 268.7 135.7 267.2 135.7 C 265.4 135.7 263.9 137.7 263.3 139.5 C 263.28 139.48 263.3 159.4 263.3 159.4 L 256.5 159.4 L 256.5 130.4 L 263.3 130.4 C 263.3 130.4 263.28 134.2 263.3 134.2 C 264.3 132 267.3 129.7 270.1 129.7 C 273.1 129.7 275.5 131.2 276 134.5 C 277.1 132.1 280.1 129.7 283 129.7 C 286.6 129.7 289.1 131.6 289.1 136.3 C 289.14 136.3 289.1 159.4 289.1 159.4 L 282.4 159.4 Z M 302.2 158 C 302.2 158 304.2 151.8 304.2 151.8 C 305.2 152.9 306.5 153.4 307.9 153.4 C 310.3 153.4 312 152.1 312 149 C 312 149.02 312 119.4 312 119.4 L 319.6 119.4 C 319.6 119.4 319.56 149.38 319.6 149.4 C 319.6 156.9 315.1 160.1 308.7 160.1 C 306.4 160.1 304.1 159.6 302.2 158 Z M 324.2 144.9 C 324.2 136.5 327.8 129.7 335 129.7 C 342.4 129.7 345.4 136.2 345.4 144.8 C 345.41 144.76 345.4 147.1 345.4 147.1 C 345.4 147.1 330.71 147.1 330.7 147.1 C 330.8 151.4 332.6 154.6 336.4 154.6 C 338 154.6 339.9 153.5 341.2 151.7 C 341.2 151.7 344.5 155.5 344.5 155.5 C 342.2 158.4 339 160.1 335.7 160.1 C 328.1 160.1 324.2 153.8 324.2 144.9 Z M 334.9 135.2 C 331.6 135.2 330.7 139.3 330.7 142.4 C 330.7 142.4 338.9 142.4 338.9 142.4 C 338.9 139.1 338.2 135.2 334.9 135.2 Z M 349.6 159.4 L 349.6 119.4 L 356.3 119.4 L 356.3 159.4 L 349.6 159.4 Z M 361.8 159.4 L 361.8 119.4 L 368.6 119.4 L 368.6 159.4 L 361.8 159.4 Z M 374.6 164.9 C 375.1 165 375.7 165.2 376 165.2 C 377.3 165.2 378 164.6 378.4 163.1 C 378.41 163.12 379.3 160.1 379.3 160.1 L 371.4 130.4 L 378.6 130.4 L 382.7 150.8 L 386.9 130.4 L 394 130.4 C 394 130.4 384.89 164.5 384.9 164.5 C 383.5 169.8 381.1 171.2 376.9 171.2 C 376 171.2 374.3 171 373.7 170.7 C 373.7 170.7 374.6 164.9 374.6 164.9 Z M 407 159.4 L 407 119.4 L 424.5 119.4 L 424.5 126 L 414.5 126 L 414.5 135.7 L 424.1 135.7 L 424.1 142.4 L 414.5 142.4 L 414.5 159.4 L 407 159.4 Z M 428.4 122.9 C 428.4 120.6 430.3 118.8 432.5 118.8 C 434.8 118.8 436.7 120.6 436.7 122.9 C 436.7 125.2 434.8 127 432.5 127 C 430.3 127 428.4 125.2 428.4 122.9 Z M 429.2 159.4 L 429.2 130.4 L 436 130.4 L 436 159.4 L 429.2 159.4 Z M 441.4 159.4 L 441.4 119.4 L 448.2 119.4 L 448.2 159.4 L 441.4 159.4 Z M 453.7 159.4 L 453.7 119.4 L 460.4 119.4 L 460.4 159.4 L 453.7 159.4 Z M 465.1 122.9 C 465.1 120.6 467 118.8 469.3 118.8 C 471.5 118.8 473.4 120.6 473.4 122.9 C 473.4 125.2 471.5 127 469.3 127 C 467 127 465.1 125.2 465.1 122.9 Z M 465.9 159.4 L 465.9 130.4 L 472.7 130.4 L 472.7 159.4 L 465.9 159.4 Z M 491 159.4 C 491 159.4 491.03 138.76 491 138.8 C 491 136.7 490.3 135.7 488.8 135.7 C 487.1 135.7 485.6 137.6 484.9 139.5 C 484.91 139.48 484.9 159.4 484.9 159.4 L 478.1 159.4 L 478.1 130.4 L 484.9 130.4 C 484.9 130.4 484.91 134.2 484.9 134.2 C 486.1 131.9 489.1 129.7 491.7 129.7 C 496.1 129.7 497.9 132.3 497.9 136.3 C 497.87 136.3 497.9 159.4 497.9 159.4 L 491 159.4 Z M 503.3 168 C 503.3 168 505.6 162.5 505.6 162.5 C 507.2 164.2 509.3 165.3 511.5 165.3 C 514.4 165.3 516.4 163.4 516.4 158.9 C 516.4 158.9 516.4 154.7 516.4 154.7 C 515.2 157.7 512.8 159.2 510.8 159.2 C 505.1 159.2 502.2 153.8 502.2 144.5 C 502.2 135.3 505.1 129.7 510.8 129.7 C 512.8 129.7 515.2 131 516.4 134 C 516.41 134.02 516.4 130.4 516.4 130.4 L 523.2 130.4 C 523.2 130.4 523.19 158.44 523.2 158.4 C 523.2 168.4 517.9 171.2 512.2 171.2 C 508.6 171.2 505.7 170.3 503.3 168 Z M 516.4 149.7 C 516.4 149.7 516.4 139.2 516.4 139.2 C 515.8 137.3 514.4 135.7 513 135.7 C 510 135.7 509.2 139.4 509.2 144.5 C 509.2 149.6 510 153.2 513 153.2 C 514.4 153.2 515.8 151.6 516.4 149.7 Z " stroke="none" fill="#e9e8e8"/>  </g>  <g id="Polygon141449">    <path d="M 3.1 103.4 L 3.1 63.4 L 10.7 63.4 L 10.7 96.7 L 20.6 96.7 L 20.6 103.4 L 3.1 103.4 Z M 23 88.9 C 23 80.5 26.6 73.7 33.8 73.7 C 41.2 73.7 44.2 80.2 44.2 88.8 C 44.22 88.76 44.2 91.1 44.2 91.1 C 44.2 91.1 29.52 91.1 29.5 91.1 C 29.6 95.4 31.4 98.6 35.2 98.6 C 36.8 98.6 38.7 97.5 40 95.7 C 40 95.7 43.3 99.5 43.3 99.5 C 41 102.4 37.8 104.1 34.5 104.1 C 26.9 104.1 23 97.8 23 88.9 Z M 33.7 79.2 C 30.4 79.2 29.5 83.3 29.5 86.4 C 29.5 86.4 37.7 86.4 37.7 86.4 C 37.7 83.1 37 79.2 33.7 79.2 Z M 61 103.4 C 61 103.4 60.96 100.64 61 100.6 C 59.7 102.9 57 104.1 54.9 104.1 C 50.3 104.1 47 100.4 47 94.5 C 47 88.6 50.3 85 54.9 85 C 57 85 59.8 86.1 61 88.3 C 61 88.3 61 84.7 61 84.7 C 61 81.4 59.6 79.5 56.6 79.5 C 54.7 79.5 52.6 80.4 50.7 82.3 C 50.7 82.3 48.2 77.5 48.2 77.5 C 50.8 74.7 55 73.7 58 73.7 C 63.9 73.7 67.7 76.7 67.7 83.2 C 67.74 83.18 67.7 103.4 67.7 103.4 L 61 103.4 Z M 61 96.6 C 61 96.6 61 92.7 61 92.7 C 60.2 90.9 58.8 89.7 57.3 89.7 C 55 89.7 53.8 91.8 53.8 94.6 C 53.8 97.3 55 99.6 57.3 99.6 C 58.8 99.6 60.2 98.4 61 96.6 Z M 74.2 96.7 C 74.16 96.74 74.2 80.3 74.2 80.3 L 71.5 80.3 L 71.5 74.4 L 74.2 74.4 L 74.2 66.5 L 80.9 66.5 L 80.9 74.4 L 84.6 74.4 L 84.6 80.3 L 80.9 80.3 C 80.9 80.3 80.94 95.42 80.9 95.4 C 80.9 97.2 81.4 98.1 82.6 98.1 C 83.2 98.1 83.8 97.8 84.2 97.3 C 84.2 97.3 85.6 102.6 85.6 102.6 C 84.5 103.5 82.9 104.1 80.8 104.1 C 76.1 104.1 74.2 101.7 74.2 96.7 Z M 101.6 103.4 C 101.6 103.4 101.64 82.64 101.6 82.6 C 101.6 80.7 100.9 79.7 99.4 79.7 C 97.7 79.7 96.2 81.6 95.5 83.5 C 95.52 83.48 95.5 103.4 95.5 103.4 L 88.7 103.4 L 88.7 63.4 L 95.5 63.4 C 95.5 63.4 95.52 78.2 95.5 78.2 C 96.7 75.9 99.7 73.7 102.3 73.7 C 106.7 73.7 108.5 76.1 108.5 80.2 C 108.48 80.24 108.5 103.4 108.5 103.4 L 101.6 103.4 Z M 112.8 88.9 C 112.8 80.5 116.4 73.7 123.7 73.7 C 131 73.7 134 80.2 134 88.8 C 134.04 88.76 134 91.1 134 91.1 C 134 91.1 119.34 91.1 119.3 91.1 C 119.4 95.4 121.2 98.6 125 98.6 C 126.7 98.6 128.5 97.5 129.8 95.7 C 129.8 95.7 133.1 99.5 133.1 99.5 C 130.9 102.4 127.6 104.1 124.3 104.1 C 116.8 104.1 112.8 97.8 112.8 88.9 Z M 123.5 79.2 C 120.2 79.2 119.3 83.3 119.3 86.4 C 119.3 86.4 127.5 86.4 127.5 86.4 C 127.5 83.1 126.8 79.2 123.5 79.2 Z M 138.2 103.4 L 138.2 74.4 L 145 74.4 C 145 74.4 144.96 78.44 145 78.4 C 146.1 75.8 148.9 73.7 151.4 73.7 C 151.4 73.7 151.4 80.4 151.4 80.4 C 151 80.2 150.5 80.2 150.1 80.2 C 148.1 80.2 146.1 81.8 145 83.9 C 144.96 83.9 145 103.4 145 103.4 L 138.2 103.4 Z M 162.7 100.2 C 162.7 100.2 166 94.2 166 94.2 C 167.6 96.3 170.2 97.4 172.6 97.4 C 175 97.4 176.6 95.6 176.6 93 C 176.6 85.9 163.9 85.9 163.9 73.9 C 163.9 67.9 167.9 62.7 175 62.7 C 178.4 62.7 181.5 63.9 183.7 66 C 183.7 66 180.8 71.8 180.8 71.8 C 179.2 70.2 177.4 69.4 175.3 69.4 C 173.1 69.4 171.5 71.1 171.5 73.5 C 171.5 79.7 184.3 80.5 184.3 92.5 C 184.3 99.3 179.9 104.1 173 104.1 C 168.7 104.1 165.3 102.7 162.7 100.2 Z M 188.8 96.7 C 188.82 96.74 188.8 80.3 188.8 80.3 L 186.1 80.3 L 186.1 74.4 L 188.8 74.4 L 188.8 66.5 L 195.6 66.5 L 195.6 74.4 L 199.3 74.4 L 199.3 80.3 L 195.6 80.3 C 195.6 80.3 195.6 95.42 195.6 95.4 C 195.6 97.2 196 98.1 197.2 98.1 C 197.9 98.1 198.5 97.8 198.8 97.3 C 198.8 97.3 200.2 102.6 200.2 102.6 C 199.2 103.5 197.6 104.1 195.5 104.1 C 190.7 104.1 188.8 101.7 188.8 96.7 Z M 203.4 103.4 L 203.4 74.4 L 210.2 74.4 C 210.2 74.4 210.18 78.44 210.2 78.4 C 211.3 75.8 214.1 73.7 216.7 73.7 C 216.7 73.7 216.7 80.4 216.7 80.4 C 216.2 80.2 215.8 80.2 215.3 80.2 C 213.4 80.2 211.3 81.8 210.2 83.9 C 210.18 83.9 210.2 103.4 210.2 103.4 L 203.4 103.4 Z M 219.4 66.9 C 219.4 64.6 221.3 62.8 223.6 62.8 C 225.8 62.8 227.7 64.6 227.7 66.9 C 227.7 69.2 225.8 71 223.6 71 C 221.3 71 219.4 69.2 219.4 66.9 Z M 220.2 103.4 L 220.2 74.4 L 227 74.4 L 227 103.4 L 220.2 103.4 Z M 239.2 99.8 C 239.22 99.8 239.2 114.4 239.2 114.4 L 232.4 114.4 L 232.4 74.4 L 239.2 74.4 C 239.2 74.4 239.22 78.02 239.2 78 C 240.5 75.1 242.8 73.7 244.9 73.7 C 250.6 73.7 253.4 79.6 253.4 88.9 C 253.4 98 250.6 104.1 244.9 104.1 C 242.8 104.1 240.4 102.8 239.2 99.8 Z M 246.5 88.9 C 246.5 83.8 245.6 79.7 242.6 79.7 C 241.2 79.7 239.8 81.1 239.2 83.1 C 239.2 83.1 239.2 94.6 239.2 94.6 C 239.8 96.6 241.2 98.1 242.6 98.1 C 245.6 98.1 246.5 94 246.5 88.9 Z M 255.8 100.3 C 255.8 100.3 258.6 95.7 258.6 95.7 C 260.2 97.4 262.3 98.8 264.6 98.8 C 266.8 98.8 268.3 97.6 268.3 95.7 C 268.3 90.9 256.8 92 256.8 81.9 C 256.8 77.5 260.1 73.7 266 73.7 C 269.3 73.7 272.4 75 274.6 77.1 C 274.6 77.1 271.8 81.7 271.8 81.7 C 270.7 80.3 268.6 79 266.2 79 C 264.4 79 263.1 80.2 263.1 81.7 C 263.1 86.1 274.7 85.3 274.7 95.5 C 274.7 100.6 270.7 104.1 265.2 104.1 C 260.9 104.1 257.7 102.6 255.8 100.3 Z M 282.2 111.4 C 282.2 111.4 279.2 109 279.2 109 C 281.1 107.9 283.2 105.4 283.6 103.3 C 283.5 103.4 283 103.5 282.6 103.5 C 280.5 103.5 278.8 101.8 278.8 99.6 C 278.8 97.2 280.7 95.2 283.1 95.2 C 285.7 95.2 288 97.3 288 100.9 C 288 105.2 285.7 109 282.2 111.4 Z M 318.8 103.4 L 318.8 86.1 L 311.2 86.1 L 311.2 103.4 L 303.6 103.4 L 303.6 63.4 L 311.2 63.4 L 311.2 79.5 L 318.8 79.5 L 318.8 63.4 L 326.4 63.4 L 326.4 103.4 L 318.8 103.4 Z M 344.9 103.4 C 344.9 103.4 344.87 100.64 344.9 100.6 C 343.6 102.9 340.9 104.1 338.8 104.1 C 334.3 104.1 331 100.4 331 94.5 C 331 88.6 334.3 85 338.8 85 C 340.9 85 343.7 86.1 344.9 88.3 C 344.9 88.3 344.9 84.7 344.9 84.7 C 344.9 81.4 343.6 79.5 340.5 79.5 C 338.6 79.5 336.5 80.4 334.6 82.3 C 334.6 82.3 332.1 77.5 332.1 77.5 C 334.7 74.7 338.9 73.7 341.9 73.7 C 347.8 73.7 351.7 76.7 351.7 83.2 C 351.65 83.18 351.7 103.4 351.7 103.4 L 344.9 103.4 Z M 344.9 96.6 C 344.9 96.6 344.9 92.7 344.9 92.7 C 344.2 90.9 342.7 89.7 341.2 89.7 C 338.9 89.7 337.7 91.8 337.7 94.6 C 337.7 97.3 338.9 99.6 341.2 99.6 C 342.7 99.6 344.2 98.4 344.9 96.6 Z M 356.4 66.9 C 356.4 64.6 358.3 62.8 360.5 62.8 C 362.8 62.8 364.7 64.6 364.7 66.9 C 364.7 69.2 362.8 71 360.5 71 C 358.3 71 356.4 69.2 356.4 66.9 Z M 357.2 103.4 L 357.2 74.4 L 364 74.4 L 364 103.4 L 357.2 103.4 Z M 369.4 103.4 L 369.4 74.4 L 376.2 74.4 C 376.2 74.4 376.19 78.44 376.2 78.4 C 377.3 75.8 380.2 73.7 382.7 73.7 C 382.7 73.7 382.7 80.4 382.7 80.4 C 382.3 80.2 381.8 80.2 381.4 80.2 C 379.4 80.2 377.3 81.8 376.2 83.9 C 376.19 83.9 376.2 103.4 376.2 103.4 L 369.4 103.4 Z M 415 103.4 L 411.7 77.6 L 408.4 103.4 L 400.7 103.4 L 393.9 63.4 L 401.6 63.4 L 404.9 90.2 L 408.7 63.4 L 414.7 63.4 L 418.6 90.2 L 421.9 63.4 L 429.5 63.4 L 422.7 103.4 L 415 103.4 Z M 444.2 103.4 C 444.2 103.4 444.23 100.64 444.2 100.6 C 443 102.9 440.3 104.1 438.2 104.1 C 433.6 104.1 430.3 100.4 430.3 94.5 C 430.3 88.6 433.6 85 438.2 85 C 440.3 85 443 86.1 444.2 88.3 C 444.2 88.3 444.2 84.7 444.2 84.7 C 444.2 81.4 442.9 79.5 439.9 79.5 C 437.9 79.5 435.9 80.4 434 82.3 C 434 82.3 431.5 77.5 431.5 77.5 C 434.1 74.7 438.2 73.7 441.2 73.7 C 447.2 73.7 451 76.7 451 83.2 C 451.01 83.18 451 103.4 451 103.4 L 444.2 103.4 Z M 444.2 96.6 C 444.2 96.6 444.2 92.7 444.2 92.7 C 443.5 90.9 442.1 89.7 440.6 89.7 C 438.2 89.7 437.1 91.8 437.1 94.6 C 437.1 97.3 438.2 99.6 440.6 99.6 C 442.1 99.6 443.5 98.4 444.2 96.6 Z M 468.7 103.4 L 464.9 93.8 L 461.2 103.4 L 454 103.4 L 460.7 88.8 L 454.3 74.4 L 461.5 74.4 L 464.9 83.8 L 468.4 74.4 L 475.6 74.4 L 469.1 88.8 L 475.9 103.4 L 468.7 103.4 Z M 489 103.4 L 489 63.4 L 496.6 63.4 L 496.6 103.4 L 489 103.4 Z M 501.3 88.9 C 501.3 80.1 505.4 73.7 512.3 73.7 C 515.6 73.7 518 74.9 519.4 76.3 C 519.4 76.3 517.2 81.6 517.2 81.6 C 516 80.3 514.9 79.7 513.5 79.7 C 510 79.7 508.3 83.8 508.3 88.9 C 508.3 93.9 510 98.1 513.5 98.1 C 514.9 98.1 516 97.5 517.2 96.3 C 517.2 96.3 519.4 101.5 519.4 101.5 C 518 103 515.6 104.1 512.3 104.1 C 505.4 104.1 501.3 97.7 501.3 88.9 Z M 522.3 66.9 C 522.3 64.6 524.2 62.8 526.4 62.8 C 528.7 62.8 530.6 64.6 530.6 66.9 C 530.6 69.2 528.7 71 526.4 71 C 524.2 71 522.3 69.2 522.3 66.9 Z M 523.1 103.4 L 523.1 74.4 L 529.9 74.4 L 529.9 103.4 L 523.1 103.4 Z M 548.2 103.4 C 548.2 103.4 548.21 82.76 548.2 82.8 C 548.2 80.7 547.5 79.7 546 79.7 C 544.3 79.7 542.8 81.6 542.1 83.5 C 542.09 83.48 542.1 103.4 542.1 103.4 L 535.3 103.4 L 535.3 74.4 L 542.1 74.4 C 542.1 74.4 542.09 78.2 542.1 78.2 C 543.2 75.9 546.2 73.7 548.9 73.7 C 553.3 73.7 555.1 76.3 555.1 80.3 C 555.05 80.3 555.1 103.4 555.1 103.4 L 548.2 103.4 Z M 560.5 112 C 560.5 112 562.7 106.5 562.7 106.5 C 564.4 108.2 566.5 109.3 568.7 109.3 C 571.6 109.3 573.6 107.4 573.6 102.9 C 573.6 102.9 573.6 98.7 573.6 98.7 C 572.3 101.7 570 103.2 568 103.2 C 562.3 103.2 559.4 97.8 559.4 88.5 C 559.4 79.3 562.3 73.7 568 73.7 C 570 73.7 572.4 75 573.6 78 C 573.59 78.02 573.6 74.4 573.6 74.4 L 580.4 74.4 C 580.4 74.4 580.37 102.44 580.4 102.4 C 580.4 112.4 575 115.2 569.4 115.2 C 565.8 115.2 562.9 114.3 560.5 112 Z M 573.6 93.7 C 573.6 93.7 573.6 83.2 573.6 83.2 C 573 81.3 571.6 79.7 570.2 79.7 C 567.2 79.7 566.3 83.4 566.3 88.5 C 566.3 93.6 567.2 97.2 570.2 97.2 C 571.6 97.2 573 95.6 573.6 93.7 Z " stroke="none" fill="#e9e8e8"/>  </g>  <g id="Polygon141448">    <path d="M 3.1 47.4 L 3.1 7.4 C 3.1 7.4 15.18 7.38 15.2 7.4 C 21.8 7.4 24.8 12.1 24.8 17.6 C 24.8 22.6 22.4 25.7 18.9 26.8 C 22.7 27.4 25.3 31.7 25.3 36.6 C 25.3 42.7 22.5 47.4 15.6 47.4 C 15.6 47.4 3.1 47.4 3.1 47.4 Z M 17 18.9 C 17 16 16 14 13.2 14 C 13.2 14.04 10.7 14 10.7 14 L 10.7 23.7 C 10.7 23.7 13.2 23.7 13.2 23.7 C 16 23.7 17 21.8 17 18.9 Z M 17.6 35.5 C 17.6 32.6 16.3 30.4 13.4 30.4 C 13.44 30.36 10.7 30.4 10.7 30.4 L 10.7 40.7 C 10.7 40.7 13.44 40.74 13.4 40.7 C 16.3 40.7 17.6 38.9 17.6 35.5 Z M 29.9 47.4 L 29.9 18.4 L 36.7 18.4 C 36.7 18.4 36.66 22.44 36.7 22.4 C 37.8 19.8 40.6 17.7 43.1 17.7 C 43.1 17.7 43.1 24.4 43.1 24.4 C 42.7 24.2 42.2 24.2 41.8 24.2 C 39.8 24.2 37.8 25.8 36.7 27.9 C 36.66 27.9 36.7 47.4 36.7 47.4 L 29.9 47.4 Z M 45.5 32.9 C 45.5 24.8 48.8 17.7 56.4 17.7 C 64 17.7 67.3 24.8 67.3 32.9 C 67.3 40.9 64 48.1 56.4 48.1 C 48.8 48.1 45.5 40.9 45.5 32.9 Z M 60.3 32.9 C 60.3 28 59.5 23.7 56.4 23.7 C 53.4 23.7 52.6 28 52.6 32.9 C 52.6 37.9 53.4 42.1 56.4 42.1 C 59.5 42.1 60.3 37.9 60.3 32.9 Z M 91.3 47.4 L 87.2 27.7 L 83 47.4 L 75.9 47.4 L 69.2 18.4 L 76.3 18.4 L 79.9 38.2 L 83.7 18.4 L 90.2 18.4 L 94.3 38.2 L 98 18.4 L 105.1 18.4 L 98.4 47.4 L 91.3 47.4 Z M 121.1 47.4 C 121.1 47.4 121.08 26.76 121.1 26.8 C 121.1 24.7 120.4 23.7 118.9 23.7 C 117.1 23.7 115.6 25.6 115 27.5 C 114.96 27.48 115 47.4 115 47.4 L 108.2 47.4 L 108.2 18.4 L 115 18.4 C 115 18.4 114.96 22.2 115 22.2 C 116.1 19.9 119.1 17.7 121.7 17.7 C 126.1 17.7 127.9 20.3 127.9 24.3 C 127.92 24.3 127.9 47.4 127.9 47.4 L 121.1 47.4 Z M 132.2 32.9 C 132.2 24.5 135.8 17.7 143.1 17.7 C 150.4 17.7 153.5 24.2 153.5 32.8 C 153.48 32.76 153.5 35.1 153.5 35.1 C 153.5 35.1 138.78 35.1 138.8 35.1 C 138.8 39.4 140.6 42.6 144.5 42.6 C 146.1 42.6 148 41.5 149.3 39.7 C 149.3 39.7 152.6 43.5 152.6 43.5 C 150.3 46.4 147.1 48.1 143.8 48.1 C 136.2 48.1 132.2 41.8 132.2 32.9 Z M 142.9 23.2 C 139.6 23.2 138.8 27.3 138.8 30.4 C 138.8 30.4 146.9 30.4 146.9 30.4 C 146.9 27.1 146.2 23.2 142.9 23.2 Z M 170.7 47.4 C 170.7 47.4 170.7 43.8 170.7 43.8 C 169.4 46.7 167.1 48.1 165.1 48.1 C 159.4 48.1 156.5 42.2 156.5 32.9 C 156.5 23.8 159.4 17.7 165.1 17.7 C 167.1 17.7 169.5 19 170.7 22 C 170.7 22.02 170.7 7.4 170.7 7.4 L 177.5 7.4 L 177.5 47.4 L 170.7 47.4 Z M 170.7 38.6 C 170.7 38.6 170.7 27.2 170.7 27.2 C 170.1 25.3 168.7 23.7 167.3 23.7 C 164.3 23.7 163.4 27.8 163.4 32.9 C 163.4 38 164.3 42.1 167.3 42.1 C 168.7 42.1 170.1 40.6 170.7 38.6 Z M 193.1 47.4 L 193.1 7.4 C 193.1 7.4 203.94 7.38 203.9 7.4 C 211.7 7.4 215.2 13.3 215.2 20 C 215.2 26.8 211.7 32.7 203.9 32.7 C 203.94 32.7 200.7 32.7 200.7 32.7 L 200.7 47.4 L 193.1 47.4 Z M 207.5 20 C 207.5 16.4 206 14 203.2 14 C 203.16 14.04 200.7 14 200.7 14 L 200.7 26 C 200.7 26 203.16 26.04 203.2 26 C 206 26 207.5 23.6 207.5 20 Z M 230.9 47.4 C 230.9 47.4 230.94 44.64 230.9 44.6 C 229.7 46.9 227 48.1 224.9 48.1 C 220.3 48.1 217 44.4 217 38.5 C 217 32.6 220.3 29 224.9 29 C 227 29 229.7 30.1 230.9 32.3 C 230.9 32.3 230.9 28.7 230.9 28.7 C 230.9 25.4 229.6 23.5 226.6 23.5 C 224.6 23.5 222.6 24.4 220.7 26.3 C 220.7 26.3 218.2 21.5 218.2 21.5 C 220.8 18.7 224.9 17.7 227.9 17.7 C 233.9 17.7 237.7 20.7 237.7 27.2 C 237.72 27.18 237.7 47.4 237.7 47.4 L 230.9 47.4 Z M 230.9 40.6 C 230.9 40.6 230.9 36.7 230.9 36.7 C 230.2 34.9 228.8 33.7 227.3 33.7 C 224.9 33.7 223.8 35.8 223.8 38.6 C 223.8 41.3 224.9 43.6 227.3 43.6 C 228.8 43.6 230.2 42.4 230.9 40.6 Z M 242.1 32.9 C 242.1 24.1 246.2 17.7 253.1 17.7 C 256.4 17.7 258.8 18.9 260.2 20.3 C 260.2 20.3 258 25.6 258 25.6 C 256.8 24.3 255.7 23.7 254.3 23.7 C 250.8 23.7 249.1 27.8 249.1 32.9 C 249.1 37.9 250.8 42.1 254.3 42.1 C 255.7 42.1 256.8 41.5 258 40.3 C 258 40.3 260.2 45.5 260.2 45.5 C 258.8 47 256.4 48.1 253.1 48.1 C 246.2 48.1 242.1 41.7 242.1 32.9 Z M 277.6 47.4 L 273.3 35.8 L 270.7 40.6 L 270.7 47.4 L 263.9 47.4 L 263.9 7.4 L 270.7 7.4 L 270.7 31.8 L 277.3 18.4 L 284.7 18.4 L 277.8 31.3 L 285 47.4 L 277.6 47.4 Z M 287.3 10.9 C 287.3 8.6 289.2 6.8 291.4 6.8 C 293.7 6.8 295.6 8.6 295.6 10.9 C 295.6 13.2 293.7 15 291.4 15 C 289.2 15 287.3 13.2 287.3 10.9 Z M 288.1 47.4 L 288.1 18.4 L 294.8 18.4 L 294.8 47.4 L 288.1 47.4 Z M 313.2 47.4 C 313.2 47.4 313.2 26.76 313.2 26.8 C 313.2 24.7 312.5 23.7 311 23.7 C 309.2 23.7 307.7 25.6 307.1 27.5 C 307.08 27.48 307.1 47.4 307.1 47.4 L 300.3 47.4 L 300.3 18.4 L 307.1 18.4 C 307.1 18.4 307.08 22.2 307.1 22.2 C 308.2 19.9 311.2 17.7 313.9 17.7 C 318.2 17.7 320 20.3 320 24.3 C 320.04 24.3 320 47.4 320 47.4 L 313.2 47.4 Z M 325.4 56 C 325.4 56 327.7 50.5 327.7 50.5 C 329.4 52.2 331.4 53.3 333.7 53.3 C 336.5 53.3 338.6 51.4 338.6 46.9 C 338.6 46.9 338.6 42.7 338.6 42.7 C 337.3 45.7 335 47.2 332.9 47.2 C 327.2 47.2 324.4 41.8 324.4 32.5 C 324.4 23.3 327.2 17.7 332.9 17.7 C 335 17.7 337.4 19 338.6 22 C 338.58 22.02 338.6 18.4 338.6 18.4 L 345.4 18.4 C 345.4 18.4 345.36 46.44 345.4 46.4 C 345.4 56.4 340 59.2 334.4 59.2 C 330.8 59.2 327.8 58.3 325.4 56 Z M 338.6 37.7 C 338.6 37.7 338.6 27.2 338.6 27.2 C 338 25.3 336.6 23.7 335.2 23.7 C 332.2 23.7 331.3 27.4 331.3 32.5 C 331.3 37.6 332.2 41.2 335.2 41.2 C 336.6 41.2 338 39.6 338.6 37.7 Z M 361 47.4 L 361 7.4 L 378.5 7.4 L 378.5 14 L 368.6 14 L 368.6 23.7 L 378.1 23.7 L 378.1 30.4 L 368.6 30.4 L 368.6 47.4 L 361 47.4 Z M 382.1 32.9 C 382.1 24.8 385.4 17.7 392.9 17.7 C 400.6 17.7 403.9 24.8 403.9 32.9 C 403.9 40.9 400.6 48.1 392.9 48.1 C 385.4 48.1 382.1 40.9 382.1 32.9 Z M 396.8 32.9 C 396.8 28 396 23.7 392.9 23.7 C 389.9 23.7 389.1 28 389.1 32.9 C 389.1 37.9 389.9 42.1 392.9 42.1 C 396 42.1 396.8 37.9 396.8 32.9 Z M 420.8 47.4 C 420.8 47.4 420.83 44.64 420.8 44.6 C 419.6 46.9 416.9 48.1 414.8 48.1 C 410.2 48.1 406.9 44.4 406.9 38.5 C 406.9 32.6 410.2 29 414.8 29 C 416.9 29 419.6 30.1 420.8 32.3 C 420.8 32.3 420.8 28.7 420.8 28.7 C 420.8 25.4 419.5 23.5 416.5 23.5 C 414.5 23.5 412.5 24.4 410.6 26.3 C 410.6 26.3 408.1 21.5 408.1 21.5 C 410.7 18.7 414.8 17.7 417.8 17.7 C 423.8 17.7 427.6 20.7 427.6 27.2 C 427.61 27.18 427.6 47.4 427.6 47.4 L 420.8 47.4 Z M 420.8 40.6 C 420.8 40.6 420.8 36.7 420.8 36.7 C 420.1 34.9 418.7 33.7 417.2 33.7 C 414.8 33.7 413.7 35.8 413.7 38.6 C 413.7 41.3 414.8 43.6 417.2 43.6 C 418.7 43.6 420.1 42.4 420.8 40.6 Z M 459 47.4 C 459 47.4 458.99 26.76 459 26.8 C 459 24.6 458.2 23.7 456.8 23.7 C 454.9 23.7 453.5 25.7 452.9 27.5 C 452.87 27.48 452.9 47.4 452.9 47.4 L 446 47.4 C 446 47.4 446.03 26.76 446 26.8 C 446 24.8 445.4 23.7 443.8 23.7 C 442 23.7 440.5 25.7 439.9 27.5 C 439.91 27.48 439.9 47.4 439.9 47.4 L 433.1 47.4 L 433.1 18.4 L 439.9 18.4 C 439.9 18.4 439.91 22.2 439.9 22.2 C 440.9 20 443.9 17.7 446.7 17.7 C 449.8 17.7 452.2 19.2 452.6 22.5 C 453.7 20.1 456.8 17.7 459.7 17.7 C 463.3 17.7 465.8 19.6 465.8 24.3 C 465.77 24.3 465.8 47.4 465.8 47.4 L 459 47.4 Z M 500.7 47.4 L 496.6 27.7 L 492.4 47.4 L 485.3 47.4 L 478.6 18.4 L 485.6 18.4 L 489.3 38.2 L 493.1 18.4 L 499.6 18.4 L 503.7 38.2 L 507.4 18.4 L 514.5 18.4 L 507.8 47.4 L 500.7 47.4 Z M 516.8 10.9 C 516.8 8.6 518.7 6.8 520.9 6.8 C 523.2 6.8 525.1 8.6 525.1 10.9 C 525.1 13.2 523.2 15 520.9 15 C 518.7 15 516.8 13.2 516.8 10.9 Z M 517.6 47.4 L 517.6 18.4 L 524.3 18.4 L 524.3 47.4 L 517.6 47.4 Z M 530.7 40.7 C 530.69 40.74 530.7 24.3 530.7 24.3 L 528 24.3 L 528 18.4 L 530.7 18.4 L 530.7 10.5 L 537.5 10.5 L 537.5 18.4 L 541.1 18.4 L 541.1 24.3 L 537.5 24.3 C 537.5 24.3 537.47 39.42 537.5 39.4 C 537.5 41.2 537.9 42.1 539.1 42.1 C 539.8 42.1 540.4 41.8 540.7 41.3 C 540.7 41.3 542.1 46.6 542.1 46.6 C 541.1 47.5 539.5 48.1 537.4 48.1 C 532.6 48.1 530.7 45.7 530.7 40.7 Z M 558.2 47.4 C 558.2 47.4 558.17 26.64 558.2 26.6 C 558.2 24.7 557.5 23.7 556 23.7 C 554.2 23.7 552.7 25.6 552.1 27.5 C 552.05 27.48 552.1 47.4 552.1 47.4 L 545.3 47.4 L 545.3 7.4 L 552.1 7.4 C 552.1 7.4 552.05 22.2 552.1 22.2 C 553.2 19.9 556.2 17.7 558.8 17.7 C 563.2 17.7 565 20.1 565 24.2 C 565.01 24.24 565 47.4 565 47.4 L 558.2 47.4 Z " stroke="none" fill="#e9e8e8"/>  </g></svg>