<?xml version="1.0" standalone="no"?><!DOCTYPE svg PUBLIC "-//W3C//DTD SVG 1.1//EN" "http://www.w3.org/Graphics/SVG/1.1/DTD/svg11.dtd"><svg xmlns="http://www.w3.org/2000/svg" version="1.1" width="427px" height="97.6px" viewBox="0 0 427 97.6">  <desc>Taste of the Past</desc>  <defs/>  <g id="Polygon111220">    <path d="M 16.2 55 L 16.2 13.4 L 5.2 13.4 L 5.2 8.6 L 32.8 8.6 L 32.8 13.4 L 21.7 13.4 L 21.7 55 L 16.2 55 Z M 51.5 55 C 51.5 55 51.55 51.36 51.5 51.4 C 49.4 54.4 46.1 55.8 42.7 55.8 C 37.3 55.8 32.5 51.6 32.5 44.6 C 32.5 37.6 37.2 33.5 42.7 33.5 C 46.1 33.5 49.5 34.9 51.5 37.9 C 51.5 37.9 51.5 32 51.5 32 C 51.5 27.4 49 24.8 44.7 24.8 C 41.5 24.8 38.8 26 36.2 29 C 36.2 29 34 25.4 34 25.4 C 37.2 22.1 41.2 20.5 45.4 20.5 C 52.1 20.5 56.6 23.8 56.6 31.5 C 56.56 31.46 56.6 55 56.6 55 L 51.5 55 Z M 51.5 48 C 51.5 48 51.5 41.6 51.5 41.6 C 50 38.7 47.2 37.2 44.3 37.2 C 40.1 37.2 37.6 40.5 37.6 44.7 C 37.6 48.9 40.1 52.2 44.3 52.2 C 47.2 52.2 50 50.7 51.5 48 Z M 63 51.1 C 63 51.1 65.5 47.5 65.5 47.5 C 67.4 49.9 70.6 51.8 74.2 51.8 C 78.1 51.8 80.7 49.6 80.7 46.4 C 80.7 38.5 63.9 41.2 63.9 29.6 C 63.9 24.6 68 20.5 74.7 20.5 C 79.1 20.5 82.5 22.3 84.9 24.8 C 84.9 24.8 82.5 28.3 82.5 28.3 C 80.8 26 78 24.6 74.7 24.6 C 71 24.6 68.7 26.7 68.7 29.4 C 68.7 36.6 85.5 34.1 85.5 46.2 C 85.5 51.8 81.2 55.8 74.3 55.8 C 69.6 55.8 65.7 54.3 63 51.1 Z M 93.6 48.2 C 93.58 48.23 93.6 25.8 93.6 25.8 L 89.1 25.8 L 89.1 21.4 L 93.6 21.4 L 93.6 12.2 L 98.6 12.2 L 98.6 21.4 L 104.3 21.4 L 104.3 25.8 L 98.6 25.8 C 98.6 25.8 98.6 47.33 98.6 47.3 C 98.6 49.9 99.4 51.4 101.3 51.4 C 102.6 51.4 103.6 50.8 104.2 50 C 104.2 50 105.8 53.8 105.8 53.8 C 104.6 55 102.9 55.8 100.3 55.8 C 95.7 55.8 93.6 53.2 93.6 48.2 Z M 109.2 38.1 C 109.2 28.4 114.4 20.5 122.9 20.5 C 131.7 20.5 136.2 28.5 136.2 38.3 C 136.18 38.28 136.2 39.8 136.2 39.8 C 136.2 39.8 114.39 39.81 114.4 39.8 C 114.6 46.6 118.1 51.6 124.1 51.6 C 127 51.6 130 50.2 132.1 47.5 C 132.1 47.5 134.7 50.5 134.7 50.5 C 132 53.8 128.2 55.8 123.7 55.8 C 114.7 55.8 109.2 48.4 109.2 38.1 Z M 122.8 24.7 C 116.9 24.7 114.5 31.2 114.4 36.1 C 114.4 36.1 131.2 36.1 131.2 36.1 C 131.2 31 128.9 24.7 122.8 24.7 Z M 156.5 38.1 C 156.5 28.7 161.3 20.5 170.2 20.5 C 179.2 20.5 183.9 28.7 183.9 38.1 C 183.9 47.6 179.2 55.8 170.2 55.8 C 161.3 55.8 156.5 47.6 156.5 38.1 Z M 178.7 38.1 C 178.7 31.4 176.1 25 170.2 25 C 164.4 25 161.8 31.4 161.8 38.1 C 161.8 45 164.4 51.4 170.2 51.4 C 176.1 51.4 178.7 45 178.7 38.1 Z M 192.6 55 L 192.6 25.8 L 188.1 25.8 L 188.1 21.4 L 192.6 21.4 C 192.6 21.4 192.58 17.26 192.6 17.3 C 192.6 11.4 195.8 7.9 201 7.9 C 203.2 7.9 205.3 8.5 207 10.1 C 207 10.1 205 13.6 205 13.6 C 204.1 12.7 203.1 12.1 201.8 12.1 C 199 12.1 197.6 14 197.6 17.3 C 197.6 17.26 197.6 21.4 197.6 21.4 L 203.3 21.4 L 203.3 25.8 L 197.6 25.8 L 197.6 55 L 192.6 55 Z M 224.8 48.2 C 224.77 48.23 224.8 25.8 224.8 25.8 L 220.3 25.8 L 220.3 21.4 L 224.8 21.4 L 224.8 12.2 L 229.8 12.2 L 229.8 21.4 L 235.5 21.4 L 235.5 25.8 L 229.8 25.8 C 229.8 25.8 229.78 47.33 229.8 47.3 C 229.8 49.9 230.5 51.4 232.5 51.4 C 233.8 51.4 234.8 50.8 235.4 50 C 235.4 50 237 53.8 237 53.8 C 235.8 55 234.1 55.8 231.5 55.8 C 226.9 55.8 224.8 53.2 224.8 48.2 Z M 260.3 55 C 260.3 55 260.34 30.97 260.3 31 C 260.3 26.5 258.2 25 254.9 25 C 251.6 25 248.6 27.6 247 30.3 C 247.04 30.35 247 55 247 55 L 242.1 55 L 242.1 8.6 L 247 8.6 C 247 8.6 247.04 26.17 247 26.2 C 249 23.2 252.8 20.5 256.9 20.5 C 262.6 20.5 265.3 23.4 265.3 29.5 C 265.28 29.51 265.3 55 265.3 55 L 260.3 55 Z M 272.8 38.1 C 272.8 28.4 277.9 20.5 286.4 20.5 C 295.3 20.5 299.7 28.5 299.7 38.3 C 299.73 38.28 299.7 39.8 299.7 39.8 C 299.7 39.8 277.95 39.81 277.9 39.8 C 278.2 46.6 281.6 51.6 287.6 51.6 C 290.5 51.6 293.5 50.2 295.6 47.5 C 295.6 47.5 298.3 50.5 298.3 50.5 C 295.6 53.8 291.7 55.8 287.2 55.8 C 278.2 55.8 272.8 48.4 272.8 38.1 Z M 286.4 24.7 C 280.5 24.7 278.1 31.2 277.9 36.1 C 277.9 36.1 294.8 36.1 294.8 36.1 C 294.7 31 292.5 24.7 286.4 24.7 Z M 322 55 L 322 8.6 C 322 8.6 336.16 8.56 336.2 8.6 C 344.7 8.6 349 15 349 22.5 C 349 30 344.6 36.4 336.2 36.4 C 336.16 36.4 327.6 36.4 327.6 36.4 L 327.6 55 L 322 55 Z M 343.3 22.5 C 343.3 17.2 340.4 13.4 335.6 13.4 C 335.61 13.43 327.6 13.4 327.6 13.4 L 327.6 31.5 C 327.6 31.5 335.61 31.53 335.6 31.5 C 340.4 31.5 343.3 27.8 343.3 22.5 Z M 371.6 55 C 371.6 55 371.59 51.36 371.6 51.4 C 369.4 54.4 366.2 55.8 362.7 55.8 C 357.3 55.8 352.6 51.6 352.6 44.6 C 352.6 37.6 357.3 33.5 362.7 33.5 C 366.2 33.5 369.5 34.9 371.6 37.9 C 371.6 37.9 371.6 32 371.6 32 C 371.6 27.4 369.1 24.8 364.7 24.8 C 361.6 24.8 358.9 26 356.3 29 C 356.3 29 354 25.4 354 25.4 C 357.3 22.1 361.2 20.5 365.5 20.5 C 372.1 20.5 376.6 23.8 376.6 31.5 C 376.6 31.46 376.6 55 376.6 55 L 371.6 55 Z M 371.6 48 C 371.6 48 371.6 41.6 371.6 41.6 C 370.1 38.7 367.3 37.2 364.4 37.2 C 360.2 37.2 357.7 40.5 357.7 44.7 C 357.7 48.9 360.2 52.2 364.4 52.2 C 367.3 52.2 370.1 50.7 371.6 48 Z M 383 51.1 C 383 51.1 385.5 47.5 385.5 47.5 C 387.5 49.9 390.7 51.8 394.3 51.8 C 398.2 51.8 400.8 49.6 400.8 46.4 C 400.8 38.5 384 41.2 384 29.6 C 384 24.6 388 20.5 394.7 20.5 C 399.1 20.5 402.6 22.3 404.9 24.8 C 404.9 24.8 402.6 28.3 402.6 28.3 C 400.9 26 398 24.6 394.8 24.6 C 391.1 24.6 388.8 26.7 388.8 29.4 C 388.8 36.6 405.6 34.1 405.6 46.2 C 405.6 51.8 401.2 55.8 394.3 55.8 C 389.6 55.8 385.8 54.3 383 51.1 Z M 413.6 48.2 C 413.63 48.23 413.6 25.8 413.6 25.8 L 409.2 25.8 L 409.2 21.4 L 413.6 21.4 L 413.6 12.2 L 418.6 12.2 L 418.6 21.4 L 424.3 21.4 L 424.3 25.8 L 418.6 25.8 C 418.6 25.8 418.64 47.33 418.6 47.3 C 418.6 49.9 419.4 51.4 421.4 51.4 C 422.6 51.4 423.6 50.8 424.3 50 C 424.3 50 425.8 53.8 425.8 53.8 C 424.6 55 423 55.8 420.4 55.8 C 415.8 55.8 413.6 53.2 413.6 48.2 Z " stroke="none" fill="#d3d2d2"/>  </g></svg>