<?xml version="1.0" standalone="no"?><!DOCTYPE svg PUBLIC "-//W3C//DTD SVG 1.1//EN" "http://www.w3.org/Graphics/SVG/1.1/DTD/svg11.dtd"><svg xmlns="http://www.w3.org/2000/svg" version="1.1" width="219px" height="486.3px" viewBox="0 0 219 486.3">  <desc>127 50 209 55 2402 03 177 98 152 24 203 02 99 25 12 02 5 77 213 67 73 16 14 29 90 19</desc>  <defs/>  <g id="Polygon226339">    <path d="M 159.6 454.2 C 159.6 454.2 160.9 452.5 160.9 452.5 C 161.7 453.8 162.6 454.6 164.2 454.6 C 167.5 454.6 168.6 450.3 168.6 446.6 C 168.6 446.3 168.6 446.2 168.6 446 C 167.9 447.4 166.2 448.9 164.2 448.9 C 161.3 448.9 158.9 446.8 158.9 442.5 C 158.9 439.2 161 436 164.7 436 C 169.5 436 171 441 171 446.4 C 171 451.8 169.1 456.7 164.2 456.7 C 162.1 456.7 160.6 455.7 159.6 454.2 Z M 168.5 443.8 C 168.4 441.6 167.6 438.2 164.8 438.2 C 162.4 438.2 161.4 440.4 161.4 442.5 C 161.4 445.7 162.9 446.9 164.8 446.9 C 166.5 446.9 167.8 445.4 168.5 443.8 Z M 173.8 446.4 C 173.8 441.6 175.4 436.1 180.1 436.1 C 184.8 436.1 186.4 441.6 186.4 446.4 C 186.4 451.2 184.8 456.7 180.1 456.7 C 175.4 456.7 173.8 451.2 173.8 446.4 Z M 183.9 446.4 C 183.9 442.4 183.2 438.2 180.1 438.2 C 177 438.2 176.3 442.4 176.3 446.4 C 176.3 450.3 177 454.6 180.1 454.6 C 183.2 454.6 183.9 450.3 183.9 446.4 Z M 189.6 455.1 C 189.6 454.2 190.3 453.5 191.2 453.5 C 192.1 453.5 192.8 454.2 192.8 455.1 C 192.8 456 192.1 456.7 191.2 456.7 C 190.3 456.7 189.6 456 189.6 455.1 Z M 199.6 456.4 L 199.6 439.5 L 196.5 442.8 L 195.1 441.3 L 199.9 436.4 L 202 436.4 L 202 456.4 L 199.6 456.4 Z M 206 454.2 C 206 454.2 207.3 452.5 207.3 452.5 C 208.1 453.8 209 454.6 210.6 454.6 C 213.9 454.6 215 450.3 215 446.6 C 215 446.3 215 446.2 215 446 C 214.3 447.4 212.7 448.9 210.6 448.9 C 207.7 448.9 205.3 446.8 205.3 442.5 C 205.3 439.2 207.4 436 211.1 436 C 215.9 436 217.4 441 217.4 446.4 C 217.4 451.8 215.5 456.7 210.6 456.7 C 208.5 456.7 207 455.7 206 454.2 Z M 214.9 443.8 C 214.8 441.6 214 438.2 211.2 438.2 C 208.8 438.2 207.8 440.4 207.8 442.5 C 207.8 445.7 209.3 446.9 211.2 446.9 C 212.9 446.9 214.2 445.4 214.9 443.8 Z " stroke="none" fill="#d0d1d4"/>  </g>  <g id="Polygon226338">    <path d="M 164.2 420.4 L 164.2 403.5 L 161.1 406.8 L 159.7 405.3 L 164.5 400.4 L 166.6 400.4 L 166.6 420.4 L 164.2 420.4 Z M 177.3 420.4 L 177.3 415.2 L 169.4 415.2 L 169.4 413.2 L 176.6 400.4 L 179.7 400.4 L 179.7 413.1 L 181.9 413.1 L 181.9 415.2 L 179.7 415.2 L 179.7 420.4 L 177.3 420.4 Z M 177.3 402.9 L 171.6 413.1 L 177.3 413.1 L 177.3 402.9 Z M 184.4 419.1 C 184.4 418.2 185.1 417.5 186 417.5 C 186.9 417.5 187.6 418.2 187.6 419.1 C 187.6 420 186.9 420.7 186 420.7 C 185.1 420.7 184.4 420 184.4 419.1 Z M 191 420.4 C 191 420.4 191 418.43 191 418.4 C 197.5 410.9 199.8 408.5 199.8 405.5 C 199.8 403.4 198.3 402.2 196.6 402.2 C 194.7 402.2 193.3 403.1 192.3 404.7 C 192.3 404.7 190.8 403.3 190.8 403.3 C 192.1 401.2 194.1 400.1 196.6 400.1 C 199.7 400.1 202.2 402 202.2 405.5 C 202.2 408.9 199.7 411.9 194.4 418.2 C 194.39 418.25 202.3 418.2 202.3 418.2 L 202.3 420.4 L 191 420.4 Z M 206 418.2 C 206 418.2 207.3 416.5 207.3 416.5 C 208.1 417.8 209 418.6 210.6 418.6 C 213.9 418.6 215 414.3 215 410.6 C 215 410.3 215 410.2 215 410 C 214.3 411.4 212.7 412.9 210.6 412.9 C 207.7 412.9 205.3 410.8 205.3 406.5 C 205.3 403.2 207.4 400 211.1 400 C 215.9 400 217.4 405 217.4 410.4 C 217.4 415.8 215.5 420.7 210.6 420.7 C 208.5 420.7 207 419.7 206 418.2 Z M 214.9 407.8 C 214.8 405.6 214 402.2 211.2 402.2 C 208.8 402.2 207.8 404.4 207.8 406.5 C 207.8 409.7 209.3 410.9 211.2 410.9 C 212.9 410.9 214.2 409.4 214.9 407.8 Z " stroke="none" fill="#d0d1d4"/>  </g>  <g id="Polygon226337">    <path d="M 163.9 384.4 L 170.2 366.5 L 161.7 366.5 L 161.7 364.4 L 172.8 364.4 L 172.8 366 L 166.5 384.4 L 163.9 384.4 Z M 174.5 381.4 C 174.5 381.4 176 380 176 380 C 177 381.5 178.4 382.6 180.3 382.6 C 182.7 382.6 183.9 381.1 183.9 378.8 C 183.9 376.1 182.2 375.2 180.1 375.2 C 179.5 375.2 178.8 375.2 178.5 375.2 C 178.5 375.2 178.5 373 178.5 373 C 178.8 373.1 179.6 373.1 180.1 373.1 C 182.1 373.1 183.7 372 183.7 369.7 C 183.7 367.3 182.3 366.2 180.3 366.2 C 178.5 366.2 177.2 367.1 176.2 368.6 C 176.2 368.6 174.7 367.2 174.7 367.2 C 175.9 365.3 177.9 364.1 180.4 364.1 C 183.6 364.1 186.1 365.8 186.1 369.4 C 186.1 371.9 184.3 373.6 182.5 374 C 184.3 374.3 186.3 376.1 186.3 379 C 186.3 382.3 184.2 384.7 180.4 384.7 C 177.6 384.7 175.5 383.2 174.5 381.4 Z M 189.6 383.1 C 189.6 382.2 190.3 381.5 191.2 381.5 C 192.1 381.5 192.8 382.2 192.8 383.1 C 192.8 384 192.1 384.7 191.2 384.7 C 190.3 384.7 189.6 384 189.6 383.1 Z M 199.6 384.4 L 199.6 367.5 L 196.5 370.8 L 195.1 369.3 L 199.9 364.4 L 202 364.4 L 202 384.4 L 199.6 384.4 Z M 205.5 374.4 C 205.5 369 207.4 364.1 212.2 364.1 C 214.3 364.1 215.9 365.1 216.9 366.6 C 216.9 366.6 215.6 368.2 215.6 368.2 C 214.8 367 213.9 366.2 212.3 366.2 C 209.1 366.2 207.9 370.4 207.9 374.2 C 207.9 374.4 207.9 374.5 207.9 374.8 C 208.6 373.4 210.3 371.8 212.3 371.8 C 215.2 371.8 217.6 374 217.6 378.2 C 217.6 381.6 215.5 384.7 211.8 384.7 C 207 384.7 205.5 379.7 205.5 374.4 Z M 215.1 378.3 C 215.1 375.1 213.6 373.9 211.7 373.9 C 210 373.9 208.7 375.3 207.9 377 C 208.1 379.2 208.9 382.6 211.7 382.6 C 214.1 382.6 215.1 380.4 215.1 378.3 Z " stroke="none" fill="#d0d1d4"/>  </g>  <g id="Polygon226336">    <path d="M 147.9 348.4 C 147.9 348.4 147.86 346.43 147.9 346.4 C 154.4 338.9 156.6 336.5 156.6 333.5 C 156.6 331.4 155.1 330.2 153.4 330.2 C 151.5 330.2 150.2 331.1 149.2 332.7 C 149.2 332.7 147.6 331.3 147.6 331.3 C 149 329.2 150.9 328.1 153.5 328.1 C 156.5 328.1 159.1 330 159.1 333.5 C 159.1 336.9 156.6 339.9 151.2 346.2 C 151.25 346.25 159.2 346.2 159.2 346.2 L 159.2 348.4 L 147.9 348.4 Z M 165.9 348.4 L 165.9 331.5 L 162.8 334.8 L 161.4 333.3 L 166.2 328.4 L 168.3 328.4 L 168.3 348.4 L 165.9 348.4 Z M 171.3 345.4 C 171.3 345.4 172.8 344 172.8 344 C 173.7 345.5 175.2 346.6 177.1 346.6 C 179.5 346.6 180.7 345.1 180.7 342.8 C 180.7 340.1 179 339.2 176.9 339.2 C 176.3 339.2 175.6 339.2 175.3 339.2 C 175.3 339.2 175.3 337 175.3 337 C 175.6 337.1 176.4 337.1 176.9 337.1 C 178.9 337.1 180.5 336 180.5 333.7 C 180.5 331.3 179.1 330.2 177 330.2 C 175.3 330.2 174 331.1 173 332.6 C 173 332.6 171.5 331.2 171.5 331.2 C 172.7 329.3 174.7 328.1 177.2 328.1 C 180.4 328.1 182.9 329.8 182.9 333.4 C 182.9 335.9 181.1 337.6 179.3 338 C 181.1 338.3 183.1 340.1 183.1 343 C 183.1 346.3 181 348.7 177.2 348.7 C 174.3 348.7 172.3 347.2 171.3 345.4 Z M 186.4 347.1 C 186.4 346.2 187.1 345.5 188 345.5 C 188.9 345.5 189.6 346.2 189.6 347.1 C 189.6 348 188.9 348.7 188 348.7 C 187.1 348.7 186.4 348 186.4 347.1 Z M 192.8 338.4 C 192.8 333 194.7 328.1 199.6 328.1 C 201.7 328.1 203.3 329.1 204.3 330.6 C 204.3 330.6 202.9 332.2 202.9 332.2 C 202.2 331 201.3 330.2 199.6 330.2 C 196.4 330.2 195.2 334.4 195.2 338.2 C 195.2 338.4 195.2 338.5 195.3 338.8 C 195.9 337.4 197.6 335.8 199.7 335.8 C 202.6 335.8 204.9 338 204.9 342.2 C 204.9 345.6 202.8 348.7 199.2 348.7 C 194.4 348.7 192.8 343.7 192.8 338.4 Z M 202.5 342.3 C 202.5 339.1 201 337.9 199.1 337.9 C 197.4 337.9 196 339.3 195.3 341 C 195.4 343.2 196.2 346.6 199 346.6 C 201.4 346.6 202.5 344.4 202.5 342.3 Z M 209.1 348.4 L 215.4 330.5 L 207 330.5 L 207 328.4 L 218.1 328.4 L 218.1 330 L 211.7 348.4 L 209.1 348.4 Z " stroke="none" fill="#d0d1d4"/>  </g>  <g id="Polygon226335">    <path d="M 173.5 309.5 C 173.5 309.5 175.1 308 175.1 308 C 176.1 309.7 177.4 310.6 179.3 310.6 C 181.5 310.6 182.9 308.6 182.9 306.3 C 182.9 303.4 181.5 301.8 179.5 301.8 C 178.1 301.8 177 302.4 175.8 303.7 C 175.84 303.71 174.1 303.1 174.1 303.1 L 174.1 292.4 L 184.3 292.4 L 184.3 294.5 L 176.4 294.5 C 176.4 294.5 176.44 301.49 176.4 301.5 C 177.2 300.5 178.5 299.7 180.1 299.7 C 183 299.7 185.3 302 185.3 306.2 C 185.3 310 182.9 312.7 179.4 312.7 C 176.4 312.7 174.7 311.5 173.5 309.5 Z M 188.5 311.1 C 188.5 310.2 189.2 309.5 190.1 309.5 C 191 309.5 191.7 310.2 191.7 311.1 C 191.7 312 191 312.7 190.1 312.7 C 189.2 312.7 188.5 312 188.5 311.1 Z M 196.5 312.4 L 202.8 294.5 L 194.3 294.5 L 194.3 292.4 L 205.4 292.4 L 205.4 294 L 199 312.4 L 196.5 312.4 Z M 209.1 312.4 L 215.4 294.5 L 207 294.5 L 207 292.4 L 218.1 292.4 L 218.1 294 L 211.7 312.4 L 209.1 312.4 Z " stroke="none" fill="#d0d1d4"/>  </g>  <g id="Polygon226334">    <path d="M 162.8 276.4 L 162.8 259.5 L 159.7 262.8 L 158.3 261.3 L 163.1 256.4 L 165.2 256.4 L 165.2 276.4 L 162.8 276.4 Z M 168.9 276.4 C 168.9 276.4 168.89 274.43 168.9 274.4 C 175.4 266.9 177.7 264.5 177.7 261.5 C 177.7 259.4 176.2 258.2 174.5 258.2 C 172.6 258.2 171.2 259.1 170.2 260.7 C 170.2 260.7 168.7 259.3 168.7 259.3 C 170 257.2 171.9 256.1 174.5 256.1 C 177.6 256.1 180.1 258 180.1 261.5 C 180.1 264.9 177.6 267.9 172.3 274.2 C 172.28 274.25 180.2 274.2 180.2 274.2 L 180.2 276.4 L 168.9 276.4 Z M 183.8 275.1 C 183.8 274.2 184.5 273.5 185.4 273.5 C 186.3 273.5 187 274.2 187 275.1 C 187 276 186.3 276.7 185.4 276.7 C 184.5 276.7 183.8 276 183.8 275.1 Z M 190.2 266.4 C 190.2 261.6 191.8 256.1 196.5 256.1 C 201.2 256.1 202.8 261.6 202.8 266.4 C 202.8 271.2 201.2 276.7 196.5 276.7 C 191.8 276.7 190.2 271.2 190.2 266.4 Z M 200.3 266.4 C 200.3 262.4 199.6 258.2 196.5 258.2 C 193.4 258.2 192.7 262.4 192.7 266.4 C 192.7 270.3 193.4 274.6 196.5 274.6 C 199.6 274.6 200.3 270.3 200.3 266.4 Z M 205.8 276.4 C 205.8 276.4 205.75 274.43 205.8 274.4 C 212.3 266.9 214.5 264.5 214.5 261.5 C 214.5 259.4 213 258.2 211.3 258.2 C 209.4 258.2 208.1 259.1 207.1 260.7 C 207.1 260.7 205.5 259.3 205.5 259.3 C 206.9 257.2 208.8 256.1 211.4 256.1 C 214.4 256.1 217 258 217 261.5 C 217 264.9 214.5 267.9 209.1 274.2 C 209.14 274.25 217.1 274.2 217.1 274.2 L 217.1 276.4 L 205.8 276.4 Z " stroke="none" fill="#d0d1d4"/>  </g>  <g id="Polygon226333">    <path d="M 155 238.2 C 155 238.2 156.3 236.5 156.3 236.5 C 157.1 237.8 158 238.6 159.6 238.6 C 162.9 238.6 164 234.3 164 230.6 C 164 230.3 164 230.2 164 230 C 163.3 231.4 161.7 232.9 159.6 232.9 C 156.7 232.9 154.3 230.8 154.3 226.5 C 154.3 223.2 156.4 220 160.1 220 C 164.9 220 166.4 225 166.4 230.4 C 166.4 235.8 164.5 240.7 159.6 240.7 C 157.5 240.7 156 239.7 155 238.2 Z M 163.9 227.8 C 163.8 225.6 163 222.2 160.2 222.2 C 157.8 222.2 156.8 224.4 156.8 226.5 C 156.8 229.7 158.3 230.9 160.2 230.9 C 161.9 230.9 163.2 229.4 163.9 227.8 Z M 169.8 238.2 C 169.8 238.2 171.1 236.5 171.1 236.5 C 171.8 237.8 172.8 238.6 174.4 238.6 C 177.6 238.6 178.8 234.3 178.8 230.6 C 178.8 230.3 178.8 230.2 178.8 230 C 178.1 231.4 176.4 232.9 174.3 232.9 C 171.4 232.9 169.1 230.8 169.1 226.5 C 169.1 223.2 171.2 220 174.9 220 C 179.6 220 181.2 225 181.2 230.4 C 181.2 235.8 179.2 240.7 174.4 240.7 C 172.3 240.7 170.7 239.7 169.8 238.2 Z M 178.7 227.8 C 178.6 225.6 177.8 222.2 175 222.2 C 172.6 222.2 171.5 224.4 171.5 226.5 C 171.5 229.7 173.1 230.9 174.9 230.9 C 176.6 230.9 178 229.4 178.7 227.8 Z M 184.4 239.1 C 184.4 238.2 185.1 237.5 186 237.5 C 186.9 237.5 187.6 238.2 187.6 239.1 C 187.6 240 186.9 240.7 186 240.7 C 185.1 240.7 184.4 240 184.4 239.1 Z M 191 240.4 C 191 240.4 191.02 238.43 191 238.4 C 197.6 230.9 199.8 228.5 199.8 225.5 C 199.8 223.4 198.3 222.2 196.6 222.2 C 194.7 222.2 193.3 223.1 192.4 224.7 C 192.4 224.7 190.8 223.3 190.8 223.3 C 192.1 221.2 194.1 220.1 196.6 220.1 C 199.7 220.1 202.2 222 202.2 225.5 C 202.2 228.9 199.7 231.9 194.4 238.2 C 194.41 238.25 202.3 238.2 202.3 238.2 L 202.3 240.4 L 191 240.4 Z M 205.7 237.5 C 205.7 237.5 207.3 236 207.3 236 C 208.2 237.7 209.5 238.6 211.5 238.6 C 213.7 238.6 215.1 236.6 215.1 234.3 C 215.1 231.4 213.7 229.8 211.6 229.8 C 210.2 229.8 209.1 230.4 208 231.7 C 208 231.71 206.2 231.1 206.2 231.1 L 206.2 220.4 L 216.4 220.4 L 216.4 222.5 L 208.6 222.5 C 208.6 222.5 208.6 229.49 208.6 229.5 C 209.4 228.5 210.7 227.7 212.3 227.7 C 215.2 227.7 217.5 230 217.5 234.2 C 217.5 238 215 240.7 211.5 240.7 C 208.6 240.7 206.9 239.5 205.7 237.5 Z " stroke="none" fill="#d0d1d4"/>  </g>  <g id="Polygon226332">    <path d="M 139.3 204.4 C 139.3 204.4 139.34 202.43 139.3 202.4 C 145.9 194.9 148.1 192.5 148.1 189.5 C 148.1 187.4 146.6 186.2 144.9 186.2 C 143 186.2 141.6 187.1 140.7 188.7 C 140.7 188.7 139.1 187.3 139.1 187.3 C 140.4 185.2 142.4 184.1 144.9 184.1 C 148 184.1 150.6 186 150.6 189.5 C 150.6 192.9 148 195.9 142.7 202.2 C 142.73 202.25 150.6 202.2 150.6 202.2 L 150.6 204.4 L 139.3 204.4 Z M 153.8 194.4 C 153.8 189.6 155.4 184.1 160.1 184.1 C 164.8 184.1 166.4 189.6 166.4 194.4 C 166.4 199.2 164.8 204.7 160.1 204.7 C 155.4 204.7 153.8 199.2 153.8 194.4 Z M 163.9 194.4 C 163.9 190.4 163.2 186.2 160.1 186.2 C 157 186.2 156.3 190.4 156.3 194.4 C 156.3 198.3 157 202.6 160.1 202.6 C 163.2 202.6 163.9 198.3 163.9 194.4 Z M 168.6 201.4 C 168.6 201.4 170.2 200 170.2 200 C 171.1 201.5 172.6 202.6 174.5 202.6 C 176.9 202.6 178.1 201.1 178.1 198.8 C 178.1 196.1 176.4 195.2 174.3 195.2 C 173.7 195.2 173 195.2 172.7 195.2 C 172.7 195.2 172.7 193 172.7 193 C 173 193.1 173.7 193.1 174.3 193.1 C 176.3 193.1 177.9 192 177.9 189.7 C 177.9 187.3 176.4 186.2 174.4 186.2 C 172.7 186.2 171.4 187.1 170.4 188.6 C 170.4 188.6 168.9 187.2 168.9 187.2 C 170.1 185.3 172.1 184.1 174.6 184.1 C 177.8 184.1 180.3 185.8 180.3 189.4 C 180.3 191.9 178.5 193.6 176.7 194 C 178.5 194.3 180.5 196.1 180.5 199 C 180.5 202.3 178.4 204.7 174.6 204.7 C 171.7 204.7 169.7 203.2 168.6 201.4 Z M 183.8 203.1 C 183.8 202.2 184.5 201.5 185.4 201.5 C 186.3 201.5 187 202.2 187 203.1 C 187 204 186.3 204.7 185.4 204.7 C 184.5 204.7 183.8 204 183.8 203.1 Z M 190.2 194.4 C 190.2 189.6 191.8 184.1 196.5 184.1 C 201.2 184.1 202.8 189.6 202.8 194.4 C 202.8 199.2 201.2 204.7 196.5 204.7 C 191.8 204.7 190.2 199.2 190.2 194.4 Z M 200.3 194.4 C 200.3 190.4 199.6 186.2 196.5 186.2 C 193.4 186.2 192.7 190.4 192.7 194.4 C 192.7 198.3 193.4 202.6 196.5 202.6 C 199.6 202.6 200.3 198.3 200.3 194.4 Z M 205.8 204.4 C 205.8 204.4 205.75 202.43 205.8 202.4 C 212.3 194.9 214.5 192.5 214.5 189.5 C 214.5 187.4 213 186.2 211.3 186.2 C 209.4 186.2 208.1 187.1 207.1 188.7 C 207.1 188.7 205.5 187.3 205.5 187.3 C 206.9 185.2 208.8 184.1 211.4 184.1 C 214.4 184.1 217 186 217 189.5 C 217 192.9 214.5 195.9 209.1 202.2 C 209.14 202.25 217.1 202.2 217.1 202.2 L 217.1 204.4 L 205.8 204.4 Z " stroke="none" fill="#d0d1d4"/>  </g>  <g id="Polygon226331">    <path d="M 149.6 168.4 L 149.6 151.5 L 146.5 154.8 L 145.1 153.3 L 149.9 148.4 L 152 148.4 L 152 168.4 L 149.6 168.4 Z M 155.6 165.5 C 155.6 165.5 157.2 164 157.2 164 C 158.2 165.7 159.5 166.6 161.4 166.6 C 163.6 166.6 165 164.6 165 162.3 C 165 159.4 163.7 157.8 161.6 157.8 C 160.2 157.8 159.1 158.4 158 159.7 C 157.97 159.71 156.2 159.1 156.2 159.1 L 156.2 148.4 L 166.4 148.4 L 166.4 150.5 L 158.6 150.5 C 158.6 150.5 158.57 157.49 158.6 157.5 C 159.3 156.5 160.7 155.7 162.3 155.7 C 165.1 155.7 167.4 158 167.4 162.2 C 167.4 166 165 168.7 161.5 168.7 C 158.6 168.7 156.9 167.5 155.6 165.5 Z M 170.4 168.4 C 170.4 168.4 170.39 166.43 170.4 166.4 C 176.9 158.9 179.2 156.5 179.2 153.5 C 179.2 151.4 177.7 150.2 176 150.2 C 174.1 150.2 172.7 151.1 171.7 152.7 C 171.7 152.7 170.2 151.3 170.2 151.3 C 171.5 149.2 173.4 148.1 176 148.1 C 179.1 148.1 181.6 150 181.6 153.5 C 181.6 156.9 179.1 159.9 173.8 166.2 C 173.78 166.25 181.7 166.2 181.7 166.2 L 181.7 168.4 L 170.4 168.4 Z M 185.3 167.1 C 185.3 166.2 186 165.5 186.9 165.5 C 187.8 165.5 188.5 166.2 188.5 167.1 C 188.5 168 187.8 168.7 186.9 168.7 C 186 168.7 185.3 168 185.3 167.1 Z M 191.9 168.4 C 191.9 168.4 191.89 166.43 191.9 166.4 C 198.4 158.9 200.7 156.5 200.7 153.5 C 200.7 151.4 199.2 150.2 197.5 150.2 C 195.6 150.2 194.2 151.1 193.2 152.7 C 193.2 152.7 191.7 151.3 191.7 151.3 C 193 149.2 195 148.1 197.5 148.1 C 200.6 148.1 203.1 150 203.1 153.5 C 203.1 156.9 200.6 159.9 195.3 166.2 C 195.28 166.25 203.2 166.2 203.2 166.2 L 203.2 168.4 L 191.9 168.4 Z M 213.6 168.4 L 213.6 163.2 L 205.7 163.2 L 205.7 161.2 L 212.9 148.4 L 216 148.4 L 216 161.1 L 218.1 161.1 L 218.1 163.2 L 216 163.2 L 216 168.4 L 213.6 168.4 Z M 213.6 150.9 L 207.9 161.1 L 213.6 161.1 L 213.6 150.9 Z " stroke="none" fill="#d0d1d4"/>  </g>  <g id="Polygon226330">    <path d="M 152.9 132.4 L 152.9 115.5 L 149.8 118.8 L 148.3 117.3 L 153.1 112.4 L 155.2 112.4 L 155.2 132.4 L 152.9 132.4 Z M 160.3 132.4 L 166.6 114.5 L 158.1 114.5 L 158.1 112.4 L 169.2 112.4 L 169.2 114 L 162.9 132.4 L 160.3 132.4 Z M 173 132.4 L 179.2 114.5 L 170.8 114.5 L 170.8 112.4 L 181.9 112.4 L 181.9 114 L 175.5 132.4 L 173 132.4 Z M 184.5 131.1 C 184.5 130.2 185.2 129.5 186.1 129.5 C 186.9 129.5 187.7 130.2 187.7 131.1 C 187.7 132 186.9 132.7 186.1 132.7 C 185.2 132.7 184.5 132 184.5 131.1 Z M 191.4 130.2 C 191.4 130.2 192.7 128.5 192.7 128.5 C 193.5 129.8 194.4 130.6 196.1 130.6 C 199.3 130.6 200.4 126.3 200.4 122.6 C 200.4 122.3 200.4 122.2 200.4 122 C 199.7 123.4 198.1 124.9 196 124.9 C 193.1 124.9 190.8 122.8 190.8 118.5 C 190.8 115.2 192.8 112 196.5 112 C 201.3 112 202.8 117 202.8 122.4 C 202.8 127.8 200.9 132.7 196.1 132.7 C 194 132.7 192.4 131.7 191.4 130.2 Z M 200.4 119.8 C 200.2 117.6 199.5 114.2 196.6 114.2 C 194.2 114.2 193.2 116.4 193.2 118.5 C 193.2 121.7 194.7 122.9 196.6 122.9 C 198.3 122.9 199.6 121.4 200.4 119.8 Z M 205.6 127.5 C 205.6 124.8 207.6 122.8 209.6 122.1 C 207.8 121.4 205.9 119.7 205.9 117.2 C 205.9 113.7 208.7 112.1 211.5 112.1 C 214.4 112.1 217.2 113.7 217.2 117.2 C 217.2 119.7 215.3 121.4 213.5 122.1 C 215.5 122.8 217.5 124.8 217.5 127.4 C 217.5 130.7 215 132.7 211.5 132.7 C 208 132.7 205.6 130.7 205.6 127.5 Z M 214.8 117.5 C 214.8 115.5 213.5 114.2 211.5 114.2 C 209.6 114.2 208.3 115.5 208.3 117.5 C 208.3 119.9 210.8 120.9 211.5 121.2 C 212.3 120.9 214.8 119.9 214.8 117.5 Z M 215.1 127.2 C 215.1 124.5 212.4 123.2 211.5 123 C 210.7 123.2 208 124.5 208 127.2 C 208 129.3 209.6 130.6 211.5 130.6 C 213.5 130.6 215.1 129.3 215.1 127.2 Z " stroke="none" fill="#d0d1d4"/>  </g>  <g id="Polygon226329">    <path d="M 125.5 96.4 C 125.5 96.4 125.48 94.43 125.5 94.4 C 132 86.9 134.3 84.5 134.3 81.5 C 134.3 79.4 132.8 78.2 131.1 78.2 C 129.2 78.2 127.8 79.1 126.8 80.7 C 126.8 80.7 125.3 79.3 125.3 79.3 C 126.6 77.2 128.5 76.1 131.1 76.1 C 134.1 76.1 136.7 78 136.7 81.5 C 136.7 84.9 134.2 87.9 128.9 94.2 C 128.87 94.25 136.8 94.2 136.8 94.2 L 136.8 96.4 L 125.5 96.4 Z M 147.2 96.4 L 147.2 91.2 L 139.2 91.2 L 139.2 89.2 L 146.5 76.4 L 149.5 76.4 L 149.5 89.1 L 151.7 89.1 L 151.7 91.2 L 149.5 91.2 L 149.5 96.4 L 147.2 96.4 Z M 147.2 78.9 L 141.4 89.1 L 147.2 89.1 L 147.2 78.9 Z M 153.8 86.4 C 153.8 81.6 155.4 76.1 160.1 76.1 C 164.8 76.1 166.4 81.6 166.4 86.4 C 166.4 91.2 164.8 96.7 160.1 96.7 C 155.4 96.7 153.8 91.2 153.8 86.4 Z M 163.9 86.4 C 163.9 82.4 163.2 78.2 160.1 78.2 C 157 78.2 156.3 82.4 156.3 86.4 C 156.3 90.3 157 94.6 160.1 94.6 C 163.2 94.6 163.9 90.3 163.9 86.4 Z M 169.4 96.4 C 169.4 96.4 169.37 94.43 169.4 94.4 C 175.9 86.9 178.2 84.5 178.2 81.5 C 178.2 79.4 176.7 78.2 174.9 78.2 C 173.1 78.2 171.7 79.1 170.7 80.7 C 170.7 80.7 169.2 79.3 169.2 79.3 C 170.5 77.2 172.4 76.1 175 76.1 C 178 76.1 180.6 78 180.6 81.5 C 180.6 84.9 178.1 87.9 172.8 94.2 C 172.76 94.25 180.7 94.2 180.7 94.2 L 180.7 96.4 L 169.4 96.4 Z M 184.3 95.1 C 184.3 94.2 185 93.5 185.9 93.5 C 186.7 93.5 187.5 94.2 187.5 95.1 C 187.5 96 186.7 96.7 185.9 96.7 C 185 96.7 184.3 96 184.3 95.1 Z M 190.7 86.4 C 190.7 81.6 192.3 76.1 197 76.1 C 201.6 76.1 203.2 81.6 203.2 86.4 C 203.2 91.2 201.6 96.7 197 96.7 C 192.3 96.7 190.7 91.2 190.7 86.4 Z M 200.8 86.4 C 200.8 82.4 200.1 78.2 197 78.2 C 193.9 78.2 193.2 82.4 193.2 86.4 C 193.2 90.3 193.9 94.6 197 94.6 C 200.1 94.6 200.8 90.3 200.8 86.4 Z M 205.5 93.4 C 205.5 93.4 207.1 92 207.1 92 C 208 93.5 209.5 94.6 211.4 94.6 C 213.8 94.6 215 93.1 215 90.8 C 215 88.1 213.2 87.2 211.2 87.2 C 210.6 87.2 209.9 87.2 209.6 87.2 C 209.6 87.2 209.6 85 209.6 85 C 209.9 85.1 210.6 85.1 211.1 85.1 C 213.1 85.1 214.8 84 214.8 81.7 C 214.8 79.3 213.3 78.2 211.3 78.2 C 209.5 78.2 208.3 79.1 207.3 80.6 C 207.3 80.6 205.8 79.2 205.8 79.2 C 207 77.3 209 76.1 211.5 76.1 C 214.7 76.1 217.1 77.8 217.1 81.4 C 217.1 83.9 215.4 85.6 213.6 86 C 215.3 86.3 217.4 88.1 217.4 91 C 217.4 94.3 215.3 96.7 211.5 96.7 C 208.6 96.7 206.5 95.2 205.5 93.4 Z " stroke="none" fill="#d0d1d4"/>  </g>  <g id="Polygon226328">    <path d="M 139.3 60.4 C 139.3 60.4 139.34 58.43 139.3 58.4 C 145.9 50.9 148.1 48.5 148.1 45.5 C 148.1 43.4 146.6 42.2 144.9 42.2 C 143 42.2 141.6 43.1 140.7 44.7 C 140.7 44.7 139.1 43.3 139.1 43.3 C 140.4 41.2 142.4 40.1 144.9 40.1 C 148 40.1 150.6 42 150.6 45.5 C 150.6 48.9 148 51.9 142.7 58.2 C 142.73 58.25 150.6 58.2 150.6 58.2 L 150.6 60.4 L 139.3 60.4 Z M 153.8 50.4 C 153.8 45.6 155.4 40.1 160.1 40.1 C 164.8 40.1 166.4 45.6 166.4 50.4 C 166.4 55.2 164.8 60.7 160.1 60.7 C 155.4 60.7 153.8 55.2 153.8 50.4 Z M 163.9 50.4 C 163.9 46.4 163.2 42.2 160.1 42.2 C 157 42.2 156.3 46.4 156.3 50.4 C 156.3 54.3 157 58.6 160.1 58.6 C 163.2 58.6 163.9 54.3 163.9 50.4 Z M 169.7 58.2 C 169.7 58.2 171 56.5 171 56.5 C 171.8 57.8 172.7 58.6 174.3 58.6 C 177.6 58.6 178.7 54.3 178.7 50.6 C 178.7 50.3 178.7 50.2 178.7 50 C 178 51.4 176.4 52.9 174.3 52.9 C 171.4 52.9 169 50.8 169 46.5 C 169 43.2 171.1 40 174.8 40 C 179.6 40 181.1 45 181.1 50.4 C 181.1 55.8 179.2 60.7 174.3 60.7 C 172.2 60.7 170.7 59.7 169.7 58.2 Z M 178.6 47.8 C 178.5 45.6 177.7 42.2 174.9 42.2 C 172.5 42.2 171.5 44.4 171.5 46.5 C 171.5 49.7 173 50.9 174.9 50.9 C 176.6 50.9 177.9 49.4 178.6 47.8 Z M 184.4 59.1 C 184.4 58.2 185.1 57.5 186 57.5 C 186.8 57.5 187.6 58.2 187.6 59.1 C 187.6 60 186.8 60.7 186 60.7 C 185.1 60.7 184.4 60 184.4 59.1 Z M 190.9 57.5 C 190.9 57.5 192.5 56 192.5 56 C 193.5 57.7 194.8 58.6 196.8 58.6 C 198.9 58.6 200.3 56.6 200.3 54.3 C 200.3 51.4 199 49.8 196.9 49.8 C 195.5 49.8 194.4 50.4 193.3 51.7 C 193.27 51.71 191.5 51.1 191.5 51.1 L 191.5 40.4 L 201.7 40.4 L 201.7 42.5 L 193.9 42.5 C 193.9 42.5 193.87 49.49 193.9 49.5 C 194.7 48.5 196 47.7 197.6 47.7 C 200.4 47.7 202.8 50 202.8 54.2 C 202.8 58 200.3 60.7 196.8 60.7 C 193.9 60.7 192.2 59.5 190.9 57.5 Z M 205.7 57.5 C 205.7 57.5 207.3 56 207.3 56 C 208.2 57.7 209.5 58.6 211.5 58.6 C 213.7 58.6 215.1 56.6 215.1 54.3 C 215.1 51.4 213.7 49.8 211.6 49.8 C 210.2 49.8 209.1 50.4 208 51.7 C 208 51.71 206.2 51.1 206.2 51.1 L 206.2 40.4 L 216.4 40.4 L 216.4 42.5 L 208.6 42.5 C 208.6 42.5 208.6 49.49 208.6 49.5 C 209.4 48.5 210.7 47.7 212.3 47.7 C 215.2 47.7 217.5 50 217.5 54.2 C 217.5 58 215 60.7 211.5 60.7 C 208.6 60.7 206.9 59.5 205.7 57.5 Z " stroke="none" fill="#d0d1d4"/>  </g>  <g id="Polygon226327">    <path d="M 150.1 24.4 L 150.1 7.5 L 147 10.8 L 145.6 9.3 L 150.4 4.4 L 152.5 4.4 L 152.5 24.4 L 150.1 24.4 Z M 156.2 24.4 C 156.2 24.4 156.17 22.43 156.2 22.4 C 162.7 14.9 165 12.5 165 9.5 C 165 7.4 163.5 6.2 161.7 6.2 C 159.9 6.2 158.5 7.1 157.5 8.7 C 157.5 8.7 156 7.3 156 7.3 C 157.3 5.2 159.2 4.1 161.8 4.1 C 164.8 4.1 167.4 6 167.4 9.5 C 167.4 12.9 164.9 15.9 159.6 22.2 C 159.56 22.25 167.5 22.2 167.5 22.2 L 167.5 24.4 L 156.2 24.4 Z M 172.2 24.4 L 178.5 6.5 L 170 6.5 L 170 4.4 L 181.2 4.4 L 181.2 6 L 174.8 24.4 L 172.2 24.4 Z M 183.7 23.1 C 183.7 22.2 184.5 21.5 185.3 21.5 C 186.2 21.5 186.9 22.2 186.9 23.1 C 186.9 24 186.2 24.7 185.3 24.7 C 184.5 24.7 183.7 24 183.7 23.1 Z M 190.3 21.5 C 190.3 21.5 191.9 20 191.9 20 C 192.9 21.7 194.2 22.6 196.1 22.6 C 198.3 22.6 199.7 20.6 199.7 18.3 C 199.7 15.4 198.3 13.8 196.3 13.8 C 194.9 13.8 193.8 14.4 192.6 15.7 C 192.64 15.71 190.9 15.1 190.9 15.1 L 190.9 4.4 L 201.1 4.4 L 201.1 6.5 L 193.2 6.5 C 193.2 6.5 193.24 13.49 193.2 13.5 C 194 12.5 195.3 11.7 196.9 11.7 C 199.8 11.7 202.1 14 202.1 18.2 C 202.1 22 199.7 24.7 196.2 24.7 C 193.2 24.7 191.5 23.5 190.3 21.5 Z M 204.9 14.4 C 204.9 9.6 206.5 4.1 211.2 4.1 C 215.8 4.1 217.4 9.6 217.4 14.4 C 217.4 19.2 215.8 24.7 211.2 24.7 C 206.5 24.7 204.9 19.2 204.9 14.4 Z M 215 14.4 C 215 10.4 214.2 6.2 211.2 6.2 C 208.1 6.2 207.3 10.4 207.3 14.4 C 207.3 18.3 208.1 22.6 211.2 22.6 C 214.2 22.6 215 18.3 215 14.4 Z " stroke="none" fill="#d0d1d4"/>  </g></svg>