<?xml version="1.0" standalone="no"?><!DOCTYPE svg PUBLIC "-//W3C//DTD SVG 1.1//EN" "http://www.w3.org/Graphics/SVG/1.1/DTD/svg11.dtd"><svg xmlns="http://www.w3.org/2000/svg" version="1.1" width="486px" height="189.4px" viewBox="0 0 486 189.4">  <desc>A dish so complex and bizarre, sometimes the less completely cooked it was, the better appreciated it is</desc>  <defs/>  <g id="Polygon203762">    <path d="M 14.5 163.6 C 14.5 163.6 14.54 161.52 14.5 161.5 C 13.3 163.3 11.4 164.1 9.5 164.1 C 6.3 164.1 3.6 161.7 3.6 157.6 C 3.6 153.6 6.3 151.3 9.5 151.3 C 11.4 151.3 13.3 152 14.5 153.8 C 14.5 153.8 14.5 150.4 14.5 150.4 C 14.5 147.8 13.1 146.3 10.6 146.3 C 8.8 146.3 7.2 147 5.7 148.6 C 5.7 148.6 4.5 146.6 4.5 146.6 C 6.3 144.7 8.6 143.8 11 143.8 C 14.9 143.8 17.4 145.7 17.4 150.1 C 17.42 150.08 17.4 163.6 17.4 163.6 L 14.5 163.6 Z M 14.5 159.6 C 14.5 159.6 14.5 155.9 14.5 155.9 C 13.7 154.2 12.1 153.4 10.4 153.4 C 8 153.4 6.5 155.3 6.5 157.7 C 6.5 160.1 8 162 10.4 162 C 12.1 162 13.7 161.2 14.5 159.6 Z M 25.5 160.8 C 25.5 160.8 25.5 171 25.5 171 L 22.7 171 L 22.7 144.3 L 25.5 144.3 C 25.5 144.3 25.5 147.04 25.5 147 C 26.6 145.1 28.5 143.8 30.6 143.8 C 34.9 143.8 37.5 147.8 37.5 153.9 C 37.5 160 34.9 164.1 30.6 164.1 C 28.6 164.1 26.7 163 25.5 160.8 Z M 34.5 153.9 C 34.5 149.8 33 146.4 29.9 146.4 C 28.1 146.4 26.3 147.8 25.5 149.5 C 25.5 149.5 25.5 158.3 25.5 158.3 C 26.3 160 28.1 161.5 29.9 161.5 C 33 161.5 34.5 158.1 34.5 153.9 Z M 44.6 160.8 C 44.62 160.8 44.6 171 44.6 171 L 41.8 171 L 41.8 144.3 L 44.6 144.3 C 44.6 144.3 44.62 147.04 44.6 147 C 45.7 145.1 47.7 143.8 49.7 143.8 C 54.1 143.8 56.6 147.8 56.6 153.9 C 56.6 160 54.1 164.1 49.7 164.1 C 47.7 164.1 45.8 163 44.6 160.8 Z M 53.6 153.9 C 53.6 149.8 52.1 146.4 49 146.4 C 47.2 146.4 45.4 147.8 44.6 149.5 C 44.6 149.5 44.6 158.3 44.6 158.3 C 45.4 160 47.2 161.5 49 161.5 C 52.1 161.5 53.6 158.1 53.6 153.9 Z M 60.9 163.6 L 60.9 144.3 L 63.7 144.3 C 63.7 144.3 63.74 147.36 63.7 147.4 C 65 145.3 66.9 143.9 69.2 143.9 C 69.2 143.9 69.2 146.8 69.2 146.8 C 68.9 146.8 68.6 146.7 68.3 146.7 C 66.5 146.7 64.5 148.3 63.7 149.9 C 63.74 149.88 63.7 163.6 63.7 163.6 L 60.9 163.6 Z M 71.6 153.9 C 71.6 148.3 74.5 143.8 79.4 143.8 C 84.5 143.8 87.1 148.4 87.1 154 C 87.06 154 87.1 154.9 87.1 154.9 C 87.1 154.9 74.54 154.88 74.5 154.9 C 74.7 158.8 76.7 161.7 80.1 161.7 C 81.8 161.7 83.5 160.8 84.7 159.3 C 84.7 159.3 86.2 161 86.2 161 C 84.7 162.9 82.5 164.1 79.9 164.1 C 74.7 164.1 71.6 159.8 71.6 153.9 Z M 79.4 146.2 C 76 146.2 74.6 149.9 74.5 152.8 C 74.5 152.8 84.2 152.8 84.2 152.8 C 84.2 149.8 82.9 146.2 79.4 146.2 Z M 90.3 153.9 C 90.3 148.2 93.3 143.8 98.3 143.8 C 101 143.8 102.6 144.9 103.8 146.4 C 103.8 146.4 102.3 148.3 102.3 148.3 C 101.2 146.9 100 146.4 98.5 146.4 C 95.1 146.4 93.3 149.8 93.3 153.9 C 93.3 158 95.1 161.5 98.5 161.5 C 100 161.5 101.2 160.9 102.3 159.6 C 102.3 159.6 103.8 161.5 103.8 161.5 C 102.6 163 101 164.1 98.3 164.1 C 93.3 164.1 90.3 159.6 90.3 153.9 Z M 106.9 139.5 C 106.9 138.4 107.9 137.6 108.9 137.6 C 110 137.6 110.9 138.4 110.9 139.5 C 110.9 140.6 110 141.5 108.9 141.5 C 107.9 141.5 106.9 140.6 106.9 139.5 Z M 107.5 163.6 L 107.5 144.3 L 110.3 144.3 L 110.3 163.6 L 107.5 163.6 Z M 125.5 163.6 C 125.5 163.6 125.54 161.52 125.5 161.5 C 124.3 163.3 122.4 164.1 120.5 164.1 C 117.3 164.1 114.6 161.7 114.6 157.6 C 114.6 153.6 117.3 151.3 120.5 151.3 C 122.4 151.3 124.3 152 125.5 153.8 C 125.5 153.8 125.5 150.4 125.5 150.4 C 125.5 147.8 124.1 146.3 121.6 146.3 C 119.8 146.3 118.2 147 116.7 148.6 C 116.7 148.6 115.5 146.6 115.5 146.6 C 117.3 144.7 119.6 143.8 122 143.8 C 125.9 143.8 128.4 145.7 128.4 150.1 C 128.42 150.08 128.4 163.6 128.4 163.6 L 125.5 163.6 Z M 125.5 159.6 C 125.5 159.6 125.5 155.9 125.5 155.9 C 124.7 154.2 123.1 153.4 121.4 153.4 C 119 153.4 117.5 155.3 117.5 157.7 C 117.5 160.1 119 162 121.4 162 C 123.1 162 124.7 161.2 125.5 159.6 Z M 134.2 159.7 C 134.22 159.72 134.2 146.8 134.2 146.8 L 131.7 146.8 L 131.7 144.3 L 134.2 144.3 L 134.2 139 L 137.1 139 L 137.1 144.3 L 140.4 144.3 L 140.4 146.8 L 137.1 146.8 C 137.1 146.8 137.1 159.2 137.1 159.2 C 137.1 160.7 137.5 161.5 138.7 161.5 C 139.4 161.5 140 161.2 140.3 160.8 C 140.3 160.8 141.2 162.9 141.2 162.9 C 140.5 163.6 139.6 164.1 138.1 164.1 C 135.5 164.1 134.2 162.6 134.2 159.7 Z M 143.2 153.9 C 143.2 148.3 146.2 143.8 151.1 143.8 C 156.1 143.8 158.7 148.4 158.7 154 C 158.7 154 158.7 154.9 158.7 154.9 C 158.7 154.9 146.18 154.88 146.2 154.9 C 146.3 158.8 148.3 161.7 151.7 161.7 C 153.4 161.7 155.1 160.8 156.3 159.3 C 156.3 159.3 157.9 161 157.9 161 C 156.3 162.9 154.1 164.1 151.5 164.1 C 146.3 164.1 143.2 159.8 143.2 153.9 Z M 151 146.2 C 147.6 146.2 146.3 149.9 146.2 152.8 C 146.2 152.8 155.9 152.8 155.9 152.8 C 155.8 149.8 154.5 146.2 151 146.2 Z M 173.9 163.6 C 173.9 163.6 173.94 160.84 173.9 160.8 C 172.8 162.8 170.9 164.1 168.9 164.1 C 164.5 164.1 161.9 160 161.9 154 C 161.9 148 164.5 143.8 168.9 143.8 C 170.8 143.8 172.8 144.9 173.9 147.1 C 173.94 147.08 173.9 136.9 173.9 136.9 L 176.8 136.9 L 176.8 163.6 L 173.9 163.6 Z M 173.9 158.4 C 173.9 158.4 173.9 149.5 173.9 149.5 C 173.2 147.8 171.4 146.4 169.6 146.4 C 166.4 146.4 164.9 149.8 164.9 154 C 164.9 158.1 166.4 161.5 169.6 161.5 C 171.4 161.5 173.2 160.1 173.9 158.4 Z M 190.1 139.5 C 190.1 138.4 191.1 137.6 192.1 137.6 C 193.2 137.6 194.1 138.4 194.1 139.5 C 194.1 140.6 193.2 141.5 192.1 141.5 C 191.1 141.5 190.1 140.6 190.1 139.5 Z M 190.7 163.6 L 190.7 144.3 L 193.5 144.3 L 193.5 163.6 L 190.7 163.6 Z M 199.4 159.7 C 199.38 159.72 199.4 146.8 199.4 146.8 L 196.8 146.8 L 196.8 144.3 L 199.4 144.3 L 199.4 139 L 202.3 139 L 202.3 144.3 L 205.5 144.3 L 205.5 146.8 L 202.3 146.8 C 202.3 146.8 202.26 159.2 202.3 159.2 C 202.3 160.7 202.7 161.5 203.8 161.5 C 204.5 161.5 205.1 161.2 205.5 160.8 C 205.5 160.8 206.4 162.9 206.4 162.9 C 205.7 163.6 204.7 164.1 203.3 164.1 C 200.6 164.1 199.4 162.6 199.4 159.7 Z M 217.4 139.5 C 217.4 138.4 218.3 137.6 219.3 137.6 C 220.4 137.6 221.3 138.4 221.3 139.5 C 221.3 140.6 220.4 141.5 219.3 141.5 C 218.3 141.5 217.4 140.6 217.4 139.5 Z M 217.9 163.6 L 217.9 144.3 L 220.8 144.3 L 220.8 163.6 L 217.9 163.6 Z M 224.5 161.4 C 224.5 161.4 225.9 159.3 225.9 159.3 C 227.1 160.7 228.9 161.8 231 161.8 C 233.2 161.8 234.7 160.5 234.7 158.6 C 234.7 154.1 225.1 155.7 225.1 149 C 225.1 146.1 227.4 143.8 231.2 143.8 C 233.8 143.8 235.7 144.8 237.1 146.3 C 237.1 146.3 235.7 148.2 235.7 148.2 C 234.8 147 233.1 146.1 231.3 146.1 C 229.1 146.1 227.8 147.4 227.8 148.9 C 227.8 153 237.5 151.6 237.5 158.6 C 237.5 161.8 235 164.1 231 164.1 C 228.3 164.1 226.1 163.2 224.5 161.4 Z M 241.3 161.8 C 241.3 160.7 242.3 159.7 243.5 159.7 C 244.6 159.7 245.6 160.7 245.6 161.8 C 245.6 163 244.6 164 243.5 164 C 242.3 164 241.3 163 241.3 161.8 Z " stroke="none" fill="#b13d24"/>  </g>  <g id="Polygon203761">    <path d="M 3.7 109.9 C 3.7 104.2 6.7 99.8 11.7 99.8 C 14.3 99.8 16 100.9 17.2 102.4 C 17.2 102.4 15.6 104.3 15.6 104.3 C 14.6 102.9 13.4 102.4 11.9 102.4 C 8.5 102.4 6.7 105.8 6.7 109.9 C 6.7 114 8.5 117.5 11.9 117.5 C 13.4 117.5 14.6 116.9 15.6 115.6 C 15.6 115.6 17.2 117.5 17.2 117.5 C 16 119 14.3 120.1 11.7 120.1 C 6.7 120.1 3.7 115.6 3.7 109.9 Z M 19.9 109.9 C 19.9 104.5 22.6 99.8 27.7 99.8 C 32.9 99.8 35.6 104.5 35.6 109.9 C 35.6 115.4 32.9 120.1 27.7 120.1 C 22.6 120.1 19.9 115.4 19.9 109.9 Z M 32.6 109.9 C 32.6 106 31.1 102.4 27.7 102.4 C 24.4 102.4 22.9 106 22.9 109.9 C 22.9 113.8 24.4 117.5 27.7 117.5 C 31.1 117.5 32.6 113.8 32.6 109.9 Z M 39 109.9 C 39 104.5 41.7 99.8 46.8 99.8 C 52 99.8 54.7 104.5 54.7 109.9 C 54.7 115.4 52 120.1 46.8 120.1 C 41.7 120.1 39 115.4 39 109.9 Z M 51.7 109.9 C 51.7 106 50.2 102.4 46.8 102.4 C 43.5 102.4 42 106 42 109.9 C 42 113.8 43.5 117.5 46.8 117.5 C 50.2 117.5 51.7 113.8 51.7 109.9 Z M 69.9 119.6 L 64.6 110.9 L 61.9 114.4 L 61.9 119.6 L 59 119.6 L 59 92.9 L 61.9 92.9 L 61.9 110.8 L 69.9 100.3 L 73.3 100.3 L 66.5 109 L 73.3 119.6 L 69.9 119.6 Z M 75.4 109.9 C 75.4 104.3 78.4 99.8 83.3 99.8 C 88.3 99.8 90.9 104.4 90.9 110 C 90.9 110 90.9 110.9 90.9 110.9 C 90.9 110.9 78.38 110.88 78.4 110.9 C 78.5 114.8 80.5 117.7 83.9 117.7 C 85.6 117.7 87.3 116.8 88.5 115.3 C 88.5 115.3 90.1 117 90.1 117 C 88.5 118.9 86.3 120.1 83.7 120.1 C 78.5 120.1 75.4 115.8 75.4 109.9 Z M 83.2 102.2 C 79.8 102.2 78.5 105.9 78.4 108.8 C 78.4 108.8 88.1 108.8 88.1 108.8 C 88 105.8 86.7 102.2 83.2 102.2 Z M 106.1 119.6 C 106.1 119.6 106.14 116.84 106.1 116.8 C 105 118.8 103.1 120.1 101.1 120.1 C 96.7 120.1 94.1 116 94.1 110 C 94.1 104 96.7 99.8 101.1 99.8 C 103 99.8 105 100.9 106.1 103.1 C 106.14 103.08 106.1 92.9 106.1 92.9 L 109 92.9 L 109 119.6 L 106.1 119.6 Z M 106.1 114.4 C 106.1 114.4 106.1 105.5 106.1 105.5 C 105.4 103.8 103.6 102.4 101.8 102.4 C 98.6 102.4 97.1 105.8 97.1 110 C 97.1 114.1 98.6 117.5 101.8 117.5 C 103.6 117.5 105.4 116.1 106.1 114.4 Z M 122.3 95.5 C 122.3 94.4 123.3 93.6 124.3 93.6 C 125.4 93.6 126.3 94.4 126.3 95.5 C 126.3 96.6 125.4 97.5 124.3 97.5 C 123.3 97.5 122.3 96.6 122.3 95.5 Z M 122.9 119.6 L 122.9 100.3 L 125.7 100.3 L 125.7 119.6 L 122.9 119.6 Z M 131.6 115.7 C 131.58 115.72 131.6 102.8 131.6 102.8 L 129 102.8 L 129 100.3 L 131.6 100.3 L 131.6 95 L 134.5 95 L 134.5 100.3 L 137.7 100.3 L 137.7 102.8 L 134.5 102.8 C 134.5 102.8 134.46 115.2 134.5 115.2 C 134.5 116.7 134.9 117.5 136 117.5 C 136.7 117.5 137.3 117.2 137.7 116.8 C 137.7 116.8 138.6 118.9 138.6 118.9 C 137.9 119.6 136.9 120.1 135.5 120.1 C 132.8 120.1 131.6 118.6 131.6 115.7 Z M 164.4 119.6 L 160.3 104.1 L 156.1 119.6 L 153.2 119.6 L 148 100.3 L 151 100.3 L 154.8 115.7 L 158.9 100.3 L 161.6 100.3 L 165.7 115.7 L 169.5 100.3 L 172.5 100.3 L 167.3 119.6 L 164.4 119.6 Z M 185.6 119.6 C 185.6 119.6 185.58 117.52 185.6 117.5 C 184.3 119.3 182.5 120.1 180.5 120.1 C 177.4 120.1 174.7 117.7 174.7 113.6 C 174.7 109.6 177.3 107.3 180.5 107.3 C 182.5 107.3 184.4 108 185.6 109.8 C 185.6 109.8 185.6 106.4 185.6 106.4 C 185.6 103.8 184.1 102.3 181.6 102.3 C 179.8 102.3 178.3 103 176.8 104.6 C 176.8 104.6 175.5 102.6 175.5 102.6 C 177.3 100.7 179.6 99.8 182.1 99.8 C 185.9 99.8 188.5 101.7 188.5 106.1 C 188.46 106.08 188.5 119.6 188.5 119.6 L 185.6 119.6 Z M 185.6 115.6 C 185.6 115.6 185.6 111.9 185.6 111.9 C 184.7 110.2 183.1 109.4 181.4 109.4 C 179 109.4 177.6 111.3 177.6 113.7 C 177.6 116.1 179 118 181.4 118 C 183.1 118 184.7 117.2 185.6 115.6 Z M 192.1 117.4 C 192.1 117.4 193.6 115.3 193.6 115.3 C 194.7 116.7 196.5 117.8 198.6 117.8 C 200.9 117.8 202.3 116.5 202.3 114.6 C 202.3 110.1 192.7 111.7 192.7 105 C 192.7 102.1 195 99.8 198.9 99.8 C 201.4 99.8 203.4 100.8 204.7 102.3 C 204.7 102.3 203.4 104.2 203.4 104.2 C 202.4 103 200.8 102.1 198.9 102.1 C 196.8 102.1 195.5 103.4 195.5 104.9 C 195.5 109 205.1 107.6 205.1 114.6 C 205.1 117.8 202.6 120.1 198.7 120.1 C 195.9 120.1 193.7 119.2 192.1 117.4 Z M 210.3 124.6 C 210.3 124.6 208.8 123.5 208.8 123.5 C 210.1 122.6 211.2 121 211.4 119.8 C 211.3 119.8 211 119.8 210.9 119.8 C 209.8 119.8 209 119 209 117.8 C 209 116.7 209.9 115.7 211.1 115.7 C 212.3 115.7 213.5 116.8 213.5 118.7 C 213.5 121.1 212.1 123.4 210.3 124.6 Z M 227.5 115.7 C 227.46 115.72 227.5 102.8 227.5 102.8 L 224.9 102.8 L 224.9 100.3 L 227.5 100.3 L 227.5 95 L 230.3 95 L 230.3 100.3 L 233.6 100.3 L 233.6 102.8 L 230.3 102.8 C 230.3 102.8 230.34 115.2 230.3 115.2 C 230.3 116.7 230.8 117.5 231.9 117.5 C 232.6 117.5 233.2 117.2 233.6 116.8 C 233.6 116.8 234.5 118.9 234.5 118.9 C 233.8 119.6 232.8 120.1 231.3 120.1 C 228.7 120.1 227.5 118.6 227.5 115.7 Z M 247.9 119.6 C 247.9 119.6 247.9 105.8 247.9 105.8 C 247.9 103.2 246.7 102.4 244.8 102.4 C 242.9 102.4 241.1 103.8 240.3 105.4 C 240.26 105.44 240.3 119.6 240.3 119.6 L 237.4 119.6 L 237.4 92.9 L 240.3 92.9 C 240.3 92.9 240.26 103.04 240.3 103 C 241.4 101.4 243.6 99.8 245.9 99.8 C 249.2 99.8 250.7 101.4 250.7 105 C 250.74 104.96 250.7 119.6 250.7 119.6 L 247.9 119.6 Z M 255.1 109.9 C 255.1 104.3 258 99.8 262.9 99.8 C 268 99.8 270.5 104.4 270.5 110 C 270.54 110 270.5 110.9 270.5 110.9 C 270.5 110.9 258.02 110.88 258 110.9 C 258.1 114.8 260.1 117.7 263.6 117.7 C 265.3 117.7 267 116.8 268.2 115.3 C 268.2 115.3 269.7 117 269.7 117 C 268.1 118.9 265.9 120.1 263.3 120.1 C 258.2 120.1 255.1 115.8 255.1 109.9 Z M 262.9 102.2 C 259.5 102.2 258.1 105.9 258 108.8 C 258 108.8 267.7 108.8 267.7 108.8 C 267.7 105.8 266.4 102.2 262.9 102.2 Z M 290.5 117.5 C 293.7 117.5 295.2 114.1 295.2 110 C 295.2 105.8 293.7 102.4 290.5 102.4 C 288.7 102.4 286.9 103.9 286.2 105.6 C 286.2 105.6 286.2 114.4 286.2 114.4 C 286.9 116.1 288.7 117.5 290.5 117.5 Z M 283.3 119.6 L 283.3 92.9 L 286.2 92.9 C 286.2 92.9 286.18 103.08 286.2 103.1 C 287.4 100.9 289.3 99.8 291.3 99.8 C 295.6 99.8 298.2 104 298.2 110 C 298.2 116 295.6 120.1 291.3 120.1 C 289.2 120.1 287.3 118.8 286.2 116.8 C 286.18 116.84 286.2 119.6 286.2 119.6 L 283.3 119.6 Z M 301.6 109.9 C 301.6 104.3 304.5 99.8 309.4 99.8 C 314.5 99.8 317.1 104.4 317.1 110 C 317.06 110 317.1 110.9 317.1 110.9 C 317.1 110.9 304.54 110.88 304.5 110.9 C 304.7 114.8 306.7 117.7 310.1 117.7 C 311.8 117.7 313.5 116.8 314.7 115.3 C 314.7 115.3 316.2 117 316.2 117 C 314.7 118.9 312.5 120.1 309.9 120.1 C 304.7 120.1 301.6 115.8 301.6 109.9 Z M 309.4 102.2 C 306 102.2 304.6 105.9 304.5 108.8 C 304.5 108.8 314.2 108.8 314.2 108.8 C 314.2 105.8 312.9 102.2 309.4 102.2 Z M 321.8 115.7 C 321.82 115.72 321.8 102.8 321.8 102.8 L 319.3 102.8 L 319.3 100.3 L 321.8 100.3 L 321.8 95 L 324.7 95 L 324.7 100.3 L 328 100.3 L 328 102.8 L 324.7 102.8 C 324.7 102.8 324.7 115.2 324.7 115.2 C 324.7 116.7 325.1 117.5 326.3 117.5 C 327 117.5 327.6 117.2 327.9 116.8 C 327.9 116.8 328.8 118.9 328.8 118.9 C 328.1 119.6 327.2 120.1 325.7 120.1 C 323.1 120.1 321.8 118.6 321.8 115.7 Z M 332.3 115.7 C 332.34 115.72 332.3 102.8 332.3 102.8 L 329.8 102.8 L 329.8 100.3 L 332.3 100.3 L 332.3 95 L 335.2 95 L 335.2 100.3 L 338.5 100.3 L 338.5 102.8 L 335.2 102.8 C 335.2 102.8 335.22 115.2 335.2 115.2 C 335.2 116.7 335.7 117.5 336.8 117.5 C 337.5 117.5 338.1 117.2 338.5 116.8 C 338.5 116.8 339.3 118.9 339.3 118.9 C 338.7 119.6 337.7 120.1 336.2 120.1 C 333.6 120.1 332.3 118.6 332.3 115.7 Z M 341.3 109.9 C 341.3 104.3 344.3 99.8 349.2 99.8 C 354.3 99.8 356.8 104.4 356.8 110 C 356.82 110 356.8 110.9 356.8 110.9 C 356.8 110.9 344.3 110.88 344.3 110.9 C 344.4 114.8 346.4 117.7 349.9 117.7 C 351.5 117.7 353.3 116.8 354.5 115.3 C 354.5 115.3 356 117 356 117 C 354.4 118.9 352.2 120.1 349.6 120.1 C 344.5 120.1 341.3 115.8 341.3 109.9 Z M 349.1 102.2 C 345.7 102.2 344.4 105.9 344.3 108.8 C 344.3 108.8 354 108.8 354 108.8 C 353.9 105.8 352.7 102.2 349.1 102.2 Z M 361 119.6 L 361 100.3 L 363.9 100.3 C 363.9 100.3 363.86 103.36 363.9 103.4 C 365.1 101.3 367 99.9 369.3 99.9 C 369.3 99.9 369.3 102.8 369.3 102.8 C 369 102.8 368.7 102.7 368.4 102.7 C 366.6 102.7 364.7 104.3 363.9 105.9 C 363.86 105.88 363.9 119.6 363.9 119.6 L 361 119.6 Z " stroke="none" fill="#b13d24"/>  </g>  <g id="Polygon203760">    <path d="M 3.1 73.4 C 3.1 73.4 4.5 71.3 4.5 71.3 C 5.6 72.7 7.5 73.8 9.5 73.8 C 11.8 73.8 13.3 72.5 13.3 70.6 C 13.3 66.1 3.6 67.7 3.6 61 C 3.6 58.1 5.9 55.8 9.8 55.8 C 12.3 55.8 14.3 56.8 15.7 58.3 C 15.7 58.3 14.3 60.2 14.3 60.2 C 13.3 59 11.7 58.1 9.8 58.1 C 7.7 58.1 6.4 59.4 6.4 60.9 C 6.4 65 16 63.6 16 70.6 C 16 73.8 13.5 76.1 9.6 76.1 C 6.9 76.1 4.7 75.2 3.1 73.4 Z M 19.1 65.9 C 19.1 60.5 21.9 55.8 27 55.8 C 32.2 55.8 34.9 60.5 34.9 65.9 C 34.9 71.4 32.2 76.1 27 76.1 C 21.9 76.1 19.1 71.4 19.1 65.9 Z M 31.9 65.9 C 31.9 62 30.4 58.4 27 58.4 C 23.7 58.4 22.1 62 22.1 65.9 C 22.1 69.8 23.7 73.5 27 73.5 C 30.4 73.5 31.9 69.8 31.9 65.9 Z M 58.7 75.6 C 58.7 75.6 58.7 61.6 58.7 61.6 C 58.7 59.5 57.9 58.4 56 58.4 C 54.3 58.4 52.6 59.9 51.8 61.4 C 51.82 61.44 51.8 75.6 51.8 75.6 L 48.9 75.6 C 48.9 75.6 48.94 61.6 48.9 61.6 C 48.9 59.5 48.1 58.4 46.2 58.4 C 44.5 58.4 42.9 59.9 42 61.4 C 42.02 61.44 42 75.6 42 75.6 L 39.2 75.6 L 39.2 56.3 L 42 56.3 C 42 56.3 42.02 59.04 42 59 C 42.8 57.6 45 55.8 47.3 55.8 C 49.8 55.8 51.3 57.2 51.7 59.2 C 52.6 57.5 54.8 55.8 57.1 55.8 C 59.9 55.8 61.6 57.4 61.6 60.8 C 61.58 60.84 61.6 75.6 61.6 75.6 L 58.7 75.6 Z M 65.9 65.9 C 65.9 60.3 68.9 55.8 73.7 55.8 C 78.8 55.8 81.4 60.4 81.4 66 C 81.38 66 81.4 66.9 81.4 66.9 C 81.4 66.9 68.86 66.88 68.9 66.9 C 69 70.8 71 73.7 74.4 73.7 C 76.1 73.7 77.8 72.8 79 71.3 C 79 71.3 80.5 73 80.5 73 C 79 74.9 76.8 76.1 74.2 76.1 C 69 76.1 65.9 71.8 65.9 65.9 Z M 73.7 58.2 C 70.3 58.2 68.9 61.9 68.9 64.8 C 68.9 64.8 78.5 64.8 78.5 64.8 C 78.5 61.8 77.2 58.2 73.7 58.2 Z M 86.1 71.7 C 86.14 71.72 86.1 58.8 86.1 58.8 L 83.6 58.8 L 83.6 56.3 L 86.1 56.3 L 86.1 51 L 89 51 L 89 56.3 L 92.3 56.3 L 92.3 58.8 L 89 58.8 C 89 58.8 89.02 71.2 89 71.2 C 89 72.7 89.5 73.5 90.6 73.5 C 91.3 73.5 91.9 73.2 92.3 72.8 C 92.3 72.8 93.1 74.9 93.1 74.9 C 92.5 75.6 91.5 76.1 90 76.1 C 87.4 76.1 86.1 74.6 86.1 71.7 Z M 95.5 51.5 C 95.5 50.4 96.5 49.6 97.5 49.6 C 98.6 49.6 99.5 50.4 99.5 51.5 C 99.5 52.6 98.6 53.5 97.5 53.5 C 96.5 53.5 95.5 52.6 95.5 51.5 Z M 96.1 75.6 L 96.1 56.3 L 98.9 56.3 L 98.9 75.6 L 96.1 75.6 Z M 123.7 75.6 C 123.7 75.6 123.74 61.6 123.7 61.6 C 123.7 59.5 122.9 58.4 121.1 58.4 C 119.3 58.4 117.6 59.9 116.9 61.4 C 116.86 61.44 116.9 75.6 116.9 75.6 L 114 75.6 C 114 75.6 113.98 61.6 114 61.6 C 114 59.5 113.1 58.4 111.3 58.4 C 109.5 58.4 107.9 59.9 107.1 61.4 C 107.06 61.44 107.1 75.6 107.1 75.6 L 104.2 75.6 L 104.2 56.3 L 107.1 56.3 C 107.1 56.3 107.06 59.04 107.1 59 C 107.9 57.6 110 55.8 112.3 55.8 C 114.8 55.8 116.3 57.2 116.7 59.2 C 117.7 57.5 119.8 55.8 122.1 55.8 C 125 55.8 126.6 57.4 126.6 60.8 C 126.62 60.84 126.6 75.6 126.6 75.6 L 123.7 75.6 Z M 130.9 65.9 C 130.9 60.3 133.9 55.8 138.8 55.8 C 143.9 55.8 146.4 60.4 146.4 66 C 146.42 66 146.4 66.9 146.4 66.9 C 146.4 66.9 133.9 66.88 133.9 66.9 C 134 70.8 136 73.7 139.5 73.7 C 141.1 73.7 142.9 72.8 144.1 71.3 C 144.1 71.3 145.6 73 145.6 73 C 144 74.9 141.8 76.1 139.2 76.1 C 134.1 76.1 130.9 71.8 130.9 65.9 Z M 138.7 58.2 C 135.3 58.2 134 61.9 133.9 64.8 C 133.9 64.8 143.6 64.8 143.6 64.8 C 143.5 61.8 142.3 58.2 138.7 58.2 Z M 149.1 73.4 C 149.1 73.4 150.5 71.3 150.5 71.3 C 151.6 72.7 153.5 73.8 155.5 73.8 C 157.8 73.8 159.3 72.5 159.3 70.6 C 159.3 66.1 149.6 67.7 149.6 61 C 149.6 58.1 151.9 55.8 155.8 55.8 C 158.3 55.8 160.3 56.8 161.7 58.3 C 161.7 58.3 160.3 60.2 160.3 60.2 C 159.3 59 157.7 58.1 155.8 58.1 C 153.7 58.1 152.4 59.4 152.4 60.9 C 152.4 65 162 63.6 162 70.6 C 162 73.8 159.5 76.1 155.6 76.1 C 152.9 76.1 150.7 75.2 149.1 73.4 Z M 175.3 71.7 C 175.26 71.72 175.3 58.8 175.3 58.8 L 172.7 58.8 L 172.7 56.3 L 175.3 56.3 L 175.3 51 L 178.1 51 L 178.1 56.3 L 181.4 56.3 L 181.4 58.8 L 178.1 58.8 C 178.1 58.8 178.14 71.2 178.1 71.2 C 178.1 72.7 178.6 73.5 179.7 73.5 C 180.4 73.5 181 73.2 181.4 72.8 C 181.4 72.8 182.3 74.9 182.3 74.9 C 181.6 75.6 180.6 76.1 179.1 76.1 C 176.5 76.1 175.3 74.6 175.3 71.7 Z M 195.7 75.6 C 195.7 75.6 195.7 61.8 195.7 61.8 C 195.7 59.2 194.5 58.4 192.6 58.4 C 190.7 58.4 188.9 59.8 188.1 61.4 C 188.06 61.44 188.1 75.6 188.1 75.6 L 185.2 75.6 L 185.2 48.9 L 188.1 48.9 C 188.1 48.9 188.06 59.04 188.1 59 C 189.2 57.4 191.4 55.8 193.7 55.8 C 197 55.8 198.5 57.4 198.5 61 C 198.54 60.96 198.5 75.6 198.5 75.6 L 195.7 75.6 Z M 202.9 65.9 C 202.9 60.3 205.8 55.8 210.7 55.8 C 215.8 55.8 218.3 60.4 218.3 66 C 218.34 66 218.3 66.9 218.3 66.9 C 218.3 66.9 205.82 66.88 205.8 66.9 C 205.9 70.8 207.9 73.7 211.4 73.7 C 213.1 73.7 214.8 72.8 216 71.3 C 216 71.3 217.5 73 217.5 73 C 215.9 74.9 213.7 76.1 211.1 76.1 C 206 76.1 202.9 71.8 202.9 65.9 Z M 210.7 58.2 C 207.3 58.2 205.9 61.9 205.8 64.8 C 205.8 64.8 215.5 64.8 215.5 64.8 C 215.5 61.8 214.2 58.2 210.7 58.2 Z M 231.1 75.6 L 231.1 48.9 L 234 48.9 L 234 75.6 L 231.1 75.6 Z M 238.3 65.9 C 238.3 60.3 241.3 55.8 246.1 55.8 C 251.2 55.8 253.8 60.4 253.8 66 C 253.78 66 253.8 66.9 253.8 66.9 C 253.8 66.9 241.26 66.88 241.3 66.9 C 241.4 70.8 243.4 73.7 246.8 73.7 C 248.5 73.7 250.2 72.8 251.4 71.3 C 251.4 71.3 252.9 73 252.9 73 C 251.4 74.9 249.2 76.1 246.6 76.1 C 241.4 76.1 238.3 71.8 238.3 65.9 Z M 246.1 58.2 C 242.7 58.2 241.3 61.9 241.3 64.8 C 241.3 64.8 250.9 64.8 250.9 64.8 C 250.9 61.8 249.6 58.2 246.1 58.2 Z M 256.4 73.4 C 256.4 73.4 257.9 71.3 257.9 71.3 C 259 72.7 260.8 73.8 262.9 73.8 C 265.1 73.8 266.6 72.5 266.6 70.6 C 266.6 66.1 257 67.7 257 61 C 257 58.1 259.3 55.8 263.1 55.8 C 265.7 55.8 267.7 56.8 269 58.3 C 269 58.3 267.7 60.2 267.7 60.2 C 266.7 59 265.1 58.1 263.2 58.1 C 261.1 58.1 259.7 59.4 259.7 60.9 C 259.7 65 269.4 63.6 269.4 70.6 C 269.4 73.8 266.9 76.1 262.9 76.1 C 260.2 76.1 258 75.2 256.4 73.4 Z M 271.9 73.4 C 271.9 73.4 273.3 71.3 273.3 71.3 C 274.5 72.7 276.3 73.8 278.4 73.8 C 280.6 73.8 282.1 72.5 282.1 70.6 C 282.1 66.1 272.5 67.7 272.5 61 C 272.5 58.1 274.8 55.8 278.6 55.8 C 281.2 55.8 283.1 56.8 284.5 58.3 C 284.5 58.3 283.1 60.2 283.1 60.2 C 282.2 59 280.5 58.1 278.7 58.1 C 276.5 58.1 275.2 59.4 275.2 60.9 C 275.2 65 284.9 63.6 284.9 70.6 C 284.9 73.8 282.4 76.1 278.4 76.1 C 275.7 76.1 273.5 75.2 271.9 73.4 Z M 296.6 65.9 C 296.6 60.2 299.6 55.8 304.6 55.8 C 307.3 55.8 308.9 56.9 310.1 58.4 C 310.1 58.4 308.5 60.3 308.5 60.3 C 307.5 58.9 306.3 58.4 304.8 58.4 C 301.4 58.4 299.6 61.8 299.6 65.9 C 299.6 70 301.4 73.5 304.8 73.5 C 306.3 73.5 307.5 72.9 308.5 71.6 C 308.5 71.6 310.1 73.5 310.1 73.5 C 308.9 75 307.3 76.1 304.6 76.1 C 299.6 76.1 296.6 71.6 296.6 65.9 Z M 312.8 65.9 C 312.8 60.5 315.5 55.8 320.7 55.8 C 325.9 55.8 328.5 60.5 328.5 65.9 C 328.5 71.4 325.9 76.1 320.7 76.1 C 315.5 76.1 312.8 71.4 312.8 65.9 Z M 325.5 65.9 C 325.5 62 324.1 58.4 320.7 58.4 C 317.3 58.4 315.8 62 315.8 65.9 C 315.8 69.8 317.3 73.5 320.7 73.5 C 324.1 73.5 325.5 69.8 325.5 65.9 Z M 352.4 75.6 C 352.4 75.6 352.38 61.6 352.4 61.6 C 352.4 59.5 351.5 58.4 349.7 58.4 C 348 58.4 346.3 59.9 345.5 61.4 C 345.5 61.44 345.5 75.6 345.5 75.6 L 342.6 75.6 C 342.6 75.6 342.62 61.6 342.6 61.6 C 342.6 59.5 341.8 58.4 339.9 58.4 C 338.2 58.4 336.5 59.9 335.7 61.4 C 335.7 61.44 335.7 75.6 335.7 75.6 L 332.9 75.6 L 332.9 56.3 L 335.7 56.3 C 335.7 56.3 335.7 59.04 335.7 59 C 336.5 57.6 338.7 55.8 341 55.8 C 343.5 55.8 345 57.2 345.3 59.2 C 346.3 57.5 348.5 55.8 350.8 55.8 C 353.6 55.8 355.3 57.4 355.3 60.8 C 355.26 60.84 355.3 75.6 355.3 75.6 L 352.4 75.6 Z M 363.4 72.8 C 363.38 72.8 363.4 83 363.4 83 L 360.5 83 L 360.5 56.3 L 363.4 56.3 C 363.4 56.3 363.38 59.04 363.4 59 C 364.5 57.1 366.4 55.8 368.5 55.8 C 372.8 55.8 375.4 59.8 375.4 65.9 C 375.4 72 372.8 76.1 368.5 76.1 C 366.5 76.1 364.6 75 363.4 72.8 Z M 372.4 65.9 C 372.4 61.8 370.9 58.4 367.7 58.4 C 365.9 58.4 364.1 59.8 363.4 61.5 C 363.4 61.5 363.4 70.3 363.4 70.3 C 364.1 72 365.9 73.5 367.7 73.5 C 370.9 73.5 372.4 70.1 372.4 65.9 Z M 379.7 75.6 L 379.7 48.9 L 382.5 48.9 L 382.5 75.6 L 379.7 75.6 Z M 386.8 65.9 C 386.8 60.3 389.8 55.8 394.7 55.8 C 399.7 55.8 402.3 60.4 402.3 66 C 402.29 66 402.3 66.9 402.3 66.9 C 402.3 66.9 389.77 66.88 389.8 66.9 C 389.9 70.8 391.9 73.7 395.3 73.7 C 397 73.7 398.7 72.8 399.9 71.3 C 399.9 71.3 401.5 73 401.5 73 C 399.9 74.9 397.7 76.1 395.1 76.1 C 389.9 76.1 386.8 71.8 386.8 65.9 Z M 394.6 58.2 C 391.2 58.2 389.9 61.9 389.8 64.8 C 389.8 64.8 399.5 64.8 399.5 64.8 C 399.4 61.8 398.1 58.2 394.6 58.2 Z M 407.1 71.7 C 407.05 71.72 407.1 58.8 407.1 58.8 L 404.5 58.8 L 404.5 56.3 L 407.1 56.3 L 407.1 51 L 409.9 51 L 409.9 56.3 L 413.2 56.3 L 413.2 58.8 L 409.9 58.8 C 409.9 58.8 409.93 71.2 409.9 71.2 C 409.9 72.7 410.4 73.5 411.5 73.5 C 412.2 73.5 412.8 73.2 413.2 72.8 C 413.2 72.8 414.1 74.9 414.1 74.9 C 413.4 75.6 412.4 76.1 410.9 76.1 C 408.3 76.1 407.1 74.6 407.1 71.7 Z M 416.1 65.9 C 416.1 60.3 419 55.8 423.9 55.8 C 429 55.8 431.5 60.4 431.5 66 C 431.53 66 431.5 66.9 431.5 66.9 C 431.5 66.9 419.01 66.88 419 66.9 C 419.1 70.8 421.1 73.7 424.6 73.7 C 426.3 73.7 428 72.8 429.2 71.3 C 429.2 71.3 430.7 73 430.7 73 C 429.1 74.9 426.9 76.1 424.3 76.1 C 419.2 76.1 416.1 71.8 416.1 65.9 Z M 423.9 58.2 C 420.5 58.2 419.1 61.9 419 64.8 C 419 64.8 428.7 64.8 428.7 64.8 C 428.7 61.8 427.4 58.2 423.9 58.2 Z M 435.7 75.6 L 435.7 48.9 L 438.6 48.9 L 438.6 75.6 L 435.7 75.6 Z M 443.3 80.6 C 443.7 80.8 444.3 80.9 444.6 80.9 C 445.7 80.9 446.3 80.4 446.9 79 C 446.85 78.96 447.9 76 447.9 76 L 441.5 56.3 L 444.6 56.3 L 449.4 72.1 L 454.2 56.3 L 457.3 56.3 C 457.3 56.3 449.57 79.68 449.6 79.7 C 448.6 82.5 447.1 83.4 444.8 83.4 C 444.2 83.4 443.3 83.3 442.9 83.2 C 442.9 83.2 443.3 80.6 443.3 80.6 Z " stroke="none" fill="#b13d24"/>  </g>  <g id="Polygon203759">    <path d="M 18.7 31.6 L 16.9 25.6 L 7.5 25.6 L 5.7 31.6 L 2.3 31.6 L 10.3 4.9 L 14.1 4.9 L 22.1 31.6 L 18.7 31.6 Z M 12.2 8.4 L 8.1 22.8 L 16.3 22.8 L 12.2 8.4 Z M 44.7 31.6 C 44.7 31.6 44.7 28.84 44.7 28.8 C 43.6 30.8 41.7 32.1 39.6 32.1 C 35.3 32.1 32.7 28 32.7 22 C 32.7 16 35.3 11.8 39.6 11.8 C 41.6 11.8 43.5 12.9 44.7 15.1 C 44.7 15.08 44.7 4.9 44.7 4.9 L 47.6 4.9 L 47.6 31.6 L 44.7 31.6 Z M 44.7 26.4 C 44.7 26.4 44.7 17.5 44.7 17.5 C 44 15.8 42.2 14.4 40.3 14.4 C 37.2 14.4 35.7 17.8 35.7 22 C 35.7 26.1 37.2 29.5 40.3 29.5 C 42.2 29.5 44 28.1 44.7 26.4 Z M 52.3 7.5 C 52.3 6.4 53.2 5.6 54.3 5.6 C 55.3 5.6 56.2 6.4 56.2 7.5 C 56.2 8.6 55.3 9.5 54.3 9.5 C 53.2 9.5 52.3 8.6 52.3 7.5 Z M 52.9 31.6 L 52.9 12.3 L 55.7 12.3 L 55.7 31.6 L 52.9 31.6 Z M 59.4 29.4 C 59.4 29.4 60.9 27.3 60.9 27.3 C 62 28.7 63.8 29.8 65.9 29.8 C 68.1 29.8 69.6 28.5 69.6 26.6 C 69.6 22.1 60 23.7 60 17 C 60 14.1 62.3 11.8 66.1 11.8 C 68.7 11.8 70.7 12.8 72 14.3 C 72 14.3 70.7 16.2 70.7 16.2 C 69.7 15 68.1 14.1 66.2 14.1 C 64.1 14.1 62.7 15.4 62.7 16.9 C 62.7 21 72.4 19.6 72.4 26.6 C 72.4 29.8 69.9 32.1 65.9 32.1 C 63.2 32.1 61 31.2 59.4 29.4 Z M 86.9 31.6 C 86.9 31.6 86.94 17.8 86.9 17.8 C 86.9 15.2 85.7 14.4 83.8 14.4 C 81.9 14.4 80.2 15.8 79.3 17.4 C 79.3 17.44 79.3 31.6 79.3 31.6 L 76.5 31.6 L 76.5 4.9 L 79.3 4.9 C 79.3 4.9 79.3 15.04 79.3 15 C 80.4 13.4 82.6 11.8 84.9 11.8 C 88.2 11.8 89.8 13.4 89.8 17 C 89.78 16.96 89.8 31.6 89.8 31.6 L 86.9 31.6 Z M 102.1 29.4 C 102.1 29.4 103.5 27.3 103.5 27.3 C 104.7 28.7 106.5 29.8 108.6 29.8 C 110.8 29.8 112.3 28.5 112.3 26.6 C 112.3 22.1 102.7 23.7 102.7 17 C 102.7 14.1 105 11.8 108.8 11.8 C 111.4 11.8 113.3 12.8 114.7 14.3 C 114.7 14.3 113.3 16.2 113.3 16.2 C 112.4 15 110.7 14.1 108.9 14.1 C 106.7 14.1 105.4 15.4 105.4 16.9 C 105.4 21 115.1 19.6 115.1 26.6 C 115.1 29.8 112.6 32.1 108.6 32.1 C 105.9 32.1 103.7 31.2 102.1 29.4 Z M 118.2 21.9 C 118.2 16.5 120.9 11.8 126 11.8 C 131.2 11.8 133.9 16.5 133.9 21.9 C 133.9 27.4 131.2 32.1 126 32.1 C 120.9 32.1 118.2 27.4 118.2 21.9 Z M 130.9 21.9 C 130.9 18 129.4 14.4 126 14.4 C 122.7 14.4 121.2 18 121.2 21.9 C 121.2 25.8 122.7 29.5 126 29.5 C 129.4 29.5 130.9 25.8 130.9 21.9 Z M 145.9 21.9 C 145.9 16.2 148.9 11.8 153.9 11.8 C 156.5 11.8 158.2 12.9 159.4 14.4 C 159.4 14.4 157.8 16.3 157.8 16.3 C 156.8 14.9 155.6 14.4 154.1 14.4 C 150.7 14.4 148.9 17.8 148.9 21.9 C 148.9 26 150.7 29.5 154.1 29.5 C 155.6 29.5 156.8 28.9 157.8 27.6 C 157.8 27.6 159.4 29.5 159.4 29.5 C 158.2 31 156.5 32.1 153.9 32.1 C 148.9 32.1 145.9 27.6 145.9 21.9 Z M 162.1 21.9 C 162.1 16.5 164.8 11.8 169.9 11.8 C 175.1 11.8 177.8 16.5 177.8 21.9 C 177.8 27.4 175.1 32.1 169.9 32.1 C 164.8 32.1 162.1 27.4 162.1 21.9 Z M 174.8 21.9 C 174.8 18 173.3 14.4 169.9 14.4 C 166.6 14.4 165.1 18 165.1 21.9 C 165.1 25.8 166.6 29.5 169.9 29.5 C 173.3 29.5 174.8 25.8 174.8 21.9 Z M 201.7 31.6 C 201.7 31.6 201.66 17.6 201.7 17.6 C 201.7 15.5 200.8 14.4 199 14.4 C 197.3 14.4 195.5 15.9 194.8 17.4 C 194.78 17.44 194.8 31.6 194.8 31.6 L 191.9 31.6 C 191.9 31.6 191.9 17.6 191.9 17.6 C 191.9 15.5 191.1 14.4 189.2 14.4 C 187.5 14.4 185.8 15.9 185 17.4 C 184.98 17.44 185 31.6 185 31.6 L 182.1 31.6 L 182.1 12.3 L 185 12.3 C 185 12.3 184.98 15.04 185 15 C 185.8 13.6 187.9 11.8 190.3 11.8 C 192.7 11.8 194.3 13.2 194.6 15.2 C 195.6 13.5 197.7 11.8 200.1 11.8 C 202.9 11.8 204.5 13.4 204.5 16.8 C 204.54 16.84 204.5 31.6 204.5 31.6 L 201.7 31.6 Z M 212.7 28.8 C 212.66 28.8 212.7 39 212.7 39 L 209.8 39 L 209.8 12.3 L 212.7 12.3 C 212.7 12.3 212.66 15.04 212.7 15 C 213.8 13.1 215.7 11.8 217.7 11.8 C 222.1 11.8 224.7 15.8 224.7 21.9 C 224.7 28 222.1 32.1 217.7 32.1 C 215.8 32.1 213.9 31 212.7 28.8 Z M 221.7 21.9 C 221.7 17.8 220.2 14.4 217 14.4 C 215.2 14.4 213.4 15.8 212.7 17.5 C 212.7 17.5 212.7 26.3 212.7 26.3 C 213.4 28 215.2 29.5 217 29.5 C 220.2 29.5 221.7 26.1 221.7 21.9 Z M 228.9 31.6 L 228.9 4.9 L 231.8 4.9 L 231.8 31.6 L 228.9 31.6 Z M 236.1 21.9 C 236.1 16.3 239.1 11.8 243.9 11.8 C 249 11.8 251.6 16.4 251.6 22 C 251.58 22 251.6 22.9 251.6 22.9 C 251.6 22.9 239.06 22.88 239.1 22.9 C 239.2 26.8 241.2 29.7 244.6 29.7 C 246.3 29.7 248 28.8 249.2 27.3 C 249.2 27.3 250.7 29 250.7 29 C 249.2 30.9 247 32.1 244.4 32.1 C 239.2 32.1 236.1 27.8 236.1 21.9 Z M 243.9 14.2 C 240.5 14.2 239.1 17.9 239.1 20.8 C 239.1 20.8 248.7 20.8 248.7 20.8 C 248.7 17.8 247.4 14.2 243.9 14.2 Z M 265.7 31.6 L 261.3 23.8 L 256.8 31.6 L 253.6 31.6 L 259.5 21.8 L 253.9 12.3 L 257.1 12.3 L 261.3 19.6 L 265.4 12.3 L 268.6 12.3 L 263 21.8 L 268.9 31.6 L 265.7 31.6 Z M 290.5 31.6 C 290.5 31.6 290.54 29.52 290.5 29.5 C 289.3 31.3 287.4 32.1 285.5 32.1 C 282.3 32.1 279.6 29.7 279.6 25.6 C 279.6 21.6 282.3 19.3 285.5 19.3 C 287.4 19.3 289.3 20 290.5 21.8 C 290.5 21.8 290.5 18.4 290.5 18.4 C 290.5 15.8 289.1 14.3 286.6 14.3 C 284.8 14.3 283.2 15 281.7 16.6 C 281.7 16.6 280.5 14.6 280.5 14.6 C 282.3 12.7 284.6 11.8 287 11.8 C 290.9 11.8 293.4 13.7 293.4 18.1 C 293.42 18.08 293.4 31.6 293.4 31.6 L 290.5 31.6 Z M 290.5 27.6 C 290.5 27.6 290.5 23.9 290.5 23.9 C 289.7 22.2 288.1 21.4 286.4 21.4 C 284 21.4 282.5 23.3 282.5 25.7 C 282.5 28.1 284 30 286.4 30 C 288.1 30 289.7 29.2 290.5 27.6 Z M 309.1 31.6 C 309.1 31.6 309.1 17.84 309.1 17.8 C 309.1 15.3 307.9 14.4 306 14.4 C 304.1 14.4 302.4 15.8 301.5 17.4 C 301.5 17.44 301.5 31.6 301.5 31.6 L 298.7 31.6 L 298.7 12.3 L 301.5 12.3 C 301.5 12.3 301.5 15.04 301.5 15 C 302.6 13.4 304.8 11.8 307.1 11.8 C 310.4 11.8 312 13.6 312 17 C 311.98 17.04 312 31.6 312 31.6 L 309.1 31.6 Z M 328.3 31.6 C 328.3 31.6 328.3 28.84 328.3 28.8 C 327.2 30.8 325.3 32.1 323.2 32.1 C 318.9 32.1 316.3 28 316.3 22 C 316.3 16 318.9 11.8 323.2 11.8 C 325.2 11.8 327.1 12.9 328.3 15.1 C 328.3 15.08 328.3 4.9 328.3 4.9 L 331.2 4.9 L 331.2 31.6 L 328.3 31.6 Z M 328.3 26.4 C 328.3 26.4 328.3 17.5 328.3 17.5 C 327.6 15.8 325.8 14.4 323.9 14.4 C 320.8 14.4 319.3 17.8 319.3 22 C 319.3 26.1 320.8 29.5 323.9 29.5 C 325.8 29.5 327.6 28.1 328.3 26.4 Z M 352.3 29.5 C 355.4 29.5 356.9 26.1 356.9 22 C 356.9 17.8 355.4 14.4 352.3 14.4 C 350.5 14.4 348.7 15.9 347.9 17.6 C 347.9 17.6 347.9 26.4 347.9 26.4 C 348.7 28.1 350.5 29.5 352.3 29.5 Z M 345.1 31.6 L 345.1 4.9 L 347.9 4.9 C 347.9 4.9 347.9 15.08 347.9 15.1 C 349.1 12.9 351 11.8 353 11.8 C 357.3 11.8 359.9 16 359.9 22 C 359.9 28 357.3 32.1 353 32.1 C 350.9 32.1 349 30.8 347.9 28.8 C 347.9 28.84 347.9 31.6 347.9 31.6 L 345.1 31.6 Z M 363.7 7.5 C 363.7 6.4 364.6 5.6 365.7 5.6 C 366.7 5.6 367.6 6.4 367.6 7.5 C 367.6 8.6 366.7 9.5 365.7 9.5 C 364.6 9.5 363.7 8.6 363.7 7.5 Z M 364.3 31.6 L 364.3 12.3 L 367.1 12.3 L 367.1 31.6 L 364.3 31.6 Z M 371.5 31.6 L 371.5 29.4 L 379.8 14.8 L 371.5 14.8 L 371.5 12.3 L 383.3 12.3 L 383.3 14.5 L 375 29.1 L 383.5 29.1 L 383.5 31.6 L 371.5 31.6 Z M 397.8 31.6 C 397.8 31.6 397.78 29.52 397.8 29.5 C 396.5 31.3 394.7 32.1 392.7 32.1 C 389.6 32.1 386.9 29.7 386.9 25.6 C 386.9 21.6 389.5 19.3 392.7 19.3 C 394.7 19.3 396.6 20 397.8 21.8 C 397.8 21.8 397.8 18.4 397.8 18.4 C 397.8 15.8 396.3 14.3 393.8 14.3 C 392 14.3 390.5 15 389 16.6 C 389 16.6 387.7 14.6 387.7 14.6 C 389.5 12.7 391.8 11.8 394.3 11.8 C 398.1 11.8 400.7 13.7 400.7 18.1 C 400.66 18.08 400.7 31.6 400.7 31.6 L 397.8 31.6 Z M 397.8 27.6 C 397.8 27.6 397.8 23.9 397.8 23.9 C 396.9 22.2 395.3 21.4 393.6 21.4 C 391.2 21.4 389.8 23.3 389.8 25.7 C 389.8 28.1 391.2 30 393.6 30 C 395.3 30 396.9 29.2 397.8 27.6 Z M 405.9 31.6 L 405.9 12.3 L 408.7 12.3 C 408.7 12.3 408.74 15.36 408.7 15.4 C 410 13.3 411.9 11.9 414.2 11.9 C 414.2 11.9 414.2 14.8 414.2 14.8 C 413.9 14.8 413.6 14.7 413.3 14.7 C 411.5 14.7 409.5 16.3 408.7 17.9 C 408.74 17.88 408.7 31.6 408.7 31.6 L 405.9 31.6 Z M 417.5 31.6 L 417.5 12.3 L 420.4 12.3 C 420.4 12.3 420.38 15.36 420.4 15.4 C 421.6 13.3 423.5 11.9 425.9 11.9 C 425.9 11.9 425.9 14.8 425.9 14.8 C 425.5 14.8 425.2 14.7 424.9 14.7 C 423.1 14.7 421.2 16.3 420.4 17.9 C 420.38 17.88 420.4 31.6 420.4 31.6 L 417.5 31.6 Z M 428.2 21.9 C 428.2 16.3 431.2 11.8 436.1 11.8 C 441.1 11.8 443.7 16.4 443.7 22 C 443.7 22 443.7 22.9 443.7 22.9 C 443.7 22.9 431.18 22.88 431.2 22.9 C 431.3 26.8 433.3 29.7 436.7 29.7 C 438.4 29.7 440.1 28.8 441.3 27.3 C 441.3 27.3 442.9 29 442.9 29 C 441.3 30.9 439.1 32.1 436.5 32.1 C 431.3 32.1 428.2 27.8 428.2 21.9 Z M 436 14.2 C 432.6 14.2 431.3 17.9 431.2 20.8 C 431.2 20.8 440.9 20.8 440.9 20.8 C 440.8 17.8 439.5 14.2 436 14.2 Z M 448.8 36.6 C 448.8 36.6 447.4 35.5 447.4 35.5 C 448.7 34.6 449.8 33 449.9 31.8 C 449.9 31.8 449.6 31.8 449.4 31.8 C 448.3 31.8 447.5 31 447.5 29.8 C 447.5 28.7 448.4 27.7 449.6 27.7 C 450.9 27.7 452 28.8 452 30.7 C 452 33.1 450.6 35.4 448.8 36.6 Z " stroke="none" fill="#b13d24"/>  </g></svg>