<?xml version="1.0" standalone="no"?><!DOCTYPE svg PUBLIC "-//W3C//DTD SVG 1.1//EN" "http://www.w3.org/Graphics/SVG/1.1/DTD/svg11.dtd"><svg xmlns="http://www.w3.org/2000/svg" version="1.1" width="219px" height="332.3px" viewBox="0 0 219 332.3">  <desc>4 5 pieces 200 g 120 ml 25 g as needed as needed as needed as needed</desc>  <defs/>  <g id="Polygon154063">    <path d="M 9.4 284.7 C 9.4 284.7 9.42 283.14 9.4 283.1 C 8.5 284.5 7.1 285.1 5.6 285.1 C 3.3 285.1 1.2 283.3 1.2 280.2 C 1.2 277.2 3.2 275.5 5.6 275.5 C 7.1 275.5 8.5 276 9.4 277.3 C 9.4 277.3 9.4 274.8 9.4 274.8 C 9.4 272.8 8.3 271.7 6.4 271.7 C 5.1 271.7 3.9 272.2 2.8 273.5 C 2.8 273.5 1.9 272 1.9 272 C 3.2 270.5 4.9 269.9 6.8 269.9 C 9.7 269.9 11.6 271.3 11.6 274.6 C 11.58 274.56 11.6 284.7 11.6 284.7 L 9.4 284.7 Z M 9.4 281.7 C 9.4 281.7 9.4 278.9 9.4 278.9 C 8.8 277.7 7.6 277.1 6.3 277.1 C 4.5 277.1 3.4 278.5 3.4 280.3 C 3.4 282.1 4.5 283.5 6.3 283.5 C 7.6 283.5 8.8 282.9 9.4 281.7 Z M 14.3 283 C 14.3 283 15.4 281.5 15.4 281.5 C 16.3 282.5 17.6 283.3 19.2 283.3 C 20.9 283.3 22 282.4 22 281 C 22 277.6 14.8 278.8 14.8 273.8 C 14.8 271.6 16.5 269.9 19.4 269.9 C 21.3 269.9 22.8 270.6 23.8 271.7 C 23.8 271.7 22.8 273.2 22.8 273.2 C 22 272.2 20.8 271.6 19.4 271.6 C 17.8 271.6 16.8 272.5 16.8 273.7 C 16.8 276.8 24.1 275.7 24.1 280.9 C 24.1 283.3 22.2 285.1 19.2 285.1 C 17.2 285.1 15.5 284.4 14.3 283 Z M 41.4 284.7 C 41.4 284.7 41.4 274.38 41.4 274.4 C 41.4 272.5 40.5 271.8 39.1 271.8 C 37.7 271.8 36.4 272.9 35.7 274.1 C 35.7 274.08 35.7 284.7 35.7 284.7 L 33.6 284.7 L 33.6 270.2 L 35.7 270.2 C 35.7 270.2 35.7 272.28 35.7 272.3 C 36.5 271 38.2 269.9 39.9 269.9 C 42.4 269.9 43.6 271.2 43.6 273.8 C 43.56 273.78 43.6 284.7 43.6 284.7 L 41.4 284.7 Z M 46.8 277.4 C 46.8 273.2 49 269.9 52.7 269.9 C 56.5 269.9 58.4 273.3 58.4 277.5 C 58.41 277.5 58.4 278.2 58.4 278.2 C 58.4 278.2 49.02 278.16 49 278.2 C 49.1 281.1 50.6 283.3 53.2 283.3 C 54.4 283.3 55.7 282.6 56.6 281.5 C 56.6 281.5 57.8 282.8 57.8 282.8 C 56.6 284.2 55 285.1 53 285.1 C 49.1 285.1 46.8 281.9 46.8 277.4 Z M 52.6 271.7 C 50.1 271.7 49.1 274.4 49 276.6 C 49 276.6 56.3 276.6 56.3 276.6 C 56.2 274.4 55.3 271.7 52.6 271.7 Z M 60.8 277.4 C 60.8 273.2 63.1 269.9 66.7 269.9 C 70.5 269.9 72.4 273.3 72.4 277.5 C 72.45 277.5 72.4 278.2 72.4 278.2 C 72.4 278.2 63.06 278.16 63.1 278.2 C 63.1 281.1 64.6 283.3 67.2 283.3 C 68.5 283.3 69.8 282.6 70.7 281.5 C 70.7 281.5 71.8 282.8 71.8 282.8 C 70.6 284.2 69 285.1 67 285.1 C 63.2 285.1 60.8 281.9 60.8 277.4 Z M 66.7 271.7 C 64.1 271.7 63.1 274.4 63.1 276.6 C 63.1 276.6 70.3 276.6 70.3 276.6 C 70.3 274.4 69.3 271.7 66.7 271.7 Z M 83.9 284.7 C 83.9 284.7 83.88 282.63 83.9 282.6 C 83 284.1 81.6 285.1 80.1 285.1 C 76.8 285.1 74.9 282 74.9 277.5 C 74.9 273 76.8 269.9 80.1 269.9 C 81.5 269.9 83 270.7 83.9 272.3 C 83.88 272.31 83.9 264.7 83.9 264.7 L 86 264.7 L 86 284.7 L 83.9 284.7 Z M 83.9 280.8 C 83.9 280.8 83.9 274.1 83.9 274.1 C 83.3 272.9 82 271.8 80.6 271.8 C 78.2 271.8 77.1 274.3 77.1 277.5 C 77.1 280.6 78.2 283.1 80.6 283.1 C 82 283.1 83.3 282.1 83.9 280.8 Z M 89.3 277.4 C 89.3 273.2 91.5 269.9 95.2 269.9 C 99 269.9 100.9 273.3 100.9 277.5 C 100.89 277.5 100.9 278.2 100.9 278.2 C 100.9 278.2 91.5 278.16 91.5 278.2 C 91.6 281.1 93.1 283.3 95.7 283.3 C 96.9 283.3 98.2 282.6 99.1 281.5 C 99.1 281.5 100.3 282.8 100.3 282.8 C 99.1 284.2 97.4 285.1 95.5 285.1 C 91.6 285.1 89.3 281.9 89.3 277.4 Z M 95.1 271.7 C 92.6 271.7 91.6 274.4 91.5 276.6 C 91.5 276.6 98.8 276.6 98.8 276.6 C 98.7 274.4 97.8 271.7 95.1 271.7 Z M 112.3 284.7 C 112.3 284.7 112.32 282.63 112.3 282.6 C 111.5 284.1 110 285.1 108.5 285.1 C 105.3 285.1 103.3 282 103.3 277.5 C 103.3 273 105.2 269.9 108.5 269.9 C 110 269.9 111.4 270.7 112.3 272.3 C 112.32 272.31 112.3 264.7 112.3 264.7 L 114.5 264.7 L 114.5 284.7 L 112.3 284.7 Z M 112.3 280.8 C 112.3 280.8 112.3 274.1 112.3 274.1 C 111.8 272.9 110.4 271.8 109 271.8 C 106.7 271.8 105.6 274.3 105.6 277.5 C 105.6 280.6 106.7 283.1 109 283.1 C 110.4 283.1 111.8 282.1 112.3 280.8 Z " stroke="none" fill="#d0d1d4"/>  </g>  <g id="Polygon154062">    <path d="M 9.4 248.7 C 9.4 248.7 9.42 247.14 9.4 247.1 C 8.5 248.5 7.1 249.1 5.6 249.1 C 3.3 249.1 1.2 247.3 1.2 244.2 C 1.2 241.2 3.2 239.5 5.6 239.5 C 7.1 239.5 8.5 240 9.4 241.3 C 9.4 241.3 9.4 238.8 9.4 238.8 C 9.4 236.8 8.3 235.7 6.4 235.7 C 5.1 235.7 3.9 236.2 2.8 237.5 C 2.8 237.5 1.9 236 1.9 236 C 3.2 234.5 4.9 233.9 6.8 233.9 C 9.7 233.9 11.6 235.3 11.6 238.6 C 11.58 238.56 11.6 248.7 11.6 248.7 L 9.4 248.7 Z M 9.4 245.7 C 9.4 245.7 9.4 242.9 9.4 242.9 C 8.8 241.7 7.6 241.1 6.3 241.1 C 4.5 241.1 3.4 242.5 3.4 244.3 C 3.4 246.1 4.5 247.5 6.3 247.5 C 7.6 247.5 8.8 246.9 9.4 245.7 Z M 14.3 247 C 14.3 247 15.4 245.5 15.4 245.5 C 16.3 246.5 17.6 247.3 19.2 247.3 C 20.9 247.3 22 246.4 22 245 C 22 241.6 14.8 242.8 14.8 237.8 C 14.8 235.6 16.5 233.9 19.4 233.9 C 21.3 233.9 22.8 234.6 23.8 235.7 C 23.8 235.7 22.8 237.2 22.8 237.2 C 22 236.2 20.8 235.6 19.4 235.6 C 17.8 235.6 16.8 236.5 16.8 237.7 C 16.8 240.8 24.1 239.7 24.1 244.9 C 24.1 247.3 22.2 249.1 19.2 249.1 C 17.2 249.1 15.5 248.4 14.3 247 Z M 41.4 248.7 C 41.4 248.7 41.4 238.38 41.4 238.4 C 41.4 236.5 40.5 235.8 39.1 235.8 C 37.7 235.8 36.4 236.9 35.7 238.1 C 35.7 238.08 35.7 248.7 35.7 248.7 L 33.6 248.7 L 33.6 234.2 L 35.7 234.2 C 35.7 234.2 35.7 236.28 35.7 236.3 C 36.5 235 38.2 233.9 39.9 233.9 C 42.4 233.9 43.6 235.2 43.6 237.8 C 43.56 237.78 43.6 248.7 43.6 248.7 L 41.4 248.7 Z M 46.8 241.4 C 46.8 237.2 49 233.9 52.7 233.9 C 56.5 233.9 58.4 237.3 58.4 241.5 C 58.41 241.5 58.4 242.2 58.4 242.2 C 58.4 242.2 49.02 242.16 49 242.2 C 49.1 245.1 50.6 247.3 53.2 247.3 C 54.4 247.3 55.7 246.6 56.6 245.5 C 56.6 245.5 57.8 246.8 57.8 246.8 C 56.6 248.2 55 249.1 53 249.1 C 49.1 249.1 46.8 245.9 46.8 241.4 Z M 52.6 235.7 C 50.1 235.7 49.1 238.4 49 240.6 C 49 240.6 56.3 240.6 56.3 240.6 C 56.2 238.4 55.3 235.7 52.6 235.7 Z M 60.8 241.4 C 60.8 237.2 63.1 233.9 66.7 233.9 C 70.5 233.9 72.4 237.3 72.4 241.5 C 72.45 241.5 72.4 242.2 72.4 242.2 C 72.4 242.2 63.06 242.16 63.1 242.2 C 63.1 245.1 64.6 247.3 67.2 247.3 C 68.5 247.3 69.8 246.6 70.7 245.5 C 70.7 245.5 71.8 246.8 71.8 246.8 C 70.6 248.2 69 249.1 67 249.1 C 63.2 249.1 60.8 245.9 60.8 241.4 Z M 66.7 235.7 C 64.1 235.7 63.1 238.4 63.1 240.6 C 63.1 240.6 70.3 240.6 70.3 240.6 C 70.3 238.4 69.3 235.7 66.7 235.7 Z M 83.9 248.7 C 83.9 248.7 83.88 246.63 83.9 246.6 C 83 248.1 81.6 249.1 80.1 249.1 C 76.8 249.1 74.9 246 74.9 241.5 C 74.9 237 76.8 233.9 80.1 233.9 C 81.5 233.9 83 234.7 83.9 236.3 C 83.88 236.31 83.9 228.7 83.9 228.7 L 86 228.7 L 86 248.7 L 83.9 248.7 Z M 83.9 244.8 C 83.9 244.8 83.9 238.1 83.9 238.1 C 83.3 236.9 82 235.8 80.6 235.8 C 78.2 235.8 77.1 238.3 77.1 241.5 C 77.1 244.6 78.2 247.1 80.6 247.1 C 82 247.1 83.3 246.1 83.9 244.8 Z M 89.3 241.4 C 89.3 237.2 91.5 233.9 95.2 233.9 C 99 233.9 100.9 237.3 100.9 241.5 C 100.89 241.5 100.9 242.2 100.9 242.2 C 100.9 242.2 91.5 242.16 91.5 242.2 C 91.6 245.1 93.1 247.3 95.7 247.3 C 96.9 247.3 98.2 246.6 99.1 245.5 C 99.1 245.5 100.3 246.8 100.3 246.8 C 99.1 248.2 97.4 249.1 95.5 249.1 C 91.6 249.1 89.3 245.9 89.3 241.4 Z M 95.1 235.7 C 92.6 235.7 91.6 238.4 91.5 240.6 C 91.5 240.6 98.8 240.6 98.8 240.6 C 98.7 238.4 97.8 235.7 95.1 235.7 Z M 112.3 248.7 C 112.3 248.7 112.32 246.63 112.3 246.6 C 111.5 248.1 110 249.1 108.5 249.1 C 105.3 249.1 103.3 246 103.3 241.5 C 103.3 237 105.2 233.9 108.5 233.9 C 110 233.9 111.4 234.7 112.3 236.3 C 112.32 236.31 112.3 228.7 112.3 228.7 L 114.5 228.7 L 114.5 248.7 L 112.3 248.7 Z M 112.3 244.8 C 112.3 244.8 112.3 238.1 112.3 238.1 C 111.8 236.9 110.4 235.8 109 235.8 C 106.7 235.8 105.6 238.3 105.6 241.5 C 105.6 244.6 106.7 247.1 109 247.1 C 110.4 247.1 111.8 246.1 112.3 244.8 Z " stroke="none" fill="#d0d1d4"/>  </g>  <g id="Polygon154061">    <path d="M 9.4 212.7 C 9.4 212.7 9.42 211.14 9.4 211.1 C 8.5 212.5 7.1 213.1 5.6 213.1 C 3.3 213.1 1.2 211.3 1.2 208.2 C 1.2 205.2 3.2 203.5 5.6 203.5 C 7.1 203.5 8.5 204 9.4 205.3 C 9.4 205.3 9.4 202.8 9.4 202.8 C 9.4 200.8 8.3 199.7 6.4 199.7 C 5.1 199.7 3.9 200.2 2.8 201.5 C 2.8 201.5 1.9 200 1.9 200 C 3.2 198.5 4.9 197.9 6.8 197.9 C 9.7 197.9 11.6 199.3 11.6 202.6 C 11.58 202.56 11.6 212.7 11.6 212.7 L 9.4 212.7 Z M 9.4 209.7 C 9.4 209.7 9.4 206.9 9.4 206.9 C 8.8 205.7 7.6 205.1 6.3 205.1 C 4.5 205.1 3.4 206.5 3.4 208.3 C 3.4 210.1 4.5 211.5 6.3 211.5 C 7.6 211.5 8.8 210.9 9.4 209.7 Z M 14.3 211 C 14.3 211 15.4 209.5 15.4 209.5 C 16.3 210.5 17.6 211.3 19.2 211.3 C 20.9 211.3 22 210.4 22 209 C 22 205.6 14.8 206.8 14.8 201.8 C 14.8 199.6 16.5 197.9 19.4 197.9 C 21.3 197.9 22.8 198.6 23.8 199.7 C 23.8 199.7 22.8 201.2 22.8 201.2 C 22 200.2 20.8 199.6 19.4 199.6 C 17.8 199.6 16.8 200.5 16.8 201.7 C 16.8 204.8 24.1 203.7 24.1 208.9 C 24.1 211.3 22.2 213.1 19.2 213.1 C 17.2 213.1 15.5 212.4 14.3 211 Z M 41.4 212.7 C 41.4 212.7 41.4 202.38 41.4 202.4 C 41.4 200.5 40.5 199.8 39.1 199.8 C 37.7 199.8 36.4 200.9 35.7 202.1 C 35.7 202.08 35.7 212.7 35.7 212.7 L 33.6 212.7 L 33.6 198.2 L 35.7 198.2 C 35.7 198.2 35.7 200.28 35.7 200.3 C 36.5 199 38.2 197.9 39.9 197.9 C 42.4 197.9 43.6 199.2 43.6 201.8 C 43.56 201.78 43.6 212.7 43.6 212.7 L 41.4 212.7 Z M 46.8 205.4 C 46.8 201.2 49 197.9 52.7 197.9 C 56.5 197.9 58.4 201.3 58.4 205.5 C 58.41 205.5 58.4 206.2 58.4 206.2 C 58.4 206.2 49.02 206.16 49 206.2 C 49.1 209.1 50.6 211.3 53.2 211.3 C 54.4 211.3 55.7 210.6 56.6 209.5 C 56.6 209.5 57.8 210.8 57.8 210.8 C 56.6 212.2 55 213.1 53 213.1 C 49.1 213.1 46.8 209.9 46.8 205.4 Z M 52.6 199.7 C 50.1 199.7 49.1 202.4 49 204.6 C 49 204.6 56.3 204.6 56.3 204.6 C 56.2 202.4 55.3 199.7 52.6 199.7 Z M 60.8 205.4 C 60.8 201.2 63.1 197.9 66.7 197.9 C 70.5 197.9 72.4 201.3 72.4 205.5 C 72.45 205.5 72.4 206.2 72.4 206.2 C 72.4 206.2 63.06 206.16 63.1 206.2 C 63.1 209.1 64.6 211.3 67.2 211.3 C 68.5 211.3 69.8 210.6 70.7 209.5 C 70.7 209.5 71.8 210.8 71.8 210.8 C 70.6 212.2 69 213.1 67 213.1 C 63.2 213.1 60.8 209.9 60.8 205.4 Z M 66.7 199.7 C 64.1 199.7 63.1 202.4 63.1 204.6 C 63.1 204.6 70.3 204.6 70.3 204.6 C 70.3 202.4 69.3 199.7 66.7 199.7 Z M 83.9 212.7 C 83.9 212.7 83.88 210.63 83.9 210.6 C 83 212.1 81.6 213.1 80.1 213.1 C 76.8 213.1 74.9 210 74.9 205.5 C 74.9 201 76.8 197.9 80.1 197.9 C 81.5 197.9 83 198.7 83.9 200.3 C 83.88 200.31 83.9 192.7 83.9 192.7 L 86 192.7 L 86 212.7 L 83.9 212.7 Z M 83.9 208.8 C 83.9 208.8 83.9 202.1 83.9 202.1 C 83.3 200.9 82 199.8 80.6 199.8 C 78.2 199.8 77.1 202.3 77.1 205.5 C 77.1 208.6 78.2 211.1 80.6 211.1 C 82 211.1 83.3 210.1 83.9 208.8 Z M 89.3 205.4 C 89.3 201.2 91.5 197.9 95.2 197.9 C 99 197.9 100.9 201.3 100.9 205.5 C 100.89 205.5 100.9 206.2 100.9 206.2 C 100.9 206.2 91.5 206.16 91.5 206.2 C 91.6 209.1 93.1 211.3 95.7 211.3 C 96.9 211.3 98.2 210.6 99.1 209.5 C 99.1 209.5 100.3 210.8 100.3 210.8 C 99.1 212.2 97.4 213.1 95.5 213.1 C 91.6 213.1 89.3 209.9 89.3 205.4 Z M 95.1 199.7 C 92.6 199.7 91.6 202.4 91.5 204.6 C 91.5 204.6 98.8 204.6 98.8 204.6 C 98.7 202.4 97.8 199.7 95.1 199.7 Z M 112.3 212.7 C 112.3 212.7 112.32 210.63 112.3 210.6 C 111.5 212.1 110 213.1 108.5 213.1 C 105.3 213.1 103.3 210 103.3 205.5 C 103.3 201 105.2 197.9 108.5 197.9 C 110 197.9 111.4 198.7 112.3 200.3 C 112.32 200.31 112.3 192.7 112.3 192.7 L 114.5 192.7 L 114.5 212.7 L 112.3 212.7 Z M 112.3 208.8 C 112.3 208.8 112.3 202.1 112.3 202.1 C 111.8 200.9 110.4 199.8 109 199.8 C 106.7 199.8 105.6 202.3 105.6 205.5 C 105.6 208.6 106.7 211.1 109 211.1 C 110.4 211.1 111.8 210.1 112.3 208.8 Z " stroke="none" fill="#d0d1d4"/>  </g>  <g id="Polygon154060">    <path d="M 9.4 176.7 C 9.4 176.7 9.42 175.14 9.4 175.1 C 8.5 176.5 7.1 177.1 5.6 177.1 C 3.3 177.1 1.2 175.3 1.2 172.2 C 1.2 169.2 3.2 167.5 5.6 167.5 C 7.1 167.5 8.5 168 9.4 169.3 C 9.4 169.3 9.4 166.8 9.4 166.8 C 9.4 164.8 8.3 163.7 6.4 163.7 C 5.1 163.7 3.9 164.2 2.8 165.5 C 2.8 165.5 1.9 164 1.9 164 C 3.2 162.5 4.9 161.9 6.8 161.9 C 9.7 161.9 11.6 163.3 11.6 166.6 C 11.58 166.56 11.6 176.7 11.6 176.7 L 9.4 176.7 Z M 9.4 173.7 C 9.4 173.7 9.4 170.9 9.4 170.9 C 8.8 169.7 7.6 169.1 6.3 169.1 C 4.5 169.1 3.4 170.5 3.4 172.3 C 3.4 174.1 4.5 175.5 6.3 175.5 C 7.6 175.5 8.8 174.9 9.4 173.7 Z M 14.3 175 C 14.3 175 15.4 173.5 15.4 173.5 C 16.3 174.5 17.6 175.3 19.2 175.3 C 20.9 175.3 22 174.4 22 173 C 22 169.6 14.8 170.8 14.8 165.8 C 14.8 163.6 16.5 161.9 19.4 161.9 C 21.3 161.9 22.8 162.6 23.8 163.7 C 23.8 163.7 22.8 165.2 22.8 165.2 C 22 164.2 20.8 163.6 19.4 163.6 C 17.8 163.6 16.8 164.5 16.8 165.7 C 16.8 168.8 24.1 167.7 24.1 172.9 C 24.1 175.3 22.2 177.1 19.2 177.1 C 17.2 177.1 15.5 176.4 14.3 175 Z M 41.4 176.7 C 41.4 176.7 41.4 166.38 41.4 166.4 C 41.4 164.5 40.5 163.8 39.1 163.8 C 37.7 163.8 36.4 164.9 35.7 166.1 C 35.7 166.08 35.7 176.7 35.7 176.7 L 33.6 176.7 L 33.6 162.2 L 35.7 162.2 C 35.7 162.2 35.7 164.28 35.7 164.3 C 36.5 163 38.2 161.9 39.9 161.9 C 42.4 161.9 43.6 163.2 43.6 165.8 C 43.56 165.78 43.6 176.7 43.6 176.7 L 41.4 176.7 Z M 46.8 169.4 C 46.8 165.2 49 161.9 52.7 161.9 C 56.5 161.9 58.4 165.3 58.4 169.5 C 58.41 169.5 58.4 170.2 58.4 170.2 C 58.4 170.2 49.02 170.16 49 170.2 C 49.1 173.1 50.6 175.3 53.2 175.3 C 54.4 175.3 55.7 174.6 56.6 173.5 C 56.6 173.5 57.8 174.8 57.8 174.8 C 56.6 176.2 55 177.1 53 177.1 C 49.1 177.1 46.8 173.9 46.8 169.4 Z M 52.6 163.7 C 50.1 163.7 49.1 166.4 49 168.6 C 49 168.6 56.3 168.6 56.3 168.6 C 56.2 166.4 55.3 163.7 52.6 163.7 Z M 60.8 169.4 C 60.8 165.2 63.1 161.9 66.7 161.9 C 70.5 161.9 72.4 165.3 72.4 169.5 C 72.45 169.5 72.4 170.2 72.4 170.2 C 72.4 170.2 63.06 170.16 63.1 170.2 C 63.1 173.1 64.6 175.3 67.2 175.3 C 68.5 175.3 69.8 174.6 70.7 173.5 C 70.7 173.5 71.8 174.8 71.8 174.8 C 70.6 176.2 69 177.1 67 177.1 C 63.2 177.1 60.8 173.9 60.8 169.4 Z M 66.7 163.7 C 64.1 163.7 63.1 166.4 63.1 168.6 C 63.1 168.6 70.3 168.6 70.3 168.6 C 70.3 166.4 69.3 163.7 66.7 163.7 Z M 83.9 176.7 C 83.9 176.7 83.88 174.63 83.9 174.6 C 83 176.1 81.6 177.1 80.1 177.1 C 76.8 177.1 74.9 174 74.9 169.5 C 74.9 165 76.8 161.9 80.1 161.9 C 81.5 161.9 83 162.7 83.9 164.3 C 83.88 164.31 83.9 156.7 83.9 156.7 L 86 156.7 L 86 176.7 L 83.9 176.7 Z M 83.9 172.8 C 83.9 172.8 83.9 166.1 83.9 166.1 C 83.3 164.9 82 163.8 80.6 163.8 C 78.2 163.8 77.1 166.3 77.1 169.5 C 77.1 172.6 78.2 175.1 80.6 175.1 C 82 175.1 83.3 174.1 83.9 172.8 Z M 89.3 169.4 C 89.3 165.2 91.5 161.9 95.2 161.9 C 99 161.9 100.9 165.3 100.9 169.5 C 100.89 169.5 100.9 170.2 100.9 170.2 C 100.9 170.2 91.5 170.16 91.5 170.2 C 91.6 173.1 93.1 175.3 95.7 175.3 C 96.9 175.3 98.2 174.6 99.1 173.5 C 99.1 173.5 100.3 174.8 100.3 174.8 C 99.1 176.2 97.4 177.1 95.5 177.1 C 91.6 177.1 89.3 173.9 89.3 169.4 Z M 95.1 163.7 C 92.6 163.7 91.6 166.4 91.5 168.6 C 91.5 168.6 98.8 168.6 98.8 168.6 C 98.7 166.4 97.8 163.7 95.1 163.7 Z M 112.3 176.7 C 112.3 176.7 112.32 174.63 112.3 174.6 C 111.5 176.1 110 177.1 108.5 177.1 C 105.3 177.1 103.3 174 103.3 169.5 C 103.3 165 105.2 161.9 108.5 161.9 C 110 161.9 111.4 162.7 112.3 164.3 C 112.32 164.31 112.3 156.7 112.3 156.7 L 114.5 156.7 L 114.5 176.7 L 112.3 176.7 Z M 112.3 172.8 C 112.3 172.8 112.3 166.1 112.3 166.1 C 111.8 164.9 110.4 163.8 109 163.8 C 106.7 163.8 105.6 166.3 105.6 169.5 C 105.6 172.6 106.7 175.1 109 175.1 C 110.4 175.1 111.8 174.1 112.3 172.8 Z " stroke="none" fill="#d0d1d4"/>  </g>  <g id="Polygon154059">    <path d="M 1.6 140.7 C 1.6 140.7 1.59 138.75 1.6 138.8 C 8.1 131.2 10.4 128.8 10.4 125.9 C 10.4 123.7 8.9 122.5 7.2 122.5 C 5.3 122.5 3.9 123.5 2.9 125 C 2.9 125 1.4 123.6 1.4 123.6 C 2.7 121.6 4.7 120.4 7.2 120.4 C 10.3 120.4 12.8 122.4 12.8 125.9 C 12.8 129.2 10.3 132.2 5 138.6 C 4.98 138.57 12.9 138.6 12.9 138.6 L 12.9 140.7 L 1.6 140.7 Z M 16.2 137.8 C 16.2 137.8 17.8 136.4 17.8 136.4 C 18.8 138 20.1 138.9 22 138.9 C 24.2 138.9 25.6 136.9 25.6 134.6 C 25.6 131.7 24.3 130.2 22.2 130.2 C 20.8 130.2 19.7 130.7 18.6 132 C 18.57 132.03 16.8 131.4 16.8 131.4 L 16.8 120.7 L 27 120.7 L 27 122.8 L 19.2 122.8 C 19.2 122.8 19.17 129.81 19.2 129.8 C 19.9 128.9 21.3 128.1 22.9 128.1 C 25.7 128.1 28 130.4 28 134.5 C 28 138.3 25.6 141.1 22.1 141.1 C 19.2 141.1 17.5 139.8 16.2 137.8 Z M 37.7 144.8 C 37.7 144.8 38.7 143.1 38.7 143.1 C 39.7 144.2 40.9 144.8 42.5 144.8 C 44.5 144.8 46.1 143.6 46.1 140.8 C 46.1 140.8 46.1 138.4 46.1 138.4 C 45.3 139.9 43.8 140.9 42.3 140.9 C 39.1 140.9 37.1 137.9 37.1 133.4 C 37.1 128.9 39 125.9 42.3 125.9 C 43.8 125.9 45.2 126.7 46.1 128.3 C 46.11 128.31 46.1 126.2 46.1 126.2 L 48.3 126.2 C 48.3 126.2 48.27 140.67 48.3 140.7 C 48.3 145.1 45.6 146.6 42.5 146.6 C 40.6 146.6 39.1 146.1 37.7 144.8 Z M 46.1 136.6 C 46.1 136.6 46.1 130.1 46.1 130.1 C 45.6 128.9 44.2 127.8 42.8 127.8 C 40.5 127.8 39.4 130.3 39.4 133.4 C 39.4 136.5 40.5 139 42.8 139 C 44.2 139 45.6 137.8 46.1 136.6 Z " stroke="none" fill="#d0d1d4"/>  </g>  <g id="Polygon154058">    <path d="M 5 104.7 L 5 87.8 L 1.9 91.1 L 0.4 89.6 L 5.3 84.7 L 7.3 84.7 L 7.3 104.7 L 5 104.7 Z M 11 104.7 C 11 104.7 11.04 102.75 11 102.8 C 17.6 95.2 19.8 92.8 19.8 89.9 C 19.8 87.7 18.3 86.5 16.6 86.5 C 14.7 86.5 13.3 87.5 12.4 89 C 12.4 89 10.8 87.6 10.8 87.6 C 12.1 85.6 14.1 84.4 16.6 84.4 C 19.7 84.4 22.3 86.4 22.3 89.9 C 22.3 93.2 19.7 96.2 14.4 102.6 C 14.43 102.57 22.3 102.6 22.3 102.6 L 22.3 104.7 L 11 104.7 Z M 25.5 94.7 C 25.5 89.9 27.1 84.4 31.8 84.4 C 36.5 84.4 38.1 89.9 38.1 94.7 C 38.1 99.5 36.5 105.1 31.8 105.1 C 27.1 105.1 25.5 99.5 25.5 94.7 Z M 35.6 94.7 C 35.6 90.8 34.9 86.5 31.8 86.5 C 28.7 86.5 28 90.8 28 94.7 C 28 98.6 28.7 102.9 31.8 102.9 C 34.9 102.9 35.6 98.6 35.6 94.7 Z M 62.5 104.7 C 62.5 104.7 62.55 94.2 62.5 94.2 C 62.5 92.6 61.9 91.8 60.5 91.8 C 59.2 91.8 58 92.9 57.4 94.1 C 57.39 94.08 57.4 104.7 57.4 104.7 L 55.2 104.7 C 55.2 104.7 55.23 94.2 55.2 94.2 C 55.2 92.6 54.6 91.8 53.2 91.8 C 51.9 91.8 50.7 92.9 50 94.1 C 50.04 94.08 50 104.7 50 104.7 L 47.9 104.7 L 47.9 90.2 L 50 90.2 C 50 90.2 50.04 92.28 50 92.3 C 50.6 91.2 52.3 89.9 54 89.9 C 55.9 89.9 57 90.9 57.3 92.4 C 58 91.1 59.6 89.9 61.3 89.9 C 63.5 89.9 64.7 91 64.7 93.6 C 64.71 93.63 64.7 104.7 64.7 104.7 L 62.5 104.7 Z M 68.7 104.7 L 68.7 84.7 L 70.8 84.7 L 70.8 104.7 L 68.7 104.7 Z " stroke="none" fill="#d0d1d4"/>  </g>  <g id="Polygon154057">    <path d="M 1.6 68.7 C 1.6 68.7 1.59 66.75 1.6 66.8 C 8.1 59.2 10.4 56.8 10.4 53.9 C 10.4 51.7 8.9 50.5 7.2 50.5 C 5.3 50.5 3.9 51.5 2.9 53 C 2.9 53 1.4 51.6 1.4 51.6 C 2.7 49.6 4.7 48.4 7.2 48.4 C 10.3 48.4 12.8 50.4 12.8 53.9 C 12.8 57.2 10.3 60.2 5 66.6 C 4.98 66.57 12.9 66.6 12.9 66.6 L 12.9 68.7 L 1.6 68.7 Z M 16.1 58.7 C 16.1 53.9 17.7 48.4 22.3 48.4 C 27 48.4 28.6 53.9 28.6 58.7 C 28.6 63.5 27 69.1 22.3 69.1 C 17.7 69.1 16.1 63.5 16.1 58.7 Z M 26.2 58.7 C 26.2 54.8 25.4 50.5 22.3 50.5 C 19.3 50.5 18.5 54.8 18.5 58.7 C 18.5 62.6 19.3 66.9 22.3 66.9 C 25.4 66.9 26.2 62.6 26.2 58.7 Z M 31.4 58.7 C 31.4 53.9 33 48.4 37.7 48.4 C 42.4 48.4 44 53.9 44 58.7 C 44 63.5 42.4 69.1 37.7 69.1 C 33 69.1 31.4 63.5 31.4 58.7 Z M 41.5 58.7 C 41.5 54.8 40.8 50.5 37.7 50.5 C 34.6 50.5 33.9 54.8 33.9 58.7 C 33.9 62.6 34.6 66.9 37.7 66.9 C 40.8 66.9 41.5 62.6 41.5 58.7 Z M 53.7 72.8 C 53.7 72.8 54.7 71.1 54.7 71.1 C 55.6 72.2 56.9 72.8 58.5 72.8 C 60.4 72.8 62.1 71.6 62.1 68.8 C 62.1 68.8 62.1 66.4 62.1 66.4 C 61.3 67.9 59.8 68.9 58.3 68.9 C 55 68.9 53.1 65.9 53.1 61.4 C 53.1 56.9 55 53.9 58.3 53.9 C 59.8 53.9 61.2 54.7 62.1 56.3 C 62.1 56.31 62.1 54.2 62.1 54.2 L 64.3 54.2 C 64.3 54.2 64.26 68.67 64.3 68.7 C 64.3 73.1 61.6 74.6 58.5 74.6 C 56.6 74.6 55.1 74.1 53.7 72.8 Z M 62.1 64.6 C 62.1 64.6 62.1 58.1 62.1 58.1 C 61.6 56.9 60.2 55.8 58.8 55.8 C 56.5 55.8 55.3 58.3 55.3 61.4 C 55.3 64.5 56.5 67 58.8 67 C 60.2 67 61.6 65.8 62.1 64.6 Z " stroke="none" fill="#d0d1d4"/>  </g>  <g id="Polygon154056">    <path d="M 8.6 32.7 L 8.6 27.6 L 0.7 27.6 L 0.7 25.5 L 7.9 12.7 L 11 12.7 L 11 25.5 L 13.2 25.5 L 13.2 27.6 L 11 27.6 L 11 32.7 L 8.6 32.7 Z M 8.6 15.3 L 2.9 25.5 L 8.6 25.5 L 8.6 15.3 Z M 16 26.4 L 16 24.5 L 30.1 24.5 L 30.1 26.4 L 16 26.4 Z M 33.8 29.8 C 33.8 29.8 35.4 28.4 35.4 28.4 C 36.4 30 37.7 30.9 39.6 30.9 C 41.8 30.9 43.2 28.9 43.2 26.6 C 43.2 23.7 41.8 22.2 39.8 22.2 C 38.4 22.2 37.3 22.7 36.1 24 C 36.15 24.03 34.4 23.4 34.4 23.4 L 34.4 12.7 L 44.6 12.7 L 44.6 14.8 L 36.7 14.8 C 36.7 14.8 36.75 21.81 36.7 21.8 C 37.5 20.9 38.8 20.1 40.4 20.1 C 43.3 20.1 45.6 22.4 45.6 26.5 C 45.6 30.3 43.2 33.1 39.7 33.1 C 36.7 33.1 35 31.8 33.8 29.8 Z M 57.5 30.6 C 57.54 30.6 57.5 38.2 57.5 38.2 L 55.4 38.2 L 55.4 18.2 L 57.5 18.2 C 57.5 18.2 57.54 20.28 57.5 20.3 C 58.4 18.8 59.8 17.9 61.3 17.9 C 64.6 17.9 66.5 20.9 66.5 25.4 C 66.5 30 64.6 33.1 61.3 33.1 C 59.9 33.1 58.4 32.2 57.5 30.6 Z M 64.3 25.4 C 64.3 22.3 63.2 19.8 60.8 19.8 C 59.5 19.8 58.1 20.9 57.5 22.1 C 57.5 22.1 57.5 28.7 57.5 28.7 C 58.1 30 59.5 31.1 60.8 31.1 C 63.2 31.1 64.3 28.6 64.3 25.4 Z M 69.3 14.6 C 69.3 13.8 70 13.2 70.8 13.2 C 71.6 13.2 72.3 13.8 72.3 14.6 C 72.3 15.5 71.6 16.1 70.8 16.1 C 70 16.1 69.3 15.5 69.3 14.6 Z M 69.7 32.7 L 69.7 18.2 L 71.9 18.2 L 71.9 32.7 L 69.7 32.7 Z M 75.1 25.4 C 75.1 21.2 77.3 17.9 81 17.9 C 84.8 17.9 86.7 21.3 86.7 25.5 C 86.73 25.5 86.7 26.2 86.7 26.2 C 86.7 26.2 77.34 26.16 77.3 26.2 C 77.4 29.1 78.9 31.3 81.5 31.3 C 82.8 31.3 84.1 30.6 85 29.5 C 85 29.5 86.1 30.8 86.1 30.8 C 84.9 32.2 83.3 33.1 81.3 33.1 C 77.5 33.1 75.1 29.9 75.1 25.4 Z M 81 19.7 C 78.4 19.7 77.4 22.4 77.3 24.6 C 77.3 24.6 84.6 24.6 84.6 24.6 C 84.6 22.4 83.6 19.7 81 19.7 Z M 89.2 25.4 C 89.2 21.2 91.4 17.9 95.2 17.9 C 97.2 17.9 98.4 18.7 99.3 19.8 C 99.3 19.8 98.1 21.2 98.1 21.2 C 97.3 20.2 96.4 19.8 95.3 19.8 C 92.8 19.8 91.4 22.4 91.4 25.4 C 91.4 28.5 92.8 31.1 95.3 31.1 C 96.4 31.1 97.3 30.7 98.1 29.7 C 98.1 29.7 99.3 31.1 99.3 31.1 C 98.4 32.3 97.2 33.1 95.2 33.1 C 91.4 33.1 89.2 29.7 89.2 25.4 Z M 101.3 25.4 C 101.3 21.2 103.6 17.9 107.2 17.9 C 111 17.9 112.9 21.3 112.9 25.5 C 112.95 25.5 112.9 26.2 112.9 26.2 C 112.9 26.2 103.56 26.16 103.6 26.2 C 103.6 29.1 105.1 31.3 107.7 31.3 C 109 31.3 110.3 30.6 111.2 29.5 C 111.2 29.5 112.3 30.8 112.3 30.8 C 111.1 32.2 109.5 33.1 107.5 33.1 C 103.7 33.1 101.3 29.9 101.3 25.4 Z M 107.2 19.7 C 104.6 19.7 103.6 22.4 103.6 24.6 C 103.6 24.6 110.8 24.6 110.8 24.6 C 110.8 22.4 109.8 19.7 107.2 19.7 Z M 114.9 31 C 114.9 31 116 29.5 116 29.5 C 116.8 30.5 118.2 31.3 119.8 31.3 C 121.5 31.3 122.6 30.4 122.6 29 C 122.6 25.6 115.3 26.8 115.3 21.8 C 115.3 19.6 117.1 17.9 120 17.9 C 121.9 17.9 123.4 18.6 124.4 19.7 C 124.4 19.7 123.4 21.2 123.4 21.2 C 122.6 20.2 121.4 19.6 120 19.6 C 118.4 19.6 117.4 20.5 117.4 21.7 C 117.4 24.8 124.6 23.7 124.6 28.9 C 124.6 31.3 122.8 33.1 119.8 33.1 C 117.8 33.1 116.1 32.4 114.9 31 Z " stroke="none" fill="#d0d1d4"/>  </g></svg>