<?xml version="1.0" standalone="no"?><!DOCTYPE svg PUBLIC "-//W3C//DTD SVG 1.1//EN" "http://www.w3.org/Graphics/SVG/1.1/DTD/svg11.dtd"><svg xmlns="http://www.w3.org/2000/svg" version="1.1" width="494px" height="503.3px" viewBox="0 0 494 503.3">  <desc>Artificial dye, Blue 1 Artificial dye, Red 3 Artificial dye, Red 40 Artificial dye, Yellow 5 Artificial dye, Yellow 6</desc>  <defs/>  <g id="Polygon224513">    <path d="M 2.1 456.4 L 2.1 436.4 C 2.1 436.4 8.19 436.37 8.2 436.4 C 11.8 436.4 13.7 439.1 13.7 442.4 C 13.7 445.6 11.8 448.4 8.2 448.4 C 8.19 448.37 4.5 448.4 4.5 448.4 L 4.5 456.4 L 2.1 456.4 Z M 11.3 442.4 C 11.3 440.1 10 438.5 7.9 438.5 C 7.95 438.47 4.5 438.5 4.5 438.5 L 4.5 446.3 C 4.5 446.3 7.95 446.27 7.9 446.3 C 10 446.3 11.3 444.6 11.3 442.4 Z M 15.1 449.1 C 15.1 445 17.1 441.5 20.9 441.5 C 24.8 441.5 26.9 445 26.9 449.1 C 26.9 453.2 24.8 456.7 20.9 456.7 C 17.1 456.7 15.1 453.2 15.1 449.1 Z M 24.6 449.1 C 24.6 446.2 23.5 443.4 20.9 443.4 C 18.5 443.4 17.3 446.2 17.3 449.1 C 17.3 452.1 18.5 454.8 20.9 454.8 C 23.5 454.8 24.6 452.1 24.6 449.1 Z M 29.8 456.4 L 29.8 436.4 L 31.9 436.4 L 31.9 456.4 L 29.8 456.4 Z M 35.2 460.1 C 35.4 460.3 35.9 460.3 36.1 460.3 C 37 460.3 37.4 460 37.8 458.9 C 37.83 458.9 38.6 456.7 38.6 456.7 L 33.8 441.9 L 36.1 441.9 L 39.7 453.8 L 43.3 441.9 L 45.7 441.9 C 45.7 441.9 39.87 459.44 39.9 459.4 C 39.1 461.5 38 462.3 36.3 462.3 C 35.8 462.3 35.2 462.2 34.8 462 C 34.8 462 35.2 460.1 35.2 460.1 Z M 50.5 456.4 L 45.7 441.9 L 48.1 441.9 L 51.7 453.8 L 55.3 441.9 L 57.6 441.9 L 52.8 456.4 L 50.5 456.4 Z M 59 438.3 C 59 437.5 59.7 436.8 60.5 436.8 C 61.3 436.8 62 437.5 62 438.3 C 62 439.1 61.3 439.8 60.5 439.8 C 59.7 439.8 59 439.1 59 438.3 Z M 59.5 456.4 L 59.5 441.9 L 61.6 441.9 L 61.6 456.4 L 59.5 456.4 Z M 73.1 456.4 C 73.1 456.4 73.08 446.06 73.1 446.1 C 73.1 444.1 72.2 443.4 70.8 443.4 C 69.4 443.4 68 444.6 67.4 445.8 C 67.38 445.76 67.4 456.4 67.4 456.4 L 65.2 456.4 L 65.2 441.9 L 67.4 441.9 C 67.4 441.9 67.38 443.96 67.4 444 C 68.2 442.7 69.8 441.5 71.6 441.5 C 74 441.5 75.2 442.8 75.2 445.5 C 75.24 445.46 75.2 456.4 75.2 456.4 L 73.1 456.4 Z M 78.5 460.1 C 78.7 460.3 79.2 460.3 79.4 460.3 C 80.3 460.3 80.8 460 81.1 458.9 C 81.15 458.9 81.9 456.7 81.9 456.7 L 77.1 441.9 L 79.4 441.9 L 83 453.8 L 86.7 441.9 L 89 441.9 C 89 441.9 83.19 459.44 83.2 459.4 C 82.5 461.5 81.3 462.3 79.6 462.3 C 79.1 462.3 78.5 462.2 78.1 462 C 78.1 462 78.5 460.1 78.5 460.1 Z M 90.8 456.4 L 90.8 436.4 L 93 436.4 L 93 456.4 L 90.8 456.4 Z M 102.1 449.1 C 102.1 444.8 104.3 441.5 108.1 441.5 C 110.1 441.5 111.3 442.3 112.2 443.4 C 112.2 443.4 111 444.9 111 444.9 C 110.2 443.9 109.3 443.4 108.2 443.4 C 105.7 443.4 104.3 446 104.3 449.1 C 104.3 452.2 105.7 454.8 108.2 454.8 C 109.3 454.8 110.2 454.4 111 453.3 C 111 453.3 112.2 454.8 112.2 454.8 C 111.3 456 110.1 456.7 108.1 456.7 C 104.3 456.7 102.1 453.4 102.1 449.1 Z M 122.5 456.4 C 122.5 456.4 122.52 446.03 122.5 446 C 122.5 444.1 121.6 443.4 120.2 443.4 C 118.8 443.4 117.4 444.6 116.8 445.8 C 116.79 445.76 116.8 456.4 116.8 456.4 L 114.7 456.4 L 114.7 436.4 L 116.8 436.4 C 116.8 436.4 116.79 443.96 116.8 444 C 117.6 442.7 119.3 441.5 121 441.5 C 123.5 441.5 124.6 442.8 124.6 445.4 C 124.65 445.4 124.6 456.4 124.6 456.4 L 122.5 456.4 Z M 128.3 456.4 L 128.3 436.4 L 130.4 436.4 L 130.4 456.4 L 128.3 456.4 Z M 133.4 449.1 C 133.4 445 135.4 441.5 139.3 441.5 C 143.2 441.5 145.2 445 145.2 449.1 C 145.2 453.2 143.2 456.7 139.3 456.7 C 135.4 456.7 133.4 453.2 133.4 449.1 Z M 142.9 449.1 C 142.9 446.2 141.8 443.4 139.3 443.4 C 136.8 443.4 135.6 446.2 135.6 449.1 C 135.6 452.1 136.8 454.8 139.3 454.8 C 141.8 454.8 142.9 452.1 142.9 449.1 Z M 148.1 456.4 L 148.1 441.9 L 150.2 441.9 C 150.2 441.9 150.24 444.2 150.2 444.2 C 151.2 442.7 152.6 441.6 154.3 441.6 C 154.3 441.6 154.3 443.8 154.3 443.8 C 154.1 443.7 153.9 443.7 153.6 443.7 C 152.3 443.7 150.8 444.9 150.2 446.1 C 150.24 446.09 150.2 456.4 150.2 456.4 L 148.1 456.4 Z M 156.1 438.3 C 156.1 437.5 156.8 436.8 157.6 436.8 C 158.4 436.8 159.1 437.5 159.1 438.3 C 159.1 439.1 158.4 439.8 157.6 439.8 C 156.8 439.8 156.1 439.1 156.1 438.3 Z M 156.5 456.4 L 156.5 441.9 L 158.7 441.9 L 158.7 456.4 L 156.5 456.4 Z M 170.6 456.4 C 170.6 456.4 170.61 454.31 170.6 454.3 C 169.8 455.8 168.3 456.7 166.8 456.7 C 163.6 456.7 161.6 453.7 161.6 449.1 C 161.6 444.6 163.5 441.5 166.8 441.5 C 168.3 441.5 169.7 442.4 170.6 444 C 170.61 443.99 170.6 436.4 170.6 436.4 L 172.8 436.4 L 172.8 456.4 L 170.6 456.4 Z M 170.6 452.5 C 170.6 452.5 170.6 445.8 170.6 445.8 C 170.1 444.6 168.7 443.4 167.3 443.4 C 165 443.4 163.9 446 163.9 449.1 C 163.9 452.3 165 454.8 167.3 454.8 C 168.7 454.8 170.1 453.7 170.6 452.5 Z M 175.7 449.1 C 175.7 444.9 177.9 441.5 181.6 441.5 C 185.4 441.5 187.3 444.9 187.3 449.2 C 187.32 449.18 187.3 449.8 187.3 449.8 C 187.3 449.8 177.93 449.84 177.9 449.8 C 178 452.7 179.5 454.9 182.1 454.9 C 183.4 454.9 184.6 454.3 185.5 453.2 C 185.5 453.2 186.7 454.4 186.7 454.4 C 185.5 455.9 183.9 456.7 181.9 456.7 C 178 456.7 175.7 453.6 175.7 449.1 Z M 181.6 443.3 C 179 443.3 178 446.1 177.9 448.2 C 177.9 448.2 185.2 448.2 185.2 448.2 C 185.2 446 184.2 443.3 181.6 443.3 Z M 190.9 460.2 C 190.9 460.2 189.8 459.3 189.8 459.3 C 190.7 458.6 191.6 457.5 191.7 456.5 C 191.6 456.5 191.4 456.5 191.3 456.5 C 190.5 456.5 189.9 455.9 189.9 455.1 C 189.9 454.2 190.6 453.5 191.5 453.5 C 192.4 453.5 193.3 454.3 193.3 455.7 C 193.3 457.5 192.2 459.2 190.9 460.2 Z M 202.2 446.4 C 202.2 440.4 205.2 436 209.9 436 C 213 436 214.7 437.9 215.8 439.9 C 215.8 439.9 213.8 440.9 213.8 440.9 C 213 439.2 211.7 438.2 209.9 438.2 C 206.7 438.2 204.6 441.6 204.6 446.4 C 204.6 451.1 206.7 454.6 209.9 454.6 C 211.8 454.6 213.1 453.3 213.8 451.6 C 213.8 451.6 215.8 452.6 215.8 452.6 C 214.7 454.8 213 456.7 209.9 456.7 C 205.2 456.7 202.2 452.4 202.2 446.4 Z M 225.9 456.4 C 225.9 456.4 225.86 454.82 225.9 454.8 C 224.9 456.1 223.5 456.7 222.1 456.7 C 219.7 456.7 217.7 454.9 217.7 451.9 C 217.7 448.9 219.7 447.1 222.1 447.1 C 223.5 447.1 225 447.7 225.9 449 C 225.9 449 225.9 446.5 225.9 446.5 C 225.9 444.5 224.8 443.4 222.9 443.4 C 221.5 443.4 220.4 443.9 219.3 445.2 C 219.3 445.2 218.3 443.6 218.3 443.6 C 219.7 442.2 221.4 441.5 223.2 441.5 C 226.1 441.5 228 442.9 228 446.2 C 228.02 446.24 228 456.4 228 456.4 L 225.9 456.4 Z M 225.9 453.3 C 225.9 453.3 225.9 450.6 225.9 450.6 C 225.2 449.4 224 448.7 222.7 448.7 C 220.9 448.7 219.9 450.1 219.9 451.9 C 219.9 453.7 220.9 455.2 222.7 455.2 C 224 455.2 225.2 454.5 225.9 453.3 Z M 237.1 454.8 C 239.4 454.8 240.5 452.3 240.5 449.1 C 240.5 446 239.4 443.4 237.1 443.4 C 235.7 443.4 234.4 444.6 233.8 445.8 C 233.8 445.8 233.8 452.5 233.8 452.5 C 234.4 453.7 235.7 454.8 237.1 454.8 Z M 231.7 456.4 L 231.7 436.4 L 233.8 436.4 C 233.8 436.4 233.78 443.99 233.8 444 C 234.7 442.4 236.1 441.5 237.6 441.5 C 240.9 441.5 242.8 444.6 242.8 449.1 C 242.8 453.7 240.9 456.7 237.6 456.7 C 236.1 456.7 234.6 455.8 233.8 454.3 C 233.78 454.31 233.8 456.4 233.8 456.4 L 231.7 456.4 Z M 245.8 456.4 L 245.8 436.4 L 247.9 436.4 L 247.9 456.4 L 245.8 456.4 Z M 250.8 449.1 C 250.8 444.9 253 441.5 256.7 441.5 C 260.5 441.5 262.4 444.9 262.4 449.2 C 262.43 449.18 262.4 449.8 262.4 449.8 C 262.4 449.8 253.04 449.84 253 449.8 C 253.1 452.7 254.6 454.9 257.2 454.9 C 258.5 454.9 259.8 454.3 260.7 453.2 C 260.7 453.2 261.8 454.4 261.8 454.4 C 260.6 455.9 259 456.7 257 456.7 C 253.2 456.7 250.8 453.6 250.8 449.1 Z M 256.7 443.3 C 254.1 443.3 253.1 446.1 253 448.2 C 253 448.2 260.3 448.2 260.3 448.2 C 260.3 446 259.3 443.3 256.7 443.3 Z M 271 438.3 C 271 437.5 271.7 436.8 272.5 436.8 C 273.3 436.8 274 437.5 274 438.3 C 274 439.1 273.3 439.8 272.5 439.8 C 271.7 439.8 271 439.1 271 438.3 Z M 271.4 456.4 L 271.4 441.9 L 273.6 441.9 L 273.6 456.4 L 271.4 456.4 Z M 285.1 456.4 C 285.1 456.4 285.05 446.06 285.1 446.1 C 285.1 444.1 284.2 443.4 282.7 443.4 C 281.3 443.4 280 444.6 279.4 445.8 C 279.35 445.76 279.4 456.4 279.4 456.4 L 277.2 456.4 L 277.2 441.9 L 279.4 441.9 C 279.4 441.9 279.35 443.96 279.4 444 C 280.2 442.7 281.8 441.5 283.6 441.5 C 286 441.5 287.2 442.8 287.2 445.5 C 287.21 445.46 287.2 456.4 287.2 456.4 L 285.1 456.4 Z M 289.7 454.7 C 289.7 454.7 290.8 453.2 290.8 453.2 C 291.6 454.2 293 455 294.6 455 C 296.2 455 297.4 454 297.4 452.7 C 297.4 449.3 290.1 450.4 290.1 445.4 C 290.1 443.3 291.9 441.5 294.7 441.5 C 296.7 441.5 298.1 442.3 299.2 443.4 C 299.2 443.4 298.1 444.9 298.1 444.9 C 297.4 443.9 296.2 443.3 294.8 443.3 C 293.2 443.3 292.2 444.2 292.2 445.4 C 292.2 448.5 299.4 447.4 299.4 452.6 C 299.4 455 297.6 456.7 294.6 456.7 C 292.6 456.7 290.9 456.1 289.7 454.7 Z M 310 456.4 C 310 456.4 310.01 454.37 310 454.4 C 309.1 455.6 307.6 456.7 305.8 456.7 C 303.4 456.7 302.2 455.5 302.2 452.9 C 302.18 452.87 302.2 441.9 302.2 441.9 L 304.3 441.9 C 304.3 441.9 304.31 452.24 304.3 452.2 C 304.3 454.2 305.2 454.8 306.6 454.8 C 308.1 454.8 309.4 453.8 310 452.6 C 310.01 452.57 310 441.9 310 441.9 L 312.2 441.9 L 312.2 456.4 L 310 456.4 Z M 315.8 456.4 L 315.8 436.4 L 318 436.4 L 318 456.4 L 315.8 456.4 Z M 329.1 456.4 C 329.1 456.4 329.06 454.82 329.1 454.8 C 328.1 456.1 326.7 456.7 325.3 456.7 C 322.9 456.7 320.9 454.9 320.9 451.9 C 320.9 448.9 322.9 447.1 325.3 447.1 C 326.7 447.1 328.2 447.7 329.1 449 C 329.1 449 329.1 446.5 329.1 446.5 C 329.1 444.5 328 443.4 326.1 443.4 C 324.7 443.4 323.6 443.9 322.5 445.2 C 322.5 445.2 321.5 443.6 321.5 443.6 C 322.9 442.2 324.6 441.5 326.4 441.5 C 329.3 441.5 331.2 442.9 331.2 446.2 C 331.22 446.24 331.2 456.4 331.2 456.4 L 329.1 456.4 Z M 329.1 453.3 C 329.1 453.3 329.1 450.6 329.1 450.6 C 328.4 449.4 327.2 448.7 325.9 448.7 C 324.1 448.7 323.1 450.1 323.1 451.9 C 323.1 453.7 324.1 455.2 325.9 455.2 C 327.2 455.2 328.4 454.5 329.1 453.3 Z M 335.3 453.5 C 335.27 453.47 335.3 443.8 335.3 443.8 L 333.4 443.8 L 333.4 441.9 L 335.3 441.9 L 335.3 437.9 L 337.4 437.9 L 337.4 441.9 L 339.9 441.9 L 339.9 443.8 L 337.4 443.8 C 337.4 443.8 337.43 453.08 337.4 453.1 C 337.4 454.2 337.8 454.8 338.6 454.8 C 339.1 454.8 339.6 454.6 339.9 454.2 C 339.9 454.2 340.5 455.9 340.5 455.9 C 340 456.4 339.3 456.7 338.2 456.7 C 336.2 456.7 335.3 455.6 335.3 453.5 Z M 342 438.3 C 342 437.5 342.7 436.8 343.5 436.8 C 344.3 436.8 345 437.5 345 438.3 C 345 439.1 344.3 439.8 343.5 439.8 C 342.7 439.8 342 439.1 342 438.3 Z M 342.4 456.4 L 342.4 441.9 L 344.6 441.9 L 344.6 456.4 L 342.4 456.4 Z M 347.5 449.1 C 347.5 445 349.6 441.5 353.4 441.5 C 357.3 441.5 359.3 445 359.3 449.1 C 359.3 453.2 357.3 456.7 353.4 456.7 C 349.6 456.7 347.5 453.2 347.5 449.1 Z M 357.1 449.1 C 357.1 446.2 355.9 443.4 353.4 443.4 C 350.9 443.4 349.8 446.2 349.8 449.1 C 349.8 452.1 350.9 454.8 353.4 454.8 C 355.9 454.8 357.1 452.1 357.1 449.1 Z M 370.1 456.4 C 370.1 456.4 370.07 446.06 370.1 446.1 C 370.1 444.1 369.2 443.4 367.8 443.4 C 366.4 443.4 365 444.6 364.4 445.8 C 364.37 445.76 364.4 456.4 364.4 456.4 L 362.2 456.4 L 362.2 441.9 L 364.4 441.9 C 364.4 441.9 364.37 443.96 364.4 444 C 365.2 442.7 366.8 441.5 368.6 441.5 C 371 441.5 372.2 442.8 372.2 445.5 C 372.23 445.46 372.2 456.4 372.2 456.4 L 370.1 456.4 Z " stroke="none" fill="#d3d2d2"/>  </g>  <g id="Polygon224512">    <path d="M 2.1 420.4 L 2.1 400.4 C 2.1 400.4 8.19 400.37 8.2 400.4 C 11.8 400.4 13.7 403.1 13.7 406.4 C 13.7 409.6 11.8 412.4 8.2 412.4 C 8.19 412.37 4.5 412.4 4.5 412.4 L 4.5 420.4 L 2.1 420.4 Z M 11.3 406.4 C 11.3 404.1 10 402.5 7.9 402.5 C 7.95 402.47 4.5 402.5 4.5 402.5 L 4.5 410.3 C 4.5 410.3 7.95 410.27 7.9 410.3 C 10 410.3 11.3 408.6 11.3 406.4 Z M 15.1 413.1 C 15.1 409 17.1 405.5 20.9 405.5 C 24.8 405.5 26.9 409 26.9 413.1 C 26.9 417.2 24.8 420.7 20.9 420.7 C 17.1 420.7 15.1 417.2 15.1 413.1 Z M 24.6 413.1 C 24.6 410.2 23.5 407.4 20.9 407.4 C 18.5 407.4 17.3 410.2 17.3 413.1 C 17.3 416.1 18.5 418.8 20.9 418.8 C 23.5 418.8 24.6 416.1 24.6 413.1 Z M 29.8 420.4 L 29.8 400.4 L 31.9 400.4 L 31.9 420.4 L 29.8 420.4 Z M 35.2 424.1 C 35.4 424.3 35.9 424.3 36.1 424.3 C 37 424.3 37.4 424 37.8 422.9 C 37.83 422.9 38.6 420.7 38.6 420.7 L 33.8 405.9 L 36.1 405.9 L 39.7 417.8 L 43.3 405.9 L 45.7 405.9 C 45.7 405.9 39.87 423.44 39.9 423.4 C 39.1 425.5 38 426.3 36.3 426.3 C 35.8 426.3 35.2 426.2 34.8 426 C 34.8 426 35.2 424.1 35.2 424.1 Z M 50.5 420.4 L 45.7 405.9 L 48.1 405.9 L 51.7 417.8 L 55.3 405.9 L 57.6 405.9 L 52.8 420.4 L 50.5 420.4 Z M 59 402.3 C 59 401.5 59.7 400.8 60.5 400.8 C 61.3 400.8 62 401.5 62 402.3 C 62 403.1 61.3 403.8 60.5 403.8 C 59.7 403.8 59 403.1 59 402.3 Z M 59.5 420.4 L 59.5 405.9 L 61.6 405.9 L 61.6 420.4 L 59.5 420.4 Z M 73.1 420.4 C 73.1 420.4 73.08 410.06 73.1 410.1 C 73.1 408.1 72.2 407.4 70.8 407.4 C 69.4 407.4 68 408.6 67.4 409.8 C 67.38 409.76 67.4 420.4 67.4 420.4 L 65.2 420.4 L 65.2 405.9 L 67.4 405.9 C 67.4 405.9 67.38 407.96 67.4 408 C 68.2 406.7 69.8 405.5 71.6 405.5 C 74 405.5 75.2 406.8 75.2 409.5 C 75.24 409.46 75.2 420.4 75.2 420.4 L 73.1 420.4 Z M 78.5 424.1 C 78.7 424.3 79.2 424.3 79.4 424.3 C 80.3 424.3 80.8 424 81.1 422.9 C 81.15 422.9 81.9 420.7 81.9 420.7 L 77.1 405.9 L 79.4 405.9 L 83 417.8 L 86.7 405.9 L 89 405.9 C 89 405.9 83.19 423.44 83.2 423.4 C 82.5 425.5 81.3 426.3 79.6 426.3 C 79.1 426.3 78.5 426.2 78.1 426 C 78.1 426 78.5 424.1 78.5 424.1 Z M 90.8 420.4 L 90.8 400.4 L 93 400.4 L 93 420.4 L 90.8 420.4 Z M 110.2 420.4 C 110.2 420.4 110.22 418.82 110.2 418.8 C 109.3 420.1 107.9 420.7 106.4 420.7 C 104.1 420.7 102 418.9 102 415.9 C 102 412.9 104 411.1 106.4 411.1 C 107.9 411.1 109.3 411.7 110.2 413 C 110.2 413 110.2 410.5 110.2 410.5 C 110.2 408.5 109.1 407.4 107.2 407.4 C 105.9 407.4 104.7 407.9 103.6 409.2 C 103.6 409.2 102.7 407.6 102.7 407.6 C 104 406.2 105.7 405.5 107.6 405.5 C 110.5 405.5 112.4 406.9 112.4 410.2 C 112.38 410.24 112.4 420.4 112.4 420.4 L 110.2 420.4 Z M 110.2 417.3 C 110.2 417.3 110.2 414.6 110.2 414.6 C 109.6 413.4 108.4 412.7 107.1 412.7 C 105.3 412.7 104.2 414.1 104.2 415.9 C 104.2 417.7 105.3 419.2 107.1 419.2 C 108.4 419.2 109.6 418.5 110.2 417.3 Z M 115.3 413.1 C 115.3 408.8 117.6 405.5 121.3 405.5 C 123.3 405.5 124.5 406.3 125.4 407.4 C 125.4 407.4 124.3 408.9 124.3 408.9 C 123.5 407.9 122.6 407.4 121.5 407.4 C 118.9 407.4 117.5 410 117.5 413.1 C 117.5 416.2 118.9 418.8 121.5 418.8 C 122.6 418.8 123.5 418.4 124.3 417.3 C 124.3 417.3 125.4 418.8 125.4 418.8 C 124.5 420 123.3 420.7 121.3 420.7 C 117.6 420.7 115.3 417.4 115.3 413.1 Z M 127.2 413.1 C 127.2 408.9 129.4 405.5 133 405.5 C 136.9 405.5 138.8 408.9 138.8 413.2 C 138.78 413.18 138.8 413.8 138.8 413.8 C 138.8 413.8 129.39 413.84 129.4 413.8 C 129.5 416.7 131 418.9 133.6 418.9 C 134.8 418.9 136.1 418.3 137 417.2 C 137 417.2 138.1 418.4 138.1 418.4 C 137 419.9 135.3 420.7 133.4 420.7 C 129.5 420.7 127.2 417.6 127.2 413.1 Z M 133 407.3 C 130.5 407.3 129.4 410.1 129.4 412.2 C 129.4 412.2 136.6 412.2 136.6 412.2 C 136.6 410 135.7 407.3 133 407.3 Z M 142 417.5 C 142.05 417.47 142 407.8 142 407.8 L 140.1 407.8 L 140.1 405.9 L 142 405.9 L 142 401.9 L 144.2 401.9 L 144.2 405.9 L 146.7 405.9 L 146.7 407.8 L 144.2 407.8 C 144.2 407.8 144.21 417.08 144.2 417.1 C 144.2 418.2 144.5 418.8 145.4 418.8 C 145.9 418.8 146.4 418.6 146.6 418.2 C 146.6 418.2 147.3 419.9 147.3 419.9 C 146.8 420.4 146.1 420.7 145 420.7 C 143 420.7 142 419.6 142 417.5 Z M 156.7 420.4 C 156.7 420.4 156.66 418.82 156.7 418.8 C 155.7 420.1 154.3 420.7 152.8 420.7 C 150.5 420.7 148.5 418.9 148.5 415.9 C 148.5 412.9 150.5 411.1 152.8 411.1 C 154.3 411.1 155.8 411.7 156.7 413 C 156.7 413 156.7 410.5 156.7 410.5 C 156.7 408.5 155.6 407.4 153.7 407.4 C 152.3 407.4 151.2 407.9 150.1 409.2 C 150.1 409.2 149.1 407.6 149.1 407.6 C 150.5 406.2 152.2 405.5 154 405.5 C 156.9 405.5 158.8 406.9 158.8 410.2 C 158.82 410.24 158.8 420.4 158.8 420.4 L 156.7 420.4 Z M 156.7 417.3 C 156.7 417.3 156.7 414.6 156.7 414.6 C 156 413.4 154.8 412.7 153.5 412.7 C 151.7 412.7 150.7 414.1 150.7 415.9 C 150.7 417.7 151.7 419.2 153.5 419.2 C 154.8 419.2 156 418.5 156.7 417.3 Z M 162.9 417.5 C 162.87 417.47 162.9 407.8 162.9 407.8 L 160.9 407.8 L 160.9 405.9 L 162.9 405.9 L 162.9 401.9 L 165 401.9 L 165 405.9 L 167.5 405.9 L 167.5 407.8 L 165 407.8 C 165 407.8 165.03 417.08 165 417.1 C 165 418.2 165.4 418.8 166.2 418.8 C 166.7 418.8 167.2 418.6 167.5 418.2 C 167.5 418.2 168.1 419.9 168.1 419.9 C 167.6 420.4 166.9 420.7 165.8 420.7 C 163.8 420.7 162.9 419.6 162.9 417.5 Z M 169.3 413.1 C 169.3 408.9 171.5 405.5 175.2 405.5 C 179 405.5 180.9 408.9 180.9 413.2 C 180.93 413.18 180.9 413.8 180.9 413.8 C 180.9 413.8 171.54 413.84 171.5 413.8 C 171.6 416.7 173.1 418.9 175.7 418.9 C 177 418.9 178.3 418.3 179.2 417.2 C 179.2 417.2 180.3 418.4 180.3 418.4 C 179.1 419.9 177.5 420.7 175.5 420.7 C 171.7 420.7 169.3 417.6 169.3 413.1 Z M 175.2 407.3 C 172.6 407.3 171.6 410.1 171.5 412.2 C 171.5 412.2 178.8 412.2 178.8 412.2 C 178.8 410 177.8 407.3 175.2 407.3 Z M 184.5 424.2 C 184.5 424.2 183.4 423.3 183.4 423.3 C 184.3 422.6 185.2 421.5 185.3 420.5 C 185.2 420.5 185 420.5 184.9 420.5 C 184.1 420.5 183.5 419.9 183.5 419.1 C 183.5 418.2 184.2 417.5 185.1 417.5 C 186 417.5 186.9 418.3 186.9 419.7 C 186.9 421.5 185.8 423.2 184.5 424.2 Z M 195.8 410.4 C 195.8 404.4 198.8 400 203.5 400 C 206.6 400 208.3 401.9 209.4 403.9 C 209.4 403.9 207.4 404.9 207.4 404.9 C 206.6 403.2 205.3 402.2 203.5 402.2 C 200.3 402.2 198.2 405.6 198.2 410.4 C 198.2 415.1 200.3 418.6 203.5 418.6 C 205.4 418.6 206.7 417.3 207.4 415.6 C 207.4 415.6 209.5 416.6 209.5 416.6 C 208.3 418.8 206.6 420.7 203.5 420.7 C 198.8 420.7 195.8 416.4 195.8 410.4 Z M 212 420.4 L 212 400.4 L 214.2 400.4 L 214.2 420.4 L 212 420.4 Z M 217.1 413.1 C 217.1 408.9 219.3 405.5 223 405.5 C 226.8 405.5 228.7 408.9 228.7 413.2 C 228.71 413.18 228.7 413.8 228.7 413.8 C 228.7 413.8 219.32 413.84 219.3 413.8 C 219.4 416.7 220.9 418.9 223.5 418.9 C 224.8 418.9 226 418.3 226.9 417.2 C 226.9 417.2 228.1 418.4 228.1 418.4 C 226.9 419.9 225.3 420.7 223.3 420.7 C 219.4 420.7 217.1 417.6 217.1 413.1 Z M 223 407.3 C 220.4 407.3 219.4 410.1 219.3 412.2 C 219.3 412.2 226.6 412.2 226.6 412.2 C 226.6 410 225.6 407.3 223 407.3 Z M 239 420.4 C 239 420.4 239 418.82 239 418.8 C 238.1 420.1 236.7 420.7 235.2 420.7 C 232.9 420.7 230.8 418.9 230.8 415.9 C 230.8 412.9 232.8 411.1 235.2 411.1 C 236.7 411.1 238.1 411.7 239 413 C 239 413 239 410.5 239 410.5 C 239 408.5 237.9 407.4 236 407.4 C 234.7 407.4 233.5 407.9 232.4 409.2 C 232.4 409.2 231.4 407.6 231.4 407.6 C 232.8 406.2 234.5 405.5 236.4 405.5 C 239.2 405.5 241.2 406.9 241.2 410.2 C 241.16 410.24 241.2 420.4 241.2 420.4 L 239 420.4 Z M 239 417.3 C 239 417.3 239 414.6 239 414.6 C 238.3 413.4 237.1 412.7 235.9 412.7 C 234.1 412.7 233 414.1 233 415.9 C 233 417.7 234.1 419.2 235.9 419.2 C 237.1 419.2 238.3 418.5 239 417.3 Z M 244.8 420.4 L 244.8 405.9 L 246.9 405.9 C 246.9 405.9 246.92 408.2 246.9 408.2 C 247.9 406.7 249.3 405.6 251 405.6 C 251 405.6 251 407.8 251 407.8 C 250.8 407.7 250.6 407.7 250.3 407.7 C 249 407.7 247.5 408.9 246.9 410.1 C 246.92 410.09 246.9 420.4 246.9 420.4 L 244.8 420.4 Z M 259.3 424.4 C 259.3 424.4 260.2 422.7 260.2 422.7 C 261.2 423.9 262.4 424.4 264 424.4 C 266 424.4 267.7 423.3 267.7 420.5 C 267.7 420.5 267.7 418.1 267.7 418.1 C 266.8 419.5 265.4 420.6 263.8 420.6 C 260.6 420.6 258.7 417.6 258.7 413.1 C 258.7 408.6 260.6 405.5 263.8 405.5 C 265.3 405.5 266.8 406.4 267.7 408 C 267.65 407.99 267.7 405.9 267.7 405.9 L 269.8 405.9 C 269.8 405.9 269.81 420.35 269.8 420.3 C 269.8 424.8 267.1 426.3 264.1 426.3 C 262.1 426.3 260.6 425.8 259.3 424.4 Z M 267.7 416.2 C 267.7 416.2 267.7 409.8 267.7 409.8 C 267.1 408.6 265.8 407.4 264.4 407.4 C 262 407.4 260.9 409.9 260.9 413.1 C 260.9 416.2 262 418.6 264.4 418.6 C 265.8 418.6 267.1 417.5 267.7 416.2 Z M 273.4 420.4 L 273.4 400.4 L 275.6 400.4 L 275.6 420.4 L 273.4 420.4 Z M 287.1 420.4 C 287.1 420.4 287.06 418.37 287.1 418.4 C 286.2 419.6 284.7 420.7 282.9 420.7 C 280.4 420.7 279.2 419.5 279.2 416.9 C 279.23 416.87 279.2 405.9 279.2 405.9 L 281.4 405.9 C 281.4 405.9 281.36 416.24 281.4 416.2 C 281.4 418.2 282.3 418.8 283.7 418.8 C 285.1 418.8 286.4 417.8 287.1 416.6 C 287.06 416.57 287.1 405.9 287.1 405.9 L 289.2 405.9 L 289.2 420.4 L 287.1 420.4 Z M 292.2 413.1 C 292.2 408.9 294.4 405.5 298 405.5 C 301.9 405.5 303.8 408.9 303.8 413.2 C 303.77 413.18 303.8 413.8 303.8 413.8 C 303.8 413.8 294.38 413.84 294.4 413.8 C 294.5 416.7 296 418.9 298.6 418.9 C 299.8 418.9 301.1 418.3 302 417.2 C 302 417.2 303.1 418.4 303.1 418.4 C 302 419.9 300.3 420.7 298.4 420.7 C 294.5 420.7 292.2 417.6 292.2 413.1 Z M 298 407.3 C 295.5 407.3 294.4 410.1 294.4 412.2 C 294.4 412.2 301.6 412.2 301.6 412.2 C 301.6 410 300.7 407.3 298 407.3 Z " stroke="none" fill="#d3d2d2"/>  </g>  <g id="Polygon224511">    <path d="M 2.1 384.4 L 2.1 364.4 C 2.1 364.4 8.19 364.37 8.2 364.4 C 11.8 364.4 13.7 367.1 13.7 370.4 C 13.7 373.6 11.8 376.4 8.2 376.4 C 8.19 376.37 4.5 376.4 4.5 376.4 L 4.5 384.4 L 2.1 384.4 Z M 11.3 370.4 C 11.3 368.1 10 366.5 7.9 366.5 C 7.95 366.47 4.5 366.5 4.5 366.5 L 4.5 374.3 C 4.5 374.3 7.95 374.27 7.9 374.3 C 10 374.3 11.3 372.6 11.3 370.4 Z M 15.1 377.1 C 15.1 372.9 17.3 369.5 20.9 369.5 C 24.8 369.5 26.7 372.9 26.7 377.2 C 26.67 377.18 26.7 377.8 26.7 377.8 C 26.7 377.8 17.28 377.84 17.3 377.8 C 17.4 380.7 18.9 382.9 21.5 382.9 C 22.7 382.9 24 382.3 24.9 381.2 C 24.9 381.2 26 382.4 26 382.4 C 24.9 383.9 23.2 384.7 21.3 384.7 C 17.4 384.7 15.1 381.6 15.1 377.1 Z M 20.9 371.3 C 18.4 371.3 17.3 374.1 17.3 376.2 C 17.3 376.2 24.5 376.2 24.5 376.2 C 24.5 374 23.6 371.3 20.9 371.3 Z M 29.9 381.5 C 29.94 381.47 29.9 371.8 29.9 371.8 L 28 371.8 L 28 369.9 L 29.9 369.9 L 29.9 365.9 L 32.1 365.9 L 32.1 369.9 L 34.6 369.9 L 34.6 371.8 L 32.1 371.8 C 32.1 371.8 32.1 381.08 32.1 381.1 C 32.1 382.2 32.4 382.8 33.3 382.8 C 33.8 382.8 34.3 382.6 34.5 382.2 C 34.5 382.2 35.2 383.9 35.2 383.9 C 34.7 384.4 34 384.7 32.8 384.7 C 30.9 384.7 29.9 383.6 29.9 381.5 Z M 37.1 384.4 L 37.1 369.9 L 39.2 369.9 C 39.2 369.9 39.24 372.2 39.2 372.2 C 40.2 370.7 41.6 369.6 43.3 369.6 C 43.3 369.6 43.3 371.8 43.3 371.8 C 43.1 371.7 42.9 371.7 42.6 371.7 C 41.3 371.7 39.8 372.9 39.2 374.1 C 39.24 374.09 39.2 384.4 39.2 384.4 L 37.1 384.4 Z M 44.8 377.1 C 44.8 373 46.9 369.5 50.7 369.5 C 54.6 369.5 56.6 373 56.6 377.1 C 56.6 381.2 54.6 384.7 50.7 384.7 C 46.9 384.7 44.8 381.2 44.8 377.1 Z M 54.4 377.1 C 54.4 374.2 53.2 371.4 50.7 371.4 C 48.2 371.4 47.1 374.2 47.1 377.1 C 47.1 380.1 48.2 382.8 50.7 382.8 C 53.2 382.8 54.4 380.1 54.4 377.1 Z M 59.5 384.4 L 59.5 364.4 L 61.7 364.4 L 61.7 384.4 L 59.5 384.4 Z M 64.6 377.1 C 64.6 372.9 66.8 369.5 70.5 369.5 C 74.3 369.5 76.2 372.9 76.2 377.2 C 76.23 377.18 76.2 377.8 76.2 377.8 C 76.2 377.8 66.84 377.84 66.8 377.8 C 66.9 380.7 68.4 382.9 71 382.9 C 72.3 382.9 73.6 382.3 74.5 381.2 C 74.5 381.2 75.6 382.4 75.6 382.4 C 74.4 383.9 72.8 384.7 70.8 384.7 C 67 384.7 64.6 381.6 64.6 377.1 Z M 70.5 371.3 C 67.9 371.3 66.9 374.1 66.8 376.2 C 66.8 376.2 74.1 376.2 74.1 376.2 C 74.1 374 73.1 371.3 70.5 371.3 Z M 86.9 384.4 C 86.9 384.4 86.91 382.37 86.9 382.4 C 86 383.6 84.5 384.7 82.7 384.7 C 80.2 384.7 79.1 383.5 79.1 380.9 C 79.08 380.87 79.1 369.9 79.1 369.9 L 81.2 369.9 C 81.2 369.9 81.21 380.24 81.2 380.2 C 81.2 382.2 82.1 382.8 83.5 382.8 C 85 382.8 86.3 381.8 86.9 380.6 C 86.91 380.57 86.9 369.9 86.9 369.9 L 89.1 369.9 L 89.1 384.4 L 86.9 384.4 Z M 107.4 384.4 C 107.4 384.4 107.37 373.88 107.4 373.9 C 107.4 372.3 106.7 371.4 105.4 371.4 C 104.1 371.4 102.8 372.6 102.2 373.8 C 102.21 373.76 102.2 384.4 102.2 384.4 L 100 384.4 C 100 384.4 100.05 373.88 100 373.9 C 100 372.3 99.4 371.4 98 371.4 C 96.7 371.4 95.5 372.6 94.9 373.8 C 94.86 373.76 94.9 384.4 94.9 384.4 L 92.7 384.4 L 92.7 369.9 L 94.9 369.9 C 94.9 369.9 94.86 371.96 94.9 372 C 95.5 370.9 97.1 369.5 98.8 369.5 C 100.7 369.5 101.8 370.6 102.1 372.1 C 102.8 370.8 104.4 369.5 106.2 369.5 C 108.3 369.5 109.5 370.7 109.5 373.3 C 109.53 373.31 109.5 384.4 109.5 384.4 L 107.4 384.4 Z M 118.9 366.3 C 118.9 365.5 119.6 364.8 120.4 364.8 C 121.2 364.8 121.9 365.5 121.9 366.3 C 121.9 367.1 121.2 367.8 120.4 367.8 C 119.6 367.8 118.9 367.1 118.9 366.3 Z M 115.4 389.2 C 115.4 389.2 116.2 387.6 116.2 387.6 C 116.5 388.1 117 388.4 117.7 388.4 C 118.6 388.4 119.3 387.8 119.3 386.1 C 119.34 386.15 119.3 369.9 119.3 369.9 L 121.5 369.9 C 121.5 369.9 121.47 386.15 121.5 386.1 C 121.5 388.9 120.2 390.3 117.9 390.3 C 116.7 390.3 116 389.9 115.4 389.2 Z M 124.4 377.1 C 124.4 372.9 126.6 369.5 130.3 369.5 C 134.1 369.5 136 372.9 136 377.2 C 136.02 377.18 136 377.8 136 377.8 C 136 377.8 126.63 377.84 126.6 377.8 C 126.7 380.7 128.2 382.9 130.8 382.9 C 132.1 382.9 133.3 382.3 134.2 381.2 C 134.2 381.2 135.4 382.4 135.4 382.4 C 134.2 383.9 132.6 384.7 130.6 384.7 C 126.7 384.7 124.4 381.6 124.4 377.1 Z M 130.3 371.3 C 127.7 371.3 126.7 374.1 126.6 376.2 C 126.6 376.2 133.9 376.2 133.9 376.2 C 133.9 374 132.9 371.3 130.3 371.3 Z M 138.9 384.4 L 138.9 364.4 L 141 364.4 L 141 384.4 L 138.9 384.4 Z M 144.7 384.4 L 144.7 364.4 L 146.8 364.4 L 146.8 384.4 L 144.7 384.4 Z M 150 388.1 C 150.3 388.3 150.7 388.3 151 388.3 C 151.8 388.3 152.3 388 152.7 386.9 C 152.7 386.9 153.5 384.7 153.5 384.7 L 148.6 369.9 L 151 369.9 L 154.6 381.8 L 158.2 369.9 L 160.5 369.9 C 160.5 369.9 154.74 387.44 154.7 387.4 C 154 389.5 152.8 390.3 151.1 390.3 C 150.7 390.3 150 390.2 149.7 390 C 149.7 390 150 388.1 150 388.1 Z " stroke="none" fill="#d3d2d2"/>  </g>  <g id="Polygon224510">    <path d="M 2.1 348.4 L 2.1 328.4 L 12.4 328.4 L 12.4 330.5 L 4.5 330.5 L 4.5 337.1 L 12.2 337.1 L 12.2 339.2 L 4.5 339.2 L 4.5 346.2 L 12.4 346.2 L 12.4 348.4 L 2.1 348.4 Z M 15.9 345.5 C 15.93 345.47 15.9 335.8 15.9 335.8 L 14 335.8 L 14 333.9 L 15.9 333.9 L 15.9 329.9 L 18.1 329.9 L 18.1 333.9 L 20.5 333.9 L 20.5 335.8 L 18.1 335.8 C 18.1 335.8 18.09 345.08 18.1 345.1 C 18.1 346.2 18.4 346.8 19.3 346.8 C 19.8 346.8 20.2 346.6 20.5 346.2 C 20.5 346.2 21.2 347.9 21.2 347.9 C 20.7 348.4 19.9 348.7 18.8 348.7 C 16.9 348.7 15.9 347.6 15.9 345.5 Z M 31 348.4 C 31 348.4 30.96 338.03 31 338 C 31 336.1 30.1 335.4 28.6 335.4 C 27.2 335.4 25.9 336.6 25.2 337.8 C 25.23 337.76 25.2 348.4 25.2 348.4 L 23.1 348.4 L 23.1 328.4 L 25.2 328.4 C 25.2 328.4 25.23 335.96 25.2 336 C 26.1 334.7 27.7 333.5 29.5 333.5 C 31.9 333.5 33.1 334.8 33.1 337.4 C 33.09 337.4 33.1 348.4 33.1 348.4 L 31 348.4 Z M 36.3 352.1 C 36.6 352.3 37 352.3 37.3 352.3 C 38.1 352.3 38.6 352 39 350.9 C 39 350.9 39.8 348.7 39.8 348.7 L 34.9 333.9 L 37.3 333.9 L 40.9 345.8 L 44.5 333.9 L 46.8 333.9 C 46.8 333.9 41.04 351.44 41 351.4 C 40.3 353.5 39.1 354.3 37.4 354.3 C 37 354.3 36.3 354.2 36 354 C 36 354 36.3 352.1 36.3 352.1 Z M 48.7 348.4 L 48.7 328.4 L 50.8 328.4 L 50.8 348.4 L 48.7 348.4 Z M 53.8 341.1 C 53.8 336.9 56 333.5 59.6 333.5 C 63.4 333.5 65.4 336.9 65.4 341.2 C 65.37 341.18 65.4 341.8 65.4 341.8 C 65.4 341.8 55.98 341.84 56 341.8 C 56.1 344.7 57.6 346.9 60.1 346.9 C 61.4 346.9 62.7 346.3 63.6 345.2 C 63.6 345.2 64.7 346.4 64.7 346.4 C 63.6 347.9 61.9 348.7 60 348.7 C 56.1 348.7 53.8 345.6 53.8 341.1 Z M 59.6 335.3 C 57.1 335.3 56 338.1 56 340.2 C 56 340.2 63.2 340.2 63.2 340.2 C 63.2 338 62.2 335.3 59.6 335.3 Z M 76 348.4 C 76 348.4 76.05 338.06 76 338.1 C 76 336.1 75.2 335.4 73.7 335.4 C 72.3 335.4 71 336.6 70.3 337.8 C 70.35 337.76 70.3 348.4 70.3 348.4 L 68.2 348.4 L 68.2 333.9 L 70.3 333.9 C 70.3 333.9 70.35 335.96 70.3 336 C 71.2 334.7 72.8 333.5 74.5 333.5 C 77 333.5 78.2 334.8 78.2 337.5 C 78.21 337.46 78.2 348.4 78.2 348.4 L 76 348.4 Z M 81.1 341.1 C 81.1 336.9 83.4 333.5 87 333.5 C 90.8 333.5 92.8 336.9 92.8 341.2 C 92.76 341.18 92.8 341.8 92.8 341.8 C 92.8 341.8 83.37 341.84 83.4 341.8 C 83.5 344.7 85 346.9 87.5 346.9 C 88.8 346.9 90.1 346.3 91 345.2 C 91 345.2 92.1 346.4 92.1 346.4 C 91 347.9 89.3 348.7 87.4 348.7 C 83.5 348.7 81.1 345.6 81.1 341.1 Z M 87 335.3 C 84.4 335.3 83.4 338.1 83.4 340.2 C 83.4 340.2 90.6 340.2 90.6 340.2 C 90.6 338 89.6 335.3 87 335.3 Z M 94.5 342.1 L 94.5 340.2 L 100.7 340.2 L 100.7 342.1 L 94.5 342.1 Z M 106.3 348.4 L 101.5 333.9 L 103.9 333.9 L 107.5 345.8 L 111.1 333.9 L 113.4 333.9 L 108.6 348.4 L 106.3 348.4 Z M 114.8 330.3 C 114.8 329.5 115.5 328.8 116.3 328.8 C 117.1 328.8 117.8 329.5 117.8 330.3 C 117.8 331.1 117.1 331.8 116.3 331.8 C 115.5 331.8 114.8 331.1 114.8 330.3 Z M 115.3 348.4 L 115.3 333.9 L 117.4 333.9 L 117.4 348.4 L 115.3 348.4 Z M 128.9 348.4 C 128.9 348.4 128.88 338.06 128.9 338.1 C 128.9 336.1 128 335.4 126.6 335.4 C 125.2 335.4 123.8 336.6 123.2 337.8 C 123.18 337.76 123.2 348.4 123.2 348.4 L 121 348.4 L 121 333.9 L 123.2 333.9 C 123.2 333.9 123.18 335.96 123.2 336 C 124 334.7 125.6 333.5 127.4 333.5 C 129.8 333.5 131 334.8 131 337.5 C 131.04 337.46 131 348.4 131 348.4 L 128.9 348.4 Z M 134.3 352.1 C 134.5 352.3 135 352.3 135.2 352.3 C 136.1 352.3 136.6 352 136.9 350.9 C 136.95 350.9 137.7 348.7 137.7 348.7 L 132.9 333.9 L 135.2 333.9 L 138.8 345.8 L 142.5 333.9 L 144.8 333.9 C 144.8 333.9 138.99 351.44 139 351.4 C 138.3 353.5 137.1 354.3 135.4 354.3 C 134.9 354.3 134.3 354.2 133.9 354 C 133.9 354 134.3 352.1 134.3 352.1 Z M 146.6 348.4 L 146.6 328.4 L 148.8 328.4 L 148.8 348.4 L 146.6 348.4 Z M 166 348.4 C 166 348.4 166.02 346.82 166 346.8 C 165.1 348.1 163.7 348.7 162.2 348.7 C 159.9 348.7 157.8 346.9 157.8 343.9 C 157.8 340.9 159.8 339.1 162.2 339.1 C 163.7 339.1 165.1 339.7 166 341 C 166 341 166 338.5 166 338.5 C 166 336.5 164.9 335.4 163 335.4 C 161.7 335.4 160.5 335.9 159.4 337.2 C 159.4 337.2 158.5 335.6 158.5 335.6 C 159.8 334.2 161.5 333.5 163.4 333.5 C 166.3 333.5 168.2 334.9 168.2 338.2 C 168.18 338.24 168.2 348.4 168.2 348.4 L 166 348.4 Z M 166 345.3 C 166 345.3 166 342.6 166 342.6 C 165.4 341.4 164.2 340.7 162.9 340.7 C 161.1 340.7 160 342.1 160 343.9 C 160 345.7 161.1 347.2 162.9 347.2 C 164.2 347.2 165.4 346.5 166 345.3 Z M 171.1 341.1 C 171.1 336.8 173.4 333.5 177.1 333.5 C 179.1 333.5 180.3 334.3 181.2 335.4 C 181.2 335.4 180.1 336.9 180.1 336.9 C 179.3 335.9 178.4 335.4 177.3 335.4 C 174.7 335.4 173.3 338 173.3 341.1 C 173.3 344.2 174.7 346.8 177.3 346.8 C 178.4 346.8 179.3 346.4 180.1 345.3 C 180.1 345.3 181.2 346.8 181.2 346.8 C 180.3 348 179.1 348.7 177.1 348.7 C 173.4 348.7 171.1 345.4 171.1 341.1 Z M 183 341.1 C 183 336.9 185.2 333.5 188.8 333.5 C 192.7 333.5 194.6 336.9 194.6 341.2 C 194.58 341.18 194.6 341.8 194.6 341.8 C 194.6 341.8 185.19 341.84 185.2 341.8 C 185.3 344.7 186.8 346.9 189.4 346.9 C 190.6 346.9 191.9 346.3 192.8 345.2 C 192.8 345.2 193.9 346.4 193.9 346.4 C 192.8 347.9 191.1 348.7 189.2 348.7 C 185.3 348.7 183 345.6 183 341.1 Z M 188.8 335.3 C 186.3 335.3 185.2 338.1 185.2 340.2 C 185.2 340.2 192.4 340.2 192.4 340.2 C 192.4 338 191.5 335.3 188.8 335.3 Z M 197.8 345.5 C 197.85 345.47 197.8 335.8 197.8 335.8 L 195.9 335.8 L 195.9 333.9 L 197.8 333.9 L 197.8 329.9 L 200 329.9 L 200 333.9 L 202.5 333.9 L 202.5 335.8 L 200 335.8 C 200 335.8 200.01 345.08 200 345.1 C 200 346.2 200.3 346.8 201.2 346.8 C 201.7 346.8 202.2 346.6 202.4 346.2 C 202.4 346.2 203.1 347.9 203.1 347.9 C 202.6 348.4 201.9 348.7 200.8 348.7 C 198.8 348.7 197.8 347.6 197.8 345.5 Z M 212.5 348.4 C 212.5 348.4 212.45 346.82 212.5 346.8 C 211.5 348.1 210.1 348.7 208.6 348.7 C 206.3 348.7 204.3 346.9 204.3 343.9 C 204.3 340.9 206.3 339.1 208.6 339.1 C 210.1 339.1 211.6 339.7 212.5 341 C 212.5 341 212.5 338.5 212.5 338.5 C 212.5 336.5 211.4 335.4 209.5 335.4 C 208.1 335.4 207 335.9 205.9 337.2 C 205.9 337.2 204.9 335.6 204.9 335.6 C 206.3 334.2 208 333.5 209.8 333.5 C 212.7 333.5 214.6 334.9 214.6 338.2 C 214.61 338.24 214.6 348.4 214.6 348.4 L 212.5 348.4 Z M 212.5 345.3 C 212.5 345.3 212.5 342.6 212.5 342.6 C 211.8 341.4 210.6 340.7 209.3 340.7 C 207.5 340.7 206.5 342.1 206.5 343.9 C 206.5 345.7 207.5 347.2 209.3 347.2 C 210.6 347.2 211.8 346.5 212.5 345.3 Z M 218.7 345.5 C 218.66 345.47 218.7 335.8 218.7 335.8 L 216.7 335.8 L 216.7 333.9 L 218.7 333.9 L 218.7 329.9 L 220.8 329.9 L 220.8 333.9 L 223.3 333.9 L 223.3 335.8 L 220.8 335.8 C 220.8 335.8 220.82 345.08 220.8 345.1 C 220.8 346.2 221.2 346.8 222 346.8 C 222.5 346.8 223 346.6 223.3 346.2 C 223.3 346.2 223.9 347.9 223.9 347.9 C 223.4 348.4 222.7 348.7 221.6 348.7 C 219.6 348.7 218.7 347.6 218.7 345.5 Z M 225.1 341.1 C 225.1 336.9 227.3 333.5 231 333.5 C 234.8 333.5 236.7 336.9 236.7 341.2 C 236.72 341.18 236.7 341.8 236.7 341.8 C 236.7 341.8 227.33 341.84 227.3 341.8 C 227.4 344.7 228.9 346.9 231.5 346.9 C 232.8 346.9 234.1 346.3 235 345.2 C 235 345.2 236.1 346.4 236.1 346.4 C 234.9 347.9 233.3 348.7 231.3 348.7 C 227.5 348.7 225.1 345.6 225.1 341.1 Z M 231 335.3 C 228.4 335.3 227.4 338.1 227.3 340.2 C 227.3 340.2 234.6 340.2 234.6 340.2 C 234.6 338 233.6 335.3 231 335.3 Z M 240.3 352.2 C 240.3 352.2 239.2 351.3 239.2 351.3 C 240.1 350.6 241 349.5 241.1 348.5 C 241 348.5 240.8 348.5 240.7 348.5 C 239.9 348.5 239.3 347.9 239.3 347.1 C 239.3 346.2 240 345.5 240.9 345.5 C 241.8 345.5 242.7 346.3 242.7 347.7 C 242.7 349.5 241.6 351.2 240.3 352.2 Z M 262.9 348.4 L 262.9 339.1 L 254.7 339.1 L 254.7 348.4 L 252.3 348.4 L 252.3 328.4 L 254.7 328.4 L 254.7 337 L 262.9 337 L 262.9 328.4 L 265.3 328.4 L 265.3 348.4 L 262.9 348.4 Z M 268.3 341.1 C 268.3 337 270.4 333.5 274.2 333.5 C 278.1 333.5 280.1 337 280.1 341.1 C 280.1 345.2 278.1 348.7 274.2 348.7 C 270.4 348.7 268.3 345.2 268.3 341.1 Z M 277.9 341.1 C 277.9 338.2 276.8 335.4 274.2 335.4 C 271.7 335.4 270.6 338.2 270.6 341.1 C 270.6 344.1 271.7 346.8 274.2 346.8 C 276.8 346.8 277.9 344.1 277.9 341.1 Z M 283.5 345.5 C 283.49 345.47 283.5 335.8 283.5 335.8 L 281.6 335.8 L 281.6 333.9 L 283.5 333.9 L 283.5 329.9 L 285.7 329.9 L 285.7 333.9 L 288.1 333.9 L 288.1 335.8 L 285.7 335.8 C 285.7 335.8 285.65 345.08 285.7 345.1 C 285.7 346.2 286 346.8 286.8 346.8 C 287.4 346.8 287.8 346.6 288.1 346.2 C 288.1 346.2 288.7 347.9 288.7 347.9 C 288.2 348.4 287.5 348.7 286.4 348.7 C 284.4 348.7 283.5 347.6 283.5 345.5 Z M 311.5 348.4 C 311.5 348.4 311.45 337.88 311.5 337.9 C 311.5 336.3 310.8 335.4 309.4 335.4 C 308.2 335.4 306.9 336.6 306.3 337.8 C 306.29 337.76 306.3 348.4 306.3 348.4 L 304.1 348.4 C 304.1 348.4 304.13 337.88 304.1 337.9 C 304.1 336.3 303.5 335.4 302.1 335.4 C 300.8 335.4 299.6 336.6 298.9 337.8 C 298.94 337.76 298.9 348.4 298.9 348.4 L 296.8 348.4 L 296.8 333.9 L 298.9 333.9 C 298.9 333.9 298.94 335.96 298.9 336 C 299.5 334.9 301.2 333.5 302.9 333.5 C 304.8 333.5 305.9 334.6 306.2 336.1 C 306.9 334.8 308.5 333.5 310.3 333.5 C 312.4 333.5 313.6 334.7 313.6 337.3 C 313.61 337.31 313.6 348.4 313.6 348.4 L 311.5 348.4 Z M 316.6 341.1 C 316.6 336.9 318.8 333.5 322.4 333.5 C 326.2 333.5 328.2 336.9 328.2 341.2 C 328.16 341.18 328.2 341.8 328.2 341.8 C 328.2 341.8 318.77 341.84 318.8 341.8 C 318.9 344.7 320.4 346.9 322.9 346.9 C 324.2 346.9 325.5 346.3 326.4 345.2 C 326.4 345.2 327.5 346.4 327.5 346.4 C 326.4 347.9 324.7 348.7 322.8 348.7 C 318.9 348.7 316.6 345.6 316.6 341.1 Z M 322.4 335.3 C 319.9 335.3 318.8 338.1 318.8 340.2 C 318.8 340.2 326 340.2 326 340.2 C 326 338 325 335.3 322.4 335.3 Z M 331 348.4 L 331 328.4 L 333.1 328.4 L 333.1 348.4 L 331 348.4 Z M 337.2 345.5 C 337.22 345.47 337.2 335.8 337.2 335.8 L 335.3 335.8 L 335.3 333.9 L 337.2 333.9 L 337.2 329.9 L 339.4 329.9 L 339.4 333.9 L 341.8 333.9 L 341.8 335.8 L 339.4 335.8 C 339.4 335.8 339.38 345.08 339.4 345.1 C 339.4 346.2 339.7 346.8 340.6 346.8 C 341.1 346.8 341.5 346.6 341.8 346.2 C 341.8 346.2 342.5 347.9 342.5 347.9 C 342 348.4 341.2 348.7 340.1 348.7 C 338.2 348.7 337.2 347.6 337.2 345.5 Z M 350.4 352.4 C 350.4 352.4 351.4 350.7 351.4 350.7 C 352.4 351.9 353.6 352.4 355.2 352.4 C 357.2 352.4 358.8 351.3 358.8 348.5 C 358.8 348.5 358.8 346.1 358.8 346.1 C 358 347.5 356.5 348.6 355 348.6 C 351.8 348.6 349.8 345.6 349.8 341.1 C 349.8 336.6 351.7 333.5 355 333.5 C 356.5 333.5 357.9 334.4 358.8 336 C 358.82 335.99 358.8 333.9 358.8 333.9 L 361 333.9 C 361 333.9 360.98 348.35 361 348.3 C 361 352.8 358.3 354.3 355.3 354.3 C 353.3 354.3 351.8 353.8 350.4 352.4 Z M 358.8 344.2 C 358.8 344.2 358.8 337.8 358.8 337.8 C 358.3 336.6 356.9 335.4 355.6 335.4 C 353.2 335.4 352.1 337.9 352.1 341.1 C 352.1 344.2 353.2 346.6 355.6 346.6 C 356.9 346.6 358.3 345.5 358.8 344.2 Z M 364.6 348.4 L 364.6 328.4 L 366.7 328.4 L 366.7 348.4 L 364.6 348.4 Z M 378.2 348.4 C 378.2 348.4 378.23 346.37 378.2 346.4 C 377.4 347.6 375.8 348.7 374 348.7 C 371.6 348.7 370.4 347.5 370.4 344.9 C 370.4 344.87 370.4 333.9 370.4 333.9 L 372.5 333.9 C 372.5 333.9 372.53 344.24 372.5 344.2 C 372.5 346.2 373.4 346.8 374.8 346.8 C 376.3 346.8 377.6 345.8 378.2 344.6 C 378.23 344.57 378.2 333.9 378.2 333.9 L 380.4 333.9 L 380.4 348.4 L 378.2 348.4 Z M 383.3 341.1 C 383.3 336.9 385.5 333.5 389.2 333.5 C 393 333.5 394.9 336.9 394.9 341.2 C 394.94 341.18 394.9 341.8 394.9 341.8 C 394.9 341.8 385.55 341.84 385.5 341.8 C 385.6 344.7 387.1 346.9 389.7 346.9 C 391 346.9 392.3 346.3 393.2 345.2 C 393.2 345.2 394.3 346.4 394.3 346.4 C 393.1 347.9 391.5 348.7 389.5 348.7 C 385.7 348.7 383.3 345.6 383.3 341.1 Z M 389.2 335.3 C 386.6 335.3 385.6 338.1 385.5 340.2 C 385.5 340.2 392.8 340.2 392.8 340.2 C 392.8 338 391.8 335.3 389.2 335.3 Z M 402.8 346.7 C 402.8 346.7 403.8 345.2 403.8 345.2 C 404.7 346.2 406.1 347 407.6 347 C 409.3 347 410.4 346 410.4 344.7 C 410.4 341.3 403.2 342.4 403.2 337.4 C 403.2 335.3 404.9 333.5 407.8 333.5 C 409.7 333.5 411.2 334.3 412.2 335.4 C 412.2 335.4 411.2 336.9 411.2 336.9 C 410.5 335.9 409.2 335.3 407.8 335.3 C 406.2 335.3 405.3 336.2 405.3 337.4 C 405.3 340.5 412.5 339.4 412.5 344.6 C 412.5 347 410.6 348.7 407.7 348.7 C 405.6 348.7 404 348.1 402.8 346.7 Z M 415.7 345.5 C 415.67 345.47 415.7 335.8 415.7 335.8 L 413.7 335.8 L 413.7 333.9 L 415.7 333.9 L 415.7 329.9 L 417.8 329.9 L 417.8 333.9 L 420.3 333.9 L 420.3 335.8 L 417.8 335.8 C 417.8 335.8 417.83 345.08 417.8 345.1 C 417.8 346.2 418.2 346.8 419 346.8 C 419.5 346.8 420 346.6 420.3 346.2 C 420.3 346.2 420.9 347.9 420.9 347.9 C 420.4 348.4 419.7 348.7 418.6 348.7 C 416.6 348.7 415.7 347.6 415.7 345.5 Z M 422.4 330.3 C 422.4 329.5 423.1 328.8 423.9 328.8 C 424.7 328.8 425.4 329.5 425.4 330.3 C 425.4 331.1 424.7 331.8 423.9 331.8 C 423.1 331.8 422.4 331.1 422.4 330.3 Z M 422.8 348.4 L 422.8 333.9 L 425 333.9 L 425 348.4 L 422.8 348.4 Z M 427.9 341.1 C 427.9 336.8 430.2 333.5 433.9 333.5 C 435.9 333.5 437.1 334.3 438 335.4 C 438 335.4 436.9 336.9 436.9 336.9 C 436.1 335.9 435.2 335.4 434.1 335.4 C 431.5 335.4 430.2 338 430.2 341.1 C 430.2 344.2 431.5 346.8 434.1 346.8 C 435.2 346.8 436.1 346.4 436.9 345.3 C 436.9 345.3 438 346.8 438 346.8 C 437.1 348 435.9 348.7 433.9 348.7 C 430.2 348.7 427.9 345.4 427.9 341.1 Z M 448.7 348.4 L 444.7 341.8 L 442.6 344.4 L 442.6 348.4 L 440.5 348.4 L 440.5 328.4 L 442.6 328.4 L 442.6 341.7 L 448.7 333.9 L 451.2 333.9 L 446.1 340.4 L 451.2 348.4 L 448.7 348.4 Z M 452.2 346.7 C 452.2 346.7 453.3 345.2 453.3 345.2 C 454.1 346.2 455.5 347 457 347 C 458.7 347 459.8 346 459.8 344.7 C 459.8 341.3 452.6 342.4 452.6 337.4 C 452.6 335.3 454.3 333.5 457.2 333.5 C 459.1 333.5 460.6 334.3 461.6 335.4 C 461.6 335.4 460.6 336.9 460.6 336.9 C 459.9 335.9 458.7 335.3 457.2 335.3 C 455.7 335.3 454.7 336.2 454.7 337.4 C 454.7 340.5 461.9 339.4 461.9 344.6 C 461.9 347 460 348.7 457.1 348.7 C 455 348.7 453.4 348.1 452.2 346.7 Z " stroke="none" fill="#d3d2d2"/>  </g>  <g id="Polygon224509">    <path d="M 1.4 302.4 C 1.4 296.4 4.4 292 9.2 292 C 12.2 292 13.9 293.9 15 295.9 C 15 295.9 13 296.9 13 296.9 C 12.2 295.2 10.9 294.2 9.2 294.2 C 5.9 294.2 3.9 297.6 3.9 302.4 C 3.9 307.1 5.9 310.6 9.2 310.6 C 11 310.6 12.3 309.3 13.1 307.6 C 13.1 307.6 15.1 308.6 15.1 308.6 C 14 310.8 12.3 312.7 9.2 312.7 C 4.4 312.7 1.4 308.4 1.4 302.4 Z M 16.9 305.1 C 16.9 300.9 19.2 297.5 22.8 297.5 C 26.6 297.5 28.6 300.9 28.6 305.2 C 28.56 305.18 28.6 305.8 28.6 305.8 C 28.6 305.8 19.17 305.84 19.2 305.8 C 19.3 308.7 20.8 310.9 23.3 310.9 C 24.6 310.9 25.9 310.3 26.8 309.2 C 26.8 309.2 27.9 310.4 27.9 310.4 C 26.8 311.9 25.1 312.7 23.2 312.7 C 19.3 312.7 16.9 309.6 16.9 305.1 Z M 22.8 299.3 C 20.2 299.3 19.2 302.1 19.2 304.2 C 19.2 304.2 26.4 304.2 26.4 304.2 C 26.4 302 25.4 299.3 22.8 299.3 Z M 31.4 312.4 L 31.4 292.4 L 33.5 292.4 L 33.5 312.4 L 31.4 312.4 Z M 37.2 312.4 L 37.2 292.4 L 39.3 292.4 L 39.3 312.4 L 37.2 312.4 Z M 50.8 312.4 C 50.8 312.4 50.82 310.37 50.8 310.4 C 49.9 311.6 48.4 312.7 46.6 312.7 C 44.2 312.7 43 311.5 43 308.9 C 42.99 308.87 43 297.9 43 297.9 L 45.1 297.9 C 45.1 297.9 45.12 308.24 45.1 308.2 C 45.1 310.2 46 310.8 47.4 310.8 C 48.9 310.8 50.2 309.8 50.8 308.6 C 50.82 308.57 50.8 297.9 50.8 297.9 L 53 297.9 L 53 312.4 L 50.8 312.4 Z M 56.6 312.4 L 56.6 292.4 L 58.8 292.4 L 58.8 312.4 L 56.6 312.4 Z M 61.7 305.1 C 61.7 301 63.7 297.5 67.6 297.5 C 71.5 297.5 73.5 301 73.5 305.1 C 73.5 309.2 71.5 312.7 67.6 312.7 C 63.7 312.7 61.7 309.2 61.7 305.1 Z M 71.2 305.1 C 71.2 302.2 70.1 299.4 67.6 299.4 C 65.1 299.4 64 302.2 64 305.1 C 64 308.1 65.1 310.8 67.6 310.8 C 70.1 310.8 71.2 308.1 71.2 305.1 Z M 75.3 310.7 C 75.3 310.7 76.3 309.2 76.3 309.2 C 77.2 310.2 78.6 311 80.1 311 C 81.8 311 82.9 310 82.9 308.7 C 82.9 305.3 75.7 306.4 75.7 301.4 C 75.7 299.3 77.4 297.5 80.3 297.5 C 82.2 297.5 83.7 298.3 84.7 299.4 C 84.7 299.4 83.7 300.9 83.7 300.9 C 83 299.9 81.7 299.3 80.3 299.3 C 78.7 299.3 77.8 300.2 77.8 301.4 C 77.8 304.5 85 303.4 85 308.6 C 85 311 83.1 312.7 80.2 312.7 C 78.1 312.7 76.5 312.1 75.3 310.7 Z M 87 305.1 C 87 300.9 89.2 297.5 92.9 297.5 C 96.7 297.5 98.6 300.9 98.6 305.2 C 98.64 305.18 98.6 305.8 98.6 305.8 C 98.6 305.8 89.25 305.84 89.2 305.8 C 89.3 308.7 90.8 310.9 93.4 310.9 C 94.7 310.9 96 310.3 96.9 309.2 C 96.9 309.2 98 310.4 98 310.4 C 96.8 311.9 95.2 312.7 93.2 312.7 C 89.4 312.7 87 309.6 87 305.1 Z M 92.9 299.3 C 90.3 299.3 89.3 302.1 89.2 304.2 C 89.2 304.2 96.5 304.2 96.5 304.2 C 96.5 302 95.5 299.3 92.9 299.3 Z M 102.2 316.2 C 102.2 316.2 101.1 315.3 101.1 315.3 C 102.1 314.6 102.9 313.5 103 312.5 C 103 312.5 102.7 312.5 102.6 312.5 C 101.8 312.5 101.2 311.9 101.2 311.1 C 101.2 310.2 101.9 309.5 102.8 309.5 C 103.7 309.5 104.6 310.3 104.6 311.7 C 104.6 313.5 103.5 315.2 102.2 316.2 Z M 117.6 312.4 L 117.6 294.5 L 112.8 294.5 L 112.8 292.4 L 124.7 292.4 L 124.7 294.5 L 119.9 294.5 L 119.9 312.4 L 117.6 312.4 Z M 126.7 294.3 C 126.7 293.5 127.4 292.8 128.2 292.8 C 129 292.8 129.7 293.5 129.7 294.3 C 129.7 295.1 129 295.8 128.2 295.8 C 127.4 295.8 126.7 295.1 126.7 294.3 Z M 127.1 312.4 L 127.1 297.9 L 129.3 297.9 L 129.3 312.4 L 127.1 312.4 Z M 131.8 310.7 C 131.8 310.7 132.8 309.2 132.8 309.2 C 133.7 310.2 135.1 311 136.6 311 C 138.3 311 139.4 310 139.4 308.7 C 139.4 305.3 132.2 306.4 132.2 301.4 C 132.2 299.3 133.9 297.5 136.8 297.5 C 138.7 297.5 140.2 298.3 141.2 299.4 C 141.2 299.4 140.2 300.9 140.2 300.9 C 139.5 299.9 138.2 299.3 136.8 299.3 C 135.2 299.3 134.2 300.2 134.2 301.4 C 134.2 304.5 141.5 303.4 141.5 308.6 C 141.5 311 139.6 312.7 136.6 312.7 C 134.6 312.7 133 312.1 131.8 310.7 Z M 143.1 310.7 C 143.1 310.7 144.1 309.2 144.1 309.2 C 145 310.2 146.4 311 147.9 311 C 149.6 311 150.7 310 150.7 308.7 C 150.7 305.3 143.5 306.4 143.5 301.4 C 143.5 299.3 145.2 297.5 148.1 297.5 C 150 297.5 151.5 298.3 152.5 299.4 C 152.5 299.4 151.5 300.9 151.5 300.9 C 150.8 299.9 149.5 299.3 148.1 299.3 C 146.5 299.3 145.6 300.2 145.6 301.4 C 145.6 304.5 152.8 303.4 152.8 308.6 C 152.8 311 150.9 312.7 148 312.7 C 145.9 312.7 144.3 312.1 143.1 310.7 Z M 163.4 312.4 C 163.4 312.4 163.38 310.37 163.4 310.4 C 162.5 311.6 161 312.7 159.2 312.7 C 156.7 312.7 155.5 311.5 155.5 308.9 C 155.55 308.87 155.5 297.9 155.5 297.9 L 157.7 297.9 C 157.7 297.9 157.68 308.24 157.7 308.2 C 157.7 310.2 158.6 310.8 160 310.8 C 161.4 310.8 162.7 309.8 163.4 308.6 C 163.38 308.57 163.4 297.9 163.4 297.9 L 165.5 297.9 L 165.5 312.4 L 163.4 312.4 Z M 168.5 305.1 C 168.5 300.9 170.7 297.5 174.4 297.5 C 178.2 297.5 180.1 300.9 180.1 305.2 C 180.09 305.18 180.1 305.8 180.1 305.8 C 180.1 305.8 170.7 305.84 170.7 305.8 C 170.8 308.7 172.3 310.9 174.9 310.9 C 176.1 310.9 177.4 310.3 178.3 309.2 C 178.3 309.2 179.5 310.4 179.5 310.4 C 178.3 311.9 176.6 312.7 174.7 312.7 C 170.8 312.7 168.5 309.6 168.5 305.1 Z M 174.3 299.3 C 171.8 299.3 170.8 302.1 170.7 304.2 C 170.7 304.2 178 304.2 178 304.2 C 177.9 302 177 299.3 174.3 299.3 Z M 191.2 310.3 C 191.22 310.28 191.2 317.9 191.2 317.9 L 189.1 317.9 L 189.1 297.9 L 191.2 297.9 C 191.2 297.9 191.22 299.96 191.2 300 C 192.1 298.5 193.5 297.5 195 297.5 C 198.3 297.5 200.2 300.6 200.2 305.1 C 200.2 309.6 198.3 312.7 195 312.7 C 193.6 312.7 192.1 311.9 191.2 310.3 Z M 198 305.1 C 198 302 196.9 299.4 194.5 299.4 C 193.1 299.4 191.8 300.5 191.2 301.8 C 191.2 301.8 191.2 308.4 191.2 308.4 C 191.8 309.7 193.1 310.8 194.5 310.8 C 196.9 310.8 198 308.3 198 305.1 Z M 210.6 312.4 C 210.6 312.4 210.57 310.82 210.6 310.8 C 209.6 312.1 208.2 312.7 206.8 312.7 C 204.4 312.7 202.4 310.9 202.4 307.9 C 202.4 304.9 204.4 303.1 206.8 303.1 C 208.2 303.1 209.7 303.7 210.6 305 C 210.6 305 210.6 302.5 210.6 302.5 C 210.6 300.5 209.5 299.4 207.6 299.4 C 206.2 299.4 205.1 299.9 204 301.2 C 204 301.2 203 299.6 203 299.6 C 204.4 298.2 206.1 297.5 207.9 297.5 C 210.8 297.5 212.7 298.9 212.7 302.2 C 212.73 302.24 212.7 312.4 212.7 312.4 L 210.6 312.4 Z M 210.6 309.3 C 210.6 309.3 210.6 306.6 210.6 306.6 C 209.9 305.4 208.7 304.7 207.4 304.7 C 205.6 304.7 204.6 306.1 204.6 307.9 C 204.6 309.7 205.6 311.2 207.4 311.2 C 208.7 311.2 209.9 310.5 210.6 309.3 Z M 218.5 310.3 C 218.49 310.28 218.5 317.9 218.5 317.9 L 216.4 317.9 L 216.4 297.9 L 218.5 297.9 C 218.5 297.9 218.49 299.96 218.5 300 C 219.3 298.5 220.8 297.5 222.3 297.5 C 225.6 297.5 227.5 300.6 227.5 305.1 C 227.5 309.6 225.6 312.7 222.3 312.7 C 220.8 312.7 219.4 311.9 218.5 310.3 Z M 225.2 305.1 C 225.2 302 224.1 299.4 221.8 299.4 C 220.4 299.4 219.1 300.5 218.5 301.8 C 218.5 301.8 218.5 308.4 218.5 308.4 C 219.1 309.7 220.4 310.8 221.8 310.8 C 224.1 310.8 225.2 308.3 225.2 305.1 Z M 229.7 305.1 C 229.7 300.9 231.9 297.5 235.6 297.5 C 239.4 297.5 241.3 300.9 241.3 305.2 C 241.29 305.18 241.3 305.8 241.3 305.8 C 241.3 305.8 231.9 305.84 231.9 305.8 C 232 308.7 233.5 310.9 236.1 310.9 C 237.3 310.9 238.6 310.3 239.5 309.2 C 239.5 309.2 240.7 310.4 240.7 310.4 C 239.5 311.9 237.8 312.7 235.9 312.7 C 232 312.7 229.7 309.6 229.7 305.1 Z M 235.5 299.3 C 233 299.3 232 302.1 231.9 304.2 C 231.9 304.2 239.2 304.2 239.2 304.2 C 239.1 302 238.2 299.3 235.5 299.3 Z M 244.1 312.4 L 244.1 297.9 L 246.3 297.9 C 246.3 297.9 246.26 300.2 246.3 300.2 C 247.2 298.7 248.6 297.6 250.4 297.6 C 250.4 297.6 250.4 299.8 250.4 299.8 C 250.1 299.7 249.9 299.7 249.7 299.7 C 248.3 299.7 246.9 300.9 246.3 302.1 C 246.26 302.09 246.3 312.4 246.3 312.4 L 244.1 312.4 Z " stroke="none" fill="#d3d2d2"/>  </g>  <g id="Polygon224508">    <path d="M 1.4 266.4 C 1.4 260.4 4.4 256 9.2 256 C 12.2 256 13.9 257.9 15 259.9 C 15 259.9 13 260.9 13 260.9 C 12.2 259.2 10.9 258.2 9.2 258.2 C 5.9 258.2 3.9 261.6 3.9 266.4 C 3.9 271.1 5.9 274.6 9.2 274.6 C 11 274.6 12.3 273.3 13.1 271.6 C 13.1 271.6 15.1 272.6 15.1 272.6 C 14 274.8 12.3 276.7 9.2 276.7 C 4.4 276.7 1.4 272.4 1.4 266.4 Z M 16.9 269.1 C 16.9 264.9 19.2 261.5 22.8 261.5 C 26.6 261.5 28.6 264.9 28.6 269.2 C 28.56 269.18 28.6 269.8 28.6 269.8 C 28.6 269.8 19.17 269.84 19.2 269.8 C 19.3 272.7 20.8 274.9 23.3 274.9 C 24.6 274.9 25.9 274.3 26.8 273.2 C 26.8 273.2 27.9 274.4 27.9 274.4 C 26.8 275.9 25.1 276.7 23.2 276.7 C 19.3 276.7 16.9 273.6 16.9 269.1 Z M 22.8 263.3 C 20.2 263.3 19.2 266.1 19.2 268.2 C 19.2 268.2 26.4 268.2 26.4 268.2 C 26.4 266 25.4 263.3 22.8 263.3 Z M 31.4 276.4 L 31.4 256.4 L 33.5 256.4 L 33.5 276.4 L 31.4 276.4 Z M 37.2 276.4 L 37.2 256.4 L 39.3 256.4 L 39.3 276.4 L 37.2 276.4 Z M 50.8 276.4 C 50.8 276.4 50.82 274.37 50.8 274.4 C 49.9 275.6 48.4 276.7 46.6 276.7 C 44.2 276.7 43 275.5 43 272.9 C 42.99 272.87 43 261.9 43 261.9 L 45.1 261.9 C 45.1 261.9 45.12 272.24 45.1 272.2 C 45.1 274.2 46 274.8 47.4 274.8 C 48.9 274.8 50.2 273.8 50.8 272.6 C 50.82 272.57 50.8 261.9 50.8 261.9 L 53 261.9 L 53 276.4 L 50.8 276.4 Z M 56.6 276.4 L 56.6 256.4 L 58.8 256.4 L 58.8 276.4 L 56.6 276.4 Z M 61.7 269.1 C 61.7 265 63.7 261.5 67.6 261.5 C 71.5 261.5 73.5 265 73.5 269.1 C 73.5 273.2 71.5 276.7 67.6 276.7 C 63.7 276.7 61.7 273.2 61.7 269.1 Z M 71.2 269.1 C 71.2 266.2 70.1 263.4 67.6 263.4 C 65.1 263.4 64 266.2 64 269.1 C 64 272.1 65.1 274.8 67.6 274.8 C 70.1 274.8 71.2 272.1 71.2 269.1 Z M 75.3 274.7 C 75.3 274.7 76.3 273.2 76.3 273.2 C 77.2 274.2 78.6 275 80.1 275 C 81.8 275 82.9 274 82.9 272.7 C 82.9 269.3 75.7 270.4 75.7 265.4 C 75.7 263.3 77.4 261.5 80.3 261.5 C 82.2 261.5 83.7 262.3 84.7 263.4 C 84.7 263.4 83.7 264.9 83.7 264.9 C 83 263.9 81.7 263.3 80.3 263.3 C 78.7 263.3 77.8 264.2 77.8 265.4 C 77.8 268.5 85 267.4 85 272.6 C 85 275 83.1 276.7 80.2 276.7 C 78.1 276.7 76.5 276.1 75.3 274.7 Z M 87 269.1 C 87 264.9 89.2 261.5 92.9 261.5 C 96.7 261.5 98.6 264.9 98.6 269.2 C 98.64 269.18 98.6 269.8 98.6 269.8 C 98.6 269.8 89.25 269.84 89.2 269.8 C 89.3 272.7 90.8 274.9 93.4 274.9 C 94.7 274.9 96 274.3 96.9 273.2 C 96.9 273.2 98 274.4 98 274.4 C 96.8 275.9 95.2 276.7 93.2 276.7 C 89.4 276.7 87 273.6 87 269.1 Z M 92.9 263.3 C 90.3 263.3 89.3 266.1 89.2 268.2 C 89.2 268.2 96.5 268.2 96.5 268.2 C 96.5 266 95.5 263.3 92.9 263.3 Z M 102.2 280.2 C 102.2 280.2 101.1 279.3 101.1 279.3 C 102.1 278.6 102.9 277.5 103 276.5 C 103 276.5 102.7 276.5 102.6 276.5 C 101.8 276.5 101.2 275.9 101.2 275.1 C 101.2 274.2 101.9 273.5 102.8 273.5 C 103.7 273.5 104.6 274.3 104.6 275.7 C 104.6 277.5 103.5 279.2 102.2 280.2 Z M 128.1 276.4 L 128.1 260.7 L 122.8 276.4 L 121.9 276.4 L 116.6 260.7 L 116.6 276.4 L 114.2 276.4 L 114.2 256.4 L 117.5 256.4 L 122.3 270.6 L 127.2 256.4 L 130.5 256.4 L 130.5 276.4 L 128.1 276.4 Z M 133.5 269.1 C 133.5 265 135.6 261.5 139.4 261.5 C 143.3 261.5 145.3 265 145.3 269.1 C 145.3 273.2 143.3 276.7 139.4 276.7 C 135.6 276.7 133.5 273.2 133.5 269.1 Z M 143.1 269.1 C 143.1 266.2 142 263.4 139.4 263.4 C 136.9 263.4 135.8 266.2 135.8 269.1 C 135.8 272.1 136.9 274.8 139.4 274.8 C 142 274.8 143.1 272.1 143.1 269.1 Z M 156.1 276.4 C 156.1 276.4 156.09 274.37 156.1 274.4 C 155.2 275.6 153.7 276.7 151.9 276.7 C 149.4 276.7 148.3 275.5 148.3 272.9 C 148.26 272.87 148.3 261.9 148.3 261.9 L 150.4 261.9 C 150.4 261.9 150.39 272.24 150.4 272.2 C 150.4 274.2 151.3 274.8 152.7 274.8 C 154.1 274.8 155.5 273.8 156.1 272.6 C 156.09 272.57 156.1 261.9 156.1 261.9 L 158.2 261.9 L 158.2 276.4 L 156.1 276.4 Z M 161.9 276.4 L 161.9 256.4 L 164 256.4 L 164 276.4 L 161.9 276.4 Z M 176 276.4 C 176 276.4 175.98 274.31 176 274.3 C 175.1 275.8 173.7 276.7 172.2 276.7 C 168.9 276.7 167 273.7 167 269.1 C 167 264.6 168.9 261.5 172.2 261.5 C 173.6 261.5 175.1 262.4 176 264 C 175.98 263.99 176 256.4 176 256.4 L 178.1 256.4 L 178.1 276.4 L 176 276.4 Z M 176 272.5 C 176 272.5 176 265.8 176 265.8 C 175.4 264.6 174.1 263.4 172.7 263.4 C 170.3 263.4 169.2 266 169.2 269.1 C 169.2 272.3 170.3 274.8 172.7 274.8 C 174.1 274.8 175.4 273.7 176 272.5 Z M 181.1 269.1 C 181.1 264.9 183.3 261.5 187 261.5 C 190.8 261.5 192.7 264.9 192.7 269.2 C 192.69 269.18 192.7 269.8 192.7 269.8 C 192.7 269.8 183.3 269.84 183.3 269.8 C 183.4 272.7 184.9 274.9 187.5 274.9 C 188.7 274.9 190 274.3 190.9 273.2 C 190.9 273.2 192.1 274.4 192.1 274.4 C 190.9 275.9 189.2 276.7 187.3 276.7 C 183.4 276.7 181.1 273.6 181.1 269.1 Z M 186.9 263.3 C 184.4 263.3 183.4 266.1 183.3 268.2 C 183.3 268.2 190.6 268.2 190.6 268.2 C 190.5 266 189.6 263.3 186.9 263.3 Z M 203.8 276.4 C 203.8 276.4 203.82 274.31 203.8 274.3 C 203 275.8 201.5 276.7 200 276.7 C 196.8 276.7 194.8 273.7 194.8 269.1 C 194.8 264.6 196.7 261.5 200 261.5 C 201.5 261.5 202.9 262.4 203.8 264 C 203.82 263.99 203.8 256.4 203.8 256.4 L 206 256.4 L 206 276.4 L 203.8 276.4 Z M 203.8 272.5 C 203.8 272.5 203.8 265.8 203.8 265.8 C 203.3 264.6 201.9 263.4 200.5 263.4 C 198.2 263.4 197.1 266 197.1 269.1 C 197.1 272.3 198.2 274.8 200.5 274.8 C 201.9 274.8 203.3 273.7 203.8 272.5 Z M 217.9 274.3 C 217.92 274.28 217.9 281.9 217.9 281.9 L 215.8 281.9 L 215.8 261.9 L 217.9 261.9 C 217.9 261.9 217.92 263.96 217.9 264 C 218.8 262.5 220.2 261.5 221.7 261.5 C 225 261.5 226.9 264.6 226.9 269.1 C 226.9 273.6 225 276.7 221.7 276.7 C 220.3 276.7 218.8 275.9 217.9 274.3 Z M 224.7 269.1 C 224.7 266 223.6 263.4 221.2 263.4 C 219.8 263.4 218.5 264.5 217.9 265.8 C 217.9 265.8 217.9 272.4 217.9 272.4 C 218.5 273.7 219.8 274.8 221.2 274.8 C 223.6 274.8 224.7 272.3 224.7 269.1 Z M 237.7 276.4 C 237.7 276.4 237.66 274.37 237.7 274.4 C 236.8 275.6 235.3 276.7 233.5 276.7 C 231 276.7 229.8 275.5 229.8 272.9 C 229.83 272.87 229.8 261.9 229.8 261.9 L 232 261.9 C 232 261.9 231.96 272.24 232 272.2 C 232 274.2 232.9 274.8 234.3 274.8 C 235.7 274.8 237 273.8 237.7 272.6 C 237.66 272.57 237.7 261.9 237.7 261.9 L 239.8 261.9 L 239.8 276.4 L 237.7 276.4 Z M 243.5 276.4 L 243.5 256.4 L 245.6 256.4 L 245.6 276.4 L 243.5 276.4 Z M 251.4 274.3 C 251.39 274.28 251.4 281.9 251.4 281.9 L 249.3 281.9 L 249.3 261.9 L 251.4 261.9 C 251.4 261.9 251.39 263.96 251.4 264 C 252.2 262.5 253.7 261.5 255.2 261.5 C 258.5 261.5 260.4 264.6 260.4 269.1 C 260.4 273.6 258.5 276.7 255.2 276.7 C 253.7 276.7 252.3 275.9 251.4 274.3 Z M 258.1 269.1 C 258.1 266 257 263.4 254.7 263.4 C 253.3 263.4 252 264.5 251.4 265.8 C 251.4 265.8 251.4 272.4 251.4 272.4 C 252 273.7 253.3 274.8 254.7 274.8 C 257 274.8 258.1 272.3 258.1 269.1 Z M 271.6 274.3 C 271.58 274.28 271.6 281.9 271.6 281.9 L 269.5 281.9 L 269.5 261.9 L 271.6 261.9 C 271.6 261.9 271.58 263.96 271.6 264 C 272.4 262.5 273.9 261.5 275.4 261.5 C 278.7 261.5 280.6 264.6 280.6 269.1 C 280.6 273.6 278.7 276.7 275.4 276.7 C 273.9 276.7 272.5 275.9 271.6 274.3 Z M 278.3 269.1 C 278.3 266 277.2 263.4 274.9 263.4 C 273.5 263.4 272.2 264.5 271.6 265.8 C 271.6 265.8 271.6 272.4 271.6 272.4 C 272.2 273.7 273.5 274.8 274.9 274.8 C 277.2 274.8 278.3 272.3 278.3 269.1 Z M 290.9 276.4 C 290.9 276.4 290.93 274.82 290.9 274.8 C 290 276.1 288.6 276.7 287.1 276.7 C 284.8 276.7 282.7 274.9 282.7 271.9 C 282.7 268.9 284.8 267.1 287.1 267.1 C 288.6 267.1 290 267.7 290.9 269 C 290.9 269 290.9 266.5 290.9 266.5 C 290.9 264.5 289.9 263.4 288 263.4 C 286.6 263.4 285.4 263.9 284.3 265.2 C 284.3 265.2 283.4 263.6 283.4 263.6 C 284.8 262.2 286.5 261.5 288.3 261.5 C 291.2 261.5 293.1 262.9 293.1 266.2 C 293.09 266.24 293.1 276.4 293.1 276.4 L 290.9 276.4 Z M 290.9 273.3 C 290.9 273.3 290.9 270.6 290.9 270.6 C 290.3 269.4 289.1 268.7 287.8 268.7 C 286 268.7 284.9 270.1 284.9 271.9 C 284.9 273.7 286 275.2 287.8 275.2 C 289.1 275.2 290.3 274.5 290.9 273.3 Z M 296 269.1 C 296 264.8 298.3 261.5 302 261.5 C 304 261.5 305.2 262.3 306.1 263.4 C 306.1 263.4 305 264.9 305 264.9 C 304.2 263.9 303.3 263.4 302.2 263.4 C 299.6 263.4 298.3 266 298.3 269.1 C 298.3 272.2 299.6 274.8 302.2 274.8 C 303.3 274.8 304.2 274.4 305 273.3 C 305 273.3 306.1 274.8 306.1 274.8 C 305.2 276 304 276.7 302 276.7 C 298.3 276.7 296 273.4 296 269.1 Z M 316.8 276.4 L 312.8 269.8 L 310.7 272.4 L 310.7 276.4 L 308.6 276.4 L 308.6 256.4 L 310.7 256.4 L 310.7 269.7 L 316.8 261.9 L 319.3 261.9 L 314.2 268.4 L 319.3 276.4 L 316.8 276.4 Z M 328.9 276.4 C 328.9 276.4 328.88 274.82 328.9 274.8 C 328 276.1 326.5 276.7 325.1 276.7 C 322.7 276.7 320.7 274.9 320.7 271.9 C 320.7 268.9 322.7 267.1 325.1 267.1 C 326.5 267.1 328 267.7 328.9 269 C 328.9 269 328.9 266.5 328.9 266.5 C 328.9 264.5 327.8 263.4 325.9 263.4 C 324.6 263.4 323.4 263.9 322.3 265.2 C 322.3 265.2 321.3 263.6 321.3 263.6 C 322.7 262.2 324.4 261.5 326.2 261.5 C 329.1 261.5 331 262.9 331 266.2 C 331.04 266.24 331 276.4 331 276.4 L 328.9 276.4 Z M 328.9 273.3 C 328.9 273.3 328.9 270.6 328.9 270.6 C 328.2 269.4 327 268.7 325.8 268.7 C 324 268.7 322.9 270.1 322.9 271.9 C 322.9 273.7 324 275.2 325.8 275.2 C 327 275.2 328.2 274.5 328.9 273.3 Z M 334.6 280.4 C 334.6 280.4 335.5 278.7 335.5 278.7 C 336.5 279.9 337.7 280.4 339.3 280.4 C 341.3 280.4 343 279.3 343 276.5 C 343 276.5 343 274.1 343 274.1 C 342.1 275.5 340.7 276.6 339.1 276.6 C 335.9 276.6 334 273.6 334 269.1 C 334 264.6 335.9 261.5 339.1 261.5 C 340.6 261.5 342.1 262.4 343 264 C 342.95 263.99 343 261.9 343 261.9 L 345.1 261.9 C 345.1 261.9 345.11 276.35 345.1 276.3 C 345.1 280.8 342.4 282.3 339.4 282.3 C 337.4 282.3 335.9 281.8 334.6 280.4 Z M 343 272.2 C 343 272.2 343 265.8 343 265.8 C 342.4 264.6 341.1 263.4 339.7 263.4 C 337.3 263.4 336.2 265.9 336.2 269.1 C 336.2 272.2 337.3 274.6 339.7 274.6 C 341.1 274.6 342.4 273.5 343 272.2 Z M 348.3 258.3 C 348.3 257.5 349 256.8 349.8 256.8 C 350.6 256.8 351.3 257.5 351.3 258.3 C 351.3 259.1 350.6 259.8 349.8 259.8 C 349 259.8 348.3 259.1 348.3 258.3 Z M 348.7 276.4 L 348.7 261.9 L 350.9 261.9 L 350.9 276.4 L 348.7 276.4 Z M 362.4 276.4 C 362.4 276.4 362.36 266.06 362.4 266.1 C 362.4 264.1 361.5 263.4 360.1 263.4 C 358.6 263.4 357.3 264.6 356.7 265.8 C 356.66 265.76 356.7 276.4 356.7 276.4 L 354.5 276.4 L 354.5 261.9 L 356.7 261.9 C 356.7 261.9 356.66 263.96 356.7 264 C 357.5 262.7 359.1 261.5 360.9 261.5 C 363.3 261.5 364.5 262.8 364.5 265.5 C 364.52 265.46 364.5 276.4 364.5 276.4 L 362.4 276.4 Z M 368.1 280.4 C 368.1 280.4 369.1 278.7 369.1 278.7 C 370 279.9 371.2 280.4 372.8 280.4 C 374.8 280.4 376.5 279.3 376.5 276.5 C 376.5 276.5 376.5 274.1 376.5 274.1 C 375.6 275.5 374.2 276.6 372.7 276.6 C 369.4 276.6 367.5 273.6 367.5 269.1 C 367.5 264.6 369.4 261.5 372.7 261.5 C 374.1 261.5 375.6 262.4 376.5 264 C 376.46 263.99 376.5 261.9 376.5 261.9 L 378.6 261.9 C 378.6 261.9 378.62 276.35 378.6 276.3 C 378.6 280.8 375.9 282.3 372.9 282.3 C 370.9 282.3 369.4 281.8 368.1 280.4 Z M 376.5 272.2 C 376.5 272.2 376.5 265.8 376.5 265.8 C 375.9 264.6 374.6 263.4 373.2 263.4 C 370.8 263.4 369.7 265.9 369.7 269.1 C 369.7 272.2 370.8 274.6 373.2 274.6 C 374.6 274.6 375.9 273.5 376.5 272.2 Z " stroke="none" fill="#d3d2d2"/>  </g>  <g id="Polygon224507">    <path d="M 1.4 230.4 C 1.4 224.4 4.4 220 9.2 220 C 12.2 220 13.9 221.9 15 223.9 C 15 223.9 13 224.9 13 224.9 C 12.2 223.2 10.9 222.2 9.2 222.2 C 5.9 222.2 3.9 225.6 3.9 230.4 C 3.9 235.1 5.9 238.6 9.2 238.6 C 11 238.6 12.3 237.3 13.1 235.6 C 13.1 235.6 15.1 236.6 15.1 236.6 C 14 238.8 12.3 240.7 9.2 240.7 C 4.4 240.7 1.4 236.4 1.4 230.4 Z M 16.9 233.1 C 16.9 228.9 19.2 225.5 22.8 225.5 C 26.6 225.5 28.6 228.9 28.6 233.2 C 28.56 233.18 28.6 233.8 28.6 233.8 C 28.6 233.8 19.17 233.84 19.2 233.8 C 19.3 236.7 20.8 238.9 23.3 238.9 C 24.6 238.9 25.9 238.3 26.8 237.2 C 26.8 237.2 27.9 238.4 27.9 238.4 C 26.8 239.9 25.1 240.7 23.2 240.7 C 19.3 240.7 16.9 237.6 16.9 233.1 Z M 22.8 227.3 C 20.2 227.3 19.2 230.1 19.2 232.2 C 19.2 232.2 26.4 232.2 26.4 232.2 C 26.4 230 25.4 227.3 22.8 227.3 Z M 31.4 240.4 L 31.4 220.4 L 33.5 220.4 L 33.5 240.4 L 31.4 240.4 Z M 37.2 240.4 L 37.2 220.4 L 39.3 220.4 L 39.3 240.4 L 37.2 240.4 Z M 50.8 240.4 C 50.8 240.4 50.82 238.37 50.8 238.4 C 49.9 239.6 48.4 240.7 46.6 240.7 C 44.2 240.7 43 239.5 43 236.9 C 42.99 236.87 43 225.9 43 225.9 L 45.1 225.9 C 45.1 225.9 45.12 236.24 45.1 236.2 C 45.1 238.2 46 238.8 47.4 238.8 C 48.9 238.8 50.2 237.8 50.8 236.6 C 50.82 236.57 50.8 225.9 50.8 225.9 L 53 225.9 L 53 240.4 L 50.8 240.4 Z M 56.6 240.4 L 56.6 220.4 L 58.8 220.4 L 58.8 240.4 L 56.6 240.4 Z M 61.7 233.1 C 61.7 229 63.7 225.5 67.6 225.5 C 71.5 225.5 73.5 229 73.5 233.1 C 73.5 237.2 71.5 240.7 67.6 240.7 C 63.7 240.7 61.7 237.2 61.7 233.1 Z M 71.2 233.1 C 71.2 230.2 70.1 227.4 67.6 227.4 C 65.1 227.4 64 230.2 64 233.1 C 64 236.1 65.1 238.8 67.6 238.8 C 70.1 238.8 71.2 236.1 71.2 233.1 Z M 75.3 238.7 C 75.3 238.7 76.3 237.2 76.3 237.2 C 77.2 238.2 78.6 239 80.1 239 C 81.8 239 82.9 238 82.9 236.7 C 82.9 233.3 75.7 234.4 75.7 229.4 C 75.7 227.3 77.4 225.5 80.3 225.5 C 82.2 225.5 83.7 226.3 84.7 227.4 C 84.7 227.4 83.7 228.9 83.7 228.9 C 83 227.9 81.7 227.3 80.3 227.3 C 78.7 227.3 77.8 228.2 77.8 229.4 C 77.8 232.5 85 231.4 85 236.6 C 85 239 83.1 240.7 80.2 240.7 C 78.1 240.7 76.5 240.1 75.3 238.7 Z M 87 233.1 C 87 228.9 89.2 225.5 92.9 225.5 C 96.7 225.5 98.6 228.9 98.6 233.2 C 98.64 233.18 98.6 233.8 98.6 233.8 C 98.6 233.8 89.25 233.84 89.2 233.8 C 89.3 236.7 90.8 238.9 93.4 238.9 C 94.7 238.9 96 238.3 96.9 237.2 C 96.9 237.2 98 238.4 98 238.4 C 96.8 239.9 95.2 240.7 93.2 240.7 C 89.4 240.7 87 237.6 87 233.1 Z M 92.9 227.3 C 90.3 227.3 89.3 230.1 89.2 232.2 C 89.2 232.2 96.5 232.2 96.5 232.2 C 96.5 230 95.5 227.3 92.9 227.3 Z M 102.2 244.2 C 102.2 244.2 101.1 243.3 101.1 243.3 C 102.1 242.6 102.9 241.5 103 240.5 C 103 240.5 102.7 240.5 102.6 240.5 C 101.8 240.5 101.2 239.9 101.2 239.1 C 101.2 238.2 101.9 237.5 102.8 237.5 C 103.7 237.5 104.6 238.3 104.6 239.7 C 104.6 241.5 103.5 243.2 102.2 244.2 Z M 128.1 240.4 L 128.1 224.7 L 122.8 240.4 L 121.9 240.4 L 116.6 224.7 L 116.6 240.4 L 114.2 240.4 L 114.2 220.4 L 117.5 220.4 L 122.3 234.6 L 127.2 220.4 L 130.5 220.4 L 130.5 240.4 L 128.1 240.4 Z M 141.7 240.4 C 141.7 240.4 141.69 238.82 141.7 238.8 C 140.8 240.1 139.3 240.7 137.9 240.7 C 135.5 240.7 133.5 238.9 133.5 235.9 C 133.5 232.9 135.5 231.1 137.9 231.1 C 139.3 231.1 140.8 231.7 141.7 233 C 141.7 233 141.7 230.5 141.7 230.5 C 141.7 228.5 140.6 227.4 138.7 227.4 C 137.4 227.4 136.2 227.9 135.1 229.2 C 135.1 229.2 134.1 227.6 134.1 227.6 C 135.5 226.2 137.2 225.5 139 225.5 C 141.9 225.5 143.8 226.9 143.8 230.2 C 143.85 230.24 143.8 240.4 143.8 240.4 L 141.7 240.4 Z M 141.7 237.3 C 141.7 237.3 141.7 234.6 141.7 234.6 C 141 233.4 139.8 232.7 138.6 232.7 C 136.8 232.7 135.7 234.1 135.7 235.9 C 135.7 237.7 136.8 239.2 138.6 239.2 C 139.8 239.2 141 238.5 141.7 237.3 Z M 146.3 238.7 C 146.3 238.7 147.4 237.2 147.4 237.2 C 148.2 238.2 149.6 239 151.2 239 C 152.8 239 154 238 154 236.7 C 154 233.3 146.7 234.4 146.7 229.4 C 146.7 227.3 148.5 225.5 151.3 225.5 C 153.3 225.5 154.7 226.3 155.8 227.4 C 155.8 227.4 154.7 228.9 154.7 228.9 C 154 227.9 152.8 227.3 151.4 227.3 C 149.8 227.3 148.8 228.2 148.8 229.4 C 148.8 232.5 156 231.4 156 236.6 C 156 239 154.2 240.7 151.2 240.7 C 149.2 240.7 147.5 240.1 146.3 238.7 Z M 166.9 240.4 L 163 233.8 L 160.9 236.4 L 160.9 240.4 L 158.8 240.4 L 158.8 220.4 L 160.9 220.4 L 160.9 233.7 L 166.9 225.9 L 169.5 225.9 L 164.4 232.4 L 169.5 240.4 L 166.9 240.4 Z M 171.2 222.3 C 171.2 221.5 171.9 220.8 172.7 220.8 C 173.5 220.8 174.1 221.5 174.1 222.3 C 174.1 223.1 173.5 223.8 172.7 223.8 C 171.9 223.8 171.2 223.1 171.2 222.3 Z M 171.6 240.4 L 171.6 225.9 L 173.8 225.9 L 173.8 240.4 L 171.6 240.4 Z M 185.2 240.4 C 185.2 240.4 185.25 230.06 185.2 230.1 C 185.2 228.1 184.4 227.4 182.9 227.4 C 181.5 227.4 180.2 228.6 179.5 229.8 C 179.55 229.76 179.5 240.4 179.5 240.4 L 177.4 240.4 L 177.4 225.9 L 179.5 225.9 C 179.5 225.9 179.55 227.96 179.5 228 C 180.4 226.7 182 225.5 183.7 225.5 C 186.2 225.5 187.4 226.8 187.4 229.5 C 187.41 229.46 187.4 240.4 187.4 240.4 L 185.2 240.4 Z M 190.9 244.4 C 190.9 244.4 191.9 242.7 191.9 242.7 C 192.9 243.9 194.1 244.4 195.7 244.4 C 197.7 244.4 199.3 243.3 199.3 240.5 C 199.3 240.5 199.3 238.1 199.3 238.1 C 198.5 239.5 197.1 240.6 195.5 240.6 C 192.3 240.6 190.3 237.6 190.3 233.1 C 190.3 228.6 192.3 225.5 195.5 225.5 C 197 225.5 198.4 226.4 199.3 228 C 199.35 227.99 199.3 225.9 199.3 225.9 L 201.5 225.9 C 201.5 225.9 201.51 240.35 201.5 240.3 C 201.5 244.8 198.8 246.3 195.8 246.3 C 193.8 246.3 192.3 245.8 190.9 244.4 Z M 199.3 236.2 C 199.3 236.2 199.3 229.8 199.3 229.8 C 198.8 228.6 197.5 227.4 196.1 227.4 C 193.7 227.4 192.6 229.9 192.6 233.1 C 192.6 236.2 193.7 238.6 196.1 238.6 C 197.5 238.6 198.8 237.5 199.3 236.2 Z M 211.7 237.5 C 211.71 237.47 211.7 227.8 211.7 227.8 L 209.8 227.8 L 209.8 225.9 L 211.7 225.9 L 211.7 221.9 L 213.9 221.9 L 213.9 225.9 L 216.3 225.9 L 216.3 227.8 L 213.9 227.8 C 213.9 227.8 213.87 237.08 213.9 237.1 C 213.9 238.2 214.2 238.8 215 238.8 C 215.6 238.8 216 238.6 216.3 238.2 C 216.3 238.2 217 239.9 217 239.9 C 216.4 240.4 215.7 240.7 214.6 240.7 C 212.6 240.7 211.7 239.6 211.7 237.5 Z M 226.3 240.4 C 226.3 240.4 226.31 238.82 226.3 238.8 C 225.4 240.1 224 240.7 222.5 240.7 C 220.2 240.7 218.1 238.9 218.1 235.9 C 218.1 232.9 220.1 231.1 222.5 231.1 C 224 231.1 225.4 231.7 226.3 233 C 226.3 233 226.3 230.5 226.3 230.5 C 226.3 228.5 225.2 227.4 223.3 227.4 C 222 227.4 220.8 227.9 219.7 229.2 C 219.7 229.2 218.8 227.6 218.8 227.6 C 220.1 226.2 221.8 225.5 223.7 225.5 C 226.6 225.5 228.5 226.9 228.5 230.2 C 228.47 230.24 228.5 240.4 228.5 240.4 L 226.3 240.4 Z M 226.3 237.3 C 226.3 237.3 226.3 234.6 226.3 234.6 C 225.7 233.4 224.5 232.7 223.2 232.7 C 221.4 232.7 220.3 234.1 220.3 235.9 C 220.3 237.7 221.4 239.2 223.2 239.2 C 224.5 239.2 225.7 238.5 226.3 237.3 Z M 234.2 238.3 C 234.23 238.28 234.2 245.9 234.2 245.9 L 232.1 245.9 L 232.1 225.9 L 234.2 225.9 C 234.2 225.9 234.23 227.96 234.2 228 C 235.1 226.5 236.5 225.5 238 225.5 C 241.3 225.5 243.2 228.6 243.2 233.1 C 243.2 237.6 241.3 240.7 238 240.7 C 236.6 240.7 235.1 239.9 234.2 238.3 Z M 241 233.1 C 241 230 239.9 227.4 237.5 227.4 C 236.2 227.4 234.8 228.5 234.2 229.8 C 234.2 229.8 234.2 236.4 234.2 236.4 C 234.8 237.7 236.2 238.8 237.5 238.8 C 239.9 238.8 241 236.3 241 233.1 Z M 245.4 233.1 C 245.4 228.9 247.6 225.5 251.3 225.5 C 255.1 225.5 257 228.9 257 233.2 C 257.03 233.18 257 233.8 257 233.8 C 257 233.8 247.64 233.84 247.6 233.8 C 247.7 236.7 249.2 238.9 251.8 238.9 C 253.1 238.9 254.4 238.3 255.3 237.2 C 255.3 237.2 256.4 238.4 256.4 238.4 C 255.2 239.9 253.6 240.7 251.6 240.7 C 247.8 240.7 245.4 237.6 245.4 233.1 Z M 251.3 227.3 C 248.7 227.3 247.7 230.1 247.6 232.2 C 247.6 232.2 254.9 232.2 254.9 232.2 C 254.9 230 253.9 227.3 251.3 227.3 Z " stroke="none" fill="#d3d2d2"/>  </g>  <g id="Polygon224506">    <path d="M 2.1 204.4 L 2.1 184.4 C 2.1 184.4 8.73 184.37 8.7 184.4 C 11.9 184.4 13.7 186.4 13.7 189.5 C 13.7 192 12.4 193.6 10.6 194.1 C 12.6 194.4 14 196.6 14 199 C 14 202.2 12.3 204.4 8.9 204.4 C 8.91 204.38 2.1 204.4 2.1 204.4 Z M 11.2 189.8 C 11.2 187.9 10.3 186.5 8.3 186.5 C 8.28 186.47 4.5 186.5 4.5 186.5 L 4.5 193.1 C 4.5 193.1 8.28 193.1 8.3 193.1 C 10.3 193.1 11.2 191.7 11.2 189.8 Z M 11.6 198.7 C 11.6 196.8 10.6 195.2 8.4 195.2 C 8.43 195.2 4.5 195.2 4.5 195.2 L 4.5 202.2 C 4.5 202.2 8.43 202.25 8.4 202.2 C 10.5 202.2 11.6 200.9 11.6 198.7 Z M 24.6 204.4 C 24.6 204.4 24.6 202.82 24.6 202.8 C 23.7 204.1 22.3 204.7 20.8 204.7 C 18.4 204.7 16.4 202.9 16.4 199.9 C 16.4 196.9 18.4 195.1 20.8 195.1 C 22.3 195.1 23.7 195.7 24.6 197 C 24.6 197 24.6 194.5 24.6 194.5 C 24.6 192.5 23.5 191.4 21.6 191.4 C 20.3 191.4 19.1 191.9 18 193.2 C 18 193.2 17 191.6 17 191.6 C 18.4 190.2 20.1 189.5 22 189.5 C 24.8 189.5 26.8 190.9 26.8 194.2 C 26.76 194.24 26.8 204.4 26.8 204.4 L 24.6 204.4 Z M 24.6 201.3 C 24.6 201.3 24.6 198.6 24.6 198.6 C 23.9 197.4 22.7 196.7 21.5 196.7 C 19.7 196.7 18.6 198.1 18.6 199.9 C 18.6 201.7 19.7 203.2 21.5 203.2 C 22.7 203.2 23.9 202.5 24.6 201.3 Z M 30.4 204.4 L 30.4 189.9 L 32.5 189.9 C 32.5 189.9 32.52 192.2 32.5 192.2 C 33.4 190.7 34.9 189.6 36.6 189.6 C 36.6 189.6 36.6 191.8 36.6 191.8 C 36.4 191.7 36.1 191.7 35.9 191.7 C 34.6 191.7 33.1 192.9 32.5 194.1 C 32.52 194.09 32.5 204.4 32.5 204.4 L 30.4 204.4 Z M 43.8 202.7 C 43.8 202.7 44.9 201.2 44.9 201.2 C 45.7 202.2 47.1 203 48.7 203 C 50.3 203 51.4 202 51.4 200.7 C 51.4 197.3 44.2 198.4 44.2 193.4 C 44.2 191.3 46 189.5 48.8 189.5 C 50.8 189.5 52.2 190.3 53.2 191.4 C 53.2 191.4 52.2 192.9 52.2 192.9 C 51.5 191.9 50.3 191.3 48.9 191.3 C 47.3 191.3 46.3 192.2 46.3 193.4 C 46.3 196.5 53.5 195.4 53.5 200.6 C 53.5 203 51.7 204.7 48.7 204.7 C 46.6 204.7 45 204.1 43.8 202.7 Z M 55.6 197.1 C 55.6 193 57.6 189.5 61.4 189.5 C 65.3 189.5 67.3 193 67.3 197.1 C 67.3 201.2 65.3 204.7 61.4 204.7 C 57.6 204.7 55.6 201.2 55.6 197.1 Z M 65.1 197.1 C 65.1 194.2 64 191.4 61.4 191.4 C 58.9 191.4 57.8 194.2 57.8 197.1 C 57.8 200.1 58.9 202.8 61.4 202.8 C 64 202.8 65.1 200.1 65.1 197.1 Z M 77.7 204.4 C 77.7 204.4 77.73 202.82 77.7 202.8 C 76.8 204.1 75.4 204.7 73.9 204.7 C 71.6 204.7 69.5 202.9 69.5 199.9 C 69.5 196.9 71.5 195.1 73.9 195.1 C 75.4 195.1 76.8 195.7 77.7 197 C 77.7 197 77.7 194.5 77.7 194.5 C 77.7 192.5 76.6 191.4 74.8 191.4 C 73.4 191.4 72.2 191.9 71.1 193.2 C 71.1 193.2 70.2 191.6 70.2 191.6 C 71.5 190.2 73.3 189.5 75.1 189.5 C 78 189.5 79.9 190.9 79.9 194.2 C 79.89 194.24 79.9 204.4 79.9 204.4 L 77.7 204.4 Z M 77.7 201.3 C 77.7 201.3 77.7 198.6 77.7 198.6 C 77.1 197.4 75.9 196.7 74.6 196.7 C 72.8 196.7 71.7 198.1 71.7 199.9 C 71.7 201.7 72.8 203.2 74.6 203.2 C 75.9 203.2 77.1 202.5 77.7 201.3 Z M 85.6 202.3 C 85.65 202.28 85.6 209.9 85.6 209.9 L 83.5 209.9 L 83.5 189.9 L 85.6 189.9 C 85.6 189.9 85.65 191.96 85.6 192 C 86.5 190.5 87.9 189.5 89.5 189.5 C 92.7 189.5 94.6 192.6 94.6 197.1 C 94.6 201.6 92.7 204.7 89.5 204.7 C 88 204.7 86.5 203.9 85.6 202.3 Z M 92.4 197.1 C 92.4 194 91.3 191.4 88.9 191.4 C 87.6 191.4 86.2 192.5 85.6 193.8 C 85.6 193.8 85.6 200.4 85.6 200.4 C 86.2 201.7 87.6 202.8 88.9 202.8 C 91.3 202.8 92.4 200.3 92.4 197.1 Z " stroke="none" fill="#d3d2d2"/>  </g>  <g id="Polygon224505">    <path d="M 12.5 168.4 L 11.2 163.8 L 4.1 163.8 L 2.8 168.4 L 0.2 168.4 L 6.2 148.4 L 9.1 148.4 L 15.1 168.4 L 12.5 168.4 Z M 7.6 151 L 4.6 161.7 L 10.7 161.7 L 7.6 151 Z M 17 168.4 L 17 153.9 L 19.1 153.9 C 19.1 153.9 19.14 156.2 19.1 156.2 C 20.1 154.7 21.5 153.6 23.2 153.6 C 23.2 153.6 23.2 155.8 23.2 155.8 C 23 155.7 22.8 155.7 22.5 155.7 C 21.2 155.7 19.7 156.9 19.1 158.1 C 19.14 158.09 19.1 168.4 19.1 168.4 L 17 168.4 Z M 25.9 165.5 C 25.86 165.47 25.9 155.8 25.9 155.8 L 23.9 155.8 L 23.9 153.9 L 25.9 153.9 L 25.9 149.9 L 28 149.9 L 28 153.9 L 30.5 153.9 L 30.5 155.8 L 28 155.8 C 28 155.8 28.02 165.08 28 165.1 C 28 166.2 28.3 166.8 29.2 166.8 C 29.7 166.8 30.2 166.6 30.4 166.2 C 30.4 166.2 31.1 167.9 31.1 167.9 C 30.6 168.4 29.9 168.7 28.8 168.7 C 26.8 168.7 25.9 167.6 25.9 165.5 Z M 32.6 150.3 C 32.6 149.5 33.3 148.8 34.1 148.8 C 34.9 148.8 35.5 149.5 35.5 150.3 C 35.5 151.1 34.9 151.8 34.1 151.8 C 33.3 151.8 32.6 151.1 32.6 150.3 Z M 33 168.4 L 33 153.9 L 35.2 153.9 L 35.2 168.4 L 33 168.4 Z M 39.3 168.4 L 39.3 155.8 L 37.4 155.8 L 37.4 153.9 L 39.3 153.9 C 39.3 153.9 39.33 152.12 39.3 152.1 C 39.3 149.6 40.8 148.1 42.9 148.1 C 43.6 148.1 44.2 148.2 44.7 148.5 C 44.7 148.5 44.2 150.2 44.2 150.2 C 43.9 150 43.6 149.9 43.2 149.9 C 42.1 149.9 41.5 150.7 41.5 152.1 C 41.49 152.12 41.5 153.9 41.5 153.9 L 43.9 153.9 L 43.9 155.8 L 41.5 155.8 L 41.5 168.4 L 39.3 168.4 Z M 46 150.3 C 46 149.5 46.7 148.8 47.5 148.8 C 48.3 148.8 49 149.5 49 150.3 C 49 151.1 48.3 151.8 47.5 151.8 C 46.7 151.8 46 151.1 46 150.3 Z M 46.4 168.4 L 46.4 153.9 L 48.6 153.9 L 48.6 168.4 L 46.4 168.4 Z M 51.5 161.1 C 51.5 156.8 53.8 153.5 57.5 153.5 C 59.5 153.5 60.7 154.3 61.6 155.4 C 61.6 155.4 60.5 156.9 60.5 156.9 C 59.7 155.9 58.8 155.4 57.7 155.4 C 55.1 155.4 53.8 158 53.8 161.1 C 53.8 164.2 55.1 166.8 57.7 166.8 C 58.8 166.8 59.7 166.4 60.5 165.3 C 60.5 165.3 61.6 166.8 61.6 166.8 C 60.7 168 59.5 168.7 57.5 168.7 C 53.8 168.7 51.5 165.4 51.5 161.1 Z M 63.7 150.3 C 63.7 149.5 64.4 148.8 65.2 148.8 C 66 148.8 66.6 149.5 66.6 150.3 C 66.6 151.1 66 151.8 65.2 151.8 C 64.4 151.8 63.7 151.1 63.7 150.3 Z M 64.1 168.4 L 64.1 153.9 L 66.2 153.9 L 66.2 168.4 L 64.1 168.4 Z M 77.3 168.4 C 77.3 168.4 77.34 166.82 77.3 166.8 C 76.4 168.1 75 168.7 73.5 168.7 C 71.2 168.7 69.1 166.9 69.1 163.9 C 69.1 160.9 71.2 159.1 73.5 159.1 C 75 159.1 76.4 159.7 77.3 161 C 77.3 161 77.3 158.5 77.3 158.5 C 77.3 156.5 76.3 155.4 74.4 155.4 C 73 155.4 71.8 155.9 70.7 157.2 C 70.7 157.2 69.8 155.6 69.8 155.6 C 71.2 154.2 72.9 153.5 74.7 153.5 C 77.6 153.5 79.5 154.9 79.5 158.2 C 79.5 158.24 79.5 168.4 79.5 168.4 L 77.3 168.4 Z M 77.3 165.3 C 77.3 165.3 77.3 162.6 77.3 162.6 C 76.7 161.4 75.5 160.7 74.2 160.7 C 72.4 160.7 71.3 162.1 71.3 163.9 C 71.3 165.7 72.4 167.2 74.2 167.2 C 75.5 167.2 76.7 166.5 77.3 165.3 Z M 83.1 168.4 L 83.1 148.4 L 85.3 148.4 L 85.3 168.4 L 83.1 168.4 Z M 103.3 168.4 C 103.3 168.4 103.35 166.31 103.3 166.3 C 102.5 167.8 101.1 168.7 99.5 168.7 C 96.3 168.7 94.3 165.7 94.3 161.1 C 94.3 156.6 96.3 153.5 99.5 153.5 C 101 153.5 102.5 154.4 103.3 156 C 103.35 155.99 103.3 148.4 103.3 148.4 L 105.5 148.4 L 105.5 168.4 L 103.3 168.4 Z M 103.3 164.5 C 103.3 164.5 103.3 157.8 103.3 157.8 C 102.8 156.6 101.5 155.4 100.1 155.4 C 97.7 155.4 96.6 158 96.6 161.1 C 96.6 164.3 97.7 166.8 100.1 166.8 C 101.5 166.8 102.8 165.7 103.3 164.5 Z M 108.7 172.1 C 109 172.3 109.5 172.3 109.7 172.3 C 110.5 172.3 111 172 111.4 170.9 C 111.42 170.9 112.2 168.7 112.2 168.7 L 107.4 153.9 L 109.7 153.9 L 113.3 165.8 L 116.9 153.9 L 119.2 153.9 C 119.2 153.9 113.46 171.44 113.5 171.4 C 112.7 173.5 111.6 174.3 109.9 174.3 C 109.4 174.3 108.7 174.2 108.4 174 C 108.4 174 108.7 172.1 108.7 172.1 Z M 120.4 161.1 C 120.4 156.9 122.6 153.5 126.3 153.5 C 130.1 153.5 132 156.9 132 161.2 C 132 161.18 132 161.8 132 161.8 C 132 161.8 122.61 161.84 122.6 161.8 C 122.7 164.7 124.2 166.9 126.8 166.9 C 128 166.9 129.3 166.3 130.2 165.2 C 130.2 165.2 131.4 166.4 131.4 166.4 C 130.2 167.9 128.5 168.7 126.6 168.7 C 122.7 168.7 120.4 165.6 120.4 161.1 Z M 126.2 155.3 C 123.7 155.3 122.7 158.1 122.6 160.2 C 122.6 160.2 129.9 160.2 129.9 160.2 C 129.8 158 128.9 155.3 126.2 155.3 Z M 135.5 172.2 C 135.5 172.2 134.5 171.3 134.5 171.3 C 135.4 170.6 136.3 169.5 136.4 168.5 C 136.3 168.5 136.1 168.5 136 168.5 C 135.2 168.5 134.6 167.9 134.6 167.1 C 134.6 166.2 135.2 165.5 136.1 165.5 C 137.1 165.5 137.9 166.3 137.9 167.7 C 137.9 169.5 136.9 171.2 135.5 172.2 Z M 151.7 168.4 L 151.7 159.9 L 145.6 148.4 L 148.2 148.4 L 152.9 157.6 L 157.6 148.4 L 160.3 148.4 L 154.1 159.9 L 154.1 168.4 L 151.7 168.4 Z M 158.6 161.1 C 158.6 156.9 160.8 153.5 164.5 153.5 C 168.3 153.5 170.2 156.9 170.2 161.2 C 170.22 161.18 170.2 161.8 170.2 161.8 C 170.2 161.8 160.83 161.84 160.8 161.8 C 160.9 164.7 162.4 166.9 165 166.9 C 166.3 166.9 167.5 166.3 168.4 165.2 C 168.4 165.2 169.6 166.4 169.6 166.4 C 168.4 167.9 166.8 168.7 164.8 168.7 C 160.9 168.7 158.6 165.6 158.6 161.1 Z M 164.5 155.3 C 161.9 155.3 160.9 158.1 160.8 160.2 C 160.8 160.2 168.1 160.2 168.1 160.2 C 168.1 158 167.1 155.3 164.5 155.3 Z M 173.1 168.4 L 173.1 148.4 L 175.2 148.4 L 175.2 168.4 L 173.1 168.4 Z M 178.9 168.4 L 178.9 148.4 L 181 148.4 L 181 168.4 L 178.9 168.4 Z M 183.9 161.1 C 183.9 157 186 153.5 189.8 153.5 C 193.7 153.5 195.7 157 195.7 161.1 C 195.7 165.2 193.7 168.7 189.8 168.7 C 186 168.7 183.9 165.2 183.9 161.1 Z M 193.5 161.1 C 193.5 158.2 192.4 155.4 189.8 155.4 C 187.3 155.4 186.2 158.2 186.2 161.1 C 186.2 164.1 187.3 166.8 189.8 166.8 C 192.4 166.8 193.5 164.1 193.5 161.1 Z M 209.3 168.4 L 206.2 156.7 L 203.1 168.4 L 200.9 168.4 L 197.1 153.9 L 199.3 153.9 L 202.1 165.5 L 205.2 153.9 L 207.2 153.9 L 210.3 165.5 L 213.2 153.9 L 215.4 153.9 L 211.6 168.4 L 209.3 168.4 Z M 223.1 158.4 C 223.1 153 225 148.1 229.8 148.1 C 231.9 148.1 233.5 149.1 234.5 150.6 C 234.5 150.6 233.2 152.2 233.2 152.2 C 232.4 151 231.5 150.2 229.9 150.2 C 226.7 150.2 225.5 154.4 225.5 158.2 C 225.5 158.4 225.5 158.5 225.5 158.8 C 226.2 157.4 227.8 155.8 229.9 155.8 C 232.8 155.8 235.2 158 235.2 162.2 C 235.2 165.6 233.1 168.7 229.4 168.7 C 224.6 168.7 223.1 163.7 223.1 158.4 Z M 232.7 162.3 C 232.7 159.1 231.2 157.9 229.3 157.9 C 227.6 157.9 226.3 159.3 225.5 161 C 225.7 163.2 226.5 166.6 229.3 166.6 C 231.7 166.6 232.7 164.4 232.7 162.3 Z " stroke="none" fill="#d3d2d2"/>  </g>  <g id="Polygon224504">    <path d="M 12.5 132.4 L 11.2 127.8 L 4.1 127.8 L 2.8 132.4 L 0.2 132.4 L 6.2 112.4 L 9.1 112.4 L 15.1 132.4 L 12.5 132.4 Z M 7.6 115 L 4.6 125.7 L 10.7 125.7 L 7.6 115 Z M 17 132.4 L 17 117.9 L 19.1 117.9 C 19.1 117.9 19.14 120.2 19.1 120.2 C 20.1 118.7 21.5 117.6 23.2 117.6 C 23.2 117.6 23.2 119.8 23.2 119.8 C 23 119.7 22.8 119.7 22.5 119.7 C 21.2 119.7 19.7 120.9 19.1 122.1 C 19.14 122.09 19.1 132.4 19.1 132.4 L 17 132.4 Z M 25.9 129.5 C 25.86 129.47 25.9 119.8 25.9 119.8 L 23.9 119.8 L 23.9 117.9 L 25.9 117.9 L 25.9 113.9 L 28 113.9 L 28 117.9 L 30.5 117.9 L 30.5 119.8 L 28 119.8 C 28 119.8 28.02 129.08 28 129.1 C 28 130.2 28.3 130.8 29.2 130.8 C 29.7 130.8 30.2 130.6 30.4 130.2 C 30.4 130.2 31.1 131.9 31.1 131.9 C 30.6 132.4 29.9 132.7 28.8 132.7 C 26.8 132.7 25.9 131.6 25.9 129.5 Z M 32.6 114.3 C 32.6 113.5 33.3 112.8 34.1 112.8 C 34.9 112.8 35.5 113.5 35.5 114.3 C 35.5 115.1 34.9 115.8 34.1 115.8 C 33.3 115.8 32.6 115.1 32.6 114.3 Z M 33 132.4 L 33 117.9 L 35.2 117.9 L 35.2 132.4 L 33 132.4 Z M 39.3 132.4 L 39.3 119.8 L 37.4 119.8 L 37.4 117.9 L 39.3 117.9 C 39.3 117.9 39.33 116.12 39.3 116.1 C 39.3 113.6 40.8 112.1 42.9 112.1 C 43.6 112.1 44.2 112.2 44.7 112.5 C 44.7 112.5 44.2 114.2 44.2 114.2 C 43.9 114 43.6 113.9 43.2 113.9 C 42.1 113.9 41.5 114.7 41.5 116.1 C 41.49 116.12 41.5 117.9 41.5 117.9 L 43.9 117.9 L 43.9 119.8 L 41.5 119.8 L 41.5 132.4 L 39.3 132.4 Z M 46 114.3 C 46 113.5 46.7 112.8 47.5 112.8 C 48.3 112.8 49 113.5 49 114.3 C 49 115.1 48.3 115.8 47.5 115.8 C 46.7 115.8 46 115.1 46 114.3 Z M 46.4 132.4 L 46.4 117.9 L 48.6 117.9 L 48.6 132.4 L 46.4 132.4 Z M 51.5 125.1 C 51.5 120.8 53.8 117.5 57.5 117.5 C 59.5 117.5 60.7 118.3 61.6 119.4 C 61.6 119.4 60.5 120.9 60.5 120.9 C 59.7 119.9 58.8 119.4 57.7 119.4 C 55.1 119.4 53.8 122 53.8 125.1 C 53.8 128.2 55.1 130.8 57.7 130.8 C 58.8 130.8 59.7 130.4 60.5 129.3 C 60.5 129.3 61.6 130.8 61.6 130.8 C 60.7 132 59.5 132.7 57.5 132.7 C 53.8 132.7 51.5 129.4 51.5 125.1 Z M 63.7 114.3 C 63.7 113.5 64.4 112.8 65.2 112.8 C 66 112.8 66.6 113.5 66.6 114.3 C 66.6 115.1 66 115.8 65.2 115.8 C 64.4 115.8 63.7 115.1 63.7 114.3 Z M 64.1 132.4 L 64.1 117.9 L 66.2 117.9 L 66.2 132.4 L 64.1 132.4 Z M 77.3 132.4 C 77.3 132.4 77.34 130.82 77.3 130.8 C 76.4 132.1 75 132.7 73.5 132.7 C 71.2 132.7 69.1 130.9 69.1 127.9 C 69.1 124.9 71.2 123.1 73.5 123.1 C 75 123.1 76.4 123.7 77.3 125 C 77.3 125 77.3 122.5 77.3 122.5 C 77.3 120.5 76.3 119.4 74.4 119.4 C 73 119.4 71.8 119.9 70.7 121.2 C 70.7 121.2 69.8 119.6 69.8 119.6 C 71.2 118.2 72.9 117.5 74.7 117.5 C 77.6 117.5 79.5 118.9 79.5 122.2 C 79.5 122.24 79.5 132.4 79.5 132.4 L 77.3 132.4 Z M 77.3 129.3 C 77.3 129.3 77.3 126.6 77.3 126.6 C 76.7 125.4 75.5 124.7 74.2 124.7 C 72.4 124.7 71.3 126.1 71.3 127.9 C 71.3 129.7 72.4 131.2 74.2 131.2 C 75.5 131.2 76.7 130.5 77.3 129.3 Z M 83.1 132.4 L 83.1 112.4 L 85.3 112.4 L 85.3 132.4 L 83.1 132.4 Z M 103.3 132.4 C 103.3 132.4 103.35 130.31 103.3 130.3 C 102.5 131.8 101.1 132.7 99.5 132.7 C 96.3 132.7 94.3 129.7 94.3 125.1 C 94.3 120.6 96.3 117.5 99.5 117.5 C 101 117.5 102.5 118.4 103.3 120 C 103.35 119.99 103.3 112.4 103.3 112.4 L 105.5 112.4 L 105.5 132.4 L 103.3 132.4 Z M 103.3 128.5 C 103.3 128.5 103.3 121.8 103.3 121.8 C 102.8 120.6 101.5 119.4 100.1 119.4 C 97.7 119.4 96.6 122 96.6 125.1 C 96.6 128.3 97.7 130.8 100.1 130.8 C 101.5 130.8 102.8 129.7 103.3 128.5 Z M 108.7 136.1 C 109 136.3 109.5 136.3 109.7 136.3 C 110.5 136.3 111 136 111.4 134.9 C 111.42 134.9 112.2 132.7 112.2 132.7 L 107.4 117.9 L 109.7 117.9 L 113.3 129.8 L 116.9 117.9 L 119.2 117.9 C 119.2 117.9 113.46 135.44 113.5 135.4 C 112.7 137.5 111.6 138.3 109.9 138.3 C 109.4 138.3 108.7 138.2 108.4 138 C 108.4 138 108.7 136.1 108.7 136.1 Z M 120.4 125.1 C 120.4 120.9 122.6 117.5 126.3 117.5 C 130.1 117.5 132 120.9 132 125.2 C 132 125.18 132 125.8 132 125.8 C 132 125.8 122.61 125.84 122.6 125.8 C 122.7 128.7 124.2 130.9 126.8 130.9 C 128 130.9 129.3 130.3 130.2 129.2 C 130.2 129.2 131.4 130.4 131.4 130.4 C 130.2 131.9 128.5 132.7 126.6 132.7 C 122.7 132.7 120.4 129.6 120.4 125.1 Z M 126.2 119.3 C 123.7 119.3 122.7 122.1 122.6 124.2 C 122.6 124.2 129.9 124.2 129.9 124.2 C 129.8 122 128.9 119.3 126.2 119.3 Z M 135.5 136.2 C 135.5 136.2 134.5 135.3 134.5 135.3 C 135.4 134.6 136.3 133.5 136.4 132.5 C 136.3 132.5 136.1 132.5 136 132.5 C 135.2 132.5 134.6 131.9 134.6 131.1 C 134.6 130.2 135.2 129.5 136.1 129.5 C 137.1 129.5 137.9 130.3 137.9 131.7 C 137.9 133.5 136.9 135.2 135.5 136.2 Z M 151.7 132.4 L 151.7 123.9 L 145.6 112.4 L 148.2 112.4 L 152.9 121.6 L 157.6 112.4 L 160.3 112.4 L 154.1 123.9 L 154.1 132.4 L 151.7 132.4 Z M 158.6 125.1 C 158.6 120.9 160.8 117.5 164.5 117.5 C 168.3 117.5 170.2 120.9 170.2 125.2 C 170.22 125.18 170.2 125.8 170.2 125.8 C 170.2 125.8 160.83 125.84 160.8 125.8 C 160.9 128.7 162.4 130.9 165 130.9 C 166.3 130.9 167.5 130.3 168.4 129.2 C 168.4 129.2 169.6 130.4 169.6 130.4 C 168.4 131.9 166.8 132.7 164.8 132.7 C 160.9 132.7 158.6 129.6 158.6 125.1 Z M 164.5 119.3 C 161.9 119.3 160.9 122.1 160.8 124.2 C 160.8 124.2 168.1 124.2 168.1 124.2 C 168.1 122 167.1 119.3 164.5 119.3 Z M 173.1 132.4 L 173.1 112.4 L 175.2 112.4 L 175.2 132.4 L 173.1 132.4 Z M 178.9 132.4 L 178.9 112.4 L 181 112.4 L 181 132.4 L 178.9 132.4 Z M 183.9 125.1 C 183.9 121 186 117.5 189.8 117.5 C 193.7 117.5 195.7 121 195.7 125.1 C 195.7 129.2 193.7 132.7 189.8 132.7 C 186 132.7 183.9 129.2 183.9 125.1 Z M 193.5 125.1 C 193.5 122.2 192.4 119.4 189.8 119.4 C 187.3 119.4 186.2 122.2 186.2 125.1 C 186.2 128.1 187.3 130.8 189.8 130.8 C 192.4 130.8 193.5 128.1 193.5 125.1 Z M 209.3 132.4 L 206.2 120.7 L 203.1 132.4 L 200.9 132.4 L 197.1 117.9 L 199.3 117.9 L 202.1 129.5 L 205.2 117.9 L 207.2 117.9 L 210.3 129.5 L 213.2 117.9 L 215.4 117.9 L 211.6 132.4 L 209.3 132.4 Z M 223.2 129.5 C 223.2 129.5 224.8 128 224.8 128 C 225.8 129.7 227.1 130.6 229 130.6 C 231.2 130.6 232.6 128.6 232.6 126.3 C 232.6 123.4 231.3 121.8 229.2 121.8 C 227.8 121.8 226.7 122.4 225.6 123.7 C 225.56 123.71 223.8 123.1 223.8 123.1 L 223.8 112.4 L 234 112.4 L 234 114.5 L 226.2 114.5 C 226.2 114.5 226.16 121.49 226.2 121.5 C 226.9 120.5 228.3 119.7 229.9 119.7 C 232.7 119.7 235 122 235 126.2 C 235 130 232.6 132.7 229.1 132.7 C 226.2 132.7 224.5 131.5 223.2 129.5 Z " stroke="none" fill="#d3d2d2"/>  </g>  <g id="Polygon224503">    <path d="M 12.5 96.4 L 11.2 91.8 L 4.1 91.8 L 2.8 96.4 L 0.2 96.4 L 6.2 76.4 L 9.1 76.4 L 15.1 96.4 L 12.5 96.4 Z M 7.6 79 L 4.6 89.7 L 10.7 89.7 L 7.6 79 Z M 17 96.4 L 17 81.9 L 19.1 81.9 C 19.1 81.9 19.14 84.2 19.1 84.2 C 20.1 82.7 21.5 81.6 23.2 81.6 C 23.2 81.6 23.2 83.8 23.2 83.8 C 23 83.7 22.8 83.7 22.5 83.7 C 21.2 83.7 19.7 84.9 19.1 86.1 C 19.14 86.09 19.1 96.4 19.1 96.4 L 17 96.4 Z M 25.9 93.5 C 25.86 93.47 25.9 83.8 25.9 83.8 L 23.9 83.8 L 23.9 81.9 L 25.9 81.9 L 25.9 77.9 L 28 77.9 L 28 81.9 L 30.5 81.9 L 30.5 83.8 L 28 83.8 C 28 83.8 28.02 93.08 28 93.1 C 28 94.2 28.3 94.8 29.2 94.8 C 29.7 94.8 30.2 94.6 30.4 94.2 C 30.4 94.2 31.1 95.9 31.1 95.9 C 30.6 96.4 29.9 96.7 28.8 96.7 C 26.8 96.7 25.9 95.6 25.9 93.5 Z M 32.6 78.3 C 32.6 77.5 33.3 76.8 34.1 76.8 C 34.9 76.8 35.5 77.5 35.5 78.3 C 35.5 79.1 34.9 79.8 34.1 79.8 C 33.3 79.8 32.6 79.1 32.6 78.3 Z M 33 96.4 L 33 81.9 L 35.2 81.9 L 35.2 96.4 L 33 96.4 Z M 39.3 96.4 L 39.3 83.8 L 37.4 83.8 L 37.4 81.9 L 39.3 81.9 C 39.3 81.9 39.33 80.12 39.3 80.1 C 39.3 77.6 40.8 76.1 42.9 76.1 C 43.6 76.1 44.2 76.2 44.7 76.5 C 44.7 76.5 44.2 78.2 44.2 78.2 C 43.9 78 43.6 77.9 43.2 77.9 C 42.1 77.9 41.5 78.7 41.5 80.1 C 41.49 80.12 41.5 81.9 41.5 81.9 L 43.9 81.9 L 43.9 83.8 L 41.5 83.8 L 41.5 96.4 L 39.3 96.4 Z M 46 78.3 C 46 77.5 46.7 76.8 47.5 76.8 C 48.3 76.8 49 77.5 49 78.3 C 49 79.1 48.3 79.8 47.5 79.8 C 46.7 79.8 46 79.1 46 78.3 Z M 46.4 96.4 L 46.4 81.9 L 48.6 81.9 L 48.6 96.4 L 46.4 96.4 Z M 51.5 89.1 C 51.5 84.8 53.8 81.5 57.5 81.5 C 59.5 81.5 60.7 82.3 61.6 83.4 C 61.6 83.4 60.5 84.9 60.5 84.9 C 59.7 83.9 58.8 83.4 57.7 83.4 C 55.1 83.4 53.8 86 53.8 89.1 C 53.8 92.2 55.1 94.8 57.7 94.8 C 58.8 94.8 59.7 94.4 60.5 93.3 C 60.5 93.3 61.6 94.8 61.6 94.8 C 60.7 96 59.5 96.7 57.5 96.7 C 53.8 96.7 51.5 93.4 51.5 89.1 Z M 63.7 78.3 C 63.7 77.5 64.4 76.8 65.2 76.8 C 66 76.8 66.6 77.5 66.6 78.3 C 66.6 79.1 66 79.8 65.2 79.8 C 64.4 79.8 63.7 79.1 63.7 78.3 Z M 64.1 96.4 L 64.1 81.9 L 66.2 81.9 L 66.2 96.4 L 64.1 96.4 Z M 77.3 96.4 C 77.3 96.4 77.34 94.82 77.3 94.8 C 76.4 96.1 75 96.7 73.5 96.7 C 71.2 96.7 69.1 94.9 69.1 91.9 C 69.1 88.9 71.2 87.1 73.5 87.1 C 75 87.1 76.4 87.7 77.3 89 C 77.3 89 77.3 86.5 77.3 86.5 C 77.3 84.5 76.3 83.4 74.4 83.4 C 73 83.4 71.8 83.9 70.7 85.2 C 70.7 85.2 69.8 83.6 69.8 83.6 C 71.2 82.2 72.9 81.5 74.7 81.5 C 77.6 81.5 79.5 82.9 79.5 86.2 C 79.5 86.24 79.5 96.4 79.5 96.4 L 77.3 96.4 Z M 77.3 93.3 C 77.3 93.3 77.3 90.6 77.3 90.6 C 76.7 89.4 75.5 88.7 74.2 88.7 C 72.4 88.7 71.3 90.1 71.3 91.9 C 71.3 93.7 72.4 95.2 74.2 95.2 C 75.5 95.2 76.7 94.5 77.3 93.3 Z M 83.1 96.4 L 83.1 76.4 L 85.3 76.4 L 85.3 96.4 L 83.1 96.4 Z M 103.3 96.4 C 103.3 96.4 103.35 94.31 103.3 94.3 C 102.5 95.8 101.1 96.7 99.5 96.7 C 96.3 96.7 94.3 93.7 94.3 89.1 C 94.3 84.6 96.3 81.5 99.5 81.5 C 101 81.5 102.5 82.4 103.3 84 C 103.35 83.99 103.3 76.4 103.3 76.4 L 105.5 76.4 L 105.5 96.4 L 103.3 96.4 Z M 103.3 92.5 C 103.3 92.5 103.3 85.8 103.3 85.8 C 102.8 84.6 101.5 83.4 100.1 83.4 C 97.7 83.4 96.6 86 96.6 89.1 C 96.6 92.3 97.7 94.8 100.1 94.8 C 101.5 94.8 102.8 93.7 103.3 92.5 Z M 108.7 100.1 C 109 100.3 109.5 100.3 109.7 100.3 C 110.5 100.3 111 100 111.4 98.9 C 111.42 98.9 112.2 96.7 112.2 96.7 L 107.4 81.9 L 109.7 81.9 L 113.3 93.8 L 116.9 81.9 L 119.2 81.9 C 119.2 81.9 113.46 99.44 113.5 99.4 C 112.7 101.5 111.6 102.3 109.9 102.3 C 109.4 102.3 108.7 102.2 108.4 102 C 108.4 102 108.7 100.1 108.7 100.1 Z M 120.4 89.1 C 120.4 84.9 122.6 81.5 126.3 81.5 C 130.1 81.5 132 84.9 132 89.2 C 132 89.18 132 89.8 132 89.8 C 132 89.8 122.61 89.84 122.6 89.8 C 122.7 92.7 124.2 94.9 126.8 94.9 C 128 94.9 129.3 94.3 130.2 93.2 C 130.2 93.2 131.4 94.4 131.4 94.4 C 130.2 95.9 128.5 96.7 126.6 96.7 C 122.7 96.7 120.4 93.6 120.4 89.1 Z M 126.2 83.3 C 123.7 83.3 122.7 86.1 122.6 88.2 C 122.6 88.2 129.9 88.2 129.9 88.2 C 129.8 86 128.9 83.3 126.2 83.3 Z M 135.5 100.2 C 135.5 100.2 134.5 99.3 134.5 99.3 C 135.4 98.6 136.3 97.5 136.4 96.5 C 136.3 96.5 136.1 96.5 136 96.5 C 135.2 96.5 134.6 95.9 134.6 95.1 C 134.6 94.2 135.2 93.5 136.1 93.5 C 137.1 93.5 137.9 94.3 137.9 95.7 C 137.9 97.5 136.9 99.2 135.5 100.2 Z M 156.7 96.4 L 152.8 88.4 L 149.9 88.4 L 149.9 96.4 L 147.5 96.4 L 147.5 76.4 C 147.5 76.4 153.66 76.37 153.7 76.4 C 156.9 76.4 159.1 78.7 159.1 82.3 C 159.1 85.9 157.1 87.6 155.2 88 C 155.16 88.01 159.4 96.4 159.4 96.4 L 156.7 96.4 Z M 156.7 82.4 C 156.7 80.1 155.5 78.5 153.4 78.5 C 153.39 78.47 149.9 78.5 149.9 78.5 L 149.9 86.3 C 149.9 86.3 153.39 86.27 153.4 86.3 C 155.5 86.3 156.7 84.6 156.7 82.4 Z M 160.9 89.1 C 160.9 84.9 163.1 81.5 166.8 81.5 C 170.6 81.5 172.5 84.9 172.5 89.2 C 172.53 89.18 172.5 89.8 172.5 89.8 C 172.5 89.8 163.14 89.84 163.1 89.8 C 163.2 92.7 164.7 94.9 167.3 94.9 C 168.6 94.9 169.9 94.3 170.8 93.2 C 170.8 93.2 171.9 94.4 171.9 94.4 C 170.7 95.9 169.1 96.7 167.1 96.7 C 163.3 96.7 160.9 93.6 160.9 89.1 Z M 166.8 83.3 C 164.2 83.3 163.2 86.1 163.1 88.2 C 163.1 88.2 170.4 88.2 170.4 88.2 C 170.4 86 169.4 83.3 166.8 83.3 Z M 183.7 96.4 C 183.7 96.4 183.65 94.31 183.7 94.3 C 182.8 95.8 181.4 96.7 179.8 96.7 C 176.6 96.7 174.7 93.7 174.7 89.1 C 174.7 84.6 176.6 81.5 179.8 81.5 C 181.3 81.5 182.8 82.4 183.7 84 C 183.65 83.99 183.7 76.4 183.7 76.4 L 185.8 76.4 L 185.8 96.4 L 183.7 96.4 Z M 183.7 92.5 C 183.7 92.5 183.7 85.8 183.7 85.8 C 183.1 84.6 181.8 83.4 180.4 83.4 C 178 83.4 176.9 86 176.9 89.1 C 176.9 92.3 178 94.8 180.4 94.8 C 181.8 94.8 183.1 93.7 183.7 92.5 Z M 202.3 96.4 L 202.3 91.2 L 194.3 91.2 L 194.3 89.2 L 201.6 76.4 L 204.6 76.4 L 204.6 89.1 L 206.8 89.1 L 206.8 91.2 L 204.6 91.2 L 204.6 96.4 L 202.3 96.4 Z M 202.3 78.9 L 196.5 89.1 L 202.3 89.1 L 202.3 78.9 Z M 208.6 86.4 C 208.6 81.6 210.2 76.1 214.9 76.1 C 219.6 76.1 221.2 81.6 221.2 86.4 C 221.2 91.2 219.6 96.7 214.9 96.7 C 210.2 96.7 208.6 91.2 208.6 86.4 Z M 218.7 86.4 C 218.7 82.4 218 78.2 214.9 78.2 C 211.8 78.2 211.1 82.4 211.1 86.4 C 211.1 90.3 211.8 94.6 214.9 94.6 C 218 94.6 218.7 90.3 218.7 86.4 Z " stroke="none" fill="#d3d2d2"/>  </g>  <g id="Polygon224502">    <path d="M 12.5 60.4 L 11.2 55.8 L 4.1 55.8 L 2.8 60.4 L 0.2 60.4 L 6.2 40.4 L 9.1 40.4 L 15.1 60.4 L 12.5 60.4 Z M 7.6 43 L 4.6 53.7 L 10.7 53.7 L 7.6 43 Z M 17 60.4 L 17 45.9 L 19.1 45.9 C 19.1 45.9 19.14 48.2 19.1 48.2 C 20.1 46.7 21.5 45.6 23.2 45.6 C 23.2 45.6 23.2 47.8 23.2 47.8 C 23 47.7 22.8 47.7 22.5 47.7 C 21.2 47.7 19.7 48.9 19.1 50.1 C 19.14 50.09 19.1 60.4 19.1 60.4 L 17 60.4 Z M 25.9 57.5 C 25.86 57.47 25.9 47.8 25.9 47.8 L 23.9 47.8 L 23.9 45.9 L 25.9 45.9 L 25.9 41.9 L 28 41.9 L 28 45.9 L 30.5 45.9 L 30.5 47.8 L 28 47.8 C 28 47.8 28.02 57.08 28 57.1 C 28 58.2 28.3 58.8 29.2 58.8 C 29.7 58.8 30.2 58.6 30.4 58.2 C 30.4 58.2 31.1 59.9 31.1 59.9 C 30.6 60.4 29.9 60.7 28.8 60.7 C 26.8 60.7 25.9 59.6 25.9 57.5 Z M 32.6 42.3 C 32.6 41.5 33.3 40.8 34.1 40.8 C 34.9 40.8 35.5 41.5 35.5 42.3 C 35.5 43.1 34.9 43.8 34.1 43.8 C 33.3 43.8 32.6 43.1 32.6 42.3 Z M 33 60.4 L 33 45.9 L 35.2 45.9 L 35.2 60.4 L 33 60.4 Z M 39.3 60.4 L 39.3 47.8 L 37.4 47.8 L 37.4 45.9 L 39.3 45.9 C 39.3 45.9 39.33 44.12 39.3 44.1 C 39.3 41.6 40.8 40.1 42.9 40.1 C 43.6 40.1 44.2 40.2 44.7 40.5 C 44.7 40.5 44.2 42.2 44.2 42.2 C 43.9 42 43.6 41.9 43.2 41.9 C 42.1 41.9 41.5 42.7 41.5 44.1 C 41.49 44.12 41.5 45.9 41.5 45.9 L 43.9 45.9 L 43.9 47.8 L 41.5 47.8 L 41.5 60.4 L 39.3 60.4 Z M 46 42.3 C 46 41.5 46.7 40.8 47.5 40.8 C 48.3 40.8 49 41.5 49 42.3 C 49 43.1 48.3 43.8 47.5 43.8 C 46.7 43.8 46 43.1 46 42.3 Z M 46.4 60.4 L 46.4 45.9 L 48.6 45.9 L 48.6 60.4 L 46.4 60.4 Z M 51.5 53.1 C 51.5 48.8 53.8 45.5 57.5 45.5 C 59.5 45.5 60.7 46.3 61.6 47.4 C 61.6 47.4 60.5 48.9 60.5 48.9 C 59.7 47.9 58.8 47.4 57.7 47.4 C 55.1 47.4 53.8 50 53.8 53.1 C 53.8 56.2 55.1 58.8 57.7 58.8 C 58.8 58.8 59.7 58.4 60.5 57.3 C 60.5 57.3 61.6 58.8 61.6 58.8 C 60.7 60 59.5 60.7 57.5 60.7 C 53.8 60.7 51.5 57.4 51.5 53.1 Z M 63.7 42.3 C 63.7 41.5 64.4 40.8 65.2 40.8 C 66 40.8 66.6 41.5 66.6 42.3 C 66.6 43.1 66 43.8 65.2 43.8 C 64.4 43.8 63.7 43.1 63.7 42.3 Z M 64.1 60.4 L 64.1 45.9 L 66.2 45.9 L 66.2 60.4 L 64.1 60.4 Z M 77.3 60.4 C 77.3 60.4 77.34 58.82 77.3 58.8 C 76.4 60.1 75 60.7 73.5 60.7 C 71.2 60.7 69.1 58.9 69.1 55.9 C 69.1 52.9 71.2 51.1 73.5 51.1 C 75 51.1 76.4 51.7 77.3 53 C 77.3 53 77.3 50.5 77.3 50.5 C 77.3 48.5 76.3 47.4 74.4 47.4 C 73 47.4 71.8 47.9 70.7 49.2 C 70.7 49.2 69.8 47.6 69.8 47.6 C 71.2 46.2 72.9 45.5 74.7 45.5 C 77.6 45.5 79.5 46.9 79.5 50.2 C 79.5 50.24 79.5 60.4 79.5 60.4 L 77.3 60.4 Z M 77.3 57.3 C 77.3 57.3 77.3 54.6 77.3 54.6 C 76.7 53.4 75.5 52.7 74.2 52.7 C 72.4 52.7 71.3 54.1 71.3 55.9 C 71.3 57.7 72.4 59.2 74.2 59.2 C 75.5 59.2 76.7 58.5 77.3 57.3 Z M 83.1 60.4 L 83.1 40.4 L 85.3 40.4 L 85.3 60.4 L 83.1 60.4 Z M 103.3 60.4 C 103.3 60.4 103.35 58.31 103.3 58.3 C 102.5 59.8 101.1 60.7 99.5 60.7 C 96.3 60.7 94.3 57.7 94.3 53.1 C 94.3 48.6 96.3 45.5 99.5 45.5 C 101 45.5 102.5 46.4 103.3 48 C 103.35 47.99 103.3 40.4 103.3 40.4 L 105.5 40.4 L 105.5 60.4 L 103.3 60.4 Z M 103.3 56.5 C 103.3 56.5 103.3 49.8 103.3 49.8 C 102.8 48.6 101.5 47.4 100.1 47.4 C 97.7 47.4 96.6 50 96.6 53.1 C 96.6 56.3 97.7 58.8 100.1 58.8 C 101.5 58.8 102.8 57.7 103.3 56.5 Z M 108.7 64.1 C 109 64.3 109.5 64.3 109.7 64.3 C 110.5 64.3 111 64 111.4 62.9 C 111.42 62.9 112.2 60.7 112.2 60.7 L 107.4 45.9 L 109.7 45.9 L 113.3 57.8 L 116.9 45.9 L 119.2 45.9 C 119.2 45.9 113.46 63.44 113.5 63.4 C 112.7 65.5 111.6 66.3 109.9 66.3 C 109.4 66.3 108.7 66.2 108.4 66 C 108.4 66 108.7 64.1 108.7 64.1 Z M 120.4 53.1 C 120.4 48.9 122.6 45.5 126.3 45.5 C 130.1 45.5 132 48.9 132 53.2 C 132 53.18 132 53.8 132 53.8 C 132 53.8 122.61 53.84 122.6 53.8 C 122.7 56.7 124.2 58.9 126.8 58.9 C 128 58.9 129.3 58.3 130.2 57.2 C 130.2 57.2 131.4 58.4 131.4 58.4 C 130.2 59.9 128.5 60.7 126.6 60.7 C 122.7 60.7 120.4 57.6 120.4 53.1 Z M 126.2 47.3 C 123.7 47.3 122.7 50.1 122.6 52.2 C 122.6 52.2 129.9 52.2 129.9 52.2 C 129.8 50 128.9 47.3 126.2 47.3 Z M 135.5 64.2 C 135.5 64.2 134.5 63.3 134.5 63.3 C 135.4 62.6 136.3 61.5 136.4 60.5 C 136.3 60.5 136.1 60.5 136 60.5 C 135.2 60.5 134.6 59.9 134.6 59.1 C 134.6 58.2 135.2 57.5 136.1 57.5 C 137.1 57.5 137.9 58.3 137.9 59.7 C 137.9 61.5 136.9 63.2 135.5 64.2 Z M 156.7 60.4 L 152.8 52.4 L 149.9 52.4 L 149.9 60.4 L 147.5 60.4 L 147.5 40.4 C 147.5 40.4 153.66 40.37 153.7 40.4 C 156.9 40.4 159.1 42.7 159.1 46.3 C 159.1 49.9 157.1 51.6 155.2 52 C 155.16 52.01 159.4 60.4 159.4 60.4 L 156.7 60.4 Z M 156.7 46.4 C 156.7 44.1 155.5 42.5 153.4 42.5 C 153.39 42.47 149.9 42.5 149.9 42.5 L 149.9 50.3 C 149.9 50.3 153.39 50.27 153.4 50.3 C 155.5 50.3 156.7 48.6 156.7 46.4 Z M 160.9 53.1 C 160.9 48.9 163.1 45.5 166.8 45.5 C 170.6 45.5 172.5 48.9 172.5 53.2 C 172.53 53.18 172.5 53.8 172.5 53.8 C 172.5 53.8 163.14 53.84 163.1 53.8 C 163.2 56.7 164.7 58.9 167.3 58.9 C 168.6 58.9 169.9 58.3 170.8 57.2 C 170.8 57.2 171.9 58.4 171.9 58.4 C 170.7 59.9 169.1 60.7 167.1 60.7 C 163.3 60.7 160.9 57.6 160.9 53.1 Z M 166.8 47.3 C 164.2 47.3 163.2 50.1 163.1 52.2 C 163.1 52.2 170.4 52.2 170.4 52.2 C 170.4 50 169.4 47.3 166.8 47.3 Z M 183.7 60.4 C 183.7 60.4 183.65 58.31 183.7 58.3 C 182.8 59.8 181.4 60.7 179.8 60.7 C 176.6 60.7 174.7 57.7 174.7 53.1 C 174.7 48.6 176.6 45.5 179.8 45.5 C 181.3 45.5 182.8 46.4 183.7 48 C 183.65 47.99 183.7 40.4 183.7 40.4 L 185.8 40.4 L 185.8 60.4 L 183.7 60.4 Z M 183.7 56.5 C 183.7 56.5 183.7 49.8 183.7 49.8 C 183.1 48.6 181.8 47.4 180.4 47.4 C 178 47.4 176.9 50 176.9 53.1 C 176.9 56.3 178 58.8 180.4 58.8 C 181.8 58.8 183.1 57.7 183.7 56.5 Z M 194.5 57.4 C 194.5 57.4 196.1 56 196.1 56 C 197 57.5 198.5 58.6 200.4 58.6 C 202.8 58.6 204 57.1 204 54.8 C 204 52.1 202.2 51.2 200.2 51.2 C 199.6 51.2 198.9 51.2 198.6 51.2 C 198.6 51.2 198.6 49 198.6 49 C 198.9 49.1 199.6 49.1 200.1 49.1 C 202.1 49.1 203.8 48 203.8 45.7 C 203.8 43.3 202.3 42.2 200.3 42.2 C 198.5 42.2 197.3 43.1 196.3 44.6 C 196.3 44.6 194.8 43.2 194.8 43.2 C 196 41.3 198 40.1 200.5 40.1 C 203.7 40.1 206.1 41.8 206.1 45.4 C 206.1 47.9 204.4 49.6 202.6 50 C 204.3 50.3 206.4 52.1 206.4 55 C 206.4 58.3 204.3 60.7 200.5 60.7 C 197.6 60.7 195.5 59.2 194.5 57.4 Z " stroke="none" fill="#d3d2d2"/>  </g>  <g id="Polygon224501">    <path d="M 12.5 24.4 L 11.2 19.8 L 4.1 19.8 L 2.8 24.4 L 0.2 24.4 L 6.2 4.4 L 9.1 4.4 L 15.1 24.4 L 12.5 24.4 Z M 7.6 7 L 4.6 17.7 L 10.7 17.7 L 7.6 7 Z M 17 24.4 L 17 9.9 L 19.1 9.9 C 19.1 9.9 19.14 12.2 19.1 12.2 C 20.1 10.7 21.5 9.6 23.2 9.6 C 23.2 9.6 23.2 11.8 23.2 11.8 C 23 11.7 22.8 11.7 22.5 11.7 C 21.2 11.7 19.7 12.9 19.1 14.1 C 19.14 14.09 19.1 24.4 19.1 24.4 L 17 24.4 Z M 25.9 21.5 C 25.86 21.47 25.9 11.8 25.9 11.8 L 23.9 11.8 L 23.9 9.9 L 25.9 9.9 L 25.9 5.9 L 28 5.9 L 28 9.9 L 30.5 9.9 L 30.5 11.8 L 28 11.8 C 28 11.8 28.02 21.08 28 21.1 C 28 22.2 28.3 22.8 29.2 22.8 C 29.7 22.8 30.2 22.6 30.4 22.2 C 30.4 22.2 31.1 23.9 31.1 23.9 C 30.6 24.4 29.9 24.7 28.8 24.7 C 26.8 24.7 25.9 23.6 25.9 21.5 Z M 32.6 6.3 C 32.6 5.5 33.3 4.8 34.1 4.8 C 34.9 4.8 35.5 5.5 35.5 6.3 C 35.5 7.1 34.9 7.8 34.1 7.8 C 33.3 7.8 32.6 7.1 32.6 6.3 Z M 33 24.4 L 33 9.9 L 35.2 9.9 L 35.2 24.4 L 33 24.4 Z M 39.3 24.4 L 39.3 11.8 L 37.4 11.8 L 37.4 9.9 L 39.3 9.9 C 39.3 9.9 39.33 8.12 39.3 8.1 C 39.3 5.6 40.8 4.1 42.9 4.1 C 43.6 4.1 44.2 4.2 44.7 4.5 C 44.7 4.5 44.2 6.2 44.2 6.2 C 43.9 6 43.6 5.9 43.2 5.9 C 42.1 5.9 41.5 6.7 41.5 8.1 C 41.49 8.12 41.5 9.9 41.5 9.9 L 43.9 9.9 L 43.9 11.8 L 41.5 11.8 L 41.5 24.4 L 39.3 24.4 Z M 46 6.3 C 46 5.5 46.7 4.8 47.5 4.8 C 48.3 4.8 49 5.5 49 6.3 C 49 7.1 48.3 7.8 47.5 7.8 C 46.7 7.8 46 7.1 46 6.3 Z M 46.4 24.4 L 46.4 9.9 L 48.6 9.9 L 48.6 24.4 L 46.4 24.4 Z M 51.5 17.1 C 51.5 12.8 53.8 9.5 57.5 9.5 C 59.5 9.5 60.7 10.3 61.6 11.4 C 61.6 11.4 60.5 12.9 60.5 12.9 C 59.7 11.9 58.8 11.4 57.7 11.4 C 55.1 11.4 53.8 14 53.8 17.1 C 53.8 20.2 55.1 22.8 57.7 22.8 C 58.8 22.8 59.7 22.4 60.5 21.3 C 60.5 21.3 61.6 22.8 61.6 22.8 C 60.7 24 59.5 24.7 57.5 24.7 C 53.8 24.7 51.5 21.4 51.5 17.1 Z M 63.7 6.3 C 63.7 5.5 64.4 4.8 65.2 4.8 C 66 4.8 66.6 5.5 66.6 6.3 C 66.6 7.1 66 7.8 65.2 7.8 C 64.4 7.8 63.7 7.1 63.7 6.3 Z M 64.1 24.4 L 64.1 9.9 L 66.2 9.9 L 66.2 24.4 L 64.1 24.4 Z M 77.3 24.4 C 77.3 24.4 77.34 22.82 77.3 22.8 C 76.4 24.1 75 24.7 73.5 24.7 C 71.2 24.7 69.1 22.9 69.1 19.9 C 69.1 16.9 71.2 15.1 73.5 15.1 C 75 15.1 76.4 15.7 77.3 17 C 77.3 17 77.3 14.5 77.3 14.5 C 77.3 12.5 76.3 11.4 74.4 11.4 C 73 11.4 71.8 11.9 70.7 13.2 C 70.7 13.2 69.8 11.6 69.8 11.6 C 71.2 10.2 72.9 9.5 74.7 9.5 C 77.6 9.5 79.5 10.9 79.5 14.2 C 79.5 14.24 79.5 24.4 79.5 24.4 L 77.3 24.4 Z M 77.3 21.3 C 77.3 21.3 77.3 18.6 77.3 18.6 C 76.7 17.4 75.5 16.7 74.2 16.7 C 72.4 16.7 71.3 18.1 71.3 19.9 C 71.3 21.7 72.4 23.2 74.2 23.2 C 75.5 23.2 76.7 22.5 77.3 21.3 Z M 83.1 24.4 L 83.1 4.4 L 85.3 4.4 L 85.3 24.4 L 83.1 24.4 Z M 103.3 24.4 C 103.3 24.4 103.35 22.31 103.3 22.3 C 102.5 23.8 101.1 24.7 99.5 24.7 C 96.3 24.7 94.3 21.7 94.3 17.1 C 94.3 12.6 96.3 9.5 99.5 9.5 C 101 9.5 102.5 10.4 103.3 12 C 103.35 11.99 103.3 4.4 103.3 4.4 L 105.5 4.4 L 105.5 24.4 L 103.3 24.4 Z M 103.3 20.5 C 103.3 20.5 103.3 13.8 103.3 13.8 C 102.8 12.6 101.5 11.4 100.1 11.4 C 97.7 11.4 96.6 14 96.6 17.1 C 96.6 20.3 97.7 22.8 100.1 22.8 C 101.5 22.8 102.8 21.7 103.3 20.5 Z M 108.7 28.1 C 109 28.3 109.5 28.3 109.7 28.3 C 110.5 28.3 111 28 111.4 26.9 C 111.42 26.9 112.2 24.7 112.2 24.7 L 107.4 9.9 L 109.7 9.9 L 113.3 21.8 L 116.9 9.9 L 119.2 9.9 C 119.2 9.9 113.46 27.44 113.5 27.4 C 112.7 29.5 111.6 30.3 109.9 30.3 C 109.4 30.3 108.7 30.2 108.4 30 C 108.4 30 108.7 28.1 108.7 28.1 Z M 120.4 17.1 C 120.4 12.9 122.6 9.5 126.3 9.5 C 130.1 9.5 132 12.9 132 17.2 C 132 17.18 132 17.8 132 17.8 C 132 17.8 122.61 17.84 122.6 17.8 C 122.7 20.7 124.2 22.9 126.8 22.9 C 128 22.9 129.3 22.3 130.2 21.2 C 130.2 21.2 131.4 22.4 131.4 22.4 C 130.2 23.9 128.5 24.7 126.6 24.7 C 122.7 24.7 120.4 21.6 120.4 17.1 Z M 126.2 11.3 C 123.7 11.3 122.7 14.1 122.6 16.2 C 122.6 16.2 129.9 16.2 129.9 16.2 C 129.8 14 128.9 11.3 126.2 11.3 Z M 135.5 28.2 C 135.5 28.2 134.5 27.3 134.5 27.3 C 135.4 26.6 136.3 25.5 136.4 24.5 C 136.3 24.5 136.1 24.5 136 24.5 C 135.2 24.5 134.6 23.9 134.6 23.1 C 134.6 22.2 135.2 21.5 136.1 21.5 C 137.1 21.5 137.9 22.3 137.9 23.7 C 137.9 25.5 136.9 27.2 135.5 28.2 Z M 147.5 24.4 L 147.5 4.4 C 147.5 4.4 154.17 4.37 154.2 4.4 C 157.3 4.4 159.1 6.4 159.1 9.5 C 159.1 12 157.8 13.6 156.1 14.1 C 158 14.4 159.4 16.6 159.4 19 C 159.4 22.2 157.7 24.4 154.3 24.4 C 154.35 24.38 147.5 24.4 147.5 24.4 Z M 156.7 9.8 C 156.7 7.9 155.8 6.5 153.7 6.5 C 153.72 6.47 149.9 6.5 149.9 6.5 L 149.9 13.1 C 149.9 13.1 153.72 13.1 153.7 13.1 C 155.8 13.1 156.7 11.7 156.7 9.8 Z M 157 18.7 C 157 16.8 156 15.2 153.9 15.2 C 153.87 15.2 149.9 15.2 149.9 15.2 L 149.9 22.2 C 149.9 22.2 153.87 22.25 153.9 22.2 C 155.9 22.2 157 20.9 157 18.7 Z M 162.6 24.4 L 162.6 4.4 L 164.7 4.4 L 164.7 24.4 L 162.6 24.4 Z M 176.2 24.4 C 176.2 24.4 176.21 22.37 176.2 22.4 C 175.3 23.6 173.8 24.7 172 24.7 C 169.6 24.7 168.4 23.5 168.4 20.9 C 168.38 20.87 168.4 9.9 168.4 9.9 L 170.5 9.9 C 170.5 9.9 170.51 20.24 170.5 20.2 C 170.5 22.2 171.4 22.8 172.8 22.8 C 174.3 22.8 175.6 21.8 176.2 20.6 C 176.21 20.57 176.2 9.9 176.2 9.9 L 178.4 9.9 L 178.4 24.4 L 176.2 24.4 Z M 181.3 17.1 C 181.3 12.9 183.5 9.5 187.2 9.5 C 191 9.5 192.9 12.9 192.9 17.2 C 192.92 17.18 192.9 17.8 192.9 17.8 C 192.9 17.8 183.53 17.84 183.5 17.8 C 183.6 20.7 185.1 22.9 187.7 22.9 C 189 22.9 190.3 22.3 191.2 21.2 C 191.2 21.2 192.3 22.4 192.3 22.4 C 191.1 23.9 189.5 24.7 187.5 24.7 C 183.7 24.7 181.3 21.6 181.3 17.1 Z M 187.2 11.3 C 184.6 11.3 183.6 14.1 183.5 16.2 C 183.5 16.2 190.8 16.2 190.8 16.2 C 190.8 14 189.8 11.3 187.2 11.3 Z M 204.9 24.4 L 204.9 7.5 L 201.8 10.8 L 200.4 9.3 L 205.2 4.4 L 207.3 4.4 L 207.3 24.4 L 204.9 24.4 Z " stroke="none" fill="#d3d2d2"/>  </g></svg>