<?xml version="1.0" standalone="no"?><!DOCTYPE svg PUBLIC "-//W3C//DTD SVG 1.1//EN" "http://www.w3.org/Graphics/SVG/1.1/DTD/svg11.dtd"><svg xmlns="http://www.w3.org/2000/svg" version="1.1" width="278px" height="36px" viewBox="0 0 278 36">  <desc>FLAVOUR AND ADDITIVE</desc>  <defs/>  <g id="Polygon220175">    <path d="M 3.4 19.9 L 3.4 3.9 L 12.6 3.9 L 12.6 6.8 L 6.6 6.8 L 6.6 10.4 L 12.4 10.4 L 12.4 13.2 L 6.6 13.2 L 6.6 19.9 L 3.4 19.9 Z M 14.7 19.9 L 14.7 3.9 L 18 3.9 L 18 17.1 L 23.3 17.1 L 23.3 19.9 L 14.7 19.9 Z M 33.8 19.9 L 33.1 17.1 L 28.2 17.1 L 27.4 19.9 L 23.9 19.9 L 28.7 3.9 L 32.6 3.9 L 37.3 19.9 L 33.8 19.9 Z M 30.6 7.3 L 28.8 14.3 L 32.5 14.3 L 30.6 7.3 Z M 41.2 19.9 L 36.5 3.9 L 39.9 3.9 L 43.2 16.2 L 46.4 3.9 L 49.9 3.9 L 45.1 19.9 L 41.2 19.9 Z M 50.3 12 C 50.3 7.2 52.8 3.7 56.9 3.7 C 61.1 3.7 63.6 7.2 63.6 12 C 63.6 16.7 61.1 20.2 56.9 20.2 C 52.8 20.2 50.3 16.7 50.3 12 Z M 60.3 12 C 60.3 8.9 59.1 6.5 56.9 6.5 C 54.8 6.5 53.6 8.9 53.6 12 C 53.6 15 54.8 17.4 56.9 17.4 C 59.1 17.4 60.3 15 60.3 12 Z M 65.8 14.4 C 65.84 14.42 65.8 3.9 65.8 3.9 L 69.1 3.9 C 69.1 3.9 69.08 14.45 69.1 14.4 C 69.1 16.3 70 17.4 71.7 17.4 C 73.4 17.4 74.4 16.3 74.4 14.4 C 74.39 14.45 74.4 3.9 74.4 3.9 L 77.6 3.9 C 77.6 3.9 77.63 14.42 77.6 14.4 C 77.6 18.1 75.3 20.2 71.7 20.2 C 68.1 20.2 65.8 18.1 65.8 14.4 Z M 87.9 19.9 L 85.4 14.2 L 83.7 14.2 L 83.7 19.9 L 80.5 19.9 L 80.5 3.9 C 80.5 3.9 86.43 3.94 86.4 3.9 C 89.4 3.9 91.3 6 91.3 9 C 91.3 11.8 89.8 13.2 88.5 13.6 C 88.52 13.58 91.4 19.9 91.4 19.9 L 87.9 19.9 Z M 88 9 C 88 7.7 87.2 6.8 86 6.8 C 85.95 6.77 83.7 6.8 83.7 6.8 L 83.7 11.3 C 83.7 11.3 85.95 11.33 86 11.3 C 87.2 11.3 88 10.4 88 9 Z M 107.1 19.9 L 106.4 17.1 L 101.5 17.1 L 100.7 19.9 L 97.3 19.9 L 102 3.9 L 105.9 3.9 L 110.6 19.9 L 107.1 19.9 Z M 104 7.3 L 102.1 14.3 L 105.8 14.3 L 104 7.3 Z M 120.7 19.9 L 115.2 10.5 L 115.2 19.9 L 112 19.9 L 112 3.9 L 115.3 3.9 L 120.5 13.1 L 120.5 3.9 L 123.8 3.9 L 123.8 19.9 L 120.7 19.9 Z M 126.6 19.9 L 126.6 3.9 C 126.6 3.9 131.72 3.94 131.7 3.9 C 136.1 3.9 138.7 7.2 138.7 12 C 138.7 16.7 136.2 19.9 131.7 19.9 C 131.72 19.94 126.6 19.9 126.6 19.9 Z M 135.4 12 C 135.4 8.8 134.1 6.8 131.7 6.8 C 131.72 6.77 129.8 6.8 129.8 6.8 L 129.8 17.1 C 129.8 17.1 131.72 17.11 131.7 17.1 C 134.1 17.1 135.4 15 135.4 12 Z M 154.4 19.9 L 153.6 17.1 L 148.7 17.1 L 147.9 19.9 L 144.5 19.9 L 149.2 3.9 L 153.1 3.9 L 157.9 19.9 L 154.4 19.9 Z M 151.2 7.3 L 149.3 14.3 L 153 14.3 L 151.2 7.3 Z M 159.2 19.9 L 159.2 3.9 C 159.2 3.9 164.38 3.94 164.4 3.9 C 168.8 3.9 171.3 7.2 171.3 12 C 171.3 16.7 168.8 19.9 164.4 19.9 C 164.38 19.94 159.2 19.9 159.2 19.9 Z M 168.1 12 C 168.1 8.8 166.8 6.8 164.4 6.8 C 164.38 6.77 162.4 6.8 162.4 6.8 L 162.4 17.1 C 162.4 17.1 164.38 17.11 164.4 17.1 C 166.8 17.1 168.1 15 168.1 12 Z M 173.6 19.9 L 173.6 3.9 C 173.6 3.9 178.71 3.94 178.7 3.9 C 183.1 3.9 185.7 7.2 185.7 12 C 185.7 16.7 183.2 19.9 178.7 19.9 C 178.71 19.94 173.6 19.9 173.6 19.9 Z M 182.4 12 C 182.4 8.8 181.1 6.8 178.7 6.8 C 178.71 6.77 176.8 6.8 176.8 6.8 L 176.8 17.1 C 176.8 17.1 178.71 17.11 178.7 17.1 C 181.1 17.1 182.4 15 182.4 12 Z M 187.9 19.9 L 187.9 3.9 L 191.1 3.9 L 191.1 19.9 L 187.9 19.9 Z M 196.6 19.9 L 196.6 6.8 L 193 6.8 L 193 3.9 L 203.4 3.9 L 203.4 6.8 L 199.8 6.8 L 199.8 19.9 L 196.6 19.9 Z M 205.3 19.9 L 205.3 3.9 L 208.5 3.9 L 208.5 19.9 L 205.3 19.9 Z M 214.6 19.9 L 209.9 3.9 L 213.3 3.9 L 216.6 16.2 L 219.8 3.9 L 223.3 3.9 L 218.5 19.9 L 214.6 19.9 Z M 224.6 19.9 L 224.6 3.9 L 233.8 3.9 L 233.8 6.8 L 227.8 6.8 L 227.8 10.4 L 233.6 10.4 L 233.6 13.2 L 227.8 13.2 L 227.8 17.1 L 233.8 17.1 L 233.8 19.9 L 224.6 19.9 Z " stroke="none" fill="#c87766"/>  </g></svg>