<?xml version="1.0" standalone="no"?><!DOCTYPE svg PUBLIC "-//W3C//DTD SVG 1.1//EN" "http://www.w3.org/Graphics/SVG/1.1/DTD/svg11.dtd"><svg xmlns="http://www.w3.org/2000/svg" version="1.1" width="191px" height="44.3px" viewBox="0 0 191 44.3">  <desc>serving</desc>  <defs/>  <g id="Polygon195105">    <path d="M 43 15.7 L 43 5.9 L 41.1 7.9 L 40.1 6.9 L 43.2 3.7 L 44.7 3.7 L 44.7 15.7 L 43 15.7 Z M 57.6 20.7 L 57.6 23.7 L 55.9 23.7 L 55.9 20.7 L 50.9 20.7 L 50.9 19.3 L 55.4 11.7 L 57.6 11.7 L 57.6 19.3 L 59.1 19.3 L 59.1 20.7 L 57.6 20.7 Z M 55.9 13.5 L 52.5 19.3 L 55.9 19.3 L 55.9 13.5 Z M 44.6 23.7 L 43.2 23.7 L 53.7 3.7 L 55.1 3.7 L 44.6 23.7 Z M 66.6 22 C 66.6 22 68.2 19.5 68.2 19.5 C 69.1 20.4 70.7 21.2 72.2 21.2 C 73.5 21.2 74.3 20.6 74.3 19.7 C 74.3 17.3 67.1 18.6 67.1 13.2 C 67.1 10.9 69 8.8 72.4 8.8 C 74.5 8.8 76.2 9.6 77.4 10.7 C 77.4 10.7 76 13.1 76 13.1 C 75.3 12.3 73.9 11.6 72.5 11.6 C 71.3 11.6 70.5 12.2 70.5 13 C 70.5 15.2 77.7 14.1 77.7 19.6 C 77.7 22.2 75.6 24.1 72.2 24.1 C 69.9 24.1 67.9 23.3 66.6 22 Z M 79.4 16.4 C 79.4 12.2 81.8 8.8 85.8 8.8 C 89.8 8.8 92.1 12.1 92.1 16.6 C 92.08 16.59 92.1 17.6 92.1 17.6 C 92.1 17.6 82.99 17.61 83 17.6 C 83.1 19.6 84.3 21.1 86.5 21.1 C 87.5 21.1 88.8 20.6 89.7 19.7 C 89.7 19.7 91.3 21.9 91.3 21.9 C 90 23.3 88.1 24.1 86.1 24.1 C 82 24.1 79.4 21 79.4 16.4 Z M 85.8 11.8 C 83.8 11.8 83.1 13.6 83 15.1 C 83 15.1 88.6 15.1 88.6 15.1 C 88.5 13.6 87.9 11.8 85.8 11.8 Z M 94.5 23.7 L 94.5 9.2 L 98.1 9.2 C 98.1 9.2 98.08 11.19 98.1 11.2 C 98.9 9.9 100.5 8.8 102 8.8 C 102 8.8 102 12.4 102 12.4 C 101.8 12.3 101.5 12.3 101.2 12.3 C 100 12.3 98.7 13 98.1 14 C 98.08 14.04 98.1 23.7 98.1 23.7 L 94.5 23.7 Z M 107.2 23.7 L 102.4 9.2 L 106.2 9.2 L 109.2 19.4 L 112.1 9.2 L 115.9 9.2 L 111.1 23.7 L 107.2 23.7 Z M 117.1 5.4 C 117.1 4.2 118.1 3.2 119.3 3.2 C 120.5 3.2 121.5 4.2 121.5 5.4 C 121.5 6.6 120.5 7.6 119.3 7.6 C 118.1 7.6 117.1 6.6 117.1 5.4 Z M 117.5 23.7 L 117.5 9.2 L 121.1 9.2 L 121.1 23.7 L 117.5 23.7 Z M 132.5 23.7 C 132.5 23.7 132.46 14.16 132.5 14.2 C 132.5 12.6 131.8 12 130.6 12 C 129.4 12 128.4 13 127.9 13.8 C 127.93 13.83 127.9 23.7 127.9 23.7 L 124.3 23.7 L 124.3 9.2 L 127.9 9.2 C 127.9 9.2 127.93 11.1 127.9 11.1 C 128.7 10 130.3 8.8 132.2 8.8 C 134.9 8.8 136.1 10.4 136.1 12.8 C 136.06 12.81 136.1 23.7 136.1 23.7 L 132.5 23.7 Z M 139.2 27.7 C 139.2 27.7 140.6 25 140.6 25 C 141.6 26 142.9 26.5 144.3 26.5 C 146 26.5 147.6 25.7 147.6 23.1 C 147.6 23.1 147.6 21.4 147.6 21.4 C 146.7 22.8 145.3 23.6 143.9 23.6 C 140.7 23.6 138.6 21 138.6 16.2 C 138.6 11.6 140.7 8.8 143.9 8.8 C 145.3 8.8 146.7 9.5 147.6 11 C 147.58 11.04 147.6 9.2 147.6 9.2 L 151.2 9.2 C 151.2 9.2 151.18 22.95 151.2 22.9 C 151.2 28.2 147.7 29.6 144.5 29.6 C 142.4 29.6 140.7 29.1 139.2 27.7 Z M 147.6 18.7 C 147.6 18.7 147.6 13.7 147.6 13.7 C 147.1 12.8 146.1 12 145.1 12 C 143.3 12 142.3 13.7 142.3 16.2 C 142.3 18.7 143.3 20.4 145.1 20.4 C 146.1 20.4 147.1 19.6 147.6 18.7 Z " stroke="none" fill="#d3d2d2"/>  </g></svg>