<?xml version="1.0" standalone="no"?><!DOCTYPE svg PUBLIC "-//W3C//DTD SVG 1.1//EN" "http://www.w3.org/Graphics/SVG/1.1/DTD/svg11.dtd"><svg xmlns="http://www.w3.org/2000/svg" version="1.1" width="486px" height="189.4px" viewBox="0 0 486 189.4">  <desc>Originally a Japanese dish, the dish was also popular everywhere else in the world, Singapore included</desc>  <defs/>  <g id="Polygon183423">    <path d="M 3.1 160.7 C 3.1 160.7 4.9 158.3 4.9 158.3 C 6.3 159.9 8.5 161.2 11.1 161.2 C 14.5 161.2 16 159.2 16 156.9 C 16 150.4 3.9 152.1 3.9 143.5 C 3.9 139.4 7.1 136.5 11.6 136.5 C 14.5 136.5 16.9 137.5 18.7 139.3 C 18.7 139.3 17 141.7 17 141.7 C 15.6 140.1 13.6 139.3 11.5 139.3 C 9.1 139.3 7.2 140.9 7.2 143.3 C 7.2 149 19.2 147.7 19.2 156.7 C 19.2 160.6 16.6 164.1 11.1 164.1 C 7.6 164.1 4.9 162.8 3.1 160.7 Z M 22.9 139.5 C 22.9 138.4 23.8 137.6 24.8 137.6 C 25.9 137.6 26.8 138.4 26.8 139.5 C 26.8 140.6 25.9 141.5 24.8 141.5 C 23.8 141.5 22.9 140.6 22.9 139.5 Z M 23.4 163.6 L 23.4 144.3 L 26.3 144.3 L 26.3 163.6 L 23.4 163.6 Z M 42 163.6 C 42 163.6 41.98 149.84 42 149.8 C 42 147.3 40.8 146.4 38.9 146.4 C 37 146.4 35.3 147.8 34.4 149.4 C 34.38 149.44 34.4 163.6 34.4 163.6 L 31.5 163.6 L 31.5 144.3 L 34.4 144.3 C 34.4 144.3 34.38 147.04 34.4 147 C 35.5 145.4 37.7 143.8 40 143.8 C 43.3 143.8 44.9 145.6 44.9 149 C 44.86 149.04 44.9 163.6 44.9 163.6 L 42 163.6 Z M 50 169 C 50 169 51.3 166.8 51.3 166.8 C 52.6 168.2 54.2 169 56.3 169 C 59 169 61.2 167.5 61.2 163.8 C 61.2 163.8 61.2 160.5 61.2 160.5 C 60.1 162.5 58.1 163.8 56.1 163.8 C 51.8 163.8 49.2 159.9 49.2 153.8 C 49.2 147.8 51.7 143.8 56.1 143.8 C 58.1 143.8 60 144.9 61.2 147.1 C 61.18 147.08 61.2 144.3 61.2 144.3 L 64.1 144.3 C 64.1 144.3 64.06 163.56 64.1 163.6 C 64.1 169.5 60.5 171.4 56.4 171.4 C 53.8 171.4 51.8 170.8 50 169 Z M 61.2 158.1 C 61.2 158.1 61.2 149.5 61.2 149.5 C 60.5 147.8 58.7 146.4 56.8 146.4 C 53.7 146.4 52.2 149.7 52.2 153.8 C 52.2 158 53.7 161.3 56.8 161.3 C 58.7 161.3 60.5 159.8 61.2 158.1 Z M 79.2 163.6 C 79.2 163.6 79.22 161.52 79.2 161.5 C 78 163.3 76.1 164.1 74.1 164.1 C 71 164.1 68.3 161.7 68.3 157.6 C 68.3 153.6 71 151.3 74.1 151.3 C 76.1 151.3 78 152 79.2 153.8 C 79.2 153.8 79.2 150.4 79.2 150.4 C 79.2 147.8 77.8 146.3 75.3 146.3 C 73.5 146.3 71.9 147 70.4 148.6 C 70.4 148.6 69.1 146.6 69.1 146.6 C 71 144.7 73.3 143.8 75.7 143.8 C 79.5 143.8 82.1 145.7 82.1 150.1 C 82.1 150.08 82.1 163.6 82.1 163.6 L 79.2 163.6 Z M 79.2 159.6 C 79.2 159.6 79.2 155.9 79.2 155.9 C 78.3 154.2 76.7 153.4 75.1 153.4 C 72.7 153.4 71.2 155.3 71.2 157.7 C 71.2 160.1 72.7 162 75.1 162 C 76.7 162 78.3 161.2 79.2 159.6 Z M 90.2 160.8 C 90.18 160.8 90.2 171 90.2 171 L 87.3 171 L 87.3 144.3 L 90.2 144.3 C 90.2 144.3 90.18 147.04 90.2 147 C 91.3 145.1 93.2 143.8 95.3 143.8 C 99.6 143.8 102.2 147.8 102.2 153.9 C 102.2 160 99.6 164.1 95.3 164.1 C 93.3 164.1 91.4 163 90.2 160.8 Z M 99.2 153.9 C 99.2 149.8 97.7 146.4 94.5 146.4 C 92.7 146.4 90.9 147.8 90.2 149.5 C 90.2 149.5 90.2 158.3 90.2 158.3 C 90.9 160 92.7 161.5 94.5 161.5 C 97.7 161.5 99.2 158.1 99.2 153.9 Z M 105.5 153.9 C 105.5 148.5 108.2 143.8 113.3 143.8 C 118.5 143.8 121.2 148.5 121.2 153.9 C 121.2 159.4 118.5 164.1 113.3 164.1 C 108.2 164.1 105.5 159.4 105.5 153.9 Z M 118.2 153.9 C 118.2 150 116.7 146.4 113.3 146.4 C 110 146.4 108.5 150 108.5 153.9 C 108.5 157.8 110 161.5 113.3 161.5 C 116.7 161.5 118.2 157.8 118.2 153.9 Z M 125.5 163.6 L 125.5 144.3 L 128.4 144.3 C 128.4 144.3 128.38 147.36 128.4 147.4 C 129.6 145.3 131.5 143.9 133.9 143.9 C 133.9 143.9 133.9 146.8 133.9 146.8 C 133.5 146.8 133.2 146.7 132.9 146.7 C 131.1 146.7 129.2 148.3 128.4 149.9 C 128.38 149.88 128.4 163.6 128.4 163.6 L 125.5 163.6 Z M 136.2 153.9 C 136.2 148.3 139.2 143.8 144.1 143.8 C 149.1 143.8 151.7 148.4 151.7 154 C 151.7 154 151.7 154.9 151.7 154.9 C 151.7 154.9 139.18 154.88 139.2 154.9 C 139.3 158.8 141.3 161.7 144.7 161.7 C 146.4 161.7 148.1 160.8 149.3 159.3 C 149.3 159.3 150.9 161 150.9 161 C 149.3 162.9 147.1 164.1 144.5 164.1 C 139.3 164.1 136.2 159.8 136.2 153.9 Z M 144 146.2 C 140.6 146.2 139.3 149.9 139.2 152.8 C 139.2 152.8 148.9 152.8 148.9 152.8 C 148.8 149.8 147.5 146.2 144 146.2 Z M 163.9 139.5 C 163.9 138.4 164.9 137.6 165.9 137.6 C 167 137.6 167.9 138.4 167.9 139.5 C 167.9 140.6 167 141.5 165.9 141.5 C 164.9 141.5 163.9 140.6 163.9 139.5 Z M 164.5 163.6 L 164.5 144.3 L 167.3 144.3 L 167.3 163.6 L 164.5 163.6 Z M 183.1 163.6 C 183.1 163.6 183.06 149.84 183.1 149.8 C 183.1 147.3 181.9 146.4 180 146.4 C 178.1 146.4 176.3 147.8 175.5 149.4 C 175.46 149.44 175.5 163.6 175.5 163.6 L 172.6 163.6 L 172.6 144.3 L 175.5 144.3 C 175.5 144.3 175.46 147.04 175.5 147 C 176.6 145.4 178.7 143.8 181.1 143.8 C 184.3 143.8 185.9 145.6 185.9 149 C 185.94 149.04 185.9 163.6 185.9 163.6 L 183.1 163.6 Z M 190.3 153.9 C 190.3 148.2 193.3 143.8 198.3 143.8 C 200.9 143.8 202.6 144.9 203.8 146.4 C 203.8 146.4 202.2 148.3 202.2 148.3 C 201.2 146.9 200 146.4 198.5 146.4 C 195.1 146.4 193.3 149.8 193.3 153.9 C 193.3 158 195.1 161.5 198.5 161.5 C 200 161.5 201.2 160.9 202.2 159.6 C 202.2 159.6 203.8 161.5 203.8 161.5 C 202.6 163 200.9 164.1 198.3 164.1 C 193.3 164.1 190.3 159.6 190.3 153.9 Z M 207.5 163.6 L 207.5 136.9 L 210.3 136.9 L 210.3 163.6 L 207.5 163.6 Z M 226 163.6 C 226 163.6 226.02 160.92 226 160.9 C 224.9 162.6 222.8 164.1 220.4 164.1 C 217.1 164.1 215.6 162.4 215.6 158.9 C 215.58 158.92 215.6 144.3 215.6 144.3 L 218.4 144.3 C 218.4 144.3 218.42 158.08 218.4 158.1 C 218.4 160.6 219.6 161.5 221.5 161.5 C 223.4 161.5 225.2 160.1 226 158.5 C 226.02 158.52 226 144.3 226 144.3 L 228.9 144.3 L 228.9 163.6 L 226 163.6 Z M 245.2 163.6 C 245.2 163.6 245.22 160.84 245.2 160.8 C 244.1 162.8 242.2 164.1 240.1 164.1 C 235.8 164.1 233.2 160 233.2 154 C 233.2 148 235.8 143.8 240.1 143.8 C 242.1 143.8 244.1 144.9 245.2 147.1 C 245.22 147.08 245.2 136.9 245.2 136.9 L 248.1 136.9 L 248.1 163.6 L 245.2 163.6 Z M 245.2 158.4 C 245.2 158.4 245.2 149.5 245.2 149.5 C 244.5 147.8 242.7 146.4 240.9 146.4 C 237.7 146.4 236.2 149.8 236.2 154 C 236.2 158.1 237.7 161.5 240.9 161.5 C 242.7 161.5 244.5 160.1 245.2 158.4 Z M 252.4 153.9 C 252.4 148.3 255.4 143.8 260.3 143.8 C 265.3 143.8 267.9 148.4 267.9 154 C 267.9 154 267.9 154.9 267.9 154.9 C 267.9 154.9 255.38 154.88 255.4 154.9 C 255.5 158.8 257.5 161.7 260.9 161.7 C 262.6 161.7 264.3 160.8 265.5 159.3 C 265.5 159.3 267.1 161 267.1 161 C 265.5 162.9 263.3 164.1 260.7 164.1 C 255.5 164.1 252.4 159.8 252.4 153.9 Z M 260.2 146.2 C 256.8 146.2 255.5 149.9 255.4 152.8 C 255.4 152.8 265.1 152.8 265.1 152.8 C 265 149.8 263.7 146.2 260.2 146.2 Z M 283.1 163.6 C 283.1 163.6 283.14 160.84 283.1 160.8 C 282 162.8 280.1 164.1 278.1 164.1 C 273.7 164.1 271.1 160 271.1 154 C 271.1 148 273.7 143.8 278.1 143.8 C 280 143.8 282 144.9 283.1 147.1 C 283.14 147.08 283.1 136.9 283.1 136.9 L 286 136.9 L 286 163.6 L 283.1 163.6 Z M 283.1 158.4 C 283.1 158.4 283.1 149.5 283.1 149.5 C 282.4 147.8 280.6 146.4 278.8 146.4 C 275.6 146.4 274.1 149.8 274.1 154 C 274.1 158.1 275.6 161.5 278.8 161.5 C 280.6 161.5 282.4 160.1 283.1 158.4 Z M 291.1 161.8 C 291.1 160.7 292.1 159.7 293.2 159.7 C 294.4 159.7 295.4 160.7 295.4 161.8 C 295.4 163 294.4 164 293.2 164 C 292.1 164 291.1 163 291.1 161.8 Z " stroke="none" fill="#b13d24"/>  </g>  <g id="Polygon183422">    <path d="M 3.7 109.9 C 3.7 104.3 6.6 99.8 11.5 99.8 C 16.6 99.8 19.1 104.4 19.1 110 C 19.14 110 19.1 110.9 19.1 110.9 C 19.1 110.9 6.62 110.88 6.6 110.9 C 6.7 114.8 8.7 117.7 12.2 117.7 C 13.9 117.7 15.6 116.8 16.8 115.3 C 16.8 115.3 18.3 117 18.3 117 C 16.7 118.9 14.5 120.1 11.9 120.1 C 6.8 120.1 3.7 115.8 3.7 109.9 Z M 11.5 102.2 C 8.1 102.2 6.7 105.9 6.6 108.8 C 6.6 108.8 16.3 108.8 16.3 108.8 C 16.3 105.8 15 102.2 11.5 102.2 Z M 27.3 119.6 L 20.9 100.3 L 24.1 100.3 L 28.9 116.2 L 33.7 100.3 L 36.8 100.3 L 30.4 119.6 L 27.3 119.6 Z M 38.7 109.9 C 38.7 104.3 41.7 99.8 46.5 99.8 C 51.6 99.8 54.2 104.4 54.2 110 C 54.18 110 54.2 110.9 54.2 110.9 C 54.2 110.9 41.66 110.88 41.7 110.9 C 41.8 114.8 43.8 117.7 47.2 117.7 C 48.9 117.7 50.6 116.8 51.8 115.3 C 51.8 115.3 53.3 117 53.3 117 C 51.8 118.9 49.6 120.1 47 120.1 C 41.8 120.1 38.7 115.8 38.7 109.9 Z M 46.5 102.2 C 43.1 102.2 41.7 105.9 41.7 108.8 C 41.7 108.8 51.3 108.8 51.3 108.8 C 51.3 105.8 50 102.2 46.5 102.2 Z M 58.4 119.6 L 58.4 100.3 L 61.2 100.3 C 61.2 100.3 61.22 103.36 61.2 103.4 C 62.5 101.3 64.3 99.9 66.7 99.9 C 66.7 99.9 66.7 102.8 66.7 102.8 C 66.4 102.8 66.1 102.7 65.7 102.7 C 64 102.7 62 104.3 61.2 105.9 C 61.22 105.88 61.2 119.6 61.2 119.6 L 58.4 119.6 Z M 69.5 124.6 C 69.8 124.8 70.4 124.9 70.7 124.9 C 71.9 124.9 72.5 124.4 73 123 C 73.02 122.96 74.1 120 74.1 120 L 67.6 100.3 L 70.7 100.3 L 75.5 116.1 L 80.4 100.3 L 83.5 100.3 C 83.5 100.3 75.74 123.68 75.7 123.7 C 74.8 126.5 73.2 127.4 70.9 127.4 C 70.3 127.4 69.5 127.3 69 127.2 C 69 127.2 69.5 124.6 69.5 124.6 Z M 100.6 119.6 L 96.5 104.1 L 92.3 119.6 L 89.4 119.6 L 84.2 100.3 L 87.2 100.3 L 91 115.7 L 95.1 100.3 L 97.8 100.3 L 101.9 115.7 L 105.7 100.3 L 108.7 100.3 L 103.5 119.6 L 100.6 119.6 Z M 122.3 119.6 C 122.3 119.6 122.34 105.8 122.3 105.8 C 122.3 103.2 121.1 102.4 119.2 102.4 C 117.3 102.4 115.6 103.8 114.7 105.4 C 114.7 105.44 114.7 119.6 114.7 119.6 L 111.9 119.6 L 111.9 92.9 L 114.7 92.9 C 114.7 92.9 114.7 103.04 114.7 103 C 115.8 101.4 118 99.8 120.3 99.8 C 123.6 99.8 125.2 101.4 125.2 105 C 125.18 104.96 125.2 119.6 125.2 119.6 L 122.3 119.6 Z M 129.5 109.9 C 129.5 104.3 132.5 99.8 137.3 99.8 C 142.4 99.8 145 104.4 145 110 C 144.98 110 145 110.9 145 110.9 C 145 110.9 132.46 110.88 132.5 110.9 C 132.6 114.8 134.6 117.7 138 117.7 C 139.7 117.7 141.4 116.8 142.6 115.3 C 142.6 115.3 144.1 117 144.1 117 C 142.6 118.9 140.4 120.1 137.8 120.1 C 132.6 120.1 129.5 115.8 129.5 109.9 Z M 137.3 102.2 C 133.9 102.2 132.5 105.9 132.5 108.8 C 132.5 108.8 142.1 108.8 142.1 108.8 C 142.1 105.8 140.8 102.2 137.3 102.2 Z M 149.2 119.6 L 149.2 100.3 L 152 100.3 C 152 100.3 152.02 103.36 152 103.4 C 153.3 101.3 155.1 99.9 157.5 99.9 C 157.5 99.9 157.5 102.8 157.5 102.8 C 157.2 102.8 156.9 102.7 156.5 102.7 C 154.8 102.7 152.8 104.3 152 105.9 C 152.02 105.88 152 119.6 152 119.6 L 149.2 119.6 Z M 159.9 109.9 C 159.9 104.3 162.8 99.8 167.7 99.8 C 172.8 99.8 175.3 104.4 175.3 110 C 175.34 110 175.3 110.9 175.3 110.9 C 175.3 110.9 162.82 110.88 162.8 110.9 C 162.9 114.8 164.9 117.7 168.4 117.7 C 170.1 117.7 171.8 116.8 173 115.3 C 173 115.3 174.5 117 174.5 117 C 172.9 118.9 170.7 120.1 168.1 120.1 C 163 120.1 159.9 115.8 159.9 109.9 Z M 167.7 102.2 C 164.3 102.2 162.9 105.9 162.8 108.8 C 162.8 108.8 172.5 108.8 172.5 108.8 C 172.5 105.8 171.2 102.2 167.7 102.2 Z M 187.2 109.9 C 187.2 104.3 190.1 99.8 195 99.8 C 200.1 99.8 202.7 104.4 202.7 110 C 202.66 110 202.7 110.9 202.7 110.9 C 202.7 110.9 190.14 110.88 190.1 110.9 C 190.3 114.8 192.3 117.7 195.7 117.7 C 197.4 117.7 199.1 116.8 200.3 115.3 C 200.3 115.3 201.8 117 201.8 117 C 200.3 118.9 198.1 120.1 195.5 120.1 C 190.3 120.1 187.2 115.8 187.2 109.9 Z M 195 102.2 C 191.6 102.2 190.2 105.9 190.1 108.8 C 190.1 108.8 199.8 108.8 199.8 108.8 C 199.8 105.8 198.5 102.2 195 102.2 Z M 206.9 119.6 L 206.9 92.9 L 209.7 92.9 L 209.7 119.6 L 206.9 119.6 Z M 213.4 117.4 C 213.4 117.4 214.9 115.3 214.9 115.3 C 216 116.7 217.8 117.8 219.9 117.8 C 222.1 117.8 223.6 116.5 223.6 114.6 C 223.6 110.1 214 111.7 214 105 C 214 102.1 216.3 99.8 220.1 99.8 C 222.7 99.8 224.7 100.8 226 102.3 C 226 102.3 224.7 104.2 224.7 104.2 C 223.7 103 222.1 102.1 220.2 102.1 C 218.1 102.1 216.7 103.4 216.7 104.9 C 216.7 109 226.4 107.6 226.4 114.6 C 226.4 117.8 223.9 120.1 219.9 120.1 C 217.2 120.1 215 119.2 213.4 117.4 Z M 229.5 109.9 C 229.5 104.3 232.5 99.8 237.3 99.8 C 242.4 99.8 245 104.4 245 110 C 244.98 110 245 110.9 245 110.9 C 245 110.9 232.46 110.88 232.5 110.9 C 232.6 114.8 234.6 117.7 238 117.7 C 239.7 117.7 241.4 116.8 242.6 115.3 C 242.6 115.3 244.1 117 244.1 117 C 242.6 118.9 240.4 120.1 237.8 120.1 C 232.6 120.1 229.5 115.8 229.5 109.9 Z M 237.3 102.2 C 233.9 102.2 232.5 105.9 232.5 108.8 C 232.5 108.8 242.1 108.8 242.1 108.8 C 242.1 105.8 240.8 102.2 237.3 102.2 Z M 257.2 95.5 C 257.2 94.4 258.1 93.6 259.2 93.6 C 260.3 93.6 261.1 94.4 261.1 95.5 C 261.1 96.6 260.3 97.5 259.2 97.5 C 258.1 97.5 257.2 96.6 257.2 95.5 Z M 257.8 119.6 L 257.8 100.3 L 260.6 100.3 L 260.6 119.6 L 257.8 119.6 Z M 276.3 119.6 C 276.3 119.6 276.34 105.84 276.3 105.8 C 276.3 103.3 275.2 102.4 273.3 102.4 C 271.4 102.4 269.6 103.8 268.7 105.4 C 268.74 105.44 268.7 119.6 268.7 119.6 L 265.9 119.6 L 265.9 100.3 L 268.7 100.3 C 268.7 100.3 268.74 103.04 268.7 103 C 269.9 101.4 272 99.8 274.3 99.8 C 277.6 99.8 279.2 101.6 279.2 105 C 279.22 105.04 279.2 119.6 279.2 119.6 L 276.3 119.6 Z M 293.7 115.7 C 293.66 115.72 293.7 102.8 293.7 102.8 L 291.1 102.8 L 291.1 100.3 L 293.7 100.3 L 293.7 95 L 296.5 95 L 296.5 100.3 L 299.8 100.3 L 299.8 102.8 L 296.5 102.8 C 296.5 102.8 296.54 115.2 296.5 115.2 C 296.5 116.7 297 117.5 298.1 117.5 C 298.8 117.5 299.4 117.2 299.8 116.8 C 299.8 116.8 300.7 118.9 300.7 118.9 C 300 119.6 299 120.1 297.5 120.1 C 294.9 120.1 293.7 118.6 293.7 115.7 Z M 314.1 119.6 C 314.1 119.6 314.1 105.8 314.1 105.8 C 314.1 103.2 312.9 102.4 311 102.4 C 309.1 102.4 307.3 103.8 306.5 105.4 C 306.46 105.44 306.5 119.6 306.5 119.6 L 303.6 119.6 L 303.6 92.9 L 306.5 92.9 C 306.5 92.9 306.46 103.04 306.5 103 C 307.6 101.4 309.8 99.8 312.1 99.8 C 315.4 99.8 316.9 101.4 316.9 105 C 316.94 104.96 316.9 119.6 316.9 119.6 L 314.1 119.6 Z M 321.3 109.9 C 321.3 104.3 324.2 99.8 329.1 99.8 C 334.2 99.8 336.7 104.4 336.7 110 C 336.74 110 336.7 110.9 336.7 110.9 C 336.7 110.9 324.22 110.88 324.2 110.9 C 324.3 114.8 326.3 117.7 329.8 117.7 C 331.5 117.7 333.2 116.8 334.4 115.3 C 334.4 115.3 335.9 117 335.9 117 C 334.3 118.9 332.1 120.1 329.5 120.1 C 324.4 120.1 321.3 115.8 321.3 109.9 Z M 329.1 102.2 C 325.7 102.2 324.3 105.9 324.2 108.8 C 324.2 108.8 333.9 108.8 333.9 108.8 C 333.9 105.8 332.6 102.2 329.1 102.2 Z M 363.8 119.6 L 359.7 104.1 L 355.5 119.6 L 352.6 119.6 L 347.4 100.3 L 350.4 100.3 L 354.2 115.7 L 358.3 100.3 L 361 100.3 L 365.1 115.7 L 368.9 100.3 L 371.9 100.3 L 366.7 119.6 L 363.8 119.6 Z M 374.1 109.9 C 374.1 104.5 376.8 99.8 381.9 99.8 C 387.1 99.8 389.8 104.5 389.8 109.9 C 389.8 115.4 387.1 120.1 381.9 120.1 C 376.8 120.1 374.1 115.4 374.1 109.9 Z M 386.8 109.9 C 386.8 106 385.3 102.4 381.9 102.4 C 378.6 102.4 377.1 106 377.1 109.9 C 377.1 113.8 378.6 117.5 381.9 117.5 C 385.3 117.5 386.8 113.8 386.8 109.9 Z M 394.1 119.6 L 394.1 100.3 L 397 100.3 C 397 100.3 396.97 103.36 397 103.4 C 398.2 101.3 400.1 99.9 402.5 99.9 C 402.5 99.9 402.5 102.8 402.5 102.8 C 402.1 102.8 401.8 102.7 401.5 102.7 C 399.7 102.7 397.8 104.3 397 105.9 C 396.97 105.88 397 119.6 397 119.6 L 394.1 119.6 Z M 405.8 119.6 L 405.8 92.9 L 408.6 92.9 L 408.6 119.6 L 405.8 119.6 Z M 424.9 119.6 C 424.9 119.6 424.93 116.84 424.9 116.8 C 423.8 118.8 421.9 120.1 419.9 120.1 C 415.5 120.1 412.9 116 412.9 110 C 412.9 104 415.5 99.8 419.9 99.8 C 421.8 99.8 423.8 100.9 424.9 103.1 C 424.93 103.08 424.9 92.9 424.9 92.9 L 427.8 92.9 L 427.8 119.6 L 424.9 119.6 Z M 424.9 114.4 C 424.9 114.4 424.9 105.5 424.9 105.5 C 424.2 103.8 422.4 102.4 420.6 102.4 C 417.4 102.4 415.9 105.8 415.9 110 C 415.9 114.1 417.4 117.5 420.6 117.5 C 422.4 117.5 424.2 116.1 424.9 114.4 Z M 434.2 124.6 C 434.2 124.6 432.7 123.5 432.7 123.5 C 434 122.6 435.1 121 435.3 119.8 C 435.2 119.8 434.9 119.8 434.8 119.8 C 433.7 119.8 432.9 119 432.9 117.8 C 432.9 116.7 433.8 115.7 435 115.7 C 436.3 115.7 437.4 116.8 437.4 118.7 C 437.4 121.1 436 123.4 434.2 124.6 Z " stroke="none" fill="#b13d24"/>  </g>  <g id="Polygon183421">    <path d="M 5.2 71.7 C 5.18 71.72 5.2 58.8 5.2 58.8 L 2.6 58.8 L 2.6 56.3 L 5.2 56.3 L 5.2 51 L 8.1 51 L 8.1 56.3 L 11.3 56.3 L 11.3 58.8 L 8.1 58.8 C 8.1 58.8 8.06 71.2 8.1 71.2 C 8.1 72.7 8.5 73.5 9.6 73.5 C 10.3 73.5 10.9 73.2 11.3 72.8 C 11.3 72.8 12.2 74.9 12.2 74.9 C 11.5 75.6 10.5 76.1 9.1 76.1 C 6.4 76.1 5.2 74.6 5.2 71.7 Z M 25.6 75.6 C 25.6 75.6 25.62 61.8 25.6 61.8 C 25.6 59.2 24.4 58.4 22.5 58.4 C 20.6 58.4 18.9 59.8 18 61.4 C 17.98 61.44 18 75.6 18 75.6 L 15.1 75.6 L 15.1 48.9 L 18 48.9 C 18 48.9 17.98 59.04 18 59 C 19.1 57.4 21.3 55.8 23.6 55.8 C 26.9 55.8 28.5 57.4 28.5 61 C 28.46 60.96 28.5 75.6 28.5 75.6 L 25.6 75.6 Z M 32.8 65.9 C 32.8 60.3 35.7 55.8 40.6 55.8 C 45.7 55.8 48.3 60.4 48.3 66 C 48.26 66 48.3 66.9 48.3 66.9 C 48.3 66.9 35.74 66.88 35.7 66.9 C 35.9 70.8 37.9 73.7 41.3 73.7 C 43 73.7 44.7 72.8 45.9 71.3 C 45.9 71.3 47.4 73 47.4 73 C 45.9 74.9 43.7 76.1 41.1 76.1 C 35.9 76.1 32.8 71.8 32.8 65.9 Z M 40.6 58.2 C 37.2 58.2 35.8 61.9 35.7 64.8 C 35.7 64.8 45.4 64.8 45.4 64.8 C 45.4 61.8 44.1 58.2 40.6 58.2 Z M 72.1 75.6 C 72.1 75.6 72.1 72.84 72.1 72.8 C 71 74.8 69.1 76.1 67 76.1 C 62.7 76.1 60.1 72 60.1 66 C 60.1 60 62.7 55.8 67 55.8 C 69 55.8 70.9 56.9 72.1 59.1 C 72.1 59.08 72.1 48.9 72.1 48.9 L 75 48.9 L 75 75.6 L 72.1 75.6 Z M 72.1 70.4 C 72.1 70.4 72.1 61.5 72.1 61.5 C 71.4 59.8 69.6 58.4 67.7 58.4 C 64.6 58.4 63.1 61.8 63.1 66 C 63.1 70.1 64.6 73.5 67.7 73.5 C 69.6 73.5 71.4 72.1 72.1 70.4 Z M 79.7 51.5 C 79.7 50.4 80.6 49.6 81.7 49.6 C 82.7 49.6 83.6 50.4 83.6 51.5 C 83.6 52.6 82.7 53.5 81.7 53.5 C 80.6 53.5 79.7 52.6 79.7 51.5 Z M 80.3 75.6 L 80.3 56.3 L 83.1 56.3 L 83.1 75.6 L 80.3 75.6 Z M 86.8 73.4 C 86.8 73.4 88.3 71.3 88.3 71.3 C 89.4 72.7 91.2 73.8 93.3 73.8 C 95.5 73.8 97 72.5 97 70.6 C 97 66.1 87.4 67.7 87.4 61 C 87.4 58.1 89.7 55.8 93.5 55.8 C 96.1 55.8 98.1 56.8 99.4 58.3 C 99.4 58.3 98.1 60.2 98.1 60.2 C 97.1 59 95.5 58.1 93.6 58.1 C 91.5 58.1 90.1 59.4 90.1 60.9 C 90.1 65 99.8 63.6 99.8 70.6 C 99.8 73.8 97.3 76.1 93.3 76.1 C 90.6 76.1 88.4 75.2 86.8 73.4 Z M 114.3 75.6 C 114.3 75.6 114.34 61.8 114.3 61.8 C 114.3 59.2 113.1 58.4 111.2 58.4 C 109.3 58.4 107.6 59.8 106.7 61.4 C 106.7 61.44 106.7 75.6 106.7 75.6 L 103.9 75.6 L 103.9 48.9 L 106.7 48.9 C 106.7 48.9 106.7 59.04 106.7 59 C 107.8 57.4 110 55.8 112.3 55.8 C 115.6 55.8 117.2 57.4 117.2 61 C 117.18 60.96 117.2 75.6 117.2 75.6 L 114.3 75.6 Z M 145.3 75.6 L 141.2 60.1 L 137 75.6 L 134.1 75.6 L 128.9 56.3 L 131.9 56.3 L 135.7 71.7 L 139.8 56.3 L 142.5 56.3 L 146.6 71.7 L 150.4 56.3 L 153.4 56.3 L 148.3 75.6 L 145.3 75.6 Z M 166.5 75.6 C 166.5 75.6 166.5 73.52 166.5 73.5 C 165.3 75.3 163.4 76.1 161.4 76.1 C 158.3 76.1 155.6 73.7 155.6 69.6 C 155.6 65.6 158.3 63.3 161.4 63.3 C 163.4 63.3 165.3 64 166.5 65.8 C 166.5 65.8 166.5 62.4 166.5 62.4 C 166.5 59.8 165.1 58.3 162.5 58.3 C 160.7 58.3 159.2 59 157.7 60.6 C 157.7 60.6 156.4 58.6 156.4 58.6 C 158.3 56.7 160.5 55.8 163 55.8 C 166.8 55.8 169.4 57.7 169.4 62.1 C 169.38 62.08 169.4 75.6 169.4 75.6 L 166.5 75.6 Z M 166.5 71.6 C 166.5 71.6 166.5 67.9 166.5 67.9 C 165.6 66.2 164 65.4 162.3 65.4 C 159.9 65.4 158.5 67.3 158.5 69.7 C 158.5 72.1 159.9 74 162.3 74 C 164 74 165.6 73.2 166.5 71.6 Z M 173.1 73.4 C 173.1 73.4 174.5 71.3 174.5 71.3 C 175.6 72.7 177.5 73.8 179.5 73.8 C 181.8 73.8 183.3 72.5 183.3 70.6 C 183.3 66.1 173.6 67.7 173.6 61 C 173.6 58.1 175.9 55.8 179.8 55.8 C 182.3 55.8 184.3 56.8 185.7 58.3 C 185.7 58.3 184.3 60.2 184.3 60.2 C 183.3 59 181.7 58.1 179.8 58.1 C 177.7 58.1 176.4 59.4 176.4 60.9 C 176.4 65 186 63.6 186 70.6 C 186 73.8 183.5 76.1 179.6 76.1 C 176.9 76.1 174.7 75.2 173.1 73.4 Z M 208.6 75.6 C 208.6 75.6 208.62 73.52 208.6 73.5 C 207.4 75.3 205.5 76.1 203.5 76.1 C 200.4 76.1 197.7 73.7 197.7 69.6 C 197.7 65.6 200.4 63.3 203.5 63.3 C 205.5 63.3 207.4 64 208.6 65.8 C 208.6 65.8 208.6 62.4 208.6 62.4 C 208.6 59.8 207.2 58.3 204.7 58.3 C 202.9 58.3 201.3 59 199.8 60.6 C 199.8 60.6 198.5 58.6 198.5 58.6 C 200.4 56.7 202.7 55.8 205.1 55.8 C 208.9 55.8 211.5 57.7 211.5 62.1 C 211.5 62.08 211.5 75.6 211.5 75.6 L 208.6 75.6 Z M 208.6 71.6 C 208.6 71.6 208.6 67.9 208.6 67.9 C 207.7 66.2 206.1 65.4 204.5 65.4 C 202.1 65.4 200.6 67.3 200.6 69.7 C 200.6 72.1 202.1 74 204.5 74 C 206.1 74 207.7 73.2 208.6 71.6 Z M 216.7 75.6 L 216.7 48.9 L 219.6 48.9 L 219.6 75.6 L 216.7 75.6 Z M 223.3 73.4 C 223.3 73.4 224.7 71.3 224.7 71.3 C 225.9 72.7 227.7 73.8 229.8 73.8 C 232 73.8 233.5 72.5 233.5 70.6 C 233.5 66.1 223.9 67.7 223.9 61 C 223.9 58.1 226.2 55.8 230 55.8 C 232.6 55.8 234.5 56.8 235.9 58.3 C 235.9 58.3 234.5 60.2 234.5 60.2 C 233.6 59 231.9 58.1 230.1 58.1 C 227.9 58.1 226.6 59.4 226.6 60.9 C 226.6 65 236.3 63.6 236.3 70.6 C 236.3 73.8 233.8 76.1 229.8 76.1 C 227.1 76.1 224.9 75.2 223.3 73.4 Z M 239.4 65.9 C 239.4 60.5 242.1 55.8 247.2 55.8 C 252.4 55.8 255.1 60.5 255.1 65.9 C 255.1 71.4 252.4 76.1 247.2 76.1 C 242.1 76.1 239.4 71.4 239.4 65.9 Z M 252.1 65.9 C 252.1 62 250.6 58.4 247.2 58.4 C 243.9 58.4 242.4 62 242.4 65.9 C 242.4 69.8 243.9 73.5 247.2 73.5 C 250.6 73.5 252.1 69.8 252.1 65.9 Z M 270.9 72.8 C 270.86 72.8 270.9 83 270.9 83 L 268 83 L 268 56.3 L 270.9 56.3 C 270.9 56.3 270.86 59.04 270.9 59 C 272 57.1 273.9 55.8 275.9 55.8 C 280.3 55.8 282.9 59.8 282.9 65.9 C 282.9 72 280.3 76.1 275.9 76.1 C 274 76.1 272.1 75 270.9 72.8 Z M 279.9 65.9 C 279.9 61.8 278.4 58.4 275.2 58.4 C 273.4 58.4 271.6 59.8 270.9 61.5 C 270.9 61.5 270.9 70.3 270.9 70.3 C 271.6 72 273.4 73.5 275.2 73.5 C 278.4 73.5 279.9 70.1 279.9 65.9 Z M 286.2 65.9 C 286.2 60.5 288.9 55.8 294 55.8 C 299.2 55.8 301.9 60.5 301.9 65.9 C 301.9 71.4 299.2 76.1 294 76.1 C 288.9 76.1 286.2 71.4 286.2 65.9 Z M 298.9 65.9 C 298.9 62 297.4 58.4 294 58.4 C 290.7 58.4 289.2 62 289.2 65.9 C 289.2 69.8 290.7 73.5 294 73.5 C 297.4 73.5 298.9 69.8 298.9 65.9 Z M 309.1 72.8 C 309.06 72.8 309.1 83 309.1 83 L 306.2 83 L 306.2 56.3 L 309.1 56.3 C 309.1 56.3 309.06 59.04 309.1 59 C 310.2 57.1 312.1 55.8 314.1 55.8 C 318.5 55.8 321.1 59.8 321.1 65.9 C 321.1 72 318.5 76.1 314.1 76.1 C 312.2 76.1 310.3 75 309.1 72.8 Z M 318.1 65.9 C 318.1 61.8 316.6 58.4 313.4 58.4 C 311.6 58.4 309.8 59.8 309.1 61.5 C 309.1 61.5 309.1 70.3 309.1 70.3 C 309.8 72 311.6 73.5 313.4 73.5 C 316.6 73.5 318.1 70.1 318.1 65.9 Z M 335.8 75.6 C 335.8 75.6 335.78 72.92 335.8 72.9 C 334.6 74.6 332.6 76.1 330.2 76.1 C 326.9 76.1 325.3 74.4 325.3 70.9 C 325.34 70.92 325.3 56.3 325.3 56.3 L 328.2 56.3 C 328.2 56.3 328.18 70.08 328.2 70.1 C 328.2 72.6 329.4 73.5 331.3 73.5 C 333.2 73.5 334.9 72.1 335.8 70.5 C 335.78 70.52 335.8 56.3 335.8 56.3 L 338.7 56.3 L 338.7 75.6 L 335.8 75.6 Z M 343.9 75.6 L 343.9 48.9 L 346.8 48.9 L 346.8 75.6 L 343.9 75.6 Z M 362 75.6 C 362 75.6 361.98 73.52 362 73.5 C 360.7 75.3 358.9 76.1 356.9 76.1 C 353.8 76.1 351.1 73.7 351.1 69.6 C 351.1 65.6 353.7 63.3 356.9 63.3 C 358.9 63.3 360.8 64 362 65.8 C 362 65.8 362 62.4 362 62.4 C 362 59.8 360.5 58.3 358 58.3 C 356.2 58.3 354.7 59 353.2 60.6 C 353.2 60.6 351.9 58.6 351.9 58.6 C 353.7 56.7 356 55.8 358.5 55.8 C 362.3 55.8 364.9 57.7 364.9 62.1 C 364.86 62.08 364.9 75.6 364.9 75.6 L 362 75.6 Z M 362 71.6 C 362 71.6 362 67.9 362 67.9 C 361.1 66.2 359.5 65.4 357.8 65.4 C 355.4 65.4 354 67.3 354 69.7 C 354 72.1 355.4 74 357.8 74 C 359.5 74 361.1 73.2 362 71.6 Z M 370.1 75.6 L 370.1 56.3 L 372.9 56.3 C 372.9 56.3 372.94 59.36 372.9 59.4 C 374.2 57.3 376.1 55.9 378.4 55.9 C 378.4 55.9 378.4 58.8 378.4 58.8 C 378.1 58.8 377.8 58.7 377.5 58.7 C 375.7 58.7 373.7 60.3 372.9 61.9 C 372.94 61.88 372.9 75.6 372.9 75.6 L 370.1 75.6 Z " stroke="none" fill="#b13d24"/>  </g>  <g id="Polygon183420">    <path d="M 3.9 18.3 C 3.9 10.6 7.5 4.5 13.9 4.5 C 20.4 4.5 24.1 10.6 24.1 18.3 C 24.1 26 20.4 32.1 13.9 32.1 C 7.5 32.1 3.9 26 3.9 18.3 Z M 20.8 18.3 C 20.8 12.1 18.4 7.3 13.9 7.3 C 9.5 7.3 7.1 12.1 7.1 18.3 C 7.1 24.4 9.5 29.2 13.9 29.2 C 18.4 29.2 20.8 24.4 20.8 18.3 Z M 28.6 31.6 L 28.6 12.3 L 31.4 12.3 C 31.4 12.3 31.42 15.36 31.4 15.4 C 32.7 13.3 34.5 11.9 36.9 11.9 C 36.9 11.9 36.9 14.8 36.9 14.8 C 36.6 14.8 36.3 14.7 35.9 14.7 C 34.2 14.7 32.2 16.3 31.4 17.9 C 31.42 17.88 31.4 31.6 31.4 31.6 L 28.6 31.6 Z M 39.7 7.5 C 39.7 6.4 40.6 5.6 41.6 5.6 C 42.7 5.6 43.6 6.4 43.6 7.5 C 43.6 8.6 42.7 9.5 41.6 9.5 C 40.6 9.5 39.7 8.6 39.7 7.5 Z M 40.2 31.6 L 40.2 12.3 L 43.1 12.3 L 43.1 31.6 L 40.2 31.6 Z M 48.2 37 C 48.2 37 49.5 34.8 49.5 34.8 C 50.8 36.2 52.4 37 54.5 37 C 57.2 37 59.4 35.5 59.4 31.8 C 59.4 31.8 59.4 28.5 59.4 28.5 C 58.3 30.5 56.3 31.8 54.3 31.8 C 50 31.8 47.4 27.9 47.4 21.8 C 47.4 15.8 49.9 11.8 54.3 11.8 C 56.3 11.8 58.2 12.9 59.4 15.1 C 59.38 15.08 59.4 12.3 59.4 12.3 L 62.3 12.3 C 62.3 12.3 62.26 31.56 62.3 31.6 C 62.3 37.5 58.7 39.4 54.6 39.4 C 52 39.4 50 38.8 48.2 37 Z M 59.4 26.1 C 59.4 26.1 59.4 17.5 59.4 17.5 C 58.7 15.8 56.9 14.4 55 14.4 C 51.9 14.4 50.4 17.7 50.4 21.8 C 50.4 26 51.9 29.3 55 29.3 C 56.9 29.3 58.7 27.8 59.4 26.1 Z M 66.9 7.5 C 66.9 6.4 67.9 5.6 68.9 5.6 C 70 5.6 70.9 6.4 70.9 7.5 C 70.9 8.6 70 9.5 68.9 9.5 C 67.9 9.5 66.9 8.6 66.9 7.5 Z M 67.5 31.6 L 67.5 12.3 L 70.3 12.3 L 70.3 31.6 L 67.5 31.6 Z M 86.1 31.6 C 86.1 31.6 86.06 17.84 86.1 17.8 C 86.1 15.3 84.9 14.4 83 14.4 C 81.1 14.4 79.3 15.8 78.5 17.4 C 78.46 17.44 78.5 31.6 78.5 31.6 L 75.6 31.6 L 75.6 12.3 L 78.5 12.3 C 78.5 12.3 78.46 15.04 78.5 15 C 79.6 13.4 81.7 11.8 84.1 11.8 C 87.3 11.8 88.9 13.6 88.9 17 C 88.94 17.04 88.9 31.6 88.9 31.6 L 86.1 31.6 Z M 104.1 31.6 C 104.1 31.6 104.14 29.52 104.1 29.5 C 102.9 31.3 101 32.1 99.1 32.1 C 95.9 32.1 93.2 29.7 93.2 25.6 C 93.2 21.6 95.9 19.3 99.1 19.3 C 101 19.3 102.9 20 104.1 21.8 C 104.1 21.8 104.1 18.4 104.1 18.4 C 104.1 15.8 102.7 14.3 100.2 14.3 C 98.4 14.3 96.8 15 95.3 16.6 C 95.3 16.6 94.1 14.6 94.1 14.6 C 95.9 12.7 98.2 11.8 100.6 11.8 C 104.5 11.8 107 13.7 107 18.1 C 107.02 18.08 107 31.6 107 31.6 L 104.1 31.6 Z M 104.1 27.6 C 104.1 27.6 104.1 23.9 104.1 23.9 C 103.3 22.2 101.7 21.4 100 21.4 C 97.6 21.4 96.1 23.3 96.1 25.7 C 96.1 28.1 97.6 30 100 30 C 101.7 30 103.3 29.2 104.1 27.6 Z M 112.3 31.6 L 112.3 4.9 L 115.1 4.9 L 115.1 31.6 L 112.3 31.6 Z M 120.4 31.6 L 120.4 4.9 L 123.2 4.9 L 123.2 31.6 L 120.4 31.6 Z M 127.9 36.6 C 128.3 36.8 128.9 36.9 129.2 36.9 C 130.3 36.9 131 36.4 131.5 35 C 131.5 34.96 132.5 32 132.5 32 L 126.1 12.3 L 129.2 12.3 L 134 28.1 L 138.9 12.3 L 141.9 12.3 C 141.9 12.3 134.22 35.68 134.2 35.7 C 133.3 38.5 131.7 39.4 129.4 39.4 C 128.8 39.4 127.9 39.3 127.5 39.2 C 127.5 39.2 127.9 36.6 127.9 36.6 Z M 163.3 31.6 C 163.3 31.6 163.34 29.52 163.3 29.5 C 162.1 31.3 160.2 32.1 158.3 32.1 C 155.1 32.1 152.4 29.7 152.4 25.6 C 152.4 21.6 155.1 19.3 158.3 19.3 C 160.2 19.3 162.1 20 163.3 21.8 C 163.3 21.8 163.3 18.4 163.3 18.4 C 163.3 15.8 161.9 14.3 159.4 14.3 C 157.6 14.3 156 15 154.5 16.6 C 154.5 16.6 153.3 14.6 153.3 14.6 C 155.1 12.7 157.4 11.8 159.8 11.8 C 163.7 11.8 166.2 13.7 166.2 18.1 C 166.22 18.08 166.2 31.6 166.2 31.6 L 163.3 31.6 Z M 163.3 27.6 C 163.3 27.6 163.3 23.9 163.3 23.9 C 162.5 22.2 160.9 21.4 159.2 21.4 C 156.8 21.4 155.3 23.3 155.3 25.7 C 155.3 28.1 156.8 30 159.2 30 C 160.9 30 162.5 29.2 163.3 27.6 Z M 177.8 29.6 C 177.8 29.6 179.2 27.2 179.2 27.2 C 180.2 28.4 181.5 29.2 183.1 29.2 C 185.8 29.2 187.4 27.6 187.4 24.7 C 187.38 24.68 187.4 4.9 187.4 4.9 L 190.5 4.9 C 190.5 4.9 190.54 24.76 190.5 24.8 C 190.5 29.8 187.5 32.1 183.4 32.1 C 181.2 32.1 179.3 31.4 177.8 29.6 Z M 205.9 31.6 C 205.9 31.6 205.9 29.52 205.9 29.5 C 204.7 31.3 202.8 32.1 200.8 32.1 C 197.7 32.1 195 29.7 195 25.6 C 195 21.6 197.7 19.3 200.8 19.3 C 202.8 19.3 204.7 20 205.9 21.8 C 205.9 21.8 205.9 18.4 205.9 18.4 C 205.9 15.8 204.5 14.3 201.9 14.3 C 200.1 14.3 198.6 15 197.1 16.6 C 197.1 16.6 195.8 14.6 195.8 14.6 C 197.7 12.7 199.9 11.8 202.4 11.8 C 206.2 11.8 208.8 13.7 208.8 18.1 C 208.78 18.08 208.8 31.6 208.8 31.6 L 205.9 31.6 Z M 205.9 27.6 C 205.9 27.6 205.9 23.9 205.9 23.9 C 205 22.2 203.4 21.4 201.7 21.4 C 199.3 21.4 197.9 23.3 197.9 25.7 C 197.9 28.1 199.3 30 201.7 30 C 203.4 30 205 29.2 205.9 27.6 Z M 216.9 28.8 C 216.86 28.8 216.9 39 216.9 39 L 214 39 L 214 12.3 L 216.9 12.3 C 216.9 12.3 216.86 15.04 216.9 15 C 218 13.1 219.9 11.8 221.9 11.8 C 226.3 11.8 228.9 15.8 228.9 21.9 C 228.9 28 226.3 32.1 221.9 32.1 C 220 32.1 218.1 31 216.9 28.8 Z M 225.9 21.9 C 225.9 17.8 224.4 14.4 221.2 14.4 C 219.4 14.4 217.6 15.8 216.9 17.5 C 216.9 17.5 216.9 26.3 216.9 26.3 C 217.6 28 219.4 29.5 221.2 29.5 C 224.4 29.5 225.9 26.1 225.9 21.9 Z M 243.1 31.6 C 243.1 31.6 243.06 29.52 243.1 29.5 C 241.8 31.3 239.9 32.1 238 32.1 C 234.9 32.1 232.1 29.7 232.1 25.6 C 232.1 21.6 234.8 19.3 238 19.3 C 239.9 19.3 241.9 20 243.1 21.8 C 243.1 21.8 243.1 18.4 243.1 18.4 C 243.1 15.8 241.6 14.3 239.1 14.3 C 237.3 14.3 235.7 15 234.3 16.6 C 234.3 16.6 233 14.6 233 14.6 C 234.8 12.7 237.1 11.8 239.5 11.8 C 243.4 11.8 245.9 13.7 245.9 18.1 C 245.94 18.08 245.9 31.6 245.9 31.6 L 243.1 31.6 Z M 243.1 27.6 C 243.1 27.6 243.1 23.9 243.1 23.9 C 242.2 22.2 240.6 21.4 238.9 21.4 C 236.5 21.4 235.1 23.3 235.1 25.7 C 235.1 28.1 236.5 30 238.9 30 C 240.6 30 242.2 29.2 243.1 27.6 Z M 261.6 31.6 C 261.6 31.6 261.62 17.84 261.6 17.8 C 261.6 15.3 260.5 14.4 258.5 14.4 C 256.7 14.4 254.9 15.8 254 17.4 C 254.02 17.44 254 31.6 254 31.6 L 251.2 31.6 L 251.2 12.3 L 254 12.3 C 254 12.3 254.02 15.04 254 15 C 255.1 13.4 257.3 11.8 259.6 11.8 C 262.9 11.8 264.5 13.6 264.5 17 C 264.5 17.04 264.5 31.6 264.5 31.6 L 261.6 31.6 Z M 268.8 21.9 C 268.8 16.3 271.8 11.8 276.7 11.8 C 281.7 11.8 284.3 16.4 284.3 22 C 284.3 22 284.3 22.9 284.3 22.9 C 284.3 22.9 271.78 22.88 271.8 22.9 C 271.9 26.8 273.9 29.7 277.3 29.7 C 279 29.7 280.7 28.8 281.9 27.3 C 281.9 27.3 283.5 29 283.5 29 C 281.9 30.9 279.7 32.1 277.1 32.1 C 271.9 32.1 268.8 27.8 268.8 21.9 Z M 276.6 14.2 C 273.2 14.2 271.9 17.9 271.8 20.8 C 271.8 20.8 281.5 20.8 281.5 20.8 C 281.4 17.8 280.1 14.2 276.6 14.2 Z M 286.9 29.4 C 286.9 29.4 288.4 27.3 288.4 27.3 C 289.5 28.7 291.3 29.8 293.4 29.8 C 295.7 29.8 297.1 28.5 297.1 26.6 C 297.1 22.1 287.5 23.7 287.5 17 C 287.5 14.1 289.8 11.8 293.7 11.8 C 296.2 11.8 298.2 12.8 299.5 14.3 C 299.5 14.3 298.2 16.2 298.2 16.2 C 297.2 15 295.6 14.1 293.7 14.1 C 291.6 14.1 290.3 15.4 290.3 16.9 C 290.3 21 299.9 19.6 299.9 26.6 C 299.9 29.8 297.4 32.1 293.5 32.1 C 290.7 32.1 288.5 31.2 286.9 29.4 Z M 303 21.9 C 303 16.3 306 11.8 310.9 11.8 C 315.9 11.8 318.5 16.4 318.5 22 C 318.5 22 318.5 22.9 318.5 22.9 C 318.5 22.9 305.98 22.88 306 22.9 C 306.1 26.8 308.1 29.7 311.5 29.7 C 313.2 29.7 314.9 28.8 316.1 27.3 C 316.1 27.3 317.7 29 317.7 29 C 316.1 30.9 313.9 32.1 311.3 32.1 C 306.1 32.1 303 27.8 303 21.9 Z M 310.8 14.2 C 307.4 14.2 306.1 17.9 306 20.8 C 306 20.8 315.7 20.8 315.7 20.8 C 315.6 17.8 314.3 14.2 310.8 14.2 Z M 342.3 31.6 C 342.3 31.6 342.34 28.84 342.3 28.8 C 341.2 30.8 339.3 32.1 337.3 32.1 C 332.9 32.1 330.3 28 330.3 22 C 330.3 16 332.9 11.8 337.3 11.8 C 339.2 11.8 341.2 12.9 342.3 15.1 C 342.34 15.08 342.3 4.9 342.3 4.9 L 345.2 4.9 L 345.2 31.6 L 342.3 31.6 Z M 342.3 26.4 C 342.3 26.4 342.3 17.5 342.3 17.5 C 341.6 15.8 339.8 14.4 338 14.4 C 334.8 14.4 333.3 17.8 333.3 22 C 333.3 26.1 334.8 29.5 338 29.5 C 339.8 29.5 341.6 28.1 342.3 26.4 Z M 349.9 7.5 C 349.9 6.4 350.9 5.6 351.9 5.6 C 353 5.6 353.9 6.4 353.9 7.5 C 353.9 8.6 353 9.5 351.9 9.5 C 350.9 9.5 349.9 8.6 349.9 7.5 Z M 350.5 31.6 L 350.5 12.3 L 353.3 12.3 L 353.3 31.6 L 350.5 31.6 Z M 357.1 29.4 C 357.1 29.4 358.5 27.3 358.5 27.3 C 359.6 28.7 361.5 29.8 363.5 29.8 C 365.8 29.8 367.3 28.5 367.3 26.6 C 367.3 22.1 357.6 23.7 357.6 17 C 357.6 14.1 359.9 11.8 363.8 11.8 C 366.3 11.8 368.3 12.8 369.7 14.3 C 369.7 14.3 368.3 16.2 368.3 16.2 C 367.3 15 365.7 14.1 363.8 14.1 C 361.7 14.1 360.4 15.4 360.4 16.9 C 360.4 21 370 19.6 370 26.6 C 370 29.8 367.5 32.1 363.6 32.1 C 360.9 32.1 358.7 31.2 357.1 29.4 Z M 384.6 31.6 C 384.6 31.6 384.58 17.8 384.6 17.8 C 384.6 15.2 383.4 14.4 381.5 14.4 C 379.6 14.4 377.8 15.8 376.9 17.4 C 376.94 17.44 376.9 31.6 376.9 31.6 L 374.1 31.6 L 374.1 4.9 L 376.9 4.9 C 376.9 4.9 376.94 15.04 376.9 15 C 378.1 13.4 380.3 11.8 382.6 11.8 C 385.9 11.8 387.4 13.4 387.4 17 C 387.42 16.96 387.4 31.6 387.4 31.6 L 384.6 31.6 Z M 393.8 36.6 C 393.8 36.6 392.3 35.5 392.3 35.5 C 393.6 34.6 394.7 33 394.9 31.8 C 394.8 31.8 394.5 31.8 394.4 31.8 C 393.3 31.8 392.5 31 392.5 29.8 C 392.5 28.7 393.4 27.7 394.6 27.7 C 395.9 27.7 397 28.8 397 30.7 C 397 33.1 395.6 35.4 393.8 36.6 Z " stroke="none" fill="#b13d24"/>  </g></svg>