<?xml version="1.0" standalone="no"?><!DOCTYPE svg PUBLIC "-//W3C//DTD SVG 1.1//EN" "http://www.w3.org/Graphics/SVG/1.1/DTD/svg11.dtd"><svg xmlns="http://www.w3.org/2000/svg" version="1.1" width="510px" height="85.6px" viewBox="0 0 510 85.6">  <desc>Egg and Toast</desc>  <defs/>  <g id="Polygon146561">    <path d="M 3.1 47.4 L 3.1 7.4 L 20.6 7.4 L 20.6 14 L 10.7 14 L 10.7 23.7 L 20.2 23.7 L 20.2 30.4 L 10.7 30.4 L 10.7 40.7 L 20.6 40.7 L 20.6 47.4 L 3.1 47.4 Z M 25.4 56 C 25.4 56 27.7 50.5 27.7 50.5 C 29.3 52.2 31.4 53.3 33.6 53.3 C 36.5 53.3 38.5 51.4 38.5 46.9 C 38.5 46.9 38.5 42.7 38.5 42.7 C 37.3 45.7 34.9 47.2 32.9 47.2 C 27.2 47.2 24.3 41.8 24.3 32.5 C 24.3 23.3 27.2 17.7 32.9 17.7 C 34.9 17.7 37.3 19 38.5 22 C 38.52 22.02 38.5 18.4 38.5 18.4 L 45.3 18.4 C 45.3 18.4 45.3 46.44 45.3 46.4 C 45.3 56.4 40 59.2 34.3 59.2 C 30.7 59.2 27.8 58.3 25.4 56 Z M 38.5 37.7 C 38.5 37.7 38.5 27.2 38.5 27.2 C 37.9 25.3 36.5 23.7 35.1 23.7 C 32.1 23.7 31.3 27.4 31.3 32.5 C 31.3 37.6 32.1 41.2 35.1 41.2 C 36.5 41.2 37.9 39.6 38.5 37.7 Z M 50.8 56 C 50.8 56 53 50.5 53 50.5 C 54.7 52.2 56.8 53.3 59 53.3 C 61.9 53.3 63.9 51.4 63.9 46.9 C 63.9 46.9 63.9 42.7 63.9 42.7 C 62.6 45.7 60.3 47.2 58.3 47.2 C 52.6 47.2 49.7 41.8 49.7 32.5 C 49.7 23.3 52.6 17.7 58.3 17.7 C 60.3 17.7 62.7 19 63.9 22 C 63.9 22.02 63.9 18.4 63.9 18.4 L 70.7 18.4 C 70.7 18.4 70.68 46.44 70.7 46.4 C 70.7 56.4 65.3 59.2 59.7 59.2 C 56.1 59.2 53.2 58.3 50.8 56 Z M 63.9 37.7 C 63.9 37.7 63.9 27.2 63.9 27.2 C 63.3 25.3 61.9 23.7 60.5 23.7 C 57.5 23.7 56.6 27.4 56.6 32.5 C 56.6 37.6 57.5 41.2 60.5 41.2 C 61.9 41.2 63.3 39.6 63.9 37.7 Z M 98.6 47.4 C 98.6 47.4 98.58 44.64 98.6 44.6 C 97.3 46.9 94.6 48.1 92.5 48.1 C 88 48.1 84.7 44.4 84.7 38.5 C 84.7 32.6 88 29 92.5 29 C 94.6 29 97.4 30.1 98.6 32.3 C 98.6 32.3 98.6 28.7 98.6 28.7 C 98.6 25.4 97.3 23.5 94.2 23.5 C 92.3 23.5 90.2 24.4 88.3 26.3 C 88.3 26.3 85.8 21.5 85.8 21.5 C 88.4 18.7 92.6 17.7 95.6 17.7 C 101.5 17.7 105.4 20.7 105.4 27.2 C 105.36 27.18 105.4 47.4 105.4 47.4 L 98.6 47.4 Z M 98.6 40.6 C 98.6 40.6 98.6 36.7 98.6 36.7 C 97.9 34.9 96.4 33.7 94.9 33.7 C 92.6 33.7 91.4 35.8 91.4 38.6 C 91.4 41.3 92.6 43.6 94.9 43.6 C 96.4 43.6 97.9 42.4 98.6 40.6 Z M 123.8 47.4 C 123.8 47.4 123.78 26.76 123.8 26.8 C 123.8 24.7 123.1 23.7 121.6 23.7 C 119.8 23.7 118.3 25.6 117.7 27.5 C 117.66 27.48 117.7 47.4 117.7 47.4 L 110.9 47.4 L 110.9 18.4 L 117.7 18.4 C 117.7 18.4 117.66 22.2 117.7 22.2 C 118.8 19.9 121.8 17.7 124.4 17.7 C 128.8 17.7 130.6 20.3 130.6 24.3 C 130.62 24.3 130.6 47.4 130.6 47.4 L 123.8 47.4 Z M 149.2 47.4 C 149.2 47.4 149.16 43.8 149.2 43.8 C 147.9 46.7 145.6 48.1 143.5 48.1 C 137.8 48.1 134.9 42.2 134.9 32.9 C 134.9 23.8 137.8 17.7 143.5 17.7 C 145.6 17.7 148 19 149.2 22 C 149.16 22.02 149.2 7.4 149.2 7.4 L 155.9 7.4 L 155.9 47.4 L 149.2 47.4 Z M 149.2 38.6 C 149.2 38.6 149.2 27.2 149.2 27.2 C 148.6 25.3 147.2 23.7 145.7 23.7 C 142.7 23.7 141.9 27.8 141.9 32.9 C 141.9 38 142.7 42.1 145.7 42.1 C 147.2 42.1 148.6 40.6 149.2 38.6 Z M 175.6 47.4 L 175.6 14 L 169.6 14 L 169.6 7.4 L 189.2 7.4 L 189.2 14 L 183.2 14 L 183.2 47.4 L 175.6 47.4 Z M 188.9 32.9 C 188.9 24.8 192.2 17.7 199.8 17.7 C 207.4 17.7 210.7 24.8 210.7 32.9 C 210.7 40.9 207.4 48.1 199.8 48.1 C 192.2 48.1 188.9 40.9 188.9 32.9 Z M 203.7 32.9 C 203.7 28 202.9 23.7 199.8 23.7 C 196.8 23.7 196 28 196 32.9 C 196 37.9 196.8 42.1 199.8 42.1 C 202.9 42.1 203.7 37.9 203.7 32.9 Z M 227.7 47.4 C 227.7 47.4 227.7 44.64 227.7 44.6 C 226.4 46.9 223.7 48.1 221.6 48.1 C 217.1 48.1 213.8 44.4 213.8 38.5 C 213.8 32.6 217.1 29 221.6 29 C 223.7 29 226.5 30.1 227.7 32.3 C 227.7 32.3 227.7 28.7 227.7 28.7 C 227.7 25.4 226.4 23.5 223.3 23.5 C 221.4 23.5 219.4 24.4 217.4 26.3 C 217.4 26.3 214.9 21.5 214.9 21.5 C 217.6 18.7 221.7 17.7 224.7 17.7 C 230.6 17.7 234.5 20.7 234.5 27.2 C 234.48 27.18 234.5 47.4 234.5 47.4 L 227.7 47.4 Z M 227.7 40.6 C 227.7 40.6 227.7 36.7 227.7 36.7 C 227 34.9 225.5 33.7 224 33.7 C 221.7 33.7 220.6 35.8 220.6 38.6 C 220.6 41.3 221.7 43.6 224 43.6 C 225.5 43.6 227 42.4 227.7 40.6 Z M 238 44.3 C 238 44.3 240.8 39.7 240.8 39.7 C 242.3 41.4 244.5 42.8 246.8 42.8 C 248.9 42.8 250.4 41.6 250.4 39.7 C 250.4 34.9 239 36 239 25.9 C 239 21.5 242.3 17.7 248.2 17.7 C 251.5 17.7 254.6 19 256.7 21.1 C 256.7 21.1 254 25.7 254 25.7 C 252.8 24.3 250.7 23 248.4 23 C 246.5 23 245.3 24.2 245.3 25.7 C 245.3 30.1 256.9 29.3 256.9 39.5 C 256.9 44.6 252.9 48.1 247.4 48.1 C 243.1 48.1 239.9 46.6 238 44.3 Z M 261.7 40.7 C 261.66 40.74 261.7 24.3 261.7 24.3 L 259 24.3 L 259 18.4 L 261.7 18.4 L 261.7 10.5 L 268.4 10.5 L 268.4 18.4 L 272.1 18.4 L 272.1 24.3 L 268.4 24.3 C 268.4 24.3 268.44 39.42 268.4 39.4 C 268.4 41.2 268.9 42.1 270.1 42.1 C 270.7 42.1 271.3 41.8 271.7 41.3 C 271.7 41.3 273.1 46.6 273.1 46.6 C 272 47.5 270.4 48.1 268.3 48.1 C 263.6 48.1 261.7 45.7 261.7 40.7 Z " stroke="none" fill="#b13d24"/>  </g></svg>