<?xml version="1.0" standalone="no"?><!DOCTYPE svg PUBLIC "-//W3C//DTD SVG 1.1//EN" "http://www.w3.org/Graphics/SVG/1.1/DTD/svg11.dtd"><svg xmlns="http://www.w3.org/2000/svg" version="1.1" width="151px" height="44.3px" viewBox="0 0 151 44.3">  <desc>disclaimer</desc>  <defs/>  <g id="Polygon118212">    <path d="M 12.3 23.7 L 12.3 7.2 C 12.3 7.2 18.02 7.2 18 7.2 C 22.8 7.2 25.5 10.6 25.5 15.5 C 25.5 20.3 22.9 23.7 18 23.7 C 18.05 23.7 12.3 23.7 12.3 23.7 Z M 21.7 15.5 C 21.7 12.4 20.5 10.4 18 10.4 C 18.02 10.44 16 10.4 16 10.4 L 16 20.5 C 16 20.5 18.02 20.46 18 20.5 C 20.5 20.5 21.7 18.4 21.7 15.5 Z M 28.1 23.7 L 28.1 7.2 L 31.8 7.2 L 31.8 23.7 L 28.1 23.7 Z M 33.9 22 C 33.9 22 35.5 19.1 35.5 19.1 C 36.5 20.1 38.1 20.9 39.7 20.9 C 41.2 20.9 42 20.2 42 19.1 C 42 16.4 34.5 17.3 34.5 11.7 C 34.5 9 36.7 6.8 40.2 6.8 C 42.4 6.8 44.2 7.5 45.6 8.7 C 45.6 8.7 44 11.4 44 11.4 C 43 10.5 41.6 10 40.3 10 C 39.1 10 38.3 10.6 38.3 11.6 C 38.3 14 45.9 13.3 45.9 19 C 45.9 22 43.6 24.1 39.8 24.1 C 37.3 24.1 35.3 23.2 33.9 22 Z M 47.4 15.4 C 47.4 10.4 50.1 6.8 54.7 6.8 C 57.9 6.8 59.6 8.9 60.5 11 C 60.5 11 57.5 12.3 57.5 12.3 C 56.9 11 56 10.1 54.7 10.1 C 52.5 10.1 51.2 12.4 51.2 15.4 C 51.2 18.5 52.5 20.8 54.7 20.8 C 56 20.8 57 19.9 57.5 18.6 C 57.5 18.6 60.5 19.8 60.5 19.8 C 59.6 22 57.9 24.1 54.7 24.1 C 50.1 24.1 47.4 20.4 47.4 15.4 Z M 62.7 23.7 L 62.7 7.2 L 66.4 7.2 L 66.4 20.5 L 72.2 20.5 L 72.2 23.7 L 62.7 23.7 Z M 82.4 7.2 L 87.5 23.7 L 83.5 23.7 L 82.7 20.8 L 77.7 20.8 L 76.9 23.7 L 72.8 23.7 L 78 7.2 L 82.4 7.2 Z M 80.2 11.2 L 78.4 17.6 L 81.9 17.6 L 80.2 11.2 Z M 89.1 23.7 L 89.1 7.2 L 92.8 7.2 L 92.8 23.7 L 89.1 23.7 Z M 108.5 23.7 L 108.5 13.7 L 105 23.7 L 103.4 23.7 L 99.8 13.7 L 99.8 23.7 L 96 23.7 L 96 7.2 L 100.9 7.2 L 104.1 16.3 L 107.5 7.2 L 112.2 7.2 L 112.2 23.7 L 108.5 23.7 Z M 115.5 23.7 L 115.5 7.2 L 125.6 7.2 L 125.6 10.4 L 119.2 10.4 L 119.2 13.7 L 125.4 13.7 L 125.4 16.9 L 119.2 16.9 L 119.2 20.5 L 125.6 20.5 L 125.6 23.7 L 115.5 23.7 Z M 136.3 23.7 L 133.8 17.9 L 132.1 17.9 L 132.1 23.7 L 128.3 23.7 L 128.3 7.2 C 128.3 7.2 134.92 7.2 134.9 7.2 C 138.3 7.2 140.2 9.6 140.2 12.5 C 140.2 15.4 138.7 16.9 137.3 17.3 C 137.26 17.34 140.4 23.7 140.4 23.7 L 136.3 23.7 Z M 136.5 12.6 C 136.5 11.3 135.7 10.4 134.5 10.4 C 134.47 10.44 132.1 10.4 132.1 10.4 L 132.1 14.7 C 132.1 14.7 134.47 14.67 134.5 14.7 C 135.8 14.7 136.5 13.8 136.5 12.6 Z " stroke="none" fill="#e9e8e8"/>  </g></svg>