<?xml version="1.0" standalone="no"?><!DOCTYPE svg PUBLIC "-//W3C//DTD SVG 1.1//EN" "http://www.w3.org/Graphics/SVG/1.1/DTD/svg11.dtd"><svg xmlns="http://www.w3.org/2000/svg" version="1.1" width="658px" height="197.6px" viewBox="0 0 658 197.6">  <desc>Seared Talcum Paste on Chopped Fruit Netting with Assorted Sauces</desc>  <defs/>  <g id="Polygon183769">    <path d="M 22.4 159.4 L 18.2 139.7 L 14.1 159.4 L 7 159.4 L 0.3 130.4 L 7.3 130.4 L 11 150.2 L 14.8 130.4 L 21.3 130.4 L 25.4 150.2 L 29.1 130.4 L 36.2 130.4 L 29.5 159.4 L 22.4 159.4 Z M 38.5 122.9 C 38.5 120.6 40.4 118.8 42.6 118.8 C 44.9 118.8 46.7 120.6 46.7 122.9 C 46.7 125.2 44.9 127 42.6 127 C 40.4 127 38.5 125.2 38.5 122.9 Z M 39.2 159.4 L 39.2 130.4 L 46 130.4 L 46 159.4 L 39.2 159.4 Z M 52.4 152.7 C 52.38 152.74 52.4 136.3 52.4 136.3 L 49.7 136.3 L 49.7 130.4 L 52.4 130.4 L 52.4 122.5 L 59.2 122.5 L 59.2 130.4 L 62.8 130.4 L 62.8 136.3 L 59.2 136.3 C 59.2 136.3 59.16 151.42 59.2 151.4 C 59.2 153.2 59.6 154.1 60.8 154.1 C 61.4 154.1 62 153.8 62.4 153.3 C 62.4 153.3 63.8 158.6 63.8 158.6 C 62.8 159.5 61.1 160.1 59 160.1 C 54.3 160.1 52.4 157.7 52.4 152.7 Z M 79.9 159.4 C 79.9 159.4 79.86 138.64 79.9 138.6 C 79.9 136.7 79.1 135.7 77.6 135.7 C 75.9 135.7 74.4 137.6 73.7 139.5 C 73.74 139.48 73.7 159.4 73.7 159.4 L 67 159.4 L 67 119.4 L 73.7 119.4 C 73.7 119.4 73.74 134.2 73.7 134.2 C 74.9 131.9 77.9 129.7 80.5 129.7 C 84.9 129.7 86.7 132.1 86.7 136.2 C 86.7 136.24 86.7 159.4 86.7 159.4 L 79.9 159.4 Z M 116.8 159.4 L 115.6 152 L 108.2 152 L 107 159.4 L 99.2 159.4 L 107.5 119.4 L 116.2 119.4 L 124.6 159.4 L 116.8 159.4 Z M 111.9 127.8 L 109 145.4 L 114.8 145.4 L 111.9 127.8 Z M 125.3 156.3 C 125.3 156.3 128.2 151.7 128.2 151.7 C 129.7 153.4 131.9 154.8 134.2 154.8 C 136.3 154.8 137.8 153.6 137.8 151.7 C 137.8 146.9 126.4 148 126.4 137.9 C 126.4 133.5 129.7 129.7 135.6 129.7 C 138.9 129.7 142 131 144.1 133.1 C 144.1 133.1 141.4 137.7 141.4 137.7 C 140.2 136.3 138.1 135 135.8 135 C 133.9 135 132.7 136.2 132.7 137.7 C 132.7 142.1 144.2 141.3 144.2 151.5 C 144.2 156.6 140.3 160.1 134.8 160.1 C 130.4 160.1 127.3 158.6 125.3 156.3 Z M 146.1 156.3 C 146.1 156.3 148.9 151.7 148.9 151.7 C 150.5 153.4 152.6 154.8 154.9 154.8 C 157.1 154.8 158.6 153.6 158.6 151.7 C 158.6 146.9 147.1 148 147.1 137.9 C 147.1 133.5 150.4 129.7 156.4 129.7 C 159.7 129.7 162.7 131 164.9 133.1 C 164.9 133.1 162.1 137.7 162.1 137.7 C 161 136.3 158.9 135 156.5 135 C 154.7 135 153.4 136.2 153.4 137.7 C 153.4 142.1 165 141.3 165 151.5 C 165 156.6 161 160.1 155.5 160.1 C 151.2 160.1 148 158.6 146.1 156.3 Z M 167.8 144.9 C 167.8 136.8 171.1 129.7 178.6 129.7 C 186.2 129.7 189.5 136.8 189.5 144.9 C 189.5 152.9 186.2 160.1 178.6 160.1 C 171.1 160.1 167.8 152.9 167.8 144.9 Z M 182.5 144.9 C 182.5 140 181.7 135.7 178.6 135.7 C 175.6 135.7 174.8 140 174.8 144.9 C 174.8 149.9 175.6 154.1 178.6 154.1 C 181.7 154.1 182.5 149.9 182.5 144.9 Z M 193.9 159.4 L 193.9 130.4 L 200.7 130.4 C 200.7 130.4 200.7 134.44 200.7 134.4 C 201.8 131.8 204.7 129.7 207.2 129.7 C 207.2 129.7 207.2 136.4 207.2 136.4 C 206.8 136.2 206.3 136.2 205.9 136.2 C 203.9 136.2 201.8 137.8 200.7 139.9 C 200.7 139.9 200.7 159.4 200.7 159.4 L 193.9 159.4 Z M 211.6 152.7 C 211.62 152.74 211.6 136.3 211.6 136.3 L 208.9 136.3 L 208.9 130.4 L 211.6 130.4 L 211.6 122.5 L 218.4 122.5 L 218.4 130.4 L 222.1 130.4 L 222.1 136.3 L 218.4 136.3 C 218.4 136.3 218.4 151.42 218.4 151.4 C 218.4 153.2 218.8 154.1 220 154.1 C 220.7 154.1 221.3 153.8 221.6 153.3 C 221.6 153.3 223 158.6 223 158.6 C 222 159.5 220.4 160.1 218.3 160.1 C 213.5 160.1 211.6 157.7 211.6 152.7 Z M 225.1 144.9 C 225.1 136.5 228.7 129.7 235.9 129.7 C 243.2 129.7 246.3 136.2 246.3 144.8 C 246.3 144.76 246.3 147.1 246.3 147.1 C 246.3 147.1 231.6 147.1 231.6 147.1 C 231.7 151.4 233.5 154.6 237.3 154.6 C 238.9 154.6 240.8 153.5 242.1 151.7 C 242.1 151.7 245.4 155.5 245.4 155.5 C 243.1 158.4 239.9 160.1 236.6 160.1 C 229 160.1 225.1 153.8 225.1 144.9 Z M 235.7 135.2 C 232.4 135.2 231.6 139.3 231.6 142.4 C 231.6 142.4 239.8 142.4 239.8 142.4 C 239.8 139.1 239 135.2 235.7 135.2 Z M 263.5 159.4 C 263.5 159.4 263.52 155.8 263.5 155.8 C 262.3 158.7 259.9 160.1 257.9 160.1 C 252.2 160.1 249.3 154.2 249.3 144.9 C 249.3 135.8 252.2 129.7 257.9 129.7 C 259.9 129.7 262.3 131 263.5 134 C 263.52 134.02 263.5 119.4 263.5 119.4 L 270.3 119.4 L 270.3 159.4 L 263.5 159.4 Z M 263.5 150.6 C 263.5 150.6 263.5 139.2 263.5 139.2 C 262.9 137.3 261.5 135.7 260.1 135.7 C 257.1 135.7 256.3 139.8 256.3 144.9 C 256.3 150 257.1 154.1 260.1 154.1 C 261.5 154.1 262.9 152.6 263.5 150.6 Z M 283.6 156.2 C 283.6 156.2 286.9 150.2 286.9 150.2 C 288.5 152.3 291.1 153.4 293.4 153.4 C 295.8 153.4 297.4 151.6 297.4 149 C 297.4 141.9 284.7 141.9 284.7 129.9 C 284.7 123.9 288.8 118.7 295.9 118.7 C 299.2 118.7 302.3 119.9 304.6 122 C 304.6 122 301.6 127.8 301.6 127.8 C 300.1 126.2 298.2 125.4 296.1 125.4 C 293.9 125.4 292.4 127.1 292.4 129.5 C 292.4 135.7 305.1 136.5 305.1 148.5 C 305.1 155.3 300.7 160.1 293.9 160.1 C 289.5 160.1 286.1 158.7 283.6 156.2 Z M 322 159.4 C 322 159.4 321.95 156.64 322 156.6 C 320.7 158.9 318 160.1 315.9 160.1 C 311.3 160.1 308 156.4 308 150.5 C 308 144.6 311.3 141 315.9 141 C 318 141 320.8 142.1 322 144.3 C 322 144.3 322 140.7 322 140.7 C 322 137.4 320.6 135.5 317.6 135.5 C 315.7 135.5 313.6 136.4 311.7 138.3 C 311.7 138.3 309.2 133.5 309.2 133.5 C 311.8 130.7 316 129.7 319 129.7 C 324.9 129.7 328.7 132.7 328.7 139.2 C 328.73 139.18 328.7 159.4 328.7 159.4 L 322 159.4 Z M 322 152.6 C 322 152.6 322 148.7 322 148.7 C 321.2 146.9 319.8 145.7 318.3 145.7 C 316 145.7 314.8 147.8 314.8 150.6 C 314.8 153.3 316 155.6 318.3 155.6 C 319.8 155.6 321.2 154.4 322 152.6 Z M 347.2 159.4 C 347.2 159.4 347.15 155.74 347.2 155.7 C 346 158.1 343.2 160.1 340.4 160.1 C 336 160.1 334.3 157.7 334.3 153.6 C 334.25 153.58 334.3 130.4 334.3 130.4 L 341 130.4 C 341 130.4 341.03 151.18 341 151.2 C 341 153.2 341.8 154.1 343.3 154.1 C 345 154.1 346.5 152.3 347.2 150.5 C 347.15 150.46 347.2 130.4 347.2 130.4 L 354 130.4 L 354 159.4 L 347.2 159.4 Z M 358.3 144.9 C 358.3 136.1 362.4 129.7 369.4 129.7 C 372.6 129.7 375 130.9 376.4 132.3 C 376.4 132.3 374.2 137.6 374.2 137.6 C 373 136.3 371.9 135.7 370.6 135.7 C 367 135.7 365.3 139.8 365.3 144.9 C 365.3 149.9 367 154.1 370.6 154.1 C 371.9 154.1 373 153.5 374.2 152.3 C 374.2 152.3 376.4 157.5 376.4 157.5 C 375 159 372.6 160.1 369.4 160.1 C 362.4 160.1 358.3 153.7 358.3 144.9 Z M 379 144.9 C 379 136.5 382.6 129.7 389.8 129.7 C 397.1 129.7 400.2 136.2 400.2 144.8 C 400.19 144.76 400.2 147.1 400.2 147.1 C 400.2 147.1 385.49 147.1 385.5 147.1 C 385.6 151.4 387.4 154.6 391.2 154.6 C 392.8 154.6 394.7 153.5 396 151.7 C 396 151.7 399.3 155.5 399.3 155.5 C 397 158.4 393.8 160.1 390.5 160.1 C 382.9 160.1 379 153.8 379 144.9 Z M 389.6 135.2 C 386.3 135.2 385.5 139.3 385.5 142.4 C 385.5 142.4 393.7 142.4 393.7 142.4 C 393.7 139.1 392.9 135.2 389.6 135.2 Z M 402.3 156.3 C 402.3 156.3 405.1 151.7 405.1 151.7 C 406.7 153.4 408.8 154.8 411.1 154.8 C 413.3 154.8 414.8 153.6 414.8 151.7 C 414.8 146.9 403.3 148 403.3 137.9 C 403.3 133.5 406.6 129.7 412.6 129.7 C 415.9 129.7 418.9 131 421.1 133.1 C 421.1 133.1 418.3 137.7 418.3 137.7 C 417.2 136.3 415.1 135 412.7 135 C 410.9 135 409.6 136.2 409.6 137.7 C 409.6 142.1 421.2 141.3 421.2 151.5 C 421.2 156.6 417.2 160.1 411.7 160.1 C 407.4 160.1 404.2 158.6 402.3 156.3 Z " stroke="none" fill="#e9e8e8"/>  </g>  <g id="Polygon183768">    <path d="M 1.9 83.4 C 1.9 71.5 5.6 62.7 14.4 62.7 C 20.9 62.7 23.2 67.9 24.4 72.1 C 24.4 72.1 18.4 74.4 18.4 74.4 C 17.6 71.3 16.6 69.4 14.4 69.4 C 10.8 69.4 9.6 75.3 9.6 83.4 C 9.6 91.6 10.8 97.4 14.4 97.4 C 16.9 97.4 17.9 94.9 18.5 91.6 C 18.5 91.6 24.5 93.8 24.5 93.8 C 23.4 98.4 21.1 104.1 14.4 104.1 C 5.6 104.1 1.9 95.3 1.9 83.4 Z M 41.4 103.4 C 41.4 103.4 41.4 82.64 41.4 82.6 C 41.4 80.7 40.7 79.7 39.2 79.7 C 37.4 79.7 35.9 81.6 35.3 83.5 C 35.28 83.48 35.3 103.4 35.3 103.4 L 28.5 103.4 L 28.5 63.4 L 35.3 63.4 C 35.3 63.4 35.28 78.2 35.3 78.2 C 36.4 75.9 39.4 73.7 42.1 73.7 C 46.4 73.7 48.2 76.1 48.2 80.2 C 48.24 80.24 48.2 103.4 48.2 103.4 L 41.4 103.4 Z M 52.6 88.9 C 52.6 80.8 55.9 73.7 63.4 73.7 C 71 73.7 74.3 80.8 74.3 88.9 C 74.3 96.9 71 104.1 63.4 104.1 C 55.9 104.1 52.6 96.9 52.6 88.9 Z M 67.3 88.9 C 67.3 84 66.5 79.7 63.4 79.7 C 60.4 79.7 59.6 84 59.6 88.9 C 59.6 93.9 60.4 98.1 63.4 98.1 C 66.5 98.1 67.3 93.9 67.3 88.9 Z M 85.5 99.8 C 85.5 99.8 85.5 114.4 85.5 114.4 L 78.7 114.4 L 78.7 74.4 L 85.5 74.4 C 85.5 74.4 85.5 78.02 85.5 78 C 86.8 75.1 89.1 73.7 91.1 73.7 C 96.8 73.7 99.7 79.6 99.7 88.9 C 99.7 98 96.8 104.1 91.1 104.1 C 89.1 104.1 86.7 102.8 85.5 99.8 Z M 92.8 88.9 C 92.8 83.8 91.9 79.7 88.9 79.7 C 87.5 79.7 86.1 81.1 85.5 83.1 C 85.5 83.1 85.5 94.6 85.5 94.6 C 86.1 96.6 87.5 98.1 88.9 98.1 C 91.9 98.1 92.8 94 92.8 88.9 Z M 110.9 99.8 C 110.88 99.8 110.9 114.4 110.9 114.4 L 104.1 114.4 L 104.1 74.4 L 110.9 74.4 C 110.9 74.4 110.88 78.02 110.9 78 C 112.1 75.1 114.5 73.7 116.5 73.7 C 122.2 73.7 125.1 79.6 125.1 88.9 C 125.1 98 122.2 104.1 116.5 104.1 C 114.5 104.1 112.1 102.8 110.9 99.8 Z M 118.1 88.9 C 118.1 83.8 117.3 79.7 114.3 79.7 C 112.9 79.7 111.5 81.1 110.9 83.1 C 110.9 83.1 110.9 94.6 110.9 94.6 C 111.5 96.6 112.9 98.1 114.3 98.1 C 117.3 98.1 118.1 94 118.1 88.9 Z M 128.3 88.9 C 128.3 80.5 131.9 73.7 139.2 73.7 C 146.5 73.7 149.6 80.2 149.6 88.8 C 149.58 88.76 149.6 91.1 149.6 91.1 C 149.6 91.1 134.88 91.1 134.9 91.1 C 134.9 95.4 136.7 98.6 140.6 98.6 C 142.2 98.6 144.1 97.5 145.4 95.7 C 145.4 95.7 148.7 99.5 148.7 99.5 C 146.4 102.4 143.2 104.1 139.9 104.1 C 132.3 104.1 128.3 97.8 128.3 88.9 Z M 139 79.2 C 135.7 79.2 134.9 83.3 134.9 86.4 C 134.9 86.4 143 86.4 143 86.4 C 143 83.1 142.3 79.2 139 79.2 Z M 166.8 103.4 C 166.8 103.4 166.8 99.8 166.8 99.8 C 165.5 102.7 163.2 104.1 161.2 104.1 C 155.5 104.1 152.6 98.2 152.6 88.9 C 152.6 79.8 155.5 73.7 161.2 73.7 C 163.2 73.7 165.6 75 166.8 78 C 166.8 78.02 166.8 63.4 166.8 63.4 L 173.6 63.4 L 173.6 103.4 L 166.8 103.4 Z M 166.8 94.6 C 166.8 94.6 166.8 83.2 166.8 83.2 C 166.2 81.3 164.8 79.7 163.4 79.7 C 160.4 79.7 159.5 83.8 159.5 88.9 C 159.5 94 160.4 98.1 163.4 98.1 C 164.8 98.1 166.2 96.6 166.8 94.6 Z M 189.2 103.4 L 189.2 63.4 L 206.8 63.4 L 206.8 70 L 196.8 70 L 196.8 79.7 L 206.3 79.7 L 206.3 86.4 L 196.8 86.4 L 196.8 103.4 L 189.2 103.4 Z M 211.4 103.4 L 211.4 74.4 L 218.2 74.4 C 218.2 74.4 218.22 78.44 218.2 78.4 C 219.4 75.8 222.2 73.7 224.7 73.7 C 224.7 73.7 224.7 80.4 224.7 80.4 C 224.3 80.2 223.8 80.2 223.4 80.2 C 221.4 80.2 219.4 81.8 218.2 83.9 C 218.22 83.9 218.2 103.4 218.2 103.4 L 211.4 103.4 Z M 241.1 103.4 C 241.1 103.4 241.14 99.74 241.1 99.7 C 240 102.1 237.2 104.1 234.4 104.1 C 230 104.1 228.2 101.7 228.2 97.6 C 228.24 97.58 228.2 74.4 228.2 74.4 L 235 74.4 C 235 74.4 235.02 95.18 235 95.2 C 235 97.2 235.7 98.1 237.2 98.1 C 239 98.1 240.5 96.3 241.1 94.5 C 241.14 94.46 241.1 74.4 241.1 74.4 L 248 74.4 L 248 103.4 L 241.1 103.4 Z M 252.7 66.9 C 252.7 64.6 254.6 62.8 256.8 62.8 C 259.1 62.8 260.9 64.6 260.9 66.9 C 260.9 69.2 259.1 71 256.8 71 C 254.6 71 252.7 69.2 252.7 66.9 Z M 253.4 103.4 L 253.4 74.4 L 260.2 74.4 L 260.2 103.4 L 253.4 103.4 Z M 266.6 96.7 C 266.57 96.74 266.6 80.3 266.6 80.3 L 263.9 80.3 L 263.9 74.4 L 266.6 74.4 L 266.6 66.5 L 273.4 66.5 L 273.4 74.4 L 277 74.4 L 277 80.3 L 273.4 80.3 C 273.4 80.3 273.35 95.42 273.4 95.4 C 273.4 97.2 273.8 98.1 275 98.1 C 275.6 98.1 276.2 97.8 276.6 97.3 C 276.6 97.3 278 102.6 278 102.6 C 277 103.5 275.3 104.1 273.2 104.1 C 268.5 104.1 266.6 101.7 266.6 96.7 Z M 307 103.4 L 298.9 82.2 L 298.9 103.4 L 291.3 103.4 L 291.3 63.4 L 298.9 63.4 L 306.5 83.8 L 306.5 63.4 L 314.1 63.4 L 314.1 103.4 L 307 103.4 Z M 318.8 88.9 C 318.8 80.5 322.4 73.7 329.7 73.7 C 337 73.7 340.1 80.2 340.1 88.8 C 340.07 88.76 340.1 91.1 340.1 91.1 C 340.1 91.1 325.37 91.1 325.4 91.1 C 325.4 95.4 327.2 98.6 331.1 98.6 C 332.7 98.6 334.6 97.5 335.9 95.7 C 335.9 95.7 339.2 99.5 339.2 99.5 C 336.9 102.4 333.7 104.1 330.4 104.1 C 322.8 104.1 318.8 97.8 318.8 88.9 Z M 329.5 79.2 C 326.2 79.2 325.4 83.3 325.4 86.4 C 325.4 86.4 333.5 86.4 333.5 86.4 C 333.5 83.1 332.8 79.2 329.5 79.2 Z M 345.1 96.7 C 345.11 96.74 345.1 80.3 345.1 80.3 L 342.4 80.3 L 342.4 74.4 L 345.1 74.4 L 345.1 66.5 L 351.9 66.5 L 351.9 74.4 L 355.6 74.4 L 355.6 80.3 L 351.9 80.3 C 351.9 80.3 351.89 95.42 351.9 95.4 C 351.9 97.2 352.3 98.1 353.5 98.1 C 354.2 98.1 354.8 97.8 355.1 97.3 C 355.1 97.3 356.5 102.6 356.5 102.6 C 355.5 103.5 353.9 104.1 351.8 104.1 C 347 104.1 345.1 101.7 345.1 96.7 Z M 360.6 96.7 C 360.59 96.74 360.6 80.3 360.6 80.3 L 357.9 80.3 L 357.9 74.4 L 360.6 74.4 L 360.6 66.5 L 367.4 66.5 L 367.4 74.4 L 371 74.4 L 371 80.3 L 367.4 80.3 C 367.4 80.3 367.37 95.42 367.4 95.4 C 367.4 97.2 367.8 98.1 369 98.1 C 369.7 98.1 370.3 97.8 370.6 97.3 C 370.6 97.3 372 102.6 372 102.6 C 371 103.5 369.4 104.1 367.3 104.1 C 362.5 104.1 360.6 101.7 360.6 96.7 Z M 374.4 66.9 C 374.4 64.6 376.3 62.8 378.5 62.8 C 380.8 62.8 382.7 64.6 382.7 66.9 C 382.7 69.2 380.8 71 378.5 71 C 376.3 71 374.4 69.2 374.4 66.9 Z M 375.2 103.4 L 375.2 74.4 L 382 74.4 L 382 103.4 L 375.2 103.4 Z M 400.3 103.4 C 400.3 103.4 400.31 82.76 400.3 82.8 C 400.3 80.7 399.6 79.7 398.1 79.7 C 396.4 79.7 394.9 81.6 394.2 83.5 C 394.19 83.48 394.2 103.4 394.2 103.4 L 387.4 103.4 L 387.4 74.4 L 394.2 74.4 C 394.2 74.4 394.19 78.2 394.2 78.2 C 395.3 75.9 398.3 73.7 401 73.7 C 405.4 73.7 407.2 76.3 407.2 80.3 C 407.15 80.3 407.2 103.4 407.2 103.4 L 400.3 103.4 Z M 412.6 112 C 412.6 112 414.8 106.5 414.8 106.5 C 416.5 108.2 418.6 109.3 420.8 109.3 C 423.7 109.3 425.7 107.4 425.7 102.9 C 425.7 102.9 425.7 98.7 425.7 98.7 C 424.4 101.7 422.1 103.2 420.1 103.2 C 414.4 103.2 411.5 97.8 411.5 88.5 C 411.5 79.3 414.4 73.7 420.1 73.7 C 422.1 73.7 424.5 75 425.7 78 C 425.69 78.02 425.7 74.4 425.7 74.4 L 432.5 74.4 C 432.5 74.4 432.47 102.44 432.5 102.4 C 432.5 112.4 427.1 115.2 421.5 115.2 C 417.9 115.2 415 114.3 412.6 112 Z M 425.7 93.7 C 425.7 93.7 425.7 83.2 425.7 83.2 C 425.1 81.3 423.7 79.7 422.3 79.7 C 419.3 79.7 418.4 83.4 418.4 88.5 C 418.4 93.6 419.3 97.2 422.3 97.2 C 423.7 97.2 425.1 95.6 425.7 93.7 Z " stroke="none" fill="#e9e8e8"/>  </g>  <g id="Polygon183767">    <path d="M 0.7 44.2 C 0.7 44.2 4 38.2 4 38.2 C 5.6 40.3 8.2 41.4 10.6 41.4 C 13 41.4 14.6 39.6 14.6 37 C 14.6 29.9 1.9 29.9 1.9 17.9 C 1.9 11.9 5.9 6.7 13 6.7 C 16.4 6.7 19.5 7.9 21.7 10 C 21.7 10 18.8 15.8 18.8 15.8 C 17.2 14.2 15.4 13.4 13.3 13.4 C 11.1 13.4 9.5 15.1 9.5 17.5 C 9.5 23.7 22.3 24.5 22.3 36.5 C 22.3 43.3 17.9 48.1 11 48.1 C 6.7 48.1 3.3 46.7 0.7 44.2 Z M 25.4 32.9 C 25.4 24.5 29 17.7 36.2 17.7 C 43.6 17.7 46.6 24.2 46.6 32.8 C 46.62 32.76 46.6 35.1 46.6 35.1 C 46.6 35.1 31.92 35.1 31.9 35.1 C 32 39.4 33.8 42.6 37.6 42.6 C 39.2 42.6 41.1 41.5 42.4 39.7 C 42.4 39.7 45.7 43.5 45.7 43.5 C 43.4 46.4 40.2 48.1 36.9 48.1 C 29.3 48.1 25.4 41.8 25.4 32.9 Z M 36.1 23.2 C 32.8 23.2 31.9 27.3 31.9 30.4 C 31.9 30.4 40.1 30.4 40.1 30.4 C 40.1 27.1 39.4 23.2 36.1 23.2 Z M 63.4 47.4 C 63.4 47.4 63.36 44.64 63.4 44.6 C 62.1 46.9 59.4 48.1 57.3 48.1 C 52.7 48.1 49.4 44.4 49.4 38.5 C 49.4 32.6 52.7 29 57.3 29 C 59.4 29 62.2 30.1 63.4 32.3 C 63.4 32.3 63.4 28.7 63.4 28.7 C 63.4 25.4 62 23.5 59 23.5 C 57.1 23.5 55 24.4 53.1 26.3 C 53.1 26.3 50.6 21.5 50.6 21.5 C 53.2 18.7 57.4 17.7 60.4 17.7 C 66.3 17.7 70.1 20.7 70.1 27.2 C 70.14 27.18 70.1 47.4 70.1 47.4 L 63.4 47.4 Z M 63.4 40.6 C 63.4 40.6 63.4 36.7 63.4 36.7 C 62.6 34.9 61.2 33.7 59.7 33.7 C 57.4 33.7 56.2 35.8 56.2 38.6 C 56.2 41.3 57.4 43.6 59.7 43.6 C 61.2 43.6 62.6 42.4 63.4 40.6 Z M 75.7 47.4 L 75.7 18.4 L 82.4 18.4 C 82.4 18.4 82.44 22.44 82.4 22.4 C 83.6 19.8 86.4 17.7 88.9 17.7 C 88.9 17.7 88.9 24.4 88.9 24.4 C 88.5 24.2 88 24.2 87.6 24.2 C 85.6 24.2 83.6 25.8 82.4 27.9 C 82.44 27.9 82.4 47.4 82.4 47.4 L 75.7 47.4 Z M 91.3 32.9 C 91.3 24.5 94.9 17.7 102.2 17.7 C 109.5 17.7 112.6 24.2 112.6 32.8 C 112.56 32.76 112.6 35.1 112.6 35.1 C 112.6 35.1 97.86 35.1 97.9 35.1 C 97.9 39.4 99.7 42.6 103.6 42.6 C 105.2 42.6 107 41.5 108.4 39.7 C 108.4 39.7 111.7 43.5 111.7 43.5 C 109.4 46.4 106.1 48.1 102.8 48.1 C 95.3 48.1 91.3 41.8 91.3 32.9 Z M 102 23.2 C 98.7 23.2 97.9 27.3 97.9 30.4 C 97.9 30.4 106 30.4 106 30.4 C 106 27.1 105.3 23.2 102 23.2 Z M 129.8 47.4 C 129.8 47.4 129.78 43.8 129.8 43.8 C 128.5 46.7 126.2 48.1 124.1 48.1 C 118.4 48.1 115.6 42.2 115.6 32.9 C 115.6 23.8 118.4 17.7 124.1 17.7 C 126.2 17.7 128.6 19 129.8 22 C 129.78 22.02 129.8 7.4 129.8 7.4 L 136.6 7.4 L 136.6 47.4 L 129.8 47.4 Z M 129.8 38.6 C 129.8 38.6 129.8 27.2 129.8 27.2 C 129.2 25.3 127.8 23.7 126.4 23.7 C 123.4 23.7 122.5 27.8 122.5 32.9 C 122.5 38 123.4 42.1 126.4 42.1 C 127.8 42.1 129.2 40.6 129.8 38.6 Z M 156.2 47.4 L 156.2 14 L 150.2 14 L 150.2 7.4 L 169.9 7.4 L 169.9 14 L 163.8 14 L 163.8 47.4 L 156.2 47.4 Z M 183.5 47.4 C 183.5 47.4 183.54 44.64 183.5 44.6 C 182.3 46.9 179.6 48.1 177.5 48.1 C 172.9 48.1 169.6 44.4 169.6 38.5 C 169.6 32.6 172.9 29 177.5 29 C 179.6 29 182.3 30.1 183.5 32.3 C 183.5 32.3 183.5 28.7 183.5 28.7 C 183.5 25.4 182.2 23.5 179.2 23.5 C 177.2 23.5 175.2 24.4 173.3 26.3 C 173.3 26.3 170.8 21.5 170.8 21.5 C 173.4 18.7 177.5 17.7 180.5 17.7 C 186.5 17.7 190.3 20.7 190.3 27.2 C 190.32 27.18 190.3 47.4 190.3 47.4 L 183.5 47.4 Z M 183.5 40.6 C 183.5 40.6 183.5 36.7 183.5 36.7 C 182.8 34.9 181.4 33.7 179.9 33.7 C 177.5 33.7 176.4 35.8 176.4 38.6 C 176.4 41.3 177.5 43.6 179.9 43.6 C 181.4 43.6 182.8 42.4 183.5 40.6 Z M 195.8 47.4 L 195.8 7.4 L 202.6 7.4 L 202.6 47.4 L 195.8 47.4 Z M 206.9 32.9 C 206.9 24.1 211 17.7 218 17.7 C 221.2 17.7 223.6 18.9 225 20.3 C 225 20.3 222.8 25.6 222.8 25.6 C 221.6 24.3 220.6 23.7 219.2 23.7 C 215.6 23.7 213.9 27.8 213.9 32.9 C 213.9 37.9 215.6 42.1 219.2 42.1 C 220.6 42.1 221.6 41.5 222.8 40.3 C 222.8 40.3 225 45.5 225 45.5 C 223.6 47 221.2 48.1 218 48.1 C 211 48.1 206.9 41.7 206.9 32.9 Z M 241.6 47.4 C 241.6 47.4 241.62 43.74 241.6 43.7 C 240.5 46.1 237.7 48.1 234.8 48.1 C 230.5 48.1 228.7 45.7 228.7 41.6 C 228.72 41.58 228.7 18.4 228.7 18.4 L 235.5 18.4 C 235.5 18.4 235.5 39.18 235.5 39.2 C 235.5 41.2 236.2 42.1 237.7 42.1 C 239.5 42.1 241 40.3 241.6 38.5 C 241.62 38.46 241.6 18.4 241.6 18.4 L 248.5 18.4 L 248.5 47.4 L 241.6 47.4 Z M 279.8 47.4 C 279.8 47.4 279.78 26.76 279.8 26.8 C 279.8 24.6 279 23.7 277.6 23.7 C 275.7 23.7 274.3 25.7 273.7 27.5 C 273.66 27.48 273.7 47.4 273.7 47.4 L 266.8 47.4 C 266.8 47.4 266.82 26.76 266.8 26.8 C 266.8 24.8 266.2 23.7 264.6 23.7 C 262.8 23.7 261.3 25.7 260.7 27.5 C 260.7 27.48 260.7 47.4 260.7 47.4 L 253.9 47.4 L 253.9 18.4 L 260.7 18.4 C 260.7 18.4 260.7 22.2 260.7 22.2 C 261.7 20 264.7 17.7 267.5 17.7 C 270.5 17.7 272.9 19.2 273.4 22.5 C 274.5 20.1 277.6 17.7 280.4 17.7 C 284 17.7 286.6 19.6 286.6 24.3 C 286.56 24.3 286.6 47.4 286.6 47.4 L 279.8 47.4 Z M 302.2 47.4 L 302.2 7.4 C 302.2 7.4 313.02 7.38 313 7.4 C 320.8 7.4 324.3 13.3 324.3 20 C 324.3 26.8 320.8 32.7 313 32.7 C 313.02 32.7 309.8 32.7 309.8 32.7 L 309.8 47.4 L 302.2 47.4 Z M 316.6 20 C 316.6 16.4 315.1 14 312.2 14 C 312.24 14.04 309.8 14 309.8 14 L 309.8 26 C 309.8 26 312.24 26.04 312.2 26 C 315.1 26 316.6 23.6 316.6 20 Z M 340 47.4 C 340 47.4 340.02 44.64 340 44.6 C 338.8 46.9 336.1 48.1 334 48.1 C 329.4 48.1 326.1 44.4 326.1 38.5 C 326.1 32.6 329.4 29 334 29 C 336.1 29 338.8 30.1 340 32.3 C 340 32.3 340 28.7 340 28.7 C 340 25.4 338.7 23.5 335.6 23.5 C 333.7 23.5 331.7 24.4 329.8 26.3 C 329.8 26.3 327.2 21.5 327.2 21.5 C 329.9 18.7 334 17.7 337 17.7 C 343 17.7 346.8 20.7 346.8 27.2 C 346.8 27.18 346.8 47.4 346.8 47.4 L 340 47.4 Z M 340 40.6 C 340 40.6 340 36.7 340 36.7 C 339.3 34.9 337.9 33.7 336.4 33.7 C 334 33.7 332.9 35.8 332.9 38.6 C 332.9 41.3 334 43.6 336.4 43.6 C 337.9 43.6 339.3 42.4 340 40.6 Z M 350.3 44.3 C 350.3 44.3 353.1 39.7 353.1 39.7 C 354.7 41.4 356.8 42.8 359.1 42.8 C 361.3 42.8 362.8 41.6 362.8 39.7 C 362.8 34.9 351.3 36 351.3 25.9 C 351.3 21.5 354.6 17.7 360.5 17.7 C 363.8 17.7 366.9 19 369.1 21.1 C 369.1 21.1 366.3 25.7 366.3 25.7 C 365.2 24.3 363.1 23 360.7 23 C 358.9 23 357.6 24.2 357.6 25.7 C 357.6 30.1 369.2 29.3 369.2 39.5 C 369.2 44.6 365.2 48.1 359.7 48.1 C 355.4 48.1 352.2 46.6 350.3 44.3 Z M 374 40.7 C 373.97 40.74 374 24.3 374 24.3 L 371.3 24.3 L 371.3 18.4 L 374 18.4 L 374 10.5 L 380.8 10.5 L 380.8 18.4 L 384.4 18.4 L 384.4 24.3 L 380.8 24.3 C 380.8 24.3 380.75 39.42 380.8 39.4 C 380.8 41.2 381.2 42.1 382.4 42.1 C 383 42.1 383.6 41.8 384 41.3 C 384 41.3 385.4 46.6 385.4 46.6 C 384.4 47.5 382.7 48.1 380.6 48.1 C 375.9 48.1 374 45.7 374 40.7 Z M 387.4 32.9 C 387.4 24.5 391 17.7 398.3 17.7 C 405.6 17.7 408.7 24.2 408.7 32.8 C 408.65 32.76 408.7 35.1 408.7 35.1 C 408.7 35.1 393.95 35.1 394 35.1 C 394 39.4 395.8 42.6 399.7 42.6 C 401.3 42.6 403.1 41.5 404.5 39.7 C 404.5 39.7 407.8 43.5 407.8 43.5 C 405.5 46.4 402.2 48.1 398.9 48.1 C 391.4 48.1 387.4 41.8 387.4 32.9 Z M 398.1 23.2 C 394.8 23.2 394 27.3 394 30.4 C 394 30.4 402.1 30.4 402.1 30.4 C 402.1 27.1 401.4 23.2 398.1 23.2 Z M 421.4 32.9 C 421.4 24.8 424.7 17.7 432.3 17.7 C 439.9 17.7 443.2 24.8 443.2 32.9 C 443.2 40.9 439.9 48.1 432.3 48.1 C 424.7 48.1 421.4 40.9 421.4 32.9 Z M 436.2 32.9 C 436.2 28 435.4 23.7 432.3 23.7 C 429.3 23.7 428.5 28 428.5 32.9 C 428.5 37.9 429.3 42.1 432.3 42.1 C 435.4 42.1 436.2 37.9 436.2 32.9 Z M 460.5 47.4 C 460.5 47.4 460.49 26.76 460.5 26.8 C 460.5 24.7 459.8 23.7 458.3 23.7 C 456.5 23.7 455 25.6 454.4 27.5 C 454.37 27.48 454.4 47.4 454.4 47.4 L 447.6 47.4 L 447.6 18.4 L 454.4 18.4 C 454.4 18.4 454.37 22.2 454.4 22.2 C 455.5 19.9 458.5 17.7 461.2 17.7 C 465.5 17.7 467.3 20.3 467.3 24.3 C 467.33 24.3 467.3 47.4 467.3 47.4 L 460.5 47.4 Z " stroke="none" fill="#e9e8e8"/>  </g></svg>