<?xml version="1.0" standalone="no"?><!DOCTYPE svg PUBLIC "-//W3C//DTD SVG 1.1//EN" "http://www.w3.org/Graphics/SVG/1.1/DTD/svg11.dtd"><svg xmlns="http://www.w3.org/2000/svg" version="1.1" width="651px" height="85.6px" viewBox="0 0 651 85.6">  <desc>Julienned Foam</desc>  <defs/>  <g id="Polygon169221">    <path d="M 0.5 46 C 0.5 46 2.5 39.8 2.5 39.8 C 3.5 40.9 4.9 41.4 6.2 41.4 C 8.6 41.4 10.3 40.1 10.3 37 C 10.32 37.02 10.3 7.4 10.3 7.4 L 17.9 7.4 C 17.9 7.4 17.88 37.38 17.9 37.4 C 17.9 44.9 13.4 48.1 7 48.1 C 4.7 48.1 2.4 47.6 0.5 46 Z M 36.5 47.4 C 36.5 47.4 36.54 43.74 36.5 43.7 C 35.4 46.1 32.6 48.1 29.8 48.1 C 25.4 48.1 23.6 45.7 23.6 41.6 C 23.64 41.58 23.6 18.4 23.6 18.4 L 30.4 18.4 C 30.4 18.4 30.42 39.18 30.4 39.2 C 30.4 41.2 31.1 42.1 32.6 42.1 C 34.4 42.1 35.9 40.3 36.5 38.5 C 36.54 38.46 36.5 18.4 36.5 18.4 L 43.4 18.4 L 43.4 47.4 L 36.5 47.4 Z M 48.8 47.4 L 48.8 7.4 L 55.6 7.4 L 55.6 47.4 L 48.8 47.4 Z M 60.3 10.9 C 60.3 8.6 62.2 6.8 64.4 6.8 C 66.7 6.8 68.6 8.6 68.6 10.9 C 68.6 13.2 66.7 15 64.4 15 C 62.2 15 60.3 13.2 60.3 10.9 Z M 61.1 47.4 L 61.1 18.4 L 67.9 18.4 L 67.9 47.4 L 61.1 47.4 Z M 72.2 32.9 C 72.2 24.5 75.8 17.7 83 17.7 C 90.4 17.7 93.4 24.2 93.4 32.8 C 93.42 32.76 93.4 35.1 93.4 35.1 C 93.4 35.1 78.72 35.1 78.7 35.1 C 78.8 39.4 80.6 42.6 84.4 42.6 C 86 42.6 87.9 41.5 89.2 39.7 C 89.2 39.7 92.5 43.5 92.5 43.5 C 90.2 46.4 87 48.1 83.7 48.1 C 76.1 48.1 72.2 41.8 72.2 32.9 Z M 82.9 23.2 C 79.6 23.2 78.7 27.3 78.7 30.4 C 78.7 30.4 86.9 30.4 86.9 30.4 C 86.9 27.1 86.2 23.2 82.9 23.2 Z M 110.5 47.4 C 110.5 47.4 110.46 26.76 110.5 26.8 C 110.5 24.7 109.7 23.7 108.2 23.7 C 106.5 23.7 105 25.6 104.3 27.5 C 104.34 27.48 104.3 47.4 104.3 47.4 L 97.6 47.4 L 97.6 18.4 L 104.3 18.4 C 104.3 18.4 104.34 22.2 104.3 22.2 C 105.5 19.9 108.5 17.7 111.1 17.7 C 115.5 17.7 117.3 20.3 117.3 24.3 C 117.3 24.3 117.3 47.4 117.3 47.4 L 110.5 47.4 Z M 135.7 47.4 C 135.7 47.4 135.66 26.76 135.7 26.8 C 135.7 24.7 134.9 23.7 133.4 23.7 C 131.7 23.7 130.2 25.6 129.5 27.5 C 129.54 27.48 129.5 47.4 129.5 47.4 L 122.8 47.4 L 122.8 18.4 L 129.5 18.4 C 129.5 18.4 129.54 22.2 129.5 22.2 C 130.7 19.9 133.7 17.7 136.3 17.7 C 140.7 17.7 142.5 20.3 142.5 24.3 C 142.5 24.3 142.5 47.4 142.5 47.4 L 135.7 47.4 Z M 146.8 32.9 C 146.8 24.5 150.4 17.7 157.7 17.7 C 165 17.7 168.1 24.2 168.1 32.8 C 168.06 32.76 168.1 35.1 168.1 35.1 C 168.1 35.1 153.36 35.1 153.4 35.1 C 153.4 39.4 155.2 42.6 159.1 42.6 C 160.7 42.6 162.5 41.5 163.9 39.7 C 163.9 39.7 167.2 43.5 167.2 43.5 C 164.9 46.4 161.6 48.1 158.3 48.1 C 150.8 48.1 146.8 41.8 146.8 32.9 Z M 157.5 23.2 C 154.2 23.2 153.4 27.3 153.4 30.4 C 153.4 30.4 161.5 30.4 161.5 30.4 C 161.5 27.1 160.8 23.2 157.5 23.2 Z M 185.3 47.4 C 185.3 47.4 185.28 43.8 185.3 43.8 C 184 46.7 181.7 48.1 179.6 48.1 C 173.9 48.1 171.1 42.2 171.1 32.9 C 171.1 23.8 173.9 17.7 179.6 17.7 C 181.7 17.7 184.1 19 185.3 22 C 185.28 22.02 185.3 7.4 185.3 7.4 L 192.1 7.4 L 192.1 47.4 L 185.3 47.4 Z M 185.3 38.6 C 185.3 38.6 185.3 27.2 185.3 27.2 C 184.7 25.3 183.3 23.7 181.9 23.7 C 178.9 23.7 178 27.8 178 32.9 C 178 38 178.9 42.1 181.9 42.1 C 183.3 42.1 184.7 40.6 185.3 38.6 Z M 207.7 47.4 L 207.7 7.4 L 225.2 7.4 L 225.2 14 L 215.3 14 L 215.3 23.7 L 224.8 23.7 L 224.8 30.4 L 215.3 30.4 L 215.3 47.4 L 207.7 47.4 Z M 228.8 32.9 C 228.8 24.8 232.1 17.7 239.6 17.7 C 247.3 17.7 250.6 24.8 250.6 32.9 C 250.6 40.9 247.3 48.1 239.6 48.1 C 232.1 48.1 228.8 40.9 228.8 32.9 Z M 243.5 32.9 C 243.5 28 242.7 23.7 239.6 23.7 C 236.6 23.7 235.8 28 235.8 32.9 C 235.8 37.9 236.6 42.1 239.6 42.1 C 242.7 42.1 243.5 37.9 243.5 32.9 Z M 267.5 47.4 C 267.5 47.4 267.54 44.64 267.5 44.6 C 266.3 46.9 263.6 48.1 261.5 48.1 C 256.9 48.1 253.6 44.4 253.6 38.5 C 253.6 32.6 256.9 29 261.5 29 C 263.6 29 266.3 30.1 267.5 32.3 C 267.5 32.3 267.5 28.7 267.5 28.7 C 267.5 25.4 266.2 23.5 263.2 23.5 C 261.2 23.5 259.2 24.4 257.3 26.3 C 257.3 26.3 254.8 21.5 254.8 21.5 C 257.4 18.7 261.5 17.7 264.5 17.7 C 270.5 17.7 274.3 20.7 274.3 27.2 C 274.32 27.18 274.3 47.4 274.3 47.4 L 267.5 47.4 Z M 267.5 40.6 C 267.5 40.6 267.5 36.7 267.5 36.7 C 266.8 34.9 265.4 33.7 263.9 33.7 C 261.5 33.7 260.4 35.8 260.4 38.6 C 260.4 41.3 261.5 43.6 263.9 43.6 C 265.4 43.6 266.8 42.4 267.5 40.6 Z M 305.7 47.4 C 305.7 47.4 305.7 26.76 305.7 26.8 C 305.7 24.6 304.9 23.7 303.5 23.7 C 301.6 23.7 300.2 25.7 299.6 27.5 C 299.58 27.48 299.6 47.4 299.6 47.4 L 292.7 47.4 C 292.7 47.4 292.74 26.76 292.7 26.8 C 292.7 24.8 292.1 23.7 290.5 23.7 C 288.7 23.7 287.2 25.7 286.6 27.5 C 286.62 27.48 286.6 47.4 286.6 47.4 L 279.8 47.4 L 279.8 18.4 L 286.6 18.4 C 286.6 18.4 286.62 22.2 286.6 22.2 C 287.6 20 290.6 17.7 293.4 17.7 C 296.5 17.7 298.9 19.2 299.3 22.5 C 300.4 20.1 303.5 17.7 306.4 17.7 C 310 17.7 312.5 19.6 312.5 24.3 C 312.48 24.3 312.5 47.4 312.5 47.4 L 305.7 47.4 Z " stroke="none" fill="#b13d24"/>  </g></svg>