<?xml version="1.0" standalone="no"?><!DOCTYPE svg PUBLIC "-//W3C//DTD SVG 1.1//EN" "http://www.w3.org/Graphics/SVG/1.1/DTD/svg11.dtd"><svg xmlns="http://www.w3.org/2000/svg" version="1.1" width="191px" height="44.3px" viewBox="0 0 191 44.3">  <desc>4 hours</desc>  <defs/>  <g id="Polygon184920">    <path d="M 52.6 14.3 L 52.6 19.5 L 50.1 19.5 L 50.1 14.3 L 45.6 14.3 L 45.6 12 L 50.1 12 L 50.1 7 L 52.6 7 L 52.6 12 L 57.1 12 L 57.1 14.3 L 52.6 14.3 Z M 45.6 23.3 L 45.6 21.1 L 57.1 21.1 L 57.1 23.3 L 45.6 23.3 Z M 68 23.7 L 68 19.4 L 59.9 19.4 L 59.9 16.1 L 66.9 3.7 L 72.1 3.7 L 72.1 15.9 L 74.1 15.9 L 74.1 19.4 L 72.1 19.4 L 72.1 23.7 L 68 23.7 Z M 68 7.8 L 63.5 15.9 L 68 15.9 L 68 7.8 Z M 90.8 23.7 C 90.8 23.7 90.78 14.1 90.8 14.1 C 90.8 12.6 90.1 12 88.9 12 C 87.7 12 86.7 13 86.2 13.8 C 86.25 13.83 86.2 23.7 86.2 23.7 L 82.6 23.7 L 82.6 3.7 L 86.2 3.7 C 86.2 3.7 86.25 11.1 86.2 11.1 C 87 10 88.6 8.8 90.5 8.8 C 93.2 8.8 94.4 10.3 94.4 12.7 C 94.38 12.75 94.4 23.7 94.4 23.7 L 90.8 23.7 Z M 96.9 16.4 C 96.9 12.4 99.1 8.8 103.4 8.8 C 107.7 8.8 110 12.4 110 16.4 C 110 20.5 107.7 24.1 103.4 24.1 C 99.1 24.1 96.9 20.5 96.9 16.4 Z M 106.3 16.4 C 106.3 14.1 105.4 12 103.4 12 C 101.5 12 100.6 14.1 100.6 16.4 C 100.6 18.8 101.5 20.9 103.4 20.9 C 105.4 20.9 106.3 18.8 106.3 16.4 Z M 120.6 23.7 C 120.6 23.7 120.6 21.87 120.6 21.9 C 119.8 23 118.2 24.1 116.3 24.1 C 113.7 24.1 112.5 22.6 112.5 20.2 C 112.47 20.16 112.5 9.2 112.5 9.2 L 116.1 9.2 C 116.1 9.2 116.07 18.78 116.1 18.8 C 116.1 20.3 116.8 20.9 118 20.9 C 119.2 20.9 120.1 20 120.6 19.1 C 120.6 19.11 120.6 9.2 120.6 9.2 L 124.2 9.2 L 124.2 23.7 L 120.6 23.7 Z M 127.4 23.7 L 127.4 9.2 L 131 9.2 C 131 9.2 131.04 11.19 131 11.2 C 131.8 9.9 133.4 8.8 135 8.8 C 135 8.8 135 12.4 135 12.4 C 134.8 12.3 134.5 12.3 134.1 12.3 C 133 12.3 131.6 13 131 14 C 131.04 14.04 131 23.7 131 23.7 L 127.4 23.7 Z M 135.9 22 C 135.9 22 137.5 19.5 137.5 19.5 C 138.4 20.4 140 21.2 141.4 21.2 C 142.8 21.2 143.6 20.6 143.6 19.7 C 143.6 17.3 136.4 18.6 136.4 13.2 C 136.4 10.9 138.3 8.8 141.7 8.8 C 143.8 8.8 145.5 9.6 146.7 10.7 C 146.7 10.7 145.3 13.1 145.3 13.1 C 144.6 12.3 143.2 11.6 141.7 11.6 C 140.6 11.6 139.8 12.2 139.8 13 C 139.8 15.2 147 14.1 147 19.6 C 147 22.2 144.9 24.1 141.5 24.1 C 139.2 24.1 137.2 23.3 135.9 22 Z " stroke="none" fill="#d3d2d2"/>  </g></svg>