<?xml version="1.0" standalone="no"?><!DOCTYPE svg PUBLIC "-//W3C//DTD SVG 1.1//EN" "http://www.w3.org/Graphics/SVG/1.1/DTD/svg11.dtd"><svg xmlns="http://www.w3.org/2000/svg" version="1.1" width="219px" height="475.3px" viewBox="0 0 219 475.3">  <desc>199 50 198 83 662 36 621 62 605 77 483 33 448 62 455 73 454 91 428 58 479 92 902 41 3500 04</desc>  <defs/>  <g id="Polygon218235">    <path d="M 124 453.4 C 124 453.4 125.6 452 125.6 452 C 126.5 453.5 128 454.6 129.9 454.6 C 132.3 454.6 133.5 453.1 133.5 450.8 C 133.5 448.1 131.7 447.2 129.7 447.2 C 129 447.2 128.4 447.2 128.1 447.2 C 128.1 447.2 128.1 445 128.1 445 C 128.4 445.1 129.1 445.1 129.6 445.1 C 131.6 445.1 133.2 444 133.2 441.7 C 133.2 439.3 131.8 438.2 129.8 438.2 C 128 438.2 126.8 439.1 125.7 440.6 C 125.7 440.6 124.2 439.2 124.2 439.2 C 125.4 437.3 127.5 436.1 129.9 436.1 C 133.2 436.1 135.6 437.8 135.6 441.4 C 135.6 443.9 133.9 445.6 132 446 C 133.8 446.3 135.9 448.1 135.9 451 C 135.9 454.3 133.8 456.7 129.9 456.7 C 127.1 456.7 125 455.2 124 453.4 Z M 138.9 453.5 C 138.9 453.5 140.5 452 140.5 452 C 141.4 453.7 142.8 454.6 144.7 454.6 C 146.9 454.6 148.3 452.6 148.3 450.3 C 148.3 447.4 146.9 445.8 144.9 445.8 C 143.4 445.8 142.3 446.4 141.2 447.7 C 141.23 447.71 139.5 447.1 139.5 447.1 L 139.5 436.4 L 149.7 436.4 L 149.7 438.5 L 141.8 438.5 C 141.8 438.5 141.83 445.49 141.8 445.5 C 142.6 444.5 143.9 443.7 145.5 443.7 C 148.4 443.7 150.7 446 150.7 450.2 C 150.7 454 148.2 456.7 144.8 456.7 C 141.8 456.7 140.1 455.5 138.9 453.5 Z M 153.5 446.4 C 153.5 441.6 155.1 436.1 159.7 436.1 C 164.4 436.1 166 441.6 166 446.4 C 166 451.2 164.4 456.7 159.7 456.7 C 155.1 456.7 153.5 451.2 153.5 446.4 Z M 163.6 446.4 C 163.6 442.4 162.8 438.2 159.7 438.2 C 156.7 438.2 155.9 442.4 155.9 446.4 C 155.9 450.3 156.6 454.6 159.7 454.6 C 162.8 454.6 163.6 450.3 163.6 446.4 Z M 168.8 446.4 C 168.8 441.6 170.4 436.1 175.1 436.1 C 179.8 436.1 181.4 441.6 181.4 446.4 C 181.4 451.2 179.8 456.7 175.1 456.7 C 170.4 456.7 168.8 451.2 168.8 446.4 Z M 178.9 446.4 C 178.9 442.4 178.2 438.2 175.1 438.2 C 172 438.2 171.3 442.4 171.3 446.4 C 171.3 450.3 172 454.6 175.1 454.6 C 178.2 454.6 178.9 450.3 178.9 446.4 Z M 184.6 455.1 C 184.6 454.2 185.3 453.5 186.2 453.5 C 187.1 453.5 187.8 454.2 187.8 455.1 C 187.8 456 187.1 456.7 186.2 456.7 C 185.3 456.7 184.6 456 184.6 455.1 Z M 191 446.4 C 191 441.6 192.6 436.1 197.3 436.1 C 202 436.1 203.6 441.6 203.6 446.4 C 203.6 451.2 202 456.7 197.3 456.7 C 192.6 456.7 191 451.2 191 446.4 Z M 201.1 446.4 C 201.1 442.4 200.4 438.2 197.3 438.2 C 194.2 438.2 193.5 442.4 193.5 446.4 C 193.5 450.3 194.2 454.6 197.3 454.6 C 200.4 454.6 201.1 450.3 201.1 446.4 Z M 213.6 456.4 L 213.6 451.2 L 205.7 451.2 L 205.7 449.2 L 212.9 436.4 L 216 436.4 L 216 449.1 L 218.1 449.1 L 218.1 451.2 L 216 451.2 L 216 456.4 L 213.6 456.4 Z M 213.6 438.9 L 207.9 449.1 L 213.6 449.1 L 213.6 438.9 Z " stroke="none" fill="#d0d1d4"/>  </g>  <g id="Polygon218234">    <path d="M 145.8 418.2 C 145.8 418.2 147.1 416.5 147.1 416.5 C 147.9 417.8 148.8 418.6 150.5 418.6 C 153.7 418.6 154.8 414.3 154.8 410.6 C 154.8 410.3 154.8 410.2 154.8 410 C 154.1 411.4 152.5 412.9 150.4 412.9 C 147.5 412.9 145.2 410.8 145.2 406.5 C 145.2 403.2 147.2 400 150.9 400 C 155.7 400 157.2 405 157.2 410.4 C 157.2 415.8 155.3 420.7 150.5 420.7 C 148.4 420.7 146.8 419.7 145.8 418.2 Z M 154.8 407.8 C 154.6 405.6 153.9 402.2 151 402.2 C 148.6 402.2 147.6 404.4 147.6 406.5 C 147.6 409.7 149.1 410.9 151 410.9 C 152.7 410.9 154 409.4 154.8 407.8 Z M 160.1 410.4 C 160.1 405.6 161.7 400.1 166.3 400.1 C 171 400.1 172.6 405.6 172.6 410.4 C 172.6 415.2 171 420.7 166.3 420.7 C 161.7 420.7 160.1 415.2 160.1 410.4 Z M 170.2 410.4 C 170.2 406.4 169.4 402.2 166.3 402.2 C 163.3 402.2 162.5 406.4 162.5 410.4 C 162.5 414.3 163.2 418.6 166.3 418.6 C 169.4 418.6 170.2 414.3 170.2 410.4 Z M 175.6 420.4 C 175.6 420.4 175.61 418.43 175.6 418.4 C 182.1 410.9 184.4 408.5 184.4 405.5 C 184.4 403.4 182.9 402.2 181.2 402.2 C 179.3 402.2 177.9 403.1 177 404.7 C 177 404.7 175.4 403.3 175.4 403.3 C 176.7 401.2 178.7 400.1 181.2 400.1 C 184.3 400.1 186.8 402 186.8 405.5 C 186.8 408.9 184.3 411.9 179 418.2 C 179 418.25 186.9 418.2 186.9 418.2 L 186.9 420.4 L 175.6 420.4 Z M 190.5 419.1 C 190.5 418.2 191.2 417.5 192.1 417.5 C 193 417.5 193.7 418.2 193.7 419.1 C 193.7 420 193 420.7 192.1 420.7 C 191.2 420.7 190.5 420 190.5 419.1 Z M 204.1 420.4 L 204.1 415.2 L 196.2 415.2 L 196.2 413.2 L 203.4 400.4 L 206.5 400.4 L 206.5 413.1 L 208.7 413.1 L 208.7 415.2 L 206.5 415.2 L 206.5 420.4 L 204.1 420.4 Z M 204.1 402.9 L 198.4 413.1 L 204.1 413.1 L 204.1 402.9 Z M 214.4 420.4 L 214.4 403.5 L 211.3 406.8 L 209.8 405.3 L 214.6 400.4 L 216.7 400.4 L 216.7 420.4 L 214.4 420.4 Z " stroke="none" fill="#d0d1d4"/>  </g>  <g id="Polygon218233">    <path d="M 149.9 384.4 L 149.9 379.2 L 142 379.2 L 142 377.2 L 149.2 364.4 L 152.3 364.4 L 152.3 377.1 L 154.5 377.1 L 154.5 379.2 L 152.3 379.2 L 152.3 384.4 L 149.9 384.4 Z M 149.9 366.9 L 144.2 377.1 L 149.9 377.1 L 149.9 366.9 Z M 158.1 384.4 L 164.4 366.5 L 155.9 366.5 L 155.9 364.4 L 167.1 364.4 L 167.1 366 L 160.7 384.4 L 158.1 384.4 Z M 169.7 382.2 C 169.7 382.2 171 380.5 171 380.5 C 171.8 381.8 172.7 382.6 174.4 382.6 C 177.6 382.6 178.7 378.3 178.7 374.6 C 178.7 374.3 178.7 374.2 178.7 374 C 178 375.4 176.4 376.9 174.3 376.9 C 171.4 376.9 169.1 374.8 169.1 370.5 C 169.1 367.2 171.1 364 174.8 364 C 179.6 364 181.2 369 181.2 374.4 C 181.2 379.8 179.2 384.7 174.4 384.7 C 172.3 384.7 170.7 383.7 169.7 382.2 Z M 178.7 371.8 C 178.5 369.6 177.8 366.2 174.9 366.2 C 172.5 366.2 171.5 368.4 171.5 370.5 C 171.5 373.7 173 374.9 174.9 374.9 C 176.6 374.9 177.9 373.4 178.7 371.8 Z M 184.4 383.1 C 184.4 382.2 185.1 381.5 186 381.5 C 186.9 381.5 187.6 382.2 187.6 383.1 C 187.6 384 186.9 384.7 186 384.7 C 185.1 384.7 184.4 384 184.4 383.1 Z M 191.3 382.2 C 191.3 382.2 192.6 380.5 192.6 380.5 C 193.4 381.8 194.3 382.6 196 382.6 C 199.2 382.6 200.3 378.3 200.3 374.6 C 200.3 374.3 200.3 374.2 200.3 374 C 199.6 375.4 198 376.9 195.9 376.9 C 193 376.9 190.7 374.8 190.7 370.5 C 190.7 367.2 192.7 364 196.4 364 C 201.2 364 202.8 369 202.8 374.4 C 202.8 379.8 200.8 384.7 196 384.7 C 193.9 384.7 192.3 383.7 191.3 382.2 Z M 200.3 371.8 C 200.1 369.6 199.4 366.2 196.5 366.2 C 194.1 366.2 193.1 368.4 193.1 370.5 C 193.1 373.7 194.6 374.9 196.5 374.9 C 198.2 374.9 199.5 373.4 200.3 371.8 Z M 205.8 384.4 C 205.8 384.4 205.75 382.43 205.8 382.4 C 212.3 374.9 214.5 372.5 214.5 369.5 C 214.5 367.4 213 366.2 211.3 366.2 C 209.4 366.2 208.1 367.1 207.1 368.7 C 207.1 368.7 205.5 367.3 205.5 367.3 C 206.9 365.2 208.8 364.1 211.4 364.1 C 214.4 364.1 217 366 217 369.5 C 217 372.9 214.5 375.9 209.1 382.2 C 209.14 382.25 217.1 382.2 217.1 382.2 L 217.1 384.4 L 205.8 384.4 Z " stroke="none" fill="#d0d1d4"/>  </g>  <g id="Polygon218232">    <path d="M 148.2 348.4 L 148.2 343.2 L 140.3 343.2 L 140.3 341.2 L 147.5 328.4 L 150.6 328.4 L 150.6 341.1 L 152.7 341.1 L 152.7 343.2 L 150.6 343.2 L 150.6 348.4 L 148.2 348.4 Z M 148.2 330.9 L 142.5 341.1 L 148.2 341.1 L 148.2 330.9 Z M 155 348.4 C 155 348.4 155.03 346.43 155 346.4 C 161.6 338.9 163.8 336.5 163.8 333.5 C 163.8 331.4 162.3 330.2 160.6 330.2 C 158.7 330.2 157.3 331.1 156.4 332.7 C 156.4 332.7 154.8 331.3 154.8 331.3 C 156.1 329.2 158.1 328.1 160.6 328.1 C 163.7 328.1 166.2 330 166.2 333.5 C 166.2 336.9 163.7 339.9 158.4 346.2 C 158.42 346.25 166.3 346.2 166.3 346.2 L 166.3 348.4 L 155 348.4 Z M 169.5 343.5 C 169.5 340.8 171.5 338.8 173.4 338.1 C 171.6 337.4 169.8 335.7 169.8 333.2 C 169.8 329.7 172.5 328.1 175.4 328.1 C 178.3 328.1 181.1 329.7 181.1 333.2 C 181.1 335.7 179.2 337.4 177.4 338.1 C 179.3 338.8 181.3 340.8 181.3 343.4 C 181.3 346.7 178.9 348.7 175.4 348.7 C 171.9 348.7 169.5 346.7 169.5 343.5 Z M 178.7 333.5 C 178.7 331.5 177.3 330.2 175.4 330.2 C 173.4 330.2 172.1 331.5 172.1 333.5 C 172.1 335.9 174.6 336.9 175.4 337.2 C 176.2 336.9 178.7 335.9 178.7 333.5 Z M 178.9 343.2 C 178.9 340.5 176.2 339.2 175.4 339 C 174.6 339.2 171.9 340.5 171.9 343.2 C 171.9 345.3 173.4 346.6 175.4 346.6 C 177.3 346.6 178.9 345.3 178.9 343.2 Z M 184.5 347.1 C 184.5 346.2 185.2 345.5 186.1 345.5 C 187 345.5 187.7 346.2 187.7 347.1 C 187.7 348 187 348.7 186.1 348.7 C 185.2 348.7 184.5 348 184.5 347.1 Z M 191.1 345.5 C 191.1 345.5 192.7 344 192.7 344 C 193.6 345.7 195 346.6 196.9 346.6 C 199.1 346.6 200.5 344.6 200.5 342.3 C 200.5 339.4 199.1 337.8 197.1 337.8 C 195.6 337.8 194.5 338.4 193.4 339.7 C 193.42 339.71 191.7 339.1 191.7 339.1 L 191.7 328.4 L 201.9 328.4 L 201.9 330.5 L 194 330.5 C 194 330.5 194.02 337.49 194 337.5 C 194.8 336.5 196.1 335.7 197.7 335.7 C 200.6 335.7 202.9 338 202.9 342.2 C 202.9 346 200.4 348.7 197 348.7 C 194 348.7 192.3 347.5 191.1 345.5 Z M 205.6 343.5 C 205.6 340.8 207.6 338.8 209.6 338.1 C 207.8 337.4 205.9 335.7 205.9 333.2 C 205.9 329.7 208.7 328.1 211.5 328.1 C 214.4 328.1 217.2 329.7 217.2 333.2 C 217.2 335.7 215.3 337.4 213.5 338.1 C 215.5 338.8 217.5 340.8 217.5 343.4 C 217.5 346.7 215 348.7 211.5 348.7 C 208 348.7 205.6 346.7 205.6 343.5 Z M 214.8 333.5 C 214.8 331.5 213.5 330.2 211.5 330.2 C 209.6 330.2 208.3 331.5 208.3 333.5 C 208.3 335.9 210.8 336.9 211.5 337.2 C 212.3 336.9 214.8 335.9 214.8 333.5 Z M 215.1 343.2 C 215.1 340.5 212.4 339.2 211.5 339 C 210.7 339.2 208 340.5 208 343.2 C 208 345.3 209.6 346.6 211.5 346.6 C 213.5 346.6 215.1 345.3 215.1 343.2 Z " stroke="none" fill="#d0d1d4"/>  </g>  <g id="Polygon218231">    <path d="M 153.9 312.4 L 153.9 307.2 L 146 307.2 L 146 305.2 L 153.3 292.4 L 156.3 292.4 L 156.3 305.1 L 158.5 305.1 L 158.5 307.2 L 156.3 307.2 L 156.3 312.4 L 153.9 312.4 Z M 153.9 294.9 L 148.2 305.1 L 153.9 305.1 L 153.9 294.9 Z M 160.8 309.5 C 160.8 309.5 162.3 308 162.3 308 C 163.3 309.7 164.6 310.6 166.6 310.6 C 168.8 310.6 170.1 308.6 170.1 306.3 C 170.1 303.4 168.8 301.8 166.7 301.8 C 165.3 301.8 164.2 302.4 163.1 303.7 C 163.1 303.71 161.3 303.1 161.3 303.1 L 161.3 292.4 L 171.5 292.4 L 171.5 294.5 L 163.7 294.5 C 163.7 294.5 163.7 301.49 163.7 301.5 C 164.5 300.5 165.8 299.7 167.4 299.7 C 170.3 299.7 172.6 302 172.6 306.2 C 172.6 310 170.1 312.7 166.6 312.7 C 163.7 312.7 162 311.5 160.8 309.5 Z M 182.5 312.4 L 182.5 307.2 L 174.6 307.2 L 174.6 305.2 L 181.8 292.4 L 184.9 292.4 L 184.9 305.1 L 187.1 305.1 L 187.1 307.2 L 184.9 307.2 L 184.9 312.4 L 182.5 312.4 Z M 182.5 294.9 L 176.8 305.1 L 182.5 305.1 L 182.5 294.9 Z M 189.6 311.1 C 189.6 310.2 190.3 309.5 191.2 309.5 C 192.1 309.5 192.8 310.2 192.8 311.1 C 192.8 312 192.1 312.7 191.2 312.7 C 190.3 312.7 189.6 312 189.6 311.1 Z M 196.5 310.2 C 196.5 310.2 197.9 308.5 197.9 308.5 C 198.6 309.8 199.5 310.6 201.2 310.6 C 204.4 310.6 205.5 306.3 205.5 302.6 C 205.5 302.3 205.5 302.2 205.5 302 C 204.9 303.4 203.2 304.9 201.1 304.9 C 198.2 304.9 195.9 302.8 195.9 298.5 C 195.9 295.2 198 292 201.6 292 C 206.4 292 208 297 208 302.4 C 208 307.8 206 312.7 201.2 312.7 C 199.1 312.7 197.5 311.7 196.5 310.2 Z M 205.5 299.8 C 205.4 297.6 204.6 294.2 201.8 294.2 C 199.4 294.2 198.3 296.4 198.3 298.5 C 198.3 301.7 199.8 302.9 201.7 302.9 C 203.4 302.9 204.8 301.4 205.5 299.8 Z M 214.4 312.4 L 214.4 295.5 L 211.3 298.8 L 209.8 297.3 L 214.6 292.4 L 216.7 292.4 L 216.7 312.4 L 214.4 312.4 Z " stroke="none" fill="#d0d1d4"/>  </g>  <g id="Polygon218230">    <path d="M 150.4 276.4 L 150.4 271.2 L 142.5 271.2 L 142.5 269.2 L 149.7 256.4 L 152.8 256.4 L 152.8 269.1 L 155 269.1 L 155 271.2 L 152.8 271.2 L 152.8 276.4 L 150.4 276.4 Z M 150.4 258.9 L 144.7 269.1 L 150.4 269.1 L 150.4 258.9 Z M 157.2 273.5 C 157.2 273.5 158.8 272 158.8 272 C 159.8 273.7 161.1 274.6 163.1 274.6 C 165.3 274.6 166.6 272.6 166.6 270.3 C 166.6 267.4 165.3 265.8 163.2 265.8 C 161.8 265.8 160.7 266.4 159.6 267.7 C 159.59 267.71 157.8 267.1 157.8 267.1 L 157.8 256.4 L 168 256.4 L 168 258.5 L 160.2 258.5 C 160.2 258.5 160.19 265.49 160.2 265.5 C 161 264.5 162.3 263.7 163.9 263.7 C 166.8 263.7 169.1 266 169.1 270.2 C 169.1 274 166.6 276.7 163.1 276.7 C 160.2 276.7 158.5 275.5 157.2 273.5 Z M 172 273.5 C 172 273.5 173.6 272 173.6 272 C 174.5 273.7 175.8 274.6 177.8 274.6 C 180 274.6 181.4 272.6 181.4 270.3 C 181.4 267.4 180 265.8 177.9 265.8 C 176.5 265.8 175.4 266.4 174.3 267.7 C 174.32 267.71 172.5 267.1 172.5 267.1 L 172.5 256.4 L 182.7 256.4 L 182.7 258.5 L 174.9 258.5 C 174.9 258.5 174.92 265.49 174.9 265.5 C 175.7 264.5 177 263.7 178.6 263.7 C 181.5 263.7 183.8 266 183.8 270.2 C 183.8 274 181.3 276.7 177.9 276.7 C 174.9 276.7 173.2 275.5 172 273.5 Z M 187 275.1 C 187 274.2 187.7 273.5 188.6 273.5 C 189.4 273.5 190.2 274.2 190.2 275.1 C 190.2 276 189.4 276.7 188.6 276.7 C 187.7 276.7 187 276 187 275.1 Z M 195 276.4 L 201.2 258.5 L 192.8 258.5 L 192.8 256.4 L 203.9 256.4 L 203.9 258 L 197.5 276.4 L 195 276.4 Z M 205.5 273.4 C 205.5 273.4 207.1 272 207.1 272 C 208 273.5 209.5 274.6 211.4 274.6 C 213.8 274.6 215 273.1 215 270.8 C 215 268.1 213.2 267.2 211.2 267.2 C 210.6 267.2 209.9 267.2 209.6 267.2 C 209.6 267.2 209.6 265 209.6 265 C 209.9 265.1 210.6 265.1 211.1 265.1 C 213.1 265.1 214.8 264 214.8 261.7 C 214.8 259.3 213.3 258.2 211.3 258.2 C 209.5 258.2 208.3 259.1 207.3 260.6 C 207.3 260.6 205.8 259.2 205.8 259.2 C 207 257.3 209 256.1 211.5 256.1 C 214.7 256.1 217.1 257.8 217.1 261.4 C 217.1 263.9 215.4 265.6 213.6 266 C 215.3 266.3 217.4 268.1 217.4 271 C 217.4 274.3 215.3 276.7 211.5 276.7 C 208.6 276.7 206.5 275.2 205.5 273.4 Z " stroke="none" fill="#d0d1d4"/>  </g>  <g id="Polygon218229">    <path d="M 148.9 240.4 L 148.9 235.2 L 141 235.2 L 141 233.2 L 148.2 220.4 L 151.2 220.4 L 151.2 233.1 L 153.4 233.1 L 153.4 235.2 L 151.2 235.2 L 151.2 240.4 L 148.9 240.4 Z M 148.9 222.9 L 143.1 233.1 L 148.9 233.1 L 148.9 222.9 Z M 162.7 240.4 L 162.7 235.2 L 154.8 235.2 L 154.8 233.2 L 162 220.4 L 165.1 220.4 L 165.1 233.1 L 167.3 233.1 L 167.3 235.2 L 165.1 235.2 L 165.1 240.4 L 162.7 240.4 Z M 162.7 222.9 L 157 233.1 L 162.7 233.1 L 162.7 222.9 Z M 169.3 235.5 C 169.3 232.8 171.3 230.8 173.3 230.1 C 171.5 229.4 169.6 227.7 169.6 225.2 C 169.6 221.7 172.4 220.1 175.3 220.1 C 178.2 220.1 180.9 221.7 180.9 225.2 C 180.9 227.7 179.1 229.4 177.3 230.1 C 179.2 230.8 181.2 232.8 181.2 235.4 C 181.2 238.7 178.8 240.7 175.3 240.7 C 171.8 240.7 169.3 238.7 169.3 235.5 Z M 178.5 225.5 C 178.5 223.5 177.2 222.2 175.3 222.2 C 173.3 222.2 172 223.5 172 225.5 C 172 227.9 174.5 228.9 175.3 229.2 C 176.1 228.9 178.5 227.9 178.5 225.5 Z M 178.8 235.2 C 178.8 232.5 176.1 231.2 175.3 231 C 174.4 231.2 171.8 232.5 171.8 235.2 C 171.8 237.3 173.3 238.6 175.3 238.6 C 177.2 238.6 178.8 237.3 178.8 235.2 Z M 184.4 239.1 C 184.4 238.2 185.1 237.5 186 237.5 C 186.9 237.5 187.6 238.2 187.6 239.1 C 187.6 240 186.9 240.7 186 240.7 C 185.1 240.7 184.4 240 184.4 239.1 Z M 190.8 230.4 C 190.8 225 192.7 220.1 197.6 220.1 C 199.7 220.1 201.3 221.1 202.2 222.6 C 202.2 222.6 200.9 224.2 200.9 224.2 C 200.2 223 199.2 222.2 197.6 222.2 C 194.4 222.2 193.2 226.4 193.2 230.2 C 193.2 230.4 193.2 230.5 193.2 230.8 C 193.9 229.4 195.6 227.8 197.7 227.8 C 200.6 227.8 202.9 230 202.9 234.2 C 202.9 237.6 200.8 240.7 197.1 240.7 C 192.4 240.7 190.8 235.7 190.8 230.4 Z M 200.5 234.3 C 200.5 231.1 198.9 229.9 197.1 229.9 C 195.4 229.9 194 231.3 193.3 233 C 193.4 235.2 194.2 238.6 197 238.6 C 199.4 238.6 200.5 236.4 200.5 234.3 Z M 205.8 240.4 C 205.8 240.4 205.75 238.43 205.8 238.4 C 212.3 230.9 214.5 228.5 214.5 225.5 C 214.5 223.4 213 222.2 211.3 222.2 C 209.4 222.2 208.1 223.1 207.1 224.7 C 207.1 224.7 205.5 223.3 205.5 223.3 C 206.9 221.2 208.8 220.1 211.4 220.1 C 214.4 220.1 217 222 217 225.5 C 217 228.9 214.5 231.9 209.1 238.2 C 209.14 238.25 217.1 238.2 217.1 238.2 L 217.1 240.4 L 205.8 240.4 Z " stroke="none" fill="#d0d1d4"/>  </g>  <g id="Polygon218228">    <path d="M 149.6 204.4 L 149.6 199.2 L 141.7 199.2 L 141.7 197.2 L 148.9 184.4 L 152 184.4 L 152 197.1 L 154.2 197.1 L 154.2 199.2 L 152 199.2 L 152 204.4 L 149.6 204.4 Z M 149.6 186.9 L 143.9 197.1 L 149.6 197.1 L 149.6 186.9 Z M 156.2 199.5 C 156.2 196.8 158.2 194.8 160.2 194.1 C 158.4 193.4 156.5 191.7 156.5 189.2 C 156.5 185.7 159.3 184.1 162.1 184.1 C 165 184.1 167.8 185.7 167.8 189.2 C 167.8 191.7 165.9 193.4 164.1 194.1 C 166.1 194.8 168.1 196.8 168.1 199.4 C 168.1 202.7 165.6 204.7 162.1 204.7 C 158.6 204.7 156.2 202.7 156.2 199.5 Z M 165.4 189.5 C 165.4 187.5 164.1 186.2 162.1 186.2 C 160.2 186.2 158.9 187.5 158.9 189.5 C 158.9 191.9 161.4 192.9 162.1 193.2 C 162.9 192.9 165.4 191.9 165.4 189.5 Z M 165.7 199.2 C 165.7 196.5 163 195.2 162.1 195 C 161.3 195.2 158.6 196.5 158.6 199.2 C 158.6 201.3 160.2 202.6 162.1 202.6 C 164.1 202.6 165.7 201.3 165.7 199.2 Z M 170.3 201.4 C 170.3 201.4 171.9 200 171.9 200 C 172.8 201.5 174.3 202.6 176.1 202.6 C 178.6 202.6 179.8 201.1 179.8 198.8 C 179.8 196.1 178 195.2 176 195.2 C 175.3 195.2 174.6 195.2 174.4 195.2 C 174.4 195.2 174.4 193 174.4 193 C 174.6 193.1 175.4 193.1 175.9 193.1 C 177.9 193.1 179.5 192 179.5 189.7 C 179.5 187.3 178.1 186.2 176.1 186.2 C 174.3 186.2 173.1 187.1 172 188.6 C 172 188.6 170.5 187.2 170.5 187.2 C 171.7 185.3 173.7 184.1 176.2 184.1 C 179.5 184.1 181.9 185.8 181.9 189.4 C 181.9 191.9 180.2 193.6 178.3 194 C 180.1 194.3 182.2 196.1 182.2 199 C 182.2 202.3 180 204.7 176.2 204.7 C 173.4 204.7 171.3 203.2 170.3 201.4 Z M 185.4 203.1 C 185.4 202.2 186.2 201.5 187 201.5 C 187.9 201.5 188.7 202.2 188.7 203.1 C 188.7 204 187.9 204.7 187 204.7 C 186.2 204.7 185.4 204 185.4 203.1 Z M 191.3 201.4 C 191.3 201.4 192.9 200 192.9 200 C 193.8 201.5 195.3 202.6 197.2 202.6 C 199.6 202.6 200.8 201.1 200.8 198.8 C 200.8 196.1 199 195.2 197 195.2 C 196.4 195.2 195.7 195.2 195.4 195.2 C 195.4 195.2 195.4 193 195.4 193 C 195.7 193.1 196.4 193.1 196.9 193.1 C 198.9 193.1 200.6 192 200.6 189.7 C 200.6 187.3 199.1 186.2 197.1 186.2 C 195.3 186.2 194.1 187.1 193.1 188.6 C 193.1 188.6 191.6 187.2 191.6 187.2 C 192.8 185.3 194.8 184.1 197.3 184.1 C 200.5 184.1 202.9 185.8 202.9 189.4 C 202.9 191.9 201.2 193.6 199.4 194 C 201.1 194.3 203.2 196.1 203.2 199 C 203.2 202.3 201.1 204.7 197.3 204.7 C 194.4 204.7 192.3 203.2 191.3 201.4 Z M 205.5 201.4 C 205.5 201.4 207.1 200 207.1 200 C 208 201.5 209.5 202.6 211.4 202.6 C 213.8 202.6 215 201.1 215 198.8 C 215 196.1 213.2 195.2 211.2 195.2 C 210.6 195.2 209.9 195.2 209.6 195.2 C 209.6 195.2 209.6 193 209.6 193 C 209.9 193.1 210.6 193.1 211.1 193.1 C 213.1 193.1 214.8 192 214.8 189.7 C 214.8 187.3 213.3 186.2 211.3 186.2 C 209.5 186.2 208.3 187.1 207.3 188.6 C 207.3 188.6 205.8 187.2 205.8 187.2 C 207 185.3 209 184.1 211.5 184.1 C 214.7 184.1 217.1 185.8 217.1 189.4 C 217.1 191.9 215.4 193.6 213.6 194 C 215.3 194.3 217.4 196.1 217.4 199 C 217.4 202.3 215.3 204.7 211.5 204.7 C 208.6 204.7 206.5 203.2 205.5 201.4 Z " stroke="none" fill="#d0d1d4"/>  </g>  <g id="Polygon218227">    <path d="M 143.2 158.4 C 143.2 153 145.2 148.1 150 148.1 C 152.1 148.1 153.7 149.1 154.7 150.6 C 154.7 150.6 153.3 152.2 153.3 152.2 C 152.6 151 151.7 150.2 150 150.2 C 146.8 150.2 145.6 154.4 145.6 158.2 C 145.6 158.4 145.6 158.5 145.7 158.8 C 146.4 157.4 148 155.8 150.1 155.8 C 153 155.8 155.3 158 155.3 162.2 C 155.3 165.6 153.3 168.7 149.6 168.7 C 144.8 168.7 143.2 163.7 143.2 158.4 Z M 152.9 162.3 C 152.9 159.1 151.4 157.9 149.5 157.9 C 147.8 157.9 146.4 159.3 145.7 161 C 145.8 163.2 146.6 166.6 149.4 166.6 C 151.8 166.6 152.9 164.4 152.9 162.3 Z M 158 158.4 C 158 153.6 159.6 148.1 164.3 148.1 C 168.9 148.1 170.5 153.6 170.5 158.4 C 170.5 163.2 168.9 168.7 164.3 168.7 C 159.6 168.7 158 163.2 158 158.4 Z M 168.1 158.4 C 168.1 154.4 167.4 150.2 164.3 150.2 C 161.2 150.2 160.5 154.4 160.5 158.4 C 160.5 162.3 161.2 166.6 164.3 166.6 C 167.4 166.6 168.1 162.3 168.1 158.4 Z M 173.5 165.5 C 173.5 165.5 175.1 164 175.1 164 C 176.1 165.7 177.4 166.6 179.3 166.6 C 181.5 166.6 182.9 164.6 182.9 162.3 C 182.9 159.4 181.5 157.8 179.5 157.8 C 178.1 157.8 177 158.4 175.8 159.7 C 175.84 159.71 174.1 159.1 174.1 159.1 L 174.1 148.4 L 184.3 148.4 L 184.3 150.5 L 176.4 150.5 C 176.4 150.5 176.44 157.49 176.4 157.5 C 177.2 156.5 178.5 155.7 180.1 155.7 C 183 155.7 185.3 158 185.3 162.2 C 185.3 166 182.9 168.7 179.4 168.7 C 176.4 168.7 174.7 167.5 173.5 165.5 Z M 188.5 167.1 C 188.5 166.2 189.2 165.5 190.1 165.5 C 191 165.5 191.7 166.2 191.7 167.1 C 191.7 168 191 168.7 190.1 168.7 C 189.2 168.7 188.5 168 188.5 167.1 Z M 196.5 168.4 L 202.8 150.5 L 194.3 150.5 L 194.3 148.4 L 205.4 148.4 L 205.4 150 L 199 168.4 L 196.5 168.4 Z M 209.1 168.4 L 215.4 150.5 L 207 150.5 L 207 148.4 L 218.1 148.4 L 218.1 150 L 211.7 168.4 L 209.1 168.4 Z " stroke="none" fill="#d0d1d4"/>  </g>  <g id="Polygon218226">    <path d="M 145.1 122.4 C 145.1 117 147 112.1 151.8 112.1 C 153.9 112.1 155.5 113.1 156.5 114.6 C 156.5 114.6 155.2 116.2 155.2 116.2 C 154.5 115 153.5 114.2 151.9 114.2 C 148.7 114.2 147.5 118.4 147.5 122.2 C 147.5 122.4 147.5 122.5 147.5 122.8 C 148.2 121.4 149.9 119.8 151.9 119.8 C 154.8 119.8 157.2 122 157.2 126.2 C 157.2 129.6 155.1 132.7 151.4 132.7 C 146.7 132.7 145.1 127.7 145.1 122.4 Z M 154.8 126.3 C 154.8 123.1 153.2 121.9 151.3 121.9 C 149.7 121.9 148.3 123.3 147.6 125 C 147.7 127.2 148.5 130.6 151.3 130.6 C 153.7 130.6 154.8 128.4 154.8 126.3 Z M 160 132.4 C 160 132.4 160.04 130.43 160 130.4 C 166.6 122.9 168.8 120.5 168.8 117.5 C 168.8 115.4 167.3 114.2 165.6 114.2 C 163.7 114.2 162.3 115.1 161.4 116.7 C 161.4 116.7 159.8 115.3 159.8 115.3 C 161.1 113.2 163.1 112.1 165.6 112.1 C 168.7 112.1 171.3 114 171.3 117.5 C 171.3 120.9 168.7 123.9 163.4 130.2 C 163.43 130.25 171.3 130.2 171.3 130.2 L 171.3 132.4 L 160 132.4 Z M 178.1 132.4 L 178.1 115.5 L 175 118.8 L 173.6 117.3 L 178.4 112.4 L 180.5 112.4 L 180.5 132.4 L 178.1 132.4 Z M 184.4 131.1 C 184.4 130.2 185.1 129.5 186 129.5 C 186.9 129.5 187.6 130.2 187.6 131.1 C 187.6 132 186.9 132.7 186 132.7 C 185.1 132.7 184.4 132 184.4 131.1 Z M 190.8 122.4 C 190.8 117 192.7 112.1 197.6 112.1 C 199.7 112.1 201.3 113.1 202.2 114.6 C 202.2 114.6 200.9 116.2 200.9 116.2 C 200.2 115 199.2 114.2 197.6 114.2 C 194.4 114.2 193.2 118.4 193.2 122.2 C 193.2 122.4 193.2 122.5 193.2 122.8 C 193.9 121.4 195.6 119.8 197.7 119.8 C 200.6 119.8 202.9 122 202.9 126.2 C 202.9 129.6 200.8 132.7 197.1 132.7 C 192.4 132.7 190.8 127.7 190.8 122.4 Z M 200.5 126.3 C 200.5 123.1 198.9 121.9 197.1 121.9 C 195.4 121.9 194 123.3 193.3 125 C 193.4 127.2 194.2 130.6 197 130.6 C 199.4 130.6 200.5 128.4 200.5 126.3 Z M 205.8 132.4 C 205.8 132.4 205.75 130.43 205.8 130.4 C 212.3 122.9 214.5 120.5 214.5 117.5 C 214.5 115.4 213 114.2 211.3 114.2 C 209.4 114.2 208.1 115.1 207.1 116.7 C 207.1 116.7 205.5 115.3 205.5 115.3 C 206.9 113.2 208.8 112.1 211.4 112.1 C 214.4 112.1 217 114 217 117.5 C 217 120.9 214.5 123.9 209.1 130.2 C 209.14 130.25 217.1 130.2 217.1 130.2 L 217.1 132.4 L 205.8 132.4 Z " stroke="none" fill="#d0d1d4"/>  </g>  <g id="Polygon218225">    <path d="M 140.3 86.4 C 140.3 81 142.2 76.1 147 76.1 C 149.1 76.1 150.7 77.1 151.7 78.6 C 151.7 78.6 150.4 80.2 150.4 80.2 C 149.6 79 148.7 78.2 147 78.2 C 143.9 78.2 142.7 82.4 142.7 86.2 C 142.7 86.4 142.7 86.5 142.7 86.8 C 143.4 85.4 145 83.8 147.1 83.8 C 150 83.8 152.4 86 152.4 90.2 C 152.4 93.6 150.3 96.7 146.6 96.7 C 141.8 96.7 140.3 91.7 140.3 86.4 Z M 149.9 90.3 C 149.9 87.1 148.4 85.9 146.5 85.9 C 144.8 85.9 143.5 87.3 142.7 89 C 142.9 91.2 143.7 94.6 146.5 94.6 C 148.9 94.6 149.9 92.4 149.9 90.3 Z M 155 86.4 C 155 81 156.9 76.1 161.8 76.1 C 163.9 76.1 165.5 77.1 166.5 78.6 C 166.5 78.6 165.1 80.2 165.1 80.2 C 164.4 79 163.5 78.2 161.8 78.2 C 158.6 78.2 157.4 82.4 157.4 86.2 C 157.4 86.4 157.4 86.5 157.5 86.8 C 158.1 85.4 159.8 83.8 161.9 83.8 C 164.8 83.8 167.1 86 167.1 90.2 C 167.1 93.6 165 96.7 161.4 96.7 C 156.6 96.7 155 91.7 155 86.4 Z M 164.7 90.3 C 164.7 87.1 163.2 85.9 161.3 85.9 C 159.6 85.9 158.2 87.3 157.5 89 C 157.6 91.2 158.4 94.6 161.2 94.6 C 163.6 94.6 164.7 92.4 164.7 90.3 Z M 170 96.4 C 170 96.4 169.97 94.43 170 94.4 C 176.5 86.9 178.8 84.5 178.8 81.5 C 178.8 79.4 177.3 78.2 175.5 78.2 C 173.7 78.2 172.3 79.1 171.3 80.7 C 171.3 80.7 169.8 79.3 169.8 79.3 C 171.1 77.2 173 76.1 175.6 76.1 C 178.6 76.1 181.2 78 181.2 81.5 C 181.2 84.9 178.7 87.9 173.4 94.2 C 173.36 94.25 181.3 94.2 181.3 94.2 L 181.3 96.4 L 170 96.4 Z M 184.9 95.1 C 184.9 94.2 185.6 93.5 186.5 93.5 C 187.3 93.5 188.1 94.2 188.1 95.1 C 188.1 96 187.3 96.7 186.5 96.7 C 185.6 96.7 184.9 96 184.9 95.1 Z M 190.8 93.4 C 190.8 93.4 192.3 92 192.3 92 C 193.2 93.5 194.7 94.6 196.6 94.6 C 199 94.6 200.2 93.1 200.2 90.8 C 200.2 88.1 198.5 87.2 196.4 87.2 C 195.8 87.2 195.1 87.2 194.8 87.2 C 194.8 87.2 194.8 85 194.8 85 C 195.1 85.1 195.9 85.1 196.4 85.1 C 198.4 85.1 200 84 200 81.7 C 200 79.3 198.6 78.2 196.5 78.2 C 194.8 78.2 193.5 79.1 192.5 80.6 C 192.5 80.6 191 79.2 191 79.2 C 192.2 77.3 194.2 76.1 196.7 76.1 C 199.9 76.1 202.4 77.8 202.4 81.4 C 202.4 83.9 200.6 85.6 198.8 86 C 200.6 86.3 202.6 88.1 202.6 91 C 202.6 94.3 200.5 96.7 196.7 96.7 C 193.8 96.7 191.8 95.2 190.8 93.4 Z M 205.5 86.4 C 205.5 81 207.4 76.1 212.2 76.1 C 214.3 76.1 215.9 77.1 216.9 78.6 C 216.9 78.6 215.6 80.2 215.6 80.2 C 214.8 79 213.9 78.2 212.3 78.2 C 209.1 78.2 207.9 82.4 207.9 86.2 C 207.9 86.4 207.9 86.5 207.9 86.8 C 208.6 85.4 210.3 83.8 212.3 83.8 C 215.2 83.8 217.6 86 217.6 90.2 C 217.6 93.6 215.5 96.7 211.8 96.7 C 207 96.7 205.5 91.7 205.5 86.4 Z M 215.1 90.3 C 215.1 87.1 213.6 85.9 211.7 85.9 C 210 85.9 208.7 87.3 207.9 89 C 208.1 91.2 208.9 94.6 211.7 94.6 C 214.1 94.6 215.1 92.4 215.1 90.3 Z " stroke="none" fill="#d0d1d4"/>  </g>  <g id="Polygon218224">    <path d="M 149.4 60.4 L 149.4 43.5 L 146.3 46.8 L 144.9 45.3 L 149.7 40.4 L 151.8 40.4 L 151.8 60.4 L 149.4 60.4 Z M 155.8 58.2 C 155.8 58.2 157.1 56.5 157.1 56.5 C 157.9 57.8 158.8 58.6 160.5 58.6 C 163.7 58.6 164.8 54.3 164.8 50.6 C 164.8 50.3 164.8 50.2 164.8 50 C 164.1 51.4 162.5 52.9 160.4 52.9 C 157.5 52.9 155.1 50.8 155.1 46.5 C 155.1 43.2 157.2 40 160.9 40 C 165.7 40 167.2 45 167.2 50.4 C 167.2 55.8 165.3 60.7 160.5 60.7 C 158.4 60.7 156.8 59.7 155.8 58.2 Z M 164.7 47.8 C 164.6 45.6 163.8 42.2 161 42.2 C 158.6 42.2 157.6 44.4 157.6 46.5 C 157.6 49.7 159.1 50.9 161 50.9 C 162.7 50.9 164 49.4 164.7 47.8 Z M 170 55.5 C 170 52.8 172 50.8 174 50.1 C 172.2 49.4 170.3 47.7 170.3 45.2 C 170.3 41.7 173.1 40.1 175.9 40.1 C 178.8 40.1 181.6 41.7 181.6 45.2 C 181.6 47.7 179.7 49.4 177.9 50.1 C 179.9 50.8 181.9 52.8 181.9 55.4 C 181.9 58.7 179.4 60.7 175.9 60.7 C 172.4 60.7 170 58.7 170 55.5 Z M 179.2 45.5 C 179.2 43.5 177.9 42.2 175.9 42.2 C 174 42.2 172.7 43.5 172.7 45.5 C 172.7 47.9 175.2 48.9 175.9 49.2 C 176.7 48.9 179.2 47.9 179.2 45.5 Z M 179.5 55.2 C 179.5 52.5 176.8 51.2 175.9 51 C 175.1 51.2 172.4 52.5 172.4 55.2 C 172.4 57.3 174 58.6 175.9 58.6 C 177.9 58.6 179.5 57.3 179.5 55.2 Z M 185.1 59.1 C 185.1 58.2 185.8 57.5 186.6 57.5 C 187.5 57.5 188.3 58.2 188.3 59.1 C 188.3 60 187.5 60.7 186.6 60.7 C 185.8 60.7 185.1 60 185.1 59.1 Z M 191.4 55.5 C 191.4 52.8 193.4 50.8 195.4 50.1 C 193.6 49.4 191.7 47.7 191.7 45.2 C 191.7 41.7 194.5 40.1 197.4 40.1 C 200.2 40.1 203 41.7 203 45.2 C 203 47.7 201.1 49.4 199.3 50.1 C 201.3 50.8 203.3 52.8 203.3 55.4 C 203.3 58.7 200.8 60.7 197.4 60.7 C 193.8 60.7 191.4 58.7 191.4 55.5 Z M 200.6 45.5 C 200.6 43.5 199.3 42.2 197.4 42.2 C 195.4 42.2 194.1 43.5 194.1 45.5 C 194.1 47.9 196.6 48.9 197.4 49.2 C 198.1 48.9 200.6 47.9 200.6 45.5 Z M 200.9 55.2 C 200.9 52.5 198.2 51.2 197.4 51 C 196.5 51.2 193.8 52.5 193.8 55.2 C 193.8 57.3 195.4 58.6 197.4 58.6 C 199.3 58.6 200.9 57.3 200.9 55.2 Z M 205.5 57.4 C 205.5 57.4 207.1 56 207.1 56 C 208 57.5 209.5 58.6 211.4 58.6 C 213.8 58.6 215 57.1 215 54.8 C 215 52.1 213.2 51.2 211.2 51.2 C 210.6 51.2 209.9 51.2 209.6 51.2 C 209.6 51.2 209.6 49 209.6 49 C 209.9 49.1 210.6 49.1 211.1 49.1 C 213.1 49.1 214.8 48 214.8 45.7 C 214.8 43.3 213.3 42.2 211.3 42.2 C 209.5 42.2 208.3 43.1 207.3 44.6 C 207.3 44.6 205.8 43.2 205.8 43.2 C 207 41.3 209 40.1 211.5 40.1 C 214.7 40.1 217.1 41.8 217.1 45.4 C 217.1 47.9 215.4 49.6 213.6 50 C 215.3 50.3 217.4 52.1 217.4 55 C 217.4 58.3 215.3 60.7 211.5 60.7 C 208.6 60.7 206.5 59.2 205.5 57.4 Z " stroke="none" fill="#d0d1d4"/>  </g>  <g id="Polygon218223">    <path d="M 147.9 24.4 L 147.9 7.5 L 144.8 10.8 L 143.4 9.3 L 148.2 4.4 L 150.3 4.4 L 150.3 24.4 L 147.9 24.4 Z M 154.3 22.2 C 154.3 22.2 155.6 20.5 155.6 20.5 C 156.4 21.8 157.3 22.6 159 22.6 C 162.2 22.6 163.3 18.3 163.3 14.6 C 163.3 14.3 163.3 14.2 163.3 14 C 162.6 15.4 161 16.9 158.9 16.9 C 156 16.9 153.6 14.8 153.6 10.5 C 153.6 7.2 155.7 4 159.4 4 C 164.2 4 165.7 9 165.7 14.4 C 165.7 19.8 163.8 24.7 159 24.7 C 156.9 24.7 155.3 23.7 154.3 22.2 Z M 163.2 11.8 C 163.1 9.6 162.3 6.2 159.5 6.2 C 157.1 6.2 156.1 8.4 156.1 10.5 C 156.1 13.7 157.6 14.9 159.5 14.9 C 161.2 14.9 162.5 13.4 163.2 11.8 Z M 169.1 22.2 C 169.1 22.2 170.4 20.5 170.4 20.5 C 171.1 21.8 172.1 22.6 173.7 22.6 C 177 22.6 178.1 18.3 178.1 14.6 C 178.1 14.3 178.1 14.2 178.1 14 C 177.4 15.4 175.7 16.9 173.7 16.9 C 170.7 16.9 168.4 14.8 168.4 10.5 C 168.4 7.2 170.5 4 174.2 4 C 178.9 4 180.5 9 180.5 14.4 C 180.5 19.8 178.5 24.7 173.7 24.7 C 171.6 24.7 170.1 23.7 169.1 22.2 Z M 178 11.8 C 177.9 9.6 177.1 6.2 174.3 6.2 C 171.9 6.2 170.8 8.4 170.8 10.5 C 170.8 13.7 172.4 14.9 174.3 14.9 C 175.9 14.9 177.3 13.4 178 11.8 Z M 183.7 23.1 C 183.7 22.2 184.5 21.5 185.3 21.5 C 186.2 21.5 186.9 22.2 186.9 23.1 C 186.9 24 186.2 24.7 185.3 24.7 C 184.5 24.7 183.7 24 183.7 23.1 Z M 190.3 21.5 C 190.3 21.5 191.9 20 191.9 20 C 192.9 21.7 194.2 22.6 196.1 22.6 C 198.3 22.6 199.7 20.6 199.7 18.3 C 199.7 15.4 198.3 13.8 196.3 13.8 C 194.9 13.8 193.8 14.4 192.6 15.7 C 192.64 15.71 190.9 15.1 190.9 15.1 L 190.9 4.4 L 201.1 4.4 L 201.1 6.5 L 193.2 6.5 C 193.2 6.5 193.24 13.49 193.2 13.5 C 194 12.5 195.3 11.7 196.9 11.7 C 199.8 11.7 202.1 14 202.1 18.2 C 202.1 22 199.7 24.7 196.2 24.7 C 193.2 24.7 191.5 23.5 190.3 21.5 Z M 204.9 14.4 C 204.9 9.6 206.5 4.1 211.2 4.1 C 215.8 4.1 217.4 9.6 217.4 14.4 C 217.4 19.2 215.8 24.7 211.2 24.7 C 206.5 24.7 204.9 19.2 204.9 14.4 Z M 215 14.4 C 215 10.4 214.2 6.2 211.2 6.2 C 208.1 6.2 207.3 10.4 207.3 14.4 C 207.3 18.3 208.1 22.6 211.2 22.6 C 214.2 22.6 215 18.3 215 14.4 Z " stroke="none" fill="#d0d1d4"/>  </g></svg>