<?xml version="1.0" standalone="no"?><!DOCTYPE svg PUBLIC "-//W3C//DTD SVG 1.1//EN" "http://www.w3.org/Graphics/SVG/1.1/DTD/svg11.dtd"><svg xmlns="http://www.w3.org/2000/svg" version="1.1" width="274px" height="440.3px" viewBox="0 0 274 440.3">  <desc>Alcanivorase extract Geosmin oxide Pentastistryl hydroxide Bromophenol Tetraxanthane Trimethylamine oxide Sodium flav</desc>  <defs/>  <g id="Polygon158373">    <path d="M 2.1 284.7 L 2.1 264.7 L 4.5 264.7 L 4.5 284.7 L 2.1 284.7 Z M 7.6 277.4 C 7.6 273.4 9.6 269.9 13.4 269.9 C 17.3 269.9 19.3 273.4 19.3 277.4 C 19.3 281.5 17.3 285.1 13.4 285.1 C 9.6 285.1 7.6 281.5 7.6 277.4 Z M 17.1 277.4 C 17.1 274.5 16 271.8 13.4 271.8 C 10.9 271.8 9.8 274.5 9.8 277.4 C 9.8 280.4 10.9 283.1 13.4 283.1 C 16 283.1 17.1 280.4 17.1 277.4 Z M 30.6 284.7 C 30.6 284.7 30.57 282.63 30.6 282.6 C 29.7 284.1 28.3 285.1 26.8 285.1 C 23.5 285.1 21.6 282 21.6 277.5 C 21.6 273 23.5 269.9 26.8 269.9 C 28.2 269.9 29.7 270.7 30.6 272.3 C 30.57 272.31 30.6 264.7 30.6 264.7 L 32.7 264.7 L 32.7 284.7 L 30.6 284.7 Z M 30.6 280.8 C 30.6 280.8 30.6 274.1 30.6 274.1 C 30 272.9 28.7 271.8 27.3 271.8 C 24.9 271.8 23.8 274.3 23.8 277.5 C 23.8 280.6 24.9 283.1 27.3 283.1 C 28.7 283.1 30 282.1 30.6 280.8 Z M 36 266.6 C 36 265.8 36.7 265.2 37.4 265.2 C 38.2 265.2 38.9 265.8 38.9 266.6 C 38.9 267.5 38.2 268.1 37.4 268.1 C 36.7 268.1 36 267.5 36 266.6 Z M 36.4 284.7 L 36.4 270.2 L 38.5 270.2 L 38.5 284.7 L 36.4 284.7 Z M 41 283 C 41 283 42.1 281.5 42.1 281.5 C 42.9 282.5 44.3 283.3 45.9 283.3 C 47.5 283.3 48.7 282.4 48.7 281 C 48.7 277.6 41.4 278.8 41.4 273.8 C 41.4 271.6 43.2 269.9 46 269.9 C 48 269.9 49.4 270.6 50.5 271.7 C 50.5 271.7 49.4 273.2 49.4 273.2 C 48.7 272.2 47.5 271.6 46.1 271.6 C 44.5 271.6 43.5 272.5 43.5 273.7 C 43.5 276.8 50.7 275.7 50.7 280.9 C 50.7 283.3 48.9 285.1 45.9 285.1 C 43.9 285.1 42.2 284.4 41 283 Z M 52.8 277.4 C 52.8 273.2 55 269.9 58.6 269.9 C 62.5 269.9 64.4 273.3 64.4 277.5 C 64.38 277.5 64.4 278.2 64.4 278.2 C 64.4 278.2 54.99 278.16 55 278.2 C 55.1 281.1 56.6 283.3 59.2 283.3 C 60.4 283.3 61.7 282.6 62.6 281.5 C 62.6 281.5 63.7 282.8 63.7 282.8 C 62.6 284.2 60.9 285.1 59 285.1 C 55.1 285.1 52.8 281.9 52.8 277.4 Z M 58.6 271.7 C 56.1 271.7 55 274.4 55 276.6 C 55 276.6 62.2 276.6 62.2 276.6 C 62.2 274.4 61.3 271.7 58.6 271.7 Z M 75.5 284.7 C 75.5 284.7 75.51 282.63 75.5 282.6 C 74.7 284.1 73.2 285.1 71.7 285.1 C 68.5 285.1 66.5 282 66.5 277.5 C 66.5 273 68.4 269.9 71.7 269.9 C 73.2 269.9 74.6 270.7 75.5 272.3 C 75.51 272.31 75.5 264.7 75.5 264.7 L 77.7 264.7 L 77.7 284.7 L 75.5 284.7 Z M 75.5 280.8 C 75.5 280.8 75.5 274.1 75.5 274.1 C 75 272.9 73.6 271.8 72.2 271.8 C 69.9 271.8 68.8 274.3 68.8 277.5 C 68.8 280.6 69.9 283.1 72.2 283.1 C 73.6 283.1 75 282.1 75.5 280.8 Z M 86.3 283 C 86.3 283 87.4 281.5 87.4 281.5 C 88.2 282.5 89.6 283.3 91.2 283.3 C 92.8 283.3 94 282.4 94 281 C 94 277.6 86.7 278.8 86.7 273.8 C 86.7 271.6 88.5 269.9 91.3 269.9 C 93.3 269.9 94.7 270.6 95.8 271.7 C 95.8 271.7 94.7 273.2 94.7 273.2 C 94 272.2 92.8 271.6 91.4 271.6 C 89.8 271.6 88.8 272.5 88.8 273.7 C 88.8 276.8 96 275.7 96 280.9 C 96 283.3 94.2 285.1 91.2 285.1 C 89.2 285.1 87.5 284.4 86.3 283 Z M 106.2 284.7 C 106.2 284.7 106.23 283.14 106.2 283.1 C 105.3 284.5 103.9 285.1 102.4 285.1 C 100.1 285.1 98 283.3 98 280.2 C 98 277.2 100 275.5 102.4 275.5 C 103.9 275.5 105.3 276 106.2 277.3 C 106.2 277.3 106.2 274.8 106.2 274.8 C 106.2 272.8 105.1 271.7 103.3 271.7 C 101.9 271.7 100.7 272.2 99.6 273.5 C 99.6 273.5 98.7 272 98.7 272 C 100 270.5 101.8 269.9 103.6 269.9 C 106.5 269.9 108.4 271.3 108.4 274.6 C 108.39 274.56 108.4 284.7 108.4 284.7 L 106.2 284.7 Z M 106.2 281.7 C 106.2 281.7 106.2 278.9 106.2 278.9 C 105.6 277.7 104.4 277.1 103.1 277.1 C 101.3 277.1 100.2 278.5 100.2 280.3 C 100.2 282.1 101.3 283.5 103.1 283.5 C 104.4 283.5 105.6 282.9 106.2 281.7 Z M 112 284.7 L 112 264.7 L 114.1 264.7 L 114.1 284.7 L 112 284.7 Z M 118.2 281.8 C 118.23 281.79 118.2 272.1 118.2 272.1 L 116.3 272.1 L 116.3 270.2 L 118.2 270.2 L 118.2 266.3 L 120.4 266.3 L 120.4 270.2 L 122.8 270.2 L 122.8 272.1 L 120.4 272.1 C 120.4 272.1 120.39 281.4 120.4 281.4 C 120.4 282.5 120.7 283.1 121.6 283.1 C 122.1 283.1 122.5 282.9 122.8 282.6 C 122.8 282.6 123.5 284.2 123.5 284.2 C 123 284.7 122.2 285.1 121.1 285.1 C 119.2 285.1 118.2 284 118.2 281.8 Z " stroke="none" fill="#d3d2d2"/>  </g>  <g id="Polygon158372">    <path d="M 0.9 246.5 C 0.9 246.5 2.2 244.7 2.2 244.7 C 3.2 245.9 4.9 246.9 6.8 246.9 C 9.4 246.9 10.5 245.4 10.5 243.7 C 10.5 238.8 1.5 240.1 1.5 233.6 C 1.5 230.6 3.9 228.4 7.2 228.4 C 9.4 228.4 11.2 229.1 12.5 230.5 C 12.5 230.5 11.3 232.3 11.3 232.3 C 10.2 231.1 8.7 230.5 7.1 230.5 C 5.3 230.5 3.9 231.7 3.9 233.5 C 3.9 237.7 12.9 236.8 12.9 243.5 C 12.9 246.5 11 249.1 6.8 249.1 C 4.2 249.1 2.2 248.1 0.9 246.5 Z M 15.1 241.4 C 15.1 237.4 17.1 233.9 20.9 233.9 C 24.8 233.9 26.8 237.4 26.8 241.4 C 26.8 245.5 24.8 249.1 20.9 249.1 C 17.1 249.1 15.1 245.5 15.1 241.4 Z M 24.6 241.4 C 24.6 238.5 23.5 235.8 20.9 235.8 C 18.4 235.8 17.3 238.5 17.3 241.4 C 17.3 244.4 18.4 247.1 20.9 247.1 C 23.5 247.1 24.6 244.4 24.6 241.4 Z M 38.1 248.7 C 38.1 248.7 38.07 246.63 38.1 246.6 C 37.2 248.1 35.8 249.1 34.3 249.1 C 31 249.1 29.1 246 29.1 241.5 C 29.1 237 31 233.9 34.3 233.9 C 35.7 233.9 37.2 234.7 38.1 236.3 C 38.07 236.31 38.1 228.7 38.1 228.7 L 40.2 228.7 L 40.2 248.7 L 38.1 248.7 Z M 38.1 244.8 C 38.1 244.8 38.1 238.1 38.1 238.1 C 37.5 236.9 36.2 235.8 34.8 235.8 C 32.4 235.8 31.3 238.3 31.3 241.5 C 31.3 244.6 32.4 247.1 34.8 247.1 C 36.2 247.1 37.5 246.1 38.1 244.8 Z M 43.5 230.6 C 43.5 229.8 44.2 229.2 44.9 229.2 C 45.7 229.2 46.4 229.8 46.4 230.6 C 46.4 231.5 45.7 232.1 44.9 232.1 C 44.2 232.1 43.5 231.5 43.5 230.6 Z M 43.9 248.7 L 43.9 234.2 L 46 234.2 L 46 248.7 L 43.9 248.7 Z M 57.5 248.7 C 57.5 248.7 57.51 246.69 57.5 246.7 C 56.6 248 55.1 249.1 53.3 249.1 C 50.8 249.1 49.7 247.8 49.7 245.2 C 49.68 245.19 49.7 234.2 49.7 234.2 L 51.8 234.2 C 51.8 234.2 51.81 244.56 51.8 244.6 C 51.8 246.5 52.7 247.1 54.1 247.1 C 55.6 247.1 56.9 246.1 57.5 244.9 C 57.51 244.89 57.5 234.2 57.5 234.2 L 59.7 234.2 L 59.7 248.7 L 57.5 248.7 Z M 78 248.7 C 78 248.7 77.97 238.2 78 238.2 C 78 236.6 77.3 235.8 76 235.8 C 74.7 235.8 73.4 236.9 72.8 238.1 C 72.81 238.08 72.8 248.7 72.8 248.7 L 70.6 248.7 C 70.6 248.7 70.65 238.2 70.6 238.2 C 70.6 236.6 70 235.8 68.6 235.8 C 67.3 235.8 66.1 236.9 65.5 238.1 C 65.46 238.08 65.5 248.7 65.5 248.7 L 63.3 248.7 L 63.3 234.2 L 65.5 234.2 C 65.5 234.2 65.46 236.28 65.5 236.3 C 66.1 235.2 67.7 233.9 69.4 233.9 C 71.3 233.9 72.4 234.9 72.7 236.4 C 73.4 235.1 75 233.9 76.8 233.9 C 78.9 233.9 80.1 235 80.1 237.6 C 80.13 237.63 80.1 248.7 80.1 248.7 L 78 248.7 Z M 90.4 248.7 L 90.4 236.1 L 88.5 236.1 L 88.5 234.2 L 90.4 234.2 C 90.4 234.2 90.45 232.44 90.4 232.4 C 90.4 229.9 91.9 228.4 94 228.4 C 94.7 228.4 95.3 228.5 95.8 228.8 C 95.8 228.8 95.3 230.5 95.3 230.5 C 95.1 230.3 94.8 230.2 94.3 230.2 C 93.2 230.2 92.6 231 92.6 232.4 C 92.61 232.44 92.6 234.2 92.6 234.2 L 95.1 234.2 L 95.1 236.1 L 92.6 236.1 L 92.6 248.7 L 90.4 248.7 Z M 97.6 248.7 L 97.6 228.7 L 99.7 228.7 L 99.7 248.7 L 97.6 248.7 Z M 110.8 248.7 C 110.8 248.7 110.79 247.14 110.8 247.1 C 109.9 248.5 108.4 249.1 107 249.1 C 104.6 249.1 102.6 247.3 102.6 244.2 C 102.6 241.2 104.6 239.5 107 239.5 C 108.4 239.5 109.9 240 110.8 241.3 C 110.8 241.3 110.8 238.8 110.8 238.8 C 110.8 236.8 109.7 235.7 107.8 235.7 C 106.5 235.7 105.3 236.2 104.2 237.5 C 104.2 237.5 103.2 236 103.2 236 C 104.6 234.5 106.3 233.9 108.1 233.9 C 111 233.9 112.9 235.3 112.9 238.6 C 112.95 238.56 112.9 248.7 112.9 248.7 L 110.8 248.7 Z M 110.8 245.7 C 110.8 245.7 110.8 242.9 110.8 242.9 C 110.1 241.7 108.9 241.1 107.7 241.1 C 105.9 241.1 104.8 242.5 104.8 244.3 C 104.8 246.1 105.9 247.5 107.7 247.5 C 108.9 247.5 110.1 246.9 110.8 245.7 Z M 119.5 248.7 L 114.8 234.2 L 117.1 234.2 L 120.7 246.2 L 124.3 234.2 L 126.7 234.2 L 121.9 248.7 L 119.5 248.7 Z M 127.8 241.4 C 127.8 237.4 129.8 233.9 133.7 233.9 C 137.6 233.9 139.6 237.4 139.6 241.4 C 139.6 245.5 137.6 249.1 133.7 249.1 C 129.8 249.1 127.8 245.5 127.8 241.4 Z M 137.3 241.4 C 137.3 238.5 136.2 235.8 133.7 235.8 C 131.2 235.8 130 238.5 130 241.4 C 130 244.4 131.2 247.1 133.7 247.1 C 136.2 247.1 137.3 244.4 137.3 241.4 Z M 150.4 248.7 C 150.4 248.7 150.36 238.38 150.4 238.4 C 150.4 236.5 149.5 235.8 148 235.8 C 146.6 235.8 145.3 236.9 144.7 238.1 C 144.66 238.08 144.7 248.7 144.7 248.7 L 142.5 248.7 L 142.5 234.2 L 144.7 234.2 C 144.7 234.2 144.66 236.28 144.7 236.3 C 145.5 235 147.1 233.9 148.9 233.9 C 151.3 233.9 152.5 235.2 152.5 237.8 C 152.52 237.78 152.5 248.7 152.5 248.7 L 150.4 248.7 Z M 155.5 241.4 C 155.5 237.4 157.5 233.9 161.3 233.9 C 165.2 233.9 167.2 237.4 167.2 241.4 C 167.2 245.5 165.2 249.1 161.3 249.1 C 157.5 249.1 155.5 245.5 155.5 241.4 Z M 165 241.4 C 165 238.5 163.9 235.8 161.3 235.8 C 158.8 235.8 157.7 238.5 157.7 241.4 C 157.7 244.4 158.8 247.1 161.3 247.1 C 163.9 247.1 165 244.4 165 241.4 Z M 177.6 248.7 C 177.6 248.7 177.63 247.14 177.6 247.1 C 176.7 248.5 175.3 249.1 173.8 249.1 C 171.5 249.1 169.4 247.3 169.4 244.2 C 169.4 241.2 171.4 239.5 173.8 239.5 C 175.3 239.5 176.7 240 177.6 241.3 C 177.6 241.3 177.6 238.8 177.6 238.8 C 177.6 236.8 176.5 235.7 174.7 235.7 C 173.3 235.7 172.1 236.2 171 237.5 C 171 237.5 170.1 236 170.1 236 C 171.4 234.5 173.2 233.9 175 233.9 C 177.9 233.9 179.8 235.3 179.8 238.6 C 179.79 238.56 179.8 248.7 179.8 248.7 L 177.6 248.7 Z M 177.6 245.7 C 177.6 245.7 177.6 242.9 177.6 242.9 C 177 241.7 175.8 241.1 174.5 241.1 C 172.7 241.1 171.6 242.5 171.6 244.3 C 171.6 246.1 172.7 247.5 174.5 247.5 C 175.8 247.5 177 246.9 177.6 245.7 Z M 183.8 245.8 C 183.84 245.79 183.8 236.1 183.8 236.1 L 181.9 236.1 L 181.9 234.2 L 183.8 234.2 L 183.8 230.3 L 186 230.3 L 186 234.2 L 188.5 234.2 L 188.5 236.1 L 186 236.1 C 186 236.1 186 245.4 186 245.4 C 186 246.5 186.3 247.1 187.2 247.1 C 187.7 247.1 188.2 246.9 188.4 246.6 C 188.4 246.6 189.1 248.2 189.1 248.2 C 188.6 248.7 187.9 249.1 186.7 249.1 C 184.8 249.1 183.8 248 183.8 245.8 Z M 190.3 241.4 C 190.3 237.2 192.5 233.9 196.2 233.9 C 200 233.9 201.9 237.3 201.9 241.5 C 201.9 241.5 201.9 242.2 201.9 242.2 C 201.9 242.2 192.51 242.16 192.5 242.2 C 192.6 245.1 194.1 247.3 196.7 247.3 C 197.9 247.3 199.2 246.6 200.1 245.5 C 200.1 245.5 201.3 246.8 201.3 246.8 C 200.1 248.2 198.4 249.1 196.5 249.1 C 192.6 249.1 190.3 245.9 190.3 241.4 Z M 196.1 235.7 C 193.6 235.7 192.6 238.4 192.5 240.6 C 192.5 240.6 199.8 240.6 199.8 240.6 C 199.7 238.4 198.8 235.7 196.1 235.7 Z " stroke="none" fill="#d3d2d2"/>  </g>  <g id="Polygon158371">    <path d="M 5.5 212.7 L 5.5 194.8 L 0.8 194.8 L 0.8 192.7 L 12.6 192.7 L 12.6 194.8 L 7.9 194.8 L 7.9 212.7 L 5.5 212.7 Z M 13.3 212.7 L 13.3 198.2 L 15.4 198.2 C 15.4 198.2 15.39 200.52 15.4 200.5 C 16.3 199 17.7 197.9 19.5 197.9 C 19.5 197.9 19.5 200.1 19.5 200.1 C 19.3 200.1 19 200 18.8 200 C 17.5 200 16 201.2 15.4 202.4 C 15.39 202.41 15.4 212.7 15.4 212.7 L 13.3 212.7 Z M 21.3 194.6 C 21.3 193.8 22 193.2 22.7 193.2 C 23.5 193.2 24.2 193.8 24.2 194.6 C 24.2 195.5 23.5 196.1 22.7 196.1 C 22 196.1 21.3 195.5 21.3 194.6 Z M 21.7 212.7 L 21.7 198.2 L 23.8 198.2 L 23.8 212.7 L 21.7 212.7 Z M 42.1 212.7 C 42.1 212.7 42.12 202.2 42.1 202.2 C 42.1 200.6 41.5 199.8 40.1 199.8 C 38.8 199.8 37.5 200.9 37 202.1 C 36.96 202.08 37 212.7 37 212.7 L 34.8 212.7 C 34.8 212.7 34.8 202.2 34.8 202.2 C 34.8 200.6 34.2 199.8 32.8 199.8 C 31.5 199.8 30.2 200.9 29.6 202.1 C 29.61 202.08 29.6 212.7 29.6 212.7 L 27.5 212.7 L 27.5 198.2 L 29.6 198.2 C 29.6 198.2 29.61 200.28 29.6 200.3 C 30.2 199.2 31.8 197.9 33.6 197.9 C 35.4 197.9 36.6 198.9 36.8 200.4 C 37.6 199.1 39.2 197.9 40.9 197.9 C 43 197.9 44.3 199 44.3 201.6 C 44.28 201.63 44.3 212.7 44.3 212.7 L 42.1 212.7 Z M 47.2 205.4 C 47.2 201.2 49.4 197.9 53.1 197.9 C 56.9 197.9 58.8 201.3 58.8 205.5 C 58.83 205.5 58.8 206.2 58.8 206.2 C 58.8 206.2 49.44 206.16 49.4 206.2 C 49.5 209.1 51 211.3 53.6 211.3 C 54.9 211.3 56.2 210.6 57.1 209.5 C 57.1 209.5 58.2 210.8 58.2 210.8 C 57 212.2 55.4 213.1 53.4 213.1 C 49.6 213.1 47.2 209.9 47.2 205.4 Z M 53.1 199.7 C 50.5 199.7 49.5 202.4 49.4 204.6 C 49.4 204.6 56.7 204.6 56.7 204.6 C 56.7 202.4 55.7 199.7 53.1 199.7 Z M 62.1 209.8 C 62.1 209.79 62.1 200.1 62.1 200.1 L 60.2 200.1 L 60.2 198.2 L 62.1 198.2 L 62.1 194.3 L 64.3 194.3 L 64.3 198.2 L 66.7 198.2 L 66.7 200.1 L 64.3 200.1 C 64.3 200.1 64.26 209.4 64.3 209.4 C 64.3 210.5 64.6 211.1 65.4 211.1 C 66 211.1 66.4 210.9 66.7 210.6 C 66.7 210.6 67.3 212.2 67.3 212.2 C 66.8 212.7 66.1 213.1 65 213.1 C 63 213.1 62.1 212 62.1 209.8 Z M 77.1 212.7 C 77.1 212.7 77.13 202.35 77.1 202.4 C 77.1 200.4 76.2 199.8 74.8 199.8 C 73.4 199.8 72.1 200.9 71.4 202.1 C 71.4 202.08 71.4 212.7 71.4 212.7 L 69.3 212.7 L 69.3 192.7 L 71.4 192.7 C 71.4 192.7 71.4 200.28 71.4 200.3 C 72.2 199 73.9 197.9 75.6 197.9 C 78.1 197.9 79.3 199.1 79.3 201.7 C 79.26 201.72 79.3 212.7 79.3 212.7 L 77.1 212.7 Z M 82.5 216.5 C 82.8 216.6 83.2 216.7 83.5 216.7 C 84.3 216.7 84.8 216.3 85.2 215.2 C 85.17 215.22 85.9 213 85.9 213 L 81.1 198.2 L 83.5 198.2 L 87.1 210.1 L 90.7 198.2 L 93 198.2 C 93 198.2 87.21 215.76 87.2 215.8 C 86.5 217.9 85.3 218.6 83.6 218.6 C 83.2 218.6 82.5 218.5 82.2 218.4 C 82.2 218.4 82.5 216.5 82.5 216.5 Z M 94.9 212.7 L 94.9 192.7 L 97 192.7 L 97 212.7 L 94.9 212.7 Z M 108.1 212.7 C 108.1 212.7 108.09 211.14 108.1 211.1 C 107.2 212.5 105.7 213.1 104.3 213.1 C 101.9 213.1 99.9 211.3 99.9 208.2 C 99.9 205.2 101.9 203.5 104.3 203.5 C 105.7 203.5 107.2 204 108.1 205.3 C 108.1 205.3 108.1 202.8 108.1 202.8 C 108.1 200.8 107 199.7 105.1 199.7 C 103.8 199.7 102.6 200.2 101.5 201.5 C 101.5 201.5 100.5 200 100.5 200 C 101.9 198.5 103.6 197.9 105.4 197.9 C 108.3 197.9 110.2 199.3 110.2 202.6 C 110.25 202.56 110.2 212.7 110.2 212.7 L 108.1 212.7 Z M 108.1 209.7 C 108.1 209.7 108.1 206.9 108.1 206.9 C 107.4 205.7 106.2 205.1 105 205.1 C 103.2 205.1 102.1 206.5 102.1 208.3 C 102.1 210.1 103.2 211.5 105 211.5 C 106.2 211.5 107.4 210.9 108.1 209.7 Z M 128.5 212.7 C 128.5 212.7 128.52 202.2 128.5 202.2 C 128.5 200.6 127.9 199.8 126.5 199.8 C 125.2 199.8 123.9 200.9 123.4 202.1 C 123.36 202.08 123.4 212.7 123.4 212.7 L 121.2 212.7 C 121.2 212.7 121.2 202.2 121.2 202.2 C 121.2 200.6 120.6 199.8 119.2 199.8 C 117.9 199.8 116.6 200.9 116 202.1 C 116.01 202.08 116 212.7 116 212.7 L 113.9 212.7 L 113.9 198.2 L 116 198.2 C 116 198.2 116.01 200.28 116 200.3 C 116.6 199.2 118.2 197.9 120 197.9 C 121.8 197.9 123 198.9 123.2 200.4 C 124 199.1 125.6 197.9 127.3 197.9 C 129.4 197.9 130.7 199 130.7 201.6 C 130.68 201.63 130.7 212.7 130.7 212.7 L 128.5 212.7 Z M 133.9 194.6 C 133.9 193.8 134.6 193.2 135.4 193.2 C 136.2 193.2 136.9 193.8 136.9 194.6 C 136.9 195.5 136.2 196.1 135.4 196.1 C 134.6 196.1 133.9 195.5 133.9 194.6 Z M 134.3 212.7 L 134.3 198.2 L 136.5 198.2 L 136.5 212.7 L 134.3 212.7 Z M 148 212.7 C 148 212.7 147.96 202.38 148 202.4 C 148 200.5 147.1 199.8 145.6 199.8 C 144.2 199.8 142.9 200.9 142.3 202.1 C 142.26 202.08 142.3 212.7 142.3 212.7 L 140.1 212.7 L 140.1 198.2 L 142.3 198.2 C 142.3 198.2 142.26 200.28 142.3 200.3 C 143.1 199 144.7 197.9 146.5 197.9 C 148.9 197.9 150.1 199.2 150.1 201.8 C 150.12 201.78 150.1 212.7 150.1 212.7 L 148 212.7 Z M 153.1 205.4 C 153.1 201.2 155.3 197.9 158.9 197.9 C 162.7 197.9 164.7 201.3 164.7 205.5 C 164.67 205.5 164.7 206.2 164.7 206.2 C 164.7 206.2 155.28 206.16 155.3 206.2 C 155.4 209.1 156.9 211.3 159.4 211.3 C 160.7 211.3 162 210.6 162.9 209.5 C 162.9 209.5 164 210.8 164 210.8 C 162.9 212.2 161.2 213.1 159.3 213.1 C 155.4 213.1 153.1 209.9 153.1 205.4 Z M 158.9 199.7 C 156.4 199.7 155.3 202.4 155.3 204.6 C 155.3 204.6 162.5 204.6 162.5 204.6 C 162.5 202.4 161.5 199.7 158.9 199.7 Z M 172.9 205.4 C 172.9 201.4 175 197.9 178.8 197.9 C 182.7 197.9 184.7 201.4 184.7 205.4 C 184.7 209.5 182.7 213.1 178.8 213.1 C 175 213.1 172.9 209.5 172.9 205.4 Z M 182.5 205.4 C 182.5 202.5 181.4 199.8 178.8 199.8 C 176.3 199.8 175.2 202.5 175.2 205.4 C 175.2 208.4 176.3 211.1 178.8 211.1 C 181.4 211.1 182.5 208.4 182.5 205.4 Z M 194.4 212.7 L 191 206.9 L 187.7 212.7 L 185.3 212.7 L 189.7 205.3 L 185.5 198.2 L 187.9 198.2 L 191 203.7 L 194.1 198.2 L 196.5 198.2 L 192.4 205.3 L 196.8 212.7 L 194.4 212.7 Z M 198.4 194.6 C 198.4 193.8 199.1 193.2 199.9 193.2 C 200.7 193.2 201.3 193.8 201.3 194.6 C 201.3 195.5 200.7 196.1 199.9 196.1 C 199.1 196.1 198.4 195.5 198.4 194.6 Z M 198.8 212.7 L 198.8 198.2 L 200.9 198.2 L 200.9 212.7 L 198.8 212.7 Z M 212.9 212.7 C 212.9 212.7 212.87 210.63 212.9 210.6 C 212 212.1 210.6 213.1 209.1 213.1 C 205.8 213.1 203.9 210 203.9 205.5 C 203.9 201 205.8 197.9 209.1 197.9 C 210.5 197.9 212 198.7 212.9 200.3 C 212.87 200.31 212.9 192.7 212.9 192.7 L 215 192.7 L 215 212.7 L 212.9 212.7 Z M 212.9 208.8 C 212.9 208.8 212.9 202.1 212.9 202.1 C 212.3 200.9 211 199.8 209.6 199.8 C 207.2 199.8 206.1 202.3 206.1 205.5 C 206.1 208.6 207.2 211.1 209.6 211.1 C 211 211.1 212.3 210.1 212.9 208.8 Z M 218 205.4 C 218 201.2 220.2 197.9 223.9 197.9 C 227.7 197.9 229.6 201.3 229.6 205.5 C 229.58 205.5 229.6 206.2 229.6 206.2 C 229.6 206.2 220.19 206.16 220.2 206.2 C 220.3 209.1 221.8 211.3 224.4 211.3 C 225.6 211.3 226.9 210.6 227.8 209.5 C 227.8 209.5 229 210.8 229 210.8 C 227.8 212.2 226.1 213.1 224.2 213.1 C 220.3 213.1 218 209.9 218 205.4 Z M 223.8 199.7 C 221.3 199.7 220.3 202.4 220.2 204.6 C 220.2 204.6 227.5 204.6 227.5 204.6 C 227.4 202.4 226.5 199.7 223.8 199.7 Z " stroke="none" fill="#d3d2d2"/>  </g>  <g id="Polygon158370">    <path d="M 5.5 176.7 L 5.5 158.8 L 0.8 158.8 L 0.8 156.7 L 12.6 156.7 L 12.6 158.8 L 7.9 158.8 L 7.9 176.7 L 5.5 176.7 Z M 11.9 169.4 C 11.9 165.2 14.1 161.9 17.7 161.9 C 21.5 161.9 23.5 165.3 23.5 169.5 C 23.46 169.5 23.5 170.2 23.5 170.2 C 23.5 170.2 14.07 170.16 14.1 170.2 C 14.2 173.1 15.7 175.3 18.2 175.3 C 19.5 175.3 20.8 174.6 21.7 173.5 C 21.7 173.5 22.8 174.8 22.8 174.8 C 21.7 176.2 20 177.1 18.1 177.1 C 14.2 177.1 11.9 173.9 11.9 169.4 Z M 17.7 163.7 C 15.2 163.7 14.1 166.4 14.1 168.6 C 14.1 168.6 21.3 168.6 21.3 168.6 C 21.3 166.4 20.3 163.7 17.7 163.7 Z M 26.7 173.8 C 26.73 173.79 26.7 164.1 26.7 164.1 L 24.8 164.1 L 24.8 162.2 L 26.7 162.2 L 26.7 158.3 L 28.9 158.3 L 28.9 162.2 L 31.3 162.2 L 31.3 164.1 L 28.9 164.1 C 28.9 164.1 28.89 173.4 28.9 173.4 C 28.9 174.5 29.2 175.1 30.1 175.1 C 30.6 175.1 31 174.9 31.3 174.6 C 31.3 174.6 32 176.2 32 176.2 C 31.5 176.7 30.7 177.1 29.6 177.1 C 27.7 177.1 26.7 176 26.7 173.8 Z M 33.9 176.7 L 33.9 162.2 L 36 162.2 C 36 162.2 36.03 164.52 36 164.5 C 37 163 38.4 161.9 40.1 161.9 C 40.1 161.9 40.1 164.1 40.1 164.1 C 39.9 164.1 39.7 164 39.4 164 C 38.1 164 36.6 165.2 36 166.4 C 36.03 166.41 36 176.7 36 176.7 L 33.9 176.7 Z M 49.8 176.7 C 49.8 176.7 49.77 175.14 49.8 175.1 C 48.8 176.5 47.4 177.1 46 177.1 C 43.6 177.1 41.6 175.3 41.6 172.2 C 41.6 169.2 43.6 167.5 46 167.5 C 47.4 167.5 48.9 168 49.8 169.3 C 49.8 169.3 49.8 166.8 49.8 166.8 C 49.8 164.8 48.7 163.7 46.8 163.7 C 45.4 163.7 44.3 164.2 43.2 165.5 C 43.2 165.5 42.2 164 42.2 164 C 43.6 162.5 45.3 161.9 47.1 161.9 C 50 161.9 51.9 163.3 51.9 166.6 C 51.93 166.56 51.9 176.7 51.9 176.7 L 49.8 176.7 Z M 49.8 173.7 C 49.8 173.7 49.8 170.9 49.8 170.9 C 49.1 169.7 47.9 169.1 46.6 169.1 C 44.8 169.1 43.8 170.5 43.8 172.3 C 43.8 174.1 44.8 175.5 46.6 175.5 C 47.9 175.5 49.1 174.9 49.8 173.7 Z M 63 176.7 L 59.7 170.9 L 56.3 176.7 L 53.9 176.7 L 58.3 169.3 L 54.2 162.2 L 56.6 162.2 L 59.7 167.7 L 62.8 162.2 L 65.2 162.2 L 61 169.3 L 65.4 176.7 L 63 176.7 Z M 74.9 176.7 C 74.9 176.7 74.88 175.14 74.9 175.1 C 73.9 176.5 72.5 177.1 71.1 177.1 C 68.7 177.1 66.7 175.3 66.7 172.2 C 66.7 169.2 68.7 167.5 71.1 167.5 C 72.5 167.5 74 168 74.9 169.3 C 74.9 169.3 74.9 166.8 74.9 166.8 C 74.9 164.8 73.8 163.7 71.9 163.7 C 70.6 163.7 69.4 164.2 68.3 165.5 C 68.3 165.5 67.3 164 67.3 164 C 68.7 162.5 70.4 161.9 72.2 161.9 C 75.1 161.9 77 163.3 77 166.6 C 77.04 166.56 77 176.7 77 176.7 L 74.9 176.7 Z M 74.9 173.7 C 74.9 173.7 74.9 170.9 74.9 170.9 C 74.2 169.7 73 169.1 71.8 169.1 C 70 169.1 68.9 170.5 68.9 172.3 C 68.9 174.1 70 175.5 71.8 175.5 C 73 175.5 74.2 174.9 74.9 173.7 Z M 88.5 176.7 C 88.5 176.7 88.5 166.38 88.5 166.4 C 88.5 164.5 87.6 163.8 86.2 163.8 C 84.8 163.8 83.5 164.9 82.8 166.1 C 82.8 166.08 82.8 176.7 82.8 176.7 L 80.7 176.7 L 80.7 162.2 L 82.8 162.2 C 82.8 162.2 82.8 164.28 82.8 164.3 C 83.6 163 85.3 161.9 87 161.9 C 89.5 161.9 90.7 163.2 90.7 165.8 C 90.66 165.78 90.7 176.7 90.7 176.7 L 88.5 176.7 Z M 94.7 173.8 C 94.74 173.79 94.7 164.1 94.7 164.1 L 92.8 164.1 L 92.8 162.2 L 94.7 162.2 L 94.7 158.3 L 96.9 158.3 L 96.9 162.2 L 99.4 162.2 L 99.4 164.1 L 96.9 164.1 C 96.9 164.1 96.9 173.4 96.9 173.4 C 96.9 174.5 97.2 175.1 98.1 175.1 C 98.6 175.1 99.1 174.9 99.3 174.6 C 99.3 174.6 100 176.2 100 176.2 C 99.5 176.7 98.8 177.1 97.6 177.1 C 95.7 177.1 94.7 176 94.7 173.8 Z M 109.8 176.7 C 109.8 176.7 109.77 166.35 109.8 166.4 C 109.8 164.4 108.9 163.8 107.4 163.8 C 106 163.8 104.7 164.9 104 166.1 C 104.04 166.08 104 176.7 104 176.7 L 101.9 176.7 L 101.9 156.7 L 104 156.7 C 104 156.7 104.04 164.28 104 164.3 C 104.9 163 106.5 161.9 108.3 161.9 C 110.7 161.9 111.9 163.1 111.9 165.7 C 111.9 165.72 111.9 176.7 111.9 176.7 L 109.8 176.7 Z M 123 176.7 C 123 176.7 123 175.14 123 175.1 C 122.1 176.5 120.7 177.1 119.2 177.1 C 116.8 177.1 114.8 175.3 114.8 172.2 C 114.8 169.2 116.8 167.5 119.2 167.5 C 120.7 167.5 122.1 168 123 169.3 C 123 169.3 123 166.8 123 166.8 C 123 164.8 121.9 163.7 120 163.7 C 118.7 163.7 117.5 164.2 116.4 165.5 C 116.4 165.5 115.4 164 115.4 164 C 116.8 162.5 118.5 161.9 120.4 161.9 C 123.2 161.9 125.2 163.3 125.2 166.6 C 125.16 166.56 125.2 176.7 125.2 176.7 L 123 176.7 Z M 123 173.7 C 123 173.7 123 170.9 123 170.9 C 122.3 169.7 121.1 169.1 119.9 169.1 C 118.1 169.1 117 170.5 117 172.3 C 117 174.1 118.1 175.5 119.9 175.5 C 121.1 175.5 122.3 174.9 123 173.7 Z M 136.6 176.7 C 136.6 176.7 136.62 166.38 136.6 166.4 C 136.6 164.5 135.7 163.8 134.3 163.8 C 132.9 163.8 131.6 164.9 130.9 166.1 C 130.92 166.08 130.9 176.7 130.9 176.7 L 128.8 176.7 L 128.8 162.2 L 130.9 162.2 C 130.9 162.2 130.92 164.28 130.9 164.3 C 131.8 163 133.4 161.9 135.1 161.9 C 137.6 161.9 138.8 163.2 138.8 165.8 C 138.78 165.78 138.8 176.7 138.8 176.7 L 136.6 176.7 Z M 141.7 169.4 C 141.7 165.2 143.9 161.9 147.6 161.9 C 151.4 161.9 153.3 165.3 153.3 169.5 C 153.33 169.5 153.3 170.2 153.3 170.2 C 153.3 170.2 143.94 170.16 143.9 170.2 C 144 173.1 145.5 175.3 148.1 175.3 C 149.4 175.3 150.7 174.6 151.6 173.5 C 151.6 173.5 152.7 174.8 152.7 174.8 C 151.5 176.2 149.9 177.1 147.9 177.1 C 144.1 177.1 141.7 173.9 141.7 169.4 Z M 147.6 163.7 C 145 163.7 144 166.4 143.9 168.6 C 143.9 168.6 151.2 168.6 151.2 168.6 C 151.2 166.4 150.2 163.7 147.6 163.7 Z " stroke="none" fill="#d3d2d2"/>  </g>  <g id="Polygon158369">    <path d="M 2.1 140.7 L 2.1 120.7 C 2.1 120.7 8.73 120.69 8.7 120.7 C 11.9 120.7 13.7 122.8 13.7 125.8 C 13.7 128.3 12.4 129.9 10.6 130.4 C 12.6 130.7 14 132.9 14 135.3 C 14 138.5 12.3 140.7 8.9 140.7 C 8.91 140.7 2.1 140.7 2.1 140.7 Z M 11.2 126.1 C 11.2 124.3 10.3 122.8 8.3 122.8 C 8.28 122.79 4.5 122.8 4.5 122.8 L 4.5 129.4 C 4.5 129.4 8.28 129.42 8.3 129.4 C 10.3 129.4 11.2 128 11.2 126.1 Z M 11.6 135.1 C 11.6 133.2 10.6 131.5 8.4 131.5 C 8.43 131.52 4.5 131.5 4.5 131.5 L 4.5 138.6 C 4.5 138.6 8.43 138.57 8.4 138.6 C 10.5 138.6 11.6 137.3 11.6 135.1 Z M 17.2 140.7 L 17.2 126.2 L 19.3 126.2 C 19.3 126.2 19.29 128.52 19.3 128.5 C 20.2 127 21.6 125.9 23.4 125.9 C 23.4 125.9 23.4 128.1 23.4 128.1 C 23.2 128.1 22.9 128 22.7 128 C 21.4 128 19.9 129.2 19.3 130.4 C 19.29 130.41 19.3 140.7 19.3 140.7 L 17.2 140.7 Z M 24.9 133.4 C 24.9 129.4 26.9 125.9 30.7 125.9 C 34.6 125.9 36.7 129.4 36.7 133.4 C 36.7 137.5 34.6 141.1 30.7 141.1 C 26.9 141.1 24.9 137.5 24.9 133.4 Z M 34.4 133.4 C 34.4 130.5 33.3 127.8 30.7 127.8 C 28.3 127.8 27.1 130.5 27.1 133.4 C 27.1 136.4 28.3 139.1 30.7 139.1 C 33.3 139.1 34.4 136.4 34.4 133.4 Z M 54.2 140.7 C 54.2 140.7 54.24 130.2 54.2 130.2 C 54.2 128.6 53.6 127.8 52.2 127.8 C 50.9 127.8 49.6 128.9 49.1 130.1 C 49.08 130.08 49.1 140.7 49.1 140.7 L 46.9 140.7 C 46.9 140.7 46.92 130.2 46.9 130.2 C 46.9 128.6 46.3 127.8 44.9 127.8 C 43.6 127.8 42.4 128.9 41.7 130.1 C 41.73 130.08 41.7 140.7 41.7 140.7 L 39.6 140.7 L 39.6 126.2 L 41.7 126.2 C 41.7 126.2 41.73 128.28 41.7 128.3 C 42.3 127.2 43.9 125.9 45.7 125.9 C 47.5 125.9 48.7 126.9 49 128.4 C 49.7 127.1 51.3 125.9 53 125.9 C 55.2 125.9 56.4 127 56.4 129.6 C 56.4 129.63 56.4 140.7 56.4 140.7 L 54.2 140.7 Z M 59.3 133.4 C 59.3 129.4 61.4 125.9 65.2 125.9 C 69.1 125.9 71.1 129.4 71.1 133.4 C 71.1 137.5 69.1 141.1 65.2 141.1 C 61.4 141.1 59.3 137.5 59.3 133.4 Z M 68.9 133.4 C 68.9 130.5 67.8 127.8 65.2 127.8 C 62.7 127.8 61.6 130.5 61.6 133.4 C 61.6 136.4 62.7 139.1 65.2 139.1 C 67.8 139.1 68.9 136.4 68.9 133.4 Z M 76.2 138.6 C 76.2 138.6 76.2 146.2 76.2 146.2 L 74.1 146.2 L 74.1 126.2 L 76.2 126.2 C 76.2 126.2 76.2 128.28 76.2 128.3 C 77 126.8 78.5 125.9 80 125.9 C 83.3 125.9 85.2 128.9 85.2 133.4 C 85.2 138 83.3 141.1 80 141.1 C 78.5 141.1 77.1 140.2 76.2 138.6 Z M 82.9 133.4 C 82.9 130.3 81.8 127.8 79.5 127.8 C 78.1 127.8 76.8 128.9 76.2 130.1 C 76.2 130.1 76.2 136.7 76.2 136.7 C 76.8 138 78.1 139.1 79.5 139.1 C 81.8 139.1 82.9 136.6 82.9 133.4 Z M 96 140.7 C 96 140.7 95.97 130.35 96 130.4 C 96 128.4 95.1 127.8 93.6 127.8 C 92.2 127.8 90.9 128.9 90.2 130.1 C 90.24 130.08 90.2 140.7 90.2 140.7 L 88.1 140.7 L 88.1 120.7 L 90.2 120.7 C 90.2 120.7 90.24 128.28 90.2 128.3 C 91.1 127 92.7 125.9 94.5 125.9 C 96.9 125.9 98.1 127.1 98.1 129.7 C 98.1 129.72 98.1 140.7 98.1 140.7 L 96 140.7 Z M 101 133.4 C 101 129.2 103.3 125.9 106.9 125.9 C 110.7 125.9 112.6 129.3 112.6 133.5 C 112.65 133.5 112.6 134.2 112.6 134.2 C 112.6 134.2 103.26 134.16 103.3 134.2 C 103.3 137.1 104.8 139.3 107.4 139.3 C 108.7 139.3 110 138.6 110.9 137.5 C 110.9 137.5 112 138.8 112 138.8 C 110.8 140.2 109.2 141.1 107.2 141.1 C 103.4 141.1 101 137.9 101 133.4 Z M 106.9 127.7 C 104.3 127.7 103.3 130.4 103.3 132.6 C 103.3 132.6 110.5 132.6 110.5 132.6 C 110.5 130.4 109.5 127.7 106.9 127.7 Z M 123.3 140.7 C 123.3 140.7 123.33 130.38 123.3 130.4 C 123.3 128.5 122.5 127.8 121 127.8 C 119.6 127.8 118.3 128.9 117.6 130.1 C 117.63 130.08 117.6 140.7 117.6 140.7 L 115.5 140.7 L 115.5 126.2 L 117.6 126.2 C 117.6 126.2 117.63 128.28 117.6 128.3 C 118.5 127 120.1 125.9 121.8 125.9 C 124.3 125.9 125.5 127.2 125.5 129.8 C 125.49 129.78 125.5 140.7 125.5 140.7 L 123.3 140.7 Z M 128.4 133.4 C 128.4 129.4 130.5 125.9 134.3 125.9 C 138.2 125.9 140.2 129.4 140.2 133.4 C 140.2 137.5 138.2 141.1 134.3 141.1 C 130.5 141.1 128.4 137.5 128.4 133.4 Z M 138 133.4 C 138 130.5 136.9 127.8 134.3 127.8 C 131.8 127.8 130.7 130.5 130.7 133.4 C 130.7 136.4 131.8 139.1 134.3 139.1 C 136.9 139.1 138 136.4 138 133.4 Z M 143.2 140.7 L 143.2 120.7 L 145.3 120.7 L 145.3 140.7 L 143.2 140.7 Z " stroke="none" fill="#d3d2d2"/>  </g>  <g id="Polygon158368">    <path d="M 2.1 104.7 L 2.1 84.7 C 2.1 84.7 8.19 84.69 8.2 84.7 C 11.8 84.7 13.7 87.5 13.7 90.7 C 13.7 93.9 11.8 96.7 8.2 96.7 C 8.19 96.69 4.5 96.7 4.5 96.7 L 4.5 104.7 L 2.1 104.7 Z M 11.3 90.7 C 11.3 88.4 10 86.8 7.9 86.8 C 7.95 86.79 4.5 86.8 4.5 86.8 L 4.5 94.6 C 4.5 94.6 7.95 94.59 7.9 94.6 C 10 94.6 11.3 93 11.3 90.7 Z M 15.1 97.4 C 15.1 93.2 17.3 89.9 20.9 89.9 C 24.8 89.9 26.7 93.3 26.7 97.5 C 26.67 97.5 26.7 98.2 26.7 98.2 C 26.7 98.2 17.28 98.16 17.3 98.2 C 17.4 101.1 18.9 103.3 21.5 103.3 C 22.7 103.3 24 102.6 24.9 101.5 C 24.9 101.5 26 102.8 26 102.8 C 24.9 104.2 23.2 105.1 21.3 105.1 C 17.4 105.1 15.1 101.9 15.1 97.4 Z M 20.9 91.7 C 18.4 91.7 17.3 94.4 17.3 96.6 C 17.3 96.6 24.5 96.6 24.5 96.6 C 24.5 94.4 23.6 91.7 20.9 91.7 Z M 37.3 104.7 C 37.3 104.7 37.35 94.38 37.3 94.4 C 37.3 92.5 36.5 91.8 35 91.8 C 33.6 91.8 32.3 92.9 31.6 94.1 C 31.65 94.08 31.6 104.7 31.6 104.7 L 29.5 104.7 L 29.5 90.2 L 31.6 90.2 C 31.6 90.2 31.65 92.28 31.6 92.3 C 32.5 91 34.1 89.9 35.8 89.9 C 38.3 89.9 39.5 91.2 39.5 93.8 C 39.51 93.78 39.5 104.7 39.5 104.7 L 37.3 104.7 Z M 43.6 101.8 C 43.59 101.79 43.6 92.1 43.6 92.1 L 41.7 92.1 L 41.7 90.2 L 43.6 90.2 L 43.6 86.3 L 45.7 86.3 L 45.7 90.2 L 48.2 90.2 L 48.2 92.1 L 45.7 92.1 C 45.7 92.1 45.75 101.4 45.7 101.4 C 45.7 102.5 46.1 103.1 46.9 103.1 C 47.5 103.1 47.9 102.9 48.2 102.6 C 48.2 102.6 48.8 104.2 48.8 104.2 C 48.3 104.7 47.6 105.1 46.5 105.1 C 44.5 105.1 43.6 104 43.6 101.8 Z M 58.2 104.7 C 58.2 104.7 58.2 103.14 58.2 103.1 C 57.3 104.5 55.9 105.1 54.4 105.1 C 52 105.1 50 103.3 50 100.2 C 50 97.2 52 95.5 54.4 95.5 C 55.9 95.5 57.3 96 58.2 97.3 C 58.2 97.3 58.2 94.8 58.2 94.8 C 58.2 92.8 57.1 91.7 55.2 91.7 C 53.9 91.7 52.7 92.2 51.6 93.5 C 51.6 93.5 50.6 92 50.6 92 C 52 90.5 53.7 89.9 55.6 89.9 C 58.4 89.9 60.4 91.3 60.4 94.6 C 60.36 94.56 60.4 104.7 60.4 104.7 L 58.2 104.7 Z M 58.2 101.7 C 58.2 101.7 58.2 98.9 58.2 98.9 C 57.5 97.7 56.3 97.1 55.1 97.1 C 53.3 97.1 52.2 98.5 52.2 100.3 C 52.2 102.1 53.3 103.5 55.1 103.5 C 56.3 103.5 57.5 102.9 58.2 101.7 Z M 62.8 103 C 62.8 103 63.9 101.5 63.9 101.5 C 64.7 102.5 66.1 103.3 67.7 103.3 C 69.4 103.3 70.5 102.4 70.5 101 C 70.5 97.6 63.2 98.8 63.2 93.8 C 63.2 91.6 65 89.9 67.9 89.9 C 69.8 89.9 71.2 90.6 72.3 91.7 C 72.3 91.7 71.2 93.2 71.2 93.2 C 70.5 92.2 69.3 91.6 67.9 91.6 C 66.3 91.6 65.3 92.5 65.3 93.7 C 65.3 96.8 72.5 95.7 72.5 100.9 C 72.5 103.3 70.7 105.1 67.7 105.1 C 65.7 105.1 64 104.4 62.8 103 Z M 75.7 101.8 C 75.72 101.79 75.7 92.1 75.7 92.1 L 73.8 92.1 L 73.8 90.2 L 75.7 90.2 L 75.7 86.3 L 77.9 86.3 L 77.9 90.2 L 80.3 90.2 L 80.3 92.1 L 77.9 92.1 C 77.9 92.1 77.88 101.4 77.9 101.4 C 77.9 102.5 78.2 103.1 79 103.1 C 79.6 103.1 80 102.9 80.3 102.6 C 80.3 102.6 81 104.2 81 104.2 C 80.5 104.7 79.7 105.1 78.6 105.1 C 76.6 105.1 75.7 104 75.7 101.8 Z M 82.5 86.6 C 82.5 85.8 83.2 85.2 83.9 85.2 C 84.7 85.2 85.4 85.8 85.4 86.6 C 85.4 87.5 84.7 88.1 83.9 88.1 C 83.2 88.1 82.5 87.5 82.5 86.6 Z M 82.9 104.7 L 82.9 90.2 L 85 90.2 L 85 104.7 L 82.9 104.7 Z M 87.5 103 C 87.5 103 88.6 101.5 88.6 101.5 C 89.4 102.5 90.8 103.3 92.4 103.3 C 94 103.3 95.2 102.4 95.2 101 C 95.2 97.6 87.9 98.8 87.9 93.8 C 87.9 91.6 89.7 89.9 92.5 89.9 C 94.5 89.9 95.9 90.6 97 91.7 C 97 91.7 95.9 93.2 95.9 93.2 C 95.2 92.2 94 91.6 92.6 91.6 C 91 91.6 90 92.5 90 93.7 C 90 96.8 97.2 95.7 97.2 100.9 C 97.2 103.3 95.4 105.1 92.4 105.1 C 90.4 105.1 88.7 104.4 87.5 103 Z M 100.4 101.8 C 100.41 101.79 100.4 92.1 100.4 92.1 L 98.5 92.1 L 98.5 90.2 L 100.4 90.2 L 100.4 86.3 L 102.6 86.3 L 102.6 90.2 L 105 90.2 L 105 92.1 L 102.6 92.1 C 102.6 92.1 102.57 101.4 102.6 101.4 C 102.6 102.5 102.9 103.1 103.7 103.1 C 104.3 103.1 104.7 102.9 105 102.6 C 105 102.6 105.7 104.2 105.7 104.2 C 105.1 104.7 104.4 105.1 103.3 105.1 C 101.3 105.1 100.4 104 100.4 101.8 Z M 107.6 104.7 L 107.6 90.2 L 109.7 90.2 C 109.7 90.2 109.71 92.52 109.7 92.5 C 110.6 91 112 89.9 113.8 89.9 C 113.8 89.9 113.8 92.1 113.8 92.1 C 113.6 92.1 113.3 92 113.1 92 C 111.8 92 110.3 93.2 109.7 94.4 C 109.71 94.41 109.7 104.7 109.7 104.7 L 107.6 104.7 Z M 115.6 108.5 C 115.9 108.6 116.3 108.7 116.5 108.7 C 117.4 108.7 117.9 108.3 118.3 107.2 C 118.26 107.22 119 105 119 105 L 114.2 90.2 L 116.5 90.2 L 120.1 102.1 L 123.8 90.2 L 126.1 90.2 C 126.1 90.2 120.3 107.76 120.3 107.8 C 119.6 109.9 118.4 110.6 116.7 110.6 C 116.2 110.6 115.6 110.5 115.3 110.4 C 115.3 110.4 115.6 108.5 115.6 108.5 Z M 127.9 104.7 L 127.9 84.7 L 130.1 84.7 L 130.1 104.7 L 127.9 104.7 Z M 147.7 104.7 C 147.7 104.7 147.75 94.35 147.7 94.4 C 147.7 92.4 146.8 91.8 145.4 91.8 C 144 91.8 142.7 92.9 142 94.1 C 142.02 94.08 142 104.7 142 104.7 L 139.9 104.7 L 139.9 84.7 L 142 84.7 C 142 84.7 142.02 92.28 142 92.3 C 142.9 91 144.5 89.9 146.2 89.9 C 148.7 89.9 149.9 91.1 149.9 93.7 C 149.88 93.72 149.9 104.7 149.9 104.7 L 147.7 104.7 Z M 153.1 108.5 C 153.4 108.6 153.8 108.7 154.1 108.7 C 154.9 108.7 155.4 108.3 155.8 107.2 C 155.79 107.22 156.6 105 156.6 105 L 151.7 90.2 L 154.1 90.2 L 157.7 102.1 L 161.3 90.2 L 163.6 90.2 C 163.6 90.2 157.83 107.76 157.8 107.8 C 157.1 109.9 155.9 110.6 154.2 110.6 C 153.8 110.6 153.1 110.5 152.8 110.4 C 152.8 110.4 153.1 108.5 153.1 108.5 Z M 173.8 104.7 C 173.8 104.7 173.76 102.63 173.8 102.6 C 172.9 104.1 171.5 105.1 169.9 105.1 C 166.7 105.1 164.8 102 164.8 97.5 C 164.8 93 166.7 89.9 169.9 89.9 C 171.4 89.9 172.9 90.7 173.8 92.3 C 173.76 92.31 173.8 84.7 173.8 84.7 L 175.9 84.7 L 175.9 104.7 L 173.8 104.7 Z M 173.8 100.8 C 173.8 100.8 173.8 94.1 173.8 94.1 C 173.2 92.9 171.9 91.8 170.5 91.8 C 168.1 91.8 167 94.3 167 97.5 C 167 100.6 168.1 103.1 170.5 103.1 C 171.9 103.1 173.2 102.1 173.8 100.8 Z M 179.6 104.7 L 179.6 90.2 L 181.7 90.2 C 181.7 90.2 181.71 92.52 181.7 92.5 C 182.6 91 184 89.9 185.8 89.9 C 185.8 89.9 185.8 92.1 185.8 92.1 C 185.6 92.1 185.3 92 185.1 92 C 183.8 92 182.3 93.2 181.7 94.4 C 181.71 94.41 181.7 104.7 181.7 104.7 L 179.6 104.7 Z M 187.3 97.4 C 187.3 93.4 189.3 89.9 193.2 89.9 C 197.1 89.9 199.1 93.4 199.1 97.4 C 199.1 101.5 197.1 105.1 193.2 105.1 C 189.3 105.1 187.3 101.5 187.3 97.4 Z M 196.8 97.4 C 196.8 94.5 195.7 91.8 193.2 91.8 C 190.7 91.8 189.5 94.5 189.5 97.4 C 189.5 100.4 190.7 103.1 193.2 103.1 C 195.7 103.1 196.8 100.4 196.8 97.4 Z M 208.7 104.7 L 205.4 98.9 L 202 104.7 L 199.6 104.7 L 204.1 97.3 L 199.9 90.2 L 202.3 90.2 L 205.4 95.7 L 208.5 90.2 L 210.9 90.2 L 206.7 97.3 L 211.1 104.7 L 208.7 104.7 Z M 212.7 86.6 C 212.7 85.8 213.4 85.2 214.2 85.2 C 215 85.2 215.7 85.8 215.7 86.6 C 215.7 87.5 215 88.1 214.2 88.1 C 213.4 88.1 212.7 87.5 212.7 86.6 Z M 213.1 104.7 L 213.1 90.2 L 215.3 90.2 L 215.3 104.7 L 213.1 104.7 Z M 227.2 104.7 C 227.2 104.7 227.21 102.63 227.2 102.6 C 226.4 104.1 224.9 105.1 223.4 105.1 C 220.2 105.1 218.2 102 218.2 97.5 C 218.2 93 220.1 89.9 223.4 89.9 C 224.9 89.9 226.3 90.7 227.2 92.3 C 227.21 92.31 227.2 84.7 227.2 84.7 L 229.4 84.7 L 229.4 104.7 L 227.2 104.7 Z M 227.2 100.8 C 227.2 100.8 227.2 94.1 227.2 94.1 C 226.7 92.9 225.3 91.8 223.9 91.8 C 221.6 91.8 220.5 94.3 220.5 97.5 C 220.5 100.6 221.6 103.1 223.9 103.1 C 225.3 103.1 226.7 102.1 227.2 100.8 Z M 232.3 97.4 C 232.3 93.2 234.5 89.9 238.2 89.9 C 242 89.9 243.9 93.3 243.9 97.5 C 243.92 97.5 243.9 98.2 243.9 98.2 C 243.9 98.2 234.53 98.16 234.5 98.2 C 234.6 101.1 236.1 103.3 238.7 103.3 C 240 103.3 241.3 102.6 242.2 101.5 C 242.2 101.5 243.3 102.8 243.3 102.8 C 242.1 104.2 240.5 105.1 238.5 105.1 C 234.7 105.1 232.3 101.9 232.3 97.4 Z M 238.2 91.7 C 235.6 91.7 234.6 94.4 234.5 96.6 C 234.5 96.6 241.8 96.6 241.8 96.6 C 241.8 94.4 240.8 91.7 238.2 91.7 Z " stroke="none" fill="#d3d2d2"/>  </g>  <g id="Polygon158367">    <path d="M 1.4 58.7 C 1.4 52.5 4.5 48.4 9.2 48.4 C 12.1 48.4 13.9 50 15.1 52.1 C 15.1 52.1 13.2 53.1 13.2 53.1 C 12.4 51.6 11 50.5 9.2 50.5 C 6 50.5 3.9 53.8 3.9 58.7 C 3.9 63.6 6 66.9 9.2 66.9 C 10.9 66.9 12.2 66.1 12.9 65.3 C 12.93 65.25 12.9 60.6 12.9 60.6 L 8.2 60.6 L 8.2 58.5 L 15.2 58.5 C 15.2 58.5 15.21 66.15 15.2 66.2 C 13.7 68 11.7 69.1 9.2 69.1 C 4.5 69.1 1.4 64.9 1.4 58.7 Z M 17.8 61.4 C 17.8 57.2 20 53.9 23.7 53.9 C 27.5 53.9 29.4 57.3 29.4 61.5 C 29.43 61.5 29.4 62.2 29.4 62.2 C 29.4 62.2 20.04 62.16 20 62.2 C 20.1 65.1 21.6 67.3 24.2 67.3 C 25.5 67.3 26.8 66.6 27.7 65.5 C 27.7 65.5 28.8 66.8 28.8 66.8 C 27.6 68.2 26 69.1 24 69.1 C 20.2 69.1 17.8 65.9 17.8 61.4 Z M 23.7 55.7 C 21.1 55.7 20.1 58.4 20 60.6 C 20 60.6 27.3 60.6 27.3 60.6 C 27.3 58.4 26.3 55.7 23.7 55.7 Z M 31.6 61.4 C 31.6 57.4 33.6 53.9 37.4 53.9 C 41.3 53.9 43.3 57.4 43.3 61.4 C 43.3 65.5 41.3 69.1 37.4 69.1 C 33.6 69.1 31.6 65.5 31.6 61.4 Z M 41.1 61.4 C 41.1 58.5 40 55.8 37.4 55.8 C 34.9 55.8 33.8 58.5 33.8 61.4 C 33.8 64.4 34.9 67.1 37.4 67.1 C 40 67.1 41.1 64.4 41.1 61.4 Z M 45.1 67 C 45.1 67 46.2 65.5 46.2 65.5 C 47 66.5 48.4 67.3 50 67.3 C 51.7 67.3 52.8 66.4 52.8 65 C 52.8 61.6 45.5 62.8 45.5 57.8 C 45.5 55.6 47.3 53.9 50.2 53.9 C 52.1 53.9 53.5 54.6 54.6 55.7 C 54.6 55.7 53.5 57.2 53.5 57.2 C 52.8 56.2 51.6 55.6 50.2 55.6 C 48.6 55.6 47.6 56.5 47.6 57.7 C 47.6 60.8 54.8 59.7 54.8 64.9 C 54.8 67.3 53 69.1 50 69.1 C 48 69.1 46.3 68.4 45.1 67 Z M 72.2 68.7 C 72.2 68.7 72.24 58.2 72.2 58.2 C 72.2 56.6 71.6 55.8 70.2 55.8 C 68.9 55.8 67.6 56.9 67.1 58.1 C 67.08 58.08 67.1 68.7 67.1 68.7 L 64.9 68.7 C 64.9 68.7 64.92 58.2 64.9 58.2 C 64.9 56.6 64.3 55.8 62.9 55.8 C 61.6 55.8 60.4 56.9 59.7 58.1 C 59.73 58.08 59.7 68.7 59.7 68.7 L 57.6 68.7 L 57.6 54.2 L 59.7 54.2 C 59.7 54.2 59.73 56.28 59.7 56.3 C 60.3 55.2 61.9 53.9 63.7 53.9 C 65.5 53.9 66.7 54.9 67 56.4 C 67.7 55.1 69.3 53.9 71 53.9 C 73.2 53.9 74.4 55 74.4 57.6 C 74.4 57.63 74.4 68.7 74.4 68.7 L 72.2 68.7 Z M 77.6 50.6 C 77.6 49.8 78.3 49.2 79.1 49.2 C 79.9 49.2 80.6 49.8 80.6 50.6 C 80.6 51.5 79.9 52.1 79.1 52.1 C 78.3 52.1 77.6 51.5 77.6 50.6 Z M 78.1 68.7 L 78.1 54.2 L 80.2 54.2 L 80.2 68.7 L 78.1 68.7 Z M 91.7 68.7 C 91.7 68.7 91.68 58.38 91.7 58.4 C 91.7 56.5 90.8 55.8 89.4 55.8 C 88 55.8 86.6 56.9 86 58.1 C 85.98 58.08 86 68.7 86 68.7 L 83.8 68.7 L 83.8 54.2 L 86 54.2 C 86 54.2 85.98 56.28 86 56.3 C 86.8 55 88.4 53.9 90.2 53.9 C 92.6 53.9 93.8 55.2 93.8 57.8 C 93.84 57.78 93.8 68.7 93.8 68.7 L 91.7 68.7 Z M 102.9 61.4 C 102.9 57.4 105 53.9 108.8 53.9 C 112.7 53.9 114.7 57.4 114.7 61.4 C 114.7 65.5 112.7 69.1 108.8 69.1 C 105 69.1 102.9 65.5 102.9 61.4 Z M 112.5 61.4 C 112.5 58.5 111.4 55.8 108.8 55.8 C 106.3 55.8 105.2 58.5 105.2 61.4 C 105.2 64.4 106.3 67.1 108.8 67.1 C 111.4 67.1 112.5 64.4 112.5 61.4 Z M 124.3 68.7 L 121 62.9 L 117.7 68.7 L 115.3 68.7 L 119.7 61.3 L 115.5 54.2 L 117.9 54.2 L 121 59.7 L 124.1 54.2 L 126.5 54.2 L 122.3 61.3 L 126.7 68.7 L 124.3 68.7 Z M 128.4 50.6 C 128.4 49.8 129.1 49.2 129.8 49.2 C 130.6 49.2 131.3 49.8 131.3 50.6 C 131.3 51.5 130.6 52.1 129.8 52.1 C 129.1 52.1 128.4 51.5 128.4 50.6 Z M 128.8 68.7 L 128.8 54.2 L 130.9 54.2 L 130.9 68.7 L 128.8 68.7 Z M 142.9 68.7 C 142.9 68.7 142.86 66.63 142.9 66.6 C 142 68.1 140.6 69.1 139 69.1 C 135.8 69.1 133.9 66 133.9 61.5 C 133.9 57 135.8 53.9 139 53.9 C 140.5 53.9 142 54.7 142.9 56.3 C 142.86 56.31 142.9 48.7 142.9 48.7 L 145 48.7 L 145 68.7 L 142.9 68.7 Z M 142.9 64.8 C 142.9 64.8 142.9 58.1 142.9 58.1 C 142.3 56.9 141 55.8 139.6 55.8 C 137.2 55.8 136.1 58.3 136.1 61.5 C 136.1 64.6 137.2 67.1 139.6 67.1 C 141 67.1 142.3 66.1 142.9 64.8 Z M 148 61.4 C 148 57.2 150.2 53.9 153.8 53.9 C 157.6 53.9 159.6 57.3 159.6 61.5 C 159.57 61.5 159.6 62.2 159.6 62.2 C 159.6 62.2 150.18 62.16 150.2 62.2 C 150.3 65.1 151.8 67.3 154.3 67.3 C 155.6 67.3 156.9 66.6 157.8 65.5 C 157.8 65.5 158.9 66.8 158.9 66.8 C 157.8 68.2 156.1 69.1 154.2 69.1 C 150.3 69.1 148 65.9 148 61.4 Z M 153.8 55.7 C 151.3 55.7 150.2 58.4 150.2 60.6 C 150.2 60.6 157.4 60.6 157.4 60.6 C 157.4 58.4 156.4 55.7 153.8 55.7 Z " stroke="none" fill="#d3d2d2"/>  </g>  <g id="Polygon158366">    <path d="M 12.5 32.7 L 11.2 28.2 L 4.1 28.2 L 2.8 32.7 L 0.2 32.7 L 6.2 12.7 L 9.1 12.7 L 15.1 32.7 L 12.5 32.7 Z M 7.6 15.3 L 4.6 26.1 L 10.7 26.1 L 7.6 15.3 Z M 17.3 32.7 L 17.3 12.7 L 19.4 12.7 L 19.4 32.7 L 17.3 32.7 Z M 22.7 25.4 C 22.7 21.2 25 17.9 28.7 17.9 C 30.7 17.9 31.9 18.7 32.8 19.8 C 32.8 19.8 31.6 21.2 31.6 21.2 C 30.9 20.2 30 19.8 28.9 19.8 C 26.3 19.8 24.9 22.4 24.9 25.4 C 24.9 28.5 26.3 31.1 28.9 31.1 C 30 31.1 30.9 30.7 31.6 29.7 C 31.6 29.7 32.8 31.1 32.8 31.1 C 31.9 32.3 30.7 33.1 28.7 33.1 C 25 33.1 22.7 29.7 22.7 25.4 Z M 43 32.7 C 43 32.7 43.02 31.14 43 31.1 C 42.1 32.5 40.7 33.1 39.2 33.1 C 36.9 33.1 34.8 31.3 34.8 28.2 C 34.8 25.2 36.8 23.5 39.2 23.5 C 40.7 23.5 42.1 24 43 25.3 C 43 25.3 43 22.8 43 22.8 C 43 20.8 41.9 19.7 40 19.7 C 38.7 19.7 37.5 20.2 36.4 21.5 C 36.4 21.5 35.5 20 35.5 20 C 36.8 18.5 38.5 17.9 40.4 17.9 C 43.3 17.9 45.2 19.3 45.2 22.6 C 45.18 22.56 45.2 32.7 45.2 32.7 L 43 32.7 Z M 43 29.7 C 43 29.7 43 26.9 43 26.9 C 42.4 25.7 41.2 25.1 39.9 25.1 C 38.1 25.1 37 26.5 37 28.3 C 37 30.1 38.1 31.5 39.9 31.5 C 41.2 31.5 42.4 30.9 43 29.7 Z M 56.9 32.7 C 56.9 32.7 56.94 22.38 56.9 22.4 C 56.9 20.5 56.1 19.8 54.6 19.8 C 53.2 19.8 51.9 20.9 51.2 22.1 C 51.24 22.08 51.2 32.7 51.2 32.7 L 49.1 32.7 L 49.1 18.2 L 51.2 18.2 C 51.2 18.2 51.24 20.28 51.2 20.3 C 52.1 19 53.7 17.9 55.4 17.9 C 57.9 17.9 59.1 19.2 59.1 21.8 C 59.1 21.78 59.1 32.7 59.1 32.7 L 56.9 32.7 Z M 62.6 14.6 C 62.6 13.8 63.3 13.2 64.1 13.2 C 64.9 13.2 65.6 13.8 65.6 14.6 C 65.6 15.5 64.9 16.1 64.1 16.1 C 63.3 16.1 62.6 15.5 62.6 14.6 Z M 63.1 32.7 L 63.1 18.2 L 65.2 18.2 L 65.2 32.7 L 63.1 32.7 Z M 72.1 32.7 L 67.3 18.2 L 69.7 18.2 L 73.3 30.2 L 76.9 18.2 L 79.2 18.2 L 74.5 32.7 L 72.1 32.7 Z M 80.7 25.4 C 80.7 21.4 82.7 17.9 86.5 17.9 C 90.4 17.9 92.5 21.4 92.5 25.4 C 92.5 29.5 90.4 33.1 86.5 33.1 C 82.7 33.1 80.7 29.5 80.7 25.4 Z M 90.2 25.4 C 90.2 22.5 89.1 19.8 86.5 19.8 C 84.1 19.8 82.9 22.5 82.9 25.4 C 82.9 28.4 84.1 31.1 86.5 31.1 C 89.1 31.1 90.2 28.4 90.2 25.4 Z M 95.7 32.7 L 95.7 18.2 L 97.8 18.2 C 97.8 18.2 97.83 20.52 97.8 20.5 C 98.8 19 100.2 17.9 101.9 17.9 C 101.9 17.9 101.9 20.1 101.9 20.1 C 101.7 20.1 101.5 20 101.2 20 C 99.9 20 98.4 21.2 97.8 22.4 C 97.83 22.41 97.8 32.7 97.8 32.7 L 95.7 32.7 Z M 111.9 32.7 C 111.9 32.7 111.87 31.14 111.9 31.1 C 110.9 32.5 109.5 33.1 108.1 33.1 C 105.7 33.1 103.7 31.3 103.7 28.2 C 103.7 25.2 105.7 23.5 108.1 23.5 C 109.5 23.5 111 24 111.9 25.3 C 111.9 25.3 111.9 22.8 111.9 22.8 C 111.9 20.8 110.8 19.7 108.9 19.7 C 107.5 19.7 106.4 20.2 105.3 21.5 C 105.3 21.5 104.3 20 104.3 20 C 105.7 18.5 107.4 17.9 109.2 17.9 C 112.1 17.9 114 19.3 114 22.6 C 114.03 22.56 114 32.7 114 32.7 L 111.9 32.7 Z M 111.9 29.7 C 111.9 29.7 111.9 26.9 111.9 26.9 C 111.2 25.7 110 25.1 108.7 25.1 C 106.9 25.1 105.9 26.5 105.9 28.3 C 105.9 30.1 106.9 31.5 108.7 31.5 C 110 31.5 111.2 30.9 111.9 29.7 Z M 116.8 31 C 116.8 31 117.9 29.5 117.9 29.5 C 118.7 30.5 120.1 31.3 121.6 31.3 C 123.3 31.3 124.4 30.4 124.4 29 C 124.4 25.6 117.2 26.8 117.2 21.8 C 117.2 19.6 118.9 17.9 121.8 17.9 C 123.7 17.9 125.2 18.6 126.2 19.7 C 126.2 19.7 125.2 21.2 125.2 21.2 C 124.5 20.2 123.3 19.6 121.9 19.6 C 120.3 19.6 119.3 20.5 119.3 21.7 C 119.3 24.8 126.5 23.7 126.5 28.9 C 126.5 31.3 124.6 33.1 121.7 33.1 C 119.6 33.1 118 32.4 116.8 31 Z M 128.8 25.4 C 128.8 21.2 131.1 17.9 134.7 17.9 C 138.5 17.9 140.5 21.3 140.5 25.5 C 140.46 25.5 140.5 26.2 140.5 26.2 C 140.5 26.2 131.07 26.16 131.1 26.2 C 131.2 29.1 132.7 31.3 135.2 31.3 C 136.5 31.3 137.8 30.6 138.7 29.5 C 138.7 29.5 139.8 30.8 139.8 30.8 C 138.7 32.2 137 33.1 135.1 33.1 C 131.2 33.1 128.8 29.9 128.8 25.4 Z M 134.7 19.7 C 132.1 19.7 131.1 22.4 131.1 24.6 C 131.1 24.6 138.3 24.6 138.3 24.6 C 138.3 22.4 137.3 19.7 134.7 19.7 Z M 149.3 25.4 C 149.3 21.2 151.6 17.9 155.2 17.9 C 159 17.9 160.9 21.3 160.9 25.5 C 160.95 25.5 160.9 26.2 160.9 26.2 C 160.9 26.2 151.56 26.16 151.6 26.2 C 151.6 29.1 153.1 31.3 155.7 31.3 C 157 31.3 158.3 30.6 159.2 29.5 C 159.2 29.5 160.3 30.8 160.3 30.8 C 159.1 32.2 157.5 33.1 155.5 33.1 C 151.7 33.1 149.3 29.9 149.3 25.4 Z M 155.2 19.7 C 152.6 19.7 151.6 22.4 151.6 24.6 C 151.6 24.6 158.8 24.6 158.8 24.6 C 158.8 22.4 157.8 19.7 155.2 19.7 Z M 171.5 32.7 L 168.2 26.9 L 164.9 32.7 L 162.5 32.7 L 166.9 25.3 L 162.7 18.2 L 165.1 18.2 L 168.2 23.7 L 171.3 18.2 L 173.7 18.2 L 169.5 25.3 L 173.9 32.7 L 171.5 32.7 Z M 176.7 29.8 C 176.7 29.79 176.7 20.1 176.7 20.1 L 174.8 20.1 L 174.8 18.2 L 176.7 18.2 L 176.7 14.3 L 178.9 14.3 L 178.9 18.2 L 181.3 18.2 L 181.3 20.1 L 178.9 20.1 C 178.9 20.1 178.86 29.4 178.9 29.4 C 178.9 30.5 179.2 31.1 180 31.1 C 180.6 31.1 181 30.9 181.3 30.6 C 181.3 30.6 181.9 32.2 181.9 32.2 C 181.4 32.7 180.7 33.1 179.6 33.1 C 177.6 33.1 176.7 32 176.7 29.8 Z M 184.2 32.7 L 184.2 18.2 L 186.3 18.2 C 186.3 18.2 186.29 20.52 186.3 20.5 C 187.2 19 188.6 17.9 190.4 17.9 C 190.4 17.9 190.4 20.1 190.4 20.1 C 190.2 20.1 189.9 20 189.7 20 C 188.4 20 186.9 21.2 186.3 22.4 C 186.29 22.41 186.3 32.7 186.3 32.7 L 184.2 32.7 Z M 200.3 32.7 C 200.3 32.7 200.33 31.14 200.3 31.1 C 199.4 32.5 198 33.1 196.5 33.1 C 194.2 33.1 192.1 31.3 192.1 28.2 C 192.1 25.2 194.2 23.5 196.5 23.5 C 198 23.5 199.4 24 200.3 25.3 C 200.3 25.3 200.3 22.8 200.3 22.8 C 200.3 20.8 199.3 19.7 197.4 19.7 C 196 19.7 194.8 20.2 193.7 21.5 C 193.7 21.5 192.8 20 192.8 20 C 194.2 18.5 195.9 17.9 197.7 17.9 C 200.6 17.9 202.5 19.3 202.5 22.6 C 202.49 22.56 202.5 32.7 202.5 32.7 L 200.3 32.7 Z M 200.3 29.7 C 200.3 29.7 200.3 26.9 200.3 26.9 C 199.7 25.7 198.5 25.1 197.2 25.1 C 195.4 25.1 194.3 26.5 194.3 28.3 C 194.3 30.1 195.4 31.5 197.2 31.5 C 198.5 31.5 199.7 30.9 200.3 29.7 Z M 205.7 25.4 C 205.7 21.2 208 17.9 211.7 17.9 C 213.7 17.9 214.9 18.7 215.8 19.8 C 215.8 19.8 214.7 21.2 214.7 21.2 C 213.9 20.2 213 19.8 211.9 19.8 C 209.3 19.8 208 22.4 208 25.4 C 208 28.5 209.3 31.1 211.9 31.1 C 213 31.1 213.9 30.7 214.7 29.7 C 214.7 29.7 215.8 31.1 215.8 31.1 C 214.9 32.3 213.7 33.1 211.7 33.1 C 208 33.1 205.7 29.7 205.7 25.4 Z M 219 29.8 C 219.02 29.79 219 20.1 219 20.1 L 217.1 20.1 L 217.1 18.2 L 219 18.2 L 219 14.3 L 221.2 14.3 L 221.2 18.2 L 223.6 18.2 L 223.6 20.1 L 221.2 20.1 C 221.2 20.1 221.18 29.4 221.2 29.4 C 221.2 30.5 221.5 31.1 222.4 31.1 C 222.9 31.1 223.3 30.9 223.6 30.6 C 223.6 30.6 224.3 32.2 224.3 32.2 C 223.8 32.7 223 33.1 221.9 33.1 C 220 33.1 219 32 219 29.8 Z " stroke="none" fill="#d3d2d2"/>  </g></svg>