<?xml version="1.0" standalone="no"?><!DOCTYPE svg PUBLIC "-//W3C//DTD SVG 1.1//EN" "http://www.w3.org/Graphics/SVG/1.1/DTD/svg11.dtd"><svg xmlns="http://www.w3.org/2000/svg" version="1.1" width="402px" height="41px" viewBox="0 0 402 41">  <desc>CLICK BUTTONS ABOVE TO NAVIGATE</desc>  <defs/>  <g id="Polygon233105">    <path d="M 24.5 18.4 C 24.5 13.5 27.1 10.1 31.2 10.1 C 34.3 10.1 35.8 12.1 36.6 13.9 C 36.6 13.9 33.9 15.1 33.9 15.1 C 33.5 13.8 32.5 12.9 31.2 12.9 C 29.1 12.9 27.8 15.2 27.8 18.4 C 27.8 21.5 29.1 23.8 31.2 23.8 C 32.6 23.8 33.5 22.8 34 21.5 C 34 21.5 36.6 22.6 36.6 22.6 C 35.8 24.5 34.4 26.7 31.2 26.7 C 27.1 26.7 24.5 23.2 24.5 18.4 Z M 38.5 26.4 L 38.5 10.4 L 41.7 10.4 L 41.7 23.5 L 47.1 23.5 L 47.1 26.4 L 38.5 26.4 Z M 49.2 26.4 L 49.2 10.4 L 52.4 10.4 L 52.4 26.4 L 49.2 26.4 Z M 54.6 18.4 C 54.6 13.5 57.2 10.1 61.3 10.1 C 64.4 10.1 65.9 12.1 66.7 13.9 C 66.7 13.9 64 15.1 64 15.1 C 63.6 13.8 62.6 12.9 61.3 12.9 C 59.2 12.9 57.9 15.2 57.9 18.4 C 57.9 21.5 59.2 23.8 61.3 23.8 C 62.7 23.8 63.6 22.8 64.1 21.5 C 64.1 21.5 66.7 22.6 66.7 22.6 C 65.9 24.5 64.5 26.7 61.3 26.7 C 57.2 26.7 54.6 23.2 54.6 18.4 Z M 76.7 26.4 L 73 20.1 L 71.8 21.9 L 71.8 26.4 L 68.6 26.4 L 68.6 10.4 L 71.8 10.4 L 71.8 17.6 L 76.3 10.4 L 80.1 10.4 L 75 17.9 L 80.4 26.4 L 76.7 26.4 Z M 86.9 26.4 L 86.9 10.4 C 86.9 10.4 93.55 10.35 93.6 10.4 C 96.4 10.4 97.8 12.3 97.8 14.4 C 97.8 16.5 96.7 17.7 95.2 18.1 C 96.8 18.4 98 20.1 98 22 C 98 24.5 96.7 26.4 93.8 26.4 C 93.77 26.36 86.9 26.4 86.9 26.4 Z M 94.5 15 C 94.5 13.9 93.9 13.2 92.8 13.2 C 92.78 13.16 90.1 13.2 90.1 13.2 L 90.1 16.8 C 90.1 16.8 92.78 16.83 92.8 16.8 C 93.9 16.8 94.5 16.1 94.5 15 Z M 94.8 21.6 C 94.8 20.5 94.1 19.6 92.9 19.6 C 92.9 19.62 90.1 19.6 90.1 19.6 L 90.1 23.6 C 90.1 23.6 92.9 23.55 92.9 23.6 C 94.1 23.6 94.8 22.8 94.8 21.6 Z M 100.3 20.8 C 100.32 20.84 100.3 10.4 100.3 10.4 L 103.6 10.4 C 103.6 10.4 103.56 20.87 103.6 20.9 C 103.6 22.8 104.5 23.8 106.2 23.8 C 107.9 23.8 108.9 22.8 108.9 20.9 C 108.86 20.87 108.9 10.4 108.9 10.4 L 112.1 10.4 C 112.1 10.4 112.1 20.84 112.1 20.8 C 112.1 24.5 109.8 26.7 106.2 26.7 C 102.6 26.7 100.3 24.5 100.3 20.8 Z M 117.6 26.4 L 117.6 13.2 L 114 13.2 L 114 10.4 L 124.4 10.4 L 124.4 13.2 L 120.8 13.2 L 120.8 26.4 L 117.6 26.4 Z M 129 26.4 L 129 13.2 L 125.4 13.2 L 125.4 10.4 L 135.7 10.4 L 135.7 13.2 L 132.2 13.2 L 132.2 26.4 L 129 26.4 Z M 136.6 18.4 C 136.6 13.6 139.1 10.1 143.3 10.1 C 147.5 10.1 150 13.6 150 18.4 C 150 23.1 147.5 26.7 143.3 26.7 C 139.1 26.7 136.6 23.1 136.6 18.4 Z M 146.7 18.4 C 146.7 15.3 145.5 12.9 143.3 12.9 C 141.1 12.9 139.9 15.3 139.9 18.4 C 139.9 21.4 141.1 23.8 143.3 23.8 C 145.5 23.8 146.7 21.4 146.7 18.4 Z M 160.8 26.4 L 155.4 16.9 L 155.4 26.4 L 152.2 26.4 L 152.2 10.4 L 155.4 10.4 L 160.7 19.5 L 160.7 10.4 L 163.9 10.4 L 163.9 26.4 L 160.8 26.4 Z M 165.7 24.6 C 165.7 24.6 167.3 22.1 167.3 22.1 C 168.1 23.1 169.5 23.8 171.1 23.8 C 172.5 23.8 173.3 23 173.3 22 C 173.3 19.2 166.1 20.2 166.1 14.8 C 166.1 12.3 168.1 10.1 171.4 10.1 C 173.4 10.1 175.1 10.7 176.3 11.9 C 176.3 11.9 174.7 14.3 174.7 14.3 C 173.8 13.4 172.6 12.9 171.3 12.9 C 170.2 12.9 169.4 13.6 169.4 14.6 C 169.4 17.1 176.6 16.4 176.6 21.8 C 176.6 24.6 174.6 26.7 171.1 26.7 C 168.7 26.7 166.9 25.9 165.7 24.6 Z M 192.1 26.4 L 191.4 23.5 L 186.5 23.5 L 185.7 26.4 L 182.2 26.4 L 187 10.4 L 190.9 10.4 L 195.6 26.4 L 192.1 26.4 Z M 188.9 13.7 L 187.1 20.7 L 190.7 20.7 L 188.9 13.7 Z M 197 26.4 L 197 10.4 C 197 10.4 203.61 10.35 203.6 10.4 C 206.5 10.4 207.8 12.3 207.8 14.4 C 207.8 16.5 206.7 17.7 205.3 18.1 C 206.9 18.4 208.1 20.1 208.1 22 C 208.1 24.5 206.7 26.4 203.8 26.4 C 203.83 26.36 197 26.4 197 26.4 Z M 204.5 15 C 204.5 13.9 204 13.2 202.8 13.2 C 202.85 13.16 200.2 13.2 200.2 13.2 L 200.2 16.8 C 200.2 16.8 202.85 16.83 202.8 16.8 C 204 16.8 204.5 16.1 204.5 15 Z M 204.8 21.6 C 204.8 20.5 204.2 19.6 203 19.6 C 202.97 19.62 200.2 19.6 200.2 19.6 L 200.2 23.6 C 200.2 23.6 202.97 23.55 203 23.6 C 204.2 23.6 204.8 22.8 204.8 21.6 Z M 209.7 18.4 C 209.7 13.6 212.2 10.1 216.4 10.1 C 220.6 10.1 223.1 13.6 223.1 18.4 C 223.1 23.1 220.6 26.7 216.4 26.7 C 212.2 26.7 209.7 23.1 209.7 18.4 Z M 219.8 18.4 C 219.8 15.3 218.6 12.9 216.4 12.9 C 214.2 12.9 213 15.3 213 18.4 C 213 21.4 214.2 23.8 216.4 23.8 C 218.6 23.8 219.8 21.4 219.8 18.4 Z M 228.3 26.4 L 223.5 10.4 L 227 10.4 L 230.2 22.6 L 233.4 10.4 L 236.9 10.4 L 232.2 26.4 L 228.3 26.4 Z M 238.3 26.4 L 238.3 10.4 L 247.5 10.4 L 247.5 13.2 L 241.5 13.2 L 241.5 16.8 L 247.3 16.8 L 247.3 19.6 L 241.5 19.6 L 241.5 23.5 L 247.5 23.5 L 247.5 26.4 L 238.3 26.4 Z M 257.5 26.4 L 257.5 13.2 L 254 13.2 L 254 10.4 L 264.3 10.4 L 264.3 13.2 L 260.8 13.2 L 260.8 26.4 L 257.5 26.4 Z M 265.2 18.4 C 265.2 13.6 267.7 10.1 271.8 10.1 C 276 10.1 278.5 13.6 278.5 18.4 C 278.5 23.1 276 26.7 271.8 26.7 C 267.7 26.7 265.2 23.1 265.2 18.4 Z M 275.3 18.4 C 275.3 15.3 274.1 12.9 271.8 12.9 C 269.7 12.9 268.5 15.3 268.5 18.4 C 268.5 21.4 269.7 23.8 271.8 23.8 C 274.1 23.8 275.3 21.4 275.3 18.4 Z M 294.5 26.4 L 289 16.9 L 289 26.4 L 285.8 26.4 L 285.8 10.4 L 289.1 10.4 L 294.3 19.5 L 294.3 10.4 L 297.5 10.4 L 297.5 26.4 L 294.5 26.4 Z M 308.8 26.4 L 308 23.5 L 303.1 23.5 L 302.3 26.4 L 298.9 26.4 L 303.6 10.4 L 307.5 10.4 L 312.3 26.4 L 308.8 26.4 Z M 305.6 13.7 L 303.7 20.7 L 307.4 20.7 L 305.6 13.7 Z M 316.1 26.4 L 311.4 10.4 L 314.9 10.4 L 318.1 22.6 L 321.3 10.4 L 324.8 10.4 L 320 26.4 L 316.1 26.4 Z M 326.2 26.4 L 326.2 10.4 L 329.4 10.4 L 329.4 26.4 L 326.2 26.4 Z M 331.6 18.4 C 331.6 13.4 334.3 10.1 338.3 10.1 C 341.1 10.1 342.8 11.8 343.7 13.8 C 343.7 13.8 341 15 341 15 C 340.5 13.9 339.6 12.9 338.3 12.9 C 336.3 12.9 334.9 14.9 334.9 18.4 C 334.9 21.8 336.3 23.8 338.3 23.8 C 339.4 23.8 340.3 23.4 340.7 22.8 C 340.75 22.83 340.7 20.4 340.7 20.4 L 337.7 20.4 L 337.7 17.6 L 343.8 17.6 C 343.8 17.6 343.79 24.11 343.8 24.1 C 342.5 25.7 340.7 26.7 338.3 26.7 C 334.3 26.7 331.6 23.3 331.6 18.4 Z M 354.6 26.4 L 353.9 23.5 L 349 23.5 L 348.2 26.4 L 344.7 26.4 L 349.5 10.4 L 353.4 10.4 L 358.1 26.4 L 354.6 26.4 Z M 351.4 13.7 L 349.6 20.7 L 353.3 20.7 L 351.4 13.7 Z M 361 26.4 L 361 13.2 L 357.5 13.2 L 357.5 10.4 L 367.8 10.4 L 367.8 13.2 L 364.2 13.2 L 364.2 26.4 L 361 26.4 Z M 369.7 26.4 L 369.7 10.4 L 378.9 10.4 L 378.9 13.2 L 372.9 13.2 L 372.9 16.8 L 378.7 16.8 L 378.7 19.6 L 372.9 19.6 L 372.9 23.5 L 378.9 23.5 L 378.9 26.4 L 369.7 26.4 Z " stroke="none" fill="#d3d2d2"/>  </g></svg>