<?xml version="1.0" standalone="no"?><!DOCTYPE svg PUBLIC "-//W3C//DTD SVG 1.1//EN" "http://www.w3.org/Graphics/SVG/1.1/DTD/svg11.dtd"><svg xmlns="http://www.w3.org/2000/svg" version="1.1" width="651px" height="141.6px" viewBox="0 0 651 141.6">  <desc>Whipped Stuffing and Candied Curdled Acrylic</desc>  <defs/>  <g id="Polygon194831">    <path d="M 1.9 83.3 C 1.9 71.3 5.6 62.6 14.4 62.6 C 20.9 62.6 23.2 67.7 24.4 72 C 24.4 72 18.4 74.2 18.4 74.2 C 17.6 71.2 16.6 69.3 14.4 69.3 C 10.8 69.3 9.6 75.1 9.6 83.3 C 9.6 91.4 10.8 97.3 14.4 97.3 C 16.9 97.3 17.9 94.7 18.5 91.4 C 18.5 91.4 24.5 93.7 24.5 93.7 C 23.4 98.2 21.1 104 14.4 104 C 5.6 104 1.9 95.2 1.9 83.3 Z M 41.4 103.3 C 41.4 103.3 41.4 99.6 41.4 99.6 C 40.3 101.9 37.4 104 34.6 104 C 30.2 104 28.5 101.6 28.5 97.4 C 28.5 97.44 28.5 74.3 28.5 74.3 L 35.3 74.3 C 35.3 74.3 35.28 95.04 35.3 95 C 35.3 97 36 98 37.5 98 C 39.2 98 40.7 96.2 41.4 94.3 C 41.4 94.32 41.4 74.3 41.4 74.3 L 48.2 74.3 L 48.2 103.3 L 41.4 103.3 Z M 53.7 103.3 L 53.7 74.3 L 60.5 74.3 C 60.5 74.3 60.48 78.3 60.5 78.3 C 61.6 75.7 64.4 73.6 67 73.6 C 67 73.6 67 80.2 67 80.2 C 66.5 80.1 66.1 80 65.6 80 C 63.7 80 61.6 81.7 60.5 83.8 C 60.48 83.76 60.5 103.3 60.5 103.3 L 53.7 103.3 Z M 83.6 103.3 C 83.6 103.3 83.58 99.66 83.6 99.7 C 82.3 102.5 80 104 77.9 104 C 72.2 104 69.4 98.1 69.4 88.8 C 69.4 79.7 72.2 73.6 77.9 73.6 C 80 73.6 82.4 74.9 83.6 77.9 C 83.58 77.88 83.6 63.2 83.6 63.2 L 90.4 63.2 L 90.4 103.3 L 83.6 103.3 Z M 83.6 94.5 C 83.6 94.5 83.6 83 83.6 83 C 83 81.1 81.6 79.6 80.2 79.6 C 77.2 79.6 76.3 83.6 76.3 88.8 C 76.3 93.9 77.2 98 80.2 98 C 81.6 98 83 96.4 83.6 94.5 Z M 95.9 103.3 L 95.9 63.2 L 102.7 63.2 L 102.7 103.3 L 95.9 103.3 Z M 107 88.7 C 107 80.3 110.6 73.6 117.8 73.6 C 125.2 73.6 128.2 80.1 128.2 88.6 C 128.22 88.62 128.2 91 128.2 91 C 128.2 91 113.52 90.96 113.5 91 C 113.6 95.2 115.4 98.5 119.2 98.5 C 120.8 98.5 122.7 97.4 124 95.6 C 124 95.6 127.3 99.4 127.3 99.4 C 125 102.3 121.8 104 118.5 104 C 110.9 104 107 97.6 107 88.7 Z M 117.7 79.1 C 114.4 79.1 113.5 83.2 113.5 86.2 C 113.5 86.2 121.7 86.2 121.7 86.2 C 121.7 83 121 79.1 117.7 79.1 Z M 145.4 103.3 C 145.4 103.3 145.44 99.66 145.4 99.7 C 144.2 102.5 141.8 104 139.8 104 C 134.1 104 131.2 98.1 131.2 88.8 C 131.2 79.7 134.1 73.6 139.8 73.6 C 141.8 73.6 144.2 74.9 145.4 77.9 C 145.44 77.88 145.4 63.2 145.4 63.2 L 152.2 63.2 L 152.2 103.3 L 145.4 103.3 Z M 145.4 94.5 C 145.4 94.5 145.4 83 145.4 83 C 144.8 81.1 143.5 79.6 142 79.6 C 139 79.6 138.2 83.6 138.2 88.8 C 138.2 93.9 139 98 142 98 C 143.5 98 144.8 96.4 145.4 94.5 Z M 182.4 103.3 L 181.2 95.9 L 173.8 95.9 L 172.6 103.3 L 164.8 103.3 L 173.1 63.2 L 181.8 63.2 L 190.2 103.3 L 182.4 103.3 Z M 177.5 71.7 L 174.6 89.2 L 180.4 89.2 L 177.5 71.7 Z M 191.7 88.7 C 191.7 79.9 195.8 73.6 202.7 73.6 C 206 73.6 208.4 74.8 209.8 76.1 C 209.8 76.1 207.6 81.4 207.6 81.4 C 206.4 80.2 205.3 79.6 203.9 79.6 C 200.4 79.6 198.7 83.7 198.7 88.7 C 198.7 93.8 200.4 98 203.9 98 C 205.3 98 206.4 97.4 207.6 96.1 C 207.6 96.1 209.8 101.4 209.8 101.4 C 208.4 102.9 206 104 202.7 104 C 195.8 104 191.7 97.6 191.7 88.7 Z M 213.5 103.3 L 213.5 74.3 L 220.3 74.3 C 220.3 74.3 220.26 78.3 220.3 78.3 C 221.4 75.7 224.2 73.6 226.7 73.6 C 226.7 73.6 226.7 80.2 226.7 80.2 C 226.3 80.1 225.8 80 225.4 80 C 223.4 80 221.4 81.7 220.3 83.8 C 220.26 83.76 220.3 103.3 220.3 103.3 L 213.5 103.3 Z M 230.9 108.7 C 231.3 108.9 231.9 109 232.3 109 C 233.5 109 234.2 108.4 234.7 107 C 234.66 106.98 235.5 104 235.5 104 L 227.6 74.3 L 234.8 74.3 L 238.9 94.7 L 243.1 74.3 L 250.3 74.3 C 250.3 74.3 241.14 108.36 241.1 108.4 C 239.7 113.6 237.4 115 233.2 115 C 232.2 115 230.6 114.8 229.9 114.6 C 229.9 114.6 230.9 108.7 230.9 108.7 Z M 253.1 103.3 L 253.1 63.2 L 259.9 63.2 L 259.9 103.3 L 253.1 103.3 Z M 264.5 66.8 C 264.5 64.5 266.5 62.6 268.7 62.6 C 271 62.6 272.8 64.5 272.8 66.8 C 272.8 69.1 271 70.9 268.7 70.9 C 266.5 70.9 264.5 69.1 264.5 66.8 Z M 265.3 103.3 L 265.3 74.3 L 272.1 74.3 L 272.1 103.3 L 265.3 103.3 Z M 276.4 88.7 C 276.4 79.9 280.5 73.6 287.5 73.6 C 290.7 73.6 293.1 74.8 294.5 76.1 C 294.5 76.1 292.3 81.4 292.3 81.4 C 291.1 80.2 290 79.6 288.7 79.6 C 285.1 79.6 283.4 83.7 283.4 88.7 C 283.4 93.8 285.1 98 288.7 98 C 290 98 291.1 97.4 292.3 96.1 C 292.3 96.1 294.5 101.4 294.5 101.4 C 293.1 102.9 290.7 104 287.5 104 C 280.5 104 276.4 97.6 276.4 88.7 Z " stroke="none" fill="#b13d24"/>  </g>  <g id="Polygon194830">    <path d="M 21.8 47.4 L 18.5 21.6 L 15.2 47.4 L 7.5 47.4 L 0.7 7.4 L 8.3 7.4 L 11.7 34.2 L 15.5 7.4 L 21.5 7.4 L 25.3 34.2 L 28.6 7.4 L 36.3 7.4 L 29.5 47.4 L 21.8 47.4 Z M 52.6 47.4 C 52.6 47.4 52.62 26.64 52.6 26.6 C 52.6 24.7 51.9 23.7 50.4 23.7 C 48.7 23.7 47.2 25.6 46.5 27.5 C 46.5 27.48 46.5 47.4 46.5 47.4 L 39.7 47.4 L 39.7 7.4 L 46.5 7.4 C 46.5 7.4 46.5 22.2 46.5 22.2 C 47.6 19.9 50.6 17.7 53.3 17.7 C 57.7 17.7 59.5 20.1 59.5 24.2 C 59.46 24.24 59.5 47.4 59.5 47.4 L 52.6 47.4 Z M 64.1 10.9 C 64.1 8.6 66.1 6.8 68.3 6.8 C 70.6 6.8 72.4 8.6 72.4 10.9 C 72.4 13.2 70.6 15 68.3 15 C 66.1 15 64.1 13.2 64.1 10.9 Z M 64.9 47.4 L 64.9 18.4 L 71.7 18.4 L 71.7 47.4 L 64.9 47.4 Z M 83.9 43.8 C 83.94 43.8 83.9 58.4 83.9 58.4 L 77.2 58.4 L 77.2 18.4 L 83.9 18.4 C 83.9 18.4 83.94 22.02 83.9 22 C 85.2 19.1 87.5 17.7 89.6 17.7 C 95.3 17.7 98.2 23.6 98.2 32.9 C 98.2 42 95.3 48.1 89.6 48.1 C 87.5 48.1 85.1 46.8 83.9 43.8 Z M 91.2 32.9 C 91.2 27.8 90.4 23.7 87.4 23.7 C 85.9 23.7 84.5 25.1 83.9 27.1 C 83.9 27.1 83.9 38.6 83.9 38.6 C 84.5 40.6 85.9 42.1 87.4 42.1 C 90.4 42.1 91.2 38 91.2 32.9 Z M 109.3 43.8 C 109.32 43.8 109.3 58.4 109.3 58.4 L 102.5 58.4 L 102.5 18.4 L 109.3 18.4 C 109.3 18.4 109.32 22.02 109.3 22 C 110.6 19.1 112.9 17.7 115 17.7 C 120.7 17.7 123.5 23.6 123.5 32.9 C 123.5 42 120.7 48.1 115 48.1 C 112.9 48.1 110.5 46.8 109.3 43.8 Z M 116.6 32.9 C 116.6 27.8 115.7 23.7 112.7 23.7 C 111.3 23.7 109.9 25.1 109.3 27.1 C 109.3 27.1 109.3 38.6 109.3 38.6 C 109.9 40.6 111.3 42.1 112.7 42.1 C 115.7 42.1 116.6 38 116.6 32.9 Z M 126.8 32.9 C 126.8 24.5 130.4 17.7 137.6 17.7 C 145 17.7 148 24.2 148 32.8 C 148.02 32.76 148 35.1 148 35.1 C 148 35.1 133.32 35.1 133.3 35.1 C 133.4 39.4 135.2 42.6 139 42.6 C 140.6 42.6 142.5 41.5 143.8 39.7 C 143.8 39.7 147.1 43.5 147.1 43.5 C 144.8 46.4 141.6 48.1 138.3 48.1 C 130.7 48.1 126.8 41.8 126.8 32.9 Z M 137.5 23.2 C 134.2 23.2 133.3 27.3 133.3 30.4 C 133.3 30.4 141.5 30.4 141.5 30.4 C 141.5 27.1 140.8 23.2 137.5 23.2 Z M 165.2 47.4 C 165.2 47.4 165.24 43.8 165.2 43.8 C 164 46.7 161.6 48.1 159.6 48.1 C 153.9 48.1 151 42.2 151 32.9 C 151 23.8 153.9 17.7 159.6 17.7 C 161.6 17.7 164 19 165.2 22 C 165.24 22.02 165.2 7.4 165.2 7.4 L 172 7.4 L 172 47.4 L 165.2 47.4 Z M 165.2 38.6 C 165.2 38.6 165.2 27.2 165.2 27.2 C 164.6 25.3 163.3 23.7 161.8 23.7 C 158.8 23.7 158 27.8 158 32.9 C 158 38 158.8 42.1 161.8 42.1 C 163.3 42.1 164.6 40.6 165.2 38.6 Z M 185.3 44.2 C 185.3 44.2 188.6 38.2 188.6 38.2 C 190.2 40.3 192.8 41.4 195.1 41.4 C 197.5 41.4 199.1 39.6 199.1 37 C 199.1 29.9 186.4 29.9 186.4 17.9 C 186.4 11.9 190.5 6.7 197.6 6.7 C 200.9 6.7 204.1 7.9 206.3 10 C 206.3 10 203.3 15.8 203.3 15.8 C 201.8 14.2 199.9 13.4 197.8 13.4 C 195.7 13.4 194.1 15.1 194.1 17.5 C 194.1 23.7 206.8 24.5 206.8 36.5 C 206.8 43.3 202.4 48.1 195.6 48.1 C 191.2 48.1 187.9 46.7 185.3 44.2 Z M 211.4 40.7 C 211.38 40.74 211.4 24.3 211.4 24.3 L 208.7 24.3 L 208.7 18.4 L 211.4 18.4 L 211.4 10.5 L 218.2 10.5 L 218.2 18.4 L 221.8 18.4 L 221.8 24.3 L 218.2 24.3 C 218.2 24.3 218.16 39.42 218.2 39.4 C 218.2 41.2 218.6 42.1 219.8 42.1 C 220.4 42.1 221 41.8 221.4 41.3 C 221.4 41.3 222.8 46.6 222.8 46.6 C 221.8 47.5 220.1 48.1 218 48.1 C 213.3 48.1 211.4 45.7 211.4 40.7 Z M 238.9 47.4 C 238.9 47.4 238.86 43.74 238.9 43.7 C 237.7 46.1 234.9 48.1 232.1 48.1 C 227.7 48.1 226 45.7 226 41.6 C 225.96 41.58 226 18.4 226 18.4 L 232.7 18.4 C 232.7 18.4 232.74 39.18 232.7 39.2 C 232.7 41.2 233.5 42.1 235 42.1 C 236.7 42.1 238.2 40.3 238.9 38.5 C 238.86 38.46 238.9 18.4 238.9 18.4 L 245.7 18.4 L 245.7 47.4 L 238.9 47.4 Z M 267.1 47.4 L 267.1 24.3 L 264.4 24.3 L 264.4 18.4 L 267.1 18.4 C 267.1 18.4 267.06 15.42 267.1 15.4 C 267.1 9.9 269.8 6.8 274.2 6.8 C 276 6.8 277.1 7 278.3 7.6 C 278.3 7.6 277.2 13 277.2 13 C 277 12.8 276.5 12.7 276.1 12.7 C 274.7 12.7 273.8 13.6 273.8 15.4 C 273.84 15.42 273.8 18.4 273.8 18.4 L 277.5 18.4 L 277.5 24.3 L 273.8 24.3 L 273.8 47.4 L 267.1 47.4 Z M 280.3 10.9 C 280.3 8.6 282.2 6.8 284.5 6.8 C 286.7 6.8 288.6 8.6 288.6 10.9 C 288.6 13.2 286.7 15 284.5 15 C 282.2 15 280.3 13.2 280.3 10.9 Z M 281.1 47.4 L 281.1 18.4 L 287.9 18.4 L 287.9 47.4 L 281.1 47.4 Z M 252.1 47.4 L 252.1 24.3 L 249.4 24.3 L 249.4 18.4 L 252.1 18.4 C 252.1 18.4 252.06 15.42 252.1 15.4 C 252.1 9.9 254.8 6.8 259.9 6.8 C 261.8 6.8 263.7 7.3 264.9 8.4 C 264.9 8.4 263.2 13.6 263.2 13.6 C 262.6 13 262 12.7 261.2 12.7 C 259.6 12.7 258.8 13.7 258.8 15.4 C 258.84 15.42 258.8 18.4 258.8 18.4 L 262.5 18.4 L 262.5 24.3 L 258.8 24.3 L 258.8 47.4 L 252.1 47.4 Z M 306.2 47.4 C 306.2 47.4 306.24 26.76 306.2 26.8 C 306.2 24.7 305.5 23.7 304 23.7 C 302.3 23.7 300.8 25.6 300.1 27.5 C 300.12 27.48 300.1 47.4 300.1 47.4 L 293.3 47.4 L 293.3 18.4 L 300.1 18.4 C 300.1 18.4 300.12 22.2 300.1 22.2 C 301.3 19.9 304.3 17.7 306.9 17.7 C 311.3 17.7 313.1 20.3 313.1 24.3 C 313.08 24.3 313.1 47.4 313.1 47.4 L 306.2 47.4 Z M 318.5 56 C 318.5 56 320.8 50.5 320.8 50.5 C 322.4 52.2 324.5 53.3 326.7 53.3 C 329.6 53.3 331.6 51.4 331.6 46.9 C 331.6 46.9 331.6 42.7 331.6 42.7 C 330.4 45.7 328 47.2 326 47.2 C 320.3 47.2 317.4 41.8 317.4 32.5 C 317.4 23.3 320.3 17.7 326 17.7 C 328 17.7 330.4 19 331.6 22 C 331.62 22.02 331.6 18.4 331.6 18.4 L 338.4 18.4 C 338.4 18.4 338.4 46.44 338.4 46.4 C 338.4 56.4 333.1 59.2 327.4 59.2 C 323.8 59.2 320.9 58.3 318.5 56 Z M 331.6 37.7 C 331.6 37.7 331.6 27.2 331.6 27.2 C 331 25.3 329.6 23.7 328.2 23.7 C 325.2 23.7 324.4 27.4 324.4 32.5 C 324.4 37.6 325.2 41.2 328.2 41.2 C 329.6 41.2 331 39.6 331.6 37.7 Z M 366.3 47.4 C 366.3 47.4 366.29 44.64 366.3 44.6 C 365 46.9 362.3 48.1 360.2 48.1 C 355.7 48.1 352.4 44.4 352.4 38.5 C 352.4 32.6 355.7 29 360.2 29 C 362.3 29 365.1 30.1 366.3 32.3 C 366.3 32.3 366.3 28.7 366.3 28.7 C 366.3 25.4 365 23.5 361.9 23.5 C 360 23.5 358 24.4 356 26.3 C 356 26.3 353.5 21.5 353.5 21.5 C 356.2 18.7 360.3 17.7 363.3 17.7 C 369.2 17.7 373.1 20.7 373.1 27.2 C 373.07 27.18 373.1 47.4 373.1 47.4 L 366.3 47.4 Z M 366.3 40.6 C 366.3 40.6 366.3 36.7 366.3 36.7 C 365.6 34.9 364.1 33.7 362.6 33.7 C 360.3 33.7 359.2 35.8 359.2 38.6 C 359.2 41.3 360.3 43.6 362.6 43.6 C 364.1 43.6 365.6 42.4 366.3 40.6 Z M 391.5 47.4 C 391.5 47.4 391.49 26.76 391.5 26.8 C 391.5 24.7 390.8 23.7 389.3 23.7 C 387.5 23.7 386 25.6 385.4 27.5 C 385.37 27.48 385.4 47.4 385.4 47.4 L 378.6 47.4 L 378.6 18.4 L 385.4 18.4 C 385.4 18.4 385.37 22.2 385.4 22.2 C 386.5 19.9 389.5 17.7 392.2 17.7 C 396.5 17.7 398.3 20.3 398.3 24.3 C 398.33 24.3 398.3 47.4 398.3 47.4 L 391.5 47.4 Z M 416.9 47.4 C 416.9 47.4 416.87 43.8 416.9 43.8 C 415.6 46.7 413.3 48.1 411.2 48.1 C 405.5 48.1 402.7 42.2 402.7 32.9 C 402.7 23.8 405.5 17.7 411.2 17.7 C 413.3 17.7 415.7 19 416.9 22 C 416.87 22.02 416.9 7.4 416.9 7.4 L 423.7 7.4 L 423.7 47.4 L 416.9 47.4 Z M 416.9 38.6 C 416.9 38.6 416.9 27.2 416.9 27.2 C 416.3 25.3 414.9 23.7 413.5 23.7 C 410.5 23.7 409.6 27.8 409.6 32.9 C 409.6 38 410.5 42.1 413.5 42.1 C 414.9 42.1 416.3 40.6 416.9 38.6 Z M 438.1 27.4 C 438.1 15.5 441.8 6.7 450.6 6.7 C 457.1 6.7 459.4 11.9 460.6 16.1 C 460.6 16.1 454.6 18.4 454.6 18.4 C 453.8 15.3 452.8 13.4 450.6 13.4 C 447 13.4 445.8 19.3 445.8 27.4 C 445.8 35.6 447 41.4 450.6 41.4 C 453.1 41.4 454.1 38.9 454.7 35.6 C 454.7 35.6 460.7 37.8 460.7 37.8 C 459.6 42.4 457.3 48.1 450.6 48.1 C 441.8 48.1 438.1 39.3 438.1 27.4 Z M 477.3 47.4 C 477.3 47.4 477.29 44.64 477.3 44.6 C 476 46.9 473.3 48.1 471.2 48.1 C 466.7 48.1 463.4 44.4 463.4 38.5 C 463.4 32.6 466.7 29 471.2 29 C 473.3 29 476.1 30.1 477.3 32.3 C 477.3 32.3 477.3 28.7 477.3 28.7 C 477.3 25.4 476 23.5 472.9 23.5 C 471 23.5 469 24.4 467 26.3 C 467 26.3 464.5 21.5 464.5 21.5 C 467.2 18.7 471.3 17.7 474.3 17.7 C 480.2 17.7 484.1 20.7 484.1 27.2 C 484.07 27.18 484.1 47.4 484.1 47.4 L 477.3 47.4 Z M 477.3 40.6 C 477.3 40.6 477.3 36.7 477.3 36.7 C 476.6 34.9 475.1 33.7 473.6 33.7 C 471.3 33.7 470.2 35.8 470.2 38.6 C 470.2 41.3 471.3 43.6 473.6 43.6 C 475.1 43.6 476.6 42.4 477.3 40.6 Z M 502.5 47.4 C 502.5 47.4 502.49 26.76 502.5 26.8 C 502.5 24.7 501.8 23.7 500.3 23.7 C 498.5 23.7 497 25.6 496.4 27.5 C 496.37 27.48 496.4 47.4 496.4 47.4 L 489.6 47.4 L 489.6 18.4 L 496.4 18.4 C 496.4 18.4 496.37 22.2 496.4 22.2 C 497.5 19.9 500.5 17.7 503.2 17.7 C 507.5 17.7 509.3 20.3 509.3 24.3 C 509.33 24.3 509.3 47.4 509.3 47.4 L 502.5 47.4 Z M 527.9 47.4 C 527.9 47.4 527.87 43.8 527.9 43.8 C 526.6 46.7 524.3 48.1 522.2 48.1 C 516.5 48.1 513.7 42.2 513.7 32.9 C 513.7 23.8 516.5 17.7 522.2 17.7 C 524.3 17.7 526.7 19 527.9 22 C 527.87 22.02 527.9 7.4 527.9 7.4 L 534.7 7.4 L 534.7 47.4 L 527.9 47.4 Z M 527.9 38.6 C 527.9 38.6 527.9 27.2 527.9 27.2 C 527.3 25.3 525.9 23.7 524.5 23.7 C 521.5 23.7 520.6 27.8 520.6 32.9 C 520.6 38 521.5 42.1 524.5 42.1 C 525.9 42.1 527.3 40.6 527.9 38.6 Z M 539.4 10.9 C 539.4 8.6 541.3 6.8 543.5 6.8 C 545.8 6.8 547.7 8.6 547.7 10.9 C 547.7 13.2 545.8 15 543.5 15 C 541.3 15 539.4 13.2 539.4 10.9 Z M 540.2 47.4 L 540.2 18.4 L 547 18.4 L 547 47.4 L 540.2 47.4 Z M 551.3 32.9 C 551.3 24.5 554.9 17.7 562.1 17.7 C 569.5 17.7 572.5 24.2 572.5 32.8 C 572.51 32.76 572.5 35.1 572.5 35.1 C 572.5 35.1 557.81 35.1 557.8 35.1 C 557.9 39.4 559.7 42.6 563.5 42.6 C 565.1 42.6 567 41.5 568.3 39.7 C 568.3 39.7 571.6 43.5 571.6 43.5 C 569.3 46.4 566.1 48.1 562.8 48.1 C 555.2 48.1 551.3 41.8 551.3 32.9 Z M 562 23.2 C 558.7 23.2 557.8 27.3 557.8 30.4 C 557.8 30.4 566 30.4 566 30.4 C 566 27.1 565.3 23.2 562 23.2 Z M 589.7 47.4 C 589.7 47.4 589.73 43.8 589.7 43.8 C 588.5 46.7 586.1 48.1 584.1 48.1 C 578.4 48.1 575.5 42.2 575.5 32.9 C 575.5 23.8 578.4 17.7 584.1 17.7 C 586.1 17.7 588.5 19 589.7 22 C 589.73 22.02 589.7 7.4 589.7 7.4 L 596.5 7.4 L 596.5 47.4 L 589.7 47.4 Z M 589.7 38.6 C 589.7 38.6 589.7 27.2 589.7 27.2 C 589.1 25.3 587.8 23.7 586.3 23.7 C 583.3 23.7 582.5 27.8 582.5 32.9 C 582.5 38 583.3 42.1 586.3 42.1 C 587.8 42.1 589.1 40.6 589.7 38.6 Z " stroke="none" fill="#b13d24"/>  </g></svg>