<?xml version="1.0" standalone="no"?><!DOCTYPE svg PUBLIC "-//W3C//DTD SVG 1.1//EN" "http://www.w3.org/Graphics/SVG/1.1/DTD/svg11.dtd"><svg xmlns="http://www.w3.org/2000/svg" version="1.1" width="191px" height="44.3px" viewBox="0 0 191 44.3">  <desc>7 hours</desc>  <defs/>  <g id="Polygon201480">    <path d="M 53.3 14.3 L 53.3 19.5 L 50.8 19.5 L 50.8 14.3 L 46.3 14.3 L 46.3 12 L 50.8 12 L 50.8 7 L 53.3 7 L 53.3 12 L 57.8 12 L 57.8 14.3 L 53.3 14.3 Z M 46.3 23.3 L 46.3 21.1 L 57.8 21.1 L 57.8 23.3 L 46.3 23.3 Z M 62.9 23.7 L 68.9 7.2 L 60.6 7.2 L 60.6 3.7 L 73.4 3.7 L 73.4 6.5 L 67.2 23.7 L 62.9 23.7 Z M 90.1 23.7 C 90.1 23.7 90.09 14.1 90.1 14.1 C 90.1 12.6 89.4 12 88.2 12 C 87 12 86 13 85.6 13.8 C 85.56 13.83 85.6 23.7 85.6 23.7 L 81.9 23.7 L 81.9 3.7 L 85.6 3.7 C 85.6 3.7 85.56 11.1 85.6 11.1 C 86.3 10 87.9 8.8 89.8 8.8 C 92.5 8.8 93.7 10.3 93.7 12.7 C 93.69 12.75 93.7 23.7 93.7 23.7 L 90.1 23.7 Z M 96.2 16.4 C 96.2 12.4 98.5 8.8 102.7 8.8 C 107 8.8 109.3 12.4 109.3 16.4 C 109.3 20.5 107 24.1 102.7 24.1 C 98.5 24.1 96.2 20.5 96.2 16.4 Z M 105.6 16.4 C 105.6 14.1 104.7 12 102.7 12 C 100.8 12 99.9 14.1 99.9 16.4 C 99.9 18.8 100.8 20.9 102.7 20.9 C 104.7 20.9 105.6 18.8 105.6 16.4 Z M 119.9 23.7 C 119.9 23.7 119.91 21.87 119.9 21.9 C 119.1 23 117.5 24.1 115.6 24.1 C 113 24.1 111.8 22.6 111.8 20.2 C 111.78 20.16 111.8 9.2 111.8 9.2 L 115.4 9.2 C 115.4 9.2 115.38 18.78 115.4 18.8 C 115.4 20.3 116.1 20.9 117.3 20.9 C 118.5 20.9 119.4 20 119.9 19.1 C 119.91 19.11 119.9 9.2 119.9 9.2 L 123.5 9.2 L 123.5 23.7 L 119.9 23.7 Z M 126.7 23.7 L 126.7 9.2 L 130.3 9.2 C 130.3 9.2 130.35 11.19 130.3 11.2 C 131.2 9.9 132.7 8.8 134.3 8.8 C 134.3 8.8 134.3 12.4 134.3 12.4 C 134.1 12.3 133.8 12.3 133.4 12.3 C 132.3 12.3 130.9 13 130.3 14 C 130.35 14.04 130.3 23.7 130.3 23.7 L 126.7 23.7 Z M 135.2 22 C 135.2 22 136.8 19.5 136.8 19.5 C 137.7 20.4 139.3 21.2 140.8 21.2 C 142.1 21.2 142.9 20.6 142.9 19.7 C 142.9 17.3 135.7 18.6 135.7 13.2 C 135.7 10.9 137.6 8.8 141 8.8 C 143.1 8.8 144.8 9.6 146 10.7 C 146 10.7 144.6 13.1 144.6 13.1 C 143.9 12.3 142.5 11.6 141.1 11.6 C 139.9 11.6 139.1 12.2 139.1 13 C 139.1 15.2 146.3 14.1 146.3 19.6 C 146.3 22.2 144.2 24.1 140.8 24.1 C 138.5 24.1 136.5 23.3 135.2 22 Z " stroke="none" fill="#d3d2d2"/>  </g></svg>