<?xml version="1.0" standalone="no"?><!DOCTYPE svg PUBLIC "-//W3C//DTD SVG 1.1//EN" "http://www.w3.org/Graphics/SVG/1.1/DTD/svg11.dtd"><svg xmlns="http://www.w3.org/2000/svg" version="1.1" width="510px" height="85.6px" viewBox="0 0 510 85.6">  <desc>Burger and Fries</desc>  <defs/>  <g id="Polygon136260">    <path d="M 3.1 47.4 L 3.1 7.4 C 3.1 7.4 15.18 7.38 15.2 7.4 C 21.8 7.4 24.8 12.1 24.8 17.6 C 24.8 22.6 22.4 25.7 18.9 26.8 C 22.7 27.4 25.3 31.7 25.3 36.6 C 25.3 42.7 22.5 47.4 15.6 47.4 C 15.6 47.4 3.1 47.4 3.1 47.4 Z M 17 18.9 C 17 16 16 14 13.2 14 C 13.2 14.04 10.7 14 10.7 14 L 10.7 23.7 C 10.7 23.7 13.2 23.7 13.2 23.7 C 16 23.7 17 21.8 17 18.9 Z M 17.6 35.5 C 17.6 32.6 16.3 30.4 13.4 30.4 C 13.44 30.36 10.7 30.4 10.7 30.4 L 10.7 40.7 C 10.7 40.7 13.44 40.74 13.4 40.7 C 16.3 40.7 17.6 38.9 17.6 35.5 Z M 42.8 47.4 C 42.8 47.4 42.78 43.74 42.8 43.7 C 41.6 46.1 38.8 48.1 36 48.1 C 31.6 48.1 29.9 45.7 29.9 41.6 C 29.88 41.58 29.9 18.4 29.9 18.4 L 36.7 18.4 C 36.7 18.4 36.66 39.18 36.7 39.2 C 36.7 41.2 37.4 42.1 38.9 42.1 C 40.6 42.1 42.1 40.3 42.8 38.5 C 42.78 38.46 42.8 18.4 42.8 18.4 L 49.6 18.4 L 49.6 47.4 L 42.8 47.4 Z M 55.1 47.4 L 55.1 18.4 L 61.9 18.4 C 61.9 18.4 61.86 22.44 61.9 22.4 C 63 19.8 65.8 17.7 68.3 17.7 C 68.3 17.7 68.3 24.4 68.3 24.4 C 67.9 24.2 67.4 24.2 67 24.2 C 65 24.2 63 25.8 61.9 27.9 C 61.86 27.9 61.9 47.4 61.9 47.4 L 55.1 47.4 Z M 71.8 56 C 71.8 56 74.1 50.5 74.1 50.5 C 75.8 52.2 77.8 53.3 80 53.3 C 82.9 53.3 85 51.4 85 46.9 C 85 46.9 85 42.7 85 42.7 C 83.7 45.7 81.4 47.2 79.3 47.2 C 73.6 47.2 70.7 41.8 70.7 32.5 C 70.7 23.3 73.6 17.7 79.3 17.7 C 81.4 17.7 83.8 19 85 22 C 84.96 22.02 85 18.4 85 18.4 L 91.7 18.4 C 91.7 18.4 91.74 46.44 91.7 46.4 C 91.7 56.4 86.4 59.2 80.8 59.2 C 77.2 59.2 74.2 58.3 71.8 56 Z M 85 37.7 C 85 37.7 85 27.2 85 27.2 C 84.4 25.3 83 23.7 81.5 23.7 C 78.5 23.7 77.7 27.4 77.7 32.5 C 77.7 37.6 78.5 41.2 81.5 41.2 C 83 41.2 84.4 39.6 85 37.7 Z M 96.1 32.9 C 96.1 24.5 99.7 17.7 107 17.7 C 114.3 17.7 117.4 24.2 117.4 32.8 C 117.36 32.76 117.4 35.1 117.4 35.1 C 117.4 35.1 102.66 35.1 102.7 35.1 C 102.7 39.4 104.5 42.6 108.4 42.6 C 110 42.6 111.8 41.5 113.2 39.7 C 113.2 39.7 116.5 43.5 116.5 43.5 C 114.2 46.4 110.9 48.1 107.6 48.1 C 100.1 48.1 96.1 41.8 96.1 32.9 Z M 106.8 23.2 C 103.5 23.2 102.7 27.3 102.7 30.4 C 102.7 30.4 110.8 30.4 110.8 30.4 C 110.8 27.1 110.1 23.2 106.8 23.2 Z M 121.5 47.4 L 121.5 18.4 L 128.3 18.4 C 128.3 18.4 128.28 22.44 128.3 22.4 C 129.4 19.8 132.2 17.7 134.8 17.7 C 134.8 17.7 134.8 24.4 134.8 24.4 C 134.3 24.2 133.9 24.2 133.4 24.2 C 131.5 24.2 129.4 25.8 128.3 27.9 C 128.28 27.9 128.3 47.4 128.3 47.4 L 121.5 47.4 Z M 160.7 47.4 C 160.7 47.4 160.68 44.64 160.7 44.6 C 159.4 46.9 156.7 48.1 154.6 48.1 C 150.1 48.1 146.8 44.4 146.8 38.5 C 146.8 32.6 150.1 29 154.6 29 C 156.7 29 159.5 30.1 160.7 32.3 C 160.7 32.3 160.7 28.7 160.7 28.7 C 160.7 25.4 159.4 23.5 156.3 23.5 C 154.4 23.5 152.3 24.4 150.4 26.3 C 150.4 26.3 147.9 21.5 147.9 21.5 C 150.5 18.7 154.7 17.7 157.7 17.7 C 163.6 17.7 167.5 20.7 167.5 27.2 C 167.46 27.18 167.5 47.4 167.5 47.4 L 160.7 47.4 Z M 160.7 40.6 C 160.7 40.6 160.7 36.7 160.7 36.7 C 160 34.9 158.5 33.7 157 33.7 C 154.7 33.7 153.5 35.8 153.5 38.6 C 153.5 41.3 154.7 43.6 157 43.6 C 158.5 43.6 160 42.4 160.7 40.6 Z M 185.9 47.4 C 185.9 47.4 185.88 26.76 185.9 26.8 C 185.9 24.7 185.2 23.7 183.7 23.7 C 181.9 23.7 180.4 25.6 179.8 27.5 C 179.76 27.48 179.8 47.4 179.8 47.4 L 173 47.4 L 173 18.4 L 179.8 18.4 C 179.8 18.4 179.76 22.2 179.8 22.2 C 180.9 19.9 183.9 17.7 186.5 17.7 C 190.9 17.7 192.7 20.3 192.7 24.3 C 192.72 24.3 192.7 47.4 192.7 47.4 L 185.9 47.4 Z M 211.3 47.4 C 211.3 47.4 211.26 43.8 211.3 43.8 C 210 46.7 207.7 48.1 205.6 48.1 C 199.9 48.1 197 42.2 197 32.9 C 197 23.8 199.9 17.7 205.6 17.7 C 207.7 17.7 210.1 19 211.3 22 C 211.26 22.02 211.3 7.4 211.3 7.4 L 218 7.4 L 218 47.4 L 211.3 47.4 Z M 211.3 38.6 C 211.3 38.6 211.3 27.2 211.3 27.2 C 210.7 25.3 209.3 23.7 207.8 23.7 C 204.8 23.7 204 27.8 204 32.9 C 204 38 204.8 42.1 207.8 42.1 C 209.3 42.1 210.7 40.6 211.3 38.6 Z M 233.7 47.4 L 233.7 7.4 L 251.2 7.4 L 251.2 14 L 241.3 14 L 241.3 23.7 L 250.8 23.7 L 250.8 30.4 L 241.3 30.4 L 241.3 47.4 L 233.7 47.4 Z M 255.9 47.4 L 255.9 18.4 L 262.7 18.4 C 262.7 18.4 262.68 22.44 262.7 22.4 C 263.8 19.8 266.6 17.7 269.2 17.7 C 269.2 17.7 269.2 24.4 269.2 24.4 C 268.7 24.2 268.3 24.2 267.8 24.2 C 265.9 24.2 263.8 25.8 262.7 27.9 C 262.68 27.9 262.7 47.4 262.7 47.4 L 255.9 47.4 Z M 271.9 10.9 C 271.9 8.6 273.8 6.8 276.1 6.8 C 278.3 6.8 280.2 8.6 280.2 10.9 C 280.2 13.2 278.3 15 276.1 15 C 273.8 15 271.9 13.2 271.9 10.9 Z M 272.7 47.4 L 272.7 18.4 L 279.5 18.4 L 279.5 47.4 L 272.7 47.4 Z M 283.8 32.9 C 283.8 24.5 287.4 17.7 294.7 17.7 C 302 17.7 305 24.2 305 32.8 C 305.04 32.76 305 35.1 305 35.1 C 305 35.1 290.34 35.1 290.3 35.1 C 290.4 39.4 292.2 42.6 296 42.6 C 297.7 42.6 299.5 41.5 300.8 39.7 C 300.8 39.7 304.1 43.5 304.1 43.5 C 301.9 46.4 298.6 48.1 295.3 48.1 C 287.8 48.1 283.8 41.8 283.8 32.9 Z M 294.5 23.2 C 291.2 23.2 290.3 27.3 290.3 30.4 C 290.3 30.4 298.5 30.4 298.5 30.4 C 298.5 27.1 297.8 23.2 294.5 23.2 Z M 307.1 44.3 C 307.1 44.3 310 39.7 310 39.7 C 311.5 41.4 313.7 42.8 316 42.8 C 318.1 42.8 319.6 41.6 319.6 39.7 C 319.6 34.9 308.2 36 308.2 25.9 C 308.2 21.5 311.5 17.7 317.4 17.7 C 320.7 17.7 323.8 19 325.9 21.1 C 325.9 21.1 323.2 25.7 323.2 25.7 C 322 24.3 319.9 23 317.6 23 C 315.7 23 314.5 24.2 314.5 25.7 C 314.5 30.1 326 29.3 326 39.5 C 326 44.6 322.1 48.1 316.6 48.1 C 312.2 48.1 309.1 46.6 307.1 44.3 Z " stroke="none" fill="#b13d24"/>  </g></svg>