<?xml version="1.0" standalone="no"?><!DOCTYPE svg PUBLIC "-//W3C//DTD SVG 1.1//EN" "http://www.w3.org/Graphics/SVG/1.1/DTD/svg11.dtd"><svg xmlns="http://www.w3.org/2000/svg" version="1.1" width="191px" height="44.3px" viewBox="0 0 191 44.3">  <desc>8 hours</desc>  <defs/>  <g id="Polygon233523">    <path d="M 52.5 14.3 L 52.5 19.5 L 50 19.5 L 50 14.3 L 45.4 14.3 L 45.4 12 L 50 12 L 50 7 L 52.5 7 L 52.5 12 L 57 12 L 57 14.3 L 52.5 14.3 Z M 45.4 23.3 L 45.4 21.1 L 57 21.1 L 57 23.3 L 45.4 23.3 Z M 60.1 18.6 C 60.1 16.2 61.9 14.2 63.9 13.4 C 62 12.7 60.4 11.1 60.4 8.6 C 60.4 4.9 63.7 3.4 67 3.4 C 70.2 3.4 73.6 4.9 73.6 8.6 C 73.6 11.1 72 12.7 70.1 13.4 C 72.1 14.2 73.9 16.2 73.9 18.6 C 73.9 22.1 71 24.1 67 24.1 C 63 24.1 60.1 22.1 60.1 18.6 Z M 69.6 9.3 C 69.6 7.8 68.6 6.9 67 6.9 C 65.4 6.9 64.4 7.8 64.4 9.3 C 64.4 11 66.2 11.8 67 11.9 C 67.8 11.8 69.6 11 69.6 9.3 Z M 69.9 18.1 C 69.9 16.1 67.8 15.1 67 15 C 66.2 15.1 64.2 16.1 64.2 18.1 C 64.2 19.6 65.4 20.5 67 20.5 C 68.6 20.5 69.9 19.6 69.9 18.1 Z M 90.9 23.7 C 90.9 23.7 90.91 14.1 90.9 14.1 C 90.9 12.6 90.2 12 89 12 C 87.8 12 86.9 13 86.4 13.8 C 86.38 13.83 86.4 23.7 86.4 23.7 L 82.8 23.7 L 82.8 3.7 L 86.4 3.7 C 86.4 3.7 86.38 11.1 86.4 11.1 C 87.1 10 88.8 8.8 90.6 8.8 C 93.3 8.8 94.5 10.3 94.5 12.7 C 94.51 12.75 94.5 23.7 94.5 23.7 L 90.9 23.7 Z M 97 16.4 C 97 12.4 99.3 8.8 103.5 8.8 C 107.9 8.8 110.1 12.4 110.1 16.4 C 110.1 20.5 107.9 24.1 103.5 24.1 C 99.3 24.1 97 20.5 97 16.4 Z M 106.4 16.4 C 106.4 14.1 105.5 12 103.5 12 C 101.6 12 100.8 14.1 100.8 16.4 C 100.8 18.8 101.6 20.9 103.5 20.9 C 105.5 20.9 106.4 18.8 106.4 16.4 Z M 120.7 23.7 C 120.7 23.7 120.73 21.87 120.7 21.9 C 120 23 118.4 24.1 116.5 24.1 C 113.8 24.1 112.6 22.6 112.6 20.2 C 112.6 20.16 112.6 9.2 112.6 9.2 L 116.2 9.2 C 116.2 9.2 116.2 18.78 116.2 18.8 C 116.2 20.3 116.9 20.9 118.1 20.9 C 119.3 20.9 120.2 20 120.7 19.1 C 120.73 19.11 120.7 9.2 120.7 9.2 L 124.3 9.2 L 124.3 23.7 L 120.7 23.7 Z M 127.6 23.7 L 127.6 9.2 L 131.2 9.2 C 131.2 9.2 131.17 11.19 131.2 11.2 C 132 9.9 133.6 8.8 135.1 8.8 C 135.1 8.8 135.1 12.4 135.1 12.4 C 134.9 12.3 134.6 12.3 134.3 12.3 C 133.1 12.3 131.8 13 131.2 14 C 131.17 14.04 131.2 23.7 131.2 23.7 L 127.6 23.7 Z M 136.1 22 C 136.1 22 137.6 19.5 137.6 19.5 C 138.5 20.4 140.1 21.2 141.6 21.2 C 143 21.2 143.7 20.6 143.7 19.7 C 143.7 17.3 136.5 18.6 136.5 13.2 C 136.5 10.9 138.4 8.8 141.8 8.8 C 143.9 8.8 145.6 9.6 146.9 10.7 C 146.9 10.7 145.4 13.1 145.4 13.1 C 144.7 12.3 143.4 11.6 141.9 11.6 C 140.7 11.6 140 12.2 140 13 C 140 15.2 147.2 14.1 147.2 19.6 C 147.2 22.2 145 24.1 141.6 24.1 C 139.3 24.1 137.3 23.3 136.1 22 Z " stroke="none" fill="#d3d2d2"/>  </g></svg>