<?xml version="1.0" standalone="no"?><!DOCTYPE svg PUBLIC "-//W3C//DTD SVG 1.1//EN" "http://www.w3.org/Graphics/SVG/1.1/DTD/svg11.dtd"><svg xmlns="http://www.w3.org/2000/svg" version="1.1" width="651px" height="85.6px" viewBox="0 0 651 85.6">  <desc>Floral Foam Bun</desc>  <defs/>  <g id="Polygon234387">    <path d="M 3.1 47.4 L 3.1 7.4 L 20.6 7.4 L 20.6 14 L 10.7 14 L 10.7 23.7 L 20.2 23.7 L 20.2 30.4 L 10.7 30.4 L 10.7 47.4 L 3.1 47.4 Z M 25.3 47.4 L 25.3 7.4 L 32.1 7.4 L 32.1 47.4 L 25.3 47.4 Z M 36.4 32.9 C 36.4 24.8 39.7 17.7 47.3 17.7 C 54.9 17.7 58.2 24.8 58.2 32.9 C 58.2 40.9 54.9 48.1 47.3 48.1 C 39.7 48.1 36.4 40.9 36.4 32.9 Z M 51.2 32.9 C 51.2 28 50.3 23.7 47.3 23.7 C 44.3 23.7 43.4 28 43.4 32.9 C 43.4 37.9 44.3 42.1 47.3 42.1 C 50.3 42.1 51.2 37.9 51.2 32.9 Z M 62.6 47.4 L 62.6 18.4 L 69.4 18.4 C 69.4 18.4 69.36 22.44 69.4 22.4 C 70.5 19.8 73.3 17.7 75.8 17.7 C 75.8 17.7 75.8 24.4 75.8 24.4 C 75.4 24.2 74.9 24.2 74.5 24.2 C 72.5 24.2 70.5 25.8 69.4 27.9 C 69.36 27.9 69.4 47.4 69.4 47.4 L 62.6 47.4 Z M 92 47.4 C 92 47.4 91.98 44.64 92 44.6 C 90.7 46.9 88 48.1 85.9 48.1 C 81.4 48.1 78.1 44.4 78.1 38.5 C 78.1 32.6 81.4 29 85.9 29 C 88 29 90.8 30.1 92 32.3 C 92 32.3 92 28.7 92 28.7 C 92 25.4 90.7 23.5 87.6 23.5 C 85.7 23.5 83.6 24.4 81.7 26.3 C 81.7 26.3 79.2 21.5 79.2 21.5 C 81.8 18.7 86 17.7 89 17.7 C 94.9 17.7 98.8 20.7 98.8 27.2 C 98.76 27.18 98.8 47.4 98.8 47.4 L 92 47.4 Z M 92 40.6 C 92 40.6 92 36.7 92 36.7 C 91.3 34.9 89.8 33.7 88.3 33.7 C 86 33.7 84.8 35.8 84.8 38.6 C 84.8 41.3 86 43.6 88.3 43.6 C 89.8 43.6 91.3 42.4 92 40.6 Z M 104.3 47.4 L 104.3 7.4 L 111.1 7.4 L 111.1 47.4 L 104.3 47.4 Z M 126.7 47.4 L 126.7 7.4 L 144.2 7.4 L 144.2 14 L 134.2 14 L 134.2 23.7 L 143.8 23.7 L 143.8 30.4 L 134.2 30.4 L 134.2 47.4 L 126.7 47.4 Z M 147.7 32.9 C 147.7 24.8 151 17.7 158.6 17.7 C 166.2 17.7 169.5 24.8 169.5 32.9 C 169.5 40.9 166.2 48.1 158.6 48.1 C 151 48.1 147.7 40.9 147.7 32.9 Z M 162.5 32.9 C 162.5 28 161.6 23.7 158.6 23.7 C 155.6 23.7 154.7 28 154.7 32.9 C 154.7 37.9 155.6 42.1 158.6 42.1 C 161.6 42.1 162.5 37.9 162.5 32.9 Z M 186.5 47.4 C 186.5 47.4 186.48 44.64 186.5 44.6 C 185.2 46.9 182.5 48.1 180.4 48.1 C 175.9 48.1 172.6 44.4 172.6 38.5 C 172.6 32.6 175.9 29 180.4 29 C 182.5 29 185.3 30.1 186.5 32.3 C 186.5 32.3 186.5 28.7 186.5 28.7 C 186.5 25.4 185.2 23.5 182.1 23.5 C 180.2 23.5 178.1 24.4 176.2 26.3 C 176.2 26.3 173.7 21.5 173.7 21.5 C 176.3 18.7 180.5 17.7 183.5 17.7 C 189.4 17.7 193.3 20.7 193.3 27.2 C 193.26 27.18 193.3 47.4 193.3 47.4 L 186.5 47.4 Z M 186.5 40.6 C 186.5 40.6 186.5 36.7 186.5 36.7 C 185.8 34.9 184.3 33.7 182.8 33.7 C 180.5 33.7 179.3 35.8 179.3 38.6 C 179.3 41.3 180.5 43.6 182.8 43.6 C 184.3 43.6 185.8 42.4 186.5 40.6 Z M 224.6 47.4 C 224.6 47.4 224.64 26.76 224.6 26.8 C 224.6 24.6 223.9 23.7 222.4 23.7 C 220.6 23.7 219.1 25.7 218.5 27.5 C 218.52 27.48 218.5 47.4 218.5 47.4 L 211.7 47.4 C 211.7 47.4 211.68 26.76 211.7 26.8 C 211.7 24.8 211 23.7 209.5 23.7 C 207.7 23.7 206.2 25.7 205.6 27.5 C 205.56 27.48 205.6 47.4 205.6 47.4 L 198.8 47.4 L 198.8 18.4 L 205.6 18.4 C 205.6 18.4 205.56 22.2 205.6 22.2 C 206.6 20 209.6 17.7 212.3 17.7 C 215.4 17.7 217.8 19.2 218.3 22.5 C 219.4 20.1 222.4 17.7 225.3 17.7 C 228.9 17.7 231.4 19.6 231.4 24.3 C 231.42 24.3 231.4 47.4 231.4 47.4 L 224.6 47.4 Z M 247.1 47.4 L 247.1 7.4 C 247.1 7.4 259.14 7.38 259.1 7.4 C 265.8 7.4 268.7 12.1 268.7 17.6 C 268.7 22.6 266.3 25.7 262.9 26.8 C 266.6 27.4 269.3 31.7 269.3 36.6 C 269.3 42.7 266.5 47.4 259.6 47.4 C 259.56 47.4 247.1 47.4 247.1 47.4 Z M 261 18.9 C 261 16 260 14 257.2 14 C 257.16 14.04 254.6 14 254.6 14 L 254.6 23.7 C 254.6 23.7 257.16 23.7 257.2 23.7 C 260 23.7 261 21.8 261 18.9 Z M 261.5 35.5 C 261.5 32.6 260.2 30.4 257.4 30.4 C 257.4 30.36 254.6 30.4 254.6 30.4 L 254.6 40.7 C 254.6 40.7 257.4 40.74 257.4 40.7 C 260.2 40.7 261.5 38.9 261.5 35.5 Z M 286.7 47.4 C 286.7 47.4 286.73 43.74 286.7 43.7 C 285.6 46.1 282.8 48.1 280 48.1 C 275.6 48.1 273.8 45.7 273.8 41.6 C 273.83 41.58 273.8 18.4 273.8 18.4 L 280.6 18.4 C 280.6 18.4 280.61 39.18 280.6 39.2 C 280.6 41.2 281.3 42.1 282.8 42.1 C 284.6 42.1 286.1 40.3 286.7 38.5 C 286.73 38.46 286.7 18.4 286.7 18.4 L 293.6 18.4 L 293.6 47.4 L 286.7 47.4 Z M 311.9 47.4 C 311.9 47.4 311.93 26.76 311.9 26.8 C 311.9 24.7 311.2 23.7 309.7 23.7 C 308 23.7 306.5 25.6 305.8 27.5 C 305.81 27.48 305.8 47.4 305.8 47.4 L 299 47.4 L 299 18.4 L 305.8 18.4 C 305.8 18.4 305.81 22.2 305.8 22.2 C 307 19.9 310 17.7 312.6 17.7 C 317 17.7 318.8 20.3 318.8 24.3 C 318.77 24.3 318.8 47.4 318.8 47.4 L 311.9 47.4 Z " stroke="none" fill="#b13d24"/>  </g></svg>