<?xml version="1.0" standalone="no"?><!DOCTYPE svg PUBLIC "-//W3C//DTD SVG 1.1//EN" "http://www.w3.org/Graphics/SVG/1.1/DTD/svg11.dtd"><svg xmlns="http://www.w3.org/2000/svg" version="1.1" width="219px" height="440.3px" viewBox="0 0 219 440.3">  <desc>2 pcs 300 ml 75 ml 2 sticks 80 g as needed as needed as needed</desc>  <defs/>  <g id="Polygon161462">    <path d="M 9.4 320.7 C 9.4 320.7 9.42 319.14 9.4 319.1 C 8.5 320.5 7.1 321.1 5.6 321.1 C 3.3 321.1 1.2 319.3 1.2 316.2 C 1.2 313.2 3.2 311.5 5.6 311.5 C 7.1 311.5 8.5 312 9.4 313.3 C 9.4 313.3 9.4 310.8 9.4 310.8 C 9.4 308.8 8.3 307.7 6.4 307.7 C 5.1 307.7 3.9 308.2 2.8 309.5 C 2.8 309.5 1.9 308 1.9 308 C 3.2 306.5 4.9 305.9 6.8 305.9 C 9.7 305.9 11.6 307.3 11.6 310.6 C 11.58 310.56 11.6 320.7 11.6 320.7 L 9.4 320.7 Z M 9.4 317.7 C 9.4 317.7 9.4 314.9 9.4 314.9 C 8.8 313.7 7.6 313.1 6.3 313.1 C 4.5 313.1 3.4 314.5 3.4 316.3 C 3.4 318.1 4.5 319.5 6.3 319.5 C 7.6 319.5 8.8 318.9 9.4 317.7 Z M 14.3 319 C 14.3 319 15.4 317.5 15.4 317.5 C 16.3 318.5 17.6 319.3 19.2 319.3 C 20.9 319.3 22 318.4 22 317 C 22 313.6 14.8 314.8 14.8 309.8 C 14.8 307.6 16.5 305.9 19.4 305.9 C 21.3 305.9 22.8 306.6 23.8 307.7 C 23.8 307.7 22.8 309.2 22.8 309.2 C 22 308.2 20.8 307.6 19.4 307.6 C 17.8 307.6 16.8 308.5 16.8 309.7 C 16.8 312.8 24.1 311.7 24.1 316.9 C 24.1 319.3 22.2 321.1 19.2 321.1 C 17.2 321.1 15.5 320.4 14.3 319 Z M 41.4 320.7 C 41.4 320.7 41.4 310.38 41.4 310.4 C 41.4 308.5 40.5 307.8 39.1 307.8 C 37.7 307.8 36.4 308.9 35.7 310.1 C 35.7 310.08 35.7 320.7 35.7 320.7 L 33.6 320.7 L 33.6 306.2 L 35.7 306.2 C 35.7 306.2 35.7 308.28 35.7 308.3 C 36.5 307 38.2 305.9 39.9 305.9 C 42.4 305.9 43.6 307.2 43.6 309.8 C 43.56 309.78 43.6 320.7 43.6 320.7 L 41.4 320.7 Z M 46.8 313.4 C 46.8 309.2 49 305.9 52.7 305.9 C 56.5 305.9 58.4 309.3 58.4 313.5 C 58.41 313.5 58.4 314.2 58.4 314.2 C 58.4 314.2 49.02 314.16 49 314.2 C 49.1 317.1 50.6 319.3 53.2 319.3 C 54.4 319.3 55.7 318.6 56.6 317.5 C 56.6 317.5 57.8 318.8 57.8 318.8 C 56.6 320.2 55 321.1 53 321.1 C 49.1 321.1 46.8 317.9 46.8 313.4 Z M 52.6 307.7 C 50.1 307.7 49.1 310.4 49 312.6 C 49 312.6 56.3 312.6 56.3 312.6 C 56.2 310.4 55.3 307.7 52.6 307.7 Z M 60.8 313.4 C 60.8 309.2 63.1 305.9 66.7 305.9 C 70.5 305.9 72.4 309.3 72.4 313.5 C 72.45 313.5 72.4 314.2 72.4 314.2 C 72.4 314.2 63.06 314.16 63.1 314.2 C 63.1 317.1 64.6 319.3 67.2 319.3 C 68.5 319.3 69.8 318.6 70.7 317.5 C 70.7 317.5 71.8 318.8 71.8 318.8 C 70.6 320.2 69 321.1 67 321.1 C 63.2 321.1 60.8 317.9 60.8 313.4 Z M 66.7 307.7 C 64.1 307.7 63.1 310.4 63.1 312.6 C 63.1 312.6 70.3 312.6 70.3 312.6 C 70.3 310.4 69.3 307.7 66.7 307.7 Z M 83.9 320.7 C 83.9 320.7 83.88 318.63 83.9 318.6 C 83 320.1 81.6 321.1 80.1 321.1 C 76.8 321.1 74.9 318 74.9 313.5 C 74.9 309 76.8 305.9 80.1 305.9 C 81.5 305.9 83 306.7 83.9 308.3 C 83.88 308.31 83.9 300.7 83.9 300.7 L 86 300.7 L 86 320.7 L 83.9 320.7 Z M 83.9 316.8 C 83.9 316.8 83.9 310.1 83.9 310.1 C 83.3 308.9 82 307.8 80.6 307.8 C 78.2 307.8 77.1 310.3 77.1 313.5 C 77.1 316.6 78.2 319.1 80.6 319.1 C 82 319.1 83.3 318.1 83.9 316.8 Z M 89.3 313.4 C 89.3 309.2 91.5 305.9 95.2 305.9 C 99 305.9 100.9 309.3 100.9 313.5 C 100.89 313.5 100.9 314.2 100.9 314.2 C 100.9 314.2 91.5 314.16 91.5 314.2 C 91.6 317.1 93.1 319.3 95.7 319.3 C 96.9 319.3 98.2 318.6 99.1 317.5 C 99.1 317.5 100.3 318.8 100.3 318.8 C 99.1 320.2 97.4 321.1 95.5 321.1 C 91.6 321.1 89.3 317.9 89.3 313.4 Z M 95.1 307.7 C 92.6 307.7 91.6 310.4 91.5 312.6 C 91.5 312.6 98.8 312.6 98.8 312.6 C 98.7 310.4 97.8 307.7 95.1 307.7 Z M 112.3 320.7 C 112.3 320.7 112.32 318.63 112.3 318.6 C 111.5 320.1 110 321.1 108.5 321.1 C 105.3 321.1 103.3 318 103.3 313.5 C 103.3 309 105.2 305.9 108.5 305.9 C 110 305.9 111.4 306.7 112.3 308.3 C 112.32 308.31 112.3 300.7 112.3 300.7 L 114.5 300.7 L 114.5 320.7 L 112.3 320.7 Z M 112.3 316.8 C 112.3 316.8 112.3 310.1 112.3 310.1 C 111.8 308.9 110.4 307.8 109 307.8 C 106.7 307.8 105.6 310.3 105.6 313.5 C 105.6 316.6 106.7 319.1 109 319.1 C 110.4 319.1 111.8 318.1 112.3 316.8 Z " stroke="none" fill="#d0d1d4"/>  </g>  <g id="Polygon161461">    <path d="M 9.4 248.7 C 9.4 248.7 9.42 247.14 9.4 247.1 C 8.5 248.5 7.1 249.1 5.6 249.1 C 3.3 249.1 1.2 247.3 1.2 244.2 C 1.2 241.2 3.2 239.5 5.6 239.5 C 7.1 239.5 8.5 240 9.4 241.3 C 9.4 241.3 9.4 238.8 9.4 238.8 C 9.4 236.8 8.3 235.7 6.4 235.7 C 5.1 235.7 3.9 236.2 2.8 237.5 C 2.8 237.5 1.9 236 1.9 236 C 3.2 234.5 4.9 233.9 6.8 233.9 C 9.7 233.9 11.6 235.3 11.6 238.6 C 11.58 238.56 11.6 248.7 11.6 248.7 L 9.4 248.7 Z M 9.4 245.7 C 9.4 245.7 9.4 242.9 9.4 242.9 C 8.8 241.7 7.6 241.1 6.3 241.1 C 4.5 241.1 3.4 242.5 3.4 244.3 C 3.4 246.1 4.5 247.5 6.3 247.5 C 7.6 247.5 8.8 246.9 9.4 245.7 Z M 14.3 247 C 14.3 247 15.4 245.5 15.4 245.5 C 16.3 246.5 17.6 247.3 19.2 247.3 C 20.9 247.3 22 246.4 22 245 C 22 241.6 14.8 242.8 14.8 237.8 C 14.8 235.6 16.5 233.9 19.4 233.9 C 21.3 233.9 22.8 234.6 23.8 235.7 C 23.8 235.7 22.8 237.2 22.8 237.2 C 22 236.2 20.8 235.6 19.4 235.6 C 17.8 235.6 16.8 236.5 16.8 237.7 C 16.8 240.8 24.1 239.7 24.1 244.9 C 24.1 247.3 22.2 249.1 19.2 249.1 C 17.2 249.1 15.5 248.4 14.3 247 Z M 41.4 248.7 C 41.4 248.7 41.4 238.38 41.4 238.4 C 41.4 236.5 40.5 235.8 39.1 235.8 C 37.7 235.8 36.4 236.9 35.7 238.1 C 35.7 238.08 35.7 248.7 35.7 248.7 L 33.6 248.7 L 33.6 234.2 L 35.7 234.2 C 35.7 234.2 35.7 236.28 35.7 236.3 C 36.5 235 38.2 233.9 39.9 233.9 C 42.4 233.9 43.6 235.2 43.6 237.8 C 43.56 237.78 43.6 248.7 43.6 248.7 L 41.4 248.7 Z M 46.8 241.4 C 46.8 237.2 49 233.9 52.7 233.9 C 56.5 233.9 58.4 237.3 58.4 241.5 C 58.41 241.5 58.4 242.2 58.4 242.2 C 58.4 242.2 49.02 242.16 49 242.2 C 49.1 245.1 50.6 247.3 53.2 247.3 C 54.4 247.3 55.7 246.6 56.6 245.5 C 56.6 245.5 57.8 246.8 57.8 246.8 C 56.6 248.2 55 249.1 53 249.1 C 49.1 249.1 46.8 245.9 46.8 241.4 Z M 52.6 235.7 C 50.1 235.7 49.1 238.4 49 240.6 C 49 240.6 56.3 240.6 56.3 240.6 C 56.2 238.4 55.3 235.7 52.6 235.7 Z M 60.8 241.4 C 60.8 237.2 63.1 233.9 66.7 233.9 C 70.5 233.9 72.4 237.3 72.4 241.5 C 72.45 241.5 72.4 242.2 72.4 242.2 C 72.4 242.2 63.06 242.16 63.1 242.2 C 63.1 245.1 64.6 247.3 67.2 247.3 C 68.5 247.3 69.8 246.6 70.7 245.5 C 70.7 245.5 71.8 246.8 71.8 246.8 C 70.6 248.2 69 249.1 67 249.1 C 63.2 249.1 60.8 245.9 60.8 241.4 Z M 66.7 235.7 C 64.1 235.7 63.1 238.4 63.1 240.6 C 63.1 240.6 70.3 240.6 70.3 240.6 C 70.3 238.4 69.3 235.7 66.7 235.7 Z M 83.9 248.7 C 83.9 248.7 83.88 246.63 83.9 246.6 C 83 248.1 81.6 249.1 80.1 249.1 C 76.8 249.1 74.9 246 74.9 241.5 C 74.9 237 76.8 233.9 80.1 233.9 C 81.5 233.9 83 234.7 83.9 236.3 C 83.88 236.31 83.9 228.7 83.9 228.7 L 86 228.7 L 86 248.7 L 83.9 248.7 Z M 83.9 244.8 C 83.9 244.8 83.9 238.1 83.9 238.1 C 83.3 236.9 82 235.8 80.6 235.8 C 78.2 235.8 77.1 238.3 77.1 241.5 C 77.1 244.6 78.2 247.1 80.6 247.1 C 82 247.1 83.3 246.1 83.9 244.8 Z M 89.3 241.4 C 89.3 237.2 91.5 233.9 95.2 233.9 C 99 233.9 100.9 237.3 100.9 241.5 C 100.89 241.5 100.9 242.2 100.9 242.2 C 100.9 242.2 91.5 242.16 91.5 242.2 C 91.6 245.1 93.1 247.3 95.7 247.3 C 96.9 247.3 98.2 246.6 99.1 245.5 C 99.1 245.5 100.3 246.8 100.3 246.8 C 99.1 248.2 97.4 249.1 95.5 249.1 C 91.6 249.1 89.3 245.9 89.3 241.4 Z M 95.1 235.7 C 92.6 235.7 91.6 238.4 91.5 240.6 C 91.5 240.6 98.8 240.6 98.8 240.6 C 98.7 238.4 97.8 235.7 95.1 235.7 Z M 112.3 248.7 C 112.3 248.7 112.32 246.63 112.3 246.6 C 111.5 248.1 110 249.1 108.5 249.1 C 105.3 249.1 103.3 246 103.3 241.5 C 103.3 237 105.2 233.9 108.5 233.9 C 110 233.9 111.4 234.7 112.3 236.3 C 112.32 236.31 112.3 228.7 112.3 228.7 L 114.5 228.7 L 114.5 248.7 L 112.3 248.7 Z M 112.3 244.8 C 112.3 244.8 112.3 238.1 112.3 238.1 C 111.8 236.9 110.4 235.8 109 235.8 C 106.7 235.8 105.6 238.3 105.6 241.5 C 105.6 244.6 106.7 247.1 109 247.1 C 110.4 247.1 111.8 246.1 112.3 244.8 Z " stroke="none" fill="#d0d1d4"/>  </g>  <g id="Polygon161460">    <path d="M 9.4 212.7 C 9.4 212.7 9.42 211.14 9.4 211.1 C 8.5 212.5 7.1 213.1 5.6 213.1 C 3.3 213.1 1.2 211.3 1.2 208.2 C 1.2 205.2 3.2 203.5 5.6 203.5 C 7.1 203.5 8.5 204 9.4 205.3 C 9.4 205.3 9.4 202.8 9.4 202.8 C 9.4 200.8 8.3 199.7 6.4 199.7 C 5.1 199.7 3.9 200.2 2.8 201.5 C 2.8 201.5 1.9 200 1.9 200 C 3.2 198.5 4.9 197.9 6.8 197.9 C 9.7 197.9 11.6 199.3 11.6 202.6 C 11.58 202.56 11.6 212.7 11.6 212.7 L 9.4 212.7 Z M 9.4 209.7 C 9.4 209.7 9.4 206.9 9.4 206.9 C 8.8 205.7 7.6 205.1 6.3 205.1 C 4.5 205.1 3.4 206.5 3.4 208.3 C 3.4 210.1 4.5 211.5 6.3 211.5 C 7.6 211.5 8.8 210.9 9.4 209.7 Z M 14.3 211 C 14.3 211 15.4 209.5 15.4 209.5 C 16.3 210.5 17.6 211.3 19.2 211.3 C 20.9 211.3 22 210.4 22 209 C 22 205.6 14.8 206.8 14.8 201.8 C 14.8 199.6 16.5 197.9 19.4 197.9 C 21.3 197.9 22.8 198.6 23.8 199.7 C 23.8 199.7 22.8 201.2 22.8 201.2 C 22 200.2 20.8 199.6 19.4 199.6 C 17.8 199.6 16.8 200.5 16.8 201.7 C 16.8 204.8 24.1 203.7 24.1 208.9 C 24.1 211.3 22.2 213.1 19.2 213.1 C 17.2 213.1 15.5 212.4 14.3 211 Z M 41.4 212.7 C 41.4 212.7 41.4 202.38 41.4 202.4 C 41.4 200.5 40.5 199.8 39.1 199.8 C 37.7 199.8 36.4 200.9 35.7 202.1 C 35.7 202.08 35.7 212.7 35.7 212.7 L 33.6 212.7 L 33.6 198.2 L 35.7 198.2 C 35.7 198.2 35.7 200.28 35.7 200.3 C 36.5 199 38.2 197.9 39.9 197.9 C 42.4 197.9 43.6 199.2 43.6 201.8 C 43.56 201.78 43.6 212.7 43.6 212.7 L 41.4 212.7 Z M 46.8 205.4 C 46.8 201.2 49 197.9 52.7 197.9 C 56.5 197.9 58.4 201.3 58.4 205.5 C 58.41 205.5 58.4 206.2 58.4 206.2 C 58.4 206.2 49.02 206.16 49 206.2 C 49.1 209.1 50.6 211.3 53.2 211.3 C 54.4 211.3 55.7 210.6 56.6 209.5 C 56.6 209.5 57.8 210.8 57.8 210.8 C 56.6 212.2 55 213.1 53 213.1 C 49.1 213.1 46.8 209.9 46.8 205.4 Z M 52.6 199.7 C 50.1 199.7 49.1 202.4 49 204.6 C 49 204.6 56.3 204.6 56.3 204.6 C 56.2 202.4 55.3 199.7 52.6 199.7 Z M 60.8 205.4 C 60.8 201.2 63.1 197.9 66.7 197.9 C 70.5 197.9 72.4 201.3 72.4 205.5 C 72.45 205.5 72.4 206.2 72.4 206.2 C 72.4 206.2 63.06 206.16 63.1 206.2 C 63.1 209.1 64.6 211.3 67.2 211.3 C 68.5 211.3 69.8 210.6 70.7 209.5 C 70.7 209.5 71.8 210.8 71.8 210.8 C 70.6 212.2 69 213.1 67 213.1 C 63.2 213.1 60.8 209.9 60.8 205.4 Z M 66.7 199.7 C 64.1 199.7 63.1 202.4 63.1 204.6 C 63.1 204.6 70.3 204.6 70.3 204.6 C 70.3 202.4 69.3 199.7 66.7 199.7 Z M 83.9 212.7 C 83.9 212.7 83.88 210.63 83.9 210.6 C 83 212.1 81.6 213.1 80.1 213.1 C 76.8 213.1 74.9 210 74.9 205.5 C 74.9 201 76.8 197.9 80.1 197.9 C 81.5 197.9 83 198.7 83.9 200.3 C 83.88 200.31 83.9 192.7 83.9 192.7 L 86 192.7 L 86 212.7 L 83.9 212.7 Z M 83.9 208.8 C 83.9 208.8 83.9 202.1 83.9 202.1 C 83.3 200.9 82 199.8 80.6 199.8 C 78.2 199.8 77.1 202.3 77.1 205.5 C 77.1 208.6 78.2 211.1 80.6 211.1 C 82 211.1 83.3 210.1 83.9 208.8 Z M 89.3 205.4 C 89.3 201.2 91.5 197.9 95.2 197.9 C 99 197.9 100.9 201.3 100.9 205.5 C 100.89 205.5 100.9 206.2 100.9 206.2 C 100.9 206.2 91.5 206.16 91.5 206.2 C 91.6 209.1 93.1 211.3 95.7 211.3 C 96.9 211.3 98.2 210.6 99.1 209.5 C 99.1 209.5 100.3 210.8 100.3 210.8 C 99.1 212.2 97.4 213.1 95.5 213.1 C 91.6 213.1 89.3 209.9 89.3 205.4 Z M 95.1 199.7 C 92.6 199.7 91.6 202.4 91.5 204.6 C 91.5 204.6 98.8 204.6 98.8 204.6 C 98.7 202.4 97.8 199.7 95.1 199.7 Z M 112.3 212.7 C 112.3 212.7 112.32 210.63 112.3 210.6 C 111.5 212.1 110 213.1 108.5 213.1 C 105.3 213.1 103.3 210 103.3 205.5 C 103.3 201 105.2 197.9 108.5 197.9 C 110 197.9 111.4 198.7 112.3 200.3 C 112.32 200.31 112.3 192.7 112.3 192.7 L 114.5 192.7 L 114.5 212.7 L 112.3 212.7 Z M 112.3 208.8 C 112.3 208.8 112.3 202.1 112.3 202.1 C 111.8 200.9 110.4 199.8 109 199.8 C 106.7 199.8 105.6 202.3 105.6 205.5 C 105.6 208.6 106.7 211.1 109 211.1 C 110.4 211.1 111.8 210.1 112.3 208.8 Z " stroke="none" fill="#d0d1d4"/>  </g>  <g id="Polygon161459">    <path d="M 1.4 171.8 C 1.4 169.1 3.4 167.1 5.3 166.4 C 3.5 165.7 1.6 164 1.6 161.5 C 1.6 158 4.4 156.4 7.3 156.4 C 10.2 156.4 13 158 13 161.5 C 13 164 11.1 165.7 9.3 166.4 C 11.2 167.1 13.2 169.1 13.2 171.8 C 13.2 175.1 10.8 177.1 7.3 177.1 C 3.8 177.1 1.4 175.1 1.4 171.8 Z M 10.6 161.8 C 10.6 159.8 9.2 158.5 7.3 158.5 C 5.3 158.5 4 159.8 4 161.8 C 4 164.3 6.5 165.3 7.3 165.5 C 8.1 165.3 10.6 164.3 10.6 161.8 Z M 10.8 171.5 C 10.8 168.8 8.1 167.5 7.3 167.4 C 6.4 167.5 3.8 168.8 3.8 171.5 C 3.8 173.7 5.3 174.9 7.3 174.9 C 9.2 174.9 10.8 173.7 10.8 171.5 Z M 16 166.7 C 16 161.9 17.6 156.4 22.3 156.4 C 26.9 156.4 28.5 161.9 28.5 166.7 C 28.5 171.5 26.9 177.1 22.3 177.1 C 17.6 177.1 16 171.5 16 166.7 Z M 26.1 166.7 C 26.1 162.8 25.3 158.5 22.3 158.5 C 19.2 158.5 18.4 162.8 18.4 166.7 C 18.4 170.6 19.2 174.9 22.3 174.9 C 25.3 174.9 26.1 170.6 26.1 166.7 Z M 38.2 180.8 C 38.2 180.8 39.2 179.1 39.2 179.1 C 40.2 180.2 41.4 180.8 43 180.8 C 45 180.8 46.6 179.6 46.6 176.8 C 46.6 176.8 46.6 174.4 46.6 174.4 C 45.8 175.9 44.4 176.9 42.8 176.9 C 39.6 176.9 37.6 173.9 37.6 169.4 C 37.6 164.9 39.6 161.9 42.8 161.9 C 44.3 161.9 45.7 162.7 46.6 164.3 C 46.65 164.31 46.6 162.2 46.6 162.2 L 48.8 162.2 C 48.8 162.2 48.81 176.67 48.8 176.7 C 48.8 181.1 46.1 182.6 43.1 182.6 C 41.1 182.6 39.6 182.1 38.2 180.8 Z M 46.6 172.6 C 46.6 172.6 46.6 166.1 46.6 166.1 C 46.1 164.9 44.8 163.8 43.4 163.8 C 41 163.8 39.9 166.3 39.9 169.4 C 39.9 172.5 41 175 43.4 175 C 44.8 175 46.1 173.8 46.6 172.6 Z " stroke="none" fill="#d0d1d4"/>  </g>  <g id="Polygon161458">    <path d="M 1.6 140.7 C 1.6 140.7 1.59 138.75 1.6 138.8 C 8.1 131.2 10.4 128.8 10.4 125.9 C 10.4 123.7 8.9 122.5 7.2 122.5 C 5.3 122.5 3.9 123.5 2.9 125 C 2.9 125 1.4 123.6 1.4 123.6 C 2.7 121.6 4.7 120.4 7.2 120.4 C 10.3 120.4 12.8 122.4 12.8 125.9 C 12.8 129.2 10.3 132.2 5 138.6 C 4.98 138.57 12.9 138.6 12.9 138.6 L 12.9 140.7 L 1.6 140.7 Z M 21.9 139 C 21.9 139 23 137.5 23 137.5 C 23.8 138.5 25.2 139.3 26.8 139.3 C 28.5 139.3 29.6 138.4 29.6 137 C 29.6 133.6 22.3 134.8 22.3 129.8 C 22.3 127.6 24.1 125.9 27 125.9 C 28.9 125.9 30.4 126.6 31.4 127.7 C 31.4 127.7 30.4 129.2 30.4 129.2 C 29.6 128.2 28.4 127.6 27 127.6 C 25.4 127.6 24.4 128.5 24.4 129.7 C 24.4 132.8 31.6 131.7 31.6 136.9 C 31.6 139.3 29.8 141.1 26.8 141.1 C 24.8 141.1 23.1 140.4 21.9 139 Z M 35.1 137.8 C 35.13 137.79 35.1 128.1 35.1 128.1 L 33.2 128.1 L 33.2 126.2 L 35.1 126.2 L 35.1 122.3 L 37.3 122.3 L 37.3 126.2 L 39.7 126.2 L 39.7 128.1 L 37.3 128.1 C 37.3 128.1 37.29 137.4 37.3 137.4 C 37.3 138.5 37.6 139.1 38.5 139.1 C 39 139.1 39.4 138.9 39.7 138.6 C 39.7 138.6 40.4 140.2 40.4 140.2 C 39.9 140.7 39.1 141.1 38 141.1 C 36.1 141.1 35.1 140 35.1 137.8 Z M 42.2 122.6 C 42.2 121.8 42.9 121.2 43.6 121.2 C 44.5 121.2 45.1 121.8 45.1 122.6 C 45.1 123.5 44.5 124.1 43.6 124.1 C 42.9 124.1 42.2 123.5 42.2 122.6 Z M 42.6 140.7 L 42.6 126.2 L 44.7 126.2 L 44.7 140.7 L 42.6 140.7 Z M 48 133.4 C 48 129.2 50.2 125.9 54 125.9 C 56 125.9 57.2 126.7 58.1 127.8 C 58.1 127.8 56.9 129.2 56.9 129.2 C 56.2 128.2 55.3 127.8 54.1 127.8 C 51.6 127.8 50.2 130.4 50.2 133.4 C 50.2 136.5 51.6 139.1 54.1 139.1 C 55.3 139.1 56.2 138.7 56.9 137.7 C 56.9 137.7 58.1 139.1 58.1 139.1 C 57.2 140.3 56 141.1 54 141.1 C 50.2 141.1 48 137.7 48 133.4 Z M 69 140.7 L 65 134.2 L 63 136.8 L 63 140.7 L 60.9 140.7 L 60.9 120.7 L 63 120.7 L 63 134.1 L 69 126.2 L 71.6 126.2 L 66.5 132.7 L 71.6 140.7 L 69 140.7 Z M 72.8 139 C 72.8 139 73.9 137.5 73.9 137.5 C 74.8 138.5 76.1 139.3 77.7 139.3 C 79.4 139.3 80.5 138.4 80.5 137 C 80.5 133.6 73.3 134.8 73.3 129.8 C 73.3 127.6 75 125.9 77.9 125.9 C 79.8 125.9 81.3 126.6 82.3 127.7 C 82.3 127.7 81.3 129.2 81.3 129.2 C 80.5 128.2 79.3 127.6 77.9 127.6 C 76.3 127.6 75.3 128.5 75.3 129.7 C 75.3 132.8 82.6 131.7 82.6 136.9 C 82.6 139.3 80.7 141.1 77.7 141.1 C 75.7 141.1 74 140.4 72.8 139 Z " stroke="none" fill="#d0d1d4"/>  </g>  <g id="Polygon161457">    <path d="M 3 104.7 L 9.2 86.8 L 0.8 86.8 L 0.8 84.7 L 11.9 84.7 L 11.9 86.3 L 5.5 104.7 L 3 104.7 Z M 14.2 101.8 C 14.2 101.8 15.8 100.4 15.8 100.4 C 16.8 102 18.1 102.9 20 102.9 C 22.2 102.9 23.6 100.9 23.6 98.6 C 23.6 95.7 22.3 94.2 20.2 94.2 C 18.8 94.2 17.7 94.7 16.6 96 C 16.56 96.03 14.8 95.4 14.8 95.4 L 14.8 84.7 L 25 84.7 L 25 86.8 L 17.2 86.8 C 17.2 86.8 17.16 93.81 17.2 93.8 C 17.9 92.9 19.3 92.1 20.8 92.1 C 23.7 92.1 26 94.4 26 98.5 C 26 102.3 23.6 105.1 20.1 105.1 C 17.2 105.1 15.4 103.8 14.2 101.8 Z M 50.5 104.7 C 50.5 104.7 50.46 94.2 50.5 94.2 C 50.5 92.6 49.8 91.8 48.4 91.8 C 47.2 91.8 45.9 92.9 45.3 94.1 C 45.3 94.08 45.3 104.7 45.3 104.7 L 43.1 104.7 C 43.1 104.7 43.14 94.2 43.1 94.2 C 43.1 92.6 42.5 91.8 41.1 91.8 C 39.8 91.8 38.6 92.9 37.9 94.1 C 37.95 94.08 37.9 104.7 37.9 104.7 L 35.8 104.7 L 35.8 90.2 L 37.9 90.2 C 37.9 90.2 37.95 92.28 37.9 92.3 C 38.5 91.2 40.2 89.9 41.9 89.9 C 43.8 89.9 44.9 90.9 45.2 92.4 C 45.9 91.1 47.5 89.9 49.3 89.9 C 51.4 89.9 52.6 91 52.6 93.6 C 52.62 93.63 52.6 104.7 52.6 104.7 L 50.5 104.7 Z M 56.6 104.7 L 56.6 84.7 L 58.7 84.7 L 58.7 104.7 L 56.6 104.7 Z " stroke="none" fill="#d0d1d4"/>  </g>  <g id="Polygon161456">    <path d="M 0.9 65.7 C 0.9 65.7 2.4 64.3 2.4 64.3 C 3.4 65.8 4.8 66.9 6.7 66.9 C 9.1 66.9 10.3 65.4 10.3 63.1 C 10.3 60.4 8.6 59.5 6.5 59.5 C 5.9 59.5 5.2 59.5 4.9 59.5 C 4.9 59.5 4.9 57.4 4.9 57.4 C 5.2 57.4 6 57.4 6.5 57.4 C 8.5 57.4 10.1 56.3 10.1 54 C 10.1 51.7 8.7 50.5 6.7 50.5 C 4.9 50.5 3.6 51.5 2.6 52.9 C 2.6 52.9 1.1 51.5 1.1 51.5 C 2.3 49.6 4.3 48.4 6.8 48.4 C 10.1 48.4 12.5 50.2 12.5 53.7 C 12.5 56.2 10.7 57.9 8.9 58.4 C 10.7 58.6 12.8 60.4 12.8 63.3 C 12.8 66.6 10.6 69.1 6.8 69.1 C 4 69.1 1.9 67.6 0.9 65.7 Z M 15.6 58.7 C 15.6 53.9 17.2 48.4 21.9 48.4 C 26.5 48.4 28.1 53.9 28.1 58.7 C 28.1 63.5 26.5 69.1 21.9 69.1 C 17.2 69.1 15.6 63.5 15.6 58.7 Z M 25.7 58.7 C 25.7 54.8 25 50.5 21.9 50.5 C 18.8 50.5 18.1 54.8 18.1 58.7 C 18.1 62.6 18.8 66.9 21.9 66.9 C 25 66.9 25.7 62.6 25.7 58.7 Z M 31 58.7 C 31 53.9 32.5 48.4 37.2 48.4 C 41.9 48.4 43.5 53.9 43.5 58.7 C 43.5 63.5 41.9 69.1 37.2 69.1 C 32.5 69.1 31 63.5 31 58.7 Z M 41.1 58.7 C 41.1 54.8 40.3 50.5 37.2 50.5 C 34.2 50.5 33.4 54.8 33.4 58.7 C 33.4 62.6 34.1 66.9 37.2 66.9 C 40.3 66.9 41.1 62.6 41.1 58.7 Z M 68 68.7 C 68 68.7 67.98 58.2 68 58.2 C 68 56.6 67.3 55.8 66 55.8 C 64.7 55.8 63.4 56.9 62.8 58.1 C 62.82 58.08 62.8 68.7 62.8 68.7 L 60.7 68.7 C 60.7 68.7 60.66 58.2 60.7 58.2 C 60.7 56.6 60 55.8 58.6 55.8 C 57.3 55.8 56.1 56.9 55.5 58.1 C 55.47 58.08 55.5 68.7 55.5 68.7 L 53.3 68.7 L 53.3 54.2 L 55.5 54.2 C 55.5 54.2 55.47 56.28 55.5 56.3 C 56.1 55.2 57.7 53.9 59.4 53.9 C 61.3 53.9 62.4 54.9 62.7 56.4 C 63.4 55.1 65 53.9 66.8 53.9 C 68.9 53.9 70.1 55 70.1 57.6 C 70.14 57.63 70.1 68.7 70.1 68.7 L 68 68.7 Z M 74.1 68.7 L 74.1 48.7 L 76.2 48.7 L 76.2 68.7 L 74.1 68.7 Z " stroke="none" fill="#d0d1d4"/>  </g>  <g id="Polygon161455">    <path d="M 1.6 32.7 C 1.6 32.7 1.59 30.75 1.6 30.8 C 8.1 23.2 10.4 20.8 10.4 17.9 C 10.4 15.7 8.9 14.5 7.2 14.5 C 5.3 14.5 3.9 15.5 2.9 17 C 2.9 17 1.4 15.6 1.4 15.6 C 2.7 13.6 4.7 12.4 7.2 12.4 C 10.3 12.4 12.8 14.4 12.8 17.9 C 12.8 21.2 10.3 24.2 5 30.6 C 4.98 30.57 12.9 30.6 12.9 30.6 L 12.9 32.7 L 1.6 32.7 Z M 25.2 30.6 C 25.23 30.6 25.2 38.2 25.2 38.2 L 23.1 38.2 L 23.1 18.2 L 25.2 18.2 C 25.2 18.2 25.23 20.28 25.2 20.3 C 26.1 18.8 27.5 17.9 29 17.9 C 32.3 17.9 34.2 20.9 34.2 25.4 C 34.2 30 32.3 33.1 29 33.1 C 27.6 33.1 26.1 32.2 25.2 30.6 Z M 32 25.4 C 32 22.3 30.9 19.8 28.5 19.8 C 27.1 19.8 25.8 20.9 25.2 22.1 C 25.2 22.1 25.2 28.7 25.2 28.7 C 25.8 30 27.1 31.1 28.5 31.1 C 30.9 31.1 32 28.6 32 25.4 Z M 36.7 25.4 C 36.7 21.2 39 17.9 42.7 17.9 C 44.7 17.9 46 18.7 46.9 19.8 C 46.9 19.8 45.7 21.2 45.7 21.2 C 44.9 20.2 44 19.8 42.9 19.8 C 40.3 19.8 39 22.4 39 25.4 C 39 28.5 40.3 31.1 42.9 31.1 C 44 31.1 44.9 30.7 45.7 29.7 C 45.7 29.7 46.9 31.1 46.9 31.1 C 46 32.3 44.7 33.1 42.7 33.1 C 39 33.1 36.7 29.7 36.7 25.4 Z M 48.4 31 C 48.4 31 49.5 29.5 49.5 29.5 C 50.4 30.5 51.7 31.3 53.3 31.3 C 55 31.3 56.1 30.4 56.1 29 C 56.1 25.6 48.9 26.8 48.9 21.8 C 48.9 19.6 50.6 17.9 53.5 17.9 C 55.4 17.9 56.9 18.6 57.9 19.7 C 57.9 19.7 56.9 21.2 56.9 21.2 C 56.2 20.2 54.9 19.6 53.5 19.6 C 51.9 19.6 50.9 20.5 50.9 21.7 C 50.9 24.8 58.2 23.7 58.2 28.9 C 58.2 31.3 56.3 33.1 53.3 33.1 C 51.3 33.1 49.6 32.4 48.4 31 Z " stroke="none" fill="#d0d1d4"/>  </g></svg>