<?xml version="1.0" standalone="no"?><!DOCTYPE svg PUBLIC "-//W3C//DTD SVG 1.1//EN" "http://www.w3.org/Graphics/SVG/1.1/DTD/svg11.dtd"><svg xmlns="http://www.w3.org/2000/svg" version="1.1" width="651px" height="85.6px" viewBox="0 0 651 85.6">  <desc>Masking Tape and Paper Pulp</desc>  <defs/>  <g id="Polygon233050">    <path d="M 26.4 47.4 L 26.4 23.8 L 19.7 47.4 L 17.2 47.4 L 10.7 23.8 L 10.7 47.4 L 3.1 47.4 L 3.1 7.4 L 12.7 7.4 L 18.5 27.8 L 24.4 7.4 L 33.8 7.4 L 33.8 47.4 L 26.4 47.4 Z M 52.3 47.4 C 52.3 47.4 52.32 44.64 52.3 44.6 C 51.1 46.9 48.4 48.1 46.3 48.1 C 41.7 48.1 38.4 44.4 38.4 38.5 C 38.4 32.6 41.7 29 46.3 29 C 48.4 29 51.1 30.1 52.3 32.3 C 52.3 32.3 52.3 28.7 52.3 28.7 C 52.3 25.4 51 23.5 47.9 23.5 C 46 23.5 44 24.4 42.1 26.3 C 42.1 26.3 39.5 21.5 39.5 21.5 C 42.2 18.7 46.3 17.7 49.3 17.7 C 55.3 17.7 59.1 20.7 59.1 27.2 C 59.1 27.18 59.1 47.4 59.1 47.4 L 52.3 47.4 Z M 52.3 40.6 C 52.3 40.6 52.3 36.7 52.3 36.7 C 51.6 34.9 50.2 33.7 48.7 33.7 C 46.3 33.7 45.2 35.8 45.2 38.6 C 45.2 41.3 46.3 43.6 48.7 43.6 C 50.2 43.6 51.6 42.4 52.3 40.6 Z M 62.6 44.3 C 62.6 44.3 65.4 39.7 65.4 39.7 C 67 41.4 69.1 42.8 71.4 42.8 C 73.6 42.8 75.1 41.6 75.1 39.7 C 75.1 34.9 63.6 36 63.6 25.9 C 63.6 21.5 66.9 17.7 72.8 17.7 C 76.1 17.7 79.2 19 81.4 21.1 C 81.4 21.1 78.6 25.7 78.6 25.7 C 77.5 24.3 75.4 23 73 23 C 71.2 23 69.9 24.2 69.9 25.7 C 69.9 30.1 81.5 29.3 81.5 39.5 C 81.5 44.6 77.5 48.1 72 48.1 C 67.7 48.1 64.5 46.6 62.6 44.3 Z M 99.1 47.4 L 94.8 35.8 L 92.2 40.6 L 92.2 47.4 L 85.4 47.4 L 85.4 7.4 L 92.2 7.4 L 92.2 31.8 L 98.8 18.4 L 106.2 18.4 L 99.3 31.3 L 106.5 47.4 L 99.1 47.4 Z M 108.8 10.9 C 108.8 8.6 110.7 6.8 112.9 6.8 C 115.2 6.8 117.1 8.6 117.1 10.9 C 117.1 13.2 115.2 15 112.9 15 C 110.7 15 108.8 13.2 108.8 10.9 Z M 109.6 47.4 L 109.6 18.4 L 116.3 18.4 L 116.3 47.4 L 109.6 47.4 Z M 134.7 47.4 C 134.7 47.4 134.7 26.76 134.7 26.8 C 134.7 24.7 134 23.7 132.5 23.7 C 130.7 23.7 129.2 25.6 128.6 27.5 C 128.58 27.48 128.6 47.4 128.6 47.4 L 121.8 47.4 L 121.8 18.4 L 128.6 18.4 C 128.6 18.4 128.58 22.2 128.6 22.2 C 129.7 19.9 132.7 17.7 135.4 17.7 C 139.7 17.7 141.5 20.3 141.5 24.3 C 141.54 24.3 141.5 47.4 141.5 47.4 L 134.7 47.4 Z M 146.9 56 C 146.9 56 149.2 50.5 149.2 50.5 C 150.9 52.2 152.9 53.3 155.2 53.3 C 158 53.3 160.1 51.4 160.1 46.9 C 160.1 46.9 160.1 42.7 160.1 42.7 C 158.8 45.7 156.5 47.2 154.4 47.2 C 148.7 47.2 145.9 41.8 145.9 32.5 C 145.9 23.3 148.7 17.7 154.4 17.7 C 156.5 17.7 158.9 19 160.1 22 C 160.08 22.02 160.1 18.4 160.1 18.4 L 166.9 18.4 C 166.9 18.4 166.86 46.44 166.9 46.4 C 166.9 56.4 161.5 59.2 155.9 59.2 C 152.3 59.2 149.3 58.3 146.9 56 Z M 160.1 37.7 C 160.1 37.7 160.1 27.2 160.1 27.2 C 159.5 25.3 158.1 23.7 156.7 23.7 C 153.7 23.7 152.8 27.4 152.8 32.5 C 152.8 37.6 153.7 41.2 156.7 41.2 C 158.1 41.2 159.5 39.6 160.1 37.7 Z M 186.5 47.4 L 186.5 14 L 180.5 14 L 180.5 7.4 L 200.2 7.4 L 200.2 14 L 194.1 14 L 194.1 47.4 L 186.5 47.4 Z M 213.8 47.4 C 213.8 47.4 213.84 44.64 213.8 44.6 C 212.6 46.9 209.9 48.1 207.8 48.1 C 203.2 48.1 199.9 44.4 199.9 38.5 C 199.9 32.6 203.2 29 207.8 29 C 209.9 29 212.6 30.1 213.8 32.3 C 213.8 32.3 213.8 28.7 213.8 28.7 C 213.8 25.4 212.5 23.5 209.5 23.5 C 207.5 23.5 205.5 24.4 203.6 26.3 C 203.6 26.3 201.1 21.5 201.1 21.5 C 203.7 18.7 207.8 17.7 210.8 17.7 C 216.8 17.7 220.6 20.7 220.6 27.2 C 220.62 27.18 220.6 47.4 220.6 47.4 L 213.8 47.4 Z M 213.8 40.6 C 213.8 40.6 213.8 36.7 213.8 36.7 C 213.1 34.9 211.7 33.7 210.2 33.7 C 207.8 33.7 206.7 35.8 206.7 38.6 C 206.7 41.3 207.8 43.6 210.2 43.6 C 211.7 43.6 213.1 42.4 213.8 40.6 Z M 232.9 43.8 C 232.92 43.8 232.9 58.4 232.9 58.4 L 226.1 58.4 L 226.1 18.4 L 232.9 18.4 C 232.9 18.4 232.92 22.02 232.9 22 C 234.2 19.1 236.5 17.7 238.6 17.7 C 244.3 17.7 247.1 23.6 247.1 32.9 C 247.1 42 244.3 48.1 238.6 48.1 C 236.5 48.1 234.1 46.8 232.9 43.8 Z M 240.2 32.9 C 240.2 27.8 239.3 23.7 236.3 23.7 C 234.9 23.7 233.5 25.1 232.9 27.1 C 232.9 27.1 232.9 38.6 232.9 38.6 C 233.5 40.6 234.9 42.1 236.3 42.1 C 239.3 42.1 240.2 38 240.2 32.9 Z M 250.4 32.9 C 250.4 24.5 254 17.7 261.2 17.7 C 268.6 17.7 271.6 24.2 271.6 32.8 C 271.62 32.76 271.6 35.1 271.6 35.1 C 271.6 35.1 256.92 35.1 256.9 35.1 C 257 39.4 258.8 42.6 262.6 42.6 C 264.2 42.6 266.1 41.5 267.4 39.7 C 267.4 39.7 270.7 43.5 270.7 43.5 C 268.4 46.4 265.2 48.1 261.9 48.1 C 254.3 48.1 250.4 41.8 250.4 32.9 Z M 261.1 23.2 C 257.8 23.2 256.9 27.3 256.9 30.4 C 256.9 30.4 265.1 30.4 265.1 30.4 C 265.1 27.1 264.4 23.2 261.1 23.2 Z M 298.1 47.4 C 298.1 47.4 298.14 44.64 298.1 44.6 C 296.9 46.9 294.2 48.1 292.1 48.1 C 287.5 48.1 284.2 44.4 284.2 38.5 C 284.2 32.6 287.5 29 292.1 29 C 294.2 29 296.9 30.1 298.1 32.3 C 298.1 32.3 298.1 28.7 298.1 28.7 C 298.1 25.4 296.8 23.5 293.8 23.5 C 291.8 23.5 289.8 24.4 287.9 26.3 C 287.9 26.3 285.4 21.5 285.4 21.5 C 288 18.7 292.1 17.7 295.1 17.7 C 301.1 17.7 304.9 20.7 304.9 27.2 C 304.92 27.18 304.9 47.4 304.9 47.4 L 298.1 47.4 Z M 298.1 40.6 C 298.1 40.6 298.1 36.7 298.1 36.7 C 297.4 34.9 296 33.7 294.5 33.7 C 292.1 33.7 291 35.8 291 38.6 C 291 41.3 292.1 43.6 294.5 43.6 C 296 43.6 297.4 42.4 298.1 40.6 Z M 323.3 47.4 C 323.3 47.4 323.34 26.76 323.3 26.8 C 323.3 24.7 322.6 23.7 321.1 23.7 C 319.4 23.7 317.9 25.6 317.2 27.5 C 317.22 27.48 317.2 47.4 317.2 47.4 L 310.4 47.4 L 310.4 18.4 L 317.2 18.4 C 317.2 18.4 317.22 22.2 317.2 22.2 C 318.4 19.9 321.4 17.7 324 17.7 C 328.4 17.7 330.2 20.3 330.2 24.3 C 330.18 24.3 330.2 47.4 330.2 47.4 L 323.3 47.4 Z M 348.7 47.4 C 348.7 47.4 348.72 43.8 348.7 43.8 C 347.5 46.7 345.1 48.1 343.1 48.1 C 337.4 48.1 334.5 42.2 334.5 32.9 C 334.5 23.8 337.4 17.7 343.1 17.7 C 345.1 17.7 347.5 19 348.7 22 C 348.72 22.02 348.7 7.4 348.7 7.4 L 355.5 7.4 L 355.5 47.4 L 348.7 47.4 Z M 348.7 38.6 C 348.7 38.6 348.7 27.2 348.7 27.2 C 348.1 25.3 346.7 23.7 345.3 23.7 C 342.3 23.7 341.5 27.8 341.5 32.9 C 341.5 38 342.3 42.1 345.3 42.1 C 346.7 42.1 348.1 40.6 348.7 38.6 Z M 371.2 47.4 L 371.2 7.4 C 371.2 7.4 381.95 7.38 382 7.4 C 389.8 7.4 393.2 13.3 393.2 20 C 393.2 26.8 389.8 32.7 382 32.7 C 381.95 32.7 378.7 32.7 378.7 32.7 L 378.7 47.4 L 371.2 47.4 Z M 385.6 20 C 385.6 16.4 384 14 381.2 14 C 381.17 14.04 378.7 14 378.7 14 L 378.7 26 C 378.7 26 381.17 26.04 381.2 26 C 384 26 385.6 23.6 385.6 20 Z M 409 47.4 C 409 47.4 408.95 44.64 409 44.6 C 407.7 46.9 405 48.1 402.9 48.1 C 398.3 48.1 395 44.4 395 38.5 C 395 32.6 398.3 29 402.9 29 C 405 29 407.8 30.1 409 32.3 C 409 32.3 409 28.7 409 28.7 C 409 25.4 407.6 23.5 404.6 23.5 C 402.7 23.5 400.6 24.4 398.7 26.3 C 398.7 26.3 396.2 21.5 396.2 21.5 C 398.8 18.7 403 17.7 406 17.7 C 411.9 17.7 415.7 20.7 415.7 27.2 C 415.73 27.18 415.7 47.4 415.7 47.4 L 409 47.4 Z M 409 40.6 C 409 40.6 409 36.7 409 36.7 C 408.2 34.9 406.8 33.7 405.3 33.7 C 403 33.7 401.8 35.8 401.8 38.6 C 401.8 41.3 403 43.6 405.3 43.6 C 406.8 43.6 408.2 42.4 409 40.6 Z M 428 43.8 C 428.03 43.8 428 58.4 428 58.4 L 421.3 58.4 L 421.3 18.4 L 428 18.4 C 428 18.4 428.03 22.02 428 22 C 429.3 19.1 431.6 17.7 433.7 17.7 C 439.4 17.7 442.3 23.6 442.3 32.9 C 442.3 42 439.4 48.1 433.7 48.1 C 431.6 48.1 429.2 46.8 428 43.8 Z M 435.3 32.9 C 435.3 27.8 434.5 23.7 431.5 23.7 C 430 23.7 428.6 25.1 428 27.1 C 428 27.1 428 38.6 428 38.6 C 428.6 40.6 430 42.1 431.5 42.1 C 434.5 42.1 435.3 38 435.3 32.9 Z M 445.5 32.9 C 445.5 24.5 449.1 17.7 456.4 17.7 C 463.7 17.7 466.7 24.2 466.7 32.8 C 466.73 32.76 466.7 35.1 466.7 35.1 C 466.7 35.1 452.03 35.1 452 35.1 C 452.1 39.4 453.9 42.6 457.7 42.6 C 459.4 42.6 461.2 41.5 462.5 39.7 C 462.5 39.7 465.8 43.5 465.8 43.5 C 463.6 46.4 460.3 48.1 457 48.1 C 449.5 48.1 445.5 41.8 445.5 32.9 Z M 456.2 23.2 C 452.9 23.2 452 27.3 452 30.4 C 452 30.4 460.2 30.4 460.2 30.4 C 460.2 27.1 459.5 23.2 456.2 23.2 Z M 470.9 47.4 L 470.9 18.4 L 477.7 18.4 C 477.7 18.4 477.65 22.44 477.7 22.4 C 478.8 19.8 481.6 17.7 484.1 17.7 C 484.1 17.7 484.1 24.4 484.1 24.4 C 483.7 24.2 483.2 24.2 482.8 24.2 C 480.8 24.2 478.8 25.8 477.7 27.9 C 477.65 27.9 477.7 47.4 477.7 47.4 L 470.9 47.4 Z M 497.8 47.4 L 497.8 7.4 C 497.8 7.4 508.61 7.38 508.6 7.4 C 516.4 7.4 519.9 13.3 519.9 20 C 519.9 26.8 516.4 32.7 508.6 32.7 C 508.61 32.7 505.4 32.7 505.4 32.7 L 505.4 47.4 L 497.8 47.4 Z M 512.2 20 C 512.2 16.4 510.7 14 507.8 14 C 507.83 14.04 505.4 14 505.4 14 L 505.4 26 C 505.4 26 507.83 26.04 507.8 26 C 510.7 26 512.2 23.6 512.2 20 Z M 536.8 47.4 C 536.8 47.4 536.81 43.74 536.8 43.7 C 535.7 46.1 532.9 48.1 530 48.1 C 525.7 48.1 523.9 45.7 523.9 41.6 C 523.91 41.58 523.9 18.4 523.9 18.4 L 530.7 18.4 C 530.7 18.4 530.69 39.18 530.7 39.2 C 530.7 41.2 531.4 42.1 532.9 42.1 C 534.7 42.1 536.2 40.3 536.8 38.5 C 536.81 38.46 536.8 18.4 536.8 18.4 L 543.7 18.4 L 543.7 47.4 L 536.8 47.4 Z M 549.1 47.4 L 549.1 7.4 L 555.9 7.4 L 555.9 47.4 L 549.1 47.4 Z M 568.1 43.8 C 568.13 43.8 568.1 58.4 568.1 58.4 L 561.4 58.4 L 561.4 18.4 L 568.1 18.4 C 568.1 18.4 568.13 22.02 568.1 22 C 569.4 19.1 571.7 17.7 573.8 17.7 C 579.5 17.7 582.4 23.6 582.4 32.9 C 582.4 42 579.5 48.1 573.8 48.1 C 571.7 48.1 569.3 46.8 568.1 43.8 Z M 575.4 32.9 C 575.4 27.8 574.6 23.7 571.6 23.7 C 570.1 23.7 568.7 25.1 568.1 27.1 C 568.1 27.1 568.1 38.6 568.1 38.6 C 568.7 40.6 570.1 42.1 571.6 42.1 C 574.6 42.1 575.4 38 575.4 32.9 Z " stroke="none" fill="#b13d24"/>  </g></svg>