<?xml version="1.0" standalone="no"?><!DOCTYPE svg PUBLIC "-//W3C//DTD SVG 1.1//EN" "http://www.w3.org/Graphics/SVG/1.1/DTD/svg11.dtd"><svg xmlns="http://www.w3.org/2000/svg" version="1.1" width="623px" height="39px" viewBox="0 0 623 39">  <desc>Hover over to compare this with Ersatz s take on the historical dish</desc>  <defs/>  <g id="Polygon146661">    <path d="M 27 24.8 L 27 17.4 L 20.4 17.4 L 20.4 24.8 L 18.5 24.8 L 18.5 8.8 L 20.4 8.8 L 20.4 15.8 L 27 15.8 L 27 8.8 L 28.9 8.8 L 28.9 24.8 L 27 24.8 Z M 31.6 19 C 31.6 15.8 33.2 13 36.3 13 C 39.4 13 41 15.8 41 19 C 41 22.3 39.4 25.1 36.3 25.1 C 33.2 25.1 31.6 22.3 31.6 19 Z M 39.2 19 C 39.2 16.7 38.3 14.5 36.3 14.5 C 34.3 14.5 33.4 16.7 33.4 19 C 33.4 21.4 34.3 23.6 36.3 23.6 C 38.3 23.6 39.2 21.4 39.2 19 Z M 46 24.8 L 42.2 13.2 L 44 13.2 L 46.9 22.8 L 49.8 13.2 L 51.7 13.2 L 47.9 24.8 L 46 24.8 Z M 52.8 19 C 52.8 15.7 54.6 13 57.5 13 C 60.6 13 62.1 15.7 62.1 19.1 C 62.11 19.08 62.1 19.6 62.1 19.6 C 62.1 19.6 54.6 19.61 54.6 19.6 C 54.7 21.9 55.9 23.7 57.9 23.7 C 58.9 23.7 60 23.2 60.7 22.3 C 60.7 22.3 61.6 23.3 61.6 23.3 C 60.7 24.4 59.4 25.1 57.8 25.1 C 54.7 25.1 52.8 22.6 52.8 19 Z M 57.5 14.4 C 55.5 14.4 54.7 16.6 54.6 18.3 C 54.6 18.3 60.4 18.3 60.4 18.3 C 60.4 16.6 59.6 14.4 57.5 14.4 Z M 64.6 24.8 L 64.6 13.2 L 66.3 13.2 C 66.3 13.2 66.34 15.1 66.3 15.1 C 67.1 13.9 68.2 13 69.6 13 C 69.6 13 69.6 14.8 69.6 14.8 C 69.4 14.7 69.2 14.7 69.1 14.7 C 68 14.7 66.8 15.6 66.3 16.6 C 66.34 16.61 66.3 24.8 66.3 24.8 L 64.6 24.8 Z M 76.2 19 C 76.2 15.8 77.8 13 80.9 13 C 84 13 85.6 15.8 85.6 19 C 85.6 22.3 84 25.1 80.9 25.1 C 77.8 25.1 76.2 22.3 76.2 19 Z M 83.8 19 C 83.8 16.7 82.9 14.5 80.9 14.5 C 78.9 14.5 78 16.7 78 19 C 78 21.4 78.9 23.6 80.9 23.6 C 82.9 23.6 83.8 21.4 83.8 19 Z M 90.6 24.8 L 86.8 13.2 L 88.7 13.2 L 91.5 22.8 L 94.4 13.2 L 96.3 13.2 L 92.5 24.8 L 90.6 24.8 Z M 97.4 19 C 97.4 15.7 99.2 13 102.1 13 C 105.2 13 106.7 15.7 106.7 19.1 C 106.73 19.08 106.7 19.6 106.7 19.6 C 106.7 19.6 99.22 19.61 99.2 19.6 C 99.3 21.9 100.5 23.7 102.6 23.7 C 103.6 23.7 104.6 23.2 105.3 22.3 C 105.3 22.3 106.2 23.3 106.2 23.3 C 105.3 24.4 104 25.1 102.4 25.1 C 99.3 25.1 97.4 22.6 97.4 19 Z M 102.1 14.4 C 100.1 14.4 99.3 16.6 99.2 18.3 C 99.2 18.3 105 18.3 105 18.3 C 105 16.6 104.2 14.4 102.1 14.4 Z M 109.2 24.8 L 109.2 13.2 L 111 13.2 C 111 13.2 110.95 15.1 111 15.1 C 111.7 13.9 112.8 13 114.2 13 C 114.2 13 114.2 14.8 114.2 14.8 C 114 14.7 113.9 14.7 113.7 14.7 C 112.6 14.7 111.4 15.6 111 16.6 C 110.95 16.61 111 24.8 111 24.8 L 109.2 24.8 Z M 121.7 22.5 C 121.73 22.51 121.7 14.8 121.7 14.8 L 120.2 14.8 L 120.2 13.2 L 121.7 13.2 L 121.7 10.1 L 123.5 10.1 L 123.5 13.2 L 125.4 13.2 L 125.4 14.8 L 123.5 14.8 C 123.5 14.8 123.46 22.2 123.5 22.2 C 123.5 23.1 123.7 23.6 124.4 23.6 C 124.8 23.6 125.2 23.4 125.4 23.1 C 125.4 23.1 125.9 24.4 125.9 24.4 C 125.5 24.8 124.9 25.1 124.1 25.1 C 122.5 25.1 121.7 24.2 121.7 22.5 Z M 127.1 19 C 127.1 15.8 128.8 13 131.8 13 C 135 13 136.6 15.8 136.6 19 C 136.6 22.3 135 25.1 131.8 25.1 C 128.8 25.1 127.1 22.3 127.1 19 Z M 134.8 19 C 134.8 16.7 133.9 14.5 131.8 14.5 C 129.8 14.5 128.9 16.7 128.9 19 C 128.9 21.4 129.8 23.6 131.8 23.6 C 133.9 23.6 134.8 21.4 134.8 19 Z M 143.7 19 C 143.7 15.6 145.6 13 148.5 13 C 150.1 13 151.1 13.6 151.8 14.5 C 151.8 14.5 150.9 15.7 150.9 15.7 C 150.3 14.8 149.6 14.5 148.7 14.5 C 146.6 14.5 145.5 16.6 145.5 19 C 145.5 21.5 146.6 23.6 148.7 23.6 C 149.6 23.6 150.3 23.2 150.9 22.4 C 150.9 22.4 151.8 23.6 151.8 23.6 C 151.1 24.5 150.1 25.1 148.5 25.1 C 145.6 25.1 143.7 22.5 143.7 19 Z M 153.5 19 C 153.5 15.8 155.1 13 158.2 13 C 161.3 13 162.9 15.8 162.9 19 C 162.9 22.3 161.3 25.1 158.2 25.1 C 155.1 25.1 153.5 22.3 153.5 19 Z M 161.1 19 C 161.1 16.7 160.2 14.5 158.2 14.5 C 156.2 14.5 155.3 16.7 155.3 19 C 155.3 21.4 156.2 23.6 158.2 23.6 C 160.2 23.6 161.1 21.4 161.1 19 Z M 177.2 24.8 C 177.2 24.8 177.22 16.44 177.2 16.4 C 177.2 15.2 176.7 14.5 175.6 14.5 C 174.6 14.5 173.5 15.4 173.1 16.3 C 173.09 16.34 173.1 24.8 173.1 24.8 L 171.4 24.8 C 171.4 24.8 171.36 16.44 171.4 16.4 C 171.4 15.2 170.9 14.5 169.7 14.5 C 168.7 14.5 167.7 15.4 167.2 16.3 C 167.21 16.34 167.2 24.8 167.2 24.8 L 165.5 24.8 L 165.5 13.2 L 167.2 13.2 C 167.2 13.2 167.21 14.9 167.2 14.9 C 167.7 14 169 13 170.4 13 C 171.9 13 172.8 13.8 173 15 C 173.6 14 174.9 13 176.3 13 C 178 13 178.9 13.9 178.9 16 C 178.94 15.98 178.9 24.8 178.9 24.8 L 177.2 24.8 Z M 183.8 23.2 C 183.82 23.16 183.8 29.3 183.8 29.3 L 182.1 29.3 L 182.1 13.2 L 183.8 13.2 C 183.8 13.2 183.82 14.9 183.8 14.9 C 184.5 13.7 185.6 13 186.9 13 C 189.5 13 191 15.4 191 19 C 191 22.7 189.5 25.1 186.9 25.1 C 185.7 25.1 184.5 24.5 183.8 23.2 Z M 189.2 19 C 189.2 16.5 188.3 14.5 186.4 14.5 C 185.4 14.5 184.3 15.4 183.8 16.4 C 183.8 16.4 183.8 21.7 183.8 21.7 C 184.3 22.7 185.4 23.6 186.4 23.6 C 188.3 23.6 189.2 21.6 189.2 19 Z M 199.5 24.8 C 199.5 24.8 199.53 23.59 199.5 23.6 C 198.8 24.6 197.7 25.1 196.5 25.1 C 194.6 25.1 193 23.7 193 21.3 C 193 18.8 194.6 17.4 196.5 17.4 C 197.7 17.4 198.8 17.9 199.5 18.9 C 199.5 18.9 199.5 16.9 199.5 16.9 C 199.5 15.3 198.7 14.4 197.2 14.4 C 196.1 14.4 195.1 14.9 194.3 15.9 C 194.3 15.9 193.5 14.6 193.5 14.6 C 194.6 13.5 196 13 197.4 13 C 199.7 13 201.3 14.1 201.3 16.7 C 201.26 16.73 201.3 24.8 201.3 24.8 L 199.5 24.8 Z M 199.5 22.4 C 199.5 22.4 199.5 20.2 199.5 20.2 C 199 19.2 198 18.7 197 18.7 C 195.6 18.7 194.7 19.8 194.7 21.3 C 194.7 22.7 195.6 23.9 197 23.9 C 198 23.9 199 23.4 199.5 22.4 Z M 204.4 24.8 L 204.4 13.2 L 206.1 13.2 C 206.1 13.2 206.11 15.1 206.1 15.1 C 206.9 13.9 208 13 209.4 13 C 209.4 13 209.4 14.8 209.4 14.8 C 209.2 14.7 209 14.7 208.8 14.7 C 207.8 14.7 206.6 15.6 206.1 16.6 C 206.11 16.61 206.1 24.8 206.1 24.8 L 204.4 24.8 Z M 210.8 19 C 210.8 15.7 212.6 13 215.5 13 C 218.6 13 220.1 15.7 220.1 19.1 C 220.1 19.08 220.1 19.6 220.1 19.6 C 220.1 19.6 212.59 19.61 212.6 19.6 C 212.7 21.9 213.9 23.7 215.9 23.7 C 216.9 23.7 218 23.2 218.7 22.3 C 218.7 22.3 219.6 23.3 219.6 23.3 C 218.7 24.4 217.3 25.1 215.8 25.1 C 212.7 25.1 210.8 22.6 210.8 19 Z M 215.5 14.4 C 213.5 14.4 212.6 16.6 212.6 18.3 C 212.6 18.3 218.4 18.3 218.4 18.3 C 218.4 16.6 217.6 14.4 215.5 14.4 Z M 228.1 22.5 C 228.12 22.51 228.1 14.8 228.1 14.8 L 226.6 14.8 L 226.6 13.2 L 228.1 13.2 L 228.1 10.1 L 229.8 10.1 L 229.8 13.2 L 231.8 13.2 L 231.8 14.8 L 229.8 14.8 C 229.8 14.8 229.85 22.2 229.8 22.2 C 229.8 23.1 230.1 23.6 230.8 23.6 C 231.2 23.6 231.6 23.4 231.8 23.1 C 231.8 23.1 232.3 24.4 232.3 24.4 C 231.9 24.8 231.3 25.1 230.4 25.1 C 228.9 25.1 228.1 24.2 228.1 22.5 Z M 240.4 24.8 C 240.4 24.8 240.38 16.56 240.4 16.6 C 240.4 15 239.7 14.5 238.5 14.5 C 237.4 14.5 236.3 15.4 235.8 16.3 C 235.8 16.34 235.8 24.8 235.8 24.8 L 234.1 24.8 L 234.1 8.8 L 235.8 8.8 C 235.8 8.8 235.8 14.9 235.8 14.9 C 236.5 13.9 237.8 13 239.2 13 C 241.1 13 242.1 13.9 242.1 16.1 C 242.09 16.06 242.1 24.8 242.1 24.8 L 240.4 24.8 Z M 244.9 10.4 C 244.9 9.7 245.5 9.2 246.1 9.2 C 246.7 9.2 247.3 9.7 247.3 10.4 C 247.3 11 246.7 11.6 246.1 11.6 C 245.5 11.6 244.9 11 244.9 10.4 Z M 245.3 24.8 L 245.3 13.2 L 247 13.2 L 247 24.8 L 245.3 24.8 Z M 249.2 23.5 C 249.2 23.5 250.1 22.3 250.1 22.3 C 250.7 23.1 251.8 23.7 253.1 23.7 C 254.4 23.7 255.3 23 255.3 21.9 C 255.3 19.2 249.5 20.1 249.5 16.1 C 249.5 14.4 250.9 13 253.2 13 C 254.8 13 255.9 13.6 256.7 14.4 C 256.7 14.4 255.9 15.6 255.9 15.6 C 255.4 14.9 254.4 14.4 253.2 14.4 C 252 14.4 251.2 15.1 251.2 16 C 251.2 18.5 257 17.6 257 21.8 C 257 23.7 255.5 25.1 253.1 25.1 C 251.5 25.1 250.1 24.6 249.2 23.5 Z M 273.1 24.8 L 270.6 15.5 L 268.1 24.8 L 266.4 24.8 L 263.3 13.2 L 265.1 13.2 L 267.4 22.5 L 269.8 13.2 L 271.4 13.2 L 273.9 22.5 L 276.2 13.2 L 278 13.2 L 274.9 24.8 L 273.1 24.8 Z M 279.5 10.4 C 279.5 9.7 280.1 9.2 280.7 9.2 C 281.4 9.2 281.9 9.7 281.9 10.4 C 281.9 11 281.4 11.6 280.7 11.6 C 280.1 11.6 279.5 11 279.5 10.4 Z M 279.9 24.8 L 279.9 13.2 L 281.6 13.2 L 281.6 24.8 L 279.9 24.8 Z M 285.1 22.5 C 285.09 22.51 285.1 14.8 285.1 14.8 L 283.6 14.8 L 283.6 13.2 L 285.1 13.2 L 285.1 10.1 L 286.8 10.1 L 286.8 13.2 L 288.8 13.2 L 288.8 14.8 L 286.8 14.8 C 286.8 14.8 286.82 22.2 286.8 22.2 C 286.8 23.1 287.1 23.6 287.8 23.6 C 288.2 23.6 288.5 23.4 288.8 23.1 C 288.8 23.1 289.3 24.4 289.3 24.4 C 288.9 24.8 288.3 25.1 287.4 25.1 C 285.8 25.1 285.1 24.2 285.1 22.5 Z M 297.4 24.8 C 297.4 24.8 297.36 16.56 297.4 16.6 C 297.4 15 296.6 14.5 295.5 14.5 C 294.4 14.5 293.3 15.4 292.8 16.3 C 292.77 16.34 292.8 24.8 292.8 24.8 L 291.1 24.8 L 291.1 8.8 L 292.8 8.8 C 292.8 8.8 292.77 14.9 292.8 14.9 C 293.4 13.9 294.8 13 296.2 13 C 298.1 13 299.1 13.9 299.1 16.1 C 299.06 16.06 299.1 24.8 299.1 24.8 L 297.4 24.8 Z M 307.5 24.8 L 307.5 8.8 L 315.7 8.8 L 315.7 10.5 L 309.4 10.5 L 309.4 15.8 L 315.5 15.8 L 315.5 17.5 L 309.4 17.5 L 309.4 23.1 L 315.7 23.1 L 315.7 24.8 L 307.5 24.8 Z M 318.5 24.8 L 318.5 13.2 L 320.2 13.2 C 320.2 13.2 320.16 15.1 320.2 15.1 C 320.9 13.9 322 13 323.4 13 C 323.4 13 323.4 14.8 323.4 14.8 C 323.3 14.7 323.1 14.7 322.9 14.7 C 321.8 14.7 320.6 15.6 320.2 16.6 C 320.16 16.61 320.2 24.8 320.2 24.8 L 318.5 24.8 Z M 324.5 23.5 C 324.5 23.5 325.4 22.3 325.4 22.3 C 326 23.1 327.1 23.7 328.4 23.7 C 329.7 23.7 330.6 23 330.6 21.9 C 330.6 19.2 324.8 20.1 324.8 16.1 C 324.8 14.4 326.2 13 328.5 13 C 330.1 13 331.2 13.6 332.1 14.4 C 332.1 14.4 331.2 15.6 331.2 15.6 C 330.7 14.9 329.7 14.4 328.6 14.4 C 327.3 14.4 326.5 15.1 326.5 16 C 326.5 18.5 332.3 17.6 332.3 21.8 C 332.3 23.7 330.8 25.1 328.4 25.1 C 326.8 25.1 325.5 24.6 324.5 23.5 Z M 340.7 24.8 C 340.7 24.8 340.68 23.59 340.7 23.6 C 339.9 24.6 338.8 25.1 337.6 25.1 C 335.8 25.1 334.1 23.7 334.1 21.3 C 334.1 18.8 335.7 17.4 337.6 17.4 C 338.8 17.4 340 17.9 340.7 18.9 C 340.7 18.9 340.7 16.9 340.7 16.9 C 340.7 15.3 339.8 14.4 338.3 14.4 C 337.2 14.4 336.3 14.9 335.4 15.9 C 335.4 15.9 334.6 14.6 334.6 14.6 C 335.7 13.5 337.1 13 338.6 13 C 340.9 13 342.4 14.1 342.4 16.7 C 342.4 16.73 342.4 24.8 342.4 24.8 L 340.7 24.8 Z M 340.7 22.4 C 340.7 22.4 340.7 20.2 340.7 20.2 C 340.1 19.2 339.2 18.7 338.2 18.7 C 336.7 18.7 335.9 19.8 335.9 21.3 C 335.9 22.7 336.7 23.9 338.2 23.9 C 339.2 23.9 340.1 23.4 340.7 22.4 Z M 345.9 22.5 C 345.88 22.51 345.9 14.8 345.9 14.8 L 344.3 14.8 L 344.3 13.2 L 345.9 13.2 L 345.9 10.1 L 347.6 10.1 L 347.6 13.2 L 349.6 13.2 L 349.6 14.8 L 347.6 14.8 C 347.6 14.8 347.61 22.2 347.6 22.2 C 347.6 23.1 347.9 23.6 348.5 23.6 C 349 23.6 349.3 23.4 349.6 23.1 C 349.6 23.1 350.1 24.4 350.1 24.4 C 349.7 24.8 349.1 25.1 348.2 25.1 C 346.6 25.1 345.9 24.2 345.9 22.5 Z M 351.3 24.8 L 351.3 23.5 L 356.3 14.8 L 351.3 14.8 L 351.3 13.2 L 358.4 13.2 L 358.4 14.6 L 353.4 23.3 L 358.5 23.3 L 358.5 24.8 L 351.3 24.8 Z M 361.8 13.9 C 361.8 13.9 360.9 13.2 360.9 13.2 C 361.7 12.7 362.4 11.8 362.5 11 C 362.4 11 362.3 11 362.2 11 C 361.5 11 361 10.5 361 9.8 C 361 9.2 361.6 8.6 362.3 8.6 C 363 8.6 363.7 9.2 363.7 10.4 C 363.7 11.8 362.9 13.2 361.8 13.9 Z M 364.9 23.5 C 364.9 23.5 365.8 22.3 365.8 22.3 C 366.4 23.1 367.5 23.7 368.8 23.7 C 370.1 23.7 371 23 371 21.9 C 371 19.2 365.2 20.1 365.2 16.1 C 365.2 14.4 366.6 13 368.9 13 C 370.5 13 371.6 13.6 372.5 14.4 C 372.5 14.4 371.6 15.6 371.6 15.6 C 371.1 14.9 370.1 14.4 368.9 14.4 C 367.7 14.4 366.9 15.1 366.9 16 C 366.9 18.5 372.7 17.6 372.7 21.8 C 372.7 23.7 371.2 25.1 368.8 25.1 C 367.2 25.1 365.9 24.6 364.9 23.5 Z M 380.6 22.5 C 380.61 22.51 380.6 14.8 380.6 14.8 L 379.1 14.8 L 379.1 13.2 L 380.6 13.2 L 380.6 10.1 L 382.3 10.1 L 382.3 13.2 L 384.3 13.2 L 384.3 14.8 L 382.3 14.8 C 382.3 14.8 382.34 22.2 382.3 22.2 C 382.3 23.1 382.6 23.6 383.3 23.6 C 383.7 23.6 384.1 23.4 384.3 23.1 C 384.3 23.1 384.8 24.4 384.8 24.4 C 384.4 24.8 383.8 25.1 382.9 25.1 C 381.4 25.1 380.6 24.2 380.6 22.5 Z M 392.5 24.8 C 392.5 24.8 392.54 23.59 392.5 23.6 C 391.8 24.6 390.7 25.1 389.5 25.1 C 387.6 25.1 386 23.7 386 21.3 C 386 18.8 387.6 17.4 389.5 17.4 C 390.7 17.4 391.8 17.9 392.5 18.9 C 392.5 18.9 392.5 16.9 392.5 16.9 C 392.5 15.3 391.7 14.4 390.2 14.4 C 389.1 14.4 388.1 14.9 387.3 15.9 C 387.3 15.9 386.5 14.6 386.5 14.6 C 387.6 13.5 389 13 390.4 13 C 392.7 13 394.3 14.1 394.3 16.7 C 394.27 16.73 394.3 24.8 394.3 24.8 L 392.5 24.8 Z M 392.5 22.4 C 392.5 22.4 392.5 20.2 392.5 20.2 C 392 19.2 391 18.7 390 18.7 C 388.6 18.7 387.7 19.8 387.7 21.3 C 387.7 22.7 388.6 23.9 390 23.9 C 391 23.9 392 23.4 392.5 22.4 Z M 403.9 24.8 L 400.7 19.6 L 399.1 21.7 L 399.1 24.8 L 397.4 24.8 L 397.4 8.8 L 399.1 8.8 L 399.1 19.5 L 403.9 13.2 L 406 13.2 L 401.9 18.5 L 406 24.8 L 403.9 24.8 Z M 407.2 19 C 407.2 15.7 409 13 412 13 C 415 13 416.5 15.7 416.5 19.1 C 416.54 19.08 416.5 19.6 416.5 19.6 C 416.5 19.6 409.03 19.61 409 19.6 C 409.1 21.9 410.3 23.7 412.4 23.7 C 413.4 23.7 414.4 23.2 415.1 22.3 C 415.1 22.3 416 23.3 416 23.3 C 415.1 24.4 413.8 25.1 412.2 25.1 C 409.1 25.1 407.2 22.6 407.2 19 Z M 411.9 14.4 C 409.9 14.4 409.1 16.6 409 18.3 C 409 18.3 414.8 18.3 414.8 18.3 C 414.8 16.6 414 14.4 411.9 14.4 Z M 423.6 19 C 423.6 15.8 425.3 13 428.3 13 C 431.5 13 433.1 15.8 433.1 19 C 433.1 22.3 431.5 25.1 428.3 25.1 C 425.3 25.1 423.6 22.3 423.6 19 Z M 431.3 19 C 431.3 16.7 430.4 14.5 428.3 14.5 C 426.4 14.5 425.4 16.7 425.4 19 C 425.4 21.4 426.4 23.6 428.3 23.6 C 430.4 23.6 431.3 21.4 431.3 19 Z M 441.9 24.8 C 441.9 24.8 441.93 16.58 441.9 16.6 C 441.9 15 441.2 14.5 440.1 14.5 C 439 14.5 437.9 15.4 437.4 16.3 C 437.37 16.34 437.4 24.8 437.4 24.8 L 435.7 24.8 L 435.7 13.2 L 437.4 13.2 C 437.4 13.2 437.37 14.9 437.4 14.9 C 438 13.9 439.3 13 440.7 13 C 442.7 13 443.7 14 443.7 16.1 C 443.66 16.1 443.7 24.8 443.7 24.8 L 441.9 24.8 Z M 452.3 22.5 C 452.32 22.51 452.3 14.8 452.3 14.8 L 450.8 14.8 L 450.8 13.2 L 452.3 13.2 L 452.3 10.1 L 454 10.1 L 454 13.2 L 456 13.2 L 456 14.8 L 454 14.8 C 454 14.8 454.05 22.2 454 22.2 C 454 23.1 454.3 23.6 455 23.6 C 455.4 23.6 455.8 23.4 456 23.1 C 456 23.1 456.5 24.4 456.5 24.4 C 456.1 24.8 455.5 25.1 454.6 25.1 C 453.1 25.1 452.3 24.2 452.3 22.5 Z M 464.6 24.8 C 464.6 24.8 464.58 16.56 464.6 16.6 C 464.6 15 463.9 14.5 462.7 14.5 C 461.6 14.5 460.5 15.4 460 16.3 C 460 16.34 460 24.8 460 24.8 L 458.3 24.8 L 458.3 8.8 L 460 8.8 C 460 8.8 460 14.9 460 14.9 C 460.7 13.9 462 13 463.4 13 C 465.4 13 466.3 13.9 466.3 16.1 C 466.29 16.06 466.3 24.8 466.3 24.8 L 464.6 24.8 Z M 468.9 19 C 468.9 15.7 470.7 13 473.6 13 C 476.6 13 478.2 15.7 478.2 19.1 C 478.17 19.08 478.2 19.6 478.2 19.6 C 478.2 19.6 470.66 19.61 470.7 19.6 C 470.7 21.9 471.9 23.7 474 23.7 C 475 23.7 476 23.2 476.8 22.3 C 476.8 22.3 477.7 23.3 477.7 23.3 C 476.7 24.4 475.4 25.1 473.8 25.1 C 470.8 25.1 468.9 22.6 468.9 19 Z M 473.6 14.4 C 471.5 14.4 470.7 16.6 470.7 18.3 C 470.7 18.3 476.5 18.3 476.5 18.3 C 476.4 16.6 475.7 14.4 473.6 14.4 Z M 492.1 24.8 C 492.1 24.8 492.14 16.56 492.1 16.6 C 492.1 15 491.4 14.5 490.3 14.5 C 489.1 14.5 488.1 15.4 487.6 16.3 C 487.55 16.34 487.6 24.8 487.6 24.8 L 485.8 24.8 L 485.8 8.8 L 487.6 8.8 C 487.6 8.8 487.55 14.9 487.6 14.9 C 488.2 13.9 489.5 13 490.9 13 C 492.9 13 493.8 13.9 493.8 16.1 C 493.84 16.06 493.8 24.8 493.8 24.8 L 492.1 24.8 Z M 496.7 10.4 C 496.7 9.7 497.2 9.2 497.8 9.2 C 498.5 9.2 499 9.7 499 10.4 C 499 11 498.5 11.6 497.8 11.6 C 497.2 11.6 496.7 11 496.7 10.4 Z M 497 24.8 L 497 13.2 L 498.7 13.2 L 498.7 24.8 L 497 24.8 Z M 500.9 23.5 C 500.9 23.5 501.8 22.3 501.8 22.3 C 502.5 23.1 503.6 23.7 504.8 23.7 C 506.2 23.7 507.1 23 507.1 21.9 C 507.1 19.2 501.3 20.1 501.3 16.1 C 501.3 14.4 502.7 13 505 13 C 506.5 13 507.7 13.6 508.5 14.4 C 508.5 14.4 507.7 15.6 507.7 15.6 C 507.1 14.9 506.1 14.4 505 14.4 C 503.7 14.4 502.9 15.1 502.9 16 C 502.9 18.5 508.7 17.6 508.7 21.8 C 508.7 23.7 507.2 25.1 504.9 25.1 C 503.2 25.1 501.9 24.6 500.9 23.5 Z M 511.5 22.5 C 511.5 22.51 511.5 14.8 511.5 14.8 L 510 14.8 L 510 13.2 L 511.5 13.2 L 511.5 10.1 L 513.2 10.1 L 513.2 13.2 L 515.2 13.2 L 515.2 14.8 L 513.2 14.8 C 513.2 14.8 513.23 22.2 513.2 22.2 C 513.2 23.1 513.5 23.6 514.2 23.6 C 514.6 23.6 515 23.4 515.2 23.1 C 515.2 23.1 515.7 24.4 515.7 24.4 C 515.3 24.8 514.7 25.1 513.8 25.1 C 512.2 25.1 511.5 24.2 511.5 22.5 Z M 516.9 19 C 516.9 15.8 518.5 13 521.6 13 C 524.7 13 526.3 15.8 526.3 19 C 526.3 22.3 524.7 25.1 521.6 25.1 C 518.5 25.1 516.9 22.3 516.9 19 Z M 524.5 19 C 524.5 16.7 523.6 14.5 521.6 14.5 C 519.6 14.5 518.7 16.7 518.7 19 C 518.7 21.4 519.6 23.6 521.6 23.6 C 523.6 23.6 524.5 21.4 524.5 19 Z M 528.9 24.8 L 528.9 13.2 L 530.6 13.2 C 530.6 13.2 530.63 15.1 530.6 15.1 C 531.4 13.9 532.5 13 533.9 13 C 533.9 13 533.9 14.8 533.9 14.8 C 533.7 14.7 533.5 14.7 533.3 14.7 C 532.3 14.7 531.1 15.6 530.6 16.6 C 530.63 16.61 530.6 24.8 530.6 24.8 L 528.9 24.8 Z M 535.6 10.4 C 535.6 9.7 536.1 9.2 536.7 9.2 C 537.4 9.2 537.9 9.7 537.9 10.4 C 537.9 11 537.4 11.6 536.7 11.6 C 536.1 11.6 535.6 11 535.6 10.4 Z M 535.9 24.8 L 535.9 13.2 L 537.6 13.2 L 537.6 24.8 L 535.9 24.8 Z M 540.2 19 C 540.2 15.6 542 13 545 13 C 546.6 13 547.6 13.6 548.3 14.5 C 548.3 14.5 547.4 15.7 547.4 15.7 C 546.8 14.8 546 14.5 545.1 14.5 C 543.1 14.5 542 16.6 542 19 C 542 21.5 543.1 23.6 545.1 23.6 C 546 23.6 546.8 23.2 547.4 22.4 C 547.4 22.4 548.3 23.6 548.3 23.6 C 547.6 24.5 546.6 25.1 545 25.1 C 542 25.1 540.2 22.5 540.2 19 Z M 556.5 24.8 C 556.5 24.8 556.48 23.59 556.5 23.6 C 555.7 24.6 554.6 25.1 553.4 25.1 C 551.6 25.1 549.9 23.7 549.9 21.3 C 549.9 18.8 551.5 17.4 553.4 17.4 C 554.6 17.4 555.8 17.9 556.5 18.9 C 556.5 18.9 556.5 16.9 556.5 16.9 C 556.5 15.3 555.6 14.4 554.1 14.4 C 553 14.4 552.1 14.9 551.2 15.9 C 551.2 15.9 550.4 14.6 550.4 14.6 C 551.5 13.5 552.9 13 554.4 13 C 556.7 13 558.2 14.1 558.2 16.7 C 558.21 16.73 558.2 24.8 558.2 24.8 L 556.5 24.8 Z M 556.5 22.4 C 556.5 22.4 556.5 20.2 556.5 20.2 C 555.9 19.2 555 18.7 554 18.7 C 552.5 18.7 551.7 19.8 551.7 21.3 C 551.7 22.7 552.5 23.9 554 23.9 C 555 23.9 555.9 23.4 556.5 22.4 Z M 561.3 24.8 L 561.3 8.8 L 563.1 8.8 L 563.1 24.8 L 561.3 24.8 Z M 578 24.8 C 578 24.8 578 23.18 578 23.2 C 577.3 24.4 576.2 25.1 575 25.1 C 572.4 25.1 570.8 22.7 570.8 19.1 C 570.8 15.5 572.3 13 575 13 C 576.1 13 577.3 13.6 578 14.9 C 578 14.93 578 8.8 578 8.8 L 579.7 8.8 L 579.7 24.8 L 578 24.8 Z M 578 21.7 C 578 21.7 578 16.4 578 16.4 C 577.6 15.4 576.5 14.5 575.4 14.5 C 573.5 14.5 572.6 16.5 572.6 19.1 C 572.6 21.6 573.5 23.6 575.4 23.6 C 576.5 23.6 577.6 22.7 578 21.7 Z M 582.6 10.4 C 582.6 9.7 583.1 9.2 583.7 9.2 C 584.4 9.2 584.9 9.7 584.9 10.4 C 584.9 11 584.4 11.6 583.7 11.6 C 583.1 11.6 582.6 11 582.6 10.4 Z M 582.9 24.8 L 582.9 13.2 L 584.6 13.2 L 584.6 24.8 L 582.9 24.8 Z M 586.8 23.5 C 586.8 23.5 587.7 22.3 587.7 22.3 C 588.4 23.1 589.5 23.7 590.7 23.7 C 592.1 23.7 593 23 593 21.9 C 593 19.2 587.2 20.1 587.2 16.1 C 587.2 14.4 588.6 13 590.9 13 C 592.4 13 593.6 13.6 594.4 14.4 C 594.4 14.4 593.6 15.6 593.6 15.6 C 593 14.9 592 14.4 590.9 14.4 C 589.6 14.4 588.8 15.1 588.8 16 C 588.8 18.5 594.6 17.6 594.6 21.8 C 594.6 23.7 593.1 25.1 590.7 25.1 C 589.1 25.1 587.8 24.6 586.8 23.5 Z M 603.3 24.8 C 603.3 24.8 603.35 16.56 603.3 16.6 C 603.3 15 602.6 14.5 601.5 14.5 C 600.3 14.5 599.3 15.4 598.8 16.3 C 598.76 16.34 598.8 24.8 598.8 24.8 L 597.1 24.8 L 597.1 8.8 L 598.8 8.8 C 598.8 8.8 598.76 14.9 598.8 14.9 C 599.4 13.9 600.8 13 602.1 13 C 604.1 13 605.1 13.9 605.1 16.1 C 605.05 16.06 605.1 24.8 605.1 24.8 L 603.3 24.8 Z " stroke="none" fill="#7c7979"/>  </g></svg>