<?xml version="1.0" standalone="no"?><!DOCTYPE svg PUBLIC "-//W3C//DTD SVG 1.1//EN" "http://www.w3.org/Graphics/SVG/1.1/DTD/svg11.dtd"><svg xmlns="http://www.w3.org/2000/svg" version="1.1" width="651px" height="85.6px" viewBox="0 0 651 85.6">  <desc>Pulp Patty and Silicone Slice</desc>  <defs/>  <g id="Polygon172974">    <path d="M 3.1 47.4 L 3.1 7.4 C 3.1 7.4 13.92 7.38 13.9 7.4 C 21.7 7.4 25.2 13.3 25.2 20 C 25.2 26.8 21.7 32.7 13.9 32.7 C 13.92 32.7 10.7 32.7 10.7 32.7 L 10.7 47.4 L 3.1 47.4 Z M 17.5 20 C 17.5 16.4 16 14 13.1 14 C 13.14 14.04 10.7 14 10.7 14 L 10.7 26 C 10.7 26 13.14 26.04 13.1 26 C 16 26 17.5 23.6 17.5 20 Z M 42.1 47.4 C 42.1 47.4 42.12 43.74 42.1 43.7 C 41 46.1 38.2 48.1 35.3 48.1 C 31 48.1 29.2 45.7 29.2 41.6 C 29.22 41.58 29.2 18.4 29.2 18.4 L 36 18.4 C 36 18.4 36 39.18 36 39.2 C 36 41.2 36.7 42.1 38.2 42.1 C 40 42.1 41.5 40.3 42.1 38.5 C 42.12 38.46 42.1 18.4 42.1 18.4 L 49 18.4 L 49 47.4 L 42.1 47.4 Z M 54.4 47.4 L 54.4 7.4 L 61.2 7.4 L 61.2 47.4 L 54.4 47.4 Z M 73.4 43.8 C 73.44 43.8 73.4 58.4 73.4 58.4 L 66.7 58.4 L 66.7 18.4 L 73.4 18.4 C 73.4 18.4 73.44 22.02 73.4 22 C 74.7 19.1 77 17.7 79.1 17.7 C 84.8 17.7 87.7 23.6 87.7 32.9 C 87.7 42 84.8 48.1 79.1 48.1 C 77 48.1 74.6 46.8 73.4 43.8 Z M 80.7 32.9 C 80.7 27.8 79.9 23.7 76.9 23.7 C 75.4 23.7 74 25.1 73.4 27.1 C 73.4 27.1 73.4 38.6 73.4 38.6 C 74 40.6 75.4 42.1 76.9 42.1 C 79.9 42.1 80.7 38 80.7 32.9 Z M 102.2 47.4 L 102.2 7.4 C 102.2 7.4 112.98 7.38 113 7.4 C 120.8 7.4 124.3 13.3 124.3 20 C 124.3 26.8 120.8 32.7 113 32.7 C 112.98 32.7 109.7 32.7 109.7 32.7 L 109.7 47.4 L 102.2 47.4 Z M 116.6 20 C 116.6 16.4 115 14 112.2 14 C 112.2 14.04 109.7 14 109.7 14 L 109.7 26 C 109.7 26 112.2 26.04 112.2 26 C 115 26 116.6 23.6 116.6 20 Z M 140 47.4 C 140 47.4 139.98 44.64 140 44.6 C 138.7 46.9 136 48.1 133.9 48.1 C 129.4 48.1 126.1 44.4 126.1 38.5 C 126.1 32.6 129.4 29 133.9 29 C 136 29 138.8 30.1 140 32.3 C 140 32.3 140 28.7 140 28.7 C 140 25.4 138.7 23.5 135.6 23.5 C 133.7 23.5 131.6 24.4 129.7 26.3 C 129.7 26.3 127.2 21.5 127.2 21.5 C 129.8 18.7 134 17.7 137 17.7 C 142.9 17.7 146.8 20.7 146.8 27.2 C 146.76 27.18 146.8 47.4 146.8 47.4 L 140 47.4 Z M 140 40.6 C 140 40.6 140 36.7 140 36.7 C 139.3 34.9 137.8 33.7 136.3 33.7 C 134 33.7 132.8 35.8 132.8 38.6 C 132.8 41.3 134 43.6 136.3 43.6 C 137.8 43.6 139.3 42.4 140 40.6 Z M 153.2 40.7 C 153.18 40.74 153.2 24.3 153.2 24.3 L 150.5 24.3 L 150.5 18.4 L 153.2 18.4 L 153.2 10.5 L 160 10.5 L 160 18.4 L 163.6 18.4 L 163.6 24.3 L 160 24.3 C 160 24.3 159.96 39.42 160 39.4 C 160 41.2 160.4 42.1 161.6 42.1 C 162.2 42.1 162.8 41.8 163.2 41.3 C 163.2 41.3 164.6 46.6 164.6 46.6 C 163.6 47.5 161.9 48.1 159.8 48.1 C 155.1 48.1 153.2 45.7 153.2 40.7 Z M 168.7 40.7 C 168.66 40.74 168.7 24.3 168.7 24.3 L 166 24.3 L 166 18.4 L 168.7 18.4 L 168.7 10.5 L 175.4 10.5 L 175.4 18.4 L 179.1 18.4 L 179.1 24.3 L 175.4 24.3 C 175.4 24.3 175.44 39.42 175.4 39.4 C 175.4 41.2 175.9 42.1 177.1 42.1 C 177.7 42.1 178.3 41.8 178.7 41.3 C 178.7 41.3 180.1 46.6 180.1 46.6 C 179 47.5 177.4 48.1 175.3 48.1 C 170.6 48.1 168.7 45.7 168.7 40.7 Z M 183.8 52.9 C 184.3 53 184.9 53.2 185.2 53.2 C 186.5 53.2 187.2 52.6 187.6 51.1 C 187.62 51.12 188.5 48.1 188.5 48.1 L 180.6 18.4 L 187.8 18.4 L 191.9 38.8 L 196.1 18.4 L 203.2 18.4 C 203.2 18.4 194.1 52.5 194.1 52.5 C 192.7 57.8 190.3 59.2 186.1 59.2 C 185.2 59.2 183.5 59 182.9 58.7 C 182.9 58.7 183.8 52.9 183.8 52.9 Z M 228.4 47.4 C 228.4 47.4 228.42 44.64 228.4 44.6 C 227.2 46.9 224.5 48.1 222.4 48.1 C 217.8 48.1 214.5 44.4 214.5 38.5 C 214.5 32.6 217.8 29 222.4 29 C 224.5 29 227.2 30.1 228.4 32.3 C 228.4 32.3 228.4 28.7 228.4 28.7 C 228.4 25.4 227.1 23.5 224 23.5 C 222.1 23.5 220.1 24.4 218.2 26.3 C 218.2 26.3 215.6 21.5 215.6 21.5 C 218.3 18.7 222.4 17.7 225.4 17.7 C 231.4 17.7 235.2 20.7 235.2 27.2 C 235.2 27.18 235.2 47.4 235.2 47.4 L 228.4 47.4 Z M 228.4 40.6 C 228.4 40.6 228.4 36.7 228.4 36.7 C 227.7 34.9 226.3 33.7 224.8 33.7 C 222.4 33.7 221.3 35.8 221.3 38.6 C 221.3 41.3 222.4 43.6 224.8 43.6 C 226.3 43.6 227.7 42.4 228.4 40.6 Z M 253.6 47.4 C 253.6 47.4 253.62 26.76 253.6 26.8 C 253.6 24.7 252.9 23.7 251.4 23.7 C 249.7 23.7 248.2 25.6 247.5 27.5 C 247.5 27.48 247.5 47.4 247.5 47.4 L 240.7 47.4 L 240.7 18.4 L 247.5 18.4 C 247.5 18.4 247.5 22.2 247.5 22.2 C 248.6 19.9 251.6 17.7 254.3 17.7 C 258.7 17.7 260.5 20.3 260.5 24.3 C 260.46 24.3 260.5 47.4 260.5 47.4 L 253.6 47.4 Z M 279 47.4 C 279 47.4 279 43.8 279 43.8 C 277.7 46.7 275.4 48.1 273.4 48.1 C 267.7 48.1 264.8 42.2 264.8 32.9 C 264.8 23.8 267.7 17.7 273.4 17.7 C 275.4 17.7 277.8 19 279 22 C 279 22.02 279 7.4 279 7.4 L 285.8 7.4 L 285.8 47.4 L 279 47.4 Z M 279 38.6 C 279 38.6 279 27.2 279 27.2 C 278.4 25.3 277 23.7 275.6 23.7 C 272.6 23.7 271.7 27.8 271.7 32.9 C 271.7 38 272.6 42.1 275.6 42.1 C 277 42.1 278.4 40.6 279 38.6 Z M 299 44.2 C 299 44.2 302.3 38.2 302.3 38.2 C 304 40.3 306.5 41.4 308.9 41.4 C 311.3 41.4 312.9 39.6 312.9 37 C 312.9 29.9 300.2 29.9 300.2 17.9 C 300.2 11.9 304.3 6.7 311.3 6.7 C 314.7 6.7 317.8 7.9 320 10 C 320 10 317.1 15.8 317.1 15.8 C 315.5 14.2 313.7 13.4 311.6 13.4 C 309.4 13.4 307.9 15.1 307.9 17.5 C 307.9 23.7 320.6 24.5 320.6 36.5 C 320.6 43.3 316.2 48.1 309.4 48.1 C 305 48.1 301.6 46.7 299 44.2 Z M 324.1 10.9 C 324.1 8.6 326 6.8 328.2 6.8 C 330.5 6.8 332.3 8.6 332.3 10.9 C 332.3 13.2 330.5 15 328.2 15 C 326 15 324.1 13.2 324.1 10.9 Z M 324.8 47.4 L 324.8 18.4 L 331.6 18.4 L 331.6 47.4 L 324.8 47.4 Z M 337.1 47.4 L 337.1 7.4 L 343.9 7.4 L 343.9 47.4 L 337.1 47.4 Z M 348.5 10.9 C 348.5 8.6 350.5 6.8 352.7 6.8 C 355 6.8 356.8 8.6 356.8 10.9 C 356.8 13.2 355 15 352.7 15 C 350.5 15 348.5 13.2 348.5 10.9 Z M 349.3 47.4 L 349.3 18.4 L 356.1 18.4 L 356.1 47.4 L 349.3 47.4 Z M 360.4 32.9 C 360.4 24.1 364.5 17.7 371.5 17.7 C 374.7 17.7 377.1 18.9 378.5 20.3 C 378.5 20.3 376.3 25.6 376.3 25.6 C 375.1 24.3 374 23.7 372.7 23.7 C 369.1 23.7 367.4 27.8 367.4 32.9 C 367.4 37.9 369.1 42.1 372.7 42.1 C 374 42.1 375.1 41.5 376.3 40.3 C 376.3 40.3 378.5 45.5 378.5 45.5 C 377.1 47 374.7 48.1 371.5 48.1 C 364.5 48.1 360.4 41.7 360.4 32.9 Z M 381.1 32.9 C 381.1 24.8 384.4 17.7 391.9 17.7 C 399.5 17.7 402.8 24.8 402.8 32.9 C 402.8 40.9 399.5 48.1 391.9 48.1 C 384.4 48.1 381.1 40.9 381.1 32.9 Z M 395.8 32.9 C 395.8 28 395 23.7 391.9 23.7 C 388.9 23.7 388.1 28 388.1 32.9 C 388.1 37.9 388.9 42.1 391.9 42.1 C 395 42.1 395.8 37.9 395.8 32.9 Z M 420.1 47.4 C 420.1 47.4 420.11 26.76 420.1 26.8 C 420.1 24.7 419.4 23.7 417.9 23.7 C 416.2 23.7 414.7 25.6 414 27.5 C 413.99 27.48 414 47.4 414 47.4 L 407.2 47.4 L 407.2 18.4 L 414 18.4 C 414 18.4 413.99 22.2 414 22.2 C 415.1 19.9 418.1 17.7 420.8 17.7 C 425.2 17.7 427 20.3 427 24.3 C 426.95 24.3 427 47.4 427 47.4 L 420.1 47.4 Z M 431.3 32.9 C 431.3 24.5 434.9 17.7 442.1 17.7 C 449.5 17.7 452.5 24.2 452.5 32.8 C 452.51 32.76 452.5 35.1 452.5 35.1 C 452.5 35.1 437.81 35.1 437.8 35.1 C 437.9 39.4 439.7 42.6 443.5 42.6 C 445.1 42.6 447 41.5 448.3 39.7 C 448.3 39.7 451.6 43.5 451.6 43.5 C 449.3 46.4 446.1 48.1 442.8 48.1 C 435.2 48.1 431.3 41.8 431.3 32.9 Z M 442 23.2 C 438.7 23.2 437.8 27.3 437.8 30.4 C 437.8 30.4 446 30.4 446 30.4 C 446 27.1 445.3 23.2 442 23.2 Z M 464.4 44.2 C 464.4 44.2 467.7 38.2 467.7 38.2 C 469.3 40.3 471.9 41.4 474.2 41.4 C 476.6 41.4 478.3 39.6 478.3 37 C 478.3 29.9 465.5 29.9 465.5 17.9 C 465.5 11.9 469.6 6.7 476.7 6.7 C 480.1 6.7 483.2 7.9 485.4 10 C 485.4 10 482.5 15.8 482.5 15.8 C 480.9 14.2 479 13.4 476.9 13.4 C 474.8 13.4 473.2 15.1 473.2 17.5 C 473.2 23.7 485.9 24.5 485.9 36.5 C 485.9 43.3 481.6 48.1 474.7 48.1 C 470.3 48.1 467 46.7 464.4 44.2 Z M 490.2 47.4 L 490.2 7.4 L 497 7.4 L 497 47.4 L 490.2 47.4 Z M 501.7 10.9 C 501.7 8.6 503.6 6.8 505.8 6.8 C 508.1 6.8 509.9 8.6 509.9 10.9 C 509.9 13.2 508.1 15 505.8 15 C 503.6 15 501.7 13.2 501.7 10.9 Z M 502.4 47.4 L 502.4 18.4 L 509.2 18.4 L 509.2 47.4 L 502.4 47.4 Z M 513.5 32.9 C 513.5 24.1 517.6 17.7 524.6 17.7 C 527.8 17.7 530.2 18.9 531.6 20.3 C 531.6 20.3 529.4 25.6 529.4 25.6 C 528.2 24.3 527.2 23.7 525.8 23.7 C 522.2 23.7 520.5 27.8 520.5 32.9 C 520.5 37.9 522.2 42.1 525.8 42.1 C 527.2 42.1 528.2 41.5 529.4 40.3 C 529.4 40.3 531.6 45.5 531.6 45.5 C 530.2 47 527.8 48.1 524.6 48.1 C 517.6 48.1 513.5 41.7 513.5 32.9 Z M 534.2 32.9 C 534.2 24.5 537.8 17.7 545 17.7 C 552.4 17.7 555.4 24.2 555.4 32.8 C 555.41 32.76 555.4 35.1 555.4 35.1 C 555.4 35.1 540.71 35.1 540.7 35.1 C 540.8 39.4 542.6 42.6 546.4 42.6 C 548 42.6 549.9 41.5 551.2 39.7 C 551.2 39.7 554.5 43.5 554.5 43.5 C 552.2 46.4 549 48.1 545.7 48.1 C 538.1 48.1 534.2 41.8 534.2 32.9 Z M 544.9 23.2 C 541.6 23.2 540.7 27.3 540.7 30.4 C 540.7 30.4 548.9 30.4 548.9 30.4 C 548.9 27.1 548.2 23.2 544.9 23.2 Z " stroke="none" fill="#b13d24"/>  </g></svg>