<?xml version="1.0" standalone="no"?><!DOCTYPE svg PUBLIC "-//W3C//DTD SVG 1.1//EN" "http://www.w3.org/Graphics/SVG/1.1/DTD/svg11.dtd"><svg xmlns="http://www.w3.org/2000/svg" version="1.1" width="494px" height="611.3px" viewBox="0 0 494 611.3">  <desc>Acrylic paint, Cadmium Yellow Acrylic paint, Titanium White Acrylic paint, Vermillion Artificial dye, Blue 1 Artifici</desc>  <defs/>  <g id="Polygon216096">    <path d="M 5.5 456.4 L 5.5 438.5 L 0.8 438.5 L 0.8 436.4 L 12.6 436.4 L 12.6 438.5 L 7.9 438.5 L 7.9 456.4 L 5.5 456.4 Z M 11.9 449.1 C 11.9 445 13.9 441.5 17.7 441.5 C 21.6 441.5 23.6 445 23.6 449.1 C 23.6 453.2 21.6 456.7 17.7 456.7 C 13.9 456.7 11.9 453.2 11.9 449.1 Z M 21.4 449.1 C 21.4 446.2 20.3 443.4 17.7 443.4 C 15.2 443.4 14.1 446.2 14.1 449.1 C 14.1 452.1 15.2 454.8 17.7 454.8 C 20.3 454.8 21.4 452.1 21.4 449.1 Z M 26.6 456.4 L 26.6 436.4 L 28.7 436.4 L 28.7 456.4 L 26.6 456.4 Z M 40.2 456.4 C 40.2 456.4 40.2 454.37 40.2 454.4 C 39.3 455.6 37.8 456.7 36 456.7 C 33.5 456.7 32.4 455.5 32.4 452.9 C 32.37 452.87 32.4 441.9 32.4 441.9 L 34.5 441.9 C 34.5 441.9 34.5 452.24 34.5 452.2 C 34.5 454.2 35.4 454.8 36.8 454.8 C 38.2 454.8 39.6 453.8 40.2 452.6 C 40.2 452.57 40.2 441.9 40.2 441.9 L 42.4 441.9 L 42.4 456.4 L 40.2 456.4 Z M 45.3 449.1 C 45.3 444.9 47.5 441.5 51.2 441.5 C 55 441.5 56.9 444.9 56.9 449.2 C 56.91 449.18 56.9 449.8 56.9 449.8 C 56.9 449.8 47.52 449.84 47.5 449.8 C 47.6 452.7 49.1 454.9 51.7 454.9 C 52.9 454.9 54.2 454.3 55.1 453.2 C 55.1 453.2 56.3 454.4 56.3 454.4 C 55.1 455.9 53.5 456.7 51.5 456.7 C 47.6 456.7 45.3 453.6 45.3 449.1 Z M 51.1 443.3 C 48.6 443.3 47.6 446.1 47.5 448.2 C 47.5 448.2 54.8 448.2 54.8 448.2 C 54.7 446 53.8 443.3 51.1 443.3 Z M 67.6 456.4 C 67.6 456.4 67.59 446.06 67.6 446.1 C 67.6 444.1 66.7 443.4 65.3 443.4 C 63.9 443.4 62.5 444.6 61.9 445.8 C 61.89 445.76 61.9 456.4 61.9 456.4 L 59.8 456.4 L 59.8 441.9 L 61.9 441.9 C 61.9 441.9 61.89 443.96 61.9 444 C 62.7 442.7 64.3 441.5 66.1 441.5 C 68.5 441.5 69.7 442.8 69.7 445.5 C 69.75 445.46 69.7 456.4 69.7 456.4 L 67.6 456.4 Z M 72.7 449.1 C 72.7 444.9 74.9 441.5 78.6 441.5 C 82.4 441.5 84.3 444.9 84.3 449.2 C 84.3 449.18 84.3 449.8 84.3 449.8 C 84.3 449.8 74.91 449.84 74.9 449.8 C 75 452.7 76.5 454.9 79.1 454.9 C 80.3 454.9 81.6 454.3 82.5 453.2 C 82.5 453.2 83.7 454.4 83.7 454.4 C 82.5 455.9 80.8 456.7 78.9 456.7 C 75 456.7 72.7 453.6 72.7 449.1 Z M 78.5 443.3 C 76 443.3 75 446.1 74.9 448.2 C 74.9 448.2 82.2 448.2 82.2 448.2 C 82.1 446 81.2 443.3 78.5 443.3 Z M 87.8 460.2 C 87.8 460.2 86.8 459.3 86.8 459.3 C 87.7 458.6 88.6 457.5 88.7 456.5 C 88.6 456.5 88.4 456.5 88.3 456.5 C 87.5 456.5 86.9 455.9 86.9 455.1 C 86.9 454.2 87.5 453.5 88.4 453.5 C 89.4 453.5 90.2 454.3 90.2 455.7 C 90.2 457.5 89.2 459.2 87.8 460.2 Z M 99.8 456.4 L 99.8 436.4 C 99.8 436.4 105.93 436.37 105.9 436.4 C 109.6 436.4 111.4 439.1 111.4 442.4 C 111.4 445.6 109.6 448.4 105.9 448.4 C 105.93 448.37 102.2 448.4 102.2 448.4 L 102.2 456.4 L 99.8 456.4 Z M 109 442.4 C 109 440.1 107.8 438.5 105.7 438.5 C 105.69 438.47 102.2 438.5 102.2 438.5 L 102.2 446.3 C 102.2 446.3 105.69 446.27 105.7 446.3 C 107.8 446.3 109 444.6 109 442.4 Z M 112.8 449.1 C 112.8 444.9 115 441.5 118.7 441.5 C 122.5 441.5 124.4 444.9 124.4 449.2 C 124.41 449.18 124.4 449.8 124.4 449.8 C 124.4 449.8 115.02 449.84 115 449.8 C 115.1 452.7 116.6 454.9 119.2 454.9 C 120.4 454.9 121.7 454.3 122.6 453.2 C 122.6 453.2 123.8 454.4 123.8 454.4 C 122.6 455.9 121 456.7 119 456.7 C 115.1 456.7 112.8 453.6 112.8 449.1 Z M 118.6 443.3 C 116.1 443.3 115.1 446.1 115 448.2 C 115 448.2 122.3 448.2 122.3 448.2 C 122.2 446 121.3 443.3 118.6 443.3 Z M 127.3 456.4 L 127.3 441.9 L 129.4 441.9 C 129.4 441.9 129.39 444.2 129.4 444.2 C 130.3 442.7 131.7 441.6 133.5 441.6 C 133.5 441.6 133.5 443.8 133.5 443.8 C 133.3 443.7 133 443.7 132.8 443.7 C 131.5 443.7 130 444.9 129.4 446.1 C 129.39 446.09 129.4 456.4 129.4 456.4 L 127.3 456.4 Z M 150.3 456.4 C 150.3 456.4 150.33 445.88 150.3 445.9 C 150.3 444.3 149.7 443.4 148.3 443.4 C 147 443.4 145.7 444.6 145.2 445.8 C 145.17 445.76 145.2 456.4 145.2 456.4 L 143 456.4 C 143 456.4 143.01 445.88 143 445.9 C 143 444.3 142.4 443.4 141 443.4 C 139.7 443.4 138.4 444.6 137.8 445.8 C 137.82 445.76 137.8 456.4 137.8 456.4 L 135.7 456.4 L 135.7 441.9 L 137.8 441.9 C 137.8 441.9 137.82 443.96 137.8 444 C 138.4 442.9 140 441.5 141.8 441.5 C 143.6 441.5 144.8 442.6 145 444.1 C 145.8 442.8 147.4 441.5 149.1 441.5 C 151.3 441.5 152.5 442.7 152.5 445.3 C 152.49 445.31 152.5 456.4 152.5 456.4 L 150.3 456.4 Z M 163.6 456.4 C 163.6 456.4 163.59 454.82 163.6 454.8 C 162.7 456.1 161.2 456.7 159.8 456.7 C 157.4 456.7 155.4 454.9 155.4 451.9 C 155.4 448.9 157.4 447.1 159.8 447.1 C 161.2 447.1 162.7 447.7 163.6 449 C 163.6 449 163.6 446.5 163.6 446.5 C 163.6 444.5 162.5 443.4 160.6 443.4 C 159.3 443.4 158.1 443.9 157 445.2 C 157 445.2 156 443.6 156 443.6 C 157.4 442.2 159.1 441.5 160.9 441.5 C 163.8 441.5 165.7 442.9 165.7 446.2 C 165.75 446.24 165.7 456.4 165.7 456.4 L 163.6 456.4 Z M 163.6 453.3 C 163.6 453.3 163.6 450.6 163.6 450.6 C 162.9 449.4 161.7 448.7 160.5 448.7 C 158.7 448.7 157.6 450.1 157.6 451.9 C 157.6 453.7 158.7 455.2 160.5 455.2 C 161.7 455.2 162.9 454.5 163.6 453.3 Z M 177.2 456.4 C 177.2 456.4 177.21 446.06 177.2 446.1 C 177.2 444.1 176.3 443.4 174.9 443.4 C 173.5 443.4 172.2 444.6 171.5 445.8 C 171.51 445.76 171.5 456.4 171.5 456.4 L 169.4 456.4 L 169.4 441.9 L 171.5 441.9 C 171.5 441.9 171.51 443.96 171.5 444 C 172.3 442.7 174 441.5 175.7 441.5 C 178.2 441.5 179.4 442.8 179.4 445.5 C 179.37 445.46 179.4 456.4 179.4 456.4 L 177.2 456.4 Z M 182.3 449.1 C 182.3 444.9 184.5 441.5 188.2 441.5 C 192 441.5 193.9 444.9 193.9 449.2 C 193.92 449.18 193.9 449.8 193.9 449.8 C 193.9 449.8 184.53 449.84 184.5 449.8 C 184.6 452.7 186.1 454.9 188.7 454.9 C 190 454.9 191.2 454.3 192.1 453.2 C 192.1 453.2 193.3 454.4 193.3 454.4 C 192.1 455.9 190.5 456.7 188.5 456.7 C 184.6 456.7 182.3 453.6 182.3 449.1 Z M 188.2 443.3 C 185.6 443.3 184.6 446.1 184.5 448.2 C 184.5 448.2 191.8 448.2 191.8 448.2 C 191.8 446 190.8 443.3 188.2 443.3 Z M 204.6 456.4 C 204.6 456.4 204.6 446.06 204.6 446.1 C 204.6 444.1 203.7 443.4 202.3 443.4 C 200.9 443.4 199.6 444.6 198.9 445.8 C 198.9 445.76 198.9 456.4 198.9 456.4 L 196.8 456.4 L 196.8 441.9 L 198.9 441.9 C 198.9 441.9 198.9 443.96 198.9 444 C 199.7 442.7 201.4 441.5 203.1 441.5 C 205.6 441.5 206.8 442.8 206.8 445.5 C 206.76 445.46 206.8 456.4 206.8 456.4 L 204.6 456.4 Z M 210.8 453.5 C 210.84 453.47 210.8 443.8 210.8 443.8 L 208.9 443.8 L 208.9 441.9 L 210.8 441.9 L 210.8 437.9 L 213 437.9 L 213 441.9 L 215.5 441.9 L 215.5 443.8 L 213 443.8 C 213 443.8 213 453.08 213 453.1 C 213 454.2 213.3 454.8 214.2 454.8 C 214.7 454.8 215.2 454.6 215.4 454.2 C 215.4 454.2 216.1 455.9 216.1 455.9 C 215.6 456.4 214.9 456.7 213.7 456.7 C 211.8 456.7 210.8 455.6 210.8 453.5 Z M 238.8 456.4 C 238.8 456.4 238.8 445.88 238.8 445.9 C 238.8 444.3 238.2 443.4 236.8 443.4 C 235.5 443.4 234.2 444.6 233.6 445.8 C 233.64 445.76 233.6 456.4 233.6 456.4 L 231.5 456.4 C 231.5 456.4 231.48 445.88 231.5 445.9 C 231.5 444.3 230.8 443.4 229.4 443.4 C 228.1 443.4 226.9 444.6 226.3 445.8 C 226.29 445.76 226.3 456.4 226.3 456.4 L 224.2 456.4 L 224.2 441.9 L 226.3 441.9 C 226.3 441.9 226.29 443.96 226.3 444 C 226.9 442.9 228.5 441.5 230.2 441.5 C 232.1 441.5 233.2 442.6 233.5 444.1 C 234.2 442.8 235.9 441.5 237.6 441.5 C 239.7 441.5 241 442.7 241 445.3 C 240.96 445.31 241 456.4 241 456.4 L 238.8 456.4 Z M 252.1 456.4 C 252.1 456.4 252.06 454.82 252.1 454.8 C 251.1 456.1 249.7 456.7 248.2 456.7 C 245.9 456.7 243.9 454.9 243.9 451.9 C 243.9 448.9 245.9 447.1 248.2 447.1 C 249.7 447.1 251.2 447.7 252.1 449 C 252.1 449 252.1 446.5 252.1 446.5 C 252.1 444.5 251 443.4 249.1 443.4 C 247.7 443.4 246.6 443.9 245.5 445.2 C 245.5 445.2 244.5 443.6 244.5 443.6 C 245.9 442.2 247.6 441.5 249.4 441.5 C 252.3 441.5 254.2 442.9 254.2 446.2 C 254.22 446.24 254.2 456.4 254.2 456.4 L 252.1 456.4 Z M 252.1 453.3 C 252.1 453.3 252.1 450.6 252.1 450.6 C 251.4 449.4 250.2 448.7 248.9 448.7 C 247.1 448.7 246.1 450.1 246.1 451.9 C 246.1 453.7 247.1 455.2 248.9 455.2 C 250.2 455.2 251.4 454.5 252.1 453.3 Z M 257.8 456.4 L 257.8 441.9 L 260 441.9 C 260 441.9 259.97 444.2 260 444.2 C 260.9 442.7 262.3 441.6 264.1 441.6 C 264.1 441.6 264.1 443.8 264.1 443.8 C 263.8 443.7 263.6 443.7 263.4 443.7 C 262 443.7 260.6 444.9 260 446.1 C 259.97 446.09 260 456.4 260 456.4 L 257.8 456.4 Z M 274.4 456.4 L 270.4 449.8 L 268.4 452.4 L 268.4 456.4 L 266.3 456.4 L 266.3 436.4 L 268.4 436.4 L 268.4 449.7 L 274.4 441.9 L 277 441.9 L 271.9 448.4 L 277 456.4 L 274.4 456.4 Z M 278.3 449.1 C 278.3 444.9 280.5 441.5 284.2 441.5 C 288 441.5 289.9 444.9 289.9 449.2 C 289.88 449.18 289.9 449.8 289.9 449.8 C 289.9 449.8 280.49 449.84 280.5 449.8 C 280.6 452.7 282.1 454.9 284.7 454.9 C 285.9 454.9 287.2 454.3 288.1 453.2 C 288.1 453.2 289.3 454.4 289.3 454.4 C 288.1 455.9 286.4 456.7 284.5 456.7 C 280.6 456.7 278.3 453.6 278.3 449.1 Z M 284.1 443.3 C 281.6 443.3 280.6 446.1 280.5 448.2 C 280.5 448.2 287.8 448.2 287.8 448.2 C 287.7 446 286.8 443.3 284.1 443.3 Z M 292.7 456.4 L 292.7 441.9 L 294.9 441.9 C 294.9 441.9 294.86 444.2 294.9 444.2 C 295.8 442.7 297.2 441.6 299 441.6 C 299 441.6 299 443.8 299 443.8 C 298.7 443.7 298.5 443.7 298.3 443.7 C 296.9 443.7 295.5 444.9 294.9 446.1 C 294.86 446.09 294.9 456.4 294.9 456.4 L 292.7 456.4 Z " stroke="none" fill="#d3d2d2"/>  </g>  <g id="Polygon216095">    <path d="M 0.9 418.2 C 0.9 418.2 2.2 416.4 2.2 416.4 C 3.2 417.6 4.9 418.6 6.8 418.6 C 9.4 418.6 10.5 417 10.5 415.3 C 10.5 410.5 1.5 411.7 1.5 405.3 C 1.5 402.2 3.9 400 7.2 400 C 9.4 400 11.2 400.8 12.5 402.1 C 12.5 402.1 11.3 403.9 11.3 403.9 C 10.2 402.7 8.7 402.2 7.1 402.2 C 5.3 402.2 3.9 403.4 3.9 405.2 C 3.9 409.4 12.9 408.5 12.9 415.2 C 12.9 418.1 11 420.7 6.8 420.7 C 4.2 420.7 2.2 419.7 0.9 418.2 Z M 15.4 402.3 C 15.4 401.5 16 400.8 16.8 400.8 C 17.6 400.8 18.3 401.5 18.3 402.3 C 18.3 403.1 17.6 403.8 16.8 403.8 C 16 403.8 15.4 403.1 15.4 402.3 Z M 15.8 420.4 L 15.8 405.9 L 17.9 405.9 L 17.9 420.4 L 15.8 420.4 Z M 21.6 420.4 L 21.6 400.4 L 23.7 400.4 L 23.7 420.4 L 21.6 420.4 Z M 26.9 402.3 C 26.9 401.5 27.6 400.8 28.4 400.8 C 29.2 400.8 29.9 401.5 29.9 402.3 C 29.9 403.1 29.2 403.8 28.4 403.8 C 27.6 403.8 26.9 403.1 26.9 402.3 Z M 27.4 420.4 L 27.4 405.9 L 29.5 405.9 L 29.5 420.4 L 27.4 420.4 Z M 32.4 413.1 C 32.4 408.8 34.7 405.5 38.4 405.5 C 40.4 405.5 41.7 406.3 42.6 407.4 C 42.6 407.4 41.4 408.9 41.4 408.9 C 40.6 407.9 39.7 407.4 38.6 407.4 C 36 407.4 34.7 410 34.7 413.1 C 34.7 416.2 36 418.8 38.6 418.8 C 39.7 418.8 40.6 418.4 41.4 417.3 C 41.4 417.3 42.6 418.8 42.6 418.8 C 41.7 420 40.4 420.7 38.4 420.7 C 34.7 420.7 32.4 417.4 32.4 413.1 Z M 44.3 413.1 C 44.3 409 46.3 405.5 50.2 405.5 C 54.1 405.5 56.1 409 56.1 413.1 C 56.1 417.2 54.1 420.7 50.2 420.7 C 46.3 420.7 44.3 417.2 44.3 413.1 Z M 53.8 413.1 C 53.8 410.2 52.7 407.4 50.2 407.4 C 47.7 407.4 46.6 410.2 46.6 413.1 C 46.6 416.1 47.7 418.8 50.2 418.8 C 52.7 418.8 53.8 416.1 53.8 413.1 Z M 66.9 420.4 C 66.9 420.4 66.87 410.06 66.9 410.1 C 66.9 408.1 66 407.4 64.6 407.4 C 63.1 407.4 61.8 408.6 61.2 409.8 C 61.17 409.76 61.2 420.4 61.2 420.4 L 59 420.4 L 59 405.9 L 61.2 405.9 C 61.2 405.9 61.17 407.96 61.2 408 C 62 406.7 63.6 405.5 65.4 405.5 C 67.8 405.5 69 406.8 69 409.5 C 69.03 409.46 69 420.4 69 420.4 L 66.9 420.4 Z M 72 413.1 C 72 408.9 74.2 405.5 77.8 405.5 C 81.7 405.5 83.6 408.9 83.6 413.2 C 83.58 413.18 83.6 413.8 83.6 413.8 C 83.6 413.8 74.19 413.84 74.2 413.8 C 74.3 416.7 75.8 418.9 78.4 418.9 C 79.6 418.9 80.9 418.3 81.8 417.2 C 81.8 417.2 82.9 418.4 82.9 418.4 C 81.8 419.9 80.1 420.7 78.2 420.7 C 74.3 420.7 72 417.6 72 413.1 Z M 77.8 407.3 C 75.3 407.3 74.2 410.1 74.2 412.2 C 74.2 412.2 81.4 412.2 81.4 412.2 C 81.4 410 80.5 407.3 77.8 407.3 Z M 87.1 424.2 C 87.1 424.2 86 423.3 86 423.3 C 87 422.6 87.8 421.5 88 420.5 C 87.9 420.5 87.7 420.5 87.6 420.5 C 86.8 420.5 86.2 419.9 86.2 419.1 C 86.2 418.2 86.8 417.5 87.7 417.5 C 88.7 417.5 89.5 418.3 89.5 419.7 C 89.5 421.5 88.5 423.2 87.1 424.2 Z M 99.1 420.4 L 99.1 400.4 C 99.1 400.4 105.21 400.37 105.2 400.4 C 108.9 400.4 110.7 403.1 110.7 406.4 C 110.7 409.6 108.8 412.4 105.2 412.4 C 105.21 412.37 101.5 412.4 101.5 412.4 L 101.5 420.4 L 99.1 420.4 Z M 108.3 406.4 C 108.3 404.1 107 402.5 105 402.5 C 104.97 402.47 101.5 402.5 101.5 402.5 L 101.5 410.3 C 101.5 410.3 104.97 410.27 105 410.3 C 107 410.3 108.3 408.6 108.3 406.4 Z M 121.2 420.4 C 121.2 420.4 121.17 410.03 121.2 410 C 121.2 408.1 120.3 407.4 118.8 407.4 C 117.4 407.4 116.1 408.6 115.4 409.8 C 115.44 409.76 115.4 420.4 115.4 420.4 L 113.3 420.4 L 113.3 400.4 L 115.4 400.4 C 115.4 400.4 115.44 407.96 115.4 408 C 116.3 406.7 117.9 405.5 119.7 405.5 C 122.1 405.5 123.3 406.8 123.3 409.4 C 123.3 409.4 123.3 420.4 123.3 420.4 L 121.2 420.4 Z M 126.2 413.1 C 126.2 409 128.3 405.5 132.1 405.5 C 136 405.5 138 409 138 413.1 C 138 417.2 136 420.7 132.1 420.7 C 128.3 420.7 126.2 417.2 126.2 413.1 Z M 135.8 413.1 C 135.8 410.2 134.7 407.4 132.1 407.4 C 129.6 407.4 128.5 410.2 128.5 413.1 C 128.5 416.1 129.6 418.8 132.1 418.8 C 134.7 418.8 135.8 416.1 135.8 413.1 Z M 148.8 420.4 C 148.8 420.4 148.8 410.06 148.8 410.1 C 148.8 408.1 147.9 407.4 146.5 407.4 C 145.1 407.4 143.8 408.6 143.1 409.8 C 143.1 409.76 143.1 420.4 143.1 420.4 L 141 420.4 L 141 405.9 L 143.1 405.9 C 143.1 405.9 143.1 407.96 143.1 408 C 143.9 406.7 145.6 405.5 147.3 405.5 C 149.8 405.5 151 406.8 151 409.5 C 150.96 409.46 151 420.4 151 420.4 L 148.8 420.4 Z M 153.9 413.1 C 153.9 408.9 156.1 405.5 159.8 405.5 C 163.6 405.5 165.5 408.9 165.5 413.2 C 165.51 413.18 165.5 413.8 165.5 413.8 C 165.5 413.8 156.12 413.84 156.1 413.8 C 156.2 416.7 157.7 418.9 160.3 418.9 C 161.5 418.9 162.8 418.3 163.7 417.2 C 163.7 417.2 164.9 418.4 164.9 418.4 C 163.7 419.9 162.1 420.7 160.1 420.7 C 156.2 420.7 153.9 417.6 153.9 413.1 Z M 159.7 407.3 C 157.2 407.3 156.2 410.1 156.1 412.2 C 156.1 412.2 163.4 412.2 163.4 412.2 C 163.3 410 162.4 407.3 159.7 407.3 Z M 173.8 413.1 C 173.8 408.8 176.1 405.5 179.8 405.5 C 181.8 405.5 183 406.3 183.9 407.4 C 183.9 407.4 182.8 408.9 182.8 408.9 C 182 407.9 181.1 407.4 180 407.4 C 177.4 407.4 176 410 176 413.1 C 176 416.2 177.4 418.8 180 418.8 C 181.1 418.8 182 418.4 182.8 417.3 C 182.8 417.3 183.9 418.8 183.9 418.8 C 183 420 181.8 420.7 179.8 420.7 C 176.1 420.7 173.8 417.4 173.8 413.1 Z M 193.8 420.4 C 193.8 420.4 193.83 418.82 193.8 418.8 C 192.9 420.1 191.5 420.7 190 420.7 C 187.7 420.7 185.6 418.9 185.6 415.9 C 185.6 412.9 187.6 411.1 190 411.1 C 191.5 411.1 192.9 411.7 193.8 413 C 193.8 413 193.8 410.5 193.8 410.5 C 193.8 408.5 192.7 407.4 190.9 407.4 C 189.5 407.4 188.3 407.9 187.2 409.2 C 187.2 409.2 186.3 407.6 186.3 407.6 C 187.6 406.2 189.4 405.5 191.2 405.5 C 194.1 405.5 196 406.9 196 410.2 C 195.99 410.24 196 420.4 196 420.4 L 193.8 420.4 Z M 193.8 417.3 C 193.8 417.3 193.8 414.6 193.8 414.6 C 193.2 413.4 192 412.7 190.7 412.7 C 188.9 412.7 187.8 414.1 187.8 415.9 C 187.8 417.7 188.9 419.2 190.7 419.2 C 192 419.2 193.2 418.5 193.8 417.3 Z M 198.4 418.7 C 198.4 418.7 199.5 417.2 199.5 417.2 C 200.4 418.2 201.7 419 203.3 419 C 205 419 206.1 418 206.1 416.7 C 206.1 413.3 198.9 414.4 198.9 409.4 C 198.9 407.3 200.6 405.5 203.5 405.5 C 205.4 405.5 206.9 406.3 207.9 407.4 C 207.9 407.4 206.9 408.9 206.9 408.9 C 206.2 407.9 204.9 407.3 203.5 407.3 C 201.9 407.3 200.9 408.2 200.9 409.4 C 200.9 412.5 208.2 411.4 208.2 416.6 C 208.2 419 206.3 420.7 203.3 420.7 C 201.3 420.7 199.6 420.1 198.4 418.7 Z M 210.5 402.3 C 210.5 401.5 211.2 400.8 212 400.8 C 212.8 400.8 213.4 401.5 213.4 402.3 C 213.4 403.1 212.8 403.8 212 403.8 C 211.2 403.8 210.5 403.1 210.5 402.3 Z M 210.9 420.4 L 210.9 405.9 L 213.1 405.9 L 213.1 420.4 L 210.9 420.4 Z M 224.5 420.4 C 224.5 420.4 224.55 410.06 224.5 410.1 C 224.5 408.1 223.7 407.4 222.2 407.4 C 220.8 407.4 219.5 408.6 218.8 409.8 C 218.85 409.76 218.8 420.4 218.8 420.4 L 216.7 420.4 L 216.7 405.9 L 218.8 405.9 C 218.8 405.9 218.85 407.96 218.8 408 C 219.7 406.7 221.3 405.5 223 405.5 C 225.5 405.5 226.7 406.8 226.7 409.5 C 226.71 409.46 226.7 420.4 226.7 420.4 L 224.5 420.4 Z M 230.2 424.4 C 230.2 424.4 231.2 422.7 231.2 422.7 C 232.2 423.9 233.4 424.4 235 424.4 C 237 424.4 238.6 423.3 238.6 420.5 C 238.6 420.5 238.6 418.1 238.6 418.1 C 237.8 419.5 236.4 420.6 234.8 420.6 C 231.6 420.6 229.6 417.6 229.6 413.1 C 229.6 408.6 231.6 405.5 234.8 405.5 C 236.3 405.5 237.7 406.4 238.6 408 C 238.64 407.99 238.6 405.9 238.6 405.9 L 240.8 405.9 C 240.8 405.9 240.8 420.35 240.8 420.3 C 240.8 424.8 238.1 426.3 235.1 426.3 C 233.1 426.3 231.6 425.8 230.2 424.4 Z M 238.6 416.2 C 238.6 416.2 238.6 409.8 238.6 409.8 C 238.1 408.6 236.8 407.4 235.4 407.4 C 233 407.4 231.9 409.9 231.9 413.1 C 231.9 416.2 233 418.6 235.4 418.6 C 236.8 418.6 238.1 417.5 238.6 416.2 Z " stroke="none" fill="#d3d2d2"/>  </g>  <g id="Polygon216094">    <path d="M 2.1 384.4 L 2.1 364.4 C 2.1 364.4 8.19 364.37 8.2 364.4 C 11.8 364.4 13.7 367.1 13.7 370.4 C 13.7 373.6 11.8 376.4 8.2 376.4 C 8.19 376.37 4.5 376.4 4.5 376.4 L 4.5 384.4 L 2.1 384.4 Z M 11.3 370.4 C 11.3 368.1 10 366.5 7.9 366.5 C 7.95 366.47 4.5 366.5 4.5 366.5 L 4.5 374.3 C 4.5 374.3 7.95 374.27 7.9 374.3 C 10 374.3 11.3 372.6 11.3 370.4 Z M 24.1 384.4 C 24.1 384.4 24.15 374.03 24.1 374 C 24.1 372.1 23.2 371.4 21.8 371.4 C 20.4 371.4 19.1 372.6 18.4 373.8 C 18.42 373.76 18.4 384.4 18.4 384.4 L 16.3 384.4 L 16.3 364.4 L 18.4 364.4 C 18.4 364.4 18.42 371.96 18.4 372 C 19.3 370.7 20.9 369.5 22.6 369.5 C 25.1 369.5 26.3 370.8 26.3 373.4 C 26.28 373.4 26.3 384.4 26.3 384.4 L 24.1 384.4 Z M 29.2 377.1 C 29.2 372.9 31.4 369.5 35.1 369.5 C 38.9 369.5 40.8 372.9 40.8 377.2 C 40.83 377.18 40.8 377.8 40.8 377.8 C 40.8 377.8 31.44 377.84 31.4 377.8 C 31.5 380.7 33 382.9 35.6 382.9 C 36.9 382.9 38.2 382.3 39.1 381.2 C 39.1 381.2 40.2 382.4 40.2 382.4 C 39 383.9 37.4 384.7 35.4 384.7 C 31.6 384.7 29.2 381.6 29.2 377.1 Z M 35.1 371.3 C 32.5 371.3 31.5 374.1 31.4 376.2 C 31.4 376.2 38.7 376.2 38.7 376.2 C 38.7 374 37.7 371.3 35.1 371.3 Z M 51.5 384.4 C 51.5 384.4 51.51 374.06 51.5 374.1 C 51.5 372.1 50.6 371.4 49.2 371.4 C 47.8 371.4 46.5 372.6 45.8 373.8 C 45.81 373.76 45.8 384.4 45.8 384.4 L 43.7 384.4 L 43.7 369.9 L 45.8 369.9 C 45.8 369.9 45.81 371.96 45.8 372 C 46.6 370.7 48.3 369.5 50 369.5 C 52.5 369.5 53.7 370.8 53.7 373.5 C 53.67 373.46 53.7 384.4 53.7 384.4 L 51.5 384.4 Z M 56.6 377.1 C 56.6 373 58.6 369.5 62.5 369.5 C 66.4 369.5 68.4 373 68.4 377.1 C 68.4 381.2 66.4 384.7 62.5 384.7 C 58.6 384.7 56.6 381.2 56.6 377.1 Z M 66.1 377.1 C 66.1 374.2 65 371.4 62.5 371.4 C 60 371.4 58.9 374.2 58.9 377.1 C 58.9 380.1 60 382.8 62.5 382.8 C 65 382.8 66.1 380.1 66.1 377.1 Z M 71.3 384.4 L 71.3 364.4 L 73.5 364.4 L 73.5 384.4 L 71.3 384.4 Z M 76 378.1 L 76 376.2 L 82.3 376.2 L 82.3 378.1 L 76 378.1 Z M 85.3 384.4 L 85.3 371.8 L 83.4 371.8 L 83.4 369.9 L 85.3 369.9 C 85.3 369.9 85.35 368.12 85.3 368.1 C 85.3 365.6 86.7 364.1 89 364.1 C 89.9 364.1 90.8 364.3 91.6 365 C 91.6 365 90.7 366.6 90.7 366.6 C 90.3 366.1 89.9 365.9 89.3 365.9 C 88.1 365.9 87.5 366.7 87.5 368.1 C 87.51 368.12 87.5 369.9 87.5 369.9 L 90 369.9 L 90 371.8 L 87.5 371.8 L 87.5 384.4 L 85.3 384.4 Z M 91.4 377.1 C 91.4 373 93.5 369.5 97.3 369.5 C 101.2 369.5 103.2 373 103.2 377.1 C 103.2 381.2 101.2 384.7 97.3 384.7 C 93.5 384.7 91.4 381.2 91.4 377.1 Z M 101 377.1 C 101 374.2 99.9 371.4 97.3 371.4 C 94.8 371.4 93.7 374.2 93.7 377.1 C 93.7 380.1 94.8 382.8 97.3 382.8 C 99.9 382.8 101 380.1 101 377.1 Z M 106.2 384.4 L 106.2 369.9 L 108.3 369.9 C 108.3 369.9 108.3 372.2 108.3 372.2 C 109.2 370.7 110.6 369.6 112.4 369.6 C 112.4 369.6 112.4 371.8 112.4 371.8 C 112.2 371.7 111.9 371.7 111.7 371.7 C 110.4 371.7 108.9 372.9 108.3 374.1 C 108.3 374.09 108.3 384.4 108.3 384.4 L 106.2 384.4 Z M 129.2 384.4 C 129.2 384.4 129.24 373.88 129.2 373.9 C 129.2 372.3 128.6 371.4 127.2 371.4 C 125.9 371.4 124.6 372.6 124.1 373.8 C 124.08 373.76 124.1 384.4 124.1 384.4 L 121.9 384.4 C 121.9 384.4 121.92 373.88 121.9 373.9 C 121.9 372.3 121.3 371.4 119.9 371.4 C 118.6 371.4 117.4 372.6 116.7 373.8 C 116.73 373.76 116.7 384.4 116.7 384.4 L 114.6 384.4 L 114.6 369.9 L 116.7 369.9 C 116.7 369.9 116.73 371.96 116.7 372 C 117.3 370.9 118.9 369.5 120.7 369.5 C 122.5 369.5 123.7 370.6 124 372.1 C 124.7 370.8 126.3 369.5 128 369.5 C 130.2 369.5 131.4 370.7 131.4 373.3 C 131.4 373.31 131.4 384.4 131.4 384.4 L 129.2 384.4 Z M 142.5 384.4 C 142.5 384.4 142.5 382.82 142.5 382.8 C 141.6 384.1 140.2 384.7 138.7 384.7 C 136.3 384.7 134.3 382.9 134.3 379.9 C 134.3 376.9 136.3 375.1 138.7 375.1 C 140.2 375.1 141.6 375.7 142.5 377 C 142.5 377 142.5 374.5 142.5 374.5 C 142.5 372.5 141.4 371.4 139.5 371.4 C 138.2 371.4 137 371.9 135.9 373.2 C 135.9 373.2 134.9 371.6 134.9 371.6 C 136.3 370.2 138 369.5 139.9 369.5 C 142.7 369.5 144.7 370.9 144.7 374.2 C 144.66 374.24 144.7 384.4 144.7 384.4 L 142.5 384.4 Z M 142.5 381.3 C 142.5 381.3 142.5 378.6 142.5 378.6 C 141.8 377.4 140.6 376.7 139.4 376.7 C 137.6 376.7 136.5 378.1 136.5 379.9 C 136.5 381.7 137.6 383.2 139.4 383.2 C 140.6 383.2 141.8 382.5 142.5 381.3 Z M 148.3 384.4 L 148.3 364.4 L 150.4 364.4 L 150.4 384.4 L 148.3 384.4 Z M 162.4 384.4 C 162.4 384.4 162.36 382.31 162.4 382.3 C 161.5 383.8 160.1 384.7 158.5 384.7 C 155.3 384.7 153.4 381.7 153.4 377.1 C 153.4 372.6 155.3 369.5 158.5 369.5 C 160 369.5 161.5 370.4 162.4 372 C 162.36 371.99 162.4 364.4 162.4 364.4 L 164.5 364.4 L 164.5 384.4 L 162.4 384.4 Z M 162.4 380.5 C 162.4 380.5 162.4 373.8 162.4 373.8 C 161.8 372.6 160.5 371.4 159.1 371.4 C 156.7 371.4 155.6 374 155.6 377.1 C 155.6 380.3 156.7 382.8 159.1 382.8 C 160.5 382.8 161.8 381.7 162.4 380.5 Z M 167.5 377.1 C 167.5 372.9 169.7 369.5 173.3 369.5 C 177.1 369.5 179.1 372.9 179.1 377.2 C 179.07 377.18 179.1 377.8 179.1 377.8 C 179.1 377.8 169.68 377.84 169.7 377.8 C 169.8 380.7 171.3 382.9 173.8 382.9 C 175.1 382.9 176.4 382.3 177.3 381.2 C 177.3 381.2 178.4 382.4 178.4 382.4 C 177.3 383.9 175.6 384.7 173.7 384.7 C 169.8 384.7 167.5 381.6 167.5 377.1 Z M 173.3 371.3 C 170.8 371.3 169.7 374.1 169.7 376.2 C 169.7 376.2 176.9 376.2 176.9 376.2 C 176.9 374 175.9 371.3 173.3 371.3 Z M 189.8 384.4 C 189.8 384.4 189.78 374.03 189.8 374 C 189.8 372.1 188.9 371.4 187.4 371.4 C 186 371.4 184.7 372.6 184 373.8 C 184.05 373.76 184 384.4 184 384.4 L 181.9 384.4 L 181.9 364.4 L 184 364.4 C 184 364.4 184.05 371.96 184 372 C 184.9 370.7 186.5 369.5 188.3 369.5 C 190.7 369.5 191.9 370.8 191.9 373.4 C 191.91 373.4 191.9 384.4 191.9 384.4 L 189.8 384.4 Z M 195.1 388.1 C 195.4 388.3 195.9 388.3 196.1 388.3 C 196.9 388.3 197.4 388 197.8 386.9 C 197.82 386.9 198.6 384.7 198.6 384.7 L 193.8 369.9 L 196.1 369.9 L 199.7 381.8 L 203.3 369.9 L 205.6 369.9 C 205.6 369.9 199.86 387.44 199.9 387.4 C 199.1 389.5 198 390.3 196.3 390.3 C 195.8 390.3 195.1 390.2 194.8 390 C 194.8 390 195.1 388.1 195.1 388.1 Z M 215.8 384.4 C 215.8 384.4 215.79 382.31 215.8 382.3 C 214.9 383.8 213.5 384.7 212 384.7 C 208.7 384.7 206.8 381.7 206.8 377.1 C 206.8 372.6 208.7 369.5 212 369.5 C 213.4 369.5 214.9 370.4 215.8 372 C 215.79 371.99 215.8 364.4 215.8 364.4 L 217.9 364.4 L 217.9 384.4 L 215.8 384.4 Z M 215.8 380.5 C 215.8 380.5 215.8 373.8 215.8 373.8 C 215.2 372.6 213.9 371.4 212.5 371.4 C 210.1 371.4 209 374 209 377.1 C 209 380.3 210.1 382.8 212.5 382.8 C 213.9 382.8 215.2 381.7 215.8 380.5 Z M 220.9 377.1 C 220.9 372.9 223.1 369.5 226.8 369.5 C 230.6 369.5 232.5 372.9 232.5 377.2 C 232.5 377.18 232.5 377.8 232.5 377.8 C 232.5 377.8 223.11 377.84 223.1 377.8 C 223.2 380.7 224.7 382.9 227.3 382.9 C 228.5 382.9 229.8 382.3 230.7 381.2 C 230.7 381.2 231.9 382.4 231.9 382.4 C 230.7 383.9 229 384.7 227.1 384.7 C 223.2 384.7 220.9 381.6 220.9 377.1 Z M 226.7 371.3 C 224.2 371.3 223.2 374.1 223.1 376.2 C 223.1 376.2 230.4 376.2 230.4 376.2 C 230.3 374 229.4 371.3 226.7 371.3 Z M 241.5 384.4 L 241.5 369.9 L 243.6 369.9 C 243.6 369.9 243.63 372.2 243.6 372.2 C 244.6 370.7 246 369.6 247.7 369.6 C 247.7 369.6 247.7 371.8 247.7 371.8 C 247.5 371.7 247.3 371.7 247 371.7 C 245.7 371.7 244.2 372.9 243.6 374.1 C 243.63 374.09 243.6 384.4 243.6 384.4 L 241.5 384.4 Z M 249.2 377.1 C 249.2 372.9 251.4 369.5 255.1 369.5 C 258.9 369.5 260.8 372.9 260.8 377.2 C 260.81 377.18 260.8 377.8 260.8 377.8 C 260.8 377.8 251.42 377.84 251.4 377.8 C 251.5 380.7 253 382.9 255.6 382.9 C 256.9 382.9 258.1 382.3 259 381.2 C 259 381.2 260.2 382.4 260.2 382.4 C 259 383.9 257.4 384.7 255.4 384.7 C 251.5 384.7 249.2 381.6 249.2 377.1 Z M 255.1 371.3 C 252.5 371.3 251.5 374.1 251.4 376.2 C 251.4 376.2 258.7 376.2 258.7 376.2 C 258.7 374 257.7 371.3 255.1 371.3 Z M 262.5 382.7 C 262.5 382.7 263.6 381.2 263.6 381.2 C 264.4 382.2 265.8 383 267.4 383 C 269 383 270.1 382 270.1 380.7 C 270.1 377.3 262.9 378.4 262.9 373.4 C 262.9 371.3 264.7 369.5 267.5 369.5 C 269.5 369.5 270.9 370.3 271.9 371.4 C 271.9 371.4 270.9 372.9 270.9 372.9 C 270.2 371.9 269 371.3 267.6 371.3 C 266 371.3 265 372.2 265 373.4 C 265 376.5 272.2 375.4 272.2 380.6 C 272.2 383 270.4 384.7 267.4 384.7 C 265.3 384.7 263.7 384.1 262.5 382.7 Z M 274.6 366.3 C 274.6 365.5 275.2 364.8 276 364.8 C 276.8 364.8 277.5 365.5 277.5 366.3 C 277.5 367.1 276.8 367.8 276 367.8 C 275.2 367.8 274.6 367.1 274.6 366.3 Z M 275 384.4 L 275 369.9 L 277.1 369.9 L 277.1 384.4 L 275 384.4 Z M 288.6 384.4 C 288.6 384.4 288.59 374.06 288.6 374.1 C 288.6 372.1 287.7 371.4 286.3 371.4 C 284.9 371.4 283.6 372.6 282.9 373.8 C 282.89 373.76 282.9 384.4 282.9 384.4 L 280.8 384.4 L 280.8 369.9 L 282.9 369.9 C 282.9 369.9 282.89 371.96 282.9 372 C 283.7 370.7 285.4 369.5 287.1 369.5 C 289.6 369.5 290.8 370.8 290.8 373.5 C 290.75 373.46 290.8 384.4 290.8 384.4 L 288.6 384.4 Z M 301.1 384.4 L 301.1 371.8 L 299.2 371.8 L 299.2 369.9 L 301.1 369.9 C 301.1 369.9 301.07 368.12 301.1 368.1 C 301.1 365.6 302.5 364.1 304.7 364.1 C 305.7 364.1 306.6 364.3 307.3 365 C 307.3 365 306.4 366.6 306.4 366.6 C 306.1 366.1 305.6 365.9 305 365.9 C 303.8 365.9 303.2 366.7 303.2 368.1 C 303.23 368.12 303.2 369.9 303.2 369.9 L 305.7 369.9 L 305.7 371.8 L 303.2 371.8 L 303.2 384.4 L 301.1 384.4 Z M 307.2 377.1 C 307.2 373 309.2 369.5 313 369.5 C 316.9 369.5 319 373 319 377.1 C 319 381.2 316.9 384.7 313 384.7 C 309.2 384.7 307.2 381.2 307.2 377.1 Z M 316.7 377.1 C 316.7 374.2 315.6 371.4 313 371.4 C 310.6 371.4 309.4 374.2 309.4 377.1 C 309.4 380.1 310.6 382.8 313 382.8 C 315.6 382.8 316.7 380.1 316.7 377.1 Z M 329.3 384.4 C 329.3 384.4 329.33 382.82 329.3 382.8 C 328.4 384.1 327 384.7 325.5 384.7 C 323.2 384.7 321.1 382.9 321.1 379.9 C 321.1 376.9 323.2 375.1 325.5 375.1 C 327 375.1 328.4 375.7 329.3 377 C 329.3 377 329.3 374.5 329.3 374.5 C 329.3 372.5 328.3 371.4 326.4 371.4 C 325 371.4 323.8 371.9 322.7 373.2 C 322.7 373.2 321.8 371.6 321.8 371.6 C 323.2 370.2 324.9 369.5 326.7 369.5 C 329.6 369.5 331.5 370.9 331.5 374.2 C 331.49 374.24 331.5 384.4 331.5 384.4 L 329.3 384.4 Z M 329.3 381.3 C 329.3 381.3 329.3 378.6 329.3 378.6 C 328.7 377.4 327.5 376.7 326.2 376.7 C 324.4 376.7 323.3 378.1 323.3 379.9 C 323.3 381.7 324.4 383.2 326.2 383.2 C 327.5 383.2 328.7 382.5 329.3 381.3 Z M 349.8 384.4 C 349.8 384.4 349.76 373.88 349.8 373.9 C 349.8 372.3 349.1 371.4 347.8 371.4 C 346.5 371.4 345.2 372.6 344.6 373.8 C 344.6 373.76 344.6 384.4 344.6 384.4 L 342.4 384.4 C 342.4 384.4 342.44 373.88 342.4 373.9 C 342.4 372.3 341.8 371.4 340.4 371.4 C 339.1 371.4 337.9 372.6 337.3 373.8 C 337.25 373.76 337.3 384.4 337.3 384.4 L 335.1 384.4 L 335.1 369.9 L 337.3 369.9 C 337.3 369.9 337.25 371.96 337.3 372 C 337.9 370.9 339.5 369.5 341.2 369.5 C 343.1 369.5 344.2 370.6 344.5 372.1 C 345.2 370.8 346.8 369.5 348.6 369.5 C 350.7 369.5 351.9 370.7 351.9 373.3 C 351.92 373.31 351.9 384.4 351.9 384.4 L 349.8 384.4 Z M 356.4 388.2 C 356.4 388.2 355.3 387.3 355.3 387.3 C 356.3 386.6 357.1 385.5 357.2 384.5 C 357.2 384.5 357 384.5 356.8 384.5 C 356 384.5 355.4 383.9 355.4 383.1 C 355.4 382.2 356.1 381.5 357 381.5 C 358 381.5 358.8 382.3 358.8 383.7 C 358.8 385.5 357.7 387.2 356.4 388.2 Z M 368.4 384.4 L 368.4 364.4 L 378.7 364.4 L 378.7 366.5 L 370.8 366.5 L 370.8 373.1 L 378.5 373.1 L 378.5 375.2 L 370.8 375.2 L 370.8 384.4 L 368.4 384.4 Z M 381.5 384.4 L 381.5 364.4 L 383.6 364.4 L 383.6 384.4 L 381.5 384.4 Z M 386.6 377.1 C 386.6 373 388.6 369.5 392.5 369.5 C 396.4 369.5 398.4 373 398.4 377.1 C 398.4 381.2 396.4 384.7 392.5 384.7 C 388.6 384.7 386.6 381.2 386.6 377.1 Z M 396.1 377.1 C 396.1 374.2 395 371.4 392.5 371.4 C 390 371.4 388.8 374.2 388.8 377.1 C 388.8 380.1 390 382.8 392.5 382.8 C 395 382.8 396.1 380.1 396.1 377.1 Z M 401.3 384.4 L 401.3 369.9 L 403.4 369.9 C 403.4 369.9 403.43 372.2 403.4 372.2 C 404.4 370.7 405.8 369.6 407.5 369.6 C 407.5 369.6 407.5 371.8 407.5 371.8 C 407.3 371.7 407.1 371.7 406.8 371.7 C 405.5 371.7 404 372.9 403.4 374.1 C 403.43 374.09 403.4 384.4 403.4 384.4 L 401.3 384.4 Z M 417.2 384.4 C 417.2 384.4 417.17 382.82 417.2 382.8 C 416.2 384.1 414.8 384.7 413.4 384.7 C 411 384.7 409 382.9 409 379.9 C 409 376.9 411 375.1 413.4 375.1 C 414.8 375.1 416.3 375.7 417.2 377 C 417.2 377 417.2 374.5 417.2 374.5 C 417.2 372.5 416.1 371.4 414.2 371.4 C 412.9 371.4 411.7 371.9 410.6 373.2 C 410.6 373.2 409.6 371.6 409.6 371.6 C 411 370.2 412.7 369.5 414.5 369.5 C 417.4 369.5 419.3 370.9 419.3 374.2 C 419.33 374.24 419.3 384.4 419.3 384.4 L 417.2 384.4 Z M 417.2 381.3 C 417.2 381.3 417.2 378.6 417.2 378.6 C 416.5 377.4 415.3 376.7 414.1 376.7 C 412.3 376.7 411.2 378.1 411.2 379.9 C 411.2 381.7 412.3 383.2 414.1 383.2 C 415.3 383.2 416.5 382.5 417.2 381.3 Z M 423 384.4 L 423 364.4 L 425.1 364.4 L 425.1 384.4 L 423 384.4 Z M 435.4 384.4 L 435.4 371.8 L 433.5 371.8 L 433.5 369.9 L 435.4 369.9 C 435.4 369.9 435.41 368.12 435.4 368.1 C 435.4 365.6 436.8 364.1 439 364.1 C 440 364.1 440.9 364.3 441.6 365 C 441.6 365 440.8 366.6 440.8 366.6 C 440.4 366.1 439.9 365.9 439.4 365.9 C 438.2 365.9 437.6 366.7 437.6 368.1 C 437.57 368.12 437.6 369.9 437.6 369.9 L 440 369.9 L 440 371.8 L 437.6 371.8 L 437.6 384.4 L 435.4 384.4 Z M 441.5 377.1 C 441.5 373 443.5 369.5 447.4 369.5 C 451.3 369.5 453.3 373 453.3 377.1 C 453.3 381.2 451.3 384.7 447.4 384.7 C 443.5 384.7 441.5 381.2 441.5 377.1 Z M 451 377.1 C 451 374.2 449.9 371.4 447.4 371.4 C 444.9 371.4 443.7 374.2 443.7 377.1 C 443.7 380.1 444.9 382.8 447.4 382.8 C 449.9 382.8 451 380.1 451 377.1 Z M 463.7 384.4 C 463.7 384.4 463.67 382.82 463.7 382.8 C 462.7 384.1 461.3 384.7 459.9 384.7 C 457.5 384.7 455.5 382.9 455.5 379.9 C 455.5 376.9 457.5 375.1 459.9 375.1 C 461.3 375.1 462.8 375.7 463.7 377 C 463.7 377 463.7 374.5 463.7 374.5 C 463.7 372.5 462.6 371.4 460.7 371.4 C 459.3 371.4 458.2 371.9 457.1 373.2 C 457.1 373.2 456.1 371.6 456.1 371.6 C 457.5 370.2 459.2 369.5 461 369.5 C 463.9 369.5 465.8 370.9 465.8 374.2 C 465.83 374.24 465.8 384.4 465.8 384.4 L 463.7 384.4 Z M 463.7 381.3 C 463.7 381.3 463.7 378.6 463.7 378.6 C 463 377.4 461.8 376.7 460.5 376.7 C 458.7 376.7 457.7 378.1 457.7 379.9 C 457.7 381.7 458.7 383.2 460.5 383.2 C 461.8 383.2 463 382.5 463.7 381.3 Z M 484.1 384.4 C 484.1 384.4 484.1 373.88 484.1 373.9 C 484.1 372.3 483.5 371.4 482.1 371.4 C 480.8 371.4 479.5 372.6 478.9 373.8 C 478.94 373.76 478.9 384.4 478.9 384.4 L 476.8 384.4 C 476.8 384.4 476.78 373.88 476.8 373.9 C 476.8 372.3 476.1 371.4 474.7 371.4 C 473.4 371.4 472.2 372.6 471.6 373.8 C 471.59 373.76 471.6 384.4 471.6 384.4 L 469.5 384.4 L 469.5 369.9 L 471.6 369.9 C 471.6 369.9 471.59 371.96 471.6 372 C 472.2 370.9 473.8 369.5 475.5 369.5 C 477.4 369.5 478.5 370.6 478.8 372.1 C 479.5 370.8 481.2 369.5 482.9 369.5 C 485 369.5 486.3 370.7 486.3 373.3 C 486.26 373.31 486.3 384.4 486.3 384.4 L 484.1 384.4 Z " stroke="none" fill="#d3d2d2"/>  </g>  <g id="Polygon216093">    <path d="M 12.8 348.4 L 4.5 333.5 L 4.5 348.4 L 2.1 348.4 L 2.1 328.4 L 4.5 328.4 L 12.7 343 L 12.7 328.4 L 15.1 328.4 L 15.1 348.4 L 12.8 348.4 Z M 18.1 341.1 C 18.1 336.9 20.3 333.5 24 333.5 C 27.8 333.5 29.7 336.9 29.7 341.2 C 29.73 341.18 29.7 341.8 29.7 341.8 C 29.7 341.8 20.34 341.84 20.3 341.8 C 20.4 344.7 21.9 346.9 24.5 346.9 C 25.8 346.9 27.1 346.3 28 345.2 C 28 345.2 29.1 346.4 29.1 346.4 C 27.9 347.9 26.3 348.7 24.3 348.7 C 20.5 348.7 18.1 345.6 18.1 341.1 Z M 24 335.3 C 21.4 335.3 20.4 338.1 20.3 340.2 C 20.3 340.2 27.6 340.2 27.6 340.2 C 27.6 338 26.6 335.3 24 335.3 Z M 31.9 341.1 C 31.9 337 33.9 333.5 37.7 333.5 C 41.6 333.5 43.6 337 43.6 341.1 C 43.6 345.2 41.6 348.7 37.7 348.7 C 33.9 348.7 31.9 345.2 31.9 341.1 Z M 41.4 341.1 C 41.4 338.2 40.3 335.4 37.7 335.4 C 35.2 335.4 34.1 338.2 34.1 341.1 C 34.1 344.1 35.2 346.8 37.7 346.8 C 40.3 346.8 41.4 344.1 41.4 341.1 Z M 48.7 346.3 C 48.72 346.28 48.7 353.9 48.7 353.9 L 46.6 353.9 L 46.6 333.9 L 48.7 333.9 C 48.7 333.9 48.72 335.96 48.7 336 C 49.6 334.5 51 333.5 52.5 333.5 C 55.8 333.5 57.7 336.6 57.7 341.1 C 57.7 345.6 55.8 348.7 52.5 348.7 C 51.1 348.7 49.6 347.9 48.7 346.3 Z M 55.5 341.1 C 55.5 338 54.4 335.4 52 335.4 C 50.6 335.4 49.3 336.5 48.7 337.8 C 48.7 337.8 48.7 344.4 48.7 344.4 C 49.3 345.7 50.6 346.8 52 346.8 C 54.4 346.8 55.5 344.3 55.5 341.1 Z M 60.6 348.4 L 60.6 333.9 L 62.8 333.9 C 62.8 333.9 62.76 336.2 62.8 336.2 C 63.7 334.7 65.1 333.6 66.9 333.6 C 66.9 333.6 66.9 335.8 66.9 335.8 C 66.6 335.7 66.4 335.7 66.1 335.7 C 64.8 335.7 63.4 336.9 62.8 338.1 C 62.76 338.09 62.8 348.4 62.8 348.4 L 60.6 348.4 Z M 68.3 341.1 C 68.3 336.9 70.6 333.5 74.2 333.5 C 78 333.5 79.9 336.9 79.9 341.2 C 79.95 341.18 79.9 341.8 79.9 341.8 C 79.9 341.8 70.56 341.84 70.6 341.8 C 70.6 344.7 72.1 346.9 74.7 346.9 C 76 346.9 77.3 346.3 78.2 345.2 C 78.2 345.2 79.3 346.4 79.3 346.4 C 78.1 347.9 76.5 348.7 74.5 348.7 C 70.7 348.7 68.3 345.6 68.3 341.1 Z M 74.2 335.3 C 71.6 335.3 70.6 338.1 70.6 340.2 C 70.6 340.2 77.8 340.2 77.8 340.2 C 77.8 338 76.8 335.3 74.2 335.3 Z M 90.6 348.4 C 90.6 348.4 90.63 338.06 90.6 338.1 C 90.6 336.1 89.8 335.4 88.3 335.4 C 86.9 335.4 85.6 336.6 84.9 337.8 C 84.93 337.76 84.9 348.4 84.9 348.4 L 82.8 348.4 L 82.8 333.9 L 84.9 333.9 C 84.9 333.9 84.93 335.96 84.9 336 C 85.8 334.7 87.4 333.5 89.1 333.5 C 91.6 333.5 92.8 334.8 92.8 337.5 C 92.79 337.46 92.8 348.4 92.8 348.4 L 90.6 348.4 Z M 95.7 341.1 C 95.7 336.9 97.9 333.5 101.6 333.5 C 105.4 333.5 107.3 336.9 107.3 341.2 C 107.34 341.18 107.3 341.8 107.3 341.8 C 107.3 341.8 97.95 341.84 97.9 341.8 C 98 344.7 99.5 346.9 102.1 346.9 C 103.4 346.9 104.7 346.3 105.6 345.2 C 105.6 345.2 106.7 346.4 106.7 346.4 C 105.5 347.9 103.9 348.7 101.9 348.7 C 98.1 348.7 95.7 345.6 95.7 341.1 Z M 101.6 335.3 C 99 335.3 98 338.1 97.9 340.2 C 97.9 340.2 105.2 340.2 105.2 340.2 C 105.2 338 104.2 335.3 101.6 335.3 Z M 110.9 352.2 C 110.9 352.2 109.8 351.3 109.8 351.3 C 110.8 350.6 111.6 349.5 111.7 348.5 C 111.7 348.5 111.4 348.5 111.3 348.5 C 110.5 348.5 109.9 347.9 109.9 347.1 C 109.9 346.2 110.6 345.5 111.5 345.5 C 112.4 345.5 113.3 346.3 113.3 347.7 C 113.3 349.5 112.2 351.2 110.9 352.2 Z M 121.6 346.2 C 121.6 346.2 123 344.4 123 344.4 C 124 345.6 125.7 346.6 127.6 346.6 C 130.1 346.6 131.3 345 131.3 343.3 C 131.3 338.5 122.2 339.7 122.2 333.3 C 122.2 330.2 124.6 328 128 328 C 130.2 328 132 328.8 133.3 330.1 C 133.3 330.1 132.1 331.9 132.1 331.9 C 131 330.7 129.5 330.2 127.9 330.2 C 126.1 330.2 124.7 331.4 124.7 333.2 C 124.7 337.4 133.7 336.5 133.7 343.2 C 133.7 346.1 131.8 348.7 127.6 348.7 C 125 348.7 123 347.7 121.6 346.2 Z M 144.4 348.4 C 144.4 348.4 144.42 338.03 144.4 338 C 144.4 336.1 143.5 335.4 142.1 335.4 C 140.7 335.4 139.3 336.6 138.7 337.8 C 138.69 337.76 138.7 348.4 138.7 348.4 L 136.6 348.4 L 136.6 328.4 L 138.7 328.4 C 138.7 328.4 138.69 335.96 138.7 336 C 139.5 334.7 141.2 333.5 142.9 333.5 C 145.4 333.5 146.5 334.8 146.5 337.4 C 146.55 337.4 146.5 348.4 146.5 348.4 L 144.4 348.4 Z M 149.5 341.1 C 149.5 337 151.5 333.5 155.4 333.5 C 159.3 333.5 161.3 337 161.3 341.1 C 161.3 345.2 159.3 348.7 155.4 348.7 C 151.5 348.7 149.5 345.2 149.5 341.1 Z M 159 341.1 C 159 338.2 157.9 335.4 155.4 335.4 C 152.9 335.4 151.7 338.2 151.7 341.1 C 151.7 344.1 152.9 346.8 155.4 346.8 C 157.9 346.8 159 344.1 159 341.1 Z M 163.5 341.1 C 163.5 336.9 165.7 333.5 169.4 333.5 C 173.2 333.5 175.1 336.9 175.1 341.2 C 175.11 341.18 175.1 341.8 175.1 341.8 C 175.1 341.8 165.72 341.84 165.7 341.8 C 165.8 344.7 167.3 346.9 169.9 346.9 C 171.1 346.9 172.4 346.3 173.3 345.2 C 173.3 345.2 174.5 346.4 174.5 346.4 C 173.3 347.9 171.7 348.7 169.7 348.7 C 165.8 348.7 163.5 345.6 163.5 341.1 Z M 169.3 335.3 C 166.8 335.3 165.8 338.1 165.7 340.2 C 165.7 340.2 173 340.2 173 340.2 C 172.9 338 172 335.3 169.3 335.3 Z M 184 352.4 C 184 352.4 185 350.7 185 350.7 C 185.9 351.9 187.2 352.4 188.8 352.4 C 190.7 352.4 192.4 351.3 192.4 348.5 C 192.4 348.5 192.4 346.1 192.4 346.1 C 191.5 347.5 190.1 348.6 188.6 348.6 C 185.3 348.6 183.4 345.6 183.4 341.1 C 183.4 336.6 185.3 333.5 188.6 333.5 C 190 333.5 191.5 334.4 192.4 336 C 192.39 335.99 192.4 333.9 192.4 333.9 L 194.5 333.9 C 194.5 333.9 194.55 348.35 194.5 348.3 C 194.5 352.8 191.8 354.3 188.8 354.3 C 186.9 354.3 185.4 353.8 184 352.4 Z M 192.4 344.2 C 192.4 344.2 192.4 337.8 192.4 337.8 C 191.8 336.6 190.5 335.4 189.1 335.4 C 186.7 335.4 185.6 337.9 185.6 341.1 C 185.6 344.2 186.7 346.6 189.1 346.6 C 190.5 346.6 191.8 345.5 192.4 344.2 Z M 198.2 348.4 L 198.2 328.4 L 200.3 328.4 L 200.3 348.4 L 198.2 348.4 Z M 211.8 348.4 C 211.8 348.4 211.8 346.37 211.8 346.4 C 210.9 347.6 209.4 348.7 207.6 348.7 C 205.1 348.7 204 347.5 204 344.9 C 203.97 344.87 204 333.9 204 333.9 L 206.1 333.9 C 206.1 333.9 206.1 344.24 206.1 344.2 C 206.1 346.2 207 346.8 208.4 346.8 C 209.8 346.8 211.2 345.8 211.8 344.6 C 211.8 344.57 211.8 333.9 211.8 333.9 L 214 333.9 L 214 348.4 L 211.8 348.4 Z M 216.9 341.1 C 216.9 336.9 219.1 333.5 222.8 333.5 C 226.6 333.5 228.5 336.9 228.5 341.2 C 228.51 341.18 228.5 341.8 228.5 341.8 C 228.5 341.8 219.12 341.84 219.1 341.8 C 219.2 344.7 220.7 346.9 223.3 346.9 C 224.5 346.9 225.8 346.3 226.7 345.2 C 226.7 345.2 227.9 346.4 227.9 346.4 C 226.7 347.9 225.1 348.7 223.1 348.7 C 219.2 348.7 216.9 345.6 216.9 341.1 Z M 222.7 335.3 C 220.2 335.3 219.2 338.1 219.1 340.2 C 219.1 340.2 226.4 340.2 226.4 340.2 C 226.3 338 225.4 335.3 222.7 335.3 Z " stroke="none" fill="#d3d2d2"/>  </g>  <g id="Polygon216092">    <path d="M 16 312.4 L 16 296.7 L 10.7 312.4 L 9.8 312.4 L 4.5 296.7 L 4.5 312.4 L 2.1 312.4 L 2.1 292.4 L 5.4 292.4 L 10.3 306.6 L 15.1 292.4 L 18.4 292.4 L 18.4 312.4 L 16 312.4 Z M 21.4 305.1 C 21.4 301 23.5 297.5 27.3 297.5 C 31.2 297.5 33.2 301 33.2 305.1 C 33.2 309.2 31.2 312.7 27.3 312.7 C 23.5 312.7 21.4 309.2 21.4 305.1 Z M 31 305.1 C 31 302.2 29.9 299.4 27.3 299.4 C 24.8 299.4 23.7 302.2 23.7 305.1 C 23.7 308.1 24.8 310.8 27.3 310.8 C 29.9 310.8 31 308.1 31 305.1 Z M 44.5 312.4 C 44.5 312.4 44.46 310.31 44.5 310.3 C 43.6 311.8 42.2 312.7 40.6 312.7 C 37.4 312.7 35.5 309.7 35.5 305.1 C 35.5 300.6 37.4 297.5 40.6 297.5 C 42.1 297.5 43.6 298.4 44.5 300 C 44.46 299.99 44.5 292.4 44.5 292.4 L 46.6 292.4 L 46.6 312.4 L 44.5 312.4 Z M 44.5 308.5 C 44.5 308.5 44.5 301.8 44.5 301.8 C 43.9 300.6 42.6 299.4 41.2 299.4 C 38.8 299.4 37.7 302 37.7 305.1 C 37.7 308.3 38.8 310.8 41.2 310.8 C 42.6 310.8 43.9 309.7 44.5 308.5 Z M 49.6 305.1 C 49.6 300.9 51.8 297.5 55.4 297.5 C 59.2 297.5 61.2 300.9 61.2 305.2 C 61.17 305.18 61.2 305.8 61.2 305.8 C 61.2 305.8 51.78 305.84 51.8 305.8 C 51.9 308.7 53.4 310.9 55.9 310.9 C 57.2 310.9 58.5 310.3 59.4 309.2 C 59.4 309.2 60.5 310.4 60.5 310.4 C 59.4 311.9 57.7 312.7 55.8 312.7 C 51.9 312.7 49.6 309.6 49.6 305.1 Z M 55.4 299.3 C 52.9 299.3 51.8 302.1 51.8 304.2 C 51.8 304.2 59 304.2 59 304.2 C 59 302 58 299.3 55.4 299.3 Z M 64 312.4 L 64 292.4 L 66.1 292.4 L 66.1 312.4 L 64 312.4 Z M 69.8 312.4 L 69.8 292.4 L 71.9 292.4 L 71.9 312.4 L 69.8 312.4 Z M 75.2 294.3 C 75.2 293.5 75.9 292.8 76.6 292.8 C 77.5 292.8 78.1 293.5 78.1 294.3 C 78.1 295.1 77.5 295.8 76.6 295.8 C 75.9 295.8 75.2 295.1 75.2 294.3 Z M 75.6 312.4 L 75.6 297.9 L 77.7 297.9 L 77.7 312.4 L 75.6 312.4 Z M 89.2 312.4 C 89.2 312.4 89.22 302.06 89.2 302.1 C 89.2 300.1 88.3 299.4 86.9 299.4 C 85.5 299.4 84.2 300.6 83.5 301.8 C 83.52 301.76 83.5 312.4 83.5 312.4 L 81.4 312.4 L 81.4 297.9 L 83.5 297.9 C 83.5 297.9 83.52 299.96 83.5 300 C 84.4 298.7 86 297.5 87.7 297.5 C 90.2 297.5 91.4 298.8 91.4 301.5 C 91.38 301.46 91.4 312.4 91.4 312.4 L 89.2 312.4 Z M 94.9 316.4 C 94.9 316.4 95.9 314.7 95.9 314.7 C 96.9 315.9 98.1 316.4 99.7 316.4 C 101.7 316.4 103.3 315.3 103.3 312.5 C 103.3 312.5 103.3 310.1 103.3 310.1 C 102.5 311.5 101 312.6 99.5 312.6 C 96.3 312.6 94.3 309.6 94.3 305.1 C 94.3 300.6 96.2 297.5 99.5 297.5 C 101 297.5 102.4 298.4 103.3 300 C 103.32 299.99 103.3 297.9 103.3 297.9 L 105.5 297.9 C 105.5 297.9 105.48 312.35 105.5 312.3 C 105.5 316.8 102.8 318.3 99.7 318.3 C 97.8 318.3 96.3 317.8 94.9 316.4 Z M 103.3 308.2 C 103.3 308.2 103.3 301.8 103.3 301.8 C 102.8 300.6 101.4 299.4 100 299.4 C 97.7 299.4 96.6 301.9 96.6 305.1 C 96.6 308.2 97.7 310.6 100 310.6 C 101.4 310.6 102.8 309.5 103.3 308.2 Z M 114.5 305.1 C 114.5 300.8 116.8 297.5 120.5 297.5 C 122.5 297.5 123.8 298.3 124.7 299.4 C 124.7 299.4 123.5 300.9 123.5 300.9 C 122.7 299.9 121.8 299.4 120.7 299.4 C 118.1 299.4 116.8 302 116.8 305.1 C 116.8 308.2 118.1 310.8 120.7 310.8 C 121.8 310.8 122.7 310.4 123.5 309.3 C 123.5 309.3 124.7 310.8 124.7 310.8 C 123.8 312 122.5 312.7 120.5 312.7 C 116.8 312.7 114.5 309.4 114.5 305.1 Z M 127.1 312.4 L 127.1 292.4 L 129.3 292.4 L 129.3 312.4 L 127.1 312.4 Z M 140.4 312.4 C 140.4 312.4 140.37 310.82 140.4 310.8 C 139.4 312.1 138 312.7 136.6 312.7 C 134.2 312.7 132.2 310.9 132.2 307.9 C 132.2 304.9 134.2 303.1 136.6 303.1 C 138 303.1 139.5 303.7 140.4 305 C 140.4 305 140.4 302.5 140.4 302.5 C 140.4 300.5 139.3 299.4 137.4 299.4 C 136 299.4 134.9 299.9 133.8 301.2 C 133.8 301.2 132.8 299.6 132.8 299.6 C 134.2 298.2 135.9 297.5 137.7 297.5 C 140.6 297.5 142.5 298.9 142.5 302.2 C 142.53 302.24 142.5 312.4 142.5 312.4 L 140.4 312.4 Z M 140.4 309.3 C 140.4 309.3 140.4 306.6 140.4 306.6 C 139.7 305.4 138.5 304.7 137.2 304.7 C 135.4 304.7 134.4 306.1 134.4 307.9 C 134.4 309.7 135.4 311.2 137.2 311.2 C 138.5 311.2 139.7 310.5 140.4 309.3 Z M 145.7 316.1 C 146 316.3 146.5 316.3 146.7 316.3 C 147.5 316.3 148 316 148.4 314.9 C 148.41 314.9 149.2 312.7 149.2 312.7 L 144.4 297.9 L 146.7 297.9 L 150.3 309.8 L 153.9 297.9 L 156.2 297.9 C 156.2 297.9 150.45 315.44 150.4 315.4 C 149.7 317.5 148.6 318.3 146.8 318.3 C 146.4 318.3 145.7 318.2 145.4 318 C 145.4 318 145.7 316.1 145.7 316.1 Z " stroke="none" fill="#d3d2d2"/>  </g>  <g id="Polygon216091">    <path d="M 2.1 276.4 L 2.1 256.4 L 12.4 256.4 L 12.4 258.5 L 4.5 258.5 L 4.5 265.1 L 12.2 265.1 L 12.2 267.2 L 4.5 267.2 L 4.5 274.2 L 12.4 274.2 L 12.4 276.4 L 2.1 276.4 Z M 22.9 276.4 L 19.6 270.6 L 16.3 276.4 L 13.9 276.4 L 18.3 269 L 14.1 261.9 L 16.5 261.9 L 19.6 267.4 L 22.7 261.9 L 25.1 261.9 L 20.9 269 L 25.3 276.4 L 22.9 276.4 Z M 27.8 273.5 C 27.81 273.47 27.8 263.8 27.8 263.8 L 25.9 263.8 L 25.9 261.9 L 27.8 261.9 L 27.8 257.9 L 30 257.9 L 30 261.9 L 32.4 261.9 L 32.4 263.8 L 30 263.8 C 30 263.8 29.97 273.08 30 273.1 C 30 274.2 30.3 274.8 31.1 274.8 C 31.7 274.8 32.1 274.6 32.4 274.2 C 32.4 274.2 33.1 275.9 33.1 275.9 C 32.5 276.4 31.8 276.7 30.7 276.7 C 28.7 276.7 27.8 275.6 27.8 273.5 Z M 35 276.4 L 35 261.9 L 37.1 261.9 C 37.1 261.9 37.11 264.2 37.1 264.2 C 38 262.7 39.4 261.6 41.2 261.6 C 41.2 261.6 41.2 263.8 41.2 263.8 C 41 263.7 40.7 263.7 40.5 263.7 C 39.2 263.7 37.7 264.9 37.1 266.1 C 37.11 266.09 37.1 276.4 37.1 276.4 L 35 276.4 Z M 51.2 276.4 C 51.2 276.4 51.24 274.37 51.2 274.4 C 50.4 275.6 48.8 276.7 47 276.7 C 44.6 276.7 43.4 275.5 43.4 272.9 C 43.41 272.87 43.4 261.9 43.4 261.9 L 45.5 261.9 C 45.5 261.9 45.54 272.24 45.5 272.2 C 45.5 274.2 46.4 274.8 47.8 274.8 C 49.3 274.8 50.6 273.8 51.2 272.6 C 51.24 272.57 51.2 261.9 51.2 261.9 L 53.4 261.9 L 53.4 276.4 L 51.2 276.4 Z M 65.3 276.4 C 65.3 276.4 65.34 274.31 65.3 274.3 C 64.5 275.8 63.1 276.7 61.5 276.7 C 58.3 276.7 56.3 273.7 56.3 269.1 C 56.3 264.6 58.3 261.5 61.5 261.5 C 63 261.5 64.5 262.4 65.3 264 C 65.34 263.99 65.3 256.4 65.3 256.4 L 67.5 256.4 L 67.5 276.4 L 65.3 276.4 Z M 65.3 272.5 C 65.3 272.5 65.3 265.8 65.3 265.8 C 64.8 264.6 63.4 263.4 62.1 263.4 C 59.7 263.4 58.6 266 58.6 269.1 C 58.6 272.3 59.7 274.8 62.1 274.8 C 63.4 274.8 64.8 273.7 65.3 272.5 Z M 70.4 269.1 C 70.4 264.9 72.7 261.5 76.3 261.5 C 80.1 261.5 82 264.9 82 269.2 C 82.05 269.18 82 269.8 82 269.8 C 82 269.8 72.66 269.84 72.7 269.8 C 72.7 272.7 74.2 274.9 76.8 274.9 C 78.1 274.9 79.4 274.3 80.3 273.2 C 80.3 273.2 81.4 274.4 81.4 274.4 C 80.2 275.9 78.6 276.7 76.6 276.7 C 72.8 276.7 70.4 273.6 70.4 269.1 Z M 76.3 263.3 C 73.7 263.3 72.7 266.1 72.7 268.2 C 72.7 268.2 79.9 268.2 79.9 268.2 C 79.9 266 78.9 263.3 76.3 263.3 Z M 93.2 276.4 C 93.2 276.4 93.18 274.31 93.2 274.3 C 92.3 275.8 90.9 276.7 89.4 276.7 C 86.1 276.7 84.2 273.7 84.2 269.1 C 84.2 264.6 86.1 261.5 89.4 261.5 C 90.8 261.5 92.3 262.4 93.2 264 C 93.18 263.99 93.2 256.4 93.2 256.4 L 95.3 256.4 L 95.3 276.4 L 93.2 276.4 Z M 93.2 272.5 C 93.2 272.5 93.2 265.8 93.2 265.8 C 92.6 264.6 91.3 263.4 89.9 263.4 C 87.5 263.4 86.4 266 86.4 269.1 C 86.4 272.3 87.5 274.8 89.9 274.8 C 91.3 274.8 92.6 273.7 93.2 272.5 Z M 107.3 274.3 C 107.28 274.28 107.3 281.9 107.3 281.9 L 105.1 281.9 L 105.1 261.9 L 107.3 261.9 C 107.3 261.9 107.28 263.96 107.3 264 C 108.1 262.5 109.6 261.5 111.1 261.5 C 114.4 261.5 116.3 264.6 116.3 269.1 C 116.3 273.6 114.4 276.7 111.1 276.7 C 109.6 276.7 108.2 275.9 107.3 274.3 Z M 114 269.1 C 114 266 112.9 263.4 110.5 263.4 C 109.2 263.4 107.8 264.5 107.3 265.8 C 107.3 265.8 107.3 272.4 107.3 272.4 C 107.8 273.7 109.2 274.8 110.5 274.8 C 112.9 274.8 114 272.3 114 269.1 Z M 118.5 269.1 C 118.5 265 120.5 261.5 124.3 261.5 C 128.2 261.5 130.3 265 130.3 269.1 C 130.3 273.2 128.2 276.7 124.3 276.7 C 120.5 276.7 118.5 273.2 118.5 269.1 Z M 128 269.1 C 128 266.2 126.9 263.4 124.3 263.4 C 121.9 263.4 120.7 266.2 120.7 269.1 C 120.7 272.1 121.9 274.8 124.3 274.8 C 126.9 274.8 128 272.1 128 269.1 Z M 133.2 276.4 L 133.2 256.4 L 135.3 256.4 L 135.3 276.4 L 133.2 276.4 Z M 138.6 280.1 C 138.8 280.3 139.3 280.3 139.5 280.3 C 140.4 280.3 140.8 280 141.2 278.9 C 141.24 278.9 142 276.7 142 276.7 L 137.2 261.9 L 139.5 261.9 L 143.1 273.8 L 146.8 261.9 L 149.1 261.9 C 149.1 261.9 143.28 279.44 143.3 279.4 C 142.6 281.5 141.4 282.3 139.7 282.3 C 139.2 282.3 138.6 282.2 138.2 282 C 138.2 282 138.6 280.1 138.6 280.1 Z M 149.8 274.7 C 149.8 274.7 150.8 273.2 150.8 273.2 C 151.7 274.2 153.1 275 154.6 275 C 156.3 275 157.4 274 157.4 272.7 C 157.4 269.3 150.2 270.4 150.2 265.4 C 150.2 263.3 151.9 261.5 154.8 261.5 C 156.7 261.5 158.2 262.3 159.2 263.4 C 159.2 263.4 158.2 264.9 158.2 264.9 C 157.5 263.9 156.2 263.3 154.8 263.3 C 153.2 263.3 152.2 264.2 152.2 265.4 C 152.2 268.5 159.5 267.4 159.5 272.6 C 159.5 275 157.6 276.7 154.6 276.7 C 152.6 276.7 151 276.1 149.8 274.7 Z M 162.7 273.5 C 162.66 273.47 162.7 263.8 162.7 263.8 L 160.7 263.8 L 160.7 261.9 L 162.7 261.9 L 162.7 257.9 L 164.8 257.9 L 164.8 261.9 L 167.3 261.9 L 167.3 263.8 L 164.8 263.8 C 164.8 263.8 164.82 273.08 164.8 273.1 C 164.8 274.2 165.1 274.8 166 274.8 C 166.5 274.8 167 274.6 167.2 274.2 C 167.2 274.2 167.9 275.9 167.9 275.9 C 167.4 276.4 166.7 276.7 165.6 276.7 C 163.6 276.7 162.7 275.6 162.7 273.5 Z M 169.4 280.1 C 169.7 280.3 170.1 280.3 170.4 280.3 C 171.2 280.3 171.7 280 172.1 278.9 C 172.08 278.9 172.9 276.7 172.9 276.7 L 168 261.9 L 170.4 261.9 L 174 273.8 L 177.6 261.9 L 179.9 261.9 C 179.9 261.9 174.12 279.44 174.1 279.4 C 173.4 281.5 172.2 282.3 170.5 282.3 C 170.1 282.3 169.4 282.2 169.1 282 C 169.1 282 169.4 280.1 169.4 280.1 Z M 181.8 276.4 L 181.8 261.9 L 183.9 261.9 C 183.9 261.9 183.9 264.2 183.9 264.2 C 184.8 262.7 186.2 261.6 188 261.6 C 188 261.6 188 263.8 188 263.8 C 187.8 263.7 187.5 263.7 187.3 263.7 C 186 263.7 184.5 264.9 183.9 266.1 C 183.9 266.09 183.9 276.4 183.9 276.4 L 181.8 276.4 Z M 189.5 269.1 C 189.5 264.9 191.7 261.5 195.4 261.5 C 199.2 261.5 201.1 264.9 201.1 269.2 C 201.09 269.18 201.1 269.8 201.1 269.8 C 201.1 269.8 191.7 269.84 191.7 269.8 C 191.8 272.7 193.3 274.9 195.9 274.9 C 197.1 274.9 198.4 274.3 199.3 273.2 C 199.3 273.2 200.5 274.4 200.5 274.4 C 199.3 275.9 197.6 276.7 195.7 276.7 C 191.8 276.7 189.5 273.6 189.5 269.1 Z M 195.3 263.3 C 192.8 263.3 191.8 266.1 191.7 268.2 C 191.7 268.2 199 268.2 199 268.2 C 198.9 266 198 263.3 195.3 263.3 Z M 211.8 276.4 C 211.8 276.4 211.77 266.06 211.8 266.1 C 211.8 264.1 210.9 263.4 209.5 263.4 C 208 263.4 206.7 264.6 206.1 265.8 C 206.07 265.76 206.1 276.4 206.1 276.4 L 203.9 276.4 L 203.9 261.9 L 206.1 261.9 C 206.1 261.9 206.07 263.96 206.1 264 C 206.9 262.7 208.5 261.5 210.3 261.5 C 212.7 261.5 213.9 262.8 213.9 265.5 C 213.93 265.46 213.9 276.4 213.9 276.4 L 211.8 276.4 Z M 216.9 269.1 C 216.9 264.9 219.1 261.5 222.7 261.5 C 226.6 261.5 228.5 264.9 228.5 269.2 C 228.47 269.18 228.5 269.8 228.5 269.8 C 228.5 269.8 219.08 269.84 219.1 269.8 C 219.2 272.7 220.7 274.9 223.3 274.9 C 224.5 274.9 225.8 274.3 226.7 273.2 C 226.7 273.2 227.8 274.4 227.8 274.4 C 226.7 275.9 225 276.7 223.1 276.7 C 219.2 276.7 216.9 273.6 216.9 269.1 Z M 222.7 263.3 C 220.2 263.3 219.1 266.1 219.1 268.2 C 219.1 268.2 226.3 268.2 226.3 268.2 C 226.3 266 225.4 263.3 222.7 263.3 Z " stroke="none" fill="#d3d2d2"/>  </g>  <g id="Polygon216090">    <path d="M 1.4 230.4 C 1.4 224.4 4.4 220 9.2 220 C 12.2 220 13.9 221.9 15 223.9 C 15 223.9 13 224.9 13 224.9 C 12.2 223.2 10.9 222.2 9.2 222.2 C 5.9 222.2 3.9 225.6 3.9 230.4 C 3.9 235.1 5.9 238.6 9.2 238.6 C 11 238.6 12.3 237.3 13.1 235.6 C 13.1 235.6 15.1 236.6 15.1 236.6 C 14 238.8 12.3 240.7 9.2 240.7 C 4.4 240.7 1.4 236.4 1.4 230.4 Z M 16.9 233.1 C 16.9 228.9 19.2 225.5 22.8 225.5 C 26.6 225.5 28.6 228.9 28.6 233.2 C 28.56 233.18 28.6 233.8 28.6 233.8 C 28.6 233.8 19.17 233.84 19.2 233.8 C 19.3 236.7 20.8 238.9 23.3 238.9 C 24.6 238.9 25.9 238.3 26.8 237.2 C 26.8 237.2 27.9 238.4 27.9 238.4 C 26.8 239.9 25.1 240.7 23.2 240.7 C 19.3 240.7 16.9 237.6 16.9 233.1 Z M 22.8 227.3 C 20.2 227.3 19.2 230.1 19.2 232.2 C 19.2 232.2 26.4 232.2 26.4 232.2 C 26.4 230 25.4 227.3 22.8 227.3 Z M 31.4 240.4 L 31.4 220.4 L 33.5 220.4 L 33.5 240.4 L 31.4 240.4 Z M 37.2 240.4 L 37.2 220.4 L 39.3 220.4 L 39.3 240.4 L 37.2 240.4 Z M 50.8 240.4 C 50.8 240.4 50.82 238.37 50.8 238.4 C 49.9 239.6 48.4 240.7 46.6 240.7 C 44.2 240.7 43 239.5 43 236.9 C 42.99 236.87 43 225.9 43 225.9 L 45.1 225.9 C 45.1 225.9 45.12 236.24 45.1 236.2 C 45.1 238.2 46 238.8 47.4 238.8 C 48.9 238.8 50.2 237.8 50.8 236.6 C 50.82 236.57 50.8 225.9 50.8 225.9 L 53 225.9 L 53 240.4 L 50.8 240.4 Z M 56.6 240.4 L 56.6 220.4 L 58.8 220.4 L 58.8 240.4 L 56.6 240.4 Z M 61.7 233.1 C 61.7 229 63.7 225.5 67.6 225.5 C 71.5 225.5 73.5 229 73.5 233.1 C 73.5 237.2 71.5 240.7 67.6 240.7 C 63.7 240.7 61.7 237.2 61.7 233.1 Z M 71.2 233.1 C 71.2 230.2 70.1 227.4 67.6 227.4 C 65.1 227.4 64 230.2 64 233.1 C 64 236.1 65.1 238.8 67.6 238.8 C 70.1 238.8 71.2 236.1 71.2 233.1 Z M 75.3 238.7 C 75.3 238.7 76.3 237.2 76.3 237.2 C 77.2 238.2 78.6 239 80.1 239 C 81.8 239 82.9 238 82.9 236.7 C 82.9 233.3 75.7 234.4 75.7 229.4 C 75.7 227.3 77.4 225.5 80.3 225.5 C 82.2 225.5 83.7 226.3 84.7 227.4 C 84.7 227.4 83.7 228.9 83.7 228.9 C 83 227.9 81.7 227.3 80.3 227.3 C 78.7 227.3 77.8 228.2 77.8 229.4 C 77.8 232.5 85 231.4 85 236.6 C 85 239 83.1 240.7 80.2 240.7 C 78.1 240.7 76.5 240.1 75.3 238.7 Z M 87 233.1 C 87 228.9 89.2 225.5 92.9 225.5 C 96.7 225.5 98.6 228.9 98.6 233.2 C 98.64 233.18 98.6 233.8 98.6 233.8 C 98.6 233.8 89.25 233.84 89.2 233.8 C 89.3 236.7 90.8 238.9 93.4 238.9 C 94.7 238.9 96 238.3 96.9 237.2 C 96.9 237.2 98 238.4 98 238.4 C 96.8 239.9 95.2 240.7 93.2 240.7 C 89.4 240.7 87 237.6 87 233.1 Z M 92.9 227.3 C 90.3 227.3 89.3 230.1 89.2 232.2 C 89.2 232.2 96.5 232.2 96.5 232.2 C 96.5 230 95.5 227.3 92.9 227.3 Z M 102.2 244.2 C 102.2 244.2 101.1 243.3 101.1 243.3 C 102.1 242.6 102.9 241.5 103 240.5 C 103 240.5 102.7 240.5 102.6 240.5 C 101.8 240.5 101.2 239.9 101.2 239.1 C 101.2 238.2 101.9 237.5 102.8 237.5 C 103.7 237.5 104.6 238.3 104.6 239.7 C 104.6 241.5 103.5 243.2 102.2 244.2 Z M 114.2 240.4 L 114.2 220.4 C 114.2 220.4 120.27 220.37 120.3 220.4 C 123.9 220.4 125.8 223.1 125.8 226.4 C 125.8 229.6 123.9 232.4 120.3 232.4 C 120.27 232.37 116.6 232.4 116.6 232.4 L 116.6 240.4 L 114.2 240.4 Z M 123.3 226.4 C 123.3 224.1 122.1 222.5 120 222.5 C 120.03 222.47 116.6 222.5 116.6 222.5 L 116.6 230.3 C 116.6 230.3 120.03 230.27 120 230.3 C 122.1 230.3 123.3 228.6 123.3 226.4 Z M 135.2 240.4 C 135.2 240.4 135.24 238.82 135.2 238.8 C 134.3 240.1 132.9 240.7 131.4 240.7 C 129.1 240.7 127 238.9 127 235.9 C 127 232.9 129.1 231.1 131.4 231.1 C 132.9 231.1 134.3 231.7 135.2 233 C 135.2 233 135.2 230.5 135.2 230.5 C 135.2 228.5 134.2 227.4 132.3 227.4 C 130.9 227.4 129.7 227.9 128.6 229.2 C 128.6 229.2 127.7 227.6 127.7 227.6 C 129.1 226.2 130.8 225.5 132.6 225.5 C 135.5 225.5 137.4 226.9 137.4 230.2 C 137.4 230.24 137.4 240.4 137.4 240.4 L 135.2 240.4 Z M 135.2 237.3 C 135.2 237.3 135.2 234.6 135.2 234.6 C 134.6 233.4 133.4 232.7 132.1 232.7 C 130.3 232.7 129.2 234.1 129.2 235.9 C 129.2 237.7 130.3 239.2 132.1 239.2 C 133.4 239.2 134.6 238.5 135.2 237.3 Z M 143.2 238.3 C 143.16 238.28 143.2 245.9 143.2 245.9 L 141 245.9 L 141 225.9 L 143.2 225.9 C 143.2 225.9 143.16 227.96 143.2 228 C 144 226.5 145.4 225.5 147 225.5 C 150.2 225.5 152.2 228.6 152.2 233.1 C 152.2 237.6 150.2 240.7 147 240.7 C 145.5 240.7 144.1 239.9 143.2 238.3 Z M 149.9 233.1 C 149.9 230 148.8 227.4 146.4 227.4 C 145.1 227.4 143.7 228.5 143.2 229.8 C 143.2 229.8 143.2 236.4 143.2 236.4 C 143.7 237.7 145.1 238.8 146.4 238.8 C 148.8 238.8 149.9 236.3 149.9 233.1 Z M 154.3 233.1 C 154.3 228.9 156.6 225.5 160.2 225.5 C 164 225.5 166 228.9 166 233.2 C 165.96 233.18 166 233.8 166 233.8 C 166 233.8 156.57 233.84 156.6 233.8 C 156.7 236.7 158.2 238.9 160.7 238.9 C 162 238.9 163.3 238.3 164.2 237.2 C 164.2 237.2 165.3 238.4 165.3 238.4 C 164.2 239.9 162.5 240.7 160.6 240.7 C 156.7 240.7 154.3 237.6 154.3 233.1 Z M 160.2 227.3 C 157.6 227.3 156.6 230.1 156.6 232.2 C 156.6 232.2 163.8 232.2 163.8 232.2 C 163.8 230 162.8 227.3 160.2 227.3 Z M 168.8 240.4 L 168.8 225.9 L 170.9 225.9 C 170.9 225.9 170.94 228.2 170.9 228.2 C 171.9 226.7 173.3 225.6 175 225.6 C 175 225.6 175 227.8 175 227.8 C 174.8 227.7 174.6 227.7 174.3 227.7 C 173 227.7 171.5 228.9 170.9 230.1 C 170.94 230.09 170.9 240.4 170.9 240.4 L 168.8 240.4 Z M 185.5 238.3 C 185.52 238.28 185.5 245.9 185.5 245.9 L 183.4 245.9 L 183.4 225.9 L 185.5 225.9 C 185.5 225.9 185.52 227.96 185.5 228 C 186.4 226.5 187.8 225.5 189.3 225.5 C 192.6 225.5 194.5 228.6 194.5 233.1 C 194.5 237.6 192.6 240.7 189.3 240.7 C 187.9 240.7 186.4 239.9 185.5 238.3 Z M 192.3 233.1 C 192.3 230 191.2 227.4 188.8 227.4 C 187.4 227.4 186.1 228.5 185.5 229.8 C 185.5 229.8 185.5 236.4 185.5 236.4 C 186.1 237.7 187.4 238.8 188.8 238.8 C 191.2 238.8 192.3 236.3 192.3 233.1 Z M 205.3 240.4 C 205.3 240.4 205.26 238.37 205.3 238.4 C 204.4 239.6 202.9 240.7 201.1 240.7 C 198.6 240.7 197.4 239.5 197.4 236.9 C 197.43 236.87 197.4 225.9 197.4 225.9 L 199.6 225.9 C 199.6 225.9 199.56 236.24 199.6 236.2 C 199.6 238.2 200.5 238.8 201.9 238.8 C 203.3 238.8 204.6 237.8 205.3 236.6 C 205.26 236.57 205.3 225.9 205.3 225.9 L 207.4 225.9 L 207.4 240.4 L 205.3 240.4 Z M 211.1 240.4 L 211.1 220.4 L 213.2 220.4 L 213.2 240.4 L 211.1 240.4 Z M 219 238.3 C 219 238.28 219 245.9 219 245.9 L 216.9 245.9 L 216.9 225.9 L 219 225.9 C 219 225.9 219 227.96 219 228 C 219.8 226.5 221.3 225.5 222.8 225.5 C 226.1 225.5 228 228.6 228 233.1 C 228 237.6 226.1 240.7 222.8 240.7 C 221.3 240.7 219.9 239.9 219 238.3 Z M 225.7 233.1 C 225.7 230 224.6 227.4 222.3 227.4 C 220.9 227.4 219.6 228.5 219 229.8 C 219 229.8 219 236.4 219 236.4 C 219.6 237.7 220.9 238.8 222.3 238.8 C 224.6 238.8 225.7 236.3 225.7 233.1 Z " stroke="none" fill="#d3d2d2"/>  </g>  <g id="Polygon216089">    <path d="M 12.5 204.4 L 11.2 199.8 L 4.1 199.8 L 2.8 204.4 L 0.2 204.4 L 6.2 184.4 L 9.1 184.4 L 15.1 204.4 L 12.5 204.4 Z M 7.6 187 L 4.6 197.7 L 10.7 197.7 L 7.6 187 Z M 17 204.4 L 17 189.9 L 19.1 189.9 C 19.1 189.9 19.14 192.2 19.1 192.2 C 20.1 190.7 21.5 189.6 23.2 189.6 C 23.2 189.6 23.2 191.8 23.2 191.8 C 23 191.7 22.8 191.7 22.5 191.7 C 21.2 191.7 19.7 192.9 19.1 194.1 C 19.14 194.09 19.1 204.4 19.1 204.4 L 17 204.4 Z M 25.9 201.5 C 25.86 201.47 25.9 191.8 25.9 191.8 L 23.9 191.8 L 23.9 189.9 L 25.9 189.9 L 25.9 185.9 L 28 185.9 L 28 189.9 L 30.5 189.9 L 30.5 191.8 L 28 191.8 C 28 191.8 28.02 201.08 28 201.1 C 28 202.2 28.3 202.8 29.2 202.8 C 29.7 202.8 30.2 202.6 30.4 202.2 C 30.4 202.2 31.1 203.9 31.1 203.9 C 30.6 204.4 29.9 204.7 28.8 204.7 C 26.8 204.7 25.9 203.6 25.9 201.5 Z M 32.6 186.3 C 32.6 185.5 33.3 184.8 34.1 184.8 C 34.9 184.8 35.5 185.5 35.5 186.3 C 35.5 187.1 34.9 187.8 34.1 187.8 C 33.3 187.8 32.6 187.1 32.6 186.3 Z M 33 204.4 L 33 189.9 L 35.2 189.9 L 35.2 204.4 L 33 204.4 Z M 39.3 204.4 L 39.3 191.8 L 37.4 191.8 L 37.4 189.9 L 39.3 189.9 C 39.3 189.9 39.33 188.12 39.3 188.1 C 39.3 185.6 40.8 184.1 42.9 184.1 C 43.6 184.1 44.2 184.2 44.7 184.5 C 44.7 184.5 44.2 186.2 44.2 186.2 C 43.9 186 43.6 185.9 43.2 185.9 C 42.1 185.9 41.5 186.7 41.5 188.1 C 41.49 188.12 41.5 189.9 41.5 189.9 L 43.9 189.9 L 43.9 191.8 L 41.5 191.8 L 41.5 204.4 L 39.3 204.4 Z M 46 186.3 C 46 185.5 46.7 184.8 47.5 184.8 C 48.3 184.8 49 185.5 49 186.3 C 49 187.1 48.3 187.8 47.5 187.8 C 46.7 187.8 46 187.1 46 186.3 Z M 46.4 204.4 L 46.4 189.9 L 48.6 189.9 L 48.6 204.4 L 46.4 204.4 Z M 51.5 197.1 C 51.5 192.8 53.8 189.5 57.5 189.5 C 59.5 189.5 60.7 190.3 61.6 191.4 C 61.6 191.4 60.5 192.9 60.5 192.9 C 59.7 191.9 58.8 191.4 57.7 191.4 C 55.1 191.4 53.8 194 53.8 197.1 C 53.8 200.2 55.1 202.8 57.7 202.8 C 58.8 202.8 59.7 202.4 60.5 201.3 C 60.5 201.3 61.6 202.8 61.6 202.8 C 60.7 204 59.5 204.7 57.5 204.7 C 53.8 204.7 51.5 201.4 51.5 197.1 Z M 63.7 186.3 C 63.7 185.5 64.4 184.8 65.2 184.8 C 66 184.8 66.6 185.5 66.6 186.3 C 66.6 187.1 66 187.8 65.2 187.8 C 64.4 187.8 63.7 187.1 63.7 186.3 Z M 64.1 204.4 L 64.1 189.9 L 66.2 189.9 L 66.2 204.4 L 64.1 204.4 Z M 77.3 204.4 C 77.3 204.4 77.34 202.82 77.3 202.8 C 76.4 204.1 75 204.7 73.5 204.7 C 71.2 204.7 69.1 202.9 69.1 199.9 C 69.1 196.9 71.2 195.1 73.5 195.1 C 75 195.1 76.4 195.7 77.3 197 C 77.3 197 77.3 194.5 77.3 194.5 C 77.3 192.5 76.3 191.4 74.4 191.4 C 73 191.4 71.8 191.9 70.7 193.2 C 70.7 193.2 69.8 191.6 69.8 191.6 C 71.2 190.2 72.9 189.5 74.7 189.5 C 77.6 189.5 79.5 190.9 79.5 194.2 C 79.5 194.24 79.5 204.4 79.5 204.4 L 77.3 204.4 Z M 77.3 201.3 C 77.3 201.3 77.3 198.6 77.3 198.6 C 76.7 197.4 75.5 196.7 74.2 196.7 C 72.4 196.7 71.3 198.1 71.3 199.9 C 71.3 201.7 72.4 203.2 74.2 203.2 C 75.5 203.2 76.7 202.5 77.3 201.3 Z M 83.1 204.4 L 83.1 184.4 L 85.3 184.4 L 85.3 204.4 L 83.1 204.4 Z M 103.3 204.4 C 103.3 204.4 103.35 202.31 103.3 202.3 C 102.5 203.8 101.1 204.7 99.5 204.7 C 96.3 204.7 94.3 201.7 94.3 197.1 C 94.3 192.6 96.3 189.5 99.5 189.5 C 101 189.5 102.5 190.4 103.3 192 C 103.35 191.99 103.3 184.4 103.3 184.4 L 105.5 184.4 L 105.5 204.4 L 103.3 204.4 Z M 103.3 200.5 C 103.3 200.5 103.3 193.8 103.3 193.8 C 102.8 192.6 101.5 191.4 100.1 191.4 C 97.7 191.4 96.6 194 96.6 197.1 C 96.6 200.3 97.7 202.8 100.1 202.8 C 101.5 202.8 102.8 201.7 103.3 200.5 Z M 108.7 208.1 C 109 208.3 109.5 208.3 109.7 208.3 C 110.5 208.3 111 208 111.4 206.9 C 111.42 206.9 112.2 204.7 112.2 204.7 L 107.4 189.9 L 109.7 189.9 L 113.3 201.8 L 116.9 189.9 L 119.2 189.9 C 119.2 189.9 113.46 207.44 113.5 207.4 C 112.7 209.5 111.6 210.3 109.9 210.3 C 109.4 210.3 108.7 210.2 108.4 210 C 108.4 210 108.7 208.1 108.7 208.1 Z M 120.4 197.1 C 120.4 192.9 122.6 189.5 126.3 189.5 C 130.1 189.5 132 192.9 132 197.2 C 132 197.18 132 197.8 132 197.8 C 132 197.8 122.61 197.84 122.6 197.8 C 122.7 200.7 124.2 202.9 126.8 202.9 C 128 202.9 129.3 202.3 130.2 201.2 C 130.2 201.2 131.4 202.4 131.4 202.4 C 130.2 203.9 128.5 204.7 126.6 204.7 C 122.7 204.7 120.4 201.6 120.4 197.1 Z M 126.2 191.3 C 123.7 191.3 122.7 194.1 122.6 196.2 C 122.6 196.2 129.9 196.2 129.9 196.2 C 129.8 194 128.9 191.3 126.2 191.3 Z M 135.5 208.2 C 135.5 208.2 134.5 207.3 134.5 207.3 C 135.4 206.6 136.3 205.5 136.4 204.5 C 136.3 204.5 136.1 204.5 136 204.5 C 135.2 204.5 134.6 203.9 134.6 203.1 C 134.6 202.2 135.2 201.5 136.1 201.5 C 137.1 201.5 137.9 202.3 137.9 203.7 C 137.9 205.5 136.9 207.2 135.5 208.2 Z M 151.7 204.4 L 151.7 195.9 L 145.6 184.4 L 148.2 184.4 L 152.9 193.6 L 157.6 184.4 L 160.3 184.4 L 154.1 195.9 L 154.1 204.4 L 151.7 204.4 Z M 158.6 197.1 C 158.6 192.9 160.8 189.5 164.5 189.5 C 168.3 189.5 170.2 192.9 170.2 197.2 C 170.22 197.18 170.2 197.8 170.2 197.8 C 170.2 197.8 160.83 197.84 160.8 197.8 C 160.9 200.7 162.4 202.9 165 202.9 C 166.3 202.9 167.5 202.3 168.4 201.2 C 168.4 201.2 169.6 202.4 169.6 202.4 C 168.4 203.9 166.8 204.7 164.8 204.7 C 160.9 204.7 158.6 201.6 158.6 197.1 Z M 164.5 191.3 C 161.9 191.3 160.9 194.1 160.8 196.2 C 160.8 196.2 168.1 196.2 168.1 196.2 C 168.1 194 167.1 191.3 164.5 191.3 Z M 173.1 204.4 L 173.1 184.4 L 175.2 184.4 L 175.2 204.4 L 173.1 204.4 Z M 178.9 204.4 L 178.9 184.4 L 181 184.4 L 181 204.4 L 178.9 204.4 Z M 183.9 197.1 C 183.9 193 186 189.5 189.8 189.5 C 193.7 189.5 195.7 193 195.7 197.1 C 195.7 201.2 193.7 204.7 189.8 204.7 C 186 204.7 183.9 201.2 183.9 197.1 Z M 193.5 197.1 C 193.5 194.2 192.4 191.4 189.8 191.4 C 187.3 191.4 186.2 194.2 186.2 197.1 C 186.2 200.1 187.3 202.8 189.8 202.8 C 192.4 202.8 193.5 200.1 193.5 197.1 Z M 209.3 204.4 L 206.2 192.7 L 203.1 204.4 L 200.9 204.4 L 197.1 189.9 L 199.3 189.9 L 202.1 201.5 L 205.2 189.9 L 207.2 189.9 L 210.3 201.5 L 213.2 189.9 L 215.4 189.9 L 211.6 204.4 L 209.3 204.4 Z M 223.2 201.5 C 223.2 201.5 224.8 200 224.8 200 C 225.8 201.7 227.1 202.6 229 202.6 C 231.2 202.6 232.6 200.6 232.6 198.3 C 232.6 195.4 231.3 193.8 229.2 193.8 C 227.8 193.8 226.7 194.4 225.6 195.7 C 225.56 195.71 223.8 195.1 223.8 195.1 L 223.8 184.4 L 234 184.4 L 234 186.5 L 226.2 186.5 C 226.2 186.5 226.16 193.49 226.2 193.5 C 226.9 192.5 228.3 191.7 229.9 191.7 C 232.7 191.7 235 194 235 198.2 C 235 202 232.6 204.7 229.1 204.7 C 226.2 204.7 224.5 203.5 223.2 201.5 Z " stroke="none" fill="#d3d2d2"/>  </g>  <g id="Polygon216088">    <path d="M 12.5 168.4 L 11.2 163.8 L 4.1 163.8 L 2.8 168.4 L 0.2 168.4 L 6.2 148.4 L 9.1 148.4 L 15.1 168.4 L 12.5 168.4 Z M 7.6 151 L 4.6 161.7 L 10.7 161.7 L 7.6 151 Z M 17 168.4 L 17 153.9 L 19.1 153.9 C 19.1 153.9 19.14 156.2 19.1 156.2 C 20.1 154.7 21.5 153.6 23.2 153.6 C 23.2 153.6 23.2 155.8 23.2 155.8 C 23 155.7 22.8 155.7 22.5 155.7 C 21.2 155.7 19.7 156.9 19.1 158.1 C 19.14 158.09 19.1 168.4 19.1 168.4 L 17 168.4 Z M 25.9 165.5 C 25.86 165.47 25.9 155.8 25.9 155.8 L 23.9 155.8 L 23.9 153.9 L 25.9 153.9 L 25.9 149.9 L 28 149.9 L 28 153.9 L 30.5 153.9 L 30.5 155.8 L 28 155.8 C 28 155.8 28.02 165.08 28 165.1 C 28 166.2 28.3 166.8 29.2 166.8 C 29.7 166.8 30.2 166.6 30.4 166.2 C 30.4 166.2 31.1 167.9 31.1 167.9 C 30.6 168.4 29.9 168.7 28.8 168.7 C 26.8 168.7 25.9 167.6 25.9 165.5 Z M 32.6 150.3 C 32.6 149.5 33.3 148.8 34.1 148.8 C 34.9 148.8 35.5 149.5 35.5 150.3 C 35.5 151.1 34.9 151.8 34.1 151.8 C 33.3 151.8 32.6 151.1 32.6 150.3 Z M 33 168.4 L 33 153.9 L 35.2 153.9 L 35.2 168.4 L 33 168.4 Z M 39.3 168.4 L 39.3 155.8 L 37.4 155.8 L 37.4 153.9 L 39.3 153.9 C 39.3 153.9 39.33 152.12 39.3 152.1 C 39.3 149.6 40.8 148.1 42.9 148.1 C 43.6 148.1 44.2 148.2 44.7 148.5 C 44.7 148.5 44.2 150.2 44.2 150.2 C 43.9 150 43.6 149.9 43.2 149.9 C 42.1 149.9 41.5 150.7 41.5 152.1 C 41.49 152.12 41.5 153.9 41.5 153.9 L 43.9 153.9 L 43.9 155.8 L 41.5 155.8 L 41.5 168.4 L 39.3 168.4 Z M 46 150.3 C 46 149.5 46.7 148.8 47.5 148.8 C 48.3 148.8 49 149.5 49 150.3 C 49 151.1 48.3 151.8 47.5 151.8 C 46.7 151.8 46 151.1 46 150.3 Z M 46.4 168.4 L 46.4 153.9 L 48.6 153.9 L 48.6 168.4 L 46.4 168.4 Z M 51.5 161.1 C 51.5 156.8 53.8 153.5 57.5 153.5 C 59.5 153.5 60.7 154.3 61.6 155.4 C 61.6 155.4 60.5 156.9 60.5 156.9 C 59.7 155.9 58.8 155.4 57.7 155.4 C 55.1 155.4 53.8 158 53.8 161.1 C 53.8 164.2 55.1 166.8 57.7 166.8 C 58.8 166.8 59.7 166.4 60.5 165.3 C 60.5 165.3 61.6 166.8 61.6 166.8 C 60.7 168 59.5 168.7 57.5 168.7 C 53.8 168.7 51.5 165.4 51.5 161.1 Z M 63.7 150.3 C 63.7 149.5 64.4 148.8 65.2 148.8 C 66 148.8 66.6 149.5 66.6 150.3 C 66.6 151.1 66 151.8 65.2 151.8 C 64.4 151.8 63.7 151.1 63.7 150.3 Z M 64.1 168.4 L 64.1 153.9 L 66.2 153.9 L 66.2 168.4 L 64.1 168.4 Z M 77.3 168.4 C 77.3 168.4 77.34 166.82 77.3 166.8 C 76.4 168.1 75 168.7 73.5 168.7 C 71.2 168.7 69.1 166.9 69.1 163.9 C 69.1 160.9 71.2 159.1 73.5 159.1 C 75 159.1 76.4 159.7 77.3 161 C 77.3 161 77.3 158.5 77.3 158.5 C 77.3 156.5 76.3 155.4 74.4 155.4 C 73 155.4 71.8 155.9 70.7 157.2 C 70.7 157.2 69.8 155.6 69.8 155.6 C 71.2 154.2 72.9 153.5 74.7 153.5 C 77.6 153.5 79.5 154.9 79.5 158.2 C 79.5 158.24 79.5 168.4 79.5 168.4 L 77.3 168.4 Z M 77.3 165.3 C 77.3 165.3 77.3 162.6 77.3 162.6 C 76.7 161.4 75.5 160.7 74.2 160.7 C 72.4 160.7 71.3 162.1 71.3 163.9 C 71.3 165.7 72.4 167.2 74.2 167.2 C 75.5 167.2 76.7 166.5 77.3 165.3 Z M 83.1 168.4 L 83.1 148.4 L 85.3 148.4 L 85.3 168.4 L 83.1 168.4 Z M 103.3 168.4 C 103.3 168.4 103.35 166.31 103.3 166.3 C 102.5 167.8 101.1 168.7 99.5 168.7 C 96.3 168.7 94.3 165.7 94.3 161.1 C 94.3 156.6 96.3 153.5 99.5 153.5 C 101 153.5 102.5 154.4 103.3 156 C 103.35 155.99 103.3 148.4 103.3 148.4 L 105.5 148.4 L 105.5 168.4 L 103.3 168.4 Z M 103.3 164.5 C 103.3 164.5 103.3 157.8 103.3 157.8 C 102.8 156.6 101.5 155.4 100.1 155.4 C 97.7 155.4 96.6 158 96.6 161.1 C 96.6 164.3 97.7 166.8 100.1 166.8 C 101.5 166.8 102.8 165.7 103.3 164.5 Z M 108.7 172.1 C 109 172.3 109.5 172.3 109.7 172.3 C 110.5 172.3 111 172 111.4 170.9 C 111.42 170.9 112.2 168.7 112.2 168.7 L 107.4 153.9 L 109.7 153.9 L 113.3 165.8 L 116.9 153.9 L 119.2 153.9 C 119.2 153.9 113.46 171.44 113.5 171.4 C 112.7 173.5 111.6 174.3 109.9 174.3 C 109.4 174.3 108.7 174.2 108.4 174 C 108.4 174 108.7 172.1 108.7 172.1 Z M 120.4 161.1 C 120.4 156.9 122.6 153.5 126.3 153.5 C 130.1 153.5 132 156.9 132 161.2 C 132 161.18 132 161.8 132 161.8 C 132 161.8 122.61 161.84 122.6 161.8 C 122.7 164.7 124.2 166.9 126.8 166.9 C 128 166.9 129.3 166.3 130.2 165.2 C 130.2 165.2 131.4 166.4 131.4 166.4 C 130.2 167.9 128.5 168.7 126.6 168.7 C 122.7 168.7 120.4 165.6 120.4 161.1 Z M 126.2 155.3 C 123.7 155.3 122.7 158.1 122.6 160.2 C 122.6 160.2 129.9 160.2 129.9 160.2 C 129.8 158 128.9 155.3 126.2 155.3 Z M 135.5 172.2 C 135.5 172.2 134.5 171.3 134.5 171.3 C 135.4 170.6 136.3 169.5 136.4 168.5 C 136.3 168.5 136.1 168.5 136 168.5 C 135.2 168.5 134.6 167.9 134.6 167.1 C 134.6 166.2 135.2 165.5 136.1 165.5 C 137.1 165.5 137.9 166.3 137.9 167.7 C 137.9 169.5 136.9 171.2 135.5 172.2 Z M 156.7 168.4 L 152.8 160.4 L 149.9 160.4 L 149.9 168.4 L 147.5 168.4 L 147.5 148.4 C 147.5 148.4 153.66 148.37 153.7 148.4 C 156.9 148.4 159.1 150.7 159.1 154.3 C 159.1 157.9 157.1 159.6 155.2 160 C 155.16 160.01 159.4 168.4 159.4 168.4 L 156.7 168.4 Z M 156.7 154.4 C 156.7 152.1 155.5 150.5 153.4 150.5 C 153.39 150.47 149.9 150.5 149.9 150.5 L 149.9 158.3 C 149.9 158.3 153.39 158.27 153.4 158.3 C 155.5 158.3 156.7 156.6 156.7 154.4 Z M 160.9 161.1 C 160.9 156.9 163.1 153.5 166.8 153.5 C 170.6 153.5 172.5 156.9 172.5 161.2 C 172.53 161.18 172.5 161.8 172.5 161.8 C 172.5 161.8 163.14 161.84 163.1 161.8 C 163.2 164.7 164.7 166.9 167.3 166.9 C 168.6 166.9 169.9 166.3 170.8 165.2 C 170.8 165.2 171.9 166.4 171.9 166.4 C 170.7 167.9 169.1 168.7 167.1 168.7 C 163.3 168.7 160.9 165.6 160.9 161.1 Z M 166.8 155.3 C 164.2 155.3 163.2 158.1 163.1 160.2 C 163.1 160.2 170.4 160.2 170.4 160.2 C 170.4 158 169.4 155.3 166.8 155.3 Z M 183.7 168.4 C 183.7 168.4 183.65 166.31 183.7 166.3 C 182.8 167.8 181.4 168.7 179.8 168.7 C 176.6 168.7 174.7 165.7 174.7 161.1 C 174.7 156.6 176.6 153.5 179.8 153.5 C 181.3 153.5 182.8 154.4 183.7 156 C 183.65 155.99 183.7 148.4 183.7 148.4 L 185.8 148.4 L 185.8 168.4 L 183.7 168.4 Z M 183.7 164.5 C 183.7 164.5 183.7 157.8 183.7 157.8 C 183.1 156.6 181.8 155.4 180.4 155.4 C 178 155.4 176.9 158 176.9 161.1 C 176.9 164.3 178 166.8 180.4 166.8 C 181.8 166.8 183.1 165.7 183.7 164.5 Z M 202.3 168.4 L 202.3 163.2 L 194.3 163.2 L 194.3 161.2 L 201.6 148.4 L 204.6 148.4 L 204.6 161.1 L 206.8 161.1 L 206.8 163.2 L 204.6 163.2 L 204.6 168.4 L 202.3 168.4 Z M 202.3 150.9 L 196.5 161.1 L 202.3 161.1 L 202.3 150.9 Z M 208.6 158.4 C 208.6 153.6 210.2 148.1 214.9 148.1 C 219.6 148.1 221.2 153.6 221.2 158.4 C 221.2 163.2 219.6 168.7 214.9 168.7 C 210.2 168.7 208.6 163.2 208.6 158.4 Z M 218.7 158.4 C 218.7 154.4 218 150.2 214.9 150.2 C 211.8 150.2 211.1 154.4 211.1 158.4 C 211.1 162.3 211.8 166.6 214.9 166.6 C 218 166.6 218.7 162.3 218.7 158.4 Z " stroke="none" fill="#d3d2d2"/>  </g>  <g id="Polygon216087">    <path d="M 12.5 132.4 L 11.2 127.8 L 4.1 127.8 L 2.8 132.4 L 0.2 132.4 L 6.2 112.4 L 9.1 112.4 L 15.1 132.4 L 12.5 132.4 Z M 7.6 115 L 4.6 125.7 L 10.7 125.7 L 7.6 115 Z M 17 132.4 L 17 117.9 L 19.1 117.9 C 19.1 117.9 19.14 120.2 19.1 120.2 C 20.1 118.7 21.5 117.6 23.2 117.6 C 23.2 117.6 23.2 119.8 23.2 119.8 C 23 119.7 22.8 119.7 22.5 119.7 C 21.2 119.7 19.7 120.9 19.1 122.1 C 19.14 122.09 19.1 132.4 19.1 132.4 L 17 132.4 Z M 25.9 129.5 C 25.86 129.47 25.9 119.8 25.9 119.8 L 23.9 119.8 L 23.9 117.9 L 25.9 117.9 L 25.9 113.9 L 28 113.9 L 28 117.9 L 30.5 117.9 L 30.5 119.8 L 28 119.8 C 28 119.8 28.02 129.08 28 129.1 C 28 130.2 28.3 130.8 29.2 130.8 C 29.7 130.8 30.2 130.6 30.4 130.2 C 30.4 130.2 31.1 131.9 31.1 131.9 C 30.6 132.4 29.9 132.7 28.8 132.7 C 26.8 132.7 25.9 131.6 25.9 129.5 Z M 32.6 114.3 C 32.6 113.5 33.3 112.8 34.1 112.8 C 34.9 112.8 35.5 113.5 35.5 114.3 C 35.5 115.1 34.9 115.8 34.1 115.8 C 33.3 115.8 32.6 115.1 32.6 114.3 Z M 33 132.4 L 33 117.9 L 35.2 117.9 L 35.2 132.4 L 33 132.4 Z M 39.3 132.4 L 39.3 119.8 L 37.4 119.8 L 37.4 117.9 L 39.3 117.9 C 39.3 117.9 39.33 116.12 39.3 116.1 C 39.3 113.6 40.8 112.1 42.9 112.1 C 43.6 112.1 44.2 112.2 44.7 112.5 C 44.7 112.5 44.2 114.2 44.2 114.2 C 43.9 114 43.6 113.9 43.2 113.9 C 42.1 113.9 41.5 114.7 41.5 116.1 C 41.49 116.12 41.5 117.9 41.5 117.9 L 43.9 117.9 L 43.9 119.8 L 41.5 119.8 L 41.5 132.4 L 39.3 132.4 Z M 46 114.3 C 46 113.5 46.7 112.8 47.5 112.8 C 48.3 112.8 49 113.5 49 114.3 C 49 115.1 48.3 115.8 47.5 115.8 C 46.7 115.8 46 115.1 46 114.3 Z M 46.4 132.4 L 46.4 117.9 L 48.6 117.9 L 48.6 132.4 L 46.4 132.4 Z M 51.5 125.1 C 51.5 120.8 53.8 117.5 57.5 117.5 C 59.5 117.5 60.7 118.3 61.6 119.4 C 61.6 119.4 60.5 120.9 60.5 120.9 C 59.7 119.9 58.8 119.4 57.7 119.4 C 55.1 119.4 53.8 122 53.8 125.1 C 53.8 128.2 55.1 130.8 57.7 130.8 C 58.8 130.8 59.7 130.4 60.5 129.3 C 60.5 129.3 61.6 130.8 61.6 130.8 C 60.7 132 59.5 132.7 57.5 132.7 C 53.8 132.7 51.5 129.4 51.5 125.1 Z M 63.7 114.3 C 63.7 113.5 64.4 112.8 65.2 112.8 C 66 112.8 66.6 113.5 66.6 114.3 C 66.6 115.1 66 115.8 65.2 115.8 C 64.4 115.8 63.7 115.1 63.7 114.3 Z M 64.1 132.4 L 64.1 117.9 L 66.2 117.9 L 66.2 132.4 L 64.1 132.4 Z M 77.3 132.4 C 77.3 132.4 77.34 130.82 77.3 130.8 C 76.4 132.1 75 132.7 73.5 132.7 C 71.2 132.7 69.1 130.9 69.1 127.9 C 69.1 124.9 71.2 123.1 73.5 123.1 C 75 123.1 76.4 123.7 77.3 125 C 77.3 125 77.3 122.5 77.3 122.5 C 77.3 120.5 76.3 119.4 74.4 119.4 C 73 119.4 71.8 119.9 70.7 121.2 C 70.7 121.2 69.8 119.6 69.8 119.6 C 71.2 118.2 72.9 117.5 74.7 117.5 C 77.6 117.5 79.5 118.9 79.5 122.2 C 79.5 122.24 79.5 132.4 79.5 132.4 L 77.3 132.4 Z M 77.3 129.3 C 77.3 129.3 77.3 126.6 77.3 126.6 C 76.7 125.4 75.5 124.7 74.2 124.7 C 72.4 124.7 71.3 126.1 71.3 127.9 C 71.3 129.7 72.4 131.2 74.2 131.2 C 75.5 131.2 76.7 130.5 77.3 129.3 Z M 83.1 132.4 L 83.1 112.4 L 85.3 112.4 L 85.3 132.4 L 83.1 132.4 Z M 103.3 132.4 C 103.3 132.4 103.35 130.31 103.3 130.3 C 102.5 131.8 101.1 132.7 99.5 132.7 C 96.3 132.7 94.3 129.7 94.3 125.1 C 94.3 120.6 96.3 117.5 99.5 117.5 C 101 117.5 102.5 118.4 103.3 120 C 103.35 119.99 103.3 112.4 103.3 112.4 L 105.5 112.4 L 105.5 132.4 L 103.3 132.4 Z M 103.3 128.5 C 103.3 128.5 103.3 121.8 103.3 121.8 C 102.8 120.6 101.5 119.4 100.1 119.4 C 97.7 119.4 96.6 122 96.6 125.1 C 96.6 128.3 97.7 130.8 100.1 130.8 C 101.5 130.8 102.8 129.7 103.3 128.5 Z M 108.7 136.1 C 109 136.3 109.5 136.3 109.7 136.3 C 110.5 136.3 111 136 111.4 134.9 C 111.42 134.9 112.2 132.7 112.2 132.7 L 107.4 117.9 L 109.7 117.9 L 113.3 129.8 L 116.9 117.9 L 119.2 117.9 C 119.2 117.9 113.46 135.44 113.5 135.4 C 112.7 137.5 111.6 138.3 109.9 138.3 C 109.4 138.3 108.7 138.2 108.4 138 C 108.4 138 108.7 136.1 108.7 136.1 Z M 120.4 125.1 C 120.4 120.9 122.6 117.5 126.3 117.5 C 130.1 117.5 132 120.9 132 125.2 C 132 125.18 132 125.8 132 125.8 C 132 125.8 122.61 125.84 122.6 125.8 C 122.7 128.7 124.2 130.9 126.8 130.9 C 128 130.9 129.3 130.3 130.2 129.2 C 130.2 129.2 131.4 130.4 131.4 130.4 C 130.2 131.9 128.5 132.7 126.6 132.7 C 122.7 132.7 120.4 129.6 120.4 125.1 Z M 126.2 119.3 C 123.7 119.3 122.7 122.1 122.6 124.2 C 122.6 124.2 129.9 124.2 129.9 124.2 C 129.8 122 128.9 119.3 126.2 119.3 Z M 135.5 136.2 C 135.5 136.2 134.5 135.3 134.5 135.3 C 135.4 134.6 136.3 133.5 136.4 132.5 C 136.3 132.5 136.1 132.5 136 132.5 C 135.2 132.5 134.6 131.9 134.6 131.1 C 134.6 130.2 135.2 129.5 136.1 129.5 C 137.1 129.5 137.9 130.3 137.9 131.7 C 137.9 133.5 136.9 135.2 135.5 136.2 Z M 147.5 132.4 L 147.5 112.4 C 147.5 112.4 154.17 112.37 154.2 112.4 C 157.3 112.4 159.1 114.4 159.1 117.5 C 159.1 120 157.8 121.6 156.1 122.1 C 158 122.4 159.4 124.6 159.4 127 C 159.4 130.2 157.7 132.4 154.3 132.4 C 154.35 132.38 147.5 132.4 147.5 132.4 Z M 156.7 117.8 C 156.7 115.9 155.8 114.5 153.7 114.5 C 153.72 114.47 149.9 114.5 149.9 114.5 L 149.9 121.1 C 149.9 121.1 153.72 121.1 153.7 121.1 C 155.8 121.1 156.7 119.7 156.7 117.8 Z M 157 126.7 C 157 124.8 156 123.2 153.9 123.2 C 153.87 123.2 149.9 123.2 149.9 123.2 L 149.9 130.2 C 149.9 130.2 153.87 130.25 153.9 130.2 C 155.9 130.2 157 128.9 157 126.7 Z M 162.6 132.4 L 162.6 112.4 L 164.7 112.4 L 164.7 132.4 L 162.6 132.4 Z M 176.2 132.4 C 176.2 132.4 176.21 130.37 176.2 130.4 C 175.3 131.6 173.8 132.7 172 132.7 C 169.6 132.7 168.4 131.5 168.4 128.9 C 168.38 128.87 168.4 117.9 168.4 117.9 L 170.5 117.9 C 170.5 117.9 170.51 128.24 170.5 128.2 C 170.5 130.2 171.4 130.8 172.8 130.8 C 174.3 130.8 175.6 129.8 176.2 128.6 C 176.21 128.57 176.2 117.9 176.2 117.9 L 178.4 117.9 L 178.4 132.4 L 176.2 132.4 Z M 181.3 125.1 C 181.3 120.9 183.5 117.5 187.2 117.5 C 191 117.5 192.9 120.9 192.9 125.2 C 192.92 125.18 192.9 125.8 192.9 125.8 C 192.9 125.8 183.53 125.84 183.5 125.8 C 183.6 128.7 185.1 130.9 187.7 130.9 C 189 130.9 190.3 130.3 191.2 129.2 C 191.2 129.2 192.3 130.4 192.3 130.4 C 191.1 131.9 189.5 132.7 187.5 132.7 C 183.7 132.7 181.3 129.6 181.3 125.1 Z M 187.2 119.3 C 184.6 119.3 183.6 122.1 183.5 124.2 C 183.5 124.2 190.8 124.2 190.8 124.2 C 190.8 122 189.8 119.3 187.2 119.3 Z M 204.9 132.4 L 204.9 115.5 L 201.8 118.8 L 200.4 117.3 L 205.2 112.4 L 207.3 112.4 L 207.3 132.4 L 204.9 132.4 Z " stroke="none" fill="#d3d2d2"/>  </g>  <g id="Polygon216086">    <path d="M 12.5 96.4 L 11.2 91.8 L 4.1 91.8 L 2.8 96.4 L 0.2 96.4 L 6.2 76.4 L 9.1 76.4 L 15.1 96.4 L 12.5 96.4 Z M 7.6 79 L 4.6 89.7 L 10.7 89.7 L 7.6 79 Z M 16.2 89.1 C 16.2 84.8 18.5 81.5 22.2 81.5 C 24.2 81.5 25.5 82.3 26.4 83.4 C 26.4 83.4 25.2 84.9 25.2 84.9 C 24.4 83.9 23.5 83.4 22.4 83.4 C 19.8 83.4 18.5 86 18.5 89.1 C 18.5 92.2 19.8 94.8 22.4 94.8 C 23.5 94.8 24.4 94.4 25.2 93.3 C 25.2 93.3 26.4 94.8 26.4 94.8 C 25.5 96 24.2 96.7 22.2 96.7 C 18.5 96.7 16.2 93.4 16.2 89.1 Z M 28.8 96.4 L 28.8 81.9 L 31 81.9 C 31 81.9 30.96 84.2 31 84.2 C 31.9 82.7 33.3 81.6 35.1 81.6 C 35.1 81.6 35.1 83.8 35.1 83.8 C 34.8 83.7 34.6 83.7 34.3 83.7 C 33 83.7 31.6 84.9 31 86.1 C 30.96 86.09 31 96.4 31 96.4 L 28.8 96.4 Z M 36.8 100.1 C 37.1 100.3 37.6 100.3 37.8 100.3 C 38.6 100.3 39.1 100 39.5 98.9 C 39.51 98.9 40.3 96.7 40.3 96.7 L 35.5 81.9 L 37.8 81.9 L 41.4 93.8 L 45 81.9 L 47.3 81.9 C 47.3 81.9 41.55 99.44 41.5 99.4 C 40.8 101.5 39.7 102.3 37.9 102.3 C 37.5 102.3 36.8 102.2 36.5 102 C 36.5 102 36.8 100.1 36.8 100.1 Z M 49.2 96.4 L 49.2 76.4 L 51.3 76.4 L 51.3 96.4 L 49.2 96.4 Z M 54.6 78.3 C 54.6 77.5 55.3 76.8 56 76.8 C 56.8 76.8 57.5 77.5 57.5 78.3 C 57.5 79.1 56.8 79.8 56 79.8 C 55.3 79.8 54.6 79.1 54.6 78.3 Z M 55 96.4 L 55 81.9 L 57.1 81.9 L 57.1 96.4 L 55 96.4 Z M 60.1 89.1 C 60.1 84.8 62.3 81.5 66.1 81.5 C 68.1 81.5 69.3 82.3 70.2 83.4 C 70.2 83.4 69 84.9 69 84.9 C 68.2 83.9 67.3 83.4 66.2 83.4 C 63.7 83.4 62.3 86 62.3 89.1 C 62.3 92.2 63.7 94.8 66.2 94.8 C 67.3 94.8 68.2 94.4 69 93.3 C 69 93.3 70.2 94.8 70.2 94.8 C 69.3 96 68.1 96.7 66.1 96.7 C 62.3 96.7 60.1 93.4 60.1 89.1 Z M 80.9 94.3 C 80.94 94.28 80.9 101.9 80.9 101.9 L 78.8 101.9 L 78.8 81.9 L 80.9 81.9 C 80.9 81.9 80.94 83.96 80.9 84 C 81.8 82.5 83.2 81.5 84.7 81.5 C 88 81.5 89.9 84.6 89.9 89.1 C 89.9 93.6 88 96.7 84.7 96.7 C 83.3 96.7 81.8 95.9 80.9 94.3 Z M 87.7 89.1 C 87.7 86 86.6 83.4 84.2 83.4 C 82.9 83.4 81.5 84.5 80.9 85.8 C 80.9 85.8 80.9 92.4 80.9 92.4 C 81.5 93.7 82.9 94.8 84.2 94.8 C 86.6 94.8 87.7 92.3 87.7 89.1 Z M 100.3 96.4 C 100.3 96.4 100.29 94.82 100.3 94.8 C 99.4 96.1 97.9 96.7 96.5 96.7 C 94.1 96.7 92.1 94.9 92.1 91.9 C 92.1 88.9 94.1 87.1 96.5 87.1 C 97.9 87.1 99.4 87.7 100.3 89 C 100.3 89 100.3 86.5 100.3 86.5 C 100.3 84.5 99.2 83.4 97.3 83.4 C 96 83.4 94.8 83.9 93.7 85.2 C 93.7 85.2 92.7 83.6 92.7 83.6 C 94.1 82.2 95.8 81.5 97.6 81.5 C 100.5 81.5 102.4 82.9 102.4 86.2 C 102.45 86.24 102.4 96.4 102.4 96.4 L 100.3 96.4 Z M 100.3 93.3 C 100.3 93.3 100.3 90.6 100.3 90.6 C 99.6 89.4 98.4 88.7 97.2 88.7 C 95.4 88.7 94.3 90.1 94.3 91.9 C 94.3 93.7 95.4 95.2 97.2 95.2 C 98.4 95.2 99.6 94.5 100.3 93.3 Z M 105.7 78.3 C 105.7 77.5 106.3 76.8 107.1 76.8 C 107.9 76.8 108.6 77.5 108.6 78.3 C 108.6 79.1 107.9 79.8 107.1 79.8 C 106.3 79.8 105.7 79.1 105.7 78.3 Z M 106.1 96.4 L 106.1 81.9 L 108.2 81.9 L 108.2 96.4 L 106.1 96.4 Z M 119.7 96.4 C 119.7 96.4 119.7 86.06 119.7 86.1 C 119.7 84.1 118.8 83.4 117.4 83.4 C 116 83.4 114.7 84.6 114 85.8 C 114 85.76 114 96.4 114 96.4 L 111.9 96.4 L 111.9 81.9 L 114 81.9 C 114 81.9 114 83.96 114 84 C 114.8 82.7 116.5 81.5 118.2 81.5 C 120.7 81.5 121.9 82.8 121.9 85.5 C 121.86 85.46 121.9 96.4 121.9 96.4 L 119.7 96.4 Z M 125.9 93.5 C 125.94 93.47 125.9 83.8 125.9 83.8 L 124 83.8 L 124 81.9 L 125.9 81.9 L 125.9 77.9 L 128.1 77.9 L 128.1 81.9 L 130.6 81.9 L 130.6 83.8 L 128.1 83.8 C 128.1 83.8 128.1 93.08 128.1 93.1 C 128.1 94.2 128.4 94.8 129.3 94.8 C 129.8 94.8 130.3 94.6 130.5 94.2 C 130.5 94.2 131.2 95.9 131.2 95.9 C 130.7 96.4 130 96.7 128.8 96.7 C 126.9 96.7 125.9 95.6 125.9 93.5 Z M 133.9 100.2 C 133.9 100.2 132.8 99.3 132.8 99.3 C 133.8 98.6 134.6 97.5 134.8 96.5 C 134.7 96.5 134.5 96.5 134.4 96.5 C 133.6 96.5 133 95.9 133 95.1 C 133 94.2 133.6 93.5 134.5 93.5 C 135.5 93.5 136.3 94.3 136.3 95.7 C 136.3 97.5 135.3 99.2 133.9 100.2 Z M 150.1 96.4 L 144.1 76.4 L 146.6 76.4 L 151.5 93.5 L 156.3 76.4 L 158.9 76.4 L 152.9 96.4 L 150.1 96.4 Z M 158.9 89.1 C 158.9 84.9 161.2 81.5 164.8 81.5 C 168.6 81.5 170.5 84.9 170.5 89.2 C 170.55 89.18 170.5 89.8 170.5 89.8 C 170.5 89.8 161.16 89.84 161.2 89.8 C 161.2 92.7 162.7 94.9 165.3 94.9 C 166.6 94.9 167.9 94.3 168.8 93.2 C 168.8 93.2 169.9 94.4 169.9 94.4 C 168.7 95.9 167.1 96.7 165.1 96.7 C 161.3 96.7 158.9 93.6 158.9 89.1 Z M 164.8 83.3 C 162.2 83.3 161.2 86.1 161.2 88.2 C 161.2 88.2 168.4 88.2 168.4 88.2 C 168.4 86 167.4 83.3 164.8 83.3 Z M 173.4 96.4 L 173.4 81.9 L 175.5 81.9 C 175.5 81.9 175.53 84.2 175.5 84.2 C 176.5 82.7 177.9 81.6 179.6 81.6 C 179.6 81.6 179.6 83.8 179.6 83.8 C 179.4 83.7 179.2 83.7 178.9 83.7 C 177.6 83.7 176.1 84.9 175.5 86.1 C 175.53 86.09 175.5 96.4 175.5 96.4 L 173.4 96.4 Z M 196.5 96.4 C 196.5 96.4 196.47 85.88 196.5 85.9 C 196.5 84.3 195.8 83.4 194.5 83.4 C 193.2 83.4 191.9 84.6 191.3 85.8 C 191.31 85.76 191.3 96.4 191.3 96.4 L 189.1 96.4 C 189.1 96.4 189.15 85.88 189.1 85.9 C 189.1 84.3 188.5 83.4 187.1 83.4 C 185.8 83.4 184.6 84.6 184 85.8 C 183.96 85.76 184 96.4 184 96.4 L 181.8 96.4 L 181.8 81.9 L 184 81.9 C 184 81.9 183.96 83.96 184 84 C 184.6 82.9 186.2 81.5 187.9 81.5 C 189.8 81.5 190.9 82.6 191.2 84.1 C 191.9 82.8 193.5 81.5 195.3 81.5 C 197.4 81.5 198.6 82.7 198.6 85.3 C 198.63 85.31 198.6 96.4 198.6 96.4 L 196.5 96.4 Z M 201.9 78.3 C 201.9 77.5 202.6 76.8 203.3 76.8 C 204.1 76.8 204.8 77.5 204.8 78.3 C 204.8 79.1 204.1 79.8 203.3 79.8 C 202.6 79.8 201.9 79.1 201.9 78.3 Z M 202.3 96.4 L 202.3 81.9 L 204.4 81.9 L 204.4 96.4 L 202.3 96.4 Z M 208.1 96.4 L 208.1 76.4 L 210.2 76.4 L 210.2 96.4 L 208.1 96.4 Z M 213.9 96.4 L 213.9 76.4 L 216 76.4 L 216 96.4 L 213.9 96.4 Z M 219.2 78.3 C 219.2 77.5 219.9 76.8 220.7 76.8 C 221.5 76.8 222.2 77.5 222.2 78.3 C 222.2 79.1 221.5 79.8 220.7 79.8 C 219.9 79.8 219.2 79.1 219.2 78.3 Z M 219.7 96.4 L 219.7 81.9 L 221.8 81.9 L 221.8 96.4 L 219.7 96.4 Z M 224.7 89.1 C 224.7 85 226.8 81.5 230.6 81.5 C 234.5 81.5 236.5 85 236.5 89.1 C 236.5 93.2 234.5 96.7 230.6 96.7 C 226.8 96.7 224.7 93.2 224.7 89.1 Z M 234.3 89.1 C 234.3 86.2 233.2 83.4 230.6 83.4 C 228.1 83.4 227 86.2 227 89.1 C 227 92.1 228.1 94.8 230.6 94.8 C 233.2 94.8 234.3 92.1 234.3 89.1 Z M 247.3 96.4 C 247.3 96.4 247.28 86.06 247.3 86.1 C 247.3 84.1 246.4 83.4 245 83.4 C 243.6 83.4 242.2 84.6 241.6 85.8 C 241.58 85.76 241.6 96.4 241.6 96.4 L 239.5 96.4 L 239.5 81.9 L 241.6 81.9 C 241.6 81.9 241.58 83.96 241.6 84 C 242.4 82.7 244 81.5 245.8 81.5 C 248.2 81.5 249.4 82.8 249.4 85.5 C 249.44 85.46 249.4 96.4 249.4 96.4 L 247.3 96.4 Z " stroke="none" fill="#d3d2d2"/>  </g>  <g id="Polygon216085">    <path d="M 12.5 60.4 L 11.2 55.8 L 4.1 55.8 L 2.8 60.4 L 0.2 60.4 L 6.2 40.4 L 9.1 40.4 L 15.1 60.4 L 12.5 60.4 Z M 7.6 43 L 4.6 53.7 L 10.7 53.7 L 7.6 43 Z M 16.2 53.1 C 16.2 48.8 18.5 45.5 22.2 45.5 C 24.2 45.5 25.5 46.3 26.4 47.4 C 26.4 47.4 25.2 48.9 25.2 48.9 C 24.4 47.9 23.5 47.4 22.4 47.4 C 19.8 47.4 18.5 50 18.5 53.1 C 18.5 56.2 19.8 58.8 22.4 58.8 C 23.5 58.8 24.4 58.4 25.2 57.3 C 25.2 57.3 26.4 58.8 26.4 58.8 C 25.5 60 24.2 60.7 22.2 60.7 C 18.5 60.7 16.2 57.4 16.2 53.1 Z M 28.8 60.4 L 28.8 45.9 L 31 45.9 C 31 45.9 30.96 48.2 31 48.2 C 31.9 46.7 33.3 45.6 35.1 45.6 C 35.1 45.6 35.1 47.8 35.1 47.8 C 34.8 47.7 34.6 47.7 34.3 47.7 C 33 47.7 31.6 48.9 31 50.1 C 30.96 50.09 31 60.4 31 60.4 L 28.8 60.4 Z M 36.8 64.1 C 37.1 64.3 37.6 64.3 37.8 64.3 C 38.6 64.3 39.1 64 39.5 62.9 C 39.51 62.9 40.3 60.7 40.3 60.7 L 35.5 45.9 L 37.8 45.9 L 41.4 57.8 L 45 45.9 L 47.3 45.9 C 47.3 45.9 41.55 63.44 41.5 63.4 C 40.8 65.5 39.7 66.3 37.9 66.3 C 37.5 66.3 36.8 66.2 36.5 66 C 36.5 66 36.8 64.1 36.8 64.1 Z M 49.2 60.4 L 49.2 40.4 L 51.3 40.4 L 51.3 60.4 L 49.2 60.4 Z M 54.6 42.3 C 54.6 41.5 55.3 40.8 56 40.8 C 56.8 40.8 57.5 41.5 57.5 42.3 C 57.5 43.1 56.8 43.8 56 43.8 C 55.3 43.8 54.6 43.1 54.6 42.3 Z M 55 60.4 L 55 45.9 L 57.1 45.9 L 57.1 60.4 L 55 60.4 Z M 60.1 53.1 C 60.1 48.8 62.3 45.5 66.1 45.5 C 68.1 45.5 69.3 46.3 70.2 47.4 C 70.2 47.4 69 48.9 69 48.9 C 68.2 47.9 67.3 47.4 66.2 47.4 C 63.7 47.4 62.3 50 62.3 53.1 C 62.3 56.2 63.7 58.8 66.2 58.8 C 67.3 58.8 68.2 58.4 69 57.3 C 69 57.3 70.2 58.8 70.2 58.8 C 69.3 60 68.1 60.7 66.1 60.7 C 62.3 60.7 60.1 57.4 60.1 53.1 Z M 80.9 58.3 C 80.94 58.28 80.9 65.9 80.9 65.9 L 78.8 65.9 L 78.8 45.9 L 80.9 45.9 C 80.9 45.9 80.94 47.96 80.9 48 C 81.8 46.5 83.2 45.5 84.7 45.5 C 88 45.5 89.9 48.6 89.9 53.1 C 89.9 57.6 88 60.7 84.7 60.7 C 83.3 60.7 81.8 59.9 80.9 58.3 Z M 87.7 53.1 C 87.7 50 86.6 47.4 84.2 47.4 C 82.9 47.4 81.5 48.5 80.9 49.8 C 80.9 49.8 80.9 56.4 80.9 56.4 C 81.5 57.7 82.9 58.8 84.2 58.8 C 86.6 58.8 87.7 56.3 87.7 53.1 Z M 100.3 60.4 C 100.3 60.4 100.29 58.82 100.3 58.8 C 99.4 60.1 97.9 60.7 96.5 60.7 C 94.1 60.7 92.1 58.9 92.1 55.9 C 92.1 52.9 94.1 51.1 96.5 51.1 C 97.9 51.1 99.4 51.7 100.3 53 C 100.3 53 100.3 50.5 100.3 50.5 C 100.3 48.5 99.2 47.4 97.3 47.4 C 96 47.4 94.8 47.9 93.7 49.2 C 93.7 49.2 92.7 47.6 92.7 47.6 C 94.1 46.2 95.8 45.5 97.6 45.5 C 100.5 45.5 102.4 46.9 102.4 50.2 C 102.45 50.24 102.4 60.4 102.4 60.4 L 100.3 60.4 Z M 100.3 57.3 C 100.3 57.3 100.3 54.6 100.3 54.6 C 99.6 53.4 98.4 52.7 97.2 52.7 C 95.4 52.7 94.3 54.1 94.3 55.9 C 94.3 57.7 95.4 59.2 97.2 59.2 C 98.4 59.2 99.6 58.5 100.3 57.3 Z M 105.7 42.3 C 105.7 41.5 106.3 40.8 107.1 40.8 C 107.9 40.8 108.6 41.5 108.6 42.3 C 108.6 43.1 107.9 43.8 107.1 43.8 C 106.3 43.8 105.7 43.1 105.7 42.3 Z M 106.1 60.4 L 106.1 45.9 L 108.2 45.9 L 108.2 60.4 L 106.1 60.4 Z M 119.7 60.4 C 119.7 60.4 119.7 50.06 119.7 50.1 C 119.7 48.1 118.8 47.4 117.4 47.4 C 116 47.4 114.7 48.6 114 49.8 C 114 49.76 114 60.4 114 60.4 L 111.9 60.4 L 111.9 45.9 L 114 45.9 C 114 45.9 114 47.96 114 48 C 114.8 46.7 116.5 45.5 118.2 45.5 C 120.7 45.5 121.9 46.8 121.9 49.5 C 121.86 49.46 121.9 60.4 121.9 60.4 L 119.7 60.4 Z M 125.9 57.5 C 125.94 57.47 125.9 47.8 125.9 47.8 L 124 47.8 L 124 45.9 L 125.9 45.9 L 125.9 41.9 L 128.1 41.9 L 128.1 45.9 L 130.6 45.9 L 130.6 47.8 L 128.1 47.8 C 128.1 47.8 128.1 57.08 128.1 57.1 C 128.1 58.2 128.4 58.8 129.3 58.8 C 129.8 58.8 130.3 58.6 130.5 58.2 C 130.5 58.2 131.2 59.9 131.2 59.9 C 130.7 60.4 130 60.7 128.8 60.7 C 126.9 60.7 125.9 59.6 125.9 57.5 Z M 133.9 64.2 C 133.9 64.2 132.8 63.3 132.8 63.3 C 133.8 62.6 134.6 61.5 134.8 60.5 C 134.7 60.5 134.5 60.5 134.4 60.5 C 133.6 60.5 133 59.9 133 59.1 C 133 58.2 133.6 57.5 134.5 57.5 C 135.5 57.5 136.3 58.3 136.3 59.7 C 136.3 61.5 135.3 63.2 133.9 64.2 Z M 149.3 60.4 L 149.3 42.5 L 144.6 42.5 L 144.6 40.4 L 156.4 40.4 L 156.4 42.5 L 151.7 42.5 L 151.7 60.4 L 149.3 60.4 Z M 158.5 42.3 C 158.5 41.5 159.1 40.8 159.9 40.8 C 160.7 40.8 161.4 41.5 161.4 42.3 C 161.4 43.1 160.7 43.8 159.9 43.8 C 159.1 43.8 158.5 43.1 158.5 42.3 Z M 158.9 60.4 L 158.9 45.9 L 161 45.9 L 161 60.4 L 158.9 60.4 Z M 165.1 57.5 C 165.09 57.47 165.1 47.8 165.1 47.8 L 163.2 47.8 L 163.2 45.9 L 165.1 45.9 L 165.1 41.9 L 167.2 41.9 L 167.2 45.9 L 169.7 45.9 L 169.7 47.8 L 167.2 47.8 C 167.2 47.8 167.25 57.08 167.2 57.1 C 167.2 58.2 167.6 58.8 168.4 58.8 C 169 58.8 169.4 58.6 169.7 58.2 C 169.7 58.2 170.3 59.9 170.3 59.9 C 169.8 60.4 169.1 60.7 168 60.7 C 166 60.7 165.1 59.6 165.1 57.5 Z M 179.7 60.4 C 179.7 60.4 179.7 58.82 179.7 58.8 C 178.8 60.1 177.4 60.7 175.9 60.7 C 173.5 60.7 171.5 58.9 171.5 55.9 C 171.5 52.9 173.5 51.1 175.9 51.1 C 177.4 51.1 178.8 51.7 179.7 53 C 179.7 53 179.7 50.5 179.7 50.5 C 179.7 48.5 178.6 47.4 176.7 47.4 C 175.4 47.4 174.2 47.9 173.1 49.2 C 173.1 49.2 172.1 47.6 172.1 47.6 C 173.5 46.2 175.2 45.5 177.1 45.5 C 179.9 45.5 181.9 46.9 181.9 50.2 C 181.86 50.24 181.9 60.4 181.9 60.4 L 179.7 60.4 Z M 179.7 57.3 C 179.7 57.3 179.7 54.6 179.7 54.6 C 179 53.4 177.8 52.7 176.6 52.7 C 174.8 52.7 173.7 54.1 173.7 55.9 C 173.7 57.7 174.8 59.2 176.6 59.2 C 177.8 59.2 179 58.5 179.7 57.3 Z M 193.3 60.4 C 193.3 60.4 193.31 50.06 193.3 50.1 C 193.3 48.1 192.4 47.4 191 47.4 C 189.6 47.4 188.3 48.6 187.6 49.8 C 187.61 49.76 187.6 60.4 187.6 60.4 L 185.5 60.4 L 185.5 45.9 L 187.6 45.9 C 187.6 45.9 187.61 47.96 187.6 48 C 188.5 46.7 190.1 45.5 191.8 45.5 C 194.3 45.5 195.5 46.8 195.5 49.5 C 195.47 49.46 195.5 60.4 195.5 60.4 L 193.3 60.4 Z M 198.7 42.3 C 198.7 41.5 199.4 40.8 200.2 40.8 C 201 40.8 201.7 41.5 201.7 42.3 C 201.7 43.1 201 43.8 200.2 43.8 C 199.4 43.8 198.7 43.1 198.7 42.3 Z M 199.1 60.4 L 199.1 45.9 L 201.3 45.9 L 201.3 60.4 L 199.1 60.4 Z M 212.8 60.4 C 212.8 60.4 212.75 58.37 212.8 58.4 C 211.9 59.6 210.4 60.7 208.6 60.7 C 206.1 60.7 204.9 59.5 204.9 56.9 C 204.92 56.87 204.9 45.9 204.9 45.9 L 207.1 45.9 C 207.1 45.9 207.05 56.24 207.1 56.2 C 207.1 58.2 208 58.8 209.4 58.8 C 210.8 58.8 212.1 57.8 212.8 56.6 C 212.75 56.57 212.8 45.9 212.8 45.9 L 214.9 45.9 L 214.9 60.4 L 212.8 60.4 Z M 233.2 60.4 C 233.2 60.4 233.21 49.88 233.2 49.9 C 233.2 48.3 232.6 47.4 231.2 47.4 C 229.9 47.4 228.6 48.6 228.1 49.8 C 228.05 49.76 228.1 60.4 228.1 60.4 L 225.9 60.4 C 225.9 60.4 225.89 49.88 225.9 49.9 C 225.9 48.3 225.3 47.4 223.9 47.4 C 222.6 47.4 221.3 48.6 220.7 49.8 C 220.7 49.76 220.7 60.4 220.7 60.4 L 218.6 60.4 L 218.6 45.9 L 220.7 45.9 C 220.7 45.9 220.7 47.96 220.7 48 C 221.3 46.9 222.9 45.5 224.7 45.5 C 226.5 45.5 227.7 46.6 227.9 48.1 C 228.7 46.8 230.3 45.5 232 45.5 C 234.1 45.5 235.4 46.7 235.4 49.3 C 235.37 49.31 235.4 60.4 235.4 60.4 L 233.2 60.4 Z M 257.2 60.4 L 253.9 44.6 L 250.7 60.4 L 248.1 60.4 L 243.7 40.4 L 246.2 40.4 L 249.5 56.7 L 252.9 40.4 L 254.9 40.4 L 258.4 56.7 L 261.6 40.4 L 264.2 40.4 L 259.7 60.4 L 257.2 60.4 Z M 274.2 60.4 C 274.2 60.4 274.19 50.03 274.2 50 C 274.2 48.1 273.3 47.4 271.9 47.4 C 270.4 47.4 269.1 48.6 268.5 49.8 C 268.46 49.76 268.5 60.4 268.5 60.4 L 266.3 60.4 L 266.3 40.4 L 268.5 40.4 C 268.5 40.4 268.46 47.96 268.5 48 C 269.3 46.7 271 45.5 272.7 45.5 C 275.2 45.5 276.3 46.8 276.3 49.4 C 276.32 49.4 276.3 60.4 276.3 60.4 L 274.2 60.4 Z M 279.6 42.3 C 279.6 41.5 280.3 40.8 281 40.8 C 281.8 40.8 282.5 41.5 282.5 42.3 C 282.5 43.1 281.8 43.8 281 43.8 C 280.3 43.8 279.6 43.1 279.6 42.3 Z M 280 60.4 L 280 45.9 L 282.1 45.9 L 282.1 60.4 L 280 60.4 Z M 286.2 57.5 C 286.19 57.47 286.2 47.8 286.2 47.8 L 284.3 47.8 L 284.3 45.9 L 286.2 45.9 L 286.2 41.9 L 288.4 41.9 L 288.4 45.9 L 290.8 45.9 L 290.8 47.8 L 288.4 47.8 C 288.4 47.8 288.35 57.08 288.4 57.1 C 288.4 58.2 288.7 58.8 289.5 58.8 C 290.1 58.8 290.5 58.6 290.8 58.2 C 290.8 58.2 291.4 59.9 291.4 59.9 C 290.9 60.4 290.2 60.7 289.1 60.7 C 287.1 60.7 286.2 59.6 286.2 57.5 Z M 292.6 53.1 C 292.6 48.9 294.9 45.5 298.5 45.5 C 302.3 45.5 304.3 48.9 304.3 53.2 C 304.25 53.18 304.3 53.8 304.3 53.8 C 304.3 53.8 294.86 53.84 294.9 53.8 C 295 56.7 296.5 58.9 299 58.9 C 300.3 58.9 301.6 58.3 302.5 57.2 C 302.5 57.2 303.6 58.4 303.6 58.4 C 302.5 59.9 300.8 60.7 298.9 60.7 C 295 60.7 292.6 57.6 292.6 53.1 Z M 298.5 47.3 C 295.9 47.3 294.9 50.1 294.9 52.2 C 294.9 52.2 302.1 52.2 302.1 52.2 C 302.1 50 301.1 47.3 298.5 47.3 Z " stroke="none" fill="#d3d2d2"/>  </g>  <g id="Polygon216084">    <path d="M 12.5 24.4 L 11.2 19.8 L 4.1 19.8 L 2.8 24.4 L 0.2 24.4 L 6.2 4.4 L 9.1 4.4 L 15.1 24.4 L 12.5 24.4 Z M 7.6 7 L 4.6 17.7 L 10.7 17.7 L 7.6 7 Z M 16.2 17.1 C 16.2 12.8 18.5 9.5 22.2 9.5 C 24.2 9.5 25.5 10.3 26.4 11.4 C 26.4 11.4 25.2 12.9 25.2 12.9 C 24.4 11.9 23.5 11.4 22.4 11.4 C 19.8 11.4 18.5 14 18.5 17.1 C 18.5 20.2 19.8 22.8 22.4 22.8 C 23.5 22.8 24.4 22.4 25.2 21.3 C 25.2 21.3 26.4 22.8 26.4 22.8 C 25.5 24 24.2 24.7 22.2 24.7 C 18.5 24.7 16.2 21.4 16.2 17.1 Z M 28.8 24.4 L 28.8 9.9 L 31 9.9 C 31 9.9 30.96 12.2 31 12.2 C 31.9 10.7 33.3 9.6 35.1 9.6 C 35.1 9.6 35.1 11.8 35.1 11.8 C 34.8 11.7 34.6 11.7 34.3 11.7 C 33 11.7 31.6 12.9 31 14.1 C 30.96 14.09 31 24.4 31 24.4 L 28.8 24.4 Z M 36.8 28.1 C 37.1 28.3 37.6 28.3 37.8 28.3 C 38.6 28.3 39.1 28 39.5 26.9 C 39.51 26.9 40.3 24.7 40.3 24.7 L 35.5 9.9 L 37.8 9.9 L 41.4 21.8 L 45 9.9 L 47.3 9.9 C 47.3 9.9 41.55 27.44 41.5 27.4 C 40.8 29.5 39.7 30.3 37.9 30.3 C 37.5 30.3 36.8 30.2 36.5 30 C 36.5 30 36.8 28.1 36.8 28.1 Z M 49.2 24.4 L 49.2 4.4 L 51.3 4.4 L 51.3 24.4 L 49.2 24.4 Z M 54.6 6.3 C 54.6 5.5 55.3 4.8 56 4.8 C 56.8 4.8 57.5 5.5 57.5 6.3 C 57.5 7.1 56.8 7.8 56 7.8 C 55.3 7.8 54.6 7.1 54.6 6.3 Z M 55 24.4 L 55 9.9 L 57.1 9.9 L 57.1 24.4 L 55 24.4 Z M 60.1 17.1 C 60.1 12.8 62.3 9.5 66.1 9.5 C 68.1 9.5 69.3 10.3 70.2 11.4 C 70.2 11.4 69 12.9 69 12.9 C 68.2 11.9 67.3 11.4 66.2 11.4 C 63.7 11.4 62.3 14 62.3 17.1 C 62.3 20.2 63.7 22.8 66.2 22.8 C 67.3 22.8 68.2 22.4 69 21.3 C 69 21.3 70.2 22.8 70.2 22.8 C 69.3 24 68.1 24.7 66.1 24.7 C 62.3 24.7 60.1 21.4 60.1 17.1 Z M 80.9 22.3 C 80.94 22.28 80.9 29.9 80.9 29.9 L 78.8 29.9 L 78.8 9.9 L 80.9 9.9 C 80.9 9.9 80.94 11.96 80.9 12 C 81.8 10.5 83.2 9.5 84.7 9.5 C 88 9.5 89.9 12.6 89.9 17.1 C 89.9 21.6 88 24.7 84.7 24.7 C 83.3 24.7 81.8 23.9 80.9 22.3 Z M 87.7 17.1 C 87.7 14 86.6 11.4 84.2 11.4 C 82.9 11.4 81.5 12.5 80.9 13.8 C 80.9 13.8 80.9 20.4 80.9 20.4 C 81.5 21.7 82.9 22.8 84.2 22.8 C 86.6 22.8 87.7 20.3 87.7 17.1 Z M 100.3 24.4 C 100.3 24.4 100.29 22.82 100.3 22.8 C 99.4 24.1 97.9 24.7 96.5 24.7 C 94.1 24.7 92.1 22.9 92.1 19.9 C 92.1 16.9 94.1 15.1 96.5 15.1 C 97.9 15.1 99.4 15.7 100.3 17 C 100.3 17 100.3 14.5 100.3 14.5 C 100.3 12.5 99.2 11.4 97.3 11.4 C 96 11.4 94.8 11.9 93.7 13.2 C 93.7 13.2 92.7 11.6 92.7 11.6 C 94.1 10.2 95.8 9.5 97.6 9.5 C 100.5 9.5 102.4 10.9 102.4 14.2 C 102.45 14.24 102.4 24.4 102.4 24.4 L 100.3 24.4 Z M 100.3 21.3 C 100.3 21.3 100.3 18.6 100.3 18.6 C 99.6 17.4 98.4 16.7 97.2 16.7 C 95.4 16.7 94.3 18.1 94.3 19.9 C 94.3 21.7 95.4 23.2 97.2 23.2 C 98.4 23.2 99.6 22.5 100.3 21.3 Z M 105.7 6.3 C 105.7 5.5 106.3 4.8 107.1 4.8 C 107.9 4.8 108.6 5.5 108.6 6.3 C 108.6 7.1 107.9 7.8 107.1 7.8 C 106.3 7.8 105.7 7.1 105.7 6.3 Z M 106.1 24.4 L 106.1 9.9 L 108.2 9.9 L 108.2 24.4 L 106.1 24.4 Z M 119.7 24.4 C 119.7 24.4 119.7 14.06 119.7 14.1 C 119.7 12.1 118.8 11.4 117.4 11.4 C 116 11.4 114.7 12.6 114 13.8 C 114 13.76 114 24.4 114 24.4 L 111.9 24.4 L 111.9 9.9 L 114 9.9 C 114 9.9 114 11.96 114 12 C 114.8 10.7 116.5 9.5 118.2 9.5 C 120.7 9.5 121.9 10.8 121.9 13.5 C 121.86 13.46 121.9 24.4 121.9 24.4 L 119.7 24.4 Z M 125.9 21.5 C 125.94 21.47 125.9 11.8 125.9 11.8 L 124 11.8 L 124 9.9 L 125.9 9.9 L 125.9 5.9 L 128.1 5.9 L 128.1 9.9 L 130.6 9.9 L 130.6 11.8 L 128.1 11.8 C 128.1 11.8 128.1 21.08 128.1 21.1 C 128.1 22.2 128.4 22.8 129.3 22.8 C 129.8 22.8 130.3 22.6 130.5 22.2 C 130.5 22.2 131.2 23.9 131.2 23.9 C 130.7 24.4 130 24.7 128.8 24.7 C 126.9 24.7 125.9 23.6 125.9 21.5 Z M 133.9 28.2 C 133.9 28.2 132.8 27.3 132.8 27.3 C 133.8 26.6 134.6 25.5 134.8 24.5 C 134.7 24.5 134.5 24.5 134.4 24.5 C 133.6 24.5 133 23.9 133 23.1 C 133 22.2 133.6 21.5 134.5 21.5 C 135.5 21.5 136.3 22.3 136.3 23.7 C 136.3 25.5 135.3 27.2 133.9 28.2 Z M 145.2 14.4 C 145.2 8.4 148.2 4 153 4 C 156 4 157.8 5.9 158.8 7.9 C 158.8 7.9 156.9 8.9 156.9 8.9 C 156.1 7.2 154.7 6.2 153 6.2 C 149.8 6.2 147.7 9.6 147.7 14.4 C 147.7 19.1 149.8 22.6 153 22.6 C 154.8 22.6 156.1 21.3 156.9 19.6 C 156.9 19.6 158.9 20.6 158.9 20.6 C 157.8 22.8 156.1 24.7 153 24.7 C 148.2 24.7 145.2 20.4 145.2 14.4 Z M 168.9 24.4 C 168.9 24.4 168.93 22.82 168.9 22.8 C 168 24.1 166.6 24.7 165.1 24.7 C 162.8 24.7 160.7 22.9 160.7 19.9 C 160.7 16.9 162.7 15.1 165.1 15.1 C 166.6 15.1 168 15.7 168.9 17 C 168.9 17 168.9 14.5 168.9 14.5 C 168.9 12.5 167.8 11.4 166 11.4 C 164.6 11.4 163.4 11.9 162.3 13.2 C 162.3 13.2 161.4 11.6 161.4 11.6 C 162.7 10.2 164.5 9.5 166.3 9.5 C 169.2 9.5 171.1 10.9 171.1 14.2 C 171.09 14.24 171.1 24.4 171.1 24.4 L 168.9 24.4 Z M 168.9 21.3 C 168.9 21.3 168.9 18.6 168.9 18.6 C 168.3 17.4 167.1 16.7 165.8 16.7 C 164 16.7 162.9 18.1 162.9 19.9 C 162.9 21.7 164 23.2 165.8 23.2 C 167.1 23.2 168.3 22.5 168.9 21.3 Z M 183 24.4 C 183 24.4 183 22.31 183 22.3 C 182.2 23.8 180.7 24.7 179.2 24.7 C 175.9 24.7 174 21.7 174 17.1 C 174 12.6 175.9 9.5 179.2 9.5 C 180.7 9.5 182.1 10.4 183 12 C 183 11.99 183 4.4 183 4.4 L 185.2 4.4 L 185.2 24.4 L 183 24.4 Z M 183 20.5 C 183 20.5 183 13.8 183 13.8 C 182.5 12.6 181.1 11.4 179.7 11.4 C 177.4 11.4 176.2 14 176.2 17.1 C 176.2 20.3 177.4 22.8 179.7 22.8 C 181.1 22.8 182.5 21.7 183 20.5 Z M 203.5 24.4 C 203.5 24.4 203.46 13.88 203.5 13.9 C 203.5 12.3 202.8 11.4 201.4 11.4 C 200.2 11.4 198.9 12.6 198.3 13.8 C 198.3 13.76 198.3 24.4 198.3 24.4 L 196.1 24.4 C 196.1 24.4 196.14 13.88 196.1 13.9 C 196.1 12.3 195.5 11.4 194.1 11.4 C 192.8 11.4 191.6 12.6 190.9 13.8 C 190.95 13.76 190.9 24.4 190.9 24.4 L 188.8 24.4 L 188.8 9.9 L 190.9 9.9 C 190.9 9.9 190.95 11.96 190.9 12 C 191.5 10.9 193.2 9.5 194.9 9.5 C 196.8 9.5 197.9 10.6 198.2 12.1 C 198.9 10.8 200.5 9.5 202.3 9.5 C 204.4 9.5 205.6 10.7 205.6 13.3 C 205.62 13.31 205.6 24.4 205.6 24.4 L 203.5 24.4 Z M 208.9 6.3 C 208.9 5.5 209.5 4.8 210.3 4.8 C 211.1 4.8 211.8 5.5 211.8 6.3 C 211.8 7.1 211.1 7.8 210.3 7.8 C 209.5 7.8 208.9 7.1 208.9 6.3 Z M 209.3 24.4 L 209.3 9.9 L 211.4 9.9 L 211.4 24.4 L 209.3 24.4 Z M 222.9 24.4 C 222.9 24.4 222.89 22.37 222.9 22.4 C 222 23.6 220.5 24.7 218.7 24.7 C 216.2 24.7 215.1 23.5 215.1 20.9 C 215.06 20.87 215.1 9.9 215.1 9.9 L 217.2 9.9 C 217.2 9.9 217.19 20.24 217.2 20.2 C 217.2 22.2 218.1 22.8 219.5 22.8 C 220.9 22.8 222.3 21.8 222.9 20.6 C 222.89 20.57 222.9 9.9 222.9 9.9 L 225.1 9.9 L 225.1 24.4 L 222.9 24.4 Z M 243.4 24.4 C 243.4 24.4 243.35 13.88 243.4 13.9 C 243.4 12.3 242.7 11.4 241.3 11.4 C 240.1 11.4 238.8 12.6 238.2 13.8 C 238.19 13.76 238.2 24.4 238.2 24.4 L 236 24.4 C 236 24.4 236.03 13.88 236 13.9 C 236 12.3 235.4 11.4 234 11.4 C 232.7 11.4 231.5 12.6 230.8 13.8 C 230.84 13.76 230.8 24.4 230.8 24.4 L 228.7 24.4 L 228.7 9.9 L 230.8 9.9 C 230.8 9.9 230.84 11.96 230.8 12 C 231.4 10.9 233.1 9.5 234.8 9.5 C 236.7 9.5 237.8 10.6 238.1 12.1 C 238.8 10.8 240.4 9.5 242.2 9.5 C 244.3 9.5 245.5 10.7 245.5 13.3 C 245.51 13.31 245.5 24.4 245.5 24.4 L 243.4 24.4 Z M 259.6 24.4 L 259.6 15.9 L 253.5 4.4 L 256.1 4.4 L 260.8 13.6 L 265.6 4.4 L 268.2 4.4 L 262 15.9 L 262 24.4 L 259.6 24.4 Z M 266.5 17.1 C 266.5 12.9 268.7 9.5 272.4 9.5 C 276.2 9.5 278.1 12.9 278.1 17.2 C 278.12 17.18 278.1 17.8 278.1 17.8 C 278.1 17.8 268.73 17.84 268.7 17.8 C 268.8 20.7 270.3 22.9 272.9 22.9 C 274.2 22.9 275.5 22.3 276.4 21.2 C 276.4 21.2 277.5 22.4 277.5 22.4 C 276.3 23.9 274.7 24.7 272.7 24.7 C 268.9 24.7 266.5 21.6 266.5 17.1 Z M 272.4 11.3 C 269.8 11.3 268.8 14.1 268.7 16.2 C 268.7 16.2 276 16.2 276 16.2 C 276 14 275 11.3 272.4 11.3 Z M 281 24.4 L 281 4.4 L 283.1 4.4 L 283.1 24.4 L 281 24.4 Z M 286.8 24.4 L 286.8 4.4 L 288.9 4.4 L 288.9 24.4 L 286.8 24.4 Z M 291.8 17.1 C 291.8 13 293.9 9.5 297.7 9.5 C 301.6 9.5 303.6 13 303.6 17.1 C 303.6 21.2 301.6 24.7 297.7 24.7 C 293.9 24.7 291.8 21.2 291.8 17.1 Z M 301.4 17.1 C 301.4 14.2 300.3 11.4 297.7 11.4 C 295.2 11.4 294.1 14.2 294.1 17.1 C 294.1 20.1 295.2 22.8 297.7 22.8 C 300.3 22.8 301.4 20.1 301.4 17.1 Z M 317.2 24.4 L 314.2 12.7 L 311 24.4 L 308.8 24.4 L 305 9.9 L 307.2 9.9 L 310 21.5 L 313.1 9.9 L 315.1 9.9 L 318.2 21.5 L 321.1 9.9 L 323.3 9.9 L 319.5 24.4 L 317.2 24.4 Z " stroke="none" fill="#d3d2d2"/>  </g></svg>