<?xml version="1.0" standalone="no"?><!DOCTYPE svg PUBLIC "-//W3C//DTD SVG 1.1//EN" "http://www.w3.org/Graphics/SVG/1.1/DTD/svg11.dtd"><svg xmlns="http://www.w3.org/2000/svg" version="1.1" width="327px" height="44.3px" viewBox="0 0 327 44.3">  <desc>FEBRUARY 2019</desc>  <defs/>  <g id="Polygon133637">    <path d="M 69 23.7 L 69 3.7 L 80.5 3.7 L 80.5 7.2 L 73 7.2 L 73 11.8 L 80.3 11.8 L 80.3 15.3 L 73 15.3 L 73 23.7 L 69 23.7 Z M 83.2 23.7 L 83.2 3.7 L 94.7 3.7 L 94.7 7.2 L 87.2 7.2 L 87.2 11.8 L 94.4 11.8 L 94.4 15.3 L 87.2 15.3 L 87.2 20.2 L 94.7 20.2 L 94.7 23.7 L 83.2 23.7 Z M 97.6 23.7 L 97.6 3.7 C 97.6 3.7 105.91 3.69 105.9 3.7 C 109.5 3.7 111.2 6.1 111.2 8.8 C 111.2 11.3 109.8 12.9 108 13.4 C 110 13.7 111.5 15.8 111.5 18.3 C 111.5 21.3 109.8 23.7 106.2 23.7 C 106.18 23.7 97.6 23.7 97.6 23.7 Z M 107.1 9.5 C 107.1 8.1 106.4 7.2 104.9 7.2 C 104.95 7.2 101.6 7.2 101.6 7.2 L 101.6 11.8 C 101.6 11.8 104.95 11.79 104.9 11.8 C 106.4 11.8 107.1 10.9 107.1 9.5 Z M 107.4 17.7 C 107.4 16.3 106.6 15.3 105.1 15.3 C 105.1 15.27 101.6 15.3 101.6 15.3 L 101.6 20.2 C 101.6 20.2 105.1 20.19 105.1 20.2 C 106.6 20.2 107.4 19.3 107.4 17.7 Z M 123.6 23.7 L 120.5 16.5 L 118.4 16.5 L 118.4 23.7 L 114.4 23.7 L 114.4 3.7 C 114.4 3.7 121.84 3.69 121.8 3.7 C 125.5 3.7 127.9 6.3 127.9 10 C 127.9 13.5 126.1 15.2 124.4 15.7 C 124.45 15.75 128.1 23.7 128.1 23.7 L 123.6 23.7 Z M 123.8 10.1 C 123.8 8.3 122.8 7.2 121.2 7.2 C 121.24 7.23 118.4 7.2 118.4 7.2 L 118.4 12.9 C 118.4 12.9 121.24 12.93 121.2 12.9 C 122.8 12.9 123.8 11.8 123.8 10.1 Z M 130.9 16.8 C 130.9 16.8 130.9 3.7 130.9 3.7 L 134.9 3.7 C 134.9 3.7 134.95 16.83 134.9 16.8 C 134.9 19.2 136.1 20.5 138.3 20.5 C 140.4 20.5 141.6 19.2 141.6 16.8 C 141.58 16.83 141.6 3.7 141.6 3.7 L 145.6 3.7 C 145.6 3.7 145.63 16.8 145.6 16.8 C 145.6 21.4 142.8 24.1 138.3 24.1 C 133.7 24.1 130.9 21.4 130.9 16.8 Z M 159.1 23.7 L 158.2 20.2 L 152 20.2 L 151.1 23.7 L 146.8 23.7 L 152.7 3.7 L 157.6 3.7 L 163.5 23.7 L 159.1 23.7 Z M 155.1 7.9 L 152.9 16.6 L 157.4 16.6 L 155.1 7.9 Z M 174.5 23.7 L 171.4 16.5 L 169.2 16.5 L 169.2 23.7 L 165.2 23.7 L 165.2 3.7 C 165.2 3.7 172.69 3.69 172.7 3.7 C 176.3 3.7 178.8 6.3 178.8 10 C 178.8 13.5 176.9 15.2 175.3 15.7 C 175.3 15.75 178.9 23.7 178.9 23.7 L 174.5 23.7 Z M 174.7 10.1 C 174.7 8.3 173.6 7.2 172.1 7.2 C 172.09 7.23 169.2 7.2 169.2 7.2 L 169.2 12.9 C 169.2 12.9 172.09 12.93 172.1 12.9 C 173.6 12.9 174.7 11.8 174.7 10.1 Z M 185.6 23.7 L 185.6 15.4 L 179.4 3.7 L 183.8 3.7 L 187.6 11.7 L 191.3 3.7 L 195.8 3.7 L 189.6 15.4 L 189.6 23.7 L 185.6 23.7 Z M 203.3 23.7 C 203.3 23.7 203.29 20.46 203.3 20.5 C 210.6 13.3 212.1 11.8 212.1 9.5 C 212.1 7.9 211 7 209.5 7 C 207.7 7 206.3 7.8 205.2 9.2 C 205.2 9.2 202.8 6.7 202.8 6.7 C 204.4 4.5 206.8 3.4 209.5 3.4 C 213.4 3.4 216.2 5.7 216.2 9.4 C 216.2 12.5 214.2 15.1 209.2 20.2 C 209.23 20.16 216.3 20.2 216.3 20.2 L 216.3 23.7 L 203.3 23.7 Z M 218.6 13.7 C 218.6 8.5 220.7 3.4 225.6 3.4 C 230.6 3.4 232.7 8.5 232.7 13.7 C 232.7 18.8 230.6 24.1 225.6 24.1 C 220.7 24.1 218.6 18.8 218.6 13.7 Z M 228.6 13.7 C 228.6 9.8 228 7 225.6 7 C 223.3 7 222.7 9.8 222.7 13.7 C 222.7 17.5 223.3 20.5 225.6 20.5 C 228 20.5 228.6 17.5 228.6 13.7 Z M 239.3 23.7 L 239.3 8.9 L 236.3 12 L 233.9 9.6 L 239.8 3.7 L 243.3 3.7 L 243.3 23.7 L 239.3 23.7 Z M 246.8 21.9 C 246.8 21.9 248.7 18.9 248.7 18.9 C 249.5 19.9 250.4 20.5 251.8 20.5 C 254.4 20.5 255.8 17.6 255.8 14.5 C 255.8 14.3 255.8 14.3 255.8 14.1 C 255 15.5 253.4 16.7 251.6 16.7 C 248.6 16.7 245.9 14.4 245.9 10.2 C 245.9 6.3 248.6 3.4 252.5 3.4 C 257.8 3.4 259.9 8.1 259.9 13.7 C 259.9 19.7 257 24 251.9 24 C 249.8 24 247.9 23.2 246.8 21.9 Z M 255.8 11.2 C 255.7 9.3 255 6.9 252.8 6.9 C 250.9 6.9 250 8.5 250 10 C 250 12.4 251.4 13.2 252.8 13.2 C 254.1 13.2 255.1 12.3 255.8 11.2 Z " stroke="none" fill="#d3d2d2"/>  </g></svg>