<?xml version="1.0" standalone="no"?><!DOCTYPE svg PUBLIC "-//W3C//DTD SVG 1.1//EN" "http://www.w3.org/Graphics/SVG/1.1/DTD/svg11.dtd"><svg xmlns="http://www.w3.org/2000/svg" version="1.1" width="494px" height="475.3px" viewBox="0 0 494 475.3">  <desc>Acrylic paint, Burnt Sienna Acrylic paint, Process Black Acrylic paint, Titanium White Acrylic paint, Vermillion Cell</desc>  <defs/>  <g id="Polygon226101">    <path d="M 5.5 456.4 L 5.5 438.5 L 0.8 438.5 L 0.8 436.4 L 12.6 436.4 L 12.6 438.5 L 7.9 438.5 L 7.9 456.4 L 5.5 456.4 Z M 20.4 456.4 C 20.4 456.4 20.43 454.82 20.4 454.8 C 19.5 456.1 18.1 456.7 16.6 456.7 C 14.3 456.7 12.2 454.9 12.2 451.9 C 12.2 448.9 14.3 447.1 16.6 447.1 C 18.1 447.1 19.5 447.7 20.4 449 C 20.4 449 20.4 446.5 20.4 446.5 C 20.4 444.5 19.4 443.4 17.5 443.4 C 16.1 443.4 14.9 443.9 13.8 445.2 C 13.8 445.2 12.9 443.6 12.9 443.6 C 14.3 442.2 16 441.5 17.8 441.5 C 20.7 441.5 22.6 442.9 22.6 446.2 C 22.59 446.24 22.6 456.4 22.6 456.4 L 20.4 456.4 Z M 20.4 453.3 C 20.4 453.3 20.4 450.6 20.4 450.6 C 19.8 449.4 18.6 448.7 17.3 448.7 C 15.5 448.7 14.4 450.1 14.4 451.9 C 14.4 453.7 15.5 455.2 17.3 455.2 C 18.6 455.2 19.8 454.5 20.4 453.3 Z M 26.2 456.4 L 26.2 436.4 L 28.4 436.4 L 28.4 456.4 L 26.2 456.4 Z M 31.3 449.1 C 31.3 444.8 33.6 441.5 37.3 441.5 C 39.3 441.5 40.5 442.3 41.4 443.4 C 41.4 443.4 40.3 444.9 40.3 444.9 C 39.5 443.9 38.6 443.4 37.5 443.4 C 34.9 443.4 33.5 446 33.5 449.1 C 33.5 452.2 34.9 454.8 37.5 454.8 C 38.6 454.8 39.5 454.4 40.3 453.3 C 40.3 453.3 41.4 454.8 41.4 454.8 C 40.5 456 39.3 456.7 37.3 456.7 C 33.6 456.7 31.3 453.4 31.3 449.1 Z M 51.7 456.4 C 51.7 456.4 51.72 454.37 51.7 454.4 C 50.8 455.6 49.3 456.7 47.5 456.7 C 45.1 456.7 43.9 455.5 43.9 452.9 C 43.89 452.87 43.9 441.9 43.9 441.9 L 46 441.9 C 46 441.9 46.02 452.24 46 452.2 C 46 454.2 46.9 454.8 48.3 454.8 C 49.8 454.8 51.1 453.8 51.7 452.6 C 51.72 452.57 51.7 441.9 51.7 441.9 L 53.9 441.9 L 53.9 456.4 L 51.7 456.4 Z M 72.2 456.4 C 72.2 456.4 72.18 445.88 72.2 445.9 C 72.2 444.3 71.5 443.4 70.2 443.4 C 68.9 443.4 67.6 444.6 67 445.8 C 67.02 445.76 67 456.4 67 456.4 L 64.9 456.4 C 64.9 456.4 64.86 445.88 64.9 445.9 C 64.9 444.3 64.2 443.4 62.8 443.4 C 61.5 443.4 60.3 444.6 59.7 445.8 C 59.67 445.76 59.7 456.4 59.7 456.4 L 57.5 456.4 L 57.5 441.9 L 59.7 441.9 C 59.7 441.9 59.67 443.96 59.7 444 C 60.3 442.9 61.9 441.5 63.6 441.5 C 65.5 441.5 66.6 442.6 66.9 444.1 C 67.6 442.8 69.2 441.5 71 441.5 C 73.1 441.5 74.3 442.7 74.3 445.3 C 74.34 445.31 74.3 456.4 74.3 456.4 L 72.2 456.4 Z M 86.3 454.3 C 86.28 454.28 86.3 461.9 86.3 461.9 L 84.1 461.9 L 84.1 441.9 L 86.3 441.9 C 86.3 441.9 86.28 443.96 86.3 444 C 87.1 442.5 88.6 441.5 90.1 441.5 C 93.4 441.5 95.3 444.6 95.3 449.1 C 95.3 453.6 93.4 456.7 90.1 456.7 C 88.6 456.7 87.2 455.9 86.3 454.3 Z M 93 449.1 C 93 446 91.9 443.4 89.5 443.4 C 88.2 443.4 86.8 444.5 86.3 445.8 C 86.3 445.8 86.3 452.4 86.3 452.4 C 86.8 453.7 88.2 454.8 89.5 454.8 C 91.9 454.8 93 452.3 93 449.1 Z M 97.5 449.1 C 97.5 445 99.5 441.5 103.3 441.5 C 107.2 441.5 109.3 445 109.3 449.1 C 109.3 453.2 107.2 456.7 103.3 456.7 C 99.5 456.7 97.5 453.2 97.5 449.1 Z M 107 449.1 C 107 446.2 105.9 443.4 103.3 443.4 C 100.9 443.4 99.7 446.2 99.7 449.1 C 99.7 452.1 100.9 454.8 103.3 454.8 C 105.9 454.8 107 452.1 107 449.1 Z M 122.9 456.4 L 119.8 444.7 L 116.7 456.4 L 114.5 456.4 L 110.6 441.9 L 112.9 441.9 L 115.7 453.5 L 118.7 441.9 L 120.8 441.9 L 123.9 453.5 L 126.7 441.9 L 129 441.9 L 125.1 456.4 L 122.9 456.4 Z M 139.3 456.4 C 139.3 456.4 139.32 454.31 139.3 454.3 C 138.5 455.8 137 456.7 135.5 456.7 C 132.3 456.7 130.3 453.7 130.3 449.1 C 130.3 444.6 132.2 441.5 135.5 441.5 C 137 441.5 138.4 442.4 139.3 444 C 139.32 443.99 139.3 436.4 139.3 436.4 L 141.5 436.4 L 141.5 456.4 L 139.3 456.4 Z M 139.3 452.5 C 139.3 452.5 139.3 445.8 139.3 445.8 C 138.8 444.6 137.4 443.4 136 443.4 C 133.7 443.4 132.6 446 132.6 449.1 C 132.6 452.3 133.7 454.8 136 454.8 C 137.4 454.8 138.8 453.7 139.3 452.5 Z M 144.4 449.1 C 144.4 444.9 146.6 441.5 150.3 441.5 C 154.1 441.5 156 444.9 156 449.2 C 156.03 449.18 156 449.8 156 449.8 C 156 449.8 146.64 449.84 146.6 449.8 C 146.7 452.7 148.2 454.9 150.8 454.9 C 152.1 454.9 153.4 454.3 154.3 453.2 C 154.3 453.2 155.4 454.4 155.4 454.4 C 154.2 455.9 152.6 456.7 150.6 456.7 C 146.8 456.7 144.4 453.6 144.4 449.1 Z M 150.3 443.3 C 147.7 443.3 146.7 446.1 146.6 448.2 C 146.6 448.2 153.9 448.2 153.9 448.2 C 153.9 446 152.9 443.3 150.3 443.3 Z M 158.9 456.4 L 158.9 441.9 L 161 441.9 C 161 441.9 161.01 444.2 161 444.2 C 161.9 442.7 163.3 441.6 165.1 441.6 C 165.1 441.6 165.1 443.8 165.1 443.8 C 164.9 443.7 164.6 443.7 164.4 443.7 C 163.1 443.7 161.6 444.9 161 446.1 C 161.01 446.09 161 456.4 161 456.4 L 158.9 456.4 Z " stroke="none" fill="#d3d2d2"/>  </g>  <g id="Polygon226100">    <path d="M 2.1 420.4 L 2.1 400.4 C 2.1 400.4 8.19 400.37 8.2 400.4 C 11.8 400.4 13.7 403.1 13.7 406.4 C 13.7 409.6 11.8 412.4 8.2 412.4 C 8.19 412.37 4.5 412.4 4.5 412.4 L 4.5 420.4 L 2.1 420.4 Z M 11.3 406.4 C 11.3 404.1 10 402.5 7.9 402.5 C 7.95 402.47 4.5 402.5 4.5 402.5 L 4.5 410.3 C 4.5 410.3 7.95 410.27 7.9 410.3 C 10 410.3 11.3 408.6 11.3 406.4 Z M 15.1 413.1 C 15.1 409 17.1 405.5 20.9 405.5 C 24.8 405.5 26.9 409 26.9 413.1 C 26.9 417.2 24.8 420.7 20.9 420.7 C 17.1 420.7 15.1 417.2 15.1 413.1 Z M 24.6 413.1 C 24.6 410.2 23.5 407.4 20.9 407.4 C 18.5 407.4 17.3 410.2 17.3 413.1 C 17.3 416.1 18.5 418.8 20.9 418.8 C 23.5 418.8 24.6 416.1 24.6 413.1 Z M 29.8 420.4 L 29.8 400.4 L 31.9 400.4 L 31.9 420.4 L 29.8 420.4 Z M 35.2 424.1 C 35.4 424.3 35.9 424.3 36.1 424.3 C 37 424.3 37.4 424 37.8 422.9 C 37.83 422.9 38.6 420.7 38.6 420.7 L 33.8 405.9 L 36.1 405.9 L 39.7 417.8 L 43.3 405.9 L 45.7 405.9 C 45.7 405.9 39.87 423.44 39.9 423.4 C 39.1 425.5 38 426.3 36.3 426.3 C 35.8 426.3 35.2 426.2 34.8 426 C 34.8 426 35.2 424.1 35.2 424.1 Z M 50.5 420.4 L 45.7 405.9 L 48.1 405.9 L 51.7 417.8 L 55.3 405.9 L 57.6 405.9 L 52.8 420.4 L 50.5 420.4 Z M 59 402.3 C 59 401.5 59.7 400.8 60.5 400.8 C 61.3 400.8 62 401.5 62 402.3 C 62 403.1 61.3 403.8 60.5 403.8 C 59.7 403.8 59 403.1 59 402.3 Z M 59.5 420.4 L 59.5 405.9 L 61.6 405.9 L 61.6 420.4 L 59.5 420.4 Z M 73.1 420.4 C 73.1 420.4 73.08 410.06 73.1 410.1 C 73.1 408.1 72.2 407.4 70.8 407.4 C 69.4 407.4 68 408.6 67.4 409.8 C 67.38 409.76 67.4 420.4 67.4 420.4 L 65.2 420.4 L 65.2 405.9 L 67.4 405.9 C 67.4 405.9 67.38 407.96 67.4 408 C 68.2 406.7 69.8 405.5 71.6 405.5 C 74 405.5 75.2 406.8 75.2 409.5 C 75.24 409.46 75.2 420.4 75.2 420.4 L 73.1 420.4 Z M 78.5 424.1 C 78.7 424.3 79.2 424.3 79.4 424.3 C 80.3 424.3 80.8 424 81.1 422.9 C 81.15 422.9 81.9 420.7 81.9 420.7 L 77.1 405.9 L 79.4 405.9 L 83 417.8 L 86.7 405.9 L 89 405.9 C 89 405.9 83.19 423.44 83.2 423.4 C 82.5 425.5 81.3 426.3 79.6 426.3 C 79.1 426.3 78.5 426.2 78.1 426 C 78.1 426 78.5 424.1 78.5 424.1 Z M 90.8 420.4 L 90.8 400.4 L 93 400.4 L 93 420.4 L 90.8 420.4 Z M 110.2 420.4 C 110.2 420.4 110.22 418.82 110.2 418.8 C 109.3 420.1 107.9 420.7 106.4 420.7 C 104.1 420.7 102 418.9 102 415.9 C 102 412.9 104 411.1 106.4 411.1 C 107.9 411.1 109.3 411.7 110.2 413 C 110.2 413 110.2 410.5 110.2 410.5 C 110.2 408.5 109.1 407.4 107.2 407.4 C 105.9 407.4 104.7 407.9 103.6 409.2 C 103.6 409.2 102.7 407.6 102.7 407.6 C 104 406.2 105.7 405.5 107.6 405.5 C 110.5 405.5 112.4 406.9 112.4 410.2 C 112.38 410.24 112.4 420.4 112.4 420.4 L 110.2 420.4 Z M 110.2 417.3 C 110.2 417.3 110.2 414.6 110.2 414.6 C 109.6 413.4 108.4 412.7 107.1 412.7 C 105.3 412.7 104.2 414.1 104.2 415.9 C 104.2 417.7 105.3 419.2 107.1 419.2 C 108.4 419.2 109.6 418.5 110.2 417.3 Z M 115.3 413.1 C 115.3 408.8 117.6 405.5 121.3 405.5 C 123.3 405.5 124.5 406.3 125.4 407.4 C 125.4 407.4 124.3 408.9 124.3 408.9 C 123.5 407.9 122.6 407.4 121.5 407.4 C 118.9 407.4 117.5 410 117.5 413.1 C 117.5 416.2 118.9 418.8 121.5 418.8 C 122.6 418.8 123.5 418.4 124.3 417.3 C 124.3 417.3 125.4 418.8 125.4 418.8 C 124.5 420 123.3 420.7 121.3 420.7 C 117.6 420.7 115.3 417.4 115.3 413.1 Z M 127.2 413.1 C 127.2 408.9 129.4 405.5 133 405.5 C 136.9 405.5 138.8 408.9 138.8 413.2 C 138.78 413.18 138.8 413.8 138.8 413.8 C 138.8 413.8 129.39 413.84 129.4 413.8 C 129.5 416.7 131 418.9 133.6 418.9 C 134.8 418.9 136.1 418.3 137 417.2 C 137 417.2 138.1 418.4 138.1 418.4 C 137 419.9 135.3 420.7 133.4 420.7 C 129.5 420.7 127.2 417.6 127.2 413.1 Z M 133 407.3 C 130.5 407.3 129.4 410.1 129.4 412.2 C 129.4 412.2 136.6 412.2 136.6 412.2 C 136.6 410 135.7 407.3 133 407.3 Z M 142 417.5 C 142.05 417.47 142 407.8 142 407.8 L 140.1 407.8 L 140.1 405.9 L 142 405.9 L 142 401.9 L 144.2 401.9 L 144.2 405.9 L 146.7 405.9 L 146.7 407.8 L 144.2 407.8 C 144.2 407.8 144.21 417.08 144.2 417.1 C 144.2 418.2 144.5 418.8 145.4 418.8 C 145.9 418.8 146.4 418.6 146.6 418.2 C 146.6 418.2 147.3 419.9 147.3 419.9 C 146.8 420.4 146.1 420.7 145 420.7 C 143 420.7 142 419.6 142 417.5 Z M 156.7 420.4 C 156.7 420.4 156.66 418.82 156.7 418.8 C 155.7 420.1 154.3 420.7 152.8 420.7 C 150.5 420.7 148.5 418.9 148.5 415.9 C 148.5 412.9 150.5 411.1 152.8 411.1 C 154.3 411.1 155.8 411.7 156.7 413 C 156.7 413 156.7 410.5 156.7 410.5 C 156.7 408.5 155.6 407.4 153.7 407.4 C 152.3 407.4 151.2 407.9 150.1 409.2 C 150.1 409.2 149.1 407.6 149.1 407.6 C 150.5 406.2 152.2 405.5 154 405.5 C 156.9 405.5 158.8 406.9 158.8 410.2 C 158.82 410.24 158.8 420.4 158.8 420.4 L 156.7 420.4 Z M 156.7 417.3 C 156.7 417.3 156.7 414.6 156.7 414.6 C 156 413.4 154.8 412.7 153.5 412.7 C 151.7 412.7 150.7 414.1 150.7 415.9 C 150.7 417.7 151.7 419.2 153.5 419.2 C 154.8 419.2 156 418.5 156.7 417.3 Z M 162.9 417.5 C 162.87 417.47 162.9 407.8 162.9 407.8 L 160.9 407.8 L 160.9 405.9 L 162.9 405.9 L 162.9 401.9 L 165 401.9 L 165 405.9 L 167.5 405.9 L 167.5 407.8 L 165 407.8 C 165 407.8 165.03 417.08 165 417.1 C 165 418.2 165.4 418.8 166.2 418.8 C 166.7 418.8 167.2 418.6 167.5 418.2 C 167.5 418.2 168.1 419.9 168.1 419.9 C 167.6 420.4 166.9 420.7 165.8 420.7 C 163.8 420.7 162.9 419.6 162.9 417.5 Z M 169.3 413.1 C 169.3 408.9 171.5 405.5 175.2 405.5 C 179 405.5 180.9 408.9 180.9 413.2 C 180.93 413.18 180.9 413.8 180.9 413.8 C 180.9 413.8 171.54 413.84 171.5 413.8 C 171.6 416.7 173.1 418.9 175.7 418.9 C 177 418.9 178.3 418.3 179.2 417.2 C 179.2 417.2 180.3 418.4 180.3 418.4 C 179.1 419.9 177.5 420.7 175.5 420.7 C 171.7 420.7 169.3 417.6 169.3 413.1 Z M 175.2 407.3 C 172.6 407.3 171.6 410.1 171.5 412.2 C 171.5 412.2 178.8 412.2 178.8 412.2 C 178.8 410 177.8 407.3 175.2 407.3 Z M 184.5 424.2 C 184.5 424.2 183.4 423.3 183.4 423.3 C 184.3 422.6 185.2 421.5 185.3 420.5 C 185.2 420.5 185 420.5 184.9 420.5 C 184.1 420.5 183.5 419.9 183.5 419.1 C 183.5 418.2 184.2 417.5 185.1 417.5 C 186 417.5 186.9 418.3 186.9 419.7 C 186.9 421.5 185.8 423.2 184.5 424.2 Z M 208.3 420.4 L 205.1 404.6 L 201.8 420.4 L 199.3 420.4 L 194.8 400.4 L 197.4 400.4 L 200.7 416.7 L 204.1 400.4 L 206.1 400.4 L 209.5 416.7 L 212.8 400.4 L 215.3 400.4 L 210.9 420.4 L 208.3 420.4 Z M 225.4 420.4 C 225.4 420.4 225.35 410.03 225.4 410 C 225.4 408.1 224.5 407.4 223 407.4 C 221.6 407.4 220.3 408.6 219.6 409.8 C 219.62 409.76 219.6 420.4 219.6 420.4 L 217.5 420.4 L 217.5 400.4 L 219.6 400.4 C 219.6 400.4 219.62 407.96 219.6 408 C 220.5 406.7 222.1 405.5 223.9 405.5 C 226.3 405.5 227.5 406.8 227.5 409.4 C 227.48 409.4 227.5 420.4 227.5 420.4 L 225.4 420.4 Z M 230.7 402.3 C 230.7 401.5 231.4 400.8 232.2 400.8 C 233 400.8 233.7 401.5 233.7 402.3 C 233.7 403.1 233 403.8 232.2 403.8 C 231.4 403.8 230.7 403.1 230.7 402.3 Z M 231.1 420.4 L 231.1 405.9 L 233.3 405.9 L 233.3 420.4 L 231.1 420.4 Z M 237.4 417.5 C 237.35 417.47 237.4 407.8 237.4 407.8 L 235.4 407.8 L 235.4 405.9 L 237.4 405.9 L 237.4 401.9 L 239.5 401.9 L 239.5 405.9 L 242 405.9 L 242 407.8 L 239.5 407.8 C 239.5 407.8 239.51 417.08 239.5 417.1 C 239.5 418.2 239.8 418.8 240.7 418.8 C 241.2 418.8 241.7 418.6 241.9 418.2 C 241.9 418.2 242.6 419.9 242.6 419.9 C 242.1 420.4 241.4 420.7 240.3 420.7 C 238.3 420.7 237.4 419.6 237.4 417.5 Z M 243.8 413.1 C 243.8 408.9 246 405.5 249.7 405.5 C 253.5 405.5 255.4 408.9 255.4 413.2 C 255.41 413.18 255.4 413.8 255.4 413.8 C 255.4 413.8 246.02 413.84 246 413.8 C 246.1 416.7 247.6 418.9 250.2 418.9 C 251.5 418.9 252.7 418.3 253.6 417.2 C 253.6 417.2 254.8 418.4 254.8 418.4 C 253.6 419.9 252 420.7 250 420.7 C 246.1 420.7 243.8 417.6 243.8 413.1 Z M 249.7 407.3 C 247.1 407.3 246.1 410.1 246 412.2 C 246 412.2 253.3 412.2 253.3 412.2 C 253.3 410 252.3 407.3 249.7 407.3 Z M 264.3 424.4 C 264.3 424.4 265.3 422.7 265.3 422.7 C 266.2 423.9 267.5 424.4 269.1 424.4 C 271 424.4 272.7 423.3 272.7 420.5 C 272.7 420.5 272.7 418.1 272.7 418.1 C 271.9 419.5 270.4 420.6 268.9 420.6 C 265.6 420.6 263.7 417.6 263.7 413.1 C 263.7 408.6 265.6 405.5 268.9 405.5 C 270.4 405.5 271.8 406.4 272.7 408 C 272.69 407.99 272.7 405.9 272.7 405.9 L 274.9 405.9 C 274.9 405.9 274.85 420.35 274.9 420.3 C 274.9 424.8 272.2 426.3 269.1 426.3 C 267.2 426.3 265.7 425.8 264.3 424.4 Z M 272.7 416.2 C 272.7 416.2 272.7 409.8 272.7 409.8 C 272.2 408.6 270.8 407.4 269.4 407.4 C 267.1 407.4 265.9 409.9 265.9 413.1 C 265.9 416.2 267.1 418.6 269.4 418.6 C 270.8 418.6 272.2 417.5 272.7 416.2 Z M 278.5 420.4 L 278.5 400.4 L 280.6 400.4 L 280.6 420.4 L 278.5 420.4 Z M 292.1 420.4 C 292.1 420.4 292.1 418.37 292.1 418.4 C 291.2 419.6 289.7 420.7 287.9 420.7 C 285.4 420.7 284.3 419.5 284.3 416.9 C 284.27 416.87 284.3 405.9 284.3 405.9 L 286.4 405.9 C 286.4 405.9 286.4 416.24 286.4 416.2 C 286.4 418.2 287.3 418.8 288.7 418.8 C 290.2 418.8 291.5 417.8 292.1 416.6 C 292.1 416.57 292.1 405.9 292.1 405.9 L 294.3 405.9 L 294.3 420.4 L 292.1 420.4 Z M 297.2 413.1 C 297.2 408.9 299.4 405.5 303.1 405.5 C 306.9 405.5 308.8 408.9 308.8 413.2 C 308.81 413.18 308.8 413.8 308.8 413.8 C 308.8 413.8 299.42 413.84 299.4 413.8 C 299.5 416.7 301 418.9 303.6 418.9 C 304.9 418.9 306.1 418.3 307 417.2 C 307 417.2 308.2 418.4 308.2 418.4 C 307 419.9 305.4 420.7 303.4 420.7 C 299.5 420.7 297.2 417.6 297.2 413.1 Z M 303.1 407.3 C 300.5 407.3 299.5 410.1 299.4 412.2 C 299.4 412.2 306.7 412.2 306.7 412.2 C 306.7 410 305.7 407.3 303.1 407.3 Z " stroke="none" fill="#d3d2d2"/>  </g>  <g id="Polygon226099">    <path d="M 2.1 384.4 L 2.1 364.4 C 2.1 364.4 8.19 364.37 8.2 364.4 C 11.8 364.4 13.7 367.1 13.7 370.4 C 13.7 373.6 11.8 376.4 8.2 376.4 C 8.19 376.37 4.5 376.4 4.5 376.4 L 4.5 384.4 L 2.1 384.4 Z M 11.3 370.4 C 11.3 368.1 10 366.5 7.9 366.5 C 7.95 366.47 4.5 366.5 4.5 366.5 L 4.5 374.3 C 4.5 374.3 7.95 374.27 7.9 374.3 C 10 374.3 11.3 372.6 11.3 370.4 Z M 15.1 377.1 C 15.1 373 17.1 369.5 20.9 369.5 C 24.8 369.5 26.9 373 26.9 377.1 C 26.9 381.2 24.8 384.7 20.9 384.7 C 17.1 384.7 15.1 381.2 15.1 377.1 Z M 24.6 377.1 C 24.6 374.2 23.5 371.4 20.9 371.4 C 18.5 371.4 17.3 374.2 17.3 377.1 C 17.3 380.1 18.5 382.8 20.9 382.8 C 23.5 382.8 24.6 380.1 24.6 377.1 Z M 29.8 384.4 L 29.8 364.4 L 31.9 364.4 L 31.9 384.4 L 29.8 384.4 Z M 35.2 388.1 C 35.4 388.3 35.9 388.3 36.1 388.3 C 37 388.3 37.4 388 37.8 386.9 C 37.83 386.9 38.6 384.7 38.6 384.7 L 33.8 369.9 L 36.1 369.9 L 39.7 381.8 L 43.3 369.9 L 45.7 369.9 C 45.7 369.9 39.87 387.44 39.9 387.4 C 39.1 389.5 38 390.3 36.3 390.3 C 35.8 390.3 35.2 390.2 34.8 390 C 34.8 390 35.2 388.1 35.2 388.1 Z M 46.8 377.1 C 46.8 372.9 49 369.5 52.7 369.5 C 56.5 369.5 58.4 372.9 58.4 377.2 C 58.41 377.18 58.4 377.8 58.4 377.8 C 58.4 377.8 49.02 377.84 49 377.8 C 49.1 380.7 50.6 382.9 53.2 382.9 C 54.4 382.9 55.7 382.3 56.6 381.2 C 56.6 381.2 57.8 382.4 57.8 382.4 C 56.6 383.9 55 384.7 53 384.7 C 49.1 384.7 46.8 381.6 46.8 377.1 Z M 52.6 371.3 C 50.1 371.3 49.1 374.1 49 376.2 C 49 376.2 56.3 376.2 56.3 376.2 C 56.2 374 55.3 371.3 52.6 371.3 Z M 60.1 382.7 C 60.1 382.7 61.2 381.2 61.2 381.2 C 62 382.2 63.4 383 64.9 383 C 66.6 383 67.7 382 67.7 380.7 C 67.7 377.3 60.5 378.4 60.5 373.4 C 60.5 371.3 62.2 369.5 65.1 369.5 C 67 369.5 68.5 370.3 69.5 371.4 C 69.5 371.4 68.5 372.9 68.5 372.9 C 67.8 371.9 66.6 371.3 65.2 371.3 C 63.6 371.3 62.6 372.2 62.6 373.4 C 62.6 376.5 69.8 375.4 69.8 380.6 C 69.8 383 67.9 384.7 65 384.7 C 62.9 384.7 61.3 384.1 60.1 382.7 Z M 73 381.5 C 72.99 381.47 73 371.8 73 371.8 L 71.1 371.8 L 71.1 369.9 L 73 369.9 L 73 365.9 L 75.1 365.9 L 75.1 369.9 L 77.6 369.9 L 77.6 371.8 L 75.1 371.8 C 75.1 371.8 75.15 381.08 75.1 381.1 C 75.1 382.2 75.5 382.8 76.3 382.8 C 76.9 382.8 77.3 382.6 77.6 382.2 C 77.6 382.2 78.2 383.9 78.2 383.9 C 77.7 384.4 77 384.7 75.9 384.7 C 73.9 384.7 73 383.6 73 381.5 Z M 79.4 377.1 C 79.4 372.9 81.7 369.5 85.3 369.5 C 89.1 369.5 91 372.9 91 377.2 C 91.05 377.18 91 377.8 91 377.8 C 91 377.8 81.66 377.84 81.7 377.8 C 81.7 380.7 83.2 382.9 85.8 382.9 C 87.1 382.9 88.4 382.3 89.3 381.2 C 89.3 381.2 90.4 382.4 90.4 382.4 C 89.2 383.9 87.6 384.7 85.6 384.7 C 81.8 384.7 79.4 381.6 79.4 377.1 Z M 85.3 371.3 C 82.7 371.3 81.7 374.1 81.7 376.2 C 81.7 376.2 88.9 376.2 88.9 376.2 C 88.9 374 87.9 371.3 85.3 371.3 Z M 93.9 384.4 L 93.9 369.9 L 96 369.9 C 96 369.9 96.03 372.2 96 372.2 C 97 370.7 98.4 369.6 100.1 369.6 C 100.1 369.6 100.1 371.8 100.1 371.8 C 99.9 371.7 99.7 371.7 99.4 371.7 C 98.1 371.7 96.6 372.9 96 374.1 C 96.03 374.09 96 384.4 96 384.4 L 93.9 384.4 Z M 109 384.4 L 109 371.8 L 107.1 371.8 L 107.1 369.9 L 109 369.9 C 109 369.9 108.99 368.12 109 368.1 C 109 365.6 110.4 364.1 112.5 364.1 C 113.3 364.1 113.9 364.2 114.4 364.5 C 114.4 364.5 113.8 366.2 113.8 366.2 C 113.6 366 113.3 365.9 112.9 365.9 C 111.8 365.9 111.1 366.7 111.1 368.1 C 111.15 368.12 111.1 369.9 111.1 369.9 L 113.6 369.9 L 113.6 371.8 L 111.1 371.8 L 111.1 384.4 L 109 384.4 Z M 115.7 366.3 C 115.7 365.5 116.4 364.8 117.1 364.8 C 118 364.8 118.6 365.5 118.6 366.3 C 118.6 367.1 118 367.8 117.1 367.8 C 116.4 367.8 115.7 367.1 115.7 366.3 Z M 116.1 384.4 L 116.1 369.9 L 118.2 369.9 L 118.2 384.4 L 116.1 384.4 Z M 127.3 382.8 C 129.7 382.8 130.8 380.3 130.8 377.1 C 130.8 374 129.7 371.4 127.3 371.4 C 125.9 371.4 124.6 372.6 124 373.8 C 124 373.8 124 380.5 124 380.5 C 124.6 381.7 125.9 382.8 127.3 382.8 Z M 121.9 384.4 L 121.9 364.4 L 124 364.4 C 124 364.4 124.02 371.99 124 372 C 124.9 370.4 126.4 369.5 127.8 369.5 C 131.1 369.5 133 372.6 133 377.1 C 133 381.7 131.1 384.7 127.8 384.7 C 126.3 384.7 124.9 383.8 124 382.3 C 124.02 382.31 124 384.4 124 384.4 L 121.9 384.4 Z M 136 384.4 L 136 369.9 L 138.1 369.9 C 138.1 369.9 138.12 372.2 138.1 372.2 C 139 370.7 140.5 369.6 142.2 369.6 C 142.2 369.6 142.2 371.8 142.2 371.8 C 142 371.7 141.7 371.7 141.5 371.7 C 140.2 371.7 138.7 372.9 138.1 374.1 C 138.12 374.09 138.1 384.4 138.1 384.4 L 136 384.4 Z M 143.7 377.1 C 143.7 372.9 145.9 369.5 149.6 369.5 C 153.4 369.5 155.3 372.9 155.3 377.2 C 155.31 377.18 155.3 377.8 155.3 377.8 C 155.3 377.8 145.92 377.84 145.9 377.8 C 146 380.7 147.5 382.9 150.1 382.9 C 151.3 382.9 152.6 382.3 153.5 381.2 C 153.5 381.2 154.7 382.4 154.7 382.4 C 153.5 383.9 151.9 384.7 149.9 384.7 C 146 384.7 143.7 381.6 143.7 377.1 Z M 149.5 371.3 C 147 371.3 146 374.1 145.9 376.2 C 145.9 376.2 153.2 376.2 153.2 376.2 C 153.1 374 152.2 371.3 149.5 371.3 Z M 163.1 382.7 C 163.1 382.7 164.2 381.2 164.2 381.2 C 165.1 382.2 166.4 383 168 383 C 169.7 383 170.8 382 170.8 380.7 C 170.8 377.3 163.6 378.4 163.6 373.4 C 163.6 371.3 165.3 369.5 168.2 369.5 C 170.1 369.5 171.6 370.3 172.6 371.4 C 172.6 371.4 171.6 372.9 171.6 372.9 C 170.8 371.9 169.6 371.3 168.2 371.3 C 166.6 371.3 165.6 372.2 165.6 373.4 C 165.6 376.5 172.9 375.4 172.9 380.6 C 172.9 383 171 384.7 168 384.7 C 166 384.7 164.3 384.1 163.1 382.7 Z M 176 381.5 C 176.04 381.47 176 371.8 176 371.8 L 174.1 371.8 L 174.1 369.9 L 176 369.9 L 176 365.9 L 178.2 365.9 L 178.2 369.9 L 180.7 369.9 L 180.7 371.8 L 178.2 371.8 C 178.2 371.8 178.2 381.08 178.2 381.1 C 178.2 382.2 178.5 382.8 179.4 382.8 C 179.9 382.8 180.4 382.6 180.6 382.2 C 180.6 382.2 181.3 383.9 181.3 383.9 C 180.8 384.4 180.1 384.7 178.9 384.7 C 177 384.7 176 383.6 176 381.5 Z M 191 384.4 C 191 384.4 191.03 382.37 191 382.4 C 190.2 383.6 188.6 384.7 186.8 384.7 C 184.4 384.7 183.2 383.5 183.2 380.9 C 183.2 380.87 183.2 369.9 183.2 369.9 L 185.3 369.9 C 185.3 369.9 185.33 380.24 185.3 380.2 C 185.3 382.2 186.2 382.8 187.6 382.8 C 189.1 382.8 190.4 381.8 191 380.6 C 191.03 380.57 191 369.9 191 369.9 L 193.2 369.9 L 193.2 384.4 L 191 384.4 Z M 205 384.4 L 205 371.8 L 203.1 371.8 L 203.1 369.9 L 205 369.9 C 205 369.9 204.98 368.12 205 368.1 C 205 365.6 206.4 364.1 208.5 364.1 C 209.3 364.1 209.9 364.2 210.4 364.5 C 210.4 364.5 209.8 366.2 209.8 366.2 C 209.6 366 209.3 365.9 208.9 365.9 C 207.8 365.9 207.1 366.7 207.1 368.1 C 207.14 368.12 207.1 369.9 207.1 369.9 L 209.6 369.9 L 209.6 371.8 L 207.1 371.8 L 207.1 384.4 L 205 384.4 Z M 211.6 366.3 C 211.6 365.5 212.3 364.8 213.1 364.8 C 213.9 364.8 214.6 365.5 214.6 366.3 C 214.6 367.1 213.9 367.8 213.1 367.8 C 212.3 367.8 211.6 367.1 211.6 366.3 Z M 212.1 384.4 L 212.1 369.9 L 214.2 369.9 L 214.2 384.4 L 212.1 384.4 Z M 197.4 384.4 L 197.4 371.8 L 195.4 371.8 L 195.4 369.9 L 197.4 369.9 C 197.4 369.9 197.36 368.12 197.4 368.1 C 197.4 365.6 198.7 364.1 201 364.1 C 202 364.1 202.9 364.3 203.6 365 C 203.6 365 202.7 366.6 202.7 366.6 C 202.3 366.1 201.9 365.9 201.3 365.9 C 200.1 365.9 199.5 366.7 199.5 368.1 C 199.52 368.12 199.5 369.9 199.5 369.9 L 202 369.9 L 202 371.8 L 199.5 371.8 L 199.5 384.4 L 197.4 384.4 Z M 225.7 384.4 C 225.7 384.4 225.68 374.06 225.7 374.1 C 225.7 372.1 224.8 371.4 223.4 371.4 C 222 371.4 220.6 372.6 220 373.8 C 219.98 373.76 220 384.4 220 384.4 L 217.9 384.4 L 217.9 369.9 L 220 369.9 C 220 369.9 219.98 371.96 220 372 C 220.8 370.7 222.4 369.5 224.2 369.5 C 226.6 369.5 227.8 370.8 227.8 373.5 C 227.84 373.46 227.8 384.4 227.8 384.4 L 225.7 384.4 Z M 231.4 388.4 C 231.4 388.4 232.4 386.7 232.4 386.7 C 233.3 387.9 234.6 388.4 236.2 388.4 C 238.1 388.4 239.8 387.3 239.8 384.5 C 239.8 384.5 239.8 382.1 239.8 382.1 C 238.9 383.5 237.5 384.6 236 384.6 C 232.7 384.6 230.8 381.6 230.8 377.1 C 230.8 372.6 232.7 369.5 236 369.5 C 237.4 369.5 238.9 370.4 239.8 372 C 239.78 371.99 239.8 369.9 239.8 369.9 L 241.9 369.9 C 241.9 369.9 241.94 384.35 241.9 384.3 C 241.9 388.8 239.2 390.3 236.2 390.3 C 234.3 390.3 232.8 389.8 231.4 388.4 Z M 239.8 380.2 C 239.8 380.2 239.8 373.8 239.8 373.8 C 239.2 372.6 237.9 371.4 236.5 371.4 C 234.1 371.4 233 373.9 233 377.1 C 233 380.2 234.1 382.6 236.5 382.6 C 237.9 382.6 239.2 381.5 239.8 380.2 Z " stroke="none" fill="#d3d2d2"/>  </g>  <g id="Polygon226098">    <path d="M 2.1 348.4 L 2.1 328.4 L 12.4 328.4 L 12.4 330.5 L 4.5 330.5 L 4.5 337.1 L 12.2 337.1 L 12.2 339.2 L 4.5 339.2 L 4.5 346.2 L 12.4 346.2 L 12.4 348.4 L 2.1 348.4 Z M 22.9 348.4 L 19.6 342.6 L 16.3 348.4 L 13.9 348.4 L 18.3 341 L 14.1 333.9 L 16.5 333.9 L 19.6 339.4 L 22.7 333.9 L 25.1 333.9 L 20.9 341 L 25.3 348.4 L 22.9 348.4 Z M 27.8 345.5 C 27.81 345.47 27.8 335.8 27.8 335.8 L 25.9 335.8 L 25.9 333.9 L 27.8 333.9 L 27.8 329.9 L 30 329.9 L 30 333.9 L 32.4 333.9 L 32.4 335.8 L 30 335.8 C 30 335.8 29.97 345.08 30 345.1 C 30 346.2 30.3 346.8 31.1 346.8 C 31.7 346.8 32.1 346.6 32.4 346.2 C 32.4 346.2 33.1 347.9 33.1 347.9 C 32.5 348.4 31.8 348.7 30.7 348.7 C 28.7 348.7 27.8 347.6 27.8 345.5 Z M 35 348.4 L 35 333.9 L 37.1 333.9 C 37.1 333.9 37.11 336.2 37.1 336.2 C 38 334.7 39.4 333.6 41.2 333.6 C 41.2 333.6 41.2 335.8 41.2 335.8 C 41 335.7 40.7 335.7 40.5 335.7 C 39.2 335.7 37.7 336.9 37.1 338.1 C 37.11 338.09 37.1 348.4 37.1 348.4 L 35 348.4 Z M 51.2 348.4 C 51.2 348.4 51.24 346.37 51.2 346.4 C 50.4 347.6 48.8 348.7 47 348.7 C 44.6 348.7 43.4 347.5 43.4 344.9 C 43.41 344.87 43.4 333.9 43.4 333.9 L 45.5 333.9 C 45.5 333.9 45.54 344.24 45.5 344.2 C 45.5 346.2 46.4 346.8 47.8 346.8 C 49.3 346.8 50.6 345.8 51.2 344.6 C 51.24 344.57 51.2 333.9 51.2 333.9 L 53.4 333.9 L 53.4 348.4 L 51.2 348.4 Z M 65.3 348.4 C 65.3 348.4 65.34 346.31 65.3 346.3 C 64.5 347.8 63.1 348.7 61.5 348.7 C 58.3 348.7 56.3 345.7 56.3 341.1 C 56.3 336.6 58.3 333.5 61.5 333.5 C 63 333.5 64.5 334.4 65.3 336 C 65.34 335.99 65.3 328.4 65.3 328.4 L 67.5 328.4 L 67.5 348.4 L 65.3 348.4 Z M 65.3 344.5 C 65.3 344.5 65.3 337.8 65.3 337.8 C 64.8 336.6 63.4 335.4 62.1 335.4 C 59.7 335.4 58.6 338 58.6 341.1 C 58.6 344.3 59.7 346.8 62.1 346.8 C 63.4 346.8 64.8 345.7 65.3 344.5 Z M 70.4 341.1 C 70.4 336.9 72.7 333.5 76.3 333.5 C 80.1 333.5 82 336.9 82 341.2 C 82.05 341.18 82 341.8 82 341.8 C 82 341.8 72.66 341.84 72.7 341.8 C 72.7 344.7 74.2 346.9 76.8 346.9 C 78.1 346.9 79.4 346.3 80.3 345.2 C 80.3 345.2 81.4 346.4 81.4 346.4 C 80.2 347.9 78.6 348.7 76.6 348.7 C 72.8 348.7 70.4 345.6 70.4 341.1 Z M 76.3 335.3 C 73.7 335.3 72.7 338.1 72.7 340.2 C 72.7 340.2 79.9 340.2 79.9 340.2 C 79.9 338 78.9 335.3 76.3 335.3 Z M 93.2 348.4 C 93.2 348.4 93.18 346.31 93.2 346.3 C 92.3 347.8 90.9 348.7 89.4 348.7 C 86.1 348.7 84.2 345.7 84.2 341.1 C 84.2 336.6 86.1 333.5 89.4 333.5 C 90.8 333.5 92.3 334.4 93.2 336 C 93.18 335.99 93.2 328.4 93.2 328.4 L 95.3 328.4 L 95.3 348.4 L 93.2 348.4 Z M 93.2 344.5 C 93.2 344.5 93.2 337.8 93.2 337.8 C 92.6 336.6 91.3 335.4 89.9 335.4 C 87.5 335.4 86.4 338 86.4 341.1 C 86.4 344.3 87.5 346.8 89.9 346.8 C 91.3 346.8 92.6 345.7 93.2 344.5 Z M 107.3 346.3 C 107.28 346.28 107.3 353.9 107.3 353.9 L 105.1 353.9 L 105.1 333.9 L 107.3 333.9 C 107.3 333.9 107.28 335.96 107.3 336 C 108.1 334.5 109.6 333.5 111.1 333.5 C 114.4 333.5 116.3 336.6 116.3 341.1 C 116.3 345.6 114.4 348.7 111.1 348.7 C 109.6 348.7 108.2 347.9 107.3 346.3 Z M 114 341.1 C 114 338 112.9 335.4 110.5 335.4 C 109.2 335.4 107.8 336.5 107.3 337.8 C 107.3 337.8 107.3 344.4 107.3 344.4 C 107.8 345.7 109.2 346.8 110.5 346.8 C 112.9 346.8 114 344.3 114 341.1 Z M 118.5 341.1 C 118.5 337 120.5 333.5 124.3 333.5 C 128.2 333.5 130.3 337 130.3 341.1 C 130.3 345.2 128.2 348.7 124.3 348.7 C 120.5 348.7 118.5 345.2 118.5 341.1 Z M 128 341.1 C 128 338.2 126.9 335.4 124.3 335.4 C 121.9 335.4 120.7 338.2 120.7 341.1 C 120.7 344.1 121.9 346.8 124.3 346.8 C 126.9 346.8 128 344.1 128 341.1 Z M 133.2 348.4 L 133.2 328.4 L 135.3 328.4 L 135.3 348.4 L 133.2 348.4 Z M 138.6 352.1 C 138.8 352.3 139.3 352.3 139.5 352.3 C 140.4 352.3 140.8 352 141.2 350.9 C 141.24 350.9 142 348.7 142 348.7 L 137.2 333.9 L 139.5 333.9 L 143.1 345.8 L 146.8 333.9 L 149.1 333.9 C 149.1 333.9 143.28 351.44 143.3 351.4 C 142.6 353.5 141.4 354.3 139.7 354.3 C 139.2 354.3 138.6 354.2 138.2 354 C 138.2 354 138.6 352.1 138.6 352.1 Z M 149.8 346.7 C 149.8 346.7 150.8 345.2 150.8 345.2 C 151.7 346.2 153.1 347 154.6 347 C 156.3 347 157.4 346 157.4 344.7 C 157.4 341.3 150.2 342.4 150.2 337.4 C 150.2 335.3 151.9 333.5 154.8 333.5 C 156.7 333.5 158.2 334.3 159.2 335.4 C 159.2 335.4 158.2 336.9 158.2 336.9 C 157.5 335.9 156.2 335.3 154.8 335.3 C 153.2 335.3 152.2 336.2 152.2 337.4 C 152.2 340.5 159.5 339.4 159.5 344.6 C 159.5 347 157.6 348.7 154.6 348.7 C 152.6 348.7 151 348.1 149.8 346.7 Z M 162.7 345.5 C 162.66 345.47 162.7 335.8 162.7 335.8 L 160.7 335.8 L 160.7 333.9 L 162.7 333.9 L 162.7 329.9 L 164.8 329.9 L 164.8 333.9 L 167.3 333.9 L 167.3 335.8 L 164.8 335.8 C 164.8 335.8 164.82 345.08 164.8 345.1 C 164.8 346.2 165.1 346.8 166 346.8 C 166.5 346.8 167 346.6 167.2 346.2 C 167.2 346.2 167.9 347.9 167.9 347.9 C 167.4 348.4 166.7 348.7 165.6 348.7 C 163.6 348.7 162.7 347.6 162.7 345.5 Z M 169.4 352.1 C 169.7 352.3 170.1 352.3 170.4 352.3 C 171.2 352.3 171.7 352 172.1 350.9 C 172.08 350.9 172.9 348.7 172.9 348.7 L 168 333.9 L 170.4 333.9 L 174 345.8 L 177.6 333.9 L 179.9 333.9 C 179.9 333.9 174.12 351.44 174.1 351.4 C 173.4 353.5 172.2 354.3 170.5 354.3 C 170.1 354.3 169.4 354.2 169.1 354 C 169.1 354 169.4 352.1 169.4 352.1 Z M 181.8 348.4 L 181.8 333.9 L 183.9 333.9 C 183.9 333.9 183.9 336.2 183.9 336.2 C 184.8 334.7 186.2 333.6 188 333.6 C 188 333.6 188 335.8 188 335.8 C 187.8 335.7 187.5 335.7 187.3 335.7 C 186 335.7 184.5 336.9 183.9 338.1 C 183.9 338.09 183.9 348.4 183.9 348.4 L 181.8 348.4 Z M 189.5 341.1 C 189.5 336.9 191.7 333.5 195.4 333.5 C 199.2 333.5 201.1 336.9 201.1 341.2 C 201.09 341.18 201.1 341.8 201.1 341.8 C 201.1 341.8 191.7 341.84 191.7 341.8 C 191.8 344.7 193.3 346.9 195.9 346.9 C 197.1 346.9 198.4 346.3 199.3 345.2 C 199.3 345.2 200.5 346.4 200.5 346.4 C 199.3 347.9 197.6 348.7 195.7 348.7 C 191.8 348.7 189.5 345.6 189.5 341.1 Z M 195.3 335.3 C 192.8 335.3 191.8 338.1 191.7 340.2 C 191.7 340.2 199 340.2 199 340.2 C 198.9 338 198 335.3 195.3 335.3 Z M 211.8 348.4 C 211.8 348.4 211.77 338.06 211.8 338.1 C 211.8 336.1 210.9 335.4 209.5 335.4 C 208 335.4 206.7 336.6 206.1 337.8 C 206.07 337.76 206.1 348.4 206.1 348.4 L 203.9 348.4 L 203.9 333.9 L 206.1 333.9 C 206.1 333.9 206.07 335.96 206.1 336 C 206.9 334.7 208.5 333.5 210.3 333.5 C 212.7 333.5 213.9 334.8 213.9 337.5 C 213.93 337.46 213.9 348.4 213.9 348.4 L 211.8 348.4 Z M 216.9 341.1 C 216.9 336.9 219.1 333.5 222.7 333.5 C 226.6 333.5 228.5 336.9 228.5 341.2 C 228.47 341.18 228.5 341.8 228.5 341.8 C 228.5 341.8 219.08 341.84 219.1 341.8 C 219.2 344.7 220.7 346.9 223.3 346.9 C 224.5 346.9 225.8 346.3 226.7 345.2 C 226.7 345.2 227.8 346.4 227.8 346.4 C 226.7 347.9 225 348.7 223.1 348.7 C 219.2 348.7 216.9 345.6 216.9 341.1 Z M 222.7 335.3 C 220.2 335.3 219.1 338.1 219.1 340.2 C 219.1 340.2 226.3 340.2 226.3 340.2 C 226.3 338 225.4 335.3 222.7 335.3 Z " stroke="none" fill="#d3d2d2"/>  </g>  <g id="Polygon226097">    <path d="M 2.1 312.4 L 2.1 292.4 L 12.4 292.4 L 12.4 294.5 L 4.5 294.5 L 4.5 301.1 L 12.2 301.1 L 12.2 303.2 L 4.5 303.2 L 4.5 310.2 L 12.4 310.2 L 12.4 312.4 L 2.1 312.4 Z M 15.9 309.5 C 15.93 309.47 15.9 299.8 15.9 299.8 L 14 299.8 L 14 297.9 L 15.9 297.9 L 15.9 293.9 L 18.1 293.9 L 18.1 297.9 L 20.5 297.9 L 20.5 299.8 L 18.1 299.8 C 18.1 299.8 18.09 309.08 18.1 309.1 C 18.1 310.2 18.4 310.8 19.3 310.8 C 19.8 310.8 20.2 310.6 20.5 310.2 C 20.5 310.2 21.2 311.9 21.2 311.9 C 20.7 312.4 19.9 312.7 18.8 312.7 C 16.9 312.7 15.9 311.6 15.9 309.5 Z M 31 312.4 C 31 312.4 30.96 302.03 31 302 C 31 300.1 30.1 299.4 28.6 299.4 C 27.2 299.4 25.9 300.6 25.2 301.8 C 25.23 301.76 25.2 312.4 25.2 312.4 L 23.1 312.4 L 23.1 292.4 L 25.2 292.4 C 25.2 292.4 25.23 299.96 25.2 300 C 26.1 298.7 27.7 297.5 29.5 297.5 C 31.9 297.5 33.1 298.8 33.1 301.4 C 33.09 301.4 33.1 312.4 33.1 312.4 L 31 312.4 Z M 36.3 316.1 C 36.6 316.3 37 316.3 37.3 316.3 C 38.1 316.3 38.6 316 39 314.9 C 39 314.9 39.8 312.7 39.8 312.7 L 34.9 297.9 L 37.3 297.9 L 40.9 309.8 L 44.5 297.9 L 46.8 297.9 C 46.8 297.9 41.04 315.44 41 315.4 C 40.3 317.5 39.1 318.3 37.4 318.3 C 37 318.3 36.3 318.2 36 318 C 36 318 36.3 316.1 36.3 316.1 Z M 48.7 312.4 L 48.7 292.4 L 50.8 292.4 L 50.8 312.4 L 48.7 312.4 Z M 53.8 305.1 C 53.8 300.9 56 297.5 59.6 297.5 C 63.4 297.5 65.4 300.9 65.4 305.2 C 65.37 305.18 65.4 305.8 65.4 305.8 C 65.4 305.8 55.98 305.84 56 305.8 C 56.1 308.7 57.6 310.9 60.1 310.9 C 61.4 310.9 62.7 310.3 63.6 309.2 C 63.6 309.2 64.7 310.4 64.7 310.4 C 63.6 311.9 61.9 312.7 60 312.7 C 56.1 312.7 53.8 309.6 53.8 305.1 Z M 59.6 299.3 C 57.1 299.3 56 302.1 56 304.2 C 56 304.2 63.2 304.2 63.2 304.2 C 63.2 302 62.2 299.3 59.6 299.3 Z M 76 312.4 C 76 312.4 76.05 302.06 76 302.1 C 76 300.1 75.2 299.4 73.7 299.4 C 72.3 299.4 71 300.6 70.3 301.8 C 70.35 301.76 70.3 312.4 70.3 312.4 L 68.2 312.4 L 68.2 297.9 L 70.3 297.9 C 70.3 297.9 70.35 299.96 70.3 300 C 71.2 298.7 72.8 297.5 74.5 297.5 C 77 297.5 78.2 298.8 78.2 301.5 C 78.21 301.46 78.2 312.4 78.2 312.4 L 76 312.4 Z M 81.1 305.1 C 81.1 300.9 83.4 297.5 87 297.5 C 90.8 297.5 92.8 300.9 92.8 305.2 C 92.76 305.18 92.8 305.8 92.8 305.8 C 92.8 305.8 83.37 305.84 83.4 305.8 C 83.5 308.7 85 310.9 87.5 310.9 C 88.8 310.9 90.1 310.3 91 309.2 C 91 309.2 92.1 310.4 92.1 310.4 C 91 311.9 89.3 312.7 87.4 312.7 C 83.5 312.7 81.1 309.6 81.1 305.1 Z M 87 299.3 C 84.4 299.3 83.4 302.1 83.4 304.2 C 83.4 304.2 90.6 304.2 90.6 304.2 C 90.6 302 89.6 299.3 87 299.3 Z M 94.5 306.1 L 94.5 304.2 L 100.7 304.2 L 100.7 306.1 L 94.5 306.1 Z M 106.3 312.4 L 101.5 297.9 L 103.9 297.9 L 107.5 309.8 L 111.1 297.9 L 113.4 297.9 L 108.6 312.4 L 106.3 312.4 Z M 114.8 294.3 C 114.8 293.5 115.5 292.8 116.3 292.8 C 117.1 292.8 117.8 293.5 117.8 294.3 C 117.8 295.1 117.1 295.8 116.3 295.8 C 115.5 295.8 114.8 295.1 114.8 294.3 Z M 115.3 312.4 L 115.3 297.9 L 117.4 297.9 L 117.4 312.4 L 115.3 312.4 Z M 128.9 312.4 C 128.9 312.4 128.88 302.06 128.9 302.1 C 128.9 300.1 128 299.4 126.6 299.4 C 125.2 299.4 123.8 300.6 123.2 301.8 C 123.18 301.76 123.2 312.4 123.2 312.4 L 121 312.4 L 121 297.9 L 123.2 297.9 C 123.2 297.9 123.18 299.96 123.2 300 C 124 298.7 125.6 297.5 127.4 297.5 C 129.8 297.5 131 298.8 131 301.5 C 131.04 301.46 131 312.4 131 312.4 L 128.9 312.4 Z M 134.3 316.1 C 134.5 316.3 135 316.3 135.2 316.3 C 136.1 316.3 136.6 316 136.9 314.9 C 136.95 314.9 137.7 312.7 137.7 312.7 L 132.9 297.9 L 135.2 297.9 L 138.8 309.8 L 142.5 297.9 L 144.8 297.9 C 144.8 297.9 138.99 315.44 139 315.4 C 138.3 317.5 137.1 318.3 135.4 318.3 C 134.9 318.3 134.3 318.2 133.9 318 C 133.9 318 134.3 316.1 134.3 316.1 Z M 146.6 312.4 L 146.6 292.4 L 148.8 292.4 L 148.8 312.4 L 146.6 312.4 Z M 166 312.4 C 166 312.4 166.02 310.82 166 310.8 C 165.1 312.1 163.7 312.7 162.2 312.7 C 159.9 312.7 157.8 310.9 157.8 307.9 C 157.8 304.9 159.8 303.1 162.2 303.1 C 163.7 303.1 165.1 303.7 166 305 C 166 305 166 302.5 166 302.5 C 166 300.5 164.9 299.4 163 299.4 C 161.7 299.4 160.5 299.9 159.4 301.2 C 159.4 301.2 158.5 299.6 158.5 299.6 C 159.8 298.2 161.5 297.5 163.4 297.5 C 166.3 297.5 168.2 298.9 168.2 302.2 C 168.18 302.24 168.2 312.4 168.2 312.4 L 166 312.4 Z M 166 309.3 C 166 309.3 166 306.6 166 306.6 C 165.4 305.4 164.2 304.7 162.9 304.7 C 161.1 304.7 160 306.1 160 307.9 C 160 309.7 161.1 311.2 162.9 311.2 C 164.2 311.2 165.4 310.5 166 309.3 Z M 171.1 305.1 C 171.1 300.8 173.4 297.5 177.1 297.5 C 179.1 297.5 180.3 298.3 181.2 299.4 C 181.2 299.4 180.1 300.9 180.1 300.9 C 179.3 299.9 178.4 299.4 177.3 299.4 C 174.7 299.4 173.3 302 173.3 305.1 C 173.3 308.2 174.7 310.8 177.3 310.8 C 178.4 310.8 179.3 310.4 180.1 309.3 C 180.1 309.3 181.2 310.8 181.2 310.8 C 180.3 312 179.1 312.7 177.1 312.7 C 173.4 312.7 171.1 309.4 171.1 305.1 Z M 183 305.1 C 183 300.9 185.2 297.5 188.8 297.5 C 192.7 297.5 194.6 300.9 194.6 305.2 C 194.58 305.18 194.6 305.8 194.6 305.8 C 194.6 305.8 185.19 305.84 185.2 305.8 C 185.3 308.7 186.8 310.9 189.4 310.9 C 190.6 310.9 191.9 310.3 192.8 309.2 C 192.8 309.2 193.9 310.4 193.9 310.4 C 192.8 311.9 191.1 312.7 189.2 312.7 C 185.3 312.7 183 309.6 183 305.1 Z M 188.8 299.3 C 186.3 299.3 185.2 302.1 185.2 304.2 C 185.2 304.2 192.4 304.2 192.4 304.2 C 192.4 302 191.5 299.3 188.8 299.3 Z M 197.8 309.5 C 197.85 309.47 197.8 299.8 197.8 299.8 L 195.9 299.8 L 195.9 297.9 L 197.8 297.9 L 197.8 293.9 L 200 293.9 L 200 297.9 L 202.5 297.9 L 202.5 299.8 L 200 299.8 C 200 299.8 200.01 309.08 200 309.1 C 200 310.2 200.3 310.8 201.2 310.8 C 201.7 310.8 202.2 310.6 202.4 310.2 C 202.4 310.2 203.1 311.9 203.1 311.9 C 202.6 312.4 201.9 312.7 200.8 312.7 C 198.8 312.7 197.8 311.6 197.8 309.5 Z M 212.5 312.4 C 212.5 312.4 212.45 310.82 212.5 310.8 C 211.5 312.1 210.1 312.7 208.6 312.7 C 206.3 312.7 204.3 310.9 204.3 307.9 C 204.3 304.9 206.3 303.1 208.6 303.1 C 210.1 303.1 211.6 303.7 212.5 305 C 212.5 305 212.5 302.5 212.5 302.5 C 212.5 300.5 211.4 299.4 209.5 299.4 C 208.1 299.4 207 299.9 205.9 301.2 C 205.9 301.2 204.9 299.6 204.9 299.6 C 206.3 298.2 208 297.5 209.8 297.5 C 212.7 297.5 214.6 298.9 214.6 302.2 C 214.61 302.24 214.6 312.4 214.6 312.4 L 212.5 312.4 Z M 212.5 309.3 C 212.5 309.3 212.5 306.6 212.5 306.6 C 211.8 305.4 210.6 304.7 209.3 304.7 C 207.5 304.7 206.5 306.1 206.5 307.9 C 206.5 309.7 207.5 311.2 209.3 311.2 C 210.6 311.2 211.8 310.5 212.5 309.3 Z M 218.7 309.5 C 218.66 309.47 218.7 299.8 218.7 299.8 L 216.7 299.8 L 216.7 297.9 L 218.7 297.9 L 218.7 293.9 L 220.8 293.9 L 220.8 297.9 L 223.3 297.9 L 223.3 299.8 L 220.8 299.8 C 220.8 299.8 220.82 309.08 220.8 309.1 C 220.8 310.2 221.2 310.8 222 310.8 C 222.5 310.8 223 310.6 223.3 310.2 C 223.3 310.2 223.9 311.9 223.9 311.9 C 223.4 312.4 222.7 312.7 221.6 312.7 C 219.6 312.7 218.7 311.6 218.7 309.5 Z M 225.1 305.1 C 225.1 300.9 227.3 297.5 231 297.5 C 234.8 297.5 236.7 300.9 236.7 305.2 C 236.72 305.18 236.7 305.8 236.7 305.8 C 236.7 305.8 227.33 305.84 227.3 305.8 C 227.4 308.7 228.9 310.9 231.5 310.9 C 232.8 310.9 234.1 310.3 235 309.2 C 235 309.2 236.1 310.4 236.1 310.4 C 234.9 311.9 233.3 312.7 231.3 312.7 C 227.5 312.7 225.1 309.6 225.1 305.1 Z M 231 299.3 C 228.4 299.3 227.4 302.1 227.3 304.2 C 227.3 304.2 234.6 304.2 234.6 304.2 C 234.6 302 233.6 299.3 231 299.3 Z M 240.3 316.2 C 240.3 316.2 239.2 315.3 239.2 315.3 C 240.1 314.6 241 313.5 241.1 312.5 C 241 312.5 240.8 312.5 240.7 312.5 C 239.9 312.5 239.3 311.9 239.3 311.1 C 239.3 310.2 240 309.5 240.9 309.5 C 241.8 309.5 242.7 310.3 242.7 311.7 C 242.7 313.5 241.6 315.2 240.3 316.2 Z M 262.9 312.4 L 262.9 303.1 L 254.7 303.1 L 254.7 312.4 L 252.3 312.4 L 252.3 292.4 L 254.7 292.4 L 254.7 301 L 262.9 301 L 262.9 292.4 L 265.3 292.4 L 265.3 312.4 L 262.9 312.4 Z M 268.3 305.1 C 268.3 301 270.4 297.5 274.2 297.5 C 278.1 297.5 280.1 301 280.1 305.1 C 280.1 309.2 278.1 312.7 274.2 312.7 C 270.4 312.7 268.3 309.2 268.3 305.1 Z M 277.9 305.1 C 277.9 302.2 276.8 299.4 274.2 299.4 C 271.7 299.4 270.6 302.2 270.6 305.1 C 270.6 308.1 271.7 310.8 274.2 310.8 C 276.8 310.8 277.9 308.1 277.9 305.1 Z M 283.5 309.5 C 283.49 309.47 283.5 299.8 283.5 299.8 L 281.6 299.8 L 281.6 297.9 L 283.5 297.9 L 283.5 293.9 L 285.7 293.9 L 285.7 297.9 L 288.1 297.9 L 288.1 299.8 L 285.7 299.8 C 285.7 299.8 285.65 309.08 285.7 309.1 C 285.7 310.2 286 310.8 286.8 310.8 C 287.4 310.8 287.8 310.6 288.1 310.2 C 288.1 310.2 288.7 311.9 288.7 311.9 C 288.2 312.4 287.5 312.7 286.4 312.7 C 284.4 312.7 283.5 311.6 283.5 309.5 Z M 311.5 312.4 C 311.5 312.4 311.45 301.88 311.5 301.9 C 311.5 300.3 310.8 299.4 309.4 299.4 C 308.2 299.4 306.9 300.6 306.3 301.8 C 306.29 301.76 306.3 312.4 306.3 312.4 L 304.1 312.4 C 304.1 312.4 304.13 301.88 304.1 301.9 C 304.1 300.3 303.5 299.4 302.1 299.4 C 300.8 299.4 299.6 300.6 298.9 301.8 C 298.94 301.76 298.9 312.4 298.9 312.4 L 296.8 312.4 L 296.8 297.9 L 298.9 297.9 C 298.9 297.9 298.94 299.96 298.9 300 C 299.5 298.9 301.2 297.5 302.9 297.5 C 304.8 297.5 305.9 298.6 306.2 300.1 C 306.9 298.8 308.5 297.5 310.3 297.5 C 312.4 297.5 313.6 298.7 313.6 301.3 C 313.61 301.31 313.6 312.4 313.6 312.4 L 311.5 312.4 Z M 316.6 305.1 C 316.6 300.9 318.8 297.5 322.4 297.5 C 326.2 297.5 328.2 300.9 328.2 305.2 C 328.16 305.18 328.2 305.8 328.2 305.8 C 328.2 305.8 318.77 305.84 318.8 305.8 C 318.9 308.7 320.4 310.9 322.9 310.9 C 324.2 310.9 325.5 310.3 326.4 309.2 C 326.4 309.2 327.5 310.4 327.5 310.4 C 326.4 311.9 324.7 312.7 322.8 312.7 C 318.9 312.7 316.6 309.6 316.6 305.1 Z M 322.4 299.3 C 319.9 299.3 318.8 302.1 318.8 304.2 C 318.8 304.2 326 304.2 326 304.2 C 326 302 325 299.3 322.4 299.3 Z M 331 312.4 L 331 292.4 L 333.1 292.4 L 333.1 312.4 L 331 312.4 Z M 337.2 309.5 C 337.22 309.47 337.2 299.8 337.2 299.8 L 335.3 299.8 L 335.3 297.9 L 337.2 297.9 L 337.2 293.9 L 339.4 293.9 L 339.4 297.9 L 341.8 297.9 L 341.8 299.8 L 339.4 299.8 C 339.4 299.8 339.38 309.08 339.4 309.1 C 339.4 310.2 339.7 310.8 340.6 310.8 C 341.1 310.8 341.5 310.6 341.8 310.2 C 341.8 310.2 342.5 311.9 342.5 311.9 C 342 312.4 341.2 312.7 340.1 312.7 C 338.2 312.7 337.2 311.6 337.2 309.5 Z M 350.4 316.4 C 350.4 316.4 351.4 314.7 351.4 314.7 C 352.4 315.9 353.6 316.4 355.2 316.4 C 357.2 316.4 358.8 315.3 358.8 312.5 C 358.8 312.5 358.8 310.1 358.8 310.1 C 358 311.5 356.5 312.6 355 312.6 C 351.8 312.6 349.8 309.6 349.8 305.1 C 349.8 300.6 351.7 297.5 355 297.5 C 356.5 297.5 357.9 298.4 358.8 300 C 358.82 299.99 358.8 297.9 358.8 297.9 L 361 297.9 C 361 297.9 360.98 312.35 361 312.3 C 361 316.8 358.3 318.3 355.3 318.3 C 353.3 318.3 351.8 317.8 350.4 316.4 Z M 358.8 308.2 C 358.8 308.2 358.8 301.8 358.8 301.8 C 358.3 300.6 356.9 299.4 355.6 299.4 C 353.2 299.4 352.1 301.9 352.1 305.1 C 352.1 308.2 353.2 310.6 355.6 310.6 C 356.9 310.6 358.3 309.5 358.8 308.2 Z M 364.6 312.4 L 364.6 292.4 L 366.7 292.4 L 366.7 312.4 L 364.6 312.4 Z M 378.2 312.4 C 378.2 312.4 378.23 310.37 378.2 310.4 C 377.4 311.6 375.8 312.7 374 312.7 C 371.6 312.7 370.4 311.5 370.4 308.9 C 370.4 308.87 370.4 297.9 370.4 297.9 L 372.5 297.9 C 372.5 297.9 372.53 308.24 372.5 308.2 C 372.5 310.2 373.4 310.8 374.8 310.8 C 376.3 310.8 377.6 309.8 378.2 308.6 C 378.23 308.57 378.2 297.9 378.2 297.9 L 380.4 297.9 L 380.4 312.4 L 378.2 312.4 Z M 383.3 305.1 C 383.3 300.9 385.5 297.5 389.2 297.5 C 393 297.5 394.9 300.9 394.9 305.2 C 394.94 305.18 394.9 305.8 394.9 305.8 C 394.9 305.8 385.55 305.84 385.5 305.8 C 385.6 308.7 387.1 310.9 389.7 310.9 C 391 310.9 392.3 310.3 393.2 309.2 C 393.2 309.2 394.3 310.4 394.3 310.4 C 393.1 311.9 391.5 312.7 389.5 312.7 C 385.7 312.7 383.3 309.6 383.3 305.1 Z M 389.2 299.3 C 386.6 299.3 385.6 302.1 385.5 304.2 C 385.5 304.2 392.8 304.2 392.8 304.2 C 392.8 302 391.8 299.3 389.2 299.3 Z M 402.8 310.7 C 402.8 310.7 403.8 309.2 403.8 309.2 C 404.7 310.2 406.1 311 407.6 311 C 409.3 311 410.4 310 410.4 308.7 C 410.4 305.3 403.2 306.4 403.2 301.4 C 403.2 299.3 404.9 297.5 407.8 297.5 C 409.7 297.5 411.2 298.3 412.2 299.4 C 412.2 299.4 411.2 300.9 411.2 300.9 C 410.5 299.9 409.2 299.3 407.8 299.3 C 406.2 299.3 405.3 300.2 405.3 301.4 C 405.3 304.5 412.5 303.4 412.5 308.6 C 412.5 311 410.6 312.7 407.7 312.7 C 405.6 312.7 404 312.1 402.8 310.7 Z M 415.7 309.5 C 415.67 309.47 415.7 299.8 415.7 299.8 L 413.7 299.8 L 413.7 297.9 L 415.7 297.9 L 415.7 293.9 L 417.8 293.9 L 417.8 297.9 L 420.3 297.9 L 420.3 299.8 L 417.8 299.8 C 417.8 299.8 417.83 309.08 417.8 309.1 C 417.8 310.2 418.2 310.8 419 310.8 C 419.5 310.8 420 310.6 420.3 310.2 C 420.3 310.2 420.9 311.9 420.9 311.9 C 420.4 312.4 419.7 312.7 418.6 312.7 C 416.6 312.7 415.7 311.6 415.7 309.5 Z M 422.4 294.3 C 422.4 293.5 423.1 292.8 423.9 292.8 C 424.7 292.8 425.4 293.5 425.4 294.3 C 425.4 295.1 424.7 295.8 423.9 295.8 C 423.1 295.8 422.4 295.1 422.4 294.3 Z M 422.8 312.4 L 422.8 297.9 L 425 297.9 L 425 312.4 L 422.8 312.4 Z M 427.9 305.1 C 427.9 300.8 430.2 297.5 433.9 297.5 C 435.9 297.5 437.1 298.3 438 299.4 C 438 299.4 436.9 300.9 436.9 300.9 C 436.1 299.9 435.2 299.4 434.1 299.4 C 431.5 299.4 430.2 302 430.2 305.1 C 430.2 308.2 431.5 310.8 434.1 310.8 C 435.2 310.8 436.1 310.4 436.9 309.3 C 436.9 309.3 438 310.8 438 310.8 C 437.1 312 435.9 312.7 433.9 312.7 C 430.2 312.7 427.9 309.4 427.9 305.1 Z M 448.7 312.4 L 444.7 305.8 L 442.6 308.4 L 442.6 312.4 L 440.5 312.4 L 440.5 292.4 L 442.6 292.4 L 442.6 305.7 L 448.7 297.9 L 451.2 297.9 L 446.1 304.4 L 451.2 312.4 L 448.7 312.4 Z M 452.2 310.7 C 452.2 310.7 453.3 309.2 453.3 309.2 C 454.1 310.2 455.5 311 457 311 C 458.7 311 459.8 310 459.8 308.7 C 459.8 305.3 452.6 306.4 452.6 301.4 C 452.6 299.3 454.3 297.5 457.2 297.5 C 459.1 297.5 460.6 298.3 461.6 299.4 C 461.6 299.4 460.6 300.9 460.6 300.9 C 459.9 299.9 458.7 299.3 457.2 299.3 C 455.7 299.3 454.7 300.2 454.7 301.4 C 454.7 304.5 461.9 303.4 461.9 308.6 C 461.9 311 460 312.7 457.1 312.7 C 455 312.7 453.4 312.1 452.2 310.7 Z " stroke="none" fill="#d3d2d2"/>  </g>  <g id="Polygon226096">    <path d="M 1.4 266.4 C 1.4 260.4 4.4 256 9.2 256 C 12.2 256 13.9 257.9 15 259.9 C 15 259.9 13 260.9 13 260.9 C 12.2 259.2 10.9 258.2 9.2 258.2 C 5.9 258.2 3.9 261.6 3.9 266.4 C 3.9 271.1 5.9 274.6 9.2 274.6 C 11 274.6 12.3 273.3 13.1 271.6 C 13.1 271.6 15.1 272.6 15.1 272.6 C 14 274.8 12.3 276.7 9.2 276.7 C 4.4 276.7 1.4 272.4 1.4 266.4 Z M 16.9 269.1 C 16.9 265 19 261.5 22.8 261.5 C 26.7 261.5 28.7 265 28.7 269.1 C 28.7 273.2 26.7 276.7 22.8 276.7 C 19 276.7 16.9 273.2 16.9 269.1 Z M 26.5 269.1 C 26.5 266.2 25.4 263.4 22.8 263.4 C 20.3 263.4 19.2 266.2 19.2 269.1 C 19.2 272.1 20.3 274.8 22.8 274.8 C 25.4 274.8 26.5 272.1 26.5 269.1 Z M 32.1 273.5 C 32.1 273.47 32.1 263.8 32.1 263.8 L 30.2 263.8 L 30.2 261.9 L 32.1 261.9 L 32.1 257.9 L 34.3 257.9 L 34.3 261.9 L 36.7 261.9 L 36.7 263.8 L 34.3 263.8 C 34.3 263.8 34.26 273.08 34.3 273.1 C 34.3 274.2 34.6 274.8 35.4 274.8 C 36 274.8 36.4 274.6 36.7 274.2 C 36.7 274.2 37.3 275.9 37.3 275.9 C 36.8 276.4 36.1 276.7 35 276.7 C 33 276.7 32.1 275.6 32.1 273.5 Z M 39.7 273.5 C 39.69 273.47 39.7 263.8 39.7 263.8 L 37.8 263.8 L 37.8 261.9 L 39.7 261.9 L 39.7 257.9 L 41.8 257.9 L 41.8 261.9 L 44.3 261.9 L 44.3 263.8 L 41.8 263.8 C 41.8 263.8 41.85 273.08 41.8 273.1 C 41.8 274.2 42.2 274.8 43 274.8 C 43.6 274.8 44 274.6 44.3 274.2 C 44.3 274.2 44.9 275.9 44.9 275.9 C 44.4 276.4 43.7 276.7 42.6 276.7 C 40.6 276.7 39.7 275.6 39.7 273.5 Z M 46.1 269.1 C 46.1 265 48.2 261.5 52 261.5 C 55.9 261.5 57.9 265 57.9 269.1 C 57.9 273.2 55.9 276.7 52 276.7 C 48.2 276.7 46.1 273.2 46.1 269.1 Z M 55.7 269.1 C 55.7 266.2 54.6 263.4 52 263.4 C 49.5 263.4 48.4 266.2 48.4 269.1 C 48.4 272.1 49.5 274.8 52 274.8 C 54.6 274.8 55.7 272.1 55.7 269.1 Z M 68.7 276.4 C 68.7 276.4 68.7 266.06 68.7 266.1 C 68.7 264.1 67.8 263.4 66.4 263.4 C 65 263.4 63.7 264.6 63 265.8 C 63 265.76 63 276.4 63 276.4 L 60.9 276.4 L 60.9 261.9 L 63 261.9 C 63 261.9 63 263.96 63 264 C 63.8 262.7 65.5 261.5 67.2 261.5 C 69.7 261.5 70.9 262.8 70.9 265.5 C 70.86 265.46 70.9 276.4 70.9 276.4 L 68.7 276.4 Z M 75.3 280.2 C 75.3 280.2 74.2 279.3 74.2 279.3 C 75.2 278.6 76 277.5 76.2 276.5 C 76.1 276.5 75.9 276.5 75.8 276.5 C 75 276.5 74.4 275.9 74.4 275.1 C 74.4 274.2 75 273.5 75.9 273.5 C 76.9 273.5 77.7 274.3 77.7 275.7 C 77.7 277.5 76.7 279.2 75.3 280.2 Z M 101.8 276.4 C 101.8 276.4 101.85 265.88 101.8 265.9 C 101.8 264.3 101.2 263.4 99.8 263.4 C 98.5 263.4 97.3 264.6 96.7 265.8 C 96.69 265.76 96.7 276.4 96.7 276.4 L 94.5 276.4 C 94.5 276.4 94.53 265.88 94.5 265.9 C 94.5 264.3 93.9 263.4 92.5 263.4 C 91.2 263.4 90 264.6 89.3 265.8 C 89.34 265.76 89.3 276.4 89.3 276.4 L 87.2 276.4 L 87.2 261.9 L 89.3 261.9 C 89.3 261.9 89.34 263.96 89.3 264 C 89.9 262.9 91.6 261.5 93.3 261.5 C 95.2 261.5 96.3 262.6 96.6 264.1 C 97.3 262.8 98.9 261.5 100.6 261.5 C 102.8 261.5 104 262.7 104 265.3 C 104.01 265.31 104 276.4 104 276.4 L 101.8 276.4 Z M 106.9 269.1 C 106.9 265 109 261.5 112.8 261.5 C 116.7 261.5 118.7 265 118.7 269.1 C 118.7 273.2 116.7 276.7 112.8 276.7 C 109 276.7 106.9 273.2 106.9 269.1 Z M 116.5 269.1 C 116.5 266.2 115.4 263.4 112.8 263.4 C 110.3 263.4 109.2 266.2 109.2 269.1 C 109.2 272.1 110.3 274.8 112.8 274.8 C 115.4 274.8 116.5 272.1 116.5 269.1 Z M 123.8 274.3 C 123.81 274.28 123.8 281.9 123.8 281.9 L 121.7 281.9 L 121.7 261.9 L 123.8 261.9 C 123.8 261.9 123.81 263.96 123.8 264 C 124.6 262.5 126.1 261.5 127.6 261.5 C 130.9 261.5 132.8 264.6 132.8 269.1 C 132.8 273.6 130.9 276.7 127.6 276.7 C 126.1 276.7 124.7 275.9 123.8 274.3 Z M 130.6 269.1 C 130.6 266 129.4 263.4 127.1 263.4 C 125.7 263.4 124.4 264.5 123.8 265.8 C 123.8 265.8 123.8 272.4 123.8 272.4 C 124.4 273.7 125.7 274.8 127.1 274.8 C 129.4 274.8 130.6 272.3 130.6 269.1 Z " stroke="none" fill="#d3d2d2"/>  </g>  <g id="Polygon226095">    <path d="M 1.4 230.4 C 1.4 224.4 4.4 220 9.2 220 C 12.2 220 13.9 221.9 15 223.9 C 15 223.9 13 224.9 13 224.9 C 12.2 223.2 10.9 222.2 9.2 222.2 C 5.9 222.2 3.9 225.6 3.9 230.4 C 3.9 235.1 5.9 238.6 9.2 238.6 C 11 238.6 12.3 237.3 13.1 235.6 C 13.1 235.6 15.1 236.6 15.1 236.6 C 14 238.8 12.3 240.7 9.2 240.7 C 4.4 240.7 1.4 236.4 1.4 230.4 Z M 16.9 233.1 C 16.9 229 19 225.5 22.8 225.5 C 26.7 225.5 28.7 229 28.7 233.1 C 28.7 237.2 26.7 240.7 22.8 240.7 C 19 240.7 16.9 237.2 16.9 233.1 Z M 26.5 233.1 C 26.5 230.2 25.4 227.4 22.8 227.4 C 20.3 227.4 19.2 230.2 19.2 233.1 C 19.2 236.1 20.3 238.8 22.8 238.8 C 25.4 238.8 26.5 236.1 26.5 233.1 Z M 32.1 237.5 C 32.1 237.47 32.1 227.8 32.1 227.8 L 30.2 227.8 L 30.2 225.9 L 32.1 225.9 L 32.1 221.9 L 34.3 221.9 L 34.3 225.9 L 36.7 225.9 L 36.7 227.8 L 34.3 227.8 C 34.3 227.8 34.26 237.08 34.3 237.1 C 34.3 238.2 34.6 238.8 35.4 238.8 C 36 238.8 36.4 238.6 36.7 238.2 C 36.7 238.2 37.3 239.9 37.3 239.9 C 36.8 240.4 36.1 240.7 35 240.7 C 33 240.7 32.1 239.6 32.1 237.5 Z M 39.7 237.5 C 39.69 237.47 39.7 227.8 39.7 227.8 L 37.8 227.8 L 37.8 225.9 L 39.7 225.9 L 39.7 221.9 L 41.8 221.9 L 41.8 225.9 L 44.3 225.9 L 44.3 227.8 L 41.8 227.8 C 41.8 227.8 41.85 237.08 41.8 237.1 C 41.8 238.2 42.2 238.8 43 238.8 C 43.6 238.8 44 238.6 44.3 238.2 C 44.3 238.2 44.9 239.9 44.9 239.9 C 44.4 240.4 43.7 240.7 42.6 240.7 C 40.6 240.7 39.7 239.6 39.7 237.5 Z M 46.1 233.1 C 46.1 229 48.2 225.5 52 225.5 C 55.9 225.5 57.9 229 57.9 233.1 C 57.9 237.2 55.9 240.7 52 240.7 C 48.2 240.7 46.1 237.2 46.1 233.1 Z M 55.7 233.1 C 55.7 230.2 54.6 227.4 52 227.4 C 49.5 227.4 48.4 230.2 48.4 233.1 C 48.4 236.1 49.5 238.8 52 238.8 C 54.6 238.8 55.7 236.1 55.7 233.1 Z M 68.7 240.4 C 68.7 240.4 68.7 230.06 68.7 230.1 C 68.7 228.1 67.8 227.4 66.4 227.4 C 65 227.4 63.7 228.6 63 229.8 C 63 229.76 63 240.4 63 240.4 L 60.9 240.4 L 60.9 225.9 L 63 225.9 C 63 225.9 63 227.96 63 228 C 63.8 226.7 65.5 225.5 67.2 225.5 C 69.7 225.5 70.9 226.8 70.9 229.5 C 70.86 229.46 70.9 240.4 70.9 240.4 L 68.7 240.4 Z M 75.3 244.2 C 75.3 244.2 74.2 243.3 74.2 243.3 C 75.2 242.6 76 241.5 76.2 240.5 C 76.1 240.5 75.9 240.5 75.8 240.5 C 75 240.5 74.4 239.9 74.4 239.1 C 74.4 238.2 75 237.5 75.9 237.5 C 76.9 237.5 77.7 238.3 77.7 239.7 C 77.7 241.5 76.7 243.2 75.3 244.2 Z M 86.6 230.4 C 86.6 224.4 89.6 220 94.4 220 C 97.4 220 99.2 221.9 100.3 223.9 C 100.3 223.9 98.3 224.9 98.3 224.9 C 97.5 223.2 96.1 222.2 94.4 222.2 C 91.2 222.2 89.1 225.6 89.1 230.4 C 89.1 235.1 91.2 238.6 94.4 238.6 C 96.2 238.6 97.6 237.3 98.3 235.6 C 98.3 235.6 100.3 236.6 100.3 236.6 C 99.2 238.8 97.5 240.7 94.4 240.7 C 89.6 240.7 86.6 236.4 86.6 230.4 Z M 102.9 240.4 L 102.9 220.4 L 105 220.4 L 105 240.4 L 102.9 240.4 Z M 108 233.1 C 108 229 110 225.5 113.8 225.5 C 117.7 225.5 119.8 229 119.8 233.1 C 119.8 237.2 117.7 240.7 113.8 240.7 C 110 240.7 108 237.2 108 233.1 Z M 117.5 233.1 C 117.5 230.2 116.4 227.4 113.8 227.4 C 111.4 227.4 110.2 230.2 110.2 233.1 C 110.2 236.1 111.4 238.8 113.8 238.8 C 116.4 238.8 117.5 236.1 117.5 233.1 Z M 123.1 237.5 C 123.12 237.47 123.1 227.8 123.1 227.8 L 121.2 227.8 L 121.2 225.9 L 123.1 225.9 L 123.1 221.9 L 125.3 221.9 L 125.3 225.9 L 127.7 225.9 L 127.7 227.8 L 125.3 227.8 C 125.3 227.8 125.28 237.08 125.3 237.1 C 125.3 238.2 125.6 238.8 126.4 238.8 C 127 238.8 127.4 238.6 127.7 238.2 C 127.7 238.2 128.4 239.9 128.4 239.9 C 127.9 240.4 127.1 240.7 126 240.7 C 124 240.7 123.1 239.6 123.1 237.5 Z M 138.1 240.4 C 138.1 240.4 138.15 230.03 138.1 230 C 138.1 228.1 137.2 227.4 135.8 227.4 C 134.4 227.4 133.1 228.6 132.4 229.8 C 132.42 229.76 132.4 240.4 132.4 240.4 L 130.3 240.4 L 130.3 220.4 L 132.4 220.4 C 132.4 220.4 132.42 227.96 132.4 228 C 133.3 226.7 134.9 225.5 136.6 225.5 C 139.1 225.5 140.3 226.8 140.3 229.4 C 140.28 229.4 140.3 240.4 140.3 240.4 L 138.1 240.4 Z M 150.1 240.4 L 150.1 225.9 L 152.2 225.9 C 152.2 225.9 152.22 228.2 152.2 228.2 C 153.1 226.7 154.6 225.6 156.3 225.6 C 156.3 225.6 156.3 227.8 156.3 227.8 C 156.1 227.7 155.8 227.7 155.6 227.7 C 154.3 227.7 152.8 228.9 152.2 230.1 C 152.22 230.09 152.2 240.4 152.2 240.4 L 150.1 240.4 Z M 166 240.4 C 166 240.4 165.96 238.82 166 238.8 C 165 240.1 163.6 240.7 162.1 240.7 C 159.8 240.7 157.8 238.9 157.8 235.9 C 157.8 232.9 159.8 231.1 162.1 231.1 C 163.6 231.1 165.1 231.7 166 233 C 166 233 166 230.5 166 230.5 C 166 228.5 164.9 227.4 163 227.4 C 161.6 227.4 160.5 227.9 159.4 229.2 C 159.4 229.2 158.4 227.6 158.4 227.6 C 159.8 226.2 161.5 225.5 163.3 225.5 C 166.2 225.5 168.1 226.9 168.1 230.2 C 168.12 230.24 168.1 240.4 168.1 240.4 L 166 240.4 Z M 166 237.3 C 166 237.3 166 234.6 166 234.6 C 165.3 233.4 164.1 232.7 162.8 232.7 C 161 232.7 160 234.1 160 235.9 C 160 237.7 161 239.2 162.8 239.2 C 164.1 239.2 165.3 238.5 166 237.3 Z M 171.6 244.4 C 171.6 244.4 172.6 242.7 172.6 242.7 C 173.6 243.9 174.8 244.4 176.4 244.4 C 178.4 244.4 180 243.3 180 240.5 C 180 240.5 180 238.1 180 238.1 C 179.2 239.5 177.7 240.6 176.2 240.6 C 173 240.6 171 237.6 171 233.1 C 171 228.6 172.9 225.5 176.2 225.5 C 177.7 225.5 179.1 226.4 180 228 C 180.03 227.99 180 225.9 180 225.9 L 182.2 225.9 C 182.2 225.9 182.19 240.35 182.2 240.3 C 182.2 244.8 179.5 246.3 176.5 246.3 C 174.5 246.3 173 245.8 171.6 244.4 Z M 180 236.2 C 180 236.2 180 229.8 180 229.8 C 179.5 228.6 178.1 227.4 176.8 227.4 C 174.4 227.4 173.3 229.9 173.3 233.1 C 173.3 236.2 174.4 238.6 176.8 238.6 C 178.1 238.6 179.5 237.5 180 236.2 Z " stroke="none" fill="#d3d2d2"/>  </g>  <g id="Polygon226094">    <path d="M 1.4 194.4 C 1.4 188.4 4.4 184 9.2 184 C 12.2 184 13.9 185.9 15 187.9 C 15 187.9 13 188.9 13 188.9 C 12.2 187.2 10.9 186.2 9.2 186.2 C 5.9 186.2 3.9 189.6 3.9 194.4 C 3.9 199.1 5.9 202.6 9.2 202.6 C 11 202.6 12.3 201.3 13.1 199.6 C 13.1 199.6 15.1 200.6 15.1 200.6 C 14 202.8 12.3 204.7 9.2 204.7 C 4.4 204.7 1.4 200.4 1.4 194.4 Z M 16.9 197.1 C 16.9 192.9 19.2 189.5 22.8 189.5 C 26.6 189.5 28.6 192.9 28.6 197.2 C 28.56 197.18 28.6 197.8 28.6 197.8 C 28.6 197.8 19.17 197.84 19.2 197.8 C 19.3 200.7 20.8 202.9 23.3 202.9 C 24.6 202.9 25.9 202.3 26.8 201.2 C 26.8 201.2 27.9 202.4 27.9 202.4 C 26.8 203.9 25.1 204.7 23.2 204.7 C 19.3 204.7 16.9 201.6 16.9 197.1 Z M 22.8 191.3 C 20.2 191.3 19.2 194.1 19.2 196.2 C 19.2 196.2 26.4 196.2 26.4 196.2 C 26.4 194 25.4 191.3 22.8 191.3 Z M 31.4 204.4 L 31.4 184.4 L 33.5 184.4 L 33.5 204.4 L 31.4 204.4 Z M 37.2 204.4 L 37.2 184.4 L 39.3 184.4 L 39.3 204.4 L 37.2 204.4 Z M 50.8 204.4 C 50.8 204.4 50.82 202.37 50.8 202.4 C 49.9 203.6 48.4 204.7 46.6 204.7 C 44.2 204.7 43 203.5 43 200.9 C 42.99 200.87 43 189.9 43 189.9 L 45.1 189.9 C 45.1 189.9 45.12 200.24 45.1 200.2 C 45.1 202.2 46 202.8 47.4 202.8 C 48.9 202.8 50.2 201.8 50.8 200.6 C 50.82 200.57 50.8 189.9 50.8 189.9 L 53 189.9 L 53 204.4 L 50.8 204.4 Z M 56.6 204.4 L 56.6 184.4 L 58.8 184.4 L 58.8 204.4 L 56.6 204.4 Z M 61.7 197.1 C 61.7 193 63.7 189.5 67.6 189.5 C 71.5 189.5 73.5 193 73.5 197.1 C 73.5 201.2 71.5 204.7 67.6 204.7 C 63.7 204.7 61.7 201.2 61.7 197.1 Z M 71.2 197.1 C 71.2 194.2 70.1 191.4 67.6 191.4 C 65.1 191.4 64 194.2 64 197.1 C 64 200.1 65.1 202.8 67.6 202.8 C 70.1 202.8 71.2 200.1 71.2 197.1 Z M 75.3 202.7 C 75.3 202.7 76.3 201.2 76.3 201.2 C 77.2 202.2 78.6 203 80.1 203 C 81.8 203 82.9 202 82.9 200.7 C 82.9 197.3 75.7 198.4 75.7 193.4 C 75.7 191.3 77.4 189.5 80.3 189.5 C 82.2 189.5 83.7 190.3 84.7 191.4 C 84.7 191.4 83.7 192.9 83.7 192.9 C 83 191.9 81.7 191.3 80.3 191.3 C 78.7 191.3 77.8 192.2 77.8 193.4 C 77.8 196.5 85 195.4 85 200.6 C 85 203 83.1 204.7 80.2 204.7 C 78.1 204.7 76.5 204.1 75.3 202.7 Z M 87 197.1 C 87 192.9 89.2 189.5 92.9 189.5 C 96.7 189.5 98.6 192.9 98.6 197.2 C 98.64 197.18 98.6 197.8 98.6 197.8 C 98.6 197.8 89.25 197.84 89.2 197.8 C 89.3 200.7 90.8 202.9 93.4 202.9 C 94.7 202.9 96 202.3 96.9 201.2 C 96.9 201.2 98 202.4 98 202.4 C 96.8 203.9 95.2 204.7 93.2 204.7 C 89.4 204.7 87 201.6 87 197.1 Z M 92.9 191.3 C 90.3 191.3 89.3 194.1 89.2 196.2 C 89.2 196.2 96.5 196.2 96.5 196.2 C 96.5 194 95.5 191.3 92.9 191.3 Z M 102.2 208.2 C 102.2 208.2 101.1 207.3 101.1 207.3 C 102.1 206.6 102.9 205.5 103 204.5 C 103 204.5 102.7 204.5 102.6 204.5 C 101.8 204.5 101.2 203.9 101.2 203.1 C 101.2 202.2 101.9 201.5 102.8 201.5 C 103.7 201.5 104.6 202.3 104.6 203.7 C 104.6 205.5 103.5 207.2 102.2 208.2 Z M 114.2 204.4 L 114.2 184.4 C 114.2 184.4 120.27 184.37 120.3 184.4 C 123.9 184.4 125.8 187.1 125.8 190.4 C 125.8 193.6 123.9 196.4 120.3 196.4 C 120.27 196.37 116.6 196.4 116.6 196.4 L 116.6 204.4 L 114.2 204.4 Z M 123.3 190.4 C 123.3 188.1 122.1 186.5 120 186.5 C 120.03 186.47 116.6 186.5 116.6 186.5 L 116.6 194.3 C 116.6 194.3 120.03 194.27 120 194.3 C 122.1 194.3 123.3 192.6 123.3 190.4 Z M 136.2 204.4 C 136.2 204.4 136.2 202.37 136.2 202.4 C 135.3 203.6 133.8 204.7 132 204.7 C 129.5 204.7 128.4 203.5 128.4 200.9 C 128.37 200.87 128.4 189.9 128.4 189.9 L 130.5 189.9 C 130.5 189.9 130.5 200.24 130.5 200.2 C 130.5 202.2 131.4 202.8 132.8 202.8 C 134.2 202.8 135.6 201.8 136.2 200.6 C 136.2 200.57 136.2 189.9 136.2 189.9 L 138.4 189.9 L 138.4 204.4 L 136.2 204.4 Z M 142.4 201.5 C 142.44 201.47 142.4 191.8 142.4 191.8 L 140.5 191.8 L 140.5 189.9 L 142.4 189.9 L 142.4 185.9 L 144.6 185.9 L 144.6 189.9 L 147.1 189.9 L 147.1 191.8 L 144.6 191.8 C 144.6 191.8 144.6 201.08 144.6 201.1 C 144.6 202.2 144.9 202.8 145.8 202.8 C 146.3 202.8 146.8 202.6 147 202.2 C 147 202.2 147.7 203.9 147.7 203.9 C 147.2 204.4 146.5 204.7 145.3 204.7 C 143.4 204.7 142.4 203.6 142.4 201.5 Z M 150 201.5 C 150.03 201.47 150 191.8 150 191.8 L 148.1 191.8 L 148.1 189.9 L 150 189.9 L 150 185.9 L 152.2 185.9 L 152.2 189.9 L 154.6 189.9 L 154.6 191.8 L 152.2 191.8 C 152.2 191.8 152.19 201.08 152.2 201.1 C 152.2 202.2 152.5 202.8 153.4 202.8 C 153.9 202.8 154.3 202.6 154.6 202.2 C 154.6 202.2 155.3 203.9 155.3 203.9 C 154.8 204.4 154 204.7 152.9 204.7 C 151 204.7 150 203.6 150 201.5 Z M 156.8 208.1 C 157 208.3 157.5 208.3 157.7 208.3 C 158.6 208.3 159.1 208 159.4 206.9 C 159.45 206.9 160.2 204.7 160.2 204.7 L 155.4 189.9 L 157.7 189.9 L 161.3 201.8 L 165 189.9 L 167.3 189.9 C 167.3 189.9 161.49 207.44 161.5 207.4 C 160.8 209.5 159.6 210.3 157.9 210.3 C 157.4 210.3 156.8 210.2 156.4 210 C 156.4 210 156.8 208.1 156.8 208.1 Z M 173.3 205 L 179.1 183.8 L 180.7 183.8 L 175 205 L 173.3 205 Z M 188 194.4 C 188 188.4 191 184 195.8 184 C 198.8 184 200.5 185.9 201.6 187.9 C 201.6 187.9 199.6 188.9 199.6 188.9 C 198.8 187.2 197.5 186.2 195.8 186.2 C 192.5 186.2 190.5 189.6 190.5 194.4 C 190.5 199.1 192.5 202.6 195.8 202.6 C 197.6 202.6 198.9 201.3 199.7 199.6 C 199.7 199.6 201.7 200.6 201.7 200.6 C 200.6 202.8 198.9 204.7 195.8 204.7 C 191 204.7 188 200.4 188 194.4 Z M 203.5 197.1 C 203.5 192.9 205.8 189.5 209.4 189.5 C 213.2 189.5 215.2 192.9 215.2 197.2 C 215.15 197.18 215.2 197.8 215.2 197.8 C 215.2 197.8 205.76 197.84 205.8 197.8 C 205.9 200.7 207.4 202.9 209.9 202.9 C 211.2 202.9 212.5 202.3 213.4 201.2 C 213.4 201.2 214.5 202.4 214.5 202.4 C 213.4 203.9 211.7 204.7 209.8 204.7 C 205.9 204.7 203.5 201.6 203.5 197.1 Z M 209.4 191.3 C 206.8 191.3 205.8 194.1 205.8 196.2 C 205.8 196.2 213 196.2 213 196.2 C 213 194 212 191.3 209.4 191.3 Z M 218 204.4 L 218 184.4 L 220.1 184.4 L 220.1 204.4 L 218 204.4 Z M 223.8 204.4 L 223.8 184.4 L 225.9 184.4 L 225.9 204.4 L 223.8 204.4 Z M 237.4 204.4 C 237.4 204.4 237.41 202.37 237.4 202.4 C 236.5 203.6 235 204.7 233.2 204.7 C 230.8 204.7 229.6 203.5 229.6 200.9 C 229.58 200.87 229.6 189.9 229.6 189.9 L 231.7 189.9 C 231.7 189.9 231.71 200.24 231.7 200.2 C 231.7 202.2 232.6 202.8 234 202.8 C 235.5 202.8 236.8 201.8 237.4 200.6 C 237.41 200.57 237.4 189.9 237.4 189.9 L 239.6 189.9 L 239.6 204.4 L 237.4 204.4 Z M 243.2 204.4 L 243.2 184.4 L 245.4 184.4 L 245.4 204.4 L 243.2 204.4 Z M 248.3 197.1 C 248.3 193 250.3 189.5 254.2 189.5 C 258.1 189.5 260.1 193 260.1 197.1 C 260.1 201.2 258.1 204.7 254.2 204.7 C 250.3 204.7 248.3 201.2 248.3 197.1 Z M 257.8 197.1 C 257.8 194.2 256.7 191.4 254.2 191.4 C 251.7 191.4 250.6 194.2 250.6 197.1 C 250.6 200.1 251.7 202.8 254.2 202.8 C 256.7 202.8 257.8 200.1 257.8 197.1 Z M 261.9 202.7 C 261.9 202.7 262.9 201.2 262.9 201.2 C 263.8 202.2 265.2 203 266.7 203 C 268.4 203 269.5 202 269.5 200.7 C 269.5 197.3 262.3 198.4 262.3 193.4 C 262.3 191.3 264 189.5 266.9 189.5 C 268.8 189.5 270.3 190.3 271.3 191.4 C 271.3 191.4 270.3 192.9 270.3 192.9 C 269.6 191.9 268.3 191.3 266.9 191.3 C 265.3 191.3 264.4 192.2 264.4 193.4 C 264.4 196.5 271.6 195.4 271.6 200.6 C 271.6 203 269.7 204.7 266.8 204.7 C 264.7 204.7 263.1 204.1 261.9 202.7 Z M 273.6 197.1 C 273.6 192.9 275.8 189.5 279.5 189.5 C 283.3 189.5 285.2 192.9 285.2 197.2 C 285.23 197.18 285.2 197.8 285.2 197.8 C 285.2 197.8 275.84 197.84 275.8 197.8 C 275.9 200.7 277.4 202.9 280 202.9 C 281.3 202.9 282.6 202.3 283.5 201.2 C 283.5 201.2 284.6 202.4 284.6 202.4 C 283.4 203.9 281.8 204.7 279.8 204.7 C 276 204.7 273.6 201.6 273.6 197.1 Z M 279.5 191.3 C 276.9 191.3 275.9 194.1 275.8 196.2 C 275.8 196.2 283.1 196.2 283.1 196.2 C 283.1 194 282.1 191.3 279.5 191.3 Z M 294.7 204.4 L 294.7 191.8 L 292.8 191.8 L 292.8 189.9 L 294.7 189.9 C 294.7 189.9 294.74 188.12 294.7 188.1 C 294.7 185.6 296.2 184.1 298.3 184.1 C 299 184.1 299.6 184.2 300.1 184.5 C 300.1 184.5 299.6 186.2 299.6 186.2 C 299.4 186 299.1 185.9 298.6 185.9 C 297.5 185.9 296.9 186.7 296.9 188.1 C 296.9 188.12 296.9 189.9 296.9 189.9 L 299.4 189.9 L 299.4 191.8 L 296.9 191.8 L 296.9 204.4 L 294.7 204.4 Z M 301.4 186.3 C 301.4 185.5 302.1 184.8 302.9 184.8 C 303.7 184.8 304.4 185.5 304.4 186.3 C 304.4 187.1 303.7 187.8 302.9 187.8 C 302.1 187.8 301.4 187.1 301.4 186.3 Z M 301.9 204.4 L 301.9 189.9 L 304 189.9 L 304 204.4 L 301.9 204.4 Z M 307.6 204.4 L 307.6 184.4 L 309.8 184.4 L 309.8 204.4 L 307.6 204.4 Z M 313.4 204.4 L 313.4 184.4 L 315.6 184.4 L 315.6 204.4 L 313.4 204.4 Z M 318.5 197.1 C 318.5 192.9 320.7 189.5 324.4 189.5 C 328.2 189.5 330.1 192.9 330.1 197.2 C 330.11 197.18 330.1 197.8 330.1 197.8 C 330.1 197.8 320.72 197.84 320.7 197.8 C 320.8 200.7 322.3 202.9 324.9 202.9 C 326.2 202.9 327.4 202.3 328.3 201.2 C 328.3 201.2 329.5 202.4 329.5 202.4 C 328.3 203.9 326.7 204.7 324.7 204.7 C 320.8 204.7 318.5 201.6 318.5 197.1 Z M 324.4 191.3 C 321.8 191.3 320.8 194.1 320.7 196.2 C 320.7 196.2 328 196.2 328 196.2 C 328 194 327 191.3 324.4 191.3 Z M 333 204.4 L 333 189.9 L 335.1 189.9 C 335.1 189.9 335.09 192.2 335.1 192.2 C 336 190.7 337.4 189.6 339.2 189.6 C 339.2 189.6 339.2 191.8 339.2 191.8 C 339 191.7 338.7 191.7 338.5 191.7 C 337.2 191.7 335.7 192.9 335.1 194.1 C 335.09 194.09 335.1 204.4 335.1 204.4 L 333 204.4 Z " stroke="none" fill="#d3d2d2"/>  </g>  <g id="Polygon226093">    <path d="M 1.4 158.4 C 1.4 152.4 4.4 148 9.2 148 C 12.2 148 13.9 149.9 15 151.9 C 15 151.9 13 152.9 13 152.9 C 12.2 151.2 10.9 150.2 9.2 150.2 C 5.9 150.2 3.9 153.6 3.9 158.4 C 3.9 163.1 5.9 166.6 9.2 166.6 C 11 166.6 12.3 165.3 13.1 163.6 C 13.1 163.6 15.1 164.6 15.1 164.6 C 14 166.8 12.3 168.7 9.2 168.7 C 4.4 168.7 1.4 164.4 1.4 158.4 Z M 16.9 161.1 C 16.9 156.9 19.2 153.5 22.8 153.5 C 26.6 153.5 28.6 156.9 28.6 161.2 C 28.56 161.18 28.6 161.8 28.6 161.8 C 28.6 161.8 19.17 161.84 19.2 161.8 C 19.3 164.7 20.8 166.9 23.3 166.9 C 24.6 166.9 25.9 166.3 26.8 165.2 C 26.8 165.2 27.9 166.4 27.9 166.4 C 26.8 167.9 25.1 168.7 23.2 168.7 C 19.3 168.7 16.9 165.6 16.9 161.1 Z M 22.8 155.3 C 20.2 155.3 19.2 158.1 19.2 160.2 C 19.2 160.2 26.4 160.2 26.4 160.2 C 26.4 158 25.4 155.3 22.8 155.3 Z M 31.4 168.4 L 31.4 148.4 L 33.5 148.4 L 33.5 168.4 L 31.4 168.4 Z M 37.2 168.4 L 37.2 148.4 L 39.3 148.4 L 39.3 168.4 L 37.2 168.4 Z M 50.8 168.4 C 50.8 168.4 50.82 166.37 50.8 166.4 C 49.9 167.6 48.4 168.7 46.6 168.7 C 44.2 168.7 43 167.5 43 164.9 C 42.99 164.87 43 153.9 43 153.9 L 45.1 153.9 C 45.1 153.9 45.12 164.24 45.1 164.2 C 45.1 166.2 46 166.8 47.4 166.8 C 48.9 166.8 50.2 165.8 50.8 164.6 C 50.82 164.57 50.8 153.9 50.8 153.9 L 53 153.9 L 53 168.4 L 50.8 168.4 Z M 56.6 168.4 L 56.6 148.4 L 58.8 148.4 L 58.8 168.4 L 56.6 168.4 Z M 61.7 161.1 C 61.7 157 63.7 153.5 67.6 153.5 C 71.5 153.5 73.5 157 73.5 161.1 C 73.5 165.2 71.5 168.7 67.6 168.7 C 63.7 168.7 61.7 165.2 61.7 161.1 Z M 71.2 161.1 C 71.2 158.2 70.1 155.4 67.6 155.4 C 65.1 155.4 64 158.2 64 161.1 C 64 164.1 65.1 166.8 67.6 166.8 C 70.1 166.8 71.2 164.1 71.2 161.1 Z M 75.3 166.7 C 75.3 166.7 76.3 165.2 76.3 165.2 C 77.2 166.2 78.6 167 80.1 167 C 81.8 167 82.9 166 82.9 164.7 C 82.9 161.3 75.7 162.4 75.7 157.4 C 75.7 155.3 77.4 153.5 80.3 153.5 C 82.2 153.5 83.7 154.3 84.7 155.4 C 84.7 155.4 83.7 156.9 83.7 156.9 C 83 155.9 81.7 155.3 80.3 155.3 C 78.7 155.3 77.8 156.2 77.8 157.4 C 77.8 160.5 85 159.4 85 164.6 C 85 167 83.1 168.7 80.2 168.7 C 78.1 168.7 76.5 168.1 75.3 166.7 Z M 87 161.1 C 87 156.9 89.2 153.5 92.9 153.5 C 96.7 153.5 98.6 156.9 98.6 161.2 C 98.64 161.18 98.6 161.8 98.6 161.8 C 98.6 161.8 89.25 161.84 89.2 161.8 C 89.3 164.7 90.8 166.9 93.4 166.9 C 94.7 166.9 96 166.3 96.9 165.2 C 96.9 165.2 98 166.4 98 166.4 C 96.8 167.9 95.2 168.7 93.2 168.7 C 89.4 168.7 87 165.6 87 161.1 Z M 92.9 155.3 C 90.3 155.3 89.3 158.1 89.2 160.2 C 89.2 160.2 96.5 160.2 96.5 160.2 C 96.5 158 95.5 155.3 92.9 155.3 Z M 102.2 172.2 C 102.2 172.2 101.1 171.3 101.1 171.3 C 102.1 170.6 102.9 169.5 103 168.5 C 103 168.5 102.7 168.5 102.6 168.5 C 101.8 168.5 101.2 167.9 101.2 167.1 C 101.2 166.2 101.9 165.5 102.8 165.5 C 103.7 165.5 104.6 166.3 104.6 167.7 C 104.6 169.5 103.5 171.2 102.2 172.2 Z M 114.2 168.4 L 114.2 148.4 C 114.2 148.4 120.27 148.37 120.3 148.4 C 123.9 148.4 125.8 151.1 125.8 154.4 C 125.8 157.6 123.9 160.4 120.3 160.4 C 120.27 160.37 116.6 160.4 116.6 160.4 L 116.6 168.4 L 114.2 168.4 Z M 123.3 154.4 C 123.3 152.1 122.1 150.5 120 150.5 C 120.03 150.47 116.6 150.5 116.6 150.5 L 116.6 158.3 C 116.6 158.3 120.03 158.27 120 158.3 C 122.1 158.3 123.3 156.6 123.3 154.4 Z M 135.2 168.4 C 135.2 168.4 135.24 166.82 135.2 166.8 C 134.3 168.1 132.9 168.7 131.4 168.7 C 129.1 168.7 127 166.9 127 163.9 C 127 160.9 129.1 159.1 131.4 159.1 C 132.9 159.1 134.3 159.7 135.2 161 C 135.2 161 135.2 158.5 135.2 158.5 C 135.2 156.5 134.2 155.4 132.3 155.4 C 130.9 155.4 129.7 155.9 128.6 157.2 C 128.6 157.2 127.7 155.6 127.7 155.6 C 129.1 154.2 130.8 153.5 132.6 153.5 C 135.5 153.5 137.4 154.9 137.4 158.2 C 137.4 158.24 137.4 168.4 137.4 168.4 L 135.2 168.4 Z M 135.2 165.3 C 135.2 165.3 135.2 162.6 135.2 162.6 C 134.6 161.4 133.4 160.7 132.1 160.7 C 130.3 160.7 129.2 162.1 129.2 163.9 C 129.2 165.7 130.3 167.2 132.1 167.2 C 133.4 167.2 134.6 166.5 135.2 165.3 Z M 143.2 166.3 C 143.16 166.28 143.2 173.9 143.2 173.9 L 141 173.9 L 141 153.9 L 143.2 153.9 C 143.2 153.9 143.16 155.96 143.2 156 C 144 154.5 145.4 153.5 147 153.5 C 150.2 153.5 152.2 156.6 152.2 161.1 C 152.2 165.6 150.2 168.7 147 168.7 C 145.5 168.7 144.1 167.9 143.2 166.3 Z M 149.9 161.1 C 149.9 158 148.8 155.4 146.4 155.4 C 145.1 155.4 143.7 156.5 143.2 157.8 C 143.2 157.8 143.2 164.4 143.2 164.4 C 143.7 165.7 145.1 166.8 146.4 166.8 C 148.8 166.8 149.9 164.3 149.9 161.1 Z M 154.3 161.1 C 154.3 156.9 156.6 153.5 160.2 153.5 C 164 153.5 166 156.9 166 161.2 C 165.96 161.18 166 161.8 166 161.8 C 166 161.8 156.57 161.84 156.6 161.8 C 156.7 164.7 158.2 166.9 160.7 166.9 C 162 166.9 163.3 166.3 164.2 165.2 C 164.2 165.2 165.3 166.4 165.3 166.4 C 164.2 167.9 162.5 168.7 160.6 168.7 C 156.7 168.7 154.3 165.6 154.3 161.1 Z M 160.2 155.3 C 157.6 155.3 156.6 158.1 156.6 160.2 C 156.6 160.2 163.8 160.2 163.8 160.2 C 163.8 158 162.8 155.3 160.2 155.3 Z M 168.8 168.4 L 168.8 153.9 L 170.9 153.9 C 170.9 153.9 170.94 156.2 170.9 156.2 C 171.9 154.7 173.3 153.6 175 153.6 C 175 153.6 175 155.8 175 155.8 C 174.8 155.7 174.6 155.7 174.3 155.7 C 173 155.7 171.5 156.9 170.9 158.1 C 170.94 158.09 170.9 168.4 170.9 168.4 L 168.8 168.4 Z M 185.5 166.3 C 185.52 166.28 185.5 173.9 185.5 173.9 L 183.4 173.9 L 183.4 153.9 L 185.5 153.9 C 185.5 153.9 185.52 155.96 185.5 156 C 186.4 154.5 187.8 153.5 189.3 153.5 C 192.6 153.5 194.5 156.6 194.5 161.1 C 194.5 165.6 192.6 168.7 189.3 168.7 C 187.9 168.7 186.4 167.9 185.5 166.3 Z M 192.3 161.1 C 192.3 158 191.2 155.4 188.8 155.4 C 187.4 155.4 186.1 156.5 185.5 157.8 C 185.5 157.8 185.5 164.4 185.5 164.4 C 186.1 165.7 187.4 166.8 188.8 166.8 C 191.2 166.8 192.3 164.3 192.3 161.1 Z M 205.3 168.4 C 205.3 168.4 205.26 166.37 205.3 166.4 C 204.4 167.6 202.9 168.7 201.1 168.7 C 198.6 168.7 197.4 167.5 197.4 164.9 C 197.43 164.87 197.4 153.9 197.4 153.9 L 199.6 153.9 C 199.6 153.9 199.56 164.24 199.6 164.2 C 199.6 166.2 200.5 166.8 201.9 166.8 C 203.3 166.8 204.6 165.8 205.3 164.6 C 205.26 164.57 205.3 153.9 205.3 153.9 L 207.4 153.9 L 207.4 168.4 L 205.3 168.4 Z M 211.1 168.4 L 211.1 148.4 L 213.2 148.4 L 213.2 168.4 L 211.1 168.4 Z M 219 166.3 C 219 166.28 219 173.9 219 173.9 L 216.9 173.9 L 216.9 153.9 L 219 153.9 C 219 153.9 219 155.96 219 156 C 219.8 154.5 221.3 153.5 222.8 153.5 C 226.1 153.5 228 156.6 228 161.1 C 228 165.6 226.1 168.7 222.8 168.7 C 221.3 168.7 219.9 167.9 219 166.3 Z M 225.7 161.1 C 225.7 158 224.6 155.4 222.3 155.4 C 220.9 155.4 219.6 156.5 219 157.8 C 219 157.8 219 164.4 219 164.4 C 219.6 165.7 220.9 166.8 222.3 166.8 C 224.6 166.8 225.7 164.3 225.7 161.1 Z " stroke="none" fill="#d3d2d2"/>  </g>  <g id="Polygon226092">    <path d="M 12.5 132.4 L 11.2 127.8 L 4.1 127.8 L 2.8 132.4 L 0.2 132.4 L 6.2 112.4 L 9.1 112.4 L 15.1 132.4 L 12.5 132.4 Z M 7.6 115 L 4.6 125.7 L 10.7 125.7 L 7.6 115 Z M 16.2 125.1 C 16.2 120.8 18.5 117.5 22.2 117.5 C 24.2 117.5 25.5 118.3 26.4 119.4 C 26.4 119.4 25.2 120.9 25.2 120.9 C 24.4 119.9 23.5 119.4 22.4 119.4 C 19.8 119.4 18.5 122 18.5 125.1 C 18.5 128.2 19.8 130.8 22.4 130.8 C 23.5 130.8 24.4 130.4 25.2 129.3 C 25.2 129.3 26.4 130.8 26.4 130.8 C 25.5 132 24.2 132.7 22.2 132.7 C 18.5 132.7 16.2 129.4 16.2 125.1 Z M 28.8 132.4 L 28.8 117.9 L 31 117.9 C 31 117.9 30.96 120.2 31 120.2 C 31.9 118.7 33.3 117.6 35.1 117.6 C 35.1 117.6 35.1 119.8 35.1 119.8 C 34.8 119.7 34.6 119.7 34.3 119.7 C 33 119.7 31.6 120.9 31 122.1 C 30.96 122.09 31 132.4 31 132.4 L 28.8 132.4 Z M 36.8 136.1 C 37.1 136.3 37.6 136.3 37.8 136.3 C 38.6 136.3 39.1 136 39.5 134.9 C 39.51 134.9 40.3 132.7 40.3 132.7 L 35.5 117.9 L 37.8 117.9 L 41.4 129.8 L 45 117.9 L 47.3 117.9 C 47.3 117.9 41.55 135.44 41.5 135.4 C 40.8 137.5 39.7 138.3 37.9 138.3 C 37.5 138.3 36.8 138.2 36.5 138 C 36.5 138 36.8 136.1 36.8 136.1 Z M 49.2 132.4 L 49.2 112.4 L 51.3 112.4 L 51.3 132.4 L 49.2 132.4 Z M 54.6 114.3 C 54.6 113.5 55.3 112.8 56 112.8 C 56.8 112.8 57.5 113.5 57.5 114.3 C 57.5 115.1 56.8 115.8 56 115.8 C 55.3 115.8 54.6 115.1 54.6 114.3 Z M 55 132.4 L 55 117.9 L 57.1 117.9 L 57.1 132.4 L 55 132.4 Z M 60.1 125.1 C 60.1 120.8 62.3 117.5 66.1 117.5 C 68.1 117.5 69.3 118.3 70.2 119.4 C 70.2 119.4 69 120.9 69 120.9 C 68.2 119.9 67.3 119.4 66.2 119.4 C 63.7 119.4 62.3 122 62.3 125.1 C 62.3 128.2 63.7 130.8 66.2 130.8 C 67.3 130.8 68.2 130.4 69 129.3 C 69 129.3 70.2 130.8 70.2 130.8 C 69.3 132 68.1 132.7 66.1 132.7 C 62.3 132.7 60.1 129.4 60.1 125.1 Z M 80.9 130.3 C 80.94 130.28 80.9 137.9 80.9 137.9 L 78.8 137.9 L 78.8 117.9 L 80.9 117.9 C 80.9 117.9 80.94 119.96 80.9 120 C 81.8 118.5 83.2 117.5 84.7 117.5 C 88 117.5 89.9 120.6 89.9 125.1 C 89.9 129.6 88 132.7 84.7 132.7 C 83.3 132.7 81.8 131.9 80.9 130.3 Z M 87.7 125.1 C 87.7 122 86.6 119.4 84.2 119.4 C 82.9 119.4 81.5 120.5 80.9 121.8 C 80.9 121.8 80.9 128.4 80.9 128.4 C 81.5 129.7 82.9 130.8 84.2 130.8 C 86.6 130.8 87.7 128.3 87.7 125.1 Z M 100.3 132.4 C 100.3 132.4 100.29 130.82 100.3 130.8 C 99.4 132.1 97.9 132.7 96.5 132.7 C 94.1 132.7 92.1 130.9 92.1 127.9 C 92.1 124.9 94.1 123.1 96.5 123.1 C 97.9 123.1 99.4 123.7 100.3 125 C 100.3 125 100.3 122.5 100.3 122.5 C 100.3 120.5 99.2 119.4 97.3 119.4 C 96 119.4 94.8 119.9 93.7 121.2 C 93.7 121.2 92.7 119.6 92.7 119.6 C 94.1 118.2 95.8 117.5 97.6 117.5 C 100.5 117.5 102.4 118.9 102.4 122.2 C 102.45 122.24 102.4 132.4 102.4 132.4 L 100.3 132.4 Z M 100.3 129.3 C 100.3 129.3 100.3 126.6 100.3 126.6 C 99.6 125.4 98.4 124.7 97.2 124.7 C 95.4 124.7 94.3 126.1 94.3 127.9 C 94.3 129.7 95.4 131.2 97.2 131.2 C 98.4 131.2 99.6 130.5 100.3 129.3 Z M 105.7 114.3 C 105.7 113.5 106.3 112.8 107.1 112.8 C 107.9 112.8 108.6 113.5 108.6 114.3 C 108.6 115.1 107.9 115.8 107.1 115.8 C 106.3 115.8 105.7 115.1 105.7 114.3 Z M 106.1 132.4 L 106.1 117.9 L 108.2 117.9 L 108.2 132.4 L 106.1 132.4 Z M 119.7 132.4 C 119.7 132.4 119.7 122.06 119.7 122.1 C 119.7 120.1 118.8 119.4 117.4 119.4 C 116 119.4 114.7 120.6 114 121.8 C 114 121.76 114 132.4 114 132.4 L 111.9 132.4 L 111.9 117.9 L 114 117.9 C 114 117.9 114 119.96 114 120 C 114.8 118.7 116.5 117.5 118.2 117.5 C 120.7 117.5 121.9 118.8 121.9 121.5 C 121.86 121.46 121.9 132.4 121.9 132.4 L 119.7 132.4 Z M 125.9 129.5 C 125.94 129.47 125.9 119.8 125.9 119.8 L 124 119.8 L 124 117.9 L 125.9 117.9 L 125.9 113.9 L 128.1 113.9 L 128.1 117.9 L 130.6 117.9 L 130.6 119.8 L 128.1 119.8 C 128.1 119.8 128.1 129.08 128.1 129.1 C 128.1 130.2 128.4 130.8 129.3 130.8 C 129.8 130.8 130.3 130.6 130.5 130.2 C 130.5 130.2 131.2 131.9 131.2 131.9 C 130.7 132.4 130 132.7 128.8 132.7 C 126.9 132.7 125.9 131.6 125.9 129.5 Z M 133.9 136.2 C 133.9 136.2 132.8 135.3 132.8 135.3 C 133.8 134.6 134.6 133.5 134.8 132.5 C 134.7 132.5 134.5 132.5 134.4 132.5 C 133.6 132.5 133 131.9 133 131.1 C 133 130.2 133.6 129.5 134.5 129.5 C 135.5 129.5 136.3 130.3 136.3 131.7 C 136.3 133.5 135.3 135.2 133.9 136.2 Z M 150.1 132.4 L 144.1 112.4 L 146.6 112.4 L 151.5 129.5 L 156.3 112.4 L 158.9 112.4 L 152.9 132.4 L 150.1 132.4 Z M 158.9 125.1 C 158.9 120.9 161.2 117.5 164.8 117.5 C 168.6 117.5 170.5 120.9 170.5 125.2 C 170.55 125.18 170.5 125.8 170.5 125.8 C 170.5 125.8 161.16 125.84 161.2 125.8 C 161.2 128.7 162.7 130.9 165.3 130.9 C 166.6 130.9 167.9 130.3 168.8 129.2 C 168.8 129.2 169.9 130.4 169.9 130.4 C 168.7 131.9 167.1 132.7 165.1 132.7 C 161.3 132.7 158.9 129.6 158.9 125.1 Z M 164.8 119.3 C 162.2 119.3 161.2 122.1 161.2 124.2 C 161.2 124.2 168.4 124.2 168.4 124.2 C 168.4 122 167.4 119.3 164.8 119.3 Z M 173.4 132.4 L 173.4 117.9 L 175.5 117.9 C 175.5 117.9 175.53 120.2 175.5 120.2 C 176.5 118.7 177.9 117.6 179.6 117.6 C 179.6 117.6 179.6 119.8 179.6 119.8 C 179.4 119.7 179.2 119.7 178.9 119.7 C 177.6 119.7 176.1 120.9 175.5 122.1 C 175.53 122.09 175.5 132.4 175.5 132.4 L 173.4 132.4 Z M 196.5 132.4 C 196.5 132.4 196.47 121.88 196.5 121.9 C 196.5 120.3 195.8 119.4 194.5 119.4 C 193.2 119.4 191.9 120.6 191.3 121.8 C 191.31 121.76 191.3 132.4 191.3 132.4 L 189.1 132.4 C 189.1 132.4 189.15 121.88 189.1 121.9 C 189.1 120.3 188.5 119.4 187.1 119.4 C 185.8 119.4 184.6 120.6 184 121.8 C 183.96 121.76 184 132.4 184 132.4 L 181.8 132.4 L 181.8 117.9 L 184 117.9 C 184 117.9 183.96 119.96 184 120 C 184.6 118.9 186.2 117.5 187.9 117.5 C 189.8 117.5 190.9 118.6 191.2 120.1 C 191.9 118.8 193.5 117.5 195.3 117.5 C 197.4 117.5 198.6 118.7 198.6 121.3 C 198.63 121.31 198.6 132.4 198.6 132.4 L 196.5 132.4 Z M 201.9 114.3 C 201.9 113.5 202.6 112.8 203.3 112.8 C 204.1 112.8 204.8 113.5 204.8 114.3 C 204.8 115.1 204.1 115.8 203.3 115.8 C 202.6 115.8 201.9 115.1 201.9 114.3 Z M 202.3 132.4 L 202.3 117.9 L 204.4 117.9 L 204.4 132.4 L 202.3 132.4 Z M 208.1 132.4 L 208.1 112.4 L 210.2 112.4 L 210.2 132.4 L 208.1 132.4 Z M 213.9 132.4 L 213.9 112.4 L 216 112.4 L 216 132.4 L 213.9 132.4 Z M 219.2 114.3 C 219.2 113.5 219.9 112.8 220.7 112.8 C 221.5 112.8 222.2 113.5 222.2 114.3 C 222.2 115.1 221.5 115.8 220.7 115.8 C 219.9 115.8 219.2 115.1 219.2 114.3 Z M 219.7 132.4 L 219.7 117.9 L 221.8 117.9 L 221.8 132.4 L 219.7 132.4 Z M 224.7 125.1 C 224.7 121 226.8 117.5 230.6 117.5 C 234.5 117.5 236.5 121 236.5 125.1 C 236.5 129.2 234.5 132.7 230.6 132.7 C 226.8 132.7 224.7 129.2 224.7 125.1 Z M 234.3 125.1 C 234.3 122.2 233.2 119.4 230.6 119.4 C 228.1 119.4 227 122.2 227 125.1 C 227 128.1 228.1 130.8 230.6 130.8 C 233.2 130.8 234.3 128.1 234.3 125.1 Z M 247.3 132.4 C 247.3 132.4 247.28 122.06 247.3 122.1 C 247.3 120.1 246.4 119.4 245 119.4 C 243.6 119.4 242.2 120.6 241.6 121.8 C 241.58 121.76 241.6 132.4 241.6 132.4 L 239.5 132.4 L 239.5 117.9 L 241.6 117.9 C 241.6 117.9 241.58 119.96 241.6 120 C 242.4 118.7 244 117.5 245.8 117.5 C 248.2 117.5 249.4 118.8 249.4 121.5 C 249.44 121.46 249.4 132.4 249.4 132.4 L 247.3 132.4 Z " stroke="none" fill="#d3d2d2"/>  </g>  <g id="Polygon226091">    <path d="M 12.5 96.4 L 11.2 91.8 L 4.1 91.8 L 2.8 96.4 L 0.2 96.4 L 6.2 76.4 L 9.1 76.4 L 15.1 96.4 L 12.5 96.4 Z M 7.6 79 L 4.6 89.7 L 10.7 89.7 L 7.6 79 Z M 16.2 89.1 C 16.2 84.8 18.5 81.5 22.2 81.5 C 24.2 81.5 25.5 82.3 26.4 83.4 C 26.4 83.4 25.2 84.9 25.2 84.9 C 24.4 83.9 23.5 83.4 22.4 83.4 C 19.8 83.4 18.5 86 18.5 89.1 C 18.5 92.2 19.8 94.8 22.4 94.8 C 23.5 94.8 24.4 94.4 25.2 93.3 C 25.2 93.3 26.4 94.8 26.4 94.8 C 25.5 96 24.2 96.7 22.2 96.7 C 18.5 96.7 16.2 93.4 16.2 89.1 Z M 28.8 96.4 L 28.8 81.9 L 31 81.9 C 31 81.9 30.96 84.2 31 84.2 C 31.9 82.7 33.3 81.6 35.1 81.6 C 35.1 81.6 35.1 83.8 35.1 83.8 C 34.8 83.7 34.6 83.7 34.3 83.7 C 33 83.7 31.6 84.9 31 86.1 C 30.96 86.09 31 96.4 31 96.4 L 28.8 96.4 Z M 36.8 100.1 C 37.1 100.3 37.6 100.3 37.8 100.3 C 38.6 100.3 39.1 100 39.5 98.9 C 39.51 98.9 40.3 96.7 40.3 96.7 L 35.5 81.9 L 37.8 81.9 L 41.4 93.8 L 45 81.9 L 47.3 81.9 C 47.3 81.9 41.55 99.44 41.5 99.4 C 40.8 101.5 39.7 102.3 37.9 102.3 C 37.5 102.3 36.8 102.2 36.5 102 C 36.5 102 36.8 100.1 36.8 100.1 Z M 49.2 96.4 L 49.2 76.4 L 51.3 76.4 L 51.3 96.4 L 49.2 96.4 Z M 54.6 78.3 C 54.6 77.5 55.3 76.8 56 76.8 C 56.8 76.8 57.5 77.5 57.5 78.3 C 57.5 79.1 56.8 79.8 56 79.8 C 55.3 79.8 54.6 79.1 54.6 78.3 Z M 55 96.4 L 55 81.9 L 57.1 81.9 L 57.1 96.4 L 55 96.4 Z M 60.1 89.1 C 60.1 84.8 62.3 81.5 66.1 81.5 C 68.1 81.5 69.3 82.3 70.2 83.4 C 70.2 83.4 69 84.9 69 84.9 C 68.2 83.9 67.3 83.4 66.2 83.4 C 63.7 83.4 62.3 86 62.3 89.1 C 62.3 92.2 63.7 94.8 66.2 94.8 C 67.3 94.8 68.2 94.4 69 93.3 C 69 93.3 70.2 94.8 70.2 94.8 C 69.3 96 68.1 96.7 66.1 96.7 C 62.3 96.7 60.1 93.4 60.1 89.1 Z M 80.9 94.3 C 80.94 94.28 80.9 101.9 80.9 101.9 L 78.8 101.9 L 78.8 81.9 L 80.9 81.9 C 80.9 81.9 80.94 83.96 80.9 84 C 81.8 82.5 83.2 81.5 84.7 81.5 C 88 81.5 89.9 84.6 89.9 89.1 C 89.9 93.6 88 96.7 84.7 96.7 C 83.3 96.7 81.8 95.9 80.9 94.3 Z M 87.7 89.1 C 87.7 86 86.6 83.4 84.2 83.4 C 82.9 83.4 81.5 84.5 80.9 85.8 C 80.9 85.8 80.9 92.4 80.9 92.4 C 81.5 93.7 82.9 94.8 84.2 94.8 C 86.6 94.8 87.7 92.3 87.7 89.1 Z M 100.3 96.4 C 100.3 96.4 100.29 94.82 100.3 94.8 C 99.4 96.1 97.9 96.7 96.5 96.7 C 94.1 96.7 92.1 94.9 92.1 91.9 C 92.1 88.9 94.1 87.1 96.5 87.1 C 97.9 87.1 99.4 87.7 100.3 89 C 100.3 89 100.3 86.5 100.3 86.5 C 100.3 84.5 99.2 83.4 97.3 83.4 C 96 83.4 94.8 83.9 93.7 85.2 C 93.7 85.2 92.7 83.6 92.7 83.6 C 94.1 82.2 95.8 81.5 97.6 81.5 C 100.5 81.5 102.4 82.9 102.4 86.2 C 102.45 86.24 102.4 96.4 102.4 96.4 L 100.3 96.4 Z M 100.3 93.3 C 100.3 93.3 100.3 90.6 100.3 90.6 C 99.6 89.4 98.4 88.7 97.2 88.7 C 95.4 88.7 94.3 90.1 94.3 91.9 C 94.3 93.7 95.4 95.2 97.2 95.2 C 98.4 95.2 99.6 94.5 100.3 93.3 Z M 105.7 78.3 C 105.7 77.5 106.3 76.8 107.1 76.8 C 107.9 76.8 108.6 77.5 108.6 78.3 C 108.6 79.1 107.9 79.8 107.1 79.8 C 106.3 79.8 105.7 79.1 105.7 78.3 Z M 106.1 96.4 L 106.1 81.9 L 108.2 81.9 L 108.2 96.4 L 106.1 96.4 Z M 119.7 96.4 C 119.7 96.4 119.7 86.06 119.7 86.1 C 119.7 84.1 118.8 83.4 117.4 83.4 C 116 83.4 114.7 84.6 114 85.8 C 114 85.76 114 96.4 114 96.4 L 111.9 96.4 L 111.9 81.9 L 114 81.9 C 114 81.9 114 83.96 114 84 C 114.8 82.7 116.5 81.5 118.2 81.5 C 120.7 81.5 121.9 82.8 121.9 85.5 C 121.86 85.46 121.9 96.4 121.9 96.4 L 119.7 96.4 Z M 125.9 93.5 C 125.94 93.47 125.9 83.8 125.9 83.8 L 124 83.8 L 124 81.9 L 125.9 81.9 L 125.9 77.9 L 128.1 77.9 L 128.1 81.9 L 130.6 81.9 L 130.6 83.8 L 128.1 83.8 C 128.1 83.8 128.1 93.08 128.1 93.1 C 128.1 94.2 128.4 94.8 129.3 94.8 C 129.8 94.8 130.3 94.6 130.5 94.2 C 130.5 94.2 131.2 95.9 131.2 95.9 C 130.7 96.4 130 96.7 128.8 96.7 C 126.9 96.7 125.9 95.6 125.9 93.5 Z M 133.9 100.2 C 133.9 100.2 132.8 99.3 132.8 99.3 C 133.8 98.6 134.6 97.5 134.8 96.5 C 134.7 96.5 134.5 96.5 134.4 96.5 C 133.6 96.5 133 95.9 133 95.1 C 133 94.2 133.6 93.5 134.5 93.5 C 135.5 93.5 136.3 94.3 136.3 95.7 C 136.3 97.5 135.3 99.2 133.9 100.2 Z M 149.3 96.4 L 149.3 78.5 L 144.6 78.5 L 144.6 76.4 L 156.4 76.4 L 156.4 78.5 L 151.7 78.5 L 151.7 96.4 L 149.3 96.4 Z M 158.5 78.3 C 158.5 77.5 159.1 76.8 159.9 76.8 C 160.7 76.8 161.4 77.5 161.4 78.3 C 161.4 79.1 160.7 79.8 159.9 79.8 C 159.1 79.8 158.5 79.1 158.5 78.3 Z M 158.9 96.4 L 158.9 81.9 L 161 81.9 L 161 96.4 L 158.9 96.4 Z M 165.1 93.5 C 165.09 93.47 165.1 83.8 165.1 83.8 L 163.2 83.8 L 163.2 81.9 L 165.1 81.9 L 165.1 77.9 L 167.2 77.9 L 167.2 81.9 L 169.7 81.9 L 169.7 83.8 L 167.2 83.8 C 167.2 83.8 167.25 93.08 167.2 93.1 C 167.2 94.2 167.6 94.8 168.4 94.8 C 169 94.8 169.4 94.6 169.7 94.2 C 169.7 94.2 170.3 95.9 170.3 95.9 C 169.8 96.4 169.1 96.7 168 96.7 C 166 96.7 165.1 95.6 165.1 93.5 Z M 179.7 96.4 C 179.7 96.4 179.7 94.82 179.7 94.8 C 178.8 96.1 177.4 96.7 175.9 96.7 C 173.5 96.7 171.5 94.9 171.5 91.9 C 171.5 88.9 173.5 87.1 175.9 87.1 C 177.4 87.1 178.8 87.7 179.7 89 C 179.7 89 179.7 86.5 179.7 86.5 C 179.7 84.5 178.6 83.4 176.7 83.4 C 175.4 83.4 174.2 83.9 173.1 85.2 C 173.1 85.2 172.1 83.6 172.1 83.6 C 173.5 82.2 175.2 81.5 177.1 81.5 C 179.9 81.5 181.9 82.9 181.9 86.2 C 181.86 86.24 181.9 96.4 181.9 96.4 L 179.7 96.4 Z M 179.7 93.3 C 179.7 93.3 179.7 90.6 179.7 90.6 C 179 89.4 177.8 88.7 176.6 88.7 C 174.8 88.7 173.7 90.1 173.7 91.9 C 173.7 93.7 174.8 95.2 176.6 95.2 C 177.8 95.2 179 94.5 179.7 93.3 Z M 193.3 96.4 C 193.3 96.4 193.31 86.06 193.3 86.1 C 193.3 84.1 192.4 83.4 191 83.4 C 189.6 83.4 188.3 84.6 187.6 85.8 C 187.61 85.76 187.6 96.4 187.6 96.4 L 185.5 96.4 L 185.5 81.9 L 187.6 81.9 C 187.6 81.9 187.61 83.96 187.6 84 C 188.5 82.7 190.1 81.5 191.8 81.5 C 194.3 81.5 195.5 82.8 195.5 85.5 C 195.47 85.46 195.5 96.4 195.5 96.4 L 193.3 96.4 Z M 198.7 78.3 C 198.7 77.5 199.4 76.8 200.2 76.8 C 201 76.8 201.7 77.5 201.7 78.3 C 201.7 79.1 201 79.8 200.2 79.8 C 199.4 79.8 198.7 79.1 198.7 78.3 Z M 199.1 96.4 L 199.1 81.9 L 201.3 81.9 L 201.3 96.4 L 199.1 96.4 Z M 212.8 96.4 C 212.8 96.4 212.75 94.37 212.8 94.4 C 211.9 95.6 210.4 96.7 208.6 96.7 C 206.1 96.7 204.9 95.5 204.9 92.9 C 204.92 92.87 204.9 81.9 204.9 81.9 L 207.1 81.9 C 207.1 81.9 207.05 92.24 207.1 92.2 C 207.1 94.2 208 94.8 209.4 94.8 C 210.8 94.8 212.1 93.8 212.8 92.6 C 212.75 92.57 212.8 81.9 212.8 81.9 L 214.9 81.9 L 214.9 96.4 L 212.8 96.4 Z M 233.2 96.4 C 233.2 96.4 233.21 85.88 233.2 85.9 C 233.2 84.3 232.6 83.4 231.2 83.4 C 229.9 83.4 228.6 84.6 228.1 85.8 C 228.05 85.76 228.1 96.4 228.1 96.4 L 225.9 96.4 C 225.9 96.4 225.89 85.88 225.9 85.9 C 225.9 84.3 225.3 83.4 223.9 83.4 C 222.6 83.4 221.3 84.6 220.7 85.8 C 220.7 85.76 220.7 96.4 220.7 96.4 L 218.6 96.4 L 218.6 81.9 L 220.7 81.9 C 220.7 81.9 220.7 83.96 220.7 84 C 221.3 82.9 222.9 81.5 224.7 81.5 C 226.5 81.5 227.7 82.6 227.9 84.1 C 228.7 82.8 230.3 81.5 232 81.5 C 234.1 81.5 235.4 82.7 235.4 85.3 C 235.37 85.31 235.4 96.4 235.4 96.4 L 233.2 96.4 Z M 257.2 96.4 L 253.9 80.6 L 250.7 96.4 L 248.1 96.4 L 243.7 76.4 L 246.2 76.4 L 249.5 92.7 L 252.9 76.4 L 254.9 76.4 L 258.4 92.7 L 261.6 76.4 L 264.2 76.4 L 259.7 96.4 L 257.2 96.4 Z M 274.2 96.4 C 274.2 96.4 274.19 86.03 274.2 86 C 274.2 84.1 273.3 83.4 271.9 83.4 C 270.4 83.4 269.1 84.6 268.5 85.8 C 268.46 85.76 268.5 96.4 268.5 96.4 L 266.3 96.4 L 266.3 76.4 L 268.5 76.4 C 268.5 76.4 268.46 83.96 268.5 84 C 269.3 82.7 271 81.5 272.7 81.5 C 275.2 81.5 276.3 82.8 276.3 85.4 C 276.32 85.4 276.3 96.4 276.3 96.4 L 274.2 96.4 Z M 279.6 78.3 C 279.6 77.5 280.3 76.8 281 76.8 C 281.8 76.8 282.5 77.5 282.5 78.3 C 282.5 79.1 281.8 79.8 281 79.8 C 280.3 79.8 279.6 79.1 279.6 78.3 Z M 280 96.4 L 280 81.9 L 282.1 81.9 L 282.1 96.4 L 280 96.4 Z M 286.2 93.5 C 286.19 93.47 286.2 83.8 286.2 83.8 L 284.3 83.8 L 284.3 81.9 L 286.2 81.9 L 286.2 77.9 L 288.4 77.9 L 288.4 81.9 L 290.8 81.9 L 290.8 83.8 L 288.4 83.8 C 288.4 83.8 288.35 93.08 288.4 93.1 C 288.4 94.2 288.7 94.8 289.5 94.8 C 290.1 94.8 290.5 94.6 290.8 94.2 C 290.8 94.2 291.4 95.9 291.4 95.9 C 290.9 96.4 290.2 96.7 289.1 96.7 C 287.1 96.7 286.2 95.6 286.2 93.5 Z M 292.6 89.1 C 292.6 84.9 294.9 81.5 298.5 81.5 C 302.3 81.5 304.3 84.9 304.3 89.2 C 304.25 89.18 304.3 89.8 304.3 89.8 C 304.3 89.8 294.86 89.84 294.9 89.8 C 295 92.7 296.5 94.9 299 94.9 C 300.3 94.9 301.6 94.3 302.5 93.2 C 302.5 93.2 303.6 94.4 303.6 94.4 C 302.5 95.9 300.8 96.7 298.9 96.7 C 295 96.7 292.6 93.6 292.6 89.1 Z M 298.5 83.3 C 295.9 83.3 294.9 86.1 294.9 88.2 C 294.9 88.2 302.1 88.2 302.1 88.2 C 302.1 86 301.1 83.3 298.5 83.3 Z " stroke="none" fill="#d3d2d2"/>  </g>  <g id="Polygon226090">    <path d="M 12.5 60.4 L 11.2 55.8 L 4.1 55.8 L 2.8 60.4 L 0.2 60.4 L 6.2 40.4 L 9.1 40.4 L 15.1 60.4 L 12.5 60.4 Z M 7.6 43 L 4.6 53.7 L 10.7 53.7 L 7.6 43 Z M 16.2 53.1 C 16.2 48.8 18.5 45.5 22.2 45.5 C 24.2 45.5 25.5 46.3 26.4 47.4 C 26.4 47.4 25.2 48.9 25.2 48.9 C 24.4 47.9 23.5 47.4 22.4 47.4 C 19.8 47.4 18.5 50 18.5 53.1 C 18.5 56.2 19.8 58.8 22.4 58.8 C 23.5 58.8 24.4 58.4 25.2 57.3 C 25.2 57.3 26.4 58.8 26.4 58.8 C 25.5 60 24.2 60.7 22.2 60.7 C 18.5 60.7 16.2 57.4 16.2 53.1 Z M 28.8 60.4 L 28.8 45.9 L 31 45.9 C 31 45.9 30.96 48.2 31 48.2 C 31.9 46.7 33.3 45.6 35.1 45.6 C 35.1 45.6 35.1 47.8 35.1 47.8 C 34.8 47.7 34.6 47.7 34.3 47.7 C 33 47.7 31.6 48.9 31 50.1 C 30.96 50.09 31 60.4 31 60.4 L 28.8 60.4 Z M 36.8 64.1 C 37.1 64.3 37.6 64.3 37.8 64.3 C 38.6 64.3 39.1 64 39.5 62.9 C 39.51 62.9 40.3 60.7 40.3 60.7 L 35.5 45.9 L 37.8 45.9 L 41.4 57.8 L 45 45.9 L 47.3 45.9 C 47.3 45.9 41.55 63.44 41.5 63.4 C 40.8 65.5 39.7 66.3 37.9 66.3 C 37.5 66.3 36.8 66.2 36.5 66 C 36.5 66 36.8 64.1 36.8 64.1 Z M 49.2 60.4 L 49.2 40.4 L 51.3 40.4 L 51.3 60.4 L 49.2 60.4 Z M 54.6 42.3 C 54.6 41.5 55.3 40.8 56 40.8 C 56.8 40.8 57.5 41.5 57.5 42.3 C 57.5 43.1 56.8 43.8 56 43.8 C 55.3 43.8 54.6 43.1 54.6 42.3 Z M 55 60.4 L 55 45.9 L 57.1 45.9 L 57.1 60.4 L 55 60.4 Z M 60.1 53.1 C 60.1 48.8 62.3 45.5 66.1 45.5 C 68.1 45.5 69.3 46.3 70.2 47.4 C 70.2 47.4 69 48.9 69 48.9 C 68.2 47.9 67.3 47.4 66.2 47.4 C 63.7 47.4 62.3 50 62.3 53.1 C 62.3 56.2 63.7 58.8 66.2 58.8 C 67.3 58.8 68.2 58.4 69 57.3 C 69 57.3 70.2 58.8 70.2 58.8 C 69.3 60 68.1 60.7 66.1 60.7 C 62.3 60.7 60.1 57.4 60.1 53.1 Z M 80.9 58.3 C 80.94 58.28 80.9 65.9 80.9 65.9 L 78.8 65.9 L 78.8 45.9 L 80.9 45.9 C 80.9 45.9 80.94 47.96 80.9 48 C 81.8 46.5 83.2 45.5 84.7 45.5 C 88 45.5 89.9 48.6 89.9 53.1 C 89.9 57.6 88 60.7 84.7 60.7 C 83.3 60.7 81.8 59.9 80.9 58.3 Z M 87.7 53.1 C 87.7 50 86.6 47.4 84.2 47.4 C 82.9 47.4 81.5 48.5 80.9 49.8 C 80.9 49.8 80.9 56.4 80.9 56.4 C 81.5 57.7 82.9 58.8 84.2 58.8 C 86.6 58.8 87.7 56.3 87.7 53.1 Z M 100.3 60.4 C 100.3 60.4 100.29 58.82 100.3 58.8 C 99.4 60.1 97.9 60.7 96.5 60.7 C 94.1 60.7 92.1 58.9 92.1 55.9 C 92.1 52.9 94.1 51.1 96.5 51.1 C 97.9 51.1 99.4 51.7 100.3 53 C 100.3 53 100.3 50.5 100.3 50.5 C 100.3 48.5 99.2 47.4 97.3 47.4 C 96 47.4 94.8 47.9 93.7 49.2 C 93.7 49.2 92.7 47.6 92.7 47.6 C 94.1 46.2 95.8 45.5 97.6 45.5 C 100.5 45.5 102.4 46.9 102.4 50.2 C 102.45 50.24 102.4 60.4 102.4 60.4 L 100.3 60.4 Z M 100.3 57.3 C 100.3 57.3 100.3 54.6 100.3 54.6 C 99.6 53.4 98.4 52.7 97.2 52.7 C 95.4 52.7 94.3 54.1 94.3 55.9 C 94.3 57.7 95.4 59.2 97.2 59.2 C 98.4 59.2 99.6 58.5 100.3 57.3 Z M 105.7 42.3 C 105.7 41.5 106.3 40.8 107.1 40.8 C 107.9 40.8 108.6 41.5 108.6 42.3 C 108.6 43.1 107.9 43.8 107.1 43.8 C 106.3 43.8 105.7 43.1 105.7 42.3 Z M 106.1 60.4 L 106.1 45.9 L 108.2 45.9 L 108.2 60.4 L 106.1 60.4 Z M 119.7 60.4 C 119.7 60.4 119.7 50.06 119.7 50.1 C 119.7 48.1 118.8 47.4 117.4 47.4 C 116 47.4 114.7 48.6 114 49.8 C 114 49.76 114 60.4 114 60.4 L 111.9 60.4 L 111.9 45.9 L 114 45.9 C 114 45.9 114 47.96 114 48 C 114.8 46.7 116.5 45.5 118.2 45.5 C 120.7 45.5 121.9 46.8 121.9 49.5 C 121.86 49.46 121.9 60.4 121.9 60.4 L 119.7 60.4 Z M 125.9 57.5 C 125.94 57.47 125.9 47.8 125.9 47.8 L 124 47.8 L 124 45.9 L 125.9 45.9 L 125.9 41.9 L 128.1 41.9 L 128.1 45.9 L 130.6 45.9 L 130.6 47.8 L 128.1 47.8 C 128.1 47.8 128.1 57.08 128.1 57.1 C 128.1 58.2 128.4 58.8 129.3 58.8 C 129.8 58.8 130.3 58.6 130.5 58.2 C 130.5 58.2 131.2 59.9 131.2 59.9 C 130.7 60.4 130 60.7 128.8 60.7 C 126.9 60.7 125.9 59.6 125.9 57.5 Z M 133.9 64.2 C 133.9 64.2 132.8 63.3 132.8 63.3 C 133.8 62.6 134.6 61.5 134.8 60.5 C 134.7 60.5 134.5 60.5 134.4 60.5 C 133.6 60.5 133 59.9 133 59.1 C 133 58.2 133.6 57.5 134.5 57.5 C 135.5 57.5 136.3 58.3 136.3 59.7 C 136.3 61.5 135.3 63.2 133.9 64.2 Z M 145.9 60.4 L 145.9 40.4 C 145.9 40.4 152.01 40.37 152 40.4 C 155.7 40.4 157.5 43.1 157.5 46.4 C 157.5 49.6 155.6 52.4 152 52.4 C 152.01 52.37 148.3 52.4 148.3 52.4 L 148.3 60.4 L 145.9 60.4 Z M 155.1 46.4 C 155.1 44.1 153.8 42.5 151.8 42.5 C 151.77 42.47 148.3 42.5 148.3 42.5 L 148.3 50.3 C 148.3 50.3 151.77 50.27 151.8 50.3 C 153.8 50.3 155.1 48.6 155.1 46.4 Z M 160.1 60.4 L 160.1 45.9 L 162.2 45.9 C 162.2 45.9 162.24 48.2 162.2 48.2 C 163.2 46.7 164.6 45.6 166.3 45.6 C 166.3 45.6 166.3 47.8 166.3 47.8 C 166.1 47.7 165.9 47.7 165.6 47.7 C 164.3 47.7 162.8 48.9 162.2 50.1 C 162.24 50.09 162.2 60.4 162.2 60.4 L 160.1 60.4 Z M 167.8 53.1 C 167.8 49 169.9 45.5 173.7 45.5 C 177.6 45.5 179.6 49 179.6 53.1 C 179.6 57.2 177.6 60.7 173.7 60.7 C 169.9 60.7 167.8 57.2 167.8 53.1 Z M 177.4 53.1 C 177.4 50.2 176.2 47.4 173.7 47.4 C 171.2 47.4 170.1 50.2 170.1 53.1 C 170.1 56.1 171.2 58.8 173.7 58.8 C 176.2 58.8 177.4 56.1 177.4 53.1 Z M 181.8 53.1 C 181.8 48.8 184.1 45.5 187.8 45.5 C 189.8 45.5 191.1 46.3 192 47.4 C 192 47.4 190.8 48.9 190.8 48.9 C 190 47.9 189.1 47.4 188 47.4 C 185.4 47.4 184.1 50 184.1 53.1 C 184.1 56.2 185.4 58.8 188 58.8 C 189.1 58.8 190 58.4 190.8 57.3 C 190.8 57.3 192 58.8 192 58.8 C 191.1 60 189.8 60.7 187.8 60.7 C 184.1 60.7 181.8 57.4 181.8 53.1 Z M 193.7 53.1 C 193.7 48.9 195.9 45.5 199.6 45.5 C 203.4 45.5 205.3 48.9 205.3 53.2 C 205.31 53.18 205.3 53.8 205.3 53.8 C 205.3 53.8 195.92 53.84 195.9 53.8 C 196 56.7 197.5 58.9 200.1 58.9 C 201.4 58.9 202.6 58.3 203.5 57.2 C 203.5 57.2 204.7 58.4 204.7 58.4 C 203.5 59.9 201.9 60.7 199.9 60.7 C 196 60.7 193.7 57.6 193.7 53.1 Z M 199.6 47.3 C 197 47.3 196 50.1 195.9 52.2 C 195.9 52.2 203.2 52.2 203.2 52.2 C 203.2 50 202.2 47.3 199.6 47.3 Z M 207 58.7 C 207 58.7 208.1 57.2 208.1 57.2 C 208.9 58.2 210.3 59 211.9 59 C 213.5 59 214.6 58 214.6 56.7 C 214.6 53.3 207.4 54.4 207.4 49.4 C 207.4 47.3 209.2 45.5 212 45.5 C 214 45.5 215.4 46.3 216.4 47.4 C 216.4 47.4 215.4 48.9 215.4 48.9 C 214.7 47.9 213.5 47.3 212.1 47.3 C 210.5 47.3 209.5 48.2 209.5 49.4 C 209.5 52.5 216.7 51.4 216.7 56.6 C 216.7 59 214.9 60.7 211.9 60.7 C 209.8 60.7 208.2 60.1 207 58.7 Z M 218.3 58.7 C 218.3 58.7 219.4 57.2 219.4 57.2 C 220.2 58.2 221.6 59 223.2 59 C 224.8 59 226 58 226 56.7 C 226 53.3 218.7 54.4 218.7 49.4 C 218.7 47.3 220.5 45.5 223.3 45.5 C 225.3 45.5 226.7 46.3 227.8 47.4 C 227.8 47.4 226.7 48.9 226.7 48.9 C 226 47.9 224.8 47.3 223.4 47.3 C 221.8 47.3 220.8 48.2 220.8 49.4 C 220.8 52.5 228 51.4 228 56.6 C 228 59 226.2 60.7 223.2 60.7 C 221.2 60.7 219.5 60.1 218.3 58.7 Z M 237.1 60.4 L 237.1 40.4 C 237.1 40.4 243.68 40.37 243.7 40.4 C 246.8 40.4 248.6 42.4 248.6 45.5 C 248.6 48 247.3 49.6 245.6 50.1 C 247.5 50.4 249 52.6 249 55 C 249 58.2 247.2 60.4 243.9 60.4 C 243.86 60.38 237.1 60.4 237.1 60.4 Z M 246.2 45.8 C 246.2 43.9 245.3 42.5 243.2 42.5 C 243.23 42.47 239.5 42.5 239.5 42.5 L 239.5 49.1 C 239.5 49.1 243.23 49.1 243.2 49.1 C 245.3 49.1 246.2 47.7 246.2 45.8 Z M 246.5 54.7 C 246.5 52.8 245.5 51.2 243.4 51.2 C 243.38 51.2 239.5 51.2 239.5 51.2 L 239.5 58.2 C 239.5 58.2 243.38 58.25 243.4 58.2 C 245.5 58.2 246.5 56.9 246.5 54.7 Z M 252.1 60.4 L 252.1 40.4 L 254.2 40.4 L 254.2 60.4 L 252.1 60.4 Z M 265.3 60.4 C 265.3 60.4 265.34 58.82 265.3 58.8 C 264.4 60.1 263 60.7 261.5 60.7 C 259.2 60.7 257.2 58.9 257.2 55.9 C 257.2 52.9 259.2 51.1 261.5 51.1 C 263 51.1 264.4 51.7 265.3 53 C 265.3 53 265.3 50.5 265.3 50.5 C 265.3 48.5 264.3 47.4 262.4 47.4 C 261 47.4 259.9 47.9 258.7 49.2 C 258.7 49.2 257.8 47.6 257.8 47.6 C 259.2 46.2 260.9 45.5 262.7 45.5 C 265.6 45.5 267.5 46.9 267.5 50.2 C 267.5 50.24 267.5 60.4 267.5 60.4 L 265.3 60.4 Z M 265.3 57.3 C 265.3 57.3 265.3 54.6 265.3 54.6 C 264.7 53.4 263.5 52.7 262.2 52.7 C 260.4 52.7 259.3 54.1 259.3 55.9 C 259.3 57.7 260.4 59.2 262.2 59.2 C 263.5 59.2 264.7 58.5 265.3 57.3 Z M 270.4 53.1 C 270.4 48.8 272.7 45.5 276.4 45.5 C 278.4 45.5 279.7 46.3 280.6 47.4 C 280.6 47.4 279.4 48.9 279.4 48.9 C 278.6 47.9 277.7 47.4 276.6 47.4 C 274 47.4 272.7 50 272.7 53.1 C 272.7 56.2 274 58.8 276.6 58.8 C 277.7 58.8 278.6 58.4 279.4 57.3 C 279.4 57.3 280.6 58.8 280.6 58.8 C 279.7 60 278.4 60.7 276.4 60.7 C 272.7 60.7 270.4 57.4 270.4 53.1 Z M 291.2 60.4 L 287.2 53.8 L 285.1 56.4 L 285.1 60.4 L 283 60.4 L 283 40.4 L 285.1 40.4 L 285.1 53.7 L 291.2 45.9 L 293.7 45.9 L 288.7 52.4 L 293.7 60.4 L 291.2 60.4 Z " stroke="none" fill="#d3d2d2"/>  </g>  <g id="Polygon226089">    <path d="M 12.5 24.4 L 11.2 19.8 L 4.1 19.8 L 2.8 24.4 L 0.2 24.4 L 6.2 4.4 L 9.1 4.4 L 15.1 24.4 L 12.5 24.4 Z M 7.6 7 L 4.6 17.7 L 10.7 17.7 L 7.6 7 Z M 16.2 17.1 C 16.2 12.8 18.5 9.5 22.2 9.5 C 24.2 9.5 25.5 10.3 26.4 11.4 C 26.4 11.4 25.2 12.9 25.2 12.9 C 24.4 11.9 23.5 11.4 22.4 11.4 C 19.8 11.4 18.5 14 18.5 17.1 C 18.5 20.2 19.8 22.8 22.4 22.8 C 23.5 22.8 24.4 22.4 25.2 21.3 C 25.2 21.3 26.4 22.8 26.4 22.8 C 25.5 24 24.2 24.7 22.2 24.7 C 18.5 24.7 16.2 21.4 16.2 17.1 Z M 28.8 24.4 L 28.8 9.9 L 31 9.9 C 31 9.9 30.96 12.2 31 12.2 C 31.9 10.7 33.3 9.6 35.1 9.6 C 35.1 9.6 35.1 11.8 35.1 11.8 C 34.8 11.7 34.6 11.7 34.3 11.7 C 33 11.7 31.6 12.9 31 14.1 C 30.96 14.09 31 24.4 31 24.4 L 28.8 24.4 Z M 36.8 28.1 C 37.1 28.3 37.6 28.3 37.8 28.3 C 38.6 28.3 39.1 28 39.5 26.9 C 39.51 26.9 40.3 24.7 40.3 24.7 L 35.5 9.9 L 37.8 9.9 L 41.4 21.8 L 45 9.9 L 47.3 9.9 C 47.3 9.9 41.55 27.44 41.5 27.4 C 40.8 29.5 39.7 30.3 37.9 30.3 C 37.5 30.3 36.8 30.2 36.5 30 C 36.5 30 36.8 28.1 36.8 28.1 Z M 49.2 24.4 L 49.2 4.4 L 51.3 4.4 L 51.3 24.4 L 49.2 24.4 Z M 54.6 6.3 C 54.6 5.5 55.3 4.8 56 4.8 C 56.8 4.8 57.5 5.5 57.5 6.3 C 57.5 7.1 56.8 7.8 56 7.8 C 55.3 7.8 54.6 7.1 54.6 6.3 Z M 55 24.4 L 55 9.9 L 57.1 9.9 L 57.1 24.4 L 55 24.4 Z M 60.1 17.1 C 60.1 12.8 62.3 9.5 66.1 9.5 C 68.1 9.5 69.3 10.3 70.2 11.4 C 70.2 11.4 69 12.9 69 12.9 C 68.2 11.9 67.3 11.4 66.2 11.4 C 63.7 11.4 62.3 14 62.3 17.1 C 62.3 20.2 63.7 22.8 66.2 22.8 C 67.3 22.8 68.2 22.4 69 21.3 C 69 21.3 70.2 22.8 70.2 22.8 C 69.3 24 68.1 24.7 66.1 24.7 C 62.3 24.7 60.1 21.4 60.1 17.1 Z M 80.9 22.3 C 80.94 22.28 80.9 29.9 80.9 29.9 L 78.8 29.9 L 78.8 9.9 L 80.9 9.9 C 80.9 9.9 80.94 11.96 80.9 12 C 81.8 10.5 83.2 9.5 84.7 9.5 C 88 9.5 89.9 12.6 89.9 17.1 C 89.9 21.6 88 24.7 84.7 24.7 C 83.3 24.7 81.8 23.9 80.9 22.3 Z M 87.7 17.1 C 87.7 14 86.6 11.4 84.2 11.4 C 82.9 11.4 81.5 12.5 80.9 13.8 C 80.9 13.8 80.9 20.4 80.9 20.4 C 81.5 21.7 82.9 22.8 84.2 22.8 C 86.6 22.8 87.7 20.3 87.7 17.1 Z M 100.3 24.4 C 100.3 24.4 100.29 22.82 100.3 22.8 C 99.4 24.1 97.9 24.7 96.5 24.7 C 94.1 24.7 92.1 22.9 92.1 19.9 C 92.1 16.9 94.1 15.1 96.5 15.1 C 97.9 15.1 99.4 15.7 100.3 17 C 100.3 17 100.3 14.5 100.3 14.5 C 100.3 12.5 99.2 11.4 97.3 11.4 C 96 11.4 94.8 11.9 93.7 13.2 C 93.7 13.2 92.7 11.6 92.7 11.6 C 94.1 10.2 95.8 9.5 97.6 9.5 C 100.5 9.5 102.4 10.9 102.4 14.2 C 102.45 14.24 102.4 24.4 102.4 24.4 L 100.3 24.4 Z M 100.3 21.3 C 100.3 21.3 100.3 18.6 100.3 18.6 C 99.6 17.4 98.4 16.7 97.2 16.7 C 95.4 16.7 94.3 18.1 94.3 19.9 C 94.3 21.7 95.4 23.2 97.2 23.2 C 98.4 23.2 99.6 22.5 100.3 21.3 Z M 105.7 6.3 C 105.7 5.5 106.3 4.8 107.1 4.8 C 107.9 4.8 108.6 5.5 108.6 6.3 C 108.6 7.1 107.9 7.8 107.1 7.8 C 106.3 7.8 105.7 7.1 105.7 6.3 Z M 106.1 24.4 L 106.1 9.9 L 108.2 9.9 L 108.2 24.4 L 106.1 24.4 Z M 119.7 24.4 C 119.7 24.4 119.7 14.06 119.7 14.1 C 119.7 12.1 118.8 11.4 117.4 11.4 C 116 11.4 114.7 12.6 114 13.8 C 114 13.76 114 24.4 114 24.4 L 111.9 24.4 L 111.9 9.9 L 114 9.9 C 114 9.9 114 11.96 114 12 C 114.8 10.7 116.5 9.5 118.2 9.5 C 120.7 9.5 121.9 10.8 121.9 13.5 C 121.86 13.46 121.9 24.4 121.9 24.4 L 119.7 24.4 Z M 125.9 21.5 C 125.94 21.47 125.9 11.8 125.9 11.8 L 124 11.8 L 124 9.9 L 125.9 9.9 L 125.9 5.9 L 128.1 5.9 L 128.1 9.9 L 130.6 9.9 L 130.6 11.8 L 128.1 11.8 C 128.1 11.8 128.1 21.08 128.1 21.1 C 128.1 22.2 128.4 22.8 129.3 22.8 C 129.8 22.8 130.3 22.6 130.5 22.2 C 130.5 22.2 131.2 23.9 131.2 23.9 C 130.7 24.4 130 24.7 128.8 24.7 C 126.9 24.7 125.9 23.6 125.9 21.5 Z M 133.9 28.2 C 133.9 28.2 132.8 27.3 132.8 27.3 C 133.8 26.6 134.6 25.5 134.8 24.5 C 134.7 24.5 134.5 24.5 134.4 24.5 C 133.6 24.5 133 23.9 133 23.1 C 133 22.2 133.6 21.5 134.5 21.5 C 135.5 21.5 136.3 22.3 136.3 23.7 C 136.3 25.5 135.3 27.2 133.9 28.2 Z M 145.9 24.4 L 145.9 4.4 C 145.9 4.4 152.55 4.37 152.5 4.4 C 155.7 4.4 157.5 6.4 157.5 9.5 C 157.5 12 156.2 13.6 154.4 14.1 C 156.4 14.4 157.8 16.6 157.8 19 C 157.8 22.2 156.1 24.4 152.7 24.4 C 152.73 24.38 145.9 24.4 145.9 24.4 Z M 155 9.8 C 155 7.9 154.1 6.5 152.1 6.5 C 152.1 6.47 148.3 6.5 148.3 6.5 L 148.3 13.1 C 148.3 13.1 152.1 13.1 152.1 13.1 C 154.1 13.1 155 11.7 155 9.8 Z M 155.4 18.7 C 155.4 16.8 154.4 15.2 152.2 15.2 C 152.25 15.2 148.3 15.2 148.3 15.2 L 148.3 22.2 C 148.3 22.2 152.25 22.25 152.2 22.2 C 154.3 22.2 155.4 20.9 155.4 18.7 Z M 168.8 24.4 C 168.8 24.4 168.81 22.37 168.8 22.4 C 167.9 23.6 166.4 24.7 164.6 24.7 C 162.1 24.7 161 23.5 161 20.9 C 160.98 20.87 161 9.9 161 9.9 L 163.1 9.9 C 163.1 9.9 163.11 20.24 163.1 20.2 C 163.1 22.2 164 22.8 165.4 22.8 C 166.9 22.8 168.2 21.8 168.8 20.6 C 168.81 20.57 168.8 9.9 168.8 9.9 L 171 9.9 L 171 24.4 L 168.8 24.4 Z M 174.6 24.4 L 174.6 9.9 L 176.8 9.9 C 176.8 9.9 176.76 12.2 176.8 12.2 C 177.7 10.7 179.1 9.6 180.9 9.6 C 180.9 9.6 180.9 11.8 180.9 11.8 C 180.6 11.7 180.4 11.7 180.1 11.7 C 178.8 11.7 177.4 12.9 176.8 14.1 C 176.76 14.09 176.8 24.4 176.8 24.4 L 174.6 24.4 Z M 190.9 24.4 C 190.9 24.4 190.89 14.06 190.9 14.1 C 190.9 12.1 190 11.4 188.6 11.4 C 187.2 11.4 185.8 12.6 185.2 13.8 C 185.19 13.76 185.2 24.4 185.2 24.4 L 183.1 24.4 L 183.1 9.9 L 185.2 9.9 C 185.2 9.9 185.19 11.96 185.2 12 C 186 10.7 187.6 9.5 189.4 9.5 C 191.8 9.5 193 10.8 193 13.5 C 193.05 13.46 193 24.4 193 24.4 L 190.9 24.4 Z M 197.1 21.5 C 197.12 21.47 197.1 11.8 197.1 11.8 L 195.2 11.8 L 195.2 9.9 L 197.1 9.9 L 197.1 5.9 L 199.3 5.9 L 199.3 9.9 L 201.7 9.9 L 201.7 11.8 L 199.3 11.8 C 199.3 11.8 199.28 21.08 199.3 21.1 C 199.3 22.2 199.6 22.8 200.5 22.8 C 201 22.8 201.4 22.6 201.7 22.2 C 201.7 22.2 202.4 23.9 202.4 23.9 C 201.9 24.4 201.1 24.7 200 24.7 C 198.1 24.7 197.1 23.6 197.1 21.5 Z M 209.3 22.2 C 209.3 22.2 210.7 20.4 210.7 20.4 C 211.7 21.6 213.4 22.6 215.3 22.6 C 217.8 22.6 219 21 219 19.3 C 219 14.5 209.9 15.7 209.9 9.3 C 209.9 6.2 212.3 4 215.7 4 C 217.9 4 219.7 4.8 221 6.1 C 221 6.1 219.7 7.9 219.7 7.9 C 218.7 6.7 217.2 6.2 215.6 6.2 C 213.8 6.2 212.4 7.4 212.4 9.2 C 212.4 13.4 221.4 12.5 221.4 19.2 C 221.4 22.1 219.4 24.7 215.3 24.7 C 212.7 24.7 210.7 23.7 209.3 22.2 Z M 223.8 6.3 C 223.8 5.5 224.5 4.8 225.3 4.8 C 226.1 4.8 226.8 5.5 226.8 6.3 C 226.8 7.1 226.1 7.8 225.3 7.8 C 224.5 7.8 223.8 7.1 223.8 6.3 Z M 224.2 24.4 L 224.2 9.9 L 226.4 9.9 L 226.4 24.4 L 224.2 24.4 Z M 229.3 17.1 C 229.3 12.9 231.5 9.5 235.2 9.5 C 239 9.5 240.9 12.9 240.9 17.2 C 240.92 17.18 240.9 17.8 240.9 17.8 C 240.9 17.8 231.53 17.84 231.5 17.8 C 231.6 20.7 233.1 22.9 235.7 22.9 C 237 22.9 238.3 22.3 239.2 21.2 C 239.2 21.2 240.3 22.4 240.3 22.4 C 239.1 23.9 237.5 24.7 235.5 24.7 C 231.7 24.7 229.3 21.6 229.3 17.1 Z M 235.2 11.3 C 232.6 11.3 231.6 14.1 231.5 16.2 C 231.5 16.2 238.8 16.2 238.8 16.2 C 238.8 14 237.8 11.3 235.2 11.3 Z M 251.6 24.4 C 251.6 24.4 251.6 14.06 251.6 14.1 C 251.6 12.1 250.7 11.4 249.3 11.4 C 247.9 11.4 246.6 12.6 245.9 13.8 C 245.9 13.76 245.9 24.4 245.9 24.4 L 243.8 24.4 L 243.8 9.9 L 245.9 9.9 C 245.9 9.9 245.9 11.96 245.9 12 C 246.7 10.7 248.4 9.5 250.1 9.5 C 252.6 9.5 253.8 10.8 253.8 13.5 C 253.76 13.46 253.8 24.4 253.8 24.4 L 251.6 24.4 Z M 265.3 24.4 C 265.3 24.4 265.25 14.06 265.3 14.1 C 265.3 12.1 264.4 11.4 262.9 11.4 C 261.5 11.4 260.2 12.6 259.6 13.8 C 259.55 13.76 259.6 24.4 259.6 24.4 L 257.4 24.4 L 257.4 9.9 L 259.6 9.9 C 259.6 9.9 259.55 11.96 259.6 12 C 260.4 10.7 262 9.5 263.8 9.5 C 266.2 9.5 267.4 10.8 267.4 13.5 C 267.41 13.46 267.4 24.4 267.4 24.4 L 265.3 24.4 Z M 278.5 24.4 C 278.5 24.4 278.51 22.82 278.5 22.8 C 277.6 24.1 276.2 24.7 274.7 24.7 C 272.4 24.7 270.3 22.9 270.3 19.9 C 270.3 16.9 272.3 15.1 274.7 15.1 C 276.2 15.1 277.6 15.7 278.5 17 C 278.5 17 278.5 14.5 278.5 14.5 C 278.5 12.5 277.4 11.4 275.5 11.4 C 274.2 11.4 273 11.9 271.9 13.2 C 271.9 13.2 271 11.6 271 11.6 C 272.3 10.2 274 9.5 275.9 9.5 C 278.8 9.5 280.7 10.9 280.7 14.2 C 280.67 14.24 280.7 24.4 280.7 24.4 L 278.5 24.4 Z M 278.5 21.3 C 278.5 21.3 278.5 18.6 278.5 18.6 C 277.9 17.4 276.7 16.7 275.4 16.7 C 273.6 16.7 272.5 18.1 272.5 19.9 C 272.5 21.7 273.6 23.2 275.4 23.2 C 276.7 23.2 277.9 22.5 278.5 21.3 Z " stroke="none" fill="#d3d2d2"/>  </g></svg>