<?xml version="1.0" standalone="no"?><!DOCTYPE svg PUBLIC "-//W3C//DTD SVG 1.1//EN" "http://www.w3.org/Graphics/SVG/1.1/DTD/svg11.dtd"><svg xmlns="http://www.w3.org/2000/svg" version="1.1" width="274px" height="587px" viewBox="0 0 274 587">  <desc>Foam fruit netting Extruded polystyrene Cotton mop White talcum powder White glue Sanitary pad Cable insulation Red r</desc>  <defs/>  <g id="Polygon152453">    <path d="M 4.3 569.4 C 2.9 569.4 1.8 568.3 1.8 566.9 C 1.8 565.5 2.9 564.3 4.3 564.3 C 5.7 564.3 6.9 565.5 6.9 566.9 C 6.9 568.3 5.7 569.4 4.3 569.4 Z M 18.3 572.7 L 13.5 556.7 L 15.5 556.7 L 19.4 570.4 L 23.3 556.7 L 25.3 556.7 L 20.5 572.7 L 18.3 572.7 Z M 25.4 566.9 C 25.4 563.5 27.1 560.8 30.1 560.8 C 33.1 560.8 34.7 563.6 34.7 566.9 C 34.66 566.94 34.7 567.5 34.7 567.5 C 34.7 567.5 27.14 567.47 27.1 567.5 C 27.2 569.8 28.4 571.5 30.5 571.5 C 31.5 571.5 32.5 571 33.2 570.1 C 33.2 570.1 34.2 571.1 34.2 571.1 C 33.2 572.3 31.9 573 30.3 573 C 27.2 573 25.4 570.4 25.4 566.9 Z M 30 562.3 C 28 562.3 27.2 564.5 27.1 566.2 C 27.1 566.2 33 566.2 33 566.2 C 32.9 564.4 32.2 562.3 30 562.3 Z M 36.9 572.7 L 36.9 561.1 L 38.6 561.1 C 38.6 561.1 38.64 562.95 38.6 563 C 39.4 561.7 40.5 560.9 41.9 560.9 C 41.9 560.9 41.9 562.6 41.9 562.6 C 41.7 562.6 41.5 562.6 41.4 562.6 C 40.3 562.6 39.1 563.5 38.6 564.5 C 38.64 564.47 38.6 572.7 38.6 572.7 L 36.9 572.7 Z M 55.4 572.7 C 55.4 572.7 55.39 564.3 55.4 564.3 C 55.4 563.1 54.9 562.4 53.8 562.4 C 52.8 562.4 51.7 563.3 51.3 564.2 C 51.26 564.2 51.3 572.7 51.3 572.7 L 49.5 572.7 C 49.5 572.7 49.53 564.3 49.5 564.3 C 49.5 563.1 49 562.4 47.9 562.4 C 46.9 562.4 45.9 563.3 45.4 564.2 C 45.38 564.2 45.4 572.7 45.4 572.7 L 43.7 572.7 L 43.7 561.1 L 45.4 561.1 C 45.4 561.1 45.38 562.76 45.4 562.8 C 45.9 561.9 47.2 560.8 48.6 560.8 C 50 560.8 51 561.7 51.2 562.9 C 51.7 561.8 53 560.8 54.4 560.8 C 56.1 560.8 57.1 561.8 57.1 563.8 C 57.12 563.84 57.1 572.7 57.1 572.7 L 55.4 572.7 Z M 59.7 558.3 C 59.7 557.6 60.3 557.1 60.9 557.1 C 61.5 557.1 62.1 557.6 62.1 558.3 C 62.1 558.9 61.5 559.4 60.9 559.4 C 60.3 559.4 59.7 558.9 59.7 558.3 Z M 60 572.7 L 60 561.1 L 61.8 561.1 L 61.8 572.7 L 60 572.7 Z M 64.7 572.7 L 64.7 556.7 L 66.4 556.7 L 66.4 572.7 L 64.7 572.7 Z M 69.3 572.7 L 69.3 556.7 L 71 556.7 L 71 572.7 L 69.3 572.7 Z M 73.6 558.3 C 73.6 557.6 74.2 557.1 74.8 557.1 C 75.4 557.1 76 557.6 76 558.3 C 76 558.9 75.4 559.4 74.8 559.4 C 74.2 559.4 73.6 558.9 73.6 558.3 Z M 73.9 572.7 L 73.9 561.1 L 75.6 561.1 L 75.6 572.7 L 73.9 572.7 Z M 78 566.9 C 78 563.6 79.6 560.8 82.7 560.8 C 85.8 560.8 87.4 563.6 87.4 566.9 C 87.4 570.2 85.8 573 82.7 573 C 79.6 573 78 570.2 78 566.9 Z M 85.6 566.9 C 85.6 564.6 84.7 562.4 82.7 562.4 C 80.7 562.4 79.8 564.6 79.8 566.9 C 79.8 569.2 80.7 571.5 82.7 571.5 C 84.7 571.5 85.6 569.2 85.6 566.9 Z M 96 572.7 C 96 572.7 96.05 564.44 96 564.4 C 96 562.9 95.3 562.4 94.2 562.4 C 93.1 562.4 92 563.2 91.5 564.2 C 91.49 564.2 91.5 572.7 91.5 572.7 L 89.8 572.7 L 89.8 561.1 L 91.5 561.1 C 91.5 561.1 91.49 562.76 91.5 562.8 C 92.2 561.8 93.5 560.8 94.8 560.8 C 96.8 560.8 97.8 561.9 97.8 564 C 97.77 563.96 97.8 572.7 97.8 572.7 L 96 572.7 Z " stroke="none" fill="#7c7979"/>  </g>  <g id="Polygon152452">    <path d="M 4.3 533.4 C 2.9 533.4 1.8 532.3 1.8 530.9 C 1.8 529.5 2.9 528.3 4.3 528.3 C 5.7 528.3 6.9 529.5 6.9 530.9 C 6.9 532.3 5.7 533.4 4.3 533.4 Z M 15 536.7 L 15 520.7 L 16.9 520.7 L 16.9 535 L 22.7 535 L 22.7 536.7 L 15 536.7 Z M 23.7 530.9 C 23.7 527.5 25.5 524.8 28.4 524.8 C 31.5 524.8 33 527.6 33 530.9 C 33 530.94 33 531.5 33 531.5 C 33 531.5 25.49 531.47 25.5 531.5 C 25.6 533.8 26.8 535.5 28.8 535.5 C 29.8 535.5 30.9 535 31.6 534.1 C 31.6 534.1 32.5 535.1 32.5 535.1 C 31.6 536.3 30.2 537 28.7 537 C 25.6 537 23.7 534.4 23.7 530.9 Z M 28.4 526.3 C 26.4 526.3 25.5 528.5 25.5 530.2 C 25.5 530.2 31.3 530.2 31.3 530.2 C 31.3 528.4 30.5 526.3 28.4 526.3 Z M 41.2 536.7 C 41.2 536.7 41.23 535.45 41.2 535.5 C 40.5 536.5 39.4 537 38.2 537 C 36.3 537 34.7 535.5 34.7 533.1 C 34.7 530.7 36.3 529.3 38.2 529.3 C 39.4 529.3 40.5 529.8 41.2 530.8 C 41.2 530.8 41.2 528.8 41.2 528.8 C 41.2 527.2 40.4 526.3 38.9 526.3 C 37.8 526.3 36.8 526.7 36 527.7 C 36 527.7 35.2 526.5 35.2 526.5 C 36.3 525.3 37.7 524.8 39.1 524.8 C 41.4 524.8 43 525.9 43 528.6 C 42.96 528.59 43 536.7 43 536.7 L 41.2 536.7 Z M 41.2 534.3 C 41.2 534.3 41.2 532.1 41.2 532.1 C 40.7 531.1 39.7 530.6 38.7 530.6 C 37.3 530.6 36.4 531.7 36.4 533.1 C 36.4 534.6 37.3 535.7 38.7 535.7 C 39.7 535.7 40.7 535.2 41.2 534.3 Z M 46.3 536.7 L 46.3 526.6 L 44.7 526.6 L 44.7 525.1 L 46.3 525.1 C 46.3 525.1 46.27 523.69 46.3 523.7 C 46.3 521.7 47.4 520.5 49.2 520.5 C 49.9 520.5 50.7 520.7 51.2 521.2 C 51.2 521.2 50.6 522.4 50.6 522.4 C 50.3 522.1 49.9 521.9 49.4 521.9 C 48.5 521.9 48 522.6 48 523.7 C 48 523.69 48 525.1 48 525.1 L 50 525.1 L 50 526.6 L 48 526.6 L 48 536.7 L 46.3 536.7 Z M 56.2 528.7 C 56.2 523.8 58.7 520.4 62.4 520.4 C 64.8 520.4 66.2 521.7 67.2 523.5 C 67.2 523.5 65.6 524.2 65.6 524.2 C 64.9 523 63.9 522.1 62.4 522.1 C 59.8 522.1 58.2 524.8 58.2 528.7 C 58.2 532.6 59.8 535.3 62.4 535.3 C 63.7 535.3 64.8 534.6 65.4 533.9 C 65.4 533.94 65.4 530.2 65.4 530.2 L 61.6 530.2 L 61.6 528.5 L 67.2 528.5 C 67.2 528.5 67.22 534.66 67.2 534.7 C 66 536.1 64.4 537 62.4 537 C 58.7 537 56.2 533.7 56.2 528.7 Z M 69.9 536.7 L 69.9 525.1 L 71.6 525.1 C 71.6 525.1 71.59 526.95 71.6 527 C 72.3 525.7 73.5 524.9 74.9 524.9 C 74.9 524.9 74.9 526.6 74.9 526.6 C 74.7 526.6 74.5 526.6 74.3 526.6 C 73.2 526.6 72.1 527.5 71.6 528.5 C 71.59 528.47 71.6 536.7 71.6 536.7 L 69.9 536.7 Z M 76.1 530.9 C 76.1 527.5 77.8 524.8 80.8 524.8 C 83.8 524.8 85.3 527.6 85.3 530.9 C 85.34 530.94 85.3 531.5 85.3 531.5 C 85.3 531.5 77.83 531.47 77.8 531.5 C 77.9 533.8 79.1 535.5 81.2 535.5 C 82.2 535.5 83.2 535 83.9 534.1 C 83.9 534.1 84.8 535.1 84.8 535.1 C 83.9 536.3 82.6 537 81 537 C 77.9 537 76.1 534.4 76.1 530.9 Z M 80.7 526.3 C 78.7 526.3 77.9 528.5 77.8 530.2 C 77.8 530.2 83.6 530.2 83.6 530.2 C 83.6 528.4 82.8 526.3 80.7 526.3 Z M 87 530.9 C 87 527.5 88.8 524.8 91.8 524.8 C 94.8 524.8 96.3 527.6 96.3 530.9 C 96.33 530.94 96.3 531.5 96.3 531.5 C 96.3 531.5 88.82 531.47 88.8 531.5 C 88.9 533.8 90.1 535.5 92.2 535.5 C 93.2 535.5 94.2 535 94.9 534.1 C 94.9 534.1 95.8 535.1 95.8 535.1 C 94.9 536.3 93.6 537 92 537 C 88.9 537 87 534.4 87 530.9 Z M 91.7 526.3 C 89.7 526.3 88.9 528.5 88.8 530.2 C 88.8 530.2 94.6 530.2 94.6 530.2 C 94.6 528.4 93.8 526.3 91.7 526.3 Z M 104.9 536.7 C 104.9 536.7 104.88 528.44 104.9 528.4 C 104.9 526.9 104.2 526.4 103 526.4 C 101.9 526.4 100.8 527.2 100.3 528.2 C 100.32 528.2 100.3 536.7 100.3 536.7 L 98.6 536.7 L 98.6 525.1 L 100.3 525.1 C 100.3 525.1 100.32 526.76 100.3 526.8 C 101 525.8 102.3 524.8 103.7 524.8 C 105.6 524.8 106.6 525.9 106.6 528 C 106.61 527.96 106.6 536.7 106.6 536.7 L 104.9 536.7 Z " stroke="none" fill="#7c7979"/>  </g>  <g id="Polygon152451">    <path d="M 4.3 497.4 C 2.9 497.4 1.8 496.3 1.8 494.9 C 1.8 493.5 2.9 492.3 4.3 492.3 C 5.7 492.3 6.9 493.5 6.9 494.9 C 6.9 496.3 5.7 497.4 4.3 497.4 Z M 17.7 500.7 L 17.7 486.4 L 13.9 486.4 L 13.9 484.7 L 23.4 484.7 L 23.4 486.4 L 19.6 486.4 L 19.6 500.7 L 17.7 500.7 Z M 25 486.3 C 25 485.6 25.5 485.1 26.2 485.1 C 26.8 485.1 27.3 485.6 27.3 486.3 C 27.3 486.9 26.8 487.4 26.2 487.4 C 25.5 487.4 25 486.9 25 486.3 Z M 25.3 500.7 L 25.3 489.1 L 27 489.1 L 27 500.7 L 25.3 500.7 Z M 30.3 498.4 C 30.29 498.37 30.3 490.6 30.3 490.6 L 28.8 490.6 L 28.8 489.1 L 30.3 489.1 L 30.3 485.9 L 32 485.9 L 32 489.1 L 34 489.1 L 34 490.6 L 32 490.6 C 32 490.6 32.02 498.06 32 498.1 C 32 498.9 32.3 499.5 33 499.5 C 33.4 499.5 33.7 499.3 34 499 C 34 499 34.5 500.3 34.5 500.3 C 34.1 500.7 33.5 501 32.6 501 C 31 501 30.3 500.1 30.3 498.4 Z M 42 500.7 C 42 500.7 41.97 499.45 42 499.5 C 41.2 500.5 40.1 501 38.9 501 C 37.1 501 35.4 499.5 35.4 497.1 C 35.4 494.7 37 493.3 38.9 493.3 C 40.1 493.3 41.3 493.8 42 494.8 C 42 494.8 42 492.8 42 492.8 C 42 491.2 41.1 490.3 39.6 490.3 C 38.5 490.3 37.6 490.7 36.7 491.7 C 36.7 491.7 35.9 490.5 35.9 490.5 C 37 489.3 38.4 488.8 39.9 488.8 C 42.2 488.8 43.7 489.9 43.7 492.6 C 43.7 492.59 43.7 500.7 43.7 500.7 L 42 500.7 Z M 42 498.3 C 42 498.3 42 496.1 42 496.1 C 41.4 495.1 40.5 494.6 39.5 494.6 C 38 494.6 37.2 495.7 37.2 497.1 C 37.2 498.6 38 499.7 39.5 499.7 C 40.5 499.7 41.4 499.2 42 498.3 Z M 52.9 500.7 C 52.9 500.7 52.87 492.44 52.9 492.4 C 52.9 490.9 52.2 490.4 51 490.4 C 49.9 490.4 48.8 491.2 48.3 492.2 C 48.31 492.2 48.3 500.7 48.3 500.7 L 46.6 500.7 L 46.6 489.1 L 48.3 489.1 C 48.3 489.1 48.31 490.76 48.3 490.8 C 49 489.8 50.3 488.8 51.7 488.8 C 53.6 488.8 54.6 489.9 54.6 492 C 54.6 491.96 54.6 500.7 54.6 500.7 L 52.9 500.7 Z M 57.2 486.3 C 57.2 485.6 57.7 485.1 58.4 485.1 C 59 485.1 59.5 485.6 59.5 486.3 C 59.5 486.9 59 487.4 58.4 487.4 C 57.7 487.4 57.2 486.9 57.2 486.3 Z M 57.5 500.7 L 57.5 489.1 L 59.2 489.1 L 59.2 500.7 L 57.5 500.7 Z M 68.4 500.7 C 68.4 500.7 68.42 499.09 68.4 499.1 C 67.7 500.1 66.5 501 65.1 501 C 63.1 501 62.2 500 62.2 497.9 C 62.16 497.89 62.2 489.1 62.2 489.1 L 63.9 489.1 C 63.9 489.1 63.86 497.39 63.9 497.4 C 63.9 498.9 64.6 499.5 65.7 499.5 C 66.9 499.5 67.9 498.6 68.4 497.7 C 68.42 497.65 68.4 489.1 68.4 489.1 L 70.2 489.1 L 70.2 500.7 L 68.4 500.7 Z M 84.8 500.7 C 84.8 500.7 84.79 492.3 84.8 492.3 C 84.8 491.1 84.3 490.4 83.2 490.4 C 82.2 490.4 81.1 491.3 80.7 492.2 C 80.66 492.2 80.7 500.7 80.7 500.7 L 78.9 500.7 C 78.9 500.7 78.93 492.3 78.9 492.3 C 78.9 491.1 78.4 490.4 77.3 490.4 C 76.3 490.4 75.3 491.3 74.8 492.2 C 74.78 492.2 74.8 500.7 74.8 500.7 L 73.1 500.7 L 73.1 489.1 L 74.8 489.1 C 74.8 489.1 74.78 490.76 74.8 490.8 C 75.3 489.9 76.6 488.8 78 488.8 C 79.4 488.8 80.4 489.7 80.6 490.9 C 81.1 489.8 82.4 488.8 83.8 488.8 C 85.5 488.8 86.5 489.8 86.5 491.8 C 86.52 491.84 86.5 500.7 86.5 500.7 L 84.8 500.7 Z M 104 500.7 L 101.3 488.1 L 98.8 500.7 L 96.7 500.7 L 93.2 484.7 L 95.2 484.7 L 97.8 497.7 L 100.6 484.7 L 102.2 484.7 L 104.9 497.7 L 107.5 484.7 L 109.6 484.7 L 106 500.7 L 104 500.7 Z M 117.6 500.7 C 117.6 500.7 117.57 492.42 117.6 492.4 C 117.6 490.9 116.9 490.4 115.7 490.4 C 114.6 490.4 113.5 491.2 113 492.2 C 112.99 492.2 113 500.7 113 500.7 L 111.3 500.7 L 111.3 484.7 L 113 484.7 C 113 484.7 112.99 490.76 113 490.8 C 113.7 489.8 115 488.8 116.4 488.8 C 118.3 488.8 119.3 489.8 119.3 491.9 C 119.28 491.91 119.3 500.7 119.3 500.7 L 117.6 500.7 Z M 121.9 486.3 C 121.9 485.6 122.4 485.1 123 485.1 C 123.7 485.1 124.2 485.6 124.2 486.3 C 124.2 486.9 123.7 487.4 123 487.4 C 122.4 487.4 121.9 486.9 121.9 486.3 Z M 122.2 500.7 L 122.2 489.1 L 123.9 489.1 L 123.9 500.7 L 122.2 500.7 Z M 127.2 498.4 C 127.17 498.37 127.2 490.6 127.2 490.6 L 125.6 490.6 L 125.6 489.1 L 127.2 489.1 L 127.2 485.9 L 128.9 485.9 L 128.9 489.1 L 130.9 489.1 L 130.9 490.6 L 128.9 490.6 C 128.9 490.6 128.9 498.06 128.9 498.1 C 128.9 498.9 129.2 499.5 129.8 499.5 C 130.3 499.5 130.6 499.3 130.8 499 C 130.8 499 131.4 500.3 131.4 500.3 C 131 500.7 130.4 501 129.5 501 C 127.9 501 127.2 500.1 127.2 498.4 Z M 132.3 494.9 C 132.3 491.5 134.1 488.8 137 488.8 C 140.1 488.8 141.6 491.6 141.6 494.9 C 141.62 494.94 141.6 495.5 141.6 495.5 C 141.6 495.5 134.11 495.47 134.1 495.5 C 134.2 497.8 135.4 499.5 137.4 499.5 C 138.5 499.5 139.5 499 140.2 498.1 C 140.2 498.1 141.1 499.1 141.1 499.1 C 140.2 500.3 138.9 501 137.3 501 C 134.2 501 132.3 498.4 132.3 494.9 Z M 137 490.3 C 135 490.3 134.2 492.5 134.1 494.2 C 134.1 494.2 139.9 494.2 139.9 494.2 C 139.9 492.4 139.1 490.3 137 490.3 Z " stroke="none" fill="#7c7979"/>  </g>  <g id="Polygon152450">    <path d="M 12.8 464.7 L 4.5 449.8 L 4.5 464.7 L 2.1 464.7 L 2.1 444.7 L 4.5 444.7 L 12.7 459.3 L 12.7 444.7 L 15.1 444.7 L 15.1 464.7 L 12.8 464.7 Z M 18.1 457.4 C 18.1 453.4 20.2 449.8 24 449.8 C 27.9 449.8 29.9 453.4 29.9 457.4 C 29.9 461.5 27.9 465.1 24 465.1 C 20.2 465.1 18.1 461.5 18.1 457.4 Z M 27.7 457.4 C 27.7 454.5 26.5 451.8 24 451.8 C 21.5 451.8 20.4 454.5 20.4 457.4 C 20.4 460.4 21.5 463.1 24 463.1 C 26.5 463.1 27.7 460.4 27.7 457.4 Z M 40.7 464.7 C 40.7 464.7 40.68 454.38 40.7 454.4 C 40.7 452.5 39.8 451.8 38.4 451.8 C 37 451.8 35.6 452.9 35 454.1 C 34.98 454.08 35 464.7 35 464.7 L 32.8 464.7 L 32.8 450.2 L 35 450.2 C 35 450.2 34.98 452.28 35 452.3 C 35.8 451 37.4 449.8 39.2 449.8 C 41.6 449.8 42.8 451.2 42.8 453.8 C 42.84 453.78 42.8 464.7 42.8 464.7 L 40.7 464.7 Z M 45.4 458.4 L 45.4 456.5 L 51.6 456.5 L 51.6 458.4 L 45.4 458.4 Z M 54.6 461.8 C 54.63 461.79 54.6 452.1 54.6 452.1 L 52.7 452.1 L 52.7 450.2 L 54.6 450.2 L 54.6 446.2 L 56.8 446.2 L 56.8 450.2 L 59.2 450.2 L 59.2 452.1 L 56.8 452.1 C 56.8 452.1 56.79 461.4 56.8 461.4 C 56.8 462.5 57.1 463.1 58 463.1 C 58.5 463.1 58.9 462.9 59.2 462.6 C 59.2 462.6 59.9 464.2 59.9 464.2 C 59.4 464.7 58.6 465.1 57.5 465.1 C 55.6 465.1 54.6 463.9 54.6 461.8 Z M 61.1 457.4 C 61.1 453.4 63.1 449.8 67 449.8 C 70.9 449.8 72.9 453.4 72.9 457.4 C 72.9 461.5 70.9 465.1 67 465.1 C 63.1 465.1 61.1 461.5 61.1 457.4 Z M 70.6 457.4 C 70.6 454.5 69.5 451.8 67 451.8 C 64.5 451.8 63.3 454.5 63.3 457.4 C 63.3 460.4 64.5 463.1 67 463.1 C 69.5 463.1 70.6 460.4 70.6 457.4 Z M 82.5 464.7 L 79.2 458.9 L 75.8 464.7 L 73.4 464.7 L 77.8 457.3 L 73.7 450.2 L 76.1 450.2 L 79.2 455.7 L 82.3 450.2 L 84.7 450.2 L 80.5 457.3 L 84.9 464.7 L 82.5 464.7 Z M 86.5 446.6 C 86.5 445.8 87.2 445.2 88 445.2 C 88.8 445.2 89.5 445.8 89.5 446.6 C 89.5 447.4 88.8 448.1 88 448.1 C 87.2 448.1 86.5 447.4 86.5 446.6 Z M 86.9 464.7 L 86.9 450.2 L 89.1 450.2 L 89.1 464.7 L 86.9 464.7 Z M 92 457.4 C 92 453.1 94.3 449.8 98 449.8 C 100 449.8 101.2 450.7 102.1 451.8 C 102.1 451.8 101 453.2 101 453.2 C 100.2 452.2 99.3 451.8 98.2 451.8 C 95.6 451.8 94.3 454.3 94.3 457.4 C 94.3 460.5 95.6 463.1 98.2 463.1 C 99.3 463.1 100.2 462.7 101 461.7 C 101 461.7 102.1 463.1 102.1 463.1 C 101.2 464.3 100 465.1 98 465.1 C 94.3 465.1 92 461.7 92 457.4 Z M 118.2 464.7 C 118.2 464.7 118.2 463.14 118.2 463.1 C 117.3 464.5 115.9 465.1 114.4 465.1 C 112 465.1 110 463.3 110 460.2 C 110 457.2 112 455.5 114.4 455.5 C 115.9 455.5 117.3 456 118.2 457.3 C 118.2 457.3 118.2 454.8 118.2 454.8 C 118.2 452.8 117.1 451.7 115.2 451.7 C 113.9 451.7 112.7 452.2 111.6 453.5 C 111.6 453.5 110.6 451.9 110.6 451.9 C 112 450.5 113.7 449.8 115.6 449.8 C 118.4 449.8 120.4 451.3 120.4 454.6 C 120.36 454.56 120.4 464.7 120.4 464.7 L 118.2 464.7 Z M 118.2 461.7 C 118.2 461.7 118.2 458.9 118.2 458.9 C 117.5 457.7 116.3 457 115.1 457 C 113.3 457 112.2 458.5 112.2 460.3 C 112.2 462.1 113.3 463.5 115.1 463.5 C 116.3 463.5 117.5 462.9 118.2 461.7 Z M 123.3 457.4 C 123.3 453.1 125.5 449.8 129.3 449.8 C 131.3 449.8 132.5 450.7 133.4 451.8 C 133.4 451.8 132.2 453.2 132.2 453.2 C 131.5 452.2 130.6 451.8 129.4 451.8 C 126.9 451.8 125.5 454.3 125.5 457.4 C 125.5 460.5 126.9 463.1 129.4 463.1 C 130.6 463.1 131.5 462.7 132.2 461.7 C 132.2 461.7 133.4 463.1 133.4 463.1 C 132.5 464.3 131.3 465.1 129.3 465.1 C 125.5 465.1 123.3 461.7 123.3 457.4 Z M 135.9 464.7 L 135.9 450.2 L 138 450.2 C 138 450.2 138 452.52 138 452.5 C 138.9 451 140.3 449.9 142.1 449.9 C 142.1 449.9 142.1 452.1 142.1 452.1 C 141.9 452.1 141.6 452 141.4 452 C 140.1 452 138.6 453.2 138 454.4 C 138 454.41 138 464.7 138 464.7 L 135.9 464.7 Z M 143.9 468.4 C 144.1 468.6 144.6 468.7 144.8 468.7 C 145.7 468.7 146.2 468.3 146.5 467.2 C 146.55 467.22 147.3 465 147.3 465 L 142.5 450.2 L 144.8 450.2 L 148.4 462.1 L 152.1 450.2 L 154.4 450.2 C 154.4 450.2 148.59 467.76 148.6 467.8 C 147.9 469.9 146.7 470.6 145 470.6 C 144.5 470.6 143.9 470.5 143.5 470.4 C 143.5 470.4 143.9 468.4 143.9 468.4 Z M 156.2 464.7 L 156.2 444.7 L 158.4 444.7 L 158.4 464.7 L 156.2 464.7 Z M 161.6 446.6 C 161.6 445.8 162.3 445.2 163.1 445.2 C 163.9 445.2 164.5 445.8 164.5 446.6 C 164.5 447.4 163.9 448.1 163.1 448.1 C 162.3 448.1 161.6 447.4 161.6 446.6 Z M 162 464.7 L 162 450.2 L 164.2 450.2 L 164.2 464.7 L 162 464.7 Z M 167.1 457.4 C 167.1 453.1 169.4 449.8 173.1 449.8 C 175.1 449.8 176.3 450.7 177.2 451.8 C 177.2 451.8 176.1 453.2 176.1 453.2 C 175.3 452.2 174.4 451.8 173.3 451.8 C 170.7 451.8 169.3 454.3 169.3 457.4 C 169.3 460.5 170.7 463.1 173.3 463.1 C 174.4 463.1 175.3 462.7 176.1 461.7 C 176.1 461.7 177.2 463.1 177.2 463.1 C 176.3 464.3 175.1 465.1 173.1 465.1 C 169.4 465.1 167.1 461.7 167.1 457.4 Z M 188 462.6 C 187.98 462.6 188 470.2 188 470.2 L 185.8 470.2 L 185.8 450.2 L 188 450.2 C 188 450.2 187.98 452.28 188 452.3 C 188.8 450.8 190.3 449.8 191.8 449.8 C 195.1 449.8 197 452.9 197 457.4 C 197 462 195.1 465.1 191.8 465.1 C 190.3 465.1 188.9 464.2 188 462.6 Z M 194.7 457.4 C 194.7 454.3 193.6 451.8 191.2 451.8 C 189.9 451.8 188.5 452.8 188 454.1 C 188 454.1 188 460.7 188 460.7 C 188.5 462 189.9 463.1 191.2 463.1 C 193.6 463.1 194.7 460.6 194.7 457.4 Z M 207.3 464.7 C 207.3 464.7 207.33 463.14 207.3 463.1 C 206.4 464.5 205 465.1 203.5 465.1 C 201.2 465.1 199.1 463.3 199.1 460.2 C 199.1 457.2 201.1 455.5 203.5 455.5 C 205 455.5 206.4 456 207.3 457.3 C 207.3 457.3 207.3 454.8 207.3 454.8 C 207.3 452.8 206.2 451.7 204.4 451.7 C 203 451.7 201.8 452.2 200.7 453.5 C 200.7 453.5 199.8 451.9 199.8 451.9 C 201.1 450.5 202.9 449.8 204.7 449.8 C 207.6 449.8 209.5 451.3 209.5 454.6 C 209.49 454.56 209.5 464.7 209.5 464.7 L 207.3 464.7 Z M 207.3 461.7 C 207.3 461.7 207.3 458.9 207.3 458.9 C 206.7 457.7 205.5 457 204.2 457 C 202.4 457 201.3 458.5 201.3 460.3 C 201.3 462.1 202.4 463.5 204.2 463.5 C 205.5 463.5 206.7 462.9 207.3 461.7 Z M 212.7 446.6 C 212.7 445.8 213.4 445.2 214.2 445.2 C 215 445.2 215.6 445.8 215.6 446.6 C 215.6 447.4 215 448.1 214.2 448.1 C 213.4 448.1 212.7 447.4 212.7 446.6 Z M 213.1 464.7 L 213.1 450.2 L 215.2 450.2 L 215.2 464.7 L 213.1 464.7 Z M 226.7 464.7 C 226.7 464.7 226.73 454.38 226.7 454.4 C 226.7 452.5 225.9 451.8 224.4 451.8 C 223 451.8 221.7 452.9 221 454.1 C 221.03 454.08 221 464.7 221 464.7 L 218.9 464.7 L 218.9 450.2 L 221 450.2 C 221 450.2 221.03 452.28 221 452.3 C 221.9 451 223.5 449.8 225.2 449.8 C 227.7 449.8 228.9 451.2 228.9 453.8 C 228.89 453.78 228.9 464.7 228.9 464.7 L 226.7 464.7 Z M 233 461.8 C 232.97 461.79 233 452.1 233 452.1 L 231.1 452.1 L 231.1 450.2 L 233 450.2 L 233 446.2 L 235.1 446.2 L 235.1 450.2 L 237.6 450.2 L 237.6 452.1 L 235.1 452.1 C 235.1 452.1 235.13 461.4 235.1 461.4 C 235.1 462.5 235.5 463.1 236.3 463.1 C 236.8 463.1 237.3 462.9 237.6 462.6 C 237.6 462.6 238.2 464.2 238.2 464.2 C 237.7 464.7 237 465.1 235.9 465.1 C 233.9 465.1 233 463.9 233 461.8 Z " stroke="none" fill="#d3d2d2"/>  </g>  <g id="Polygon152449">    <path d="M 5.5 428.7 L 5.5 410.8 L 0.8 410.8 L 0.8 408.7 L 12.6 408.7 L 12.6 410.8 L 7.9 410.8 L 7.9 428.7 L 5.5 428.7 Z M 13.3 428.7 L 13.3 414.2 L 15.4 414.2 C 15.4 414.2 15.39 416.52 15.4 416.5 C 16.3 415 17.7 413.9 19.5 413.9 C 19.5 413.9 19.5 416.1 19.5 416.1 C 19.3 416.1 19 416 18.8 416 C 17.5 416 16 417.2 15.4 418.4 C 15.39 418.41 15.4 428.7 15.4 428.7 L 13.3 428.7 Z M 29.1 428.7 C 29.1 428.7 29.13 427.14 29.1 427.1 C 28.2 428.5 26.8 429.1 25.3 429.1 C 23 429.1 20.9 427.3 20.9 424.2 C 20.9 421.2 22.9 419.5 25.3 419.5 C 26.8 419.5 28.2 420 29.1 421.3 C 29.1 421.3 29.1 418.8 29.1 418.8 C 29.1 416.8 28 415.7 26.2 415.7 C 24.8 415.7 23.6 416.2 22.5 417.5 C 22.5 417.5 21.6 415.9 21.6 415.9 C 22.9 414.5 24.7 413.8 26.5 413.8 C 29.4 413.8 31.3 415.3 31.3 418.6 C 31.29 418.56 31.3 428.7 31.3 428.7 L 29.1 428.7 Z M 29.1 425.7 C 29.1 425.7 29.1 422.9 29.1 422.9 C 28.5 421.7 27.3 421 26 421 C 24.2 421 23.1 422.5 23.1 424.3 C 23.1 426.1 24.2 427.5 26 427.5 C 27.3 427.5 28.5 426.9 29.1 425.7 Z M 42.7 428.7 C 42.7 428.7 42.75 418.38 42.7 418.4 C 42.7 416.5 41.9 415.8 40.4 415.8 C 39 415.8 37.7 416.9 37 418.1 C 37.05 418.08 37 428.7 37 428.7 L 34.9 428.7 L 34.9 414.2 L 37 414.2 C 37 414.2 37.05 416.28 37 416.3 C 37.9 415 39.5 413.8 41.2 413.8 C 43.7 413.8 44.9 415.2 44.9 417.8 C 44.91 417.78 44.9 428.7 44.9 428.7 L 42.7 428.7 Z M 47.4 427 C 47.4 427 48.5 425.5 48.5 425.5 C 49.3 426.5 50.7 427.3 52.3 427.3 C 53.9 427.3 55 426.4 55 425 C 55 421.6 47.8 422.8 47.8 417.7 C 47.8 415.6 49.6 413.8 52.4 413.8 C 54.4 413.8 55.8 414.6 56.8 415.7 C 56.8 415.7 55.8 417.2 55.8 417.2 C 55.1 416.2 53.9 415.6 52.5 415.6 C 50.9 415.6 49.9 416.5 49.9 417.7 C 49.9 420.8 57.1 419.7 57.1 424.9 C 57.1 427.3 55.3 429.1 52.3 429.1 C 50.2 429.1 48.6 428.4 47.4 427 Z M 62 426.6 C 62.01 426.6 62 434.2 62 434.2 L 59.9 434.2 L 59.9 414.2 L 62 414.2 C 62 414.2 62.01 416.28 62 416.3 C 62.8 414.8 64.3 413.8 65.8 413.8 C 69.1 413.8 71 416.9 71 421.4 C 71 426 69.1 429.1 65.8 429.1 C 64.3 429.1 62.9 428.2 62 426.6 Z M 68.8 421.4 C 68.8 418.3 67.6 415.8 65.3 415.8 C 63.9 415.8 62.6 416.8 62 418.1 C 62 418.1 62 424.7 62 424.7 C 62.6 426 63.9 427.1 65.3 427.1 C 67.6 427.1 68.8 424.6 68.8 421.4 Z M 81.4 428.7 C 81.4 428.7 81.36 427.14 81.4 427.1 C 80.4 428.5 79 429.1 77.5 429.1 C 75.2 429.1 73.2 427.3 73.2 424.2 C 73.2 421.2 75.2 419.5 77.5 419.5 C 79 419.5 80.5 420 81.4 421.3 C 81.4 421.3 81.4 418.8 81.4 418.8 C 81.4 416.8 80.3 415.7 78.4 415.7 C 77 415.7 75.9 416.2 74.8 417.5 C 74.8 417.5 73.8 415.9 73.8 415.9 C 75.2 414.5 76.9 413.8 78.7 413.8 C 81.6 413.8 83.5 415.3 83.5 418.6 C 83.52 418.56 83.5 428.7 83.5 428.7 L 81.4 428.7 Z M 81.4 425.7 C 81.4 425.7 81.4 422.9 81.4 422.9 C 80.7 421.7 79.5 421 78.2 421 C 76.4 421 75.4 422.5 75.4 424.3 C 75.4 426.1 76.4 427.5 78.2 427.5 C 79.5 427.5 80.7 426.9 81.4 425.7 Z M 87.1 428.7 L 87.1 414.2 L 89.3 414.2 C 89.3 414.2 89.28 416.52 89.3 416.5 C 90.2 415 91.6 413.9 93.4 413.9 C 93.4 413.9 93.4 416.1 93.4 416.1 C 93.1 416.1 92.9 416 92.7 416 C 91.3 416 89.9 417.2 89.3 418.4 C 89.28 418.41 89.3 428.7 89.3 428.7 L 87.1 428.7 Z M 94.9 421.4 C 94.9 417.2 97.1 413.8 100.7 413.8 C 104.5 413.8 106.5 417.3 106.5 421.5 C 106.47 421.5 106.5 422.2 106.5 422.2 C 106.5 422.2 97.08 422.16 97.1 422.2 C 97.2 425.1 98.7 427.3 101.2 427.3 C 102.5 427.3 103.8 426.6 104.7 425.5 C 104.7 425.5 105.8 426.7 105.8 426.7 C 104.7 428.2 103 429.1 101.1 429.1 C 97.2 429.1 94.9 425.9 94.9 421.4 Z M 100.7 415.6 C 98.2 415.6 97.1 418.4 97.1 420.6 C 97.1 420.6 104.3 420.6 104.3 420.6 C 104.3 418.3 103.3 415.6 100.7 415.6 Z M 117.1 428.7 C 117.1 428.7 117.15 418.38 117.1 418.4 C 117.1 416.5 116.3 415.8 114.8 415.8 C 113.4 415.8 112.1 416.9 111.4 418.1 C 111.45 418.08 111.4 428.7 111.4 428.7 L 109.3 428.7 L 109.3 414.2 L 111.4 414.2 C 111.4 414.2 111.45 416.28 111.4 416.3 C 112.3 415 113.9 413.8 115.6 413.8 C 118.1 413.8 119.3 415.2 119.3 417.8 C 119.31 417.78 119.3 428.7 119.3 428.7 L 117.1 428.7 Z M 122.2 421.4 C 122.2 417.1 124.5 413.8 128.2 413.8 C 130.3 413.8 131.5 414.7 132.4 415.8 C 132.4 415.8 131.2 417.2 131.2 417.2 C 130.4 416.2 129.5 415.8 128.4 415.8 C 125.8 415.8 124.5 418.3 124.5 421.4 C 124.5 424.5 125.8 427.1 128.4 427.1 C 129.5 427.1 130.4 426.7 131.2 425.7 C 131.2 425.7 132.4 427.1 132.4 427.1 C 131.5 428.3 130.3 429.1 128.2 429.1 C 124.5 429.1 122.2 425.7 122.2 421.4 Z M 134.4 432.4 C 134.7 432.6 135.1 432.7 135.4 432.7 C 136.2 432.7 136.7 432.3 137.1 431.2 C 137.1 431.22 137.9 429 137.9 429 L 133 414.2 L 135.4 414.2 L 139 426.1 L 142.6 414.2 L 144.9 414.2 C 144.9 414.2 139.14 431.76 139.1 431.8 C 138.4 433.9 137.2 434.6 135.5 434.6 C 135.1 434.6 134.4 434.5 134.1 434.4 C 134.1 434.4 134.4 432.4 134.4 432.4 Z " stroke="none" fill="#d3d2d2"/>  </g>  <g id="Polygon152448">    <path d="M 1.4 382.7 C 1.4 376.7 4.4 372.4 9.2 372.4 C 12.2 372.4 13.9 374.2 15 376.3 C 15 376.3 13 377.2 13 377.2 C 12.2 375.6 10.9 374.5 9.2 374.5 C 5.9 374.5 3.9 378 3.9 382.7 C 3.9 387.4 5.9 390.9 9.2 390.9 C 11 390.9 12.3 389.7 13.1 388 C 13.1 388 15.1 388.9 15.1 388.9 C 14 391.1 12.3 393.1 9.2 393.1 C 4.4 393.1 1.4 388.7 1.4 382.7 Z M 16.9 385.4 C 16.9 381.4 19 377.8 22.8 377.8 C 26.7 377.8 28.7 381.4 28.7 385.4 C 28.7 389.5 26.7 393.1 22.8 393.1 C 19 393.1 16.9 389.5 16.9 385.4 Z M 26.5 385.4 C 26.5 382.5 25.4 379.8 22.8 379.8 C 20.3 379.8 19.2 382.5 19.2 385.4 C 19.2 388.4 20.3 391.1 22.8 391.1 C 25.4 391.1 26.5 388.4 26.5 385.4 Z M 39.5 392.7 C 39.5 392.7 39.51 382.38 39.5 382.4 C 39.5 380.5 38.6 379.8 37.2 379.8 C 35.8 379.8 34.5 380.9 33.8 382.1 C 33.81 382.08 33.8 392.7 33.8 392.7 L 31.7 392.7 L 31.7 378.2 L 33.8 378.2 C 33.8 378.2 33.81 380.28 33.8 380.3 C 34.6 379 36.3 377.8 38 377.8 C 40.5 377.8 41.7 379.2 41.7 381.8 C 41.67 381.78 41.7 392.7 41.7 392.7 L 39.5 392.7 Z M 44.6 385.4 C 44.6 381.1 46.9 377.8 50.6 377.8 C 52.6 377.8 53.8 378.7 54.7 379.8 C 54.7 379.8 53.6 381.2 53.6 381.2 C 52.8 380.2 51.9 379.8 50.8 379.8 C 48.2 379.8 46.9 382.3 46.9 385.4 C 46.9 388.5 48.2 391.1 50.8 391.1 C 51.9 391.1 52.8 390.7 53.6 389.7 C 53.6 389.7 54.7 391.1 54.7 391.1 C 53.8 392.3 52.6 393.1 50.6 393.1 C 46.9 393.1 44.6 389.7 44.6 385.4 Z M 56.5 385.4 C 56.5 381.2 58.7 377.8 62.4 377.8 C 66.2 377.8 68.1 381.3 68.1 385.5 C 68.1 385.5 68.1 386.2 68.1 386.2 C 68.1 386.2 58.71 386.16 58.7 386.2 C 58.8 389.1 60.3 391.3 62.9 391.3 C 64.1 391.3 65.4 390.6 66.3 389.5 C 66.3 389.5 67.5 390.7 67.5 390.7 C 66.3 392.2 64.6 393.1 62.7 393.1 C 58.8 393.1 56.5 389.9 56.5 385.4 Z M 62.3 379.6 C 59.8 379.6 58.8 382.4 58.7 384.6 C 58.7 384.6 66 384.6 66 384.6 C 65.9 382.3 65 379.6 62.3 379.6 Z M 78.4 392.7 C 78.4 392.7 78.39 391.14 78.4 391.1 C 77.5 392.5 76 393.1 74.6 393.1 C 72.2 393.1 70.2 391.3 70.2 388.2 C 70.2 385.2 72.2 383.5 74.6 383.5 C 76 383.5 77.5 384 78.4 385.3 C 78.4 385.3 78.4 382.8 78.4 382.8 C 78.4 380.8 77.3 379.7 75.4 379.7 C 74.1 379.7 72.9 380.2 71.8 381.5 C 71.8 381.5 70.8 379.9 70.8 379.9 C 72.2 378.5 73.9 377.8 75.7 377.8 C 78.6 377.8 80.5 379.3 80.5 382.6 C 80.55 382.56 80.5 392.7 80.5 392.7 L 78.4 392.7 Z M 78.4 389.7 C 78.4 389.7 78.4 386.9 78.4 386.9 C 77.7 385.7 76.5 385 75.3 385 C 73.5 385 72.4 386.5 72.4 388.3 C 72.4 390.1 73.5 391.5 75.3 391.5 C 76.5 391.5 77.7 390.9 78.4 389.7 Z M 84.2 392.7 L 84.2 372.7 L 86.3 372.7 L 86.3 392.7 L 84.2 392.7 Z M 89.2 385.4 C 89.2 381.2 91.5 377.8 95.1 377.8 C 98.9 377.8 100.9 381.3 100.9 385.5 C 100.86 385.5 100.9 386.2 100.9 386.2 C 100.9 386.2 91.47 386.16 91.5 386.2 C 91.6 389.1 93.1 391.3 95.6 391.3 C 96.9 391.3 98.2 390.6 99.1 389.5 C 99.1 389.5 100.2 390.7 100.2 390.7 C 99.1 392.2 97.4 393.1 95.5 393.1 C 91.6 393.1 89.2 389.9 89.2 385.4 Z M 95.1 379.6 C 92.5 379.6 91.5 382.4 91.5 384.6 C 91.5 384.6 98.7 384.6 98.7 384.6 C 98.7 382.3 97.7 379.6 95.1 379.6 Z M 103.7 392.7 L 103.7 378.2 L 105.8 378.2 C 105.8 378.2 105.84 380.52 105.8 380.5 C 106.8 379 108.2 377.9 109.9 377.9 C 109.9 377.9 109.9 380.1 109.9 380.1 C 109.7 380.1 109.5 380 109.2 380 C 107.9 380 106.4 381.2 105.8 382.4 C 105.84 382.41 105.8 392.7 105.8 392.7 L 103.7 392.7 Z M 111.1 393.3 L 116.9 372.1 L 118.6 372.1 L 112.8 393.3 L 111.1 393.3 Z M 121.8 392.7 L 121.8 380.1 L 119.8 380.1 L 119.8 378.2 L 121.8 378.2 C 121.8 378.2 121.77 376.44 121.8 376.4 C 121.8 373.9 123.1 372.4 125.4 372.4 C 126.4 372.4 127.3 372.7 128 373.3 C 128 373.3 127.1 374.9 127.1 374.9 C 126.7 374.5 126.3 374.2 125.7 374.2 C 124.5 374.2 123.9 375 123.9 376.4 C 123.93 376.44 123.9 378.2 123.9 378.2 L 126.4 378.2 L 126.4 380.1 L 123.9 380.1 L 123.9 392.7 L 121.8 392.7 Z M 127.9 385.4 C 127.9 381.4 129.9 377.8 133.7 377.8 C 137.6 377.8 139.6 381.4 139.6 385.4 C 139.6 389.5 137.6 393.1 133.7 393.1 C 129.9 393.1 127.9 389.5 127.9 385.4 Z M 137.4 385.4 C 137.4 382.5 136.3 379.8 133.7 379.8 C 131.2 379.8 130.1 382.5 130.1 385.4 C 130.1 388.4 131.2 391.1 133.7 391.1 C 136.3 391.1 137.4 388.4 137.4 385.4 Z M 150.4 392.7 C 150.4 392.7 150.42 390.69 150.4 390.7 C 149.5 391.9 148 393.1 146.2 393.1 C 143.8 393.1 142.6 391.8 142.6 389.2 C 142.59 389.19 142.6 378.2 142.6 378.2 L 144.7 378.2 C 144.7 378.2 144.72 388.56 144.7 388.6 C 144.7 390.5 145.6 391.1 147 391.1 C 148.5 391.1 149.8 390.1 150.4 388.9 C 150.42 388.89 150.4 378.2 150.4 378.2 L 152.6 378.2 L 152.6 392.7 L 150.4 392.7 Z M 164.1 392.7 C 164.1 392.7 164.07 382.38 164.1 382.4 C 164.1 380.5 163.2 379.8 161.8 379.8 C 160.3 379.8 159 380.9 158.4 382.1 C 158.37 382.08 158.4 392.7 158.4 392.7 L 156.2 392.7 L 156.2 378.2 L 158.4 378.2 C 158.4 378.2 158.37 380.28 158.4 380.3 C 159.2 379 160.8 377.8 162.6 377.8 C 165 377.8 166.2 379.2 166.2 381.8 C 166.23 381.78 166.2 392.7 166.2 392.7 L 164.1 392.7 Z M 178.2 392.7 C 178.2 392.7 178.17 390.63 178.2 390.6 C 177.3 392.1 175.9 393.1 174.4 393.1 C 171.1 393.1 169.2 390 169.2 385.5 C 169.2 381 171.1 377.8 174.4 377.8 C 175.8 377.8 177.3 378.7 178.2 380.3 C 178.17 380.31 178.2 372.7 178.2 372.7 L 180.3 372.7 L 180.3 392.7 L 178.2 392.7 Z M 178.2 388.8 C 178.2 388.8 178.2 382.1 178.2 382.1 C 177.6 380.9 176.3 379.8 174.9 379.8 C 172.5 379.8 171.4 382.3 171.4 385.5 C 171.4 388.6 172.5 391.1 174.9 391.1 C 176.3 391.1 177.6 390.1 178.2 388.8 Z M 191.4 392.7 C 191.4 392.7 191.43 391.14 191.4 391.1 C 190.5 392.5 189.1 393.1 187.6 393.1 C 185.3 393.1 183.2 391.3 183.2 388.2 C 183.2 385.2 185.2 383.5 187.6 383.5 C 189.1 383.5 190.5 384 191.4 385.3 C 191.4 385.3 191.4 382.8 191.4 382.8 C 191.4 380.8 190.3 379.7 188.5 379.7 C 187.1 379.7 185.9 380.2 184.8 381.5 C 184.8 381.5 183.9 379.9 183.9 379.9 C 185.2 378.5 187 377.8 188.8 377.8 C 191.7 377.8 193.6 379.3 193.6 382.6 C 193.59 382.56 193.6 392.7 193.6 392.7 L 191.4 392.7 Z M 191.4 389.7 C 191.4 389.7 191.4 386.9 191.4 386.9 C 190.8 385.7 189.6 385 188.3 385 C 186.5 385 185.4 386.5 185.4 388.3 C 185.4 390.1 186.5 391.5 188.3 391.5 C 189.6 391.5 190.8 390.9 191.4 389.7 Z M 197.6 389.8 C 197.64 389.79 197.6 380.1 197.6 380.1 L 195.7 380.1 L 195.7 378.2 L 197.6 378.2 L 197.6 374.2 L 199.8 374.2 L 199.8 378.2 L 202.3 378.2 L 202.3 380.1 L 199.8 380.1 C 199.8 380.1 199.8 389.4 199.8 389.4 C 199.8 390.5 200.1 391.1 201 391.1 C 201.5 391.1 202 390.9 202.2 390.6 C 202.2 390.6 202.9 392.2 202.9 392.2 C 202.4 392.7 201.7 393.1 200.5 393.1 C 198.6 393.1 197.6 391.9 197.6 389.8 Z M 204.4 374.6 C 204.4 373.8 205.1 373.2 205.9 373.2 C 206.7 373.2 207.3 373.8 207.3 374.6 C 207.3 375.4 206.7 376.1 205.9 376.1 C 205.1 376.1 204.4 375.4 204.4 374.6 Z M 204.8 392.7 L 204.8 378.2 L 206.9 378.2 L 206.9 392.7 L 204.8 392.7 Z M 209.9 385.4 C 209.9 381.4 211.9 377.8 215.8 377.8 C 219.7 377.8 221.7 381.4 221.7 385.4 C 221.7 389.5 219.7 393.1 215.8 393.1 C 211.9 393.1 209.9 389.5 209.9 385.4 Z M 219.4 385.4 C 219.4 382.5 218.3 379.8 215.8 379.8 C 213.3 379.8 212.1 382.5 212.1 385.4 C 212.1 388.4 213.3 391.1 215.8 391.1 C 218.3 391.1 219.4 388.4 219.4 385.4 Z M 232.4 392.7 C 232.4 392.7 232.43 382.38 232.4 382.4 C 232.4 380.5 231.6 379.8 230.1 379.8 C 228.7 379.8 227.4 380.9 226.7 382.1 C 226.73 382.08 226.7 392.7 226.7 392.7 L 224.6 392.7 L 224.6 378.2 L 226.7 378.2 C 226.7 378.2 226.73 380.28 226.7 380.3 C 227.6 379 229.2 377.8 230.9 377.8 C 233.4 377.8 234.6 379.2 234.6 381.8 C 234.59 381.78 234.6 392.7 234.6 392.7 L 232.4 392.7 Z " stroke="none" fill="#d3d2d2"/>  </g>  <g id="Polygon152447">    <path d="M 14 356.7 L 10.7 340.9 L 7.5 356.7 L 4.9 356.7 L 0.5 336.7 L 3 336.7 L 6.3 353 L 9.7 336.7 L 11.7 336.7 L 15.1 353 L 18.4 336.7 L 21 336.7 L 16.5 356.7 L 14 356.7 Z M 31 356.7 C 31 356.7 30.99 346.35 31 346.3 C 31 344.4 30.1 343.8 28.6 343.8 C 27.2 343.8 25.9 344.9 25.3 346.1 C 25.26 346.08 25.3 356.7 25.3 356.7 L 23.1 356.7 L 23.1 336.7 L 25.3 336.7 C 25.3 336.7 25.26 344.28 25.3 344.3 C 26.1 343 27.7 341.8 29.5 341.8 C 31.9 341.8 33.1 343.1 33.1 345.7 C 33.12 345.72 33.1 356.7 33.1 356.7 L 31 356.7 Z M 36.4 338.6 C 36.4 337.8 37 337.2 37.8 337.2 C 38.6 337.2 39.3 337.8 39.3 338.6 C 39.3 339.4 38.6 340.1 37.8 340.1 C 37 340.1 36.4 339.4 36.4 338.6 Z M 36.8 356.7 L 36.8 342.2 L 38.9 342.2 L 38.9 356.7 L 36.8 356.7 Z M 43 353.8 C 42.99 353.79 43 344.1 43 344.1 L 41.1 344.1 L 41.1 342.2 L 43 342.2 L 43 338.2 L 45.1 338.2 L 45.1 342.2 L 47.6 342.2 L 47.6 344.1 L 45.1 344.1 C 45.1 344.1 45.15 353.4 45.1 353.4 C 45.1 354.5 45.5 355.1 46.3 355.1 C 46.9 355.1 47.3 354.9 47.6 354.6 C 47.6 354.6 48.2 356.2 48.2 356.2 C 47.7 356.7 47 357.1 45.9 357.1 C 43.9 357.1 43 355.9 43 353.8 Z M 49.4 349.4 C 49.4 345.2 51.7 341.8 55.3 341.8 C 59.1 341.8 61 345.3 61 349.5 C 61.05 349.5 61 350.2 61 350.2 C 61 350.2 51.66 350.16 51.7 350.2 C 51.7 353.1 53.2 355.3 55.8 355.3 C 57.1 355.3 58.4 354.6 59.3 353.5 C 59.3 353.5 60.4 354.7 60.4 354.7 C 59.2 356.2 57.6 357.1 55.6 357.1 C 51.8 357.1 49.4 353.9 49.4 349.4 Z M 55.3 343.6 C 52.7 343.6 51.7 346.4 51.7 348.6 C 51.7 348.6 58.9 348.6 58.9 348.6 C 58.9 346.3 57.9 343.6 55.3 343.6 Z M 68.9 354.5 C 68.9 354.5 70.3 352.7 70.3 352.7 C 71.3 353.9 73 354.9 74.9 354.9 C 77.4 354.9 78.6 353.4 78.6 351.7 C 78.6 346.8 69.5 348.1 69.5 341.6 C 69.5 338.5 71.9 336.4 75.3 336.4 C 77.5 336.4 79.3 337.1 80.6 338.5 C 80.6 338.5 79.3 340.3 79.3 340.3 C 78.3 339.1 76.8 338.5 75.2 338.5 C 73.4 338.5 72 339.7 72 341.5 C 72 345.7 81 344.8 81 351.5 C 81 354.4 79 357.1 74.9 357.1 C 72.3 357.1 70.3 356.1 68.9 354.5 Z M 91.3 356.7 C 91.3 356.7 91.29 355.14 91.3 355.1 C 90.4 356.5 88.9 357.1 87.5 357.1 C 85.1 357.1 83.1 355.3 83.1 352.2 C 83.1 349.2 85.1 347.5 87.5 347.5 C 88.9 347.5 90.4 348 91.3 349.3 C 91.3 349.3 91.3 346.8 91.3 346.8 C 91.3 344.8 90.2 343.7 88.3 343.7 C 87 343.7 85.8 344.2 84.7 345.5 C 84.7 345.5 83.7 343.9 83.7 343.9 C 85.1 342.5 86.8 341.8 88.6 341.8 C 91.5 341.8 93.4 343.3 93.4 346.6 C 93.45 346.56 93.4 356.7 93.4 356.7 L 91.3 356.7 Z M 91.3 353.7 C 91.3 353.7 91.3 350.9 91.3 350.9 C 90.6 349.7 89.4 349 88.2 349 C 86.4 349 85.3 350.5 85.3 352.3 C 85.3 354.1 86.4 355.5 88.2 355.5 C 89.4 355.5 90.6 354.9 91.3 353.7 Z M 104.9 356.7 C 104.9 356.7 104.91 346.38 104.9 346.4 C 104.9 344.5 104 343.8 102.6 343.8 C 101.2 343.8 99.9 344.9 99.2 346.1 C 99.21 346.08 99.2 356.7 99.2 356.7 L 97.1 356.7 L 97.1 342.2 L 99.2 342.2 C 99.2 342.2 99.21 344.28 99.2 344.3 C 100 343 101.7 341.8 103.4 341.8 C 105.9 341.8 107.1 343.2 107.1 345.8 C 107.07 345.78 107.1 356.7 107.1 356.7 L 104.9 356.7 Z M 119 356.7 C 119 356.7 119.01 354.63 119 354.6 C 118.2 356.1 116.7 357.1 115.2 357.1 C 112 357.1 110 354 110 349.5 C 110 345 111.9 341.8 115.2 341.8 C 116.7 341.8 118.1 342.7 119 344.3 C 119.01 344.31 119 336.7 119 336.7 L 121.2 336.7 L 121.2 356.7 L 119 356.7 Z M 119 352.8 C 119 352.8 119 346.1 119 346.1 C 118.5 344.9 117.1 343.8 115.7 343.8 C 113.4 343.8 112.3 346.3 112.3 349.5 C 112.3 352.6 113.4 355.1 115.7 355.1 C 117.1 355.1 118.5 354.1 119 352.8 Z " stroke="none" fill="#d3d2d2"/>  </g>  <g id="Polygon152446">    <path d="M 5.5 320.7 L 5.5 302.8 L 0.8 302.8 L 0.8 300.7 L 12.6 300.7 L 12.6 302.8 L 7.9 302.8 L 7.9 320.7 L 5.5 320.7 Z M 14.6 302.6 C 14.6 301.8 15.3 301.2 16.1 301.2 C 16.9 301.2 17.6 301.8 17.6 302.6 C 17.6 303.4 16.9 304.1 16.1 304.1 C 15.3 304.1 14.6 303.4 14.6 302.6 Z M 15.1 320.7 L 15.1 306.2 L 17.2 306.2 L 17.2 320.7 L 15.1 320.7 Z M 19.7 319 C 19.7 319 20.8 317.5 20.8 317.5 C 21.6 318.5 23 319.3 24.5 319.3 C 26.2 319.3 27.3 318.4 27.3 317 C 27.3 313.6 20.1 314.8 20.1 309.7 C 20.1 307.6 21.8 305.8 24.7 305.8 C 26.6 305.8 28.1 306.6 29.1 307.7 C 29.1 307.7 28.1 309.2 28.1 309.2 C 27.4 308.2 26.2 307.6 24.7 307.6 C 23.2 307.6 22.2 308.5 22.2 309.7 C 22.2 312.8 29.4 311.7 29.4 316.9 C 29.4 319.3 27.5 321.1 24.6 321.1 C 22.5 321.1 20.9 320.4 19.7 319 Z M 31 319 C 31 319 32.1 317.5 32.1 317.5 C 32.9 318.5 34.3 319.3 35.8 319.3 C 37.5 319.3 38.6 318.4 38.6 317 C 38.6 313.6 31.4 314.8 31.4 309.7 C 31.4 307.6 33.1 305.8 36 305.8 C 37.9 305.8 39.4 306.6 40.4 307.7 C 40.4 307.7 39.4 309.2 39.4 309.2 C 38.7 308.2 37.5 307.6 36.1 307.6 C 34.5 307.6 33.5 308.5 33.5 309.7 C 33.5 312.8 40.7 311.7 40.7 316.9 C 40.7 319.3 38.8 321.1 35.9 321.1 C 33.8 321.1 32.2 320.4 31 319 Z M 51.3 320.7 C 51.3 320.7 51.3 318.69 51.3 318.7 C 50.4 319.9 48.9 321.1 47.1 321.1 C 44.6 321.1 43.5 319.8 43.5 317.2 C 43.47 317.19 43.5 306.2 43.5 306.2 L 45.6 306.2 C 45.6 306.2 45.6 316.56 45.6 316.6 C 45.6 318.5 46.5 319.1 47.9 319.1 C 49.3 319.1 50.7 318.1 51.3 316.9 C 51.3 316.89 51.3 306.2 51.3 306.2 L 53.5 306.2 L 53.5 320.7 L 51.3 320.7 Z M 56.4 313.4 C 56.4 309.2 58.6 305.8 62.3 305.8 C 66.1 305.8 68 309.3 68 313.5 C 68.01 313.5 68 314.2 68 314.2 C 68 314.2 58.62 314.16 58.6 314.2 C 58.7 317.1 60.2 319.3 62.8 319.3 C 64 319.3 65.3 318.6 66.2 317.5 C 66.2 317.5 67.4 318.7 67.4 318.7 C 66.2 320.2 64.6 321.1 62.6 321.1 C 58.7 321.1 56.4 317.9 56.4 313.4 Z M 62.2 307.6 C 59.7 307.6 58.7 310.4 58.6 312.6 C 58.6 312.6 65.9 312.6 65.9 312.6 C 65.8 310.3 64.9 307.6 62.2 307.6 Z M 79.1 318.6 C 79.14 318.6 79.1 326.2 79.1 326.2 L 77 326.2 L 77 306.2 L 79.1 306.2 C 79.1 306.2 79.14 308.28 79.1 308.3 C 80 306.8 81.4 305.8 82.9 305.8 C 86.2 305.8 88.1 308.9 88.1 313.4 C 88.1 318 86.2 321.1 82.9 321.1 C 81.5 321.1 80 320.2 79.1 318.6 Z M 85.9 313.4 C 85.9 310.3 84.8 307.8 82.4 307.8 C 81.1 307.8 79.7 308.8 79.1 310.1 C 79.1 310.1 79.1 316.7 79.1 316.7 C 79.7 318 81.1 319.1 82.4 319.1 C 84.8 319.1 85.9 316.6 85.9 313.4 Z M 98.5 320.7 C 98.5 320.7 98.49 319.14 98.5 319.1 C 97.6 320.5 96.1 321.1 94.7 321.1 C 92.3 321.1 90.3 319.3 90.3 316.2 C 90.3 313.2 92.3 311.5 94.7 311.5 C 96.1 311.5 97.6 312 98.5 313.3 C 98.5 313.3 98.5 310.8 98.5 310.8 C 98.5 308.8 97.4 307.7 95.5 307.7 C 94.2 307.7 93 308.2 91.9 309.5 C 91.9 309.5 90.9 307.9 90.9 307.9 C 92.3 306.5 94 305.8 95.8 305.8 C 98.7 305.8 100.6 307.3 100.6 310.6 C 100.65 310.56 100.6 320.7 100.6 320.7 L 98.5 320.7 Z M 98.5 317.7 C 98.5 317.7 98.5 314.9 98.5 314.9 C 97.8 313.7 96.6 313 95.4 313 C 93.6 313 92.5 314.5 92.5 316.3 C 92.5 318.1 93.6 319.5 95.4 319.5 C 96.6 319.5 97.8 318.9 98.5 317.7 Z M 106.4 318.6 C 106.41 318.6 106.4 326.2 106.4 326.2 L 104.3 326.2 L 104.3 306.2 L 106.4 306.2 C 106.4 306.2 106.41 308.28 106.4 308.3 C 107.2 306.8 108.7 305.8 110.2 305.8 C 113.5 305.8 115.4 308.9 115.4 313.4 C 115.4 318 113.5 321.1 110.2 321.1 C 108.7 321.1 107.3 320.2 106.4 318.6 Z M 113.2 313.4 C 113.2 310.3 112 307.8 109.7 307.8 C 108.3 307.8 107 308.8 106.4 310.1 C 106.4 310.1 106.4 316.7 106.4 316.7 C 107 318 108.3 319.1 109.7 319.1 C 112 319.1 113.2 316.6 113.2 313.4 Z M 117.6 313.4 C 117.6 309.2 119.8 305.8 123.5 305.8 C 127.3 305.8 129.2 309.3 129.2 313.5 C 129.21 313.5 129.2 314.2 129.2 314.2 C 129.2 314.2 119.82 314.16 119.8 314.2 C 119.9 317.1 121.4 319.3 124 319.3 C 125.2 319.3 126.5 318.6 127.4 317.5 C 127.4 317.5 128.6 318.7 128.6 318.7 C 127.4 320.2 125.8 321.1 123.8 321.1 C 119.9 321.1 117.6 317.9 117.6 313.4 Z M 123.4 307.6 C 120.9 307.6 119.9 310.4 119.8 312.6 C 119.8 312.6 127.1 312.6 127.1 312.6 C 127 310.3 126.1 307.6 123.4 307.6 Z M 132.1 320.7 L 132.1 306.2 L 134.2 306.2 C 134.2 306.2 134.19 308.52 134.2 308.5 C 135.1 307 136.5 305.9 138.3 305.9 C 138.3 305.9 138.3 308.1 138.3 308.1 C 138.1 308.1 137.8 308 137.6 308 C 136.3 308 134.8 309.2 134.2 310.4 C 134.19 310.41 134.2 320.7 134.2 320.7 L 132.1 320.7 Z " stroke="none" fill="#d3d2d2"/>  </g>  <g id="Polygon152445">    <path d="M 11.2 284.7 L 7.4 276.7 L 4.5 276.7 L 4.5 284.7 L 2.1 284.7 L 2.1 264.7 C 2.1 264.7 8.22 264.69 8.2 264.7 C 11.4 264.7 13.7 267 13.7 270.7 C 13.7 274.2 11.7 276 9.7 276.3 C 9.72 276.33 13.9 284.7 13.9 284.7 L 11.2 284.7 Z M 11.3 270.7 C 11.3 268.4 10 266.8 7.9 266.8 C 7.95 266.79 4.5 266.8 4.5 266.8 L 4.5 274.6 C 4.5 274.6 7.95 274.59 7.9 274.6 C 10 274.6 11.3 273 11.3 270.7 Z M 15.5 277.4 C 15.5 273.2 17.7 269.8 21.4 269.8 C 25.2 269.8 27.1 273.3 27.1 277.5 C 27.09 277.5 27.1 278.2 27.1 278.2 C 27.1 278.2 17.7 278.16 17.7 278.2 C 17.8 281.1 19.3 283.3 21.9 283.3 C 23.1 283.3 24.4 282.6 25.3 281.5 C 25.3 281.5 26.5 282.7 26.5 282.7 C 25.3 284.2 23.6 285.1 21.7 285.1 C 17.8 285.1 15.5 281.9 15.5 277.4 Z M 21.3 271.6 C 18.8 271.6 17.8 274.4 17.7 276.6 C 17.7 276.6 25 276.6 25 276.6 C 24.9 274.3 24 271.6 21.3 271.6 Z M 38.2 284.7 C 38.2 284.7 38.22 282.63 38.2 282.6 C 37.4 284.1 35.9 285.1 34.4 285.1 C 31.2 285.1 29.2 282 29.2 277.5 C 29.2 273 31.1 269.8 34.4 269.8 C 35.9 269.8 37.3 270.7 38.2 272.3 C 38.22 272.31 38.2 264.7 38.2 264.7 L 40.4 264.7 L 40.4 284.7 L 38.2 284.7 Z M 38.2 280.8 C 38.2 280.8 38.2 274.1 38.2 274.1 C 37.7 272.9 36.3 271.8 34.9 271.8 C 32.6 271.8 31.5 274.3 31.5 277.5 C 31.5 280.6 32.6 283.1 34.9 283.1 C 36.3 283.1 37.7 282.1 38.2 280.8 Z M 50.2 284.7 L 50.2 270.2 L 52.3 270.2 C 52.3 270.2 52.32 272.52 52.3 272.5 C 53.2 271 54.7 269.9 56.4 269.9 C 56.4 269.9 56.4 272.1 56.4 272.1 C 56.2 272.1 55.9 272 55.7 272 C 54.4 272 52.9 273.2 52.3 274.4 C 52.32 274.41 52.3 284.7 52.3 284.7 L 50.2 284.7 Z M 58.2 266.6 C 58.2 265.8 58.9 265.2 59.7 265.2 C 60.5 265.2 61.1 265.8 61.1 266.6 C 61.1 267.4 60.5 268.1 59.7 268.1 C 58.9 268.1 58.2 267.4 58.2 266.6 Z M 58.6 284.7 L 58.6 270.2 L 60.7 270.2 L 60.7 284.7 L 58.6 284.7 Z M 69.8 283.1 C 72.2 283.1 73.3 280.6 73.3 277.5 C 73.3 274.3 72.2 271.8 69.8 271.8 C 68.5 271.8 67.1 272.9 66.5 274.2 C 66.5 274.2 66.5 280.8 66.5 280.8 C 67.1 282.1 68.5 283.1 69.8 283.1 Z M 64.4 284.7 L 64.4 264.7 L 66.5 264.7 C 66.5 264.7 66.54 272.31 66.5 272.3 C 67.4 270.7 68.9 269.8 70.3 269.8 C 73.6 269.8 75.5 273 75.5 277.5 C 75.5 282 73.6 285.1 70.3 285.1 C 68.8 285.1 67.4 284.1 66.5 282.6 C 66.54 282.63 66.5 284.7 66.5 284.7 L 64.4 284.7 Z M 83.9 283.1 C 86.3 283.1 87.4 280.6 87.4 277.5 C 87.4 274.3 86.3 271.8 83.9 271.8 C 82.6 271.8 81.2 272.9 80.6 274.2 C 80.6 274.2 80.6 280.8 80.6 280.8 C 81.2 282.1 82.6 283.1 83.9 283.1 Z M 78.5 284.7 L 78.5 264.7 L 80.6 264.7 C 80.6 264.7 80.64 272.31 80.6 272.3 C 81.5 270.7 83 269.8 84.4 269.8 C 87.7 269.8 89.6 273 89.6 277.5 C 89.6 282 87.7 285.1 84.4 285.1 C 82.9 285.1 81.5 284.1 80.6 282.6 C 80.64 282.63 80.6 284.7 80.6 284.7 L 78.5 284.7 Z M 91.9 277.4 C 91.9 273.4 93.9 269.8 97.8 269.8 C 101.7 269.8 103.7 273.4 103.7 277.4 C 103.7 281.5 101.7 285.1 97.8 285.1 C 93.9 285.1 91.9 281.5 91.9 277.4 Z M 101.4 277.4 C 101.4 274.5 100.3 271.8 97.8 271.8 C 95.3 271.8 94.1 274.5 94.1 277.4 C 94.1 280.4 95.3 283.1 97.8 283.1 C 100.3 283.1 101.4 280.4 101.4 277.4 Z M 114.4 284.7 C 114.4 284.7 114.45 274.38 114.4 274.4 C 114.4 272.5 113.6 271.8 112.1 271.8 C 110.7 271.8 109.4 272.9 108.7 274.1 C 108.75 274.08 108.7 284.7 108.7 284.7 L 106.6 284.7 L 106.6 270.2 L 108.7 270.2 C 108.7 270.2 108.75 272.28 108.7 272.3 C 109.6 271 111.2 269.8 112.9 269.8 C 115.4 269.8 116.6 271.2 116.6 273.8 C 116.61 273.78 116.6 284.7 116.6 284.7 L 114.4 284.7 Z " stroke="none" fill="#d3d2d2"/>  </g>  <g id="Polygon152444">    <path d="M 1.4 238.7 C 1.4 232.7 4.4 228.4 9.2 228.4 C 12.2 228.4 13.9 230.2 15 232.3 C 15 232.3 13 233.2 13 233.2 C 12.2 231.6 10.9 230.5 9.2 230.5 C 5.9 230.5 3.9 234 3.9 238.7 C 3.9 243.4 5.9 246.9 9.2 246.9 C 11 246.9 12.3 245.7 13.1 244 C 13.1 244 15.1 244.9 15.1 244.9 C 14 247.1 12.3 249.1 9.2 249.1 C 4.4 249.1 1.4 244.7 1.4 238.7 Z M 25.1 248.7 C 25.1 248.7 25.11 247.14 25.1 247.1 C 24.2 248.5 22.8 249.1 21.3 249.1 C 19 249.1 16.9 247.3 16.9 244.2 C 16.9 241.2 18.9 239.5 21.3 239.5 C 22.8 239.5 24.2 240 25.1 241.3 C 25.1 241.3 25.1 238.8 25.1 238.8 C 25.1 236.8 24 235.7 22.1 235.7 C 20.8 235.7 19.6 236.2 18.5 237.5 C 18.5 237.5 17.5 235.9 17.5 235.9 C 18.9 234.5 20.6 233.8 22.5 233.8 C 25.3 233.8 27.3 235.3 27.3 238.6 C 27.27 238.56 27.3 248.7 27.3 248.7 L 25.1 248.7 Z M 25.1 245.7 C 25.1 245.7 25.1 242.9 25.1 242.9 C 24.4 241.7 23.2 241 22 241 C 20.2 241 19.1 242.5 19.1 244.3 C 19.1 246.1 20.2 247.5 22 247.5 C 23.2 247.5 24.4 246.9 25.1 245.7 Z M 36.3 247.1 C 38.7 247.1 39.8 244.6 39.8 241.5 C 39.8 238.3 38.7 235.8 36.3 235.8 C 34.9 235.8 33.6 236.9 33 238.2 C 33 238.2 33 244.8 33 244.8 C 33.6 246.1 34.9 247.1 36.3 247.1 Z M 30.9 248.7 L 30.9 228.7 L 33 228.7 C 33 228.7 33.03 236.31 33 236.3 C 33.9 234.7 35.4 233.8 36.8 233.8 C 40.1 233.8 42 237 42 241.5 C 42 246 40.1 249.1 36.8 249.1 C 35.3 249.1 33.9 248.1 33 246.6 C 33.03 246.63 33 248.7 33 248.7 L 30.9 248.7 Z M 45 248.7 L 45 228.7 L 47.1 228.7 L 47.1 248.7 L 45 248.7 Z M 50.1 241.4 C 50.1 237.2 52.3 233.8 55.9 233.8 C 59.8 233.8 61.7 237.3 61.7 241.5 C 61.68 241.5 61.7 242.2 61.7 242.2 C 61.7 242.2 52.29 242.16 52.3 242.2 C 52.4 245.1 53.9 247.3 56.5 247.3 C 57.7 247.3 59 246.6 59.9 245.5 C 59.9 245.5 61 246.7 61 246.7 C 59.9 248.2 58.2 249.1 56.3 249.1 C 52.4 249.1 50.1 245.9 50.1 241.4 Z M 55.9 235.6 C 53.4 235.6 52.3 238.4 52.3 240.6 C 52.3 240.6 59.5 240.6 59.5 240.6 C 59.5 238.3 58.6 235.6 55.9 235.6 Z M 70.3 230.6 C 70.3 229.8 70.9 229.2 71.7 229.2 C 72.5 229.2 73.2 229.8 73.2 230.6 C 73.2 231.4 72.5 232.1 71.7 232.1 C 70.9 232.1 70.3 231.4 70.3 230.6 Z M 70.7 248.7 L 70.7 234.2 L 72.8 234.2 L 72.8 248.7 L 70.7 248.7 Z M 84.3 248.7 C 84.3 248.7 84.3 238.38 84.3 238.4 C 84.3 236.5 83.4 235.8 82 235.8 C 80.6 235.8 79.3 236.9 78.6 238.1 C 78.6 238.08 78.6 248.7 78.6 248.7 L 76.5 248.7 L 76.5 234.2 L 78.6 234.2 C 78.6 234.2 78.6 236.28 78.6 236.3 C 79.4 235 81.1 233.8 82.8 233.8 C 85.3 233.8 86.5 235.2 86.5 237.8 C 86.46 237.78 86.5 248.7 86.5 248.7 L 84.3 248.7 Z M 88.9 247 C 88.9 247 90 245.5 90 245.5 C 90.9 246.5 92.2 247.3 93.8 247.3 C 95.5 247.3 96.6 246.4 96.6 245 C 96.6 241.6 89.4 242.8 89.4 237.7 C 89.4 235.6 91.1 233.8 94 233.8 C 95.9 233.8 97.4 234.6 98.4 235.7 C 98.4 235.7 97.4 237.2 97.4 237.2 C 96.7 236.2 95.4 235.6 94 235.6 C 92.4 235.6 91.4 236.5 91.4 237.7 C 91.4 240.8 98.7 239.7 98.7 244.9 C 98.7 247.3 96.8 249.1 93.8 249.1 C 91.8 249.1 90.1 248.4 88.9 247 Z M 109.3 248.7 C 109.3 248.7 109.26 246.69 109.3 246.7 C 108.4 247.9 106.9 249.1 105.1 249.1 C 102.6 249.1 101.4 247.8 101.4 245.2 C 101.43 245.19 101.4 234.2 101.4 234.2 L 103.6 234.2 C 103.6 234.2 103.56 244.56 103.6 244.6 C 103.6 246.5 104.5 247.1 105.9 247.1 C 107.3 247.1 108.6 246.1 109.3 244.9 C 109.26 244.89 109.3 234.2 109.3 234.2 L 111.4 234.2 L 111.4 248.7 L 109.3 248.7 Z M 115.1 248.7 L 115.1 228.7 L 117.2 228.7 L 117.2 248.7 L 115.1 248.7 Z M 128.3 248.7 C 128.3 248.7 128.31 247.14 128.3 247.1 C 127.4 248.5 126 249.1 124.5 249.1 C 122.2 249.1 120.1 247.3 120.1 244.2 C 120.1 241.2 122.1 239.5 124.5 239.5 C 126 239.5 127.4 240 128.3 241.3 C 128.3 241.3 128.3 238.8 128.3 238.8 C 128.3 236.8 127.2 235.7 125.3 235.7 C 124 235.7 122.8 236.2 121.7 237.5 C 121.7 237.5 120.7 235.9 120.7 235.9 C 122.1 234.5 123.8 233.8 125.7 233.8 C 128.5 233.8 130.5 235.3 130.5 238.6 C 130.47 238.56 130.5 248.7 130.5 248.7 L 128.3 248.7 Z M 128.3 245.7 C 128.3 245.7 128.3 242.9 128.3 242.9 C 127.6 241.7 126.4 241 125.2 241 C 123.4 241 122.3 242.5 122.3 244.3 C 122.3 246.1 123.4 247.5 125.2 247.5 C 126.4 247.5 127.6 246.9 128.3 245.7 Z M 134.5 245.8 C 134.52 245.79 134.5 236.1 134.5 236.1 L 132.6 236.1 L 132.6 234.2 L 134.5 234.2 L 134.5 230.2 L 136.7 230.2 L 136.7 234.2 L 139.1 234.2 L 139.1 236.1 L 136.7 236.1 C 136.7 236.1 136.68 245.4 136.7 245.4 C 136.7 246.5 137 247.1 137.8 247.1 C 138.4 247.1 138.8 246.9 139.1 246.6 C 139.1 246.6 139.8 248.2 139.8 248.2 C 139.3 248.7 138.5 249.1 137.4 249.1 C 135.4 249.1 134.5 247.9 134.5 245.8 Z M 141.3 230.6 C 141.3 229.8 142 229.2 142.7 229.2 C 143.5 229.2 144.2 229.8 144.2 230.6 C 144.2 231.4 143.5 232.1 142.7 232.1 C 142 232.1 141.3 231.4 141.3 230.6 Z M 141.7 248.7 L 141.7 234.2 L 143.8 234.2 L 143.8 248.7 L 141.7 248.7 Z M 146.8 241.4 C 146.8 237.4 148.8 233.8 152.6 233.8 C 156.5 233.8 158.5 237.4 158.5 241.4 C 158.5 245.5 156.5 249.1 152.6 249.1 C 148.8 249.1 146.8 245.5 146.8 241.4 Z M 156.3 241.4 C 156.3 238.5 155.2 235.8 152.6 235.8 C 150.1 235.8 149 238.5 149 241.4 C 149 244.4 150.1 247.1 152.6 247.1 C 155.2 247.1 156.3 244.4 156.3 241.4 Z M 169.3 248.7 C 169.3 248.7 169.32 238.38 169.3 238.4 C 169.3 236.5 168.4 235.8 167 235.8 C 165.6 235.8 164.3 236.9 163.6 238.1 C 163.62 238.08 163.6 248.7 163.6 248.7 L 161.5 248.7 L 161.5 234.2 L 163.6 234.2 C 163.6 234.2 163.62 236.28 163.6 236.3 C 164.5 235 166.1 233.8 167.8 233.8 C 170.3 233.8 171.5 235.2 171.5 237.8 C 171.48 237.78 171.5 248.7 171.5 248.7 L 169.3 248.7 Z " stroke="none" fill="#d3d2d2"/>  </g>  <g id="Polygon152443">    <path d="M 0.9 210.5 C 0.9 210.5 2.2 208.7 2.2 208.7 C 3.2 209.9 4.9 210.9 6.8 210.9 C 9.4 210.9 10.5 209.4 10.5 207.7 C 10.5 202.8 1.5 204.1 1.5 197.6 C 1.5 194.5 3.9 192.4 7.2 192.4 C 9.4 192.4 11.2 193.1 12.5 194.5 C 12.5 194.5 11.3 196.3 11.3 196.3 C 10.2 195.1 8.7 194.5 7.1 194.5 C 5.3 194.5 3.9 195.7 3.9 197.5 C 3.9 201.7 12.9 200.8 12.9 207.5 C 12.9 210.4 11 213.1 6.8 213.1 C 4.2 213.1 2.2 212.1 0.9 210.5 Z M 23.2 212.7 C 23.2 212.7 23.22 211.14 23.2 211.1 C 22.3 212.5 20.9 213.1 19.4 213.1 C 17.1 213.1 15 211.3 15 208.2 C 15 205.2 17 203.5 19.4 203.5 C 20.9 203.5 22.3 204 23.2 205.3 C 23.2 205.3 23.2 202.8 23.2 202.8 C 23.2 200.8 22.1 199.7 20.2 199.7 C 18.9 199.7 17.7 200.2 16.6 201.5 C 16.6 201.5 15.7 199.9 15.7 199.9 C 17 198.5 18.7 197.8 20.6 197.8 C 23.5 197.8 25.4 199.3 25.4 202.6 C 25.38 202.56 25.4 212.7 25.4 212.7 L 23.2 212.7 Z M 23.2 209.7 C 23.2 209.7 23.2 206.9 23.2 206.9 C 22.6 205.7 21.4 205 20.1 205 C 18.3 205 17.2 206.5 17.2 208.3 C 17.2 210.1 18.3 211.5 20.1 211.5 C 21.4 211.5 22.6 210.9 23.2 209.7 Z M 36.8 212.7 C 36.8 212.7 36.84 202.38 36.8 202.4 C 36.8 200.5 36 199.8 34.5 199.8 C 33.1 199.8 31.8 200.9 31.1 202.1 C 31.14 202.08 31.1 212.7 31.1 212.7 L 29 212.7 L 29 198.2 L 31.1 198.2 C 31.1 198.2 31.14 200.28 31.1 200.3 C 32 199 33.6 197.8 35.3 197.8 C 37.8 197.8 39 199.2 39 201.8 C 39 201.78 39 212.7 39 212.7 L 36.8 212.7 Z M 42.2 194.6 C 42.2 193.8 42.9 193.2 43.7 193.2 C 44.5 193.2 45.2 193.8 45.2 194.6 C 45.2 195.4 44.5 196.1 43.7 196.1 C 42.9 196.1 42.2 195.4 42.2 194.6 Z M 42.7 212.7 L 42.7 198.2 L 44.8 198.2 L 44.8 212.7 L 42.7 212.7 Z M 48.9 209.8 C 48.87 209.79 48.9 200.1 48.9 200.1 L 46.9 200.1 L 46.9 198.2 L 48.9 198.2 L 48.9 194.2 L 51 194.2 L 51 198.2 L 53.5 198.2 L 53.5 200.1 L 51 200.1 C 51 200.1 51.03 209.4 51 209.4 C 51 210.5 51.4 211.1 52.2 211.1 C 52.7 211.1 53.2 210.9 53.5 210.6 C 53.5 210.6 54.1 212.2 54.1 212.2 C 53.6 212.7 52.9 213.1 51.8 213.1 C 49.8 213.1 48.9 211.9 48.9 209.8 Z M 63.5 212.7 C 63.5 212.7 63.48 211.14 63.5 211.1 C 62.5 212.5 61.1 213.1 59.7 213.1 C 57.3 213.1 55.3 211.3 55.3 208.2 C 55.3 205.2 57.3 203.5 59.7 203.5 C 61.1 203.5 62.6 204 63.5 205.3 C 63.5 205.3 63.5 202.8 63.5 202.8 C 63.5 200.8 62.4 199.7 60.5 199.7 C 59.2 199.7 58 200.2 56.9 201.5 C 56.9 201.5 55.9 199.9 55.9 199.9 C 57.3 198.5 59 197.8 60.8 197.8 C 63.7 197.8 65.6 199.3 65.6 202.6 C 65.64 202.56 65.6 212.7 65.6 212.7 L 63.5 212.7 Z M 63.5 209.7 C 63.5 209.7 63.5 206.9 63.5 206.9 C 62.8 205.7 61.6 205 60.4 205 C 58.6 205 57.5 206.5 57.5 208.3 C 57.5 210.1 58.6 211.5 60.4 211.5 C 61.6 211.5 62.8 210.9 63.5 209.7 Z M 69.3 212.7 L 69.3 198.2 L 71.4 198.2 C 71.4 198.2 71.4 200.52 71.4 200.5 C 72.3 199 73.7 197.9 75.5 197.9 C 75.5 197.9 75.5 200.1 75.5 200.1 C 75.3 200.1 75 200 74.8 200 C 73.5 200 72 201.2 71.4 202.4 C 71.4 202.41 71.4 212.7 71.4 212.7 L 69.3 212.7 Z M 77.3 216.4 C 77.5 216.6 78 216.7 78.2 216.7 C 79.1 216.7 79.6 216.3 79.9 215.2 C 79.95 215.22 80.7 213 80.7 213 L 75.9 198.2 L 78.2 198.2 L 81.8 210.1 L 85.5 198.2 L 87.8 198.2 C 87.8 198.2 81.99 215.76 82 215.8 C 81.3 217.9 80.1 218.6 78.4 218.6 C 77.9 218.6 77.3 218.5 76.9 218.4 C 76.9 218.4 77.3 216.4 77.3 216.4 Z M 97.9 210.6 C 97.92 210.6 97.9 218.2 97.9 218.2 L 95.8 218.2 L 95.8 198.2 L 97.9 198.2 C 97.9 198.2 97.92 200.28 97.9 200.3 C 98.8 198.8 100.2 197.8 101.7 197.8 C 105 197.8 106.9 200.9 106.9 205.4 C 106.9 210 105 213.1 101.7 213.1 C 100.3 213.1 98.8 212.2 97.9 210.6 Z M 104.7 205.4 C 104.7 202.3 103.6 199.8 101.2 199.8 C 99.8 199.8 98.5 200.8 97.9 202.1 C 97.9 202.1 97.9 208.7 97.9 208.7 C 98.5 210 99.8 211.1 101.2 211.1 C 103.6 211.1 104.7 208.6 104.7 205.4 Z M 117.3 212.7 C 117.3 212.7 117.27 211.14 117.3 211.1 C 116.3 212.5 114.9 213.1 113.5 213.1 C 111.1 213.1 109.1 211.3 109.1 208.2 C 109.1 205.2 111.1 203.5 113.5 203.5 C 114.9 203.5 116.4 204 117.3 205.3 C 117.3 205.3 117.3 202.8 117.3 202.8 C 117.3 200.8 116.2 199.7 114.3 199.7 C 112.9 199.7 111.8 200.2 110.7 201.5 C 110.7 201.5 109.7 199.9 109.7 199.9 C 111.1 198.5 112.8 197.8 114.6 197.8 C 117.5 197.8 119.4 199.3 119.4 202.6 C 119.43 202.56 119.4 212.7 119.4 212.7 L 117.3 212.7 Z M 117.3 209.7 C 117.3 209.7 117.3 206.9 117.3 206.9 C 116.6 205.7 115.4 205 114.1 205 C 112.3 205 111.3 206.5 111.3 208.3 C 111.3 210.1 112.3 211.5 114.1 211.5 C 115.4 211.5 116.6 210.9 117.3 209.7 Z M 131.3 212.7 C 131.3 212.7 131.34 210.63 131.3 210.6 C 130.5 212.1 129.1 213.1 127.5 213.1 C 124.3 213.1 122.3 210 122.3 205.5 C 122.3 201 124.3 197.8 127.5 197.8 C 129 197.8 130.5 198.7 131.3 200.3 C 131.34 200.31 131.3 192.7 131.3 192.7 L 133.5 192.7 L 133.5 212.7 L 131.3 212.7 Z M 131.3 208.8 C 131.3 208.8 131.3 202.1 131.3 202.1 C 130.8 200.9 129.4 199.8 128.1 199.8 C 125.7 199.8 124.6 202.3 124.6 205.5 C 124.6 208.6 125.7 211.1 128.1 211.1 C 129.4 211.1 130.8 210.1 131.3 208.8 Z " stroke="none" fill="#d3d2d2"/>  </g>  <g id="Polygon152442">    <path d="M 14 176.7 L 10.7 160.9 L 7.5 176.7 L 4.9 176.7 L 0.5 156.7 L 3 156.7 L 6.3 173 L 9.7 156.7 L 11.7 156.7 L 15.1 173 L 18.4 156.7 L 21 156.7 L 16.5 176.7 L 14 176.7 Z M 31 176.7 C 31 176.7 30.99 166.35 31 166.3 C 31 164.4 30.1 163.8 28.6 163.8 C 27.2 163.8 25.9 164.9 25.3 166.1 C 25.26 166.08 25.3 176.7 25.3 176.7 L 23.1 176.7 L 23.1 156.7 L 25.3 156.7 C 25.3 156.7 25.26 164.28 25.3 164.3 C 26.1 163 27.7 161.8 29.5 161.8 C 31.9 161.8 33.1 163.1 33.1 165.7 C 33.12 165.72 33.1 176.7 33.1 176.7 L 31 176.7 Z M 36.4 158.6 C 36.4 157.8 37 157.2 37.8 157.2 C 38.6 157.2 39.3 157.8 39.3 158.6 C 39.3 159.4 38.6 160.1 37.8 160.1 C 37 160.1 36.4 159.4 36.4 158.6 Z M 36.8 176.7 L 36.8 162.2 L 38.9 162.2 L 38.9 176.7 L 36.8 176.7 Z M 43 173.8 C 42.99 173.79 43 164.1 43 164.1 L 41.1 164.1 L 41.1 162.2 L 43 162.2 L 43 158.2 L 45.1 158.2 L 45.1 162.2 L 47.6 162.2 L 47.6 164.1 L 45.1 164.1 C 45.1 164.1 45.15 173.4 45.1 173.4 C 45.1 174.5 45.5 175.1 46.3 175.1 C 46.9 175.1 47.3 174.9 47.6 174.6 C 47.6 174.6 48.2 176.2 48.2 176.2 C 47.7 176.7 47 177.1 45.9 177.1 C 43.9 177.1 43 175.9 43 173.8 Z M 49.4 169.4 C 49.4 165.2 51.7 161.8 55.3 161.8 C 59.1 161.8 61 165.3 61 169.5 C 61.05 169.5 61 170.2 61 170.2 C 61 170.2 51.66 170.16 51.7 170.2 C 51.7 173.1 53.2 175.3 55.8 175.3 C 57.1 175.3 58.4 174.6 59.3 173.5 C 59.3 173.5 60.4 174.7 60.4 174.7 C 59.2 176.2 57.6 177.1 55.6 177.1 C 51.8 177.1 49.4 173.9 49.4 169.4 Z M 55.3 163.6 C 52.7 163.6 51.7 166.4 51.7 168.6 C 51.7 168.6 58.9 168.6 58.9 168.6 C 58.9 166.3 57.9 163.6 55.3 163.6 Z M 69.9 180.7 C 69.9 180.7 70.9 179.1 70.9 179.1 C 71.9 180.2 73.1 180.7 74.7 180.7 C 76.7 180.7 78.3 179.6 78.3 176.8 C 78.3 176.8 78.3 174.4 78.3 174.4 C 77.5 175.9 76 176.9 74.5 176.9 C 71.3 176.9 69.3 173.9 69.3 169.4 C 69.3 164.9 71.2 161.8 74.5 161.8 C 76 161.8 77.4 162.7 78.3 164.3 C 78.33 164.31 78.3 162.2 78.3 162.2 L 80.5 162.2 C 80.5 162.2 80.49 176.67 80.5 176.7 C 80.5 181.1 77.8 182.6 74.8 182.6 C 72.8 182.6 71.3 182.1 69.9 180.7 Z M 78.3 172.6 C 78.3 172.6 78.3 166.1 78.3 166.1 C 77.8 164.9 76.4 163.8 75.1 163.8 C 72.7 163.8 71.6 166.3 71.6 169.4 C 71.6 172.5 72.7 175 75.1 175 C 76.4 175 77.8 173.8 78.3 172.6 Z M 84.1 176.7 L 84.1 156.7 L 86.2 156.7 L 86.2 176.7 L 84.1 176.7 Z M 97.7 176.7 C 97.7 176.7 97.74 174.69 97.7 174.7 C 96.9 175.9 95.3 177.1 93.5 177.1 C 91.1 177.1 89.9 175.8 89.9 173.2 C 89.91 173.19 89.9 162.2 89.9 162.2 L 92 162.2 C 92 162.2 92.04 172.56 92 172.6 C 92 174.5 92.9 175.1 94.3 175.1 C 95.8 175.1 97.1 174.1 97.7 172.9 C 97.74 172.89 97.7 162.2 97.7 162.2 L 99.9 162.2 L 99.9 176.7 L 97.7 176.7 Z M 102.8 169.4 C 102.8 165.2 105.1 161.8 108.7 161.8 C 112.5 161.8 114.4 165.3 114.4 169.5 C 114.45 169.5 114.4 170.2 114.4 170.2 C 114.4 170.2 105.06 170.16 105.1 170.2 C 105.1 173.1 106.6 175.3 109.2 175.3 C 110.5 175.3 111.8 174.6 112.7 173.5 C 112.7 173.5 113.8 174.7 113.8 174.7 C 112.6 176.2 111 177.1 109 177.1 C 105.2 177.1 102.8 173.9 102.8 169.4 Z M 108.7 163.6 C 106.1 163.6 105.1 166.4 105.1 168.6 C 105.1 168.6 112.3 168.6 112.3 168.6 C 112.3 166.3 111.3 163.6 108.7 163.6 Z " stroke="none" fill="#d3d2d2"/>  </g>  <g id="Polygon152441">    <path d="M 14 140.7 L 10.7 124.9 L 7.5 140.7 L 4.9 140.7 L 0.5 120.7 L 3 120.7 L 6.3 137 L 9.7 120.7 L 11.7 120.7 L 15.1 137 L 18.4 120.7 L 21 120.7 L 16.5 140.7 L 14 140.7 Z M 31 140.7 C 31 140.7 30.99 130.35 31 130.3 C 31 128.4 30.1 127.8 28.6 127.8 C 27.2 127.8 25.9 128.9 25.3 130.1 C 25.26 130.08 25.3 140.7 25.3 140.7 L 23.1 140.7 L 23.1 120.7 L 25.3 120.7 C 25.3 120.7 25.26 128.28 25.3 128.3 C 26.1 127 27.7 125.8 29.5 125.8 C 31.9 125.8 33.1 127.1 33.1 129.7 C 33.12 129.72 33.1 140.7 33.1 140.7 L 31 140.7 Z M 36.4 122.6 C 36.4 121.8 37 121.2 37.8 121.2 C 38.6 121.2 39.3 121.8 39.3 122.6 C 39.3 123.4 38.6 124.1 37.8 124.1 C 37 124.1 36.4 123.4 36.4 122.6 Z M 36.8 140.7 L 36.8 126.2 L 38.9 126.2 L 38.9 140.7 L 36.8 140.7 Z M 43 137.8 C 42.99 137.79 43 128.1 43 128.1 L 41.1 128.1 L 41.1 126.2 L 43 126.2 L 43 122.2 L 45.1 122.2 L 45.1 126.2 L 47.6 126.2 L 47.6 128.1 L 45.1 128.1 C 45.1 128.1 45.15 137.4 45.1 137.4 C 45.1 138.5 45.5 139.1 46.3 139.1 C 46.9 139.1 47.3 138.9 47.6 138.6 C 47.6 138.6 48.2 140.2 48.2 140.2 C 47.7 140.7 47 141.1 45.9 141.1 C 43.9 141.1 43 139.9 43 137.8 Z M 49.4 133.4 C 49.4 129.2 51.7 125.8 55.3 125.8 C 59.1 125.8 61 129.3 61 133.5 C 61.05 133.5 61 134.2 61 134.2 C 61 134.2 51.66 134.16 51.7 134.2 C 51.7 137.1 53.2 139.3 55.8 139.3 C 57.1 139.3 58.4 138.6 59.3 137.5 C 59.3 137.5 60.4 138.7 60.4 138.7 C 59.2 140.2 57.6 141.1 55.6 141.1 C 51.8 141.1 49.4 137.9 49.4 133.4 Z M 55.3 127.6 C 52.7 127.6 51.7 130.4 51.7 132.6 C 51.7 132.6 58.9 132.6 58.9 132.6 C 58.9 130.3 57.9 127.6 55.3 127.6 Z M 70.5 137.8 C 70.47 137.79 70.5 128.1 70.5 128.1 L 68.5 128.1 L 68.5 126.2 L 70.5 126.2 L 70.5 122.2 L 72.6 122.2 L 72.6 126.2 L 75.1 126.2 L 75.1 128.1 L 72.6 128.1 C 72.6 128.1 72.63 137.4 72.6 137.4 C 72.6 138.5 73 139.1 73.8 139.1 C 74.3 139.1 74.8 138.9 75.1 138.6 C 75.1 138.6 75.7 140.2 75.7 140.2 C 75.2 140.7 74.5 141.1 73.4 141.1 C 71.4 141.1 70.5 139.9 70.5 137.8 Z M 85.1 140.7 C 85.1 140.7 85.08 139.14 85.1 139.1 C 84.1 140.5 82.7 141.1 81.3 141.1 C 78.9 141.1 76.9 139.3 76.9 136.2 C 76.9 133.2 78.9 131.5 81.3 131.5 C 82.7 131.5 84.2 132 85.1 133.3 C 85.1 133.3 85.1 130.8 85.1 130.8 C 85.1 128.8 84 127.7 82.1 127.7 C 80.8 127.7 79.6 128.2 78.5 129.5 C 78.5 129.5 77.5 127.9 77.5 127.9 C 78.9 126.5 80.6 125.8 82.4 125.8 C 85.3 125.8 87.2 127.3 87.2 130.6 C 87.24 130.56 87.2 140.7 87.2 140.7 L 85.1 140.7 Z M 85.1 137.7 C 85.1 137.7 85.1 134.9 85.1 134.9 C 84.4 133.7 83.2 133 82 133 C 80.2 133 79.1 134.5 79.1 136.3 C 79.1 138.1 80.2 139.5 82 139.5 C 83.2 139.5 84.4 138.9 85.1 137.7 Z M 90.9 140.7 L 90.9 120.7 L 93 120.7 L 93 140.7 L 90.9 140.7 Z M 95.9 133.4 C 95.9 129.1 98.2 125.8 101.9 125.8 C 103.9 125.8 105.2 126.7 106.1 127.8 C 106.1 127.8 104.9 129.2 104.9 129.2 C 104.1 128.2 103.2 127.8 102.1 127.8 C 99.5 127.8 98.2 130.3 98.2 133.4 C 98.2 136.5 99.5 139.1 102.1 139.1 C 103.2 139.1 104.1 138.7 104.9 137.7 C 104.9 137.7 106.1 139.1 106.1 139.1 C 105.2 140.3 103.9 141.1 101.9 141.1 C 98.2 141.1 95.9 137.7 95.9 133.4 Z M 116.4 140.7 C 116.4 140.7 116.37 138.69 116.4 138.7 C 115.5 139.9 114 141.1 112.2 141.1 C 109.7 141.1 108.5 139.8 108.5 137.2 C 108.54 137.19 108.5 126.2 108.5 126.2 L 110.7 126.2 C 110.7 126.2 110.67 136.56 110.7 136.6 C 110.7 138.5 111.6 139.1 113 139.1 C 114.4 139.1 115.7 138.1 116.4 136.9 C 116.37 136.89 116.4 126.2 116.4 126.2 L 118.5 126.2 L 118.5 140.7 L 116.4 140.7 Z M 136.8 140.7 C 136.8 140.7 136.83 130.2 136.8 130.2 C 136.8 128.6 136.2 127.8 134.8 127.8 C 133.5 127.8 132.2 128.9 131.7 130.1 C 131.67 130.08 131.7 140.7 131.7 140.7 L 129.5 140.7 C 129.5 140.7 129.51 130.2 129.5 130.2 C 129.5 128.6 128.9 127.8 127.5 127.8 C 126.2 127.8 124.9 128.9 124.3 130.1 C 124.32 130.08 124.3 140.7 124.3 140.7 L 122.2 140.7 L 122.2 126.2 L 124.3 126.2 C 124.3 126.2 124.32 128.28 124.3 128.3 C 124.9 127.2 126.5 125.8 128.3 125.8 C 130.1 125.8 131.3 126.9 131.5 128.4 C 132.3 127.1 133.9 125.8 135.6 125.8 C 137.8 125.8 139 127 139 129.6 C 138.99 129.63 139 140.7 139 140.7 L 136.8 140.7 Z M 150.9 138.6 C 150.93 138.6 150.9 146.2 150.9 146.2 L 148.8 146.2 L 148.8 126.2 L 150.9 126.2 C 150.9 126.2 150.93 128.28 150.9 128.3 C 151.8 126.8 153.2 125.8 154.7 125.8 C 158 125.8 159.9 128.9 159.9 133.4 C 159.9 138 158 141.1 154.7 141.1 C 153.3 141.1 151.8 140.2 150.9 138.6 Z M 157.7 133.4 C 157.7 130.3 156.6 127.8 154.2 127.8 C 152.8 127.8 151.5 128.8 150.9 130.1 C 150.9 130.1 150.9 136.7 150.9 136.7 C 151.5 138 152.8 139.1 154.2 139.1 C 156.6 139.1 157.7 136.6 157.7 133.4 Z M 162.1 133.4 C 162.1 129.4 164.2 125.8 168 125.8 C 171.9 125.8 173.9 129.4 173.9 133.4 C 173.9 137.5 171.9 141.1 168 141.1 C 164.2 141.1 162.1 137.5 162.1 133.4 Z M 171.7 133.4 C 171.7 130.5 170.5 127.8 168 127.8 C 165.5 127.8 164.4 130.5 164.4 133.4 C 164.4 136.4 165.5 139.1 168 139.1 C 170.5 139.1 171.7 136.4 171.7 133.4 Z M 187.5 140.7 L 184.4 129.1 L 181.3 140.7 L 179.1 140.7 L 175.3 126.2 L 177.5 126.2 L 180.3 137.8 L 183.4 126.2 L 185.4 126.2 L 188.5 137.8 L 191.4 126.2 L 193.6 126.2 L 189.7 140.7 L 187.5 140.7 Z M 204 140.7 C 204 140.7 203.97 138.63 204 138.6 C 203.1 140.1 201.7 141.1 200.2 141.1 C 196.9 141.1 195 138 195 133.5 C 195 129 196.9 125.8 200.2 125.8 C 201.6 125.8 203.1 126.7 204 128.3 C 203.97 128.31 204 120.7 204 120.7 L 206.1 120.7 L 206.1 140.7 L 204 140.7 Z M 204 136.8 C 204 136.8 204 130.1 204 130.1 C 203.4 128.9 202.1 127.8 200.7 127.8 C 198.3 127.8 197.2 130.3 197.2 133.5 C 197.2 136.6 198.3 139.1 200.7 139.1 C 202.1 139.1 203.4 138.1 204 136.8 Z M 209.1 133.4 C 209.1 129.2 211.3 125.8 214.9 125.8 C 218.8 125.8 220.7 129.3 220.7 133.5 C 220.68 133.5 220.7 134.2 220.7 134.2 C 220.7 134.2 211.29 134.16 211.3 134.2 C 211.4 137.1 212.9 139.3 215.5 139.3 C 216.7 139.3 218 138.6 218.9 137.5 C 218.9 137.5 220 138.7 220 138.7 C 218.9 140.2 217.2 141.1 215.3 141.1 C 211.4 141.1 209.1 137.9 209.1 133.4 Z M 214.9 127.6 C 212.4 127.6 211.3 130.4 211.3 132.6 C 211.3 132.6 218.5 132.6 218.5 132.6 C 218.5 130.3 217.6 127.6 214.9 127.6 Z M 223.5 140.7 L 223.5 126.2 L 225.7 126.2 C 225.7 126.2 225.66 128.52 225.7 128.5 C 226.6 127 228 125.9 229.8 125.9 C 229.8 125.9 229.8 128.1 229.8 128.1 C 229.5 128.1 229.3 128 229 128 C 227.7 128 226.3 129.2 225.7 130.4 C 225.66 130.41 225.7 140.7 225.7 140.7 L 223.5 140.7 Z " stroke="none" fill="#d3d2d2"/>  </g>  <g id="Polygon152440">    <path d="M 1.4 94.7 C 1.4 88.7 4.4 84.4 9.2 84.4 C 12.2 84.4 13.9 86.2 15 88.3 C 15 88.3 13 89.2 13 89.2 C 12.2 87.6 10.9 86.5 9.2 86.5 C 5.9 86.5 3.9 90 3.9 94.7 C 3.9 99.4 5.9 102.9 9.2 102.9 C 11 102.9 12.3 101.7 13.1 100 C 13.1 100 15.1 100.9 15.1 100.9 C 14 103.1 12.3 105.1 9.2 105.1 C 4.4 105.1 1.4 100.7 1.4 94.7 Z M 16.9 97.4 C 16.9 93.4 19 89.8 22.8 89.8 C 26.7 89.8 28.7 93.4 28.7 97.4 C 28.7 101.5 26.7 105.1 22.8 105.1 C 19 105.1 16.9 101.5 16.9 97.4 Z M 26.5 97.4 C 26.5 94.5 25.4 91.8 22.8 91.8 C 20.3 91.8 19.2 94.5 19.2 97.4 C 19.2 100.4 20.3 103.1 22.8 103.1 C 25.4 103.1 26.5 100.4 26.5 97.4 Z M 32.1 101.8 C 32.1 101.79 32.1 92.1 32.1 92.1 L 30.2 92.1 L 30.2 90.2 L 32.1 90.2 L 32.1 86.2 L 34.3 86.2 L 34.3 90.2 L 36.7 90.2 L 36.7 92.1 L 34.3 92.1 C 34.3 92.1 34.26 101.4 34.3 101.4 C 34.3 102.5 34.6 103.1 35.4 103.1 C 36 103.1 36.4 102.9 36.7 102.6 C 36.7 102.6 37.3 104.2 37.3 104.2 C 36.8 104.7 36.1 105.1 35 105.1 C 33 105.1 32.1 103.9 32.1 101.8 Z M 39.7 101.8 C 39.69 101.79 39.7 92.1 39.7 92.1 L 37.8 92.1 L 37.8 90.2 L 39.7 90.2 L 39.7 86.2 L 41.8 86.2 L 41.8 90.2 L 44.3 90.2 L 44.3 92.1 L 41.8 92.1 C 41.8 92.1 41.85 101.4 41.8 101.4 C 41.8 102.5 42.2 103.1 43 103.1 C 43.6 103.1 44 102.9 44.3 102.6 C 44.3 102.6 44.9 104.2 44.9 104.2 C 44.4 104.7 43.7 105.1 42.6 105.1 C 40.6 105.1 39.7 103.9 39.7 101.8 Z M 46.1 97.4 C 46.1 93.4 48.2 89.8 52 89.8 C 55.9 89.8 57.9 93.4 57.9 97.4 C 57.9 101.5 55.9 105.1 52 105.1 C 48.2 105.1 46.1 101.5 46.1 97.4 Z M 55.7 97.4 C 55.7 94.5 54.6 91.8 52 91.8 C 49.5 91.8 48.4 94.5 48.4 97.4 C 48.4 100.4 49.5 103.1 52 103.1 C 54.6 103.1 55.7 100.4 55.7 97.4 Z M 68.7 104.7 C 68.7 104.7 68.7 94.38 68.7 94.4 C 68.7 92.5 67.8 91.8 66.4 91.8 C 65 91.8 63.7 92.9 63 94.1 C 63 94.08 63 104.7 63 104.7 L 60.9 104.7 L 60.9 90.2 L 63 90.2 C 63 90.2 63 92.28 63 92.3 C 63.8 91 65.5 89.8 67.2 89.8 C 69.7 89.8 70.9 91.2 70.9 93.8 C 70.86 93.78 70.9 104.7 70.9 104.7 L 68.7 104.7 Z M 95.3 104.7 C 95.3 104.7 95.31 94.2 95.3 94.2 C 95.3 92.6 94.7 91.8 93.3 91.8 C 92 91.8 90.7 92.9 90.1 94.1 C 90.15 94.08 90.1 104.7 90.1 104.7 L 88 104.7 C 88 104.7 87.99 94.2 88 94.2 C 88 92.6 87.4 91.8 85.9 91.8 C 84.7 91.8 83.4 92.9 82.8 94.1 C 82.8 94.08 82.8 104.7 82.8 104.7 L 80.7 104.7 L 80.7 90.2 L 82.8 90.2 C 82.8 90.2 82.8 92.28 82.8 92.3 C 83.4 91.2 85 89.8 86.8 89.8 C 88.6 89.8 89.8 90.9 90 92.4 C 90.7 91.1 92.4 89.8 94.1 89.8 C 96.2 89.8 97.5 91 97.5 93.6 C 97.47 93.63 97.5 104.7 97.5 104.7 L 95.3 104.7 Z M 100.4 97.4 C 100.4 93.4 102.4 89.8 106.3 89.8 C 110.2 89.8 112.2 93.4 112.2 97.4 C 112.2 101.5 110.2 105.1 106.3 105.1 C 102.4 105.1 100.4 101.5 100.4 97.4 Z M 109.9 97.4 C 109.9 94.5 108.8 91.8 106.3 91.8 C 103.8 91.8 102.7 94.5 102.7 97.4 C 102.7 100.4 103.8 103.1 106.3 103.1 C 108.8 103.1 109.9 100.4 109.9 97.4 Z M 117.3 102.6 C 117.27 102.6 117.3 110.2 117.3 110.2 L 115.1 110.2 L 115.1 90.2 L 117.3 90.2 C 117.3 90.2 117.27 92.28 117.3 92.3 C 118.1 90.8 119.5 89.8 121.1 89.8 C 124.3 89.8 126.3 92.9 126.3 97.4 C 126.3 102 124.3 105.1 121.1 105.1 C 119.6 105.1 118.2 104.2 117.3 102.6 Z M 124 97.4 C 124 94.3 122.9 91.8 120.5 91.8 C 119.2 91.8 117.8 92.8 117.3 94.1 C 117.3 94.1 117.3 100.7 117.3 100.7 C 117.8 102 119.2 103.1 120.5 103.1 C 122.9 103.1 124 100.6 124 97.4 Z " stroke="none" fill="#d3d2d2"/>  </g>  <g id="Polygon152439">    <path d="M 2.1 68.7 L 2.1 48.7 L 12.4 48.7 L 12.4 50.8 L 4.5 50.8 L 4.5 57.4 L 12.2 57.4 L 12.2 59.5 L 4.5 59.5 L 4.5 66.6 L 12.4 66.6 L 12.4 68.7 L 2.1 68.7 Z M 22.9 68.7 L 19.6 62.9 L 16.3 68.7 L 13.9 68.7 L 18.3 61.3 L 14.1 54.2 L 16.5 54.2 L 19.6 59.7 L 22.7 54.2 L 25.1 54.2 L 20.9 61.3 L 25.3 68.7 L 22.9 68.7 Z M 27.8 65.8 C 27.81 65.79 27.8 56.1 27.8 56.1 L 25.9 56.1 L 25.9 54.2 L 27.8 54.2 L 27.8 50.2 L 30 50.2 L 30 54.2 L 32.4 54.2 L 32.4 56.1 L 30 56.1 C 30 56.1 29.97 65.4 30 65.4 C 30 66.5 30.3 67.1 31.1 67.1 C 31.7 67.1 32.1 66.9 32.4 66.6 C 32.4 66.6 33.1 68.2 33.1 68.2 C 32.5 68.7 31.8 69.1 30.7 69.1 C 28.7 69.1 27.8 67.9 27.8 65.8 Z M 35 68.7 L 35 54.2 L 37.1 54.2 C 37.1 54.2 37.11 56.52 37.1 56.5 C 38 55 39.4 53.9 41.2 53.9 C 41.2 53.9 41.2 56.1 41.2 56.1 C 41 56.1 40.7 56 40.5 56 C 39.2 56 37.7 57.2 37.1 58.4 C 37.11 58.41 37.1 68.7 37.1 68.7 L 35 68.7 Z M 51.2 68.7 C 51.2 68.7 51.24 66.69 51.2 66.7 C 50.4 67.9 48.8 69.1 47 69.1 C 44.6 69.1 43.4 67.8 43.4 65.2 C 43.41 65.19 43.4 54.2 43.4 54.2 L 45.5 54.2 C 45.5 54.2 45.54 64.56 45.5 64.6 C 45.5 66.5 46.4 67.1 47.8 67.1 C 49.3 67.1 50.6 66.1 51.2 64.9 C 51.24 64.89 51.2 54.2 51.2 54.2 L 53.4 54.2 L 53.4 68.7 L 51.2 68.7 Z M 65.3 68.7 C 65.3 68.7 65.34 66.63 65.3 66.6 C 64.5 68.1 63.1 69.1 61.5 69.1 C 58.3 69.1 56.3 66 56.3 61.5 C 56.3 57 58.3 53.8 61.5 53.8 C 63 53.8 64.5 54.7 65.3 56.3 C 65.34 56.31 65.3 48.7 65.3 48.7 L 67.5 48.7 L 67.5 68.7 L 65.3 68.7 Z M 65.3 64.8 C 65.3 64.8 65.3 58.1 65.3 58.1 C 64.8 56.9 63.4 55.8 62.1 55.8 C 59.7 55.8 58.6 58.3 58.6 61.5 C 58.6 64.6 59.7 67.1 62.1 67.1 C 63.4 67.1 64.8 66.1 65.3 64.8 Z M 70.4 61.4 C 70.4 57.2 72.7 53.8 76.3 53.8 C 80.1 53.8 82 57.3 82 61.5 C 82.05 61.5 82 62.2 82 62.2 C 82 62.2 72.66 62.16 72.7 62.2 C 72.7 65.1 74.2 67.3 76.8 67.3 C 78.1 67.3 79.4 66.6 80.3 65.5 C 80.3 65.5 81.4 66.7 81.4 66.7 C 80.2 68.2 78.6 69.1 76.6 69.1 C 72.8 69.1 70.4 65.9 70.4 61.4 Z M 76.3 55.6 C 73.7 55.6 72.7 58.4 72.7 60.6 C 72.7 60.6 79.9 60.6 79.9 60.6 C 79.9 58.3 78.9 55.6 76.3 55.6 Z M 93.2 68.7 C 93.2 68.7 93.18 66.63 93.2 66.6 C 92.3 68.1 90.9 69.1 89.4 69.1 C 86.1 69.1 84.2 66 84.2 61.5 C 84.2 57 86.1 53.8 89.4 53.8 C 90.8 53.8 92.3 54.7 93.2 56.3 C 93.18 56.31 93.2 48.7 93.2 48.7 L 95.3 48.7 L 95.3 68.7 L 93.2 68.7 Z M 93.2 64.8 C 93.2 64.8 93.2 58.1 93.2 58.1 C 92.6 56.9 91.3 55.8 89.9 55.8 C 87.5 55.8 86.4 58.3 86.4 61.5 C 86.4 64.6 87.5 67.1 89.9 67.1 C 91.3 67.1 92.6 66.1 93.2 64.8 Z M 107.3 66.6 C 107.28 66.6 107.3 74.2 107.3 74.2 L 105.1 74.2 L 105.1 54.2 L 107.3 54.2 C 107.3 54.2 107.28 56.28 107.3 56.3 C 108.1 54.8 109.6 53.8 111.1 53.8 C 114.4 53.8 116.3 56.9 116.3 61.4 C 116.3 66 114.4 69.1 111.1 69.1 C 109.6 69.1 108.2 68.2 107.3 66.6 Z M 114 61.4 C 114 58.3 112.9 55.8 110.5 55.8 C 109.2 55.8 107.8 56.8 107.3 58.1 C 107.3 58.1 107.3 64.7 107.3 64.7 C 107.8 66 109.2 67.1 110.5 67.1 C 112.9 67.1 114 64.6 114 61.4 Z M 118.5 61.4 C 118.5 57.4 120.5 53.8 124.3 53.8 C 128.2 53.8 130.3 57.4 130.3 61.4 C 130.3 65.5 128.2 69.1 124.3 69.1 C 120.5 69.1 118.5 65.5 118.5 61.4 Z M 128 61.4 C 128 58.5 126.9 55.8 124.3 55.8 C 121.9 55.8 120.7 58.5 120.7 61.4 C 120.7 64.4 121.9 67.1 124.3 67.1 C 126.9 67.1 128 64.4 128 61.4 Z M 133.2 68.7 L 133.2 48.7 L 135.3 48.7 L 135.3 68.7 L 133.2 68.7 Z M 138.6 72.4 C 138.8 72.6 139.3 72.7 139.5 72.7 C 140.4 72.7 140.8 72.3 141.2 71.2 C 141.24 71.22 142 69 142 69 L 137.2 54.2 L 139.5 54.2 L 143.1 66.1 L 146.8 54.2 L 149.1 54.2 C 149.1 54.2 143.28 71.76 143.3 71.8 C 142.6 73.9 141.4 74.6 139.7 74.6 C 139.2 74.6 138.6 74.5 138.2 74.4 C 138.2 74.4 138.6 72.4 138.6 72.4 Z M 149.8 67 C 149.8 67 150.8 65.5 150.8 65.5 C 151.7 66.5 153.1 67.3 154.6 67.3 C 156.3 67.3 157.4 66.4 157.4 65 C 157.4 61.6 150.2 62.8 150.2 57.7 C 150.2 55.6 151.9 53.8 154.8 53.8 C 156.7 53.8 158.2 54.6 159.2 55.7 C 159.2 55.7 158.2 57.2 158.2 57.2 C 157.5 56.2 156.2 55.6 154.8 55.6 C 153.2 55.6 152.2 56.5 152.2 57.7 C 152.2 60.8 159.5 59.7 159.5 64.9 C 159.5 67.3 157.6 69.1 154.6 69.1 C 152.6 69.1 151 68.4 149.8 67 Z M 162.7 65.8 C 162.66 65.79 162.7 56.1 162.7 56.1 L 160.7 56.1 L 160.7 54.2 L 162.7 54.2 L 162.7 50.2 L 164.8 50.2 L 164.8 54.2 L 167.3 54.2 L 167.3 56.1 L 164.8 56.1 C 164.8 56.1 164.82 65.4 164.8 65.4 C 164.8 66.5 165.1 67.1 166 67.1 C 166.5 67.1 167 66.9 167.2 66.6 C 167.2 66.6 167.9 68.2 167.9 68.2 C 167.4 68.7 166.7 69.1 165.6 69.1 C 163.6 69.1 162.7 67.9 162.7 65.8 Z M 169.4 72.4 C 169.7 72.6 170.1 72.7 170.4 72.7 C 171.2 72.7 171.7 72.3 172.1 71.2 C 172.08 71.22 172.9 69 172.9 69 L 168 54.2 L 170.4 54.2 L 174 66.1 L 177.6 54.2 L 179.9 54.2 C 179.9 54.2 174.12 71.76 174.1 71.8 C 173.4 73.9 172.2 74.6 170.5 74.6 C 170.1 74.6 169.4 74.5 169.1 74.4 C 169.1 74.4 169.4 72.4 169.4 72.4 Z M 181.8 68.7 L 181.8 54.2 L 183.9 54.2 C 183.9 54.2 183.9 56.52 183.9 56.5 C 184.8 55 186.2 53.9 188 53.9 C 188 53.9 188 56.1 188 56.1 C 187.8 56.1 187.5 56 187.3 56 C 186 56 184.5 57.2 183.9 58.4 C 183.9 58.41 183.9 68.7 183.9 68.7 L 181.8 68.7 Z M 189.5 61.4 C 189.5 57.2 191.7 53.8 195.4 53.8 C 199.2 53.8 201.1 57.3 201.1 61.5 C 201.09 61.5 201.1 62.2 201.1 62.2 C 201.1 62.2 191.7 62.16 191.7 62.2 C 191.8 65.1 193.3 67.3 195.9 67.3 C 197.1 67.3 198.4 66.6 199.3 65.5 C 199.3 65.5 200.5 66.7 200.5 66.7 C 199.3 68.2 197.6 69.1 195.7 69.1 C 191.8 69.1 189.5 65.9 189.5 61.4 Z M 195.3 55.6 C 192.8 55.6 191.8 58.4 191.7 60.6 C 191.7 60.6 199 60.6 199 60.6 C 198.9 58.3 198 55.6 195.3 55.6 Z M 211.8 68.7 C 211.8 68.7 211.77 58.38 211.8 58.4 C 211.8 56.5 210.9 55.8 209.5 55.8 C 208 55.8 206.7 56.9 206.1 58.1 C 206.07 58.08 206.1 68.7 206.1 68.7 L 203.9 68.7 L 203.9 54.2 L 206.1 54.2 C 206.1 54.2 206.07 56.28 206.1 56.3 C 206.9 55 208.5 53.8 210.3 53.8 C 212.7 53.8 213.9 55.2 213.9 57.8 C 213.93 57.78 213.9 68.7 213.9 68.7 L 211.8 68.7 Z M 216.9 61.4 C 216.9 57.2 219.1 53.8 222.7 53.8 C 226.6 53.8 228.5 57.3 228.5 61.5 C 228.47 61.5 228.5 62.2 228.5 62.2 C 228.5 62.2 219.08 62.16 219.1 62.2 C 219.2 65.1 220.7 67.3 223.3 67.3 C 224.5 67.3 225.8 66.6 226.7 65.5 C 226.7 65.5 227.8 66.7 227.8 66.7 C 226.7 68.2 225 69.1 223.1 69.1 C 219.2 69.1 216.9 65.9 216.9 61.4 Z M 222.7 55.6 C 220.2 55.6 219.1 58.4 219.1 60.6 C 219.1 60.6 226.3 60.6 226.3 60.6 C 226.3 58.3 225.4 55.6 222.7 55.6 Z " stroke="none" fill="#d3d2d2"/>  </g>  <g id="Polygon152438">    <path d="M 2.1 32.7 L 2.1 12.7 L 12.4 12.7 L 12.4 14.8 L 4.5 14.8 L 4.5 21.4 L 12.2 21.4 L 12.2 23.5 L 4.5 23.5 L 4.5 32.7 L 2.1 32.7 Z M 14.5 25.4 C 14.5 21.4 16.5 17.8 20.4 17.8 C 24.3 17.8 26.3 21.4 26.3 25.4 C 26.3 29.5 24.3 33.1 20.4 33.1 C 16.5 33.1 14.5 29.5 14.5 25.4 Z M 24 25.4 C 24 22.5 22.9 19.8 20.4 19.8 C 17.9 19.8 16.7 22.5 16.7 25.4 C 16.7 28.4 17.9 31.1 20.4 31.1 C 22.9 31.1 24 28.4 24 25.4 Z M 36.7 32.7 C 36.7 32.7 36.66 31.14 36.7 31.1 C 35.7 32.5 34.3 33.1 32.8 33.1 C 30.5 33.1 28.5 31.3 28.5 28.2 C 28.5 25.2 30.5 23.5 32.8 23.5 C 34.3 23.5 35.8 24 36.7 25.3 C 36.7 25.3 36.7 22.8 36.7 22.8 C 36.7 20.8 35.6 19.7 33.7 19.7 C 32.3 19.7 31.2 20.2 30.1 21.5 C 30.1 21.5 29.1 19.9 29.1 19.9 C 30.5 18.5 32.2 17.8 34 17.8 C 36.9 17.8 38.8 19.3 38.8 22.6 C 38.82 22.56 38.8 32.7 38.8 32.7 L 36.7 32.7 Z M 36.7 29.7 C 36.7 29.7 36.7 26.9 36.7 26.9 C 36 25.7 34.8 25 33.5 25 C 31.7 25 30.7 26.5 30.7 28.3 C 30.7 30.1 31.7 31.5 33.5 31.5 C 34.8 31.5 36 30.9 36.7 29.7 Z M 57.1 32.7 C 57.1 32.7 57.09 22.2 57.1 22.2 C 57.1 20.6 56.5 19.8 55.1 19.8 C 53.8 19.8 52.5 20.9 51.9 22.1 C 51.93 22.08 51.9 32.7 51.9 32.7 L 49.8 32.7 C 49.8 32.7 49.77 22.2 49.8 22.2 C 49.8 20.6 49.1 19.8 47.7 19.8 C 46.4 19.8 45.2 20.9 44.6 22.1 C 44.58 22.08 44.6 32.7 44.6 32.7 L 42.4 32.7 L 42.4 18.2 L 44.6 18.2 C 44.6 18.2 44.58 20.28 44.6 20.3 C 45.2 19.2 46.8 17.8 48.5 17.8 C 50.4 17.8 51.5 18.9 51.8 20.4 C 52.5 19.1 54.1 17.8 55.9 17.8 C 58 17.8 59.2 19 59.2 21.6 C 59.25 21.63 59.2 32.7 59.2 32.7 L 57.1 32.7 Z M 69.6 32.7 L 69.6 20.1 L 67.6 20.1 L 67.6 18.2 L 69.6 18.2 C 69.6 18.2 69.57 16.44 69.6 16.4 C 69.6 13.9 70.9 12.4 73.2 12.4 C 74.2 12.4 75.1 12.7 75.8 13.3 C 75.8 13.3 74.9 14.9 74.9 14.9 C 74.5 14.5 74.1 14.2 73.5 14.2 C 72.3 14.2 71.7 15 71.7 16.4 C 71.73 16.44 71.7 18.2 71.7 18.2 L 74.2 18.2 L 74.2 20.1 L 71.7 20.1 L 71.7 32.7 L 69.6 32.7 Z M 76.4 32.7 L 76.4 18.2 L 78.5 18.2 C 78.5 18.2 78.51 20.52 78.5 20.5 C 79.4 19 80.8 17.9 82.6 17.9 C 82.6 17.9 82.6 20.1 82.6 20.1 C 82.4 20.1 82.1 20 81.9 20 C 80.6 20 79.1 21.2 78.5 22.4 C 78.51 22.41 78.5 32.7 78.5 32.7 L 76.4 32.7 Z M 92.6 32.7 C 92.6 32.7 92.64 30.69 92.6 30.7 C 91.8 31.9 90.2 33.1 88.4 33.1 C 86 33.1 84.8 31.8 84.8 29.2 C 84.81 29.19 84.8 18.2 84.8 18.2 L 86.9 18.2 C 86.9 18.2 86.94 28.56 86.9 28.6 C 86.9 30.5 87.8 31.1 89.2 31.1 C 90.7 31.1 92 30.1 92.6 28.9 C 92.64 28.89 92.6 18.2 92.6 18.2 L 94.8 18.2 L 94.8 32.7 L 92.6 32.7 Z M 98 14.6 C 98 13.8 98.7 13.2 99.5 13.2 C 100.3 13.2 101 13.8 101 14.6 C 101 15.4 100.3 16.1 99.5 16.1 C 98.7 16.1 98 15.4 98 14.6 Z M 98.5 32.7 L 98.5 18.2 L 100.6 18.2 L 100.6 32.7 L 98.5 32.7 Z M 104.7 29.8 C 104.67 29.79 104.7 20.1 104.7 20.1 L 102.7 20.1 L 102.7 18.2 L 104.7 18.2 L 104.7 14.2 L 106.8 14.2 L 106.8 18.2 L 109.3 18.2 L 109.3 20.1 L 106.8 20.1 C 106.8 20.1 106.83 29.4 106.8 29.4 C 106.8 30.5 107.2 31.1 108 31.1 C 108.5 31.1 109 30.9 109.3 30.6 C 109.3 30.6 109.9 32.2 109.9 32.2 C 109.4 32.7 108.7 33.1 107.6 33.1 C 105.6 33.1 104.7 31.9 104.7 29.8 Z M 125.8 32.7 C 125.8 32.7 125.82 22.38 125.8 22.4 C 125.8 20.5 124.9 19.8 123.5 19.8 C 122.1 19.8 120.8 20.9 120.1 22.1 C 120.12 22.08 120.1 32.7 120.1 32.7 L 118 32.7 L 118 18.2 L 120.1 18.2 C 120.1 18.2 120.12 20.28 120.1 20.3 C 121 19 122.6 17.8 124.3 17.8 C 126.8 17.8 128 19.2 128 21.8 C 127.98 21.78 128 32.7 128 32.7 L 125.8 32.7 Z M 130.9 25.4 C 130.9 21.2 133.1 17.8 136.8 17.8 C 140.6 17.8 142.5 21.3 142.5 25.5 C 142.53 25.5 142.5 26.2 142.5 26.2 C 142.5 26.2 133.14 26.16 133.1 26.2 C 133.2 29.1 134.7 31.3 137.3 31.3 C 138.6 31.3 139.9 30.6 140.8 29.5 C 140.8 29.5 141.9 30.7 141.9 30.7 C 140.7 32.2 139.1 33.1 137.1 33.1 C 133.3 33.1 130.9 29.9 130.9 25.4 Z M 136.8 19.6 C 134.2 19.6 133.2 22.4 133.1 24.6 C 133.1 24.6 140.4 24.6 140.4 24.6 C 140.4 22.3 139.4 19.6 136.8 19.6 Z M 145.8 29.8 C 145.8 29.79 145.8 20.1 145.8 20.1 L 143.9 20.1 L 143.9 18.2 L 145.8 18.2 L 145.8 14.2 L 148 14.2 L 148 18.2 L 150.4 18.2 L 150.4 20.1 L 148 20.1 C 148 20.1 147.96 29.4 148 29.4 C 148 30.5 148.3 31.1 149.1 31.1 C 149.7 31.1 150.1 30.9 150.4 30.6 C 150.4 30.6 151 32.2 151 32.2 C 150.5 32.7 149.8 33.1 148.7 33.1 C 146.7 33.1 145.8 31.9 145.8 29.8 Z M 153.4 29.8 C 153.39 29.79 153.4 20.1 153.4 20.1 L 151.5 20.1 L 151.5 18.2 L 153.4 18.2 L 153.4 14.2 L 155.5 14.2 L 155.5 18.2 L 158 18.2 L 158 20.1 L 155.5 20.1 C 155.5 20.1 155.55 29.4 155.5 29.4 C 155.5 30.5 155.9 31.1 156.7 31.1 C 157.3 31.1 157.7 30.9 158 30.6 C 158 30.6 158.6 32.2 158.6 32.2 C 158.1 32.7 157.4 33.1 156.3 33.1 C 154.3 33.1 153.4 31.9 153.4 29.8 Z M 160.1 14.6 C 160.1 13.8 160.8 13.2 161.6 13.2 C 162.4 13.2 163.1 13.8 163.1 14.6 C 163.1 15.4 162.4 16.1 161.6 16.1 C 160.8 16.1 160.1 15.4 160.1 14.6 Z M 160.6 32.7 L 160.6 18.2 L 162.7 18.2 L 162.7 32.7 L 160.6 32.7 Z M 174.2 32.7 C 174.2 32.7 174.18 22.38 174.2 22.4 C 174.2 20.5 173.3 19.8 171.9 19.8 C 170.5 19.8 169.1 20.9 168.5 22.1 C 168.48 22.08 168.5 32.7 168.5 32.7 L 166.3 32.7 L 166.3 18.2 L 168.5 18.2 C 168.5 18.2 168.48 20.28 168.5 20.3 C 169.3 19 170.9 17.8 172.7 17.8 C 175.1 17.8 176.3 19.2 176.3 21.8 C 176.34 21.78 176.3 32.7 176.3 32.7 L 174.2 32.7 Z M 179.9 36.7 C 179.9 36.7 180.9 35.1 180.9 35.1 C 181.8 36.2 183.1 36.7 184.6 36.7 C 186.6 36.7 188.3 35.6 188.3 32.8 C 188.3 32.8 188.3 30.4 188.3 30.4 C 187.4 31.9 186 32.9 184.5 32.9 C 181.2 32.9 179.3 29.9 179.3 25.4 C 179.3 20.9 181.2 17.8 184.5 17.8 C 185.9 17.8 187.4 18.7 188.3 20.3 C 188.28 20.31 188.3 18.2 188.3 18.2 L 190.4 18.2 C 190.4 18.2 190.44 32.67 190.4 32.7 C 190.4 37.1 187.7 38.6 184.7 38.6 C 182.8 38.6 181.3 38.1 179.9 36.7 Z M 188.3 28.6 C 188.3 28.6 188.3 22.1 188.3 22.1 C 187.7 20.9 186.4 19.8 185 19.8 C 182.6 19.8 181.5 22.3 181.5 25.4 C 181.5 28.5 182.6 31 185 31 C 186.4 31 187.7 29.8 188.3 28.6 Z " stroke="none" fill="#d3d2d2"/>  </g></svg>