<?xml version="1.0" standalone="no"?><!DOCTYPE svg PUBLIC "-//W3C//DTD SVG 1.1//EN" "http://www.w3.org/Graphics/SVG/1.1/DTD/svg11.dtd"><svg xmlns="http://www.w3.org/2000/svg" version="1.1" width="219px" height="403.3px" viewBox="0 0 219 403.3">  <desc>192 33 194 65 199 50 195 30 2912 18 2405 44 2881 08 582 39 448 62 391 15 783 62</desc>  <defs/>  <g id="Polygon221508">    <path d="M 144.1 384.4 L 150.4 366.5 L 141.9 366.5 L 141.9 364.4 L 153 364.4 L 153 366 L 146.7 384.4 L 144.1 384.4 Z M 155.1 379.5 C 155.1 376.8 157.2 374.8 159.1 374.1 C 157.3 373.4 155.4 371.7 155.4 369.2 C 155.4 365.7 158.2 364.1 161.1 364.1 C 164 364.1 166.8 365.7 166.8 369.2 C 166.8 371.7 164.9 373.4 163.1 374.1 C 165 374.8 167 376.8 167 379.4 C 167 382.7 164.6 384.7 161.1 384.7 C 157.6 384.7 155.1 382.7 155.1 379.5 Z M 164.4 369.5 C 164.4 367.5 163 366.2 161.1 366.2 C 159.1 366.2 157.8 367.5 157.8 369.5 C 157.8 371.9 160.3 372.9 161.1 373.2 C 161.9 372.9 164.4 371.9 164.4 369.5 Z M 164.6 379.2 C 164.6 376.5 161.9 375.2 161.1 375 C 160.2 375.2 157.6 376.5 157.6 379.2 C 157.6 381.3 159.1 382.6 161.1 382.6 C 163 382.6 164.6 381.3 164.6 379.2 Z M 169.2 381.4 C 169.2 381.4 170.8 380 170.8 380 C 171.7 381.5 173.2 382.6 175.1 382.6 C 177.5 382.6 178.7 381.1 178.7 378.8 C 178.7 376.1 177 375.2 174.9 375.2 C 174.3 375.2 173.6 375.2 173.3 375.2 C 173.3 375.2 173.3 373 173.3 373 C 173.6 373.1 174.3 373.1 174.9 373.1 C 176.9 373.1 178.5 372 178.5 369.7 C 178.5 367.3 177 366.2 175 366.2 C 173.3 366.2 172 367.1 171 368.6 C 171 368.6 169.5 367.2 169.5 367.2 C 170.7 365.3 172.7 364.1 175.2 364.1 C 178.4 364.1 180.9 365.8 180.9 369.4 C 180.9 371.9 179.1 373.6 177.3 374 C 179.1 374.3 181.1 376.1 181.1 379 C 181.1 382.3 179 384.7 175.2 384.7 C 172.3 384.7 170.3 383.2 169.2 381.4 Z M 184.4 383.1 C 184.4 382.2 185.1 381.5 186 381.5 C 186.9 381.5 187.6 382.2 187.6 383.1 C 187.6 384 186.9 384.7 186 384.7 C 185.1 384.7 184.4 384 184.4 383.1 Z M 190.8 374.4 C 190.8 369 192.7 364.1 197.6 364.1 C 199.7 364.1 201.3 365.1 202.2 366.6 C 202.2 366.6 200.9 368.2 200.9 368.2 C 200.2 367 199.2 366.2 197.6 366.2 C 194.4 366.2 193.2 370.4 193.2 374.2 C 193.2 374.4 193.2 374.5 193.2 374.8 C 193.9 373.4 195.6 371.8 197.7 371.8 C 200.6 371.8 202.9 374 202.9 378.2 C 202.9 381.6 200.8 384.7 197.1 384.7 C 192.4 384.7 190.8 379.7 190.8 374.4 Z M 200.5 378.3 C 200.5 375.1 198.9 373.9 197.1 373.9 C 195.4 373.9 194 375.3 193.3 377 C 193.4 379.2 194.2 382.6 197 382.6 C 199.4 382.6 200.5 380.4 200.5 378.3 Z M 205.8 384.4 C 205.8 384.4 205.75 382.43 205.8 382.4 C 212.3 374.9 214.5 372.5 214.5 369.5 C 214.5 367.4 213 366.2 211.3 366.2 C 209.4 366.2 208.1 367.1 207.1 368.7 C 207.1 368.7 205.5 367.3 205.5 367.3 C 206.9 365.2 208.8 364.1 211.4 364.1 C 214.4 364.1 217 366 217 369.5 C 217 372.9 214.5 375.9 209.1 382.2 C 209.14 382.25 217.1 382.2 217.1 382.2 L 217.1 384.4 L 205.8 384.4 Z " stroke="none" fill="#d0d1d4"/>  </g>  <g id="Polygon221507">    <path d="M 150.3 345.4 C 150.3 345.4 151.8 344 151.8 344 C 152.8 345.5 154.2 346.6 156.1 346.6 C 158.6 346.6 159.8 345.1 159.8 342.8 C 159.8 340.1 158 339.2 156 339.2 C 155.3 339.2 154.6 339.2 154.4 339.2 C 154.4 339.2 154.4 337 154.4 337 C 154.6 337.1 155.4 337.1 155.9 337.1 C 157.9 337.1 159.5 336 159.5 333.7 C 159.5 331.3 158.1 330.2 156.1 330.2 C 154.3 330.2 153 331.1 152 332.6 C 152 332.6 150.5 331.2 150.5 331.2 C 151.7 329.3 153.7 328.1 156.2 328.1 C 159.5 328.1 161.9 329.8 161.9 333.4 C 161.9 335.9 160.2 337.6 158.3 338 C 160.1 338.3 162.2 340.1 162.2 343 C 162.2 346.3 160 348.7 156.2 348.7 C 153.4 348.7 151.3 347.2 150.3 345.4 Z M 165.5 346.2 C 165.5 346.2 166.8 344.5 166.8 344.5 C 167.6 345.8 168.5 346.6 170.2 346.6 C 173.4 346.6 174.5 342.3 174.5 338.6 C 174.5 338.3 174.5 338.2 174.5 338 C 173.8 339.4 172.2 340.9 170.1 340.9 C 167.2 340.9 164.9 338.8 164.9 334.5 C 164.9 331.2 166.9 328 170.6 328 C 175.4 328 177 333 177 338.4 C 177 343.8 175 348.7 170.2 348.7 C 168.1 348.7 166.5 347.7 165.5 346.2 Z M 174.5 335.8 C 174.3 333.6 173.6 330.2 170.7 330.2 C 168.3 330.2 167.3 332.4 167.3 334.5 C 167.3 337.7 168.8 338.9 170.7 338.9 C 172.4 338.9 173.7 337.4 174.5 335.8 Z M 183.3 348.4 L 183.3 331.5 L 180.3 334.8 L 178.8 333.3 L 183.6 328.4 L 185.7 328.4 L 185.7 348.4 L 183.3 348.4 Z M 189.6 347.1 C 189.6 346.2 190.4 345.5 191.2 345.5 C 192.1 345.5 192.9 346.2 192.9 347.1 C 192.9 348 192.1 348.7 191.2 348.7 C 190.4 348.7 189.6 348 189.6 347.1 Z M 199.6 348.4 L 199.6 331.5 L 196.5 334.8 L 195.1 333.3 L 199.9 328.4 L 202 328.4 L 202 348.4 L 199.6 348.4 Z M 205.7 345.5 C 205.7 345.5 207.3 344 207.3 344 C 208.2 345.7 209.5 346.6 211.5 346.6 C 213.7 346.6 215.1 344.6 215.1 342.3 C 215.1 339.4 213.7 337.8 211.6 337.8 C 210.2 337.8 209.1 338.4 208 339.7 C 208 339.71 206.2 339.1 206.2 339.1 L 206.2 328.4 L 216.4 328.4 L 216.4 330.5 L 208.6 330.5 C 208.6 330.5 208.6 337.49 208.6 337.5 C 209.4 336.5 210.7 335.7 212.3 335.7 C 215.2 335.7 217.5 338 217.5 342.2 C 217.5 346 215 348.7 211.5 348.7 C 208.6 348.7 206.9 347.5 205.7 345.5 Z " stroke="none" fill="#d0d1d4"/>  </g>  <g id="Polygon221506">    <path d="M 148.9 312.4 L 148.9 307.2 L 141 307.2 L 141 305.2 L 148.2 292.4 L 151.2 292.4 L 151.2 305.1 L 153.4 305.1 L 153.4 307.2 L 151.2 307.2 L 151.2 312.4 L 148.9 312.4 Z M 148.9 294.9 L 143.1 305.1 L 148.9 305.1 L 148.9 294.9 Z M 162.7 312.4 L 162.7 307.2 L 154.8 307.2 L 154.8 305.2 L 162 292.4 L 165.1 292.4 L 165.1 305.1 L 167.3 305.1 L 167.3 307.2 L 165.1 307.2 L 165.1 312.4 L 162.7 312.4 Z M 162.7 294.9 L 157 305.1 L 162.7 305.1 L 162.7 294.9 Z M 169.3 307.5 C 169.3 304.8 171.3 302.8 173.3 302.1 C 171.5 301.4 169.6 299.7 169.6 297.2 C 169.6 293.7 172.4 292.1 175.3 292.1 C 178.2 292.1 180.9 293.7 180.9 297.2 C 180.9 299.7 179.1 301.4 177.3 302.1 C 179.2 302.8 181.2 304.8 181.2 307.4 C 181.2 310.7 178.8 312.7 175.3 312.7 C 171.8 312.7 169.3 310.7 169.3 307.5 Z M 178.5 297.5 C 178.5 295.5 177.2 294.2 175.3 294.2 C 173.3 294.2 172 295.5 172 297.5 C 172 299.9 174.5 300.9 175.3 301.2 C 176.1 300.9 178.5 299.9 178.5 297.5 Z M 178.8 307.2 C 178.8 304.5 176.1 303.2 175.3 303 C 174.4 303.2 171.8 304.5 171.8 307.2 C 171.8 309.3 173.3 310.6 175.3 310.6 C 177.2 310.6 178.8 309.3 178.8 307.2 Z M 184.4 311.1 C 184.4 310.2 185.1 309.5 186 309.5 C 186.9 309.5 187.6 310.2 187.6 311.1 C 187.6 312 186.9 312.7 186 312.7 C 185.1 312.7 184.4 312 184.4 311.1 Z M 190.8 302.4 C 190.8 297 192.7 292.1 197.6 292.1 C 199.7 292.1 201.3 293.1 202.2 294.6 C 202.2 294.6 200.9 296.2 200.9 296.2 C 200.2 295 199.2 294.2 197.6 294.2 C 194.4 294.2 193.2 298.4 193.2 302.2 C 193.2 302.4 193.2 302.5 193.2 302.8 C 193.9 301.4 195.6 299.8 197.7 299.8 C 200.6 299.8 202.9 302 202.9 306.2 C 202.9 309.6 200.8 312.7 197.1 312.7 C 192.4 312.7 190.8 307.7 190.8 302.4 Z M 200.5 306.3 C 200.5 303.1 198.9 301.9 197.1 301.9 C 195.4 301.9 194 303.3 193.3 305 C 193.4 307.2 194.2 310.6 197 310.6 C 199.4 310.6 200.5 308.4 200.5 306.3 Z M 205.8 312.4 C 205.8 312.4 205.75 310.43 205.8 310.4 C 212.3 302.9 214.5 300.5 214.5 297.5 C 214.5 295.4 213 294.2 211.3 294.2 C 209.4 294.2 208.1 295.1 207.1 296.7 C 207.1 296.7 205.5 295.3 205.5 295.3 C 206.9 293.2 208.8 292.1 211.4 292.1 C 214.4 292.1 217 294 217 297.5 C 217 300.9 214.5 303.9 209.1 310.2 C 209.14 310.25 217.1 310.2 217.1 310.2 L 217.1 312.4 L 205.8 312.4 Z " stroke="none" fill="#d0d1d4"/>  </g>  <g id="Polygon221505">    <path d="M 140.6 273.5 C 140.6 273.5 142.2 272 142.2 272 C 143.2 273.7 144.5 274.6 146.4 274.6 C 148.6 274.6 150 272.6 150 270.3 C 150 267.4 148.7 265.8 146.6 265.8 C 145.2 265.8 144.1 266.4 143 267.7 C 142.97 267.71 141.2 267.1 141.2 267.1 L 141.2 256.4 L 151.4 256.4 L 151.4 258.5 L 143.6 258.5 C 143.6 258.5 143.57 265.49 143.6 265.5 C 144.3 264.5 145.7 263.7 147.3 263.7 C 150.1 263.7 152.4 266 152.4 270.2 C 152.4 274 150 276.7 146.5 276.7 C 143.6 276.7 141.9 275.5 140.6 273.5 Z M 155.1 271.5 C 155.1 268.8 157.2 266.8 159.1 266.1 C 157.3 265.4 155.4 263.7 155.4 261.2 C 155.4 257.7 158.2 256.1 161.1 256.1 C 164 256.1 166.8 257.7 166.8 261.2 C 166.8 263.7 164.9 265.4 163.1 266.1 C 165 266.8 167 268.8 167 271.4 C 167 274.7 164.6 276.7 161.1 276.7 C 157.6 276.7 155.1 274.7 155.1 271.5 Z M 164.4 261.5 C 164.4 259.5 163 258.2 161.1 258.2 C 159.1 258.2 157.8 259.5 157.8 261.5 C 157.8 263.9 160.3 264.9 161.1 265.2 C 161.9 264.9 164.4 263.9 164.4 261.5 Z M 164.6 271.2 C 164.6 268.5 161.9 267.2 161.1 267 C 160.2 267.2 157.6 268.5 157.6 271.2 C 157.6 273.3 159.1 274.6 161.1 274.6 C 163 274.6 164.6 273.3 164.6 271.2 Z M 170 276.4 C 170 276.4 169.97 274.43 170 274.4 C 176.5 266.9 178.8 264.5 178.8 261.5 C 178.8 259.4 177.3 258.2 175.5 258.2 C 173.7 258.2 172.3 259.1 171.3 260.7 C 171.3 260.7 169.8 259.3 169.8 259.3 C 171.1 257.2 173 256.1 175.6 256.1 C 178.6 256.1 181.2 258 181.2 261.5 C 181.2 264.9 178.7 267.9 173.4 274.2 C 173.36 274.25 181.3 274.2 181.3 274.2 L 181.3 276.4 L 170 276.4 Z M 184.9 275.1 C 184.9 274.2 185.6 273.5 186.5 273.5 C 187.3 273.5 188.1 274.2 188.1 275.1 C 188.1 276 187.3 276.7 186.5 276.7 C 185.6 276.7 184.9 276 184.9 275.1 Z M 190.8 273.4 C 190.8 273.4 192.3 272 192.3 272 C 193.2 273.5 194.7 274.6 196.6 274.6 C 199 274.6 200.2 273.1 200.2 270.8 C 200.2 268.1 198.5 267.2 196.4 267.2 C 195.8 267.2 195.1 267.2 194.8 267.2 C 194.8 267.2 194.8 265 194.8 265 C 195.1 265.1 195.9 265.1 196.4 265.1 C 198.4 265.1 200 264 200 261.7 C 200 259.3 198.6 258.2 196.5 258.2 C 194.8 258.2 193.5 259.1 192.5 260.6 C 192.5 260.6 191 259.2 191 259.2 C 192.2 257.3 194.2 256.1 196.7 256.1 C 199.9 256.1 202.4 257.8 202.4 261.4 C 202.4 263.9 200.6 265.6 198.8 266 C 200.6 266.3 202.6 268.1 202.6 271 C 202.6 274.3 200.5 276.7 196.7 276.7 C 193.8 276.7 191.8 275.2 190.8 273.4 Z M 206 274.2 C 206 274.2 207.3 272.5 207.3 272.5 C 208.1 273.8 209 274.6 210.6 274.6 C 213.9 274.6 215 270.3 215 266.6 C 215 266.3 215 266.2 215 266 C 214.3 267.4 212.7 268.9 210.6 268.9 C 207.7 268.9 205.3 266.8 205.3 262.5 C 205.3 259.2 207.4 256 211.1 256 C 215.9 256 217.4 261 217.4 266.4 C 217.4 271.8 215.5 276.7 210.6 276.7 C 208.5 276.7 207 275.7 206 274.2 Z M 214.9 263.8 C 214.8 261.6 214 258.2 211.2 258.2 C 208.8 258.2 207.8 260.4 207.8 262.5 C 207.8 265.7 209.3 266.9 211.2 266.9 C 212.9 266.9 214.2 265.4 214.9 263.8 Z " stroke="none" fill="#d0d1d4"/>  </g>  <g id="Polygon221504">    <path d="M 130.4 240.4 C 130.4 240.4 130.37 238.43 130.4 238.4 C 136.9 230.9 139.2 228.5 139.2 225.5 C 139.2 223.4 137.7 222.2 135.9 222.2 C 134.1 222.2 132.7 223.1 131.7 224.7 C 131.7 224.7 130.2 223.3 130.2 223.3 C 131.5 221.2 133.4 220.1 136 220.1 C 139 220.1 141.6 222 141.6 225.5 C 141.6 228.9 139.1 231.9 133.8 238.2 C 133.76 238.25 141.7 238.2 141.7 238.2 L 141.7 240.4 L 130.4 240.4 Z M 144.8 235.5 C 144.8 232.8 146.8 230.8 148.8 230.1 C 147 229.4 145.1 227.7 145.1 225.2 C 145.1 221.7 147.9 220.1 150.7 220.1 C 153.6 220.1 156.4 221.7 156.4 225.2 C 156.4 227.7 154.5 229.4 152.7 230.1 C 154.7 230.8 156.7 232.8 156.7 235.4 C 156.7 238.7 154.2 240.7 150.7 240.7 C 147.2 240.7 144.8 238.7 144.8 235.5 Z M 154 225.5 C 154 223.5 152.7 222.2 150.7 222.2 C 148.8 222.2 147.5 223.5 147.5 225.5 C 147.5 227.9 150 228.9 150.7 229.2 C 151.5 228.9 154 227.9 154 225.5 Z M 154.3 235.2 C 154.3 232.5 151.6 231.2 150.7 231 C 149.9 231.2 147.2 232.5 147.2 235.2 C 147.2 237.3 148.8 238.6 150.7 238.6 C 152.7 238.6 154.3 237.3 154.3 235.2 Z M 159.4 235.5 C 159.4 232.8 161.4 230.8 163.4 230.1 C 161.5 229.4 159.7 227.7 159.7 225.2 C 159.7 221.7 162.4 220.1 165.3 220.1 C 168.2 220.1 171 221.7 171 225.2 C 171 227.7 169.1 229.4 167.3 230.1 C 169.2 230.8 171.3 232.8 171.3 235.4 C 171.3 238.7 168.8 240.7 165.3 240.7 C 161.8 240.7 159.4 238.7 159.4 235.5 Z M 168.6 225.5 C 168.6 223.5 167.3 222.2 165.3 222.2 C 163.4 222.2 162 223.5 162 225.5 C 162 227.9 164.5 228.9 165.3 229.2 C 166.1 228.9 168.6 227.9 168.6 225.5 Z M 168.9 235.2 C 168.9 232.5 166.2 231.2 165.3 231 C 164.5 231.2 161.8 232.5 161.8 235.2 C 161.8 237.3 163.4 238.6 165.3 238.6 C 167.2 238.6 168.9 237.3 168.9 235.2 Z M 177.6 240.4 L 177.6 223.5 L 174.5 226.8 L 173.1 225.3 L 177.9 220.4 L 180 220.4 L 180 240.4 L 177.6 240.4 Z M 183.9 239.1 C 183.9 238.2 184.6 237.5 185.5 237.5 C 186.3 237.5 187.1 238.2 187.1 239.1 C 187.1 240 186.3 240.7 185.5 240.7 C 184.6 240.7 183.9 240 183.9 239.1 Z M 190.3 230.4 C 190.3 225.6 191.9 220.1 196.6 220.1 C 201.3 220.1 202.8 225.6 202.8 230.4 C 202.8 235.2 201.3 240.7 196.6 240.7 C 191.9 240.7 190.3 235.2 190.3 230.4 Z M 200.4 230.4 C 200.4 226.4 199.7 222.2 196.6 222.2 C 193.5 222.2 192.8 226.4 192.8 230.4 C 192.8 234.3 193.5 238.6 196.6 238.6 C 199.7 238.6 200.4 234.3 200.4 230.4 Z M 205.6 235.5 C 205.6 232.8 207.6 230.8 209.6 230.1 C 207.8 229.4 205.9 227.7 205.9 225.2 C 205.9 221.7 208.7 220.1 211.5 220.1 C 214.4 220.1 217.2 221.7 217.2 225.2 C 217.2 227.7 215.3 229.4 213.5 230.1 C 215.5 230.8 217.5 232.8 217.5 235.4 C 217.5 238.7 215 240.7 211.5 240.7 C 208 240.7 205.6 238.7 205.6 235.5 Z M 214.8 225.5 C 214.8 223.5 213.5 222.2 211.5 222.2 C 209.6 222.2 208.3 223.5 208.3 225.5 C 208.3 227.9 210.8 228.9 211.5 229.2 C 212.3 228.9 214.8 227.9 214.8 225.5 Z M 215.1 235.2 C 215.1 232.5 212.4 231.2 211.5 231 C 210.7 231.2 208 232.5 208 235.2 C 208 237.3 209.6 238.6 211.5 238.6 C 213.5 238.6 215.1 237.3 215.1 235.2 Z " stroke="none" fill="#d0d1d4"/>  </g>  <g id="Polygon221503">    <path d="M 127.2 204.4 C 127.2 204.4 127.25 202.43 127.2 202.4 C 133.8 194.9 136 192.5 136 189.5 C 136 187.4 134.5 186.2 132.8 186.2 C 130.9 186.2 129.6 187.1 128.6 188.7 C 128.6 188.7 127 187.3 127 187.3 C 128.4 185.2 130.3 184.1 132.9 184.1 C 135.9 184.1 138.5 186 138.5 189.5 C 138.5 192.9 135.9 195.9 130.6 202.2 C 130.64 202.25 138.6 202.2 138.6 202.2 L 138.6 204.4 L 127.2 204.4 Z M 148.9 204.4 L 148.9 199.2 L 141 199.2 L 141 197.2 L 148.2 184.4 L 151.3 184.4 L 151.3 197.1 L 153.5 197.1 L 153.5 199.2 L 151.3 199.2 L 151.3 204.4 L 148.9 204.4 Z M 148.9 186.9 L 143.2 197.1 L 148.9 197.1 L 148.9 186.9 Z M 155.6 194.4 C 155.6 189.6 157.2 184.1 161.9 184.1 C 166.5 184.1 168.1 189.6 168.1 194.4 C 168.1 199.2 166.5 204.7 161.9 204.7 C 157.2 204.7 155.6 199.2 155.6 194.4 Z M 165.7 194.4 C 165.7 190.4 165 186.2 161.9 186.2 C 158.8 186.2 158.1 190.4 158.1 194.4 C 158.1 198.3 158.8 202.6 161.9 202.6 C 165 202.6 165.7 198.3 165.7 194.4 Z M 171.1 201.5 C 171.1 201.5 172.7 200 172.7 200 C 173.7 201.7 175 202.6 176.9 202.6 C 179.1 202.6 180.5 200.6 180.5 198.3 C 180.5 195.4 179.1 193.8 177.1 193.8 C 175.7 193.8 174.6 194.4 173.4 195.7 C 173.45 195.71 171.7 195.1 171.7 195.1 L 171.7 184.4 L 181.9 184.4 L 181.9 186.5 L 174 186.5 C 174 186.5 174.05 193.49 174 193.5 C 174.8 192.5 176.1 191.7 177.7 191.7 C 180.6 191.7 182.9 194 182.9 198.2 C 182.9 202 180.5 204.7 177 204.7 C 174 204.7 172.3 203.5 171.1 201.5 Z M 186.1 203.1 C 186.1 202.2 186.8 201.5 187.7 201.5 C 188.6 201.5 189.3 202.2 189.3 203.1 C 189.3 204 188.6 204.7 187.7 204.7 C 186.8 204.7 186.1 204 186.1 203.1 Z M 199.7 204.4 L 199.7 199.2 L 191.8 199.2 L 191.8 197.2 L 199 184.4 L 202.1 184.4 L 202.1 197.1 L 204.3 197.1 L 204.3 199.2 L 202.1 199.2 L 202.1 204.4 L 199.7 204.4 Z M 199.7 186.9 L 194 197.1 L 199.7 197.1 L 199.7 186.9 Z M 213.6 204.4 L 213.6 199.2 L 205.7 199.2 L 205.7 197.2 L 212.9 184.4 L 216 184.4 L 216 197.1 L 218.1 197.1 L 218.1 199.2 L 216 199.2 L 216 204.4 L 213.6 204.4 Z M 213.6 186.9 L 207.9 197.1 L 213.6 197.1 L 213.6 186.9 Z " stroke="none" fill="#d0d1d4"/>  </g>  <g id="Polygon221502">    <path d="M 136 168.4 C 136 168.4 136.01 166.43 136 166.4 C 142.5 158.9 144.8 156.5 144.8 153.5 C 144.8 151.4 143.3 150.2 141.6 150.2 C 139.7 150.2 138.3 151.1 137.4 152.7 C 137.4 152.7 135.8 151.3 135.8 151.3 C 137.1 149.2 139.1 148.1 141.6 148.1 C 144.7 148.1 147.2 150 147.2 153.5 C 147.2 156.9 144.7 159.9 139.4 166.2 C 139.4 166.25 147.3 166.2 147.3 166.2 L 147.3 168.4 L 136 168.4 Z M 151 166.2 C 151 166.2 152.3 164.5 152.3 164.5 C 153.1 165.8 154 166.6 155.7 166.6 C 158.9 166.6 160 162.3 160 158.6 C 160 158.3 160 158.2 160 158 C 159.3 159.4 157.7 160.9 155.6 160.9 C 152.7 160.9 150.3 158.8 150.3 154.5 C 150.3 151.2 152.4 148 156.1 148 C 160.9 148 162.4 153 162.4 158.4 C 162.4 163.8 160.5 168.7 155.7 168.7 C 153.6 168.7 152 167.7 151 166.2 Z M 159.9 155.8 C 159.8 153.6 159 150.2 156.2 150.2 C 153.8 150.2 152.8 152.4 152.8 154.5 C 152.8 157.7 154.3 158.9 156.2 158.9 C 157.9 158.9 159.2 157.4 159.9 155.8 Z M 168.8 168.4 L 168.8 151.5 L 165.7 154.8 L 164.3 153.3 L 169.1 148.4 L 171.2 148.4 L 171.2 168.4 L 168.8 168.4 Z M 174.9 168.4 C 174.9 168.4 174.89 166.43 174.9 166.4 C 181.4 158.9 183.7 156.5 183.7 153.5 C 183.7 151.4 182.2 150.2 180.5 150.2 C 178.6 150.2 177.2 151.1 176.2 152.7 C 176.2 152.7 174.7 151.3 174.7 151.3 C 176 149.2 177.9 148.1 180.5 148.1 C 183.6 148.1 186.1 150 186.1 153.5 C 186.1 156.9 183.6 159.9 178.3 166.2 C 178.28 166.25 186.2 166.2 186.2 166.2 L 186.2 168.4 L 174.9 168.4 Z M 189.8 167.1 C 189.8 166.2 190.5 165.5 191.4 165.5 C 192.3 165.5 193 166.2 193 167.1 C 193 168 192.3 168.7 191.4 168.7 C 190.5 168.7 189.8 168 189.8 167.1 Z M 199.8 168.4 L 199.8 151.5 L 196.7 154.8 L 195.3 153.3 L 200.1 148.4 L 202.2 148.4 L 202.2 168.4 L 199.8 168.4 Z M 205.6 163.5 C 205.6 160.8 207.6 158.8 209.6 158.1 C 207.8 157.4 205.9 155.7 205.9 153.2 C 205.9 149.7 208.7 148.1 211.5 148.1 C 214.4 148.1 217.2 149.7 217.2 153.2 C 217.2 155.7 215.3 157.4 213.5 158.1 C 215.5 158.8 217.5 160.8 217.5 163.4 C 217.5 166.7 215 168.7 211.5 168.7 C 208 168.7 205.6 166.7 205.6 163.5 Z M 214.8 153.5 C 214.8 151.5 213.5 150.2 211.5 150.2 C 209.6 150.2 208.3 151.5 208.3 153.5 C 208.3 155.9 210.8 156.9 211.5 157.2 C 212.3 156.9 214.8 155.9 214.8 153.5 Z M 215.1 163.2 C 215.1 160.5 212.4 159.2 211.5 159 C 210.7 159.2 208 160.5 208 163.2 C 208 165.3 209.6 166.6 211.5 166.6 C 213.5 166.6 215.1 165.3 215.1 163.2 Z " stroke="none" fill="#d0d1d4"/>  </g>  <g id="Polygon221501">    <path d="M 148.5 132.4 L 148.5 115.5 L 145.4 118.8 L 144 117.3 L 148.8 112.4 L 150.9 112.4 L 150.9 132.4 L 148.5 132.4 Z M 154.9 130.2 C 154.9 130.2 156.2 128.5 156.2 128.5 C 156.9 129.8 157.9 130.6 159.5 130.6 C 162.8 130.6 163.9 126.3 163.9 122.6 C 163.9 122.3 163.9 122.2 163.9 122 C 163.2 123.4 161.5 124.9 159.5 124.9 C 156.6 124.9 154.2 122.8 154.2 118.5 C 154.2 115.2 156.3 112 160 112 C 164.7 112 166.3 117 166.3 122.4 C 166.3 127.8 164.4 132.7 159.5 132.7 C 157.4 132.7 155.9 131.7 154.9 130.2 Z M 163.8 119.8 C 163.7 117.6 162.9 114.2 160.1 114.2 C 157.7 114.2 156.6 116.4 156.6 118.5 C 156.6 121.7 158.2 122.9 160.1 122.9 C 161.7 122.9 163.1 121.4 163.8 119.8 Z M 169.3 129.5 C 169.3 129.5 170.9 128 170.9 128 C 171.8 129.7 173.1 130.6 175.1 130.6 C 177.3 130.6 178.7 128.6 178.7 126.3 C 178.7 123.4 177.3 121.8 175.2 121.8 C 173.8 121.8 172.7 122.4 171.6 123.7 C 171.62 123.71 169.8 123.1 169.8 123.1 L 169.8 112.4 L 180 112.4 L 180 114.5 L 172.2 114.5 C 172.2 114.5 172.22 121.49 172.2 121.5 C 173 120.5 174.3 119.7 175.9 119.7 C 178.8 119.7 181.1 122 181.1 126.2 C 181.1 130 178.6 132.7 175.2 132.7 C 172.2 132.7 170.5 131.5 169.3 129.5 Z M 184.3 131.1 C 184.3 130.2 185 129.5 185.9 129.5 C 186.7 129.5 187.5 130.2 187.5 131.1 C 187.5 132 186.7 132.7 185.9 132.7 C 185 132.7 184.3 132 184.3 131.1 Z M 190.2 129.4 C 190.2 129.4 191.7 128 191.7 128 C 192.6 129.5 194.1 130.6 196 130.6 C 198.4 130.6 199.6 129.1 199.6 126.8 C 199.6 124.1 197.9 123.2 195.8 123.2 C 195.2 123.2 194.5 123.2 194.2 123.2 C 194.2 123.2 194.2 121 194.2 121 C 194.5 121.1 195.3 121.1 195.8 121.1 C 197.8 121.1 199.4 120 199.4 117.7 C 199.4 115.3 198 114.2 195.9 114.2 C 194.2 114.2 192.9 115.1 191.9 116.6 C 191.9 116.6 190.4 115.2 190.4 115.2 C 191.6 113.3 193.6 112.1 196.1 112.1 C 199.3 112.1 201.8 113.8 201.8 117.4 C 201.8 119.9 200 121.6 198.2 122 C 200 122.3 202 124.1 202 127 C 202 130.3 199.9 132.7 196.1 132.7 C 193.2 132.7 191.2 131.2 190.2 129.4 Z M 204.9 122.4 C 204.9 117.6 206.5 112.1 211.2 112.1 C 215.8 112.1 217.4 117.6 217.4 122.4 C 217.4 127.2 215.8 132.7 211.2 132.7 C 206.5 132.7 204.9 127.2 204.9 122.4 Z M 215 122.4 C 215 118.4 214.2 114.2 211.2 114.2 C 208.1 114.2 207.3 118.4 207.3 122.4 C 207.3 126.3 208.1 130.6 211.2 130.6 C 214.2 130.6 215 126.3 215 122.4 Z " stroke="none" fill="#d0d1d4"/>  </g>  <g id="Polygon221500">    <path d="M 147.9 96.4 L 147.9 79.5 L 144.8 82.8 L 143.4 81.3 L 148.2 76.4 L 150.3 76.4 L 150.3 96.4 L 147.9 96.4 Z M 154.3 94.2 C 154.3 94.2 155.6 92.5 155.6 92.5 C 156.4 93.8 157.3 94.6 159 94.6 C 162.2 94.6 163.3 90.3 163.3 86.6 C 163.3 86.3 163.3 86.2 163.3 86 C 162.6 87.4 161 88.9 158.9 88.9 C 156 88.9 153.6 86.8 153.6 82.5 C 153.6 79.2 155.7 76 159.4 76 C 164.2 76 165.7 81 165.7 86.4 C 165.7 91.8 163.8 96.7 159 96.7 C 156.9 96.7 155.3 95.7 154.3 94.2 Z M 163.2 83.8 C 163.1 81.6 162.3 78.2 159.5 78.2 C 157.1 78.2 156.1 80.4 156.1 82.5 C 156.1 85.7 157.6 86.9 159.5 86.9 C 161.2 86.9 162.5 85.4 163.2 83.8 Z M 169.1 94.2 C 169.1 94.2 170.4 92.5 170.4 92.5 C 171.1 93.8 172.1 94.6 173.7 94.6 C 177 94.6 178.1 90.3 178.1 86.6 C 178.1 86.3 178.1 86.2 178.1 86 C 177.4 87.4 175.7 88.9 173.7 88.9 C 170.7 88.9 168.4 86.8 168.4 82.5 C 168.4 79.2 170.5 76 174.2 76 C 178.9 76 180.5 81 180.5 86.4 C 180.5 91.8 178.5 96.7 173.7 96.7 C 171.6 96.7 170.1 95.7 169.1 94.2 Z M 178 83.8 C 177.9 81.6 177.1 78.2 174.3 78.2 C 171.9 78.2 170.8 80.4 170.8 82.5 C 170.8 85.7 172.4 86.9 174.3 86.9 C 175.9 86.9 177.3 85.4 178 83.8 Z M 183.7 95.1 C 183.7 94.2 184.5 93.5 185.3 93.5 C 186.2 93.5 186.9 94.2 186.9 95.1 C 186.9 96 186.2 96.7 185.3 96.7 C 184.5 96.7 183.7 96 183.7 95.1 Z M 190.3 93.5 C 190.3 93.5 191.9 92 191.9 92 C 192.9 93.7 194.2 94.6 196.1 94.6 C 198.3 94.6 199.7 92.6 199.7 90.3 C 199.7 87.4 198.3 85.8 196.3 85.8 C 194.9 85.8 193.8 86.4 192.6 87.7 C 192.64 87.71 190.9 87.1 190.9 87.1 L 190.9 76.4 L 201.1 76.4 L 201.1 78.5 L 193.2 78.5 C 193.2 78.5 193.24 85.49 193.2 85.5 C 194 84.5 195.3 83.7 196.9 83.7 C 199.8 83.7 202.1 86 202.1 90.2 C 202.1 94 199.7 96.7 196.2 96.7 C 193.2 96.7 191.5 95.5 190.3 93.5 Z M 204.9 86.4 C 204.9 81.6 206.5 76.1 211.2 76.1 C 215.8 76.1 217.4 81.6 217.4 86.4 C 217.4 91.2 215.8 96.7 211.2 96.7 C 206.5 96.7 204.9 91.2 204.9 86.4 Z M 215 86.4 C 215 82.4 214.2 78.2 211.2 78.2 C 208.1 78.2 207.3 82.4 207.3 86.4 C 207.3 90.3 208.1 94.6 211.2 94.6 C 214.2 94.6 215 90.3 215 86.4 Z " stroke="none" fill="#d0d1d4"/>  </g>  <g id="Polygon221499">    <path d="M 149.4 60.4 L 149.4 43.5 L 146.3 46.8 L 144.9 45.3 L 149.7 40.4 L 151.8 40.4 L 151.8 60.4 L 149.4 60.4 Z M 155.8 58.2 C 155.8 58.2 157.1 56.5 157.1 56.5 C 157.9 57.8 158.8 58.6 160.5 58.6 C 163.7 58.6 164.8 54.3 164.8 50.6 C 164.8 50.3 164.8 50.2 164.8 50 C 164.1 51.4 162.5 52.9 160.4 52.9 C 157.5 52.9 155.1 50.8 155.1 46.5 C 155.1 43.2 157.2 40 160.9 40 C 165.7 40 167.2 45 167.2 50.4 C 167.2 55.8 165.3 60.7 160.5 60.7 C 158.4 60.7 156.8 59.7 155.8 58.2 Z M 164.7 47.8 C 164.6 45.6 163.8 42.2 161 42.2 C 158.6 42.2 157.6 44.4 157.6 46.5 C 157.6 49.7 159.1 50.9 161 50.9 C 162.7 50.9 164 49.4 164.7 47.8 Z M 177.3 60.4 L 177.3 55.2 L 169.3 55.2 L 169.3 53.2 L 176.6 40.4 L 179.6 40.4 L 179.6 53.1 L 181.8 53.1 L 181.8 55.2 L 179.6 55.2 L 179.6 60.4 L 177.3 60.4 Z M 177.3 42.9 L 171.5 53.1 L 177.3 53.1 L 177.3 42.9 Z M 184.3 59.1 C 184.3 58.2 185.1 57.5 185.9 57.5 C 186.8 57.5 187.5 58.2 187.5 59.1 C 187.5 60 186.8 60.7 185.9 60.7 C 185.1 60.7 184.3 60 184.3 59.1 Z M 190.8 50.4 C 190.8 45 192.7 40.1 197.5 40.1 C 199.6 40.1 201.2 41.1 202.2 42.6 C 202.2 42.6 200.9 44.2 200.9 44.2 C 200.1 43 199.2 42.2 197.5 42.2 C 194.4 42.2 193.2 46.4 193.2 50.2 C 193.2 50.4 193.2 50.5 193.2 50.8 C 193.9 49.4 195.5 47.8 197.6 47.8 C 200.5 47.8 202.8 50 202.8 54.2 C 202.8 57.6 200.8 60.7 197.1 60.7 C 192.3 60.7 190.8 55.7 190.8 50.4 Z M 200.4 54.3 C 200.4 51.1 198.9 49.9 197 49.9 C 195.3 49.9 194 51.3 193.2 53 C 193.4 55.2 194.1 58.6 197 58.6 C 199.4 58.6 200.4 56.4 200.4 54.3 Z M 205.7 57.5 C 205.7 57.5 207.3 56 207.3 56 C 208.2 57.7 209.5 58.6 211.5 58.6 C 213.7 58.6 215.1 56.6 215.1 54.3 C 215.1 51.4 213.7 49.8 211.6 49.8 C 210.2 49.8 209.1 50.4 208 51.7 C 208 51.71 206.2 51.1 206.2 51.1 L 206.2 40.4 L 216.4 40.4 L 216.4 42.5 L 208.6 42.5 C 208.6 42.5 208.6 49.49 208.6 49.5 C 209.4 48.5 210.7 47.7 212.3 47.7 C 215.2 47.7 217.5 50 217.5 54.2 C 217.5 58 215 60.7 211.5 60.7 C 208.6 60.7 206.9 59.5 205.7 57.5 Z " stroke="none" fill="#d0d1d4"/>  </g>  <g id="Polygon221498">    <path d="M 149.7 24.4 L 149.7 7.5 L 146.6 10.8 L 145.2 9.3 L 150 4.4 L 152.1 4.4 L 152.1 24.4 L 149.7 24.4 Z M 156.1 22.2 C 156.1 22.2 157.4 20.5 157.4 20.5 C 158.2 21.8 159.1 22.6 160.8 22.6 C 164 22.6 165.1 18.3 165.1 14.6 C 165.1 14.3 165.1 14.2 165.1 14 C 164.4 15.4 162.8 16.9 160.7 16.9 C 157.8 16.9 155.4 14.8 155.4 10.5 C 155.4 7.2 157.5 4 161.2 4 C 166 4 167.5 9 167.5 14.4 C 167.5 19.8 165.6 24.7 160.8 24.7 C 158.7 24.7 157.1 23.7 156.1 22.2 Z M 165 11.8 C 164.9 9.6 164.1 6.2 161.3 6.2 C 158.9 6.2 157.9 8.4 157.9 10.5 C 157.9 13.7 159.4 14.9 161.3 14.9 C 163 14.9 164.3 13.4 165 11.8 Z M 170.5 24.4 C 170.5 24.4 170.54 22.43 170.5 22.4 C 177.1 14.9 179.3 12.5 179.3 9.5 C 179.3 7.4 177.8 6.2 176.1 6.2 C 174.2 6.2 172.8 7.1 171.9 8.7 C 171.9 8.7 170.3 7.3 170.3 7.3 C 171.6 5.2 173.6 4.1 176.1 4.1 C 179.2 4.1 181.8 6 181.8 9.5 C 181.8 12.9 179.2 15.9 173.9 22.2 C 173.93 22.25 181.8 22.2 181.8 22.2 L 181.8 24.4 L 170.5 24.4 Z M 185.4 23.1 C 185.4 22.2 186.2 21.5 187 21.5 C 187.9 21.5 188.7 22.2 188.7 23.1 C 188.7 24 187.9 24.7 187 24.7 C 186.2 24.7 185.4 24 185.4 23.1 Z M 191.3 21.4 C 191.3 21.4 192.9 20 192.9 20 C 193.8 21.5 195.3 22.6 197.2 22.6 C 199.6 22.6 200.8 21.1 200.8 18.8 C 200.8 16.1 199 15.2 197 15.2 C 196.4 15.2 195.7 15.2 195.4 15.2 C 195.4 15.2 195.4 13 195.4 13 C 195.7 13.1 196.4 13.1 196.9 13.1 C 198.9 13.1 200.6 12 200.6 9.7 C 200.6 7.3 199.1 6.2 197.1 6.2 C 195.3 6.2 194.1 7.1 193.1 8.6 C 193.1 8.6 191.6 7.2 191.6 7.2 C 192.8 5.3 194.8 4.1 197.3 4.1 C 200.5 4.1 202.9 5.8 202.9 9.4 C 202.9 11.9 201.2 13.6 199.4 14 C 201.1 14.3 203.2 16.1 203.2 19 C 203.2 22.3 201.1 24.7 197.3 24.7 C 194.4 24.7 192.3 23.2 191.3 21.4 Z M 205.5 21.4 C 205.5 21.4 207.1 20 207.1 20 C 208 21.5 209.5 22.6 211.4 22.6 C 213.8 22.6 215 21.1 215 18.8 C 215 16.1 213.2 15.2 211.2 15.2 C 210.6 15.2 209.9 15.2 209.6 15.2 C 209.6 15.2 209.6 13 209.6 13 C 209.9 13.1 210.6 13.1 211.1 13.1 C 213.1 13.1 214.8 12 214.8 9.7 C 214.8 7.3 213.3 6.2 211.3 6.2 C 209.5 6.2 208.3 7.1 207.3 8.6 C 207.3 8.6 205.8 7.2 205.8 7.2 C 207 5.3 209 4.1 211.5 4.1 C 214.7 4.1 217.1 5.8 217.1 9.4 C 217.1 11.9 215.4 13.6 213.6 14 C 215.3 14.3 217.4 16.1 217.4 19 C 217.4 22.3 215.3 24.7 211.5 24.7 C 208.6 24.7 206.5 23.2 205.5 21.4 Z " stroke="none" fill="#d0d1d4"/>  </g></svg>