<?xml version="1.0" standalone="no"?><!DOCTYPE svg PUBLIC "-//W3C//DTD SVG 1.1//EN" "http://www.w3.org/Graphics/SVG/1.1/DTD/svg11.dtd"><svg xmlns="http://www.w3.org/2000/svg" version="1.1" width="658px" height="197.6px" viewBox="0 0 658 197.6">  <desc>Glue Sauce Cardboard with Soap Chunks and Blackened Hot Glue Sticks</desc>  <defs/>  <g id="Polygon223750">    <path d="M 18.4 159.4 L 18.4 142.1 L 10.7 142.1 L 10.7 159.4 L 3.1 159.4 L 3.1 119.4 L 10.7 119.4 L 10.7 135.5 L 18.4 135.5 L 18.4 119.4 L 25.9 119.4 L 25.9 159.4 L 18.4 159.4 Z M 30.7 144.9 C 30.7 136.8 34 129.7 41.5 129.7 C 49.1 129.7 52.4 136.8 52.4 144.9 C 52.4 152.9 49.1 160.1 41.5 160.1 C 34 160.1 30.7 152.9 30.7 144.9 Z M 45.4 144.9 C 45.4 140 44.6 135.7 41.5 135.7 C 38.5 135.7 37.7 140 37.7 144.9 C 37.7 149.9 38.5 154.1 41.5 154.1 C 44.6 154.1 45.4 149.9 45.4 144.9 Z M 57.7 152.7 C 57.72 152.74 57.7 136.3 57.7 136.3 L 55 136.3 L 55 130.4 L 57.7 130.4 L 57.7 122.5 L 64.5 122.5 L 64.5 130.4 L 68.2 130.4 L 68.2 136.3 L 64.5 136.3 C 64.5 136.3 64.5 151.42 64.5 151.4 C 64.5 153.2 64.9 154.1 66.1 154.1 C 66.8 154.1 67.4 153.8 67.7 153.3 C 67.7 153.3 69.1 158.6 69.1 158.6 C 68.1 159.5 66.5 160.1 64.4 160.1 C 59.6 160.1 57.7 157.7 57.7 152.7 Z M 81.2 139.4 C 81.2 127.1 85.1 118.7 93.7 118.7 C 99.3 118.7 102.4 123 103.7 128.1 C 103.7 128.1 97.7 130.4 97.7 130.4 C 97.1 127.6 96.1 125.4 93.7 125.4 C 90.7 125.4 88.9 129.8 88.9 139.4 C 88.9 149 90.7 153.4 93.7 153.4 C 95.4 153.4 96.5 152.7 97.3 151.6 C 97.32 151.6 97.3 144.3 97.3 144.3 L 92.8 144.3 L 92.8 137.7 L 104 137.7 C 104 137.7 103.98 154.84 104 154.8 C 101.3 158.2 98.2 160.1 93.7 160.1 C 85.1 160.1 81.2 151.7 81.2 139.4 Z M 109.3 159.4 L 109.3 119.4 L 116 119.4 L 116 159.4 L 109.3 159.4 Z M 134.4 159.4 C 134.4 159.4 134.4 155.74 134.4 155.7 C 133.3 158.1 130.4 160.1 127.6 160.1 C 123.2 160.1 121.5 157.7 121.5 153.6 C 121.5 153.58 121.5 130.4 121.5 130.4 L 128.3 130.4 C 128.3 130.4 128.28 151.18 128.3 151.2 C 128.3 153.2 129 154.1 130.5 154.1 C 132.2 154.1 133.7 152.3 134.4 150.5 C 134.4 150.46 134.4 130.4 134.4 130.4 L 141.2 130.4 L 141.2 159.4 L 134.4 159.4 Z M 145.6 144.9 C 145.6 136.5 149.2 129.7 156.4 129.7 C 163.7 129.7 166.8 136.2 166.8 144.8 C 166.8 144.76 166.8 147.1 166.8 147.1 C 166.8 147.1 152.1 147.1 152.1 147.1 C 152.2 151.4 154 154.6 157.8 154.6 C 159.4 154.6 161.3 153.5 162.6 151.7 C 162.6 151.7 165.9 155.5 165.9 155.5 C 163.6 158.4 160.4 160.1 157.1 160.1 C 149.5 160.1 145.6 153.8 145.6 144.9 Z M 156.2 135.2 C 152.9 135.2 152.1 139.3 152.1 142.4 C 152.1 142.4 160.3 142.4 160.3 142.4 C 160.3 139.1 159.5 135.2 156.2 135.2 Z M 178.7 156.2 C 178.7 156.2 182 150.2 182 150.2 C 183.6 152.3 186.2 153.4 188.5 153.4 C 190.9 153.4 192.5 151.6 192.5 149 C 192.5 141.9 179.8 141.9 179.8 129.9 C 179.8 123.9 183.9 118.7 191 118.7 C 194.3 118.7 197.5 119.9 199.7 122 C 199.7 122 196.7 127.8 196.7 127.8 C 195.2 126.2 193.3 125.4 191.2 125.4 C 189.1 125.4 187.5 127.1 187.5 129.5 C 187.5 135.7 200.2 136.5 200.2 148.5 C 200.2 155.3 195.8 160.1 189 160.1 C 184.6 160.1 181.3 158.7 178.7 156.2 Z M 204.8 152.7 C 204.78 152.74 204.8 136.3 204.8 136.3 L 202.1 136.3 L 202.1 130.4 L 204.8 130.4 L 204.8 122.5 L 211.6 122.5 L 211.6 130.4 L 215.2 130.4 L 215.2 136.3 L 211.6 136.3 C 211.6 136.3 211.56 151.42 211.6 151.4 C 211.6 153.2 212 154.1 213.2 154.1 C 213.8 154.1 214.4 153.8 214.8 153.3 C 214.8 153.3 216.2 158.6 216.2 158.6 C 215.2 159.5 213.5 160.1 211.4 160.1 C 206.7 160.1 204.8 157.7 204.8 152.7 Z M 218.6 122.9 C 218.6 120.6 220.5 118.8 222.7 118.8 C 225 118.8 226.9 120.6 226.9 122.9 C 226.9 125.2 225 127 222.7 127 C 220.5 127 218.6 125.2 218.6 122.9 Z M 219.4 159.4 L 219.4 130.4 L 226.1 130.4 L 226.1 159.4 L 219.4 159.4 Z M 230.5 144.9 C 230.5 136.1 234.5 129.7 241.5 129.7 C 244.7 129.7 247.1 130.9 248.5 132.3 C 248.5 132.3 246.4 137.6 246.4 137.6 C 245.2 136.3 244.1 135.7 242.7 135.7 C 239.2 135.7 237.4 139.8 237.4 144.9 C 237.4 149.9 239.2 154.1 242.7 154.1 C 244.1 154.1 245.2 153.5 246.4 152.3 C 246.4 152.3 248.5 157.5 248.5 157.5 C 247.1 159 244.7 160.1 241.5 160.1 C 234.5 160.1 230.5 153.7 230.5 144.9 Z M 265.9 159.4 L 261.7 147.8 L 259 152.6 L 259 159.4 L 252.2 159.4 L 252.2 119.4 L 259 119.4 L 259 143.8 L 265.7 130.4 L 273.1 130.4 L 266.2 143.3 L 273.4 159.4 L 265.9 159.4 Z M 274.4 156.3 C 274.4 156.3 277.2 151.7 277.2 151.7 C 278.8 153.4 280.9 154.8 283.2 154.8 C 285.4 154.8 286.9 153.6 286.9 151.7 C 286.9 146.9 275.4 148 275.4 137.9 C 275.4 133.5 278.7 129.7 284.6 129.7 C 287.9 129.7 291 131 293.2 133.1 C 293.2 133.1 290.4 137.7 290.4 137.7 C 289.3 136.3 287.2 135 284.8 135 C 283 135 281.7 136.2 281.7 137.7 C 281.7 142.1 293.3 141.3 293.3 151.5 C 293.3 156.6 289.3 160.1 283.8 160.1 C 279.5 160.1 276.3 158.6 274.4 156.3 Z " stroke="none" fill="#e9e8e8"/>  </g>  <g id="Polygon223749">    <path d="M 0.7 100.2 C 0.7 100.2 4 94.2 4 94.2 C 5.6 96.3 8.2 97.4 10.6 97.4 C 13 97.4 14.6 95.6 14.6 93 C 14.6 85.9 1.9 85.9 1.9 73.9 C 1.9 67.9 5.9 62.7 13 62.7 C 16.4 62.7 19.5 63.9 21.7 66 C 21.7 66 18.8 71.8 18.8 71.8 C 17.2 70.2 15.4 69.4 13.3 69.4 C 11.1 69.4 9.5 71.1 9.5 73.5 C 9.5 79.7 22.3 80.5 22.3 92.5 C 22.3 99.3 17.9 104.1 11 104.1 C 6.7 104.1 3.3 102.7 0.7 100.2 Z M 25.4 88.9 C 25.4 80.8 28.7 73.7 36.2 73.7 C 43.9 73.7 47.2 80.8 47.2 88.9 C 47.2 96.9 43.9 104.1 36.2 104.1 C 28.7 104.1 25.4 96.9 25.4 88.9 Z M 40.1 88.9 C 40.1 84 39.3 79.7 36.2 79.7 C 33.2 79.7 32.4 84 32.4 88.9 C 32.4 93.9 33.2 98.1 36.2 98.1 C 39.3 98.1 40.1 93.9 40.1 88.9 Z M 64.1 103.4 C 64.1 103.4 64.14 100.64 64.1 100.6 C 62.9 102.9 60.2 104.1 58.1 104.1 C 53.5 104.1 50.2 100.4 50.2 94.5 C 50.2 88.6 53.5 85 58.1 85 C 60.2 85 62.9 86.1 64.1 88.3 C 64.1 88.3 64.1 84.7 64.1 84.7 C 64.1 81.4 62.8 79.5 59.8 79.5 C 57.8 79.5 55.8 80.4 53.9 82.3 C 53.9 82.3 51.4 77.5 51.4 77.5 C 54 74.7 58.1 73.7 61.1 73.7 C 67.1 73.7 70.9 76.7 70.9 83.2 C 70.92 83.18 70.9 103.4 70.9 103.4 L 64.1 103.4 Z M 64.1 96.6 C 64.1 96.6 64.1 92.7 64.1 92.7 C 63.4 90.9 62 89.7 60.5 89.7 C 58.1 89.7 57 91.8 57 94.6 C 57 97.3 58.1 99.6 60.5 99.6 C 62 99.6 63.4 98.4 64.1 96.6 Z M 83.2 99.8 C 83.22 99.8 83.2 114.4 83.2 114.4 L 76.4 114.4 L 76.4 74.4 L 83.2 74.4 C 83.2 74.4 83.22 78.02 83.2 78 C 84.5 75.1 86.8 73.7 88.9 73.7 C 94.6 73.7 97.4 79.6 97.4 88.9 C 97.4 98 94.6 104.1 88.9 104.1 C 86.8 104.1 84.4 102.8 83.2 99.8 Z M 90.5 88.9 C 90.5 83.8 89.6 79.7 86.6 79.7 C 85.2 79.7 83.8 81.1 83.2 83.1 C 83.2 83.1 83.2 94.6 83.2 94.6 C 83.8 96.6 85.2 98.1 86.6 98.1 C 89.6 98.1 90.5 94 90.5 88.9 Z M 110.7 83.4 C 110.7 71.5 114.5 62.7 123.2 62.7 C 129.7 62.7 132 67.9 133.3 72.1 C 133.3 72.1 127.3 74.4 127.3 74.4 C 126.4 71.3 125.5 69.4 123.2 69.4 C 119.6 69.4 118.4 75.3 118.4 83.4 C 118.4 91.6 119.6 97.4 123.2 97.4 C 125.7 97.4 126.8 94.9 127.3 91.6 C 127.3 91.6 133.4 93.8 133.4 93.8 C 132.2 98.4 129.9 104.1 123.2 104.1 C 114.5 104.1 110.7 95.3 110.7 83.4 Z M 150.2 103.4 C 150.2 103.4 150.24 82.64 150.2 82.6 C 150.2 80.7 149.5 79.7 148 79.7 C 146.3 79.7 144.8 81.6 144.1 83.5 C 144.12 83.48 144.1 103.4 144.1 103.4 L 137.3 103.4 L 137.3 63.4 L 144.1 63.4 C 144.1 63.4 144.12 78.2 144.1 78.2 C 145.3 75.9 148.3 73.7 150.9 73.7 C 155.3 73.7 157.1 76.1 157.1 80.2 C 157.08 80.24 157.1 103.4 157.1 103.4 L 150.2 103.4 Z M 175.4 103.4 C 175.4 103.4 175.44 99.74 175.4 99.7 C 174.3 102.1 171.5 104.1 168.7 104.1 C 164.3 104.1 162.5 101.7 162.5 97.6 C 162.54 97.58 162.5 74.4 162.5 74.4 L 169.3 74.4 C 169.3 74.4 169.32 95.18 169.3 95.2 C 169.3 97.2 170 98.1 171.5 98.1 C 173.3 98.1 174.8 96.3 175.4 94.5 C 175.44 94.46 175.4 74.4 175.4 74.4 L 182.3 74.4 L 182.3 103.4 L 175.4 103.4 Z M 200.6 103.4 C 200.6 103.4 200.64 82.76 200.6 82.8 C 200.6 80.7 199.9 79.7 198.4 79.7 C 196.7 79.7 195.2 81.6 194.5 83.5 C 194.52 83.48 194.5 103.4 194.5 103.4 L 187.7 103.4 L 187.7 74.4 L 194.5 74.4 C 194.5 74.4 194.52 78.2 194.5 78.2 C 195.7 75.9 198.7 73.7 201.3 73.7 C 205.7 73.7 207.5 76.3 207.5 80.3 C 207.48 80.3 207.5 103.4 207.5 103.4 L 200.6 103.4 Z M 226.6 103.4 L 222.4 91.8 L 219.7 96.6 L 219.7 103.4 L 212.9 103.4 L 212.9 63.4 L 219.7 63.4 L 219.7 87.8 L 226.4 74.4 L 233.8 74.4 L 226.9 87.3 L 234.1 103.4 L 226.6 103.4 Z M 235.1 100.3 C 235.1 100.3 237.9 95.7 237.9 95.7 C 239.5 97.4 241.6 98.8 243.9 98.8 C 246.1 98.8 247.6 97.6 247.6 95.7 C 247.6 90.9 236.1 92 236.1 81.9 C 236.1 77.5 239.4 73.7 245.3 73.7 C 248.6 73.7 251.7 75 253.9 77.1 C 253.9 77.1 251.1 81.7 251.1 81.7 C 250 80.3 247.9 79 245.5 79 C 243.7 79 242.4 80.2 242.4 81.7 C 242.4 86.1 254 85.3 254 95.5 C 254 100.6 250 104.1 244.5 104.1 C 240.2 104.1 237 102.6 235.1 100.3 Z M 280.3 103.4 C 280.3 103.4 280.26 100.64 280.3 100.6 C 279 102.9 276.3 104.1 274.2 104.1 C 269.6 104.1 266.3 100.4 266.3 94.5 C 266.3 88.6 269.6 85 274.2 85 C 276.3 85 279.1 86.1 280.3 88.3 C 280.3 88.3 280.3 84.7 280.3 84.7 C 280.3 81.4 278.9 79.5 275.9 79.5 C 274 79.5 271.9 80.4 270 82.3 C 270 82.3 267.5 77.5 267.5 77.5 C 270.1 74.7 274.3 73.7 277.3 73.7 C 283.2 73.7 287 76.7 287 83.2 C 287.04 83.18 287 103.4 287 103.4 L 280.3 103.4 Z M 280.3 96.6 C 280.3 96.6 280.3 92.7 280.3 92.7 C 279.5 90.9 278.1 89.7 276.6 89.7 C 274.3 89.7 273.1 91.8 273.1 94.6 C 273.1 97.3 274.3 99.6 276.6 99.6 C 278.1 99.6 279.5 98.4 280.3 96.6 Z M 305.5 103.4 C 305.5 103.4 305.46 82.76 305.5 82.8 C 305.5 80.7 304.7 79.7 303.2 79.7 C 301.5 79.7 300 81.6 299.3 83.5 C 299.34 83.48 299.3 103.4 299.3 103.4 L 292.6 103.4 L 292.6 74.4 L 299.3 74.4 C 299.3 74.4 299.34 78.2 299.3 78.2 C 300.5 75.9 303.5 73.7 306.1 73.7 C 310.5 73.7 312.3 76.3 312.3 80.3 C 312.3 80.3 312.3 103.4 312.3 103.4 L 305.5 103.4 Z M 330.8 103.4 C 330.8 103.4 330.84 99.8 330.8 99.8 C 329.6 102.7 327.2 104.1 325.2 104.1 C 319.5 104.1 316.6 98.2 316.6 88.9 C 316.6 79.8 319.5 73.7 325.2 73.7 C 327.2 73.7 329.6 75 330.8 78 C 330.84 78.02 330.8 63.4 330.8 63.4 L 337.6 63.4 L 337.6 103.4 L 330.8 103.4 Z M 330.8 94.6 C 330.8 94.6 330.8 83.2 330.8 83.2 C 330.2 81.3 328.9 79.7 327.4 79.7 C 324.4 79.7 323.6 83.8 323.6 88.9 C 323.6 94 324.4 98.1 327.4 98.1 C 328.9 98.1 330.2 96.6 330.8 94.6 Z M 353.3 103.4 L 353.3 63.4 C 353.3 63.4 365.33 63.38 365.3 63.4 C 372 63.4 374.9 68.1 374.9 73.6 C 374.9 78.6 372.5 81.7 369.1 82.8 C 372.8 83.4 375.5 87.7 375.5 92.6 C 375.5 98.7 372.7 103.4 365.8 103.4 C 365.75 103.4 353.3 103.4 353.3 103.4 Z M 367.2 74.9 C 367.2 72 366.2 70 363.4 70 C 363.35 70.04 360.8 70 360.8 70 L 360.8 79.7 C 360.8 79.7 363.35 79.7 363.4 79.7 C 366.2 79.7 367.2 77.8 367.2 74.9 Z M 367.7 91.5 C 367.7 88.6 366.4 86.4 363.6 86.4 C 363.59 86.36 360.8 86.4 360.8 86.4 L 360.8 96.7 C 360.8 96.7 363.59 96.74 363.6 96.7 C 366.4 96.7 367.7 94.9 367.7 91.5 Z M 380 103.4 L 380 63.4 L 386.8 63.4 L 386.8 103.4 L 380 103.4 Z M 404.9 103.4 C 404.9 103.4 404.87 100.64 404.9 100.6 C 403.6 102.9 400.9 104.1 398.8 104.1 C 394.3 104.1 391 100.4 391 94.5 C 391 88.6 394.3 85 398.8 85 C 400.9 85 403.7 86.1 404.9 88.3 C 404.9 88.3 404.9 84.7 404.9 84.7 C 404.9 81.4 403.6 79.5 400.5 79.5 C 398.6 79.5 396.5 80.4 394.6 82.3 C 394.6 82.3 392.1 77.5 392.1 77.5 C 394.7 74.7 398.9 73.7 401.9 73.7 C 407.8 73.7 411.7 76.7 411.7 83.2 C 411.65 83.18 411.7 103.4 411.7 103.4 L 404.9 103.4 Z M 404.9 96.6 C 404.9 96.6 404.9 92.7 404.9 92.7 C 404.2 90.9 402.7 89.7 401.2 89.7 C 398.9 89.7 397.7 91.8 397.7 94.6 C 397.7 97.3 398.9 99.6 401.2 99.6 C 402.7 99.6 404.2 98.4 404.9 96.6 Z M 416 88.9 C 416 80.1 420.1 73.7 427.1 73.7 C 430.3 73.7 432.7 74.9 434.1 76.3 C 434.1 76.3 431.9 81.6 431.9 81.6 C 430.7 80.3 429.7 79.7 428.3 79.7 C 424.7 79.7 423 83.8 423 88.9 C 423 93.9 424.7 98.1 428.3 98.1 C 429.7 98.1 430.7 97.5 431.9 96.3 C 431.9 96.3 434.1 101.5 434.1 101.5 C 432.7 103 430.3 104.1 427.1 104.1 C 420.1 104.1 416 97.7 416 88.9 Z M 451.5 103.4 L 447.2 91.8 L 444.6 96.6 L 444.6 103.4 L 437.8 103.4 L 437.8 63.4 L 444.6 63.4 L 444.6 87.8 L 451.3 74.4 L 458.6 74.4 L 451.7 87.3 L 458.9 103.4 L 451.5 103.4 Z M 460.2 88.9 C 460.2 80.5 463.8 73.7 471.1 73.7 C 478.4 73.7 481.4 80.2 481.4 88.8 C 481.43 88.76 481.4 91.1 481.4 91.1 C 481.4 91.1 466.73 91.1 466.7 91.1 C 466.8 95.4 468.6 98.6 472.4 98.6 C 474.1 98.6 475.9 97.5 477.2 95.7 C 477.2 95.7 480.5 99.5 480.5 99.5 C 478.3 102.4 475 104.1 471.7 104.1 C 464.2 104.1 460.2 97.8 460.2 88.9 Z M 470.9 79.2 C 467.6 79.2 466.7 83.3 466.7 86.4 C 466.7 86.4 474.9 86.4 474.9 86.4 C 474.9 83.1 474.2 79.2 470.9 79.2 Z M 498.5 103.4 C 498.5 103.4 498.47 82.76 498.5 82.8 C 498.5 80.7 497.8 79.7 496.3 79.7 C 494.5 79.7 493 81.6 492.4 83.5 C 492.35 83.48 492.4 103.4 492.4 103.4 L 485.6 103.4 L 485.6 74.4 L 492.4 74.4 C 492.4 74.4 492.35 78.2 492.4 78.2 C 493.5 75.9 496.5 73.7 499.1 73.7 C 503.5 73.7 505.3 76.3 505.3 80.3 C 505.31 80.3 505.3 103.4 505.3 103.4 L 498.5 103.4 Z M 509.6 88.9 C 509.6 80.5 513.2 73.7 520.5 73.7 C 527.8 73.7 530.9 80.2 530.9 88.8 C 530.87 88.76 530.9 91.1 530.9 91.1 C 530.9 91.1 516.17 91.1 516.2 91.1 C 516.2 95.4 518 98.6 521.9 98.6 C 523.5 98.6 525.4 97.5 526.7 95.7 C 526.7 95.7 530 99.5 530 99.5 C 527.7 102.4 524.5 104.1 521.2 104.1 C 513.6 104.1 509.6 97.8 509.6 88.9 Z M 520.3 79.2 C 517 79.2 516.2 83.3 516.2 86.4 C 516.2 86.4 524.3 86.4 524.3 86.4 C 524.3 83.1 523.6 79.2 520.3 79.2 Z M 548.1 103.4 C 548.1 103.4 548.09 99.8 548.1 99.8 C 546.8 102.7 544.5 104.1 542.5 104.1 C 536.8 104.1 533.9 98.2 533.9 88.9 C 533.9 79.8 536.8 73.7 542.5 73.7 C 544.5 73.7 546.9 75 548.1 78 C 548.09 78.02 548.1 63.4 548.1 63.4 L 554.9 63.4 L 554.9 103.4 L 548.1 103.4 Z M 548.1 94.6 C 548.1 94.6 548.1 83.2 548.1 83.2 C 547.5 81.3 546.1 79.7 544.7 79.7 C 541.7 79.7 540.8 83.8 540.8 88.9 C 540.8 94 541.7 98.1 544.7 98.1 C 546.1 98.1 547.5 96.6 548.1 94.6 Z " stroke="none" fill="#e9e8e8"/>  </g>  <g id="Polygon223748">    <path d="M 1.9 27.4 C 1.9 15.1 5.8 6.7 14.4 6.7 C 20 6.7 23.1 11 24.4 16.1 C 24.4 16.1 18.4 18.4 18.4 18.4 C 17.8 15.6 16.7 13.4 14.4 13.4 C 11.4 13.4 9.6 17.8 9.6 27.4 C 9.6 37 11.4 41.4 14.4 41.4 C 16.1 41.4 17.2 40.7 18 39.6 C 18 39.6 18 32.3 18 32.3 L 13.5 32.3 L 13.5 25.7 L 24.7 25.7 C 24.7 25.7 24.66 42.84 24.7 42.8 C 22 46.2 18.9 48.1 14.4 48.1 C 5.8 48.1 1.9 39.7 1.9 27.4 Z M 29.9 47.4 L 29.9 7.4 L 36.7 7.4 L 36.7 47.4 L 29.9 47.4 Z M 55.1 47.4 C 55.1 47.4 55.08 43.74 55.1 43.7 C 53.9 46.1 51.1 48.1 48.3 48.1 C 43.9 48.1 42.2 45.7 42.2 41.6 C 42.18 41.58 42.2 18.4 42.2 18.4 L 49 18.4 C 49 18.4 48.96 39.18 49 39.2 C 49 41.2 49.7 42.1 51.2 42.1 C 52.9 42.1 54.4 40.3 55.1 38.5 C 55.08 38.46 55.1 18.4 55.1 18.4 L 61.9 18.4 L 61.9 47.4 L 55.1 47.4 Z M 66.2 32.9 C 66.2 24.5 69.8 17.7 77.1 17.7 C 84.4 17.7 87.5 24.2 87.5 32.8 C 87.48 32.76 87.5 35.1 87.5 35.1 C 87.5 35.1 72.78 35.1 72.8 35.1 C 72.8 39.4 74.6 42.6 78.5 42.6 C 80.1 42.6 82 41.5 83.3 39.7 C 83.3 39.7 86.6 43.5 86.6 43.5 C 84.3 46.4 81.1 48.1 77.8 48.1 C 70.2 48.1 66.2 41.8 66.2 32.9 Z M 76.9 23.2 C 73.6 23.2 72.8 27.3 72.8 30.4 C 72.8 30.4 80.9 30.4 80.9 30.4 C 80.9 27.1 80.2 23.2 76.9 23.2 Z M 99.4 44.2 C 99.4 44.2 102.7 38.2 102.7 38.2 C 104.3 40.3 106.9 41.4 109.2 41.4 C 111.6 41.4 113.2 39.6 113.2 37 C 113.2 29.9 100.5 29.9 100.5 17.9 C 100.5 11.9 104.6 6.7 111.7 6.7 C 115 6.7 118.1 7.9 120.4 10 C 120.4 10 117.4 15.8 117.4 15.8 C 115.9 14.2 114 13.4 111.9 13.4 C 109.7 13.4 108.2 15.1 108.2 17.5 C 108.2 23.7 120.9 24.5 120.9 36.5 C 120.9 43.3 116.5 48.1 109.7 48.1 C 105.3 48.1 101.9 46.7 99.4 44.2 Z M 137.8 47.4 C 137.8 47.4 137.76 44.64 137.8 44.6 C 136.5 46.9 133.8 48.1 131.7 48.1 C 127.1 48.1 123.8 44.4 123.8 38.5 C 123.8 32.6 127.1 29 131.7 29 C 133.8 29 136.6 30.1 137.8 32.3 C 137.8 32.3 137.8 28.7 137.8 28.7 C 137.8 25.4 136.4 23.5 133.4 23.5 C 131.5 23.5 129.4 24.4 127.5 26.3 C 127.5 26.3 125 21.5 125 21.5 C 127.6 18.7 131.8 17.7 134.8 17.7 C 140.7 17.7 144.5 20.7 144.5 27.2 C 144.54 27.18 144.5 47.4 144.5 47.4 L 137.8 47.4 Z M 137.8 40.6 C 137.8 40.6 137.8 36.7 137.8 36.7 C 137 34.9 135.6 33.7 134.1 33.7 C 131.8 33.7 130.6 35.8 130.6 38.6 C 130.6 41.3 131.8 43.6 134.1 43.6 C 135.6 43.6 137 42.4 137.8 40.6 Z M 163 47.4 C 163 47.4 162.96 43.74 163 43.7 C 161.8 46.1 159 48.1 156.2 48.1 C 151.8 48.1 150.1 45.7 150.1 41.6 C 150.06 41.58 150.1 18.4 150.1 18.4 L 156.8 18.4 C 156.8 18.4 156.84 39.18 156.8 39.2 C 156.8 41.2 157.6 42.1 159.1 42.1 C 160.8 42.1 162.3 40.3 163 38.5 C 162.96 38.46 163 18.4 163 18.4 L 169.8 18.4 L 169.8 47.4 L 163 47.4 Z M 174.1 32.9 C 174.1 24.1 178.2 17.7 185.2 17.7 C 188.4 17.7 190.8 18.9 192.2 20.3 C 192.2 20.3 190 25.6 190 25.6 C 188.8 24.3 187.7 23.7 186.4 23.7 C 182.8 23.7 181.1 27.8 181.1 32.9 C 181.1 37.9 182.8 42.1 186.4 42.1 C 187.7 42.1 188.8 41.5 190 40.3 C 190 40.3 192.2 45.5 192.2 45.5 C 190.8 47 188.4 48.1 185.2 48.1 C 178.2 48.1 174.1 41.7 174.1 32.9 Z M 194.8 32.9 C 194.8 24.5 198.4 17.7 205.6 17.7 C 212.9 17.7 216 24.2 216 32.8 C 216 32.76 216 35.1 216 35.1 C 216 35.1 201.3 35.1 201.3 35.1 C 201.4 39.4 203.2 42.6 207 42.6 C 208.6 42.6 210.5 41.5 211.8 39.7 C 211.8 39.7 215.1 43.5 215.1 43.5 C 212.8 46.4 209.6 48.1 206.3 48.1 C 198.7 48.1 194.8 41.8 194.8 32.9 Z M 205.4 23.2 C 202.1 23.2 201.3 27.3 201.3 30.4 C 201.3 30.4 209.5 30.4 209.5 30.4 C 209.5 27.1 208.7 23.2 205.4 23.2 Z M 229 27.4 C 229 15.5 232.8 6.7 241.6 6.7 C 248 6.7 250.3 11.9 251.6 16.1 C 251.6 16.1 245.6 18.4 245.6 18.4 C 244.7 15.3 243.8 13.4 241.6 13.4 C 238 13.4 236.8 19.3 236.8 27.4 C 236.8 35.6 238 41.4 241.6 41.4 C 244 41.4 245.1 38.9 245.6 35.6 C 245.6 35.6 251.7 37.8 251.7 37.8 C 250.6 42.4 248.2 48.1 241.6 48.1 C 232.8 48.1 229 39.3 229 27.4 Z M 268.3 47.4 C 268.3 47.4 268.26 44.64 268.3 44.6 C 267 46.9 264.3 48.1 262.2 48.1 C 257.6 48.1 254.3 44.4 254.3 38.5 C 254.3 32.6 257.6 29 262.2 29 C 264.3 29 267.1 30.1 268.3 32.3 C 268.3 32.3 268.3 28.7 268.3 28.7 C 268.3 25.4 266.9 23.5 263.9 23.5 C 262 23.5 259.9 24.4 258 26.3 C 258 26.3 255.5 21.5 255.5 21.5 C 258.1 18.7 262.3 17.7 265.3 17.7 C 271.2 17.7 275 20.7 275 27.2 C 275.04 27.18 275 47.4 275 47.4 L 268.3 47.4 Z M 268.3 40.6 C 268.3 40.6 268.3 36.7 268.3 36.7 C 267.5 34.9 266.1 33.7 264.6 33.7 C 262.3 33.7 261.1 35.8 261.1 38.6 C 261.1 41.3 262.3 43.6 264.6 43.6 C 266.1 43.6 267.5 42.4 268.3 40.6 Z M 280.6 47.4 L 280.6 18.4 L 287.3 18.4 C 287.3 18.4 287.33 22.44 287.3 22.4 C 288.5 19.8 291.3 17.7 293.8 17.7 C 293.8 17.7 293.8 24.4 293.8 24.4 C 293.4 24.2 292.9 24.2 292.5 24.2 C 290.5 24.2 288.5 25.8 287.3 27.9 C 287.33 27.9 287.3 47.4 287.3 47.4 L 280.6 47.4 Z M 310.4 47.4 C 310.4 47.4 310.43 43.8 310.4 43.8 C 309.2 46.7 306.8 48.1 304.8 48.1 C 299.1 48.1 296.2 42.2 296.2 32.9 C 296.2 23.8 299.1 17.7 304.8 17.7 C 306.8 17.7 309.2 19 310.4 22 C 310.43 22.02 310.4 7.4 310.4 7.4 L 317.2 7.4 L 317.2 47.4 L 310.4 47.4 Z M 310.4 38.6 C 310.4 38.6 310.4 27.2 310.4 27.2 C 309.8 25.3 308.5 23.7 307 23.7 C 304 23.7 303.2 27.8 303.2 32.9 C 303.2 38 304 42.1 307 42.1 C 308.5 42.1 309.8 40.6 310.4 38.6 Z M 332.9 42.1 C 335.9 42.1 336.8 38 336.8 32.9 C 336.8 27.8 335.9 23.7 332.9 23.7 C 331.5 23.7 330.1 25.3 329.5 27.2 C 329.5 27.2 329.5 38.6 329.5 38.6 C 330.1 40.6 331.5 42.1 332.9 42.1 Z M 322.7 47.4 L 322.7 7.4 L 329.5 7.4 C 329.5 7.4 329.51 22.02 329.5 22 C 330.7 19 333.1 17.7 335.2 17.7 C 340.9 17.7 343.7 23.8 343.7 32.9 C 343.7 42.2 340.9 48.1 335.2 48.1 C 333.1 48.1 330.8 46.7 329.5 43.8 C 329.51 43.8 329.5 47.4 329.5 47.4 L 322.7 47.4 Z M 347 32.9 C 347 24.8 350.3 17.7 357.8 17.7 C 365.5 17.7 368.8 24.8 368.8 32.9 C 368.8 40.9 365.5 48.1 357.8 48.1 C 350.3 48.1 347 40.9 347 32.9 Z M 361.7 32.9 C 361.7 28 360.9 23.7 357.8 23.7 C 354.8 23.7 354 28 354 32.9 C 354 37.9 354.8 42.1 357.8 42.1 C 360.9 42.1 361.7 37.9 361.7 32.9 Z M 385.7 47.4 C 385.7 47.4 385.73 44.64 385.7 44.6 C 384.5 46.9 381.8 48.1 379.7 48.1 C 375.1 48.1 371.8 44.4 371.8 38.5 C 371.8 32.6 375.1 29 379.7 29 C 381.8 29 384.5 30.1 385.7 32.3 C 385.7 32.3 385.7 28.7 385.7 28.7 C 385.7 25.4 384.4 23.5 381.4 23.5 C 379.4 23.5 377.4 24.4 375.5 26.3 C 375.5 26.3 373 21.5 373 21.5 C 375.6 18.7 379.7 17.7 382.7 17.7 C 388.7 17.7 392.5 20.7 392.5 27.2 C 392.51 27.18 392.5 47.4 392.5 47.4 L 385.7 47.4 Z M 385.7 40.6 C 385.7 40.6 385.7 36.7 385.7 36.7 C 385 34.9 383.6 33.7 382.1 33.7 C 379.7 33.7 378.6 35.8 378.6 38.6 C 378.6 41.3 379.7 43.6 382.1 43.6 C 383.6 43.6 385 42.4 385.7 40.6 Z M 398 47.4 L 398 18.4 L 404.8 18.4 C 404.8 18.4 404.81 22.44 404.8 22.4 C 406 19.8 408.8 17.7 411.3 17.7 C 411.3 17.7 411.3 24.4 411.3 24.4 C 410.9 24.2 410.4 24.2 410 24.2 C 408 24.2 406 25.8 404.8 27.9 C 404.81 27.9 404.8 47.4 404.8 47.4 L 398 47.4 Z M 427.9 47.4 C 427.9 47.4 427.91 43.8 427.9 43.8 C 426.7 46.7 424.3 48.1 422.3 48.1 C 416.6 48.1 413.7 42.2 413.7 32.9 C 413.7 23.8 416.6 17.7 422.3 17.7 C 424.3 17.7 426.7 19 427.9 22 C 427.91 22.02 427.9 7.4 427.9 7.4 L 434.7 7.4 L 434.7 47.4 L 427.9 47.4 Z M 427.9 38.6 C 427.9 38.6 427.9 27.2 427.9 27.2 C 427.3 25.3 425.9 23.7 424.5 23.7 C 421.5 23.7 420.7 27.8 420.7 32.9 C 420.7 38 421.5 42.1 424.5 42.1 C 425.9 42.1 427.3 40.6 427.9 38.6 Z M 469.6 47.4 L 465.5 27.7 L 461.3 47.4 L 454.2 47.4 L 447.5 18.4 L 454.6 18.4 L 458.2 38.2 L 462 18.4 L 468.5 18.4 L 472.6 38.2 L 476.3 18.4 L 483.4 18.4 L 476.7 47.4 L 469.6 47.4 Z M 485.7 10.9 C 485.7 8.6 487.6 6.8 489.8 6.8 C 492.1 6.8 494 8.6 494 10.9 C 494 13.2 492.1 15 489.8 15 C 487.6 15 485.7 13.2 485.7 10.9 Z M 486.5 47.4 L 486.5 18.4 L 493.3 18.4 L 493.3 47.4 L 486.5 47.4 Z M 499.6 40.7 C 499.61 40.74 499.6 24.3 499.6 24.3 L 496.9 24.3 L 496.9 18.4 L 499.6 18.4 L 499.6 10.5 L 506.4 10.5 L 506.4 18.4 L 510.1 18.4 L 510.1 24.3 L 506.4 24.3 C 506.4 24.3 506.39 39.42 506.4 39.4 C 506.4 41.2 506.8 42.1 508 42.1 C 508.7 42.1 509.3 41.8 509.6 41.3 C 509.6 41.3 511 46.6 511 46.6 C 510 47.5 508.4 48.1 506.3 48.1 C 501.5 48.1 499.6 45.7 499.6 40.7 Z M 527.1 47.4 C 527.1 47.4 527.09 26.64 527.1 26.6 C 527.1 24.7 526.4 23.7 524.9 23.7 C 523.1 23.7 521.6 25.6 521 27.5 C 520.97 27.48 521 47.4 521 47.4 L 514.2 47.4 L 514.2 7.4 L 521 7.4 C 521 7.4 520.97 22.2 521 22.2 C 522.1 19.9 525.1 17.7 527.8 17.7 C 532.1 17.7 533.9 20.1 533.9 24.2 C 533.93 24.24 533.9 47.4 533.9 47.4 L 527.1 47.4 Z " stroke="none" fill="#e9e8e8"/>  </g></svg>