<?xml version="1.0" standalone="no"?><!DOCTYPE svg PUBLIC "-//W3C//DTD SVG 1.1//EN" "http://www.w3.org/Graphics/SVG/1.1/DTD/svg11.dtd"><svg xmlns="http://www.w3.org/2000/svg" version="1.1" width="629px" height="197.6px" viewBox="0 0 629 197.6">  <desc>Floral Foam Bun with Paper Pulp Patty, Melted Silicone Slice and Julienned Foam</desc>  <defs/>  <g id="Polygon233623">    <path d="M 0.7 156.2 C 0.7 156.2 4 150.2 4 150.2 C 5.6 152.3 8.2 153.4 10.6 153.4 C 13 153.4 14.6 151.6 14.6 149 C 14.6 141.9 1.9 141.9 1.9 129.9 C 1.9 123.9 5.9 118.7 13 118.7 C 16.4 118.7 19.5 119.9 21.7 122 C 21.7 122 18.8 127.8 18.8 127.8 C 17.2 126.2 15.4 125.4 13.3 125.4 C 11.1 125.4 9.5 127.1 9.5 129.5 C 9.5 135.7 22.3 136.5 22.3 148.5 C 22.3 155.3 17.9 160.1 11 160.1 C 6.7 160.1 3.3 158.7 0.7 156.2 Z M 26.5 159.4 L 26.5 119.4 L 33.3 119.4 L 33.3 159.4 L 26.5 159.4 Z M 38 122.9 C 38 120.6 39.9 118.8 42.1 118.8 C 44.4 118.8 46.3 120.6 46.3 122.9 C 46.3 125.2 44.4 127 42.1 127 C 39.9 127 38 125.2 38 122.9 Z M 38.8 159.4 L 38.8 130.4 L 45.5 130.4 L 45.5 159.4 L 38.8 159.4 Z M 49.9 144.9 C 49.9 136.1 53.9 129.7 60.9 129.7 C 64.1 129.7 66.5 130.9 67.9 132.3 C 67.9 132.3 65.8 137.6 65.8 137.6 C 64.6 136.3 63.5 135.7 62.1 135.7 C 58.6 135.7 56.8 139.8 56.8 144.9 C 56.8 149.9 58.6 154.1 62.1 154.1 C 63.5 154.1 64.6 153.5 65.8 152.3 C 65.8 152.3 67.9 157.5 67.9 157.5 C 66.5 159 64.1 160.1 60.9 160.1 C 53.9 160.1 49.9 153.7 49.9 144.9 Z M 70.5 144.9 C 70.5 136.5 74.1 129.7 81.4 129.7 C 88.7 129.7 91.7 136.2 91.7 144.8 C 91.74 144.76 91.7 147.1 91.7 147.1 C 91.7 147.1 77.04 147.1 77 147.1 C 77.1 151.4 78.9 154.6 82.7 154.6 C 84.4 154.6 86.2 153.5 87.5 151.7 C 87.5 151.7 90.8 155.5 90.8 155.5 C 88.6 158.4 85.3 160.1 82 160.1 C 74.5 160.1 70.5 153.8 70.5 144.9 Z M 81.2 135.2 C 77.9 135.2 77 139.3 77 142.4 C 77 142.4 85.2 142.4 85.2 142.4 C 85.2 139.1 84.5 135.2 81.2 135.2 Z M 118.3 159.4 C 118.3 159.4 118.26 156.64 118.3 156.6 C 117 158.9 114.3 160.1 112.2 160.1 C 107.6 160.1 104.3 156.4 104.3 150.5 C 104.3 144.6 107.6 141 112.2 141 C 114.3 141 117.1 142.1 118.3 144.3 C 118.3 144.3 118.3 140.7 118.3 140.7 C 118.3 137.4 116.9 135.5 113.9 135.5 C 112 135.5 109.9 136.4 108 138.3 C 108 138.3 105.5 133.5 105.5 133.5 C 108.1 130.7 112.3 129.7 115.3 129.7 C 121.2 129.7 125 132.7 125 139.2 C 125.04 139.18 125 159.4 125 159.4 L 118.3 159.4 Z M 118.3 152.6 C 118.3 152.6 118.3 148.7 118.3 148.7 C 117.5 146.9 116.1 145.7 114.6 145.7 C 112.3 145.7 111.1 147.8 111.1 150.6 C 111.1 153.3 112.3 155.6 114.6 155.6 C 116.1 155.6 117.5 154.4 118.3 152.6 Z M 143.5 159.4 C 143.5 159.4 143.46 138.76 143.5 138.8 C 143.5 136.7 142.7 135.7 141.2 135.7 C 139.5 135.7 138 137.6 137.3 139.5 C 137.34 139.48 137.3 159.4 137.3 159.4 L 130.6 159.4 L 130.6 130.4 L 137.3 130.4 C 137.3 130.4 137.34 134.2 137.3 134.2 C 138.5 131.9 141.5 129.7 144.1 129.7 C 148.5 129.7 150.3 132.3 150.3 136.3 C 150.3 136.3 150.3 159.4 150.3 159.4 L 143.5 159.4 Z M 168.8 159.4 C 168.8 159.4 168.84 155.8 168.8 155.8 C 167.6 158.7 165.2 160.1 163.2 160.1 C 157.5 160.1 154.6 154.2 154.6 144.9 C 154.6 135.8 157.5 129.7 163.2 129.7 C 165.2 129.7 167.6 131 168.8 134 C 168.84 134.02 168.8 119.4 168.8 119.4 L 175.6 119.4 L 175.6 159.4 L 168.8 159.4 Z M 168.8 150.6 C 168.8 150.6 168.8 139.2 168.8 139.2 C 168.2 137.3 166.9 135.7 165.4 135.7 C 162.4 135.7 161.6 139.8 161.6 144.9 C 161.6 150 162.4 154.1 165.4 154.1 C 166.9 154.1 168.2 152.6 168.8 150.6 Z M 188.6 158 C 188.6 158 190.7 151.8 190.7 151.8 C 191.7 152.9 193 153.4 194.3 153.4 C 196.8 153.4 198.5 152.1 198.5 149 C 198.48 149.02 198.5 119.4 198.5 119.4 L 206 119.4 C 206 119.4 206.04 149.38 206 149.4 C 206 156.9 201.6 160.1 195.2 160.1 C 192.8 160.1 190.6 159.6 188.6 158 Z M 224.7 159.4 C 224.7 159.4 224.7 155.74 224.7 155.7 C 223.6 158.1 220.7 160.1 217.9 160.1 C 213.5 160.1 211.8 157.7 211.8 153.6 C 211.8 153.58 211.8 130.4 211.8 130.4 L 218.6 130.4 C 218.6 130.4 218.58 151.18 218.6 151.2 C 218.6 153.2 219.3 154.1 220.8 154.1 C 222.5 154.1 224 152.3 224.7 150.5 C 224.7 150.46 224.7 130.4 224.7 130.4 L 231.5 130.4 L 231.5 159.4 L 224.7 159.4 Z M 237 159.4 L 237 119.4 L 243.8 119.4 L 243.8 159.4 L 237 159.4 Z M 248.5 122.9 C 248.5 120.6 250.4 118.8 252.6 118.8 C 254.9 118.8 256.7 120.6 256.7 122.9 C 256.7 125.2 254.9 127 252.6 127 C 250.4 127 248.5 125.2 248.5 122.9 Z M 249.2 159.4 L 249.2 130.4 L 256 130.4 L 256 159.4 L 249.2 159.4 Z M 260.3 144.9 C 260.3 136.5 263.9 129.7 271.2 129.7 C 278.5 129.7 281.6 136.2 281.6 144.8 C 281.58 144.76 281.6 147.1 281.6 147.1 C 281.6 147.1 266.88 147.1 266.9 147.1 C 266.9 151.4 268.7 154.6 272.6 154.6 C 274.2 154.6 276.1 153.5 277.4 151.7 C 277.4 151.7 280.7 155.5 280.7 155.5 C 278.4 158.4 275.2 160.1 271.9 160.1 C 264.3 160.1 260.3 153.8 260.3 144.9 Z M 271 135.2 C 267.7 135.2 266.9 139.3 266.9 142.4 C 266.9 142.4 275 142.4 275 142.4 C 275 139.1 274.3 135.2 271 135.2 Z M 298.6 159.4 C 298.6 159.4 298.61 138.76 298.6 138.8 C 298.6 136.7 297.9 135.7 296.4 135.7 C 294.7 135.7 293.2 137.6 292.5 139.5 C 292.49 139.48 292.5 159.4 292.5 159.4 L 285.7 159.4 L 285.7 130.4 L 292.5 130.4 C 292.5 130.4 292.49 134.2 292.5 134.2 C 293.6 131.9 296.6 129.7 299.3 129.7 C 303.7 129.7 305.5 132.3 305.5 136.3 C 305.45 136.3 305.5 159.4 305.5 159.4 L 298.6 159.4 Z M 323.8 159.4 C 323.8 159.4 323.81 138.76 323.8 138.8 C 323.8 136.7 323.1 135.7 321.6 135.7 C 319.9 135.7 318.4 137.6 317.7 139.5 C 317.69 139.48 317.7 159.4 317.7 159.4 L 310.9 159.4 L 310.9 130.4 L 317.7 130.4 C 317.7 130.4 317.69 134.2 317.7 134.2 C 318.8 131.9 321.8 129.7 324.5 129.7 C 328.9 129.7 330.7 132.3 330.7 136.3 C 330.65 136.3 330.7 159.4 330.7 159.4 L 323.8 159.4 Z M 335 144.9 C 335 136.5 338.6 129.7 345.8 129.7 C 353.2 129.7 356.2 136.2 356.2 144.8 C 356.21 144.76 356.2 147.1 356.2 147.1 C 356.2 147.1 341.51 147.1 341.5 147.1 C 341.6 151.4 343.4 154.6 347.2 154.6 C 348.8 154.6 350.7 153.5 352 151.7 C 352 151.7 355.3 155.5 355.3 155.5 C 353 158.4 349.8 160.1 346.5 160.1 C 338.9 160.1 335 153.8 335 144.9 Z M 345.7 135.2 C 342.4 135.2 341.5 139.3 341.5 142.4 C 341.5 142.4 349.7 142.4 349.7 142.4 C 349.7 139.1 349 135.2 345.7 135.2 Z M 373.4 159.4 C 373.4 159.4 373.43 155.8 373.4 155.8 C 372.2 158.7 369.8 160.1 367.8 160.1 C 362.1 160.1 359.2 154.2 359.2 144.9 C 359.2 135.8 362.1 129.7 367.8 129.7 C 369.8 129.7 372.2 131 373.4 134 C 373.43 134.02 373.4 119.4 373.4 119.4 L 380.2 119.4 L 380.2 159.4 L 373.4 159.4 Z M 373.4 150.6 C 373.4 150.6 373.4 139.2 373.4 139.2 C 372.8 137.3 371.5 135.7 370 135.7 C 367 135.7 366.2 139.8 366.2 144.9 C 366.2 150 367 154.1 370 154.1 C 371.5 154.1 372.8 152.6 373.4 150.6 Z M 395.9 159.4 L 395.9 119.4 L 413.4 119.4 L 413.4 126 L 403.4 126 L 403.4 135.7 L 413 135.7 L 413 142.4 L 403.4 142.4 L 403.4 159.4 L 395.9 159.4 Z M 416.9 144.9 C 416.9 136.8 420.2 129.7 427.8 129.7 C 435.4 129.7 438.7 136.8 438.7 144.9 C 438.7 152.9 435.4 160.1 427.8 160.1 C 420.2 160.1 416.9 152.9 416.9 144.9 Z M 431.7 144.9 C 431.7 140 430.9 135.7 427.8 135.7 C 424.8 135.7 424 140 424 144.9 C 424 149.9 424.8 154.1 427.8 154.1 C 430.9 154.1 431.7 149.9 431.7 144.9 Z M 455.7 159.4 C 455.7 159.4 455.69 156.64 455.7 156.6 C 454.4 158.9 451.7 160.1 449.6 160.1 C 445.1 160.1 441.8 156.4 441.8 150.5 C 441.8 144.6 445.1 141 449.6 141 C 451.7 141 454.5 142.1 455.7 144.3 C 455.7 144.3 455.7 140.7 455.7 140.7 C 455.7 137.4 454.4 135.5 451.3 135.5 C 449.4 135.5 447.4 136.4 445.4 138.3 C 445.4 138.3 442.9 133.5 442.9 133.5 C 445.6 130.7 449.7 129.7 452.7 129.7 C 458.6 129.7 462.5 132.7 462.5 139.2 C 462.47 139.18 462.5 159.4 462.5 159.4 L 455.7 159.4 Z M 455.7 152.6 C 455.7 152.6 455.7 148.7 455.7 148.7 C 455 146.9 453.5 145.7 452 145.7 C 449.7 145.7 448.6 147.8 448.6 150.6 C 448.6 153.3 449.7 155.6 452 155.6 C 453.5 155.6 455 154.4 455.7 152.6 Z M 493.9 159.4 C 493.9 159.4 493.85 138.76 493.9 138.8 C 493.9 136.6 493.1 135.7 491.6 135.7 C 489.8 135.7 488.3 137.7 487.7 139.5 C 487.73 139.48 487.7 159.4 487.7 159.4 L 480.9 159.4 C 480.9 159.4 480.89 138.76 480.9 138.8 C 480.9 136.8 480.2 135.7 478.7 135.7 C 476.9 135.7 475.4 137.7 474.8 139.5 C 474.77 139.48 474.8 159.4 474.8 159.4 L 468 159.4 L 468 130.4 L 474.8 130.4 C 474.8 130.4 474.77 134.2 474.8 134.2 C 475.8 132 478.8 129.7 481.6 129.7 C 484.6 129.7 487 131.2 487.5 134.5 C 488.6 132.1 491.6 129.7 494.5 129.7 C 498.1 129.7 500.6 131.6 500.6 136.3 C 500.63 136.3 500.6 159.4 500.6 159.4 L 493.9 159.4 Z " stroke="none" fill="#e9e8e8"/>  </g>  <g id="Polygon233622">    <path d="M 3.1 103.4 L 3.1 63.4 C 3.1 63.4 13.92 63.38 13.9 63.4 C 21.7 63.4 25.2 69.3 25.2 76 C 25.2 82.8 21.7 88.7 13.9 88.7 C 13.92 88.7 10.7 88.7 10.7 88.7 L 10.7 103.4 L 3.1 103.4 Z M 17.5 76 C 17.5 72.4 16 70 13.1 70 C 13.14 70.04 10.7 70 10.7 70 L 10.7 82 C 10.7 82 13.14 82.04 13.1 82 C 16 82 17.5 79.6 17.5 76 Z M 42.1 103.4 C 42.1 103.4 42.12 99.74 42.1 99.7 C 41 102.1 38.2 104.1 35.3 104.1 C 31 104.1 29.2 101.7 29.2 97.6 C 29.22 97.58 29.2 74.4 29.2 74.4 L 36 74.4 C 36 74.4 36 95.18 36 95.2 C 36 97.2 36.7 98.1 38.2 98.1 C 40 98.1 41.5 96.3 42.1 94.5 C 42.12 94.46 42.1 74.4 42.1 74.4 L 49 74.4 L 49 103.4 L 42.1 103.4 Z M 54.4 103.4 L 54.4 63.4 L 61.2 63.4 L 61.2 103.4 L 54.4 103.4 Z M 73.4 99.8 C 73.44 99.8 73.4 114.4 73.4 114.4 L 66.7 114.4 L 66.7 74.4 L 73.4 74.4 C 73.4 74.4 73.44 78.02 73.4 78 C 74.7 75.1 77 73.7 79.1 73.7 C 84.8 73.7 87.7 79.6 87.7 88.9 C 87.7 98 84.8 104.1 79.1 104.1 C 77 104.1 74.6 102.8 73.4 99.8 Z M 80.7 88.9 C 80.7 83.8 79.9 79.7 76.9 79.7 C 75.4 79.7 74 81.1 73.4 83.1 C 73.4 83.1 73.4 94.6 73.4 94.6 C 74 96.6 75.4 98.1 76.9 98.1 C 79.9 98.1 80.7 94 80.7 88.9 Z M 102.2 103.4 L 102.2 63.4 C 102.2 63.4 112.98 63.38 113 63.4 C 120.8 63.4 124.3 69.3 124.3 76 C 124.3 82.8 120.8 88.7 113 88.7 C 112.98 88.7 109.7 88.7 109.7 88.7 L 109.7 103.4 L 102.2 103.4 Z M 116.6 76 C 116.6 72.4 115 70 112.2 70 C 112.2 70.04 109.7 70 109.7 70 L 109.7 82 C 109.7 82 112.2 82.04 112.2 82 C 115 82 116.6 79.6 116.6 76 Z M 140 103.4 C 140 103.4 139.98 100.64 140 100.6 C 138.7 102.9 136 104.1 133.9 104.1 C 129.4 104.1 126.1 100.4 126.1 94.5 C 126.1 88.6 129.4 85 133.9 85 C 136 85 138.8 86.1 140 88.3 C 140 88.3 140 84.7 140 84.7 C 140 81.4 138.7 79.5 135.6 79.5 C 133.7 79.5 131.6 80.4 129.7 82.3 C 129.7 82.3 127.2 77.5 127.2 77.5 C 129.8 74.7 134 73.7 137 73.7 C 142.9 73.7 146.8 76.7 146.8 83.2 C 146.76 83.18 146.8 103.4 146.8 103.4 L 140 103.4 Z M 140 96.6 C 140 96.6 140 92.7 140 92.7 C 139.3 90.9 137.8 89.7 136.3 89.7 C 134 89.7 132.8 91.8 132.8 94.6 C 132.8 97.3 134 99.6 136.3 99.6 C 137.8 99.6 139.3 98.4 140 96.6 Z M 153.2 96.7 C 153.18 96.74 153.2 80.3 153.2 80.3 L 150.5 80.3 L 150.5 74.4 L 153.2 74.4 L 153.2 66.5 L 160 66.5 L 160 74.4 L 163.6 74.4 L 163.6 80.3 L 160 80.3 C 160 80.3 159.96 95.42 160 95.4 C 160 97.2 160.4 98.1 161.6 98.1 C 162.2 98.1 162.8 97.8 163.2 97.3 C 163.2 97.3 164.6 102.6 164.6 102.6 C 163.6 103.5 161.9 104.1 159.8 104.1 C 155.1 104.1 153.2 101.7 153.2 96.7 Z M 168.7 96.7 C 168.66 96.74 168.7 80.3 168.7 80.3 L 166 80.3 L 166 74.4 L 168.7 74.4 L 168.7 66.5 L 175.4 66.5 L 175.4 74.4 L 179.1 74.4 L 179.1 80.3 L 175.4 80.3 C 175.4 80.3 175.44 95.42 175.4 95.4 C 175.4 97.2 175.9 98.1 177.1 98.1 C 177.7 98.1 178.3 97.8 178.7 97.3 C 178.7 97.3 180.1 102.6 180.1 102.6 C 179 103.5 177.4 104.1 175.3 104.1 C 170.6 104.1 168.7 101.7 168.7 96.7 Z M 183.8 108.9 C 184.3 109 184.9 109.2 185.2 109.2 C 186.5 109.2 187.2 108.6 187.6 107.1 C 187.62 107.12 188.5 104.1 188.5 104.1 L 180.6 74.4 L 187.8 74.4 L 191.9 94.8 L 196.1 74.4 L 203.2 74.4 C 203.2 74.4 194.1 108.5 194.1 108.5 C 192.7 113.8 190.3 115.2 186.1 115.2 C 185.2 115.2 183.5 115 182.9 114.7 C 182.9 114.7 183.8 108.9 183.8 108.9 Z M 206.9 111.4 C 206.9 111.4 203.9 109 203.9 109 C 205.8 107.9 207.9 105.4 208.3 103.3 C 208.2 103.4 207.7 103.5 207.3 103.5 C 205.2 103.5 203.5 101.8 203.5 99.6 C 203.5 97.2 205.4 95.2 207.8 95.2 C 210.4 95.2 212.7 97.3 212.7 100.9 C 212.7 105.2 210.4 109 206.9 111.4 Z M 251.6 103.4 L 251.6 79.8 L 244.9 103.4 L 242.4 103.4 L 235.9 79.8 L 235.9 103.4 L 228.3 103.4 L 228.3 63.4 L 237.9 63.4 L 243.7 83.8 L 249.6 63.4 L 259 63.4 L 259 103.4 L 251.6 103.4 Z M 263.8 88.9 C 263.8 80.5 267.4 73.7 274.6 73.7 C 281.9 73.7 285 80.2 285 88.8 C 285 88.76 285 91.1 285 91.1 C 285 91.1 270.3 91.1 270.3 91.1 C 270.4 95.4 272.2 98.6 276 98.6 C 277.6 98.6 279.5 97.5 280.8 95.7 C 280.8 95.7 284.1 99.5 284.1 99.5 C 281.8 102.4 278.6 104.1 275.3 104.1 C 267.7 104.1 263.8 97.8 263.8 88.9 Z M 274.4 79.2 C 271.1 79.2 270.3 83.3 270.3 86.4 C 270.3 86.4 278.5 86.4 278.5 86.4 C 278.5 83.1 277.7 79.2 274.4 79.2 Z M 289.1 103.4 L 289.1 63.4 L 295.9 63.4 L 295.9 103.4 L 289.1 103.4 Z M 302.3 96.7 C 302.27 96.74 302.3 80.3 302.3 80.3 L 299.6 80.3 L 299.6 74.4 L 302.3 74.4 L 302.3 66.5 L 309.1 66.5 L 309.1 74.4 L 312.7 74.4 L 312.7 80.3 L 309.1 80.3 C 309.1 80.3 309.05 95.42 309.1 95.4 C 309.1 97.2 309.5 98.1 310.7 98.1 C 311.3 98.1 311.9 97.8 312.3 97.3 C 312.3 97.3 313.7 102.6 313.7 102.6 C 312.7 103.5 311 104.1 308.9 104.1 C 304.2 104.1 302.3 101.7 302.3 96.7 Z M 315.7 88.9 C 315.7 80.5 319.3 73.7 326.6 73.7 C 333.9 73.7 337 80.2 337 88.8 C 336.95 88.76 337 91.1 337 91.1 C 337 91.1 322.25 91.1 322.3 91.1 C 322.3 95.4 324.1 98.6 328 98.6 C 329.6 98.6 331.4 97.5 332.8 95.7 C 332.8 95.7 336.1 99.5 336.1 99.5 C 333.8 102.4 330.5 104.1 327.2 104.1 C 319.7 104.1 315.7 97.8 315.7 88.9 Z M 326.4 79.2 C 323.1 79.2 322.3 83.3 322.3 86.4 C 322.3 86.4 330.4 86.4 330.4 86.4 C 330.4 83.1 329.7 79.2 326.4 79.2 Z M 354.2 103.4 C 354.2 103.4 354.17 99.8 354.2 99.8 C 352.9 102.7 350.6 104.1 348.5 104.1 C 342.8 104.1 340 98.2 340 88.9 C 340 79.8 342.8 73.7 348.5 73.7 C 350.6 73.7 353 75 354.2 78 C 354.17 78.02 354.2 63.4 354.2 63.4 L 361 63.4 L 361 103.4 L 354.2 103.4 Z M 354.2 94.6 C 354.2 94.6 354.2 83.2 354.2 83.2 C 353.6 81.3 352.2 79.7 350.8 79.7 C 347.8 79.7 346.9 83.8 346.9 88.9 C 346.9 94 347.8 98.1 350.8 98.1 C 352.2 98.1 353.6 96.6 354.2 94.6 Z M 374.2 100.2 C 374.2 100.2 377.5 94.2 377.5 94.2 C 379.1 96.3 381.7 97.4 384.1 97.4 C 386.5 97.4 388.1 95.6 388.1 93 C 388.1 85.9 375.4 85.9 375.4 73.9 C 375.4 67.9 379.4 62.7 386.5 62.7 C 389.9 62.7 393 63.9 395.2 66 C 395.2 66 392.3 71.8 392.3 71.8 C 390.7 70.2 388.9 69.4 386.8 69.4 C 384.6 69.4 383 71.1 383 73.5 C 383 79.7 395.8 80.5 395.8 92.5 C 395.8 99.3 391.4 104.1 384.5 104.1 C 380.2 104.1 376.8 102.7 374.2 100.2 Z M 399.2 66.9 C 399.2 64.6 401.2 62.8 403.4 62.8 C 405.7 62.8 407.5 64.6 407.5 66.9 C 407.5 69.2 405.7 71 403.4 71 C 401.2 71 399.2 69.2 399.2 66.9 Z M 400 103.4 L 400 74.4 L 406.8 74.4 L 406.8 103.4 L 400 103.4 Z M 412.3 103.4 L 412.3 63.4 L 419 63.4 L 419 103.4 L 412.3 103.4 Z M 423.7 66.9 C 423.7 64.6 425.6 62.8 427.9 62.8 C 430.1 62.8 432 64.6 432 66.9 C 432 69.2 430.1 71 427.9 71 C 425.6 71 423.7 69.2 423.7 66.9 Z M 424.5 103.4 L 424.5 74.4 L 431.3 74.4 L 431.3 103.4 L 424.5 103.4 Z M 435.6 88.9 C 435.6 80.1 439.7 73.7 446.6 73.7 C 449.9 73.7 452.3 74.9 453.7 76.3 C 453.7 76.3 451.5 81.6 451.5 81.6 C 450.3 80.3 449.2 79.7 447.8 79.7 C 444.3 79.7 442.6 83.8 442.6 88.9 C 442.6 93.9 444.3 98.1 447.8 98.1 C 449.2 98.1 450.3 97.5 451.5 96.3 C 451.5 96.3 453.7 101.5 453.7 101.5 C 452.3 103 449.9 104.1 446.6 104.1 C 439.7 104.1 435.6 97.7 435.6 88.9 Z M 456.2 88.9 C 456.2 80.8 459.5 73.7 467.1 73.7 C 474.7 73.7 478 80.8 478 88.9 C 478 96.9 474.7 104.1 467.1 104.1 C 459.5 104.1 456.2 96.9 456.2 88.9 Z M 471 88.9 C 471 84 470.2 79.7 467.1 79.7 C 464.1 79.7 463.3 84 463.3 88.9 C 463.3 93.9 464.1 98.1 467.1 98.1 C 470.2 98.1 471 93.9 471 88.9 Z M 495.3 103.4 C 495.3 103.4 495.29 82.76 495.3 82.8 C 495.3 80.7 494.6 79.7 493.1 79.7 C 491.3 79.7 489.8 81.6 489.2 83.5 C 489.17 83.48 489.2 103.4 489.2 103.4 L 482.4 103.4 L 482.4 74.4 L 489.2 74.4 C 489.2 74.4 489.17 78.2 489.2 78.2 C 490.3 75.9 493.3 73.7 496 73.7 C 500.3 73.7 502.1 76.3 502.1 80.3 C 502.13 80.3 502.1 103.4 502.1 103.4 L 495.3 103.4 Z M 506.5 88.9 C 506.5 80.5 510.1 73.7 517.3 73.7 C 524.6 73.7 527.7 80.2 527.7 88.8 C 527.69 88.76 527.7 91.1 527.7 91.1 C 527.7 91.1 512.99 91.1 513 91.1 C 513.1 95.4 514.9 98.6 518.7 98.6 C 520.3 98.6 522.2 97.5 523.5 95.7 C 523.5 95.7 526.8 99.5 526.8 99.5 C 524.5 102.4 521.3 104.1 518 104.1 C 510.4 104.1 506.5 97.8 506.5 88.9 Z M 517.1 79.2 C 513.8 79.2 513 83.3 513 86.4 C 513 86.4 521.2 86.4 521.2 86.4 C 521.2 83.1 520.4 79.2 517.1 79.2 Z " stroke="none" fill="#e9e8e8"/>  </g>  <g id="Polygon233621">    <path d="M 3.1 47.4 L 3.1 7.4 L 20.6 7.4 L 20.6 14 L 10.7 14 L 10.7 23.7 L 20.2 23.7 L 20.2 30.4 L 10.7 30.4 L 10.7 47.4 L 3.1 47.4 Z M 25.3 47.4 L 25.3 7.4 L 32.1 7.4 L 32.1 47.4 L 25.3 47.4 Z M 36.4 32.9 C 36.4 24.8 39.7 17.7 47.3 17.7 C 54.9 17.7 58.2 24.8 58.2 32.9 C 58.2 40.9 54.9 48.1 47.3 48.1 C 39.7 48.1 36.4 40.9 36.4 32.9 Z M 51.2 32.9 C 51.2 28 50.3 23.7 47.3 23.7 C 44.3 23.7 43.4 28 43.4 32.9 C 43.4 37.9 44.3 42.1 47.3 42.1 C 50.3 42.1 51.2 37.9 51.2 32.9 Z M 62.6 47.4 L 62.6 18.4 L 69.4 18.4 C 69.4 18.4 69.36 22.44 69.4 22.4 C 70.5 19.8 73.3 17.7 75.8 17.7 C 75.8 17.7 75.8 24.4 75.8 24.4 C 75.4 24.2 74.9 24.2 74.5 24.2 C 72.5 24.2 70.5 25.8 69.4 27.9 C 69.36 27.9 69.4 47.4 69.4 47.4 L 62.6 47.4 Z M 92 47.4 C 92 47.4 91.98 44.64 92 44.6 C 90.7 46.9 88 48.1 85.9 48.1 C 81.4 48.1 78.1 44.4 78.1 38.5 C 78.1 32.6 81.4 29 85.9 29 C 88 29 90.8 30.1 92 32.3 C 92 32.3 92 28.7 92 28.7 C 92 25.4 90.7 23.5 87.6 23.5 C 85.7 23.5 83.6 24.4 81.7 26.3 C 81.7 26.3 79.2 21.5 79.2 21.5 C 81.8 18.7 86 17.7 89 17.7 C 94.9 17.7 98.8 20.7 98.8 27.2 C 98.76 27.18 98.8 47.4 98.8 47.4 L 92 47.4 Z M 92 40.6 C 92 40.6 92 36.7 92 36.7 C 91.3 34.9 89.8 33.7 88.3 33.7 C 86 33.7 84.8 35.8 84.8 38.6 C 84.8 41.3 86 43.6 88.3 43.6 C 89.8 43.6 91.3 42.4 92 40.6 Z M 104.3 47.4 L 104.3 7.4 L 111.1 7.4 L 111.1 47.4 L 104.3 47.4 Z M 126.7 47.4 L 126.7 7.4 L 144.2 7.4 L 144.2 14 L 134.2 14 L 134.2 23.7 L 143.8 23.7 L 143.8 30.4 L 134.2 30.4 L 134.2 47.4 L 126.7 47.4 Z M 147.7 32.9 C 147.7 24.8 151 17.7 158.6 17.7 C 166.2 17.7 169.5 24.8 169.5 32.9 C 169.5 40.9 166.2 48.1 158.6 48.1 C 151 48.1 147.7 40.9 147.7 32.9 Z M 162.5 32.9 C 162.5 28 161.6 23.7 158.6 23.7 C 155.6 23.7 154.7 28 154.7 32.9 C 154.7 37.9 155.6 42.1 158.6 42.1 C 161.6 42.1 162.5 37.9 162.5 32.9 Z M 186.5 47.4 C 186.5 47.4 186.48 44.64 186.5 44.6 C 185.2 46.9 182.5 48.1 180.4 48.1 C 175.9 48.1 172.6 44.4 172.6 38.5 C 172.6 32.6 175.9 29 180.4 29 C 182.5 29 185.3 30.1 186.5 32.3 C 186.5 32.3 186.5 28.7 186.5 28.7 C 186.5 25.4 185.2 23.5 182.1 23.5 C 180.2 23.5 178.1 24.4 176.2 26.3 C 176.2 26.3 173.7 21.5 173.7 21.5 C 176.3 18.7 180.5 17.7 183.5 17.7 C 189.4 17.7 193.3 20.7 193.3 27.2 C 193.26 27.18 193.3 47.4 193.3 47.4 L 186.5 47.4 Z M 186.5 40.6 C 186.5 40.6 186.5 36.7 186.5 36.7 C 185.8 34.9 184.3 33.7 182.8 33.7 C 180.5 33.7 179.3 35.8 179.3 38.6 C 179.3 41.3 180.5 43.6 182.8 43.6 C 184.3 43.6 185.8 42.4 186.5 40.6 Z M 224.6 47.4 C 224.6 47.4 224.64 26.76 224.6 26.8 C 224.6 24.6 223.9 23.7 222.4 23.7 C 220.6 23.7 219.1 25.7 218.5 27.5 C 218.52 27.48 218.5 47.4 218.5 47.4 L 211.7 47.4 C 211.7 47.4 211.68 26.76 211.7 26.8 C 211.7 24.8 211 23.7 209.5 23.7 C 207.7 23.7 206.2 25.7 205.6 27.5 C 205.56 27.48 205.6 47.4 205.6 47.4 L 198.8 47.4 L 198.8 18.4 L 205.6 18.4 C 205.6 18.4 205.56 22.2 205.6 22.2 C 206.6 20 209.6 17.7 212.3 17.7 C 215.4 17.7 217.8 19.2 218.3 22.5 C 219.4 20.1 222.4 17.7 225.3 17.7 C 228.9 17.7 231.4 19.6 231.4 24.3 C 231.42 24.3 231.4 47.4 231.4 47.4 L 224.6 47.4 Z M 247.1 47.4 L 247.1 7.4 C 247.1 7.4 259.14 7.38 259.1 7.4 C 265.8 7.4 268.7 12.1 268.7 17.6 C 268.7 22.6 266.3 25.7 262.9 26.8 C 266.6 27.4 269.3 31.7 269.3 36.6 C 269.3 42.7 266.5 47.4 259.6 47.4 C 259.56 47.4 247.1 47.4 247.1 47.4 Z M 261 18.9 C 261 16 260 14 257.2 14 C 257.16 14.04 254.6 14 254.6 14 L 254.6 23.7 C 254.6 23.7 257.16 23.7 257.2 23.7 C 260 23.7 261 21.8 261 18.9 Z M 261.5 35.5 C 261.5 32.6 260.2 30.4 257.4 30.4 C 257.4 30.36 254.6 30.4 254.6 30.4 L 254.6 40.7 C 254.6 40.7 257.4 40.74 257.4 40.7 C 260.2 40.7 261.5 38.9 261.5 35.5 Z M 286.7 47.4 C 286.7 47.4 286.73 43.74 286.7 43.7 C 285.6 46.1 282.8 48.1 280 48.1 C 275.6 48.1 273.8 45.7 273.8 41.6 C 273.83 41.58 273.8 18.4 273.8 18.4 L 280.6 18.4 C 280.6 18.4 280.61 39.18 280.6 39.2 C 280.6 41.2 281.3 42.1 282.8 42.1 C 284.6 42.1 286.1 40.3 286.7 38.5 C 286.73 38.46 286.7 18.4 286.7 18.4 L 293.6 18.4 L 293.6 47.4 L 286.7 47.4 Z M 311.9 47.4 C 311.9 47.4 311.93 26.76 311.9 26.8 C 311.9 24.7 311.2 23.7 309.7 23.7 C 308 23.7 306.5 25.6 305.8 27.5 C 305.81 27.48 305.8 47.4 305.8 47.4 L 299 47.4 L 299 18.4 L 305.8 18.4 C 305.8 18.4 305.81 22.2 305.8 22.2 C 307 19.9 310 17.7 312.6 17.7 C 317 17.7 318.8 20.3 318.8 24.3 C 318.77 24.3 318.8 47.4 318.8 47.4 L 311.9 47.4 Z M 353.6 47.4 L 349.5 27.7 L 345.4 47.4 L 338.2 47.4 L 331.6 18.4 L 338.6 18.4 L 342.2 38.2 L 346 18.4 L 352.6 18.4 L 356.6 38.2 L 360.4 18.4 L 367.4 18.4 L 360.7 47.4 L 353.6 47.4 Z M 369.7 10.9 C 369.7 8.6 371.6 6.8 373.9 6.8 C 376.1 6.8 378 8.6 378 10.9 C 378 13.2 376.1 15 373.9 15 C 371.6 15 369.7 13.2 369.7 10.9 Z M 370.5 47.4 L 370.5 18.4 L 377.3 18.4 L 377.3 47.4 L 370.5 47.4 Z M 383.6 40.7 C 383.63 40.74 383.6 24.3 383.6 24.3 L 380.9 24.3 L 380.9 18.4 L 383.6 18.4 L 383.6 10.5 L 390.4 10.5 L 390.4 18.4 L 394.1 18.4 L 394.1 24.3 L 390.4 24.3 C 390.4 24.3 390.41 39.42 390.4 39.4 C 390.4 41.2 390.8 42.1 392 42.1 C 392.7 42.1 393.3 41.8 393.7 41.3 C 393.7 41.3 395 46.6 395 46.6 C 394 47.5 392.4 48.1 390.3 48.1 C 385.6 48.1 383.6 45.7 383.6 40.7 Z M 411.1 47.4 C 411.1 47.4 411.11 26.64 411.1 26.6 C 411.1 24.7 410.4 23.7 408.9 23.7 C 407.2 23.7 405.7 25.6 405 27.5 C 404.99 27.48 405 47.4 405 47.4 L 398.2 47.4 L 398.2 7.4 L 405 7.4 C 405 7.4 404.99 22.2 405 22.2 C 406.1 19.9 409.1 17.7 411.8 17.7 C 416.2 17.7 418 20.1 418 24.2 C 417.95 24.24 418 47.4 418 47.4 L 411.1 47.4 Z M 433.6 47.4 L 433.6 7.4 C 433.6 7.4 444.35 7.38 444.4 7.4 C 452.2 7.4 455.6 13.3 455.6 20 C 455.6 26.8 452.2 32.7 444.4 32.7 C 444.35 32.7 441.1 32.7 441.1 32.7 L 441.1 47.4 L 433.6 47.4 Z M 448 20 C 448 16.4 446.4 14 443.6 14 C 443.57 14.04 441.1 14 441.1 14 L 441.1 26 C 441.1 26 443.57 26.04 443.6 26 C 446.4 26 448 23.6 448 20 Z M 471.4 47.4 C 471.4 47.4 471.35 44.64 471.4 44.6 C 470.1 46.9 467.4 48.1 465.3 48.1 C 460.7 48.1 457.4 44.4 457.4 38.5 C 457.4 32.6 460.7 29 465.3 29 C 467.4 29 470.2 30.1 471.4 32.3 C 471.4 32.3 471.4 28.7 471.4 28.7 C 471.4 25.4 470 23.5 467 23.5 C 465.1 23.5 463 24.4 461.1 26.3 C 461.1 26.3 458.6 21.5 458.6 21.5 C 461.2 18.7 465.4 17.7 468.4 17.7 C 474.3 17.7 478.1 20.7 478.1 27.2 C 478.13 27.18 478.1 47.4 478.1 47.4 L 471.4 47.4 Z M 471.4 40.6 C 471.4 40.6 471.4 36.7 471.4 36.7 C 470.6 34.9 469.2 33.7 467.7 33.7 C 465.4 33.7 464.2 35.8 464.2 38.6 C 464.2 41.3 465.4 43.6 467.7 43.6 C 469.2 43.6 470.6 42.4 471.4 40.6 Z M 490.4 43.8 C 490.43 43.8 490.4 58.4 490.4 58.4 L 483.7 58.4 L 483.7 18.4 L 490.4 18.4 C 490.4 18.4 490.43 22.02 490.4 22 C 491.7 19.1 494 17.7 496.1 17.7 C 501.8 17.7 504.7 23.6 504.7 32.9 C 504.7 42 501.8 48.1 496.1 48.1 C 494 48.1 491.6 46.8 490.4 43.8 Z M 497.7 32.9 C 497.7 27.8 496.9 23.7 493.9 23.7 C 492.4 23.7 491 25.1 490.4 27.1 C 490.4 27.1 490.4 38.6 490.4 38.6 C 491 40.6 492.4 42.1 493.9 42.1 C 496.9 42.1 497.7 38 497.7 32.9 Z M 507.9 32.9 C 507.9 24.5 511.5 17.7 518.8 17.7 C 526.1 17.7 529.1 24.2 529.1 32.8 C 529.13 32.76 529.1 35.1 529.1 35.1 C 529.1 35.1 514.43 35.1 514.4 35.1 C 514.5 39.4 516.3 42.6 520.1 42.6 C 521.8 42.6 523.6 41.5 524.9 39.7 C 524.9 39.7 528.2 43.5 528.2 43.5 C 526 46.4 522.7 48.1 519.4 48.1 C 511.9 48.1 507.9 41.8 507.9 32.9 Z M 518.6 23.2 C 515.3 23.2 514.4 27.3 514.4 30.4 C 514.4 30.4 522.6 30.4 522.6 30.4 C 522.6 27.1 521.9 23.2 518.6 23.2 Z M 533.3 47.4 L 533.3 18.4 L 540.1 18.4 C 540.1 18.4 540.05 22.44 540.1 22.4 C 541.2 19.8 544 17.7 546.5 17.7 C 546.5 17.7 546.5 24.4 546.5 24.4 C 546.1 24.2 545.6 24.2 545.2 24.2 C 543.2 24.2 541.2 25.8 540.1 27.9 C 540.05 27.9 540.1 47.4 540.1 47.4 L 533.3 47.4 Z " stroke="none" fill="#e9e8e8"/>  </g></svg>