<?xml version="1.0" standalone="no"?><!DOCTYPE svg PUBLIC "-//W3C//DTD SVG 1.1//EN" "http://www.w3.org/Graphics/SVG/1.1/DTD/svg11.dtd"><svg xmlns="http://www.w3.org/2000/svg" version="1.1" width="219px" height="581.3px" viewBox="0 0 219 581.3">  <desc>400 g 120 g 250 g 5 5 cm sheet 2 sheets 30 ml as needed as needed as needed as needed</desc>  <defs/>  <g id="Polygon151082">    <path d="M 9.4 464.7 C 9.4 464.7 9.42 463.14 9.4 463.1 C 8.5 464.5 7.1 465.1 5.6 465.1 C 3.3 465.1 1.2 463.3 1.2 460.2 C 1.2 457.2 3.2 455.5 5.6 455.5 C 7.1 455.5 8.5 456 9.4 457.3 C 9.4 457.3 9.4 454.8 9.4 454.8 C 9.4 452.8 8.3 451.7 6.4 451.7 C 5.1 451.7 3.9 452.2 2.8 453.5 C 2.8 453.5 1.9 452 1.9 452 C 3.2 450.5 4.9 449.9 6.8 449.9 C 9.7 449.9 11.6 451.3 11.6 454.6 C 11.58 454.56 11.6 464.7 11.6 464.7 L 9.4 464.7 Z M 9.4 461.7 C 9.4 461.7 9.4 458.9 9.4 458.9 C 8.8 457.7 7.6 457.1 6.3 457.1 C 4.5 457.1 3.4 458.5 3.4 460.3 C 3.4 462.1 4.5 463.5 6.3 463.5 C 7.6 463.5 8.8 462.9 9.4 461.7 Z M 14.3 463 C 14.3 463 15.4 461.5 15.4 461.5 C 16.3 462.5 17.6 463.3 19.2 463.3 C 20.9 463.3 22 462.4 22 461 C 22 457.6 14.8 458.8 14.8 453.8 C 14.8 451.6 16.5 449.9 19.4 449.9 C 21.3 449.9 22.8 450.6 23.8 451.7 C 23.8 451.7 22.8 453.2 22.8 453.2 C 22 452.2 20.8 451.6 19.4 451.6 C 17.8 451.6 16.8 452.5 16.8 453.7 C 16.8 456.8 24.1 455.7 24.1 460.9 C 24.1 463.3 22.2 465.1 19.2 465.1 C 17.2 465.1 15.5 464.4 14.3 463 Z M 41.4 464.7 C 41.4 464.7 41.4 454.38 41.4 454.4 C 41.4 452.5 40.5 451.8 39.1 451.8 C 37.7 451.8 36.4 452.9 35.7 454.1 C 35.7 454.08 35.7 464.7 35.7 464.7 L 33.6 464.7 L 33.6 450.2 L 35.7 450.2 C 35.7 450.2 35.7 452.28 35.7 452.3 C 36.5 451 38.2 449.9 39.9 449.9 C 42.4 449.9 43.6 451.2 43.6 453.8 C 43.56 453.78 43.6 464.7 43.6 464.7 L 41.4 464.7 Z M 46.8 457.4 C 46.8 453.2 49 449.9 52.7 449.9 C 56.5 449.9 58.4 453.3 58.4 457.5 C 58.41 457.5 58.4 458.2 58.4 458.2 C 58.4 458.2 49.02 458.16 49 458.2 C 49.1 461.1 50.6 463.3 53.2 463.3 C 54.4 463.3 55.7 462.6 56.6 461.5 C 56.6 461.5 57.8 462.8 57.8 462.8 C 56.6 464.2 55 465.1 53 465.1 C 49.1 465.1 46.8 461.9 46.8 457.4 Z M 52.6 451.7 C 50.1 451.7 49.1 454.4 49 456.6 C 49 456.6 56.3 456.6 56.3 456.6 C 56.2 454.4 55.3 451.7 52.6 451.7 Z M 60.8 457.4 C 60.8 453.2 63.1 449.9 66.7 449.9 C 70.5 449.9 72.4 453.3 72.4 457.5 C 72.45 457.5 72.4 458.2 72.4 458.2 C 72.4 458.2 63.06 458.16 63.1 458.2 C 63.1 461.1 64.6 463.3 67.2 463.3 C 68.5 463.3 69.8 462.6 70.7 461.5 C 70.7 461.5 71.8 462.8 71.8 462.8 C 70.6 464.2 69 465.1 67 465.1 C 63.2 465.1 60.8 461.9 60.8 457.4 Z M 66.7 451.7 C 64.1 451.7 63.1 454.4 63.1 456.6 C 63.1 456.6 70.3 456.6 70.3 456.6 C 70.3 454.4 69.3 451.7 66.7 451.7 Z M 83.9 464.7 C 83.9 464.7 83.88 462.63 83.9 462.6 C 83 464.1 81.6 465.1 80.1 465.1 C 76.8 465.1 74.9 462 74.9 457.5 C 74.9 453 76.8 449.9 80.1 449.9 C 81.5 449.9 83 450.7 83.9 452.3 C 83.88 452.31 83.9 444.7 83.9 444.7 L 86 444.7 L 86 464.7 L 83.9 464.7 Z M 83.9 460.8 C 83.9 460.8 83.9 454.1 83.9 454.1 C 83.3 452.9 82 451.8 80.6 451.8 C 78.2 451.8 77.1 454.3 77.1 457.5 C 77.1 460.6 78.2 463.1 80.6 463.1 C 82 463.1 83.3 462.1 83.9 460.8 Z M 89.3 457.4 C 89.3 453.2 91.5 449.9 95.2 449.9 C 99 449.9 100.9 453.3 100.9 457.5 C 100.89 457.5 100.9 458.2 100.9 458.2 C 100.9 458.2 91.5 458.16 91.5 458.2 C 91.6 461.1 93.1 463.3 95.7 463.3 C 96.9 463.3 98.2 462.6 99.1 461.5 C 99.1 461.5 100.3 462.8 100.3 462.8 C 99.1 464.2 97.4 465.1 95.5 465.1 C 91.6 465.1 89.3 461.9 89.3 457.4 Z M 95.1 451.7 C 92.6 451.7 91.6 454.4 91.5 456.6 C 91.5 456.6 98.8 456.6 98.8 456.6 C 98.7 454.4 97.8 451.7 95.1 451.7 Z M 112.3 464.7 C 112.3 464.7 112.32 462.63 112.3 462.6 C 111.5 464.1 110 465.1 108.5 465.1 C 105.3 465.1 103.3 462 103.3 457.5 C 103.3 453 105.2 449.9 108.5 449.9 C 110 449.9 111.4 450.7 112.3 452.3 C 112.32 452.31 112.3 444.7 112.3 444.7 L 114.5 444.7 L 114.5 464.7 L 112.3 464.7 Z M 112.3 460.8 C 112.3 460.8 112.3 454.1 112.3 454.1 C 111.8 452.9 110.4 451.8 109 451.8 C 106.7 451.8 105.6 454.3 105.6 457.5 C 105.6 460.6 106.7 463.1 109 463.1 C 110.4 463.1 111.8 462.1 112.3 460.8 Z " stroke="none" fill="#d0d1d4"/>  </g>  <g id="Polygon151081">    <path d="M 9.4 320.7 C 9.4 320.7 9.42 319.14 9.4 319.1 C 8.5 320.5 7.1 321.1 5.6 321.1 C 3.3 321.1 1.2 319.3 1.2 316.2 C 1.2 313.2 3.2 311.5 5.6 311.5 C 7.1 311.5 8.5 312 9.4 313.3 C 9.4 313.3 9.4 310.8 9.4 310.8 C 9.4 308.8 8.3 307.7 6.4 307.7 C 5.1 307.7 3.9 308.2 2.8 309.5 C 2.8 309.5 1.9 308 1.9 308 C 3.2 306.5 4.9 305.9 6.8 305.9 C 9.7 305.9 11.6 307.3 11.6 310.6 C 11.58 310.56 11.6 320.7 11.6 320.7 L 9.4 320.7 Z M 9.4 317.7 C 9.4 317.7 9.4 314.9 9.4 314.9 C 8.8 313.7 7.6 313.1 6.3 313.1 C 4.5 313.1 3.4 314.5 3.4 316.3 C 3.4 318.1 4.5 319.5 6.3 319.5 C 7.6 319.5 8.8 318.9 9.4 317.7 Z M 14.3 319 C 14.3 319 15.4 317.5 15.4 317.5 C 16.3 318.5 17.6 319.3 19.2 319.3 C 20.9 319.3 22 318.4 22 317 C 22 313.6 14.8 314.8 14.8 309.8 C 14.8 307.6 16.5 305.9 19.4 305.9 C 21.3 305.9 22.8 306.6 23.8 307.7 C 23.8 307.7 22.8 309.2 22.8 309.2 C 22 308.2 20.8 307.6 19.4 307.6 C 17.8 307.6 16.8 308.5 16.8 309.7 C 16.8 312.8 24.1 311.7 24.1 316.9 C 24.1 319.3 22.2 321.1 19.2 321.1 C 17.2 321.1 15.5 320.4 14.3 319 Z M 41.4 320.7 C 41.4 320.7 41.4 310.38 41.4 310.4 C 41.4 308.5 40.5 307.8 39.1 307.8 C 37.7 307.8 36.4 308.9 35.7 310.1 C 35.7 310.08 35.7 320.7 35.7 320.7 L 33.6 320.7 L 33.6 306.2 L 35.7 306.2 C 35.7 306.2 35.7 308.28 35.7 308.3 C 36.5 307 38.2 305.9 39.9 305.9 C 42.4 305.9 43.6 307.2 43.6 309.8 C 43.56 309.78 43.6 320.7 43.6 320.7 L 41.4 320.7 Z M 46.8 313.4 C 46.8 309.2 49 305.9 52.7 305.9 C 56.5 305.9 58.4 309.3 58.4 313.5 C 58.41 313.5 58.4 314.2 58.4 314.2 C 58.4 314.2 49.02 314.16 49 314.2 C 49.1 317.1 50.6 319.3 53.2 319.3 C 54.4 319.3 55.7 318.6 56.6 317.5 C 56.6 317.5 57.8 318.8 57.8 318.8 C 56.6 320.2 55 321.1 53 321.1 C 49.1 321.1 46.8 317.9 46.8 313.4 Z M 52.6 307.7 C 50.1 307.7 49.1 310.4 49 312.6 C 49 312.6 56.3 312.6 56.3 312.6 C 56.2 310.4 55.3 307.7 52.6 307.7 Z M 60.8 313.4 C 60.8 309.2 63.1 305.9 66.7 305.9 C 70.5 305.9 72.4 309.3 72.4 313.5 C 72.45 313.5 72.4 314.2 72.4 314.2 C 72.4 314.2 63.06 314.16 63.1 314.2 C 63.1 317.1 64.6 319.3 67.2 319.3 C 68.5 319.3 69.8 318.6 70.7 317.5 C 70.7 317.5 71.8 318.8 71.8 318.8 C 70.6 320.2 69 321.1 67 321.1 C 63.2 321.1 60.8 317.9 60.8 313.4 Z M 66.7 307.7 C 64.1 307.7 63.1 310.4 63.1 312.6 C 63.1 312.6 70.3 312.6 70.3 312.6 C 70.3 310.4 69.3 307.7 66.7 307.7 Z M 83.9 320.7 C 83.9 320.7 83.88 318.63 83.9 318.6 C 83 320.1 81.6 321.1 80.1 321.1 C 76.8 321.1 74.9 318 74.9 313.5 C 74.9 309 76.8 305.9 80.1 305.9 C 81.5 305.9 83 306.7 83.9 308.3 C 83.88 308.31 83.9 300.7 83.9 300.7 L 86 300.7 L 86 320.7 L 83.9 320.7 Z M 83.9 316.8 C 83.9 316.8 83.9 310.1 83.9 310.1 C 83.3 308.9 82 307.8 80.6 307.8 C 78.2 307.8 77.1 310.3 77.1 313.5 C 77.1 316.6 78.2 319.1 80.6 319.1 C 82 319.1 83.3 318.1 83.9 316.8 Z M 89.3 313.4 C 89.3 309.2 91.5 305.9 95.2 305.9 C 99 305.9 100.9 309.3 100.9 313.5 C 100.89 313.5 100.9 314.2 100.9 314.2 C 100.9 314.2 91.5 314.16 91.5 314.2 C 91.6 317.1 93.1 319.3 95.7 319.3 C 96.9 319.3 98.2 318.6 99.1 317.5 C 99.1 317.5 100.3 318.8 100.3 318.8 C 99.1 320.2 97.4 321.1 95.5 321.1 C 91.6 321.1 89.3 317.9 89.3 313.4 Z M 95.1 307.7 C 92.6 307.7 91.6 310.4 91.5 312.6 C 91.5 312.6 98.8 312.6 98.8 312.6 C 98.7 310.4 97.8 307.7 95.1 307.7 Z M 112.3 320.7 C 112.3 320.7 112.32 318.63 112.3 318.6 C 111.5 320.1 110 321.1 108.5 321.1 C 105.3 321.1 103.3 318 103.3 313.5 C 103.3 309 105.2 305.9 108.5 305.9 C 110 305.9 111.4 306.7 112.3 308.3 C 112.32 308.31 112.3 300.7 112.3 300.7 L 114.5 300.7 L 114.5 320.7 L 112.3 320.7 Z M 112.3 316.8 C 112.3 316.8 112.3 310.1 112.3 310.1 C 111.8 308.9 110.4 307.8 109 307.8 C 106.7 307.8 105.6 310.3 105.6 313.5 C 105.6 316.6 106.7 319.1 109 319.1 C 110.4 319.1 111.8 318.1 112.3 316.8 Z " stroke="none" fill="#d0d1d4"/>  </g>  <g id="Polygon151080">    <path d="M 9.4 284.7 C 9.4 284.7 9.42 283.14 9.4 283.1 C 8.5 284.5 7.1 285.1 5.6 285.1 C 3.3 285.1 1.2 283.3 1.2 280.2 C 1.2 277.2 3.2 275.5 5.6 275.5 C 7.1 275.5 8.5 276 9.4 277.3 C 9.4 277.3 9.4 274.8 9.4 274.8 C 9.4 272.8 8.3 271.7 6.4 271.7 C 5.1 271.7 3.9 272.2 2.8 273.5 C 2.8 273.5 1.9 272 1.9 272 C 3.2 270.5 4.9 269.9 6.8 269.9 C 9.7 269.9 11.6 271.3 11.6 274.6 C 11.58 274.56 11.6 284.7 11.6 284.7 L 9.4 284.7 Z M 9.4 281.7 C 9.4 281.7 9.4 278.9 9.4 278.9 C 8.8 277.7 7.6 277.1 6.3 277.1 C 4.5 277.1 3.4 278.5 3.4 280.3 C 3.4 282.1 4.5 283.5 6.3 283.5 C 7.6 283.5 8.8 282.9 9.4 281.7 Z M 14.3 283 C 14.3 283 15.4 281.5 15.4 281.5 C 16.3 282.5 17.6 283.3 19.2 283.3 C 20.9 283.3 22 282.4 22 281 C 22 277.6 14.8 278.8 14.8 273.8 C 14.8 271.6 16.5 269.9 19.4 269.9 C 21.3 269.9 22.8 270.6 23.8 271.7 C 23.8 271.7 22.8 273.2 22.8 273.2 C 22 272.2 20.8 271.6 19.4 271.6 C 17.8 271.6 16.8 272.5 16.8 273.7 C 16.8 276.8 24.1 275.7 24.1 280.9 C 24.1 283.3 22.2 285.1 19.2 285.1 C 17.2 285.1 15.5 284.4 14.3 283 Z M 41.4 284.7 C 41.4 284.7 41.4 274.38 41.4 274.4 C 41.4 272.5 40.5 271.8 39.1 271.8 C 37.7 271.8 36.4 272.9 35.7 274.1 C 35.7 274.08 35.7 284.7 35.7 284.7 L 33.6 284.7 L 33.6 270.2 L 35.7 270.2 C 35.7 270.2 35.7 272.28 35.7 272.3 C 36.5 271 38.2 269.9 39.9 269.9 C 42.4 269.9 43.6 271.2 43.6 273.8 C 43.56 273.78 43.6 284.7 43.6 284.7 L 41.4 284.7 Z M 46.8 277.4 C 46.8 273.2 49 269.9 52.7 269.9 C 56.5 269.9 58.4 273.3 58.4 277.5 C 58.41 277.5 58.4 278.2 58.4 278.2 C 58.4 278.2 49.02 278.16 49 278.2 C 49.1 281.1 50.6 283.3 53.2 283.3 C 54.4 283.3 55.7 282.6 56.6 281.5 C 56.6 281.5 57.8 282.8 57.8 282.8 C 56.6 284.2 55 285.1 53 285.1 C 49.1 285.1 46.8 281.9 46.8 277.4 Z M 52.6 271.7 C 50.1 271.7 49.1 274.4 49 276.6 C 49 276.6 56.3 276.6 56.3 276.6 C 56.2 274.4 55.3 271.7 52.6 271.7 Z M 60.8 277.4 C 60.8 273.2 63.1 269.9 66.7 269.9 C 70.5 269.9 72.4 273.3 72.4 277.5 C 72.45 277.5 72.4 278.2 72.4 278.2 C 72.4 278.2 63.06 278.16 63.1 278.2 C 63.1 281.1 64.6 283.3 67.2 283.3 C 68.5 283.3 69.8 282.6 70.7 281.5 C 70.7 281.5 71.8 282.8 71.8 282.8 C 70.6 284.2 69 285.1 67 285.1 C 63.2 285.1 60.8 281.9 60.8 277.4 Z M 66.7 271.7 C 64.1 271.7 63.1 274.4 63.1 276.6 C 63.1 276.6 70.3 276.6 70.3 276.6 C 70.3 274.4 69.3 271.7 66.7 271.7 Z M 83.9 284.7 C 83.9 284.7 83.88 282.63 83.9 282.6 C 83 284.1 81.6 285.1 80.1 285.1 C 76.8 285.1 74.9 282 74.9 277.5 C 74.9 273 76.8 269.9 80.1 269.9 C 81.5 269.9 83 270.7 83.9 272.3 C 83.88 272.31 83.9 264.7 83.9 264.7 L 86 264.7 L 86 284.7 L 83.9 284.7 Z M 83.9 280.8 C 83.9 280.8 83.9 274.1 83.9 274.1 C 83.3 272.9 82 271.8 80.6 271.8 C 78.2 271.8 77.1 274.3 77.1 277.5 C 77.1 280.6 78.2 283.1 80.6 283.1 C 82 283.1 83.3 282.1 83.9 280.8 Z M 89.3 277.4 C 89.3 273.2 91.5 269.9 95.2 269.9 C 99 269.9 100.9 273.3 100.9 277.5 C 100.89 277.5 100.9 278.2 100.9 278.2 C 100.9 278.2 91.5 278.16 91.5 278.2 C 91.6 281.1 93.1 283.3 95.7 283.3 C 96.9 283.3 98.2 282.6 99.1 281.5 C 99.1 281.5 100.3 282.8 100.3 282.8 C 99.1 284.2 97.4 285.1 95.5 285.1 C 91.6 285.1 89.3 281.9 89.3 277.4 Z M 95.1 271.7 C 92.6 271.7 91.6 274.4 91.5 276.6 C 91.5 276.6 98.8 276.6 98.8 276.6 C 98.7 274.4 97.8 271.7 95.1 271.7 Z M 112.3 284.7 C 112.3 284.7 112.32 282.63 112.3 282.6 C 111.5 284.1 110 285.1 108.5 285.1 C 105.3 285.1 103.3 282 103.3 277.5 C 103.3 273 105.2 269.9 108.5 269.9 C 110 269.9 111.4 270.7 112.3 272.3 C 112.32 272.31 112.3 264.7 112.3 264.7 L 114.5 264.7 L 114.5 284.7 L 112.3 284.7 Z M 112.3 280.8 C 112.3 280.8 112.3 274.1 112.3 274.1 C 111.8 272.9 110.4 271.8 109 271.8 C 106.7 271.8 105.6 274.3 105.6 277.5 C 105.6 280.6 106.7 283.1 109 283.1 C 110.4 283.1 111.8 282.1 112.3 280.8 Z " stroke="none" fill="#d0d1d4"/>  </g>  <g id="Polygon151079">    <path d="M 9.4 248.7 C 9.4 248.7 9.42 247.14 9.4 247.1 C 8.5 248.5 7.1 249.1 5.6 249.1 C 3.3 249.1 1.2 247.3 1.2 244.2 C 1.2 241.2 3.2 239.5 5.6 239.5 C 7.1 239.5 8.5 240 9.4 241.3 C 9.4 241.3 9.4 238.8 9.4 238.8 C 9.4 236.8 8.3 235.7 6.4 235.7 C 5.1 235.7 3.9 236.2 2.8 237.5 C 2.8 237.5 1.9 236 1.9 236 C 3.2 234.5 4.9 233.9 6.8 233.9 C 9.7 233.9 11.6 235.3 11.6 238.6 C 11.58 238.56 11.6 248.7 11.6 248.7 L 9.4 248.7 Z M 9.4 245.7 C 9.4 245.7 9.4 242.9 9.4 242.9 C 8.8 241.7 7.6 241.1 6.3 241.1 C 4.5 241.1 3.4 242.5 3.4 244.3 C 3.4 246.1 4.5 247.5 6.3 247.5 C 7.6 247.5 8.8 246.9 9.4 245.7 Z M 14.3 247 C 14.3 247 15.4 245.5 15.4 245.5 C 16.3 246.5 17.6 247.3 19.2 247.3 C 20.9 247.3 22 246.4 22 245 C 22 241.6 14.8 242.8 14.8 237.8 C 14.8 235.6 16.5 233.9 19.4 233.9 C 21.3 233.9 22.8 234.6 23.8 235.7 C 23.8 235.7 22.8 237.2 22.8 237.2 C 22 236.2 20.8 235.6 19.4 235.6 C 17.8 235.6 16.8 236.5 16.8 237.7 C 16.8 240.8 24.1 239.7 24.1 244.9 C 24.1 247.3 22.2 249.1 19.2 249.1 C 17.2 249.1 15.5 248.4 14.3 247 Z M 41.4 248.7 C 41.4 248.7 41.4 238.38 41.4 238.4 C 41.4 236.5 40.5 235.8 39.1 235.8 C 37.7 235.8 36.4 236.9 35.7 238.1 C 35.7 238.08 35.7 248.7 35.7 248.7 L 33.6 248.7 L 33.6 234.2 L 35.7 234.2 C 35.7 234.2 35.7 236.28 35.7 236.3 C 36.5 235 38.2 233.9 39.9 233.9 C 42.4 233.9 43.6 235.2 43.6 237.8 C 43.56 237.78 43.6 248.7 43.6 248.7 L 41.4 248.7 Z M 46.8 241.4 C 46.8 237.2 49 233.9 52.7 233.9 C 56.5 233.9 58.4 237.3 58.4 241.5 C 58.41 241.5 58.4 242.2 58.4 242.2 C 58.4 242.2 49.02 242.16 49 242.2 C 49.1 245.1 50.6 247.3 53.2 247.3 C 54.4 247.3 55.7 246.6 56.6 245.5 C 56.6 245.5 57.8 246.8 57.8 246.8 C 56.6 248.2 55 249.1 53 249.1 C 49.1 249.1 46.8 245.9 46.8 241.4 Z M 52.6 235.7 C 50.1 235.7 49.1 238.4 49 240.6 C 49 240.6 56.3 240.6 56.3 240.6 C 56.2 238.4 55.3 235.7 52.6 235.7 Z M 60.8 241.4 C 60.8 237.2 63.1 233.9 66.7 233.9 C 70.5 233.9 72.4 237.3 72.4 241.5 C 72.45 241.5 72.4 242.2 72.4 242.2 C 72.4 242.2 63.06 242.16 63.1 242.2 C 63.1 245.1 64.6 247.3 67.2 247.3 C 68.5 247.3 69.8 246.6 70.7 245.5 C 70.7 245.5 71.8 246.8 71.8 246.8 C 70.6 248.2 69 249.1 67 249.1 C 63.2 249.1 60.8 245.9 60.8 241.4 Z M 66.7 235.7 C 64.1 235.7 63.1 238.4 63.1 240.6 C 63.1 240.6 70.3 240.6 70.3 240.6 C 70.3 238.4 69.3 235.7 66.7 235.7 Z M 83.9 248.7 C 83.9 248.7 83.88 246.63 83.9 246.6 C 83 248.1 81.6 249.1 80.1 249.1 C 76.8 249.1 74.9 246 74.9 241.5 C 74.9 237 76.8 233.9 80.1 233.9 C 81.5 233.9 83 234.7 83.9 236.3 C 83.88 236.31 83.9 228.7 83.9 228.7 L 86 228.7 L 86 248.7 L 83.9 248.7 Z M 83.9 244.8 C 83.9 244.8 83.9 238.1 83.9 238.1 C 83.3 236.9 82 235.8 80.6 235.8 C 78.2 235.8 77.1 238.3 77.1 241.5 C 77.1 244.6 78.2 247.1 80.6 247.1 C 82 247.1 83.3 246.1 83.9 244.8 Z M 89.3 241.4 C 89.3 237.2 91.5 233.9 95.2 233.9 C 99 233.9 100.9 237.3 100.9 241.5 C 100.89 241.5 100.9 242.2 100.9 242.2 C 100.9 242.2 91.5 242.16 91.5 242.2 C 91.6 245.1 93.1 247.3 95.7 247.3 C 96.9 247.3 98.2 246.6 99.1 245.5 C 99.1 245.5 100.3 246.8 100.3 246.8 C 99.1 248.2 97.4 249.1 95.5 249.1 C 91.6 249.1 89.3 245.9 89.3 241.4 Z M 95.1 235.7 C 92.6 235.7 91.6 238.4 91.5 240.6 C 91.5 240.6 98.8 240.6 98.8 240.6 C 98.7 238.4 97.8 235.7 95.1 235.7 Z M 112.3 248.7 C 112.3 248.7 112.32 246.63 112.3 246.6 C 111.5 248.1 110 249.1 108.5 249.1 C 105.3 249.1 103.3 246 103.3 241.5 C 103.3 237 105.2 233.9 108.5 233.9 C 110 233.9 111.4 234.7 112.3 236.3 C 112.32 236.31 112.3 228.7 112.3 228.7 L 114.5 228.7 L 114.5 248.7 L 112.3 248.7 Z M 112.3 244.8 C 112.3 244.8 112.3 238.1 112.3 238.1 C 111.8 236.9 110.4 235.8 109 235.8 C 106.7 235.8 105.6 238.3 105.6 241.5 C 105.6 244.6 106.7 247.1 109 247.1 C 110.4 247.1 111.8 246.1 112.3 244.8 Z " stroke="none" fill="#d0d1d4"/>  </g>  <g id="Polygon151078">    <path d="M 7.4 203.2 L 7.4 208.7 L 5.8 208.7 L 5.8 203.2 L 0.9 203.2 L 0.9 201.6 L 5.8 201.6 L 5.8 196.3 L 7.4 196.3 L 7.4 201.6 L 12.3 201.6 L 12.3 203.2 L 7.4 203.2 Z M 0.9 212 L 0.9 210.5 L 12.3 210.5 L 12.3 212 L 0.9 212 Z M 20.5 209.7 C 20.5 209.7 22 208.3 22 208.3 C 23 209.8 24.4 210.9 26.3 210.9 C 28.8 210.9 30 209.4 30 207.1 C 30 204.4 28.2 203.5 26.2 203.5 C 25.5 203.5 24.8 203.5 24.6 203.5 C 24.6 203.5 24.6 201.4 24.6 201.4 C 24.8 201.4 25.6 201.4 26.1 201.4 C 28.1 201.4 29.7 200.3 29.7 198 C 29.7 195.7 28.3 194.5 26.3 194.5 C 24.5 194.5 23.2 195.5 22.2 196.9 C 22.2 196.9 20.7 195.5 20.7 195.5 C 21.9 193.6 23.9 192.4 26.4 192.4 C 29.7 192.4 32.1 194.2 32.1 197.7 C 32.1 200.2 30.4 201.9 28.5 202.4 C 30.3 202.6 32.4 204.4 32.4 207.3 C 32.4 210.6 30.2 213.1 26.4 213.1 C 23.6 213.1 21.5 211.6 20.5 209.7 Z M 35.2 202.7 C 35.2 197.9 36.8 192.4 41.5 192.4 C 46.2 192.4 47.8 197.9 47.8 202.7 C 47.8 207.5 46.2 213.1 41.5 213.1 C 36.8 213.1 35.2 207.5 35.2 202.7 Z M 45.3 202.7 C 45.3 198.8 44.6 194.5 41.5 194.5 C 38.4 194.5 37.7 198.8 37.7 202.7 C 37.7 206.6 38.4 210.9 41.5 210.9 C 44.6 210.9 45.3 206.6 45.3 202.7 Z M 72.2 212.7 C 72.2 212.7 72.24 202.2 72.2 202.2 C 72.2 200.6 71.6 199.8 70.2 199.8 C 68.9 199.8 67.6 200.9 67.1 202.1 C 67.08 202.08 67.1 212.7 67.1 212.7 L 64.9 212.7 C 64.9 212.7 64.92 202.2 64.9 202.2 C 64.9 200.6 64.3 199.8 62.9 199.8 C 61.6 199.8 60.4 200.9 59.7 202.1 C 59.73 202.08 59.7 212.7 59.7 212.7 L 57.6 212.7 L 57.6 198.2 L 59.7 198.2 C 59.7 198.2 59.73 200.28 59.7 200.3 C 60.3 199.2 61.9 197.9 63.7 197.9 C 65.5 197.9 66.7 198.9 67 200.4 C 67.7 199.1 69.3 197.9 71 197.9 C 73.2 197.9 74.4 199 74.4 201.6 C 74.4 201.63 74.4 212.7 74.4 212.7 L 72.2 212.7 Z M 78.4 212.7 L 78.4 192.7 L 80.5 192.7 L 80.5 212.7 L 78.4 212.7 Z " stroke="none" fill="#d0d1d4"/>  </g>  <g id="Polygon151077">    <path d="M 1.6 176.7 C 1.6 176.7 1.59 174.75 1.6 174.8 C 8.1 167.2 10.4 164.8 10.4 161.9 C 10.4 159.7 8.9 158.5 7.2 158.5 C 5.3 158.5 3.9 159.5 2.9 161 C 2.9 161 1.4 159.6 1.4 159.6 C 2.7 157.6 4.7 156.4 7.2 156.4 C 10.3 156.4 12.8 158.4 12.8 161.9 C 12.8 165.2 10.3 168.2 5 174.6 C 4.98 174.57 12.9 174.6 12.9 174.6 L 12.9 176.7 L 1.6 176.7 Z M 21.9 175 C 21.9 175 23 173.5 23 173.5 C 23.8 174.5 25.2 175.3 26.8 175.3 C 28.5 175.3 29.6 174.4 29.6 173 C 29.6 169.6 22.3 170.8 22.3 165.8 C 22.3 163.6 24.1 161.9 27 161.9 C 28.9 161.9 30.4 162.6 31.4 163.7 C 31.4 163.7 30.4 165.2 30.4 165.2 C 29.6 164.2 28.4 163.6 27 163.6 C 25.4 163.6 24.4 164.5 24.4 165.7 C 24.4 168.8 31.6 167.7 31.6 172.9 C 31.6 175.3 29.8 177.1 26.8 177.1 C 24.8 177.1 23.1 176.4 21.9 175 Z M 42.6 176.7 C 42.6 176.7 42.57 166.35 42.6 166.4 C 42.6 164.4 41.7 163.8 40.2 163.8 C 38.8 163.8 37.5 164.9 36.8 166.1 C 36.84 166.08 36.8 176.7 36.8 176.7 L 34.7 176.7 L 34.7 156.7 L 36.8 156.7 C 36.8 156.7 36.84 164.28 36.8 164.3 C 37.7 163 39.3 161.9 41.1 161.9 C 43.5 161.9 44.7 163.1 44.7 165.7 C 44.7 165.72 44.7 176.7 44.7 176.7 L 42.6 176.7 Z M 47.9 169.4 C 47.9 165.2 50.2 161.9 53.8 161.9 C 57.6 161.9 59.5 165.3 59.5 169.5 C 59.55 169.5 59.5 170.2 59.5 170.2 C 59.5 170.2 50.16 170.16 50.2 170.2 C 50.2 173.1 51.7 175.3 54.3 175.3 C 55.6 175.3 56.9 174.6 57.8 173.5 C 57.8 173.5 58.9 174.8 58.9 174.8 C 57.7 176.2 56.1 177.1 54.1 177.1 C 50.3 177.1 47.9 173.9 47.9 169.4 Z M 53.8 163.7 C 51.2 163.7 50.2 166.4 50.2 168.6 C 50.2 168.6 57.4 168.6 57.4 168.6 C 57.4 166.4 56.4 163.7 53.8 163.7 Z M 62 169.4 C 62 165.2 64.2 161.9 67.9 161.9 C 71.7 161.9 73.6 165.3 73.6 169.5 C 73.59 169.5 73.6 170.2 73.6 170.2 C 73.6 170.2 64.2 170.16 64.2 170.2 C 64.3 173.1 65.8 175.3 68.4 175.3 C 69.6 175.3 70.9 174.6 71.8 173.5 C 71.8 173.5 73 174.8 73 174.8 C 71.8 176.2 70.1 177.1 68.2 177.1 C 64.3 177.1 62 173.9 62 169.4 Z M 67.8 163.7 C 65.3 163.7 64.3 166.4 64.2 168.6 C 64.2 168.6 71.5 168.6 71.5 168.6 C 71.4 166.4 70.5 163.7 67.8 163.7 Z M 77.2 173.8 C 77.16 173.79 77.2 164.1 77.2 164.1 L 75.2 164.1 L 75.2 162.2 L 77.2 162.2 L 77.2 158.3 L 79.3 158.3 L 79.3 162.2 L 81.8 162.2 L 81.8 164.1 L 79.3 164.1 C 79.3 164.1 79.32 173.4 79.3 173.4 C 79.3 174.5 79.6 175.1 80.5 175.1 C 81 175.1 81.5 174.9 81.7 174.6 C 81.7 174.6 82.4 176.2 82.4 176.2 C 81.9 176.7 81.2 177.1 80.1 177.1 C 78.1 177.1 77.2 176 77.2 173.8 Z M 83.5 175 C 83.5 175 84.5 173.5 84.5 173.5 C 85.4 174.5 86.8 175.3 88.3 175.3 C 90 175.3 91.1 174.4 91.1 173 C 91.1 169.6 83.9 170.8 83.9 165.8 C 83.9 163.6 85.6 161.9 88.5 161.9 C 90.4 161.9 91.9 162.6 92.9 163.7 C 92.9 163.7 91.9 165.2 91.9 165.2 C 91.2 164.2 89.9 163.6 88.5 163.6 C 86.9 163.6 85.9 164.5 85.9 165.7 C 85.9 168.8 93.2 167.7 93.2 172.9 C 93.2 175.3 91.3 177.1 88.3 177.1 C 86.3 177.1 84.7 176.4 83.5 175 Z " stroke="none" fill="#d0d1d4"/>  </g>  <g id="Polygon151076">    <path d="M 1.6 137.8 C 1.6 137.8 3.1 136.4 3.1 136.4 C 4.1 138 5.4 138.9 7.4 138.9 C 9.6 138.9 10.9 136.9 10.9 134.6 C 10.9 131.7 9.6 130.2 7.5 130.2 C 6.1 130.2 5 130.7 3.9 132 C 3.9 132.03 2.1 131.4 2.1 131.4 L 2.1 120.7 L 12.3 120.7 L 12.3 122.8 L 4.5 122.8 C 4.5 122.8 4.5 129.81 4.5 129.8 C 5.3 128.9 6.6 128.1 8.2 128.1 C 11.1 128.1 13.4 130.4 13.4 134.5 C 13.4 138.3 10.9 141.1 7.4 141.1 C 4.5 141.1 2.8 139.8 1.6 137.8 Z M 22.6 131.8 L 18.8 135.6 L 17.7 134.5 L 21.5 130.7 L 17.7 126.8 L 18.8 125.8 L 22.6 129.6 L 26.4 125.8 L 27.5 126.8 L 23.7 130.7 L 27.5 134.5 L 26.4 135.6 L 22.6 131.8 Z M 32 137.8 C 32 137.8 33.6 136.4 33.6 136.4 C 34.6 138 35.9 138.9 37.9 138.9 C 40 138.9 41.4 136.9 41.4 134.6 C 41.4 131.7 40.1 130.2 38 130.2 C 36.6 130.2 35.5 130.7 34.4 132 C 34.38 132.03 32.6 131.4 32.6 131.4 L 32.6 120.7 L 42.8 120.7 L 42.8 122.8 L 35 122.8 C 35 122.8 34.98 129.81 35 129.8 C 35.8 128.9 37.1 128.1 38.7 128.1 C 41.5 128.1 43.9 130.4 43.9 134.5 C 43.9 138.3 41.4 141.1 37.9 141.1 C 35 141.1 33.3 139.8 32 137.8 Z M 52.9 133.4 C 52.9 129.2 55.2 125.9 58.9 125.9 C 60.9 125.9 62.2 126.7 63.1 127.8 C 63.1 127.8 61.9 129.2 61.9 129.2 C 61.1 128.2 60.2 127.8 59.1 127.8 C 56.5 127.8 55.2 130.4 55.2 133.4 C 55.2 136.5 56.5 139.1 59.1 139.1 C 60.2 139.1 61.1 138.7 61.9 137.7 C 61.9 137.7 63.1 139.1 63.1 139.1 C 62.2 140.3 60.9 141.1 58.9 141.1 C 55.2 141.1 52.9 137.7 52.9 133.4 Z M 80.5 140.7 C 80.5 140.7 80.46 130.2 80.5 130.2 C 80.5 128.6 79.8 127.8 78.4 127.8 C 77.2 127.8 75.9 128.9 75.3 130.1 C 75.3 130.08 75.3 140.7 75.3 140.7 L 73.1 140.7 C 73.1 140.7 73.14 130.2 73.1 130.2 C 73.1 128.6 72.5 127.8 71.1 127.8 C 69.8 127.8 68.6 128.9 67.9 130.1 C 67.95 130.08 67.9 140.7 67.9 140.7 L 65.8 140.7 L 65.8 126.2 L 67.9 126.2 C 67.9 126.2 67.95 128.28 67.9 128.3 C 68.5 127.2 70.2 125.9 71.9 125.9 C 73.8 125.9 74.9 126.9 75.2 128.4 C 75.9 127.1 77.5 125.9 79.3 125.9 C 81.4 125.9 82.6 127 82.6 129.6 C 82.62 129.63 82.6 140.7 82.6 140.7 L 80.5 140.7 Z M 91.9 139 C 91.9 139 92.9 137.5 92.9 137.5 C 93.8 138.5 95.2 139.3 96.7 139.3 C 98.4 139.3 99.5 138.4 99.5 137 C 99.5 133.6 92.3 134.8 92.3 129.8 C 92.3 127.6 94 125.9 96.9 125.9 C 98.8 125.9 100.3 126.6 101.3 127.7 C 101.3 127.7 100.3 129.2 100.3 129.2 C 99.6 128.2 98.3 127.6 96.9 127.6 C 95.3 127.6 94.3 128.5 94.3 129.7 C 94.3 132.8 101.6 131.7 101.6 136.9 C 101.6 139.3 99.7 141.1 96.7 141.1 C 94.7 141.1 93.1 140.4 91.9 139 Z M 112.5 140.7 C 112.5 140.7 112.5 130.35 112.5 130.4 C 112.5 128.4 111.6 127.8 110.2 127.8 C 108.7 127.8 107.4 128.9 106.8 130.1 C 106.77 130.08 106.8 140.7 106.8 140.7 L 104.6 140.7 L 104.6 120.7 L 106.8 120.7 C 106.8 120.7 106.77 128.28 106.8 128.3 C 107.6 127 109.3 125.9 111 125.9 C 113.5 125.9 114.6 127.1 114.6 129.7 C 114.63 129.72 114.6 140.7 114.6 140.7 L 112.5 140.7 Z M 117.9 133.4 C 117.9 129.2 120.1 125.9 123.7 125.9 C 127.6 125.9 129.5 129.3 129.5 133.5 C 129.48 133.5 129.5 134.2 129.5 134.2 C 129.5 134.2 120.09 134.16 120.1 134.2 C 120.2 137.1 121.7 139.3 124.3 139.3 C 125.5 139.3 126.8 138.6 127.7 137.5 C 127.7 137.5 128.8 138.8 128.8 138.8 C 127.7 140.2 126 141.1 124.1 141.1 C 120.2 141.1 117.9 137.9 117.9 133.4 Z M 123.7 127.7 C 121.2 127.7 120.1 130.4 120.1 132.6 C 120.1 132.6 127.3 132.6 127.3 132.6 C 127.3 130.4 126.4 127.7 123.7 127.7 Z M 131.9 133.4 C 131.9 129.2 134.1 125.9 137.8 125.9 C 141.6 125.9 143.5 129.3 143.5 133.5 C 143.52 133.5 143.5 134.2 143.5 134.2 C 143.5 134.2 134.13 134.16 134.1 134.2 C 134.2 137.1 135.7 139.3 138.3 139.3 C 139.6 139.3 140.8 138.6 141.7 137.5 C 141.7 137.5 142.9 138.8 142.9 138.8 C 141.7 140.2 140.1 141.1 138.1 141.1 C 134.2 141.1 131.9 137.9 131.9 133.4 Z M 137.8 127.7 C 135.2 127.7 134.2 130.4 134.1 132.6 C 134.1 132.6 141.4 132.6 141.4 132.6 C 141.4 130.4 140.4 127.7 137.8 127.7 Z M 147.1 137.8 C 147.09 137.79 147.1 128.1 147.1 128.1 L 145.2 128.1 L 145.2 126.2 L 147.1 126.2 L 147.1 122.3 L 149.2 122.3 L 149.2 126.2 L 151.7 126.2 L 151.7 128.1 L 149.2 128.1 C 149.2 128.1 149.25 137.4 149.2 137.4 C 149.2 138.5 149.6 139.1 150.4 139.1 C 151 139.1 151.4 138.9 151.7 138.6 C 151.7 138.6 152.3 140.2 152.3 140.2 C 151.8 140.7 151.1 141.1 150 141.1 C 148 141.1 147.1 140 147.1 137.8 Z " stroke="none" fill="#d0d1d4"/>  </g>  <g id="Polygon151075">    <path d="M 1.6 104.7 C 1.6 104.7 1.59 102.75 1.6 102.8 C 8.1 95.2 10.4 92.8 10.4 89.9 C 10.4 87.7 8.9 86.5 7.2 86.5 C 5.3 86.5 3.9 87.5 2.9 89 C 2.9 89 1.4 87.6 1.4 87.6 C 2.7 85.6 4.7 84.4 7.2 84.4 C 10.3 84.4 12.8 86.4 12.8 89.9 C 12.8 93.2 10.3 96.2 5 102.6 C 4.98 102.57 12.9 102.6 12.9 102.6 L 12.9 104.7 L 1.6 104.7 Z M 16.2 101.8 C 16.2 101.8 17.8 100.4 17.8 100.4 C 18.8 102 20.1 102.9 22 102.9 C 24.2 102.9 25.6 100.9 25.6 98.6 C 25.6 95.7 24.3 94.2 22.2 94.2 C 20.8 94.2 19.7 94.7 18.6 96 C 18.57 96.03 16.8 95.4 16.8 95.4 L 16.8 84.7 L 27 84.7 L 27 86.8 L 19.2 86.8 C 19.2 86.8 19.17 93.81 19.2 93.8 C 19.9 92.9 21.3 92.1 22.9 92.1 C 25.7 92.1 28 94.4 28 98.5 C 28 102.3 25.6 105.1 22.1 105.1 C 19.2 105.1 17.5 103.8 16.2 101.8 Z M 30.8 94.7 C 30.8 89.9 32.4 84.4 37.1 84.4 C 41.8 84.4 43.3 89.9 43.3 94.7 C 43.3 99.5 41.8 105.1 37.1 105.1 C 32.4 105.1 30.8 99.5 30.8 94.7 Z M 40.9 94.7 C 40.9 90.8 40.2 86.5 37.1 86.5 C 34 86.5 33.3 90.8 33.3 94.7 C 33.3 98.6 34 102.9 37.1 102.9 C 40.2 102.9 40.9 98.6 40.9 94.7 Z M 53.1 108.8 C 53.1 108.8 54.1 107.1 54.1 107.1 C 55 108.2 56.2 108.8 57.8 108.8 C 59.8 108.8 61.5 107.6 61.5 104.8 C 61.5 104.8 61.5 102.4 61.5 102.4 C 60.6 103.9 59.2 104.9 57.7 104.9 C 54.4 104.9 52.5 101.9 52.5 97.4 C 52.5 92.9 54.4 89.9 57.7 89.9 C 59.1 89.9 60.6 90.7 61.5 92.3 C 61.47 92.31 61.5 90.2 61.5 90.2 L 63.6 90.2 C 63.6 90.2 63.63 104.67 63.6 104.7 C 63.6 109.1 60.9 110.6 57.9 110.6 C 55.9 110.6 54.4 110.1 53.1 108.8 Z M 61.5 100.6 C 61.5 100.6 61.5 94.1 61.5 94.1 C 60.9 92.9 59.6 91.8 58.2 91.8 C 55.8 91.8 54.7 94.3 54.7 97.4 C 54.7 100.5 55.8 103 58.2 103 C 59.6 103 60.9 101.8 61.5 100.6 Z " stroke="none" fill="#d0d1d4"/>  </g>  <g id="Polygon151074">    <path d="M 5 68.7 L 5 51.8 L 1.9 55.1 L 0.4 53.6 L 5.3 48.7 L 7.3 48.7 L 7.3 68.7 L 5 68.7 Z M 11 68.7 C 11 68.7 11.04 66.75 11 66.8 C 17.6 59.2 19.8 56.8 19.8 53.9 C 19.8 51.7 18.3 50.5 16.6 50.5 C 14.7 50.5 13.3 51.5 12.4 53 C 12.4 53 10.8 51.6 10.8 51.6 C 12.1 49.6 14.1 48.4 16.6 48.4 C 19.7 48.4 22.3 50.4 22.3 53.9 C 22.3 57.2 19.7 60.2 14.4 66.6 C 14.43 66.57 22.3 66.6 22.3 66.6 L 22.3 68.7 L 11 68.7 Z M 25.5 58.7 C 25.5 53.9 27.1 48.4 31.8 48.4 C 36.5 48.4 38.1 53.9 38.1 58.7 C 38.1 63.5 36.5 69.1 31.8 69.1 C 27.1 69.1 25.5 63.5 25.5 58.7 Z M 35.6 58.7 C 35.6 54.8 34.9 50.5 31.8 50.5 C 28.7 50.5 28 54.8 28 58.7 C 28 62.6 28.7 66.9 31.8 66.9 C 34.9 66.9 35.6 62.6 35.6 58.7 Z M 47.8 72.8 C 47.8 72.8 48.8 71.1 48.8 71.1 C 49.7 72.2 51 72.8 52.6 72.8 C 54.5 72.8 56.2 71.6 56.2 68.8 C 56.2 68.8 56.2 66.4 56.2 66.4 C 55.3 67.9 53.9 68.9 52.4 68.9 C 49.1 68.9 47.2 65.9 47.2 61.4 C 47.2 56.9 49.1 53.9 52.4 53.9 C 53.8 53.9 55.3 54.7 56.2 56.3 C 56.19 56.31 56.2 54.2 56.2 54.2 L 58.3 54.2 C 58.3 54.2 58.35 68.67 58.3 68.7 C 58.3 73.1 55.6 74.6 52.6 74.6 C 50.7 74.6 49.2 74.1 47.8 72.8 Z M 56.2 64.6 C 56.2 64.6 56.2 58.1 56.2 58.1 C 55.6 56.9 54.3 55.8 52.9 55.8 C 50.5 55.8 49.4 58.3 49.4 61.4 C 49.4 64.5 50.5 67 52.9 67 C 54.3 67 55.6 65.8 56.2 64.6 Z " stroke="none" fill="#d0d1d4"/>  </g>  <g id="Polygon151073">    <path d="M 8.6 32.7 L 8.6 27.6 L 0.7 27.6 L 0.7 25.5 L 7.9 12.7 L 11 12.7 L 11 25.5 L 13.2 25.5 L 13.2 27.6 L 11 27.6 L 11 32.7 L 8.6 32.7 Z M 8.6 15.3 L 2.9 25.5 L 8.6 25.5 L 8.6 15.3 Z M 15.3 22.7 C 15.3 17.9 16.9 12.4 21.5 12.4 C 26.2 12.4 27.8 17.9 27.8 22.7 C 27.8 27.5 26.2 33.1 21.5 33.1 C 16.9 33.1 15.3 27.5 15.3 22.7 Z M 25.4 22.7 C 25.4 18.8 24.6 14.5 21.5 14.5 C 18.5 14.5 17.7 18.8 17.7 22.7 C 17.7 26.6 18.4 30.9 21.5 30.9 C 24.6 30.9 25.4 26.6 25.4 22.7 Z M 30.6 22.7 C 30.6 17.9 32.2 12.4 36.9 12.4 C 41.6 12.4 43.2 17.9 43.2 22.7 C 43.2 27.5 41.6 33.1 36.9 33.1 C 32.2 33.1 30.6 27.5 30.6 22.7 Z M 40.7 22.7 C 40.7 18.8 40 14.5 36.9 14.5 C 33.8 14.5 33.1 18.8 33.1 22.7 C 33.1 26.6 33.8 30.9 36.9 30.9 C 40 30.9 40.7 26.6 40.7 22.7 Z M 52.9 36.8 C 52.9 36.8 53.9 35.1 53.9 35.1 C 54.8 36.2 56.1 36.8 57.7 36.8 C 59.6 36.8 61.3 35.6 61.3 32.8 C 61.3 32.8 61.3 30.4 61.3 30.4 C 60.4 31.9 59 32.9 57.5 32.9 C 54.2 32.9 52.3 29.9 52.3 25.4 C 52.3 20.9 54.2 17.9 57.5 17.9 C 58.9 17.9 60.4 18.7 61.3 20.3 C 61.29 20.31 61.3 18.2 61.3 18.2 L 63.4 18.2 C 63.4 18.2 63.45 32.67 63.4 32.7 C 63.4 37.1 60.7 38.6 57.7 38.6 C 55.8 38.6 54.3 38.1 52.9 36.8 Z M 61.3 28.6 C 61.3 28.6 61.3 22.1 61.3 22.1 C 60.7 20.9 59.4 19.8 58 19.8 C 55.6 19.8 54.5 22.3 54.5 25.4 C 54.5 28.5 55.6 31 58 31 C 59.4 31 60.7 29.8 61.3 28.6 Z " stroke="none" fill="#d0d1d4"/>  </g></svg>