<?xml version="1.0" standalone="no"?><!DOCTYPE svg PUBLIC "-//W3C//DTD SVG 1.1//EN" "http://www.w3.org/Graphics/SVG/1.1/DTD/svg11.dtd"><svg xmlns="http://www.w3.org/2000/svg" version="1.1" width="274px" height="517.3px" viewBox="0 0 274 517.3">  <desc>Alcanivorase extract Carvacrol Hexagualiconic acid Heptadiozose Isopropylene ethanoate Hydrachlutocin gel Duofanthien</desc>  <defs/>  <g id="Polygon151019">    <path d="M 2.1 500.7 L 2.1 480.7 L 4.5 480.7 L 4.5 500.7 L 2.1 500.7 Z M 7.6 493.4 C 7.6 489.4 9.6 485.9 13.4 485.9 C 17.3 485.9 19.3 489.4 19.3 493.4 C 19.3 497.5 17.3 501.1 13.4 501.1 C 9.6 501.1 7.6 497.5 7.6 493.4 Z M 17.1 493.4 C 17.1 490.5 16 487.8 13.4 487.8 C 10.9 487.8 9.8 490.5 9.8 493.4 C 9.8 496.4 10.9 499.1 13.4 499.1 C 16 499.1 17.1 496.4 17.1 493.4 Z M 30.6 500.7 C 30.6 500.7 30.57 498.63 30.6 498.6 C 29.7 500.1 28.3 501.1 26.8 501.1 C 23.5 501.1 21.6 498 21.6 493.5 C 21.6 489 23.5 485.9 26.8 485.9 C 28.2 485.9 29.7 486.7 30.6 488.3 C 30.57 488.31 30.6 480.7 30.6 480.7 L 32.7 480.7 L 32.7 500.7 L 30.6 500.7 Z M 30.6 496.8 C 30.6 496.8 30.6 490.1 30.6 490.1 C 30 488.9 28.7 487.8 27.3 487.8 C 24.9 487.8 23.8 490.3 23.8 493.5 C 23.8 496.6 24.9 499.1 27.3 499.1 C 28.7 499.1 30 498.1 30.6 496.8 Z M 36 482.6 C 36 481.8 36.7 481.2 37.4 481.2 C 38.2 481.2 38.9 481.8 38.9 482.6 C 38.9 483.5 38.2 484.1 37.4 484.1 C 36.7 484.1 36 483.5 36 482.6 Z M 36.4 500.7 L 36.4 486.2 L 38.5 486.2 L 38.5 500.7 L 36.4 500.7 Z M 41 499 C 41 499 42.1 497.5 42.1 497.5 C 42.9 498.5 44.3 499.3 45.9 499.3 C 47.5 499.3 48.7 498.4 48.7 497 C 48.7 493.6 41.4 494.8 41.4 489.8 C 41.4 487.6 43.2 485.9 46 485.9 C 48 485.9 49.4 486.6 50.5 487.7 C 50.5 487.7 49.4 489.2 49.4 489.2 C 48.7 488.2 47.5 487.6 46.1 487.6 C 44.5 487.6 43.5 488.5 43.5 489.7 C 43.5 492.8 50.7 491.7 50.7 496.9 C 50.7 499.3 48.9 501.1 45.9 501.1 C 43.9 501.1 42.2 500.4 41 499 Z M 52.8 493.4 C 52.8 489.2 55 485.9 58.6 485.9 C 62.5 485.9 64.4 489.3 64.4 493.5 C 64.38 493.5 64.4 494.2 64.4 494.2 C 64.4 494.2 54.99 494.16 55 494.2 C 55.1 497.1 56.6 499.3 59.2 499.3 C 60.4 499.3 61.7 498.6 62.6 497.5 C 62.6 497.5 63.7 498.8 63.7 498.8 C 62.6 500.2 60.9 501.1 59 501.1 C 55.1 501.1 52.8 497.9 52.8 493.4 Z M 58.6 487.7 C 56.1 487.7 55 490.4 55 492.6 C 55 492.6 62.2 492.6 62.2 492.6 C 62.2 490.4 61.3 487.7 58.6 487.7 Z M 75.5 500.7 C 75.5 500.7 75.51 498.63 75.5 498.6 C 74.7 500.1 73.2 501.1 71.7 501.1 C 68.5 501.1 66.5 498 66.5 493.5 C 66.5 489 68.4 485.9 71.7 485.9 C 73.2 485.9 74.6 486.7 75.5 488.3 C 75.51 488.31 75.5 480.7 75.5 480.7 L 77.7 480.7 L 77.7 500.7 L 75.5 500.7 Z M 75.5 496.8 C 75.5 496.8 75.5 490.1 75.5 490.1 C 75 488.9 73.6 487.8 72.2 487.8 C 69.9 487.8 68.8 490.3 68.8 493.5 C 68.8 496.6 69.9 499.1 72.2 499.1 C 73.6 499.1 75 498.1 75.5 496.8 Z M 86.4 498.5 C 86.4 498.5 87.7 496.7 87.7 496.7 C 88.7 497.9 90.4 498.9 92.3 498.9 C 94.9 498.9 96 497.4 96 495.7 C 96 490.8 87 492.1 87 485.6 C 87 482.6 89.4 480.4 92.7 480.4 C 94.9 480.4 96.7 481.1 98 482.5 C 98 482.5 96.8 484.3 96.8 484.3 C 95.7 483.1 94.2 482.5 92.6 482.5 C 90.8 482.5 89.4 483.7 89.4 485.5 C 89.4 489.7 98.4 488.8 98.4 495.5 C 98.4 498.5 96.5 501.1 92.3 501.1 C 89.7 501.1 87.7 500.1 86.4 498.5 Z M 108.7 500.7 C 108.7 500.7 108.72 499.14 108.7 499.1 C 107.8 500.5 106.4 501.1 104.9 501.1 C 102.6 501.1 100.5 499.3 100.5 496.2 C 100.5 493.2 102.5 491.5 104.9 491.5 C 106.4 491.5 107.8 492 108.7 493.3 C 108.7 493.3 108.7 490.8 108.7 490.8 C 108.7 488.8 107.6 487.7 105.7 487.7 C 104.4 487.7 103.2 488.2 102.1 489.5 C 102.1 489.5 101.2 488 101.2 488 C 102.5 486.5 104.2 485.9 106.1 485.9 C 109 485.9 110.9 487.3 110.9 490.6 C 110.88 490.56 110.9 500.7 110.9 500.7 L 108.7 500.7 Z M 108.7 497.7 C 108.7 497.7 108.7 494.9 108.7 494.9 C 108.1 493.7 106.9 493.1 105.6 493.1 C 103.8 493.1 102.7 494.5 102.7 496.3 C 102.7 498.1 103.8 499.5 105.6 499.5 C 106.9 499.5 108.1 498.9 108.7 497.7 Z M 114.5 500.7 L 114.5 480.7 L 116.6 480.7 L 116.6 500.7 L 114.5 500.7 Z M 120.7 497.8 C 120.72 497.79 120.7 488.1 120.7 488.1 L 118.8 488.1 L 118.8 486.2 L 120.7 486.2 L 120.7 482.3 L 122.9 482.3 L 122.9 486.2 L 125.3 486.2 L 125.3 488.1 L 122.9 488.1 C 122.9 488.1 122.88 497.4 122.9 497.4 C 122.9 498.5 123.2 499.1 124 499.1 C 124.6 499.1 125 498.9 125.3 498.6 C 125.3 498.6 126 500.2 126 500.2 C 125.5 500.7 124.7 501.1 123.6 501.1 C 121.6 501.1 120.7 500 120.7 497.8 Z " stroke="none" fill="#d3d2d2"/>  </g>  <g id="Polygon151018">    <path d="M 1.4 454.7 C 1.4 448.7 4.4 444.4 9.2 444.4 C 12.2 444.4 13.9 446.2 15 448.3 C 15 448.3 13 449.2 13 449.2 C 12.2 447.6 10.9 446.5 9.2 446.5 C 5.9 446.5 3.9 450 3.9 454.7 C 3.9 459.5 5.9 462.9 9.2 462.9 C 11 462.9 12.3 461.7 13.1 460 C 13.1 460 15.1 460.9 15.1 460.9 C 14 463.1 12.3 465.1 9.2 465.1 C 4.4 465.1 1.4 460.7 1.4 454.7 Z M 25.5 464.7 C 25.5 464.7 25.53 454.35 25.5 454.4 C 25.5 452.4 24.6 451.8 23.2 451.8 C 21.8 451.8 20.5 452.9 19.8 454.1 C 19.8 454.08 19.8 464.7 19.8 464.7 L 17.7 464.7 L 17.7 444.7 L 19.8 444.7 C 19.8 444.7 19.8 452.28 19.8 452.3 C 20.6 451 22.3 449.9 24 449.9 C 26.5 449.9 27.7 451.1 27.7 453.7 C 27.66 453.72 27.7 464.7 27.7 464.7 L 25.5 464.7 Z M 31.3 464.7 L 31.3 444.7 L 33.4 444.7 L 33.4 464.7 L 31.3 464.7 Z M 36.4 457.4 C 36.4 453.4 38.4 449.9 42.3 449.9 C 46.2 449.9 48.2 453.4 48.2 457.4 C 48.2 461.5 46.2 465.1 42.3 465.1 C 38.4 465.1 36.4 461.5 36.4 457.4 Z M 45.9 457.4 C 45.9 454.5 44.8 451.8 42.3 451.8 C 39.8 451.8 38.6 454.5 38.6 457.4 C 38.6 460.4 39.8 463.1 42.3 463.1 C 44.8 463.1 45.9 460.4 45.9 457.4 Z M 51.1 464.7 L 51.1 450.2 L 53.2 450.2 C 53.2 450.2 53.25 452.52 53.2 452.5 C 54.2 451 55.6 449.9 57.4 449.9 C 57.4 449.9 57.4 452.1 57.4 452.1 C 57.1 452.1 56.9 452 56.6 452 C 55.3 452 53.8 453.2 53.2 454.4 C 53.25 454.41 53.2 464.7 53.2 464.7 L 51.1 464.7 Z M 59.1 446.6 C 59.1 445.8 59.8 445.2 60.6 445.2 C 61.4 445.2 62.1 445.8 62.1 446.6 C 62.1 447.5 61.4 448.1 60.6 448.1 C 59.8 448.1 59.1 447.5 59.1 446.6 Z M 59.5 464.7 L 59.5 450.2 L 61.7 450.2 L 61.7 464.7 L 59.5 464.7 Z M 73.6 464.7 C 73.6 464.7 73.62 462.63 73.6 462.6 C 72.8 464.1 71.3 465.1 69.8 465.1 C 66.6 465.1 64.6 462 64.6 457.5 C 64.6 453 66.5 449.9 69.8 449.9 C 71.3 449.9 72.7 450.7 73.6 452.3 C 73.62 452.31 73.6 444.7 73.6 444.7 L 75.8 444.7 L 75.8 464.7 L 73.6 464.7 Z M 73.6 460.8 C 73.6 460.8 73.6 454.1 73.6 454.1 C 73.1 452.9 71.7 451.8 70.3 451.8 C 68 451.8 66.9 454.3 66.9 457.5 C 66.9 460.6 68 463.1 70.3 463.1 C 71.7 463.1 73.1 462.1 73.6 460.8 Z M 79 446.6 C 79 445.8 79.7 445.2 80.5 445.2 C 81.3 445.2 82 445.8 82 446.6 C 82 447.5 81.3 448.1 80.5 448.1 C 79.7 448.1 79 447.5 79 446.6 Z M 79.4 464.7 L 79.4 450.2 L 81.6 450.2 L 81.6 464.7 L 79.4 464.7 Z M 93.1 464.7 C 93.1 464.7 93.06 454.38 93.1 454.4 C 93.1 452.5 92.2 451.8 90.7 451.8 C 89.3 451.8 88 452.9 87.4 454.1 C 87.36 454.08 87.4 464.7 87.4 464.7 L 85.2 464.7 L 85.2 450.2 L 87.4 450.2 C 87.4 450.2 87.36 452.28 87.4 452.3 C 88.2 451 89.8 449.9 91.6 449.9 C 94 449.9 95.2 451.2 95.2 453.8 C 95.22 453.78 95.2 464.7 95.2 464.7 L 93.1 464.7 Z M 98.2 457.4 C 98.2 453.2 100.4 449.9 104 449.9 C 107.8 449.9 109.8 453.3 109.8 457.5 C 109.77 457.5 109.8 458.2 109.8 458.2 C 109.8 458.2 100.38 458.16 100.4 458.2 C 100.5 461.1 102 463.3 104.5 463.3 C 105.8 463.3 107.1 462.6 108 461.5 C 108 461.5 109.1 462.8 109.1 462.8 C 108 464.2 106.3 465.1 104.4 465.1 C 100.5 465.1 98.2 461.9 98.2 457.4 Z M 104 451.7 C 101.5 451.7 100.4 454.4 100.4 456.6 C 100.4 456.6 107.6 456.6 107.6 456.6 C 107.6 454.4 106.6 451.7 104 451.7 Z M 124.2 463.1 C 126.5 463.1 127.6 460.6 127.6 457.5 C 127.6 454.3 126.5 451.8 124.2 451.8 C 122.8 451.8 121.5 452.9 120.9 454.2 C 120.9 454.2 120.9 460.8 120.9 460.8 C 121.5 462.1 122.8 463.1 124.2 463.1 Z M 118.8 464.7 L 118.8 444.7 L 120.9 444.7 C 120.9 444.7 120.9 452.31 120.9 452.3 C 121.8 450.7 123.2 449.9 124.7 449.9 C 128 449.9 129.9 453 129.9 457.5 C 129.9 462 128 465.1 124.7 465.1 C 123.2 465.1 121.7 464.1 120.9 462.6 C 120.9 462.63 120.9 464.7 120.9 464.7 L 118.8 464.7 Z M 132.1 457.4 C 132.1 453.2 134.4 449.9 138 449.9 C 141.8 449.9 143.8 453.3 143.8 457.5 C 143.76 457.5 143.8 458.2 143.8 458.2 C 143.8 458.2 134.37 458.16 134.4 458.2 C 134.5 461.1 136 463.3 138.5 463.3 C 139.8 463.3 141.1 462.6 142 461.5 C 142 461.5 143.1 462.8 143.1 462.8 C 142 464.2 140.3 465.1 138.4 465.1 C 134.5 465.1 132.1 461.9 132.1 457.4 Z M 138 451.7 C 135.4 451.7 134.4 454.4 134.4 456.6 C 134.4 456.6 141.6 456.6 141.6 456.6 C 141.6 454.4 140.6 451.7 138 451.7 Z M 154.4 464.7 C 154.4 464.7 154.44 454.38 154.4 454.4 C 154.4 452.5 153.6 451.8 152.1 451.8 C 150.7 451.8 149.4 452.9 148.7 454.1 C 148.74 454.08 148.7 464.7 148.7 464.7 L 146.6 464.7 L 146.6 450.2 L 148.7 450.2 C 148.7 450.2 148.74 452.28 148.7 452.3 C 149.6 451 151.2 449.9 152.9 449.9 C 155.4 449.9 156.6 451.2 156.6 453.8 C 156.6 453.78 156.6 464.7 156.6 464.7 L 154.4 464.7 Z M 159.6 464.7 L 159.6 463 L 165.8 452.1 L 159.6 452.1 L 159.6 450.2 L 168.5 450.2 L 168.5 451.9 L 162.2 462.8 L 168.6 462.8 L 168.6 464.7 L 159.6 464.7 Z M 170.8 457.4 C 170.8 453.4 172.9 449.9 176.7 449.9 C 180.6 449.9 182.6 453.4 182.6 457.4 C 182.6 461.5 180.6 465.1 176.7 465.1 C 172.9 465.1 170.8 461.5 170.8 457.4 Z M 180.4 457.4 C 180.4 454.5 179.3 451.8 176.7 451.8 C 174.2 451.8 173.1 454.5 173.1 457.4 C 173.1 460.4 174.2 463.1 176.7 463.1 C 179.3 463.1 180.4 460.4 180.4 457.4 Z M 193 464.7 C 193 464.7 193.02 463.14 193 463.1 C 192.1 464.5 190.7 465.1 189.2 465.1 C 186.9 465.1 184.8 463.3 184.8 460.2 C 184.8 457.2 186.8 455.5 189.2 455.5 C 190.7 455.5 192.1 456 193 457.3 C 193 457.3 193 454.8 193 454.8 C 193 452.8 191.9 451.7 190 451.7 C 188.7 451.7 187.5 452.2 186.4 453.5 C 186.4 453.5 185.5 452 185.5 452 C 186.8 450.5 188.5 449.9 190.4 449.9 C 193.3 449.9 195.2 451.3 195.2 454.6 C 195.18 454.56 195.2 464.7 195.2 464.7 L 193 464.7 Z M 193 461.7 C 193 461.7 193 458.9 193 458.9 C 192.4 457.7 191.2 457.1 189.9 457.1 C 188.1 457.1 187 458.5 187 460.3 C 187 462.1 188.1 463.5 189.9 463.5 C 191.2 463.5 192.4 462.9 193 461.7 Z M 199.2 461.8 C 199.23 461.79 199.2 452.1 199.2 452.1 L 197.3 452.1 L 197.3 450.2 L 199.2 450.2 L 199.2 446.3 L 201.4 446.3 L 201.4 450.2 L 203.8 450.2 L 203.8 452.1 L 201.4 452.1 C 201.4 452.1 201.39 461.4 201.4 461.4 C 201.4 462.5 201.7 463.1 202.6 463.1 C 203.1 463.1 203.5 462.9 203.8 462.6 C 203.8 462.6 204.5 464.2 204.5 464.2 C 204 464.7 203.2 465.1 202.1 465.1 C 200.2 465.1 199.2 464 199.2 461.8 Z M 205.7 457.4 C 205.7 453.2 207.9 449.9 211.6 449.9 C 215.4 449.9 217.3 453.3 217.3 457.5 C 217.29 457.5 217.3 458.2 217.3 458.2 C 217.3 458.2 207.9 458.16 207.9 458.2 C 208 461.1 209.5 463.3 212.1 463.3 C 213.3 463.3 214.6 462.6 215.5 461.5 C 215.5 461.5 216.7 462.8 216.7 462.8 C 215.5 464.2 213.8 465.1 211.9 465.1 C 208 465.1 205.7 461.9 205.7 457.4 Z M 211.5 451.7 C 209 451.7 208 454.4 207.9 456.6 C 207.9 456.6 215.2 456.6 215.2 456.6 C 215.1 454.4 214.2 451.7 211.5 451.7 Z " stroke="none" fill="#d3d2d2"/>  </g>  <g id="Polygon151017">    <path d="M 2.1 428.7 L 2.1 408.7 L 12.4 408.7 L 12.4 410.8 L 4.5 410.8 L 4.5 417.4 L 12.2 417.4 L 12.2 419.5 L 4.5 419.5 L 4.5 426.6 L 12.4 426.6 L 12.4 428.7 L 2.1 428.7 Z M 17.6 426.6 C 17.64 426.6 17.6 434.2 17.6 434.2 L 15.5 434.2 L 15.5 414.2 L 17.6 414.2 C 17.6 414.2 17.64 416.28 17.6 416.3 C 18.5 414.8 19.9 413.9 21.4 413.9 C 24.7 413.9 26.6 416.9 26.6 421.4 C 26.6 426 24.7 429.1 21.4 429.1 C 20 429.1 18.5 428.2 17.6 426.6 Z M 24.4 421.4 C 24.4 418.3 23.3 415.8 20.9 415.8 C 19.6 415.8 18.2 416.9 17.6 418.1 C 17.6 418.1 17.6 424.7 17.6 424.7 C 18.2 426 19.6 427.1 20.9 427.1 C 23.3 427.1 24.4 424.6 24.4 421.4 Z M 37.4 428.7 C 37.4 428.7 37.41 418.35 37.4 418.4 C 37.4 416.4 36.5 415.8 35.1 415.8 C 33.7 415.8 32.3 416.9 31.7 418.1 C 31.68 418.08 31.7 428.7 31.7 428.7 L 29.5 428.7 L 29.5 408.7 L 31.7 408.7 C 31.7 408.7 31.68 416.28 31.7 416.3 C 32.5 415 34.2 413.9 35.9 413.9 C 38.4 413.9 39.5 415.1 39.5 417.7 C 39.54 417.72 39.5 428.7 39.5 428.7 L 37.4 428.7 Z M 42.8 432.5 C 43 432.6 43.5 432.7 43.7 432.7 C 44.6 432.7 45.1 432.3 45.4 431.2 C 45.45 431.22 46.2 429 46.2 429 L 41.4 414.2 L 43.7 414.2 L 47.3 426.1 L 51 414.2 L 53.3 414.2 C 53.3 414.2 47.49 431.76 47.5 431.8 C 46.8 433.9 45.6 434.6 43.9 434.6 C 43.4 434.6 42.8 434.5 42.4 434.4 C 42.4 434.4 42.8 432.5 42.8 432.5 Z M 57.3 426.6 C 57.27 426.6 57.3 434.2 57.3 434.2 L 55.1 434.2 L 55.1 414.2 L 57.3 414.2 C 57.3 414.2 57.27 416.28 57.3 416.3 C 58.1 414.8 59.5 413.9 61.1 413.9 C 64.3 413.9 66.3 416.9 66.3 421.4 C 66.3 426 64.3 429.1 61.1 429.1 C 59.6 429.1 58.2 428.2 57.3 426.6 Z M 64 421.4 C 64 418.3 62.9 415.8 60.5 415.8 C 59.2 415.8 57.8 416.9 57.3 418.1 C 57.3 418.1 57.3 424.7 57.3 424.7 C 57.8 426 59.2 427.1 60.5 427.1 C 62.9 427.1 64 424.6 64 421.4 Z M 68.8 410.6 C 68.8 409.8 69.4 409.2 70.2 409.2 C 71 409.2 71.7 409.8 71.7 410.6 C 71.7 411.5 71 412.1 70.2 412.1 C 69.4 412.1 68.8 411.5 68.8 410.6 Z M 69.2 428.7 L 69.2 414.2 L 71.3 414.2 L 71.3 428.7 L 69.2 428.7 Z M 74.2 421.4 C 74.2 417.2 76.5 413.9 80.2 413.9 C 82.3 413.9 83.5 414.7 84.4 415.8 C 84.4 415.8 83.2 417.2 83.2 417.2 C 82.4 416.2 81.5 415.8 80.4 415.8 C 77.8 415.8 76.5 418.4 76.5 421.4 C 76.5 424.5 77.8 427.1 80.4 427.1 C 81.5 427.1 82.4 426.7 83.2 425.7 C 83.2 425.7 84.4 427.1 84.4 427.1 C 83.5 428.3 82.3 429.1 80.2 429.1 C 76.5 429.1 74.2 425.7 74.2 421.4 Z M 91.8 427 C 91.8 427 92.9 425.5 92.9 425.5 C 93.7 426.5 95.1 427.3 96.7 427.3 C 98.4 427.3 99.5 426.4 99.5 425 C 99.5 421.6 92.2 422.8 92.2 417.8 C 92.2 415.6 94 413.9 96.9 413.9 C 98.8 413.9 100.3 414.6 101.3 415.7 C 101.3 415.7 100.3 417.2 100.3 417.2 C 99.5 416.2 98.3 415.6 96.9 415.6 C 95.3 415.6 94.3 416.5 94.3 417.7 C 94.3 420.8 101.5 419.7 101.5 424.9 C 101.5 427.3 99.7 429.1 96.7 429.1 C 94.7 429.1 93 428.4 91.8 427 Z M 111.7 428.7 C 111.7 428.7 111.75 427.14 111.7 427.1 C 110.8 428.5 109.4 429.1 107.9 429.1 C 105.6 429.1 103.6 427.3 103.6 424.2 C 103.6 421.2 105.6 419.5 107.9 419.5 C 109.4 419.5 110.8 420 111.7 421.3 C 111.7 421.3 111.7 418.8 111.7 418.8 C 111.7 416.8 110.7 415.7 108.8 415.7 C 107.4 415.7 106.3 416.2 105.1 417.5 C 105.1 417.5 104.2 416 104.2 416 C 105.6 414.5 107.3 413.9 109.1 413.9 C 112 413.9 113.9 415.3 113.9 418.6 C 113.91 418.56 113.9 428.7 113.9 428.7 L 111.7 428.7 Z M 111.7 425.7 C 111.7 425.7 111.7 422.9 111.7 422.9 C 111.1 421.7 109.9 421.1 108.6 421.1 C 106.8 421.1 105.7 422.5 105.7 424.3 C 105.7 426.1 106.8 427.5 108.6 427.5 C 109.9 427.5 111.1 426.9 111.7 425.7 Z M 116.8 421.4 C 116.8 417.2 119.1 413.9 122.8 413.9 C 124.8 413.9 126.1 414.7 127 415.8 C 127 415.8 125.8 417.2 125.8 417.2 C 125 416.2 124.1 415.8 123 415.8 C 120.4 415.8 119.1 418.4 119.1 421.4 C 119.1 424.5 120.4 427.1 123 427.1 C 124.1 427.1 125 426.7 125.8 425.7 C 125.8 425.7 127 427.1 127 427.1 C 126.1 428.3 124.8 429.1 122.8 429.1 C 119.1 429.1 116.8 425.7 116.8 421.4 Z M 128.7 421.4 C 128.7 417.2 131 413.9 134.7 413.9 C 136.7 413.9 137.9 414.7 138.8 415.8 C 138.8 415.8 137.7 417.2 137.7 417.2 C 136.9 416.2 136 415.8 134.9 415.8 C 132.3 415.8 130.9 418.4 130.9 421.4 C 130.9 424.5 132.3 427.1 134.9 427.1 C 136 427.1 136.9 426.7 137.7 425.7 C 137.7 425.7 138.8 427.1 138.8 427.1 C 137.9 428.3 136.7 429.1 134.7 429.1 C 131 429.1 128.7 425.7 128.7 421.4 Z M 149.2 428.7 C 149.2 428.7 149.16 418.35 149.2 418.4 C 149.2 416.4 148.3 415.8 146.8 415.8 C 145.4 415.8 144.1 416.9 143.4 418.1 C 143.43 418.08 143.4 428.7 143.4 428.7 L 141.3 428.7 L 141.3 408.7 L 143.4 408.7 C 143.4 408.7 143.43 416.28 143.4 416.3 C 144.3 415 145.9 413.9 147.7 413.9 C 150.1 413.9 151.3 415.1 151.3 417.7 C 151.29 417.72 151.3 428.7 151.3 428.7 L 149.2 428.7 Z M 162.4 428.7 C 162.4 428.7 162.39 427.14 162.4 427.1 C 161.5 428.5 160 429.1 158.6 429.1 C 156.2 429.1 154.2 427.3 154.2 424.2 C 154.2 421.2 156.2 419.5 158.6 419.5 C 160 419.5 161.5 420 162.4 421.3 C 162.4 421.3 162.4 418.8 162.4 418.8 C 162.4 416.8 161.3 415.7 159.4 415.7 C 158.1 415.7 156.9 416.2 155.8 417.5 C 155.8 417.5 154.8 416 154.8 416 C 156.2 414.5 157.9 413.9 159.7 413.9 C 162.6 413.9 164.5 415.3 164.5 418.6 C 164.55 418.56 164.5 428.7 164.5 428.7 L 162.4 428.7 Z M 162.4 425.7 C 162.4 425.7 162.4 422.9 162.4 422.9 C 161.7 421.7 160.5 421.1 159.3 421.1 C 157.5 421.1 156.4 422.5 156.4 424.3 C 156.4 426.1 157.5 427.5 159.3 427.5 C 160.5 427.5 161.7 426.9 162.4 425.7 Z M 168.2 428.7 L 168.2 414.2 L 170.3 414.2 C 170.3 414.2 170.31 416.52 170.3 416.5 C 171.2 415 172.6 413.9 174.4 413.9 C 174.4 413.9 174.4 416.1 174.4 416.1 C 174.2 416.1 173.9 416 173.7 416 C 172.4 416 170.9 417.2 170.3 418.4 C 170.31 418.41 170.3 428.7 170.3 428.7 L 168.2 428.7 Z M 176.2 410.6 C 176.2 409.8 176.9 409.2 177.7 409.2 C 178.5 409.2 179.1 409.8 179.1 410.6 C 179.1 411.5 178.5 412.1 177.7 412.1 C 176.9 412.1 176.2 411.5 176.2 410.6 Z M 176.6 428.7 L 176.6 414.2 L 178.7 414.2 L 178.7 428.7 L 176.6 428.7 Z M 190.7 428.7 C 190.7 428.7 190.68 426.63 190.7 426.6 C 189.8 428.1 188.4 429.1 186.9 429.1 C 183.6 429.1 181.7 426 181.7 421.5 C 181.7 417 183.6 413.9 186.9 413.9 C 188.3 413.9 189.8 414.7 190.7 416.3 C 190.68 416.31 190.7 408.7 190.7 408.7 L 192.8 408.7 L 192.8 428.7 L 190.7 428.7 Z M 190.7 424.8 C 190.7 424.8 190.7 418.1 190.7 418.1 C 190.1 416.9 188.8 415.8 187.4 415.8 C 185 415.8 183.9 418.3 183.9 421.5 C 183.9 424.6 185 427.1 187.4 427.1 C 188.8 427.1 190.1 426.1 190.7 424.8 Z M 195.8 421.4 C 195.8 417.2 198 413.9 201.7 413.9 C 205.5 413.9 207.4 417.3 207.4 421.5 C 207.39 421.5 207.4 422.2 207.4 422.2 C 207.4 422.2 198 422.16 198 422.2 C 198.1 425.1 199.6 427.3 202.2 427.3 C 203.4 427.3 204.7 426.6 205.6 425.5 C 205.6 425.5 206.8 426.8 206.8 426.8 C 205.6 428.2 203.9 429.1 202 429.1 C 198.1 429.1 195.8 425.9 195.8 421.4 Z M 201.6 415.7 C 199.1 415.7 198.1 418.4 198 420.6 C 198 420.6 205.3 420.6 205.3 420.6 C 205.2 418.4 204.3 415.7 201.6 415.7 Z " stroke="none" fill="#d3d2d2"/>  </g>  <g id="Polygon151016">    <path d="M 12.5 392.7 L 11.2 388.2 L 4.1 388.2 L 2.8 392.7 L 0.2 392.7 L 6.2 372.7 L 9.1 372.7 L 15.1 392.7 L 12.5 392.7 Z M 7.6 375.3 L 4.6 386.1 L 10.7 386.1 L 7.6 375.3 Z M 17 392.7 L 17 378.2 L 19.1 378.2 C 19.1 378.2 19.14 380.52 19.1 380.5 C 20.1 379 21.5 377.9 23.2 377.9 C 23.2 377.9 23.2 380.1 23.2 380.1 C 23 380.1 22.8 380 22.5 380 C 21.2 380 19.7 381.2 19.1 382.4 C 19.14 382.41 19.1 392.7 19.1 392.7 L 17 392.7 Z M 25.9 389.8 C 25.86 389.79 25.9 380.1 25.9 380.1 L 23.9 380.1 L 23.9 378.2 L 25.9 378.2 L 25.9 374.3 L 28 374.3 L 28 378.2 L 30.5 378.2 L 30.5 380.1 L 28 380.1 C 28 380.1 28.02 389.4 28 389.4 C 28 390.5 28.3 391.1 29.2 391.1 C 29.7 391.1 30.2 390.9 30.4 390.6 C 30.4 390.6 31.1 392.2 31.1 392.2 C 30.6 392.7 29.9 393.1 28.8 393.1 C 26.8 393.1 25.9 392 25.9 389.8 Z M 32.6 374.6 C 32.6 373.8 33.3 373.2 34.1 373.2 C 34.9 373.2 35.5 373.8 35.5 374.6 C 35.5 375.5 34.9 376.1 34.1 376.1 C 33.3 376.1 32.6 375.5 32.6 374.6 Z M 33 392.7 L 33 378.2 L 35.2 378.2 L 35.2 392.7 L 33 392.7 Z M 39.3 392.7 L 39.3 380.1 L 37.4 380.1 L 37.4 378.2 L 39.3 378.2 C 39.3 378.2 39.33 376.44 39.3 376.4 C 39.3 373.9 40.8 372.4 42.9 372.4 C 43.6 372.4 44.2 372.5 44.7 372.8 C 44.7 372.8 44.2 374.5 44.2 374.5 C 43.9 374.3 43.6 374.2 43.2 374.2 C 42.1 374.2 41.5 375 41.5 376.4 C 41.49 376.44 41.5 378.2 41.5 378.2 L 43.9 378.2 L 43.9 380.1 L 41.5 380.1 L 41.5 392.7 L 39.3 392.7 Z M 46 374.6 C 46 373.8 46.7 373.2 47.5 373.2 C 48.3 373.2 49 373.8 49 374.6 C 49 375.5 48.3 376.1 47.5 376.1 C 46.7 376.1 46 375.5 46 374.6 Z M 46.4 392.7 L 46.4 378.2 L 48.6 378.2 L 48.6 392.7 L 46.4 392.7 Z M 51.5 385.4 C 51.5 381.2 53.8 377.9 57.5 377.9 C 59.5 377.9 60.7 378.7 61.6 379.8 C 61.6 379.8 60.5 381.2 60.5 381.2 C 59.7 380.2 58.8 379.8 57.7 379.8 C 55.1 379.8 53.8 382.4 53.8 385.4 C 53.8 388.5 55.1 391.1 57.7 391.1 C 58.8 391.1 59.7 390.7 60.5 389.7 C 60.5 389.7 61.6 391.1 61.6 391.1 C 60.7 392.3 59.5 393.1 57.5 393.1 C 53.8 393.1 51.5 389.7 51.5 385.4 Z M 63.7 374.6 C 63.7 373.8 64.4 373.2 65.2 373.2 C 66 373.2 66.6 373.8 66.6 374.6 C 66.6 375.5 66 376.1 65.2 376.1 C 64.4 376.1 63.7 375.5 63.7 374.6 Z M 64.1 392.7 L 64.1 378.2 L 66.2 378.2 L 66.2 392.7 L 64.1 392.7 Z M 77.3 392.7 C 77.3 392.7 77.34 391.14 77.3 391.1 C 76.4 392.5 75 393.1 73.5 393.1 C 71.2 393.1 69.1 391.3 69.1 388.2 C 69.1 385.2 71.2 383.5 73.5 383.5 C 75 383.5 76.4 384 77.3 385.3 C 77.3 385.3 77.3 382.8 77.3 382.8 C 77.3 380.8 76.3 379.7 74.4 379.7 C 73 379.7 71.8 380.2 70.7 381.5 C 70.7 381.5 69.8 380 69.8 380 C 71.2 378.5 72.9 377.9 74.7 377.9 C 77.6 377.9 79.5 379.3 79.5 382.6 C 79.5 382.56 79.5 392.7 79.5 392.7 L 77.3 392.7 Z M 77.3 389.7 C 77.3 389.7 77.3 386.9 77.3 386.9 C 76.7 385.7 75.5 385.1 74.2 385.1 C 72.4 385.1 71.3 386.5 71.3 388.3 C 71.3 390.1 72.4 391.5 74.2 391.5 C 75.5 391.5 76.7 390.9 77.3 389.7 Z M 83.1 392.7 L 83.1 372.7 L 85.3 372.7 L 85.3 392.7 L 83.1 392.7 Z M 95.1 392.7 L 95.1 372.7 L 97.2 372.7 L 97.2 392.7 L 95.1 392.7 Z M 100.1 385.4 C 100.1 381.2 102.4 377.9 106 377.9 C 109.8 377.9 111.7 381.3 111.7 385.5 C 111.75 385.5 111.7 386.2 111.7 386.2 C 111.7 386.2 102.36 386.16 102.4 386.2 C 102.4 389.1 103.9 391.3 106.5 391.3 C 107.8 391.3 109.1 390.6 110 389.5 C 110 389.5 111.1 390.8 111.1 390.8 C 109.9 392.2 108.3 393.1 106.3 393.1 C 102.5 393.1 100.1 389.9 100.1 385.4 Z M 106 379.7 C 103.4 379.7 102.4 382.4 102.4 384.6 C 102.4 384.6 109.6 384.6 109.6 384.6 C 109.6 382.4 108.6 379.7 106 379.7 Z M 114.5 396.8 C 114.5 396.8 115.5 395.1 115.5 395.1 C 116.4 396.2 117.7 396.8 119.2 396.8 C 121.2 396.8 122.9 395.6 122.9 392.8 C 122.9 392.8 122.9 390.4 122.9 390.4 C 122 391.9 120.6 392.9 119.1 392.9 C 115.8 392.9 113.9 389.9 113.9 385.4 C 113.9 380.9 115.8 377.9 119.1 377.9 C 120.5 377.9 122 378.7 122.9 380.3 C 122.88 380.31 122.9 378.2 122.9 378.2 L 125 378.2 C 125 378.2 125.04 392.67 125 392.7 C 125 397.1 122.3 398.6 119.3 398.6 C 117.4 398.6 115.9 398.1 114.5 396.8 Z M 122.9 388.6 C 122.9 388.6 122.9 382.1 122.9 382.1 C 122.3 380.9 121 379.8 119.6 379.8 C 117.2 379.8 116.1 382.3 116.1 385.4 C 116.1 388.5 117.2 391 119.6 391 C 121 391 122.3 389.8 122.9 388.6 Z M 136.5 392.7 C 136.5 392.7 136.53 382.35 136.5 382.4 C 136.5 380.4 135.6 379.8 134.2 379.8 C 132.8 379.8 131.5 380.9 130.8 382.1 C 130.8 382.08 130.8 392.7 130.8 392.7 L 128.7 392.7 L 128.7 372.7 L 130.8 372.7 C 130.8 372.7 130.8 380.28 130.8 380.3 C 131.6 379 133.3 377.9 135 377.9 C 137.5 377.9 138.7 379.1 138.7 381.7 C 138.66 381.72 138.7 392.7 138.7 392.7 L 136.5 392.7 Z M 141.6 385.4 C 141.6 381.2 143.8 377.9 147.5 377.9 C 151.3 377.9 153.2 381.3 153.2 385.5 C 153.21 385.5 153.2 386.2 153.2 386.2 C 153.2 386.2 143.82 386.16 143.8 386.2 C 143.9 389.1 145.4 391.3 148 391.3 C 149.2 391.3 150.5 390.6 151.4 389.5 C 151.4 389.5 152.6 390.8 152.6 390.8 C 151.4 392.2 149.8 393.1 147.8 393.1 C 143.9 393.1 141.6 389.9 141.6 385.4 Z M 147.4 379.7 C 144.9 379.7 143.9 382.4 143.8 384.6 C 143.8 384.6 151.1 384.6 151.1 384.6 C 151 382.4 150.1 379.7 147.4 379.7 Z M 170.7 392.7 C 170.7 392.7 170.69 382.2 170.7 382.2 C 170.7 380.6 170.1 379.8 168.7 379.8 C 167.4 379.8 166.1 380.9 165.5 382.1 C 165.53 382.08 165.5 392.7 165.5 392.7 L 163.4 392.7 C 163.4 392.7 163.37 382.2 163.4 382.2 C 163.4 380.6 162.7 379.8 161.3 379.8 C 160 379.8 158.8 380.9 158.2 382.1 C 158.18 382.08 158.2 392.7 158.2 392.7 L 156.1 392.7 L 156.1 378.2 L 158.2 378.2 C 158.2 378.2 158.18 380.28 158.2 380.3 C 158.8 379.2 160.4 377.9 162.1 377.9 C 164 377.9 165.1 378.9 165.4 380.4 C 166.1 379.1 167.8 377.9 169.5 377.9 C 171.6 377.9 172.9 379 172.9 381.6 C 172.85 381.63 172.9 392.7 172.9 392.7 L 170.7 392.7 Z M 175.8 385.4 C 175.8 381.4 177.8 377.9 181.7 377.9 C 185.6 377.9 187.6 381.4 187.6 385.4 C 187.6 389.5 185.6 393.1 181.7 393.1 C 177.8 393.1 175.8 389.5 175.8 385.4 Z M 185.3 385.4 C 185.3 382.5 184.2 379.8 181.7 379.8 C 179.2 379.8 178 382.5 178 385.4 C 178 388.4 179.2 391.1 181.7 391.1 C 184.2 391.1 185.3 388.4 185.3 385.4 Z M 190.4 396.8 C 190.4 396.8 191.4 395.1 191.4 395.1 C 192.4 396.2 193.6 396.8 195.2 396.8 C 197.2 396.8 198.8 395.6 198.8 392.8 C 198.8 392.8 198.8 390.4 198.8 390.4 C 198 391.9 196.5 392.9 195 392.9 C 191.8 392.9 189.8 389.9 189.8 385.4 C 189.8 380.9 191.7 377.9 195 377.9 C 196.5 377.9 197.9 378.7 198.8 380.3 C 198.8 380.31 198.8 378.2 198.8 378.2 L 201 378.2 C 201 378.2 200.96 392.67 201 392.7 C 201 397.1 198.3 398.6 195.2 398.6 C 193.3 398.6 191.8 398.1 190.4 396.8 Z M 198.8 388.6 C 198.8 388.6 198.8 382.1 198.8 382.1 C 198.3 380.9 196.9 379.8 195.5 379.8 C 193.2 379.8 192.1 382.3 192.1 385.4 C 192.1 388.5 193.2 391 195.5 391 C 196.9 391 198.3 389.8 198.8 388.6 Z M 204.6 392.7 L 204.6 372.7 L 206.7 372.7 L 206.7 392.7 L 204.6 392.7 Z M 209.7 385.4 C 209.7 381.4 211.7 377.9 215.5 377.9 C 219.4 377.9 221.5 381.4 221.5 385.4 C 221.5 389.5 219.4 393.1 215.5 393.1 C 211.7 393.1 209.7 389.5 209.7 385.4 Z M 219.2 385.4 C 219.2 382.5 218.1 379.8 215.5 379.8 C 213.1 379.8 211.9 382.5 211.9 385.4 C 211.9 388.4 213.1 391.1 215.5 391.1 C 218.1 391.1 219.2 388.4 219.2 385.4 Z M 229.8 391.1 C 232.2 391.1 233.3 388.6 233.3 385.5 C 233.3 382.3 232.2 379.8 229.8 379.8 C 228.4 379.8 227.1 380.9 226.5 382.2 C 226.5 382.2 226.5 388.8 226.5 388.8 C 227.1 390.1 228.4 391.1 229.8 391.1 Z M 224.4 392.7 L 224.4 372.7 L 226.5 372.7 C 226.5 372.7 226.52 380.31 226.5 380.3 C 227.4 378.7 228.9 377.9 230.3 377.9 C 233.6 377.9 235.5 381 235.5 385.5 C 235.5 390 233.6 393.1 230.3 393.1 C 228.8 393.1 227.4 392.1 226.5 390.6 C 226.52 390.63 226.5 392.7 226.5 392.7 L 224.4 392.7 Z M 238.1 374.6 C 238.1 373.8 238.8 373.2 239.5 373.2 C 240.4 373.2 241 373.8 241 374.6 C 241 375.5 240.4 376.1 239.5 376.1 C 238.8 376.1 238.1 375.5 238.1 374.6 Z M 238.5 392.7 L 238.5 378.2 L 240.6 378.2 L 240.6 392.7 L 238.5 392.7 Z M 252.1 392.7 C 252.1 392.7 252.11 382.38 252.1 382.4 C 252.1 380.5 251.2 379.8 249.8 379.8 C 248.4 379.8 247.1 380.9 246.4 382.1 C 246.41 382.08 246.4 392.7 246.4 392.7 L 244.3 392.7 L 244.3 378.2 L 246.4 378.2 C 246.4 378.2 246.41 380.28 246.4 380.3 C 247.3 379 248.9 377.9 250.6 377.9 C 253.1 377.9 254.3 379.2 254.3 381.8 C 254.27 381.78 254.3 392.7 254.3 392.7 L 252.1 392.7 Z " stroke="none" fill="#d3d2d2"/>  </g>  <g id="Polygon151015">    <path d="M 1.4 346.7 C 1.4 340.7 4.4 336.4 9.2 336.4 C 12.2 336.4 13.9 338.2 15 340.3 C 15 340.3 13 341.2 13 341.2 C 12.2 339.6 10.9 338.5 9.2 338.5 C 5.9 338.5 3.9 342 3.9 346.7 C 3.9 351.5 5.9 354.9 9.2 354.9 C 11 354.9 12.3 353.7 13.1 352 C 13.1 352 15.1 352.9 15.1 352.9 C 14 355.1 12.3 357.1 9.2 357.1 C 4.4 357.1 1.4 352.7 1.4 346.7 Z M 25.1 356.7 C 25.1 356.7 25.11 355.14 25.1 355.1 C 24.2 356.5 22.8 357.1 21.3 357.1 C 19 357.1 16.9 355.3 16.9 352.2 C 16.9 349.2 18.9 347.5 21.3 347.5 C 22.8 347.5 24.2 348 25.1 349.3 C 25.1 349.3 25.1 346.8 25.1 346.8 C 25.1 344.8 24 343.7 22.1 343.7 C 20.8 343.7 19.6 344.2 18.5 345.5 C 18.5 345.5 17.5 344 17.5 344 C 18.9 342.5 20.6 341.9 22.5 341.9 C 25.3 341.9 27.3 343.3 27.3 346.6 C 27.27 346.56 27.3 356.7 27.3 356.7 L 25.1 356.7 Z M 25.1 353.7 C 25.1 353.7 25.1 350.9 25.1 350.9 C 24.4 349.7 23.2 349.1 22 349.1 C 20.2 349.1 19.1 350.5 19.1 352.3 C 19.1 354.1 20.2 355.5 22 355.5 C 23.2 355.5 24.4 354.9 25.1 353.7 Z M 30.9 356.7 L 30.9 342.2 L 33 342.2 C 33 342.2 33.03 344.52 33 344.5 C 34 343 35.4 341.9 37.1 341.9 C 37.1 341.9 37.1 344.1 37.1 344.1 C 36.9 344.1 36.7 344 36.4 344 C 35.1 344 33.6 345.2 33 346.4 C 33.03 346.41 33 356.7 33 356.7 L 30.9 356.7 Z M 44.7 355.1 C 47.1 355.1 48.2 352.6 48.2 349.5 C 48.2 346.3 47.1 343.8 44.7 343.8 C 43.4 343.8 42 344.9 41.5 346.2 C 41.5 346.2 41.5 352.8 41.5 352.8 C 42 354.1 43.4 355.1 44.7 355.1 Z M 39.3 356.7 L 39.3 336.7 L 41.5 336.7 C 41.5 336.7 41.46 344.31 41.5 344.3 C 42.4 342.7 43.8 341.9 45.3 341.9 C 48.5 341.9 50.5 345 50.5 349.5 C 50.5 354 48.5 357.1 45.3 357.1 C 43.7 357.1 42.3 356.1 41.5 354.6 C 41.46 354.63 41.5 356.7 41.5 356.7 L 39.3 356.7 Z M 52.7 349.4 C 52.7 345.4 54.7 341.9 58.6 341.9 C 62.5 341.9 64.5 345.4 64.5 349.4 C 64.5 353.5 62.5 357.1 58.6 357.1 C 54.7 357.1 52.7 353.5 52.7 349.4 Z M 62.2 349.4 C 62.2 346.5 61.1 343.8 58.6 343.8 C 56.1 343.8 55 346.5 55 349.4 C 55 352.4 56.1 355.1 58.6 355.1 C 61.1 355.1 62.2 352.4 62.2 349.4 Z M 74.1 356.7 L 70.8 350.9 L 67.5 356.7 L 65.1 356.7 L 69.5 349.3 L 65.3 342.2 L 67.7 342.2 L 70.8 347.7 L 73.9 342.2 L 76.3 342.2 L 72.1 349.3 L 76.5 356.7 L 74.1 356.7 Z M 78.1 360.5 C 78.4 360.6 78.9 360.7 79.1 360.7 C 79.9 360.7 80.4 360.3 80.8 359.2 C 80.82 359.22 81.6 357 81.6 357 L 76.8 342.2 L 79.1 342.2 L 82.7 354.1 L 86.3 342.2 L 88.6 342.2 C 88.6 342.2 82.86 359.76 82.9 359.8 C 82.1 361.9 81 362.6 79.3 362.6 C 78.8 362.6 78.1 362.5 77.8 362.4 C 77.8 362.4 78.1 360.5 78.1 360.5 Z M 105.1 356.7 C 105.1 356.7 105.15 346.2 105.1 346.2 C 105.1 344.6 104.5 343.8 103.1 343.8 C 101.8 343.8 100.6 344.9 100 346.1 C 99.99 346.08 100 356.7 100 356.7 L 97.8 356.7 C 97.8 356.7 97.83 346.2 97.8 346.2 C 97.8 344.6 97.2 343.8 95.8 343.8 C 94.5 343.8 93.3 344.9 92.6 346.1 C 92.64 346.08 92.6 356.7 92.6 356.7 L 90.5 356.7 L 90.5 342.2 L 92.6 342.2 C 92.6 342.2 92.64 344.28 92.6 344.3 C 93.2 343.2 94.9 341.9 96.6 341.9 C 98.5 341.9 99.6 342.9 99.9 344.4 C 100.6 343.1 102.2 341.9 103.9 341.9 C 106.1 341.9 107.3 343 107.3 345.6 C 107.31 345.63 107.3 356.7 107.3 356.7 L 105.1 356.7 Z M 110.2 349.4 C 110.2 345.2 112.5 341.9 116.1 341.9 C 119.9 341.9 121.9 345.3 121.9 349.5 C 121.86 349.5 121.9 350.2 121.9 350.2 C 121.9 350.2 112.47 350.16 112.5 350.2 C 112.6 353.1 114.1 355.3 116.6 355.3 C 117.9 355.3 119.2 354.6 120.1 353.5 C 120.1 353.5 121.2 354.8 121.2 354.8 C 120.1 356.2 118.4 357.1 116.5 357.1 C 112.6 357.1 110.2 353.9 110.2 349.4 Z M 116.1 343.7 C 113.5 343.7 112.5 346.4 112.5 348.6 C 112.5 348.6 119.7 348.6 119.7 348.6 C 119.7 346.4 118.7 343.7 116.1 343.7 Z M 125.1 353.8 C 125.13 353.79 125.1 344.1 125.1 344.1 L 123.2 344.1 L 123.2 342.2 L 125.1 342.2 L 125.1 338.3 L 127.3 338.3 L 127.3 342.2 L 129.7 342.2 L 129.7 344.1 L 127.3 344.1 C 127.3 344.1 127.29 353.4 127.3 353.4 C 127.3 354.5 127.6 355.1 128.5 355.1 C 129 355.1 129.4 354.9 129.7 354.6 C 129.7 354.6 130.4 356.2 130.4 356.2 C 129.9 356.7 129.1 357.1 128 357.1 C 126.1 357.1 125.1 356 125.1 353.8 Z M 140.2 356.7 C 140.2 356.7 140.16 346.35 140.2 346.4 C 140.2 344.4 139.3 343.8 137.8 343.8 C 136.4 343.8 135.1 344.9 134.4 346.1 C 134.43 346.08 134.4 356.7 134.4 356.7 L 132.3 356.7 L 132.3 336.7 L 134.4 336.7 C 134.4 336.7 134.43 344.28 134.4 344.3 C 135.3 343 136.9 341.9 138.7 341.9 C 141.1 341.9 142.3 343.1 142.3 345.7 C 142.29 345.72 142.3 356.7 142.3 356.7 L 140.2 356.7 Z M 145.5 360.5 C 145.8 360.6 146.2 360.7 146.5 360.7 C 147.3 360.7 147.8 360.3 148.2 359.2 C 148.2 359.22 149 357 149 357 L 144.1 342.2 L 146.5 342.2 L 150.1 354.1 L 153.7 342.2 L 156 342.2 C 156 342.2 150.24 359.76 150.2 359.8 C 149.5 361.9 148.3 362.6 146.6 362.6 C 146.2 362.6 145.5 362.5 145.2 362.4 C 145.2 362.4 145.5 360.5 145.5 360.5 Z M 157.9 356.7 L 157.9 336.7 L 160 336.7 L 160 356.7 L 157.9 356.7 Z M 168.7 355 C 168.7 355 169.7 353.5 169.7 353.5 C 170.6 354.5 172 355.3 173.5 355.3 C 175.2 355.3 176.3 354.4 176.3 353 C 176.3 349.6 169.1 350.8 169.1 345.8 C 169.1 343.6 170.8 341.9 173.7 341.9 C 175.6 341.9 177.1 342.6 178.1 343.7 C 178.1 343.7 177.1 345.2 177.1 345.2 C 176.4 344.2 175.1 343.6 173.7 343.6 C 172.1 343.6 171.1 344.5 171.1 345.7 C 171.1 348.8 178.4 347.7 178.4 352.9 C 178.4 355.3 176.5 357.1 173.5 357.1 C 171.5 357.1 169.9 356.4 168.7 355 Z M 189 356.7 C 189 356.7 188.97 354.69 189 354.7 C 188.1 356 186.6 357.1 184.8 357.1 C 182.3 357.1 181.1 355.8 181.1 353.2 C 181.14 353.19 181.1 342.2 181.1 342.2 L 183.3 342.2 C 183.3 342.2 183.27 352.56 183.3 352.6 C 183.3 354.5 184.2 355.1 185.6 355.1 C 187 355.1 188.3 354.1 189 352.9 C 188.97 352.89 189 342.2 189 342.2 L 191.1 342.2 L 191.1 356.7 L 189 356.7 Z M 194.8 356.7 L 194.8 336.7 L 196.9 336.7 L 196.9 356.7 L 194.8 356.7 Z M 201.1 356.7 L 201.1 344.1 L 199.2 344.1 L 199.2 342.2 L 201.1 342.2 C 201.1 342.2 201.09 340.44 201.1 340.4 C 201.1 337.9 202.5 336.4 204.6 336.4 C 205.4 336.4 206 336.5 206.5 336.8 C 206.5 336.8 205.9 338.5 205.9 338.5 C 205.7 338.3 205.4 338.2 205 338.2 C 203.9 338.2 203.2 339 203.2 340.4 C 203.25 340.44 203.2 342.2 203.2 342.2 L 205.7 342.2 L 205.7 344.1 L 203.2 344.1 L 203.2 356.7 L 201.1 356.7 Z M 207.8 338.6 C 207.8 337.8 208.5 337.2 209.2 337.2 C 210.1 337.2 210.7 337.8 210.7 338.6 C 210.7 339.5 210.1 340.1 209.2 340.1 C 208.5 340.1 207.8 339.5 207.8 338.6 Z M 208.2 356.7 L 208.2 342.2 L 210.3 342.2 L 210.3 356.7 L 208.2 356.7 Z M 214.4 353.8 C 214.4 353.79 214.4 344.1 214.4 344.1 L 212.5 344.1 L 212.5 342.2 L 214.4 342.2 L 214.4 338.3 L 216.6 338.3 L 216.6 342.2 L 219 342.2 L 219 344.1 L 216.6 344.1 C 216.6 344.1 216.56 353.4 216.6 353.4 C 216.6 354.5 216.9 355.1 217.7 355.1 C 218.3 355.1 218.7 354.9 219 354.6 C 219 354.6 219.7 356.2 219.7 356.2 C 219.1 356.7 218.4 357.1 217.3 357.1 C 215.3 357.1 214.4 356 214.4 353.8 Z M 220.9 349.4 C 220.9 345.2 223.1 341.9 226.7 341.9 C 230.5 341.9 232.5 345.3 232.5 349.5 C 232.46 349.5 232.5 350.2 232.5 350.2 C 232.5 350.2 223.07 350.16 223.1 350.2 C 223.2 353.1 224.7 355.3 227.2 355.3 C 228.5 355.3 229.8 354.6 230.7 353.5 C 230.7 353.5 231.8 354.8 231.8 354.8 C 230.7 356.2 229 357.1 227.1 357.1 C 223.2 357.1 220.9 353.9 220.9 349.4 Z M 226.7 343.7 C 224.2 343.7 223.1 346.4 223.1 348.6 C 223.1 348.6 230.3 348.6 230.3 348.6 C 230.3 346.4 229.3 343.7 226.7 343.7 Z " stroke="none" fill="#d3d2d2"/>  </g>  <g id="Polygon151014">    <path d="M 2.1 320.7 L 2.1 300.7 C 2.1 300.7 8.19 300.69 8.2 300.7 C 11.8 300.7 13.7 303.5 13.7 306.7 C 13.7 309.9 11.8 312.7 8.2 312.7 C 8.19 312.69 4.5 312.7 4.5 312.7 L 4.5 320.7 L 2.1 320.7 Z M 11.3 306.7 C 11.3 304.4 10 302.8 7.9 302.8 C 7.95 302.79 4.5 302.8 4.5 302.8 L 4.5 310.6 C 4.5 310.6 7.95 310.59 7.9 310.6 C 10 310.6 11.3 309 11.3 306.7 Z M 24.1 320.7 C 24.1 320.7 24.15 310.35 24.1 310.4 C 24.1 308.4 23.2 307.8 21.8 307.8 C 20.4 307.8 19.1 308.9 18.4 310.1 C 18.42 310.08 18.4 320.7 18.4 320.7 L 16.3 320.7 L 16.3 300.7 L 18.4 300.7 C 18.4 300.7 18.42 308.28 18.4 308.3 C 19.3 307 20.9 305.9 22.6 305.9 C 25.1 305.9 26.3 307.1 26.3 309.7 C 26.28 309.72 26.3 320.7 26.3 320.7 L 24.1 320.7 Z M 29.2 313.4 C 29.2 309.2 31.4 305.9 35.1 305.9 C 38.9 305.9 40.8 309.3 40.8 313.5 C 40.83 313.5 40.8 314.2 40.8 314.2 C 40.8 314.2 31.44 314.16 31.4 314.2 C 31.5 317.1 33 319.3 35.6 319.3 C 36.9 319.3 38.2 318.6 39.1 317.5 C 39.1 317.5 40.2 318.8 40.2 318.8 C 39 320.2 37.4 321.1 35.4 321.1 C 31.6 321.1 29.2 317.9 29.2 313.4 Z M 35.1 307.7 C 32.5 307.7 31.5 310.4 31.4 312.6 C 31.4 312.6 38.7 312.6 38.7 312.6 C 38.7 310.4 37.7 307.7 35.1 307.7 Z M 51.5 320.7 C 51.5 320.7 51.51 310.38 51.5 310.4 C 51.5 308.5 50.6 307.8 49.2 307.8 C 47.8 307.8 46.5 308.9 45.8 310.1 C 45.81 310.08 45.8 320.7 45.8 320.7 L 43.7 320.7 L 43.7 306.2 L 45.8 306.2 C 45.8 306.2 45.81 308.28 45.8 308.3 C 46.6 307 48.3 305.9 50 305.9 C 52.5 305.9 53.7 307.2 53.7 309.8 C 53.67 309.78 53.7 320.7 53.7 320.7 L 51.5 320.7 Z M 56.9 324.5 C 57.2 324.6 57.6 324.7 57.9 324.7 C 58.7 324.7 59.2 324.3 59.6 323.2 C 59.58 323.22 60.4 321 60.4 321 L 55.5 306.2 L 57.9 306.2 L 61.5 318.1 L 65.1 306.2 L 67.4 306.2 C 67.4 306.2 61.62 323.76 61.6 323.8 C 60.9 325.9 59.7 326.6 58 326.6 C 57.6 326.6 56.9 326.5 56.6 326.4 C 56.6 326.4 56.9 324.5 56.9 324.5 Z M 69.3 320.7 L 69.3 300.7 L 71.4 300.7 L 71.4 320.7 L 69.3 320.7 Z M 74 314.4 L 74 312.5 L 80.2 312.5 L 80.2 314.4 L 74 314.4 Z M 82.3 317.8 C 82.3 317.8 83.9 316.4 83.9 316.4 C 84.9 318 86.2 318.9 88.2 318.9 C 90.4 318.9 91.7 316.9 91.7 314.6 C 91.7 311.7 90.4 310.2 88.3 310.2 C 86.9 310.2 85.8 310.7 84.7 312 C 84.69 312.03 82.9 311.4 82.9 311.4 L 82.9 300.7 L 93.1 300.7 L 93.1 302.8 L 85.3 302.8 C 85.3 302.8 85.29 309.81 85.3 309.8 C 86.1 308.9 87.4 308.1 89 308.1 C 91.9 308.1 94.2 310.4 94.2 314.5 C 94.2 318.3 91.7 321.1 88.2 321.1 C 85.3 321.1 83.6 319.8 82.3 317.8 Z M 96.1 314.4 L 96.1 312.5 L 102.3 312.5 L 102.3 314.4 L 96.1 314.4 Z M 112.3 320.7 C 112.3 320.7 112.35 319.14 112.3 319.1 C 111.4 320.5 110 321.1 108.5 321.1 C 106.2 321.1 104.2 319.3 104.2 316.2 C 104.2 313.2 106.2 311.5 108.5 311.5 C 110 311.5 111.4 312 112.3 313.3 C 112.3 313.3 112.3 310.8 112.3 310.8 C 112.3 308.8 111.3 307.7 109.4 307.7 C 108 307.7 106.9 308.2 105.7 309.5 C 105.7 309.5 104.8 308 104.8 308 C 106.2 306.5 107.9 305.9 109.7 305.9 C 112.6 305.9 114.5 307.3 114.5 310.6 C 114.51 310.56 114.5 320.7 114.5 320.7 L 112.3 320.7 Z M 112.3 317.7 C 112.3 317.7 112.3 314.9 112.3 314.9 C 111.7 313.7 110.5 313.1 109.2 313.1 C 107.4 313.1 106.3 314.5 106.3 316.3 C 106.3 318.1 107.4 319.5 109.2 319.5 C 110.5 319.5 111.7 318.9 112.3 317.7 Z M 132.8 320.7 C 132.8 320.7 132.78 310.2 132.8 310.2 C 132.8 308.6 132.1 307.8 130.8 307.8 C 129.5 307.8 128.2 308.9 127.6 310.1 C 127.62 310.08 127.6 320.7 127.6 320.7 L 125.5 320.7 C 125.5 320.7 125.46 310.2 125.5 310.2 C 125.5 308.6 124.8 307.8 123.4 307.8 C 122.1 307.8 120.9 308.9 120.3 310.1 C 120.27 310.08 120.3 320.7 120.3 320.7 L 118.1 320.7 L 118.1 306.2 L 120.3 306.2 C 120.3 306.2 120.27 308.28 120.3 308.3 C 120.9 307.2 122.5 305.9 124.2 305.9 C 126.1 305.9 127.2 306.9 127.5 308.4 C 128.2 307.1 129.8 305.9 131.6 305.9 C 133.7 305.9 134.9 307 134.9 309.6 C 134.94 309.63 134.9 320.7 134.9 320.7 L 132.8 320.7 Z M 137.9 313.4 C 137.9 309.2 140.1 305.9 143.8 305.9 C 147.6 305.9 149.5 309.3 149.5 313.5 C 149.49 313.5 149.5 314.2 149.5 314.2 C 149.5 314.2 140.1 314.16 140.1 314.2 C 140.2 317.1 141.7 319.3 144.3 319.3 C 145.5 319.3 146.8 318.6 147.7 317.5 C 147.7 317.5 148.9 318.8 148.9 318.8 C 147.7 320.2 146 321.1 144.1 321.1 C 140.2 321.1 137.9 317.9 137.9 313.4 Z M 143.7 307.7 C 141.2 307.7 140.2 310.4 140.1 312.6 C 140.1 312.6 147.4 312.6 147.4 312.6 C 147.3 310.4 146.4 307.7 143.7 307.7 Z M 151.6 313.4 C 151.6 309.2 153.9 305.9 157.6 305.9 C 159.6 305.9 160.9 306.7 161.8 307.8 C 161.8 307.8 160.6 309.2 160.6 309.2 C 159.8 308.2 158.9 307.8 157.8 307.8 C 155.2 307.8 153.9 310.4 153.9 313.4 C 153.9 316.5 155.2 319.1 157.8 319.1 C 158.9 319.1 159.8 318.7 160.6 317.7 C 160.6 317.7 161.8 319.1 161.8 319.1 C 160.9 320.3 159.6 321.1 157.6 321.1 C 153.9 321.1 151.6 317.7 151.6 313.4 Z M 164.6 317.8 C 164.64 317.79 164.6 308.1 164.6 308.1 L 162.7 308.1 L 162.7 306.2 L 164.6 306.2 L 164.6 302.3 L 166.8 302.3 L 166.8 306.2 L 169.3 306.2 L 169.3 308.1 L 166.8 308.1 C 166.8 308.1 166.8 317.4 166.8 317.4 C 166.8 318.5 167.1 319.1 168 319.1 C 168.5 319.1 169 318.9 169.2 318.6 C 169.2 318.6 169.9 320.2 169.9 320.2 C 169.4 320.7 168.7 321.1 167.5 321.1 C 165.6 321.1 164.6 320 164.6 317.8 Z M 171.4 302.6 C 171.4 301.8 172.1 301.2 172.9 301.2 C 173.7 301.2 174.3 301.8 174.3 302.6 C 174.3 303.5 173.7 304.1 172.9 304.1 C 172.1 304.1 171.4 303.5 171.4 302.6 Z M 171.8 320.7 L 171.8 306.2 L 173.9 306.2 L 173.9 320.7 L 171.8 320.7 Z M 185.4 320.7 C 185.4 320.7 185.43 310.38 185.4 310.4 C 185.4 308.5 184.6 307.8 183.1 307.8 C 181.7 307.8 180.4 308.9 179.7 310.1 C 179.73 310.08 179.7 320.7 179.7 320.7 L 177.6 320.7 L 177.6 306.2 L 179.7 306.2 C 179.7 306.2 179.73 308.28 179.7 308.3 C 180.6 307 182.2 305.9 183.9 305.9 C 186.4 305.9 187.6 307.2 187.6 309.8 C 187.59 309.78 187.6 320.7 187.6 320.7 L 185.4 320.7 Z " stroke="none" fill="#d3d2d2"/>  </g>  <g id="Polygon151013">    <path d="M 2.1 284.7 L 2.1 264.7 L 4.5 264.7 L 4.5 282.6 L 11.7 282.6 L 11.7 284.7 L 2.1 284.7 Z M 12.4 288.5 C 12.7 288.6 13.1 288.7 13.4 288.7 C 14.2 288.7 14.7 288.3 15.1 287.2 C 15.06 287.22 15.8 285 15.8 285 L 11 270.2 L 13.4 270.2 L 17 282.1 L 20.6 270.2 L 22.9 270.2 C 22.9 270.2 17.1 287.76 17.1 287.8 C 16.4 289.9 15.2 290.6 13.5 290.6 C 13.1 290.6 12.4 290.5 12.1 290.4 C 12.1 290.4 12.4 288.5 12.4 288.5 Z M 23.6 283 C 23.6 283 24.7 281.5 24.7 281.5 C 25.5 282.5 26.9 283.3 28.4 283.3 C 30.1 283.3 31.2 282.4 31.2 281 C 31.2 277.6 24 278.8 24 273.8 C 24 271.6 25.7 269.9 28.6 269.9 C 30.5 269.9 32 270.6 33 271.7 C 33 271.7 32 273.2 32 273.2 C 31.3 272.2 30.1 271.6 28.6 271.6 C 27.1 271.6 26.1 272.5 26.1 273.7 C 26.1 276.8 33.3 275.7 33.3 280.9 C 33.3 283.3 31.4 285.1 28.5 285.1 C 26.4 285.1 24.8 284.4 23.6 283 Z M 34.9 283 C 34.9 283 36 281.5 36 281.5 C 36.8 282.5 38.2 283.3 39.7 283.3 C 41.4 283.3 42.5 282.4 42.5 281 C 42.5 277.6 35.3 278.8 35.3 273.8 C 35.3 271.6 37 269.9 39.9 269.9 C 41.8 269.9 43.3 270.6 44.3 271.7 C 44.3 271.7 43.3 273.2 43.3 273.2 C 42.6 272.2 41.4 271.6 40 271.6 C 38.4 271.6 37.4 272.5 37.4 273.7 C 37.4 276.8 44.6 275.7 44.6 280.9 C 44.6 283.3 42.7 285.1 39.8 285.1 C 37.7 285.1 36.1 284.4 34.9 283 Z M 46.6 277.4 C 46.6 273.4 48.7 269.9 52.5 269.9 C 56.4 269.9 58.4 273.4 58.4 277.4 C 58.4 281.5 56.4 285.1 52.5 285.1 C 48.7 285.1 46.6 281.5 46.6 277.4 Z M 56.2 277.4 C 56.2 274.5 55.1 271.8 52.5 271.8 C 50 271.8 48.9 274.5 48.9 277.4 C 48.9 280.4 50 283.1 52.5 283.1 C 55.1 283.1 56.2 280.4 56.2 277.4 Z M 60.7 277.4 C 60.7 273.2 62.9 269.9 66.7 269.9 C 68.7 269.9 69.9 270.7 70.8 271.8 C 70.8 271.8 69.6 273.2 69.6 273.2 C 68.8 272.2 67.9 271.8 66.8 271.8 C 64.3 271.8 62.9 274.4 62.9 277.4 C 62.9 280.5 64.3 283.1 66.8 283.1 C 67.9 283.1 68.8 282.7 69.6 281.7 C 69.6 281.7 70.8 283.1 70.8 283.1 C 69.9 284.3 68.7 285.1 66.7 285.1 C 62.9 285.1 60.7 281.7 60.7 277.4 Z M 72.8 266.6 C 72.8 265.8 73.5 265.2 74.3 265.2 C 75.1 265.2 75.8 265.8 75.8 266.6 C 75.8 267.5 75.1 268.1 74.3 268.1 C 73.5 268.1 72.8 267.5 72.8 266.6 Z M 73.3 284.7 L 73.3 270.2 L 75.4 270.2 L 75.4 284.7 L 73.3 284.7 Z M 86.9 284.7 C 86.9 284.7 86.88 274.38 86.9 274.4 C 86.9 272.5 86 271.8 84.6 271.8 C 83.2 271.8 81.8 272.9 81.2 274.1 C 81.18 274.08 81.2 284.7 81.2 284.7 L 79 284.7 L 79 270.2 L 81.2 270.2 C 81.2 270.2 81.18 272.28 81.2 272.3 C 82 271 83.6 269.9 85.4 269.9 C 87.8 269.9 89 271.2 89 273.8 C 89.04 273.78 89 284.7 89 284.7 L 86.9 284.7 Z M 92 277.4 C 92 273.2 94.2 269.9 97.9 269.9 C 101.7 269.9 103.6 273.3 103.6 277.5 C 103.59 277.5 103.6 278.2 103.6 278.2 C 103.6 278.2 94.2 278.16 94.2 278.2 C 94.3 281.1 95.8 283.3 98.4 283.3 C 99.6 283.3 100.9 282.6 101.8 281.5 C 101.8 281.5 103 282.8 103 282.8 C 101.8 284.2 100.1 285.1 98.2 285.1 C 94.3 285.1 92 281.9 92 277.4 Z M 97.8 271.7 C 95.3 271.7 94.3 274.4 94.2 276.6 C 94.2 276.6 101.5 276.6 101.5 276.6 C 101.4 274.4 100.5 271.7 97.8 271.7 Z " stroke="none" fill="#d3d2d2"/>  </g>  <g id="Polygon151012">    <path d="M 2.1 248.7 L 2.1 228.7 C 2.1 228.7 7.44 228.69 7.4 228.7 C 12.6 228.7 15.5 233 15.5 238.7 C 15.5 244.5 12.6 248.7 7.4 248.7 C 7.44 248.7 2.1 248.7 2.1 248.7 Z M 13 238.7 C 13 234.2 11.2 230.8 7.4 230.8 C 7.44 230.79 4.5 230.8 4.5 230.8 L 4.5 246.6 C 4.5 246.6 7.44 246.57 7.4 246.6 C 11.1 246.6 13 243.2 13 238.7 Z M 26.4 248.7 C 26.4 248.7 26.43 246.69 26.4 246.7 C 25.6 248 24 249.1 22.2 249.1 C 19.8 249.1 18.6 247.8 18.6 245.2 C 18.6 245.19 18.6 234.2 18.6 234.2 L 20.7 234.2 C 20.7 234.2 20.73 244.56 20.7 244.6 C 20.7 246.5 21.6 247.1 23 247.1 C 24.5 247.1 25.8 246.1 26.4 244.9 C 26.43 244.89 26.4 234.2 26.4 234.2 L 28.6 234.2 L 28.6 248.7 L 26.4 248.7 Z M 31.5 241.4 C 31.5 237.4 33.6 233.9 37.4 233.9 C 41.3 233.9 43.3 237.4 43.3 241.4 C 43.3 245.5 41.3 249.1 37.4 249.1 C 33.6 249.1 31.5 245.5 31.5 241.4 Z M 41.1 241.4 C 41.1 238.5 40 235.8 37.4 235.8 C 34.9 235.8 33.8 238.5 33.8 241.4 C 33.8 244.4 34.9 247.1 37.4 247.1 C 40 247.1 41.1 244.4 41.1 241.4 Z M 46.8 248.7 L 46.8 236.1 L 44.8 236.1 L 44.8 234.2 L 46.8 234.2 C 46.8 234.2 46.77 232.44 46.8 232.4 C 46.8 229.9 48.1 228.4 50.4 228.4 C 51.4 228.4 52.3 228.7 53 229.4 C 53 229.4 52.1 230.9 52.1 230.9 C 51.7 230.5 51.3 230.2 50.7 230.2 C 49.5 230.2 48.9 231 48.9 232.4 C 48.93 232.44 48.9 234.2 48.9 234.2 L 51.4 234.2 L 51.4 236.1 L 48.9 236.1 L 48.9 248.7 L 46.8 248.7 Z M 61 248.7 C 61 248.7 61.02 247.14 61 247.1 C 60.1 248.5 58.7 249.1 57.2 249.1 C 54.9 249.1 52.8 247.3 52.8 244.2 C 52.8 241.2 54.8 239.5 57.2 239.5 C 58.7 239.5 60.1 240 61 241.3 C 61 241.3 61 238.8 61 238.8 C 61 236.8 59.9 235.7 58 235.7 C 56.7 235.7 55.5 236.2 54.4 237.5 C 54.4 237.5 53.5 236 53.5 236 C 54.8 234.5 56.5 233.9 58.4 233.9 C 61.3 233.9 63.2 235.3 63.2 238.6 C 63.18 238.56 63.2 248.7 63.2 248.7 L 61 248.7 Z M 61 245.7 C 61 245.7 61 242.9 61 242.9 C 60.4 241.7 59.2 241.1 57.9 241.1 C 56.1 241.1 55 242.5 55 244.3 C 55 246.1 56.1 247.5 57.9 247.5 C 59.2 247.5 60.4 246.9 61 245.7 Z M 74.6 248.7 C 74.6 248.7 74.64 238.38 74.6 238.4 C 74.6 236.5 73.8 235.8 72.3 235.8 C 70.9 235.8 69.6 236.9 68.9 238.1 C 68.94 238.08 68.9 248.7 68.9 248.7 L 66.8 248.7 L 66.8 234.2 L 68.9 234.2 C 68.9 234.2 68.94 236.28 68.9 236.3 C 69.8 235 71.4 233.9 73.1 233.9 C 75.6 233.9 76.8 235.2 76.8 237.8 C 76.8 237.78 76.8 248.7 76.8 248.7 L 74.6 248.7 Z M 80.9 245.8 C 80.88 245.79 80.9 236.1 80.9 236.1 L 79 236.1 L 79 234.2 L 80.9 234.2 L 80.9 230.3 L 83 230.3 L 83 234.2 L 85.5 234.2 L 85.5 236.1 L 83 236.1 C 83 236.1 83.04 245.4 83 245.4 C 83 246.5 83.4 247.1 84.2 247.1 C 84.7 247.1 85.2 246.9 85.5 246.6 C 85.5 246.6 86.1 248.2 86.1 248.2 C 85.6 248.7 84.9 249.1 83.8 249.1 C 81.8 249.1 80.9 248 80.9 245.8 Z M 95.9 248.7 C 95.9 248.7 95.91 238.35 95.9 238.4 C 95.9 236.4 95 235.8 93.6 235.8 C 92.2 235.8 90.8 236.9 90.2 238.1 C 90.18 238.08 90.2 248.7 90.2 248.7 L 88 248.7 L 88 228.7 L 90.2 228.7 C 90.2 228.7 90.18 236.28 90.2 236.3 C 91 235 92.7 233.9 94.4 233.9 C 96.9 233.9 98 235.1 98 237.7 C 98.04 237.72 98 248.7 98 248.7 L 95.9 248.7 Z M 101.3 230.6 C 101.3 229.8 102 229.2 102.7 229.2 C 103.6 229.2 104.2 229.8 104.2 230.6 C 104.2 231.5 103.6 232.1 102.7 232.1 C 102 232.1 101.3 231.5 101.3 230.6 Z M 101.7 248.7 L 101.7 234.2 L 103.8 234.2 L 103.8 248.7 L 101.7 248.7 Z M 106.8 241.4 C 106.8 237.2 109 233.9 112.6 233.9 C 116.5 233.9 118.4 237.3 118.4 241.5 C 118.38 241.5 118.4 242.2 118.4 242.2 C 118.4 242.2 108.99 242.16 109 242.2 C 109.1 245.1 110.6 247.3 113.2 247.3 C 114.4 247.3 115.7 246.6 116.6 245.5 C 116.6 245.5 117.7 246.8 117.7 246.8 C 116.6 248.2 114.9 249.1 113 249.1 C 109.1 249.1 106.8 245.9 106.8 241.4 Z M 112.6 235.7 C 110.1 235.7 109 238.4 109 240.6 C 109 240.6 116.2 240.6 116.2 240.6 C 116.2 238.4 115.3 235.7 112.6 235.7 Z M 129.1 248.7 C 129.1 248.7 129.06 238.38 129.1 238.4 C 129.1 236.5 128.2 235.8 126.7 235.8 C 125.3 235.8 124 236.9 123.4 238.1 C 123.36 238.08 123.4 248.7 123.4 248.7 L 121.2 248.7 L 121.2 234.2 L 123.4 234.2 C 123.4 234.2 123.36 236.28 123.4 236.3 C 124.2 235 125.8 233.9 127.6 233.9 C 130 233.9 131.2 235.2 131.2 237.8 C 131.22 237.78 131.2 248.7 131.2 248.7 L 129.1 248.7 Z M 134.2 241.4 C 134.2 237.2 136.4 233.9 140 233.9 C 143.8 233.9 145.8 237.3 145.8 241.5 C 145.77 241.5 145.8 242.2 145.8 242.2 C 145.8 242.2 136.38 242.16 136.4 242.2 C 136.5 245.1 138 247.3 140.5 247.3 C 141.8 247.3 143.1 246.6 144 245.5 C 144 245.5 145.1 246.8 145.1 246.8 C 144 248.2 142.3 249.1 140.4 249.1 C 136.5 249.1 134.2 245.9 134.2 241.4 Z M 140 235.7 C 137.5 235.7 136.4 238.4 136.4 240.6 C 136.4 240.6 143.6 240.6 143.6 240.6 C 143.6 238.4 142.6 235.7 140 235.7 Z " stroke="none" fill="#d3d2d2"/>  </g>  <g id="Polygon151011">    <path d="M 12.7 212.7 L 12.7 203.5 L 4.5 203.5 L 4.5 212.7 L 2.1 212.7 L 2.1 192.7 L 4.5 192.7 L 4.5 201.4 L 12.7 201.4 L 12.7 192.7 L 15.1 192.7 L 15.1 212.7 L 12.7 212.7 Z M 18.5 216.5 C 18.7 216.6 19.2 216.7 19.4 216.7 C 20.3 216.7 20.8 216.3 21.1 215.2 C 21.15 215.22 21.9 213 21.9 213 L 17.1 198.2 L 19.4 198.2 L 23 210.1 L 26.7 198.2 L 29 198.2 C 29 198.2 23.19 215.76 23.2 215.8 C 22.5 217.9 21.3 218.6 19.6 218.6 C 19.1 218.6 18.5 218.5 18.1 218.4 C 18.1 218.4 18.5 216.5 18.5 216.5 Z M 39.1 212.7 C 39.1 212.7 39.12 210.63 39.1 210.6 C 38.3 212.1 36.8 213.1 35.3 213.1 C 32.1 213.1 30.1 210 30.1 205.5 C 30.1 201 32 197.9 35.3 197.9 C 36.8 197.9 38.2 198.7 39.1 200.3 C 39.12 200.31 39.1 192.7 39.1 192.7 L 41.3 192.7 L 41.3 212.7 L 39.1 212.7 Z M 39.1 208.8 C 39.1 208.8 39.1 202.1 39.1 202.1 C 38.6 200.9 37.2 199.8 35.8 199.8 C 33.5 199.8 32.4 202.3 32.4 205.5 C 32.4 208.6 33.5 211.1 35.8 211.1 C 37.2 211.1 38.6 210.1 39.1 208.8 Z M 44.9 212.7 L 44.9 198.2 L 47.1 198.2 C 47.1 198.2 47.07 200.52 47.1 200.5 C 48 199 49.4 197.9 51.2 197.9 C 51.2 197.9 51.2 200.1 51.2 200.1 C 50.9 200.1 50.7 200 50.5 200 C 49.1 200 47.7 201.2 47.1 202.4 C 47.07 202.41 47.1 212.7 47.1 212.7 L 44.9 212.7 Z M 60.8 212.7 C 60.8 212.7 60.81 211.14 60.8 211.1 C 59.9 212.5 58.5 213.1 57 213.1 C 54.7 213.1 52.6 211.3 52.6 208.2 C 52.6 205.2 54.6 203.5 57 203.5 C 58.5 203.5 59.9 204 60.8 205.3 C 60.8 205.3 60.8 202.8 60.8 202.8 C 60.8 200.8 59.7 199.7 57.8 199.7 C 56.5 199.7 55.3 200.2 54.2 201.5 C 54.2 201.5 53.2 200 53.2 200 C 54.6 198.5 56.3 197.9 58.2 197.9 C 61 197.9 63 199.3 63 202.6 C 62.97 202.56 63 212.7 63 212.7 L 60.8 212.7 Z M 60.8 209.7 C 60.8 209.7 60.8 206.9 60.8 206.9 C 60.1 205.7 58.9 205.1 57.7 205.1 C 55.9 205.1 54.8 206.5 54.8 208.3 C 54.8 210.1 55.9 211.5 57.7 211.5 C 58.9 211.5 60.1 210.9 60.8 209.7 Z M 65.9 205.4 C 65.9 201.2 68.2 197.9 71.9 197.9 C 73.9 197.9 75.1 198.7 76 199.8 C 76 199.8 74.8 201.2 74.8 201.2 C 74.1 200.2 73.2 199.8 72.1 199.8 C 69.5 199.8 68.1 202.4 68.1 205.4 C 68.1 208.5 69.5 211.1 72.1 211.1 C 73.2 211.1 74.1 210.7 74.8 209.7 C 74.8 209.7 76 211.1 76 211.1 C 75.1 212.3 73.9 213.1 71.9 213.1 C 68.2 213.1 65.9 209.7 65.9 205.4 Z M 86.3 212.7 C 86.3 212.7 86.34 202.35 86.3 202.4 C 86.3 200.4 85.4 199.8 84 199.8 C 82.6 199.8 81.3 200.9 80.6 202.1 C 80.61 202.08 80.6 212.7 80.6 212.7 L 78.5 212.7 L 78.5 192.7 L 80.6 192.7 C 80.6 192.7 80.61 200.28 80.6 200.3 C 81.4 199 83.1 197.9 84.8 197.9 C 87.3 197.9 88.5 199.1 88.5 201.7 C 88.47 201.72 88.5 212.7 88.5 212.7 L 86.3 212.7 Z M 92.1 212.7 L 92.1 192.7 L 94.3 192.7 L 94.3 212.7 L 92.1 212.7 Z M 105.7 212.7 C 105.7 212.7 105.75 210.69 105.7 210.7 C 104.9 212 103.3 213.1 101.5 213.1 C 99.1 213.1 97.9 211.8 97.9 209.2 C 97.92 209.19 97.9 198.2 97.9 198.2 L 100 198.2 C 100 198.2 100.05 208.56 100 208.6 C 100 210.5 100.9 211.1 102.4 211.1 C 103.8 211.1 105.1 210.1 105.7 208.9 C 105.75 208.89 105.7 198.2 105.7 198.2 L 107.9 198.2 L 107.9 212.7 L 105.7 212.7 Z M 112 209.8 C 111.99 209.79 112 200.1 112 200.1 L 110.1 200.1 L 110.1 198.2 L 112 198.2 L 112 194.3 L 114.1 194.3 L 114.1 198.2 L 116.6 198.2 L 116.6 200.1 L 114.1 200.1 C 114.1 200.1 114.15 209.4 114.1 209.4 C 114.1 210.5 114.5 211.1 115.3 211.1 C 115.9 211.1 116.3 210.9 116.6 210.6 C 116.6 210.6 117.2 212.2 117.2 212.2 C 116.7 212.7 116 213.1 114.9 213.1 C 112.9 213.1 112 212 112 209.8 Z M 118.4 205.4 C 118.4 201.4 120.5 197.9 124.3 197.9 C 128.2 197.9 130.2 201.4 130.2 205.4 C 130.2 209.5 128.2 213.1 124.3 213.1 C 120.5 213.1 118.4 209.5 118.4 205.4 Z M 128 205.4 C 128 202.5 126.9 199.8 124.3 199.8 C 121.8 199.8 120.7 202.5 120.7 205.4 C 120.7 208.4 121.8 211.1 124.3 211.1 C 126.9 211.1 128 208.4 128 205.4 Z M 132.4 205.4 C 132.4 201.2 134.7 197.9 138.4 197.9 C 140.5 197.9 141.7 198.7 142.6 199.8 C 142.6 199.8 141.4 201.2 141.4 201.2 C 140.6 200.2 139.7 199.8 138.6 199.8 C 136 199.8 134.7 202.4 134.7 205.4 C 134.7 208.5 136 211.1 138.6 211.1 C 139.7 211.1 140.6 210.7 141.4 209.7 C 141.4 209.7 142.6 211.1 142.6 211.1 C 141.7 212.3 140.5 213.1 138.4 213.1 C 134.7 213.1 132.4 209.7 132.4 205.4 Z M 144.6 194.6 C 144.6 193.8 145.3 193.2 146.1 193.2 C 146.9 193.2 147.6 193.8 147.6 194.6 C 147.6 195.5 146.9 196.1 146.1 196.1 C 145.3 196.1 144.6 195.5 144.6 194.6 Z M 145 212.7 L 145 198.2 L 147.2 198.2 L 147.2 212.7 L 145 212.7 Z M 158.7 212.7 C 158.7 212.7 158.67 202.38 158.7 202.4 C 158.7 200.5 157.8 199.8 156.4 199.8 C 154.9 199.8 153.6 200.9 153 202.1 C 152.97 202.08 153 212.7 153 212.7 L 150.8 212.7 L 150.8 198.2 L 153 198.2 C 153 198.2 152.97 200.28 153 200.3 C 153.8 199 155.4 197.9 157.2 197.9 C 159.6 197.9 160.8 199.2 160.8 201.8 C 160.83 201.78 160.8 212.7 160.8 212.7 L 158.7 212.7 Z M 170.5 216.8 C 170.5 216.8 171.5 215.1 171.5 215.1 C 172.5 216.2 173.7 216.8 175.3 216.8 C 177.3 216.8 178.9 215.6 178.9 212.8 C 178.9 212.8 178.9 210.4 178.9 210.4 C 178.1 211.9 176.6 212.9 175.1 212.9 C 171.9 212.9 169.9 209.9 169.9 205.4 C 169.9 200.9 171.8 197.9 175.1 197.9 C 176.6 197.9 178 198.7 178.9 200.3 C 178.92 200.31 178.9 198.2 178.9 198.2 L 181.1 198.2 C 181.1 198.2 181.08 212.67 181.1 212.7 C 181.1 217.1 178.4 218.6 175.3 218.6 C 173.4 218.6 171.9 218.1 170.5 216.8 Z M 178.9 208.6 C 178.9 208.6 178.9 202.1 178.9 202.1 C 178.4 200.9 177 199.8 175.6 199.8 C 173.3 199.8 172.2 202.3 172.2 205.4 C 172.2 208.5 173.3 211 175.6 211 C 177 211 178.4 209.8 178.9 208.6 Z M 184 205.4 C 184 201.2 186.2 197.9 189.9 197.9 C 193.7 197.9 195.6 201.3 195.6 205.5 C 195.6 205.5 195.6 206.2 195.6 206.2 C 195.6 206.2 186.21 206.16 186.2 206.2 C 186.3 209.1 187.8 211.3 190.4 211.3 C 191.6 211.3 192.9 210.6 193.8 209.5 C 193.8 209.5 195 210.8 195 210.8 C 193.8 212.2 192.1 213.1 190.2 213.1 C 186.3 213.1 184 209.9 184 205.4 Z M 189.8 199.7 C 187.3 199.7 186.3 202.4 186.2 204.6 C 186.2 204.6 193.5 204.6 193.5 204.6 C 193.4 202.4 192.5 199.7 189.8 199.7 Z M 198.4 212.7 L 198.4 192.7 L 200.6 192.7 L 200.6 212.7 L 198.4 212.7 Z " stroke="none" fill="#d3d2d2"/>  </g>  <g id="Polygon151010">    <path d="M 2.1 176.7 L 2.1 156.7 L 4.5 156.7 L 4.5 176.7 L 2.1 176.7 Z M 7.1 175 C 7.1 175 8.2 173.5 8.2 173.5 C 9 174.5 10.4 175.3 12 175.3 C 13.6 175.3 14.8 174.4 14.8 173 C 14.8 169.6 7.5 170.8 7.5 165.8 C 7.5 163.6 9.3 161.9 12.1 161.9 C 14.1 161.9 15.5 162.6 16.6 163.7 C 16.6 163.7 15.5 165.2 15.5 165.2 C 14.8 164.2 13.6 163.6 12.2 163.6 C 10.6 163.6 9.6 164.5 9.6 165.7 C 9.6 168.8 16.8 167.7 16.8 172.9 C 16.8 175.3 15 177.1 12 177.1 C 10 177.1 8.3 176.4 7.1 175 Z M 18.9 169.4 C 18.9 165.4 20.9 161.9 24.7 161.9 C 28.6 161.9 30.7 165.4 30.7 169.4 C 30.7 173.5 28.6 177.1 24.7 177.1 C 20.9 177.1 18.9 173.5 18.9 169.4 Z M 28.4 169.4 C 28.4 166.5 27.3 163.8 24.7 163.8 C 22.3 163.8 21.1 166.5 21.1 169.4 C 21.1 172.4 22.3 175.1 24.7 175.1 C 27.3 175.1 28.4 172.4 28.4 169.4 Z M 35.7 174.6 C 35.73 174.6 35.7 182.2 35.7 182.2 L 33.6 182.2 L 33.6 162.2 L 35.7 162.2 C 35.7 162.2 35.73 164.28 35.7 164.3 C 36.6 162.8 38 161.9 39.5 161.9 C 42.8 161.9 44.7 164.9 44.7 169.4 C 44.7 174 42.8 177.1 39.5 177.1 C 38.1 177.1 36.6 176.2 35.7 174.6 Z M 42.5 169.4 C 42.5 166.3 41.4 163.8 39 163.8 C 37.6 163.8 36.3 164.9 35.7 166.1 C 35.7 166.1 35.7 172.7 35.7 172.7 C 36.3 174 37.6 175.1 39 175.1 C 41.4 175.1 42.5 172.6 42.5 169.4 Z M 47.6 176.7 L 47.6 162.2 L 49.8 162.2 C 49.8 162.2 49.77 164.52 49.8 164.5 C 50.7 163 52.1 161.9 53.9 161.9 C 53.9 161.9 53.9 164.1 53.9 164.1 C 53.6 164.1 53.4 164 53.2 164 C 51.8 164 50.4 165.2 49.8 166.4 C 49.77 166.41 49.8 176.7 49.8 176.7 L 47.6 176.7 Z M 55.3 169.4 C 55.3 165.4 57.4 161.9 61.2 161.9 C 65.1 161.9 67.1 165.4 67.1 169.4 C 67.1 173.5 65.1 177.1 61.2 177.1 C 57.4 177.1 55.3 173.5 55.3 169.4 Z M 64.9 169.4 C 64.9 166.5 63.8 163.8 61.2 163.8 C 58.7 163.8 57.6 166.5 57.6 169.4 C 57.6 172.4 58.7 175.1 61.2 175.1 C 63.8 175.1 64.9 172.4 64.9 169.4 Z M 72.2 174.6 C 72.21 174.6 72.2 182.2 72.2 182.2 L 70.1 182.2 L 70.1 162.2 L 72.2 162.2 C 72.2 162.2 72.21 164.28 72.2 164.3 C 73 162.8 74.5 161.9 76 161.9 C 79.3 161.9 81.2 164.9 81.2 169.4 C 81.2 174 79.3 177.1 76 177.1 C 74.5 177.1 73.1 176.2 72.2 174.6 Z M 79 169.4 C 79 166.3 77.8 163.8 75.5 163.8 C 74.1 163.8 72.8 164.9 72.2 166.1 C 72.2 166.1 72.2 172.7 72.2 172.7 C 72.8 174 74.1 175.1 75.5 175.1 C 77.8 175.1 79 172.6 79 169.4 Z M 83.7 180.5 C 84 180.6 84.4 180.7 84.7 180.7 C 85.5 180.7 86 180.3 86.4 179.2 C 86.37 179.22 87.1 177 87.1 177 L 82.3 162.2 L 84.7 162.2 L 88.3 174.1 L 91.9 162.2 L 94.2 162.2 C 94.2 162.2 88.41 179.76 88.4 179.8 C 87.7 181.9 86.5 182.6 84.8 182.6 C 84.4 182.6 83.7 182.5 83.4 182.4 C 83.4 182.4 83.7 180.5 83.7 180.5 Z M 96.1 176.7 L 96.1 156.7 L 98.2 156.7 L 98.2 176.7 L 96.1 176.7 Z M 101.1 169.4 C 101.1 165.2 103.3 161.9 107 161.9 C 110.8 161.9 112.7 165.3 112.7 169.5 C 112.74 169.5 112.7 170.2 112.7 170.2 C 112.7 170.2 103.35 170.16 103.3 170.2 C 103.4 173.1 104.9 175.3 107.5 175.3 C 108.8 175.3 110.1 174.6 111 173.5 C 111 173.5 112.1 174.8 112.1 174.8 C 110.9 176.2 109.3 177.1 107.3 177.1 C 103.5 177.1 101.1 173.9 101.1 169.4 Z M 107 163.7 C 104.4 163.7 103.4 166.4 103.3 168.6 C 103.3 168.6 110.6 168.6 110.6 168.6 C 110.6 166.4 109.6 163.7 107 163.7 Z M 123.4 176.7 C 123.4 176.7 123.42 166.38 123.4 166.4 C 123.4 164.5 122.5 163.8 121.1 163.8 C 119.7 163.8 118.4 164.9 117.7 166.1 C 117.72 166.08 117.7 176.7 117.7 176.7 L 115.6 176.7 L 115.6 162.2 L 117.7 162.2 C 117.7 162.2 117.72 164.28 117.7 164.3 C 118.6 163 120.2 161.9 121.9 161.9 C 124.4 161.9 125.6 163.2 125.6 165.8 C 125.58 165.78 125.6 176.7 125.6 176.7 L 123.4 176.7 Z M 128.5 169.4 C 128.5 165.2 130.7 161.9 134.4 161.9 C 138.2 161.9 140.1 165.3 140.1 169.5 C 140.13 169.5 140.1 170.2 140.1 170.2 C 140.1 170.2 130.74 170.16 130.7 170.2 C 130.8 173.1 132.3 175.3 134.9 175.3 C 136.2 175.3 137.5 174.6 138.4 173.5 C 138.4 173.5 139.5 174.8 139.5 174.8 C 138.3 176.2 136.7 177.1 134.7 177.1 C 130.9 177.1 128.5 173.9 128.5 169.4 Z M 134.4 163.7 C 131.8 163.7 130.8 166.4 130.7 168.6 C 130.7 168.6 138 168.6 138 168.6 C 138 166.4 137 163.7 134.4 163.7 Z M 148.4 169.4 C 148.4 165.2 150.6 161.9 154.3 161.9 C 158.1 161.9 160 165.3 160 169.5 C 160.02 169.5 160 170.2 160 170.2 C 160 170.2 150.63 170.16 150.6 170.2 C 150.7 173.1 152.2 175.3 154.8 175.3 C 156.1 175.3 157.3 174.6 158.2 173.5 C 158.2 173.5 159.4 174.8 159.4 174.8 C 158.2 176.2 156.6 177.1 154.6 177.1 C 150.7 177.1 148.4 173.9 148.4 169.4 Z M 154.3 163.7 C 151.7 163.7 150.7 166.4 150.6 168.6 C 150.6 168.6 157.9 168.6 157.9 168.6 C 157.9 166.4 156.9 163.7 154.3 163.7 Z M 163.3 173.8 C 163.29 173.79 163.3 164.1 163.3 164.1 L 161.4 164.1 L 161.4 162.2 L 163.3 162.2 L 163.3 158.3 L 165.4 158.3 L 165.4 162.2 L 167.9 162.2 L 167.9 164.1 L 165.4 164.1 C 165.4 164.1 165.45 173.4 165.4 173.4 C 165.4 174.5 165.8 175.1 166.6 175.1 C 167.2 175.1 167.6 174.9 167.9 174.6 C 167.9 174.6 168.5 176.2 168.5 176.2 C 168 176.7 167.3 177.1 166.2 177.1 C 164.2 177.1 163.3 176 163.3 173.8 Z M 178.3 176.7 C 178.3 176.7 178.32 166.35 178.3 166.4 C 178.3 164.4 177.4 163.8 176 163.8 C 174.6 163.8 173.2 164.9 172.6 166.1 C 172.59 166.08 172.6 176.7 172.6 176.7 L 170.5 176.7 L 170.5 156.7 L 172.6 156.7 C 172.6 156.7 172.59 164.28 172.6 164.3 C 173.4 163 175.1 161.9 176.8 161.9 C 179.3 161.9 180.4 163.1 180.4 165.7 C 180.45 165.72 180.4 176.7 180.4 176.7 L 178.3 176.7 Z M 191.5 176.7 C 191.5 176.7 191.55 175.14 191.5 175.1 C 190.6 176.5 189.2 177.1 187.7 177.1 C 185.4 177.1 183.4 175.3 183.4 172.2 C 183.4 169.2 185.4 167.5 187.7 167.5 C 189.2 167.5 190.6 168 191.5 169.3 C 191.5 169.3 191.5 166.8 191.5 166.8 C 191.5 164.8 190.5 163.7 188.6 163.7 C 187.2 163.7 186.1 164.2 184.9 165.5 C 184.9 165.5 184 164 184 164 C 185.4 162.5 187.1 161.9 188.9 161.9 C 191.8 161.9 193.7 163.3 193.7 166.6 C 193.71 166.56 193.7 176.7 193.7 176.7 L 191.5 176.7 Z M 191.5 173.7 C 191.5 173.7 191.5 170.9 191.5 170.9 C 190.9 169.7 189.7 169.1 188.4 169.1 C 186.6 169.1 185.5 170.5 185.5 172.3 C 185.5 174.1 186.6 175.5 188.4 175.5 C 189.7 175.5 190.9 174.9 191.5 173.7 Z M 205.2 176.7 C 205.2 176.7 205.17 166.38 205.2 166.4 C 205.2 164.5 204.3 163.8 202.9 163.8 C 201.4 163.8 200.1 164.9 199.5 166.1 C 199.47 166.08 199.5 176.7 199.5 176.7 L 197.3 176.7 L 197.3 162.2 L 199.5 162.2 C 199.5 162.2 199.47 164.28 199.5 164.3 C 200.3 163 201.9 161.9 203.7 161.9 C 206.1 161.9 207.3 163.2 207.3 165.8 C 207.33 165.78 207.3 176.7 207.3 176.7 L 205.2 176.7 Z M 210.3 169.4 C 210.3 165.4 212.3 161.9 216.1 161.9 C 220 161.9 222.1 165.4 222.1 169.4 C 222.1 173.5 220 177.1 216.1 177.1 C 212.3 177.1 210.3 173.5 210.3 169.4 Z M 219.8 169.4 C 219.8 166.5 218.7 163.8 216.1 163.8 C 213.7 163.8 212.5 166.5 212.5 169.4 C 212.5 172.4 213.7 175.1 216.1 175.1 C 218.7 175.1 219.8 172.4 219.8 169.4 Z M 232.4 176.7 C 232.4 176.7 232.43 175.14 232.4 175.1 C 231.5 176.5 230.1 177.1 228.6 177.1 C 226.3 177.1 224.2 175.3 224.2 172.2 C 224.2 169.2 226.3 167.5 228.6 167.5 C 230.1 167.5 231.5 168 232.4 169.3 C 232.4 169.3 232.4 166.8 232.4 166.8 C 232.4 164.8 231.4 163.7 229.5 163.7 C 228.1 163.7 226.9 164.2 225.8 165.5 C 225.8 165.5 224.9 164 224.9 164 C 226.3 162.5 228 161.9 229.8 161.9 C 232.7 161.9 234.6 163.3 234.6 166.6 C 234.59 166.56 234.6 176.7 234.6 176.7 L 232.4 176.7 Z M 232.4 173.7 C 232.4 173.7 232.4 170.9 232.4 170.9 C 231.8 169.7 230.6 169.1 229.3 169.1 C 227.5 169.1 226.4 170.5 226.4 172.3 C 226.4 174.1 227.5 175.5 229.3 175.5 C 230.6 175.5 231.8 174.9 232.4 173.7 Z M 238.6 173.8 C 238.64 173.79 238.6 164.1 238.6 164.1 L 236.7 164.1 L 236.7 162.2 L 238.6 162.2 L 238.6 158.3 L 240.8 158.3 L 240.8 162.2 L 243.3 162.2 L 243.3 164.1 L 240.8 164.1 C 240.8 164.1 240.8 173.4 240.8 173.4 C 240.8 174.5 241.1 175.1 242 175.1 C 242.5 175.1 243 174.9 243.2 174.6 C 243.2 174.6 243.9 176.2 243.9 176.2 C 243.4 176.7 242.7 177.1 241.6 177.1 C 239.6 177.1 238.6 176 238.6 173.8 Z M 245.1 169.4 C 245.1 165.2 247.3 161.9 251 161.9 C 254.8 161.9 256.7 165.3 256.7 169.5 C 256.7 169.5 256.7 170.2 256.7 170.2 C 256.7 170.2 247.31 170.16 247.3 170.2 C 247.4 173.1 248.9 175.3 251.5 175.3 C 252.7 175.3 254 174.6 254.9 173.5 C 254.9 173.5 256.1 174.8 256.1 174.8 C 254.9 176.2 253.3 177.1 251.3 177.1 C 247.4 177.1 245.1 173.9 245.1 169.4 Z M 250.9 163.7 C 248.4 163.7 247.4 166.4 247.3 168.6 C 247.3 168.6 254.6 168.6 254.6 168.6 C 254.5 166.4 253.6 163.7 250.9 163.7 Z " stroke="none" fill="#d3d2d2"/>  </g>  <g id="Polygon151009">    <path d="M 12.7 140.7 L 12.7 131.5 L 4.5 131.5 L 4.5 140.7 L 2.1 140.7 L 2.1 120.7 L 4.5 120.7 L 4.5 129.4 L 12.7 129.4 L 12.7 120.7 L 15.1 120.7 L 15.1 140.7 L 12.7 140.7 Z M 18.2 133.4 C 18.2 129.2 20.4 125.9 24.1 125.9 C 27.9 125.9 29.8 129.3 29.8 133.5 C 29.79 133.5 29.8 134.2 29.8 134.2 C 29.8 134.2 20.4 134.16 20.4 134.2 C 20.5 137.1 22 139.3 24.6 139.3 C 25.8 139.3 27.1 138.6 28 137.5 C 28 137.5 29.2 138.8 29.2 138.8 C 28 140.2 26.3 141.1 24.4 141.1 C 20.5 141.1 18.2 137.9 18.2 133.4 Z M 24 127.7 C 21.5 127.7 20.5 130.4 20.4 132.6 C 20.4 132.6 27.7 132.6 27.7 132.6 C 27.6 130.4 26.7 127.7 24 127.7 Z M 34.8 138.6 C 34.77 138.6 34.8 146.2 34.8 146.2 L 32.6 146.2 L 32.6 126.2 L 34.8 126.2 C 34.8 126.2 34.77 128.28 34.8 128.3 C 35.6 126.8 37 125.9 38.6 125.9 C 41.8 125.9 43.8 128.9 43.8 133.4 C 43.8 138 41.8 141.1 38.6 141.1 C 37.1 141.1 35.7 140.2 34.8 138.6 Z M 41.5 133.4 C 41.5 130.3 40.4 127.8 38 127.8 C 36.7 127.8 35.3 128.9 34.8 130.1 C 34.8 130.1 34.8 136.7 34.8 136.7 C 35.3 138 36.7 139.1 38 139.1 C 40.4 139.1 41.5 136.6 41.5 133.4 Z M 47.1 137.8 C 47.1 137.79 47.1 128.1 47.1 128.1 L 45.2 128.1 L 45.2 126.2 L 47.1 126.2 L 47.1 122.3 L 49.3 122.3 L 49.3 126.2 L 51.7 126.2 L 51.7 128.1 L 49.3 128.1 C 49.3 128.1 49.26 137.4 49.3 137.4 C 49.3 138.5 49.6 139.1 50.4 139.1 C 51 139.1 51.4 138.9 51.7 138.6 C 51.7 138.6 52.3 140.2 52.3 140.2 C 51.8 140.7 51.1 141.1 50 141.1 C 48 141.1 47.1 140 47.1 137.8 Z M 61.7 140.7 C 61.7 140.7 61.71 139.14 61.7 139.1 C 60.8 140.5 59.4 141.1 57.9 141.1 C 55.6 141.1 53.5 139.3 53.5 136.2 C 53.5 133.2 55.5 131.5 57.9 131.5 C 59.4 131.5 60.8 132 61.7 133.3 C 61.7 133.3 61.7 130.8 61.7 130.8 C 61.7 128.8 60.6 127.7 58.7 127.7 C 57.4 127.7 56.2 128.2 55.1 129.5 C 55.1 129.5 54.1 128 54.1 128 C 55.5 126.5 57.2 125.9 59.1 125.9 C 61.9 125.9 63.9 127.3 63.9 130.6 C 63.87 130.56 63.9 140.7 63.9 140.7 L 61.7 140.7 Z M 61.7 137.7 C 61.7 137.7 61.7 134.9 61.7 134.9 C 61 133.7 59.8 133.1 58.6 133.1 C 56.8 133.1 55.7 134.5 55.7 136.3 C 55.7 138.1 56.8 139.5 58.6 139.5 C 59.8 139.5 61 138.9 61.7 137.7 Z M 75.8 140.7 C 75.8 140.7 75.78 138.63 75.8 138.6 C 74.9 140.1 73.5 141.1 72 141.1 C 68.7 141.1 66.8 138 66.8 133.5 C 66.8 129 68.7 125.9 72 125.9 C 73.4 125.9 74.9 126.7 75.8 128.3 C 75.78 128.31 75.8 120.7 75.8 120.7 L 77.9 120.7 L 77.9 140.7 L 75.8 140.7 Z M 75.8 136.8 C 75.8 136.8 75.8 130.1 75.8 130.1 C 75.2 128.9 73.9 127.8 72.5 127.8 C 70.1 127.8 69 130.3 69 133.5 C 69 136.6 70.1 139.1 72.5 139.1 C 73.9 139.1 75.2 138.1 75.8 136.8 Z M 81.2 122.6 C 81.2 121.8 81.9 121.2 82.6 121.2 C 83.5 121.2 84.1 121.8 84.1 122.6 C 84.1 123.5 83.5 124.1 82.6 124.1 C 81.9 124.1 81.2 123.5 81.2 122.6 Z M 81.6 140.7 L 81.6 126.2 L 83.7 126.2 L 83.7 140.7 L 81.6 140.7 Z M 86.7 133.4 C 86.7 129.4 88.7 125.9 92.5 125.9 C 96.4 125.9 98.5 129.4 98.5 133.4 C 98.5 137.5 96.4 141.1 92.5 141.1 C 88.7 141.1 86.7 137.5 86.7 133.4 Z M 96.2 133.4 C 96.2 130.5 95.1 127.8 92.5 127.8 C 90.1 127.8 88.9 130.5 88.9 133.4 C 88.9 136.4 90.1 139.1 92.5 139.1 C 95.1 139.1 96.2 136.4 96.2 133.4 Z M 100.7 140.7 L 100.7 139 L 107 128.1 L 100.7 128.1 L 100.7 126.2 L 109.6 126.2 L 109.6 127.9 L 103.3 138.8 L 109.7 138.8 L 109.7 140.7 L 100.7 140.7 Z M 112 133.4 C 112 129.4 114 125.9 117.9 125.9 C 121.8 125.9 123.8 129.4 123.8 133.4 C 123.8 137.5 121.8 141.1 117.9 141.1 C 114 141.1 112 137.5 112 133.4 Z M 121.5 133.4 C 121.5 130.5 120.4 127.8 117.9 127.8 C 115.4 127.8 114.2 130.5 114.2 133.4 C 114.2 136.4 115.4 139.1 117.9 139.1 C 120.4 139.1 121.5 136.4 121.5 133.4 Z M 125.5 139 C 125.5 139 126.6 137.5 126.6 137.5 C 127.5 138.5 128.8 139.3 130.4 139.3 C 132.1 139.3 133.2 138.4 133.2 137 C 133.2 133.6 126 134.8 126 129.8 C 126 127.6 127.7 125.9 130.6 125.9 C 132.5 125.9 134 126.6 135 127.7 C 135 127.7 134 129.2 134 129.2 C 133.3 128.2 132 127.6 130.6 127.6 C 129 127.6 128 128.5 128 129.7 C 128 132.8 135.3 131.7 135.3 136.9 C 135.3 139.3 133.4 141.1 130.4 141.1 C 128.4 141.1 126.7 140.4 125.5 139 Z M 137.3 133.4 C 137.3 129.2 139.5 125.9 143.2 125.9 C 147 125.9 148.9 129.3 148.9 133.5 C 148.92 133.5 148.9 134.2 148.9 134.2 C 148.9 134.2 139.53 134.16 139.5 134.2 C 139.6 137.1 141.1 139.3 143.7 139.3 C 145 139.3 146.2 138.6 147.1 137.5 C 147.1 137.5 148.3 138.8 148.3 138.8 C 147.1 140.2 145.5 141.1 143.5 141.1 C 139.6 141.1 137.3 137.9 137.3 133.4 Z M 143.2 127.7 C 140.6 127.7 139.6 130.4 139.5 132.6 C 139.5 132.6 146.8 132.6 146.8 132.6 C 146.8 130.4 145.8 127.7 143.2 127.7 Z " stroke="none" fill="#d3d2d2"/>  </g>  <g id="Polygon151008">    <path d="M 12.7 104.7 L 12.7 95.5 L 4.5 95.5 L 4.5 104.7 L 2.1 104.7 L 2.1 84.7 L 4.5 84.7 L 4.5 93.4 L 12.7 93.4 L 12.7 84.7 L 15.1 84.7 L 15.1 104.7 L 12.7 104.7 Z M 18.2 97.4 C 18.2 93.2 20.4 89.9 24.1 89.9 C 27.9 89.9 29.8 93.3 29.8 97.5 C 29.79 97.5 29.8 98.2 29.8 98.2 C 29.8 98.2 20.4 98.16 20.4 98.2 C 20.5 101.1 22 103.3 24.6 103.3 C 25.8 103.3 27.1 102.6 28 101.5 C 28 101.5 29.2 102.8 29.2 102.8 C 28 104.2 26.3 105.1 24.4 105.1 C 20.5 105.1 18.2 101.9 18.2 97.4 Z M 24 91.7 C 21.5 91.7 20.5 94.4 20.4 96.6 C 20.4 96.6 27.7 96.6 27.7 96.6 C 27.6 94.4 26.7 91.7 24 91.7 Z M 40.1 104.7 L 36.7 98.9 L 33.4 104.7 L 31 104.7 L 35.4 97.3 L 31.3 90.2 L 33.7 90.2 L 36.7 95.7 L 39.8 90.2 L 42.2 90.2 L 38.1 97.3 L 42.5 104.7 L 40.1 104.7 Z M 52 104.7 C 52 104.7 51.96 103.14 52 103.1 C 51 104.5 49.6 105.1 48.1 105.1 C 45.8 105.1 43.8 103.3 43.8 100.2 C 43.8 97.2 45.8 95.5 48.1 95.5 C 49.6 95.5 51.1 96 52 97.3 C 52 97.3 52 94.8 52 94.8 C 52 92.8 50.9 91.7 49 91.7 C 47.6 91.7 46.5 92.2 45.4 93.5 C 45.4 93.5 44.4 92 44.4 92 C 45.8 90.5 47.5 89.9 49.3 89.9 C 52.2 89.9 54.1 91.3 54.1 94.6 C 54.12 94.56 54.1 104.7 54.1 104.7 L 52 104.7 Z M 52 101.7 C 52 101.7 52 98.9 52 98.9 C 51.3 97.7 50.1 97.1 48.8 97.1 C 47 97.1 46 98.5 46 100.3 C 46 102.1 47 103.5 48.8 103.5 C 50.1 103.5 51.3 102.9 52 101.7 Z M 57.6 108.8 C 57.6 108.8 58.6 107.1 58.6 107.1 C 59.6 108.2 60.8 108.8 62.4 108.8 C 64.4 108.8 66 107.6 66 104.8 C 66 104.8 66 102.4 66 102.4 C 65.2 103.9 63.7 104.9 62.2 104.9 C 59 104.9 57 101.9 57 97.4 C 57 92.9 58.9 89.9 62.2 89.9 C 63.7 89.9 65.1 90.7 66 92.3 C 66.03 92.31 66 90.2 66 90.2 L 68.2 90.2 C 68.2 90.2 68.19 104.67 68.2 104.7 C 68.2 109.1 65.5 110.6 62.5 110.6 C 60.5 110.6 59 110.1 57.6 108.8 Z M 66 100.6 C 66 100.6 66 94.1 66 94.1 C 65.5 92.9 64.1 91.8 62.8 91.8 C 60.4 91.8 59.3 94.3 59.3 97.4 C 59.3 100.5 60.4 103 62.8 103 C 64.1 103 65.5 101.8 66 100.6 Z M 79.6 104.7 C 79.6 104.7 79.65 102.69 79.6 102.7 C 78.8 104 77.2 105.1 75.4 105.1 C 73 105.1 71.8 103.8 71.8 101.2 C 71.82 101.19 71.8 90.2 71.8 90.2 L 73.9 90.2 C 73.9 90.2 73.95 100.56 73.9 100.6 C 73.9 102.5 74.8 103.1 76.3 103.1 C 77.7 103.1 79 102.1 79.6 100.9 C 79.65 100.89 79.6 90.2 79.6 90.2 L 81.8 90.2 L 81.8 104.7 L 79.6 104.7 Z M 92.9 104.7 C 92.9 104.7 92.91 103.14 92.9 103.1 C 92 104.5 90.6 105.1 89.1 105.1 C 86.8 105.1 84.7 103.3 84.7 100.2 C 84.7 97.2 86.7 95.5 89.1 95.5 C 90.6 95.5 92 96 92.9 97.3 C 92.9 97.3 92.9 94.8 92.9 94.8 C 92.9 92.8 91.8 91.7 89.9 91.7 C 88.6 91.7 87.4 92.2 86.3 93.5 C 86.3 93.5 85.3 92 85.3 92 C 86.7 90.5 88.4 89.9 90.3 89.9 C 93.1 89.9 95.1 91.3 95.1 94.6 C 95.07 94.56 95.1 104.7 95.1 104.7 L 92.9 104.7 Z M 92.9 101.7 C 92.9 101.7 92.9 98.9 92.9 98.9 C 92.2 97.7 91 97.1 89.8 97.1 C 88 97.1 86.9 98.5 86.9 100.3 C 86.9 102.1 88 103.5 89.8 103.5 C 91 103.5 92.2 102.9 92.9 101.7 Z M 98.7 104.7 L 98.7 84.7 L 100.8 84.7 L 100.8 104.7 L 98.7 104.7 Z M 104.1 86.6 C 104.1 85.8 104.8 85.2 105.5 85.2 C 106.3 85.2 107 85.8 107 86.6 C 107 87.5 106.3 88.1 105.5 88.1 C 104.8 88.1 104.1 87.5 104.1 86.6 Z M 104.5 104.7 L 104.5 90.2 L 106.6 90.2 L 106.6 104.7 L 104.5 104.7 Z M 109.6 97.4 C 109.6 93.2 111.8 89.9 115.6 89.9 C 117.6 89.9 118.8 90.7 119.7 91.8 C 119.7 91.8 118.5 93.2 118.5 93.2 C 117.7 92.2 116.8 91.8 115.7 91.8 C 113.2 91.8 111.8 94.4 111.8 97.4 C 111.8 100.5 113.2 103.1 115.7 103.1 C 116.8 103.1 117.7 102.7 118.5 101.7 C 118.5 101.7 119.7 103.1 119.7 103.1 C 118.8 104.3 117.6 105.1 115.6 105.1 C 111.8 105.1 109.6 101.7 109.6 97.4 Z M 121.4 97.4 C 121.4 93.4 123.5 89.9 127.3 89.9 C 131.2 89.9 133.2 93.4 133.2 97.4 C 133.2 101.5 131.2 105.1 127.3 105.1 C 123.5 105.1 121.4 101.5 121.4 97.4 Z M 131 97.4 C 131 94.5 129.9 91.8 127.3 91.8 C 124.8 91.8 123.7 94.5 123.7 97.4 C 123.7 100.4 124.8 103.1 127.3 103.1 C 129.9 103.1 131 100.4 131 97.4 Z M 144 104.7 C 144 104.7 144 94.38 144 94.4 C 144 92.5 143.1 91.8 141.7 91.8 C 140.3 91.8 139 92.9 138.3 94.1 C 138.3 94.08 138.3 104.7 138.3 104.7 L 136.2 104.7 L 136.2 90.2 L 138.3 90.2 C 138.3 90.2 138.3 92.28 138.3 92.3 C 139.1 91 140.8 89.9 142.5 89.9 C 145 89.9 146.2 91.2 146.2 93.8 C 146.16 93.78 146.2 104.7 146.2 104.7 L 144 104.7 Z M 149.4 86.6 C 149.4 85.8 150.1 85.2 150.9 85.2 C 151.7 85.2 152.3 85.8 152.3 86.6 C 152.3 87.5 151.7 88.1 150.9 88.1 C 150.1 88.1 149.4 87.5 149.4 86.6 Z M 149.8 104.7 L 149.8 90.2 L 151.9 90.2 L 151.9 104.7 L 149.8 104.7 Z M 154.9 97.4 C 154.9 93.2 157.2 89.9 160.9 89.9 C 162.9 89.9 164.1 90.7 165 91.8 C 165 91.8 163.9 93.2 163.9 93.2 C 163.1 92.2 162.2 91.8 161.1 91.8 C 158.5 91.8 157.1 94.4 157.1 97.4 C 157.1 100.5 158.5 103.1 161.1 103.1 C 162.2 103.1 163.1 102.7 163.9 101.7 C 163.9 101.7 165 103.1 165 103.1 C 164.1 104.3 162.9 105.1 160.9 105.1 C 157.2 105.1 154.9 101.7 154.9 97.4 Z M 181.1 104.7 C 181.1 104.7 181.08 103.14 181.1 103.1 C 180.1 104.5 178.7 105.1 177.3 105.1 C 174.9 105.1 172.9 103.3 172.9 100.2 C 172.9 97.2 174.9 95.5 177.3 95.5 C 178.7 95.5 180.2 96 181.1 97.3 C 181.1 97.3 181.1 94.8 181.1 94.8 C 181.1 92.8 180 91.7 178.1 91.7 C 176.8 91.7 175.6 92.2 174.5 93.5 C 174.5 93.5 173.5 92 173.5 92 C 174.9 90.5 176.6 89.9 178.4 89.9 C 181.3 89.9 183.2 91.3 183.2 94.6 C 183.24 94.56 183.2 104.7 183.2 104.7 L 181.1 104.7 Z M 181.1 101.7 C 181.1 101.7 181.1 98.9 181.1 98.9 C 180.4 97.7 179.2 97.1 178 97.1 C 176.2 97.1 175.1 98.5 175.1 100.3 C 175.1 102.1 176.2 103.5 178 103.5 C 179.2 103.5 180.4 102.9 181.1 101.7 Z M 186.1 97.4 C 186.1 93.2 188.4 89.9 192.1 89.9 C 194.2 89.9 195.4 90.7 196.3 91.8 C 196.3 91.8 195.1 93.2 195.1 93.2 C 194.3 92.2 193.4 91.8 192.3 91.8 C 189.7 91.8 188.4 94.4 188.4 97.4 C 188.4 100.5 189.7 103.1 192.3 103.1 C 193.4 103.1 194.3 102.7 195.1 101.7 C 195.1 101.7 196.3 103.1 196.3 103.1 C 195.4 104.3 194.2 105.1 192.1 105.1 C 188.4 105.1 186.1 101.7 186.1 97.4 Z M 198.3 86.6 C 198.3 85.8 199 85.2 199.8 85.2 C 200.6 85.2 201.3 85.8 201.3 86.6 C 201.3 87.5 200.6 88.1 199.8 88.1 C 199 88.1 198.3 87.5 198.3 86.6 Z M 198.7 104.7 L 198.7 90.2 L 200.9 90.2 L 200.9 104.7 L 198.7 104.7 Z M 212.8 104.7 C 212.8 104.7 212.81 102.63 212.8 102.6 C 212 104.1 210.5 105.1 209 105.1 C 205.8 105.1 203.8 102 203.8 97.5 C 203.8 93 205.7 89.9 209 89.9 C 210.5 89.9 211.9 90.7 212.8 92.3 C 212.81 92.31 212.8 84.7 212.8 84.7 L 215 84.7 L 215 104.7 L 212.8 104.7 Z M 212.8 100.8 C 212.8 100.8 212.8 94.1 212.8 94.1 C 212.3 92.9 210.9 91.8 209.5 91.8 C 207.2 91.8 206.1 94.3 206.1 97.5 C 206.1 100.6 207.2 103.1 209.5 103.1 C 210.9 103.1 212.3 102.1 212.8 100.8 Z " stroke="none" fill="#d3d2d2"/>  </g>  <g id="Polygon151007">    <path d="M 1.4 58.7 C 1.4 52.7 4.4 48.4 9.2 48.4 C 12.2 48.4 13.9 50.2 15 52.3 C 15 52.3 13 53.2 13 53.2 C 12.2 51.6 10.9 50.5 9.2 50.5 C 5.9 50.5 3.9 54 3.9 58.7 C 3.9 63.5 5.9 66.9 9.2 66.9 C 11 66.9 12.3 65.7 13.1 64 C 13.1 64 15.1 64.9 15.1 64.9 C 14 67.1 12.3 69.1 9.2 69.1 C 4.4 69.1 1.4 64.7 1.4 58.7 Z M 25.1 68.7 C 25.1 68.7 25.11 67.14 25.1 67.1 C 24.2 68.5 22.8 69.1 21.3 69.1 C 19 69.1 16.9 67.3 16.9 64.2 C 16.9 61.2 18.9 59.5 21.3 59.5 C 22.8 59.5 24.2 60 25.1 61.3 C 25.1 61.3 25.1 58.8 25.1 58.8 C 25.1 56.8 24 55.7 22.1 55.7 C 20.8 55.7 19.6 56.2 18.5 57.5 C 18.5 57.5 17.5 56 17.5 56 C 18.9 54.5 20.6 53.9 22.5 53.9 C 25.3 53.9 27.3 55.3 27.3 58.6 C 27.27 58.56 27.3 68.7 27.3 68.7 L 25.1 68.7 Z M 25.1 65.7 C 25.1 65.7 25.1 62.9 25.1 62.9 C 24.4 61.7 23.2 61.1 22 61.1 C 20.2 61.1 19.1 62.5 19.1 64.3 C 19.1 66.1 20.2 67.5 22 67.5 C 23.2 67.5 24.4 66.9 25.1 65.7 Z M 30.9 68.7 L 30.9 54.2 L 33 54.2 C 33 54.2 33.03 56.52 33 56.5 C 34 55 35.4 53.9 37.1 53.9 C 37.1 53.9 37.1 56.1 37.1 56.1 C 36.9 56.1 36.7 56 36.4 56 C 35.1 56 33.6 57.2 33 58.4 C 33.03 58.41 33 68.7 33 68.7 L 30.9 68.7 Z M 42.3 68.7 L 37.5 54.2 L 39.9 54.2 L 43.5 66.2 L 47.1 54.2 L 49.4 54.2 L 44.6 68.7 L 42.3 68.7 Z M 58.7 68.7 C 58.7 68.7 58.71 67.14 58.7 67.1 C 57.8 68.5 56.4 69.1 54.9 69.1 C 52.6 69.1 50.5 67.3 50.5 64.2 C 50.5 61.2 52.5 59.5 54.9 59.5 C 56.4 59.5 57.8 60 58.7 61.3 C 58.7 61.3 58.7 58.8 58.7 58.8 C 58.7 56.8 57.6 55.7 55.7 55.7 C 54.4 55.7 53.2 56.2 52.1 57.5 C 52.1 57.5 51.1 56 51.1 56 C 52.5 54.5 54.2 53.9 56.1 53.9 C 58.9 53.9 60.9 55.3 60.9 58.6 C 60.87 58.56 60.9 68.7 60.9 68.7 L 58.7 68.7 Z M 58.7 65.7 C 58.7 65.7 58.7 62.9 58.7 62.9 C 58 61.7 56.8 61.1 55.6 61.1 C 53.8 61.1 52.7 62.5 52.7 64.3 C 52.7 66.1 53.8 67.5 55.6 67.5 C 56.8 67.5 58 66.9 58.7 65.7 Z M 63.8 61.4 C 63.8 57.2 66.1 53.9 69.8 53.9 C 71.8 53.9 73 54.7 73.9 55.8 C 73.9 55.8 72.7 57.2 72.7 57.2 C 72 56.2 71.1 55.8 70 55.8 C 67.4 55.8 66 58.4 66 61.4 C 66 64.5 67.4 67.1 70 67.1 C 71.1 67.1 72 66.7 72.7 65.7 C 72.7 65.7 73.9 67.1 73.9 67.1 C 73 68.3 71.8 69.1 69.8 69.1 C 66.1 69.1 63.8 65.7 63.8 61.4 Z M 76.4 68.7 L 76.4 54.2 L 78.5 54.2 C 78.5 54.2 78.51 56.52 78.5 56.5 C 79.4 55 80.8 53.9 82.6 53.9 C 82.6 53.9 82.6 56.1 82.6 56.1 C 82.4 56.1 82.1 56 81.9 56 C 80.6 56 79.1 57.2 78.5 58.4 C 78.51 58.41 78.5 68.7 78.5 68.7 L 76.4 68.7 Z M 84.1 61.4 C 84.1 57.4 86.1 53.9 90 53.9 C 93.9 53.9 95.9 57.4 95.9 61.4 C 95.9 65.5 93.9 69.1 90 69.1 C 86.1 69.1 84.1 65.5 84.1 61.4 Z M 93.6 61.4 C 93.6 58.5 92.5 55.8 90 55.8 C 87.5 55.8 86.3 58.5 86.3 61.4 C 86.3 64.4 87.5 67.1 90 67.1 C 92.5 67.1 93.6 64.4 93.6 61.4 Z M 98.8 68.7 L 98.8 48.7 L 100.9 48.7 L 100.9 68.7 L 98.8 68.7 Z " stroke="none" fill="#d3d2d2"/>  </g>  <g id="Polygon151006">    <path d="M 12.5 32.7 L 11.2 28.2 L 4.1 28.2 L 2.8 32.7 L 0.2 32.7 L 6.2 12.7 L 9.1 12.7 L 15.1 32.7 L 12.5 32.7 Z M 7.6 15.3 L 4.6 26.1 L 10.7 26.1 L 7.6 15.3 Z M 17.3 32.7 L 17.3 12.7 L 19.4 12.7 L 19.4 32.7 L 17.3 32.7 Z M 22.7 25.4 C 22.7 21.2 25 17.9 28.7 17.9 C 30.7 17.9 31.9 18.7 32.8 19.8 C 32.8 19.8 31.6 21.2 31.6 21.2 C 30.9 20.2 30 19.8 28.9 19.8 C 26.3 19.8 24.9 22.4 24.9 25.4 C 24.9 28.5 26.3 31.1 28.9 31.1 C 30 31.1 30.9 30.7 31.6 29.7 C 31.6 29.7 32.8 31.1 32.8 31.1 C 31.9 32.3 30.7 33.1 28.7 33.1 C 25 33.1 22.7 29.7 22.7 25.4 Z M 43 32.7 C 43 32.7 43.02 31.14 43 31.1 C 42.1 32.5 40.7 33.1 39.2 33.1 C 36.9 33.1 34.8 31.3 34.8 28.2 C 34.8 25.2 36.8 23.5 39.2 23.5 C 40.7 23.5 42.1 24 43 25.3 C 43 25.3 43 22.8 43 22.8 C 43 20.8 41.9 19.7 40 19.7 C 38.7 19.7 37.5 20.2 36.4 21.5 C 36.4 21.5 35.5 20 35.5 20 C 36.8 18.5 38.5 17.9 40.4 17.9 C 43.3 17.9 45.2 19.3 45.2 22.6 C 45.18 22.56 45.2 32.7 45.2 32.7 L 43 32.7 Z M 43 29.7 C 43 29.7 43 26.9 43 26.9 C 42.4 25.7 41.2 25.1 39.9 25.1 C 38.1 25.1 37 26.5 37 28.3 C 37 30.1 38.1 31.5 39.9 31.5 C 41.2 31.5 42.4 30.9 43 29.7 Z M 56.9 32.7 C 56.9 32.7 56.94 22.38 56.9 22.4 C 56.9 20.5 56.1 19.8 54.6 19.8 C 53.2 19.8 51.9 20.9 51.2 22.1 C 51.24 22.08 51.2 32.7 51.2 32.7 L 49.1 32.7 L 49.1 18.2 L 51.2 18.2 C 51.2 18.2 51.24 20.28 51.2 20.3 C 52.1 19 53.7 17.9 55.4 17.9 C 57.9 17.9 59.1 19.2 59.1 21.8 C 59.1 21.78 59.1 32.7 59.1 32.7 L 56.9 32.7 Z M 62.6 14.6 C 62.6 13.8 63.3 13.2 64.1 13.2 C 64.9 13.2 65.6 13.8 65.6 14.6 C 65.6 15.5 64.9 16.1 64.1 16.1 C 63.3 16.1 62.6 15.5 62.6 14.6 Z M 63.1 32.7 L 63.1 18.2 L 65.2 18.2 L 65.2 32.7 L 63.1 32.7 Z M 72.1 32.7 L 67.3 18.2 L 69.7 18.2 L 73.3 30.2 L 76.9 18.2 L 79.2 18.2 L 74.5 32.7 L 72.1 32.7 Z M 80.7 25.4 C 80.7 21.4 82.7 17.9 86.5 17.9 C 90.4 17.9 92.5 21.4 92.5 25.4 C 92.5 29.5 90.4 33.1 86.5 33.1 C 82.7 33.1 80.7 29.5 80.7 25.4 Z M 90.2 25.4 C 90.2 22.5 89.1 19.8 86.5 19.8 C 84.1 19.8 82.9 22.5 82.9 25.4 C 82.9 28.4 84.1 31.1 86.5 31.1 C 89.1 31.1 90.2 28.4 90.2 25.4 Z M 95.7 32.7 L 95.7 18.2 L 97.8 18.2 C 97.8 18.2 97.83 20.52 97.8 20.5 C 98.8 19 100.2 17.9 101.9 17.9 C 101.9 17.9 101.9 20.1 101.9 20.1 C 101.7 20.1 101.5 20 101.2 20 C 99.9 20 98.4 21.2 97.8 22.4 C 97.83 22.41 97.8 32.7 97.8 32.7 L 95.7 32.7 Z M 111.9 32.7 C 111.9 32.7 111.87 31.14 111.9 31.1 C 110.9 32.5 109.5 33.1 108.1 33.1 C 105.7 33.1 103.7 31.3 103.7 28.2 C 103.7 25.2 105.7 23.5 108.1 23.5 C 109.5 23.5 111 24 111.9 25.3 C 111.9 25.3 111.9 22.8 111.9 22.8 C 111.9 20.8 110.8 19.7 108.9 19.7 C 107.5 19.7 106.4 20.2 105.3 21.5 C 105.3 21.5 104.3 20 104.3 20 C 105.7 18.5 107.4 17.9 109.2 17.9 C 112.1 17.9 114 19.3 114 22.6 C 114.03 22.56 114 32.7 114 32.7 L 111.9 32.7 Z M 111.9 29.7 C 111.9 29.7 111.9 26.9 111.9 26.9 C 111.2 25.7 110 25.1 108.7 25.1 C 106.9 25.1 105.9 26.5 105.9 28.3 C 105.9 30.1 106.9 31.5 108.7 31.5 C 110 31.5 111.2 30.9 111.9 29.7 Z M 116.8 31 C 116.8 31 117.9 29.5 117.9 29.5 C 118.7 30.5 120.1 31.3 121.6 31.3 C 123.3 31.3 124.4 30.4 124.4 29 C 124.4 25.6 117.2 26.8 117.2 21.8 C 117.2 19.6 118.9 17.9 121.8 17.9 C 123.7 17.9 125.2 18.6 126.2 19.7 C 126.2 19.7 125.2 21.2 125.2 21.2 C 124.5 20.2 123.3 19.6 121.9 19.6 C 120.3 19.6 119.3 20.5 119.3 21.7 C 119.3 24.8 126.5 23.7 126.5 28.9 C 126.5 31.3 124.6 33.1 121.7 33.1 C 119.6 33.1 118 32.4 116.8 31 Z M 128.8 25.4 C 128.8 21.2 131.1 17.9 134.7 17.9 C 138.5 17.9 140.5 21.3 140.5 25.5 C 140.46 25.5 140.5 26.2 140.5 26.2 C 140.5 26.2 131.07 26.16 131.1 26.2 C 131.2 29.1 132.7 31.3 135.2 31.3 C 136.5 31.3 137.8 30.6 138.7 29.5 C 138.7 29.5 139.8 30.8 139.8 30.8 C 138.7 32.2 137 33.1 135.1 33.1 C 131.2 33.1 128.8 29.9 128.8 25.4 Z M 134.7 19.7 C 132.1 19.7 131.1 22.4 131.1 24.6 C 131.1 24.6 138.3 24.6 138.3 24.6 C 138.3 22.4 137.3 19.7 134.7 19.7 Z M 149.3 25.4 C 149.3 21.2 151.6 17.9 155.2 17.9 C 159 17.9 160.9 21.3 160.9 25.5 C 160.95 25.5 160.9 26.2 160.9 26.2 C 160.9 26.2 151.56 26.16 151.6 26.2 C 151.6 29.1 153.1 31.3 155.7 31.3 C 157 31.3 158.3 30.6 159.2 29.5 C 159.2 29.5 160.3 30.8 160.3 30.8 C 159.1 32.2 157.5 33.1 155.5 33.1 C 151.7 33.1 149.3 29.9 149.3 25.4 Z M 155.2 19.7 C 152.6 19.7 151.6 22.4 151.6 24.6 C 151.6 24.6 158.8 24.6 158.8 24.6 C 158.8 22.4 157.8 19.7 155.2 19.7 Z M 171.5 32.7 L 168.2 26.9 L 164.9 32.7 L 162.5 32.7 L 166.9 25.3 L 162.7 18.2 L 165.1 18.2 L 168.2 23.7 L 171.3 18.2 L 173.7 18.2 L 169.5 25.3 L 173.9 32.7 L 171.5 32.7 Z M 176.7 29.8 C 176.7 29.79 176.7 20.1 176.7 20.1 L 174.8 20.1 L 174.8 18.2 L 176.7 18.2 L 176.7 14.3 L 178.9 14.3 L 178.9 18.2 L 181.3 18.2 L 181.3 20.1 L 178.9 20.1 C 178.9 20.1 178.86 29.4 178.9 29.4 C 178.9 30.5 179.2 31.1 180 31.1 C 180.6 31.1 181 30.9 181.3 30.6 C 181.3 30.6 181.9 32.2 181.9 32.2 C 181.4 32.7 180.7 33.1 179.6 33.1 C 177.6 33.1 176.7 32 176.7 29.8 Z M 184.2 32.7 L 184.2 18.2 L 186.3 18.2 C 186.3 18.2 186.29 20.52 186.3 20.5 C 187.2 19 188.6 17.9 190.4 17.9 C 190.4 17.9 190.4 20.1 190.4 20.1 C 190.2 20.1 189.9 20 189.7 20 C 188.4 20 186.9 21.2 186.3 22.4 C 186.29 22.41 186.3 32.7 186.3 32.7 L 184.2 32.7 Z M 200.3 32.7 C 200.3 32.7 200.33 31.14 200.3 31.1 C 199.4 32.5 198 33.1 196.5 33.1 C 194.2 33.1 192.1 31.3 192.1 28.2 C 192.1 25.2 194.2 23.5 196.5 23.5 C 198 23.5 199.4 24 200.3 25.3 C 200.3 25.3 200.3 22.8 200.3 22.8 C 200.3 20.8 199.3 19.7 197.4 19.7 C 196 19.7 194.8 20.2 193.7 21.5 C 193.7 21.5 192.8 20 192.8 20 C 194.2 18.5 195.9 17.9 197.7 17.9 C 200.6 17.9 202.5 19.3 202.5 22.6 C 202.49 22.56 202.5 32.7 202.5 32.7 L 200.3 32.7 Z M 200.3 29.7 C 200.3 29.7 200.3 26.9 200.3 26.9 C 199.7 25.7 198.5 25.1 197.2 25.1 C 195.4 25.1 194.3 26.5 194.3 28.3 C 194.3 30.1 195.4 31.5 197.2 31.5 C 198.5 31.5 199.7 30.9 200.3 29.7 Z M 205.7 25.4 C 205.7 21.2 208 17.9 211.7 17.9 C 213.7 17.9 214.9 18.7 215.8 19.8 C 215.8 19.8 214.7 21.2 214.7 21.2 C 213.9 20.2 213 19.8 211.9 19.8 C 209.3 19.8 208 22.4 208 25.4 C 208 28.5 209.3 31.1 211.9 31.1 C 213 31.1 213.9 30.7 214.7 29.7 C 214.7 29.7 215.8 31.1 215.8 31.1 C 214.9 32.3 213.7 33.1 211.7 33.1 C 208 33.1 205.7 29.7 205.7 25.4 Z M 219 29.8 C 219.02 29.79 219 20.1 219 20.1 L 217.1 20.1 L 217.1 18.2 L 219 18.2 L 219 14.3 L 221.2 14.3 L 221.2 18.2 L 223.6 18.2 L 223.6 20.1 L 221.2 20.1 C 221.2 20.1 221.18 29.4 221.2 29.4 C 221.2 30.5 221.5 31.1 222.4 31.1 C 222.9 31.1 223.3 30.9 223.6 30.6 C 223.6 30.6 224.3 32.2 224.3 32.2 C 223.8 32.7 223 33.1 221.9 33.1 C 220 33.1 219 32 219 29.8 Z " stroke="none" fill="#d3d2d2"/>  </g></svg>