<?xml version="1.0" standalone="no"?><!DOCTYPE svg PUBLIC "-//W3C//DTD SVG 1.1//EN" "http://www.w3.org/Graphics/SVG/1.1/DTD/svg11.dtd"><svg xmlns="http://www.w3.org/2000/svg" version="1.1" width="219px" height="337.3px" viewBox="0 0 219 337.3">  <desc>70 g 120 ml 1 bar 3 4 sticks as needed as needed as needed optional as needed</desc>  <defs/>  <g id="Polygon158435">    <path d="M 9.4 320.7 C 9.4 320.7 9.42 319.14 9.4 319.1 C 8.5 320.5 7.1 321.1 5.6 321.1 C 3.3 321.1 1.2 319.3 1.2 316.2 C 1.2 313.2 3.2 311.5 5.6 311.5 C 7.1 311.5 8.5 312 9.4 313.3 C 9.4 313.3 9.4 310.8 9.4 310.8 C 9.4 308.8 8.3 307.7 6.4 307.7 C 5.1 307.7 3.9 308.2 2.8 309.5 C 2.8 309.5 1.9 308 1.9 308 C 3.2 306.5 4.9 305.9 6.8 305.9 C 9.7 305.9 11.6 307.3 11.6 310.6 C 11.58 310.56 11.6 320.7 11.6 320.7 L 9.4 320.7 Z M 9.4 317.7 C 9.4 317.7 9.4 314.9 9.4 314.9 C 8.8 313.7 7.6 313.1 6.3 313.1 C 4.5 313.1 3.4 314.5 3.4 316.3 C 3.4 318.1 4.5 319.5 6.3 319.5 C 7.6 319.5 8.8 318.9 9.4 317.7 Z M 14.3 319 C 14.3 319 15.4 317.5 15.4 317.5 C 16.3 318.5 17.6 319.3 19.2 319.3 C 20.9 319.3 22 318.4 22 317 C 22 313.6 14.8 314.8 14.8 309.8 C 14.8 307.6 16.5 305.9 19.4 305.9 C 21.3 305.9 22.8 306.6 23.8 307.7 C 23.8 307.7 22.8 309.2 22.8 309.2 C 22 308.2 20.8 307.6 19.4 307.6 C 17.8 307.6 16.8 308.5 16.8 309.7 C 16.8 312.8 24.1 311.7 24.1 316.9 C 24.1 319.3 22.2 321.1 19.2 321.1 C 17.2 321.1 15.5 320.4 14.3 319 Z M 41.4 320.7 C 41.4 320.7 41.4 310.38 41.4 310.4 C 41.4 308.5 40.5 307.8 39.1 307.8 C 37.7 307.8 36.4 308.9 35.7 310.1 C 35.7 310.08 35.7 320.7 35.7 320.7 L 33.6 320.7 L 33.6 306.2 L 35.7 306.2 C 35.7 306.2 35.7 308.28 35.7 308.3 C 36.5 307 38.2 305.9 39.9 305.9 C 42.4 305.9 43.6 307.2 43.6 309.8 C 43.56 309.78 43.6 320.7 43.6 320.7 L 41.4 320.7 Z M 46.8 313.4 C 46.8 309.2 49 305.9 52.7 305.9 C 56.5 305.9 58.4 309.3 58.4 313.5 C 58.41 313.5 58.4 314.2 58.4 314.2 C 58.4 314.2 49.02 314.16 49 314.2 C 49.1 317.1 50.6 319.3 53.2 319.3 C 54.4 319.3 55.7 318.6 56.6 317.5 C 56.6 317.5 57.8 318.8 57.8 318.8 C 56.6 320.2 55 321.1 53 321.1 C 49.1 321.1 46.8 317.9 46.8 313.4 Z M 52.6 307.7 C 50.1 307.7 49.1 310.4 49 312.6 C 49 312.6 56.3 312.6 56.3 312.6 C 56.2 310.4 55.3 307.7 52.6 307.7 Z M 60.8 313.4 C 60.8 309.2 63.1 305.9 66.7 305.9 C 70.5 305.9 72.4 309.3 72.4 313.5 C 72.45 313.5 72.4 314.2 72.4 314.2 C 72.4 314.2 63.06 314.16 63.1 314.2 C 63.1 317.1 64.6 319.3 67.2 319.3 C 68.5 319.3 69.8 318.6 70.7 317.5 C 70.7 317.5 71.8 318.8 71.8 318.8 C 70.6 320.2 69 321.1 67 321.1 C 63.2 321.1 60.8 317.9 60.8 313.4 Z M 66.7 307.7 C 64.1 307.7 63.1 310.4 63.1 312.6 C 63.1 312.6 70.3 312.6 70.3 312.6 C 70.3 310.4 69.3 307.7 66.7 307.7 Z M 83.9 320.7 C 83.9 320.7 83.88 318.63 83.9 318.6 C 83 320.1 81.6 321.1 80.1 321.1 C 76.8 321.1 74.9 318 74.9 313.5 C 74.9 309 76.8 305.9 80.1 305.9 C 81.5 305.9 83 306.7 83.9 308.3 C 83.88 308.31 83.9 300.7 83.9 300.7 L 86 300.7 L 86 320.7 L 83.9 320.7 Z M 83.9 316.8 C 83.9 316.8 83.9 310.1 83.9 310.1 C 83.3 308.9 82 307.8 80.6 307.8 C 78.2 307.8 77.1 310.3 77.1 313.5 C 77.1 316.6 78.2 319.1 80.6 319.1 C 82 319.1 83.3 318.1 83.9 316.8 Z M 89.3 313.4 C 89.3 309.2 91.5 305.9 95.2 305.9 C 99 305.9 100.9 309.3 100.9 313.5 C 100.89 313.5 100.9 314.2 100.9 314.2 C 100.9 314.2 91.5 314.16 91.5 314.2 C 91.6 317.1 93.1 319.3 95.7 319.3 C 96.9 319.3 98.2 318.6 99.1 317.5 C 99.1 317.5 100.3 318.8 100.3 318.8 C 99.1 320.2 97.4 321.1 95.5 321.1 C 91.6 321.1 89.3 317.9 89.3 313.4 Z M 95.1 307.7 C 92.6 307.7 91.6 310.4 91.5 312.6 C 91.5 312.6 98.8 312.6 98.8 312.6 C 98.7 310.4 97.8 307.7 95.1 307.7 Z M 112.3 320.7 C 112.3 320.7 112.32 318.63 112.3 318.6 C 111.5 320.1 110 321.1 108.5 321.1 C 105.3 321.1 103.3 318 103.3 313.5 C 103.3 309 105.2 305.9 108.5 305.9 C 110 305.9 111.4 306.7 112.3 308.3 C 112.32 308.31 112.3 300.7 112.3 300.7 L 114.5 300.7 L 114.5 320.7 L 112.3 320.7 Z M 112.3 316.8 C 112.3 316.8 112.3 310.1 112.3 310.1 C 111.8 308.9 110.4 307.8 109 307.8 C 106.7 307.8 105.6 310.3 105.6 313.5 C 105.6 316.6 106.7 319.1 109 319.1 C 110.4 319.1 111.8 318.1 112.3 316.8 Z " stroke="none" fill="#d0d1d4"/>  </g>  <g id="Polygon158434">    <path d="M 1.3 277.4 C 1.3 273.4 3.3 269.9 7.1 269.9 C 11 269.9 13 273.4 13 277.4 C 13 281.5 11 285.1 7.1 285.1 C 3.3 285.1 1.3 281.5 1.3 277.4 Z M 10.8 277.4 C 10.8 274.5 9.7 271.8 7.1 271.8 C 4.7 271.8 3.5 274.5 3.5 277.4 C 3.5 280.4 4.7 283.1 7.1 283.1 C 9.7 283.1 10.8 280.4 10.8 277.4 Z M 18.4 282.6 C 18.42 282.6 18.4 290.2 18.4 290.2 L 16.3 290.2 L 16.3 270.2 L 18.4 270.2 C 18.4 270.2 18.42 272.28 18.4 272.3 C 19.3 270.8 20.7 269.9 22.2 269.9 C 25.5 269.9 27.4 272.9 27.4 277.4 C 27.4 282 25.5 285.1 22.2 285.1 C 20.8 285.1 19.3 284.2 18.4 282.6 Z M 25.2 277.4 C 25.2 274.3 24.1 271.8 21.7 271.8 C 20.3 271.8 19 272.9 18.4 274.1 C 18.4 274.1 18.4 280.7 18.4 280.7 C 19 282 20.3 283.1 21.7 283.1 C 24.1 283.1 25.2 280.6 25.2 277.4 Z M 31 281.8 C 31.05 281.79 31 272.1 31 272.1 L 29.1 272.1 L 29.1 270.2 L 31 270.2 L 31 266.3 L 33.2 266.3 L 33.2 270.2 L 35.7 270.2 L 35.7 272.1 L 33.2 272.1 C 33.2 272.1 33.21 281.4 33.2 281.4 C 33.2 282.5 33.5 283.1 34.4 283.1 C 34.9 283.1 35.4 282.9 35.6 282.6 C 35.6 282.6 36.3 284.2 36.3 284.2 C 35.8 284.7 35.1 285.1 34 285.1 C 32 285.1 31 284 31 281.8 Z M 38.1 266.6 C 38.1 265.8 38.8 265.2 39.6 265.2 C 40.4 265.2 41 265.8 41 266.6 C 41 267.5 40.4 268.1 39.6 268.1 C 38.8 268.1 38.1 267.5 38.1 266.6 Z M 38.5 284.7 L 38.5 270.2 L 40.6 270.2 L 40.6 284.7 L 38.5 284.7 Z M 43.9 277.4 C 43.9 273.4 45.9 269.9 49.8 269.9 C 53.7 269.9 55.7 273.4 55.7 277.4 C 55.7 281.5 53.7 285.1 49.8 285.1 C 45.9 285.1 43.9 281.5 43.9 277.4 Z M 53.4 277.4 C 53.4 274.5 52.3 271.8 49.8 271.8 C 47.3 271.8 46.1 274.5 46.1 277.4 C 46.1 280.4 47.3 283.1 49.8 283.1 C 52.3 283.1 53.4 280.4 53.4 277.4 Z M 66.7 284.7 C 66.7 284.7 66.75 274.38 66.7 274.4 C 66.7 272.5 65.9 271.8 64.4 271.8 C 63 271.8 61.7 272.9 61 274.1 C 61.05 274.08 61 284.7 61 284.7 L 58.9 284.7 L 58.9 270.2 L 61 270.2 C 61 270.2 61.05 272.28 61 272.3 C 61.9 271 63.5 269.9 65.2 269.9 C 67.7 269.9 68.9 271.2 68.9 273.8 C 68.91 273.78 68.9 284.7 68.9 284.7 L 66.7 284.7 Z M 80.3 284.7 C 80.3 284.7 80.31 283.14 80.3 283.1 C 79.4 284.5 78 285.1 76.5 285.1 C 74.2 285.1 72.1 283.3 72.1 280.2 C 72.1 277.2 74.1 275.5 76.5 275.5 C 78 275.5 79.4 276 80.3 277.3 C 80.3 277.3 80.3 274.8 80.3 274.8 C 80.3 272.8 79.2 271.7 77.3 271.7 C 76 271.7 74.8 272.2 73.7 273.5 C 73.7 273.5 72.7 272 72.7 272 C 74.1 270.5 75.8 269.9 77.7 269.9 C 80.5 269.9 82.5 271.3 82.5 274.6 C 82.47 274.56 82.5 284.7 82.5 284.7 L 80.3 284.7 Z M 80.3 281.7 C 80.3 281.7 80.3 278.9 80.3 278.9 C 79.6 277.7 78.4 277.1 77.2 277.1 C 75.4 277.1 74.3 278.5 74.3 280.3 C 74.3 282.1 75.4 283.5 77.2 283.5 C 78.4 283.5 79.6 282.9 80.3 281.7 Z M 86.4 284.7 L 86.4 264.7 L 88.5 264.7 L 88.5 284.7 L 86.4 284.7 Z " stroke="none" fill="#d0d1d4"/>  </g>  <g id="Polygon158433">    <path d="M 9.4 248.7 C 9.4 248.7 9.42 247.14 9.4 247.1 C 8.5 248.5 7.1 249.1 5.6 249.1 C 3.3 249.1 1.2 247.3 1.2 244.2 C 1.2 241.2 3.2 239.5 5.6 239.5 C 7.1 239.5 8.5 240 9.4 241.3 C 9.4 241.3 9.4 238.8 9.4 238.8 C 9.4 236.8 8.3 235.7 6.4 235.7 C 5.1 235.7 3.9 236.2 2.8 237.5 C 2.8 237.5 1.9 236 1.9 236 C 3.2 234.5 4.9 233.9 6.8 233.9 C 9.7 233.9 11.6 235.3 11.6 238.6 C 11.58 238.56 11.6 248.7 11.6 248.7 L 9.4 248.7 Z M 9.4 245.7 C 9.4 245.7 9.4 242.9 9.4 242.9 C 8.8 241.7 7.6 241.1 6.3 241.1 C 4.5 241.1 3.4 242.5 3.4 244.3 C 3.4 246.1 4.5 247.5 6.3 247.5 C 7.6 247.5 8.8 246.9 9.4 245.7 Z M 14.3 247 C 14.3 247 15.4 245.5 15.4 245.5 C 16.3 246.5 17.6 247.3 19.2 247.3 C 20.9 247.3 22 246.4 22 245 C 22 241.6 14.8 242.8 14.8 237.8 C 14.8 235.6 16.5 233.9 19.4 233.9 C 21.3 233.9 22.8 234.6 23.8 235.7 C 23.8 235.7 22.8 237.2 22.8 237.2 C 22 236.2 20.8 235.6 19.4 235.6 C 17.8 235.6 16.8 236.5 16.8 237.7 C 16.8 240.8 24.1 239.7 24.1 244.9 C 24.1 247.3 22.2 249.1 19.2 249.1 C 17.2 249.1 15.5 248.4 14.3 247 Z M 41.4 248.7 C 41.4 248.7 41.4 238.38 41.4 238.4 C 41.4 236.5 40.5 235.8 39.1 235.8 C 37.7 235.8 36.4 236.9 35.7 238.1 C 35.7 238.08 35.7 248.7 35.7 248.7 L 33.6 248.7 L 33.6 234.2 L 35.7 234.2 C 35.7 234.2 35.7 236.28 35.7 236.3 C 36.5 235 38.2 233.9 39.9 233.9 C 42.4 233.9 43.6 235.2 43.6 237.8 C 43.56 237.78 43.6 248.7 43.6 248.7 L 41.4 248.7 Z M 46.8 241.4 C 46.8 237.2 49 233.9 52.7 233.9 C 56.5 233.9 58.4 237.3 58.4 241.5 C 58.41 241.5 58.4 242.2 58.4 242.2 C 58.4 242.2 49.02 242.16 49 242.2 C 49.1 245.1 50.6 247.3 53.2 247.3 C 54.4 247.3 55.7 246.6 56.6 245.5 C 56.6 245.5 57.8 246.8 57.8 246.8 C 56.6 248.2 55 249.1 53 249.1 C 49.1 249.1 46.8 245.9 46.8 241.4 Z M 52.6 235.7 C 50.1 235.7 49.1 238.4 49 240.6 C 49 240.6 56.3 240.6 56.3 240.6 C 56.2 238.4 55.3 235.7 52.6 235.7 Z M 60.8 241.4 C 60.8 237.2 63.1 233.9 66.7 233.9 C 70.5 233.9 72.4 237.3 72.4 241.5 C 72.45 241.5 72.4 242.2 72.4 242.2 C 72.4 242.2 63.06 242.16 63.1 242.2 C 63.1 245.1 64.6 247.3 67.2 247.3 C 68.5 247.3 69.8 246.6 70.7 245.5 C 70.7 245.5 71.8 246.8 71.8 246.8 C 70.6 248.2 69 249.1 67 249.1 C 63.2 249.1 60.8 245.9 60.8 241.4 Z M 66.7 235.7 C 64.1 235.7 63.1 238.4 63.1 240.6 C 63.1 240.6 70.3 240.6 70.3 240.6 C 70.3 238.4 69.3 235.7 66.7 235.7 Z M 83.9 248.7 C 83.9 248.7 83.88 246.63 83.9 246.6 C 83 248.1 81.6 249.1 80.1 249.1 C 76.8 249.1 74.9 246 74.9 241.5 C 74.9 237 76.8 233.9 80.1 233.9 C 81.5 233.9 83 234.7 83.9 236.3 C 83.88 236.31 83.9 228.7 83.9 228.7 L 86 228.7 L 86 248.7 L 83.9 248.7 Z M 83.9 244.8 C 83.9 244.8 83.9 238.1 83.9 238.1 C 83.3 236.9 82 235.8 80.6 235.8 C 78.2 235.8 77.1 238.3 77.1 241.5 C 77.1 244.6 78.2 247.1 80.6 247.1 C 82 247.1 83.3 246.1 83.9 244.8 Z M 89.3 241.4 C 89.3 237.2 91.5 233.9 95.2 233.9 C 99 233.9 100.9 237.3 100.9 241.5 C 100.89 241.5 100.9 242.2 100.9 242.2 C 100.9 242.2 91.5 242.16 91.5 242.2 C 91.6 245.1 93.1 247.3 95.7 247.3 C 96.9 247.3 98.2 246.6 99.1 245.5 C 99.1 245.5 100.3 246.8 100.3 246.8 C 99.1 248.2 97.4 249.1 95.5 249.1 C 91.6 249.1 89.3 245.9 89.3 241.4 Z M 95.1 235.7 C 92.6 235.7 91.6 238.4 91.5 240.6 C 91.5 240.6 98.8 240.6 98.8 240.6 C 98.7 238.4 97.8 235.7 95.1 235.7 Z M 112.3 248.7 C 112.3 248.7 112.32 246.63 112.3 246.6 C 111.5 248.1 110 249.1 108.5 249.1 C 105.3 249.1 103.3 246 103.3 241.5 C 103.3 237 105.2 233.9 108.5 233.9 C 110 233.9 111.4 234.7 112.3 236.3 C 112.32 236.31 112.3 228.7 112.3 228.7 L 114.5 228.7 L 114.5 248.7 L 112.3 248.7 Z M 112.3 244.8 C 112.3 244.8 112.3 238.1 112.3 238.1 C 111.8 236.9 110.4 235.8 109 235.8 C 106.7 235.8 105.6 238.3 105.6 241.5 C 105.6 244.6 106.7 247.1 109 247.1 C 110.4 247.1 111.8 246.1 112.3 244.8 Z " stroke="none" fill="#d0d1d4"/>  </g>  <g id="Polygon158432">    <path d="M 9.4 212.7 C 9.4 212.7 9.42 211.14 9.4 211.1 C 8.5 212.5 7.1 213.1 5.6 213.1 C 3.3 213.1 1.2 211.3 1.2 208.2 C 1.2 205.2 3.2 203.5 5.6 203.5 C 7.1 203.5 8.5 204 9.4 205.3 C 9.4 205.3 9.4 202.8 9.4 202.8 C 9.4 200.8 8.3 199.7 6.4 199.7 C 5.1 199.7 3.9 200.2 2.8 201.5 C 2.8 201.5 1.9 200 1.9 200 C 3.2 198.5 4.9 197.9 6.8 197.9 C 9.7 197.9 11.6 199.3 11.6 202.6 C 11.58 202.56 11.6 212.7 11.6 212.7 L 9.4 212.7 Z M 9.4 209.7 C 9.4 209.7 9.4 206.9 9.4 206.9 C 8.8 205.7 7.6 205.1 6.3 205.1 C 4.5 205.1 3.4 206.5 3.4 208.3 C 3.4 210.1 4.5 211.5 6.3 211.5 C 7.6 211.5 8.8 210.9 9.4 209.7 Z M 14.3 211 C 14.3 211 15.4 209.5 15.4 209.5 C 16.3 210.5 17.6 211.3 19.2 211.3 C 20.9 211.3 22 210.4 22 209 C 22 205.6 14.8 206.8 14.8 201.8 C 14.8 199.6 16.5 197.9 19.4 197.9 C 21.3 197.9 22.8 198.6 23.8 199.7 C 23.8 199.7 22.8 201.2 22.8 201.2 C 22 200.2 20.8 199.6 19.4 199.6 C 17.8 199.6 16.8 200.5 16.8 201.7 C 16.8 204.8 24.1 203.7 24.1 208.9 C 24.1 211.3 22.2 213.1 19.2 213.1 C 17.2 213.1 15.5 212.4 14.3 211 Z M 41.4 212.7 C 41.4 212.7 41.4 202.38 41.4 202.4 C 41.4 200.5 40.5 199.8 39.1 199.8 C 37.7 199.8 36.4 200.9 35.7 202.1 C 35.7 202.08 35.7 212.7 35.7 212.7 L 33.6 212.7 L 33.6 198.2 L 35.7 198.2 C 35.7 198.2 35.7 200.28 35.7 200.3 C 36.5 199 38.2 197.9 39.9 197.9 C 42.4 197.9 43.6 199.2 43.6 201.8 C 43.56 201.78 43.6 212.7 43.6 212.7 L 41.4 212.7 Z M 46.8 205.4 C 46.8 201.2 49 197.9 52.7 197.9 C 56.5 197.9 58.4 201.3 58.4 205.5 C 58.41 205.5 58.4 206.2 58.4 206.2 C 58.4 206.2 49.02 206.16 49 206.2 C 49.1 209.1 50.6 211.3 53.2 211.3 C 54.4 211.3 55.7 210.6 56.6 209.5 C 56.6 209.5 57.8 210.8 57.8 210.8 C 56.6 212.2 55 213.1 53 213.1 C 49.1 213.1 46.8 209.9 46.8 205.4 Z M 52.6 199.7 C 50.1 199.7 49.1 202.4 49 204.6 C 49 204.6 56.3 204.6 56.3 204.6 C 56.2 202.4 55.3 199.7 52.6 199.7 Z M 60.8 205.4 C 60.8 201.2 63.1 197.9 66.7 197.9 C 70.5 197.9 72.4 201.3 72.4 205.5 C 72.45 205.5 72.4 206.2 72.4 206.2 C 72.4 206.2 63.06 206.16 63.1 206.2 C 63.1 209.1 64.6 211.3 67.2 211.3 C 68.5 211.3 69.8 210.6 70.7 209.5 C 70.7 209.5 71.8 210.8 71.8 210.8 C 70.6 212.2 69 213.1 67 213.1 C 63.2 213.1 60.8 209.9 60.8 205.4 Z M 66.7 199.7 C 64.1 199.7 63.1 202.4 63.1 204.6 C 63.1 204.6 70.3 204.6 70.3 204.6 C 70.3 202.4 69.3 199.7 66.7 199.7 Z M 83.9 212.7 C 83.9 212.7 83.88 210.63 83.9 210.6 C 83 212.1 81.6 213.1 80.1 213.1 C 76.8 213.1 74.9 210 74.9 205.5 C 74.9 201 76.8 197.9 80.1 197.9 C 81.5 197.9 83 198.7 83.9 200.3 C 83.88 200.31 83.9 192.7 83.9 192.7 L 86 192.7 L 86 212.7 L 83.9 212.7 Z M 83.9 208.8 C 83.9 208.8 83.9 202.1 83.9 202.1 C 83.3 200.9 82 199.8 80.6 199.8 C 78.2 199.8 77.1 202.3 77.1 205.5 C 77.1 208.6 78.2 211.1 80.6 211.1 C 82 211.1 83.3 210.1 83.9 208.8 Z M 89.3 205.4 C 89.3 201.2 91.5 197.9 95.2 197.9 C 99 197.9 100.9 201.3 100.9 205.5 C 100.89 205.5 100.9 206.2 100.9 206.2 C 100.9 206.2 91.5 206.16 91.5 206.2 C 91.6 209.1 93.1 211.3 95.7 211.3 C 96.9 211.3 98.2 210.6 99.1 209.5 C 99.1 209.5 100.3 210.8 100.3 210.8 C 99.1 212.2 97.4 213.1 95.5 213.1 C 91.6 213.1 89.3 209.9 89.3 205.4 Z M 95.1 199.7 C 92.6 199.7 91.6 202.4 91.5 204.6 C 91.5 204.6 98.8 204.6 98.8 204.6 C 98.7 202.4 97.8 199.7 95.1 199.7 Z M 112.3 212.7 C 112.3 212.7 112.32 210.63 112.3 210.6 C 111.5 212.1 110 213.1 108.5 213.1 C 105.3 213.1 103.3 210 103.3 205.5 C 103.3 201 105.2 197.9 108.5 197.9 C 110 197.9 111.4 198.7 112.3 200.3 C 112.32 200.31 112.3 192.7 112.3 192.7 L 114.5 192.7 L 114.5 212.7 L 112.3 212.7 Z M 112.3 208.8 C 112.3 208.8 112.3 202.1 112.3 202.1 C 111.8 200.9 110.4 199.8 109 199.8 C 106.7 199.8 105.6 202.3 105.6 205.5 C 105.6 208.6 106.7 211.1 109 211.1 C 110.4 211.1 111.8 210.1 112.3 208.8 Z " stroke="none" fill="#d0d1d4"/>  </g>  <g id="Polygon158431">    <path d="M 9.4 176.7 C 9.4 176.7 9.42 175.14 9.4 175.1 C 8.5 176.5 7.1 177.1 5.6 177.1 C 3.3 177.1 1.2 175.3 1.2 172.2 C 1.2 169.2 3.2 167.5 5.6 167.5 C 7.1 167.5 8.5 168 9.4 169.3 C 9.4 169.3 9.4 166.8 9.4 166.8 C 9.4 164.8 8.3 163.7 6.4 163.7 C 5.1 163.7 3.9 164.2 2.8 165.5 C 2.8 165.5 1.9 164 1.9 164 C 3.2 162.5 4.9 161.9 6.8 161.9 C 9.7 161.9 11.6 163.3 11.6 166.6 C 11.58 166.56 11.6 176.7 11.6 176.7 L 9.4 176.7 Z M 9.4 173.7 C 9.4 173.7 9.4 170.9 9.4 170.9 C 8.8 169.7 7.6 169.1 6.3 169.1 C 4.5 169.1 3.4 170.5 3.4 172.3 C 3.4 174.1 4.5 175.5 6.3 175.5 C 7.6 175.5 8.8 174.9 9.4 173.7 Z M 14.3 175 C 14.3 175 15.4 173.5 15.4 173.5 C 16.3 174.5 17.6 175.3 19.2 175.3 C 20.9 175.3 22 174.4 22 173 C 22 169.6 14.8 170.8 14.8 165.8 C 14.8 163.6 16.5 161.9 19.4 161.9 C 21.3 161.9 22.8 162.6 23.8 163.7 C 23.8 163.7 22.8 165.2 22.8 165.2 C 22 164.2 20.8 163.6 19.4 163.6 C 17.8 163.6 16.8 164.5 16.8 165.7 C 16.8 168.8 24.1 167.7 24.1 172.9 C 24.1 175.3 22.2 177.1 19.2 177.1 C 17.2 177.1 15.5 176.4 14.3 175 Z M 41.4 176.7 C 41.4 176.7 41.4 166.38 41.4 166.4 C 41.4 164.5 40.5 163.8 39.1 163.8 C 37.7 163.8 36.4 164.9 35.7 166.1 C 35.7 166.08 35.7 176.7 35.7 176.7 L 33.6 176.7 L 33.6 162.2 L 35.7 162.2 C 35.7 162.2 35.7 164.28 35.7 164.3 C 36.5 163 38.2 161.9 39.9 161.9 C 42.4 161.9 43.6 163.2 43.6 165.8 C 43.56 165.78 43.6 176.7 43.6 176.7 L 41.4 176.7 Z M 46.8 169.4 C 46.8 165.2 49 161.9 52.7 161.9 C 56.5 161.9 58.4 165.3 58.4 169.5 C 58.41 169.5 58.4 170.2 58.4 170.2 C 58.4 170.2 49.02 170.16 49 170.2 C 49.1 173.1 50.6 175.3 53.2 175.3 C 54.4 175.3 55.7 174.6 56.6 173.5 C 56.6 173.5 57.8 174.8 57.8 174.8 C 56.6 176.2 55 177.1 53 177.1 C 49.1 177.1 46.8 173.9 46.8 169.4 Z M 52.6 163.7 C 50.1 163.7 49.1 166.4 49 168.6 C 49 168.6 56.3 168.6 56.3 168.6 C 56.2 166.4 55.3 163.7 52.6 163.7 Z M 60.8 169.4 C 60.8 165.2 63.1 161.9 66.7 161.9 C 70.5 161.9 72.4 165.3 72.4 169.5 C 72.45 169.5 72.4 170.2 72.4 170.2 C 72.4 170.2 63.06 170.16 63.1 170.2 C 63.1 173.1 64.6 175.3 67.2 175.3 C 68.5 175.3 69.8 174.6 70.7 173.5 C 70.7 173.5 71.8 174.8 71.8 174.8 C 70.6 176.2 69 177.1 67 177.1 C 63.2 177.1 60.8 173.9 60.8 169.4 Z M 66.7 163.7 C 64.1 163.7 63.1 166.4 63.1 168.6 C 63.1 168.6 70.3 168.6 70.3 168.6 C 70.3 166.4 69.3 163.7 66.7 163.7 Z M 83.9 176.7 C 83.9 176.7 83.88 174.63 83.9 174.6 C 83 176.1 81.6 177.1 80.1 177.1 C 76.8 177.1 74.9 174 74.9 169.5 C 74.9 165 76.8 161.9 80.1 161.9 C 81.5 161.9 83 162.7 83.9 164.3 C 83.88 164.31 83.9 156.7 83.9 156.7 L 86 156.7 L 86 176.7 L 83.9 176.7 Z M 83.9 172.8 C 83.9 172.8 83.9 166.1 83.9 166.1 C 83.3 164.9 82 163.8 80.6 163.8 C 78.2 163.8 77.1 166.3 77.1 169.5 C 77.1 172.6 78.2 175.1 80.6 175.1 C 82 175.1 83.3 174.1 83.9 172.8 Z M 89.3 169.4 C 89.3 165.2 91.5 161.9 95.2 161.9 C 99 161.9 100.9 165.3 100.9 169.5 C 100.89 169.5 100.9 170.2 100.9 170.2 C 100.9 170.2 91.5 170.16 91.5 170.2 C 91.6 173.1 93.1 175.3 95.7 175.3 C 96.9 175.3 98.2 174.6 99.1 173.5 C 99.1 173.5 100.3 174.8 100.3 174.8 C 99.1 176.2 97.4 177.1 95.5 177.1 C 91.6 177.1 89.3 173.9 89.3 169.4 Z M 95.1 163.7 C 92.6 163.7 91.6 166.4 91.5 168.6 C 91.5 168.6 98.8 168.6 98.8 168.6 C 98.7 166.4 97.8 163.7 95.1 163.7 Z M 112.3 176.7 C 112.3 176.7 112.32 174.63 112.3 174.6 C 111.5 176.1 110 177.1 108.5 177.1 C 105.3 177.1 103.3 174 103.3 169.5 C 103.3 165 105.2 161.9 108.5 161.9 C 110 161.9 111.4 162.7 112.3 164.3 C 112.32 164.31 112.3 156.7 112.3 156.7 L 114.5 156.7 L 114.5 176.7 L 112.3 176.7 Z M 112.3 172.8 C 112.3 172.8 112.3 166.1 112.3 166.1 C 111.8 164.9 110.4 163.8 109 163.8 C 106.7 163.8 105.6 166.3 105.6 169.5 C 105.6 172.6 106.7 175.1 109 175.1 C 110.4 175.1 111.8 174.1 112.3 172.8 Z " stroke="none" fill="#d0d1d4"/>  </g>  <g id="Polygon158430">    <path d="M 0.9 137.7 C 0.9 137.7 2.4 136.3 2.4 136.3 C 3.4 137.8 4.8 138.9 6.7 138.9 C 9.1 138.9 10.3 137.4 10.3 135.1 C 10.3 132.4 8.6 131.5 6.5 131.5 C 5.9 131.5 5.2 131.5 4.9 131.5 C 4.9 131.5 4.9 129.4 4.9 129.4 C 5.2 129.4 6 129.4 6.5 129.4 C 8.5 129.4 10.1 128.3 10.1 126 C 10.1 123.7 8.7 122.5 6.7 122.5 C 4.9 122.5 3.6 123.5 2.6 124.9 C 2.6 124.9 1.1 123.5 1.1 123.5 C 2.3 121.6 4.3 120.4 6.8 120.4 C 10.1 120.4 12.5 122.2 12.5 125.7 C 12.5 128.2 10.7 129.9 8.9 130.4 C 10.7 130.6 12.8 132.4 12.8 135.3 C 12.8 138.6 10.6 141.1 6.8 141.1 C 4 141.1 1.9 139.6 0.9 137.7 Z M 16.4 134.4 L 16.4 132.5 L 30.4 132.5 L 30.4 134.4 L 16.4 134.4 Z M 41.2 140.7 L 41.2 135.6 L 33.3 135.6 L 33.3 133.5 L 40.5 120.7 L 43.6 120.7 L 43.6 133.5 L 45.7 133.5 L 45.7 135.6 L 43.6 135.6 L 43.6 140.7 L 41.2 140.7 Z M 41.2 123.3 L 35.5 133.5 L 41.2 133.5 L 41.2 123.3 Z M 53.7 139 C 53.7 139 54.8 137.5 54.8 137.5 C 55.6 138.5 57 139.3 58.6 139.3 C 60.2 139.3 61.3 138.4 61.3 137 C 61.3 133.6 54.1 134.8 54.1 129.8 C 54.1 127.6 55.9 125.9 58.7 125.9 C 60.7 125.9 62.1 126.6 63.1 127.7 C 63.1 127.7 62.1 129.2 62.1 129.2 C 61.4 128.2 60.2 127.6 58.8 127.6 C 57.2 127.6 56.2 128.5 56.2 129.7 C 56.2 132.8 63.4 131.7 63.4 136.9 C 63.4 139.3 61.6 141.1 58.6 141.1 C 56.5 141.1 54.9 140.4 53.7 139 Z M 66.9 137.8 C 66.9 137.79 66.9 128.1 66.9 128.1 L 65 128.1 L 65 126.2 L 66.9 126.2 L 66.9 122.3 L 69.1 122.3 L 69.1 126.2 L 71.5 126.2 L 71.5 128.1 L 69.1 128.1 C 69.1 128.1 69.06 137.4 69.1 137.4 C 69.1 138.5 69.4 139.1 70.2 139.1 C 70.8 139.1 71.2 138.9 71.5 138.6 C 71.5 138.6 72.1 140.2 72.1 140.2 C 71.6 140.7 70.9 141.1 69.8 141.1 C 67.8 141.1 66.9 140 66.9 137.8 Z M 73.9 122.6 C 73.9 121.8 74.6 121.2 75.4 121.2 C 76.2 121.2 76.9 121.8 76.9 122.6 C 76.9 123.5 76.2 124.1 75.4 124.1 C 74.6 124.1 73.9 123.5 73.9 122.6 Z M 74.4 140.7 L 74.4 126.2 L 76.5 126.2 L 76.5 140.7 L 74.4 140.7 Z M 79.7 133.4 C 79.7 129.2 82 125.9 85.7 125.9 C 87.7 125.9 89 126.7 89.9 127.8 C 89.9 127.8 88.7 129.2 88.7 129.2 C 87.9 128.2 87 127.8 85.9 127.8 C 83.3 127.8 82 130.4 82 133.4 C 82 136.5 83.3 139.1 85.9 139.1 C 87 139.1 87.9 138.7 88.7 137.7 C 88.7 137.7 89.9 139.1 89.9 139.1 C 89 140.3 87.7 141.1 85.7 141.1 C 82 141.1 79.7 137.7 79.7 133.4 Z M 100.8 140.7 L 96.8 134.2 L 94.8 136.8 L 94.8 140.7 L 92.6 140.7 L 92.6 120.7 L 94.8 120.7 L 94.8 134.1 L 100.8 126.2 L 103.3 126.2 L 98.3 132.7 L 103.3 140.7 L 100.8 140.7 Z M 104.6 139 C 104.6 139 105.7 137.5 105.7 137.5 C 106.5 138.5 107.9 139.3 109.5 139.3 C 111.1 139.3 112.3 138.4 112.3 137 C 112.3 133.6 105 134.8 105 129.8 C 105 127.6 106.8 125.9 109.6 125.9 C 111.6 125.9 113 126.6 114.1 127.7 C 114.1 127.7 113 129.2 113 129.2 C 112.3 128.2 111.1 127.6 109.7 127.6 C 108.1 127.6 107.1 128.5 107.1 129.7 C 107.1 132.8 114.3 131.7 114.3 136.9 C 114.3 139.3 112.5 141.1 109.5 141.1 C 107.5 141.1 105.8 140.4 104.6 139 Z " stroke="none" fill="#d0d1d4"/>  </g>  <g id="Polygon158429">    <path d="M 5 104.7 L 5 87.8 L 1.9 91.1 L 0.4 89.6 L 5.3 84.7 L 7.3 84.7 L 7.3 104.7 L 5 104.7 Z M 23.3 103.1 C 25.6 103.1 26.8 100.6 26.8 97.5 C 26.8 94.3 25.6 91.8 23.3 91.8 C 21.9 91.8 20.6 92.9 20 94.2 C 20 94.2 20 100.8 20 100.8 C 20.6 102.1 21.9 103.1 23.3 103.1 Z M 17.9 104.7 L 17.9 84.7 L 20 84.7 C 20 84.7 20.01 92.31 20 92.3 C 20.9 90.7 22.3 89.9 23.8 89.9 C 27.1 89.9 29 93 29 97.5 C 29 102 27.1 105.1 23.8 105.1 C 22.3 105.1 20.8 104.1 20 102.6 C 20.01 102.63 20 104.7 20 104.7 L 17.9 104.7 Z M 39.7 104.7 C 39.7 104.7 39.72 103.14 39.7 103.1 C 38.8 104.5 37.4 105.1 35.9 105.1 C 33.6 105.1 31.5 103.3 31.5 100.2 C 31.5 97.2 33.5 95.5 35.9 95.5 C 37.4 95.5 38.8 96 39.7 97.3 C 39.7 97.3 39.7 94.8 39.7 94.8 C 39.7 92.8 38.6 91.7 36.7 91.7 C 35.4 91.7 34.2 92.2 33.1 93.5 C 33.1 93.5 32.2 92 32.2 92 C 33.5 90.5 35.2 89.9 37.1 89.9 C 40 89.9 41.9 91.3 41.9 94.6 C 41.88 94.56 41.9 104.7 41.9 104.7 L 39.7 104.7 Z M 39.7 101.7 C 39.7 101.7 39.7 98.9 39.7 98.9 C 39.1 97.7 37.9 97.1 36.6 97.1 C 34.8 97.1 33.7 98.5 33.7 100.3 C 33.7 102.1 34.8 103.5 36.6 103.5 C 37.9 103.5 39.1 102.9 39.7 101.7 Z M 45.8 104.7 L 45.8 90.2 L 47.9 90.2 C 47.9 90.2 47.94 92.52 47.9 92.5 C 48.9 91 50.3 89.9 52 89.9 C 52 89.9 52 92.1 52 92.1 C 51.8 92.1 51.6 92 51.3 92 C 50 92 48.5 93.2 47.9 94.4 C 47.94 94.41 47.9 104.7 47.9 104.7 L 45.8 104.7 Z " stroke="none" fill="#d0d1d4"/>  </g>  <g id="Polygon158428">    <path d="M 5 68.7 L 5 51.8 L 1.9 55.1 L 0.4 53.6 L 5.3 48.7 L 7.3 48.7 L 7.3 68.7 L 5 68.7 Z M 11 68.7 C 11 68.7 11.04 66.75 11 66.8 C 17.6 59.2 19.8 56.8 19.8 53.9 C 19.8 51.7 18.3 50.5 16.6 50.5 C 14.7 50.5 13.3 51.5 12.4 53 C 12.4 53 10.8 51.6 10.8 51.6 C 12.1 49.6 14.1 48.4 16.6 48.4 C 19.7 48.4 22.3 50.4 22.3 53.9 C 22.3 57.2 19.7 60.2 14.4 66.6 C 14.43 66.57 22.3 66.6 22.3 66.6 L 22.3 68.7 L 11 68.7 Z M 25.5 58.7 C 25.5 53.9 27.1 48.4 31.8 48.4 C 36.5 48.4 38.1 53.9 38.1 58.7 C 38.1 63.5 36.5 69.1 31.8 69.1 C 27.1 69.1 25.5 63.5 25.5 58.7 Z M 35.6 58.7 C 35.6 54.8 34.9 50.5 31.8 50.5 C 28.7 50.5 28 54.8 28 58.7 C 28 62.6 28.7 66.9 31.8 66.9 C 34.9 66.9 35.6 62.6 35.6 58.7 Z M 62.5 68.7 C 62.5 68.7 62.55 58.2 62.5 58.2 C 62.5 56.6 61.9 55.8 60.5 55.8 C 59.2 55.8 58 56.9 57.4 58.1 C 57.39 58.08 57.4 68.7 57.4 68.7 L 55.2 68.7 C 55.2 68.7 55.23 58.2 55.2 58.2 C 55.2 56.6 54.6 55.8 53.2 55.8 C 51.9 55.8 50.7 56.9 50 58.1 C 50.04 58.08 50 68.7 50 68.7 L 47.9 68.7 L 47.9 54.2 L 50 54.2 C 50 54.2 50.04 56.28 50 56.3 C 50.6 55.2 52.3 53.9 54 53.9 C 55.9 53.9 57 54.9 57.3 56.4 C 58 55.1 59.6 53.9 61.3 53.9 C 63.5 53.9 64.7 55 64.7 57.6 C 64.71 57.63 64.7 68.7 64.7 68.7 L 62.5 68.7 Z M 68.7 68.7 L 68.7 48.7 L 70.8 48.7 L 70.8 68.7 L 68.7 68.7 Z " stroke="none" fill="#d0d1d4"/>  </g>  <g id="Polygon158427">    <path d="M 3 32.7 L 9.2 14.8 L 0.8 14.8 L 0.8 12.7 L 11.9 12.7 L 11.9 14.3 L 5.5 32.7 L 3 32.7 Z M 14.1 22.7 C 14.1 17.9 15.7 12.4 20.3 12.4 C 25 12.4 26.6 17.9 26.6 22.7 C 26.6 27.5 25 33.1 20.3 33.1 C 15.7 33.1 14.1 27.5 14.1 22.7 Z M 24.2 22.7 C 24.2 18.8 23.4 14.5 20.3 14.5 C 17.3 14.5 16.5 18.8 16.5 22.7 C 16.5 26.6 17.2 30.9 20.3 30.9 C 23.4 30.9 24.2 26.6 24.2 22.7 Z M 36.3 36.8 C 36.3 36.8 37.3 35.1 37.3 35.1 C 38.3 36.2 39.5 36.8 41.1 36.8 C 43.1 36.8 44.7 35.6 44.7 32.8 C 44.7 32.8 44.7 30.4 44.7 30.4 C 43.9 31.9 42.4 32.9 40.9 32.9 C 37.7 32.9 35.7 29.9 35.7 25.4 C 35.7 20.9 37.6 17.9 40.9 17.9 C 42.4 17.9 43.8 18.7 44.7 20.3 C 44.73 20.31 44.7 18.2 44.7 18.2 L 46.9 18.2 C 46.9 18.2 46.89 32.67 46.9 32.7 C 46.9 37.1 44.2 38.6 41.2 38.6 C 39.2 38.6 37.7 38.1 36.3 36.8 Z M 44.7 28.6 C 44.7 28.6 44.7 22.1 44.7 22.1 C 44.2 20.9 42.8 19.8 41.5 19.8 C 39.1 19.8 38 22.3 38 25.4 C 38 28.5 39.1 31 41.5 31 C 42.8 31 44.2 29.8 44.7 28.6 Z " stroke="none" fill="#d0d1d4"/>  </g></svg>