<?xml version="1.0" standalone="no"?><!DOCTYPE svg PUBLIC "-//W3C//DTD SVG 1.1//EN" "http://www.w3.org/Graphics/SVG/1.1/DTD/svg11.dtd"><svg xmlns="http://www.w3.org/2000/svg" version="1.1" width="651px" height="85.6px" viewBox="0 0 651 85.6">  <desc>Sweet and Sour Soap Bits</desc>  <defs/>  <g id="Polygon201109">    <path d="M 0.7 44.2 C 0.7 44.2 4 38.2 4 38.2 C 5.6 40.3 8.2 41.4 10.6 41.4 C 13 41.4 14.6 39.6 14.6 37 C 14.6 29.9 1.9 29.9 1.9 17.9 C 1.9 11.9 5.9 6.7 13 6.7 C 16.4 6.7 19.5 7.9 21.7 10 C 21.7 10 18.8 15.8 18.8 15.8 C 17.2 14.2 15.4 13.4 13.3 13.4 C 11.1 13.4 9.5 15.1 9.5 17.5 C 9.5 23.7 22.3 24.5 22.3 36.5 C 22.3 43.3 17.9 48.1 11 48.1 C 6.7 48.1 3.3 46.7 0.7 44.2 Z M 45.8 47.4 L 41.6 27.7 L 37.5 47.4 L 30.4 47.4 L 23.7 18.4 L 30.7 18.4 L 34.4 38.2 L 38.2 18.4 L 44.7 18.4 L 48.8 38.2 L 52.5 18.4 L 59.6 18.4 L 52.9 47.4 L 45.8 47.4 Z M 61.5 32.9 C 61.5 24.5 65.1 17.7 72.4 17.7 C 79.7 17.7 82.7 24.2 82.7 32.8 C 82.74 32.76 82.7 35.1 82.7 35.1 C 82.7 35.1 68.04 35.1 68 35.1 C 68.1 39.4 69.9 42.6 73.7 42.6 C 75.4 42.6 77.2 41.5 78.5 39.7 C 78.5 39.7 81.8 43.5 81.8 43.5 C 79.6 46.4 76.3 48.1 73 48.1 C 65.5 48.1 61.5 41.8 61.5 32.9 Z M 72.2 23.2 C 68.9 23.2 68 27.3 68 30.4 C 68 30.4 76.2 30.4 76.2 30.4 C 76.2 27.1 75.5 23.2 72.2 23.2 Z M 85.7 32.9 C 85.7 24.5 89.3 17.7 96.6 17.7 C 103.9 17.7 107 24.2 107 32.8 C 106.98 32.76 107 35.1 107 35.1 C 107 35.1 92.28 35.1 92.3 35.1 C 92.3 39.4 94.1 42.6 98 42.6 C 99.6 42.6 101.5 41.5 102.8 39.7 C 102.8 39.7 106.1 43.5 106.1 43.5 C 103.8 46.4 100.6 48.1 97.3 48.1 C 89.7 48.1 85.7 41.8 85.7 32.9 Z M 96.4 23.2 C 93.1 23.2 92.3 27.3 92.3 30.4 C 92.3 30.4 100.4 30.4 100.4 30.4 C 100.4 27.1 99.7 23.2 96.4 23.2 Z M 112 40.7 C 112.02 40.74 112 24.3 112 24.3 L 109.3 24.3 L 109.3 18.4 L 112 18.4 L 112 10.5 L 118.8 10.5 L 118.8 18.4 L 122.5 18.4 L 122.5 24.3 L 118.8 24.3 C 118.8 24.3 118.8 39.42 118.8 39.4 C 118.8 41.2 119.2 42.1 120.4 42.1 C 121.1 42.1 121.7 41.8 122 41.3 C 122 41.3 123.4 46.6 123.4 46.6 C 122.4 47.5 120.8 48.1 118.7 48.1 C 113.9 48.1 112 45.7 112 40.7 Z M 149 47.4 C 149 47.4 148.98 44.64 149 44.6 C 147.7 46.9 145 48.1 142.9 48.1 C 138.4 48.1 135.1 44.4 135.1 38.5 C 135.1 32.6 138.4 29 142.9 29 C 145 29 147.8 30.1 149 32.3 C 149 32.3 149 28.7 149 28.7 C 149 25.4 147.7 23.5 144.6 23.5 C 142.7 23.5 140.6 24.4 138.7 26.3 C 138.7 26.3 136.2 21.5 136.2 21.5 C 138.8 18.7 143 17.7 146 17.7 C 151.9 17.7 155.8 20.7 155.8 27.2 C 155.76 27.18 155.8 47.4 155.8 47.4 L 149 47.4 Z M 149 40.6 C 149 40.6 149 36.7 149 36.7 C 148.3 34.9 146.8 33.7 145.3 33.7 C 143 33.7 141.8 35.8 141.8 38.6 C 141.8 41.3 143 43.6 145.3 43.6 C 146.8 43.6 148.3 42.4 149 40.6 Z M 174.2 47.4 C 174.2 47.4 174.18 26.76 174.2 26.8 C 174.2 24.7 173.5 23.7 172 23.7 C 170.2 23.7 168.7 25.6 168.1 27.5 C 168.06 27.48 168.1 47.4 168.1 47.4 L 161.3 47.4 L 161.3 18.4 L 168.1 18.4 C 168.1 18.4 168.06 22.2 168.1 22.2 C 169.2 19.9 172.2 17.7 174.8 17.7 C 179.2 17.7 181 20.3 181 24.3 C 181.02 24.3 181 47.4 181 47.4 L 174.2 47.4 Z M 199.6 47.4 C 199.6 47.4 199.56 43.8 199.6 43.8 C 198.3 46.7 196 48.1 193.9 48.1 C 188.2 48.1 185.3 42.2 185.3 32.9 C 185.3 23.8 188.2 17.7 193.9 17.7 C 196 17.7 198.4 19 199.6 22 C 199.56 22.02 199.6 7.4 199.6 7.4 L 206.3 7.4 L 206.3 47.4 L 199.6 47.4 Z M 199.6 38.6 C 199.6 38.6 199.6 27.2 199.6 27.2 C 199 25.3 197.6 23.7 196.1 23.7 C 193.1 23.7 192.3 27.8 192.3 32.9 C 192.3 38 193.1 42.1 196.1 42.1 C 197.6 42.1 199 40.6 199.6 38.6 Z M 219.6 44.2 C 219.6 44.2 222.9 38.2 222.9 38.2 C 224.5 40.3 227.1 41.4 229.4 41.4 C 231.8 41.4 233.5 39.6 233.5 37 C 233.5 29.9 220.7 29.9 220.7 17.9 C 220.7 11.9 224.8 6.7 231.9 6.7 C 235.3 6.7 238.4 7.9 240.6 10 C 240.6 10 237.7 15.8 237.7 15.8 C 236.1 14.2 234.2 13.4 232.1 13.4 C 230 13.4 228.4 15.1 228.4 17.5 C 228.4 23.7 241.1 24.5 241.1 36.5 C 241.1 43.3 236.8 48.1 229.9 48.1 C 225.5 48.1 222.2 46.7 219.6 44.2 Z M 244.3 32.9 C 244.3 24.8 247.6 17.7 255.1 17.7 C 262.7 17.7 266 24.8 266 32.9 C 266 40.9 262.7 48.1 255.1 48.1 C 247.6 48.1 244.3 40.9 244.3 32.9 Z M 259 32.9 C 259 28 258.2 23.7 255.1 23.7 C 252.1 23.7 251.3 28 251.3 32.9 C 251.3 37.9 252.1 42.1 255.1 42.1 C 258.2 42.1 259 37.9 259 32.9 Z M 283.3 47.4 C 283.3 47.4 283.32 43.74 283.3 43.7 C 282.2 46.1 279.4 48.1 276.5 48.1 C 272.2 48.1 270.4 45.7 270.4 41.6 C 270.42 41.58 270.4 18.4 270.4 18.4 L 277.2 18.4 C 277.2 18.4 277.2 39.18 277.2 39.2 C 277.2 41.2 277.9 42.1 279.4 42.1 C 281.2 42.1 282.7 40.3 283.3 38.5 C 283.32 38.46 283.3 18.4 283.3 18.4 L 290.2 18.4 L 290.2 47.4 L 283.3 47.4 Z M 295.6 47.4 L 295.6 18.4 L 302.4 18.4 C 302.4 18.4 302.4 22.44 302.4 22.4 C 303.5 19.8 306.4 17.7 308.9 17.7 C 308.9 17.7 308.9 24.4 308.9 24.4 C 308.5 24.2 308 24.2 307.6 24.2 C 305.6 24.2 303.5 25.8 302.4 27.9 C 302.4 27.9 302.4 47.4 302.4 47.4 L 295.6 47.4 Z M 320.2 44.2 C 320.2 44.2 323.5 38.2 323.5 38.2 C 325.1 40.3 327.7 41.4 330 41.4 C 332.4 41.4 334 39.6 334 37 C 334 29.9 321.3 29.9 321.3 17.9 C 321.3 11.9 325.4 6.7 332.5 6.7 C 335.8 6.7 338.9 7.9 341.2 10 C 341.2 10 338.2 15.8 338.2 15.8 C 336.7 14.2 334.8 13.4 332.7 13.4 C 330.5 13.4 329 15.1 329 17.5 C 329 23.7 341.7 24.5 341.7 36.5 C 341.7 43.3 337.3 48.1 330.5 48.1 C 326.1 48.1 322.7 46.7 320.2 44.2 Z M 344.8 32.9 C 344.8 24.8 348.1 17.7 355.7 17.7 C 363.3 17.7 366.6 24.8 366.6 32.9 C 366.6 40.9 363.3 48.1 355.7 48.1 C 348.1 48.1 344.8 40.9 344.8 32.9 Z M 359.6 32.9 C 359.6 28 358.7 23.7 355.7 23.7 C 352.7 23.7 351.8 28 351.8 32.9 C 351.8 37.9 352.7 42.1 355.7 42.1 C 358.7 42.1 359.6 37.9 359.6 32.9 Z M 383.6 47.4 C 383.6 47.4 383.57 44.64 383.6 44.6 C 382.3 46.9 379.6 48.1 377.5 48.1 C 373 48.1 369.7 44.4 369.7 38.5 C 369.7 32.6 373 29 377.5 29 C 379.6 29 382.4 30.1 383.6 32.3 C 383.6 32.3 383.6 28.7 383.6 28.7 C 383.6 25.4 382.3 23.5 379.2 23.5 C 377.3 23.5 375.2 24.4 373.3 26.3 C 373.3 26.3 370.8 21.5 370.8 21.5 C 373.4 18.7 377.6 17.7 380.6 17.7 C 386.5 17.7 390.4 20.7 390.4 27.2 C 390.35 27.18 390.4 47.4 390.4 47.4 L 383.6 47.4 Z M 383.6 40.6 C 383.6 40.6 383.6 36.7 383.6 36.7 C 382.9 34.9 381.4 33.7 379.9 33.7 C 377.6 33.7 376.4 35.8 376.4 38.6 C 376.4 41.3 377.6 43.6 379.9 43.6 C 381.4 43.6 382.9 42.4 383.6 40.6 Z M 402.7 43.8 C 402.65 43.8 402.7 58.4 402.7 58.4 L 395.9 58.4 L 395.9 18.4 L 402.7 18.4 C 402.7 18.4 402.65 22.02 402.7 22 C 403.9 19.1 406.3 17.7 408.3 17.7 C 414 17.7 416.9 23.6 416.9 32.9 C 416.9 42 414 48.1 408.3 48.1 C 406.3 48.1 403.9 46.8 402.7 43.8 Z M 409.9 32.9 C 409.9 27.8 409.1 23.7 406.1 23.7 C 404.6 23.7 403.3 25.1 402.7 27.1 C 402.7 27.1 402.7 38.6 402.7 38.6 C 403.3 40.6 404.6 42.1 406.1 42.1 C 409.1 42.1 409.9 38 409.9 32.9 Z M 431.4 47.4 L 431.4 7.4 C 431.4 7.4 443.45 7.38 443.5 7.4 C 450.1 7.4 453.1 12.1 453.1 17.6 C 453.1 22.6 450.7 25.7 447.2 26.8 C 451 27.4 453.6 31.7 453.6 36.6 C 453.6 42.7 450.8 47.4 443.9 47.4 C 443.87 47.4 431.4 47.4 431.4 47.4 Z M 445.3 18.9 C 445.3 16 444.3 14 441.5 14 C 441.47 14.04 439 14 439 14 L 439 23.7 C 439 23.7 441.47 23.7 441.5 23.7 C 444.3 23.7 445.3 21.8 445.3 18.9 Z M 445.9 35.5 C 445.9 32.6 444.5 30.4 441.7 30.4 C 441.71 30.36 439 30.4 439 30.4 L 439 40.7 C 439 40.7 441.71 40.74 441.7 40.7 C 444.5 40.7 445.9 38.9 445.9 35.5 Z M 457.4 10.9 C 457.4 8.6 459.3 6.8 461.5 6.8 C 463.8 6.8 465.7 8.6 465.7 10.9 C 465.7 13.2 463.8 15 461.5 15 C 459.3 15 457.4 13.2 457.4 10.9 Z M 458.2 47.4 L 458.2 18.4 L 464.9 18.4 L 464.9 47.4 L 458.2 47.4 Z M 471.3 40.7 C 471.29 40.74 471.3 24.3 471.3 24.3 L 468.6 24.3 L 468.6 18.4 L 471.3 18.4 L 471.3 10.5 L 478.1 10.5 L 478.1 18.4 L 481.7 18.4 L 481.7 24.3 L 478.1 24.3 C 478.1 24.3 478.07 39.42 478.1 39.4 C 478.1 41.2 478.5 42.1 479.7 42.1 C 480.4 42.1 481 41.8 481.3 41.3 C 481.3 41.3 482.7 46.6 482.7 46.6 C 481.7 47.5 480.1 48.1 478 48.1 C 473.2 48.1 471.3 45.7 471.3 40.7 Z M 483.8 44.3 C 483.8 44.3 486.7 39.7 486.7 39.7 C 488.2 41.4 490.4 42.8 492.7 42.8 C 494.8 42.8 496.3 41.6 496.3 39.7 C 496.3 34.9 484.9 36 484.9 25.9 C 484.9 21.5 488.2 17.7 494.1 17.7 C 497.4 17.7 500.5 19 502.6 21.1 C 502.6 21.1 499.9 25.7 499.9 25.7 C 498.7 24.3 496.6 23 494.3 23 C 492.4 23 491.2 24.2 491.2 25.7 C 491.2 30.1 502.7 29.3 502.7 39.5 C 502.7 44.6 498.8 48.1 493.3 48.1 C 488.9 48.1 485.8 46.6 483.8 44.3 Z " stroke="none" fill="#b13d24"/>  </g></svg>