<?xml version="1.0" standalone="no"?><!DOCTYPE svg PUBLIC "-//W3C//DTD SVG 1.1//EN" "http://www.w3.org/Graphics/SVG/1.1/DTD/svg11.dtd"><svg xmlns="http://www.w3.org/2000/svg" version="1.1" width="219px" height="503.3px" viewBox="0 0 219 503.3">  <desc>2402 03 38 11 145 62 24 82 111 54 25 68 1 12 50 09 153 95 2991 90 96 83 133 07 61 61</desc>  <defs/>  <g id="Polygon216348">    <path d="M 165 446.4 C 165 441 166.9 436.1 171.7 436.1 C 173.8 436.1 175.4 437.1 176.4 438.6 C 176.4 438.6 175.1 440.2 175.1 440.2 C 174.3 439 173.4 438.2 171.8 438.2 C 168.6 438.2 167.4 442.4 167.4 446.2 C 167.4 446.4 167.4 446.5 167.4 446.8 C 168.1 445.4 169.8 443.8 171.8 443.8 C 174.7 443.8 177.1 446 177.1 450.2 C 177.1 453.6 175 456.7 171.3 456.7 C 166.5 456.7 165 451.7 165 446.4 Z M 174.6 450.3 C 174.6 447.1 173.1 445.9 171.2 445.9 C 169.5 445.9 168.2 447.3 167.4 449 C 167.6 451.2 168.4 454.6 171.2 454.6 C 173.6 454.6 174.6 452.4 174.6 450.3 Z M 183.3 456.4 L 183.3 439.5 L 180.2 442.8 L 178.8 441.3 L 183.6 436.4 L 185.7 436.4 L 185.7 456.4 L 183.3 456.4 Z M 189.6 455.1 C 189.6 454.2 190.3 453.5 191.2 453.5 C 192.1 453.5 192.8 454.2 192.8 455.1 C 192.8 456 192.1 456.7 191.2 456.7 C 190.3 456.7 189.6 456 189.6 455.1 Z M 196 446.4 C 196 441 198 436.1 202.8 436.1 C 204.9 436.1 206.5 437.1 207.5 438.6 C 207.5 438.6 206.1 440.2 206.1 440.2 C 205.4 439 204.5 438.2 202.8 438.2 C 199.6 438.2 198.4 442.4 198.4 446.2 C 198.4 446.4 198.4 446.5 198.5 446.8 C 199.2 445.4 200.8 443.8 202.9 443.8 C 205.8 443.8 208.1 446 208.1 450.2 C 208.1 453.6 206.1 456.7 202.4 456.7 C 197.6 456.7 196 451.7 196 446.4 Z M 205.7 450.3 C 205.7 447.1 204.2 445.9 202.3 445.9 C 200.6 445.9 199.2 447.3 198.5 449 C 198.6 451.2 199.4 454.6 202.2 454.6 C 204.6 454.6 205.7 452.4 205.7 450.3 Z M 214.4 456.4 L 214.4 439.5 L 211.3 442.8 L 209.8 441.3 L 214.6 436.4 L 216.7 436.4 L 216.7 456.4 L 214.4 456.4 Z " stroke="none" fill="#d0d1d4"/>  </g>  <g id="Polygon216347">    <path d="M 151.1 420.4 L 151.1 403.5 L 148 406.8 L 146.6 405.3 L 151.4 400.4 L 153.5 400.4 L 153.5 420.4 L 151.1 420.4 Z M 156.5 417.4 C 156.5 417.4 158 416 158 416 C 159 417.5 160.4 418.6 162.3 418.6 C 164.7 418.6 165.9 417.1 165.9 414.8 C 165.9 412.1 164.2 411.2 162.1 411.2 C 161.5 411.2 160.8 411.2 160.5 411.2 C 160.5 411.2 160.5 409 160.5 409 C 160.8 409.1 161.6 409.1 162.1 409.1 C 164.1 409.1 165.7 408 165.7 405.7 C 165.7 403.3 164.3 402.2 162.3 402.2 C 160.5 402.2 159.2 403.1 158.2 404.6 C 158.2 404.6 156.7 403.2 156.7 403.2 C 157.9 401.3 159.9 400.1 162.4 400.1 C 165.6 400.1 168.1 401.8 168.1 405.4 C 168.1 407.9 166.3 409.6 164.5 410 C 166.3 410.3 168.3 412.1 168.3 415 C 168.3 418.3 166.2 420.7 162.4 420.7 C 159.6 420.7 157.5 419.2 156.5 417.4 Z M 170.7 417.4 C 170.7 417.4 172.2 416 172.2 416 C 173.1 417.5 174.6 418.6 176.5 418.6 C 178.9 418.6 180.1 417.1 180.1 414.8 C 180.1 412.1 178.4 411.2 176.3 411.2 C 175.7 411.2 175 411.2 174.7 411.2 C 174.7 411.2 174.7 409 174.7 409 C 175 409.1 175.8 409.1 176.3 409.1 C 178.3 409.1 179.9 408 179.9 405.7 C 179.9 403.3 178.5 402.2 176.4 402.2 C 174.7 402.2 173.4 403.1 172.4 404.6 C 172.4 404.6 170.9 403.2 170.9 403.2 C 172.1 401.3 174.1 400.1 176.6 400.1 C 179.8 400.1 182.3 401.8 182.3 405.4 C 182.3 407.9 180.5 409.6 178.7 410 C 180.5 410.3 182.5 412.1 182.5 415 C 182.5 418.3 180.4 420.7 176.6 420.7 C 173.7 420.7 171.7 419.2 170.7 417.4 Z M 185.8 419.1 C 185.8 418.2 186.5 417.5 187.4 417.5 C 188.3 417.5 189 418.2 189 419.1 C 189 420 188.3 420.7 187.4 420.7 C 186.5 420.7 185.8 420 185.8 419.1 Z M 192.2 410.4 C 192.2 405.6 193.8 400.1 198.5 400.1 C 203.2 400.1 204.8 405.6 204.8 410.4 C 204.8 415.2 203.2 420.7 198.5 420.7 C 193.8 420.7 192.2 415.2 192.2 410.4 Z M 202.3 410.4 C 202.3 406.4 201.6 402.2 198.5 402.2 C 195.4 402.2 194.7 406.4 194.7 410.4 C 194.7 414.3 195.4 418.6 198.5 418.6 C 201.6 418.6 202.3 414.3 202.3 410.4 Z M 209.1 420.4 L 215.4 402.5 L 207 402.5 L 207 400.4 L 218.1 400.4 L 218.1 402 L 211.7 420.4 L 209.1 420.4 Z " stroke="none" fill="#d0d1d4"/>  </g>  <g id="Polygon216346">    <path d="M 155.6 382.2 C 155.6 382.2 156.9 380.5 156.9 380.5 C 157.7 381.8 158.6 382.6 160.3 382.6 C 163.5 382.6 164.6 378.3 164.6 374.6 C 164.6 374.3 164.6 374.2 164.6 374 C 163.9 375.4 162.3 376.9 160.2 376.9 C 157.3 376.9 155 374.8 155 370.5 C 155 367.2 157 364 160.7 364 C 165.5 364 167.1 369 167.1 374.4 C 167.1 379.8 165.1 384.7 160.3 384.7 C 158.2 384.7 156.6 383.7 155.6 382.2 Z M 164.6 371.8 C 164.4 369.6 163.7 366.2 160.8 366.2 C 158.4 366.2 157.4 368.4 157.4 370.5 C 157.4 373.7 158.9 374.9 160.8 374.9 C 162.5 374.9 163.8 373.4 164.6 371.8 Z M 169.9 374.4 C 169.9 369 171.8 364.1 176.6 364.1 C 178.7 364.1 180.3 365.1 181.3 366.6 C 181.3 366.6 180 368.2 180 368.2 C 179.2 367 178.3 366.2 176.7 366.2 C 173.5 366.2 172.3 370.4 172.3 374.2 C 172.3 374.4 172.3 374.5 172.3 374.8 C 173 373.4 174.6 371.8 176.7 371.8 C 179.6 371.8 182 374 182 378.2 C 182 381.6 179.9 384.7 176.2 384.7 C 171.4 384.7 169.9 379.7 169.9 374.4 Z M 179.5 378.3 C 179.5 375.1 178 373.9 176.1 373.9 C 174.4 373.9 173.1 375.3 172.3 377 C 172.5 379.2 173.3 382.6 176.1 382.6 C 178.5 382.6 179.5 380.4 179.5 378.3 Z M 185.1 383.1 C 185.1 382.2 185.8 381.5 186.6 381.5 C 187.5 381.5 188.3 382.2 188.3 383.1 C 188.3 384 187.5 384.7 186.6 384.7 C 185.8 384.7 185.1 384 185.1 383.1 Z M 191.4 379.5 C 191.4 376.8 193.4 374.8 195.4 374.1 C 193.6 373.4 191.7 371.7 191.7 369.2 C 191.7 365.7 194.5 364.1 197.4 364.1 C 200.2 364.1 203 365.7 203 369.2 C 203 371.7 201.1 373.4 199.3 374.1 C 201.3 374.8 203.3 376.8 203.3 379.4 C 203.3 382.7 200.8 384.7 197.4 384.7 C 193.8 384.7 191.4 382.7 191.4 379.5 Z M 200.6 369.5 C 200.6 367.5 199.3 366.2 197.4 366.2 C 195.4 366.2 194.1 367.5 194.1 369.5 C 194.1 371.9 196.6 372.9 197.4 373.2 C 198.1 372.9 200.6 371.9 200.6 369.5 Z M 200.9 379.2 C 200.9 376.5 198.2 375.2 197.4 375 C 196.5 375.2 193.8 376.5 193.8 379.2 C 193.8 381.3 195.4 382.6 197.4 382.6 C 199.3 382.6 200.9 381.3 200.9 379.2 Z M 205.5 381.4 C 205.5 381.4 207.1 380 207.1 380 C 208 381.5 209.5 382.6 211.4 382.6 C 213.8 382.6 215 381.1 215 378.8 C 215 376.1 213.2 375.2 211.2 375.2 C 210.6 375.2 209.9 375.2 209.6 375.2 C 209.6 375.2 209.6 373 209.6 373 C 209.9 373.1 210.6 373.1 211.1 373.1 C 213.1 373.1 214.8 372 214.8 369.7 C 214.8 367.3 213.3 366.2 211.3 366.2 C 209.5 366.2 208.3 367.1 207.3 368.6 C 207.3 368.6 205.8 367.2 205.8 367.2 C 207 365.3 209 364.1 211.5 364.1 C 214.7 364.1 217.1 365.8 217.1 369.4 C 217.1 371.9 215.4 373.6 213.6 374 C 215.3 374.3 217.4 376.1 217.4 379 C 217.4 382.3 215.3 384.7 211.5 384.7 C 208.6 384.7 206.5 383.2 205.5 381.4 Z " stroke="none" fill="#d0d1d4"/>  </g>  <g id="Polygon216345">    <path d="M 129.8 348.4 C 129.8 348.4 129.83 346.43 129.8 346.4 C 136.4 338.9 138.6 336.5 138.6 333.5 C 138.6 331.4 137.1 330.2 135.4 330.2 C 133.5 330.2 132.1 331.1 131.2 332.7 C 131.2 332.7 129.6 331.3 129.6 331.3 C 130.9 329.2 132.9 328.1 135.4 328.1 C 138.5 328.1 141 330 141 333.5 C 141 336.9 138.5 339.9 133.2 346.2 C 133.22 346.25 141.1 346.2 141.1 346.2 L 141.1 348.4 L 129.8 348.4 Z M 144.8 346.2 C 144.8 346.2 146.1 344.5 146.1 344.5 C 146.9 345.8 147.8 346.6 149.5 346.6 C 152.7 346.6 153.8 342.3 153.8 338.6 C 153.8 338.3 153.8 338.2 153.8 338 C 153.1 339.4 151.5 340.9 149.4 340.9 C 146.5 340.9 144.2 338.8 144.2 334.5 C 144.2 331.2 146.2 328 149.9 328 C 154.7 328 156.3 333 156.3 338.4 C 156.3 343.8 154.3 348.7 149.5 348.7 C 147.4 348.7 145.8 347.7 144.8 346.2 Z M 153.8 335.8 C 153.6 333.6 152.9 330.2 150 330.2 C 147.6 330.2 146.6 332.4 146.6 334.5 C 146.6 337.7 148.1 338.9 150 338.9 C 151.7 338.9 153 337.4 153.8 335.8 Z M 159.6 346.2 C 159.6 346.2 160.9 344.5 160.9 344.5 C 161.7 345.8 162.6 346.6 164.2 346.6 C 167.5 346.6 168.6 342.3 168.6 338.6 C 168.6 338.3 168.6 338.2 168.6 338 C 167.9 339.4 166.2 340.9 164.2 340.9 C 161.3 340.9 158.9 338.8 158.9 334.5 C 158.9 331.2 161 328 164.7 328 C 169.5 328 171 333 171 338.4 C 171 343.8 169.1 348.7 164.2 348.7 C 162.1 348.7 160.6 347.7 159.6 346.2 Z M 168.5 335.8 C 168.4 333.6 167.6 330.2 164.8 330.2 C 162.4 330.2 161.4 332.4 161.4 334.5 C 161.4 337.7 162.9 338.9 164.8 338.9 C 166.5 338.9 167.8 337.4 168.5 335.8 Z M 177.4 348.4 L 177.4 331.5 L 174.3 334.8 L 172.9 333.3 L 177.7 328.4 L 179.8 328.4 L 179.8 348.4 L 177.4 348.4 Z M 183.7 347.1 C 183.7 346.2 184.4 345.5 185.3 345.5 C 186.2 345.5 186.9 346.2 186.9 347.1 C 186.9 348 186.2 348.7 185.3 348.7 C 184.4 348.7 183.7 348 183.7 347.1 Z M 190.6 346.2 C 190.6 346.2 192 344.5 192 344.5 C 192.7 345.8 193.6 346.6 195.3 346.6 C 198.5 346.6 199.6 342.3 199.6 338.6 C 199.6 338.3 199.6 338.2 199.6 338 C 198.9 339.4 197.3 340.9 195.2 340.9 C 192.3 340.9 190 338.8 190 334.5 C 190 331.2 192 328 195.7 328 C 200.5 328 202.1 333 202.1 338.4 C 202.1 343.8 200.1 348.7 195.3 348.7 C 193.2 348.7 191.6 347.7 190.6 346.2 Z M 199.6 335.8 C 199.5 333.6 198.7 330.2 195.9 330.2 C 193.5 330.2 192.4 332.4 192.4 334.5 C 192.4 337.7 193.9 338.9 195.8 338.9 C 197.5 338.9 198.9 337.4 199.6 335.8 Z M 204.9 338.4 C 204.9 333.6 206.5 328.1 211.2 328.1 C 215.8 328.1 217.4 333.6 217.4 338.4 C 217.4 343.2 215.8 348.7 211.2 348.7 C 206.5 348.7 204.9 343.2 204.9 338.4 Z M 215 338.4 C 215 334.4 214.2 330.2 211.2 330.2 C 208.1 330.2 207.3 334.4 207.3 338.4 C 207.3 342.3 208.1 346.6 211.2 346.6 C 214.2 346.6 215 342.3 215 338.4 Z " stroke="none" fill="#d0d1d4"/>  </g>  <g id="Polygon216344">    <path d="M 149.1 312.4 L 149.1 295.5 L 146 298.8 L 144.6 297.3 L 149.4 292.4 L 151.5 292.4 L 151.5 312.4 L 149.1 312.4 Z M 155.1 309.5 C 155.1 309.5 156.7 308 156.7 308 C 157.7 309.7 159 310.6 161 310.6 C 163.2 310.6 164.5 308.6 164.5 306.3 C 164.5 303.4 163.2 301.8 161.1 301.8 C 159.7 301.8 158.6 302.4 157.5 303.7 C 157.49 303.71 155.7 303.1 155.7 303.1 L 155.7 292.4 L 165.9 292.4 L 165.9 294.5 L 158.1 294.5 C 158.1 294.5 158.09 301.49 158.1 301.5 C 158.9 300.5 160.2 299.7 161.8 299.7 C 164.7 299.7 167 302 167 306.2 C 167 310 164.5 312.7 161 312.7 C 158.1 312.7 156.4 311.5 155.1 309.5 Z M 169.2 309.4 C 169.2 309.4 170.7 308 170.7 308 C 171.7 309.5 173.1 310.6 175 310.6 C 177.5 310.6 178.7 309.1 178.7 306.8 C 178.7 304.1 176.9 303.2 174.9 303.2 C 174.2 303.2 173.5 303.2 173.3 303.2 C 173.3 303.2 173.3 301 173.3 301 C 173.5 301.1 174.3 301.1 174.8 301.1 C 176.8 301.1 178.4 300 178.4 297.7 C 178.4 295.3 177 294.2 175 294.2 C 173.2 294.2 171.9 295.1 170.9 296.6 C 170.9 296.6 169.4 295.2 169.4 295.2 C 170.6 293.3 172.6 292.1 175.1 292.1 C 178.4 292.1 180.8 293.8 180.8 297.4 C 180.8 299.9 179.1 301.6 177.2 302 C 179 302.3 181.1 304.1 181.1 307 C 181.1 310.3 178.9 312.7 175.1 312.7 C 172.3 312.7 170.2 311.2 169.2 309.4 Z M 184.3 311.1 C 184.3 310.2 185.1 309.5 185.9 309.5 C 186.8 309.5 187.5 310.2 187.5 311.1 C 187.5 312 186.8 312.7 185.9 312.7 C 185.1 312.7 184.3 312 184.3 311.1 Z M 191.3 310.2 C 191.3 310.2 192.6 308.5 192.6 308.5 C 193.3 309.8 194.3 310.6 195.9 310.6 C 199.2 310.6 200.3 306.3 200.3 302.6 C 200.3 302.3 200.3 302.2 200.3 302 C 199.6 303.4 197.9 304.9 195.9 304.9 C 192.9 304.9 190.6 302.8 190.6 298.5 C 190.6 295.2 192.7 292 196.4 292 C 201.1 292 202.7 297 202.7 302.4 C 202.7 307.8 200.7 312.7 195.9 312.7 C 193.8 312.7 192.3 311.7 191.3 310.2 Z M 200.2 299.8 C 200.1 297.6 199.3 294.2 196.5 294.2 C 194.1 294.2 193 296.4 193 298.5 C 193 301.7 194.6 302.9 196.5 302.9 C 198.1 302.9 199.5 301.4 200.2 299.8 Z M 205.7 309.5 C 205.7 309.5 207.3 308 207.3 308 C 208.2 309.7 209.5 310.6 211.5 310.6 C 213.7 310.6 215.1 308.6 215.1 306.3 C 215.1 303.4 213.7 301.8 211.6 301.8 C 210.2 301.8 209.1 302.4 208 303.7 C 208 303.71 206.2 303.1 206.2 303.1 L 206.2 292.4 L 216.4 292.4 L 216.4 294.5 L 208.6 294.5 C 208.6 294.5 208.6 301.49 208.6 301.5 C 209.4 300.5 210.7 299.7 212.3 299.7 C 215.2 299.7 217.5 302 217.5 306.2 C 217.5 310 215 312.7 211.5 312.7 C 208.6 312.7 206.9 311.5 205.7 309.5 Z " stroke="none" fill="#d0d1d4"/>  </g>  <g id="Polygon216343">    <path d="M 153.3 273.5 C 153.3 273.5 154.9 272 154.9 272 C 155.9 273.7 157.2 274.6 159.2 274.6 C 161.4 274.6 162.7 272.6 162.7 270.3 C 162.7 267.4 161.4 265.8 159.3 265.8 C 157.9 265.8 156.8 266.4 155.7 267.7 C 155.69 267.71 153.9 267.1 153.9 267.1 L 153.9 256.4 L 164.1 256.4 L 164.1 258.5 L 156.3 258.5 C 156.3 258.5 156.29 265.49 156.3 265.5 C 157.1 264.5 158.4 263.7 160 263.7 C 162.9 263.7 165.2 266 165.2 270.2 C 165.2 274 162.7 276.7 159.2 276.7 C 156.3 276.7 154.6 275.5 153.3 273.5 Z M 167.9 266.4 C 167.9 261.6 169.5 256.1 174.2 256.1 C 178.9 256.1 180.5 261.6 180.5 266.4 C 180.5 271.2 178.9 276.7 174.2 276.7 C 169.5 276.7 167.9 271.2 167.9 266.4 Z M 178 266.4 C 178 262.4 177.3 258.2 174.2 258.2 C 171.1 258.2 170.4 262.4 170.4 266.4 C 170.4 270.3 171.1 274.6 174.2 274.6 C 177.3 274.6 178 270.3 178 266.4 Z M 183.7 275.1 C 183.7 274.2 184.4 273.5 185.3 273.5 C 186.2 273.5 186.9 274.2 186.9 275.1 C 186.9 276 186.2 276.7 185.3 276.7 C 184.4 276.7 183.7 276 183.7 275.1 Z M 190.1 266.4 C 190.1 261.6 191.7 256.1 196.4 256.1 C 201.1 256.1 202.7 261.6 202.7 266.4 C 202.7 271.2 201.1 276.7 196.4 276.7 C 191.7 276.7 190.1 271.2 190.1 266.4 Z M 200.2 266.4 C 200.2 262.4 199.5 258.2 196.4 258.2 C 193.3 258.2 192.6 262.4 192.6 266.4 C 192.6 270.3 193.3 274.6 196.4 274.6 C 199.5 274.6 200.2 270.3 200.2 266.4 Z M 206 274.2 C 206 274.2 207.3 272.5 207.3 272.5 C 208.1 273.8 209 274.6 210.6 274.6 C 213.9 274.6 215 270.3 215 266.6 C 215 266.3 215 266.2 215 266 C 214.3 267.4 212.7 268.9 210.6 268.9 C 207.7 268.9 205.3 266.8 205.3 262.5 C 205.3 259.2 207.4 256 211.1 256 C 215.9 256 217.4 261 217.4 266.4 C 217.4 271.8 215.5 276.7 210.6 276.7 C 208.5 276.7 207 275.7 206 274.2 Z M 214.9 263.8 C 214.8 261.6 214 258.2 211.2 258.2 C 208.8 258.2 207.8 260.4 207.8 262.5 C 207.8 265.7 209.3 266.9 211.2 266.9 C 212.9 266.9 214.2 265.4 214.9 263.8 Z " stroke="none" fill="#d0d1d4"/>  </g>  <g id="Polygon216342">    <path d="M 183.4 240.4 L 183.4 223.5 L 180.3 226.8 L 178.9 225.3 L 183.7 220.4 L 185.8 220.4 L 185.8 240.4 L 183.4 240.4 Z M 189.7 239.1 C 189.7 238.2 190.4 237.5 191.3 237.5 C 192.2 237.5 192.9 238.2 192.9 239.1 C 192.9 240 192.2 240.7 191.3 240.7 C 190.4 240.7 189.7 240 189.7 239.1 Z M 199.7 240.4 L 199.7 223.5 L 196.6 226.8 L 195.2 225.3 L 200 220.4 L 202.1 220.4 L 202.1 240.4 L 199.7 240.4 Z M 205.8 240.4 C 205.8 240.4 205.75 238.43 205.8 238.4 C 212.3 230.9 214.5 228.5 214.5 225.5 C 214.5 223.4 213 222.2 211.3 222.2 C 209.4 222.2 208.1 223.1 207.1 224.7 C 207.1 224.7 205.5 223.3 205.5 223.3 C 206.9 221.2 208.8 220.1 211.4 220.1 C 214.4 220.1 217 222 217 225.5 C 217 228.9 214.5 231.9 209.1 238.2 C 209.14 238.25 217.1 238.2 217.1 238.2 L 217.1 240.4 L 205.8 240.4 Z " stroke="none" fill="#d0d1d4"/>  </g>  <g id="Polygon216341">    <path d="M 154.8 204.4 C 154.8 204.4 154.85 202.43 154.8 202.4 C 161.4 194.9 163.6 192.5 163.6 189.5 C 163.6 187.4 162.1 186.2 160.4 186.2 C 158.5 186.2 157.2 187.1 156.2 188.7 C 156.2 188.7 154.6 187.3 154.6 187.3 C 156 185.2 157.9 184.1 160.5 184.1 C 163.5 184.1 166.1 186 166.1 189.5 C 166.1 192.9 163.5 195.9 158.2 202.2 C 158.24 202.25 166.2 202.2 166.2 202.2 L 166.2 204.4 L 154.8 204.4 Z M 169.5 201.5 C 169.5 201.5 171.1 200 171.1 200 C 172 201.7 173.4 202.6 175.3 202.6 C 177.5 202.6 178.9 200.6 178.9 198.3 C 178.9 195.4 177.5 193.8 175.5 193.8 C 174 193.8 172.9 194.4 171.8 195.7 C 171.83 195.71 170.1 195.1 170.1 195.1 L 170.1 184.4 L 180.3 184.4 L 180.3 186.5 L 172.4 186.5 C 172.4 186.5 172.43 193.49 172.4 193.5 C 173.2 192.5 174.5 191.7 176.1 191.7 C 179 191.7 181.3 194 181.3 198.2 C 181.3 202 178.8 204.7 175.4 204.7 C 172.4 204.7 170.7 203.5 169.5 201.5 Z M 184.5 203.1 C 184.5 202.2 185.2 201.5 186.1 201.5 C 186.9 201.5 187.7 202.2 187.7 203.1 C 187.7 204 186.9 204.7 186.1 204.7 C 185.2 204.7 184.5 204 184.5 203.1 Z M 190.9 194.4 C 190.9 189 192.8 184.1 197.7 184.1 C 199.8 184.1 201.3 185.1 202.3 186.6 C 202.3 186.6 201 188.2 201 188.2 C 200.3 187 199.3 186.2 197.7 186.2 C 194.5 186.2 193.3 190.4 193.3 194.2 C 193.3 194.4 193.3 194.5 193.3 194.8 C 194 193.4 195.7 191.8 197.7 191.8 C 200.7 191.8 203 194 203 198.2 C 203 201.6 200.9 204.7 197.2 204.7 C 192.5 204.7 190.9 199.7 190.9 194.4 Z M 200.6 198.3 C 200.6 195.1 199 193.9 197.1 193.9 C 195.5 193.9 194.1 195.3 193.4 197 C 193.5 199.2 194.3 202.6 197.1 202.6 C 199.5 202.6 200.6 200.4 200.6 198.3 Z M 205.6 199.5 C 205.6 196.8 207.6 194.8 209.6 194.1 C 207.8 193.4 205.9 191.7 205.9 189.2 C 205.9 185.7 208.7 184.1 211.5 184.1 C 214.4 184.1 217.2 185.7 217.2 189.2 C 217.2 191.7 215.3 193.4 213.5 194.1 C 215.5 194.8 217.5 196.8 217.5 199.4 C 217.5 202.7 215 204.7 211.5 204.7 C 208 204.7 205.6 202.7 205.6 199.5 Z M 214.8 189.5 C 214.8 187.5 213.5 186.2 211.5 186.2 C 209.6 186.2 208.3 187.5 208.3 189.5 C 208.3 191.9 210.8 192.9 211.5 193.2 C 212.3 192.9 214.8 191.9 214.8 189.5 Z M 215.1 199.2 C 215.1 196.5 212.4 195.2 211.5 195 C 210.7 195.2 208 196.5 208 199.2 C 208 201.3 209.6 202.6 211.5 202.6 C 213.5 202.6 215.1 201.3 215.1 199.2 Z " stroke="none" fill="#d0d1d4"/>  </g>  <g id="Polygon216340">    <path d="M 160 168.4 L 160 151.5 L 156.9 154.8 L 155.5 153.3 L 160.3 148.4 L 162.4 148.4 L 162.4 168.4 L 160 168.4 Z M 169.5 168.4 L 169.5 151.5 L 166.4 154.8 L 165 153.3 L 169.8 148.4 L 171.9 148.4 L 171.9 168.4 L 169.5 168.4 Z M 178.9 168.4 L 178.9 151.5 L 175.8 154.8 L 174.4 153.3 L 179.2 148.4 L 181.3 148.4 L 181.3 168.4 L 178.9 168.4 Z M 185.2 167.1 C 185.2 166.2 186 165.5 186.8 165.5 C 187.7 165.5 188.4 166.2 188.4 167.1 C 188.4 168 187.7 168.7 186.8 168.7 C 186 168.7 185.2 168 185.2 167.1 Z M 191.8 165.5 C 191.8 165.5 193.4 164 193.4 164 C 194.4 165.7 195.7 166.6 197.6 166.6 C 199.8 166.6 201.2 164.6 201.2 162.3 C 201.2 159.4 199.8 157.8 197.8 157.8 C 196.4 157.8 195.3 158.4 194.1 159.7 C 194.15 159.71 192.4 159.1 192.4 159.1 L 192.4 148.4 L 202.6 148.4 L 202.6 150.5 L 194.7 150.5 C 194.7 150.5 194.75 157.49 194.7 157.5 C 195.5 156.5 196.8 155.7 198.4 155.7 C 201.3 155.7 203.6 158 203.6 162.2 C 203.6 166 201.2 168.7 197.7 168.7 C 194.7 168.7 193 167.5 191.8 165.5 Z M 213.6 168.4 L 213.6 163.2 L 205.7 163.2 L 205.7 161.2 L 212.9 148.4 L 216 148.4 L 216 161.1 L 218.1 161.1 L 218.1 163.2 L 216 163.2 L 216 168.4 L 213.6 168.4 Z M 213.6 150.9 L 207.9 161.1 L 213.6 161.1 L 213.6 150.9 Z " stroke="none" fill="#d0d1d4"/>  </g>  <g id="Polygon216339">    <path d="M 155.8 132.4 C 155.8 132.4 155.81 130.43 155.8 130.4 C 162.3 122.9 164.6 120.5 164.6 117.5 C 164.6 115.4 163.1 114.2 161.4 114.2 C 159.5 114.2 158.1 115.1 157.2 116.7 C 157.2 116.7 155.6 115.3 155.6 115.3 C 156.9 113.2 158.9 112.1 161.4 112.1 C 164.5 112.1 167 114 167 117.5 C 167 120.9 164.5 123.9 159.2 130.2 C 159.2 130.25 167.1 130.2 167.1 130.2 L 167.1 132.4 L 155.8 132.4 Z M 177.5 132.4 L 177.5 127.2 L 169.6 127.2 L 169.6 125.2 L 176.8 112.4 L 179.9 112.4 L 179.9 125.1 L 182.1 125.1 L 182.1 127.2 L 179.9 127.2 L 179.9 132.4 L 177.5 132.4 Z M 177.5 114.9 L 171.8 125.1 L 177.5 125.1 L 177.5 114.9 Z M 184.6 131.1 C 184.6 130.2 185.3 129.5 186.2 129.5 C 187 129.5 187.8 130.2 187.8 131.1 C 187.8 132 187 132.7 186.2 132.7 C 185.3 132.7 184.6 132 184.6 131.1 Z M 190.9 127.5 C 190.9 124.8 192.9 122.8 194.9 122.1 C 193.1 121.4 191.2 119.7 191.2 117.2 C 191.2 113.7 194 112.1 196.9 112.1 C 199.8 112.1 202.5 113.7 202.5 117.2 C 202.5 119.7 200.7 121.4 198.9 122.1 C 200.8 122.8 202.8 124.8 202.8 127.4 C 202.8 130.7 200.4 132.7 196.9 132.7 C 193.4 132.7 190.9 130.7 190.9 127.5 Z M 200.1 117.5 C 200.1 115.5 198.8 114.2 196.9 114.2 C 194.9 114.2 193.6 115.5 193.6 117.5 C 193.6 119.9 196.1 120.9 196.9 121.2 C 197.7 120.9 200.1 119.9 200.1 117.5 Z M 200.4 127.2 C 200.4 124.5 197.7 123.2 196.9 123 C 196 123.2 193.4 124.5 193.4 127.2 C 193.4 129.3 194.9 130.6 196.9 130.6 C 198.8 130.6 200.4 129.3 200.4 127.2 Z M 205.8 132.4 C 205.8 132.4 205.75 130.43 205.8 130.4 C 212.3 122.9 214.5 120.5 214.5 117.5 C 214.5 115.4 213 114.2 211.3 114.2 C 209.4 114.2 208.1 115.1 207.1 116.7 C 207.1 116.7 205.5 115.3 205.5 115.3 C 206.9 113.2 208.8 112.1 211.4 112.1 C 214.4 112.1 217 114 217 117.5 C 217 120.9 214.5 123.9 209.1 130.2 C 209.14 130.25 217.1 130.2 217.1 130.2 L 217.1 132.4 L 205.8 132.4 Z " stroke="none" fill="#d0d1d4"/>  </g>  <g id="Polygon216338">    <path d="M 149.5 96.4 L 149.5 79.5 L 146.4 82.8 L 145 81.3 L 149.8 76.4 L 151.9 76.4 L 151.9 96.4 L 149.5 96.4 Z M 162.6 96.4 L 162.6 91.2 L 154.7 91.2 L 154.7 89.2 L 161.9 76.4 L 165 76.4 L 165 89.1 L 167.1 89.1 L 167.1 91.2 L 165 91.2 L 165 96.4 L 162.6 96.4 Z M 162.6 78.9 L 156.9 89.1 L 162.6 89.1 L 162.6 78.9 Z M 169.4 93.5 C 169.4 93.5 171 92 171 92 C 171.9 93.7 173.3 94.6 175.2 94.6 C 177.4 94.6 178.8 92.6 178.8 90.3 C 178.8 87.4 177.4 85.8 175.4 85.8 C 174 85.8 172.8 86.4 171.7 87.7 C 171.74 87.71 170 87.1 170 87.1 L 170 76.4 L 180.2 76.4 L 180.2 78.5 L 172.3 78.5 C 172.3 78.5 172.34 85.49 172.3 85.5 C 173.1 84.5 174.4 83.7 176 83.7 C 178.9 83.7 181.2 86 181.2 90.2 C 181.2 94 178.8 96.7 175.3 96.7 C 172.3 96.7 170.6 95.5 169.4 93.5 Z M 184.4 95.1 C 184.4 94.2 185.1 93.5 186 93.5 C 186.9 93.5 187.6 94.2 187.6 95.1 C 187.6 96 186.9 96.7 186 96.7 C 185.1 96.7 184.4 96 184.4 95.1 Z M 190.8 86.4 C 190.8 81 192.7 76.1 197.6 76.1 C 199.7 76.1 201.3 77.1 202.2 78.6 C 202.2 78.6 200.9 80.2 200.9 80.2 C 200.2 79 199.2 78.2 197.6 78.2 C 194.4 78.2 193.2 82.4 193.2 86.2 C 193.2 86.4 193.2 86.5 193.2 86.8 C 193.9 85.4 195.6 83.8 197.7 83.8 C 200.6 83.8 202.9 86 202.9 90.2 C 202.9 93.6 200.8 96.7 197.1 96.7 C 192.4 96.7 190.8 91.7 190.8 86.4 Z M 200.5 90.3 C 200.5 87.1 198.9 85.9 197.1 85.9 C 195.4 85.9 194 87.3 193.3 89 C 193.4 91.2 194.2 94.6 197 94.6 C 199.4 94.6 200.5 92.4 200.5 90.3 Z M 205.8 96.4 C 205.8 96.4 205.75 94.43 205.8 94.4 C 212.3 86.9 214.5 84.5 214.5 81.5 C 214.5 79.4 213 78.2 211.3 78.2 C 209.4 78.2 208.1 79.1 207.1 80.7 C 207.1 80.7 205.5 79.3 205.5 79.3 C 206.9 77.2 208.8 76.1 211.4 76.1 C 214.4 76.1 217 78 217 81.5 C 217 84.9 214.5 87.9 209.1 94.2 C 209.14 94.25 217.1 94.2 217.1 94.2 L 217.1 96.4 L 205.8 96.4 Z " stroke="none" fill="#d0d1d4"/>  </g>  <g id="Polygon216337">    <path d="M 165.2 57.4 C 165.2 57.4 166.8 56 166.8 56 C 167.7 57.5 169.2 58.6 171 58.6 C 173.5 58.6 174.7 57.1 174.7 54.8 C 174.7 52.1 172.9 51.2 170.9 51.2 C 170.2 51.2 169.5 51.2 169.3 51.2 C 169.3 51.2 169.3 49 169.3 49 C 169.5 49.1 170.3 49.1 170.8 49.1 C 172.8 49.1 174.4 48 174.4 45.7 C 174.4 43.3 173 42.2 171 42.2 C 169.2 42.2 168 43.1 166.9 44.6 C 166.9 44.6 165.4 43.2 165.4 43.2 C 166.6 41.3 168.6 40.1 171.1 40.1 C 174.4 40.1 176.8 41.8 176.8 45.4 C 176.8 47.9 175.1 49.6 173.2 50 C 175 50.3 177.1 52.1 177.1 55 C 177.1 58.3 174.9 60.7 171.1 60.7 C 168.3 60.7 166.2 59.2 165.2 57.4 Z M 179.9 55.5 C 179.9 52.8 181.9 50.8 183.9 50.1 C 182 49.4 180.2 47.7 180.2 45.2 C 180.2 41.7 182.9 40.1 185.8 40.1 C 188.7 40.1 191.5 41.7 191.5 45.2 C 191.5 47.7 189.6 49.4 187.8 50.1 C 189.7 50.8 191.7 52.8 191.7 55.4 C 191.7 58.7 189.3 60.7 185.8 60.7 C 182.3 60.7 179.9 58.7 179.9 55.5 Z M 189.1 45.5 C 189.1 43.5 187.8 42.2 185.8 42.2 C 183.9 42.2 182.5 43.5 182.5 45.5 C 182.5 47.9 185 48.9 185.8 49.2 C 186.6 48.9 189.1 47.9 189.1 45.5 Z M 189.3 55.2 C 189.3 52.5 186.6 51.2 185.8 51 C 185 51.2 182.3 52.5 182.3 55.2 C 182.3 57.3 183.9 58.6 185.8 58.6 C 187.7 58.6 189.3 57.3 189.3 55.2 Z M 194.9 59.1 C 194.9 58.2 195.6 57.5 196.5 57.5 C 197.4 57.5 198.1 58.2 198.1 59.1 C 198.1 60 197.4 60.7 196.5 60.7 C 195.6 60.7 194.9 60 194.9 59.1 Z M 204.9 60.4 L 204.9 43.5 L 201.8 46.8 L 200.4 45.3 L 205.2 40.4 L 207.3 40.4 L 207.3 60.4 L 204.9 60.4 Z M 214.4 60.4 L 214.4 43.5 L 211.3 46.8 L 209.8 45.3 L 214.6 40.4 L 216.7 40.4 L 216.7 60.4 L 214.4 60.4 Z " stroke="none" fill="#d0d1d4"/>  </g>  <g id="Polygon216336">    <path d="M 125.5 24.4 C 125.5 24.4 125.48 22.43 125.5 22.4 C 132 14.9 134.3 12.5 134.3 9.5 C 134.3 7.4 132.8 6.2 131.1 6.2 C 129.2 6.2 127.8 7.1 126.8 8.7 C 126.8 8.7 125.3 7.3 125.3 7.3 C 126.6 5.2 128.5 4.1 131.1 4.1 C 134.1 4.1 136.7 6 136.7 9.5 C 136.7 12.9 134.2 15.9 128.9 22.2 C 128.87 22.25 136.8 22.2 136.8 22.2 L 136.8 24.4 L 125.5 24.4 Z M 147.2 24.4 L 147.2 19.2 L 139.2 19.2 L 139.2 17.2 L 146.5 4.4 L 149.5 4.4 L 149.5 17.1 L 151.7 17.1 L 151.7 19.2 L 149.5 19.2 L 149.5 24.4 L 147.2 24.4 Z M 147.2 6.9 L 141.4 17.1 L 147.2 17.1 L 147.2 6.9 Z M 153.8 14.4 C 153.8 9.6 155.4 4.1 160.1 4.1 C 164.8 4.1 166.4 9.6 166.4 14.4 C 166.4 19.2 164.8 24.7 160.1 24.7 C 155.4 24.7 153.8 19.2 153.8 14.4 Z M 163.9 14.4 C 163.9 10.4 163.2 6.2 160.1 6.2 C 157 6.2 156.3 10.4 156.3 14.4 C 156.3 18.3 157 22.6 160.1 22.6 C 163.2 22.6 163.9 18.3 163.9 14.4 Z M 169.4 24.4 C 169.4 24.4 169.37 22.43 169.4 22.4 C 175.9 14.9 178.2 12.5 178.2 9.5 C 178.2 7.4 176.7 6.2 174.9 6.2 C 173.1 6.2 171.7 7.1 170.7 8.7 C 170.7 8.7 169.2 7.3 169.2 7.3 C 170.5 5.2 172.4 4.1 175 4.1 C 178 4.1 180.6 6 180.6 9.5 C 180.6 12.9 178.1 15.9 172.8 22.2 C 172.76 22.25 180.7 22.2 180.7 22.2 L 180.7 24.4 L 169.4 24.4 Z M 184.3 23.1 C 184.3 22.2 185 21.5 185.9 21.5 C 186.7 21.5 187.5 22.2 187.5 23.1 C 187.5 24 186.7 24.7 185.9 24.7 C 185 24.7 184.3 24 184.3 23.1 Z M 190.7 14.4 C 190.7 9.6 192.3 4.1 197 4.1 C 201.6 4.1 203.2 9.6 203.2 14.4 C 203.2 19.2 201.6 24.7 197 24.7 C 192.3 24.7 190.7 19.2 190.7 14.4 Z M 200.8 14.4 C 200.8 10.4 200.1 6.2 197 6.2 C 193.9 6.2 193.2 10.4 193.2 14.4 C 193.2 18.3 193.9 22.6 197 22.6 C 200.1 22.6 200.8 18.3 200.8 14.4 Z M 205.5 21.4 C 205.5 21.4 207.1 20 207.1 20 C 208 21.5 209.5 22.6 211.4 22.6 C 213.8 22.6 215 21.1 215 18.8 C 215 16.1 213.2 15.2 211.2 15.2 C 210.6 15.2 209.9 15.2 209.6 15.2 C 209.6 15.2 209.6 13 209.6 13 C 209.9 13.1 210.6 13.1 211.1 13.1 C 213.1 13.1 214.8 12 214.8 9.7 C 214.8 7.3 213.3 6.2 211.3 6.2 C 209.5 6.2 208.3 7.1 207.3 8.6 C 207.3 8.6 205.8 7.2 205.8 7.2 C 207 5.3 209 4.1 211.5 4.1 C 214.7 4.1 217.1 5.8 217.1 9.4 C 217.1 11.9 215.4 13.6 213.6 14 C 215.3 14.3 217.4 16.1 217.4 19 C 217.4 22.3 215.3 24.7 211.5 24.7 C 208.6 24.7 206.5 23.2 205.5 21.4 Z " stroke="none" fill="#d0d1d4"/>  </g></svg>