<?xml version="1.0" standalone="no"?><!DOCTYPE svg PUBLIC "-//W3C//DTD SVG 1.1//EN" "http://www.w3.org/Graphics/SVG/1.1/DTD/svg11.dtd"><svg xmlns="http://www.w3.org/2000/svg" version="1.1" width="327px" height="44.3px" viewBox="0 0 327 44.3">  <desc>JANUARY 2020</desc>  <defs/>  <g id="Polygon134955">    <path d="M 72.7 22.5 C 72.7 22.5 74.2 19.4 74.2 19.4 C 74.8 20 75.7 20.5 76.7 20.5 C 78.2 20.5 79.3 19.5 79.3 17.8 C 79.27 17.79 79.3 3.7 79.3 3.7 L 83.3 3.7 C 83.3 3.7 83.29 17.91 83.3 17.9 C 83.3 22.1 80.7 24.1 77 24.1 C 75.5 24.1 73.9 23.6 72.7 22.5 Z M 96.8 23.7 L 95.8 20.2 L 89.7 20.2 L 88.7 23.7 L 84.4 23.7 L 90.3 3.7 L 95.2 3.7 L 101.1 23.7 L 96.8 23.7 Z M 92.8 7.9 L 90.5 16.6 L 95 16.6 L 92.8 7.9 Z M 113.7 23.7 L 106.9 11.9 L 106.9 23.7 L 102.8 23.7 L 102.8 3.7 L 106.9 3.7 L 113.5 15.1 L 113.5 3.7 L 117.5 3.7 L 117.5 23.7 L 113.7 23.7 Z M 121 16.8 C 121.03 16.8 121 3.7 121 3.7 L 125.1 3.7 C 125.1 3.7 125.08 16.83 125.1 16.8 C 125.1 19.2 126.3 20.5 128.4 20.5 C 130.5 20.5 131.7 19.2 131.7 16.8 C 131.71 16.83 131.7 3.7 131.7 3.7 L 135.8 3.7 C 135.8 3.7 135.76 16.8 135.8 16.8 C 135.8 21.4 132.9 24.1 128.4 24.1 C 123.9 24.1 121 21.4 121 16.8 Z M 149.3 23.7 L 148.3 20.2 L 142.2 20.2 L 141.2 23.7 L 136.9 23.7 L 142.8 3.7 L 147.7 3.7 L 153.6 23.7 L 149.3 23.7 Z M 145.3 7.9 L 143 16.6 L 147.5 16.6 L 145.3 7.9 Z M 164.6 23.7 L 161.5 16.5 L 159.4 16.5 L 159.4 23.7 L 155.3 23.7 L 155.3 3.7 C 155.3 3.7 162.82 3.69 162.8 3.7 C 166.5 3.7 168.9 6.3 168.9 10 C 168.9 13.5 167.1 15.2 165.4 15.7 C 165.43 15.75 169.1 23.7 169.1 23.7 L 164.6 23.7 Z M 164.8 10.1 C 164.8 8.3 163.8 7.2 162.2 7.2 C 162.22 7.23 159.4 7.2 159.4 7.2 L 159.4 12.9 C 159.4 12.9 162.22 12.93 162.2 12.9 C 163.8 12.9 164.8 11.8 164.8 10.1 Z M 175.7 23.7 L 175.7 15.4 L 169.5 3.7 L 174 3.7 L 177.7 11.7 L 181.5 3.7 L 185.9 3.7 L 179.7 15.4 L 179.7 23.7 L 175.7 23.7 Z M 193.4 23.7 C 193.4 23.7 193.42 20.46 193.4 20.5 C 200.7 13.3 202.3 11.8 202.3 9.5 C 202.3 7.9 201.1 7 199.6 7 C 197.8 7 196.4 7.8 195.3 9.2 C 195.3 9.2 192.9 6.7 192.9 6.7 C 194.6 4.5 196.9 3.4 199.7 3.4 C 203.5 3.4 206.3 5.7 206.3 9.4 C 206.3 12.5 204.3 15.1 199.4 20.2 C 199.36 20.16 206.4 20.2 206.4 20.2 L 206.4 23.7 L 193.4 23.7 Z M 208.7 13.7 C 208.7 8.5 210.8 3.4 215.8 3.4 C 220.7 3.4 222.8 8.5 222.8 13.7 C 222.8 18.8 220.8 24.1 215.8 24.1 C 210.8 24.1 208.7 18.8 208.7 13.7 Z M 218.8 13.7 C 218.8 9.8 218.1 7 215.8 7 C 213.5 7 212.8 9.8 212.8 13.7 C 212.8 17.5 213.5 20.5 215.8 20.5 C 218.1 20.5 218.8 17.5 218.8 13.7 Z M 225.2 23.7 C 225.2 23.7 225.15 20.46 225.2 20.5 C 232.5 13.3 234 11.8 234 9.5 C 234 7.9 232.8 7 231.3 7 C 229.6 7 228.2 7.8 227.1 9.2 C 227.1 9.2 224.7 6.7 224.7 6.7 C 226.3 4.5 228.7 3.4 231.4 3.4 C 235.3 3.4 238.1 5.7 238.1 9.4 C 238.1 12.5 236 15.1 231.1 20.2 C 231.09 20.16 238.2 20.2 238.2 20.2 L 238.2 23.7 L 225.2 23.7 Z M 240.4 13.7 C 240.4 8.5 242.6 3.4 247.5 3.4 C 252.5 3.4 254.6 8.5 254.6 13.7 C 254.6 18.8 252.5 24.1 247.5 24.1 C 242.6 24.1 240.4 18.8 240.4 13.7 Z M 250.5 13.7 C 250.5 9.8 249.8 7 247.5 7 C 245.2 7 244.5 9.8 244.5 13.7 C 244.5 17.5 245.2 20.5 247.5 20.5 C 249.8 20.5 250.5 17.5 250.5 13.7 Z " stroke="none" fill="#d3d2d2"/>  </g></svg>