<?xml version="1.0" standalone="no"?><!DOCTYPE svg PUBLIC "-//W3C//DTD SVG 1.1//EN" "http://www.w3.org/Graphics/SVG/1.1/DTD/svg11.dtd"><svg xmlns="http://www.w3.org/2000/svg" version="1.1" width="651px" height="85.6px" viewBox="0 0 651 85.6">  <desc>Fragrant Glue Sauce</desc>  <defs/>  <g id="Polygon199878">    <path d="M 3.1 47.4 L 3.1 7.4 L 20.6 7.4 L 20.6 14 L 10.7 14 L 10.7 23.7 L 20.2 23.7 L 20.2 30.4 L 10.7 30.4 L 10.7 47.4 L 3.1 47.4 Z M 25.3 47.4 L 25.3 18.4 L 32.1 18.4 C 32.1 18.4 32.1 22.44 32.1 22.4 C 33.2 19.8 36.1 17.7 38.6 17.7 C 38.6 17.7 38.6 24.4 38.6 24.4 C 38.2 24.2 37.7 24.2 37.3 24.2 C 35.3 24.2 33.2 25.8 32.1 27.9 C 32.1 27.9 32.1 47.4 32.1 47.4 L 25.3 47.4 Z M 54.7 47.4 C 54.7 47.4 54.72 44.64 54.7 44.6 C 53.5 46.9 50.8 48.1 48.7 48.1 C 44.1 48.1 40.8 44.4 40.8 38.5 C 40.8 32.6 44.1 29 48.7 29 C 50.8 29 53.5 30.1 54.7 32.3 C 54.7 32.3 54.7 28.7 54.7 28.7 C 54.7 25.4 53.4 23.5 50.3 23.5 C 48.4 23.5 46.4 24.4 44.5 26.3 C 44.5 26.3 41.9 21.5 41.9 21.5 C 44.6 18.7 48.7 17.7 51.7 17.7 C 57.7 17.7 61.5 20.7 61.5 27.2 C 61.5 27.18 61.5 47.4 61.5 47.4 L 54.7 47.4 Z M 54.7 40.6 C 54.7 40.6 54.7 36.7 54.7 36.7 C 54 34.9 52.6 33.7 51.1 33.7 C 48.7 33.7 47.6 35.8 47.6 38.6 C 47.6 41.3 48.7 43.6 51.1 43.6 C 52.6 43.6 54 42.4 54.7 40.6 Z M 67 56 C 67 56 69.2 50.5 69.2 50.5 C 70.9 52.2 73 53.3 75.2 53.3 C 78.1 53.3 80.1 51.4 80.1 46.9 C 80.1 46.9 80.1 42.7 80.1 42.7 C 78.8 45.7 76.5 47.2 74.5 47.2 C 68.8 47.2 65.9 41.8 65.9 32.5 C 65.9 23.3 68.8 17.7 74.5 17.7 C 76.5 17.7 78.9 19 80.1 22 C 80.1 22.02 80.1 18.4 80.1 18.4 L 86.9 18.4 C 86.9 18.4 86.88 46.44 86.9 46.4 C 86.9 56.4 81.5 59.2 75.9 59.2 C 72.3 59.2 69.4 58.3 67 56 Z M 80.1 37.7 C 80.1 37.7 80.1 27.2 80.1 27.2 C 79.5 25.3 78.1 23.7 76.7 23.7 C 73.7 23.7 72.8 27.4 72.8 32.5 C 72.8 37.6 73.7 41.2 76.7 41.2 C 78.1 41.2 79.5 39.6 80.1 37.7 Z M 92.4 47.4 L 92.4 18.4 L 99.2 18.4 C 99.2 18.4 99.18 22.44 99.2 22.4 C 100.3 19.8 103.1 17.7 105.7 17.7 C 105.7 17.7 105.7 24.4 105.7 24.4 C 105.2 24.2 104.8 24.2 104.3 24.2 C 102.4 24.2 100.3 25.8 99.2 27.9 C 99.18 27.9 99.2 47.4 99.2 47.4 L 92.4 47.4 Z M 121.8 47.4 C 121.8 47.4 121.8 44.64 121.8 44.6 C 120.5 46.9 117.8 48.1 115.7 48.1 C 111.2 48.1 107.9 44.4 107.9 38.5 C 107.9 32.6 111.2 29 115.7 29 C 117.8 29 120.6 30.1 121.8 32.3 C 121.8 32.3 121.8 28.7 121.8 28.7 C 121.8 25.4 120.5 23.5 117.4 23.5 C 115.5 23.5 113.5 24.4 111.5 26.3 C 111.5 26.3 109 21.5 109 21.5 C 111.7 18.7 115.8 17.7 118.8 17.7 C 124.7 17.7 128.6 20.7 128.6 27.2 C 128.58 27.18 128.6 47.4 128.6 47.4 L 121.8 47.4 Z M 121.8 40.6 C 121.8 40.6 121.8 36.7 121.8 36.7 C 121.1 34.9 119.6 33.7 118.1 33.7 C 115.8 33.7 114.7 35.8 114.7 38.6 C 114.7 41.3 115.8 43.6 118.1 43.6 C 119.6 43.6 121.1 42.4 121.8 40.6 Z M 147 47.4 C 147 47.4 147 26.76 147 26.8 C 147 24.7 146.3 23.7 144.8 23.7 C 143 23.7 141.5 25.6 140.9 27.5 C 140.88 27.48 140.9 47.4 140.9 47.4 L 134.1 47.4 L 134.1 18.4 L 140.9 18.4 C 140.9 18.4 140.88 22.2 140.9 22.2 C 142 19.9 145 17.7 147.7 17.7 C 152 17.7 153.8 20.3 153.8 24.3 C 153.84 24.3 153.8 47.4 153.8 47.4 L 147 47.4 Z M 160.2 40.7 C 160.2 40.74 160.2 24.3 160.2 24.3 L 157.5 24.3 L 157.5 18.4 L 160.2 18.4 L 160.2 10.5 L 167 10.5 L 167 18.4 L 170.6 18.4 L 170.6 24.3 L 167 24.3 C 167 24.3 166.98 39.42 167 39.4 C 167 41.2 167.4 42.1 168.6 42.1 C 169.3 42.1 169.9 41.8 170.2 41.3 C 170.2 41.3 171.6 46.6 171.6 46.6 C 170.6 47.5 169 48.1 166.9 48.1 C 162.1 48.1 160.2 45.7 160.2 40.7 Z M 183.7 27.4 C 183.7 15.1 187.6 6.7 196.2 6.7 C 201.8 6.7 204.9 11 206.2 16.1 C 206.2 16.1 200.2 18.4 200.2 18.4 C 199.6 15.6 198.5 13.4 196.2 13.4 C 193.2 13.4 191.4 17.8 191.4 27.4 C 191.4 37 193.2 41.4 196.2 41.4 C 197.9 41.4 199 40.7 199.8 39.6 C 199.8 39.6 199.8 32.3 199.8 32.3 L 195.3 32.3 L 195.3 25.7 L 206.5 25.7 C 206.5 25.7 206.46 42.84 206.5 42.8 C 203.8 46.2 200.7 48.1 196.2 48.1 C 187.6 48.1 183.7 39.7 183.7 27.4 Z M 211.7 47.4 L 211.7 7.4 L 218.5 7.4 L 218.5 47.4 L 211.7 47.4 Z M 236.9 47.4 C 236.9 47.4 236.88 43.74 236.9 43.7 C 235.7 46.1 232.9 48.1 230.1 48.1 C 225.7 48.1 224 45.7 224 41.6 C 223.98 41.58 224 18.4 224 18.4 L 230.8 18.4 C 230.8 18.4 230.76 39.18 230.8 39.2 C 230.8 41.2 231.5 42.1 233 42.1 C 234.7 42.1 236.2 40.3 236.9 38.5 C 236.88 38.46 236.9 18.4 236.9 18.4 L 243.7 18.4 L 243.7 47.4 L 236.9 47.4 Z M 248 32.9 C 248 24.5 251.6 17.7 258.9 17.7 C 266.2 17.7 269.3 24.2 269.3 32.8 C 269.28 32.76 269.3 35.1 269.3 35.1 C 269.3 35.1 254.58 35.1 254.6 35.1 C 254.6 39.4 256.4 42.6 260.3 42.6 C 261.9 42.6 263.8 41.5 265.1 39.7 C 265.1 39.7 268.4 43.5 268.4 43.5 C 266.1 46.4 262.9 48.1 259.6 48.1 C 252 48.1 248 41.8 248 32.9 Z M 258.7 23.2 C 255.4 23.2 254.6 27.3 254.6 30.4 C 254.6 30.4 262.7 30.4 262.7 30.4 C 262.7 27.1 262 23.2 258.7 23.2 Z M 281.2 44.2 C 281.2 44.2 284.5 38.2 284.5 38.2 C 286.1 40.3 288.7 41.4 291 41.4 C 293.4 41.4 295 39.6 295 37 C 295 29.9 282.3 29.9 282.3 17.9 C 282.3 11.9 286.4 6.7 293.5 6.7 C 296.8 6.7 299.9 7.9 302.2 10 C 302.2 10 299.2 15.8 299.2 15.8 C 297.7 14.2 295.8 13.4 293.7 13.4 C 291.5 13.4 290 15.1 290 17.5 C 290 23.7 302.7 24.5 302.7 36.5 C 302.7 43.3 298.3 48.1 291.5 48.1 C 287.1 48.1 283.7 46.7 281.2 44.2 Z M 319.6 47.4 C 319.6 47.4 319.55 44.64 319.6 44.6 C 318.3 46.9 315.6 48.1 313.5 48.1 C 308.9 48.1 305.6 44.4 305.6 38.5 C 305.6 32.6 308.9 29 313.5 29 C 315.6 29 318.4 30.1 319.6 32.3 C 319.6 32.3 319.6 28.7 319.6 28.7 C 319.6 25.4 318.2 23.5 315.2 23.5 C 313.3 23.5 311.2 24.4 309.3 26.3 C 309.3 26.3 306.8 21.5 306.8 21.5 C 309.4 18.7 313.6 17.7 316.6 17.7 C 322.5 17.7 326.3 20.7 326.3 27.2 C 326.33 27.18 326.3 47.4 326.3 47.4 L 319.6 47.4 Z M 319.6 40.6 C 319.6 40.6 319.6 36.7 319.6 36.7 C 318.8 34.9 317.4 33.7 315.9 33.7 C 313.6 33.7 312.4 35.8 312.4 38.6 C 312.4 41.3 313.6 43.6 315.9 43.6 C 317.4 43.6 318.8 42.4 319.6 40.6 Z M 344.8 47.4 C 344.8 47.4 344.75 43.74 344.8 43.7 C 343.6 46.1 340.8 48.1 338 48.1 C 333.6 48.1 331.9 45.7 331.9 41.6 C 331.85 41.58 331.9 18.4 331.9 18.4 L 338.6 18.4 C 338.6 18.4 338.63 39.18 338.6 39.2 C 338.6 41.2 339.4 42.1 340.9 42.1 C 342.6 42.1 344.1 40.3 344.8 38.5 C 344.75 38.46 344.8 18.4 344.8 18.4 L 351.6 18.4 L 351.6 47.4 L 344.8 47.4 Z M 355.9 32.9 C 355.9 24.1 360 17.7 367 17.7 C 370.2 17.7 372.6 18.9 374 20.3 C 374 20.3 371.8 25.6 371.8 25.6 C 370.6 24.3 369.5 23.7 368.2 23.7 C 364.6 23.7 362.9 27.8 362.9 32.9 C 362.9 37.9 364.6 42.1 368.2 42.1 C 369.5 42.1 370.6 41.5 371.8 40.3 C 371.8 40.3 374 45.5 374 45.5 C 372.6 47 370.2 48.1 367 48.1 C 360 48.1 355.9 41.7 355.9 32.9 Z M 376.6 32.9 C 376.6 24.5 380.2 17.7 387.4 17.7 C 394.7 17.7 397.8 24.2 397.8 32.8 C 397.79 32.76 397.8 35.1 397.8 35.1 C 397.8 35.1 383.09 35.1 383.1 35.1 C 383.2 39.4 385 42.6 388.8 42.6 C 390.4 42.6 392.3 41.5 393.6 39.7 C 393.6 39.7 396.9 43.5 396.9 43.5 C 394.6 46.4 391.4 48.1 388.1 48.1 C 380.5 48.1 376.6 41.8 376.6 32.9 Z M 387.2 23.2 C 383.9 23.2 383.1 27.3 383.1 30.4 C 383.1 30.4 391.3 30.4 391.3 30.4 C 391.3 27.1 390.5 23.2 387.2 23.2 Z " stroke="none" fill="#b13d24"/>  </g></svg>