<?xml version="1.0" standalone="no"?><!DOCTYPE svg PUBLIC "-//W3C//DTD SVG 1.1//EN" "http://www.w3.org/Graphics/SVG/1.1/DTD/svg11.dtd"><svg xmlns="http://www.w3.org/2000/svg" version="1.1" width="92px" height="48.3px" viewBox="0 0 92 48.3">  <desc>( 2 2 )</desc>  <defs/>  <g id="Polygon235797">    <path d="M 23.5 36.4 C 21.2 32.5 19.9 28 19.9 23.1 C 19.9 18.3 21.2 13.8 23.5 9.9 C 23.5 9.9 24.8 10.7 24.8 10.7 C 23.3 14.5 22.3 18.1 22.3 23.1 C 22.3 28.2 23.3 31.8 24.8 35.6 C 24.8 35.6 23.5 36.4 23.5 36.4 Z M 28.3 30.4 C 28.3 30.4 28.29 28.49 28.3 28.5 C 34.8 21 37.1 18.5 37.1 15.6 C 37.1 13.5 35.6 12.3 33.9 12.3 C 32 12.3 30.6 13.2 29.6 14.8 C 29.6 14.8 28.1 13.3 28.1 13.3 C 29.4 11.3 31.3 10.1 33.9 10.1 C 37 10.1 39.5 12.1 39.5 15.6 C 39.5 18.9 37 21.9 31.7 28.3 C 31.68 28.31 39.6 28.3 39.6 28.3 L 39.6 30.4 L 28.3 30.4 Z M 41.4 31 L 47.1 9.8 L 48.8 9.8 L 43 31 L 41.4 31 Z M 51.7 30.4 C 51.7 30.4 51.69 28.49 51.7 28.5 C 58.2 21 60.5 18.5 60.5 15.6 C 60.5 13.5 59 12.3 57.3 12.3 C 55.4 12.3 54 13.2 53 14.8 C 53 14.8 51.5 13.3 51.5 13.3 C 52.8 11.3 54.7 10.1 57.3 10.1 C 60.4 10.1 62.9 12.1 62.9 15.6 C 62.9 18.9 60.4 21.9 55.1 28.3 C 55.08 28.31 63 28.3 63 28.3 L 63 30.4 L 51.7 30.4 Z M 66.6 35.6 C 68.2 31.8 69.2 28.2 69.2 23.1 C 69.2 18.1 68.2 14.5 66.6 10.7 C 66.6 10.7 68 9.9 68 9.9 C 70.3 13.8 71.5 18.3 71.5 23.1 C 71.5 28 70.3 32.5 68 36.4 C 68 36.4 66.6 35.6 66.6 35.6 Z " stroke="none" fill="#efd8d3"/>  </g></svg>