<?xml version="1.0" standalone="no"?><!DOCTYPE svg PUBLIC "-//W3C//DTD SVG 1.1//EN" "http://www.w3.org/Graphics/SVG/1.1/DTD/svg11.dtd"><svg xmlns="http://www.w3.org/2000/svg" version="1.1" width="510px" height="85.6px" viewBox="0 0 510 85.6">  <desc>Minced Meat Noodles</desc>  <defs/>  <g id="Polygon133351">    <path d="M 26.4 47.4 L 26.4 23.8 L 19.7 47.4 L 17.2 47.4 L 10.7 23.8 L 10.7 47.4 L 3.1 47.4 L 3.1 7.4 L 12.7 7.4 L 18.5 27.8 L 24.4 7.4 L 33.8 7.4 L 33.8 47.4 L 26.4 47.4 Z M 38.9 10.9 C 38.9 8.6 40.9 6.8 43.1 6.8 C 45.4 6.8 47.2 8.6 47.2 10.9 C 47.2 13.2 45.4 15 43.1 15 C 40.9 15 38.9 13.2 38.9 10.9 Z M 39.7 47.4 L 39.7 18.4 L 46.5 18.4 L 46.5 47.4 L 39.7 47.4 Z M 64.9 47.4 C 64.9 47.4 64.86 26.76 64.9 26.8 C 64.9 24.7 64.1 23.7 62.6 23.7 C 60.9 23.7 59.4 25.6 58.7 27.5 C 58.74 27.48 58.7 47.4 58.7 47.4 L 52 47.4 L 52 18.4 L 58.7 18.4 C 58.7 18.4 58.74 22.2 58.7 22.2 C 59.9 19.9 62.9 17.7 65.5 17.7 C 69.9 17.7 71.7 20.3 71.7 24.3 C 71.7 24.3 71.7 47.4 71.7 47.4 L 64.9 47.4 Z M 76 32.9 C 76 24.1 80.1 17.7 87.1 17.7 C 90.3 17.7 92.7 18.9 94.1 20.3 C 94.1 20.3 91.9 25.6 91.9 25.6 C 90.7 24.3 89.6 23.7 88.3 23.7 C 84.7 23.7 83 27.8 83 32.9 C 83 37.9 84.7 42.1 88.3 42.1 C 89.6 42.1 90.7 41.5 91.9 40.3 C 91.9 40.3 94.1 45.5 94.1 45.5 C 92.7 47 90.3 48.1 87.1 48.1 C 80.1 48.1 76 41.7 76 32.9 Z M 96.7 32.9 C 96.7 24.5 100.3 17.7 107.5 17.7 C 114.8 17.7 117.9 24.2 117.9 32.8 C 117.9 32.76 117.9 35.1 117.9 35.1 C 117.9 35.1 103.2 35.1 103.2 35.1 C 103.3 39.4 105.1 42.6 108.9 42.6 C 110.5 42.6 112.4 41.5 113.7 39.7 C 113.7 39.7 117 43.5 117 43.5 C 114.7 46.4 111.5 48.1 108.2 48.1 C 100.6 48.1 96.7 41.8 96.7 32.9 Z M 107.3 23.2 C 104 23.2 103.2 27.3 103.2 30.4 C 103.2 30.4 111.4 30.4 111.4 30.4 C 111.4 27.1 110.6 23.2 107.3 23.2 Z M 135.1 47.4 C 135.1 47.4 135.12 43.8 135.1 43.8 C 133.9 46.7 131.5 48.1 129.5 48.1 C 123.8 48.1 120.9 42.2 120.9 32.9 C 120.9 23.8 123.8 17.7 129.5 17.7 C 131.5 17.7 133.9 19 135.1 22 C 135.12 22.02 135.1 7.4 135.1 7.4 L 141.9 7.4 L 141.9 47.4 L 135.1 47.4 Z M 135.1 38.6 C 135.1 38.6 135.1 27.2 135.1 27.2 C 134.5 25.3 133.1 23.7 131.7 23.7 C 128.7 23.7 127.9 27.8 127.9 32.9 C 127.9 38 128.7 42.1 131.7 42.1 C 133.1 42.1 134.5 40.6 135.1 38.6 Z M 180.8 47.4 L 180.8 23.8 L 174.2 47.4 L 171.7 47.4 L 165.1 23.8 L 165.1 47.4 L 157.6 47.4 L 157.6 7.4 L 167.2 7.4 L 172.9 27.8 L 178.9 7.4 L 188.3 7.4 L 188.3 47.4 L 180.8 47.4 Z M 193 32.9 C 193 24.5 196.6 17.7 203.9 17.7 C 211.2 17.7 214.3 24.2 214.3 32.8 C 214.26 32.76 214.3 35.1 214.3 35.1 C 214.3 35.1 199.56 35.1 199.6 35.1 C 199.6 39.4 201.4 42.6 205.3 42.6 C 206.9 42.6 208.7 41.5 210.1 39.7 C 210.1 39.7 213.4 43.5 213.4 43.5 C 211.1 46.4 207.8 48.1 204.5 48.1 C 197 48.1 193 41.8 193 32.9 Z M 203.7 23.2 C 200.4 23.2 199.6 27.3 199.6 30.4 C 199.6 30.4 207.7 30.4 207.7 30.4 C 207.7 27.1 207 23.2 203.7 23.2 Z M 231 47.4 C 231 47.4 231 44.64 231 44.6 C 229.7 46.9 227 48.1 224.9 48.1 C 220.4 48.1 217.1 44.4 217.1 38.5 C 217.1 32.6 220.4 29 224.9 29 C 227 29 229.8 30.1 231 32.3 C 231 32.3 231 28.7 231 28.7 C 231 25.4 229.7 23.5 226.6 23.5 C 224.7 23.5 222.7 24.4 220.7 26.3 C 220.7 26.3 218.2 21.5 218.2 21.5 C 220.9 18.7 225 17.7 228 17.7 C 233.9 17.7 237.8 20.7 237.8 27.2 C 237.78 27.18 237.8 47.4 237.8 47.4 L 231 47.4 Z M 231 40.6 C 231 40.6 231 36.7 231 36.7 C 230.3 34.9 228.8 33.7 227.3 33.7 C 225 33.7 223.9 35.8 223.9 38.6 C 223.9 41.3 225 43.6 227.3 43.6 C 228.8 43.6 230.3 42.4 231 40.6 Z M 244.2 40.7 C 244.2 40.74 244.2 24.3 244.2 24.3 L 241.5 24.3 L 241.5 18.4 L 244.2 18.4 L 244.2 10.5 L 251 10.5 L 251 18.4 L 254.6 18.4 L 254.6 24.3 L 251 24.3 C 251 24.3 250.98 39.42 251 39.4 C 251 41.2 251.4 42.1 252.6 42.1 C 253.3 42.1 253.9 41.8 254.2 41.3 C 254.2 41.3 255.6 46.6 255.6 46.6 C 254.6 47.5 253 48.1 250.9 48.1 C 246.1 48.1 244.2 45.7 244.2 40.7 Z M 284.6 47.4 L 276.5 26.2 L 276.5 47.4 L 268.9 47.4 L 268.9 7.4 L 276.5 7.4 L 284.2 27.8 L 284.2 7.4 L 291.7 7.4 L 291.7 47.4 L 284.6 47.4 Z M 296.5 32.9 C 296.5 24.8 299.8 17.7 307.3 17.7 C 314.9 17.7 318.2 24.8 318.2 32.9 C 318.2 40.9 314.9 48.1 307.3 48.1 C 299.8 48.1 296.5 40.9 296.5 32.9 Z M 311.2 32.9 C 311.2 28 310.4 23.7 307.3 23.7 C 304.3 23.7 303.5 28 303.5 32.9 C 303.5 37.9 304.3 42.1 307.3 42.1 C 310.4 42.1 311.2 37.9 311.2 32.9 Z M 321.5 32.9 C 321.5 24.8 324.8 17.7 332.3 17.7 C 340 17.7 343.3 24.8 343.3 32.9 C 343.3 40.9 340 48.1 332.3 48.1 C 324.8 48.1 321.5 40.9 321.5 32.9 Z M 336.2 32.9 C 336.2 28 335.4 23.7 332.3 23.7 C 329.3 23.7 328.5 28 328.5 32.9 C 328.5 37.9 329.3 42.1 332.3 42.1 C 335.4 42.1 336.2 37.9 336.2 32.9 Z M 360.7 47.4 C 360.7 47.4 360.71 43.8 360.7 43.8 C 359.5 46.7 357.1 48.1 355.1 48.1 C 349.4 48.1 346.5 42.2 346.5 32.9 C 346.5 23.8 349.4 17.7 355.1 17.7 C 357.1 17.7 359.5 19 360.7 22 C 360.71 22.02 360.7 7.4 360.7 7.4 L 367.5 7.4 L 367.5 47.4 L 360.7 47.4 Z M 360.7 38.6 C 360.7 38.6 360.7 27.2 360.7 27.2 C 360.1 25.3 358.7 23.7 357.3 23.7 C 354.3 23.7 353.5 27.8 353.5 32.9 C 353.5 38 354.3 42.1 357.3 42.1 C 358.7 42.1 360.1 40.6 360.7 38.6 Z M 373 47.4 L 373 7.4 L 379.8 7.4 L 379.8 47.4 L 373 47.4 Z M 384.1 32.9 C 384.1 24.5 387.7 17.7 395 17.7 C 402.3 17.7 405.4 24.2 405.4 32.8 C 405.35 32.76 405.4 35.1 405.4 35.1 C 405.4 35.1 390.65 35.1 390.7 35.1 C 390.7 39.4 392.5 42.6 396.4 42.6 C 398 42.6 399.8 41.5 401.2 39.7 C 401.2 39.7 404.5 43.5 404.5 43.5 C 402.2 46.4 398.9 48.1 395.6 48.1 C 388.1 48.1 384.1 41.8 384.1 32.9 Z M 394.8 23.2 C 391.5 23.2 390.7 27.3 390.7 30.4 C 390.7 30.4 398.8 30.4 398.8 30.4 C 398.8 27.1 398.1 23.2 394.8 23.2 Z M 407.5 44.3 C 407.5 44.3 410.3 39.7 410.3 39.7 C 411.8 41.4 414 42.8 416.3 42.8 C 418.4 42.8 419.9 41.6 419.9 39.7 C 419.9 34.9 408.5 36 408.5 25.9 C 408.5 21.5 411.8 17.7 417.7 17.7 C 421 17.7 424.1 19 426.2 21.1 C 426.2 21.1 423.5 25.7 423.5 25.7 C 422.3 24.3 420.2 23 417.9 23 C 416 23 414.8 24.2 414.8 25.7 C 414.8 30.1 426.4 29.3 426.4 39.5 C 426.4 44.6 422.4 48.1 416.9 48.1 C 412.6 48.1 409.4 46.6 407.5 44.3 Z " stroke="none" fill="#b13d24"/>  </g></svg>