<?xml version="1.0" standalone="no"?><!DOCTYPE svg PUBLIC "-//W3C//DTD SVG 1.1//EN" "http://www.w3.org/Graphics/SVG/1.1/DTD/svg11.dtd"><svg xmlns="http://www.w3.org/2000/svg" version="1.1" width="703px" height="141.6px" viewBox="0 0 703 141.6">  <desc>LOWEST OBSERVED ADVERSE EFFECT LEVEL (LOAEL) OF INGREDIENTS*</desc>  <defs/>  <g id="Polygon222863">    <path d="M 3.1 103.3 L 3.1 63.2 L 10.7 63.2 L 10.7 96.6 L 20.6 96.6 L 20.6 103.3 L 3.1 103.3 Z M 25 103.3 L 25 63.2 L 42.5 63.2 L 42.5 69.9 L 32.6 69.9 L 32.6 79.6 L 42.1 79.6 L 42.1 86.2 L 32.6 86.2 L 32.6 96.6 L 42.5 96.6 L 42.5 103.3 L 25 103.3 Z M 52.9 103.3 L 44.6 63.2 L 52.4 63.2 L 57.3 93.5 L 62.2 63.2 L 70 63.2 L 61.6 103.3 L 52.9 103.3 Z M 73.1 103.3 L 73.1 63.2 L 90.7 63.2 L 90.7 69.9 L 80.7 69.9 L 80.7 79.6 L 90.2 79.6 L 90.2 86.2 L 80.7 86.2 L 80.7 96.6 L 90.7 96.6 L 90.7 103.3 L 73.1 103.3 Z M 95.8 103.3 L 95.8 63.2 L 103.4 63.2 L 103.4 96.6 L 113.3 96.6 L 113.3 103.3 L 95.8 103.3 Z M 133.6 115.2 C 129.4 107 127.2 98.3 127.2 88.7 C 127.2 79 129.4 70.3 133.6 62.2 C 133.6 62.2 138.6 64.3 138.6 64.3 C 136.1 71.7 134.6 79.4 134.6 88.7 C 134.6 97.9 136.1 105.7 138.6 113 C 138.6 113 133.6 115.2 133.6 115.2 Z M 143 103.3 L 143 63.2 L 150.5 63.2 L 150.5 96.6 L 160.5 96.6 L 160.5 103.3 L 143 103.3 Z M 162.1 83.3 C 162.1 71.5 165.8 62.6 174.6 62.6 C 183.4 62.6 187.1 71.5 187.1 83.3 C 187.1 95 183.4 104 174.6 104 C 165.8 104 162.1 95 162.1 83.3 Z M 179.3 83.3 C 179.3 75.3 178.1 69.3 174.6 69.3 C 171.1 69.3 169.9 75.3 169.9 83.3 C 169.9 91.1 171.1 97.3 174.6 97.3 C 178.1 97.3 179.3 91.1 179.3 83.3 Z M 206.1 103.3 L 204.9 95.9 L 197.5 95.9 L 196.3 103.3 L 188.5 103.3 L 196.8 63.2 L 205.5 63.2 L 213.9 103.3 L 206.1 103.3 Z M 201.2 71.7 L 198.3 89.2 L 204.1 89.2 L 201.2 71.7 Z M 217 103.3 L 217 63.2 L 234.5 63.2 L 234.5 69.9 L 224.6 69.9 L 224.6 79.6 L 234.1 79.6 L 234.1 86.2 L 224.6 86.2 L 224.6 96.6 L 234.5 96.6 L 234.5 103.3 L 217 103.3 Z M 239.7 103.3 L 239.7 63.2 L 247.3 63.2 L 247.3 96.6 L 257.2 96.6 L 257.2 103.3 L 239.7 103.3 Z M 259.7 113 C 262.2 105.7 263.7 97.9 263.7 88.7 C 263.7 79.4 262.2 71.7 259.7 64.3 C 259.7 64.3 264.7 62.2 264.7 62.2 C 268.9 70.3 271.1 79 271.1 88.7 C 271.1 98.3 268.9 107 264.7 115.2 C 264.7 115.2 259.7 113 259.7 113 Z M 285.6 83.3 C 285.6 71.5 289.3 62.6 298.1 62.6 C 306.8 62.6 310.6 71.5 310.6 83.3 C 310.6 95 306.8 104 298.1 104 C 289.3 104 285.6 95 285.6 83.3 Z M 302.8 83.3 C 302.8 75.3 301.6 69.3 298.1 69.3 C 294.5 69.3 293.3 75.3 293.3 83.3 C 293.3 91.1 294.5 97.3 298.1 97.3 C 301.6 97.3 302.8 91.1 302.8 83.3 Z M 315.5 103.3 L 315.5 63.2 L 333.1 63.2 L 333.1 69.9 L 323.1 69.9 L 323.1 79.6 L 332.6 79.6 L 332.6 86.2 L 323.1 86.2 L 323.1 103.3 L 315.5 103.3 Z M 347.9 103.3 L 347.9 63.2 L 355.4 63.2 L 355.4 103.3 L 347.9 103.3 Z M 377.3 103.3 L 369.2 82.1 L 369.2 103.3 L 361.7 103.3 L 361.7 63.2 L 369.2 63.2 L 376.9 83.6 L 376.9 63.2 L 384.5 63.2 L 384.5 103.3 L 377.3 103.3 Z M 389.5 83.3 C 389.5 71 393.4 62.6 402 62.6 C 407.6 62.6 410.7 66.8 412 72 C 412 72 406 74.2 406 74.2 C 405.4 71.5 404.3 69.3 402 69.3 C 399 69.3 397.2 73.7 397.2 83.3 C 397.2 92.8 399 97.3 402 97.3 C 403.7 97.3 404.8 96.6 405.6 95.5 C 405.59 95.46 405.6 88.2 405.6 88.2 L 401.1 88.2 L 401.1 81.5 L 412.3 81.5 C 412.3 81.5 412.25 98.7 412.3 98.7 C 409.6 102.1 406.5 104 402 104 C 393.4 104 389.5 95.5 389.5 83.3 Z M 432.2 103.3 L 427.9 88.6 L 425.5 88.6 L 425.5 103.3 L 417.9 103.3 L 417.9 63.2 C 417.9 63.2 429.05 63.24 429.1 63.2 C 435.4 63.2 440 68.3 440 75.7 C 440 82.4 437.1 85.5 434.8 86.7 C 434.81 86.7 440.3 103.3 440.3 103.3 L 432.2 103.3 Z M 432.3 75.9 C 432.3 72.2 430.7 69.9 427.9 69.9 C 427.91 69.9 425.5 69.9 425.5 69.9 L 425.5 81.9 C 425.5 81.9 427.91 81.9 427.9 81.9 C 430.7 81.9 432.3 79.5 432.3 75.9 Z M 445.5 103.3 L 445.5 63.2 L 463 63.2 L 463 69.9 L 453.1 69.9 L 453.1 79.6 L 462.6 79.6 L 462.6 86.2 L 453.1 86.2 L 453.1 96.6 L 463 96.6 L 463 103.3 L 445.5 103.3 Z M 468.2 103.3 L 468.2 63.2 C 468.2 63.2 478.13 63.24 478.1 63.2 C 487.8 63.2 491.8 71.9 491.8 83.3 C 491.8 94.8 487.9 103.3 478.2 103.3 C 478.19 103.26 468.2 103.3 468.2 103.3 Z M 484 83.3 C 484 74.5 482.1 69.9 478.1 69.9 C 478.13 69.9 475.7 69.9 475.7 69.9 L 475.7 96.6 C 475.7 96.6 478.13 96.6 478.1 96.6 C 482.2 96.6 484 91.8 484 83.3 Z M 496.7 103.3 L 496.7 63.2 L 504.3 63.2 L 504.3 103.3 L 496.7 103.3 Z M 510.5 103.3 L 510.5 63.2 L 528.1 63.2 L 528.1 69.9 L 518.1 69.9 L 518.1 79.6 L 527.6 79.6 L 527.6 86.2 L 518.1 86.2 L 518.1 96.6 L 528.1 96.6 L 528.1 103.3 L 510.5 103.3 Z M 548.9 103.3 L 540.8 82.1 L 540.8 103.3 L 533.2 103.3 L 533.2 63.2 L 540.8 63.2 L 548.5 83.6 L 548.5 63.2 L 556 63.2 L 556 103.3 L 548.9 103.3 Z M 566.3 103.3 L 566.3 69.9 L 560.2 69.9 L 560.2 63.2 L 579.9 63.2 L 579.9 69.9 L 573.8 69.9 L 573.8 103.3 L 566.3 103.3 Z M 581.3 100 C 581.3 100 584.6 94.1 584.6 94.1 C 586.3 96.2 588.8 97.3 591.2 97.3 C 593.6 97.3 595.2 95.5 595.2 92.9 C 595.2 85.8 582.5 85.8 582.5 73.7 C 582.5 67.7 586.6 62.6 593.6 62.6 C 597 62.6 600.1 63.7 602.3 65.8 C 602.3 65.8 599.4 71.6 599.4 71.6 C 597.8 70 596 69.3 593.9 69.3 C 591.7 69.3 590.2 70.9 590.2 73.3 C 590.2 79.6 602.9 80.4 602.9 92.4 C 602.9 99.1 598.5 104 591.7 104 C 587.3 104 583.9 102.6 581.3 100 Z M 612.2 80.9 L 612.5 74.2 L 606.9 77.8 L 605.2 74.8 L 611.1 71.8 L 605.2 68.8 L 606.9 65.7 L 612.5 69.3 L 612.2 62.6 L 615.7 62.6 L 615.4 69.3 L 621 65.7 L 622.8 68.8 L 616.8 71.8 L 622.8 74.8 L 621 77.8 L 615.4 74.2 L 615.7 80.9 L 612.2 80.9 Z " stroke="none" fill="#b13d24"/>  </g>  <g id="Polygon222862">    <path d="M 3.1 47.4 L 3.1 7.4 L 10.7 7.4 L 10.7 40.7 L 20.6 40.7 L 20.6 47.4 L 3.1 47.4 Z M 22.3 27.4 C 22.3 15.7 25.9 6.7 34.7 6.7 C 43.5 6.7 47.2 15.7 47.2 27.4 C 47.2 39.2 43.5 48.1 34.7 48.1 C 25.9 48.1 22.3 39.2 22.3 27.4 Z M 39.5 27.4 C 39.5 19.4 38.3 13.4 34.7 13.4 C 31.2 13.4 30 19.4 30 27.4 C 30 35.3 31.2 41.4 34.7 41.4 C 38.3 41.4 39.5 35.3 39.5 27.4 Z M 70.5 47.4 L 67.2 21.6 L 63.9 47.4 L 56.2 47.4 L 49.4 7.4 L 57.1 7.4 L 60.4 34.2 L 64.2 7.4 L 70.2 7.4 L 74 34.2 L 77.3 7.4 L 85 7.4 L 78.2 47.4 L 70.5 47.4 Z M 88.8 47.4 L 88.8 7.4 L 106.3 7.4 L 106.3 14 L 96.4 14 L 96.4 23.7 L 105.9 23.7 L 105.9 30.4 L 96.4 30.4 L 96.4 40.7 L 106.3 40.7 L 106.3 47.4 L 88.8 47.4 Z M 109.1 44.2 C 109.1 44.2 112.4 38.2 112.4 38.2 C 114 40.3 116.6 41.4 118.9 41.4 C 121.3 41.4 122.9 39.6 122.9 37 C 122.9 29.9 110.2 29.9 110.2 17.9 C 110.2 11.9 114.3 6.7 121.4 6.7 C 124.7 6.7 127.9 7.9 130.1 10 C 130.1 10 127.1 15.8 127.1 15.8 C 125.6 14.2 123.7 13.4 121.6 13.4 C 119.5 13.4 117.9 15.1 117.9 17.5 C 117.9 23.7 130.6 24.5 130.6 36.5 C 130.6 43.3 126.2 48.1 119.4 48.1 C 115 48.1 111.7 46.7 109.1 44.2 Z M 138.6 47.4 L 138.6 14 L 132.5 14 L 132.5 7.4 L 152.2 7.4 L 152.2 14 L 146.2 14 L 146.2 47.4 L 138.6 47.4 Z M 164.9 27.4 C 164.9 15.7 168.5 6.7 177.3 6.7 C 186.1 6.7 189.8 15.7 189.8 27.4 C 189.8 39.2 186.1 48.1 177.3 48.1 C 168.5 48.1 164.9 39.2 164.9 27.4 Z M 182.1 27.4 C 182.1 19.4 180.9 13.4 177.3 13.4 C 173.8 13.4 172.6 19.4 172.6 27.4 C 172.6 35.3 173.8 41.4 177.3 41.4 C 180.9 41.4 182.1 35.3 182.1 27.4 Z M 194.8 47.4 L 194.8 7.4 C 194.8 7.4 206.86 7.38 206.9 7.4 C 213.5 7.4 216.5 12.1 216.5 17.6 C 216.5 22.6 214.1 25.7 210.6 26.8 C 214.4 27.4 217 31.7 217 36.6 C 217 42.7 214.2 47.4 207.3 47.4 C 207.28 47.4 194.8 47.4 194.8 47.4 Z M 208.7 18.9 C 208.7 16 207.7 14 204.9 14 C 204.88 14.04 202.4 14 202.4 14 L 202.4 23.7 C 202.4 23.7 204.88 23.7 204.9 23.7 C 207.7 23.7 208.7 21.8 208.7 18.9 Z M 209.3 35.5 C 209.3 32.6 207.9 30.4 205.1 30.4 C 205.12 30.36 202.4 30.4 202.4 30.4 L 202.4 40.7 C 202.4 40.7 205.12 40.74 205.1 40.7 C 207.9 40.7 209.3 38.9 209.3 35.5 Z M 219.5 44.2 C 219.5 44.2 222.8 38.2 222.8 38.2 C 224.4 40.3 227 41.4 229.4 41.4 C 231.8 41.4 233.4 39.6 233.4 37 C 233.4 29.9 220.7 29.9 220.7 17.9 C 220.7 11.9 224.7 6.7 231.8 6.7 C 235.2 6.7 238.3 7.9 240.5 10 C 240.5 10 237.6 15.8 237.6 15.8 C 236 14.2 234.2 13.4 232.1 13.4 C 229.9 13.4 228.3 15.1 228.3 17.5 C 228.3 23.7 241.1 24.5 241.1 36.5 C 241.1 43.3 236.7 48.1 229.8 48.1 C 225.5 48.1 222.1 46.7 219.5 44.2 Z M 245.7 47.4 L 245.7 7.4 L 263.2 7.4 L 263.2 14 L 253.2 14 L 253.2 23.7 L 262.8 23.7 L 262.8 30.4 L 253.2 30.4 L 253.2 40.7 L 263.2 40.7 L 263.2 47.4 L 245.7 47.4 Z M 282.7 47.4 L 278.4 32.7 L 275.9 32.7 L 275.9 47.4 L 268.4 47.4 L 268.4 7.4 C 268.4 7.4 279.52 7.38 279.5 7.4 C 285.9 7.4 290.4 12.5 290.4 19.8 C 290.4 26.6 287.6 29.6 285.3 30.8 C 285.28 30.84 290.8 47.4 290.8 47.4 L 282.7 47.4 Z M 282.8 20 C 282.8 16.4 281.2 14 278.4 14 C 278.38 14.04 275.9 14 275.9 14 L 275.9 26 C 275.9 26 278.38 26.04 278.4 26 C 281.2 26 282.8 23.6 282.8 20 Z M 300.8 47.4 L 292.5 7.4 L 300.3 7.4 L 305.2 37.7 L 310.1 7.4 L 317.9 7.4 L 309.5 47.4 L 300.8 47.4 Z M 321 47.4 L 321 7.4 L 338.6 7.4 L 338.6 14 L 328.6 14 L 328.6 23.7 L 338.1 23.7 L 338.1 30.4 L 328.6 30.4 L 328.6 40.7 L 338.6 40.7 L 338.6 47.4 L 321 47.4 Z M 343.7 47.4 L 343.7 7.4 C 343.7 7.4 353.68 7.38 353.7 7.4 C 363.3 7.4 367.3 16 367.3 27.4 C 367.3 38.9 363.4 47.4 353.7 47.4 C 353.74 47.4 343.7 47.4 343.7 47.4 Z M 359.6 27.4 C 359.6 18.6 357.6 14 353.7 14 C 353.68 14.04 351.3 14 351.3 14 L 351.3 40.7 C 351.3 40.7 353.68 40.74 353.7 40.7 C 357.7 40.7 359.6 35.9 359.6 27.4 Z M 396.5 47.4 L 395.3 40 L 387.9 40 L 386.7 47.4 L 378.9 47.4 L 387.2 7.4 L 395.9 7.4 L 404.3 47.4 L 396.5 47.4 Z M 391.6 15.8 L 388.7 33.4 L 394.5 33.4 L 391.6 15.8 Z M 407.4 47.4 L 407.4 7.4 C 407.4 7.4 417.39 7.38 417.4 7.4 C 427 7.4 431 16 431 27.4 C 431 38.9 427.1 47.4 417.4 47.4 C 417.45 47.4 407.4 47.4 407.4 47.4 Z M 423.3 27.4 C 423.3 18.6 421.3 14 417.4 14 C 417.39 14.04 415 14 415 14 L 415 40.7 C 415 40.7 417.39 40.74 417.4 40.7 C 421.4 40.7 423.3 35.9 423.3 27.4 Z M 440.8 47.4 L 432.5 7.4 L 440.3 7.4 L 445.2 37.7 L 450.1 7.4 L 457.9 7.4 L 449.5 47.4 L 440.8 47.4 Z M 461.1 47.4 L 461.1 7.4 L 478.6 7.4 L 478.6 14 L 468.6 14 L 468.6 23.7 L 478.2 23.7 L 478.2 30.4 L 468.6 30.4 L 468.6 40.7 L 478.6 40.7 L 478.6 47.4 L 461.1 47.4 Z M 498.1 47.4 L 493.8 32.7 L 491.3 32.7 L 491.3 47.4 L 483.7 47.4 L 483.7 7.4 C 483.7 7.4 494.91 7.38 494.9 7.4 C 501.3 7.4 505.8 12.5 505.8 19.8 C 505.8 26.6 502.9 29.6 500.7 30.8 C 500.67 30.84 506.2 47.4 506.2 47.4 L 498.1 47.4 Z M 498.1 20 C 498.1 16.4 496.6 14 493.8 14 C 493.77 14.04 491.3 14 491.3 14 L 491.3 26 C 491.3 26 493.77 26.04 493.8 26 C 496.6 26 498.1 23.6 498.1 20 Z M 508.9 44.2 C 508.9 44.2 512.2 38.2 512.2 38.2 C 513.9 40.3 516.4 41.4 518.8 41.4 C 521.2 41.4 522.8 39.6 522.8 37 C 522.8 29.9 510.1 29.9 510.1 17.9 C 510.1 11.9 514.2 6.7 521.2 6.7 C 524.6 6.7 527.7 7.9 529.9 10 C 529.9 10 527 15.8 527 15.8 C 525.4 14.2 523.6 13.4 521.5 13.4 C 519.3 13.4 517.8 15.1 517.8 17.5 C 517.8 23.7 530.5 24.5 530.5 36.5 C 530.5 43.3 526.1 48.1 519.3 48.1 C 514.9 48.1 511.5 46.7 508.9 44.2 Z M 535.1 47.4 L 535.1 7.4 L 552.6 7.4 L 552.6 14 L 542.7 14 L 542.7 23.7 L 552.2 23.7 L 552.2 30.4 L 542.7 30.4 L 542.7 40.7 L 552.6 40.7 L 552.6 47.4 L 535.1 47.4 Z M 567.5 47.4 L 567.5 7.4 L 585 7.4 L 585 14 L 575 14 L 575 23.7 L 584.6 23.7 L 584.6 30.4 L 575 30.4 L 575 40.7 L 585 40.7 L 585 47.4 L 567.5 47.4 Z M 590.2 47.4 L 590.2 7.4 L 607.7 7.4 L 607.7 14 L 597.7 14 L 597.7 23.7 L 607.3 23.7 L 607.3 30.4 L 597.7 30.4 L 597.7 47.4 L 590.2 47.4 Z M 612.7 47.4 L 612.7 7.4 L 630.2 7.4 L 630.2 14 L 620.3 14 L 620.3 23.7 L 629.8 23.7 L 629.8 30.4 L 620.3 30.4 L 620.3 47.4 L 612.7 47.4 Z M 635.3 47.4 L 635.3 7.4 L 652.8 7.4 L 652.8 14 L 642.8 14 L 642.8 23.7 L 652.4 23.7 L 652.4 30.4 L 642.8 30.4 L 642.8 40.7 L 652.8 40.7 L 652.8 47.4 L 635.3 47.4 Z M 656.7 27.4 C 656.7 15.5 660.5 6.7 669.2 6.7 C 675.7 6.7 678 11.9 679.3 16.1 C 679.3 16.1 673.3 18.4 673.3 18.4 C 672.4 15.3 671.5 13.4 669.2 13.4 C 665.6 13.4 664.4 19.3 664.4 27.4 C 664.4 35.6 665.6 41.4 669.2 41.4 C 671.7 41.4 672.8 38.9 673.3 35.6 C 673.3 35.6 679.4 37.8 679.4 37.8 C 678.2 42.4 675.9 48.1 669.2 48.1 C 660.5 48.1 656.7 39.3 656.7 27.4 Z M 687.7 47.4 L 687.7 14 L 681.7 14 L 681.7 7.4 L 701.3 7.4 L 701.3 14 L 695.3 14 L 695.3 47.4 L 687.7 47.4 Z " stroke="none" fill="#b13d24"/>  </g></svg>