<?xml version="1.0" standalone="no"?><!DOCTYPE svg PUBLIC "-//W3C//DTD SVG 1.1//EN" "http://www.w3.org/Graphics/SVG/1.1/DTD/svg11.dtd"><svg xmlns="http://www.w3.org/2000/svg" version="1.1" width="219px" height="475.3px" viewBox="0 0 219 475.3">  <desc>274 23 200 05 198 83 195 30 2521 36 67 35 567 75 621 62 281 10 448 62 391 15 428 58 902 41</desc>  <defs/>  <g id="Polygon226277">    <path d="M 145.8 454.2 C 145.8 454.2 147.1 452.5 147.1 452.5 C 147.9 453.8 148.8 454.6 150.5 454.6 C 153.7 454.6 154.8 450.3 154.8 446.6 C 154.8 446.3 154.8 446.2 154.8 446 C 154.1 447.4 152.5 448.9 150.4 448.9 C 147.5 448.9 145.2 446.8 145.2 442.5 C 145.2 439.2 147.2 436 150.9 436 C 155.7 436 157.2 441 157.2 446.4 C 157.2 451.8 155.3 456.7 150.5 456.7 C 148.4 456.7 146.8 455.7 145.8 454.2 Z M 154.8 443.8 C 154.6 441.6 153.9 438.2 151 438.2 C 148.6 438.2 147.6 440.4 147.6 442.5 C 147.6 445.7 149.1 446.9 151 446.9 C 152.7 446.9 154 445.4 154.8 443.8 Z M 160.1 446.4 C 160.1 441.6 161.7 436.1 166.3 436.1 C 171 436.1 172.6 441.6 172.6 446.4 C 172.6 451.2 171 456.7 166.3 456.7 C 161.7 456.7 160.1 451.2 160.1 446.4 Z M 170.2 446.4 C 170.2 442.4 169.4 438.2 166.3 438.2 C 163.3 438.2 162.5 442.4 162.5 446.4 C 162.5 450.3 163.2 454.6 166.3 454.6 C 169.4 454.6 170.2 450.3 170.2 446.4 Z M 175.6 456.4 C 175.6 456.4 175.61 454.43 175.6 454.4 C 182.1 446.9 184.4 444.5 184.4 441.5 C 184.4 439.4 182.9 438.2 181.2 438.2 C 179.3 438.2 177.9 439.1 177 440.7 C 177 440.7 175.4 439.3 175.4 439.3 C 176.7 437.2 178.7 436.1 181.2 436.1 C 184.3 436.1 186.8 438 186.8 441.5 C 186.8 444.9 184.3 447.9 179 454.2 C 179 454.25 186.9 454.2 186.9 454.2 L 186.9 456.4 L 175.6 456.4 Z M 190.5 455.1 C 190.5 454.2 191.2 453.5 192.1 453.5 C 193 453.5 193.7 454.2 193.7 455.1 C 193.7 456 193 456.7 192.1 456.7 C 191.2 456.7 190.5 456 190.5 455.1 Z M 204.1 456.4 L 204.1 451.2 L 196.2 451.2 L 196.2 449.2 L 203.4 436.4 L 206.5 436.4 L 206.5 449.1 L 208.7 449.1 L 208.7 451.2 L 206.5 451.2 L 206.5 456.4 L 204.1 456.4 Z M 204.1 438.9 L 198.4 449.1 L 204.1 449.1 L 204.1 438.9 Z M 214.4 456.4 L 214.4 439.5 L 211.3 442.8 L 209.8 441.3 L 214.6 436.4 L 216.7 436.4 L 216.7 456.4 L 214.4 456.4 Z " stroke="none" fill="#d0d1d4"/>  </g>  <g id="Polygon226276">    <path d="M 148.2 420.4 L 148.2 415.2 L 140.3 415.2 L 140.3 413.2 L 147.5 400.4 L 150.6 400.4 L 150.6 413.1 L 152.7 413.1 L 152.7 415.2 L 150.6 415.2 L 150.6 420.4 L 148.2 420.4 Z M 148.2 402.9 L 142.5 413.1 L 148.2 413.1 L 148.2 402.9 Z M 155 420.4 C 155 420.4 155.03 418.43 155 418.4 C 161.6 410.9 163.8 408.5 163.8 405.5 C 163.8 403.4 162.3 402.2 160.6 402.2 C 158.7 402.2 157.3 403.1 156.4 404.7 C 156.4 404.7 154.8 403.3 154.8 403.3 C 156.1 401.2 158.1 400.1 160.6 400.1 C 163.7 400.1 166.2 402 166.2 405.5 C 166.2 408.9 163.7 411.9 158.4 418.2 C 158.42 418.25 166.3 418.2 166.3 418.2 L 166.3 420.4 L 155 420.4 Z M 169.5 415.5 C 169.5 412.8 171.5 410.8 173.4 410.1 C 171.6 409.4 169.8 407.7 169.8 405.2 C 169.8 401.7 172.5 400.1 175.4 400.1 C 178.3 400.1 181.1 401.7 181.1 405.2 C 181.1 407.7 179.2 409.4 177.4 410.1 C 179.3 410.8 181.3 412.8 181.3 415.4 C 181.3 418.7 178.9 420.7 175.4 420.7 C 171.9 420.7 169.5 418.7 169.5 415.5 Z M 178.7 405.5 C 178.7 403.5 177.3 402.2 175.4 402.2 C 173.4 402.2 172.1 403.5 172.1 405.5 C 172.1 407.9 174.6 408.9 175.4 409.2 C 176.2 408.9 178.7 407.9 178.7 405.5 Z M 178.9 415.2 C 178.9 412.5 176.2 411.2 175.4 411 C 174.6 411.2 171.9 412.5 171.9 415.2 C 171.9 417.3 173.4 418.6 175.4 418.6 C 177.3 418.6 178.9 417.3 178.9 415.2 Z M 184.5 419.1 C 184.5 418.2 185.2 417.5 186.1 417.5 C 187 417.5 187.7 418.2 187.7 419.1 C 187.7 420 187 420.7 186.1 420.7 C 185.2 420.7 184.5 420 184.5 419.1 Z M 191.1 417.5 C 191.1 417.5 192.7 416 192.7 416 C 193.6 417.7 195 418.6 196.9 418.6 C 199.1 418.6 200.5 416.6 200.5 414.3 C 200.5 411.4 199.1 409.8 197.1 409.8 C 195.6 409.8 194.5 410.4 193.4 411.7 C 193.42 411.71 191.7 411.1 191.7 411.1 L 191.7 400.4 L 201.9 400.4 L 201.9 402.5 L 194 402.5 C 194 402.5 194.02 409.49 194 409.5 C 194.8 408.5 196.1 407.7 197.7 407.7 C 200.6 407.7 202.9 410 202.9 414.2 C 202.9 418 200.4 420.7 197 420.7 C 194 420.7 192.3 419.5 191.1 417.5 Z M 205.6 415.5 C 205.6 412.8 207.6 410.8 209.6 410.1 C 207.8 409.4 205.9 407.7 205.9 405.2 C 205.9 401.7 208.7 400.1 211.5 400.1 C 214.4 400.1 217.2 401.7 217.2 405.2 C 217.2 407.7 215.3 409.4 213.5 410.1 C 215.5 410.8 217.5 412.8 217.5 415.4 C 217.5 418.7 215 420.7 211.5 420.7 C 208 420.7 205.6 418.7 205.6 415.5 Z M 214.8 405.5 C 214.8 403.5 213.5 402.2 211.5 402.2 C 209.6 402.2 208.3 403.5 208.3 405.5 C 208.3 407.9 210.8 408.9 211.5 409.2 C 212.3 408.9 214.8 407.9 214.8 405.5 Z M 215.1 415.2 C 215.1 412.5 212.4 411.2 211.5 411 C 210.7 411.2 208 412.5 208 415.2 C 208 417.3 209.6 418.6 211.5 418.6 C 213.5 418.6 215.1 417.3 215.1 415.2 Z " stroke="none" fill="#d0d1d4"/>  </g>  <g id="Polygon226275">    <path d="M 150.3 381.4 C 150.3 381.4 151.8 380 151.8 380 C 152.8 381.5 154.2 382.6 156.1 382.6 C 158.6 382.6 159.8 381.1 159.8 378.8 C 159.8 376.1 158 375.2 156 375.2 C 155.3 375.2 154.6 375.2 154.4 375.2 C 154.4 375.2 154.4 373 154.4 373 C 154.6 373.1 155.4 373.1 155.9 373.1 C 157.9 373.1 159.5 372 159.5 369.7 C 159.5 367.3 158.1 366.2 156.1 366.2 C 154.3 366.2 153 367.1 152 368.6 C 152 368.6 150.5 367.2 150.5 367.2 C 151.7 365.3 153.7 364.1 156.2 364.1 C 159.5 364.1 161.9 365.8 161.9 369.4 C 161.9 371.9 160.2 373.6 158.3 374 C 160.1 374.3 162.2 376.1 162.2 379 C 162.2 382.3 160 384.7 156.2 384.7 C 153.4 384.7 151.3 383.2 150.3 381.4 Z M 165.5 382.2 C 165.5 382.2 166.8 380.5 166.8 380.5 C 167.6 381.8 168.5 382.6 170.2 382.6 C 173.4 382.6 174.5 378.3 174.5 374.6 C 174.5 374.3 174.5 374.2 174.5 374 C 173.8 375.4 172.2 376.9 170.1 376.9 C 167.2 376.9 164.9 374.8 164.9 370.5 C 164.9 367.2 166.9 364 170.6 364 C 175.4 364 177 369 177 374.4 C 177 379.8 175 384.7 170.2 384.7 C 168.1 384.7 166.5 383.7 165.5 382.2 Z M 174.5 371.8 C 174.3 369.6 173.6 366.2 170.7 366.2 C 168.3 366.2 167.3 368.4 167.3 370.5 C 167.3 373.7 168.8 374.9 170.7 374.9 C 172.4 374.9 173.7 373.4 174.5 371.8 Z M 183.3 384.4 L 183.3 367.5 L 180.3 370.8 L 178.8 369.3 L 183.6 364.4 L 185.7 364.4 L 185.7 384.4 L 183.3 384.4 Z M 189.6 383.1 C 189.6 382.2 190.4 381.5 191.2 381.5 C 192.1 381.5 192.9 382.2 192.9 383.1 C 192.9 384 192.1 384.7 191.2 384.7 C 190.4 384.7 189.6 384 189.6 383.1 Z M 199.6 384.4 L 199.6 367.5 L 196.5 370.8 L 195.1 369.3 L 199.9 364.4 L 202 364.4 L 202 384.4 L 199.6 384.4 Z M 205.7 381.5 C 205.7 381.5 207.3 380 207.3 380 C 208.2 381.7 209.5 382.6 211.5 382.6 C 213.7 382.6 215.1 380.6 215.1 378.3 C 215.1 375.4 213.7 373.8 211.6 373.8 C 210.2 373.8 209.1 374.4 208 375.7 C 208 375.71 206.2 375.1 206.2 375.1 L 206.2 364.4 L 216.4 364.4 L 216.4 366.5 L 208.6 366.5 C 208.6 366.5 208.6 373.49 208.6 373.5 C 209.4 372.5 210.7 371.7 212.3 371.7 C 215.2 371.7 217.5 374 217.5 378.2 C 217.5 382 215 384.7 211.5 384.7 C 208.6 384.7 206.9 383.5 205.7 381.5 Z " stroke="none" fill="#d0d1d4"/>  </g>  <g id="Polygon226274">    <path d="M 148.9 348.4 L 148.9 343.2 L 141 343.2 L 141 341.2 L 148.2 328.4 L 151.2 328.4 L 151.2 341.1 L 153.4 341.1 L 153.4 343.2 L 151.2 343.2 L 151.2 348.4 L 148.9 348.4 Z M 148.9 330.9 L 143.1 341.1 L 148.9 341.1 L 148.9 330.9 Z M 162.7 348.4 L 162.7 343.2 L 154.8 343.2 L 154.8 341.2 L 162 328.4 L 165.1 328.4 L 165.1 341.1 L 167.3 341.1 L 167.3 343.2 L 165.1 343.2 L 165.1 348.4 L 162.7 348.4 Z M 162.7 330.9 L 157 341.1 L 162.7 341.1 L 162.7 330.9 Z M 169.3 343.5 C 169.3 340.8 171.3 338.8 173.3 338.1 C 171.5 337.4 169.6 335.7 169.6 333.2 C 169.6 329.7 172.4 328.1 175.3 328.1 C 178.2 328.1 180.9 329.7 180.9 333.2 C 180.9 335.7 179.1 337.4 177.3 338.1 C 179.2 338.8 181.2 340.8 181.2 343.4 C 181.2 346.7 178.8 348.7 175.3 348.7 C 171.8 348.7 169.3 346.7 169.3 343.5 Z M 178.5 333.5 C 178.5 331.5 177.2 330.2 175.3 330.2 C 173.3 330.2 172 331.5 172 333.5 C 172 335.9 174.5 336.9 175.3 337.2 C 176.1 336.9 178.5 335.9 178.5 333.5 Z M 178.8 343.2 C 178.8 340.5 176.1 339.2 175.3 339 C 174.4 339.2 171.8 340.5 171.8 343.2 C 171.8 345.3 173.3 346.6 175.3 346.6 C 177.2 346.6 178.8 345.3 178.8 343.2 Z M 184.4 347.1 C 184.4 346.2 185.1 345.5 186 345.5 C 186.9 345.5 187.6 346.2 187.6 347.1 C 187.6 348 186.9 348.7 186 348.7 C 185.1 348.7 184.4 348 184.4 347.1 Z M 190.8 338.4 C 190.8 333 192.7 328.1 197.6 328.1 C 199.7 328.1 201.3 329.1 202.2 330.6 C 202.2 330.6 200.9 332.2 200.9 332.2 C 200.2 331 199.2 330.2 197.6 330.2 C 194.4 330.2 193.2 334.4 193.2 338.2 C 193.2 338.4 193.2 338.5 193.2 338.8 C 193.9 337.4 195.6 335.8 197.7 335.8 C 200.6 335.8 202.9 338 202.9 342.2 C 202.9 345.6 200.8 348.7 197.1 348.7 C 192.4 348.7 190.8 343.7 190.8 338.4 Z M 200.5 342.3 C 200.5 339.1 198.9 337.9 197.1 337.9 C 195.4 337.9 194 339.3 193.3 341 C 193.4 343.2 194.2 346.6 197 346.6 C 199.4 346.6 200.5 344.4 200.5 342.3 Z M 205.8 348.4 C 205.8 348.4 205.75 346.43 205.8 346.4 C 212.3 338.9 214.5 336.5 214.5 333.5 C 214.5 331.4 213 330.2 211.3 330.2 C 209.4 330.2 208.1 331.1 207.1 332.7 C 207.1 332.7 205.5 331.3 205.5 331.3 C 206.9 329.2 208.8 328.1 211.4 328.1 C 214.4 328.1 217 330 217 333.5 C 217 336.9 214.5 339.9 209.1 346.2 C 209.14 346.25 217.1 346.2 217.1 346.2 L 217.1 348.4 L 205.8 348.4 Z " stroke="none" fill="#d0d1d4"/>  </g>  <g id="Polygon226273">    <path d="M 150.1 312.4 C 150.1 312.4 150.08 310.43 150.1 310.4 C 156.6 302.9 158.9 300.5 158.9 297.5 C 158.9 295.4 157.4 294.2 155.7 294.2 C 153.8 294.2 152.4 295.1 151.4 296.7 C 151.4 296.7 149.9 295.3 149.9 295.3 C 151.2 293.2 153.1 292.1 155.7 292.1 C 158.7 292.1 161.3 294 161.3 297.5 C 161.3 300.9 158.8 303.9 153.5 310.2 C 153.47 310.25 161.4 310.2 161.4 310.2 L 161.4 312.4 L 150.1 312.4 Z M 164.5 307.5 C 164.5 304.8 166.5 302.8 168.5 302.1 C 166.7 301.4 164.8 299.7 164.8 297.2 C 164.8 293.7 167.6 292.1 170.4 292.1 C 173.3 292.1 176.1 293.7 176.1 297.2 C 176.1 299.7 174.2 301.4 172.4 302.1 C 174.4 302.8 176.4 304.8 176.4 307.4 C 176.4 310.7 173.9 312.7 170.4 312.7 C 166.9 312.7 164.5 310.7 164.5 307.5 Z M 173.7 297.5 C 173.7 295.5 172.4 294.2 170.4 294.2 C 168.5 294.2 167.2 295.5 167.2 297.5 C 167.2 299.9 169.7 300.9 170.4 301.2 C 171.2 300.9 173.7 299.9 173.7 297.5 Z M 174 307.2 C 174 304.5 171.3 303.2 170.4 303 C 169.6 303.2 166.9 304.5 166.9 307.2 C 166.9 309.3 168.5 310.6 170.4 310.6 C 172.4 310.6 174 309.3 174 307.2 Z M 182.7 312.4 L 182.7 295.5 L 179.6 298.8 L 178.2 297.3 L 183 292.4 L 185.1 292.4 L 185.1 312.4 L 182.7 312.4 Z M 189 311.1 C 189 310.2 189.7 309.5 190.6 309.5 C 191.5 309.5 192.2 310.2 192.2 311.1 C 192.2 312 191.5 312.7 190.6 312.7 C 189.7 312.7 189 312 189 311.1 Z M 199 312.4 L 199 295.5 L 195.9 298.8 L 194.5 297.3 L 199.3 292.4 L 201.4 292.4 L 201.4 312.4 L 199 312.4 Z M 204.9 302.4 C 204.9 297.6 206.5 292.1 211.2 292.1 C 215.8 292.1 217.4 297.6 217.4 302.4 C 217.4 307.2 215.8 312.7 211.2 312.7 C 206.5 312.7 204.9 307.2 204.9 302.4 Z M 215 302.4 C 215 298.4 214.2 294.2 211.2 294.2 C 208.1 294.2 207.3 298.4 207.3 302.4 C 207.3 306.3 208.1 310.6 211.2 310.6 C 214.2 310.6 215 306.3 215 302.4 Z " stroke="none" fill="#d0d1d4"/>  </g>  <g id="Polygon226272">    <path d="M 145.1 266.4 C 145.1 261 147 256.1 151.8 256.1 C 153.9 256.1 155.5 257.1 156.5 258.6 C 156.5 258.6 155.2 260.2 155.2 260.2 C 154.5 259 153.5 258.2 151.9 258.2 C 148.7 258.2 147.5 262.4 147.5 266.2 C 147.5 266.4 147.5 266.5 147.5 266.8 C 148.2 265.4 149.9 263.8 151.9 263.8 C 154.8 263.8 157.2 266 157.2 270.2 C 157.2 273.6 155.1 276.7 151.4 276.7 C 146.7 276.7 145.1 271.7 145.1 266.4 Z M 154.8 270.3 C 154.8 267.1 153.2 265.9 151.3 265.9 C 149.7 265.9 148.3 267.3 147.6 269 C 147.7 271.2 148.5 274.6 151.3 274.6 C 153.7 274.6 154.8 272.4 154.8 270.3 Z M 160 276.4 C 160 276.4 160.04 274.43 160 274.4 C 166.6 266.9 168.8 264.5 168.8 261.5 C 168.8 259.4 167.3 258.2 165.6 258.2 C 163.7 258.2 162.3 259.1 161.4 260.7 C 161.4 260.7 159.8 259.3 159.8 259.3 C 161.1 257.2 163.1 256.1 165.6 256.1 C 168.7 256.1 171.3 258 171.3 261.5 C 171.3 264.9 168.7 267.9 163.4 274.2 C 163.43 274.25 171.3 274.2 171.3 274.2 L 171.3 276.4 L 160 276.4 Z M 178.1 276.4 L 178.1 259.5 L 175 262.8 L 173.6 261.3 L 178.4 256.4 L 180.5 256.4 L 180.5 276.4 L 178.1 276.4 Z M 184.4 275.1 C 184.4 274.2 185.1 273.5 186 273.5 C 186.9 273.5 187.6 274.2 187.6 275.1 C 187.6 276 186.9 276.7 186 276.7 C 185.1 276.7 184.4 276 184.4 275.1 Z M 190.8 266.4 C 190.8 261 192.7 256.1 197.6 256.1 C 199.7 256.1 201.3 257.1 202.2 258.6 C 202.2 258.6 200.9 260.2 200.9 260.2 C 200.2 259 199.2 258.2 197.6 258.2 C 194.4 258.2 193.2 262.4 193.2 266.2 C 193.2 266.4 193.2 266.5 193.2 266.8 C 193.9 265.4 195.6 263.8 197.7 263.8 C 200.6 263.8 202.9 266 202.9 270.2 C 202.9 273.6 200.8 276.7 197.1 276.7 C 192.4 276.7 190.8 271.7 190.8 266.4 Z M 200.5 270.3 C 200.5 267.1 198.9 265.9 197.1 265.9 C 195.4 265.9 194 267.3 193.3 269 C 193.4 271.2 194.2 274.6 197 274.6 C 199.4 274.6 200.5 272.4 200.5 270.3 Z M 205.8 276.4 C 205.8 276.4 205.75 274.43 205.8 274.4 C 212.3 266.9 214.5 264.5 214.5 261.5 C 214.5 259.4 213 258.2 211.3 258.2 C 209.4 258.2 208.1 259.1 207.1 260.7 C 207.1 260.7 205.5 259.3 205.5 259.3 C 206.9 257.2 208.8 256.1 211.4 256.1 C 214.4 256.1 217 258 217 261.5 C 217 264.9 214.5 267.9 209.1 274.2 C 209.14 274.25 217.1 274.2 217.1 274.2 L 217.1 276.4 L 205.8 276.4 Z " stroke="none" fill="#d0d1d4"/>  </g>  <g id="Polygon226271">    <path d="M 144 237.5 C 144 237.5 145.6 236 145.6 236 C 146.6 237.7 147.9 238.6 149.8 238.6 C 152 238.6 153.4 236.6 153.4 234.3 C 153.4 231.4 152.1 229.8 150 229.8 C 148.6 229.8 147.5 230.4 146.4 231.7 C 146.36 231.71 144.6 231.1 144.6 231.1 L 144.6 220.4 L 154.8 220.4 L 154.8 222.5 L 147 222.5 C 147 222.5 146.96 229.49 147 229.5 C 147.7 228.5 149.1 227.7 150.6 227.7 C 153.5 227.7 155.8 230 155.8 234.2 C 155.8 238 153.4 240.7 149.9 240.7 C 147 240.7 145.2 239.5 144 237.5 Z M 158.6 230.4 C 158.6 225 160.5 220.1 165.3 220.1 C 167.4 220.1 169 221.1 170 222.6 C 170 222.6 168.7 224.2 168.7 224.2 C 168 223 167 222.2 165.4 222.2 C 162.2 222.2 161 226.4 161 230.2 C 161 230.4 161 230.5 161 230.8 C 161.7 229.4 163.4 227.8 165.4 227.8 C 168.3 227.8 170.7 230 170.7 234.2 C 170.7 237.6 168.6 240.7 164.9 240.7 C 160.2 240.7 158.6 235.7 158.6 230.4 Z M 168.3 234.3 C 168.3 231.1 166.7 229.9 164.8 229.9 C 163.2 229.9 161.8 231.3 161.1 233 C 161.2 235.2 162 238.6 164.8 238.6 C 167.2 238.6 168.3 236.4 168.3 234.3 Z M 174.9 240.4 L 181.2 222.5 L 172.7 222.5 L 172.7 220.4 L 183.9 220.4 L 183.9 222 L 177.5 240.4 L 174.9 240.4 Z M 186.4 239.1 C 186.4 238.2 187.2 237.5 188 237.5 C 188.9 237.5 189.6 238.2 189.6 239.1 C 189.6 240 188.9 240.7 188 240.7 C 187.2 240.7 186.4 240 186.4 239.1 Z M 194.4 240.4 L 200.7 222.5 L 192.2 222.5 L 192.2 220.4 L 203.4 220.4 L 203.4 222 L 197 240.4 L 194.4 240.4 Z M 205.7 237.5 C 205.7 237.5 207.3 236 207.3 236 C 208.2 237.7 209.5 238.6 211.5 238.6 C 213.7 238.6 215.1 236.6 215.1 234.3 C 215.1 231.4 213.7 229.8 211.6 229.8 C 210.2 229.8 209.1 230.4 208 231.7 C 208 231.71 206.2 231.1 206.2 231.1 L 206.2 220.4 L 216.4 220.4 L 216.4 222.5 L 208.6 222.5 C 208.6 222.5 208.6 229.49 208.6 229.5 C 209.4 228.5 210.7 227.7 212.3 227.7 C 215.2 227.7 217.5 230 217.5 234.2 C 217.5 238 215 240.7 211.5 240.7 C 208.6 240.7 206.9 239.5 205.7 237.5 Z " stroke="none" fill="#d0d1d4"/>  </g>  <g id="Polygon226270">    <path d="M 157.1 194.4 C 157.1 189 159 184.1 163.8 184.1 C 165.9 184.1 167.5 185.1 168.5 186.6 C 168.5 186.6 167.2 188.2 167.2 188.2 C 166.4 187 165.5 186.2 163.8 186.2 C 160.7 186.2 159.5 190.4 159.5 194.2 C 159.5 194.4 159.5 194.5 159.5 194.8 C 160.2 193.4 161.8 191.8 163.9 191.8 C 166.8 191.8 169.2 194 169.2 198.2 C 169.2 201.6 167.1 204.7 163.4 204.7 C 158.6 204.7 157.1 199.7 157.1 194.4 Z M 166.7 198.3 C 166.7 195.1 165.2 193.9 163.3 193.9 C 161.6 193.9 160.3 195.3 159.5 197 C 159.7 199.2 160.5 202.6 163.3 202.6 C 165.7 202.6 166.7 200.4 166.7 198.3 Z M 173.4 204.4 L 179.7 186.5 L 171.2 186.5 L 171.2 184.4 L 182.3 184.4 L 182.3 186 L 175.9 204.4 L 173.4 204.4 Z M 184.9 203.1 C 184.9 202.2 185.6 201.5 186.5 201.5 C 187.4 201.5 188.1 202.2 188.1 203.1 C 188.1 204 187.4 204.7 186.5 204.7 C 185.6 204.7 184.9 204 184.9 203.1 Z M 190.8 201.4 C 190.8 201.4 192.3 200 192.3 200 C 193.3 201.5 194.7 202.6 196.6 202.6 C 199.1 202.6 200.3 201.1 200.3 198.8 C 200.3 196.1 198.5 195.2 196.5 195.2 C 195.8 195.2 195.1 195.2 194.9 195.2 C 194.9 195.2 194.9 193 194.9 193 C 195.1 193.1 195.9 193.1 196.4 193.1 C 198.4 193.1 200 192 200 189.7 C 200 187.3 198.6 186.2 196.6 186.2 C 194.8 186.2 193.5 187.1 192.5 188.6 C 192.5 188.6 191 187.2 191 187.2 C 192.2 185.3 194.2 184.1 196.7 184.1 C 200 184.1 202.4 185.8 202.4 189.4 C 202.4 191.9 200.7 193.6 198.8 194 C 200.6 194.3 202.7 196.1 202.7 199 C 202.7 202.3 200.5 204.7 196.7 204.7 C 193.9 204.7 191.8 203.2 190.8 201.4 Z M 205.7 201.5 C 205.7 201.5 207.3 200 207.3 200 C 208.2 201.7 209.5 202.6 211.5 202.6 C 213.7 202.6 215.1 200.6 215.1 198.3 C 215.1 195.4 213.7 193.8 211.6 193.8 C 210.2 193.8 209.1 194.4 208 195.7 C 208 195.71 206.2 195.1 206.2 195.1 L 206.2 184.4 L 216.4 184.4 L 216.4 186.5 L 208.6 186.5 C 208.6 186.5 208.6 193.49 208.6 193.5 C 209.4 192.5 210.7 191.7 212.3 191.7 C 215.2 191.7 217.5 194 217.5 198.2 C 217.5 202 215 204.7 211.5 204.7 C 208.6 204.7 206.9 203.5 205.7 201.5 Z " stroke="none" fill="#d0d1d4"/>  </g>  <g id="Polygon226269">    <path d="M 131.1 168.4 C 131.1 168.4 131.12 166.43 131.1 166.4 C 137.7 158.9 139.9 156.5 139.9 153.5 C 139.9 151.4 138.4 150.2 136.7 150.2 C 134.8 150.2 133.4 151.1 132.5 152.7 C 132.5 152.7 130.9 151.3 130.9 151.3 C 132.2 149.2 134.2 148.1 136.7 148.1 C 139.8 148.1 142.3 150 142.3 153.5 C 142.3 156.9 139.8 159.9 134.5 166.2 C 134.51 166.25 142.4 166.2 142.4 166.2 L 142.4 168.4 L 131.1 168.4 Z M 145.8 165.5 C 145.8 165.5 147.3 164 147.3 164 C 148.3 165.7 149.6 166.6 151.6 166.6 C 153.8 166.6 155.1 164.6 155.1 162.3 C 155.1 159.4 153.8 157.8 151.7 157.8 C 150.3 157.8 149.2 158.4 148.1 159.7 C 148.1 159.71 146.3 159.1 146.3 159.1 L 146.3 148.4 L 156.5 148.4 L 156.5 150.5 L 148.7 150.5 C 148.7 150.5 148.7 157.49 148.7 157.5 C 149.5 156.5 150.8 155.7 152.4 155.7 C 155.3 155.7 157.6 158 157.6 162.2 C 157.6 166 155.1 168.7 151.6 168.7 C 148.7 168.7 147 167.5 145.8 165.5 Z M 160.5 168.4 C 160.5 168.4 160.52 166.43 160.5 166.4 C 167.1 158.9 169.3 156.5 169.3 153.5 C 169.3 151.4 167.8 150.2 166.1 150.2 C 164.2 150.2 162.8 151.1 161.9 152.7 C 161.9 152.7 160.3 151.3 160.3 151.3 C 161.6 149.2 163.6 148.1 166.1 148.1 C 169.2 148.1 171.7 150 171.7 153.5 C 171.7 156.9 169.2 159.9 163.9 166.2 C 163.91 166.25 171.8 166.2 171.8 166.2 L 171.8 168.4 L 160.5 168.4 Z M 178.6 168.4 L 178.6 151.5 L 175.5 154.8 L 174 153.3 L 178.8 148.4 L 180.9 148.4 L 180.9 168.4 L 178.6 168.4 Z M 184.9 167.1 C 184.9 166.2 185.6 165.5 186.5 165.5 C 187.3 165.5 188.1 166.2 188.1 167.1 C 188.1 168 187.3 168.7 186.5 168.7 C 185.6 168.7 184.9 168 184.9 167.1 Z M 190.8 165.4 C 190.8 165.4 192.3 164 192.3 164 C 193.2 165.5 194.7 166.6 196.6 166.6 C 199 166.6 200.2 165.1 200.2 162.8 C 200.2 160.1 198.5 159.2 196.4 159.2 C 195.8 159.2 195.1 159.2 194.8 159.2 C 194.8 159.2 194.8 157 194.8 157 C 195.1 157.1 195.9 157.1 196.4 157.1 C 198.4 157.1 200 156 200 153.7 C 200 151.3 198.6 150.2 196.5 150.2 C 194.8 150.2 193.5 151.1 192.5 152.6 C 192.5 152.6 191 151.2 191 151.2 C 192.2 149.3 194.2 148.1 196.7 148.1 C 199.9 148.1 202.4 149.8 202.4 153.4 C 202.4 155.9 200.6 157.6 198.8 158 C 200.6 158.3 202.6 160.1 202.6 163 C 202.6 166.3 200.5 168.7 196.7 168.7 C 193.8 168.7 191.8 167.2 190.8 165.4 Z M 205.5 158.4 C 205.5 153 207.4 148.1 212.2 148.1 C 214.3 148.1 215.9 149.1 216.9 150.6 C 216.9 150.6 215.6 152.2 215.6 152.2 C 214.8 151 213.9 150.2 212.3 150.2 C 209.1 150.2 207.9 154.4 207.9 158.2 C 207.9 158.4 207.9 158.5 207.9 158.8 C 208.6 157.4 210.3 155.8 212.3 155.8 C 215.2 155.8 217.6 158 217.6 162.2 C 217.6 165.6 215.5 168.7 211.8 168.7 C 207 168.7 205.5 163.7 205.5 158.4 Z M 215.1 162.3 C 215.1 159.1 213.6 157.9 211.7 157.9 C 210 157.9 208.7 159.3 207.9 161 C 208.1 163.2 208.9 166.6 211.7 166.6 C 214.1 166.6 215.1 164.4 215.1 162.3 Z " stroke="none" fill="#d0d1d4"/>  </g>  <g id="Polygon226268">    <path d="M 148.5 132.4 L 148.5 115.5 L 145.4 118.8 L 144 117.3 L 148.8 112.4 L 150.9 112.4 L 150.9 132.4 L 148.5 132.4 Z M 154.9 130.2 C 154.9 130.2 156.2 128.5 156.2 128.5 C 156.9 129.8 157.9 130.6 159.5 130.6 C 162.8 130.6 163.9 126.3 163.9 122.6 C 163.9 122.3 163.9 122.2 163.9 122 C 163.2 123.4 161.5 124.9 159.5 124.9 C 156.6 124.9 154.2 122.8 154.2 118.5 C 154.2 115.2 156.3 112 160 112 C 164.7 112 166.3 117 166.3 122.4 C 166.3 127.8 164.4 132.7 159.5 132.7 C 157.4 132.7 155.9 131.7 154.9 130.2 Z M 163.8 119.8 C 163.7 117.6 162.9 114.2 160.1 114.2 C 157.7 114.2 156.6 116.4 156.6 118.5 C 156.6 121.7 158.2 122.9 160.1 122.9 C 161.7 122.9 163.1 121.4 163.8 119.8 Z M 169.3 129.5 C 169.3 129.5 170.9 128 170.9 128 C 171.8 129.7 173.1 130.6 175.1 130.6 C 177.3 130.6 178.7 128.6 178.7 126.3 C 178.7 123.4 177.3 121.8 175.2 121.8 C 173.8 121.8 172.7 122.4 171.6 123.7 C 171.62 123.71 169.8 123.1 169.8 123.1 L 169.8 112.4 L 180 112.4 L 180 114.5 L 172.2 114.5 C 172.2 114.5 172.22 121.49 172.2 121.5 C 173 120.5 174.3 119.7 175.9 119.7 C 178.8 119.7 181.1 122 181.1 126.2 C 181.1 130 178.6 132.7 175.2 132.7 C 172.2 132.7 170.5 131.5 169.3 129.5 Z M 184.3 131.1 C 184.3 130.2 185 129.5 185.9 129.5 C 186.7 129.5 187.5 130.2 187.5 131.1 C 187.5 132 186.7 132.7 185.9 132.7 C 185 132.7 184.3 132 184.3 131.1 Z M 190.2 129.4 C 190.2 129.4 191.7 128 191.7 128 C 192.6 129.5 194.1 130.6 196 130.6 C 198.4 130.6 199.6 129.1 199.6 126.8 C 199.6 124.1 197.9 123.2 195.8 123.2 C 195.2 123.2 194.5 123.2 194.2 123.2 C 194.2 123.2 194.2 121 194.2 121 C 194.5 121.1 195.3 121.1 195.8 121.1 C 197.8 121.1 199.4 120 199.4 117.7 C 199.4 115.3 198 114.2 195.9 114.2 C 194.2 114.2 192.9 115.1 191.9 116.6 C 191.9 116.6 190.4 115.2 190.4 115.2 C 191.6 113.3 193.6 112.1 196.1 112.1 C 199.3 112.1 201.8 113.8 201.8 117.4 C 201.8 119.9 200 121.6 198.2 122 C 200 122.3 202 124.1 202 127 C 202 130.3 199.9 132.7 196.1 132.7 C 193.2 132.7 191.2 131.2 190.2 129.4 Z M 204.9 122.4 C 204.9 117.6 206.5 112.1 211.2 112.1 C 215.8 112.1 217.4 117.6 217.4 122.4 C 217.4 127.2 215.8 132.7 211.2 132.7 C 206.5 132.7 204.9 127.2 204.9 122.4 Z M 215 122.4 C 215 118.4 214.2 114.2 211.2 114.2 C 208.1 114.2 207.3 118.4 207.3 122.4 C 207.3 126.3 208.1 130.6 211.2 130.6 C 214.2 130.6 215 126.3 215 122.4 Z " stroke="none" fill="#d0d1d4"/>  </g>  <g id="Polygon226267">    <path d="M 149.4 96.4 L 149.4 79.5 L 146.3 82.8 L 144.9 81.3 L 149.7 76.4 L 151.8 76.4 L 151.8 96.4 L 149.4 96.4 Z M 155.8 94.2 C 155.8 94.2 157.1 92.5 157.1 92.5 C 157.9 93.8 158.8 94.6 160.5 94.6 C 163.7 94.6 164.8 90.3 164.8 86.6 C 164.8 86.3 164.8 86.2 164.8 86 C 164.1 87.4 162.5 88.9 160.4 88.9 C 157.5 88.9 155.1 86.8 155.1 82.5 C 155.1 79.2 157.2 76 160.9 76 C 165.7 76 167.2 81 167.2 86.4 C 167.2 91.8 165.3 96.7 160.5 96.7 C 158.4 96.7 156.8 95.7 155.8 94.2 Z M 164.7 83.8 C 164.6 81.6 163.8 78.2 161 78.2 C 158.6 78.2 157.6 80.4 157.6 82.5 C 157.6 85.7 159.1 86.9 161 86.9 C 162.7 86.9 164 85.4 164.7 83.8 Z M 170 91.5 C 170 88.8 172 86.8 174 86.1 C 172.2 85.4 170.3 83.7 170.3 81.2 C 170.3 77.7 173.1 76.1 175.9 76.1 C 178.8 76.1 181.6 77.7 181.6 81.2 C 181.6 83.7 179.7 85.4 177.9 86.1 C 179.9 86.8 181.9 88.8 181.9 91.4 C 181.9 94.7 179.4 96.7 175.9 96.7 C 172.4 96.7 170 94.7 170 91.5 Z M 179.2 81.5 C 179.2 79.5 177.9 78.2 175.9 78.2 C 174 78.2 172.7 79.5 172.7 81.5 C 172.7 83.9 175.2 84.9 175.9 85.2 C 176.7 84.9 179.2 83.9 179.2 81.5 Z M 179.5 91.2 C 179.5 88.5 176.8 87.2 175.9 87 C 175.1 87.2 172.4 88.5 172.4 91.2 C 172.4 93.3 174 94.6 175.9 94.6 C 177.9 94.6 179.5 93.3 179.5 91.2 Z M 185.1 95.1 C 185.1 94.2 185.8 93.5 186.6 93.5 C 187.5 93.5 188.3 94.2 188.3 95.1 C 188.3 96 187.5 96.7 186.6 96.7 C 185.8 96.7 185.1 96 185.1 95.1 Z M 191.4 91.5 C 191.4 88.8 193.4 86.8 195.4 86.1 C 193.6 85.4 191.7 83.7 191.7 81.2 C 191.7 77.7 194.5 76.1 197.4 76.1 C 200.2 76.1 203 77.7 203 81.2 C 203 83.7 201.1 85.4 199.3 86.1 C 201.3 86.8 203.3 88.8 203.3 91.4 C 203.3 94.7 200.8 96.7 197.4 96.7 C 193.8 96.7 191.4 94.7 191.4 91.5 Z M 200.6 81.5 C 200.6 79.5 199.3 78.2 197.4 78.2 C 195.4 78.2 194.1 79.5 194.1 81.5 C 194.1 83.9 196.6 84.9 197.4 85.2 C 198.1 84.9 200.6 83.9 200.6 81.5 Z M 200.9 91.2 C 200.9 88.5 198.2 87.2 197.4 87 C 196.5 87.2 193.8 88.5 193.8 91.2 C 193.8 93.3 195.4 94.6 197.4 94.6 C 199.3 94.6 200.9 93.3 200.9 91.2 Z M 205.5 93.4 C 205.5 93.4 207.1 92 207.1 92 C 208 93.5 209.5 94.6 211.4 94.6 C 213.8 94.6 215 93.1 215 90.8 C 215 88.1 213.2 87.2 211.2 87.2 C 210.6 87.2 209.9 87.2 209.6 87.2 C 209.6 87.2 209.6 85 209.6 85 C 209.9 85.1 210.6 85.1 211.1 85.1 C 213.1 85.1 214.8 84 214.8 81.7 C 214.8 79.3 213.3 78.2 211.3 78.2 C 209.5 78.2 208.3 79.1 207.3 80.6 C 207.3 80.6 205.8 79.2 205.8 79.2 C 207 77.3 209 76.1 211.5 76.1 C 214.7 76.1 217.1 77.8 217.1 81.4 C 217.1 83.9 215.4 85.6 213.6 86 C 215.3 86.3 217.4 88.1 217.4 91 C 217.4 94.3 215.3 96.7 211.5 96.7 C 208.6 96.7 206.5 95.2 205.5 93.4 Z " stroke="none" fill="#d0d1d4"/>  </g>  <g id="Polygon226266">    <path d="M 138.1 60.4 C 138.1 60.4 138.11 58.43 138.1 58.4 C 144.6 50.9 146.9 48.5 146.9 45.5 C 146.9 43.4 145.4 42.2 143.7 42.2 C 141.8 42.2 140.4 43.1 139.5 44.7 C 139.5 44.7 137.9 43.3 137.9 43.3 C 139.2 41.2 141.2 40.1 143.7 40.1 C 146.8 40.1 149.3 42 149.3 45.5 C 149.3 48.9 146.8 51.9 141.5 58.2 C 141.5 58.25 149.4 58.2 149.4 58.2 L 149.4 60.4 L 138.1 60.4 Z M 152.6 50.4 C 152.6 45.6 154.2 40.1 158.9 40.1 C 163.5 40.1 165.1 45.6 165.1 50.4 C 165.1 55.2 163.5 60.7 158.9 60.7 C 154.2 60.7 152.6 55.2 152.6 50.4 Z M 162.7 50.4 C 162.7 46.4 162 42.2 158.9 42.2 C 155.8 42.2 155.1 46.4 155.1 50.4 C 155.1 54.3 155.8 58.6 158.9 58.6 C 162 58.6 162.7 54.3 162.7 50.4 Z M 168 50.4 C 168 45.6 169.5 40.1 174.2 40.1 C 178.9 40.1 180.5 45.6 180.5 50.4 C 180.5 55.2 178.9 60.7 174.2 60.7 C 169.5 60.7 168 55.2 168 50.4 Z M 178.1 50.4 C 178.1 46.4 177.3 42.2 174.2 42.2 C 171.2 42.2 170.4 46.4 170.4 50.4 C 170.4 54.3 171.1 58.6 174.2 58.6 C 177.3 58.6 178.1 54.3 178.1 50.4 Z M 183.7 59.1 C 183.7 58.2 184.5 57.5 185.3 57.5 C 186.2 57.5 186.9 58.2 186.9 59.1 C 186.9 60 186.2 60.7 185.3 60.7 C 184.5 60.7 183.7 60 183.7 59.1 Z M 190.2 50.4 C 190.2 45.6 191.7 40.1 196.4 40.1 C 201.1 40.1 202.7 45.6 202.7 50.4 C 202.7 55.2 201.1 60.7 196.4 60.7 C 191.7 60.7 190.2 55.2 190.2 50.4 Z M 200.3 50.4 C 200.3 46.4 199.5 42.2 196.4 42.2 C 193.4 42.2 192.6 46.4 192.6 50.4 C 192.6 54.3 193.3 58.6 196.4 58.6 C 199.5 58.6 200.3 54.3 200.3 50.4 Z M 205.7 57.5 C 205.7 57.5 207.3 56 207.3 56 C 208.2 57.7 209.5 58.6 211.5 58.6 C 213.7 58.6 215.1 56.6 215.1 54.3 C 215.1 51.4 213.7 49.8 211.6 49.8 C 210.2 49.8 209.1 50.4 208 51.7 C 208 51.71 206.2 51.1 206.2 51.1 L 206.2 40.4 L 216.4 40.4 L 216.4 42.5 L 208.6 42.5 C 208.6 42.5 208.6 49.49 208.6 49.5 C 209.4 48.5 210.7 47.7 212.3 47.7 C 215.2 47.7 217.5 50 217.5 54.2 C 217.5 58 215 60.7 211.5 60.7 C 208.6 60.7 206.9 59.5 205.7 57.5 Z " stroke="none" fill="#d0d1d4"/>  </g>  <g id="Polygon226265">    <path d="M 143.5 24.4 C 143.5 24.4 143.54 22.43 143.5 22.4 C 150.1 14.9 152.3 12.5 152.3 9.5 C 152.3 7.4 150.8 6.2 149.1 6.2 C 147.2 6.2 145.8 7.1 144.9 8.7 C 144.9 8.7 143.3 7.3 143.3 7.3 C 144.6 5.2 146.6 4.1 149.1 4.1 C 152.2 4.1 154.8 6 154.8 9.5 C 154.8 12.9 152.2 15.9 146.9 22.2 C 146.93 22.25 154.8 22.2 154.8 22.2 L 154.8 24.4 L 143.5 24.4 Z M 159.6 24.4 L 165.9 6.5 L 157.4 6.5 L 157.4 4.4 L 168.5 4.4 L 168.5 6 L 162.1 24.4 L 159.6 24.4 Z M 177.9 24.4 L 177.9 19.2 L 170 19.2 L 170 17.2 L 177.2 4.4 L 180.3 4.4 L 180.3 17.1 L 182.4 17.1 L 182.4 19.2 L 180.3 19.2 L 180.3 24.4 L 177.9 24.4 Z M 177.9 6.9 L 172.2 17.1 L 177.9 17.1 L 177.9 6.9 Z M 185 23.1 C 185 22.2 185.7 21.5 186.6 21.5 C 187.4 21.5 188.2 22.2 188.2 23.1 C 188.2 24 187.4 24.7 186.6 24.7 C 185.7 24.7 185 24 185 23.1 Z M 191.6 24.4 C 191.6 24.4 191.56 22.43 191.6 22.4 C 198.1 14.9 200.4 12.5 200.4 9.5 C 200.4 7.4 198.9 6.2 197.1 6.2 C 195.3 6.2 193.9 7.1 192.9 8.7 C 192.9 8.7 191.4 7.3 191.4 7.3 C 192.7 5.2 194.6 4.1 197.2 4.1 C 200.2 4.1 202.8 6 202.8 9.5 C 202.8 12.9 200.3 15.9 195 22.2 C 194.95 22.25 202.9 22.2 202.9 22.2 L 202.9 24.4 L 191.6 24.4 Z M 205.5 21.4 C 205.5 21.4 207.1 20 207.1 20 C 208 21.5 209.5 22.6 211.4 22.6 C 213.8 22.6 215 21.1 215 18.8 C 215 16.1 213.2 15.2 211.2 15.2 C 210.6 15.2 209.9 15.2 209.6 15.2 C 209.6 15.2 209.6 13 209.6 13 C 209.9 13.1 210.6 13.1 211.1 13.1 C 213.1 13.1 214.8 12 214.8 9.7 C 214.8 7.3 213.3 6.2 211.3 6.2 C 209.5 6.2 208.3 7.1 207.3 8.6 C 207.3 8.6 205.8 7.2 205.8 7.2 C 207 5.3 209 4.1 211.5 4.1 C 214.7 4.1 217.1 5.8 217.1 9.4 C 217.1 11.9 215.4 13.6 213.6 14 C 215.3 14.3 217.4 16.1 217.4 19 C 217.4 22.3 215.3 24.7 211.5 24.7 C 208.6 24.7 206.5 23.2 205.5 21.4 Z " stroke="none" fill="#d0d1d4"/>  </g></svg>