<?xml version="1.0" standalone="no"?><!DOCTYPE svg PUBLIC "-//W3C//DTD SVG 1.1//EN" "http://www.w3.org/Graphics/SVG/1.1/DTD/svg11.dtd"><svg xmlns="http://www.w3.org/2000/svg" version="1.1" width="651px" height="85.6px" viewBox="0 0 651 85.6">  <desc>Chewy Hot Melt Glue</desc>  <defs/>  <g id="Polygon166750">    <path d="M 1.9 27.4 C 1.9 15.5 5.6 6.7 14.4 6.7 C 20.9 6.7 23.2 11.9 24.4 16.1 C 24.4 16.1 18.4 18.4 18.4 18.4 C 17.6 15.3 16.6 13.4 14.4 13.4 C 10.8 13.4 9.6 19.3 9.6 27.4 C 9.6 35.6 10.8 41.4 14.4 41.4 C 16.9 41.4 17.9 38.9 18.5 35.6 C 18.5 35.6 24.5 37.8 24.5 37.8 C 23.4 42.4 21.1 48.1 14.4 48.1 C 5.6 48.1 1.9 39.3 1.9 27.4 Z M 41.4 47.4 C 41.4 47.4 41.4 26.64 41.4 26.6 C 41.4 24.7 40.7 23.7 39.2 23.7 C 37.4 23.7 35.9 25.6 35.3 27.5 C 35.28 27.48 35.3 47.4 35.3 47.4 L 28.5 47.4 L 28.5 7.4 L 35.3 7.4 C 35.3 7.4 35.28 22.2 35.3 22.2 C 36.4 19.9 39.4 17.7 42.1 17.7 C 46.4 17.7 48.2 20.1 48.2 24.2 C 48.24 24.24 48.2 47.4 48.2 47.4 L 41.4 47.4 Z M 52.6 32.9 C 52.6 24.5 56.2 17.7 63.4 17.7 C 70.7 17.7 73.8 24.2 73.8 32.8 C 73.8 32.76 73.8 35.1 73.8 35.1 C 73.8 35.1 59.1 35.1 59.1 35.1 C 59.2 39.4 61 42.6 64.8 42.6 C 66.4 42.6 68.3 41.5 69.6 39.7 C 69.6 39.7 72.9 43.5 72.9 43.5 C 70.6 46.4 67.4 48.1 64.1 48.1 C 56.5 48.1 52.6 41.8 52.6 32.9 Z M 63.2 23.2 C 59.9 23.2 59.1 27.3 59.1 30.4 C 59.1 30.4 67.3 30.4 67.3 30.4 C 67.3 27.1 66.5 23.2 63.2 23.2 Z M 97.6 47.4 L 93.4 27.7 L 89.3 47.4 L 82.1 47.4 L 75.5 18.4 L 82.5 18.4 L 86.2 38.2 L 89.9 18.4 L 96.5 18.4 L 100.6 38.2 L 104.3 18.4 L 111.4 18.4 L 104.6 47.4 L 97.6 47.4 Z M 115 52.9 C 115.4 53 116 53.2 116.4 53.2 C 117.7 53.2 118.4 52.6 118.8 51.1 C 118.8 51.12 119.6 48.1 119.6 48.1 L 111.8 18.4 L 119 18.4 L 123.1 38.8 L 127.3 18.4 L 134.4 18.4 C 134.4 18.4 125.28 52.5 125.3 52.5 C 123.8 57.8 121.5 59.2 117.3 59.2 C 116.3 59.2 114.7 59 114.1 58.7 C 114.1 58.7 115 52.9 115 52.9 Z M 162.6 47.4 L 162.6 30.1 L 154.9 30.1 L 154.9 47.4 L 147.4 47.4 L 147.4 7.4 L 154.9 7.4 L 154.9 23.5 L 162.6 23.5 L 162.6 7.4 L 170.2 7.4 L 170.2 47.4 L 162.6 47.4 Z M 174.9 32.9 C 174.9 24.8 178.2 17.7 185.8 17.7 C 193.4 17.7 196.7 24.8 196.7 32.9 C 196.7 40.9 193.4 48.1 185.8 48.1 C 178.2 48.1 174.9 40.9 174.9 32.9 Z M 189.7 32.9 C 189.7 28 188.8 23.7 185.8 23.7 C 182.8 23.7 181.9 28 181.9 32.9 C 181.9 37.9 182.8 42.1 185.8 42.1 C 188.8 42.1 189.7 37.9 189.7 32.9 Z M 202 40.7 C 201.96 40.74 202 24.3 202 24.3 L 199.3 24.3 L 199.3 18.4 L 202 18.4 L 202 10.5 L 208.7 10.5 L 208.7 18.4 L 212.4 18.4 L 212.4 24.3 L 208.7 24.3 C 208.7 24.3 208.74 39.42 208.7 39.4 C 208.7 41.2 209.2 42.1 210.4 42.1 C 211 42.1 211.6 41.8 212 41.3 C 212 41.3 213.4 46.6 213.4 46.6 C 212.3 47.5 210.7 48.1 208.6 48.1 C 203.9 48.1 202 45.7 202 40.7 Z M 250 47.4 L 250 23.8 L 243.3 47.4 L 240.8 47.4 L 234.2 23.8 L 234.2 47.4 L 226.7 47.4 L 226.7 7.4 L 236.3 7.4 L 242 27.8 L 248 7.4 L 257.4 7.4 L 257.4 47.4 L 250 47.4 Z M 262.1 32.9 C 262.1 24.5 265.7 17.7 273 17.7 C 280.3 17.7 283.4 24.2 283.4 32.8 C 283.38 32.76 283.4 35.1 283.4 35.1 C 283.4 35.1 268.68 35.1 268.7 35.1 C 268.7 39.4 270.5 42.6 274.4 42.6 C 276 42.6 277.9 41.5 279.2 39.7 C 279.2 39.7 282.5 43.5 282.5 43.5 C 280.2 46.4 277 48.1 273.7 48.1 C 266.1 48.1 262.1 41.8 262.1 32.9 Z M 272.8 23.2 C 269.5 23.2 268.7 27.3 268.7 30.4 C 268.7 30.4 276.8 30.4 276.8 30.4 C 276.8 27.1 276.1 23.2 272.8 23.2 Z M 287.5 47.4 L 287.5 7.4 L 294.3 7.4 L 294.3 47.4 L 287.5 47.4 Z M 300.7 40.7 C 300.65 40.74 300.7 24.3 300.7 24.3 L 298 24.3 L 298 18.4 L 300.7 18.4 L 300.7 10.5 L 307.4 10.5 L 307.4 18.4 L 311.1 18.4 L 311.1 24.3 L 307.4 24.3 C 307.4 24.3 307.43 39.42 307.4 39.4 C 307.4 41.2 307.9 42.1 309.1 42.1 C 309.7 42.1 310.3 41.8 310.7 41.3 C 310.7 41.3 312.1 46.6 312.1 46.6 C 311 47.5 309.4 48.1 307.3 48.1 C 302.6 48.1 300.7 45.7 300.7 40.7 Z M 324.1 27.4 C 324.1 15.1 328 6.7 336.7 6.7 C 342.2 6.7 345.4 11 346.7 16.1 C 346.7 16.1 340.7 18.4 340.7 18.4 C 340 15.6 339 13.4 336.7 13.4 C 333.7 13.4 331.9 17.8 331.9 27.4 C 331.9 37 333.7 41.4 336.7 41.4 C 338.3 41.4 339.5 40.7 340.3 39.6 C 340.25 39.6 340.3 32.3 340.3 32.3 L 335.8 32.3 L 335.8 25.7 L 346.9 25.7 C 346.9 25.7 346.91 42.84 346.9 42.8 C 344.3 46.2 341.2 48.1 336.7 48.1 C 328 48.1 324.1 39.7 324.1 27.4 Z M 352.2 47.4 L 352.2 7.4 L 359 7.4 L 359 47.4 L 352.2 47.4 Z M 377.3 47.4 C 377.3 47.4 377.33 43.74 377.3 43.7 C 376.2 46.1 373.4 48.1 370.6 48.1 C 366.2 48.1 364.4 45.7 364.4 41.6 C 364.43 41.58 364.4 18.4 364.4 18.4 L 371.2 18.4 C 371.2 18.4 371.21 39.18 371.2 39.2 C 371.2 41.2 371.9 42.1 373.4 42.1 C 375.2 42.1 376.7 40.3 377.3 38.5 C 377.33 38.46 377.3 18.4 377.3 18.4 L 384.2 18.4 L 384.2 47.4 L 377.3 47.4 Z M 388.5 32.9 C 388.5 24.5 392.1 17.7 399.4 17.7 C 406.7 17.7 409.7 24.2 409.7 32.8 C 409.73 32.76 409.7 35.1 409.7 35.1 C 409.7 35.1 395.03 35.1 395 35.1 C 395.1 39.4 396.9 42.6 400.7 42.6 C 402.4 42.6 404.2 41.5 405.5 39.7 C 405.5 39.7 408.8 43.5 408.8 43.5 C 406.6 46.4 403.3 48.1 400 48.1 C 392.5 48.1 388.5 41.8 388.5 32.9 Z M 399.2 23.2 C 395.9 23.2 395 27.3 395 30.4 C 395 30.4 403.2 30.4 403.2 30.4 C 403.2 27.1 402.5 23.2 399.2 23.2 Z " stroke="none" fill="#b13d24"/>  </g></svg>