<?xml version="1.0" standalone="no"?><!DOCTYPE svg PUBLIC "-//W3C//DTD SVG 1.1//EN" "http://www.w3.org/Graphics/SVG/1.1/DTD/svg11.dtd"><svg xmlns="http://www.w3.org/2000/svg" version="1.1" width="219px" height="332.3px" viewBox="0 0 219 332.3">  <desc>35 ml 10 ml 1 tbsp 2 g 6 drops tsp 5 ml to taste</desc>  <defs/>  <g id="Polygon158492">    <path d="M 2.4 281.8 C 2.4 281.79 2.4 272.1 2.4 272.1 L 0.5 272.1 L 0.5 270.2 L 2.4 270.2 L 2.4 266.3 L 4.6 266.3 L 4.6 270.2 L 7 270.2 L 7 272.1 L 4.6 272.1 C 4.6 272.1 4.56 281.4 4.6 281.4 C 4.6 282.5 4.9 283.1 5.7 283.1 C 6.3 283.1 6.7 282.9 7 282.6 C 7 282.6 7.6 284.2 7.6 284.2 C 7.1 284.7 6.4 285.1 5.3 285.1 C 3.3 285.1 2.4 284 2.4 281.8 Z M 9.1 277.4 C 9.1 273.4 11.2 269.9 15 269.9 C 18.9 269.9 20.9 273.4 20.9 277.4 C 20.9 281.5 18.9 285.1 15 285.1 C 11.2 285.1 9.1 281.5 9.1 277.4 Z M 18.7 277.4 C 18.7 274.5 17.6 271.8 15 271.8 C 12.5 271.8 11.4 274.5 11.4 277.4 C 11.4 280.4 12.5 283.1 15 283.1 C 17.6 283.1 18.7 280.4 18.7 277.4 Z M 31 281.8 C 31.05 281.79 31 272.1 31 272.1 L 29.1 272.1 L 29.1 270.2 L 31 270.2 L 31 266.3 L 33.2 266.3 L 33.2 270.2 L 35.7 270.2 L 35.7 272.1 L 33.2 272.1 C 33.2 272.1 33.21 281.4 33.2 281.4 C 33.2 282.5 33.5 283.1 34.4 283.1 C 34.9 283.1 35.4 282.9 35.6 282.6 C 35.6 282.6 36.3 284.2 36.3 284.2 C 35.8 284.7 35.1 285.1 34 285.1 C 32 285.1 31 284 31 281.8 Z M 46 284.7 C 46 284.7 45.96 283.14 46 283.1 C 45 284.5 43.6 285.1 42.1 285.1 C 39.8 285.1 37.8 283.3 37.8 280.2 C 37.8 277.2 39.8 275.5 42.1 275.5 C 43.6 275.5 45.1 276 46 277.3 C 46 277.3 46 274.8 46 274.8 C 46 272.8 44.9 271.7 43 271.7 C 41.6 271.7 40.5 272.2 39.4 273.5 C 39.4 273.5 38.4 272 38.4 272 C 39.8 270.5 41.5 269.9 43.3 269.9 C 46.2 269.9 48.1 271.3 48.1 274.6 C 48.12 274.56 48.1 284.7 48.1 284.7 L 46 284.7 Z M 46 281.7 C 46 281.7 46 278.9 46 278.9 C 45.3 277.7 44.1 277.1 42.8 277.1 C 41 277.1 40 278.5 40 280.3 C 40 282.1 41 283.5 42.8 283.5 C 44.1 283.5 45.3 282.9 46 281.7 Z M 50.9 283 C 50.9 283 52 281.5 52 281.5 C 52.8 282.5 54.2 283.3 55.7 283.3 C 57.4 283.3 58.5 282.4 58.5 281 C 58.5 277.6 51.3 278.8 51.3 273.8 C 51.3 271.6 53 269.9 55.9 269.9 C 57.8 269.9 59.3 270.6 60.3 271.7 C 60.3 271.7 59.3 273.2 59.3 273.2 C 58.6 272.2 57.4 271.6 55.9 271.6 C 54.4 271.6 53.4 272.5 53.4 273.7 C 53.4 276.8 60.6 275.7 60.6 280.9 C 60.6 283.3 58.7 285.1 55.8 285.1 C 53.7 285.1 52.1 284.4 50.9 283 Z M 64.1 281.8 C 64.08 281.79 64.1 272.1 64.1 272.1 L 62.2 272.1 L 62.2 270.2 L 64.1 270.2 L 64.1 266.3 L 66.2 266.3 L 66.2 270.2 L 68.7 270.2 L 68.7 272.1 L 66.2 272.1 C 66.2 272.1 66.24 281.4 66.2 281.4 C 66.2 282.5 66.6 283.1 67.4 283.1 C 67.9 283.1 68.4 282.9 68.7 282.6 C 68.7 282.6 69.3 284.2 69.3 284.2 C 68.8 284.7 68.1 285.1 67 285.1 C 65 285.1 64.1 284 64.1 281.8 Z M 70.8 277.4 C 70.8 273.2 73 269.9 76.7 269.9 C 80.5 269.9 82.4 273.3 82.4 277.5 C 82.44 277.5 82.4 278.2 82.4 278.2 C 82.4 278.2 73.05 278.16 73 278.2 C 73.1 281.1 74.6 283.3 77.2 283.3 C 78.5 283.3 79.8 282.6 80.7 281.5 C 80.7 281.5 81.8 282.8 81.8 282.8 C 80.6 284.2 79 285.1 77 285.1 C 73.2 285.1 70.8 281.9 70.8 277.4 Z M 76.7 271.7 C 74.1 271.7 73.1 274.4 73 276.6 C 73 276.6 80.3 276.6 80.3 276.6 C 80.3 274.4 79.3 271.7 76.7 271.7 Z " stroke="none" fill="#d0d1d4"/>  </g>  <g id="Polygon158491">    <path d="M 1.6 245.8 C 1.6 245.8 3.1 244.4 3.1 244.4 C 4.1 246 5.4 246.9 7.4 246.9 C 9.6 246.9 10.9 244.9 10.9 242.6 C 10.9 239.7 9.6 238.2 7.5 238.2 C 6.1 238.2 5 238.7 3.9 240 C 3.9 240.03 2.1 239.4 2.1 239.4 L 2.1 228.7 L 12.3 228.7 L 12.3 230.8 L 4.5 230.8 C 4.5 230.8 4.5 237.81 4.5 237.8 C 5.3 236.9 6.6 236.1 8.2 236.1 C 11.1 236.1 13.4 238.4 13.4 242.5 C 13.4 246.3 10.9 249.1 7.4 249.1 C 4.5 249.1 2.8 247.8 1.6 245.8 Z M 37.8 248.7 C 37.8 248.7 37.8 238.2 37.8 238.2 C 37.8 236.6 37.2 235.8 35.8 235.8 C 34.5 235.8 33.2 236.9 32.6 238.1 C 32.64 238.08 32.6 248.7 32.6 248.7 L 30.5 248.7 C 30.5 248.7 30.48 238.2 30.5 238.2 C 30.5 236.6 29.8 235.8 28.4 235.8 C 27.1 235.8 25.9 236.9 25.3 238.1 C 25.29 238.08 25.3 248.7 25.3 248.7 L 23.2 248.7 L 23.2 234.2 L 25.3 234.2 C 25.3 234.2 25.29 236.28 25.3 236.3 C 25.9 235.2 27.5 233.9 29.2 233.9 C 31.1 233.9 32.2 234.9 32.5 236.4 C 33.2 235.1 34.9 233.9 36.6 233.9 C 38.7 233.9 40 235 40 237.6 C 39.96 237.63 40 248.7 40 248.7 L 37.8 248.7 Z M 43.9 248.7 L 43.9 228.7 L 46 228.7 L 46 248.7 L 43.9 248.7 Z " stroke="none" fill="#d0d1d4"/>  </g>  <g id="Polygon158490">    <path d="M 3.3 204.7 L 3.3 194.9 L 1.4 196.9 L 0.4 195.9 L 3.5 192.7 L 5.1 192.7 L 5.1 204.7 L 3.3 204.7 Z M 12.7 212.7 C 12.7 212.7 12.66 211.38 12.7 211.4 C 16.9 207.2 18.4 205.7 18.4 203.9 C 18.4 202.6 17.4 202 16.3 202 C 15.1 202 14.1 202.6 13.6 203.5 C 13.6 203.5 12.5 202.4 12.5 202.4 C 13.4 201.2 14.8 200.5 16.4 200.5 C 18.4 200.5 20.1 201.7 20.1 203.9 C 20.1 206 18.4 207.8 15 211.3 C 15 211.26 20.2 211.3 20.2 211.3 L 20.2 212.7 L 12.7 212.7 Z M 5 212.7 L 3.5 212.7 L 14 192.7 L 15.5 192.7 L 5 212.7 Z M 30.1 209.8 C 30.06 209.79 30.1 200.1 30.1 200.1 L 28.1 200.1 L 28.1 198.2 L 30.1 198.2 L 30.1 194.3 L 32.2 194.3 L 32.2 198.2 L 34.7 198.2 L 34.7 200.1 L 32.2 200.1 C 32.2 200.1 32.22 209.4 32.2 209.4 C 32.2 210.5 32.5 211.1 33.4 211.1 C 33.9 211.1 34.4 210.9 34.6 210.6 C 34.6 210.6 35.3 212.2 35.3 212.2 C 34.8 212.7 34.1 213.1 33 213.1 C 31 213.1 30.1 212 30.1 209.8 Z M 36.4 211 C 36.4 211 37.4 209.5 37.4 209.5 C 38.3 210.5 39.7 211.3 41.2 211.3 C 42.9 211.3 44 210.4 44 209 C 44 205.6 36.8 206.8 36.8 201.8 C 36.8 199.6 38.5 197.9 41.4 197.9 C 43.3 197.9 44.8 198.6 45.8 199.7 C 45.8 199.7 44.8 201.2 44.8 201.2 C 44.1 200.2 42.8 199.6 41.4 199.6 C 39.8 199.6 38.8 200.5 38.8 201.7 C 38.8 204.8 46.1 203.7 46.1 208.9 C 46.1 211.3 44.2 213.1 41.2 213.1 C 39.2 213.1 37.6 212.4 36.4 211 Z M 51.3 210.6 C 51.27 210.6 51.3 218.2 51.3 218.2 L 49.1 218.2 L 49.1 198.2 L 51.3 198.2 C 51.3 198.2 51.27 200.28 51.3 200.3 C 52.1 198.8 53.5 197.9 55.1 197.9 C 58.3 197.9 60.3 200.9 60.3 205.4 C 60.3 210 58.3 213.1 55.1 213.1 C 53.6 213.1 52.2 212.2 51.3 210.6 Z M 58 205.4 C 58 202.3 56.9 199.8 54.5 199.8 C 53.2 199.8 51.8 200.9 51.3 202.1 C 51.3 202.1 51.3 208.7 51.3 208.7 C 51.8 210 53.2 211.1 54.5 211.1 C 56.9 211.1 58 208.6 58 205.4 Z M 63.1 211.4 C 63.1 210.5 63.8 209.8 64.7 209.8 C 65.6 209.8 66.3 210.5 66.3 211.4 C 66.3 212.3 65.6 213 64.7 213 C 63.8 213 63.1 212.3 63.1 211.4 Z " stroke="none" fill="#d0d1d4"/>  </g>  <g id="Polygon158489">    <path d="M 1.4 166.7 C 1.4 161.3 3.3 156.4 8.2 156.4 C 10.3 156.4 11.8 157.4 12.8 158.9 C 12.8 158.9 11.5 160.6 11.5 160.6 C 10.8 159.3 9.8 158.5 8.2 158.5 C 5 158.5 3.8 162.7 3.8 166.5 C 3.8 166.8 3.8 166.9 3.8 167.1 C 4.5 165.7 6.2 164.2 8.3 164.2 C 11.2 164.2 13.5 166.3 13.5 170.6 C 13.5 173.9 11.4 177.1 7.7 177.1 C 3 177.1 1.4 172.1 1.4 166.7 Z M 11.1 170.6 C 11.1 167.4 9.5 166.2 7.6 166.2 C 6 166.2 4.6 167.7 3.9 169.3 C 4 171.5 4.8 174.9 7.6 174.9 C 10 174.9 11.1 172.7 11.1 170.6 Z M 31.5 176.7 C 31.5 176.7 31.47 174.63 31.5 174.6 C 30.6 176.1 29.2 177.1 27.7 177.1 C 24.4 177.1 22.5 174 22.5 169.5 C 22.5 165 24.4 161.9 27.7 161.9 C 29.1 161.9 30.6 162.7 31.5 164.3 C 31.47 164.31 31.5 156.7 31.5 156.7 L 33.6 156.7 L 33.6 176.7 L 31.5 176.7 Z M 31.5 172.8 C 31.5 172.8 31.5 166.1 31.5 166.1 C 30.9 164.9 29.6 163.8 28.2 163.8 C 25.8 163.8 24.7 166.3 24.7 169.5 C 24.7 172.6 25.8 175.1 28.2 175.1 C 29.6 175.1 30.9 174.1 31.5 172.8 Z M 37.6 176.7 L 37.6 162.2 L 39.7 162.2 C 39.7 162.2 39.72 164.52 39.7 164.5 C 40.6 163 42.1 161.9 43.8 161.9 C 43.8 161.9 43.8 164.1 43.8 164.1 C 43.6 164.1 43.3 164 43.1 164 C 41.8 164 40.3 165.2 39.7 166.4 C 39.72 166.41 39.7 176.7 39.7 176.7 L 37.6 176.7 Z M 45.6 169.4 C 45.6 165.4 47.6 161.9 51.5 161.9 C 55.4 161.9 57.4 165.4 57.4 169.4 C 57.4 173.5 55.4 177.1 51.5 177.1 C 47.6 177.1 45.6 173.5 45.6 169.4 Z M 55.1 169.4 C 55.1 166.5 54 163.8 51.5 163.8 C 49 163.8 47.8 166.5 47.8 169.4 C 47.8 172.4 49 175.1 51.5 175.1 C 54 175.1 55.1 172.4 55.1 169.4 Z M 62.8 174.6 C 62.76 174.6 62.8 182.2 62.8 182.2 L 60.6 182.2 L 60.6 162.2 L 62.8 162.2 C 62.8 162.2 62.76 164.28 62.8 164.3 C 63.6 162.8 65 161.9 66.6 161.9 C 69.8 161.9 71.8 164.9 71.8 169.4 C 71.8 174 69.8 177.1 66.6 177.1 C 65.1 177.1 63.7 176.2 62.8 174.6 Z M 69.5 169.4 C 69.5 166.3 68.4 163.8 66 163.8 C 64.7 163.8 63.3 164.9 62.8 166.1 C 62.8 166.1 62.8 172.7 62.8 172.7 C 63.3 174 64.7 175.1 66 175.1 C 68.4 175.1 69.5 172.6 69.5 169.4 Z M 73.8 175 C 73.8 175 74.9 173.5 74.9 173.5 C 75.7 174.5 77.1 175.3 78.7 175.3 C 80.3 175.3 81.4 174.4 81.4 173 C 81.4 169.6 74.2 170.8 74.2 165.8 C 74.2 163.6 76 161.9 78.8 161.9 C 80.8 161.9 82.2 162.6 83.2 163.7 C 83.2 163.7 82.2 165.2 82.2 165.2 C 81.5 164.2 80.3 163.6 78.9 163.6 C 77.3 163.6 76.3 164.5 76.3 165.7 C 76.3 168.8 83.5 167.7 83.5 172.9 C 83.5 175.3 81.7 177.1 78.7 177.1 C 76.6 177.1 75 176.4 73.8 175 Z " stroke="none" fill="#d0d1d4"/>  </g>  <g id="Polygon158488">    <path d="M 1.6 140.7 C 1.6 140.7 1.59 138.75 1.6 138.8 C 8.1 131.2 10.4 128.8 10.4 125.9 C 10.4 123.7 8.9 122.5 7.2 122.5 C 5.3 122.5 3.9 123.5 2.9 125 C 2.9 125 1.4 123.6 1.4 123.6 C 2.7 121.6 4.7 120.4 7.2 120.4 C 10.3 120.4 12.8 122.4 12.8 125.9 C 12.8 129.2 10.3 132.2 5 138.6 C 4.98 138.57 12.9 138.6 12.9 138.6 L 12.9 140.7 L 1.6 140.7 Z M 23 144.8 C 23 144.8 24 143.1 24 143.1 C 24.9 144.2 26.2 144.8 27.7 144.8 C 29.7 144.8 31.4 143.6 31.4 140.8 C 31.4 140.8 31.4 138.4 31.4 138.4 C 30.5 139.9 29.1 140.9 27.6 140.9 C 24.3 140.9 22.4 137.9 22.4 133.4 C 22.4 128.9 24.3 125.9 27.6 125.9 C 29 125.9 30.5 126.7 31.4 128.3 C 31.38 128.31 31.4 126.2 31.4 126.2 L 33.5 126.2 C 33.5 126.2 33.54 140.67 33.5 140.7 C 33.5 145.1 30.8 146.6 27.8 146.6 C 25.9 146.6 24.4 146.1 23 144.8 Z M 31.4 136.6 C 31.4 136.6 31.4 130.1 31.4 130.1 C 30.8 128.9 29.5 127.8 28.1 127.8 C 25.7 127.8 24.6 130.3 24.6 133.4 C 24.6 136.5 25.7 139 28.1 139 C 29.5 139 30.8 137.8 31.4 136.6 Z " stroke="none" fill="#d0d1d4"/>  </g>  <g id="Polygon158487">    <path d="M 5 104.7 L 5 87.8 L 1.9 91.1 L 0.4 89.6 L 5.3 84.7 L 7.3 84.7 L 7.3 104.7 L 5 104.7 Z M 18.3 101.8 C 18.3 101.79 18.3 92.1 18.3 92.1 L 16.4 92.1 L 16.4 90.2 L 18.3 90.2 L 18.3 86.3 L 20.5 86.3 L 20.5 90.2 L 22.9 90.2 L 22.9 92.1 L 20.5 92.1 C 20.5 92.1 20.46 101.4 20.5 101.4 C 20.5 102.5 20.8 103.1 21.6 103.1 C 22.2 103.1 22.6 102.9 22.9 102.6 C 22.9 102.6 23.5 104.2 23.5 104.2 C 23 104.7 22.3 105.1 21.2 105.1 C 19.2 105.1 18.3 104 18.3 101.8 Z M 31.2 103.1 C 33.5 103.1 34.6 100.6 34.6 97.5 C 34.6 94.3 33.5 91.8 31.2 91.8 C 29.8 91.8 28.5 92.9 27.9 94.2 C 27.9 94.2 27.9 100.8 27.9 100.8 C 28.5 102.1 29.8 103.1 31.2 103.1 Z M 25.8 104.7 L 25.8 84.7 L 27.9 84.7 C 27.9 84.7 27.9 92.31 27.9 92.3 C 28.8 90.7 30.2 89.9 31.7 89.9 C 35 89.9 36.9 93 36.9 97.5 C 36.9 102 35 105.1 31.7 105.1 C 30.2 105.1 28.7 104.1 27.9 102.6 C 27.9 102.63 27.9 104.7 27.9 104.7 L 25.8 104.7 Z M 39 103 C 39 103 40.1 101.5 40.1 101.5 C 40.9 102.5 42.3 103.3 43.9 103.3 C 45.5 103.3 46.6 102.4 46.6 101 C 46.6 97.6 39.4 98.8 39.4 93.8 C 39.4 91.6 41.2 89.9 44 89.9 C 46 89.9 47.4 90.6 48.4 91.7 C 48.4 91.7 47.4 93.2 47.4 93.2 C 46.7 92.2 45.5 91.6 44.1 91.6 C 42.5 91.6 41.5 92.5 41.5 93.7 C 41.5 96.8 48.7 95.7 48.7 100.9 C 48.7 103.3 46.9 105.1 43.9 105.1 C 41.8 105.1 40.2 104.4 39 103 Z M 53.9 102.6 C 53.91 102.6 53.9 110.2 53.9 110.2 L 51.8 110.2 L 51.8 90.2 L 53.9 90.2 C 53.9 90.2 53.91 92.28 53.9 92.3 C 54.7 90.8 56.2 89.9 57.7 89.9 C 61 89.9 62.9 92.9 62.9 97.4 C 62.9 102 61 105.1 57.7 105.1 C 56.2 105.1 54.8 104.2 53.9 102.6 Z M 60.7 97.4 C 60.7 94.3 59.5 91.8 57.2 91.8 C 55.8 91.8 54.5 92.9 53.9 94.1 C 53.9 94.1 53.9 100.7 53.9 100.7 C 54.5 102 55.8 103.1 57.2 103.1 C 59.5 103.1 60.7 100.6 60.7 97.4 Z M 65.8 103.4 C 65.8 102.5 66.5 101.8 67.3 101.8 C 68.2 101.8 69 102.5 69 103.4 C 69 104.3 68.2 105 67.3 105 C 66.5 105 65.8 104.3 65.8 103.4 Z " stroke="none" fill="#d0d1d4"/>  </g>  <g id="Polygon158486">    <path d="M 5 68.7 L 5 51.8 L 1.9 55.1 L 0.4 53.6 L 5.3 48.7 L 7.3 48.7 L 7.3 68.7 L 5 68.7 Z M 10.9 58.7 C 10.9 53.9 12.4 48.4 17.1 48.4 C 21.8 48.4 23.4 53.9 23.4 58.7 C 23.4 63.5 21.8 69.1 17.1 69.1 C 12.4 69.1 10.9 63.5 10.9 58.7 Z M 21 58.7 C 21 54.8 20.2 50.5 17.1 50.5 C 14.1 50.5 13.3 54.8 13.3 58.7 C 13.3 62.6 14 66.9 17.1 66.9 C 20.2 66.9 21 62.6 21 58.7 Z M 47.9 68.7 C 47.9 68.7 47.88 58.2 47.9 58.2 C 47.9 56.6 47.2 55.8 45.9 55.8 C 44.6 55.8 43.3 56.9 42.7 58.1 C 42.72 58.08 42.7 68.7 42.7 68.7 L 40.6 68.7 C 40.6 68.7 40.56 58.2 40.6 58.2 C 40.6 56.6 39.9 55.8 38.5 55.8 C 37.2 55.8 36 56.9 35.4 58.1 C 35.37 58.08 35.4 68.7 35.4 68.7 L 33.2 68.7 L 33.2 54.2 L 35.4 54.2 C 35.4 54.2 35.37 56.28 35.4 56.3 C 36 55.2 37.6 53.9 39.3 53.9 C 41.2 53.9 42.3 54.9 42.6 56.4 C 43.3 55.1 44.9 53.9 46.7 53.9 C 48.8 53.9 50 55 50 57.6 C 50.04 57.63 50 68.7 50 68.7 L 47.9 68.7 Z M 54 68.7 L 54 48.7 L 56.1 48.7 L 56.1 68.7 L 54 68.7 Z " stroke="none" fill="#d0d1d4"/>  </g>  <g id="Polygon158485">    <path d="M 0.9 29.7 C 0.9 29.7 2.4 28.3 2.4 28.3 C 3.4 29.8 4.8 30.9 6.7 30.9 C 9.1 30.9 10.3 29.4 10.3 27.1 C 10.3 24.4 8.6 23.5 6.5 23.5 C 5.9 23.5 5.2 23.5 4.9 23.5 C 4.9 23.5 4.9 21.4 4.9 21.4 C 5.2 21.4 6 21.4 6.5 21.4 C 8.5 21.4 10.1 20.3 10.1 18 C 10.1 15.7 8.7 14.5 6.7 14.5 C 4.9 14.5 3.6 15.5 2.6 16.9 C 2.6 16.9 1.1 15.5 1.1 15.5 C 2.3 13.6 4.3 12.4 6.8 12.4 C 10.1 12.4 12.5 14.2 12.5 17.7 C 12.5 20.2 10.7 21.9 8.9 22.4 C 10.7 22.6 12.8 24.4 12.8 27.3 C 12.8 30.6 10.6 33.1 6.8 33.1 C 4 33.1 1.9 31.6 0.9 29.7 Z M 15.7 29.8 C 15.7 29.8 17.3 28.4 17.3 28.4 C 18.3 30 19.6 30.9 21.6 30.9 C 23.8 30.9 25.1 28.9 25.1 26.6 C 25.1 23.7 23.8 22.2 21.7 22.2 C 20.3 22.2 19.2 22.7 18.1 24 C 18.09 24.03 16.3 23.4 16.3 23.4 L 16.3 12.7 L 26.5 12.7 L 26.5 14.8 L 18.7 14.8 C 18.7 14.8 18.69 21.81 18.7 21.8 C 19.5 20.9 20.8 20.1 22.4 20.1 C 25.3 20.1 27.6 22.4 27.6 26.5 C 27.6 30.3 25.1 33.1 21.6 33.1 C 18.7 33.1 17 31.8 15.7 29.8 Z M 52 32.7 C 52 32.7 51.99 22.2 52 22.2 C 52 20.6 51.4 19.8 50 19.8 C 48.7 19.8 47.4 20.9 46.8 22.1 C 46.83 22.08 46.8 32.7 46.8 32.7 L 44.7 32.7 C 44.7 32.7 44.67 22.2 44.7 22.2 C 44.7 20.6 44 19.8 42.6 19.8 C 41.3 19.8 40.1 20.9 39.5 22.1 C 39.48 22.08 39.5 32.7 39.5 32.7 L 37.3 32.7 L 37.3 18.2 L 39.5 18.2 C 39.5 18.2 39.48 20.28 39.5 20.3 C 40.1 19.2 41.7 17.9 43.4 17.9 C 45.3 17.9 46.4 18.9 46.7 20.4 C 47.4 19.1 49 17.9 50.8 17.9 C 52.9 17.9 54.1 19 54.1 21.6 C 54.15 21.63 54.1 32.7 54.1 32.7 L 52 32.7 Z M 58.1 32.7 L 58.1 12.7 L 60.2 12.7 L 60.2 32.7 L 58.1 32.7 Z " stroke="none" fill="#d0d1d4"/>  </g></svg>