<?xml version="1.0" standalone="no"?><!DOCTYPE svg PUBLIC "-//W3C//DTD SVG 1.1//EN" "http://www.w3.org/Graphics/SVG/1.1/DTD/svg11.dtd"><svg xmlns="http://www.w3.org/2000/svg" version="1.1" width="219px" height="337.3px" viewBox="0 0 219 337.3">  <desc>175 cm 100 g 4 sticks 50 g 2 sheets 10 cm as needed optional as needed</desc>  <defs/>  <g id="Polygon148162">    <path d="M 9.4 320.7 C 9.4 320.7 9.42 319.14 9.4 319.1 C 8.5 320.5 7.1 321.1 5.6 321.1 C 3.3 321.1 1.2 319.3 1.2 316.2 C 1.2 313.2 3.2 311.5 5.6 311.5 C 7.1 311.5 8.5 312 9.4 313.3 C 9.4 313.3 9.4 310.8 9.4 310.8 C 9.4 308.8 8.3 307.7 6.4 307.7 C 5.1 307.7 3.9 308.2 2.8 309.5 C 2.8 309.5 1.9 308 1.9 308 C 3.2 306.5 4.9 305.9 6.8 305.9 C 9.7 305.9 11.6 307.3 11.6 310.6 C 11.58 310.56 11.6 320.7 11.6 320.7 L 9.4 320.7 Z M 9.4 317.7 C 9.4 317.7 9.4 314.9 9.4 314.9 C 8.8 313.7 7.6 313.1 6.3 313.1 C 4.5 313.1 3.4 314.5 3.4 316.3 C 3.4 318.1 4.5 319.5 6.3 319.5 C 7.6 319.5 8.8 318.9 9.4 317.7 Z M 14.3 319 C 14.3 319 15.4 317.5 15.4 317.5 C 16.3 318.5 17.6 319.3 19.2 319.3 C 20.9 319.3 22 318.4 22 317 C 22 313.6 14.8 314.8 14.8 309.8 C 14.8 307.6 16.5 305.9 19.4 305.9 C 21.3 305.9 22.8 306.6 23.8 307.7 C 23.8 307.7 22.8 309.2 22.8 309.2 C 22 308.2 20.8 307.6 19.4 307.6 C 17.8 307.6 16.8 308.5 16.8 309.7 C 16.8 312.8 24.1 311.7 24.1 316.9 C 24.1 319.3 22.2 321.1 19.2 321.1 C 17.2 321.1 15.5 320.4 14.3 319 Z M 41.4 320.7 C 41.4 320.7 41.4 310.38 41.4 310.4 C 41.4 308.5 40.5 307.8 39.1 307.8 C 37.7 307.8 36.4 308.9 35.7 310.1 C 35.7 310.08 35.7 320.7 35.7 320.7 L 33.6 320.7 L 33.6 306.2 L 35.7 306.2 C 35.7 306.2 35.7 308.28 35.7 308.3 C 36.5 307 38.2 305.9 39.9 305.9 C 42.4 305.9 43.6 307.2 43.6 309.8 C 43.56 309.78 43.6 320.7 43.6 320.7 L 41.4 320.7 Z M 46.8 313.4 C 46.8 309.2 49 305.9 52.7 305.9 C 56.5 305.9 58.4 309.3 58.4 313.5 C 58.41 313.5 58.4 314.2 58.4 314.2 C 58.4 314.2 49.02 314.16 49 314.2 C 49.1 317.1 50.6 319.3 53.2 319.3 C 54.4 319.3 55.7 318.6 56.6 317.5 C 56.6 317.5 57.8 318.8 57.8 318.8 C 56.6 320.2 55 321.1 53 321.1 C 49.1 321.1 46.8 317.9 46.8 313.4 Z M 52.6 307.7 C 50.1 307.7 49.1 310.4 49 312.6 C 49 312.6 56.3 312.6 56.3 312.6 C 56.2 310.4 55.3 307.7 52.6 307.7 Z M 60.8 313.4 C 60.8 309.2 63.1 305.9 66.7 305.9 C 70.5 305.9 72.4 309.3 72.4 313.5 C 72.45 313.5 72.4 314.2 72.4 314.2 C 72.4 314.2 63.06 314.16 63.1 314.2 C 63.1 317.1 64.6 319.3 67.2 319.3 C 68.5 319.3 69.8 318.6 70.7 317.5 C 70.7 317.5 71.8 318.8 71.8 318.8 C 70.6 320.2 69 321.1 67 321.1 C 63.2 321.1 60.8 317.9 60.8 313.4 Z M 66.7 307.7 C 64.1 307.7 63.1 310.4 63.1 312.6 C 63.1 312.6 70.3 312.6 70.3 312.6 C 70.3 310.4 69.3 307.7 66.7 307.7 Z M 83.9 320.7 C 83.9 320.7 83.88 318.63 83.9 318.6 C 83 320.1 81.6 321.1 80.1 321.1 C 76.8 321.1 74.9 318 74.9 313.5 C 74.9 309 76.8 305.9 80.1 305.9 C 81.5 305.9 83 306.7 83.9 308.3 C 83.88 308.31 83.9 300.7 83.9 300.7 L 86 300.7 L 86 320.7 L 83.9 320.7 Z M 83.9 316.8 C 83.9 316.8 83.9 310.1 83.9 310.1 C 83.3 308.9 82 307.8 80.6 307.8 C 78.2 307.8 77.1 310.3 77.1 313.5 C 77.1 316.6 78.2 319.1 80.6 319.1 C 82 319.1 83.3 318.1 83.9 316.8 Z M 89.3 313.4 C 89.3 309.2 91.5 305.9 95.2 305.9 C 99 305.9 100.9 309.3 100.9 313.5 C 100.89 313.5 100.9 314.2 100.9 314.2 C 100.9 314.2 91.5 314.16 91.5 314.2 C 91.6 317.1 93.1 319.3 95.7 319.3 C 96.9 319.3 98.2 318.6 99.1 317.5 C 99.1 317.5 100.3 318.8 100.3 318.8 C 99.1 320.2 97.4 321.1 95.5 321.1 C 91.6 321.1 89.3 317.9 89.3 313.4 Z M 95.1 307.7 C 92.6 307.7 91.6 310.4 91.5 312.6 C 91.5 312.6 98.8 312.6 98.8 312.6 C 98.7 310.4 97.8 307.7 95.1 307.7 Z M 112.3 320.7 C 112.3 320.7 112.32 318.63 112.3 318.6 C 111.5 320.1 110 321.1 108.5 321.1 C 105.3 321.1 103.3 318 103.3 313.5 C 103.3 309 105.2 305.9 108.5 305.9 C 110 305.9 111.4 306.7 112.3 308.3 C 112.32 308.31 112.3 300.7 112.3 300.7 L 114.5 300.7 L 114.5 320.7 L 112.3 320.7 Z M 112.3 316.8 C 112.3 316.8 112.3 310.1 112.3 310.1 C 111.8 308.9 110.4 307.8 109 307.8 C 106.7 307.8 105.6 310.3 105.6 313.5 C 105.6 316.6 106.7 319.1 109 319.1 C 110.4 319.1 111.8 318.1 112.3 316.8 Z " stroke="none" fill="#d0d1d4"/>  </g>  <g id="Polygon148161">    <path d="M 1.3 277.4 C 1.3 273.4 3.3 269.9 7.1 269.9 C 11 269.9 13 273.4 13 277.4 C 13 281.5 11 285.1 7.1 285.1 C 3.3 285.1 1.3 281.5 1.3 277.4 Z M 10.8 277.4 C 10.8 274.5 9.7 271.8 7.1 271.8 C 4.7 271.8 3.5 274.5 3.5 277.4 C 3.5 280.4 4.7 283.1 7.1 283.1 C 9.7 283.1 10.8 280.4 10.8 277.4 Z M 18.4 282.6 C 18.42 282.6 18.4 290.2 18.4 290.2 L 16.3 290.2 L 16.3 270.2 L 18.4 270.2 C 18.4 270.2 18.42 272.28 18.4 272.3 C 19.3 270.8 20.7 269.9 22.2 269.9 C 25.5 269.9 27.4 272.9 27.4 277.4 C 27.4 282 25.5 285.1 22.2 285.1 C 20.8 285.1 19.3 284.2 18.4 282.6 Z M 25.2 277.4 C 25.2 274.3 24.1 271.8 21.7 271.8 C 20.3 271.8 19 272.9 18.4 274.1 C 18.4 274.1 18.4 280.7 18.4 280.7 C 19 282 20.3 283.1 21.7 283.1 C 24.1 283.1 25.2 280.6 25.2 277.4 Z M 31 281.8 C 31.05 281.79 31 272.1 31 272.1 L 29.1 272.1 L 29.1 270.2 L 31 270.2 L 31 266.3 L 33.2 266.3 L 33.2 270.2 L 35.7 270.2 L 35.7 272.1 L 33.2 272.1 C 33.2 272.1 33.21 281.4 33.2 281.4 C 33.2 282.5 33.5 283.1 34.4 283.1 C 34.9 283.1 35.4 282.9 35.6 282.6 C 35.6 282.6 36.3 284.2 36.3 284.2 C 35.8 284.7 35.1 285.1 34 285.1 C 32 285.1 31 284 31 281.8 Z M 38.1 266.6 C 38.1 265.8 38.8 265.2 39.6 265.2 C 40.4 265.2 41 265.8 41 266.6 C 41 267.5 40.4 268.1 39.6 268.1 C 38.8 268.1 38.1 267.5 38.1 266.6 Z M 38.5 284.7 L 38.5 270.2 L 40.6 270.2 L 40.6 284.7 L 38.5 284.7 Z M 43.9 277.4 C 43.9 273.4 45.9 269.9 49.8 269.9 C 53.7 269.9 55.7 273.4 55.7 277.4 C 55.7 281.5 53.7 285.1 49.8 285.1 C 45.9 285.1 43.9 281.5 43.9 277.4 Z M 53.4 277.4 C 53.4 274.5 52.3 271.8 49.8 271.8 C 47.3 271.8 46.1 274.5 46.1 277.4 C 46.1 280.4 47.3 283.1 49.8 283.1 C 52.3 283.1 53.4 280.4 53.4 277.4 Z M 66.7 284.7 C 66.7 284.7 66.75 274.38 66.7 274.4 C 66.7 272.5 65.9 271.8 64.4 271.8 C 63 271.8 61.7 272.9 61 274.1 C 61.05 274.08 61 284.7 61 284.7 L 58.9 284.7 L 58.9 270.2 L 61 270.2 C 61 270.2 61.05 272.28 61 272.3 C 61.9 271 63.5 269.9 65.2 269.9 C 67.7 269.9 68.9 271.2 68.9 273.8 C 68.91 273.78 68.9 284.7 68.9 284.7 L 66.7 284.7 Z M 80.3 284.7 C 80.3 284.7 80.31 283.14 80.3 283.1 C 79.4 284.5 78 285.1 76.5 285.1 C 74.2 285.1 72.1 283.3 72.1 280.2 C 72.1 277.2 74.1 275.5 76.5 275.5 C 78 275.5 79.4 276 80.3 277.3 C 80.3 277.3 80.3 274.8 80.3 274.8 C 80.3 272.8 79.2 271.7 77.3 271.7 C 76 271.7 74.8 272.2 73.7 273.5 C 73.7 273.5 72.7 272 72.7 272 C 74.1 270.5 75.8 269.9 77.7 269.9 C 80.5 269.9 82.5 271.3 82.5 274.6 C 82.47 274.56 82.5 284.7 82.5 284.7 L 80.3 284.7 Z M 80.3 281.7 C 80.3 281.7 80.3 278.9 80.3 278.9 C 79.6 277.7 78.4 277.1 77.2 277.1 C 75.4 277.1 74.3 278.5 74.3 280.3 C 74.3 282.1 75.4 283.5 77.2 283.5 C 78.4 283.5 79.6 282.9 80.3 281.7 Z M 86.4 284.7 L 86.4 264.7 L 88.5 264.7 L 88.5 284.7 L 86.4 284.7 Z " stroke="none" fill="#d0d1d4"/>  </g>  <g id="Polygon148160">    <path d="M 9.4 248.7 C 9.4 248.7 9.42 247.14 9.4 247.1 C 8.5 248.5 7.1 249.1 5.6 249.1 C 3.3 249.1 1.2 247.3 1.2 244.2 C 1.2 241.2 3.2 239.5 5.6 239.5 C 7.1 239.5 8.5 240 9.4 241.3 C 9.4 241.3 9.4 238.8 9.4 238.8 C 9.4 236.8 8.3 235.7 6.4 235.7 C 5.1 235.7 3.9 236.2 2.8 237.5 C 2.8 237.5 1.9 236 1.9 236 C 3.2 234.5 4.9 233.9 6.8 233.9 C 9.7 233.9 11.6 235.3 11.6 238.6 C 11.58 238.56 11.6 248.7 11.6 248.7 L 9.4 248.7 Z M 9.4 245.7 C 9.4 245.7 9.4 242.9 9.4 242.9 C 8.8 241.7 7.6 241.1 6.3 241.1 C 4.5 241.1 3.4 242.5 3.4 244.3 C 3.4 246.1 4.5 247.5 6.3 247.5 C 7.6 247.5 8.8 246.9 9.4 245.7 Z M 14.3 247 C 14.3 247 15.4 245.5 15.4 245.5 C 16.3 246.5 17.6 247.3 19.2 247.3 C 20.9 247.3 22 246.4 22 245 C 22 241.6 14.8 242.8 14.8 237.8 C 14.8 235.6 16.5 233.9 19.4 233.9 C 21.3 233.9 22.8 234.6 23.8 235.7 C 23.8 235.7 22.8 237.2 22.8 237.2 C 22 236.2 20.8 235.6 19.4 235.6 C 17.8 235.6 16.8 236.5 16.8 237.7 C 16.8 240.8 24.1 239.7 24.1 244.9 C 24.1 247.3 22.2 249.1 19.2 249.1 C 17.2 249.1 15.5 248.4 14.3 247 Z M 41.4 248.7 C 41.4 248.7 41.4 238.38 41.4 238.4 C 41.4 236.5 40.5 235.8 39.1 235.8 C 37.7 235.8 36.4 236.9 35.7 238.1 C 35.7 238.08 35.7 248.7 35.7 248.7 L 33.6 248.7 L 33.6 234.2 L 35.7 234.2 C 35.7 234.2 35.7 236.28 35.7 236.3 C 36.5 235 38.2 233.9 39.9 233.9 C 42.4 233.9 43.6 235.2 43.6 237.8 C 43.56 237.78 43.6 248.7 43.6 248.7 L 41.4 248.7 Z M 46.8 241.4 C 46.8 237.2 49 233.9 52.7 233.9 C 56.5 233.9 58.4 237.3 58.4 241.5 C 58.41 241.5 58.4 242.2 58.4 242.2 C 58.4 242.2 49.02 242.16 49 242.2 C 49.1 245.1 50.6 247.3 53.2 247.3 C 54.4 247.3 55.7 246.6 56.6 245.5 C 56.6 245.5 57.8 246.8 57.8 246.8 C 56.6 248.2 55 249.1 53 249.1 C 49.1 249.1 46.8 245.9 46.8 241.4 Z M 52.6 235.7 C 50.1 235.7 49.1 238.4 49 240.6 C 49 240.6 56.3 240.6 56.3 240.6 C 56.2 238.4 55.3 235.7 52.6 235.7 Z M 60.8 241.4 C 60.8 237.2 63.1 233.9 66.7 233.9 C 70.5 233.9 72.4 237.3 72.4 241.5 C 72.45 241.5 72.4 242.2 72.4 242.2 C 72.4 242.2 63.06 242.16 63.1 242.2 C 63.1 245.1 64.6 247.3 67.2 247.3 C 68.5 247.3 69.8 246.6 70.7 245.5 C 70.7 245.5 71.8 246.8 71.8 246.8 C 70.6 248.2 69 249.1 67 249.1 C 63.2 249.1 60.8 245.9 60.8 241.4 Z M 66.7 235.7 C 64.1 235.7 63.1 238.4 63.1 240.6 C 63.1 240.6 70.3 240.6 70.3 240.6 C 70.3 238.4 69.3 235.7 66.7 235.7 Z M 83.9 248.7 C 83.9 248.7 83.88 246.63 83.9 246.6 C 83 248.1 81.6 249.1 80.1 249.1 C 76.8 249.1 74.9 246 74.9 241.5 C 74.9 237 76.8 233.9 80.1 233.9 C 81.5 233.9 83 234.7 83.9 236.3 C 83.88 236.31 83.9 228.7 83.9 228.7 L 86 228.7 L 86 248.7 L 83.9 248.7 Z M 83.9 244.8 C 83.9 244.8 83.9 238.1 83.9 238.1 C 83.3 236.9 82 235.8 80.6 235.8 C 78.2 235.8 77.1 238.3 77.1 241.5 C 77.1 244.6 78.2 247.1 80.6 247.1 C 82 247.1 83.3 246.1 83.9 244.8 Z M 89.3 241.4 C 89.3 237.2 91.5 233.9 95.2 233.9 C 99 233.9 100.9 237.3 100.9 241.5 C 100.89 241.5 100.9 242.2 100.9 242.2 C 100.9 242.2 91.5 242.16 91.5 242.2 C 91.6 245.1 93.1 247.3 95.7 247.3 C 96.9 247.3 98.2 246.6 99.1 245.5 C 99.1 245.5 100.3 246.8 100.3 246.8 C 99.1 248.2 97.4 249.1 95.5 249.1 C 91.6 249.1 89.3 245.9 89.3 241.4 Z M 95.1 235.7 C 92.6 235.7 91.6 238.4 91.5 240.6 C 91.5 240.6 98.8 240.6 98.8 240.6 C 98.7 238.4 97.8 235.7 95.1 235.7 Z M 112.3 248.7 C 112.3 248.7 112.32 246.63 112.3 246.6 C 111.5 248.1 110 249.1 108.5 249.1 C 105.3 249.1 103.3 246 103.3 241.5 C 103.3 237 105.2 233.9 108.5 233.9 C 110 233.9 111.4 234.7 112.3 236.3 C 112.32 236.31 112.3 228.7 112.3 228.7 L 114.5 228.7 L 114.5 248.7 L 112.3 248.7 Z M 112.3 244.8 C 112.3 244.8 112.3 238.1 112.3 238.1 C 111.8 236.9 110.4 235.8 109 235.8 C 106.7 235.8 105.6 238.3 105.6 241.5 C 105.6 244.6 106.7 247.1 109 247.1 C 110.4 247.1 111.8 246.1 112.3 244.8 Z " stroke="none" fill="#d0d1d4"/>  </g>  <g id="Polygon148159">    <path d="M 7.4 203.2 L 7.4 208.7 L 5.8 208.7 L 5.8 203.2 L 0.9 203.2 L 0.9 201.6 L 5.8 201.6 L 5.8 196.3 L 7.4 196.3 L 7.4 201.6 L 12.3 201.6 L 12.3 203.2 L 7.4 203.2 Z M 0.9 212 L 0.9 210.5 L 12.3 210.5 L 12.3 212 L 0.9 212 Z M 24.6 212.7 L 24.6 195.8 L 21.5 199.1 L 20.1 197.6 L 24.9 192.7 L 27 192.7 L 27 212.7 L 24.6 212.7 Z M 30.5 202.7 C 30.5 197.9 32.1 192.4 36.7 192.4 C 41.4 192.4 43 197.9 43 202.7 C 43 207.5 41.4 213.1 36.7 213.1 C 32.1 213.1 30.5 207.5 30.5 202.7 Z M 40.6 202.7 C 40.6 198.8 39.8 194.5 36.7 194.5 C 33.7 194.5 32.9 198.8 32.9 202.7 C 32.9 206.6 33.7 210.9 36.7 210.9 C 39.8 210.9 40.6 206.6 40.6 202.7 Z M 52.1 205.4 C 52.1 201.2 54.4 197.9 58.1 197.9 C 60.1 197.9 61.4 198.7 62.3 199.8 C 62.3 199.8 61.1 201.2 61.1 201.2 C 60.3 200.2 59.4 199.8 58.3 199.8 C 55.7 199.8 54.4 202.4 54.4 205.4 C 54.4 208.5 55.7 211.1 58.3 211.1 C 59.4 211.1 60.3 210.7 61.1 209.7 C 61.1 209.7 62.3 211.1 62.3 211.1 C 61.4 212.3 60.1 213.1 58.1 213.1 C 54.4 213.1 52.1 209.7 52.1 205.4 Z M 79.7 212.7 C 79.7 212.7 79.68 202.2 79.7 202.2 C 79.7 200.6 79 199.8 77.7 199.8 C 76.4 199.8 75.1 200.9 74.5 202.1 C 74.52 202.08 74.5 212.7 74.5 212.7 L 72.4 212.7 C 72.4 212.7 72.36 202.2 72.4 202.2 C 72.4 200.6 71.7 199.8 70.3 199.8 C 69 199.8 67.8 200.9 67.2 202.1 C 67.17 202.08 67.2 212.7 67.2 212.7 L 65 212.7 L 65 198.2 L 67.2 198.2 C 67.2 198.2 67.17 200.28 67.2 200.3 C 67.8 199.2 69.4 197.9 71.1 197.9 C 73 197.9 74.1 198.9 74.4 200.4 C 75.1 199.1 76.7 197.9 78.5 197.9 C 80.6 197.9 81.8 199 81.8 201.6 C 81.84 201.63 81.8 212.7 81.8 212.7 L 79.7 212.7 Z " stroke="none" fill="#d0d1d4"/>  </g>  <g id="Polygon148158">    <path d="M 1.6 176.7 C 1.6 176.7 1.59 174.75 1.6 174.8 C 8.1 167.2 10.4 164.8 10.4 161.9 C 10.4 159.7 8.9 158.5 7.2 158.5 C 5.3 158.5 3.9 159.5 2.9 161 C 2.9 161 1.4 159.6 1.4 159.6 C 2.7 157.6 4.7 156.4 7.2 156.4 C 10.3 156.4 12.8 158.4 12.8 161.9 C 12.8 165.2 10.3 168.2 5 174.6 C 4.98 174.57 12.9 174.6 12.9 174.6 L 12.9 176.7 L 1.6 176.7 Z M 21.9 175 C 21.9 175 23 173.5 23 173.5 C 23.8 174.5 25.2 175.3 26.8 175.3 C 28.5 175.3 29.6 174.4 29.6 173 C 29.6 169.6 22.3 170.8 22.3 165.8 C 22.3 163.6 24.1 161.9 27 161.9 C 28.9 161.9 30.4 162.6 31.4 163.7 C 31.4 163.7 30.4 165.2 30.4 165.2 C 29.6 164.2 28.4 163.6 27 163.6 C 25.4 163.6 24.4 164.5 24.4 165.7 C 24.4 168.8 31.6 167.7 31.6 172.9 C 31.6 175.3 29.8 177.1 26.8 177.1 C 24.8 177.1 23.1 176.4 21.9 175 Z M 42.6 176.7 C 42.6 176.7 42.57 166.35 42.6 166.4 C 42.6 164.4 41.7 163.8 40.2 163.8 C 38.8 163.8 37.5 164.9 36.8 166.1 C 36.84 166.08 36.8 176.7 36.8 176.7 L 34.7 176.7 L 34.7 156.7 L 36.8 156.7 C 36.8 156.7 36.84 164.28 36.8 164.3 C 37.7 163 39.3 161.9 41.1 161.9 C 43.5 161.9 44.7 163.1 44.7 165.7 C 44.7 165.72 44.7 176.7 44.7 176.7 L 42.6 176.7 Z M 47.9 169.4 C 47.9 165.2 50.2 161.9 53.8 161.9 C 57.6 161.9 59.5 165.3 59.5 169.5 C 59.55 169.5 59.5 170.2 59.5 170.2 C 59.5 170.2 50.16 170.16 50.2 170.2 C 50.2 173.1 51.7 175.3 54.3 175.3 C 55.6 175.3 56.9 174.6 57.8 173.5 C 57.8 173.5 58.9 174.8 58.9 174.8 C 57.7 176.2 56.1 177.1 54.1 177.1 C 50.3 177.1 47.9 173.9 47.9 169.4 Z M 53.8 163.7 C 51.2 163.7 50.2 166.4 50.2 168.6 C 50.2 168.6 57.4 168.6 57.4 168.6 C 57.4 166.4 56.4 163.7 53.8 163.7 Z M 62 169.4 C 62 165.2 64.2 161.9 67.9 161.9 C 71.7 161.9 73.6 165.3 73.6 169.5 C 73.59 169.5 73.6 170.2 73.6 170.2 C 73.6 170.2 64.2 170.16 64.2 170.2 C 64.3 173.1 65.8 175.3 68.4 175.3 C 69.6 175.3 70.9 174.6 71.8 173.5 C 71.8 173.5 73 174.8 73 174.8 C 71.8 176.2 70.1 177.1 68.2 177.1 C 64.3 177.1 62 173.9 62 169.4 Z M 67.8 163.7 C 65.3 163.7 64.3 166.4 64.2 168.6 C 64.2 168.6 71.5 168.6 71.5 168.6 C 71.4 166.4 70.5 163.7 67.8 163.7 Z M 77.2 173.8 C 77.16 173.79 77.2 164.1 77.2 164.1 L 75.2 164.1 L 75.2 162.2 L 77.2 162.2 L 77.2 158.3 L 79.3 158.3 L 79.3 162.2 L 81.8 162.2 L 81.8 164.1 L 79.3 164.1 C 79.3 164.1 79.32 173.4 79.3 173.4 C 79.3 174.5 79.6 175.1 80.5 175.1 C 81 175.1 81.5 174.9 81.7 174.6 C 81.7 174.6 82.4 176.2 82.4 176.2 C 81.9 176.7 81.2 177.1 80.1 177.1 C 78.1 177.1 77.2 176 77.2 173.8 Z M 83.5 175 C 83.5 175 84.5 173.5 84.5 173.5 C 85.4 174.5 86.8 175.3 88.3 175.3 C 90 175.3 91.1 174.4 91.1 173 C 91.1 169.6 83.9 170.8 83.9 165.8 C 83.9 163.6 85.6 161.9 88.5 161.9 C 90.4 161.9 91.9 162.6 92.9 163.7 C 92.9 163.7 91.9 165.2 91.9 165.2 C 91.2 164.2 89.9 163.6 88.5 163.6 C 86.9 163.6 85.9 164.5 85.9 165.7 C 85.9 168.8 93.2 167.7 93.2 172.9 C 93.2 175.3 91.3 177.1 88.3 177.1 C 86.3 177.1 84.7 176.4 83.5 175 Z " stroke="none" fill="#d0d1d4"/>  </g>  <g id="Polygon148157">    <path d="M 1.6 137.8 C 1.6 137.8 3.1 136.4 3.1 136.4 C 4.1 138 5.4 138.9 7.4 138.9 C 9.6 138.9 10.9 136.9 10.9 134.6 C 10.9 131.7 9.6 130.2 7.5 130.2 C 6.1 130.2 5 130.7 3.9 132 C 3.9 132.03 2.1 131.4 2.1 131.4 L 2.1 120.7 L 12.3 120.7 L 12.3 122.8 L 4.5 122.8 C 4.5 122.8 4.5 129.81 4.5 129.8 C 5.3 128.9 6.6 128.1 8.2 128.1 C 11.1 128.1 13.4 130.4 13.4 134.5 C 13.4 138.3 10.9 141.1 7.4 141.1 C 4.5 141.1 2.8 139.8 1.6 137.8 Z M 16.1 130.7 C 16.1 125.9 17.7 120.4 22.4 120.4 C 27.1 120.4 28.7 125.9 28.7 130.7 C 28.7 135.5 27.1 141.1 22.4 141.1 C 17.7 141.1 16.1 135.5 16.1 130.7 Z M 26.2 130.7 C 26.2 126.8 25.5 122.5 22.4 122.5 C 19.3 122.5 18.6 126.8 18.6 130.7 C 18.6 134.6 19.3 138.9 22.4 138.9 C 25.5 138.9 26.2 134.6 26.2 130.7 Z M 38.4 144.8 C 38.4 144.8 39.4 143.1 39.4 143.1 C 40.3 144.2 41.6 144.8 43.2 144.8 C 45.1 144.8 46.8 143.6 46.8 140.8 C 46.8 140.8 46.8 138.4 46.8 138.4 C 46 139.9 44.5 140.9 43 140.9 C 39.7 140.9 37.8 137.9 37.8 133.4 C 37.8 128.9 39.7 125.9 43 125.9 C 44.5 125.9 45.9 126.7 46.8 128.3 C 46.8 128.31 46.8 126.2 46.8 126.2 L 49 126.2 C 49 126.2 48.96 140.67 49 140.7 C 49 145.1 46.3 146.6 43.2 146.6 C 41.3 146.6 39.8 146.1 38.4 144.8 Z M 46.8 136.6 C 46.8 136.6 46.8 130.1 46.8 130.1 C 46.3 128.9 44.9 127.8 43.5 127.8 C 41.2 127.8 40 130.3 40 133.4 C 40 136.5 41.2 139 43.5 139 C 44.9 139 46.3 137.8 46.8 136.6 Z " stroke="none" fill="#d0d1d4"/>  </g>  <g id="Polygon148156">    <path d="M 8.6 104.7 L 8.6 99.6 L 0.7 99.6 L 0.7 97.5 L 7.9 84.7 L 11 84.7 L 11 97.5 L 13.2 97.5 L 13.2 99.6 L 11 99.6 L 11 104.7 L 8.6 104.7 Z M 8.6 87.3 L 2.9 97.5 L 8.6 97.5 L 8.6 87.3 Z M 21.1 103 C 21.1 103 22.2 101.5 22.2 101.5 C 23 102.5 24.4 103.3 26 103.3 C 27.7 103.3 28.8 102.4 28.8 101 C 28.8 97.6 21.5 98.8 21.5 93.8 C 21.5 91.6 23.3 89.9 26.2 89.9 C 28.1 89.9 29.5 90.6 30.6 91.7 C 30.6 91.7 29.5 93.2 29.5 93.2 C 28.8 92.2 27.6 91.6 26.2 91.6 C 24.6 91.6 23.6 92.5 23.6 93.7 C 23.6 96.8 30.8 95.7 30.8 100.9 C 30.8 103.3 29 105.1 26 105.1 C 24 105.1 22.3 104.4 21.1 103 Z M 34.3 101.8 C 34.32 101.79 34.3 92.1 34.3 92.1 L 32.4 92.1 L 32.4 90.2 L 34.3 90.2 L 34.3 86.3 L 36.5 86.3 L 36.5 90.2 L 38.9 90.2 L 38.9 92.1 L 36.5 92.1 C 36.5 92.1 36.48 101.4 36.5 101.4 C 36.5 102.5 36.8 103.1 37.6 103.1 C 38.2 103.1 38.6 102.9 38.9 102.6 C 38.9 102.6 39.6 104.2 39.6 104.2 C 39.1 104.7 38.3 105.1 37.2 105.1 C 35.2 105.1 34.3 104 34.3 101.8 Z M 41.4 86.6 C 41.4 85.8 42.1 85.2 42.8 85.2 C 43.6 85.2 44.3 85.8 44.3 86.6 C 44.3 87.5 43.6 88.1 42.8 88.1 C 42.1 88.1 41.4 87.5 41.4 86.6 Z M 41.8 104.7 L 41.8 90.2 L 43.9 90.2 L 43.9 104.7 L 41.8 104.7 Z M 47.2 97.4 C 47.2 93.2 49.4 89.9 53.2 89.9 C 55.2 89.9 56.4 90.7 57.3 91.8 C 57.3 91.8 56.1 93.2 56.1 93.2 C 55.3 92.2 54.4 91.8 53.3 91.8 C 50.8 91.8 49.4 94.4 49.4 97.4 C 49.4 100.5 50.8 103.1 53.3 103.1 C 54.4 103.1 55.3 102.7 56.1 101.7 C 56.1 101.7 57.3 103.1 57.3 103.1 C 56.4 104.3 55.2 105.1 53.2 105.1 C 49.4 105.1 47.2 101.7 47.2 97.4 Z M 68.2 104.7 L 64.2 98.2 L 62.2 100.8 L 62.2 104.7 L 60.1 104.7 L 60.1 84.7 L 62.2 84.7 L 62.2 98.1 L 68.2 90.2 L 70.8 90.2 L 65.7 96.7 L 70.8 104.7 L 68.2 104.7 Z M 72 103 C 72 103 73.1 101.5 73.1 101.5 C 73.9 102.5 75.3 103.3 76.9 103.3 C 78.6 103.3 79.7 102.4 79.7 101 C 79.7 97.6 72.4 98.8 72.4 93.8 C 72.4 91.6 74.2 89.9 77.1 89.9 C 79 89.9 80.5 90.6 81.5 91.7 C 81.5 91.7 80.5 93.2 80.5 93.2 C 79.7 92.2 78.5 91.6 77.1 91.6 C 75.5 91.6 74.5 92.5 74.5 93.7 C 74.5 96.8 81.7 95.7 81.7 100.9 C 81.7 103.3 79.9 105.1 76.9 105.1 C 74.9 105.1 73.2 104.4 72 103 Z " stroke="none" fill="#d0d1d4"/>  </g>  <g id="Polygon148155">    <path d="M 5 68.7 L 5 51.8 L 1.9 55.1 L 0.4 53.6 L 5.3 48.7 L 7.3 48.7 L 7.3 68.7 L 5 68.7 Z M 10.9 58.7 C 10.9 53.9 12.4 48.4 17.1 48.4 C 21.8 48.4 23.4 53.9 23.4 58.7 C 23.4 63.5 21.8 69.1 17.1 69.1 C 12.4 69.1 10.9 63.5 10.9 58.7 Z M 21 58.7 C 21 54.8 20.2 50.5 17.1 50.5 C 14.1 50.5 13.3 54.8 13.3 58.7 C 13.3 62.6 14 66.9 17.1 66.9 C 20.2 66.9 21 62.6 21 58.7 Z M 26.2 58.7 C 26.2 53.9 27.8 48.4 32.5 48.4 C 37.2 48.4 38.8 53.9 38.8 58.7 C 38.8 63.5 37.2 69.1 32.5 69.1 C 27.8 69.1 26.2 63.5 26.2 58.7 Z M 36.3 58.7 C 36.3 54.8 35.6 50.5 32.5 50.5 C 29.4 50.5 28.7 54.8 28.7 58.7 C 28.7 62.6 29.4 66.9 32.5 66.9 C 35.6 66.9 36.3 62.6 36.3 58.7 Z M 48.5 72.8 C 48.5 72.8 49.5 71.1 49.5 71.1 C 50.4 72.2 51.7 72.8 53.2 72.8 C 55.2 72.8 56.9 71.6 56.9 68.8 C 56.9 68.8 56.9 66.4 56.9 66.4 C 56 67.9 54.6 68.9 53.1 68.9 C 49.8 68.9 47.9 65.9 47.9 61.4 C 47.9 56.9 49.8 53.9 53.1 53.9 C 54.5 53.9 56 54.7 56.9 56.3 C 56.88 56.31 56.9 54.2 56.9 54.2 L 59 54.2 C 59 54.2 59.04 68.67 59 68.7 C 59 73.1 56.3 74.6 53.3 74.6 C 51.4 74.6 49.9 74.1 48.5 72.8 Z M 56.9 64.6 C 56.9 64.6 56.9 58.1 56.9 58.1 C 56.3 56.9 55 55.8 53.6 55.8 C 51.2 55.8 50.1 58.3 50.1 61.4 C 50.1 64.5 51.2 67 53.6 67 C 55 67 56.3 65.8 56.9 64.6 Z " stroke="none" fill="#d0d1d4"/>  </g>  <g id="Polygon148154">    <path d="M 7.4 23.2 L 7.4 28.7 L 5.8 28.7 L 5.8 23.2 L 0.9 23.2 L 0.9 21.6 L 5.8 21.6 L 5.8 16.3 L 7.4 16.3 L 7.4 21.6 L 12.3 21.6 L 12.3 23.2 L 7.4 23.2 Z M 0.9 32 L 0.9 30.5 L 12.3 30.5 L 12.3 32 L 0.9 32 Z M 24.6 32.7 L 24.6 15.8 L 21.5 19.1 L 20.1 17.6 L 24.9 12.7 L 27 12.7 L 27 32.7 L 24.6 32.7 Z M 32 32.7 L 38.3 14.8 L 29.8 14.8 L 29.8 12.7 L 41 12.7 L 41 14.3 L 34.6 32.7 L 32 32.7 Z M 43.3 29.8 C 43.3 29.8 44.9 28.4 44.9 28.4 C 45.8 30 47.2 30.9 49.1 30.9 C 51.3 30.9 52.7 28.9 52.7 26.6 C 52.7 23.7 51.3 22.2 49.3 22.2 C 47.8 22.2 46.7 22.7 45.6 24 C 45.63 24.03 43.9 23.4 43.9 23.4 L 43.9 12.7 L 54.1 12.7 L 54.1 14.8 L 46.2 14.8 C 46.2 14.8 46.23 21.81 46.2 21.8 C 47 20.9 48.3 20.1 49.9 20.1 C 52.8 20.1 55.1 22.4 55.1 26.5 C 55.1 30.3 52.6 33.1 49.2 33.1 C 46.2 33.1 44.5 31.8 43.3 29.8 Z M 64.2 25.4 C 64.2 21.2 66.4 17.9 70.2 17.9 C 72.2 17.9 73.4 18.7 74.3 19.8 C 74.3 19.8 73.1 21.2 73.1 21.2 C 72.4 20.2 71.5 19.8 70.3 19.8 C 67.8 19.8 66.4 22.4 66.4 25.4 C 66.4 28.5 67.8 31.1 70.3 31.1 C 71.5 31.1 72.4 30.7 73.1 29.7 C 73.1 29.7 74.3 31.1 74.3 31.1 C 73.4 32.3 72.2 33.1 70.2 33.1 C 66.4 33.1 64.2 29.7 64.2 25.4 Z M 91.7 32.7 C 91.7 32.7 91.71 22.2 91.7 22.2 C 91.7 20.6 91.1 19.8 89.7 19.8 C 88.4 19.8 87.1 20.9 86.5 22.1 C 86.55 22.08 86.5 32.7 86.5 32.7 L 84.4 32.7 C 84.4 32.7 84.39 22.2 84.4 22.2 C 84.4 20.6 83.8 19.8 82.3 19.8 C 81.1 19.8 79.8 20.9 79.2 22.1 C 79.2 22.08 79.2 32.7 79.2 32.7 L 77.1 32.7 L 77.1 18.2 L 79.2 18.2 C 79.2 18.2 79.2 20.28 79.2 20.3 C 79.8 19.2 81.4 17.9 83.2 17.9 C 85 17.9 86.2 18.9 86.4 20.4 C 87.1 19.1 88.8 17.9 90.5 17.9 C 92.6 17.9 93.9 19 93.9 21.6 C 93.87 21.63 93.9 32.7 93.9 32.7 L 91.7 32.7 Z " stroke="none" fill="#d0d1d4"/>  </g></svg>