<?xml version="1.0" standalone="no"?><!DOCTYPE svg PUBLIC "-//W3C//DTD SVG 1.1//EN" "http://www.w3.org/Graphics/SVG/1.1/DTD/svg11.dtd"><svg xmlns="http://www.w3.org/2000/svg" version="1.1" width="682px" height="104px" viewBox="0 0 682 104">  <desc>Korean Style Fried Chicken served in a fry basket Bugis, Singapore, circa January 2020 (recovered)</desc>  <defs/>  <g id="Polygon134834">    <path d="M 124.5 74 L 124.5 58 C 124.5 58 129.82 58.02 129.8 58 C 132.3 58 133.8 59.7 133.8 62.1 C 133.8 64.1 132.7 65.4 131.3 65.8 C 132.9 66 134 67.8 134 69.7 C 134 72.3 132.7 74 130 74 C 129.97 74.03 124.5 74 124.5 74 Z M 131.8 62.4 C 131.8 60.9 131.1 59.7 129.5 59.7 C 129.46 59.7 126.4 59.7 126.4 59.7 L 126.4 65 C 126.4 65 129.46 65 129.5 65 C 131.1 65 131.8 63.8 131.8 62.4 Z M 132.1 69.5 C 132.1 68 131.3 66.7 129.6 66.7 C 129.58 66.68 126.4 66.7 126.4 66.7 L 126.4 72.3 C 126.4 72.3 129.58 72.32 129.6 72.3 C 131.2 72.3 132.1 71.3 132.1 69.5 Z M 143.1 74 C 143.1 74 143.07 72.42 143.1 72.4 C 142.4 73.4 141.1 74.3 139.7 74.3 C 137.7 74.3 136.8 73.3 136.8 71.2 C 136.81 71.22 136.8 62.4 136.8 62.4 L 138.5 62.4 C 138.5 62.4 138.51 70.71 138.5 70.7 C 138.5 72.2 139.2 72.8 140.4 72.8 C 141.5 72.8 142.6 71.9 143.1 71 C 143.07 70.98 143.1 62.4 143.1 62.4 L 144.8 62.4 L 144.8 74 L 143.1 74 Z M 147.9 77.3 C 147.9 77.3 148.7 75.9 148.7 75.9 C 149.4 76.8 150.4 77.3 151.7 77.3 C 153.3 77.3 154.6 76.4 154.6 74.1 C 154.6 74.1 154.6 72.2 154.6 72.2 C 153.9 73.4 152.8 74.2 151.5 74.2 C 148.9 74.2 147.4 71.8 147.4 68.2 C 147.4 64.6 148.9 62.1 151.5 62.1 C 152.7 62.1 153.9 62.8 154.6 64.1 C 154.59 64.11 154.6 62.4 154.6 62.4 L 156.3 62.4 C 156.3 62.4 156.32 74 156.3 74 C 156.3 77.6 154.2 78.7 151.7 78.7 C 150.2 78.7 149 78.4 147.9 77.3 Z M 154.6 70.7 C 154.6 70.7 154.6 65.6 154.6 65.6 C 154.2 64.6 153.1 63.7 152 63.7 C 150.1 63.7 149.2 65.7 149.2 68.2 C 149.2 70.7 150.1 72.6 152 72.6 C 153.1 72.6 154.2 71.7 154.6 70.7 Z M 159.1 59.6 C 159.1 58.9 159.7 58.4 160.3 58.4 C 160.9 58.4 161.5 58.9 161.5 59.6 C 161.5 60.2 160.9 60.8 160.3 60.8 C 159.7 60.8 159.1 60.2 159.1 59.6 Z M 159.5 74 L 159.5 62.4 L 161.2 62.4 L 161.2 74 L 159.5 74 Z M 163.4 72.7 C 163.4 72.7 164.3 71.5 164.3 71.5 C 164.9 72.3 166 72.9 167.3 72.9 C 168.6 72.9 169.5 72.2 169.5 71 C 169.5 68.3 163.7 69.3 163.7 65.3 C 163.7 63.5 165.1 62.1 167.4 62.1 C 169 62.1 170.1 62.7 171 63.6 C 171 63.6 170.1 64.8 170.1 64.8 C 169.6 64 168.6 63.5 167.5 63.5 C 166.2 63.5 165.4 64.3 165.4 65.2 C 165.4 67.7 171.2 66.8 171.2 71 C 171.2 72.9 169.7 74.3 167.3 74.3 C 165.7 74.3 164.4 73.8 163.4 72.7 Z M 174.3 77 C 174.3 77 173.4 76.4 173.4 76.4 C 174.2 75.8 174.8 74.9 174.9 74.1 C 174.9 74.1 174.7 74.1 174.6 74.1 C 174 74.1 173.5 73.6 173.5 73 C 173.5 72.3 174 71.7 174.7 71.7 C 175.5 71.7 176.2 72.3 176.2 73.5 C 176.2 74.9 175.3 76.3 174.3 77 Z M 183.4 72.3 C 183.4 72.3 184.4 70.8 184.4 70.8 C 185.2 71.8 186.6 72.6 188.1 72.6 C 190.2 72.6 191.1 71.4 191.1 70 C 191.1 66.1 183.8 67.1 183.8 62 C 183.8 59.5 185.8 57.8 188.4 57.8 C 190.2 57.8 191.6 58.4 192.7 59.4 C 192.7 59.4 191.7 60.9 191.7 60.9 C 190.8 59.9 189.7 59.5 188.4 59.5 C 186.9 59.5 185.8 60.4 185.8 61.9 C 185.8 65.2 193 64.5 193 69.9 C 193 72.2 191.5 74.3 188.1 74.3 C 186.1 74.3 184.4 73.5 183.4 72.3 Z M 195.2 59.6 C 195.2 58.9 195.7 58.4 196.4 58.4 C 197 58.4 197.5 58.9 197.5 59.6 C 197.5 60.2 197 60.8 196.4 60.8 C 195.7 60.8 195.2 60.2 195.2 59.6 Z M 195.5 74 L 195.5 62.4 L 197.2 62.4 L 197.2 74 L 195.5 74 Z M 206.7 74 C 206.7 74 206.67 65.77 206.7 65.8 C 206.7 64.2 206 63.7 204.8 63.7 C 203.7 63.7 202.6 64.6 202.1 65.5 C 202.11 65.53 202.1 74 202.1 74 L 200.4 74 L 200.4 62.4 L 202.1 62.4 C 202.1 62.4 202.11 64.09 202.1 64.1 C 202.8 63.1 204.1 62.1 205.5 62.1 C 207.4 62.1 208.4 63.2 208.4 65.3 C 208.4 65.29 208.4 74 208.4 74 L 206.7 74 Z M 211.5 77.3 C 211.5 77.3 212.3 75.9 212.3 75.9 C 213 76.8 214 77.3 215.3 77.3 C 216.9 77.3 218.2 76.4 218.2 74.1 C 218.2 74.1 218.2 72.2 218.2 72.2 C 217.5 73.4 216.4 74.2 215.1 74.2 C 212.5 74.2 211 71.8 211 68.2 C 211 64.6 212.5 62.1 215.1 62.1 C 216.3 62.1 217.5 62.8 218.2 64.1 C 218.19 64.11 218.2 62.4 218.2 62.4 L 219.9 62.4 C 219.9 62.4 219.92 74 219.9 74 C 219.9 77.6 217.8 78.7 215.3 78.7 C 213.8 78.7 212.6 78.4 211.5 77.3 Z M 218.2 70.7 C 218.2 70.7 218.2 65.6 218.2 65.6 C 217.8 64.6 216.7 63.7 215.6 63.7 C 213.7 63.7 212.8 65.7 212.8 68.2 C 212.8 70.7 213.7 72.6 215.6 72.6 C 216.7 72.6 217.8 71.7 218.2 70.7 Z M 229 74 C 229 74 229.01 72.78 229 72.8 C 228.3 73.8 227.1 74.3 226 74.3 C 224.1 74.3 222.5 72.9 222.5 70.4 C 222.5 68 224.1 66.6 226 66.6 C 227.1 66.6 228.3 67.1 229 68.1 C 229 68.1 229 66.1 229 66.1 C 229 64.5 228.1 63.6 226.6 63.6 C 225.6 63.6 224.6 64 223.7 65 C 223.7 65 223 63.8 223 63.8 C 224.1 62.7 225.4 62.1 226.9 62.1 C 229.2 62.1 230.7 63.3 230.7 65.9 C 230.74 65.91 230.7 74 230.7 74 L 229 74 Z M 229 71.6 C 229 71.6 229 69.4 229 69.4 C 228.5 68.4 227.5 67.9 226.5 67.9 C 225.1 67.9 224.2 69 224.2 70.5 C 224.2 71.9 225.1 73.1 226.5 73.1 C 227.5 73.1 228.5 72.6 229 71.6 Z M 235.6 72.3 C 235.59 72.35 235.6 78.4 235.6 78.4 L 233.9 78.4 L 233.9 62.4 L 235.6 62.4 C 235.6 62.4 235.59 64.09 235.6 64.1 C 236.3 62.9 237.4 62.1 238.6 62.1 C 241.3 62.1 242.8 64.6 242.8 68.2 C 242.8 71.8 241.3 74.3 238.6 74.3 C 237.5 74.3 236.3 73.6 235.6 72.3 Z M 241 68.2 C 241 65.7 240.1 63.7 238.2 63.7 C 237.1 63.7 236 64.5 235.6 65.6 C 235.6 65.6 235.6 70.9 235.6 70.9 C 236 71.9 237.1 72.8 238.2 72.8 C 240.1 72.8 241 70.7 241 68.2 Z M 244.8 68.2 C 244.8 65 246.4 62.1 249.5 62.1 C 252.6 62.1 254.2 65 254.2 68.2 C 254.2 71.5 252.6 74.3 249.5 74.3 C 246.4 74.3 244.8 71.5 244.8 68.2 Z M 252.4 68.2 C 252.4 65.9 251.5 63.7 249.5 63.7 C 247.5 63.7 246.6 65.9 246.6 68.2 C 246.6 70.6 247.5 72.8 249.5 72.8 C 251.5 72.8 252.4 70.6 252.4 68.2 Z M 256.8 74 L 256.8 62.4 L 258.5 62.4 C 258.5 62.4 258.51 64.28 258.5 64.3 C 259.3 63.1 260.4 62.2 261.8 62.2 C 261.8 62.2 261.8 64 261.8 64 C 261.6 63.9 261.4 63.9 261.2 63.9 C 260.2 63.9 259 64.8 258.5 65.8 C 258.51 65.79 258.5 74 258.5 74 L 256.8 74 Z M 263.2 68.2 C 263.2 64.9 265 62.1 267.9 62.1 C 271 62.1 272.5 64.9 272.5 68.3 C 272.5 68.27 272.5 68.8 272.5 68.8 C 272.5 68.8 264.99 68.79 265 68.8 C 265.1 71.1 266.3 72.9 268.3 72.9 C 269.3 72.9 270.4 72.4 271.1 71.5 C 271.1 71.5 272 72.5 272 72.5 C 271.1 73.6 269.7 74.3 268.2 74.3 C 265.1 74.3 263.2 71.8 263.2 68.2 Z M 267.9 63.6 C 265.9 63.6 265 65.8 265 67.5 C 265 67.5 270.8 67.5 270.8 67.5 C 270.8 65.7 270 63.6 267.9 63.6 Z M 275.6 77 C 275.6 77 274.7 76.4 274.7 76.4 C 275.5 75.8 276.1 74.9 276.2 74.1 C 276.2 74.1 276 74.1 275.9 74.1 C 275.3 74.1 274.8 73.6 274.8 73 C 274.8 72.3 275.3 71.7 276.1 71.7 C 276.8 71.7 277.5 72.3 277.5 73.5 C 277.5 74.9 276.7 76.3 275.6 77 Z M 285 68.2 C 285 64.8 286.8 62.1 289.8 62.1 C 291.4 62.1 292.4 62.8 293.1 63.7 C 293.1 63.7 292.2 64.9 292.2 64.9 C 291.5 64 290.8 63.7 289.9 63.7 C 287.9 63.7 286.8 65.7 286.8 68.2 C 286.8 70.7 287.9 72.8 289.9 72.8 C 290.8 72.8 291.5 72.4 292.2 71.6 C 292.2 71.6 293.1 72.8 293.1 72.8 C 292.4 73.7 291.4 74.3 289.8 74.3 C 286.8 74.3 285 71.6 285 68.2 Z M 295 59.6 C 295 58.9 295.5 58.4 296.1 58.4 C 296.8 58.4 297.3 58.9 297.3 59.6 C 297.3 60.2 296.8 60.8 296.1 60.8 C 295.5 60.8 295 60.2 295 59.6 Z M 295.3 74 L 295.3 62.4 L 297 62.4 L 297 74 L 295.3 74 Z M 300.2 74 L 300.2 62.4 L 301.9 62.4 C 301.9 62.4 301.87 64.28 301.9 64.3 C 302.6 63.1 303.7 62.2 305.2 62.2 C 305.2 62.2 305.2 64 305.2 64 C 305 63.9 304.8 63.9 304.6 63.9 C 303.5 63.9 302.4 64.8 301.9 65.8 C 301.87 65.79 301.9 74 301.9 74 L 300.2 74 Z M 306.6 68.2 C 306.6 64.8 308.4 62.1 311.4 62.1 C 313 62.1 314 62.8 314.7 63.7 C 314.7 63.7 313.8 64.9 313.8 64.9 C 313.1 64 312.4 63.7 311.5 63.7 C 309.5 63.7 308.4 65.7 308.4 68.2 C 308.4 70.7 309.5 72.8 311.5 72.8 C 312.4 72.8 313.1 72.4 313.8 71.6 C 313.8 71.6 314.7 72.8 314.7 72.8 C 314 73.7 313 74.3 311.4 74.3 C 308.4 74.3 306.6 71.6 306.6 68.2 Z M 322.8 74 C 322.8 74 322.85 72.78 322.8 72.8 C 322.1 73.8 321 74.3 319.8 74.3 C 317.9 74.3 316.3 72.9 316.3 70.4 C 316.3 68 317.9 66.6 319.8 66.6 C 321 66.6 322.1 67.1 322.8 68.1 C 322.8 68.1 322.8 66.1 322.8 66.1 C 322.8 64.5 322 63.6 320.5 63.6 C 319.4 63.6 318.5 64 317.6 65 C 317.6 65 316.8 63.8 316.8 63.8 C 317.9 62.7 319.3 62.1 320.7 62.1 C 323 62.1 324.6 63.3 324.6 65.9 C 324.58 65.91 324.6 74 324.6 74 L 322.8 74 Z M 322.8 71.6 C 322.8 71.6 322.8 69.4 322.8 69.4 C 322.3 68.4 321.4 67.9 320.4 67.9 C 318.9 67.9 318 69 318 70.5 C 318 71.9 318.9 73.1 320.4 73.1 C 321.4 73.1 322.3 72.6 322.8 71.6 Z M 331.5 72.8 C 331.5 72.8 332.4 71.4 332.4 71.4 C 333 72.1 333.7 72.6 334.7 72.6 C 336.3 72.6 337.3 71.6 337.3 69.9 C 337.27 69.87 337.3 58 337.3 58 L 339.2 58 C 339.2 58 339.17 69.92 339.2 69.9 C 339.2 72.9 337.3 74.3 334.9 74.3 C 333.6 74.3 332.4 73.9 331.5 72.8 Z M 348.4 74 C 348.4 74 348.38 72.78 348.4 72.8 C 347.6 73.8 346.5 74.3 345.3 74.3 C 343.5 74.3 341.8 72.9 341.8 70.4 C 341.8 68 343.4 66.6 345.3 66.6 C 346.5 66.6 347.7 67.1 348.4 68.1 C 348.4 68.1 348.4 66.1 348.4 66.1 C 348.4 64.5 347.5 63.6 346 63.6 C 344.9 63.6 344 64 343.1 65 C 343.1 65 342.3 63.8 342.3 63.8 C 343.4 62.7 344.8 62.1 346.3 62.1 C 348.6 62.1 350.1 63.3 350.1 65.9 C 350.11 65.91 350.1 74 350.1 74 L 348.4 74 Z M 348.4 71.6 C 348.4 71.6 348.4 69.4 348.4 69.4 C 347.9 68.4 346.9 67.9 345.9 67.9 C 344.4 67.9 343.6 69 343.6 70.5 C 343.6 71.9 344.4 73.1 345.9 73.1 C 346.9 73.1 347.9 72.6 348.4 71.6 Z M 359.5 74 C 359.5 74 359.52 65.77 359.5 65.8 C 359.5 64.2 358.8 63.7 357.7 63.7 C 356.5 63.7 355.5 64.6 355 65.5 C 354.96 65.53 355 74 355 74 L 353.3 74 L 353.3 62.4 L 355 62.4 C 355 62.4 354.96 64.09 355 64.1 C 355.6 63.1 356.9 62.1 358.3 62.1 C 360.3 62.1 361.2 63.2 361.2 65.3 C 361.25 65.29 361.2 74 361.2 74 L 359.5 74 Z M 370.7 74 C 370.7 74 370.68 72.42 370.7 72.4 C 370 73.4 368.8 74.3 367.3 74.3 C 365.4 74.3 364.4 73.3 364.4 71.2 C 364.42 71.22 364.4 62.4 364.4 62.4 L 366.1 62.4 C 366.1 62.4 366.12 70.71 366.1 70.7 C 366.1 72.2 366.8 72.8 368 72.8 C 369.1 72.8 370.2 71.9 370.7 71 C 370.68 70.98 370.7 62.4 370.7 62.4 L 372.4 62.4 L 372.4 74 L 370.7 74 Z M 381.5 74 C 381.5 74 381.53 72.78 381.5 72.8 C 380.8 73.8 379.7 74.3 378.5 74.3 C 376.6 74.3 375 72.9 375 70.4 C 375 68 376.6 66.6 378.5 66.6 C 379.7 66.6 380.8 67.1 381.5 68.1 C 381.5 68.1 381.5 66.1 381.5 66.1 C 381.5 64.5 380.7 63.6 379.2 63.6 C 378.1 63.6 377.1 64 376.2 65 C 376.2 65 375.5 63.8 375.5 63.8 C 376.6 62.7 378 62.1 379.4 62.1 C 381.7 62.1 383.3 63.3 383.3 65.9 C 383.26 65.91 383.3 74 383.3 74 L 381.5 74 Z M 381.5 71.6 C 381.5 71.6 381.5 69.4 381.5 69.4 C 381 68.4 380 67.9 379 67.9 C 377.6 67.9 376.7 69 376.7 70.5 C 376.7 71.9 377.6 73.1 379 73.1 C 380 73.1 381 72.6 381.5 71.6 Z M 386.4 74 L 386.4 62.4 L 388.1 62.4 C 388.1 62.4 388.1 64.28 388.1 64.3 C 388.8 63.1 390 62.2 391.4 62.2 C 391.4 62.2 391.4 64 391.4 64 C 391.2 63.9 391 63.9 390.8 63.9 C 389.8 63.9 388.6 64.8 388.1 65.8 C 388.1 65.79 388.1 74 388.1 74 L 386.4 74 Z M 393 77 C 393.3 77.1 393.6 77.2 393.8 77.2 C 394.5 77.2 394.9 76.9 395.2 76 C 395.18 76.04 395.8 74.3 395.8 74.3 L 391.9 62.4 L 393.8 62.4 L 396.7 71.9 L 399.6 62.4 L 401.4 62.4 C 401.4 62.4 396.82 76.47 396.8 76.5 C 396.2 78.2 395.3 78.7 393.9 78.7 C 393.6 78.7 393 78.7 392.8 78.6 C 392.8 78.6 393 77 393 77 Z M 408 74 C 408 74 408.02 72.47 408 72.5 C 413.3 66.4 415.1 64.5 415.1 62.1 C 415.1 60.4 413.9 59.5 412.5 59.5 C 411 59.5 409.9 60.2 409.1 61.5 C 409.1 61.5 407.9 60.3 407.9 60.3 C 408.9 58.7 410.5 57.8 412.5 57.8 C 415 57.8 417 59.4 417 62.1 C 417 64.8 415 67.2 410.7 72.3 C 410.74 72.32 417.1 72.3 417.1 72.3 L 417.1 74 L 408 74 Z M 419.6 66 C 419.6 62.2 420.9 57.8 424.6 57.8 C 428.4 57.8 429.6 62.2 429.6 66 C 429.6 69.9 428.4 74.3 424.6 74.3 C 420.9 74.3 419.6 69.9 419.6 66 Z M 427.7 66 C 427.7 62.9 427.1 59.5 424.6 59.5 C 422.2 59.5 421.6 62.9 421.6 66 C 421.6 69.2 422.2 72.6 424.6 72.6 C 427.1 72.6 427.7 69.2 427.7 66 Z M 432 74 C 432 74 432.05 72.47 432 72.5 C 437.3 66.4 439.1 64.5 439.1 62.1 C 439.1 60.4 437.9 59.5 436.5 59.5 C 435 59.5 433.9 60.2 433.1 61.5 C 433.1 61.5 431.9 60.3 431.9 60.3 C 432.9 58.7 434.5 57.8 436.5 57.8 C 439 57.8 441 59.4 441 62.1 C 441 64.8 439 67.2 434.8 72.3 C 434.76 72.32 441.1 72.3 441.1 72.3 L 441.1 74 L 432 74 Z M 443.6 66 C 443.6 62.2 444.9 57.8 448.7 57.8 C 452.4 57.8 453.7 62.2 453.7 66 C 453.7 69.9 452.4 74.3 448.7 74.3 C 444.9 74.3 443.6 69.9 443.6 66 Z M 451.7 66 C 451.7 62.9 451.1 59.5 448.7 59.5 C 446.2 59.5 445.6 62.9 445.6 66 C 445.6 69.2 446.2 72.6 448.7 72.6 C 451.1 72.6 451.7 69.2 451.7 66 Z M 463.9 78.8 C 462.1 75.7 461.1 72.1 461.1 68.2 C 461.1 64.3 462.1 60.7 463.9 57.6 C 463.9 57.6 465 58.2 465 58.2 C 463.8 61.3 463 64.2 463 68.2 C 463 72.2 463.8 75.1 465 78.1 C 465 78.1 463.9 78.8 463.9 78.8 Z M 467 74 L 467 62.4 L 468.7 62.4 C 468.7 62.4 468.74 64.28 468.7 64.3 C 469.5 63.1 470.6 62.2 472 62.2 C 472 62.2 472 64 472 64 C 471.8 63.9 471.6 63.9 471.5 63.9 C 470.4 63.9 469.2 64.8 468.7 65.8 C 468.74 65.79 468.7 74 468.7 74 L 467 74 Z M 473.4 68.2 C 473.4 64.9 475.2 62.1 478.2 62.1 C 481.2 62.1 482.7 64.9 482.7 68.3 C 482.73 68.27 482.7 68.8 482.7 68.8 C 482.7 68.8 475.22 68.79 475.2 68.8 C 475.3 71.1 476.5 72.9 478.6 72.9 C 479.6 72.9 480.6 72.4 481.3 71.5 C 481.3 71.5 482.2 72.5 482.2 72.5 C 481.3 73.6 480 74.3 478.4 74.3 C 475.3 74.3 473.4 71.8 473.4 68.2 Z M 478.1 63.6 C 476.1 63.6 475.3 65.8 475.2 67.5 C 475.2 67.5 481 67.5 481 67.5 C 481 65.7 480.2 63.6 478.1 63.6 Z M 484.7 68.2 C 484.7 64.8 486.5 62.1 489.5 62.1 C 491.1 62.1 492.1 62.8 492.8 63.7 C 492.8 63.7 491.9 64.9 491.9 64.9 C 491.2 64 490.5 63.7 489.6 63.7 C 487.6 63.7 486.5 65.7 486.5 68.2 C 486.5 70.7 487.6 72.8 489.6 72.8 C 490.5 72.8 491.2 72.4 491.9 71.6 C 491.9 71.6 492.8 72.8 492.8 72.8 C 492.1 73.7 491.1 74.3 489.5 74.3 C 486.5 74.3 484.7 71.6 484.7 68.2 Z M 494.4 68.2 C 494.4 65 496.1 62.1 499.1 62.1 C 502.2 62.1 503.9 65 503.9 68.2 C 503.9 71.5 502.2 74.3 499.1 74.3 C 496.1 74.3 494.4 71.5 494.4 68.2 Z M 502.1 68.2 C 502.1 65.9 501.2 63.7 499.1 63.7 C 497.1 63.7 496.2 65.9 496.2 68.2 C 496.2 70.6 497.1 72.8 499.1 72.8 C 501.2 72.8 502.1 70.6 502.1 68.2 Z M 508.8 74 L 505 62.4 L 506.9 62.4 L 509.8 72 L 512.7 62.4 L 514.5 62.4 L 510.7 74 L 508.8 74 Z M 515.7 68.2 C 515.7 64.9 517.4 62.1 520.4 62.1 C 523.4 62.1 524.9 64.9 524.9 68.3 C 524.95 68.27 524.9 68.8 524.9 68.8 C 524.9 68.8 517.44 68.79 517.4 68.8 C 517.5 71.1 518.7 72.9 520.8 72.9 C 521.8 72.9 522.8 72.4 523.5 71.5 C 523.5 71.5 524.4 72.5 524.4 72.5 C 523.5 73.6 522.2 74.3 520.6 74.3 C 517.5 74.3 515.7 71.8 515.7 68.2 Z M 520.3 63.6 C 518.3 63.6 517.5 65.8 517.4 67.5 C 517.4 67.5 523.2 67.5 523.2 67.5 C 523.2 65.7 522.5 63.6 520.3 63.6 Z M 527.5 74 L 527.5 62.4 L 529.2 62.4 C 529.2 62.4 529.17 64.28 529.2 64.3 C 529.9 63.1 531 62.2 532.5 62.2 C 532.5 62.2 532.5 64 532.5 64 C 532.3 63.9 532.1 63.9 531.9 63.9 C 530.8 63.9 529.7 64.8 529.2 65.8 C 529.17 65.79 529.2 74 529.2 74 L 527.5 74 Z M 533.9 68.2 C 533.9 64.9 535.7 62.1 538.6 62.1 C 541.6 62.1 543.2 64.9 543.2 68.3 C 543.16 68.27 543.2 68.8 543.2 68.8 C 543.2 68.8 535.65 68.79 535.7 68.8 C 535.7 71.1 536.9 72.9 539 72.9 C 540 72.9 541 72.4 541.7 71.5 C 541.7 71.5 542.7 72.5 542.7 72.5 C 541.7 73.6 540.4 74.3 538.8 74.3 C 535.7 74.3 533.9 71.8 533.9 68.2 Z M 538.6 63.6 C 536.5 63.6 535.7 65.8 535.7 67.5 C 535.7 67.5 541.5 67.5 541.5 67.5 C 541.4 65.7 540.7 63.6 538.6 63.6 Z M 552.3 74 C 552.3 74 552.31 72.37 552.3 72.4 C 551.6 73.5 550.5 74.3 549.3 74.3 C 546.7 74.3 545.1 71.9 545.1 68.2 C 545.1 64.6 546.6 62.1 549.3 62.1 C 550.4 62.1 551.6 62.8 552.3 64.1 C 552.31 64.11 552.3 58 552.3 58 L 554 58 L 554 74 L 552.3 74 Z M 552.3 70.9 C 552.3 70.9 552.3 65.6 552.3 65.6 C 551.9 64.6 550.8 63.7 549.7 63.7 C 547.8 63.7 546.9 65.7 546.9 68.2 C 546.9 70.7 547.8 72.8 549.7 72.8 C 550.8 72.8 551.9 71.9 552.3 70.9 Z M 556.1 78.1 C 557.3 75.1 558.1 72.2 558.1 68.2 C 558.1 64.2 557.3 61.3 556.1 58.2 C 556.1 58.2 557.2 57.6 557.2 57.6 C 559 60.7 560 64.3 560 68.2 C 560 72.1 559 75.7 557.2 78.8 C 557.2 78.8 556.1 78.1 556.1 78.1 Z " stroke="none" fill="#7c7979"/>  </g>  <g id="Polygon134833">    <path d="M 82.9 44 L 77.1 35.2 L 75.4 37.6 L 75.4 44 L 73 44 L 73 24 L 75.4 24 L 75.4 34.4 L 82.4 24 L 85.2 24 L 78.5 33.5 L 85.8 44 L 82.9 44 Z M 86.5 36.8 C 86.5 32.7 88.5 29.2 92.4 29.2 C 96.3 29.2 98.3 32.7 98.3 36.8 C 98.3 40.8 96.3 44.4 92.4 44.4 C 88.5 44.4 86.5 40.8 86.5 36.8 Z M 96 36.8 C 96 33.9 94.9 31.1 92.4 31.1 C 89.9 31.1 88.7 33.9 88.7 36.8 C 88.7 39.7 89.9 42.5 92.4 42.5 C 94.9 42.5 96 39.7 96 36.8 Z M 101.5 44 L 101.5 29.5 L 103.6 29.5 C 103.6 29.5 103.65 31.85 103.6 31.8 C 104.6 30.3 106 29.2 107.8 29.2 C 107.8 29.2 107.8 31.5 107.8 31.5 C 107.5 31.4 107.3 31.4 107 31.4 C 105.7 31.4 104.2 32.5 103.6 33.7 C 103.65 33.74 103.6 44 103.6 44 L 101.5 44 Z M 109.5 36.8 C 109.5 32.6 111.7 29.2 115.4 29.2 C 119.2 29.2 121.1 32.6 121.1 36.8 C 121.14 36.83 121.1 37.5 121.1 37.5 C 121.1 37.5 111.75 37.49 111.7 37.5 C 111.8 40.4 113.3 42.6 115.9 42.6 C 117.2 42.6 118.5 42 119.4 40.8 C 119.4 40.8 120.5 42.1 120.5 42.1 C 119.3 43.5 117.7 44.4 115.7 44.4 C 111.9 44.4 109.5 41.2 109.5 36.8 Z M 115.4 31 C 112.8 31 111.8 33.8 111.7 35.9 C 111.7 35.9 119 35.9 119 35.9 C 119 33.7 118 31 115.4 31 Z M 131.7 44 C 131.7 44 131.73 42.47 131.7 42.5 C 130.8 43.8 129.4 44.4 127.9 44.4 C 125.6 44.4 123.5 42.6 123.5 39.6 C 123.5 36.5 125.5 34.8 127.9 34.8 C 129.4 34.8 130.8 35.4 131.7 36.6 C 131.7 36.6 131.7 34.1 131.7 34.1 C 131.7 32.1 130.6 31 128.8 31 C 127.4 31 126.2 31.5 125.1 32.8 C 125.1 32.8 124.2 31.3 124.2 31.3 C 125.5 29.8 127.3 29.2 129.1 29.2 C 132 29.2 133.9 30.6 133.9 33.9 C 133.89 33.89 133.9 44 133.9 44 L 131.7 44 Z M 131.7 41 C 131.7 41 131.7 38.2 131.7 38.2 C 131.1 37 129.9 36.4 128.6 36.4 C 126.8 36.4 125.7 37.8 125.7 39.6 C 125.7 41.4 126.8 42.8 128.6 42.8 C 129.9 42.8 131.1 42.2 131.7 41 Z M 145.6 44 C 145.6 44 145.65 33.71 145.6 33.7 C 145.6 31.8 144.8 31.1 143.3 31.1 C 141.9 31.1 140.6 32.2 139.9 33.4 C 139.95 33.41 139.9 44 139.9 44 L 137.8 44 L 137.8 29.5 L 139.9 29.5 C 139.9 29.5 139.95 31.61 139.9 31.6 C 140.8 30.3 142.4 29.2 144.1 29.2 C 146.6 29.2 147.8 30.5 147.8 33.1 C 147.81 33.11 147.8 44 147.8 44 L 145.6 44 Z M 157.1 41.9 C 157.1 41.9 158.4 40 158.4 40 C 159.4 41.3 161.1 42.3 163.1 42.3 C 165.6 42.3 166.7 40.7 166.7 39 C 166.7 34.1 157.7 35.4 157.7 28.9 C 157.7 25.9 160.1 23.7 163.4 23.7 C 165.7 23.7 167.5 24.4 168.8 25.8 C 168.8 25.8 167.5 27.6 167.5 27.6 C 166.4 26.4 165 25.8 163.4 25.8 C 161.5 25.8 160.1 27 160.1 28.8 C 160.1 33 169.2 32.1 169.2 38.8 C 169.2 41.8 167.2 44.4 163.1 44.4 C 160.5 44.4 158.5 43.4 157.1 41.9 Z M 172.3 41.1 C 172.32 41.12 172.3 31.4 172.3 31.4 L 170.4 31.4 L 170.4 29.5 L 172.3 29.5 L 172.3 25.6 L 174.5 25.6 L 174.5 29.5 L 176.9 29.5 L 176.9 31.4 L 174.5 31.4 C 174.5 31.4 174.48 40.73 174.5 40.7 C 174.5 41.8 174.8 42.5 175.6 42.5 C 176.2 42.5 176.6 42.2 176.9 41.9 C 176.9 41.9 177.6 43.5 177.6 43.5 C 177.1 44 176.3 44.4 175.2 44.4 C 173.2 44.4 172.3 43.3 172.3 41.1 Z M 179.4 47.8 C 179.6 47.9 180.1 48 180.3 48 C 181.2 48 181.6 47.7 182 46.5 C 182.04 46.55 182.8 44.3 182.8 44.3 L 178 29.5 L 180.3 29.5 L 183.9 41.4 L 187.6 29.5 L 189.9 29.5 C 189.9 29.5 184.08 47.09 184.1 47.1 C 183.4 49.2 182.2 49.9 180.5 49.9 C 180 49.9 179.4 49.8 179 49.7 C 179 49.7 179.4 47.8 179.4 47.8 Z M 192 44 L 192 24 L 194.2 24 L 194.2 44 L 192 44 Z M 197.4 36.8 C 197.4 32.6 199.6 29.2 203.3 29.2 C 207.1 29.2 209 32.6 209 36.8 C 209.01 36.83 209 37.5 209 37.5 C 209 37.5 199.62 37.49 199.6 37.5 C 199.7 40.4 201.2 42.6 203.8 42.6 C 205 42.6 206.3 42 207.2 40.8 C 207.2 40.8 208.4 42.1 208.4 42.1 C 207.2 43.5 205.6 44.4 203.6 44.4 C 199.7 44.4 197.4 41.2 197.4 36.8 Z M 203.2 31 C 200.7 31 199.7 33.8 199.6 35.9 C 199.6 35.9 206.9 35.9 206.9 35.9 C 206.8 33.7 205.9 31 203.2 31 Z M 218.7 44 L 218.7 24 L 229 24 L 229 26.1 L 221.1 26.1 L 221.1 32.7 L 228.8 32.7 L 228.8 34.8 L 221.1 34.8 L 221.1 44 L 218.7 44 Z M 232.1 44 L 232.1 29.5 L 234.3 29.5 C 234.3 29.5 234.26 31.85 234.3 31.8 C 235.2 30.3 236.6 29.2 238.4 29.2 C 238.4 29.2 238.4 31.5 238.4 31.5 C 238.1 31.4 237.9 31.4 237.7 31.4 C 236.3 31.4 234.9 32.5 234.3 33.7 C 234.26 33.74 234.3 44 234.3 44 L 232.1 44 Z M 240.4 26 C 240.4 25.2 241.1 24.5 241.9 24.5 C 242.7 24.5 243.4 25.2 243.4 26 C 243.4 26.8 242.7 27.4 241.9 27.4 C 241.1 27.4 240.4 26.8 240.4 26 Z M 240.9 44 L 240.9 29.5 L 243 29.5 L 243 44 L 240.9 44 Z M 246.2 36.8 C 246.2 32.6 248.5 29.2 252.1 29.2 C 255.9 29.2 257.8 32.6 257.8 36.8 C 257.84 36.83 257.8 37.5 257.8 37.5 C 257.8 37.5 248.45 37.49 248.5 37.5 C 248.5 40.4 250 42.6 252.6 42.6 C 253.9 42.6 255.2 42 256.1 40.8 C 256.1 40.8 257.2 42.1 257.2 42.1 C 256 43.5 254.4 44.4 252.4 44.4 C 248.6 44.4 246.2 41.2 246.2 36.8 Z M 252.1 31 C 249.5 31 248.5 33.8 248.5 35.9 C 248.5 35.9 255.7 35.9 255.7 35.9 C 255.7 33.7 254.7 31 252.1 31 Z M 269.3 44 C 269.3 44 269.27 41.96 269.3 42 C 268.4 43.4 267 44.4 265.5 44.4 C 262.2 44.4 260.3 41.4 260.3 36.8 C 260.3 32.3 262.2 29.2 265.5 29.2 C 266.9 29.2 268.4 30 269.3 31.6 C 269.27 31.64 269.3 24 269.3 24 L 271.4 24 L 271.4 44 L 269.3 44 Z M 269.3 40.1 C 269.3 40.1 269.3 33.5 269.3 33.5 C 268.7 32.2 267.4 31.1 266 31.1 C 263.6 31.1 262.5 33.6 262.5 36.8 C 262.5 39.9 263.6 42.5 266 42.5 C 267.4 42.5 268.7 41.4 269.3 40.1 Z M 281.3 34 C 281.3 28 284.3 23.7 289 23.7 C 292.1 23.7 293.8 25.5 294.9 27.6 C 294.9 27.6 292.9 28.5 292.9 28.5 C 292.1 26.9 290.8 25.8 289 25.8 C 285.8 25.8 283.7 29.3 283.7 34 C 283.7 38.8 285.8 42.3 289 42.3 C 290.9 42.3 292.2 41 292.9 39.3 C 292.9 39.3 295 40.2 295 40.2 C 293.8 42.4 292.1 44.4 289 44.4 C 284.3 44.4 281.3 40 281.3 34 Z M 305.7 44 C 305.7 44 305.69 33.68 305.7 33.7 C 305.7 31.8 304.8 31.1 303.4 31.1 C 301.9 31.1 300.6 32.2 300 33.4 C 299.96 33.41 300 44 300 44 L 297.8 44 L 297.8 24 L 300 24 C 300 24 299.96 31.61 300 31.6 C 300.8 30.3 302.5 29.2 304.2 29.2 C 306.7 29.2 307.8 30.4 307.8 33 C 307.82 33.05 307.8 44 307.8 44 L 305.7 44 Z M 311.4 26 C 311.4 25.2 312.1 24.5 312.8 24.5 C 313.6 24.5 314.3 25.2 314.3 26 C 314.3 26.8 313.6 27.4 312.8 27.4 C 312.1 27.4 311.4 26.8 311.4 26 Z M 311.8 44 L 311.8 29.5 L 313.9 29.5 L 313.9 44 L 311.8 44 Z M 317.2 36.8 C 317.2 32.5 319.4 29.2 323.2 29.2 C 325.2 29.2 326.4 30 327.3 31.1 C 327.3 31.1 326.1 32.6 326.1 32.6 C 325.3 31.5 324.4 31.1 323.3 31.1 C 320.8 31.1 319.4 33.7 319.4 36.8 C 319.4 39.9 320.8 42.5 323.3 42.5 C 324.4 42.5 325.3 42 326.1 41 C 326.1 41 327.3 42.5 327.3 42.5 C 326.4 43.6 325.2 44.4 323.2 44.4 C 319.4 44.4 317.2 41.1 317.2 36.8 Z M 338.2 44 L 334.2 37.5 L 332.2 40.1 L 332.2 44 L 330.1 44 L 330.1 24 L 332.2 24 L 332.2 37.4 L 338.2 29.5 L 340.8 29.5 L 335.7 36 L 340.8 44 L 338.2 44 Z M 342.4 36.8 C 342.4 32.6 344.6 29.2 348.2 29.2 C 352 29.2 354 32.6 354 36.8 C 353.96 36.83 354 37.5 354 37.5 C 354 37.5 344.57 37.49 344.6 37.5 C 344.7 40.4 346.2 42.6 348.7 42.6 C 350 42.6 351.3 42 352.2 40.8 C 352.2 40.8 353.3 42.1 353.3 42.1 C 352.2 43.5 350.5 44.4 348.6 44.4 C 344.7 44.4 342.4 41.2 342.4 36.8 Z M 348.2 31 C 345.7 31 344.6 33.8 344.6 35.9 C 344.6 35.9 351.8 35.9 351.8 35.9 C 351.8 33.7 350.8 31 348.2 31 Z M 364.9 44 C 364.9 44 364.94 33.71 364.9 33.7 C 364.9 31.8 364.1 31.1 362.6 31.1 C 361.2 31.1 359.9 32.2 359.2 33.4 C 359.24 33.41 359.2 44 359.2 44 L 357.1 44 L 357.1 29.5 L 359.2 29.5 C 359.2 29.5 359.24 31.61 359.2 31.6 C 360.1 30.3 361.7 29.2 363.4 29.2 C 365.9 29.2 367.1 30.5 367.1 33.1 C 367.1 33.11 367.1 44 367.1 44 L 364.9 44 Z M 376.3 42.3 C 376.3 42.3 377.4 40.8 377.4 40.8 C 378.3 41.8 379.6 42.6 381.2 42.6 C 382.9 42.6 384 41.7 384 40.3 C 384 36.9 376.8 38.1 376.8 33.1 C 376.8 30.9 378.5 29.2 381.4 29.2 C 383.3 29.2 384.8 29.9 385.8 31 C 385.8 31 384.8 32.5 384.8 32.5 C 384.1 31.5 382.8 30.9 381.4 30.9 C 379.8 30.9 378.8 31.8 378.8 33 C 378.8 36.1 386.1 35 386.1 40.2 C 386.1 42.6 384.2 44.4 381.2 44.4 C 379.2 44.4 377.5 43.7 376.3 42.3 Z M 388.4 36.8 C 388.4 32.6 390.6 29.2 394.3 29.2 C 398.1 29.2 400 32.6 400 36.8 C 400.01 36.83 400 37.5 400 37.5 C 400 37.5 390.62 37.49 390.6 37.5 C 390.7 40.4 392.2 42.6 394.8 42.6 C 396.1 42.6 397.3 42 398.2 40.8 C 398.2 40.8 399.4 42.1 399.4 42.1 C 398.2 43.5 396.6 44.4 394.6 44.4 C 390.7 44.4 388.4 41.2 388.4 36.8 Z M 394.3 31 C 391.7 31 390.7 33.8 390.6 35.9 C 390.6 35.9 397.9 35.9 397.9 35.9 C 397.9 33.7 396.9 31 394.3 31 Z M 403.2 44 L 403.2 29.5 L 405.3 29.5 C 405.3 29.5 405.29 31.85 405.3 31.8 C 406.2 30.3 407.6 29.2 409.4 29.2 C 409.4 29.2 409.4 31.5 409.4 31.5 C 409.2 31.4 408.9 31.4 408.7 31.4 C 407.4 31.4 405.9 32.5 405.3 33.7 C 405.29 33.74 405.3 44 405.3 44 L 403.2 44 Z M 414.8 44 L 410.1 29.5 L 412.4 29.5 L 416 41.5 L 419.7 29.5 L 422 29.5 L 417.2 44 L 414.8 44 Z M 423.4 36.8 C 423.4 32.6 425.6 29.2 429.3 29.2 C 433.1 29.2 435 32.6 435 36.8 C 435.02 36.83 435 37.5 435 37.5 C 435 37.5 425.63 37.49 425.6 37.5 C 425.7 40.4 427.2 42.6 429.8 42.6 C 431.1 42.6 432.3 42 433.2 40.8 C 433.2 40.8 434.4 42.1 434.4 42.1 C 433.2 43.5 431.6 44.4 429.6 44.4 C 425.7 44.4 423.4 41.2 423.4 36.8 Z M 429.3 31 C 426.7 31 425.7 33.8 425.6 35.9 C 425.6 35.9 432.9 35.9 432.9 35.9 C 432.9 33.7 431.9 31 429.3 31 Z M 446.4 44 C 446.4 44 446.45 41.96 446.4 42 C 445.6 43.4 444.2 44.4 442.6 44.4 C 439.4 44.4 437.4 41.4 437.4 36.8 C 437.4 32.3 439.4 29.2 442.6 29.2 C 444.1 29.2 445.6 30 446.4 31.6 C 446.45 31.64 446.4 24 446.4 24 L 448.6 24 L 448.6 44 L 446.4 44 Z M 446.4 40.1 C 446.4 40.1 446.4 33.5 446.4 33.5 C 445.9 32.2 444.6 31.1 443.2 31.1 C 440.8 31.1 439.7 33.6 439.7 36.8 C 439.7 39.9 440.8 42.5 443.2 42.5 C 444.6 42.5 445.9 41.4 446.4 40.1 Z M 458.6 26 C 458.6 25.2 459.3 24.5 460.1 24.5 C 460.9 24.5 461.5 25.2 461.5 26 C 461.5 26.8 460.9 27.4 460.1 27.4 C 459.3 27.4 458.6 26.8 458.6 26 Z M 459 44 L 459 29.5 L 461.1 29.5 L 461.1 44 L 459 44 Z M 472.9 44 C 472.9 44 472.94 33.71 472.9 33.7 C 472.9 31.8 472.1 31.1 470.6 31.1 C 469.2 31.1 467.9 32.2 467.2 33.4 C 467.24 33.41 467.2 44 467.2 44 L 465.1 44 L 465.1 29.5 L 467.2 29.5 C 467.2 29.5 467.24 31.61 467.2 31.6 C 468.1 30.3 469.7 29.2 471.4 29.2 C 473.9 29.2 475.1 30.5 475.1 33.1 C 475.1 33.11 475.1 44 475.1 44 L 472.9 44 Z M 492.9 44 C 492.9 44 492.95 42.47 492.9 42.5 C 492 43.8 490.6 44.4 489.1 44.4 C 486.8 44.4 484.8 42.6 484.8 39.6 C 484.8 36.5 486.8 34.8 489.1 34.8 C 490.6 34.8 492 35.4 492.9 36.6 C 492.9 36.6 492.9 34.1 492.9 34.1 C 492.9 32.1 491.9 31 490 31 C 488.6 31 487.5 31.5 486.3 32.8 C 486.3 32.8 485.4 31.3 485.4 31.3 C 486.8 29.8 488.5 29.2 490.3 29.2 C 493.2 29.2 495.1 30.6 495.1 33.9 C 495.11 33.89 495.1 44 495.1 44 L 492.9 44 Z M 492.9 41 C 492.9 41 492.9 38.2 492.9 38.2 C 492.3 37 491.1 36.4 489.8 36.4 C 488 36.4 486.9 37.8 486.9 39.6 C 486.9 41.4 488 42.8 489.8 42.8 C 491.1 42.8 492.3 42.2 492.9 41 Z M 506 44 L 506 31.4 L 504.1 31.4 L 504.1 29.5 L 506 29.5 C 506 29.5 506 27.77 506 27.8 C 506 25.2 507.4 23.7 509.6 23.7 C 510.6 23.7 511.5 24 512.2 24.7 C 512.2 24.7 511.4 26.2 511.4 26.2 C 511 25.8 510.5 25.5 510 25.5 C 508.8 25.5 508.2 26.4 508.2 27.8 C 508.16 27.77 508.2 29.5 508.2 29.5 L 510.6 29.5 L 510.6 31.4 L 508.2 31.4 L 508.2 44 L 506 44 Z M 513.1 44 L 513.1 29.5 L 515.2 29.5 C 515.2 29.5 515.24 31.85 515.2 31.8 C 516.2 30.3 517.6 29.2 519.3 29.2 C 519.3 29.2 519.3 31.5 519.3 31.5 C 519.1 31.4 518.9 31.4 518.6 31.4 C 517.3 31.4 515.8 32.5 515.2 33.7 C 515.24 33.74 515.2 44 515.2 44 L 513.1 44 Z M 521.4 47.8 C 521.7 47.9 522.1 48 522.4 48 C 523.2 48 523.7 47.7 524.1 46.5 C 524.09 46.55 524.9 44.3 524.9 44.3 L 520 29.5 L 522.4 29.5 L 526 41.4 L 529.6 29.5 L 531.9 29.5 C 531.9 29.5 526.13 47.09 526.1 47.1 C 525.4 49.2 524.2 49.9 522.5 49.9 C 522.1 49.9 521.4 49.8 521.1 49.7 C 521.1 49.7 521.4 47.8 521.4 47.8 Z M 545.9 42.5 C 548.3 42.5 549.4 39.9 549.4 36.8 C 549.4 33.6 548.3 31.1 545.9 31.1 C 544.6 31.1 543.2 32.2 542.7 33.5 C 542.7 33.5 542.7 40.1 542.7 40.1 C 543.2 41.4 544.6 42.5 545.9 42.5 Z M 540.5 44 L 540.5 24 L 542.7 24 C 542.7 24 542.66 31.64 542.7 31.6 C 543.6 30 545 29.2 546.5 29.2 C 549.7 29.2 551.7 32.3 551.7 36.8 C 551.7 41.4 549.7 44.4 546.5 44.4 C 544.9 44.4 543.5 43.4 542.7 42 C 542.66 41.96 542.7 44 542.7 44 L 540.5 44 Z M 562.4 44 C 562.4 44 562.37 42.47 562.4 42.5 C 561.4 43.8 560 44.4 558.6 44.4 C 556.2 44.4 554.2 42.6 554.2 39.6 C 554.2 36.5 556.2 34.8 558.6 34.8 C 560 34.8 561.5 35.4 562.4 36.6 C 562.4 36.6 562.4 34.1 562.4 34.1 C 562.4 32.1 561.3 31 559.4 31 C 558 31 556.9 31.5 555.8 32.8 C 555.8 32.8 554.8 31.3 554.8 31.3 C 556.2 29.8 557.9 29.2 559.7 29.2 C 562.6 29.2 564.5 30.6 564.5 33.9 C 564.53 33.89 564.5 44 564.5 44 L 562.4 44 Z M 562.4 41 C 562.4 41 562.4 38.2 562.4 38.2 C 561.7 37 560.5 36.4 559.2 36.4 C 557.4 36.4 556.4 37.8 556.4 39.6 C 556.4 41.4 557.4 42.8 559.2 42.8 C 560.5 42.8 561.7 42.2 562.4 41 Z M 567.3 42.3 C 567.3 42.3 568.4 40.8 568.4 40.8 C 569.2 41.8 570.6 42.6 572.1 42.6 C 573.8 42.6 574.9 41.7 574.9 40.3 C 574.9 36.9 567.7 38.1 567.7 33.1 C 567.7 30.9 569.4 29.2 572.3 29.2 C 574.2 29.2 575.7 29.9 576.7 31 C 576.7 31 575.7 32.5 575.7 32.5 C 575 31.5 573.8 30.9 572.4 30.9 C 570.8 30.9 569.8 31.8 569.8 33 C 569.8 36.1 577 35 577 40.2 C 577 42.6 575.1 44.4 572.2 44.4 C 570.1 44.4 568.5 43.7 567.3 42.3 Z M 588.2 44 L 584.2 37.5 L 582.2 40.1 L 582.2 44 L 580.1 44 L 580.1 24 L 582.2 24 L 582.2 37.4 L 588.2 29.5 L 590.8 29.5 L 585.7 36 L 590.8 44 L 588.2 44 Z M 592.4 36.8 C 592.4 32.6 594.6 29.2 598.2 29.2 C 602.1 29.2 604 32.6 604 36.8 C 603.98 36.83 604 37.5 604 37.5 C 604 37.5 594.59 37.49 594.6 37.5 C 594.7 40.4 596.2 42.6 598.8 42.6 C 600 42.6 601.3 42 602.2 40.8 C 602.2 40.8 603.3 42.1 603.3 42.1 C 602.2 43.5 600.5 44.4 598.6 44.4 C 594.7 44.4 592.4 41.2 592.4 36.8 Z M 598.2 31 C 595.7 31 594.6 33.8 594.6 35.9 C 594.6 35.9 601.8 35.9 601.8 35.9 C 601.8 33.7 600.9 31 598.2 31 Z M 607.5 41.1 C 607.55 41.12 607.5 31.4 607.5 31.4 L 605.6 31.4 L 605.6 29.5 L 607.5 29.5 L 607.5 25.6 L 609.7 25.6 L 609.7 29.5 L 612.2 29.5 L 612.2 31.4 L 609.7 31.4 C 609.7 31.4 609.71 40.73 609.7 40.7 C 609.7 41.8 610 42.5 610.9 42.5 C 611.4 42.5 611.9 42.2 612.1 41.9 C 612.1 41.9 612.8 43.5 612.8 43.5 C 612.3 44 611.6 44.4 610.5 44.4 C 608.5 44.4 607.5 43.3 607.5 41.1 Z " stroke="none" fill="#a8a6a6"/>  </g></svg>