<?xml version="1.0" standalone="no"?><!DOCTYPE svg PUBLIC "-//W3C//DTD SVG 1.1//EN" "http://www.w3.org/Graphics/SVG/1.1/DTD/svg11.dtd"><svg xmlns="http://www.w3.org/2000/svg" version="1.1" width="486px" height="189.4px" viewBox="0 0 486 189.4">  <desc>A sweet treat, this food reveals how in the past finishing a meal is often marked by eating even more food</desc>  <defs/>  <g id="Polygon193726">    <path d="M 24.1 163.6 C 24.1 163.6 24.14 149.6 24.1 149.6 C 24.1 147.5 23.3 146.4 21.5 146.4 C 19.7 146.4 18 147.9 17.3 149.4 C 17.26 149.44 17.3 163.6 17.3 163.6 L 14.4 163.6 C 14.4 163.6 14.38 149.6 14.4 149.6 C 14.4 147.5 13.5 146.4 11.7 146.4 C 9.9 146.4 8.3 147.9 7.5 149.4 C 7.46 149.44 7.5 163.6 7.5 163.6 L 4.6 163.6 L 4.6 144.3 L 7.5 144.3 C 7.5 144.3 7.46 147.04 7.5 147 C 8.3 145.6 10.4 143.8 12.7 143.8 C 15.2 143.8 16.7 145.2 17.1 147.2 C 18.1 145.5 20.2 143.8 22.5 143.8 C 25.4 143.8 27 145.4 27 148.8 C 27.02 148.84 27 163.6 27 163.6 L 24.1 163.6 Z M 31.3 153.9 C 31.3 148.5 34.1 143.8 39.2 143.8 C 44.4 143.8 47.1 148.5 47.1 153.9 C 47.1 159.4 44.4 164.1 39.2 164.1 C 34.1 164.1 31.3 159.4 31.3 153.9 Z M 44.1 153.9 C 44.1 150 42.6 146.4 39.2 146.4 C 35.9 146.4 34.3 150 34.3 153.9 C 34.3 157.8 35.9 161.5 39.2 161.5 C 42.6 161.5 44.1 157.8 44.1 153.9 Z M 51.4 163.6 L 51.4 144.3 L 54.2 144.3 C 54.2 144.3 54.22 147.36 54.2 147.4 C 55.5 145.3 57.3 143.9 59.7 143.9 C 59.7 143.9 59.7 146.8 59.7 146.8 C 59.4 146.8 59.1 146.7 58.7 146.7 C 57 146.7 55 148.3 54.2 149.9 C 54.22 149.88 54.2 163.6 54.2 163.6 L 51.4 163.6 Z M 62.1 153.9 C 62.1 148.3 65 143.8 69.9 143.8 C 75 143.8 77.5 148.4 77.5 154 C 77.54 154 77.5 154.9 77.5 154.9 C 77.5 154.9 65.02 154.88 65 154.9 C 65.1 158.8 67.1 161.7 70.6 161.7 C 72.3 161.7 74 160.8 75.2 159.3 C 75.2 159.3 76.7 161 76.7 161 C 75.1 162.9 72.9 164.1 70.3 164.1 C 65.2 164.1 62.1 159.8 62.1 153.9 Z M 69.9 146.2 C 66.5 146.2 65.1 149.9 65 152.8 C 65 152.8 74.7 152.8 74.7 152.8 C 74.7 149.8 73.4 146.2 69.9 146.2 Z M 91 163.6 L 91 146.8 L 88.5 146.8 L 88.5 144.3 L 91 144.3 C 91 144.3 91.02 141.92 91 141.9 C 91 138.6 92.9 136.5 95.9 136.5 C 97.1 136.5 98.3 136.9 99.3 137.8 C 99.3 137.8 98.2 139.8 98.2 139.8 C 97.7 139.3 97.1 139 96.3 139 C 94.7 139 93.9 140 93.9 141.9 C 93.9 141.92 93.9 144.3 93.9 144.3 L 97.2 144.3 L 97.2 146.8 L 93.9 146.8 L 93.9 163.6 L 91 163.6 Z M 99.5 153.9 C 99.5 148.5 102.3 143.8 107.4 143.8 C 112.6 143.8 115.3 148.5 115.3 153.9 C 115.3 159.4 112.6 164.1 107.4 164.1 C 102.3 164.1 99.5 159.4 99.5 153.9 Z M 112.3 153.9 C 112.3 150 110.8 146.4 107.4 146.4 C 104.1 146.4 102.5 150 102.5 153.9 C 102.5 157.8 104.1 161.5 107.4 161.5 C 110.8 161.5 112.3 157.8 112.3 153.9 Z M 118.6 153.9 C 118.6 148.5 121.3 143.8 126.5 143.8 C 131.7 143.8 134.3 148.5 134.3 153.9 C 134.3 159.4 131.7 164.1 126.5 164.1 C 121.3 164.1 118.6 159.4 118.6 153.9 Z M 131.3 153.9 C 131.3 150 129.9 146.4 126.5 146.4 C 123.1 146.4 121.6 150 121.6 153.9 C 121.6 157.8 123.1 161.5 126.5 161.5 C 129.9 161.5 131.3 157.8 131.3 153.9 Z M 149.7 163.6 C 149.7 163.6 149.7 160.84 149.7 160.8 C 148.6 162.8 146.7 164.1 144.6 164.1 C 140.3 164.1 137.7 160 137.7 154 C 137.7 148 140.3 143.8 144.6 143.8 C 146.6 143.8 148.5 144.9 149.7 147.1 C 149.7 147.08 149.7 136.9 149.7 136.9 L 152.6 136.9 L 152.6 163.6 L 149.7 163.6 Z M 149.7 158.4 C 149.7 158.4 149.7 149.5 149.7 149.5 C 149 147.8 147.2 146.4 145.3 146.4 C 142.2 146.4 140.7 149.8 140.7 154 C 140.7 158.1 142.2 161.5 145.3 161.5 C 147.2 161.5 149 160.1 149.7 158.4 Z M 157.7 161.8 C 157.7 160.7 158.6 159.7 159.8 159.7 C 160.9 159.7 161.9 160.7 161.9 161.8 C 161.9 163 160.9 164 159.8 164 C 158.6 164 157.7 163 157.7 161.8 Z " stroke="none" fill="#b13d24"/>  </g>  <g id="Polygon193725">    <path d="M 4.1 95.5 C 4.1 94.4 5 93.6 6 93.6 C 7.1 93.6 8 94.4 8 95.5 C 8 96.6 7.1 97.5 6 97.5 C 5 97.5 4.1 96.6 4.1 95.5 Z M 4.6 119.6 L 4.6 100.3 L 7.5 100.3 L 7.5 119.6 L 4.6 119.6 Z M 11.2 117.4 C 11.2 117.4 12.6 115.3 12.6 115.3 C 13.7 116.7 15.6 117.8 17.7 117.8 C 19.9 117.8 21.4 116.5 21.4 114.6 C 21.4 110.1 11.7 111.7 11.7 105 C 11.7 102.1 14.1 99.8 17.9 99.8 C 20.5 99.8 22.4 100.8 23.8 102.3 C 23.8 102.3 22.4 104.2 22.4 104.2 C 21.5 103 19.8 102.1 17.9 102.1 C 15.8 102.1 14.5 103.4 14.5 104.9 C 14.5 109 24.1 107.6 24.1 114.6 C 24.1 117.8 21.7 120.1 17.7 120.1 C 15 120.1 12.8 119.2 11.2 117.4 Z M 35.9 109.9 C 35.9 104.5 38.6 99.8 43.7 99.8 C 48.9 99.8 51.6 104.5 51.6 109.9 C 51.6 115.4 48.9 120.1 43.7 120.1 C 38.6 120.1 35.9 115.4 35.9 109.9 Z M 48.6 109.9 C 48.6 106 47.1 102.4 43.7 102.4 C 40.4 102.4 38.9 106 38.9 109.9 C 38.9 113.8 40.4 117.5 43.7 117.5 C 47.1 117.5 48.6 113.8 48.6 109.9 Z M 56.6 119.6 L 56.6 102.8 L 54 102.8 L 54 100.3 L 56.6 100.3 C 56.6 100.3 56.58 97.92 56.6 97.9 C 56.6 94.6 58.4 92.5 61.4 92.5 C 62.7 92.5 63.9 92.9 64.9 93.8 C 64.9 93.8 63.7 95.8 63.7 95.8 C 63.2 95.3 62.6 95 61.9 95 C 60.3 95 59.5 96 59.5 97.9 C 59.46 97.92 59.5 100.3 59.5 100.3 L 62.7 100.3 L 62.7 102.8 L 59.5 102.8 L 59.5 119.6 L 56.6 119.6 Z M 66.6 115.7 C 66.62 115.72 66.6 102.8 66.6 102.8 L 64.1 102.8 L 64.1 100.3 L 66.6 100.3 L 66.6 95 L 69.5 95 L 69.5 100.3 L 72.8 100.3 L 72.8 102.8 L 69.5 102.8 C 69.5 102.8 69.5 115.2 69.5 115.2 C 69.5 116.7 69.9 117.5 71.1 117.5 C 71.8 117.5 72.4 117.2 72.7 116.8 C 72.7 116.8 73.6 118.9 73.6 118.9 C 72.9 119.6 72 120.1 70.5 120.1 C 67.9 120.1 66.6 118.6 66.6 115.7 Z M 75.6 109.9 C 75.6 104.3 78.6 99.8 83.5 99.8 C 88.5 99.8 91.1 104.4 91.1 110 C 91.1 110 91.1 110.9 91.1 110.9 C 91.1 110.9 78.58 110.88 78.6 110.9 C 78.7 114.8 80.7 117.7 84.1 117.7 C 85.8 117.7 87.5 116.8 88.7 115.3 C 88.7 115.3 90.3 117 90.3 117 C 88.7 118.9 86.5 120.1 83.9 120.1 C 78.7 120.1 75.6 115.8 75.6 109.9 Z M 83.4 102.2 C 80 102.2 78.7 105.9 78.6 108.8 C 78.6 108.8 88.3 108.8 88.3 108.8 C 88.2 105.8 86.9 102.2 83.4 102.2 Z M 105.7 119.6 C 105.7 119.6 105.74 105.84 105.7 105.8 C 105.7 103.3 104.6 102.4 102.7 102.4 C 100.8 102.4 99 103.8 98.1 105.4 C 98.14 105.44 98.1 119.6 98.1 119.6 L 95.3 119.6 L 95.3 100.3 L 98.1 100.3 C 98.1 100.3 98.14 103.04 98.1 103 C 99.3 101.4 101.4 99.8 103.7 99.8 C 107 99.8 108.6 101.6 108.6 105 C 108.62 105.04 108.6 119.6 108.6 119.6 L 105.7 119.6 Z M 142 119.6 C 142 119.6 142.02 105.6 142 105.6 C 142 103.5 141.2 102.4 139.3 102.4 C 137.6 102.4 135.9 103.9 135.1 105.4 C 135.14 105.44 135.1 119.6 135.1 119.6 L 132.3 119.6 C 132.3 119.6 132.26 105.6 132.3 105.6 C 132.3 103.5 131.4 102.4 129.5 102.4 C 127.8 102.4 126.2 103.9 125.3 105.4 C 125.34 105.44 125.3 119.6 125.3 119.6 L 122.5 119.6 L 122.5 100.3 L 125.3 100.3 C 125.3 100.3 125.34 103.04 125.3 103 C 126.1 101.6 128.3 99.8 130.6 99.8 C 133.1 99.8 134.6 101.2 135 103.2 C 135.9 101.5 138.1 99.8 140.4 99.8 C 143.3 99.8 144.9 101.4 144.9 104.8 C 144.9 104.84 144.9 119.6 144.9 119.6 L 142 119.6 Z M 160.1 119.6 C 160.1 119.6 160.1 117.52 160.1 117.5 C 158.9 119.3 157 120.1 155 120.1 C 151.9 120.1 149.2 117.7 149.2 113.6 C 149.2 109.6 151.9 107.3 155 107.3 C 157 107.3 158.9 108 160.1 109.8 C 160.1 109.8 160.1 106.4 160.1 106.4 C 160.1 103.8 158.7 102.3 156.1 102.3 C 154.3 102.3 152.8 103 151.3 104.6 C 151.3 104.6 150 102.6 150 102.6 C 151.9 100.7 154.1 99.8 156.6 99.8 C 160.4 99.8 163 101.7 163 106.1 C 162.98 106.08 163 119.6 163 119.6 L 160.1 119.6 Z M 160.1 115.6 C 160.1 115.6 160.1 111.9 160.1 111.9 C 159.2 110.2 157.6 109.4 155.9 109.4 C 153.5 109.4 152.1 111.3 152.1 113.7 C 152.1 116.1 153.5 118 155.9 118 C 157.6 118 159.2 117.2 160.1 115.6 Z M 168.2 119.6 L 168.2 100.3 L 171.1 100.3 C 171.1 100.3 171.06 103.36 171.1 103.4 C 172.3 101.3 174.2 99.9 176.5 99.9 C 176.5 99.9 176.5 102.8 176.5 102.8 C 176.2 102.8 175.9 102.7 175.6 102.7 C 173.8 102.7 171.9 104.3 171.1 105.9 C 171.06 105.88 171.1 119.6 171.1 119.6 L 168.2 119.6 Z M 190.7 119.6 L 185.4 110.9 L 182.7 114.4 L 182.7 119.6 L 179.9 119.6 L 179.9 92.9 L 182.7 92.9 L 182.7 110.8 L 190.7 100.3 L 194.1 100.3 L 187.4 109 L 194.1 119.6 L 190.7 119.6 Z M 196.3 109.9 C 196.3 104.3 199.2 99.8 204.1 99.8 C 209.2 99.8 211.7 104.4 211.7 110 C 211.74 110 211.7 110.9 211.7 110.9 C 211.7 110.9 199.22 110.88 199.2 110.9 C 199.3 114.8 201.3 117.7 204.8 117.7 C 206.5 117.7 208.2 116.8 209.4 115.3 C 209.4 115.3 210.9 117 210.9 117 C 209.3 118.9 207.1 120.1 204.5 120.1 C 199.4 120.1 196.3 115.8 196.3 109.9 Z M 204.1 102.2 C 200.7 102.2 199.3 105.9 199.2 108.8 C 199.2 108.8 208.9 108.8 208.9 108.8 C 208.9 105.8 207.6 102.2 204.1 102.2 Z M 227 119.6 C 227 119.6 226.98 116.84 227 116.8 C 225.9 118.8 223.9 120.1 221.9 120.1 C 217.6 120.1 215 116 215 110 C 215 104 217.5 99.8 221.9 99.8 C 223.9 99.8 225.8 100.9 227 103.1 C 226.98 103.08 227 92.9 227 92.9 L 229.9 92.9 L 229.9 119.6 L 227 119.6 Z M 227 114.4 C 227 114.4 227 105.5 227 105.5 C 226.3 103.8 224.5 102.4 222.6 102.4 C 219.5 102.4 218 105.8 218 110 C 218 114.1 219.5 117.5 222.6 117.5 C 224.5 117.5 226.3 116.1 227 114.4 Z M 250.9 117.5 C 254.1 117.5 255.6 114.1 255.6 110 C 255.6 105.8 254.1 102.4 250.9 102.4 C 249.1 102.4 247.3 103.9 246.6 105.6 C 246.6 105.6 246.6 114.4 246.6 114.4 C 247.3 116.1 249.1 117.5 250.9 117.5 Z M 243.7 119.6 L 243.7 92.9 L 246.6 92.9 C 246.6 92.9 246.58 103.08 246.6 103.1 C 247.8 100.9 249.7 99.8 251.7 99.8 C 256 99.8 258.6 104 258.6 110 C 258.6 116 256 120.1 251.7 120.1 C 249.6 120.1 247.7 118.8 246.6 116.8 C 246.58 116.84 246.6 119.6 246.6 119.6 L 243.7 119.6 Z M 262.4 124.6 C 262.7 124.8 263.3 124.9 263.7 124.9 C 264.8 124.9 265.4 124.4 265.9 123 C 265.94 122.96 267 120 267 120 L 260.5 100.3 L 263.7 100.3 L 268.5 116.1 L 273.3 100.3 L 276.4 100.3 C 276.4 100.3 268.66 123.68 268.7 123.7 C 267.7 126.5 266.1 127.4 263.9 127.4 C 263.3 127.4 262.4 127.3 261.9 127.2 C 261.9 127.2 262.4 124.6 262.4 124.6 Z M 286.9 109.9 C 286.9 104.3 289.9 99.8 294.7 99.8 C 299.8 99.8 302.4 104.4 302.4 110 C 302.38 110 302.4 110.9 302.4 110.9 C 302.4 110.9 289.86 110.88 289.9 110.9 C 290 114.8 292 117.7 295.4 117.7 C 297.1 117.7 298.8 116.8 300 115.3 C 300 115.3 301.5 117 301.5 117 C 300 118.9 297.8 120.1 295.2 120.1 C 290 120.1 286.9 115.8 286.9 109.9 Z M 294.7 102.2 C 291.3 102.2 289.9 105.9 289.9 108.8 C 289.9 108.8 299.5 108.8 299.5 108.8 C 299.5 105.8 298.2 102.2 294.7 102.2 Z M 316.5 119.6 C 316.5 119.6 316.5 117.52 316.5 117.5 C 315.3 119.3 313.4 120.1 311.4 120.1 C 308.3 120.1 305.6 117.7 305.6 113.6 C 305.6 109.6 308.3 107.3 311.4 107.3 C 313.4 107.3 315.3 108 316.5 109.8 C 316.5 109.8 316.5 106.4 316.5 106.4 C 316.5 103.8 315.1 102.3 312.5 102.3 C 310.7 102.3 309.2 103 307.7 104.6 C 307.7 104.6 306.4 102.6 306.4 102.6 C 308.3 100.7 310.5 99.8 313 99.8 C 316.8 99.8 319.4 101.7 319.4 106.1 C 319.38 106.08 319.4 119.6 319.4 119.6 L 316.5 119.6 Z M 316.5 115.6 C 316.5 115.6 316.5 111.9 316.5 111.9 C 315.6 110.2 314 109.4 312.3 109.4 C 309.9 109.4 308.5 111.3 308.5 113.7 C 308.5 116.1 309.9 118 312.3 118 C 314 118 315.6 117.2 316.5 115.6 Z M 325.2 115.7 C 325.18 115.72 325.2 102.8 325.2 102.8 L 322.6 102.8 L 322.6 100.3 L 325.2 100.3 L 325.2 95 L 328.1 95 L 328.1 100.3 L 331.3 100.3 L 331.3 102.8 L 328.1 102.8 C 328.1 102.8 328.06 115.2 328.1 115.2 C 328.1 116.7 328.5 117.5 329.6 117.5 C 330.3 117.5 330.9 117.2 331.3 116.8 C 331.3 116.8 332.2 118.9 332.2 118.9 C 331.5 119.6 330.5 120.1 329.1 120.1 C 326.4 120.1 325.2 118.6 325.2 115.7 Z M 334.6 95.5 C 334.6 94.4 335.5 93.6 336.5 93.6 C 337.6 93.6 338.5 94.4 338.5 95.5 C 338.5 96.6 337.6 97.5 336.5 97.5 C 335.5 97.5 334.6 96.6 334.6 95.5 Z M 335.1 119.6 L 335.1 100.3 L 338 100.3 L 338 119.6 L 335.1 119.6 Z M 353.7 119.6 C 353.7 119.6 353.7 105.84 353.7 105.8 C 353.7 103.3 352.5 102.4 350.6 102.4 C 348.7 102.4 347 103.8 346.1 105.4 C 346.1 105.44 346.1 119.6 346.1 119.6 L 343.3 119.6 L 343.3 100.3 L 346.1 100.3 C 346.1 100.3 346.1 103.04 346.1 103 C 347.2 101.4 349.4 99.8 351.7 99.8 C 355 99.8 356.6 101.6 356.6 105 C 356.58 105.04 356.6 119.6 356.6 119.6 L 353.7 119.6 Z M 361.7 125 C 361.7 125 363 122.8 363 122.8 C 364.3 124.2 365.9 125 368.1 125 C 370.7 125 372.9 123.5 372.9 119.8 C 372.9 119.8 372.9 116.5 372.9 116.5 C 371.8 118.5 369.9 119.8 367.8 119.8 C 363.5 119.8 360.9 115.9 360.9 109.8 C 360.9 103.8 363.5 99.8 367.8 99.8 C 369.8 99.8 371.7 100.9 372.9 103.1 C 372.9 103.08 372.9 100.3 372.9 100.3 L 375.8 100.3 C 375.8 100.3 375.78 119.56 375.8 119.6 C 375.8 125.5 372.2 127.4 368.1 127.4 C 365.5 127.4 363.5 126.8 361.7 125 Z M 372.9 114.1 C 372.9 114.1 372.9 105.5 372.9 105.5 C 372.2 103.8 370.4 102.4 368.5 102.4 C 365.4 102.4 363.9 105.7 363.9 109.8 C 363.9 114 365.4 117.3 368.5 117.3 C 370.4 117.3 372.2 115.8 372.9 114.1 Z M 388.7 109.9 C 388.7 104.3 391.6 99.8 396.5 99.8 C 401.6 99.8 404.1 104.4 404.1 110 C 404.14 110 404.1 110.9 404.1 110.9 C 404.1 110.9 391.62 110.88 391.6 110.9 C 391.7 114.8 393.7 117.7 397.2 117.7 C 398.9 117.7 400.6 116.8 401.8 115.3 C 401.8 115.3 403.3 117 403.3 117 C 401.7 118.9 399.5 120.1 396.9 120.1 C 391.8 120.1 388.7 115.8 388.7 109.9 Z M 396.5 102.2 C 393.1 102.2 391.7 105.9 391.6 108.8 C 391.6 108.8 401.3 108.8 401.3 108.8 C 401.3 105.8 400 102.2 396.5 102.2 Z M 412.3 119.6 L 405.9 100.3 L 409.1 100.3 L 413.9 116.2 L 418.7 100.3 L 421.8 100.3 L 415.4 119.6 L 412.3 119.6 Z M 423.7 109.9 C 423.7 104.3 426.7 99.8 431.5 99.8 C 436.6 99.8 439.2 104.4 439.2 110 C 439.17 110 439.2 110.9 439.2 110.9 C 439.2 110.9 426.65 110.88 426.7 110.9 C 426.8 114.8 428.8 117.7 432.2 117.7 C 433.9 117.7 435.6 116.8 436.8 115.3 C 436.8 115.3 438.3 117 438.3 117 C 436.8 118.9 434.6 120.1 432 120.1 C 426.8 120.1 423.7 115.8 423.7 109.9 Z M 431.5 102.2 C 428.1 102.2 426.7 105.9 426.7 108.8 C 426.7 108.8 436.3 108.8 436.3 108.8 C 436.3 105.8 435 102.2 431.5 102.2 Z M 453.8 119.6 C 453.8 119.6 453.81 105.84 453.8 105.8 C 453.8 103.3 452.7 102.4 450.7 102.4 C 448.9 102.4 447.1 103.8 446.2 105.4 C 446.21 105.44 446.2 119.6 446.2 119.6 L 443.4 119.6 L 443.4 100.3 L 446.2 100.3 C 446.2 100.3 446.21 103.04 446.2 103 C 447.3 101.4 449.5 99.8 451.8 99.8 C 455.1 99.8 456.7 101.6 456.7 105 C 456.69 105.04 456.7 119.6 456.7 119.6 L 453.8 119.6 Z " stroke="none" fill="#b13d24"/>  </g>  <g id="Polygon193724">    <path d="M 15.1 75.6 C 15.1 75.6 15.1 61.8 15.1 61.8 C 15.1 59.2 13.9 58.4 12 58.4 C 10.1 58.4 8.3 59.8 7.5 61.4 C 7.46 61.44 7.5 75.6 7.5 75.6 L 4.6 75.6 L 4.6 48.9 L 7.5 48.9 C 7.5 48.9 7.46 59.04 7.5 59 C 8.6 57.4 10.8 55.8 13.1 55.8 C 16.4 55.8 17.9 57.4 17.9 61 C 17.94 60.96 17.9 75.6 17.9 75.6 L 15.1 75.6 Z M 22.3 65.9 C 22.3 60.5 25 55.8 30.1 55.8 C 35.3 55.8 38 60.5 38 65.9 C 38 71.4 35.3 76.1 30.1 76.1 C 25 76.1 22.3 71.4 22.3 65.9 Z M 35 65.9 C 35 62 33.5 58.4 30.1 58.4 C 26.8 58.4 25.3 62 25.3 65.9 C 25.3 69.8 26.8 73.5 30.1 73.5 C 33.5 73.5 35 69.8 35 65.9 Z M 56.5 75.6 L 52.4 60.1 L 48.3 75.6 L 45.3 75.6 L 40.2 56.3 L 43.2 56.3 L 46.9 71.7 L 51 56.3 L 53.7 56.3 L 57.9 71.7 L 61.7 56.3 L 64.7 56.3 L 59.5 75.6 L 56.5 75.6 Z M 75.9 51.5 C 75.9 50.4 76.8 49.6 77.8 49.6 C 78.9 49.6 79.8 50.4 79.8 51.5 C 79.8 52.6 78.9 53.5 77.8 53.5 C 76.8 53.5 75.9 52.6 75.9 51.5 Z M 76.4 75.6 L 76.4 56.3 L 79.3 56.3 L 79.3 75.6 L 76.4 75.6 Z M 95 75.6 C 95 75.6 94.98 61.84 95 61.8 C 95 59.3 93.8 58.4 91.9 58.4 C 90 58.4 88.3 59.8 87.4 61.4 C 87.38 61.44 87.4 75.6 87.4 75.6 L 84.5 75.6 L 84.5 56.3 L 87.4 56.3 C 87.4 56.3 87.38 59.04 87.4 59 C 88.5 57.4 90.7 55.8 93 55.8 C 96.3 55.8 97.9 57.6 97.9 61 C 97.86 61.04 97.9 75.6 97.9 75.6 L 95 75.6 Z M 112.3 71.7 C 112.3 71.72 112.3 58.8 112.3 58.8 L 109.7 58.8 L 109.7 56.3 L 112.3 56.3 L 112.3 51 L 115.2 51 L 115.2 56.3 L 118.5 56.3 L 118.5 58.8 L 115.2 58.8 C 115.2 58.8 115.18 71.2 115.2 71.2 C 115.2 72.7 115.6 73.5 116.7 73.5 C 117.5 73.5 118.1 73.2 118.4 72.8 C 118.4 72.8 119.3 74.9 119.3 74.9 C 118.6 75.6 117.7 76.1 116.2 76.1 C 113.5 76.1 112.3 74.6 112.3 71.7 Z M 132.7 75.6 C 132.7 75.6 132.74 61.8 132.7 61.8 C 132.7 59.2 131.5 58.4 129.6 58.4 C 127.7 58.4 126 59.8 125.1 61.4 C 125.1 61.44 125.1 75.6 125.1 75.6 L 122.3 75.6 L 122.3 48.9 L 125.1 48.9 C 125.1 48.9 125.1 59.04 125.1 59 C 126.2 57.4 128.4 55.8 130.7 55.8 C 134 55.8 135.6 57.4 135.6 61 C 135.58 60.96 135.6 75.6 135.6 75.6 L 132.7 75.6 Z M 139.9 65.9 C 139.9 60.3 142.9 55.8 147.7 55.8 C 152.8 55.8 155.4 60.4 155.4 66 C 155.38 66 155.4 66.9 155.4 66.9 C 155.4 66.9 142.86 66.88 142.9 66.9 C 143 70.8 145 73.7 148.4 73.7 C 150.1 73.7 151.8 72.8 153 71.3 C 153 71.3 154.5 73 154.5 73 C 153 74.9 150.8 76.1 148.2 76.1 C 143 76.1 139.9 71.8 139.9 65.9 Z M 147.7 58.2 C 144.3 58.2 142.9 61.9 142.9 64.8 C 142.9 64.8 152.5 64.8 152.5 64.8 C 152.5 61.8 151.2 58.2 147.7 58.2 Z M 171 72.8 C 171.02 72.8 171 83 171 83 L 168.2 83 L 168.2 56.3 L 171 56.3 C 171 56.3 171.02 59.04 171 59 C 172.1 57.1 174.1 55.8 176.1 55.8 C 180.5 55.8 183 59.8 183 65.9 C 183 72 180.5 76.1 176.1 76.1 C 174.1 76.1 172.2 75 171 72.8 Z M 180 65.9 C 180 61.8 178.5 58.4 175.4 58.4 C 173.6 58.4 171.8 59.8 171 61.5 C 171 61.5 171 70.3 171 70.3 C 171.8 72 173.6 73.5 175.4 73.5 C 178.5 73.5 180 70.1 180 65.9 Z M 197.2 75.6 C 197.2 75.6 197.22 73.52 197.2 73.5 C 196 75.3 194.1 76.1 192.1 76.1 C 189 76.1 186.3 73.7 186.3 69.6 C 186.3 65.6 189 63.3 192.1 63.3 C 194.1 63.3 196 64 197.2 65.8 C 197.2 65.8 197.2 62.4 197.2 62.4 C 197.2 59.8 195.8 58.3 193.3 58.3 C 191.5 58.3 189.9 59 188.4 60.6 C 188.4 60.6 187.1 58.6 187.1 58.6 C 189 56.7 191.3 55.8 193.7 55.8 C 197.5 55.8 200.1 57.7 200.1 62.1 C 200.1 62.08 200.1 75.6 200.1 75.6 L 197.2 75.6 Z M 197.2 71.6 C 197.2 71.6 197.2 67.9 197.2 67.9 C 196.3 66.2 194.7 65.4 193.1 65.4 C 190.7 65.4 189.2 67.3 189.2 69.7 C 189.2 72.1 190.7 74 193.1 74 C 194.7 74 196.3 73.2 197.2 71.6 Z M 203.8 73.4 C 203.8 73.4 205.2 71.3 205.2 71.3 C 206.3 72.7 208.2 73.8 210.3 73.8 C 212.5 73.8 214 72.5 214 70.6 C 214 66.1 204.3 67.7 204.3 61 C 204.3 58.1 206.7 55.8 210.5 55.8 C 213.1 55.8 215 56.8 216.4 58.3 C 216.4 58.3 215 60.2 215 60.2 C 214.1 59 212.4 58.1 210.5 58.1 C 208.4 58.1 207.1 59.4 207.1 60.9 C 207.1 65 216.7 63.6 216.7 70.6 C 216.7 73.8 214.3 76.1 210.3 76.1 C 207.6 76.1 205.4 75.2 203.8 73.4 Z M 221.4 71.7 C 221.38 71.72 221.4 58.8 221.4 58.8 L 218.8 58.8 L 218.8 56.3 L 221.4 56.3 L 221.4 51 L 224.3 51 L 224.3 56.3 L 227.5 56.3 L 227.5 58.8 L 224.3 58.8 C 224.3 58.8 224.26 71.2 224.3 71.2 C 224.3 72.7 224.7 73.5 225.8 73.5 C 226.5 73.5 227.1 73.2 227.5 72.8 C 227.5 72.8 228.4 74.9 228.4 74.9 C 227.7 75.6 226.7 76.1 225.3 76.1 C 222.6 76.1 221.4 74.6 221.4 71.7 Z M 240.6 75.6 L 240.6 58.8 L 238.1 58.8 L 238.1 56.3 L 240.6 56.3 C 240.6 56.3 240.62 53.92 240.6 53.9 C 240.6 50.5 242.5 48.5 245.3 48.5 C 246.3 48.5 247.1 48.7 247.8 49.1 C 247.8 49.1 247.1 51.4 247.1 51.4 C 246.8 51.1 246.4 51 245.8 51 C 244.3 51 243.5 52 243.5 53.9 C 243.5 53.92 243.5 56.3 243.5 56.3 L 246.8 56.3 L 246.8 58.8 L 243.5 58.8 L 243.5 75.6 L 240.6 75.6 Z M 249.5 51.5 C 249.5 50.4 250.5 49.6 251.5 49.6 C 252.6 49.6 253.5 50.4 253.5 51.5 C 253.5 52.6 252.6 53.5 251.5 53.5 C 250.5 53.5 249.5 52.6 249.5 51.5 Z M 250.1 75.6 L 250.1 56.3 L 252.9 56.3 L 252.9 75.6 L 250.1 75.6 Z M 268.7 75.6 C 268.7 75.6 268.66 61.84 268.7 61.8 C 268.7 59.3 267.5 58.4 265.6 58.4 C 263.7 58.4 261.9 59.8 261.1 61.4 C 261.06 61.44 261.1 75.6 261.1 75.6 L 258.2 75.6 L 258.2 56.3 L 261.1 56.3 C 261.1 56.3 261.06 59.04 261.1 59 C 262.2 57.4 264.3 55.8 266.7 55.8 C 269.9 55.8 271.5 57.6 271.5 61 C 271.54 61.04 271.5 75.6 271.5 75.6 L 268.7 75.6 Z M 276.3 51.5 C 276.3 50.4 277.2 49.6 278.2 49.6 C 279.3 49.6 280.2 50.4 280.2 51.5 C 280.2 52.6 279.3 53.5 278.2 53.5 C 277.2 53.5 276.3 52.6 276.3 51.5 Z M 276.8 75.6 L 276.8 56.3 L 279.7 56.3 L 279.7 75.6 L 276.8 75.6 Z M 283.4 73.4 C 283.4 73.4 284.8 71.3 284.8 71.3 C 285.9 72.7 287.8 73.8 289.9 73.8 C 292.1 73.8 293.6 72.5 293.6 70.6 C 293.6 66.1 283.9 67.7 283.9 61 C 283.9 58.1 286.3 55.8 290.1 55.8 C 292.7 55.8 294.6 56.8 296 58.3 C 296 58.3 294.6 60.2 294.6 60.2 C 293.7 59 292 58.1 290.1 58.1 C 288 58.1 286.7 59.4 286.7 60.9 C 286.7 65 296.3 63.6 296.3 70.6 C 296.3 73.8 293.9 76.1 289.9 76.1 C 287.2 76.1 285 75.2 283.4 73.4 Z M 310.9 75.6 C 310.9 75.6 310.9 61.8 310.9 61.8 C 310.9 59.2 309.7 58.4 307.8 58.4 C 305.9 58.4 304.1 59.8 303.3 61.4 C 303.26 61.44 303.3 75.6 303.3 75.6 L 300.4 75.6 L 300.4 48.9 L 303.3 48.9 C 303.3 48.9 303.26 59.04 303.3 59 C 304.4 57.4 306.6 55.8 308.9 55.8 C 312.2 55.8 313.7 57.4 313.7 61 C 313.74 60.96 313.7 75.6 313.7 75.6 L 310.9 75.6 Z M 318.5 51.5 C 318.5 50.4 319.4 49.6 320.4 49.6 C 321.5 49.6 322.4 50.4 322.4 51.5 C 322.4 52.6 321.5 53.5 320.4 53.5 C 319.4 53.5 318.5 52.6 318.5 51.5 Z M 319 75.6 L 319 56.3 L 321.9 56.3 L 321.9 75.6 L 319 75.6 Z M 337.6 75.6 C 337.6 75.6 337.58 61.84 337.6 61.8 C 337.6 59.3 336.4 58.4 334.5 58.4 C 332.6 58.4 330.9 59.8 330 61.4 C 329.98 61.44 330 75.6 330 75.6 L 327.1 75.6 L 327.1 56.3 L 330 56.3 C 330 56.3 329.98 59.04 330 59 C 331.1 57.4 333.3 55.8 335.6 55.8 C 338.9 55.8 340.5 57.6 340.5 61 C 340.46 61.04 340.5 75.6 340.5 75.6 L 337.6 75.6 Z M 345.6 81 C 345.6 81 346.9 78.8 346.9 78.8 C 348.2 80.2 349.8 81 351.9 81 C 354.6 81 356.8 79.5 356.8 75.8 C 356.8 75.8 356.8 72.5 356.8 72.5 C 355.7 74.5 353.7 75.8 351.7 75.8 C 347.4 75.8 344.8 71.9 344.8 65.8 C 344.8 59.8 347.3 55.8 351.7 55.8 C 353.7 55.8 355.6 56.9 356.8 59.1 C 356.78 59.08 356.8 56.3 356.8 56.3 L 359.7 56.3 C 359.7 56.3 359.66 75.56 359.7 75.6 C 359.7 81.5 356.1 83.4 352 83.4 C 349.4 83.4 347.4 82.8 345.6 81 Z M 356.8 70.1 C 356.8 70.1 356.8 61.5 356.8 61.5 C 356.1 59.8 354.3 58.4 352.4 58.4 C 349.3 58.4 347.8 61.7 347.8 65.8 C 347.8 70 349.3 73.3 352.4 73.3 C 354.3 73.3 356.1 71.8 356.8 70.1 Z M 383.4 75.6 C 383.4 75.6 383.42 73.52 383.4 73.5 C 382.2 75.3 380.3 76.1 378.3 76.1 C 375.2 76.1 372.5 73.7 372.5 69.6 C 372.5 65.6 375.2 63.3 378.3 63.3 C 380.3 63.3 382.2 64 383.4 65.8 C 383.4 65.8 383.4 62.4 383.4 62.4 C 383.4 59.8 382 58.3 379.5 58.3 C 377.7 58.3 376.1 59 374.6 60.6 C 374.6 60.6 373.3 58.6 373.3 58.6 C 375.2 56.7 377.5 55.8 379.9 55.8 C 383.7 55.8 386.3 57.7 386.3 62.1 C 386.3 62.08 386.3 75.6 386.3 75.6 L 383.4 75.6 Z M 383.4 71.6 C 383.4 71.6 383.4 67.9 383.4 67.9 C 382.5 66.2 380.9 65.4 379.3 65.4 C 376.9 65.4 375.4 67.3 375.4 69.7 C 375.4 72.1 376.9 74 379.3 74 C 380.9 74 382.5 73.2 383.4 71.6 Z M 419.7 75.6 C 419.7 75.6 419.66 61.6 419.7 61.6 C 419.7 59.5 418.8 58.4 417 58.4 C 415.3 58.4 413.5 59.9 412.8 61.4 C 412.78 61.44 412.8 75.6 412.8 75.6 L 409.9 75.6 C 409.9 75.6 409.9 61.6 409.9 61.6 C 409.9 59.5 409.1 58.4 407.2 58.4 C 405.5 58.4 403.8 59.9 403 61.4 C 402.98 61.44 403 75.6 403 75.6 L 400.1 75.6 L 400.1 56.3 L 403 56.3 C 403 56.3 402.98 59.04 403 59 C 403.8 57.6 405.9 55.8 408.3 55.8 C 410.7 55.8 412.3 57.2 412.6 59.2 C 413.6 57.5 415.7 55.8 418.1 55.8 C 420.9 55.8 422.5 57.4 422.5 60.8 C 422.54 60.84 422.5 75.6 422.5 75.6 L 419.7 75.6 Z M 426.9 65.9 C 426.9 60.3 429.8 55.8 434.7 55.8 C 439.8 55.8 442.3 60.4 442.3 66 C 442.34 66 442.3 66.9 442.3 66.9 C 442.3 66.9 429.82 66.88 429.8 66.9 C 429.9 70.8 431.9 73.7 435.4 73.7 C 437.1 73.7 438.8 72.8 440 71.3 C 440 71.3 441.5 73 441.5 73 C 439.9 74.9 437.7 76.1 435.1 76.1 C 430 76.1 426.9 71.8 426.9 65.9 Z M 434.7 58.2 C 431.3 58.2 429.9 61.9 429.8 64.8 C 429.8 64.8 439.5 64.8 439.5 64.8 C 439.5 61.8 438.2 58.2 434.7 58.2 Z M 456.5 75.6 C 456.5 75.6 456.45 73.52 456.5 73.5 C 455.2 75.3 453.3 76.1 451.4 76.1 C 448.3 76.1 445.5 73.7 445.5 69.6 C 445.5 65.6 448.2 63.3 451.4 63.3 C 453.3 63.3 455.3 64 456.5 65.8 C 456.5 65.8 456.5 62.4 456.5 62.4 C 456.5 59.8 455 58.3 452.5 58.3 C 450.7 58.3 449.1 59 447.7 60.6 C 447.7 60.6 446.4 58.6 446.4 58.6 C 448.2 56.7 450.5 55.8 452.9 55.8 C 456.8 55.8 459.3 57.7 459.3 62.1 C 459.33 62.08 459.3 75.6 459.3 75.6 L 456.5 75.6 Z M 456.5 71.6 C 456.5 71.6 456.5 67.9 456.5 67.9 C 455.6 66.2 454 65.4 452.3 65.4 C 449.9 65.4 448.5 67.3 448.5 69.7 C 448.5 72.1 449.9 74 452.3 74 C 454 74 455.6 73.2 456.5 71.6 Z M 464.6 75.6 L 464.6 48.9 L 467.4 48.9 L 467.4 75.6 L 464.6 75.6 Z " stroke="none" fill="#b13d24"/>  </g>  <g id="Polygon193723">    <path d="M 18.7 31.6 L 16.9 25.6 L 7.5 25.6 L 5.7 31.6 L 2.3 31.6 L 10.3 4.9 L 14.1 4.9 L 22.1 31.6 L 18.7 31.6 Z M 12.2 8.4 L 8.1 22.8 L 16.3 22.8 L 12.2 8.4 Z M 32.1 29.4 C 32.1 29.4 33.5 27.3 33.5 27.3 C 34.7 28.7 36.5 29.8 38.6 29.8 C 40.8 29.8 42.3 28.5 42.3 26.6 C 42.3 22.1 32.7 23.7 32.7 17 C 32.7 14.1 35 11.8 38.8 11.8 C 41.4 11.8 43.3 12.8 44.7 14.3 C 44.7 14.3 43.3 16.2 43.3 16.2 C 42.4 15 40.7 14.1 38.9 14.1 C 36.7 14.1 35.4 15.4 35.4 16.9 C 35.4 21 45.1 19.6 45.1 26.6 C 45.1 29.8 42.6 32.1 38.6 32.1 C 35.9 32.1 33.7 31.2 32.1 29.4 Z M 63.4 31.6 L 59.3 16.1 L 55.1 31.6 L 52.2 31.6 L 47 12.3 L 50 12.3 L 53.8 27.7 L 57.9 12.3 L 60.6 12.3 L 64.7 27.7 L 68.5 12.3 L 71.5 12.3 L 66.3 31.6 L 63.4 31.6 Z M 73.7 21.9 C 73.7 16.3 76.7 11.8 81.5 11.8 C 86.6 11.8 89.2 16.4 89.2 22 C 89.18 22 89.2 22.9 89.2 22.9 C 89.2 22.9 76.66 22.88 76.7 22.9 C 76.8 26.8 78.8 29.7 82.2 29.7 C 83.9 29.7 85.6 28.8 86.8 27.3 C 86.8 27.3 88.3 29 88.3 29 C 86.8 30.9 84.6 32.1 82 32.1 C 76.8 32.1 73.7 27.8 73.7 21.9 Z M 81.5 14.2 C 78.1 14.2 76.7 17.9 76.7 20.8 C 76.7 20.8 86.3 20.8 86.3 20.8 C 86.3 17.8 85 14.2 81.5 14.2 Z M 92.4 21.9 C 92.4 16.3 95.4 11.8 100.3 11.8 C 105.3 11.8 107.9 16.4 107.9 22 C 107.9 22 107.9 22.9 107.9 22.9 C 107.9 22.9 95.38 22.88 95.4 22.9 C 95.5 26.8 97.5 29.7 100.9 29.7 C 102.6 29.7 104.3 28.8 105.5 27.3 C 105.5 27.3 107.1 29 107.1 29 C 105.5 30.9 103.3 32.1 100.7 32.1 C 95.5 32.1 92.4 27.8 92.4 21.9 Z M 100.2 14.2 C 96.8 14.2 95.5 17.9 95.4 20.8 C 95.4 20.8 105.1 20.8 105.1 20.8 C 105 17.8 103.7 14.2 100.2 14.2 Z M 112.7 27.7 C 112.66 27.72 112.7 14.8 112.7 14.8 L 110.1 14.8 L 110.1 12.3 L 112.7 12.3 L 112.7 7 L 115.5 7 L 115.5 12.3 L 118.8 12.3 L 118.8 14.8 L 115.5 14.8 C 115.5 14.8 115.54 27.2 115.5 27.2 C 115.5 28.7 116 29.5 117.1 29.5 C 117.8 29.5 118.4 29.2 118.8 28.8 C 118.8 28.8 119.7 30.9 119.7 30.9 C 119 31.6 118 32.1 116.5 32.1 C 113.9 32.1 112.7 30.6 112.7 27.7 Z M 131.8 27.7 C 131.78 27.72 131.8 14.8 131.8 14.8 L 129.2 14.8 L 129.2 12.3 L 131.8 12.3 L 131.8 7 L 134.7 7 L 134.7 12.3 L 137.9 12.3 L 137.9 14.8 L 134.7 14.8 C 134.7 14.8 134.66 27.2 134.7 27.2 C 134.7 28.7 135.1 29.5 136.2 29.5 C 136.9 29.5 137.5 29.2 137.9 28.8 C 137.9 28.8 138.8 30.9 138.8 30.9 C 138.1 31.6 137.1 32.1 135.7 32.1 C 133 32.1 131.8 30.6 131.8 27.7 Z M 141.7 31.6 L 141.7 12.3 L 144.6 12.3 C 144.6 12.3 144.58 15.36 144.6 15.4 C 145.8 13.3 147.7 11.9 150.1 11.9 C 150.1 11.9 150.1 14.8 150.1 14.8 C 149.7 14.8 149.4 14.7 149.1 14.7 C 147.3 14.7 145.4 16.3 144.6 17.9 C 144.58 17.88 144.6 31.6 144.6 31.6 L 141.7 31.6 Z M 152.4 21.9 C 152.4 16.3 155.4 11.8 160.3 11.8 C 165.3 11.8 167.9 16.4 167.9 22 C 167.9 22 167.9 22.9 167.9 22.9 C 167.9 22.9 155.38 22.88 155.4 22.9 C 155.5 26.8 157.5 29.7 160.9 29.7 C 162.6 29.7 164.3 28.8 165.5 27.3 C 165.5 27.3 167.1 29 167.1 29 C 165.5 30.9 163.3 32.1 160.7 32.1 C 155.5 32.1 152.4 27.8 152.4 21.9 Z M 160.2 14.2 C 156.8 14.2 155.5 17.9 155.4 20.8 C 155.4 20.8 165.1 20.8 165.1 20.8 C 165 17.8 163.7 14.2 160.2 14.2 Z M 182 31.6 C 182 31.6 182.02 29.52 182 29.5 C 180.8 31.3 178.9 32.1 176.9 32.1 C 173.8 32.1 171.1 29.7 171.1 25.6 C 171.1 21.6 173.8 19.3 176.9 19.3 C 178.9 19.3 180.8 20 182 21.8 C 182 21.8 182 18.4 182 18.4 C 182 15.8 180.6 14.3 178.1 14.3 C 176.3 14.3 174.7 15 173.2 16.6 C 173.2 16.6 171.9 14.6 171.9 14.6 C 173.8 12.7 176.1 11.8 178.5 11.8 C 182.3 11.8 184.9 13.7 184.9 18.1 C 184.9 18.08 184.9 31.6 184.9 31.6 L 182 31.6 Z M 182 27.6 C 182 27.6 182 23.9 182 23.9 C 181.1 22.2 179.5 21.4 177.9 21.4 C 175.5 21.4 174 23.3 174 25.7 C 174 28.1 175.5 30 177.9 30 C 179.5 30 181.1 29.2 182 27.6 Z M 190.7 27.7 C 190.7 27.72 190.7 14.8 190.7 14.8 L 188.1 14.8 L 188.1 12.3 L 190.7 12.3 L 190.7 7 L 193.6 7 L 193.6 12.3 L 196.9 12.3 L 196.9 14.8 L 193.6 14.8 C 193.6 14.8 193.58 27.2 193.6 27.2 C 193.6 28.7 194 29.5 195.1 29.5 C 195.9 29.5 196.5 29.2 196.8 28.8 C 196.8 28.8 197.7 30.9 197.7 30.9 C 197 31.6 196.1 32.1 194.6 32.1 C 191.9 32.1 190.7 30.6 190.7 27.7 Z M 201.7 36.6 C 201.7 36.6 200.3 35.5 200.3 35.5 C 201.6 34.6 202.7 33 202.9 31.8 C 202.8 31.8 202.5 31.8 202.3 31.8 C 201.3 31.8 200.5 31 200.5 29.8 C 200.5 28.7 201.3 27.7 202.5 27.7 C 203.8 27.7 204.9 28.8 204.9 30.7 C 204.9 33.1 203.5 35.4 201.7 36.6 Z M 218.9 27.7 C 218.94 27.72 218.9 14.8 218.9 14.8 L 216.4 14.8 L 216.4 12.3 L 218.9 12.3 L 218.9 7 L 221.8 7 L 221.8 12.3 L 225.1 12.3 L 225.1 14.8 L 221.8 14.8 C 221.8 14.8 221.82 27.2 221.8 27.2 C 221.8 28.7 222.3 29.5 223.4 29.5 C 224.1 29.5 224.7 29.2 225.1 28.8 C 225.1 28.8 225.9 30.9 225.9 30.9 C 225.3 31.6 224.3 32.1 222.8 32.1 C 220.2 32.1 218.9 30.6 218.9 27.7 Z M 239.4 31.6 C 239.4 31.6 239.38 17.8 239.4 17.8 C 239.4 15.2 238.2 14.4 236.3 14.4 C 234.4 14.4 232.6 15.8 231.7 17.4 C 231.74 17.44 231.7 31.6 231.7 31.6 L 228.9 31.6 L 228.9 4.9 L 231.7 4.9 C 231.7 4.9 231.74 15.04 231.7 15 C 232.9 13.4 235.1 11.8 237.4 11.8 C 240.7 11.8 242.2 13.4 242.2 17 C 242.22 16.96 242.2 31.6 242.2 31.6 L 239.4 31.6 Z M 246.9 7.5 C 246.9 6.4 247.9 5.6 248.9 5.6 C 250 5.6 250.9 6.4 250.9 7.5 C 250.9 8.6 250 9.5 248.9 9.5 C 247.9 9.5 246.9 8.6 246.9 7.5 Z M 247.5 31.6 L 247.5 12.3 L 250.3 12.3 L 250.3 31.6 L 247.5 31.6 Z M 254.1 29.4 C 254.1 29.4 255.5 27.3 255.5 27.3 C 256.6 28.7 258.5 29.8 260.5 29.8 C 262.8 29.8 264.3 28.5 264.3 26.6 C 264.3 22.1 254.6 23.7 254.6 17 C 254.6 14.1 256.9 11.8 260.8 11.8 C 263.3 11.8 265.3 12.8 266.7 14.3 C 266.7 14.3 265.3 16.2 265.3 16.2 C 264.3 15 262.7 14.1 260.8 14.1 C 258.7 14.1 257.4 15.4 257.4 16.9 C 257.4 21 267 19.6 267 26.6 C 267 29.8 264.5 32.1 260.6 32.1 C 257.9 32.1 255.7 31.2 254.1 29.4 Z M 280.4 31.6 L 280.4 14.8 L 277.8 14.8 L 277.8 12.3 L 280.4 12.3 C 280.4 12.3 280.38 9.92 280.4 9.9 C 280.4 6.6 282.2 4.5 285.2 4.5 C 286.5 4.5 287.7 4.9 288.7 5.8 C 288.7 5.8 287.5 7.8 287.5 7.8 C 287 7.3 286.4 7 285.7 7 C 284.1 7 283.3 8 283.3 9.9 C 283.26 9.92 283.3 12.3 283.3 12.3 L 286.5 12.3 L 286.5 14.8 L 283.3 14.8 L 283.3 31.6 L 280.4 31.6 Z M 288.9 21.9 C 288.9 16.5 291.6 11.8 296.7 11.8 C 301.9 11.8 304.6 16.5 304.6 21.9 C 304.6 27.4 301.9 32.1 296.7 32.1 C 291.6 32.1 288.9 27.4 288.9 21.9 Z M 301.6 21.9 C 301.6 18 300.1 14.4 296.7 14.4 C 293.4 14.4 291.9 18 291.9 21.9 C 291.9 25.8 293.4 29.5 296.7 29.5 C 300.1 29.5 301.6 25.8 301.6 21.9 Z M 308 21.9 C 308 16.5 310.7 11.8 315.8 11.8 C 321 11.8 323.7 16.5 323.7 21.9 C 323.7 27.4 321 32.1 315.8 32.1 C 310.7 32.1 308 27.4 308 21.9 Z M 320.7 21.9 C 320.7 18 319.2 14.4 315.8 14.4 C 312.5 14.4 311 18 311 21.9 C 311 25.8 312.5 29.5 315.8 29.5 C 319.2 29.5 320.7 25.8 320.7 21.9 Z M 339.1 31.6 C 339.1 31.6 339.06 28.84 339.1 28.8 C 337.9 30.8 336 32.1 334 32.1 C 329.7 32.1 327.1 28 327.1 22 C 327.1 16 329.6 11.8 334 11.8 C 335.9 11.8 337.9 12.9 339.1 15.1 C 339.06 15.08 339.1 4.9 339.1 4.9 L 341.9 4.9 L 341.9 31.6 L 339.1 31.6 Z M 339.1 26.4 C 339.1 26.4 339.1 17.5 339.1 17.5 C 338.3 15.8 336.5 14.4 334.7 14.4 C 331.5 14.4 330.1 17.8 330.1 22 C 330.1 26.1 331.5 29.5 334.7 29.5 C 336.5 29.5 338.3 28.1 339.1 26.4 Z M 355.8 31.6 L 355.8 12.3 L 358.7 12.3 C 358.7 12.3 358.66 15.36 358.7 15.4 C 359.9 13.3 361.8 11.9 364.1 11.9 C 364.1 11.9 364.1 14.8 364.1 14.8 C 363.8 14.8 363.5 14.7 363.2 14.7 C 361.4 14.7 359.5 16.3 358.7 17.9 C 358.66 17.88 358.7 31.6 358.7 31.6 L 355.8 31.6 Z M 366.5 21.9 C 366.5 16.3 369.5 11.8 374.3 11.8 C 379.4 11.8 382 16.4 382 22 C 381.97 22 382 22.9 382 22.9 C 382 22.9 369.45 22.88 369.5 22.9 C 369.6 26.8 371.6 29.7 375 29.7 C 376.7 29.7 378.4 28.8 379.6 27.3 C 379.6 27.3 381.1 29 381.1 29 C 379.6 30.9 377.4 32.1 374.8 32.1 C 369.6 32.1 366.5 27.8 366.5 21.9 Z M 374.3 14.2 C 370.9 14.2 369.5 17.9 369.5 20.8 C 369.5 20.8 379.1 20.8 379.1 20.8 C 379.1 17.8 377.8 14.2 374.3 14.2 Z M 390.1 31.6 L 383.8 12.3 L 386.9 12.3 L 391.7 28.2 L 396.5 12.3 L 399.6 12.3 L 393.3 31.6 L 390.1 31.6 Z M 401.5 21.9 C 401.5 16.3 404.5 11.8 409.4 11.8 C 414.5 11.8 417 16.4 417 22 C 417.01 22 417 22.9 417 22.9 C 417 22.9 404.49 22.88 404.5 22.9 C 404.6 26.8 406.6 29.7 410.1 29.7 C 411.7 29.7 413.5 28.8 414.7 27.3 C 414.7 27.3 416.2 29 416.2 29 C 414.6 30.9 412.4 32.1 409.8 32.1 C 404.7 32.1 401.5 27.8 401.5 21.9 Z M 409.3 14.2 C 405.9 14.2 404.6 17.9 404.5 20.8 C 404.5 20.8 414.2 20.8 414.2 20.8 C 414.1 17.8 412.9 14.2 409.3 14.2 Z M 431.1 31.6 C 431.1 31.6 431.13 29.52 431.1 29.5 C 429.9 31.3 428 32.1 426.1 32.1 C 422.9 32.1 420.2 29.7 420.2 25.6 C 420.2 21.6 422.9 19.3 426.1 19.3 C 428 19.3 429.9 20 431.1 21.8 C 431.1 21.8 431.1 18.4 431.1 18.4 C 431.1 15.8 429.7 14.3 427.2 14.3 C 425.4 14.3 423.8 15 422.3 16.6 C 422.3 16.6 421.1 14.6 421.1 14.6 C 422.9 12.7 425.2 11.8 427.6 11.8 C 431.5 11.8 434 13.7 434 18.1 C 434.01 18.08 434 31.6 434 31.6 L 431.1 31.6 Z M 431.1 27.6 C 431.1 27.6 431.1 23.9 431.1 23.9 C 430.3 22.2 428.7 21.4 427 21.4 C 424.6 21.4 423.1 23.3 423.1 25.7 C 423.1 28.1 424.6 30 427 30 C 428.7 30 430.3 29.2 431.1 27.6 Z M 439.3 31.6 L 439.3 4.9 L 442.1 4.9 L 442.1 31.6 L 439.3 31.6 Z M 445.8 29.4 C 445.8 29.4 447.3 27.3 447.3 27.3 C 448.4 28.7 450.2 29.8 452.3 29.8 C 454.5 29.8 456 28.5 456 26.6 C 456 22.1 446.4 23.7 446.4 17 C 446.4 14.1 448.7 11.8 452.5 11.8 C 455.1 11.8 457.1 12.8 458.4 14.3 C 458.4 14.3 457.1 16.2 457.1 16.2 C 456.1 15 454.5 14.1 452.6 14.1 C 450.5 14.1 449.1 15.4 449.1 16.9 C 449.1 21 458.8 19.6 458.8 26.6 C 458.8 29.8 456.3 32.1 452.3 32.1 C 449.6 32.1 447.4 31.2 445.8 29.4 Z " stroke="none" fill="#b13d24"/>  </g></svg>