<?xml version="1.0" standalone="no"?><!DOCTYPE svg PUBLIC "-//W3C//DTD SVG 1.1//EN" "http://www.w3.org/Graphics/SVG/1.1/DTD/svg11.dtd"><svg xmlns="http://www.w3.org/2000/svg" version="1.1" width="682px" height="104px" viewBox="0 0 682 104">  <desc>A slice of blackforest cake Jurong East, Singapore, circa September 2018 (recovered)</desc>  <defs/>  <g id="Polygon142200">    <path d="M 84 72.8 C 84 72.8 84.9 71.4 84.9 71.4 C 85.5 72.1 86.3 72.6 87.3 72.6 C 88.8 72.6 89.8 71.6 89.8 69.9 C 89.8 69.87 89.8 58 89.8 58 L 91.7 58 C 91.7 58 91.7 69.92 91.7 69.9 C 91.7 72.9 89.9 74.3 87.4 74.3 C 86.1 74.3 85 73.9 84 72.8 Z M 101.2 74 C 101.2 74 101.23 72.42 101.2 72.4 C 100.5 73.4 99.3 74.3 97.9 74.3 C 95.9 74.3 95 73.3 95 71.2 C 94.96 71.22 95 62.4 95 62.4 L 96.7 62.4 C 96.7 62.4 96.67 70.71 96.7 70.7 C 96.7 72.2 97.4 72.8 98.5 72.8 C 99.7 72.8 100.7 71.9 101.2 71 C 101.23 70.98 101.2 62.4 101.2 62.4 L 103 62.4 L 103 74 L 101.2 74 Z M 106.1 74 L 106.1 62.4 L 107.8 62.4 C 107.8 62.4 107.83 64.28 107.8 64.3 C 108.6 63.1 109.7 62.2 111.1 62.2 C 111.1 62.2 111.1 64 111.1 64 C 110.9 63.9 110.7 63.9 110.5 63.9 C 109.5 63.9 108.3 64.8 107.8 65.8 C 107.83 65.79 107.8 74 107.8 74 L 106.1 74 Z M 112.5 68.2 C 112.5 65 114.2 62.1 117.2 62.1 C 120.4 62.1 122 65 122 68.2 C 122 71.5 120.4 74.3 117.2 74.3 C 114.2 74.3 112.5 71.5 112.5 68.2 Z M 120.2 68.2 C 120.2 65.9 119.3 63.7 117.2 63.7 C 115.2 63.7 114.3 65.9 114.3 68.2 C 114.3 70.6 115.2 72.8 117.2 72.8 C 119.3 72.8 120.2 70.6 120.2 68.2 Z M 130.8 74 C 130.8 74 130.82 65.77 130.8 65.8 C 130.8 64.2 130.1 63.7 129 63.7 C 127.8 63.7 126.8 64.6 126.3 65.5 C 126.26 65.53 126.3 74 126.3 74 L 124.6 74 L 124.6 62.4 L 126.3 62.4 C 126.3 62.4 126.26 64.09 126.3 64.1 C 126.9 63.1 128.2 62.1 129.6 62.1 C 131.6 62.1 132.5 63.2 132.5 65.3 C 132.55 65.29 132.5 74 132.5 74 L 130.8 74 Z M 135.6 77.3 C 135.6 77.3 136.4 75.9 136.4 75.9 C 137.2 76.8 138.2 77.3 139.4 77.3 C 141 77.3 142.3 76.4 142.3 74.1 C 142.3 74.1 142.3 72.2 142.3 72.2 C 141.7 73.4 140.5 74.2 139.3 74.2 C 136.7 74.2 135.1 71.8 135.1 68.2 C 135.1 64.6 136.7 62.1 139.3 62.1 C 140.5 62.1 141.6 62.8 142.3 64.1 C 142.34 64.11 142.3 62.4 142.3 62.4 L 144.1 62.4 C 144.1 62.4 144.07 74 144.1 74 C 144.1 77.6 141.9 78.7 139.5 78.7 C 137.9 78.7 136.7 78.4 135.6 77.3 Z M 142.3 70.7 C 142.3 70.7 142.3 65.6 142.3 65.6 C 141.9 64.6 140.8 63.7 139.7 63.7 C 137.8 63.7 136.9 65.7 136.9 68.2 C 136.9 70.7 137.8 72.6 139.7 72.6 C 140.8 72.6 141.9 71.7 142.3 70.7 Z M 152.5 74 L 152.5 58 L 160.7 58 L 160.7 59.7 L 154.4 59.7 L 154.4 65 L 160.5 65 L 160.5 66.7 L 154.4 66.7 L 154.4 72.3 L 160.7 72.3 L 160.7 74 L 152.5 74 Z M 169.4 74 C 169.4 74 169.39 72.78 169.4 72.8 C 168.6 73.8 167.5 74.3 166.3 74.3 C 164.5 74.3 162.8 72.9 162.8 70.4 C 162.8 68 164.4 66.6 166.3 66.6 C 167.5 66.6 168.7 67.1 169.4 68.1 C 169.4 68.1 169.4 66.1 169.4 66.1 C 169.4 64.5 168.5 63.6 167 63.6 C 165.9 63.6 165 64 164.1 65 C 164.1 65 163.3 63.8 163.3 63.8 C 164.4 62.7 165.8 62.1 167.3 62.1 C 169.6 62.1 171.1 63.3 171.1 65.9 C 171.11 65.91 171.1 74 171.1 74 L 169.4 74 Z M 169.4 71.6 C 169.4 71.6 169.4 69.4 169.4 69.4 C 168.9 68.4 167.9 67.9 166.9 67.9 C 165.4 67.9 164.6 69 164.6 70.5 C 164.6 71.9 165.4 73.1 166.9 73.1 C 167.9 73.1 168.9 72.6 169.4 71.6 Z M 173.3 72.7 C 173.3 72.7 174.2 71.5 174.2 71.5 C 174.9 72.3 176 72.9 177.2 72.9 C 178.6 72.9 179.4 72.2 179.4 71 C 179.4 68.3 173.7 69.3 173.7 65.3 C 173.7 63.5 175 62.1 177.4 62.1 C 178.9 62.1 180.1 62.7 180.9 63.6 C 180.9 63.6 180.1 64.8 180.1 64.8 C 179.5 64 178.5 63.5 177.4 63.5 C 176.1 63.5 175.3 64.3 175.3 65.2 C 175.3 67.7 181.1 66.8 181.1 71 C 181.1 72.9 179.6 74.3 177.2 74.3 C 175.6 74.3 174.3 73.8 173.3 72.7 Z M 183.9 71.7 C 183.88 71.7 183.9 63.9 183.9 63.9 L 182.3 63.9 L 182.3 62.4 L 183.9 62.4 L 183.9 59.3 L 185.6 59.3 L 185.6 62.4 L 187.6 62.4 L 187.6 63.9 L 185.6 63.9 C 185.6 63.9 185.61 71.39 185.6 71.4 C 185.6 72.3 185.9 72.8 186.5 72.8 C 187 72.8 187.3 72.6 187.6 72.3 C 187.6 72.3 188.1 73.6 188.1 73.6 C 187.7 74 187.1 74.3 186.2 74.3 C 184.6 74.3 183.9 73.4 183.9 71.7 Z M 190.5 77 C 190.5 77 189.6 76.4 189.6 76.4 C 190.4 75.8 191.1 74.9 191.2 74.1 C 191.1 74.1 191 74.1 190.9 74.1 C 190.2 74.1 189.7 73.6 189.7 73 C 189.7 72.3 190.3 71.7 191 71.7 C 191.8 71.7 192.4 72.3 192.4 73.5 C 192.4 74.9 191.6 76.3 190.5 77 Z M 199.6 72.3 C 199.6 72.3 200.7 70.8 200.7 70.8 C 201.5 71.8 202.8 72.6 204.4 72.6 C 206.4 72.6 207.3 71.4 207.3 70 C 207.3 66.1 200.1 67.1 200.1 62 C 200.1 59.5 202 57.8 204.7 57.8 C 206.4 57.8 207.9 58.4 208.9 59.4 C 208.9 59.4 207.9 60.9 207.9 60.9 C 207.1 59.9 205.9 59.5 204.6 59.5 C 203.2 59.5 202 60.4 202 61.9 C 202 65.2 209.2 64.5 209.2 69.9 C 209.2 72.2 207.7 74.3 204.4 74.3 C 202.3 74.3 200.7 73.5 199.6 72.3 Z M 211.4 59.6 C 211.4 58.9 212 58.4 212.6 58.4 C 213.3 58.4 213.8 58.9 213.8 59.6 C 213.8 60.2 213.3 60.8 212.6 60.8 C 212 60.8 211.4 60.2 211.4 59.6 Z M 211.8 74 L 211.8 62.4 L 213.5 62.4 L 213.5 74 L 211.8 74 Z M 222.9 74 C 222.9 74 222.9 65.77 222.9 65.8 C 222.9 64.2 222.2 63.7 221.1 63.7 C 219.9 63.7 218.9 64.6 218.3 65.5 C 218.34 65.53 218.3 74 218.3 74 L 216.6 74 L 216.6 62.4 L 218.3 62.4 C 218.3 62.4 218.34 64.09 218.3 64.1 C 219 63.1 220.3 62.1 221.7 62.1 C 223.7 62.1 224.6 63.2 224.6 65.3 C 224.63 65.29 224.6 74 224.6 74 L 222.9 74 Z M 227.7 77.3 C 227.7 77.3 228.5 75.9 228.5 75.9 C 229.3 76.8 230.2 77.3 231.5 77.3 C 233.1 77.3 234.4 76.4 234.4 74.1 C 234.4 74.1 234.4 72.2 234.4 72.2 C 233.8 73.4 232.6 74.2 231.4 74.2 C 228.8 74.2 227.2 71.8 227.2 68.2 C 227.2 64.6 228.8 62.1 231.4 62.1 C 232.6 62.1 233.7 62.8 234.4 64.1 C 234.42 64.11 234.4 62.4 234.4 62.4 L 236.2 62.4 C 236.2 62.4 236.15 74 236.2 74 C 236.2 77.6 234 78.7 231.6 78.7 C 230 78.7 228.8 78.4 227.7 77.3 Z M 234.4 70.7 C 234.4 70.7 234.4 65.6 234.4 65.6 C 234 64.6 232.9 63.7 231.8 63.7 C 229.9 63.7 229 65.7 229 68.2 C 229 70.7 229.9 72.6 231.8 72.6 C 232.9 72.6 234 71.7 234.4 70.7 Z M 245.2 74 C 245.2 74 245.25 72.78 245.2 72.8 C 244.5 73.8 243.4 74.3 242.2 74.3 C 240.3 74.3 238.7 72.9 238.7 70.4 C 238.7 68 240.3 66.6 242.2 66.6 C 243.4 66.6 244.5 67.1 245.2 68.1 C 245.2 68.1 245.2 66.1 245.2 66.1 C 245.2 64.5 244.4 63.6 242.9 63.6 C 241.8 63.6 240.9 64 240 65 C 240 65 239.2 63.8 239.2 63.8 C 240.3 62.7 241.7 62.1 243.1 62.1 C 245.4 62.1 247 63.3 247 65.9 C 246.98 65.91 247 74 247 74 L 245.2 74 Z M 245.2 71.6 C 245.2 71.6 245.2 69.4 245.2 69.4 C 244.7 68.4 243.8 67.9 242.8 67.9 C 241.3 67.9 240.4 69 240.4 70.5 C 240.4 71.9 241.3 73.1 242.8 73.1 C 243.8 73.1 244.7 72.6 245.2 71.6 Z M 251.8 72.3 C 251.82 72.35 251.8 78.4 251.8 78.4 L 250.1 78.4 L 250.1 62.4 L 251.8 62.4 C 251.8 62.4 251.82 64.09 251.8 64.1 C 252.5 62.9 253.6 62.1 254.9 62.1 C 257.5 62.1 259 64.6 259 68.2 C 259 71.8 257.5 74.3 254.9 74.3 C 253.7 74.3 252.5 73.6 251.8 72.3 Z M 257.2 68.2 C 257.2 65.7 256.3 63.7 254.4 63.7 C 253.4 63.7 252.3 64.5 251.8 65.6 C 251.8 65.6 251.8 70.9 251.8 70.9 C 252.3 71.9 253.4 72.8 254.4 72.8 C 256.3 72.8 257.2 70.7 257.2 68.2 Z M 261 68.2 C 261 65 262.6 62.1 265.7 62.1 C 268.8 62.1 270.4 65 270.4 68.2 C 270.4 71.5 268.8 74.3 265.7 74.3 C 262.6 74.3 261 71.5 261 68.2 Z M 268.6 68.2 C 268.6 65.9 267.8 63.7 265.7 63.7 C 263.7 63.7 262.8 65.9 262.8 68.2 C 262.8 70.6 263.7 72.8 265.7 72.8 C 267.8 72.8 268.6 70.6 268.6 68.2 Z M 273 74 L 273 62.4 L 274.7 62.4 C 274.7 62.4 274.74 64.28 274.7 64.3 C 275.5 63.1 276.6 62.2 278 62.2 C 278 62.2 278 64 278 64 C 277.8 63.9 277.6 63.9 277.5 63.9 C 276.4 63.9 275.2 64.8 274.7 65.8 C 274.74 65.79 274.7 74 274.7 74 L 273 74 Z M 279.4 68.2 C 279.4 64.9 281.2 62.1 284.2 62.1 C 287.2 62.1 288.7 64.9 288.7 68.3 C 288.74 68.27 288.7 68.8 288.7 68.8 C 288.7 68.8 281.22 68.79 281.2 68.8 C 281.3 71.1 282.5 72.9 284.6 72.9 C 285.6 72.9 286.6 72.4 287.3 71.5 C 287.3 71.5 288.2 72.5 288.2 72.5 C 287.3 73.6 286 74.3 284.4 74.3 C 281.3 74.3 279.4 71.8 279.4 68.2 Z M 284.1 63.6 C 282.1 63.6 281.3 65.8 281.2 67.5 C 281.2 67.5 287 67.5 287 67.5 C 287 65.7 286.2 63.6 284.1 63.6 Z M 291.8 77 C 291.8 77 290.9 76.4 290.9 76.4 C 291.7 75.8 292.4 74.9 292.5 74.1 C 292.4 74.1 292.3 74.1 292.2 74.1 C 291.5 74.1 291 73.6 291 73 C 291 72.3 291.6 71.7 292.3 71.7 C 293.1 71.7 293.7 72.3 293.7 73.5 C 293.7 74.9 292.9 76.3 291.8 77 Z M 301.2 68.2 C 301.2 64.8 303 62.1 306 62.1 C 307.6 62.1 308.6 62.8 309.3 63.7 C 309.3 63.7 308.4 64.9 308.4 64.9 C 307.8 64 307 63.7 306.2 63.7 C 304.1 63.7 303 65.7 303 68.2 C 303 70.7 304.1 72.8 306.2 72.8 C 307 72.8 307.8 72.4 308.4 71.6 C 308.4 71.6 309.3 72.8 309.3 72.8 C 308.6 73.7 307.6 74.3 306 74.3 C 303 74.3 301.2 71.6 301.2 68.2 Z M 311.2 59.6 C 311.2 58.9 311.8 58.4 312.4 58.4 C 313 58.4 313.6 58.9 313.6 59.6 C 313.6 60.2 313 60.8 312.4 60.8 C 311.8 60.8 311.2 60.2 311.2 59.6 Z M 311.5 74 L 311.5 62.4 L 313.2 62.4 L 313.2 74 L 311.5 74 Z M 316.4 74 L 316.4 62.4 L 318.1 62.4 C 318.1 62.4 318.11 64.28 318.1 64.3 C 318.9 63.1 320 62.2 321.4 62.2 C 321.4 62.2 321.4 64 321.4 64 C 321.2 63.9 321 63.9 320.8 63.9 C 319.8 63.9 318.6 64.8 318.1 65.8 C 318.11 65.79 318.1 74 318.1 74 L 316.4 74 Z M 322.8 68.2 C 322.8 64.8 324.6 62.1 327.6 62.1 C 329.2 62.1 330.2 62.8 330.9 63.7 C 330.9 63.7 330 64.9 330 64.9 C 329.4 64 328.6 63.7 327.8 63.7 C 325.7 63.7 324.6 65.7 324.6 68.2 C 324.6 70.7 325.7 72.8 327.8 72.8 C 328.6 72.8 329.4 72.4 330 71.6 C 330 71.6 330.9 72.8 330.9 72.8 C 330.2 73.7 329.2 74.3 327.6 74.3 C 324.6 74.3 322.8 71.6 322.8 68.2 Z M 339.1 74 C 339.1 74 339.09 72.78 339.1 72.8 C 338.3 73.8 337.2 74.3 336 74.3 C 334.2 74.3 332.5 72.9 332.5 70.4 C 332.5 68 334.1 66.6 336 66.6 C 337.2 66.6 338.4 67.1 339.1 68.1 C 339.1 68.1 339.1 66.1 339.1 66.1 C 339.1 64.5 338.2 63.6 336.7 63.6 C 335.6 63.6 334.7 64 333.8 65 C 333.8 65 333 63.8 333 63.8 C 334.1 62.7 335.5 62.1 337 62.1 C 339.3 62.1 340.8 63.3 340.8 65.9 C 340.81 65.91 340.8 74 340.8 74 L 339.1 74 Z M 339.1 71.6 C 339.1 71.6 339.1 69.4 339.1 69.4 C 338.6 68.4 337.6 67.9 336.6 67.9 C 335.1 67.9 334.3 69 334.3 70.5 C 334.3 71.9 335.1 73.1 336.6 73.1 C 337.6 73.1 338.6 72.6 339.1 71.6 Z M 348.2 72.3 C 348.2 72.3 349.3 70.8 349.3 70.8 C 350.1 71.8 351.4 72.6 353 72.6 C 355 72.6 355.9 71.4 355.9 70 C 355.9 66.1 348.7 67.1 348.7 62 C 348.7 59.5 350.6 57.8 353.3 57.8 C 355.1 57.8 356.5 58.4 357.6 59.4 C 357.6 59.4 356.6 60.9 356.6 60.9 C 355.7 59.9 354.5 59.5 353.2 59.5 C 351.8 59.5 350.7 60.4 350.7 61.9 C 350.7 65.2 357.9 64.5 357.9 69.9 C 357.9 72.2 356.3 74.3 353 74.3 C 350.9 74.3 349.3 73.5 348.2 72.3 Z M 359.8 68.2 C 359.8 64.9 361.6 62.1 364.5 62.1 C 367.6 62.1 369.1 64.9 369.1 68.3 C 369.11 68.27 369.1 68.8 369.1 68.8 C 369.1 68.8 361.6 68.79 361.6 68.8 C 361.7 71.1 362.9 72.9 364.9 72.9 C 365.9 72.9 367 72.4 367.7 71.5 C 367.7 71.5 368.6 72.5 368.6 72.5 C 367.7 73.6 366.3 74.3 364.8 74.3 C 361.7 74.3 359.8 71.8 359.8 68.2 Z M 364.5 63.6 C 362.5 63.6 361.6 65.8 361.6 67.5 C 361.6 67.5 367.4 67.5 367.4 67.5 C 367.4 65.7 366.6 63.6 364.5 63.6 Z M 373.3 72.3 C 373.33 72.35 373.3 78.4 373.3 78.4 L 371.6 78.4 L 371.6 62.4 L 373.3 62.4 C 373.3 62.4 373.33 64.09 373.3 64.1 C 374 62.9 375.2 62.1 376.4 62.1 C 379 62.1 380.5 64.6 380.5 68.2 C 380.5 71.8 379 74.3 376.4 74.3 C 375.2 74.3 374.1 73.6 373.3 72.3 Z M 378.7 68.2 C 378.7 65.7 377.8 63.7 375.9 63.7 C 374.9 63.7 373.8 64.5 373.3 65.6 C 373.3 65.6 373.3 70.9 373.3 70.9 C 373.8 71.9 374.9 72.8 375.9 72.8 C 377.8 72.8 378.7 70.7 378.7 68.2 Z M 383.4 71.7 C 383.44 71.7 383.4 63.9 383.4 63.9 L 381.9 63.9 L 381.9 62.4 L 383.4 62.4 L 383.4 59.3 L 385.2 59.3 L 385.2 62.4 L 387.1 62.4 L 387.1 63.9 L 385.2 63.9 C 385.2 63.9 385.16 71.39 385.2 71.4 C 385.2 72.3 385.4 72.8 386.1 72.8 C 386.5 72.8 386.9 72.6 387.1 72.3 C 387.1 72.3 387.6 73.6 387.6 73.6 C 387.2 74 386.7 74.3 385.8 74.3 C 384.2 74.3 383.4 73.4 383.4 71.7 Z M 388.8 68.2 C 388.8 64.9 390.6 62.1 393.5 62.1 C 396.6 62.1 398.1 64.9 398.1 68.3 C 398.12 68.27 398.1 68.8 398.1 68.8 C 398.1 68.8 390.61 68.79 390.6 68.8 C 390.7 71.1 391.9 72.9 393.9 72.9 C 395 72.9 396 72.4 396.7 71.5 C 396.7 71.5 397.6 72.5 397.6 72.5 C 396.7 73.6 395.4 74.3 393.8 74.3 C 390.7 74.3 388.8 71.8 388.8 68.2 Z M 393.5 63.6 C 391.5 63.6 390.7 65.8 390.6 67.5 C 390.6 67.5 396.4 67.5 396.4 67.5 C 396.4 65.7 395.6 63.6 393.5 63.6 Z M 412.4 74 C 412.4 74 412.36 65.63 412.4 65.6 C 412.4 64.4 411.9 63.7 410.7 63.7 C 409.7 63.7 408.7 64.6 408.2 65.5 C 408.23 65.53 408.2 74 408.2 74 L 406.5 74 C 406.5 74 406.5 65.63 406.5 65.6 C 406.5 64.4 406 63.7 404.9 63.7 C 403.8 63.7 402.9 64.6 402.3 65.5 C 402.35 65.53 402.3 74 402.3 74 L 400.6 74 L 400.6 62.4 L 402.3 62.4 C 402.3 62.4 402.35 64.09 402.3 64.1 C 402.8 63.2 404.1 62.1 405.5 62.1 C 407 62.1 407.9 63 408.1 64.2 C 408.7 63.2 410 62.1 411.4 62.1 C 413.1 62.1 414.1 63.1 414.1 65.2 C 414.08 65.17 414.1 74 414.1 74 L 412.4 74 Z M 421.6 72.8 C 423.5 72.8 424.4 70.7 424.4 68.2 C 424.4 65.7 423.5 63.7 421.6 63.7 C 420.5 63.7 419.4 64.6 419 65.6 C 419 65.6 419 70.9 419 70.9 C 419.4 71.9 420.5 72.8 421.6 72.8 Z M 417.3 74 L 417.3 58 L 419 58 C 419 58 418.96 64.11 419 64.1 C 419.7 62.8 420.8 62.1 422 62.1 C 424.6 62.1 426.2 64.6 426.2 68.2 C 426.2 71.9 424.6 74.3 422 74.3 C 420.8 74.3 419.6 73.5 419 72.4 C 418.96 72.37 419 74 419 74 L 417.3 74 Z M 428.2 68.2 C 428.2 64.9 430 62.1 432.9 62.1 C 435.9 62.1 437.5 64.9 437.5 68.3 C 437.48 68.27 437.5 68.8 437.5 68.8 C 437.5 68.8 429.97 68.79 430 68.8 C 430 71.1 431.2 72.9 433.3 72.9 C 434.3 72.9 435.3 72.4 436.1 71.5 C 436.1 71.5 437 72.5 437 72.5 C 436 73.6 434.7 74.3 433.2 74.3 C 430.1 74.3 428.2 71.8 428.2 68.2 Z M 432.9 63.6 C 430.8 63.6 430 65.8 430 67.5 C 430 67.5 435.8 67.5 435.8 67.5 C 435.8 65.7 435 63.6 432.9 63.6 Z M 440 74 L 440 62.4 L 441.7 62.4 C 441.7 62.4 441.71 64.28 441.7 64.3 C 442.5 63.1 443.6 62.2 445 62.2 C 445 62.2 445 64 445 64 C 444.8 63.9 444.6 63.9 444.4 63.9 C 443.4 63.9 442.2 64.8 441.7 65.8 C 441.71 65.79 441.7 74 441.7 74 L 440 74 Z M 451.8 74 C 451.8 74 451.83 72.47 451.8 72.5 C 457.1 66.4 458.9 64.5 458.9 62.1 C 458.9 60.4 457.7 59.5 456.3 59.5 C 454.8 59.5 453.7 60.2 452.9 61.5 C 452.9 61.5 451.7 60.3 451.7 60.3 C 452.7 58.7 454.3 57.8 456.3 57.8 C 458.8 57.8 460.8 59.4 460.8 62.1 C 460.8 64.8 458.8 67.2 454.5 72.3 C 454.55 72.32 460.9 72.3 460.9 72.3 L 460.9 74 L 451.8 74 Z M 463.4 66 C 463.4 62.2 464.7 57.8 468.4 57.8 C 472.2 57.8 473.5 62.2 473.5 66 C 473.5 69.9 472.2 74.3 468.4 74.3 C 464.7 74.3 463.4 69.9 463.4 66 Z M 471.5 66 C 471.5 62.9 470.9 59.5 468.4 59.5 C 466 59.5 465.4 62.9 465.4 66 C 465.4 69.2 466 72.6 468.4 72.6 C 470.9 72.6 471.5 69.2 471.5 66 Z M 478.6 74 L 478.6 60.5 L 476.1 63.2 L 474.9 62 L 478.8 58 L 480.5 58 L 480.5 74 L 478.6 74 Z M 483.2 70.1 C 483.2 68 484.8 66.4 486.4 65.8 C 485 65.2 483.5 63.9 483.5 61.9 C 483.5 59.1 485.7 57.8 488 57.8 C 490.3 57.8 492.5 59.1 492.5 61.9 C 492.5 63.9 491 65.2 489.6 65.8 C 491.1 66.4 492.7 68 492.7 70.1 C 492.7 72.7 490.8 74.3 488 74.3 C 485.2 74.3 483.2 72.7 483.2 70.1 Z M 490.6 62.1 C 490.6 60.5 489.5 59.5 488 59.5 C 486.4 59.5 485.4 60.5 485.4 62.1 C 485.4 64.1 487.4 64.9 488 65 C 488.6 64.9 490.6 64.1 490.6 62.1 Z M 490.8 69.8 C 490.8 67.7 488.7 66.7 488 66.6 C 487.3 66.7 485.2 67.7 485.2 69.9 C 485.2 71.6 486.4 72.6 488 72.6 C 489.5 72.6 490.8 71.6 490.8 69.8 Z M 502.9 78.8 C 501.1 75.7 500.1 72.1 500.1 68.2 C 500.1 64.3 501.1 60.7 502.9 57.6 C 502.9 57.6 504 58.2 504 58.2 C 502.8 61.3 502 64.2 502 68.2 C 502 72.2 502.8 75.1 504 78.1 C 504 78.1 502.9 78.8 502.9 78.8 Z M 506 74 L 506 62.4 L 507.8 62.4 C 507.8 62.4 507.75 64.28 507.8 64.3 C 508.5 63.1 509.6 62.2 511 62.2 C 511 62.2 511 64 511 64 C 510.8 63.9 510.7 63.9 510.5 63.9 C 509.4 63.9 508.2 64.8 507.8 65.8 C 507.75 65.79 507.8 74 507.8 74 L 506 74 Z M 512.5 68.2 C 512.5 64.9 514.2 62.1 517.2 62.1 C 520.2 62.1 521.7 64.9 521.7 68.3 C 521.75 68.27 521.7 68.8 521.7 68.8 C 521.7 68.8 514.23 68.79 514.2 68.8 C 514.3 71.1 515.5 72.9 517.6 72.9 C 518.6 72.9 519.6 72.4 520.3 71.5 C 520.3 71.5 521.2 72.5 521.2 72.5 C 520.3 73.6 519 74.3 517.4 74.3 C 514.3 74.3 512.5 71.8 512.5 68.2 Z M 517.1 63.6 C 515.1 63.6 514.3 65.8 514.2 67.5 C 514.2 67.5 520 67.5 520 67.5 C 520 65.7 519.2 63.6 517.1 63.6 Z M 523.7 68.2 C 523.7 64.8 525.5 62.1 528.5 62.1 C 530.1 62.1 531.1 62.8 531.8 63.7 C 531.8 63.7 530.9 64.9 530.9 64.9 C 530.2 64 529.5 63.7 528.6 63.7 C 526.6 63.7 525.5 65.7 525.5 68.2 C 525.5 70.7 526.6 72.8 528.6 72.8 C 529.5 72.8 530.2 72.4 530.9 71.6 C 530.9 71.6 531.8 72.8 531.8 72.8 C 531.1 73.7 530.1 74.3 528.5 74.3 C 525.5 74.3 523.7 71.6 523.7 68.2 Z M 533.4 68.2 C 533.4 65 535.1 62.1 538.1 62.1 C 541.3 62.1 542.9 65 542.9 68.2 C 542.9 71.5 541.3 74.3 538.1 74.3 C 535.1 74.3 533.4 71.5 533.4 68.2 Z M 541.1 68.2 C 541.1 65.9 540.2 63.7 538.1 63.7 C 536.1 63.7 535.2 65.9 535.2 68.2 C 535.2 70.6 536.1 72.8 538.1 72.8 C 540.2 72.8 541.1 70.6 541.1 68.2 Z M 547.8 74 L 544 62.4 L 545.9 62.4 L 548.8 72 L 551.7 62.4 L 553.5 62.4 L 549.7 74 L 547.8 74 Z M 554.7 68.2 C 554.7 64.9 556.4 62.1 559.4 62.1 C 562.4 62.1 564 64.9 564 68.3 C 563.96 68.27 564 68.8 564 68.8 C 564 68.8 556.45 68.79 556.4 68.8 C 556.5 71.1 557.7 72.9 559.8 72.9 C 560.8 72.9 561.8 72.4 562.5 71.5 C 562.5 71.5 563.5 72.5 563.5 72.5 C 562.5 73.6 561.2 74.3 559.6 74.3 C 556.5 74.3 554.7 71.8 554.7 68.2 Z M 559.4 63.6 C 557.3 63.6 556.5 65.8 556.4 67.5 C 556.4 67.5 562.3 67.5 562.3 67.5 C 562.2 65.7 561.5 63.6 559.4 63.6 Z M 566.5 74 L 566.5 62.4 L 568.2 62.4 C 568.2 62.4 568.18 64.28 568.2 64.3 C 568.9 63.1 570.1 62.2 571.5 62.2 C 571.5 62.2 571.5 64 571.5 64 C 571.3 63.9 571.1 63.9 570.9 63.9 C 569.8 63.9 568.7 64.8 568.2 65.8 C 568.18 65.79 568.2 74 568.2 74 L 566.5 74 Z M 572.9 68.2 C 572.9 64.9 574.7 62.1 577.6 62.1 C 580.6 62.1 582.2 64.9 582.2 68.3 C 582.18 68.27 582.2 68.8 582.2 68.8 C 582.2 68.8 574.66 68.79 574.7 68.8 C 574.7 71.1 575.9 72.9 578 72.9 C 579 72.9 580 72.4 580.8 71.5 C 580.8 71.5 581.7 72.5 581.7 72.5 C 580.7 73.6 579.4 74.3 577.9 74.3 C 574.8 74.3 572.9 71.8 572.9 68.2 Z M 577.6 63.6 C 575.5 63.6 574.7 65.8 574.7 67.5 C 574.7 67.5 580.5 67.5 580.5 67.5 C 580.4 65.7 579.7 63.6 577.6 63.6 Z M 591.3 74 C 591.3 74 591.32 72.37 591.3 72.4 C 590.6 73.5 589.5 74.3 588.3 74.3 C 585.7 74.3 584.1 71.9 584.1 68.2 C 584.1 64.6 585.7 62.1 588.3 62.1 C 589.4 62.1 590.6 62.8 591.3 64.1 C 591.32 64.11 591.3 58 591.3 58 L 593 58 L 593 74 L 591.3 74 Z M 591.3 70.9 C 591.3 70.9 591.3 65.6 591.3 65.6 C 590.9 64.6 589.8 63.7 588.7 63.7 C 586.8 63.7 585.9 65.7 585.9 68.2 C 585.9 70.7 586.8 72.8 588.7 72.8 C 589.8 72.8 590.9 71.9 591.3 70.9 Z M 595.1 78.1 C 596.3 75.1 597.1 72.2 597.1 68.2 C 597.1 64.2 596.3 61.3 595.1 58.2 C 595.1 58.2 596.2 57.6 596.2 57.6 C 598 60.7 599 64.3 599 68.2 C 599 72.1 598 75.7 596.2 78.8 C 596.2 78.8 595.1 78.1 595.1 78.1 Z " stroke="none" fill="#7c7979"/>  </g>  <g id="Polygon142199">    <path d="M 209.8 44 L 208.5 39.5 L 201.4 39.5 L 200.1 44 L 197.5 44 L 203.5 24 L 206.4 24 L 212.4 44 L 209.8 44 Z M 204.9 26.7 L 201.9 37.4 L 208 37.4 L 204.9 26.7 Z M 219.9 42.3 C 219.9 42.3 221 40.8 221 40.8 C 221.8 41.8 223.2 42.6 224.7 42.6 C 226.4 42.6 227.5 41.7 227.5 40.3 C 227.5 36.9 220.3 38.1 220.3 33.1 C 220.3 30.9 222 29.2 224.9 29.2 C 226.8 29.2 228.3 29.9 229.3 31 C 229.3 31 228.3 32.5 228.3 32.5 C 227.6 31.5 226.4 30.9 225 30.9 C 223.4 30.9 222.4 31.8 222.4 33 C 222.4 36.1 229.6 35 229.6 40.2 C 229.6 42.6 227.7 44.4 224.8 44.4 C 222.7 44.4 221.1 43.7 219.9 42.3 Z M 232.7 44 L 232.7 24 L 234.8 24 L 234.8 44 L 232.7 44 Z M 238.3 26 C 238.3 25.2 239 24.5 239.8 24.5 C 240.6 24.5 241.3 25.2 241.3 26 C 241.3 26.8 240.6 27.4 239.8 27.4 C 239 27.4 238.3 26.8 238.3 26 Z M 238.7 44 L 238.7 29.5 L 240.9 29.5 L 240.9 44 L 238.7 44 Z M 244.1 36.8 C 244.1 32.5 246.4 29.2 250.1 29.2 C 252.1 29.2 253.4 30 254.3 31.1 C 254.3 31.1 253.1 32.6 253.1 32.6 C 252.3 31.5 251.4 31.1 250.3 31.1 C 247.7 31.1 246.4 33.7 246.4 36.8 C 246.4 39.9 247.7 42.5 250.3 42.5 C 251.4 42.5 252.3 42 253.1 41 C 253.1 41 254.3 42.5 254.3 42.5 C 253.4 43.6 252.1 44.4 250.1 44.4 C 246.4 44.4 244.1 41.1 244.1 36.8 Z M 256.3 36.8 C 256.3 32.6 258.5 29.2 262.2 29.2 C 266 29.2 267.9 32.6 267.9 36.8 C 267.91 36.83 267.9 37.5 267.9 37.5 C 267.9 37.5 258.52 37.49 258.5 37.5 C 258.6 40.4 260.1 42.6 262.7 42.6 C 263.9 42.6 265.2 42 266.1 40.8 C 266.1 40.8 267.3 42.1 267.3 42.1 C 266.1 43.5 264.5 44.4 262.5 44.4 C 258.6 44.4 256.3 41.2 256.3 36.8 Z M 262.1 31 C 259.6 31 258.6 33.8 258.5 35.9 C 258.5 35.9 265.8 35.9 265.8 35.9 C 265.7 33.7 264.8 31 262.1 31 Z M 276.8 36.8 C 276.8 32.7 278.8 29.2 282.7 29.2 C 286.6 29.2 288.6 32.7 288.6 36.8 C 288.6 40.8 286.6 44.4 282.7 44.4 C 278.8 44.4 276.8 40.8 276.8 36.8 Z M 286.3 36.8 C 286.3 33.9 285.2 31.1 282.7 31.1 C 280.2 31.1 279 33.9 279 36.8 C 279 39.7 280.2 42.5 282.7 42.5 C 285.2 42.5 286.3 39.7 286.3 36.8 Z M 292.3 44 L 292.3 31.4 L 290.4 31.4 L 290.4 29.5 L 292.3 29.5 C 292.3 29.5 292.33 27.77 292.3 27.8 C 292.3 25.2 293.7 23.7 296 23.7 C 296.9 23.7 297.8 24 298.5 24.7 C 298.5 24.7 297.7 26.2 297.7 26.2 C 297.3 25.8 296.9 25.5 296.3 25.5 C 295.1 25.5 294.5 26.4 294.5 27.8 C 294.49 27.77 294.5 29.5 294.5 29.5 L 296.9 29.5 L 296.9 31.4 L 294.5 31.4 L 294.5 44 L 292.3 44 Z M 311.3 42.5 C 313.7 42.5 314.8 39.9 314.8 36.8 C 314.8 33.6 313.7 31.1 311.3 31.1 C 309.9 31.1 308.6 32.2 308 33.5 C 308 33.5 308 40.1 308 40.1 C 308.6 41.4 309.9 42.5 311.3 42.5 Z M 305.9 44 L 305.9 24 L 308 24 C 308 24 308.02 31.64 308 31.6 C 308.9 30 310.4 29.2 311.8 29.2 C 315.1 29.2 317 32.3 317 36.8 C 317 41.4 315.1 44.4 311.8 44.4 C 310.3 44.4 308.9 43.4 308 42 C 308.02 41.96 308 44 308 44 L 305.9 44 Z M 320.3 44 L 320.3 24 L 322.4 24 L 322.4 44 L 320.3 44 Z M 333.8 44 C 333.8 44 333.82 42.47 333.8 42.5 C 332.9 43.8 331.5 44.4 330 44.4 C 327.7 44.4 325.6 42.6 325.6 39.6 C 325.6 36.5 327.6 34.8 330 34.8 C 331.5 34.8 332.9 35.4 333.8 36.6 C 333.8 36.6 333.8 34.1 333.8 34.1 C 333.8 32.1 332.7 31 330.8 31 C 329.5 31 328.3 31.5 327.2 32.8 C 327.2 32.8 326.3 31.3 326.3 31.3 C 327.6 29.8 329.3 29.2 331.2 29.2 C 334.1 29.2 336 30.6 336 33.9 C 335.98 33.89 336 44 336 44 L 333.8 44 Z M 333.8 41 C 333.8 41 333.8 38.2 333.8 38.2 C 333.2 37 332 36.4 330.7 36.4 C 328.9 36.4 327.8 37.8 327.8 39.6 C 327.8 41.4 328.9 42.8 330.7 42.8 C 332 42.8 333.2 42.2 333.8 41 Z M 339.2 36.8 C 339.2 32.5 341.5 29.2 345.2 29.2 C 347.2 29.2 348.4 30 349.3 31.1 C 349.3 31.1 348.2 32.6 348.2 32.6 C 347.4 31.5 346.5 31.1 345.4 31.1 C 342.8 31.1 341.4 33.7 341.4 36.8 C 341.4 39.9 342.8 42.5 345.4 42.5 C 346.5 42.5 347.4 42 348.2 41 C 348.2 41 349.3 42.5 349.3 42.5 C 348.4 43.6 347.2 44.4 345.2 44.4 C 341.5 44.4 339.2 41.1 339.2 36.8 Z M 360.2 44 L 356.3 37.5 L 354.2 40.1 L 354.2 44 L 352.1 44 L 352.1 24 L 354.2 24 L 354.2 37.4 L 360.2 29.5 L 362.8 29.5 L 357.7 36 L 362.8 44 L 360.2 44 Z M 365.7 44 L 365.7 31.4 L 363.8 31.4 L 363.8 29.5 L 365.7 29.5 C 365.7 29.5 365.74 27.77 365.7 27.8 C 365.7 25.2 367.1 23.7 369.4 23.7 C 370.3 23.7 371.2 24 371.9 24.7 C 371.9 24.7 371.1 26.2 371.1 26.2 C 370.7 25.8 370.3 25.5 369.7 25.5 C 368.5 25.5 367.9 26.4 367.9 27.8 C 367.9 27.77 367.9 29.5 367.9 29.5 L 370.4 29.5 L 370.4 31.4 L 367.9 31.4 L 367.9 44 L 365.7 44 Z M 372.1 36.8 C 372.1 32.7 374.2 29.2 378 29.2 C 381.9 29.2 383.9 32.7 383.9 36.8 C 383.9 40.8 381.9 44.4 378 44.4 C 374.2 44.4 372.1 40.8 372.1 36.8 Z M 381.7 36.8 C 381.7 33.9 380.6 31.1 378 31.1 C 375.5 31.1 374.4 33.9 374.4 36.8 C 374.4 39.7 375.5 42.5 378 42.5 C 380.6 42.5 381.7 39.7 381.7 36.8 Z M 387.2 44 L 387.2 29.5 L 389.3 29.5 C 389.3 29.5 389.29 31.85 389.3 31.8 C 390.2 30.3 391.6 29.2 393.4 29.2 C 393.4 29.2 393.4 31.5 393.4 31.5 C 393.2 31.4 392.9 31.4 392.7 31.4 C 391.4 31.4 389.9 32.5 389.3 33.7 C 389.29 33.74 389.3 44 389.3 44 L 387.2 44 Z M 395.2 36.8 C 395.2 32.6 397.4 29.2 401 29.2 C 404.9 29.2 406.8 32.6 406.8 36.8 C 406.78 36.83 406.8 37.5 406.8 37.5 C 406.8 37.5 397.39 37.49 397.4 37.5 C 397.5 40.4 399 42.6 401.6 42.6 C 402.8 42.6 404.1 42 405 40.8 C 405 40.8 406.1 42.1 406.1 42.1 C 405 43.5 403.3 44.4 401.4 44.4 C 397.5 44.4 395.2 41.2 395.2 36.8 Z M 401 31 C 398.5 31 397.4 33.8 397.4 35.9 C 397.4 35.9 404.6 35.9 404.6 35.9 C 404.6 33.7 403.7 31 401 31 Z M 408.8 42.3 C 408.8 42.3 409.8 40.8 409.8 40.8 C 410.7 41.8 412.1 42.6 413.6 42.6 C 415.3 42.6 416.4 41.7 416.4 40.3 C 416.4 36.9 409.2 38.1 409.2 33.1 C 409.2 30.9 410.9 29.2 413.8 29.2 C 415.7 29.2 417.2 29.9 418.2 31 C 418.2 31 417.2 32.5 417.2 32.5 C 416.5 31.5 415.2 30.9 413.8 30.9 C 412.2 30.9 411.2 31.8 411.2 33 C 411.2 36.1 418.5 35 418.5 40.2 C 418.5 42.6 416.6 44.4 413.6 44.4 C 411.6 44.4 410 43.7 408.8 42.3 Z M 422 41.1 C 421.96 41.12 422 31.4 422 31.4 L 420 31.4 L 420 29.5 L 422 29.5 L 422 25.6 L 424.1 25.6 L 424.1 29.5 L 426.6 29.5 L 426.6 31.4 L 424.1 31.4 C 424.1 31.4 424.12 40.73 424.1 40.7 C 424.1 41.8 424.4 42.5 425.3 42.5 C 425.8 42.5 426.3 42.2 426.5 41.9 C 426.5 41.9 427.2 43.5 427.2 43.5 C 426.7 44 426 44.4 424.9 44.4 C 422.9 44.4 422 43.3 422 41.1 Z M 435.2 36.8 C 435.2 32.5 437.4 29.2 441.2 29.2 C 443.2 29.2 444.4 30 445.3 31.1 C 445.3 31.1 444.1 32.6 444.1 32.6 C 443.3 31.5 442.4 31.1 441.3 31.1 C 438.8 31.1 437.4 33.7 437.4 36.8 C 437.4 39.9 438.8 42.5 441.3 42.5 C 442.4 42.5 443.3 42 444.1 41 C 444.1 41 445.3 42.5 445.3 42.5 C 444.4 43.6 443.2 44.4 441.2 44.4 C 437.4 44.4 435.2 41.1 435.2 36.8 Z M 455.5 44 C 455.5 44 455.49 42.47 455.5 42.5 C 454.6 43.8 453.2 44.4 451.7 44.4 C 449.3 44.4 447.3 42.6 447.3 39.6 C 447.3 36.5 449.3 34.8 451.7 34.8 C 453.2 34.8 454.6 35.4 455.5 36.6 C 455.5 36.6 455.5 34.1 455.5 34.1 C 455.5 32.1 454.4 31 452.5 31 C 451.2 31 450 31.5 448.9 32.8 C 448.9 32.8 447.9 31.3 447.9 31.3 C 449.3 29.8 451 29.2 452.9 29.2 C 455.7 29.2 457.7 30.6 457.7 33.9 C 457.65 33.89 457.7 44 457.7 44 L 455.5 44 Z M 455.5 41 C 455.5 41 455.5 38.2 455.5 38.2 C 454.8 37 453.6 36.4 452.4 36.4 C 450.6 36.4 449.5 37.8 449.5 39.6 C 449.5 41.4 450.6 42.8 452.4 42.8 C 453.6 42.8 454.8 42.2 455.5 41 Z M 469.7 44 L 465.8 37.5 L 463.7 40.1 L 463.7 44 L 461.6 44 L 461.6 24 L 463.7 24 L 463.7 37.4 L 469.7 29.5 L 472.3 29.5 L 467.2 36 L 472.3 44 L 469.7 44 Z M 473.9 36.8 C 473.9 32.6 476.1 29.2 479.8 29.2 C 483.6 29.2 485.5 32.6 485.5 36.8 C 485.49 36.83 485.5 37.5 485.5 37.5 C 485.5 37.5 476.1 37.49 476.1 37.5 C 476.2 40.4 477.7 42.6 480.3 42.6 C 481.5 42.6 482.8 42 483.7 40.8 C 483.7 40.8 484.9 42.1 484.9 42.1 C 483.7 43.5 482 44.4 480.1 44.4 C 476.2 44.4 473.9 41.2 473.9 36.8 Z M 479.7 31 C 477.2 31 476.2 33.8 476.1 35.9 C 476.1 35.9 483.4 35.9 483.4 35.9 C 483.3 33.7 482.4 31 479.7 31 Z " stroke="none" fill="#a8a6a6"/>  </g></svg>