<?xml version="1.0" standalone="no"?><!DOCTYPE svg PUBLIC "-//W3C//DTD SVG 1.1//EN" "http://www.w3.org/Graphics/SVG/1.1/DTD/svg11.dtd"><svg xmlns="http://www.w3.org/2000/svg" version="1.1" width="80px" height="30.9px" viewBox="0 0 80 30.9">  <desc>07 2096</desc>  <defs/>  <g id="Polygon112051">    <path d="M 8.1 2.5 C 7.9 2.4 7.7 2.4 7.5 2.4 C 7.3 2.4 7.1 2.4 6.8 2.6 C 5.2 3.4 4.2 4.7 3.8 6.4 C 3.7 6.9 3.6 7.4 3.6 8 C 3.6 8.1 3.6 8.2 3.6 8.4 C 3.6 8.6 3.6 8.8 3.6 8.9 C 3.7 9.7 3.7 10.2 3.7 10.5 C 3.7 10.7 3.8 11 4 11.3 C 4.5 12.4 5.3 12.9 6.5 12.9 C 6.7 12.9 6.9 12.9 7.1 12.9 C 7.7 12.7 8.3 12.5 8.9 12.1 C 9.4 11.7 9.8 11.2 10.1 10.6 C 10.5 9.8 10.7 9.1 10.7 8.3 C 10.7 8.1 10.7 7.9 10.7 7.8 C 10.6 6.7 10.3 5.7 9.8 4.5 C 9.2 3.4 8.7 2.7 8.1 2.5 Z M 6.7 0.3 C 7.1 0.2 7.4 0.2 7.7 0.2 C 8.5 0.2 9.4 0.7 10.4 1.7 C 11.3 2.7 12 3.9 12.4 5.3 C 12.6 5.9 12.7 6.7 12.7 7.7 C 12.7 8.7 12.7 9.4 12.5 9.8 C 12.1 11.4 11.3 12.6 10.1 13.6 C 8.9 14.7 7.6 15.2 6.2 15.2 C 5.6 15.2 5.1 15.1 4.6 14.9 C 4.4 14.8 4.2 14.8 3.9 14.7 C 3.7 14.7 3.5 14.5 3.1 14.2 C 2.8 14 2.5 13.7 2.3 13.4 C 2 12.9 1.7 12.4 1.6 11.9 C 1.4 11.5 1.4 11.2 1.3 10.9 C 1.3 10.6 1.3 10 1.3 9 C 1.3 8.1 1.3 7.5 1.3 7.1 C 1.4 6.8 1.4 6.4 1.6 6 C 2 4.6 2.6 3.3 3.5 2.3 C 4.5 1.3 5.5 0.6 6.7 0.3 Z M 19.1 0 C 19.9 0 20.7 -0.1 21.5 -0.5 C 22 -0.7 22.4 -0.9 22.8 -0.9 C 22.9 -0.9 23.1 -0.8 23.2 -0.8 C 23.3 -0.7 23.5 -0.6 23.6 -0.4 C 23.7 -0.1 23.7 0 23.7 0.2 C 23.7 0.4 23.5 1 23 2 C 22 4 20.6 7 18.7 11.1 C 17.7 13.3 17.1 14.6 16.9 14.9 C 16.6 15.3 16.2 15.6 15.7 15.6 C 15.4 15.6 15.2 15.5 15 15.3 C 14.9 15.1 14.8 14.8 14.8 14.3 C 14.8 14.2 14.8 14 14.8 13.7 C 14.8 13.5 14.8 13.4 14.8 13.3 C 14.9 12.9 16 10.8 18 6.9 C 19.5 4.1 20.2 2.6 20.2 2.5 C 20.2 2.4 20.1 2.3 19.8 2.3 C 19.5 2.3 19.3 2.3 19.2 2.4 C 19.2 2.4 18.8 2.4 18.8 2.4 C 18.3 2.4 17.6 2.3 16.7 2.1 C 16.1 2 15.6 1.9 15.3 1.9 C 15.3 1.9 15.2 1.9 15.2 1.9 C 15.1 1.9 15 2.1 14.9 2.4 C 14.8 2.7 14.7 2.9 14.5 3.1 C 14.3 3.3 14.1 3.4 13.9 3.4 C 13.1 3.4 12.7 2.9 12.7 1.7 C 12.8 0.8 12.9 0.2 13.1 -0.1 C 13.3 -0.2 13.5 -0.4 13.8 -0.5 C 14.1 -0.6 14.3 -0.7 14.6 -0.7 C 14.9 -0.7 15.4 -0.6 16.2 -0.4 C 17.3 -0.1 18.3 0 19.1 0 C 19.1 0 19.1 0 19.1 0 Z M 31.7 2 C 32.1 1.3 32.5 0.8 32.8 0.6 C 33 0.5 33.2 0.4 33.5 0.4 C 33.7 0.4 33.9 0.5 34.1 0.7 C 34.3 0.9 34.4 1.1 34.4 1.4 C 34.4 1.6 34.4 1.9 34.2 2.2 C 34 2.5 32.9 4.2 30.8 7.3 C 28.7 10.4 27.4 12.4 26.8 13.5 C 26.2 14.4 25.7 15.1 25.4 15.5 C 25.1 15.8 24.8 16 24.6 16 C 24.5 16 24.4 16 24.4 16 C 24.2 15.9 24.1 15.8 23.9 15.6 C 23.8 15.3 23.7 15.1 23.7 14.9 C 23.7 14.6 24 13.9 24.7 12.8 C 26 10.7 28.4 7.1 31.7 2 C 31.7 2 31.7 2 31.7 2 Z M 37 0.9 C 37.5 0.4 38.1 0 38.8 -0.2 C 39.1 -0.3 39.5 -0.3 40 -0.3 C 40.9 -0.3 41.5 -0.2 42.1 0 C 42.5 0.1 42.9 0.4 43.3 0.8 C 43.7 1.2 44 1.7 44.3 2.2 C 44.5 2.6 44.6 2.9 44.6 3.1 C 44.7 3.3 44.7 3.7 44.7 4.3 C 44.7 5.1 44.6 5.8 44.4 6.5 C 44.2 7.1 43.8 7.8 43.4 8.3 C 43 8.9 42.3 9.7 41.3 10.7 C 40.1 11.9 39.5 12.5 39.5 12.6 C 39.5 12.6 39.8 12.7 40.3 12.7 C 40.9 12.7 41.9 12.6 43.2 12.6 C 44.2 12.5 44.9 12.5 45.2 12.5 C 45.6 12.5 45.8 12.6 46 12.7 C 46.1 12.8 46.2 13.1 46.2 13.5 C 46.2 13.7 46.1 14 46 14.3 C 45.9 14.5 45.8 14.7 45.6 14.8 C 45.4 14.9 45 14.9 44.6 14.9 C 44.3 14.9 44.1 14.9 43.9 14.9 C 43.7 14.9 43.5 14.9 43.1 14.9 C 41.9 14.9 40.5 14.9 38.9 15 C 38.92 15.01 35.2 15.2 35.2 15.2 C 35.2 15.2 34.89 14.82 34.9 14.8 C 34.6 14.5 34.4 14.1 34.4 13.6 C 34.4 13.5 34.5 13.4 34.5 13.3 C 34.5 13.1 34.9 12.8 35.6 12.3 C 36.1 11.9 37 11.2 38.2 10.2 C 39.7 9 40.8 8 41.5 7.1 C 42.2 6.2 42.5 5.4 42.5 4.6 C 42.5 4.1 42.4 3.6 42.1 3.1 C 42 2.8 41.9 2.6 41.8 2.5 C 41.6 2.4 41.5 2.3 41.3 2.2 C 41 2 40.6 1.9 40.1 1.9 C 39.6 1.9 39.2 2 39 2.2 C 38.7 2.4 38.5 2.5 38.3 2.7 C 38.2 3 38.1 3.3 38 3.8 C 37.9 4.3 37.8 4.7 37.7 4.9 C 37.6 5.1 37.4 5.2 37.2 5.3 C 37.1 5.4 37 5.5 36.9 5.5 C 36.8 5.5 36.7 5.4 36.5 5.3 C 36.3 5.2 36.1 5 36 4.8 C 35.9 4.6 35.8 4.3 35.8 3.9 C 35.8 3.9 35.8 3.6 35.8 3.6 C 35.9 2.6 36.2 1.7 37 0.9 C 37 0.9 37 0.9 37 0.9 Z M 53 2.5 C 52.8 2.4 52.6 2.4 52.5 2.4 C 52.2 2.4 52 2.4 51.7 2.6 C 50.1 3.4 49.1 4.7 48.7 6.4 C 48.6 6.9 48.5 7.4 48.5 8 C 48.5 8.1 48.5 8.2 48.5 8.4 C 48.6 8.6 48.6 8.8 48.6 8.9 C 48.6 9.7 48.6 10.2 48.6 10.5 C 48.7 10.7 48.7 11 48.9 11.3 C 49.4 12.4 50.2 12.9 51.4 12.9 C 51.6 12.9 51.8 12.9 52 12.9 C 52.6 12.7 53.2 12.5 53.8 12.1 C 54.3 11.7 54.7 11.2 55 10.6 C 55.4 9.8 55.6 9.1 55.6 8.3 C 55.6 8.1 55.6 7.9 55.6 7.8 C 55.5 6.7 55.2 5.7 54.7 4.5 C 54.1 3.4 53.6 2.7 53 2.5 Z M 51.6 0.3 C 52 0.2 52.3 0.2 52.6 0.2 C 53.4 0.2 54.3 0.7 55.3 1.7 C 56.2 2.7 56.9 3.9 57.4 5.3 C 57.5 5.9 57.6 6.7 57.6 7.7 C 57.6 8.7 57.6 9.4 57.4 9.8 C 57 11.4 56.2 12.6 55 13.6 C 53.8 14.7 52.5 15.2 51.1 15.2 C 50.5 15.2 50 15.1 49.5 14.9 C 49.3 14.8 49.1 14.8 48.8 14.7 C 48.6 14.7 48.4 14.5 48.1 14.2 C 47.7 14 47.4 13.7 47.2 13.4 C 46.9 12.9 46.6 12.4 46.5 11.9 C 46.3 11.5 46.3 11.2 46.2 10.9 C 46.2 10.6 46.2 10 46.2 9 C 46.2 8.1 46.2 7.5 46.2 7.1 C 46.3 6.8 46.3 6.4 46.5 6 C 46.9 4.6 47.5 3.3 48.4 2.3 C 49.4 1.3 50.4 0.6 51.6 0.3 Z M 64.9 4 C 64.9 2.7 64.4 1.8 63.6 1.3 C 63.3 1.2 62.9 1.1 62.5 1.1 C 62.1 1.1 61.7 1.2 61.3 1.4 C 60.7 1.7 60.3 2.2 60 2.7 C 60 3 59.9 3.3 59.9 3.6 C 59.9 4.1 60 4.5 60.1 4.8 C 60.2 5 60.4 5.3 60.7 5.5 C 61 5.7 61.2 5.9 61.4 6 C 61.6 6.1 61.8 6.1 62.1 6.1 C 62.9 6.1 63.6 6 64.1 5.7 C 64.4 5.6 64.7 5.4 64.8 5.2 C 64.9 5 64.9 4.5 64.9 4 C 64.9 4 64.9 4 64.9 4 Z M 59.1 0.4 C 59.8 -0.2 60.5 -0.7 61.3 -0.9 C 61.6 -0.9 61.8 -1 62.1 -1 C 62.9 -1 63.5 -0.9 64.1 -0.6 C 65 -0.3 65.7 0.1 66.2 0.8 C 66.7 1.4 67 2.3 67.2 3.3 C 67.2 3.6 67.2 3.9 67.2 4.1 C 67.2 6.1 66.3 8.2 64.6 10.5 C 63.6 11.7 62.5 13 61.3 14.3 C 61.27 14.33 60.5 15.1 60.5 15.1 C 60.5 15.1 59.93 15.13 59.9 15.1 C 59.6 15.1 59.4 15.1 59.2 15 C 59.1 15 59 14.8 58.9 14.6 C 58.8 14.5 58.8 14.4 58.8 14.3 C 58.8 14.1 58.9 13.8 59.2 13.5 C 59.5 13.1 59.9 12.6 60.6 11.9 C 62.6 9.7 63.6 8.5 63.6 8.2 C 63.6 8.2 63.6 8.2 63.6 8.2 C 63.6 8.2 63.6 8.1 63.6 8.1 C 63.6 8.1 63.4 8.1 63.1 8.1 C 62.9 8.1 62.7 8.1 62.5 8.1 C 62.5 8.1 62.4 8.1 62.3 8.1 C 62.2 8.1 62.1 8.1 62.1 8.1 C 59.7 8.1 58.2 6.9 57.7 4.5 C 57.7 4.1 57.6 3.8 57.6 3.6 C 57.6 2.4 58.1 1.3 59.1 0.4 C 59.1 0.4 59.1 0.4 59.1 0.4 Z M 76.3 11.5 C 76.3 10.9 76 10.5 75.3 10.2 C 75 10 74.6 9.9 74.2 9.9 C 73.5 9.9 72.7 10.1 71.8 10.7 C 71.5 10.8 71.2 11 71 11.2 C 70.7 11.4 70.6 11.6 70.6 11.7 C 70.6 11.8 70.8 12 71.1 12.3 C 71.4 12.7 71.9 13 72.4 13.2 C 72.9 13.4 73.4 13.5 73.9 13.5 C 74.6 13.5 75.2 13.3 75.6 12.9 C 76.1 12.5 76.3 12.1 76.3 11.5 C 76.3 11.5 76.3 11.5 76.3 11.5 Z M 70.6 1.1 C 71.4 0.4 72.1 -0.1 72.9 -0.4 C 73.4 -0.6 73.8 -0.7 74.1 -0.7 C 74.3 -0.7 74.5 -0.7 74.7 -0.5 C 75 -0.2 75.1 0 75.1 0.3 C 75.1 0.4 75.1 0.6 75 0.8 C 74.9 0.9 74.8 1.1 74.6 1.2 C 74.5 1.3 74.2 1.4 73.7 1.7 C 73.1 2 72.6 2.3 72.2 2.7 C 71.8 3.1 71.4 3.6 71 4.2 C 70.2 5.4 69.8 6.6 69.7 7.8 C 69.7 7.9 69.7 8 69.7 8.1 C 69.7 8.2 69.7 8.3 69.7 8.4 C 69.7 8.8 69.8 9 69.9 9 C 70 9 70.2 8.9 70.7 8.6 C 71.6 7.9 72.8 7.5 74.2 7.5 C 74.5 7.5 74.8 7.5 75.1 7.6 C 76.1 7.8 76.9 8.2 77.5 8.8 C 78.1 9.4 78.5 10.2 78.5 11.1 C 78.5 11.4 78.4 11.8 78.3 12.1 C 78 13.2 77.5 14.1 76.7 14.7 C 75.9 15.3 75 15.7 73.8 15.7 C 73.6 15.7 73.5 15.7 73.4 15.6 C 71.6 15.5 70 14.6 68.7 13 C 68.5 12.8 68.3 12.6 68.1 12.6 C 67.8 12.6 67.7 12.5 67.5 12.4 C 67.4 12.2 67.3 12 67.3 11.7 C 67.3 11.6 67.3 11.4 67.4 11.2 C 67.5 11.1 67.5 11 67.5 10.9 C 67.5 10.7 67.4 10.4 67.3 10 C 67.2 9.6 67.2 9.1 67.2 8.5 C 67.2 7.1 67.5 5.8 68.2 4.4 C 68.4 3.9 68.8 3.3 69.3 2.5 C 69.9 1.8 70.3 1.3 70.6 1.1 C 70.6 1.1 70.6 1.1 70.6 1.1 Z " stroke="none" fill="#d3d2d2"/>  </g></svg>