<?xml version="1.0" standalone="no"?><!DOCTYPE svg PUBLIC "-//W3C//DTD SVG 1.1//EN" "http://www.w3.org/Graphics/SVG/1.1/DTD/svg11.dtd"><svg xmlns="http://www.w3.org/2000/svg" version="1.1" width="191px" height="44.3px" viewBox="0 0 191 44.3">  <desc>1 serving</desc>  <defs/>  <g id="Polygon124893">    <path d="M 49.6 23.7 L 49.6 8.9 L 46.6 12 L 44.3 9.6 L 50.2 3.7 L 53.7 3.7 L 53.7 23.7 L 49.6 23.7 Z M 62.2 22 C 62.2 22 63.8 19.5 63.8 19.5 C 64.7 20.4 66.3 21.2 67.8 21.2 C 69.1 21.2 69.9 20.6 69.9 19.7 C 69.9 17.3 62.7 18.6 62.7 13.2 C 62.7 10.9 64.6 8.8 68 8.8 C 70.1 8.8 71.8 9.6 73 10.7 C 73 10.7 71.6 13.1 71.6 13.1 C 70.9 12.3 69.5 11.6 68.1 11.6 C 66.9 11.6 66.1 12.2 66.1 13 C 66.1 15.2 73.3 14.1 73.3 19.6 C 73.3 22.2 71.2 24.1 67.8 24.1 C 65.5 24.1 63.5 23.3 62.2 22 Z M 75 16.4 C 75 12.2 77.4 8.8 81.4 8.8 C 85.4 8.8 87.7 12.1 87.7 16.6 C 87.69 16.59 87.7 17.6 87.7 17.6 C 87.7 17.6 78.6 17.61 78.6 17.6 C 78.7 19.6 79.9 21.1 82.1 21.1 C 83.1 21.1 84.4 20.6 85.3 19.7 C 85.3 19.7 86.9 21.9 86.9 21.9 C 85.6 23.3 83.7 24.1 81.7 24.1 C 77.6 24.1 75 21 75 16.4 Z M 81.4 11.8 C 79.4 11.8 78.7 13.6 78.6 15.1 C 78.6 15.1 84.2 15.1 84.2 15.1 C 84.1 13.6 83.5 11.8 81.4 11.8 Z M 90.1 23.7 L 90.1 9.2 L 93.7 9.2 C 93.7 9.2 93.69 11.19 93.7 11.2 C 94.5 9.9 96.1 8.8 97.6 8.8 C 97.6 8.8 97.6 12.4 97.6 12.4 C 97.4 12.3 97.1 12.3 96.8 12.3 C 95.6 12.3 94.3 13 93.7 14 C 93.69 14.04 93.7 23.7 93.7 23.7 L 90.1 23.7 Z M 102.8 23.7 L 98 9.2 L 101.8 9.2 L 104.8 19.4 L 107.7 9.2 L 111.5 9.2 L 106.7 23.7 L 102.8 23.7 Z M 112.7 5.4 C 112.7 4.2 113.7 3.2 114.9 3.2 C 116.1 3.2 117.1 4.2 117.1 5.4 C 117.1 6.6 116.1 7.6 114.9 7.6 C 113.7 7.6 112.7 6.6 112.7 5.4 Z M 113.1 23.7 L 113.1 9.2 L 116.7 9.2 L 116.7 23.7 L 113.1 23.7 Z M 128.1 23.7 C 128.1 23.7 128.07 14.16 128.1 14.2 C 128.1 12.6 127.4 12 126.2 12 C 125 12 124 13 123.5 13.8 C 123.54 13.83 123.5 23.7 123.5 23.7 L 119.9 23.7 L 119.9 9.2 L 123.5 9.2 C 123.5 9.2 123.54 11.1 123.5 11.1 C 124.3 10 125.9 8.8 127.8 8.8 C 130.5 8.8 131.7 10.4 131.7 12.8 C 131.67 12.81 131.7 23.7 131.7 23.7 L 128.1 23.7 Z M 134.8 27.7 C 134.8 27.7 136.2 25 136.2 25 C 137.2 26 138.5 26.5 139.9 26.5 C 141.6 26.5 143.2 25.7 143.2 23.1 C 143.2 23.1 143.2 21.4 143.2 21.4 C 142.3 22.8 140.9 23.6 139.5 23.6 C 136.3 23.6 134.2 21 134.2 16.2 C 134.2 11.6 136.3 8.8 139.5 8.8 C 140.9 8.8 142.3 9.5 143.2 11 C 143.19 11.04 143.2 9.2 143.2 9.2 L 146.8 9.2 C 146.8 9.2 146.79 22.95 146.8 22.9 C 146.8 28.2 143.3 29.6 140.1 29.6 C 138 29.6 136.3 29.1 134.8 27.7 Z M 143.2 18.7 C 143.2 18.7 143.2 13.7 143.2 13.7 C 142.7 12.8 141.7 12 140.7 12 C 138.9 12 137.9 13.7 137.9 16.2 C 137.9 18.7 138.9 20.4 140.7 20.4 C 141.7 20.4 142.7 19.6 143.2 18.7 Z " stroke="none" fill="#d3d2d2"/>  </g></svg>