<?xml version="1.0" standalone="no"?><!DOCTYPE svg PUBLIC "-//W3C//DTD SVG 1.1//EN" "http://www.w3.org/Graphics/SVG/1.1/DTD/svg11.dtd"><svg xmlns="http://www.w3.org/2000/svg" version="1.1" width="651px" height="85.6px" viewBox="0 0 651 85.6">  <desc>Thick Chewy Hot Glue Sauce</desc>  <defs/>  <g id="Polygon206097">    <path d="M 7.1 47.4 L 7.1 14 L 1.1 14 L 1.1 7.4 L 20.8 7.4 L 20.8 14 L 14.7 14 L 14.7 47.4 L 7.1 47.4 Z M 37.5 47.4 C 37.5 47.4 37.5 26.64 37.5 26.6 C 37.5 24.7 36.8 23.7 35.3 23.7 C 33.5 23.7 32 25.6 31.4 27.5 C 31.38 27.48 31.4 47.4 31.4 47.4 L 24.6 47.4 L 24.6 7.4 L 31.4 7.4 C 31.4 7.4 31.38 22.2 31.4 22.2 C 32.5 19.9 35.5 17.7 38.2 17.7 C 42.5 17.7 44.3 20.1 44.3 24.2 C 44.34 24.24 44.3 47.4 44.3 47.4 L 37.5 47.4 Z M 49 10.9 C 49 8.6 50.9 6.8 53.2 6.8 C 55.4 6.8 57.3 8.6 57.3 10.9 C 57.3 13.2 55.4 15 53.2 15 C 50.9 15 49 13.2 49 10.9 Z M 49.8 47.4 L 49.8 18.4 L 56.6 18.4 L 56.6 47.4 L 49.8 47.4 Z M 60.9 32.9 C 60.9 24.1 65 17.7 71.9 17.7 C 75.2 17.7 77.6 18.9 79 20.3 C 79 20.3 76.8 25.6 76.8 25.6 C 75.6 24.3 74.5 23.7 73.1 23.7 C 69.6 23.7 67.9 27.8 67.9 32.9 C 67.9 37.9 69.6 42.1 73.1 42.1 C 74.5 42.1 75.6 41.5 76.8 40.3 C 76.8 40.3 79 45.5 79 45.5 C 77.6 47 75.2 48.1 71.9 48.1 C 65 48.1 60.9 41.7 60.9 32.9 Z M 96.4 47.4 L 92.1 35.8 L 89.5 40.6 L 89.5 47.4 L 82.7 47.4 L 82.7 7.4 L 89.5 7.4 L 89.5 31.8 L 96.1 18.4 L 103.5 18.4 L 96.6 31.3 L 103.8 47.4 L 96.4 47.4 Z M 115.7 27.4 C 115.7 15.5 119.5 6.7 128.3 6.7 C 134.8 6.7 137 11.9 138.3 16.1 C 138.3 16.1 132.3 18.4 132.3 18.4 C 131.5 15.3 130.5 13.4 128.3 13.4 C 124.7 13.4 123.5 19.3 123.5 27.4 C 123.5 35.6 124.7 41.4 128.3 41.4 C 130.7 41.4 131.8 38.9 132.4 35.6 C 132.4 35.6 138.4 37.8 138.4 37.8 C 137.3 42.4 134.9 48.1 128.3 48.1 C 119.5 48.1 115.7 39.3 115.7 27.4 Z M 155.3 47.4 C 155.3 47.4 155.28 26.64 155.3 26.6 C 155.3 24.7 154.6 23.7 153.1 23.7 C 151.3 23.7 149.8 25.6 149.2 27.5 C 149.16 27.48 149.2 47.4 149.2 47.4 L 142.4 47.4 L 142.4 7.4 L 149.2 7.4 C 149.2 7.4 149.16 22.2 149.2 22.2 C 150.3 19.9 153.3 17.7 155.9 17.7 C 160.3 17.7 162.1 20.1 162.1 24.2 C 162.12 24.24 162.1 47.4 162.1 47.4 L 155.3 47.4 Z M 166.4 32.9 C 166.4 24.5 170 17.7 177.3 17.7 C 184.6 17.7 187.7 24.2 187.7 32.8 C 187.68 32.76 187.7 35.1 187.7 35.1 C 187.7 35.1 172.98 35.1 173 35.1 C 173 39.4 174.8 42.6 178.7 42.6 C 180.3 42.6 182.2 41.5 183.5 39.7 C 183.5 39.7 186.8 43.5 186.8 43.5 C 184.5 46.4 181.3 48.1 178 48.1 C 170.4 48.1 166.4 41.8 166.4 32.9 Z M 177.1 23.2 C 173.8 23.2 173 27.3 173 30.4 C 173 30.4 181.1 30.4 181.1 30.4 C 181.1 27.1 180.4 23.2 177.1 23.2 Z M 211.4 47.4 L 207.3 27.7 L 203.2 47.4 L 196 47.4 L 189.4 18.4 L 196.4 18.4 L 200 38.2 L 203.8 18.4 L 210.4 18.4 L 214.4 38.2 L 218.2 18.4 L 225.2 18.4 L 218.5 47.4 L 211.4 47.4 Z M 228.9 52.9 C 229.3 53 229.9 53.2 230.3 53.2 C 231.5 53.2 232.3 52.6 232.7 51.1 C 232.68 51.12 233.5 48.1 233.5 48.1 L 225.7 18.4 L 232.9 18.4 L 236.9 38.8 L 241.1 18.4 L 248.3 18.4 C 248.3 18.4 239.16 52.5 239.2 52.5 C 237.7 57.8 235.4 59.2 231.2 59.2 C 230.2 59.2 228.6 59 227.9 58.7 C 227.9 58.7 228.9 52.9 228.9 52.9 Z M 276.5 47.4 L 276.5 30.1 L 268.8 30.1 L 268.8 47.4 L 261.2 47.4 L 261.2 7.4 L 268.8 7.4 L 268.8 23.5 L 276.5 23.5 L 276.5 7.4 L 284 7.4 L 284 47.4 L 276.5 47.4 Z M 288.8 32.9 C 288.8 24.8 292.1 17.7 299.6 17.7 C 307.3 17.7 310.6 24.8 310.6 32.9 C 310.6 40.9 307.3 48.1 299.6 48.1 C 292.1 48.1 288.8 40.9 288.8 32.9 Z M 303.5 32.9 C 303.5 28 302.7 23.7 299.6 23.7 C 296.6 23.7 295.8 28 295.8 32.9 C 295.8 37.9 296.6 42.1 299.6 42.1 C 302.7 42.1 303.5 37.9 303.5 32.9 Z M 315.8 40.7 C 315.83 40.74 315.8 24.3 315.8 24.3 L 313.1 24.3 L 313.1 18.4 L 315.8 18.4 L 315.8 10.5 L 322.6 10.5 L 322.6 18.4 L 326.3 18.4 L 326.3 24.3 L 322.6 24.3 C 322.6 24.3 322.61 39.42 322.6 39.4 C 322.6 41.2 323 42.1 324.2 42.1 C 324.9 42.1 325.5 41.8 325.9 41.3 C 325.9 41.3 327.2 46.6 327.2 46.6 C 326.2 47.5 324.6 48.1 322.5 48.1 C 317.8 48.1 315.8 45.7 315.8 40.7 Z M 339.3 27.4 C 339.3 15.1 343.2 6.7 351.8 6.7 C 357.4 6.7 360.5 11 361.9 16.1 C 361.9 16.1 355.9 18.4 355.9 18.4 C 355.2 15.6 354.2 13.4 351.8 13.4 C 348.8 13.4 347 17.8 347 27.4 C 347 37 348.8 41.4 351.8 41.4 C 353.5 41.4 354.7 40.7 355.4 39.6 C 355.43 39.6 355.4 32.3 355.4 32.3 L 350.9 32.3 L 350.9 25.7 L 362.1 25.7 C 362.1 25.7 362.09 42.84 362.1 42.8 C 359.5 46.2 356.3 48.1 351.8 48.1 C 343.2 48.1 339.3 39.7 339.3 27.4 Z M 367.4 47.4 L 367.4 7.4 L 374.2 7.4 L 374.2 47.4 L 367.4 47.4 Z M 392.5 47.4 C 392.5 47.4 392.51 43.74 392.5 43.7 C 391.4 46.1 388.6 48.1 385.7 48.1 C 381.4 48.1 379.6 45.7 379.6 41.6 C 379.61 41.58 379.6 18.4 379.6 18.4 L 386.4 18.4 C 386.4 18.4 386.39 39.18 386.4 39.2 C 386.4 41.2 387.1 42.1 388.6 42.1 C 390.4 42.1 391.9 40.3 392.5 38.5 C 392.51 38.46 392.5 18.4 392.5 18.4 L 399.4 18.4 L 399.4 47.4 L 392.5 47.4 Z M 403.7 32.9 C 403.7 24.5 407.3 17.7 414.5 17.7 C 421.9 17.7 424.9 24.2 424.9 32.8 C 424.91 32.76 424.9 35.1 424.9 35.1 C 424.9 35.1 410.21 35.1 410.2 35.1 C 410.3 39.4 412.1 42.6 415.9 42.6 C 417.5 42.6 419.4 41.5 420.7 39.7 C 420.7 39.7 424 43.5 424 43.5 C 421.7 46.4 418.5 48.1 415.2 48.1 C 407.6 48.1 403.7 41.8 403.7 32.9 Z M 414.4 23.2 C 411.1 23.2 410.2 27.3 410.2 30.4 C 410.2 30.4 418.4 30.4 418.4 30.4 C 418.4 27.1 417.7 23.2 414.4 23.2 Z M 436.8 44.2 C 436.8 44.2 440.1 38.2 440.1 38.2 C 441.7 40.3 444.3 41.4 446.6 41.4 C 449 41.4 450.7 39.6 450.7 37 C 450.7 29.9 437.9 29.9 437.9 17.9 C 437.9 11.9 442 6.7 449.1 6.7 C 452.5 6.7 455.6 7.9 457.8 10 C 457.8 10 454.9 15.8 454.9 15.8 C 453.3 14.2 451.4 13.4 449.3 13.4 C 447.2 13.4 445.6 15.1 445.6 17.5 C 445.6 23.7 458.3 24.5 458.3 36.5 C 458.3 43.3 454 48.1 447.1 48.1 C 442.7 48.1 439.4 46.7 436.8 44.2 Z M 475.2 47.4 C 475.2 47.4 475.19 44.64 475.2 44.6 C 473.9 46.9 471.2 48.1 469.1 48.1 C 464.6 48.1 461.3 44.4 461.3 38.5 C 461.3 32.6 464.6 29 469.1 29 C 471.2 29 474 30.1 475.2 32.3 C 475.2 32.3 475.2 28.7 475.2 28.7 C 475.2 25.4 473.9 23.5 470.8 23.5 C 468.9 23.5 466.9 24.4 464.9 26.3 C 464.9 26.3 462.4 21.5 462.4 21.5 C 465.1 18.7 469.2 17.7 472.2 17.7 C 478.1 17.7 482 20.7 482 27.2 C 481.97 27.18 482 47.4 482 47.4 L 475.2 47.4 Z M 475.2 40.6 C 475.2 40.6 475.2 36.7 475.2 36.7 C 474.5 34.9 473 33.7 471.5 33.7 C 469.2 33.7 468.1 35.8 468.1 38.6 C 468.1 41.3 469.2 43.6 471.5 43.6 C 473 43.6 474.5 42.4 475.2 40.6 Z M 500.4 47.4 C 500.4 47.4 500.39 43.74 500.4 43.7 C 499.3 46.1 496.4 48.1 493.6 48.1 C 489.2 48.1 487.5 45.7 487.5 41.6 C 487.49 41.58 487.5 18.4 487.5 18.4 L 494.3 18.4 C 494.3 18.4 494.27 39.18 494.3 39.2 C 494.3 41.2 495 42.1 496.5 42.1 C 498.2 42.1 499.7 40.3 500.4 38.5 C 500.39 38.46 500.4 18.4 500.4 18.4 L 507.2 18.4 L 507.2 47.4 L 500.4 47.4 Z M 511.6 32.9 C 511.6 24.1 515.6 17.7 522.6 17.7 C 525.8 17.7 528.2 18.9 529.6 20.3 C 529.6 20.3 527.5 25.6 527.5 25.6 C 526.3 24.3 525.2 23.7 523.8 23.7 C 520.3 23.7 518.5 27.8 518.5 32.9 C 518.5 37.9 520.3 42.1 523.8 42.1 C 525.2 42.1 526.3 41.5 527.5 40.3 C 527.5 40.3 529.6 45.5 529.6 45.5 C 528.2 47 525.8 48.1 522.6 48.1 C 515.6 48.1 511.6 41.7 511.6 32.9 Z M 532.2 32.9 C 532.2 24.5 535.8 17.7 543.1 17.7 C 550.4 17.7 553.4 24.2 553.4 32.8 C 553.43 32.76 553.4 35.1 553.4 35.1 C 553.4 35.1 538.73 35.1 538.7 35.1 C 538.8 39.4 540.6 42.6 544.4 42.6 C 546.1 42.6 547.9 41.5 549.2 39.7 C 549.2 39.7 552.5 43.5 552.5 43.5 C 550.3 46.4 547 48.1 543.7 48.1 C 536.2 48.1 532.2 41.8 532.2 32.9 Z M 542.9 23.2 C 539.6 23.2 538.7 27.3 538.7 30.4 C 538.7 30.4 546.9 30.4 546.9 30.4 C 546.9 27.1 546.2 23.2 542.9 23.2 Z " stroke="none" fill="#b13d24"/>  </g></svg>