<?xml version="1.0" standalone="no"?><!DOCTYPE svg PUBLIC "-//W3C//DTD SVG 1.1//EN" "http://www.w3.org/Graphics/SVG/1.1/DTD/svg11.dtd"><svg xmlns="http://www.w3.org/2000/svg" version="1.1" width="219px" height="337.3px" viewBox="0 0 219 337.3">  <desc>240 ml 5 drops 2 tsp 10 g 18 ml 20 ml 125 ml 1 ml 1 ml</desc>  <defs/>  <g id="Polygon157041">    <path d="M 5 320.7 L 5 303.8 L 1.9 307.1 L 0.4 305.6 L 5.3 300.7 L 7.3 300.7 L 7.3 320.7 L 5 320.7 Z M 32.5 320.7 C 32.5 320.7 32.52 310.2 32.5 310.2 C 32.5 308.6 31.9 307.8 30.5 307.8 C 29.2 307.8 27.9 308.9 27.4 310.1 C 27.36 310.08 27.4 320.7 27.4 320.7 L 25.2 320.7 C 25.2 320.7 25.2 310.2 25.2 310.2 C 25.2 308.6 24.6 307.8 23.2 307.8 C 21.9 307.8 20.6 308.9 20 310.1 C 20.01 310.08 20 320.7 20 320.7 L 17.9 320.7 L 17.9 306.2 L 20 306.2 C 20 306.2 20.01 308.28 20 308.3 C 20.6 307.2 22.2 305.9 24 305.9 C 25.8 305.9 27 306.9 27.2 308.4 C 28 307.1 29.6 305.9 31.3 305.9 C 33.4 305.9 34.7 307 34.7 309.6 C 34.68 309.63 34.7 320.7 34.7 320.7 L 32.5 320.7 Z M 38.6 320.7 L 38.6 300.7 L 40.8 300.7 L 40.8 320.7 L 38.6 320.7 Z " stroke="none" fill="#d0d1d4"/>  </g>  <g id="Polygon157040">    <path d="M 5 284.7 L 5 267.8 L 1.9 271.1 L 0.4 269.6 L 5.3 264.7 L 7.3 264.7 L 7.3 284.7 L 5 284.7 Z M 32.5 284.7 C 32.5 284.7 32.52 274.2 32.5 274.2 C 32.5 272.6 31.9 271.8 30.5 271.8 C 29.2 271.8 27.9 272.9 27.4 274.1 C 27.36 274.08 27.4 284.7 27.4 284.7 L 25.2 284.7 C 25.2 284.7 25.2 274.2 25.2 274.2 C 25.2 272.6 24.6 271.8 23.2 271.8 C 21.9 271.8 20.6 272.9 20 274.1 C 20.01 274.08 20 284.7 20 284.7 L 17.9 284.7 L 17.9 270.2 L 20 270.2 C 20 270.2 20.01 272.28 20 272.3 C 20.6 271.2 22.2 269.9 24 269.9 C 25.8 269.9 27 270.9 27.2 272.4 C 28 271.1 29.6 269.9 31.3 269.9 C 33.4 269.9 34.7 271 34.7 273.6 C 34.68 273.63 34.7 284.7 34.7 284.7 L 32.5 284.7 Z M 38.6 284.7 L 38.6 264.7 L 40.8 264.7 L 40.8 284.7 L 38.6 284.7 Z " stroke="none" fill="#d0d1d4"/>  </g>  <g id="Polygon157039">    <path d="M 5 248.7 L 5 231.8 L 1.9 235.1 L 0.4 233.6 L 5.3 228.7 L 7.3 228.7 L 7.3 248.7 L 5 248.7 Z M 11 248.7 C 11 248.7 11.04 246.75 11 246.8 C 17.6 239.2 19.8 236.8 19.8 233.9 C 19.8 231.7 18.3 230.5 16.6 230.5 C 14.7 230.5 13.3 231.5 12.4 233 C 12.4 233 10.8 231.6 10.8 231.6 C 12.1 229.6 14.1 228.4 16.6 228.4 C 19.7 228.4 22.3 230.4 22.3 233.9 C 22.3 237.2 19.7 240.2 14.4 246.6 C 14.43 246.57 22.3 246.6 22.3 246.6 L 22.3 248.7 L 11 248.7 Z M 25.7 245.8 C 25.7 245.8 27.3 244.4 27.3 244.4 C 28.2 246 29.5 246.9 31.5 246.9 C 33.7 246.9 35.1 244.9 35.1 242.6 C 35.1 239.7 33.7 238.2 31.6 238.2 C 30.2 238.2 29.1 238.7 28 240 C 28.02 240.03 26.2 239.4 26.2 239.4 L 26.2 228.7 L 36.4 228.7 L 36.4 230.8 L 28.6 230.8 C 28.6 230.8 28.62 237.81 28.6 237.8 C 29.4 236.9 30.7 236.1 32.3 236.1 C 35.2 236.1 37.5 238.4 37.5 242.5 C 37.5 246.3 35 249.1 31.6 249.1 C 28.6 249.1 26.9 247.8 25.7 245.8 Z M 61.9 248.7 C 61.9 248.7 61.92 238.2 61.9 238.2 C 61.9 236.6 61.3 235.8 59.9 235.8 C 58.6 235.8 57.3 236.9 56.8 238.1 C 56.76 238.08 56.8 248.7 56.8 248.7 L 54.6 248.7 C 54.6 248.7 54.6 238.2 54.6 238.2 C 54.6 236.6 54 235.8 52.6 235.8 C 51.3 235.8 50 236.9 49.4 238.1 C 49.41 238.08 49.4 248.7 49.4 248.7 L 47.3 248.7 L 47.3 234.2 L 49.4 234.2 C 49.4 234.2 49.41 236.28 49.4 236.3 C 50 235.2 51.6 233.9 53.4 233.9 C 55.2 233.9 56.4 234.9 56.6 236.4 C 57.4 235.1 59 233.9 60.7 233.9 C 62.8 233.9 64.1 235 64.1 237.6 C 64.08 237.63 64.1 248.7 64.1 248.7 L 61.9 248.7 Z M 68 248.7 L 68 228.7 L 70.2 228.7 L 70.2 248.7 L 68 248.7 Z " stroke="none" fill="#d0d1d4"/>  </g>  <g id="Polygon157038">    <path d="M 1.6 212.7 C 1.6 212.7 1.59 210.75 1.6 210.8 C 8.1 203.2 10.4 200.8 10.4 197.9 C 10.4 195.7 8.9 194.5 7.2 194.5 C 5.3 194.5 3.9 195.5 2.9 197 C 2.9 197 1.4 195.6 1.4 195.6 C 2.7 193.6 4.7 192.4 7.2 192.4 C 10.3 192.4 12.8 194.4 12.8 197.9 C 12.8 201.2 10.3 204.2 5 210.6 C 4.98 210.57 12.9 210.6 12.9 210.6 L 12.9 212.7 L 1.6 212.7 Z M 16.1 202.7 C 16.1 197.9 17.7 192.4 22.3 192.4 C 27 192.4 28.6 197.9 28.6 202.7 C 28.6 207.5 27 213.1 22.3 213.1 C 17.7 213.1 16.1 207.5 16.1 202.7 Z M 26.2 202.7 C 26.2 198.8 25.4 194.5 22.3 194.5 C 19.3 194.5 18.5 198.8 18.5 202.7 C 18.5 206.6 19.3 210.9 22.3 210.9 C 25.4 210.9 26.2 206.6 26.2 202.7 Z M 53.1 212.7 C 53.1 212.7 53.1 202.2 53.1 202.2 C 53.1 200.6 52.5 199.8 51.1 199.8 C 49.8 199.8 48.5 200.9 47.9 202.1 C 47.94 202.08 47.9 212.7 47.9 212.7 L 45.8 212.7 C 45.8 212.7 45.78 202.2 45.8 202.2 C 45.8 200.6 45.1 199.8 43.7 199.8 C 42.4 199.8 41.2 200.9 40.6 202.1 C 40.59 202.08 40.6 212.7 40.6 212.7 L 38.5 212.7 L 38.5 198.2 L 40.6 198.2 C 40.6 198.2 40.59 200.28 40.6 200.3 C 41.2 199.2 42.8 197.9 44.5 197.9 C 46.4 197.9 47.5 198.9 47.8 200.4 C 48.5 199.1 50.2 197.9 51.9 197.9 C 54 197.9 55.3 199 55.3 201.6 C 55.26 201.63 55.3 212.7 55.3 212.7 L 53.1 212.7 Z M 59.2 212.7 L 59.2 192.7 L 61.3 192.7 L 61.3 212.7 L 59.2 212.7 Z " stroke="none" fill="#d0d1d4"/>  </g>  <g id="Polygon157037">    <path d="M 5 176.7 L 5 159.8 L 1.9 163.1 L 0.4 161.6 L 5.3 156.7 L 7.3 156.7 L 7.3 176.7 L 5 176.7 Z M 10.8 171.8 C 10.8 169.1 12.8 167.1 14.8 166.4 C 13 165.7 11.1 164 11.1 161.5 C 11.1 158 13.9 156.4 16.7 156.4 C 19.6 156.4 22.4 158 22.4 161.5 C 22.4 164 20.5 165.7 18.7 166.4 C 20.7 167.1 22.7 169.1 22.7 171.8 C 22.7 175.1 20.2 177.1 16.7 177.1 C 13.2 177.1 10.8 175.1 10.8 171.8 Z M 20 161.8 C 20 159.8 18.7 158.5 16.7 158.5 C 14.8 158.5 13.5 159.8 13.5 161.8 C 13.5 164.3 16 165.3 16.7 165.5 C 17.5 165.3 20 164.3 20 161.8 Z M 20.3 171.5 C 20.3 168.8 17.6 167.5 16.7 167.4 C 15.9 167.5 13.2 168.8 13.2 171.5 C 13.2 173.7 14.8 174.9 16.7 174.9 C 18.7 174.9 20.3 173.7 20.3 171.5 Z M 47.1 176.7 C 47.1 176.7 47.1 166.2 47.1 166.2 C 47.1 164.6 46.5 163.8 45.1 163.8 C 43.8 163.8 42.5 164.9 41.9 166.1 C 41.94 166.08 41.9 176.7 41.9 176.7 L 39.8 176.7 C 39.8 176.7 39.78 166.2 39.8 166.2 C 39.8 164.6 39.1 163.8 37.7 163.8 C 36.4 163.8 35.2 164.9 34.6 166.1 C 34.59 166.08 34.6 176.7 34.6 176.7 L 32.5 176.7 L 32.5 162.2 L 34.6 162.2 C 34.6 162.2 34.59 164.28 34.6 164.3 C 35.2 163.2 36.8 161.9 38.5 161.9 C 40.4 161.9 41.5 162.9 41.8 164.4 C 42.5 163.1 44.2 161.9 45.9 161.9 C 48 161.9 49.3 163 49.3 165.6 C 49.26 165.63 49.3 176.7 49.3 176.7 L 47.1 176.7 Z M 53.2 176.7 L 53.2 156.7 L 55.3 156.7 L 55.3 176.7 L 53.2 176.7 Z " stroke="none" fill="#d0d1d4"/>  </g>  <g id="Polygon157036">    <path d="M 5 140.7 L 5 123.8 L 1.9 127.1 L 0.4 125.6 L 5.3 120.7 L 7.3 120.7 L 7.3 140.7 L 5 140.7 Z M 10.9 130.7 C 10.9 125.9 12.4 120.4 17.1 120.4 C 21.8 120.4 23.4 125.9 23.4 130.7 C 23.4 135.5 21.8 141.1 17.1 141.1 C 12.4 141.1 10.9 135.5 10.9 130.7 Z M 21 130.7 C 21 126.8 20.2 122.5 17.1 122.5 C 14.1 122.5 13.3 126.8 13.3 130.7 C 13.3 134.6 14 138.9 17.1 138.9 C 20.2 138.9 21 134.6 21 130.7 Z M 33.1 144.8 C 33.1 144.8 34.1 143.1 34.1 143.1 C 35.1 144.2 36.3 144.8 37.9 144.8 C 39.9 144.8 41.5 143.6 41.5 140.8 C 41.5 140.8 41.5 138.4 41.5 138.4 C 40.7 139.9 39.2 140.9 37.7 140.9 C 34.5 140.9 32.5 137.9 32.5 133.4 C 32.5 128.9 34.4 125.9 37.7 125.9 C 39.2 125.9 40.6 126.7 41.5 128.3 C 41.52 128.31 41.5 126.2 41.5 126.2 L 43.7 126.2 C 43.7 126.2 43.68 140.67 43.7 140.7 C 43.7 145.1 41 146.6 37.9 146.6 C 36 146.6 34.5 146.1 33.1 144.8 Z M 41.5 136.6 C 41.5 136.6 41.5 130.1 41.5 130.1 C 41 128.9 39.6 127.8 38.2 127.8 C 35.9 127.8 34.8 130.3 34.8 133.4 C 34.8 136.5 35.9 139 38.2 139 C 39.6 139 41 137.8 41.5 136.6 Z " stroke="none" fill="#d0d1d4"/>  </g>  <g id="Polygon157035">    <path d="M 1.6 104.7 C 1.6 104.7 1.59 102.75 1.6 102.8 C 8.1 95.2 10.4 92.8 10.4 89.9 C 10.4 87.7 8.9 86.5 7.2 86.5 C 5.3 86.5 3.9 87.5 2.9 89 C 2.9 89 1.4 87.6 1.4 87.6 C 2.7 85.6 4.7 84.4 7.2 84.4 C 10.3 84.4 12.8 86.4 12.8 89.9 C 12.8 93.2 10.3 96.2 5 102.6 C 4.98 102.57 12.9 102.6 12.9 102.6 L 12.9 104.7 L 1.6 104.7 Z M 23.5 101.8 C 23.52 101.79 23.5 92.1 23.5 92.1 L 21.6 92.1 L 21.6 90.2 L 23.5 90.2 L 23.5 86.3 L 25.7 86.3 L 25.7 90.2 L 28.1 90.2 L 28.1 92.1 L 25.7 92.1 C 25.7 92.1 25.68 101.4 25.7 101.4 C 25.7 102.5 26 103.1 26.8 103.1 C 27.4 103.1 27.8 102.9 28.1 102.6 C 28.1 102.6 28.8 104.2 28.8 104.2 C 28.3 104.7 27.5 105.1 26.4 105.1 C 24.4 105.1 23.5 104 23.5 101.8 Z M 29.8 103 C 29.8 103 30.9 101.5 30.9 101.5 C 31.7 102.5 33.1 103.3 34.7 103.3 C 36.4 103.3 37.5 102.4 37.5 101 C 37.5 97.6 30.2 98.8 30.2 93.8 C 30.2 91.6 32 89.9 34.9 89.9 C 36.8 89.9 38.2 90.6 39.3 91.7 C 39.3 91.7 38.2 93.2 38.2 93.2 C 37.5 92.2 36.3 91.6 34.9 91.6 C 33.3 91.6 32.3 92.5 32.3 93.7 C 32.3 96.8 39.5 95.7 39.5 100.9 C 39.5 103.3 37.7 105.1 34.7 105.1 C 32.7 105.1 31 104.4 29.8 103 Z M 44.7 102.6 C 44.73 102.6 44.7 110.2 44.7 110.2 L 42.6 110.2 L 42.6 90.2 L 44.7 90.2 C 44.7 90.2 44.73 92.28 44.7 92.3 C 45.6 90.8 47 89.9 48.5 89.9 C 51.8 89.9 53.7 92.9 53.7 97.4 C 53.7 102 51.8 105.1 48.5 105.1 C 47.1 105.1 45.6 104.2 44.7 102.6 Z M 51.5 97.4 C 51.5 94.3 50.4 91.8 48 91.8 C 46.6 91.8 45.3 92.9 44.7 94.1 C 44.7 94.1 44.7 100.7 44.7 100.7 C 45.3 102 46.6 103.1 48 103.1 C 50.4 103.1 51.5 100.6 51.5 97.4 Z M 56.6 103.4 C 56.6 102.5 57.3 101.8 58.2 101.8 C 59 101.8 59.8 102.5 59.8 103.4 C 59.8 104.3 59 105 58.2 105 C 57.3 105 56.6 104.3 56.6 103.4 Z " stroke="none" fill="#d0d1d4"/>  </g>  <g id="Polygon157034">    <path d="M 1.6 65.8 C 1.6 65.8 3.1 64.4 3.1 64.4 C 4.1 66 5.4 66.9 7.4 66.9 C 9.6 66.9 10.9 64.9 10.9 62.6 C 10.9 59.7 9.6 58.2 7.5 58.2 C 6.1 58.2 5 58.7 3.9 60 C 3.9 60.03 2.1 59.4 2.1 59.4 L 2.1 48.7 L 12.3 48.7 L 12.3 50.8 L 4.5 50.8 C 4.5 50.8 4.5 57.81 4.5 57.8 C 5.3 56.9 6.6 56.1 8.2 56.1 C 11.1 56.1 13.4 58.4 13.4 62.5 C 13.4 66.3 10.9 69.1 7.4 69.1 C 4.5 69.1 2.8 67.8 1.6 65.8 Z M 31.4 68.7 C 31.4 68.7 31.44 66.63 31.4 66.6 C 30.6 68.1 29.2 69.1 27.6 69.1 C 24.4 69.1 22.4 66 22.4 61.5 C 22.4 57 24.4 53.9 27.6 53.9 C 29.1 53.9 30.6 54.7 31.4 56.3 C 31.44 56.31 31.4 48.7 31.4 48.7 L 33.6 48.7 L 33.6 68.7 L 31.4 68.7 Z M 31.4 64.8 C 31.4 64.8 31.4 58.1 31.4 58.1 C 30.9 56.9 29.5 55.8 28.2 55.8 C 25.8 55.8 24.7 58.3 24.7 61.5 C 24.7 64.6 25.8 67.1 28.2 67.1 C 29.5 67.1 30.9 66.1 31.4 64.8 Z M 37.6 68.7 L 37.6 54.2 L 39.7 54.2 C 39.7 54.2 39.69 56.52 39.7 56.5 C 40.6 55 42 53.9 43.8 53.9 C 43.8 53.9 43.8 56.1 43.8 56.1 C 43.6 56.1 43.3 56 43.1 56 C 41.8 56 40.3 57.2 39.7 58.4 C 39.69 58.41 39.7 68.7 39.7 68.7 L 37.6 68.7 Z M 45.6 61.4 C 45.6 57.4 47.6 53.9 51.4 53.9 C 55.3 53.9 57.4 57.4 57.4 61.4 C 57.4 65.5 55.3 69.1 51.4 69.1 C 47.6 69.1 45.6 65.5 45.6 61.4 Z M 55.1 61.4 C 55.1 58.5 54 55.8 51.4 55.8 C 49 55.8 47.8 58.5 47.8 61.4 C 47.8 64.4 49 67.1 51.4 67.1 C 54 67.1 55.1 64.4 55.1 61.4 Z M 62.7 66.6 C 62.73 66.6 62.7 74.2 62.7 74.2 L 60.6 74.2 L 60.6 54.2 L 62.7 54.2 C 62.7 54.2 62.73 56.28 62.7 56.3 C 63.6 54.8 65 53.9 66.5 53.9 C 69.8 53.9 71.7 56.9 71.7 61.4 C 71.7 66 69.8 69.1 66.5 69.1 C 65.1 69.1 63.6 68.2 62.7 66.6 Z M 69.5 61.4 C 69.5 58.3 68.4 55.8 66 55.8 C 64.6 55.8 63.3 56.9 62.7 58.1 C 62.7 58.1 62.7 64.7 62.7 64.7 C 63.3 66 64.6 67.1 66 67.1 C 68.4 67.1 69.5 64.6 69.5 61.4 Z M 73.8 67 C 73.8 67 74.8 65.5 74.8 65.5 C 75.7 66.5 77.1 67.3 78.6 67.3 C 80.3 67.3 81.4 66.4 81.4 65 C 81.4 61.6 74.2 62.8 74.2 57.8 C 74.2 55.6 75.9 53.9 78.8 53.9 C 80.7 53.9 82.2 54.6 83.2 55.7 C 83.2 55.7 82.2 57.2 82.2 57.2 C 81.5 56.2 80.2 55.6 78.8 55.6 C 77.2 55.6 76.3 56.5 76.3 57.7 C 76.3 60.8 83.5 59.7 83.5 64.9 C 83.5 67.3 81.6 69.1 78.7 69.1 C 76.6 69.1 75 68.4 73.8 67 Z " stroke="none" fill="#d0d1d4"/>  </g>  <g id="Polygon157033">    <path d="M 1.6 32.7 C 1.6 32.7 1.59 30.75 1.6 30.8 C 8.1 23.2 10.4 20.8 10.4 17.9 C 10.4 15.7 8.9 14.5 7.2 14.5 C 5.3 14.5 3.9 15.5 2.9 17 C 2.9 17 1.4 15.6 1.4 15.6 C 2.7 13.6 4.7 12.4 7.2 12.4 C 10.3 12.4 12.8 14.4 12.8 17.9 C 12.8 21.2 10.3 24.2 5 30.6 C 4.98 30.57 12.9 30.6 12.9 30.6 L 12.9 32.7 L 1.6 32.7 Z M 23.3 32.7 L 23.3 27.6 L 15.4 27.6 L 15.4 25.5 L 22.6 12.7 L 25.6 12.7 L 25.6 25.5 L 27.8 25.5 L 27.8 27.6 L 25.6 27.6 L 25.6 32.7 L 23.3 32.7 Z M 23.3 15.3 L 17.5 25.5 L 23.3 25.5 L 23.3 15.3 Z M 29.9 22.7 C 29.9 17.9 31.5 12.4 36.2 12.4 C 40.9 12.4 42.5 17.9 42.5 22.7 C 42.5 27.5 40.9 33.1 36.2 33.1 C 31.5 33.1 29.9 27.5 29.9 22.7 Z M 40 22.7 C 40 18.8 39.3 14.5 36.2 14.5 C 33.1 14.5 32.4 18.8 32.4 22.7 C 32.4 26.6 33.1 30.9 36.2 30.9 C 39.3 30.9 40 26.6 40 22.7 Z M 67 32.7 C 67 32.7 66.96 22.2 67 22.2 C 67 20.6 66.3 19.8 64.9 19.8 C 63.7 19.8 62.4 20.9 61.8 22.1 C 61.8 22.08 61.8 32.7 61.8 32.7 L 59.6 32.7 C 59.6 32.7 59.64 22.2 59.6 22.2 C 59.6 20.6 59 19.8 57.6 19.8 C 56.3 19.8 55.1 20.9 54.4 22.1 C 54.45 22.08 54.4 32.7 54.4 32.7 L 52.3 32.7 L 52.3 18.2 L 54.4 18.2 C 54.4 18.2 54.45 20.28 54.4 20.3 C 55 19.2 56.7 17.9 58.4 17.9 C 60.3 17.9 61.4 18.9 61.7 20.4 C 62.4 19.1 64 17.9 65.8 17.9 C 67.9 17.9 69.1 19 69.1 21.6 C 69.12 21.63 69.1 32.7 69.1 32.7 L 67 32.7 Z M 73.1 32.7 L 73.1 12.7 L 75.2 12.7 L 75.2 32.7 L 73.1 32.7 Z " stroke="none" fill="#d0d1d4"/>  </g></svg>