<?xml version="1.0" standalone="no"?><!DOCTYPE svg PUBLIC "-//W3C//DTD SVG 1.1//EN" "http://www.w3.org/Graphics/SVG/1.1/DTD/svg11.dtd"><svg xmlns="http://www.w3.org/2000/svg" version="1.1" width="92px" height="48.3px" viewBox="0 0 92 48.3">  <desc>( 2 2 )</desc>  <defs/>  <g id="Polygon233172">    <path d="M 22.8 36.4 C 20.5 32.5 19.3 28 19.3 23.1 C 19.3 18.3 20.5 13.8 22.8 9.9 C 22.8 9.9 24.2 10.7 24.2 10.7 C 22.6 14.5 21.6 18.1 21.6 23.1 C 21.6 28.2 22.6 31.8 24.2 35.6 C 24.2 35.6 22.8 36.4 22.8 36.4 Z M 27.6 30.4 C 27.6 30.4 27.64 28.49 27.6 28.5 C 34.2 21 36.4 18.5 36.4 15.6 C 36.4 13.5 34.9 12.3 33.2 12.3 C 31.3 12.3 30 13.2 29 14.8 C 29 14.8 27.4 13.3 27.4 13.3 C 28.8 11.3 30.7 10.1 33.3 10.1 C 36.3 10.1 38.9 12.1 38.9 15.6 C 38.9 18.9 36.3 21.9 31 28.3 C 31.03 28.31 39 28.3 39 28.3 L 39 30.4 L 27.6 30.4 Z M 42 31 L 47.8 9.8 L 49.5 9.8 L 43.7 31 L 42 31 Z M 52.3 30.4 C 52.3 30.4 52.33 28.49 52.3 28.5 C 58.9 21 61.1 18.5 61.1 15.6 C 61.1 13.5 59.6 12.3 57.9 12.3 C 56 12.3 54.6 13.2 53.7 14.8 C 53.7 14.8 52.1 13.3 52.1 13.3 C 53.4 11.3 55.4 10.1 57.9 10.1 C 61 10.1 63.6 12.1 63.6 15.6 C 63.6 18.9 61 21.9 55.7 28.3 C 55.72 28.31 63.6 28.3 63.6 28.3 L 63.6 30.4 L 52.3 30.4 Z M 67.2 35.6 C 68.8 31.8 69.8 28.2 69.8 23.1 C 69.8 18.1 68.8 14.5 67.2 10.7 C 67.2 10.7 68.6 9.9 68.6 9.9 C 70.9 13.8 72.2 18.3 72.2 23.1 C 72.2 28 70.9 32.5 68.6 36.4 C 68.6 36.4 67.2 35.6 67.2 35.6 Z " stroke="none" fill="#efd8d3"/>  </g></svg>