<?xml version="1.0" standalone="no"?><!DOCTYPE svg PUBLIC "-//W3C//DTD SVG 1.1//EN" "http://www.w3.org/Graphics/SVG/1.1/DTD/svg11.dtd"><svg xmlns="http://www.w3.org/2000/svg" version="1.1" width="109px" height="44.3px" viewBox="0 0 109 44.3">  <desc>BACK</desc>  <defs/>  <g id="Polygon160681">    <path d="M 24.1 23.7 L 24.1 3.7 C 24.1 3.7 32.34 3.69 32.3 3.7 C 35.9 3.7 37.6 6.1 37.6 8.8 C 37.6 11.3 36.2 12.9 34.4 13.4 C 36.5 13.7 38 15.8 38 18.3 C 38 21.3 36.2 23.7 32.6 23.7 C 32.61 23.7 24.1 23.7 24.1 23.7 Z M 33.5 9.5 C 33.5 8.1 32.8 7.2 31.4 7.2 C 31.38 7.2 28.1 7.2 28.1 7.2 L 28.1 11.8 C 28.1 11.8 31.38 11.79 31.4 11.8 C 32.8 11.8 33.5 10.9 33.5 9.5 Z M 33.8 17.7 C 33.8 16.3 33.1 15.3 31.5 15.3 C 31.53 15.27 28.1 15.3 28.1 15.3 L 28.1 20.2 C 28.1 20.2 31.53 20.19 31.5 20.2 C 33 20.2 33.8 19.3 33.8 17.7 Z M 51.3 23.7 L 50.4 20.2 L 44.3 20.2 L 43.3 23.7 L 39 23.7 L 44.9 3.7 L 49.8 3.7 L 55.7 23.7 L 51.3 23.7 Z M 47.3 7.9 L 45.1 16.6 L 49.6 16.6 L 47.3 7.9 Z M 56 13.7 C 56 7.6 59.3 3.4 64.4 3.4 C 68.3 3.4 70.1 5.8 71.1 8.2 C 71.1 8.2 67.8 9.6 67.8 9.6 C 67.2 8 66 6.9 64.4 6.9 C 61.7 6.9 60.1 9.8 60.1 13.7 C 60.1 17.6 61.7 20.5 64.4 20.5 C 66.1 20.5 67.3 19.2 67.8 17.6 C 67.8 17.6 71.2 19 71.2 19 C 70.2 21.4 68.3 24.1 64.4 24.1 C 59.3 24.1 56 19.8 56 13.7 Z M 83.6 23.7 L 79 15.9 L 77.6 18.1 L 77.6 23.7 L 73.5 23.7 L 73.5 3.7 L 77.6 3.7 L 77.6 12.8 L 83.2 3.7 L 87.9 3.7 L 81.5 13.1 L 88.3 23.7 L 83.6 23.7 Z " stroke="none" fill="#a8a6a6"/>  </g></svg>