<?xml version="1.0" standalone="no"?><!DOCTYPE svg PUBLIC "-//W3C//DTD SVG 1.1//EN" "http://www.w3.org/Graphics/SVG/1.1/DTD/svg11.dtd"><svg xmlns="http://www.w3.org/2000/svg" version="1.1" width="841px" height="256.1px" viewBox="0 0 841 256.1">  <desc>Talcum Paste Battered Rag and Putty-Coated Stuffing with Dried Acrylic Bits</desc>  <defs/>  <g id="Polygon119856">    <path d="M 223.9 192.9 L 223.9 144.9 C 223.9 144.9 235.86 144.86 235.9 144.9 C 247.5 144.9 252.2 155.2 252.2 168.9 C 252.2 182.7 247.5 192.9 235.9 192.9 C 235.94 192.88 223.9 192.9 223.9 192.9 Z M 242.9 168.9 C 242.9 158.3 240.6 152.8 235.9 152.8 C 235.86 152.85 233 152.8 233 152.8 L 233 184.9 C 233 184.9 235.86 184.89 235.9 184.9 C 240.7 184.9 242.9 179.1 242.9 168.9 Z M 257.8 192.9 L 257.8 158.1 L 265.9 158.1 C 265.9 158.1 265.89 162.93 265.9 162.9 C 267.3 159.8 270.6 157.2 273.7 157.2 C 273.7 157.2 273.7 165.2 273.7 165.2 C 273.2 165.1 272.6 165 272.1 165 C 269.7 165 267.3 167 265.9 169.5 C 265.89 169.48 265.9 192.9 265.9 192.9 L 257.8 192.9 Z M 277 149.1 C 277 146.4 279.3 144.1 281.9 144.1 C 284.7 144.1 286.9 146.4 286.9 149.1 C 286.9 151.8 284.7 154 281.9 154 C 279.3 154 277 151.8 277 149.1 Z M 277.9 192.9 L 277.9 158.1 L 286 158.1 L 286 192.9 L 277.9 192.9 Z M 291.2 175.5 C 291.2 165.4 295.6 157.2 304.3 157.2 C 313 157.2 316.7 165.1 316.7 175.3 C 316.72 175.31 316.7 178.1 316.7 178.1 C 316.7 178.1 299.08 178.12 299.1 178.1 C 299.2 183.2 301.3 187.1 305.9 187.1 C 307.9 187.1 310.1 185.8 311.7 183.7 C 311.7 183.7 315.6 188.2 315.6 188.2 C 312.9 191.7 309 193.7 305.1 193.7 C 296 193.7 291.2 186.1 291.2 175.5 Z M 304 163.9 C 300.1 163.9 299.1 168.8 299.1 172.4 C 299.1 172.4 308.9 172.4 308.9 172.4 C 308.9 168.5 308 163.9 304 163.9 Z M 337.4 192.9 C 337.4 192.9 337.38 188.56 337.4 188.6 C 335.9 192 333.1 193.7 330.6 193.7 C 323.8 193.7 320.3 186.7 320.3 175.5 C 320.3 164.6 323.8 157.2 330.6 157.2 C 333.1 157.2 335.9 158.8 337.4 162.4 C 337.38 162.42 337.4 144.9 337.4 144.9 L 345.5 144.9 L 345.5 192.9 L 337.4 192.9 Z M 337.4 182.4 C 337.4 182.4 337.4 168.6 337.4 168.6 C 336.7 166.3 335 164.4 333.3 164.4 C 329.7 164.4 328.7 169.3 328.7 175.5 C 328.7 181.6 329.7 186.5 333.3 186.5 C 335 186.5 336.7 184.7 337.4 182.4 Z M 381.7 192.9 L 380.3 184 L 371.4 184 L 369.9 192.9 L 360.6 192.9 L 370.6 144.9 L 381 144.9 L 391.1 192.9 L 381.7 192.9 Z M 375.8 155 L 372.4 176 L 379.3 176 L 375.8 155 Z M 392.9 175.5 C 392.9 164.9 397.8 157.2 406.1 157.2 C 410 157.2 412.9 158.7 414.6 160.3 C 414.6 160.3 412 166.7 412 166.7 C 410.5 165.2 409.2 164.4 407.6 164.4 C 403.3 164.4 401.2 169.4 401.2 175.5 C 401.2 181.5 403.3 186.5 407.6 186.5 C 409.2 186.5 410.5 185.8 412 184.3 C 412 184.3 414.6 190.6 414.6 190.6 C 412.9 192.4 410 193.7 406.1 193.7 C 397.8 193.7 392.9 186 392.9 175.5 Z M 419 192.9 L 419 158.1 L 427.2 158.1 C 427.2 158.1 427.16 162.93 427.2 162.9 C 428.5 159.8 431.9 157.2 434.9 157.2 C 434.9 157.2 434.9 165.2 434.9 165.2 C 434.4 165.1 433.9 165 433.4 165 C 431 165 428.5 167 427.2 169.5 C 427.16 169.48 427.2 192.9 427.2 192.9 L 419 192.9 Z M 439.9 199.4 C 440.4 199.6 441.1 199.8 441.6 199.8 C 443.1 199.8 443.9 199.1 444.4 197.3 C 444.44 197.34 445.5 193.7 445.5 193.7 L 436 158.1 L 444.7 158.1 L 449.6 182.6 L 454.6 158.1 L 463.2 158.1 C 463.2 158.1 452.22 199 452.2 199 C 450.5 205.3 447.7 207 442.6 207 C 441.5 207 439.5 206.8 438.8 206.5 C 438.8 206.5 439.9 199.4 439.9 199.4 Z M 466.5 192.9 L 466.5 144.9 L 474.7 144.9 L 474.7 192.9 L 466.5 192.9 Z M 480.3 149.1 C 480.3 146.4 482.6 144.1 485.3 144.1 C 488 144.1 490.2 146.4 490.2 149.1 C 490.2 151.8 488 154 485.3 154 C 482.6 154 480.3 151.8 480.3 149.1 Z M 481.2 192.9 L 481.2 158.1 L 489.4 158.1 L 489.4 192.9 L 481.2 192.9 Z M 494.6 175.5 C 494.6 164.9 499.5 157.2 507.8 157.2 C 511.7 157.2 514.6 158.7 516.2 160.3 C 516.2 160.3 513.6 166.7 513.6 166.7 C 512.2 165.2 510.9 164.4 509.2 164.4 C 505 164.4 502.9 169.4 502.9 175.5 C 502.9 181.5 505 186.5 509.2 186.5 C 510.9 186.5 512.2 185.8 513.6 184.3 C 513.6 184.3 516.2 190.6 516.2 190.6 C 514.6 192.4 511.7 193.7 507.8 193.7 C 499.5 193.7 494.6 186 494.6 175.5 Z M 532.9 192.9 L 532.9 144.9 C 532.9 144.9 547.33 144.86 547.3 144.9 C 555.3 144.9 558.9 150.5 558.9 157.1 C 558.9 163.1 556 166.9 551.8 168.1 C 556.3 168.8 559.5 174 559.5 179.9 C 559.5 187.3 556.1 192.9 547.8 192.9 C 547.83 192.88 532.9 192.9 532.9 192.9 Z M 549.6 158.7 C 549.6 155.2 548.3 152.8 545 152.8 C 544.95 152.85 541.9 152.8 541.9 152.8 L 541.9 164.4 C 541.9 164.4 544.95 164.44 545 164.4 C 548.3 164.4 549.6 162.1 549.6 158.7 Z M 550.2 178.6 C 550.2 175.1 548.6 172.4 545.2 172.4 C 545.24 172.43 541.9 172.4 541.9 172.4 L 541.9 184.9 C 541.9 184.9 545.24 184.89 545.2 184.9 C 548.6 184.9 550.2 182.7 550.2 178.6 Z M 564 149.1 C 564 146.4 566.3 144.1 569 144.1 C 571.7 144.1 574 146.4 574 149.1 C 574 151.8 571.7 154 569 154 C 566.3 154 564 151.8 564 149.1 Z M 565 192.9 L 565 158.1 L 573.1 158.1 L 573.1 192.9 L 565 192.9 Z M 580.7 184.9 C 580.74 184.89 580.7 165.2 580.7 165.2 L 577.5 165.2 L 577.5 158.1 L 580.7 158.1 L 580.7 148.6 L 588.9 148.6 L 588.9 158.1 L 593.3 158.1 L 593.3 165.2 L 588.9 165.2 C 588.9 165.2 588.87 183.3 588.9 183.3 C 588.9 185.5 589.4 186.5 590.8 186.5 C 591.6 186.5 592.3 186.2 592.8 185.6 C 592.8 185.6 594.4 191.9 594.4 191.9 C 593.2 193 591.2 193.7 588.7 193.7 C 583 193.7 580.7 190.9 580.7 184.9 Z M 595.8 189.2 C 595.8 189.2 599.2 183.6 599.2 183.6 C 601 185.7 603.6 187.3 606.4 187.3 C 609 187.3 610.8 185.9 610.8 183.6 C 610.8 177.9 597 179.2 597 167.1 C 597 161.8 601 157.2 608.1 157.2 C 612.1 157.2 615.7 158.8 618.3 161.3 C 618.3 161.3 615 166.8 615 166.8 C 613.6 165.2 611.1 163.6 608.3 163.6 C 606.1 163.6 604.6 165.1 604.6 166.9 C 604.6 172.1 618.5 171.2 618.5 183.4 C 618.5 189.5 613.7 193.7 607.1 193.7 C 601.9 193.7 598.1 191.9 595.8 189.2 Z " stroke="none" fill="#e9e8e8"/>  </g>  <g id="Polygon119855">    <path d="M 108 124.9 L 108 76.9 C 108 76.9 120.99 76.86 121 76.9 C 130.3 76.9 134.5 84 134.5 92 C 134.5 100.1 130.3 107.2 121 107.2 C 120.99 107.24 117.1 107.2 117.1 107.2 L 117.1 124.9 L 108 124.9 Z M 125.3 92 C 125.3 87.7 123.4 84.8 120.1 84.8 C 120.05 84.85 117.1 84.8 117.1 84.8 L 117.1 99.2 C 117.1 99.2 120.05 99.25 120.1 99.2 C 123.4 99.2 125.3 96.4 125.3 92 Z M 154.8 124.9 C 154.8 124.9 154.83 120.49 154.8 120.5 C 153.5 123.3 150.1 125.7 146.7 125.7 C 141.4 125.7 139.3 122.9 139.3 117.9 C 139.35 117.9 139.3 90.1 139.3 90.1 L 147.5 90.1 C 147.5 90.1 147.48 115.02 147.5 115 C 147.5 117.4 148.3 118.5 150.1 118.5 C 152.2 118.5 154 116.4 154.8 114.2 C 154.83 114.15 154.8 90.1 154.8 90.1 L 163 90.1 L 163 124.9 L 154.8 124.9 Z M 170.7 116.9 C 170.67 116.89 170.7 97.2 170.7 97.2 L 167.4 97.2 L 167.4 90.1 L 170.7 90.1 L 170.7 80.6 L 178.8 80.6 L 178.8 90.1 L 183.2 90.1 L 183.2 97.2 L 178.8 97.2 C 178.8 97.2 178.8 115.3 178.8 115.3 C 178.8 117.5 179.3 118.5 180.7 118.5 C 181.5 118.5 182.3 118.2 182.7 117.6 C 182.7 117.6 184.3 123.9 184.3 123.9 C 183.1 125 181.2 125.7 178.7 125.7 C 173 125.7 170.7 122.9 170.7 116.9 Z M 189.2 116.9 C 189.24 116.89 189.2 97.2 189.2 97.2 L 186 97.2 L 186 90.1 L 189.2 90.1 L 189.2 80.6 L 197.4 80.6 L 197.4 90.1 L 201.8 90.1 L 201.8 97.2 L 197.4 97.2 C 197.4 97.2 197.38 115.3 197.4 115.3 C 197.4 117.5 197.9 118.5 199.3 118.5 C 200.1 118.5 200.8 118.2 201.3 117.6 C 201.3 117.6 202.9 123.9 202.9 123.9 C 201.7 125 199.8 125.7 197.2 125.7 C 191.5 125.7 189.2 122.9 189.2 116.9 Z M 207.5 131.4 C 208 131.6 208.7 131.8 209.1 131.8 C 210.6 131.8 211.5 131.1 212 129.3 C 212 129.34 213 125.7 213 125.7 L 203.6 90.1 L 212.2 90.1 L 217.1 114.6 L 222.1 90.1 L 230.7 90.1 C 230.7 90.1 219.77 131 219.8 131 C 218 137.3 215.2 139 210.2 139 C 209 139 207.1 138.8 206.3 138.5 C 206.3 138.5 207.5 131.4 207.5 131.4 Z M 232.9 110.9 L 232.9 104 L 246 104 L 246 110.9 L 232.9 110.9 Z M 250.4 100.9 C 250.4 86.6 254.9 76.1 265.4 76.1 C 273.2 76.1 275.9 82.3 277.4 87.4 C 277.4 87.4 270.2 90 270.2 90 C 269.2 86.4 268.1 84.1 265.4 84.1 C 261.1 84.1 259.7 91.1 259.7 100.9 C 259.7 110.7 261.1 117.7 265.4 117.7 C 268.4 117.7 269.7 114.7 270.3 110.7 C 270.3 110.7 277.6 113.4 277.6 113.4 C 276.2 118.8 273.4 125.7 265.4 125.7 C 254.9 125.7 250.4 115.2 250.4 100.9 Z M 281 107.5 C 281 97.8 284.9 89.2 294 89.2 C 303.1 89.2 307.1 97.8 307.1 107.5 C 307.1 117.1 303.1 125.7 294 125.7 C 284.9 125.7 281 117.1 281 107.5 Z M 298.7 107.5 C 298.7 101.6 297.7 96.4 294 96.4 C 290.4 96.4 289.4 101.6 289.4 107.5 C 289.4 113.4 290.4 118.5 294 118.5 C 297.7 118.5 298.7 113.4 298.7 107.5 Z M 327.5 124.9 C 327.5 124.9 327.48 121.57 327.5 121.6 C 326 124.3 322.7 125.7 320.2 125.7 C 314.7 125.7 310.8 121.3 310.8 114.2 C 310.8 107.1 314.7 102.8 320.2 102.8 C 322.7 102.8 326 104.1 327.5 106.7 C 327.5 106.7 327.5 102.5 327.5 102.5 C 327.5 98.5 325.9 96.2 322.2 96.2 C 319.9 96.2 317.5 97.2 315.2 99.6 C 315.2 99.6 312.1 93.8 312.1 93.8 C 315.3 90.5 320.3 89.2 323.9 89.2 C 331 89.2 335.6 92.8 335.6 100.6 C 335.62 100.62 335.6 124.9 335.6 124.9 L 327.5 124.9 Z M 327.5 116.7 C 327.5 116.7 327.5 112 327.5 112 C 326.6 109.8 324.9 108.4 323.1 108.4 C 320.3 108.4 318.9 111 318.9 114.3 C 318.9 117.6 320.3 120.3 323.1 120.3 C 324.9 120.3 326.6 118.9 327.5 116.7 Z M 343.3 116.9 C 343.32 116.89 343.3 97.2 343.3 97.2 L 340.1 97.2 L 340.1 90.1 L 343.3 90.1 L 343.3 80.6 L 351.5 80.6 L 351.5 90.1 L 355.8 90.1 L 355.8 97.2 L 351.5 97.2 C 351.5 97.2 351.46 115.3 351.5 115.3 C 351.5 117.5 352 118.5 353.4 118.5 C 354.2 118.5 354.9 118.2 355.3 117.6 C 355.3 117.6 357 123.9 357 123.9 C 355.8 125 353.8 125.7 351.3 125.7 C 345.6 125.7 343.3 122.9 343.3 116.9 Z M 359.4 107.5 C 359.4 97.4 363.8 89.2 372.5 89.2 C 381.3 89.2 384.9 97.1 384.9 107.3 C 384.94 107.31 384.9 110.1 384.9 110.1 C 384.9 110.1 367.3 110.12 367.3 110.1 C 367.4 115.2 369.5 119.1 374.1 119.1 C 376.1 119.1 378.3 117.8 379.9 115.7 C 379.9 115.7 383.9 120.2 383.9 120.2 C 381.1 123.7 377.2 125.7 373.3 125.7 C 364.2 125.7 359.4 118.1 359.4 107.5 Z M 372.3 95.9 C 368.3 95.9 367.3 100.8 367.3 104.4 C 367.3 104.4 377.1 104.4 377.1 104.4 C 377.1 100.5 376.2 95.9 372.3 95.9 Z M 405.6 124.9 C 405.6 124.9 405.6 120.56 405.6 120.6 C 404.1 124 401.3 125.7 398.8 125.7 C 392 125.7 388.5 118.7 388.5 107.5 C 388.5 96.6 392 89.2 398.8 89.2 C 401.3 89.2 404.2 90.8 405.6 94.4 C 405.6 94.42 405.6 76.9 405.6 76.9 L 413.7 76.9 L 413.7 124.9 L 405.6 124.9 Z M 405.6 114.4 C 405.6 114.4 405.6 100.6 405.6 100.6 C 404.9 98.3 403.2 96.4 401.5 96.4 C 397.9 96.4 396.9 101.3 396.9 107.5 C 396.9 113.6 397.9 118.5 401.5 118.5 C 403.2 118.5 404.9 116.7 405.6 114.4 Z M 429.6 121 C 429.6 121 433.6 113.9 433.6 113.9 C 435.6 116.4 438.6 117.7 441.5 117.7 C 444.3 117.7 446.3 115.5 446.3 112.4 C 446.3 103.9 431 103.9 431 89.5 C 431 82.3 435.9 76.1 444.4 76.1 C 448.4 76.1 452.2 77.4 454.8 80 C 454.8 80 451.3 86.9 451.3 86.9 C 449.4 85 447.2 84.1 444.7 84.1 C 442.1 84.1 440.2 86.1 440.2 89 C 440.2 96.4 455.5 97.4 455.5 111.8 C 455.5 119.9 450.2 125.7 442 125.7 C 436.8 125.7 432.7 124.1 429.6 121 Z M 461 116.9 C 460.97 116.89 461 97.2 461 97.2 L 457.7 97.2 L 457.7 90.1 L 461 90.1 L 461 80.6 L 469.1 80.6 L 469.1 90.1 L 473.5 90.1 L 473.5 97.2 L 469.1 97.2 C 469.1 97.2 469.1 115.3 469.1 115.3 C 469.1 117.5 469.6 118.5 471 118.5 C 471.8 118.5 472.6 118.2 473 117.6 C 473 117.6 474.6 123.9 474.6 123.9 C 473.4 125 471.5 125.7 469 125.7 C 463.3 125.7 461 122.9 461 116.9 Z M 493.9 124.9 C 493.9 124.9 493.94 120.49 493.9 120.5 C 492.6 123.3 489.2 125.7 485.8 125.7 C 480.6 125.7 478.5 122.9 478.5 117.9 C 478.46 117.9 478.5 90.1 478.5 90.1 L 486.6 90.1 C 486.6 90.1 486.6 115.02 486.6 115 C 486.6 117.4 487.5 118.5 489.3 118.5 C 491.4 118.5 493.2 116.4 493.9 114.2 C 493.94 114.15 493.9 90.1 493.9 90.1 L 502.2 90.1 L 502.2 124.9 L 493.9 124.9 Z M 527.8 124.9 L 527.8 97.2 L 524.6 97.2 L 524.6 90.1 L 527.8 90.1 C 527.8 90.1 527.78 86.5 527.8 86.5 C 527.8 79.9 531.1 76.1 536.4 76.1 C 538.5 76.1 539.8 76.4 541.3 77.1 C 541.3 77.1 540 83.6 540 83.6 C 539.7 83.3 539.2 83.2 538.6 83.2 C 537 83.2 535.9 84.3 535.9 86.5 C 535.92 86.5 535.9 90.1 535.9 90.1 L 540.3 90.1 L 540.3 97.2 L 535.9 97.2 L 535.9 124.9 L 527.8 124.9 Z M 543.7 81.1 C 543.7 78.4 546 76.1 548.7 76.1 C 551.4 76.1 553.6 78.4 553.6 81.1 C 553.6 83.8 551.4 86 548.7 86 C 546 86 543.7 83.8 543.7 81.1 Z M 544.6 124.9 L 544.6 90.1 L 552.8 90.1 L 552.8 124.9 L 544.6 124.9 Z M 509.8 124.9 L 509.8 97.2 L 506.6 97.2 L 506.6 90.1 L 509.8 90.1 C 509.8 90.1 509.78 86.5 509.8 86.5 C 509.8 79.9 513 76.1 519.1 76.1 C 521.4 76.1 523.8 76.8 525.2 78.1 C 525.2 78.1 523.1 84.3 523.1 84.3 C 522.4 83.6 521.7 83.2 520.7 83.2 C 518.9 83.2 517.9 84.5 517.9 86.5 C 517.92 86.5 517.9 90.1 517.9 90.1 L 522.3 90.1 L 522.3 97.2 L 517.9 97.2 L 517.9 124.9 L 509.8 124.9 Z M 574.8 124.9 C 574.8 124.9 574.8 100.11 574.8 100.1 C 574.8 97.7 573.9 96.4 572.1 96.4 C 570 96.4 568.2 98.7 567.5 101 C 567.45 100.98 567.5 124.9 567.5 124.9 L 559.3 124.9 L 559.3 90.1 L 567.5 90.1 C 567.5 90.1 567.45 94.64 567.5 94.6 C 568.8 91.8 572.4 89.2 575.6 89.2 C 580.8 89.2 583 92.3 583 97.2 C 583.01 97.16 583 124.9 583 124.9 L 574.8 124.9 Z M 589.5 135.2 C 589.5 135.2 592.2 128.6 592.2 128.6 C 594.2 130.6 596.7 131.9 599.3 131.9 C 602.8 131.9 605.3 129.7 605.3 124.3 C 605.3 124.3 605.3 119.3 605.3 119.3 C 603.7 122.8 600.9 124.6 598.5 124.6 C 591.6 124.6 588.2 118.1 588.2 107 C 588.2 96 591.6 89.2 598.5 89.2 C 600.9 89.2 603.8 90.8 605.3 94.4 C 605.25 94.42 605.3 90.1 605.3 90.1 L 613.4 90.1 C 613.4 90.1 613.39 123.73 613.4 123.7 C 613.4 135.7 607 139 600.2 139 C 595.9 139 592.4 138 589.5 135.2 Z M 605.3 113.2 C 605.3 113.2 605.3 100.6 605.3 100.6 C 604.5 98.3 602.9 96.4 601.1 96.4 C 597.5 96.4 596.5 100.8 596.5 107 C 596.5 113.1 597.5 117.4 601.1 117.4 C 602.9 117.4 604.5 115.5 605.3 113.2 Z M 655.3 124.9 L 650.3 101.2 L 645.4 124.9 L 636.8 124.9 L 628.8 90.1 L 637.2 90.1 L 641.6 113.9 L 646.1 90.1 L 654 90.1 L 658.9 113.9 L 663.4 90.1 L 671.9 90.1 L 663.8 124.9 L 655.3 124.9 Z M 674.6 81.1 C 674.6 78.4 676.9 76.1 679.6 76.1 C 682.3 76.1 684.5 78.4 684.5 81.1 C 684.5 83.8 682.3 86 679.6 86 C 676.9 86 674.6 83.8 674.6 81.1 Z M 675.5 124.9 L 675.5 90.1 L 683.7 90.1 L 683.7 124.9 L 675.5 124.9 Z M 691.3 116.9 C 691.29 116.89 691.3 97.2 691.3 97.2 L 688.1 97.2 L 688.1 90.1 L 691.3 90.1 L 691.3 80.6 L 699.4 80.6 L 699.4 90.1 L 703.8 90.1 L 703.8 97.2 L 699.4 97.2 C 699.4 97.2 699.43 115.3 699.4 115.3 C 699.4 117.5 699.9 118.5 701.4 118.5 C 702.2 118.5 702.9 118.2 703.3 117.6 C 703.3 117.6 705 123.9 705 123.9 C 703.7 125 701.8 125.7 699.3 125.7 C 693.6 125.7 691.3 122.9 691.3 116.9 Z M 724.3 124.9 C 724.3 124.9 724.27 99.97 724.3 100 C 724.3 97.6 723.4 96.4 721.6 96.4 C 719.5 96.4 717.7 98.7 716.9 101 C 716.92 100.98 716.9 124.9 716.9 124.9 L 708.8 124.9 L 708.8 76.9 L 716.9 76.9 C 716.9 76.9 716.92 94.64 716.9 94.6 C 718.3 91.8 721.9 89.2 725.1 89.2 C 730.3 89.2 732.5 92.1 732.5 97.1 C 732.47 97.09 732.5 124.9 732.5 124.9 L 724.3 124.9 Z " stroke="none" fill="#e9e8e8"/>  </g>  <g id="Polygon119854">    <path d="M 58.6 56.9 L 58.6 16.8 L 51.3 16.8 L 51.3 8.9 L 74.9 8.9 L 74.9 16.8 L 67.6 16.8 L 67.6 56.9 L 58.6 56.9 Z M 91.3 56.9 C 91.3 56.9 91.33 53.57 91.3 53.6 C 89.8 56.3 86.6 57.7 84.1 57.7 C 78.6 57.7 74.6 53.3 74.6 46.2 C 74.6 39.1 78.6 34.8 84.1 34.8 C 86.6 34.8 89.9 36.1 91.3 38.7 C 91.3 38.7 91.3 34.5 91.3 34.5 C 91.3 30.5 89.7 28.2 86.1 28.2 C 83.8 28.2 81.3 29.2 79 31.6 C 79 31.6 76 25.8 76 25.8 C 79.2 22.5 84.1 21.2 87.7 21.2 C 94.9 21.2 99.5 24.8 99.5 32.6 C 99.46 32.62 99.5 56.9 99.5 56.9 L 91.3 56.9 Z M 91.3 48.7 C 91.3 48.7 91.3 44 91.3 44 C 90.5 41.8 88.7 40.4 86.9 40.4 C 84.1 40.4 82.8 43 82.8 46.3 C 82.8 49.6 84.1 52.3 86.9 52.3 C 88.7 52.3 90.5 50.9 91.3 48.7 Z M 106.1 56.9 L 106.1 8.9 L 114.2 8.9 L 114.2 56.9 L 106.1 56.9 Z M 119.4 39.5 C 119.4 28.9 124.3 21.2 132.7 21.2 C 136.5 21.2 139.4 22.7 141.1 24.3 C 141.1 24.3 138.5 30.7 138.5 30.7 C 137 29.2 135.7 28.4 134.1 28.4 C 129.8 28.4 127.8 33.4 127.8 39.5 C 127.8 45.5 129.8 50.5 134.1 50.5 C 135.7 50.5 137 49.8 138.5 48.3 C 138.5 48.3 141.1 54.6 141.1 54.6 C 139.4 56.4 136.5 57.7 132.7 57.7 C 124.3 57.7 119.4 50 119.4 39.5 Z M 161 56.9 C 161 56.9 161.02 52.49 161 52.5 C 159.7 55.3 156.3 57.7 152.9 57.7 C 147.6 57.7 145.5 54.9 145.5 49.9 C 145.54 49.9 145.5 22.1 145.5 22.1 L 153.7 22.1 C 153.7 22.1 153.68 47.02 153.7 47 C 153.7 49.4 154.5 50.5 156.3 50.5 C 158.4 50.5 160.2 48.4 161 46.2 C 161.02 46.15 161 22.1 161 22.1 L 169.2 22.1 L 169.2 56.9 L 161 56.9 Z M 206.8 56.9 C 206.8 56.9 206.81 32.11 206.8 32.1 C 206.8 29.5 205.9 28.4 204.1 28.4 C 201.9 28.4 200.2 30.9 199.5 33 C 199.47 32.98 199.5 56.9 199.5 56.9 L 191.3 56.9 C 191.3 56.9 191.26 32.11 191.3 32.1 C 191.3 29.7 190.5 28.4 188.6 28.4 C 186.4 28.4 184.6 30.9 183.9 33 C 183.92 32.98 183.9 56.9 183.9 56.9 L 175.8 56.9 L 175.8 22.1 L 183.9 22.1 C 183.9 22.1 183.92 26.64 183.9 26.6 C 185.1 24 188.7 21.2 192.1 21.2 C 195.7 21.2 198.6 23 199.2 27 C 200.5 24.1 204.1 21.2 207.6 21.2 C 211.9 21.2 214.9 23.5 214.9 29.2 C 214.95 29.16 214.9 56.9 214.9 56.9 L 206.8 56.9 Z M 233.7 56.9 L 233.7 8.9 C 233.7 8.9 246.7 8.86 246.7 8.9 C 256.1 8.9 260.2 16 260.2 24 C 260.2 32.1 256.1 39.2 246.7 39.2 C 246.7 39.24 242.8 39.2 242.8 39.2 L 242.8 56.9 L 233.7 56.9 Z M 251 24 C 251 19.7 249.1 16.8 245.8 16.8 C 245.76 16.85 242.8 16.8 242.8 16.8 L 242.8 31.2 C 242.8 31.2 245.76 31.25 245.8 31.2 C 249.1 31.2 251 28.4 251 24 Z M 279.1 56.9 C 279.1 56.9 279.1 53.57 279.1 53.6 C 277.6 56.3 274.3 57.7 271.8 57.7 C 266.4 57.7 262.4 53.3 262.4 46.2 C 262.4 39.1 266.4 34.8 271.8 34.8 C 274.3 34.8 277.7 36.1 279.1 38.7 C 279.1 38.7 279.1 34.5 279.1 34.5 C 279.1 30.5 277.5 28.2 273.8 28.2 C 271.5 28.2 269.1 29.2 266.8 31.6 C 266.8 31.6 263.8 25.8 263.8 25.8 C 266.9 22.5 271.9 21.2 275.5 21.2 C 282.6 21.2 287.2 24.8 287.2 32.6 C 287.24 32.62 287.2 56.9 287.2 56.9 L 279.1 56.9 Z M 279.1 48.7 C 279.1 48.7 279.1 44 279.1 44 C 278.2 41.8 276.5 40.4 274.7 40.4 C 271.9 40.4 270.5 43 270.5 46.3 C 270.5 49.6 271.9 52.3 274.7 52.3 C 276.5 52.3 278.2 50.9 279.1 48.7 Z M 291.4 53.2 C 291.4 53.2 294.8 47.6 294.8 47.6 C 296.7 49.7 299.3 51.3 302 51.3 C 304.6 51.3 306.4 49.9 306.4 47.6 C 306.4 41.9 292.6 43.2 292.6 31.1 C 292.6 25.8 296.6 21.2 303.7 21.2 C 307.7 21.2 311.4 22.8 313.9 25.3 C 313.9 25.3 310.6 30.8 310.6 30.8 C 309.3 29.2 306.7 27.6 303.9 27.6 C 301.7 27.6 300.2 29.1 300.2 30.9 C 300.2 36.1 314.1 35.2 314.1 47.4 C 314.1 53.5 309.3 57.7 302.7 57.7 C 297.5 57.7 293.7 55.9 291.4 53.2 Z M 319.9 48.9 C 319.85 48.89 319.9 29.2 319.9 29.2 L 316.6 29.2 L 316.6 22.1 L 319.9 22.1 L 319.9 12.6 L 328 12.6 L 328 22.1 L 332.4 22.1 L 332.4 29.2 L 328 29.2 C 328 29.2 327.99 47.3 328 47.3 C 328 49.5 328.5 50.5 329.9 50.5 C 330.7 50.5 331.4 50.2 331.9 49.6 C 331.9 49.6 333.5 55.9 333.5 55.9 C 332.3 57 330.4 57.7 327.8 57.7 C 322.2 57.7 319.9 54.9 319.9 48.9 Z M 336 39.5 C 336 29.4 340.3 21.2 349 21.2 C 357.8 21.2 361.5 29.1 361.5 39.3 C 361.47 39.31 361.5 42.1 361.5 42.1 C 361.5 42.1 343.83 42.12 343.8 42.1 C 343.9 47.2 346.1 51.1 350.7 51.1 C 352.6 51.1 354.8 49.8 356.4 47.7 C 356.4 47.7 360.4 52.2 360.4 52.2 C 357.7 55.7 353.8 57.7 349.8 57.7 C 340.7 57.7 336 50.1 336 39.5 Z M 348.8 27.9 C 344.8 27.9 343.8 32.8 343.8 36.4 C 343.8 36.4 353.6 36.4 353.6 36.4 C 353.6 32.5 352.8 27.9 348.8 27.9 Z M 378.6 56.9 L 378.6 8.9 C 378.6 8.9 393.07 8.86 393.1 8.9 C 401.1 8.9 404.6 14.5 404.6 21.1 C 404.6 27.1 401.7 30.9 397.5 32.1 C 402.1 32.8 405.2 38 405.2 43.9 C 405.2 51.3 401.9 56.9 393.6 56.9 C 393.58 56.88 378.6 56.9 378.6 56.9 Z M 395.3 22.7 C 395.3 19.2 394.1 16.8 390.7 16.8 C 390.7 16.85 387.7 16.8 387.7 16.8 L 387.7 28.4 C 387.7 28.4 390.7 28.44 390.7 28.4 C 394.1 28.4 395.3 26.1 395.3 22.7 Z M 396 42.6 C 396 39.1 394.4 36.4 391 36.4 C 390.99 36.43 387.7 36.4 387.7 36.4 L 387.7 48.9 C 387.7 48.9 390.99 48.89 391 48.9 C 394.4 48.9 396 46.7 396 42.6 Z M 425.8 56.9 C 425.8 56.9 425.83 53.57 425.8 53.6 C 424.3 56.3 421.1 57.7 418.6 57.7 C 413.1 57.7 409.1 53.3 409.1 46.2 C 409.1 39.1 413.1 34.8 418.6 34.8 C 421.1 34.8 424.4 36.1 425.8 38.7 C 425.8 38.7 425.8 34.5 425.8 34.5 C 425.8 30.5 424.2 28.2 420.6 28.2 C 418.3 28.2 415.8 29.2 413.5 31.6 C 413.5 31.6 410.5 25.8 410.5 25.8 C 413.7 22.5 418.6 21.2 422.2 21.2 C 429.4 21.2 434 24.8 434 32.6 C 433.97 32.62 434 56.9 434 56.9 L 425.8 56.9 Z M 425.8 48.7 C 425.8 48.7 425.8 44 425.8 44 C 425 41.8 423.2 40.4 421.4 40.4 C 418.6 40.4 417.3 43 417.3 46.3 C 417.3 49.6 418.6 52.3 421.4 52.3 C 423.2 52.3 425 50.9 425.8 48.7 Z M 441.7 48.9 C 441.67 48.89 441.7 29.2 441.7 29.2 L 438.4 29.2 L 438.4 22.1 L 441.7 22.1 L 441.7 12.6 L 449.8 12.6 L 449.8 22.1 L 454.2 22.1 L 454.2 29.2 L 449.8 29.2 C 449.8 29.2 449.81 47.3 449.8 47.3 C 449.8 49.5 450.3 50.5 451.8 50.5 C 452.5 50.5 453.3 50.2 453.7 49.6 C 453.7 49.6 455.4 55.9 455.4 55.9 C 454.1 57 452.2 57.7 449.7 57.7 C 444 57.7 441.7 54.9 441.7 48.9 Z M 460.2 48.9 C 460.25 48.89 460.2 29.2 460.2 29.2 L 457 29.2 L 457 22.1 L 460.2 22.1 L 460.2 12.6 L 468.4 12.6 L 468.4 22.1 L 472.8 22.1 L 472.8 29.2 L 468.4 29.2 C 468.4 29.2 468.38 47.3 468.4 47.3 C 468.4 49.5 468.9 50.5 470.3 50.5 C 471.1 50.5 471.8 50.2 472.3 49.6 C 472.3 49.6 473.9 55.9 473.9 55.9 C 472.7 57 470.8 57.7 468.2 57.7 C 462.6 57.7 460.2 54.9 460.2 48.9 Z M 476.4 39.5 C 476.4 29.4 480.7 21.2 489.4 21.2 C 498.2 21.2 501.9 29.1 501.9 39.3 C 501.86 39.31 501.9 42.1 501.9 42.1 C 501.9 42.1 484.22 42.12 484.2 42.1 C 484.3 47.2 486.5 51.1 491.1 51.1 C 493 51.1 495.2 49.8 496.8 47.7 C 496.8 47.7 500.8 52.2 500.8 52.2 C 498 55.7 494.2 57.7 490.2 57.7 C 481.1 57.7 476.4 50.1 476.4 39.5 Z M 489.2 27.9 C 485.2 27.9 484.2 32.8 484.2 36.4 C 484.2 36.4 494 36.4 494 36.4 C 494 32.5 493.2 27.9 489.2 27.9 Z M 506.8 56.9 L 506.8 22.1 L 515 22.1 C 515 22.1 514.97 26.93 515 26.9 C 516.3 23.8 519.7 21.2 522.7 21.2 C 522.7 21.2 522.7 29.2 522.7 29.2 C 522.2 29.1 521.7 29 521.2 29 C 518.8 29 516.3 31 515 33.5 C 514.97 33.48 515 56.9 515 56.9 L 506.8 56.9 Z M 525.6 39.5 C 525.6 29.4 529.9 21.2 538.7 21.2 C 547.4 21.2 551.1 29.1 551.1 39.3 C 551.11 39.31 551.1 42.1 551.1 42.1 C 551.1 42.1 533.47 42.12 533.5 42.1 C 533.5 47.2 535.7 51.1 540.3 51.1 C 542.3 51.1 544.5 49.8 546.1 47.7 C 546.1 47.7 550 52.2 550 52.2 C 547.3 55.7 543.4 57.7 539.4 57.7 C 530.4 57.7 525.6 50.1 525.6 39.5 Z M 538.4 27.9 C 534.5 27.9 533.5 32.8 533.5 36.4 C 533.5 36.4 543.3 36.4 543.3 36.4 C 543.3 32.5 542.4 27.9 538.4 27.9 Z M 571.8 56.9 C 571.8 56.9 571.77 52.56 571.8 52.6 C 570.3 56 567.5 57.7 565 57.7 C 558.2 57.7 554.7 50.7 554.7 39.5 C 554.7 28.6 558.2 21.2 565 21.2 C 567.5 21.2 570.3 22.8 571.8 26.4 C 571.77 26.42 571.8 8.9 571.8 8.9 L 579.9 8.9 L 579.9 56.9 L 571.8 56.9 Z M 571.8 46.4 C 571.8 46.4 571.8 32.6 571.8 32.6 C 571.1 30.3 569.4 28.4 567.7 28.4 C 564.1 28.4 563.1 33.3 563.1 39.5 C 563.1 45.6 564.1 50.5 567.7 50.5 C 569.4 50.5 571.1 48.7 571.8 46.4 Z M 615.9 56.9 L 610.7 39.2 L 607.8 39.2 L 607.8 56.9 L 598.7 56.9 L 598.7 8.9 C 598.7 8.9 612.09 8.86 612.1 8.9 C 619.7 8.9 625.2 15 625.2 23.8 C 625.2 31.9 621.7 35.6 619 37 C 619.01 37.01 625.6 56.9 625.6 56.9 L 615.9 56.9 Z M 616 24 C 616 19.7 614.1 16.8 610.7 16.8 C 610.73 16.85 607.8 16.8 607.8 16.8 L 607.8 31.2 C 607.8 31.2 610.73 31.25 610.7 31.2 C 614.1 31.2 616 28.4 616 24 Z M 645.8 56.9 C 645.8 56.9 645.79 53.57 645.8 53.6 C 644.3 56.3 641 57.7 638.5 57.7 C 633 57.7 629.1 53.3 629.1 46.2 C 629.1 39.1 633 34.8 638.5 34.8 C 641 34.8 644.3 36.1 645.8 38.7 C 645.8 38.7 645.8 34.5 645.8 34.5 C 645.8 30.5 644.2 28.2 640.5 28.2 C 638.2 28.2 635.8 29.2 633.5 31.6 C 633.5 31.6 630.5 25.8 630.5 25.8 C 633.6 22.5 638.6 21.2 642.2 21.2 C 649.3 21.2 653.9 24.8 653.9 32.6 C 653.93 32.62 653.9 56.9 653.9 56.9 L 645.8 56.9 Z M 645.8 48.7 C 645.8 48.7 645.8 44 645.8 44 C 644.9 41.8 643.2 40.4 641.4 40.4 C 638.6 40.4 637.2 43 637.2 46.3 C 637.2 49.6 638.6 52.3 641.4 52.3 C 643.2 52.3 644.9 50.9 645.8 48.7 Z M 660.5 67.2 C 660.5 67.2 663.2 60.6 663.2 60.6 C 665.2 62.6 667.7 63.9 670.3 63.9 C 673.8 63.9 676.2 61.7 676.2 56.3 C 676.2 56.3 676.2 51.3 676.2 51.3 C 674.7 54.8 671.9 56.6 669.5 56.6 C 662.6 56.6 659.2 50.1 659.2 39 C 659.2 28 662.6 21.2 669.5 21.2 C 671.9 21.2 674.8 22.8 676.2 26.4 C 676.24 26.42 676.2 22.1 676.2 22.1 L 684.4 22.1 C 684.4 22.1 684.38 55.73 684.4 55.7 C 684.4 67.7 678 71 671.2 71 C 666.9 71 663.4 70 660.5 67.2 Z M 676.2 45.2 C 676.2 45.2 676.2 32.6 676.2 32.6 C 675.5 30.3 673.9 28.4 672.1 28.4 C 668.5 28.4 667.5 32.8 667.5 39 C 667.5 45.1 668.5 49.4 672.1 49.4 C 673.9 49.4 675.5 47.5 676.2 45.2 Z M 717.9 56.9 C 717.9 56.9 717.86 53.57 717.9 53.6 C 716.3 56.3 713.1 57.7 710.6 57.7 C 705.1 57.7 701.2 53.3 701.2 46.2 C 701.2 39.1 705.1 34.8 710.6 34.8 C 713.1 34.8 716.4 36.1 717.9 38.7 C 717.9 38.7 717.9 34.5 717.9 34.5 C 717.9 30.5 716.3 28.2 712.6 28.2 C 710.3 28.2 707.9 29.2 705.5 31.6 C 705.5 31.6 702.5 25.8 702.5 25.8 C 705.7 22.5 710.7 21.2 714.3 21.2 C 721.4 21.2 726 24.8 726 32.6 C 726 32.62 726 56.9 726 56.9 L 717.9 56.9 Z M 717.9 48.7 C 717.9 48.7 717.9 44 717.9 44 C 717 41.8 715.3 40.4 713.5 40.4 C 710.7 40.4 709.3 43 709.3 46.3 C 709.3 49.6 710.7 52.3 713.5 52.3 C 715.3 52.3 717 50.9 717.9 48.7 Z M 748.1 56.9 C 748.1 56.9 748.1 32.11 748.1 32.1 C 748.1 29.7 747.2 28.4 745.4 28.4 C 743.3 28.4 741.5 30.7 740.8 33 C 740.75 32.98 740.8 56.9 740.8 56.9 L 732.6 56.9 L 732.6 22.1 L 740.8 22.1 C 740.8 22.1 740.75 26.64 740.8 26.6 C 742.1 23.8 745.7 21.2 748.9 21.2 C 754.1 21.2 756.3 24.3 756.3 29.2 C 756.31 29.16 756.3 56.9 756.3 56.9 L 748.1 56.9 Z M 778.6 56.9 C 778.6 56.9 778.55 52.56 778.6 52.6 C 777 56 774.2 57.7 771.8 57.7 C 764.9 57.7 761.5 50.7 761.5 39.5 C 761.5 28.6 764.9 21.2 771.8 21.2 C 774.2 21.2 777.1 22.8 778.6 26.4 C 778.55 26.42 778.6 8.9 778.6 8.9 L 786.7 8.9 L 786.7 56.9 L 778.6 56.9 Z M 778.6 46.4 C 778.6 46.4 778.6 32.6 778.6 32.6 C 777.8 30.3 776.2 28.4 774.5 28.4 C 770.9 28.4 769.8 33.3 769.8 39.5 C 769.8 45.6 770.9 50.5 774.5 50.5 C 776.2 50.5 777.8 48.7 778.6 46.4 Z " stroke="none" fill="#e9e8e8"/>  </g></svg>