<?xml version="1.0" standalone="no"?><!DOCTYPE svg PUBLIC "-//W3C//DTD SVG 1.1//EN" "http://www.w3.org/Graphics/SVG/1.1/DTD/svg11.dtd"><svg xmlns="http://www.w3.org/2000/svg" version="1.1" width="219px" height="395.3px" viewBox="0 0 219 395.3">  <desc>107 29 2402 03 55 62 73 2 199 19 140 86 164 69 67 55 19 18 2991 90</desc>  <defs/>  <g id="Polygon221567">    <path d="M 129.8 348.4 C 129.8 348.4 129.83 346.43 129.8 346.4 C 136.4 338.9 138.6 336.5 138.6 333.5 C 138.6 331.4 137.1 330.2 135.4 330.2 C 133.5 330.2 132.1 331.1 131.2 332.7 C 131.2 332.7 129.6 331.3 129.6 331.3 C 130.9 329.2 132.9 328.1 135.4 328.1 C 138.5 328.1 141 330 141 333.5 C 141 336.9 138.5 339.9 133.2 346.2 C 133.22 346.25 141.1 346.2 141.1 346.2 L 141.1 348.4 L 129.8 348.4 Z M 144.8 346.2 C 144.8 346.2 146.1 344.5 146.1 344.5 C 146.9 345.8 147.8 346.6 149.5 346.6 C 152.7 346.6 153.8 342.3 153.8 338.6 C 153.8 338.3 153.8 338.2 153.8 338 C 153.1 339.4 151.5 340.9 149.4 340.9 C 146.5 340.9 144.2 338.8 144.2 334.5 C 144.2 331.2 146.2 328 149.9 328 C 154.7 328 156.3 333 156.3 338.4 C 156.3 343.8 154.3 348.7 149.5 348.7 C 147.4 348.7 145.8 347.7 144.8 346.2 Z M 153.8 335.8 C 153.6 333.6 152.9 330.2 150 330.2 C 147.6 330.2 146.6 332.4 146.6 334.5 C 146.6 337.7 148.1 338.9 150 338.9 C 151.7 338.9 153 337.4 153.8 335.8 Z M 159.6 346.2 C 159.6 346.2 160.9 344.5 160.9 344.5 C 161.7 345.8 162.6 346.6 164.2 346.6 C 167.5 346.6 168.6 342.3 168.6 338.6 C 168.6 338.3 168.6 338.2 168.6 338 C 167.9 339.4 166.2 340.9 164.2 340.9 C 161.3 340.9 158.9 338.8 158.9 334.5 C 158.9 331.2 161 328 164.7 328 C 169.5 328 171 333 171 338.4 C 171 343.8 169.1 348.7 164.2 348.7 C 162.1 348.7 160.6 347.7 159.6 346.2 Z M 168.5 335.8 C 168.4 333.6 167.6 330.2 164.8 330.2 C 162.4 330.2 161.4 332.4 161.4 334.5 C 161.4 337.7 162.9 338.9 164.8 338.9 C 166.5 338.9 167.8 337.4 168.5 335.8 Z M 177.4 348.4 L 177.4 331.5 L 174.3 334.8 L 172.9 333.3 L 177.7 328.4 L 179.8 328.4 L 179.8 348.4 L 177.4 348.4 Z M 183.7 347.1 C 183.7 346.2 184.4 345.5 185.3 345.5 C 186.2 345.5 186.9 346.2 186.9 347.1 C 186.9 348 186.2 348.7 185.3 348.7 C 184.4 348.7 183.7 348 183.7 347.1 Z M 190.6 346.2 C 190.6 346.2 192 344.5 192 344.5 C 192.7 345.8 193.6 346.6 195.3 346.6 C 198.5 346.6 199.6 342.3 199.6 338.6 C 199.6 338.3 199.6 338.2 199.6 338 C 198.9 339.4 197.3 340.9 195.2 340.9 C 192.3 340.9 190 338.8 190 334.5 C 190 331.2 192 328 195.7 328 C 200.5 328 202.1 333 202.1 338.4 C 202.1 343.8 200.1 348.7 195.3 348.7 C 193.2 348.7 191.6 347.7 190.6 346.2 Z M 199.6 335.8 C 199.5 333.6 198.7 330.2 195.9 330.2 C 193.5 330.2 192.4 332.4 192.4 334.5 C 192.4 337.7 193.9 338.9 195.8 338.9 C 197.5 338.9 198.9 337.4 199.6 335.8 Z M 204.9 338.4 C 204.9 333.6 206.5 328.1 211.2 328.1 C 215.8 328.1 217.4 333.6 217.4 338.4 C 217.4 343.2 215.8 348.7 211.2 348.7 C 206.5 348.7 204.9 343.2 204.9 338.4 Z M 215 338.4 C 215 334.4 214.2 330.2 211.2 330.2 C 208.1 330.2 207.3 334.4 207.3 338.4 C 207.3 342.3 208.1 346.6 211.2 346.6 C 214.2 346.6 215 342.3 215 338.4 Z " stroke="none" fill="#d0d1d4"/>  </g>  <g id="Polygon221566">    <path d="M 168.7 312.4 L 168.7 295.5 L 165.6 298.8 L 164.2 297.3 L 169 292.4 L 171.1 292.4 L 171.1 312.4 L 168.7 312.4 Z M 175.1 310.2 C 175.1 310.2 176.4 308.5 176.4 308.5 C 177.2 309.8 178.1 310.6 179.8 310.6 C 183 310.6 184.1 306.3 184.1 302.6 C 184.1 302.3 184.1 302.2 184.1 302 C 183.4 303.4 181.8 304.9 179.7 304.9 C 176.8 304.9 174.5 302.8 174.5 298.5 C 174.5 295.2 176.5 292 180.2 292 C 185 292 186.6 297 186.6 302.4 C 186.6 307.8 184.6 312.7 179.8 312.7 C 177.7 312.7 176.1 311.7 175.1 310.2 Z M 184.1 299.8 C 183.9 297.6 183.2 294.2 180.3 294.2 C 177.9 294.2 176.9 296.4 176.9 298.5 C 176.9 301.7 178.4 302.9 180.3 302.9 C 182 302.9 183.3 301.4 184.1 299.8 Z M 189.8 311.1 C 189.8 310.2 190.5 309.5 191.4 309.5 C 192.3 309.5 193 310.2 193 311.1 C 193 312 192.3 312.7 191.4 312.7 C 190.5 312.7 189.8 312 189.8 311.1 Z M 199.8 312.4 L 199.8 295.5 L 196.7 298.8 L 195.3 297.3 L 200.1 292.4 L 202.2 292.4 L 202.2 312.4 L 199.8 312.4 Z M 205.6 307.5 C 205.6 304.8 207.6 302.8 209.6 302.1 C 207.8 301.4 205.9 299.7 205.9 297.2 C 205.9 293.7 208.7 292.1 211.5 292.1 C 214.4 292.1 217.2 293.7 217.2 297.2 C 217.2 299.7 215.3 301.4 213.5 302.1 C 215.5 302.8 217.5 304.8 217.5 307.4 C 217.5 310.7 215 312.7 211.5 312.7 C 208 312.7 205.6 310.7 205.6 307.5 Z M 214.8 297.5 C 214.8 295.5 213.5 294.2 211.5 294.2 C 209.6 294.2 208.3 295.5 208.3 297.5 C 208.3 299.9 210.8 300.9 211.5 301.2 C 212.3 300.9 214.8 299.9 214.8 297.5 Z M 215.1 307.2 C 215.1 304.5 212.4 303.2 211.5 303 C 210.7 303.2 208 304.5 208 307.2 C 208 309.3 209.6 310.6 211.5 310.6 C 213.5 310.6 215.1 309.3 215.1 307.2 Z " stroke="none" fill="#d0d1d4"/>  </g>  <g id="Polygon221565">    <path d="M 156.5 266.4 C 156.5 261 158.4 256.1 163.3 256.1 C 165.4 256.1 167 257.1 168 258.6 C 168 258.6 166.6 260.2 166.6 260.2 C 165.9 259 165 258.2 163.3 258.2 C 160.1 258.2 158.9 262.4 158.9 266.2 C 158.9 266.4 158.9 266.5 159 266.8 C 159.6 265.4 161.3 263.8 163.4 263.8 C 166.3 263.8 168.6 266 168.6 270.2 C 168.6 273.6 166.5 276.7 162.9 276.7 C 158.1 276.7 156.5 271.7 156.5 266.4 Z M 166.2 270.3 C 166.2 267.1 164.7 265.9 162.8 265.9 C 161.1 265.9 159.7 267.3 159 269 C 159.1 271.2 159.9 274.6 162.7 274.6 C 165.1 274.6 166.2 272.4 166.2 270.3 Z M 172.8 276.4 L 179.1 258.5 L 170.7 258.5 L 170.7 256.4 L 181.8 256.4 L 181.8 258 L 175.4 276.4 L 172.8 276.4 Z M 184.4 275.1 C 184.4 274.2 185.1 273.5 186 273.5 C 186.8 273.5 187.6 274.2 187.6 275.1 C 187.6 276 186.8 276.7 186 276.7 C 185.1 276.7 184.4 276 184.4 275.1 Z M 190.9 273.5 C 190.9 273.5 192.5 272 192.5 272 C 193.5 273.7 194.8 274.6 196.8 274.6 C 198.9 274.6 200.3 272.6 200.3 270.3 C 200.3 267.4 199 265.8 196.9 265.8 C 195.5 265.8 194.4 266.4 193.3 267.7 C 193.27 267.71 191.5 267.1 191.5 267.1 L 191.5 256.4 L 201.7 256.4 L 201.7 258.5 L 193.9 258.5 C 193.9 258.5 193.87 265.49 193.9 265.5 C 194.7 264.5 196 263.7 197.6 263.7 C 200.4 263.7 202.8 266 202.8 270.2 C 202.8 274 200.3 276.7 196.8 276.7 C 193.9 276.7 192.2 275.5 190.9 273.5 Z M 205.7 273.5 C 205.7 273.5 207.3 272 207.3 272 C 208.2 273.7 209.5 274.6 211.5 274.6 C 213.7 274.6 215.1 272.6 215.1 270.3 C 215.1 267.4 213.7 265.8 211.6 265.8 C 210.2 265.8 209.1 266.4 208 267.7 C 208 267.71 206.2 267.1 206.2 267.1 L 206.2 256.4 L 216.4 256.4 L 216.4 258.5 L 208.6 258.5 C 208.6 258.5 208.6 265.49 208.6 265.5 C 209.4 264.5 210.7 263.7 212.3 263.7 C 215.2 263.7 217.5 266 217.5 270.2 C 217.5 274 215 276.7 211.5 276.7 C 208.6 276.7 206.9 275.5 205.7 273.5 Z " stroke="none" fill="#d0d1d4"/>  </g>  <g id="Polygon221564">    <path d="M 149.4 240.4 L 149.4 223.5 L 146.3 226.8 L 144.9 225.3 L 149.7 220.4 L 151.8 220.4 L 151.8 240.4 L 149.4 240.4 Z M 155.3 230.4 C 155.3 225 157.2 220.1 162 220.1 C 164.1 220.1 165.7 221.1 166.7 222.6 C 166.7 222.6 165.4 224.2 165.4 224.2 C 164.6 223 163.7 222.2 162 222.2 C 158.9 222.2 157.7 226.4 157.7 230.2 C 157.7 230.4 157.7 230.5 157.7 230.8 C 158.4 229.4 160 227.8 162.1 227.8 C 165 227.8 167.4 230 167.4 234.2 C 167.4 237.6 165.3 240.7 161.6 240.7 C 156.8 240.7 155.3 235.7 155.3 230.4 Z M 164.9 234.3 C 164.9 231.1 163.4 229.9 161.5 229.9 C 159.8 229.9 158.5 231.3 157.7 233 C 157.9 235.2 158.7 238.6 161.5 238.6 C 163.9 238.6 164.9 236.4 164.9 234.3 Z M 177.2 240.4 L 177.2 235.2 L 169.3 235.2 L 169.3 233.2 L 176.5 220.4 L 179.6 220.4 L 179.6 233.1 L 181.8 233.1 L 181.8 235.2 L 179.6 235.2 L 179.6 240.4 L 177.2 240.4 Z M 177.2 222.9 L 171.5 233.1 L 177.2 233.1 L 177.2 222.9 Z M 184.3 239.1 C 184.3 238.2 185 237.5 185.9 237.5 C 186.8 237.5 187.5 238.2 187.5 239.1 C 187.5 240 186.8 240.7 185.9 240.7 C 185 240.7 184.3 240 184.3 239.1 Z M 190.7 230.4 C 190.7 225 192.6 220.1 197.5 220.1 C 199.6 220.1 201.2 221.1 202.2 222.6 C 202.2 222.6 200.8 224.2 200.8 224.2 C 200.1 223 199.2 222.2 197.5 222.2 C 194.3 222.2 193.1 226.4 193.1 230.2 C 193.1 230.4 193.1 230.5 193.2 230.8 C 193.8 229.4 195.5 227.8 197.6 227.8 C 200.5 227.8 202.8 230 202.8 234.2 C 202.8 237.6 200.7 240.7 197.1 240.7 C 192.3 240.7 190.7 235.7 190.7 230.4 Z M 200.4 234.3 C 200.4 231.1 198.9 229.9 197 229.9 C 195.3 229.9 193.9 231.3 193.2 233 C 193.3 235.2 194.1 238.6 196.9 238.6 C 199.3 238.6 200.4 236.4 200.4 234.3 Z M 206 238.2 C 206 238.2 207.3 236.5 207.3 236.5 C 208.1 237.8 209 238.6 210.6 238.6 C 213.9 238.6 215 234.3 215 230.6 C 215 230.3 215 230.2 215 230 C 214.3 231.4 212.7 232.9 210.6 232.9 C 207.7 232.9 205.3 230.8 205.3 226.5 C 205.3 223.2 207.4 220 211.1 220 C 215.9 220 217.4 225 217.4 230.4 C 217.4 235.8 215.5 240.7 210.6 240.7 C 208.5 240.7 207 239.7 206 238.2 Z M 214.9 227.8 C 214.8 225.6 214 222.2 211.2 222.2 C 208.8 222.2 207.8 224.4 207.8 226.5 C 207.8 229.7 209.3 230.9 211.2 230.9 C 212.9 230.9 214.2 229.4 214.9 227.8 Z " stroke="none" fill="#d0d1d4"/>  </g>  <g id="Polygon221563">    <path d="M 149 204.4 L 149 187.5 L 145.9 190.8 L 144.4 189.3 L 149.2 184.4 L 151.3 184.4 L 151.3 204.4 L 149 204.4 Z M 162 204.4 L 162 199.2 L 154.1 199.2 L 154.1 197.2 L 161.4 184.4 L 164.4 184.4 L 164.4 197.1 L 166.6 197.1 L 166.6 199.2 L 164.4 199.2 L 164.4 204.4 L 162 204.4 Z M 162 186.9 L 156.3 197.1 L 162 197.1 L 162 186.9 Z M 168.7 194.4 C 168.7 189.6 170.3 184.1 175 184.1 C 179.7 184.1 181.2 189.6 181.2 194.4 C 181.2 199.2 179.7 204.7 175 204.7 C 170.3 204.7 168.7 199.2 168.7 194.4 Z M 178.8 194.4 C 178.8 190.4 178.1 186.2 175 186.2 C 171.9 186.2 171.2 190.4 171.2 194.4 C 171.2 198.3 171.9 202.6 175 202.6 C 178.1 202.6 178.8 198.3 178.8 194.4 Z M 184.5 203.1 C 184.5 202.2 185.2 201.5 186.1 201.5 C 186.9 201.5 187.7 202.2 187.7 203.1 C 187.7 204 186.9 204.7 186.1 204.7 C 185.2 204.7 184.5 204 184.5 203.1 Z M 190.8 199.5 C 190.8 196.8 192.9 194.8 194.8 194.1 C 193 193.4 191.1 191.7 191.1 189.2 C 191.1 185.7 193.9 184.1 196.8 184.1 C 199.7 184.1 202.5 185.7 202.5 189.2 C 202.5 191.7 200.6 193.4 198.8 194.1 C 200.7 194.8 202.7 196.8 202.7 199.4 C 202.7 202.7 200.3 204.7 196.8 204.7 C 193.3 204.7 190.8 202.7 190.8 199.5 Z M 200.1 189.5 C 200.1 187.5 198.7 186.2 196.8 186.2 C 194.8 186.2 193.5 187.5 193.5 189.5 C 193.5 191.9 196 192.9 196.8 193.2 C 197.6 192.9 200.1 191.9 200.1 189.5 Z M 200.3 199.2 C 200.3 196.5 197.6 195.2 196.8 195 C 195.9 195.2 193.3 196.5 193.3 199.2 C 193.3 201.3 194.8 202.6 196.8 202.6 C 198.7 202.6 200.3 201.3 200.3 199.2 Z M 205.5 194.4 C 205.5 189 207.4 184.1 212.2 184.1 C 214.3 184.1 215.9 185.1 216.9 186.6 C 216.9 186.6 215.6 188.2 215.6 188.2 C 214.8 187 213.9 186.2 212.3 186.2 C 209.1 186.2 207.9 190.4 207.9 194.2 C 207.9 194.4 207.9 194.5 207.9 194.8 C 208.6 193.4 210.3 191.8 212.3 191.8 C 215.2 191.8 217.6 194 217.6 198.2 C 217.6 201.6 215.5 204.7 211.8 204.7 C 207 204.7 205.5 199.7 205.5 194.4 Z M 215.1 198.3 C 215.1 195.1 213.6 193.9 211.7 193.9 C 210 193.9 208.7 195.3 207.9 197 C 208.1 199.2 208.9 202.6 211.7 202.6 C 214.1 202.6 215.1 200.4 215.1 198.3 Z " stroke="none" fill="#d0d1d4"/>  </g>  <g id="Polygon221562">    <path d="M 153.8 168.4 L 153.8 151.5 L 150.7 154.8 L 149.3 153.3 L 154.1 148.4 L 156.2 148.4 L 156.2 168.4 L 153.8 168.4 Z M 160.2 166.2 C 160.2 166.2 161.5 164.5 161.5 164.5 C 162.3 165.8 163.2 166.6 164.8 166.6 C 168.1 166.6 169.2 162.3 169.2 158.6 C 169.2 158.3 169.2 158.2 169.2 158 C 168.5 159.4 166.8 160.9 164.8 160.9 C 161.9 160.9 159.5 158.8 159.5 154.5 C 159.5 151.2 161.6 148 165.3 148 C 170.1 148 171.6 153 171.6 158.4 C 171.6 163.8 169.7 168.7 164.8 168.7 C 162.7 168.7 161.2 167.7 160.2 166.2 Z M 169.1 155.8 C 169 153.6 168.2 150.2 165.4 150.2 C 163 150.2 162 152.4 162 154.5 C 162 157.7 163.5 158.9 165.4 158.9 C 167.1 158.9 168.4 157.4 169.1 155.8 Z M 174.9 166.2 C 174.9 166.2 176.3 164.5 176.3 164.5 C 177 165.8 177.9 166.6 179.6 166.6 C 182.8 166.6 183.9 162.3 183.9 158.6 C 183.9 158.3 183.9 158.2 183.9 158 C 183.3 159.4 181.6 160.9 179.5 160.9 C 176.6 160.9 174.3 158.8 174.3 154.5 C 174.3 151.2 176.4 148 180 148 C 184.8 148 186.4 153 186.4 158.4 C 186.4 163.8 184.4 168.7 179.6 168.7 C 177.5 168.7 175.9 167.7 174.9 166.2 Z M 183.9 155.8 C 183.8 153.6 183 150.2 180.2 150.2 C 177.8 150.2 176.7 152.4 176.7 154.5 C 176.7 157.7 178.2 158.9 180.1 158.9 C 181.8 158.9 183.2 157.4 183.9 155.8 Z M 189.6 167.1 C 189.6 166.2 190.3 165.5 191.2 165.5 C 192.1 165.5 192.8 166.2 192.8 167.1 C 192.8 168 192.1 168.7 191.2 168.7 C 190.3 168.7 189.6 168 189.6 167.1 Z M 199.6 168.4 L 199.6 151.5 L 196.5 154.8 L 195.1 153.3 L 199.9 148.4 L 202 148.4 L 202 168.4 L 199.6 168.4 Z M 206 166.2 C 206 166.2 207.3 164.5 207.3 164.5 C 208.1 165.8 209 166.6 210.6 166.6 C 213.9 166.6 215 162.3 215 158.6 C 215 158.3 215 158.2 215 158 C 214.3 159.4 212.7 160.9 210.6 160.9 C 207.7 160.9 205.3 158.8 205.3 154.5 C 205.3 151.2 207.4 148 211.1 148 C 215.9 148 217.4 153 217.4 158.4 C 217.4 163.8 215.5 168.7 210.6 168.7 C 208.5 168.7 207 167.7 206 166.2 Z M 214.9 155.8 C 214.8 153.6 214 150.2 211.2 150.2 C 208.8 150.2 207.8 152.4 207.8 154.5 C 207.8 157.7 209.3 158.9 211.2 158.9 C 212.9 158.9 214.2 157.4 214.9 155.8 Z " stroke="none" fill="#d0d1d4"/>  </g>  <g id="Polygon221561">    <path d="M 173.4 132.4 L 179.7 114.5 L 171.3 114.5 L 171.3 112.4 L 182.4 112.4 L 182.4 114 L 176 132.4 L 173.4 132.4 Z M 184 129.4 C 184 129.4 185.6 128 185.6 128 C 186.5 129.5 188 130.6 189.9 130.6 C 192.3 130.6 193.5 129.1 193.5 126.8 C 193.5 124.1 191.7 123.2 189.7 123.2 C 189 123.2 188.4 123.2 188.1 123.2 C 188.1 123.2 188.1 121 188.1 121 C 188.4 121.1 189.1 121.1 189.6 121.1 C 191.6 121.1 193.2 120 193.2 117.7 C 193.2 115.3 191.8 114.2 189.8 114.2 C 188 114.2 186.8 115.1 185.7 116.6 C 185.7 116.6 184.2 115.2 184.2 115.2 C 185.4 113.3 187.5 112.1 189.9 112.1 C 193.2 112.1 195.6 113.8 195.6 117.4 C 195.6 119.9 193.9 121.6 192 122 C 193.8 122.3 195.9 124.1 195.9 127 C 195.9 130.3 193.8 132.7 189.9 132.7 C 187.1 132.7 185 131.2 184 129.4 Z M 199.2 131.1 C 199.2 130.2 199.9 129.5 200.7 129.5 C 201.6 129.5 202.4 130.2 202.4 131.1 C 202.4 132 201.6 132.7 200.7 132.7 C 199.9 132.7 199.2 132 199.2 131.1 Z M 205.8 132.4 C 205.8 132.4 205.75 130.43 205.8 130.4 C 212.3 122.9 214.5 120.5 214.5 117.5 C 214.5 115.4 213 114.2 211.3 114.2 C 209.4 114.2 208.1 115.1 207.1 116.7 C 207.1 116.7 205.5 115.3 205.5 115.3 C 206.9 113.2 208.8 112.1 211.4 112.1 C 214.4 112.1 217 114 217 117.5 C 217 120.9 214.5 123.9 209.1 130.2 C 209.14 130.25 217.1 130.2 217.1 130.2 L 217.1 132.4 L 205.8 132.4 Z " stroke="none" fill="#d0d1d4"/>  </g>  <g id="Polygon221560">    <path d="M 154.7 93.5 C 154.7 93.5 156.3 92 156.3 92 C 157.2 93.7 158.5 94.6 160.5 94.6 C 162.7 94.6 164.1 92.6 164.1 90.3 C 164.1 87.4 162.7 85.8 160.6 85.8 C 159.2 85.8 158.1 86.4 157 87.7 C 157.01 87.71 155.2 87.1 155.2 87.1 L 155.2 76.4 L 165.4 76.4 L 165.4 78.5 L 157.6 78.5 C 157.6 78.5 157.61 85.49 157.6 85.5 C 158.4 84.5 159.7 83.7 161.3 83.7 C 164.2 83.7 166.5 86 166.5 90.2 C 166.5 94 164 96.7 160.5 96.7 C 157.6 96.7 155.9 95.5 154.7 93.5 Z M 169.4 93.5 C 169.4 93.5 171 92 171 92 C 171.9 93.7 173.3 94.6 175.2 94.6 C 177.4 94.6 178.8 92.6 178.8 90.3 C 178.8 87.4 177.4 85.8 175.4 85.8 C 174 85.8 172.8 86.4 171.7 87.7 C 171.74 87.71 170 87.1 170 87.1 L 170 76.4 L 180.2 76.4 L 180.2 78.5 L 172.3 78.5 C 172.3 78.5 172.34 85.49 172.3 85.5 C 173.1 84.5 174.4 83.7 176 83.7 C 178.9 83.7 181.2 86 181.2 90.2 C 181.2 94 178.8 96.7 175.3 96.7 C 172.3 96.7 170.6 95.5 169.4 93.5 Z M 184.4 95.1 C 184.4 94.2 185.1 93.5 186 93.5 C 186.9 93.5 187.6 94.2 187.6 95.1 C 187.6 96 186.9 96.7 186 96.7 C 185.1 96.7 184.4 96 184.4 95.1 Z M 190.8 86.4 C 190.8 81 192.7 76.1 197.6 76.1 C 199.7 76.1 201.3 77.1 202.2 78.6 C 202.2 78.6 200.9 80.2 200.9 80.2 C 200.2 79 199.2 78.2 197.6 78.2 C 194.4 78.2 193.2 82.4 193.2 86.2 C 193.2 86.4 193.2 86.5 193.2 86.8 C 193.9 85.4 195.6 83.8 197.7 83.8 C 200.6 83.8 202.9 86 202.9 90.2 C 202.9 93.6 200.8 96.7 197.1 96.7 C 192.4 96.7 190.8 91.7 190.8 86.4 Z M 200.5 90.3 C 200.5 87.1 198.9 85.9 197.1 85.9 C 195.4 85.9 194 87.3 193.3 89 C 193.4 91.2 194.2 94.6 197 94.6 C 199.4 94.6 200.5 92.4 200.5 90.3 Z M 205.8 96.4 C 205.8 96.4 205.75 94.43 205.8 94.4 C 212.3 86.9 214.5 84.5 214.5 81.5 C 214.5 79.4 213 78.2 211.3 78.2 C 209.4 78.2 208.1 79.1 207.1 80.7 C 207.1 80.7 205.5 79.3 205.5 79.3 C 206.9 77.2 208.8 76.1 211.4 76.1 C 214.4 76.1 217 78 217 81.5 C 217 84.9 214.5 87.9 209.1 94.2 C 209.14 94.25 217.1 94.2 217.1 94.2 L 217.1 96.4 L 205.8 96.4 Z " stroke="none" fill="#d0d1d4"/>  </g>  <g id="Polygon221559">    <path d="M 125.5 60.4 C 125.5 60.4 125.48 58.43 125.5 58.4 C 132 50.9 134.3 48.5 134.3 45.5 C 134.3 43.4 132.8 42.2 131.1 42.2 C 129.2 42.2 127.8 43.1 126.8 44.7 C 126.8 44.7 125.3 43.3 125.3 43.3 C 126.6 41.2 128.5 40.1 131.1 40.1 C 134.1 40.1 136.7 42 136.7 45.5 C 136.7 48.9 134.2 51.9 128.9 58.2 C 128.87 58.25 136.8 58.2 136.8 58.2 L 136.8 60.4 L 125.5 60.4 Z M 147.2 60.4 L 147.2 55.2 L 139.2 55.2 L 139.2 53.2 L 146.5 40.4 L 149.5 40.4 L 149.5 53.1 L 151.7 53.1 L 151.7 55.2 L 149.5 55.2 L 149.5 60.4 L 147.2 60.4 Z M 147.2 42.9 L 141.4 53.1 L 147.2 53.1 L 147.2 42.9 Z M 153.8 50.4 C 153.8 45.6 155.4 40.1 160.1 40.1 C 164.8 40.1 166.4 45.6 166.4 50.4 C 166.4 55.2 164.8 60.7 160.1 60.7 C 155.4 60.7 153.8 55.2 153.8 50.4 Z M 163.9 50.4 C 163.9 46.4 163.2 42.2 160.1 42.2 C 157 42.2 156.3 46.4 156.3 50.4 C 156.3 54.3 157 58.6 160.1 58.6 C 163.2 58.6 163.9 54.3 163.9 50.4 Z M 169.4 60.4 C 169.4 60.4 169.37 58.43 169.4 58.4 C 175.9 50.9 178.2 48.5 178.2 45.5 C 178.2 43.4 176.7 42.2 174.9 42.2 C 173.1 42.2 171.7 43.1 170.7 44.7 C 170.7 44.7 169.2 43.3 169.2 43.3 C 170.5 41.2 172.4 40.1 175 40.1 C 178 40.1 180.6 42 180.6 45.5 C 180.6 48.9 178.1 51.9 172.8 58.2 C 172.76 58.25 180.7 58.2 180.7 58.2 L 180.7 60.4 L 169.4 60.4 Z M 184.3 59.1 C 184.3 58.2 185 57.5 185.9 57.5 C 186.7 57.5 187.5 58.2 187.5 59.1 C 187.5 60 186.7 60.7 185.9 60.7 C 185 60.7 184.3 60 184.3 59.1 Z M 190.7 50.4 C 190.7 45.6 192.3 40.1 197 40.1 C 201.6 40.1 203.2 45.6 203.2 50.4 C 203.2 55.2 201.6 60.7 197 60.7 C 192.3 60.7 190.7 55.2 190.7 50.4 Z M 200.8 50.4 C 200.8 46.4 200.1 42.2 197 42.2 C 193.9 42.2 193.2 46.4 193.2 50.4 C 193.2 54.3 193.9 58.6 197 58.6 C 200.1 58.6 200.8 54.3 200.8 50.4 Z M 205.5 57.4 C 205.5 57.4 207.1 56 207.1 56 C 208 57.5 209.5 58.6 211.4 58.6 C 213.8 58.6 215 57.1 215 54.8 C 215 52.1 213.2 51.2 211.2 51.2 C 210.6 51.2 209.9 51.2 209.6 51.2 C 209.6 51.2 209.6 49 209.6 49 C 209.9 49.1 210.6 49.1 211.1 49.1 C 213.1 49.1 214.8 48 214.8 45.7 C 214.8 43.3 213.3 42.2 211.3 42.2 C 209.5 42.2 208.3 43.1 207.3 44.6 C 207.3 44.6 205.8 43.2 205.8 43.2 C 207 41.3 209 40.1 211.5 40.1 C 214.7 40.1 217.1 41.8 217.1 45.4 C 217.1 47.9 215.4 49.6 213.6 50 C 215.3 50.3 217.4 52.1 217.4 55 C 217.4 58.3 215.3 60.7 211.5 60.7 C 208.6 60.7 206.5 59.2 205.5 57.4 Z " stroke="none" fill="#d0d1d4"/>  </g>  <g id="Polygon221558">    <path d="M 150.1 24.4 L 150.1 7.5 L 147 10.8 L 145.5 9.3 L 150.3 4.4 L 152.4 4.4 L 152.4 24.4 L 150.1 24.4 Z M 156 14.4 C 156 9.6 157.5 4.1 162.2 4.1 C 166.9 4.1 168.5 9.6 168.5 14.4 C 168.5 19.2 166.9 24.7 162.2 24.7 C 157.5 24.7 156 19.2 156 14.4 Z M 166.1 14.4 C 166.1 10.4 165.3 6.2 162.2 6.2 C 159.2 6.2 158.4 10.4 158.4 14.4 C 158.4 18.3 159.1 22.6 162.2 22.6 C 165.3 22.6 166.1 18.3 166.1 14.4 Z M 172.9 24.4 L 179.1 6.5 L 170.7 6.5 L 170.7 4.4 L 181.8 4.4 L 181.8 6 L 175.4 24.4 L 172.9 24.4 Z M 184.4 23.1 C 184.4 22.2 185.1 21.5 186 21.5 C 186.9 21.5 187.6 22.2 187.6 23.1 C 187.6 24 186.9 24.7 186 24.7 C 185.1 24.7 184.4 24 184.4 23.1 Z M 191 24.4 C 191 24.4 191 22.43 191 22.4 C 197.5 14.9 199.8 12.5 199.8 9.5 C 199.8 7.4 198.3 6.2 196.6 6.2 C 194.7 6.2 193.3 7.1 192.3 8.7 C 192.3 8.7 190.8 7.3 190.8 7.3 C 192.1 5.2 194.1 4.1 196.6 4.1 C 199.7 4.1 202.2 6 202.2 9.5 C 202.2 12.9 199.7 15.9 194.4 22.2 C 194.39 22.25 202.3 22.2 202.3 22.2 L 202.3 24.4 L 191 24.4 Z M 206 22.2 C 206 22.2 207.3 20.5 207.3 20.5 C 208.1 21.8 209 22.6 210.6 22.6 C 213.9 22.6 215 18.3 215 14.6 C 215 14.3 215 14.2 215 14 C 214.3 15.4 212.7 16.9 210.6 16.9 C 207.7 16.9 205.3 14.8 205.3 10.5 C 205.3 7.2 207.4 4 211.1 4 C 215.9 4 217.4 9 217.4 14.4 C 217.4 19.8 215.5 24.7 210.6 24.7 C 208.5 24.7 207 23.7 206 22.2 Z M 214.9 11.8 C 214.8 9.6 214 6.2 211.2 6.2 C 208.8 6.2 207.8 8.4 207.8 10.5 C 207.8 13.7 209.3 14.9 211.2 14.9 C 212.9 14.9 214.2 13.4 214.9 11.8 Z " stroke="none" fill="#d0d1d4"/>  </g></svg>