<?xml version="1.0" standalone="no"?><!DOCTYPE svg PUBLIC "-//W3C//DTD SVG 1.1//EN" "http://www.w3.org/Graphics/SVG/1.1/DTD/svg11.dtd"><svg xmlns="http://www.w3.org/2000/svg" version="1.1" width="191px" height="33.2px" viewBox="0 0 191 33.2">  <desc>YIELD SERVING:</desc>  <defs/>  <g id="Polygon124942">    <path d="M 26.5 15.8 L 26.5 10.3 L 22.4 2.5 L 25.3 2.5 L 27.8 7.8 L 30.3 2.5 L 33.3 2.5 L 29.2 10.3 L 29.2 15.8 L 26.5 15.8 Z M 35.2 15.8 L 35.2 2.5 L 37.9 2.5 L 37.9 15.8 L 35.2 15.8 Z M 41 15.8 L 41 2.5 L 48.7 2.5 L 48.7 4.8 L 43.7 4.8 L 43.7 7.8 L 48.5 7.8 L 48.5 10.2 L 43.7 10.2 L 43.7 13.4 L 48.7 13.4 L 48.7 15.8 L 41 15.8 Z M 51.4 15.8 L 51.4 2.5 L 54.1 2.5 L 54.1 13.4 L 58.6 13.4 L 58.6 15.8 L 51.4 15.8 Z M 61.1 15.8 L 61.1 2.5 C 61.1 2.5 65.42 2.46 65.4 2.5 C 69.1 2.5 71.2 5.2 71.2 9.1 C 71.2 13.1 69.1 15.8 65.4 15.8 C 65.42 15.8 61.1 15.8 61.1 15.8 Z M 68.5 9.1 C 68.5 6.5 67.4 4.8 65.4 4.8 C 65.42 4.82 63.8 4.8 63.8 4.8 L 63.8 13.4 C 63.8 13.4 65.42 13.44 65.4 13.4 C 67.4 13.4 68.5 11.7 68.5 9.1 Z M 77.7 16.2 L 81.5 2.1 L 83.2 2.1 L 79.4 16.2 L 77.7 16.2 Z M 89.4 14.3 C 89.4 14.3 90.7 12.3 90.7 12.3 C 91.4 13.1 92.6 13.7 93.9 13.7 C 95.1 13.7 95.7 13 95.7 12.2 C 95.7 9.9 89.8 10.7 89.8 6.1 C 89.8 4 91.4 2.2 94.2 2.2 C 95.8 2.2 97.2 2.8 98.2 3.7 C 98.2 3.7 96.9 5.7 96.9 5.7 C 96.1 5 95.1 4.6 94.1 4.6 C 93.1 4.6 92.5 5.1 92.5 6 C 92.5 8 98.4 7.5 98.4 12 C 98.4 14.3 96.8 16 93.9 16 C 91.9 16 90.4 15.4 89.4 14.3 Z M 101 15.8 L 101 2.5 L 108.6 2.5 L 108.6 4.8 L 103.7 4.8 L 103.7 7.8 L 108.5 7.8 L 108.5 10.2 L 103.7 10.2 L 103.7 13.4 L 108.6 13.4 L 108.6 15.8 L 101 15.8 Z M 117.6 15.8 L 115.5 11 L 114.1 11 L 114.1 15.8 L 111.4 15.8 L 111.4 2.5 C 111.4 2.5 116.38 2.46 116.4 2.5 C 118.8 2.5 120.4 4.2 120.4 6.7 C 120.4 9 119.2 10.1 118.1 10.5 C 118.12 10.5 120.5 15.8 120.5 15.8 L 117.6 15.8 Z M 117.7 6.7 C 117.7 5.6 117 4.8 116 4.8 C 115.98 4.82 114.1 4.8 114.1 4.8 L 114.1 8.6 C 114.1 8.6 115.98 8.62 116 8.6 C 117 8.6 117.7 7.9 117.7 6.7 Z M 125.8 15.8 L 121.8 2.5 L 124.7 2.5 L 127.4 12.6 L 130.1 2.5 L 133 2.5 L 129 15.8 L 125.8 15.8 Z M 134.9 15.8 L 134.9 2.5 L 137.6 2.5 L 137.6 15.8 L 134.9 15.8 Z M 148 15.8 L 143.5 7.9 L 143.5 15.8 L 140.8 15.8 L 140.8 2.5 L 143.5 2.5 L 147.9 10.1 L 147.9 2.5 L 150.6 2.5 L 150.6 15.8 L 148 15.8 Z M 153.2 9.1 C 153.2 5 155.4 2.2 158.8 2.2 C 161.1 2.2 162.5 3.7 163.2 5.3 C 163.2 5.3 161.1 6.3 161.1 6.3 C 160.6 5.4 159.9 4.6 158.8 4.6 C 157.1 4.6 155.9 6.3 155.9 9.1 C 155.9 12 157.1 13.7 158.8 13.7 C 159.7 13.7 160.4 13.3 160.8 12.9 C 160.82 12.86 160.8 10.8 160.8 10.8 L 158.3 10.8 L 158.3 8.5 L 163.4 8.5 C 163.4 8.5 163.36 13.92 163.4 13.9 C 162.2 15.2 160.8 16 158.8 16 C 155.4 16 153.2 13.3 153.2 9.1 Z M 166 7.5 C 166 6.7 166.7 6 167.6 6 C 168.4 6 169.1 6.7 169.1 7.5 C 169.1 8.4 168.4 9.1 167.6 9.1 C 166.7 9.1 166 8.4 166 7.5 Z M 166 14.5 C 166 13.6 166.7 12.9 167.6 12.9 C 168.4 12.9 169.1 13.6 169.1 14.5 C 169.1 15.3 168.4 16 167.6 16 C 166.7 16 166 15.3 166 14.5 Z " stroke="none" fill="#b13d24"/>  </g></svg>