<?xml version="1.0" standalone="no"?><!DOCTYPE svg PUBLIC "-//W3C//DTD SVG 1.1//EN" "http://www.w3.org/Graphics/SVG/1.1/DTD/svg11.dtd"><svg xmlns="http://www.w3.org/2000/svg" version="1.1" width="486px" height="189.4px" viewBox="0 0 486 189.4">  <desc>A dish with historically so many different parts from all over the place, the experience of eating it will leave you</desc>  <defs/>  <g id="Polygon173102">    <path d="M 4.1 139.5 C 4.1 138.4 5 137.6 6 137.6 C 7.1 137.6 8 138.4 8 139.5 C 8 140.6 7.1 141.5 6 141.5 C 5 141.5 4.1 140.6 4.1 139.5 Z M 4.6 163.6 L 4.6 144.3 L 7.5 144.3 L 7.5 163.6 L 4.6 163.6 Z M 13.3 159.7 C 13.3 159.72 13.3 146.8 13.3 146.8 L 10.7 146.8 L 10.7 144.3 L 13.3 144.3 L 13.3 139 L 16.2 139 L 16.2 144.3 L 19.5 144.3 L 19.5 146.8 L 16.2 146.8 C 16.2 146.8 16.18 159.2 16.2 159.2 C 16.2 160.7 16.6 161.5 17.7 161.5 C 18.5 161.5 19.1 161.2 19.4 160.8 C 19.4 160.8 20.3 162.9 20.3 162.9 C 19.6 163.6 18.7 164.1 17.2 164.1 C 14.5 164.1 13.3 162.6 13.3 159.7 Z M 46.1 163.6 L 42 148.1 L 37.8 163.6 L 34.9 163.6 L 29.7 144.3 L 32.7 144.3 L 36.5 159.7 L 40.6 144.3 L 43.3 144.3 L 47.4 159.7 L 51.2 144.3 L 54.2 144.3 L 49.1 163.6 L 46.1 163.6 Z M 56.8 139.5 C 56.8 138.4 57.7 137.6 58.8 137.6 C 59.9 137.6 60.7 138.4 60.7 139.5 C 60.7 140.6 59.9 141.5 58.8 141.5 C 57.7 141.5 56.8 140.6 56.8 139.5 Z M 57.4 163.6 L 57.4 144.3 L 60.2 144.3 L 60.2 163.6 L 57.4 163.6 Z M 65.5 163.6 L 65.5 136.9 L 68.3 136.9 L 68.3 163.6 L 65.5 163.6 Z M 73.6 163.6 L 73.6 136.9 L 76.5 136.9 L 76.5 163.6 L 73.6 163.6 Z M 90.3 163.6 L 90.3 136.9 L 93.2 136.9 L 93.2 163.6 L 90.3 163.6 Z M 97.5 153.9 C 97.5 148.3 100.5 143.8 105.3 143.8 C 110.4 143.8 113 148.4 113 154 C 112.98 154 113 154.9 113 154.9 C 113 154.9 100.46 154.88 100.5 154.9 C 100.6 158.8 102.6 161.7 106 161.7 C 107.7 161.7 109.4 160.8 110.6 159.3 C 110.6 159.3 112.1 161 112.1 161 C 110.6 162.9 108.4 164.1 105.8 164.1 C 100.6 164.1 97.5 159.8 97.5 153.9 Z M 105.3 146.2 C 101.9 146.2 100.5 149.9 100.5 152.8 C 100.5 152.8 110.1 152.8 110.1 152.8 C 110.1 149.8 108.8 146.2 105.3 146.2 Z M 127.1 163.6 C 127.1 163.6 127.1 161.52 127.1 161.5 C 125.9 163.3 124 164.1 122 164.1 C 118.9 164.1 116.2 161.7 116.2 157.6 C 116.2 153.6 118.9 151.3 122 151.3 C 124 151.3 125.9 152 127.1 153.8 C 127.1 153.8 127.1 150.4 127.1 150.4 C 127.1 147.8 125.7 146.3 123.1 146.3 C 121.3 146.3 119.8 147 118.3 148.6 C 118.3 148.6 117 146.6 117 146.6 C 118.9 144.7 121.1 143.8 123.6 143.8 C 127.4 143.8 130 145.7 130 150.1 C 129.98 150.08 130 163.6 130 163.6 L 127.1 163.6 Z M 127.1 159.6 C 127.1 159.6 127.1 155.9 127.1 155.9 C 126.2 154.2 124.6 153.4 122.9 153.4 C 120.5 153.4 119.1 155.3 119.1 157.7 C 119.1 160.1 120.5 162 122.9 162 C 124.6 162 126.2 161.2 127.1 159.6 Z M 139.1 163.6 L 132.8 144.3 L 135.9 144.3 L 140.7 160.2 L 145.6 144.3 L 148.7 144.3 L 142.3 163.6 L 139.1 163.6 Z M 150.6 153.9 C 150.6 148.3 153.5 143.8 158.4 143.8 C 163.5 143.8 166.1 148.4 166.1 154 C 166.06 154 166.1 154.9 166.1 154.9 C 166.1 154.9 153.54 154.88 153.5 154.9 C 153.7 158.8 155.7 161.7 159.1 161.7 C 160.8 161.7 162.5 160.8 163.7 159.3 C 163.7 159.3 165.2 161 165.2 161 C 163.7 162.9 161.5 164.1 158.9 164.1 C 153.7 164.1 150.6 159.8 150.6 153.9 Z M 158.4 146.2 C 155 146.2 153.6 149.9 153.5 152.8 C 153.5 152.8 163.2 152.8 163.2 152.8 C 163.2 149.8 161.9 146.2 158.4 146.2 Z M 178.3 168.6 C 178.7 168.8 179.3 168.9 179.6 168.9 C 180.7 168.9 181.3 168.4 181.9 167 C 181.86 166.96 182.9 164 182.9 164 L 176.5 144.3 L 179.6 144.3 L 184.4 160.1 L 189.2 144.3 L 192.3 144.3 C 192.3 144.3 184.58 167.68 184.6 167.7 C 183.6 170.5 182.1 171.4 179.8 171.4 C 179.2 171.4 178.3 171.3 177.9 171.2 C 177.9 171.2 178.3 168.6 178.3 168.6 Z M 194.2 153.9 C 194.2 148.5 196.9 143.8 202.1 143.8 C 207.3 143.8 209.9 148.5 209.9 153.9 C 209.9 159.4 207.3 164.1 202.1 164.1 C 196.9 164.1 194.2 159.4 194.2 153.9 Z M 206.9 153.9 C 206.9 150 205.5 146.4 202.1 146.4 C 198.7 146.4 197.2 150 197.2 153.9 C 197.2 157.8 198.7 161.5 202.1 161.5 C 205.5 161.5 206.9 157.8 206.9 153.9 Z M 224.7 163.6 C 224.7 163.6 224.7 160.92 224.7 160.9 C 223.5 162.6 221.5 164.1 219.1 164.1 C 215.8 164.1 214.3 162.4 214.3 158.9 C 214.26 158.92 214.3 144.3 214.3 144.3 L 217.1 144.3 C 217.1 144.3 217.1 158.08 217.1 158.1 C 217.1 160.6 218.3 161.5 220.2 161.5 C 222.1 161.5 223.9 160.1 224.7 158.5 C 224.7 158.52 224.7 144.3 224.7 144.3 L 227.6 144.3 L 227.6 163.6 L 224.7 163.6 Z M 239.9 161.4 C 239.9 161.4 241.3 159.3 241.3 159.3 C 242.5 160.7 244.3 161.8 246.4 161.8 C 248.6 161.8 250.1 160.5 250.1 158.6 C 250.1 154.1 240.5 155.7 240.5 149 C 240.5 146.1 242.8 143.8 246.6 143.8 C 249.2 143.8 251.1 144.8 252.5 146.3 C 252.5 146.3 251.1 148.2 251.1 148.2 C 250.2 147 248.5 146.1 246.7 146.1 C 244.5 146.1 243.2 147.4 243.2 148.9 C 243.2 153 252.9 151.6 252.9 158.6 C 252.9 161.8 250.4 164.1 246.4 164.1 C 243.7 164.1 241.5 163.2 239.9 161.4 Z M 266.9 163.6 C 266.9 163.6 266.86 161.52 266.9 161.5 C 265.6 163.3 263.7 164.1 261.8 164.1 C 258.7 164.1 255.9 161.7 255.9 157.6 C 255.9 153.6 258.6 151.3 261.8 151.3 C 263.7 151.3 265.7 152 266.9 153.8 C 266.9 153.8 266.9 150.4 266.9 150.4 C 266.9 147.8 265.4 146.3 262.9 146.3 C 261.1 146.3 259.5 147 258.1 148.6 C 258.1 148.6 256.8 146.6 256.8 146.6 C 258.6 144.7 260.9 143.8 263.3 143.8 C 267.2 143.8 269.7 145.7 269.7 150.1 C 269.74 150.08 269.7 163.6 269.7 163.6 L 266.9 163.6 Z M 266.9 159.6 C 266.9 159.6 266.9 155.9 266.9 155.9 C 266 154.2 264.4 153.4 262.7 153.4 C 260.3 153.4 258.9 155.3 258.9 157.7 C 258.9 160.1 260.3 162 262.7 162 C 264.4 162 266 161.2 266.9 159.6 Z M 275.5 159.7 C 275.54 159.72 275.5 146.8 275.5 146.8 L 273 146.8 L 273 144.3 L 275.5 144.3 L 275.5 139 L 278.4 139 L 278.4 144.3 L 281.7 144.3 L 281.7 146.8 L 278.4 146.8 C 278.4 146.8 278.42 159.2 278.4 159.2 C 278.4 160.7 278.9 161.5 280 161.5 C 280.7 161.5 281.3 161.2 281.7 160.8 C 281.7 160.8 282.5 162.9 282.5 162.9 C 281.9 163.6 280.9 164.1 279.4 164.1 C 276.8 164.1 275.5 162.6 275.5 159.7 Z M 284.9 139.5 C 284.9 138.4 285.9 137.6 286.9 137.6 C 288 137.6 288.9 138.4 288.9 139.5 C 288.9 140.6 288 141.5 286.9 141.5 C 285.9 141.5 284.9 140.6 284.9 139.5 Z M 285.5 163.6 L 285.5 144.3 L 288.3 144.3 L 288.3 163.6 L 285.5 163.6 Z M 292.1 161.4 C 292.1 161.4 293.5 159.3 293.5 159.3 C 294.6 160.7 296.5 161.8 298.5 161.8 C 300.8 161.8 302.3 160.5 302.3 158.6 C 302.3 154.1 292.6 155.7 292.6 149 C 292.6 146.1 294.9 143.8 298.8 143.8 C 301.3 143.8 303.3 144.8 304.7 146.3 C 304.7 146.3 303.3 148.2 303.3 148.2 C 302.3 147 300.7 146.1 298.8 146.1 C 296.7 146.1 295.4 147.4 295.4 148.9 C 295.4 153 305 151.6 305 158.6 C 305 161.8 302.5 164.1 298.6 164.1 C 295.9 164.1 293.7 163.2 292.1 161.4 Z M 309.8 163.6 L 309.8 146.8 L 307.2 146.8 L 307.2 144.3 L 309.8 144.3 C 309.8 144.3 309.78 141.92 309.8 141.9 C 309.8 138.5 311.7 136.5 314.5 136.5 C 315.5 136.5 316.3 136.7 317 137.1 C 317 137.1 316.3 139.4 316.3 139.4 C 315.9 139.1 315.5 139 315 139 C 313.5 139 312.7 140 312.7 141.9 C 312.66 141.92 312.7 144.3 312.7 144.3 L 315.9 144.3 L 315.9 146.8 L 312.7 146.8 L 312.7 163.6 L 309.8 163.6 Z M 318.7 139.5 C 318.7 138.4 319.6 137.6 320.7 137.6 C 321.7 137.6 322.6 138.4 322.6 139.5 C 322.6 140.6 321.7 141.5 320.7 141.5 C 319.6 141.5 318.7 140.6 318.7 139.5 Z M 319.3 163.6 L 319.3 144.3 L 322.1 144.3 L 322.1 163.6 L 319.3 163.6 Z M 326.4 153.9 C 326.4 148.3 329.4 143.8 334.3 143.8 C 339.3 143.8 341.9 148.4 341.9 154 C 341.89 154 341.9 154.9 341.9 154.9 C 341.9 154.9 329.37 154.88 329.4 154.9 C 329.5 158.8 331.5 161.7 334.9 161.7 C 336.6 161.7 338.3 160.8 339.5 159.3 C 339.5 159.3 341.1 161 341.1 161 C 339.5 162.9 337.3 164.1 334.7 164.1 C 329.5 164.1 326.4 159.8 326.4 153.9 Z M 334.2 146.2 C 330.8 146.2 329.5 149.9 329.4 152.8 C 329.4 152.8 339.1 152.8 339.1 152.8 C 339 149.8 337.7 146.2 334.2 146.2 Z M 357.1 163.6 C 357.1 163.6 357.13 160.84 357.1 160.8 C 356 162.8 354.1 164.1 352.1 164.1 C 347.7 164.1 345.1 160 345.1 154 C 345.1 148 347.7 143.8 352.1 143.8 C 354 143.8 356 144.9 357.1 147.1 C 357.13 147.08 357.1 136.9 357.1 136.9 L 360 136.9 L 360 163.6 L 357.1 163.6 Z M 357.1 158.4 C 357.1 158.4 357.1 149.5 357.1 149.5 C 356.4 147.8 354.6 146.4 352.8 146.4 C 349.6 146.4 348.1 149.8 348.1 154 C 348.1 158.1 349.6 161.5 352.8 161.5 C 354.6 161.5 356.4 160.1 357.1 158.4 Z M 365.1 161.8 C 365.1 160.7 366.1 159.7 367.2 159.7 C 368.4 159.7 369.4 160.7 369.4 161.8 C 369.4 163 368.4 164 367.2 164 C 366.1 164 365.1 163 365.1 161.8 Z " stroke="none" fill="#b13d24"/>  </g>  <g id="Polygon173101">    <path d="M 7.5 116.8 C 7.46 116.8 7.5 127 7.5 127 L 4.6 127 L 4.6 100.3 L 7.5 100.3 C 7.5 100.3 7.46 103.04 7.5 103 C 8.6 101.1 10.5 99.8 12.5 99.8 C 16.9 99.8 19.5 103.8 19.5 109.9 C 19.5 116 16.9 120.1 12.5 120.1 C 10.6 120.1 8.7 119 7.5 116.8 Z M 16.5 109.9 C 16.5 105.8 15 102.4 11.8 102.4 C 10 102.4 8.2 103.8 7.5 105.5 C 7.5 105.5 7.5 114.3 7.5 114.3 C 8.2 116 10 117.5 11.8 117.5 C 15 117.5 16.5 114.1 16.5 109.9 Z M 23.7 119.6 L 23.7 92.9 L 26.6 92.9 L 26.6 119.6 L 23.7 119.6 Z M 41.8 119.6 C 41.8 119.6 41.78 117.52 41.8 117.5 C 40.5 119.3 38.7 120.1 36.7 120.1 C 33.6 120.1 30.9 117.7 30.9 113.6 C 30.9 109.6 33.5 107.3 36.7 107.3 C 38.7 107.3 40.6 108 41.8 109.8 C 41.8 109.8 41.8 106.4 41.8 106.4 C 41.8 103.8 40.3 102.3 37.8 102.3 C 36 102.3 34.5 103 33 104.6 C 33 104.6 31.7 102.6 31.7 102.6 C 33.5 100.7 35.8 99.8 38.3 99.8 C 42.1 99.8 44.7 101.7 44.7 106.1 C 44.66 106.08 44.7 119.6 44.7 119.6 L 41.8 119.6 Z M 41.8 115.6 C 41.8 115.6 41.8 111.9 41.8 111.9 C 40.9 110.2 39.3 109.4 37.6 109.4 C 35.2 109.4 33.8 111.3 33.8 113.7 C 33.8 116.1 35.2 118 37.6 118 C 39.3 118 40.9 117.2 41.8 115.6 Z M 48.9 109.9 C 48.9 104.2 52 99.8 56.9 99.8 C 59.6 99.8 61.3 100.9 62.5 102.4 C 62.5 102.4 60.9 104.3 60.9 104.3 C 59.9 102.9 58.7 102.4 57.2 102.4 C 53.7 102.4 51.9 105.8 51.9 109.9 C 51.9 114 53.7 117.5 57.2 117.5 C 58.7 117.5 59.9 116.9 60.9 115.6 C 60.9 115.6 62.5 117.5 62.5 117.5 C 61.3 119 59.6 120.1 56.9 120.1 C 52 120.1 48.9 115.6 48.9 109.9 Z M 65.2 109.9 C 65.2 104.3 68.1 99.8 73 99.8 C 78.1 99.8 80.7 104.4 80.7 110 C 80.66 110 80.7 110.9 80.7 110.9 C 80.7 110.9 68.14 110.88 68.1 110.9 C 68.3 114.8 70.3 117.7 73.7 117.7 C 75.4 117.7 77.1 116.8 78.3 115.3 C 78.3 115.3 79.8 117 79.8 117 C 78.3 118.9 76.1 120.1 73.5 120.1 C 68.3 120.1 65.2 115.8 65.2 109.9 Z M 73 102.2 C 69.6 102.2 68.2 105.9 68.1 108.8 C 68.1 108.8 77.8 108.8 77.8 108.8 C 77.8 105.8 76.5 102.2 73 102.2 Z M 85.8 124.6 C 85.8 124.6 84.3 123.5 84.3 123.5 C 85.6 122.6 86.7 121 86.9 119.8 C 86.8 119.8 86.5 119.8 86.4 119.8 C 85.3 119.8 84.5 119 84.5 117.8 C 84.5 116.7 85.4 115.7 86.6 115.7 C 87.9 115.7 89 116.8 89 118.7 C 89 121.1 87.6 123.4 85.8 124.6 Z M 103 115.7 C 102.98 115.72 103 102.8 103 102.8 L 100.4 102.8 L 100.4 100.3 L 103 100.3 L 103 95 L 105.9 95 L 105.9 100.3 L 109.1 100.3 L 109.1 102.8 L 105.9 102.8 C 105.9 102.8 105.86 115.2 105.9 115.2 C 105.9 116.7 106.3 117.5 107.4 117.5 C 108.1 117.5 108.7 117.2 109.1 116.8 C 109.1 116.8 110 118.9 110 118.9 C 109.3 119.6 108.3 120.1 106.9 120.1 C 104.2 120.1 103 118.6 103 115.7 Z M 123.4 119.6 C 123.4 119.6 123.42 105.8 123.4 105.8 C 123.4 103.2 122.2 102.4 120.3 102.4 C 118.4 102.4 116.7 103.8 115.8 105.4 C 115.78 105.44 115.8 119.6 115.8 119.6 L 112.9 119.6 L 112.9 92.9 L 115.8 92.9 C 115.8 92.9 115.78 103.04 115.8 103 C 116.9 101.4 119.1 99.8 121.4 99.8 C 124.7 99.8 126.3 101.4 126.3 105 C 126.26 104.96 126.3 119.6 126.3 119.6 L 123.4 119.6 Z M 130.6 109.9 C 130.6 104.3 133.5 99.8 138.4 99.8 C 143.5 99.8 146.1 104.4 146.1 110 C 146.06 110 146.1 110.9 146.1 110.9 C 146.1 110.9 133.54 110.88 133.5 110.9 C 133.7 114.8 135.7 117.7 139.1 117.7 C 140.8 117.7 142.5 116.8 143.7 115.3 C 143.7 115.3 145.2 117 145.2 117 C 143.7 118.9 141.5 120.1 138.9 120.1 C 133.7 120.1 130.6 115.8 130.6 109.9 Z M 138.4 102.2 C 135 102.2 133.6 105.9 133.5 108.8 C 133.5 108.8 143.2 108.8 143.2 108.8 C 143.2 105.8 141.9 102.2 138.4 102.2 Z M 157.9 109.9 C 157.9 104.3 160.9 99.8 165.7 99.8 C 170.8 99.8 173.4 104.4 173.4 110 C 173.38 110 173.4 110.9 173.4 110.9 C 173.4 110.9 160.86 110.88 160.9 110.9 C 161 114.8 163 117.7 166.4 117.7 C 168.1 117.7 169.8 116.8 171 115.3 C 171 115.3 172.5 117 172.5 117 C 171 118.9 168.8 120.1 166.2 120.1 C 161 120.1 157.9 115.8 157.9 109.9 Z M 165.7 102.2 C 162.3 102.2 160.9 105.9 160.9 108.8 C 160.9 108.8 170.5 108.8 170.5 108.8 C 170.5 105.8 169.2 102.2 165.7 102.2 Z M 187.5 119.6 L 183.1 111.8 L 178.6 119.6 L 175.4 119.6 L 181.3 109.8 L 175.7 100.3 L 178.9 100.3 L 183.1 107.6 L 187.2 100.3 L 190.4 100.3 L 184.8 109.8 L 190.7 119.6 L 187.5 119.6 Z M 196.7 116.8 C 196.66 116.8 196.7 127 196.7 127 L 193.8 127 L 193.8 100.3 L 196.7 100.3 C 196.7 100.3 196.66 103.04 196.7 103 C 197.8 101.1 199.7 99.8 201.7 99.8 C 206.1 99.8 208.7 103.8 208.7 109.9 C 208.7 116 206.1 120.1 201.7 120.1 C 199.8 120.1 197.9 119 196.7 116.8 Z M 205.7 109.9 C 205.7 105.8 204.2 102.4 201 102.4 C 199.2 102.4 197.4 103.8 196.7 105.5 C 196.7 105.5 196.7 114.3 196.7 114.3 C 197.4 116 199.2 117.5 201 117.5 C 204.2 117.5 205.7 114.1 205.7 109.9 Z M 212 109.9 C 212 104.3 214.9 99.8 219.8 99.8 C 224.9 99.8 227.5 104.4 227.5 110 C 227.46 110 227.5 110.9 227.5 110.9 C 227.5 110.9 214.94 110.88 214.9 110.9 C 215.1 114.8 217.1 117.7 220.5 117.7 C 222.2 117.7 223.9 116.8 225.1 115.3 C 225.1 115.3 226.6 117 226.6 117 C 225.1 118.9 222.9 120.1 220.3 120.1 C 215.1 120.1 212 115.8 212 109.9 Z M 219.8 102.2 C 216.4 102.2 215 105.9 214.9 108.8 C 214.9 108.8 224.6 108.8 224.6 108.8 C 224.6 105.8 223.3 102.2 219.8 102.2 Z M 231.7 119.6 L 231.7 100.3 L 234.5 100.3 C 234.5 100.3 234.5 103.36 234.5 103.4 C 235.7 101.3 237.6 99.9 240 99.9 C 240 99.9 240 102.8 240 102.8 C 239.7 102.8 239.3 102.7 239 102.7 C 237.3 102.7 235.3 104.3 234.5 105.9 C 234.5 105.88 234.5 119.6 234.5 119.6 L 231.7 119.6 Z M 242.7 95.5 C 242.7 94.4 243.7 93.6 244.7 93.6 C 245.8 93.6 246.7 94.4 246.7 95.5 C 246.7 96.6 245.8 97.5 244.7 97.5 C 243.7 97.5 242.7 96.6 242.7 95.5 Z M 243.3 119.6 L 243.3 100.3 L 246.1 100.3 L 246.1 119.6 L 243.3 119.6 Z M 250.5 109.9 C 250.5 104.3 253.4 99.8 258.3 99.8 C 263.4 99.8 265.9 104.4 265.9 110 C 265.94 110 265.9 110.9 265.9 110.9 C 265.9 110.9 253.42 110.88 253.4 110.9 C 253.5 114.8 255.5 117.7 259 117.7 C 260.7 117.7 262.4 116.8 263.6 115.3 C 263.6 115.3 265.1 117 265.1 117 C 263.5 118.9 261.3 120.1 258.7 120.1 C 253.6 120.1 250.5 115.8 250.5 109.9 Z M 258.3 102.2 C 254.9 102.2 253.5 105.9 253.4 108.8 C 253.4 108.8 263.1 108.8 263.1 108.8 C 263.1 105.8 261.8 102.2 258.3 102.2 Z M 280.6 119.6 C 280.6 119.6 280.58 105.84 280.6 105.8 C 280.6 103.3 279.4 102.4 277.5 102.4 C 275.6 102.4 273.9 103.8 273 105.4 C 272.98 105.44 273 119.6 273 119.6 L 270.1 119.6 L 270.1 100.3 L 273 100.3 C 273 100.3 272.98 103.04 273 103 C 274.1 101.4 276.3 99.8 278.6 99.8 C 281.9 99.8 283.5 101.6 283.5 105 C 283.46 105.04 283.5 119.6 283.5 119.6 L 280.6 119.6 Z M 287.8 109.9 C 287.8 104.2 290.8 99.8 295.8 99.8 C 298.5 99.8 300.1 100.9 301.3 102.4 C 301.3 102.4 299.7 104.3 299.7 104.3 C 298.7 102.9 297.5 102.4 296 102.4 C 292.6 102.4 290.8 105.8 290.8 109.9 C 290.8 114 292.6 117.5 296 117.5 C 297.5 117.5 298.7 116.9 299.7 115.6 C 299.7 115.6 301.3 117.5 301.3 117.5 C 300.1 119 298.5 120.1 295.8 120.1 C 290.8 120.1 287.8 115.6 287.8 109.9 Z M 304 109.9 C 304 104.3 307 99.8 311.9 99.8 C 316.9 99.8 319.5 104.4 319.5 110 C 319.5 110 319.5 110.9 319.5 110.9 C 319.5 110.9 306.98 110.88 307 110.9 C 307.1 114.8 309.1 117.7 312.5 117.7 C 314.2 117.7 315.9 116.8 317.1 115.3 C 317.1 115.3 318.7 117 318.7 117 C 317.1 118.9 314.9 120.1 312.3 120.1 C 307.1 120.1 304 115.8 304 109.9 Z M 311.8 102.2 C 308.4 102.2 307.1 105.9 307 108.8 C 307 108.8 316.7 108.8 316.7 108.8 C 316.6 105.8 315.3 102.2 311.8 102.2 Z M 331.3 109.9 C 331.3 104.5 334.1 99.8 339.2 99.8 C 344.4 99.8 347.1 104.5 347.1 109.9 C 347.1 115.4 344.4 120.1 339.2 120.1 C 334.1 120.1 331.3 115.4 331.3 109.9 Z M 344.1 109.9 C 344.1 106 342.6 102.4 339.2 102.4 C 335.9 102.4 334.3 106 334.3 109.9 C 334.3 113.8 335.9 117.5 339.2 117.5 C 342.6 117.5 344.1 113.8 344.1 109.9 Z M 352.1 119.6 L 352.1 102.8 L 349.5 102.8 L 349.5 100.3 L 352.1 100.3 C 352.1 100.3 352.06 97.92 352.1 97.9 C 352.1 94.6 353.9 92.5 356.9 92.5 C 358.2 92.5 359.4 92.9 360.3 93.8 C 360.3 93.8 359.2 95.8 359.2 95.8 C 358.7 95.3 358.1 95 357.3 95 C 355.7 95 354.9 96 354.9 97.9 C 354.94 97.92 354.9 100.3 354.9 100.3 L 358.2 100.3 L 358.2 102.8 L 354.9 102.8 L 354.9 119.6 L 352.1 119.6 Z M 369.2 109.9 C 369.2 104.3 372.1 99.8 377 99.8 C 382.1 99.8 384.7 104.4 384.7 110 C 384.66 110 384.7 110.9 384.7 110.9 C 384.7 110.9 372.14 110.88 372.1 110.9 C 372.3 114.8 374.3 117.7 377.7 117.7 C 379.4 117.7 381.1 116.8 382.3 115.3 C 382.3 115.3 383.8 117 383.8 117 C 382.3 118.9 380.1 120.1 377.5 120.1 C 372.3 120.1 369.2 115.8 369.2 109.9 Z M 377 102.2 C 373.6 102.2 372.2 105.9 372.1 108.8 C 372.1 108.8 381.8 108.8 381.8 108.8 C 381.8 105.8 380.5 102.2 377 102.2 Z M 398.8 119.6 C 398.8 119.6 398.78 117.52 398.8 117.5 C 397.5 119.3 395.7 120.1 393.7 120.1 C 390.6 120.1 387.9 117.7 387.9 113.6 C 387.9 109.6 390.5 107.3 393.7 107.3 C 395.7 107.3 397.6 108 398.8 109.8 C 398.8 109.8 398.8 106.4 398.8 106.4 C 398.8 103.8 397.3 102.3 394.8 102.3 C 393 102.3 391.5 103 390 104.6 C 390 104.6 388.7 102.6 388.7 102.6 C 390.5 100.7 392.8 99.8 395.3 99.8 C 399.1 99.8 401.7 101.7 401.7 106.1 C 401.66 106.08 401.7 119.6 401.7 119.6 L 398.8 119.6 Z M 398.8 115.6 C 398.8 115.6 398.8 111.9 398.8 111.9 C 397.9 110.2 396.3 109.4 394.6 109.4 C 392.2 109.4 390.8 111.3 390.8 113.7 C 390.8 116.1 392.2 118 394.6 118 C 396.3 118 397.9 117.2 398.8 115.6 Z M 407.5 115.7 C 407.45 115.72 407.5 102.8 407.5 102.8 L 404.9 102.8 L 404.9 100.3 L 407.5 100.3 L 407.5 95 L 410.3 95 L 410.3 100.3 L 413.6 100.3 L 413.6 102.8 L 410.3 102.8 C 410.3 102.8 410.33 115.2 410.3 115.2 C 410.3 116.7 410.8 117.5 411.9 117.5 C 412.6 117.5 413.2 117.2 413.6 116.8 C 413.6 116.8 414.5 118.9 414.5 118.9 C 413.8 119.6 412.8 120.1 411.3 120.1 C 408.7 120.1 407.5 118.6 407.5 115.7 Z M 416.9 95.5 C 416.9 94.4 417.8 93.6 418.8 93.6 C 419.9 93.6 420.8 94.4 420.8 95.5 C 420.8 96.6 419.9 97.5 418.8 97.5 C 417.8 97.5 416.9 96.6 416.9 95.5 Z M 417.4 119.6 L 417.4 100.3 L 420.3 100.3 L 420.3 119.6 L 417.4 119.6 Z M 436 119.6 C 436 119.6 435.97 105.84 436 105.8 C 436 103.3 434.8 102.4 432.9 102.4 C 431 102.4 429.3 103.8 428.4 105.4 C 428.37 105.44 428.4 119.6 428.4 119.6 L 425.5 119.6 L 425.5 100.3 L 428.4 100.3 C 428.4 100.3 428.37 103.04 428.4 103 C 429.5 101.4 431.7 99.8 434 99.8 C 437.3 99.8 438.9 101.6 438.9 105 C 438.85 105.04 438.9 119.6 438.9 119.6 L 436 119.6 Z M 444 125 C 444 125 445.3 122.8 445.3 122.8 C 446.6 124.2 448.2 125 450.3 125 C 453 125 455.2 123.5 455.2 119.8 C 455.2 119.8 455.2 116.5 455.2 116.5 C 454.1 118.5 452.1 119.8 450.1 119.8 C 445.8 119.8 443.2 115.9 443.2 109.8 C 443.2 103.8 445.7 99.8 450.1 99.8 C 452.1 99.8 454 100.9 455.2 103.1 C 455.17 103.08 455.2 100.3 455.2 100.3 L 458.1 100.3 C 458.1 100.3 458.05 119.56 458.1 119.6 C 458.1 125.5 454.5 127.4 450.4 127.4 C 447.8 127.4 445.8 126.8 444 125 Z M 455.2 114.1 C 455.2 114.1 455.2 105.5 455.2 105.5 C 454.5 103.8 452.7 102.4 450.8 102.4 C 447.7 102.4 446.2 105.7 446.2 109.8 C 446.2 114 447.7 117.3 450.8 117.3 C 452.7 117.3 454.5 115.8 455.2 114.1 Z " stroke="none" fill="#b13d24"/>  </g>  <g id="Polygon173100">    <path d="M 15.7 75.6 C 15.7 75.6 15.66 72.84 15.7 72.8 C 14.5 74.8 12.6 76.1 10.6 76.1 C 6.3 76.1 3.7 72 3.7 66 C 3.7 60 6.2 55.8 10.6 55.8 C 12.5 55.8 14.5 56.9 15.7 59.1 C 15.66 59.08 15.7 48.9 15.7 48.9 L 18.5 48.9 L 18.5 75.6 L 15.7 75.6 Z M 15.7 70.4 C 15.7 70.4 15.7 61.5 15.7 61.5 C 14.9 59.8 13.1 58.4 11.3 58.4 C 8.1 58.4 6.7 61.8 6.7 66 C 6.7 70.1 8.1 73.5 11.3 73.5 C 13.1 73.5 14.9 72.1 15.7 70.4 Z M 23.3 51.5 C 23.3 50.4 24.2 49.6 25.2 49.6 C 26.3 49.6 27.2 50.4 27.2 51.5 C 27.2 52.6 26.3 53.5 25.2 53.5 C 24.2 53.5 23.3 52.6 23.3 51.5 Z M 23.8 75.6 L 23.8 56.3 L 26.7 56.3 L 26.7 75.6 L 23.8 75.6 Z M 32.6 75.6 L 32.6 58.8 L 30.1 58.8 L 30.1 56.3 L 32.6 56.3 C 32.6 56.3 32.62 53.92 32.6 53.9 C 32.6 50.6 34.5 48.5 37.5 48.5 C 38.7 48.5 39.9 48.9 40.9 49.8 C 40.9 49.8 39.8 51.8 39.8 51.8 C 39.3 51.3 38.7 51 37.9 51 C 36.3 51 35.5 52 35.5 53.9 C 35.5 53.92 35.5 56.3 35.5 56.3 L 38.8 56.3 L 38.8 58.8 L 35.5 58.8 L 35.5 75.6 L 32.6 75.6 Z M 42.8 75.6 L 42.8 58.8 L 40.2 58.8 L 40.2 56.3 L 42.8 56.3 C 42.8 56.3 42.78 53.92 42.8 53.9 C 42.8 50.6 44.6 48.5 47.6 48.5 C 48.9 48.5 50.1 48.9 51.1 49.8 C 51.1 49.8 49.9 51.8 49.9 51.8 C 49.4 51.3 48.8 51 48.1 51 C 46.5 51 45.7 52 45.7 53.9 C 45.66 53.92 45.7 56.3 45.7 56.3 L 48.9 56.3 L 48.9 58.8 L 45.7 58.8 L 45.7 75.6 L 42.8 75.6 Z M 51.3 65.9 C 51.3 60.3 54.2 55.8 59.1 55.8 C 64.2 55.8 66.7 60.4 66.7 66 C 66.74 66 66.7 66.9 66.7 66.9 C 66.7 66.9 54.22 66.88 54.2 66.9 C 54.3 70.8 56.3 73.7 59.8 73.7 C 61.5 73.7 63.2 72.8 64.4 71.3 C 64.4 71.3 65.9 73 65.9 73 C 64.3 74.9 62.1 76.1 59.5 76.1 C 54.4 76.1 51.3 71.8 51.3 65.9 Z M 59.1 58.2 C 55.7 58.2 54.3 61.9 54.2 64.8 C 54.2 64.8 63.9 64.8 63.9 64.8 C 63.9 61.8 62.6 58.2 59.1 58.2 Z M 70.9 75.6 L 70.9 56.3 L 73.8 56.3 C 73.8 56.3 73.78 59.36 73.8 59.4 C 75 57.3 76.9 55.9 79.3 55.9 C 79.3 55.9 79.3 58.8 79.3 58.8 C 78.9 58.8 78.6 58.7 78.3 58.7 C 76.5 58.7 74.6 60.3 73.8 61.9 C 73.78 61.88 73.8 75.6 73.8 75.6 L 70.9 75.6 Z M 81.6 65.9 C 81.6 60.3 84.6 55.8 89.5 55.8 C 94.5 55.8 97.1 60.4 97.1 66 C 97.1 66 97.1 66.9 97.1 66.9 C 97.1 66.9 84.58 66.88 84.6 66.9 C 84.7 70.8 86.7 73.7 90.1 73.7 C 91.8 73.7 93.5 72.8 94.7 71.3 C 94.7 71.3 96.3 73 96.3 73 C 94.7 74.9 92.5 76.1 89.9 76.1 C 84.7 76.1 81.6 71.8 81.6 65.9 Z M 89.4 58.2 C 86 58.2 84.7 61.9 84.6 64.8 C 84.6 64.8 94.3 64.8 94.3 64.8 C 94.2 61.8 92.9 58.2 89.4 58.2 Z M 111.7 75.6 C 111.7 75.6 111.74 61.84 111.7 61.8 C 111.7 59.3 110.6 58.4 108.7 58.4 C 106.8 58.4 105 59.8 104.1 61.4 C 104.14 61.44 104.1 75.6 104.1 75.6 L 101.3 75.6 L 101.3 56.3 L 104.1 56.3 C 104.1 56.3 104.14 59.04 104.1 59 C 105.3 57.4 107.4 55.8 109.7 55.8 C 113 55.8 114.6 57.6 114.6 61 C 114.62 61.04 114.6 75.6 114.6 75.6 L 111.7 75.6 Z M 120.5 71.7 C 120.46 71.72 120.5 58.8 120.5 58.8 L 117.9 58.8 L 117.9 56.3 L 120.5 56.3 L 120.5 51 L 123.3 51 L 123.3 56.3 L 126.6 56.3 L 126.6 58.8 L 123.3 58.8 C 123.3 58.8 123.34 71.2 123.3 71.2 C 123.3 72.7 123.8 73.5 124.9 73.5 C 125.6 73.5 126.2 73.2 126.6 72.8 C 126.6 72.8 127.5 74.9 127.5 74.9 C 126.8 75.6 125.8 76.1 124.3 76.1 C 121.7 76.1 120.5 74.6 120.5 71.7 Z M 141.9 72.8 C 141.86 72.8 141.9 83 141.9 83 L 139 83 L 139 56.3 L 141.9 56.3 C 141.9 56.3 141.86 59.04 141.9 59 C 143 57.1 144.9 55.8 146.9 55.8 C 151.3 55.8 153.9 59.8 153.9 65.9 C 153.9 72 151.3 76.1 146.9 76.1 C 145 76.1 143.1 75 141.9 72.8 Z M 150.9 65.9 C 150.9 61.8 149.4 58.4 146.2 58.4 C 144.4 58.4 142.6 59.8 141.9 61.5 C 141.9 61.5 141.9 70.3 141.9 70.3 C 142.6 72 144.4 73.5 146.2 73.5 C 149.4 73.5 150.9 70.1 150.9 65.9 Z M 168.1 75.6 C 168.1 75.6 168.06 73.52 168.1 73.5 C 166.8 75.3 164.9 76.1 163 76.1 C 159.9 76.1 157.1 73.7 157.1 69.6 C 157.1 65.6 159.8 63.3 163 63.3 C 164.9 63.3 166.9 64 168.1 65.8 C 168.1 65.8 168.1 62.4 168.1 62.4 C 168.1 59.8 166.6 58.3 164.1 58.3 C 162.3 58.3 160.7 59 159.3 60.6 C 159.3 60.6 158 58.6 158 58.6 C 159.8 56.7 162.1 55.8 164.5 55.8 C 168.4 55.8 170.9 57.7 170.9 62.1 C 170.94 62.08 170.9 75.6 170.9 75.6 L 168.1 75.6 Z M 168.1 71.6 C 168.1 71.6 168.1 67.9 168.1 67.9 C 167.2 66.2 165.6 65.4 163.9 65.4 C 161.5 65.4 160.1 67.3 160.1 69.7 C 160.1 72.1 161.5 74 163.9 74 C 165.6 74 167.2 73.2 168.1 71.6 Z M 176.2 75.6 L 176.2 56.3 L 179 56.3 C 179 56.3 179.02 59.36 179 59.4 C 180.3 57.3 182.1 55.9 184.5 55.9 C 184.5 55.9 184.5 58.8 184.5 58.8 C 184.2 58.8 183.9 58.7 183.5 58.7 C 181.8 58.7 179.8 60.3 179 61.9 C 179.02 61.88 179 75.6 179 75.6 L 176.2 75.6 Z M 188.4 71.7 C 188.38 71.72 188.4 58.8 188.4 58.8 L 185.8 58.8 L 185.8 56.3 L 188.4 56.3 L 188.4 51 L 191.3 51 L 191.3 56.3 L 194.5 56.3 L 194.5 58.8 L 191.3 58.8 C 191.3 58.8 191.26 71.2 191.3 71.2 C 191.3 72.7 191.7 73.5 192.8 73.5 C 193.5 73.5 194.1 73.2 194.5 72.8 C 194.5 72.8 195.4 74.9 195.4 74.9 C 194.7 75.6 193.7 76.1 192.3 76.1 C 189.6 76.1 188.4 74.6 188.4 71.7 Z M 196.8 73.4 C 196.8 73.4 198.2 71.3 198.2 71.3 C 199.3 72.7 201.2 73.8 203.3 73.8 C 205.5 73.8 207 72.5 207 70.6 C 207 66.1 197.3 67.7 197.3 61 C 197.3 58.1 199.7 55.8 203.5 55.8 C 206.1 55.8 208 56.8 209.4 58.3 C 209.4 58.3 208 60.2 208 60.2 C 207.1 59 205.4 58.1 203.5 58.1 C 201.4 58.1 200.1 59.4 200.1 60.9 C 200.1 65 209.7 63.6 209.7 70.6 C 209.7 73.8 207.3 76.1 203.3 76.1 C 200.6 76.1 198.4 75.2 196.8 73.4 Z M 223.1 75.6 L 223.1 58.8 L 220.5 58.8 L 220.5 56.3 L 223.1 56.3 C 223.1 56.3 223.1 53.92 223.1 53.9 C 223.1 50.6 224.9 48.5 227.9 48.5 C 229.2 48.5 230.4 48.9 231.4 49.8 C 231.4 49.8 230.3 51.8 230.3 51.8 C 229.7 51.3 229.1 51 228.4 51 C 226.8 51 226 52 226 53.9 C 225.98 53.92 226 56.3 226 56.3 L 229.3 56.3 L 229.3 58.8 L 226 58.8 L 226 75.6 L 223.1 75.6 Z M 232.6 75.6 L 232.6 56.3 L 235.4 56.3 C 235.4 56.3 235.42 59.36 235.4 59.4 C 236.7 57.3 238.5 55.9 240.9 55.9 C 240.9 55.9 240.9 58.8 240.9 58.8 C 240.6 58.8 240.3 58.7 239.9 58.7 C 238.2 58.7 236.2 60.3 235.4 61.9 C 235.42 61.88 235.4 75.6 235.4 75.6 L 232.6 75.6 Z M 243.3 65.9 C 243.3 60.5 246 55.8 251.1 55.8 C 256.3 55.8 259 60.5 259 65.9 C 259 71.4 256.3 76.1 251.1 76.1 C 246 76.1 243.3 71.4 243.3 65.9 Z M 256 65.9 C 256 62 254.5 58.4 251.1 58.4 C 247.8 58.4 246.3 62 246.3 65.9 C 246.3 69.8 247.8 73.5 251.1 73.5 C 254.5 73.5 256 69.8 256 65.9 Z M 282.8 75.6 C 282.8 75.6 282.82 61.6 282.8 61.6 C 282.8 59.5 282 58.4 280.1 58.4 C 278.4 58.4 276.7 59.9 275.9 61.4 C 275.94 61.44 275.9 75.6 275.9 75.6 L 273.1 75.6 C 273.1 75.6 273.06 61.6 273.1 61.6 C 273.1 59.5 272.2 58.4 270.3 58.4 C 268.6 58.4 267 59.9 266.1 61.4 C 266.14 61.44 266.1 75.6 266.1 75.6 L 263.3 75.6 L 263.3 56.3 L 266.1 56.3 C 266.1 56.3 266.14 59.04 266.1 59 C 266.9 57.6 269.1 55.8 271.4 55.8 C 273.9 55.8 275.4 57.2 275.8 59.2 C 276.7 57.5 278.9 55.8 281.2 55.8 C 284.1 55.8 285.7 57.4 285.7 60.8 C 285.7 60.84 285.7 75.6 285.7 75.6 L 282.8 75.6 Z M 309.5 75.6 C 309.5 75.6 309.5 73.52 309.5 73.5 C 308.3 75.3 306.4 76.1 304.4 76.1 C 301.3 76.1 298.6 73.7 298.6 69.6 C 298.6 65.6 301.3 63.3 304.4 63.3 C 306.4 63.3 308.3 64 309.5 65.8 C 309.5 65.8 309.5 62.4 309.5 62.4 C 309.5 59.8 308.1 58.3 305.5 58.3 C 303.7 58.3 302.2 59 300.7 60.6 C 300.7 60.6 299.4 58.6 299.4 58.6 C 301.3 56.7 303.5 55.8 306 55.8 C 309.8 55.8 312.4 57.7 312.4 62.1 C 312.38 62.08 312.4 75.6 312.4 75.6 L 309.5 75.6 Z M 309.5 71.6 C 309.5 71.6 309.5 67.9 309.5 67.9 C 308.6 66.2 307 65.4 305.3 65.4 C 302.9 65.4 301.5 67.3 301.5 69.7 C 301.5 72.1 302.9 74 305.3 74 C 307 74 308.6 73.2 309.5 71.6 Z M 317.6 75.6 L 317.6 48.9 L 320.5 48.9 L 320.5 75.6 L 317.6 75.6 Z M 325.7 75.6 L 325.7 48.9 L 328.6 48.9 L 328.6 75.6 L 325.7 75.6 Z M 341.5 65.9 C 341.5 60.5 344.2 55.8 349.3 55.8 C 354.5 55.8 357.2 60.5 357.2 65.9 C 357.2 71.4 354.5 76.1 349.3 76.1 C 344.2 76.1 341.5 71.4 341.5 65.9 Z M 354.2 65.9 C 354.2 62 352.7 58.4 349.3 58.4 C 346 58.4 344.5 62 344.5 65.9 C 344.5 69.8 346 73.5 349.3 73.5 C 352.7 73.5 354.2 69.8 354.2 65.9 Z M 365.5 75.6 L 359.1 56.3 L 362.3 56.3 L 367.1 72.2 L 371.9 56.3 L 375 56.3 L 368.6 75.6 L 365.5 75.6 Z M 376.9 65.9 C 376.9 60.3 379.9 55.8 384.7 55.8 C 389.8 55.8 392.4 60.4 392.4 66 C 392.37 66 392.4 66.9 392.4 66.9 C 392.4 66.9 379.85 66.88 379.9 66.9 C 380 70.8 382 73.7 385.4 73.7 C 387.1 73.7 388.8 72.8 390 71.3 C 390 71.3 391.5 73 391.5 73 C 390 74.9 387.8 76.1 385.2 76.1 C 380 76.1 376.9 71.8 376.9 65.9 Z M 384.7 58.2 C 381.3 58.2 379.9 61.9 379.9 64.8 C 379.9 64.8 389.5 64.8 389.5 64.8 C 389.5 61.8 388.2 58.2 384.7 58.2 Z M 396.6 75.6 L 396.6 56.3 L 399.4 56.3 C 399.4 56.3 399.41 59.36 399.4 59.4 C 400.7 57.3 402.5 55.9 404.9 55.9 C 404.9 55.9 404.9 58.8 404.9 58.8 C 404.6 58.8 404.3 58.7 403.9 58.7 C 402.2 58.7 400.2 60.3 399.4 61.9 C 399.41 61.88 399.4 75.6 399.4 75.6 L 396.6 75.6 Z M 417.4 71.7 C 417.37 71.72 417.4 58.8 417.4 58.8 L 414.8 58.8 L 414.8 56.3 L 417.4 56.3 L 417.4 51 L 420.3 51 L 420.3 56.3 L 423.5 56.3 L 423.5 58.8 L 420.3 58.8 C 420.3 58.8 420.25 71.2 420.3 71.2 C 420.3 72.7 420.7 73.5 421.8 73.5 C 422.5 73.5 423.1 73.2 423.5 72.8 C 423.5 72.8 424.4 74.9 424.4 74.9 C 423.7 75.6 422.7 76.1 421.3 76.1 C 418.6 76.1 417.4 74.6 417.4 71.7 Z M 437.8 75.6 C 437.8 75.6 437.81 61.8 437.8 61.8 C 437.8 59.2 436.6 58.4 434.7 58.4 C 432.8 58.4 431.1 59.8 430.2 61.4 C 430.17 61.44 430.2 75.6 430.2 75.6 L 427.3 75.6 L 427.3 48.9 L 430.2 48.9 C 430.2 48.9 430.17 59.04 430.2 59 C 431.3 57.4 433.5 55.8 435.8 55.8 C 439.1 55.8 440.7 57.4 440.7 61 C 440.65 60.96 440.7 75.6 440.7 75.6 L 437.8 75.6 Z M 445 65.9 C 445 60.3 447.9 55.8 452.8 55.8 C 457.9 55.8 460.5 60.4 460.5 66 C 460.45 66 460.5 66.9 460.5 66.9 C 460.5 66.9 447.93 66.88 447.9 66.9 C 448.1 70.8 450.1 73.7 453.5 73.7 C 455.2 73.7 456.9 72.8 458.1 71.3 C 458.1 71.3 459.6 73 459.6 73 C 458.1 74.9 455.9 76.1 453.3 76.1 C 448.1 76.1 445 71.8 445 65.9 Z M 452.8 58.2 C 449.4 58.2 448 61.9 447.9 64.8 C 447.9 64.8 457.6 64.8 457.6 64.8 C 457.6 61.8 456.3 58.2 452.8 58.2 Z " stroke="none" fill="#b13d24"/>  </g>  <g id="Polygon173099">    <path d="M 18.7 31.6 L 16.9 25.6 L 7.5 25.6 L 5.7 31.6 L 2.3 31.6 L 10.3 4.9 L 14.1 4.9 L 22.1 31.6 L 18.7 31.6 Z M 12.2 8.4 L 8.1 22.8 L 16.3 22.8 L 12.2 8.4 Z M 44.7 31.6 C 44.7 31.6 44.7 28.84 44.7 28.8 C 43.6 30.8 41.7 32.1 39.6 32.1 C 35.3 32.1 32.7 28 32.7 22 C 32.7 16 35.3 11.8 39.6 11.8 C 41.6 11.8 43.5 12.9 44.7 15.1 C 44.7 15.08 44.7 4.9 44.7 4.9 L 47.6 4.9 L 47.6 31.6 L 44.7 31.6 Z M 44.7 26.4 C 44.7 26.4 44.7 17.5 44.7 17.5 C 44 15.8 42.2 14.4 40.3 14.4 C 37.2 14.4 35.7 17.8 35.7 22 C 35.7 26.1 37.2 29.5 40.3 29.5 C 42.2 29.5 44 28.1 44.7 26.4 Z M 52.3 7.5 C 52.3 6.4 53.2 5.6 54.3 5.6 C 55.3 5.6 56.2 6.4 56.2 7.5 C 56.2 8.6 55.3 9.5 54.3 9.5 C 53.2 9.5 52.3 8.6 52.3 7.5 Z M 52.9 31.6 L 52.9 12.3 L 55.7 12.3 L 55.7 31.6 L 52.9 31.6 Z M 59.4 29.4 C 59.4 29.4 60.9 27.3 60.9 27.3 C 62 28.7 63.8 29.8 65.9 29.8 C 68.1 29.8 69.6 28.5 69.6 26.6 C 69.6 22.1 60 23.7 60 17 C 60 14.1 62.3 11.8 66.1 11.8 C 68.7 11.8 70.7 12.8 72 14.3 C 72 14.3 70.7 16.2 70.7 16.2 C 69.7 15 68.1 14.1 66.2 14.1 C 64.1 14.1 62.7 15.4 62.7 16.9 C 62.7 21 72.4 19.6 72.4 26.6 C 72.4 29.8 69.9 32.1 65.9 32.1 C 63.2 32.1 61 31.2 59.4 29.4 Z M 86.9 31.6 C 86.9 31.6 86.94 17.8 86.9 17.8 C 86.9 15.2 85.7 14.4 83.8 14.4 C 81.9 14.4 80.2 15.8 79.3 17.4 C 79.3 17.44 79.3 31.6 79.3 31.6 L 76.5 31.6 L 76.5 4.9 L 79.3 4.9 C 79.3 4.9 79.3 15.04 79.3 15 C 80.4 13.4 82.6 11.8 84.9 11.8 C 88.2 11.8 89.8 13.4 89.8 17 C 89.78 16.96 89.8 31.6 89.8 31.6 L 86.9 31.6 Z M 117.9 31.6 L 113.8 16.1 L 109.6 31.6 L 106.7 31.6 L 101.5 12.3 L 104.5 12.3 L 108.3 27.7 L 112.4 12.3 L 115.1 12.3 L 119.2 27.7 L 123 12.3 L 126 12.3 L 120.9 31.6 L 117.9 31.6 Z M 128.6 7.5 C 128.6 6.4 129.5 5.6 130.6 5.6 C 131.7 5.6 132.5 6.4 132.5 7.5 C 132.5 8.6 131.7 9.5 130.6 9.5 C 129.5 9.5 128.6 8.6 128.6 7.5 Z M 129.2 31.6 L 129.2 12.3 L 132 12.3 L 132 31.6 L 129.2 31.6 Z M 137.9 27.7 C 137.86 27.72 137.9 14.8 137.9 14.8 L 135.3 14.8 L 135.3 12.3 L 137.9 12.3 L 137.9 7 L 140.7 7 L 140.7 12.3 L 144 12.3 L 144 14.8 L 140.7 14.8 C 140.7 14.8 140.74 27.2 140.7 27.2 C 140.7 28.7 141.2 29.5 142.3 29.5 C 143 29.5 143.6 29.2 144 28.8 C 144 28.8 144.9 30.9 144.9 30.9 C 144.2 31.6 143.2 32.1 141.7 32.1 C 139.1 32.1 137.9 30.6 137.9 27.7 Z M 158.3 31.6 C 158.3 31.6 158.3 17.8 158.3 17.8 C 158.3 15.2 157.1 14.4 155.2 14.4 C 153.3 14.4 151.5 15.8 150.7 17.4 C 150.66 17.44 150.7 31.6 150.7 31.6 L 147.8 31.6 L 147.8 4.9 L 150.7 4.9 C 150.7 4.9 150.66 15.04 150.7 15 C 151.8 13.4 154 11.8 156.3 11.8 C 159.6 11.8 161.1 13.4 161.1 17 C 161.14 16.96 161.1 31.6 161.1 31.6 L 158.3 31.6 Z M 185.5 31.6 C 185.5 31.6 185.5 17.8 185.5 17.8 C 185.5 15.2 184.3 14.4 182.4 14.4 C 180.5 14.4 178.7 15.8 177.9 17.4 C 177.86 17.44 177.9 31.6 177.9 31.6 L 175 31.6 L 175 4.9 L 177.9 4.9 C 177.9 4.9 177.86 15.04 177.9 15 C 179 13.4 181.2 11.8 183.5 11.8 C 186.8 11.8 188.3 13.4 188.3 17 C 188.34 16.96 188.3 31.6 188.3 31.6 L 185.5 31.6 Z M 193.1 7.5 C 193.1 6.4 194 5.6 195 5.6 C 196.1 5.6 197 6.4 197 7.5 C 197 8.6 196.1 9.5 195 9.5 C 194 9.5 193.1 8.6 193.1 7.5 Z M 193.6 31.6 L 193.6 12.3 L 196.5 12.3 L 196.5 31.6 L 193.6 31.6 Z M 200.2 29.4 C 200.2 29.4 201.6 27.3 201.6 27.3 C 202.7 28.7 204.6 29.8 206.7 29.8 C 208.9 29.8 210.4 28.5 210.4 26.6 C 210.4 22.1 200.7 23.7 200.7 17 C 200.7 14.1 203.1 11.8 206.9 11.8 C 209.5 11.8 211.4 12.8 212.8 14.3 C 212.8 14.3 211.4 16.2 211.4 16.2 C 210.5 15 208.8 14.1 206.9 14.1 C 204.8 14.1 203.5 15.4 203.5 16.9 C 203.5 21 213.1 19.6 213.1 26.6 C 213.1 29.8 210.7 32.1 206.7 32.1 C 204 32.1 201.8 31.2 200.2 29.4 Z M 217.8 27.7 C 217.78 27.72 217.8 14.8 217.8 14.8 L 215.2 14.8 L 215.2 12.3 L 217.8 12.3 L 217.8 7 L 220.7 7 L 220.7 12.3 L 223.9 12.3 L 223.9 14.8 L 220.7 14.8 C 220.7 14.8 220.66 27.2 220.7 27.2 C 220.7 28.7 221.1 29.5 222.2 29.5 C 222.9 29.5 223.5 29.2 223.9 28.8 C 223.9 28.8 224.8 30.9 224.8 30.9 C 224.1 31.6 223.1 32.1 221.7 32.1 C 219 32.1 217.8 30.6 217.8 27.7 Z M 226.8 21.9 C 226.8 16.5 229.5 11.8 234.6 11.8 C 239.8 11.8 242.5 16.5 242.5 21.9 C 242.5 27.4 239.8 32.1 234.6 32.1 C 229.5 32.1 226.8 27.4 226.8 21.9 Z M 239.5 21.9 C 239.5 18 238 14.4 234.6 14.4 C 231.3 14.4 229.8 18 229.8 21.9 C 229.8 25.8 231.3 29.5 234.6 29.5 C 238 29.5 239.5 25.8 239.5 21.9 Z M 246.8 31.6 L 246.8 12.3 L 249.7 12.3 C 249.7 12.3 249.66 15.36 249.7 15.4 C 250.9 13.3 252.8 11.9 255.1 11.9 C 255.1 11.9 255.1 14.8 255.1 14.8 C 254.8 14.8 254.5 14.7 254.2 14.7 C 252.4 14.7 250.5 16.3 249.7 17.9 C 249.66 17.88 249.7 31.6 249.7 31.6 L 246.8 31.6 Z M 257.9 7.5 C 257.9 6.4 258.8 5.6 259.9 5.6 C 260.9 5.6 261.8 6.4 261.8 7.5 C 261.8 8.6 260.9 9.5 259.9 9.5 C 258.8 9.5 257.9 8.6 257.9 7.5 Z M 258.5 31.6 L 258.5 12.3 L 261.3 12.3 L 261.3 31.6 L 258.5 31.6 Z M 265.6 21.9 C 265.6 16.2 268.7 11.8 273.6 11.8 C 276.3 11.8 277.9 12.9 279.1 14.4 C 279.1 14.4 277.6 16.3 277.6 16.3 C 276.5 14.9 275.3 14.4 273.9 14.4 C 270.4 14.4 268.6 17.8 268.6 21.9 C 268.6 26 270.4 29.5 273.9 29.5 C 275.3 29.5 276.5 28.9 277.6 27.6 C 277.6 27.6 279.1 29.5 279.1 29.5 C 277.9 31 276.3 32.1 273.6 32.1 C 268.7 32.1 265.6 27.6 265.6 21.9 Z M 292.7 31.6 C 292.7 31.6 292.74 29.52 292.7 29.5 C 291.5 31.3 289.6 32.1 287.7 32.1 C 284.5 32.1 281.8 29.7 281.8 25.6 C 281.8 21.6 284.5 19.3 287.7 19.3 C 289.6 19.3 291.5 20 292.7 21.8 C 292.7 21.8 292.7 18.4 292.7 18.4 C 292.7 15.8 291.3 14.3 288.8 14.3 C 287 14.3 285.4 15 283.9 16.6 C 283.9 16.6 282.7 14.6 282.7 14.6 C 284.5 12.7 286.8 11.8 289.2 11.8 C 293.1 11.8 295.6 13.7 295.6 18.1 C 295.62 18.08 295.6 31.6 295.6 31.6 L 292.7 31.6 Z M 292.7 27.6 C 292.7 27.6 292.7 23.9 292.7 23.9 C 291.9 22.2 290.3 21.4 288.6 21.4 C 286.2 21.4 284.7 23.3 284.7 25.7 C 284.7 28.1 286.2 30 288.6 30 C 290.3 30 291.9 29.2 292.7 27.6 Z M 300.9 31.6 L 300.9 4.9 L 303.7 4.9 L 303.7 31.6 L 300.9 31.6 Z M 309 31.6 L 309 4.9 L 311.8 4.9 L 311.8 31.6 L 309 31.6 Z M 316.5 36.6 C 316.9 36.8 317.5 36.9 317.8 36.9 C 318.9 36.9 319.6 36.4 320.1 35 C 320.1 34.96 321.1 32 321.1 32 L 314.7 12.3 L 317.8 12.3 L 322.6 28.1 L 327.5 12.3 L 330.5 12.3 C 330.5 12.3 322.82 35.68 322.8 35.7 C 321.9 38.5 320.3 39.4 318 39.4 C 317.4 39.4 316.5 39.3 316.1 39.2 C 316.1 39.2 316.5 36.6 316.5 36.6 Z M 340.5 29.4 C 340.5 29.4 341.9 27.3 341.9 27.3 C 343 28.7 344.9 29.8 346.9 29.8 C 349.2 29.8 350.7 28.5 350.7 26.6 C 350.7 22.1 341 23.7 341 17 C 341 14.1 343.3 11.8 347.2 11.8 C 349.7 11.8 351.7 12.8 353.1 14.3 C 353.1 14.3 351.7 16.2 351.7 16.2 C 350.7 15 349.1 14.1 347.2 14.1 C 345.1 14.1 343.8 15.4 343.8 16.9 C 343.8 21 353.4 19.6 353.4 26.6 C 353.4 29.8 350.9 32.1 347 32.1 C 344.3 32.1 342.1 31.2 340.5 29.4 Z M 356.5 21.9 C 356.5 16.5 359.3 11.8 364.4 11.8 C 369.6 11.8 372.3 16.5 372.3 21.9 C 372.3 27.4 369.6 32.1 364.4 32.1 C 359.3 32.1 356.5 27.4 356.5 21.9 Z M 369.3 21.9 C 369.3 18 367.8 14.4 364.4 14.4 C 361.1 14.4 359.5 18 359.5 21.9 C 359.5 25.8 361.1 29.5 364.4 29.5 C 367.8 29.5 369.3 25.8 369.3 21.9 Z M 404.7 31.6 C 404.7 31.6 404.69 17.6 404.7 17.6 C 404.7 15.5 403.9 14.4 402 14.4 C 400.3 14.4 398.6 15.9 397.8 17.4 C 397.81 17.44 397.8 31.6 397.8 31.6 L 394.9 31.6 C 394.9 31.6 394.93 17.6 394.9 17.6 C 394.9 15.5 394.1 14.4 392.2 14.4 C 390.5 14.4 388.9 15.9 388 17.4 C 388.01 17.44 388 31.6 388 31.6 L 385.2 31.6 L 385.2 12.3 L 388 12.3 C 388 12.3 388.01 15.04 388 15 C 388.8 13.6 391 11.8 393.3 11.8 C 395.8 11.8 397.3 13.2 397.7 15.2 C 398.6 13.5 400.8 11.8 403.1 11.8 C 405.9 11.8 407.6 13.4 407.6 16.8 C 407.57 16.84 407.6 31.6 407.6 31.6 L 404.7 31.6 Z M 422.8 31.6 C 422.8 31.6 422.77 29.52 422.8 29.5 C 421.5 31.3 419.7 32.1 417.7 32.1 C 414.6 32.1 411.9 29.7 411.9 25.6 C 411.9 21.6 414.5 19.3 417.7 19.3 C 419.7 19.3 421.6 20 422.8 21.8 C 422.8 21.8 422.8 18.4 422.8 18.4 C 422.8 15.8 421.3 14.3 418.8 14.3 C 417 14.3 415.5 15 414 16.6 C 414 16.6 412.7 14.6 412.7 14.6 C 414.5 12.7 416.8 11.8 419.3 11.8 C 423.1 11.8 425.7 13.7 425.7 18.1 C 425.65 18.08 425.7 31.6 425.7 31.6 L 422.8 31.6 Z M 422.8 27.6 C 422.8 27.6 422.8 23.9 422.8 23.9 C 421.9 22.2 420.3 21.4 418.6 21.4 C 416.2 21.4 414.8 23.3 414.8 25.7 C 414.8 28.1 416.2 30 418.6 30 C 420.3 30 421.9 29.2 422.8 27.6 Z M 441.3 31.6 C 441.3 31.6 441.33 17.84 441.3 17.8 C 441.3 15.3 440.2 14.4 438.3 14.4 C 436.4 14.4 434.6 15.8 433.7 17.4 C 433.73 17.44 433.7 31.6 433.7 31.6 L 430.9 31.6 L 430.9 12.3 L 433.7 12.3 C 433.7 12.3 433.73 15.04 433.7 15 C 434.9 13.4 437 11.8 439.3 11.8 C 442.6 11.8 444.2 13.6 444.2 17 C 444.21 17.04 444.2 31.6 444.2 31.6 L 441.3 31.6 Z M 448.9 36.6 C 449.3 36.8 449.9 36.9 450.2 36.9 C 451.3 36.9 452 36.4 452.5 35 C 452.49 34.96 453.5 32 453.5 32 L 447.1 12.3 L 450.2 12.3 L 455 28.1 L 459.9 12.3 L 462.9 12.3 C 462.9 12.3 455.21 35.68 455.2 35.7 C 454.3 38.5 452.7 39.4 450.4 39.4 C 449.8 39.4 448.9 39.3 448.5 39.2 C 448.5 39.2 448.9 36.6 448.9 36.6 Z " stroke="none" fill="#b13d24"/>  </g></svg>