<?xml version="1.0" standalone="no"?><!DOCTYPE svg PUBLIC "-//W3C//DTD SVG 1.1//EN" "http://www.w3.org/Graphics/SVG/1.1/DTD/svg11.dtd"><svg xmlns="http://www.w3.org/2000/svg" version="1.1" width="274px" height="440.3px" viewBox="0 0 274 440.3">  <desc>Alcanivorase extract Calcium monotyclium Astaxanthin Cyclodecanolol Dimethyl sulfide 2,4-dibromophenol Dictyopterene</desc>  <defs/>  <g id="Polygon155468">    <path d="M 2.1 356.7 L 2.1 336.7 L 4.5 336.7 L 4.5 356.7 L 2.1 356.7 Z M 7.6 349.4 C 7.6 345.4 9.6 341.9 13.4 341.9 C 17.3 341.9 19.3 345.4 19.3 349.4 C 19.3 353.5 17.3 357.1 13.4 357.1 C 9.6 357.1 7.6 353.5 7.6 349.4 Z M 17.1 349.4 C 17.1 346.5 16 343.8 13.4 343.8 C 10.9 343.8 9.8 346.5 9.8 349.4 C 9.8 352.4 10.9 355.1 13.4 355.1 C 16 355.1 17.1 352.4 17.1 349.4 Z M 30.6 356.7 C 30.6 356.7 30.57 354.63 30.6 354.6 C 29.7 356.1 28.3 357.1 26.8 357.1 C 23.5 357.1 21.6 354 21.6 349.5 C 21.6 345 23.5 341.9 26.8 341.9 C 28.2 341.9 29.7 342.7 30.6 344.3 C 30.57 344.31 30.6 336.7 30.6 336.7 L 32.7 336.7 L 32.7 356.7 L 30.6 356.7 Z M 30.6 352.8 C 30.6 352.8 30.6 346.1 30.6 346.1 C 30 344.9 28.7 343.8 27.3 343.8 C 24.9 343.8 23.8 346.3 23.8 349.5 C 23.8 352.6 24.9 355.1 27.3 355.1 C 28.7 355.1 30 354.1 30.6 352.8 Z M 36 338.6 C 36 337.8 36.7 337.2 37.4 337.2 C 38.2 337.2 38.9 337.8 38.9 338.6 C 38.9 339.5 38.2 340.1 37.4 340.1 C 36.7 340.1 36 339.5 36 338.6 Z M 36.4 356.7 L 36.4 342.2 L 38.5 342.2 L 38.5 356.7 L 36.4 356.7 Z M 41 355 C 41 355 42.1 353.5 42.1 353.5 C 42.9 354.5 44.3 355.3 45.9 355.3 C 47.5 355.3 48.7 354.4 48.7 353 C 48.7 349.6 41.4 350.8 41.4 345.8 C 41.4 343.6 43.2 341.9 46 341.9 C 48 341.9 49.4 342.6 50.5 343.7 C 50.5 343.7 49.4 345.2 49.4 345.2 C 48.7 344.2 47.5 343.6 46.1 343.6 C 44.5 343.6 43.5 344.5 43.5 345.7 C 43.5 348.8 50.7 347.7 50.7 352.9 C 50.7 355.3 48.9 357.1 45.9 357.1 C 43.9 357.1 42.2 356.4 41 355 Z M 52.8 349.4 C 52.8 345.2 55 341.9 58.6 341.9 C 62.5 341.9 64.4 345.3 64.4 349.5 C 64.38 349.5 64.4 350.2 64.4 350.2 C 64.4 350.2 54.99 350.16 55 350.2 C 55.1 353.1 56.6 355.3 59.2 355.3 C 60.4 355.3 61.7 354.6 62.6 353.5 C 62.6 353.5 63.7 354.8 63.7 354.8 C 62.6 356.2 60.9 357.1 59 357.1 C 55.1 357.1 52.8 353.9 52.8 349.4 Z M 58.6 343.7 C 56.1 343.7 55 346.4 55 348.6 C 55 348.6 62.2 348.6 62.2 348.6 C 62.2 346.4 61.3 343.7 58.6 343.7 Z M 75.5 356.7 C 75.5 356.7 75.51 354.63 75.5 354.6 C 74.7 356.1 73.2 357.1 71.7 357.1 C 68.5 357.1 66.5 354 66.5 349.5 C 66.5 345 68.4 341.9 71.7 341.9 C 73.2 341.9 74.6 342.7 75.5 344.3 C 75.51 344.31 75.5 336.7 75.5 336.7 L 77.7 336.7 L 77.7 356.7 L 75.5 356.7 Z M 75.5 352.8 C 75.5 352.8 75.5 346.1 75.5 346.1 C 75 344.9 73.6 343.8 72.2 343.8 C 69.9 343.8 68.8 346.3 68.8 349.5 C 68.8 352.6 69.9 355.1 72.2 355.1 C 73.6 355.1 75 354.1 75.5 352.8 Z M 86.4 354.5 C 86.4 354.5 87.7 352.7 87.7 352.7 C 88.7 353.9 90.4 354.9 92.3 354.9 C 94.9 354.9 96 353.4 96 351.7 C 96 346.8 87 348.1 87 341.6 C 87 338.6 89.4 336.4 92.7 336.4 C 94.9 336.4 96.7 337.1 98 338.5 C 98 338.5 96.8 340.3 96.8 340.3 C 95.7 339.1 94.2 338.5 92.6 338.5 C 90.8 338.5 89.4 339.7 89.4 341.5 C 89.4 345.7 98.4 344.8 98.4 351.5 C 98.4 354.5 96.5 357.1 92.3 357.1 C 89.7 357.1 87.7 356.1 86.4 354.5 Z M 108.7 356.7 C 108.7 356.7 108.72 355.14 108.7 355.1 C 107.8 356.5 106.4 357.1 104.9 357.1 C 102.6 357.1 100.5 355.3 100.5 352.2 C 100.5 349.2 102.5 347.5 104.9 347.5 C 106.4 347.5 107.8 348 108.7 349.3 C 108.7 349.3 108.7 346.8 108.7 346.8 C 108.7 344.8 107.6 343.7 105.7 343.7 C 104.4 343.7 103.2 344.2 102.1 345.5 C 102.1 345.5 101.2 344 101.2 344 C 102.5 342.5 104.2 341.9 106.1 341.9 C 109 341.9 110.9 343.3 110.9 346.6 C 110.88 346.56 110.9 356.7 110.9 356.7 L 108.7 356.7 Z M 108.7 353.7 C 108.7 353.7 108.7 350.9 108.7 350.9 C 108.1 349.7 106.9 349.1 105.6 349.1 C 103.8 349.1 102.7 350.5 102.7 352.3 C 102.7 354.1 103.8 355.5 105.6 355.5 C 106.9 355.5 108.1 354.9 108.7 353.7 Z M 114.5 356.7 L 114.5 336.7 L 116.6 336.7 L 116.6 356.7 L 114.5 356.7 Z M 120.7 353.8 C 120.72 353.79 120.7 344.1 120.7 344.1 L 118.8 344.1 L 118.8 342.2 L 120.7 342.2 L 120.7 338.3 L 122.9 338.3 L 122.9 342.2 L 125.3 342.2 L 125.3 344.1 L 122.9 344.1 C 122.9 344.1 122.88 353.4 122.9 353.4 C 122.9 354.5 123.2 355.1 124 355.1 C 124.6 355.1 125 354.9 125.3 354.6 C 125.3 354.6 126 356.2 126 356.2 C 125.5 356.7 124.7 357.1 123.6 357.1 C 121.6 357.1 120.7 356 120.7 353.8 Z " stroke="none" fill="#d3d2d2"/>  </g>  <g id="Polygon155467">    <path d="M 2.1 320.7 L 2.1 300.7 L 12.4 300.7 L 12.4 302.8 L 4.5 302.8 L 4.5 309.4 L 12.2 309.4 L 12.2 311.5 L 4.5 311.5 L 4.5 318.6 L 12.4 318.6 L 12.4 320.7 L 2.1 320.7 Z M 14.8 313.4 C 14.8 309.2 17.1 305.9 20.8 305.9 C 22.8 305.9 24 306.7 24.9 307.8 C 24.9 307.8 23.8 309.2 23.8 309.2 C 23 308.2 22.1 307.8 21 307.8 C 18.4 307.8 17 310.4 17 313.4 C 17 316.5 18.4 319.1 21 319.1 C 22.1 319.1 23 318.7 23.8 317.7 C 23.8 317.7 24.9 319.1 24.9 319.1 C 24 320.3 22.8 321.1 20.8 321.1 C 17.1 321.1 14.8 317.7 14.8 313.4 Z M 27.8 317.8 C 27.81 317.79 27.8 308.1 27.8 308.1 L 25.9 308.1 L 25.9 306.2 L 27.8 306.2 L 27.8 302.3 L 30 302.3 L 30 306.2 L 32.4 306.2 L 32.4 308.1 L 30 308.1 C 30 308.1 29.97 317.4 30 317.4 C 30 318.5 30.3 319.1 31.1 319.1 C 31.7 319.1 32.1 318.9 32.4 318.6 C 32.4 318.6 33.1 320.2 33.1 320.2 C 32.5 320.7 31.8 321.1 30.7 321.1 C 28.7 321.1 27.8 320 27.8 317.8 Z M 34.3 313.4 C 34.3 309.4 36.3 305.9 40.1 305.9 C 44 305.9 46 309.4 46 313.4 C 46 317.5 44 321.1 40.1 321.1 C 36.3 321.1 34.3 317.5 34.3 313.4 Z M 43.8 313.4 C 43.8 310.5 42.7 307.8 40.1 307.8 C 37.6 307.8 36.5 310.5 36.5 313.4 C 36.5 316.4 37.6 319.1 40.1 319.1 C 42.7 319.1 43.8 316.4 43.8 313.4 Z M 48.3 313.4 C 48.3 309.2 50.5 305.9 54.3 305.9 C 56.3 305.9 57.5 306.7 58.4 307.8 C 58.4 307.8 57.2 309.2 57.2 309.2 C 56.5 308.2 55.6 307.8 54.4 307.8 C 51.9 307.8 50.5 310.4 50.5 313.4 C 50.5 316.5 51.9 319.1 54.4 319.1 C 55.6 319.1 56.5 318.7 57.2 317.7 C 57.2 317.7 58.4 319.1 58.4 319.1 C 57.5 320.3 56.3 321.1 54.3 321.1 C 50.5 321.1 48.3 317.7 48.3 313.4 Z M 68.3 320.7 C 68.3 320.7 68.31 319.14 68.3 319.1 C 67.4 320.5 66 321.1 64.5 321.1 C 62.2 321.1 60.1 319.3 60.1 316.2 C 60.1 313.2 62.1 311.5 64.5 311.5 C 66 311.5 67.4 312 68.3 313.3 C 68.3 313.3 68.3 310.8 68.3 310.8 C 68.3 308.8 67.2 307.7 65.3 307.7 C 64 307.7 62.8 308.2 61.7 309.5 C 61.7 309.5 60.7 308 60.7 308 C 62.1 306.5 63.8 305.9 65.7 305.9 C 68.5 305.9 70.5 307.3 70.5 310.6 C 70.47 310.56 70.5 320.7 70.5 320.7 L 68.3 320.7 Z M 68.3 317.7 C 68.3 317.7 68.3 314.9 68.3 314.9 C 67.6 313.7 66.4 313.1 65.2 313.1 C 63.4 313.1 62.3 314.5 62.3 316.3 C 62.3 318.1 63.4 319.5 65.2 319.5 C 66.4 319.5 67.6 318.9 68.3 317.7 Z M 74.1 320.7 L 74.1 306.2 L 76.2 306.2 C 76.2 306.2 76.23 308.52 76.2 308.5 C 77.2 307 78.6 305.9 80.3 305.9 C 80.3 305.9 80.3 308.1 80.3 308.1 C 80.1 308.1 79.9 308 79.6 308 C 78.3 308 76.8 309.2 76.2 310.4 C 76.23 310.41 76.2 320.7 76.2 320.7 L 74.1 320.7 Z M 84.7 318.6 C 84.66 318.6 84.7 326.2 84.7 326.2 L 82.5 326.2 L 82.5 306.2 L 84.7 306.2 C 84.7 306.2 84.66 308.28 84.7 308.3 C 85.5 306.8 86.9 305.9 88.5 305.9 C 91.7 305.9 93.7 308.9 93.7 313.4 C 93.7 318 91.7 321.1 88.5 321.1 C 87 321.1 85.6 320.2 84.7 318.6 Z M 91.4 313.4 C 91.4 310.3 90.3 307.8 87.9 307.8 C 86.6 307.8 85.2 308.9 84.7 310.1 C 84.7 310.1 84.7 316.7 84.7 316.7 C 85.2 318 86.6 319.1 87.9 319.1 C 90.3 319.1 91.4 316.6 91.4 313.4 Z M 95.8 313.4 C 95.8 309.2 98.1 305.9 101.7 305.9 C 105.5 305.9 107.5 309.3 107.5 313.5 C 107.46 313.5 107.5 314.2 107.5 314.2 C 107.5 314.2 98.07 314.16 98.1 314.2 C 98.2 317.1 99.7 319.3 102.2 319.3 C 103.5 319.3 104.8 318.6 105.7 317.5 C 105.7 317.5 106.8 318.8 106.8 318.8 C 105.7 320.2 104 321.1 102.1 321.1 C 98.2 321.1 95.8 317.9 95.8 313.4 Z M 101.7 307.7 C 99.1 307.7 98.1 310.4 98.1 312.6 C 98.1 312.6 105.3 312.6 105.3 312.6 C 105.3 310.4 104.3 307.7 101.7 307.7 Z M 118.1 320.7 C 118.1 320.7 118.14 310.38 118.1 310.4 C 118.1 308.5 117.3 307.8 115.8 307.8 C 114.4 307.8 113.1 308.9 112.4 310.1 C 112.44 310.08 112.4 320.7 112.4 320.7 L 110.3 320.7 L 110.3 306.2 L 112.4 306.2 C 112.4 306.2 112.44 308.28 112.4 308.3 C 113.3 307 114.9 305.9 116.6 305.9 C 119.1 305.9 120.3 307.2 120.3 309.8 C 120.3 309.78 120.3 320.7 120.3 320.7 L 118.1 320.7 Z M 123.2 313.4 C 123.2 309.2 125.5 305.9 129.1 305.9 C 132.9 305.9 134.8 309.3 134.8 313.5 C 134.85 313.5 134.8 314.2 134.8 314.2 C 134.8 314.2 125.46 314.16 125.5 314.2 C 125.5 317.1 127 319.3 129.6 319.3 C 130.9 319.3 132.2 318.6 133.1 317.5 C 133.1 317.5 134.2 318.8 134.2 318.8 C 133 320.2 131.4 321.1 129.4 321.1 C 125.6 321.1 123.2 317.9 123.2 313.4 Z M 129.1 307.7 C 126.5 307.7 125.5 310.4 125.5 312.6 C 125.5 312.6 132.7 312.6 132.7 312.6 C 132.7 310.4 131.7 307.7 129.1 307.7 Z " stroke="none" fill="#d3d2d2"/>  </g>  <g id="Polygon155466">    <path d="M 2.1 284.7 L 2.1 264.7 C 2.1 264.7 8.73 264.69 8.7 264.7 C 11.9 264.7 13.7 266.8 13.7 269.8 C 13.7 272.3 12.4 273.9 10.6 274.4 C 12.6 274.7 14 276.9 14 279.3 C 14 282.5 12.3 284.7 8.9 284.7 C 8.91 284.7 2.1 284.7 2.1 284.7 Z M 11.2 270.1 C 11.2 268.3 10.3 266.8 8.3 266.8 C 8.28 266.79 4.5 266.8 4.5 266.8 L 4.5 273.4 C 4.5 273.4 8.28 273.42 8.3 273.4 C 10.3 273.4 11.2 272 11.2 270.1 Z M 11.6 279.1 C 11.6 277.2 10.6 275.5 8.4 275.5 C 8.43 275.52 4.5 275.5 4.5 275.5 L 4.5 282.6 C 4.5 282.6 8.43 282.57 8.4 282.6 C 10.5 282.6 11.6 281.3 11.6 279.1 Z M 25 284.7 C 25 284.7 24.99 282.69 25 282.7 C 24.1 284 22.6 285.1 20.8 285.1 C 18.3 285.1 17.2 283.8 17.2 281.2 C 17.16 281.19 17.2 270.2 17.2 270.2 L 19.3 270.2 C 19.3 270.2 19.29 280.56 19.3 280.6 C 19.3 282.5 20.2 283.1 21.6 283.1 C 23 283.1 24.4 282.1 25 280.9 C 24.99 280.89 25 270.2 25 270.2 L 27.1 270.2 L 27.1 284.7 L 25 284.7 Z M 31.2 281.8 C 31.23 281.79 31.2 272.1 31.2 272.1 L 29.3 272.1 L 29.3 270.2 L 31.2 270.2 L 31.2 266.3 L 33.4 266.3 L 33.4 270.2 L 35.8 270.2 L 35.8 272.1 L 33.4 272.1 C 33.4 272.1 33.39 281.4 33.4 281.4 C 33.4 282.5 33.7 283.1 34.6 283.1 C 35.1 283.1 35.5 282.9 35.8 282.6 C 35.8 282.6 36.5 284.2 36.5 284.2 C 36 284.7 35.2 285.1 34.1 285.1 C 32.2 285.1 31.2 284 31.2 281.8 Z M 38 288.5 C 38.2 288.6 38.7 288.7 38.9 288.7 C 39.8 288.7 40.3 288.3 40.6 287.2 C 40.65 287.22 41.4 285 41.4 285 L 36.6 270.2 L 38.9 270.2 L 42.5 282.1 L 46.2 270.2 L 48.5 270.2 C 48.5 270.2 42.69 287.76 42.7 287.8 C 42 289.9 40.8 290.6 39.1 290.6 C 38.6 290.6 38 290.5 37.6 290.4 C 37.6 290.4 38 288.5 38 288.5 Z M 50.3 284.7 L 50.3 264.7 L 52.5 264.7 L 52.5 284.7 L 50.3 284.7 Z M 55.4 277.4 C 55.4 273.2 57.7 269.9 61.4 269.9 C 63.4 269.9 64.6 270.7 65.5 271.8 C 65.5 271.8 64.4 273.2 64.4 273.2 C 63.6 272.2 62.7 271.8 61.6 271.8 C 59 271.8 57.7 274.4 57.7 277.4 C 57.7 280.5 59 283.1 61.6 283.1 C 62.7 283.1 63.6 282.7 64.4 281.7 C 64.4 281.7 65.5 283.1 65.5 283.1 C 64.6 284.3 63.4 285.1 61.4 285.1 C 57.7 285.1 55.4 281.7 55.4 277.4 Z M 67.6 288.5 C 67.9 288.6 68.3 288.7 68.5 288.7 C 69.4 288.7 69.9 288.3 70.3 287.2 C 70.26 287.22 71 285 71 285 L 66.2 270.2 L 68.5 270.2 L 72.1 282.1 L 75.8 270.2 L 78.1 270.2 C 78.1 270.2 72.3 287.76 72.3 287.8 C 71.6 289.9 70.4 290.6 68.7 290.6 C 68.2 290.6 67.6 290.5 67.3 290.4 C 67.3 290.4 67.6 288.5 67.6 288.5 Z M 79.2 277.4 C 79.2 273.2 81.5 269.9 85.2 269.9 C 87.2 269.9 88.5 270.7 89.4 271.8 C 89.4 271.8 88.2 273.2 88.2 273.2 C 87.4 272.2 86.5 271.8 85.4 271.8 C 82.8 271.8 81.5 274.4 81.5 277.4 C 81.5 280.5 82.8 283.1 85.4 283.1 C 86.5 283.1 87.4 282.7 88.2 281.7 C 88.2 281.7 89.4 283.1 89.4 283.1 C 88.5 284.3 87.2 285.1 85.2 285.1 C 81.5 285.1 79.2 281.7 79.2 277.4 Z M 91.8 284.7 L 91.8 264.7 L 94 264.7 L 94 284.7 L 91.8 284.7 Z M 96.9 277.4 C 96.9 273.4 98.9 269.9 102.8 269.9 C 106.7 269.9 108.7 273.4 108.7 277.4 C 108.7 281.5 106.7 285.1 102.8 285.1 C 98.9 285.1 96.9 281.5 96.9 277.4 Z M 106.4 277.4 C 106.4 274.5 105.3 271.8 102.8 271.8 C 100.3 271.8 99.1 274.5 99.1 277.4 C 99.1 280.4 100.3 283.1 102.8 283.1 C 105.3 283.1 106.4 280.4 106.4 277.4 Z M 119.5 284.7 C 119.5 284.7 119.49 274.35 119.5 274.4 C 119.5 272.4 118.6 271.8 117.1 271.8 C 115.7 271.8 114.4 272.9 113.8 274.1 C 113.76 274.08 113.8 284.7 113.8 284.7 L 111.6 284.7 L 111.6 264.7 L 113.8 264.7 C 113.8 264.7 113.76 272.28 113.8 272.3 C 114.6 271 116.2 269.9 118 269.9 C 120.4 269.9 121.6 271.1 121.6 273.7 C 121.62 273.72 121.6 284.7 121.6 284.7 L 119.5 284.7 Z M 124.6 277.4 C 124.6 273.2 126.8 269.9 130.4 269.9 C 134.2 269.9 136.2 273.3 136.2 277.5 C 136.17 277.5 136.2 278.2 136.2 278.2 C 136.2 278.2 126.78 278.16 126.8 278.2 C 126.9 281.1 128.4 283.3 130.9 283.3 C 132.2 283.3 133.5 282.6 134.4 281.5 C 134.4 281.5 135.5 282.8 135.5 282.8 C 134.4 284.2 132.7 285.1 130.8 285.1 C 126.9 285.1 124.6 281.9 124.6 277.4 Z M 130.4 271.7 C 127.9 271.7 126.8 274.4 126.8 276.6 C 126.8 276.6 134 276.6 134 276.6 C 134 274.4 133 271.7 130.4 271.7 Z M 141.1 282.6 C 141.15 282.6 141.1 290.2 141.1 290.2 L 139 290.2 L 139 270.2 L 141.1 270.2 C 141.1 270.2 141.15 272.28 141.1 272.3 C 142 270.8 143.4 269.9 145 269.9 C 148.2 269.9 150.1 272.9 150.1 277.4 C 150.1 282 148.2 285.1 145 285.1 C 143.5 285.1 142 284.2 141.1 282.6 Z M 147.9 277.4 C 147.9 274.3 146.8 271.8 144.4 271.8 C 143.1 271.8 141.7 272.9 141.1 274.1 C 141.1 274.1 141.1 280.7 141.1 280.7 C 141.7 282 143.1 283.1 144.4 283.1 C 146.8 283.1 147.9 280.6 147.9 277.4 Z M 153.5 281.8 C 153.48 281.79 153.5 272.1 153.5 272.1 L 151.6 272.1 L 151.6 270.2 L 153.5 270.2 L 153.5 266.3 L 155.6 266.3 L 155.6 270.2 L 158.1 270.2 L 158.1 272.1 L 155.6 272.1 C 155.6 272.1 155.64 281.4 155.6 281.4 C 155.6 282.5 156 283.1 156.8 283.1 C 157.3 283.1 157.8 282.9 158.1 282.6 C 158.1 282.6 158.7 284.2 158.7 284.2 C 158.2 284.7 157.5 285.1 156.4 285.1 C 154.4 285.1 153.5 284 153.5 281.8 Z M 168.1 284.7 C 168.1 284.7 168.09 283.14 168.1 283.1 C 167.2 284.5 165.7 285.1 164.3 285.1 C 161.9 285.1 159.9 283.3 159.9 280.2 C 159.9 277.2 161.9 275.5 164.3 275.5 C 165.7 275.5 167.2 276 168.1 277.3 C 168.1 277.3 168.1 274.8 168.1 274.8 C 168.1 272.8 167 271.7 165.1 271.7 C 163.8 271.7 162.6 272.2 161.5 273.5 C 161.5 273.5 160.5 272 160.5 272 C 161.9 270.5 163.6 269.9 165.4 269.9 C 168.3 269.9 170.2 271.3 170.2 274.6 C 170.25 274.56 170.2 284.7 170.2 284.7 L 168.1 284.7 Z M 168.1 281.7 C 168.1 281.7 168.1 278.9 168.1 278.9 C 167.4 277.7 166.2 277.1 165 277.1 C 163.2 277.1 162.1 278.5 162.1 280.3 C 162.1 282.1 163.2 283.5 165 283.5 C 166.2 283.5 167.4 282.9 168.1 281.7 Z M 182.2 284.7 C 182.2 284.7 182.16 282.63 182.2 282.6 C 181.3 284.1 179.9 285.1 178.3 285.1 C 175.1 285.1 173.2 282 173.2 277.5 C 173.2 273 175.1 269.9 178.3 269.9 C 179.8 269.9 181.3 270.7 182.2 272.3 C 182.16 272.31 182.2 264.7 182.2 264.7 L 184.3 264.7 L 184.3 284.7 L 182.2 284.7 Z M 182.2 280.8 C 182.2 280.8 182.2 274.1 182.2 274.1 C 181.6 272.9 180.3 271.8 178.9 271.8 C 176.5 271.8 175.4 274.3 175.4 277.5 C 175.4 280.6 176.5 283.1 178.9 283.1 C 180.3 283.1 181.6 282.1 182.2 280.8 Z M 187.6 266.6 C 187.6 265.8 188.2 265.2 189 265.2 C 189.8 265.2 190.5 265.8 190.5 266.6 C 190.5 267.5 189.8 268.1 189 268.1 C 188.2 268.1 187.6 267.5 187.6 266.6 Z M 188 284.7 L 188 270.2 L 190.1 270.2 L 190.1 284.7 L 188 284.7 Z M 193 277.4 C 193 273.2 195.3 269.9 198.9 269.9 C 202.7 269.9 204.7 273.3 204.7 277.5 C 204.66 277.5 204.7 278.2 204.7 278.2 C 204.7 278.2 195.27 278.16 195.3 278.2 C 195.4 281.1 196.9 283.3 199.4 283.3 C 200.7 283.3 202 282.6 202.9 281.5 C 202.9 281.5 204 282.8 204 282.8 C 202.9 284.2 201.2 285.1 199.3 285.1 C 195.4 285.1 193 281.9 193 277.4 Z M 198.9 271.7 C 196.3 271.7 195.3 274.4 195.3 276.6 C 195.3 276.6 202.5 276.6 202.5 276.6 C 202.5 274.4 201.5 271.7 198.9 271.7 Z M 215.3 284.7 C 215.3 284.7 215.33 274.38 215.3 274.4 C 215.3 272.5 214.5 271.8 213 271.8 C 211.6 271.8 210.3 272.9 209.6 274.1 C 209.63 274.08 209.6 284.7 209.6 284.7 L 207.5 284.7 L 207.5 270.2 L 209.6 270.2 C 209.6 270.2 209.63 272.28 209.6 272.3 C 210.5 271 212.1 269.9 213.8 269.9 C 216.3 269.9 217.5 271.2 217.5 273.8 C 217.49 273.78 217.5 284.7 217.5 284.7 L 215.3 284.7 Z M 220.4 277.4 C 220.4 273.2 222.7 269.9 226.3 269.9 C 230.1 269.9 232 273.3 232 277.5 C 232.04 277.5 232 278.2 232 278.2 C 232 278.2 222.65 278.16 222.7 278.2 C 222.7 281.1 224.2 283.3 226.8 283.3 C 228.1 283.3 229.4 282.6 230.3 281.5 C 230.3 281.5 231.4 282.8 231.4 282.8 C 230.2 284.2 228.6 285.1 226.6 285.1 C 222.8 285.1 220.4 281.9 220.4 277.4 Z M 226.3 271.7 C 223.7 271.7 222.7 274.4 222.7 276.6 C 222.7 276.6 229.9 276.6 229.9 276.6 C 229.9 274.4 228.9 271.7 226.3 271.7 Z " stroke="none" fill="#d3d2d2"/>  </g>  <g id="Polygon155465">    <path d="M 2.1 248.7 L 2.1 228.7 C 2.1 228.7 7.44 228.69 7.4 228.7 C 12.6 228.7 15.5 233 15.5 238.7 C 15.5 244.5 12.6 248.7 7.4 248.7 C 7.44 248.7 2.1 248.7 2.1 248.7 Z M 13 238.7 C 13 234.2 11.2 230.8 7.4 230.8 C 7.44 230.79 4.5 230.8 4.5 230.8 L 4.5 246.6 C 4.5 246.6 7.44 246.57 7.4 246.6 C 11.1 246.6 13 243.2 13 238.7 Z M 18.2 230.6 C 18.2 229.8 18.9 229.2 19.6 229.2 C 20.5 229.2 21.1 229.8 21.1 230.6 C 21.1 231.5 20.5 232.1 19.6 232.1 C 18.9 232.1 18.2 231.5 18.2 230.6 Z M 18.6 248.7 L 18.6 234.2 L 20.7 234.2 L 20.7 248.7 L 18.6 248.7 Z M 23.7 241.4 C 23.7 237.2 25.9 233.9 29.7 233.9 C 31.7 233.9 32.9 234.7 33.8 235.8 C 33.8 235.8 32.6 237.2 32.6 237.2 C 31.9 236.2 31 235.8 29.8 235.8 C 27.3 235.8 25.9 238.4 25.9 241.4 C 25.9 244.5 27.3 247.1 29.8 247.1 C 31 247.1 31.9 246.7 32.6 245.7 C 32.6 245.7 33.8 247.1 33.8 247.1 C 32.9 248.3 31.7 249.1 29.7 249.1 C 25.9 249.1 23.7 245.7 23.7 241.4 Z M 36.7 245.8 C 36.69 245.79 36.7 236.1 36.7 236.1 L 34.8 236.1 L 34.8 234.2 L 36.7 234.2 L 36.7 230.3 L 38.8 230.3 L 38.8 234.2 L 41.3 234.2 L 41.3 236.1 L 38.8 236.1 C 38.8 236.1 38.85 245.4 38.8 245.4 C 38.8 246.5 39.2 247.1 40 247.1 C 40.6 247.1 41 246.9 41.3 246.6 C 41.3 246.6 41.9 248.2 41.9 248.2 C 41.4 248.7 40.7 249.1 39.6 249.1 C 37.6 249.1 36.7 248 36.7 245.8 Z M 43.4 252.5 C 43.7 252.6 44.2 252.7 44.4 252.7 C 45.2 252.7 45.7 252.3 46.1 251.2 C 46.11 251.22 46.9 249 46.9 249 L 42.1 234.2 L 44.4 234.2 L 48 246.1 L 51.6 234.2 L 53.9 234.2 C 53.9 234.2 48.15 251.76 48.1 251.8 C 47.4 253.9 46.3 254.6 44.5 254.6 C 44.1 254.6 43.4 254.5 43.1 254.4 C 43.1 254.4 43.4 252.5 43.4 252.5 Z M 55.1 241.4 C 55.1 237.4 57.1 233.9 61 233.9 C 64.9 233.9 66.9 237.4 66.9 241.4 C 66.9 245.5 64.9 249.1 61 249.1 C 57.1 249.1 55.1 245.5 55.1 241.4 Z M 64.6 241.4 C 64.6 238.5 63.5 235.8 61 235.8 C 58.5 235.8 57.3 238.5 57.3 241.4 C 57.3 244.4 58.5 247.1 61 247.1 C 63.5 247.1 64.6 244.4 64.6 241.4 Z M 71.9 246.6 C 71.94 246.6 71.9 254.2 71.9 254.2 L 69.8 254.2 L 69.8 234.2 L 71.9 234.2 C 71.9 234.2 71.94 236.28 71.9 236.3 C 72.8 234.8 74.2 233.9 75.7 233.9 C 79 233.9 80.9 236.9 80.9 241.4 C 80.9 246 79 249.1 75.7 249.1 C 74.3 249.1 72.8 248.2 71.9 246.6 Z M 78.7 241.4 C 78.7 238.3 77.6 235.8 75.2 235.8 C 73.9 235.8 72.5 236.9 71.9 238.1 C 71.9 238.1 71.9 244.7 71.9 244.7 C 72.5 246 73.9 247.1 75.2 247.1 C 77.6 247.1 78.7 244.6 78.7 241.4 Z M 84.3 245.8 C 84.27 245.79 84.3 236.1 84.3 236.1 L 82.3 236.1 L 82.3 234.2 L 84.3 234.2 L 84.3 230.3 L 86.4 230.3 L 86.4 234.2 L 88.9 234.2 L 88.9 236.1 L 86.4 236.1 C 86.4 236.1 86.43 245.4 86.4 245.4 C 86.4 246.5 86.8 247.1 87.6 247.1 C 88.1 247.1 88.6 246.9 88.9 246.6 C 88.9 246.6 89.5 248.2 89.5 248.2 C 89 248.7 88.3 249.1 87.2 249.1 C 85.2 249.1 84.3 248 84.3 245.8 Z M 90.7 241.4 C 90.7 237.2 92.9 233.9 96.6 233.9 C 100.4 233.9 102.3 237.3 102.3 241.5 C 102.33 241.5 102.3 242.2 102.3 242.2 C 102.3 242.2 92.94 242.16 92.9 242.2 C 93 245.1 94.5 247.3 97.1 247.3 C 98.4 247.3 99.7 246.6 100.6 245.5 C 100.6 245.5 101.7 246.8 101.7 246.8 C 100.5 248.2 98.9 249.1 96.9 249.1 C 93.1 249.1 90.7 245.9 90.7 241.4 Z M 96.6 235.7 C 94 235.7 93 238.4 92.9 240.6 C 92.9 240.6 100.2 240.6 100.2 240.6 C 100.2 238.4 99.2 235.7 96.6 235.7 Z M 105.2 248.7 L 105.2 234.2 L 107.3 234.2 C 107.3 234.2 107.31 236.52 107.3 236.5 C 108.2 235 109.6 233.9 111.4 233.9 C 111.4 233.9 111.4 236.1 111.4 236.1 C 111.2 236.1 110.9 236 110.7 236 C 109.4 236 107.9 237.2 107.3 238.4 C 107.31 238.41 107.3 248.7 107.3 248.7 L 105.2 248.7 Z M 112.9 241.4 C 112.9 237.2 115.1 233.9 118.8 233.9 C 122.6 233.9 124.5 237.3 124.5 241.5 C 124.5 241.5 124.5 242.2 124.5 242.2 C 124.5 242.2 115.11 242.16 115.1 242.2 C 115.2 245.1 116.7 247.3 119.3 247.3 C 120.5 247.3 121.8 246.6 122.7 245.5 C 122.7 245.5 123.9 246.8 123.9 246.8 C 122.7 248.2 121 249.1 119.1 249.1 C 115.2 249.1 112.9 245.9 112.9 241.4 Z M 118.7 235.7 C 116.2 235.7 115.2 238.4 115.1 240.6 C 115.1 240.6 122.4 240.6 122.4 240.6 C 122.3 238.4 121.4 235.7 118.7 235.7 Z M 135.2 248.7 C 135.2 248.7 135.18 238.38 135.2 238.4 C 135.2 236.5 134.3 235.8 132.9 235.8 C 131.5 235.8 130.1 236.9 129.5 238.1 C 129.48 238.08 129.5 248.7 129.5 248.7 L 127.3 248.7 L 127.3 234.2 L 129.5 234.2 C 129.5 234.2 129.48 236.28 129.5 236.3 C 130.3 235 131.9 233.9 133.7 233.9 C 136.1 233.9 137.3 235.2 137.3 237.8 C 137.34 237.78 137.3 248.7 137.3 248.7 L 135.2 248.7 Z M 140.3 241.4 C 140.3 237.2 142.5 233.9 146.2 233.9 C 150 233.9 151.9 237.3 151.9 241.5 C 151.89 241.5 151.9 242.2 151.9 242.2 C 151.9 242.2 142.5 242.16 142.5 242.2 C 142.6 245.1 144.1 247.3 146.7 247.3 C 147.9 247.3 149.2 246.6 150.1 245.5 C 150.1 245.5 151.3 246.8 151.3 246.8 C 150.1 248.2 148.4 249.1 146.5 249.1 C 142.6 249.1 140.3 245.9 140.3 241.4 Z M 146.1 235.7 C 143.6 235.7 142.6 238.4 142.5 240.6 C 142.5 240.6 149.8 240.6 149.8 240.6 C 149.7 238.4 148.8 235.7 146.1 235.7 Z " stroke="none" fill="#d3d2d2"/>  </g>  <g id="Polygon155464">    <path d="M 1.6 212.7 C 1.6 212.7 1.59 210.75 1.6 210.8 C 8.1 203.2 10.4 200.8 10.4 197.9 C 10.4 195.7 8.9 194.5 7.2 194.5 C 5.3 194.5 3.9 195.5 2.9 197 C 2.9 197 1.4 195.6 1.4 195.6 C 2.7 193.6 4.7 192.4 7.2 192.4 C 10.3 192.4 12.8 194.4 12.8 197.9 C 12.8 201.2 10.3 204.2 5 210.6 C 4.98 210.57 12.9 210.6 12.9 210.6 L 12.9 212.7 L 1.6 212.7 Z M 17.2 216.5 C 17.2 216.5 16.1 215.6 16.1 215.6 C 17 215 17.9 213.8 18 212.8 C 17.9 212.8 17.7 212.9 17.6 212.9 C 16.8 212.9 16.2 212.2 16.2 211.4 C 16.2 210.5 16.9 209.8 17.8 209.8 C 18.7 209.8 19.6 210.6 19.6 212 C 19.6 213.8 18.5 215.5 17.2 216.5 Z M 29.5 212.7 L 29.5 207.6 L 21.6 207.6 L 21.6 205.5 L 28.8 192.7 L 31.9 192.7 L 31.9 205.5 L 34.1 205.5 L 34.1 207.6 L 31.9 207.6 L 31.9 212.7 L 29.5 212.7 Z M 29.5 195.3 L 23.8 205.5 L 29.5 205.5 L 29.5 195.3 Z M 35.4 206.4 L 35.4 204.5 L 41.6 204.5 L 41.6 206.4 L 35.4 206.4 Z M 52.4 212.7 C 52.4 212.7 52.44 210.63 52.4 210.6 C 51.6 212.1 50.2 213.1 48.6 213.1 C 45.4 213.1 43.4 210 43.4 205.5 C 43.4 201 45.4 197.9 48.6 197.9 C 50.1 197.9 51.6 198.7 52.4 200.3 C 52.44 200.31 52.4 192.7 52.4 192.7 L 54.6 192.7 L 54.6 212.7 L 52.4 212.7 Z M 52.4 208.8 C 52.4 208.8 52.4 202.1 52.4 202.1 C 51.9 200.9 50.5 199.8 49.2 199.8 C 46.8 199.8 45.7 202.3 45.7 205.5 C 45.7 208.6 46.8 211.1 49.2 211.1 C 50.5 211.1 51.9 210.1 52.4 208.8 Z M 57.8 194.6 C 57.8 193.8 58.5 193.2 59.3 193.2 C 60.1 193.2 60.8 193.8 60.8 194.6 C 60.8 195.5 60.1 196.1 59.3 196.1 C 58.5 196.1 57.8 195.5 57.8 194.6 Z M 58.3 212.7 L 58.3 198.2 L 60.4 198.2 L 60.4 212.7 L 58.3 212.7 Z M 69.4 211.1 C 71.8 211.1 72.9 208.6 72.9 205.5 C 72.9 202.3 71.8 199.8 69.4 199.8 C 68.1 199.8 66.7 200.9 66.2 202.2 C 66.2 202.2 66.2 208.8 66.2 208.8 C 66.7 210.1 68.1 211.1 69.4 211.1 Z M 64 212.7 L 64 192.7 L 66.2 192.7 C 66.2 192.7 66.18 200.31 66.2 200.3 C 67.1 198.7 68.5 197.9 70 197.9 C 73.3 197.9 75.2 201 75.2 205.5 C 75.2 210 73.3 213.1 70 213.1 C 68.5 213.1 67 212.1 66.2 210.6 C 66.18 210.63 66.2 212.7 66.2 212.7 L 64 212.7 Z M 78.1 212.7 L 78.1 198.2 L 80.3 198.2 C 80.3 198.2 80.28 200.52 80.3 200.5 C 81.2 199 82.6 197.9 84.4 197.9 C 84.4 197.9 84.4 200.1 84.4 200.1 C 84.1 200.1 83.9 200 83.7 200 C 82.3 200 80.9 201.2 80.3 202.4 C 80.28 202.41 80.3 212.7 80.3 212.7 L 78.1 212.7 Z M 85.9 205.4 C 85.9 201.4 87.9 197.9 91.7 197.9 C 95.6 197.9 97.6 201.4 97.6 205.4 C 97.6 209.5 95.6 213.1 91.7 213.1 C 87.9 213.1 85.9 209.5 85.9 205.4 Z M 95.4 205.4 C 95.4 202.5 94.3 199.8 91.7 199.8 C 89.2 199.8 88.1 202.5 88.1 205.4 C 88.1 208.4 89.2 211.1 91.7 211.1 C 94.3 211.1 95.4 208.4 95.4 205.4 Z M 115.2 212.7 C 115.2 212.7 115.23 202.2 115.2 202.2 C 115.2 200.6 114.6 199.8 113.2 199.8 C 111.9 199.8 110.6 200.9 110.1 202.1 C 110.07 202.08 110.1 212.7 110.1 212.7 L 107.9 212.7 C 107.9 212.7 107.91 202.2 107.9 202.2 C 107.9 200.6 107.3 199.8 105.9 199.8 C 104.6 199.8 103.3 200.9 102.7 202.1 C 102.72 202.08 102.7 212.7 102.7 212.7 L 100.6 212.7 L 100.6 198.2 L 102.7 198.2 C 102.7 198.2 102.72 200.28 102.7 200.3 C 103.3 199.2 104.9 197.9 106.7 197.9 C 108.5 197.9 109.7 198.9 109.9 200.4 C 110.7 199.1 112.3 197.9 114 197.9 C 116.2 197.9 117.4 199 117.4 201.6 C 117.39 201.63 117.4 212.7 117.4 212.7 L 115.2 212.7 Z M 120.3 205.4 C 120.3 201.4 122.4 197.9 126.2 197.9 C 130.1 197.9 132.1 201.4 132.1 205.4 C 132.1 209.5 130.1 213.1 126.2 213.1 C 122.4 213.1 120.3 209.5 120.3 205.4 Z M 129.9 205.4 C 129.9 202.5 128.8 199.8 126.2 199.8 C 123.7 199.8 122.6 202.5 122.6 205.4 C 122.6 208.4 123.7 211.1 126.2 211.1 C 128.8 211.1 129.9 208.4 129.9 205.4 Z M 137.2 210.6 C 137.19 210.6 137.2 218.2 137.2 218.2 L 135.1 218.2 L 135.1 198.2 L 137.2 198.2 C 137.2 198.2 137.19 200.28 137.2 200.3 C 138 198.8 139.5 197.9 141 197.9 C 144.3 197.9 146.2 200.9 146.2 205.4 C 146.2 210 144.3 213.1 141 213.1 C 139.5 213.1 138.1 212.2 137.2 210.6 Z M 143.9 205.4 C 143.9 202.3 142.8 199.8 140.5 199.8 C 139.1 199.8 137.8 200.9 137.2 202.1 C 137.2 202.1 137.2 208.7 137.2 208.7 C 137.8 210 139.1 211.1 140.5 211.1 C 142.8 211.1 143.9 208.6 143.9 205.4 Z M 157 212.7 C 157 212.7 156.96 202.35 157 202.4 C 157 200.4 156.1 199.8 154.6 199.8 C 153.2 199.8 151.9 200.9 151.2 202.1 C 151.23 202.08 151.2 212.7 151.2 212.7 L 149.1 212.7 L 149.1 192.7 L 151.2 192.7 C 151.2 192.7 151.23 200.28 151.2 200.3 C 152.1 199 153.7 197.9 155.5 197.9 C 157.9 197.9 159.1 199.1 159.1 201.7 C 159.09 201.72 159.1 212.7 159.1 212.7 L 157 212.7 Z M 162 205.4 C 162 201.2 164.2 197.9 167.9 197.9 C 171.7 197.9 173.6 201.3 173.6 205.5 C 173.64 205.5 173.6 206.2 173.6 206.2 C 173.6 206.2 164.25 206.16 164.2 206.2 C 164.3 209.1 165.8 211.3 168.4 211.3 C 169.7 211.3 171 210.6 171.9 209.5 C 171.9 209.5 173 210.8 173 210.8 C 171.8 212.2 170.2 213.1 168.2 213.1 C 164.4 213.1 162 209.9 162 205.4 Z M 167.9 199.7 C 165.3 199.7 164.3 202.4 164.2 204.6 C 164.2 204.6 171.5 204.6 171.5 204.6 C 171.5 202.4 170.5 199.7 167.9 199.7 Z M 184.3 212.7 C 184.3 212.7 184.32 202.38 184.3 202.4 C 184.3 200.5 183.4 199.8 182 199.8 C 180.6 199.8 179.3 200.9 178.6 202.1 C 178.62 202.08 178.6 212.7 178.6 212.7 L 176.5 212.7 L 176.5 198.2 L 178.6 198.2 C 178.6 198.2 178.62 200.28 178.6 200.3 C 179.5 199 181.1 197.9 182.8 197.9 C 185.3 197.9 186.5 199.2 186.5 201.8 C 186.48 201.78 186.5 212.7 186.5 212.7 L 184.3 212.7 Z M 189.4 205.4 C 189.4 201.4 191.5 197.9 195.3 197.9 C 199.2 197.9 201.2 201.4 201.2 205.4 C 201.2 209.5 199.2 213.1 195.3 213.1 C 191.5 213.1 189.4 209.5 189.4 205.4 Z M 199 205.4 C 199 202.5 197.8 199.8 195.3 199.8 C 192.8 199.8 191.7 202.5 191.7 205.4 C 191.7 208.4 192.8 211.1 195.3 211.1 C 197.8 211.1 199 208.4 199 205.4 Z M 204.1 212.7 L 204.1 192.7 L 206.3 192.7 L 206.3 212.7 L 204.1 212.7 Z " stroke="none" fill="#d3d2d2"/>  </g>  <g id="Polygon155463">    <path d="M 2.1 176.7 L 2.1 156.7 C 2.1 156.7 7.44 156.69 7.4 156.7 C 12.6 156.7 15.5 161 15.5 166.7 C 15.5 172.5 12.6 176.7 7.4 176.7 C 7.44 176.7 2.1 176.7 2.1 176.7 Z M 13 166.7 C 13 162.2 11.2 158.8 7.4 158.8 C 7.44 158.79 4.5 158.8 4.5 158.8 L 4.5 174.6 C 4.5 174.6 7.44 174.57 7.4 174.6 C 11.1 174.6 13 171.2 13 166.7 Z M 18.2 158.6 C 18.2 157.8 18.9 157.2 19.6 157.2 C 20.5 157.2 21.1 157.8 21.1 158.6 C 21.1 159.5 20.5 160.1 19.6 160.1 C 18.9 160.1 18.2 159.5 18.2 158.6 Z M 18.6 176.7 L 18.6 162.2 L 20.7 162.2 L 20.7 176.7 L 18.6 176.7 Z M 39 176.7 C 39 176.7 39.03 166.2 39 166.2 C 39 164.6 38.4 163.8 37 163.8 C 35.7 163.8 34.4 164.9 33.9 166.1 C 33.87 166.08 33.9 176.7 33.9 176.7 L 31.7 176.7 C 31.7 176.7 31.71 166.2 31.7 166.2 C 31.7 164.6 31.1 163.8 29.7 163.8 C 28.4 163.8 27.1 164.9 26.5 166.1 C 26.52 166.08 26.5 176.7 26.5 176.7 L 24.4 176.7 L 24.4 162.2 L 26.5 162.2 C 26.5 162.2 26.52 164.28 26.5 164.3 C 27.1 163.2 28.7 161.9 30.5 161.9 C 32.3 161.9 33.5 162.9 33.7 164.4 C 34.5 163.1 36.1 161.9 37.8 161.9 C 40 161.9 41.2 163 41.2 165.6 C 41.19 165.63 41.2 176.7 41.2 176.7 L 39 176.7 Z M 44.1 169.4 C 44.1 165.2 46.3 161.9 50 161.9 C 53.8 161.9 55.7 165.3 55.7 169.5 C 55.74 169.5 55.7 170.2 55.7 170.2 C 55.7 170.2 46.35 170.16 46.3 170.2 C 46.4 173.1 47.9 175.3 50.5 175.3 C 51.8 175.3 53.1 174.6 54 173.5 C 54 173.5 55.1 174.8 55.1 174.8 C 53.9 176.2 52.3 177.1 50.3 177.1 C 46.5 177.1 44.1 173.9 44.1 169.4 Z M 50 163.7 C 47.4 163.7 46.4 166.4 46.3 168.6 C 46.3 168.6 53.6 168.6 53.6 168.6 C 53.6 166.4 52.6 163.7 50 163.7 Z M 59 173.8 C 59.01 173.79 59 164.1 59 164.1 L 57.1 164.1 L 57.1 162.2 L 59 162.2 L 59 158.3 L 61.2 158.3 L 61.2 162.2 L 63.6 162.2 L 63.6 164.1 L 61.2 164.1 C 61.2 164.1 61.17 173.4 61.2 173.4 C 61.2 174.5 61.5 175.1 62.3 175.1 C 62.9 175.1 63.3 174.9 63.6 174.6 C 63.6 174.6 64.3 176.2 64.3 176.2 C 63.7 176.7 63 177.1 61.9 177.1 C 59.9 177.1 59 176 59 173.8 Z M 74 176.7 C 74 176.7 74.04 166.35 74 166.4 C 74 164.4 73.1 163.8 71.7 163.8 C 70.3 163.8 69 164.9 68.3 166.1 C 68.31 166.08 68.3 176.7 68.3 176.7 L 66.2 176.7 L 66.2 156.7 L 68.3 156.7 C 68.3 156.7 68.31 164.28 68.3 164.3 C 69.1 163 70.8 161.9 72.5 161.9 C 75 161.9 76.2 163.1 76.2 165.7 C 76.17 165.72 76.2 176.7 76.2 176.7 L 74 176.7 Z M 79.4 180.5 C 79.7 180.6 80.1 180.7 80.4 180.7 C 81.2 180.7 81.7 180.3 82.1 179.2 C 82.08 179.22 82.9 177 82.9 177 L 78 162.2 L 80.4 162.2 L 84 174.1 L 87.6 162.2 L 89.9 162.2 C 89.9 162.2 84.12 179.76 84.1 179.8 C 83.4 181.9 82.2 182.6 80.5 182.6 C 80.1 182.6 79.4 182.5 79.1 182.4 C 79.1 182.4 79.4 180.5 79.4 180.5 Z M 91.8 176.7 L 91.8 156.7 L 93.9 156.7 L 93.9 176.7 L 91.8 176.7 Z M 102.5 175 C 102.5 175 103.6 173.5 103.6 173.5 C 104.5 174.5 105.8 175.3 107.4 175.3 C 109.1 175.3 110.2 174.4 110.2 173 C 110.2 169.6 103 170.8 103 165.8 C 103 163.6 104.7 161.9 107.6 161.9 C 109.5 161.9 111 162.6 112 163.7 C 112 163.7 111 165.2 111 165.2 C 110.2 164.2 109 163.6 107.6 163.6 C 106 163.6 105 164.5 105 165.7 C 105 168.8 112.3 167.7 112.3 172.9 C 112.3 175.3 110.4 177.1 107.4 177.1 C 105.4 177.1 103.7 176.4 102.5 175 Z M 122.8 176.7 C 122.8 176.7 122.85 174.69 122.8 174.7 C 122 176 120.4 177.1 118.6 177.1 C 116.2 177.1 115 175.8 115 173.2 C 115.02 173.19 115 162.2 115 162.2 L 117.1 162.2 C 117.1 162.2 117.15 172.56 117.1 172.6 C 117.1 174.5 118 175.1 119.5 175.1 C 120.9 175.1 122.2 174.1 122.8 172.9 C 122.85 172.89 122.8 162.2 122.8 162.2 L 125 162.2 L 125 176.7 L 122.8 176.7 Z M 128.7 176.7 L 128.7 156.7 L 130.8 156.7 L 130.8 176.7 L 128.7 176.7 Z M 135 176.7 L 135 164.1 L 133 164.1 L 133 162.2 L 135 162.2 C 135 162.2 134.97 160.44 135 160.4 C 135 157.9 136.4 156.4 138.5 156.4 C 139.3 156.4 139.9 156.5 140.4 156.8 C 140.4 156.8 139.8 158.5 139.8 158.5 C 139.6 158.3 139.3 158.2 138.9 158.2 C 137.8 158.2 137.1 159 137.1 160.4 C 137.13 160.44 137.1 162.2 137.1 162.2 L 139.6 162.2 L 139.6 164.1 L 137.1 164.1 L 137.1 176.7 L 135 176.7 Z M 141.7 158.6 C 141.7 157.8 142.3 157.2 143.1 157.2 C 143.9 157.2 144.6 157.8 144.6 158.6 C 144.6 159.5 143.9 160.1 143.1 160.1 C 142.3 160.1 141.7 159.5 141.7 158.6 Z M 142.1 176.7 L 142.1 162.2 L 144.2 162.2 L 144.2 176.7 L 142.1 176.7 Z M 156.1 176.7 C 156.1 176.7 156.15 174.63 156.1 174.6 C 155.3 176.1 153.9 177.1 152.3 177.1 C 149.1 177.1 147.1 174 147.1 169.5 C 147.1 165 149.1 161.9 152.3 161.9 C 153.8 161.9 155.3 162.7 156.1 164.3 C 156.15 164.31 156.1 156.7 156.1 156.7 L 158.3 156.7 L 158.3 176.7 L 156.1 176.7 Z M 156.1 172.8 C 156.1 172.8 156.1 166.1 156.1 166.1 C 155.6 164.9 154.3 163.8 152.9 163.8 C 150.5 163.8 149.4 166.3 149.4 169.5 C 149.4 172.6 150.5 175.1 152.9 175.1 C 154.3 175.1 155.6 174.1 156.1 172.8 Z M 161.2 169.4 C 161.2 165.2 163.5 161.9 167.1 161.9 C 170.9 161.9 172.9 165.3 172.9 169.5 C 172.86 169.5 172.9 170.2 172.9 170.2 C 172.9 170.2 163.47 170.16 163.5 170.2 C 163.6 173.1 165.1 175.3 167.6 175.3 C 168.9 175.3 170.2 174.6 171.1 173.5 C 171.1 173.5 172.2 174.8 172.2 174.8 C 171.1 176.2 169.4 177.1 167.5 177.1 C 163.6 177.1 161.2 173.9 161.2 169.4 Z M 167.1 163.7 C 164.5 163.7 163.5 166.4 163.5 168.6 C 163.5 168.6 170.7 168.6 170.7 168.6 C 170.7 166.4 169.7 163.7 167.1 163.7 Z " stroke="none" fill="#d3d2d2"/>  </g>  <g id="Polygon155462">    <path d="M 1.4 130.7 C 1.4 124.7 4.4 120.4 9.2 120.4 C 12.2 120.4 13.9 122.2 15 124.3 C 15 124.3 13 125.2 13 125.2 C 12.2 123.6 10.9 122.5 9.2 122.5 C 5.9 122.5 3.9 126 3.9 130.7 C 3.9 135.5 5.9 138.9 9.2 138.9 C 11 138.9 12.3 137.7 13.1 136 C 13.1 136 15.1 136.9 15.1 136.9 C 14 139.1 12.3 141.1 9.2 141.1 C 4.4 141.1 1.4 136.7 1.4 130.7 Z M 17 144.5 C 17.3 144.6 17.7 144.7 18 144.7 C 18.8 144.7 19.3 144.3 19.7 143.2 C 19.68 143.22 20.5 141 20.5 141 L 15.6 126.2 L 18 126.2 L 21.6 138.1 L 25.2 126.2 L 27.5 126.2 C 27.5 126.2 21.72 143.76 21.7 143.8 C 21 145.9 19.8 146.6 18.1 146.6 C 17.7 146.6 17 146.5 16.7 146.4 C 16.7 146.4 17 144.5 17 144.5 Z M 28.6 133.4 C 28.6 129.2 30.9 125.9 34.6 125.9 C 36.7 125.9 37.9 126.7 38.8 127.8 C 38.8 127.8 37.6 129.2 37.6 129.2 C 36.8 128.2 35.9 127.8 34.8 127.8 C 32.2 127.8 30.9 130.4 30.9 133.4 C 30.9 136.5 32.2 139.1 34.8 139.1 C 35.9 139.1 36.8 138.7 37.6 137.7 C 37.6 137.7 38.8 139.1 38.8 139.1 C 37.9 140.3 36.7 141.1 34.6 141.1 C 30.9 141.1 28.6 137.7 28.6 133.4 Z M 41.2 140.7 L 41.2 120.7 L 43.4 120.7 L 43.4 140.7 L 41.2 140.7 Z M 46.3 133.4 C 46.3 129.4 48.4 125.9 52.2 125.9 C 56.1 125.9 58.1 129.4 58.1 133.4 C 58.1 137.5 56.1 141.1 52.2 141.1 C 48.4 141.1 46.3 137.5 46.3 133.4 Z M 55.9 133.4 C 55.9 130.5 54.7 127.8 52.2 127.8 C 49.7 127.8 48.6 130.5 48.6 133.4 C 48.6 136.4 49.7 139.1 52.2 139.1 C 54.7 139.1 55.9 136.4 55.9 133.4 Z M 69.3 140.7 C 69.3 140.7 69.33 138.63 69.3 138.6 C 68.5 140.1 67 141.1 65.5 141.1 C 62.3 141.1 60.3 138 60.3 133.5 C 60.3 129 62.2 125.9 65.5 125.9 C 67 125.9 68.5 126.7 69.3 128.3 C 69.33 128.31 69.3 120.7 69.3 120.7 L 71.5 120.7 L 71.5 140.7 L 69.3 140.7 Z M 69.3 136.8 C 69.3 136.8 69.3 130.1 69.3 130.1 C 68.8 128.9 67.4 127.8 66.1 127.8 C 63.7 127.8 62.6 130.3 62.6 133.5 C 62.6 136.6 63.7 139.1 66.1 139.1 C 67.4 139.1 68.8 138.1 69.3 136.8 Z M 74.4 133.4 C 74.4 129.2 76.6 125.9 80.3 125.9 C 84.1 125.9 86 129.3 86 133.5 C 86.04 133.5 86 134.2 86 134.2 C 86 134.2 76.65 134.16 76.6 134.2 C 76.7 137.1 78.2 139.3 80.8 139.3 C 82.1 139.3 83.4 138.6 84.3 137.5 C 84.3 137.5 85.4 138.8 85.4 138.8 C 84.2 140.2 82.6 141.1 80.6 141.1 C 76.8 141.1 74.4 137.9 74.4 133.4 Z M 80.3 127.7 C 77.7 127.7 76.7 130.4 76.6 132.6 C 76.6 132.6 83.9 132.6 83.9 132.6 C 83.9 130.4 82.9 127.7 80.3 127.7 Z M 88.2 133.4 C 88.2 129.2 90.4 125.9 94.2 125.9 C 96.2 125.9 97.4 126.7 98.3 127.8 C 98.3 127.8 97.1 129.2 97.1 129.2 C 96.4 128.2 95.5 127.8 94.3 127.8 C 91.8 127.8 90.4 130.4 90.4 133.4 C 90.4 136.5 91.8 139.1 94.3 139.1 C 95.5 139.1 96.4 138.7 97.1 137.7 C 97.1 137.7 98.3 139.1 98.3 139.1 C 97.4 140.3 96.2 141.1 94.2 141.1 C 90.4 141.1 88.2 137.7 88.2 133.4 Z M 108.2 140.7 C 108.2 140.7 108.21 139.14 108.2 139.1 C 107.3 140.5 105.9 141.1 104.4 141.1 C 102.1 141.1 100 139.3 100 136.2 C 100 133.2 102 131.5 104.4 131.5 C 105.9 131.5 107.3 132 108.2 133.3 C 108.2 133.3 108.2 130.8 108.2 130.8 C 108.2 128.8 107.1 127.7 105.2 127.7 C 103.9 127.7 102.7 128.2 101.6 129.5 C 101.6 129.5 100.6 128 100.6 128 C 102 126.5 103.7 125.9 105.6 125.9 C 108.4 125.9 110.4 127.3 110.4 130.6 C 110.37 130.56 110.4 140.7 110.4 140.7 L 108.2 140.7 Z M 108.2 137.7 C 108.2 137.7 108.2 134.9 108.2 134.9 C 107.5 133.7 106.3 133.1 105.1 133.1 C 103.3 133.1 102.2 134.5 102.2 136.3 C 102.2 138.1 103.3 139.5 105.1 139.5 C 106.3 139.5 107.5 138.9 108.2 137.7 Z M 121.8 140.7 C 121.8 140.7 121.83 130.38 121.8 130.4 C 121.8 128.5 121 127.8 119.5 127.8 C 118.1 127.8 116.8 128.9 116.1 130.1 C 116.13 130.08 116.1 140.7 116.1 140.7 L 114 140.7 L 114 126.2 L 116.1 126.2 C 116.1 126.2 116.13 128.28 116.1 128.3 C 117 127 118.6 125.9 120.3 125.9 C 122.8 125.9 124 127.2 124 129.8 C 123.99 129.78 124 140.7 124 140.7 L 121.8 140.7 Z M 126.9 133.4 C 126.9 129.4 129 125.9 132.8 125.9 C 136.7 125.9 138.7 129.4 138.7 133.4 C 138.7 137.5 136.7 141.1 132.8 141.1 C 129 141.1 126.9 137.5 126.9 133.4 Z M 136.5 133.4 C 136.5 130.5 135.4 127.8 132.8 127.8 C 130.3 127.8 129.2 130.5 129.2 133.4 C 129.2 136.4 130.3 139.1 132.8 139.1 C 135.4 139.1 136.5 136.4 136.5 133.4 Z M 141.7 140.7 L 141.7 120.7 L 143.8 120.7 L 143.8 140.7 L 141.7 140.7 Z M 146.7 133.4 C 146.7 129.4 148.8 125.9 152.6 125.9 C 156.5 125.9 158.5 129.4 158.5 133.4 C 158.5 137.5 156.5 141.1 152.6 141.1 C 148.8 141.1 146.7 137.5 146.7 133.4 Z M 156.3 133.4 C 156.3 130.5 155.2 127.8 152.6 127.8 C 150.1 127.8 149 130.5 149 133.4 C 149 136.4 150.1 139.1 152.6 139.1 C 155.2 139.1 156.3 136.4 156.3 133.4 Z M 161.5 140.7 L 161.5 120.7 L 163.6 120.7 L 163.6 140.7 L 161.5 140.7 Z " stroke="none" fill="#d3d2d2"/>  </g>  <g id="Polygon155461">    <path d="M 12.5 104.7 L 11.2 100.2 L 4.1 100.2 L 2.8 104.7 L 0.2 104.7 L 6.2 84.7 L 9.1 84.7 L 15.1 104.7 L 12.5 104.7 Z M 7.6 87.3 L 4.6 98.1 L 10.7 98.1 L 7.6 87.3 Z M 15.8 103 C 15.8 103 16.9 101.5 16.9 101.5 C 17.8 102.5 19.1 103.3 20.7 103.3 C 22.4 103.3 23.5 102.4 23.5 101 C 23.5 97.6 16.3 98.8 16.3 93.8 C 16.3 91.6 18 89.9 20.9 89.9 C 22.8 89.9 24.3 90.6 25.3 91.7 C 25.3 91.7 24.3 93.2 24.3 93.2 C 23.5 92.2 22.3 91.6 20.9 91.6 C 19.3 91.6 18.3 92.5 18.3 93.7 C 18.3 96.8 25.6 95.7 25.6 100.9 C 25.6 103.3 23.7 105.1 20.7 105.1 C 18.7 105.1 17 104.4 15.8 103 Z M 28.7 101.8 C 28.74 101.79 28.7 92.1 28.7 92.1 L 26.8 92.1 L 26.8 90.2 L 28.7 90.2 L 28.7 86.3 L 30.9 86.3 L 30.9 90.2 L 33.4 90.2 L 33.4 92.1 L 30.9 92.1 C 30.9 92.1 30.9 101.4 30.9 101.4 C 30.9 102.5 31.2 103.1 32.1 103.1 C 32.6 103.1 33.1 102.9 33.3 102.6 C 33.3 102.6 34 104.2 34 104.2 C 33.5 104.7 32.8 105.1 31.6 105.1 C 29.7 105.1 28.7 104 28.7 101.8 Z M 43.3 104.7 C 43.3 104.7 43.35 103.14 43.3 103.1 C 42.4 104.5 41 105.1 39.5 105.1 C 37.2 105.1 35.2 103.3 35.2 100.2 C 35.2 97.2 37.2 95.5 39.5 95.5 C 41 95.5 42.4 96 43.3 97.3 C 43.3 97.3 43.3 94.8 43.3 94.8 C 43.3 92.8 42.3 91.7 40.4 91.7 C 39 91.7 37.9 92.2 36.7 93.5 C 36.7 93.5 35.8 92 35.8 92 C 37.2 90.5 38.9 89.9 40.7 89.9 C 43.6 89.9 45.5 91.3 45.5 94.6 C 45.51 94.56 45.5 104.7 45.5 104.7 L 43.3 104.7 Z M 43.3 101.7 C 43.3 101.7 43.3 98.9 43.3 98.9 C 42.7 97.7 41.5 97.1 40.2 97.1 C 38.4 97.1 37.3 98.5 37.3 100.3 C 37.3 102.1 38.4 103.5 40.2 103.5 C 41.5 103.5 42.7 102.9 43.3 101.7 Z M 56.6 104.7 L 53.2 98.9 L 49.9 104.7 L 47.5 104.7 L 51.9 97.3 L 47.8 90.2 L 50.2 90.2 L 53.2 95.7 L 56.3 90.2 L 58.7 90.2 L 54.6 97.3 L 59 104.7 L 56.6 104.7 Z M 68.5 104.7 C 68.5 104.7 68.46 103.14 68.5 103.1 C 67.5 104.5 66.1 105.1 64.6 105.1 C 62.3 105.1 60.3 103.3 60.3 100.2 C 60.3 97.2 62.3 95.5 64.6 95.5 C 66.1 95.5 67.6 96 68.5 97.3 C 68.5 97.3 68.5 94.8 68.5 94.8 C 68.5 92.8 67.4 91.7 65.5 91.7 C 64.1 91.7 63 92.2 61.9 93.5 C 61.9 93.5 60.9 92 60.9 92 C 62.3 90.5 64 89.9 65.8 89.9 C 68.7 89.9 70.6 91.3 70.6 94.6 C 70.62 94.56 70.6 104.7 70.6 104.7 L 68.5 104.7 Z M 68.5 101.7 C 68.5 101.7 68.5 98.9 68.5 98.9 C 67.8 97.7 66.6 97.1 65.3 97.1 C 63.5 97.1 62.5 98.5 62.5 100.3 C 62.5 102.1 63.5 103.5 65.3 103.5 C 66.6 103.5 67.8 102.9 68.5 101.7 Z M 82.1 104.7 C 82.1 104.7 82.08 94.38 82.1 94.4 C 82.1 92.5 81.2 91.8 79.8 91.8 C 78.4 91.8 77 92.9 76.4 94.1 C 76.38 94.08 76.4 104.7 76.4 104.7 L 74.2 104.7 L 74.2 90.2 L 76.4 90.2 C 76.4 90.2 76.38 92.28 76.4 92.3 C 77.2 91 78.8 89.9 80.6 89.9 C 83 89.9 84.2 91.2 84.2 93.8 C 84.24 93.78 84.2 104.7 84.2 104.7 L 82.1 104.7 Z M 88.3 101.8 C 88.32 101.79 88.3 92.1 88.3 92.1 L 86.4 92.1 L 86.4 90.2 L 88.3 90.2 L 88.3 86.3 L 90.5 86.3 L 90.5 90.2 L 92.9 90.2 L 92.9 92.1 L 90.5 92.1 C 90.5 92.1 90.48 101.4 90.5 101.4 C 90.5 102.5 90.8 103.1 91.6 103.1 C 92.2 103.1 92.6 102.9 92.9 102.6 C 92.9 102.6 93.6 104.2 93.6 104.2 C 93.1 104.7 92.3 105.1 91.2 105.1 C 89.2 105.1 88.3 104 88.3 101.8 Z M 103.3 104.7 C 103.3 104.7 103.35 94.35 103.3 94.4 C 103.3 92.4 102.4 91.8 101 91.8 C 99.6 91.8 98.3 92.9 97.6 94.1 C 97.62 94.08 97.6 104.7 97.6 104.7 L 95.5 104.7 L 95.5 84.7 L 97.6 84.7 C 97.6 84.7 97.62 92.28 97.6 92.3 C 98.5 91 100.1 89.9 101.8 89.9 C 104.3 89.9 105.5 91.1 105.5 93.7 C 105.48 93.72 105.5 104.7 105.5 104.7 L 103.3 104.7 Z M 108.7 86.6 C 108.7 85.8 109.4 85.2 110.2 85.2 C 111 85.2 111.7 85.8 111.7 86.6 C 111.7 87.5 111 88.1 110.2 88.1 C 109.4 88.1 108.7 87.5 108.7 86.6 Z M 109.1 104.7 L 109.1 90.2 L 111.3 90.2 L 111.3 104.7 L 109.1 104.7 Z M 122.8 104.7 C 122.8 104.7 122.76 94.38 122.8 94.4 C 122.8 92.5 121.9 91.8 120.4 91.8 C 119 91.8 117.7 92.9 117.1 94.1 C 117.06 94.08 117.1 104.7 117.1 104.7 L 114.9 104.7 L 114.9 90.2 L 117.1 90.2 C 117.1 90.2 117.06 92.28 117.1 92.3 C 117.9 91 119.5 89.9 121.3 89.9 C 123.7 89.9 124.9 91.2 124.9 93.8 C 124.92 93.78 124.9 104.7 124.9 104.7 L 122.8 104.7 Z " stroke="none" fill="#d3d2d2"/>  </g>  <g id="Polygon155460">    <path d="M 1.4 58.7 C 1.4 52.7 4.4 48.4 9.2 48.4 C 12.2 48.4 13.9 50.2 15 52.3 C 15 52.3 13 53.2 13 53.2 C 12.2 51.6 10.9 50.5 9.2 50.5 C 5.9 50.5 3.9 54 3.9 58.7 C 3.9 63.5 5.9 66.9 9.2 66.9 C 11 66.9 12.3 65.7 13.1 64 C 13.1 64 15.1 64.9 15.1 64.9 C 14 67.1 12.3 69.1 9.2 69.1 C 4.4 69.1 1.4 64.7 1.4 58.7 Z M 25.1 68.7 C 25.1 68.7 25.11 67.14 25.1 67.1 C 24.2 68.5 22.8 69.1 21.3 69.1 C 19 69.1 16.9 67.3 16.9 64.2 C 16.9 61.2 18.9 59.5 21.3 59.5 C 22.8 59.5 24.2 60 25.1 61.3 C 25.1 61.3 25.1 58.8 25.1 58.8 C 25.1 56.8 24 55.7 22.1 55.7 C 20.8 55.7 19.6 56.2 18.5 57.5 C 18.5 57.5 17.5 56 17.5 56 C 18.9 54.5 20.6 53.9 22.5 53.9 C 25.3 53.9 27.3 55.3 27.3 58.6 C 27.27 58.56 27.3 68.7 27.3 68.7 L 25.1 68.7 Z M 25.1 65.7 C 25.1 65.7 25.1 62.9 25.1 62.9 C 24.4 61.7 23.2 61.1 22 61.1 C 20.2 61.1 19.1 62.5 19.1 64.3 C 19.1 66.1 20.2 67.5 22 67.5 C 23.2 67.5 24.4 66.9 25.1 65.7 Z M 30.9 68.7 L 30.9 48.7 L 33 48.7 L 33 68.7 L 30.9 68.7 Z M 36 61.4 C 36 57.2 38.2 53.9 42 53.9 C 44 53.9 45.2 54.7 46.1 55.8 C 46.1 55.8 44.9 57.2 44.9 57.2 C 44.2 56.2 43.3 55.8 42.1 55.8 C 39.6 55.8 38.2 58.4 38.2 61.4 C 38.2 64.5 39.6 67.1 42.1 67.1 C 43.3 67.1 44.2 66.7 44.9 65.7 C 44.9 65.7 46.1 67.1 46.1 67.1 C 45.2 68.3 44 69.1 42 69.1 C 38.2 69.1 36 65.7 36 61.4 Z M 48.1 50.6 C 48.1 49.8 48.8 49.2 49.6 49.2 C 50.4 49.2 51.1 49.8 51.1 50.6 C 51.1 51.5 50.4 52.1 49.6 52.1 C 48.8 52.1 48.1 51.5 48.1 50.6 Z M 48.6 68.7 L 48.6 54.2 L 50.7 54.2 L 50.7 68.7 L 48.6 68.7 Z M 62.2 68.7 C 62.2 68.7 62.19 66.69 62.2 66.7 C 61.3 68 59.8 69.1 58 69.1 C 55.5 69.1 54.4 67.8 54.4 65.2 C 54.36 65.19 54.4 54.2 54.4 54.2 L 56.5 54.2 C 56.5 54.2 56.49 64.56 56.5 64.6 C 56.5 66.5 57.4 67.1 58.8 67.1 C 60.2 67.1 61.6 66.1 62.2 64.9 C 62.19 64.89 62.2 54.2 62.2 54.2 L 64.3 54.2 L 64.3 68.7 L 62.2 68.7 Z M 82.6 68.7 C 82.6 68.7 82.65 58.2 82.6 58.2 C 82.6 56.6 82 55.8 80.6 55.8 C 79.3 55.8 78.1 56.9 77.5 58.1 C 77.49 58.08 77.5 68.7 77.5 68.7 L 75.3 68.7 C 75.3 68.7 75.33 58.2 75.3 58.2 C 75.3 56.6 74.7 55.8 73.3 55.8 C 72 55.8 70.8 56.9 70.1 58.1 C 70.14 58.08 70.1 68.7 70.1 68.7 L 68 68.7 L 68 54.2 L 70.1 54.2 C 70.1 54.2 70.14 56.28 70.1 56.3 C 70.7 55.2 72.4 53.9 74.1 53.9 C 76 53.9 77.1 54.9 77.4 56.4 C 78.1 55.1 79.7 53.9 81.4 53.9 C 83.6 53.9 84.8 55 84.8 57.6 C 84.81 57.63 84.8 68.7 84.8 68.7 L 82.6 68.7 Z M 109.3 68.7 C 109.3 68.7 109.26 58.2 109.3 58.2 C 109.3 56.6 108.6 55.8 107.2 55.8 C 106 55.8 104.7 56.9 104.1 58.1 C 104.1 58.08 104.1 68.7 104.1 68.7 L 101.9 68.7 C 101.9 68.7 101.94 58.2 101.9 58.2 C 101.9 56.6 101.3 55.8 99.9 55.8 C 98.6 55.8 97.4 56.9 96.7 58.1 C 96.75 58.08 96.7 68.7 96.7 68.7 L 94.6 68.7 L 94.6 54.2 L 96.7 54.2 C 96.7 54.2 96.75 56.28 96.7 56.3 C 97.3 55.2 99 53.9 100.7 53.9 C 102.6 53.9 103.7 54.9 104 56.4 C 104.7 55.1 106.3 53.9 108.1 53.9 C 110.2 53.9 111.4 55 111.4 57.6 C 111.42 57.63 111.4 68.7 111.4 68.7 L 109.3 68.7 Z M 114.4 61.4 C 114.4 57.4 116.4 53.9 120.2 53.9 C 124.1 53.9 126.1 57.4 126.1 61.4 C 126.1 65.5 124.1 69.1 120.2 69.1 C 116.4 69.1 114.4 65.5 114.4 61.4 Z M 123.9 61.4 C 123.9 58.5 122.8 55.8 120.2 55.8 C 117.7 55.8 116.6 58.5 116.6 61.4 C 116.6 64.4 117.7 67.1 120.2 67.1 C 122.8 67.1 123.9 64.4 123.9 61.4 Z M 136.9 68.7 C 136.9 68.7 136.92 58.38 136.9 58.4 C 136.9 56.5 136 55.8 134.6 55.8 C 133.2 55.8 131.9 56.9 131.2 58.1 C 131.22 58.08 131.2 68.7 131.2 68.7 L 129.1 68.7 L 129.1 54.2 L 131.2 54.2 C 131.2 54.2 131.22 56.28 131.2 56.3 C 132.1 55 133.7 53.9 135.4 53.9 C 137.9 53.9 139.1 55.2 139.1 57.8 C 139.08 57.78 139.1 68.7 139.1 68.7 L 136.9 68.7 Z M 142 61.4 C 142 57.4 144.1 53.9 147.9 53.9 C 151.8 53.9 153.8 57.4 153.8 61.4 C 153.8 65.5 151.8 69.1 147.9 69.1 C 144.1 69.1 142 65.5 142 61.4 Z M 151.6 61.4 C 151.6 58.5 150.4 55.8 147.9 55.8 C 145.4 55.8 144.3 58.5 144.3 61.4 C 144.3 64.4 145.4 67.1 147.9 67.1 C 150.4 67.1 151.6 64.4 151.6 61.4 Z M 157.2 65.8 C 157.17 65.79 157.2 56.1 157.2 56.1 L 155.2 56.1 L 155.2 54.2 L 157.2 54.2 L 157.2 50.3 L 159.3 50.3 L 159.3 54.2 L 161.8 54.2 L 161.8 56.1 L 159.3 56.1 C 159.3 56.1 159.33 65.4 159.3 65.4 C 159.3 66.5 159.7 67.1 160.5 67.1 C 161 67.1 161.5 66.9 161.8 66.6 C 161.8 66.6 162.4 68.2 162.4 68.2 C 161.9 68.7 161.2 69.1 160.1 69.1 C 158.1 69.1 157.2 68 157.2 65.8 Z M 163.9 72.5 C 164.2 72.6 164.6 72.7 164.9 72.7 C 165.7 72.7 166.2 72.3 166.6 71.2 C 166.59 71.22 167.4 69 167.4 69 L 162.5 54.2 L 164.9 54.2 L 168.5 66.1 L 172.1 54.2 L 174.4 54.2 C 174.4 54.2 168.63 71.76 168.6 71.8 C 167.9 73.9 166.7 74.6 165 74.6 C 164.6 74.6 163.9 74.5 163.6 74.4 C 163.6 74.4 163.9 72.5 163.9 72.5 Z M 175.6 61.4 C 175.6 57.2 177.8 53.9 181.6 53.9 C 183.6 53.9 184.8 54.7 185.7 55.8 C 185.7 55.8 184.5 57.2 184.5 57.2 C 183.7 56.2 182.8 55.8 181.7 55.8 C 179.2 55.8 177.8 58.4 177.8 61.4 C 177.8 64.5 179.2 67.1 181.7 67.1 C 182.8 67.1 183.7 66.7 184.5 65.7 C 184.5 65.7 185.7 67.1 185.7 67.1 C 184.8 68.3 183.6 69.1 181.6 69.1 C 177.8 69.1 175.6 65.7 175.6 61.4 Z M 188.2 68.7 L 188.2 48.7 L 190.3 48.7 L 190.3 68.7 L 188.2 68.7 Z M 193.5 50.6 C 193.5 49.8 194.2 49.2 195 49.2 C 195.8 49.2 196.5 49.8 196.5 50.6 C 196.5 51.5 195.8 52.1 195 52.1 C 194.2 52.1 193.5 51.5 193.5 50.6 Z M 193.9 68.7 L 193.9 54.2 L 196.1 54.2 L 196.1 68.7 L 193.9 68.7 Z M 207.6 68.7 C 207.6 68.7 207.56 66.69 207.6 66.7 C 206.7 68 205.2 69.1 203.4 69.1 C 200.9 69.1 199.7 67.8 199.7 65.2 C 199.73 65.19 199.7 54.2 199.7 54.2 L 201.9 54.2 C 201.9 54.2 201.86 64.56 201.9 64.6 C 201.9 66.5 202.8 67.1 204.2 67.1 C 205.6 67.1 206.9 66.1 207.6 64.9 C 207.56 64.89 207.6 54.2 207.6 54.2 L 209.7 54.2 L 209.7 68.7 L 207.6 68.7 Z M 228 68.7 C 228 68.7 228.02 58.2 228 58.2 C 228 56.6 227.4 55.8 226 55.8 C 224.7 55.8 223.4 56.9 222.9 58.1 C 222.86 58.08 222.9 68.7 222.9 68.7 L 220.7 68.7 C 220.7 68.7 220.7 58.2 220.7 58.2 C 220.7 56.6 220.1 55.8 218.7 55.8 C 217.4 55.8 216.1 56.9 215.5 58.1 C 215.51 58.08 215.5 68.7 215.5 68.7 L 213.4 68.7 L 213.4 54.2 L 215.5 54.2 C 215.5 54.2 215.51 56.28 215.5 56.3 C 216.1 55.2 217.7 53.9 219.5 53.9 C 221.3 53.9 222.5 54.9 222.7 56.4 C 223.5 55.1 225.1 53.9 226.8 53.9 C 229 53.9 230.2 55 230.2 57.6 C 230.18 57.63 230.2 68.7 230.2 68.7 L 228 68.7 Z " stroke="none" fill="#d3d2d2"/>  </g>  <g id="Polygon155459">    <path d="M 12.5 32.7 L 11.2 28.2 L 4.1 28.2 L 2.8 32.7 L 0.2 32.7 L 6.2 12.7 L 9.1 12.7 L 15.1 32.7 L 12.5 32.7 Z M 7.6 15.3 L 4.6 26.1 L 10.7 26.1 L 7.6 15.3 Z M 17.3 32.7 L 17.3 12.7 L 19.4 12.7 L 19.4 32.7 L 17.3 32.7 Z M 22.7 25.4 C 22.7 21.2 25 17.9 28.7 17.9 C 30.7 17.9 31.9 18.7 32.8 19.8 C 32.8 19.8 31.6 21.2 31.6 21.2 C 30.9 20.2 30 19.8 28.9 19.8 C 26.3 19.8 24.9 22.4 24.9 25.4 C 24.9 28.5 26.3 31.1 28.9 31.1 C 30 31.1 30.9 30.7 31.6 29.7 C 31.6 29.7 32.8 31.1 32.8 31.1 C 31.9 32.3 30.7 33.1 28.7 33.1 C 25 33.1 22.7 29.7 22.7 25.4 Z M 43 32.7 C 43 32.7 43.02 31.14 43 31.1 C 42.1 32.5 40.7 33.1 39.2 33.1 C 36.9 33.1 34.8 31.3 34.8 28.2 C 34.8 25.2 36.8 23.5 39.2 23.5 C 40.7 23.5 42.1 24 43 25.3 C 43 25.3 43 22.8 43 22.8 C 43 20.8 41.9 19.7 40 19.7 C 38.7 19.7 37.5 20.2 36.4 21.5 C 36.4 21.5 35.5 20 35.5 20 C 36.8 18.5 38.5 17.9 40.4 17.9 C 43.3 17.9 45.2 19.3 45.2 22.6 C 45.18 22.56 45.2 32.7 45.2 32.7 L 43 32.7 Z M 43 29.7 C 43 29.7 43 26.9 43 26.9 C 42.4 25.7 41.2 25.1 39.9 25.1 C 38.1 25.1 37 26.5 37 28.3 C 37 30.1 38.1 31.5 39.9 31.5 C 41.2 31.5 42.4 30.9 43 29.7 Z M 56.9 32.7 C 56.9 32.7 56.94 22.38 56.9 22.4 C 56.9 20.5 56.1 19.8 54.6 19.8 C 53.2 19.8 51.9 20.9 51.2 22.1 C 51.24 22.08 51.2 32.7 51.2 32.7 L 49.1 32.7 L 49.1 18.2 L 51.2 18.2 C 51.2 18.2 51.24 20.28 51.2 20.3 C 52.1 19 53.7 17.9 55.4 17.9 C 57.9 17.9 59.1 19.2 59.1 21.8 C 59.1 21.78 59.1 32.7 59.1 32.7 L 56.9 32.7 Z M 62.6 14.6 C 62.6 13.8 63.3 13.2 64.1 13.2 C 64.9 13.2 65.6 13.8 65.6 14.6 C 65.6 15.5 64.9 16.1 64.1 16.1 C 63.3 16.1 62.6 15.5 62.6 14.6 Z M 63.1 32.7 L 63.1 18.2 L 65.2 18.2 L 65.2 32.7 L 63.1 32.7 Z M 72.1 32.7 L 67.3 18.2 L 69.7 18.2 L 73.3 30.2 L 76.9 18.2 L 79.2 18.2 L 74.5 32.7 L 72.1 32.7 Z M 80.7 25.4 C 80.7 21.4 82.7 17.9 86.5 17.9 C 90.4 17.9 92.5 21.4 92.5 25.4 C 92.5 29.5 90.4 33.1 86.5 33.1 C 82.7 33.1 80.7 29.5 80.7 25.4 Z M 90.2 25.4 C 90.2 22.5 89.1 19.8 86.5 19.8 C 84.1 19.8 82.9 22.5 82.9 25.4 C 82.9 28.4 84.1 31.1 86.5 31.1 C 89.1 31.1 90.2 28.4 90.2 25.4 Z M 95.7 32.7 L 95.7 18.2 L 97.8 18.2 C 97.8 18.2 97.83 20.52 97.8 20.5 C 98.8 19 100.2 17.9 101.9 17.9 C 101.9 17.9 101.9 20.1 101.9 20.1 C 101.7 20.1 101.5 20 101.2 20 C 99.9 20 98.4 21.2 97.8 22.4 C 97.83 22.41 97.8 32.7 97.8 32.7 L 95.7 32.7 Z M 111.9 32.7 C 111.9 32.7 111.87 31.14 111.9 31.1 C 110.9 32.5 109.5 33.1 108.1 33.1 C 105.7 33.1 103.7 31.3 103.7 28.2 C 103.7 25.2 105.7 23.5 108.1 23.5 C 109.5 23.5 111 24 111.9 25.3 C 111.9 25.3 111.9 22.8 111.9 22.8 C 111.9 20.8 110.8 19.7 108.9 19.7 C 107.5 19.7 106.4 20.2 105.3 21.5 C 105.3 21.5 104.3 20 104.3 20 C 105.7 18.5 107.4 17.9 109.2 17.9 C 112.1 17.9 114 19.3 114 22.6 C 114.03 22.56 114 32.7 114 32.7 L 111.9 32.7 Z M 111.9 29.7 C 111.9 29.7 111.9 26.9 111.9 26.9 C 111.2 25.7 110 25.1 108.7 25.1 C 106.9 25.1 105.9 26.5 105.9 28.3 C 105.9 30.1 106.9 31.5 108.7 31.5 C 110 31.5 111.2 30.9 111.9 29.7 Z M 116.8 31 C 116.8 31 117.9 29.5 117.9 29.5 C 118.7 30.5 120.1 31.3 121.6 31.3 C 123.3 31.3 124.4 30.4 124.4 29 C 124.4 25.6 117.2 26.8 117.2 21.8 C 117.2 19.6 118.9 17.9 121.8 17.9 C 123.7 17.9 125.2 18.6 126.2 19.7 C 126.2 19.7 125.2 21.2 125.2 21.2 C 124.5 20.2 123.3 19.6 121.9 19.6 C 120.3 19.6 119.3 20.5 119.3 21.7 C 119.3 24.8 126.5 23.7 126.5 28.9 C 126.5 31.3 124.6 33.1 121.7 33.1 C 119.6 33.1 118 32.4 116.8 31 Z M 128.8 25.4 C 128.8 21.2 131.1 17.9 134.7 17.9 C 138.5 17.9 140.5 21.3 140.5 25.5 C 140.46 25.5 140.5 26.2 140.5 26.2 C 140.5 26.2 131.07 26.16 131.1 26.2 C 131.2 29.1 132.7 31.3 135.2 31.3 C 136.5 31.3 137.8 30.6 138.7 29.5 C 138.7 29.5 139.8 30.8 139.8 30.8 C 138.7 32.2 137 33.1 135.1 33.1 C 131.2 33.1 128.8 29.9 128.8 25.4 Z M 134.7 19.7 C 132.1 19.7 131.1 22.4 131.1 24.6 C 131.1 24.6 138.3 24.6 138.3 24.6 C 138.3 22.4 137.3 19.7 134.7 19.7 Z M 149.3 25.4 C 149.3 21.2 151.6 17.9 155.2 17.9 C 159 17.9 160.9 21.3 160.9 25.5 C 160.95 25.5 160.9 26.2 160.9 26.2 C 160.9 26.2 151.56 26.16 151.6 26.2 C 151.6 29.1 153.1 31.3 155.7 31.3 C 157 31.3 158.3 30.6 159.2 29.5 C 159.2 29.5 160.3 30.8 160.3 30.8 C 159.1 32.2 157.5 33.1 155.5 33.1 C 151.7 33.1 149.3 29.9 149.3 25.4 Z M 155.2 19.7 C 152.6 19.7 151.6 22.4 151.6 24.6 C 151.6 24.6 158.8 24.6 158.8 24.6 C 158.8 22.4 157.8 19.7 155.2 19.7 Z M 171.5 32.7 L 168.2 26.9 L 164.9 32.7 L 162.5 32.7 L 166.9 25.3 L 162.7 18.2 L 165.1 18.2 L 168.2 23.7 L 171.3 18.2 L 173.7 18.2 L 169.5 25.3 L 173.9 32.7 L 171.5 32.7 Z M 176.7 29.8 C 176.7 29.79 176.7 20.1 176.7 20.1 L 174.8 20.1 L 174.8 18.2 L 176.7 18.2 L 176.7 14.3 L 178.9 14.3 L 178.9 18.2 L 181.3 18.2 L 181.3 20.1 L 178.9 20.1 C 178.9 20.1 178.86 29.4 178.9 29.4 C 178.9 30.5 179.2 31.1 180 31.1 C 180.6 31.1 181 30.9 181.3 30.6 C 181.3 30.6 181.9 32.2 181.9 32.2 C 181.4 32.7 180.7 33.1 179.6 33.1 C 177.6 33.1 176.7 32 176.7 29.8 Z M 184.2 32.7 L 184.2 18.2 L 186.3 18.2 C 186.3 18.2 186.29 20.52 186.3 20.5 C 187.2 19 188.6 17.9 190.4 17.9 C 190.4 17.9 190.4 20.1 190.4 20.1 C 190.2 20.1 189.9 20 189.7 20 C 188.4 20 186.9 21.2 186.3 22.4 C 186.29 22.41 186.3 32.7 186.3 32.7 L 184.2 32.7 Z M 200.3 32.7 C 200.3 32.7 200.33 31.14 200.3 31.1 C 199.4 32.5 198 33.1 196.5 33.1 C 194.2 33.1 192.1 31.3 192.1 28.2 C 192.1 25.2 194.2 23.5 196.5 23.5 C 198 23.5 199.4 24 200.3 25.3 C 200.3 25.3 200.3 22.8 200.3 22.8 C 200.3 20.8 199.3 19.7 197.4 19.7 C 196 19.7 194.8 20.2 193.7 21.5 C 193.7 21.5 192.8 20 192.8 20 C 194.2 18.5 195.9 17.9 197.7 17.9 C 200.6 17.9 202.5 19.3 202.5 22.6 C 202.49 22.56 202.5 32.7 202.5 32.7 L 200.3 32.7 Z M 200.3 29.7 C 200.3 29.7 200.3 26.9 200.3 26.9 C 199.7 25.7 198.5 25.1 197.2 25.1 C 195.4 25.1 194.3 26.5 194.3 28.3 C 194.3 30.1 195.4 31.5 197.2 31.5 C 198.5 31.5 199.7 30.9 200.3 29.7 Z M 205.7 25.4 C 205.7 21.2 208 17.9 211.7 17.9 C 213.7 17.9 214.9 18.7 215.8 19.8 C 215.8 19.8 214.7 21.2 214.7 21.2 C 213.9 20.2 213 19.8 211.9 19.8 C 209.3 19.8 208 22.4 208 25.4 C 208 28.5 209.3 31.1 211.9 31.1 C 213 31.1 213.9 30.7 214.7 29.7 C 214.7 29.7 215.8 31.1 215.8 31.1 C 214.9 32.3 213.7 33.1 211.7 33.1 C 208 33.1 205.7 29.7 205.7 25.4 Z M 219 29.8 C 219.02 29.79 219 20.1 219 20.1 L 217.1 20.1 L 217.1 18.2 L 219 18.2 L 219 14.3 L 221.2 14.3 L 221.2 18.2 L 223.6 18.2 L 223.6 20.1 L 221.2 20.1 C 221.2 20.1 221.18 29.4 221.2 29.4 C 221.2 30.5 221.5 31.1 222.4 31.1 C 222.9 31.1 223.3 30.9 223.6 30.6 C 223.6 30.6 224.3 32.2 224.3 32.2 C 223.8 32.7 223 33.1 221.9 33.1 C 220 33.1 219 32 219 29.8 Z " stroke="none" fill="#d3d2d2"/>  </g></svg>