<?xml version="1.0" standalone="no"?><!DOCTYPE svg PUBLIC "-//W3C//DTD SVG 1.1//EN" "http://www.w3.org/Graphics/SVG/1.1/DTD/svg11.dtd"><svg xmlns="http://www.w3.org/2000/svg" version="1.1" width="219px" height="395.3px" viewBox="0 0 219 395.3">  <desc>2402 03 84 65 169 58 2991 90 3 60 67 35 281 10 734 63</desc>  <defs/>  <g id="Polygon224741">    <path d="M 145.3 276.4 L 151.6 258.5 L 143.1 258.5 L 143.1 256.4 L 154.2 256.4 L 154.2 258 L 147.9 276.4 L 145.3 276.4 Z M 155.9 273.4 C 155.9 273.4 157.4 272 157.4 272 C 158.4 273.5 159.8 274.6 161.7 274.6 C 164.1 274.6 165.3 273.1 165.3 270.8 C 165.3 268.1 163.6 267.2 161.5 267.2 C 160.9 267.2 160.2 267.2 159.9 267.2 C 159.9 267.2 159.9 265 159.9 265 C 160.2 265.1 161 265.1 161.5 265.1 C 163.5 265.1 165.1 264 165.1 261.7 C 165.1 259.3 163.7 258.2 161.7 258.2 C 159.9 258.2 158.6 259.1 157.6 260.6 C 157.6 260.6 156.1 259.2 156.1 259.2 C 157.3 257.3 159.3 256.1 161.8 256.1 C 165 256.1 167.5 257.8 167.5 261.4 C 167.5 263.9 165.7 265.6 163.9 266 C 165.7 266.3 167.7 268.1 167.7 271 C 167.7 274.3 165.6 276.7 161.8 276.7 C 159 276.7 156.9 275.2 155.9 273.4 Z M 177.8 276.4 L 177.8 271.2 L 169.9 271.2 L 169.9 269.2 L 177.1 256.4 L 180.2 256.4 L 180.2 269.1 L 182.4 269.1 L 182.4 271.2 L 180.2 271.2 L 180.2 276.4 L 177.8 276.4 Z M 177.8 258.9 L 172.1 269.1 L 177.8 269.1 L 177.8 258.9 Z M 184.9 275.1 C 184.9 274.2 185.6 273.5 186.5 273.5 C 187.3 273.5 188.1 274.2 188.1 275.1 C 188.1 276 187.3 276.7 186.5 276.7 C 185.6 276.7 184.9 276 184.9 275.1 Z M 191.3 266.4 C 191.3 261 193.2 256.1 198 256.1 C 200.1 256.1 201.7 257.1 202.7 258.6 C 202.7 258.6 201.4 260.2 201.4 260.2 C 200.7 259 199.7 258.2 198.1 258.2 C 194.9 258.2 193.7 262.4 193.7 266.2 C 193.7 266.4 193.7 266.5 193.7 266.8 C 194.4 265.4 196.1 263.8 198.1 263.8 C 201 263.8 203.4 266 203.4 270.2 C 203.4 273.6 201.3 276.7 197.6 276.7 C 192.9 276.7 191.3 271.7 191.3 266.4 Z M 201 270.3 C 201 267.1 199.4 265.9 197.5 265.9 C 195.9 265.9 194.5 267.3 193.8 269 C 193.9 271.2 194.7 274.6 197.5 274.6 C 199.9 274.6 201 272.4 201 270.3 Z M 205.5 273.4 C 205.5 273.4 207.1 272 207.1 272 C 208 273.5 209.5 274.6 211.4 274.6 C 213.8 274.6 215 273.1 215 270.8 C 215 268.1 213.2 267.2 211.2 267.2 C 210.6 267.2 209.9 267.2 209.6 267.2 C 209.6 267.2 209.6 265 209.6 265 C 209.9 265.1 210.6 265.1 211.1 265.1 C 213.1 265.1 214.8 264 214.8 261.7 C 214.8 259.3 213.3 258.2 211.3 258.2 C 209.5 258.2 208.3 259.1 207.3 260.6 C 207.3 260.6 205.8 259.2 205.8 259.2 C 207 257.3 209 256.1 211.5 256.1 C 214.7 256.1 217.1 257.8 217.1 261.4 C 217.1 263.9 215.4 265.6 213.6 266 C 215.3 266.3 217.4 268.1 217.4 271 C 217.4 274.3 215.3 276.7 211.5 276.7 C 208.6 276.7 206.5 275.2 205.5 273.4 Z " stroke="none" fill="#d0d1d4"/>  </g>  <g id="Polygon224740">    <path d="M 150.1 240.4 C 150.1 240.4 150.08 238.43 150.1 238.4 C 156.6 230.9 158.9 228.5 158.9 225.5 C 158.9 223.4 157.4 222.2 155.7 222.2 C 153.8 222.2 152.4 223.1 151.4 224.7 C 151.4 224.7 149.9 223.3 149.9 223.3 C 151.2 221.2 153.1 220.1 155.7 220.1 C 158.7 220.1 161.3 222 161.3 225.5 C 161.3 228.9 158.8 231.9 153.5 238.2 C 153.47 238.25 161.4 238.2 161.4 238.2 L 161.4 240.4 L 150.1 240.4 Z M 164.5 235.5 C 164.5 232.8 166.5 230.8 168.5 230.1 C 166.7 229.4 164.8 227.7 164.8 225.2 C 164.8 221.7 167.6 220.1 170.4 220.1 C 173.3 220.1 176.1 221.7 176.1 225.2 C 176.1 227.7 174.2 229.4 172.4 230.1 C 174.4 230.8 176.4 232.8 176.4 235.4 C 176.4 238.7 173.9 240.7 170.4 240.7 C 166.9 240.7 164.5 238.7 164.5 235.5 Z M 173.7 225.5 C 173.7 223.5 172.4 222.2 170.4 222.2 C 168.5 222.2 167.2 223.5 167.2 225.5 C 167.2 227.9 169.7 228.9 170.4 229.2 C 171.2 228.9 173.7 227.9 173.7 225.5 Z M 174 235.2 C 174 232.5 171.3 231.2 170.4 231 C 169.6 231.2 166.9 232.5 166.9 235.2 C 166.9 237.3 168.5 238.6 170.4 238.6 C 172.4 238.6 174 237.3 174 235.2 Z M 182.7 240.4 L 182.7 223.5 L 179.6 226.8 L 178.2 225.3 L 183 220.4 L 185.1 220.4 L 185.1 240.4 L 182.7 240.4 Z M 189 239.1 C 189 238.2 189.7 237.5 190.6 237.5 C 191.5 237.5 192.2 238.2 192.2 239.1 C 192.2 240 191.5 240.7 190.6 240.7 C 189.7 240.7 189 240 189 239.1 Z M 199 240.4 L 199 223.5 L 195.9 226.8 L 194.5 225.3 L 199.3 220.4 L 201.4 220.4 L 201.4 240.4 L 199 240.4 Z M 204.9 230.4 C 204.9 225.6 206.5 220.1 211.2 220.1 C 215.8 220.1 217.4 225.6 217.4 230.4 C 217.4 235.2 215.8 240.7 211.2 240.7 C 206.5 240.7 204.9 235.2 204.9 230.4 Z M 215 230.4 C 215 226.4 214.2 222.2 211.2 222.2 C 208.1 222.2 207.3 226.4 207.3 230.4 C 207.3 234.3 208.1 238.6 211.2 238.6 C 214.2 238.6 215 234.3 215 230.4 Z " stroke="none" fill="#d0d1d4"/>  </g>  <g id="Polygon224739">    <path d="M 157.1 194.4 C 157.1 189 159 184.1 163.8 184.1 C 165.9 184.1 167.5 185.1 168.5 186.6 C 168.5 186.6 167.2 188.2 167.2 188.2 C 166.4 187 165.5 186.2 163.8 186.2 C 160.7 186.2 159.5 190.4 159.5 194.2 C 159.5 194.4 159.5 194.5 159.5 194.8 C 160.2 193.4 161.8 191.8 163.9 191.8 C 166.8 191.8 169.2 194 169.2 198.2 C 169.2 201.6 167.1 204.7 163.4 204.7 C 158.6 204.7 157.1 199.7 157.1 194.4 Z M 166.7 198.3 C 166.7 195.1 165.2 193.9 163.3 193.9 C 161.6 193.9 160.3 195.3 159.5 197 C 159.7 199.2 160.5 202.6 163.3 202.6 C 165.7 202.6 166.7 200.4 166.7 198.3 Z M 173.4 204.4 L 179.7 186.5 L 171.2 186.5 L 171.2 184.4 L 182.3 184.4 L 182.3 186 L 175.9 204.4 L 173.4 204.4 Z M 184.9 203.1 C 184.9 202.2 185.6 201.5 186.5 201.5 C 187.4 201.5 188.1 202.2 188.1 203.1 C 188.1 204 187.4 204.7 186.5 204.7 C 185.6 204.7 184.9 204 184.9 203.1 Z M 190.8 201.4 C 190.8 201.4 192.3 200 192.3 200 C 193.3 201.5 194.7 202.6 196.6 202.6 C 199.1 202.6 200.3 201.1 200.3 198.8 C 200.3 196.1 198.5 195.2 196.5 195.2 C 195.8 195.2 195.1 195.2 194.9 195.2 C 194.9 195.2 194.9 193 194.9 193 C 195.1 193.1 195.9 193.1 196.4 193.1 C 198.4 193.1 200 192 200 189.7 C 200 187.3 198.6 186.2 196.6 186.2 C 194.8 186.2 193.5 187.1 192.5 188.6 C 192.5 188.6 191 187.2 191 187.2 C 192.2 185.3 194.2 184.1 196.7 184.1 C 200 184.1 202.4 185.8 202.4 189.4 C 202.4 191.9 200.7 193.6 198.8 194 C 200.6 194.3 202.7 196.1 202.7 199 C 202.7 202.3 200.5 204.7 196.7 204.7 C 193.9 204.7 191.8 203.2 190.8 201.4 Z M 205.7 201.5 C 205.7 201.5 207.3 200 207.3 200 C 208.2 201.7 209.5 202.6 211.5 202.6 C 213.7 202.6 215.1 200.6 215.1 198.3 C 215.1 195.4 213.7 193.8 211.6 193.8 C 210.2 193.8 209.1 194.4 208 195.7 C 208 195.71 206.2 195.1 206.2 195.1 L 206.2 184.4 L 216.4 184.4 L 216.4 186.5 L 208.6 186.5 C 208.6 186.5 208.6 193.49 208.6 193.5 C 209.4 192.5 210.7 191.7 212.3 191.7 C 215.2 191.7 217.5 194 217.5 198.2 C 217.5 202 215 204.7 211.5 204.7 C 208.6 204.7 206.9 203.5 205.7 201.5 Z " stroke="none" fill="#d0d1d4"/>  </g>  <g id="Polygon224738">    <path d="M 168.6 165.4 C 168.6 165.4 170.1 164 170.1 164 C 171 165.5 172.5 166.6 174.4 166.6 C 176.8 166.6 178 165.1 178 162.8 C 178 160.1 176.3 159.2 174.2 159.2 C 173.6 159.2 172.9 159.2 172.6 159.2 C 172.6 159.2 172.6 157 172.6 157 C 172.9 157.1 173.7 157.1 174.2 157.1 C 176.2 157.1 177.8 156 177.8 153.7 C 177.8 151.3 176.4 150.2 174.3 150.2 C 172.6 150.2 171.3 151.1 170.3 152.6 C 170.3 152.6 168.8 151.2 168.8 151.2 C 170 149.3 172 148.1 174.5 148.1 C 177.7 148.1 180.2 149.8 180.2 153.4 C 180.2 155.9 178.4 157.6 176.6 158 C 178.4 158.3 180.4 160.1 180.4 163 C 180.4 166.3 178.3 168.7 174.5 168.7 C 171.6 168.7 169.6 167.2 168.6 165.4 Z M 183.7 167.1 C 183.7 166.2 184.4 165.5 185.3 165.5 C 186.2 165.5 186.9 166.2 186.9 167.1 C 186.9 168 186.2 168.7 185.3 168.7 C 184.4 168.7 183.7 168 183.7 167.1 Z M 190.1 158.4 C 190.1 153 192 148.1 196.9 148.1 C 199 148.1 200.6 149.1 201.6 150.6 C 201.6 150.6 200.2 152.2 200.2 152.2 C 199.5 151 198.6 150.2 196.9 150.2 C 193.7 150.2 192.5 154.4 192.5 158.2 C 192.5 158.4 192.5 158.5 192.6 158.8 C 193.2 157.4 194.9 155.8 197 155.8 C 199.9 155.8 202.2 158 202.2 162.2 C 202.2 165.6 200.1 168.7 196.5 168.7 C 191.7 168.7 190.1 163.7 190.1 158.4 Z M 199.8 162.3 C 199.8 159.1 198.3 157.9 196.4 157.9 C 194.7 157.9 193.3 159.3 192.6 161 C 192.7 163.2 193.5 166.6 196.3 166.6 C 198.7 166.6 199.8 164.4 199.8 162.3 Z M 204.9 158.4 C 204.9 153.6 206.5 148.1 211.2 148.1 C 215.8 148.1 217.4 153.6 217.4 158.4 C 217.4 163.2 215.8 168.7 211.2 168.7 C 206.5 168.7 204.9 163.2 204.9 158.4 Z M 215 158.4 C 215 154.4 214.2 150.2 211.2 150.2 C 208.1 150.2 207.3 154.4 207.3 158.4 C 207.3 162.3 208.1 166.6 211.2 166.6 C 214.2 166.6 215 162.3 215 158.4 Z " stroke="none" fill="#d0d1d4"/>  </g>  <g id="Polygon224737">    <path d="M 129.8 132.4 C 129.8 132.4 129.83 130.43 129.8 130.4 C 136.4 122.9 138.6 120.5 138.6 117.5 C 138.6 115.4 137.1 114.2 135.4 114.2 C 133.5 114.2 132.1 115.1 131.2 116.7 C 131.2 116.7 129.6 115.3 129.6 115.3 C 130.9 113.2 132.9 112.1 135.4 112.1 C 138.5 112.1 141 114 141 117.5 C 141 120.9 138.5 123.9 133.2 130.2 C 133.22 130.25 141.1 130.2 141.1 130.2 L 141.1 132.4 L 129.8 132.4 Z M 144.8 130.2 C 144.8 130.2 146.1 128.5 146.1 128.5 C 146.9 129.8 147.8 130.6 149.5 130.6 C 152.7 130.6 153.8 126.3 153.8 122.6 C 153.8 122.3 153.8 122.2 153.8 122 C 153.1 123.4 151.5 124.9 149.4 124.9 C 146.5 124.9 144.2 122.8 144.2 118.5 C 144.2 115.2 146.2 112 149.9 112 C 154.7 112 156.3 117 156.3 122.4 C 156.3 127.8 154.3 132.7 149.5 132.7 C 147.4 132.7 145.8 131.7 144.8 130.2 Z M 153.8 119.8 C 153.6 117.6 152.9 114.2 150 114.2 C 147.6 114.2 146.6 116.4 146.6 118.5 C 146.6 121.7 148.1 122.9 150 122.9 C 151.7 122.9 153 121.4 153.8 119.8 Z M 159.6 130.2 C 159.6 130.2 160.9 128.5 160.9 128.5 C 161.7 129.8 162.6 130.6 164.2 130.6 C 167.5 130.6 168.6 126.3 168.6 122.6 C 168.6 122.3 168.6 122.2 168.6 122 C 167.9 123.4 166.2 124.9 164.2 124.9 C 161.3 124.9 158.9 122.8 158.9 118.5 C 158.9 115.2 161 112 164.7 112 C 169.5 112 171 117 171 122.4 C 171 127.8 169.1 132.7 164.2 132.7 C 162.1 132.7 160.6 131.7 159.6 130.2 Z M 168.5 119.8 C 168.4 117.6 167.6 114.2 164.8 114.2 C 162.4 114.2 161.4 116.4 161.4 118.5 C 161.4 121.7 162.9 122.9 164.8 122.9 C 166.5 122.9 167.8 121.4 168.5 119.8 Z M 177.4 132.4 L 177.4 115.5 L 174.3 118.8 L 172.9 117.3 L 177.7 112.4 L 179.8 112.4 L 179.8 132.4 L 177.4 132.4 Z M 183.7 131.1 C 183.7 130.2 184.4 129.5 185.3 129.5 C 186.2 129.5 186.9 130.2 186.9 131.1 C 186.9 132 186.2 132.7 185.3 132.7 C 184.4 132.7 183.7 132 183.7 131.1 Z M 190.6 130.2 C 190.6 130.2 192 128.5 192 128.5 C 192.7 129.8 193.6 130.6 195.3 130.6 C 198.5 130.6 199.6 126.3 199.6 122.6 C 199.6 122.3 199.6 122.2 199.6 122 C 198.9 123.4 197.3 124.9 195.2 124.9 C 192.3 124.9 190 122.8 190 118.5 C 190 115.2 192 112 195.7 112 C 200.5 112 202.1 117 202.1 122.4 C 202.1 127.8 200.1 132.7 195.3 132.7 C 193.2 132.7 191.6 131.7 190.6 130.2 Z M 199.6 119.8 C 199.5 117.6 198.7 114.2 195.9 114.2 C 193.5 114.2 192.4 116.4 192.4 118.5 C 192.4 121.7 193.9 122.9 195.8 122.9 C 197.5 122.9 198.9 121.4 199.6 119.8 Z M 204.9 122.4 C 204.9 117.6 206.5 112.1 211.2 112.1 C 215.8 112.1 217.4 117.6 217.4 122.4 C 217.4 127.2 215.8 132.7 211.2 132.7 C 206.5 132.7 204.9 127.2 204.9 122.4 Z M 215 122.4 C 215 118.4 214.2 114.2 211.2 114.2 C 208.1 114.2 207.3 118.4 207.3 122.4 C 207.3 126.3 208.1 130.6 211.2 130.6 C 214.2 130.6 215 126.3 215 122.4 Z " stroke="none" fill="#d0d1d4"/>  </g>  <g id="Polygon224736">    <path d="M 148.7 96.4 L 148.7 79.5 L 145.6 82.8 L 144.2 81.3 L 149 76.4 L 151.1 76.4 L 151.1 96.4 L 148.7 96.4 Z M 154.6 86.4 C 154.6 81 156.5 76.1 161.3 76.1 C 163.4 76.1 165 77.1 166 78.6 C 166 78.6 164.7 80.2 164.7 80.2 C 163.9 79 163 78.2 161.4 78.2 C 158.2 78.2 157 82.4 157 86.2 C 157 86.4 157 86.5 157 86.8 C 157.7 85.4 159.3 83.8 161.4 83.8 C 164.3 83.8 166.7 86 166.7 90.2 C 166.7 93.6 164.6 96.7 160.9 96.7 C 156.1 96.7 154.6 91.7 154.6 86.4 Z M 164.2 90.3 C 164.2 87.1 162.7 85.9 160.8 85.9 C 159.1 85.9 157.8 87.3 157 89 C 157.2 91.2 158 94.6 160.8 94.6 C 163.2 94.6 164.2 92.4 164.2 90.3 Z M 169.8 94.2 C 169.8 94.2 171.2 92.5 171.2 92.5 C 171.9 93.8 172.8 94.6 174.5 94.6 C 177.7 94.6 178.8 90.3 178.8 86.6 C 178.8 86.3 178.8 86.2 178.8 86 C 178.2 87.4 176.5 88.9 174.4 88.9 C 171.5 88.9 169.2 86.8 169.2 82.5 C 169.2 79.2 171.3 76 174.9 76 C 179.7 76 181.3 81 181.3 86.4 C 181.3 91.8 179.3 96.7 174.5 96.7 C 172.4 96.7 170.8 95.7 169.8 94.2 Z M 178.8 83.8 C 178.7 81.6 177.9 78.2 175.1 78.2 C 172.7 78.2 171.6 80.4 171.6 82.5 C 171.6 85.7 173.1 86.9 175 86.9 C 176.7 86.9 178.1 85.4 178.8 83.8 Z M 184.5 95.1 C 184.5 94.2 185.2 93.5 186.1 93.5 C 187 93.5 187.7 94.2 187.7 95.1 C 187.7 96 187 96.7 186.1 96.7 C 185.2 96.7 184.5 96 184.5 95.1 Z M 191.1 93.5 C 191.1 93.5 192.7 92 192.7 92 C 193.6 93.7 195 94.6 196.9 94.6 C 199.1 94.6 200.5 92.6 200.5 90.3 C 200.5 87.4 199.1 85.8 197.1 85.8 C 195.6 85.8 194.5 86.4 193.4 87.7 C 193.42 87.71 191.7 87.1 191.7 87.1 L 191.7 76.4 L 201.9 76.4 L 201.9 78.5 L 194 78.5 C 194 78.5 194.02 85.49 194 85.5 C 194.8 84.5 196.1 83.7 197.7 83.7 C 200.6 83.7 202.9 86 202.9 90.2 C 202.9 94 200.4 96.7 197 96.7 C 194 96.7 192.3 95.5 191.1 93.5 Z M 205.6 91.5 C 205.6 88.8 207.6 86.8 209.6 86.1 C 207.8 85.4 205.9 83.7 205.9 81.2 C 205.9 77.7 208.7 76.1 211.5 76.1 C 214.4 76.1 217.2 77.7 217.2 81.2 C 217.2 83.7 215.3 85.4 213.5 86.1 C 215.5 86.8 217.5 88.8 217.5 91.4 C 217.5 94.7 215 96.7 211.5 96.7 C 208 96.7 205.6 94.7 205.6 91.5 Z M 214.8 81.5 C 214.8 79.5 213.5 78.2 211.5 78.2 C 209.6 78.2 208.3 79.5 208.3 81.5 C 208.3 83.9 210.8 84.9 211.5 85.2 C 212.3 84.9 214.8 83.9 214.8 81.5 Z M 215.1 91.2 C 215.1 88.5 212.4 87.2 211.5 87 C 210.7 87.2 208 88.5 208 91.2 C 208 93.3 209.6 94.6 211.5 94.6 C 213.5 94.6 215.1 93.3 215.1 91.2 Z " stroke="none" fill="#d0d1d4"/>  </g>  <g id="Polygon224735">    <path d="M 155.4 55.5 C 155.4 52.8 157.4 50.8 159.4 50.1 C 157.6 49.4 155.7 47.7 155.7 45.2 C 155.7 41.7 158.5 40.1 161.4 40.1 C 164.2 40.1 167 41.7 167 45.2 C 167 47.7 165.1 49.4 163.3 50.1 C 165.3 50.8 167.3 52.8 167.3 55.4 C 167.3 58.7 164.8 60.7 161.4 60.7 C 157.8 60.7 155.4 58.7 155.4 55.5 Z M 164.6 45.5 C 164.6 43.5 163.3 42.2 161.4 42.2 C 159.4 42.2 158.1 43.5 158.1 45.5 C 158.1 47.9 160.6 48.9 161.4 49.2 C 162.1 48.9 164.6 47.9 164.6 45.5 Z M 164.9 55.2 C 164.9 52.5 162.2 51.2 161.4 51 C 160.5 51.2 157.8 52.5 157.8 55.2 C 157.8 57.3 159.4 58.6 161.4 58.6 C 163.3 58.6 164.9 57.3 164.9 55.2 Z M 177.3 60.4 L 177.3 55.2 L 169.3 55.2 L 169.3 53.2 L 176.6 40.4 L 179.6 40.4 L 179.6 53.1 L 181.8 53.1 L 181.8 55.2 L 179.6 55.2 L 179.6 60.4 L 177.3 60.4 Z M 177.3 42.9 L 171.5 53.1 L 177.3 53.1 L 177.3 42.9 Z M 184.3 59.1 C 184.3 58.2 185.1 57.5 185.9 57.5 C 186.8 57.5 187.5 58.2 187.5 59.1 C 187.5 60 186.8 60.7 185.9 60.7 C 185.1 60.7 184.3 60 184.3 59.1 Z M 190.8 50.4 C 190.8 45 192.7 40.1 197.5 40.1 C 199.6 40.1 201.2 41.1 202.2 42.6 C 202.2 42.6 200.9 44.2 200.9 44.2 C 200.1 43 199.2 42.2 197.5 42.2 C 194.4 42.2 193.2 46.4 193.2 50.2 C 193.2 50.4 193.2 50.5 193.2 50.8 C 193.9 49.4 195.5 47.8 197.6 47.8 C 200.5 47.8 202.8 50 202.8 54.2 C 202.8 57.6 200.8 60.7 197.1 60.7 C 192.3 60.7 190.8 55.7 190.8 50.4 Z M 200.4 54.3 C 200.4 51.1 198.9 49.9 197 49.9 C 195.3 49.9 194 51.3 193.2 53 C 193.4 55.2 194.1 58.6 197 58.6 C 199.4 58.6 200.4 56.4 200.4 54.3 Z M 205.7 57.5 C 205.7 57.5 207.3 56 207.3 56 C 208.2 57.7 209.5 58.6 211.5 58.6 C 213.7 58.6 215.1 56.6 215.1 54.3 C 215.1 51.4 213.7 49.8 211.6 49.8 C 210.2 49.8 209.1 50.4 208 51.7 C 208 51.71 206.2 51.1 206.2 51.1 L 206.2 40.4 L 216.4 40.4 L 216.4 42.5 L 208.6 42.5 C 208.6 42.5 208.6 49.49 208.6 49.5 C 209.4 48.5 210.7 47.7 212.3 47.7 C 215.2 47.7 217.5 50 217.5 54.2 C 217.5 58 215 60.7 211.5 60.7 C 208.6 60.7 206.9 59.5 205.7 57.5 Z " stroke="none" fill="#d0d1d4"/>  </g>  <g id="Polygon224734">    <path d="M 125.5 24.4 C 125.5 24.4 125.48 22.43 125.5 22.4 C 132 14.9 134.3 12.5 134.3 9.5 C 134.3 7.4 132.8 6.2 131.1 6.2 C 129.2 6.2 127.8 7.1 126.8 8.7 C 126.8 8.7 125.3 7.3 125.3 7.3 C 126.6 5.2 128.5 4.1 131.1 4.1 C 134.1 4.1 136.7 6 136.7 9.5 C 136.7 12.9 134.2 15.9 128.9 22.2 C 128.87 22.25 136.8 22.2 136.8 22.2 L 136.8 24.4 L 125.5 24.4 Z M 147.2 24.4 L 147.2 19.2 L 139.2 19.2 L 139.2 17.2 L 146.5 4.4 L 149.5 4.4 L 149.5 17.1 L 151.7 17.1 L 151.7 19.2 L 149.5 19.2 L 149.5 24.4 L 147.2 24.4 Z M 147.2 6.9 L 141.4 17.1 L 147.2 17.1 L 147.2 6.9 Z M 153.8 14.4 C 153.8 9.6 155.4 4.1 160.1 4.1 C 164.8 4.1 166.4 9.6 166.4 14.4 C 166.4 19.2 164.8 24.7 160.1 24.7 C 155.4 24.7 153.8 19.2 153.8 14.4 Z M 163.9 14.4 C 163.9 10.4 163.2 6.2 160.1 6.2 C 157 6.2 156.3 10.4 156.3 14.4 C 156.3 18.3 157 22.6 160.1 22.6 C 163.2 22.6 163.9 18.3 163.9 14.4 Z M 169.4 24.4 C 169.4 24.4 169.37 22.43 169.4 22.4 C 175.9 14.9 178.2 12.5 178.2 9.5 C 178.2 7.4 176.7 6.2 174.9 6.2 C 173.1 6.2 171.7 7.1 170.7 8.7 C 170.7 8.7 169.2 7.3 169.2 7.3 C 170.5 5.2 172.4 4.1 175 4.1 C 178 4.1 180.6 6 180.6 9.5 C 180.6 12.9 178.1 15.9 172.8 22.2 C 172.76 22.25 180.7 22.2 180.7 22.2 L 180.7 24.4 L 169.4 24.4 Z M 184.3 23.1 C 184.3 22.2 185 21.5 185.9 21.5 C 186.7 21.5 187.5 22.2 187.5 23.1 C 187.5 24 186.7 24.7 185.9 24.7 C 185 24.7 184.3 24 184.3 23.1 Z M 190.7 14.4 C 190.7 9.6 192.3 4.1 197 4.1 C 201.6 4.1 203.2 9.6 203.2 14.4 C 203.2 19.2 201.6 24.7 197 24.7 C 192.3 24.7 190.7 19.2 190.7 14.4 Z M 200.8 14.4 C 200.8 10.4 200.1 6.2 197 6.2 C 193.9 6.2 193.2 10.4 193.2 14.4 C 193.2 18.3 193.9 22.6 197 22.6 C 200.1 22.6 200.8 18.3 200.8 14.4 Z M 205.5 21.4 C 205.5 21.4 207.1 20 207.1 20 C 208 21.5 209.5 22.6 211.4 22.6 C 213.8 22.6 215 21.1 215 18.8 C 215 16.1 213.2 15.2 211.2 15.2 C 210.6 15.2 209.9 15.2 209.6 15.2 C 209.6 15.2 209.6 13 209.6 13 C 209.9 13.1 210.6 13.1 211.1 13.1 C 213.1 13.1 214.8 12 214.8 9.7 C 214.8 7.3 213.3 6.2 211.3 6.2 C 209.5 6.2 208.3 7.1 207.3 8.6 C 207.3 8.6 205.8 7.2 205.8 7.2 C 207 5.3 209 4.1 211.5 4.1 C 214.7 4.1 217.1 5.8 217.1 9.4 C 217.1 11.9 215.4 13.6 213.6 14 C 215.3 14.3 217.4 16.1 217.4 19 C 217.4 22.3 215.3 24.7 211.5 24.7 C 208.6 24.7 206.5 23.2 205.5 21.4 Z " stroke="none" fill="#d0d1d4"/>  </g></svg>