<?xml version="1.0" standalone="no"?><!DOCTYPE svg PUBLIC "-//W3C//DTD SVG 1.1//EN" "http://www.w3.org/Graphics/SVG/1.1/DTD/svg11.dtd"><svg xmlns="http://www.w3.org/2000/svg" version="1.1" width="191px" height="44.3px" viewBox="0 0 191 44.3">  <desc>5 hours</desc>  <defs/>  <g id="Polygon189858">    <path d="M 52.4 14.3 L 52.4 19.5 L 49.9 19.5 L 49.9 14.3 L 45.4 14.3 L 45.4 12 L 49.9 12 L 49.9 7 L 52.4 7 L 52.4 12 L 57 12 L 57 14.3 L 52.4 14.3 Z M 45.4 23.3 L 45.4 21.1 L 57 21.1 L 57 23.3 L 45.4 23.3 Z M 60.2 20.9 C 60.2 20.9 62.7 18.3 62.7 18.3 C 63.7 19.7 65.1 20.5 66.8 20.5 C 68.7 20.5 69.9 19 69.9 17.3 C 69.9 15.4 68.8 14.2 67 14.2 C 65.7 14.2 64.6 14.7 63.7 15.8 C 63.7 15.84 60.8 15.1 60.8 15.1 L 60.8 3.7 L 72.8 3.7 L 72.8 7.2 L 64.8 7.2 C 64.8 7.2 64.81 12.36 64.8 12.4 C 65.6 11.4 66.9 10.7 68.5 10.7 C 71.5 10.7 73.9 13.1 73.9 17.2 C 73.9 21.2 71.2 24.1 66.9 24.1 C 63.9 24.1 61.7 22.9 60.2 20.9 Z M 91 23.7 C 91 23.7 90.97 14.1 91 14.1 C 91 12.6 90.3 12 89.1 12 C 87.9 12 86.9 13 86.4 13.8 C 86.44 13.83 86.4 23.7 86.4 23.7 L 82.8 23.7 L 82.8 3.7 L 86.4 3.7 C 86.4 3.7 86.44 11.1 86.4 11.1 C 87.2 10 88.8 8.8 90.7 8.8 C 93.4 8.8 94.6 10.3 94.6 12.7 C 94.57 12.75 94.6 23.7 94.6 23.7 L 91 23.7 Z M 97.1 16.4 C 97.1 12.4 99.3 8.8 103.6 8.8 C 107.9 8.8 110.2 12.4 110.2 16.4 C 110.2 20.5 107.9 24.1 103.6 24.1 C 99.3 24.1 97.1 20.5 97.1 16.4 Z M 106.5 16.4 C 106.5 14.1 105.6 12 103.6 12 C 101.7 12 100.8 14.1 100.8 16.4 C 100.8 18.8 101.7 20.9 103.6 20.9 C 105.6 20.9 106.5 18.8 106.5 16.4 Z M 120.8 23.7 C 120.8 23.7 120.79 21.87 120.8 21.9 C 120 23 118.4 24.1 116.5 24.1 C 113.9 24.1 112.7 22.6 112.7 20.2 C 112.66 20.16 112.7 9.2 112.7 9.2 L 116.3 9.2 C 116.3 9.2 116.26 18.78 116.3 18.8 C 116.3 20.3 117 20.9 118.2 20.9 C 119.4 20.9 120.3 20 120.8 19.1 C 120.79 19.11 120.8 9.2 120.8 9.2 L 124.4 9.2 L 124.4 23.7 L 120.8 23.7 Z M 127.6 23.7 L 127.6 9.2 L 131.2 9.2 C 131.2 9.2 131.23 11.19 131.2 11.2 C 132 9.9 133.6 8.8 135.2 8.8 C 135.2 8.8 135.2 12.4 135.2 12.4 C 135 12.3 134.7 12.3 134.3 12.3 C 133.2 12.3 131.8 13 131.2 14 C 131.23 14.04 131.2 23.7 131.2 23.7 L 127.6 23.7 Z M 136.1 22 C 136.1 22 137.7 19.5 137.7 19.5 C 138.6 20.4 140.2 21.2 141.6 21.2 C 143 21.2 143.8 20.6 143.8 19.7 C 143.8 17.3 136.6 18.6 136.6 13.2 C 136.6 10.9 138.5 8.8 141.9 8.8 C 144 8.8 145.7 9.6 146.9 10.7 C 146.9 10.7 145.5 13.1 145.5 13.1 C 144.8 12.3 143.4 11.6 141.9 11.6 C 140.8 11.6 140 12.2 140 13 C 140 15.2 147.2 14.1 147.2 19.6 C 147.2 22.2 145.1 24.1 141.7 24.1 C 139.4 24.1 137.4 23.3 136.1 22 Z " stroke="none" fill="#d3d2d2"/>  </g></svg>