<?xml version="1.0" standalone="no"?><!DOCTYPE svg PUBLIC "-//W3C//DTD SVG 1.1//EN" "http://www.w3.org/Graphics/SVG/1.1/DTD/svg11.dtd"><svg xmlns="http://www.w3.org/2000/svg" version="1.1" width="682px" height="104px" viewBox="0 0 682 104">  <desc>Soft-boiled egg and kaya toast Jurong East, Singapore, circa January 2019 (recovered)</desc>  <defs/>  <g id="Polygon146611">    <path d="M 95.2 72.8 C 95.2 72.8 96 71.4 96 71.4 C 96.6 72.1 97.4 72.6 98.4 72.6 C 100 72.6 100.9 71.6 100.9 69.9 C 100.94 69.87 100.9 58 100.9 58 L 102.8 58 C 102.8 58 102.83 69.92 102.8 69.9 C 102.8 72.9 101 74.3 98.5 74.3 C 97.2 74.3 96.1 73.9 95.2 72.8 Z M 112.4 74 C 112.4 74 112.36 72.42 112.4 72.4 C 111.7 73.4 110.4 74.3 109 74.3 C 107 74.3 106.1 73.3 106.1 71.2 C 106.1 71.22 106.1 62.4 106.1 62.4 L 107.8 62.4 C 107.8 62.4 107.8 70.71 107.8 70.7 C 107.8 72.2 108.5 72.8 109.7 72.8 C 110.8 72.8 111.9 71.9 112.4 71 C 112.36 70.98 112.4 62.4 112.4 62.4 L 114.1 62.4 L 114.1 74 L 112.4 74 Z M 117.3 74 L 117.3 62.4 L 119 62.4 C 119 62.4 118.96 64.28 119 64.3 C 119.7 63.1 120.8 62.2 122.3 62.2 C 122.3 62.2 122.3 64 122.3 64 C 122.1 63.9 121.9 63.9 121.7 63.9 C 120.6 63.9 119.4 64.8 119 65.8 C 118.96 65.79 119 74 119 74 L 117.3 74 Z M 123.7 68.2 C 123.7 65 125.3 62.1 128.4 62.1 C 131.5 62.1 133.1 65 133.1 68.2 C 133.1 71.5 131.5 74.3 128.4 74.3 C 125.3 74.3 123.7 71.5 123.7 68.2 Z M 131.3 68.2 C 131.3 65.9 130.4 63.7 128.4 63.7 C 126.4 63.7 125.5 65.9 125.5 68.2 C 125.5 70.6 126.4 72.8 128.4 72.8 C 130.4 72.8 131.3 70.6 131.3 68.2 Z M 142 74 C 142 74 141.95 65.77 142 65.8 C 142 64.2 141.3 63.7 140.1 63.7 C 139 63.7 137.9 64.6 137.4 65.5 C 137.39 65.53 137.4 74 137.4 74 L 135.7 74 L 135.7 62.4 L 137.4 62.4 C 137.4 62.4 137.39 64.09 137.4 64.1 C 138.1 63.1 139.4 62.1 140.8 62.1 C 142.7 62.1 143.7 63.2 143.7 65.3 C 143.68 65.29 143.7 74 143.7 74 L 142 74 Z M 146.8 77.3 C 146.8 77.3 147.5 75.9 147.5 75.9 C 148.3 76.8 149.3 77.3 150.6 77.3 C 152.2 77.3 153.5 76.4 153.5 74.1 C 153.5 74.1 153.5 72.2 153.5 72.2 C 152.8 73.4 151.6 74.2 150.4 74.2 C 147.8 74.2 146.3 71.8 146.3 68.2 C 146.3 64.6 147.8 62.1 150.4 62.1 C 151.6 62.1 152.8 62.8 153.5 64.1 C 153.47 64.11 153.5 62.4 153.5 62.4 L 155.2 62.4 C 155.2 62.4 155.2 74 155.2 74 C 155.2 77.6 153 78.7 150.6 78.7 C 149.1 78.7 147.9 78.4 146.8 77.3 Z M 153.5 70.7 C 153.5 70.7 153.5 65.6 153.5 65.6 C 153 64.6 152 63.7 150.9 63.7 C 149 63.7 148.1 65.7 148.1 68.2 C 148.1 70.7 149 72.6 150.9 72.6 C 152 72.6 153 71.7 153.5 70.7 Z M 163.6 74 L 163.6 58 L 171.8 58 L 171.8 59.7 L 165.5 59.7 L 165.5 65 L 171.7 65 L 171.7 66.7 L 165.5 66.7 L 165.5 72.3 L 171.8 72.3 L 171.8 74 L 163.6 74 Z M 180.5 74 C 180.5 74 180.52 72.78 180.5 72.8 C 179.8 73.8 178.6 74.3 177.5 74.3 C 175.6 74.3 174 72.9 174 70.4 C 174 68 175.6 66.6 177.5 66.6 C 178.6 66.6 179.8 67.1 180.5 68.1 C 180.5 68.1 180.5 66.1 180.5 66.1 C 180.5 64.5 179.7 63.6 178.1 63.6 C 177.1 63.6 176.1 64 175.2 65 C 175.2 65 174.5 63.8 174.5 63.8 C 175.6 62.7 176.9 62.1 178.4 62.1 C 180.7 62.1 182.2 63.3 182.2 65.9 C 182.25 65.91 182.2 74 182.2 74 L 180.5 74 Z M 180.5 71.6 C 180.5 71.6 180.5 69.4 180.5 69.4 C 180 68.4 179 67.9 178 67.9 C 176.6 67.9 175.7 69 175.7 70.5 C 175.7 71.9 176.6 73.1 178 73.1 C 179 73.1 180 72.6 180.5 71.6 Z M 184.5 72.7 C 184.5 72.7 185.3 71.5 185.3 71.5 C 186 72.3 187.1 72.9 188.3 72.9 C 189.7 72.9 190.6 72.2 190.6 71 C 190.6 68.3 184.8 69.3 184.8 65.3 C 184.8 63.5 186.2 62.1 188.5 62.1 C 190 62.1 191.2 62.7 192 63.6 C 192 63.6 191.2 64.8 191.2 64.8 C 190.6 64 189.6 63.5 188.5 63.5 C 187.2 63.5 186.4 64.3 186.4 65.2 C 186.4 67.7 192.2 66.8 192.2 71 C 192.2 72.9 190.7 74.3 188.4 74.3 C 186.7 74.3 185.4 73.8 184.5 72.7 Z M 195 71.7 C 195.02 71.7 195 63.9 195 63.9 L 193.5 63.9 L 193.5 62.4 L 195 62.4 L 195 59.3 L 196.7 59.3 L 196.7 62.4 L 198.7 62.4 L 198.7 63.9 L 196.7 63.9 C 196.7 63.9 196.75 71.39 196.7 71.4 C 196.7 72.3 197 72.8 197.7 72.8 C 198.1 72.8 198.5 72.6 198.7 72.3 C 198.7 72.3 199.2 73.6 199.2 73.6 C 198.8 74 198.2 74.3 197.3 74.3 C 195.8 74.3 195 73.4 195 71.7 Z M 201.6 77 C 201.6 77 200.8 76.4 200.8 76.4 C 201.5 75.8 202.2 74.9 202.3 74.1 C 202.3 74.1 202.1 74.1 202 74.1 C 201.4 74.1 200.9 73.6 200.9 73 C 200.9 72.3 201.4 71.7 202.1 71.7 C 202.9 71.7 203.6 72.3 203.6 73.5 C 203.6 74.9 202.7 76.3 201.6 77 Z M 215.9 72.3 C 215.9 72.3 217 70.8 217 70.8 C 217.8 71.8 219.1 72.6 220.7 72.6 C 222.7 72.6 223.6 71.4 223.6 70 C 223.6 66.1 216.4 67.1 216.4 62 C 216.4 59.5 218.3 57.8 221 57.8 C 222.7 57.8 224.2 58.4 225.2 59.4 C 225.2 59.4 224.2 60.9 224.2 60.9 C 223.4 59.9 222.2 59.5 220.9 59.5 C 219.4 59.5 218.3 60.4 218.3 61.9 C 218.3 65.2 225.5 64.5 225.5 69.9 C 225.5 72.2 224 74.3 220.7 74.3 C 218.6 74.3 217 73.5 215.9 72.3 Z M 227.7 59.6 C 227.7 58.9 228.3 58.4 228.9 58.4 C 229.6 58.4 230.1 58.9 230.1 59.6 C 230.1 60.2 229.6 60.8 228.9 60.8 C 228.3 60.8 227.7 60.2 227.7 59.6 Z M 228.1 74 L 228.1 62.4 L 229.8 62.4 L 229.8 74 L 228.1 74 Z M 239.2 74 C 239.2 74 239.2 65.77 239.2 65.8 C 239.2 64.2 238.5 63.7 237.4 63.7 C 236.2 63.7 235.2 64.6 234.6 65.5 C 234.64 65.53 234.6 74 234.6 74 L 232.9 74 L 232.9 62.4 L 234.6 62.4 C 234.6 62.4 234.64 64.09 234.6 64.1 C 235.3 63.1 236.6 62.1 238 62.1 C 240 62.1 240.9 63.2 240.9 65.3 C 240.93 65.29 240.9 74 240.9 74 L 239.2 74 Z M 244 77.3 C 244 77.3 244.8 75.9 244.8 75.9 C 245.6 76.8 246.5 77.3 247.8 77.3 C 249.4 77.3 250.7 76.4 250.7 74.1 C 250.7 74.1 250.7 72.2 250.7 72.2 C 250 73.4 248.9 74.2 247.7 74.2 C 245.1 74.2 243.5 71.8 243.5 68.2 C 243.5 64.6 245.1 62.1 247.7 62.1 C 248.8 62.1 250 62.8 250.7 64.1 C 250.72 64.11 250.7 62.4 250.7 62.4 L 252.4 62.4 C 252.4 62.4 252.45 74 252.4 74 C 252.4 77.6 250.3 78.7 247.9 78.7 C 246.3 78.7 245.1 78.4 244 77.3 Z M 250.7 70.7 C 250.7 70.7 250.7 65.6 250.7 65.6 C 250.3 64.6 249.2 63.7 248.1 63.7 C 246.2 63.7 245.3 65.7 245.3 68.2 C 245.3 70.7 246.2 72.6 248.1 72.6 C 249.2 72.6 250.3 71.7 250.7 70.7 Z M 261.5 74 C 261.5 74 261.54 72.78 261.5 72.8 C 260.8 73.8 259.7 74.3 258.5 74.3 C 256.6 74.3 255 72.9 255 70.4 C 255 68 256.6 66.6 258.5 66.6 C 259.7 66.6 260.8 67.1 261.5 68.1 C 261.5 68.1 261.5 66.1 261.5 66.1 C 261.5 64.5 260.7 63.6 259.2 63.6 C 258.1 63.6 257.2 64 256.3 65 C 256.3 65 255.5 63.8 255.5 63.8 C 256.6 62.7 258 62.1 259.4 62.1 C 261.7 62.1 263.3 63.3 263.3 65.9 C 263.27 65.91 263.3 74 263.3 74 L 261.5 74 Z M 261.5 71.6 C 261.5 71.6 261.5 69.4 261.5 69.4 C 261 68.4 260.1 67.9 259 67.9 C 257.6 67.9 256.7 69 256.7 70.5 C 256.7 71.9 257.6 73.1 259 73.1 C 260.1 73.1 261 72.6 261.5 71.6 Z M 268.1 72.3 C 268.12 72.35 268.1 78.4 268.1 78.4 L 266.4 78.4 L 266.4 62.4 L 268.1 62.4 C 268.1 62.4 268.12 64.09 268.1 64.1 C 268.8 62.9 269.9 62.1 271.2 62.1 C 273.8 62.1 275.3 64.6 275.3 68.2 C 275.3 71.8 273.8 74.3 271.2 74.3 C 270 74.3 268.8 73.6 268.1 72.3 Z M 273.5 68.2 C 273.5 65.7 272.6 63.7 270.7 63.7 C 269.7 63.7 268.6 64.5 268.1 65.6 C 268.1 65.6 268.1 70.9 268.1 70.9 C 268.6 71.9 269.7 72.8 270.7 72.8 C 272.6 72.8 273.5 70.7 273.5 68.2 Z M 277.3 68.2 C 277.3 65 278.9 62.1 282 62.1 C 285.1 62.1 286.7 65 286.7 68.2 C 286.7 71.5 285.1 74.3 282 74.3 C 278.9 74.3 277.3 71.5 277.3 68.2 Z M 284.9 68.2 C 284.9 65.9 284.1 63.7 282 63.7 C 280 63.7 279.1 65.9 279.1 68.2 C 279.1 70.6 280 72.8 282 72.8 C 284.1 72.8 284.9 70.6 284.9 68.2 Z M 289.3 74 L 289.3 62.4 L 291 62.4 C 291 62.4 291.04 64.28 291 64.3 C 291.8 63.1 292.9 62.2 294.3 62.2 C 294.3 62.2 294.3 64 294.3 64 C 294.1 63.9 293.9 63.9 293.8 63.9 C 292.7 63.9 291.5 64.8 291 65.8 C 291.04 65.79 291 74 291 74 L 289.3 74 Z M 295.7 68.2 C 295.7 64.9 297.5 62.1 300.4 62.1 C 303.5 62.1 305 64.9 305 68.3 C 305.03 68.27 305 68.8 305 68.8 C 305 68.8 297.52 68.79 297.5 68.8 C 297.6 71.1 298.8 72.9 300.9 72.9 C 301.9 72.9 302.9 72.4 303.6 71.5 C 303.6 71.5 304.5 72.5 304.5 72.5 C 303.6 73.6 302.3 74.3 300.7 74.3 C 297.6 74.3 295.7 71.8 295.7 68.2 Z M 300.4 63.6 C 298.4 63.6 297.6 65.8 297.5 67.5 C 297.5 67.5 303.3 67.5 303.3 67.5 C 303.3 65.7 302.5 63.6 300.4 63.6 Z M 308.1 77 C 308.1 77 307.2 76.4 307.2 76.4 C 308 75.8 308.7 74.9 308.8 74.1 C 308.7 74.1 308.6 74.1 308.5 74.1 C 307.8 74.1 307.3 73.6 307.3 73 C 307.3 72.3 307.9 71.7 308.6 71.7 C 309.4 71.7 310 72.3 310 73.5 C 310 74.9 309.2 76.3 308.1 77 Z M 317.5 68.2 C 317.5 64.8 319.3 62.1 322.3 62.1 C 323.9 62.1 324.9 62.8 325.6 63.7 C 325.6 63.7 324.7 64.9 324.7 64.9 C 324.1 64 323.3 63.7 322.5 63.7 C 320.4 63.7 319.3 65.7 319.3 68.2 C 319.3 70.7 320.4 72.8 322.5 72.8 C 323.3 72.8 324.1 72.4 324.7 71.6 C 324.7 71.6 325.6 72.8 325.6 72.8 C 324.9 73.7 323.9 74.3 322.3 74.3 C 319.3 74.3 317.5 71.6 317.5 68.2 Z M 327.5 59.6 C 327.5 58.9 328 58.4 328.7 58.4 C 329.3 58.4 329.8 58.9 329.8 59.6 C 329.8 60.2 329.3 60.8 328.7 60.8 C 328 60.8 327.5 60.2 327.5 59.6 Z M 327.8 74 L 327.8 62.4 L 329.5 62.4 L 329.5 74 L 327.8 74 Z M 332.7 74 L 332.7 62.4 L 334.4 62.4 C 334.4 62.4 334.41 64.28 334.4 64.3 C 335.1 63.1 336.3 62.2 337.7 62.2 C 337.7 62.2 337.7 64 337.7 64 C 337.5 63.9 337.3 63.9 337.1 63.9 C 336.1 63.9 334.9 64.8 334.4 65.8 C 334.41 65.79 334.4 74 334.4 74 L 332.7 74 Z M 339.1 68.2 C 339.1 64.8 340.9 62.1 343.9 62.1 C 345.5 62.1 346.5 62.8 347.2 63.7 C 347.2 63.7 346.3 64.9 346.3 64.9 C 345.7 64 344.9 63.7 344.1 63.7 C 342 63.7 340.9 65.7 340.9 68.2 C 340.9 70.7 342 72.8 344.1 72.8 C 344.9 72.8 345.7 72.4 346.3 71.6 C 346.3 71.6 347.2 72.8 347.2 72.8 C 346.5 73.7 345.5 74.3 343.9 74.3 C 340.9 74.3 339.1 71.6 339.1 68.2 Z M 355.4 74 C 355.4 74 355.38 72.78 355.4 72.8 C 354.6 73.8 353.5 74.3 352.3 74.3 C 350.5 74.3 348.8 72.9 348.8 70.4 C 348.8 68 350.4 66.6 352.3 66.6 C 353.5 66.6 354.7 67.1 355.4 68.1 C 355.4 68.1 355.4 66.1 355.4 66.1 C 355.4 64.5 354.5 63.6 353 63.6 C 351.9 63.6 351 64 350.1 65 C 350.1 65 349.3 63.8 349.3 63.8 C 350.4 62.7 351.8 62.1 353.3 62.1 C 355.6 62.1 357.1 63.3 357.1 65.9 C 357.11 65.91 357.1 74 357.1 74 L 355.4 74 Z M 355.4 71.6 C 355.4 71.6 355.4 69.4 355.4 69.4 C 354.9 68.4 353.9 67.9 352.9 67.9 C 351.4 67.9 350.6 69 350.6 70.5 C 350.6 71.9 351.4 73.1 352.9 73.1 C 353.9 73.1 354.9 72.6 355.4 71.6 Z M 364 72.8 C 364 72.8 364.9 71.4 364.9 71.4 C 365.5 72.1 366.3 72.6 367.3 72.6 C 368.8 72.6 369.8 71.6 369.8 69.9 C 369.8 69.87 369.8 58 369.8 58 L 371.7 58 C 371.7 58 371.7 69.92 371.7 69.9 C 371.7 72.9 369.9 74.3 367.4 74.3 C 366.1 74.3 365 73.9 364 72.8 Z M 380.9 74 C 380.9 74 380.92 72.78 380.9 72.8 C 380.2 73.8 379 74.3 377.9 74.3 C 376 74.3 374.4 72.9 374.4 70.4 C 374.4 68 376 66.6 377.9 66.6 C 379 66.6 380.2 67.1 380.9 68.1 C 380.9 68.1 380.9 66.1 380.9 66.1 C 380.9 64.5 380.1 63.6 378.5 63.6 C 377.5 63.6 376.5 64 375.6 65 C 375.6 65 374.9 63.8 374.9 63.8 C 376 62.7 377.3 62.1 378.8 62.1 C 381.1 62.1 382.6 63.3 382.6 65.9 C 382.64 65.91 382.6 74 382.6 74 L 380.9 74 Z M 380.9 71.6 C 380.9 71.6 380.9 69.4 380.9 69.4 C 380.4 68.4 379.4 67.9 378.4 67.9 C 377 67.9 376.1 69 376.1 70.5 C 376.1 71.9 377 73.1 378.4 73.1 C 379.4 73.1 380.4 72.6 380.9 71.6 Z M 392.1 74 C 392.1 74 392.05 65.77 392.1 65.8 C 392.1 64.2 391.4 63.7 390.2 63.7 C 389.1 63.7 388 64.6 387.5 65.5 C 387.49 65.53 387.5 74 387.5 74 L 385.8 74 L 385.8 62.4 L 387.5 62.4 C 387.5 62.4 387.49 64.09 387.5 64.1 C 388.2 63.1 389.5 62.1 390.9 62.1 C 392.8 62.1 393.8 63.2 393.8 65.3 C 393.78 65.29 393.8 74 393.8 74 L 392.1 74 Z M 403.2 74 C 403.2 74 403.21 72.42 403.2 72.4 C 402.5 73.4 401.3 74.3 399.9 74.3 C 397.9 74.3 396.9 73.3 396.9 71.2 C 396.95 71.22 396.9 62.4 396.9 62.4 L 398.7 62.4 C 398.7 62.4 398.65 70.71 398.7 70.7 C 398.7 72.2 399.4 72.8 400.5 72.8 C 401.7 72.8 402.7 71.9 403.2 71 C 403.21 70.98 403.2 62.4 403.2 62.4 L 404.9 62.4 L 404.9 74 L 403.2 74 Z M 414.1 74 C 414.1 74 414.06 72.78 414.1 72.8 C 413.3 73.8 412.2 74.3 411 74.3 C 409.1 74.3 407.5 72.9 407.5 70.4 C 407.5 68 409.1 66.6 411 66.6 C 412.2 66.6 413.3 67.1 414.1 68.1 C 414.1 68.1 414.1 66.1 414.1 66.1 C 414.1 64.5 413.2 63.6 411.7 63.6 C 410.6 63.6 409.7 64 408.8 65 C 408.8 65 408 63.8 408 63.8 C 409.1 62.7 410.5 62.1 411.9 62.1 C 414.3 62.1 415.8 63.3 415.8 65.9 C 415.79 65.91 415.8 74 415.8 74 L 414.1 74 Z M 414.1 71.6 C 414.1 71.6 414.1 69.4 414.1 69.4 C 413.5 68.4 412.6 67.9 411.6 67.9 C 410.1 67.9 409.3 69 409.3 70.5 C 409.3 71.9 410.1 73.1 411.6 73.1 C 412.6 73.1 413.5 72.6 414.1 71.6 Z M 418.9 74 L 418.9 62.4 L 420.6 62.4 C 420.6 62.4 420.64 64.28 420.6 64.3 C 421.4 63.1 422.5 62.2 423.9 62.2 C 423.9 62.2 423.9 64 423.9 64 C 423.7 63.9 423.5 63.9 423.3 63.9 C 422.3 63.9 421.1 64.8 420.6 65.8 C 420.64 65.79 420.6 74 420.6 74 L 418.9 74 Z M 425.6 77 C 425.8 77.1 426.2 77.2 426.3 77.2 C 427 77.2 427.4 76.9 427.7 76 C 427.72 76.04 428.3 74.3 428.3 74.3 L 424.5 62.4 L 426.3 62.4 L 429.2 71.9 L 432.1 62.4 L 434 62.4 C 434 62.4 429.35 76.47 429.3 76.5 C 428.8 78.2 427.8 78.7 426.5 78.7 C 426.1 78.7 425.6 78.7 425.3 78.6 C 425.3 78.6 425.6 77 425.6 77 Z M 440.6 74 C 440.6 74 440.56 72.47 440.6 72.5 C 445.8 66.4 447.6 64.5 447.6 62.1 C 447.6 60.4 446.4 59.5 445 59.5 C 443.5 59.5 442.4 60.2 441.6 61.5 C 441.6 61.5 440.4 60.3 440.4 60.3 C 441.4 58.7 443 57.8 445 57.8 C 447.5 57.8 449.5 59.4 449.5 62.1 C 449.5 64.8 447.5 67.2 443.3 72.3 C 443.27 72.32 449.6 72.3 449.6 72.3 L 449.6 74 L 440.6 74 Z M 452.1 66 C 452.1 62.2 453.4 57.8 457.2 57.8 C 460.9 57.8 462.2 62.2 462.2 66 C 462.2 69.9 460.9 74.3 457.2 74.3 C 453.4 74.3 452.1 69.9 452.1 66 Z M 460.2 66 C 460.2 62.9 459.6 59.5 457.2 59.5 C 454.7 59.5 454.1 62.9 454.1 66 C 454.1 69.2 454.7 72.6 457.2 72.6 C 459.6 72.6 460.2 69.2 460.2 66 Z M 467.3 74 L 467.3 60.5 L 464.8 63.2 L 463.7 62 L 467.5 58 L 469.2 58 L 469.2 74 L 467.3 74 Z M 472.4 72.3 C 472.4 72.3 473.5 71 473.5 71 C 474.1 72 474.8 72.6 476.1 72.6 C 478.7 72.6 479.6 69.2 479.6 66.2 C 479.6 66 479.6 65.9 479.6 65.7 C 479.1 66.8 477.7 68.1 476.1 68.1 C 473.7 68.1 471.9 66.4 471.9 63 C 471.9 60.2 473.5 57.8 476.5 57.8 C 480.3 57.8 481.5 61.8 481.5 66 C 481.5 70.3 480 74.3 476.1 74.3 C 474.4 74.3 473.2 73.5 472.4 72.3 Z M 479.6 64 C 479.5 62.2 478.8 59.5 476.6 59.5 C 474.7 59.5 473.8 61.3 473.8 62.9 C 473.8 65.5 475 66.4 476.6 66.4 C 477.9 66.4 479 65.3 479.6 64 Z M 491.8 78.8 C 489.9 75.7 488.9 72.1 488.9 68.2 C 488.9 64.3 489.9 60.7 491.8 57.6 C 491.8 57.6 492.9 58.2 492.9 58.2 C 491.6 61.3 490.8 64.2 490.8 68.2 C 490.8 72.2 491.6 75.1 492.9 78.1 C 492.9 78.1 491.8 78.8 491.8 78.8 Z M 494.9 74 L 494.9 62.4 L 496.6 62.4 C 496.6 62.4 496.62 64.28 496.6 64.3 C 497.4 63.1 498.5 62.2 499.9 62.2 C 499.9 62.2 499.9 64 499.9 64 C 499.7 63.9 499.5 63.9 499.3 63.9 C 498.3 63.9 497.1 64.8 496.6 65.8 C 496.62 65.79 496.6 74 496.6 74 L 494.9 74 Z M 501.3 68.2 C 501.3 64.9 503.1 62.1 506 62.1 C 509.1 62.1 510.6 64.9 510.6 68.3 C 510.61 68.27 510.6 68.8 510.6 68.8 C 510.6 68.8 503.1 68.79 503.1 68.8 C 503.2 71.1 504.4 72.9 506.4 72.9 C 507.4 72.9 508.5 72.4 509.2 71.5 C 509.2 71.5 510.1 72.5 510.1 72.5 C 509.2 73.6 507.8 74.3 506.3 74.3 C 503.2 74.3 501.3 71.8 501.3 68.2 Z M 506 63.6 C 504 63.6 503.1 65.8 503.1 67.5 C 503.1 67.5 508.9 67.5 508.9 67.5 C 508.9 65.7 508.1 63.6 506 63.6 Z M 512.6 68.2 C 512.6 64.8 514.4 62.1 517.4 62.1 C 519 62.1 519.9 62.8 520.7 63.7 C 520.7 63.7 519.7 64.9 519.7 64.9 C 519.1 64 518.4 63.7 517.5 63.7 C 515.4 63.7 514.4 65.7 514.4 68.2 C 514.4 70.7 515.4 72.8 517.5 72.8 C 518.4 72.8 519.1 72.4 519.7 71.6 C 519.7 71.6 520.7 72.8 520.7 72.8 C 519.9 73.7 519 74.3 517.4 74.3 C 514.4 74.3 512.6 71.6 512.6 68.2 Z M 522.3 68.2 C 522.3 65 523.9 62.1 527 62.1 C 530.1 62.1 531.7 65 531.7 68.2 C 531.7 71.5 530.1 74.3 527 74.3 C 523.9 74.3 522.3 71.5 522.3 68.2 Z M 529.9 68.2 C 529.9 65.9 529 63.7 527 63.7 C 525 63.7 524.1 65.9 524.1 68.2 C 524.1 70.6 525 72.8 527 72.8 C 529 72.8 529.9 70.6 529.9 68.2 Z M 536.7 74 L 532.9 62.4 L 534.8 62.4 L 537.6 72 L 540.5 62.4 L 542.4 62.4 L 538.6 74 L 536.7 74 Z M 543.5 68.2 C 543.5 64.9 545.3 62.1 548.2 62.1 C 551.3 62.1 552.8 64.9 552.8 68.3 C 552.82 68.27 552.8 68.8 552.8 68.8 C 552.8 68.8 545.31 68.79 545.3 68.8 C 545.4 71.1 546.6 72.9 548.6 72.9 C 549.7 72.9 550.7 72.4 551.4 71.5 C 551.4 71.5 552.3 72.5 552.3 72.5 C 551.4 73.6 550.1 74.3 548.5 74.3 C 545.4 74.3 543.5 71.8 543.5 68.2 Z M 548.2 63.6 C 546.2 63.6 545.4 65.8 545.3 67.5 C 545.3 67.5 551.1 67.5 551.1 67.5 C 551.1 65.7 550.3 63.6 548.2 63.6 Z M 555.3 74 L 555.3 62.4 L 557 62.4 C 557 62.4 557.05 64.28 557 64.3 C 557.8 63.1 558.9 62.2 560.3 62.2 C 560.3 62.2 560.3 64 560.3 64 C 560.1 63.9 560 63.9 559.8 63.9 C 558.7 63.9 557.5 64.8 557 65.8 C 557.05 65.79 557 74 557 74 L 555.3 74 Z M 561.8 68.2 C 561.8 64.9 563.5 62.1 566.5 62.1 C 569.5 62.1 571 64.9 571 68.3 C 571.04 68.27 571 68.8 571 68.8 C 571 68.8 563.53 68.79 563.5 68.8 C 563.6 71.1 564.8 72.9 566.9 72.9 C 567.9 72.9 568.9 72.4 569.6 71.5 C 569.6 71.5 570.5 72.5 570.5 72.5 C 569.6 73.6 568.3 74.3 566.7 74.3 C 563.6 74.3 561.8 71.8 561.8 68.2 Z M 566.4 63.6 C 564.4 63.6 563.6 65.8 563.5 67.5 C 563.5 67.5 569.3 67.5 569.3 67.5 C 569.3 65.7 568.5 63.6 566.4 63.6 Z M 580.2 74 C 580.2 74 580.18 72.37 580.2 72.4 C 579.5 73.5 578.4 74.3 577.1 74.3 C 574.5 74.3 573 71.9 573 68.2 C 573 64.6 574.5 62.1 577.1 62.1 C 578.3 62.1 579.5 62.8 580.2 64.1 C 580.18 64.11 580.2 58 580.2 58 L 581.9 58 L 581.9 74 L 580.2 74 Z M 580.2 70.9 C 580.2 70.9 580.2 65.6 580.2 65.6 C 579.8 64.6 578.7 63.7 577.6 63.7 C 575.7 63.7 574.8 65.7 574.8 68.2 C 574.8 70.7 575.7 72.8 577.6 72.8 C 578.7 72.8 579.8 71.9 580.2 70.9 Z M 583.9 78.1 C 585.2 75.1 586 72.2 586 68.2 C 586 64.2 585.2 61.3 583.9 58.2 C 583.9 58.2 585 57.6 585 57.6 C 586.9 60.7 587.9 64.3 587.9 68.2 C 587.9 72.1 586.9 75.7 585 78.8 C 585 78.8 583.9 78.1 583.9 78.1 Z " stroke="none" fill="#7c7979"/>  </g>  <g id="Polygon146610">    <path d="M 173.2 41.9 C 173.2 41.9 174.5 40 174.5 40 C 175.5 41.3 177.2 42.3 179.1 42.3 C 181.6 42.3 182.8 40.7 182.8 39 C 182.8 34.1 173.8 35.4 173.8 28.9 C 173.8 25.9 176.2 23.7 179.5 23.7 C 181.7 23.7 183.5 24.4 184.8 25.8 C 184.8 25.8 183.6 27.6 183.6 27.6 C 182.5 26.4 181 25.8 179.4 25.8 C 177.6 25.8 176.2 27 176.2 28.8 C 176.2 33 185.2 32.1 185.2 38.8 C 185.2 41.8 183.3 44.4 179.1 44.4 C 176.5 44.4 174.5 43.4 173.2 41.9 Z M 187.6 36.8 C 187.6 32.7 189.7 29.2 193.5 29.2 C 197.4 29.2 199.4 32.7 199.4 36.8 C 199.4 40.8 197.4 44.4 193.5 44.4 C 189.7 44.4 187.6 40.8 187.6 36.8 Z M 197.2 36.8 C 197.2 33.9 196.1 31.1 193.5 31.1 C 191 31.1 189.9 33.9 189.9 36.8 C 189.9 39.7 191 42.5 193.5 42.5 C 196.1 42.5 197.2 39.7 197.2 36.8 Z M 203.2 44 L 203.2 31.4 L 201.3 31.4 L 201.3 29.5 L 203.2 29.5 C 203.2 29.5 203.19 27.77 203.2 27.8 C 203.2 25.2 204.6 23.7 206.8 23.7 C 207.8 23.7 208.7 24 209.4 24.7 C 209.4 24.7 208.6 26.2 208.6 26.2 C 208.2 25.8 207.7 25.5 207.1 25.5 C 205.9 25.5 205.3 26.4 205.3 27.8 C 205.35 27.77 205.3 29.5 205.3 29.5 L 207.8 29.5 L 207.8 31.4 L 205.3 31.4 L 205.3 44 L 203.2 44 Z M 210.7 41.1 C 210.72 41.12 210.7 31.4 210.7 31.4 L 208.8 31.4 L 208.8 29.5 L 210.7 29.5 L 210.7 25.6 L 212.9 25.6 L 212.9 29.5 L 215.3 29.5 L 215.3 31.4 L 212.9 31.4 C 212.9 31.4 212.88 40.73 212.9 40.7 C 212.9 41.8 213.2 42.5 214 42.5 C 214.6 42.5 215 42.2 215.3 41.9 C 215.3 41.9 216 43.5 216 43.5 C 215.5 44 214.7 44.4 213.6 44.4 C 211.6 44.4 210.7 43.3 210.7 41.1 Z M 217.1 37.7 L 217.1 35.8 L 223.3 35.8 L 223.3 37.7 L 217.1 37.7 Z M 231.6 42.5 C 234 42.5 235.1 39.9 235.1 36.8 C 235.1 33.6 234 31.1 231.6 31.1 C 230.2 31.1 228.9 32.2 228.3 33.5 C 228.3 33.5 228.3 40.1 228.3 40.1 C 228.9 41.4 230.2 42.5 231.6 42.5 Z M 226.2 44 L 226.2 24 L 228.3 24 C 228.3 24 228.32 31.64 228.3 31.6 C 229.2 30 230.7 29.2 232.1 29.2 C 235.4 29.2 237.3 32.3 237.3 36.8 C 237.3 41.4 235.4 44.4 232.1 44.4 C 230.6 44.4 229.2 43.4 228.3 42 C 228.32 41.96 228.3 44 228.3 44 L 226.2 44 Z M 239.9 36.8 C 239.9 32.7 241.9 29.2 245.8 29.2 C 249.7 29.2 251.7 32.7 251.7 36.8 C 251.7 40.8 249.7 44.4 245.8 44.4 C 241.9 44.4 239.9 40.8 239.9 36.8 Z M 249.4 36.8 C 249.4 33.9 248.3 31.1 245.8 31.1 C 243.3 31.1 242.1 33.9 242.1 36.8 C 242.1 39.7 243.3 42.5 245.8 42.5 C 248.3 42.5 249.4 39.7 249.4 36.8 Z M 254.5 26 C 254.5 25.2 255.2 24.5 256 24.5 C 256.8 24.5 257.4 25.2 257.4 26 C 257.4 26.8 256.8 27.4 256 27.4 C 255.2 27.4 254.5 26.8 254.5 26 Z M 254.9 44 L 254.9 29.5 L 257 29.5 L 257 44 L 254.9 44 Z M 261 44 L 261 24 L 263.1 24 L 263.1 44 L 261 44 Z M 266.4 36.8 C 266.4 32.6 268.6 29.2 272.2 29.2 C 276.1 29.2 278 32.6 278 36.8 C 277.97 36.83 278 37.5 278 37.5 C 278 37.5 268.58 37.49 268.6 37.5 C 268.7 40.4 270.2 42.6 272.8 42.6 C 274 42.6 275.3 42 276.2 40.8 C 276.2 40.8 277.3 42.1 277.3 42.1 C 276.2 43.5 274.5 44.4 272.6 44.4 C 268.7 44.4 266.4 41.2 266.4 36.8 Z M 272.2 31 C 269.7 31 268.6 33.8 268.6 35.9 C 268.6 35.9 275.8 35.9 275.8 35.9 C 275.8 33.7 274.9 31 272.2 31 Z M 289.4 44 C 289.4 44 289.4 41.96 289.4 42 C 288.6 43.4 287.1 44.4 285.6 44.4 C 282.4 44.4 280.4 41.4 280.4 36.8 C 280.4 32.3 282.3 29.2 285.6 29.2 C 287.1 29.2 288.5 30 289.4 31.6 C 289.4 31.64 289.4 24 289.4 24 L 291.6 24 L 291.6 44 L 289.4 44 Z M 289.4 40.1 C 289.4 40.1 289.4 33.5 289.4 33.5 C 288.9 32.2 287.5 31.1 286.1 31.1 C 283.8 31.1 282.7 33.6 282.7 36.8 C 282.7 39.9 283.8 42.5 286.1 42.5 C 287.5 42.5 288.9 41.4 289.4 40.1 Z M 301.3 36.8 C 301.3 32.6 303.5 29.2 307.1 29.2 C 310.9 29.2 312.9 32.6 312.9 36.8 C 312.86 36.83 312.9 37.5 312.9 37.5 C 312.9 37.5 303.47 37.49 303.5 37.5 C 303.6 40.4 305.1 42.6 307.6 42.6 C 308.9 42.6 310.2 42 311.1 40.8 C 311.1 40.8 312.2 42.1 312.2 42.1 C 311.1 43.5 309.4 44.4 307.5 44.4 C 303.6 44.4 301.3 41.2 301.3 36.8 Z M 307.1 31 C 304.6 31 303.5 33.8 303.5 35.9 C 303.5 35.9 310.7 35.9 310.7 35.9 C 310.7 33.7 309.7 31 307.1 31 Z M 315.9 48.1 C 315.9 48.1 316.9 46.4 316.9 46.4 C 317.8 47.5 319.1 48.1 320.7 48.1 C 322.6 48.1 324.3 46.9 324.3 44.1 C 324.3 44.1 324.3 41.7 324.3 41.7 C 323.5 43.2 322 44.2 320.5 44.2 C 317.2 44.2 315.3 41.3 315.3 36.7 C 315.3 32.2 317.2 29.2 320.5 29.2 C 322 29.2 323.4 30 324.3 31.6 C 324.29 31.64 324.3 29.5 324.3 29.5 L 326.5 29.5 C 326.5 29.5 326.45 44 326.5 44 C 326.5 48.5 323.8 49.9 320.7 49.9 C 318.8 49.9 317.3 49.5 315.9 48.1 Z M 324.3 39.9 C 324.3 39.9 324.3 33.5 324.3 33.5 C 323.8 32.2 322.4 31.1 321 31.1 C 318.7 31.1 317.5 33.6 317.5 36.7 C 317.5 39.8 318.7 42.3 321 42.3 C 322.4 42.3 323.8 41.1 324.3 39.9 Z M 330.3 48.1 C 330.3 48.1 331.3 46.4 331.3 46.4 C 332.2 47.5 333.4 48.1 335 48.1 C 337 48.1 338.7 46.9 338.7 44.1 C 338.7 44.1 338.7 41.7 338.7 41.7 C 337.8 43.2 336.4 44.2 334.9 44.2 C 331.6 44.2 329.7 41.3 329.7 36.7 C 329.7 32.2 331.6 29.2 334.9 29.2 C 336.3 29.2 337.8 30 338.7 31.6 C 338.66 31.64 338.7 29.5 338.7 29.5 L 340.8 29.5 C 340.8 29.5 340.82 44 340.8 44 C 340.8 48.5 338.1 49.9 335.1 49.9 C 333.1 49.9 331.6 49.5 330.3 48.1 Z M 338.7 39.9 C 338.7 39.9 338.7 33.5 338.7 33.5 C 338.1 32.2 336.8 31.1 335.4 31.1 C 333 31.1 331.9 33.6 331.9 36.7 C 331.9 39.8 333 42.3 335.4 42.3 C 336.8 42.3 338.1 41.1 338.7 39.9 Z M 358.6 44 C 358.6 44 358.64 42.47 358.6 42.5 C 357.7 43.8 356.3 44.4 354.8 44.4 C 352.5 44.4 350.5 42.6 350.5 39.6 C 350.5 36.5 352.5 34.8 354.8 34.8 C 356.3 34.8 357.7 35.4 358.6 36.6 C 358.6 36.6 358.6 34.1 358.6 34.1 C 358.6 32.1 357.6 31 355.7 31 C 354.3 31 353.2 31.5 352 32.8 C 352 32.8 351.1 31.3 351.1 31.3 C 352.5 29.8 354.2 29.2 356 29.2 C 358.9 29.2 360.8 30.6 360.8 33.9 C 360.8 33.89 360.8 44 360.8 44 L 358.6 44 Z M 358.6 41 C 358.6 41 358.6 38.2 358.6 38.2 C 358 37 356.8 36.4 355.5 36.4 C 353.7 36.4 352.6 37.8 352.6 39.6 C 352.6 41.4 353.7 42.8 355.5 42.8 C 356.8 42.8 358 42.2 358.6 41 Z M 372.6 44 C 372.6 44 372.56 33.71 372.6 33.7 C 372.6 31.8 371.7 31.1 370.3 31.1 C 368.8 31.1 367.5 32.2 366.9 33.4 C 366.86 33.41 366.9 44 366.9 44 L 364.7 44 L 364.7 29.5 L 366.9 29.5 C 366.9 29.5 366.86 31.61 366.9 31.6 C 367.7 30.3 369.3 29.2 371.1 29.2 C 373.5 29.2 374.7 30.5 374.7 33.1 C 374.72 33.11 374.7 44 374.7 44 L 372.6 44 Z M 387 44 C 387 44 386.96 41.96 387 42 C 386.1 43.4 384.7 44.4 383.2 44.4 C 379.9 44.4 378 41.4 378 36.8 C 378 32.3 379.9 29.2 383.2 29.2 C 384.6 29.2 386.1 30 387 31.6 C 386.96 31.64 387 24 387 24 L 389.1 24 L 389.1 44 L 387 44 Z M 387 40.1 C 387 40.1 387 33.5 387 33.5 C 386.4 32.2 385.1 31.1 383.7 31.1 C 381.3 31.1 380.2 33.6 380.2 36.8 C 380.2 39.9 381.3 42.5 383.7 42.5 C 385.1 42.5 386.4 41.4 387 40.1 Z M 407.7 44 L 403.7 37.5 L 401.7 40.1 L 401.7 44 L 399.5 44 L 399.5 24 L 401.7 24 L 401.7 37.4 L 407.7 29.5 L 410.2 29.5 L 405.2 36 L 410.2 44 L 407.7 44 Z M 420.1 44 C 420.1 44 420.11 42.47 420.1 42.5 C 419.2 43.8 417.8 44.4 416.3 44.4 C 414 44.4 411.9 42.6 411.9 39.6 C 411.9 36.5 413.9 34.8 416.3 34.8 C 417.8 34.8 419.2 35.4 420.1 36.6 C 420.1 36.6 420.1 34.1 420.1 34.1 C 420.1 32.1 419 31 417.1 31 C 415.8 31 414.6 31.5 413.5 32.8 C 413.5 32.8 412.6 31.3 412.6 31.3 C 413.9 29.8 415.6 29.2 417.5 29.2 C 420.4 29.2 422.3 30.6 422.3 33.9 C 422.27 33.89 422.3 44 422.3 44 L 420.1 44 Z M 420.1 41 C 420.1 41 420.1 38.2 420.1 38.2 C 419.5 37 418.3 36.4 417 36.4 C 415.2 36.4 414.1 37.8 414.1 39.6 C 414.1 41.4 415.2 42.8 417 42.8 C 418.3 42.8 419.5 42.2 420.1 41 Z M 425.8 47.8 C 426.1 47.9 426.5 48 426.7 48 C 427.6 48 428.1 47.7 428.5 46.5 C 428.45 46.55 429.2 44.3 429.2 44.3 L 424.4 29.5 L 426.7 29.5 L 430.3 41.4 L 434 29.5 L 436.3 29.5 C 436.3 29.5 430.49 47.09 430.5 47.1 C 429.8 49.2 428.6 49.9 426.9 49.9 C 426.4 49.9 425.8 49.8 425.5 49.7 C 425.5 49.7 425.8 47.8 425.8 47.8 Z M 445.9 44 C 445.9 44 445.88 42.47 445.9 42.5 C 445 43.8 443.5 44.4 442.1 44.4 C 439.7 44.4 437.7 42.6 437.7 39.6 C 437.7 36.5 439.7 34.8 442.1 34.8 C 443.5 34.8 445 35.4 445.9 36.6 C 445.9 36.6 445.9 34.1 445.9 34.1 C 445.9 32.1 444.8 31 442.9 31 C 441.6 31 440.4 31.5 439.3 32.8 C 439.3 32.8 438.3 31.3 438.3 31.3 C 439.7 29.8 441.4 29.2 443.2 29.2 C 446.1 29.2 448 30.6 448 33.9 C 448.04 33.89 448 44 448 44 L 445.9 44 Z M 445.9 41 C 445.9 41 445.9 38.2 445.9 38.2 C 445.2 37 444 36.4 442.8 36.4 C 441 36.4 439.9 37.8 439.9 39.6 C 439.9 41.4 441 42.8 442.8 42.8 C 444 42.8 445.2 42.2 445.9 41 Z M 458.8 41.1 C 458.84 41.12 458.8 31.4 458.8 31.4 L 456.9 31.4 L 456.9 29.5 L 458.8 29.5 L 458.8 25.6 L 461 25.6 L 461 29.5 L 463.5 29.5 L 463.5 31.4 L 461 31.4 C 461 31.4 461 40.73 461 40.7 C 461 41.8 461.3 42.5 462.2 42.5 C 462.7 42.5 463.2 42.2 463.4 41.9 C 463.4 41.9 464.1 43.5 464.1 43.5 C 463.6 44 462.9 44.4 461.7 44.4 C 459.8 44.4 458.8 43.3 458.8 41.1 Z M 465.6 36.8 C 465.6 32.7 467.6 29.2 471.5 29.2 C 475.4 29.2 477.4 32.7 477.4 36.8 C 477.4 40.8 475.4 44.4 471.5 44.4 C 467.6 44.4 465.6 40.8 465.6 36.8 Z M 475.1 36.8 C 475.1 33.9 474 31.1 471.5 31.1 C 469 31.1 467.8 33.9 467.8 36.8 C 467.8 39.7 469 42.5 471.5 42.5 C 474 42.5 475.1 39.7 475.1 36.8 Z M 488.1 44 C 488.1 44 488.06 42.47 488.1 42.5 C 487.1 43.8 485.7 44.4 484.2 44.4 C 481.9 44.4 479.9 42.6 479.9 39.6 C 479.9 36.5 481.9 34.8 484.2 34.8 C 485.7 34.8 487.2 35.4 488.1 36.6 C 488.1 36.6 488.1 34.1 488.1 34.1 C 488.1 32.1 487 31 485.1 31 C 483.7 31 482.6 31.5 481.5 32.8 C 481.5 32.8 480.5 31.3 480.5 31.3 C 481.9 29.8 483.6 29.2 485.4 29.2 C 488.3 29.2 490.2 30.6 490.2 33.9 C 490.22 33.89 490.2 44 490.2 44 L 488.1 44 Z M 488.1 41 C 488.1 41 488.1 38.2 488.1 38.2 C 487.4 37 486.2 36.4 484.9 36.4 C 483.1 36.4 482.1 37.8 482.1 39.6 C 482.1 41.4 483.1 42.8 484.9 42.8 C 486.2 42.8 487.4 42.2 488.1 41 Z M 493 42.3 C 493 42.3 494.1 40.8 494.1 40.8 C 494.9 41.8 496.3 42.6 497.8 42.6 C 499.5 42.6 500.6 41.7 500.6 40.3 C 500.6 36.9 493.4 38.1 493.4 33.1 C 493.4 30.9 495.1 29.2 498 29.2 C 499.9 29.2 501.4 29.9 502.4 31 C 502.4 31 501.4 32.5 501.4 32.5 C 500.7 31.5 499.5 30.9 498 30.9 C 496.5 30.9 495.5 31.8 495.5 33 C 495.5 36.1 502.7 35 502.7 40.2 C 502.7 42.6 500.8 44.4 497.9 44.4 C 495.8 44.4 494.2 43.7 493 42.3 Z M 506.2 41.1 C 506.18 41.12 506.2 31.4 506.2 31.4 L 504.3 31.4 L 504.3 29.5 L 506.2 29.5 L 506.2 25.6 L 508.3 25.6 L 508.3 29.5 L 510.8 29.5 L 510.8 31.4 L 508.3 31.4 C 508.3 31.4 508.34 40.73 508.3 40.7 C 508.3 41.8 508.7 42.5 509.5 42.5 C 510 42.5 510.5 42.2 510.8 41.9 C 510.8 41.9 511.4 43.5 511.4 43.5 C 510.9 44 510.2 44.4 509.1 44.4 C 507.1 44.4 506.2 43.3 506.2 41.1 Z " stroke="none" fill="#a8a6a6"/>  </g></svg>