<?xml version="1.0" standalone="no"?><!DOCTYPE svg PUBLIC "-//W3C//DTD SVG 1.1//EN" "http://www.w3.org/Graphics/SVG/1.1/DTD/svg11.dtd"><svg xmlns="http://www.w3.org/2000/svg" version="1.1" width="191px" height="44.3px" viewBox="0 0 191 44.3">  <desc>25 hrs 20 mins</desc>  <defs/>  <g id="Polygon160335">    <path d="M 9.8 23.7 C 9.8 23.7 9.78 20.46 9.8 20.5 C 17.1 13.3 18.6 11.8 18.6 9.5 C 18.6 7.9 17.5 7 16 7 C 14.2 7 12.8 7.8 11.7 9.2 C 11.7 9.2 9.3 6.7 9.3 6.7 C 10.9 4.5 13.3 3.4 16 3.4 C 19.9 3.4 22.7 5.7 22.7 9.4 C 22.7 12.5 20.7 15.1 15.7 20.2 C 15.72 20.16 22.8 20.2 22.8 20.2 L 22.8 23.7 L 9.8 23.7 Z M 25.2 20.9 C 25.2 20.9 27.7 18.3 27.7 18.3 C 28.7 19.7 30.1 20.5 31.8 20.5 C 33.7 20.5 34.9 19 34.9 17.3 C 34.9 15.4 33.8 14.2 32 14.2 C 30.7 14.2 29.6 14.7 28.7 15.8 C 28.71 15.84 25.8 15.1 25.8 15.1 L 25.8 3.7 L 37.8 3.7 L 37.8 7.2 L 29.8 7.2 C 29.8 7.2 29.82 12.36 29.8 12.4 C 30.6 11.4 31.9 10.7 33.5 10.7 C 36.5 10.7 38.9 13.1 38.9 17.2 C 38.9 21.2 36.2 24.1 31.9 24.1 C 28.9 24.1 26.7 22.9 25.2 20.9 Z M 56 23.7 C 56 23.7 55.98 14.1 56 14.1 C 56 12.6 55.3 12 54.1 12 C 52.9 12 51.9 13 51.4 13.8 C 51.45 13.83 51.4 23.7 51.4 23.7 L 47.8 23.7 L 47.8 3.7 L 51.4 3.7 C 51.4 3.7 51.45 11.1 51.4 11.1 C 52.2 10 53.8 8.8 55.7 8.8 C 58.4 8.8 59.6 10.3 59.6 12.7 C 59.58 12.75 59.6 23.7 59.6 23.7 L 56 23.7 Z M 62.8 23.7 L 62.8 9.2 L 66.4 9.2 C 66.4 9.2 66.42 11.19 66.4 11.2 C 67.2 9.9 68.8 8.8 70.4 8.8 C 70.4 8.8 70.4 12.4 70.4 12.4 C 70.1 12.3 69.8 12.3 69.5 12.3 C 68.4 12.3 67 13 66.4 14 C 66.42 14.04 66.4 23.7 66.4 23.7 L 62.8 23.7 Z M 71.3 22 C 71.3 22 72.8 19.5 72.8 19.5 C 73.7 20.4 75.4 21.2 76.8 21.2 C 78.2 21.2 79 20.6 79 19.7 C 79 17.3 71.8 18.6 71.8 13.2 C 71.8 10.9 73.7 8.8 77.1 8.8 C 79.1 8.8 80.8 9.6 82.1 10.7 C 82.1 10.7 80.7 13.1 80.7 13.1 C 79.9 12.3 78.6 11.6 77.1 11.6 C 76 11.6 75.2 12.2 75.2 13 C 75.2 15.2 82.4 14.1 82.4 19.6 C 82.4 22.2 80.3 24.1 76.9 24.1 C 74.5 24.1 72.5 23.3 71.3 22 Z M 90.8 23.7 C 90.8 23.7 90.78 20.46 90.8 20.5 C 98.1 13.3 99.6 11.8 99.6 9.5 C 99.6 7.9 98.5 7 97 7 C 95.2 7 93.8 7.8 92.7 9.2 C 92.7 9.2 90.3 6.7 90.3 6.7 C 91.9 4.5 94.3 3.4 97 3.4 C 100.9 3.4 103.7 5.7 103.7 9.4 C 103.7 12.5 101.7 15.1 96.7 20.2 C 96.72 20.16 103.8 20.2 103.8 20.2 L 103.8 23.7 L 90.8 23.7 Z M 106 13.7 C 106 8.5 108.2 3.4 113.1 3.4 C 118.1 3.4 120.2 8.5 120.2 13.7 C 120.2 18.8 118.1 24.1 113.1 24.1 C 108.2 24.1 106 18.8 106 13.7 Z M 116.1 13.7 C 116.1 9.8 115.5 7 113.1 7 C 110.8 7 110.2 9.8 110.2 13.7 C 110.2 17.5 110.8 20.5 113.1 20.5 C 115.5 20.5 116.1 17.5 116.1 13.7 Z M 144.6 23.7 C 144.6 23.7 144.6 13.95 144.6 13.9 C 144.6 12.7 144.1 12 142.9 12 C 141.8 12 140.9 13 140.5 13.8 C 140.46 13.83 140.5 23.7 140.5 23.7 L 136.9 23.7 C 136.9 23.7 136.86 13.95 136.9 13.9 C 136.9 12.8 136.4 12 135.2 12 C 134.1 12 133.2 13 132.7 13.8 C 132.72 13.83 132.7 23.7 132.7 23.7 L 129.1 23.7 L 129.1 9.2 L 132.7 9.2 C 132.7 9.2 132.72 11.1 132.7 11.1 C 133.3 10.1 135 8.8 136.8 8.8 C 138.6 8.8 139.9 9.7 140.3 11.4 C 141 10.1 142.7 8.8 144.5 8.8 C 146.8 8.8 148.2 10 148.2 12.7 C 148.2 12.69 148.2 23.7 148.2 23.7 L 144.6 23.7 Z M 151.1 5.4 C 151.1 4.2 152.1 3.2 153.2 3.2 C 154.4 3.2 155.4 4.2 155.4 5.4 C 155.4 6.6 154.4 7.6 153.2 7.6 C 152.1 7.6 151.1 6.6 151.1 5.4 Z M 151.4 23.7 L 151.4 9.2 L 155 9.2 L 155 23.7 L 151.4 23.7 Z M 166.4 23.7 C 166.4 23.7 166.41 14.16 166.4 14.2 C 166.4 12.6 165.7 12 164.5 12 C 163.3 12 162.4 13 161.9 13.8 C 161.88 13.83 161.9 23.7 161.9 23.7 L 158.3 23.7 L 158.3 9.2 L 161.9 9.2 C 161.9 9.2 161.88 11.1 161.9 11.1 C 162.7 10 164.3 8.8 166.1 8.8 C 168.8 8.8 170 10.4 170 12.8 C 170.01 12.81 170 23.7 170 23.7 L 166.4 23.7 Z M 172.2 22 C 172.2 22 173.7 19.5 173.7 19.5 C 174.6 20.4 176.2 21.2 177.7 21.2 C 179.1 21.2 179.8 20.6 179.8 19.7 C 179.8 17.3 172.6 18.6 172.6 13.2 C 172.6 10.9 174.5 8.8 177.9 8.8 C 180 8.8 181.7 9.6 183 10.7 C 183 10.7 181.5 13.1 181.5 13.1 C 180.8 12.3 179.5 11.6 178 11.6 C 176.8 11.6 176.1 12.2 176.1 13 C 176.1 15.2 183.3 14.1 183.3 19.6 C 183.3 22.2 181.1 24.1 177.7 24.1 C 175.4 24.1 173.4 23.3 172.2 22 Z " stroke="none" fill="#d3d2d2"/>  </g></svg>