<?xml version="1.0" standalone="no"?><!DOCTYPE svg PUBLIC "-//W3C//DTD SVG 1.1//EN" "http://www.w3.org/Graphics/SVG/1.1/DTD/svg11.dtd"><svg xmlns="http://www.w3.org/2000/svg" version="1.1" width="841px" height="256.1px" viewBox="0 0 841 256.1">  <desc>Paper Pulp Coated in Paper Crumbs with Julienned Foam and Soap Chips</desc>  <defs/>  <g id="Polygon114531">    <path d="M 256.4 192.9 C 256.4 192.9 256.38 189.57 256.4 189.6 C 254.9 192.3 251.6 193.7 249.1 193.7 C 243.6 193.7 239.7 189.3 239.7 182.2 C 239.7 175.1 243.6 170.8 249.1 170.8 C 251.6 170.8 254.9 172.1 256.4 174.7 C 256.4 174.7 256.4 170.5 256.4 170.5 C 256.4 166.5 254.8 164.2 251.1 164.2 C 248.8 164.2 246.4 165.2 244.1 167.6 C 244.1 167.6 241 161.8 241 161.8 C 244.2 158.5 249.2 157.2 252.8 157.2 C 259.9 157.2 264.5 160.8 264.5 168.6 C 264.52 168.62 264.5 192.9 264.5 192.9 L 256.4 192.9 Z M 256.4 184.7 C 256.4 184.7 256.4 180 256.4 180 C 255.5 177.8 253.8 176.4 252 176.4 C 249.2 176.4 247.8 179 247.8 182.3 C 247.8 185.6 249.2 188.3 252 188.3 C 253.8 188.3 255.5 186.9 256.4 184.7 Z M 286.6 192.9 C 286.6 192.9 286.62 168.11 286.6 168.1 C 286.6 165.7 285.8 164.4 284 164.4 C 281.9 164.4 280.1 166.7 279.3 169 C 279.28 168.98 279.3 192.9 279.3 192.9 L 271.1 192.9 L 271.1 158.1 L 279.3 158.1 C 279.3 158.1 279.28 162.64 279.3 162.6 C 280.6 159.8 284.2 157.2 287.4 157.2 C 292.7 157.2 294.8 160.3 294.8 165.2 C 294.83 165.16 294.8 192.9 294.8 192.9 L 286.6 192.9 Z M 317.1 192.9 C 317.1 192.9 317.08 188.56 317.1 188.6 C 315.6 192 312.8 193.7 310.3 193.7 C 303.5 193.7 300 186.7 300 175.5 C 300 164.6 303.5 157.2 310.3 157.2 C 312.8 157.2 315.6 158.8 317.1 162.4 C 317.08 162.42 317.1 144.9 317.1 144.9 L 325.2 144.9 L 325.2 192.9 L 317.1 192.9 Z M 317.1 182.4 C 317.1 182.4 317.1 168.6 317.1 168.6 C 316.4 166.3 314.7 164.4 313 164.4 C 309.4 164.4 308.4 169.3 308.4 175.5 C 308.4 181.6 309.4 186.5 313 186.5 C 314.7 186.5 316.4 184.7 317.1 182.4 Z M 341.1 189 C 341.1 189 345.1 181.9 345.1 181.9 C 347 184.4 350.1 185.7 352.9 185.7 C 355.8 185.7 357.8 183.5 357.8 180.4 C 357.8 171.9 342.5 171.9 342.5 157.5 C 342.5 150.3 347.4 144.1 355.9 144.1 C 359.9 144.1 363.7 145.4 366.3 148 C 366.3 148 362.8 154.9 362.8 154.9 C 360.9 153 358.7 152.1 356.2 152.1 C 353.6 152.1 351.7 154.1 351.7 157 C 351.7 164.4 367 165.4 367 179.8 C 367 187.9 361.7 193.7 353.5 193.7 C 348.3 193.7 344.2 192.1 341.1 189 Z M 370.7 175.5 C 370.7 165.8 374.7 157.2 383.7 157.2 C 392.9 157.2 396.9 165.8 396.9 175.5 C 396.9 185.1 392.9 193.7 383.7 193.7 C 374.7 193.7 370.7 185.1 370.7 175.5 Z M 388.4 175.5 C 388.4 169.6 387.4 164.4 383.7 164.4 C 380.1 164.4 379.1 169.6 379.1 175.5 C 379.1 181.4 380.1 186.5 383.7 186.5 C 387.4 186.5 388.4 181.4 388.4 175.5 Z M 417.2 192.9 C 417.2 192.9 417.23 189.57 417.2 189.6 C 415.7 192.3 412.5 193.7 410 193.7 C 404.5 193.7 400.5 189.3 400.5 182.2 C 400.5 175.1 404.5 170.8 410 170.8 C 412.5 170.8 415.8 172.1 417.2 174.7 C 417.2 174.7 417.2 170.5 417.2 170.5 C 417.2 166.5 415.6 164.2 412 164.2 C 409.7 164.2 407.2 165.2 404.9 167.6 C 404.9 167.6 401.9 161.8 401.9 161.8 C 405.1 158.5 410 157.2 413.6 157.2 C 420.8 157.2 425.4 160.8 425.4 168.6 C 425.36 168.62 425.4 192.9 425.4 192.9 L 417.2 192.9 Z M 417.2 184.7 C 417.2 184.7 417.2 180 417.2 180 C 416.4 177.8 414.6 176.4 412.8 176.4 C 410 176.4 408.7 179 408.7 182.3 C 408.7 185.6 410 188.3 412.8 188.3 C 414.6 188.3 416.4 186.9 417.2 184.7 Z M 440.1 188.6 C 440.12 188.56 440.1 206.1 440.1 206.1 L 432 206.1 L 432 158.1 L 440.1 158.1 C 440.1 158.1 440.12 162.42 440.1 162.4 C 441.6 159 444.4 157.2 446.9 157.2 C 453.7 157.2 457.2 164.3 457.2 175.5 C 457.2 186.4 453.7 193.7 446.9 193.7 C 444.4 193.7 441.6 192.2 440.1 188.6 Z M 448.8 175.5 C 448.8 169.3 447.8 164.4 444.2 164.4 C 442.5 164.4 440.8 166.2 440.1 168.5 C 440.1 168.5 440.1 182.4 440.1 182.4 C 440.8 184.7 442.5 186.5 444.2 186.5 C 447.8 186.5 448.8 181.6 448.8 175.5 Z M 473.1 168.9 C 473.1 154.6 477.6 144.1 488.1 144.1 C 495.9 144.1 498.7 150.3 500.2 155.4 C 500.2 155.4 493 158 493 158 C 492 154.4 490.8 152.1 488.1 152.1 C 483.8 152.1 482.4 159.1 482.4 168.9 C 482.4 178.7 483.8 185.7 488.1 185.7 C 491.1 185.7 492.4 182.7 493 178.7 C 493 178.7 500.3 181.4 500.3 181.4 C 498.9 186.8 496.1 193.7 488.1 193.7 C 477.6 193.7 473.1 183.2 473.1 168.9 Z M 520.5 192.9 C 520.5 192.9 520.55 167.97 520.5 168 C 520.5 165.6 519.7 164.4 517.9 164.4 C 515.8 164.4 514 166.7 513.2 169 C 513.2 168.98 513.2 192.9 513.2 192.9 L 505.1 192.9 L 505.1 144.9 L 513.2 144.9 C 513.2 144.9 513.2 162.64 513.2 162.6 C 514.6 159.8 518.2 157.2 521.3 157.2 C 526.6 157.2 528.8 160.1 528.8 165.1 C 528.75 165.09 528.8 192.9 528.8 192.9 L 520.5 192.9 Z M 534.4 149.1 C 534.4 146.4 536.7 144.1 539.3 144.1 C 542.1 144.1 544.3 146.4 544.3 149.1 C 544.3 151.8 542.1 154 539.3 154 C 536.7 154 534.4 151.8 534.4 149.1 Z M 535.3 192.9 L 535.3 158.1 L 543.4 158.1 L 543.4 192.9 L 535.3 192.9 Z M 558.1 188.6 C 558.13 188.56 558.1 206.1 558.1 206.1 L 550 206.1 L 550 158.1 L 558.1 158.1 C 558.1 158.1 558.13 162.42 558.1 162.4 C 559.6 159 562.4 157.2 564.9 157.2 C 571.7 157.2 575.2 164.3 575.2 175.5 C 575.2 186.4 571.7 193.7 564.9 193.7 C 562.4 193.7 559.6 192.2 558.1 188.6 Z M 566.8 175.5 C 566.8 169.3 565.8 164.4 562.2 164.4 C 560.5 164.4 558.8 166.2 558.1 168.5 C 558.1 168.5 558.1 182.4 558.1 182.4 C 558.8 184.7 560.5 186.5 562.2 186.5 C 565.8 186.5 566.8 181.6 566.8 175.5 Z M 578 189.2 C 578 189.2 581.4 183.6 581.4 183.6 C 583.3 185.7 585.8 187.3 588.6 187.3 C 591.2 187.3 593 185.9 593 183.6 C 593 177.9 579.2 179.2 579.2 167.1 C 579.2 161.8 583.2 157.2 590.3 157.2 C 594.3 157.2 597.9 158.8 600.5 161.3 C 600.5 161.3 597.2 166.8 597.2 166.8 C 595.9 165.2 593.3 163.6 590.5 163.6 C 588.3 163.6 586.8 165.1 586.8 166.9 C 586.8 172.1 600.7 171.2 600.7 183.4 C 600.7 189.5 595.9 193.7 589.3 193.7 C 584.1 193.7 580.3 191.9 578 189.2 Z " stroke="none" fill="#e9e8e8"/>  </g>  <g id="Polygon114530">    <path d="M 76.5 100.9 C 76.5 86.6 81 76.1 91.5 76.1 C 99.3 76.1 102.1 82.3 103.6 87.4 C 103.6 87.4 96.4 90 96.4 90 C 95.4 86.4 94.2 84.1 91.5 84.1 C 87.2 84.1 85.8 91.1 85.8 100.9 C 85.8 110.7 87.2 117.7 91.5 117.7 C 94.5 117.7 95.8 114.7 96.4 110.7 C 96.4 110.7 103.7 113.4 103.7 113.4 C 102.3 118.8 99.5 125.7 91.5 125.7 C 81 125.7 76.5 115.2 76.5 100.9 Z M 108.5 124.9 L 108.5 90.1 L 116.6 90.1 C 116.6 90.1 116.6 94.93 116.6 94.9 C 118 91.8 121.3 89.2 124.4 89.2 C 124.4 89.2 124.4 97.2 124.4 97.2 C 123.9 97.1 123.3 97 122.8 97 C 120.4 97 118 99 116.6 101.5 C 116.6 101.48 116.6 124.9 116.6 124.9 L 108.5 124.9 Z M 144.1 124.9 C 144.1 124.9 144.1 120.49 144.1 120.5 C 142.7 123.3 139.3 125.7 136 125.7 C 130.7 125.7 128.6 122.9 128.6 117.9 C 128.62 117.9 128.6 90.1 128.6 90.1 L 136.8 90.1 C 136.8 90.1 136.76 115.02 136.8 115 C 136.8 117.4 137.6 118.5 139.4 118.5 C 141.5 118.5 143.3 116.4 144.1 114.2 C 144.1 114.15 144.1 90.1 144.1 90.1 L 152.3 90.1 L 152.3 124.9 L 144.1 124.9 Z M 189.9 124.9 C 189.9 124.9 189.89 100.11 189.9 100.1 C 189.9 97.5 189 96.4 187.2 96.4 C 185 96.4 183.3 98.9 182.5 101 C 182.55 100.98 182.5 124.9 182.5 124.9 L 174.3 124.9 C 174.3 124.9 174.34 100.11 174.3 100.1 C 174.3 97.7 173.5 96.4 171.7 96.4 C 169.5 96.4 167.7 98.9 167 101 C 167 100.98 167 124.9 167 124.9 L 158.9 124.9 L 158.9 90.1 L 167 90.1 C 167 90.1 167 94.64 167 94.6 C 168.2 92 171.8 89.2 175.1 89.2 C 178.8 89.2 181.7 91 182.3 95 C 183.6 92.1 187.2 89.2 190.7 89.2 C 195 89.2 198 91.5 198 97.2 C 198.03 97.16 198 124.9 198 124.9 L 189.9 124.9 Z M 216.9 118.5 C 220.5 118.5 221.5 113.6 221.5 107.5 C 221.5 101.3 220.5 96.4 216.9 96.4 C 215.2 96.4 213.5 98.3 212.8 100.7 C 212.8 100.7 212.8 114.4 212.8 114.4 C 213.5 116.7 215.2 118.5 216.9 118.5 Z M 204.7 124.9 L 204.7 76.9 L 212.8 76.9 C 212.8 76.9 212.79 94.42 212.8 94.4 C 214.2 90.8 217.1 89.2 219.6 89.2 C 226.4 89.2 229.9 96.6 229.9 107.5 C 229.9 118.7 226.4 125.7 219.6 125.7 C 217.1 125.7 214.3 124 212.8 120.6 C 212.79 120.56 212.8 124.9 212.8 124.9 L 204.7 124.9 Z M 232.7 121.2 C 232.7 121.2 236 115.6 236 115.6 C 237.9 117.7 240.5 119.3 243.2 119.3 C 245.8 119.3 247.6 117.9 247.6 115.6 C 247.6 109.9 233.9 111.2 233.9 99.1 C 233.9 93.8 237.8 89.2 245 89.2 C 248.9 89.2 252.6 90.8 255.2 93.3 C 255.2 93.3 251.9 98.8 251.9 98.8 C 250.5 97.2 248 95.6 245.2 95.6 C 243 95.6 241.4 97.1 241.4 98.9 C 241.4 104.1 255.3 103.2 255.3 115.4 C 255.3 121.5 250.6 125.7 244 125.7 C 238.8 125.7 235 123.9 232.7 121.2 Z M 295.3 124.9 L 290.3 101.2 L 285.4 124.9 L 276.8 124.9 L 268.8 90.1 L 277.2 90.1 L 281.6 113.9 L 286.2 90.1 L 294 90.1 L 298.9 113.9 L 303.4 90.1 L 311.9 90.1 L 303.8 124.9 L 295.3 124.9 Z M 314.6 81.1 C 314.6 78.4 316.9 76.1 319.6 76.1 C 322.3 76.1 324.5 78.4 324.5 81.1 C 324.5 83.8 322.3 86 319.6 86 C 316.9 86 314.6 83.8 314.6 81.1 Z M 315.5 124.9 L 315.5 90.1 L 323.7 90.1 L 323.7 124.9 L 315.5 124.9 Z M 331.3 116.9 C 331.3 116.89 331.3 97.2 331.3 97.2 L 328.1 97.2 L 328.1 90.1 L 331.3 90.1 L 331.3 80.6 L 339.4 80.6 L 339.4 90.1 L 343.8 90.1 L 343.8 97.2 L 339.4 97.2 C 339.4 97.2 339.43 115.3 339.4 115.3 C 339.4 117.5 339.9 118.5 341.4 118.5 C 342.2 118.5 342.9 118.2 343.3 117.6 C 343.3 117.6 345 123.9 345 123.9 C 343.8 125 341.8 125.7 339.3 125.7 C 333.6 125.7 331.3 122.9 331.3 116.9 Z M 364.3 124.9 C 364.3 124.9 364.27 99.97 364.3 100 C 364.3 97.6 363.4 96.4 361.6 96.4 C 359.5 96.4 357.7 98.7 356.9 101 C 356.93 100.98 356.9 124.9 356.9 124.9 L 348.8 124.9 L 348.8 76.9 L 356.9 76.9 C 356.9 76.9 356.93 94.64 356.9 94.6 C 358.3 91.8 361.9 89.2 365.1 89.2 C 370.3 89.2 372.5 92.1 372.5 97.1 C 372.48 97.09 372.5 124.9 372.5 124.9 L 364.3 124.9 Z M 388 123.2 C 388 123.2 390.5 115.7 390.5 115.7 C 391.7 117.1 393.3 117.7 394.9 117.7 C 397.8 117.7 399.8 116.1 399.8 112.4 C 399.84 112.42 399.8 76.9 399.8 76.9 L 408.9 76.9 C 408.9 76.9 408.91 112.86 408.9 112.9 C 408.9 121.9 403.6 125.7 395.9 125.7 C 393.1 125.7 390.3 125.1 388 123.2 Z M 431.3 124.9 C 431.3 124.9 431.3 120.49 431.3 120.5 C 429.9 123.3 426.6 125.7 423.2 125.7 C 417.9 125.7 415.8 122.9 415.8 117.9 C 415.82 117.9 415.8 90.1 415.8 90.1 L 424 90.1 C 424 90.1 423.96 115.02 424 115 C 424 117.4 424.8 118.5 426.6 118.5 C 428.7 118.5 430.5 116.4 431.3 114.2 C 431.3 114.15 431.3 90.1 431.3 90.1 L 439.5 90.1 L 439.5 124.9 L 431.3 124.9 Z M 446.1 124.9 L 446.1 76.9 L 454.2 76.9 L 454.2 124.9 L 446.1 124.9 Z M 459.8 81.1 C 459.8 78.4 462.1 76.1 464.8 76.1 C 467.5 76.1 469.8 78.4 469.8 81.1 C 469.8 83.8 467.5 86 464.8 86 C 462.1 86 459.8 83.8 459.8 81.1 Z M 460.8 124.9 L 460.8 90.1 L 468.9 90.1 L 468.9 124.9 L 460.8 124.9 Z M 474.1 107.5 C 474.1 97.4 478.4 89.2 487.1 89.2 C 495.9 89.2 499.6 97.1 499.6 107.3 C 499.56 107.31 499.6 110.1 499.6 110.1 C 499.6 110.1 481.92 110.12 481.9 110.1 C 482 115.2 484.2 119.1 488.8 119.1 C 490.7 119.1 492.9 117.8 494.5 115.7 C 494.5 115.7 498.5 120.2 498.5 120.2 C 495.7 123.7 491.9 125.7 487.9 125.7 C 478.8 125.7 474.1 118.1 474.1 107.5 Z M 486.9 95.9 C 482.9 95.9 481.9 100.8 481.9 104.4 C 481.9 104.4 491.7 104.4 491.7 104.4 C 491.7 100.5 490.8 95.9 486.9 95.9 Z M 520 124.9 C 520 124.9 520.01 100.11 520 100.1 C 520 97.7 519.1 96.4 517.3 96.4 C 515.3 96.4 513.5 98.7 512.7 101 C 512.66 100.98 512.7 124.9 512.7 124.9 L 504.5 124.9 L 504.5 90.1 L 512.7 90.1 C 512.7 90.1 512.66 94.64 512.7 94.6 C 514 91.8 517.6 89.2 520.8 89.2 C 526.1 89.2 528.2 92.3 528.2 97.2 C 528.21 97.16 528.2 124.9 528.2 124.9 L 520 124.9 Z M 550.2 124.9 C 550.2 124.9 550.25 100.11 550.2 100.1 C 550.2 97.7 549.4 96.4 547.6 96.4 C 545.5 96.4 543.7 98.7 542.9 101 C 542.9 100.98 542.9 124.9 542.9 124.9 L 534.8 124.9 L 534.8 90.1 L 542.9 90.1 C 542.9 90.1 542.9 94.64 542.9 94.6 C 544.3 91.8 547.9 89.2 551 89.2 C 556.3 89.2 558.5 92.3 558.5 97.2 C 558.45 97.16 558.5 124.9 558.5 124.9 L 550.2 124.9 Z M 563.6 107.5 C 563.6 97.4 568 89.2 576.7 89.2 C 585.5 89.2 589.1 97.1 589.1 107.3 C 589.13 107.31 589.1 110.1 589.1 110.1 C 589.1 110.1 571.49 110.12 571.5 110.1 C 571.6 115.2 573.7 119.1 578.3 119.1 C 580.3 119.1 582.5 117.8 584.1 115.7 C 584.1 115.7 588 120.2 588 120.2 C 585.3 123.7 581.4 125.7 577.5 125.7 C 568.4 125.7 563.6 118.1 563.6 107.5 Z M 576.5 95.9 C 572.5 95.9 571.5 100.8 571.5 104.4 C 571.5 104.4 581.3 104.4 581.3 104.4 C 581.3 100.5 580.4 95.9 576.5 95.9 Z M 609.8 124.9 C 609.8 124.9 609.79 120.56 609.8 120.6 C 608.3 124 605.5 125.7 603 125.7 C 596.2 125.7 592.7 118.7 592.7 107.5 C 592.7 96.6 596.2 89.2 603 89.2 C 605.5 89.2 608.3 90.8 609.8 94.4 C 609.79 94.42 609.8 76.9 609.8 76.9 L 617.9 76.9 L 617.9 124.9 L 609.8 124.9 Z M 609.8 114.4 C 609.8 114.4 609.8 100.6 609.8 100.6 C 609.1 98.3 607.4 96.4 605.7 96.4 C 602.1 96.4 601.1 101.3 601.1 107.5 C 601.1 113.6 602.1 118.5 605.7 118.5 C 607.4 118.5 609.1 116.7 609.8 114.4 Z M 636.7 124.9 L 636.7 76.9 L 657.7 76.9 L 657.7 84.8 L 645.8 84.8 L 645.8 96.4 L 657.2 96.4 L 657.2 104.4 L 645.8 104.4 L 645.8 124.9 L 636.7 124.9 Z M 662 107.5 C 662 97.8 665.9 89.2 675 89.2 C 684.2 89.2 688.1 97.8 688.1 107.5 C 688.1 117.1 684.2 125.7 675 125.7 C 665.9 125.7 662 117.1 662 107.5 Z M 679.7 107.5 C 679.7 101.6 678.7 96.4 675 96.4 C 671.4 96.4 670.4 101.6 670.4 107.5 C 670.4 113.4 671.4 118.5 675 118.5 C 678.7 118.5 679.7 113.4 679.7 107.5 Z M 708.5 124.9 C 708.5 124.9 708.5 121.57 708.5 121.6 C 707 124.3 703.7 125.7 701.2 125.7 C 695.8 125.7 691.8 121.3 691.8 114.2 C 691.8 107.1 695.8 102.8 701.2 102.8 C 703.7 102.8 707.1 104.1 708.5 106.7 C 708.5 106.7 708.5 102.5 708.5 102.5 C 708.5 98.5 706.9 96.2 703.2 96.2 C 700.9 96.2 698.5 97.2 696.2 99.6 C 696.2 99.6 693.2 93.8 693.2 93.8 C 696.3 90.5 701.3 89.2 704.9 89.2 C 712 89.2 716.6 92.8 716.6 100.6 C 716.64 100.62 716.6 124.9 716.6 124.9 L 708.5 124.9 Z M 708.5 116.7 C 708.5 116.7 708.5 112 708.5 112 C 707.6 109.8 705.9 108.4 704.1 108.4 C 701.3 108.4 699.9 111 699.9 114.3 C 699.9 117.6 701.3 120.3 704.1 120.3 C 705.9 120.3 707.6 118.9 708.5 116.7 Z M 754.3 124.9 C 754.3 124.9 754.29 100.11 754.3 100.1 C 754.3 97.5 753.4 96.4 751.6 96.4 C 749.4 96.4 747.7 98.9 746.9 101 C 746.95 100.98 746.9 124.9 746.9 124.9 L 738.7 124.9 C 738.7 124.9 738.74 100.11 738.7 100.1 C 738.7 97.7 737.9 96.4 736.1 96.4 C 733.9 96.4 732.1 98.9 731.4 101 C 731.39 100.98 731.4 124.9 731.4 124.9 L 723.3 124.9 L 723.3 90.1 L 731.4 90.1 C 731.4 90.1 731.39 94.64 731.4 94.6 C 732.6 92 736.2 89.2 739.5 89.2 C 743.2 89.2 746.1 91 746.7 95 C 748 92.1 751.6 89.2 755.1 89.2 C 759.4 89.2 762.4 91.5 762.4 97.2 C 762.43 97.16 762.4 124.9 762.4 124.9 L 754.3 124.9 Z " stroke="none" fill="#e9e8e8"/>  </g>  <g id="Polygon114529">    <path d="M 99.5 56.9 L 99.5 8.9 C 99.5 8.9 112.49 8.86 112.5 8.9 C 121.9 8.9 126 16 126 24 C 126 32.1 121.9 39.2 112.5 39.2 C 112.49 39.24 108.6 39.2 108.6 39.2 L 108.6 56.9 L 99.5 56.9 Z M 116.8 24 C 116.8 19.7 114.9 16.8 111.6 16.8 C 111.56 16.85 108.6 16.8 108.6 16.8 L 108.6 31.2 C 108.6 31.2 111.56 31.25 111.6 31.2 C 114.9 31.2 116.8 28.4 116.8 24 Z M 144.9 56.9 C 144.9 56.9 144.89 53.57 144.9 53.6 C 143.4 56.3 140.1 57.7 137.6 57.7 C 132.1 57.7 128.2 53.3 128.2 46.2 C 128.2 39.1 132.1 34.8 137.6 34.8 C 140.1 34.8 143.5 36.1 144.9 38.7 C 144.9 38.7 144.9 34.5 144.9 34.5 C 144.9 30.5 143.3 28.2 139.6 28.2 C 137.3 28.2 134.9 29.2 132.6 31.6 C 132.6 31.6 129.6 25.8 129.6 25.8 C 132.7 22.5 137.7 21.2 141.3 21.2 C 148.4 21.2 153 24.8 153 32.6 C 153.03 32.62 153 56.9 153 56.9 L 144.9 56.9 Z M 144.9 48.7 C 144.9 48.7 144.9 44 144.9 44 C 144 41.8 142.3 40.4 140.5 40.4 C 137.7 40.4 136.3 43 136.3 46.3 C 136.3 49.6 137.7 52.3 140.5 52.3 C 142.3 52.3 144 50.9 144.9 48.7 Z M 167.8 52.6 C 167.79 52.56 167.8 70.1 167.8 70.1 L 159.7 70.1 L 159.7 22.1 L 167.8 22.1 C 167.8 22.1 167.79 26.42 167.8 26.4 C 169.3 23 172.1 21.2 174.6 21.2 C 181.4 21.2 184.9 28.3 184.9 39.5 C 184.9 50.4 181.4 57.7 174.6 57.7 C 172.1 57.7 169.2 56.2 167.8 52.6 Z M 176.5 39.5 C 176.5 33.3 175.5 28.4 171.9 28.4 C 170.2 28.4 168.5 30.2 167.8 32.5 C 167.8 32.5 167.8 46.4 167.8 46.4 C 168.5 48.7 170.2 50.5 171.9 50.5 C 175.5 50.5 176.5 45.6 176.5 39.5 Z M 188.7 39.5 C 188.7 29.4 193.1 21.2 201.8 21.2 C 210.6 21.2 214.2 29.1 214.2 39.3 C 214.23 39.31 214.2 42.1 214.2 42.1 C 214.2 42.1 196.59 42.12 196.6 42.1 C 196.7 47.2 198.8 51.1 203.4 51.1 C 205.4 51.1 207.6 49.8 209.2 47.7 C 209.2 47.7 213.1 52.2 213.1 52.2 C 210.4 55.7 206.5 57.7 202.6 57.7 C 193.5 57.7 188.7 50.1 188.7 39.5 Z M 201.6 27.9 C 197.6 27.9 196.6 32.8 196.6 36.4 C 196.6 36.4 206.4 36.4 206.4 36.4 C 206.4 32.5 205.5 27.9 201.6 27.9 Z M 219.2 56.9 L 219.2 22.1 L 227.3 22.1 C 227.3 22.1 227.33 26.93 227.3 26.9 C 228.7 23.8 232.1 21.2 235.1 21.2 C 235.1 21.2 235.1 29.2 235.1 29.2 C 234.6 29.1 234 29 233.5 29 C 231.1 29 228.7 31 227.3 33.5 C 227.33 33.48 227.3 56.9 227.3 56.9 L 219.2 56.9 Z M 251.5 56.9 L 251.5 8.9 C 251.5 8.9 264.48 8.86 264.5 8.9 C 273.8 8.9 278 16 278 24 C 278 32.1 273.8 39.2 264.5 39.2 C 264.48 39.24 260.6 39.2 260.6 39.2 L 260.6 56.9 L 251.5 56.9 Z M 268.8 24 C 268.8 19.7 266.9 16.8 263.5 16.8 C 263.55 16.85 260.6 16.8 260.6 16.8 L 260.6 31.2 C 260.6 31.2 263.55 31.25 263.5 31.2 C 266.9 31.2 268.8 28.4 268.8 24 Z M 298.3 56.9 C 298.3 56.9 298.32 52.49 298.3 52.5 C 297 55.3 293.6 57.7 290.2 57.7 C 284.9 57.7 282.8 54.9 282.8 49.9 C 282.84 49.9 282.8 22.1 282.8 22.1 L 291 22.1 C 291 22.1 290.98 47.02 291 47 C 291 49.4 291.8 50.5 293.6 50.5 C 295.7 50.5 297.5 48.4 298.3 46.2 C 298.32 46.15 298.3 22.1 298.3 22.1 L 306.5 22.1 L 306.5 56.9 L 298.3 56.9 Z M 313.1 56.9 L 313.1 8.9 L 321.2 8.9 L 321.2 56.9 L 313.1 56.9 Z M 335.9 52.6 C 335.91 52.56 335.9 70.1 335.9 70.1 L 327.8 70.1 L 327.8 22.1 L 335.9 22.1 C 335.9 22.1 335.91 26.42 335.9 26.4 C 337.4 23 340.2 21.2 342.7 21.2 C 349.5 21.2 353 28.3 353 39.5 C 353 50.4 349.5 57.7 342.7 57.7 C 340.2 57.7 337.3 56.2 335.9 52.6 Z M 344.6 39.5 C 344.6 33.3 343.6 28.4 340 28.4 C 338.3 28.4 336.6 30.2 335.9 32.5 C 335.9 32.5 335.9 46.4 335.9 46.4 C 336.6 48.7 338.3 50.5 340 50.5 C 343.6 50.5 344.6 45.6 344.6 39.5 Z M 368.9 32.9 C 368.9 18.6 373.4 8.1 383.9 8.1 C 391.7 8.1 394.4 14.3 396 19.4 C 396 19.4 388.8 22 388.8 22 C 387.7 18.4 386.6 16.1 383.9 16.1 C 379.6 16.1 378.2 23.1 378.2 32.9 C 378.2 42.7 379.6 49.7 383.9 49.7 C 386.9 49.7 388.2 46.7 388.8 42.7 C 388.8 42.7 396.1 45.4 396.1 45.4 C 394.7 50.8 391.9 57.7 383.9 57.7 C 373.4 57.7 368.9 47.2 368.9 32.9 Z M 399.5 39.5 C 399.5 29.8 403.4 21.2 412.5 21.2 C 421.7 21.2 425.6 29.8 425.6 39.5 C 425.6 49.1 421.7 57.7 412.5 57.7 C 403.4 57.7 399.5 49.1 399.5 39.5 Z M 417.2 39.5 C 417.2 33.6 416.2 28.4 412.5 28.4 C 408.9 28.4 407.9 33.6 407.9 39.5 C 407.9 45.4 408.9 50.5 412.5 50.5 C 416.2 50.5 417.2 45.4 417.2 39.5 Z M 446 56.9 C 446 56.9 445.99 53.57 446 53.6 C 444.5 56.3 441.2 57.7 438.7 57.7 C 433.2 57.7 429.3 53.3 429.3 46.2 C 429.3 39.1 433.2 34.8 438.7 34.8 C 441.2 34.8 444.6 36.1 446 38.7 C 446 38.7 446 34.5 446 34.5 C 446 30.5 444.4 28.2 440.7 28.2 C 438.4 28.2 436 29.2 433.7 31.6 C 433.7 31.6 430.7 25.8 430.7 25.8 C 433.8 22.5 438.8 21.2 442.4 21.2 C 449.5 21.2 454.1 24.8 454.1 32.6 C 454.13 32.62 454.1 56.9 454.1 56.9 L 446 56.9 Z M 446 48.7 C 446 48.7 446 44 446 44 C 445.1 41.8 443.4 40.4 441.6 40.4 C 438.8 40.4 437.4 43 437.4 46.3 C 437.4 49.6 438.8 52.3 441.6 52.3 C 443.4 52.3 445.1 50.9 446 48.7 Z M 461.8 48.9 C 461.83 48.89 461.8 29.2 461.8 29.2 L 458.6 29.2 L 458.6 22.1 L 461.8 22.1 L 461.8 12.6 L 470 12.6 L 470 22.1 L 474.4 22.1 L 474.4 29.2 L 470 29.2 C 470 29.2 469.97 47.3 470 47.3 C 470 49.5 470.5 50.5 471.9 50.5 C 472.7 50.5 473.4 50.2 473.9 49.6 C 473.9 49.6 475.5 55.9 475.5 55.9 C 474.3 57 472.3 57.7 469.8 57.7 C 464.1 57.7 461.8 54.9 461.8 48.9 Z M 478 39.5 C 478 29.4 482.3 21.2 491 21.2 C 499.8 21.2 503.4 29.1 503.4 39.3 C 503.45 39.31 503.4 42.1 503.4 42.1 C 503.4 42.1 485.81 42.12 485.8 42.1 C 485.9 47.2 488 51.1 492.6 51.1 C 494.6 51.1 496.8 49.8 498.4 47.7 C 498.4 47.7 502.4 52.2 502.4 52.2 C 499.6 55.7 495.7 57.7 491.8 57.7 C 482.7 57.7 478 50.1 478 39.5 Z M 490.8 27.9 C 486.8 27.9 485.8 32.8 485.8 36.4 C 485.8 36.4 495.6 36.4 495.6 36.4 C 495.6 32.5 494.7 27.9 490.8 27.9 Z M 524.1 56.9 C 524.1 56.9 524.11 52.56 524.1 52.6 C 522.6 56 519.8 57.7 517.3 57.7 C 510.5 57.7 507 50.7 507 39.5 C 507 28.6 510.5 21.2 517.3 21.2 C 519.8 21.2 522.7 22.8 524.1 26.4 C 524.11 26.42 524.1 8.9 524.1 8.9 L 532.2 8.9 L 532.2 56.9 L 524.1 56.9 Z M 524.1 46.4 C 524.1 46.4 524.1 32.6 524.1 32.6 C 523.4 30.3 521.7 28.4 520 28.4 C 516.4 28.4 515.4 33.3 515.4 39.5 C 515.4 45.6 516.4 50.5 520 50.5 C 521.7 50.5 523.4 48.7 524.1 46.4 Z M 549.7 13.1 C 549.7 10.4 552 8.1 554.6 8.1 C 557.4 8.1 559.6 10.4 559.6 13.1 C 559.6 15.8 557.4 18 554.6 18 C 552 18 549.7 15.8 549.7 13.1 Z M 550.6 56.9 L 550.6 22.1 L 558.7 22.1 L 558.7 56.9 L 550.6 56.9 Z M 580.8 56.9 C 580.8 56.9 580.77 32.11 580.8 32.1 C 580.8 29.7 579.9 28.4 578.1 28.4 C 576 28.4 574.2 30.7 573.4 33 C 573.43 32.98 573.4 56.9 573.4 56.9 L 565.3 56.9 L 565.3 22.1 L 573.4 22.1 C 573.4 22.1 573.43 26.64 573.4 26.6 C 574.8 23.8 578.4 21.2 581.6 21.2 C 586.8 21.2 589 24.3 589 29.2 C 588.98 29.16 589 56.9 589 56.9 L 580.8 56.9 Z M 607.7 56.9 L 607.7 8.9 C 607.7 8.9 620.66 8.86 620.7 8.9 C 630 8.9 634.2 16 634.2 24 C 634.2 32.1 630 39.2 620.7 39.2 C 620.66 39.24 616.8 39.2 616.8 39.2 L 616.8 56.9 L 607.7 56.9 Z M 625 24 C 625 19.7 623.1 16.8 619.7 16.8 C 619.72 16.85 616.8 16.8 616.8 16.8 L 616.8 31.2 C 616.8 31.2 619.72 31.25 619.7 31.2 C 623.1 31.2 625 28.4 625 24 Z M 653.1 56.9 C 653.1 56.9 653.06 53.57 653.1 53.6 C 651.5 56.3 648.3 57.7 645.8 57.7 C 640.3 57.7 636.4 53.3 636.4 46.2 C 636.4 39.1 640.3 34.8 645.8 34.8 C 648.3 34.8 651.6 36.1 653.1 38.7 C 653.1 38.7 653.1 34.5 653.1 34.5 C 653.1 30.5 651.5 28.2 647.8 28.2 C 645.5 28.2 643.1 29.2 640.7 31.6 C 640.7 31.6 637.7 25.8 637.7 25.8 C 640.9 22.5 645.9 21.2 649.5 21.2 C 656.6 21.2 661.2 24.8 661.2 32.6 C 661.2 32.62 661.2 56.9 661.2 56.9 L 653.1 56.9 Z M 653.1 48.7 C 653.1 48.7 653.1 44 653.1 44 C 652.2 41.8 650.5 40.4 648.7 40.4 C 645.9 40.4 644.5 43 644.5 46.3 C 644.5 49.6 645.9 52.3 648.7 52.3 C 650.5 52.3 652.2 50.9 653.1 48.7 Z M 676 52.6 C 675.96 52.56 676 70.1 676 70.1 L 667.8 70.1 L 667.8 22.1 L 676 22.1 C 676 22.1 675.96 26.42 676 26.4 C 677.5 23 680.3 21.2 682.7 21.2 C 689.6 21.2 693 28.3 693 39.5 C 693 50.4 689.6 57.7 682.7 57.7 C 680.3 57.7 677.4 56.2 676 52.6 Z M 684.7 39.5 C 684.7 33.3 683.7 28.4 680.1 28.4 C 678.3 28.4 676.7 30.2 676 32.5 C 676 32.5 676 46.4 676 46.4 C 676.7 48.7 678.3 50.5 680.1 50.5 C 683.7 50.5 684.7 45.6 684.7 39.5 Z M 696.9 39.5 C 696.9 29.4 701.2 21.2 709.9 21.2 C 718.7 21.2 722.4 29.1 722.4 39.3 C 722.39 39.31 722.4 42.1 722.4 42.1 C 722.4 42.1 704.75 42.12 704.8 42.1 C 704.8 47.2 707 51.1 711.6 51.1 C 713.5 51.1 715.8 49.8 717.4 47.7 C 717.4 47.7 721.3 52.2 721.3 52.2 C 718.6 55.7 714.7 57.7 710.7 57.7 C 701.7 57.7 696.9 50.1 696.9 39.5 Z M 709.7 27.9 C 705.8 27.9 704.8 32.8 704.8 36.4 C 704.8 36.4 714.5 36.4 714.5 36.4 C 714.5 32.5 713.7 27.9 709.7 27.9 Z M 727.4 56.9 L 727.4 22.1 L 735.5 22.1 C 735.5 22.1 735.5 26.93 735.5 26.9 C 736.9 23.8 740.2 21.2 743.3 21.2 C 743.3 21.2 743.3 29.2 743.3 29.2 C 742.8 29.1 742.2 29 741.7 29 C 739.3 29 736.9 31 735.5 33.5 C 735.5 33.48 735.5 56.9 735.5 56.9 L 727.4 56.9 Z " stroke="none" fill="#e9e8e8"/>  </g></svg>