<?xml version="1.0" standalone="no"?><!DOCTYPE svg PUBLIC "-//W3C//DTD SVG 1.1//EN" "http://www.w3.org/Graphics/SVG/1.1/DTD/svg11.dtd"><svg xmlns="http://www.w3.org/2000/svg" version="1.1" width="510px" height="85.6px" viewBox="0 0 510 85.6">  <desc>Sushi</desc>  <defs/>  <g id="Polygon139208">    <path d="M 0.7 44.2 C 0.7 44.2 4 38.2 4 38.2 C 5.6 40.3 8.2 41.4 10.6 41.4 C 13 41.4 14.6 39.6 14.6 37 C 14.6 29.9 1.9 29.9 1.9 17.9 C 1.9 11.9 5.9 6.7 13 6.7 C 16.4 6.7 19.5 7.9 21.7 10 C 21.7 10 18.8 15.8 18.8 15.8 C 17.2 14.2 15.4 13.4 13.3 13.4 C 11.1 13.4 9.5 15.1 9.5 17.5 C 9.5 23.7 22.3 24.5 22.3 36.5 C 22.3 43.3 17.9 48.1 11 48.1 C 6.7 48.1 3.3 46.7 0.7 44.2 Z M 39.4 47.4 C 39.4 47.4 39.42 43.74 39.4 43.7 C 38.3 46.1 35.5 48.1 32.6 48.1 C 28.3 48.1 26.5 45.7 26.5 41.6 C 26.52 41.58 26.5 18.4 26.5 18.4 L 33.3 18.4 C 33.3 18.4 33.3 39.18 33.3 39.2 C 33.3 41.2 34 42.1 35.5 42.1 C 37.3 42.1 38.8 40.3 39.4 38.5 C 39.42 38.46 39.4 18.4 39.4 18.4 L 46.3 18.4 L 46.3 47.4 L 39.4 47.4 Z M 49.7 44.3 C 49.7 44.3 52.5 39.7 52.5 39.7 C 54.1 41.4 56.2 42.8 58.5 42.8 C 60.7 42.8 62.2 41.6 62.2 39.7 C 62.2 34.9 50.7 36 50.7 25.9 C 50.7 21.5 54 17.7 59.9 17.7 C 63.2 17.7 66.3 19 68.5 21.1 C 68.5 21.1 65.7 25.7 65.7 25.7 C 64.6 24.3 62.5 23 60.1 23 C 58.3 23 57 24.2 57 25.7 C 57 30.1 68.6 29.3 68.6 39.5 C 68.6 44.6 64.6 48.1 59.1 48.1 C 54.8 48.1 51.6 46.6 49.7 44.3 Z M 85.4 47.4 C 85.4 47.4 85.38 26.64 85.4 26.6 C 85.4 24.7 84.7 23.7 83.2 23.7 C 81.4 23.7 79.9 25.6 79.3 27.5 C 79.26 27.48 79.3 47.4 79.3 47.4 L 72.5 47.4 L 72.5 7.4 L 79.3 7.4 C 79.3 7.4 79.26 22.2 79.3 22.2 C 80.4 19.9 83.4 17.7 86 17.7 C 90.4 17.7 92.2 20.1 92.2 24.2 C 92.22 24.24 92.2 47.4 92.2 47.4 L 85.4 47.4 Z M 96.9 10.9 C 96.9 8.6 98.8 6.8 101 6.8 C 103.3 6.8 105.2 8.6 105.2 10.9 C 105.2 13.2 103.3 15 101 15 C 98.8 15 96.9 13.2 96.9 10.9 Z M 97.7 47.4 L 97.7 18.4 L 104.5 18.4 L 104.5 47.4 L 97.7 47.4 Z " stroke="none" fill="#b13d24"/>  </g></svg>