<?xml version="1.0" standalone="no"?><!DOCTYPE svg PUBLIC "-//W3C//DTD SVG 1.1//EN" "http://www.w3.org/Graphics/SVG/1.1/DTD/svg11.dtd"><svg xmlns="http://www.w3.org/2000/svg" version="1.1" width="212px" height="43.1px" viewBox="0 0 212 43.1">  <desc>HISTORY OF DISH</desc>  <defs/>  <g id="Polygon163559">    <path d="M 14.4 23.7 L 14.4 15.2 L 7.8 15.2 L 7.8 23.7 L 3.8 23.7 L 3.8 3.7 L 7.8 3.7 L 7.8 11.6 L 14.4 11.6 L 14.4 3.7 L 18.5 3.7 L 18.5 23.7 L 14.4 23.7 Z M 22 23.7 L 22 3.7 L 26 3.7 L 26 23.7 L 22 23.7 Z M 28.3 21.5 C 28.3 21.5 30.2 18.4 30.2 18.4 C 31.4 19.6 33.1 20.5 35.1 20.5 C 36.8 20.5 37.8 19.5 37.8 18.3 C 37.8 14.8 28.9 16 28.9 9.2 C 28.9 6.1 31.3 3.4 35.5 3.4 C 37.9 3.4 40 4.1 41.5 5.6 C 41.5 5.6 39.6 8.6 39.6 8.6 C 38.4 7.4 36.9 6.9 35.3 6.9 C 33.9 6.9 33 7.7 33 8.9 C 33 12.1 41.9 11.2 41.9 18 C 41.9 21.5 39.5 24.1 35.1 24.1 C 32.1 24.1 29.9 23.1 28.3 21.5 Z M 47.5 23.7 L 47.5 7.2 L 43 7.2 L 43 3.7 L 55.9 3.7 L 55.9 7.2 L 51.5 7.2 L 51.5 23.7 L 47.5 23.7 Z M 57 13.7 C 57 7.8 60.1 3.4 65.3 3.4 C 70.6 3.4 73.7 7.8 73.7 13.7 C 73.7 19.7 70.6 24.1 65.3 24.1 C 60.1 24.1 57 19.7 57 13.7 Z M 69.6 13.7 C 69.6 9.8 68.1 6.9 65.3 6.9 C 62.6 6.9 61.1 9.8 61.1 13.7 C 61.1 17.5 62.6 20.5 65.3 20.5 C 68.1 20.5 69.6 17.5 69.6 13.7 Z M 85.7 23.7 L 82.7 16.5 L 80.5 16.5 L 80.5 23.7 L 76.5 23.7 L 76.5 3.7 C 76.5 3.7 83.94 3.69 83.9 3.7 C 87.6 3.7 90 6.3 90 10 C 90 13.5 88.2 15.2 86.6 15.7 C 86.55 15.75 90.2 23.7 90.2 23.7 L 85.7 23.7 Z M 85.9 10.1 C 85.9 8.3 84.9 7.2 83.3 7.2 C 83.34 7.23 80.5 7.2 80.5 7.2 L 80.5 12.9 C 80.5 12.9 83.34 12.93 83.3 12.9 C 84.9 12.9 85.9 11.8 85.9 10.1 Z M 96.8 23.7 L 96.8 15.4 L 90.7 3.7 L 95.1 3.7 L 98.9 11.7 L 102.6 3.7 L 107 3.7 L 100.9 15.4 L 100.9 23.7 L 96.8 23.7 Z M 114.2 13.7 C 114.2 7.8 117.3 3.4 122.5 3.4 C 127.8 3.4 130.9 7.8 130.9 13.7 C 130.9 19.7 127.8 24.1 122.5 24.1 C 117.3 24.1 114.2 19.7 114.2 13.7 Z M 126.8 13.7 C 126.8 9.8 125.3 6.9 122.5 6.9 C 119.8 6.9 118.3 9.8 118.3 13.7 C 118.3 17.5 119.8 20.5 122.5 20.5 C 125.3 20.5 126.8 17.5 126.8 13.7 Z M 133.7 23.7 L 133.7 3.7 L 145.1 3.7 L 145.1 7.2 L 137.7 7.2 L 137.7 11.8 L 144.9 11.8 L 144.9 15.3 L 137.7 15.3 L 137.7 23.7 L 133.7 23.7 Z M 154.1 23.7 L 154.1 3.7 C 154.1 3.7 160.59 3.69 160.6 3.7 C 166.1 3.7 169.3 7.8 169.3 13.7 C 169.3 19.6 166.1 23.7 160.6 23.7 C 160.59 23.7 154.1 23.7 154.1 23.7 Z M 165.2 13.7 C 165.2 9.7 163.6 7.2 160.6 7.2 C 160.59 7.23 158.2 7.2 158.2 7.2 L 158.2 20.2 C 158.2 20.2 160.59 20.16 160.6 20.2 C 163.6 20.2 165.2 17.5 165.2 13.7 Z M 172.1 23.7 L 172.1 3.7 L 176.1 3.7 L 176.1 23.7 L 172.1 23.7 Z M 178.3 21.5 C 178.3 21.5 180.3 18.4 180.3 18.4 C 181.4 19.6 183.1 20.5 185.1 20.5 C 186.9 20.5 187.9 19.5 187.9 18.3 C 187.9 14.8 178.9 16 178.9 9.2 C 178.9 6.1 181.4 3.4 185.5 3.4 C 188 3.4 190.1 4.1 191.6 5.6 C 191.6 5.6 189.7 8.6 189.7 8.6 C 188.5 7.4 186.9 6.9 185.4 6.9 C 183.9 6.9 183 7.7 183 8.9 C 183 12.1 191.9 11.2 191.9 18 C 191.9 21.5 189.5 24.1 185.2 24.1 C 182.1 24.1 179.9 23.1 178.3 21.5 Z M 205.2 23.7 L 205.2 15.2 L 198.6 15.2 L 198.6 23.7 L 194.6 23.7 L 194.6 3.7 L 198.6 3.7 L 198.6 11.6 L 205.2 11.6 L 205.2 3.7 L 209.2 3.7 L 209.2 23.7 L 205.2 23.7 Z " stroke="none" fill="#d3d2d2"/>  </g></svg>