<?xml version="1.0" standalone="no"?><!DOCTYPE svg PUBLIC "-//W3C//DTD SVG 1.1//EN" "http://www.w3.org/Graphics/SVG/1.1/DTD/svg11.dtd"><svg xmlns="http://www.w3.org/2000/svg" version="1.1" width="274px" height="440.3px" viewBox="0 0 274 440.3">  <desc>Alcanivorase extract Acrylonitrile glutamate Tert-butyl hydroquinone Disodium inosinate Spilanthol 1,1-Propanedithiol</desc>  <defs/>  <g id="Polygon148100">    <path d="M 12.5 320.7 L 11.2 316.2 L 4.1 316.2 L 2.8 320.7 L 0.2 320.7 L 6.2 300.7 L 9.1 300.7 L 15.1 320.7 L 12.5 320.7 Z M 7.6 303.3 L 4.6 314.1 L 10.7 314.1 L 7.6 303.3 Z M 25.1 320.7 C 25.1 320.7 25.14 310.38 25.1 310.4 C 25.1 308.5 24.3 307.8 22.8 307.8 C 21.4 307.8 20.1 308.9 19.4 310.1 C 19.44 310.08 19.4 320.7 19.4 320.7 L 17.3 320.7 L 17.3 306.2 L 19.4 306.2 C 19.4 306.2 19.44 308.28 19.4 308.3 C 20.3 307 21.9 305.9 23.6 305.9 C 26.1 305.9 27.3 307.2 27.3 309.8 C 27.3 309.78 27.3 320.7 27.3 320.7 L 25.1 320.7 Z M 38.7 320.7 C 38.7 320.7 38.7 319.14 38.7 319.1 C 37.8 320.5 36.4 321.1 34.9 321.1 C 32.5 321.1 30.5 319.3 30.5 316.2 C 30.5 313.2 32.5 311.5 34.9 311.5 C 36.4 311.5 37.8 312 38.7 313.3 C 38.7 313.3 38.7 310.8 38.7 310.8 C 38.7 308.8 37.6 307.7 35.7 307.7 C 34.4 307.7 33.2 308.2 32.1 309.5 C 32.1 309.5 31.1 308 31.1 308 C 32.5 306.5 34.2 305.9 36.1 305.9 C 38.9 305.9 40.9 307.3 40.9 310.6 C 40.86 310.56 40.9 320.7 40.9 320.7 L 38.7 320.7 Z M 38.7 317.7 C 38.7 317.7 38.7 314.9 38.7 314.9 C 38 313.7 36.8 313.1 35.6 313.1 C 33.8 313.1 32.7 314.5 32.7 316.3 C 32.7 318.1 33.8 319.5 35.6 319.5 C 36.8 319.5 38 318.9 38.7 317.7 Z M 44.1 313.4 C 44.1 309.4 46.1 305.9 49.9 305.9 C 53.8 305.9 55.9 309.4 55.9 313.4 C 55.9 317.5 53.8 321.1 49.9 321.1 C 46.1 321.1 44.1 317.5 44.1 313.4 Z M 53.6 313.4 C 53.6 310.5 52.5 307.8 49.9 307.8 C 47.5 307.8 46.3 310.5 46.3 313.4 C 46.3 316.4 47.5 319.1 49.9 319.1 C 52.5 319.1 53.6 316.4 53.6 313.4 Z M 61.2 318.6 C 61.23 318.6 61.2 326.2 61.2 326.2 L 59.1 326.2 L 59.1 306.2 L 61.2 306.2 C 61.2 306.2 61.23 308.28 61.2 308.3 C 62.1 306.8 63.5 305.9 65 305.9 C 68.3 305.9 70.2 308.9 70.2 313.4 C 70.2 318 68.3 321.1 65 321.1 C 63.6 321.1 62.1 320.2 61.2 318.6 Z M 68 313.4 C 68 310.3 66.9 307.8 64.5 307.8 C 63.1 307.8 61.8 308.9 61.2 310.1 C 61.2 310.1 61.2 316.7 61.2 316.7 C 61.8 318 63.1 319.1 64.5 319.1 C 66.9 319.1 68 316.6 68 313.4 Z M 72.7 313.4 C 72.7 309.4 74.8 305.9 78.6 305.9 C 82.5 305.9 84.5 309.4 84.5 313.4 C 84.5 317.5 82.5 321.1 78.6 321.1 C 74.8 321.1 72.7 317.5 72.7 313.4 Z M 82.3 313.4 C 82.3 310.5 81.1 307.8 78.6 307.8 C 76.1 307.8 75 310.5 75 313.4 C 75 316.4 76.1 319.1 78.6 319.1 C 81.1 319.1 82.3 316.4 82.3 313.4 Z M 87 313.4 C 87 309.2 89.2 305.9 92.9 305.9 C 96.7 305.9 98.6 309.3 98.6 313.5 C 98.64 313.5 98.6 314.2 98.6 314.2 C 98.6 314.2 89.25 314.16 89.2 314.2 C 89.3 317.1 90.8 319.3 93.4 319.3 C 94.7 319.3 96 318.6 96.9 317.5 C 96.9 317.5 98 318.8 98 318.8 C 96.8 320.2 95.2 321.1 93.2 321.1 C 89.4 321.1 87 317.9 87 313.4 Z M 92.9 307.7 C 90.3 307.7 89.3 310.4 89.2 312.6 C 89.2 312.6 96.5 312.6 96.5 312.6 C 96.5 310.4 95.5 307.7 92.9 307.7 Z M 101.4 302.6 C 101.4 301.8 102.1 301.2 102.8 301.2 C 103.6 301.2 104.3 301.8 104.3 302.6 C 104.3 303.5 103.6 304.1 102.8 304.1 C 102.1 304.1 101.4 303.5 101.4 302.6 Z M 101.8 320.7 L 101.8 306.2 L 103.9 306.2 L 103.9 320.7 L 101.8 320.7 Z M 107.2 313.4 C 107.2 309.2 109.4 305.9 113.2 305.9 C 115.2 305.9 116.4 306.7 117.3 307.8 C 117.3 307.8 116.1 309.2 116.1 309.2 C 115.3 308.2 114.4 307.8 113.3 307.8 C 110.8 307.8 109.4 310.4 109.4 313.4 C 109.4 316.5 110.8 319.1 113.3 319.1 C 114.4 319.1 115.3 318.7 116.1 317.7 C 116.1 317.7 117.3 319.1 117.3 319.1 C 116.4 320.3 115.2 321.1 113.2 321.1 C 109.4 321.1 107.2 317.7 107.2 313.4 Z M 133.9 320.7 C 133.9 320.7 133.95 319.14 133.9 319.1 C 133 320.5 131.6 321.1 130.1 321.1 C 127.8 321.1 125.8 319.3 125.8 316.2 C 125.8 313.2 127.8 311.5 130.1 311.5 C 131.6 311.5 133 312 133.9 313.3 C 133.9 313.3 133.9 310.8 133.9 310.8 C 133.9 308.8 132.9 307.7 131 307.7 C 129.6 307.7 128.5 308.2 127.3 309.5 C 127.3 309.5 126.4 308 126.4 308 C 127.8 306.5 129.5 305.9 131.3 305.9 C 134.2 305.9 136.1 307.3 136.1 310.6 C 136.11 310.56 136.1 320.7 136.1 320.7 L 133.9 320.7 Z M 133.9 317.7 C 133.9 317.7 133.9 314.9 133.9 314.9 C 133.3 313.7 132.1 313.1 130.8 313.1 C 129 313.1 127.9 314.5 127.9 316.3 C 127.9 318.1 129 319.5 130.8 319.5 C 132.1 319.5 133.3 318.9 133.9 317.7 Z M 139.3 313.4 C 139.3 309.2 141.6 305.9 145.3 305.9 C 147.3 305.9 148.6 306.7 149.5 307.8 C 149.5 307.8 148.3 309.2 148.3 309.2 C 147.5 308.2 146.6 307.8 145.5 307.8 C 142.9 307.8 141.6 310.4 141.6 313.4 C 141.6 316.5 142.9 319.1 145.5 319.1 C 146.6 319.1 147.5 318.7 148.3 317.7 C 148.3 317.7 149.5 319.1 149.5 319.1 C 148.6 320.3 147.3 321.1 145.3 321.1 C 141.6 321.1 139.3 317.7 139.3 313.4 Z M 151.8 302.6 C 151.8 301.8 152.5 301.2 153.3 301.2 C 154.1 301.2 154.7 301.8 154.7 302.6 C 154.7 303.5 154.1 304.1 153.3 304.1 C 152.5 304.1 151.8 303.5 151.8 302.6 Z M 152.2 320.7 L 152.2 306.2 L 154.3 306.2 L 154.3 320.7 L 152.2 320.7 Z M 166.6 320.7 C 166.6 320.7 166.59 318.63 166.6 318.6 C 165.7 320.1 164.3 321.1 162.8 321.1 C 159.5 321.1 157.6 318 157.6 313.5 C 157.6 309 159.5 305.9 162.8 305.9 C 164.2 305.9 165.7 306.7 166.6 308.3 C 166.59 308.31 166.6 300.7 166.6 300.7 L 168.7 300.7 L 168.7 320.7 L 166.6 320.7 Z M 166.6 316.8 C 166.6 316.8 166.6 310.1 166.6 310.1 C 166 308.9 164.7 307.8 163.3 307.8 C 160.9 307.8 159.8 310.3 159.8 313.5 C 159.8 316.6 160.9 319.1 163.3 319.1 C 164.7 319.1 166 318.1 166.6 316.8 Z " stroke="none" fill="#d3d2d2"/>  </g>  <g id="Polygon148099">    <path d="M 2.1 284.7 L 2.1 264.7 C 2.1 264.7 7.44 264.69 7.4 264.7 C 12.6 264.7 15.5 269 15.5 274.7 C 15.5 280.5 12.6 284.7 7.4 284.7 C 7.44 284.7 2.1 284.7 2.1 284.7 Z M 13 274.7 C 13 270.2 11.2 266.8 7.4 266.8 C 7.44 266.79 4.5 266.8 4.5 266.8 L 4.5 282.6 C 4.5 282.6 7.44 282.57 7.4 282.6 C 11.1 282.6 13 279.2 13 274.7 Z M 18.5 266.6 C 18.5 265.8 19.2 265.2 19.9 265.2 C 20.8 265.2 21.4 265.8 21.4 266.6 C 21.4 267.5 20.8 268.1 19.9 268.1 C 19.2 268.1 18.5 267.5 18.5 266.6 Z M 18.9 284.7 L 18.9 270.2 L 21 270.2 L 21 284.7 L 18.9 284.7 Z M 32.8 284.7 C 32.8 284.7 32.85 274.35 32.8 274.4 C 32.8 272.4 31.9 271.8 30.5 271.8 C 29.1 271.8 27.8 272.9 27.1 274.1 C 27.12 274.08 27.1 284.7 27.1 284.7 L 25 284.7 L 25 264.7 L 27.1 264.7 C 27.1 264.7 27.12 272.28 27.1 272.3 C 28 271 29.6 269.9 31.3 269.9 C 33.8 269.9 35 271.1 35 273.7 C 34.98 273.72 35 284.7 35 284.7 L 32.8 284.7 Z M 38.5 288.5 C 38.8 288.6 39.2 288.7 39.5 288.7 C 40.3 288.7 40.8 288.3 41.2 287.2 C 41.19 287.22 42 285 42 285 L 37.1 270.2 L 39.5 270.2 L 43.1 282.1 L 46.7 270.2 L 49 270.2 C 49 270.2 43.23 287.76 43.2 287.8 C 42.5 289.9 41.3 290.6 39.6 290.6 C 39.2 290.6 38.5 290.5 38.2 290.4 C 38.2 290.4 38.5 288.5 38.5 288.5 Z M 59.5 284.7 C 59.5 284.7 59.46 282.63 59.5 282.6 C 58.6 284.1 57.2 285.1 55.6 285.1 C 52.4 285.1 50.5 282 50.5 277.5 C 50.5 273 52.4 269.9 55.6 269.9 C 57.1 269.9 58.6 270.7 59.5 272.3 C 59.46 272.31 59.5 264.7 59.5 264.7 L 61.6 264.7 L 61.6 284.7 L 59.5 284.7 Z M 59.5 280.8 C 59.5 280.8 59.5 274.1 59.5 274.1 C 58.9 272.9 57.6 271.8 56.2 271.8 C 53.8 271.8 52.7 274.3 52.7 277.5 C 52.7 280.6 53.8 283.1 56.2 283.1 C 57.6 283.1 58.9 282.1 59.5 280.8 Z M 65.6 284.7 L 65.6 270.2 L 67.7 270.2 C 67.7 270.2 67.71 272.52 67.7 272.5 C 68.6 271 70 269.9 71.8 269.9 C 71.8 269.9 71.8 272.1 71.8 272.1 C 71.6 272.1 71.3 272 71.1 272 C 69.8 272 68.3 273.2 67.7 274.4 C 67.71 274.41 67.7 284.7 67.7 284.7 L 65.6 284.7 Z M 73.6 277.4 C 73.6 273.4 75.6 269.9 79.5 269.9 C 83.4 269.9 85.4 273.4 85.4 277.4 C 85.4 281.5 83.4 285.1 79.5 285.1 C 75.6 285.1 73.6 281.5 73.6 277.4 Z M 83.1 277.4 C 83.1 274.5 82 271.8 79.5 271.8 C 77 271.8 75.8 274.5 75.8 277.4 C 75.8 280.4 77 283.1 79.5 283.1 C 82 283.1 83.1 280.4 83.1 277.4 Z M 87.5 278.4 L 87.5 276.5 L 93.7 276.5 L 93.7 278.4 L 87.5 278.4 Z M 111.3 284.7 C 111.3 284.7 111.27 274.2 111.3 274.2 C 111.3 272.6 110.6 271.8 109.3 271.8 C 108 271.8 106.7 272.9 106.1 274.1 C 106.11 274.08 106.1 284.7 106.1 284.7 L 103.9 284.7 C 103.9 284.7 103.95 274.2 103.9 274.2 C 103.9 272.6 103.3 271.8 101.9 271.8 C 100.6 271.8 99.4 272.9 98.8 274.1 C 98.76 274.08 98.8 284.7 98.8 284.7 L 96.6 284.7 L 96.6 270.2 L 98.8 270.2 C 98.8 270.2 98.76 272.28 98.8 272.3 C 99.4 271.2 101 269.9 102.7 269.9 C 104.6 269.9 105.7 270.9 106 272.4 C 106.7 271.1 108.3 269.9 110.1 269.9 C 112.2 269.9 113.4 271 113.4 273.6 C 113.43 273.63 113.4 284.7 113.4 284.7 L 111.3 284.7 Z M 116.7 277.4 C 116.7 273.2 118.9 269.9 122.5 269.9 C 126.4 269.9 128.3 273.3 128.3 277.5 C 128.28 277.5 128.3 278.2 128.3 278.2 C 128.3 278.2 118.89 278.16 118.9 278.2 C 119 281.1 120.5 283.3 123.1 283.3 C 124.3 283.3 125.6 282.6 126.5 281.5 C 126.5 281.5 127.6 282.8 127.6 282.8 C 126.5 284.2 124.8 285.1 122.9 285.1 C 119 285.1 116.7 281.9 116.7 277.4 Z M 122.5 271.7 C 120 271.7 118.9 274.4 118.9 276.6 C 118.9 276.6 126.1 276.6 126.1 276.6 C 126.1 274.4 125.2 271.7 122.5 271.7 Z M 131.8 281.8 C 131.85 281.79 131.8 272.1 131.8 272.1 L 129.9 272.1 L 129.9 270.2 L 131.8 270.2 L 131.8 266.3 L 134 266.3 L 134 270.2 L 136.5 270.2 L 136.5 272.1 L 134 272.1 C 134 272.1 134.01 281.4 134 281.4 C 134 282.5 134.3 283.1 135.2 283.1 C 135.7 283.1 136.2 282.9 136.4 282.6 C 136.4 282.6 137.1 284.2 137.1 284.2 C 136.6 284.7 135.9 285.1 134.8 285.1 C 132.8 285.1 131.8 284 131.8 281.8 Z M 147.2 284.7 C 147.2 284.7 147.18 274.35 147.2 274.4 C 147.2 272.4 146.3 271.8 144.8 271.8 C 143.4 271.8 142.1 272.9 141.4 274.1 C 141.45 274.08 141.4 284.7 141.4 284.7 L 139.3 284.7 L 139.3 264.7 L 141.4 264.7 C 141.4 264.7 141.45 272.28 141.4 272.3 C 142.3 271 143.9 269.9 145.7 269.9 C 148.1 269.9 149.3 271.1 149.3 273.7 C 149.31 273.72 149.3 284.7 149.3 284.7 L 147.2 284.7 Z M 152.8 288.5 C 153.1 288.6 153.6 288.7 153.8 288.7 C 154.6 288.7 155.1 288.3 155.5 287.2 C 155.52 287.22 156.3 285 156.3 285 L 151.5 270.2 L 153.8 270.2 L 157.4 282.1 L 161 270.2 L 163.3 270.2 C 163.3 270.2 157.56 287.76 157.6 287.8 C 156.8 289.9 155.7 290.6 154 290.6 C 153.5 290.6 152.8 290.5 152.5 290.4 C 152.5 290.4 152.8 288.5 152.8 288.5 Z M 165.5 284.7 L 165.5 264.7 L 167.6 264.7 L 167.6 284.7 L 165.5 284.7 Z M 179 284.7 C 179 284.7 179.04 283.14 179 283.1 C 178.1 284.5 176.7 285.1 175.2 285.1 C 172.9 285.1 170.8 283.3 170.8 280.2 C 170.8 277.2 172.9 275.5 175.2 275.5 C 176.7 275.5 178.1 276 179 277.3 C 179 277.3 179 274.8 179 274.8 C 179 272.8 178 271.7 176.1 271.7 C 174.7 271.7 173.5 272.2 172.4 273.5 C 172.4 273.5 171.5 272 171.5 272 C 172.9 270.5 174.6 269.9 176.4 269.9 C 179.3 269.9 181.2 271.3 181.2 274.6 C 181.2 274.56 181.2 284.7 181.2 284.7 L 179 284.7 Z M 179 281.7 C 179 281.7 179 278.9 179 278.9 C 178.4 277.7 177.2 277.1 175.9 277.1 C 174.1 277.1 173 278.5 173 280.3 C 173 282.1 174.1 283.5 175.9 283.5 C 177.2 283.5 178.4 282.9 179 281.7 Z M 184.4 284.7 L 184.4 283 L 190.7 272.1 L 184.4 272.1 L 184.4 270.2 L 193.3 270.2 L 193.3 271.9 L 187.1 282.8 L 193.5 282.8 L 193.5 284.7 L 184.4 284.7 Z M 196 277.4 C 196 273.4 198.1 269.9 201.9 269.9 C 205.8 269.9 207.8 273.4 207.8 277.4 C 207.8 281.5 205.8 285.1 201.9 285.1 C 198.1 285.1 196 281.5 196 277.4 Z M 205.6 277.4 C 205.6 274.5 204.4 271.8 201.9 271.8 C 199.4 271.8 198.3 274.5 198.3 277.4 C 198.3 280.4 199.4 283.1 201.9 283.1 C 204.4 283.1 205.6 280.4 205.6 277.4 Z M 211 284.7 L 211 264.7 L 213.2 264.7 L 213.2 284.7 L 211 284.7 Z M 216.4 277.4 C 216.4 273.2 218.6 269.9 222.3 269.9 C 226.1 269.9 228 273.3 228 277.5 C 228.02 277.5 228 278.2 228 278.2 C 228 278.2 218.63 278.16 218.6 278.2 C 218.7 281.1 220.2 283.3 222.8 283.3 C 224.1 283.3 225.4 282.6 226.3 281.5 C 226.3 281.5 227.4 282.8 227.4 282.8 C 226.2 284.2 224.6 285.1 222.6 285.1 C 218.8 285.1 216.4 281.9 216.4 277.4 Z M 222.3 271.7 C 219.7 271.7 218.7 274.4 218.6 276.6 C 218.6 276.6 225.9 276.6 225.9 276.6 C 225.9 274.4 224.9 271.7 222.3 271.7 Z " stroke="none" fill="#d3d2d2"/>  </g>  <g id="Polygon148098">    <path d="M 2.1 248.7 L 2.1 228.7 L 12.4 228.7 L 12.4 230.8 L 4.5 230.8 L 4.5 237.4 L 12.2 237.4 L 12.2 239.5 L 4.5 239.5 L 4.5 248.7 L 2.1 248.7 Z M 23.3 248.7 C 23.3 248.7 23.34 246.69 23.3 246.7 C 22.5 248 20.9 249.1 19.1 249.1 C 16.7 249.1 15.5 247.8 15.5 245.2 C 15.51 245.19 15.5 234.2 15.5 234.2 L 17.6 234.2 C 17.6 234.2 17.64 244.56 17.6 244.6 C 17.6 246.5 18.5 247.1 19.9 247.1 C 21.4 247.1 22.7 246.1 23.3 244.9 C 23.34 244.89 23.3 234.2 23.3 234.2 L 25.5 234.2 L 25.5 248.7 L 23.3 248.7 Z M 29.5 248.7 L 29.5 234.2 L 31.6 234.2 C 31.6 234.2 31.59 236.52 31.6 236.5 C 32.5 235 33.9 233.9 35.7 233.9 C 35.7 233.9 35.7 236.1 35.7 236.1 C 35.5 236.1 35.2 236 35 236 C 33.7 236 32.2 237.2 31.6 238.4 C 31.59 238.41 31.6 248.7 31.6 248.7 L 29.5 248.7 Z M 38.7 248.7 L 38.7 236.1 L 36.8 236.1 L 36.8 234.2 L 38.7 234.2 C 38.7 234.2 38.7 232.44 38.7 232.4 C 38.7 229.9 40.1 228.4 42.3 228.4 C 43.3 228.4 44.2 228.7 44.9 229.4 C 44.9 229.4 44.1 230.9 44.1 230.9 C 43.7 230.5 43.2 230.2 42.7 230.2 C 41.5 230.2 40.9 231 40.9 232.4 C 40.86 232.44 40.9 234.2 40.9 234.2 L 43.3 234.2 L 43.3 236.1 L 40.9 236.1 L 40.9 248.7 L 38.7 248.7 Z M 53.6 248.7 C 53.6 248.7 53.64 246.69 53.6 246.7 C 52.8 248 51.2 249.1 49.4 249.1 C 47 249.1 45.8 247.8 45.8 245.2 C 45.81 245.19 45.8 234.2 45.8 234.2 L 47.9 234.2 C 47.9 234.2 47.94 244.56 47.9 244.6 C 47.9 246.5 48.8 247.1 50.2 247.1 C 51.7 247.1 53 246.1 53.6 244.9 C 53.64 244.89 53.6 234.2 53.6 234.2 L 55.8 234.2 L 55.8 248.7 L 53.6 248.7 Z M 59.8 248.7 L 59.8 234.2 L 61.9 234.2 C 61.9 234.2 61.89 236.52 61.9 236.5 C 62.8 235 64.2 233.9 66 233.9 C 66 233.9 66 236.1 66 236.1 C 65.8 236.1 65.5 236 65.3 236 C 64 236 62.5 237.2 61.9 238.4 C 61.89 238.41 61.9 248.7 61.9 248.7 L 59.8 248.7 Z M 68.1 252.5 C 68.3 252.6 68.8 252.7 69 252.7 C 69.9 252.7 70.3 252.3 70.7 251.2 C 70.74 251.22 71.5 249 71.5 249 L 66.7 234.2 L 69 234.2 L 72.6 246.1 L 76.3 234.2 L 78.6 234.2 C 78.6 234.2 72.78 251.76 72.8 251.8 C 72.1 253.9 70.9 254.6 69.2 254.6 C 68.7 254.6 68.1 254.5 67.7 254.4 C 67.7 254.4 68.1 252.5 68.1 252.5 Z M 80.7 248.7 L 80.7 228.7 L 82.9 228.7 L 82.9 248.7 L 80.7 248.7 Z M 87.2 245.8 C 87.24 245.79 87.2 236.1 87.2 236.1 L 85.3 236.1 L 85.3 234.2 L 87.2 234.2 L 87.2 230.3 L 89.4 230.3 L 89.4 234.2 L 91.9 234.2 L 91.9 236.1 L 89.4 236.1 C 89.4 236.1 89.4 245.4 89.4 245.4 C 89.4 246.5 89.7 247.1 90.6 247.1 C 91.1 247.1 91.6 246.9 91.8 246.6 C 91.8 246.6 92.5 248.2 92.5 248.2 C 92 248.7 91.3 249.1 90.1 249.1 C 88.2 249.1 87.2 248 87.2 245.8 Z M 102.6 248.7 C 102.6 248.7 102.57 238.35 102.6 238.4 C 102.6 236.4 101.7 235.8 100.2 235.8 C 98.8 235.8 97.5 236.9 96.8 238.1 C 96.84 238.08 96.8 248.7 96.8 248.7 L 94.7 248.7 L 94.7 228.7 L 96.8 228.7 C 96.8 228.7 96.84 236.28 96.8 236.3 C 97.7 235 99.3 233.9 101.1 233.9 C 103.5 233.9 104.7 235.1 104.7 237.7 C 104.7 237.72 104.7 248.7 104.7 248.7 L 102.6 248.7 Z M 108.2 230.6 C 108.2 229.8 108.9 229.2 109.7 229.2 C 110.5 229.2 111.2 229.8 111.2 230.6 C 111.2 231.5 110.5 232.1 109.7 232.1 C 108.9 232.1 108.2 231.5 108.2 230.6 Z M 108.7 248.7 L 108.7 234.2 L 110.8 234.2 L 110.8 248.7 L 108.7 248.7 Z M 114 241.4 C 114 237.4 116.1 233.9 119.9 233.9 C 123.8 233.9 125.8 237.4 125.8 241.4 C 125.8 245.5 123.8 249.1 119.9 249.1 C 116.1 249.1 114 245.5 114 241.4 Z M 123.6 241.4 C 123.6 238.5 122.5 235.8 119.9 235.8 C 117.4 235.8 116.3 238.5 116.3 241.4 C 116.3 244.4 117.4 247.1 119.9 247.1 C 122.5 247.1 123.6 244.4 123.6 241.4 Z M 137.6 246.6 C 137.64 246.6 137.6 254.2 137.6 254.2 L 135.5 254.2 L 135.5 234.2 L 137.6 234.2 C 137.6 234.2 137.64 236.28 137.6 236.3 C 138.5 234.8 139.9 233.9 141.4 233.9 C 144.7 233.9 146.6 236.9 146.6 241.4 C 146.6 246 144.7 249.1 141.4 249.1 C 140 249.1 138.5 248.2 137.6 246.6 Z M 144.4 241.4 C 144.4 238.3 143.3 235.8 140.9 235.8 C 139.6 235.8 138.2 236.9 137.6 238.1 C 137.6 238.1 137.6 244.7 137.6 244.7 C 138.2 246 139.6 247.1 140.9 247.1 C 143.3 247.1 144.4 244.6 144.4 241.4 Z M 149.8 248.7 L 149.8 234.2 L 152 234.2 C 152 234.2 151.98 236.52 152 236.5 C 152.9 235 154.3 233.9 156.1 233.9 C 156.1 233.9 156.1 236.1 156.1 236.1 C 155.8 236.1 155.6 236 155.4 236 C 154 236 152.6 237.2 152 238.4 C 151.98 238.41 152 248.7 152 248.7 L 149.8 248.7 Z M 157.9 241.4 C 157.9 237.4 159.9 233.9 163.7 233.9 C 167.6 233.9 169.6 237.4 169.6 241.4 C 169.6 245.5 167.6 249.1 163.7 249.1 C 159.9 249.1 157.9 245.5 157.9 241.4 Z M 167.4 241.4 C 167.4 238.5 166.3 235.8 163.7 235.8 C 161.2 235.8 160.1 238.5 160.1 241.4 C 160.1 244.4 161.2 247.1 163.7 247.1 C 166.3 247.1 167.4 244.4 167.4 241.4 Z M 175 246.6 C 175.02 246.6 175 254.2 175 254.2 L 172.9 254.2 L 172.9 234.2 L 175 234.2 C 175 234.2 175.02 236.28 175 236.3 C 175.9 234.8 177.3 233.9 178.8 233.9 C 182.1 233.9 184 236.9 184 241.4 C 184 246 182.1 249.1 178.8 249.1 C 177.4 249.1 175.9 248.2 175 246.6 Z M 181.8 241.4 C 181.8 238.3 180.7 235.8 178.3 235.8 C 176.9 235.8 175.6 236.9 175 238.1 C 175 238.1 175 244.7 175 244.7 C 175.6 246 176.9 247.1 178.3 247.1 C 180.7 247.1 181.8 244.6 181.8 241.4 Z M 194.7 248.7 C 194.7 248.7 194.67 247.14 194.7 247.1 C 193.7 248.5 192.3 249.1 190.9 249.1 C 188.5 249.1 186.5 247.3 186.5 244.2 C 186.5 241.2 188.5 239.5 190.9 239.5 C 192.3 239.5 193.8 240 194.7 241.3 C 194.7 241.3 194.7 238.8 194.7 238.8 C 194.7 236.8 193.6 235.7 191.7 235.7 C 190.3 235.7 189.2 236.2 188.1 237.5 C 188.1 237.5 187.1 236 187.1 236 C 188.5 234.5 190.2 233.9 192 233.9 C 194.9 233.9 196.8 235.3 196.8 238.6 C 196.83 238.56 196.8 248.7 196.8 248.7 L 194.7 248.7 Z M 194.7 245.7 C 194.7 245.7 194.7 242.9 194.7 242.9 C 194 241.7 192.8 241.1 191.5 241.1 C 189.7 241.1 188.7 242.5 188.7 244.3 C 188.7 246.1 189.7 247.5 191.5 247.5 C 192.8 247.5 194 246.9 194.7 245.7 Z M 208.6 248.7 C 208.6 248.7 208.59 238.38 208.6 238.4 C 208.6 236.5 207.7 235.8 206.3 235.8 C 204.9 235.8 203.5 236.9 202.9 238.1 C 202.89 238.08 202.9 248.7 202.9 248.7 L 200.8 248.7 L 200.8 234.2 L 202.9 234.2 C 202.9 234.2 202.89 236.28 202.9 236.3 C 203.7 235 205.3 233.9 207.1 233.9 C 209.5 233.9 210.7 235.2 210.7 237.8 C 210.75 237.78 210.7 248.7 210.7 248.7 L 208.6 248.7 Z M 214 241.4 C 214 237.4 216 233.9 219.9 233.9 C 223.8 233.9 225.8 237.4 225.8 241.4 C 225.8 245.5 223.8 249.1 219.9 249.1 C 216 249.1 214 245.5 214 241.4 Z M 223.5 241.4 C 223.5 238.5 222.4 235.8 219.9 235.8 C 217.4 235.8 216.2 238.5 216.2 241.4 C 216.2 244.4 217.4 247.1 219.9 247.1 C 222.4 247.1 223.5 244.4 223.5 241.4 Z M 236.8 248.7 C 236.8 248.7 236.84 238.38 236.8 238.4 C 236.8 236.5 236 235.8 234.5 235.8 C 233.1 235.8 231.8 236.9 231.1 238.1 C 231.14 238.08 231.1 248.7 231.1 248.7 L 229 248.7 L 229 234.2 L 231.1 234.2 C 231.1 234.2 231.14 236.28 231.1 236.3 C 232 235 233.6 233.9 235.3 233.9 C 237.8 233.9 239 235.2 239 237.8 C 239 237.78 239 248.7 239 248.7 L 236.8 248.7 Z M 242.2 241.4 C 242.2 237.2 244.5 233.9 248.1 233.9 C 251.9 233.9 253.9 237.3 253.9 241.5 C 253.85 241.5 253.9 242.2 253.9 242.2 C 253.9 242.2 244.46 242.16 244.5 242.2 C 244.6 245.1 246.1 247.3 248.6 247.3 C 249.9 247.3 251.2 246.6 252.1 245.5 C 252.1 245.5 253.2 246.8 253.2 246.8 C 252.1 248.2 250.4 249.1 248.5 249.1 C 244.6 249.1 242.2 245.9 242.2 241.4 Z M 248.1 235.7 C 245.5 235.7 244.5 238.4 244.5 240.6 C 244.5 240.6 251.7 240.6 251.7 240.6 C 251.7 238.4 250.7 235.7 248.1 235.7 Z " stroke="none" fill="#d3d2d2"/>  </g>  <g id="Polygon148097">    <path d="M 5 212.7 L 5 195.8 L 1.9 199.1 L 0.4 197.6 L 5.3 192.7 L 7.3 192.7 L 7.3 212.7 L 5 212.7 Z M 12.2 216.5 C 12.2 216.5 11.2 215.6 11.2 215.6 C 12.1 215 13 213.8 13.1 212.8 C 13 212.8 12.8 212.9 12.7 212.9 C 11.9 212.9 11.3 212.2 11.3 211.4 C 11.3 210.5 11.9 209.8 12.8 209.8 C 13.8 209.8 14.6 210.6 14.6 212 C 14.6 213.8 13.6 215.5 12.2 216.5 Z M 18.9 212.7 L 18.9 195.8 L 15.8 199.1 L 14.4 197.6 L 19.2 192.7 L 21.3 192.7 L 21.3 212.7 L 18.9 212.7 Z M 24.3 206.4 L 24.3 204.5 L 30.5 204.5 L 30.5 206.4 L 24.3 206.4 Z M 33.5 212.7 L 33.5 192.7 C 33.5 192.7 39.6 192.69 39.6 192.7 C 43.3 192.7 45.1 195.5 45.1 198.7 C 45.1 201.9 43.2 204.7 39.6 204.7 C 39.6 204.69 35.9 204.7 35.9 204.7 L 35.9 212.7 L 33.5 212.7 Z M 42.7 198.7 C 42.7 196.4 41.4 194.8 39.4 194.8 C 39.36 194.79 35.9 194.8 35.9 194.8 L 35.9 202.6 C 35.9 202.6 39.36 202.59 39.4 202.6 C 41.4 202.6 42.7 201 42.7 198.7 Z M 48 212.7 L 48 198.2 L 50.1 198.2 C 50.1 198.2 50.13 200.52 50.1 200.5 C 51.1 199 52.5 197.9 54.2 197.9 C 54.2 197.9 54.2 200.1 54.2 200.1 C 54 200.1 53.8 200 53.5 200 C 52.2 200 50.7 201.2 50.1 202.4 C 50.13 202.41 50.1 212.7 50.1 212.7 L 48 212.7 Z M 56 205.4 C 56 201.4 58 197.9 61.9 197.9 C 65.8 197.9 67.8 201.4 67.8 205.4 C 67.8 209.5 65.8 213.1 61.9 213.1 C 58 213.1 56 209.5 56 205.4 Z M 65.5 205.4 C 65.5 202.5 64.4 199.8 61.9 199.8 C 59.4 199.8 58.3 202.5 58.3 205.4 C 58.3 208.4 59.4 211.1 61.9 211.1 C 64.4 211.1 65.5 208.4 65.5 205.4 Z M 73.2 210.6 C 73.17 210.6 73.2 218.2 73.2 218.2 L 71 218.2 L 71 198.2 L 73.2 198.2 C 73.2 198.2 73.17 200.28 73.2 200.3 C 74 198.8 75.4 197.9 77 197.9 C 80.2 197.9 82.2 200.9 82.2 205.4 C 82.2 210 80.2 213.1 77 213.1 C 75.5 213.1 74.1 212.2 73.2 210.6 Z M 79.9 205.4 C 79.9 202.3 78.8 199.8 76.4 199.8 C 75.1 199.8 73.7 200.9 73.2 202.1 C 73.2 202.1 73.2 208.7 73.2 208.7 C 73.7 210 75.1 211.1 76.4 211.1 C 78.8 211.1 79.9 208.6 79.9 205.4 Z M 92.8 212.7 C 92.8 212.7 92.82 211.14 92.8 211.1 C 91.9 212.5 90.5 213.1 89 213.1 C 86.7 213.1 84.6 211.3 84.6 208.2 C 84.6 205.2 86.6 203.5 89 203.5 C 90.5 203.5 91.9 204 92.8 205.3 C 92.8 205.3 92.8 202.8 92.8 202.8 C 92.8 200.8 91.7 199.7 89.8 199.7 C 88.5 199.7 87.3 200.2 86.2 201.5 C 86.2 201.5 85.3 200 85.3 200 C 86.6 198.5 88.3 197.9 90.2 197.9 C 93.1 197.9 95 199.3 95 202.6 C 94.98 202.56 95 212.7 95 212.7 L 92.8 212.7 Z M 92.8 209.7 C 92.8 209.7 92.8 206.9 92.8 206.9 C 92.2 205.7 91 205.1 89.7 205.1 C 87.9 205.1 86.8 206.5 86.8 208.3 C 86.8 210.1 87.9 211.5 89.7 211.5 C 91 211.5 92.2 210.9 92.8 209.7 Z M 106.7 212.7 C 106.7 212.7 106.74 202.38 106.7 202.4 C 106.7 200.5 105.9 199.8 104.4 199.8 C 103 199.8 101.7 200.9 101 202.1 C 101.04 202.08 101 212.7 101 212.7 L 98.9 212.7 L 98.9 198.2 L 101 198.2 C 101 198.2 101.04 200.28 101 200.3 C 101.9 199 103.5 197.9 105.2 197.9 C 107.7 197.9 108.9 199.2 108.9 201.8 C 108.9 201.78 108.9 212.7 108.9 212.7 L 106.7 212.7 Z M 112.1 205.4 C 112.1 201.2 114.4 197.9 118 197.9 C 121.8 197.9 123.7 201.3 123.7 205.5 C 123.75 205.5 123.7 206.2 123.7 206.2 C 123.7 206.2 114.36 206.16 114.4 206.2 C 114.4 209.1 115.9 211.3 118.5 211.3 C 119.8 211.3 121.1 210.6 122 209.5 C 122 209.5 123.1 210.8 123.1 210.8 C 121.9 212.2 120.3 213.1 118.3 213.1 C 114.5 213.1 112.1 209.9 112.1 205.4 Z M 118 199.7 C 115.4 199.7 114.4 202.4 114.4 204.6 C 114.4 204.6 121.6 204.6 121.6 204.6 C 121.6 202.4 120.6 199.7 118 199.7 Z M 135.2 212.7 C 135.2 212.7 135.18 210.63 135.2 210.6 C 134.3 212.1 132.9 213.1 131.4 213.1 C 128.1 213.1 126.2 210 126.2 205.5 C 126.2 201 128.1 197.9 131.4 197.9 C 132.8 197.9 134.3 198.7 135.2 200.3 C 135.18 200.31 135.2 192.7 135.2 192.7 L 137.3 192.7 L 137.3 212.7 L 135.2 212.7 Z M 135.2 208.8 C 135.2 208.8 135.2 202.1 135.2 202.1 C 134.6 200.9 133.3 199.8 131.9 199.8 C 129.5 199.8 128.4 202.3 128.4 205.5 C 128.4 208.6 129.5 211.1 131.9 211.1 C 133.3 211.1 134.6 210.1 135.2 208.8 Z M 140.9 194.6 C 140.9 193.8 141.6 193.2 142.3 193.2 C 143.2 193.2 143.8 193.8 143.8 194.6 C 143.8 195.5 143.2 196.1 142.3 196.1 C 141.6 196.1 140.9 195.5 140.9 194.6 Z M 141.3 212.7 L 141.3 198.2 L 143.4 198.2 L 143.4 212.7 L 141.3 212.7 Z M 147.8 209.8 C 147.81 209.79 147.8 200.1 147.8 200.1 L 145.9 200.1 L 145.9 198.2 L 147.8 198.2 L 147.8 194.3 L 150 194.3 L 150 198.2 L 152.4 198.2 L 152.4 200.1 L 150 200.1 C 150 200.1 149.97 209.4 150 209.4 C 150 210.5 150.3 211.1 151.1 211.1 C 151.7 211.1 152.1 210.9 152.4 210.6 C 152.4 210.6 153.1 212.2 153.1 212.2 C 152.5 212.7 151.8 213.1 150.7 213.1 C 148.7 213.1 147.8 212 147.8 209.8 Z M 163.1 212.7 C 163.1 212.7 163.14 202.35 163.1 202.4 C 163.1 200.4 162.2 199.8 160.8 199.8 C 159.4 199.8 158.1 200.9 157.4 202.1 C 157.41 202.08 157.4 212.7 157.4 212.7 L 155.3 212.7 L 155.3 192.7 L 157.4 192.7 C 157.4 192.7 157.41 200.28 157.4 200.3 C 158.2 199 159.9 197.9 161.6 197.9 C 164.1 197.9 165.3 199.1 165.3 201.7 C 165.27 201.72 165.3 212.7 165.3 212.7 L 163.1 212.7 Z M 168.8 194.6 C 168.8 193.8 169.5 193.2 170.3 193.2 C 171.1 193.2 171.7 193.8 171.7 194.6 C 171.7 195.5 171.1 196.1 170.3 196.1 C 169.5 196.1 168.8 195.5 168.8 194.6 Z M 169.2 212.7 L 169.2 198.2 L 171.4 198.2 L 171.4 212.7 L 169.2 212.7 Z M 174.6 205.4 C 174.6 201.4 176.6 197.9 180.5 197.9 C 184.4 197.9 186.4 201.4 186.4 205.4 C 186.4 209.5 184.4 213.1 180.5 213.1 C 176.6 213.1 174.6 209.5 174.6 205.4 Z M 184.1 205.4 C 184.1 202.5 183 199.8 180.5 199.8 C 178 199.8 176.8 202.5 176.8 205.4 C 176.8 208.4 178 211.1 180.5 211.1 C 183 211.1 184.1 208.4 184.1 205.4 Z M 189.6 212.7 L 189.6 192.7 L 191.8 192.7 L 191.8 212.7 L 189.6 212.7 Z " stroke="none" fill="#d3d2d2"/>  </g>  <g id="Polygon148096">    <path d="M 0.9 174.5 C 0.9 174.5 2.2 172.7 2.2 172.7 C 3.2 173.9 4.9 174.9 6.8 174.9 C 9.4 174.9 10.5 173.4 10.5 171.7 C 10.5 166.8 1.5 168.1 1.5 161.6 C 1.5 158.6 3.9 156.4 7.2 156.4 C 9.4 156.4 11.2 157.1 12.5 158.5 C 12.5 158.5 11.3 160.3 11.3 160.3 C 10.2 159.1 8.7 158.5 7.1 158.5 C 5.3 158.5 3.9 159.7 3.9 161.5 C 3.9 165.7 12.9 164.8 12.9 171.5 C 12.9 174.5 11 177.1 6.8 177.1 C 4.2 177.1 2.2 176.1 0.9 174.5 Z M 18.2 174.6 C 18.21 174.6 18.2 182.2 18.2 182.2 L 16.1 182.2 L 16.1 162.2 L 18.2 162.2 C 18.2 162.2 18.21 164.28 18.2 164.3 C 19 162.8 20.5 161.9 22 161.9 C 25.3 161.9 27.2 164.9 27.2 169.4 C 27.2 174 25.3 177.1 22 177.1 C 20.5 177.1 19.1 176.2 18.2 174.6 Z M 25 169.4 C 25 166.3 23.8 163.8 21.5 163.8 C 20.1 163.8 18.8 164.9 18.2 166.1 C 18.2 166.1 18.2 172.7 18.2 172.7 C 18.8 174 20.1 175.1 21.5 175.1 C 23.8 175.1 25 172.6 25 169.4 Z M 30 158.6 C 30 157.8 30.7 157.2 31.5 157.2 C 32.3 157.2 32.9 157.8 32.9 158.6 C 32.9 159.5 32.3 160.1 31.5 160.1 C 30.7 160.1 30 159.5 30 158.6 Z M 30.4 176.7 L 30.4 162.2 L 32.5 162.2 L 32.5 176.7 L 30.4 176.7 Z M 36.5 176.7 L 36.5 156.7 L 38.6 156.7 L 38.6 176.7 L 36.5 176.7 Z M 50 176.7 C 50 176.7 50.04 175.14 50 175.1 C 49.1 176.5 47.7 177.1 46.2 177.1 C 43.9 177.1 41.8 175.3 41.8 172.2 C 41.8 169.2 43.9 167.5 46.2 167.5 C 47.7 167.5 49.1 168 50 169.3 C 50 169.3 50 166.8 50 166.8 C 50 164.8 49 163.7 47.1 163.7 C 45.7 163.7 44.5 164.2 43.4 165.5 C 43.4 165.5 42.5 164 42.5 164 C 43.9 162.5 45.6 161.9 47.4 161.9 C 50.3 161.9 52.2 163.3 52.2 166.6 C 52.2 166.56 52.2 176.7 52.2 176.7 L 50 176.7 Z M 50 173.7 C 50 173.7 50 170.9 50 170.9 C 49.4 169.7 48.2 169.1 46.9 169.1 C 45.1 169.1 44 170.5 44 172.3 C 44 174.1 45.1 175.5 46.9 175.5 C 48.2 175.5 49.4 174.9 50 173.7 Z M 64 176.7 C 64 176.7 63.96 166.38 64 166.4 C 64 164.5 63.1 163.8 61.6 163.8 C 60.2 163.8 58.9 164.9 58.3 166.1 C 58.26 166.08 58.3 176.7 58.3 176.7 L 56.1 176.7 L 56.1 162.2 L 58.3 162.2 C 58.3 162.2 58.26 164.28 58.3 164.3 C 59.1 163 60.7 161.9 62.5 161.9 C 64.9 161.9 66.1 163.2 66.1 165.8 C 66.12 165.78 66.1 176.7 66.1 176.7 L 64 176.7 Z M 70.5 173.8 C 70.5 173.79 70.5 164.1 70.5 164.1 L 68.6 164.1 L 68.6 162.2 L 70.5 162.2 L 70.5 158.3 L 72.7 158.3 L 72.7 162.2 L 75.1 162.2 L 75.1 164.1 L 72.7 164.1 C 72.7 164.1 72.66 173.4 72.7 173.4 C 72.7 174.5 73 175.1 73.8 175.1 C 74.4 175.1 74.8 174.9 75.1 174.6 C 75.1 174.6 75.7 176.2 75.7 176.2 C 75.2 176.7 74.5 177.1 73.4 177.1 C 71.4 177.1 70.5 176 70.5 173.8 Z M 85.8 176.7 C 85.8 176.7 85.83 166.35 85.8 166.4 C 85.8 164.4 84.9 163.8 83.5 163.8 C 82.1 163.8 80.8 164.9 80.1 166.1 C 80.1 166.08 80.1 176.7 80.1 176.7 L 78 176.7 L 78 156.7 L 80.1 156.7 C 80.1 156.7 80.1 164.28 80.1 164.3 C 80.9 163 82.6 161.9 84.3 161.9 C 86.8 161.9 88 163.1 88 165.7 C 87.96 165.72 88 176.7 88 176.7 L 85.8 176.7 Z M 91.2 169.4 C 91.2 165.4 93.2 161.9 97.1 161.9 C 101 161.9 103 165.4 103 169.4 C 103 173.5 101 177.1 97.1 177.1 C 93.2 177.1 91.2 173.5 91.2 169.4 Z M 100.7 169.4 C 100.7 166.5 99.6 163.8 97.1 163.8 C 94.6 163.8 93.4 166.5 93.4 169.4 C 93.4 172.4 94.6 175.1 97.1 175.1 C 99.6 175.1 100.7 172.4 100.7 169.4 Z M 106.2 176.7 L 106.2 156.7 L 108.4 156.7 L 108.4 176.7 L 106.2 176.7 Z " stroke="none" fill="#d3d2d2"/>  </g>  <g id="Polygon148095">    <path d="M 2.1 140.7 L 2.1 120.7 C 2.1 120.7 7.44 120.69 7.4 120.7 C 12.6 120.7 15.5 125 15.5 130.7 C 15.5 136.5 12.6 140.7 7.4 140.7 C 7.44 140.7 2.1 140.7 2.1 140.7 Z M 13 130.7 C 13 126.2 11.2 122.8 7.4 122.8 C 7.44 122.79 4.5 122.8 4.5 122.8 L 4.5 138.6 C 4.5 138.6 7.44 138.57 7.4 138.6 C 11.1 138.6 13 135.2 13 130.7 Z M 18.5 122.6 C 18.5 121.8 19.2 121.2 19.9 121.2 C 20.8 121.2 21.4 121.8 21.4 122.6 C 21.4 123.5 20.8 124.1 19.9 124.1 C 19.2 124.1 18.5 123.5 18.5 122.6 Z M 18.9 140.7 L 18.9 126.2 L 21 126.2 L 21 140.7 L 18.9 140.7 Z M 23.8 139 C 23.8 139 24.9 137.5 24.9 137.5 C 25.7 138.5 27.1 139.3 28.7 139.3 C 30.4 139.3 31.5 138.4 31.5 137 C 31.5 133.6 24.2 134.8 24.2 129.8 C 24.2 127.6 26 125.9 28.9 125.9 C 30.8 125.9 32.2 126.6 33.3 127.7 C 33.3 127.7 32.2 129.2 32.2 129.2 C 31.5 128.2 30.3 127.6 28.9 127.6 C 27.3 127.6 26.3 128.5 26.3 129.7 C 26.3 132.8 33.5 131.7 33.5 136.9 C 33.5 139.3 31.7 141.1 28.7 141.1 C 26.7 141.1 25 140.4 23.8 139 Z M 35.9 133.4 C 35.9 129.4 37.9 125.9 41.8 125.9 C 45.7 125.9 47.7 129.4 47.7 133.4 C 47.7 137.5 45.7 141.1 41.8 141.1 C 37.9 141.1 35.9 137.5 35.9 133.4 Z M 45.4 133.4 C 45.4 130.5 44.3 127.8 41.8 127.8 C 39.3 127.8 38.1 130.5 38.1 133.4 C 38.1 136.4 39.3 139.1 41.8 139.1 C 44.3 139.1 45.4 136.4 45.4 133.4 Z M 59.2 140.7 C 59.2 140.7 59.19 138.63 59.2 138.6 C 58.3 140.1 56.9 141.1 55.4 141.1 C 52.1 141.1 50.2 138 50.2 133.5 C 50.2 129 52.1 125.9 55.4 125.9 C 56.8 125.9 58.3 126.7 59.2 128.3 C 59.19 128.31 59.2 120.7 59.2 120.7 L 61.3 120.7 L 61.3 140.7 L 59.2 140.7 Z M 59.2 136.8 C 59.2 136.8 59.2 130.1 59.2 130.1 C 58.6 128.9 57.3 127.8 55.9 127.8 C 53.5 127.8 52.4 130.3 52.4 133.5 C 52.4 136.6 53.5 139.1 55.9 139.1 C 57.3 139.1 58.6 138.1 59.2 136.8 Z M 64.9 122.6 C 64.9 121.8 65.6 121.2 66.4 121.2 C 67.2 121.2 67.8 121.8 67.8 122.6 C 67.8 123.5 67.2 124.1 66.4 124.1 C 65.6 124.1 64.9 123.5 64.9 122.6 Z M 65.3 140.7 L 65.3 126.2 L 67.4 126.2 L 67.4 140.7 L 65.3 140.7 Z M 79.2 140.7 C 79.2 140.7 79.23 138.69 79.2 138.7 C 78.4 140 76.8 141.1 75 141.1 C 72.6 141.1 71.4 139.8 71.4 137.2 C 71.4 137.19 71.4 126.2 71.4 126.2 L 73.5 126.2 C 73.5 126.2 73.53 136.56 73.5 136.6 C 73.5 138.5 74.4 139.1 75.8 139.1 C 77.3 139.1 78.6 138.1 79.2 136.9 C 79.23 136.89 79.2 126.2 79.2 126.2 L 81.4 126.2 L 81.4 140.7 L 79.2 140.7 Z M 100 140.7 C 100 140.7 99.99 130.2 100 130.2 C 100 128.6 99.4 127.8 98 127.8 C 96.7 127.8 95.4 128.9 94.8 130.1 C 94.83 130.08 94.8 140.7 94.8 140.7 L 92.7 140.7 C 92.7 140.7 92.67 130.2 92.7 130.2 C 92.7 128.6 92 127.8 90.6 127.8 C 89.3 127.8 88.1 128.9 87.5 130.1 C 87.48 130.08 87.5 140.7 87.5 140.7 L 85.3 140.7 L 85.3 126.2 L 87.5 126.2 C 87.5 126.2 87.48 128.28 87.5 128.3 C 88.1 127.2 89.7 125.9 91.4 125.9 C 93.3 125.9 94.4 126.9 94.7 128.4 C 95.4 127.1 97 125.9 98.8 125.9 C 100.9 125.9 102.1 127 102.1 129.6 C 102.15 129.63 102.1 140.7 102.1 140.7 L 100 140.7 Z M 112.1 122.6 C 112.1 121.8 112.8 121.2 113.6 121.2 C 114.4 121.2 115.1 121.8 115.1 122.6 C 115.1 123.5 114.4 124.1 113.6 124.1 C 112.8 124.1 112.1 123.5 112.1 122.6 Z M 112.6 140.7 L 112.6 126.2 L 114.7 126.2 L 114.7 140.7 L 112.6 140.7 Z M 126.5 140.7 C 126.5 140.7 126.48 130.38 126.5 130.4 C 126.5 128.5 125.6 127.8 124.2 127.8 C 122.8 127.8 121.4 128.9 120.8 130.1 C 120.78 130.08 120.8 140.7 120.8 140.7 L 118.6 140.7 L 118.6 126.2 L 120.8 126.2 C 120.8 126.2 120.78 128.28 120.8 128.3 C 121.6 127 123.2 125.9 125 125.9 C 127.4 125.9 128.6 127.2 128.6 129.8 C 128.64 129.78 128.6 140.7 128.6 140.7 L 126.5 140.7 Z M 131.9 133.4 C 131.9 129.4 133.9 125.9 137.8 125.9 C 141.7 125.9 143.7 129.4 143.7 133.4 C 143.7 137.5 141.7 141.1 137.8 141.1 C 133.9 141.1 131.9 137.5 131.9 133.4 Z M 141.4 133.4 C 141.4 130.5 140.3 127.8 137.8 127.8 C 135.3 127.8 134.1 130.5 134.1 133.4 C 134.1 136.4 135.3 139.1 137.8 139.1 C 140.3 139.1 141.4 136.4 141.4 133.4 Z M 145.7 139 C 145.7 139 146.8 137.5 146.8 137.5 C 147.7 138.5 149 139.3 150.6 139.3 C 152.3 139.3 153.4 138.4 153.4 137 C 153.4 133.6 146.2 134.8 146.2 129.8 C 146.2 127.6 147.9 125.9 150.8 125.9 C 152.7 125.9 154.2 126.6 155.2 127.7 C 155.2 127.7 154.2 129.2 154.2 129.2 C 153.4 128.2 152.2 127.6 150.8 127.6 C 149.2 127.6 148.2 128.5 148.2 129.7 C 148.2 132.8 155.5 131.7 155.5 136.9 C 155.5 139.3 153.6 141.1 150.6 141.1 C 148.6 141.1 146.9 140.4 145.7 139 Z M 158.1 122.6 C 158.1 121.8 158.8 121.2 159.6 121.2 C 160.4 121.2 161 121.8 161 122.6 C 161 123.5 160.4 124.1 159.6 124.1 C 158.8 124.1 158.1 123.5 158.1 122.6 Z M 158.5 140.7 L 158.5 126.2 L 160.6 126.2 L 160.6 140.7 L 158.5 140.7 Z M 172.4 140.7 C 172.4 140.7 172.44 130.38 172.4 130.4 C 172.4 128.5 171.6 127.8 170.1 127.8 C 168.7 127.8 167.4 128.9 166.7 130.1 C 166.74 130.08 166.7 140.7 166.7 140.7 L 164.6 140.7 L 164.6 126.2 L 166.7 126.2 C 166.7 126.2 166.74 128.28 166.7 128.3 C 167.6 127 169.2 125.9 170.9 125.9 C 173.4 125.9 174.6 127.2 174.6 129.8 C 174.6 129.78 174.6 140.7 174.6 140.7 L 172.4 140.7 Z M 186 140.7 C 186 140.7 186 139.14 186 139.1 C 185.1 140.5 183.7 141.1 182.2 141.1 C 179.8 141.1 177.8 139.3 177.8 136.2 C 177.8 133.2 179.8 131.5 182.2 131.5 C 183.7 131.5 185.1 132 186 133.3 C 186 133.3 186 130.8 186 130.8 C 186 128.8 184.9 127.7 183 127.7 C 181.7 127.7 180.5 128.2 179.4 129.5 C 179.4 129.5 178.4 128 178.4 128 C 179.8 126.5 181.5 125.9 183.4 125.9 C 186.2 125.9 188.2 127.3 188.2 130.6 C 188.16 130.56 188.2 140.7 188.2 140.7 L 186 140.7 Z M 186 137.7 C 186 137.7 186 134.9 186 134.9 C 185.3 133.7 184.1 133.1 182.9 133.1 C 181.1 133.1 180 134.5 180 136.3 C 180 138.1 181.1 139.5 182.9 139.5 C 184.1 139.5 185.3 138.9 186 137.7 Z M 192.5 137.8 C 192.51 137.79 192.5 128.1 192.5 128.1 L 190.6 128.1 L 190.6 126.2 L 192.5 126.2 L 192.5 122.3 L 194.7 122.3 L 194.7 126.2 L 197.1 126.2 L 197.1 128.1 L 194.7 128.1 C 194.7 128.1 194.67 137.4 194.7 137.4 C 194.7 138.5 195 139.1 195.8 139.1 C 196.4 139.1 196.8 138.9 197.1 138.6 C 197.1 138.6 197.8 140.2 197.8 140.2 C 197.2 140.7 196.5 141.1 195.4 141.1 C 193.4 141.1 192.5 140 192.5 137.8 Z M 199.3 133.4 C 199.3 129.2 201.5 125.9 205.1 125.9 C 208.9 125.9 210.9 129.3 210.9 133.5 C 210.87 133.5 210.9 134.2 210.9 134.2 C 210.9 134.2 201.48 134.16 201.5 134.2 C 201.6 137.1 203.1 139.3 205.6 139.3 C 206.9 139.3 208.2 138.6 209.1 137.5 C 209.1 137.5 210.2 138.8 210.2 138.8 C 209.1 140.2 207.4 141.1 205.5 141.1 C 201.6 141.1 199.3 137.9 199.3 133.4 Z M 205.1 127.7 C 202.6 127.7 201.5 130.4 201.5 132.6 C 201.5 132.6 208.7 132.6 208.7 132.6 C 208.7 130.4 207.7 127.7 205.1 127.7 Z " stroke="none" fill="#d3d2d2"/>  </g>  <g id="Polygon148094">    <path d="M 5.5 104.7 L 5.5 86.8 L 0.8 86.8 L 0.8 84.7 L 12.6 84.7 L 12.6 86.8 L 7.9 86.8 L 7.9 104.7 L 5.5 104.7 Z M 12.2 97.4 C 12.2 93.2 14.4 89.9 18 89.9 C 21.8 89.9 23.8 93.3 23.8 97.5 C 23.76 97.5 23.8 98.2 23.8 98.2 C 23.8 98.2 14.37 98.16 14.4 98.2 C 14.5 101.1 16 103.3 18.5 103.3 C 19.8 103.3 21.1 102.6 22 101.5 C 22 101.5 23.1 102.8 23.1 102.8 C 22 104.2 20.3 105.1 18.4 105.1 C 14.5 105.1 12.2 101.9 12.2 97.4 Z M 18 91.7 C 15.5 91.7 14.4 94.4 14.4 96.6 C 14.4 96.6 21.6 96.6 21.6 96.6 C 21.6 94.4 20.6 91.7 18 91.7 Z M 26.9 104.7 L 26.9 90.2 L 29 90.2 C 29 90.2 29.04 92.52 29 92.5 C 30 91 31.4 89.9 33.1 89.9 C 33.1 89.9 33.1 92.1 33.1 92.1 C 32.9 92.1 32.7 92 32.4 92 C 31.1 92 29.6 93.2 29 94.4 C 29.04 94.41 29 104.7 29 104.7 L 26.9 104.7 Z M 36.1 101.8 C 36.06 101.79 36.1 92.1 36.1 92.1 L 34.1 92.1 L 34.1 90.2 L 36.1 90.2 L 36.1 86.3 L 38.2 86.3 L 38.2 90.2 L 40.7 90.2 L 40.7 92.1 L 38.2 92.1 C 38.2 92.1 38.22 101.4 38.2 101.4 C 38.2 102.5 38.5 103.1 39.4 103.1 C 39.9 103.1 40.4 102.9 40.6 102.6 C 40.6 102.6 41.3 104.2 41.3 104.2 C 40.8 104.7 40.1 105.1 39 105.1 C 37 105.1 36.1 104 36.1 101.8 Z M 42.4 98.4 L 42.4 96.5 L 48.7 96.5 L 48.7 98.4 L 42.4 98.4 Z M 56.9 103.1 C 59.3 103.1 60.4 100.6 60.4 97.5 C 60.4 94.3 59.3 91.8 56.9 91.8 C 55.6 91.8 54.2 92.9 53.7 94.2 C 53.7 94.2 53.7 100.8 53.7 100.8 C 54.2 102.1 55.6 103.1 56.9 103.1 Z M 51.5 104.7 L 51.5 84.7 L 53.7 84.7 C 53.7 84.7 53.67 92.31 53.7 92.3 C 54.6 90.7 56 89.9 57.5 89.9 C 60.7 89.9 62.7 93 62.7 97.5 C 62.7 102 60.7 105.1 57.5 105.1 C 55.9 105.1 54.5 104.1 53.7 102.6 C 53.67 102.63 53.7 104.7 53.7 104.7 L 51.5 104.7 Z M 73.8 104.7 C 73.8 104.7 73.77 102.69 73.8 102.7 C 72.9 104 71.4 105.1 69.6 105.1 C 67.1 105.1 65.9 103.8 65.9 101.2 C 65.94 101.19 65.9 90.2 65.9 90.2 L 68.1 90.2 C 68.1 90.2 68.07 100.56 68.1 100.6 C 68.1 102.5 69 103.1 70.4 103.1 C 71.8 103.1 73.1 102.1 73.8 100.9 C 73.77 100.89 73.8 90.2 73.8 90.2 L 75.9 90.2 L 75.9 104.7 L 73.8 104.7 Z M 80.3 101.8 C 80.31 101.79 80.3 92.1 80.3 92.1 L 78.4 92.1 L 78.4 90.2 L 80.3 90.2 L 80.3 86.3 L 82.5 86.3 L 82.5 90.2 L 84.9 90.2 L 84.9 92.1 L 82.5 92.1 C 82.5 92.1 82.47 101.4 82.5 101.4 C 82.5 102.5 82.8 103.1 83.6 103.1 C 84.2 103.1 84.6 102.9 84.9 102.6 C 84.9 102.6 85.6 104.2 85.6 104.2 C 85 104.7 84.3 105.1 83.2 105.1 C 81.2 105.1 80.3 104 80.3 101.8 Z M 87.4 108.5 C 87.6 108.6 88.1 108.7 88.3 108.7 C 89.2 108.7 89.6 108.3 90 107.2 C 90.03 107.22 90.8 105 90.8 105 L 86 90.2 L 88.3 90.2 L 91.9 102.1 L 95.5 90.2 L 97.9 90.2 C 97.9 90.2 92.07 107.76 92.1 107.8 C 91.3 109.9 90.2 110.6 88.5 110.6 C 88 110.6 87.4 110.5 87 110.4 C 87 110.4 87.4 108.5 87.4 108.5 Z M 100 104.7 L 100 84.7 L 102.1 84.7 L 102.1 104.7 L 100 104.7 Z M 120.4 104.7 C 120.4 104.7 120.42 94.35 120.4 94.4 C 120.4 92.4 119.5 91.8 118.1 91.8 C 116.7 91.8 115.3 92.9 114.7 94.1 C 114.69 94.08 114.7 104.7 114.7 104.7 L 112.6 104.7 L 112.6 84.7 L 114.7 84.7 C 114.7 84.7 114.69 92.28 114.7 92.3 C 115.5 91 117.2 89.9 118.9 89.9 C 121.4 89.9 122.5 91.1 122.5 93.7 C 122.55 93.72 122.5 104.7 122.5 104.7 L 120.4 104.7 Z M 126.1 108.5 C 126.4 108.6 126.8 108.7 127 108.7 C 127.9 108.7 128.4 108.3 128.8 107.2 C 128.76 107.22 129.5 105 129.5 105 L 124.7 90.2 L 127 90.2 L 130.6 102.1 L 134.3 90.2 L 136.6 90.2 C 136.6 90.2 130.8 107.76 130.8 107.8 C 130.1 109.9 128.9 110.6 127.2 110.6 C 126.7 110.6 126.1 110.5 125.8 110.4 C 125.8 110.4 126.1 108.5 126.1 108.5 Z M 147 104.7 C 147 104.7 147.03 102.63 147 102.6 C 146.2 104.1 144.7 105.1 143.2 105.1 C 140 105.1 138 102 138 97.5 C 138 93 139.9 89.9 143.2 89.9 C 144.7 89.9 146.2 90.7 147 92.3 C 147.03 92.31 147 84.7 147 84.7 L 149.2 84.7 L 149.2 104.7 L 147 104.7 Z M 147 100.8 C 147 100.8 147 94.1 147 94.1 C 146.5 92.9 145.1 91.8 143.8 91.8 C 141.4 91.8 140.3 94.3 140.3 97.5 C 140.3 100.6 141.4 103.1 143.8 103.1 C 145.1 103.1 146.5 102.1 147 100.8 Z M 153.1 104.7 L 153.1 90.2 L 155.3 90.2 C 155.3 90.2 155.28 92.52 155.3 92.5 C 156.2 91 157.6 89.9 159.4 89.9 C 159.4 89.9 159.4 92.1 159.4 92.1 C 159.1 92.1 158.9 92 158.7 92 C 157.3 92 155.9 93.2 155.3 94.4 C 155.28 94.41 155.3 104.7 155.3 104.7 L 153.1 104.7 Z M 161.2 97.4 C 161.2 93.4 163.2 89.9 167 89.9 C 170.9 89.9 172.9 93.4 172.9 97.4 C 172.9 101.5 170.9 105.1 167 105.1 C 163.2 105.1 161.2 101.5 161.2 97.4 Z M 170.7 97.4 C 170.7 94.5 169.6 91.8 167 91.8 C 164.5 91.8 163.4 94.5 163.4 97.4 C 163.4 100.4 164.5 103.1 167 103.1 C 169.6 103.1 170.7 100.4 170.7 97.4 Z M 184.4 100.7 C 184.4 100.7 184.4 94.1 184.4 94.1 C 183.9 92.9 182.5 91.8 181.2 91.8 C 178.8 91.8 177.7 94.3 177.7 97.4 C 177.7 100.6 178.8 103.1 181.2 103.1 C 182.5 103.1 183.9 102 184.4 100.7 Z M 175.4 97.4 C 175.4 92.9 177.4 89.9 180.6 89.9 C 182.1 89.9 183.6 90.8 184.4 92.3 C 184.44 92.28 184.4 90.2 184.4 90.2 L 186.6 90.2 L 186.6 110.2 L 184.4 110.2 C 184.4 110.2 184.44 102.6 184.4 102.6 C 183.5 104.2 182.1 105.1 180.6 105.1 C 177.4 105.1 175.4 102 175.4 97.4 Z M 198.4 104.7 C 198.4 104.7 198.36 102.69 198.4 102.7 C 197.5 104 196 105.1 194.2 105.1 C 191.7 105.1 190.5 103.8 190.5 101.2 C 190.53 101.19 190.5 90.2 190.5 90.2 L 192.7 90.2 C 192.7 90.2 192.66 100.56 192.7 100.6 C 192.7 102.5 193.6 103.1 195 103.1 C 196.4 103.1 197.7 102.1 198.4 100.9 C 198.36 100.89 198.4 90.2 198.4 90.2 L 200.5 90.2 L 200.5 104.7 L 198.4 104.7 Z M 204.1 86.6 C 204.1 85.8 204.7 85.2 205.5 85.2 C 206.3 85.2 207 85.8 207 86.6 C 207 87.5 206.3 88.1 205.5 88.1 C 204.7 88.1 204.1 87.5 204.1 86.6 Z M 204.5 104.7 L 204.5 90.2 L 206.6 90.2 L 206.6 104.7 L 204.5 104.7 Z M 218.4 104.7 C 218.4 104.7 218.4 94.38 218.4 94.4 C 218.4 92.5 217.5 91.8 216.1 91.8 C 214.7 91.8 213.4 92.9 212.7 94.1 C 212.7 94.08 212.7 104.7 212.7 104.7 L 210.6 104.7 L 210.6 90.2 L 212.7 90.2 C 212.7 90.2 212.7 92.28 212.7 92.3 C 213.5 91 215.2 89.9 216.9 89.9 C 219.4 89.9 220.6 91.2 220.6 93.8 C 220.56 93.78 220.6 104.7 220.6 104.7 L 218.4 104.7 Z M 223.8 97.4 C 223.8 93.4 225.8 89.9 229.7 89.9 C 233.6 89.9 235.6 93.4 235.6 97.4 C 235.6 101.5 233.6 105.1 229.7 105.1 C 225.8 105.1 223.8 101.5 223.8 97.4 Z M 233.3 97.4 C 233.3 94.5 232.2 91.8 229.7 91.8 C 227.2 91.8 226 94.5 226 97.4 C 226 100.4 227.2 103.1 229.7 103.1 C 232.2 103.1 233.3 100.4 233.3 97.4 Z M 246.7 104.7 C 246.7 104.7 246.66 94.38 246.7 94.4 C 246.7 92.5 245.8 91.8 244.3 91.8 C 242.9 91.8 241.6 92.9 241 94.1 C 240.96 94.08 241 104.7 241 104.7 L 238.8 104.7 L 238.8 90.2 L 241 90.2 C 241 90.2 240.96 92.28 241 92.3 C 241.8 91 243.4 89.9 245.2 89.9 C 247.6 89.9 248.8 91.2 248.8 93.8 C 248.82 93.78 248.8 104.7 248.8 104.7 L 246.7 104.7 Z M 252.1 97.4 C 252.1 93.2 254.3 89.9 257.9 89.9 C 261.7 89.9 263.7 93.3 263.7 97.5 C 263.66 97.5 263.7 98.2 263.7 98.2 C 263.7 98.2 254.27 98.16 254.3 98.2 C 254.4 101.1 255.9 103.3 258.4 103.3 C 259.7 103.3 261 102.6 261.9 101.5 C 261.9 101.5 263 102.8 263 102.8 C 261.9 104.2 260.2 105.1 258.3 105.1 C 254.4 105.1 252.1 101.9 252.1 97.4 Z M 257.9 91.7 C 255.4 91.7 254.3 94.4 254.3 96.6 C 254.3 96.6 261.5 96.6 261.5 96.6 C 261.5 94.4 260.5 91.7 257.9 91.7 Z " stroke="none" fill="#d3d2d2"/>  </g>  <g id="Polygon148093">    <path d="M 12.5 68.7 L 11.2 64.2 L 4.1 64.2 L 2.8 68.7 L 0.2 68.7 L 6.2 48.7 L 9.1 48.7 L 15.1 68.7 L 12.5 68.7 Z M 7.6 51.3 L 4.6 62.1 L 10.7 62.1 L 7.6 51.3 Z M 16.5 61.4 C 16.5 57.2 18.8 53.9 22.5 53.9 C 24.5 53.9 25.8 54.7 26.7 55.8 C 26.7 55.8 25.5 57.2 25.5 57.2 C 24.7 56.2 23.8 55.8 22.7 55.8 C 20.1 55.8 18.8 58.4 18.8 61.4 C 18.8 64.5 20.1 67.1 22.7 67.1 C 23.8 67.1 24.7 66.7 25.5 65.7 C 25.5 65.7 26.7 67.1 26.7 67.1 C 25.8 68.3 24.5 69.1 22.5 69.1 C 18.8 69.1 16.5 65.7 16.5 61.4 Z M 29.4 68.7 L 29.4 54.2 L 31.6 54.2 C 31.6 54.2 31.56 56.52 31.6 56.5 C 32.5 55 33.9 53.9 35.7 53.9 C 35.7 53.9 35.7 56.1 35.7 56.1 C 35.4 56.1 35.2 56 34.9 56 C 33.6 56 32.2 57.2 31.6 58.4 C 31.56 58.41 31.6 68.7 31.6 68.7 L 29.4 68.7 Z M 37.7 72.5 C 38 72.6 38.5 72.7 38.7 72.7 C 39.5 72.7 40 72.3 40.4 71.2 C 40.41 71.22 41.2 69 41.2 69 L 36.4 54.2 L 38.7 54.2 L 42.3 66.1 L 45.9 54.2 L 48.2 54.2 C 48.2 54.2 42.45 71.76 42.4 71.8 C 41.7 73.9 40.6 74.6 38.8 74.6 C 38.4 74.6 37.7 74.5 37.4 74.4 C 37.4 74.4 37.7 72.5 37.7 72.5 Z M 50.4 68.7 L 50.4 48.7 L 52.5 48.7 L 52.5 68.7 L 50.4 68.7 Z M 55.8 61.4 C 55.8 57.4 57.8 53.9 61.6 53.9 C 65.5 53.9 67.6 57.4 67.6 61.4 C 67.6 65.5 65.5 69.1 61.6 69.1 C 57.8 69.1 55.8 65.5 55.8 61.4 Z M 65.3 61.4 C 65.3 58.5 64.2 55.8 61.6 55.8 C 59.2 55.8 58 58.5 58 61.4 C 58 64.4 59.2 67.1 61.6 67.1 C 64.2 67.1 65.3 64.4 65.3 61.4 Z M 78.6 68.7 C 78.6 68.7 78.63 58.38 78.6 58.4 C 78.6 56.5 77.8 55.8 76.3 55.8 C 74.9 55.8 73.6 56.9 72.9 58.1 C 72.93 58.08 72.9 68.7 72.9 68.7 L 70.8 68.7 L 70.8 54.2 L 72.9 54.2 C 72.9 54.2 72.93 56.28 72.9 56.3 C 73.8 55 75.4 53.9 77.1 53.9 C 79.6 53.9 80.8 55.2 80.8 57.8 C 80.79 57.78 80.8 68.7 80.8 68.7 L 78.6 68.7 Z M 84.3 50.6 C 84.3 49.8 85 49.2 85.8 49.2 C 86.6 49.2 87.3 49.8 87.3 50.6 C 87.3 51.5 86.6 52.1 85.8 52.1 C 85 52.1 84.3 51.5 84.3 50.6 Z M 84.7 68.7 L 84.7 54.2 L 86.9 54.2 L 86.9 68.7 L 84.7 68.7 Z M 91.3 65.8 C 91.26 65.79 91.3 56.1 91.3 56.1 L 89.3 56.1 L 89.3 54.2 L 91.3 54.2 L 91.3 50.3 L 93.4 50.3 L 93.4 54.2 L 95.9 54.2 L 95.9 56.1 L 93.4 56.1 C 93.4 56.1 93.42 65.4 93.4 65.4 C 93.4 66.5 93.7 67.1 94.6 67.1 C 95.1 67.1 95.6 66.9 95.8 66.6 C 95.8 66.6 96.5 68.2 96.5 68.2 C 96 68.7 95.3 69.1 94.2 69.1 C 92.2 69.1 91.3 68 91.3 65.8 Z M 98.7 68.7 L 98.7 54.2 L 100.9 54.2 C 100.9 54.2 100.86 56.52 100.9 56.5 C 101.8 55 103.2 53.9 105 53.9 C 105 53.9 105 56.1 105 56.1 C 104.7 56.1 104.5 56 104.2 56 C 102.9 56 101.5 57.2 100.9 58.4 C 100.86 58.41 100.9 68.7 100.9 68.7 L 98.7 68.7 Z M 107 50.6 C 107 49.8 107.7 49.2 108.5 49.2 C 109.3 49.2 110 49.8 110 50.6 C 110 51.5 109.3 52.1 108.5 52.1 C 107.7 52.1 107 51.5 107 50.6 Z M 107.5 68.7 L 107.5 54.2 L 109.6 54.2 L 109.6 68.7 L 107.5 68.7 Z M 113.5 68.7 L 113.5 48.7 L 115.7 48.7 L 115.7 68.7 L 113.5 68.7 Z M 118.9 61.4 C 118.9 57.2 121.1 53.9 124.8 53.9 C 128.6 53.9 130.5 57.3 130.5 61.5 C 130.53 61.5 130.5 62.2 130.5 62.2 C 130.5 62.2 121.14 62.16 121.1 62.2 C 121.2 65.1 122.7 67.3 125.3 67.3 C 126.6 67.3 127.9 66.6 128.8 65.5 C 128.8 65.5 129.9 66.8 129.9 66.8 C 128.7 68.2 127.1 69.1 125.1 69.1 C 121.3 69.1 118.9 65.9 118.9 61.4 Z M 124.8 55.7 C 122.2 55.7 121.2 58.4 121.1 60.6 C 121.1 60.6 128.4 60.6 128.4 60.6 C 128.4 58.4 127.4 55.7 124.8 55.7 Z M 140 72.8 C 140 72.8 141 71.1 141 71.1 C 142 72.2 143.2 72.8 144.8 72.8 C 146.8 72.8 148.4 71.6 148.4 68.8 C 148.4 68.8 148.4 66.4 148.4 66.4 C 147.6 67.9 146.1 68.9 144.6 68.9 C 141.4 68.9 139.4 65.9 139.4 61.4 C 139.4 56.9 141.3 53.9 144.6 53.9 C 146.1 53.9 147.5 54.7 148.4 56.3 C 148.41 56.31 148.4 54.2 148.4 54.2 L 150.6 54.2 C 150.6 54.2 150.57 68.67 150.6 68.7 C 150.6 73.1 147.9 74.6 144.8 74.6 C 142.9 74.6 141.4 74.1 140 72.8 Z M 148.4 64.6 C 148.4 64.6 148.4 58.1 148.4 58.1 C 147.9 56.9 146.5 55.8 145.1 55.8 C 142.8 55.8 141.7 58.3 141.7 61.4 C 141.7 64.5 142.8 67 145.1 67 C 146.5 67 147.9 65.8 148.4 64.6 Z M 154.5 68.7 L 154.5 48.7 L 156.6 48.7 L 156.6 68.7 L 154.5 68.7 Z M 168.4 68.7 C 168.4 68.7 168.41 66.69 168.4 66.7 C 167.5 68 166 69.1 164.2 69.1 C 161.8 69.1 160.6 67.8 160.6 65.2 C 160.58 65.19 160.6 54.2 160.6 54.2 L 162.7 54.2 C 162.7 54.2 162.71 64.56 162.7 64.6 C 162.7 66.5 163.6 67.1 165 67.1 C 166.5 67.1 167.8 66.1 168.4 64.9 C 168.41 64.89 168.4 54.2 168.4 54.2 L 170.6 54.2 L 170.6 68.7 L 168.4 68.7 Z M 175 65.8 C 174.95 65.79 175 56.1 175 56.1 L 173 56.1 L 173 54.2 L 175 54.2 L 175 50.3 L 177.1 50.3 L 177.1 54.2 L 179.6 54.2 L 179.6 56.1 L 177.1 56.1 C 177.1 56.1 177.11 65.4 177.1 65.4 C 177.1 66.5 177.4 67.1 178.3 67.1 C 178.8 67.1 179.3 66.9 179.5 66.6 C 179.5 66.6 180.2 68.2 180.2 68.2 C 179.7 68.7 179 69.1 177.9 69.1 C 175.9 69.1 175 68 175 65.8 Z M 189.9 68.7 C 189.9 68.7 189.86 67.14 189.9 67.1 C 188.9 68.5 187.5 69.1 186.1 69.1 C 183.7 69.1 181.7 67.3 181.7 64.2 C 181.7 61.2 183.7 59.5 186.1 59.5 C 187.5 59.5 189 60 189.9 61.3 C 189.9 61.3 189.9 58.8 189.9 58.8 C 189.9 56.8 188.8 55.7 186.9 55.7 C 185.5 55.7 184.4 56.2 183.3 57.5 C 183.3 57.5 182.3 56 182.3 56 C 183.7 54.5 185.4 53.9 187.2 53.9 C 190.1 53.9 192 55.3 192 58.6 C 192.02 58.56 192 68.7 192 68.7 L 189.9 68.7 Z M 189.9 65.7 C 189.9 65.7 189.9 62.9 189.9 62.9 C 189.2 61.7 188 61.1 186.7 61.1 C 184.9 61.1 183.9 62.5 183.9 64.3 C 183.9 66.1 184.9 67.5 186.7 67.5 C 188 67.5 189.2 66.9 189.9 65.7 Z M 210.6 68.7 C 210.6 68.7 210.59 58.2 210.6 58.2 C 210.6 56.6 210 55.8 208.6 55.8 C 207.3 55.8 206 56.9 205.4 58.1 C 205.43 58.08 205.4 68.7 205.4 68.7 L 203.3 68.7 C 203.3 68.7 203.27 58.2 203.3 58.2 C 203.3 56.6 202.6 55.8 201.2 55.8 C 199.9 55.8 198.7 56.9 198.1 58.1 C 198.08 58.08 198.1 68.7 198.1 68.7 L 196 68.7 L 196 54.2 L 198.1 54.2 C 198.1 54.2 198.08 56.28 198.1 56.3 C 198.7 55.2 200.3 53.9 202 53.9 C 203.9 53.9 205 54.9 205.3 56.4 C 206 55.1 207.7 53.9 209.4 53.9 C 211.5 53.9 212.8 55 212.8 57.6 C 212.75 57.63 212.8 68.7 212.8 68.7 L 210.6 68.7 Z M 224.2 68.7 C 224.2 68.7 224.15 67.14 224.2 67.1 C 223.2 68.5 221.8 69.1 220.3 69.1 C 218 69.1 216 67.3 216 64.2 C 216 61.2 218 59.5 220.3 59.5 C 221.8 59.5 223.3 60 224.2 61.3 C 224.2 61.3 224.2 58.8 224.2 58.8 C 224.2 56.8 223.1 55.7 221.2 55.7 C 219.8 55.7 218.7 56.2 217.6 57.5 C 217.6 57.5 216.6 56 216.6 56 C 218 54.5 219.7 53.9 221.5 53.9 C 224.4 53.9 226.3 55.3 226.3 58.6 C 226.31 58.56 226.3 68.7 226.3 68.7 L 224.2 68.7 Z M 224.2 65.7 C 224.2 65.7 224.2 62.9 224.2 62.9 C 223.5 61.7 222.3 61.1 221 61.1 C 219.2 61.1 218.2 62.5 218.2 64.3 C 218.2 66.1 219.2 67.5 221 67.5 C 222.3 67.5 223.5 66.9 224.2 65.7 Z M 230.7 65.8 C 230.66 65.79 230.7 56.1 230.7 56.1 L 228.7 56.1 L 228.7 54.2 L 230.7 54.2 L 230.7 50.3 L 232.8 50.3 L 232.8 54.2 L 235.3 54.2 L 235.3 56.1 L 232.8 56.1 C 232.8 56.1 232.82 65.4 232.8 65.4 C 232.8 66.5 233.2 67.1 234 67.1 C 234.5 67.1 235 66.9 235.3 66.6 C 235.3 66.6 235.9 68.2 235.9 68.2 C 235.4 68.7 234.7 69.1 233.6 69.1 C 231.6 69.1 230.7 68 230.7 65.8 Z M 237.4 61.4 C 237.4 57.2 239.6 53.9 243.3 53.9 C 247.1 53.9 249 57.3 249 61.5 C 249.02 61.5 249 62.2 249 62.2 C 249 62.2 239.63 62.16 239.6 62.2 C 239.7 65.1 241.2 67.3 243.8 67.3 C 245.1 67.3 246.4 66.6 247.3 65.5 C 247.3 65.5 248.4 66.8 248.4 66.8 C 247.2 68.2 245.6 69.1 243.6 69.1 C 239.8 69.1 237.4 65.9 237.4 61.4 Z M 243.3 55.7 C 240.7 55.7 239.7 58.4 239.6 60.6 C 239.6 60.6 246.9 60.6 246.9 60.6 C 246.9 58.4 245.9 55.7 243.3 55.7 Z " stroke="none" fill="#d3d2d2"/>  </g>  <g id="Polygon148092">    <path d="M 12.5 32.7 L 11.2 28.2 L 4.1 28.2 L 2.8 32.7 L 0.2 32.7 L 6.2 12.7 L 9.1 12.7 L 15.1 32.7 L 12.5 32.7 Z M 7.6 15.3 L 4.6 26.1 L 10.7 26.1 L 7.6 15.3 Z M 17.3 32.7 L 17.3 12.7 L 19.4 12.7 L 19.4 32.7 L 17.3 32.7 Z M 22.7 25.4 C 22.7 21.2 25 17.9 28.7 17.9 C 30.7 17.9 31.9 18.7 32.8 19.8 C 32.8 19.8 31.6 21.2 31.6 21.2 C 30.9 20.2 30 19.8 28.9 19.8 C 26.3 19.8 24.9 22.4 24.9 25.4 C 24.9 28.5 26.3 31.1 28.9 31.1 C 30 31.1 30.9 30.7 31.6 29.7 C 31.6 29.7 32.8 31.1 32.8 31.1 C 31.9 32.3 30.7 33.1 28.7 33.1 C 25 33.1 22.7 29.7 22.7 25.4 Z M 43 32.7 C 43 32.7 43.02 31.14 43 31.1 C 42.1 32.5 40.7 33.1 39.2 33.1 C 36.9 33.1 34.8 31.3 34.8 28.2 C 34.8 25.2 36.8 23.5 39.2 23.5 C 40.7 23.5 42.1 24 43 25.3 C 43 25.3 43 22.8 43 22.8 C 43 20.8 41.9 19.7 40 19.7 C 38.7 19.7 37.5 20.2 36.4 21.5 C 36.4 21.5 35.5 20 35.5 20 C 36.8 18.5 38.5 17.9 40.4 17.9 C 43.3 17.9 45.2 19.3 45.2 22.6 C 45.18 22.56 45.2 32.7 45.2 32.7 L 43 32.7 Z M 43 29.7 C 43 29.7 43 26.9 43 26.9 C 42.4 25.7 41.2 25.1 39.9 25.1 C 38.1 25.1 37 26.5 37 28.3 C 37 30.1 38.1 31.5 39.9 31.5 C 41.2 31.5 42.4 30.9 43 29.7 Z M 56.9 32.7 C 56.9 32.7 56.94 22.38 56.9 22.4 C 56.9 20.5 56.1 19.8 54.6 19.8 C 53.2 19.8 51.9 20.9 51.2 22.1 C 51.24 22.08 51.2 32.7 51.2 32.7 L 49.1 32.7 L 49.1 18.2 L 51.2 18.2 C 51.2 18.2 51.24 20.28 51.2 20.3 C 52.1 19 53.7 17.9 55.4 17.9 C 57.9 17.9 59.1 19.2 59.1 21.8 C 59.1 21.78 59.1 32.7 59.1 32.7 L 56.9 32.7 Z M 62.6 14.6 C 62.6 13.8 63.3 13.2 64.1 13.2 C 64.9 13.2 65.6 13.8 65.6 14.6 C 65.6 15.5 64.9 16.1 64.1 16.1 C 63.3 16.1 62.6 15.5 62.6 14.6 Z M 63.1 32.7 L 63.1 18.2 L 65.2 18.2 L 65.2 32.7 L 63.1 32.7 Z M 72.1 32.7 L 67.3 18.2 L 69.7 18.2 L 73.3 30.2 L 76.9 18.2 L 79.2 18.2 L 74.5 32.7 L 72.1 32.7 Z M 80.7 25.4 C 80.7 21.4 82.7 17.9 86.5 17.9 C 90.4 17.9 92.5 21.4 92.5 25.4 C 92.5 29.5 90.4 33.1 86.5 33.1 C 82.7 33.1 80.7 29.5 80.7 25.4 Z M 90.2 25.4 C 90.2 22.5 89.1 19.8 86.5 19.8 C 84.1 19.8 82.9 22.5 82.9 25.4 C 82.9 28.4 84.1 31.1 86.5 31.1 C 89.1 31.1 90.2 28.4 90.2 25.4 Z M 95.7 32.7 L 95.7 18.2 L 97.8 18.2 C 97.8 18.2 97.83 20.52 97.8 20.5 C 98.8 19 100.2 17.9 101.9 17.9 C 101.9 17.9 101.9 20.1 101.9 20.1 C 101.7 20.1 101.5 20 101.2 20 C 99.9 20 98.4 21.2 97.8 22.4 C 97.83 22.41 97.8 32.7 97.8 32.7 L 95.7 32.7 Z M 111.9 32.7 C 111.9 32.7 111.87 31.14 111.9 31.1 C 110.9 32.5 109.5 33.1 108.1 33.1 C 105.7 33.1 103.7 31.3 103.7 28.2 C 103.7 25.2 105.7 23.5 108.1 23.5 C 109.5 23.5 111 24 111.9 25.3 C 111.9 25.3 111.9 22.8 111.9 22.8 C 111.9 20.8 110.8 19.7 108.9 19.7 C 107.5 19.7 106.4 20.2 105.3 21.5 C 105.3 21.5 104.3 20 104.3 20 C 105.7 18.5 107.4 17.9 109.2 17.9 C 112.1 17.9 114 19.3 114 22.6 C 114.03 22.56 114 32.7 114 32.7 L 111.9 32.7 Z M 111.9 29.7 C 111.9 29.7 111.9 26.9 111.9 26.9 C 111.2 25.7 110 25.1 108.7 25.1 C 106.9 25.1 105.9 26.5 105.9 28.3 C 105.9 30.1 106.9 31.5 108.7 31.5 C 110 31.5 111.2 30.9 111.9 29.7 Z M 116.8 31 C 116.8 31 117.9 29.5 117.9 29.5 C 118.7 30.5 120.1 31.3 121.6 31.3 C 123.3 31.3 124.4 30.4 124.4 29 C 124.4 25.6 117.2 26.8 117.2 21.8 C 117.2 19.6 118.9 17.9 121.8 17.9 C 123.7 17.9 125.2 18.6 126.2 19.7 C 126.2 19.7 125.2 21.2 125.2 21.2 C 124.5 20.2 123.3 19.6 121.9 19.6 C 120.3 19.6 119.3 20.5 119.3 21.7 C 119.3 24.8 126.5 23.7 126.5 28.9 C 126.5 31.3 124.6 33.1 121.7 33.1 C 119.6 33.1 118 32.4 116.8 31 Z M 128.8 25.4 C 128.8 21.2 131.1 17.9 134.7 17.9 C 138.5 17.9 140.5 21.3 140.5 25.5 C 140.46 25.5 140.5 26.2 140.5 26.2 C 140.5 26.2 131.07 26.16 131.1 26.2 C 131.2 29.1 132.7 31.3 135.2 31.3 C 136.5 31.3 137.8 30.6 138.7 29.5 C 138.7 29.5 139.8 30.8 139.8 30.8 C 138.7 32.2 137 33.1 135.1 33.1 C 131.2 33.1 128.8 29.9 128.8 25.4 Z M 134.7 19.7 C 132.1 19.7 131.1 22.4 131.1 24.6 C 131.1 24.6 138.3 24.6 138.3 24.6 C 138.3 22.4 137.3 19.7 134.7 19.7 Z M 149.3 25.4 C 149.3 21.2 151.6 17.9 155.2 17.9 C 159 17.9 160.9 21.3 160.9 25.5 C 160.95 25.5 160.9 26.2 160.9 26.2 C 160.9 26.2 151.56 26.16 151.6 26.2 C 151.6 29.1 153.1 31.3 155.7 31.3 C 157 31.3 158.3 30.6 159.2 29.5 C 159.2 29.5 160.3 30.8 160.3 30.8 C 159.1 32.2 157.5 33.1 155.5 33.1 C 151.7 33.1 149.3 29.9 149.3 25.4 Z M 155.2 19.7 C 152.6 19.7 151.6 22.4 151.6 24.6 C 151.6 24.6 158.8 24.6 158.8 24.6 C 158.8 22.4 157.8 19.7 155.2 19.7 Z M 171.5 32.7 L 168.2 26.9 L 164.9 32.7 L 162.5 32.7 L 166.9 25.3 L 162.7 18.2 L 165.1 18.2 L 168.2 23.7 L 171.3 18.2 L 173.7 18.2 L 169.5 25.3 L 173.9 32.7 L 171.5 32.7 Z M 176.7 29.8 C 176.7 29.79 176.7 20.1 176.7 20.1 L 174.8 20.1 L 174.8 18.2 L 176.7 18.2 L 176.7 14.3 L 178.9 14.3 L 178.9 18.2 L 181.3 18.2 L 181.3 20.1 L 178.9 20.1 C 178.9 20.1 178.86 29.4 178.9 29.4 C 178.9 30.5 179.2 31.1 180 31.1 C 180.6 31.1 181 30.9 181.3 30.6 C 181.3 30.6 181.9 32.2 181.9 32.2 C 181.4 32.7 180.7 33.1 179.6 33.1 C 177.6 33.1 176.7 32 176.7 29.8 Z M 184.2 32.7 L 184.2 18.2 L 186.3 18.2 C 186.3 18.2 186.29 20.52 186.3 20.5 C 187.2 19 188.6 17.9 190.4 17.9 C 190.4 17.9 190.4 20.1 190.4 20.1 C 190.2 20.1 189.9 20 189.7 20 C 188.4 20 186.9 21.2 186.3 22.4 C 186.29 22.41 186.3 32.7 186.3 32.7 L 184.2 32.7 Z M 200.3 32.7 C 200.3 32.7 200.33 31.14 200.3 31.1 C 199.4 32.5 198 33.1 196.5 33.1 C 194.2 33.1 192.1 31.3 192.1 28.2 C 192.1 25.2 194.2 23.5 196.5 23.5 C 198 23.5 199.4 24 200.3 25.3 C 200.3 25.3 200.3 22.8 200.3 22.8 C 200.3 20.8 199.3 19.7 197.4 19.7 C 196 19.7 194.8 20.2 193.7 21.5 C 193.7 21.5 192.8 20 192.8 20 C 194.2 18.5 195.9 17.9 197.7 17.9 C 200.6 17.9 202.5 19.3 202.5 22.6 C 202.49 22.56 202.5 32.7 202.5 32.7 L 200.3 32.7 Z M 200.3 29.7 C 200.3 29.7 200.3 26.9 200.3 26.9 C 199.7 25.7 198.5 25.1 197.2 25.1 C 195.4 25.1 194.3 26.5 194.3 28.3 C 194.3 30.1 195.4 31.5 197.2 31.5 C 198.5 31.5 199.7 30.9 200.3 29.7 Z M 205.7 25.4 C 205.7 21.2 208 17.9 211.7 17.9 C 213.7 17.9 214.9 18.7 215.8 19.8 C 215.8 19.8 214.7 21.2 214.7 21.2 C 213.9 20.2 213 19.8 211.9 19.8 C 209.3 19.8 208 22.4 208 25.4 C 208 28.5 209.3 31.1 211.9 31.1 C 213 31.1 213.9 30.7 214.7 29.7 C 214.7 29.7 215.8 31.1 215.8 31.1 C 214.9 32.3 213.7 33.1 211.7 33.1 C 208 33.1 205.7 29.7 205.7 25.4 Z M 219 29.8 C 219.02 29.79 219 20.1 219 20.1 L 217.1 20.1 L 217.1 18.2 L 219 18.2 L 219 14.3 L 221.2 14.3 L 221.2 18.2 L 223.6 18.2 L 223.6 20.1 L 221.2 20.1 C 221.2 20.1 221.18 29.4 221.2 29.4 C 221.2 30.5 221.5 31.1 222.4 31.1 C 222.9 31.1 223.3 30.9 223.6 30.6 C 223.6 30.6 224.3 32.2 224.3 32.2 C 223.8 32.7 223 33.1 221.9 33.1 C 220 33.1 219 32 219 29.8 Z " stroke="none" fill="#d3d2d2"/>  </g></svg>