<?xml version="1.0" standalone="no"?><!DOCTYPE svg PUBLIC "-//W3C//DTD SVG 1.1//EN" "http://www.w3.org/Graphics/SVG/1.1/DTD/svg11.dtd"><svg xmlns="http://www.w3.org/2000/svg" version="1.1" width="191px" height="44.3px" viewBox="0 0 191 44.3">  <desc>serving</desc>  <defs/>  <g id="Polygon167034">    <path d="M 42.5 15.7 L 42.5 5.9 L 40.6 7.9 L 39.6 6.9 L 42.7 3.7 L 44.2 3.7 L 44.2 15.7 L 42.5 15.7 Z M 51.8 23.7 C 51.8 23.7 51.79 22.38 51.8 22.4 C 56 18.2 57.5 16.7 57.5 14.9 C 57.5 13.6 56.5 13 55.4 13 C 54.3 13 53.3 13.6 52.7 14.5 C 52.7 14.5 51.6 13.4 51.6 13.4 C 52.5 12.2 53.9 11.5 55.5 11.5 C 57.5 11.5 59.2 12.7 59.2 14.8 C 59.2 16.9 57.5 18.8 54.1 22.3 C 54.13 22.26 59.3 22.3 59.3 22.3 L 59.3 23.7 L 51.8 23.7 Z M 44.1 23.7 L 42.7 23.7 L 53.2 3.7 L 54.6 3.7 L 44.1 23.7 Z M 67.2 22 C 67.2 22 68.7 19.5 68.7 19.5 C 69.6 20.4 71.2 21.2 72.7 21.2 C 74.1 21.2 74.8 20.6 74.8 19.7 C 74.8 17.3 67.6 18.6 67.6 13.2 C 67.6 10.9 69.5 8.8 72.9 8.8 C 75 8.8 76.7 9.6 78 10.7 C 78 10.7 76.5 13.1 76.5 13.1 C 75.8 12.3 74.4 11.6 73 11.6 C 71.8 11.6 71.1 12.2 71.1 13 C 71.1 15.2 78.3 14.1 78.3 19.6 C 78.3 22.2 76.1 24.1 72.7 24.1 C 70.4 24.1 68.4 23.3 67.2 22 Z M 79.9 16.4 C 79.9 12.2 82.3 8.8 86.4 8.8 C 90.3 8.8 92.6 12.1 92.6 16.6 C 92.59 16.59 92.6 17.6 92.6 17.6 C 92.6 17.6 83.5 17.61 83.5 17.6 C 83.7 19.6 84.8 21.1 87 21.1 C 88 21.1 89.4 20.6 90.2 19.7 C 90.2 19.7 91.8 21.9 91.8 21.9 C 90.5 23.3 88.6 24.1 86.6 24.1 C 82.5 24.1 79.9 21 79.9 16.4 Z M 86.3 11.8 C 84.3 11.8 83.6 13.6 83.5 15.1 C 83.5 15.1 89.1 15.1 89.1 15.1 C 89.1 13.6 88.4 11.8 86.3 11.8 Z M 95 23.7 L 95 9.2 L 98.6 9.2 C 98.6 9.2 98.59 11.19 98.6 11.2 C 99.4 9.9 101 8.8 102.6 8.8 C 102.6 8.8 102.6 12.4 102.6 12.4 C 102.3 12.3 102 12.3 101.7 12.3 C 100.5 12.3 99.2 13 98.6 14 C 98.59 14.04 98.6 23.7 98.6 23.7 L 95 23.7 Z M 107.7 23.7 L 102.9 9.2 L 106.8 9.2 L 109.7 19.4 L 112.6 9.2 L 116.4 9.2 L 111.6 23.7 L 107.7 23.7 Z M 117.6 5.4 C 117.6 4.2 118.6 3.2 119.8 3.2 C 121 3.2 122 4.2 122 5.4 C 122 6.6 121 7.6 119.8 7.6 C 118.6 7.6 117.6 6.6 117.6 5.4 Z M 118 23.7 L 118 9.2 L 121.6 9.2 L 121.6 23.7 L 118 23.7 Z M 133 23.7 C 133 23.7 132.97 14.16 133 14.2 C 133 12.6 132.3 12 131.1 12 C 129.9 12 129 13 128.4 13.8 C 128.44 13.83 128.4 23.7 128.4 23.7 L 124.8 23.7 L 124.8 9.2 L 128.4 9.2 C 128.4 9.2 128.44 11.1 128.4 11.1 C 129.2 10 130.8 8.8 132.7 8.8 C 135.4 8.8 136.6 10.4 136.6 12.8 C 136.57 12.81 136.6 23.7 136.6 23.7 L 133 23.7 Z M 139.7 27.7 C 139.7 27.7 141.1 25 141.1 25 C 142.1 26 143.4 26.5 144.9 26.5 C 146.5 26.5 148.1 25.7 148.1 23.1 C 148.1 23.1 148.1 21.4 148.1 21.4 C 147.2 22.8 145.8 23.6 144.4 23.6 C 141.2 23.6 139.1 21 139.1 16.2 C 139.1 11.6 141.2 8.8 144.4 8.8 C 145.8 8.8 147.2 9.5 148.1 11 C 148.09 11.04 148.1 9.2 148.1 9.2 L 151.7 9.2 C 151.7 9.2 151.69 22.95 151.7 22.9 C 151.7 28.2 148.2 29.6 145 29.6 C 142.9 29.6 141.2 29.1 139.7 27.7 Z M 148.1 18.7 C 148.1 18.7 148.1 13.7 148.1 13.7 C 147.6 12.8 146.6 12 145.6 12 C 143.8 12 142.8 13.7 142.8 16.2 C 142.8 18.7 143.8 20.4 145.6 20.4 C 146.6 20.4 147.6 19.6 148.1 18.7 Z " stroke="none" fill="#d3d2d2"/>  </g></svg>