<?xml version="1.0" standalone="no"?><!DOCTYPE svg PUBLIC "-//W3C//DTD SVG 1.1//EN" "http://www.w3.org/Graphics/SVG/1.1/DTD/svg11.dtd"><svg xmlns="http://www.w3.org/2000/svg" version="1.1" width="327px" height="44.3px" viewBox="0 0 327 44.3">  <desc>SEPTEMBER 2018</desc>  <defs/>  <g id="Polygon142472">    <path d="M 60.1 21.5 C 60.1 21.5 62.1 18.4 62.1 18.4 C 63.2 19.6 64.9 20.5 66.9 20.5 C 68.7 20.5 69.6 19.5 69.6 18.3 C 69.6 14.8 60.7 16 60.7 9.2 C 60.7 6.1 63.2 3.4 67.3 3.4 C 69.7 3.4 71.8 4.1 73.4 5.6 C 73.4 5.6 71.4 8.6 71.4 8.6 C 70.2 7.4 68.7 6.9 67.1 6.9 C 65.7 6.9 64.8 7.7 64.8 8.9 C 64.8 12.1 73.7 11.2 73.7 18 C 73.7 21.5 71.3 24.1 66.9 24.1 C 63.9 24.1 61.7 23.1 60.1 21.5 Z M 76.3 23.7 L 76.3 3.7 L 87.8 3.7 L 87.8 7.2 L 80.3 7.2 L 80.3 11.8 L 87.6 11.8 L 87.6 15.3 L 80.3 15.3 L 80.3 20.2 L 87.8 20.2 L 87.8 23.7 L 76.3 23.7 Z M 90.8 23.7 L 90.8 3.7 C 90.8 3.7 98.14 3.69 98.1 3.7 C 102.2 3.7 104.3 6.7 104.3 10.1 C 104.3 13.5 102.2 16.5 98.1 16.5 C 98.14 16.47 94.8 16.5 94.8 16.5 L 94.8 23.7 L 90.8 23.7 Z M 100.2 10.1 C 100.2 8.3 99.2 7.2 97.7 7.2 C 97.66 7.23 94.8 7.2 94.8 7.2 L 94.8 12.9 C 94.8 12.9 97.66 12.93 97.7 12.9 C 99.2 12.9 100.2 11.8 100.2 10.1 Z M 110.1 23.7 L 110.1 7.2 L 105.6 7.2 L 105.6 3.7 L 118.5 3.7 L 118.5 7.2 L 114.1 7.2 L 114.1 23.7 L 110.1 23.7 Z M 120.9 23.7 L 120.9 3.7 L 132.4 3.7 L 132.4 7.2 L 125 7.2 L 125 11.8 L 132.2 11.8 L 132.2 15.3 L 125 15.3 L 125 20.2 L 132.4 20.2 L 132.4 23.7 L 120.9 23.7 Z M 149.9 23.7 L 149.9 10.8 L 145.4 23.7 L 143.8 23.7 L 139.4 10.8 L 139.4 23.7 L 135.4 23.7 L 135.4 3.7 L 140.8 3.7 L 144.6 14.8 L 148.5 3.7 L 153.9 3.7 L 153.9 23.7 L 149.9 23.7 Z M 157.4 23.7 L 157.4 3.7 C 157.4 3.7 165.7 3.69 165.7 3.7 C 169.3 3.7 171 6.1 171 8.8 C 171 11.3 169.6 12.9 167.8 13.4 C 169.8 13.7 171.3 15.8 171.3 18.3 C 171.3 21.3 169.6 23.7 166 23.7 C 165.97 23.7 157.4 23.7 157.4 23.7 Z M 166.9 9.5 C 166.9 8.1 166.2 7.2 164.7 7.2 C 164.74 7.2 161.4 7.2 161.4 7.2 L 161.4 11.8 C 161.4 11.8 164.74 11.79 164.7 11.8 C 166.2 11.8 166.9 10.9 166.9 9.5 Z M 167.2 17.7 C 167.2 16.3 166.4 15.3 164.9 15.3 C 164.89 15.27 161.4 15.3 161.4 15.3 L 161.4 20.2 C 161.4 20.2 164.89 20.19 164.9 20.2 C 166.4 20.2 167.2 19.3 167.2 17.7 Z M 174.2 23.7 L 174.2 3.7 L 185.6 3.7 L 185.6 7.2 L 178.2 7.2 L 178.2 11.8 L 185.4 11.8 L 185.4 15.3 L 178.2 15.3 L 178.2 20.2 L 185.6 20.2 L 185.6 23.7 L 174.2 23.7 Z M 197.8 23.7 L 194.8 16.5 L 192.6 16.5 L 192.6 23.7 L 188.6 23.7 L 188.6 3.7 C 188.6 3.7 196.05 3.69 196.1 3.7 C 199.7 3.7 202.1 6.3 202.1 10 C 202.1 13.5 200.3 15.2 198.7 15.7 C 198.66 15.75 202.3 23.7 202.3 23.7 L 197.8 23.7 Z M 198 10.1 C 198 8.3 197 7.2 195.5 7.2 C 195.45 7.23 192.6 7.2 192.6 7.2 L 192.6 12.9 C 192.6 12.9 195.45 12.93 195.5 12.9 C 197 12.9 198 11.8 198 10.1 Z M 211 23.7 C 211 23.7 210.96 20.46 211 20.5 C 218.3 13.3 219.8 11.8 219.8 9.5 C 219.8 7.9 218.6 7 217.1 7 C 215.4 7 214 7.8 212.9 9.2 C 212.9 9.2 210.5 6.7 210.5 6.7 C 212.1 4.5 214.5 3.4 217.2 3.4 C 221.1 3.4 223.9 5.7 223.9 9.4 C 223.9 12.5 221.9 15.1 216.9 20.2 C 216.9 20.16 224 20.2 224 20.2 L 224 23.7 L 211 23.7 Z M 226.2 13.7 C 226.2 8.5 228.4 3.4 233.3 3.4 C 238.3 3.4 240.4 8.5 240.4 13.7 C 240.4 18.8 238.3 24.1 233.3 24.1 C 228.4 24.1 226.2 18.8 226.2 13.7 Z M 236.3 13.7 C 236.3 9.8 235.7 7 233.3 7 C 231 7 230.3 9.8 230.3 13.7 C 230.3 17.5 231 20.5 233.3 20.5 C 235.7 20.5 236.3 17.5 236.3 13.7 Z M 247 23.7 L 247 8.9 L 243.9 12 L 241.6 9.6 L 247.5 3.7 L 251 3.7 L 251 23.7 L 247 23.7 Z M 253.7 18.6 C 253.7 16.2 255.5 14.2 257.6 13.4 C 255.7 12.7 254 11.1 254 8.6 C 254 4.9 257.3 3.4 260.6 3.4 C 263.9 3.4 267.3 4.9 267.3 8.6 C 267.3 11.1 265.6 12.7 263.7 13.4 C 265.7 14.2 267.5 16.2 267.5 18.6 C 267.5 22.1 264.6 24.1 260.6 24.1 C 256.7 24.1 253.7 22.1 253.7 18.6 Z M 263.2 9.3 C 263.2 7.8 262.2 6.9 260.6 6.9 C 259.1 6.9 258 7.8 258 9.3 C 258 11 259.9 11.8 260.6 11.9 C 261.4 11.8 263.2 11 263.2 9.3 Z M 263.5 18.1 C 263.5 16.1 261.5 15.1 260.6 15 C 259.8 15.1 257.8 16.1 257.8 18.1 C 257.8 19.6 259 20.5 260.6 20.5 C 262.2 20.5 263.5 19.6 263.5 18.1 Z " stroke="none" fill="#d3d2d2"/>  </g></svg>