<?xml version="1.0" standalone="no"?><!DOCTYPE svg PUBLIC "-//W3C//DTD SVG 1.1//EN" "http://www.w3.org/Graphics/SVG/1.1/DTD/svg11.dtd"><svg xmlns="http://www.w3.org/2000/svg" version="1.1" width="191px" height="44.3px" viewBox="0 0 191 44.3">  <desc>1 5 servings</desc>  <defs/>  <g id="Polygon157407">    <path d="M 31.8 23.7 L 31.8 8.9 L 28.7 12 L 26.4 9.6 L 32.3 3.7 L 35.8 3.7 L 35.8 23.7 L 31.8 23.7 Z M 39 21.7 C 39 20.5 40.1 19.4 41.4 19.4 C 42.6 19.4 43.7 20.5 43.7 21.7 C 43.7 23 42.6 24 41.4 24 C 40.1 24 39 23 39 21.7 Z M 46.3 20.9 C 46.3 20.9 48.7 18.3 48.7 18.3 C 49.8 19.7 51.2 20.5 52.9 20.5 C 54.8 20.5 55.9 19 55.9 17.3 C 55.9 15.4 54.9 14.2 53.1 14.2 C 51.7 14.2 50.7 14.7 49.8 15.8 C 49.75 15.84 46.8 15.1 46.8 15.1 L 46.8 3.7 L 58.8 3.7 L 58.8 7.2 L 50.9 7.2 C 50.9 7.2 50.86 12.36 50.9 12.4 C 51.6 11.4 53 10.7 54.5 10.7 C 57.6 10.7 60 13.1 60 17.2 C 60 21.2 57.3 24.1 53 24.1 C 49.9 24.1 47.8 22.9 46.3 20.9 Z M 67.8 22 C 67.8 22 69.3 19.5 69.3 19.5 C 70.2 20.4 71.8 21.2 73.3 21.2 C 74.7 21.2 75.4 20.6 75.4 19.7 C 75.4 17.3 68.2 18.6 68.2 13.2 C 68.2 10.9 70.1 8.8 73.5 8.8 C 75.6 8.8 77.3 9.6 78.6 10.7 C 78.6 10.7 77.1 13.1 77.1 13.1 C 76.4 12.3 75 11.6 73.6 11.6 C 72.4 11.6 71.7 12.2 71.7 13 C 71.7 15.2 78.9 14.1 78.9 19.6 C 78.9 22.2 76.7 24.1 73.3 24.1 C 71 24.1 69 23.3 67.8 22 Z M 80.5 16.4 C 80.5 12.2 82.9 8.8 87 8.8 C 90.9 8.8 93.2 12.1 93.2 16.6 C 93.19 16.59 93.2 17.6 93.2 17.6 C 93.2 17.6 84.1 17.61 84.1 17.6 C 84.3 19.6 85.4 21.1 87.6 21.1 C 88.6 21.1 90 20.6 90.8 19.7 C 90.8 19.7 92.4 21.9 92.4 21.9 C 91.1 23.3 89.2 24.1 87.2 24.1 C 83.1 24.1 80.5 21 80.5 16.4 Z M 86.9 11.8 C 84.9 11.8 84.2 13.6 84.1 15.1 C 84.1 15.1 89.7 15.1 89.7 15.1 C 89.7 13.6 89 11.8 86.9 11.8 Z M 95.6 23.7 L 95.6 9.2 L 99.2 9.2 C 99.2 9.2 99.19 11.19 99.2 11.2 C 100 9.9 101.6 8.8 103.2 8.8 C 103.2 8.8 103.2 12.4 103.2 12.4 C 102.9 12.3 102.6 12.3 102.3 12.3 C 101.1 12.3 99.8 13 99.2 14 C 99.19 14.04 99.2 23.7 99.2 23.7 L 95.6 23.7 Z M 108.3 23.7 L 103.5 9.2 L 107.4 9.2 L 110.3 19.4 L 113.2 9.2 L 117 9.2 L 112.2 23.7 L 108.3 23.7 Z M 118.2 5.4 C 118.2 4.2 119.2 3.2 120.4 3.2 C 121.6 3.2 122.6 4.2 122.6 5.4 C 122.6 6.6 121.6 7.6 120.4 7.6 C 119.2 7.6 118.2 6.6 118.2 5.4 Z M 118.6 23.7 L 118.6 9.2 L 122.2 9.2 L 122.2 23.7 L 118.6 23.7 Z M 133.6 23.7 C 133.6 23.7 133.57 14.16 133.6 14.2 C 133.6 12.6 132.9 12 131.7 12 C 130.5 12 129.6 13 129 13.8 C 129.04 13.83 129 23.7 129 23.7 L 125.4 23.7 L 125.4 9.2 L 129 9.2 C 129 9.2 129.04 11.1 129 11.1 C 129.8 10 131.4 8.8 133.3 8.8 C 136 8.8 137.2 10.4 137.2 12.8 C 137.17 12.81 137.2 23.7 137.2 23.7 L 133.6 23.7 Z M 140.3 27.7 C 140.3 27.7 141.7 25 141.7 25 C 142.7 26 144 26.5 145.5 26.5 C 147.1 26.5 148.7 25.7 148.7 23.1 C 148.7 23.1 148.7 21.4 148.7 21.4 C 147.8 22.8 146.4 23.6 145 23.6 C 141.8 23.6 139.7 21 139.7 16.2 C 139.7 11.6 141.8 8.8 145 8.8 C 146.4 8.8 147.8 9.5 148.7 11 C 148.69 11.04 148.7 9.2 148.7 9.2 L 152.3 9.2 C 152.3 9.2 152.29 22.95 152.3 22.9 C 152.3 28.2 148.8 29.6 145.6 29.6 C 143.5 29.6 141.8 29.1 140.3 27.7 Z M 148.7 18.7 C 148.7 18.7 148.7 13.7 148.7 13.7 C 148.2 12.8 147.2 12 146.2 12 C 144.4 12 143.4 13.7 143.4 16.2 C 143.4 18.7 144.4 20.4 146.2 20.4 C 147.2 20.4 148.2 19.6 148.7 18.7 Z M 154.5 22 C 154.5 22 156 19.5 156 19.5 C 156.9 20.4 158.5 21.2 160 21.2 C 161.4 21.2 162.1 20.6 162.1 19.7 C 162.1 17.3 154.9 18.6 154.9 13.2 C 154.9 10.9 156.8 8.8 160.2 8.8 C 162.3 8.8 164 9.6 165.3 10.7 C 165.3 10.7 163.8 13.1 163.8 13.1 C 163.1 12.3 161.7 11.6 160.3 11.6 C 159.1 11.6 158.4 12.2 158.4 13 C 158.4 15.2 165.6 14.1 165.6 19.6 C 165.6 22.2 163.4 24.1 160 24.1 C 157.7 24.1 155.7 23.3 154.5 22 Z " stroke="none" fill="#d3d2d2"/>  </g></svg>