<?xml version="1.0" standalone="no"?><!DOCTYPE svg PUBLIC "-//W3C//DTD SVG 1.1//EN" "http://www.w3.org/Graphics/SVG/1.1/DTD/svg11.dtd"><svg xmlns="http://www.w3.org/2000/svg" version="1.1" width="278px" height="36px" viewBox="0 0 278 36">  <desc>SCAVENGED INGREDIENT</desc>  <defs/>  <g id="Polygon228044">    <path d="M 2.4 18.2 C 2.4 18.2 3.9 15.7 3.9 15.7 C 4.8 16.7 6.2 17.4 7.8 17.4 C 9.2 17.4 10 16.6 10 15.6 C 10 12.8 2.8 13.8 2.8 8.4 C 2.8 5.8 4.8 3.7 8.1 3.7 C 10.1 3.7 11.7 4.3 13 5.4 C 13 5.4 11.4 7.8 11.4 7.8 C 10.5 6.9 9.3 6.5 8 6.5 C 6.9 6.5 6.1 7.2 6.1 8.1 C 6.1 10.6 13.3 10 13.3 15.4 C 13.3 18.2 11.3 20.2 7.8 20.2 C 5.4 20.2 3.6 19.4 2.4 18.2 Z M 14.7 12 C 14.7 7.1 17.3 3.7 21.5 3.7 C 24.5 3.7 26 5.7 26.8 7.5 C 26.8 7.5 24.2 8.7 24.2 8.7 C 23.7 7.4 22.7 6.5 21.5 6.5 C 19.3 6.5 18 8.8 18 12 C 18 15.1 19.3 17.4 21.5 17.4 C 22.8 17.4 23.7 16.4 24.2 15 C 24.2 15 26.8 16.2 26.8 16.2 C 26.1 18.1 24.6 20.2 21.5 20.2 C 17.3 20.2 14.7 16.8 14.7 12 Z M 37.1 19.9 L 36.3 17.1 L 31.4 17.1 L 30.7 19.9 L 27.2 19.9 L 32 3.9 L 35.8 3.9 L 40.6 19.9 L 37.1 19.9 Z M 33.9 7.3 L 32.1 14.3 L 35.7 14.3 L 33.9 7.3 Z M 44.5 19.9 L 39.7 3.9 L 43.2 3.9 L 46.4 16.2 L 49.6 3.9 L 53.1 3.9 L 48.4 19.9 L 44.5 19.9 Z M 54.5 19.9 L 54.5 3.9 L 63.7 3.9 L 63.7 6.8 L 57.7 6.8 L 57.7 10.4 L 63.5 10.4 L 63.5 13.2 L 57.7 13.2 L 57.7 17.1 L 63.7 17.1 L 63.7 19.9 L 54.5 19.9 Z M 74.7 19.9 L 69.3 10.5 L 69.3 19.9 L 66 19.9 L 66 3.9 L 69.3 3.9 L 74.5 13.1 L 74.5 3.9 L 77.8 3.9 L 77.8 19.9 L 74.7 19.9 Z M 79.9 12 C 79.9 7 82.6 3.7 86.7 3.7 C 89.5 3.7 91.2 5.4 92 7.3 C 92 7.3 89.4 8.6 89.4 8.6 C 88.9 7.4 88 6.5 86.7 6.5 C 84.7 6.5 83.2 8.5 83.2 12 C 83.2 15.4 84.7 17.4 86.7 17.4 C 87.8 17.4 88.6 16.9 89.1 16.4 C 89.12 16.42 89.1 14 89.1 14 L 86.1 14 L 86.1 11.2 L 92.2 11.2 C 92.2 11.2 92.17 17.69 92.2 17.7 C 90.8 19.3 89 20.2 86.7 20.2 C 82.6 20.2 79.9 16.9 79.9 12 Z M 94.6 19.9 L 94.6 3.9 L 103.8 3.9 L 103.8 6.8 L 97.9 6.8 L 97.9 10.4 L 103.6 10.4 L 103.6 13.2 L 97.9 13.2 L 97.9 17.1 L 103.8 17.1 L 103.8 19.9 L 94.6 19.9 Z M 106.2 19.9 L 106.2 3.9 C 106.2 3.9 111.35 3.94 111.3 3.9 C 115.8 3.9 118.3 7.2 118.3 12 C 118.3 16.7 115.8 19.9 111.3 19.9 C 111.35 19.94 106.2 19.9 106.2 19.9 Z M 115 12 C 115 8.8 113.8 6.8 111.3 6.8 C 111.35 6.77 109.4 6.8 109.4 6.8 L 109.4 17.1 C 109.4 17.1 111.35 17.11 111.3 17.1 C 113.7 17.1 115 15 115 12 Z M 125.6 19.9 L 125.6 3.9 L 128.8 3.9 L 128.8 19.9 L 125.6 19.9 Z M 140.3 19.9 L 134.8 10.5 L 134.8 19.9 L 131.6 19.9 L 131.6 3.9 L 134.9 3.9 L 140.1 13.1 L 140.1 3.9 L 143.3 3.9 L 143.3 19.9 L 140.3 19.9 Z M 145.5 12 C 145.5 7 148.2 3.7 152.3 3.7 C 155 3.7 156.7 5.4 157.6 7.3 C 157.6 7.3 155 8.6 155 8.6 C 154.5 7.4 153.6 6.5 152.3 6.5 C 150.2 6.5 148.8 8.5 148.8 12 C 148.8 15.4 150.2 17.4 152.3 17.4 C 153.3 17.4 154.2 16.9 154.7 16.4 C 154.69 16.42 154.7 14 154.7 14 L 151.7 14 L 151.7 11.2 L 157.7 11.2 C 157.7 11.2 157.74 17.69 157.7 17.7 C 156.4 19.3 154.6 20.2 152.3 20.2 C 148.2 20.2 145.5 16.9 145.5 12 Z M 167.6 19.9 L 165.2 14.2 L 163.4 14.2 L 163.4 19.9 L 160.2 19.9 L 160.2 3.9 C 160.2 3.9 166.18 3.94 166.2 3.9 C 169.1 3.9 171.1 6 171.1 9 C 171.1 11.8 169.6 13.2 168.3 13.6 C 168.27 13.58 171.2 19.9 171.2 19.9 L 167.6 19.9 Z M 167.8 9 C 167.8 7.7 167 6.8 165.7 6.8 C 165.7 6.77 163.4 6.8 163.4 6.8 L 163.4 11.3 C 163.4 11.3 165.7 11.33 165.7 11.3 C 167 11.3 167.8 10.4 167.8 9 Z M 173.4 19.9 L 173.4 3.9 L 182.6 3.9 L 182.6 6.8 L 176.6 6.8 L 176.6 10.4 L 182.4 10.4 L 182.4 13.2 L 176.6 13.2 L 176.6 17.1 L 182.6 17.1 L 182.6 19.9 L 173.4 19.9 Z M 185 19.9 L 185 3.9 C 185 3.9 190.14 3.94 190.1 3.9 C 194.6 3.9 197.1 7.2 197.1 12 C 197.1 16.7 194.6 19.9 190.1 19.9 C 190.14 19.94 185 19.9 185 19.9 Z M 193.8 12 C 193.8 8.8 192.6 6.8 190.1 6.8 C 190.14 6.77 188.2 6.8 188.2 6.8 L 188.2 17.1 C 188.2 17.1 190.14 17.11 190.1 17.1 C 192.5 17.1 193.8 15 193.8 12 Z M 199.3 19.9 L 199.3 3.9 L 202.5 3.9 L 202.5 19.9 L 199.3 19.9 Z M 205.4 19.9 L 205.4 3.9 L 214.5 3.9 L 214.5 6.8 L 208.6 6.8 L 208.6 10.4 L 214.4 10.4 L 214.4 13.2 L 208.6 13.2 L 208.6 17.1 L 214.5 17.1 L 214.5 19.9 L 205.4 19.9 Z M 225.6 19.9 L 220.1 10.5 L 220.1 19.9 L 216.9 19.9 L 216.9 3.9 L 220.2 3.9 L 225.4 13.1 L 225.4 3.9 L 228.6 3.9 L 228.6 19.9 L 225.6 19.9 Z M 234.1 19.9 L 234.1 6.8 L 230.6 6.8 L 230.6 3.9 L 240.9 3.9 L 240.9 6.8 L 237.3 6.8 L 237.3 19.9 L 234.1 19.9 Z " stroke="none" fill="#c87766"/>  </g></svg>