<?xml version="1.0" standalone="no"?><!DOCTYPE svg PUBLIC "-//W3C//DTD SVG 1.1//EN" "http://www.w3.org/Graphics/SVG/1.1/DTD/svg11.dtd"><svg xmlns="http://www.w3.org/2000/svg" version="1.1" width="651px" height="85.6px" viewBox="0 0 651 85.6">  <desc>White Glue Cream</desc>  <defs/>  <g id="Polygon184540">    <path d="M 21.8 47.4 L 18.5 21.6 L 15.2 47.4 L 7.5 47.4 L 0.7 7.4 L 8.3 7.4 L 11.7 34.2 L 15.5 7.4 L 21.5 7.4 L 25.3 34.2 L 28.6 7.4 L 36.3 7.4 L 29.5 47.4 L 21.8 47.4 Z M 52.6 47.4 C 52.6 47.4 52.62 26.64 52.6 26.6 C 52.6 24.7 51.9 23.7 50.4 23.7 C 48.7 23.7 47.2 25.6 46.5 27.5 C 46.5 27.48 46.5 47.4 46.5 47.4 L 39.7 47.4 L 39.7 7.4 L 46.5 7.4 C 46.5 7.4 46.5 22.2 46.5 22.2 C 47.6 19.9 50.6 17.7 53.3 17.7 C 57.7 17.7 59.5 20.1 59.5 24.2 C 59.46 24.24 59.5 47.4 59.5 47.4 L 52.6 47.4 Z M 64.1 10.9 C 64.1 8.6 66.1 6.8 68.3 6.8 C 70.6 6.8 72.4 8.6 72.4 10.9 C 72.4 13.2 70.6 15 68.3 15 C 66.1 15 64.1 13.2 64.1 10.9 Z M 64.9 47.4 L 64.9 18.4 L 71.7 18.4 L 71.7 47.4 L 64.9 47.4 Z M 78.1 40.7 C 78.06 40.74 78.1 24.3 78.1 24.3 L 75.4 24.3 L 75.4 18.4 L 78.1 18.4 L 78.1 10.5 L 84.8 10.5 L 84.8 18.4 L 88.5 18.4 L 88.5 24.3 L 84.8 24.3 C 84.8 24.3 84.84 39.42 84.8 39.4 C 84.8 41.2 85.3 42.1 86.5 42.1 C 87.1 42.1 87.7 41.8 88.1 41.3 C 88.1 41.3 89.5 46.6 89.5 46.6 C 88.4 47.5 86.8 48.1 84.7 48.1 C 80 48.1 78.1 45.7 78.1 40.7 Z M 91.5 32.9 C 91.5 24.5 95.1 17.7 102.4 17.7 C 109.7 17.7 112.7 24.2 112.7 32.8 C 112.74 32.76 112.7 35.1 112.7 35.1 C 112.7 35.1 98.04 35.1 98 35.1 C 98.1 39.4 99.9 42.6 103.7 42.6 C 105.4 42.6 107.2 41.5 108.5 39.7 C 108.5 39.7 111.8 43.5 111.8 43.5 C 109.6 46.4 106.3 48.1 103 48.1 C 95.5 48.1 91.5 41.8 91.5 32.9 Z M 102.2 23.2 C 98.9 23.2 98 27.3 98 30.4 C 98 30.4 106.2 30.4 106.2 30.4 C 106.2 27.1 105.5 23.2 102.2 23.2 Z M 125.8 27.4 C 125.8 15.1 129.7 6.7 138.3 6.7 C 143.9 6.7 147 11 148.3 16.1 C 148.3 16.1 142.3 18.4 142.3 18.4 C 141.7 15.6 140.6 13.4 138.3 13.4 C 135.3 13.4 133.5 17.8 133.5 27.4 C 133.5 37 135.3 41.4 138.3 41.4 C 140 41.4 141.1 40.7 141.9 39.6 C 141.9 39.6 141.9 32.3 141.9 32.3 L 137.4 32.3 L 137.4 25.7 L 148.6 25.7 C 148.6 25.7 148.56 42.84 148.6 42.8 C 145.9 46.2 142.8 48.1 138.3 48.1 C 129.7 48.1 125.8 39.7 125.8 27.4 Z M 153.8 47.4 L 153.8 7.4 L 160.6 7.4 L 160.6 47.4 L 153.8 47.4 Z M 179 47.4 C 179 47.4 178.98 43.74 179 43.7 C 177.8 46.1 175 48.1 172.2 48.1 C 167.8 48.1 166.1 45.7 166.1 41.6 C 166.08 41.58 166.1 18.4 166.1 18.4 L 172.9 18.4 C 172.9 18.4 172.86 39.18 172.9 39.2 C 172.9 41.2 173.6 42.1 175.1 42.1 C 176.8 42.1 178.3 40.3 179 38.5 C 178.98 38.46 179 18.4 179 18.4 L 185.8 18.4 L 185.8 47.4 L 179 47.4 Z M 190.1 32.9 C 190.1 24.5 193.7 17.7 201 17.7 C 208.3 17.7 211.4 24.2 211.4 32.8 C 211.38 32.76 211.4 35.1 211.4 35.1 C 211.4 35.1 196.68 35.1 196.7 35.1 C 196.7 39.4 198.5 42.6 202.4 42.6 C 204 42.6 205.9 41.5 207.2 39.7 C 207.2 39.7 210.5 43.5 210.5 43.5 C 208.2 46.4 205 48.1 201.7 48.1 C 194.1 48.1 190.1 41.8 190.1 32.9 Z M 200.8 23.2 C 197.5 23.2 196.7 27.3 196.7 30.4 C 196.7 30.4 204.8 30.4 204.8 30.4 C 204.8 27.1 204.1 23.2 200.8 23.2 Z M 224.4 27.4 C 224.4 15.5 228.2 6.7 236.9 6.7 C 243.4 6.7 245.7 11.9 247 16.1 C 247 16.1 241 18.4 241 18.4 C 240.1 15.3 239.2 13.4 236.9 13.4 C 233.3 13.4 232.1 19.3 232.1 27.4 C 232.1 35.6 233.3 41.4 236.9 41.4 C 239.4 41.4 240.5 38.9 241 35.6 C 241 35.6 247.1 37.8 247.1 37.8 C 245.9 42.4 243.6 48.1 236.9 48.1 C 228.2 48.1 224.4 39.3 224.4 27.4 Z M 251 47.4 L 251 18.4 L 257.8 18.4 C 257.8 18.4 257.82 22.44 257.8 22.4 C 259 19.8 261.8 17.7 264.3 17.7 C 264.3 17.7 264.3 24.4 264.3 24.4 C 263.9 24.2 263.4 24.2 263 24.2 C 261 24.2 259 25.8 257.8 27.9 C 257.82 27.9 257.8 47.4 257.8 47.4 L 251 47.4 Z M 266.7 32.9 C 266.7 24.5 270.3 17.7 277.6 17.7 C 284.9 17.7 287.9 24.2 287.9 32.8 C 287.94 32.76 287.9 35.1 287.9 35.1 C 287.9 35.1 273.24 35.1 273.2 35.1 C 273.3 39.4 275.1 42.6 278.9 42.6 C 280.6 42.6 282.4 41.5 283.7 39.7 C 283.7 39.7 287 43.5 287 43.5 C 284.8 46.4 281.5 48.1 278.2 48.1 C 270.7 48.1 266.7 41.8 266.7 32.9 Z M 277.4 23.2 C 274.1 23.2 273.2 27.3 273.2 30.4 C 273.2 30.4 281.4 30.4 281.4 30.4 C 281.4 27.1 280.7 23.2 277.4 23.2 Z M 304.7 47.4 C 304.7 47.4 304.67 44.64 304.7 44.6 C 303.4 46.9 300.7 48.1 298.6 48.1 C 294.1 48.1 290.8 44.4 290.8 38.5 C 290.8 32.6 294.1 29 298.6 29 C 300.7 29 303.5 30.1 304.7 32.3 C 304.7 32.3 304.7 28.7 304.7 28.7 C 304.7 25.4 303.4 23.5 300.3 23.5 C 298.4 23.5 296.3 24.4 294.4 26.3 C 294.4 26.3 291.9 21.5 291.9 21.5 C 294.5 18.7 298.7 17.7 301.7 17.7 C 307.6 17.7 311.5 20.7 311.5 27.2 C 311.45 27.18 311.5 47.4 311.5 47.4 L 304.7 47.4 Z M 304.7 40.6 C 304.7 40.6 304.7 36.7 304.7 36.7 C 304 34.9 302.5 33.7 301 33.7 C 298.7 33.7 297.5 35.8 297.5 38.6 C 297.5 41.3 298.7 43.6 301 43.6 C 302.5 43.6 304 42.4 304.7 40.6 Z M 342.8 47.4 C 342.8 47.4 342.83 26.76 342.8 26.8 C 342.8 24.6 342.1 23.7 340.6 23.7 C 338.8 23.7 337.3 25.7 336.7 27.5 C 336.71 27.48 336.7 47.4 336.7 47.4 L 329.9 47.4 C 329.9 47.4 329.87 26.76 329.9 26.8 C 329.9 24.8 329.2 23.7 327.7 23.7 C 325.9 23.7 324.4 25.7 323.8 27.5 C 323.75 27.48 323.8 47.4 323.8 47.4 L 317 47.4 L 317 18.4 L 323.8 18.4 C 323.8 18.4 323.75 22.2 323.8 22.2 C 324.8 20 327.8 17.7 330.5 17.7 C 333.6 17.7 336 19.2 336.5 22.5 C 337.6 20.1 340.6 17.7 343.5 17.7 C 347.1 17.7 349.6 19.6 349.6 24.3 C 349.61 24.3 349.6 47.4 349.6 47.4 L 342.8 47.4 Z " stroke="none" fill="#b13d24"/>  </g></svg>