<?xml version="1.0" standalone="no"?><!DOCTYPE svg PUBLIC "-//W3C//DTD SVG 1.1//EN" "http://www.w3.org/Graphics/SVG/1.1/DTD/svg11.dtd"><svg xmlns="http://www.w3.org/2000/svg" version="1.1" width="191px" height="44.3px" viewBox="0 0 191 44.3">  <desc>10 hrs 45 mins</desc>  <defs/>  <g id="Polygon195007">    <path d="M 16.3 23.7 L 16.3 8.9 L 13.2 12 L 10.9 9.6 L 16.8 3.7 L 20.3 3.7 L 20.3 23.7 L 16.3 23.7 Z M 23 13.7 C 23 8.5 25.2 3.4 30.1 3.4 C 35.1 3.4 37.2 8.5 37.2 13.7 C 37.2 18.8 35.1 24.1 30.1 24.1 C 25.2 24.1 23 18.8 23 13.7 Z M 33.1 13.7 C 33.1 9.8 32.5 7 30.1 7 C 27.8 7 27.1 9.8 27.1 13.7 C 27.1 17.5 27.8 20.5 30.1 20.5 C 32.5 20.5 33.1 17.5 33.1 13.7 Z M 54.3 23.7 C 54.3 23.7 54.27 14.1 54.3 14.1 C 54.3 12.6 53.5 12 52.3 12 C 51.2 12 50.2 13 49.7 13.8 C 49.74 13.83 49.7 23.7 49.7 23.7 L 46.1 23.7 L 46.1 3.7 L 49.7 3.7 C 49.7 3.7 49.74 11.1 49.7 11.1 C 50.5 10 52.1 8.8 54 8.8 C 56.7 8.8 57.9 10.3 57.9 12.7 C 57.87 12.75 57.9 23.7 57.9 23.7 L 54.3 23.7 Z M 61.1 23.7 L 61.1 9.2 L 64.7 9.2 C 64.7 9.2 64.71 11.19 64.7 11.2 C 65.5 9.9 67.1 8.8 68.7 8.8 C 68.7 8.8 68.7 12.4 68.7 12.4 C 68.4 12.3 68.1 12.3 67.8 12.3 C 66.7 12.3 65.3 13 64.7 14 C 64.71 14.04 64.7 23.7 64.7 23.7 L 61.1 23.7 Z M 69.6 22 C 69.6 22 71.1 19.5 71.1 19.5 C 72 20.4 73.6 21.2 75.1 21.2 C 76.5 21.2 77.2 20.6 77.2 19.7 C 77.2 17.3 70.1 18.6 70.1 13.2 C 70.1 10.9 72 8.8 75.4 8.8 C 77.4 8.8 79.1 9.6 80.4 10.7 C 80.4 10.7 79 13.1 79 13.1 C 78.2 12.3 76.9 11.6 75.4 11.6 C 74.3 11.6 73.5 12.2 73.5 13 C 73.5 15.2 80.7 14.1 80.7 19.6 C 80.7 22.2 78.6 24.1 75.2 24.1 C 72.8 24.1 70.8 23.3 69.6 22 Z M 96.5 23.7 L 96.5 19.4 L 88.3 19.4 L 88.3 16.1 L 95.4 3.7 L 100.5 3.7 L 100.5 15.9 L 102.5 15.9 L 102.5 19.4 L 100.5 19.4 L 100.5 23.7 L 96.5 23.7 Z M 96.5 7.8 L 92 15.9 L 96.5 15.9 L 96.5 7.8 Z M 104.3 20.9 C 104.3 20.9 106.7 18.3 106.7 18.3 C 107.8 19.7 109.2 20.5 110.9 20.5 C 112.8 20.5 113.9 19 113.9 17.3 C 113.9 15.4 112.9 14.2 111.1 14.2 C 109.7 14.2 108.7 14.7 107.8 15.8 C 107.79 15.84 104.9 15.1 104.9 15.1 L 104.9 3.7 L 116.9 3.7 L 116.9 7.2 L 108.9 7.2 C 108.9 7.2 108.9 12.36 108.9 12.4 C 109.7 11.4 111 10.7 112.6 10.7 C 115.6 10.7 118 13.1 118 17.2 C 118 21.2 115.3 24.1 111 24.1 C 107.9 24.1 105.8 22.9 104.3 20.9 Z M 142.4 23.7 C 142.4 23.7 142.38 13.95 142.4 13.9 C 142.4 12.7 141.9 12 140.7 12 C 139.6 12 138.7 13 138.2 13.8 C 138.24 13.83 138.2 23.7 138.2 23.7 L 134.6 23.7 C 134.6 23.7 134.64 13.95 134.6 13.9 C 134.6 12.8 134.2 12 133 12 C 131.9 12 130.9 13 130.5 13.8 C 130.5 13.83 130.5 23.7 130.5 23.7 L 126.9 23.7 L 126.9 9.2 L 130.5 9.2 C 130.5 9.2 130.5 11.1 130.5 11.1 C 131.1 10.1 132.8 8.8 134.6 8.8 C 136.4 8.8 137.7 9.7 138.1 11.4 C 138.8 10.1 140.5 8.8 142.3 8.8 C 144.5 8.8 146 10 146 12.7 C 145.98 12.69 146 23.7 146 23.7 L 142.4 23.7 Z M 148.9 5.4 C 148.9 4.2 149.8 3.2 151 3.2 C 152.2 3.2 153.2 4.2 153.2 5.4 C 153.2 6.6 152.2 7.6 151 7.6 C 149.8 7.6 148.9 6.6 148.9 5.4 Z M 149.2 23.7 L 149.2 9.2 L 152.8 9.2 L 152.8 23.7 L 149.2 23.7 Z M 164.2 23.7 C 164.2 23.7 164.18 14.16 164.2 14.2 C 164.2 12.6 163.5 12 162.3 12 C 161.1 12 160.2 13 159.7 13.8 C 159.65 13.83 159.7 23.7 159.7 23.7 L 156.1 23.7 L 156.1 9.2 L 159.7 9.2 C 159.7 9.2 159.65 11.1 159.7 11.1 C 160.4 10 162.1 8.8 163.9 8.8 C 166.6 8.8 167.8 10.4 167.8 12.8 C 167.78 12.81 167.8 23.7 167.8 23.7 L 164.2 23.7 Z M 169.9 22 C 169.9 22 171.5 19.5 171.5 19.5 C 172.4 20.4 174 21.2 175.5 21.2 C 176.8 21.2 177.6 20.6 177.6 19.7 C 177.6 17.3 170.4 18.6 170.4 13.2 C 170.4 10.9 172.3 8.8 175.7 8.8 C 177.8 8.8 179.5 9.6 180.7 10.7 C 180.7 10.7 179.3 13.1 179.3 13.1 C 178.6 12.3 177.2 11.6 175.8 11.6 C 174.6 11.6 173.8 12.2 173.8 13 C 173.8 15.2 181 14.1 181 19.6 C 181 22.2 178.9 24.1 175.5 24.1 C 173.2 24.1 171.2 23.3 169.9 22 Z " stroke="none" fill="#d3d2d2"/>  </g></svg>