<?xml version="1.0" standalone="no"?><!DOCTYPE svg PUBLIC "-//W3C//DTD SVG 1.1//EN" "http://www.w3.org/Graphics/SVG/1.1/DTD/svg11.dtd"><svg xmlns="http://www.w3.org/2000/svg" version="1.1" width="144px" height="44.3px" viewBox="0 0 144 44.3">  <desc>recipe list</desc>  <defs/>  <g id="Polygon117317">    <path d="M 19.2 23.7 L 16.7 17.9 L 15 17.9 L 15 23.7 L 11.3 23.7 L 11.3 7.2 C 11.3 7.2 17.86 7.2 17.9 7.2 C 21.3 7.2 23.2 9.6 23.2 12.5 C 23.2 15.4 21.7 16.9 20.2 17.3 C 20.2 17.34 23.3 23.7 23.3 23.7 L 19.2 23.7 Z M 19.4 12.6 C 19.4 11.3 18.7 10.4 17.4 10.4 C 17.41 10.44 15 10.4 15 10.4 L 15 14.7 C 15 14.7 17.41 14.67 17.4 14.7 C 18.7 14.7 19.4 13.8 19.4 12.6 Z M 25.9 23.7 L 25.9 7.2 L 36 7.2 L 36 10.4 L 29.6 10.4 L 29.6 13.7 L 35.8 13.7 L 35.8 16.9 L 29.6 16.9 L 29.6 20.5 L 36 20.5 L 36 23.7 L 25.9 23.7 Z M 38 15.4 C 38 10.4 40.8 6.8 45.3 6.8 C 48.5 6.8 50.2 8.9 51.2 11 C 51.2 11 48.1 12.3 48.1 12.3 C 47.6 11 46.6 10.1 45.3 10.1 C 43.1 10.1 41.8 12.4 41.8 15.4 C 41.8 18.5 43.1 20.8 45.3 20.8 C 46.6 20.8 47.6 19.9 48.1 18.6 C 48.1 18.6 51.2 19.8 51.2 19.8 C 50.3 22 48.5 24.1 45.3 24.1 C 40.8 24.1 38 20.4 38 15.4 Z M 53.3 23.7 L 53.3 7.2 L 57 7.2 L 57 23.7 L 53.3 23.7 Z M 60.3 23.7 L 60.3 7.2 C 60.3 7.2 66.88 7.2 66.9 7.2 C 70.4 7.2 72.2 9.7 72.2 12.6 C 72.2 15.5 70.4 17.9 66.9 17.9 C 66.88 17.94 64 17.9 64 17.9 L 64 23.7 L 60.3 23.7 Z M 68.4 12.6 C 68.4 11.3 67.7 10.4 66.4 10.4 C 66.43 10.44 64 10.4 64 10.4 L 64 14.7 C 64 14.7 66.43 14.67 66.4 14.7 C 67.7 14.7 68.4 13.8 68.4 12.6 Z M 74.4 23.7 L 74.4 7.2 L 84.5 7.2 L 84.5 10.4 L 78.1 10.4 L 78.1 13.7 L 84.3 13.7 L 84.3 16.9 L 78.1 16.9 L 78.1 20.5 L 84.5 20.5 L 84.5 23.7 L 74.4 23.7 Z M 93.5 23.7 L 93.5 7.2 L 97.3 7.2 L 97.3 20.5 L 103 20.5 L 103 23.7 L 93.5 23.7 Z M 105.4 23.7 L 105.4 7.2 L 109.1 7.2 L 109.1 23.7 L 105.4 23.7 Z M 111.2 22 C 111.2 22 112.9 19.1 112.9 19.1 C 113.8 20.1 115.4 20.9 117.1 20.9 C 118.5 20.9 119.3 20.2 119.3 19.1 C 119.3 16.4 111.8 17.3 111.8 11.7 C 111.8 9 114 6.8 117.5 6.8 C 119.8 6.8 121.5 7.5 122.9 8.7 C 122.9 8.7 121.3 11.4 121.3 11.4 C 120.3 10.5 118.9 10 117.6 10 C 116.5 10 115.7 10.6 115.7 11.6 C 115.7 14 123.2 13.3 123.2 19 C 123.2 22 121 24.1 117.2 24.1 C 114.6 24.1 112.7 23.2 111.2 22 Z M 127.9 23.7 L 127.9 10.4 L 124.4 10.4 L 124.4 7.2 L 135.2 7.2 L 135.2 10.4 L 131.7 10.4 L 131.7 23.7 L 127.9 23.7 Z " stroke="none" fill="#e9e8e8"/>  </g></svg>