<?xml version="1.0" standalone="no"?><!DOCTYPE svg PUBLIC "-//W3C//DTD SVG 1.1//EN" "http://www.w3.org/Graphics/SVG/1.1/DTD/svg11.dtd"><svg xmlns="http://www.w3.org/2000/svg" version="1.1" width="494px" height="503.3px" viewBox="0 0 494 503.3">  <desc>2-oc-3-solanine Acetyl methyl carbinol Alcanivorase extract Chaconinic acid Diacetyl ketosamine Estragolic acid Heter</desc>  <defs/>  <g id="Polygon226163">    <path d="M 5.5 456.4 L 5.5 438.5 L 0.8 438.5 L 0.8 436.4 L 12.6 436.4 L 12.6 438.5 L 7.9 438.5 L 7.9 456.4 L 5.5 456.4 Z M 11.9 449.1 C 11.9 444.9 14.1 441.5 17.7 441.5 C 21.5 441.5 23.5 444.9 23.5 449.2 C 23.46 449.18 23.5 449.8 23.5 449.8 C 23.5 449.8 14.07 449.84 14.1 449.8 C 14.2 452.7 15.7 454.9 18.2 454.9 C 19.5 454.9 20.8 454.3 21.7 453.2 C 21.7 453.2 22.8 454.4 22.8 454.4 C 21.7 455.9 20 456.7 18.1 456.7 C 14.2 456.7 11.9 453.6 11.9 449.1 Z M 17.7 443.3 C 15.2 443.3 14.1 446.1 14.1 448.2 C 14.1 448.2 21.3 448.2 21.3 448.2 C 21.3 446 20.3 443.3 17.7 443.3 Z M 26.7 453.5 C 26.73 453.47 26.7 443.8 26.7 443.8 L 24.8 443.8 L 24.8 441.9 L 26.7 441.9 L 26.7 437.9 L 28.9 437.9 L 28.9 441.9 L 31.3 441.9 L 31.3 443.8 L 28.9 443.8 C 28.9 443.8 28.89 453.08 28.9 453.1 C 28.9 454.2 29.2 454.8 30.1 454.8 C 30.6 454.8 31 454.6 31.3 454.2 C 31.3 454.2 32 455.9 32 455.9 C 31.5 456.4 30.7 456.7 29.6 456.7 C 27.7 456.7 26.7 455.6 26.7 453.5 Z M 33.9 456.4 L 33.9 441.9 L 36 441.9 C 36 441.9 36.03 444.2 36 444.2 C 37 442.7 38.4 441.6 40.1 441.6 C 40.1 441.6 40.1 443.8 40.1 443.8 C 39.9 443.7 39.7 443.7 39.4 443.7 C 38.1 443.7 36.6 444.9 36 446.1 C 36.03 446.09 36 456.4 36 456.4 L 33.9 456.4 Z M 49.8 456.4 C 49.8 456.4 49.77 454.82 49.8 454.8 C 48.8 456.1 47.4 456.7 46 456.7 C 43.6 456.7 41.6 454.9 41.6 451.9 C 41.6 448.9 43.6 447.1 46 447.1 C 47.4 447.1 48.9 447.7 49.8 449 C 49.8 449 49.8 446.5 49.8 446.5 C 49.8 444.5 48.7 443.4 46.8 443.4 C 45.4 443.4 44.3 443.9 43.2 445.2 C 43.2 445.2 42.2 443.6 42.2 443.6 C 43.6 442.2 45.3 441.5 47.1 441.5 C 50 441.5 51.9 442.9 51.9 446.2 C 51.93 446.24 51.9 456.4 51.9 456.4 L 49.8 456.4 Z M 49.8 453.3 C 49.8 453.3 49.8 450.6 49.8 450.6 C 49.1 449.4 47.9 448.7 46.6 448.7 C 44.8 448.7 43.8 450.1 43.8 451.9 C 43.8 453.7 44.8 455.2 46.6 455.2 C 47.9 455.2 49.1 454.5 49.8 453.3 Z M 56.1 456.4 L 56.1 443.8 L 54.1 443.8 L 54.1 441.9 L 56.1 441.9 C 56.1 441.9 56.07 440.12 56.1 440.1 C 56.1 437.6 57.4 436.1 59.7 436.1 C 60.7 436.1 61.6 436.3 62.3 437 C 62.3 437 61.4 438.6 61.4 438.6 C 61 438.1 60.6 437.9 60 437.9 C 58.8 437.9 58.2 438.7 58.2 440.1 C 58.23 440.12 58.2 441.9 58.2 441.9 L 60.7 441.9 L 60.7 443.8 L 58.2 443.8 L 58.2 456.4 L 56.1 456.4 Z M 70.7 456.4 C 70.7 456.4 70.71 454.37 70.7 454.4 C 69.8 455.6 68.3 456.7 66.5 456.7 C 64 456.7 62.9 455.5 62.9 452.9 C 62.88 452.87 62.9 441.9 62.9 441.9 L 65 441.9 C 65 441.9 65.01 452.24 65 452.2 C 65 454.2 65.9 454.8 67.3 454.8 C 68.8 454.8 70.1 453.8 70.7 452.6 C 70.71 452.57 70.7 441.9 70.7 441.9 L 72.9 441.9 L 72.9 456.4 L 70.7 456.4 Z M 76.5 456.4 L 76.5 441.9 L 78.7 441.9 C 78.7 441.9 78.66 444.2 78.7 444.2 C 79.6 442.7 81 441.6 82.8 441.6 C 82.8 441.6 82.8 443.8 82.8 443.8 C 82.5 443.7 82.3 443.7 82 443.7 C 80.7 443.7 79.3 444.9 78.7 446.1 C 78.66 446.09 78.7 456.4 78.7 456.4 L 76.5 456.4 Z M 92.4 456.4 C 92.4 456.4 92.4 454.82 92.4 454.8 C 91.5 456.1 90.1 456.7 88.6 456.7 C 86.2 456.7 84.2 454.9 84.2 451.9 C 84.2 448.9 86.2 447.1 88.6 447.1 C 90.1 447.1 91.5 447.7 92.4 449 C 92.4 449 92.4 446.5 92.4 446.5 C 92.4 444.5 91.3 443.4 89.4 443.4 C 88.1 443.4 86.9 443.9 85.8 445.2 C 85.8 445.2 84.8 443.6 84.8 443.6 C 86.2 442.2 87.9 441.5 89.8 441.5 C 92.6 441.5 94.6 442.9 94.6 446.2 C 94.56 446.24 94.6 456.4 94.6 456.4 L 92.4 456.4 Z M 92.4 453.3 C 92.4 453.3 92.4 450.6 92.4 450.6 C 91.7 449.4 90.5 448.7 89.3 448.7 C 87.5 448.7 86.4 450.1 86.4 451.9 C 86.4 453.7 87.5 455.2 89.3 455.2 C 90.5 455.2 91.7 454.5 92.4 453.3 Z M 106 456.4 C 106 456.4 106.02 446.06 106 446.1 C 106 444.1 105.1 443.4 103.7 443.4 C 102.3 443.4 101 444.6 100.3 445.8 C 100.32 445.76 100.3 456.4 100.3 456.4 L 98.2 456.4 L 98.2 441.9 L 100.3 441.9 C 100.3 441.9 100.32 443.96 100.3 444 C 101.2 442.7 102.8 441.5 104.5 441.5 C 107 441.5 108.2 442.8 108.2 445.5 C 108.18 445.46 108.2 456.4 108.2 456.4 L 106 456.4 Z M 112.3 453.5 C 112.26 453.47 112.3 443.8 112.3 443.8 L 110.3 443.8 L 110.3 441.9 L 112.3 441.9 L 112.3 437.9 L 114.4 437.9 L 114.4 441.9 L 116.9 441.9 L 116.9 443.8 L 114.4 443.8 C 114.4 443.8 114.42 453.08 114.4 453.1 C 114.4 454.2 114.7 454.8 115.6 454.8 C 116.1 454.8 116.6 454.6 116.8 454.2 C 116.8 454.2 117.5 455.9 117.5 455.9 C 117 456.4 116.3 456.7 115.2 456.7 C 113.2 456.7 112.3 455.6 112.3 453.5 Z M 127.3 456.4 C 127.3 456.4 127.29 446.03 127.3 446 C 127.3 444.1 126.4 443.4 124.9 443.4 C 123.5 443.4 122.2 444.6 121.6 445.8 C 121.56 445.76 121.6 456.4 121.6 456.4 L 119.4 456.4 L 119.4 436.4 L 121.6 436.4 C 121.6 436.4 121.56 443.96 121.6 444 C 122.4 442.7 124 441.5 125.8 441.5 C 128.2 441.5 129.4 442.8 129.4 445.4 C 129.42 445.4 129.4 456.4 129.4 456.4 L 127.3 456.4 Z M 132.7 438.3 C 132.7 437.5 133.3 436.8 134.1 436.8 C 134.9 436.8 135.6 437.5 135.6 438.3 C 135.6 439.1 134.9 439.8 134.1 439.8 C 133.3 439.8 132.7 439.1 132.7 438.3 Z M 133.1 456.4 L 133.1 441.9 L 135.2 441.9 L 135.2 456.4 L 133.1 456.4 Z M 138.1 449.1 C 138.1 445 140.2 441.5 144 441.5 C 147.9 441.5 149.9 445 149.9 449.1 C 149.9 453.2 147.9 456.7 144 456.7 C 140.2 456.7 138.1 453.2 138.1 449.1 Z M 147.7 449.1 C 147.7 446.2 146.6 443.4 144 443.4 C 141.5 443.4 140.4 446.2 140.4 449.1 C 140.4 452.1 141.5 454.8 144 454.8 C 146.6 454.8 147.7 452.1 147.7 449.1 Z M 152.9 456.4 L 152.9 436.4 L 155 436.4 L 155 456.4 L 152.9 456.4 Z M 172.3 456.4 C 172.3 456.4 172.26 454.82 172.3 454.8 C 171.3 456.1 169.9 456.7 168.4 456.7 C 166.1 456.7 164.1 454.9 164.1 451.9 C 164.1 448.9 166.1 447.1 168.4 447.1 C 169.9 447.1 171.4 447.7 172.3 449 C 172.3 449 172.3 446.5 172.3 446.5 C 172.3 444.5 171.2 443.4 169.3 443.4 C 167.9 443.4 166.8 443.9 165.7 445.2 C 165.7 445.2 164.7 443.6 164.7 443.6 C 166.1 442.2 167.8 441.5 169.6 441.5 C 172.5 441.5 174.4 442.9 174.4 446.2 C 174.42 446.24 174.4 456.4 174.4 456.4 L 172.3 456.4 Z M 172.3 453.3 C 172.3 453.3 172.3 450.6 172.3 450.6 C 171.6 449.4 170.4 448.7 169.1 448.7 C 167.3 448.7 166.3 450.1 166.3 451.9 C 166.3 453.7 167.3 455.2 169.1 455.2 C 170.4 455.2 171.6 454.5 172.3 453.3 Z M 177.3 449.1 C 177.3 444.8 179.6 441.5 183.3 441.5 C 185.3 441.5 186.6 442.3 187.5 443.4 C 187.5 443.4 186.3 444.9 186.3 444.9 C 185.5 443.9 184.6 443.4 183.5 443.4 C 180.9 443.4 179.6 446 179.6 449.1 C 179.6 452.2 180.9 454.8 183.5 454.8 C 184.6 454.8 185.5 454.4 186.3 453.3 C 186.3 453.3 187.5 454.8 187.5 454.8 C 186.6 456 185.3 456.7 183.3 456.7 C 179.6 456.7 177.3 453.4 177.3 449.1 Z M 189.2 449.1 C 189.2 444.9 191.4 441.5 195.1 441.5 C 198.9 441.5 200.8 444.9 200.8 449.2 C 200.82 449.18 200.8 449.8 200.8 449.8 C 200.8 449.8 191.43 449.84 191.4 449.8 C 191.5 452.7 193 454.9 195.6 454.9 C 196.9 454.9 198.1 454.3 199 453.2 C 199 453.2 200.2 454.4 200.2 454.4 C 199 455.9 197.4 456.7 195.4 456.7 C 191.5 456.7 189.2 453.6 189.2 449.1 Z M 195.1 443.3 C 192.5 443.3 191.5 446.1 191.4 448.2 C 191.4 448.2 198.7 448.2 198.7 448.2 C 198.7 446 197.7 443.3 195.1 443.3 Z M 204.1 453.5 C 204.08 453.47 204.1 443.8 204.1 443.8 L 202.2 443.8 L 202.2 441.9 L 204.1 441.9 L 204.1 437.9 L 206.2 437.9 L 206.2 441.9 L 208.7 441.9 L 208.7 443.8 L 206.2 443.8 C 206.2 443.8 206.24 453.08 206.2 453.1 C 206.2 454.2 206.6 454.8 207.4 454.8 C 208 454.8 208.4 454.6 208.7 454.2 C 208.7 454.2 209.3 455.9 209.3 455.9 C 208.8 456.4 208.1 456.7 207 456.7 C 205 456.7 204.1 455.6 204.1 453.5 Z M 218.7 456.4 C 218.7 456.4 218.69 454.82 218.7 454.8 C 217.8 456.1 216.4 456.7 214.9 456.7 C 212.5 456.7 210.5 454.9 210.5 451.9 C 210.5 448.9 212.5 447.1 214.9 447.1 C 216.4 447.1 217.8 447.7 218.7 449 C 218.7 449 218.7 446.5 218.7 446.5 C 218.7 444.5 217.6 443.4 215.7 443.4 C 214.4 443.4 213.2 443.9 212.1 445.2 C 212.1 445.2 211.1 443.6 211.1 443.6 C 212.5 442.2 214.2 441.5 216.1 441.5 C 218.9 441.5 220.9 442.9 220.9 446.2 C 220.85 446.24 220.9 456.4 220.9 456.4 L 218.7 456.4 Z M 218.7 453.3 C 218.7 453.3 218.7 450.6 218.7 450.6 C 218 449.4 216.8 448.7 215.6 448.7 C 213.8 448.7 212.7 450.1 212.7 451.9 C 212.7 453.7 213.8 455.2 215.6 455.2 C 216.8 455.2 218 454.5 218.7 453.3 Z M 224.9 453.5 C 224.9 453.47 224.9 443.8 224.9 443.8 L 223 443.8 L 223 441.9 L 224.9 441.9 L 224.9 437.9 L 227.1 437.9 L 227.1 441.9 L 229.5 441.9 L 229.5 443.8 L 227.1 443.8 C 227.1 443.8 227.06 453.08 227.1 453.1 C 227.1 454.2 227.4 454.8 228.2 454.8 C 228.8 454.8 229.2 454.6 229.5 454.2 C 229.5 454.2 230.2 455.9 230.2 455.9 C 229.6 456.4 228.9 456.7 227.8 456.7 C 225.8 456.7 224.9 455.6 224.9 453.5 Z M 231.4 449.1 C 231.4 444.9 233.6 441.5 237.2 441.5 C 241 441.5 243 444.9 243 449.2 C 242.96 449.18 243 449.8 243 449.8 C 243 449.8 233.57 449.84 233.6 449.8 C 233.7 452.7 235.2 454.9 237.7 454.9 C 239 454.9 240.3 454.3 241.2 453.2 C 241.2 453.2 242.3 454.4 242.3 454.4 C 241.2 455.9 239.5 456.7 237.6 456.7 C 233.7 456.7 231.4 453.6 231.4 449.1 Z M 237.2 443.3 C 234.7 443.3 233.6 446.1 233.6 448.2 C 233.6 448.2 240.8 448.2 240.8 448.2 C 240.8 446 239.8 443.3 237.2 443.3 Z " stroke="none" fill="#d3d2d2"/>  </g>  <g id="Polygon226162">    <path d="M 2.1 420.4 L 2.1 400.4 C 2.1 400.4 8.19 400.37 8.2 400.4 C 11.8 400.4 13.7 403.1 13.7 406.4 C 13.7 409.6 11.8 412.4 8.2 412.4 C 8.19 412.37 4.5 412.4 4.5 412.4 L 4.5 420.4 L 2.1 420.4 Z M 11.3 406.4 C 11.3 404.1 10 402.5 7.9 402.5 C 7.95 402.47 4.5 402.5 4.5 402.5 L 4.5 410.3 C 4.5 410.3 7.95 410.27 7.9 410.3 C 10 410.3 11.3 408.6 11.3 406.4 Z M 15.9 424.1 C 16.1 424.3 16.6 424.3 16.8 424.3 C 17.7 424.3 18.1 424 18.5 422.9 C 18.54 422.9 19.3 420.7 19.3 420.7 L 14.5 405.9 L 16.8 405.9 L 20.4 417.8 L 24.1 405.9 L 26.4 405.9 C 26.4 405.9 20.58 423.44 20.6 423.4 C 19.9 425.5 18.7 426.3 17 426.3 C 16.5 426.3 15.9 426.2 15.5 426 C 15.5 426 15.9 424.1 15.9 424.1 Z M 28.2 420.4 L 28.2 405.9 L 30.4 405.9 C 30.4 405.9 30.36 408.2 30.4 408.2 C 31.3 406.7 32.7 405.6 34.5 405.6 C 34.5 405.6 34.5 407.8 34.5 407.8 C 34.2 407.7 34 407.7 33.7 407.7 C 32.4 407.7 31 408.9 30.4 410.1 C 30.36 410.09 30.4 420.4 30.4 420.4 L 28.2 420.4 Z M 44.5 420.4 C 44.5 420.4 44.49 418.37 44.5 418.4 C 43.6 419.6 42.1 420.7 40.3 420.7 C 37.8 420.7 36.7 419.5 36.7 416.9 C 36.66 416.87 36.7 405.9 36.7 405.9 L 38.8 405.9 C 38.8 405.9 38.79 416.24 38.8 416.2 C 38.8 418.2 39.7 418.8 41.1 418.8 C 42.5 418.8 43.9 417.8 44.5 416.6 C 44.49 416.57 44.5 405.9 44.5 405.9 L 46.6 405.9 L 46.6 420.4 L 44.5 420.4 Z M 53.2 420.4 L 48.5 405.9 L 50.8 405.9 L 54.4 417.8 L 58.1 405.9 L 60.4 405.9 L 55.6 420.4 L 53.2 420.4 Z M 69.7 420.4 C 69.7 420.4 69.69 418.82 69.7 418.8 C 68.8 420.1 67.3 420.7 65.9 420.7 C 63.5 420.7 61.5 418.9 61.5 415.9 C 61.5 412.9 63.5 411.1 65.9 411.1 C 67.3 411.1 68.8 411.7 69.7 413 C 69.7 413 69.7 410.5 69.7 410.5 C 69.7 408.5 68.6 407.4 66.7 407.4 C 65.4 407.4 64.2 407.9 63.1 409.2 C 63.1 409.2 62.1 407.6 62.1 407.6 C 63.5 406.2 65.2 405.5 67 405.5 C 69.9 405.5 71.8 406.9 71.8 410.2 C 71.85 410.24 71.8 420.4 71.8 420.4 L 69.7 420.4 Z M 69.7 417.3 C 69.7 417.3 69.7 414.6 69.7 414.6 C 69 413.4 67.8 412.7 66.6 412.7 C 64.8 412.7 63.7 414.1 63.7 415.9 C 63.7 417.7 64.8 419.2 66.6 419.2 C 67.8 419.2 69 418.5 69.7 417.3 Z M 75.5 420.4 L 75.5 400.4 L 77.6 400.4 L 77.6 420.4 L 75.5 420.4 Z M 89.5 420.4 C 89.5 420.4 89.55 418.31 89.5 418.3 C 88.7 419.8 87.3 420.7 85.7 420.7 C 82.5 420.7 80.5 417.7 80.5 413.1 C 80.5 408.6 82.5 405.5 85.7 405.5 C 87.2 405.5 88.7 406.4 89.5 408 C 89.55 407.99 89.5 400.4 89.5 400.4 L 91.7 400.4 L 91.7 420.4 L 89.5 420.4 Z M 89.5 416.5 C 89.5 416.5 89.5 409.8 89.5 409.8 C 89 408.6 87.7 407.4 86.3 407.4 C 83.9 407.4 82.8 410 82.8 413.1 C 82.8 416.3 83.9 418.8 86.3 418.8 C 87.7 418.8 89 417.7 89.5 416.5 Z M 94.6 413.1 C 94.6 408.9 96.9 405.5 100.5 405.5 C 104.3 405.5 106.3 408.9 106.3 413.2 C 106.26 413.18 106.3 413.8 106.3 413.8 C 106.3 413.8 96.87 413.84 96.9 413.8 C 97 416.7 98.5 418.9 101 418.9 C 102.3 418.9 103.6 418.3 104.5 417.2 C 104.5 417.2 105.6 418.4 105.6 418.4 C 104.5 419.9 102.8 420.7 100.9 420.7 C 97 420.7 94.6 417.6 94.6 413.1 Z M 100.5 407.3 C 97.9 407.3 96.9 410.1 96.9 412.2 C 96.9 412.2 104.1 412.2 104.1 412.2 C 104.1 410 103.1 407.3 100.5 407.3 Z M 117 420.4 C 117 420.4 116.97 410.03 117 410 C 117 408.1 116.1 407.4 114.6 407.4 C 113.2 407.4 111.9 408.6 111.2 409.8 C 111.24 409.76 111.2 420.4 111.2 420.4 L 109.1 420.4 L 109.1 400.4 L 111.2 400.4 C 111.2 400.4 111.24 407.96 111.2 408 C 112.1 406.7 113.7 405.5 115.5 405.5 C 117.9 405.5 119.1 406.8 119.1 409.4 C 119.1 409.4 119.1 420.4 119.1 420.4 L 117 420.4 Z M 122.3 424.1 C 122.6 424.3 123.1 424.3 123.3 424.3 C 124.1 424.3 124.6 424 125 422.9 C 125.01 422.9 125.8 420.7 125.8 420.7 L 121 405.9 L 123.3 405.9 L 126.9 417.8 L 130.5 405.9 L 132.8 405.9 C 132.8 405.9 127.05 423.44 127 423.4 C 126.3 425.5 125.2 426.3 123.4 426.3 C 123 426.3 122.3 426.2 122 426 C 122 426 122.3 424.1 122.3 424.1 Z M 143 420.4 C 143 420.4 142.98 418.31 143 418.3 C 142.1 419.8 140.7 420.7 139.2 420.7 C 135.9 420.7 134 417.7 134 413.1 C 134 408.6 135.9 405.5 139.2 405.5 C 140.6 405.5 142.1 406.4 143 408 C 142.98 407.99 143 400.4 143 400.4 L 145.1 400.4 L 145.1 420.4 L 143 420.4 Z M 143 416.5 C 143 416.5 143 409.8 143 409.8 C 142.4 408.6 141.1 407.4 139.7 407.4 C 137.3 407.4 136.2 410 136.2 413.1 C 136.2 416.3 137.3 418.8 139.7 418.8 C 141.1 418.8 142.4 417.7 143 416.5 Z M 148.1 413.1 C 148.1 408.9 150.3 405.5 154 405.5 C 157.8 405.5 159.7 408.9 159.7 413.2 C 159.69 413.18 159.7 413.8 159.7 413.8 C 159.7 413.8 150.3 413.84 150.3 413.8 C 150.4 416.7 151.9 418.9 154.5 418.9 C 155.7 418.9 157 418.3 157.9 417.2 C 157.9 417.2 159.1 418.4 159.1 418.4 C 157.9 419.9 156.2 420.7 154.3 420.7 C 150.4 420.7 148.1 417.6 148.1 413.1 Z M 153.9 407.3 C 151.4 407.3 150.4 410.1 150.3 412.2 C 150.3 412.2 157.6 412.2 157.6 412.2 C 157.5 410 156.6 407.3 153.9 407.3 Z " stroke="none" fill="#d3d2d2"/>  </g>  <g id="Polygon226161">    <path d="M 16 384.4 L 16 368.7 L 10.7 384.4 L 9.8 384.4 L 4.5 368.7 L 4.5 384.4 L 2.1 384.4 L 2.1 364.4 L 5.4 364.4 L 10.3 378.6 L 15.1 364.4 L 18.4 364.4 L 18.4 384.4 L 16 384.4 Z M 21.4 377.1 C 21.4 372.9 23.7 369.5 27.3 369.5 C 31.1 369.5 33.1 372.9 33.1 377.2 C 33.06 377.18 33.1 377.8 33.1 377.8 C 33.1 377.8 23.67 377.84 23.7 377.8 C 23.8 380.7 25.3 382.9 27.8 382.9 C 29.1 382.9 30.4 382.3 31.3 381.2 C 31.3 381.2 32.4 382.4 32.4 382.4 C 31.3 383.9 29.6 384.7 27.7 384.7 C 23.8 384.7 21.4 381.6 21.4 377.1 Z M 27.3 371.3 C 24.7 371.3 23.7 374.1 23.7 376.2 C 23.7 376.2 30.9 376.2 30.9 376.2 C 30.9 374 29.9 371.3 27.3 371.3 Z M 36.3 381.5 C 36.33 381.47 36.3 371.8 36.3 371.8 L 34.4 371.8 L 34.4 369.9 L 36.3 369.9 L 36.3 365.9 L 38.5 365.9 L 38.5 369.9 L 40.9 369.9 L 40.9 371.8 L 38.5 371.8 C 38.5 371.8 38.49 381.08 38.5 381.1 C 38.5 382.2 38.8 382.8 39.7 382.8 C 40.2 382.8 40.6 382.6 40.9 382.2 C 40.9 382.2 41.6 383.9 41.6 383.9 C 41.1 384.4 40.3 384.7 39.2 384.7 C 37.3 384.7 36.3 383.6 36.3 381.5 Z M 51.4 384.4 C 51.4 384.4 51.36 374.03 51.4 374 C 51.4 372.1 50.5 371.4 49 371.4 C 47.6 371.4 46.3 372.6 45.6 373.8 C 45.63 373.76 45.6 384.4 45.6 384.4 L 43.5 384.4 L 43.5 364.4 L 45.6 364.4 C 45.6 364.4 45.63 371.96 45.6 372 C 46.5 370.7 48.1 369.5 49.9 369.5 C 52.3 369.5 53.5 370.8 53.5 373.4 C 53.49 373.4 53.5 384.4 53.5 384.4 L 51.4 384.4 Z M 56.7 388.1 C 57 388.3 57.4 388.3 57.7 388.3 C 58.5 388.3 59 388 59.4 386.9 C 59.4 386.9 60.2 384.7 60.2 384.7 L 55.3 369.9 L 57.7 369.9 L 61.3 381.8 L 64.9 369.9 L 67.2 369.9 C 67.2 369.9 61.44 387.44 61.4 387.4 C 60.7 389.5 59.5 390.3 57.8 390.3 C 57.4 390.3 56.7 390.2 56.4 390 C 56.4 390 56.7 388.1 56.7 388.1 Z M 69.1 384.4 L 69.1 364.4 L 71.2 364.4 L 71.2 384.4 L 69.1 384.4 Z M 77 382.3 C 77.01 382.28 77 389.9 77 389.9 L 74.9 389.9 L 74.9 369.9 L 77 369.9 C 77 369.9 77.01 371.96 77 372 C 77.8 370.5 79.3 369.5 80.8 369.5 C 84.1 369.5 86 372.6 86 377.1 C 86 381.6 84.1 384.7 80.8 384.7 C 79.3 384.7 77.9 383.9 77 382.3 Z M 83.8 377.1 C 83.8 374 82.6 371.4 80.3 371.4 C 78.9 371.4 77.6 372.5 77 373.8 C 77 373.8 77 380.4 77 380.4 C 77.6 381.7 78.9 382.8 80.3 382.8 C 82.6 382.8 83.8 380.3 83.8 377.1 Z M 88.9 384.4 L 88.9 369.9 L 91 369.9 C 91 369.9 91.05 372.2 91 372.2 C 92 370.7 93.4 369.6 95.2 369.6 C 95.2 369.6 95.2 371.8 95.2 371.8 C 94.9 371.7 94.7 371.7 94.4 371.7 C 93.1 371.7 91.6 372.9 91 374.1 C 91.05 374.09 91 384.4 91 384.4 L 88.9 384.4 Z M 96.6 377.1 C 96.6 373 98.7 369.5 102.5 369.5 C 106.4 369.5 108.4 373 108.4 377.1 C 108.4 381.2 106.4 384.7 102.5 384.7 C 98.7 384.7 96.6 381.2 96.6 377.1 Z M 106.2 377.1 C 106.2 374.2 105.1 371.4 102.5 371.4 C 100 371.4 98.9 374.2 98.9 377.1 C 98.9 380.1 100 382.8 102.5 382.8 C 105.1 382.8 106.2 380.1 106.2 377.1 Z M 113.5 382.3 C 113.49 382.28 113.5 389.9 113.5 389.9 L 111.4 389.9 L 111.4 369.9 L 113.5 369.9 C 113.5 369.9 113.49 371.96 113.5 372 C 114.3 370.5 115.8 369.5 117.3 369.5 C 120.6 369.5 122.5 372.6 122.5 377.1 C 122.5 381.6 120.6 384.7 117.3 384.7 C 115.8 384.7 114.4 383.9 113.5 382.3 Z M 120.2 377.1 C 120.2 374 119.1 371.4 116.8 371.4 C 115.4 371.4 114.1 372.5 113.5 373.8 C 113.5 373.8 113.5 380.4 113.5 380.4 C 114.1 381.7 115.4 382.8 116.8 382.8 C 119.1 382.8 120.2 380.3 120.2 377.1 Z M 125 388.1 C 125.2 388.3 125.7 388.3 125.9 388.3 C 126.8 388.3 127.3 388 127.6 386.9 C 127.65 386.9 128.4 384.7 128.4 384.7 L 123.6 369.9 L 125.9 369.9 L 129.5 381.8 L 133.2 369.9 L 135.5 369.9 C 135.5 369.9 129.69 387.44 129.7 387.4 C 129 389.5 127.8 390.3 126.1 390.3 C 125.6 390.3 125 390.2 124.6 390 C 124.6 390 125 388.1 125 388.1 Z M 137.3 384.4 L 137.3 364.4 L 139.5 364.4 L 139.5 384.4 L 137.3 384.4 Z M 148.6 377.1 C 148.6 373 150.6 369.5 154.4 369.5 C 158.3 369.5 160.3 373 160.3 377.1 C 160.3 381.2 158.3 384.7 154.4 384.7 C 150.6 384.7 148.6 381.2 148.6 377.1 Z M 158.1 377.1 C 158.1 374.2 157 371.4 154.4 371.4 C 151.9 371.4 150.8 374.2 150.8 377.1 C 150.8 380.1 151.9 382.8 154.4 382.8 C 157 382.8 158.1 380.1 158.1 377.1 Z M 170 384.4 L 166.6 378.6 L 163.3 384.4 L 160.9 384.4 L 165.3 377 L 161.2 369.9 L 163.6 369.9 L 166.6 375.4 L 169.7 369.9 L 172.1 369.9 L 168 377 L 172.4 384.4 L 170 384.4 Z M 181.9 384.4 C 181.9 384.4 181.86 382.82 181.9 382.8 C 180.9 384.1 179.5 384.7 178 384.7 C 175.7 384.7 173.7 382.9 173.7 379.9 C 173.7 376.9 175.7 375.1 178 375.1 C 179.5 375.1 181 375.7 181.9 377 C 181.9 377 181.9 374.5 181.9 374.5 C 181.9 372.5 180.8 371.4 178.9 371.4 C 177.5 371.4 176.4 371.9 175.3 373.2 C 175.3 373.2 174.3 371.6 174.3 371.6 C 175.7 370.2 177.4 369.5 179.2 369.5 C 182.1 369.5 184 370.9 184 374.2 C 184.02 374.24 184 384.4 184 384.4 L 181.9 384.4 Z M 181.9 381.3 C 181.9 381.3 181.9 378.6 181.9 378.6 C 181.2 377.4 180 376.7 178.7 376.7 C 176.9 376.7 175.9 378.1 175.9 379.9 C 175.9 381.7 176.9 383.2 178.7 383.2 C 180 383.2 181.2 382.5 181.9 381.3 Z M 188.1 381.5 C 188.07 381.47 188.1 371.8 188.1 371.8 L 186.1 371.8 L 186.1 369.9 L 188.1 369.9 L 188.1 365.9 L 190.2 365.9 L 190.2 369.9 L 192.7 369.9 L 192.7 371.8 L 190.2 371.8 C 190.2 371.8 190.23 381.08 190.2 381.1 C 190.2 382.2 190.6 382.8 191.4 382.8 C 191.9 382.8 192.4 382.6 192.7 382.2 C 192.7 382.2 193.3 383.9 193.3 383.9 C 192.8 384.4 192.1 384.7 191 384.7 C 189 384.7 188.1 383.6 188.1 381.5 Z M 203.1 384.4 C 203.1 384.4 203.1 374.03 203.1 374 C 203.1 372.1 202.2 371.4 200.8 371.4 C 199.3 371.4 198 372.6 197.4 373.8 C 197.37 373.76 197.4 384.4 197.4 384.4 L 195.2 384.4 L 195.2 364.4 L 197.4 364.4 C 197.4 364.4 197.37 371.96 197.4 372 C 198.2 370.7 199.9 369.5 201.6 369.5 C 204.1 369.5 205.2 370.8 205.2 373.4 C 205.23 373.4 205.2 384.4 205.2 384.4 L 203.1 384.4 Z M 208.5 366.3 C 208.5 365.5 209.2 364.8 209.9 364.8 C 210.7 364.8 211.4 365.5 211.4 366.3 C 211.4 367.1 210.7 367.8 209.9 367.8 C 209.2 367.8 208.5 367.1 208.5 366.3 Z M 208.9 384.4 L 208.9 369.9 L 211 369.9 L 211 384.4 L 208.9 384.4 Z M 222.1 384.4 C 222.1 384.4 222.11 382.82 222.1 382.8 C 221.2 384.1 219.8 384.7 218.3 384.7 C 216 384.7 213.9 382.9 213.9 379.9 C 213.9 376.9 215.9 375.1 218.3 375.1 C 219.8 375.1 221.2 375.7 222.1 377 C 222.1 377 222.1 374.5 222.1 374.5 C 222.1 372.5 221 371.4 219.1 371.4 C 217.8 371.4 216.6 371.9 215.5 373.2 C 215.5 373.2 214.6 371.6 214.6 371.6 C 215.9 370.2 217.6 369.5 219.5 369.5 C 222.4 369.5 224.3 370.9 224.3 374.2 C 224.27 374.24 224.3 384.4 224.3 384.4 L 222.1 384.4 Z M 222.1 381.3 C 222.1 381.3 222.1 378.6 222.1 378.6 C 221.5 377.4 220.3 376.7 219 376.7 C 217.2 376.7 216.1 378.1 216.1 379.9 C 216.1 381.7 217.2 383.2 219 383.2 C 220.3 383.2 221.5 382.5 222.1 381.3 Z M 235.7 384.4 C 235.7 384.4 235.73 374.06 235.7 374.1 C 235.7 372.1 234.9 371.4 233.4 371.4 C 232 371.4 230.7 372.6 230 373.8 C 230.03 373.76 230 384.4 230 384.4 L 227.9 384.4 L 227.9 369.9 L 230 369.9 C 230 369.9 230.03 371.96 230 372 C 230.9 370.7 232.5 369.5 234.2 369.5 C 236.7 369.5 237.9 370.8 237.9 373.5 C 237.89 373.46 237.9 384.4 237.9 384.4 L 235.7 384.4 Z M 240.8 377.1 C 240.8 372.9 243.1 369.5 246.7 369.5 C 250.5 369.5 252.4 372.9 252.4 377.2 C 252.44 377.18 252.4 377.8 252.4 377.8 C 252.4 377.8 243.05 377.84 243.1 377.8 C 243.1 380.7 244.6 382.9 247.2 382.9 C 248.5 382.9 249.8 382.3 250.7 381.2 C 250.7 381.2 251.8 382.4 251.8 382.4 C 250.6 383.9 249 384.7 247 384.7 C 243.2 384.7 240.8 381.6 240.8 377.1 Z M 246.7 371.3 C 244.1 371.3 243.1 374.1 243.1 376.2 C 243.1 376.2 250.3 376.2 250.3 376.2 C 250.3 374 249.3 371.3 246.7 371.3 Z " stroke="none" fill="#d3d2d2"/>  </g>  <g id="Polygon226160">    <path d="M 16 348.4 L 16 332.7 L 10.7 348.4 L 9.8 348.4 L 4.5 332.7 L 4.5 348.4 L 2.1 348.4 L 2.1 328.4 L 5.4 328.4 L 10.3 342.6 L 15.1 328.4 L 18.4 328.4 L 18.4 348.4 L 16 348.4 Z M 21.4 341.1 C 21.4 336.9 23.7 333.5 27.3 333.5 C 31.1 333.5 33.1 336.9 33.1 341.2 C 33.06 341.18 33.1 341.8 33.1 341.8 C 33.1 341.8 23.67 341.84 23.7 341.8 C 23.8 344.7 25.3 346.9 27.8 346.9 C 29.1 346.9 30.4 346.3 31.3 345.2 C 31.3 345.2 32.4 346.4 32.4 346.4 C 31.3 347.9 29.6 348.7 27.7 348.7 C 23.8 348.7 21.4 345.6 21.4 341.1 Z M 27.3 335.3 C 24.7 335.3 23.7 338.1 23.7 340.2 C 23.7 340.2 30.9 340.2 30.9 340.2 C 30.9 338 29.9 335.3 27.3 335.3 Z M 36.3 345.5 C 36.33 345.47 36.3 335.8 36.3 335.8 L 34.4 335.8 L 34.4 333.9 L 36.3 333.9 L 36.3 329.9 L 38.5 329.9 L 38.5 333.9 L 40.9 333.9 L 40.9 335.8 L 38.5 335.8 C 38.5 335.8 38.49 345.08 38.5 345.1 C 38.5 346.2 38.8 346.8 39.7 346.8 C 40.2 346.8 40.6 346.6 40.9 346.2 C 40.9 346.2 41.6 347.9 41.6 347.9 C 41.1 348.4 40.3 348.7 39.2 348.7 C 37.3 348.7 36.3 347.6 36.3 345.5 Z M 51.4 348.4 C 51.4 348.4 51.36 338.03 51.4 338 C 51.4 336.1 50.5 335.4 49 335.4 C 47.6 335.4 46.3 336.6 45.6 337.8 C 45.63 337.76 45.6 348.4 45.6 348.4 L 43.5 348.4 L 43.5 328.4 L 45.6 328.4 C 45.6 328.4 45.63 335.96 45.6 336 C 46.5 334.7 48.1 333.5 49.9 333.5 C 52.3 333.5 53.5 334.8 53.5 337.4 C 53.49 337.4 53.5 348.4 53.5 348.4 L 51.4 348.4 Z M 56.7 352.1 C 57 352.3 57.4 352.3 57.7 352.3 C 58.5 352.3 59 352 59.4 350.9 C 59.4 350.9 60.2 348.7 60.2 348.7 L 55.3 333.9 L 57.7 333.9 L 61.3 345.8 L 64.9 333.9 L 67.2 333.9 C 67.2 333.9 61.44 351.44 61.4 351.4 C 60.7 353.5 59.5 354.3 57.8 354.3 C 57.4 354.3 56.7 354.2 56.4 354 C 56.4 354 56.7 352.1 56.7 352.1 Z M 69.1 348.4 L 69.1 328.4 L 71.2 328.4 L 71.2 348.4 L 69.1 348.4 Z M 89.3 348.4 C 89.3 348.4 89.31 346.31 89.3 346.3 C 88.5 347.8 87 348.7 85.5 348.7 C 82.3 348.7 80.3 345.7 80.3 341.1 C 80.3 336.6 82.2 333.5 85.5 333.5 C 87 333.5 88.4 334.4 89.3 336 C 89.31 335.99 89.3 328.4 89.3 328.4 L 91.5 328.4 L 91.5 348.4 L 89.3 348.4 Z M 89.3 344.5 C 89.3 344.5 89.3 337.8 89.3 337.8 C 88.8 336.6 87.4 335.4 86 335.4 C 83.7 335.4 82.6 338 82.6 341.1 C 82.6 344.3 83.7 346.8 86 346.8 C 87.4 346.8 88.8 345.7 89.3 344.5 Z M 94.7 330.3 C 94.7 329.5 95.4 328.8 96.2 328.8 C 97 328.8 97.6 329.5 97.6 330.3 C 97.6 331.1 97 331.8 96.2 331.8 C 95.4 331.8 94.7 331.1 94.7 330.3 Z M 95.1 348.4 L 95.1 333.9 L 97.3 333.9 L 97.3 348.4 L 95.1 348.4 Z M 108.8 348.4 C 108.8 348.4 108.78 338.03 108.8 338 C 108.8 336.1 107.9 335.4 106.4 335.4 C 105 335.4 103.7 336.6 103 337.8 C 103.05 337.76 103 348.4 103 348.4 L 100.9 348.4 L 100.9 328.4 L 103 328.4 C 103 328.4 103.05 335.96 103 336 C 103.9 334.7 105.5 333.5 107.3 333.5 C 109.7 333.5 110.9 334.8 110.9 337.4 C 110.91 337.4 110.9 348.4 110.9 348.4 L 108.8 348.4 Z M 114.1 352.1 C 114.4 352.3 114.9 352.3 115.1 352.3 C 115.9 352.3 116.4 352 116.8 350.9 C 116.82 350.9 117.6 348.7 117.6 348.7 L 112.8 333.9 L 115.1 333.9 L 118.7 345.8 L 122.3 333.9 L 124.6 333.9 C 124.6 333.9 118.86 351.44 118.9 351.4 C 118.1 353.5 117 354.3 115.3 354.3 C 114.8 354.3 114.1 354.2 113.8 354 C 113.8 354 114.1 352.1 114.1 352.1 Z M 134.8 348.4 C 134.8 348.4 134.79 346.31 134.8 346.3 C 133.9 347.8 132.5 348.7 131 348.7 C 127.7 348.7 125.8 345.7 125.8 341.1 C 125.8 336.6 127.7 333.5 131 333.5 C 132.4 333.5 133.9 334.4 134.8 336 C 134.79 335.99 134.8 328.4 134.8 328.4 L 136.9 328.4 L 136.9 348.4 L 134.8 348.4 Z M 134.8 344.5 C 134.8 344.5 134.8 337.8 134.8 337.8 C 134.2 336.6 132.9 335.4 131.5 335.4 C 129.1 335.4 128 338 128 341.1 C 128 344.3 129.1 346.8 131.5 346.8 C 132.9 346.8 134.2 345.7 134.8 344.5 Z M 140.6 348.4 L 140.6 333.9 L 142.7 333.9 C 142.7 333.9 142.74 336.2 142.7 336.2 C 143.7 334.7 145.1 333.6 146.8 333.6 C 146.8 333.6 146.8 335.8 146.8 335.8 C 146.6 335.7 146.4 335.7 146.1 335.7 C 144.8 335.7 143.3 336.9 142.7 338.1 C 142.74 338.09 142.7 348.4 142.7 348.4 L 140.6 348.4 Z M 148.3 341.1 C 148.3 337 150.4 333.5 154.2 333.5 C 158.1 333.5 160.1 337 160.1 341.1 C 160.1 345.2 158.1 348.7 154.2 348.7 C 150.4 348.7 148.3 345.2 148.3 341.1 Z M 157.9 341.1 C 157.9 338.2 156.7 335.4 154.2 335.4 C 151.7 335.4 150.6 338.2 150.6 341.1 C 150.6 344.1 151.7 346.8 154.2 346.8 C 156.7 346.8 157.9 344.1 157.9 341.1 Z M 163.6 348.4 L 163.6 335.8 L 161.6 335.8 L 161.6 333.9 L 163.6 333.9 C 163.6 333.9 163.56 332.12 163.6 332.1 C 163.6 329.6 164.9 328.1 167.2 328.1 C 168.1 328.1 169 328.3 169.8 329 C 169.8 329 168.9 330.6 168.9 330.6 C 168.5 330.1 168.1 329.9 167.5 329.9 C 166.3 329.9 165.7 330.7 165.7 332.1 C 165.72 332.12 165.7 333.9 165.7 333.9 L 168.2 333.9 L 168.2 335.8 L 165.7 335.8 L 165.7 348.4 L 163.6 348.4 Z M 178.2 348.4 C 178.2 348.4 178.2 346.37 178.2 346.4 C 177.3 347.6 175.8 348.7 174 348.7 C 171.5 348.7 170.4 347.5 170.4 344.9 C 170.37 344.87 170.4 333.9 170.4 333.9 L 172.5 333.9 C 172.5 333.9 172.5 344.24 172.5 344.2 C 172.5 346.2 173.4 346.8 174.8 346.8 C 176.2 346.8 177.6 345.8 178.2 344.6 C 178.2 344.57 178.2 333.9 178.2 333.9 L 180.4 333.9 L 180.4 348.4 L 178.2 348.4 Z M 184 348.4 L 184 333.9 L 186.1 333.9 C 186.1 333.9 186.15 336.2 186.1 336.2 C 187.1 334.7 188.5 333.6 190.3 333.6 C 190.3 333.6 190.3 335.8 190.3 335.8 C 190 335.7 189.8 335.7 189.5 335.7 C 188.2 335.7 186.7 336.9 186.1 338.1 C 186.15 338.09 186.1 348.4 186.1 348.4 L 184 348.4 Z M 199.9 348.4 C 199.9 348.4 199.89 346.82 199.9 346.8 C 199 348.1 197.5 348.7 196.1 348.7 C 193.7 348.7 191.7 346.9 191.7 343.9 C 191.7 340.9 193.7 339.1 196.1 339.1 C 197.5 339.1 199 339.7 199.9 341 C 199.9 341 199.9 338.5 199.9 338.5 C 199.9 336.5 198.8 335.4 196.9 335.4 C 195.6 335.4 194.4 335.9 193.3 337.2 C 193.3 337.2 192.3 335.6 192.3 335.6 C 193.7 334.2 195.4 333.5 197.2 333.5 C 200.1 333.5 202 334.9 202 338.2 C 202.05 338.24 202 348.4 202 348.4 L 199.9 348.4 Z M 199.9 345.3 C 199.9 345.3 199.9 342.6 199.9 342.6 C 199.2 341.4 198 340.7 196.8 340.7 C 195 340.7 193.9 342.1 193.9 343.9 C 193.9 345.7 195 347.2 196.8 347.2 C 198 347.2 199.2 346.5 199.9 345.3 Z M 213.5 348.4 C 213.5 348.4 213.51 338.06 213.5 338.1 C 213.5 336.1 212.6 335.4 211.2 335.4 C 209.8 335.4 208.5 336.6 207.8 337.8 C 207.81 337.76 207.8 348.4 207.8 348.4 L 205.7 348.4 L 205.7 333.9 L 207.8 333.9 C 207.8 333.9 207.81 335.96 207.8 336 C 208.6 334.7 210.3 333.5 212 333.5 C 214.5 333.5 215.7 334.8 215.7 337.5 C 215.67 337.46 215.7 348.4 215.7 348.4 L 213.5 348.4 Z M 219.7 345.5 C 219.75 345.47 219.7 335.8 219.7 335.8 L 217.8 335.8 L 217.8 333.9 L 219.7 333.9 L 219.7 329.9 L 221.9 329.9 L 221.9 333.9 L 224.4 333.9 L 224.4 335.8 L 221.9 335.8 C 221.9 335.8 221.91 345.08 221.9 345.1 C 221.9 346.2 222.2 346.8 223.1 346.8 C 223.6 346.8 224.1 346.6 224.3 346.2 C 224.3 346.2 225 347.9 225 347.9 C 224.5 348.4 223.8 348.7 222.7 348.7 C 220.7 348.7 219.7 347.6 219.7 345.5 Z M 234.8 348.4 C 234.8 348.4 234.77 338.03 234.8 338 C 234.8 336.1 233.9 335.4 232.4 335.4 C 231 335.4 229.7 336.6 229 337.8 C 229.04 337.76 229 348.4 229 348.4 L 226.9 348.4 L 226.9 328.4 L 229 328.4 C 229 328.4 229.04 335.96 229 336 C 229.9 334.7 231.5 333.5 233.3 333.5 C 235.7 333.5 236.9 334.8 236.9 337.4 C 236.9 337.4 236.9 348.4 236.9 348.4 L 234.8 348.4 Z M 240.1 330.3 C 240.1 329.5 240.8 328.8 241.6 328.8 C 242.4 328.8 243.1 329.5 243.1 330.3 C 243.1 331.1 242.4 331.8 241.6 331.8 C 240.8 331.8 240.1 331.1 240.1 330.3 Z M 240.6 348.4 L 240.6 333.9 L 242.7 333.9 L 242.7 348.4 L 240.6 348.4 Z M 245.6 341.1 C 245.6 337 247.7 333.5 251.5 333.5 C 255.4 333.5 257.4 337 257.4 341.1 C 257.4 345.2 255.4 348.7 251.5 348.7 C 247.7 348.7 245.6 345.2 245.6 341.1 Z M 255.2 341.1 C 255.2 338.2 254.1 335.4 251.5 335.4 C 249 335.4 247.9 338.2 247.9 341.1 C 247.9 344.1 249 346.8 251.5 346.8 C 254.1 346.8 255.2 344.1 255.2 341.1 Z M 260.4 348.4 L 260.4 328.4 L 262.5 328.4 L 262.5 348.4 L 260.4 348.4 Z " stroke="none" fill="#d3d2d2"/>  </g>  <g id="Polygon226159">    <path d="M 16 312.4 L 16 296.7 L 10.7 312.4 L 9.8 312.4 L 4.5 296.7 L 4.5 312.4 L 2.1 312.4 L 2.1 292.4 L 5.4 292.4 L 10.3 306.6 L 15.1 292.4 L 18.4 292.4 L 18.4 312.4 L 16 312.4 Z M 29.6 312.4 C 29.6 312.4 29.61 310.82 29.6 310.8 C 28.7 312.1 27.3 312.7 25.8 312.7 C 23.5 312.7 21.4 310.9 21.4 307.9 C 21.4 304.9 23.4 303.1 25.8 303.1 C 27.3 303.1 28.7 303.7 29.6 305 C 29.6 305 29.6 302.5 29.6 302.5 C 29.6 300.5 28.5 299.4 26.6 299.4 C 25.3 299.4 24.1 299.9 23 301.2 C 23 301.2 22 299.6 22 299.6 C 23.4 298.2 25.1 297.5 27 297.5 C 29.8 297.5 31.8 298.9 31.8 302.2 C 31.77 302.24 31.8 312.4 31.8 312.4 L 29.6 312.4 Z M 29.6 309.3 C 29.6 309.3 29.6 306.6 29.6 306.6 C 28.9 305.4 27.7 304.7 26.5 304.7 C 24.7 304.7 23.6 306.1 23.6 307.9 C 23.6 309.7 24.7 311.2 26.5 311.2 C 27.7 311.2 28.9 310.5 29.6 309.3 Z M 35.3 316.4 C 35.3 316.4 36.3 314.7 36.3 314.7 C 37.2 315.9 38.5 316.4 40 316.4 C 42 316.4 43.7 315.3 43.7 312.5 C 43.7 312.5 43.7 310.1 43.7 310.1 C 42.8 311.5 41.4 312.6 39.9 312.6 C 36.6 312.6 34.7 309.6 34.7 305.1 C 34.7 300.6 36.6 297.5 39.9 297.5 C 41.3 297.5 42.8 298.4 43.7 300 C 43.68 299.99 43.7 297.9 43.7 297.9 L 45.8 297.9 C 45.8 297.9 45.84 312.35 45.8 312.3 C 45.8 316.8 43.1 318.3 40.1 318.3 C 38.2 318.3 36.7 317.8 35.3 316.4 Z M 43.7 308.2 C 43.7 308.2 43.7 301.8 43.7 301.8 C 43.1 300.6 41.8 299.4 40.4 299.4 C 38 299.4 36.9 301.9 36.9 305.1 C 36.9 308.2 38 310.6 40.4 310.6 C 41.8 310.6 43.1 309.5 43.7 308.2 Z M 57.3 312.4 C 57.3 312.4 57.3 302.06 57.3 302.1 C 57.3 300.1 56.4 299.4 55 299.4 C 53.6 299.4 52.3 300.6 51.6 301.8 C 51.6 301.76 51.6 312.4 51.6 312.4 L 49.5 312.4 L 49.5 297.9 L 51.6 297.9 C 51.6 297.9 51.6 299.96 51.6 300 C 52.4 298.7 54.1 297.5 55.8 297.5 C 58.3 297.5 59.5 298.8 59.5 301.5 C 59.46 301.46 59.5 312.4 59.5 312.4 L 57.3 312.4 Z M 62.4 305.1 C 62.4 301 64.4 297.5 68.3 297.5 C 72.2 297.5 74.2 301 74.2 305.1 C 74.2 309.2 72.2 312.7 68.3 312.7 C 64.4 312.7 62.4 309.2 62.4 305.1 Z M 71.9 305.1 C 71.9 302.2 70.8 299.4 68.3 299.4 C 65.8 299.4 64.6 302.2 64.6 305.1 C 64.6 308.1 65.8 310.8 68.3 310.8 C 70.8 310.8 71.9 308.1 71.9 305.1 Z M 77.1 312.4 L 77.1 292.4 L 79.3 292.4 L 79.3 312.4 L 77.1 312.4 Z M 82.2 305.1 C 82.2 301 84.2 297.5 88.1 297.5 C 92 297.5 94 301 94 305.1 C 94 309.2 92 312.7 88.1 312.7 C 84.2 312.7 82.2 309.2 82.2 305.1 Z M 91.7 305.1 C 91.7 302.2 90.6 299.4 88.1 299.4 C 85.6 299.4 84.4 302.2 84.4 305.1 C 84.4 308.1 85.6 310.8 88.1 310.8 C 90.6 310.8 91.7 308.1 91.7 305.1 Z M 96.9 312.4 L 96.9 292.4 L 99.1 292.4 L 99.1 312.4 L 96.9 312.4 Z " stroke="none" fill="#d3d2d2"/>  </g>  <g id="Polygon226158">    <path d="M 2.1 276.4 L 2.1 256.4 L 4.5 256.4 L 4.5 274.2 L 11.7 274.2 L 11.7 276.4 L 2.1 276.4 Z M 13.9 258.3 C 13.9 257.5 14.6 256.8 15.4 256.8 C 16.2 256.8 16.8 257.5 16.8 258.3 C 16.8 259.1 16.2 259.8 15.4 259.8 C 14.6 259.8 13.9 259.1 13.9 258.3 Z M 14.3 276.4 L 14.3 261.9 L 16.4 261.9 L 16.4 276.4 L 14.3 276.4 Z M 27.9 276.4 C 27.9 276.4 27.93 266.06 27.9 266.1 C 27.9 264.1 27.1 263.4 25.6 263.4 C 24.2 263.4 22.9 264.6 22.2 265.8 C 22.23 265.76 22.2 276.4 22.2 276.4 L 20.1 276.4 L 20.1 261.9 L 22.2 261.9 C 22.2 261.9 22.23 263.96 22.2 264 C 23.1 262.7 24.7 261.5 26.4 261.5 C 28.9 261.5 30.1 262.8 30.1 265.5 C 30.09 265.46 30.1 276.4 30.1 276.4 L 27.9 276.4 Z M 33 269.1 C 33 265 35.1 261.5 38.9 261.5 C 42.8 261.5 44.8 265 44.8 269.1 C 44.8 273.2 42.8 276.7 38.9 276.7 C 35.1 276.7 33 273.2 33 269.1 Z M 42.6 269.1 C 42.6 266.2 41.5 263.4 38.9 263.4 C 36.4 263.4 35.3 266.2 35.3 269.1 C 35.3 272.1 36.4 274.8 38.9 274.8 C 41.5 274.8 42.6 272.1 42.6 269.1 Z M 47.8 276.4 L 47.8 256.4 L 49.9 256.4 L 49.9 276.4 L 47.8 276.4 Z M 52.8 269.1 C 52.8 264.9 55 261.5 58.7 261.5 C 62.5 261.5 64.4 264.9 64.4 269.2 C 64.44 269.18 64.4 269.8 64.4 269.8 C 64.4 269.8 55.05 269.84 55 269.8 C 55.1 272.7 56.6 274.9 59.2 274.9 C 60.5 274.9 61.8 274.3 62.7 273.2 C 62.7 273.2 63.8 274.4 63.8 274.4 C 62.6 275.9 61 276.7 59 276.7 C 55.2 276.7 52.8 273.6 52.8 269.1 Z M 58.7 263.3 C 56.1 263.3 55.1 266.1 55 268.2 C 55 268.2 62.3 268.2 62.3 268.2 C 62.3 266 61.3 263.3 58.7 263.3 Z M 66.9 258.3 C 66.9 257.5 67.6 256.8 68.3 256.8 C 69.1 256.8 69.8 257.5 69.8 258.3 C 69.8 259.1 69.1 259.8 68.3 259.8 C 67.6 259.8 66.9 259.1 66.9 258.3 Z M 67.3 276.4 L 67.3 261.9 L 69.4 261.9 L 69.4 276.4 L 67.3 276.4 Z M 72.4 269.1 C 72.4 264.8 74.6 261.5 78.4 261.5 C 80.4 261.5 81.6 262.3 82.5 263.4 C 82.5 263.4 81.3 264.9 81.3 264.9 C 80.5 263.9 79.6 263.4 78.5 263.4 C 76 263.4 74.6 266 74.6 269.1 C 74.6 272.2 76 274.8 78.5 274.8 C 79.6 274.8 80.5 274.4 81.3 273.3 C 81.3 273.3 82.5 274.8 82.5 274.8 C 81.6 276 80.4 276.7 78.4 276.7 C 74.6 276.7 72.4 273.4 72.4 269.1 Z M 93.2 274.3 C 93.24 274.28 93.2 281.9 93.2 281.9 L 91.1 281.9 L 91.1 261.9 L 93.2 261.9 C 93.2 261.9 93.24 263.96 93.2 264 C 94.1 262.5 95.5 261.5 97 261.5 C 100.3 261.5 102.2 264.6 102.2 269.1 C 102.2 273.6 100.3 276.7 97 276.7 C 95.6 276.7 94.1 275.9 93.2 274.3 Z M 100 269.1 C 100 266 98.9 263.4 96.5 263.4 C 95.2 263.4 93.8 264.5 93.2 265.8 C 93.2 265.8 93.2 272.4 93.2 272.4 C 93.8 273.7 95.2 274.8 96.5 274.8 C 98.9 274.8 100 272.3 100 269.1 Z M 105.1 276.4 L 105.1 261.9 L 107.3 261.9 C 107.3 261.9 107.28 264.2 107.3 264.2 C 108.2 262.7 109.6 261.6 111.4 261.6 C 111.4 261.6 111.4 263.8 111.4 263.8 C 111.1 263.7 110.9 263.7 110.7 263.7 C 109.3 263.7 107.9 264.9 107.3 266.1 C 107.28 266.09 107.3 276.4 107.3 276.4 L 105.1 276.4 Z M 112.9 269.1 C 112.9 265 114.9 261.5 118.7 261.5 C 122.6 261.5 124.6 265 124.6 269.1 C 124.6 273.2 122.6 276.7 118.7 276.7 C 114.9 276.7 112.9 273.2 112.9 269.1 Z M 122.4 269.1 C 122.4 266.2 121.3 263.4 118.7 263.4 C 116.2 263.4 115.1 266.2 115.1 269.1 C 115.1 272.1 116.2 274.8 118.7 274.8 C 121.3 274.8 122.4 272.1 122.4 269.1 Z M 129.7 274.3 C 129.72 274.28 129.7 281.9 129.7 281.9 L 127.6 281.9 L 127.6 261.9 L 129.7 261.9 C 129.7 261.9 129.72 263.96 129.7 264 C 130.6 262.5 132 261.5 133.5 261.5 C 136.8 261.5 138.7 264.6 138.7 269.1 C 138.7 273.6 136.8 276.7 133.5 276.7 C 132.1 276.7 130.6 275.9 129.7 274.3 Z M 136.5 269.1 C 136.5 266 135.4 263.4 133 263.4 C 131.6 263.4 130.3 264.5 129.7 265.8 C 129.7 265.8 129.7 272.4 129.7 272.4 C 130.3 273.7 131.6 274.8 133 274.8 C 135.4 274.8 136.5 272.3 136.5 269.1 Z M 149.1 276.4 C 149.1 276.4 149.07 274.82 149.1 274.8 C 148.1 276.1 146.7 276.7 145.3 276.7 C 142.9 276.7 140.9 274.9 140.9 271.9 C 140.9 268.9 142.9 267.1 145.3 267.1 C 146.7 267.1 148.2 267.7 149.1 269 C 149.1 269 149.1 266.5 149.1 266.5 C 149.1 264.5 148 263.4 146.1 263.4 C 144.7 263.4 143.6 263.9 142.5 265.2 C 142.5 265.2 141.5 263.6 141.5 263.6 C 142.9 262.2 144.6 261.5 146.4 261.5 C 149.3 261.5 151.2 262.9 151.2 266.2 C 151.23 266.24 151.2 276.4 151.2 276.4 L 149.1 276.4 Z M 149.1 273.3 C 149.1 273.3 149.1 270.6 149.1 270.6 C 148.4 269.4 147.2 268.7 145.9 268.7 C 144.1 268.7 143.1 270.1 143.1 271.9 C 143.1 273.7 144.1 275.2 145.9 275.2 C 147.2 275.2 148.4 274.5 149.1 273.3 Z M 162.7 276.4 C 162.7 276.4 162.69 266.06 162.7 266.1 C 162.7 264.1 161.8 263.4 160.4 263.4 C 159 263.4 157.6 264.6 157 265.8 C 156.99 265.76 157 276.4 157 276.4 L 154.9 276.4 L 154.9 261.9 L 157 261.9 C 157 261.9 156.99 263.96 157 264 C 157.8 262.7 159.4 261.5 161.2 261.5 C 163.6 261.5 164.8 262.8 164.8 265.5 C 164.85 265.46 164.8 276.4 164.8 276.4 L 162.7 276.4 Z M 167.8 269.1 C 167.8 265 169.8 261.5 173.7 261.5 C 177.6 261.5 179.6 265 179.6 269.1 C 179.6 273.2 177.6 276.7 173.7 276.7 C 169.8 276.7 167.8 273.2 167.8 269.1 Z M 177.3 269.1 C 177.3 266.2 176.2 263.4 173.7 263.4 C 171.2 263.4 170 266.2 170 269.1 C 170 272.1 171.2 274.8 173.7 274.8 C 176.2 274.8 177.3 272.1 177.3 269.1 Z M 190 276.4 C 190 276.4 189.96 274.82 190 274.8 C 189 276.1 187.6 276.7 186.1 276.7 C 183.8 276.7 181.8 274.9 181.8 271.9 C 181.8 268.9 183.8 267.1 186.1 267.1 C 187.6 267.1 189.1 267.7 190 269 C 190 269 190 266.5 190 266.5 C 190 264.5 188.9 263.4 187 263.4 C 185.6 263.4 184.5 263.9 183.4 265.2 C 183.4 265.2 182.4 263.6 182.4 263.6 C 183.8 262.2 185.5 261.5 187.3 261.5 C 190.2 261.5 192.1 262.9 192.1 266.2 C 192.12 266.24 192.1 276.4 192.1 276.4 L 190 276.4 Z M 190 273.3 C 190 273.3 190 270.6 190 270.6 C 189.3 269.4 188.1 268.7 186.8 268.7 C 185 268.7 184 270.1 184 271.9 C 184 273.7 185 275.2 186.8 275.2 C 188.1 275.2 189.3 274.5 190 273.3 Z M 196.2 273.5 C 196.17 273.47 196.2 263.8 196.2 263.8 L 194.2 263.8 L 194.2 261.9 L 196.2 261.9 L 196.2 257.9 L 198.3 257.9 L 198.3 261.9 L 200.8 261.9 L 200.8 263.8 L 198.3 263.8 C 198.3 263.8 198.33 273.08 198.3 273.1 C 198.3 274.2 198.7 274.8 199.5 274.8 C 200 274.8 200.5 274.6 200.8 274.2 C 200.8 274.2 201.4 275.9 201.4 275.9 C 200.9 276.4 200.2 276.7 199.1 276.7 C 197.1 276.7 196.2 275.6 196.2 273.5 Z M 202.6 269.1 C 202.6 264.9 204.8 261.5 208.5 261.5 C 212.3 261.5 214.2 264.9 214.2 269.2 C 214.22 269.18 214.2 269.8 214.2 269.8 C 214.2 269.8 204.83 269.84 204.8 269.8 C 204.9 272.7 206.4 274.9 209 274.9 C 210.3 274.9 211.6 274.3 212.5 273.2 C 212.5 273.2 213.6 274.4 213.6 274.4 C 212.4 275.9 210.8 276.7 208.8 276.7 C 205 276.7 202.6 273.6 202.6 269.1 Z M 208.5 263.3 C 205.9 263.3 204.9 266.1 204.8 268.2 C 204.8 268.2 212.1 268.2 212.1 268.2 C 212.1 266 211.1 263.3 208.5 263.3 Z " stroke="none" fill="#d3d2d2"/>  </g>  <g id="Polygon226157">    <path d="M 12.7 240.4 L 12.7 231.1 L 4.5 231.1 L 4.5 240.4 L 2.1 240.4 L 2.1 220.4 L 4.5 220.4 L 4.5 229 L 12.7 229 L 12.7 220.4 L 15.1 220.4 L 15.1 240.4 L 12.7 240.4 Z M 18.2 233.1 C 18.2 228.9 20.4 225.5 24.1 225.5 C 27.9 225.5 29.8 228.9 29.8 233.2 C 29.79 233.18 29.8 233.8 29.8 233.8 C 29.8 233.8 20.4 233.84 20.4 233.8 C 20.5 236.7 22 238.9 24.6 238.9 C 25.8 238.9 27.1 238.3 28 237.2 C 28 237.2 29.2 238.4 29.2 238.4 C 28 239.9 26.3 240.7 24.4 240.7 C 20.5 240.7 18.2 237.6 18.2 233.1 Z M 24 227.3 C 21.5 227.3 20.5 230.1 20.4 232.2 C 20.4 232.2 27.7 232.2 27.7 232.2 C 27.6 230 26.7 227.3 24 227.3 Z M 33.1 237.5 C 33.06 237.47 33.1 227.8 33.1 227.8 L 31.1 227.8 L 31.1 225.9 L 33.1 225.9 L 33.1 221.9 L 35.2 221.9 L 35.2 225.9 L 37.7 225.9 L 37.7 227.8 L 35.2 227.8 C 35.2 227.8 35.22 237.08 35.2 237.1 C 35.2 238.2 35.5 238.8 36.4 238.8 C 36.9 238.8 37.4 238.6 37.6 238.2 C 37.6 238.2 38.3 239.9 38.3 239.9 C 37.8 240.4 37.1 240.7 36 240.7 C 34 240.7 33.1 239.6 33.1 237.5 Z M 39.5 233.1 C 39.5 228.9 41.7 225.5 45.4 225.5 C 49.2 225.5 51.1 228.9 51.1 233.2 C 51.12 233.18 51.1 233.8 51.1 233.8 C 51.1 233.8 41.73 233.84 41.7 233.8 C 41.8 236.7 43.3 238.9 45.9 238.9 C 47.2 238.9 48.4 238.3 49.3 237.2 C 49.3 237.2 50.5 238.4 50.5 238.4 C 49.3 239.9 47.7 240.7 45.7 240.7 C 41.8 240.7 39.5 237.6 39.5 233.1 Z M 45.4 227.3 C 42.8 227.3 41.8 230.1 41.7 232.2 C 41.7 232.2 49 232.2 49 232.2 C 49 230 48 227.3 45.4 227.3 Z M 54 240.4 L 54 225.9 L 56.1 225.9 C 56.1 225.9 56.1 228.2 56.1 228.2 C 57 226.7 58.4 225.6 60.2 225.6 C 60.2 225.6 60.2 227.8 60.2 227.8 C 60 227.7 59.7 227.7 59.5 227.7 C 58.2 227.7 56.7 228.9 56.1 230.1 C 56.1 230.09 56.1 240.4 56.1 240.4 L 54 240.4 Z M 61.7 233.1 C 61.7 229 63.7 225.5 67.6 225.5 C 71.5 225.5 73.5 229 73.5 233.1 C 73.5 237.2 71.5 240.7 67.6 240.7 C 63.7 240.7 61.7 237.2 61.7 233.1 Z M 71.2 233.1 C 71.2 230.2 70.1 227.4 67.6 227.4 C 65.1 227.4 63.9 230.2 63.9 233.1 C 63.9 236.1 65.1 238.8 67.6 238.8 C 70.1 238.8 71.2 236.1 71.2 233.1 Z M 75.7 233.1 C 75.7 228.8 78 225.5 81.7 225.5 C 83.7 225.5 84.9 226.3 85.8 227.4 C 85.8 227.4 84.7 228.9 84.7 228.9 C 83.9 227.9 83 227.4 81.9 227.4 C 79.3 227.4 77.9 230 77.9 233.1 C 77.9 236.2 79.3 238.8 81.9 238.8 C 83 238.8 83.9 238.4 84.7 237.3 C 84.7 237.3 85.8 238.8 85.8 238.8 C 84.9 240 83.7 240.7 81.7 240.7 C 78 240.7 75.7 237.4 75.7 233.1 Z M 87.9 244.1 C 88.1 244.3 88.6 244.3 88.8 244.3 C 89.7 244.3 90.1 244 90.5 242.9 C 90.54 242.9 91.3 240.7 91.3 240.7 L 86.5 225.9 L 88.8 225.9 L 92.4 237.8 L 96.1 225.9 L 98.4 225.9 C 98.4 225.9 92.58 243.44 92.6 243.4 C 91.9 245.5 90.7 246.3 89 246.3 C 88.5 246.3 87.9 246.2 87.5 246 C 87.5 246 87.9 244.1 87.9 244.1 Z M 100.2 240.4 L 100.2 220.4 L 102.4 220.4 L 102.4 240.4 L 100.2 240.4 Z M 105.6 222.3 C 105.6 221.5 106.3 220.8 107.1 220.8 C 107.9 220.8 108.5 221.5 108.5 222.3 C 108.5 223.1 107.9 223.8 107.1 223.8 C 106.3 223.8 105.6 223.1 105.6 222.3 Z M 106 240.4 L 106 225.9 L 108.1 225.9 L 108.1 240.4 L 106 240.4 Z M 111.1 233.1 C 111.1 228.8 113.4 225.5 117.1 225.5 C 119.1 225.5 120.3 226.3 121.2 227.4 C 121.2 227.4 120.1 228.9 120.1 228.9 C 119.3 227.9 118.4 227.4 117.3 227.4 C 114.7 227.4 113.3 230 113.3 233.1 C 113.3 236.2 114.7 238.8 117.3 238.8 C 118.4 238.8 119.3 238.4 120.1 237.3 C 120.1 237.3 121.2 238.8 121.2 238.8 C 120.3 240 119.1 240.7 117.1 240.7 C 113.4 240.7 111.1 237.4 111.1 233.1 Z M 129.7 244.4 C 129.7 244.4 130.7 242.7 130.7 242.7 C 131.7 243.9 132.9 244.4 134.5 244.4 C 136.5 244.4 138.1 243.3 138.1 240.5 C 138.1 240.5 138.1 238.1 138.1 238.1 C 137.3 239.5 135.8 240.6 134.3 240.6 C 131.1 240.6 129.1 237.6 129.1 233.1 C 129.1 228.6 131 225.5 134.3 225.5 C 135.8 225.5 137.2 226.4 138.1 228 C 138.12 227.99 138.1 225.9 138.1 225.9 L 140.3 225.9 C 140.3 225.9 140.28 240.35 140.3 240.3 C 140.3 244.8 137.6 246.3 134.5 246.3 C 132.6 246.3 131.1 245.8 129.7 244.4 Z M 138.1 236.2 C 138.1 236.2 138.1 229.8 138.1 229.8 C 137.6 228.6 136.2 227.4 134.8 227.4 C 132.5 227.4 131.4 229.9 131.4 233.1 C 131.4 236.2 132.5 238.6 134.8 238.6 C 136.2 238.6 137.6 237.5 138.1 236.2 Z M 143.9 240.4 L 143.9 220.4 L 146 220.4 L 146 240.4 L 143.9 240.4 Z M 149.3 244.1 C 149.5 244.3 150 244.3 150.2 244.3 C 151.1 244.3 151.6 244 151.9 242.9 C 151.95 242.9 152.7 240.7 152.7 240.7 L 147.9 225.9 L 150.2 225.9 L 153.8 237.8 L 157.5 225.9 L 159.8 225.9 C 159.8 225.9 153.99 243.44 154 243.4 C 153.3 245.5 152.1 246.3 150.4 246.3 C 149.9 246.3 149.3 246.2 148.9 246 C 148.9 246 149.3 244.1 149.3 244.1 Z M 160.9 233.1 C 160.9 228.8 163.2 225.5 166.9 225.5 C 168.9 225.5 170.2 226.3 171.1 227.4 C 171.1 227.4 169.9 228.9 169.9 228.9 C 169.1 227.9 168.2 227.4 167.1 227.4 C 164.5 227.4 163.2 230 163.2 233.1 C 163.2 236.2 164.5 238.8 167.1 238.8 C 168.2 238.8 169.1 238.4 169.9 237.3 C 169.9 237.3 171.1 238.8 171.1 238.8 C 170.2 240 168.9 240.7 166.9 240.7 C 163.2 240.7 160.9 237.4 160.9 233.1 Z M 172.8 233.1 C 172.8 229 174.8 225.5 178.7 225.5 C 182.6 225.5 184.6 229 184.6 233.1 C 184.6 237.2 182.6 240.7 178.7 240.7 C 174.8 240.7 172.8 237.2 172.8 233.1 Z M 182.3 233.1 C 182.3 230.2 181.2 227.4 178.7 227.4 C 176.2 227.4 175 230.2 175 233.1 C 175 236.1 176.2 238.8 178.7 238.8 C 181.2 238.8 182.3 236.1 182.3 233.1 Z M 186.4 238.7 C 186.4 238.7 187.4 237.2 187.4 237.2 C 188.3 238.2 189.7 239 191.2 239 C 192.9 239 194 238 194 236.7 C 194 233.3 186.8 234.4 186.8 229.4 C 186.8 227.3 188.5 225.5 191.4 225.5 C 193.3 225.5 194.8 226.3 195.8 227.4 C 195.8 227.4 194.8 228.9 194.8 228.9 C 194.1 227.9 192.8 227.3 191.4 227.3 C 189.8 227.3 188.8 228.2 188.8 229.4 C 188.8 232.5 196.1 231.4 196.1 236.6 C 196.1 239 194.2 240.7 191.2 240.7 C 189.2 240.7 187.6 240.1 186.4 238.7 Z M 198.4 244.1 C 198.7 244.3 199.1 244.3 199.4 244.3 C 200.2 244.3 200.7 244 201.1 242.9 C 201.08 242.9 201.9 240.7 201.9 240.7 L 197 225.9 L 199.4 225.9 L 203 237.8 L 206.6 225.9 L 208.9 225.9 C 208.9 225.9 203.12 243.44 203.1 243.4 C 202.4 245.5 201.2 246.3 199.5 246.3 C 199.1 246.3 198.4 246.2 198.1 246 C 198.1 246 198.4 244.1 198.4 244.1 Z M 210.8 240.4 L 210.8 220.4 L 212.9 220.4 L 212.9 240.4 L 210.8 240.4 Z M 224 240.4 C 224 240.4 224 238.82 224 238.8 C 223.1 240.1 221.7 240.7 220.2 240.7 C 217.9 240.7 215.8 238.9 215.8 235.9 C 215.8 232.9 217.8 231.1 220.2 231.1 C 221.7 231.1 223.1 231.7 224 233 C 224 233 224 230.5 224 230.5 C 224 228.5 222.9 227.4 221 227.4 C 219.7 227.4 218.5 227.9 217.4 229.2 C 217.4 229.2 216.4 227.6 216.4 227.6 C 217.8 226.2 219.5 225.5 221.4 225.5 C 224.2 225.5 226.2 226.9 226.2 230.2 C 226.16 230.24 226.2 240.4 226.2 240.4 L 224 240.4 Z M 224 237.3 C 224 237.3 224 234.6 224 234.6 C 223.3 233.4 222.1 232.7 220.9 232.7 C 219.1 232.7 218 234.1 218 235.9 C 218 237.7 219.1 239.2 220.9 239.2 C 222.1 239.2 223.3 238.5 224 237.3 Z M 244.4 240.4 C 244.4 240.4 244.43 229.88 244.4 229.9 C 244.4 228.3 243.8 227.4 242.4 227.4 C 241.1 227.4 239.8 228.6 239.3 229.8 C 239.27 229.76 239.3 240.4 239.3 240.4 L 237.1 240.4 C 237.1 240.4 237.11 229.88 237.1 229.9 C 237.1 228.3 236.5 227.4 235.1 227.4 C 233.8 227.4 232.6 228.6 231.9 229.8 C 231.92 229.76 231.9 240.4 231.9 240.4 L 229.8 240.4 L 229.8 225.9 L 231.9 225.9 C 231.9 225.9 231.92 227.96 231.9 228 C 232.5 226.9 234.1 225.5 235.9 225.5 C 237.7 225.5 238.9 226.6 239.2 228.1 C 239.9 226.8 241.5 225.5 243.2 225.5 C 245.4 225.5 246.6 226.7 246.6 229.3 C 246.59 229.31 246.6 240.4 246.6 240.4 L 244.4 240.4 Z M 249.8 222.3 C 249.8 221.5 250.5 220.8 251.3 220.8 C 252.1 220.8 252.8 221.5 252.8 222.3 C 252.8 223.1 252.1 223.8 251.3 223.8 C 250.5 223.8 249.8 223.1 249.8 222.3 Z M 250.3 240.4 L 250.3 225.9 L 252.4 225.9 L 252.4 240.4 L 250.3 240.4 Z M 263.9 240.4 C 263.9 240.4 263.87 230.06 263.9 230.1 C 263.9 228.1 263 227.4 261.6 227.4 C 260.2 227.4 258.8 228.6 258.2 229.8 C 258.17 229.76 258.2 240.4 258.2 240.4 L 256 240.4 L 256 225.9 L 258.2 225.9 C 258.2 225.9 258.17 227.96 258.2 228 C 259 226.7 260.6 225.5 262.4 225.5 C 264.8 225.5 266 226.8 266 229.5 C 266.03 229.46 266 240.4 266 240.4 L 263.9 240.4 Z M 269 233.1 C 269 228.9 271.2 225.5 274.9 225.5 C 278.7 225.5 280.6 228.9 280.6 233.2 C 280.58 233.18 280.6 233.8 280.6 233.8 C 280.6 233.8 271.19 233.84 271.2 233.8 C 271.3 236.7 272.8 238.9 275.4 238.9 C 276.6 238.9 277.9 238.3 278.8 237.2 C 278.8 237.2 280 238.4 280 238.4 C 278.8 239.9 277.1 240.7 275.2 240.7 C 271.3 240.7 269 237.6 269 233.1 Z M 274.8 227.3 C 272.3 227.3 271.3 230.1 271.2 232.2 C 271.2 232.2 278.5 232.2 278.5 232.2 C 278.4 230 277.5 227.3 274.8 227.3 Z " stroke="none" fill="#d3d2d2"/>  </g>  <g id="Polygon226156">    <path d="M 2.1 204.4 L 2.1 184.4 L 12.4 184.4 L 12.4 186.5 L 4.5 186.5 L 4.5 193.1 L 12.2 193.1 L 12.2 195.2 L 4.5 195.2 L 4.5 202.2 L 12.4 202.2 L 12.4 204.4 L 2.1 204.4 Z M 14.3 202.7 C 14.3 202.7 15.4 201.2 15.4 201.2 C 16.3 202.2 17.6 203 19.2 203 C 20.9 203 22 202 22 200.7 C 22 197.3 14.8 198.4 14.8 193.4 C 14.8 191.3 16.5 189.5 19.4 189.5 C 21.3 189.5 22.8 190.3 23.8 191.4 C 23.8 191.4 22.8 192.9 22.8 192.9 C 22 191.9 20.8 191.3 19.4 191.3 C 17.8 191.3 16.8 192.2 16.8 193.4 C 16.8 196.5 24.1 195.4 24.1 200.6 C 24.1 203 22.2 204.7 19.2 204.7 C 17.2 204.7 15.5 204.1 14.3 202.7 Z M 27.2 201.5 C 27.24 201.47 27.2 191.8 27.2 191.8 L 25.3 191.8 L 25.3 189.9 L 27.2 189.9 L 27.2 185.9 L 29.4 185.9 L 29.4 189.9 L 31.9 189.9 L 31.9 191.8 L 29.4 191.8 C 29.4 191.8 29.4 201.08 29.4 201.1 C 29.4 202.2 29.7 202.8 30.6 202.8 C 31.1 202.8 31.6 202.6 31.8 202.2 C 31.8 202.2 32.5 203.9 32.5 203.9 C 32 204.4 31.3 204.7 30.1 204.7 C 28.2 204.7 27.2 203.6 27.2 201.5 Z M 34.4 204.4 L 34.4 189.9 L 36.5 189.9 C 36.5 189.9 36.54 192.2 36.5 192.2 C 37.5 190.7 38.9 189.6 40.6 189.6 C 40.6 189.6 40.6 191.8 40.6 191.8 C 40.4 191.7 40.2 191.7 39.9 191.7 C 38.6 191.7 37.1 192.9 36.5 194.1 C 36.54 194.09 36.5 204.4 36.5 204.4 L 34.4 204.4 Z M 50.3 204.4 C 50.3 204.4 50.28 202.82 50.3 202.8 C 49.3 204.1 47.9 204.7 46.5 204.7 C 44.1 204.7 42.1 202.9 42.1 199.9 C 42.1 196.9 44.1 195.1 46.5 195.1 C 47.9 195.1 49.4 195.7 50.3 197 C 50.3 197 50.3 194.5 50.3 194.5 C 50.3 192.5 49.2 191.4 47.3 191.4 C 46 191.4 44.8 191.9 43.7 193.2 C 43.7 193.2 42.7 191.6 42.7 191.6 C 44.1 190.2 45.8 189.5 47.6 189.5 C 50.5 189.5 52.4 190.9 52.4 194.2 C 52.44 194.24 52.4 204.4 52.4 204.4 L 50.3 204.4 Z M 50.3 201.3 C 50.3 201.3 50.3 198.6 50.3 198.6 C 49.6 197.4 48.4 196.7 47.2 196.7 C 45.4 196.7 44.3 198.1 44.3 199.9 C 44.3 201.7 45.4 203.2 47.2 203.2 C 48.4 203.2 49.6 202.5 50.3 201.3 Z M 55.9 208.4 C 55.9 208.4 56.9 206.7 56.9 206.7 C 57.9 207.9 59.1 208.4 60.7 208.4 C 62.7 208.4 64.3 207.3 64.3 204.5 C 64.3 204.5 64.3 202.1 64.3 202.1 C 63.5 203.5 62.1 204.6 60.5 204.6 C 57.3 204.6 55.3 201.6 55.3 197.1 C 55.3 192.6 57.3 189.5 60.5 189.5 C 62 189.5 63.4 190.4 64.3 192 C 64.35 191.99 64.3 189.9 64.3 189.9 L 66.5 189.9 C 66.5 189.9 66.51 204.35 66.5 204.3 C 66.5 208.8 63.8 210.3 60.8 210.3 C 58.8 210.3 57.3 209.8 55.9 208.4 Z M 64.3 200.2 C 64.3 200.2 64.3 193.8 64.3 193.8 C 63.8 192.6 62.5 191.4 61.1 191.4 C 58.7 191.4 57.6 193.9 57.6 197.1 C 57.6 200.2 58.7 202.6 61.1 202.6 C 62.5 202.6 63.8 201.5 64.3 200.2 Z M 69.4 197.1 C 69.4 193 71.5 189.5 75.3 189.5 C 79.2 189.5 81.2 193 81.2 197.1 C 81.2 201.2 79.2 204.7 75.3 204.7 C 71.5 204.7 69.4 201.2 69.4 197.1 Z M 79 197.1 C 79 194.2 77.8 191.4 75.3 191.4 C 72.8 191.4 71.7 194.2 71.7 197.1 C 71.7 200.1 72.8 202.8 75.3 202.8 C 77.8 202.8 79 200.1 79 197.1 Z M 84.1 204.4 L 84.1 184.4 L 86.3 184.4 L 86.3 204.4 L 84.1 204.4 Z M 89.5 186.3 C 89.5 185.5 90.2 184.8 91 184.8 C 91.8 184.8 92.5 185.5 92.5 186.3 C 92.5 187.1 91.8 187.8 91 187.8 C 90.2 187.8 89.5 187.1 89.5 186.3 Z M 89.9 204.4 L 89.9 189.9 L 92.1 189.9 L 92.1 204.4 L 89.9 204.4 Z M 95 197.1 C 95 192.8 97.3 189.5 101 189.5 C 103 189.5 104.2 190.3 105.1 191.4 C 105.1 191.4 104 192.9 104 192.9 C 103.2 191.9 102.3 191.4 101.2 191.4 C 98.6 191.4 97.3 194 97.3 197.1 C 97.3 200.2 98.6 202.8 101.2 202.8 C 102.3 202.8 103.2 202.4 104 201.3 C 104 201.3 105.1 202.8 105.1 202.8 C 104.2 204 103 204.7 101 204.7 C 97.3 204.7 95 201.4 95 197.1 Z M 121.2 204.4 C 121.2 204.4 121.2 202.82 121.2 202.8 C 120.3 204.1 118.9 204.7 117.4 204.7 C 115 204.7 113 202.9 113 199.9 C 113 196.9 115 195.1 117.4 195.1 C 118.9 195.1 120.3 195.7 121.2 197 C 121.2 197 121.2 194.5 121.2 194.5 C 121.2 192.5 120.1 191.4 118.2 191.4 C 116.9 191.4 115.7 191.9 114.6 193.2 C 114.6 193.2 113.6 191.6 113.6 191.6 C 115 190.2 116.7 189.5 118.6 189.5 C 121.4 189.5 123.4 190.9 123.4 194.2 C 123.36 194.24 123.4 204.4 123.4 204.4 L 121.2 204.4 Z M 121.2 201.3 C 121.2 201.3 121.2 198.6 121.2 198.6 C 120.5 197.4 119.3 196.7 118.1 196.7 C 116.3 196.7 115.2 198.1 115.2 199.9 C 115.2 201.7 116.3 203.2 118.1 203.2 C 119.3 203.2 120.5 202.5 121.2 201.3 Z M 126.3 197.1 C 126.3 192.8 128.5 189.5 132.3 189.5 C 134.3 189.5 135.5 190.3 136.4 191.4 C 136.4 191.4 135.2 192.9 135.2 192.9 C 134.5 191.9 133.6 191.4 132.4 191.4 C 129.9 191.4 128.5 194 128.5 197.1 C 128.5 200.2 129.9 202.8 132.4 202.8 C 133.6 202.8 134.5 202.4 135.2 201.3 C 135.2 201.3 136.4 202.8 136.4 202.8 C 135.5 204 134.3 204.7 132.3 204.7 C 128.5 204.7 126.3 201.4 126.3 197.1 Z M 138.4 186.3 C 138.4 185.5 139.1 184.8 139.9 184.8 C 140.7 184.8 141.4 185.5 141.4 186.3 C 141.4 187.1 140.7 187.8 139.9 187.8 C 139.1 187.8 138.4 187.1 138.4 186.3 Z M 138.9 204.4 L 138.9 189.9 L 141 189.9 L 141 204.4 L 138.9 204.4 Z M 152.9 204.4 C 152.9 204.4 152.94 202.31 152.9 202.3 C 152.1 203.8 150.7 204.7 149.1 204.7 C 145.9 204.7 143.9 201.7 143.9 197.1 C 143.9 192.6 145.9 189.5 149.1 189.5 C 150.6 189.5 152.1 190.4 152.9 192 C 152.94 191.99 152.9 184.4 152.9 184.4 L 155.1 184.4 L 155.1 204.4 L 152.9 204.4 Z M 152.9 200.5 C 152.9 200.5 152.9 193.8 152.9 193.8 C 152.4 192.6 151 191.4 149.7 191.4 C 147.3 191.4 146.2 194 146.2 197.1 C 146.2 200.3 147.3 202.8 149.7 202.8 C 151 202.8 152.4 201.7 152.9 200.5 Z " stroke="none" fill="#d3d2d2"/>  </g>  <g id="Polygon226155">    <path d="M 2.1 168.4 L 2.1 148.4 C 2.1 148.4 7.44 148.37 7.4 148.4 C 12.6 148.4 15.5 152.7 15.5 158.4 C 15.5 164.1 12.6 168.4 7.4 168.4 C 7.44 168.38 2.1 168.4 2.1 168.4 Z M 13 158.4 C 13 153.9 11.2 150.5 7.4 150.5 C 7.44 150.47 4.5 150.5 4.5 150.5 L 4.5 166.2 C 4.5 166.2 7.44 166.25 7.4 166.2 C 11.1 166.2 13 162.9 13 158.4 Z M 18.2 150.3 C 18.2 149.5 18.9 148.8 19.6 148.8 C 20.5 148.8 21.1 149.5 21.1 150.3 C 21.1 151.1 20.5 151.8 19.6 151.8 C 18.9 151.8 18.2 151.1 18.2 150.3 Z M 18.6 168.4 L 18.6 153.9 L 20.7 153.9 L 20.7 168.4 L 18.6 168.4 Z M 31.8 168.4 C 31.8 168.4 31.83 166.82 31.8 166.8 C 30.9 168.1 29.5 168.7 28 168.7 C 25.7 168.7 23.6 166.9 23.6 163.9 C 23.6 160.9 25.6 159.1 28 159.1 C 29.5 159.1 30.9 159.7 31.8 161 C 31.8 161 31.8 158.5 31.8 158.5 C 31.8 156.5 30.7 155.4 28.9 155.4 C 27.5 155.4 26.3 155.9 25.2 157.2 C 25.2 157.2 24.3 155.6 24.3 155.6 C 25.6 154.2 27.4 153.5 29.2 153.5 C 32.1 153.5 34 154.9 34 158.2 C 33.99 158.24 34 168.4 34 168.4 L 31.8 168.4 Z M 31.8 165.3 C 31.8 165.3 31.8 162.6 31.8 162.6 C 31.2 161.4 30 160.7 28.7 160.7 C 26.9 160.7 25.8 162.1 25.8 163.9 C 25.8 165.7 26.9 167.2 28.7 167.2 C 30 167.2 31.2 166.5 31.8 165.3 Z M 36.9 161.1 C 36.9 156.8 39.2 153.5 42.9 153.5 C 44.9 153.5 46.1 154.3 47 155.4 C 47 155.4 45.9 156.9 45.9 156.9 C 45.1 155.9 44.2 155.4 43.1 155.4 C 40.5 155.4 39.1 158 39.1 161.1 C 39.1 164.2 40.5 166.8 43.1 166.8 C 44.2 166.8 45.1 166.4 45.9 165.3 C 45.9 165.3 47 166.8 47 166.8 C 46.1 168 44.9 168.7 42.9 168.7 C 39.2 168.7 36.9 165.4 36.9 161.1 Z M 48.8 161.1 C 48.8 156.9 51 153.5 54.7 153.5 C 58.5 153.5 60.4 156.9 60.4 161.2 C 60.39 161.18 60.4 161.8 60.4 161.8 C 60.4 161.8 51 161.84 51 161.8 C 51.1 164.7 52.6 166.9 55.2 166.9 C 56.4 166.9 57.7 166.3 58.6 165.2 C 58.6 165.2 59.8 166.4 59.8 166.4 C 58.6 167.9 56.9 168.7 55 168.7 C 51.1 168.7 48.8 165.6 48.8 161.1 Z M 54.6 155.3 C 52.1 155.3 51.1 158.1 51 160.2 C 51 160.2 58.3 160.2 58.3 160.2 C 58.2 158 57.3 155.3 54.6 155.3 Z M 63.7 165.5 C 63.66 165.47 63.7 155.8 63.7 155.8 L 61.7 155.8 L 61.7 153.9 L 63.7 153.9 L 63.7 149.9 L 65.8 149.9 L 65.8 153.9 L 68.3 153.9 L 68.3 155.8 L 65.8 155.8 C 65.8 155.8 65.82 165.08 65.8 165.1 C 65.8 166.2 66.1 166.8 67 166.8 C 67.5 166.8 68 166.6 68.2 166.2 C 68.2 166.2 68.9 167.9 68.9 167.9 C 68.4 168.4 67.7 168.7 66.6 168.7 C 64.6 168.7 63.7 167.6 63.7 165.5 Z M 70.4 172.1 C 70.7 172.3 71.1 172.3 71.4 172.3 C 72.2 172.3 72.7 172 73.1 170.9 C 73.08 170.9 73.9 168.7 73.9 168.7 L 69 153.9 L 71.4 153.9 L 75 165.8 L 78.6 153.9 L 80.9 153.9 C 80.9 153.9 75.12 171.44 75.1 171.4 C 74.4 173.5 73.2 174.3 71.5 174.3 C 71.1 174.3 70.4 174.2 70.1 174 C 70.1 174 70.4 172.1 70.4 172.1 Z M 82.8 168.4 L 82.8 148.4 L 84.9 148.4 L 84.9 168.4 L 82.8 168.4 Z M 102.9 168.4 L 98.9 161.8 L 96.8 164.4 L 96.8 168.4 L 94.7 168.4 L 94.7 148.4 L 96.8 148.4 L 96.8 161.7 L 102.9 153.9 L 105.4 153.9 L 100.3 160.4 L 105.4 168.4 L 102.9 168.4 Z M 106.7 161.1 C 106.7 156.9 108.9 153.5 112.6 153.5 C 116.4 153.5 118.3 156.9 118.3 161.2 C 118.32 161.18 118.3 161.8 118.3 161.8 C 118.3 161.8 108.93 161.84 108.9 161.8 C 109 164.7 110.5 166.9 113.1 166.9 C 114.4 166.9 115.6 166.3 116.5 165.2 C 116.5 165.2 117.7 166.4 117.7 166.4 C 116.5 167.9 114.9 168.7 112.9 168.7 C 109 168.7 106.7 165.6 106.7 161.1 Z M 112.6 155.3 C 110 155.3 109 158.1 108.9 160.2 C 108.9 160.2 116.2 160.2 116.2 160.2 C 116.2 158 115.2 155.3 112.6 155.3 Z M 121.6 165.5 C 121.59 165.47 121.6 155.8 121.6 155.8 L 119.7 155.8 L 119.7 153.9 L 121.6 153.9 L 121.6 149.9 L 123.7 149.9 L 123.7 153.9 L 126.2 153.9 L 126.2 155.8 L 123.7 155.8 C 123.7 155.8 123.75 165.08 123.7 165.1 C 123.7 166.2 124.1 166.8 124.9 166.8 C 125.5 166.8 125.9 166.6 126.2 166.2 C 126.2 166.2 126.8 167.9 126.8 167.9 C 126.3 168.4 125.6 168.7 124.5 168.7 C 122.5 168.7 121.6 167.6 121.6 165.5 Z M 128 161.1 C 128 157 130.1 153.5 133.9 153.5 C 137.8 153.5 139.8 157 139.8 161.1 C 139.8 165.2 137.8 168.7 133.9 168.7 C 130.1 168.7 128 165.2 128 161.1 Z M 137.6 161.1 C 137.6 158.2 136.5 155.4 133.9 155.4 C 131.4 155.4 130.3 158.2 130.3 161.1 C 130.3 164.1 131.4 166.8 133.9 166.8 C 136.5 166.8 137.6 164.1 137.6 161.1 Z M 141.6 166.7 C 141.6 166.7 142.7 165.2 142.7 165.2 C 143.5 166.2 144.9 167 146.5 167 C 148.1 167 149.2 166 149.2 164.7 C 149.2 161.3 142 162.4 142 157.4 C 142 155.3 143.8 153.5 146.6 153.5 C 148.6 153.5 150 154.3 151 155.4 C 151 155.4 150 156.9 150 156.9 C 149.3 155.9 148.1 155.3 146.7 155.3 C 145.1 155.3 144.1 156.2 144.1 157.4 C 144.1 160.5 151.3 159.4 151.3 164.6 C 151.3 167 149.5 168.7 146.5 168.7 C 144.4 168.7 142.8 168.1 141.6 166.7 Z M 161.5 168.4 C 161.5 168.4 161.52 166.82 161.5 166.8 C 160.6 168.1 159.2 168.7 157.7 168.7 C 155.4 168.7 153.3 166.9 153.3 163.9 C 153.3 160.9 155.3 159.1 157.7 159.1 C 159.2 159.1 160.6 159.7 161.5 161 C 161.5 161 161.5 158.5 161.5 158.5 C 161.5 156.5 160.4 155.4 158.5 155.4 C 157.2 155.4 156 155.9 154.9 157.2 C 154.9 157.2 154 155.6 154 155.6 C 155.3 154.2 157 153.5 158.9 153.5 C 161.8 153.5 163.7 154.9 163.7 158.2 C 163.68 158.24 163.7 168.4 163.7 168.4 L 161.5 168.4 Z M 161.5 165.3 C 161.5 165.3 161.5 162.6 161.5 162.6 C 160.9 161.4 159.7 160.7 158.4 160.7 C 156.6 160.7 155.5 162.1 155.5 163.9 C 155.5 165.7 156.6 167.2 158.4 167.2 C 159.7 167.2 160.9 166.5 161.5 165.3 Z M 181.9 168.4 C 181.9 168.4 181.95 157.88 181.9 157.9 C 181.9 156.3 181.3 155.4 179.9 155.4 C 178.6 155.4 177.4 156.6 176.8 157.8 C 176.79 157.76 176.8 168.4 176.8 168.4 L 174.6 168.4 C 174.6 168.4 174.63 157.88 174.6 157.9 C 174.6 156.3 174 155.4 172.6 155.4 C 171.3 155.4 170.1 156.6 169.4 157.8 C 169.44 157.76 169.4 168.4 169.4 168.4 L 167.3 168.4 L 167.3 153.9 L 169.4 153.9 C 169.4 153.9 169.44 155.96 169.4 156 C 170 154.9 171.7 153.5 173.4 153.5 C 175.3 153.5 176.4 154.6 176.7 156.1 C 177.4 154.8 179 153.5 180.7 153.5 C 182.9 153.5 184.1 154.7 184.1 157.3 C 184.11 157.31 184.1 168.4 184.1 168.4 L 181.9 168.4 Z M 187.3 150.3 C 187.3 149.5 188 148.8 188.8 148.8 C 189.6 148.8 190.3 149.5 190.3 150.3 C 190.3 151.1 189.6 151.8 188.8 151.8 C 188 151.8 187.3 151.1 187.3 150.3 Z M 187.8 168.4 L 187.8 153.9 L 189.9 153.9 L 189.9 168.4 L 187.8 168.4 Z M 201.4 168.4 C 201.4 168.4 201.38 158.06 201.4 158.1 C 201.4 156.1 200.5 155.4 199.1 155.4 C 197.7 155.4 196.3 156.6 195.7 157.8 C 195.68 157.76 195.7 168.4 195.7 168.4 L 193.6 168.4 L 193.6 153.9 L 195.7 153.9 C 195.7 153.9 195.68 155.96 195.7 156 C 196.5 154.7 198.1 153.5 199.9 153.5 C 202.3 153.5 203.5 154.8 203.5 157.5 C 203.54 157.46 203.5 168.4 203.5 168.4 L 201.4 168.4 Z M 206.5 161.1 C 206.5 156.9 208.7 153.5 212.4 153.5 C 216.2 153.5 218.1 156.9 218.1 161.2 C 218.09 161.18 218.1 161.8 218.1 161.8 C 218.1 161.8 208.7 161.84 208.7 161.8 C 208.8 164.7 210.3 166.9 212.9 166.9 C 214.1 166.9 215.4 166.3 216.3 165.2 C 216.3 165.2 217.5 166.4 217.5 166.4 C 216.3 167.9 214.6 168.7 212.7 168.7 C 208.8 168.7 206.5 165.6 206.5 161.1 Z M 212.3 155.3 C 209.8 155.3 208.8 158.1 208.7 160.2 C 208.7 160.2 216 160.2 216 160.2 C 215.9 158 215 155.3 212.3 155.3 Z " stroke="none" fill="#d3d2d2"/>  </g>  <g id="Polygon226154">    <path d="M 1.4 122.4 C 1.4 116.4 4.4 112 9.2 112 C 12.2 112 13.9 113.9 15 115.9 C 15 115.9 13 116.9 13 116.9 C 12.2 115.2 10.9 114.2 9.2 114.2 C 5.9 114.2 3.9 117.6 3.9 122.4 C 3.9 127.1 5.9 130.6 9.2 130.6 C 11 130.6 12.3 129.3 13.1 127.6 C 13.1 127.6 15.1 128.6 15.1 128.6 C 14 130.8 12.3 132.7 9.2 132.7 C 4.4 132.7 1.4 128.4 1.4 122.4 Z M 25.5 132.4 C 25.5 132.4 25.53 122.03 25.5 122 C 25.5 120.1 24.6 119.4 23.2 119.4 C 21.8 119.4 20.5 120.6 19.8 121.8 C 19.8 121.76 19.8 132.4 19.8 132.4 L 17.7 132.4 L 17.7 112.4 L 19.8 112.4 C 19.8 112.4 19.8 119.96 19.8 120 C 20.6 118.7 22.3 117.5 24 117.5 C 26.5 117.5 27.7 118.8 27.7 121.4 C 27.66 121.4 27.7 132.4 27.7 132.4 L 25.5 132.4 Z M 38.8 132.4 C 38.8 132.4 38.76 130.82 38.8 130.8 C 37.8 132.1 36.4 132.7 34.9 132.7 C 32.6 132.7 30.6 130.9 30.6 127.9 C 30.6 124.9 32.6 123.1 34.9 123.1 C 36.4 123.1 37.9 123.7 38.8 125 C 38.8 125 38.8 122.5 38.8 122.5 C 38.8 120.5 37.7 119.4 35.8 119.4 C 34.4 119.4 33.3 119.9 32.2 121.2 C 32.2 121.2 31.2 119.6 31.2 119.6 C 32.6 118.2 34.3 117.5 36.1 117.5 C 39 117.5 40.9 118.9 40.9 122.2 C 40.92 122.24 40.9 132.4 40.9 132.4 L 38.8 132.4 Z M 38.8 129.3 C 38.8 129.3 38.8 126.6 38.8 126.6 C 38.1 125.4 36.9 124.7 35.6 124.7 C 33.8 124.7 32.8 126.1 32.8 127.9 C 32.8 129.7 33.8 131.2 35.6 131.2 C 36.9 131.2 38.1 130.5 38.8 129.3 Z M 43.8 125.1 C 43.8 120.8 46.1 117.5 49.8 117.5 C 51.8 117.5 53.1 118.3 54 119.4 C 54 119.4 52.8 120.9 52.8 120.9 C 52 119.9 51.1 119.4 50 119.4 C 47.4 119.4 46.1 122 46.1 125.1 C 46.1 128.2 47.4 130.8 50 130.8 C 51.1 130.8 52 130.4 52.8 129.3 C 52.8 129.3 54 130.8 54 130.8 C 53.1 132 51.8 132.7 49.8 132.7 C 46.1 132.7 43.8 129.4 43.8 125.1 Z M 55.7 125.1 C 55.7 121 57.7 117.5 61.6 117.5 C 65.5 117.5 67.5 121 67.5 125.1 C 67.5 129.2 65.5 132.7 61.6 132.7 C 57.7 132.7 55.7 129.2 55.7 125.1 Z M 65.2 125.1 C 65.2 122.2 64.1 119.4 61.6 119.4 C 59.1 119.4 58 122.2 58 125.1 C 58 128.1 59.1 130.8 61.6 130.8 C 64.1 130.8 65.2 128.1 65.2 125.1 Z M 78.3 132.4 C 78.3 132.4 78.27 122.06 78.3 122.1 C 78.3 120.1 77.4 119.4 76 119.4 C 74.5 119.4 73.2 120.6 72.6 121.8 C 72.57 121.76 72.6 132.4 72.6 132.4 L 70.4 132.4 L 70.4 117.9 L 72.6 117.9 C 72.6 117.9 72.57 119.96 72.6 120 C 73.4 118.7 75 117.5 76.8 117.5 C 79.2 117.5 80.4 118.8 80.4 121.5 C 80.43 121.46 80.4 132.4 80.4 132.4 L 78.3 132.4 Z M 83.7 114.3 C 83.7 113.5 84.4 112.8 85.1 112.8 C 85.9 112.8 86.6 113.5 86.6 114.3 C 86.6 115.1 85.9 115.8 85.1 115.8 C 84.4 115.8 83.7 115.1 83.7 114.3 Z M 84.1 132.4 L 84.1 117.9 L 86.2 117.9 L 86.2 132.4 L 84.1 132.4 Z M 97.7 132.4 C 97.7 132.4 97.71 122.06 97.7 122.1 C 97.7 120.1 96.8 119.4 95.4 119.4 C 94 119.4 92.7 120.6 92 121.8 C 92.01 121.76 92 132.4 92 132.4 L 89.9 132.4 L 89.9 117.9 L 92 117.9 C 92 117.9 92.01 119.96 92 120 C 92.8 118.7 94.5 117.5 96.2 117.5 C 98.7 117.5 99.9 118.8 99.9 121.5 C 99.87 121.46 99.9 132.4 99.9 132.4 L 97.7 132.4 Z M 103.1 114.3 C 103.1 113.5 103.8 112.8 104.6 112.8 C 105.4 112.8 106 113.5 106 114.3 C 106 115.1 105.4 115.8 104.6 115.8 C 103.8 115.8 103.1 115.1 103.1 114.3 Z M 103.5 132.4 L 103.5 117.9 L 105.7 117.9 L 105.7 132.4 L 103.5 132.4 Z M 108.6 125.1 C 108.6 120.8 110.9 117.5 114.6 117.5 C 116.6 117.5 117.8 118.3 118.7 119.4 C 118.7 119.4 117.6 120.9 117.6 120.9 C 116.8 119.9 115.9 119.4 114.8 119.4 C 112.2 119.4 110.8 122 110.8 125.1 C 110.8 128.2 112.2 130.8 114.8 130.8 C 115.9 130.8 116.8 130.4 117.6 129.3 C 117.6 129.3 118.7 130.8 118.7 130.8 C 117.8 132 116.6 132.7 114.6 132.7 C 110.9 132.7 108.6 129.4 108.6 125.1 Z M 134.8 132.4 C 134.8 132.4 134.79 130.82 134.8 130.8 C 133.9 132.1 132.4 132.7 131 132.7 C 128.6 132.7 126.6 130.9 126.6 127.9 C 126.6 124.9 128.6 123.1 131 123.1 C 132.4 123.1 133.9 123.7 134.8 125 C 134.8 125 134.8 122.5 134.8 122.5 C 134.8 120.5 133.7 119.4 131.8 119.4 C 130.5 119.4 129.3 119.9 128.2 121.2 C 128.2 121.2 127.2 119.6 127.2 119.6 C 128.6 118.2 130.3 117.5 132.1 117.5 C 135 117.5 136.9 118.9 136.9 122.2 C 136.95 122.24 136.9 132.4 136.9 132.4 L 134.8 132.4 Z M 134.8 129.3 C 134.8 129.3 134.8 126.6 134.8 126.6 C 134.1 125.4 132.9 124.7 131.7 124.7 C 129.9 124.7 128.8 126.1 128.8 127.9 C 128.8 129.7 129.9 131.2 131.7 131.2 C 132.9 131.2 134.1 130.5 134.8 129.3 Z M 139.9 125.1 C 139.9 120.8 142.1 117.5 145.9 117.5 C 147.9 117.5 149.1 118.3 150 119.4 C 150 119.4 148.8 120.9 148.8 120.9 C 148 119.9 147.1 119.4 146 119.4 C 143.5 119.4 142.1 122 142.1 125.1 C 142.1 128.2 143.5 130.8 146 130.8 C 147.1 130.8 148 130.4 148.8 129.3 C 148.8 129.3 150 130.8 150 130.8 C 149.1 132 147.9 132.7 145.9 132.7 C 142.1 132.7 139.9 129.4 139.9 125.1 Z M 152 114.3 C 152 113.5 152.7 112.8 153.5 112.8 C 154.3 112.8 155 113.5 155 114.3 C 155 115.1 154.3 115.8 153.5 115.8 C 152.7 115.8 152 115.1 152 114.3 Z M 152.5 132.4 L 152.5 117.9 L 154.6 117.9 L 154.6 132.4 L 152.5 132.4 Z M 166.5 132.4 C 166.5 132.4 166.53 130.31 166.5 130.3 C 165.7 131.8 164.2 132.7 162.7 132.7 C 159.5 132.7 157.5 129.7 157.5 125.1 C 157.5 120.6 159.4 117.5 162.7 117.5 C 164.2 117.5 165.7 118.4 166.5 120 C 166.53 119.99 166.5 112.4 166.5 112.4 L 168.7 112.4 L 168.7 132.4 L 166.5 132.4 Z M 166.5 128.5 C 166.5 128.5 166.5 121.8 166.5 121.8 C 166 120.6 164.6 119.4 163.3 119.4 C 160.9 119.4 159.8 122 159.8 125.1 C 159.8 128.3 160.9 130.8 163.3 130.8 C 164.6 130.8 166 129.7 166.5 128.5 Z " stroke="none" fill="#d3d2d2"/>  </g>  <g id="Polygon226153">    <path d="M 12.5 96.4 L 11.2 91.8 L 4.1 91.8 L 2.8 96.4 L 0.2 96.4 L 6.2 76.4 L 9.1 76.4 L 15.1 96.4 L 12.5 96.4 Z M 7.6 79 L 4.6 89.7 L 10.7 89.7 L 7.6 79 Z M 17 96.4 L 17 76.4 L 19.1 76.4 L 19.1 96.4 L 17 96.4 Z M 22.1 89.1 C 22.1 84.8 24.4 81.5 28.1 81.5 C 30.1 81.5 31.3 82.3 32.2 83.4 C 32.2 83.4 31 84.9 31 84.9 C 30.3 83.9 29.4 83.4 28.3 83.4 C 25.7 83.4 24.3 86 24.3 89.1 C 24.3 92.2 25.7 94.8 28.3 94.8 C 29.4 94.8 30.3 94.4 31 93.3 C 31 93.3 32.2 94.8 32.2 94.8 C 31.3 96 30.1 96.7 28.1 96.7 C 24.4 96.7 22.1 93.4 22.1 89.1 Z M 42.1 96.4 C 42.1 96.4 42.12 94.82 42.1 94.8 C 41.2 96.1 39.8 96.7 38.3 96.7 C 36 96.7 33.9 94.9 33.9 91.9 C 33.9 88.9 35.9 87.1 38.3 87.1 C 39.8 87.1 41.2 87.7 42.1 89 C 42.1 89 42.1 86.5 42.1 86.5 C 42.1 84.5 41 83.4 39.1 83.4 C 37.8 83.4 36.6 83.9 35.5 85.2 C 35.5 85.2 34.6 83.6 34.6 83.6 C 35.9 82.2 37.6 81.5 39.5 81.5 C 42.4 81.5 44.3 82.9 44.3 86.2 C 44.28 86.24 44.3 96.4 44.3 96.4 L 42.1 96.4 Z M 42.1 93.3 C 42.1 93.3 42.1 90.6 42.1 90.6 C 41.5 89.4 40.3 88.7 39 88.7 C 37.2 88.7 36.1 90.1 36.1 91.9 C 36.1 93.7 37.2 95.2 39 95.2 C 40.3 95.2 41.5 94.5 42.1 93.3 Z M 55.7 96.4 C 55.7 96.4 55.74 86.06 55.7 86.1 C 55.7 84.1 54.9 83.4 53.4 83.4 C 52 83.4 50.7 84.6 50 85.8 C 50.04 85.76 50 96.4 50 96.4 L 47.9 96.4 L 47.9 81.9 L 50 81.9 C 50 81.9 50.04 83.96 50 84 C 50.9 82.7 52.5 81.5 54.2 81.5 C 56.7 81.5 57.9 82.8 57.9 85.5 C 57.9 85.46 57.9 96.4 57.9 96.4 L 55.7 96.4 Z M 61.1 78.3 C 61.1 77.5 61.8 76.8 62.6 76.8 C 63.4 76.8 64.1 77.5 64.1 78.3 C 64.1 79.1 63.4 79.8 62.6 79.8 C 61.8 79.8 61.1 79.1 61.1 78.3 Z M 61.6 96.4 L 61.6 81.9 L 63.7 81.9 L 63.7 96.4 L 61.6 96.4 Z M 70.3 96.4 L 65.5 81.9 L 67.9 81.9 L 71.5 93.8 L 75.1 81.9 L 77.4 81.9 L 72.7 96.4 L 70.3 96.4 Z M 78.6 89.1 C 78.6 85 80.6 81.5 84.4 81.5 C 88.3 81.5 90.4 85 90.4 89.1 C 90.4 93.2 88.3 96.7 84.4 96.7 C 80.6 96.7 78.6 93.2 78.6 89.1 Z M 88.1 89.1 C 88.1 86.2 87 83.4 84.4 83.4 C 82 83.4 80.8 86.2 80.8 89.1 C 80.8 92.1 82 94.8 84.4 94.8 C 87 94.8 88.1 92.1 88.1 89.1 Z M 93.3 96.4 L 93.3 81.9 L 95.4 81.9 C 95.4 81.9 95.43 84.2 95.4 84.2 C 96.4 82.7 97.8 81.6 99.5 81.6 C 99.5 81.6 99.5 83.8 99.5 83.8 C 99.3 83.7 99.1 83.7 98.8 83.7 C 97.5 83.7 96 84.9 95.4 86.1 C 95.43 86.09 95.4 96.4 95.4 96.4 L 93.3 96.4 Z M 109.2 96.4 C 109.2 96.4 109.17 94.82 109.2 94.8 C 108.2 96.1 106.8 96.7 105.4 96.7 C 103 96.7 101 94.9 101 91.9 C 101 88.9 103 87.1 105.4 87.1 C 106.8 87.1 108.3 87.7 109.2 89 C 109.2 89 109.2 86.5 109.2 86.5 C 109.2 84.5 108.1 83.4 106.2 83.4 C 104.8 83.4 103.7 83.9 102.6 85.2 C 102.6 85.2 101.6 83.6 101.6 83.6 C 103 82.2 104.7 81.5 106.5 81.5 C 109.4 81.5 111.3 82.9 111.3 86.2 C 111.33 86.24 111.3 96.4 111.3 96.4 L 109.2 96.4 Z M 109.2 93.3 C 109.2 93.3 109.2 90.6 109.2 90.6 C 108.5 89.4 107.3 88.7 106 88.7 C 104.2 88.7 103.2 90.1 103.2 91.9 C 103.2 93.7 104.2 95.2 106 95.2 C 107.3 95.2 108.5 94.5 109.2 93.3 Z M 113.8 94.7 C 113.8 94.7 114.9 93.2 114.9 93.2 C 115.7 94.2 117.1 95 118.6 95 C 120.3 95 121.4 94 121.4 92.7 C 121.4 89.3 114.2 90.4 114.2 85.4 C 114.2 83.3 115.9 81.5 118.8 81.5 C 120.7 81.5 122.2 82.3 123.2 83.4 C 123.2 83.4 122.2 84.9 122.2 84.9 C 121.5 83.9 120.3 83.3 118.9 83.3 C 117.3 83.3 116.3 84.2 116.3 85.4 C 116.3 88.5 123.5 87.4 123.5 92.6 C 123.5 95 121.6 96.7 118.7 96.7 C 116.6 96.7 115 96.1 113.8 94.7 Z M 125.5 89.1 C 125.5 84.9 127.8 81.5 131.4 81.5 C 135.2 81.5 137.2 84.9 137.2 89.2 C 137.16 89.18 137.2 89.8 137.2 89.8 C 137.2 89.8 127.77 89.84 127.8 89.8 C 127.9 92.7 129.4 94.9 131.9 94.9 C 133.2 94.9 134.5 94.3 135.4 93.2 C 135.4 93.2 136.5 94.4 136.5 94.4 C 135.4 95.9 133.7 96.7 131.8 96.7 C 127.9 96.7 125.5 93.6 125.5 89.1 Z M 131.4 83.3 C 128.8 83.3 127.8 86.1 127.8 88.2 C 127.8 88.2 135 88.2 135 88.2 C 135 86 134 83.3 131.4 83.3 Z M 145.4 89.1 C 145.4 84.9 147.7 81.5 151.3 81.5 C 155.1 81.5 157 84.9 157 89.2 C 157.05 89.18 157 89.8 157 89.8 C 157 89.8 147.66 89.84 147.7 89.8 C 147.7 92.7 149.2 94.9 151.8 94.9 C 153.1 94.9 154.4 94.3 155.3 93.2 C 155.3 93.2 156.4 94.4 156.4 94.4 C 155.2 95.9 153.6 96.7 151.6 96.7 C 147.8 96.7 145.4 93.6 145.4 89.1 Z M 151.3 83.3 C 148.7 83.3 147.7 86.1 147.7 88.2 C 147.7 88.2 154.9 88.2 154.9 88.2 C 154.9 86 153.9 83.3 151.3 83.3 Z M 167.3 96.4 L 164 90.6 L 160.7 96.4 L 158.3 96.4 L 162.7 89 L 158.5 81.9 L 160.9 81.9 L 164 87.4 L 167.1 81.9 L 169.5 81.9 L 165.3 89 L 169.7 96.4 L 167.3 96.4 Z M 172.2 93.5 C 172.2 93.47 172.2 83.8 172.2 83.8 L 170.3 83.8 L 170.3 81.9 L 172.2 81.9 L 172.2 77.9 L 174.4 77.9 L 174.4 81.9 L 176.8 81.9 L 176.8 83.8 L 174.4 83.8 C 174.4 83.8 174.36 93.08 174.4 93.1 C 174.4 94.2 174.7 94.8 175.5 94.8 C 176.1 94.8 176.5 94.6 176.8 94.2 C 176.8 94.2 177.4 95.9 177.4 95.9 C 176.9 96.4 176.2 96.7 175.1 96.7 C 173.1 96.7 172.2 95.6 172.2 93.5 Z M 179.4 96.4 L 179.4 81.9 L 181.5 81.9 C 181.5 81.9 181.49 84.2 181.5 84.2 C 182.4 82.7 183.8 81.6 185.6 81.6 C 185.6 81.6 185.6 83.8 185.6 83.8 C 185.4 83.7 185.1 83.7 184.9 83.7 C 183.6 83.7 182.1 84.9 181.5 86.1 C 181.49 86.09 181.5 96.4 181.5 96.4 L 179.4 96.4 Z M 195.2 96.4 C 195.2 96.4 195.23 94.82 195.2 94.8 C 194.3 96.1 192.9 96.7 191.4 96.7 C 189.1 96.7 187 94.9 187 91.9 C 187 88.9 189.1 87.1 191.4 87.1 C 192.9 87.1 194.3 87.7 195.2 89 C 195.2 89 195.2 86.5 195.2 86.5 C 195.2 84.5 194.2 83.4 192.3 83.4 C 190.9 83.4 189.7 83.9 188.6 85.2 C 188.6 85.2 187.7 83.6 187.7 83.6 C 189.1 82.2 190.8 81.5 192.6 81.5 C 195.5 81.5 197.4 82.9 197.4 86.2 C 197.39 86.24 197.4 96.4 197.4 96.4 L 195.2 96.4 Z M 195.2 93.3 C 195.2 93.3 195.2 90.6 195.2 90.6 C 194.6 89.4 193.4 88.7 192.1 88.7 C 190.3 88.7 189.2 90.1 189.2 91.9 C 189.2 93.7 190.3 95.2 192.1 95.2 C 193.4 95.2 194.6 94.5 195.2 93.3 Z M 200.3 89.1 C 200.3 84.8 202.6 81.5 206.3 81.5 C 208.3 81.5 209.5 82.3 210.4 83.4 C 210.4 83.4 209.3 84.9 209.3 84.9 C 208.5 83.9 207.6 83.4 206.5 83.4 C 203.9 83.4 202.6 86 202.6 89.1 C 202.6 92.2 203.9 94.8 206.5 94.8 C 207.6 94.8 208.5 94.4 209.3 93.3 C 209.3 93.3 210.4 94.8 210.4 94.8 C 209.5 96 208.3 96.7 206.3 96.7 C 202.6 96.7 200.3 93.4 200.3 89.1 Z M 213.3 93.5 C 213.32 93.47 213.3 83.8 213.3 83.8 L 211.4 83.8 L 211.4 81.9 L 213.3 81.9 L 213.3 77.9 L 215.5 77.9 L 215.5 81.9 L 217.9 81.9 L 217.9 83.8 L 215.5 83.8 C 215.5 83.8 215.48 93.08 215.5 93.1 C 215.5 94.2 215.8 94.8 216.7 94.8 C 217.2 94.8 217.6 94.6 217.9 94.2 C 217.9 94.2 218.6 95.9 218.6 95.9 C 218.1 96.4 217.3 96.7 216.2 96.7 C 214.3 96.7 213.3 95.6 213.3 93.5 Z " stroke="none" fill="#d3d2d2"/>  </g>  <g id="Polygon226152">    <path d="M 12.5 60.4 L 11.2 55.8 L 4.1 55.8 L 2.8 60.4 L 0.2 60.4 L 6.2 40.4 L 9.1 40.4 L 15.1 60.4 L 12.5 60.4 Z M 7.6 43 L 4.6 53.7 L 10.7 53.7 L 7.6 43 Z M 16.2 53.1 C 16.2 48.8 18.5 45.5 22.2 45.5 C 24.2 45.5 25.5 46.3 26.4 47.4 C 26.4 47.4 25.2 48.9 25.2 48.9 C 24.4 47.9 23.5 47.4 22.4 47.4 C 19.8 47.4 18.5 50 18.5 53.1 C 18.5 56.2 19.8 58.8 22.4 58.8 C 23.5 58.8 24.4 58.4 25.2 57.3 C 25.2 57.3 26.4 58.8 26.4 58.8 C 25.5 60 24.2 60.7 22.2 60.7 C 18.5 60.7 16.2 57.4 16.2 53.1 Z M 28.1 53.1 C 28.1 48.9 30.3 45.5 34 45.5 C 37.8 45.5 39.7 48.9 39.7 53.2 C 39.72 53.18 39.7 53.8 39.7 53.8 C 39.7 53.8 30.33 53.84 30.3 53.8 C 30.4 56.7 31.9 58.9 34.5 58.9 C 35.8 58.9 37 58.3 37.9 57.2 C 37.9 57.2 39.1 58.4 39.1 58.4 C 37.9 59.9 36.3 60.7 34.3 60.7 C 30.4 60.7 28.1 57.6 28.1 53.1 Z M 34 47.3 C 31.4 47.3 30.4 50.1 30.3 52.2 C 30.3 52.2 37.6 52.2 37.6 52.2 C 37.6 50 36.6 47.3 34 47.3 Z M 43 57.5 C 42.99 57.47 43 47.8 43 47.8 L 41.1 47.8 L 41.1 45.9 L 43 45.9 L 43 41.9 L 45.1 41.9 L 45.1 45.9 L 47.6 45.9 L 47.6 47.8 L 45.1 47.8 C 45.1 47.8 45.15 57.08 45.1 57.1 C 45.1 58.2 45.5 58.8 46.3 58.8 C 46.9 58.8 47.3 58.6 47.6 58.2 C 47.6 58.2 48.2 59.9 48.2 59.9 C 47.7 60.4 47 60.7 45.9 60.7 C 43.9 60.7 43 59.6 43 57.5 Z M 49.7 64.1 C 50 64.3 50.5 64.3 50.7 64.3 C 51.5 64.3 52 64 52.4 62.9 C 52.41 62.9 53.2 60.7 53.2 60.7 L 48.4 45.9 L 50.7 45.9 L 54.3 57.8 L 57.9 45.9 L 60.2 45.9 C 60.2 45.9 54.45 63.44 54.4 63.4 C 53.7 65.5 52.6 66.3 50.8 66.3 C 50.4 66.3 49.7 66.2 49.4 66 C 49.4 66 49.7 64.1 49.7 64.1 Z M 62.1 60.4 L 62.1 40.4 L 64.2 40.4 L 64.2 60.4 L 62.1 60.4 Z M 88.7 60.4 C 88.7 60.4 88.68 49.88 88.7 49.9 C 88.7 48.3 88 47.4 86.7 47.4 C 85.4 47.4 84.1 48.6 83.5 49.8 C 83.52 49.76 83.5 60.4 83.5 60.4 L 81.4 60.4 C 81.4 60.4 81.36 49.88 81.4 49.9 C 81.4 48.3 80.7 47.4 79.3 47.4 C 78 47.4 76.8 48.6 76.2 49.8 C 76.17 49.76 76.2 60.4 76.2 60.4 L 74 60.4 L 74 45.9 L 76.2 45.9 C 76.2 45.9 76.17 47.96 76.2 48 C 76.8 46.9 78.4 45.5 80.1 45.5 C 82 45.5 83.1 46.6 83.4 48.1 C 84.1 46.8 85.7 45.5 87.5 45.5 C 89.6 45.5 90.8 46.7 90.8 49.3 C 90.84 49.31 90.8 60.4 90.8 60.4 L 88.7 60.4 Z M 93.8 53.1 C 93.8 48.9 96 45.5 99.7 45.5 C 103.5 45.5 105.4 48.9 105.4 53.2 C 105.39 53.18 105.4 53.8 105.4 53.8 C 105.4 53.8 96 53.84 96 53.8 C 96.1 56.7 97.6 58.9 100.2 58.9 C 101.4 58.9 102.7 58.3 103.6 57.2 C 103.6 57.2 104.8 58.4 104.8 58.4 C 103.6 59.9 101.9 60.7 100 60.7 C 96.1 60.7 93.8 57.6 93.8 53.1 Z M 99.6 47.3 C 97.1 47.3 96.1 50.1 96 52.2 C 96 52.2 103.3 52.2 103.3 52.2 C 103.2 50 102.3 47.3 99.6 47.3 Z M 108.7 57.5 C 108.66 57.47 108.7 47.8 108.7 47.8 L 106.7 47.8 L 106.7 45.9 L 108.7 45.9 L 108.7 41.9 L 110.8 41.9 L 110.8 45.9 L 113.3 45.9 L 113.3 47.8 L 110.8 47.8 C 110.8 47.8 110.82 57.08 110.8 57.1 C 110.8 58.2 111.1 58.8 112 58.8 C 112.5 58.8 113 58.6 113.2 58.2 C 113.2 58.2 113.9 59.9 113.9 59.9 C 113.4 60.4 112.7 60.7 111.6 60.7 C 109.6 60.7 108.7 59.6 108.7 57.5 Z M 123.7 60.4 C 123.7 60.4 123.69 50.03 123.7 50 C 123.7 48.1 122.8 47.4 121.3 47.4 C 119.9 47.4 118.6 48.6 118 49.8 C 117.96 49.76 118 60.4 118 60.4 L 115.8 60.4 L 115.8 40.4 L 118 40.4 C 118 40.4 117.96 47.96 118 48 C 118.8 46.7 120.4 45.5 122.2 45.5 C 124.6 45.5 125.8 46.8 125.8 49.4 C 125.82 49.4 125.8 60.4 125.8 60.4 L 123.7 60.4 Z M 129.1 64.1 C 129.3 64.3 129.8 64.3 130 64.3 C 130.9 64.3 131.3 64 131.7 62.9 C 131.73 62.9 132.5 60.7 132.5 60.7 L 127.7 45.9 L 130 45.9 L 133.6 57.8 L 137.2 45.9 L 139.6 45.9 C 139.6 45.9 133.77 63.44 133.8 63.4 C 133 65.5 131.9 66.3 130.2 66.3 C 129.7 66.3 129.1 66.2 128.7 66 C 128.7 66 129.1 64.1 129.1 64.1 Z M 141.4 60.4 L 141.4 40.4 L 143.5 40.4 L 143.5 60.4 L 141.4 60.4 Z M 152.6 53.1 C 152.6 48.8 154.9 45.5 158.6 45.5 C 160.6 45.5 161.9 46.3 162.8 47.4 C 162.8 47.4 161.6 48.9 161.6 48.9 C 160.8 47.9 159.9 47.4 158.8 47.4 C 156.2 47.4 154.9 50 154.9 53.1 C 154.9 56.2 156.2 58.8 158.8 58.8 C 159.9 58.8 160.8 58.4 161.6 57.3 C 161.6 57.3 162.8 58.8 162.8 58.8 C 161.9 60 160.6 60.7 158.6 60.7 C 154.9 60.7 152.6 57.4 152.6 53.1 Z M 172.7 60.4 C 172.7 60.4 172.68 58.82 172.7 58.8 C 171.7 60.1 170.3 60.7 168.9 60.7 C 166.5 60.7 164.5 58.9 164.5 55.9 C 164.5 52.9 166.5 51.1 168.9 51.1 C 170.3 51.1 171.8 51.7 172.7 53 C 172.7 53 172.7 50.5 172.7 50.5 C 172.7 48.5 171.6 47.4 169.7 47.4 C 168.4 47.4 167.2 47.9 166.1 49.2 C 166.1 49.2 165.1 47.6 165.1 47.6 C 166.5 46.2 168.2 45.5 170 45.5 C 172.9 45.5 174.8 46.9 174.8 50.2 C 174.84 50.24 174.8 60.4 174.8 60.4 L 172.7 60.4 Z M 172.7 57.3 C 172.7 57.3 172.7 54.6 172.7 54.6 C 172 53.4 170.8 52.7 169.6 52.7 C 167.8 52.7 166.7 54.1 166.7 55.9 C 166.7 57.7 167.8 59.2 169.6 59.2 C 170.8 59.2 172 58.5 172.7 57.3 Z M 178.5 60.4 L 178.5 45.9 L 180.6 45.9 C 180.6 45.9 180.59 48.2 180.6 48.2 C 181.5 46.7 182.9 45.6 184.7 45.6 C 184.7 45.6 184.7 47.8 184.7 47.8 C 184.5 47.7 184.2 47.7 184 47.7 C 182.7 47.7 181.2 48.9 180.6 50.1 C 180.59 50.09 180.6 60.4 180.6 60.4 L 178.5 60.4 Z M 192.3 58.8 C 194.7 58.8 195.8 56.3 195.8 53.1 C 195.8 50 194.7 47.4 192.3 47.4 C 190.9 47.4 189.6 48.6 189 49.8 C 189 49.8 189 56.5 189 56.5 C 189.6 57.7 190.9 58.8 192.3 58.8 Z M 186.9 60.4 L 186.9 40.4 L 189 40.4 C 189 40.4 189.02 47.99 189 48 C 189.9 46.4 191.4 45.5 192.8 45.5 C 196.1 45.5 198 48.6 198 53.1 C 198 57.7 196.1 60.7 192.8 60.7 C 191.3 60.7 189.9 59.8 189 58.3 C 189.02 58.31 189 60.4 189 60.4 L 186.9 60.4 Z M 200.6 42.3 C 200.6 41.5 201.3 40.8 202 40.8 C 202.9 40.8 203.5 41.5 203.5 42.3 C 203.5 43.1 202.9 43.8 202 43.8 C 201.3 43.8 200.6 43.1 200.6 42.3 Z M 201 60.4 L 201 45.9 L 203.1 45.9 L 203.1 60.4 L 201 60.4 Z M 214.6 60.4 C 214.6 60.4 214.61 50.06 214.6 50.1 C 214.6 48.1 213.7 47.4 212.3 47.4 C 210.9 47.4 209.6 48.6 208.9 49.8 C 208.91 49.76 208.9 60.4 208.9 60.4 L 206.8 60.4 L 206.8 45.9 L 208.9 45.9 C 208.9 45.9 208.91 47.96 208.9 48 C 209.8 46.7 211.4 45.5 213.1 45.5 C 215.6 45.5 216.8 46.8 216.8 49.5 C 216.77 49.46 216.8 60.4 216.8 60.4 L 214.6 60.4 Z M 219.7 53.1 C 219.7 49 221.8 45.5 225.6 45.5 C 229.5 45.5 231.5 49 231.5 53.1 C 231.5 57.2 229.5 60.7 225.6 60.7 C 221.8 60.7 219.7 57.2 219.7 53.1 Z M 229.3 53.1 C 229.3 50.2 228.1 47.4 225.6 47.4 C 223.1 47.4 222 50.2 222 53.1 C 222 56.1 223.1 58.8 225.6 58.8 C 228.1 58.8 229.3 56.1 229.3 53.1 Z M 234.4 60.4 L 234.4 40.4 L 236.6 40.4 L 236.6 60.4 L 234.4 60.4 Z " stroke="none" fill="#d3d2d2"/>  </g>  <g id="Polygon226151">    <path d="M 1.6 24.4 C 1.6 24.4 1.59 22.43 1.6 22.4 C 8.1 14.9 10.4 12.5 10.4 9.5 C 10.4 7.4 8.9 6.2 7.2 6.2 C 5.3 6.2 3.9 7.1 2.9 8.7 C 2.9 8.7 1.4 7.3 1.4 7.3 C 2.7 5.2 4.7 4.1 7.2 4.1 C 10.3 4.1 12.8 6 12.8 9.5 C 12.8 12.9 10.3 15.9 5 22.2 C 4.98 22.25 12.9 22.2 12.9 22.2 L 12.9 24.4 L 1.6 24.4 Z M 15.3 18.1 L 15.3 16.2 L 21.5 16.2 L 21.5 18.1 L 15.3 18.1 Z M 23.3 17.1 C 23.3 13 25.4 9.5 29.2 9.5 C 33.1 9.5 35.1 13 35.1 17.1 C 35.1 21.2 33.1 24.7 29.2 24.7 C 25.4 24.7 23.3 21.2 23.3 17.1 Z M 32.9 17.1 C 32.9 14.2 31.8 11.4 29.2 11.4 C 26.7 11.4 25.6 14.2 25.6 17.1 C 25.6 20.1 26.7 22.8 29.2 22.8 C 31.8 22.8 32.9 20.1 32.9 17.1 Z M 37.3 17.1 C 37.3 12.8 39.6 9.5 43.3 9.5 C 45.4 9.5 46.6 10.3 47.5 11.4 C 47.5 11.4 46.3 12.9 46.3 12.9 C 45.5 11.9 44.6 11.4 43.5 11.4 C 40.9 11.4 39.6 14 39.6 17.1 C 39.6 20.2 40.9 22.8 43.5 22.8 C 44.6 22.8 45.5 22.4 46.3 21.3 C 46.3 21.3 47.5 22.8 47.5 22.8 C 46.6 24 45.4 24.7 43.3 24.7 C 39.6 24.7 37.3 21.4 37.3 17.1 Z M 48.9 18.1 L 48.9 16.2 L 55.1 16.2 L 55.1 18.1 L 48.9 18.1 Z M 56.5 21.4 C 56.5 21.4 58.1 20 58.1 20 C 59 21.5 60.5 22.6 62.4 22.6 C 64.8 22.6 66 21.1 66 18.8 C 66 16.1 64.3 15.2 62.2 15.2 C 61.6 15.2 60.9 15.2 60.6 15.2 C 60.6 15.2 60.6 13 60.6 13 C 60.9 13.1 61.6 13.1 62.2 13.1 C 64.2 13.1 65.8 12 65.8 9.7 C 65.8 7.3 64.3 6.2 62.3 6.2 C 60.6 6.2 59.3 7.1 58.3 8.6 C 58.3 8.6 56.8 7.2 56.8 7.2 C 58 5.3 60 4.1 62.5 4.1 C 65.7 4.1 68.2 5.8 68.2 9.4 C 68.2 11.9 66.4 13.6 64.6 14 C 66.4 14.3 68.4 16.1 68.4 19 C 68.4 22.3 66.3 24.7 62.5 24.7 C 59.6 24.7 57.6 23.2 56.5 21.4 Z M 70.5 18.1 L 70.5 16.2 L 76.7 16.2 L 76.7 18.1 L 70.5 18.1 Z M 78.1 22.7 C 78.1 22.7 79.2 21.2 79.2 21.2 C 80 22.2 81.4 23 82.9 23 C 84.6 23 85.7 22 85.7 20.7 C 85.7 17.3 78.5 18.4 78.5 13.4 C 78.5 11.3 80.2 9.5 83.1 9.5 C 85 9.5 86.5 10.3 87.5 11.4 C 87.5 11.4 86.5 12.9 86.5 12.9 C 85.8 11.9 84.6 11.3 83.2 11.3 C 81.6 11.3 80.6 12.2 80.6 13.4 C 80.6 16.5 87.8 15.4 87.8 20.6 C 87.8 23 85.9 24.7 83 24.7 C 80.9 24.7 79.3 24.1 78.1 22.7 Z M 89.8 17.1 C 89.8 13 91.9 9.5 95.7 9.5 C 99.6 9.5 101.6 13 101.6 17.1 C 101.6 21.2 99.6 24.7 95.7 24.7 C 91.9 24.7 89.8 21.2 89.8 17.1 Z M 99.4 17.1 C 99.4 14.2 98.3 11.4 95.7 11.4 C 93.2 11.4 92.1 14.2 92.1 17.1 C 92.1 20.1 93.2 22.8 95.7 22.8 C 98.3 22.8 99.4 20.1 99.4 17.1 Z M 104.6 24.4 L 104.6 4.4 L 106.7 4.4 L 106.7 24.4 L 104.6 24.4 Z M 117.8 24.4 C 117.8 24.4 117.81 22.82 117.8 22.8 C 116.9 24.1 115.5 24.7 114 24.7 C 111.7 24.7 109.6 22.9 109.6 19.9 C 109.6 16.9 111.6 15.1 114 15.1 C 115.5 15.1 116.9 15.7 117.8 17 C 117.8 17 117.8 14.5 117.8 14.5 C 117.8 12.5 116.7 11.4 114.8 11.4 C 113.5 11.4 112.3 11.9 111.2 13.2 C 111.2 13.2 110.2 11.6 110.2 11.6 C 111.6 10.2 113.3 9.5 115.2 9.5 C 118 9.5 120 10.9 120 14.2 C 119.97 14.24 120 24.4 120 24.4 L 117.8 24.4 Z M 117.8 21.3 C 117.8 21.3 117.8 18.6 117.8 18.6 C 117.1 17.4 115.9 16.7 114.7 16.7 C 112.9 16.7 111.8 18.1 111.8 19.9 C 111.8 21.7 112.9 23.2 114.7 23.2 C 115.9 23.2 117.1 22.5 117.8 21.3 Z M 131.4 24.4 C 131.4 24.4 131.43 14.06 131.4 14.1 C 131.4 12.1 130.6 11.4 129.1 11.4 C 127.7 11.4 126.4 12.6 125.7 13.8 C 125.73 13.76 125.7 24.4 125.7 24.4 L 123.6 24.4 L 123.6 9.9 L 125.7 9.9 C 125.7 9.9 125.73 11.96 125.7 12 C 126.6 10.7 128.2 9.5 129.9 9.5 C 132.4 9.5 133.6 10.8 133.6 13.5 C 133.59 13.46 133.6 24.4 133.6 24.4 L 131.4 24.4 Z M 136.8 6.3 C 136.8 5.5 137.5 4.8 138.3 4.8 C 139.1 4.8 139.8 5.5 139.8 6.3 C 139.8 7.1 139.1 7.8 138.3 7.8 C 137.5 7.8 136.8 7.1 136.8 6.3 Z M 137.2 24.4 L 137.2 9.9 L 139.4 9.9 L 139.4 24.4 L 137.2 24.4 Z M 150.9 24.4 C 150.9 24.4 150.87 14.06 150.9 14.1 C 150.9 12.1 150 11.4 148.6 11.4 C 147.1 11.4 145.8 12.6 145.2 13.8 C 145.17 13.76 145.2 24.4 145.2 24.4 L 143 24.4 L 143 9.9 L 145.2 9.9 C 145.2 9.9 145.17 11.96 145.2 12 C 146 10.7 147.6 9.5 149.4 9.5 C 151.8 9.5 153 10.8 153 13.5 C 153.03 13.46 153 24.4 153 24.4 L 150.9 24.4 Z M 156 17.1 C 156 12.9 158.2 9.5 161.8 9.5 C 165.7 9.5 167.6 12.9 167.6 17.2 C 167.58 17.18 167.6 17.8 167.6 17.8 C 167.6 17.8 158.19 17.84 158.2 17.8 C 158.3 20.7 159.8 22.9 162.4 22.9 C 163.6 22.9 164.9 22.3 165.8 21.2 C 165.8 21.2 166.9 22.4 166.9 22.4 C 165.8 23.9 164.1 24.7 162.2 24.7 C 158.3 24.7 156 21.6 156 17.1 Z M 161.8 11.3 C 159.3 11.3 158.2 14.1 158.2 16.2 C 158.2 16.2 165.4 16.2 165.4 16.2 C 165.4 14 164.5 11.3 161.8 11.3 Z " stroke="none" fill="#d3d2d2"/>  </g></svg>