<?xml version="1.0" standalone="no"?><!DOCTYPE svg PUBLIC "-//W3C//DTD SVG 1.1//EN" "http://www.w3.org/Graphics/SVG/1.1/DTD/svg11.dtd"><svg xmlns="http://www.w3.org/2000/svg" version="1.1" width="651px" height="85.6px" viewBox="0 0 651 85.6">  <desc>Spicy Sanitary Pad Pur e</desc>  <defs/>  <g id="Polygon180828">    <path d="M 0.7 44.2 C 0.7 44.2 4 38.2 4 38.2 C 5.6 40.3 8.2 41.4 10.6 41.4 C 13 41.4 14.6 39.6 14.6 37 C 14.6 29.9 1.9 29.9 1.9 17.9 C 1.9 11.9 5.9 6.7 13 6.7 C 16.4 6.7 19.5 7.9 21.7 10 C 21.7 10 18.8 15.8 18.8 15.8 C 17.2 14.2 15.4 13.4 13.3 13.4 C 11.1 13.4 9.5 15.1 9.5 17.5 C 9.5 23.7 22.3 24.5 22.3 36.5 C 22.3 43.3 17.9 48.1 11 48.1 C 6.7 48.1 3.3 46.7 0.7 44.2 Z M 33.3 43.8 C 33.3 43.8 33.3 58.4 33.3 58.4 L 26.5 58.4 L 26.5 18.4 L 33.3 18.4 C 33.3 18.4 33.3 22.02 33.3 22 C 34.6 19.1 36.9 17.7 38.9 17.7 C 44.6 17.7 47.5 23.6 47.5 32.9 C 47.5 42 44.6 48.1 38.9 48.1 C 36.9 48.1 34.5 46.8 33.3 43.8 Z M 40.6 32.9 C 40.6 27.8 39.7 23.7 36.7 23.7 C 35.3 23.7 33.9 25.1 33.3 27.1 C 33.3 27.1 33.3 38.6 33.3 38.6 C 33.9 40.6 35.3 42.1 36.7 42.1 C 39.7 42.1 40.6 38 40.6 32.9 Z M 51.1 10.9 C 51.1 8.6 53 6.8 55.3 6.8 C 57.5 6.8 59.4 8.6 59.4 10.9 C 59.4 13.2 57.5 15 55.3 15 C 53 15 51.1 13.2 51.1 10.9 Z M 51.9 47.4 L 51.9 18.4 L 58.7 18.4 L 58.7 47.4 L 51.9 47.4 Z M 63 32.9 C 63 24.1 67.1 17.7 74 17.7 C 77.3 17.7 79.7 18.9 81.1 20.3 C 81.1 20.3 78.9 25.6 78.9 25.6 C 77.7 24.3 76.6 23.7 75.2 23.7 C 71.7 23.7 70 27.8 70 32.9 C 70 37.9 71.7 42.1 75.2 42.1 C 76.6 42.1 77.7 41.5 78.9 40.3 C 78.9 40.3 81.1 45.5 81.1 45.5 C 79.7 47 77.3 48.1 74 48.1 C 67.1 48.1 63 41.7 63 32.9 Z M 85.4 52.9 C 85.8 53 86.4 53.2 86.8 53.2 C 88 53.2 88.7 52.6 89.2 51.1 C 89.16 51.12 90 48.1 90 48.1 L 82.1 18.4 L 89.3 18.4 L 93.4 38.8 L 97.6 18.4 L 104.8 18.4 C 104.8 18.4 95.64 52.5 95.6 52.5 C 94.2 57.8 91.9 59.2 87.7 59.2 C 86.7 59.2 85.1 59 84.4 58.7 C 84.4 58.7 85.4 52.9 85.4 52.9 Z M 115.3 44.2 C 115.3 44.2 118.6 38.2 118.6 38.2 C 120.2 40.3 122.8 41.4 125.2 41.4 C 127.6 41.4 129.2 39.6 129.2 37 C 129.2 29.9 116.5 29.9 116.5 17.9 C 116.5 11.9 120.5 6.7 127.6 6.7 C 131 6.7 134.1 7.9 136.3 10 C 136.3 10 133.4 15.8 133.4 15.8 C 131.8 14.2 130 13.4 127.9 13.4 C 125.7 13.4 124.1 15.1 124.1 17.5 C 124.1 23.7 136.9 24.5 136.9 36.5 C 136.9 43.3 132.5 48.1 125.6 48.1 C 121.3 48.1 117.9 46.7 115.3 44.2 Z M 153.7 47.4 C 153.7 47.4 153.72 44.64 153.7 44.6 C 152.5 46.9 149.8 48.1 147.7 48.1 C 143.1 48.1 139.8 44.4 139.8 38.5 C 139.8 32.6 143.1 29 147.7 29 C 149.8 29 152.5 30.1 153.7 32.3 C 153.7 32.3 153.7 28.7 153.7 28.7 C 153.7 25.4 152.4 23.5 149.3 23.5 C 147.4 23.5 145.4 24.4 143.5 26.3 C 143.5 26.3 140.9 21.5 140.9 21.5 C 143.6 18.7 147.7 17.7 150.7 17.7 C 156.7 17.7 160.5 20.7 160.5 27.2 C 160.5 27.18 160.5 47.4 160.5 47.4 L 153.7 47.4 Z M 153.7 40.6 C 153.7 40.6 153.7 36.7 153.7 36.7 C 153 34.9 151.6 33.7 150.1 33.7 C 147.7 33.7 146.6 35.8 146.6 38.6 C 146.6 41.3 147.7 43.6 150.1 43.6 C 151.6 43.6 153 42.4 153.7 40.6 Z M 178.9 47.4 C 178.9 47.4 178.92 26.76 178.9 26.8 C 178.9 24.7 178.2 23.7 176.7 23.7 C 175 23.7 173.5 25.6 172.8 27.5 C 172.8 27.48 172.8 47.4 172.8 47.4 L 166 47.4 L 166 18.4 L 172.8 18.4 C 172.8 18.4 172.8 22.2 172.8 22.2 C 173.9 19.9 176.9 17.7 179.6 17.7 C 184 17.7 185.8 20.3 185.8 24.3 C 185.76 24.3 185.8 47.4 185.8 47.4 L 178.9 47.4 Z M 190.4 10.9 C 190.4 8.6 192.4 6.8 194.6 6.8 C 196.9 6.8 198.7 8.6 198.7 10.9 C 198.7 13.2 196.9 15 194.6 15 C 192.4 15 190.4 13.2 190.4 10.9 Z M 191.2 47.4 L 191.2 18.4 L 198 18.4 L 198 47.4 L 191.2 47.4 Z M 204.4 40.7 C 204.36 40.74 204.4 24.3 204.4 24.3 L 201.7 24.3 L 201.7 18.4 L 204.4 18.4 L 204.4 10.5 L 211.1 10.5 L 211.1 18.4 L 214.8 18.4 L 214.8 24.3 L 211.1 24.3 C 211.1 24.3 211.14 39.42 211.1 39.4 C 211.1 41.2 211.6 42.1 212.8 42.1 C 213.4 42.1 214 41.8 214.4 41.3 C 214.4 41.3 215.8 46.6 215.8 46.6 C 214.7 47.5 213.1 48.1 211 48.1 C 206.3 48.1 204.4 45.7 204.4 40.7 Z M 231.5 47.4 C 231.5 47.4 231.54 44.64 231.5 44.6 C 230.3 46.9 227.6 48.1 225.5 48.1 C 220.9 48.1 217.6 44.4 217.6 38.5 C 217.6 32.6 220.9 29 225.5 29 C 227.6 29 230.3 30.1 231.5 32.3 C 231.5 32.3 231.5 28.7 231.5 28.7 C 231.5 25.4 230.2 23.5 227.2 23.5 C 225.2 23.5 223.2 24.4 221.3 26.3 C 221.3 26.3 218.8 21.5 218.8 21.5 C 221.4 18.7 225.5 17.7 228.5 17.7 C 234.5 17.7 238.3 20.7 238.3 27.2 C 238.32 27.18 238.3 47.4 238.3 47.4 L 231.5 47.4 Z M 231.5 40.6 C 231.5 40.6 231.5 36.7 231.5 36.7 C 230.8 34.9 229.4 33.7 227.9 33.7 C 225.5 33.7 224.4 35.8 224.4 38.6 C 224.4 41.3 225.5 43.6 227.9 43.6 C 229.4 43.6 230.8 42.4 231.5 40.6 Z M 243.8 47.4 L 243.8 18.4 L 250.6 18.4 C 250.6 18.4 250.62 22.44 250.6 22.4 C 251.8 19.8 254.6 17.7 257.1 17.7 C 257.1 17.7 257.1 24.4 257.1 24.4 C 256.7 24.2 256.2 24.2 255.8 24.2 C 253.8 24.2 251.8 25.8 250.6 27.9 C 250.62 27.9 250.6 47.4 250.6 47.4 L 243.8 47.4 Z M 261.2 52.9 C 261.7 53 262.3 53.2 262.6 53.2 C 263.9 53.2 264.6 52.6 265 51.1 C 265.02 51.12 265.9 48.1 265.9 48.1 L 258 18.4 L 265.2 18.4 L 269.3 38.8 L 273.5 18.4 L 280.6 18.4 C 280.6 18.4 271.5 52.5 271.5 52.5 C 270.1 57.8 267.7 59.2 263.5 59.2 C 262.6 59.2 260.9 59 260.3 58.7 C 260.3 58.7 261.2 52.9 261.2 52.9 Z M 293.6 47.4 L 293.6 7.4 C 293.6 7.4 304.37 7.38 304.4 7.4 C 312.2 7.4 315.7 13.3 315.7 20 C 315.7 26.8 312.2 32.7 304.4 32.7 C 304.37 32.7 301.1 32.7 301.1 32.7 L 301.1 47.4 L 293.6 47.4 Z M 308 20 C 308 16.4 306.4 14 303.6 14 C 303.59 14.04 301.1 14 301.1 14 L 301.1 26 C 301.1 26 303.59 26.04 303.6 26 C 306.4 26 308 23.6 308 20 Z M 331.4 47.4 C 331.4 47.4 331.37 44.64 331.4 44.6 C 330.1 46.9 327.4 48.1 325.3 48.1 C 320.8 48.1 317.5 44.4 317.5 38.5 C 317.5 32.6 320.8 29 325.3 29 C 327.4 29 330.2 30.1 331.4 32.3 C 331.4 32.3 331.4 28.7 331.4 28.7 C 331.4 25.4 330.1 23.5 327 23.5 C 325.1 23.5 323 24.4 321.1 26.3 C 321.1 26.3 318.6 21.5 318.6 21.5 C 321.2 18.7 325.4 17.7 328.4 17.7 C 334.3 17.7 338.2 20.7 338.2 27.2 C 338.15 27.18 338.2 47.4 338.2 47.4 L 331.4 47.4 Z M 331.4 40.6 C 331.4 40.6 331.4 36.7 331.4 36.7 C 330.7 34.9 329.2 33.7 327.7 33.7 C 325.4 33.7 324.2 35.8 324.2 38.6 C 324.2 41.3 325.4 43.6 327.7 43.6 C 329.2 43.6 330.7 42.4 331.4 40.6 Z M 356.8 47.4 C 356.8 47.4 356.75 43.8 356.8 43.8 C 355.5 46.7 353.2 48.1 351.1 48.1 C 345.4 48.1 342.5 42.2 342.5 32.9 C 342.5 23.8 345.4 17.7 351.1 17.7 C 353.2 17.7 355.6 19 356.8 22 C 356.75 22.02 356.8 7.4 356.8 7.4 L 363.5 7.4 L 363.5 47.4 L 356.8 47.4 Z M 356.8 38.6 C 356.8 38.6 356.8 27.2 356.8 27.2 C 356.2 25.3 354.8 23.7 353.3 23.7 C 350.3 23.7 349.5 27.8 349.5 32.9 C 349.5 38 350.3 42.1 353.3 42.1 C 354.8 42.1 356.2 40.6 356.8 38.6 Z M 379.2 47.4 L 379.2 7.4 C 379.2 7.4 389.99 7.38 390 7.4 C 397.8 7.4 401.3 13.3 401.3 20 C 401.3 26.8 397.8 32.7 390 32.7 C 389.99 32.7 386.8 32.7 386.8 32.7 L 386.8 47.4 L 379.2 47.4 Z M 393.6 20 C 393.6 16.4 392 14 389.2 14 C 389.21 14.04 386.8 14 386.8 14 L 386.8 26 C 386.8 26 389.21 26.04 389.2 26 C 392 26 393.6 23.6 393.6 20 Z M 418.2 47.4 C 418.2 47.4 418.19 43.74 418.2 43.7 C 417.1 46.1 414.2 48.1 411.4 48.1 C 407 48.1 405.3 45.7 405.3 41.6 C 405.29 41.58 405.3 18.4 405.3 18.4 L 412.1 18.4 C 412.1 18.4 412.07 39.18 412.1 39.2 C 412.1 41.2 412.8 42.1 414.3 42.1 C 416 42.1 417.5 40.3 418.2 38.5 C 418.19 38.46 418.2 18.4 418.2 18.4 L 425 18.4 L 425 47.4 L 418.2 47.4 Z M 430.5 47.4 L 430.5 18.4 L 437.3 18.4 C 437.3 18.4 437.27 22.44 437.3 22.4 C 438.4 19.8 441.2 17.7 443.8 17.7 C 443.8 17.7 443.8 24.4 443.8 24.4 C 443.3 24.2 442.9 24.2 442.4 24.2 C 440.5 24.2 438.4 25.8 437.3 27.9 C 437.27 27.9 437.3 47.4 437.3 47.4 L 430.5 47.4 Z M 458.7 14 L 454.4 14 L 459.1 5.4 L 465.1 5.4 L 458.7 14 Z M 446.2 32.9 C 446.2 24.5 449.8 17.7 457 17.7 C 464.3 17.7 467.4 24.2 467.4 32.8 C 467.39 32.76 467.4 35.1 467.4 35.1 C 467.4 35.1 452.69 35.1 452.7 35.1 C 452.8 39.4 454.6 42.6 458.4 42.6 C 460 42.6 461.9 41.5 463.2 39.7 C 463.2 39.7 466.5 43.5 466.5 43.5 C 464.2 46.4 461 48.1 457.7 48.1 C 450.1 48.1 446.2 41.8 446.2 32.9 Z M 456.8 23.2 C 453.5 23.2 452.7 27.3 452.7 30.4 C 452.7 30.4 460.9 30.4 460.9 30.4 C 460.9 27.1 460.1 23.2 456.8 23.2 Z M 470.4 32.9 C 470.4 24.5 474 17.7 481.3 17.7 C 488.6 17.7 491.6 24.2 491.6 32.8 C 491.63 32.76 491.6 35.1 491.6 35.1 C 491.6 35.1 476.93 35.1 476.9 35.1 C 477 39.4 478.8 42.6 482.6 42.6 C 484.3 42.6 486.1 41.5 487.4 39.7 C 487.4 39.7 490.7 43.5 490.7 43.5 C 488.5 46.4 485.2 48.1 481.9 48.1 C 474.4 48.1 470.4 41.8 470.4 32.9 Z M 481.1 23.2 C 477.8 23.2 476.9 27.3 476.9 30.4 C 476.9 30.4 485.1 30.4 485.1 30.4 C 485.1 27.1 484.4 23.2 481.1 23.2 Z " stroke="none" fill="#b13d24"/>  </g></svg>