<?xml version="1.0" standalone="no"?><!DOCTYPE svg PUBLIC "-//W3C//DTD SVG 1.1//EN" "http://www.w3.org/Graphics/SVG/1.1/DTD/svg11.dtd"><svg xmlns="http://www.w3.org/2000/svg" version="1.1" width="682px" height="104px" viewBox="0 0 682 104">  <desc>A plate of chicken rice, Thomson, Singapore, circa February 2020 (recovered)</desc>  <defs/>  <g id="Polygon137778">    <path d="M 106.4 74 L 106.4 59.7 L 102.6 59.7 L 102.6 58 L 112.1 58 L 112.1 59.7 L 108.3 59.7 L 108.3 74 L 106.4 74 Z M 120.6 74 C 120.6 74 120.59 65.75 120.6 65.7 C 120.6 64.2 119.9 63.7 118.7 63.7 C 117.6 63.7 116.5 64.6 116 65.5 C 116.01 65.53 116 74 116 74 L 114.3 74 L 114.3 58 L 116 58 C 116 58 116.01 64.09 116 64.1 C 116.7 63.1 118 62.1 119.4 62.1 C 121.4 62.1 122.3 63.1 122.3 65.2 C 122.3 65.24 122.3 74 122.3 74 L 120.6 74 Z M 124.9 68.2 C 124.9 65 126.5 62.1 129.6 62.1 C 132.7 62.1 134.3 65 134.3 68.2 C 134.3 71.5 132.7 74.3 129.6 74.3 C 126.5 74.3 124.9 71.5 124.9 68.2 Z M 132.5 68.2 C 132.5 65.9 131.6 63.7 129.6 63.7 C 127.6 63.7 126.7 65.9 126.7 68.2 C 126.7 70.6 127.6 72.8 129.6 72.8 C 131.6 72.8 132.5 70.6 132.5 68.2 Z M 148.6 74 C 148.6 74 148.63 65.63 148.6 65.6 C 148.6 64.4 148.1 63.7 147 63.7 C 146 63.7 145 64.6 144.5 65.5 C 144.5 65.53 144.5 74 144.5 74 L 142.8 74 C 142.8 74 142.77 65.63 142.8 65.6 C 142.8 64.4 142.3 63.7 141.1 63.7 C 140.1 63.7 139.1 64.6 138.6 65.5 C 138.62 65.53 138.6 74 138.6 74 L 136.9 74 L 136.9 62.4 L 138.6 62.4 C 138.6 62.4 138.62 64.09 138.6 64.1 C 139.1 63.2 140.4 62.1 141.8 62.1 C 143.3 62.1 144.2 63 144.4 64.2 C 145 63.2 146.3 62.1 147.7 62.1 C 149.4 62.1 150.4 63.1 150.4 65.2 C 150.35 65.17 150.4 74 150.4 74 L 148.6 74 Z M 152.6 72.7 C 152.6 72.7 153.4 71.5 153.4 71.5 C 154.1 72.3 155.2 72.9 156.5 72.9 C 157.8 72.9 158.7 72.2 158.7 71 C 158.7 68.3 152.9 69.3 152.9 65.3 C 152.9 63.5 154.3 62.1 156.6 62.1 C 158.2 62.1 159.3 62.7 160.1 63.6 C 160.1 63.6 159.3 64.8 159.3 64.8 C 158.8 64 157.8 63.5 156.6 63.5 C 155.4 63.5 154.6 64.3 154.6 65.2 C 154.6 67.7 160.4 66.8 160.4 71 C 160.4 72.9 158.9 74.3 156.5 74.3 C 154.9 74.3 153.5 73.8 152.6 72.7 Z M 162.2 68.2 C 162.2 65 163.9 62.1 166.9 62.1 C 170.1 62.1 171.7 65 171.7 68.2 C 171.7 71.5 170.1 74.3 166.9 74.3 C 163.9 74.3 162.2 71.5 162.2 68.2 Z M 169.9 68.2 C 169.9 65.9 169 63.7 166.9 63.7 C 164.9 63.7 164 65.9 164 68.2 C 164 70.6 164.9 72.8 166.9 72.8 C 169 72.8 169.9 70.6 169.9 68.2 Z M 180.5 74 C 180.5 74 180.52 65.77 180.5 65.8 C 180.5 64.2 179.8 63.7 178.7 63.7 C 177.5 63.7 176.5 64.6 176 65.5 C 175.96 65.53 176 74 176 74 L 174.3 74 L 174.3 62.4 L 176 62.4 C 176 62.4 175.96 64.09 176 64.1 C 176.6 63.1 177.9 62.1 179.3 62.1 C 181.3 62.1 182.2 63.2 182.2 65.3 C 182.25 65.29 182.2 74 182.2 74 L 180.5 74 Z M 186.1 77 C 186.1 77 185.2 76.4 185.2 76.4 C 186 75.8 186.6 74.9 186.7 74.1 C 186.7 74.1 186.5 74.1 186.4 74.1 C 185.8 74.1 185.3 73.6 185.3 73 C 185.3 72.3 185.8 71.7 186.5 71.7 C 187.3 71.7 188 72.3 188 73.5 C 188 74.9 187.1 76.3 186.1 77 Z M 195.2 72.3 C 195.2 72.3 196.2 70.8 196.2 70.8 C 197 71.8 198.4 72.6 199.9 72.6 C 202 72.6 202.9 71.4 202.9 70 C 202.9 66.1 195.6 67.1 195.6 62 C 195.6 59.5 197.6 57.8 200.2 57.8 C 202 57.8 203.4 58.4 204.5 59.4 C 204.5 59.4 203.5 60.9 203.5 60.9 C 202.6 59.9 201.4 59.5 200.2 59.5 C 198.7 59.5 197.6 60.4 197.6 61.9 C 197.6 65.2 204.8 64.5 204.8 69.9 C 204.8 72.2 203.2 74.3 199.9 74.3 C 197.8 74.3 196.2 73.5 195.2 72.3 Z M 207 59.6 C 207 58.9 207.5 58.4 208.2 58.4 C 208.8 58.4 209.3 58.9 209.3 59.6 C 209.3 60.2 208.8 60.8 208.2 60.8 C 207.5 60.8 207 60.2 207 59.6 Z M 207.3 74 L 207.3 62.4 L 209 62.4 L 209 74 L 207.3 74 Z M 218.5 74 C 218.5 74 218.46 65.77 218.5 65.8 C 218.5 64.2 217.8 63.7 216.6 63.7 C 215.5 63.7 214.4 64.6 213.9 65.5 C 213.9 65.53 213.9 74 213.9 74 L 212.2 74 L 212.2 62.4 L 213.9 62.4 C 213.9 62.4 213.9 64.09 213.9 64.1 C 214.6 63.1 215.9 62.1 217.3 62.1 C 219.2 62.1 220.2 63.2 220.2 65.3 C 220.19 65.29 220.2 74 220.2 74 L 218.5 74 Z M 223.3 77.3 C 223.3 77.3 224.1 75.9 224.1 75.9 C 224.8 76.8 225.8 77.3 227.1 77.3 C 228.7 77.3 230 76.4 230 74.1 C 230 74.1 230 72.2 230 72.2 C 229.3 73.4 228.2 74.2 226.9 74.2 C 224.3 74.2 222.8 71.8 222.8 68.2 C 222.8 64.6 224.3 62.1 226.9 62.1 C 228.1 62.1 229.3 62.8 230 64.1 C 229.98 64.11 230 62.4 230 62.4 L 231.7 62.4 C 231.7 62.4 231.71 74 231.7 74 C 231.7 77.6 229.6 78.7 227.1 78.7 C 225.6 78.7 224.4 78.4 223.3 77.3 Z M 230 70.7 C 230 70.7 230 65.6 230 65.6 C 229.6 64.6 228.5 63.7 227.4 63.7 C 225.5 63.7 224.6 65.7 224.6 68.2 C 224.6 70.7 225.5 72.6 227.4 72.6 C 228.5 72.6 229.6 71.7 230 70.7 Z M 240.8 74 C 240.8 74 240.81 72.78 240.8 72.8 C 240.1 73.8 238.9 74.3 237.8 74.3 C 235.9 74.3 234.3 72.9 234.3 70.4 C 234.3 68 235.9 66.6 237.8 66.6 C 238.9 66.6 240.1 67.1 240.8 68.1 C 240.8 68.1 240.8 66.1 240.8 66.1 C 240.8 64.5 239.9 63.6 238.4 63.6 C 237.4 63.6 236.4 64 235.5 65 C 235.5 65 234.8 63.8 234.8 63.8 C 235.9 62.7 237.2 62.1 238.7 62.1 C 241 62.1 242.5 63.3 242.5 65.9 C 242.54 65.91 242.5 74 242.5 74 L 240.8 74 Z M 240.8 71.6 C 240.8 71.6 240.8 69.4 240.8 69.4 C 240.3 68.4 239.3 67.9 238.3 67.9 C 236.9 67.9 236 69 236 70.5 C 236 71.9 236.9 73.1 238.3 73.1 C 239.3 73.1 240.3 72.6 240.8 71.6 Z M 247.4 72.3 C 247.38 72.35 247.4 78.4 247.4 78.4 L 245.7 78.4 L 245.7 62.4 L 247.4 62.4 C 247.4 62.4 247.38 64.09 247.4 64.1 C 248.1 62.9 249.2 62.1 250.4 62.1 C 253 62.1 254.6 64.6 254.6 68.2 C 254.6 71.8 253 74.3 250.4 74.3 C 249.3 74.3 248.1 73.6 247.4 72.3 Z M 252.8 68.2 C 252.8 65.7 251.9 63.7 250 63.7 C 248.9 63.7 247.8 64.5 247.4 65.6 C 247.4 65.6 247.4 70.9 247.4 70.9 C 247.8 71.9 248.9 72.8 250 72.8 C 251.9 72.8 252.8 70.7 252.8 68.2 Z M 256.6 68.2 C 256.6 65 258.2 62.1 261.3 62.1 C 264.4 62.1 266 65 266 68.2 C 266 71.5 264.4 74.3 261.3 74.3 C 258.2 74.3 256.6 71.5 256.6 68.2 Z M 264.2 68.2 C 264.2 65.9 263.3 63.7 261.3 63.7 C 259.3 63.7 258.4 65.9 258.4 68.2 C 258.4 70.6 259.3 72.8 261.3 72.8 C 263.3 72.8 264.2 70.6 264.2 68.2 Z M 268.6 74 L 268.6 62.4 L 270.3 62.4 C 270.3 62.4 270.3 64.28 270.3 64.3 C 271 63.1 272.2 62.2 273.6 62.2 C 273.6 62.2 273.6 64 273.6 64 C 273.4 63.9 273.2 63.9 273 63.9 C 272 63.9 270.8 64.8 270.3 65.8 C 270.3 65.79 270.3 74 270.3 74 L 268.6 74 Z M 275 68.2 C 275 64.9 276.8 62.1 279.7 62.1 C 282.8 62.1 284.3 64.9 284.3 68.3 C 284.3 68.27 284.3 68.8 284.3 68.8 C 284.3 68.8 276.78 68.79 276.8 68.8 C 276.9 71.1 278.1 72.9 280.1 72.9 C 281.1 72.9 282.2 72.4 282.9 71.5 C 282.9 71.5 283.8 72.5 283.8 72.5 C 282.9 73.6 281.5 74.3 280 74.3 C 276.9 74.3 275 71.8 275 68.2 Z M 279.7 63.6 C 277.6 63.6 276.8 65.8 276.8 67.5 C 276.8 67.5 282.6 67.5 282.6 67.5 C 282.6 65.7 281.8 63.6 279.7 63.6 Z M 287.4 77 C 287.4 77 286.5 76.4 286.5 76.4 C 287.3 75.8 287.9 74.9 288 74.1 C 288 74.1 287.8 74.1 287.7 74.1 C 287.1 74.1 286.6 73.6 286.6 73 C 286.6 72.3 287.1 71.7 287.8 71.7 C 288.6 71.7 289.3 72.3 289.3 73.5 C 289.3 74.9 288.4 76.3 287.4 77 Z M 296.8 68.2 C 296.8 64.8 298.6 62.1 301.6 62.1 C 303.2 62.1 304.2 62.8 304.9 63.7 C 304.9 63.7 304 64.9 304 64.9 C 303.3 64 302.6 63.7 301.7 63.7 C 299.7 63.7 298.6 65.7 298.6 68.2 C 298.6 70.7 299.7 72.8 301.7 72.8 C 302.6 72.8 303.3 72.4 304 71.6 C 304 71.6 304.9 72.8 304.9 72.8 C 304.2 73.7 303.2 74.3 301.6 74.3 C 298.6 74.3 296.8 71.6 296.8 68.2 Z M 306.8 59.6 C 306.8 58.9 307.3 58.4 307.9 58.4 C 308.6 58.4 309.1 58.9 309.1 59.6 C 309.1 60.2 308.6 60.8 307.9 60.8 C 307.3 60.8 306.8 60.2 306.8 59.6 Z M 307.1 74 L 307.1 62.4 L 308.8 62.4 L 308.8 74 L 307.1 74 Z M 312 74 L 312 62.4 L 313.7 62.4 C 313.7 62.4 313.67 64.28 313.7 64.3 C 314.4 63.1 315.5 62.2 317 62.2 C 317 62.2 317 64 317 64 C 316.8 63.9 316.6 63.9 316.4 63.9 C 315.3 63.9 314.2 64.8 313.7 65.8 C 313.67 65.79 313.7 74 313.7 74 L 312 74 Z M 318.4 68.2 C 318.4 64.8 320.2 62.1 323.2 62.1 C 324.8 62.1 325.8 62.8 326.5 63.7 C 326.5 63.7 325.5 64.9 325.5 64.9 C 324.9 64 324.2 63.7 323.3 63.7 C 321.3 63.7 320.2 65.7 320.2 68.2 C 320.2 70.7 321.3 72.8 323.3 72.8 C 324.2 72.8 324.9 72.4 325.5 71.6 C 325.5 71.6 326.5 72.8 326.5 72.8 C 325.8 73.7 324.8 74.3 323.2 74.3 C 320.2 74.3 318.4 71.6 318.4 68.2 Z M 334.6 74 C 334.6 74 334.65 72.78 334.6 72.8 C 333.9 73.8 332.8 74.3 331.6 74.3 C 329.7 74.3 328.1 72.9 328.1 70.4 C 328.1 68 329.7 66.6 331.6 66.6 C 332.8 66.6 333.9 67.1 334.6 68.1 C 334.6 68.1 334.6 66.1 334.6 66.1 C 334.6 64.5 333.8 63.6 332.3 63.6 C 331.2 63.6 330.3 64 329.4 65 C 329.4 65 328.6 63.8 328.6 63.8 C 329.7 62.7 331.1 62.1 332.5 62.1 C 334.8 62.1 336.4 63.3 336.4 65.9 C 336.37 65.91 336.4 74 336.4 74 L 334.6 74 Z M 334.6 71.6 C 334.6 71.6 334.6 69.4 334.6 69.4 C 334.1 68.4 333.2 67.9 332.1 67.9 C 330.7 67.9 329.8 69 329.8 70.5 C 329.8 71.9 330.7 73.1 332.1 73.1 C 333.2 73.1 334.1 72.6 334.6 71.6 Z M 344.8 74 L 344.8 58 L 353 58 L 353 59.7 L 346.7 59.7 L 346.7 65 L 352.8 65 L 352.8 66.7 L 346.7 66.7 L 346.7 74 L 344.8 74 Z M 354.9 68.2 C 354.9 64.9 356.7 62.1 359.6 62.1 C 362.7 62.1 364.2 64.9 364.2 68.3 C 364.21 68.27 364.2 68.8 364.2 68.8 C 364.2 68.8 356.7 68.79 356.7 68.8 C 356.8 71.1 358 72.9 360 72.9 C 361 72.9 362.1 72.4 362.8 71.5 C 362.8 71.5 363.7 72.5 363.7 72.5 C 362.8 73.6 361.5 74.3 359.9 74.3 C 356.8 74.3 354.9 71.8 354.9 68.2 Z M 359.6 63.6 C 357.6 63.6 356.7 65.8 356.7 67.5 C 356.7 67.5 362.5 67.5 362.5 67.5 C 362.5 65.7 361.7 63.6 359.6 63.6 Z M 371.1 72.8 C 372.9 72.8 373.8 70.7 373.8 68.2 C 373.8 65.7 372.9 63.7 371.1 63.7 C 370 63.7 368.9 64.6 368.4 65.6 C 368.4 65.6 368.4 70.9 368.4 70.9 C 368.9 71.9 370 72.8 371.1 72.8 Z M 366.7 74 L 366.7 58 L 368.4 58 C 368.4 58 368.44 64.11 368.4 64.1 C 369.2 62.8 370.3 62.1 371.5 62.1 C 374.1 62.1 375.6 64.6 375.6 68.2 C 375.6 71.9 374.1 74.3 371.5 74.3 C 370.3 74.3 369.1 73.5 368.4 72.4 C 368.44 72.37 368.4 74 368.4 74 L 366.7 74 Z M 378.3 74 L 378.3 62.4 L 380 62.4 C 380 62.4 379.96 64.28 380 64.3 C 380.7 63.1 381.8 62.2 383.2 62.2 C 383.2 62.2 383.2 64 383.2 64 C 383.1 63.9 382.9 63.9 382.7 63.9 C 381.6 63.9 380.4 64.8 380 65.8 C 379.96 65.79 380 74 380 74 L 378.3 74 Z M 391.5 74 C 391.5 74 391.5 72.42 391.5 72.4 C 390.8 73.4 389.6 74.3 388.1 74.3 C 386.2 74.3 385.2 73.3 385.2 71.2 C 385.24 71.22 385.2 62.4 385.2 62.4 L 386.9 62.4 C 386.9 62.4 386.94 70.71 386.9 70.7 C 386.9 72.2 387.7 72.8 388.8 72.8 C 389.9 72.8 391 71.9 391.5 71 C 391.5 70.98 391.5 62.4 391.5 62.4 L 393.2 62.4 L 393.2 74 L 391.5 74 Z M 402.3 74 C 402.3 74 402.35 72.78 402.3 72.8 C 401.6 73.8 400.5 74.3 399.3 74.3 C 397.4 74.3 395.8 72.9 395.8 70.4 C 395.8 68 397.4 66.6 399.3 66.6 C 400.5 66.6 401.6 67.1 402.3 68.1 C 402.3 68.1 402.3 66.1 402.3 66.1 C 402.3 64.5 401.5 63.6 400 63.6 C 398.9 63.6 398 64 397.1 65 C 397.1 65 396.3 63.8 396.3 63.8 C 397.4 62.7 398.8 62.1 400.2 62.1 C 402.5 62.1 404.1 63.3 404.1 65.9 C 404.08 65.91 404.1 74 404.1 74 L 402.3 74 Z M 402.3 71.6 C 402.3 71.6 402.3 69.4 402.3 69.4 C 401.8 68.4 400.9 67.9 399.9 67.9 C 398.4 67.9 397.5 69 397.5 70.5 C 397.5 71.9 398.4 73.1 399.9 73.1 C 400.9 73.1 401.8 72.6 402.3 71.6 Z M 407.2 74 L 407.2 62.4 L 408.9 62.4 C 408.9 62.4 408.92 64.28 408.9 64.3 C 409.7 63.1 410.8 62.2 412.2 62.2 C 412.2 62.2 412.2 64 412.2 64 C 412 63.9 411.8 63.9 411.6 63.9 C 410.6 63.9 409.4 64.8 408.9 65.8 C 408.92 65.79 408.9 74 408.9 74 L 407.2 74 Z M 413.9 77 C 414.1 77.1 414.4 77.2 414.6 77.2 C 415.3 77.2 415.7 76.9 416 76 C 416 76.04 416.6 74.3 416.6 74.3 L 412.8 62.4 L 414.6 62.4 L 417.5 71.9 L 420.4 62.4 L 422.3 62.4 C 422.3 62.4 417.64 76.47 417.6 76.5 C 417.1 78.2 416.1 78.7 414.8 78.7 C 414.4 78.7 413.9 78.7 413.6 78.6 C 413.6 78.6 413.9 77 413.9 77 Z M 428.8 74 C 428.8 74 428.84 72.47 428.8 72.5 C 434.1 66.4 435.9 64.5 435.9 62.1 C 435.9 60.4 434.7 59.5 433.3 59.5 C 431.8 59.5 430.7 60.2 429.9 61.5 C 429.9 61.5 428.7 60.3 428.7 60.3 C 429.7 58.7 431.3 57.8 433.3 57.8 C 435.8 57.8 437.8 59.4 437.8 62.1 C 437.8 64.8 435.8 67.2 431.6 72.3 C 431.56 72.32 437.9 72.3 437.9 72.3 L 437.9 74 L 428.8 74 Z M 440.4 66 C 440.4 62.2 441.7 57.8 445.5 57.8 C 449.2 57.8 450.5 62.2 450.5 66 C 450.5 69.9 449.2 74.3 445.5 74.3 C 441.7 74.3 440.4 69.9 440.4 66 Z M 448.5 66 C 448.5 62.9 447.9 59.5 445.5 59.5 C 443 59.5 442.4 62.9 442.4 66 C 442.4 69.2 443 72.6 445.5 72.6 C 447.9 72.6 448.5 69.2 448.5 66 Z M 452.9 74 C 452.9 74 452.87 72.47 452.9 72.5 C 458.1 66.4 459.9 64.5 459.9 62.1 C 459.9 60.4 458.7 59.5 457.3 59.5 C 455.8 59.5 454.7 60.2 453.9 61.5 C 453.9 61.5 452.7 60.3 452.7 60.3 C 453.8 58.7 455.3 57.8 457.4 57.8 C 459.8 57.8 461.8 59.4 461.8 62.1 C 461.8 64.8 459.8 67.2 455.6 72.3 C 455.58 72.32 461.9 72.3 461.9 72.3 L 461.9 74 L 452.9 74 Z M 464.5 66 C 464.5 62.2 465.7 57.8 469.5 57.8 C 473.2 57.8 474.5 62.2 474.5 66 C 474.5 69.9 473.2 74.3 469.5 74.3 C 465.7 74.3 464.5 69.9 464.5 66 Z M 472.5 66 C 472.5 62.9 471.9 59.5 469.5 59.5 C 467 59.5 466.4 62.9 466.4 66 C 466.4 69.2 467 72.6 469.5 72.6 C 471.9 72.6 472.5 69.2 472.5 66 Z M 484.7 78.8 C 482.9 75.7 481.9 72.1 481.9 68.2 C 481.9 64.3 482.9 60.7 484.7 57.6 C 484.7 57.6 485.8 58.2 485.8 58.2 C 484.6 61.3 483.8 64.2 483.8 68.2 C 483.8 72.2 484.6 75.1 485.8 78.1 C 485.8 78.1 484.7 78.8 484.7 78.8 Z M 487.9 74 L 487.9 62.4 L 489.6 62.4 C 489.6 62.4 489.56 64.28 489.6 64.3 C 490.3 63.1 491.4 62.2 492.9 62.2 C 492.9 62.2 492.9 64 492.9 64 C 492.7 63.9 492.5 63.9 492.3 63.9 C 491.2 63.9 490 64.8 489.6 65.8 C 489.56 65.79 489.6 74 489.6 74 L 487.9 74 Z M 494.3 68.2 C 494.3 64.9 496 62.1 499 62.1 C 502 62.1 503.6 64.9 503.6 68.3 C 503.55 68.27 503.6 68.8 503.6 68.8 C 503.6 68.8 496.04 68.79 496 68.8 C 496.1 71.1 497.3 72.9 499.4 72.9 C 500.4 72.9 501.4 72.4 502.1 71.5 C 502.1 71.5 503.1 72.5 503.1 72.5 C 502.1 73.6 500.8 74.3 499.2 74.3 C 496.1 74.3 494.3 71.8 494.3 68.2 Z M 498.9 63.6 C 496.9 63.6 496.1 65.8 496 67.5 C 496 67.5 501.9 67.5 501.9 67.5 C 501.8 65.7 501.1 63.6 498.9 63.6 Z M 505.5 68.2 C 505.5 64.8 507.3 62.1 510.3 62.1 C 511.9 62.1 512.9 62.8 513.6 63.7 C 513.6 63.7 512.7 64.9 512.7 64.9 C 512 64 511.3 63.7 510.4 63.7 C 508.4 63.7 507.3 65.7 507.3 68.2 C 507.3 70.7 508.4 72.8 510.4 72.8 C 511.3 72.8 512 72.4 512.7 71.6 C 512.7 71.6 513.6 72.8 513.6 72.8 C 512.9 73.7 511.9 74.3 510.3 74.3 C 507.3 74.3 505.5 71.6 505.5 68.2 Z M 515.2 68.2 C 515.2 65 516.9 62.1 519.9 62.1 C 523.1 62.1 524.7 65 524.7 68.2 C 524.7 71.5 523.1 74.3 519.9 74.3 C 516.9 74.3 515.2 71.5 515.2 68.2 Z M 522.9 68.2 C 522.9 65.9 522 63.7 519.9 63.7 C 518 63.7 517 65.9 517 68.2 C 517 70.6 518 72.8 519.9 72.8 C 522 72.8 522.9 70.6 522.9 68.2 Z M 529.6 74 L 525.8 62.4 L 527.7 62.4 L 530.6 72 L 533.5 62.4 L 535.3 62.4 L 531.5 74 L 529.6 74 Z M 536.5 68.2 C 536.5 64.9 538.3 62.1 541.2 62.1 C 544.2 62.1 545.8 64.9 545.8 68.3 C 545.77 68.27 545.8 68.8 545.8 68.8 C 545.8 68.8 538.26 68.79 538.3 68.8 C 538.3 71.1 539.5 72.9 541.6 72.9 C 542.6 72.9 543.6 72.4 544.4 71.5 C 544.4 71.5 545.3 72.5 545.3 72.5 C 544.3 73.6 543 74.3 541.4 74.3 C 538.4 74.3 536.5 71.8 536.5 68.2 Z M 541.2 63.6 C 539.1 63.6 538.3 65.8 538.3 67.5 C 538.3 67.5 544.1 67.5 544.1 67.5 C 544 65.7 543.3 63.6 541.2 63.6 Z M 548.3 74 L 548.3 62.4 L 550 62.4 C 550 62.4 549.99 64.28 550 64.3 C 550.7 63.1 551.9 62.2 553.3 62.2 C 553.3 62.2 553.3 64 553.3 64 C 553.1 63.9 552.9 63.9 552.7 63.9 C 551.6 63.9 550.5 64.8 550 65.8 C 549.99 65.79 550 74 550 74 L 548.3 74 Z M 554.7 68.2 C 554.7 64.9 556.5 62.1 559.4 62.1 C 562.4 62.1 564 64.9 564 68.3 C 563.98 68.27 564 68.8 564 68.8 C 564 68.8 556.47 68.79 556.5 68.8 C 556.5 71.1 557.7 72.9 559.8 72.9 C 560.8 72.9 561.8 72.4 562.6 71.5 C 562.6 71.5 563.5 72.5 563.5 72.5 C 562.5 73.6 561.2 74.3 559.7 74.3 C 556.6 74.3 554.7 71.8 554.7 68.2 Z M 559.4 63.6 C 557.3 63.6 556.5 65.8 556.5 67.5 C 556.5 67.5 562.3 67.5 562.3 67.5 C 562.3 65.7 561.5 63.6 559.4 63.6 Z M 573.1 74 C 573.1 74 573.13 72.37 573.1 72.4 C 572.5 73.5 571.3 74.3 570.1 74.3 C 567.5 74.3 565.9 71.9 565.9 68.2 C 565.9 64.6 567.5 62.1 570.1 62.1 C 571.3 62.1 572.4 62.8 573.1 64.1 C 573.13 64.11 573.1 58 573.1 58 L 574.9 58 L 574.9 74 L 573.1 74 Z M 573.1 70.9 C 573.1 70.9 573.1 65.6 573.1 65.6 C 572.7 64.6 571.6 63.7 570.5 63.7 C 568.6 63.7 567.7 65.7 567.7 68.2 C 567.7 70.7 568.6 72.8 570.5 72.8 C 571.6 72.8 572.7 71.9 573.1 70.9 Z M 576.9 78.1 C 578.1 75.1 578.9 72.2 578.9 68.2 C 578.9 64.2 578.1 61.3 576.9 58.2 C 576.9 58.2 578 57.6 578 57.6 C 579.8 60.7 580.8 64.3 580.8 68.2 C 580.8 72.1 579.8 75.7 578 78.8 C 578 78.8 576.9 78.1 576.9 78.1 Z " stroke="none" fill="#7c7979"/>  </g>  <g id="Polygon137777">    <path d="M 228.4 44 L 227.1 39.5 L 220 39.5 L 218.7 44 L 216.2 44 L 222.2 24 L 225 24 L 231 44 L 228.4 44 Z M 223.6 26.7 L 220.5 37.4 L 226.6 37.4 L 223.6 26.7 Z M 241.8 41.9 C 241.81 41.93 241.8 49.5 241.8 49.5 L 239.7 49.5 L 239.7 29.5 L 241.8 29.5 C 241.8 29.5 241.81 31.61 241.8 31.6 C 242.6 30.1 244.1 29.2 245.6 29.2 C 248.9 29.2 250.8 32.2 250.8 36.8 C 250.8 41.3 248.9 44.4 245.6 44.4 C 244.1 44.4 242.7 43.5 241.8 41.9 Z M 248.6 36.8 C 248.6 33.6 247.4 31.1 245.1 31.1 C 243.7 31.1 242.4 32.2 241.8 33.4 C 241.8 33.4 241.8 40.1 241.8 40.1 C 242.4 41.3 243.7 42.5 245.1 42.5 C 247.4 42.5 248.6 39.9 248.6 36.8 Z M 254 44 L 254 24 L 256.1 24 L 256.1 44 L 254 44 Z M 267.5 44 C 267.5 44 267.55 42.47 267.5 42.5 C 266.6 43.8 265.2 44.4 263.7 44.4 C 261.4 44.4 259.4 42.6 259.4 39.6 C 259.4 36.5 261.4 34.8 263.7 34.8 C 265.2 34.8 266.6 35.4 267.5 36.6 C 267.5 36.6 267.5 34.1 267.5 34.1 C 267.5 32.1 266.5 31 264.6 31 C 263.2 31 262.1 31.5 260.9 32.8 C 260.9 32.8 260 31.3 260 31.3 C 261.4 29.8 263.1 29.2 264.9 29.2 C 267.8 29.2 269.7 30.6 269.7 33.9 C 269.71 33.89 269.7 44 269.7 44 L 267.5 44 Z M 267.5 41 C 267.5 41 267.5 38.2 267.5 38.2 C 266.9 37 265.7 36.4 264.4 36.4 C 262.6 36.4 261.5 37.8 261.5 39.6 C 261.5 41.4 262.6 42.8 264.4 42.8 C 265.7 42.8 266.9 42.2 267.5 41 Z M 274.1 41.1 C 274.06 41.12 274.1 31.4 274.1 31.4 L 272.1 31.4 L 272.1 29.5 L 274.1 29.5 L 274.1 25.6 L 276.2 25.6 L 276.2 29.5 L 278.7 29.5 L 278.7 31.4 L 276.2 31.4 C 276.2 31.4 276.22 40.73 276.2 40.7 C 276.2 41.8 276.5 42.5 277.4 42.5 C 277.9 42.5 278.4 42.2 278.6 41.9 C 278.6 41.9 279.3 43.5 279.3 43.5 C 278.8 44 278.1 44.4 277 44.4 C 275 44.4 274.1 43.3 274.1 41.1 Z M 280.8 36.8 C 280.8 32.6 283 29.2 286.7 29.2 C 290.5 29.2 292.4 32.6 292.4 36.8 C 292.42 36.83 292.4 37.5 292.4 37.5 C 292.4 37.5 283.03 37.49 283 37.5 C 283.1 40.4 284.6 42.6 287.2 42.6 C 288.5 42.6 289.7 42 290.6 40.8 C 290.6 40.8 291.8 42.1 291.8 42.1 C 290.6 43.5 289 44.4 287 44.4 C 283.1 44.4 280.8 41.2 280.8 36.8 Z M 286.7 31 C 284.1 31 283.1 33.8 283 35.9 C 283 35.9 290.3 35.9 290.3 35.9 C 290.3 33.7 289.3 31 286.7 31 Z M 301.3 36.8 C 301.3 32.7 303.3 29.2 307.2 29.2 C 311.1 29.2 313.1 32.7 313.1 36.8 C 313.1 40.8 311.1 44.4 307.2 44.4 C 303.3 44.4 301.3 40.8 301.3 36.8 Z M 310.8 36.8 C 310.8 33.9 309.7 31.1 307.2 31.1 C 304.7 31.1 303.5 33.9 303.5 36.8 C 303.5 39.7 304.7 42.5 307.2 42.5 C 309.7 42.5 310.8 39.7 310.8 36.8 Z M 316.8 44 L 316.8 31.4 L 314.9 31.4 L 314.9 29.5 L 316.8 29.5 C 316.8 29.5 316.84 27.77 316.8 27.8 C 316.8 25.2 318.2 23.7 320.5 23.7 C 321.4 23.7 322.3 24 323 24.7 C 323 24.7 322.2 26.2 322.2 26.2 C 321.8 25.8 321.4 25.5 320.8 25.5 C 319.6 25.5 319 26.4 319 27.8 C 319 27.77 319 29.5 319 29.5 L 321.5 29.5 L 321.5 31.4 L 319 31.4 L 319 44 L 316.8 44 Z M 329.7 36.8 C 329.7 32.5 332 29.2 335.7 29.2 C 337.7 29.2 338.9 30 339.8 31.1 C 339.8 31.1 338.6 32.6 338.6 32.6 C 337.9 31.5 337 31.1 335.9 31.1 C 333.3 31.1 331.9 33.7 331.9 36.8 C 331.9 39.9 333.3 42.5 335.9 42.5 C 337 42.5 337.9 42 338.6 41 C 338.6 41 339.8 42.5 339.8 42.5 C 338.9 43.6 337.7 44.4 335.7 44.4 C 332 44.4 329.7 41.1 329.7 36.8 Z M 350.4 44 C 350.4 44 350.44 33.68 350.4 33.7 C 350.4 31.8 349.5 31.1 348.1 31.1 C 346.7 31.1 345.4 32.2 344.7 33.4 C 344.71 33.41 344.7 44 344.7 44 L 342.6 44 L 342.6 24 L 344.7 24 C 344.7 24 344.71 31.61 344.7 31.6 C 345.5 30.3 347.2 29.2 348.9 29.2 C 351.4 29.2 352.6 30.4 352.6 33 C 352.57 33.05 352.6 44 352.6 44 L 350.4 44 Z M 356.1 26 C 356.1 25.2 356.8 24.5 357.6 24.5 C 358.4 24.5 359 25.2 359 26 C 359 26.8 358.4 27.4 357.6 27.4 C 356.8 27.4 356.1 26.8 356.1 26 Z M 356.5 44 L 356.5 29.5 L 358.7 29.5 L 358.7 44 L 356.5 44 Z M 361.9 36.8 C 361.9 32.5 364.2 29.2 367.9 29.2 C 369.9 29.2 371.1 30 372 31.1 C 372 31.1 370.9 32.6 370.9 32.6 C 370.1 31.5 369.2 31.1 368.1 31.1 C 365.5 31.1 364.1 33.7 364.1 36.8 C 364.1 39.9 365.5 42.5 368.1 42.5 C 369.2 42.5 370.1 42 370.9 41 C 370.9 41 372 42.5 372 42.5 C 371.1 43.6 369.9 44.4 367.9 44.4 C 364.2 44.4 361.9 41.1 361.9 36.8 Z M 383 44 L 379 37.5 L 376.9 40.1 L 376.9 44 L 374.8 44 L 374.8 24 L 376.9 24 L 376.9 37.4 L 383 29.5 L 385.5 29.5 L 380.4 36 L 385.5 44 L 383 44 Z M 387.1 36.8 C 387.1 32.6 389.3 29.2 393 29.2 C 396.8 29.2 398.7 32.6 398.7 36.8 C 398.71 36.83 398.7 37.5 398.7 37.5 C 398.7 37.5 389.32 37.49 389.3 37.5 C 389.4 40.4 390.9 42.6 393.5 42.6 C 394.7 42.6 396 42 396.9 40.8 C 396.9 40.8 398.1 42.1 398.1 42.1 C 396.9 43.5 395.3 44.4 393.3 44.4 C 389.4 44.4 387.1 41.2 387.1 36.8 Z M 392.9 31 C 390.4 31 389.4 33.8 389.3 35.9 C 389.3 35.9 396.6 35.9 396.6 35.9 C 396.5 33.7 395.6 31 392.9 31 Z M 409.7 44 C 409.7 44 409.69 33.71 409.7 33.7 C 409.7 31.8 408.8 31.1 407.4 31.1 C 406 31.1 404.6 32.2 404 33.4 C 403.99 33.41 404 44 404 44 L 401.9 44 L 401.9 29.5 L 404 29.5 C 404 29.5 403.99 31.61 404 31.6 C 404.8 30.3 406.4 29.2 408.2 29.2 C 410.6 29.2 411.8 30.5 411.8 33.1 C 411.85 33.11 411.8 44 411.8 44 L 409.7 44 Z M 422.3 44 L 422.3 29.5 L 424.4 29.5 C 424.4 29.5 424.39 31.85 424.4 31.8 C 425.3 30.3 426.7 29.2 428.5 29.2 C 428.5 29.2 428.5 31.5 428.5 31.5 C 428.3 31.4 428 31.4 427.8 31.4 C 426.5 31.4 425 32.5 424.4 33.7 C 424.39 33.74 424.4 44 424.4 44 L 422.3 44 Z M 430.6 26 C 430.6 25.2 431.3 24.5 432 24.5 C 432.8 24.5 433.5 25.2 433.5 26 C 433.5 26.8 432.8 27.4 432 27.4 C 431.3 27.4 430.6 26.8 430.6 26 Z M 431 44 L 431 29.5 L 433.1 29.5 L 433.1 44 L 431 44 Z M 436.4 36.8 C 436.4 32.5 438.6 29.2 442.4 29.2 C 444.4 29.2 445.6 30 446.5 31.1 C 446.5 31.1 445.3 32.6 445.3 32.6 C 444.5 31.5 443.6 31.1 442.5 31.1 C 440 31.1 438.6 33.7 438.6 36.8 C 438.6 39.9 440 42.5 442.5 42.5 C 443.6 42.5 444.5 42 445.3 41 C 445.3 41 446.5 42.5 446.5 42.5 C 445.6 43.6 444.4 44.4 442.4 44.4 C 438.6 44.4 436.4 41.1 436.4 36.8 Z M 448.5 36.8 C 448.5 32.6 450.8 29.2 454.4 29.2 C 458.2 29.2 460.1 32.6 460.1 36.8 C 460.14 36.83 460.1 37.5 460.1 37.5 C 460.1 37.5 450.75 37.49 450.8 37.5 C 450.8 40.4 452.3 42.6 454.9 42.6 C 456.2 42.6 457.5 42 458.4 40.8 C 458.4 40.8 459.5 42.1 459.5 42.1 C 458.3 43.5 456.7 44.4 454.7 44.4 C 450.9 44.4 448.5 41.2 448.5 36.8 Z M 454.4 31 C 451.8 31 450.8 33.8 450.8 35.9 C 450.8 35.9 458 35.9 458 35.9 C 458 33.7 457 31 454.4 31 Z M 464 47.8 C 464 47.8 462.9 46.9 462.9 46.9 C 463.9 46.3 464.7 45.1 464.8 44.1 C 464.8 44.1 464.6 44.2 464.4 44.2 C 463.6 44.2 463 43.5 463 42.7 C 463 41.8 463.7 41.1 464.6 41.1 C 465.5 41.1 466.4 41.9 466.4 43.4 C 466.4 45.2 465.3 46.8 464 47.8 Z " stroke="none" fill="#a8a6a6"/>  </g></svg>