<?xml version="1.0" standalone="no"?><!DOCTYPE svg PUBLIC "-//W3C//DTD SVG 1.1//EN" "http://www.w3.org/Graphics/SVG/1.1/DTD/svg11.dtd"><svg xmlns="http://www.w3.org/2000/svg" version="1.1" width="219px" height="295.3px" viewBox="0 0 219 295.3">  <desc>2402 03 38 11 145 62 153 95 96 83 133 07 61 61 2991 90</desc>  <defs/>  <g id="Polygon214738">    <path d="M 129.8 276.4 C 129.8 276.4 129.83 274.43 129.8 274.4 C 136.4 266.9 138.6 264.5 138.6 261.5 C 138.6 259.4 137.1 258.2 135.4 258.2 C 133.5 258.2 132.1 259.1 131.2 260.7 C 131.2 260.7 129.6 259.3 129.6 259.3 C 130.9 257.2 132.9 256.1 135.4 256.1 C 138.5 256.1 141 258 141 261.5 C 141 264.9 138.5 267.9 133.2 274.2 C 133.22 274.25 141.1 274.2 141.1 274.2 L 141.1 276.4 L 129.8 276.4 Z M 144.8 274.2 C 144.8 274.2 146.1 272.5 146.1 272.5 C 146.9 273.8 147.8 274.6 149.5 274.6 C 152.7 274.6 153.8 270.3 153.8 266.6 C 153.8 266.3 153.8 266.2 153.8 266 C 153.1 267.4 151.5 268.9 149.4 268.9 C 146.5 268.9 144.2 266.8 144.2 262.5 C 144.2 259.2 146.2 256 149.9 256 C 154.7 256 156.3 261 156.3 266.4 C 156.3 271.8 154.3 276.7 149.5 276.7 C 147.4 276.7 145.8 275.7 144.8 274.2 Z M 153.8 263.8 C 153.6 261.6 152.9 258.2 150 258.2 C 147.6 258.2 146.6 260.4 146.6 262.5 C 146.6 265.7 148.1 266.9 150 266.9 C 151.7 266.9 153 265.4 153.8 263.8 Z M 159.6 274.2 C 159.6 274.2 160.9 272.5 160.9 272.5 C 161.7 273.8 162.6 274.6 164.2 274.6 C 167.5 274.6 168.6 270.3 168.6 266.6 C 168.6 266.3 168.6 266.2 168.6 266 C 167.9 267.4 166.2 268.9 164.2 268.9 C 161.3 268.9 158.9 266.8 158.9 262.5 C 158.9 259.2 161 256 164.7 256 C 169.5 256 171 261 171 266.4 C 171 271.8 169.1 276.7 164.2 276.7 C 162.1 276.7 160.6 275.7 159.6 274.2 Z M 168.5 263.8 C 168.4 261.6 167.6 258.2 164.8 258.2 C 162.4 258.2 161.4 260.4 161.4 262.5 C 161.4 265.7 162.9 266.9 164.8 266.9 C 166.5 266.9 167.8 265.4 168.5 263.8 Z M 177.4 276.4 L 177.4 259.5 L 174.3 262.8 L 172.9 261.3 L 177.7 256.4 L 179.8 256.4 L 179.8 276.4 L 177.4 276.4 Z M 183.7 275.1 C 183.7 274.2 184.4 273.5 185.3 273.5 C 186.2 273.5 186.9 274.2 186.9 275.1 C 186.9 276 186.2 276.7 185.3 276.7 C 184.4 276.7 183.7 276 183.7 275.1 Z M 190.6 274.2 C 190.6 274.2 192 272.5 192 272.5 C 192.7 273.8 193.6 274.6 195.3 274.6 C 198.5 274.6 199.6 270.3 199.6 266.6 C 199.6 266.3 199.6 266.2 199.6 266 C 198.9 267.4 197.3 268.9 195.2 268.9 C 192.3 268.9 190 266.8 190 262.5 C 190 259.2 192 256 195.7 256 C 200.5 256 202.1 261 202.1 266.4 C 202.1 271.8 200.1 276.7 195.3 276.7 C 193.2 276.7 191.6 275.7 190.6 274.2 Z M 199.6 263.8 C 199.5 261.6 198.7 258.2 195.9 258.2 C 193.5 258.2 192.4 260.4 192.4 262.5 C 192.4 265.7 193.9 266.9 195.8 266.9 C 197.5 266.9 198.9 265.4 199.6 263.8 Z M 204.9 266.4 C 204.9 261.6 206.5 256.1 211.2 256.1 C 215.8 256.1 217.4 261.6 217.4 266.4 C 217.4 271.2 215.8 276.7 211.2 276.7 C 206.5 276.7 204.9 271.2 204.9 266.4 Z M 215 266.4 C 215 262.4 214.2 258.2 211.2 258.2 C 208.1 258.2 207.3 262.4 207.3 266.4 C 207.3 270.3 208.1 274.6 211.2 274.6 C 214.2 274.6 215 270.3 215 266.4 Z " stroke="none" fill="#d0d1d4"/>  </g>  <g id="Polygon214737">    <path d="M 165 230.4 C 165 225 166.9 220.1 171.7 220.1 C 173.8 220.1 175.4 221.1 176.4 222.6 C 176.4 222.6 175.1 224.2 175.1 224.2 C 174.3 223 173.4 222.2 171.8 222.2 C 168.6 222.2 167.4 226.4 167.4 230.2 C 167.4 230.4 167.4 230.5 167.4 230.8 C 168.1 229.4 169.8 227.8 171.8 227.8 C 174.7 227.8 177.1 230 177.1 234.2 C 177.1 237.6 175 240.7 171.3 240.7 C 166.5 240.7 165 235.7 165 230.4 Z M 174.6 234.3 C 174.6 231.1 173.1 229.9 171.2 229.9 C 169.5 229.9 168.2 231.3 167.4 233 C 167.6 235.2 168.4 238.6 171.2 238.6 C 173.6 238.6 174.6 236.4 174.6 234.3 Z M 183.3 240.4 L 183.3 223.5 L 180.2 226.8 L 178.8 225.3 L 183.6 220.4 L 185.7 220.4 L 185.7 240.4 L 183.3 240.4 Z M 189.6 239.1 C 189.6 238.2 190.3 237.5 191.2 237.5 C 192.1 237.5 192.8 238.2 192.8 239.1 C 192.8 240 192.1 240.7 191.2 240.7 C 190.3 240.7 189.6 240 189.6 239.1 Z M 196 230.4 C 196 225 198 220.1 202.8 220.1 C 204.9 220.1 206.5 221.1 207.5 222.6 C 207.5 222.6 206.1 224.2 206.1 224.2 C 205.4 223 204.5 222.2 202.8 222.2 C 199.6 222.2 198.4 226.4 198.4 230.2 C 198.4 230.4 198.4 230.5 198.5 230.8 C 199.2 229.4 200.8 227.8 202.9 227.8 C 205.8 227.8 208.1 230 208.1 234.2 C 208.1 237.6 206.1 240.7 202.4 240.7 C 197.6 240.7 196 235.7 196 230.4 Z M 205.7 234.3 C 205.7 231.1 204.2 229.9 202.3 229.9 C 200.6 229.9 199.2 231.3 198.5 233 C 198.6 235.2 199.4 238.6 202.2 238.6 C 204.6 238.6 205.7 236.4 205.7 234.3 Z M 214.4 240.4 L 214.4 223.5 L 211.3 226.8 L 209.8 225.3 L 214.6 220.4 L 216.7 220.4 L 216.7 240.4 L 214.4 240.4 Z " stroke="none" fill="#d0d1d4"/>  </g>  <g id="Polygon214736">    <path d="M 151.1 204.4 L 151.1 187.5 L 148 190.8 L 146.6 189.3 L 151.4 184.4 L 153.5 184.4 L 153.5 204.4 L 151.1 204.4 Z M 156.5 201.4 C 156.5 201.4 158 200 158 200 C 159 201.5 160.4 202.6 162.3 202.6 C 164.7 202.6 165.9 201.1 165.9 198.8 C 165.9 196.1 164.2 195.2 162.1 195.2 C 161.5 195.2 160.8 195.2 160.5 195.2 C 160.5 195.2 160.5 193 160.5 193 C 160.8 193.1 161.6 193.1 162.1 193.1 C 164.1 193.1 165.7 192 165.7 189.7 C 165.7 187.3 164.3 186.2 162.3 186.2 C 160.5 186.2 159.2 187.1 158.2 188.6 C 158.2 188.6 156.7 187.2 156.7 187.2 C 157.9 185.3 159.9 184.1 162.4 184.1 C 165.6 184.1 168.1 185.8 168.1 189.4 C 168.1 191.9 166.3 193.6 164.5 194 C 166.3 194.3 168.3 196.1 168.3 199 C 168.3 202.3 166.2 204.7 162.4 204.7 C 159.6 204.7 157.5 203.2 156.5 201.4 Z M 170.7 201.4 C 170.7 201.4 172.2 200 172.2 200 C 173.1 201.5 174.6 202.6 176.5 202.6 C 178.9 202.6 180.1 201.1 180.1 198.8 C 180.1 196.1 178.4 195.2 176.3 195.2 C 175.7 195.2 175 195.2 174.7 195.2 C 174.7 195.2 174.7 193 174.7 193 C 175 193.1 175.8 193.1 176.3 193.1 C 178.3 193.1 179.9 192 179.9 189.7 C 179.9 187.3 178.5 186.2 176.4 186.2 C 174.7 186.2 173.4 187.1 172.4 188.6 C 172.4 188.6 170.9 187.2 170.9 187.2 C 172.1 185.3 174.1 184.1 176.6 184.1 C 179.8 184.1 182.3 185.8 182.3 189.4 C 182.3 191.9 180.5 193.6 178.7 194 C 180.5 194.3 182.5 196.1 182.5 199 C 182.5 202.3 180.4 204.7 176.6 204.7 C 173.7 204.7 171.7 203.2 170.7 201.4 Z M 185.8 203.1 C 185.8 202.2 186.5 201.5 187.4 201.5 C 188.3 201.5 189 202.2 189 203.1 C 189 204 188.3 204.7 187.4 204.7 C 186.5 204.7 185.8 204 185.8 203.1 Z M 192.2 194.4 C 192.2 189.6 193.8 184.1 198.5 184.1 C 203.2 184.1 204.8 189.6 204.8 194.4 C 204.8 199.2 203.2 204.7 198.5 204.7 C 193.8 204.7 192.2 199.2 192.2 194.4 Z M 202.3 194.4 C 202.3 190.4 201.6 186.2 198.5 186.2 C 195.4 186.2 194.7 190.4 194.7 194.4 C 194.7 198.3 195.4 202.6 198.5 202.6 C 201.6 202.6 202.3 198.3 202.3 194.4 Z M 209.1 204.4 L 215.4 186.5 L 207 186.5 L 207 184.4 L 218.1 184.4 L 218.1 186 L 211.7 204.4 L 209.1 204.4 Z " stroke="none" fill="#d0d1d4"/>  </g>  <g id="Polygon214735">    <path d="M 155.6 166.2 C 155.6 166.2 156.9 164.5 156.9 164.5 C 157.7 165.8 158.6 166.6 160.3 166.6 C 163.5 166.6 164.6 162.3 164.6 158.6 C 164.6 158.3 164.6 158.2 164.6 158 C 163.9 159.4 162.3 160.9 160.2 160.9 C 157.3 160.9 155 158.8 155 154.5 C 155 151.2 157 148 160.7 148 C 165.5 148 167.1 153 167.1 158.4 C 167.1 163.8 165.1 168.7 160.3 168.7 C 158.2 168.7 156.6 167.7 155.6 166.2 Z M 164.6 155.8 C 164.4 153.6 163.7 150.2 160.8 150.2 C 158.4 150.2 157.4 152.4 157.4 154.5 C 157.4 157.7 158.9 158.9 160.8 158.9 C 162.5 158.9 163.8 157.4 164.6 155.8 Z M 169.9 158.4 C 169.9 153 171.8 148.1 176.6 148.1 C 178.7 148.1 180.3 149.1 181.3 150.6 C 181.3 150.6 180 152.2 180 152.2 C 179.2 151 178.3 150.2 176.7 150.2 C 173.5 150.2 172.3 154.4 172.3 158.2 C 172.3 158.4 172.3 158.5 172.3 158.8 C 173 157.4 174.6 155.8 176.7 155.8 C 179.6 155.8 182 158 182 162.2 C 182 165.6 179.9 168.7 176.2 168.7 C 171.4 168.7 169.9 163.7 169.9 158.4 Z M 179.5 162.3 C 179.5 159.1 178 157.9 176.1 157.9 C 174.4 157.9 173.1 159.3 172.3 161 C 172.5 163.2 173.3 166.6 176.1 166.6 C 178.5 166.6 179.5 164.4 179.5 162.3 Z M 185.1 167.1 C 185.1 166.2 185.8 165.5 186.6 165.5 C 187.5 165.5 188.3 166.2 188.3 167.1 C 188.3 168 187.5 168.7 186.6 168.7 C 185.8 168.7 185.1 168 185.1 167.1 Z M 191.4 163.5 C 191.4 160.8 193.4 158.8 195.4 158.1 C 193.6 157.4 191.7 155.7 191.7 153.2 C 191.7 149.7 194.5 148.1 197.4 148.1 C 200.2 148.1 203 149.7 203 153.2 C 203 155.7 201.1 157.4 199.3 158.1 C 201.3 158.8 203.3 160.8 203.3 163.4 C 203.3 166.7 200.8 168.7 197.4 168.7 C 193.8 168.7 191.4 166.7 191.4 163.5 Z M 200.6 153.5 C 200.6 151.5 199.3 150.2 197.4 150.2 C 195.4 150.2 194.1 151.5 194.1 153.5 C 194.1 155.9 196.6 156.9 197.4 157.2 C 198.1 156.9 200.6 155.9 200.6 153.5 Z M 200.9 163.2 C 200.9 160.5 198.2 159.2 197.4 159 C 196.5 159.2 193.8 160.5 193.8 163.2 C 193.8 165.3 195.4 166.6 197.4 166.6 C 199.3 166.6 200.9 165.3 200.9 163.2 Z M 205.5 165.4 C 205.5 165.4 207.1 164 207.1 164 C 208 165.5 209.5 166.6 211.4 166.6 C 213.8 166.6 215 165.1 215 162.8 C 215 160.1 213.2 159.2 211.2 159.2 C 210.6 159.2 209.9 159.2 209.6 159.2 C 209.6 159.2 209.6 157 209.6 157 C 209.9 157.1 210.6 157.1 211.1 157.1 C 213.1 157.1 214.8 156 214.8 153.7 C 214.8 151.3 213.3 150.2 211.3 150.2 C 209.5 150.2 208.3 151.1 207.3 152.6 C 207.3 152.6 205.8 151.2 205.8 151.2 C 207 149.3 209 148.1 211.5 148.1 C 214.7 148.1 217.1 149.8 217.1 153.4 C 217.1 155.9 215.4 157.6 213.6 158 C 215.3 158.3 217.4 160.1 217.4 163 C 217.4 166.3 215.3 168.7 211.5 168.7 C 208.6 168.7 206.5 167.2 205.5 165.4 Z " stroke="none" fill="#d0d1d4"/>  </g>  <g id="Polygon214734">    <path d="M 149.1 132.4 L 149.1 115.5 L 146 118.8 L 144.6 117.3 L 149.4 112.4 L 151.5 112.4 L 151.5 132.4 L 149.1 132.4 Z M 155.1 129.5 C 155.1 129.5 156.7 128 156.7 128 C 157.7 129.7 159 130.6 161 130.6 C 163.2 130.6 164.5 128.6 164.5 126.3 C 164.5 123.4 163.2 121.8 161.1 121.8 C 159.7 121.8 158.6 122.4 157.5 123.7 C 157.49 123.71 155.7 123.1 155.7 123.1 L 155.7 112.4 L 165.9 112.4 L 165.9 114.5 L 158.1 114.5 C 158.1 114.5 158.09 121.49 158.1 121.5 C 158.9 120.5 160.2 119.7 161.8 119.7 C 164.7 119.7 167 122 167 126.2 C 167 130 164.5 132.7 161 132.7 C 158.1 132.7 156.4 131.5 155.1 129.5 Z M 169.2 129.4 C 169.2 129.4 170.7 128 170.7 128 C 171.7 129.5 173.1 130.6 175 130.6 C 177.5 130.6 178.7 129.1 178.7 126.8 C 178.7 124.1 176.9 123.2 174.9 123.2 C 174.2 123.2 173.5 123.2 173.3 123.2 C 173.3 123.2 173.3 121 173.3 121 C 173.5 121.1 174.3 121.1 174.8 121.1 C 176.8 121.1 178.4 120 178.4 117.7 C 178.4 115.3 177 114.2 175 114.2 C 173.2 114.2 171.9 115.1 170.9 116.6 C 170.9 116.6 169.4 115.2 169.4 115.2 C 170.6 113.3 172.6 112.1 175.1 112.1 C 178.4 112.1 180.8 113.8 180.8 117.4 C 180.8 119.9 179.1 121.6 177.2 122 C 179 122.3 181.1 124.1 181.1 127 C 181.1 130.3 178.9 132.7 175.1 132.7 C 172.3 132.7 170.2 131.2 169.2 129.4 Z M 184.3 131.1 C 184.3 130.2 185.1 129.5 185.9 129.5 C 186.8 129.5 187.5 130.2 187.5 131.1 C 187.5 132 186.8 132.7 185.9 132.7 C 185.1 132.7 184.3 132 184.3 131.1 Z M 191.3 130.2 C 191.3 130.2 192.6 128.5 192.6 128.5 C 193.3 129.8 194.3 130.6 195.9 130.6 C 199.2 130.6 200.3 126.3 200.3 122.6 C 200.3 122.3 200.3 122.2 200.3 122 C 199.6 123.4 197.9 124.9 195.9 124.9 C 192.9 124.9 190.6 122.8 190.6 118.5 C 190.6 115.2 192.7 112 196.4 112 C 201.1 112 202.7 117 202.7 122.4 C 202.7 127.8 200.7 132.7 195.9 132.7 C 193.8 132.7 192.3 131.7 191.3 130.2 Z M 200.2 119.8 C 200.1 117.6 199.3 114.2 196.5 114.2 C 194.1 114.2 193 116.4 193 118.5 C 193 121.7 194.6 122.9 196.5 122.9 C 198.1 122.9 199.5 121.4 200.2 119.8 Z M 205.7 129.5 C 205.7 129.5 207.3 128 207.3 128 C 208.2 129.7 209.5 130.6 211.5 130.6 C 213.7 130.6 215.1 128.6 215.1 126.3 C 215.1 123.4 213.7 121.8 211.6 121.8 C 210.2 121.8 209.1 122.4 208 123.7 C 208 123.71 206.2 123.1 206.2 123.1 L 206.2 112.4 L 216.4 112.4 L 216.4 114.5 L 208.6 114.5 C 208.6 114.5 208.6 121.49 208.6 121.5 C 209.4 120.5 210.7 119.7 212.3 119.7 C 215.2 119.7 217.5 122 217.5 126.2 C 217.5 130 215 132.7 211.5 132.7 C 208.6 132.7 206.9 131.5 205.7 129.5 Z " stroke="none" fill="#d0d1d4"/>  </g>  <g id="Polygon214733">    <path d="M 149.5 96.4 L 149.5 79.5 L 146.4 82.8 L 145 81.3 L 149.8 76.4 L 151.9 76.4 L 151.9 96.4 L 149.5 96.4 Z M 162.6 96.4 L 162.6 91.2 L 154.7 91.2 L 154.7 89.2 L 161.9 76.4 L 165 76.4 L 165 89.1 L 167.1 89.1 L 167.1 91.2 L 165 91.2 L 165 96.4 L 162.6 96.4 Z M 162.6 78.9 L 156.9 89.1 L 162.6 89.1 L 162.6 78.9 Z M 169.4 93.5 C 169.4 93.5 171 92 171 92 C 171.9 93.7 173.3 94.6 175.2 94.6 C 177.4 94.6 178.8 92.6 178.8 90.3 C 178.8 87.4 177.4 85.8 175.4 85.8 C 174 85.8 172.8 86.4 171.7 87.7 C 171.74 87.71 170 87.1 170 87.1 L 170 76.4 L 180.2 76.4 L 180.2 78.5 L 172.3 78.5 C 172.3 78.5 172.34 85.49 172.3 85.5 C 173.1 84.5 174.4 83.7 176 83.7 C 178.9 83.7 181.2 86 181.2 90.2 C 181.2 94 178.8 96.7 175.3 96.7 C 172.3 96.7 170.6 95.5 169.4 93.5 Z M 184.4 95.1 C 184.4 94.2 185.1 93.5 186 93.5 C 186.9 93.5 187.6 94.2 187.6 95.1 C 187.6 96 186.9 96.7 186 96.7 C 185.1 96.7 184.4 96 184.4 95.1 Z M 190.8 86.4 C 190.8 81 192.7 76.1 197.6 76.1 C 199.7 76.1 201.3 77.1 202.2 78.6 C 202.2 78.6 200.9 80.2 200.9 80.2 C 200.2 79 199.2 78.2 197.6 78.2 C 194.4 78.2 193.2 82.4 193.2 86.2 C 193.2 86.4 193.2 86.5 193.2 86.8 C 193.9 85.4 195.6 83.8 197.7 83.8 C 200.6 83.8 202.9 86 202.9 90.2 C 202.9 93.6 200.8 96.7 197.1 96.7 C 192.4 96.7 190.8 91.7 190.8 86.4 Z M 200.5 90.3 C 200.5 87.1 198.9 85.9 197.1 85.9 C 195.4 85.9 194 87.3 193.3 89 C 193.4 91.2 194.2 94.6 197 94.6 C 199.4 94.6 200.5 92.4 200.5 90.3 Z M 205.8 96.4 C 205.8 96.4 205.75 94.43 205.8 94.4 C 212.3 86.9 214.5 84.5 214.5 81.5 C 214.5 79.4 213 78.2 211.3 78.2 C 209.4 78.2 208.1 79.1 207.1 80.7 C 207.1 80.7 205.5 79.3 205.5 79.3 C 206.9 77.2 208.8 76.1 211.4 76.1 C 214.4 76.1 217 78 217 81.5 C 217 84.9 214.5 87.9 209.1 94.2 C 209.14 94.25 217.1 94.2 217.1 94.2 L 217.1 96.4 L 205.8 96.4 Z " stroke="none" fill="#d0d1d4"/>  </g>  <g id="Polygon214732">    <path d="M 165.2 57.4 C 165.2 57.4 166.8 56 166.8 56 C 167.7 57.5 169.2 58.6 171 58.6 C 173.5 58.6 174.7 57.1 174.7 54.8 C 174.7 52.1 172.9 51.2 170.9 51.2 C 170.2 51.2 169.5 51.2 169.3 51.2 C 169.3 51.2 169.3 49 169.3 49 C 169.5 49.1 170.3 49.1 170.8 49.1 C 172.8 49.1 174.4 48 174.4 45.7 C 174.4 43.3 173 42.2 171 42.2 C 169.2 42.2 168 43.1 166.9 44.6 C 166.9 44.6 165.4 43.2 165.4 43.2 C 166.6 41.3 168.6 40.1 171.1 40.1 C 174.4 40.1 176.8 41.8 176.8 45.4 C 176.8 47.9 175.1 49.6 173.2 50 C 175 50.3 177.1 52.1 177.1 55 C 177.1 58.3 174.9 60.7 171.1 60.7 C 168.3 60.7 166.2 59.2 165.2 57.4 Z M 179.9 55.5 C 179.9 52.8 181.9 50.8 183.9 50.1 C 182 49.4 180.2 47.7 180.2 45.2 C 180.2 41.7 182.9 40.1 185.8 40.1 C 188.7 40.1 191.5 41.7 191.5 45.2 C 191.5 47.7 189.6 49.4 187.8 50.1 C 189.7 50.8 191.7 52.8 191.7 55.4 C 191.7 58.7 189.3 60.7 185.8 60.7 C 182.3 60.7 179.9 58.7 179.9 55.5 Z M 189.1 45.5 C 189.1 43.5 187.8 42.2 185.8 42.2 C 183.9 42.2 182.5 43.5 182.5 45.5 C 182.5 47.9 185 48.9 185.8 49.2 C 186.6 48.9 189.1 47.9 189.1 45.5 Z M 189.3 55.2 C 189.3 52.5 186.6 51.2 185.8 51 C 185 51.2 182.3 52.5 182.3 55.2 C 182.3 57.3 183.9 58.6 185.8 58.6 C 187.7 58.6 189.3 57.3 189.3 55.2 Z M 194.9 59.1 C 194.9 58.2 195.6 57.5 196.5 57.5 C 197.4 57.5 198.1 58.2 198.1 59.1 C 198.1 60 197.4 60.7 196.5 60.7 C 195.6 60.7 194.9 60 194.9 59.1 Z M 204.9 60.4 L 204.9 43.5 L 201.8 46.8 L 200.4 45.3 L 205.2 40.4 L 207.3 40.4 L 207.3 60.4 L 204.9 60.4 Z M 214.4 60.4 L 214.4 43.5 L 211.3 46.8 L 209.8 45.3 L 214.6 40.4 L 216.7 40.4 L 216.7 60.4 L 214.4 60.4 Z " stroke="none" fill="#d0d1d4"/>  </g>  <g id="Polygon214731">    <path d="M 125.5 24.4 C 125.5 24.4 125.48 22.43 125.5 22.4 C 132 14.9 134.3 12.5 134.3 9.5 C 134.3 7.4 132.8 6.2 131.1 6.2 C 129.2 6.2 127.8 7.1 126.8 8.7 C 126.8 8.7 125.3 7.3 125.3 7.3 C 126.6 5.2 128.5 4.1 131.1 4.1 C 134.1 4.1 136.7 6 136.7 9.5 C 136.7 12.9 134.2 15.9 128.9 22.2 C 128.87 22.25 136.8 22.2 136.8 22.2 L 136.8 24.4 L 125.5 24.4 Z M 147.2 24.4 L 147.2 19.2 L 139.2 19.2 L 139.2 17.2 L 146.5 4.4 L 149.5 4.4 L 149.5 17.1 L 151.7 17.1 L 151.7 19.2 L 149.5 19.2 L 149.5 24.4 L 147.2 24.4 Z M 147.2 6.9 L 141.4 17.1 L 147.2 17.1 L 147.2 6.9 Z M 153.8 14.4 C 153.8 9.6 155.4 4.1 160.1 4.1 C 164.8 4.1 166.4 9.6 166.4 14.4 C 166.4 19.2 164.8 24.7 160.1 24.7 C 155.4 24.7 153.8 19.2 153.8 14.4 Z M 163.9 14.4 C 163.9 10.4 163.2 6.2 160.1 6.2 C 157 6.2 156.3 10.4 156.3 14.4 C 156.3 18.3 157 22.6 160.1 22.6 C 163.2 22.6 163.9 18.3 163.9 14.4 Z M 169.4 24.4 C 169.4 24.4 169.37 22.43 169.4 22.4 C 175.9 14.9 178.2 12.5 178.2 9.5 C 178.2 7.4 176.7 6.2 174.9 6.2 C 173.1 6.2 171.7 7.1 170.7 8.7 C 170.7 8.7 169.2 7.3 169.2 7.3 C 170.5 5.2 172.4 4.1 175 4.1 C 178 4.1 180.6 6 180.6 9.5 C 180.6 12.9 178.1 15.9 172.8 22.2 C 172.76 22.25 180.7 22.2 180.7 22.2 L 180.7 24.4 L 169.4 24.4 Z M 184.3 23.1 C 184.3 22.2 185 21.5 185.9 21.5 C 186.7 21.5 187.5 22.2 187.5 23.1 C 187.5 24 186.7 24.7 185.9 24.7 C 185 24.7 184.3 24 184.3 23.1 Z M 190.7 14.4 C 190.7 9.6 192.3 4.1 197 4.1 C 201.6 4.1 203.2 9.6 203.2 14.4 C 203.2 19.2 201.6 24.7 197 24.7 C 192.3 24.7 190.7 19.2 190.7 14.4 Z M 200.8 14.4 C 200.8 10.4 200.1 6.2 197 6.2 C 193.9 6.2 193.2 10.4 193.2 14.4 C 193.2 18.3 193.9 22.6 197 22.6 C 200.1 22.6 200.8 18.3 200.8 14.4 Z M 205.5 21.4 C 205.5 21.4 207.1 20 207.1 20 C 208 21.5 209.5 22.6 211.4 22.6 C 213.8 22.6 215 21.1 215 18.8 C 215 16.1 213.2 15.2 211.2 15.2 C 210.6 15.2 209.9 15.2 209.6 15.2 C 209.6 15.2 209.6 13 209.6 13 C 209.9 13.1 210.6 13.1 211.1 13.1 C 213.1 13.1 214.8 12 214.8 9.7 C 214.8 7.3 213.3 6.2 211.3 6.2 C 209.5 6.2 208.3 7.1 207.3 8.6 C 207.3 8.6 205.8 7.2 205.8 7.2 C 207 5.3 209 4.1 211.5 4.1 C 214.7 4.1 217.1 5.8 217.1 9.4 C 217.1 11.9 215.4 13.6 213.6 14 C 215.3 14.3 217.4 16.1 217.4 19 C 217.4 22.3 215.3 24.7 211.5 24.7 C 208.6 24.7 206.5 23.2 205.5 21.4 Z " stroke="none" fill="#d0d1d4"/>  </g></svg>