<?xml version="1.0" standalone="no"?><!DOCTYPE svg PUBLIC "-//W3C//DTD SVG 1.1//EN" "http://www.w3.org/Graphics/SVG/1.1/DTD/svg11.dtd"><svg xmlns="http://www.w3.org/2000/svg" version="1.1" width="88px" height="43.1px" viewBox="0 0 88 43.1">  <desc>RECIPE</desc>  <defs/>  <g id="Polygon150860">    <path d="M 13 23.7 L 9.9 16.5 L 7.8 16.5 L 7.8 23.7 L 3.8 23.7 L 3.8 3.7 C 3.8 3.7 11.22 3.69 11.2 3.7 C 14.9 3.7 17.3 6.3 17.3 10 C 17.3 13.5 15.5 15.2 13.8 15.7 C 13.84 15.75 17.5 23.7 17.5 23.7 L 13 23.7 Z M 13.2 10.1 C 13.2 8.3 12.2 7.2 10.6 7.2 C 10.62 7.23 7.8 7.2 7.8 7.2 L 7.8 12.9 C 7.8 12.9 10.62 12.93 10.6 12.9 C 12.2 12.9 13.2 11.8 13.2 10.1 Z M 20.3 23.7 L 20.3 3.7 L 31.7 3.7 L 31.7 7.2 L 24.3 7.2 L 24.3 11.8 L 31.5 11.8 L 31.5 15.3 L 24.3 15.3 L 24.3 20.2 L 31.7 20.2 L 31.7 23.7 L 20.3 23.7 Z M 33.9 13.7 C 33.9 7.6 37.2 3.4 42.4 3.4 C 46.2 3.4 48 5.8 49.1 8.2 C 49.1 8.2 45.7 9.6 45.7 9.6 C 45.1 8 44 6.9 42.4 6.9 C 39.7 6.9 38 9.8 38 13.7 C 38 17.6 39.7 20.5 42.4 20.5 C 44 20.5 45.2 19.2 45.8 17.6 C 45.8 17.6 49.1 19 49.1 19 C 48.1 21.4 46.3 24.1 42.4 24.1 C 37.2 24.1 33.9 19.8 33.9 13.7 Z M 51.5 23.7 L 51.5 3.7 L 55.5 3.7 L 55.5 23.7 L 51.5 23.7 Z M 59 23.7 L 59 3.7 C 59 3.7 66.39 3.69 66.4 3.7 C 70.5 3.7 72.6 6.7 72.6 10.1 C 72.6 13.5 70.5 16.5 66.4 16.5 C 66.39 16.47 63 16.5 63 16.5 L 63 23.7 L 59 23.7 Z M 68.5 10.1 C 68.5 8.3 67.4 7.2 65.9 7.2 C 65.91 7.23 63 7.2 63 7.2 L 63 12.9 C 63 12.9 65.91 12.93 65.9 12.9 C 67.4 12.9 68.5 11.8 68.5 10.1 Z M 75 23.7 L 75 3.7 L 86.5 3.7 L 86.5 7.2 L 79 7.2 L 79 11.8 L 86.3 11.8 L 86.3 15.3 L 79 15.3 L 79 20.2 L 86.5 20.2 L 86.5 23.7 L 75 23.7 Z " stroke="none" fill="#d3d2d2"/>  </g></svg>