<?xml version="1.0" standalone="no"?><!DOCTYPE svg PUBLIC "-//W3C//DTD SVG 1.1//EN" "http://www.w3.org/Graphics/SVG/1.1/DTD/svg11.dtd"><svg xmlns="http://www.w3.org/2000/svg" version="1.1" width="651px" height="85.6px" viewBox="0 0 651 85.6">  <desc>Blackened Hot Melt Glue</desc>  <defs/>  <g id="Polygon198650">    <path d="M 3.1 47.4 L 3.1 7.4 C 3.1 7.4 15.18 7.38 15.2 7.4 C 21.8 7.4 24.8 12.1 24.8 17.6 C 24.8 22.6 22.4 25.7 18.9 26.8 C 22.7 27.4 25.3 31.7 25.3 36.6 C 25.3 42.7 22.5 47.4 15.6 47.4 C 15.6 47.4 3.1 47.4 3.1 47.4 Z M 17 18.9 C 17 16 16 14 13.2 14 C 13.2 14.04 10.7 14 10.7 14 L 10.7 23.7 C 10.7 23.7 13.2 23.7 13.2 23.7 C 16 23.7 17 21.8 17 18.9 Z M 17.6 35.5 C 17.6 32.6 16.3 30.4 13.4 30.4 C 13.44 30.36 10.7 30.4 10.7 30.4 L 10.7 40.7 C 10.7 40.7 13.44 40.74 13.4 40.7 C 16.3 40.7 17.6 38.9 17.6 35.5 Z M 29.9 47.4 L 29.9 7.4 L 36.7 7.4 L 36.7 47.4 L 29.9 47.4 Z M 54.7 47.4 C 54.7 47.4 54.72 44.64 54.7 44.6 C 53.5 46.9 50.8 48.1 48.7 48.1 C 44.1 48.1 40.8 44.4 40.8 38.5 C 40.8 32.6 44.1 29 48.7 29 C 50.8 29 53.5 30.1 54.7 32.3 C 54.7 32.3 54.7 28.7 54.7 28.7 C 54.7 25.4 53.4 23.5 50.3 23.5 C 48.4 23.5 46.4 24.4 44.5 26.3 C 44.5 26.3 41.9 21.5 41.9 21.5 C 44.6 18.7 48.7 17.7 51.7 17.7 C 57.7 17.7 61.5 20.7 61.5 27.2 C 61.5 27.18 61.5 47.4 61.5 47.4 L 54.7 47.4 Z M 54.7 40.6 C 54.7 40.6 54.7 36.7 54.7 36.7 C 54 34.9 52.6 33.7 51.1 33.7 C 48.7 33.7 47.6 35.8 47.6 38.6 C 47.6 41.3 48.7 43.6 51.1 43.6 C 52.6 43.6 54 42.4 54.7 40.6 Z M 65.9 32.9 C 65.9 24.1 70 17.7 76.9 17.7 C 80.2 17.7 82.6 18.9 83.9 20.3 C 83.9 20.3 81.8 25.6 81.8 25.6 C 80.6 24.3 79.5 23.7 78.1 23.7 C 74.6 23.7 72.8 27.8 72.8 32.9 C 72.8 37.9 74.6 42.1 78.1 42.1 C 79.5 42.1 80.6 41.5 81.8 40.3 C 81.8 40.3 83.9 45.5 83.9 45.5 C 82.6 47 80.2 48.1 76.9 48.1 C 70 48.1 65.9 41.7 65.9 32.9 Z M 101.3 47.4 L 97.1 35.8 L 94.4 40.6 L 94.4 47.4 L 87.7 47.4 L 87.7 7.4 L 94.4 7.4 L 94.4 31.8 L 101.1 18.4 L 108.5 18.4 L 101.6 31.3 L 108.8 47.4 L 101.3 47.4 Z M 110 32.9 C 110 24.5 113.6 17.7 120.9 17.7 C 128.2 17.7 131.3 24.2 131.3 32.8 C 131.28 32.76 131.3 35.1 131.3 35.1 C 131.3 35.1 116.58 35.1 116.6 35.1 C 116.6 39.4 118.4 42.6 122.3 42.6 C 123.9 42.6 125.8 41.5 127.1 39.7 C 127.1 39.7 130.4 43.5 130.4 43.5 C 128.1 46.4 124.9 48.1 121.6 48.1 C 114 48.1 110 41.8 110 32.9 Z M 120.7 23.2 C 117.4 23.2 116.6 27.3 116.6 30.4 C 116.6 30.4 124.7 30.4 124.7 30.4 C 124.7 27.1 124 23.2 120.7 23.2 Z M 148.3 47.4 C 148.3 47.4 148.32 26.76 148.3 26.8 C 148.3 24.7 147.6 23.7 146.1 23.7 C 144.4 23.7 142.9 25.6 142.2 27.5 C 142.2 27.48 142.2 47.4 142.2 47.4 L 135.4 47.4 L 135.4 18.4 L 142.2 18.4 C 142.2 18.4 142.2 22.2 142.2 22.2 C 143.3 19.9 146.3 17.7 149 17.7 C 153.4 17.7 155.2 20.3 155.2 24.3 C 155.16 24.3 155.2 47.4 155.2 47.4 L 148.3 47.4 Z M 159.5 32.9 C 159.5 24.5 163.1 17.7 170.3 17.7 C 177.7 17.7 180.7 24.2 180.7 32.8 C 180.72 32.76 180.7 35.1 180.7 35.1 C 180.7 35.1 166.02 35.1 166 35.1 C 166.1 39.4 167.9 42.6 171.7 42.6 C 173.3 42.6 175.2 41.5 176.5 39.7 C 176.5 39.7 179.8 43.5 179.8 43.5 C 177.5 46.4 174.3 48.1 171 48.1 C 163.4 48.1 159.5 41.8 159.5 32.9 Z M 170.2 23.2 C 166.9 23.2 166 27.3 166 30.4 C 166 30.4 174.2 30.4 174.2 30.4 C 174.2 27.1 173.5 23.2 170.2 23.2 Z M 197.9 47.4 C 197.9 47.4 197.94 43.8 197.9 43.8 C 196.7 46.7 194.3 48.1 192.3 48.1 C 186.6 48.1 183.7 42.2 183.7 32.9 C 183.7 23.8 186.6 17.7 192.3 17.7 C 194.3 17.7 196.7 19 197.9 22 C 197.94 22.02 197.9 7.4 197.9 7.4 L 204.7 7.4 L 204.7 47.4 L 197.9 47.4 Z M 197.9 38.6 C 197.9 38.6 197.9 27.2 197.9 27.2 C 197.3 25.3 196 23.7 194.5 23.7 C 191.5 23.7 190.7 27.8 190.7 32.9 C 190.7 38 191.5 42.1 194.5 42.1 C 196 42.1 197.3 40.6 197.9 38.6 Z M 235.6 47.4 L 235.6 30.1 L 227.9 30.1 L 227.9 47.4 L 220.4 47.4 L 220.4 7.4 L 227.9 7.4 L 227.9 23.5 L 235.6 23.5 L 235.6 7.4 L 243.2 7.4 L 243.2 47.4 L 235.6 47.4 Z M 247.9 32.9 C 247.9 24.8 251.2 17.7 258.8 17.7 C 266.4 17.7 269.7 24.8 269.7 32.9 C 269.7 40.9 266.4 48.1 258.8 48.1 C 251.2 48.1 247.9 40.9 247.9 32.9 Z M 262.7 32.9 C 262.7 28 261.8 23.7 258.8 23.7 C 255.8 23.7 254.9 28 254.9 32.9 C 254.9 37.9 255.8 42.1 258.8 42.1 C 261.8 42.1 262.7 37.9 262.7 32.9 Z M 275 40.7 C 274.98 40.74 275 24.3 275 24.3 L 272.3 24.3 L 272.3 18.4 L 275 18.4 L 275 10.5 L 281.8 10.5 L 281.8 18.4 L 285.4 18.4 L 285.4 24.3 L 281.8 24.3 C 281.8 24.3 281.76 39.42 281.8 39.4 C 281.8 41.2 282.2 42.1 283.4 42.1 C 284 42.1 284.6 41.8 285 41.3 C 285 41.3 286.4 46.6 286.4 46.6 C 285.4 47.5 283.7 48.1 281.6 48.1 C 276.9 48.1 275 45.7 275 40.7 Z M 323 47.4 L 323 23.8 L 316.3 47.4 L 313.8 47.4 L 307.3 23.8 L 307.3 47.4 L 299.7 47.4 L 299.7 7.4 L 309.3 7.4 L 315.1 27.8 L 321 7.4 L 330.4 7.4 L 330.4 47.4 L 323 47.4 Z M 335.2 32.9 C 335.2 24.5 338.8 17.7 346 17.7 C 353.3 17.7 356.4 24.2 356.4 32.8 C 356.4 32.76 356.4 35.1 356.4 35.1 C 356.4 35.1 341.7 35.1 341.7 35.1 C 341.8 39.4 343.6 42.6 347.4 42.6 C 349 42.6 350.9 41.5 352.2 39.7 C 352.2 39.7 355.5 43.5 355.5 43.5 C 353.2 46.4 350 48.1 346.7 48.1 C 339.1 48.1 335.2 41.8 335.2 32.9 Z M 345.8 23.2 C 342.5 23.2 341.7 27.3 341.7 30.4 C 341.7 30.4 349.9 30.4 349.9 30.4 C 349.9 27.1 349.1 23.2 345.8 23.2 Z M 360.5 47.4 L 360.5 7.4 L 367.3 7.4 L 367.3 47.4 L 360.5 47.4 Z M 373.7 40.7 C 373.67 40.74 373.7 24.3 373.7 24.3 L 371 24.3 L 371 18.4 L 373.7 18.4 L 373.7 10.5 L 380.5 10.5 L 380.5 18.4 L 384.1 18.4 L 384.1 24.3 L 380.5 24.3 C 380.5 24.3 380.45 39.42 380.5 39.4 C 380.5 41.2 380.9 42.1 382.1 42.1 C 382.7 42.1 383.3 41.8 383.7 41.3 C 383.7 41.3 385.1 46.6 385.1 46.6 C 384.1 47.5 382.4 48.1 380.3 48.1 C 375.6 48.1 373.7 45.7 373.7 40.7 Z M 397.1 27.4 C 397.1 15.1 401 6.7 409.7 6.7 C 415.3 6.7 418.4 11 419.7 16.1 C 419.7 16.1 413.7 18.4 413.7 18.4 C 413 15.6 412 13.4 409.7 13.4 C 406.7 13.4 404.9 17.8 404.9 27.4 C 404.9 37 406.7 41.4 409.7 41.4 C 411.4 41.4 412.5 40.7 413.3 39.6 C 413.27 39.6 413.3 32.3 413.3 32.3 L 408.8 32.3 L 408.8 25.7 L 419.9 25.7 C 419.9 25.7 419.93 42.84 419.9 42.8 C 417.3 46.2 414.2 48.1 409.7 48.1 C 401 48.1 397.1 39.7 397.1 27.4 Z M 425.2 47.4 L 425.2 7.4 L 432 7.4 L 432 47.4 L 425.2 47.4 Z M 450.4 47.4 C 450.4 47.4 450.35 43.74 450.4 43.7 C 449.2 46.1 446.4 48.1 443.6 48.1 C 439.2 48.1 437.5 45.7 437.5 41.6 C 437.45 41.58 437.5 18.4 437.5 18.4 L 444.2 18.4 C 444.2 18.4 444.23 39.18 444.2 39.2 C 444.2 41.2 445 42.1 446.5 42.1 C 448.2 42.1 449.7 40.3 450.4 38.5 C 450.35 38.46 450.4 18.4 450.4 18.4 L 457.2 18.4 L 457.2 47.4 L 450.4 47.4 Z M 461.5 32.9 C 461.5 24.5 465.1 17.7 472.4 17.7 C 479.7 17.7 482.8 24.2 482.8 32.8 C 482.75 32.76 482.8 35.1 482.8 35.1 C 482.8 35.1 468.05 35.1 468.1 35.1 C 468.1 39.4 469.9 42.6 473.8 42.6 C 475.4 42.6 477.2 41.5 478.6 39.7 C 478.6 39.7 481.9 43.5 481.9 43.5 C 479.6 46.4 476.3 48.1 473 48.1 C 465.5 48.1 461.5 41.8 461.5 32.9 Z M 472.2 23.2 C 468.9 23.2 468.1 27.3 468.1 30.4 C 468.1 30.4 476.2 30.4 476.2 30.4 C 476.2 27.1 475.5 23.2 472.2 23.2 Z " stroke="none" fill="#b13d24"/>  </g></svg>