<?xml version="1.0" standalone="no"?><!DOCTYPE svg PUBLIC "-//W3C//DTD SVG 1.1//EN" "http://www.w3.org/Graphics/SVG/1.1/DTD/svg11.dtd"><svg xmlns="http://www.w3.org/2000/svg" version="1.1" width="651px" height="85.6px" viewBox="0 0 651 85.6">  <desc>Spicy Hair Wax Paste</desc>  <defs/>  <g id="Polygon185777">    <path d="M 0.7 44.2 C 0.7 44.2 4 38.2 4 38.2 C 5.6 40.3 8.2 41.4 10.6 41.4 C 13 41.4 14.6 39.6 14.6 37 C 14.6 29.9 1.9 29.9 1.9 17.9 C 1.9 11.9 5.9 6.7 13 6.7 C 16.4 6.7 19.5 7.9 21.7 10 C 21.7 10 18.8 15.8 18.8 15.8 C 17.2 14.2 15.4 13.4 13.3 13.4 C 11.1 13.4 9.5 15.1 9.5 17.5 C 9.5 23.7 22.3 24.5 22.3 36.5 C 22.3 43.3 17.9 48.1 11 48.1 C 6.7 48.1 3.3 46.7 0.7 44.2 Z M 33.3 43.8 C 33.3 43.8 33.3 58.4 33.3 58.4 L 26.5 58.4 L 26.5 18.4 L 33.3 18.4 C 33.3 18.4 33.3 22.02 33.3 22 C 34.6 19.1 36.9 17.7 38.9 17.7 C 44.6 17.7 47.5 23.6 47.5 32.9 C 47.5 42 44.6 48.1 38.9 48.1 C 36.9 48.1 34.5 46.8 33.3 43.8 Z M 40.6 32.9 C 40.6 27.8 39.7 23.7 36.7 23.7 C 35.3 23.7 33.9 25.1 33.3 27.1 C 33.3 27.1 33.3 38.6 33.3 38.6 C 33.9 40.6 35.3 42.1 36.7 42.1 C 39.7 42.1 40.6 38 40.6 32.9 Z M 51.1 10.9 C 51.1 8.6 53 6.8 55.3 6.8 C 57.5 6.8 59.4 8.6 59.4 10.9 C 59.4 13.2 57.5 15 55.3 15 C 53 15 51.1 13.2 51.1 10.9 Z M 51.9 47.4 L 51.9 18.4 L 58.7 18.4 L 58.7 47.4 L 51.9 47.4 Z M 63 32.9 C 63 24.1 67.1 17.7 74 17.7 C 77.3 17.7 79.7 18.9 81.1 20.3 C 81.1 20.3 78.9 25.6 78.9 25.6 C 77.7 24.3 76.6 23.7 75.2 23.7 C 71.7 23.7 70 27.8 70 32.9 C 70 37.9 71.7 42.1 75.2 42.1 C 76.6 42.1 77.7 41.5 78.9 40.3 C 78.9 40.3 81.1 45.5 81.1 45.5 C 79.7 47 77.3 48.1 74 48.1 C 67.1 48.1 63 41.7 63 32.9 Z M 85.4 52.9 C 85.8 53 86.4 53.2 86.8 53.2 C 88 53.2 88.7 52.6 89.2 51.1 C 89.16 51.12 90 48.1 90 48.1 L 82.1 18.4 L 89.3 18.4 L 93.4 38.8 L 97.6 18.4 L 104.8 18.4 C 104.8 18.4 95.64 52.5 95.6 52.5 C 94.2 57.8 91.9 59.2 87.7 59.2 C 86.7 59.2 85.1 59 84.4 58.7 C 84.4 58.7 85.4 52.9 85.4 52.9 Z M 133 47.4 L 133 30.1 L 125.3 30.1 L 125.3 47.4 L 117.7 47.4 L 117.7 7.4 L 125.3 7.4 L 125.3 23.5 L 133 23.5 L 133 7.4 L 140.5 7.4 L 140.5 47.4 L 133 47.4 Z M 159 47.4 C 159 47.4 159 44.64 159 44.6 C 157.7 46.9 155 48.1 152.9 48.1 C 148.4 48.1 145.1 44.4 145.1 38.5 C 145.1 32.6 148.4 29 152.9 29 C 155 29 157.8 30.1 159 32.3 C 159 32.3 159 28.7 159 28.7 C 159 25.4 157.7 23.5 154.6 23.5 C 152.7 23.5 150.7 24.4 148.7 26.3 C 148.7 26.3 146.2 21.5 146.2 21.5 C 148.9 18.7 153 17.7 156 17.7 C 161.9 17.7 165.8 20.7 165.8 27.2 C 165.78 27.18 165.8 47.4 165.8 47.4 L 159 47.4 Z M 159 40.6 C 159 40.6 159 36.7 159 36.7 C 158.3 34.9 156.8 33.7 155.3 33.7 C 153 33.7 151.9 35.8 151.9 38.6 C 151.9 41.3 153 43.6 155.3 43.6 C 156.8 43.6 158.3 42.4 159 40.6 Z M 170.5 10.9 C 170.5 8.6 172.4 6.8 174.7 6.8 C 176.9 6.8 178.8 8.6 178.8 10.9 C 178.8 13.2 176.9 15 174.7 15 C 172.4 15 170.5 13.2 170.5 10.9 Z M 171.3 47.4 L 171.3 18.4 L 178.1 18.4 L 178.1 47.4 L 171.3 47.4 Z M 183.5 47.4 L 183.5 18.4 L 190.3 18.4 C 190.3 18.4 190.32 22.44 190.3 22.4 C 191.5 19.8 194.3 17.7 196.8 17.7 C 196.8 17.7 196.8 24.4 196.8 24.4 C 196.4 24.2 195.9 24.2 195.5 24.2 C 193.5 24.2 191.5 25.8 190.3 27.9 C 190.32 27.9 190.3 47.4 190.3 47.4 L 183.5 47.4 Z M 229.1 47.4 L 225.8 21.6 L 222.5 47.4 L 214.9 47.4 L 208 7.4 L 215.7 7.4 L 219.1 34.2 L 222.8 7.4 L 228.8 7.4 L 232.7 34.2 L 236 7.4 L 243.7 7.4 L 236.8 47.4 L 229.1 47.4 Z M 258.4 47.4 C 258.4 47.4 258.36 44.64 258.4 44.6 C 257.1 46.9 254.4 48.1 252.3 48.1 C 247.7 48.1 244.4 44.4 244.4 38.5 C 244.4 32.6 247.7 29 252.3 29 C 254.4 29 257.2 30.1 258.4 32.3 C 258.4 32.3 258.4 28.7 258.4 28.7 C 258.4 25.4 257 23.5 254 23.5 C 252.1 23.5 250 24.4 248.1 26.3 C 248.1 26.3 245.6 21.5 245.6 21.5 C 248.2 18.7 252.4 17.7 255.4 17.7 C 261.3 17.7 265.1 20.7 265.1 27.2 C 265.14 27.18 265.1 47.4 265.1 47.4 L 258.4 47.4 Z M 258.4 40.6 C 258.4 40.6 258.4 36.7 258.4 36.7 C 257.6 34.9 256.2 33.7 254.7 33.7 C 252.4 33.7 251.2 35.8 251.2 38.6 C 251.2 41.3 252.4 43.6 254.7 43.6 C 256.2 43.6 257.6 42.4 258.4 40.6 Z M 282.8 47.4 L 279.1 37.8 L 275.3 47.4 L 268.1 47.4 L 274.9 32.8 L 268.4 18.4 L 275.6 18.4 L 279.1 27.8 L 282.5 18.4 L 289.7 18.4 L 283.3 32.8 L 290 47.4 L 282.8 47.4 Z M 303.1 47.4 L 303.1 7.4 C 303.1 7.4 313.92 7.38 313.9 7.4 C 321.7 7.4 325.2 13.3 325.2 20 C 325.2 26.8 321.7 32.7 313.9 32.7 C 313.92 32.7 310.7 32.7 310.7 32.7 L 310.7 47.4 L 303.1 47.4 Z M 317.5 20 C 317.5 16.4 316 14 313.1 14 C 313.14 14.04 310.7 14 310.7 14 L 310.7 26 C 310.7 26 313.14 26.04 313.1 26 C 316 26 317.5 23.6 317.5 20 Z M 340.9 47.4 C 340.9 47.4 340.92 44.64 340.9 44.6 C 339.7 46.9 337 48.1 334.9 48.1 C 330.3 48.1 327 44.4 327 38.5 C 327 32.6 330.3 29 334.9 29 C 337 29 339.7 30.1 340.9 32.3 C 340.9 32.3 340.9 28.7 340.9 28.7 C 340.9 25.4 339.6 23.5 336.5 23.5 C 334.6 23.5 332.6 24.4 330.7 26.3 C 330.7 26.3 328.1 21.5 328.1 21.5 C 330.8 18.7 334.9 17.7 337.9 17.7 C 343.9 17.7 347.7 20.7 347.7 27.2 C 347.7 27.18 347.7 47.4 347.7 47.4 L 340.9 47.4 Z M 340.9 40.6 C 340.9 40.6 340.9 36.7 340.9 36.7 C 340.2 34.9 338.8 33.7 337.3 33.7 C 334.9 33.7 333.8 35.8 333.8 38.6 C 333.8 41.3 334.9 43.6 337.3 43.6 C 338.8 43.6 340.2 42.4 340.9 40.6 Z M 351.2 44.3 C 351.2 44.3 354 39.7 354 39.7 C 355.6 41.4 357.7 42.8 360 42.8 C 362.2 42.8 363.7 41.6 363.7 39.7 C 363.7 34.9 352.2 36 352.2 25.9 C 352.2 21.5 355.5 17.7 361.4 17.7 C 364.7 17.7 367.8 19 370 21.1 C 370 21.1 367.2 25.7 367.2 25.7 C 366.1 24.3 364 23 361.6 23 C 359.8 23 358.5 24.2 358.5 25.7 C 358.5 30.1 370.1 29.3 370.1 39.5 C 370.1 44.6 366.1 48.1 360.6 48.1 C 356.3 48.1 353.1 46.6 351.2 44.3 Z M 374.9 40.7 C 374.87 40.74 374.9 24.3 374.9 24.3 L 372.2 24.3 L 372.2 18.4 L 374.9 18.4 L 374.9 10.5 L 381.7 10.5 L 381.7 18.4 L 385.3 18.4 L 385.3 24.3 L 381.7 24.3 C 381.7 24.3 381.65 39.42 381.7 39.4 C 381.7 41.2 382.1 42.1 383.3 42.1 C 383.9 42.1 384.5 41.8 384.9 41.3 C 384.9 41.3 386.3 46.6 386.3 46.6 C 385.3 47.5 383.6 48.1 381.5 48.1 C 376.8 48.1 374.9 45.7 374.9 40.7 Z M 388.3 32.9 C 388.3 24.5 391.9 17.7 399.2 17.7 C 406.5 17.7 409.6 24.2 409.6 32.8 C 409.55 32.76 409.6 35.1 409.6 35.1 C 409.6 35.1 394.85 35.1 394.9 35.1 C 394.9 39.4 396.7 42.6 400.6 42.6 C 402.2 42.6 404 41.5 405.4 39.7 C 405.4 39.7 408.7 43.5 408.7 43.5 C 406.4 46.4 403.1 48.1 399.8 48.1 C 392.3 48.1 388.3 41.8 388.3 32.9 Z M 399 23.2 C 395.7 23.2 394.9 27.3 394.9 30.4 C 394.9 30.4 403 30.4 403 30.4 C 403 27.1 402.3 23.2 399 23.2 Z " stroke="none" fill="#b13d24"/>  </g></svg>