<?xml version="1.0" standalone="no"?><!DOCTYPE svg PUBLIC "-//W3C//DTD SVG 1.1//EN" "http://www.w3.org/Graphics/SVG/1.1/DTD/svg11.dtd"><svg xmlns="http://www.w3.org/2000/svg" version="1.1" width="841px" height="256.1px" viewBox="0 0 841 256.1">  <desc>Seared Talcum Paste on Chopped Fruit Netting with Assorted Sauces</desc>  <defs/>  <g id="Polygon116865">    <path d="M 193.5 192.9 L 188.5 169.2 L 183.5 192.9 L 175 192.9 L 167 158.1 L 175.4 158.1 L 179.8 181.9 L 184.3 158.1 L 192.2 158.1 L 197.1 181.9 L 201.5 158.1 L 210 158.1 L 202 192.9 L 193.5 192.9 Z M 212.8 149.1 C 212.8 146.4 215.1 144.1 217.7 144.1 C 220.5 144.1 222.7 146.4 222.7 149.1 C 222.7 151.8 220.5 154 217.7 154 C 215.1 154 212.8 151.8 212.8 149.1 Z M 213.7 192.9 L 213.7 158.1 L 221.8 158.1 L 221.8 192.9 L 213.7 192.9 Z M 229.5 184.9 C 229.45 184.89 229.5 165.2 229.5 165.2 L 226.2 165.2 L 226.2 158.1 L 229.5 158.1 L 229.5 148.6 L 237.6 148.6 L 237.6 158.1 L 242 158.1 L 242 165.2 L 237.6 165.2 C 237.6 165.2 237.59 183.3 237.6 183.3 C 237.6 185.5 238.1 186.5 239.5 186.5 C 240.3 186.5 241 186.2 241.5 185.6 C 241.5 185.6 243.1 191.9 243.1 191.9 C 241.9 193 240 193.7 237.4 193.7 C 231.8 193.7 229.5 190.9 229.5 184.9 Z M 262.4 192.9 C 262.4 192.9 262.43 167.97 262.4 168 C 262.4 165.6 261.6 164.4 259.8 164.4 C 257.7 164.4 255.9 166.7 255.1 169 C 255.09 168.98 255.1 192.9 255.1 192.9 L 247 192.9 L 247 144.9 L 255.1 144.9 C 255.1 144.9 255.09 162.64 255.1 162.6 C 256.5 159.8 260.1 157.2 263.2 157.2 C 268.5 157.2 270.6 160.1 270.6 165.1 C 270.64 165.09 270.6 192.9 270.6 192.9 L 262.4 192.9 Z M 306.8 192.9 L 305.3 184 L 296.4 184 L 295 192.9 L 285.6 192.9 L 295.6 144.9 L 306.1 144.9 L 316.1 192.9 L 306.8 192.9 Z M 300.9 155 L 297.4 176 L 304.3 176 L 300.9 155 Z M 317 189.2 C 317 189.2 320.4 183.6 320.4 183.6 C 322.3 185.7 324.9 187.3 327.6 187.3 C 330.2 187.3 332 185.9 332 183.6 C 332 177.9 318.2 179.2 318.2 167.1 C 318.2 161.8 322.2 157.2 329.3 157.2 C 333.3 157.2 336.9 158.8 339.5 161.3 C 339.5 161.3 336.2 166.8 336.2 166.8 C 334.9 165.2 332.3 163.6 329.5 163.6 C 327.3 163.6 325.8 165.1 325.8 166.9 C 325.8 172.1 339.7 171.2 339.7 183.4 C 339.7 189.5 334.9 193.7 328.3 193.7 C 323.1 193.7 319.3 191.9 317 189.2 Z M 341.9 189.2 C 341.9 189.2 345.3 183.6 345.3 183.6 C 347.2 185.7 349.8 187.3 352.5 187.3 C 355.1 187.3 356.9 185.9 356.9 183.6 C 356.9 177.9 343.1 179.2 343.1 167.1 C 343.1 161.8 347.1 157.2 354.2 157.2 C 358.2 157.2 361.9 158.8 364.5 161.3 C 364.5 161.3 361.1 166.8 361.1 166.8 C 359.8 165.2 357.3 163.6 354.4 163.6 C 352.2 163.6 350.7 165.1 350.7 166.9 C 350.7 172.1 364.6 171.2 364.6 183.4 C 364.6 189.5 359.8 193.7 353.2 193.7 C 348 193.7 344.2 191.9 341.9 189.2 Z M 367.9 175.5 C 367.9 165.8 371.9 157.2 380.9 157.2 C 390.1 157.2 394 165.8 394 175.5 C 394 185.1 390.1 193.7 380.9 193.7 C 371.9 193.7 367.9 185.1 367.9 175.5 Z M 385.6 175.5 C 385.6 169.6 384.6 164.4 380.9 164.4 C 377.3 164.4 376.3 169.6 376.3 175.5 C 376.3 181.4 377.3 186.5 380.9 186.5 C 384.6 186.5 385.6 181.4 385.6 175.5 Z M 399.3 192.9 L 399.3 158.1 L 407.4 158.1 C 407.4 158.1 407.44 162.93 407.4 162.9 C 408.8 159.8 412.2 157.2 415.2 157.2 C 415.2 157.2 415.2 165.2 415.2 165.2 C 414.7 165.1 414.1 165 413.6 165 C 411.3 165 408.8 167 407.4 169.5 C 407.44 169.48 407.4 192.9 407.4 192.9 L 399.3 192.9 Z M 420.5 184.9 C 420.54 184.89 420.5 165.2 420.5 165.2 L 417.3 165.2 L 417.3 158.1 L 420.5 158.1 L 420.5 148.6 L 428.7 148.6 L 428.7 158.1 L 433.1 158.1 L 433.1 165.2 L 428.7 165.2 C 428.7 165.2 428.68 183.3 428.7 183.3 C 428.7 185.5 429.2 186.5 430.6 186.5 C 431.4 186.5 432.1 186.2 432.6 185.6 C 432.6 185.6 434.2 191.9 434.2 191.9 C 433 193 431.1 193.7 428.5 193.7 C 422.8 193.7 420.5 190.9 420.5 184.9 Z M 436.7 175.5 C 436.7 165.4 441 157.2 449.7 157.2 C 458.5 157.2 462.2 165.1 462.2 175.3 C 462.16 175.31 462.2 178.1 462.2 178.1 C 462.2 178.1 444.52 178.12 444.5 178.1 C 444.6 183.2 446.7 187.1 451.4 187.1 C 453.3 187.1 455.5 185.8 457.1 183.7 C 457.1 183.7 461.1 188.2 461.1 188.2 C 458.3 191.7 454.5 193.7 450.5 193.7 C 441.4 193.7 436.7 186.1 436.7 175.5 Z M 449.5 163.9 C 445.5 163.9 444.5 168.8 444.5 172.4 C 444.5 172.4 454.3 172.4 454.3 172.4 C 454.3 168.5 453.4 163.9 449.5 163.9 Z M 482.8 192.9 C 482.8 192.9 482.82 188.56 482.8 188.6 C 481.3 192 478.5 193.7 476.1 193.7 C 469.2 193.7 465.8 186.7 465.8 175.5 C 465.8 164.6 469.2 157.2 476.1 157.2 C 478.5 157.2 481.4 158.8 482.8 162.4 C 482.82 162.42 482.8 144.9 482.8 144.9 L 491 144.9 L 491 192.9 L 482.8 192.9 Z M 482.8 182.4 C 482.8 182.4 482.8 168.6 482.8 168.6 C 482.1 166.3 480.4 164.4 478.7 164.4 C 475.1 164.4 474.1 169.3 474.1 175.5 C 474.1 181.6 475.1 186.5 478.7 186.5 C 480.4 186.5 482.1 184.7 482.8 182.4 Z M 506.9 189 C 506.9 189 510.8 181.9 510.8 181.9 C 512.8 184.4 515.9 185.7 518.7 185.7 C 521.6 185.7 523.5 183.5 523.5 180.4 C 523.5 171.9 508.2 171.9 508.2 157.5 C 508.2 150.3 513.1 144.1 521.6 144.1 C 525.7 144.1 529.4 145.4 532.1 148 C 532.1 148 528.5 154.9 528.5 154.9 C 526.7 153 524.4 152.1 521.9 152.1 C 519.3 152.1 517.5 154.1 517.5 157 C 517.5 164.4 532.7 165.4 532.7 179.8 C 532.7 187.9 527.5 193.7 519.3 193.7 C 514 193.7 510 192.1 506.9 189 Z M 552.9 192.9 C 552.9 192.9 552.95 189.57 552.9 189.6 C 551.4 192.3 548.2 193.7 545.7 193.7 C 540.2 193.7 536.2 189.3 536.2 182.2 C 536.2 175.1 540.2 170.8 545.7 170.8 C 548.2 170.8 551.5 172.1 552.9 174.7 C 552.9 174.7 552.9 170.5 552.9 170.5 C 552.9 166.5 551.4 164.2 547.7 164.2 C 545.4 164.2 542.9 165.2 540.6 167.6 C 540.6 167.6 537.6 161.8 537.6 161.8 C 540.8 158.5 545.7 157.2 549.3 157.2 C 556.5 157.2 561.1 160.8 561.1 168.6 C 561.08 168.62 561.1 192.9 561.1 192.9 L 552.9 192.9 Z M 552.9 184.7 C 552.9 184.7 552.9 180 552.9 180 C 552.1 177.8 550.4 176.4 548.6 176.4 C 545.7 176.4 544.4 179 544.4 182.3 C 544.4 185.6 545.7 188.3 548.6 188.3 C 550.4 188.3 552.1 186.9 552.9 184.7 Z M 583.2 192.9 C 583.2 192.9 583.19 188.49 583.2 188.5 C 581.8 191.3 578.4 193.7 575 193.7 C 569.8 193.7 567.7 190.9 567.7 185.9 C 567.71 185.9 567.7 158.1 567.7 158.1 L 575.8 158.1 C 575.8 158.1 575.84 183.02 575.8 183 C 575.8 185.4 576.7 186.5 578.5 186.5 C 580.6 186.5 582.4 184.4 583.2 182.2 C 583.19 182.15 583.2 158.1 583.2 158.1 L 591.4 158.1 L 591.4 192.9 L 583.2 192.9 Z M 596.6 175.5 C 596.6 164.9 601.5 157.2 609.8 157.2 C 613.7 157.2 616.6 158.7 618.2 160.3 C 618.2 160.3 615.7 166.7 615.7 166.7 C 614.2 165.2 612.9 164.4 611.3 164.4 C 607 164.4 604.9 169.4 604.9 175.5 C 604.9 181.5 607 186.5 611.3 186.5 C 612.9 186.5 614.2 185.8 615.7 184.3 C 615.7 184.3 618.2 190.6 618.2 190.6 C 616.6 192.4 613.7 193.7 609.8 193.7 C 601.5 193.7 596.6 186 596.6 175.5 Z M 621.3 175.5 C 621.3 165.4 625.7 157.2 634.4 157.2 C 643.2 157.2 646.8 165.1 646.8 175.3 C 646.83 175.31 646.8 178.1 646.8 178.1 C 646.8 178.1 629.19 178.12 629.2 178.1 C 629.3 183.2 631.4 187.1 636 187.1 C 638 187.1 640.2 185.8 641.8 183.7 C 641.8 183.7 645.8 188.2 645.8 188.2 C 643 191.7 639.1 193.7 635.2 193.7 C 626.1 193.7 621.3 186.1 621.3 175.5 Z M 634.2 163.9 C 630.2 163.9 629.2 168.8 629.2 172.4 C 629.2 172.4 639 172.4 639 172.4 C 639 168.5 638.1 163.9 634.2 163.9 Z M 649.4 189.2 C 649.4 189.2 652.7 183.6 652.7 183.6 C 654.6 185.7 657.2 187.3 659.9 187.3 C 662.5 187.3 664.3 185.9 664.3 183.6 C 664.3 177.9 650.6 179.2 650.6 167.1 C 650.6 161.8 654.5 157.2 661.7 157.2 C 665.6 157.2 669.3 158.8 671.9 161.3 C 671.9 161.3 668.6 166.8 668.6 166.8 C 667.2 165.2 664.7 163.6 661.9 163.6 C 659.6 163.6 658.1 165.1 658.1 166.9 C 658.1 172.1 672 171.2 672 183.4 C 672 189.5 667.3 193.7 660.7 193.7 C 655.5 193.7 651.7 191.9 649.4 189.2 Z " stroke="none" fill="#e9e8e8"/>  </g>  <g id="Polygon116864">    <path d="M 161.1 100.9 C 161.1 86.6 165.6 76.1 176.1 76.1 C 183.9 76.1 186.7 82.3 188.2 87.4 C 188.2 87.4 181 90 181 90 C 180 86.4 178.8 84.1 176.1 84.1 C 171.8 84.1 170.4 91.1 170.4 100.9 C 170.4 110.7 171.8 117.7 176.1 117.7 C 179.1 117.7 180.4 114.7 181 110.7 C 181 110.7 188.3 113.4 188.3 113.4 C 186.9 118.8 184.1 125.7 176.1 125.7 C 165.6 125.7 161.1 115.2 161.1 100.9 Z M 208.5 124.9 C 208.5 124.9 208.54 99.97 208.5 100 C 208.5 97.6 207.7 96.4 205.9 96.4 C 203.8 96.4 202 98.7 201.2 101 C 201.2 100.98 201.2 124.9 201.2 124.9 L 193.1 124.9 L 193.1 76.9 L 201.2 76.9 C 201.2 76.9 201.2 94.64 201.2 94.6 C 202.6 91.8 206.2 89.2 209.3 89.2 C 214.6 89.2 216.7 92.1 216.7 97.1 C 216.75 97.09 216.7 124.9 216.7 124.9 L 208.5 124.9 Z M 221.9 107.5 C 221.9 97.8 225.9 89.2 235 89.2 C 244.1 89.2 248.1 97.8 248.1 107.5 C 248.1 117.1 244.1 125.7 235 125.7 C 225.9 125.7 221.9 117.1 221.9 107.5 Z M 239.6 107.5 C 239.6 101.6 238.6 96.4 235 96.4 C 231.4 96.4 230.4 101.6 230.4 107.5 C 230.4 113.4 231.4 118.5 235 118.5 C 238.6 118.5 239.6 113.4 239.6 107.5 Z M 261.5 120.6 C 261.46 120.56 261.5 138.1 261.5 138.1 L 253.3 138.1 L 253.3 90.1 L 261.5 90.1 C 261.5 90.1 261.46 94.42 261.5 94.4 C 263 91 265.8 89.2 268.2 89.2 C 275.1 89.2 278.5 96.3 278.5 107.5 C 278.5 118.4 275.1 125.7 268.2 125.7 C 265.8 125.7 262.9 124.2 261.5 120.6 Z M 270.2 107.5 C 270.2 101.3 269.2 96.4 265.6 96.4 C 263.8 96.4 262.2 98.2 261.5 100.5 C 261.5 100.5 261.5 114.4 261.5 114.4 C 262.2 116.7 263.8 118.5 265.6 118.5 C 269.2 118.5 270.2 113.6 270.2 107.5 Z M 291.9 120.6 C 291.91 120.56 291.9 138.1 291.9 138.1 L 283.8 138.1 L 283.8 90.1 L 291.9 90.1 C 291.9 90.1 291.91 94.42 291.9 94.4 C 293.4 91 296.2 89.2 298.7 89.2 C 305.5 89.2 309 96.3 309 107.5 C 309 118.4 305.5 125.7 298.7 125.7 C 296.2 125.7 293.4 124.2 291.9 120.6 Z M 300.6 107.5 C 300.6 101.3 299.6 96.4 296 96.4 C 294.3 96.4 292.6 98.2 291.9 100.5 C 291.9 100.5 291.9 114.4 291.9 114.4 C 292.6 116.7 294.3 118.5 296 118.5 C 299.6 118.5 300.6 113.6 300.6 107.5 Z M 312.9 107.5 C 312.9 97.4 317.2 89.2 325.9 89.2 C 334.7 89.2 338.4 97.1 338.4 107.3 C 338.35 107.31 338.4 110.1 338.4 110.1 C 338.4 110.1 320.71 110.12 320.7 110.1 C 320.8 115.2 322.9 119.1 327.6 119.1 C 329.5 119.1 331.7 117.8 333.3 115.7 C 333.3 115.7 337.3 120.2 337.3 120.2 C 334.5 123.7 330.6 125.7 326.7 125.7 C 317.6 125.7 312.9 118.1 312.9 107.5 Z M 325.7 95.9 C 321.7 95.9 320.7 100.8 320.7 104.4 C 320.7 104.4 330.5 104.4 330.5 104.4 C 330.5 100.5 329.6 95.9 325.7 95.9 Z M 359 124.9 C 359 124.9 359.02 120.56 359 120.6 C 357.5 124 354.7 125.7 352.2 125.7 C 345.4 125.7 342 118.7 342 107.5 C 342 96.6 345.4 89.2 352.2 89.2 C 354.7 89.2 357.6 90.8 359 94.4 C 359.02 94.42 359 76.9 359 76.9 L 367.2 76.9 L 367.2 124.9 L 359 124.9 Z M 359 114.4 C 359 114.4 359 100.6 359 100.6 C 358.3 98.3 356.6 96.4 354.9 96.4 C 351.3 96.4 350.3 101.3 350.3 107.5 C 350.3 113.6 351.3 118.5 354.9 118.5 C 356.6 118.5 358.3 116.7 359 114.4 Z M 385.9 124.9 L 385.9 76.9 L 407 76.9 L 407 84.8 L 395 84.8 L 395 96.4 L 406.5 96.4 L 406.5 104.4 L 395 104.4 L 395 124.9 L 385.9 124.9 Z M 412.6 124.9 L 412.6 90.1 L 420.7 90.1 C 420.7 90.1 420.72 94.93 420.7 94.9 C 422.1 91.8 425.5 89.2 428.5 89.2 C 428.5 89.2 428.5 97.2 428.5 97.2 C 428 97.1 427.4 97 426.9 97 C 424.5 97 422.1 99 420.7 101.5 C 420.72 101.48 420.7 124.9 420.7 124.9 L 412.6 124.9 Z M 448.2 124.9 C 448.2 124.9 448.22 120.49 448.2 120.5 C 446.9 123.3 443.5 125.7 440.1 125.7 C 434.8 125.7 432.7 122.9 432.7 117.9 C 432.74 117.9 432.7 90.1 432.7 90.1 L 440.9 90.1 C 440.9 90.1 440.88 115.02 440.9 115 C 440.9 117.4 441.7 118.5 443.5 118.5 C 445.6 118.5 447.4 116.4 448.2 114.2 C 448.22 114.15 448.2 90.1 448.2 90.1 L 456.4 90.1 L 456.4 124.9 L 448.2 124.9 Z M 462 81.1 C 462 78.4 464.4 76.1 467 76.1 C 469.8 76.1 472 78.4 472 81.1 C 472 83.8 469.8 86 467 86 C 464.4 86 462 83.8 462 81.1 Z M 463 124.9 L 463 90.1 L 471.1 90.1 L 471.1 124.9 L 463 124.9 Z M 478.8 116.9 C 478.75 116.89 478.8 97.2 478.8 97.2 L 475.5 97.2 L 475.5 90.1 L 478.8 90.1 L 478.8 80.6 L 486.9 80.6 L 486.9 90.1 L 491.3 90.1 L 491.3 97.2 L 486.9 97.2 C 486.9 97.2 486.89 115.3 486.9 115.3 C 486.9 117.5 487.4 118.5 488.8 118.5 C 489.6 118.5 490.3 118.2 490.8 117.6 C 490.8 117.6 492.4 123.9 492.4 123.9 C 491.2 125 489.3 125.7 486.7 125.7 C 481.1 125.7 478.8 122.9 478.8 116.9 Z M 527.2 124.9 L 517.5 99.5 L 517.5 124.9 L 508.4 124.9 L 508.4 76.9 L 517.5 76.9 L 526.7 101.3 L 526.7 76.9 L 535.8 76.9 L 535.8 124.9 L 527.2 124.9 Z M 541.5 107.5 C 541.5 97.4 545.8 89.2 554.5 89.2 C 563.3 89.2 566.9 97.1 566.9 107.3 C 566.95 107.31 566.9 110.1 566.9 110.1 C 566.9 110.1 549.31 110.12 549.3 110.1 C 549.4 115.2 551.5 119.1 556.1 119.1 C 558.1 119.1 560.3 117.8 561.9 115.7 C 561.9 115.7 565.9 120.2 565.9 120.2 C 563.1 123.7 559.2 125.7 555.3 125.7 C 546.2 125.7 541.5 118.1 541.5 107.5 Z M 554.3 95.9 C 550.3 95.9 549.3 100.8 549.3 104.4 C 549.3 104.4 559.1 104.4 559.1 104.4 C 559.1 100.5 558.2 95.9 554.3 95.9 Z M 573 116.9 C 573 116.89 573 97.2 573 97.2 L 569.8 97.2 L 569.8 90.1 L 573 90.1 L 573 80.6 L 581.1 80.6 L 581.1 90.1 L 585.5 90.1 L 585.5 97.2 L 581.1 97.2 C 581.1 97.2 581.13 115.3 581.1 115.3 C 581.1 117.5 581.6 118.5 583.1 118.5 C 583.9 118.5 584.6 118.2 585 117.6 C 585 117.6 586.7 123.9 586.7 123.9 C 585.5 125 583.5 125.7 581 125.7 C 575.3 125.7 573 122.9 573 116.9 Z M 591.6 116.9 C 591.57 116.89 591.6 97.2 591.6 97.2 L 588.3 97.2 L 588.3 90.1 L 591.6 90.1 L 591.6 80.6 L 599.7 80.6 L 599.7 90.1 L 604.1 90.1 L 604.1 97.2 L 599.7 97.2 C 599.7 97.2 599.71 115.3 599.7 115.3 C 599.7 117.5 600.2 118.5 601.7 118.5 C 602.4 118.5 603.2 118.2 603.6 117.6 C 603.6 117.6 605.3 123.9 605.3 123.9 C 604 125 602.1 125.7 599.6 125.7 C 593.9 125.7 591.6 122.9 591.6 116.9 Z M 608.1 81.1 C 608.1 78.4 610.4 76.1 613.1 76.1 C 615.8 76.1 618.1 78.4 618.1 81.1 C 618.1 83.8 615.8 86 613.1 86 C 610.4 86 608.1 83.8 608.1 81.1 Z M 609.1 124.9 L 609.1 90.1 L 617.2 90.1 L 617.2 124.9 L 609.1 124.9 Z M 639.2 124.9 C 639.2 124.9 639.24 100.11 639.2 100.1 C 639.2 97.7 638.4 96.4 636.6 96.4 C 634.5 96.4 632.7 98.7 631.9 101 C 631.89 100.98 631.9 124.9 631.9 124.9 L 623.8 124.9 L 623.8 90.1 L 631.9 90.1 C 631.9 90.1 631.89 94.64 631.9 94.6 C 633.3 91.8 636.9 89.2 640 89.2 C 645.3 89.2 647.4 92.3 647.4 97.2 C 647.44 97.16 647.4 124.9 647.4 124.9 L 639.2 124.9 Z M 653.9 135.2 C 653.9 135.2 656.7 128.6 656.7 128.6 C 658.7 130.6 661.1 131.9 663.8 131.9 C 667.2 131.9 669.7 129.7 669.7 124.3 C 669.7 124.3 669.7 119.3 669.7 119.3 C 668.2 122.8 665.4 124.6 662.9 124.6 C 656.1 124.6 652.6 118.1 652.6 107 C 652.6 96 656.1 89.2 662.9 89.2 C 665.4 89.2 668.3 90.8 669.7 94.4 C 669.69 94.42 669.7 90.1 669.7 90.1 L 677.8 90.1 C 677.8 90.1 677.83 123.73 677.8 123.7 C 677.8 135.7 671.4 139 664.7 139 C 660.3 139 656.8 138 653.9 135.2 Z M 669.7 113.2 C 669.7 113.2 669.7 100.6 669.7 100.6 C 669 98.3 667.3 96.4 665.6 96.4 C 662 96.4 661 100.8 661 107 C 661 113.1 662 117.4 665.6 117.4 C 667.3 117.4 669 115.5 669.7 113.2 Z " stroke="none" fill="#e9e8e8"/>  </g>  <g id="Polygon116863">    <path d="M 138.8 53 C 138.8 53 142.8 45.9 142.8 45.9 C 144.7 48.4 147.8 49.7 150.7 49.7 C 153.5 49.7 155.5 47.5 155.5 44.4 C 155.5 35.9 140.2 35.9 140.2 21.5 C 140.2 14.3 145.1 8.1 153.6 8.1 C 157.6 8.1 161.4 9.4 164 12 C 164 12 160.5 18.9 160.5 18.9 C 158.6 17 156.4 16.1 153.9 16.1 C 151.3 16.1 149.4 18.1 149.4 21 C 149.4 28.4 164.7 29.4 164.7 43.8 C 164.7 51.9 159.4 57.7 151.2 57.7 C 146 57.7 141.9 56.1 138.8 53 Z M 168.4 39.5 C 168.4 29.4 172.8 21.2 181.5 21.2 C 190.3 21.2 193.9 29.1 193.9 39.3 C 193.92 39.31 193.9 42.1 193.9 42.1 C 193.9 42.1 176.28 42.12 176.3 42.1 C 176.4 47.2 178.5 51.1 183.1 51.1 C 185.1 51.1 187.3 49.8 188.9 47.7 C 188.9 47.7 192.8 52.2 192.8 52.2 C 190.1 55.7 186.2 57.7 182.3 57.7 C 173.2 57.7 168.4 50.1 168.4 39.5 Z M 181.3 27.9 C 177.3 27.9 176.3 32.8 176.3 36.4 C 176.3 36.4 186.1 36.4 186.1 36.4 C 186.1 32.5 185.2 27.9 181.3 27.9 Z M 214 56.9 C 214 56.9 214.01 53.57 214 53.6 C 212.5 56.3 209.3 57.7 206.7 57.7 C 201.3 57.7 197.3 53.3 197.3 46.2 C 197.3 39.1 201.3 34.8 206.7 34.8 C 209.3 34.8 212.6 36.1 214 38.7 C 214 38.7 214 34.5 214 34.5 C 214 30.5 212.4 28.2 208.8 28.2 C 206.5 28.2 204 29.2 201.7 31.6 C 201.7 31.6 198.7 25.8 198.7 25.8 C 201.8 22.5 206.8 21.2 210.4 21.2 C 217.5 21.2 222.1 24.8 222.1 32.6 C 222.15 32.62 222.1 56.9 222.1 56.9 L 214 56.9 Z M 214 48.7 C 214 48.7 214 44 214 44 C 213.1 41.8 211.4 40.4 209.6 40.4 C 206.8 40.4 205.4 43 205.4 46.3 C 205.4 49.6 206.8 52.3 209.6 52.3 C 211.4 52.3 213.1 50.9 214 48.7 Z M 228.8 56.9 L 228.8 22.1 L 236.9 22.1 C 236.9 22.1 236.91 26.93 236.9 26.9 C 238.3 23.8 241.7 21.2 244.7 21.2 C 244.7 21.2 244.7 29.2 244.7 29.2 C 244.2 29.1 243.6 29 243.1 29 C 240.7 29 238.3 31 236.9 33.5 C 236.91 33.48 236.9 56.9 236.9 56.9 L 228.8 56.9 Z M 247.6 39.5 C 247.6 29.4 251.9 21.2 260.6 21.2 C 269.4 21.2 273.1 29.1 273.1 39.3 C 273.05 39.31 273.1 42.1 273.1 42.1 C 273.1 42.1 255.41 42.12 255.4 42.1 C 255.5 47.2 257.6 51.1 262.3 51.1 C 264.2 51.1 266.4 49.8 268 47.7 C 268 47.7 272 52.2 272 52.2 C 269.2 55.7 265.3 57.7 261.4 57.7 C 252.3 57.7 247.6 50.1 247.6 39.5 Z M 260.4 27.9 C 256.4 27.9 255.4 32.8 255.4 36.4 C 255.4 36.4 265.2 36.4 265.2 36.4 C 265.2 32.5 264.3 27.9 260.4 27.9 Z M 293.7 56.9 C 293.7 56.9 293.71 52.56 293.7 52.6 C 292.2 56 289.4 57.7 286.9 57.7 C 280.1 57.7 276.7 50.7 276.7 39.5 C 276.7 28.6 280.1 21.2 286.9 21.2 C 289.4 21.2 292.3 22.8 293.7 26.4 C 293.71 26.42 293.7 8.9 293.7 8.9 L 301.9 8.9 L 301.9 56.9 L 293.7 56.9 Z M 293.7 46.4 C 293.7 46.4 293.7 32.6 293.7 32.6 C 293 30.3 291.3 28.4 289.6 28.4 C 286 28.4 285 33.3 285 39.5 C 285 45.6 286 50.5 289.6 50.5 C 291.3 50.5 293 48.7 293.7 46.4 Z M 325.5 56.9 L 325.5 16.8 L 318.2 16.8 L 318.2 8.9 L 341.8 8.9 L 341.8 16.8 L 334.5 16.8 L 334.5 56.9 L 325.5 56.9 Z M 358.2 56.9 C 358.2 56.9 358.23 53.57 358.2 53.6 C 356.7 56.3 353.5 57.7 351 57.7 C 345.5 57.7 341.5 53.3 341.5 46.2 C 341.5 39.1 345.5 34.8 351 34.8 C 353.5 34.8 356.8 36.1 358.2 38.7 C 358.2 38.7 358.2 34.5 358.2 34.5 C 358.2 30.5 356.6 28.2 353 28.2 C 350.7 28.2 348.2 29.2 345.9 31.6 C 345.9 31.6 342.9 25.8 342.9 25.8 C 346.1 22.5 351 21.2 354.6 21.2 C 361.8 21.2 366.4 24.8 366.4 32.6 C 366.36 32.62 366.4 56.9 366.4 56.9 L 358.2 56.9 Z M 358.2 48.7 C 358.2 48.7 358.2 44 358.2 44 C 357.4 41.8 355.6 40.4 353.8 40.4 C 351 40.4 349.7 43 349.7 46.3 C 349.7 49.6 351 52.3 353.8 52.3 C 355.6 52.3 357.4 50.9 358.2 48.7 Z M 373 56.9 L 373 8.9 L 381.1 8.9 L 381.1 56.9 L 373 56.9 Z M 386.3 39.5 C 386.3 28.9 391.2 21.2 399.6 21.2 C 403.4 21.2 406.3 22.7 408 24.3 C 408 24.3 405.4 30.7 405.4 30.7 C 403.9 29.2 402.6 28.4 401 28.4 C 396.7 28.4 394.7 33.4 394.7 39.5 C 394.7 45.5 396.7 50.5 401 50.5 C 402.6 50.5 403.9 49.8 405.4 48.3 C 405.4 48.3 408 54.6 408 54.6 C 406.3 56.4 403.4 57.7 399.6 57.7 C 391.2 57.7 386.3 50 386.3 39.5 Z M 427.9 56.9 C 427.9 56.9 427.92 52.49 427.9 52.5 C 426.6 55.3 423.2 57.7 419.8 57.7 C 414.5 57.7 412.4 54.9 412.4 49.9 C 412.44 49.9 412.4 22.1 412.4 22.1 L 420.6 22.1 C 420.6 22.1 420.58 47.02 420.6 47 C 420.6 49.4 421.4 50.5 423.2 50.5 C 425.3 50.5 427.1 48.4 427.9 46.2 C 427.92 46.15 427.9 22.1 427.9 22.1 L 436.1 22.1 L 436.1 56.9 L 427.9 56.9 Z M 473.7 56.9 C 473.7 56.9 473.71 32.11 473.7 32.1 C 473.7 29.5 472.8 28.4 471 28.4 C 468.8 28.4 467.1 30.9 466.4 33 C 466.37 32.98 466.4 56.9 466.4 56.9 L 458.2 56.9 C 458.2 56.9 458.16 32.11 458.2 32.1 C 458.2 29.7 457.4 28.4 455.5 28.4 C 453.3 28.4 451.5 30.9 450.8 33 C 450.82 32.98 450.8 56.9 450.8 56.9 L 442.7 56.9 L 442.7 22.1 L 450.8 22.1 C 450.8 22.1 450.82 26.64 450.8 26.6 C 452 24 455.6 21.2 459 21.2 C 462.6 21.2 465.5 23 466.1 27 C 467.4 24.1 471 21.2 474.5 21.2 C 478.8 21.2 481.8 23.5 481.8 29.2 C 481.85 29.16 481.8 56.9 481.8 56.9 L 473.7 56.9 Z M 500.6 56.9 L 500.6 8.9 C 500.6 8.9 513.6 8.86 513.6 8.9 C 523 8.9 527.1 16 527.1 24 C 527.1 32.1 523 39.2 513.6 39.2 C 513.6 39.24 509.7 39.2 509.7 39.2 L 509.7 56.9 L 500.6 56.9 Z M 517.9 24 C 517.9 19.7 516 16.8 512.7 16.8 C 512.66 16.85 509.7 16.8 509.7 16.8 L 509.7 31.2 C 509.7 31.2 512.66 31.25 512.7 31.2 C 516 31.2 517.9 28.4 517.9 24 Z M 546 56.9 C 546 56.9 546 53.57 546 53.6 C 544.5 56.3 541.2 57.7 538.7 57.7 C 533.3 57.7 529.3 53.3 529.3 46.2 C 529.3 39.1 533.3 34.8 538.7 34.8 C 541.2 34.8 544.6 36.1 546 38.7 C 546 38.7 546 34.5 546 34.5 C 546 30.5 544.4 28.2 540.7 28.2 C 538.4 28.2 536 29.2 533.7 31.6 C 533.7 31.6 530.7 25.8 530.7 25.8 C 533.8 22.5 538.8 21.2 542.4 21.2 C 549.5 21.2 554.1 24.8 554.1 32.6 C 554.13 32.62 554.1 56.9 554.1 56.9 L 546 56.9 Z M 546 48.7 C 546 48.7 546 44 546 44 C 545.1 41.8 543.4 40.4 541.6 40.4 C 538.8 40.4 537.4 43 537.4 46.3 C 537.4 49.6 538.8 52.3 541.6 52.3 C 543.4 52.3 545.1 50.9 546 48.7 Z M 558.3 53.2 C 558.3 53.2 561.7 47.6 561.7 47.6 C 563.6 49.7 566.2 51.3 568.9 51.3 C 571.5 51.3 573.3 49.9 573.3 47.6 C 573.3 41.9 559.5 43.2 559.5 31.1 C 559.5 25.8 563.5 21.2 570.6 21.2 C 574.6 21.2 578.3 22.8 580.8 25.3 C 580.8 25.3 577.5 30.8 577.5 30.8 C 576.2 29.2 573.6 27.6 570.8 27.6 C 568.6 27.6 567.1 29.1 567.1 30.9 C 567.1 36.1 581 35.2 581 47.4 C 581 53.5 576.2 57.7 569.6 57.7 C 564.4 57.7 560.6 55.9 558.3 53.2 Z M 586.7 48.9 C 586.75 48.89 586.7 29.2 586.7 29.2 L 583.5 29.2 L 583.5 22.1 L 586.7 22.1 L 586.7 12.6 L 594.9 12.6 L 594.9 22.1 L 599.3 22.1 L 599.3 29.2 L 594.9 29.2 C 594.9 29.2 594.89 47.3 594.9 47.3 C 594.9 49.5 595.4 50.5 596.8 50.5 C 597.6 50.5 598.3 50.2 598.8 49.6 C 598.8 49.6 600.4 55.9 600.4 55.9 C 599.2 57 597.3 57.7 594.7 57.7 C 589.1 57.7 586.7 54.9 586.7 48.9 Z M 602.9 39.5 C 602.9 29.4 607.2 21.2 615.9 21.2 C 624.7 21.2 628.4 29.1 628.4 39.3 C 628.37 39.31 628.4 42.1 628.4 42.1 C 628.4 42.1 610.73 42.12 610.7 42.1 C 610.8 47.2 613 51.1 617.6 51.1 C 619.5 51.1 621.7 49.8 623.3 47.7 C 623.3 47.7 627.3 52.2 627.3 52.2 C 624.5 55.7 620.7 57.7 616.7 57.7 C 607.6 57.7 602.9 50.1 602.9 39.5 Z M 615.7 27.9 C 611.7 27.9 610.7 32.8 610.7 36.4 C 610.7 36.4 620.5 36.4 620.5 36.4 C 620.5 32.5 619.7 27.9 615.7 27.9 Z M 643.7 39.5 C 643.7 29.8 647.7 21.2 656.7 21.2 C 665.9 21.2 669.8 29.8 669.8 39.5 C 669.8 49.1 665.9 57.7 656.7 57.7 C 647.7 57.7 643.7 49.1 643.7 39.5 Z M 661.4 39.5 C 661.4 33.6 660.4 28.4 656.7 28.4 C 653.1 28.4 652.1 33.6 652.1 39.5 C 652.1 45.4 653.1 50.5 656.7 50.5 C 660.4 50.5 661.4 45.4 661.4 39.5 Z M 690.6 56.9 C 690.6 56.9 690.57 32.11 690.6 32.1 C 690.6 29.7 689.7 28.4 687.9 28.4 C 685.8 28.4 684 30.7 683.2 33 C 683.23 32.98 683.2 56.9 683.2 56.9 L 675.1 56.9 L 675.1 22.1 L 683.2 22.1 C 683.2 22.1 683.23 26.64 683.2 26.6 C 684.6 23.8 688.2 21.2 691.4 21.2 C 696.6 21.2 698.8 24.3 698.8 29.2 C 698.78 29.16 698.8 56.9 698.8 56.9 L 690.6 56.9 Z " stroke="none" fill="#e9e8e8"/>  </g></svg>