<?xml version="1.0" standalone="no"?><!DOCTYPE svg PUBLIC "-//W3C//DTD SVG 1.1//EN" "http://www.w3.org/Graphics/SVG/1.1/DTD/svg11.dtd"><svg xmlns="http://www.w3.org/2000/svg" version="1.1" width="494px" height="395.3px" viewBox="0 0 494 395.3">  <desc>Alcanivorase extract Bromophenol Geosmin oxide Iodised salt Pentastistryl hydroxide Sodium flavonoate Tetraxanthane T</desc>  <defs/>  <g id="Polygon224570">    <path d="M 5.5 276.4 L 5.5 258.5 L 0.8 258.5 L 0.8 256.4 L 12.6 256.4 L 12.6 258.5 L 7.9 258.5 L 7.9 276.4 L 5.5 276.4 Z M 13.3 276.4 L 13.3 261.9 L 15.4 261.9 C 15.4 261.9 15.39 264.2 15.4 264.2 C 16.3 262.7 17.7 261.6 19.5 261.6 C 19.5 261.6 19.5 263.8 19.5 263.8 C 19.3 263.7 19 263.7 18.8 263.7 C 17.5 263.7 16 264.9 15.4 266.1 C 15.39 266.09 15.4 276.4 15.4 276.4 L 13.3 276.4 Z M 21.3 258.3 C 21.3 257.5 22 256.8 22.7 256.8 C 23.5 256.8 24.2 257.5 24.2 258.3 C 24.2 259.1 23.5 259.8 22.7 259.8 C 22 259.8 21.3 259.1 21.3 258.3 Z M 21.7 276.4 L 21.7 261.9 L 23.8 261.9 L 23.8 276.4 L 21.7 276.4 Z M 42.1 276.4 C 42.1 276.4 42.12 265.88 42.1 265.9 C 42.1 264.3 41.5 263.4 40.1 263.4 C 38.8 263.4 37.5 264.6 37 265.8 C 36.96 265.76 37 276.4 37 276.4 L 34.8 276.4 C 34.8 276.4 34.8 265.88 34.8 265.9 C 34.8 264.3 34.2 263.4 32.8 263.4 C 31.5 263.4 30.2 264.6 29.6 265.8 C 29.61 265.76 29.6 276.4 29.6 276.4 L 27.5 276.4 L 27.5 261.9 L 29.6 261.9 C 29.6 261.9 29.61 263.96 29.6 264 C 30.2 262.9 31.8 261.5 33.6 261.5 C 35.4 261.5 36.6 262.6 36.8 264.1 C 37.6 262.8 39.2 261.5 40.9 261.5 C 43 261.5 44.3 262.7 44.3 265.3 C 44.28 265.31 44.3 276.4 44.3 276.4 L 42.1 276.4 Z M 47.2 269.1 C 47.2 264.9 49.4 261.5 53.1 261.5 C 56.9 261.5 58.8 264.9 58.8 269.2 C 58.83 269.18 58.8 269.8 58.8 269.8 C 58.8 269.8 49.44 269.84 49.4 269.8 C 49.5 272.7 51 274.9 53.6 274.9 C 54.9 274.9 56.2 274.3 57.1 273.2 C 57.1 273.2 58.2 274.4 58.2 274.4 C 57 275.9 55.4 276.7 53.4 276.7 C 49.6 276.7 47.2 273.6 47.2 269.1 Z M 53.1 263.3 C 50.5 263.3 49.5 266.1 49.4 268.2 C 49.4 268.2 56.7 268.2 56.7 268.2 C 56.7 266 55.7 263.3 53.1 263.3 Z M 62.1 273.5 C 62.1 273.47 62.1 263.8 62.1 263.8 L 60.2 263.8 L 60.2 261.9 L 62.1 261.9 L 62.1 257.9 L 64.3 257.9 L 64.3 261.9 L 66.7 261.9 L 66.7 263.8 L 64.3 263.8 C 64.3 263.8 64.26 273.08 64.3 273.1 C 64.3 274.2 64.6 274.8 65.4 274.8 C 66 274.8 66.4 274.6 66.7 274.2 C 66.7 274.2 67.3 275.9 67.3 275.9 C 66.8 276.4 66.1 276.7 65 276.7 C 63 276.7 62.1 275.6 62.1 273.5 Z M 77.1 276.4 C 77.1 276.4 77.13 266.03 77.1 266 C 77.1 264.1 76.2 263.4 74.8 263.4 C 73.4 263.4 72.1 264.6 71.4 265.8 C 71.4 265.76 71.4 276.4 71.4 276.4 L 69.3 276.4 L 69.3 256.4 L 71.4 256.4 C 71.4 256.4 71.4 263.96 71.4 264 C 72.2 262.7 73.9 261.5 75.6 261.5 C 78.1 261.5 79.3 262.8 79.3 265.4 C 79.26 265.4 79.3 276.4 79.3 276.4 L 77.1 276.4 Z M 82.5 280.1 C 82.8 280.3 83.2 280.3 83.5 280.3 C 84.3 280.3 84.8 280 85.2 278.9 C 85.17 278.9 85.9 276.7 85.9 276.7 L 81.1 261.9 L 83.5 261.9 L 87.1 273.8 L 90.7 261.9 L 93 261.9 C 93 261.9 87.21 279.44 87.2 279.4 C 86.5 281.5 85.3 282.3 83.6 282.3 C 83.2 282.3 82.5 282.2 82.2 282 C 82.2 282 82.5 280.1 82.5 280.1 Z M 94.9 276.4 L 94.9 256.4 L 97 256.4 L 97 276.4 L 94.9 276.4 Z M 108.1 276.4 C 108.1 276.4 108.09 274.82 108.1 274.8 C 107.2 276.1 105.7 276.7 104.3 276.7 C 101.9 276.7 99.9 274.9 99.9 271.9 C 99.9 268.9 101.9 267.1 104.3 267.1 C 105.7 267.1 107.2 267.7 108.1 269 C 108.1 269 108.1 266.5 108.1 266.5 C 108.1 264.5 107 263.4 105.1 263.4 C 103.8 263.4 102.6 263.9 101.5 265.2 C 101.5 265.2 100.5 263.6 100.5 263.6 C 101.9 262.2 103.6 261.5 105.4 261.5 C 108.3 261.5 110.2 262.9 110.2 266.2 C 110.25 266.24 110.2 276.4 110.2 276.4 L 108.1 276.4 Z M 108.1 273.3 C 108.1 273.3 108.1 270.6 108.1 270.6 C 107.4 269.4 106.2 268.7 105 268.7 C 103.2 268.7 102.1 270.1 102.1 271.9 C 102.1 273.7 103.2 275.2 105 275.2 C 106.2 275.2 107.4 274.5 108.1 273.3 Z M 128.5 276.4 C 128.5 276.4 128.52 265.88 128.5 265.9 C 128.5 264.3 127.9 263.4 126.5 263.4 C 125.2 263.4 123.9 264.6 123.4 265.8 C 123.36 265.76 123.4 276.4 123.4 276.4 L 121.2 276.4 C 121.2 276.4 121.2 265.88 121.2 265.9 C 121.2 264.3 120.6 263.4 119.2 263.4 C 117.9 263.4 116.6 264.6 116 265.8 C 116.01 265.76 116 276.4 116 276.4 L 113.9 276.4 L 113.9 261.9 L 116 261.9 C 116 261.9 116.01 263.96 116 264 C 116.6 262.9 118.2 261.5 120 261.5 C 121.8 261.5 123 262.6 123.2 264.1 C 124 262.8 125.6 261.5 127.3 261.5 C 129.4 261.5 130.7 262.7 130.7 265.3 C 130.68 265.31 130.7 276.4 130.7 276.4 L 128.5 276.4 Z M 133.9 258.3 C 133.9 257.5 134.6 256.8 135.4 256.8 C 136.2 256.8 136.9 257.5 136.9 258.3 C 136.9 259.1 136.2 259.8 135.4 259.8 C 134.6 259.8 133.9 259.1 133.9 258.3 Z M 134.3 276.4 L 134.3 261.9 L 136.5 261.9 L 136.5 276.4 L 134.3 276.4 Z M 148 276.4 C 148 276.4 147.96 266.06 148 266.1 C 148 264.1 147.1 263.4 145.6 263.4 C 144.2 263.4 142.9 264.6 142.3 265.8 C 142.26 265.76 142.3 276.4 142.3 276.4 L 140.1 276.4 L 140.1 261.9 L 142.3 261.9 C 142.3 261.9 142.26 263.96 142.3 264 C 143.1 262.7 144.7 261.5 146.5 261.5 C 148.9 261.5 150.1 262.8 150.1 265.5 C 150.12 265.46 150.1 276.4 150.1 276.4 L 148 276.4 Z M 153.1 269.1 C 153.1 264.9 155.3 261.5 158.9 261.5 C 162.7 261.5 164.7 264.9 164.7 269.2 C 164.67 269.18 164.7 269.8 164.7 269.8 C 164.7 269.8 155.28 269.84 155.3 269.8 C 155.4 272.7 156.9 274.9 159.4 274.9 C 160.7 274.9 162 274.3 162.9 273.2 C 162.9 273.2 164 274.4 164 274.4 C 162.9 275.9 161.2 276.7 159.3 276.7 C 155.4 276.7 153.1 273.6 153.1 269.1 Z M 158.9 263.3 C 156.4 263.3 155.3 266.1 155.3 268.2 C 155.3 268.2 162.5 268.2 162.5 268.2 C 162.5 266 161.5 263.3 158.9 263.3 Z M 172.9 269.1 C 172.9 265 175 261.5 178.8 261.5 C 182.7 261.5 184.7 265 184.7 269.1 C 184.7 273.2 182.7 276.7 178.8 276.7 C 175 276.7 172.9 273.2 172.9 269.1 Z M 182.5 269.1 C 182.5 266.2 181.4 263.4 178.8 263.4 C 176.3 263.4 175.2 266.2 175.2 269.1 C 175.2 272.1 176.3 274.8 178.8 274.8 C 181.4 274.8 182.5 272.1 182.5 269.1 Z M 194.4 276.4 L 191 270.6 L 187.7 276.4 L 185.3 276.4 L 189.7 269 L 185.5 261.9 L 187.9 261.9 L 191 267.4 L 194.1 261.9 L 196.5 261.9 L 192.4 269 L 196.8 276.4 L 194.4 276.4 Z M 198.4 258.3 C 198.4 257.5 199.1 256.8 199.9 256.8 C 200.7 256.8 201.3 257.5 201.3 258.3 C 201.3 259.1 200.7 259.8 199.9 259.8 C 199.1 259.8 198.4 259.1 198.4 258.3 Z M 198.8 276.4 L 198.8 261.9 L 200.9 261.9 L 200.9 276.4 L 198.8 276.4 Z M 212.9 276.4 C 212.9 276.4 212.87 274.31 212.9 274.3 C 212 275.8 210.6 276.7 209.1 276.7 C 205.8 276.7 203.9 273.7 203.9 269.1 C 203.9 264.6 205.8 261.5 209.1 261.5 C 210.5 261.5 212 262.4 212.9 264 C 212.87 263.99 212.9 256.4 212.9 256.4 L 215 256.4 L 215 276.4 L 212.9 276.4 Z M 212.9 272.5 C 212.9 272.5 212.9 265.8 212.9 265.8 C 212.3 264.6 211 263.4 209.6 263.4 C 207.2 263.4 206.1 266 206.1 269.1 C 206.1 272.3 207.2 274.8 209.6 274.8 C 211 274.8 212.3 273.7 212.9 272.5 Z M 218 269.1 C 218 264.9 220.2 261.5 223.9 261.5 C 227.7 261.5 229.6 264.9 229.6 269.2 C 229.58 269.18 229.6 269.8 229.6 269.8 C 229.6 269.8 220.19 269.84 220.2 269.8 C 220.3 272.7 221.8 274.9 224.4 274.9 C 225.6 274.9 226.9 274.3 227.8 273.2 C 227.8 273.2 229 274.4 229 274.4 C 227.8 275.9 226.1 276.7 224.2 276.7 C 220.3 276.7 218 273.6 218 269.1 Z M 223.8 263.3 C 221.3 263.3 220.3 266.1 220.2 268.2 C 220.2 268.2 227.5 268.2 227.5 268.2 C 227.4 266 226.5 263.3 223.8 263.3 Z " stroke="none" fill="#d3d2d2"/>  </g>  <g id="Polygon224569">    <path d="M 5.5 240.4 L 5.5 222.5 L 0.8 222.5 L 0.8 220.4 L 12.6 220.4 L 12.6 222.5 L 7.9 222.5 L 7.9 240.4 L 5.5 240.4 Z M 11.9 233.1 C 11.9 228.9 14.1 225.5 17.7 225.5 C 21.5 225.5 23.5 228.9 23.5 233.2 C 23.46 233.18 23.5 233.8 23.5 233.8 C 23.5 233.8 14.07 233.84 14.1 233.8 C 14.2 236.7 15.7 238.9 18.2 238.9 C 19.5 238.9 20.8 238.3 21.7 237.2 C 21.7 237.2 22.8 238.4 22.8 238.4 C 21.7 239.9 20 240.7 18.1 240.7 C 14.2 240.7 11.9 237.6 11.9 233.1 Z M 17.7 227.3 C 15.2 227.3 14.1 230.1 14.1 232.2 C 14.1 232.2 21.3 232.2 21.3 232.2 C 21.3 230 20.3 227.3 17.7 227.3 Z M 26.7 237.5 C 26.73 237.47 26.7 227.8 26.7 227.8 L 24.8 227.8 L 24.8 225.9 L 26.7 225.9 L 26.7 221.9 L 28.9 221.9 L 28.9 225.9 L 31.3 225.9 L 31.3 227.8 L 28.9 227.8 C 28.9 227.8 28.89 237.08 28.9 237.1 C 28.9 238.2 29.2 238.8 30.1 238.8 C 30.6 238.8 31 238.6 31.3 238.2 C 31.3 238.2 32 239.9 32 239.9 C 31.5 240.4 30.7 240.7 29.6 240.7 C 27.7 240.7 26.7 239.6 26.7 237.5 Z M 33.9 240.4 L 33.9 225.9 L 36 225.9 C 36 225.9 36.03 228.2 36 228.2 C 37 226.7 38.4 225.6 40.1 225.6 C 40.1 225.6 40.1 227.8 40.1 227.8 C 39.9 227.7 39.7 227.7 39.4 227.7 C 38.1 227.7 36.6 228.9 36 230.1 C 36.03 230.09 36 240.4 36 240.4 L 33.9 240.4 Z M 49.8 240.4 C 49.8 240.4 49.77 238.82 49.8 238.8 C 48.8 240.1 47.4 240.7 46 240.7 C 43.6 240.7 41.6 238.9 41.6 235.9 C 41.6 232.9 43.6 231.1 46 231.1 C 47.4 231.1 48.9 231.7 49.8 233 C 49.8 233 49.8 230.5 49.8 230.5 C 49.8 228.5 48.7 227.4 46.8 227.4 C 45.4 227.4 44.3 227.9 43.2 229.2 C 43.2 229.2 42.2 227.6 42.2 227.6 C 43.6 226.2 45.3 225.5 47.1 225.5 C 50 225.5 51.9 226.9 51.9 230.2 C 51.93 230.24 51.9 240.4 51.9 240.4 L 49.8 240.4 Z M 49.8 237.3 C 49.8 237.3 49.8 234.6 49.8 234.6 C 49.1 233.4 47.9 232.7 46.6 232.7 C 44.8 232.7 43.8 234.1 43.8 235.9 C 43.8 237.7 44.8 239.2 46.6 239.2 C 47.9 239.2 49.1 238.5 49.8 237.3 Z M 63 240.4 L 59.7 234.6 L 56.3 240.4 L 53.9 240.4 L 58.3 233 L 54.2 225.9 L 56.6 225.9 L 59.7 231.4 L 62.8 225.9 L 65.2 225.9 L 61 233 L 65.4 240.4 L 63 240.4 Z M 74.9 240.4 C 74.9 240.4 74.88 238.82 74.9 238.8 C 73.9 240.1 72.5 240.7 71.1 240.7 C 68.7 240.7 66.7 238.9 66.7 235.9 C 66.7 232.9 68.7 231.1 71.1 231.1 C 72.5 231.1 74 231.7 74.9 233 C 74.9 233 74.9 230.5 74.9 230.5 C 74.9 228.5 73.8 227.4 71.9 227.4 C 70.6 227.4 69.4 227.9 68.3 229.2 C 68.3 229.2 67.3 227.6 67.3 227.6 C 68.7 226.2 70.4 225.5 72.2 225.5 C 75.1 225.5 77 226.9 77 230.2 C 77.04 230.24 77 240.4 77 240.4 L 74.9 240.4 Z M 74.9 237.3 C 74.9 237.3 74.9 234.6 74.9 234.6 C 74.2 233.4 73 232.7 71.8 232.7 C 70 232.7 68.9 234.1 68.9 235.9 C 68.9 237.7 70 239.2 71.8 239.2 C 73 239.2 74.2 238.5 74.9 237.3 Z M 88.5 240.4 C 88.5 240.4 88.5 230.06 88.5 230.1 C 88.5 228.1 87.6 227.4 86.2 227.4 C 84.8 227.4 83.5 228.6 82.8 229.8 C 82.8 229.76 82.8 240.4 82.8 240.4 L 80.7 240.4 L 80.7 225.9 L 82.8 225.9 C 82.8 225.9 82.8 227.96 82.8 228 C 83.6 226.7 85.3 225.5 87 225.5 C 89.5 225.5 90.7 226.8 90.7 229.5 C 90.66 229.46 90.7 240.4 90.7 240.4 L 88.5 240.4 Z M 94.7 237.5 C 94.74 237.47 94.7 227.8 94.7 227.8 L 92.8 227.8 L 92.8 225.9 L 94.7 225.9 L 94.7 221.9 L 96.9 221.9 L 96.9 225.9 L 99.4 225.9 L 99.4 227.8 L 96.9 227.8 C 96.9 227.8 96.9 237.08 96.9 237.1 C 96.9 238.2 97.2 238.8 98.1 238.8 C 98.6 238.8 99.1 238.6 99.3 238.2 C 99.3 238.2 100 239.9 100 239.9 C 99.5 240.4 98.8 240.7 97.6 240.7 C 95.7 240.7 94.7 239.6 94.7 237.5 Z M 109.8 240.4 C 109.8 240.4 109.77 230.03 109.8 230 C 109.8 228.1 108.9 227.4 107.4 227.4 C 106 227.4 104.7 228.6 104 229.8 C 104.04 229.76 104 240.4 104 240.4 L 101.9 240.4 L 101.9 220.4 L 104 220.4 C 104 220.4 104.04 227.96 104 228 C 104.9 226.7 106.5 225.5 108.3 225.5 C 110.7 225.5 111.9 226.8 111.9 229.4 C 111.9 229.4 111.9 240.4 111.9 240.4 L 109.8 240.4 Z M 123 240.4 C 123 240.4 123 238.82 123 238.8 C 122.1 240.1 120.7 240.7 119.2 240.7 C 116.8 240.7 114.8 238.9 114.8 235.9 C 114.8 232.9 116.8 231.1 119.2 231.1 C 120.7 231.1 122.1 231.7 123 233 C 123 233 123 230.5 123 230.5 C 123 228.5 121.9 227.4 120 227.4 C 118.7 227.4 117.5 227.9 116.4 229.2 C 116.4 229.2 115.4 227.6 115.4 227.6 C 116.8 226.2 118.5 225.5 120.4 225.5 C 123.2 225.5 125.2 226.9 125.2 230.2 C 125.16 230.24 125.2 240.4 125.2 240.4 L 123 240.4 Z M 123 237.3 C 123 237.3 123 234.6 123 234.6 C 122.3 233.4 121.1 232.7 119.9 232.7 C 118.1 232.7 117 234.1 117 235.9 C 117 237.7 118.1 239.2 119.9 239.2 C 121.1 239.2 122.3 238.5 123 237.3 Z M 136.6 240.4 C 136.6 240.4 136.62 230.06 136.6 230.1 C 136.6 228.1 135.7 227.4 134.3 227.4 C 132.9 227.4 131.6 228.6 130.9 229.8 C 130.92 229.76 130.9 240.4 130.9 240.4 L 128.8 240.4 L 128.8 225.9 L 130.9 225.9 C 130.9 225.9 130.92 227.96 130.9 228 C 131.8 226.7 133.4 225.5 135.1 225.5 C 137.6 225.5 138.8 226.8 138.8 229.5 C 138.78 229.46 138.8 240.4 138.8 240.4 L 136.6 240.4 Z M 141.7 233.1 C 141.7 228.9 143.9 225.5 147.6 225.5 C 151.4 225.5 153.3 228.9 153.3 233.2 C 153.33 233.18 153.3 233.8 153.3 233.8 C 153.3 233.8 143.94 233.84 143.9 233.8 C 144 236.7 145.5 238.9 148.1 238.9 C 149.4 238.9 150.7 238.3 151.6 237.2 C 151.6 237.2 152.7 238.4 152.7 238.4 C 151.5 239.9 149.9 240.7 147.9 240.7 C 144.1 240.7 141.7 237.6 141.7 233.1 Z M 147.6 227.3 C 145 227.3 144 230.1 143.9 232.2 C 143.9 232.2 151.2 232.2 151.2 232.2 C 151.2 230 150.2 227.3 147.6 227.3 Z " stroke="none" fill="#d3d2d2"/>  </g>  <g id="Polygon224568">    <path d="M 0.9 202.2 C 0.9 202.2 2.2 200.4 2.2 200.4 C 3.2 201.6 4.9 202.6 6.8 202.6 C 9.4 202.6 10.5 201 10.5 199.3 C 10.5 194.5 1.5 195.7 1.5 189.3 C 1.5 186.2 3.9 184 7.2 184 C 9.4 184 11.2 184.8 12.5 186.1 C 12.5 186.1 11.3 187.9 11.3 187.9 C 10.2 186.7 8.7 186.2 7.1 186.2 C 5.3 186.2 3.9 187.4 3.9 189.2 C 3.9 193.4 12.9 192.5 12.9 199.2 C 12.9 202.1 11 204.7 6.8 204.7 C 4.2 204.7 2.2 203.7 0.9 202.2 Z M 15.1 197.1 C 15.1 193 17.1 189.5 20.9 189.5 C 24.8 189.5 26.8 193 26.8 197.1 C 26.8 201.2 24.8 204.7 20.9 204.7 C 17.1 204.7 15.1 201.2 15.1 197.1 Z M 24.6 197.1 C 24.6 194.2 23.5 191.4 20.9 191.4 C 18.4 191.4 17.3 194.2 17.3 197.1 C 17.3 200.1 18.4 202.8 20.9 202.8 C 23.5 202.8 24.6 200.1 24.6 197.1 Z M 38.1 204.4 C 38.1 204.4 38.07 202.31 38.1 202.3 C 37.2 203.8 35.8 204.7 34.3 204.7 C 31 204.7 29.1 201.7 29.1 197.1 C 29.1 192.6 31 189.5 34.3 189.5 C 35.7 189.5 37.2 190.4 38.1 192 C 38.07 191.99 38.1 184.4 38.1 184.4 L 40.2 184.4 L 40.2 204.4 L 38.1 204.4 Z M 38.1 200.5 C 38.1 200.5 38.1 193.8 38.1 193.8 C 37.5 192.6 36.2 191.4 34.8 191.4 C 32.4 191.4 31.3 194 31.3 197.1 C 31.3 200.3 32.4 202.8 34.8 202.8 C 36.2 202.8 37.5 201.7 38.1 200.5 Z M 43.5 186.3 C 43.5 185.5 44.2 184.8 44.9 184.8 C 45.7 184.8 46.4 185.5 46.4 186.3 C 46.4 187.1 45.7 187.8 44.9 187.8 C 44.2 187.8 43.5 187.1 43.5 186.3 Z M 43.9 204.4 L 43.9 189.9 L 46 189.9 L 46 204.4 L 43.9 204.4 Z M 57.5 204.4 C 57.5 204.4 57.51 202.37 57.5 202.4 C 56.6 203.6 55.1 204.7 53.3 204.7 C 50.8 204.7 49.7 203.5 49.7 200.9 C 49.68 200.87 49.7 189.9 49.7 189.9 L 51.8 189.9 C 51.8 189.9 51.81 200.24 51.8 200.2 C 51.8 202.2 52.7 202.8 54.1 202.8 C 55.6 202.8 56.9 201.8 57.5 200.6 C 57.51 200.57 57.5 189.9 57.5 189.9 L 59.7 189.9 L 59.7 204.4 L 57.5 204.4 Z M 78 204.4 C 78 204.4 77.97 193.88 78 193.9 C 78 192.3 77.3 191.4 76 191.4 C 74.7 191.4 73.4 192.6 72.8 193.8 C 72.81 193.76 72.8 204.4 72.8 204.4 L 70.6 204.4 C 70.6 204.4 70.65 193.88 70.6 193.9 C 70.6 192.3 70 191.4 68.6 191.4 C 67.3 191.4 66.1 192.6 65.5 193.8 C 65.46 193.76 65.5 204.4 65.5 204.4 L 63.3 204.4 L 63.3 189.9 L 65.5 189.9 C 65.5 189.9 65.46 191.96 65.5 192 C 66.1 190.9 67.7 189.5 69.4 189.5 C 71.3 189.5 72.4 190.6 72.7 192.1 C 73.4 190.8 75 189.5 76.8 189.5 C 78.9 189.5 80.1 190.7 80.1 193.3 C 80.13 193.31 80.1 204.4 80.1 204.4 L 78 204.4 Z M 90.4 204.4 L 90.4 191.8 L 88.5 191.8 L 88.5 189.9 L 90.4 189.9 C 90.4 189.9 90.45 188.12 90.4 188.1 C 90.4 185.6 91.9 184.1 94 184.1 C 94.7 184.1 95.3 184.2 95.8 184.5 C 95.8 184.5 95.3 186.2 95.3 186.2 C 95.1 186 94.8 185.9 94.3 185.9 C 93.2 185.9 92.6 186.7 92.6 188.1 C 92.61 188.12 92.6 189.9 92.6 189.9 L 95.1 189.9 L 95.1 191.8 L 92.6 191.8 L 92.6 204.4 L 90.4 204.4 Z M 97.6 204.4 L 97.6 184.4 L 99.7 184.4 L 99.7 204.4 L 97.6 204.4 Z M 110.8 204.4 C 110.8 204.4 110.79 202.82 110.8 202.8 C 109.9 204.1 108.4 204.7 107 204.7 C 104.6 204.7 102.6 202.9 102.6 199.9 C 102.6 196.9 104.6 195.1 107 195.1 C 108.4 195.1 109.9 195.7 110.8 197 C 110.8 197 110.8 194.5 110.8 194.5 C 110.8 192.5 109.7 191.4 107.8 191.4 C 106.5 191.4 105.3 191.9 104.2 193.2 C 104.2 193.2 103.2 191.6 103.2 191.6 C 104.6 190.2 106.3 189.5 108.1 189.5 C 111 189.5 112.9 190.9 112.9 194.2 C 112.95 194.24 112.9 204.4 112.9 204.4 L 110.8 204.4 Z M 110.8 201.3 C 110.8 201.3 110.8 198.6 110.8 198.6 C 110.1 197.4 108.9 196.7 107.7 196.7 C 105.9 196.7 104.8 198.1 104.8 199.9 C 104.8 201.7 105.9 203.2 107.7 203.2 C 108.9 203.2 110.1 202.5 110.8 201.3 Z M 119.5 204.4 L 114.8 189.9 L 117.1 189.9 L 120.7 201.8 L 124.3 189.9 L 126.7 189.9 L 121.9 204.4 L 119.5 204.4 Z M 127.8 197.1 C 127.8 193 129.8 189.5 133.7 189.5 C 137.6 189.5 139.6 193 139.6 197.1 C 139.6 201.2 137.6 204.7 133.7 204.7 C 129.8 204.7 127.8 201.2 127.8 197.1 Z M 137.3 197.1 C 137.3 194.2 136.2 191.4 133.7 191.4 C 131.2 191.4 130 194.2 130 197.1 C 130 200.1 131.2 202.8 133.7 202.8 C 136.2 202.8 137.3 200.1 137.3 197.1 Z M 150.4 204.4 C 150.4 204.4 150.36 194.06 150.4 194.1 C 150.4 192.1 149.5 191.4 148 191.4 C 146.6 191.4 145.3 192.6 144.7 193.8 C 144.66 193.76 144.7 204.4 144.7 204.4 L 142.5 204.4 L 142.5 189.9 L 144.7 189.9 C 144.7 189.9 144.66 191.96 144.7 192 C 145.5 190.7 147.1 189.5 148.9 189.5 C 151.3 189.5 152.5 190.8 152.5 193.5 C 152.52 193.46 152.5 204.4 152.5 204.4 L 150.4 204.4 Z M 155.5 197.1 C 155.5 193 157.5 189.5 161.3 189.5 C 165.2 189.5 167.2 193 167.2 197.1 C 167.2 201.2 165.2 204.7 161.3 204.7 C 157.5 204.7 155.5 201.2 155.5 197.1 Z M 165 197.1 C 165 194.2 163.9 191.4 161.3 191.4 C 158.8 191.4 157.7 194.2 157.7 197.1 C 157.7 200.1 158.8 202.8 161.3 202.8 C 163.9 202.8 165 200.1 165 197.1 Z M 177.6 204.4 C 177.6 204.4 177.63 202.82 177.6 202.8 C 176.7 204.1 175.3 204.7 173.8 204.7 C 171.5 204.7 169.4 202.9 169.4 199.9 C 169.4 196.9 171.4 195.1 173.8 195.1 C 175.3 195.1 176.7 195.7 177.6 197 C 177.6 197 177.6 194.5 177.6 194.5 C 177.6 192.5 176.5 191.4 174.7 191.4 C 173.3 191.4 172.1 191.9 171 193.2 C 171 193.2 170.1 191.6 170.1 191.6 C 171.4 190.2 173.2 189.5 175 189.5 C 177.9 189.5 179.8 190.9 179.8 194.2 C 179.79 194.24 179.8 204.4 179.8 204.4 L 177.6 204.4 Z M 177.6 201.3 C 177.6 201.3 177.6 198.6 177.6 198.6 C 177 197.4 175.8 196.7 174.5 196.7 C 172.7 196.7 171.6 198.1 171.6 199.9 C 171.6 201.7 172.7 203.2 174.5 203.2 C 175.8 203.2 177 202.5 177.6 201.3 Z M 183.8 201.5 C 183.84 201.47 183.8 191.8 183.8 191.8 L 181.9 191.8 L 181.9 189.9 L 183.8 189.9 L 183.8 185.9 L 186 185.9 L 186 189.9 L 188.5 189.9 L 188.5 191.8 L 186 191.8 C 186 191.8 186 201.08 186 201.1 C 186 202.2 186.3 202.8 187.2 202.8 C 187.7 202.8 188.2 202.6 188.4 202.2 C 188.4 202.2 189.1 203.9 189.1 203.9 C 188.6 204.4 187.9 204.7 186.7 204.7 C 184.8 204.7 183.8 203.6 183.8 201.5 Z M 190.3 197.1 C 190.3 192.9 192.5 189.5 196.2 189.5 C 200 189.5 201.9 192.9 201.9 197.2 C 201.9 197.18 201.9 197.8 201.9 197.8 C 201.9 197.8 192.51 197.84 192.5 197.8 C 192.6 200.7 194.1 202.9 196.7 202.9 C 197.9 202.9 199.2 202.3 200.1 201.2 C 200.1 201.2 201.3 202.4 201.3 202.4 C 200.1 203.9 198.4 204.7 196.5 204.7 C 192.6 204.7 190.3 201.6 190.3 197.1 Z M 196.1 191.3 C 193.6 191.3 192.6 194.1 192.5 196.2 C 192.5 196.2 199.8 196.2 199.8 196.2 C 199.7 194 198.8 191.3 196.1 191.3 Z " stroke="none" fill="#d3d2d2"/>  </g>  <g id="Polygon224567">    <path d="M 2.1 168.4 L 2.1 148.4 C 2.1 148.4 8.19 148.37 8.2 148.4 C 11.8 148.4 13.7 151.1 13.7 154.4 C 13.7 157.6 11.8 160.4 8.2 160.4 C 8.19 160.37 4.5 160.4 4.5 160.4 L 4.5 168.4 L 2.1 168.4 Z M 11.3 154.4 C 11.3 152.1 10 150.5 7.9 150.5 C 7.95 150.47 4.5 150.5 4.5 150.5 L 4.5 158.3 C 4.5 158.3 7.95 158.27 7.9 158.3 C 10 158.3 11.3 156.6 11.3 154.4 Z M 15.1 161.1 C 15.1 156.9 17.3 153.5 20.9 153.5 C 24.8 153.5 26.7 156.9 26.7 161.2 C 26.67 161.18 26.7 161.8 26.7 161.8 C 26.7 161.8 17.28 161.84 17.3 161.8 C 17.4 164.7 18.9 166.9 21.5 166.9 C 22.7 166.9 24 166.3 24.9 165.2 C 24.9 165.2 26 166.4 26 166.4 C 24.9 167.9 23.2 168.7 21.3 168.7 C 17.4 168.7 15.1 165.6 15.1 161.1 Z M 20.9 155.3 C 18.4 155.3 17.3 158.1 17.3 160.2 C 17.3 160.2 24.5 160.2 24.5 160.2 C 24.5 158 23.6 155.3 20.9 155.3 Z M 37.3 168.4 C 37.3 168.4 37.35 158.06 37.3 158.1 C 37.3 156.1 36.5 155.4 35 155.4 C 33.6 155.4 32.3 156.6 31.6 157.8 C 31.65 157.76 31.6 168.4 31.6 168.4 L 29.5 168.4 L 29.5 153.9 L 31.6 153.9 C 31.6 153.9 31.65 155.96 31.6 156 C 32.5 154.7 34.1 153.5 35.8 153.5 C 38.3 153.5 39.5 154.8 39.5 157.5 C 39.51 157.46 39.5 168.4 39.5 168.4 L 37.3 168.4 Z M 43.6 165.5 C 43.59 165.47 43.6 155.8 43.6 155.8 L 41.7 155.8 L 41.7 153.9 L 43.6 153.9 L 43.6 149.9 L 45.7 149.9 L 45.7 153.9 L 48.2 153.9 L 48.2 155.8 L 45.7 155.8 C 45.7 155.8 45.75 165.08 45.7 165.1 C 45.7 166.2 46.1 166.8 46.9 166.8 C 47.5 166.8 47.9 166.6 48.2 166.2 C 48.2 166.2 48.8 167.9 48.8 167.9 C 48.3 168.4 47.6 168.7 46.5 168.7 C 44.5 168.7 43.6 167.6 43.6 165.5 Z M 58.2 168.4 C 58.2 168.4 58.2 166.82 58.2 166.8 C 57.3 168.1 55.9 168.7 54.4 168.7 C 52 168.7 50 166.9 50 163.9 C 50 160.9 52 159.1 54.4 159.1 C 55.9 159.1 57.3 159.7 58.2 161 C 58.2 161 58.2 158.5 58.2 158.5 C 58.2 156.5 57.1 155.4 55.2 155.4 C 53.9 155.4 52.7 155.9 51.6 157.2 C 51.6 157.2 50.6 155.6 50.6 155.6 C 52 154.2 53.7 153.5 55.6 153.5 C 58.4 153.5 60.4 154.9 60.4 158.2 C 60.36 158.24 60.4 168.4 60.4 168.4 L 58.2 168.4 Z M 58.2 165.3 C 58.2 165.3 58.2 162.6 58.2 162.6 C 57.5 161.4 56.3 160.7 55.1 160.7 C 53.3 160.7 52.2 162.1 52.2 163.9 C 52.2 165.7 53.3 167.2 55.1 167.2 C 56.3 167.2 57.5 166.5 58.2 165.3 Z M 62.8 166.7 C 62.8 166.7 63.9 165.2 63.9 165.2 C 64.7 166.2 66.1 167 67.7 167 C 69.4 167 70.5 166 70.5 164.7 C 70.5 161.3 63.2 162.4 63.2 157.4 C 63.2 155.3 65 153.5 67.9 153.5 C 69.8 153.5 71.2 154.3 72.3 155.4 C 72.3 155.4 71.2 156.9 71.2 156.9 C 70.5 155.9 69.3 155.3 67.9 155.3 C 66.3 155.3 65.3 156.2 65.3 157.4 C 65.3 160.5 72.5 159.4 72.5 164.6 C 72.5 167 70.7 168.7 67.7 168.7 C 65.7 168.7 64 168.1 62.8 166.7 Z M 75.7 165.5 C 75.72 165.47 75.7 155.8 75.7 155.8 L 73.8 155.8 L 73.8 153.9 L 75.7 153.9 L 75.7 149.9 L 77.9 149.9 L 77.9 153.9 L 80.3 153.9 L 80.3 155.8 L 77.9 155.8 C 77.9 155.8 77.88 165.08 77.9 165.1 C 77.9 166.2 78.2 166.8 79 166.8 C 79.6 166.8 80 166.6 80.3 166.2 C 80.3 166.2 81 167.9 81 167.9 C 80.5 168.4 79.7 168.7 78.6 168.7 C 76.6 168.7 75.7 167.6 75.7 165.5 Z M 82.5 150.3 C 82.5 149.5 83.2 148.8 83.9 148.8 C 84.7 148.8 85.4 149.5 85.4 150.3 C 85.4 151.1 84.7 151.8 83.9 151.8 C 83.2 151.8 82.5 151.1 82.5 150.3 Z M 82.9 168.4 L 82.9 153.9 L 85 153.9 L 85 168.4 L 82.9 168.4 Z M 87.5 166.7 C 87.5 166.7 88.6 165.2 88.6 165.2 C 89.4 166.2 90.8 167 92.4 167 C 94 167 95.2 166 95.2 164.7 C 95.2 161.3 87.9 162.4 87.9 157.4 C 87.9 155.3 89.7 153.5 92.5 153.5 C 94.5 153.5 95.9 154.3 97 155.4 C 97 155.4 95.9 156.9 95.9 156.9 C 95.2 155.9 94 155.3 92.6 155.3 C 91 155.3 90 156.2 90 157.4 C 90 160.5 97.2 159.4 97.2 164.6 C 97.2 167 95.4 168.7 92.4 168.7 C 90.4 168.7 88.7 168.1 87.5 166.7 Z M 100.4 165.5 C 100.41 165.47 100.4 155.8 100.4 155.8 L 98.5 155.8 L 98.5 153.9 L 100.4 153.9 L 100.4 149.9 L 102.6 149.9 L 102.6 153.9 L 105 153.9 L 105 155.8 L 102.6 155.8 C 102.6 155.8 102.57 165.08 102.6 165.1 C 102.6 166.2 102.9 166.8 103.7 166.8 C 104.3 166.8 104.7 166.6 105 166.2 C 105 166.2 105.7 167.9 105.7 167.9 C 105.1 168.4 104.4 168.7 103.3 168.7 C 101.3 168.7 100.4 167.6 100.4 165.5 Z M 107.6 168.4 L 107.6 153.9 L 109.7 153.9 C 109.7 153.9 109.71 156.2 109.7 156.2 C 110.6 154.7 112 153.6 113.8 153.6 C 113.8 153.6 113.8 155.8 113.8 155.8 C 113.6 155.7 113.3 155.7 113.1 155.7 C 111.8 155.7 110.3 156.9 109.7 158.1 C 109.71 158.09 109.7 168.4 109.7 168.4 L 107.6 168.4 Z M 115.6 172.1 C 115.9 172.3 116.3 172.3 116.5 172.3 C 117.4 172.3 117.9 172 118.3 170.9 C 118.26 170.9 119 168.7 119 168.7 L 114.2 153.9 L 116.5 153.9 L 120.1 165.8 L 123.8 153.9 L 126.1 153.9 C 126.1 153.9 120.3 171.44 120.3 171.4 C 119.6 173.5 118.4 174.3 116.7 174.3 C 116.2 174.3 115.6 174.2 115.3 174 C 115.3 174 115.6 172.1 115.6 172.1 Z M 127.9 168.4 L 127.9 148.4 L 130.1 148.4 L 130.1 168.4 L 127.9 168.4 Z M 147.7 168.4 C 147.7 168.4 147.75 158.03 147.7 158 C 147.7 156.1 146.8 155.4 145.4 155.4 C 144 155.4 142.7 156.6 142 157.8 C 142.02 157.76 142 168.4 142 168.4 L 139.9 168.4 L 139.9 148.4 L 142 148.4 C 142 148.4 142.02 155.96 142 156 C 142.9 154.7 144.5 153.5 146.2 153.5 C 148.7 153.5 149.9 154.8 149.9 157.4 C 149.88 157.4 149.9 168.4 149.9 168.4 L 147.7 168.4 Z M 153.1 172.1 C 153.4 172.3 153.8 172.3 154.1 172.3 C 154.9 172.3 155.4 172 155.8 170.9 C 155.79 170.9 156.6 168.7 156.6 168.7 L 151.7 153.9 L 154.1 153.9 L 157.7 165.8 L 161.3 153.9 L 163.6 153.9 C 163.6 153.9 157.83 171.44 157.8 171.4 C 157.1 173.5 155.9 174.3 154.2 174.3 C 153.8 174.3 153.1 174.2 152.8 174 C 152.8 174 153.1 172.1 153.1 172.1 Z M 173.8 168.4 C 173.8 168.4 173.76 166.31 173.8 166.3 C 172.9 167.8 171.5 168.7 169.9 168.7 C 166.7 168.7 164.8 165.7 164.8 161.1 C 164.8 156.6 166.7 153.5 169.9 153.5 C 171.4 153.5 172.9 154.4 173.8 156 C 173.76 155.99 173.8 148.4 173.8 148.4 L 175.9 148.4 L 175.9 168.4 L 173.8 168.4 Z M 173.8 164.5 C 173.8 164.5 173.8 157.8 173.8 157.8 C 173.2 156.6 171.9 155.4 170.5 155.4 C 168.1 155.4 167 158 167 161.1 C 167 164.3 168.1 166.8 170.5 166.8 C 171.9 166.8 173.2 165.7 173.8 164.5 Z M 179.6 168.4 L 179.6 153.9 L 181.7 153.9 C 181.7 153.9 181.71 156.2 181.7 156.2 C 182.6 154.7 184 153.6 185.8 153.6 C 185.8 153.6 185.8 155.8 185.8 155.8 C 185.6 155.7 185.3 155.7 185.1 155.7 C 183.8 155.7 182.3 156.9 181.7 158.1 C 181.71 158.09 181.7 168.4 181.7 168.4 L 179.6 168.4 Z M 187.3 161.1 C 187.3 157 189.3 153.5 193.2 153.5 C 197.1 153.5 199.1 157 199.1 161.1 C 199.1 165.2 197.1 168.7 193.2 168.7 C 189.3 168.7 187.3 165.2 187.3 161.1 Z M 196.8 161.1 C 196.8 158.2 195.7 155.4 193.2 155.4 C 190.7 155.4 189.5 158.2 189.5 161.1 C 189.5 164.1 190.7 166.8 193.2 166.8 C 195.7 166.8 196.8 164.1 196.8 161.1 Z M 208.7 168.4 L 205.4 162.6 L 202 168.4 L 199.6 168.4 L 204.1 161 L 199.9 153.9 L 202.3 153.9 L 205.4 159.4 L 208.5 153.9 L 210.9 153.9 L 206.7 161 L 211.1 168.4 L 208.7 168.4 Z M 212.7 150.3 C 212.7 149.5 213.4 148.8 214.2 148.8 C 215 148.8 215.7 149.5 215.7 150.3 C 215.7 151.1 215 151.8 214.2 151.8 C 213.4 151.8 212.7 151.1 212.7 150.3 Z M 213.1 168.4 L 213.1 153.9 L 215.3 153.9 L 215.3 168.4 L 213.1 168.4 Z M 227.2 168.4 C 227.2 168.4 227.21 166.31 227.2 166.3 C 226.4 167.8 224.9 168.7 223.4 168.7 C 220.2 168.7 218.2 165.7 218.2 161.1 C 218.2 156.6 220.1 153.5 223.4 153.5 C 224.9 153.5 226.3 154.4 227.2 156 C 227.21 155.99 227.2 148.4 227.2 148.4 L 229.4 148.4 L 229.4 168.4 L 227.2 168.4 Z M 227.2 164.5 C 227.2 164.5 227.2 157.8 227.2 157.8 C 226.7 156.6 225.3 155.4 223.9 155.4 C 221.6 155.4 220.5 158 220.5 161.1 C 220.5 164.3 221.6 166.8 223.9 166.8 C 225.3 166.8 226.7 165.7 227.2 164.5 Z M 232.3 161.1 C 232.3 156.9 234.5 153.5 238.2 153.5 C 242 153.5 243.9 156.9 243.9 161.2 C 243.92 161.18 243.9 161.8 243.9 161.8 C 243.9 161.8 234.53 161.84 234.5 161.8 C 234.6 164.7 236.1 166.9 238.7 166.9 C 240 166.9 241.3 166.3 242.2 165.2 C 242.2 165.2 243.3 166.4 243.3 166.4 C 242.1 167.9 240.5 168.7 238.5 168.7 C 234.7 168.7 232.3 165.6 232.3 161.1 Z M 238.2 155.3 C 235.6 155.3 234.6 158.1 234.5 160.2 C 234.5 160.2 241.8 160.2 241.8 160.2 C 241.8 158 240.8 155.3 238.2 155.3 Z " stroke="none" fill="#d3d2d2"/>  </g>  <g id="Polygon224566">    <path d="M 2.1 132.4 L 2.1 112.4 L 4.5 112.4 L 4.5 132.4 L 2.1 132.4 Z M 7.6 125.1 C 7.6 121 9.6 117.5 13.4 117.5 C 17.3 117.5 19.3 121 19.3 125.1 C 19.3 129.2 17.3 132.7 13.4 132.7 C 9.6 132.7 7.6 129.2 7.6 125.1 Z M 17.1 125.1 C 17.1 122.2 16 119.4 13.4 119.4 C 10.9 119.4 9.8 122.2 9.8 125.1 C 9.8 128.1 10.9 130.8 13.4 130.8 C 16 130.8 17.1 128.1 17.1 125.1 Z M 30.6 132.4 C 30.6 132.4 30.57 130.31 30.6 130.3 C 29.7 131.8 28.3 132.7 26.8 132.7 C 23.5 132.7 21.6 129.7 21.6 125.1 C 21.6 120.6 23.5 117.5 26.8 117.5 C 28.2 117.5 29.7 118.4 30.6 120 C 30.57 119.99 30.6 112.4 30.6 112.4 L 32.7 112.4 L 32.7 132.4 L 30.6 132.4 Z M 30.6 128.5 C 30.6 128.5 30.6 121.8 30.6 121.8 C 30 120.6 28.7 119.4 27.3 119.4 C 24.9 119.4 23.8 122 23.8 125.1 C 23.8 128.3 24.9 130.8 27.3 130.8 C 28.7 130.8 30 129.7 30.6 128.5 Z M 36 114.3 C 36 113.5 36.7 112.8 37.4 112.8 C 38.2 112.8 38.9 113.5 38.9 114.3 C 38.9 115.1 38.2 115.8 37.4 115.8 C 36.7 115.8 36 115.1 36 114.3 Z M 36.4 132.4 L 36.4 117.9 L 38.5 117.9 L 38.5 132.4 L 36.4 132.4 Z M 41 130.7 C 41 130.7 42.1 129.2 42.1 129.2 C 42.9 130.2 44.3 131 45.9 131 C 47.5 131 48.7 130 48.7 128.7 C 48.7 125.3 41.4 126.4 41.4 121.4 C 41.4 119.3 43.2 117.5 46 117.5 C 48 117.5 49.4 118.3 50.5 119.4 C 50.5 119.4 49.4 120.9 49.4 120.9 C 48.7 119.9 47.5 119.3 46.1 119.3 C 44.5 119.3 43.5 120.2 43.5 121.4 C 43.5 124.5 50.7 123.4 50.7 128.6 C 50.7 131 48.9 132.7 45.9 132.7 C 43.9 132.7 42.2 132.1 41 130.7 Z M 52.8 125.1 C 52.8 120.9 55 117.5 58.6 117.5 C 62.5 117.5 64.4 120.9 64.4 125.2 C 64.38 125.18 64.4 125.8 64.4 125.8 C 64.4 125.8 54.99 125.84 55 125.8 C 55.1 128.7 56.6 130.9 59.2 130.9 C 60.4 130.9 61.7 130.3 62.6 129.2 C 62.6 129.2 63.7 130.4 63.7 130.4 C 62.6 131.9 60.9 132.7 59 132.7 C 55.1 132.7 52.8 129.6 52.8 125.1 Z M 58.6 119.3 C 56.1 119.3 55 122.1 55 124.2 C 55 124.2 62.2 124.2 62.2 124.2 C 62.2 122 61.3 119.3 58.6 119.3 Z M 75.5 132.4 C 75.5 132.4 75.51 130.31 75.5 130.3 C 74.7 131.8 73.2 132.7 71.7 132.7 C 68.5 132.7 66.5 129.7 66.5 125.1 C 66.5 120.6 68.4 117.5 71.7 117.5 C 73.2 117.5 74.6 118.4 75.5 120 C 75.51 119.99 75.5 112.4 75.5 112.4 L 77.7 112.4 L 77.7 132.4 L 75.5 132.4 Z M 75.5 128.5 C 75.5 128.5 75.5 121.8 75.5 121.8 C 75 120.6 73.6 119.4 72.2 119.4 C 69.9 119.4 68.8 122 68.8 125.1 C 68.8 128.3 69.9 130.8 72.2 130.8 C 73.6 130.8 75 129.7 75.5 128.5 Z M 86.3 130.7 C 86.3 130.7 87.4 129.2 87.4 129.2 C 88.2 130.2 89.6 131 91.2 131 C 92.8 131 94 130 94 128.7 C 94 125.3 86.7 126.4 86.7 121.4 C 86.7 119.3 88.5 117.5 91.3 117.5 C 93.3 117.5 94.7 118.3 95.8 119.4 C 95.8 119.4 94.7 120.9 94.7 120.9 C 94 119.9 92.8 119.3 91.4 119.3 C 89.8 119.3 88.8 120.2 88.8 121.4 C 88.8 124.5 96 123.4 96 128.6 C 96 131 94.2 132.7 91.2 132.7 C 89.2 132.7 87.5 132.1 86.3 130.7 Z M 106.2 132.4 C 106.2 132.4 106.23 130.82 106.2 130.8 C 105.3 132.1 103.9 132.7 102.4 132.7 C 100.1 132.7 98 130.9 98 127.9 C 98 124.9 100 123.1 102.4 123.1 C 103.9 123.1 105.3 123.7 106.2 125 C 106.2 125 106.2 122.5 106.2 122.5 C 106.2 120.5 105.1 119.4 103.3 119.4 C 101.9 119.4 100.7 119.9 99.6 121.2 C 99.6 121.2 98.7 119.6 98.7 119.6 C 100 118.2 101.8 117.5 103.6 117.5 C 106.5 117.5 108.4 118.9 108.4 122.2 C 108.39 122.24 108.4 132.4 108.4 132.4 L 106.2 132.4 Z M 106.2 129.3 C 106.2 129.3 106.2 126.6 106.2 126.6 C 105.6 125.4 104.4 124.7 103.1 124.7 C 101.3 124.7 100.2 126.1 100.2 127.9 C 100.2 129.7 101.3 131.2 103.1 131.2 C 104.4 131.2 105.6 130.5 106.2 129.3 Z M 112 132.4 L 112 112.4 L 114.1 112.4 L 114.1 132.4 L 112 132.4 Z M 118.2 129.5 C 118.23 129.47 118.2 119.8 118.2 119.8 L 116.3 119.8 L 116.3 117.9 L 118.2 117.9 L 118.2 113.9 L 120.4 113.9 L 120.4 117.9 L 122.8 117.9 L 122.8 119.8 L 120.4 119.8 C 120.4 119.8 120.39 129.08 120.4 129.1 C 120.4 130.2 120.7 130.8 121.6 130.8 C 122.1 130.8 122.5 130.6 122.8 130.2 C 122.8 130.2 123.5 131.9 123.5 131.9 C 123 132.4 122.2 132.7 121.1 132.7 C 119.2 132.7 118.2 131.6 118.2 129.5 Z " stroke="none" fill="#d3d2d2"/>  </g>  <g id="Polygon224565">    <path d="M 1.4 86.4 C 1.4 80.2 4.5 76 9.2 76 C 12.1 76 13.9 77.7 15.1 79.8 C 15.1 79.8 13.2 80.8 13.2 80.8 C 12.4 79.2 11 78.2 9.2 78.2 C 6 78.2 3.9 81.5 3.9 86.4 C 3.9 91.2 6 94.6 9.2 94.6 C 10.9 94.6 12.2 93.8 12.9 92.9 C 12.93 92.93 12.9 88.2 12.9 88.2 L 8.2 88.2 L 8.2 86.1 L 15.2 86.1 C 15.2 86.1 15.21 93.83 15.2 93.8 C 13.7 95.7 11.7 96.8 9.2 96.8 C 4.5 96.8 1.4 92.6 1.4 86.4 Z M 17.8 89.1 C 17.8 84.9 20 81.5 23.7 81.5 C 27.5 81.5 29.4 84.9 29.4 89.2 C 29.43 89.18 29.4 89.8 29.4 89.8 C 29.4 89.8 20.04 89.84 20 89.8 C 20.1 92.7 21.6 94.9 24.2 94.9 C 25.5 94.9 26.8 94.3 27.7 93.2 C 27.7 93.2 28.8 94.4 28.8 94.4 C 27.6 95.9 26 96.7 24 96.7 C 20.2 96.7 17.8 93.6 17.8 89.1 Z M 23.7 83.3 C 21.1 83.3 20.1 86.1 20 88.2 C 20 88.2 27.3 88.2 27.3 88.2 C 27.3 86 26.3 83.3 23.7 83.3 Z M 31.6 89.1 C 31.6 85 33.6 81.5 37.4 81.5 C 41.3 81.5 43.3 85 43.3 89.1 C 43.3 93.2 41.3 96.7 37.4 96.7 C 33.6 96.7 31.6 93.2 31.6 89.1 Z M 41.1 89.1 C 41.1 86.2 40 83.4 37.4 83.4 C 34.9 83.4 33.8 86.2 33.8 89.1 C 33.8 92.1 34.9 94.8 37.4 94.8 C 40 94.8 41.1 92.1 41.1 89.1 Z M 45.1 94.7 C 45.1 94.7 46.2 93.2 46.2 93.2 C 47 94.2 48.4 95 50 95 C 51.7 95 52.8 94 52.8 92.7 C 52.8 89.3 45.5 90.4 45.5 85.4 C 45.5 83.3 47.3 81.5 50.2 81.5 C 52.1 81.5 53.5 82.3 54.6 83.4 C 54.6 83.4 53.5 84.9 53.5 84.9 C 52.8 83.9 51.6 83.3 50.2 83.3 C 48.6 83.3 47.6 84.2 47.6 85.4 C 47.6 88.5 54.8 87.4 54.8 92.6 C 54.8 95 53 96.7 50 96.7 C 48 96.7 46.3 96.1 45.1 94.7 Z M 72.2 96.4 C 72.2 96.4 72.24 85.88 72.2 85.9 C 72.2 84.3 71.6 83.4 70.2 83.4 C 68.9 83.4 67.6 84.6 67.1 85.8 C 67.08 85.76 67.1 96.4 67.1 96.4 L 64.9 96.4 C 64.9 96.4 64.92 85.88 64.9 85.9 C 64.9 84.3 64.3 83.4 62.9 83.4 C 61.6 83.4 60.4 84.6 59.7 85.8 C 59.73 85.76 59.7 96.4 59.7 96.4 L 57.6 96.4 L 57.6 81.9 L 59.7 81.9 C 59.7 81.9 59.73 83.96 59.7 84 C 60.3 82.9 61.9 81.5 63.7 81.5 C 65.5 81.5 66.7 82.6 67 84.1 C 67.7 82.8 69.3 81.5 71 81.5 C 73.2 81.5 74.4 82.7 74.4 85.3 C 74.4 85.31 74.4 96.4 74.4 96.4 L 72.2 96.4 Z M 77.6 78.3 C 77.6 77.5 78.3 76.8 79.1 76.8 C 79.9 76.8 80.6 77.5 80.6 78.3 C 80.6 79.1 79.9 79.8 79.1 79.8 C 78.3 79.8 77.6 79.1 77.6 78.3 Z M 78.1 96.4 L 78.1 81.9 L 80.2 81.9 L 80.2 96.4 L 78.1 96.4 Z M 91.7 96.4 C 91.7 96.4 91.68 86.06 91.7 86.1 C 91.7 84.1 90.8 83.4 89.4 83.4 C 88 83.4 86.6 84.6 86 85.8 C 85.98 85.76 86 96.4 86 96.4 L 83.8 96.4 L 83.8 81.9 L 86 81.9 C 86 81.9 85.98 83.96 86 84 C 86.8 82.7 88.4 81.5 90.2 81.5 C 92.6 81.5 93.8 82.8 93.8 85.5 C 93.84 85.46 93.8 96.4 93.8 96.4 L 91.7 96.4 Z M 102.9 89.1 C 102.9 85 105 81.5 108.8 81.5 C 112.7 81.5 114.7 85 114.7 89.1 C 114.7 93.2 112.7 96.7 108.8 96.7 C 105 96.7 102.9 93.2 102.9 89.1 Z M 112.5 89.1 C 112.5 86.2 111.4 83.4 108.8 83.4 C 106.3 83.4 105.2 86.2 105.2 89.1 C 105.2 92.1 106.3 94.8 108.8 94.8 C 111.4 94.8 112.5 92.1 112.5 89.1 Z M 124.3 96.4 L 121 90.6 L 117.7 96.4 L 115.3 96.4 L 119.7 89 L 115.5 81.9 L 117.9 81.9 L 121 87.4 L 124.1 81.9 L 126.5 81.9 L 122.3 89 L 126.7 96.4 L 124.3 96.4 Z M 128.4 78.3 C 128.4 77.5 129.1 76.8 129.8 76.8 C 130.6 76.8 131.3 77.5 131.3 78.3 C 131.3 79.1 130.6 79.8 129.8 79.8 C 129.1 79.8 128.4 79.1 128.4 78.3 Z M 128.8 96.4 L 128.8 81.9 L 130.9 81.9 L 130.9 96.4 L 128.8 96.4 Z M 142.9 96.4 C 142.9 96.4 142.86 94.31 142.9 94.3 C 142 95.8 140.6 96.7 139 96.7 C 135.8 96.7 133.9 93.7 133.9 89.1 C 133.9 84.6 135.8 81.5 139 81.5 C 140.5 81.5 142 82.4 142.9 84 C 142.86 83.99 142.9 76.4 142.9 76.4 L 145 76.4 L 145 96.4 L 142.9 96.4 Z M 142.9 92.5 C 142.9 92.5 142.9 85.8 142.9 85.8 C 142.3 84.6 141 83.4 139.6 83.4 C 137.2 83.4 136.1 86 136.1 89.1 C 136.1 92.3 137.2 94.8 139.6 94.8 C 141 94.8 142.3 93.7 142.9 92.5 Z M 148 89.1 C 148 84.9 150.2 81.5 153.8 81.5 C 157.6 81.5 159.6 84.9 159.6 89.2 C 159.57 89.18 159.6 89.8 159.6 89.8 C 159.6 89.8 150.18 89.84 150.2 89.8 C 150.3 92.7 151.8 94.9 154.3 94.9 C 155.6 94.9 156.9 94.3 157.8 93.2 C 157.8 93.2 158.9 94.4 158.9 94.4 C 157.8 95.9 156.1 96.7 154.2 96.7 C 150.3 96.7 148 93.6 148 89.1 Z M 153.8 83.3 C 151.3 83.3 150.2 86.1 150.2 88.2 C 150.2 88.2 157.4 88.2 157.4 88.2 C 157.4 86 156.4 83.3 153.8 83.3 Z " stroke="none" fill="#d3d2d2"/>  </g>  <g id="Polygon224564">    <path d="M 2.1 60.4 L 2.1 40.4 C 2.1 40.4 8.73 40.37 8.7 40.4 C 11.9 40.4 13.7 42.4 13.7 45.5 C 13.7 48 12.4 49.6 10.6 50.1 C 12.6 50.4 14 52.6 14 55 C 14 58.2 12.3 60.4 8.9 60.4 C 8.91 60.38 2.1 60.4 2.1 60.4 Z M 11.2 45.8 C 11.2 43.9 10.3 42.5 8.3 42.5 C 8.28 42.47 4.5 42.5 4.5 42.5 L 4.5 49.1 C 4.5 49.1 8.28 49.1 8.3 49.1 C 10.3 49.1 11.2 47.7 11.2 45.8 Z M 11.6 54.7 C 11.6 52.8 10.6 51.2 8.4 51.2 C 8.43 51.2 4.5 51.2 4.5 51.2 L 4.5 58.2 C 4.5 58.2 8.43 58.25 8.4 58.2 C 10.5 58.2 11.6 56.9 11.6 54.7 Z M 17.2 60.4 L 17.2 45.9 L 19.3 45.9 C 19.3 45.9 19.29 48.2 19.3 48.2 C 20.2 46.7 21.6 45.6 23.4 45.6 C 23.4 45.6 23.4 47.8 23.4 47.8 C 23.2 47.7 22.9 47.7 22.7 47.7 C 21.4 47.7 19.9 48.9 19.3 50.1 C 19.29 50.09 19.3 60.4 19.3 60.4 L 17.2 60.4 Z M 24.9 53.1 C 24.9 49 26.9 45.5 30.7 45.5 C 34.6 45.5 36.7 49 36.7 53.1 C 36.7 57.2 34.6 60.7 30.7 60.7 C 26.9 60.7 24.9 57.2 24.9 53.1 Z M 34.4 53.1 C 34.4 50.2 33.3 47.4 30.7 47.4 C 28.3 47.4 27.1 50.2 27.1 53.1 C 27.1 56.1 28.3 58.8 30.7 58.8 C 33.3 58.8 34.4 56.1 34.4 53.1 Z M 54.2 60.4 C 54.2 60.4 54.24 49.88 54.2 49.9 C 54.2 48.3 53.6 47.4 52.2 47.4 C 50.9 47.4 49.6 48.6 49.1 49.8 C 49.08 49.76 49.1 60.4 49.1 60.4 L 46.9 60.4 C 46.9 60.4 46.92 49.88 46.9 49.9 C 46.9 48.3 46.3 47.4 44.9 47.4 C 43.6 47.4 42.4 48.6 41.7 49.8 C 41.73 49.76 41.7 60.4 41.7 60.4 L 39.6 60.4 L 39.6 45.9 L 41.7 45.9 C 41.7 45.9 41.73 47.96 41.7 48 C 42.3 46.9 43.9 45.5 45.7 45.5 C 47.5 45.5 48.7 46.6 49 48.1 C 49.7 46.8 51.3 45.5 53 45.5 C 55.2 45.5 56.4 46.7 56.4 49.3 C 56.4 49.31 56.4 60.4 56.4 60.4 L 54.2 60.4 Z M 59.3 53.1 C 59.3 49 61.4 45.5 65.2 45.5 C 69.1 45.5 71.1 49 71.1 53.1 C 71.1 57.2 69.1 60.7 65.2 60.7 C 61.4 60.7 59.3 57.2 59.3 53.1 Z M 68.9 53.1 C 68.9 50.2 67.8 47.4 65.2 47.4 C 62.7 47.4 61.6 50.2 61.6 53.1 C 61.6 56.1 62.7 58.8 65.2 58.8 C 67.8 58.8 68.9 56.1 68.9 53.1 Z M 76.2 58.3 C 76.2 58.28 76.2 65.9 76.2 65.9 L 74.1 65.9 L 74.1 45.9 L 76.2 45.9 C 76.2 45.9 76.2 47.96 76.2 48 C 77 46.5 78.5 45.5 80 45.5 C 83.3 45.5 85.2 48.6 85.2 53.1 C 85.2 57.6 83.3 60.7 80 60.7 C 78.5 60.7 77.1 59.9 76.2 58.3 Z M 82.9 53.1 C 82.9 50 81.8 47.4 79.5 47.4 C 78.1 47.4 76.8 48.5 76.2 49.8 C 76.2 49.8 76.2 56.4 76.2 56.4 C 76.8 57.7 78.1 58.8 79.5 58.8 C 81.8 58.8 82.9 56.3 82.9 53.1 Z M 96 60.4 C 96 60.4 95.97 50.03 96 50 C 96 48.1 95.1 47.4 93.6 47.4 C 92.2 47.4 90.9 48.6 90.2 49.8 C 90.24 49.76 90.2 60.4 90.2 60.4 L 88.1 60.4 L 88.1 40.4 L 90.2 40.4 C 90.2 40.4 90.24 47.96 90.2 48 C 91.1 46.7 92.7 45.5 94.5 45.5 C 96.9 45.5 98.1 46.8 98.1 49.4 C 98.1 49.4 98.1 60.4 98.1 60.4 L 96 60.4 Z M 101 53.1 C 101 48.9 103.3 45.5 106.9 45.5 C 110.7 45.5 112.6 48.9 112.6 53.2 C 112.65 53.18 112.6 53.8 112.6 53.8 C 112.6 53.8 103.26 53.84 103.3 53.8 C 103.3 56.7 104.8 58.9 107.4 58.9 C 108.7 58.9 110 58.3 110.9 57.2 C 110.9 57.2 112 58.4 112 58.4 C 110.8 59.9 109.2 60.7 107.2 60.7 C 103.4 60.7 101 57.6 101 53.1 Z M 106.9 47.3 C 104.3 47.3 103.3 50.1 103.3 52.2 C 103.3 52.2 110.5 52.2 110.5 52.2 C 110.5 50 109.5 47.3 106.9 47.3 Z M 123.3 60.4 C 123.3 60.4 123.33 50.06 123.3 50.1 C 123.3 48.1 122.5 47.4 121 47.4 C 119.6 47.4 118.3 48.6 117.6 49.8 C 117.63 49.76 117.6 60.4 117.6 60.4 L 115.5 60.4 L 115.5 45.9 L 117.6 45.9 C 117.6 45.9 117.63 47.96 117.6 48 C 118.5 46.7 120.1 45.5 121.8 45.5 C 124.3 45.5 125.5 46.8 125.5 49.5 C 125.49 49.46 125.5 60.4 125.5 60.4 L 123.3 60.4 Z M 128.4 53.1 C 128.4 49 130.5 45.5 134.3 45.5 C 138.2 45.5 140.2 49 140.2 53.1 C 140.2 57.2 138.2 60.7 134.3 60.7 C 130.5 60.7 128.4 57.2 128.4 53.1 Z M 138 53.1 C 138 50.2 136.9 47.4 134.3 47.4 C 131.8 47.4 130.7 50.2 130.7 53.1 C 130.7 56.1 131.8 58.8 134.3 58.8 C 136.9 58.8 138 56.1 138 53.1 Z M 143.2 60.4 L 143.2 40.4 L 145.3 40.4 L 145.3 60.4 L 143.2 60.4 Z " stroke="none" fill="#d3d2d2"/>  </g>  <g id="Polygon224563">    <path d="M 12.5 24.4 L 11.2 19.8 L 4.1 19.8 L 2.8 24.4 L 0.2 24.4 L 6.2 4.4 L 9.1 4.4 L 15.1 24.4 L 12.5 24.4 Z M 7.6 7 L 4.6 17.7 L 10.7 17.7 L 7.6 7 Z M 17 24.4 L 17 4.4 L 19.1 4.4 L 19.1 24.4 L 17 24.4 Z M 22.1 17.1 C 22.1 12.8 24.4 9.5 28.1 9.5 C 30.1 9.5 31.3 10.3 32.2 11.4 C 32.2 11.4 31 12.9 31 12.9 C 30.3 11.9 29.4 11.4 28.3 11.4 C 25.7 11.4 24.3 14 24.3 17.1 C 24.3 20.2 25.7 22.8 28.3 22.8 C 29.4 22.8 30.3 22.4 31 21.3 C 31 21.3 32.2 22.8 32.2 22.8 C 31.3 24 30.1 24.7 28.1 24.7 C 24.4 24.7 22.1 21.4 22.1 17.1 Z M 42.1 24.4 C 42.1 24.4 42.12 22.82 42.1 22.8 C 41.2 24.1 39.8 24.7 38.3 24.7 C 36 24.7 33.9 22.9 33.9 19.9 C 33.9 16.9 35.9 15.1 38.3 15.1 C 39.8 15.1 41.2 15.7 42.1 17 C 42.1 17 42.1 14.5 42.1 14.5 C 42.1 12.5 41 11.4 39.1 11.4 C 37.8 11.4 36.6 11.9 35.5 13.2 C 35.5 13.2 34.6 11.6 34.6 11.6 C 35.9 10.2 37.6 9.5 39.5 9.5 C 42.4 9.5 44.3 10.9 44.3 14.2 C 44.28 14.24 44.3 24.4 44.3 24.4 L 42.1 24.4 Z M 42.1 21.3 C 42.1 21.3 42.1 18.6 42.1 18.6 C 41.5 17.4 40.3 16.7 39 16.7 C 37.2 16.7 36.1 18.1 36.1 19.9 C 36.1 21.7 37.2 23.2 39 23.2 C 40.3 23.2 41.5 22.5 42.1 21.3 Z M 55.7 24.4 C 55.7 24.4 55.74 14.06 55.7 14.1 C 55.7 12.1 54.9 11.4 53.4 11.4 C 52 11.4 50.7 12.6 50 13.8 C 50.04 13.76 50 24.4 50 24.4 L 47.9 24.4 L 47.9 9.9 L 50 9.9 C 50 9.9 50.04 11.96 50 12 C 50.9 10.7 52.5 9.5 54.2 9.5 C 56.7 9.5 57.9 10.8 57.9 13.5 C 57.9 13.46 57.9 24.4 57.9 24.4 L 55.7 24.4 Z M 61.1 6.3 C 61.1 5.5 61.8 4.8 62.6 4.8 C 63.4 4.8 64.1 5.5 64.1 6.3 C 64.1 7.1 63.4 7.8 62.6 7.8 C 61.8 7.8 61.1 7.1 61.1 6.3 Z M 61.6 24.4 L 61.6 9.9 L 63.7 9.9 L 63.7 24.4 L 61.6 24.4 Z M 70.3 24.4 L 65.5 9.9 L 67.9 9.9 L 71.5 21.8 L 75.1 9.9 L 77.4 9.9 L 72.7 24.4 L 70.3 24.4 Z M 78.6 17.1 C 78.6 13 80.6 9.5 84.4 9.5 C 88.3 9.5 90.4 13 90.4 17.1 C 90.4 21.2 88.3 24.7 84.4 24.7 C 80.6 24.7 78.6 21.2 78.6 17.1 Z M 88.1 17.1 C 88.1 14.2 87 11.4 84.4 11.4 C 82 11.4 80.8 14.2 80.8 17.1 C 80.8 20.1 82 22.8 84.4 22.8 C 87 22.8 88.1 20.1 88.1 17.1 Z M 93.3 24.4 L 93.3 9.9 L 95.4 9.9 C 95.4 9.9 95.43 12.2 95.4 12.2 C 96.4 10.7 97.8 9.6 99.5 9.6 C 99.5 9.6 99.5 11.8 99.5 11.8 C 99.3 11.7 99.1 11.7 98.8 11.7 C 97.5 11.7 96 12.9 95.4 14.1 C 95.43 14.09 95.4 24.4 95.4 24.4 L 93.3 24.4 Z M 109.2 24.4 C 109.2 24.4 109.17 22.82 109.2 22.8 C 108.2 24.1 106.8 24.7 105.4 24.7 C 103 24.7 101 22.9 101 19.9 C 101 16.9 103 15.1 105.4 15.1 C 106.8 15.1 108.3 15.7 109.2 17 C 109.2 17 109.2 14.5 109.2 14.5 C 109.2 12.5 108.1 11.4 106.2 11.4 C 104.8 11.4 103.7 11.9 102.6 13.2 C 102.6 13.2 101.6 11.6 101.6 11.6 C 103 10.2 104.7 9.5 106.5 9.5 C 109.4 9.5 111.3 10.9 111.3 14.2 C 111.33 14.24 111.3 24.4 111.3 24.4 L 109.2 24.4 Z M 109.2 21.3 C 109.2 21.3 109.2 18.6 109.2 18.6 C 108.5 17.4 107.3 16.7 106 16.7 C 104.2 16.7 103.2 18.1 103.2 19.9 C 103.2 21.7 104.2 23.2 106 23.2 C 107.3 23.2 108.5 22.5 109.2 21.3 Z M 113.8 22.7 C 113.8 22.7 114.9 21.2 114.9 21.2 C 115.7 22.2 117.1 23 118.6 23 C 120.3 23 121.4 22 121.4 20.7 C 121.4 17.3 114.2 18.4 114.2 13.4 C 114.2 11.3 115.9 9.5 118.8 9.5 C 120.7 9.5 122.2 10.3 123.2 11.4 C 123.2 11.4 122.2 12.9 122.2 12.9 C 121.5 11.9 120.3 11.3 118.9 11.3 C 117.3 11.3 116.3 12.2 116.3 13.4 C 116.3 16.5 123.5 15.4 123.5 20.6 C 123.5 23 121.6 24.7 118.7 24.7 C 116.6 24.7 115 24.1 113.8 22.7 Z M 125.5 17.1 C 125.5 12.9 127.8 9.5 131.4 9.5 C 135.2 9.5 137.2 12.9 137.2 17.2 C 137.16 17.18 137.2 17.8 137.2 17.8 C 137.2 17.8 127.77 17.84 127.8 17.8 C 127.9 20.7 129.4 22.9 131.9 22.9 C 133.2 22.9 134.5 22.3 135.4 21.2 C 135.4 21.2 136.5 22.4 136.5 22.4 C 135.4 23.9 133.7 24.7 131.8 24.7 C 127.9 24.7 125.5 21.6 125.5 17.1 Z M 131.4 11.3 C 128.8 11.3 127.8 14.1 127.8 16.2 C 127.8 16.2 135 16.2 135 16.2 C 135 14 134 11.3 131.4 11.3 Z M 145.4 17.1 C 145.4 12.9 147.7 9.5 151.3 9.5 C 155.1 9.5 157 12.9 157 17.2 C 157.05 17.18 157 17.8 157 17.8 C 157 17.8 147.66 17.84 147.7 17.8 C 147.7 20.7 149.2 22.9 151.8 22.9 C 153.1 22.9 154.4 22.3 155.3 21.2 C 155.3 21.2 156.4 22.4 156.4 22.4 C 155.2 23.9 153.6 24.7 151.6 24.7 C 147.8 24.7 145.4 21.6 145.4 17.1 Z M 151.3 11.3 C 148.7 11.3 147.7 14.1 147.7 16.2 C 147.7 16.2 154.9 16.2 154.9 16.2 C 154.9 14 153.9 11.3 151.3 11.3 Z M 167.3 24.4 L 164 18.6 L 160.7 24.4 L 158.3 24.4 L 162.7 17 L 158.5 9.9 L 160.9 9.9 L 164 15.4 L 167.1 9.9 L 169.5 9.9 L 165.3 17 L 169.7 24.4 L 167.3 24.4 Z M 172.2 21.5 C 172.2 21.47 172.2 11.8 172.2 11.8 L 170.3 11.8 L 170.3 9.9 L 172.2 9.9 L 172.2 5.9 L 174.4 5.9 L 174.4 9.9 L 176.8 9.9 L 176.8 11.8 L 174.4 11.8 C 174.4 11.8 174.36 21.08 174.4 21.1 C 174.4 22.2 174.7 22.8 175.5 22.8 C 176.1 22.8 176.5 22.6 176.8 22.2 C 176.8 22.2 177.4 23.9 177.4 23.9 C 176.9 24.4 176.2 24.7 175.1 24.7 C 173.1 24.7 172.2 23.6 172.2 21.5 Z M 179.4 24.4 L 179.4 9.9 L 181.5 9.9 C 181.5 9.9 181.49 12.2 181.5 12.2 C 182.4 10.7 183.8 9.6 185.6 9.6 C 185.6 9.6 185.6 11.8 185.6 11.8 C 185.4 11.7 185.1 11.7 184.9 11.7 C 183.6 11.7 182.1 12.9 181.5 14.1 C 181.49 14.09 181.5 24.4 181.5 24.4 L 179.4 24.4 Z M 195.2 24.4 C 195.2 24.4 195.23 22.82 195.2 22.8 C 194.3 24.1 192.9 24.7 191.4 24.7 C 189.1 24.7 187 22.9 187 19.9 C 187 16.9 189.1 15.1 191.4 15.1 C 192.9 15.1 194.3 15.7 195.2 17 C 195.2 17 195.2 14.5 195.2 14.5 C 195.2 12.5 194.2 11.4 192.3 11.4 C 190.9 11.4 189.7 11.9 188.6 13.2 C 188.6 13.2 187.7 11.6 187.7 11.6 C 189.1 10.2 190.8 9.5 192.6 9.5 C 195.5 9.5 197.4 10.9 197.4 14.2 C 197.39 14.24 197.4 24.4 197.4 24.4 L 195.2 24.4 Z M 195.2 21.3 C 195.2 21.3 195.2 18.6 195.2 18.6 C 194.6 17.4 193.4 16.7 192.1 16.7 C 190.3 16.7 189.2 18.1 189.2 19.9 C 189.2 21.7 190.3 23.2 192.1 23.2 C 193.4 23.2 194.6 22.5 195.2 21.3 Z M 200.3 17.1 C 200.3 12.8 202.6 9.5 206.3 9.5 C 208.3 9.5 209.5 10.3 210.4 11.4 C 210.4 11.4 209.3 12.9 209.3 12.9 C 208.5 11.9 207.6 11.4 206.5 11.4 C 203.9 11.4 202.6 14 202.6 17.1 C 202.6 20.2 203.9 22.8 206.5 22.8 C 207.6 22.8 208.5 22.4 209.3 21.3 C 209.3 21.3 210.4 22.8 210.4 22.8 C 209.5 24 208.3 24.7 206.3 24.7 C 202.6 24.7 200.3 21.4 200.3 17.1 Z M 213.3 21.5 C 213.32 21.47 213.3 11.8 213.3 11.8 L 211.4 11.8 L 211.4 9.9 L 213.3 9.9 L 213.3 5.9 L 215.5 5.9 L 215.5 9.9 L 217.9 9.9 L 217.9 11.8 L 215.5 11.8 C 215.5 11.8 215.48 21.08 215.5 21.1 C 215.5 22.2 215.8 22.8 216.7 22.8 C 217.2 22.8 217.6 22.6 217.9 22.2 C 217.9 22.2 218.6 23.9 218.6 23.9 C 218.1 24.4 217.3 24.7 216.2 24.7 C 214.3 24.7 213.3 23.6 213.3 21.5 Z " stroke="none" fill="#d3d2d2"/>  </g></svg>