<?xml version="1.0" standalone="no"?><!DOCTYPE svg PUBLIC "-//W3C//DTD SVG 1.1//EN" "http://www.w3.org/Graphics/SVG/1.1/DTD/svg11.dtd"><svg xmlns="http://www.w3.org/2000/svg" version="1.1" width="651px" height="85.6px" viewBox="0 0 651 85.6">  <desc>Fresh Assorted Waste</desc>  <defs/>  <g id="Polygon207428">    <path d="M 3.1 47.4 L 3.1 7.4 L 20.6 7.4 L 20.6 14 L 10.7 14 L 10.7 23.7 L 20.2 23.7 L 20.2 30.4 L 10.7 30.4 L 10.7 47.4 L 3.1 47.4 Z M 25.3 47.4 L 25.3 18.4 L 32.1 18.4 C 32.1 18.4 32.1 22.44 32.1 22.4 C 33.2 19.8 36.1 17.7 38.6 17.7 C 38.6 17.7 38.6 24.4 38.6 24.4 C 38.2 24.2 37.7 24.2 37.3 24.2 C 35.3 24.2 33.2 25.8 32.1 27.9 C 32.1 27.9 32.1 47.4 32.1 47.4 L 25.3 47.4 Z M 41 32.9 C 41 24.5 44.6 17.7 51.8 17.7 C 59.2 17.7 62.2 24.2 62.2 32.8 C 62.22 32.76 62.2 35.1 62.2 35.1 C 62.2 35.1 47.52 35.1 47.5 35.1 C 47.6 39.4 49.4 42.6 53.2 42.6 C 54.8 42.6 56.7 41.5 58 39.7 C 58 39.7 61.3 43.5 61.3 43.5 C 59 46.4 55.8 48.1 52.5 48.1 C 44.9 48.1 41 41.8 41 32.9 Z M 51.7 23.2 C 48.4 23.2 47.5 27.3 47.5 30.4 C 47.5 30.4 55.7 30.4 55.7 30.4 C 55.7 27.1 55 23.2 51.7 23.2 Z M 64.3 44.3 C 64.3 44.3 67.1 39.7 67.1 39.7 C 68.7 41.4 70.9 42.8 73.1 42.8 C 75.3 42.8 76.8 41.6 76.8 39.7 C 76.8 34.9 65.3 36 65.3 25.9 C 65.3 21.5 68.6 17.7 74.6 17.7 C 77.9 17.7 80.9 19 83.1 21.1 C 83.1 21.1 80.3 25.7 80.3 25.7 C 79.2 24.3 77.1 23 74.8 23 C 72.9 23 71.6 24.2 71.6 25.7 C 71.6 30.1 83.2 29.3 83.2 39.5 C 83.2 44.6 79.3 48.1 73.7 48.1 C 69.4 48.1 66.2 46.6 64.3 44.3 Z M 100 47.4 C 100 47.4 100.02 26.64 100 26.6 C 100 24.7 99.3 23.7 97.8 23.7 C 96.1 23.7 94.6 25.6 93.9 27.5 C 93.9 27.48 93.9 47.4 93.9 47.4 L 87.1 47.4 L 87.1 7.4 L 93.9 7.4 C 93.9 7.4 93.9 22.2 93.9 22.2 C 95 19.9 98 17.7 100.7 17.7 C 105.1 17.7 106.9 20.1 106.9 24.2 C 106.86 24.24 106.9 47.4 106.9 47.4 L 100 47.4 Z M 137 47.4 L 135.8 40 L 128.3 40 L 127.1 47.4 L 119.3 47.4 L 127.7 7.4 L 136.4 7.4 L 144.8 47.4 L 137 47.4 Z M 132.1 15.8 L 129.2 33.4 L 134.9 33.4 L 132.1 15.8 Z M 145.5 44.3 C 145.5 44.3 148.3 39.7 148.3 39.7 C 149.9 41.4 152 42.8 154.3 42.8 C 156.5 42.8 158 41.6 158 39.7 C 158 34.9 146.5 36 146.5 25.9 C 146.5 21.5 149.8 17.7 155.8 17.7 C 159.1 17.7 162.1 19 164.3 21.1 C 164.3 21.1 161.5 25.7 161.5 25.7 C 160.4 24.3 158.3 23 155.9 23 C 154.1 23 152.8 24.2 152.8 25.7 C 152.8 30.1 164.4 29.3 164.4 39.5 C 164.4 44.6 160.4 48.1 154.9 48.1 C 150.6 48.1 147.4 46.6 145.5 44.3 Z M 166.3 44.3 C 166.3 44.3 169.1 39.7 169.1 39.7 C 170.6 41.4 172.8 42.8 175.1 42.8 C 177.2 42.8 178.7 41.6 178.7 39.7 C 178.7 34.9 167.3 36 167.3 25.9 C 167.3 21.5 170.6 17.7 176.5 17.7 C 179.8 17.7 182.9 19 185 21.1 C 185 21.1 182.3 25.7 182.3 25.7 C 181.1 24.3 179 23 176.7 23 C 174.8 23 173.6 24.2 173.6 25.7 C 173.6 30.1 185.2 29.3 185.2 39.5 C 185.2 44.6 181.2 48.1 175.7 48.1 C 171.4 48.1 168.2 46.6 166.3 44.3 Z M 187.9 32.9 C 187.9 24.8 191.2 17.7 198.8 17.7 C 206.4 17.7 209.7 24.8 209.7 32.9 C 209.7 40.9 206.4 48.1 198.8 48.1 C 191.2 48.1 187.9 40.9 187.9 32.9 Z M 202.7 32.9 C 202.7 28 201.8 23.7 198.8 23.7 C 195.8 23.7 194.9 28 194.9 32.9 C 194.9 37.9 195.8 42.1 198.8 42.1 C 201.8 42.1 202.7 37.9 202.7 32.9 Z M 214.1 47.4 L 214.1 18.4 L 220.9 18.4 C 220.9 18.4 220.86 22.44 220.9 22.4 C 222 19.8 224.8 17.7 227.3 17.7 C 227.3 17.7 227.3 24.4 227.3 24.4 C 226.9 24.2 226.4 24.2 226 24.2 C 224 24.2 222 25.8 220.9 27.9 C 220.86 27.9 220.9 47.4 220.9 47.4 L 214.1 47.4 Z M 231.8 40.7 C 231.78 40.74 231.8 24.3 231.8 24.3 L 229.1 24.3 L 229.1 18.4 L 231.8 18.4 L 231.8 10.5 L 238.6 10.5 L 238.6 18.4 L 242.2 18.4 L 242.2 24.3 L 238.6 24.3 C 238.6 24.3 238.56 39.42 238.6 39.4 C 238.6 41.2 239 42.1 240.2 42.1 C 240.8 42.1 241.4 41.8 241.8 41.3 C 241.8 41.3 243.2 46.6 243.2 46.6 C 242.2 47.5 240.5 48.1 238.4 48.1 C 233.7 48.1 231.8 45.7 231.8 40.7 Z M 245.2 32.9 C 245.2 24.5 248.8 17.7 256.1 17.7 C 263.4 17.7 266.5 24.2 266.5 32.8 C 266.46 32.76 266.5 35.1 266.5 35.1 C 266.5 35.1 251.76 35.1 251.8 35.1 C 251.8 39.4 253.6 42.6 257.5 42.6 C 259.1 42.6 260.9 41.5 262.3 39.7 C 262.3 39.7 265.6 43.5 265.6 43.5 C 263.3 46.4 260 48.1 256.7 48.1 C 249.2 48.1 245.2 41.8 245.2 32.9 Z M 255.9 23.2 C 252.6 23.2 251.8 27.3 251.8 30.4 C 251.8 30.4 259.9 30.4 259.9 30.4 C 259.9 27.1 259.2 23.2 255.9 23.2 Z M 283.7 47.4 C 283.7 47.4 283.68 43.8 283.7 43.8 C 282.4 46.7 280.1 48.1 278 48.1 C 272.3 48.1 269.5 42.2 269.5 32.9 C 269.5 23.8 272.3 17.7 278 17.7 C 280.1 17.7 282.5 19 283.7 22 C 283.68 22.02 283.7 7.4 283.7 7.4 L 290.5 7.4 L 290.5 47.4 L 283.7 47.4 Z M 283.7 38.6 C 283.7 38.6 283.7 27.2 283.7 27.2 C 283.1 25.3 281.7 23.7 280.3 23.7 C 277.3 23.7 276.4 27.8 276.4 32.9 C 276.4 38 277.3 42.1 280.3 42.1 C 281.7 42.1 283.1 40.6 283.7 38.6 Z M 324.8 47.4 L 321.5 21.6 L 318.2 47.4 L 310.5 47.4 L 303.7 7.4 L 311.3 7.4 L 314.7 34.2 L 318.5 7.4 L 324.5 7.4 L 328.3 34.2 L 331.6 7.4 L 339.3 7.4 L 332.5 47.4 L 324.8 47.4 Z M 354 47.4 C 354 47.4 354 44.64 354 44.6 C 352.7 46.9 350 48.1 347.9 48.1 C 343.4 48.1 340.1 44.4 340.1 38.5 C 340.1 32.6 343.4 29 347.9 29 C 350 29 352.8 30.1 354 32.3 C 354 32.3 354 28.7 354 28.7 C 354 25.4 352.7 23.5 349.6 23.5 C 347.7 23.5 345.7 24.4 343.7 26.3 C 343.7 26.3 341.2 21.5 341.2 21.5 C 343.9 18.7 348 17.7 351 17.7 C 356.9 17.7 360.8 20.7 360.8 27.2 C 360.78 27.18 360.8 47.4 360.8 47.4 L 354 47.4 Z M 354 40.6 C 354 40.6 354 36.7 354 36.7 C 353.3 34.9 351.8 33.7 350.3 33.7 C 348 33.7 346.9 35.8 346.9 38.6 C 346.9 41.3 348 43.6 350.3 43.6 C 351.8 43.6 353.3 42.4 354 40.6 Z M 364.3 44.3 C 364.3 44.3 367.1 39.7 367.1 39.7 C 368.6 41.4 370.8 42.8 373.1 42.8 C 375.2 42.8 376.7 41.6 376.7 39.7 C 376.7 34.9 365.3 36 365.3 25.9 C 365.3 21.5 368.6 17.7 374.5 17.7 C 377.8 17.7 380.9 19 383 21.1 C 383 21.1 380.3 25.7 380.3 25.7 C 379.1 24.3 377 23 374.7 23 C 372.8 23 371.6 24.2 371.6 25.7 C 371.6 30.1 383.2 29.3 383.2 39.5 C 383.2 44.6 379.2 48.1 373.7 48.1 C 369.4 48.1 366.2 46.6 364.3 44.3 Z M 388 40.7 C 387.95 40.74 388 24.3 388 24.3 L 385.3 24.3 L 385.3 18.4 L 388 18.4 L 388 10.5 L 394.7 10.5 L 394.7 18.4 L 398.4 18.4 L 398.4 24.3 L 394.7 24.3 C 394.7 24.3 394.73 39.42 394.7 39.4 C 394.7 41.2 395.2 42.1 396.4 42.1 C 397 42.1 397.6 41.8 398 41.3 C 398 41.3 399.4 46.6 399.4 46.6 C 398.3 47.5 396.7 48.1 394.6 48.1 C 389.9 48.1 388 45.7 388 40.7 Z M 401.4 32.9 C 401.4 24.5 405 17.7 412.3 17.7 C 419.6 17.7 422.6 24.2 422.6 32.8 C 422.63 32.76 422.6 35.1 422.6 35.1 C 422.6 35.1 407.93 35.1 407.9 35.1 C 408 39.4 409.8 42.6 413.6 42.6 C 415.3 42.6 417.1 41.5 418.4 39.7 C 418.4 39.7 421.7 43.5 421.7 43.5 C 419.5 46.4 416.2 48.1 412.9 48.1 C 405.4 48.1 401.4 41.8 401.4 32.9 Z M 412.1 23.2 C 408.8 23.2 407.9 27.3 407.9 30.4 C 407.9 30.4 416.1 30.4 416.1 30.4 C 416.1 27.1 415.4 23.2 412.1 23.2 Z " stroke="none" fill="#b13d24"/>  </g></svg>