<?xml version="1.0" standalone="no"?><!DOCTYPE svg PUBLIC "-//W3C//DTD SVG 1.1//EN" "http://www.w3.org/Graphics/SVG/1.1/DTD/svg11.dtd"><svg xmlns="http://www.w3.org/2000/svg" version="1.1" width="191px" height="33.2px" viewBox="0 0 191 33.2">  <desc>COOKING TIME:</desc>  <defs/>  <g id="Polygon160384">    <path d="M 30.1 9.1 C 30.1 5.1 32.3 2.2 35.7 2.2 C 38.3 2.2 39.5 3.9 40.2 5.4 C 40.2 5.4 38 6.4 38 6.4 C 37.6 5.4 36.8 4.6 35.7 4.6 C 33.9 4.6 32.8 6.5 32.8 9.1 C 32.8 11.8 33.9 13.7 35.7 13.7 C 36.8 13.7 37.6 12.8 38 11.7 C 38 11.7 40.2 12.7 40.2 12.7 C 39.5 14.3 38.3 16 35.7 16 C 32.3 16 30.1 13.2 30.1 9.1 Z M 42 9.1 C 42 5.2 44.1 2.2 47.6 2.2 C 51.1 2.2 53.2 5.2 53.2 9.1 C 53.2 13.1 51.1 16 47.6 16 C 44.1 16 42 13.1 42 9.1 Z M 50.4 9.1 C 50.4 6.6 49.4 4.6 47.6 4.6 C 45.8 4.6 44.8 6.6 44.8 9.1 C 44.8 11.7 45.8 13.7 47.6 13.7 C 49.4 13.7 50.4 11.7 50.4 9.1 Z M 55.3 9.1 C 55.3 5.2 57.4 2.2 60.8 2.2 C 64.3 2.2 66.4 5.2 66.4 9.1 C 66.4 13.1 64.3 16 60.8 16 C 57.4 16 55.3 13.1 55.3 9.1 Z M 63.7 9.1 C 63.7 6.6 62.7 4.6 60.8 4.6 C 59 4.6 58 6.6 58 9.1 C 58 11.7 59 13.7 60.8 13.7 C 62.7 13.7 63.7 11.7 63.7 9.1 Z M 75.8 15.8 L 72.7 10.6 L 71.7 12.1 L 71.7 15.8 L 69.1 15.8 L 69.1 2.5 L 71.7 2.5 L 71.7 8.5 L 75.5 2.5 L 78.6 2.5 L 74.4 8.7 L 78.9 15.8 L 75.8 15.8 Z M 80.9 15.8 L 80.9 2.5 L 83.6 2.5 L 83.6 15.8 L 80.9 15.8 Z M 94 15.8 L 89.4 7.9 L 89.4 15.8 L 86.8 15.8 L 86.8 2.5 L 89.5 2.5 L 93.8 10.1 L 93.8 2.5 L 96.5 2.5 L 96.5 15.8 L 94 15.8 Z M 99.1 9.1 C 99.1 5 101.4 2.2 104.8 2.2 C 107.1 2.2 108.5 3.7 109.2 5.3 C 109.2 5.3 107 6.3 107 6.3 C 106.6 5.4 105.9 4.6 104.8 4.6 C 103.1 4.6 101.9 6.3 101.9 9.1 C 101.9 12 103.1 13.7 104.8 13.7 C 105.7 13.7 106.4 13.3 106.8 12.9 C 106.8 12.86 106.8 10.8 106.8 10.8 L 104.3 10.8 L 104.3 8.5 L 109.3 8.5 C 109.3 8.5 109.34 13.92 109.3 13.9 C 108.2 15.2 106.7 16 104.8 16 C 101.4 16 99.1 13.3 99.1 9.1 Z M 119.4 15.8 L 119.4 4.8 L 116.5 4.8 L 116.5 2.5 L 125.1 2.5 L 125.1 4.8 L 122.1 4.8 L 122.1 15.8 L 119.4 15.8 Z M 127.5 15.8 L 127.5 2.5 L 130.1 2.5 L 130.1 15.8 L 127.5 15.8 Z M 143 15.8 L 143 7.2 L 140 15.8 L 138.9 15.8 L 136 7.2 L 136 15.8 L 133.3 15.8 L 133.3 2.5 L 136.9 2.5 L 139.5 9.9 L 142.1 2.5 L 145.7 2.5 L 145.7 15.8 L 143 15.8 Z M 148.8 15.8 L 148.8 2.5 L 156.4 2.5 L 156.4 4.8 L 151.5 4.8 L 151.5 7.8 L 156.3 7.8 L 156.3 10.2 L 151.5 10.2 L 151.5 13.4 L 156.4 13.4 L 156.4 15.8 L 148.8 15.8 Z M 159 7.5 C 159 6.7 159.7 6 160.6 6 C 161.4 6 162.1 6.7 162.1 7.5 C 162.1 8.4 161.4 9.1 160.6 9.1 C 159.7 9.1 159 8.4 159 7.5 Z M 159 14.5 C 159 13.6 159.7 12.9 160.6 12.9 C 161.4 12.9 162.1 13.6 162.1 14.5 C 162.1 15.3 161.4 16 160.6 16 C 159.7 16 159 15.3 159 14.5 Z " stroke="none" fill="#b13d24"/>  </g></svg>