<?xml version="1.0" standalone="no"?><!DOCTYPE svg PUBLIC "-//W3C//DTD SVG 1.1//EN" "http://www.w3.org/Graphics/SVG/1.1/DTD/svg11.dtd"><svg xmlns="http://www.w3.org/2000/svg" version="1.1" width="191px" height="44.3px" viewBox="0 0 191 44.3">  <desc>1 5 hours</desc>  <defs/>  <g id="Polygon169594">    <path d="M 42.9 14.3 L 42.9 19.5 L 40.5 19.5 L 40.5 14.3 L 35.9 14.3 L 35.9 12 L 40.5 12 L 40.5 7 L 42.9 7 L 42.9 12 L 47.5 12 L 47.5 14.3 L 42.9 14.3 Z M 35.9 23.3 L 35.9 21.1 L 47.5 21.1 L 47.5 23.3 L 35.9 23.3 Z M 55.2 23.7 L 55.2 8.9 L 52.2 12 L 49.8 9.6 L 55.7 3.7 L 59.2 3.7 L 59.2 23.7 L 55.2 23.7 Z M 62.4 21.7 C 62.4 20.5 63.5 19.4 64.8 19.4 C 66 19.4 67.1 20.5 67.1 21.7 C 67.1 23 66 24 64.8 24 C 63.5 24 62.4 23 62.4 21.7 Z M 69.7 20.9 C 69.7 20.9 72.1 18.3 72.1 18.3 C 73.2 19.7 74.6 20.5 76.3 20.5 C 78.2 20.5 79.3 19 79.3 17.3 C 79.3 15.4 78.3 14.2 76.5 14.2 C 75.1 14.2 74.1 14.7 73.2 15.8 C 73.18 15.84 70.3 15.1 70.3 15.1 L 70.3 3.7 L 82.3 3.7 L 82.3 7.2 L 74.3 7.2 C 74.3 7.2 74.29 12.36 74.3 12.4 C 75.1 11.4 76.4 10.7 78 10.7 C 81 10.7 83.4 13.1 83.4 17.2 C 83.4 21.2 80.7 24.1 76.4 24.1 C 73.3 24.1 71.2 22.9 69.7 20.9 Z M 100.5 23.7 C 100.5 23.7 100.45 14.1 100.5 14.1 C 100.5 12.6 99.7 12 98.5 12 C 97.4 12 96.4 13 95.9 13.8 C 95.92 13.83 95.9 23.7 95.9 23.7 L 92.3 23.7 L 92.3 3.7 L 95.9 3.7 C 95.9 3.7 95.92 11.1 95.9 11.1 C 96.7 10 98.3 8.8 100.2 8.8 C 102.9 8.8 104.1 10.3 104.1 12.7 C 104.05 12.75 104.1 23.7 104.1 23.7 L 100.5 23.7 Z M 106.5 16.4 C 106.5 12.4 108.8 8.8 113.1 8.8 C 117.4 8.8 119.7 12.4 119.7 16.4 C 119.7 20.5 117.4 24.1 113.1 24.1 C 108.8 24.1 106.5 20.5 106.5 16.4 Z M 115.9 16.4 C 115.9 14.1 115.1 12 113.1 12 C 111.2 12 110.3 14.1 110.3 16.4 C 110.3 18.8 111.2 20.9 113.1 20.9 C 115.1 20.9 115.9 18.8 115.9 16.4 Z M 130.3 23.7 C 130.3 23.7 130.27 21.87 130.3 21.9 C 129.5 23 127.9 24.1 126 24.1 C 123.3 24.1 122.1 22.6 122.1 20.2 C 122.14 20.16 122.1 9.2 122.1 9.2 L 125.7 9.2 C 125.7 9.2 125.74 18.78 125.7 18.8 C 125.7 20.3 126.5 20.9 127.7 20.9 C 128.8 20.9 129.8 20 130.3 19.1 C 130.27 19.11 130.3 9.2 130.3 9.2 L 133.9 9.2 L 133.9 23.7 L 130.3 23.7 Z M 137.1 23.7 L 137.1 9.2 L 140.7 9.2 C 140.7 9.2 140.71 11.19 140.7 11.2 C 141.5 9.9 143.1 8.8 144.7 8.8 C 144.7 8.8 144.7 12.4 144.7 12.4 C 144.4 12.3 144.1 12.3 143.8 12.3 C 142.7 12.3 141.3 13 140.7 14 C 140.71 14.04 140.7 23.7 140.7 23.7 L 137.1 23.7 Z M 145.6 22 C 145.6 22 147.1 19.5 147.1 19.5 C 148 20.4 149.7 21.2 151.1 21.2 C 152.5 21.2 153.3 20.6 153.3 19.7 C 153.3 17.3 146.1 18.6 146.1 13.2 C 146.1 10.9 148 8.8 151.4 8.8 C 153.4 8.8 155.1 9.6 156.4 10.7 C 156.4 10.7 155 13.1 155 13.1 C 154.2 12.3 152.9 11.6 151.4 11.6 C 150.3 11.6 149.5 12.2 149.5 13 C 149.5 15.2 156.7 14.1 156.7 19.6 C 156.7 22.2 154.6 24.1 151.2 24.1 C 148.8 24.1 146.8 23.3 145.6 22 Z " stroke="none" fill="#d3d2d2"/>  </g></svg>