<?xml version="1.0" standalone="no"?><!DOCTYPE svg PUBLIC "-//W3C//DTD SVG 1.1//EN" "http://www.w3.org/Graphics/SVG/1.1/DTD/svg11.dtd"><svg xmlns="http://www.w3.org/2000/svg" version="1.1" width="219px" height="332.3px" viewBox="0 0 219 332.3">  <desc>1 pc (large) 50 cm 10 10 cm sheet 1 pc 110 ml 35 g as needed as needed</desc>  <defs/>  <g id="Polygon155529">    <path d="M 9.4 284.7 C 9.4 284.7 9.42 283.14 9.4 283.1 C 8.5 284.5 7.1 285.1 5.6 285.1 C 3.3 285.1 1.2 283.3 1.2 280.2 C 1.2 277.2 3.2 275.5 5.6 275.5 C 7.1 275.5 8.5 276 9.4 277.3 C 9.4 277.3 9.4 274.8 9.4 274.8 C 9.4 272.8 8.3 271.7 6.4 271.7 C 5.1 271.7 3.9 272.2 2.8 273.5 C 2.8 273.5 1.9 272 1.9 272 C 3.2 270.5 4.9 269.9 6.8 269.9 C 9.7 269.9 11.6 271.3 11.6 274.6 C 11.58 274.56 11.6 284.7 11.6 284.7 L 9.4 284.7 Z M 9.4 281.7 C 9.4 281.7 9.4 278.9 9.4 278.9 C 8.8 277.7 7.6 277.1 6.3 277.1 C 4.5 277.1 3.4 278.5 3.4 280.3 C 3.4 282.1 4.5 283.5 6.3 283.5 C 7.6 283.5 8.8 282.9 9.4 281.7 Z M 14.3 283 C 14.3 283 15.4 281.5 15.4 281.5 C 16.3 282.5 17.6 283.3 19.2 283.3 C 20.9 283.3 22 282.4 22 281 C 22 277.6 14.8 278.8 14.8 273.8 C 14.8 271.6 16.5 269.9 19.4 269.9 C 21.3 269.9 22.8 270.6 23.8 271.7 C 23.8 271.7 22.8 273.2 22.8 273.2 C 22 272.2 20.8 271.6 19.4 271.6 C 17.8 271.6 16.8 272.5 16.8 273.7 C 16.8 276.8 24.1 275.7 24.1 280.9 C 24.1 283.3 22.2 285.1 19.2 285.1 C 17.2 285.1 15.5 284.4 14.3 283 Z M 41.4 284.7 C 41.4 284.7 41.4 274.38 41.4 274.4 C 41.4 272.5 40.5 271.8 39.1 271.8 C 37.7 271.8 36.4 272.9 35.7 274.1 C 35.7 274.08 35.7 284.7 35.7 284.7 L 33.6 284.7 L 33.6 270.2 L 35.7 270.2 C 35.7 270.2 35.7 272.28 35.7 272.3 C 36.5 271 38.2 269.9 39.9 269.9 C 42.4 269.9 43.6 271.2 43.6 273.8 C 43.56 273.78 43.6 284.7 43.6 284.7 L 41.4 284.7 Z M 46.8 277.4 C 46.8 273.2 49 269.9 52.7 269.9 C 56.5 269.9 58.4 273.3 58.4 277.5 C 58.41 277.5 58.4 278.2 58.4 278.2 C 58.4 278.2 49.02 278.16 49 278.2 C 49.1 281.1 50.6 283.3 53.2 283.3 C 54.4 283.3 55.7 282.6 56.6 281.5 C 56.6 281.5 57.8 282.8 57.8 282.8 C 56.6 284.2 55 285.1 53 285.1 C 49.1 285.1 46.8 281.9 46.8 277.4 Z M 52.6 271.7 C 50.1 271.7 49.1 274.4 49 276.6 C 49 276.6 56.3 276.6 56.3 276.6 C 56.2 274.4 55.3 271.7 52.6 271.7 Z M 60.8 277.4 C 60.8 273.2 63.1 269.9 66.7 269.9 C 70.5 269.9 72.4 273.3 72.4 277.5 C 72.45 277.5 72.4 278.2 72.4 278.2 C 72.4 278.2 63.06 278.16 63.1 278.2 C 63.1 281.1 64.6 283.3 67.2 283.3 C 68.5 283.3 69.8 282.6 70.7 281.5 C 70.7 281.5 71.8 282.8 71.8 282.8 C 70.6 284.2 69 285.1 67 285.1 C 63.2 285.1 60.8 281.9 60.8 277.4 Z M 66.7 271.7 C 64.1 271.7 63.1 274.4 63.1 276.6 C 63.1 276.6 70.3 276.6 70.3 276.6 C 70.3 274.4 69.3 271.7 66.7 271.7 Z M 83.9 284.7 C 83.9 284.7 83.88 282.63 83.9 282.6 C 83 284.1 81.6 285.1 80.1 285.1 C 76.8 285.1 74.9 282 74.9 277.5 C 74.9 273 76.8 269.9 80.1 269.9 C 81.5 269.9 83 270.7 83.9 272.3 C 83.88 272.31 83.9 264.7 83.9 264.7 L 86 264.7 L 86 284.7 L 83.9 284.7 Z M 83.9 280.8 C 83.9 280.8 83.9 274.1 83.9 274.1 C 83.3 272.9 82 271.8 80.6 271.8 C 78.2 271.8 77.1 274.3 77.1 277.5 C 77.1 280.6 78.2 283.1 80.6 283.1 C 82 283.1 83.3 282.1 83.9 280.8 Z M 89.3 277.4 C 89.3 273.2 91.5 269.9 95.2 269.9 C 99 269.9 100.9 273.3 100.9 277.5 C 100.89 277.5 100.9 278.2 100.9 278.2 C 100.9 278.2 91.5 278.16 91.5 278.2 C 91.6 281.1 93.1 283.3 95.7 283.3 C 96.9 283.3 98.2 282.6 99.1 281.5 C 99.1 281.5 100.3 282.8 100.3 282.8 C 99.1 284.2 97.4 285.1 95.5 285.1 C 91.6 285.1 89.3 281.9 89.3 277.4 Z M 95.1 271.7 C 92.6 271.7 91.6 274.4 91.5 276.6 C 91.5 276.6 98.8 276.6 98.8 276.6 C 98.7 274.4 97.8 271.7 95.1 271.7 Z M 112.3 284.7 C 112.3 284.7 112.32 282.63 112.3 282.6 C 111.5 284.1 110 285.1 108.5 285.1 C 105.3 285.1 103.3 282 103.3 277.5 C 103.3 273 105.2 269.9 108.5 269.9 C 110 269.9 111.4 270.7 112.3 272.3 C 112.32 272.31 112.3 264.7 112.3 264.7 L 114.5 264.7 L 114.5 284.7 L 112.3 284.7 Z M 112.3 280.8 C 112.3 280.8 112.3 274.1 112.3 274.1 C 111.8 272.9 110.4 271.8 109 271.8 C 106.7 271.8 105.6 274.3 105.6 277.5 C 105.6 280.6 106.7 283.1 109 283.1 C 110.4 283.1 111.8 282.1 112.3 280.8 Z " stroke="none" fill="#d0d1d4"/>  </g>  <g id="Polygon155528">    <path d="M 9.4 248.7 C 9.4 248.7 9.42 247.14 9.4 247.1 C 8.5 248.5 7.1 249.1 5.6 249.1 C 3.3 249.1 1.2 247.3 1.2 244.2 C 1.2 241.2 3.2 239.5 5.6 239.5 C 7.1 239.5 8.5 240 9.4 241.3 C 9.4 241.3 9.4 238.8 9.4 238.8 C 9.4 236.8 8.3 235.7 6.4 235.7 C 5.1 235.7 3.9 236.2 2.8 237.5 C 2.8 237.5 1.9 236 1.9 236 C 3.2 234.5 4.9 233.9 6.8 233.9 C 9.7 233.9 11.6 235.3 11.6 238.6 C 11.58 238.56 11.6 248.7 11.6 248.7 L 9.4 248.7 Z M 9.4 245.7 C 9.4 245.7 9.4 242.9 9.4 242.9 C 8.8 241.7 7.6 241.1 6.3 241.1 C 4.5 241.1 3.4 242.5 3.4 244.3 C 3.4 246.1 4.5 247.5 6.3 247.5 C 7.6 247.5 8.8 246.9 9.4 245.7 Z M 14.3 247 C 14.3 247 15.4 245.5 15.4 245.5 C 16.3 246.5 17.6 247.3 19.2 247.3 C 20.9 247.3 22 246.4 22 245 C 22 241.6 14.8 242.8 14.8 237.8 C 14.8 235.6 16.5 233.9 19.4 233.9 C 21.3 233.9 22.8 234.6 23.8 235.7 C 23.8 235.7 22.8 237.2 22.8 237.2 C 22 236.2 20.8 235.6 19.4 235.6 C 17.8 235.6 16.8 236.5 16.8 237.7 C 16.8 240.8 24.1 239.7 24.1 244.9 C 24.1 247.3 22.2 249.1 19.2 249.1 C 17.2 249.1 15.5 248.4 14.3 247 Z M 41.4 248.7 C 41.4 248.7 41.4 238.38 41.4 238.4 C 41.4 236.5 40.5 235.8 39.1 235.8 C 37.7 235.8 36.4 236.9 35.7 238.1 C 35.7 238.08 35.7 248.7 35.7 248.7 L 33.6 248.7 L 33.6 234.2 L 35.7 234.2 C 35.7 234.2 35.7 236.28 35.7 236.3 C 36.5 235 38.2 233.9 39.9 233.9 C 42.4 233.9 43.6 235.2 43.6 237.8 C 43.56 237.78 43.6 248.7 43.6 248.7 L 41.4 248.7 Z M 46.8 241.4 C 46.8 237.2 49 233.9 52.7 233.9 C 56.5 233.9 58.4 237.3 58.4 241.5 C 58.41 241.5 58.4 242.2 58.4 242.2 C 58.4 242.2 49.02 242.16 49 242.2 C 49.1 245.1 50.6 247.3 53.2 247.3 C 54.4 247.3 55.7 246.6 56.6 245.5 C 56.6 245.5 57.8 246.8 57.8 246.8 C 56.6 248.2 55 249.1 53 249.1 C 49.1 249.1 46.8 245.9 46.8 241.4 Z M 52.6 235.7 C 50.1 235.7 49.1 238.4 49 240.6 C 49 240.6 56.3 240.6 56.3 240.6 C 56.2 238.4 55.3 235.7 52.6 235.7 Z M 60.8 241.4 C 60.8 237.2 63.1 233.9 66.7 233.9 C 70.5 233.9 72.4 237.3 72.4 241.5 C 72.45 241.5 72.4 242.2 72.4 242.2 C 72.4 242.2 63.06 242.16 63.1 242.2 C 63.1 245.1 64.6 247.3 67.2 247.3 C 68.5 247.3 69.8 246.6 70.7 245.5 C 70.7 245.5 71.8 246.8 71.8 246.8 C 70.6 248.2 69 249.1 67 249.1 C 63.2 249.1 60.8 245.9 60.8 241.4 Z M 66.7 235.7 C 64.1 235.7 63.1 238.4 63.1 240.6 C 63.1 240.6 70.3 240.6 70.3 240.6 C 70.3 238.4 69.3 235.7 66.7 235.7 Z M 83.9 248.7 C 83.9 248.7 83.88 246.63 83.9 246.6 C 83 248.1 81.6 249.1 80.1 249.1 C 76.8 249.1 74.9 246 74.9 241.5 C 74.9 237 76.8 233.9 80.1 233.9 C 81.5 233.9 83 234.7 83.9 236.3 C 83.88 236.31 83.9 228.7 83.9 228.7 L 86 228.7 L 86 248.7 L 83.9 248.7 Z M 83.9 244.8 C 83.9 244.8 83.9 238.1 83.9 238.1 C 83.3 236.9 82 235.8 80.6 235.8 C 78.2 235.8 77.1 238.3 77.1 241.5 C 77.1 244.6 78.2 247.1 80.6 247.1 C 82 247.1 83.3 246.1 83.9 244.8 Z M 89.3 241.4 C 89.3 237.2 91.5 233.9 95.2 233.9 C 99 233.9 100.9 237.3 100.9 241.5 C 100.89 241.5 100.9 242.2 100.9 242.2 C 100.9 242.2 91.5 242.16 91.5 242.2 C 91.6 245.1 93.1 247.3 95.7 247.3 C 96.9 247.3 98.2 246.6 99.1 245.5 C 99.1 245.5 100.3 246.8 100.3 246.8 C 99.1 248.2 97.4 249.1 95.5 249.1 C 91.6 249.1 89.3 245.9 89.3 241.4 Z M 95.1 235.7 C 92.6 235.7 91.6 238.4 91.5 240.6 C 91.5 240.6 98.8 240.6 98.8 240.6 C 98.7 238.4 97.8 235.7 95.1 235.7 Z M 112.3 248.7 C 112.3 248.7 112.32 246.63 112.3 246.6 C 111.5 248.1 110 249.1 108.5 249.1 C 105.3 249.1 103.3 246 103.3 241.5 C 103.3 237 105.2 233.9 108.5 233.9 C 110 233.9 111.4 234.7 112.3 236.3 C 112.32 236.31 112.3 228.7 112.3 228.7 L 114.5 228.7 L 114.5 248.7 L 112.3 248.7 Z M 112.3 244.8 C 112.3 244.8 112.3 238.1 112.3 238.1 C 111.8 236.9 110.4 235.8 109 235.8 C 106.7 235.8 105.6 238.3 105.6 241.5 C 105.6 244.6 106.7 247.1 109 247.1 C 110.4 247.1 111.8 246.1 112.3 244.8 Z " stroke="none" fill="#d0d1d4"/>  </g>  <g id="Polygon155527">    <path d="M 0.9 209.7 C 0.9 209.7 2.4 208.3 2.4 208.3 C 3.4 209.8 4.8 210.9 6.7 210.9 C 9.1 210.9 10.3 209.4 10.3 207.1 C 10.3 204.4 8.6 203.5 6.5 203.5 C 5.9 203.5 5.2 203.5 4.9 203.5 C 4.9 203.5 4.9 201.4 4.9 201.4 C 5.2 201.4 6 201.4 6.5 201.4 C 8.5 201.4 10.1 200.3 10.1 198 C 10.1 195.7 8.7 194.5 6.7 194.5 C 4.9 194.5 3.6 195.5 2.6 196.9 C 2.6 196.9 1.1 195.5 1.1 195.5 C 2.3 193.6 4.3 192.4 6.8 192.4 C 10.1 192.4 12.5 194.2 12.5 197.7 C 12.5 200.2 10.7 201.9 8.9 202.4 C 10.7 202.6 12.8 204.4 12.8 207.3 C 12.8 210.6 10.6 213.1 6.8 213.1 C 4 213.1 1.9 211.6 0.9 209.7 Z M 15.7 209.8 C 15.7 209.8 17.3 208.4 17.3 208.4 C 18.3 210 19.6 210.9 21.6 210.9 C 23.8 210.9 25.1 208.9 25.1 206.6 C 25.1 203.7 23.8 202.2 21.7 202.2 C 20.3 202.2 19.2 202.7 18.1 204 C 18.09 204.03 16.3 203.4 16.3 203.4 L 16.3 192.7 L 26.5 192.7 L 26.5 194.8 L 18.7 194.8 C 18.7 194.8 18.69 201.81 18.7 201.8 C 19.5 200.9 20.8 200.1 22.4 200.1 C 25.3 200.1 27.6 202.4 27.6 206.5 C 27.6 210.3 25.1 213.1 21.6 213.1 C 18.7 213.1 17 211.8 15.7 209.8 Z M 37.2 216.8 C 37.2 216.8 38.2 215.1 38.2 215.1 C 39.2 216.2 40.4 216.8 42 216.8 C 44 216.8 45.6 215.6 45.6 212.8 C 45.6 212.8 45.6 210.4 45.6 210.4 C 44.8 211.9 43.3 212.9 41.8 212.9 C 38.6 212.9 36.6 209.9 36.6 205.4 C 36.6 200.9 38.5 197.9 41.8 197.9 C 43.3 197.9 44.7 198.7 45.6 200.3 C 45.63 200.31 45.6 198.2 45.6 198.2 L 47.8 198.2 C 47.8 198.2 47.79 212.67 47.8 212.7 C 47.8 217.1 45.1 218.6 42.1 218.6 C 40.1 218.6 38.6 218.1 37.2 216.8 Z M 45.6 208.6 C 45.6 208.6 45.6 202.1 45.6 202.1 C 45.1 200.9 43.7 199.8 42.4 199.8 C 40 199.8 38.9 202.3 38.9 205.4 C 38.9 208.5 40 211 42.4 211 C 43.7 211 45.1 209.8 45.6 208.6 Z " stroke="none" fill="#d0d1d4"/>  </g>  <g id="Polygon155526">    <path d="M 5 176.7 L 5 159.8 L 1.9 163.1 L 0.4 161.6 L 5.3 156.7 L 7.3 156.7 L 7.3 176.7 L 5 176.7 Z M 14.4 176.7 L 14.4 159.8 L 11.3 163.1 L 9.9 161.6 L 14.7 156.7 L 16.8 156.7 L 16.8 176.7 L 14.4 176.7 Z M 20.3 166.7 C 20.3 161.9 21.9 156.4 26.6 156.4 C 31.3 156.4 32.8 161.9 32.8 166.7 C 32.8 171.5 31.3 177.1 26.6 177.1 C 21.9 177.1 20.3 171.5 20.3 166.7 Z M 30.4 166.7 C 30.4 162.8 29.7 158.5 26.6 158.5 C 23.5 158.5 22.8 162.8 22.8 166.7 C 22.8 170.6 23.5 174.9 26.6 174.9 C 29.7 174.9 30.4 170.6 30.4 166.7 Z M 57.3 176.7 C 57.3 176.7 57.33 166.2 57.3 166.2 C 57.3 164.6 56.7 163.8 55.3 163.8 C 54 163.8 52.7 164.9 52.2 166.1 C 52.17 166.08 52.2 176.7 52.2 176.7 L 50 176.7 C 50 176.7 50.01 166.2 50 166.2 C 50 164.6 49.4 163.8 48 163.8 C 46.7 163.8 45.4 164.9 44.8 166.1 C 44.82 166.08 44.8 176.7 44.8 176.7 L 42.7 176.7 L 42.7 162.2 L 44.8 162.2 C 44.8 162.2 44.82 164.28 44.8 164.3 C 45.4 163.2 47 161.9 48.8 161.9 C 50.6 161.9 51.8 162.9 52 164.4 C 52.8 163.1 54.4 161.9 56.1 161.9 C 58.3 161.9 59.5 163 59.5 165.6 C 59.49 165.63 59.5 176.7 59.5 176.7 L 57.3 176.7 Z M 63.4 176.7 L 63.4 156.7 L 65.6 156.7 L 65.6 176.7 L 63.4 176.7 Z " stroke="none" fill="#d0d1d4"/>  </g>  <g id="Polygon155525">    <path d="M 5 140.7 L 5 123.8 L 1.9 127.1 L 0.4 125.6 L 5.3 120.7 L 7.3 120.7 L 7.3 140.7 L 5 140.7 Z M 20 138.6 C 20.01 138.6 20 146.2 20 146.2 L 17.9 146.2 L 17.9 126.2 L 20 126.2 C 20 126.2 20.01 128.28 20 128.3 C 20.8 126.8 22.3 125.9 23.8 125.9 C 27.1 125.9 29 128.9 29 133.4 C 29 138 27.1 141.1 23.8 141.1 C 22.3 141.1 20.9 140.2 20 138.6 Z M 26.8 133.4 C 26.8 130.3 25.6 127.8 23.3 127.8 C 21.9 127.8 20.6 128.9 20 130.1 C 20 130.1 20 136.7 20 136.7 C 20.6 138 21.9 139.1 23.3 139.1 C 25.6 139.1 26.8 136.6 26.8 133.4 Z M 31.5 133.4 C 31.5 129.2 33.8 125.9 37.5 125.9 C 39.5 125.9 40.7 126.7 41.6 127.8 C 41.6 127.8 40.5 129.2 40.5 129.2 C 39.7 128.2 38.8 127.8 37.7 127.8 C 35.1 127.8 33.7 130.4 33.7 133.4 C 33.7 136.5 35.1 139.1 37.7 139.1 C 38.8 139.1 39.7 138.7 40.5 137.7 C 40.5 137.7 41.6 139.1 41.6 139.1 C 40.7 140.3 39.5 141.1 37.5 141.1 C 33.8 141.1 31.5 137.7 31.5 133.4 Z " stroke="none" fill="#d0d1d4"/>  </g>  <g id="Polygon155524">    <path d="M 5 104.7 L 5 87.8 L 1.9 91.1 L 0.4 89.6 L 5.3 84.7 L 7.3 84.7 L 7.3 104.7 L 5 104.7 Z M 10.9 94.7 C 10.9 89.9 12.4 84.4 17.1 84.4 C 21.8 84.4 23.4 89.9 23.4 94.7 C 23.4 99.5 21.8 105.1 17.1 105.1 C 12.4 105.1 10.9 99.5 10.9 94.7 Z M 21 94.7 C 21 90.8 20.2 86.5 17.1 86.5 C 14.1 86.5 13.3 90.8 13.3 94.7 C 13.3 98.6 14 102.9 17.1 102.9 C 20.2 102.9 21 98.6 21 94.7 Z M 32.7 95.8 L 28.9 99.6 L 27.7 98.5 L 31.6 94.7 L 27.7 90.8 L 28.9 89.8 L 32.7 93.6 L 36.5 89.8 L 37.6 90.8 L 33.7 94.7 L 37.6 98.5 L 36.5 99.6 L 32.7 95.8 Z M 45.5 104.7 L 45.5 87.8 L 42.4 91.1 L 41 89.6 L 45.8 84.7 L 47.9 84.7 L 47.9 104.7 L 45.5 104.7 Z M 51.4 94.7 C 51.4 89.9 53 84.4 57.7 84.4 C 62.4 84.4 64 89.9 64 94.7 C 64 99.5 62.4 105.1 57.7 105.1 C 53 105.1 51.4 99.5 51.4 94.7 Z M 61.5 94.7 C 61.5 90.8 60.8 86.5 57.7 86.5 C 54.6 86.5 53.9 90.8 53.9 94.7 C 53.9 98.6 54.6 102.9 57.7 102.9 C 60.8 102.9 61.5 98.6 61.5 94.7 Z M 73.1 97.4 C 73.1 93.2 75.4 89.9 79.1 89.9 C 81.1 89.9 82.3 90.7 83.2 91.8 C 83.2 91.8 82 93.2 82 93.2 C 81.3 92.2 80.4 91.8 79.3 91.8 C 76.7 91.8 75.3 94.4 75.3 97.4 C 75.3 100.5 76.7 103.1 79.3 103.1 C 80.4 103.1 81.3 102.7 82 101.7 C 82 101.7 83.2 103.1 83.2 103.1 C 82.3 104.3 81.1 105.1 79.1 105.1 C 75.4 105.1 73.1 101.7 73.1 97.4 Z M 100.6 104.7 C 100.6 104.7 100.62 94.2 100.6 94.2 C 100.6 92.6 100 91.8 98.6 91.8 C 97.3 91.8 96 92.9 95.5 94.1 C 95.46 94.08 95.5 104.7 95.5 104.7 L 93.3 104.7 C 93.3 104.7 93.3 94.2 93.3 94.2 C 93.3 92.6 92.7 91.8 91.3 91.8 C 90 91.8 88.7 92.9 88.1 94.1 C 88.11 94.08 88.1 104.7 88.1 104.7 L 86 104.7 L 86 90.2 L 88.1 90.2 C 88.1 90.2 88.11 92.28 88.1 92.3 C 88.7 91.2 90.3 89.9 92.1 89.9 C 93.9 89.9 95.1 90.9 95.3 92.4 C 96.1 91.1 97.7 89.9 99.4 89.9 C 101.5 89.9 102.8 91 102.8 93.6 C 102.78 93.63 102.8 104.7 102.8 104.7 L 100.6 104.7 Z M 112 103 C 112 103 113.1 101.5 113.1 101.5 C 113.9 102.5 115.3 103.3 116.9 103.3 C 118.6 103.3 119.7 102.4 119.7 101 C 119.7 97.6 112.4 98.8 112.4 93.8 C 112.4 91.6 114.2 89.9 117.1 89.9 C 119 89.9 120.4 90.6 121.5 91.7 C 121.5 91.7 120.4 93.2 120.4 93.2 C 119.7 92.2 118.5 91.6 117.1 91.6 C 115.5 91.6 114.5 92.5 114.5 93.7 C 114.5 96.8 121.7 95.7 121.7 100.9 C 121.7 103.3 119.9 105.1 116.9 105.1 C 114.9 105.1 113.2 104.4 112 103 Z M 132.7 104.7 C 132.7 104.7 132.66 94.35 132.7 94.4 C 132.7 92.4 131.8 91.8 130.3 91.8 C 128.9 91.8 127.6 92.9 126.9 94.1 C 126.93 94.08 126.9 104.7 126.9 104.7 L 124.8 104.7 L 124.8 84.7 L 126.9 84.7 C 126.9 84.7 126.93 92.28 126.9 92.3 C 127.8 91 129.4 89.9 131.2 89.9 C 133.6 89.9 134.8 91.1 134.8 93.7 C 134.79 93.72 134.8 104.7 134.8 104.7 L 132.7 104.7 Z M 138 97.4 C 138 93.2 140.2 89.9 143.9 89.9 C 147.7 89.9 149.6 93.3 149.6 97.5 C 149.64 97.5 149.6 98.2 149.6 98.2 C 149.6 98.2 140.25 98.16 140.2 98.2 C 140.3 101.1 141.8 103.3 144.4 103.3 C 145.7 103.3 147 102.6 147.9 101.5 C 147.9 101.5 149 102.8 149 102.8 C 147.8 104.2 146.2 105.1 144.2 105.1 C 140.4 105.1 138 101.9 138 97.4 Z M 143.9 91.7 C 141.3 91.7 140.3 94.4 140.2 96.6 C 140.2 96.6 147.5 96.6 147.5 96.6 C 147.5 94.4 146.5 91.7 143.9 91.7 Z M 152.1 97.4 C 152.1 93.2 154.3 89.9 157.9 89.9 C 161.8 89.9 163.7 93.3 163.7 97.5 C 163.68 97.5 163.7 98.2 163.7 98.2 C 163.7 98.2 154.29 98.16 154.3 98.2 C 154.4 101.1 155.9 103.3 158.5 103.3 C 159.7 103.3 161 102.6 161.9 101.5 C 161.9 101.5 163 102.8 163 102.8 C 161.9 104.2 160.2 105.1 158.3 105.1 C 154.4 105.1 152.1 101.9 152.1 97.4 Z M 157.9 91.7 C 155.4 91.7 154.3 94.4 154.3 96.6 C 154.3 96.6 161.5 96.6 161.5 96.6 C 161.5 94.4 160.6 91.7 157.9 91.7 Z M 167.2 101.8 C 167.25 101.79 167.2 92.1 167.2 92.1 L 165.3 92.1 L 165.3 90.2 L 167.2 90.2 L 167.2 86.3 L 169.4 86.3 L 169.4 90.2 L 171.9 90.2 L 171.9 92.1 L 169.4 92.1 C 169.4 92.1 169.41 101.4 169.4 101.4 C 169.4 102.5 169.7 103.1 170.6 103.1 C 171.1 103.1 171.6 102.9 171.8 102.6 C 171.8 102.6 172.5 104.2 172.5 104.2 C 172 104.7 171.3 105.1 170.2 105.1 C 168.2 105.1 167.2 104 167.2 101.8 Z " stroke="none" fill="#d0d1d4"/>  </g>  <g id="Polygon155523">    <path d="M 7.4 59.2 L 7.4 64.7 L 5.8 64.7 L 5.8 59.2 L 0.9 59.2 L 0.9 57.6 L 5.8 57.6 L 5.8 52.3 L 7.4 52.3 L 7.4 57.6 L 12.3 57.6 L 12.3 59.2 L 7.4 59.2 Z M 0.9 68 L 0.9 66.5 L 12.3 66.5 L 12.3 68 L 0.9 68 Z M 21.2 65.8 C 21.2 65.8 22.8 64.4 22.8 64.4 C 23.7 66 25 66.9 27 66.9 C 29.2 66.9 30.6 64.9 30.6 62.6 C 30.6 59.7 29.2 58.2 27.1 58.2 C 25.7 58.2 24.6 58.7 23.5 60 C 23.52 60.03 21.7 59.4 21.7 59.4 L 21.7 48.7 L 31.9 48.7 L 31.9 50.8 L 24.1 50.8 C 24.1 50.8 24.12 57.81 24.1 57.8 C 24.9 56.9 26.2 56.1 27.8 56.1 C 30.7 56.1 33 58.4 33 62.5 C 33 66.3 30.5 69.1 27.1 69.1 C 24.1 69.1 22.4 67.8 21.2 65.8 Z M 35.8 58.7 C 35.8 53.9 37.3 48.4 42 48.4 C 46.7 48.4 48.3 53.9 48.3 58.7 C 48.3 63.5 46.7 69.1 42 69.1 C 37.3 69.1 35.8 63.5 35.8 58.7 Z M 45.9 58.7 C 45.9 54.8 45.1 50.5 42 50.5 C 39 50.5 38.2 54.8 38.2 58.7 C 38.2 62.6 38.9 66.9 42 66.9 C 45.1 66.9 45.9 62.6 45.9 58.7 Z M 57.4 61.4 C 57.4 57.2 59.7 53.9 63.4 53.9 C 65.4 53.9 66.7 54.7 67.6 55.8 C 67.6 55.8 66.4 57.2 66.4 57.2 C 65.6 56.2 64.7 55.8 63.6 55.8 C 61 55.8 59.7 58.4 59.7 61.4 C 59.7 64.5 61 67.1 63.6 67.1 C 64.7 67.1 65.6 66.7 66.4 65.7 C 66.4 65.7 67.6 67.1 67.6 67.1 C 66.7 68.3 65.4 69.1 63.4 69.1 C 59.7 69.1 57.4 65.7 57.4 61.4 Z M 85 68.7 C 85 68.7 84.96 58.2 85 58.2 C 85 56.6 84.3 55.8 82.9 55.8 C 81.7 55.8 80.4 56.9 79.8 58.1 C 79.8 58.08 79.8 68.7 79.8 68.7 L 77.6 68.7 C 77.6 68.7 77.64 58.2 77.6 58.2 C 77.6 56.6 77 55.8 75.6 55.8 C 74.3 55.8 73.1 56.9 72.4 58.1 C 72.45 58.08 72.4 68.7 72.4 68.7 L 70.3 68.7 L 70.3 54.2 L 72.4 54.2 C 72.4 54.2 72.45 56.28 72.4 56.3 C 73 55.2 74.7 53.9 76.4 53.9 C 78.3 53.9 79.4 54.9 79.7 56.4 C 80.4 55.1 82 53.9 83.8 53.9 C 85.9 53.9 87.1 55 87.1 57.6 C 87.12 57.63 87.1 68.7 87.1 68.7 L 85 68.7 Z " stroke="none" fill="#d0d1d4"/>  </g>  <g id="Polygon155522">    <path d="M 5 32.7 L 5 15.8 L 1.9 19.1 L 0.4 17.6 L 5.3 12.7 L 7.3 12.7 L 7.3 32.7 L 5 32.7 Z M 20 30.6 C 20.01 30.6 20 38.2 20 38.2 L 17.9 38.2 L 17.9 18.2 L 20 18.2 C 20 18.2 20.01 20.28 20 20.3 C 20.8 18.8 22.3 17.9 23.8 17.9 C 27.1 17.9 29 20.9 29 25.4 C 29 30 27.1 33.1 23.8 33.1 C 22.3 33.1 20.9 32.2 20 30.6 Z M 26.8 25.4 C 26.8 22.3 25.6 19.8 23.3 19.8 C 21.9 19.8 20.6 20.9 20 22.1 C 20 22.1 20 28.7 20 28.7 C 20.6 30 21.9 31.1 23.3 31.1 C 25.6 31.1 26.8 28.6 26.8 25.4 Z M 31.5 25.4 C 31.5 21.2 33.8 17.9 37.5 17.9 C 39.5 17.9 40.7 18.7 41.6 19.8 C 41.6 19.8 40.5 21.2 40.5 21.2 C 39.7 20.2 38.8 19.8 37.7 19.8 C 35.1 19.8 33.7 22.4 33.7 25.4 C 33.7 28.5 35.1 31.1 37.7 31.1 C 38.8 31.1 39.7 30.7 40.5 29.7 C 40.5 29.7 41.6 31.1 41.6 31.1 C 40.7 32.3 39.5 33.1 37.5 33.1 C 33.8 33.1 31.5 29.7 31.5 25.4 Z M 53.8 38.7 C 51.5 34.8 50.2 30.2 50.2 25.4 C 50.2 20.6 51.5 16.1 53.8 12.2 C 53.8 12.2 55.2 13 55.2 13 C 53.6 16.8 52.6 20.4 52.6 25.4 C 52.6 30.4 53.6 34.1 55.2 37.8 C 55.2 37.8 53.8 38.7 53.8 38.7 Z M 57.7 32.7 L 57.7 12.7 L 59.8 12.7 L 59.8 32.7 L 57.7 32.7 Z M 71.2 32.7 C 71.2 32.7 71.25 31.14 71.2 31.1 C 70.3 32.5 68.9 33.1 67.4 33.1 C 65.1 33.1 63.1 31.3 63.1 28.2 C 63.1 25.2 65.1 23.5 67.4 23.5 C 68.9 23.5 70.3 24 71.2 25.3 C 71.2 25.3 71.2 22.8 71.2 22.8 C 71.2 20.8 70.2 19.7 68.3 19.7 C 66.9 19.7 65.8 20.2 64.6 21.5 C 64.6 21.5 63.7 20 63.7 20 C 65.1 18.5 66.8 17.9 68.6 17.9 C 71.5 17.9 73.4 19.3 73.4 22.6 C 73.41 22.56 73.4 32.7 73.4 32.7 L 71.2 32.7 Z M 71.2 29.7 C 71.2 29.7 71.2 26.9 71.2 26.9 C 70.6 25.7 69.4 25.1 68.1 25.1 C 66.3 25.1 65.2 26.5 65.2 28.3 C 65.2 30.1 66.3 31.5 68.1 31.5 C 69.4 31.5 70.6 30.9 71.2 29.7 Z M 77.3 32.7 L 77.3 18.2 L 79.5 18.2 C 79.5 18.2 79.47 20.52 79.5 20.5 C 80.4 19 81.8 17.9 83.6 17.9 C 83.6 17.9 83.6 20.1 83.6 20.1 C 83.3 20.1 83.1 20 82.9 20 C 81.5 20 80.1 21.2 79.5 22.4 C 79.47 22.41 79.5 32.7 79.5 32.7 L 77.3 32.7 Z M 85.9 36.8 C 85.9 36.8 86.9 35.1 86.9 35.1 C 87.9 36.2 89.1 36.8 90.7 36.8 C 92.7 36.8 94.3 35.6 94.3 32.8 C 94.3 32.8 94.3 30.4 94.3 30.4 C 93.5 31.9 92.1 32.9 90.5 32.9 C 87.3 32.9 85.3 29.9 85.3 25.4 C 85.3 20.9 87.3 17.9 90.5 17.9 C 92 17.9 93.4 18.7 94.3 20.3 C 94.35 20.31 94.3 18.2 94.3 18.2 L 96.5 18.2 C 96.5 18.2 96.51 32.67 96.5 32.7 C 96.5 37.1 93.8 38.6 90.8 38.6 C 88.8 38.6 87.3 38.1 85.9 36.8 Z M 94.3 28.6 C 94.3 28.6 94.3 22.1 94.3 22.1 C 93.8 20.9 92.5 19.8 91.1 19.8 C 88.7 19.8 87.6 22.3 87.6 25.4 C 87.6 28.5 88.7 31 91.1 31 C 92.5 31 93.8 29.8 94.3 28.6 Z M 99.7 25.4 C 99.7 21.2 101.9 17.9 105.6 17.9 C 109.4 17.9 111.3 21.3 111.3 25.5 C 111.33 25.5 111.3 26.2 111.3 26.2 C 111.3 26.2 101.94 26.16 101.9 26.2 C 102 29.1 103.5 31.3 106.1 31.3 C 107.4 31.3 108.7 30.6 109.6 29.5 C 109.6 29.5 110.7 30.8 110.7 30.8 C 109.5 32.2 107.9 33.1 105.9 33.1 C 102.1 33.1 99.7 29.9 99.7 25.4 Z M 105.6 19.7 C 103 19.7 102 22.4 101.9 24.6 C 101.9 24.6 109.2 24.6 109.2 24.6 C 109.2 22.4 108.2 19.7 105.6 19.7 Z M 113 37.8 C 114.6 34.1 115.6 30.4 115.6 25.4 C 115.6 20.4 114.6 16.8 113 13 C 113 13 114.4 12.2 114.4 12.2 C 116.7 16.1 118 20.6 118 25.4 C 118 30.2 116.7 34.8 114.4 38.7 C 114.4 38.7 113 37.8 113 37.8 Z " stroke="none" fill="#d0d1d4"/>  </g></svg>