<?xml version="1.0" standalone="no"?><!DOCTYPE svg PUBLIC "-//W3C//DTD SVG 1.1//EN" "http://www.w3.org/Graphics/SVG/1.1/DTD/svg11.dtd"><svg xmlns="http://www.w3.org/2000/svg" version="1.1" width="219px" height="403.3px" viewBox="0 0 219 403.3">  <desc>2402 03 11 29 55 62 44 92 169 58 2991 90 121 99 49 57 3 60 152 48 121 34</desc>  <defs/>  <g id="Polygon219978">    <path d="M 155.4 384.4 L 155.4 367.5 L 152.3 370.8 L 150.8 369.3 L 155.6 364.4 L 157.7 364.4 L 157.7 384.4 L 155.4 384.4 Z M 161.4 384.4 C 161.4 384.4 161.42 382.43 161.4 382.4 C 168 374.9 170.2 372.5 170.2 369.5 C 170.2 367.4 168.7 366.2 167 366.2 C 165.1 366.2 163.7 367.1 162.8 368.7 C 162.8 368.7 161.2 367.3 161.2 367.3 C 162.5 365.2 164.5 364.1 167 364.1 C 170.1 364.1 172.6 366 172.6 369.5 C 172.6 372.9 170.1 375.9 164.8 382.2 C 164.81 382.25 172.7 382.2 172.7 382.2 L 172.7 384.4 L 161.4 384.4 Z M 179.5 384.4 L 179.5 367.5 L 176.4 370.8 L 174.9 369.3 L 179.7 364.4 L 181.8 364.4 L 181.8 384.4 L 179.5 384.4 Z M 185.8 383.1 C 185.8 382.2 186.5 381.5 187.4 381.5 C 188.2 381.5 189 382.2 189 383.1 C 189 384 188.2 384.7 187.4 384.7 C 186.5 384.7 185.8 384 185.8 383.1 Z M 191.7 381.4 C 191.7 381.4 193.2 380 193.2 380 C 194.1 381.5 195.6 382.6 197.5 382.6 C 199.9 382.6 201.1 381.1 201.1 378.8 C 201.1 376.1 199.4 375.2 197.3 375.2 C 196.7 375.2 196 375.2 195.7 375.2 C 195.7 375.2 195.7 373 195.7 373 C 196 373.1 196.8 373.1 197.3 373.1 C 199.3 373.1 200.9 372 200.9 369.7 C 200.9 367.3 199.5 366.2 197.4 366.2 C 195.7 366.2 194.4 367.1 193.4 368.6 C 193.4 368.6 191.9 367.2 191.9 367.2 C 193.1 365.3 195.1 364.1 197.6 364.1 C 200.8 364.1 203.3 365.8 203.3 369.4 C 203.3 371.9 201.5 373.6 199.7 374 C 201.5 374.3 203.5 376.1 203.5 379 C 203.5 382.3 201.4 384.7 197.6 384.7 C 194.7 384.7 192.7 383.2 191.7 381.4 Z M 213.6 384.4 L 213.6 379.2 L 205.7 379.2 L 205.7 377.2 L 212.9 364.4 L 216 364.4 L 216 377.1 L 218.1 377.1 L 218.1 379.2 L 216 379.2 L 216 384.4 L 213.6 384.4 Z M 213.6 366.9 L 207.9 377.1 L 213.6 377.1 L 213.6 366.9 Z " stroke="none" fill="#d0d1d4"/>  </g>  <g id="Polygon219977">    <path d="M 149.7 348.4 L 149.7 331.5 L 146.6 334.8 L 145.2 333.3 L 150 328.4 L 152.1 328.4 L 152.1 348.4 L 149.7 348.4 Z M 155.7 345.5 C 155.7 345.5 157.3 344 157.3 344 C 158.3 345.7 159.6 346.6 161.5 346.6 C 163.7 346.6 165.1 344.6 165.1 342.3 C 165.1 339.4 163.8 337.8 161.7 337.8 C 160.3 337.8 159.2 338.4 158.1 339.7 C 158.06 339.71 156.3 339.1 156.3 339.1 L 156.3 328.4 L 166.5 328.4 L 166.5 330.5 L 158.7 330.5 C 158.7 330.5 158.66 337.49 158.7 337.5 C 159.4 336.5 160.8 335.7 162.3 335.7 C 165.2 335.7 167.5 338 167.5 342.2 C 167.5 346 165.1 348.7 161.6 348.7 C 158.7 348.7 156.9 347.5 155.7 345.5 Z M 170.5 348.4 C 170.5 348.4 170.48 346.43 170.5 346.4 C 177 338.9 179.3 336.5 179.3 333.5 C 179.3 331.4 177.8 330.2 176.1 330.2 C 174.2 330.2 172.8 331.1 171.8 332.7 C 171.8 332.7 170.3 331.3 170.3 331.3 C 171.6 329.2 173.5 328.1 176.1 328.1 C 179.1 328.1 181.7 330 181.7 333.5 C 181.7 336.9 179.2 339.9 173.9 346.2 C 173.87 346.25 181.8 346.2 181.8 346.2 L 181.8 348.4 L 170.5 348.4 Z M 185.4 347.1 C 185.4 346.2 186.1 345.5 187 345.5 C 187.8 345.5 188.6 346.2 188.6 347.1 C 188.6 348 187.8 348.7 187 348.7 C 186.1 348.7 185.4 348 185.4 347.1 Z M 199 348.4 L 199 343.2 L 191.1 343.2 L 191.1 341.2 L 198.3 328.4 L 201.4 328.4 L 201.4 341.1 L 203.6 341.1 L 203.6 343.2 L 201.4 343.2 L 201.4 348.4 L 199 348.4 Z M 199 330.9 L 193.3 341.1 L 199 341.1 L 199 330.9 Z M 205.6 343.5 C 205.6 340.8 207.6 338.8 209.6 338.1 C 207.8 337.4 205.9 335.7 205.9 333.2 C 205.9 329.7 208.7 328.1 211.5 328.1 C 214.4 328.1 217.2 329.7 217.2 333.2 C 217.2 335.7 215.3 337.4 213.5 338.1 C 215.5 338.8 217.5 340.8 217.5 343.4 C 217.5 346.7 215 348.7 211.5 348.7 C 208 348.7 205.6 346.7 205.6 343.5 Z M 214.8 333.5 C 214.8 331.5 213.5 330.2 211.5 330.2 C 209.6 330.2 208.3 331.5 208.3 333.5 C 208.3 335.9 210.8 336.9 211.5 337.2 C 212.3 336.9 214.8 335.9 214.8 333.5 Z M 215.1 343.2 C 215.1 340.5 212.4 339.2 211.5 339 C 210.7 339.2 208 340.5 208 343.2 C 208 345.3 209.6 346.6 211.5 346.6 C 213.5 346.6 215.1 345.3 215.1 343.2 Z " stroke="none" fill="#d0d1d4"/>  </g>  <g id="Polygon219976">    <path d="M 168.6 309.4 C 168.6 309.4 170.1 308 170.1 308 C 171 309.5 172.5 310.6 174.4 310.6 C 176.8 310.6 178 309.1 178 306.8 C 178 304.1 176.3 303.2 174.2 303.2 C 173.6 303.2 172.9 303.2 172.6 303.2 C 172.6 303.2 172.6 301 172.6 301 C 172.9 301.1 173.7 301.1 174.2 301.1 C 176.2 301.1 177.8 300 177.8 297.7 C 177.8 295.3 176.4 294.2 174.3 294.2 C 172.6 294.2 171.3 295.1 170.3 296.6 C 170.3 296.6 168.8 295.2 168.8 295.2 C 170 293.3 172 292.1 174.5 292.1 C 177.7 292.1 180.2 293.8 180.2 297.4 C 180.2 299.9 178.4 301.6 176.6 302 C 178.4 302.3 180.4 304.1 180.4 307 C 180.4 310.3 178.3 312.7 174.5 312.7 C 171.6 312.7 169.6 311.2 168.6 309.4 Z M 183.7 311.1 C 183.7 310.2 184.4 309.5 185.3 309.5 C 186.2 309.5 186.9 310.2 186.9 311.1 C 186.9 312 186.2 312.7 185.3 312.7 C 184.4 312.7 183.7 312 183.7 311.1 Z M 190.1 302.4 C 190.1 297 192 292.1 196.9 292.1 C 199 292.1 200.6 293.1 201.6 294.6 C 201.6 294.6 200.2 296.2 200.2 296.2 C 199.5 295 198.6 294.2 196.9 294.2 C 193.7 294.2 192.5 298.4 192.5 302.2 C 192.5 302.4 192.5 302.5 192.6 302.8 C 193.2 301.4 194.9 299.8 197 299.8 C 199.9 299.8 202.2 302 202.2 306.2 C 202.2 309.6 200.1 312.7 196.5 312.7 C 191.7 312.7 190.1 307.7 190.1 302.4 Z M 199.8 306.3 C 199.8 303.1 198.3 301.9 196.4 301.9 C 194.7 301.9 193.3 303.3 192.6 305 C 192.7 307.2 193.5 310.6 196.3 310.6 C 198.7 310.6 199.8 308.4 199.8 306.3 Z M 204.9 302.4 C 204.9 297.6 206.5 292.1 211.2 292.1 C 215.8 292.1 217.4 297.6 217.4 302.4 C 217.4 307.2 215.8 312.7 211.2 312.7 C 206.5 312.7 204.9 307.2 204.9 302.4 Z M 215 302.4 C 215 298.4 214.2 294.2 211.2 294.2 C 208.1 294.2 207.3 298.4 207.3 302.4 C 207.3 306.3 208.1 310.6 211.2 310.6 C 214.2 310.6 215 306.3 215 302.4 Z " stroke="none" fill="#d0d1d4"/>  </g>  <g id="Polygon219975">    <path d="M 164.6 276.4 L 164.6 271.2 L 156.7 271.2 L 156.7 269.2 L 163.9 256.4 L 167 256.4 L 167 269.1 L 169.2 269.1 L 169.2 271.2 L 167 271.2 L 167 276.4 L 164.6 276.4 Z M 164.6 258.9 L 158.9 269.1 L 164.6 269.1 L 164.6 258.9 Z M 171.8 274.2 C 171.8 274.2 173.1 272.5 173.1 272.5 C 173.8 273.8 174.8 274.6 176.4 274.6 C 179.7 274.6 180.8 270.3 180.8 266.6 C 180.8 266.3 180.8 266.2 180.8 266 C 180.1 267.4 178.4 268.9 176.4 268.9 C 173.4 268.9 171.1 266.8 171.1 262.5 C 171.1 259.2 173.2 256 176.9 256 C 181.6 256 183.2 261 183.2 266.4 C 183.2 271.8 181.2 276.7 176.4 276.7 C 174.3 276.7 172.8 275.7 171.8 274.2 Z M 180.7 263.8 C 180.6 261.6 179.8 258.2 177 258.2 C 174.6 258.2 173.5 260.4 173.5 262.5 C 173.5 265.7 175.1 266.9 177 266.9 C 178.6 266.9 180 265.4 180.7 263.8 Z M 186.4 275.1 C 186.4 274.2 187.2 273.5 188 273.5 C 188.9 273.5 189.6 274.2 189.6 275.1 C 189.6 276 188.9 276.7 188 276.7 C 187.2 276.7 186.4 276 186.4 275.1 Z M 193 273.5 C 193 273.5 194.6 272 194.6 272 C 195.6 273.7 196.9 274.6 198.8 274.6 C 201 274.6 202.4 272.6 202.4 270.3 C 202.4 267.4 201 265.8 199 265.8 C 197.6 265.8 196.5 266.4 195.3 267.7 C 195.34 267.71 193.6 267.1 193.6 267.1 L 193.6 256.4 L 203.8 256.4 L 203.8 258.5 L 195.9 258.5 C 195.9 258.5 195.94 265.49 195.9 265.5 C 196.7 264.5 198 263.7 199.6 263.7 C 202.5 263.7 204.8 266 204.8 270.2 C 204.8 274 202.4 276.7 198.9 276.7 C 195.9 276.7 194.2 275.5 193 273.5 Z M 209.1 276.4 L 215.4 258.5 L 207 258.5 L 207 256.4 L 218.1 256.4 L 218.1 258 L 211.7 276.4 L 209.1 276.4 Z " stroke="none" fill="#d0d1d4"/>  </g>  <g id="Polygon219974">    <path d="M 153.9 240.4 L 153.9 223.5 L 150.8 226.8 L 149.4 225.3 L 154.2 220.4 L 156.3 220.4 L 156.3 240.4 L 153.9 240.4 Z M 159.9 240.4 C 159.9 240.4 159.95 238.43 159.9 238.4 C 166.5 230.9 168.7 228.5 168.7 225.5 C 168.7 223.4 167.2 222.2 165.5 222.2 C 163.6 222.2 162.3 223.1 161.3 224.7 C 161.3 224.7 159.7 223.3 159.7 223.3 C 161.1 221.2 163 220.1 165.6 220.1 C 168.6 220.1 171.2 222 171.2 225.5 C 171.2 228.9 168.6 231.9 163.3 238.2 C 163.34 238.25 171.3 238.2 171.3 238.2 L 171.3 240.4 L 159.9 240.4 Z M 178 240.4 L 178 223.5 L 174.9 226.8 L 173.5 225.3 L 178.3 220.4 L 180.4 220.4 L 180.4 240.4 L 178 240.4 Z M 184.3 239.1 C 184.3 238.2 185 237.5 185.9 237.5 C 186.8 237.5 187.5 238.2 187.5 239.1 C 187.5 240 186.8 240.7 185.9 240.7 C 185 240.7 184.3 240 184.3 239.1 Z M 191.2 238.2 C 191.2 238.2 192.6 236.5 192.6 236.5 C 193.3 237.8 194.2 238.6 195.9 238.6 C 199.1 238.6 200.2 234.3 200.2 230.6 C 200.2 230.3 200.2 230.2 200.2 230 C 199.5 231.4 197.9 232.9 195.8 232.9 C 192.9 232.9 190.6 230.8 190.6 226.5 C 190.6 223.2 192.6 220 196.3 220 C 201.1 220 202.7 225 202.7 230.4 C 202.7 235.8 200.7 240.7 195.9 240.7 C 193.8 240.7 192.2 239.7 191.2 238.2 Z M 200.2 227.8 C 200.1 225.6 199.3 222.2 196.5 222.2 C 194.1 222.2 193 224.4 193 226.5 C 193 229.7 194.5 230.9 196.4 230.9 C 198.1 230.9 199.5 229.4 200.2 227.8 Z M 206 238.2 C 206 238.2 207.3 236.5 207.3 236.5 C 208.1 237.8 209 238.6 210.6 238.6 C 213.9 238.6 215 234.3 215 230.6 C 215 230.3 215 230.2 215 230 C 214.3 231.4 212.7 232.9 210.6 232.9 C 207.7 232.9 205.3 230.8 205.3 226.5 C 205.3 223.2 207.4 220 211.1 220 C 215.9 220 217.4 225 217.4 230.4 C 217.4 235.8 215.5 240.7 210.6 240.7 C 208.5 240.7 207 239.7 206 238.2 Z M 214.9 227.8 C 214.8 225.6 214 222.2 211.2 222.2 C 208.8 222.2 207.8 224.4 207.8 226.5 C 207.8 229.7 209.3 230.9 211.2 230.9 C 212.9 230.9 214.2 229.4 214.9 227.8 Z " stroke="none" fill="#d0d1d4"/>  </g>  <g id="Polygon219973">    <path d="M 129.8 204.4 C 129.8 204.4 129.83 202.43 129.8 202.4 C 136.4 194.9 138.6 192.5 138.6 189.5 C 138.6 187.4 137.1 186.2 135.4 186.2 C 133.5 186.2 132.1 187.1 131.2 188.7 C 131.2 188.7 129.6 187.3 129.6 187.3 C 130.9 185.2 132.9 184.1 135.4 184.1 C 138.5 184.1 141 186 141 189.5 C 141 192.9 138.5 195.9 133.2 202.2 C 133.22 202.25 141.1 202.2 141.1 202.2 L 141.1 204.4 L 129.8 204.4 Z M 144.8 202.2 C 144.8 202.2 146.1 200.5 146.1 200.5 C 146.9 201.8 147.8 202.6 149.5 202.6 C 152.7 202.6 153.8 198.3 153.8 194.6 C 153.8 194.3 153.8 194.2 153.8 194 C 153.1 195.4 151.5 196.9 149.4 196.9 C 146.5 196.9 144.2 194.8 144.2 190.5 C 144.2 187.2 146.2 184 149.9 184 C 154.7 184 156.3 189 156.3 194.4 C 156.3 199.8 154.3 204.7 149.5 204.7 C 147.4 204.7 145.8 203.7 144.8 202.2 Z M 153.8 191.8 C 153.6 189.6 152.9 186.2 150 186.2 C 147.6 186.2 146.6 188.4 146.6 190.5 C 146.6 193.7 148.1 194.9 150 194.9 C 151.7 194.9 153 193.4 153.8 191.8 Z M 159.6 202.2 C 159.6 202.2 160.9 200.5 160.9 200.5 C 161.7 201.8 162.6 202.6 164.2 202.6 C 167.5 202.6 168.6 198.3 168.6 194.6 C 168.6 194.3 168.6 194.2 168.6 194 C 167.9 195.4 166.2 196.9 164.2 196.9 C 161.3 196.9 158.9 194.8 158.9 190.5 C 158.9 187.2 161 184 164.7 184 C 169.5 184 171 189 171 194.4 C 171 199.8 169.1 204.7 164.2 204.7 C 162.1 204.7 160.6 203.7 159.6 202.2 Z M 168.5 191.8 C 168.4 189.6 167.6 186.2 164.8 186.2 C 162.4 186.2 161.4 188.4 161.4 190.5 C 161.4 193.7 162.9 194.9 164.8 194.9 C 166.5 194.9 167.8 193.4 168.5 191.8 Z M 177.4 204.4 L 177.4 187.5 L 174.3 190.8 L 172.9 189.3 L 177.7 184.4 L 179.8 184.4 L 179.8 204.4 L 177.4 204.4 Z M 183.7 203.1 C 183.7 202.2 184.4 201.5 185.3 201.5 C 186.2 201.5 186.9 202.2 186.9 203.1 C 186.9 204 186.2 204.7 185.3 204.7 C 184.4 204.7 183.7 204 183.7 203.1 Z M 190.6 202.2 C 190.6 202.2 192 200.5 192 200.5 C 192.7 201.8 193.6 202.6 195.3 202.6 C 198.5 202.6 199.6 198.3 199.6 194.6 C 199.6 194.3 199.6 194.2 199.6 194 C 198.9 195.4 197.3 196.9 195.2 196.9 C 192.3 196.9 190 194.8 190 190.5 C 190 187.2 192 184 195.7 184 C 200.5 184 202.1 189 202.1 194.4 C 202.1 199.8 200.1 204.7 195.3 204.7 C 193.2 204.7 191.6 203.7 190.6 202.2 Z M 199.6 191.8 C 199.5 189.6 198.7 186.2 195.9 186.2 C 193.5 186.2 192.4 188.4 192.4 190.5 C 192.4 193.7 193.9 194.9 195.8 194.9 C 197.5 194.9 198.9 193.4 199.6 191.8 Z M 204.9 194.4 C 204.9 189.6 206.5 184.1 211.2 184.1 C 215.8 184.1 217.4 189.6 217.4 194.4 C 217.4 199.2 215.8 204.7 211.2 204.7 C 206.5 204.7 204.9 199.2 204.9 194.4 Z M 215 194.4 C 215 190.4 214.2 186.2 211.2 186.2 C 208.1 186.2 207.3 190.4 207.3 194.4 C 207.3 198.3 208.1 202.6 211.2 202.6 C 214.2 202.6 215 198.3 215 194.4 Z " stroke="none" fill="#d0d1d4"/>  </g>  <g id="Polygon219972">    <path d="M 148.7 168.4 L 148.7 151.5 L 145.6 154.8 L 144.2 153.3 L 149 148.4 L 151.1 148.4 L 151.1 168.4 L 148.7 168.4 Z M 154.6 158.4 C 154.6 153 156.5 148.1 161.3 148.1 C 163.4 148.1 165 149.1 166 150.6 C 166 150.6 164.7 152.2 164.7 152.2 C 163.9 151 163 150.2 161.4 150.2 C 158.2 150.2 157 154.4 157 158.2 C 157 158.4 157 158.5 157 158.8 C 157.7 157.4 159.3 155.8 161.4 155.8 C 164.3 155.8 166.7 158 166.7 162.2 C 166.7 165.6 164.6 168.7 160.9 168.7 C 156.1 168.7 154.6 163.7 154.6 158.4 Z M 164.2 162.3 C 164.2 159.1 162.7 157.9 160.8 157.9 C 159.1 157.9 157.8 159.3 157 161 C 157.2 163.2 158 166.6 160.8 166.6 C 163.2 166.6 164.2 164.4 164.2 162.3 Z M 169.8 166.2 C 169.8 166.2 171.2 164.5 171.2 164.5 C 171.9 165.8 172.8 166.6 174.5 166.6 C 177.7 166.6 178.8 162.3 178.8 158.6 C 178.8 158.3 178.8 158.2 178.8 158 C 178.2 159.4 176.5 160.9 174.4 160.9 C 171.5 160.9 169.2 158.8 169.2 154.5 C 169.2 151.2 171.3 148 174.9 148 C 179.7 148 181.3 153 181.3 158.4 C 181.3 163.8 179.3 168.7 174.5 168.7 C 172.4 168.7 170.8 167.7 169.8 166.2 Z M 178.8 155.8 C 178.7 153.6 177.9 150.2 175.1 150.2 C 172.7 150.2 171.6 152.4 171.6 154.5 C 171.6 157.7 173.1 158.9 175 158.9 C 176.7 158.9 178.1 157.4 178.8 155.8 Z M 184.5 167.1 C 184.5 166.2 185.2 165.5 186.1 165.5 C 187 165.5 187.7 166.2 187.7 167.1 C 187.7 168 187 168.7 186.1 168.7 C 185.2 168.7 184.5 168 184.5 167.1 Z M 191.1 165.5 C 191.1 165.5 192.7 164 192.7 164 C 193.6 165.7 195 166.6 196.9 166.6 C 199.1 166.6 200.5 164.6 200.5 162.3 C 200.5 159.4 199.1 157.8 197.1 157.8 C 195.6 157.8 194.5 158.4 193.4 159.7 C 193.42 159.71 191.7 159.1 191.7 159.1 L 191.7 148.4 L 201.9 148.4 L 201.9 150.5 L 194 150.5 C 194 150.5 194.02 157.49 194 157.5 C 194.8 156.5 196.1 155.7 197.7 155.7 C 200.6 155.7 202.9 158 202.9 162.2 C 202.9 166 200.4 168.7 197 168.7 C 194 168.7 192.3 167.5 191.1 165.5 Z M 205.6 163.5 C 205.6 160.8 207.6 158.8 209.6 158.1 C 207.8 157.4 205.9 155.7 205.9 153.2 C 205.9 149.7 208.7 148.1 211.5 148.1 C 214.4 148.1 217.2 149.7 217.2 153.2 C 217.2 155.7 215.3 157.4 213.5 158.1 C 215.5 158.8 217.5 160.8 217.5 163.4 C 217.5 166.7 215 168.7 211.5 168.7 C 208 168.7 205.6 166.7 205.6 163.5 Z M 214.8 153.5 C 214.8 151.5 213.5 150.2 211.5 150.2 C 209.6 150.2 208.3 151.5 208.3 153.5 C 208.3 155.9 210.8 156.9 211.5 157.2 C 212.3 156.9 214.8 155.9 214.8 153.5 Z M 215.1 163.2 C 215.1 160.5 212.4 159.2 211.5 159 C 210.7 159.2 208 160.5 208 163.2 C 208 165.3 209.6 166.6 211.5 166.6 C 213.5 166.6 215.1 165.3 215.1 163.2 Z " stroke="none" fill="#d0d1d4"/>  </g>  <g id="Polygon219971">    <path d="M 163.5 132.4 L 163.5 127.2 L 155.5 127.2 L 155.5 125.2 L 162.8 112.4 L 165.8 112.4 L 165.8 125.1 L 168 125.1 L 168 127.2 L 165.8 127.2 L 165.8 132.4 L 163.5 132.4 Z M 163.5 114.9 L 157.7 125.1 L 163.5 125.1 L 163.5 114.9 Z M 177.3 132.4 L 177.3 127.2 L 169.4 127.2 L 169.4 125.2 L 176.6 112.4 L 179.7 112.4 L 179.7 125.1 L 181.9 125.1 L 181.9 127.2 L 179.7 127.2 L 179.7 132.4 L 177.3 132.4 Z M 177.3 114.9 L 171.6 125.1 L 177.3 125.1 L 177.3 114.9 Z M 184.4 131.1 C 184.4 130.2 185.1 129.5 186 129.5 C 186.9 129.5 187.6 130.2 187.6 131.1 C 187.6 132 186.9 132.7 186 132.7 C 185.1 132.7 184.4 132 184.4 131.1 Z M 191.3 130.2 C 191.3 130.2 192.6 128.5 192.6 128.5 C 193.4 129.8 194.3 130.6 196 130.6 C 199.2 130.6 200.3 126.3 200.3 122.6 C 200.3 122.3 200.3 122.2 200.3 122 C 199.6 123.4 198 124.9 195.9 124.9 C 193 124.9 190.7 122.8 190.7 118.5 C 190.7 115.2 192.7 112 196.4 112 C 201.2 112 202.8 117 202.8 122.4 C 202.8 127.8 200.8 132.7 196 132.7 C 193.9 132.7 192.3 131.7 191.3 130.2 Z M 200.3 119.8 C 200.1 117.6 199.4 114.2 196.5 114.2 C 194.1 114.2 193.1 116.4 193.1 118.5 C 193.1 121.7 194.6 122.9 196.5 122.9 C 198.2 122.9 199.5 121.4 200.3 119.8 Z M 205.8 132.4 C 205.8 132.4 205.75 130.43 205.8 130.4 C 212.3 122.9 214.5 120.5 214.5 117.5 C 214.5 115.4 213 114.2 211.3 114.2 C 209.4 114.2 208.1 115.1 207.1 116.7 C 207.1 116.7 205.5 115.3 205.5 115.3 C 206.9 113.2 208.8 112.1 211.4 112.1 C 214.4 112.1 217 114 217 117.5 C 217 120.9 214.5 123.9 209.1 130.2 C 209.14 130.25 217.1 130.2 217.1 130.2 L 217.1 132.4 L 205.8 132.4 Z " stroke="none" fill="#d0d1d4"/>  </g>  <g id="Polygon219970">    <path d="M 154.7 93.5 C 154.7 93.5 156.3 92 156.3 92 C 157.2 93.7 158.5 94.6 160.5 94.6 C 162.7 94.6 164.1 92.6 164.1 90.3 C 164.1 87.4 162.7 85.8 160.6 85.8 C 159.2 85.8 158.1 86.4 157 87.7 C 157.01 87.71 155.2 87.1 155.2 87.1 L 155.2 76.4 L 165.4 76.4 L 165.4 78.5 L 157.6 78.5 C 157.6 78.5 157.61 85.49 157.6 85.5 C 158.4 84.5 159.7 83.7 161.3 83.7 C 164.2 83.7 166.5 86 166.5 90.2 C 166.5 94 164 96.7 160.5 96.7 C 157.6 96.7 155.9 95.5 154.7 93.5 Z M 169.4 93.5 C 169.4 93.5 171 92 171 92 C 171.9 93.7 173.3 94.6 175.2 94.6 C 177.4 94.6 178.8 92.6 178.8 90.3 C 178.8 87.4 177.4 85.8 175.4 85.8 C 174 85.8 172.8 86.4 171.7 87.7 C 171.74 87.71 170 87.1 170 87.1 L 170 76.4 L 180.2 76.4 L 180.2 78.5 L 172.3 78.5 C 172.3 78.5 172.34 85.49 172.3 85.5 C 173.1 84.5 174.4 83.7 176 83.7 C 178.9 83.7 181.2 86 181.2 90.2 C 181.2 94 178.8 96.7 175.3 96.7 C 172.3 96.7 170.6 95.5 169.4 93.5 Z M 184.4 95.1 C 184.4 94.2 185.1 93.5 186 93.5 C 186.9 93.5 187.6 94.2 187.6 95.1 C 187.6 96 186.9 96.7 186 96.7 C 185.1 96.7 184.4 96 184.4 95.1 Z M 190.8 86.4 C 190.8 81 192.7 76.1 197.6 76.1 C 199.7 76.1 201.3 77.1 202.2 78.6 C 202.2 78.6 200.9 80.2 200.9 80.2 C 200.2 79 199.2 78.2 197.6 78.2 C 194.4 78.2 193.2 82.4 193.2 86.2 C 193.2 86.4 193.2 86.5 193.2 86.8 C 193.9 85.4 195.6 83.8 197.7 83.8 C 200.6 83.8 202.9 86 202.9 90.2 C 202.9 93.6 200.8 96.7 197.1 96.7 C 192.4 96.7 190.8 91.7 190.8 86.4 Z M 200.5 90.3 C 200.5 87.1 198.9 85.9 197.1 85.9 C 195.4 85.9 194 87.3 193.3 89 C 193.4 91.2 194.2 94.6 197 94.6 C 199.4 94.6 200.5 92.4 200.5 90.3 Z M 205.8 96.4 C 205.8 96.4 205.75 94.43 205.8 94.4 C 212.3 86.9 214.5 84.5 214.5 81.5 C 214.5 79.4 213 78.2 211.3 78.2 C 209.4 78.2 208.1 79.1 207.1 80.7 C 207.1 80.7 205.5 79.3 205.5 79.3 C 206.9 77.2 208.8 76.1 211.4 76.1 C 214.4 76.1 217 78 217 81.5 C 217 84.9 214.5 87.9 209.1 94.2 C 209.14 94.25 217.1 94.2 217.1 94.2 L 217.1 96.4 L 205.8 96.4 Z " stroke="none" fill="#d0d1d4"/>  </g>  <g id="Polygon219969">    <path d="M 168.6 60.4 L 168.6 43.5 L 165.6 46.8 L 164.1 45.3 L 168.9 40.4 L 171 40.4 L 171 60.4 L 168.6 60.4 Z M 178.1 60.4 L 178.1 43.5 L 175 46.8 L 173.6 45.3 L 178.4 40.4 L 180.5 40.4 L 180.5 60.4 L 178.1 60.4 Z M 184.4 59.1 C 184.4 58.2 185.1 57.5 186 57.5 C 186.9 57.5 187.6 58.2 187.6 59.1 C 187.6 60 186.9 60.7 186 60.7 C 185.1 60.7 184.4 60 184.4 59.1 Z M 191 60.4 C 191 60.4 191 58.43 191 58.4 C 197.5 50.9 199.8 48.5 199.8 45.5 C 199.8 43.4 198.3 42.2 196.6 42.2 C 194.7 42.2 193.3 43.1 192.3 44.7 C 192.3 44.7 190.8 43.3 190.8 43.3 C 192.1 41.2 194.1 40.1 196.6 40.1 C 199.7 40.1 202.2 42 202.2 45.5 C 202.2 48.9 199.7 51.9 194.4 58.2 C 194.39 58.25 202.3 58.2 202.3 58.2 L 202.3 60.4 L 191 60.4 Z M 206 58.2 C 206 58.2 207.3 56.5 207.3 56.5 C 208.1 57.8 209 58.6 210.6 58.6 C 213.9 58.6 215 54.3 215 50.6 C 215 50.3 215 50.2 215 50 C 214.3 51.4 212.7 52.9 210.6 52.9 C 207.7 52.9 205.3 50.8 205.3 46.5 C 205.3 43.2 207.4 40 211.1 40 C 215.9 40 217.4 45 217.4 50.4 C 217.4 55.8 215.5 60.7 210.6 60.7 C 208.5 60.7 207 59.7 206 58.2 Z M 214.9 47.8 C 214.8 45.6 214 42.2 211.2 42.2 C 208.8 42.2 207.8 44.4 207.8 46.5 C 207.8 49.7 209.3 50.9 211.2 50.9 C 212.9 50.9 214.2 49.4 214.9 47.8 Z " stroke="none" fill="#d0d1d4"/>  </g>  <g id="Polygon219968">    <path d="M 125.5 24.4 C 125.5 24.4 125.48 22.43 125.5 22.4 C 132 14.9 134.3 12.5 134.3 9.5 C 134.3 7.4 132.8 6.2 131.1 6.2 C 129.2 6.2 127.8 7.1 126.8 8.7 C 126.8 8.7 125.3 7.3 125.3 7.3 C 126.6 5.2 128.5 4.1 131.1 4.1 C 134.1 4.1 136.7 6 136.7 9.5 C 136.7 12.9 134.2 15.9 128.9 22.2 C 128.87 22.25 136.8 22.2 136.8 22.2 L 136.8 24.4 L 125.5 24.4 Z M 147.2 24.4 L 147.2 19.2 L 139.2 19.2 L 139.2 17.2 L 146.5 4.4 L 149.5 4.4 L 149.5 17.1 L 151.7 17.1 L 151.7 19.2 L 149.5 19.2 L 149.5 24.4 L 147.2 24.4 Z M 147.2 6.9 L 141.4 17.1 L 147.2 17.1 L 147.2 6.9 Z M 153.8 14.4 C 153.8 9.6 155.4 4.1 160.1 4.1 C 164.8 4.1 166.4 9.6 166.4 14.4 C 166.4 19.2 164.8 24.7 160.1 24.7 C 155.4 24.7 153.8 19.2 153.8 14.4 Z M 163.9 14.4 C 163.9 10.4 163.2 6.2 160.1 6.2 C 157 6.2 156.3 10.4 156.3 14.4 C 156.3 18.3 157 22.6 160.1 22.6 C 163.2 22.6 163.9 18.3 163.9 14.4 Z M 169.4 24.4 C 169.4 24.4 169.37 22.43 169.4 22.4 C 175.9 14.9 178.2 12.5 178.2 9.5 C 178.2 7.4 176.7 6.2 174.9 6.2 C 173.1 6.2 171.7 7.1 170.7 8.7 C 170.7 8.7 169.2 7.3 169.2 7.3 C 170.5 5.2 172.4 4.1 175 4.1 C 178 4.1 180.6 6 180.6 9.5 C 180.6 12.9 178.1 15.9 172.8 22.2 C 172.76 22.25 180.7 22.2 180.7 22.2 L 180.7 24.4 L 169.4 24.4 Z M 184.3 23.1 C 184.3 22.2 185 21.5 185.9 21.5 C 186.7 21.5 187.5 22.2 187.5 23.1 C 187.5 24 186.7 24.7 185.9 24.7 C 185 24.7 184.3 24 184.3 23.1 Z M 190.7 14.4 C 190.7 9.6 192.3 4.1 197 4.1 C 201.6 4.1 203.2 9.6 203.2 14.4 C 203.2 19.2 201.6 24.7 197 24.7 C 192.3 24.7 190.7 19.2 190.7 14.4 Z M 200.8 14.4 C 200.8 10.4 200.1 6.2 197 6.2 C 193.9 6.2 193.2 10.4 193.2 14.4 C 193.2 18.3 193.9 22.6 197 22.6 C 200.1 22.6 200.8 18.3 200.8 14.4 Z M 205.5 21.4 C 205.5 21.4 207.1 20 207.1 20 C 208 21.5 209.5 22.6 211.4 22.6 C 213.8 22.6 215 21.1 215 18.8 C 215 16.1 213.2 15.2 211.2 15.2 C 210.6 15.2 209.9 15.2 209.6 15.2 C 209.6 15.2 209.6 13 209.6 13 C 209.9 13.1 210.6 13.1 211.1 13.1 C 213.1 13.1 214.8 12 214.8 9.7 C 214.8 7.3 213.3 6.2 211.3 6.2 C 209.5 6.2 208.3 7.1 207.3 8.6 C 207.3 8.6 205.8 7.2 205.8 7.2 C 207 5.3 209 4.1 211.5 4.1 C 214.7 4.1 217.1 5.8 217.1 9.4 C 217.1 11.9 215.4 13.6 213.6 14 C 215.3 14.3 217.4 16.1 217.4 19 C 217.4 22.3 215.3 24.7 211.5 24.7 C 208.6 24.7 206.5 23.2 205.5 21.4 Z " stroke="none" fill="#d0d1d4"/>  </g></svg>