<?xml version="1.0" standalone="no"?><!DOCTYPE svg PUBLIC "-//W3C//DTD SVG 1.1//EN" "http://www.w3.org/Graphics/SVG/1.1/DTD/svg11.dtd"><svg xmlns="http://www.w3.org/2000/svg" version="1.1" width="162px" height="55px" viewBox="0 0 162 55">  <desc> </desc>  <defs/>  <g class="svg-textframe-underlines">    <rect class="svg-underline" x="12.1" y="21.9" width="137.8" height="1.2" style="fill:#b13d24;"/>  </g>  <g id="Polygon135156">    <path d="M 16.9 36 L 12.1 20 L 15.6 20 L 18.8 32.2 L 22 20 L 25.5 20 L 20.8 36 L 16.9 36 Z M 26.5 21.4 C 26.5 20.4 27.3 19.6 28.2 19.6 C 29.2 19.6 29.9 20.4 29.9 21.4 C 29.9 22.3 29.2 23.1 28.2 23.1 C 27.3 23.1 26.5 22.3 26.5 21.4 Z M 26.8 36 L 26.8 24.4 L 29.6 24.4 L 29.6 36 L 26.8 36 Z M 31.4 34.6 C 31.4 34.6 32.6 32.6 32.6 32.6 C 33.3 33.4 34.6 34 35.8 34 C 36.9 34 37.5 33.5 37.5 32.8 C 37.5 30.9 31.7 31.9 31.7 27.6 C 31.7 25.7 33.2 24.1 36 24.1 C 37.6 24.1 39 24.7 40 25.6 C 40 25.6 38.8 27.6 38.8 27.6 C 38.3 26.9 37.2 26.4 36 26.4 C 35.1 26.4 34.5 26.8 34.5 27.5 C 34.5 29.2 40.2 28.3 40.2 32.7 C 40.2 34.8 38.5 36.3 35.8 36.3 C 33.9 36.3 32.3 35.7 31.4 34.6 Z M 41.8 21.4 C 41.8 20.4 42.6 19.6 43.6 19.6 C 44.5 19.6 45.3 20.4 45.3 21.4 C 45.3 22.3 44.5 23.1 43.6 23.1 C 42.6 23.1 41.8 22.3 41.8 21.4 Z M 42.1 36 L 42.1 24.4 L 45 24.4 L 45 36 L 42.1 36 Z M 48.1 33.2 C 48.1 33.22 48.1 26.9 48.1 26.9 L 46.6 26.9 L 46.6 24.4 L 48.1 24.4 L 48.1 21.2 L 51 21.2 L 51 24.4 L 52.9 24.4 L 52.9 26.9 L 51 26.9 C 51 26.9 50.98 32.54 51 32.5 C 51 33.3 51.3 33.7 51.8 33.7 C 52.2 33.7 52.5 33.6 52.7 33.4 C 52.7 33.4 53.3 35.6 53.3 35.6 C 52.9 36 52.1 36.3 51.1 36.3 C 49 36.3 48.1 35.3 48.1 33.2 Z M 60.3 33.2 C 60.29 33.22 60.3 26.9 60.3 26.9 L 58.8 26.9 L 58.8 24.4 L 60.3 24.4 L 60.3 21.2 L 63.2 21.2 L 63.2 24.4 L 65.1 24.4 L 65.1 26.9 L 63.2 26.9 C 63.2 26.9 63.17 32.54 63.2 32.5 C 63.2 33.3 63.5 33.7 64 33.7 C 64.4 33.7 64.7 33.6 64.9 33.4 C 64.9 33.4 65.5 35.6 65.5 35.6 C 65 36 64.3 36.3 63.2 36.3 C 61.2 36.3 60.3 35.3 60.3 33.2 Z M 73.5 36 C 73.5 36 73.47 28.32 73.5 28.3 C 73.5 27.1 72.9 26.7 71.9 26.7 C 71 26.7 70.2 27.4 69.8 28.1 C 69.85 28.1 69.8 36 69.8 36 L 66.9 36 L 66.9 20 L 69.8 20 C 69.8 20 69.85 25.92 69.8 25.9 C 70.4 25 71.7 24.1 73.2 24.1 C 75.4 24.1 76.3 25.3 76.3 27.2 C 76.35 27.24 76.3 36 76.3 36 L 73.5 36 Z M 78.3 30.2 C 78.3 26.8 80.3 24.1 83.5 24.1 C 86.7 24.1 88.5 26.7 88.5 30.3 C 88.52 30.31 88.5 31.1 88.5 31.1 C 88.5 31.1 81.25 31.13 81.2 31.1 C 81.4 32.7 82.3 34 84.1 34 C 84.9 34 85.9 33.6 86.6 32.8 C 86.6 32.8 87.9 34.6 87.9 34.6 C 86.9 35.7 85.3 36.3 83.7 36.3 C 80.5 36.3 78.3 33.8 78.3 30.2 Z M 83.5 26.4 C 81.9 26.4 81.3 28 81.2 29.2 C 81.2 29.2 85.7 29.2 85.7 29.2 C 85.7 28 85.2 26.4 83.5 26.4 Z M 98.4 34.5 C 98.36 34.54 98.4 40.4 98.4 40.4 L 95.5 40.4 L 95.5 24.4 L 98.4 24.4 C 98.4 24.4 98.36 25.87 98.4 25.9 C 99.1 24.7 100.2 24.1 101.3 24.1 C 103.9 24.1 105.6 26.4 105.6 30.2 C 105.6 34 103.9 36.3 101.3 36.3 C 100.2 36.3 99.1 35.7 98.4 34.5 Z M 102.6 30.2 C 102.6 28.2 101.8 26.7 100.3 26.7 C 99.6 26.7 98.7 27.2 98.4 28 C 98.4 28 98.4 32.4 98.4 32.4 C 98.7 33.1 99.6 33.7 100.3 33.7 C 101.8 33.7 102.6 32.2 102.6 30.2 Z M 113.5 36 C 113.5 36 113.55 34.85 113.5 34.8 C 112.9 35.8 111.7 36.3 110.5 36.3 C 108.7 36.3 106.9 34.9 106.9 32.4 C 106.9 29.9 108.7 28.7 110.5 28.7 C 111.7 28.7 112.9 29.2 113.5 30 C 113.5 30 113.5 28.5 113.5 28.5 C 113.5 27.3 112.8 26.5 111.4 26.5 C 110.4 26.5 109.4 26.9 108.6 27.8 C 108.6 27.8 107.5 25.8 107.5 25.8 C 108.7 24.6 110.5 24.1 111.9 24.1 C 114.5 24.1 116.5 25.2 116.5 28.2 C 116.45 28.22 116.5 36 116.5 36 L 113.5 36 Z M 113.5 33.2 C 113.5 33.2 113.5 31.8 113.5 31.8 C 113.2 31.1 112.4 30.6 111.6 30.6 C 110.5 30.6 109.8 31.4 109.8 32.5 C 109.8 33.6 110.5 34.3 111.6 34.3 C 112.4 34.3 113.2 33.9 113.5 33.2 Z M 118.2 34.6 C 118.2 34.6 119.4 32.6 119.4 32.6 C 120.1 33.4 121.4 34 122.6 34 C 123.7 34 124.3 33.5 124.3 32.8 C 124.3 30.9 118.5 31.9 118.5 27.6 C 118.5 25.7 120.1 24.1 122.8 24.1 C 124.4 24.1 125.8 24.7 126.8 25.6 C 126.8 25.6 125.6 27.6 125.6 27.6 C 125.1 26.9 124 26.4 122.8 26.4 C 121.9 26.4 121.3 26.8 121.3 27.5 C 121.3 29.2 127 28.3 127 32.7 C 127 34.8 125.3 36.3 122.6 36.3 C 120.7 36.3 119.1 35.7 118.2 34.6 Z M 129.4 33.2 C 129.44 33.22 129.4 26.9 129.4 26.9 L 127.9 26.9 L 127.9 24.4 L 129.4 24.4 L 129.4 21.2 L 132.3 21.2 L 132.3 24.4 L 134.2 24.4 L 134.2 26.9 L 132.3 26.9 C 132.3 26.9 132.32 32.54 132.3 32.5 C 132.3 33.3 132.6 33.7 133.2 33.7 C 133.5 33.7 133.9 33.6 134 33.4 C 134 33.4 134.6 35.6 134.6 35.6 C 134.2 36 133.4 36.3 132.4 36.3 C 130.4 36.3 129.4 35.3 129.4 33.2 Z M 140.5 33.6 L 140.5 30.8 L 147.2 28.5 L 140.5 26.1 L 140.5 23.3 L 149.9 27 L 149.9 29.9 L 140.5 33.6 Z " stroke="none" fill="#b13d24"/>  </g></svg>