<?xml version="1.0" standalone="no"?><!DOCTYPE svg PUBLIC "-//W3C//DTD SVG 1.1//EN" "http://www.w3.org/Graphics/SVG/1.1/DTD/svg11.dtd"><svg xmlns="http://www.w3.org/2000/svg" version="1.1" width="494px" height="395.3px" viewBox="0 0 494 395.3">  <desc>Advantame monohydrate Alcanivorase extract Aspartame Ethyl maltol Ethylvanilin L-Threonine Phenyl benzaldehyde Sorbit</desc>  <defs/>  <g id="Polygon222983">    <path d="M 5.5 312.4 L 5.5 294.5 L 0.8 294.5 L 0.8 292.4 L 12.6 292.4 L 12.6 294.5 L 7.9 294.5 L 7.9 312.4 L 5.5 312.4 Z M 13.3 312.4 L 13.3 297.9 L 15.4 297.9 C 15.4 297.9 15.39 300.2 15.4 300.2 C 16.3 298.7 17.7 297.6 19.5 297.6 C 19.5 297.6 19.5 299.8 19.5 299.8 C 19.3 299.7 19 299.7 18.8 299.7 C 17.5 299.7 16 300.9 15.4 302.1 C 15.39 302.09 15.4 312.4 15.4 312.4 L 13.3 312.4 Z M 21.3 294.3 C 21.3 293.5 22 292.8 22.7 292.8 C 23.5 292.8 24.2 293.5 24.2 294.3 C 24.2 295.1 23.5 295.8 22.7 295.8 C 22 295.8 21.3 295.1 21.3 294.3 Z M 21.7 312.4 L 21.7 297.9 L 23.8 297.9 L 23.8 312.4 L 21.7 312.4 Z M 26.8 305.1 C 26.8 300.8 29 297.5 32.8 297.5 C 34.8 297.5 36 298.3 36.9 299.4 C 36.9 299.4 35.7 300.9 35.7 300.9 C 34.9 299.9 34 299.4 32.9 299.4 C 30.4 299.4 29 302 29 305.1 C 29 308.2 30.4 310.8 32.9 310.8 C 34 310.8 34.9 310.4 35.7 309.3 C 35.7 309.3 36.9 310.8 36.9 310.8 C 36 312 34.8 312.7 32.8 312.7 C 29 312.7 26.8 309.4 26.8 305.1 Z M 47.2 312.4 C 47.2 312.4 47.22 302.03 47.2 302 C 47.2 300.1 46.3 299.4 44.9 299.4 C 43.5 299.4 42.1 300.6 41.5 301.8 C 41.49 301.76 41.5 312.4 41.5 312.4 L 39.4 312.4 L 39.4 292.4 L 41.5 292.4 C 41.5 292.4 41.49 299.96 41.5 300 C 42.3 298.7 44 297.5 45.7 297.5 C 48.2 297.5 49.3 298.8 49.3 301.4 C 49.35 301.4 49.3 312.4 49.3 312.4 L 47.2 312.4 Z M 53 312.4 L 53 292.4 L 55.1 292.4 L 55.1 312.4 L 53 312.4 Z M 58.1 305.1 C 58.1 301 60.1 297.5 64 297.5 C 67.9 297.5 69.9 301 69.9 305.1 C 69.9 309.2 67.9 312.7 64 312.7 C 60.1 312.7 58.1 309.2 58.1 305.1 Z M 67.6 305.1 C 67.6 302.2 66.5 299.4 64 299.4 C 61.5 299.4 60.3 302.2 60.3 305.1 C 60.3 308.1 61.5 310.8 64 310.8 C 66.5 310.8 67.6 308.1 67.6 305.1 Z M 72.8 312.4 L 72.8 297.9 L 74.9 297.9 C 74.9 297.9 74.94 300.2 74.9 300.2 C 75.9 298.7 77.3 297.6 79 297.6 C 79 297.6 79 299.8 79 299.8 C 78.8 299.7 78.6 299.7 78.3 299.7 C 77 299.7 75.5 300.9 74.9 302.1 C 74.94 302.09 74.9 312.4 74.9 312.4 L 72.8 312.4 Z M 80.5 305.1 C 80.5 301 82.6 297.5 86.4 297.5 C 90.3 297.5 92.3 301 92.3 305.1 C 92.3 309.2 90.3 312.7 86.4 312.7 C 82.6 312.7 80.5 309.2 80.5 305.1 Z M 90.1 305.1 C 90.1 302.2 88.9 299.4 86.4 299.4 C 83.9 299.4 82.8 302.2 82.8 305.1 C 82.8 308.1 83.9 310.8 86.4 310.8 C 88.9 310.8 90.1 308.1 90.1 305.1 Z M 100.6 310.8 C 103 310.8 104.1 308.3 104.1 305.1 C 104.1 302 103 299.4 100.6 299.4 C 99.3 299.4 97.9 300.6 97.4 301.8 C 97.4 301.8 97.4 308.5 97.4 308.5 C 97.9 309.7 99.3 310.8 100.6 310.8 Z M 95.2 312.4 L 95.2 292.4 L 97.4 292.4 C 97.4 292.4 97.38 299.99 97.4 300 C 98.3 298.4 99.7 297.5 101.2 297.5 C 104.5 297.5 106.4 300.6 106.4 305.1 C 106.4 309.7 104.5 312.7 101.2 312.7 C 99.7 312.7 98.2 311.8 97.4 310.3 C 97.38 310.31 97.4 312.4 97.4 312.4 L 95.2 312.4 Z M 108.6 305.1 C 108.6 300.9 110.8 297.5 114.5 297.5 C 118.3 297.5 120.2 300.9 120.2 305.2 C 120.24 305.18 120.2 305.8 120.2 305.8 C 120.2 305.8 110.85 305.84 110.8 305.8 C 110.9 308.7 112.4 310.9 115 310.9 C 116.3 310.9 117.6 310.3 118.5 309.2 C 118.5 309.2 119.6 310.4 119.6 310.4 C 118.4 311.9 116.8 312.7 114.8 312.7 C 111 312.7 108.6 309.6 108.6 305.1 Z M 114.5 299.3 C 111.9 299.3 110.9 302.1 110.8 304.2 C 110.8 304.2 118.1 304.2 118.1 304.2 C 118.1 302 117.1 299.3 114.5 299.3 Z M 130.9 312.4 C 130.9 312.4 130.92 302.06 130.9 302.1 C 130.9 300.1 130 299.4 128.6 299.4 C 127.2 299.4 125.9 300.6 125.2 301.8 C 125.22 301.76 125.2 312.4 125.2 312.4 L 123.1 312.4 L 123.1 297.9 L 125.2 297.9 C 125.2 297.9 125.22 299.96 125.2 300 C 126.1 298.7 127.7 297.5 129.4 297.5 C 131.9 297.5 133.1 298.8 133.1 301.5 C 133.08 301.46 133.1 312.4 133.1 312.4 L 130.9 312.4 Z M 136 312.4 L 136 310.7 L 142.3 299.8 L 136 299.8 L 136 297.9 L 145 297.9 L 145 299.5 L 138.7 310.5 L 145.1 310.5 L 145.1 312.4 L 136 312.4 Z M 155.5 312.4 C 155.5 312.4 155.49 310.82 155.5 310.8 C 154.6 312.1 153.1 312.7 151.7 312.7 C 149.3 312.7 147.3 310.9 147.3 307.9 C 147.3 304.9 149.3 303.1 151.7 303.1 C 153.1 303.1 154.6 303.7 155.5 305 C 155.5 305 155.5 302.5 155.5 302.5 C 155.5 300.5 154.4 299.4 152.5 299.4 C 151.2 299.4 150 299.9 148.9 301.2 C 148.9 301.2 147.9 299.6 147.9 299.6 C 149.3 298.2 151 297.5 152.8 297.5 C 155.7 297.5 157.6 298.9 157.6 302.2 C 157.65 302.24 157.6 312.4 157.6 312.4 L 155.5 312.4 Z M 155.5 309.3 C 155.5 309.3 155.5 306.6 155.5 306.6 C 154.8 305.4 153.6 304.7 152.4 304.7 C 150.6 304.7 149.5 306.1 149.5 307.9 C 149.5 309.7 150.6 311.2 152.4 311.2 C 153.6 311.2 154.8 310.5 155.5 309.3 Z M 161.3 312.4 L 161.3 292.4 L 163.4 292.4 L 163.4 312.4 L 161.3 312.4 Z M 175.3 312.4 C 175.3 312.4 175.35 310.31 175.3 310.3 C 174.5 311.8 173.1 312.7 171.5 312.7 C 168.3 312.7 166.3 309.7 166.3 305.1 C 166.3 300.6 168.3 297.5 171.5 297.5 C 173 297.5 174.5 298.4 175.3 300 C 175.35 299.99 175.3 292.4 175.3 292.4 L 177.5 292.4 L 177.5 312.4 L 175.3 312.4 Z M 175.3 308.5 C 175.3 308.5 175.3 301.8 175.3 301.8 C 174.8 300.6 173.5 299.4 172.1 299.4 C 169.7 299.4 168.6 302 168.6 305.1 C 168.6 308.3 169.7 310.8 172.1 310.8 C 173.5 310.8 174.8 309.7 175.3 308.5 Z M 180.4 305.1 C 180.4 300.9 182.7 297.5 186.3 297.5 C 190.1 297.5 192.1 300.9 192.1 305.2 C 192.06 305.18 192.1 305.8 192.1 305.8 C 192.1 305.8 182.67 305.84 182.7 305.8 C 182.8 308.7 184.3 310.9 186.8 310.9 C 188.1 310.9 189.4 310.3 190.3 309.2 C 190.3 309.2 191.4 310.4 191.4 310.4 C 190.3 311.9 188.6 312.7 186.7 312.7 C 182.8 312.7 180.4 309.6 180.4 305.1 Z M 186.3 299.3 C 183.7 299.3 182.7 302.1 182.7 304.2 C 182.7 304.2 189.9 304.2 189.9 304.2 C 189.9 302 188.9 299.3 186.3 299.3 Z M 202.8 312.4 C 202.8 312.4 202.77 302.03 202.8 302 C 202.8 300.1 201.9 299.4 200.4 299.4 C 199 299.4 197.7 300.6 197 301.8 C 197.04 301.76 197 312.4 197 312.4 L 194.9 312.4 L 194.9 292.4 L 197 292.4 C 197 292.4 197.04 299.96 197 300 C 197.9 298.7 199.5 297.5 201.3 297.5 C 203.7 297.5 204.9 298.8 204.9 301.4 C 204.9 301.4 204.9 312.4 204.9 312.4 L 202.8 312.4 Z M 208.1 316.1 C 208.4 316.3 208.9 316.3 209.1 316.3 C 209.9 316.3 210.4 316 210.8 314.9 C 210.81 314.9 211.6 312.7 211.6 312.7 L 206.8 297.9 L 209.1 297.9 L 212.7 309.8 L 216.3 297.9 L 218.6 297.9 C 218.6 297.9 212.85 315.44 212.8 315.4 C 212.1 317.5 211 318.3 209.2 318.3 C 208.8 318.3 208.1 318.2 207.8 318 C 207.8 318 208.1 316.1 208.1 316.1 Z M 228.8 312.4 C 228.8 312.4 228.77 310.31 228.8 310.3 C 227.9 311.8 226.5 312.7 225 312.7 C 221.7 312.7 219.8 309.7 219.8 305.1 C 219.8 300.6 221.7 297.5 225 297.5 C 226.4 297.5 227.9 298.4 228.8 300 C 228.77 299.99 228.8 292.4 228.8 292.4 L 230.9 292.4 L 230.9 312.4 L 228.8 312.4 Z M 228.8 308.5 C 228.8 308.5 228.8 301.8 228.8 301.8 C 228.2 300.6 226.9 299.4 225.5 299.4 C 223.1 299.4 222 302 222 305.1 C 222 308.3 223.1 310.8 225.5 310.8 C 226.9 310.8 228.2 309.7 228.8 308.5 Z M 233.9 305.1 C 233.9 300.9 236.1 297.5 239.8 297.5 C 243.6 297.5 245.5 300.9 245.5 305.2 C 245.48 305.18 245.5 305.8 245.5 305.8 C 245.5 305.8 236.09 305.84 236.1 305.8 C 236.2 308.7 237.7 310.9 240.3 310.9 C 241.5 310.9 242.8 310.3 243.7 309.2 C 243.7 309.2 244.9 310.4 244.9 310.4 C 243.7 311.9 242 312.7 240.1 312.7 C 236.2 312.7 233.9 309.6 233.9 305.1 Z M 239.7 299.3 C 237.2 299.3 236.2 302.1 236.1 304.2 C 236.1 304.2 243.4 304.2 243.4 304.2 C 243.3 302 242.4 299.3 239.7 299.3 Z " stroke="none" fill="#d3d2d2"/>  </g>  <g id="Polygon222982">    <path d="M 0.9 274.2 C 0.9 274.2 2.2 272.4 2.2 272.4 C 3.2 273.6 4.9 274.6 6.8 274.6 C 9.4 274.6 10.5 273 10.5 271.3 C 10.5 266.5 1.5 267.7 1.5 261.3 C 1.5 258.2 3.9 256 7.2 256 C 9.4 256 11.2 256.8 12.5 258.1 C 12.5 258.1 11.3 259.9 11.3 259.9 C 10.2 258.7 8.7 258.2 7.1 258.2 C 5.3 258.2 3.9 259.4 3.9 261.2 C 3.9 265.4 12.9 264.5 12.9 271.2 C 12.9 274.1 11 276.7 6.8 276.7 C 4.2 276.7 2.2 275.7 0.9 274.2 Z M 15.1 269.1 C 15.1 265 17.1 261.5 20.9 261.5 C 24.8 261.5 26.8 265 26.8 269.1 C 26.8 273.2 24.8 276.7 20.9 276.7 C 17.1 276.7 15.1 273.2 15.1 269.1 Z M 24.6 269.1 C 24.6 266.2 23.5 263.4 20.9 263.4 C 18.4 263.4 17.3 266.2 17.3 269.1 C 17.3 272.1 18.4 274.8 20.9 274.8 C 23.5 274.8 24.6 272.1 24.6 269.1 Z M 29.8 276.4 L 29.8 261.9 L 31.9 261.9 C 31.9 261.9 31.92 264.2 31.9 264.2 C 32.8 262.7 34.3 261.6 36 261.6 C 36 261.6 36 263.8 36 263.8 C 35.8 263.7 35.5 263.7 35.3 263.7 C 34 263.7 32.5 264.9 31.9 266.1 C 31.92 266.09 31.9 276.4 31.9 276.4 L 29.8 276.4 Z M 43.6 274.8 C 46 274.8 47.1 272.3 47.1 269.1 C 47.1 266 46 263.4 43.6 263.4 C 42.3 263.4 40.9 264.6 40.3 265.8 C 40.3 265.8 40.3 272.5 40.3 272.5 C 40.9 273.7 42.3 274.8 43.6 274.8 Z M 38.2 276.4 L 38.2 256.4 L 40.3 256.4 C 40.3 256.4 40.35 263.99 40.3 264 C 41.2 262.4 42.7 261.5 44.2 261.5 C 47.4 261.5 49.3 264.6 49.3 269.1 C 49.3 273.7 47.4 276.7 44.2 276.7 C 42.6 276.7 41.2 275.8 40.3 274.3 C 40.35 274.31 40.3 276.4 40.3 276.4 L 38.2 276.4 Z M 51.9 258.3 C 51.9 257.5 52.6 256.8 53.4 256.8 C 54.2 256.8 54.8 257.5 54.8 258.3 C 54.8 259.1 54.2 259.8 53.4 259.8 C 52.6 259.8 51.9 259.1 51.9 258.3 Z M 52.3 276.4 L 52.3 261.9 L 54.4 261.9 L 54.4 276.4 L 52.3 276.4 Z M 58.5 273.5 C 58.53 273.47 58.5 263.8 58.5 263.8 L 56.6 263.8 L 56.6 261.9 L 58.5 261.9 L 58.5 257.9 L 60.7 257.9 L 60.7 261.9 L 63.1 261.9 L 63.1 263.8 L 60.7 263.8 C 60.7 263.8 60.69 273.08 60.7 273.1 C 60.7 274.2 61 274.8 61.9 274.8 C 62.4 274.8 62.8 274.6 63.1 274.2 C 63.1 274.2 63.8 275.9 63.8 275.9 C 63.3 276.4 62.5 276.7 61.4 276.7 C 59.5 276.7 58.5 275.6 58.5 273.5 Z M 65 269.1 C 65 265 67 261.5 70.9 261.5 C 74.8 261.5 76.8 265 76.8 269.1 C 76.8 273.2 74.8 276.7 70.9 276.7 C 67 276.7 65 273.2 65 269.1 Z M 74.5 269.1 C 74.5 266.2 73.4 263.4 70.9 263.4 C 68.4 263.4 67.2 266.2 67.2 269.1 C 67.2 272.1 68.4 274.8 70.9 274.8 C 73.4 274.8 74.5 272.1 74.5 269.1 Z M 79.7 276.4 L 79.7 256.4 L 81.8 256.4 L 81.8 276.4 L 79.7 276.4 Z " stroke="none" fill="#d3d2d2"/>  </g>  <g id="Polygon222981">    <path d="M 2.1 240.4 L 2.1 220.4 C 2.1 220.4 8.19 220.37 8.2 220.4 C 11.8 220.4 13.7 223.1 13.7 226.4 C 13.7 229.6 11.8 232.4 8.2 232.4 C 8.19 232.37 4.5 232.4 4.5 232.4 L 4.5 240.4 L 2.1 240.4 Z M 11.3 226.4 C 11.3 224.1 10 222.5 7.9 222.5 C 7.95 222.47 4.5 222.5 4.5 222.5 L 4.5 230.3 C 4.5 230.3 7.95 230.27 7.9 230.3 C 10 230.3 11.3 228.6 11.3 226.4 Z M 24.1 240.4 C 24.1 240.4 24.15 230.03 24.1 230 C 24.1 228.1 23.2 227.4 21.8 227.4 C 20.4 227.4 19.1 228.6 18.4 229.8 C 18.42 229.76 18.4 240.4 18.4 240.4 L 16.3 240.4 L 16.3 220.4 L 18.4 220.4 C 18.4 220.4 18.42 227.96 18.4 228 C 19.3 226.7 20.9 225.5 22.6 225.5 C 25.1 225.5 26.3 226.8 26.3 229.4 C 26.28 229.4 26.3 240.4 26.3 240.4 L 24.1 240.4 Z M 29.2 233.1 C 29.2 228.9 31.4 225.5 35.1 225.5 C 38.9 225.5 40.8 228.9 40.8 233.2 C 40.83 233.18 40.8 233.8 40.8 233.8 C 40.8 233.8 31.44 233.84 31.4 233.8 C 31.5 236.7 33 238.9 35.6 238.9 C 36.9 238.9 38.2 238.3 39.1 237.2 C 39.1 237.2 40.2 238.4 40.2 238.4 C 39 239.9 37.4 240.7 35.4 240.7 C 31.6 240.7 29.2 237.6 29.2 233.1 Z M 35.1 227.3 C 32.5 227.3 31.5 230.1 31.4 232.2 C 31.4 232.2 38.7 232.2 38.7 232.2 C 38.7 230 37.7 227.3 35.1 227.3 Z M 51.5 240.4 C 51.5 240.4 51.51 230.06 51.5 230.1 C 51.5 228.1 50.6 227.4 49.2 227.4 C 47.8 227.4 46.5 228.6 45.8 229.8 C 45.81 229.76 45.8 240.4 45.8 240.4 L 43.7 240.4 L 43.7 225.9 L 45.8 225.9 C 45.8 225.9 45.81 227.96 45.8 228 C 46.6 226.7 48.3 225.5 50 225.5 C 52.5 225.5 53.7 226.8 53.7 229.5 C 53.67 229.46 53.7 240.4 53.7 240.4 L 51.5 240.4 Z M 56.9 244.1 C 57.2 244.3 57.6 244.3 57.9 244.3 C 58.7 244.3 59.2 244 59.6 242.9 C 59.58 242.9 60.4 240.7 60.4 240.7 L 55.5 225.9 L 57.9 225.9 L 61.5 237.8 L 65.1 225.9 L 67.4 225.9 C 67.4 225.9 61.62 243.44 61.6 243.4 C 60.9 245.5 59.7 246.3 58 246.3 C 57.6 246.3 56.9 246.2 56.6 246 C 56.6 246 56.9 244.1 56.9 244.1 Z M 69.3 240.4 L 69.3 220.4 L 71.4 220.4 L 71.4 240.4 L 69.3 240.4 Z M 86.6 238.8 C 89 238.8 90.1 236.3 90.1 233.1 C 90.1 230 89 227.4 86.6 227.4 C 85.3 227.4 83.9 228.6 83.3 229.8 C 83.3 229.8 83.3 236.5 83.3 236.5 C 83.9 237.7 85.3 238.8 86.6 238.8 Z M 81.2 240.4 L 81.2 220.4 L 83.3 220.4 C 83.3 220.4 83.34 227.99 83.3 228 C 84.2 226.4 85.7 225.5 87.1 225.5 C 90.4 225.5 92.3 228.6 92.3 233.1 C 92.3 237.7 90.4 240.7 87.1 240.7 C 85.6 240.7 84.2 239.8 83.3 238.3 C 83.34 238.31 83.3 240.4 83.3 240.4 L 81.2 240.4 Z M 94.6 233.1 C 94.6 228.9 96.8 225.5 100.5 225.5 C 104.3 225.5 106.2 228.9 106.2 233.2 C 106.2 233.18 106.2 233.8 106.2 233.8 C 106.2 233.8 96.81 233.84 96.8 233.8 C 96.9 236.7 98.4 238.9 101 238.9 C 102.2 238.9 103.5 238.3 104.4 237.2 C 104.4 237.2 105.6 238.4 105.6 238.4 C 104.4 239.9 102.7 240.7 100.8 240.7 C 96.9 240.7 94.6 237.6 94.6 233.1 Z M 100.4 227.3 C 97.9 227.3 96.9 230.1 96.8 232.2 C 96.8 232.2 104.1 232.2 104.1 232.2 C 104 230 103.1 227.3 100.4 227.3 Z M 116.9 240.4 C 116.9 240.4 116.88 230.06 116.9 230.1 C 116.9 228.1 116 227.4 114.6 227.4 C 113.2 227.4 111.8 228.6 111.2 229.8 C 111.18 229.76 111.2 240.4 111.2 240.4 L 109 240.4 L 109 225.9 L 111.2 225.9 C 111.2 225.9 111.18 227.96 111.2 228 C 112 226.7 113.6 225.5 115.4 225.5 C 117.8 225.5 119 226.8 119 229.5 C 119.04 229.46 119 240.4 119 240.4 L 116.9 240.4 Z M 122 240.4 L 122 238.7 L 128.3 227.8 L 122 227.8 L 122 225.9 L 130.9 225.9 L 130.9 227.5 L 124.6 238.5 L 131 238.5 L 131 240.4 L 122 240.4 Z M 141.4 240.4 C 141.4 240.4 141.45 238.82 141.4 238.8 C 140.5 240.1 139.1 240.7 137.6 240.7 C 135.3 240.7 133.3 238.9 133.3 235.9 C 133.3 232.9 135.3 231.1 137.6 231.1 C 139.1 231.1 140.5 231.7 141.4 233 C 141.4 233 141.4 230.5 141.4 230.5 C 141.4 228.5 140.4 227.4 138.5 227.4 C 137.1 227.4 136 227.9 134.8 229.2 C 134.8 229.2 133.9 227.6 133.9 227.6 C 135.3 226.2 137 225.5 138.8 225.5 C 141.7 225.5 143.6 226.9 143.6 230.2 C 143.61 230.24 143.6 240.4 143.6 240.4 L 141.4 240.4 Z M 141.4 237.3 C 141.4 237.3 141.4 234.6 141.4 234.6 C 140.8 233.4 139.6 232.7 138.3 232.7 C 136.5 232.7 135.4 234.1 135.4 235.9 C 135.4 237.7 136.5 239.2 138.3 239.2 C 139.6 239.2 140.8 238.5 141.4 237.3 Z M 147.2 240.4 L 147.2 220.4 L 149.4 220.4 L 149.4 240.4 L 147.2 240.4 Z M 161.3 240.4 C 161.3 240.4 161.31 238.31 161.3 238.3 C 160.5 239.8 159 240.7 157.5 240.7 C 154.3 240.7 152.3 237.7 152.3 233.1 C 152.3 228.6 154.2 225.5 157.5 225.5 C 159 225.5 160.4 226.4 161.3 228 C 161.31 227.99 161.3 220.4 161.3 220.4 L 163.5 220.4 L 163.5 240.4 L 161.3 240.4 Z M 161.3 236.5 C 161.3 236.5 161.3 229.8 161.3 229.8 C 160.8 228.6 159.4 227.4 158 227.4 C 155.7 227.4 154.6 230 154.6 233.1 C 154.6 236.3 155.7 238.8 158 238.8 C 159.4 238.8 160.8 237.7 161.3 236.5 Z M 166.4 233.1 C 166.4 228.9 168.6 225.5 172.3 225.5 C 176.1 225.5 178 228.9 178 233.2 C 178.02 233.18 178 233.8 178 233.8 C 178 233.8 168.63 233.84 168.6 233.8 C 168.7 236.7 170.2 238.9 172.8 238.9 C 174.1 238.9 175.3 238.3 176.2 237.2 C 176.2 237.2 177.4 238.4 177.4 238.4 C 176.2 239.9 174.6 240.7 172.6 240.7 C 168.7 240.7 166.4 237.6 166.4 233.1 Z M 172.3 227.3 C 169.7 227.3 168.7 230.1 168.6 232.2 C 168.6 232.2 175.9 232.2 175.9 232.2 C 175.9 230 174.9 227.3 172.3 227.3 Z M 188.7 240.4 C 188.7 240.4 188.73 230.03 188.7 230 C 188.7 228.1 187.8 227.4 186.4 227.4 C 185 227.4 183.7 228.6 183 229.8 C 183 229.76 183 240.4 183 240.4 L 180.9 240.4 L 180.9 220.4 L 183 220.4 C 183 220.4 183 227.96 183 228 C 183.8 226.7 185.5 225.5 187.2 225.5 C 189.7 225.5 190.9 226.8 190.9 229.4 C 190.86 229.4 190.9 240.4 190.9 240.4 L 188.7 240.4 Z M 194.1 244.1 C 194.4 244.3 194.8 244.3 195.1 244.3 C 195.9 244.3 196.4 244 196.8 242.9 C 196.77 242.9 197.5 240.7 197.5 240.7 L 192.7 225.9 L 195.1 225.9 L 198.7 237.8 L 202.3 225.9 L 204.6 225.9 C 204.6 225.9 198.81 243.44 198.8 243.4 C 198.1 245.5 196.9 246.3 195.2 246.3 C 194.8 246.3 194.1 246.2 193.8 246 C 193.8 246 194.1 244.1 194.1 244.1 Z M 214.7 240.4 C 214.7 240.4 214.74 238.31 214.7 238.3 C 213.9 239.8 212.5 240.7 210.9 240.7 C 207.7 240.7 205.7 237.7 205.7 233.1 C 205.7 228.6 207.7 225.5 210.9 225.5 C 212.4 225.5 213.9 226.4 214.7 228 C 214.74 227.99 214.7 220.4 214.7 220.4 L 216.9 220.4 L 216.9 240.4 L 214.7 240.4 Z M 214.7 236.5 C 214.7 236.5 214.7 229.8 214.7 229.8 C 214.2 228.6 212.8 227.4 211.5 227.4 C 209.1 227.4 208 230 208 233.1 C 208 236.3 209.1 238.8 211.5 238.8 C 212.8 238.8 214.2 237.7 214.7 236.5 Z M 219.8 233.1 C 219.8 228.9 222.1 225.5 225.7 225.5 C 229.5 225.5 231.4 228.9 231.4 233.2 C 231.45 233.18 231.4 233.8 231.4 233.8 C 231.4 233.8 222.06 233.84 222.1 233.8 C 222.1 236.7 223.6 238.9 226.2 238.9 C 227.5 238.9 228.8 238.3 229.7 237.2 C 229.7 237.2 230.8 238.4 230.8 238.4 C 229.6 239.9 228 240.7 226 240.7 C 222.2 240.7 219.8 237.6 219.8 233.1 Z M 225.7 227.3 C 223.1 227.3 222.1 230.1 222.1 232.2 C 222.1 232.2 229.3 232.2 229.3 232.2 C 229.3 230 228.3 227.3 225.7 227.3 Z " stroke="none" fill="#d3d2d2"/>  </g>  <g id="Polygon222980">    <path d="M 2.1 204.4 L 2.1 184.4 L 4.5 184.4 L 4.5 202.2 L 11.7 202.2 L 11.7 204.4 L 2.1 204.4 Z M 13.2 198.1 L 13.2 196.2 L 19.4 196.2 L 19.4 198.1 L 13.2 198.1 Z M 25.5 204.4 L 25.5 186.5 L 20.8 186.5 L 20.8 184.4 L 32.7 184.4 L 32.7 186.5 L 27.9 186.5 L 27.9 204.4 L 25.5 204.4 Z M 43 204.4 C 43 204.4 42.96 194.03 43 194 C 43 192.1 42.1 191.4 40.6 191.4 C 39.2 191.4 37.9 192.6 37.2 193.8 C 37.23 193.76 37.2 204.4 37.2 204.4 L 35.1 204.4 L 35.1 184.4 L 37.2 184.4 C 37.2 184.4 37.23 191.96 37.2 192 C 38.1 190.7 39.7 189.5 41.5 189.5 C 43.9 189.5 45.1 190.8 45.1 193.4 C 45.09 193.4 45.1 204.4 45.1 204.4 L 43 204.4 Z M 48.7 204.4 L 48.7 189.9 L 50.9 189.9 C 50.9 189.9 50.88 192.2 50.9 192.2 C 51.8 190.7 53.2 189.6 55 189.6 C 55 189.6 55 191.8 55 191.8 C 54.7 191.7 54.5 191.7 54.3 191.7 C 52.9 191.7 51.5 192.9 50.9 194.1 C 50.88 194.09 50.9 204.4 50.9 204.4 L 48.7 204.4 Z M 56.5 197.1 C 56.5 192.9 58.7 189.5 62.3 189.5 C 66.1 189.5 68.1 192.9 68.1 197.2 C 68.07 197.18 68.1 197.8 68.1 197.8 C 68.1 197.8 58.68 197.84 58.7 197.8 C 58.8 200.7 60.3 202.9 62.8 202.9 C 64.1 202.9 65.4 202.3 66.3 201.2 C 66.3 201.2 67.4 202.4 67.4 202.4 C 66.3 203.9 64.6 204.7 62.7 204.7 C 58.8 204.7 56.5 201.6 56.5 197.1 Z M 62.3 191.3 C 59.8 191.3 58.7 194.1 58.7 196.2 C 58.7 196.2 65.9 196.2 65.9 196.2 C 65.9 194 64.9 191.3 62.3 191.3 Z M 70.2 197.1 C 70.2 193 72.2 189.5 76.1 189.5 C 80 189.5 82 193 82 197.1 C 82 201.2 80 204.7 76.1 204.7 C 72.2 204.7 70.2 201.2 70.2 197.1 Z M 79.7 197.1 C 79.7 194.2 78.6 191.4 76.1 191.4 C 73.6 191.4 72.4 194.2 72.4 197.1 C 72.4 200.1 73.6 202.8 76.1 202.8 C 78.6 202.8 79.7 200.1 79.7 197.1 Z M 92.8 204.4 C 92.8 204.4 92.76 194.06 92.8 194.1 C 92.8 192.1 91.9 191.4 90.4 191.4 C 89 191.4 87.7 192.6 87.1 193.8 C 87.06 193.76 87.1 204.4 87.1 204.4 L 84.9 204.4 L 84.9 189.9 L 87.1 189.9 C 87.1 189.9 87.06 191.96 87.1 192 C 87.9 190.7 89.5 189.5 91.3 189.5 C 93.7 189.5 94.9 190.8 94.9 193.5 C 94.92 193.46 94.9 204.4 94.9 204.4 L 92.8 204.4 Z M 98.2 186.3 C 98.2 185.5 98.8 184.8 99.6 184.8 C 100.4 184.8 101.1 185.5 101.1 186.3 C 101.1 187.1 100.4 187.8 99.6 187.8 C 98.8 187.8 98.2 187.1 98.2 186.3 Z M 98.6 204.4 L 98.6 189.9 L 100.7 189.9 L 100.7 204.4 L 98.6 204.4 Z M 112.2 204.4 C 112.2 204.4 112.2 194.06 112.2 194.1 C 112.2 192.1 111.3 191.4 109.9 191.4 C 108.5 191.4 107.2 192.6 106.5 193.8 C 106.5 193.76 106.5 204.4 106.5 204.4 L 104.4 204.4 L 104.4 189.9 L 106.5 189.9 C 106.5 189.9 106.5 191.96 106.5 192 C 107.3 190.7 109 189.5 110.7 189.5 C 113.2 189.5 114.4 190.8 114.4 193.5 C 114.36 193.46 114.4 204.4 114.4 204.4 L 112.2 204.4 Z M 117.3 197.1 C 117.3 192.9 119.5 189.5 123.2 189.5 C 127 189.5 128.9 192.9 128.9 197.2 C 128.91 197.18 128.9 197.8 128.9 197.8 C 128.9 197.8 119.52 197.84 119.5 197.8 C 119.6 200.7 121.1 202.9 123.7 202.9 C 124.9 202.9 126.2 202.3 127.1 201.2 C 127.1 201.2 128.3 202.4 128.3 202.4 C 127.1 203.9 125.5 204.7 123.5 204.7 C 119.6 204.7 117.3 201.6 117.3 197.1 Z M 123.1 191.3 C 120.6 191.3 119.6 194.1 119.5 196.2 C 119.5 196.2 126.8 196.2 126.8 196.2 C 126.7 194 125.8 191.3 123.1 191.3 Z " stroke="none" fill="#d3d2d2"/>  </g>  <g id="Polygon222979">    <path d="M 2.1 168.4 L 2.1 148.4 L 12.4 148.4 L 12.4 150.5 L 4.5 150.5 L 4.5 157.1 L 12.2 157.1 L 12.2 159.2 L 4.5 159.2 L 4.5 166.2 L 12.4 166.2 L 12.4 168.4 L 2.1 168.4 Z M 15.9 165.5 C 15.93 165.47 15.9 155.8 15.9 155.8 L 14 155.8 L 14 153.9 L 15.9 153.9 L 15.9 149.9 L 18.1 149.9 L 18.1 153.9 L 20.5 153.9 L 20.5 155.8 L 18.1 155.8 C 18.1 155.8 18.09 165.08 18.1 165.1 C 18.1 166.2 18.4 166.8 19.3 166.8 C 19.8 166.8 20.2 166.6 20.5 166.2 C 20.5 166.2 21.2 167.9 21.2 167.9 C 20.7 168.4 19.9 168.7 18.8 168.7 C 16.9 168.7 15.9 167.6 15.9 165.5 Z M 31 168.4 C 31 168.4 30.96 158.03 31 158 C 31 156.1 30.1 155.4 28.6 155.4 C 27.2 155.4 25.9 156.6 25.2 157.8 C 25.23 157.76 25.2 168.4 25.2 168.4 L 23.1 168.4 L 23.1 148.4 L 25.2 148.4 C 25.2 148.4 25.23 155.96 25.2 156 C 26.1 154.7 27.7 153.5 29.5 153.5 C 31.9 153.5 33.1 154.8 33.1 157.4 C 33.09 157.4 33.1 168.4 33.1 168.4 L 31 168.4 Z M 36.3 172.1 C 36.6 172.3 37 172.3 37.3 172.3 C 38.1 172.3 38.6 172 39 170.9 C 39 170.9 39.8 168.7 39.8 168.7 L 34.9 153.9 L 37.3 153.9 L 40.9 165.8 L 44.5 153.9 L 46.8 153.9 C 46.8 153.9 41.04 171.44 41 171.4 C 40.3 173.5 39.1 174.3 37.4 174.3 C 37 174.3 36.3 174.2 36 174 C 36 174 36.3 172.1 36.3 172.1 Z M 48.7 168.4 L 48.7 148.4 L 50.8 148.4 L 50.8 168.4 L 48.7 168.4 Z M 57.4 168.4 L 52.7 153.9 L 55 153.9 L 58.6 165.8 L 62.2 153.9 L 64.6 153.9 L 59.8 168.4 L 57.4 168.4 Z M 73.9 168.4 C 73.9 168.4 73.86 166.82 73.9 166.8 C 72.9 168.1 71.5 168.7 70 168.7 C 67.7 168.7 65.7 166.9 65.7 163.9 C 65.7 160.9 67.7 159.1 70 159.1 C 71.5 159.1 73 159.7 73.9 161 C 73.9 161 73.9 158.5 73.9 158.5 C 73.9 156.5 72.8 155.4 70.9 155.4 C 69.5 155.4 68.4 155.9 67.3 157.2 C 67.3 157.2 66.3 155.6 66.3 155.6 C 67.7 154.2 69.4 153.5 71.2 153.5 C 74.1 153.5 76 154.9 76 158.2 C 76.02 158.24 76 168.4 76 168.4 L 73.9 168.4 Z M 73.9 165.3 C 73.9 165.3 73.9 162.6 73.9 162.6 C 73.2 161.4 72 160.7 70.7 160.7 C 68.9 160.7 67.9 162.1 67.9 163.9 C 67.9 165.7 68.9 167.2 70.7 167.2 C 72 167.2 73.2 166.5 73.9 165.3 Z M 87.5 168.4 C 87.5 168.4 87.48 158.06 87.5 158.1 C 87.5 156.1 86.6 155.4 85.2 155.4 C 83.8 155.4 82.4 156.6 81.8 157.8 C 81.78 157.76 81.8 168.4 81.8 168.4 L 79.6 168.4 L 79.6 153.9 L 81.8 153.9 C 81.8 153.9 81.78 155.96 81.8 156 C 82.6 154.7 84.2 153.5 86 153.5 C 88.4 153.5 89.6 154.8 89.6 157.5 C 89.64 157.46 89.6 168.4 89.6 168.4 L 87.5 168.4 Z M 92.9 150.3 C 92.9 149.5 93.6 148.8 94.3 148.8 C 95.2 148.8 95.8 149.5 95.8 150.3 C 95.8 151.1 95.2 151.8 94.3 151.8 C 93.6 151.8 92.9 151.1 92.9 150.3 Z M 93.3 168.4 L 93.3 153.9 L 95.4 153.9 L 95.4 168.4 L 93.3 168.4 Z M 99.1 168.4 L 99.1 148.4 L 101.2 148.4 L 101.2 168.4 L 99.1 168.4 Z M 104.5 150.3 C 104.5 149.5 105.1 148.8 105.9 148.8 C 106.7 148.8 107.4 149.5 107.4 150.3 C 107.4 151.1 106.7 151.8 105.9 151.8 C 105.1 151.8 104.5 151.1 104.5 150.3 Z M 104.9 168.4 L 104.9 153.9 L 107 153.9 L 107 168.4 L 104.9 168.4 Z M 118.5 168.4 C 118.5 168.4 118.5 158.06 118.5 158.1 C 118.5 156.1 117.6 155.4 116.2 155.4 C 114.8 155.4 113.5 156.6 112.8 157.8 C 112.8 157.76 112.8 168.4 112.8 168.4 L 110.7 168.4 L 110.7 153.9 L 112.8 153.9 C 112.8 153.9 112.8 155.96 112.8 156 C 113.6 154.7 115.3 153.5 117 153.5 C 119.5 153.5 120.7 154.8 120.7 157.5 C 120.66 157.46 120.7 168.4 120.7 168.4 L 118.5 168.4 Z " stroke="none" fill="#d3d2d2"/>  </g>  <g id="Polygon222978">    <path d="M 2.1 132.4 L 2.1 112.4 L 12.4 112.4 L 12.4 114.5 L 4.5 114.5 L 4.5 121.1 L 12.2 121.1 L 12.2 123.2 L 4.5 123.2 L 4.5 130.2 L 12.4 130.2 L 12.4 132.4 L 2.1 132.4 Z M 15.9 129.5 C 15.93 129.47 15.9 119.8 15.9 119.8 L 14 119.8 L 14 117.9 L 15.9 117.9 L 15.9 113.9 L 18.1 113.9 L 18.1 117.9 L 20.5 117.9 L 20.5 119.8 L 18.1 119.8 C 18.1 119.8 18.09 129.08 18.1 129.1 C 18.1 130.2 18.4 130.8 19.3 130.8 C 19.8 130.8 20.2 130.6 20.5 130.2 C 20.5 130.2 21.2 131.9 21.2 131.9 C 20.7 132.4 19.9 132.7 18.8 132.7 C 16.9 132.7 15.9 131.6 15.9 129.5 Z M 31 132.4 C 31 132.4 30.96 122.03 31 122 C 31 120.1 30.1 119.4 28.6 119.4 C 27.2 119.4 25.9 120.6 25.2 121.8 C 25.23 121.76 25.2 132.4 25.2 132.4 L 23.1 132.4 L 23.1 112.4 L 25.2 112.4 C 25.2 112.4 25.23 119.96 25.2 120 C 26.1 118.7 27.7 117.5 29.5 117.5 C 31.9 117.5 33.1 118.8 33.1 121.4 C 33.09 121.4 33.1 132.4 33.1 132.4 L 31 132.4 Z M 36.3 136.1 C 36.6 136.3 37 136.3 37.3 136.3 C 38.1 136.3 38.6 136 39 134.9 C 39 134.9 39.8 132.7 39.8 132.7 L 34.9 117.9 L 37.3 117.9 L 40.9 129.8 L 44.5 117.9 L 46.8 117.9 C 46.8 117.9 41.04 135.44 41 135.4 C 40.3 137.5 39.1 138.3 37.4 138.3 C 37 138.3 36.3 138.2 36 138 C 36 138 36.3 136.1 36.3 136.1 Z M 48.7 132.4 L 48.7 112.4 L 50.8 112.4 L 50.8 132.4 L 48.7 132.4 Z M 75.3 132.4 C 75.3 132.4 75.27 121.88 75.3 121.9 C 75.3 120.3 74.6 119.4 73.3 119.4 C 72 119.4 70.7 120.6 70.1 121.8 C 70.11 121.76 70.1 132.4 70.1 132.4 L 67.9 132.4 C 67.9 132.4 67.95 121.88 67.9 121.9 C 67.9 120.3 67.3 119.4 65.9 119.4 C 64.6 119.4 63.4 120.6 62.8 121.8 C 62.76 121.76 62.8 132.4 62.8 132.4 L 60.6 132.4 L 60.6 117.9 L 62.8 117.9 C 62.8 117.9 62.76 119.96 62.8 120 C 63.4 118.9 65 117.5 66.7 117.5 C 68.6 117.5 69.7 118.6 70 120.1 C 70.7 118.8 72.3 117.5 74.1 117.5 C 76.2 117.5 77.4 118.7 77.4 121.3 C 77.43 121.31 77.4 132.4 77.4 132.4 L 75.3 132.4 Z M 88.5 132.4 C 88.5 132.4 88.53 130.82 88.5 130.8 C 87.6 132.1 86.2 132.7 84.7 132.7 C 82.4 132.7 80.3 130.9 80.3 127.9 C 80.3 124.9 82.3 123.1 84.7 123.1 C 86.2 123.1 87.6 123.7 88.5 125 C 88.5 125 88.5 122.5 88.5 122.5 C 88.5 120.5 87.4 119.4 85.6 119.4 C 84.2 119.4 83 119.9 81.9 121.2 C 81.9 121.2 81 119.6 81 119.6 C 82.3 118.2 84.1 117.5 85.9 117.5 C 88.8 117.5 90.7 118.9 90.7 122.2 C 90.69 122.24 90.7 132.4 90.7 132.4 L 88.5 132.4 Z M 88.5 129.3 C 88.5 129.3 88.5 126.6 88.5 126.6 C 87.9 125.4 86.7 124.7 85.4 124.7 C 83.6 124.7 82.5 126.1 82.5 127.9 C 82.5 129.7 83.6 131.2 85.4 131.2 C 86.7 131.2 87.9 130.5 88.5 129.3 Z M 94.3 132.4 L 94.3 112.4 L 96.4 112.4 L 96.4 132.4 L 94.3 132.4 Z M 100.5 129.5 C 100.53 129.47 100.5 119.8 100.5 119.8 L 98.6 119.8 L 98.6 117.9 L 100.5 117.9 L 100.5 113.9 L 102.7 113.9 L 102.7 117.9 L 105.1 117.9 L 105.1 119.8 L 102.7 119.8 C 102.7 119.8 102.69 129.08 102.7 129.1 C 102.7 130.2 103 130.8 103.9 130.8 C 104.4 130.8 104.8 130.6 105.1 130.2 C 105.1 130.2 105.8 131.9 105.8 131.9 C 105.3 132.4 104.5 132.7 103.4 132.7 C 101.5 132.7 100.5 131.6 100.5 129.5 Z M 107 125.1 C 107 121 109 117.5 112.9 117.5 C 116.8 117.5 118.8 121 118.8 125.1 C 118.8 129.2 116.8 132.7 112.9 132.7 C 109 132.7 107 129.2 107 125.1 Z M 116.5 125.1 C 116.5 122.2 115.4 119.4 112.9 119.4 C 110.4 119.4 109.2 122.2 109.2 125.1 C 109.2 128.1 110.4 130.8 112.9 130.8 C 115.4 130.8 116.5 128.1 116.5 125.1 Z M 121.7 132.4 L 121.7 112.4 L 123.8 112.4 L 123.8 132.4 L 121.7 132.4 Z " stroke="none" fill="#d3d2d2"/>  </g>  <g id="Polygon222977">    <path d="M 12.5 96.4 L 11.2 91.8 L 4.1 91.8 L 2.8 96.4 L 0.2 96.4 L 6.2 76.4 L 9.1 76.4 L 15.1 96.4 L 12.5 96.4 Z M 7.6 79 L 4.6 89.7 L 10.7 89.7 L 7.6 79 Z M 15.8 94.7 C 15.8 94.7 16.9 93.2 16.9 93.2 C 17.8 94.2 19.1 95 20.7 95 C 22.4 95 23.5 94 23.5 92.7 C 23.5 89.3 16.3 90.4 16.3 85.4 C 16.3 83.3 18 81.5 20.9 81.5 C 22.8 81.5 24.3 82.3 25.3 83.4 C 25.3 83.4 24.3 84.9 24.3 84.9 C 23.5 83.9 22.3 83.3 20.9 83.3 C 19.3 83.3 18.3 84.2 18.3 85.4 C 18.3 88.5 25.6 87.4 25.6 92.6 C 25.6 95 23.7 96.7 20.7 96.7 C 18.7 96.7 17 96.1 15.8 94.7 Z M 30.4 94.3 C 30.45 94.28 30.4 101.9 30.4 101.9 L 28.3 101.9 L 28.3 81.9 L 30.4 81.9 C 30.4 81.9 30.45 83.96 30.4 84 C 31.3 82.5 32.7 81.5 34.3 81.5 C 37.5 81.5 39.4 84.6 39.4 89.1 C 39.4 93.6 37.5 96.7 34.3 96.7 C 32.8 96.7 31.3 95.9 30.4 94.3 Z M 37.2 89.1 C 37.2 86 36.1 83.4 33.7 83.4 C 32.4 83.4 31 84.5 30.4 85.8 C 30.4 85.8 30.4 92.4 30.4 92.4 C 31 93.7 32.4 94.8 33.7 94.8 C 36.1 94.8 37.2 92.3 37.2 89.1 Z M 49.8 96.4 C 49.8 96.4 49.8 94.82 49.8 94.8 C 48.9 96.1 47.5 96.7 46 96.7 C 43.6 96.7 41.6 94.9 41.6 91.9 C 41.6 88.9 43.6 87.1 46 87.1 C 47.5 87.1 48.9 87.7 49.8 89 C 49.8 89 49.8 86.5 49.8 86.5 C 49.8 84.5 48.7 83.4 46.8 83.4 C 45.5 83.4 44.3 83.9 43.2 85.2 C 43.2 85.2 42.2 83.6 42.2 83.6 C 43.6 82.2 45.3 81.5 47.2 81.5 C 50 81.5 52 82.9 52 86.2 C 51.96 86.24 52 96.4 52 96.4 L 49.8 96.4 Z M 49.8 93.3 C 49.8 93.3 49.8 90.6 49.8 90.6 C 49.1 89.4 47.9 88.7 46.7 88.7 C 44.9 88.7 43.8 90.1 43.8 91.9 C 43.8 93.7 44.9 95.2 46.7 95.2 C 47.9 95.2 49.1 94.5 49.8 93.3 Z M 55.6 96.4 L 55.6 81.9 L 57.7 81.9 C 57.7 81.9 57.72 84.2 57.7 84.2 C 58.6 82.7 60.1 81.6 61.8 81.6 C 61.8 81.6 61.8 83.8 61.8 83.8 C 61.6 83.7 61.3 83.7 61.1 83.7 C 59.8 83.7 58.3 84.9 57.7 86.1 C 57.72 86.09 57.7 96.4 57.7 96.4 L 55.6 96.4 Z M 64.4 93.5 C 64.44 93.47 64.4 83.8 64.4 83.8 L 62.5 83.8 L 62.5 81.9 L 64.4 81.9 L 64.4 77.9 L 66.6 77.9 L 66.6 81.9 L 69.1 81.9 L 69.1 83.8 L 66.6 83.8 C 66.6 83.8 66.6 93.08 66.6 93.1 C 66.6 94.2 66.9 94.8 67.8 94.8 C 68.3 94.8 68.8 94.6 69 94.2 C 69 94.2 69.7 95.9 69.7 95.9 C 69.2 96.4 68.5 96.7 67.3 96.7 C 65.4 96.7 64.4 95.6 64.4 93.5 Z M 79 96.4 C 79 96.4 79.05 94.82 79 94.8 C 78.1 96.1 76.7 96.7 75.2 96.7 C 72.9 96.7 70.9 94.9 70.9 91.9 C 70.9 88.9 72.9 87.1 75.2 87.1 C 76.7 87.1 78.1 87.7 79 89 C 79 89 79 86.5 79 86.5 C 79 84.5 78 83.4 76.1 83.4 C 74.7 83.4 73.6 83.9 72.4 85.2 C 72.4 85.2 71.5 83.6 71.5 83.6 C 72.9 82.2 74.6 81.5 76.4 81.5 C 79.3 81.5 81.2 82.9 81.2 86.2 C 81.21 86.24 81.2 96.4 81.2 96.4 L 79 96.4 Z M 79 93.3 C 79 93.3 79 90.6 79 90.6 C 78.4 89.4 77.2 88.7 75.9 88.7 C 74.1 88.7 73 90.1 73 91.9 C 73 93.7 74.1 95.2 75.9 95.2 C 77.2 95.2 78.4 94.5 79 93.3 Z M 99.5 96.4 C 99.5 96.4 99.48 85.88 99.5 85.9 C 99.5 84.3 98.8 83.4 97.5 83.4 C 96.2 83.4 94.9 84.6 94.3 85.8 C 94.32 85.76 94.3 96.4 94.3 96.4 L 92.2 96.4 C 92.2 96.4 92.16 85.88 92.2 85.9 C 92.2 84.3 91.5 83.4 90.1 83.4 C 88.8 83.4 87.6 84.6 87 85.8 C 86.97 85.76 87 96.4 87 96.4 L 84.8 96.4 L 84.8 81.9 L 87 81.9 C 87 81.9 86.97 83.96 87 84 C 87.6 82.9 89.2 81.5 90.9 81.5 C 92.8 81.5 93.9 82.6 94.2 84.1 C 94.9 82.8 96.5 81.5 98.3 81.5 C 100.4 81.5 101.6 82.7 101.6 85.3 C 101.64 85.31 101.6 96.4 101.6 96.4 L 99.5 96.4 Z M 104.6 89.1 C 104.6 84.9 106.8 81.5 110.5 81.5 C 114.3 81.5 116.2 84.9 116.2 89.2 C 116.19 89.18 116.2 89.8 116.2 89.8 C 116.2 89.8 106.8 89.84 106.8 89.8 C 106.9 92.7 108.4 94.9 111 94.9 C 112.2 94.9 113.5 94.3 114.4 93.2 C 114.4 93.2 115.6 94.4 115.6 94.4 C 114.4 95.9 112.7 96.7 110.8 96.7 C 106.9 96.7 104.6 93.6 104.6 89.1 Z M 110.4 83.3 C 107.9 83.3 106.9 86.1 106.8 88.2 C 106.8 88.2 114.1 88.2 114.1 88.2 C 114 86 113.1 83.3 110.4 83.3 Z " stroke="none" fill="#d3d2d2"/>  </g>  <g id="Polygon222976">    <path d="M 12.5 60.4 L 11.2 55.8 L 4.1 55.8 L 2.8 60.4 L 0.2 60.4 L 6.2 40.4 L 9.1 40.4 L 15.1 60.4 L 12.5 60.4 Z M 7.6 43 L 4.6 53.7 L 10.7 53.7 L 7.6 43 Z M 17 60.4 L 17 40.4 L 19.1 40.4 L 19.1 60.4 L 17 60.4 Z M 22.1 53.1 C 22.1 48.8 24.4 45.5 28.1 45.5 C 30.1 45.5 31.3 46.3 32.2 47.4 C 32.2 47.4 31 48.9 31 48.9 C 30.3 47.9 29.4 47.4 28.3 47.4 C 25.7 47.4 24.3 50 24.3 53.1 C 24.3 56.2 25.7 58.8 28.3 58.8 C 29.4 58.8 30.3 58.4 31 57.3 C 31 57.3 32.2 58.8 32.2 58.8 C 31.3 60 30.1 60.7 28.1 60.7 C 24.4 60.7 22.1 57.4 22.1 53.1 Z M 42.1 60.4 C 42.1 60.4 42.12 58.82 42.1 58.8 C 41.2 60.1 39.8 60.7 38.3 60.7 C 36 60.7 33.9 58.9 33.9 55.9 C 33.9 52.9 35.9 51.1 38.3 51.1 C 39.8 51.1 41.2 51.7 42.1 53 C 42.1 53 42.1 50.5 42.1 50.5 C 42.1 48.5 41 47.4 39.1 47.4 C 37.8 47.4 36.6 47.9 35.5 49.2 C 35.5 49.2 34.6 47.6 34.6 47.6 C 35.9 46.2 37.6 45.5 39.5 45.5 C 42.4 45.5 44.3 46.9 44.3 50.2 C 44.28 50.24 44.3 60.4 44.3 60.4 L 42.1 60.4 Z M 42.1 57.3 C 42.1 57.3 42.1 54.6 42.1 54.6 C 41.5 53.4 40.3 52.7 39 52.7 C 37.2 52.7 36.1 54.1 36.1 55.9 C 36.1 57.7 37.2 59.2 39 59.2 C 40.3 59.2 41.5 58.5 42.1 57.3 Z M 55.7 60.4 C 55.7 60.4 55.74 50.06 55.7 50.1 C 55.7 48.1 54.9 47.4 53.4 47.4 C 52 47.4 50.7 48.6 50 49.8 C 50.04 49.76 50 60.4 50 60.4 L 47.9 60.4 L 47.9 45.9 L 50 45.9 C 50 45.9 50.04 47.96 50 48 C 50.9 46.7 52.5 45.5 54.2 45.5 C 56.7 45.5 57.9 46.8 57.9 49.5 C 57.9 49.46 57.9 60.4 57.9 60.4 L 55.7 60.4 Z M 61.1 42.3 C 61.1 41.5 61.8 40.8 62.6 40.8 C 63.4 40.8 64.1 41.5 64.1 42.3 C 64.1 43.1 63.4 43.8 62.6 43.8 C 61.8 43.8 61.1 43.1 61.1 42.3 Z M 61.6 60.4 L 61.6 45.9 L 63.7 45.9 L 63.7 60.4 L 61.6 60.4 Z M 70.3 60.4 L 65.5 45.9 L 67.9 45.9 L 71.5 57.8 L 75.1 45.9 L 77.4 45.9 L 72.7 60.4 L 70.3 60.4 Z M 78.6 53.1 C 78.6 49 80.6 45.5 84.4 45.5 C 88.3 45.5 90.4 49 90.4 53.1 C 90.4 57.2 88.3 60.7 84.4 60.7 C 80.6 60.7 78.6 57.2 78.6 53.1 Z M 88.1 53.1 C 88.1 50.2 87 47.4 84.4 47.4 C 82 47.4 80.8 50.2 80.8 53.1 C 80.8 56.1 82 58.8 84.4 58.8 C 87 58.8 88.1 56.1 88.1 53.1 Z M 93.3 60.4 L 93.3 45.9 L 95.4 45.9 C 95.4 45.9 95.43 48.2 95.4 48.2 C 96.4 46.7 97.8 45.6 99.5 45.6 C 99.5 45.6 99.5 47.8 99.5 47.8 C 99.3 47.7 99.1 47.7 98.8 47.7 C 97.5 47.7 96 48.9 95.4 50.1 C 95.43 50.09 95.4 60.4 95.4 60.4 L 93.3 60.4 Z M 109.2 60.4 C 109.2 60.4 109.17 58.82 109.2 58.8 C 108.2 60.1 106.8 60.7 105.4 60.7 C 103 60.7 101 58.9 101 55.9 C 101 52.9 103 51.1 105.4 51.1 C 106.8 51.1 108.3 51.7 109.2 53 C 109.2 53 109.2 50.5 109.2 50.5 C 109.2 48.5 108.1 47.4 106.2 47.4 C 104.8 47.4 103.7 47.9 102.6 49.2 C 102.6 49.2 101.6 47.6 101.6 47.6 C 103 46.2 104.7 45.5 106.5 45.5 C 109.4 45.5 111.3 46.9 111.3 50.2 C 111.33 50.24 111.3 60.4 111.3 60.4 L 109.2 60.4 Z M 109.2 57.3 C 109.2 57.3 109.2 54.6 109.2 54.6 C 108.5 53.4 107.3 52.7 106 52.7 C 104.2 52.7 103.2 54.1 103.2 55.9 C 103.2 57.7 104.2 59.2 106 59.2 C 107.3 59.2 108.5 58.5 109.2 57.3 Z M 113.8 58.7 C 113.8 58.7 114.9 57.2 114.9 57.2 C 115.7 58.2 117.1 59 118.6 59 C 120.3 59 121.4 58 121.4 56.7 C 121.4 53.3 114.2 54.4 114.2 49.4 C 114.2 47.3 115.9 45.5 118.8 45.5 C 120.7 45.5 122.2 46.3 123.2 47.4 C 123.2 47.4 122.2 48.9 122.2 48.9 C 121.5 47.9 120.3 47.3 118.9 47.3 C 117.3 47.3 116.3 48.2 116.3 49.4 C 116.3 52.5 123.5 51.4 123.5 56.6 C 123.5 59 121.6 60.7 118.7 60.7 C 116.6 60.7 115 60.1 113.8 58.7 Z M 125.5 53.1 C 125.5 48.9 127.8 45.5 131.4 45.5 C 135.2 45.5 137.2 48.9 137.2 53.2 C 137.16 53.18 137.2 53.8 137.2 53.8 C 137.2 53.8 127.77 53.84 127.8 53.8 C 127.9 56.7 129.4 58.9 131.9 58.9 C 133.2 58.9 134.5 58.3 135.4 57.2 C 135.4 57.2 136.5 58.4 136.5 58.4 C 135.4 59.9 133.7 60.7 131.8 60.7 C 127.9 60.7 125.5 57.6 125.5 53.1 Z M 131.4 47.3 C 128.8 47.3 127.8 50.1 127.8 52.2 C 127.8 52.2 135 52.2 135 52.2 C 135 50 134 47.3 131.4 47.3 Z M 145.4 53.1 C 145.4 48.9 147.7 45.5 151.3 45.5 C 155.1 45.5 157 48.9 157 53.2 C 157.05 53.18 157 53.8 157 53.8 C 157 53.8 147.66 53.84 147.7 53.8 C 147.7 56.7 149.2 58.9 151.8 58.9 C 153.1 58.9 154.4 58.3 155.3 57.2 C 155.3 57.2 156.4 58.4 156.4 58.4 C 155.2 59.9 153.6 60.7 151.6 60.7 C 147.8 60.7 145.4 57.6 145.4 53.1 Z M 151.3 47.3 C 148.7 47.3 147.7 50.1 147.7 52.2 C 147.7 52.2 154.9 52.2 154.9 52.2 C 154.9 50 153.9 47.3 151.3 47.3 Z M 167.3 60.4 L 164 54.6 L 160.7 60.4 L 158.3 60.4 L 162.7 53 L 158.5 45.9 L 160.9 45.9 L 164 51.4 L 167.1 45.9 L 169.5 45.9 L 165.3 53 L 169.7 60.4 L 167.3 60.4 Z M 172.2 57.5 C 172.2 57.47 172.2 47.8 172.2 47.8 L 170.3 47.8 L 170.3 45.9 L 172.2 45.9 L 172.2 41.9 L 174.4 41.9 L 174.4 45.9 L 176.8 45.9 L 176.8 47.8 L 174.4 47.8 C 174.4 47.8 174.36 57.08 174.4 57.1 C 174.4 58.2 174.7 58.8 175.5 58.8 C 176.1 58.8 176.5 58.6 176.8 58.2 C 176.8 58.2 177.4 59.9 177.4 59.9 C 176.9 60.4 176.2 60.7 175.1 60.7 C 173.1 60.7 172.2 59.6 172.2 57.5 Z M 179.4 60.4 L 179.4 45.9 L 181.5 45.9 C 181.5 45.9 181.49 48.2 181.5 48.2 C 182.4 46.7 183.8 45.6 185.6 45.6 C 185.6 45.6 185.6 47.8 185.6 47.8 C 185.4 47.7 185.1 47.7 184.9 47.7 C 183.6 47.7 182.1 48.9 181.5 50.1 C 181.49 50.09 181.5 60.4 181.5 60.4 L 179.4 60.4 Z M 195.2 60.4 C 195.2 60.4 195.23 58.82 195.2 58.8 C 194.3 60.1 192.9 60.7 191.4 60.7 C 189.1 60.7 187 58.9 187 55.9 C 187 52.9 189.1 51.1 191.4 51.1 C 192.9 51.1 194.3 51.7 195.2 53 C 195.2 53 195.2 50.5 195.2 50.5 C 195.2 48.5 194.2 47.4 192.3 47.4 C 190.9 47.4 189.7 47.9 188.6 49.2 C 188.6 49.2 187.7 47.6 187.7 47.6 C 189.1 46.2 190.8 45.5 192.6 45.5 C 195.5 45.5 197.4 46.9 197.4 50.2 C 197.39 50.24 197.4 60.4 197.4 60.4 L 195.2 60.4 Z M 195.2 57.3 C 195.2 57.3 195.2 54.6 195.2 54.6 C 194.6 53.4 193.4 52.7 192.1 52.7 C 190.3 52.7 189.2 54.1 189.2 55.9 C 189.2 57.7 190.3 59.2 192.1 59.2 C 193.4 59.2 194.6 58.5 195.2 57.3 Z M 200.3 53.1 C 200.3 48.8 202.6 45.5 206.3 45.5 C 208.3 45.5 209.5 46.3 210.4 47.4 C 210.4 47.4 209.3 48.9 209.3 48.9 C 208.5 47.9 207.6 47.4 206.5 47.4 C 203.9 47.4 202.6 50 202.6 53.1 C 202.6 56.2 203.9 58.8 206.5 58.8 C 207.6 58.8 208.5 58.4 209.3 57.3 C 209.3 57.3 210.4 58.8 210.4 58.8 C 209.5 60 208.3 60.7 206.3 60.7 C 202.6 60.7 200.3 57.4 200.3 53.1 Z M 213.3 57.5 C 213.32 57.47 213.3 47.8 213.3 47.8 L 211.4 47.8 L 211.4 45.9 L 213.3 45.9 L 213.3 41.9 L 215.5 41.9 L 215.5 45.9 L 217.9 45.9 L 217.9 47.8 L 215.5 47.8 C 215.5 47.8 215.48 57.08 215.5 57.1 C 215.5 58.2 215.8 58.8 216.7 58.8 C 217.2 58.8 217.6 58.6 217.9 58.2 C 217.9 58.2 218.6 59.9 218.6 59.9 C 218.1 60.4 217.3 60.7 216.2 60.7 C 214.3 60.7 213.3 59.6 213.3 57.5 Z " stroke="none" fill="#d3d2d2"/>  </g>  <g id="Polygon222975">    <path d="M 12.5 24.4 L 11.2 19.8 L 4.1 19.8 L 2.8 24.4 L 0.2 24.4 L 6.2 4.4 L 9.1 4.4 L 15.1 24.4 L 12.5 24.4 Z M 7.6 7 L 4.6 17.7 L 10.7 17.7 L 7.6 7 Z M 25.2 24.4 C 25.2 24.4 25.23 22.31 25.2 22.3 C 24.4 23.8 22.9 24.7 21.4 24.7 C 18.2 24.7 16.2 21.7 16.2 17.1 C 16.2 12.6 18.1 9.5 21.4 9.5 C 22.9 9.5 24.4 10.4 25.2 12 C 25.23 11.99 25.2 4.4 25.2 4.4 L 27.4 4.4 L 27.4 24.4 L 25.2 24.4 Z M 25.2 20.5 C 25.2 20.5 25.2 13.8 25.2 13.8 C 24.7 12.6 23.3 11.4 22 11.4 C 19.6 11.4 18.5 14 18.5 17.1 C 18.5 20.3 19.6 22.8 22 22.8 C 23.3 22.8 24.7 21.7 25.2 20.5 Z M 34 24.4 L 29.2 9.9 L 31.6 9.9 L 35.2 21.8 L 38.8 9.9 L 41.1 9.9 L 36.4 24.4 L 34 24.4 Z M 50.4 24.4 C 50.4 24.4 50.43 22.82 50.4 22.8 C 49.5 24.1 48.1 24.7 46.6 24.7 C 44.3 24.7 42.2 22.9 42.2 19.9 C 42.2 16.9 44.2 15.1 46.6 15.1 C 48.1 15.1 49.5 15.7 50.4 17 C 50.4 17 50.4 14.5 50.4 14.5 C 50.4 12.5 49.3 11.4 47.5 11.4 C 46.1 11.4 44.9 11.9 43.8 13.2 C 43.8 13.2 42.9 11.6 42.9 11.6 C 44.2 10.2 46 9.5 47.8 9.5 C 50.7 9.5 52.6 10.9 52.6 14.2 C 52.59 14.24 52.6 24.4 52.6 24.4 L 50.4 24.4 Z M 50.4 21.3 C 50.4 21.3 50.4 18.6 50.4 18.6 C 49.8 17.4 48.6 16.7 47.3 16.7 C 45.5 16.7 44.4 18.1 44.4 19.9 C 44.4 21.7 45.5 23.2 47.3 23.2 C 48.6 23.2 49.8 22.5 50.4 21.3 Z M 64 24.4 C 64 24.4 64.05 14.06 64 14.1 C 64 12.1 63.2 11.4 61.7 11.4 C 60.3 11.4 59 12.6 58.3 13.8 C 58.35 13.76 58.3 24.4 58.3 24.4 L 56.2 24.4 L 56.2 9.9 L 58.3 9.9 C 58.3 9.9 58.35 11.96 58.3 12 C 59.2 10.7 60.8 9.5 62.5 9.5 C 65 9.5 66.2 10.8 66.2 13.5 C 66.21 13.46 66.2 24.4 66.2 24.4 L 64 24.4 Z M 70.3 21.5 C 70.29 21.47 70.3 11.8 70.3 11.8 L 68.4 11.8 L 68.4 9.9 L 70.3 9.9 L 70.3 5.9 L 72.4 5.9 L 72.4 9.9 L 74.9 9.9 L 74.9 11.8 L 72.4 11.8 C 72.4 11.8 72.45 21.08 72.4 21.1 C 72.4 22.2 72.8 22.8 73.6 22.8 C 74.2 22.8 74.6 22.6 74.9 22.2 C 74.9 22.2 75.5 23.9 75.5 23.9 C 75 24.4 74.3 24.7 73.2 24.7 C 71.2 24.7 70.3 23.6 70.3 21.5 Z M 84.9 24.4 C 84.9 24.4 84.9 22.82 84.9 22.8 C 84 24.1 82.6 24.7 81.1 24.7 C 78.7 24.7 76.7 22.9 76.7 19.9 C 76.7 16.9 78.7 15.1 81.1 15.1 C 82.6 15.1 84 15.7 84.9 17 C 84.9 17 84.9 14.5 84.9 14.5 C 84.9 12.5 83.8 11.4 81.9 11.4 C 80.6 11.4 79.4 11.9 78.3 13.2 C 78.3 13.2 77.3 11.6 77.3 11.6 C 78.7 10.2 80.4 9.5 82.3 9.5 C 85.1 9.5 87.1 10.9 87.1 14.2 C 87.06 14.24 87.1 24.4 87.1 24.4 L 84.9 24.4 Z M 84.9 21.3 C 84.9 21.3 84.9 18.6 84.9 18.6 C 84.2 17.4 83 16.7 81.8 16.7 C 80 16.7 78.9 18.1 78.9 19.9 C 78.9 21.7 80 23.2 81.8 23.2 C 83 23.2 84.2 22.5 84.9 21.3 Z M 105.3 24.4 C 105.3 24.4 105.33 13.88 105.3 13.9 C 105.3 12.3 104.7 11.4 103.3 11.4 C 102 11.4 100.7 12.6 100.2 13.8 C 100.17 13.76 100.2 24.4 100.2 24.4 L 98 24.4 C 98 24.4 98.01 13.88 98 13.9 C 98 12.3 97.4 11.4 96 11.4 C 94.7 11.4 93.4 12.6 92.8 13.8 C 92.82 13.76 92.8 24.4 92.8 24.4 L 90.7 24.4 L 90.7 9.9 L 92.8 9.9 C 92.8 9.9 92.82 11.96 92.8 12 C 93.4 10.9 95 9.5 96.8 9.5 C 98.6 9.5 99.8 10.6 100 12.1 C 100.8 10.8 102.4 9.5 104.1 9.5 C 106.3 9.5 107.5 10.7 107.5 13.3 C 107.49 13.31 107.5 24.4 107.5 24.4 L 105.3 24.4 Z M 110.4 17.1 C 110.4 12.9 112.6 9.5 116.3 9.5 C 120.1 9.5 122 12.9 122 17.2 C 122.04 17.18 122 17.8 122 17.8 C 122 17.8 112.65 17.84 112.6 17.8 C 112.7 20.7 114.2 22.9 116.8 22.9 C 118.1 22.9 119.4 22.3 120.3 21.2 C 120.3 21.2 121.4 22.4 121.4 22.4 C 120.2 23.9 118.6 24.7 116.6 24.7 C 112.8 24.7 110.4 21.6 110.4 17.1 Z M 116.3 11.3 C 113.7 11.3 112.7 14.1 112.6 16.2 C 112.6 16.2 119.9 16.2 119.9 16.2 C 119.9 14 118.9 11.3 116.3 11.3 Z M 145.7 24.4 C 145.7 24.4 145.68 13.88 145.7 13.9 C 145.7 12.3 145 11.4 143.7 11.4 C 142.4 11.4 141.1 12.6 140.5 13.8 C 140.52 13.76 140.5 24.4 140.5 24.4 L 138.4 24.4 C 138.4 24.4 138.36 13.88 138.4 13.9 C 138.4 12.3 137.7 11.4 136.3 11.4 C 135 11.4 133.8 12.6 133.2 13.8 C 133.17 13.76 133.2 24.4 133.2 24.4 L 131 24.4 L 131 9.9 L 133.2 9.9 C 133.2 9.9 133.17 11.96 133.2 12 C 133.8 10.9 135.4 9.5 137.1 9.5 C 139 9.5 140.1 10.6 140.4 12.1 C 141.1 10.8 142.7 9.5 144.5 9.5 C 146.6 9.5 147.8 10.7 147.8 13.3 C 147.84 13.31 147.8 24.4 147.8 24.4 L 145.7 24.4 Z M 150.8 17.1 C 150.8 13 152.8 9.5 156.7 9.5 C 160.6 9.5 162.6 13 162.6 17.1 C 162.6 21.2 160.6 24.7 156.7 24.7 C 152.8 24.7 150.8 21.2 150.8 17.1 Z M 160.3 17.1 C 160.3 14.2 159.2 11.4 156.7 11.4 C 154.2 11.4 153 14.2 153 17.1 C 153 20.1 154.2 22.8 156.7 22.8 C 159.2 22.8 160.3 20.1 160.3 17.1 Z M 173.3 24.4 C 173.3 24.4 173.34 14.06 173.3 14.1 C 173.3 12.1 172.5 11.4 171 11.4 C 169.6 11.4 168.3 12.6 167.6 13.8 C 167.64 13.76 167.6 24.4 167.6 24.4 L 165.5 24.4 L 165.5 9.9 L 167.6 9.9 C 167.6 9.9 167.64 11.96 167.6 12 C 168.5 10.7 170.1 9.5 171.8 9.5 C 174.3 9.5 175.5 10.8 175.5 13.5 C 175.5 13.46 175.5 24.4 175.5 24.4 L 173.3 24.4 Z M 178.4 17.1 C 178.4 13 180.5 9.5 184.3 9.5 C 188.2 9.5 190.2 13 190.2 17.1 C 190.2 21.2 188.2 24.7 184.3 24.7 C 180.5 24.7 178.4 21.2 178.4 17.1 Z M 188 17.1 C 188 14.2 186.9 11.4 184.3 11.4 C 181.8 11.4 180.7 14.2 180.7 17.1 C 180.7 20.1 181.8 22.8 184.3 22.8 C 186.9 22.8 188 20.1 188 17.1 Z M 201 24.4 C 201 24.4 201.03 14.03 201 14 C 201 12.1 200.1 11.4 198.7 11.4 C 197.3 11.4 196 12.6 195.3 13.8 C 195.3 13.76 195.3 24.4 195.3 24.4 L 193.2 24.4 L 193.2 4.4 L 195.3 4.4 C 195.3 4.4 195.3 11.96 195.3 12 C 196.1 10.7 197.8 9.5 199.5 9.5 C 202 9.5 203.2 10.8 203.2 13.4 C 203.16 13.4 203.2 24.4 203.2 24.4 L 201 24.4 Z M 206.4 28.1 C 206.7 28.3 207.1 28.3 207.4 28.3 C 208.2 28.3 208.7 28 209.1 26.9 C 209.07 26.9 209.8 24.7 209.8 24.7 L 205 9.9 L 207.4 9.9 L 211 21.8 L 214.6 9.9 L 216.9 9.9 C 216.9 9.9 211.11 27.44 211.1 27.4 C 210.4 29.5 209.2 30.3 207.5 30.3 C 207.1 30.3 206.4 30.2 206.1 30 C 206.1 30 206.4 28.1 206.4 28.1 Z M 227 24.4 C 227 24.4 227.04 22.31 227 22.3 C 226.2 23.8 224.8 24.7 223.2 24.7 C 220 24.7 218 21.7 218 17.1 C 218 12.6 220 9.5 223.2 9.5 C 224.7 9.5 226.2 10.4 227 12 C 227.04 11.99 227 4.4 227 4.4 L 229.2 4.4 L 229.2 24.4 L 227 24.4 Z M 227 20.5 C 227 20.5 227 13.8 227 13.8 C 226.5 12.6 225.1 11.4 223.8 11.4 C 221.4 11.4 220.3 14 220.3 17.1 C 220.3 20.3 221.4 22.8 223.8 22.8 C 225.1 22.8 226.5 21.7 227 20.5 Z M 232.9 24.4 L 232.9 9.9 L 235 9.9 C 235 9.9 234.99 12.2 235 12.2 C 235.9 10.7 237.3 9.6 239.1 9.6 C 239.1 9.6 239.1 11.8 239.1 11.8 C 238.9 11.7 238.6 11.7 238.4 11.7 C 237.1 11.7 235.6 12.9 235 14.1 C 234.99 14.09 235 24.4 235 24.4 L 232.9 24.4 Z M 248.7 24.4 C 248.7 24.4 248.72 22.82 248.7 22.8 C 247.8 24.1 246.4 24.7 244.9 24.7 C 242.6 24.7 240.5 22.9 240.5 19.9 C 240.5 16.9 242.5 15.1 244.9 15.1 C 246.4 15.1 247.8 15.7 248.7 17 C 248.7 17 248.7 14.5 248.7 14.5 C 248.7 12.5 247.6 11.4 245.8 11.4 C 244.4 11.4 243.2 11.9 242.1 13.2 C 242.1 13.2 241.2 11.6 241.2 11.6 C 242.5 10.2 244.3 9.5 246.1 9.5 C 249 9.5 250.9 10.9 250.9 14.2 C 250.88 14.24 250.9 24.4 250.9 24.4 L 248.7 24.4 Z M 248.7 21.3 C 248.7 21.3 248.7 18.6 248.7 18.6 C 248.1 17.4 246.9 16.7 245.6 16.7 C 243.8 16.7 242.7 18.1 242.7 19.9 C 242.7 21.7 243.8 23.2 245.6 23.2 C 246.9 23.2 248.1 22.5 248.7 21.3 Z M 254.9 21.5 C 254.93 21.47 254.9 11.8 254.9 11.8 L 253 11.8 L 253 9.9 L 254.9 9.9 L 254.9 5.9 L 257.1 5.9 L 257.1 9.9 L 259.6 9.9 L 259.6 11.8 L 257.1 11.8 C 257.1 11.8 257.09 21.08 257.1 21.1 C 257.1 22.2 257.4 22.8 258.3 22.8 C 258.8 22.8 259.3 22.6 259.5 22.2 C 259.5 22.2 260.2 23.9 260.2 23.9 C 259.7 24.4 259 24.7 257.8 24.7 C 255.9 24.7 254.9 23.6 254.9 21.5 Z M 261.4 17.1 C 261.4 12.9 263.6 9.5 267.3 9.5 C 271.1 9.5 273 12.9 273 17.2 C 272.99 17.18 273 17.8 273 17.8 C 273 17.8 263.6 17.84 263.6 17.8 C 263.7 20.7 265.2 22.9 267.8 22.9 C 269 22.9 270.3 22.3 271.2 21.2 C 271.2 21.2 272.4 22.4 272.4 22.4 C 271.2 23.9 269.5 24.7 267.6 24.7 C 263.7 24.7 261.4 21.6 261.4 17.1 Z M 267.2 11.3 C 264.7 11.3 263.7 14.1 263.6 16.2 C 263.6 16.2 270.9 16.2 270.9 16.2 C 270.8 14 269.9 11.3 267.2 11.3 Z " stroke="none" fill="#d3d2d2"/>  </g></svg>