<?xml version="1.0" standalone="no"?><!DOCTYPE svg PUBLIC "-//W3C//DTD SVG 1.1//EN" "http://www.w3.org/Graphics/SVG/1.1/DTD/svg11.dtd"><svg xmlns="http://www.w3.org/2000/svg" version="1.1" width="651px" height="85.6px" viewBox="0 0 651 85.6">  <desc>Sweetened Leather Strips</desc>  <defs/>  <g id="Polygon196062">    <path d="M 0.7 44.2 C 0.7 44.2 4 38.2 4 38.2 C 5.6 40.3 8.2 41.4 10.6 41.4 C 13 41.4 14.6 39.6 14.6 37 C 14.6 29.9 1.9 29.9 1.9 17.9 C 1.9 11.9 5.9 6.7 13 6.7 C 16.4 6.7 19.5 7.9 21.7 10 C 21.7 10 18.8 15.8 18.8 15.8 C 17.2 14.2 15.4 13.4 13.3 13.4 C 11.1 13.4 9.5 15.1 9.5 17.5 C 9.5 23.7 22.3 24.5 22.3 36.5 C 22.3 43.3 17.9 48.1 11 48.1 C 6.7 48.1 3.3 46.7 0.7 44.2 Z M 45.8 47.4 L 41.6 27.7 L 37.5 47.4 L 30.4 47.4 L 23.7 18.4 L 30.7 18.4 L 34.4 38.2 L 38.2 18.4 L 44.7 18.4 L 48.8 38.2 L 52.5 18.4 L 59.6 18.4 L 52.9 47.4 L 45.8 47.4 Z M 61.5 32.9 C 61.5 24.5 65.1 17.7 72.4 17.7 C 79.7 17.7 82.7 24.2 82.7 32.8 C 82.74 32.76 82.7 35.1 82.7 35.1 C 82.7 35.1 68.04 35.1 68 35.1 C 68.1 39.4 69.9 42.6 73.7 42.6 C 75.4 42.6 77.2 41.5 78.5 39.7 C 78.5 39.7 81.8 43.5 81.8 43.5 C 79.6 46.4 76.3 48.1 73 48.1 C 65.5 48.1 61.5 41.8 61.5 32.9 Z M 72.2 23.2 C 68.9 23.2 68 27.3 68 30.4 C 68 30.4 76.2 30.4 76.2 30.4 C 76.2 27.1 75.5 23.2 72.2 23.2 Z M 85.7 32.9 C 85.7 24.5 89.3 17.7 96.6 17.7 C 103.9 17.7 107 24.2 107 32.8 C 106.98 32.76 107 35.1 107 35.1 C 107 35.1 92.28 35.1 92.3 35.1 C 92.3 39.4 94.1 42.6 98 42.6 C 99.6 42.6 101.5 41.5 102.8 39.7 C 102.8 39.7 106.1 43.5 106.1 43.5 C 103.8 46.4 100.6 48.1 97.3 48.1 C 89.7 48.1 85.7 41.8 85.7 32.9 Z M 96.4 23.2 C 93.1 23.2 92.3 27.3 92.3 30.4 C 92.3 30.4 100.4 30.4 100.4 30.4 C 100.4 27.1 99.7 23.2 96.4 23.2 Z M 112 40.7 C 112.02 40.74 112 24.3 112 24.3 L 109.3 24.3 L 109.3 18.4 L 112 18.4 L 112 10.5 L 118.8 10.5 L 118.8 18.4 L 122.5 18.4 L 122.5 24.3 L 118.8 24.3 C 118.8 24.3 118.8 39.42 118.8 39.4 C 118.8 41.2 119.2 42.1 120.4 42.1 C 121.1 42.1 121.7 41.8 122 41.3 C 122 41.3 123.4 46.6 123.4 46.6 C 122.4 47.5 120.8 48.1 118.7 48.1 C 113.9 48.1 112 45.7 112 40.7 Z M 125.5 32.9 C 125.5 24.5 129.1 17.7 136.3 17.7 C 143.6 17.7 146.7 24.2 146.7 32.8 C 146.7 32.76 146.7 35.1 146.7 35.1 C 146.7 35.1 132 35.1 132 35.1 C 132.1 39.4 133.9 42.6 137.7 42.6 C 139.3 42.6 141.2 41.5 142.5 39.7 C 142.5 39.7 145.8 43.5 145.8 43.5 C 143.5 46.4 140.3 48.1 137 48.1 C 129.4 48.1 125.5 41.8 125.5 32.9 Z M 136.1 23.2 C 132.8 23.2 132 27.3 132 30.4 C 132 30.4 140.2 30.4 140.2 30.4 C 140.2 27.1 139.4 23.2 136.1 23.2 Z M 163.7 47.4 C 163.7 47.4 163.74 26.76 163.7 26.8 C 163.7 24.7 163 23.7 161.5 23.7 C 159.8 23.7 158.3 25.6 157.6 27.5 C 157.62 27.48 157.6 47.4 157.6 47.4 L 150.8 47.4 L 150.8 18.4 L 157.6 18.4 C 157.6 18.4 157.62 22.2 157.6 22.2 C 158.8 19.9 161.8 17.7 164.4 17.7 C 168.8 17.7 170.6 20.3 170.6 24.3 C 170.58 24.3 170.6 47.4 170.6 47.4 L 163.7 47.4 Z M 174.9 32.9 C 174.9 24.5 178.5 17.7 185.8 17.7 C 193.1 17.7 196.1 24.2 196.1 32.8 C 196.14 32.76 196.1 35.1 196.1 35.1 C 196.1 35.1 181.44 35.1 181.4 35.1 C 181.5 39.4 183.3 42.6 187.1 42.6 C 188.8 42.6 190.6 41.5 191.9 39.7 C 191.9 39.7 195.2 43.5 195.2 43.5 C 193 46.4 189.7 48.1 186.4 48.1 C 178.9 48.1 174.9 41.8 174.9 32.9 Z M 185.6 23.2 C 182.3 23.2 181.4 27.3 181.4 30.4 C 181.4 30.4 189.6 30.4 189.6 30.4 C 189.6 27.1 188.9 23.2 185.6 23.2 Z M 213.4 47.4 C 213.4 47.4 213.36 43.8 213.4 43.8 C 212.1 46.7 209.8 48.1 207.7 48.1 C 202 48.1 199.1 42.2 199.1 32.9 C 199.1 23.8 202 17.7 207.7 17.7 C 209.8 17.7 212.2 19 213.4 22 C 213.36 22.02 213.4 7.4 213.4 7.4 L 220.1 7.4 L 220.1 47.4 L 213.4 47.4 Z M 213.4 38.6 C 213.4 38.6 213.4 27.2 213.4 27.2 C 212.8 25.3 211.4 23.7 209.9 23.7 C 206.9 23.7 206.1 27.8 206.1 32.9 C 206.1 38 206.9 42.1 209.9 42.1 C 211.4 42.1 212.8 40.6 213.4 38.6 Z M 235.8 47.4 L 235.8 7.4 L 243.4 7.4 L 243.4 40.7 L 253.3 40.7 L 253.3 47.4 L 235.8 47.4 Z M 255.7 32.9 C 255.7 24.5 259.3 17.7 266.5 17.7 C 273.8 17.7 276.9 24.2 276.9 32.8 C 276.9 32.76 276.9 35.1 276.9 35.1 C 276.9 35.1 262.2 35.1 262.2 35.1 C 262.3 39.4 264.1 42.6 267.9 42.6 C 269.5 42.6 271.4 41.5 272.7 39.7 C 272.7 39.7 276 43.5 276 43.5 C 273.7 46.4 270.5 48.1 267.2 48.1 C 259.6 48.1 255.7 41.8 255.7 32.9 Z M 266.3 23.2 C 263 23.2 262.2 27.3 262.2 30.4 C 262.2 30.4 270.4 30.4 270.4 30.4 C 270.4 27.1 269.6 23.2 266.3 23.2 Z M 293.6 47.4 C 293.6 47.4 293.64 44.64 293.6 44.6 C 292.4 46.9 289.7 48.1 287.6 48.1 C 283 48.1 279.7 44.4 279.7 38.5 C 279.7 32.6 283 29 287.6 29 C 289.7 29 292.4 30.1 293.6 32.3 C 293.6 32.3 293.6 28.7 293.6 28.7 C 293.6 25.4 292.3 23.5 289.3 23.5 C 287.3 23.5 285.3 24.4 283.4 26.3 C 283.4 26.3 280.9 21.5 280.9 21.5 C 283.5 18.7 287.6 17.7 290.6 17.7 C 296.6 17.7 300.4 20.7 300.4 27.2 C 300.42 27.18 300.4 47.4 300.4 47.4 L 293.6 47.4 Z M 293.6 40.6 C 293.6 40.6 293.6 36.7 293.6 36.7 C 292.9 34.9 291.5 33.7 290 33.7 C 287.6 33.7 286.5 35.8 286.5 38.6 C 286.5 41.3 287.6 43.6 290 43.6 C 291.5 43.6 292.9 42.4 293.6 40.6 Z M 306.8 40.7 C 306.84 40.74 306.8 24.3 306.8 24.3 L 304.1 24.3 L 304.1 18.4 L 306.8 18.4 L 306.8 10.5 L 313.6 10.5 L 313.6 18.4 L 317.3 18.4 L 317.3 24.3 L 313.6 24.3 C 313.6 24.3 313.62 39.42 313.6 39.4 C 313.6 41.2 314 42.1 315.2 42.1 C 315.9 42.1 316.5 41.8 316.9 41.3 C 316.9 41.3 318.2 46.6 318.2 46.6 C 317.2 47.5 315.6 48.1 313.5 48.1 C 308.8 48.1 306.8 45.7 306.8 40.7 Z M 334.3 47.4 C 334.3 47.4 334.31 26.64 334.3 26.6 C 334.3 24.7 333.6 23.7 332.1 23.7 C 330.4 23.7 328.9 25.6 328.2 27.5 C 328.19 27.48 328.2 47.4 328.2 47.4 L 321.4 47.4 L 321.4 7.4 L 328.2 7.4 C 328.2 7.4 328.19 22.2 328.2 22.2 C 329.3 19.9 332.3 17.7 335 17.7 C 339.4 17.7 341.2 20.1 341.2 24.2 C 341.15 24.24 341.2 47.4 341.2 47.4 L 334.3 47.4 Z M 345.5 32.9 C 345.5 24.5 349.1 17.7 356.3 17.7 C 363.7 17.7 366.7 24.2 366.7 32.8 C 366.71 32.76 366.7 35.1 366.7 35.1 C 366.7 35.1 352.01 35.1 352 35.1 C 352.1 39.4 353.9 42.6 357.7 42.6 C 359.3 42.6 361.2 41.5 362.5 39.7 C 362.5 39.7 365.8 43.5 365.8 43.5 C 363.5 46.4 360.3 48.1 357 48.1 C 349.4 48.1 345.5 41.8 345.5 32.9 Z M 356.2 23.2 C 352.9 23.2 352 27.3 352 30.4 C 352 30.4 360.2 30.4 360.2 30.4 C 360.2 27.1 359.5 23.2 356.2 23.2 Z M 370.9 47.4 L 370.9 18.4 L 377.6 18.4 C 377.6 18.4 377.63 22.44 377.6 22.4 C 378.8 19.8 381.6 17.7 384.1 17.7 C 384.1 17.7 384.1 24.4 384.1 24.4 C 383.7 24.2 383.2 24.2 382.8 24.2 C 380.8 24.2 378.8 25.8 377.6 27.9 C 377.63 27.9 377.6 47.4 377.6 47.4 L 370.9 47.4 Z M 395.4 44.2 C 395.4 44.2 398.7 38.2 398.7 38.2 C 400.3 40.3 402.9 41.4 405.2 41.4 C 407.6 41.4 409.3 39.6 409.3 37 C 409.3 29.9 396.5 29.9 396.5 17.9 C 396.5 11.9 400.6 6.7 407.7 6.7 C 411.1 6.7 414.2 7.9 416.4 10 C 416.4 10 413.5 15.8 413.5 15.8 C 411.9 14.2 410 13.4 407.9 13.4 C 405.8 13.4 404.2 15.1 404.2 17.5 C 404.2 23.7 416.9 24.5 416.9 36.5 C 416.9 43.3 412.6 48.1 405.7 48.1 C 401.3 48.1 398 46.7 395.4 44.2 Z M 421.5 40.7 C 421.49 40.74 421.5 24.3 421.5 24.3 L 418.8 24.3 L 418.8 18.4 L 421.5 18.4 L 421.5 10.5 L 428.3 10.5 L 428.3 18.4 L 431.9 18.4 L 431.9 24.3 L 428.3 24.3 C 428.3 24.3 428.27 39.42 428.3 39.4 C 428.3 41.2 428.7 42.1 429.9 42.1 C 430.6 42.1 431.2 41.8 431.5 41.3 C 431.5 41.3 432.9 46.6 432.9 46.6 C 431.9 47.5 430.3 48.1 428.2 48.1 C 423.4 48.1 421.5 45.7 421.5 40.7 Z M 436.1 47.4 L 436.1 18.4 L 442.9 18.4 C 442.9 18.4 442.85 22.44 442.9 22.4 C 444 19.8 446.8 17.7 449.3 17.7 C 449.3 17.7 449.3 24.4 449.3 24.4 C 448.9 24.2 448.4 24.2 448 24.2 C 446 24.2 444 25.8 442.9 27.9 C 442.85 27.9 442.9 47.4 442.9 47.4 L 436.1 47.4 Z M 452.1 10.9 C 452.1 8.6 454 6.8 456.2 6.8 C 458.5 6.8 460.4 8.6 460.4 10.9 C 460.4 13.2 458.5 15 456.2 15 C 454 15 452.1 13.2 452.1 10.9 Z M 452.9 47.4 L 452.9 18.4 L 459.7 18.4 L 459.7 47.4 L 452.9 47.4 Z M 471.9 43.8 C 471.89 43.8 471.9 58.4 471.9 58.4 L 465.1 58.4 L 465.1 18.4 L 471.9 18.4 C 471.9 18.4 471.89 22.02 471.9 22 C 473.2 19.1 475.5 17.7 477.5 17.7 C 483.2 17.7 486.1 23.6 486.1 32.9 C 486.1 42 483.2 48.1 477.5 48.1 C 475.5 48.1 473.1 46.8 471.9 43.8 Z M 479.2 32.9 C 479.2 27.8 478.3 23.7 475.3 23.7 C 473.9 23.7 472.5 25.1 471.9 27.1 C 471.9 27.1 471.9 38.6 471.9 38.6 C 472.5 40.6 473.9 42.1 475.3 42.1 C 478.3 42.1 479.2 38 479.2 32.9 Z M 488.5 44.3 C 488.5 44.3 491.3 39.7 491.3 39.7 C 492.8 41.4 495 42.8 497.3 42.8 C 499.4 42.8 500.9 41.6 500.9 39.7 C 500.9 34.9 489.5 36 489.5 25.9 C 489.5 21.5 492.8 17.7 498.7 17.7 C 502 17.7 505.1 19 507.2 21.1 C 507.2 21.1 504.5 25.7 504.5 25.7 C 503.3 24.3 501.2 23 498.9 23 C 497 23 495.8 24.2 495.8 25.7 C 495.8 30.1 507.4 29.3 507.4 39.5 C 507.4 44.6 503.4 48.1 497.9 48.1 C 493.6 48.1 490.4 46.6 488.5 44.3 Z " stroke="none" fill="#b13d24"/>  </g></svg>