<?xml version="1.0" standalone="no"?><!DOCTYPE svg PUBLIC "-//W3C//DTD SVG 1.1//EN" "http://www.w3.org/Graphics/SVG/1.1/DTD/svg11.dtd"><svg xmlns="http://www.w3.org/2000/svg" version="1.1" width="651px" height="85.6px" viewBox="0 0 651 85.6">  <desc>Golden Brown Savoury Sauce</desc>  <defs/>  <g id="Polygon183298">    <path d="M 1.9 27.4 C 1.9 15.1 5.8 6.7 14.4 6.7 C 20 6.7 23.1 11 24.4 16.1 C 24.4 16.1 18.4 18.4 18.4 18.4 C 17.8 15.6 16.7 13.4 14.4 13.4 C 11.4 13.4 9.6 17.8 9.6 27.4 C 9.6 37 11.4 41.4 14.4 41.4 C 16.1 41.4 17.2 40.7 18 39.6 C 18 39.6 18 32.3 18 32.3 L 13.5 32.3 L 13.5 25.7 L 24.7 25.7 C 24.7 25.7 24.66 42.84 24.7 42.8 C 22 46.2 18.9 48.1 14.4 48.1 C 5.8 48.1 1.9 39.7 1.9 27.4 Z M 28.8 32.9 C 28.8 24.8 32.1 17.7 39.7 17.7 C 47.3 17.7 50.6 24.8 50.6 32.9 C 50.6 40.9 47.3 48.1 39.7 48.1 C 32.1 48.1 28.8 40.9 28.8 32.9 Z M 43.6 32.9 C 43.6 28 42.7 23.7 39.7 23.7 C 36.7 23.7 35.8 28 35.8 32.9 C 35.8 37.9 36.7 42.1 39.7 42.1 C 42.7 42.1 43.6 37.9 43.6 32.9 Z M 55 47.4 L 55 7.4 L 61.7 7.4 L 61.7 47.4 L 55 47.4 Z M 80.3 47.4 C 80.3 47.4 80.28 43.8 80.3 43.8 C 79 46.7 76.7 48.1 74.6 48.1 C 68.9 48.1 66.1 42.2 66.1 32.9 C 66.1 23.8 68.9 17.7 74.6 17.7 C 76.7 17.7 79.1 19 80.3 22 C 80.28 22.02 80.3 7.4 80.3 7.4 L 87.1 7.4 L 87.1 47.4 L 80.3 47.4 Z M 80.3 38.6 C 80.3 38.6 80.3 27.2 80.3 27.2 C 79.7 25.3 78.3 23.7 76.9 23.7 C 73.9 23.7 73 27.8 73 32.9 C 73 38 73.9 42.1 76.9 42.1 C 78.3 42.1 79.7 40.6 80.3 38.6 Z M 91.4 32.9 C 91.4 24.5 95 17.7 102.3 17.7 C 109.6 17.7 112.7 24.2 112.7 32.8 C 112.68 32.76 112.7 35.1 112.7 35.1 C 112.7 35.1 97.98 35.1 98 35.1 C 98 39.4 99.8 42.6 103.7 42.6 C 105.3 42.6 107.2 41.5 108.5 39.7 C 108.5 39.7 111.8 43.5 111.8 43.5 C 109.5 46.4 106.3 48.1 103 48.1 C 95.4 48.1 91.4 41.8 91.4 32.9 Z M 102.1 23.2 C 98.8 23.2 98 27.3 98 30.4 C 98 30.4 106.1 30.4 106.1 30.4 C 106.1 27.1 105.4 23.2 102.1 23.2 Z M 129.7 47.4 C 129.7 47.4 129.72 26.76 129.7 26.8 C 129.7 24.7 129 23.7 127.5 23.7 C 125.8 23.7 124.3 25.6 123.6 27.5 C 123.6 27.48 123.6 47.4 123.6 47.4 L 116.8 47.4 L 116.8 18.4 L 123.6 18.4 C 123.6 18.4 123.6 22.2 123.6 22.2 C 124.7 19.9 127.7 17.7 130.4 17.7 C 134.8 17.7 136.6 20.3 136.6 24.3 C 136.56 24.3 136.6 47.4 136.6 47.4 L 129.7 47.4 Z M 152.2 47.4 L 152.2 7.4 C 152.2 7.4 164.22 7.38 164.2 7.4 C 170.9 7.4 173.8 12.1 173.8 17.6 C 173.8 22.6 171.4 25.7 167.9 26.8 C 171.7 27.4 174.4 31.7 174.4 36.6 C 174.4 42.7 171.5 47.4 164.6 47.4 C 164.64 47.4 152.2 47.4 152.2 47.4 Z M 166.1 18.9 C 166.1 16 165.1 14 162.2 14 C 162.24 14.04 159.7 14 159.7 14 L 159.7 23.7 C 159.7 23.7 162.24 23.7 162.2 23.7 C 165.1 23.7 166.1 21.8 166.1 18.9 Z M 166.6 35.5 C 166.6 32.6 165.3 30.4 162.5 30.4 C 162.48 30.36 159.7 30.4 159.7 30.4 L 159.7 40.7 C 159.7 40.7 162.48 40.74 162.5 40.7 C 165.3 40.7 166.6 38.9 166.6 35.5 Z M 178.9 47.4 L 178.9 18.4 L 185.7 18.4 C 185.7 18.4 185.7 22.44 185.7 22.4 C 186.8 19.8 189.7 17.7 192.2 17.7 C 192.2 17.7 192.2 24.4 192.2 24.4 C 191.8 24.2 191.3 24.2 190.9 24.2 C 188.9 24.2 186.8 25.8 185.7 27.9 C 185.7 27.9 185.7 47.4 185.7 47.4 L 178.9 47.4 Z M 194.6 32.9 C 194.6 24.8 197.9 17.7 205.4 17.7 C 213.1 17.7 216.4 24.8 216.4 32.9 C 216.4 40.9 213.1 48.1 205.4 48.1 C 197.9 48.1 194.6 40.9 194.6 32.9 Z M 209.3 32.9 C 209.3 28 208.5 23.7 205.4 23.7 C 202.4 23.7 201.6 28 201.6 32.9 C 201.6 37.9 202.4 42.1 205.4 42.1 C 208.5 42.1 209.3 37.9 209.3 32.9 Z M 240.4 47.4 L 236.2 27.7 L 232.1 47.4 L 224.9 47.4 L 218.3 18.4 L 225.3 18.4 L 229 38.2 L 232.7 18.4 L 239.3 18.4 L 243.4 38.2 L 247.1 18.4 L 254.2 18.4 L 247.4 47.4 L 240.4 47.4 Z M 270.1 47.4 C 270.1 47.4 270.12 26.76 270.1 26.8 C 270.1 24.7 269.4 23.7 267.9 23.7 C 266.2 23.7 264.7 25.6 264 27.5 C 264 27.48 264 47.4 264 47.4 L 257.2 47.4 L 257.2 18.4 L 264 18.4 C 264 18.4 264 22.2 264 22.2 C 265.1 19.9 268.1 17.7 270.8 17.7 C 275.2 17.7 277 20.3 277 24.3 C 276.96 24.3 277 47.4 277 47.4 L 270.1 47.4 Z M 290.2 44.2 C 290.2 44.2 293.5 38.2 293.5 38.2 C 295.1 40.3 297.7 41.4 300 41.4 C 302.4 41.4 304 39.6 304 37 C 304 29.9 291.3 29.9 291.3 17.9 C 291.3 11.9 295.4 6.7 302.5 6.7 C 305.8 6.7 308.9 7.9 311.2 10 C 311.2 10 308.2 15.8 308.2 15.8 C 306.7 14.2 304.8 13.4 302.7 13.4 C 300.5 13.4 299 15.1 299 17.5 C 299 23.7 311.7 24.5 311.7 36.5 C 311.7 43.3 307.3 48.1 300.5 48.1 C 296.1 48.1 292.7 46.7 290.2 44.2 Z M 328.6 47.4 C 328.6 47.4 328.55 44.64 328.6 44.6 C 327.3 46.9 324.6 48.1 322.5 48.1 C 317.9 48.1 314.6 44.4 314.6 38.5 C 314.6 32.6 317.9 29 322.5 29 C 324.6 29 327.4 30.1 328.6 32.3 C 328.6 32.3 328.6 28.7 328.6 28.7 C 328.6 25.4 327.2 23.5 324.2 23.5 C 322.3 23.5 320.2 24.4 318.3 26.3 C 318.3 26.3 315.8 21.5 315.8 21.5 C 318.4 18.7 322.6 17.7 325.6 17.7 C 331.5 17.7 335.3 20.7 335.3 27.2 C 335.33 27.18 335.3 47.4 335.3 47.4 L 328.6 47.4 Z M 328.6 40.6 C 328.6 40.6 328.6 36.7 328.6 36.7 C 327.8 34.9 326.4 33.7 324.9 33.7 C 322.6 33.7 321.4 35.8 321.4 38.6 C 321.4 41.3 322.6 43.6 324.9 43.6 C 326.4 43.6 327.8 42.4 328.6 40.6 Z M 345.8 47.4 L 338.2 18.4 L 345.4 18.4 L 349.5 38.9 L 353.7 18.4 L 360.8 18.4 L 353.2 47.4 L 345.8 47.4 Z M 362.5 32.9 C 362.5 24.8 365.8 17.7 373.4 17.7 C 381 17.7 384.3 24.8 384.3 32.9 C 384.3 40.9 381 48.1 373.4 48.1 C 365.8 48.1 362.5 40.9 362.5 32.9 Z M 377.3 32.9 C 377.3 28 376.4 23.7 373.4 23.7 C 370.4 23.7 369.5 28 369.5 32.9 C 369.5 37.9 370.4 42.1 373.4 42.1 C 376.4 42.1 377.3 37.9 377.3 32.9 Z M 401.6 47.4 C 401.6 47.4 401.57 43.74 401.6 43.7 C 400.4 46.1 397.6 48.1 394.8 48.1 C 390.4 48.1 388.7 45.7 388.7 41.6 C 388.67 41.58 388.7 18.4 388.7 18.4 L 395.5 18.4 C 395.5 18.4 395.45 39.18 395.5 39.2 C 395.5 41.2 396.2 42.1 397.7 42.1 C 399.4 42.1 400.9 40.3 401.6 38.5 C 401.57 38.46 401.6 18.4 401.6 18.4 L 408.4 18.4 L 408.4 47.4 L 401.6 47.4 Z M 413.9 47.4 L 413.9 18.4 L 420.7 18.4 C 420.7 18.4 420.65 22.44 420.7 22.4 C 421.8 19.8 424.6 17.7 427.1 17.7 C 427.1 17.7 427.1 24.4 427.1 24.4 C 426.7 24.2 426.2 24.2 425.8 24.2 C 423.8 24.2 421.8 25.8 420.7 27.9 C 420.65 27.9 420.7 47.4 420.7 47.4 L 413.9 47.4 Z M 431.3 52.9 C 431.7 53 432.3 53.2 432.7 53.2 C 433.9 53.2 434.6 52.6 435.1 51.1 C 435.05 51.12 435.9 48.1 435.9 48.1 L 428 18.4 L 435.2 18.4 L 439.3 38.8 L 443.5 18.4 L 450.7 18.4 C 450.7 18.4 441.53 52.5 441.5 52.5 C 440.1 57.8 437.8 59.2 433.6 59.2 C 432.6 59.2 431 59 430.3 58.7 C 430.3 58.7 431.3 52.9 431.3 52.9 Z M 461.2 44.2 C 461.2 44.2 464.5 38.2 464.5 38.2 C 466.1 40.3 468.7 41.4 471.1 41.4 C 473.5 41.4 475.1 39.6 475.1 37 C 475.1 29.9 462.4 29.9 462.4 17.9 C 462.4 11.9 466.4 6.7 473.5 6.7 C 476.9 6.7 480 7.9 482.2 10 C 482.2 10 479.3 15.8 479.3 15.8 C 477.7 14.2 475.9 13.4 473.8 13.4 C 471.6 13.4 470 15.1 470 17.5 C 470 23.7 482.8 24.5 482.8 36.5 C 482.8 43.3 478.4 48.1 471.5 48.1 C 467.2 48.1 463.8 46.7 461.2 44.2 Z M 499.6 47.4 C 499.6 47.4 499.61 44.64 499.6 44.6 C 498.4 46.9 495.7 48.1 493.6 48.1 C 489 48.1 485.7 44.4 485.7 38.5 C 485.7 32.6 489 29 493.6 29 C 495.7 29 498.4 30.1 499.6 32.3 C 499.6 32.3 499.6 28.7 499.6 28.7 C 499.6 25.4 498.3 23.5 495.2 23.5 C 493.3 23.5 491.3 24.4 489.4 26.3 C 489.4 26.3 486.8 21.5 486.8 21.5 C 489.5 18.7 493.6 17.7 496.6 17.7 C 502.6 17.7 506.4 20.7 506.4 27.2 C 506.39 27.18 506.4 47.4 506.4 47.4 L 499.6 47.4 Z M 499.6 40.6 C 499.6 40.6 499.6 36.7 499.6 36.7 C 498.9 34.9 497.5 33.7 496 33.7 C 493.6 33.7 492.5 35.8 492.5 38.6 C 492.5 41.3 493.6 43.6 496 43.6 C 497.5 43.6 498.9 42.4 499.6 40.6 Z M 524.8 47.4 C 524.8 47.4 524.81 43.74 524.8 43.7 C 523.7 46.1 520.9 48.1 518 48.1 C 513.7 48.1 511.9 45.7 511.9 41.6 C 511.91 41.58 511.9 18.4 511.9 18.4 L 518.7 18.4 C 518.7 18.4 518.69 39.18 518.7 39.2 C 518.7 41.2 519.4 42.1 520.9 42.1 C 522.7 42.1 524.2 40.3 524.8 38.5 C 524.81 38.46 524.8 18.4 524.8 18.4 L 531.7 18.4 L 531.7 47.4 L 524.8 47.4 Z M 536 32.9 C 536 24.1 540.1 17.7 547 17.7 C 550.3 17.7 552.7 18.9 554 20.3 C 554 20.3 551.9 25.6 551.9 25.6 C 550.7 24.3 549.6 23.7 548.2 23.7 C 544.7 23.7 542.9 27.8 542.9 32.9 C 542.9 37.9 544.7 42.1 548.2 42.1 C 549.6 42.1 550.7 41.5 551.9 40.3 C 551.9 40.3 554 45.5 554 45.5 C 552.7 47 550.3 48.1 547 48.1 C 540.1 48.1 536 41.7 536 32.9 Z M 556.6 32.9 C 556.6 24.5 560.2 17.7 567.5 17.7 C 574.8 17.7 577.9 24.2 577.9 32.8 C 577.85 32.76 577.9 35.1 577.9 35.1 C 577.9 35.1 563.15 35.1 563.2 35.1 C 563.2 39.4 565 42.6 568.9 42.6 C 570.5 42.6 572.3 41.5 573.7 39.7 C 573.7 39.7 577 43.5 577 43.5 C 574.7 46.4 571.4 48.1 568.1 48.1 C 560.6 48.1 556.6 41.8 556.6 32.9 Z M 567.3 23.2 C 564 23.2 563.2 27.3 563.2 30.4 C 563.2 30.4 571.3 30.4 571.3 30.4 C 571.3 27.1 570.6 23.2 567.3 23.2 Z " stroke="none" fill="#b13d24"/>  </g></svg>