<?xml version="1.0" standalone="no"?><!DOCTYPE svg PUBLIC "-//W3C//DTD SVG 1.1//EN" "http://www.w3.org/Graphics/SVG/1.1/DTD/svg11.dtd"><svg xmlns="http://www.w3.org/2000/svg" version="1.1" width="191px" height="44.3px" viewBox="0 0 191 44.3">  <desc>6 hours</desc>  <defs/>  <g id="Polygon147231">    <path d="M 52.4 14.3 L 52.4 19.5 L 50 19.5 L 50 14.3 L 45.4 14.3 L 45.4 12 L 50 12 L 50 7 L 52.4 7 L 52.4 12 L 57 12 L 57 14.3 L 52.4 14.3 Z M 45.4 23.3 L 45.4 21.1 L 57 21.1 L 57 23.3 L 45.4 23.3 Z M 60.1 13.7 C 60.1 7.7 62.9 3.4 68.1 3.4 C 70.2 3.4 72 4.2 73.2 5.5 C 73.2 5.5 71.3 8.5 71.3 8.5 C 70.5 7.5 69.6 7 68.1 7 C 65.7 7 64.2 9.7 64.2 12.9 C 64.2 13.1 64.2 13.1 64.2 13.3 C 64.9 11.9 66.5 10.7 68.4 10.7 C 71.4 10.7 74 13 74 17.2 C 74 21.1 71.4 24.1 67.5 24.1 C 62.1 24.1 60.1 19.3 60.1 13.7 Z M 69.9 17.4 C 69.9 15.1 68.6 14.2 67.2 14.2 C 65.9 14.2 64.8 15.1 64.2 16.2 C 64.3 18.1 65 20.5 67.2 20.5 C 69 20.5 69.9 18.9 69.9 17.4 Z M 90.9 23.7 C 90.9 23.7 90.94 14.1 90.9 14.1 C 90.9 12.6 90.2 12 89 12 C 87.9 12 86.9 13 86.4 13.8 C 86.41 13.83 86.4 23.7 86.4 23.7 L 82.8 23.7 L 82.8 3.7 L 86.4 3.7 C 86.4 3.7 86.41 11.1 86.4 11.1 C 87.2 10 88.8 8.8 90.6 8.8 C 93.3 8.8 94.5 10.3 94.5 12.7 C 94.54 12.75 94.5 23.7 94.5 23.7 L 90.9 23.7 Z M 97 16.4 C 97 12.4 99.3 8.8 103.6 8.8 C 107.9 8.8 110.1 12.4 110.1 16.4 C 110.1 20.5 107.9 24.1 103.6 24.1 C 99.3 24.1 97 20.5 97 16.4 Z M 106.4 16.4 C 106.4 14.1 105.6 12 103.6 12 C 101.7 12 100.8 14.1 100.8 16.4 C 100.8 18.8 101.7 20.9 103.6 20.9 C 105.6 20.9 106.4 18.8 106.4 16.4 Z M 120.8 23.7 C 120.8 23.7 120.76 21.87 120.8 21.9 C 120 23 118.4 24.1 116.5 24.1 C 113.8 24.1 112.6 22.6 112.6 20.2 C 112.63 20.16 112.6 9.2 112.6 9.2 L 116.2 9.2 C 116.2 9.2 116.23 18.78 116.2 18.8 C 116.2 20.3 117 20.9 118.2 20.9 C 119.3 20.9 120.3 20 120.8 19.1 C 120.76 19.11 120.8 9.2 120.8 9.2 L 124.4 9.2 L 124.4 23.7 L 120.8 23.7 Z M 127.6 23.7 L 127.6 9.2 L 131.2 9.2 C 131.2 9.2 131.2 11.19 131.2 11.2 C 132 9.9 133.6 8.8 135.2 8.8 C 135.2 8.8 135.2 12.4 135.2 12.4 C 134.9 12.3 134.6 12.3 134.3 12.3 C 133.2 12.3 131.8 13 131.2 14 C 131.2 14.04 131.2 23.7 131.2 23.7 L 127.6 23.7 Z M 136.1 22 C 136.1 22 137.6 19.5 137.6 19.5 C 138.5 20.4 140.1 21.2 141.6 21.2 C 143 21.2 143.7 20.6 143.7 19.7 C 143.7 17.3 136.6 18.6 136.6 13.2 C 136.6 10.9 138.5 8.8 141.9 8.8 C 143.9 8.8 145.6 9.6 146.9 10.7 C 146.9 10.7 145.5 13.1 145.5 13.1 C 144.7 12.3 143.4 11.6 141.9 11.6 C 140.8 11.6 140 12.2 140 13 C 140 15.2 147.2 14.1 147.2 19.6 C 147.2 22.2 145.1 24.1 141.7 24.1 C 139.3 24.1 137.3 23.3 136.1 22 Z " stroke="none" fill="#d3d2d2"/>  </g></svg>