<?xml version="1.0" standalone="no"?><!DOCTYPE svg PUBLIC "-//W3C//DTD SVG 1.1//EN" "http://www.w3.org/Graphics/SVG/1.1/DTD/svg11.dtd"><svg xmlns="http://www.w3.org/2000/svg" version="1.1" width="327px" height="36px" viewBox="0 0 327 36">  <desc>FROM THE ARCHIVE</desc>  <defs/>  <g id="Polygon145306">    <path d="M 70.4 19 L 70.4 3 L 79.6 3 L 79.6 5.8 L 73.6 5.8 L 73.6 9.4 L 79.4 9.4 L 79.4 12.2 L 73.6 12.2 L 73.6 19 L 70.4 19 Z M 89.2 19 L 86.7 13.2 L 85 13.2 L 85 19 L 81.8 19 L 81.8 3 C 81.8 3 87.74 2.95 87.7 3 C 90.7 3 92.6 5.1 92.6 8 C 92.6 10.8 91.1 12.2 89.8 12.6 C 89.83 12.6 92.7 19 92.7 19 L 89.2 19 Z M 89.3 8.1 C 89.3 6.7 88.5 5.8 87.3 5.8 C 87.26 5.78 85 5.8 85 5.8 L 85 10.3 C 85 10.3 87.26 10.34 87.3 10.3 C 88.5 10.3 89.3 9.5 89.3 8.1 Z M 94.3 11 C 94.3 6.2 96.8 2.7 101 2.7 C 105.2 2.7 107.7 6.2 107.7 11 C 107.7 15.7 105.2 19.2 101 19.2 C 96.8 19.2 94.3 15.7 94.3 11 Z M 104.4 11 C 104.4 7.9 103.2 5.5 101 5.5 C 98.8 5.5 97.7 7.9 97.7 11 C 97.7 14 98.8 16.4 101 16.4 C 103.2 16.4 104.4 14 104.4 11 Z M 121.5 19 L 121.5 8.6 L 118 19 L 116.7 19 L 113.1 8.6 L 113.1 19 L 109.9 19 L 109.9 3 L 114.2 3 L 117.3 11.9 L 120.5 3 L 124.7 3 L 124.7 19 L 121.5 19 Z M 135.3 19 L 135.3 5.8 L 131.7 5.8 L 131.7 3 L 142 3 L 142 5.8 L 138.5 5.8 L 138.5 19 L 135.3 19 Z M 152.5 19 L 152.5 12.1 L 147.2 12.1 L 147.2 19 L 143.9 19 L 143.9 3 L 147.2 3 L 147.2 9.3 L 152.5 9.3 L 152.5 3 L 155.7 3 L 155.7 19 L 152.5 19 Z M 158.5 19 L 158.5 3 L 167.7 3 L 167.7 5.8 L 161.8 5.8 L 161.8 9.4 L 167.5 9.4 L 167.5 12.2 L 161.8 12.2 L 161.8 16.1 L 167.7 16.1 L 167.7 19 L 158.5 19 Z M 183.5 19 L 182.8 16.1 L 177.9 16.1 L 177.1 19 L 173.7 19 L 178.4 3 L 182.3 3 L 187 19 L 183.5 19 Z M 180.4 6.3 L 178.5 13.3 L 182.2 13.3 L 180.4 6.3 Z M 195.8 19 L 193.4 13.2 L 191.6 13.2 L 191.6 19 L 188.4 19 L 188.4 3 C 188.4 3 194.39 2.95 194.4 3 C 197.3 3 199.3 5.1 199.3 8 C 199.3 10.8 197.8 12.2 196.5 12.6 C 196.48 12.6 199.4 19 199.4 19 L 195.8 19 Z M 196 8.1 C 196 6.7 195.2 5.8 193.9 5.8 C 193.91 5.78 191.6 5.8 191.6 5.8 L 191.6 10.3 C 191.6 10.3 193.91 10.34 193.9 10.3 C 195.2 10.3 196 9.5 196 8.1 Z M 201 11 C 201 6.1 203.6 2.7 207.8 2.7 C 210.8 2.7 212.3 4.7 213.1 6.5 C 213.1 6.5 210.4 7.7 210.4 7.7 C 210 6.4 209 5.5 207.8 5.5 C 205.6 5.5 204.3 7.8 204.3 11 C 204.3 14.1 205.6 16.4 207.8 16.4 C 209.1 16.4 210 15.4 210.5 14.1 C 210.5 14.1 213.1 15.2 213.1 15.2 C 212.3 17.1 210.9 19.2 207.8 19.2 C 203.6 19.2 201 15.8 201 11 Z M 223.6 19 L 223.6 12.1 L 218.2 12.1 L 218.2 19 L 215 19 L 215 3 L 218.2 3 L 218.2 9.3 L 223.6 9.3 L 223.6 3 L 226.8 3 L 226.8 19 L 223.6 19 Z M 229.6 19 L 229.6 3 L 232.8 3 L 232.8 19 L 229.6 19 Z M 239 19 L 234.2 3 L 237.7 3 L 240.9 15.2 L 244.1 3 L 247.6 3 L 242.8 19 L 239 19 Z M 249 19 L 249 3 L 258.1 3 L 258.1 5.8 L 252.2 5.8 L 252.2 9.4 L 258 9.4 L 258 12.2 L 252.2 12.2 L 252.2 16.1 L 258.1 16.1 L 258.1 19 L 249 19 Z " stroke="none" fill="#a8a6a6"/>  </g></svg>