<?xml version="1.0" standalone="no"?><!DOCTYPE svg PUBLIC "-//W3C//DTD SVG 1.1//EN" "http://www.w3.org/Graphics/SVG/1.1/DTD/svg11.dtd"><svg xmlns="http://www.w3.org/2000/svg" version="1.1" width="191px" height="44.3px" viewBox="0 0 191 44.3">  <desc>46 hrs 30 mins</desc>  <defs/>  <g id="Polygon189662">    <path d="M 17.5 23.7 L 17.5 19.4 L 9.3 19.4 L 9.3 16.1 L 16.3 3.7 L 21.5 3.7 L 21.5 15.9 L 23.5 15.9 L 23.5 19.4 L 21.5 19.4 L 21.5 23.7 L 17.5 23.7 Z M 17.5 7.8 L 12.9 15.9 L 17.5 15.9 L 17.5 7.8 Z M 25.1 13.7 C 25.1 7.7 27.9 3.4 33.1 3.4 C 35.2 3.4 37.1 4.2 38.2 5.5 C 38.2 5.5 36.3 8.5 36.3 8.5 C 35.5 7.5 34.6 7 33.2 7 C 30.7 7 29.2 9.7 29.2 12.9 C 29.2 13.1 29.2 13.1 29.2 13.3 C 29.9 11.9 31.5 10.7 33.4 10.7 C 36.4 10.7 39 13 39 17.2 C 39 21.1 36.4 24.1 32.5 24.1 C 27.2 24.1 25.1 19.3 25.1 13.7 Z M 35 17.4 C 35 15.1 33.6 14.2 32.2 14.2 C 30.9 14.2 29.9 15.1 29.2 16.2 C 29.3 18.1 30 20.5 32.2 20.5 C 34.1 20.5 35 18.9 35 17.4 Z M 56 23.7 C 56 23.7 55.96 14.1 56 14.1 C 56 12.6 55.2 12 54 12 C 52.9 12 51.9 13 51.4 13.8 C 51.43 13.83 51.4 23.7 51.4 23.7 L 47.8 23.7 L 47.8 3.7 L 51.4 3.7 C 51.4 3.7 51.43 11.1 51.4 11.1 C 52.2 10 53.8 8.8 55.7 8.8 C 58.4 8.8 59.6 10.3 59.6 12.7 C 59.56 12.75 59.6 23.7 59.6 23.7 L 56 23.7 Z M 62.8 23.7 L 62.8 9.2 L 66.4 9.2 C 66.4 9.2 66.4 11.19 66.4 11.2 C 67.2 9.9 68.8 8.8 70.4 8.8 C 70.4 8.8 70.4 12.4 70.4 12.4 C 70.1 12.3 69.8 12.3 69.5 12.3 C 68.4 12.3 67 13 66.4 14 C 66.4 14.04 66.4 23.7 66.4 23.7 L 62.8 23.7 Z M 71.3 22 C 71.3 22 72.8 19.5 72.8 19.5 C 73.7 20.4 75.3 21.2 76.8 21.2 C 78.2 21.2 78.9 20.6 78.9 19.7 C 78.9 17.3 71.8 18.6 71.8 13.2 C 71.8 10.9 73.7 8.8 77.1 8.8 C 79.1 8.8 80.8 9.6 82.1 10.7 C 82.1 10.7 80.7 13.1 80.7 13.1 C 79.9 12.3 78.6 11.6 77.1 11.6 C 76 11.6 75.2 12.2 75.2 13 C 75.2 15.2 82.4 14.1 82.4 19.6 C 82.4 22.2 80.3 24.1 76.9 24.1 C 74.5 24.1 72.5 23.3 71.3 22 Z M 90 20.8 C 90 20.8 92.4 18.3 92.4 18.3 C 93.5 19.6 95.1 20.5 96.7 20.5 C 98.8 20.5 99.8 19.4 99.8 17.8 C 99.8 16 98.5 15.3 96.6 15.3 C 95.9 15.3 95 15.3 94.7 15.4 C 94.7 15.4 94.7 11.7 94.7 11.7 C 95 11.8 96 11.8 96.5 11.8 C 98.3 11.8 99.5 11 99.5 9.4 C 99.5 7.8 98.3 7 96.6 7 C 95 7 93.6 7.7 92.6 9 C 92.6 9 90.3 6.6 90.3 6.6 C 91.8 4.6 94 3.4 96.9 3.4 C 100.9 3.4 103.5 5.3 103.5 8.8 C 103.5 11.1 101.8 13 99.7 13.4 C 101.7 13.7 103.8 15.5 103.8 18.2 C 103.8 21.7 101.1 24.1 96.9 24.1 C 93.7 24.1 91.3 22.6 90 20.8 Z M 105.8 13.7 C 105.8 8.5 107.9 3.4 112.9 3.4 C 117.9 3.4 120 8.5 120 13.7 C 120 18.8 117.9 24.1 112.9 24.1 C 107.9 24.1 105.8 18.8 105.8 13.7 Z M 115.9 13.7 C 115.9 9.8 115.2 7 112.9 7 C 110.6 7 109.9 9.8 109.9 13.7 C 109.9 17.5 110.6 20.5 112.9 20.5 C 115.2 20.5 115.9 17.5 115.9 13.7 Z M 144.3 23.7 C 144.3 23.7 144.34 13.95 144.3 13.9 C 144.3 12.7 143.8 12 142.7 12 C 141.6 12 140.7 13 140.2 13.8 C 140.2 13.83 140.2 23.7 140.2 23.7 L 136.6 23.7 C 136.6 23.7 136.6 13.95 136.6 13.9 C 136.6 12.8 136.1 12 135 12 C 133.8 12 132.9 13 132.5 13.8 C 132.46 13.83 132.5 23.7 132.5 23.7 L 128.9 23.7 L 128.9 9.2 L 132.5 9.2 C 132.5 9.2 132.46 11.1 132.5 11.1 C 133 10.1 134.7 8.8 136.5 8.8 C 138.4 8.8 139.7 9.7 140.1 11.4 C 140.7 10.1 142.5 8.8 144.3 8.8 C 146.5 8.8 147.9 10 147.9 12.7 C 147.94 12.69 147.9 23.7 147.9 23.7 L 144.3 23.7 Z M 150.8 5.4 C 150.8 4.2 151.8 3.2 153 3.2 C 154.2 3.2 155.1 4.2 155.1 5.4 C 155.1 6.6 154.2 7.6 153 7.6 C 151.8 7.6 150.8 6.6 150.8 5.4 Z M 151.2 23.7 L 151.2 9.2 L 154.8 9.2 L 154.8 23.7 L 151.2 23.7 Z M 166.1 23.7 C 166.1 23.7 166.15 14.16 166.1 14.2 C 166.1 12.6 165.5 12 164.3 12 C 163.1 12 162.1 13 161.6 13.8 C 161.62 13.83 161.6 23.7 161.6 23.7 L 158 23.7 L 158 9.2 L 161.6 9.2 C 161.6 9.2 161.62 11.1 161.6 11.1 C 162.4 10 164 8.8 165.9 8.8 C 168.5 8.8 169.7 10.4 169.7 12.8 C 169.75 12.81 169.7 23.7 169.7 23.7 L 166.1 23.7 Z M 171.9 22 C 171.9 22 173.4 19.5 173.4 19.5 C 174.3 20.4 176 21.2 177.4 21.2 C 178.8 21.2 179.6 20.6 179.6 19.7 C 179.6 17.3 172.4 18.6 172.4 13.2 C 172.4 10.9 174.3 8.8 177.7 8.8 C 179.7 8.8 181.4 9.6 182.7 10.7 C 182.7 10.7 181.3 13.1 181.3 13.1 C 180.5 12.3 179.2 11.6 177.7 11.6 C 176.6 11.6 175.8 12.2 175.8 13 C 175.8 15.2 183 14.1 183 19.6 C 183 22.2 180.9 24.1 177.5 24.1 C 175.1 24.1 173.1 23.3 171.9 22 Z " stroke="none" fill="#d3d2d2"/>  </g></svg>