<?xml version="1.0" standalone="no"?><!DOCTYPE svg PUBLIC "-//W3C//DTD SVG 1.1//EN" "http://www.w3.org/Graphics/SVG/1.1/DTD/svg11.dtd"><svg xmlns="http://www.w3.org/2000/svg" version="1.1" width="494px" height="403.3px" viewBox="0 0 494 403.3">  <desc>Acrylic paint, Burnt Umber Acrylic paint, Cadmium Yellow Acrylic paint, Leaf Green Acrylic paint, Vermillion Cellulos</desc>  <defs/>  <g id="Polygon221337">    <path d="M 2.1 384.4 L 2.1 364.4 C 2.1 364.4 8.19 364.37 8.2 364.4 C 11.8 364.4 13.7 367.1 13.7 370.4 C 13.7 373.6 11.8 376.4 8.2 376.4 C 8.19 376.37 4.5 376.4 4.5 376.4 L 4.5 384.4 L 2.1 384.4 Z M 11.3 370.4 C 11.3 368.1 10 366.5 7.9 366.5 C 7.95 366.47 4.5 366.5 4.5 366.5 L 4.5 374.3 C 4.5 374.3 7.95 374.27 7.9 374.3 C 10 374.3 11.3 372.6 11.3 370.4 Z M 15.1 377.1 C 15.1 373 17.1 369.5 20.9 369.5 C 24.8 369.5 26.9 373 26.9 377.1 C 26.9 381.2 24.8 384.7 20.9 384.7 C 17.1 384.7 15.1 381.2 15.1 377.1 Z M 24.6 377.1 C 24.6 374.2 23.5 371.4 20.9 371.4 C 18.5 371.4 17.3 374.2 17.3 377.1 C 17.3 380.1 18.5 382.8 20.9 382.8 C 23.5 382.8 24.6 380.1 24.6 377.1 Z M 29.8 384.4 L 29.8 364.4 L 31.9 364.4 L 31.9 384.4 L 29.8 384.4 Z M 35.2 388.1 C 35.4 388.3 35.9 388.3 36.1 388.3 C 37 388.3 37.4 388 37.8 386.9 C 37.83 386.9 38.6 384.7 38.6 384.7 L 33.8 369.9 L 36.1 369.9 L 39.7 381.8 L 43.3 369.9 L 45.7 369.9 C 45.7 369.9 39.87 387.44 39.9 387.4 C 39.1 389.5 38 390.3 36.3 390.3 C 35.8 390.3 35.2 390.2 34.8 390 C 34.8 390 35.2 388.1 35.2 388.1 Z M 50.5 384.4 L 45.7 369.9 L 48.1 369.9 L 51.7 381.8 L 55.3 369.9 L 57.6 369.9 L 52.8 384.4 L 50.5 384.4 Z M 59 366.3 C 59 365.5 59.7 364.8 60.5 364.8 C 61.3 364.8 62 365.5 62 366.3 C 62 367.1 61.3 367.8 60.5 367.8 C 59.7 367.8 59 367.1 59 366.3 Z M 59.5 384.4 L 59.5 369.9 L 61.6 369.9 L 61.6 384.4 L 59.5 384.4 Z M 73.1 384.4 C 73.1 384.4 73.08 374.06 73.1 374.1 C 73.1 372.1 72.2 371.4 70.8 371.4 C 69.4 371.4 68 372.6 67.4 373.8 C 67.38 373.76 67.4 384.4 67.4 384.4 L 65.2 384.4 L 65.2 369.9 L 67.4 369.9 C 67.4 369.9 67.38 371.96 67.4 372 C 68.2 370.7 69.8 369.5 71.6 369.5 C 74 369.5 75.2 370.8 75.2 373.5 C 75.24 373.46 75.2 384.4 75.2 384.4 L 73.1 384.4 Z M 78.5 388.1 C 78.7 388.3 79.2 388.3 79.4 388.3 C 80.3 388.3 80.8 388 81.1 386.9 C 81.15 386.9 81.9 384.7 81.9 384.7 L 77.1 369.9 L 79.4 369.9 L 83 381.8 L 86.7 369.9 L 89 369.9 C 89 369.9 83.19 387.44 83.2 387.4 C 82.5 389.5 81.3 390.3 79.6 390.3 C 79.1 390.3 78.5 390.2 78.1 390 C 78.1 390 78.5 388.1 78.5 388.1 Z M 90.8 384.4 L 90.8 364.4 L 93 364.4 L 93 384.4 L 90.8 384.4 Z M 110.2 384.4 C 110.2 384.4 110.22 382.82 110.2 382.8 C 109.3 384.1 107.9 384.7 106.4 384.7 C 104.1 384.7 102 382.9 102 379.9 C 102 376.9 104 375.1 106.4 375.1 C 107.9 375.1 109.3 375.7 110.2 377 C 110.2 377 110.2 374.5 110.2 374.5 C 110.2 372.5 109.1 371.4 107.2 371.4 C 105.9 371.4 104.7 371.9 103.6 373.2 C 103.6 373.2 102.7 371.6 102.7 371.6 C 104 370.2 105.7 369.5 107.6 369.5 C 110.5 369.5 112.4 370.9 112.4 374.2 C 112.38 374.24 112.4 384.4 112.4 384.4 L 110.2 384.4 Z M 110.2 381.3 C 110.2 381.3 110.2 378.6 110.2 378.6 C 109.6 377.4 108.4 376.7 107.1 376.7 C 105.3 376.7 104.2 378.1 104.2 379.9 C 104.2 381.7 105.3 383.2 107.1 383.2 C 108.4 383.2 109.6 382.5 110.2 381.3 Z M 115.3 377.1 C 115.3 372.8 117.6 369.5 121.3 369.5 C 123.3 369.5 124.5 370.3 125.4 371.4 C 125.4 371.4 124.3 372.9 124.3 372.9 C 123.5 371.9 122.6 371.4 121.5 371.4 C 118.9 371.4 117.5 374 117.5 377.1 C 117.5 380.2 118.9 382.8 121.5 382.8 C 122.6 382.8 123.5 382.4 124.3 381.3 C 124.3 381.3 125.4 382.8 125.4 382.8 C 124.5 384 123.3 384.7 121.3 384.7 C 117.6 384.7 115.3 381.4 115.3 377.1 Z M 127.2 377.1 C 127.2 372.9 129.4 369.5 133 369.5 C 136.9 369.5 138.8 372.9 138.8 377.2 C 138.78 377.18 138.8 377.8 138.8 377.8 C 138.8 377.8 129.39 377.84 129.4 377.8 C 129.5 380.7 131 382.9 133.6 382.9 C 134.8 382.9 136.1 382.3 137 381.2 C 137 381.2 138.1 382.4 138.1 382.4 C 137 383.9 135.3 384.7 133.4 384.7 C 129.5 384.7 127.2 381.6 127.2 377.1 Z M 133 371.3 C 130.5 371.3 129.4 374.1 129.4 376.2 C 129.4 376.2 136.6 376.2 136.6 376.2 C 136.6 374 135.7 371.3 133 371.3 Z M 142 381.5 C 142.05 381.47 142 371.8 142 371.8 L 140.1 371.8 L 140.1 369.9 L 142 369.9 L 142 365.9 L 144.2 365.9 L 144.2 369.9 L 146.7 369.9 L 146.7 371.8 L 144.2 371.8 C 144.2 371.8 144.21 381.08 144.2 381.1 C 144.2 382.2 144.5 382.8 145.4 382.8 C 145.9 382.8 146.4 382.6 146.6 382.2 C 146.6 382.2 147.3 383.9 147.3 383.9 C 146.8 384.4 146.1 384.7 145 384.7 C 143 384.7 142 383.6 142 381.5 Z M 156.7 384.4 C 156.7 384.4 156.66 382.82 156.7 382.8 C 155.7 384.1 154.3 384.7 152.8 384.7 C 150.5 384.7 148.5 382.9 148.5 379.9 C 148.5 376.9 150.5 375.1 152.8 375.1 C 154.3 375.1 155.8 375.7 156.7 377 C 156.7 377 156.7 374.5 156.7 374.5 C 156.7 372.5 155.6 371.4 153.7 371.4 C 152.3 371.4 151.2 371.9 150.1 373.2 C 150.1 373.2 149.1 371.6 149.1 371.6 C 150.5 370.2 152.2 369.5 154 369.5 C 156.9 369.5 158.8 370.9 158.8 374.2 C 158.82 374.24 158.8 384.4 158.8 384.4 L 156.7 384.4 Z M 156.7 381.3 C 156.7 381.3 156.7 378.6 156.7 378.6 C 156 377.4 154.8 376.7 153.5 376.7 C 151.7 376.7 150.7 378.1 150.7 379.9 C 150.7 381.7 151.7 383.2 153.5 383.2 C 154.8 383.2 156 382.5 156.7 381.3 Z M 162.9 381.5 C 162.87 381.47 162.9 371.8 162.9 371.8 L 160.9 371.8 L 160.9 369.9 L 162.9 369.9 L 162.9 365.9 L 165 365.9 L 165 369.9 L 167.5 369.9 L 167.5 371.8 L 165 371.8 C 165 371.8 165.03 381.08 165 381.1 C 165 382.2 165.4 382.8 166.2 382.8 C 166.7 382.8 167.2 382.6 167.5 382.2 C 167.5 382.2 168.1 383.9 168.1 383.9 C 167.6 384.4 166.9 384.7 165.8 384.7 C 163.8 384.7 162.9 383.6 162.9 381.5 Z M 169.3 377.1 C 169.3 372.9 171.5 369.5 175.2 369.5 C 179 369.5 180.9 372.9 180.9 377.2 C 180.93 377.18 180.9 377.8 180.9 377.8 C 180.9 377.8 171.54 377.84 171.5 377.8 C 171.6 380.7 173.1 382.9 175.7 382.9 C 177 382.9 178.3 382.3 179.2 381.2 C 179.2 381.2 180.3 382.4 180.3 382.4 C 179.1 383.9 177.5 384.7 175.5 384.7 C 171.7 384.7 169.3 381.6 169.3 377.1 Z M 175.2 371.3 C 172.6 371.3 171.6 374.1 171.5 376.2 C 171.5 376.2 178.8 376.2 178.8 376.2 C 178.8 374 177.8 371.3 175.2 371.3 Z M 184.5 388.2 C 184.5 388.2 183.4 387.3 183.4 387.3 C 184.3 386.6 185.2 385.5 185.3 384.5 C 185.2 384.5 185 384.5 184.9 384.5 C 184.1 384.5 183.5 383.9 183.5 383.1 C 183.5 382.2 184.2 381.5 185.1 381.5 C 186 381.5 186.9 382.3 186.9 383.7 C 186.9 385.5 185.8 387.2 184.5 388.2 Z M 195.8 374.4 C 195.8 368.4 198.8 364 203.5 364 C 206.6 364 208.3 365.9 209.4 367.9 C 209.4 367.9 207.4 368.9 207.4 368.9 C 206.6 367.2 205.3 366.2 203.5 366.2 C 200.3 366.2 198.2 369.6 198.2 374.4 C 198.2 379.1 200.3 382.6 203.5 382.6 C 205.4 382.6 206.7 381.3 207.4 379.6 C 207.4 379.6 209.5 380.6 209.5 380.6 C 208.3 382.8 206.6 384.7 203.5 384.7 C 198.8 384.7 195.8 380.4 195.8 374.4 Z M 212 384.4 L 212 364.4 L 214.2 364.4 L 214.2 384.4 L 212 384.4 Z M 217.1 377.1 C 217.1 372.9 219.3 369.5 223 369.5 C 226.8 369.5 228.7 372.9 228.7 377.2 C 228.71 377.18 228.7 377.8 228.7 377.8 C 228.7 377.8 219.32 377.84 219.3 377.8 C 219.4 380.7 220.9 382.9 223.5 382.9 C 224.8 382.9 226 382.3 226.9 381.2 C 226.9 381.2 228.1 382.4 228.1 382.4 C 226.9 383.9 225.3 384.7 223.3 384.7 C 219.4 384.7 217.1 381.6 217.1 377.1 Z M 223 371.3 C 220.4 371.3 219.4 374.1 219.3 376.2 C 219.3 376.2 226.6 376.2 226.6 376.2 C 226.6 374 225.6 371.3 223 371.3 Z M 239 384.4 C 239 384.4 239 382.82 239 382.8 C 238.1 384.1 236.7 384.7 235.2 384.7 C 232.9 384.7 230.8 382.9 230.8 379.9 C 230.8 376.9 232.8 375.1 235.2 375.1 C 236.7 375.1 238.1 375.7 239 377 C 239 377 239 374.5 239 374.5 C 239 372.5 237.9 371.4 236 371.4 C 234.7 371.4 233.5 371.9 232.4 373.2 C 232.4 373.2 231.4 371.6 231.4 371.6 C 232.8 370.2 234.5 369.5 236.4 369.5 C 239.2 369.5 241.2 370.9 241.2 374.2 C 241.16 374.24 241.2 384.4 241.2 384.4 L 239 384.4 Z M 239 381.3 C 239 381.3 239 378.6 239 378.6 C 238.3 377.4 237.1 376.7 235.9 376.7 C 234.1 376.7 233 378.1 233 379.9 C 233 381.7 234.1 383.2 235.9 383.2 C 237.1 383.2 238.3 382.5 239 381.3 Z M 244.8 384.4 L 244.8 369.9 L 246.9 369.9 C 246.9 369.9 246.92 372.2 246.9 372.2 C 247.9 370.7 249.3 369.6 251 369.6 C 251 369.6 251 371.8 251 371.8 C 250.8 371.7 250.6 371.7 250.3 371.7 C 249 371.7 247.5 372.9 246.9 374.1 C 246.92 374.09 246.9 384.4 246.9 384.4 L 244.8 384.4 Z M 259.3 388.4 C 259.3 388.4 260.2 386.7 260.2 386.7 C 261.2 387.9 262.4 388.4 264 388.4 C 266 388.4 267.7 387.3 267.7 384.5 C 267.7 384.5 267.7 382.1 267.7 382.1 C 266.8 383.5 265.4 384.6 263.8 384.6 C 260.6 384.6 258.7 381.6 258.7 377.1 C 258.7 372.6 260.6 369.5 263.8 369.5 C 265.3 369.5 266.8 370.4 267.7 372 C 267.65 371.99 267.7 369.9 267.7 369.9 L 269.8 369.9 C 269.8 369.9 269.81 384.35 269.8 384.3 C 269.8 388.8 267.1 390.3 264.1 390.3 C 262.1 390.3 260.6 389.8 259.3 388.4 Z M 267.7 380.2 C 267.7 380.2 267.7 373.8 267.7 373.8 C 267.1 372.6 265.8 371.4 264.4 371.4 C 262 371.4 260.9 373.9 260.9 377.1 C 260.9 380.2 262 382.6 264.4 382.6 C 265.8 382.6 267.1 381.5 267.7 380.2 Z M 273.4 384.4 L 273.4 364.4 L 275.6 364.4 L 275.6 384.4 L 273.4 384.4 Z M 287.1 384.4 C 287.1 384.4 287.06 382.37 287.1 382.4 C 286.2 383.6 284.7 384.7 282.9 384.7 C 280.4 384.7 279.2 383.5 279.2 380.9 C 279.23 380.87 279.2 369.9 279.2 369.9 L 281.4 369.9 C 281.4 369.9 281.36 380.24 281.4 380.2 C 281.4 382.2 282.3 382.8 283.7 382.8 C 285.1 382.8 286.4 381.8 287.1 380.6 C 287.06 380.57 287.1 369.9 287.1 369.9 L 289.2 369.9 L 289.2 384.4 L 287.1 384.4 Z M 292.2 377.1 C 292.2 372.9 294.4 369.5 298 369.5 C 301.9 369.5 303.8 372.9 303.8 377.2 C 303.77 377.18 303.8 377.8 303.8 377.8 C 303.8 377.8 294.38 377.84 294.4 377.8 C 294.5 380.7 296 382.9 298.6 382.9 C 299.8 382.9 301.1 382.3 302 381.2 C 302 381.2 303.1 382.4 303.1 382.4 C 302 383.9 300.3 384.7 298.4 384.7 C 294.5 384.7 292.2 381.6 292.2 377.1 Z M 298 371.3 C 295.5 371.3 294.4 374.1 294.4 376.2 C 294.4 376.2 301.6 376.2 301.6 376.2 C 301.6 374 300.7 371.3 298 371.3 Z " stroke="none" fill="#d3d2d2"/>  </g>  <g id="Polygon221336">    <path d="M 2.1 348.4 L 2.1 328.4 C 2.1 328.4 8.19 328.37 8.2 328.4 C 11.8 328.4 13.7 331.1 13.7 334.4 C 13.7 337.6 11.8 340.4 8.2 340.4 C 8.19 340.37 4.5 340.4 4.5 340.4 L 4.5 348.4 L 2.1 348.4 Z M 11.3 334.4 C 11.3 332.1 10 330.5 7.9 330.5 C 7.95 330.47 4.5 330.5 4.5 330.5 L 4.5 338.3 C 4.5 338.3 7.95 338.27 7.9 338.3 C 10 338.3 11.3 336.6 11.3 334.4 Z M 15.1 341.1 C 15.1 337 17.1 333.5 20.9 333.5 C 24.8 333.5 26.9 337 26.9 341.1 C 26.9 345.2 24.8 348.7 20.9 348.7 C 17.1 348.7 15.1 345.2 15.1 341.1 Z M 24.6 341.1 C 24.6 338.2 23.5 335.4 20.9 335.4 C 18.5 335.4 17.3 338.2 17.3 341.1 C 17.3 344.1 18.5 346.8 20.9 346.8 C 23.5 346.8 24.6 344.1 24.6 341.1 Z M 29.8 348.4 L 29.8 328.4 L 31.9 328.4 L 31.9 348.4 L 29.8 348.4 Z M 35.2 352.1 C 35.4 352.3 35.9 352.3 36.1 352.3 C 37 352.3 37.4 352 37.8 350.9 C 37.83 350.9 38.6 348.7 38.6 348.7 L 33.8 333.9 L 36.1 333.9 L 39.7 345.8 L 43.3 333.9 L 45.7 333.9 C 45.7 333.9 39.87 351.44 39.9 351.4 C 39.1 353.5 38 354.3 36.3 354.3 C 35.8 354.3 35.2 354.2 34.8 354 C 34.8 354 35.2 352.1 35.2 352.1 Z M 46.8 341.1 C 46.8 336.9 49 333.5 52.7 333.5 C 56.5 333.5 58.4 336.9 58.4 341.2 C 58.41 341.18 58.4 341.8 58.4 341.8 C 58.4 341.8 49.02 341.84 49 341.8 C 49.1 344.7 50.6 346.9 53.2 346.9 C 54.4 346.9 55.7 346.3 56.6 345.2 C 56.6 345.2 57.8 346.4 57.8 346.4 C 56.6 347.9 55 348.7 53 348.7 C 49.1 348.7 46.8 345.6 46.8 341.1 Z M 52.6 335.3 C 50.1 335.3 49.1 338.1 49 340.2 C 49 340.2 56.3 340.2 56.3 340.2 C 56.2 338 55.3 335.3 52.6 335.3 Z M 60.1 346.7 C 60.1 346.7 61.2 345.2 61.2 345.2 C 62 346.2 63.4 347 64.9 347 C 66.6 347 67.7 346 67.7 344.7 C 67.7 341.3 60.5 342.4 60.5 337.4 C 60.5 335.3 62.2 333.5 65.1 333.5 C 67 333.5 68.5 334.3 69.5 335.4 C 69.5 335.4 68.5 336.9 68.5 336.9 C 67.8 335.9 66.6 335.3 65.2 335.3 C 63.6 335.3 62.6 336.2 62.6 337.4 C 62.6 340.5 69.8 339.4 69.8 344.6 C 69.8 347 67.9 348.7 65 348.7 C 62.9 348.7 61.3 348.1 60.1 346.7 Z M 73 345.5 C 72.99 345.47 73 335.8 73 335.8 L 71.1 335.8 L 71.1 333.9 L 73 333.9 L 73 329.9 L 75.1 329.9 L 75.1 333.9 L 77.6 333.9 L 77.6 335.8 L 75.1 335.8 C 75.1 335.8 75.15 345.08 75.1 345.1 C 75.1 346.2 75.5 346.8 76.3 346.8 C 76.9 346.8 77.3 346.6 77.6 346.2 C 77.6 346.2 78.2 347.9 78.2 347.9 C 77.7 348.4 77 348.7 75.9 348.7 C 73.9 348.7 73 347.6 73 345.5 Z M 79.4 341.1 C 79.4 336.9 81.7 333.5 85.3 333.5 C 89.1 333.5 91 336.9 91 341.2 C 91.05 341.18 91 341.8 91 341.8 C 91 341.8 81.66 341.84 81.7 341.8 C 81.7 344.7 83.2 346.9 85.8 346.9 C 87.1 346.9 88.4 346.3 89.3 345.2 C 89.3 345.2 90.4 346.4 90.4 346.4 C 89.2 347.9 87.6 348.7 85.6 348.7 C 81.8 348.7 79.4 345.6 79.4 341.1 Z M 85.3 335.3 C 82.7 335.3 81.7 338.1 81.7 340.2 C 81.7 340.2 88.9 340.2 88.9 340.2 C 88.9 338 87.9 335.3 85.3 335.3 Z M 93.9 348.4 L 93.9 333.9 L 96 333.9 C 96 333.9 96.03 336.2 96 336.2 C 97 334.7 98.4 333.6 100.1 333.6 C 100.1 333.6 100.1 335.8 100.1 335.8 C 99.9 335.7 99.7 335.7 99.4 335.7 C 98.1 335.7 96.6 336.9 96 338.1 C 96.03 338.09 96 348.4 96 348.4 L 93.9 348.4 Z M 109 348.4 L 109 335.8 L 107.1 335.8 L 107.1 333.9 L 109 333.9 C 109 333.9 108.99 332.12 109 332.1 C 109 329.6 110.4 328.1 112.5 328.1 C 113.3 328.1 113.9 328.2 114.4 328.5 C 114.4 328.5 113.8 330.2 113.8 330.2 C 113.6 330 113.3 329.9 112.9 329.9 C 111.8 329.9 111.1 330.7 111.1 332.1 C 111.15 332.12 111.1 333.9 111.1 333.9 L 113.6 333.9 L 113.6 335.8 L 111.1 335.8 L 111.1 348.4 L 109 348.4 Z M 115.7 330.3 C 115.7 329.5 116.4 328.8 117.1 328.8 C 118 328.8 118.6 329.5 118.6 330.3 C 118.6 331.1 118 331.8 117.1 331.8 C 116.4 331.8 115.7 331.1 115.7 330.3 Z M 116.1 348.4 L 116.1 333.9 L 118.2 333.9 L 118.2 348.4 L 116.1 348.4 Z M 127.3 346.8 C 129.7 346.8 130.8 344.3 130.8 341.1 C 130.8 338 129.7 335.4 127.3 335.4 C 125.9 335.4 124.6 336.6 124 337.8 C 124 337.8 124 344.5 124 344.5 C 124.6 345.7 125.9 346.8 127.3 346.8 Z M 121.9 348.4 L 121.9 328.4 L 124 328.4 C 124 328.4 124.02 335.99 124 336 C 124.9 334.4 126.4 333.5 127.8 333.5 C 131.1 333.5 133 336.6 133 341.1 C 133 345.7 131.1 348.7 127.8 348.7 C 126.3 348.7 124.9 347.8 124 346.3 C 124.02 346.31 124 348.4 124 348.4 L 121.9 348.4 Z M 136 348.4 L 136 333.9 L 138.1 333.9 C 138.1 333.9 138.12 336.2 138.1 336.2 C 139 334.7 140.5 333.6 142.2 333.6 C 142.2 333.6 142.2 335.8 142.2 335.8 C 142 335.7 141.7 335.7 141.5 335.7 C 140.2 335.7 138.7 336.9 138.1 338.1 C 138.12 338.09 138.1 348.4 138.1 348.4 L 136 348.4 Z M 143.7 341.1 C 143.7 336.9 145.9 333.5 149.6 333.5 C 153.4 333.5 155.3 336.9 155.3 341.2 C 155.31 341.18 155.3 341.8 155.3 341.8 C 155.3 341.8 145.92 341.84 145.9 341.8 C 146 344.7 147.5 346.9 150.1 346.9 C 151.3 346.9 152.6 346.3 153.5 345.2 C 153.5 345.2 154.7 346.4 154.7 346.4 C 153.5 347.9 151.9 348.7 149.9 348.7 C 146 348.7 143.7 345.6 143.7 341.1 Z M 149.5 335.3 C 147 335.3 146 338.1 145.9 340.2 C 145.9 340.2 153.2 340.2 153.2 340.2 C 153.1 338 152.2 335.3 149.5 335.3 Z M 163.1 346.7 C 163.1 346.7 164.2 345.2 164.2 345.2 C 165.1 346.2 166.4 347 168 347 C 169.7 347 170.8 346 170.8 344.7 C 170.8 341.3 163.6 342.4 163.6 337.4 C 163.6 335.3 165.3 333.5 168.2 333.5 C 170.1 333.5 171.6 334.3 172.6 335.4 C 172.6 335.4 171.6 336.9 171.6 336.9 C 170.8 335.9 169.6 335.3 168.2 335.3 C 166.6 335.3 165.6 336.2 165.6 337.4 C 165.6 340.5 172.9 339.4 172.9 344.6 C 172.9 347 171 348.7 168 348.7 C 166 348.7 164.3 348.1 163.1 346.7 Z M 176 345.5 C 176.04 345.47 176 335.8 176 335.8 L 174.1 335.8 L 174.1 333.9 L 176 333.9 L 176 329.9 L 178.2 329.9 L 178.2 333.9 L 180.7 333.9 L 180.7 335.8 L 178.2 335.8 C 178.2 335.8 178.2 345.08 178.2 345.1 C 178.2 346.2 178.5 346.8 179.4 346.8 C 179.9 346.8 180.4 346.6 180.6 346.2 C 180.6 346.2 181.3 347.9 181.3 347.9 C 180.8 348.4 180.1 348.7 178.9 348.7 C 177 348.7 176 347.6 176 345.5 Z M 191 348.4 C 191 348.4 191.03 346.37 191 346.4 C 190.2 347.6 188.6 348.7 186.8 348.7 C 184.4 348.7 183.2 347.5 183.2 344.9 C 183.2 344.87 183.2 333.9 183.2 333.9 L 185.3 333.9 C 185.3 333.9 185.33 344.24 185.3 344.2 C 185.3 346.2 186.2 346.8 187.6 346.8 C 189.1 346.8 190.4 345.8 191 344.6 C 191.03 344.57 191 333.9 191 333.9 L 193.2 333.9 L 193.2 348.4 L 191 348.4 Z M 205 348.4 L 205 335.8 L 203.1 335.8 L 203.1 333.9 L 205 333.9 C 205 333.9 204.98 332.12 205 332.1 C 205 329.6 206.4 328.1 208.5 328.1 C 209.3 328.1 209.9 328.2 210.4 328.5 C 210.4 328.5 209.8 330.2 209.8 330.2 C 209.6 330 209.3 329.9 208.9 329.9 C 207.8 329.9 207.1 330.7 207.1 332.1 C 207.14 332.12 207.1 333.9 207.1 333.9 L 209.6 333.9 L 209.6 335.8 L 207.1 335.8 L 207.1 348.4 L 205 348.4 Z M 211.6 330.3 C 211.6 329.5 212.3 328.8 213.1 328.8 C 213.9 328.8 214.6 329.5 214.6 330.3 C 214.6 331.1 213.9 331.8 213.1 331.8 C 212.3 331.8 211.6 331.1 211.6 330.3 Z M 212.1 348.4 L 212.1 333.9 L 214.2 333.9 L 214.2 348.4 L 212.1 348.4 Z M 197.4 348.4 L 197.4 335.8 L 195.4 335.8 L 195.4 333.9 L 197.4 333.9 C 197.4 333.9 197.36 332.12 197.4 332.1 C 197.4 329.6 198.7 328.1 201 328.1 C 202 328.1 202.9 328.3 203.6 329 C 203.6 329 202.7 330.6 202.7 330.6 C 202.3 330.1 201.9 329.9 201.3 329.9 C 200.1 329.9 199.5 330.7 199.5 332.1 C 199.52 332.12 199.5 333.9 199.5 333.9 L 202 333.9 L 202 335.8 L 199.5 335.8 L 199.5 348.4 L 197.4 348.4 Z M 225.7 348.4 C 225.7 348.4 225.68 338.06 225.7 338.1 C 225.7 336.1 224.8 335.4 223.4 335.4 C 222 335.4 220.6 336.6 220 337.8 C 219.98 337.76 220 348.4 220 348.4 L 217.9 348.4 L 217.9 333.9 L 220 333.9 C 220 333.9 219.98 335.96 220 336 C 220.8 334.7 222.4 333.5 224.2 333.5 C 226.6 333.5 227.8 334.8 227.8 337.5 C 227.84 337.46 227.8 348.4 227.8 348.4 L 225.7 348.4 Z M 231.4 352.4 C 231.4 352.4 232.4 350.7 232.4 350.7 C 233.3 351.9 234.6 352.4 236.2 352.4 C 238.1 352.4 239.8 351.3 239.8 348.5 C 239.8 348.5 239.8 346.1 239.8 346.1 C 238.9 347.5 237.5 348.6 236 348.6 C 232.7 348.6 230.8 345.6 230.8 341.1 C 230.8 336.6 232.7 333.5 236 333.5 C 237.4 333.5 238.9 334.4 239.8 336 C 239.78 335.99 239.8 333.9 239.8 333.9 L 241.9 333.9 C 241.9 333.9 241.94 348.35 241.9 348.3 C 241.9 352.8 239.2 354.3 236.2 354.3 C 234.3 354.3 232.8 353.8 231.4 352.4 Z M 239.8 344.2 C 239.8 344.2 239.8 337.8 239.8 337.8 C 239.2 336.6 237.9 335.4 236.5 335.4 C 234.1 335.4 233 337.9 233 341.1 C 233 344.2 234.1 346.6 236.5 346.6 C 237.9 346.6 239.2 345.5 239.8 344.2 Z " stroke="none" fill="#d3d2d2"/>  </g>  <g id="Polygon221335">    <path d="M 2.1 312.4 L 2.1 292.4 L 12.4 292.4 L 12.4 294.5 L 4.5 294.5 L 4.5 301.1 L 12.2 301.1 L 12.2 303.2 L 4.5 303.2 L 4.5 310.2 L 12.4 310.2 L 12.4 312.4 L 2.1 312.4 Z M 22.9 312.4 L 19.6 306.6 L 16.3 312.4 L 13.9 312.4 L 18.3 305 L 14.1 297.9 L 16.5 297.9 L 19.6 303.4 L 22.7 297.9 L 25.1 297.9 L 20.9 305 L 25.3 312.4 L 22.9 312.4 Z M 27.8 309.5 C 27.81 309.47 27.8 299.8 27.8 299.8 L 25.9 299.8 L 25.9 297.9 L 27.8 297.9 L 27.8 293.9 L 30 293.9 L 30 297.9 L 32.4 297.9 L 32.4 299.8 L 30 299.8 C 30 299.8 29.97 309.08 30 309.1 C 30 310.2 30.3 310.8 31.1 310.8 C 31.7 310.8 32.1 310.6 32.4 310.2 C 32.4 310.2 33.1 311.9 33.1 311.9 C 32.5 312.4 31.8 312.7 30.7 312.7 C 28.7 312.7 27.8 311.6 27.8 309.5 Z M 35 312.4 L 35 297.9 L 37.1 297.9 C 37.1 297.9 37.11 300.2 37.1 300.2 C 38 298.7 39.4 297.6 41.2 297.6 C 41.2 297.6 41.2 299.8 41.2 299.8 C 41 299.7 40.7 299.7 40.5 299.7 C 39.2 299.7 37.7 300.9 37.1 302.1 C 37.11 302.09 37.1 312.4 37.1 312.4 L 35 312.4 Z M 51.2 312.4 C 51.2 312.4 51.24 310.37 51.2 310.4 C 50.4 311.6 48.8 312.7 47 312.7 C 44.6 312.7 43.4 311.5 43.4 308.9 C 43.41 308.87 43.4 297.9 43.4 297.9 L 45.5 297.9 C 45.5 297.9 45.54 308.24 45.5 308.2 C 45.5 310.2 46.4 310.8 47.8 310.8 C 49.3 310.8 50.6 309.8 51.2 308.6 C 51.24 308.57 51.2 297.9 51.2 297.9 L 53.4 297.9 L 53.4 312.4 L 51.2 312.4 Z M 65.3 312.4 C 65.3 312.4 65.34 310.31 65.3 310.3 C 64.5 311.8 63.1 312.7 61.5 312.7 C 58.3 312.7 56.3 309.7 56.3 305.1 C 56.3 300.6 58.3 297.5 61.5 297.5 C 63 297.5 64.5 298.4 65.3 300 C 65.34 299.99 65.3 292.4 65.3 292.4 L 67.5 292.4 L 67.5 312.4 L 65.3 312.4 Z M 65.3 308.5 C 65.3 308.5 65.3 301.8 65.3 301.8 C 64.8 300.6 63.4 299.4 62.1 299.4 C 59.7 299.4 58.6 302 58.6 305.1 C 58.6 308.3 59.7 310.8 62.1 310.8 C 63.4 310.8 64.8 309.7 65.3 308.5 Z M 70.4 305.1 C 70.4 300.9 72.7 297.5 76.3 297.5 C 80.1 297.5 82 300.9 82 305.2 C 82.05 305.18 82 305.8 82 305.8 C 82 305.8 72.66 305.84 72.7 305.8 C 72.7 308.7 74.2 310.9 76.8 310.9 C 78.1 310.9 79.4 310.3 80.3 309.2 C 80.3 309.2 81.4 310.4 81.4 310.4 C 80.2 311.9 78.6 312.7 76.6 312.7 C 72.8 312.7 70.4 309.6 70.4 305.1 Z M 76.3 299.3 C 73.7 299.3 72.7 302.1 72.7 304.2 C 72.7 304.2 79.9 304.2 79.9 304.2 C 79.9 302 78.9 299.3 76.3 299.3 Z M 93.2 312.4 C 93.2 312.4 93.18 310.31 93.2 310.3 C 92.3 311.8 90.9 312.7 89.4 312.7 C 86.1 312.7 84.2 309.7 84.2 305.1 C 84.2 300.6 86.1 297.5 89.4 297.5 C 90.8 297.5 92.3 298.4 93.2 300 C 93.18 299.99 93.2 292.4 93.2 292.4 L 95.3 292.4 L 95.3 312.4 L 93.2 312.4 Z M 93.2 308.5 C 93.2 308.5 93.2 301.8 93.2 301.8 C 92.6 300.6 91.3 299.4 89.9 299.4 C 87.5 299.4 86.4 302 86.4 305.1 C 86.4 308.3 87.5 310.8 89.9 310.8 C 91.3 310.8 92.6 309.7 93.2 308.5 Z M 107.3 310.3 C 107.28 310.28 107.3 317.9 107.3 317.9 L 105.1 317.9 L 105.1 297.9 L 107.3 297.9 C 107.3 297.9 107.28 299.96 107.3 300 C 108.1 298.5 109.6 297.5 111.1 297.5 C 114.4 297.5 116.3 300.6 116.3 305.1 C 116.3 309.6 114.4 312.7 111.1 312.7 C 109.6 312.7 108.2 311.9 107.3 310.3 Z M 114 305.1 C 114 302 112.9 299.4 110.5 299.4 C 109.2 299.4 107.8 300.5 107.3 301.8 C 107.3 301.8 107.3 308.4 107.3 308.4 C 107.8 309.7 109.2 310.8 110.5 310.8 C 112.9 310.8 114 308.3 114 305.1 Z M 118.5 305.1 C 118.5 301 120.5 297.5 124.3 297.5 C 128.2 297.5 130.3 301 130.3 305.1 C 130.3 309.2 128.2 312.7 124.3 312.7 C 120.5 312.7 118.5 309.2 118.5 305.1 Z M 128 305.1 C 128 302.2 126.9 299.4 124.3 299.4 C 121.9 299.4 120.7 302.2 120.7 305.1 C 120.7 308.1 121.9 310.8 124.3 310.8 C 126.9 310.8 128 308.1 128 305.1 Z M 133.2 312.4 L 133.2 292.4 L 135.3 292.4 L 135.3 312.4 L 133.2 312.4 Z M 138.6 316.1 C 138.8 316.3 139.3 316.3 139.5 316.3 C 140.4 316.3 140.8 316 141.2 314.9 C 141.24 314.9 142 312.7 142 312.7 L 137.2 297.9 L 139.5 297.9 L 143.1 309.8 L 146.8 297.9 L 149.1 297.9 C 149.1 297.9 143.28 315.44 143.3 315.4 C 142.6 317.5 141.4 318.3 139.7 318.3 C 139.2 318.3 138.6 318.2 138.2 318 C 138.2 318 138.6 316.1 138.6 316.1 Z M 149.8 310.7 C 149.8 310.7 150.8 309.2 150.8 309.2 C 151.7 310.2 153.1 311 154.6 311 C 156.3 311 157.4 310 157.4 308.7 C 157.4 305.3 150.2 306.4 150.2 301.4 C 150.2 299.3 151.9 297.5 154.8 297.5 C 156.7 297.5 158.2 298.3 159.2 299.4 C 159.2 299.4 158.2 300.9 158.2 300.9 C 157.5 299.9 156.2 299.3 154.8 299.3 C 153.2 299.3 152.2 300.2 152.2 301.4 C 152.2 304.5 159.5 303.4 159.5 308.6 C 159.5 311 157.6 312.7 154.6 312.7 C 152.6 312.7 151 312.1 149.8 310.7 Z M 162.7 309.5 C 162.66 309.47 162.7 299.8 162.7 299.8 L 160.7 299.8 L 160.7 297.9 L 162.7 297.9 L 162.7 293.9 L 164.8 293.9 L 164.8 297.9 L 167.3 297.9 L 167.3 299.8 L 164.8 299.8 C 164.8 299.8 164.82 309.08 164.8 309.1 C 164.8 310.2 165.1 310.8 166 310.8 C 166.5 310.8 167 310.6 167.2 310.2 C 167.2 310.2 167.9 311.9 167.9 311.9 C 167.4 312.4 166.7 312.7 165.6 312.7 C 163.6 312.7 162.7 311.6 162.7 309.5 Z M 169.4 316.1 C 169.7 316.3 170.1 316.3 170.4 316.3 C 171.2 316.3 171.7 316 172.1 314.9 C 172.08 314.9 172.9 312.7 172.9 312.7 L 168 297.9 L 170.4 297.9 L 174 309.8 L 177.6 297.9 L 179.9 297.9 C 179.9 297.9 174.12 315.44 174.1 315.4 C 173.4 317.5 172.2 318.3 170.5 318.3 C 170.1 318.3 169.4 318.2 169.1 318 C 169.1 318 169.4 316.1 169.4 316.1 Z M 181.8 312.4 L 181.8 297.9 L 183.9 297.9 C 183.9 297.9 183.9 300.2 183.9 300.2 C 184.8 298.7 186.2 297.6 188 297.6 C 188 297.6 188 299.8 188 299.8 C 187.8 299.7 187.5 299.7 187.3 299.7 C 186 299.7 184.5 300.9 183.9 302.1 C 183.9 302.09 183.9 312.4 183.9 312.4 L 181.8 312.4 Z M 189.5 305.1 C 189.5 300.9 191.7 297.5 195.4 297.5 C 199.2 297.5 201.1 300.9 201.1 305.2 C 201.09 305.18 201.1 305.8 201.1 305.8 C 201.1 305.8 191.7 305.84 191.7 305.8 C 191.8 308.7 193.3 310.9 195.9 310.9 C 197.1 310.9 198.4 310.3 199.3 309.2 C 199.3 309.2 200.5 310.4 200.5 310.4 C 199.3 311.9 197.6 312.7 195.7 312.7 C 191.8 312.7 189.5 309.6 189.5 305.1 Z M 195.3 299.3 C 192.8 299.3 191.8 302.1 191.7 304.2 C 191.7 304.2 199 304.2 199 304.2 C 198.9 302 198 299.3 195.3 299.3 Z M 211.8 312.4 C 211.8 312.4 211.77 302.06 211.8 302.1 C 211.8 300.1 210.9 299.4 209.5 299.4 C 208 299.4 206.7 300.6 206.1 301.8 C 206.07 301.76 206.1 312.4 206.1 312.4 L 203.9 312.4 L 203.9 297.9 L 206.1 297.9 C 206.1 297.9 206.07 299.96 206.1 300 C 206.9 298.7 208.5 297.5 210.3 297.5 C 212.7 297.5 213.9 298.8 213.9 301.5 C 213.93 301.46 213.9 312.4 213.9 312.4 L 211.8 312.4 Z M 216.9 305.1 C 216.9 300.9 219.1 297.5 222.7 297.5 C 226.6 297.5 228.5 300.9 228.5 305.2 C 228.47 305.18 228.5 305.8 228.5 305.8 C 228.5 305.8 219.08 305.84 219.1 305.8 C 219.2 308.7 220.7 310.9 223.3 310.9 C 224.5 310.9 225.8 310.3 226.7 309.2 C 226.7 309.2 227.8 310.4 227.8 310.4 C 226.7 311.9 225 312.7 223.1 312.7 C 219.2 312.7 216.9 309.6 216.9 305.1 Z M 222.7 299.3 C 220.2 299.3 219.1 302.1 219.1 304.2 C 219.1 304.2 226.3 304.2 226.3 304.2 C 226.3 302 225.4 299.3 222.7 299.3 Z " stroke="none" fill="#d3d2d2"/>  </g>  <g id="Polygon221334">    <path d="M 1.4 266.4 C 1.4 260.4 4.4 256 9.2 256 C 12.2 256 13.9 257.9 15 259.9 C 15 259.9 13 260.9 13 260.9 C 12.2 259.2 10.9 258.2 9.2 258.2 C 5.9 258.2 3.9 261.6 3.9 266.4 C 3.9 271.1 5.9 274.6 9.2 274.6 C 11 274.6 12.3 273.3 13.1 271.6 C 13.1 271.6 15.1 272.6 15.1 272.6 C 14 274.8 12.3 276.7 9.2 276.7 C 4.4 276.7 1.4 272.4 1.4 266.4 Z M 16.9 269.1 C 16.9 265 19 261.5 22.8 261.5 C 26.7 261.5 28.7 265 28.7 269.1 C 28.7 273.2 26.7 276.7 22.8 276.7 C 19 276.7 16.9 273.2 16.9 269.1 Z M 26.5 269.1 C 26.5 266.2 25.4 263.4 22.8 263.4 C 20.3 263.4 19.2 266.2 19.2 269.1 C 19.2 272.1 20.3 274.8 22.8 274.8 C 25.4 274.8 26.5 272.1 26.5 269.1 Z M 32.1 273.5 C 32.1 273.47 32.1 263.8 32.1 263.8 L 30.2 263.8 L 30.2 261.9 L 32.1 261.9 L 32.1 257.9 L 34.3 257.9 L 34.3 261.9 L 36.7 261.9 L 36.7 263.8 L 34.3 263.8 C 34.3 263.8 34.26 273.08 34.3 273.1 C 34.3 274.2 34.6 274.8 35.4 274.8 C 36 274.8 36.4 274.6 36.7 274.2 C 36.7 274.2 37.3 275.9 37.3 275.9 C 36.8 276.4 36.1 276.7 35 276.7 C 33 276.7 32.1 275.6 32.1 273.5 Z M 39.7 273.5 C 39.69 273.47 39.7 263.8 39.7 263.8 L 37.8 263.8 L 37.8 261.9 L 39.7 261.9 L 39.7 257.9 L 41.8 257.9 L 41.8 261.9 L 44.3 261.9 L 44.3 263.8 L 41.8 263.8 C 41.8 263.8 41.85 273.08 41.8 273.1 C 41.8 274.2 42.2 274.8 43 274.8 C 43.6 274.8 44 274.6 44.3 274.2 C 44.3 274.2 44.9 275.9 44.9 275.9 C 44.4 276.4 43.7 276.7 42.6 276.7 C 40.6 276.7 39.7 275.6 39.7 273.5 Z M 46.1 269.1 C 46.1 265 48.2 261.5 52 261.5 C 55.9 261.5 57.9 265 57.9 269.1 C 57.9 273.2 55.9 276.7 52 276.7 C 48.2 276.7 46.1 273.2 46.1 269.1 Z M 55.7 269.1 C 55.7 266.2 54.6 263.4 52 263.4 C 49.5 263.4 48.4 266.2 48.4 269.1 C 48.4 272.1 49.5 274.8 52 274.8 C 54.6 274.8 55.7 272.1 55.7 269.1 Z M 68.7 276.4 C 68.7 276.4 68.7 266.06 68.7 266.1 C 68.7 264.1 67.8 263.4 66.4 263.4 C 65 263.4 63.7 264.6 63 265.8 C 63 265.76 63 276.4 63 276.4 L 60.9 276.4 L 60.9 261.9 L 63 261.9 C 63 261.9 63 263.96 63 264 C 63.8 262.7 65.5 261.5 67.2 261.5 C 69.7 261.5 70.9 262.8 70.9 265.5 C 70.86 265.46 70.9 276.4 70.9 276.4 L 68.7 276.4 Z M 75.3 280.2 C 75.3 280.2 74.2 279.3 74.2 279.3 C 75.2 278.6 76 277.5 76.2 276.5 C 76.1 276.5 75.9 276.5 75.8 276.5 C 75 276.5 74.4 275.9 74.4 275.1 C 74.4 274.2 75 273.5 75.9 273.5 C 76.9 273.5 77.7 274.3 77.7 275.7 C 77.7 277.5 76.7 279.2 75.3 280.2 Z M 86.6 266.4 C 86.6 260.4 89.6 256 94.4 256 C 97.4 256 99.2 257.9 100.3 259.9 C 100.3 259.9 98.3 260.9 98.3 260.9 C 97.5 259.2 96.1 258.2 94.4 258.2 C 91.2 258.2 89.1 261.6 89.1 266.4 C 89.1 271.1 91.2 274.6 94.4 274.6 C 96.2 274.6 97.6 273.3 98.3 271.6 C 98.3 271.6 100.3 272.6 100.3 272.6 C 99.2 274.8 97.5 276.7 94.4 276.7 C 89.6 276.7 86.6 272.4 86.6 266.4 Z M 102.2 269.1 C 102.2 265 104.2 261.5 108.1 261.5 C 112 261.5 114 265 114 269.1 C 114 273.2 112 276.7 108.1 276.7 C 104.2 276.7 102.2 273.2 102.2 269.1 Z M 111.7 269.1 C 111.7 266.2 110.6 263.4 108.1 263.4 C 105.6 263.4 104.4 266.2 104.4 269.1 C 104.4 272.1 105.6 274.8 108.1 274.8 C 110.6 274.8 111.7 272.1 111.7 269.1 Z M 117.3 273.5 C 117.33 273.47 117.3 263.8 117.3 263.8 L 115.4 263.8 L 115.4 261.9 L 117.3 261.9 L 117.3 257.9 L 119.5 257.9 L 119.5 261.9 L 121.9 261.9 L 121.9 263.8 L 119.5 263.8 C 119.5 263.8 119.49 273.08 119.5 273.1 C 119.5 274.2 119.8 274.8 120.7 274.8 C 121.2 274.8 121.6 274.6 121.9 274.2 C 121.9 274.2 122.6 275.9 122.6 275.9 C 122.1 276.4 121.3 276.7 120.2 276.7 C 118.3 276.7 117.3 275.6 117.3 273.5 Z M 124.9 273.5 C 124.92 273.47 124.9 263.8 124.9 263.8 L 123 263.8 L 123 261.9 L 124.9 261.9 L 124.9 257.9 L 127.1 257.9 L 127.1 261.9 L 129.5 261.9 L 129.5 263.8 L 127.1 263.8 C 127.1 263.8 127.08 273.08 127.1 273.1 C 127.1 274.2 127.4 274.8 128.2 274.8 C 128.8 274.8 129.2 274.6 129.5 274.2 C 129.5 274.2 130.2 275.9 130.2 275.9 C 129.7 276.4 128.9 276.7 127.8 276.7 C 125.8 276.7 124.9 275.6 124.9 273.5 Z M 131.4 269.1 C 131.4 265 133.4 261.5 137.2 261.5 C 141.1 261.5 143.2 265 143.2 269.1 C 143.2 273.2 141.1 276.7 137.2 276.7 C 133.4 276.7 131.4 273.2 131.4 269.1 Z M 140.9 269.1 C 140.9 266.2 139.8 263.4 137.2 263.4 C 134.8 263.4 133.6 266.2 133.6 269.1 C 133.6 272.1 134.8 274.8 137.2 274.8 C 139.8 274.8 140.9 272.1 140.9 269.1 Z M 153.9 276.4 C 153.9 276.4 153.93 266.06 153.9 266.1 C 153.9 264.1 153.1 263.4 151.6 263.4 C 150.2 263.4 148.9 264.6 148.2 265.8 C 148.23 265.76 148.2 276.4 148.2 276.4 L 146.1 276.4 L 146.1 261.9 L 148.2 261.9 C 148.2 261.9 148.23 263.96 148.2 264 C 149.1 262.7 150.7 261.5 152.4 261.5 C 154.9 261.5 156.1 262.8 156.1 265.5 C 156.09 265.46 156.1 276.4 156.1 276.4 L 153.9 276.4 Z M 171.3 274.8 C 173.7 274.8 174.8 272.3 174.8 269.1 C 174.8 266 173.7 263.4 171.3 263.4 C 169.9 263.4 168.6 264.6 168 265.8 C 168 265.8 168 272.5 168 272.5 C 168.6 273.7 169.9 274.8 171.3 274.8 Z M 165.9 276.4 L 165.9 256.4 L 168 256.4 C 168 256.4 168.03 263.99 168 264 C 168.9 262.4 170.4 261.5 171.8 261.5 C 175.1 261.5 177 264.6 177 269.1 C 177 273.7 175.1 276.7 171.8 276.7 C 170.3 276.7 168.9 275.8 168 274.3 C 168.03 274.31 168 276.4 168 276.4 L 165.9 276.4 Z M 187.8 276.4 C 187.8 276.4 187.83 274.37 187.8 274.4 C 187 275.6 185.4 276.7 183.6 276.7 C 181.2 276.7 180 275.5 180 272.9 C 180 272.87 180 261.9 180 261.9 L 182.1 261.9 C 182.1 261.9 182.13 272.24 182.1 272.2 C 182.1 274.2 183 274.8 184.4 274.8 C 185.9 274.8 187.2 273.8 187.8 272.6 C 187.83 272.57 187.8 261.9 187.8 261.9 L 190 261.9 L 190 276.4 L 187.8 276.4 Z M 201.9 276.4 C 201.9 276.4 201.93 274.31 201.9 274.3 C 201.1 275.8 199.6 276.7 198.1 276.7 C 194.9 276.7 192.9 273.7 192.9 269.1 C 192.9 264.6 194.8 261.5 198.1 261.5 C 199.6 261.5 201.1 262.4 201.9 264 C 201.93 263.99 201.9 256.4 201.9 256.4 L 204.1 256.4 L 204.1 276.4 L 201.9 276.4 Z M 201.9 272.5 C 201.9 272.5 201.9 265.8 201.9 265.8 C 201.4 264.6 200 263.4 198.7 263.4 C 196.3 263.4 195.2 266 195.2 269.1 C 195.2 272.3 196.3 274.8 198.7 274.8 C 200 274.8 201.4 273.7 201.9 272.5 Z M 206.6 274.7 C 206.6 274.7 207.7 273.2 207.7 273.2 C 208.5 274.2 209.9 275 211.4 275 C 213.1 275 214.2 274 214.2 272.7 C 214.2 269.3 207 270.4 207 265.4 C 207 263.3 208.7 261.5 211.6 261.5 C 213.5 261.5 215 262.3 216 263.4 C 216 263.4 215 264.9 215 264.9 C 214.3 263.9 213.1 263.3 211.6 263.3 C 210.1 263.3 209.1 264.2 209.1 265.4 C 209.1 268.5 216.3 267.4 216.3 272.6 C 216.3 275 214.4 276.7 211.5 276.7 C 209.4 276.7 207.8 276.1 206.6 274.7 Z " stroke="none" fill="#d3d2d2"/>  </g>  <g id="Polygon221333">    <path d="M 1.4 230.4 C 1.4 224.4 4.4 220 9.2 220 C 12.2 220 13.9 221.9 15 223.9 C 15 223.9 13 224.9 13 224.9 C 12.2 223.2 10.9 222.2 9.2 222.2 C 5.9 222.2 3.9 225.6 3.9 230.4 C 3.9 235.1 5.9 238.6 9.2 238.6 C 11 238.6 12.3 237.3 13.1 235.6 C 13.1 235.6 15.1 236.6 15.1 236.6 C 14 238.8 12.3 240.7 9.2 240.7 C 4.4 240.7 1.4 236.4 1.4 230.4 Z M 16.9 233.1 C 16.9 228.9 19.2 225.5 22.8 225.5 C 26.6 225.5 28.6 228.9 28.6 233.2 C 28.56 233.18 28.6 233.8 28.6 233.8 C 28.6 233.8 19.17 233.84 19.2 233.8 C 19.3 236.7 20.8 238.9 23.3 238.9 C 24.6 238.9 25.9 238.3 26.8 237.2 C 26.8 237.2 27.9 238.4 27.9 238.4 C 26.8 239.9 25.1 240.7 23.2 240.7 C 19.3 240.7 16.9 237.6 16.9 233.1 Z M 22.8 227.3 C 20.2 227.3 19.2 230.1 19.2 232.2 C 19.2 232.2 26.4 232.2 26.4 232.2 C 26.4 230 25.4 227.3 22.8 227.3 Z M 31.4 240.4 L 31.4 220.4 L 33.5 220.4 L 33.5 240.4 L 31.4 240.4 Z M 37.2 240.4 L 37.2 220.4 L 39.3 220.4 L 39.3 240.4 L 37.2 240.4 Z M 50.8 240.4 C 50.8 240.4 50.82 238.37 50.8 238.4 C 49.9 239.6 48.4 240.7 46.6 240.7 C 44.2 240.7 43 239.5 43 236.9 C 42.99 236.87 43 225.9 43 225.9 L 45.1 225.9 C 45.1 225.9 45.12 236.24 45.1 236.2 C 45.1 238.2 46 238.8 47.4 238.8 C 48.9 238.8 50.2 237.8 50.8 236.6 C 50.82 236.57 50.8 225.9 50.8 225.9 L 53 225.9 L 53 240.4 L 50.8 240.4 Z M 56.6 240.4 L 56.6 220.4 L 58.8 220.4 L 58.8 240.4 L 56.6 240.4 Z M 61.7 233.1 C 61.7 229 63.7 225.5 67.6 225.5 C 71.5 225.5 73.5 229 73.5 233.1 C 73.5 237.2 71.5 240.7 67.6 240.7 C 63.7 240.7 61.7 237.2 61.7 233.1 Z M 71.2 233.1 C 71.2 230.2 70.1 227.4 67.6 227.4 C 65.1 227.4 64 230.2 64 233.1 C 64 236.1 65.1 238.8 67.6 238.8 C 70.1 238.8 71.2 236.1 71.2 233.1 Z M 75.3 238.7 C 75.3 238.7 76.3 237.2 76.3 237.2 C 77.2 238.2 78.6 239 80.1 239 C 81.8 239 82.9 238 82.9 236.7 C 82.9 233.3 75.7 234.4 75.7 229.4 C 75.7 227.3 77.4 225.5 80.3 225.5 C 82.2 225.5 83.7 226.3 84.7 227.4 C 84.7 227.4 83.7 228.9 83.7 228.9 C 83 227.9 81.7 227.3 80.3 227.3 C 78.7 227.3 77.8 228.2 77.8 229.4 C 77.8 232.5 85 231.4 85 236.6 C 85 239 83.1 240.7 80.2 240.7 C 78.1 240.7 76.5 240.1 75.3 238.7 Z M 87 233.1 C 87 228.9 89.2 225.5 92.9 225.5 C 96.7 225.5 98.6 228.9 98.6 233.2 C 98.64 233.18 98.6 233.8 98.6 233.8 C 98.6 233.8 89.25 233.84 89.2 233.8 C 89.3 236.7 90.8 238.9 93.4 238.9 C 94.7 238.9 96 238.3 96.9 237.2 C 96.9 237.2 98 238.4 98 238.4 C 96.8 239.9 95.2 240.7 93.2 240.7 C 89.4 240.7 87 237.6 87 233.1 Z M 92.9 227.3 C 90.3 227.3 89.3 230.1 89.2 232.2 C 89.2 232.2 96.5 232.2 96.5 232.2 C 96.5 230 95.5 227.3 92.9 227.3 Z M 102.2 244.2 C 102.2 244.2 101.1 243.3 101.1 243.3 C 102.1 242.6 102.9 241.5 103 240.5 C 103 240.5 102.7 240.5 102.6 240.5 C 101.8 240.5 101.2 239.9 101.2 239.1 C 101.2 238.2 101.9 237.5 102.8 237.5 C 103.7 237.5 104.6 238.3 104.6 239.7 C 104.6 241.5 103.5 243.2 102.2 244.2 Z M 117.6 240.4 L 117.6 222.5 L 112.8 222.5 L 112.8 220.4 L 124.7 220.4 L 124.7 222.5 L 119.9 222.5 L 119.9 240.4 L 117.6 240.4 Z M 126.7 222.3 C 126.7 221.5 127.4 220.8 128.2 220.8 C 129 220.8 129.7 221.5 129.7 222.3 C 129.7 223.1 129 223.8 128.2 223.8 C 127.4 223.8 126.7 223.1 126.7 222.3 Z M 127.1 240.4 L 127.1 225.9 L 129.3 225.9 L 129.3 240.4 L 127.1 240.4 Z M 131.8 238.7 C 131.8 238.7 132.8 237.2 132.8 237.2 C 133.7 238.2 135.1 239 136.6 239 C 138.3 239 139.4 238 139.4 236.7 C 139.4 233.3 132.2 234.4 132.2 229.4 C 132.2 227.3 133.9 225.5 136.8 225.5 C 138.7 225.5 140.2 226.3 141.2 227.4 C 141.2 227.4 140.2 228.9 140.2 228.9 C 139.5 227.9 138.2 227.3 136.8 227.3 C 135.2 227.3 134.2 228.2 134.2 229.4 C 134.2 232.5 141.5 231.4 141.5 236.6 C 141.5 239 139.6 240.7 136.6 240.7 C 134.6 240.7 133 240.1 131.8 238.7 Z M 143.1 238.7 C 143.1 238.7 144.1 237.2 144.1 237.2 C 145 238.2 146.4 239 147.9 239 C 149.6 239 150.7 238 150.7 236.7 C 150.7 233.3 143.5 234.4 143.5 229.4 C 143.5 227.3 145.2 225.5 148.1 225.5 C 150 225.5 151.5 226.3 152.5 227.4 C 152.5 227.4 151.5 228.9 151.5 228.9 C 150.8 227.9 149.5 227.3 148.1 227.3 C 146.5 227.3 145.6 228.2 145.6 229.4 C 145.6 232.5 152.8 231.4 152.8 236.6 C 152.8 239 150.9 240.7 148 240.7 C 145.9 240.7 144.3 240.1 143.1 238.7 Z M 163.4 240.4 C 163.4 240.4 163.38 238.37 163.4 238.4 C 162.5 239.6 161 240.7 159.2 240.7 C 156.7 240.7 155.5 239.5 155.5 236.9 C 155.55 236.87 155.5 225.9 155.5 225.9 L 157.7 225.9 C 157.7 225.9 157.68 236.24 157.7 236.2 C 157.7 238.2 158.6 238.8 160 238.8 C 161.4 238.8 162.7 237.8 163.4 236.6 C 163.38 236.57 163.4 225.9 163.4 225.9 L 165.5 225.9 L 165.5 240.4 L 163.4 240.4 Z M 168.5 233.1 C 168.5 228.9 170.7 225.5 174.4 225.5 C 178.2 225.5 180.1 228.9 180.1 233.2 C 180.09 233.18 180.1 233.8 180.1 233.8 C 180.1 233.8 170.7 233.84 170.7 233.8 C 170.8 236.7 172.3 238.9 174.9 238.9 C 176.1 238.9 177.4 238.3 178.3 237.2 C 178.3 237.2 179.5 238.4 179.5 238.4 C 178.3 239.9 176.6 240.7 174.7 240.7 C 170.8 240.7 168.5 237.6 168.5 233.1 Z M 174.3 227.3 C 171.8 227.3 170.8 230.1 170.7 232.2 C 170.7 232.2 178 232.2 178 232.2 C 177.9 230 177 227.3 174.3 227.3 Z M 191.2 238.3 C 191.22 238.28 191.2 245.9 191.2 245.9 L 189.1 245.9 L 189.1 225.9 L 191.2 225.9 C 191.2 225.9 191.22 227.96 191.2 228 C 192.1 226.5 193.5 225.5 195 225.5 C 198.3 225.5 200.2 228.6 200.2 233.1 C 200.2 237.6 198.3 240.7 195 240.7 C 193.6 240.7 192.1 239.9 191.2 238.3 Z M 198 233.1 C 198 230 196.9 227.4 194.5 227.4 C 193.1 227.4 191.8 228.5 191.2 229.8 C 191.2 229.8 191.2 236.4 191.2 236.4 C 191.8 237.7 193.1 238.8 194.5 238.8 C 196.9 238.8 198 236.3 198 233.1 Z M 210.6 240.4 C 210.6 240.4 210.57 238.82 210.6 238.8 C 209.6 240.1 208.2 240.7 206.8 240.7 C 204.4 240.7 202.4 238.9 202.4 235.9 C 202.4 232.9 204.4 231.1 206.8 231.1 C 208.2 231.1 209.7 231.7 210.6 233 C 210.6 233 210.6 230.5 210.6 230.5 C 210.6 228.5 209.5 227.4 207.6 227.4 C 206.2 227.4 205.1 227.9 204 229.2 C 204 229.2 203 227.6 203 227.6 C 204.4 226.2 206.1 225.5 207.9 225.5 C 210.8 225.5 212.7 226.9 212.7 230.2 C 212.73 230.24 212.7 240.4 212.7 240.4 L 210.6 240.4 Z M 210.6 237.3 C 210.6 237.3 210.6 234.6 210.6 234.6 C 209.9 233.4 208.7 232.7 207.4 232.7 C 205.6 232.7 204.6 234.1 204.6 235.9 C 204.6 237.7 205.6 239.2 207.4 239.2 C 208.7 239.2 209.9 238.5 210.6 237.3 Z M 218.5 238.3 C 218.49 238.28 218.5 245.9 218.5 245.9 L 216.4 245.9 L 216.4 225.9 L 218.5 225.9 C 218.5 225.9 218.49 227.96 218.5 228 C 219.3 226.5 220.8 225.5 222.3 225.5 C 225.6 225.5 227.5 228.6 227.5 233.1 C 227.5 237.6 225.6 240.7 222.3 240.7 C 220.8 240.7 219.4 239.9 218.5 238.3 Z M 225.2 233.1 C 225.2 230 224.1 227.4 221.8 227.4 C 220.4 227.4 219.1 228.5 218.5 229.8 C 218.5 229.8 218.5 236.4 218.5 236.4 C 219.1 237.7 220.4 238.8 221.8 238.8 C 224.1 238.8 225.2 236.3 225.2 233.1 Z M 229.7 233.1 C 229.7 228.9 231.9 225.5 235.6 225.5 C 239.4 225.5 241.3 228.9 241.3 233.2 C 241.29 233.18 241.3 233.8 241.3 233.8 C 241.3 233.8 231.9 233.84 231.9 233.8 C 232 236.7 233.5 238.9 236.1 238.9 C 237.3 238.9 238.6 238.3 239.5 237.2 C 239.5 237.2 240.7 238.4 240.7 238.4 C 239.5 239.9 237.8 240.7 235.9 240.7 C 232 240.7 229.7 237.6 229.7 233.1 Z M 235.5 227.3 C 233 227.3 232 230.1 231.9 232.2 C 231.9 232.2 239.2 232.2 239.2 232.2 C 239.1 230 238.2 227.3 235.5 227.3 Z M 244.1 240.4 L 244.1 225.9 L 246.3 225.9 C 246.3 225.9 246.26 228.2 246.3 228.2 C 247.2 226.7 248.6 225.6 250.4 225.6 C 250.4 225.6 250.4 227.8 250.4 227.8 C 250.1 227.7 249.9 227.7 249.7 227.7 C 248.3 227.7 246.9 228.9 246.3 230.1 C 246.26 230.09 246.3 240.4 246.3 240.4 L 244.1 240.4 Z " stroke="none" fill="#d3d2d2"/>  </g>  <g id="Polygon221332">    <path d="M 1.4 194.4 C 1.4 188.4 4.4 184 9.2 184 C 12.2 184 13.9 185.9 15 187.9 C 15 187.9 13 188.9 13 188.9 C 12.2 187.2 10.9 186.2 9.2 186.2 C 5.9 186.2 3.9 189.6 3.9 194.4 C 3.9 199.1 5.9 202.6 9.2 202.6 C 11 202.6 12.3 201.3 13.1 199.6 C 13.1 199.6 15.1 200.6 15.1 200.6 C 14 202.8 12.3 204.7 9.2 204.7 C 4.4 204.7 1.4 200.4 1.4 194.4 Z M 16.9 197.1 C 16.9 192.9 19.2 189.5 22.8 189.5 C 26.6 189.5 28.6 192.9 28.6 197.2 C 28.56 197.18 28.6 197.8 28.6 197.8 C 28.6 197.8 19.17 197.84 19.2 197.8 C 19.3 200.7 20.8 202.9 23.3 202.9 C 24.6 202.9 25.9 202.3 26.8 201.2 C 26.8 201.2 27.9 202.4 27.9 202.4 C 26.8 203.9 25.1 204.7 23.2 204.7 C 19.3 204.7 16.9 201.6 16.9 197.1 Z M 22.8 191.3 C 20.2 191.3 19.2 194.1 19.2 196.2 C 19.2 196.2 26.4 196.2 26.4 196.2 C 26.4 194 25.4 191.3 22.8 191.3 Z M 31.4 204.4 L 31.4 184.4 L 33.5 184.4 L 33.5 204.4 L 31.4 204.4 Z M 37.2 204.4 L 37.2 184.4 L 39.3 184.4 L 39.3 204.4 L 37.2 204.4 Z M 50.8 204.4 C 50.8 204.4 50.82 202.37 50.8 202.4 C 49.9 203.6 48.4 204.7 46.6 204.7 C 44.2 204.7 43 203.5 43 200.9 C 42.99 200.87 43 189.9 43 189.9 L 45.1 189.9 C 45.1 189.9 45.12 200.24 45.1 200.2 C 45.1 202.2 46 202.8 47.4 202.8 C 48.9 202.8 50.2 201.8 50.8 200.6 C 50.82 200.57 50.8 189.9 50.8 189.9 L 53 189.9 L 53 204.4 L 50.8 204.4 Z M 56.6 204.4 L 56.6 184.4 L 58.8 184.4 L 58.8 204.4 L 56.6 204.4 Z M 61.7 197.1 C 61.7 193 63.7 189.5 67.6 189.5 C 71.5 189.5 73.5 193 73.5 197.1 C 73.5 201.2 71.5 204.7 67.6 204.7 C 63.7 204.7 61.7 201.2 61.7 197.1 Z M 71.2 197.1 C 71.2 194.2 70.1 191.4 67.6 191.4 C 65.1 191.4 64 194.2 64 197.1 C 64 200.1 65.1 202.8 67.6 202.8 C 70.1 202.8 71.2 200.1 71.2 197.1 Z M 75.3 202.7 C 75.3 202.7 76.3 201.2 76.3 201.2 C 77.2 202.2 78.6 203 80.1 203 C 81.8 203 82.9 202 82.9 200.7 C 82.9 197.3 75.7 198.4 75.7 193.4 C 75.7 191.3 77.4 189.5 80.3 189.5 C 82.2 189.5 83.7 190.3 84.7 191.4 C 84.7 191.4 83.7 192.9 83.7 192.9 C 83 191.9 81.7 191.3 80.3 191.3 C 78.7 191.3 77.8 192.2 77.8 193.4 C 77.8 196.5 85 195.4 85 200.6 C 85 203 83.1 204.7 80.2 204.7 C 78.1 204.7 76.5 204.1 75.3 202.7 Z M 87 197.1 C 87 192.9 89.2 189.5 92.9 189.5 C 96.7 189.5 98.6 192.9 98.6 197.2 C 98.64 197.18 98.6 197.8 98.6 197.8 C 98.6 197.8 89.25 197.84 89.2 197.8 C 89.3 200.7 90.8 202.9 93.4 202.9 C 94.7 202.9 96 202.3 96.9 201.2 C 96.9 201.2 98 202.4 98 202.4 C 96.8 203.9 95.2 204.7 93.2 204.7 C 89.4 204.7 87 201.6 87 197.1 Z M 92.9 191.3 C 90.3 191.3 89.3 194.1 89.2 196.2 C 89.2 196.2 96.5 196.2 96.5 196.2 C 96.5 194 95.5 191.3 92.9 191.3 Z M 102.2 208.2 C 102.2 208.2 101.1 207.3 101.1 207.3 C 102.1 206.6 102.9 205.5 103 204.5 C 103 204.5 102.7 204.5 102.6 204.5 C 101.8 204.5 101.2 203.9 101.2 203.1 C 101.2 202.2 101.9 201.5 102.8 201.5 C 103.7 201.5 104.6 202.3 104.6 203.7 C 104.6 205.5 103.5 207.2 102.2 208.2 Z M 128.1 204.4 L 128.1 188.7 L 122.8 204.4 L 121.9 204.4 L 116.6 188.7 L 116.6 204.4 L 114.2 204.4 L 114.2 184.4 L 117.5 184.4 L 122.3 198.6 L 127.2 184.4 L 130.5 184.4 L 130.5 204.4 L 128.1 204.4 Z M 141.7 204.4 C 141.7 204.4 141.69 202.82 141.7 202.8 C 140.8 204.1 139.3 204.7 137.9 204.7 C 135.5 204.7 133.5 202.9 133.5 199.9 C 133.5 196.9 135.5 195.1 137.9 195.1 C 139.3 195.1 140.8 195.7 141.7 197 C 141.7 197 141.7 194.5 141.7 194.5 C 141.7 192.5 140.6 191.4 138.7 191.4 C 137.4 191.4 136.2 191.9 135.1 193.2 C 135.1 193.2 134.1 191.6 134.1 191.6 C 135.5 190.2 137.2 189.5 139 189.5 C 141.9 189.5 143.8 190.9 143.8 194.2 C 143.85 194.24 143.8 204.4 143.8 204.4 L 141.7 204.4 Z M 141.7 201.3 C 141.7 201.3 141.7 198.6 141.7 198.6 C 141 197.4 139.8 196.7 138.6 196.7 C 136.8 196.7 135.7 198.1 135.7 199.9 C 135.7 201.7 136.8 203.2 138.6 203.2 C 139.8 203.2 141 202.5 141.7 201.3 Z M 146.3 202.7 C 146.3 202.7 147.4 201.2 147.4 201.2 C 148.2 202.2 149.6 203 151.2 203 C 152.8 203 154 202 154 200.7 C 154 197.3 146.7 198.4 146.7 193.4 C 146.7 191.3 148.5 189.5 151.3 189.5 C 153.3 189.5 154.7 190.3 155.8 191.4 C 155.8 191.4 154.7 192.9 154.7 192.9 C 154 191.9 152.8 191.3 151.4 191.3 C 149.8 191.3 148.8 192.2 148.8 193.4 C 148.8 196.5 156 195.4 156 200.6 C 156 203 154.2 204.7 151.2 204.7 C 149.2 204.7 147.5 204.1 146.3 202.7 Z M 166.9 204.4 L 163 197.8 L 160.9 200.4 L 160.9 204.4 L 158.8 204.4 L 158.8 184.4 L 160.9 184.4 L 160.9 197.7 L 166.9 189.9 L 169.5 189.9 L 164.4 196.4 L 169.5 204.4 L 166.9 204.4 Z M 171.2 186.3 C 171.2 185.5 171.9 184.8 172.7 184.8 C 173.5 184.8 174.1 185.5 174.1 186.3 C 174.1 187.1 173.5 187.8 172.7 187.8 C 171.9 187.8 171.2 187.1 171.2 186.3 Z M 171.6 204.4 L 171.6 189.9 L 173.8 189.9 L 173.8 204.4 L 171.6 204.4 Z M 185.2 204.4 C 185.2 204.4 185.25 194.06 185.2 194.1 C 185.2 192.1 184.4 191.4 182.9 191.4 C 181.5 191.4 180.2 192.6 179.5 193.8 C 179.55 193.76 179.5 204.4 179.5 204.4 L 177.4 204.4 L 177.4 189.9 L 179.5 189.9 C 179.5 189.9 179.55 191.96 179.5 192 C 180.4 190.7 182 189.5 183.7 189.5 C 186.2 189.5 187.4 190.8 187.4 193.5 C 187.41 193.46 187.4 204.4 187.4 204.4 L 185.2 204.4 Z M 190.9 208.4 C 190.9 208.4 191.9 206.7 191.9 206.7 C 192.9 207.9 194.1 208.4 195.7 208.4 C 197.7 208.4 199.3 207.3 199.3 204.5 C 199.3 204.5 199.3 202.1 199.3 202.1 C 198.5 203.5 197.1 204.6 195.5 204.6 C 192.3 204.6 190.3 201.6 190.3 197.1 C 190.3 192.6 192.3 189.5 195.5 189.5 C 197 189.5 198.4 190.4 199.3 192 C 199.35 191.99 199.3 189.9 199.3 189.9 L 201.5 189.9 C 201.5 189.9 201.51 204.35 201.5 204.3 C 201.5 208.8 198.8 210.3 195.8 210.3 C 193.8 210.3 192.3 209.8 190.9 208.4 Z M 199.3 200.2 C 199.3 200.2 199.3 193.8 199.3 193.8 C 198.8 192.6 197.5 191.4 196.1 191.4 C 193.7 191.4 192.6 193.9 192.6 197.1 C 192.6 200.2 193.7 202.6 196.1 202.6 C 197.5 202.6 198.8 201.5 199.3 200.2 Z M 211.7 201.5 C 211.71 201.47 211.7 191.8 211.7 191.8 L 209.8 191.8 L 209.8 189.9 L 211.7 189.9 L 211.7 185.9 L 213.9 185.9 L 213.9 189.9 L 216.3 189.9 L 216.3 191.8 L 213.9 191.8 C 213.9 191.8 213.87 201.08 213.9 201.1 C 213.9 202.2 214.2 202.8 215 202.8 C 215.6 202.8 216 202.6 216.3 202.2 C 216.3 202.2 217 203.9 217 203.9 C 216.4 204.4 215.7 204.7 214.6 204.7 C 212.6 204.7 211.7 203.6 211.7 201.5 Z M 226.3 204.4 C 226.3 204.4 226.31 202.82 226.3 202.8 C 225.4 204.1 224 204.7 222.5 204.7 C 220.2 204.7 218.1 202.9 218.1 199.9 C 218.1 196.9 220.1 195.1 222.5 195.1 C 224 195.1 225.4 195.7 226.3 197 C 226.3 197 226.3 194.5 226.3 194.5 C 226.3 192.5 225.2 191.4 223.3 191.4 C 222 191.4 220.8 191.9 219.7 193.2 C 219.7 193.2 218.8 191.6 218.8 191.6 C 220.1 190.2 221.8 189.5 223.7 189.5 C 226.6 189.5 228.5 190.9 228.5 194.2 C 228.47 194.24 228.5 204.4 228.5 204.4 L 226.3 204.4 Z M 226.3 201.3 C 226.3 201.3 226.3 198.6 226.3 198.6 C 225.7 197.4 224.5 196.7 223.2 196.7 C 221.4 196.7 220.3 198.1 220.3 199.9 C 220.3 201.7 221.4 203.2 223.2 203.2 C 224.5 203.2 225.7 202.5 226.3 201.3 Z M 234.2 202.3 C 234.23 202.28 234.2 209.9 234.2 209.9 L 232.1 209.9 L 232.1 189.9 L 234.2 189.9 C 234.2 189.9 234.23 191.96 234.2 192 C 235.1 190.5 236.5 189.5 238 189.5 C 241.3 189.5 243.2 192.6 243.2 197.1 C 243.2 201.6 241.3 204.7 238 204.7 C 236.6 204.7 235.1 203.9 234.2 202.3 Z M 241 197.1 C 241 194 239.9 191.4 237.5 191.4 C 236.2 191.4 234.8 192.5 234.2 193.8 C 234.2 193.8 234.2 200.4 234.2 200.4 C 234.8 201.7 236.2 202.8 237.5 202.8 C 239.9 202.8 241 200.3 241 197.1 Z M 245.4 197.1 C 245.4 192.9 247.6 189.5 251.3 189.5 C 255.1 189.5 257 192.9 257 197.2 C 257.03 197.18 257 197.8 257 197.8 C 257 197.8 247.64 197.84 247.6 197.8 C 247.7 200.7 249.2 202.9 251.8 202.9 C 253.1 202.9 254.4 202.3 255.3 201.2 C 255.3 201.2 256.4 202.4 256.4 202.4 C 255.2 203.9 253.6 204.7 251.6 204.7 C 247.8 204.7 245.4 201.6 245.4 197.1 Z M 251.3 191.3 C 248.7 191.3 247.7 194.1 247.6 196.2 C 247.6 196.2 254.9 196.2 254.9 196.2 C 254.9 194 253.9 191.3 251.3 191.3 Z " stroke="none" fill="#d3d2d2"/>  </g>  <g id="Polygon221331">    <path d="M 1.4 158.4 C 1.4 152.4 4.4 148 9.2 148 C 12.2 148 13.9 149.9 15 151.9 C 15 151.9 13 152.9 13 152.9 C 12.2 151.2 10.9 150.2 9.2 150.2 C 5.9 150.2 3.9 153.6 3.9 158.4 C 3.9 163.1 5.9 166.6 9.2 166.6 C 11 166.6 12.3 165.3 13.1 163.6 C 13.1 163.6 15.1 164.6 15.1 164.6 C 14 166.8 12.3 168.7 9.2 168.7 C 4.4 168.7 1.4 164.4 1.4 158.4 Z M 16.9 161.1 C 16.9 156.9 19.2 153.5 22.8 153.5 C 26.6 153.5 28.6 156.9 28.6 161.2 C 28.56 161.18 28.6 161.8 28.6 161.8 C 28.6 161.8 19.17 161.84 19.2 161.8 C 19.3 164.7 20.8 166.9 23.3 166.9 C 24.6 166.9 25.9 166.3 26.8 165.2 C 26.8 165.2 27.9 166.4 27.9 166.4 C 26.8 167.9 25.1 168.7 23.2 168.7 C 19.3 168.7 16.9 165.6 16.9 161.1 Z M 22.8 155.3 C 20.2 155.3 19.2 158.1 19.2 160.2 C 19.2 160.2 26.4 160.2 26.4 160.2 C 26.4 158 25.4 155.3 22.8 155.3 Z M 31.4 168.4 L 31.4 148.4 L 33.5 148.4 L 33.5 168.4 L 31.4 168.4 Z M 37.2 168.4 L 37.2 148.4 L 39.3 148.4 L 39.3 168.4 L 37.2 168.4 Z M 50.8 168.4 C 50.8 168.4 50.82 166.37 50.8 166.4 C 49.9 167.6 48.4 168.7 46.6 168.7 C 44.2 168.7 43 167.5 43 164.9 C 42.99 164.87 43 153.9 43 153.9 L 45.1 153.9 C 45.1 153.9 45.12 164.24 45.1 164.2 C 45.1 166.2 46 166.8 47.4 166.8 C 48.9 166.8 50.2 165.8 50.8 164.6 C 50.82 164.57 50.8 153.9 50.8 153.9 L 53 153.9 L 53 168.4 L 50.8 168.4 Z M 56.6 168.4 L 56.6 148.4 L 58.8 148.4 L 58.8 168.4 L 56.6 168.4 Z M 61.7 161.1 C 61.7 157 63.7 153.5 67.6 153.5 C 71.5 153.5 73.5 157 73.5 161.1 C 73.5 165.2 71.5 168.7 67.6 168.7 C 63.7 168.7 61.7 165.2 61.7 161.1 Z M 71.2 161.1 C 71.2 158.2 70.1 155.4 67.6 155.4 C 65.1 155.4 64 158.2 64 161.1 C 64 164.1 65.1 166.8 67.6 166.8 C 70.1 166.8 71.2 164.1 71.2 161.1 Z M 75.3 166.7 C 75.3 166.7 76.3 165.2 76.3 165.2 C 77.2 166.2 78.6 167 80.1 167 C 81.8 167 82.9 166 82.9 164.7 C 82.9 161.3 75.7 162.4 75.7 157.4 C 75.7 155.3 77.4 153.5 80.3 153.5 C 82.2 153.5 83.7 154.3 84.7 155.4 C 84.7 155.4 83.7 156.9 83.7 156.9 C 83 155.9 81.7 155.3 80.3 155.3 C 78.7 155.3 77.8 156.2 77.8 157.4 C 77.8 160.5 85 159.4 85 164.6 C 85 167 83.1 168.7 80.2 168.7 C 78.1 168.7 76.5 168.1 75.3 166.7 Z M 87 161.1 C 87 156.9 89.2 153.5 92.9 153.5 C 96.7 153.5 98.6 156.9 98.6 161.2 C 98.64 161.18 98.6 161.8 98.6 161.8 C 98.6 161.8 89.25 161.84 89.2 161.8 C 89.3 164.7 90.8 166.9 93.4 166.9 C 94.7 166.9 96 166.3 96.9 165.2 C 96.9 165.2 98 166.4 98 166.4 C 96.8 167.9 95.2 168.7 93.2 168.7 C 89.4 168.7 87 165.6 87 161.1 Z M 92.9 155.3 C 90.3 155.3 89.3 158.1 89.2 160.2 C 89.2 160.2 96.5 160.2 96.5 160.2 C 96.5 158 95.5 155.3 92.9 155.3 Z M 102.2 172.2 C 102.2 172.2 101.1 171.3 101.1 171.3 C 102.1 170.6 102.9 169.5 103 168.5 C 103 168.5 102.7 168.5 102.6 168.5 C 101.8 168.5 101.2 167.9 101.2 167.1 C 101.2 166.2 101.9 165.5 102.8 165.5 C 103.7 165.5 104.6 166.3 104.6 167.7 C 104.6 169.5 103.5 171.2 102.2 172.2 Z M 113.5 158.4 C 113.5 152.4 116.5 148 121.3 148 C 124.3 148 126 149.9 127.1 151.9 C 127.1 151.9 125.1 152.9 125.1 152.9 C 124.3 151.2 123 150.2 121.3 150.2 C 118 150.2 115.9 153.6 115.9 158.4 C 115.9 163.1 118 166.6 121.3 166.6 C 123.1 166.6 124.4 165.3 125.2 163.6 C 125.2 163.6 127.2 164.6 127.2 164.6 C 126.1 166.8 124.3 168.7 121.3 168.7 C 116.5 168.7 113.5 164.4 113.5 158.4 Z M 129 161.1 C 129 157 131.1 153.5 134.9 153.5 C 138.8 153.5 140.8 157 140.8 161.1 C 140.8 165.2 138.8 168.7 134.9 168.7 C 131.1 168.7 129 165.2 129 161.1 Z M 138.6 161.1 C 138.6 158.2 137.5 155.4 134.9 155.4 C 132.4 155.4 131.3 158.2 131.3 161.1 C 131.3 164.1 132.4 166.8 134.9 166.8 C 137.5 166.8 138.6 164.1 138.6 161.1 Z M 143.8 168.4 L 143.8 153.9 L 145.9 153.9 C 145.9 153.9 145.89 156.2 145.9 156.2 C 146.8 154.7 148.2 153.6 150 153.6 C 150 153.6 150 155.8 150 155.8 C 149.8 155.7 149.5 155.7 149.3 155.7 C 148 155.7 146.5 156.9 145.9 158.1 C 145.89 158.09 145.9 168.4 145.9 168.4 L 143.8 168.4 Z M 152.2 168.4 L 152.2 153.9 L 154.3 153.9 C 154.3 153.9 154.32 156.2 154.3 156.2 C 155.2 154.7 156.7 153.6 158.4 153.6 C 158.4 153.6 158.4 155.8 158.4 155.8 C 158.2 155.7 157.9 155.7 157.7 155.7 C 156.4 155.7 154.9 156.9 154.3 158.1 C 154.32 158.09 154.3 168.4 154.3 168.4 L 152.2 168.4 Z M 168.4 168.4 C 168.4 168.4 168.45 166.37 168.4 166.4 C 167.6 167.6 166 168.7 164.2 168.7 C 161.8 168.7 160.6 167.5 160.6 164.9 C 160.62 164.87 160.6 153.9 160.6 153.9 L 162.7 153.9 C 162.7 153.9 162.75 164.24 162.7 164.2 C 162.7 166.2 163.6 166.8 165.1 166.8 C 166.5 166.8 167.8 165.8 168.4 164.6 C 168.45 164.57 168.4 153.9 168.4 153.9 L 170.6 153.9 L 170.6 168.4 L 168.4 168.4 Z M 174.1 172.4 C 174.1 172.4 175.1 170.7 175.1 170.7 C 176.1 171.9 177.3 172.4 178.9 172.4 C 180.9 172.4 182.5 171.3 182.5 168.5 C 182.5 168.5 182.5 166.1 182.5 166.1 C 181.7 167.5 180.3 168.6 178.7 168.6 C 175.5 168.6 173.5 165.6 173.5 161.1 C 173.5 156.6 175.5 153.5 178.7 153.5 C 180.2 153.5 181.6 154.4 182.5 156 C 182.55 155.99 182.5 153.9 182.5 153.9 L 184.7 153.9 C 184.7 153.9 184.71 168.35 184.7 168.3 C 184.7 172.8 182 174.3 179 174.3 C 177 174.3 175.5 173.8 174.1 172.4 Z M 182.5 164.2 C 182.5 164.2 182.5 157.8 182.5 157.8 C 182 156.6 180.7 155.4 179.3 155.4 C 176.9 155.4 175.8 157.9 175.8 161.1 C 175.8 164.2 176.9 166.6 179.3 166.6 C 180.7 166.6 182 165.5 182.5 164.2 Z M 195.8 168.4 C 195.8 168.4 195.78 166.82 195.8 166.8 C 194.8 168.1 193.4 168.7 192 168.7 C 189.6 168.7 187.6 166.9 187.6 163.9 C 187.6 160.9 189.6 159.1 192 159.1 C 193.4 159.1 194.9 159.7 195.8 161 C 195.8 161 195.8 158.5 195.8 158.5 C 195.8 156.5 194.7 155.4 192.8 155.4 C 191.5 155.4 190.3 155.9 189.2 157.2 C 189.2 157.2 188.2 155.6 188.2 155.6 C 189.6 154.2 191.3 153.5 193.1 153.5 C 196 153.5 197.9 154.9 197.9 158.2 C 197.94 158.24 197.9 168.4 197.9 168.4 L 195.8 168.4 Z M 195.8 165.3 C 195.8 165.3 195.8 162.6 195.8 162.6 C 195.1 161.4 193.9 160.7 192.7 160.7 C 190.9 160.7 189.8 162.1 189.8 163.9 C 189.8 165.7 190.9 167.2 192.7 167.2 C 193.9 167.2 195.1 166.5 195.8 165.3 Z M 202 165.5 C 201.98 165.47 202 155.8 202 155.8 L 200.1 155.8 L 200.1 153.9 L 202 153.9 L 202 149.9 L 204.1 149.9 L 204.1 153.9 L 206.6 153.9 L 206.6 155.8 L 204.1 155.8 C 204.1 155.8 204.14 165.08 204.1 165.1 C 204.1 166.2 204.5 166.8 205.3 166.8 C 205.9 166.8 206.3 166.6 206.6 166.2 C 206.6 166.2 207.2 167.9 207.2 167.9 C 206.7 168.4 206 168.7 204.9 168.7 C 202.9 168.7 202 167.6 202 165.5 Z M 208.4 161.1 C 208.4 156.9 210.7 153.5 214.3 153.5 C 218.1 153.5 220 156.9 220 161.2 C 220.04 161.18 220 161.8 220 161.8 C 220 161.8 210.65 161.84 210.7 161.8 C 210.7 164.7 212.2 166.9 214.8 166.9 C 216.1 166.9 217.4 166.3 218.3 165.2 C 218.3 165.2 219.4 166.4 219.4 166.4 C 218.2 167.9 216.6 168.7 214.6 168.7 C 210.8 168.7 208.4 165.6 208.4 161.1 Z M 214.3 155.3 C 211.7 155.3 210.7 158.1 210.7 160.2 C 210.7 160.2 217.9 160.2 217.9 160.2 C 217.9 158 216.9 155.3 214.3 155.3 Z M 231.2 168.4 C 231.2 168.4 231.17 166.31 231.2 166.3 C 230.3 167.8 228.9 168.7 227.4 168.7 C 224.1 168.7 222.2 165.7 222.2 161.1 C 222.2 156.6 224.1 153.5 227.4 153.5 C 228.8 153.5 230.3 154.4 231.2 156 C 231.17 155.99 231.2 148.4 231.2 148.4 L 233.3 148.4 L 233.3 168.4 L 231.2 168.4 Z M 231.2 164.5 C 231.2 164.5 231.2 157.8 231.2 157.8 C 230.6 156.6 229.3 155.4 227.9 155.4 C 225.5 155.4 224.4 158 224.4 161.1 C 224.4 164.3 225.5 166.8 227.9 166.8 C 229.3 166.8 230.6 165.7 231.2 164.5 Z M 242.4 161.1 C 242.4 156.8 244.7 153.5 248.4 153.5 C 250.4 153.5 251.7 154.3 252.6 155.4 C 252.6 155.4 251.4 156.9 251.4 156.9 C 250.6 155.9 249.7 155.4 248.6 155.4 C 246 155.4 244.7 158 244.7 161.1 C 244.7 164.2 246 166.8 248.6 166.8 C 249.7 166.8 250.6 166.4 251.4 165.3 C 251.4 165.3 252.6 166.8 252.6 166.8 C 251.7 168 250.4 168.7 248.4 168.7 C 244.7 168.7 242.4 165.4 242.4 161.1 Z M 262.5 168.4 C 262.5 168.4 262.46 166.82 262.5 166.8 C 261.5 168.1 260.1 168.7 258.7 168.7 C 256.3 168.7 254.3 166.9 254.3 163.9 C 254.3 160.9 256.3 159.1 258.7 159.1 C 260.1 159.1 261.6 159.7 262.5 161 C 262.5 161 262.5 158.5 262.5 158.5 C 262.5 156.5 261.4 155.4 259.5 155.4 C 258.1 155.4 257 155.9 255.9 157.2 C 255.9 157.2 254.9 155.6 254.9 155.6 C 256.3 154.2 258 153.5 259.8 153.5 C 262.7 153.5 264.6 154.9 264.6 158.2 C 264.62 158.24 264.6 168.4 264.6 168.4 L 262.5 168.4 Z M 262.5 165.3 C 262.5 165.3 262.5 162.6 262.5 162.6 C 261.8 161.4 260.6 160.7 259.3 160.7 C 257.5 160.7 256.5 162.1 256.5 163.9 C 256.5 165.7 257.5 167.2 259.3 167.2 C 260.6 167.2 261.8 166.5 262.5 165.3 Z M 268.3 168.4 L 268.3 153.9 L 270.4 153.9 C 270.4 153.9 270.38 156.2 270.4 156.2 C 271.3 154.7 272.7 153.6 274.5 153.6 C 274.5 153.6 274.5 155.8 274.5 155.8 C 274.3 155.7 274 155.7 273.8 155.7 C 272.5 155.7 271 156.9 270.4 158.1 C 270.38 158.09 270.4 168.4 270.4 168.4 L 268.3 168.4 Z M 285 168.4 C 285 168.4 284.96 166.31 285 166.3 C 284.1 167.8 282.7 168.7 281.2 168.7 C 277.9 168.7 276 165.7 276 161.1 C 276 156.6 277.9 153.5 281.2 153.5 C 282.6 153.5 284.1 154.4 285 156 C 284.96 155.99 285 148.4 285 148.4 L 287.1 148.4 L 287.1 168.4 L 285 168.4 Z M 285 164.5 C 285 164.5 285 157.8 285 157.8 C 284.4 156.6 283.1 155.4 281.7 155.4 C 279.3 155.4 278.2 158 278.2 161.1 C 278.2 164.3 279.3 166.8 281.7 166.8 C 283.1 166.8 284.4 165.7 285 164.5 Z M 296.2 166.8 C 298.6 166.8 299.7 164.3 299.7 161.1 C 299.7 158 298.6 155.4 296.2 155.4 C 294.8 155.4 293.5 156.6 292.9 157.8 C 292.9 157.8 292.9 164.5 292.9 164.5 C 293.5 165.7 294.8 166.8 296.2 166.8 Z M 290.8 168.4 L 290.8 148.4 L 292.9 148.4 C 292.9 148.4 292.91 155.99 292.9 156 C 293.8 154.4 295.3 153.5 296.7 153.5 C 300 153.5 301.9 156.6 301.9 161.1 C 301.9 165.7 300 168.7 296.7 168.7 C 295.2 168.7 293.8 167.8 292.9 166.3 C 292.91 166.31 292.9 168.4 292.9 168.4 L 290.8 168.4 Z M 304.2 161.1 C 304.2 157 306.2 153.5 310 153.5 C 313.9 153.5 316 157 316 161.1 C 316 165.2 313.9 168.7 310 168.7 C 306.2 168.7 304.2 165.2 304.2 161.1 Z M 313.7 161.1 C 313.7 158.2 312.6 155.4 310 155.4 C 307.6 155.4 306.4 158.2 306.4 161.1 C 306.4 164.1 307.6 166.8 310 166.8 C 312.6 166.8 313.7 164.1 313.7 161.1 Z M 326.3 168.4 C 326.3 168.4 326.33 166.82 326.3 166.8 C 325.4 168.1 324 168.7 322.5 168.7 C 320.2 168.7 318.1 166.9 318.1 163.9 C 318.1 160.9 320.2 159.1 322.5 159.1 C 324 159.1 325.4 159.7 326.3 161 C 326.3 161 326.3 158.5 326.3 158.5 C 326.3 156.5 325.3 155.4 323.4 155.4 C 322 155.4 320.8 155.9 319.7 157.2 C 319.7 157.2 318.8 155.6 318.8 155.6 C 320.2 154.2 321.9 153.5 323.7 153.5 C 326.6 153.5 328.5 154.9 328.5 158.2 C 328.49 158.24 328.5 168.4 328.5 168.4 L 326.3 168.4 Z M 326.3 165.3 C 326.3 165.3 326.3 162.6 326.3 162.6 C 325.7 161.4 324.5 160.7 323.2 160.7 C 321.4 160.7 320.3 162.1 320.3 163.9 C 320.3 165.7 321.4 167.2 323.2 167.2 C 324.5 167.2 325.7 166.5 326.3 165.3 Z M 332.1 168.4 L 332.1 153.9 L 334.3 153.9 C 334.3 153.9 334.25 156.2 334.3 156.2 C 335.2 154.7 336.6 153.6 338.4 153.6 C 338.4 153.6 338.4 155.8 338.4 155.8 C 338.1 155.7 337.9 155.7 337.6 155.7 C 336.3 155.7 334.9 156.9 334.3 158.1 C 334.25 158.09 334.3 168.4 334.3 168.4 L 332.1 168.4 Z M 348.8 168.4 C 348.8 168.4 348.83 166.31 348.8 166.3 C 348 167.8 346.6 168.7 345 168.7 C 341.8 168.7 339.8 165.7 339.8 161.1 C 339.8 156.6 341.8 153.5 345 153.5 C 346.5 153.5 348 154.4 348.8 156 C 348.83 155.99 348.8 148.4 348.8 148.4 L 351 148.4 L 351 168.4 L 348.8 168.4 Z M 348.8 164.5 C 348.8 164.5 348.8 157.8 348.8 157.8 C 348.3 156.6 346.9 155.4 345.6 155.4 C 343.2 155.4 342.1 158 342.1 161.1 C 342.1 164.3 343.2 166.8 345.6 166.8 C 346.9 166.8 348.3 165.7 348.8 164.5 Z " stroke="none" fill="#d3d2d2"/>  </g>  <g id="Polygon221330">    <path d="M 12.5 132.4 L 11.2 127.8 L 4.1 127.8 L 2.8 132.4 L 0.2 132.4 L 6.2 112.4 L 9.1 112.4 L 15.1 132.4 L 12.5 132.4 Z M 7.6 115 L 4.6 125.7 L 10.7 125.7 L 7.6 115 Z M 16.2 125.1 C 16.2 120.8 18.5 117.5 22.2 117.5 C 24.2 117.5 25.5 118.3 26.4 119.4 C 26.4 119.4 25.2 120.9 25.2 120.9 C 24.4 119.9 23.5 119.4 22.4 119.4 C 19.8 119.4 18.5 122 18.5 125.1 C 18.5 128.2 19.8 130.8 22.4 130.8 C 23.5 130.8 24.4 130.4 25.2 129.3 C 25.2 129.3 26.4 130.8 26.4 130.8 C 25.5 132 24.2 132.7 22.2 132.7 C 18.5 132.7 16.2 129.4 16.2 125.1 Z M 28.8 132.4 L 28.8 117.9 L 31 117.9 C 31 117.9 30.96 120.2 31 120.2 C 31.9 118.7 33.3 117.6 35.1 117.6 C 35.1 117.6 35.1 119.8 35.1 119.8 C 34.8 119.7 34.6 119.7 34.3 119.7 C 33 119.7 31.6 120.9 31 122.1 C 30.96 122.09 31 132.4 31 132.4 L 28.8 132.4 Z M 36.8 136.1 C 37.1 136.3 37.6 136.3 37.8 136.3 C 38.6 136.3 39.1 136 39.5 134.9 C 39.51 134.9 40.3 132.7 40.3 132.7 L 35.5 117.9 L 37.8 117.9 L 41.4 129.8 L 45 117.9 L 47.3 117.9 C 47.3 117.9 41.55 135.44 41.5 135.4 C 40.8 137.5 39.7 138.3 37.9 138.3 C 37.5 138.3 36.8 138.2 36.5 138 C 36.5 138 36.8 136.1 36.8 136.1 Z M 49.2 132.4 L 49.2 112.4 L 51.3 112.4 L 51.3 132.4 L 49.2 132.4 Z M 54.6 114.3 C 54.6 113.5 55.3 112.8 56 112.8 C 56.8 112.8 57.5 113.5 57.5 114.3 C 57.5 115.1 56.8 115.8 56 115.8 C 55.3 115.8 54.6 115.1 54.6 114.3 Z M 55 132.4 L 55 117.9 L 57.1 117.9 L 57.1 132.4 L 55 132.4 Z M 60.1 125.1 C 60.1 120.8 62.3 117.5 66.1 117.5 C 68.1 117.5 69.3 118.3 70.2 119.4 C 70.2 119.4 69 120.9 69 120.9 C 68.2 119.9 67.3 119.4 66.2 119.4 C 63.7 119.4 62.3 122 62.3 125.1 C 62.3 128.2 63.7 130.8 66.2 130.8 C 67.3 130.8 68.2 130.4 69 129.3 C 69 129.3 70.2 130.8 70.2 130.8 C 69.3 132 68.1 132.7 66.1 132.7 C 62.3 132.7 60.1 129.4 60.1 125.1 Z M 80.9 130.3 C 80.94 130.28 80.9 137.9 80.9 137.9 L 78.8 137.9 L 78.8 117.9 L 80.9 117.9 C 80.9 117.9 80.94 119.96 80.9 120 C 81.8 118.5 83.2 117.5 84.7 117.5 C 88 117.5 89.9 120.6 89.9 125.1 C 89.9 129.6 88 132.7 84.7 132.7 C 83.3 132.7 81.8 131.9 80.9 130.3 Z M 87.7 125.1 C 87.7 122 86.6 119.4 84.2 119.4 C 82.9 119.4 81.5 120.5 80.9 121.8 C 80.9 121.8 80.9 128.4 80.9 128.4 C 81.5 129.7 82.9 130.8 84.2 130.8 C 86.6 130.8 87.7 128.3 87.7 125.1 Z M 100.3 132.4 C 100.3 132.4 100.29 130.82 100.3 130.8 C 99.4 132.1 97.9 132.7 96.5 132.7 C 94.1 132.7 92.1 130.9 92.1 127.9 C 92.1 124.9 94.1 123.1 96.5 123.1 C 97.9 123.1 99.4 123.7 100.3 125 C 100.3 125 100.3 122.5 100.3 122.5 C 100.3 120.5 99.2 119.4 97.3 119.4 C 96 119.4 94.8 119.9 93.7 121.2 C 93.7 121.2 92.7 119.6 92.7 119.6 C 94.1 118.2 95.8 117.5 97.6 117.5 C 100.5 117.5 102.4 118.9 102.4 122.2 C 102.45 122.24 102.4 132.4 102.4 132.4 L 100.3 132.4 Z M 100.3 129.3 C 100.3 129.3 100.3 126.6 100.3 126.6 C 99.6 125.4 98.4 124.7 97.2 124.7 C 95.4 124.7 94.3 126.1 94.3 127.9 C 94.3 129.7 95.4 131.2 97.2 131.2 C 98.4 131.2 99.6 130.5 100.3 129.3 Z M 105.7 114.3 C 105.7 113.5 106.3 112.8 107.1 112.8 C 107.9 112.8 108.6 113.5 108.6 114.3 C 108.6 115.1 107.9 115.8 107.1 115.8 C 106.3 115.8 105.7 115.1 105.7 114.3 Z M 106.1 132.4 L 106.1 117.9 L 108.2 117.9 L 108.2 132.4 L 106.1 132.4 Z M 119.7 132.4 C 119.7 132.4 119.7 122.06 119.7 122.1 C 119.7 120.1 118.8 119.4 117.4 119.4 C 116 119.4 114.7 120.6 114 121.8 C 114 121.76 114 132.4 114 132.4 L 111.9 132.4 L 111.9 117.9 L 114 117.9 C 114 117.9 114 119.96 114 120 C 114.8 118.7 116.5 117.5 118.2 117.5 C 120.7 117.5 121.9 118.8 121.9 121.5 C 121.86 121.46 121.9 132.4 121.9 132.4 L 119.7 132.4 Z M 125.9 129.5 C 125.94 129.47 125.9 119.8 125.9 119.8 L 124 119.8 L 124 117.9 L 125.9 117.9 L 125.9 113.9 L 128.1 113.9 L 128.1 117.9 L 130.6 117.9 L 130.6 119.8 L 128.1 119.8 C 128.1 119.8 128.1 129.08 128.1 129.1 C 128.1 130.2 128.4 130.8 129.3 130.8 C 129.8 130.8 130.3 130.6 130.5 130.2 C 130.5 130.2 131.2 131.9 131.2 131.9 C 130.7 132.4 130 132.7 128.8 132.7 C 126.9 132.7 125.9 131.6 125.9 129.5 Z M 133.9 136.2 C 133.9 136.2 132.8 135.3 132.8 135.3 C 133.8 134.6 134.6 133.5 134.8 132.5 C 134.7 132.5 134.5 132.5 134.4 132.5 C 133.6 132.5 133 131.9 133 131.1 C 133 130.2 133.6 129.5 134.5 129.5 C 135.5 129.5 136.3 130.3 136.3 131.7 C 136.3 133.5 135.3 135.2 133.9 136.2 Z M 150.1 132.4 L 144.1 112.4 L 146.6 112.4 L 151.5 129.5 L 156.3 112.4 L 158.9 112.4 L 152.9 132.4 L 150.1 132.4 Z M 158.9 125.1 C 158.9 120.9 161.2 117.5 164.8 117.5 C 168.6 117.5 170.5 120.9 170.5 125.2 C 170.55 125.18 170.5 125.8 170.5 125.8 C 170.5 125.8 161.16 125.84 161.2 125.8 C 161.2 128.7 162.7 130.9 165.3 130.9 C 166.6 130.9 167.9 130.3 168.8 129.2 C 168.8 129.2 169.9 130.4 169.9 130.4 C 168.7 131.9 167.1 132.7 165.1 132.7 C 161.3 132.7 158.9 129.6 158.9 125.1 Z M 164.8 119.3 C 162.2 119.3 161.2 122.1 161.2 124.2 C 161.2 124.2 168.4 124.2 168.4 124.2 C 168.4 122 167.4 119.3 164.8 119.3 Z M 173.4 132.4 L 173.4 117.9 L 175.5 117.9 C 175.5 117.9 175.53 120.2 175.5 120.2 C 176.5 118.7 177.9 117.6 179.6 117.6 C 179.6 117.6 179.6 119.8 179.6 119.8 C 179.4 119.7 179.2 119.7 178.9 119.7 C 177.6 119.7 176.1 120.9 175.5 122.1 C 175.53 122.09 175.5 132.4 175.5 132.4 L 173.4 132.4 Z M 196.5 132.4 C 196.5 132.4 196.47 121.88 196.5 121.9 C 196.5 120.3 195.8 119.4 194.5 119.4 C 193.2 119.4 191.9 120.6 191.3 121.8 C 191.31 121.76 191.3 132.4 191.3 132.4 L 189.1 132.4 C 189.1 132.4 189.15 121.88 189.1 121.9 C 189.1 120.3 188.5 119.4 187.1 119.4 C 185.8 119.4 184.6 120.6 184 121.8 C 183.96 121.76 184 132.4 184 132.4 L 181.8 132.4 L 181.8 117.9 L 184 117.9 C 184 117.9 183.96 119.96 184 120 C 184.6 118.9 186.2 117.5 187.9 117.5 C 189.8 117.5 190.9 118.6 191.2 120.1 C 191.9 118.8 193.5 117.5 195.3 117.5 C 197.4 117.5 198.6 118.7 198.6 121.3 C 198.63 121.31 198.6 132.4 198.6 132.4 L 196.5 132.4 Z M 201.9 114.3 C 201.9 113.5 202.6 112.8 203.3 112.8 C 204.1 112.8 204.8 113.5 204.8 114.3 C 204.8 115.1 204.1 115.8 203.3 115.8 C 202.6 115.8 201.9 115.1 201.9 114.3 Z M 202.3 132.4 L 202.3 117.9 L 204.4 117.9 L 204.4 132.4 L 202.3 132.4 Z M 208.1 132.4 L 208.1 112.4 L 210.2 112.4 L 210.2 132.4 L 208.1 132.4 Z M 213.9 132.4 L 213.9 112.4 L 216 112.4 L 216 132.4 L 213.9 132.4 Z M 219.2 114.3 C 219.2 113.5 219.9 112.8 220.7 112.8 C 221.5 112.8 222.2 113.5 222.2 114.3 C 222.2 115.1 221.5 115.8 220.7 115.8 C 219.9 115.8 219.2 115.1 219.2 114.3 Z M 219.7 132.4 L 219.7 117.9 L 221.8 117.9 L 221.8 132.4 L 219.7 132.4 Z M 224.7 125.1 C 224.7 121 226.8 117.5 230.6 117.5 C 234.5 117.5 236.5 121 236.5 125.1 C 236.5 129.2 234.5 132.7 230.6 132.7 C 226.8 132.7 224.7 129.2 224.7 125.1 Z M 234.3 125.1 C 234.3 122.2 233.2 119.4 230.6 119.4 C 228.1 119.4 227 122.2 227 125.1 C 227 128.1 228.1 130.8 230.6 130.8 C 233.2 130.8 234.3 128.1 234.3 125.1 Z M 247.3 132.4 C 247.3 132.4 247.28 122.06 247.3 122.1 C 247.3 120.1 246.4 119.4 245 119.4 C 243.6 119.4 242.2 120.6 241.6 121.8 C 241.58 121.76 241.6 132.4 241.6 132.4 L 239.5 132.4 L 239.5 117.9 L 241.6 117.9 C 241.6 117.9 241.58 119.96 241.6 120 C 242.4 118.7 244 117.5 245.8 117.5 C 248.2 117.5 249.4 118.8 249.4 121.5 C 249.44 121.46 249.4 132.4 249.4 132.4 L 247.3 132.4 Z " stroke="none" fill="#d3d2d2"/>  </g>  <g id="Polygon221329">    <path d="M 12.5 96.4 L 11.2 91.8 L 4.1 91.8 L 2.8 96.4 L 0.2 96.4 L 6.2 76.4 L 9.1 76.4 L 15.1 96.4 L 12.5 96.4 Z M 7.6 79 L 4.6 89.7 L 10.7 89.7 L 7.6 79 Z M 16.2 89.1 C 16.2 84.8 18.5 81.5 22.2 81.5 C 24.2 81.5 25.5 82.3 26.4 83.4 C 26.4 83.4 25.2 84.9 25.2 84.9 C 24.4 83.9 23.5 83.4 22.4 83.4 C 19.8 83.4 18.5 86 18.5 89.1 C 18.5 92.2 19.8 94.8 22.4 94.8 C 23.5 94.8 24.4 94.4 25.2 93.3 C 25.2 93.3 26.4 94.8 26.4 94.8 C 25.5 96 24.2 96.7 22.2 96.7 C 18.5 96.7 16.2 93.4 16.2 89.1 Z M 28.8 96.4 L 28.8 81.9 L 31 81.9 C 31 81.9 30.96 84.2 31 84.2 C 31.9 82.7 33.3 81.6 35.1 81.6 C 35.1 81.6 35.1 83.8 35.1 83.8 C 34.8 83.7 34.6 83.7 34.3 83.7 C 33 83.7 31.6 84.9 31 86.1 C 30.96 86.09 31 96.4 31 96.4 L 28.8 96.4 Z M 36.8 100.1 C 37.1 100.3 37.6 100.3 37.8 100.3 C 38.6 100.3 39.1 100 39.5 98.9 C 39.51 98.9 40.3 96.7 40.3 96.7 L 35.5 81.9 L 37.8 81.9 L 41.4 93.8 L 45 81.9 L 47.3 81.9 C 47.3 81.9 41.55 99.44 41.5 99.4 C 40.8 101.5 39.7 102.3 37.9 102.3 C 37.5 102.3 36.8 102.2 36.5 102 C 36.5 102 36.8 100.1 36.8 100.1 Z M 49.2 96.4 L 49.2 76.4 L 51.3 76.4 L 51.3 96.4 L 49.2 96.4 Z M 54.6 78.3 C 54.6 77.5 55.3 76.8 56 76.8 C 56.8 76.8 57.5 77.5 57.5 78.3 C 57.5 79.1 56.8 79.8 56 79.8 C 55.3 79.8 54.6 79.1 54.6 78.3 Z M 55 96.4 L 55 81.9 L 57.1 81.9 L 57.1 96.4 L 55 96.4 Z M 60.1 89.1 C 60.1 84.8 62.3 81.5 66.1 81.5 C 68.1 81.5 69.3 82.3 70.2 83.4 C 70.2 83.4 69 84.9 69 84.9 C 68.2 83.9 67.3 83.4 66.2 83.4 C 63.7 83.4 62.3 86 62.3 89.1 C 62.3 92.2 63.7 94.8 66.2 94.8 C 67.3 94.8 68.2 94.4 69 93.3 C 69 93.3 70.2 94.8 70.2 94.8 C 69.3 96 68.1 96.7 66.1 96.7 C 62.3 96.7 60.1 93.4 60.1 89.1 Z M 80.9 94.3 C 80.94 94.28 80.9 101.9 80.9 101.9 L 78.8 101.9 L 78.8 81.9 L 80.9 81.9 C 80.9 81.9 80.94 83.96 80.9 84 C 81.8 82.5 83.2 81.5 84.7 81.5 C 88 81.5 89.9 84.6 89.9 89.1 C 89.9 93.6 88 96.7 84.7 96.7 C 83.3 96.7 81.8 95.9 80.9 94.3 Z M 87.7 89.1 C 87.7 86 86.6 83.4 84.2 83.4 C 82.9 83.4 81.5 84.5 80.9 85.8 C 80.9 85.8 80.9 92.4 80.9 92.4 C 81.5 93.7 82.9 94.8 84.2 94.8 C 86.6 94.8 87.7 92.3 87.7 89.1 Z M 100.3 96.4 C 100.3 96.4 100.29 94.82 100.3 94.8 C 99.4 96.1 97.9 96.7 96.5 96.7 C 94.1 96.7 92.1 94.9 92.1 91.9 C 92.1 88.9 94.1 87.1 96.5 87.1 C 97.9 87.1 99.4 87.7 100.3 89 C 100.3 89 100.3 86.5 100.3 86.5 C 100.3 84.5 99.2 83.4 97.3 83.4 C 96 83.4 94.8 83.9 93.7 85.2 C 93.7 85.2 92.7 83.6 92.7 83.6 C 94.1 82.2 95.8 81.5 97.6 81.5 C 100.5 81.5 102.4 82.9 102.4 86.2 C 102.45 86.24 102.4 96.4 102.4 96.4 L 100.3 96.4 Z M 100.3 93.3 C 100.3 93.3 100.3 90.6 100.3 90.6 C 99.6 89.4 98.4 88.7 97.2 88.7 C 95.4 88.7 94.3 90.1 94.3 91.9 C 94.3 93.7 95.4 95.2 97.2 95.2 C 98.4 95.2 99.6 94.5 100.3 93.3 Z M 105.7 78.3 C 105.7 77.5 106.3 76.8 107.1 76.8 C 107.9 76.8 108.6 77.5 108.6 78.3 C 108.6 79.1 107.9 79.8 107.1 79.8 C 106.3 79.8 105.7 79.1 105.7 78.3 Z M 106.1 96.4 L 106.1 81.9 L 108.2 81.9 L 108.2 96.4 L 106.1 96.4 Z M 119.7 96.4 C 119.7 96.4 119.7 86.06 119.7 86.1 C 119.7 84.1 118.8 83.4 117.4 83.4 C 116 83.4 114.7 84.6 114 85.8 C 114 85.76 114 96.4 114 96.4 L 111.9 96.4 L 111.9 81.9 L 114 81.9 C 114 81.9 114 83.96 114 84 C 114.8 82.7 116.5 81.5 118.2 81.5 C 120.7 81.5 121.9 82.8 121.9 85.5 C 121.86 85.46 121.9 96.4 121.9 96.4 L 119.7 96.4 Z M 125.9 93.5 C 125.94 93.47 125.9 83.8 125.9 83.8 L 124 83.8 L 124 81.9 L 125.9 81.9 L 125.9 77.9 L 128.1 77.9 L 128.1 81.9 L 130.6 81.9 L 130.6 83.8 L 128.1 83.8 C 128.1 83.8 128.1 93.08 128.1 93.1 C 128.1 94.2 128.4 94.8 129.3 94.8 C 129.8 94.8 130.3 94.6 130.5 94.2 C 130.5 94.2 131.2 95.9 131.2 95.9 C 130.7 96.4 130 96.7 128.8 96.7 C 126.9 96.7 125.9 95.6 125.9 93.5 Z M 133.9 100.2 C 133.9 100.2 132.8 99.3 132.8 99.3 C 133.8 98.6 134.6 97.5 134.8 96.5 C 134.7 96.5 134.5 96.5 134.4 96.5 C 133.6 96.5 133 95.9 133 95.1 C 133 94.2 133.6 93.5 134.5 93.5 C 135.5 93.5 136.3 94.3 136.3 95.7 C 136.3 97.5 135.3 99.2 133.9 100.2 Z M 145.9 96.4 L 145.9 76.4 L 148.3 76.4 L 148.3 94.2 L 155.5 94.2 L 155.5 96.4 L 145.9 96.4 Z M 156.9 89.1 C 156.9 84.9 159.1 81.5 162.7 81.5 C 166.6 81.5 168.5 84.9 168.5 89.2 C 168.48 89.18 168.5 89.8 168.5 89.8 C 168.5 89.8 159.09 89.84 159.1 89.8 C 159.2 92.7 160.7 94.9 163.3 94.9 C 164.5 94.9 165.8 94.3 166.7 93.2 C 166.7 93.2 167.8 94.4 167.8 94.4 C 166.7 95.9 165 96.7 163.1 96.7 C 159.2 96.7 156.9 93.6 156.9 89.1 Z M 162.7 83.3 C 160.2 83.3 159.1 86.1 159.1 88.2 C 159.1 88.2 166.3 88.2 166.3 88.2 C 166.3 86 165.4 83.3 162.7 83.3 Z M 178.8 96.4 C 178.8 96.4 178.77 94.82 178.8 94.8 C 177.8 96.1 176.4 96.7 175 96.7 C 172.6 96.7 170.6 94.9 170.6 91.9 C 170.6 88.9 172.6 87.1 175 87.1 C 176.4 87.1 177.9 87.7 178.8 89 C 178.8 89 178.8 86.5 178.8 86.5 C 178.8 84.5 177.7 83.4 175.8 83.4 C 174.4 83.4 173.3 83.9 172.2 85.2 C 172.2 85.2 171.2 83.6 171.2 83.6 C 172.6 82.2 174.3 81.5 176.1 81.5 C 179 81.5 180.9 82.9 180.9 86.2 C 180.93 86.24 180.9 96.4 180.9 96.4 L 178.8 96.4 Z M 178.8 93.3 C 178.8 93.3 178.8 90.6 178.8 90.6 C 178.1 89.4 176.9 88.7 175.6 88.7 C 173.8 88.7 172.8 90.1 172.8 91.9 C 172.8 93.7 173.8 95.2 175.6 95.2 C 176.9 95.2 178.1 94.5 178.8 93.3 Z M 185.1 96.4 L 185.1 83.8 L 183.1 83.8 L 183.1 81.9 L 185.1 81.9 C 185.1 81.9 185.07 80.12 185.1 80.1 C 185.1 77.6 186.4 76.1 188.7 76.1 C 189.7 76.1 190.6 76.3 191.3 77 C 191.3 77 190.4 78.6 190.4 78.6 C 190 78.1 189.6 77.9 189 77.9 C 187.8 77.9 187.2 78.7 187.2 80.1 C 187.23 80.12 187.2 81.9 187.2 81.9 L 189.7 81.9 L 189.7 83.8 L 187.2 83.8 L 187.2 96.4 L 185.1 96.4 Z M 197.5 86.4 C 197.5 80.2 200.5 76 205.2 76 C 208.2 76 210 77.7 211.2 79.8 C 211.2 79.8 209.2 80.8 209.2 80.8 C 208.4 79.2 207.1 78.2 205.2 78.2 C 202 78.2 199.9 81.5 199.9 86.4 C 199.9 91.2 202 94.6 205.2 94.6 C 206.9 94.6 208.3 93.8 209 92.9 C 208.97 92.93 209 88.2 209 88.2 L 204.2 88.2 L 204.2 86.1 L 211.3 86.1 C 211.3 86.1 211.25 93.83 211.3 93.8 C 209.8 95.7 207.7 96.8 205.2 96.8 C 200.5 96.8 197.5 92.6 197.5 86.4 Z M 214.6 96.4 L 214.6 81.9 L 216.7 81.9 C 216.7 81.9 216.71 84.2 216.7 84.2 C 217.6 82.7 219.1 81.6 220.8 81.6 C 220.8 81.6 220.8 83.8 220.8 83.8 C 220.6 83.7 220.3 83.7 220.1 83.7 C 218.8 83.7 217.3 84.9 216.7 86.1 C 216.71 86.09 216.7 96.4 216.7 96.4 L 214.6 96.4 Z M 222.3 89.1 C 222.3 84.9 224.5 81.5 228.2 81.5 C 232 81.5 233.9 84.9 233.9 89.2 C 233.9 89.18 233.9 89.8 233.9 89.8 C 233.9 89.8 224.51 89.84 224.5 89.8 C 224.6 92.7 226.1 94.9 228.7 94.9 C 229.9 94.9 231.2 94.3 232.1 93.2 C 232.1 93.2 233.3 94.4 233.3 94.4 C 232.1 95.9 230.5 96.7 228.5 96.7 C 224.6 96.7 222.3 93.6 222.3 89.1 Z M 228.1 83.3 C 225.6 83.3 224.6 86.1 224.5 88.2 C 224.5 88.2 231.8 88.2 231.8 88.2 C 231.7 86 230.8 83.3 228.1 83.3 Z M 236 89.1 C 236 84.9 238.3 81.5 241.9 81.5 C 245.7 81.5 247.6 84.9 247.6 89.2 C 247.64 89.18 247.6 89.8 247.6 89.8 C 247.6 89.8 238.25 89.84 238.3 89.8 C 238.3 92.7 239.8 94.9 242.4 94.9 C 243.7 94.9 245 94.3 245.9 93.2 C 245.9 93.2 247 94.4 247 94.4 C 245.8 95.9 244.2 96.7 242.2 96.7 C 238.4 96.7 236 93.6 236 89.1 Z M 241.9 83.3 C 239.3 83.3 238.3 86.1 238.3 88.2 C 238.3 88.2 245.5 88.2 245.5 88.2 C 245.5 86 244.5 83.3 241.9 83.3 Z M 258.3 96.4 C 258.3 96.4 258.32 86.06 258.3 86.1 C 258.3 84.1 257.5 83.4 256 83.4 C 254.6 83.4 253.3 84.6 252.6 85.8 C 252.62 85.76 252.6 96.4 252.6 96.4 L 250.5 96.4 L 250.5 81.9 L 252.6 81.9 C 252.6 81.9 252.62 83.96 252.6 84 C 253.5 82.7 255.1 81.5 256.8 81.5 C 259.3 81.5 260.5 82.8 260.5 85.5 C 260.48 85.46 260.5 96.4 260.5 96.4 L 258.3 96.4 Z " stroke="none" fill="#d3d2d2"/>  </g>  <g id="Polygon221328">    <path d="M 12.5 60.4 L 11.2 55.8 L 4.1 55.8 L 2.8 60.4 L 0.2 60.4 L 6.2 40.4 L 9.1 40.4 L 15.1 60.4 L 12.5 60.4 Z M 7.6 43 L 4.6 53.7 L 10.7 53.7 L 7.6 43 Z M 16.2 53.1 C 16.2 48.8 18.5 45.5 22.2 45.5 C 24.2 45.5 25.5 46.3 26.4 47.4 C 26.4 47.4 25.2 48.9 25.2 48.9 C 24.4 47.9 23.5 47.4 22.4 47.4 C 19.8 47.4 18.5 50 18.5 53.1 C 18.5 56.2 19.8 58.8 22.4 58.8 C 23.5 58.8 24.4 58.4 25.2 57.3 C 25.2 57.3 26.4 58.8 26.4 58.8 C 25.5 60 24.2 60.7 22.2 60.7 C 18.5 60.7 16.2 57.4 16.2 53.1 Z M 28.8 60.4 L 28.8 45.9 L 31 45.9 C 31 45.9 30.96 48.2 31 48.2 C 31.9 46.7 33.3 45.6 35.1 45.6 C 35.1 45.6 35.1 47.8 35.1 47.8 C 34.8 47.7 34.6 47.7 34.3 47.7 C 33 47.7 31.6 48.9 31 50.1 C 30.96 50.09 31 60.4 31 60.4 L 28.8 60.4 Z M 36.8 64.1 C 37.1 64.3 37.6 64.3 37.8 64.3 C 38.6 64.3 39.1 64 39.5 62.9 C 39.51 62.9 40.3 60.7 40.3 60.7 L 35.5 45.9 L 37.8 45.9 L 41.4 57.8 L 45 45.9 L 47.3 45.9 C 47.3 45.9 41.55 63.44 41.5 63.4 C 40.8 65.5 39.7 66.3 37.9 66.3 C 37.5 66.3 36.8 66.2 36.5 66 C 36.5 66 36.8 64.1 36.8 64.1 Z M 49.2 60.4 L 49.2 40.4 L 51.3 40.4 L 51.3 60.4 L 49.2 60.4 Z M 54.6 42.3 C 54.6 41.5 55.3 40.8 56 40.8 C 56.8 40.8 57.5 41.5 57.5 42.3 C 57.5 43.1 56.8 43.8 56 43.8 C 55.3 43.8 54.6 43.1 54.6 42.3 Z M 55 60.4 L 55 45.9 L 57.1 45.9 L 57.1 60.4 L 55 60.4 Z M 60.1 53.1 C 60.1 48.8 62.3 45.5 66.1 45.5 C 68.1 45.5 69.3 46.3 70.2 47.4 C 70.2 47.4 69 48.9 69 48.9 C 68.2 47.9 67.3 47.4 66.2 47.4 C 63.7 47.4 62.3 50 62.3 53.1 C 62.3 56.2 63.7 58.8 66.2 58.8 C 67.3 58.8 68.2 58.4 69 57.3 C 69 57.3 70.2 58.8 70.2 58.8 C 69.3 60 68.1 60.7 66.1 60.7 C 62.3 60.7 60.1 57.4 60.1 53.1 Z M 80.9 58.3 C 80.94 58.28 80.9 65.9 80.9 65.9 L 78.8 65.9 L 78.8 45.9 L 80.9 45.9 C 80.9 45.9 80.94 47.96 80.9 48 C 81.8 46.5 83.2 45.5 84.7 45.5 C 88 45.5 89.9 48.6 89.9 53.1 C 89.9 57.6 88 60.7 84.7 60.7 C 83.3 60.7 81.8 59.9 80.9 58.3 Z M 87.7 53.1 C 87.7 50 86.6 47.4 84.2 47.4 C 82.9 47.4 81.5 48.5 80.9 49.8 C 80.9 49.8 80.9 56.4 80.9 56.4 C 81.5 57.7 82.9 58.8 84.2 58.8 C 86.6 58.8 87.7 56.3 87.7 53.1 Z M 100.3 60.4 C 100.3 60.4 100.29 58.82 100.3 58.8 C 99.4 60.1 97.9 60.7 96.5 60.7 C 94.1 60.7 92.1 58.9 92.1 55.9 C 92.1 52.9 94.1 51.1 96.5 51.1 C 97.9 51.1 99.4 51.7 100.3 53 C 100.3 53 100.3 50.5 100.3 50.5 C 100.3 48.5 99.2 47.4 97.3 47.4 C 96 47.4 94.8 47.9 93.7 49.2 C 93.7 49.2 92.7 47.6 92.7 47.6 C 94.1 46.2 95.8 45.5 97.6 45.5 C 100.5 45.5 102.4 46.9 102.4 50.2 C 102.45 50.24 102.4 60.4 102.4 60.4 L 100.3 60.4 Z M 100.3 57.3 C 100.3 57.3 100.3 54.6 100.3 54.6 C 99.6 53.4 98.4 52.7 97.2 52.7 C 95.4 52.7 94.3 54.1 94.3 55.9 C 94.3 57.7 95.4 59.2 97.2 59.2 C 98.4 59.2 99.6 58.5 100.3 57.3 Z M 105.7 42.3 C 105.7 41.5 106.3 40.8 107.1 40.8 C 107.9 40.8 108.6 41.5 108.6 42.3 C 108.6 43.1 107.9 43.8 107.1 43.8 C 106.3 43.8 105.7 43.1 105.7 42.3 Z M 106.1 60.4 L 106.1 45.9 L 108.2 45.9 L 108.2 60.4 L 106.1 60.4 Z M 119.7 60.4 C 119.7 60.4 119.7 50.06 119.7 50.1 C 119.7 48.1 118.8 47.4 117.4 47.4 C 116 47.4 114.7 48.6 114 49.8 C 114 49.76 114 60.4 114 60.4 L 111.9 60.4 L 111.9 45.9 L 114 45.9 C 114 45.9 114 47.96 114 48 C 114.8 46.7 116.5 45.5 118.2 45.5 C 120.7 45.5 121.9 46.8 121.9 49.5 C 121.86 49.46 121.9 60.4 121.9 60.4 L 119.7 60.4 Z M 125.9 57.5 C 125.94 57.47 125.9 47.8 125.9 47.8 L 124 47.8 L 124 45.9 L 125.9 45.9 L 125.9 41.9 L 128.1 41.9 L 128.1 45.9 L 130.6 45.9 L 130.6 47.8 L 128.1 47.8 C 128.1 47.8 128.1 57.08 128.1 57.1 C 128.1 58.2 128.4 58.8 129.3 58.8 C 129.8 58.8 130.3 58.6 130.5 58.2 C 130.5 58.2 131.2 59.9 131.2 59.9 C 130.7 60.4 130 60.7 128.8 60.7 C 126.9 60.7 125.9 59.6 125.9 57.5 Z M 133.9 64.2 C 133.9 64.2 132.8 63.3 132.8 63.3 C 133.8 62.6 134.6 61.5 134.8 60.5 C 134.7 60.5 134.5 60.5 134.4 60.5 C 133.6 60.5 133 59.9 133 59.1 C 133 58.2 133.6 57.5 134.5 57.5 C 135.5 57.5 136.3 58.3 136.3 59.7 C 136.3 61.5 135.3 63.2 133.9 64.2 Z M 145.2 50.4 C 145.2 44.4 148.2 40 153 40 C 156 40 157.8 41.9 158.8 43.9 C 158.8 43.9 156.9 44.9 156.9 44.9 C 156.1 43.2 154.7 42.2 153 42.2 C 149.8 42.2 147.7 45.6 147.7 50.4 C 147.7 55.1 149.8 58.6 153 58.6 C 154.8 58.6 156.1 57.3 156.9 55.6 C 156.9 55.6 158.9 56.6 158.9 56.6 C 157.8 58.8 156.1 60.7 153 60.7 C 148.2 60.7 145.2 56.4 145.2 50.4 Z M 168.9 60.4 C 168.9 60.4 168.93 58.82 168.9 58.8 C 168 60.1 166.6 60.7 165.1 60.7 C 162.8 60.7 160.7 58.9 160.7 55.9 C 160.7 52.9 162.7 51.1 165.1 51.1 C 166.6 51.1 168 51.7 168.9 53 C 168.9 53 168.9 50.5 168.9 50.5 C 168.9 48.5 167.8 47.4 166 47.4 C 164.6 47.4 163.4 47.9 162.3 49.2 C 162.3 49.2 161.4 47.6 161.4 47.6 C 162.7 46.2 164.5 45.5 166.3 45.5 C 169.2 45.5 171.1 46.9 171.1 50.2 C 171.09 50.24 171.1 60.4 171.1 60.4 L 168.9 60.4 Z M 168.9 57.3 C 168.9 57.3 168.9 54.6 168.9 54.6 C 168.3 53.4 167.1 52.7 165.8 52.7 C 164 52.7 162.9 54.1 162.9 55.9 C 162.9 57.7 164 59.2 165.8 59.2 C 167.1 59.2 168.3 58.5 168.9 57.3 Z M 183 60.4 C 183 60.4 183 58.31 183 58.3 C 182.2 59.8 180.7 60.7 179.2 60.7 C 175.9 60.7 174 57.7 174 53.1 C 174 48.6 175.9 45.5 179.2 45.5 C 180.7 45.5 182.1 46.4 183 48 C 183 47.99 183 40.4 183 40.4 L 185.2 40.4 L 185.2 60.4 L 183 60.4 Z M 183 56.5 C 183 56.5 183 49.8 183 49.8 C 182.5 48.6 181.1 47.4 179.7 47.4 C 177.4 47.4 176.2 50 176.2 53.1 C 176.2 56.3 177.4 58.8 179.7 58.8 C 181.1 58.8 182.5 57.7 183 56.5 Z M 203.5 60.4 C 203.5 60.4 203.46 49.88 203.5 49.9 C 203.5 48.3 202.8 47.4 201.4 47.4 C 200.2 47.4 198.9 48.6 198.3 49.8 C 198.3 49.76 198.3 60.4 198.3 60.4 L 196.1 60.4 C 196.1 60.4 196.14 49.88 196.1 49.9 C 196.1 48.3 195.5 47.4 194.1 47.4 C 192.8 47.4 191.6 48.6 190.9 49.8 C 190.95 49.76 190.9 60.4 190.9 60.4 L 188.8 60.4 L 188.8 45.9 L 190.9 45.9 C 190.9 45.9 190.95 47.96 190.9 48 C 191.5 46.9 193.2 45.5 194.9 45.5 C 196.8 45.5 197.9 46.6 198.2 48.1 C 198.9 46.8 200.5 45.5 202.3 45.5 C 204.4 45.5 205.6 46.7 205.6 49.3 C 205.62 49.31 205.6 60.4 205.6 60.4 L 203.5 60.4 Z M 208.9 42.3 C 208.9 41.5 209.5 40.8 210.3 40.8 C 211.1 40.8 211.8 41.5 211.8 42.3 C 211.8 43.1 211.1 43.8 210.3 43.8 C 209.5 43.8 208.9 43.1 208.9 42.3 Z M 209.3 60.4 L 209.3 45.9 L 211.4 45.9 L 211.4 60.4 L 209.3 60.4 Z M 222.9 60.4 C 222.9 60.4 222.89 58.37 222.9 58.4 C 222 59.6 220.5 60.7 218.7 60.7 C 216.2 60.7 215.1 59.5 215.1 56.9 C 215.06 56.87 215.1 45.9 215.1 45.9 L 217.2 45.9 C 217.2 45.9 217.19 56.24 217.2 56.2 C 217.2 58.2 218.1 58.8 219.5 58.8 C 220.9 58.8 222.3 57.8 222.9 56.6 C 222.89 56.57 222.9 45.9 222.9 45.9 L 225.1 45.9 L 225.1 60.4 L 222.9 60.4 Z M 243.4 60.4 C 243.4 60.4 243.35 49.88 243.4 49.9 C 243.4 48.3 242.7 47.4 241.3 47.4 C 240.1 47.4 238.8 48.6 238.2 49.8 C 238.19 49.76 238.2 60.4 238.2 60.4 L 236 60.4 C 236 60.4 236.03 49.88 236 49.9 C 236 48.3 235.4 47.4 234 47.4 C 232.7 47.4 231.5 48.6 230.8 49.8 C 230.84 49.76 230.8 60.4 230.8 60.4 L 228.7 60.4 L 228.7 45.9 L 230.8 45.9 C 230.8 45.9 230.84 47.96 230.8 48 C 231.4 46.9 233.1 45.5 234.8 45.5 C 236.7 45.5 237.8 46.6 238.1 48.1 C 238.8 46.8 240.4 45.5 242.2 45.5 C 244.3 45.5 245.5 46.7 245.5 49.3 C 245.51 49.31 245.5 60.4 245.5 60.4 L 243.4 60.4 Z M 259.6 60.4 L 259.6 51.9 L 253.5 40.4 L 256.1 40.4 L 260.8 49.6 L 265.6 40.4 L 268.2 40.4 L 262 51.9 L 262 60.4 L 259.6 60.4 Z M 266.5 53.1 C 266.5 48.9 268.7 45.5 272.4 45.5 C 276.2 45.5 278.1 48.9 278.1 53.2 C 278.12 53.18 278.1 53.8 278.1 53.8 C 278.1 53.8 268.73 53.84 268.7 53.8 C 268.8 56.7 270.3 58.9 272.9 58.9 C 274.2 58.9 275.5 58.3 276.4 57.2 C 276.4 57.2 277.5 58.4 277.5 58.4 C 276.3 59.9 274.7 60.7 272.7 60.7 C 268.9 60.7 266.5 57.6 266.5 53.1 Z M 272.4 47.3 C 269.8 47.3 268.8 50.1 268.7 52.2 C 268.7 52.2 276 52.2 276 52.2 C 276 50 275 47.3 272.4 47.3 Z M 281 60.4 L 281 40.4 L 283.1 40.4 L 283.1 60.4 L 281 60.4 Z M 286.8 60.4 L 286.8 40.4 L 288.9 40.4 L 288.9 60.4 L 286.8 60.4 Z M 291.8 53.1 C 291.8 49 293.9 45.5 297.7 45.5 C 301.6 45.5 303.6 49 303.6 53.1 C 303.6 57.2 301.6 60.7 297.7 60.7 C 293.9 60.7 291.8 57.2 291.8 53.1 Z M 301.4 53.1 C 301.4 50.2 300.3 47.4 297.7 47.4 C 295.2 47.4 294.1 50.2 294.1 53.1 C 294.1 56.1 295.2 58.8 297.7 58.8 C 300.3 58.8 301.4 56.1 301.4 53.1 Z M 317.2 60.4 L 314.2 48.7 L 311 60.4 L 308.8 60.4 L 305 45.9 L 307.2 45.9 L 310 57.5 L 313.1 45.9 L 315.1 45.9 L 318.2 57.5 L 321.1 45.9 L 323.3 45.9 L 319.5 60.4 L 317.2 60.4 Z " stroke="none" fill="#d3d2d2"/>  </g>  <g id="Polygon221327">    <path d="M 12.5 24.4 L 11.2 19.8 L 4.1 19.8 L 2.8 24.4 L 0.2 24.4 L 6.2 4.4 L 9.1 4.4 L 15.1 24.4 L 12.5 24.4 Z M 7.6 7 L 4.6 17.7 L 10.7 17.7 L 7.6 7 Z M 16.2 17.1 C 16.2 12.8 18.5 9.5 22.2 9.5 C 24.2 9.5 25.5 10.3 26.4 11.4 C 26.4 11.4 25.2 12.9 25.2 12.9 C 24.4 11.9 23.5 11.4 22.4 11.4 C 19.8 11.4 18.5 14 18.5 17.1 C 18.5 20.2 19.8 22.8 22.4 22.8 C 23.5 22.8 24.4 22.4 25.2 21.3 C 25.2 21.3 26.4 22.8 26.4 22.8 C 25.5 24 24.2 24.7 22.2 24.7 C 18.5 24.7 16.2 21.4 16.2 17.1 Z M 28.8 24.4 L 28.8 9.9 L 31 9.9 C 31 9.9 30.96 12.2 31 12.2 C 31.9 10.7 33.3 9.6 35.1 9.6 C 35.1 9.6 35.1 11.8 35.1 11.8 C 34.8 11.7 34.6 11.7 34.3 11.7 C 33 11.7 31.6 12.9 31 14.1 C 30.96 14.09 31 24.4 31 24.4 L 28.8 24.4 Z M 36.8 28.1 C 37.1 28.3 37.6 28.3 37.8 28.3 C 38.6 28.3 39.1 28 39.5 26.9 C 39.51 26.9 40.3 24.7 40.3 24.7 L 35.5 9.9 L 37.8 9.9 L 41.4 21.8 L 45 9.9 L 47.3 9.9 C 47.3 9.9 41.55 27.44 41.5 27.4 C 40.8 29.5 39.7 30.3 37.9 30.3 C 37.5 30.3 36.8 30.2 36.5 30 C 36.5 30 36.8 28.1 36.8 28.1 Z M 49.2 24.4 L 49.2 4.4 L 51.3 4.4 L 51.3 24.4 L 49.2 24.4 Z M 54.6 6.3 C 54.6 5.5 55.3 4.8 56 4.8 C 56.8 4.8 57.5 5.5 57.5 6.3 C 57.5 7.1 56.8 7.8 56 7.8 C 55.3 7.8 54.6 7.1 54.6 6.3 Z M 55 24.4 L 55 9.9 L 57.1 9.9 L 57.1 24.4 L 55 24.4 Z M 60.1 17.1 C 60.1 12.8 62.3 9.5 66.1 9.5 C 68.1 9.5 69.3 10.3 70.2 11.4 C 70.2 11.4 69 12.9 69 12.9 C 68.2 11.9 67.3 11.4 66.2 11.4 C 63.7 11.4 62.3 14 62.3 17.1 C 62.3 20.2 63.7 22.8 66.2 22.8 C 67.3 22.8 68.2 22.4 69 21.3 C 69 21.3 70.2 22.8 70.2 22.8 C 69.3 24 68.1 24.7 66.1 24.7 C 62.3 24.7 60.1 21.4 60.1 17.1 Z M 80.9 22.3 C 80.94 22.28 80.9 29.9 80.9 29.9 L 78.8 29.9 L 78.8 9.9 L 80.9 9.9 C 80.9 9.9 80.94 11.96 80.9 12 C 81.8 10.5 83.2 9.5 84.7 9.5 C 88 9.5 89.9 12.6 89.9 17.1 C 89.9 21.6 88 24.7 84.7 24.7 C 83.3 24.7 81.8 23.9 80.9 22.3 Z M 87.7 17.1 C 87.7 14 86.6 11.4 84.2 11.4 C 82.9 11.4 81.5 12.5 80.9 13.8 C 80.9 13.8 80.9 20.4 80.9 20.4 C 81.5 21.7 82.9 22.8 84.2 22.8 C 86.6 22.8 87.7 20.3 87.7 17.1 Z M 100.3 24.4 C 100.3 24.4 100.29 22.82 100.3 22.8 C 99.4 24.1 97.9 24.7 96.5 24.7 C 94.1 24.7 92.1 22.9 92.1 19.9 C 92.1 16.9 94.1 15.1 96.5 15.1 C 97.9 15.1 99.4 15.7 100.3 17 C 100.3 17 100.3 14.5 100.3 14.5 C 100.3 12.5 99.2 11.4 97.3 11.4 C 96 11.4 94.8 11.9 93.7 13.2 C 93.7 13.2 92.7 11.6 92.7 11.6 C 94.1 10.2 95.8 9.5 97.6 9.5 C 100.5 9.5 102.4 10.9 102.4 14.2 C 102.45 14.24 102.4 24.4 102.4 24.4 L 100.3 24.4 Z M 100.3 21.3 C 100.3 21.3 100.3 18.6 100.3 18.6 C 99.6 17.4 98.4 16.7 97.2 16.7 C 95.4 16.7 94.3 18.1 94.3 19.9 C 94.3 21.7 95.4 23.2 97.2 23.2 C 98.4 23.2 99.6 22.5 100.3 21.3 Z M 105.7 6.3 C 105.7 5.5 106.3 4.8 107.1 4.8 C 107.9 4.8 108.6 5.5 108.6 6.3 C 108.6 7.1 107.9 7.8 107.1 7.8 C 106.3 7.8 105.7 7.1 105.7 6.3 Z M 106.1 24.4 L 106.1 9.9 L 108.2 9.9 L 108.2 24.4 L 106.1 24.4 Z M 119.7 24.4 C 119.7 24.4 119.7 14.06 119.7 14.1 C 119.7 12.1 118.8 11.4 117.4 11.4 C 116 11.4 114.7 12.6 114 13.8 C 114 13.76 114 24.4 114 24.4 L 111.9 24.4 L 111.9 9.9 L 114 9.9 C 114 9.9 114 11.96 114 12 C 114.8 10.7 116.5 9.5 118.2 9.5 C 120.7 9.5 121.9 10.8 121.9 13.5 C 121.86 13.46 121.9 24.4 121.9 24.4 L 119.7 24.4 Z M 125.9 21.5 C 125.94 21.47 125.9 11.8 125.9 11.8 L 124 11.8 L 124 9.9 L 125.9 9.9 L 125.9 5.9 L 128.1 5.9 L 128.1 9.9 L 130.6 9.9 L 130.6 11.8 L 128.1 11.8 C 128.1 11.8 128.1 21.08 128.1 21.1 C 128.1 22.2 128.4 22.8 129.3 22.8 C 129.8 22.8 130.3 22.6 130.5 22.2 C 130.5 22.2 131.2 23.9 131.2 23.9 C 130.7 24.4 130 24.7 128.8 24.7 C 126.9 24.7 125.9 23.6 125.9 21.5 Z M 133.9 28.2 C 133.9 28.2 132.8 27.3 132.8 27.3 C 133.8 26.6 134.6 25.5 134.8 24.5 C 134.7 24.5 134.5 24.5 134.4 24.5 C 133.6 24.5 133 23.9 133 23.1 C 133 22.2 133.6 21.5 134.5 21.5 C 135.5 21.5 136.3 22.3 136.3 23.7 C 136.3 25.5 135.3 27.2 133.9 28.2 Z M 145.9 24.4 L 145.9 4.4 C 145.9 4.4 152.55 4.37 152.5 4.4 C 155.7 4.4 157.5 6.4 157.5 9.5 C 157.5 12 156.2 13.6 154.4 14.1 C 156.4 14.4 157.8 16.6 157.8 19 C 157.8 22.2 156.1 24.4 152.7 24.4 C 152.73 24.38 145.9 24.4 145.9 24.4 Z M 155 9.8 C 155 7.9 154.1 6.5 152.1 6.5 C 152.1 6.47 148.3 6.5 148.3 6.5 L 148.3 13.1 C 148.3 13.1 152.1 13.1 152.1 13.1 C 154.1 13.1 155 11.7 155 9.8 Z M 155.4 18.7 C 155.4 16.8 154.4 15.2 152.2 15.2 C 152.25 15.2 148.3 15.2 148.3 15.2 L 148.3 22.2 C 148.3 22.2 152.25 22.25 152.2 22.2 C 154.3 22.2 155.4 20.9 155.4 18.7 Z M 168.8 24.4 C 168.8 24.4 168.81 22.37 168.8 22.4 C 167.9 23.6 166.4 24.7 164.6 24.7 C 162.1 24.7 161 23.5 161 20.9 C 160.98 20.87 161 9.9 161 9.9 L 163.1 9.9 C 163.1 9.9 163.11 20.24 163.1 20.2 C 163.1 22.2 164 22.8 165.4 22.8 C 166.9 22.8 168.2 21.8 168.8 20.6 C 168.81 20.57 168.8 9.9 168.8 9.9 L 171 9.9 L 171 24.4 L 168.8 24.4 Z M 174.6 24.4 L 174.6 9.9 L 176.8 9.9 C 176.8 9.9 176.76 12.2 176.8 12.2 C 177.7 10.7 179.1 9.6 180.9 9.6 C 180.9 9.6 180.9 11.8 180.9 11.8 C 180.6 11.7 180.4 11.7 180.1 11.7 C 178.8 11.7 177.4 12.9 176.8 14.1 C 176.76 14.09 176.8 24.4 176.8 24.4 L 174.6 24.4 Z M 190.9 24.4 C 190.9 24.4 190.89 14.06 190.9 14.1 C 190.9 12.1 190 11.4 188.6 11.4 C 187.2 11.4 185.8 12.6 185.2 13.8 C 185.19 13.76 185.2 24.4 185.2 24.4 L 183.1 24.4 L 183.1 9.9 L 185.2 9.9 C 185.2 9.9 185.19 11.96 185.2 12 C 186 10.7 187.6 9.5 189.4 9.5 C 191.8 9.5 193 10.8 193 13.5 C 193.05 13.46 193 24.4 193 24.4 L 190.9 24.4 Z M 197.1 21.5 C 197.12 21.47 197.1 11.8 197.1 11.8 L 195.2 11.8 L 195.2 9.9 L 197.1 9.9 L 197.1 5.9 L 199.3 5.9 L 199.3 9.9 L 201.7 9.9 L 201.7 11.8 L 199.3 11.8 C 199.3 11.8 199.28 21.08 199.3 21.1 C 199.3 22.2 199.6 22.8 200.5 22.8 C 201 22.8 201.4 22.6 201.7 22.2 C 201.7 22.2 202.4 23.9 202.4 23.9 C 201.9 24.4 201.1 24.7 200 24.7 C 198.1 24.7 197.1 23.6 197.1 21.5 Z M 210.6 17.9 C 210.56 17.9 210.6 4.4 210.6 4.4 L 213 4.4 C 213 4.4 212.96 17.93 213 17.9 C 213 21 214.4 22.6 217 22.6 C 219.6 22.6 221 21 221 17.9 C 221.03 17.93 221 4.4 221 4.4 L 223.4 4.4 C 223.4 4.4 223.4 17.9 223.4 17.9 C 223.4 22.3 221 24.7 217 24.7 C 213 24.7 210.6 22.3 210.6 17.9 Z M 241.9 24.4 C 241.9 24.4 241.85 13.88 241.9 13.9 C 241.9 12.3 241.2 11.4 239.8 11.4 C 238.6 11.4 237.3 12.6 236.7 13.8 C 236.69 13.76 236.7 24.4 236.7 24.4 L 234.5 24.4 C 234.5 24.4 234.53 13.88 234.5 13.9 C 234.5 12.3 233.9 11.4 232.5 11.4 C 231.2 11.4 230 12.6 229.3 13.8 C 229.34 13.76 229.3 24.4 229.3 24.4 L 227.2 24.4 L 227.2 9.9 L 229.3 9.9 C 229.3 9.9 229.34 11.96 229.3 12 C 229.9 10.9 231.6 9.5 233.3 9.5 C 235.2 9.5 236.3 10.6 236.6 12.1 C 237.3 10.8 238.9 9.5 240.7 9.5 C 242.8 9.5 244 10.7 244 13.3 C 244.01 13.31 244 24.4 244 24.4 L 241.9 24.4 Z M 253.1 22.8 C 255.4 22.8 256.6 20.3 256.6 17.1 C 256.6 14 255.4 11.4 253.1 11.4 C 251.7 11.4 250.4 12.6 249.8 13.8 C 249.8 13.8 249.8 20.5 249.8 20.5 C 250.4 21.7 251.7 22.8 253.1 22.8 Z M 247.7 24.4 L 247.7 4.4 L 249.8 4.4 C 249.8 4.4 249.8 11.99 249.8 12 C 250.7 10.4 252.1 9.5 253.6 9.5 C 256.9 9.5 258.8 12.6 258.8 17.1 C 258.8 21.7 256.9 24.7 253.6 24.7 C 252.1 24.7 250.6 23.8 249.8 22.3 C 249.8 22.31 249.8 24.4 249.8 24.4 L 247.7 24.4 Z M 261.1 17.1 C 261.1 12.9 263.3 9.5 266.9 9.5 C 270.7 9.5 272.7 12.9 272.7 17.2 C 272.66 17.18 272.7 17.8 272.7 17.8 C 272.7 17.8 263.27 17.84 263.3 17.8 C 263.4 20.7 264.9 22.9 267.4 22.9 C 268.7 22.9 270 22.3 270.9 21.2 C 270.9 21.2 272 22.4 272 22.4 C 270.9 23.9 269.2 24.7 267.3 24.7 C 263.4 24.7 261.1 21.6 261.1 17.1 Z M 266.9 11.3 C 264.4 11.3 263.3 14.1 263.3 16.2 C 263.3 16.2 270.5 16.2 270.5 16.2 C 270.5 14 269.5 11.3 266.9 11.3 Z M 275.5 24.4 L 275.5 9.9 L 277.6 9.9 C 277.6 9.9 277.64 12.2 277.6 12.2 C 278.6 10.7 280 9.6 281.8 9.6 C 281.8 9.6 281.8 11.8 281.8 11.8 C 281.5 11.7 281.3 11.7 281 11.7 C 279.7 11.7 278.2 12.9 277.6 14.1 C 277.64 14.09 277.6 24.4 277.6 24.4 L 275.5 24.4 Z " stroke="none" fill="#d3d2d2"/>  </g></svg>