<?xml version="1.0" standalone="no"?><!DOCTYPE svg PUBLIC "-//W3C//DTD SVG 1.1//EN" "http://www.w3.org/Graphics/SVG/1.1/DTD/svg11.dtd"><svg xmlns="http://www.w3.org/2000/svg" version="1.1" width="182px" height="44.3px" viewBox="0 0 182 44.3">  <desc>about ersatz</desc>  <defs/>  <g id="Polygon228760">    <path d="M 22 7.2 L 27.1 23.7 L 23 23.7 L 22.3 20.8 L 17.2 20.8 L 16.4 23.7 L 12.4 23.7 L 17.5 7.2 L 22 7.2 Z M 19.7 11.2 L 18 17.6 L 21.5 17.6 L 19.7 11.2 Z M 28.6 23.7 L 28.6 7.2 C 28.6 7.2 35.83 7.2 35.8 7.2 C 39 7.2 40.5 9.2 40.5 11.4 C 40.5 13.4 39.4 14.7 37.9 15.2 C 39.6 15.6 40.8 17.2 40.8 19.2 C 40.8 21.7 39.3 23.7 36 23.7 C 36.04 23.7 28.6 23.7 28.6 23.7 Z M 37 18.7 C 37 17.7 36.4 16.9 35.3 16.9 C 35.26 16.89 32.4 16.9 32.4 16.9 L 32.4 20.5 C 32.4 20.5 35.26 20.49 35.3 20.5 C 36.4 20.5 37 19.8 37 18.7 Z M 36.7 12.1 C 36.7 11.1 36.2 10.4 35.1 10.4 C 35.11 10.41 32.4 10.4 32.4 10.4 L 32.4 13.7 C 32.4 13.7 35.11 13.68 35.1 13.7 C 36.2 13.7 36.7 13 36.7 12.1 Z M 42.5 15.4 C 42.5 10.5 45.2 6.8 49.8 6.8 C 54.4 6.8 57 10.5 57 15.4 C 57 20.4 54.4 24.1 49.8 24.1 C 45.2 24.1 42.5 20.4 42.5 15.4 Z M 53.2 15.4 C 53.2 12.4 52 10.1 49.8 10.1 C 47.5 10.1 46.4 12.4 46.4 15.4 C 46.4 18.4 47.5 20.8 49.8 20.8 C 52 20.8 53.2 18.4 53.2 15.4 Z M 59.6 17.5 C 59.58 17.49 59.6 7.2 59.6 7.2 L 63.4 7.2 C 63.4 7.2 63.36 17.73 63.4 17.7 C 63.4 19.6 64.3 20.8 66.1 20.8 C 67.8 20.8 68.8 19.6 68.8 17.7 C 68.76 17.73 68.8 7.2 68.8 7.2 L 72.5 7.2 C 72.5 7.2 72.51 17.46 72.5 17.5 C 72.5 21.7 70.2 24.1 66.1 24.1 C 61.9 24.1 59.6 21.7 59.6 17.5 Z M 78.2 23.7 L 78.2 10.4 L 74.7 10.4 L 74.7 7.2 L 85.6 7.2 L 85.6 10.4 L 82 10.4 L 82 23.7 L 78.2 23.7 Z M 94 23.7 L 94 7.2 L 104.1 7.2 L 104.1 10.4 L 97.7 10.4 L 97.7 13.7 L 103.9 13.7 L 103.9 16.9 L 97.7 16.9 L 97.7 20.5 L 104.1 20.5 L 104.1 23.7 L 94 23.7 Z M 114.8 23.7 L 112.3 17.9 L 110.6 17.9 L 110.6 23.7 L 106.8 23.7 L 106.8 7.2 C 106.8 7.2 113.43 7.2 113.4 7.2 C 116.9 7.2 118.7 9.6 118.7 12.5 C 118.7 15.4 117.2 16.9 115.8 17.3 C 115.77 17.34 118.9 23.7 118.9 23.7 L 114.8 23.7 Z M 115 12.6 C 115 11.3 114.2 10.4 113 10.4 C 112.98 10.44 110.6 10.4 110.6 10.4 L 110.6 14.7 C 110.6 14.7 112.98 14.67 113 14.7 C 114.3 14.7 115 13.8 115 12.6 Z M 120.3 22 C 120.3 22 122 19.1 122 19.1 C 122.9 20.1 124.5 20.9 126.2 20.9 C 127.6 20.9 128.4 20.2 128.4 19.1 C 128.4 16.4 120.9 17.3 120.9 11.7 C 120.9 9 123.1 6.8 126.6 6.8 C 128.9 6.8 130.6 7.5 132 8.7 C 132 8.7 130.4 11.4 130.4 11.4 C 129.4 10.5 128 10 126.7 10 C 125.6 10 124.7 10.6 124.7 11.6 C 124.7 14 132.3 13.3 132.3 19 C 132.3 22 130.1 24.1 126.2 24.1 C 123.7 24.1 121.7 23.2 120.3 22 Z M 142.4 7.2 L 147.5 23.7 L 143.5 23.7 L 142.7 20.8 L 137.6 20.8 L 136.9 23.7 L 132.8 23.7 L 137.9 7.2 L 142.4 7.2 Z M 140.2 11.2 L 138.4 17.6 L 141.9 17.6 L 140.2 11.2 Z M 150.6 23.7 L 150.6 10.4 L 147 10.4 L 147 7.2 L 157.9 7.2 L 157.9 10.4 L 154.4 10.4 L 154.4 23.7 L 150.6 23.7 Z M 159.3 23.7 L 159.3 20.9 L 165.3 10.5 L 159.3 10.5 L 159.3 7.2 L 170 7.2 L 170 9.9 L 164.1 20.4 L 170.2 20.4 L 170.2 23.7 L 159.3 23.7 Z " stroke="none" fill="#7c7979"/>  </g></svg>