<?xml version="1.0" standalone="no"?><!DOCTYPE svg PUBLIC "-//W3C//DTD SVG 1.1//EN" "http://www.w3.org/Graphics/SVG/1.1/DTD/svg11.dtd"><svg xmlns="http://www.w3.org/2000/svg" version="1.1" width="219px" height="409.3px" viewBox="0 0 219 409.3">  <desc>270 ml 2 tbsp 2 tbsp 1 tsp 40 ml 120 ml 2 drops tsp optional optional to taste</desc>  <defs/>  <g id="Polygon152639">    <path d="M 2.4 389.8 C 2.4 389.79 2.4 380.1 2.4 380.1 L 0.5 380.1 L 0.5 378.2 L 2.4 378.2 L 2.4 374.2 L 4.6 374.2 L 4.6 378.2 L 7 378.2 L 7 380.1 L 4.6 380.1 C 4.6 380.1 4.56 389.4 4.6 389.4 C 4.6 390.5 4.9 391.1 5.7 391.1 C 6.3 391.1 6.7 390.9 7 390.6 C 7 390.6 7.6 392.2 7.6 392.2 C 7.1 392.7 6.4 393.1 5.3 393.1 C 3.3 393.1 2.4 391.9 2.4 389.8 Z M 9.1 385.4 C 9.1 381.4 11.2 377.8 15 377.8 C 18.9 377.8 20.9 381.4 20.9 385.4 C 20.9 389.5 18.9 393.1 15 393.1 C 11.2 393.1 9.1 389.5 9.1 385.4 Z M 18.7 385.4 C 18.7 382.5 17.6 379.8 15 379.8 C 12.5 379.8 11.4 382.5 11.4 385.4 C 11.4 388.4 12.5 391.1 15 391.1 C 17.6 391.1 18.7 388.4 18.7 385.4 Z M 31 389.8 C 31.05 389.79 31 380.1 31 380.1 L 29.1 380.1 L 29.1 378.2 L 31 378.2 L 31 374.2 L 33.2 374.2 L 33.2 378.2 L 35.7 378.2 L 35.7 380.1 L 33.2 380.1 C 33.2 380.1 33.21 389.4 33.2 389.4 C 33.2 390.5 33.5 391.1 34.4 391.1 C 34.9 391.1 35.4 390.9 35.6 390.6 C 35.6 390.6 36.3 392.2 36.3 392.2 C 35.8 392.7 35.1 393.1 34 393.1 C 32 393.1 31 391.9 31 389.8 Z M 46 392.7 C 46 392.7 45.96 391.14 46 391.1 C 45 392.5 43.6 393.1 42.1 393.1 C 39.8 393.1 37.8 391.3 37.8 388.2 C 37.8 385.2 39.8 383.5 42.1 383.5 C 43.6 383.5 45.1 384 46 385.3 C 46 385.3 46 382.8 46 382.8 C 46 380.8 44.9 379.7 43 379.7 C 41.6 379.7 40.5 380.2 39.4 381.5 C 39.4 381.5 38.4 379.9 38.4 379.9 C 39.8 378.5 41.5 377.8 43.3 377.8 C 46.2 377.8 48.1 379.3 48.1 382.6 C 48.12 382.56 48.1 392.7 48.1 392.7 L 46 392.7 Z M 46 389.7 C 46 389.7 46 386.9 46 386.9 C 45.3 385.7 44.1 385 42.8 385 C 41 385 40 386.5 40 388.3 C 40 390.1 41 391.5 42.8 391.5 C 44.1 391.5 45.3 390.9 46 389.7 Z M 50.9 391 C 50.9 391 52 389.5 52 389.5 C 52.8 390.5 54.2 391.3 55.7 391.3 C 57.4 391.3 58.5 390.4 58.5 389 C 58.5 385.6 51.3 386.8 51.3 381.7 C 51.3 379.6 53 377.8 55.9 377.8 C 57.8 377.8 59.3 378.6 60.3 379.7 C 60.3 379.7 59.3 381.2 59.3 381.2 C 58.6 380.2 57.4 379.6 55.9 379.6 C 54.4 379.6 53.4 380.5 53.4 381.7 C 53.4 384.8 60.6 383.7 60.6 388.9 C 60.6 391.3 58.7 393.1 55.8 393.1 C 53.7 393.1 52.1 392.4 50.9 391 Z M 64.1 389.8 C 64.08 389.79 64.1 380.1 64.1 380.1 L 62.2 380.1 L 62.2 378.2 L 64.1 378.2 L 64.1 374.2 L 66.2 374.2 L 66.2 378.2 L 68.7 378.2 L 68.7 380.1 L 66.2 380.1 C 66.2 380.1 66.24 389.4 66.2 389.4 C 66.2 390.5 66.6 391.1 67.4 391.1 C 67.9 391.1 68.4 390.9 68.7 390.6 C 68.7 390.6 69.3 392.2 69.3 392.2 C 68.8 392.7 68.1 393.1 67 393.1 C 65 393.1 64.1 391.9 64.1 389.8 Z M 70.8 385.4 C 70.8 381.2 73 377.8 76.7 377.8 C 80.5 377.8 82.4 381.3 82.4 385.5 C 82.44 385.5 82.4 386.2 82.4 386.2 C 82.4 386.2 73.05 386.16 73 386.2 C 73.1 389.1 74.6 391.3 77.2 391.3 C 78.5 391.3 79.8 390.6 80.7 389.5 C 80.7 389.5 81.8 390.7 81.8 390.7 C 80.6 392.2 79 393.1 77 393.1 C 73.2 393.1 70.8 389.9 70.8 385.4 Z M 76.7 379.6 C 74.1 379.6 73.1 382.4 73 384.6 C 73 384.6 80.3 384.6 80.3 384.6 C 80.3 382.3 79.3 379.6 76.7 379.6 Z " stroke="none" fill="#d0d1d4"/>  </g>  <g id="Polygon152638">    <path d="M 1.3 349.4 C 1.3 345.4 3.3 341.8 7.1 341.8 C 11 341.8 13 345.4 13 349.4 C 13 353.5 11 357.1 7.1 357.1 C 3.3 357.1 1.3 353.5 1.3 349.4 Z M 10.8 349.4 C 10.8 346.5 9.7 343.8 7.1 343.8 C 4.7 343.8 3.5 346.5 3.5 349.4 C 3.5 352.4 4.7 355.1 7.1 355.1 C 9.7 355.1 10.8 352.4 10.8 349.4 Z M 18.4 354.6 C 18.42 354.6 18.4 362.2 18.4 362.2 L 16.3 362.2 L 16.3 342.2 L 18.4 342.2 C 18.4 342.2 18.42 344.28 18.4 344.3 C 19.3 342.8 20.7 341.8 22.2 341.8 C 25.5 341.8 27.4 344.9 27.4 349.4 C 27.4 354 25.5 357.1 22.2 357.1 C 20.8 357.1 19.3 356.2 18.4 354.6 Z M 25.2 349.4 C 25.2 346.3 24.1 343.8 21.7 343.8 C 20.3 343.8 19 344.8 18.4 346.1 C 18.4 346.1 18.4 352.7 18.4 352.7 C 19 354 20.3 355.1 21.7 355.1 C 24.1 355.1 25.2 352.6 25.2 349.4 Z M 31 353.8 C 31.05 353.79 31 344.1 31 344.1 L 29.1 344.1 L 29.1 342.2 L 31 342.2 L 31 338.2 L 33.2 338.2 L 33.2 342.2 L 35.7 342.2 L 35.7 344.1 L 33.2 344.1 C 33.2 344.1 33.21 353.4 33.2 353.4 C 33.2 354.5 33.5 355.1 34.4 355.1 C 34.9 355.1 35.4 354.9 35.6 354.6 C 35.6 354.6 36.3 356.2 36.3 356.2 C 35.8 356.7 35.1 357.1 34 357.1 C 32 357.1 31 355.9 31 353.8 Z M 38.1 338.6 C 38.1 337.8 38.8 337.2 39.6 337.2 C 40.4 337.2 41 337.8 41 338.6 C 41 339.4 40.4 340.1 39.6 340.1 C 38.8 340.1 38.1 339.4 38.1 338.6 Z M 38.5 356.7 L 38.5 342.2 L 40.6 342.2 L 40.6 356.7 L 38.5 356.7 Z M 43.9 349.4 C 43.9 345.4 45.9 341.8 49.8 341.8 C 53.7 341.8 55.7 345.4 55.7 349.4 C 55.7 353.5 53.7 357.1 49.8 357.1 C 45.9 357.1 43.9 353.5 43.9 349.4 Z M 53.4 349.4 C 53.4 346.5 52.3 343.8 49.8 343.8 C 47.3 343.8 46.1 346.5 46.1 349.4 C 46.1 352.4 47.3 355.1 49.8 355.1 C 52.3 355.1 53.4 352.4 53.4 349.4 Z M 66.7 356.7 C 66.7 356.7 66.75 346.38 66.7 346.4 C 66.7 344.5 65.9 343.8 64.4 343.8 C 63 343.8 61.7 344.9 61 346.1 C 61.05 346.08 61 356.7 61 356.7 L 58.9 356.7 L 58.9 342.2 L 61 342.2 C 61 342.2 61.05 344.28 61 344.3 C 61.9 343 63.5 341.8 65.2 341.8 C 67.7 341.8 68.9 343.2 68.9 345.8 C 68.91 345.78 68.9 356.7 68.9 356.7 L 66.7 356.7 Z M 80.3 356.7 C 80.3 356.7 80.31 355.14 80.3 355.1 C 79.4 356.5 78 357.1 76.5 357.1 C 74.2 357.1 72.1 355.3 72.1 352.2 C 72.1 349.2 74.1 347.5 76.5 347.5 C 78 347.5 79.4 348 80.3 349.3 C 80.3 349.3 80.3 346.8 80.3 346.8 C 80.3 344.8 79.2 343.7 77.3 343.7 C 76 343.7 74.8 344.2 73.7 345.5 C 73.7 345.5 72.7 343.9 72.7 343.9 C 74.1 342.5 75.8 341.8 77.7 341.8 C 80.5 341.8 82.5 343.3 82.5 346.6 C 82.47 346.56 82.5 356.7 82.5 356.7 L 80.3 356.7 Z M 80.3 353.7 C 80.3 353.7 80.3 350.9 80.3 350.9 C 79.6 349.7 78.4 349 77.2 349 C 75.4 349 74.3 350.5 74.3 352.3 C 74.3 354.1 75.4 355.5 77.2 355.5 C 78.4 355.5 79.6 354.9 80.3 353.7 Z M 86.4 356.7 L 86.4 336.7 L 88.5 336.7 L 88.5 356.7 L 86.4 356.7 Z " stroke="none" fill="#d0d1d4"/>  </g>  <g id="Polygon152637">    <path d="M 1.3 313.4 C 1.3 309.4 3.3 305.8 7.1 305.8 C 11 305.8 13 309.4 13 313.4 C 13 317.5 11 321.1 7.1 321.1 C 3.3 321.1 1.3 317.5 1.3 313.4 Z M 10.8 313.4 C 10.8 310.5 9.7 307.8 7.1 307.8 C 4.7 307.8 3.5 310.5 3.5 313.4 C 3.5 316.4 4.7 319.1 7.1 319.1 C 9.7 319.1 10.8 316.4 10.8 313.4 Z M 18.4 318.6 C 18.42 318.6 18.4 326.2 18.4 326.2 L 16.3 326.2 L 16.3 306.2 L 18.4 306.2 C 18.4 306.2 18.42 308.28 18.4 308.3 C 19.3 306.8 20.7 305.8 22.2 305.8 C 25.5 305.8 27.4 308.9 27.4 313.4 C 27.4 318 25.5 321.1 22.2 321.1 C 20.8 321.1 19.3 320.2 18.4 318.6 Z M 25.2 313.4 C 25.2 310.3 24.1 307.8 21.7 307.8 C 20.3 307.8 19 308.8 18.4 310.1 C 18.4 310.1 18.4 316.7 18.4 316.7 C 19 318 20.3 319.1 21.7 319.1 C 24.1 319.1 25.2 316.6 25.2 313.4 Z M 31 317.8 C 31.05 317.79 31 308.1 31 308.1 L 29.1 308.1 L 29.1 306.2 L 31 306.2 L 31 302.2 L 33.2 302.2 L 33.2 306.2 L 35.7 306.2 L 35.7 308.1 L 33.2 308.1 C 33.2 308.1 33.21 317.4 33.2 317.4 C 33.2 318.5 33.5 319.1 34.4 319.1 C 34.9 319.1 35.4 318.9 35.6 318.6 C 35.6 318.6 36.3 320.2 36.3 320.2 C 35.8 320.7 35.1 321.1 34 321.1 C 32 321.1 31 319.9 31 317.8 Z M 38.1 302.6 C 38.1 301.8 38.8 301.2 39.6 301.2 C 40.4 301.2 41 301.8 41 302.6 C 41 303.4 40.4 304.1 39.6 304.1 C 38.8 304.1 38.1 303.4 38.1 302.6 Z M 38.5 320.7 L 38.5 306.2 L 40.6 306.2 L 40.6 320.7 L 38.5 320.7 Z M 43.9 313.4 C 43.9 309.4 45.9 305.8 49.8 305.8 C 53.7 305.8 55.7 309.4 55.7 313.4 C 55.7 317.5 53.7 321.1 49.8 321.1 C 45.9 321.1 43.9 317.5 43.9 313.4 Z M 53.4 313.4 C 53.4 310.5 52.3 307.8 49.8 307.8 C 47.3 307.8 46.1 310.5 46.1 313.4 C 46.1 316.4 47.3 319.1 49.8 319.1 C 52.3 319.1 53.4 316.4 53.4 313.4 Z M 66.7 320.7 C 66.7 320.7 66.75 310.38 66.7 310.4 C 66.7 308.5 65.9 307.8 64.4 307.8 C 63 307.8 61.7 308.9 61 310.1 C 61.05 310.08 61 320.7 61 320.7 L 58.9 320.7 L 58.9 306.2 L 61 306.2 C 61 306.2 61.05 308.28 61 308.3 C 61.9 307 63.5 305.8 65.2 305.8 C 67.7 305.8 68.9 307.2 68.9 309.8 C 68.91 309.78 68.9 320.7 68.9 320.7 L 66.7 320.7 Z M 80.3 320.7 C 80.3 320.7 80.31 319.14 80.3 319.1 C 79.4 320.5 78 321.1 76.5 321.1 C 74.2 321.1 72.1 319.3 72.1 316.2 C 72.1 313.2 74.1 311.5 76.5 311.5 C 78 311.5 79.4 312 80.3 313.3 C 80.3 313.3 80.3 310.8 80.3 310.8 C 80.3 308.8 79.2 307.7 77.3 307.7 C 76 307.7 74.8 308.2 73.7 309.5 C 73.7 309.5 72.7 307.9 72.7 307.9 C 74.1 306.5 75.8 305.8 77.7 305.8 C 80.5 305.8 82.5 307.3 82.5 310.6 C 82.47 310.56 82.5 320.7 82.5 320.7 L 80.3 320.7 Z M 80.3 317.7 C 80.3 317.7 80.3 314.9 80.3 314.9 C 79.6 313.7 78.4 313 77.2 313 C 75.4 313 74.3 314.5 74.3 316.3 C 74.3 318.1 75.4 319.5 77.2 319.5 C 78.4 319.5 79.6 318.9 80.3 317.7 Z M 86.4 320.7 L 86.4 300.7 L 88.5 300.7 L 88.5 320.7 L 86.4 320.7 Z " stroke="none" fill="#d0d1d4"/>  </g>  <g id="Polygon152636">    <path d="M 3.3 276.7 L 3.3 266.9 L 1.4 268.9 L 0.4 267.9 L 3.5 264.7 L 5.1 264.7 L 5.1 276.7 L 3.3 276.7 Z M 12.7 284.7 C 12.7 284.7 12.66 283.38 12.7 283.4 C 16.9 279.2 18.4 277.7 18.4 275.9 C 18.4 274.6 17.4 274 16.3 274 C 15.1 274 14.1 274.6 13.6 275.5 C 13.6 275.5 12.5 274.4 12.5 274.4 C 13.4 273.2 14.8 272.5 16.4 272.5 C 18.4 272.5 20.1 273.7 20.1 275.8 C 20.1 277.9 18.4 279.8 15 283.3 C 15 283.26 20.2 283.3 20.2 283.3 L 20.2 284.7 L 12.7 284.7 Z M 5 284.7 L 3.5 284.7 L 14 264.7 L 15.5 264.7 L 5 284.7 Z M 30.1 281.8 C 30.06 281.79 30.1 272.1 30.1 272.1 L 28.1 272.1 L 28.1 270.2 L 30.1 270.2 L 30.1 266.2 L 32.2 266.2 L 32.2 270.2 L 34.7 270.2 L 34.7 272.1 L 32.2 272.1 C 32.2 272.1 32.22 281.4 32.2 281.4 C 32.2 282.5 32.5 283.1 33.4 283.1 C 33.9 283.1 34.4 282.9 34.6 282.6 C 34.6 282.6 35.3 284.2 35.3 284.2 C 34.8 284.7 34.1 285.1 33 285.1 C 31 285.1 30.1 283.9 30.1 281.8 Z M 36.4 283 C 36.4 283 37.4 281.5 37.4 281.5 C 38.3 282.5 39.7 283.3 41.2 283.3 C 42.9 283.3 44 282.4 44 281 C 44 277.6 36.8 278.8 36.8 273.7 C 36.8 271.6 38.5 269.8 41.4 269.8 C 43.3 269.8 44.8 270.6 45.8 271.7 C 45.8 271.7 44.8 273.2 44.8 273.2 C 44.1 272.2 42.8 271.6 41.4 271.6 C 39.8 271.6 38.8 272.5 38.8 273.7 C 38.8 276.8 46.1 275.7 46.1 280.9 C 46.1 283.3 44.2 285.1 41.2 285.1 C 39.2 285.1 37.6 284.4 36.4 283 Z M 51.3 282.6 C 51.27 282.6 51.3 290.2 51.3 290.2 L 49.1 290.2 L 49.1 270.2 L 51.3 270.2 C 51.3 270.2 51.27 272.28 51.3 272.3 C 52.1 270.8 53.5 269.8 55.1 269.8 C 58.3 269.8 60.3 272.9 60.3 277.4 C 60.3 282 58.3 285.1 55.1 285.1 C 53.6 285.1 52.2 284.2 51.3 282.6 Z M 58 277.4 C 58 274.3 56.9 271.8 54.5 271.8 C 53.2 271.8 51.8 272.8 51.3 274.1 C 51.3 274.1 51.3 280.7 51.3 280.7 C 51.8 282 53.2 283.1 54.5 283.1 C 56.9 283.1 58 280.6 58 277.4 Z M 63.1 283.4 C 63.1 282.5 63.8 281.8 64.7 281.8 C 65.6 281.8 66.3 282.5 66.3 283.4 C 66.3 284.3 65.6 285 64.7 285 C 63.8 285 63.1 284.3 63.1 283.4 Z " stroke="none" fill="#d0d1d4"/>  </g>  <g id="Polygon152635">    <path d="M 1.6 248.7 C 1.6 248.7 1.59 246.75 1.6 246.7 C 8.1 239.2 10.4 236.8 10.4 233.8 C 10.4 231.7 8.9 230.5 7.2 230.5 C 5.3 230.5 3.9 231.4 2.9 233 C 2.9 233 1.4 231.6 1.4 231.6 C 2.7 229.6 4.7 228.4 7.2 228.4 C 10.3 228.4 12.8 230.4 12.8 233.8 C 12.8 237.2 10.3 240.2 5 246.6 C 4.98 246.57 12.9 246.6 12.9 246.6 L 12.9 248.7 L 1.6 248.7 Z M 31.4 248.7 C 31.4 248.7 31.38 246.63 31.4 246.6 C 30.5 248.1 29.1 249.1 27.6 249.1 C 24.3 249.1 22.4 246 22.4 241.5 C 22.4 237 24.3 233.8 27.6 233.8 C 29 233.8 30.5 234.7 31.4 236.3 C 31.38 236.31 31.4 228.7 31.4 228.7 L 33.5 228.7 L 33.5 248.7 L 31.4 248.7 Z M 31.4 244.8 C 31.4 244.8 31.4 238.1 31.4 238.1 C 30.8 236.9 29.5 235.8 28.1 235.8 C 25.7 235.8 24.6 238.3 24.6 241.5 C 24.6 244.6 25.7 247.1 28.1 247.1 C 29.5 247.1 30.8 246.1 31.4 244.8 Z M 37.5 248.7 L 37.5 234.2 L 39.6 234.2 C 39.6 234.2 39.63 236.52 39.6 236.5 C 40.6 235 42 233.9 43.7 233.9 C 43.7 233.9 43.7 236.1 43.7 236.1 C 43.5 236.1 43.3 236 43 236 C 41.7 236 40.2 237.2 39.6 238.4 C 39.63 238.41 39.6 248.7 39.6 248.7 L 37.5 248.7 Z M 45.5 241.4 C 45.5 237.4 47.5 233.8 51.4 233.8 C 55.3 233.8 57.3 237.4 57.3 241.4 C 57.3 245.5 55.3 249.1 51.4 249.1 C 47.5 249.1 45.5 245.5 45.5 241.4 Z M 55 241.4 C 55 238.5 53.9 235.8 51.4 235.8 C 48.9 235.8 47.8 238.5 47.8 241.4 C 47.8 244.4 48.9 247.1 51.4 247.1 C 53.9 247.1 55 244.4 55 241.4 Z M 62.7 246.6 C 62.67 246.6 62.7 254.2 62.7 254.2 L 60.5 254.2 L 60.5 234.2 L 62.7 234.2 C 62.7 234.2 62.67 236.28 62.7 236.3 C 63.5 234.8 64.9 233.8 66.5 233.8 C 69.7 233.8 71.7 236.9 71.7 241.4 C 71.7 246 69.7 249.1 66.5 249.1 C 65 249.1 63.6 248.2 62.7 246.6 Z M 69.4 241.4 C 69.4 238.3 68.3 235.8 65.9 235.8 C 64.6 235.8 63.2 236.8 62.7 238.1 C 62.7 238.1 62.7 244.7 62.7 244.7 C 63.2 246 64.6 247.1 65.9 247.1 C 68.3 247.1 69.4 244.6 69.4 241.4 Z M 73.7 247 C 73.7 247 74.8 245.5 74.8 245.5 C 75.6 246.5 77 247.3 78.6 247.3 C 80.2 247.3 81.4 246.4 81.4 245 C 81.4 241.6 74.1 242.8 74.1 237.7 C 74.1 235.6 75.9 233.8 78.7 233.8 C 80.7 233.8 82.1 234.6 83.2 235.7 C 83.2 235.7 82.1 237.2 82.1 237.2 C 81.4 236.2 80.2 235.6 78.8 235.6 C 77.2 235.6 76.2 236.5 76.2 237.7 C 76.2 240.8 83.4 239.7 83.4 244.9 C 83.4 247.3 81.6 249.1 78.6 249.1 C 76.6 249.1 74.9 248.4 73.7 247 Z " stroke="none" fill="#d0d1d4"/>  </g>  <g id="Polygon152634">    <path d="M 5 212.7 L 5 195.8 L 1.9 199.1 L 0.4 197.6 L 5.3 192.7 L 7.3 192.7 L 7.3 212.7 L 5 212.7 Z M 11 212.7 C 11 212.7 11.04 210.75 11 210.7 C 17.6 203.2 19.8 200.8 19.8 197.8 C 19.8 195.7 18.3 194.5 16.6 194.5 C 14.7 194.5 13.3 195.4 12.4 197 C 12.4 197 10.8 195.6 10.8 195.6 C 12.1 193.6 14.1 192.4 16.6 192.4 C 19.7 192.4 22.3 194.4 22.3 197.8 C 22.3 201.2 19.7 204.2 14.4 210.6 C 14.43 210.57 22.3 210.6 22.3 210.6 L 22.3 212.7 L 11 212.7 Z M 25.5 202.7 C 25.5 197.9 27.1 192.4 31.8 192.4 C 36.5 192.4 38.1 197.9 38.1 202.7 C 38.1 207.5 36.5 213.1 31.8 213.1 C 27.1 213.1 25.5 207.5 25.5 202.7 Z M 35.6 202.7 C 35.6 198.7 34.9 194.5 31.8 194.5 C 28.7 194.5 28 198.7 28 202.7 C 28 206.6 28.7 210.9 31.8 210.9 C 34.9 210.9 35.6 206.6 35.6 202.7 Z M 62.5 212.7 C 62.5 212.7 62.55 202.2 62.5 202.2 C 62.5 200.6 61.9 199.8 60.5 199.8 C 59.2 199.8 58 200.9 57.4 202.1 C 57.39 202.08 57.4 212.7 57.4 212.7 L 55.2 212.7 C 55.2 212.7 55.23 202.2 55.2 202.2 C 55.2 200.6 54.6 199.8 53.2 199.8 C 51.9 199.8 50.7 200.9 50 202.1 C 50.04 202.08 50 212.7 50 212.7 L 47.9 212.7 L 47.9 198.2 L 50 198.2 C 50 198.2 50.04 200.28 50 200.3 C 50.6 199.2 52.3 197.8 54 197.8 C 55.9 197.8 57 198.9 57.3 200.4 C 58 199.1 59.6 197.8 61.3 197.8 C 63.5 197.8 64.7 199 64.7 201.6 C 64.71 201.63 64.7 212.7 64.7 212.7 L 62.5 212.7 Z M 68.7 212.7 L 68.7 192.7 L 70.8 192.7 L 70.8 212.7 L 68.7 212.7 Z " stroke="none" fill="#d0d1d4"/>  </g>  <g id="Polygon152633">    <path d="M 8.6 176.7 L 8.6 171.6 L 0.7 171.6 L 0.7 169.5 L 7.9 156.7 L 11 156.7 L 11 169.5 L 13.2 169.5 L 13.2 171.6 L 11 171.6 L 11 176.7 L 8.6 176.7 Z M 8.6 159.3 L 2.9 169.5 L 8.6 169.5 L 8.6 159.3 Z M 15.3 166.7 C 15.3 161.9 16.9 156.4 21.5 156.4 C 26.2 156.4 27.8 161.9 27.8 166.7 C 27.8 171.5 26.2 177.1 21.5 177.1 C 16.9 177.1 15.3 171.5 15.3 166.7 Z M 25.4 166.7 C 25.4 162.7 24.6 158.5 21.5 158.5 C 18.5 158.5 17.7 162.7 17.7 166.7 C 17.7 170.6 18.4 174.9 21.5 174.9 C 24.6 174.9 25.4 170.6 25.4 166.7 Z M 52.3 176.7 C 52.3 176.7 52.29 166.2 52.3 166.2 C 52.3 164.6 51.7 163.8 50.3 163.8 C 49 163.8 47.7 164.9 47.1 166.1 C 47.13 166.08 47.1 176.7 47.1 176.7 L 45 176.7 C 45 176.7 44.97 166.2 45 166.2 C 45 164.6 44.3 163.8 42.9 163.8 C 41.6 163.8 40.4 164.9 39.8 166.1 C 39.78 166.08 39.8 176.7 39.8 176.7 L 37.6 176.7 L 37.6 162.2 L 39.8 162.2 C 39.8 162.2 39.78 164.28 39.8 164.3 C 40.4 163.2 42 161.8 43.7 161.8 C 45.6 161.8 46.7 162.9 47 164.4 C 47.7 163.1 49.3 161.8 51.1 161.8 C 53.2 161.8 54.4 163 54.4 165.6 C 54.45 165.63 54.4 176.7 54.4 176.7 L 52.3 176.7 Z M 58.4 176.7 L 58.4 156.7 L 60.5 156.7 L 60.5 176.7 L 58.4 176.7 Z " stroke="none" fill="#d0d1d4"/>  </g>  <g id="Polygon152632">    <path d="M 5 140.7 L 5 123.8 L 1.9 127.1 L 0.4 125.6 L 5.3 120.7 L 7.3 120.7 L 7.3 140.7 L 5 140.7 Z M 18.3 137.8 C 18.3 137.79 18.3 128.1 18.3 128.1 L 16.4 128.1 L 16.4 126.2 L 18.3 126.2 L 18.3 122.2 L 20.5 122.2 L 20.5 126.2 L 22.9 126.2 L 22.9 128.1 L 20.5 128.1 C 20.5 128.1 20.46 137.4 20.5 137.4 C 20.5 138.5 20.8 139.1 21.6 139.1 C 22.2 139.1 22.6 138.9 22.9 138.6 C 22.9 138.6 23.5 140.2 23.5 140.2 C 23 140.7 22.3 141.1 21.2 141.1 C 19.2 141.1 18.3 139.9 18.3 137.8 Z M 24.6 139 C 24.6 139 25.7 137.5 25.7 137.5 C 26.5 138.5 27.9 139.3 29.5 139.3 C 31.1 139.3 32.2 138.4 32.2 137 C 32.2 133.6 25 134.8 25 129.7 C 25 127.6 26.8 125.8 29.6 125.8 C 31.6 125.8 33 126.6 34 127.7 C 34 127.7 33 129.2 33 129.2 C 32.3 128.2 31.1 127.6 29.7 127.6 C 28.1 127.6 27.1 128.5 27.1 129.7 C 27.1 132.8 34.3 131.7 34.3 136.9 C 34.3 139.3 32.5 141.1 29.5 141.1 C 27.4 141.1 25.8 140.4 24.6 139 Z M 39.5 138.6 C 39.51 138.6 39.5 146.2 39.5 146.2 L 37.4 146.2 L 37.4 126.2 L 39.5 126.2 C 39.5 126.2 39.51 128.28 39.5 128.3 C 40.3 126.8 41.8 125.8 43.3 125.8 C 46.6 125.8 48.5 128.9 48.5 133.4 C 48.5 138 46.6 141.1 43.3 141.1 C 41.8 141.1 40.4 140.2 39.5 138.6 Z M 46.3 133.4 C 46.3 130.3 45.1 127.8 42.8 127.8 C 41.4 127.8 40.1 128.8 39.5 130.1 C 39.5 130.1 39.5 136.7 39.5 136.7 C 40.1 138 41.4 139.1 42.8 139.1 C 45.1 139.1 46.3 136.6 46.3 133.4 Z M 51.4 139.4 C 51.4 138.5 52.1 137.8 52.9 137.8 C 53.8 137.8 54.6 138.5 54.6 139.4 C 54.6 140.3 53.8 141 52.9 141 C 52.1 141 51.4 140.3 51.4 139.4 Z " stroke="none" fill="#d0d1d4"/>  </g>  <g id="Polygon152631">    <path d="M 1.6 104.7 C 1.6 104.7 1.59 102.75 1.6 102.7 C 8.1 95.2 10.4 92.8 10.4 89.8 C 10.4 87.7 8.9 86.5 7.2 86.5 C 5.3 86.5 3.9 87.4 2.9 89 C 2.9 89 1.4 87.6 1.4 87.6 C 2.7 85.6 4.7 84.4 7.2 84.4 C 10.3 84.4 12.8 86.4 12.8 89.8 C 12.8 93.2 10.3 96.2 5 102.6 C 4.98 102.57 12.9 102.6 12.9 102.6 L 12.9 104.7 L 1.6 104.7 Z M 23.5 101.8 C 23.52 101.79 23.5 92.1 23.5 92.1 L 21.6 92.1 L 21.6 90.2 L 23.5 90.2 L 23.5 86.2 L 25.7 86.2 L 25.7 90.2 L 28.1 90.2 L 28.1 92.1 L 25.7 92.1 C 25.7 92.1 25.68 101.4 25.7 101.4 C 25.7 102.5 26 103.1 26.8 103.1 C 27.4 103.1 27.8 102.9 28.1 102.6 C 28.1 102.6 28.8 104.2 28.8 104.2 C 28.3 104.7 27.5 105.1 26.4 105.1 C 24.4 105.1 23.5 103.9 23.5 101.8 Z M 36.4 103.1 C 38.8 103.1 39.9 100.6 39.9 97.5 C 39.9 94.3 38.8 91.8 36.4 91.8 C 35 91.8 33.7 92.9 33.1 94.2 C 33.1 94.2 33.1 100.8 33.1 100.8 C 33.7 102.1 35 103.1 36.4 103.1 Z M 31 104.7 L 31 84.7 L 33.1 84.7 C 33.1 84.7 33.12 92.31 33.1 92.3 C 34 90.7 35.5 89.8 36.9 89.8 C 40.2 89.8 42.1 93 42.1 97.5 C 42.1 102 40.2 105.1 36.9 105.1 C 35.4 105.1 34 104.1 33.1 102.6 C 33.12 102.63 33.1 104.7 33.1 104.7 L 31 104.7 Z M 44.2 103 C 44.2 103 45.3 101.5 45.3 101.5 C 46.1 102.5 47.5 103.3 49.1 103.3 C 50.8 103.3 51.9 102.4 51.9 101 C 51.9 97.6 44.6 98.8 44.6 93.7 C 44.6 91.6 46.4 89.8 49.3 89.8 C 51.2 89.8 52.6 90.6 53.7 91.7 C 53.7 91.7 52.6 93.2 52.6 93.2 C 51.9 92.2 50.7 91.6 49.3 91.6 C 47.7 91.6 46.7 92.5 46.7 93.7 C 46.7 96.8 53.9 95.7 53.9 100.9 C 53.9 103.3 52.1 105.1 49.1 105.1 C 47.1 105.1 45.4 104.4 44.2 103 Z M 59.1 102.6 C 59.13 102.6 59.1 110.2 59.1 110.2 L 57 110.2 L 57 90.2 L 59.1 90.2 C 59.1 90.2 59.13 92.28 59.1 92.3 C 60 90.8 61.4 89.8 62.9 89.8 C 66.2 89.8 68.1 92.9 68.1 97.4 C 68.1 102 66.2 105.1 62.9 105.1 C 61.5 105.1 60 104.2 59.1 102.6 Z M 65.9 97.4 C 65.9 94.3 64.8 91.8 62.4 91.8 C 61 91.8 59.7 92.8 59.1 94.1 C 59.1 94.1 59.1 100.7 59.1 100.7 C 59.7 102 61 103.1 62.4 103.1 C 64.8 103.1 65.9 100.6 65.9 97.4 Z M 71 103.4 C 71 102.5 71.7 101.8 72.6 101.8 C 73.4 101.8 74.2 102.5 74.2 103.4 C 74.2 104.3 73.4 105 72.6 105 C 71.7 105 71 104.3 71 103.4 Z " stroke="none" fill="#d0d1d4"/>  </g>  <g id="Polygon152630">    <path d="M 1.6 68.7 C 1.6 68.7 1.59 66.75 1.6 66.7 C 8.1 59.2 10.4 56.8 10.4 53.8 C 10.4 51.7 8.9 50.5 7.2 50.5 C 5.3 50.5 3.9 51.4 2.9 53 C 2.9 53 1.4 51.6 1.4 51.6 C 2.7 49.6 4.7 48.4 7.2 48.4 C 10.3 48.4 12.8 50.4 12.8 53.8 C 12.8 57.2 10.3 60.2 5 66.6 C 4.98 66.57 12.9 66.6 12.9 66.6 L 12.9 68.7 L 1.6 68.7 Z M 23.5 65.8 C 23.52 65.79 23.5 56.1 23.5 56.1 L 21.6 56.1 L 21.6 54.2 L 23.5 54.2 L 23.5 50.2 L 25.7 50.2 L 25.7 54.2 L 28.1 54.2 L 28.1 56.1 L 25.7 56.1 C 25.7 56.1 25.68 65.4 25.7 65.4 C 25.7 66.5 26 67.1 26.8 67.1 C 27.4 67.1 27.8 66.9 28.1 66.6 C 28.1 66.6 28.8 68.2 28.8 68.2 C 28.3 68.7 27.5 69.1 26.4 69.1 C 24.4 69.1 23.5 67.9 23.5 65.8 Z M 36.4 67.1 C 38.8 67.1 39.9 64.6 39.9 61.5 C 39.9 58.3 38.8 55.8 36.4 55.8 C 35 55.8 33.7 56.9 33.1 58.2 C 33.1 58.2 33.1 64.8 33.1 64.8 C 33.7 66.1 35 67.1 36.4 67.1 Z M 31 68.7 L 31 48.7 L 33.1 48.7 C 33.1 48.7 33.12 56.31 33.1 56.3 C 34 54.7 35.5 53.8 36.9 53.8 C 40.2 53.8 42.1 57 42.1 61.5 C 42.1 66 40.2 69.1 36.9 69.1 C 35.4 69.1 34 68.1 33.1 66.6 C 33.12 66.63 33.1 68.7 33.1 68.7 L 31 68.7 Z M 44.2 67 C 44.2 67 45.3 65.5 45.3 65.5 C 46.1 66.5 47.5 67.3 49.1 67.3 C 50.8 67.3 51.9 66.4 51.9 65 C 51.9 61.6 44.6 62.8 44.6 57.7 C 44.6 55.6 46.4 53.8 49.3 53.8 C 51.2 53.8 52.6 54.6 53.7 55.7 C 53.7 55.7 52.6 57.2 52.6 57.2 C 51.9 56.2 50.7 55.6 49.3 55.6 C 47.7 55.6 46.7 56.5 46.7 57.7 C 46.7 60.8 53.9 59.7 53.9 64.9 C 53.9 67.3 52.1 69.1 49.1 69.1 C 47.1 69.1 45.4 68.4 44.2 67 Z M 59.1 66.6 C 59.13 66.6 59.1 74.2 59.1 74.2 L 57 74.2 L 57 54.2 L 59.1 54.2 C 59.1 54.2 59.13 56.28 59.1 56.3 C 60 54.8 61.4 53.8 62.9 53.8 C 66.2 53.8 68.1 56.9 68.1 61.4 C 68.1 66 66.2 69.1 62.9 69.1 C 61.5 69.1 60 68.2 59.1 66.6 Z M 65.9 61.4 C 65.9 58.3 64.8 55.8 62.4 55.8 C 61 55.8 59.7 56.8 59.1 58.1 C 59.1 58.1 59.1 64.7 59.1 64.7 C 59.7 66 61 67.1 62.4 67.1 C 64.8 67.1 65.9 64.6 65.9 61.4 Z M 71 67.4 C 71 66.5 71.7 65.8 72.6 65.8 C 73.4 65.8 74.2 66.5 74.2 67.4 C 74.2 68.3 73.4 69 72.6 69 C 71.7 69 71 68.3 71 67.4 Z " stroke="none" fill="#d0d1d4"/>  </g>  <g id="Polygon152629">    <path d="M 1.6 32.7 C 1.6 32.7 1.59 30.75 1.6 30.7 C 8.1 23.2 10.4 20.8 10.4 17.8 C 10.4 15.7 8.9 14.5 7.2 14.5 C 5.3 14.5 3.9 15.4 2.9 17 C 2.9 17 1.4 15.6 1.4 15.6 C 2.7 13.6 4.7 12.4 7.2 12.4 C 10.3 12.4 12.8 14.4 12.8 17.8 C 12.8 21.2 10.3 24.2 5 30.6 C 4.98 30.57 12.9 30.6 12.9 30.6 L 12.9 32.7 L 1.6 32.7 Z M 17.6 32.7 L 23.9 14.8 L 15.4 14.8 L 15.4 12.7 L 26.6 12.7 L 26.6 14.3 L 20.2 32.7 L 17.6 32.7 Z M 28.7 22.7 C 28.7 17.9 30.3 12.4 35 12.4 C 39.7 12.4 41.3 17.9 41.3 22.7 C 41.3 27.5 39.7 33.1 35 33.1 C 30.3 33.1 28.7 27.5 28.7 22.7 Z M 38.8 22.7 C 38.8 18.7 38.1 14.5 35 14.5 C 31.9 14.5 31.2 18.7 31.2 22.7 C 31.2 26.6 31.9 30.9 35 30.9 C 38.1 30.9 38.8 26.6 38.8 22.7 Z M 65.8 32.7 C 65.8 32.7 65.76 22.2 65.8 22.2 C 65.8 20.6 65.1 19.8 63.7 19.8 C 62.5 19.8 61.2 20.9 60.6 22.1 C 60.6 22.08 60.6 32.7 60.6 32.7 L 58.4 32.7 C 58.4 32.7 58.44 22.2 58.4 22.2 C 58.4 20.6 57.8 19.8 56.4 19.8 C 55.1 19.8 53.9 20.9 53.2 22.1 C 53.25 22.08 53.2 32.7 53.2 32.7 L 51.1 32.7 L 51.1 18.2 L 53.2 18.2 C 53.2 18.2 53.25 20.28 53.2 20.3 C 53.8 19.2 55.5 17.8 57.2 17.8 C 59.1 17.8 60.2 18.9 60.5 20.4 C 61.2 19.1 62.8 17.8 64.6 17.8 C 66.7 17.8 67.9 19 67.9 21.6 C 67.92 21.63 67.9 32.7 67.9 32.7 L 65.8 32.7 Z M 71.9 32.7 L 71.9 12.7 L 74 12.7 L 74 32.7 L 71.9 32.7 Z " stroke="none" fill="#d0d1d4"/>  </g></svg>