<?xml version="1.0" standalone="no"?><!DOCTYPE svg PUBLIC "-//W3C//DTD SVG 1.1//EN" "http://www.w3.org/Graphics/SVG/1.1/DTD/svg11.dtd"><svg xmlns="http://www.w3.org/2000/svg" version="1.1" width="274px" height="407px" viewBox="0 0 274 407">  <desc>Foam fruit netting White talcum powder White glue Hair wax Tissue paper Toothbrush handle Petroleum jelly Artificial</desc>  <defs/>  <g id="Polygon153942">    <path d="M 4.3 389.4 C 2.9 389.4 1.8 388.3 1.8 386.9 C 1.8 385.5 2.9 384.3 4.3 384.3 C 5.7 384.3 6.9 385.5 6.9 386.9 C 6.9 388.3 5.7 389.4 4.3 389.4 Z M 15 392.7 L 15 376.7 C 15 376.7 20.26 376.69 20.3 376.7 C 22.8 376.7 24.2 378.3 24.2 380.8 C 24.2 382.8 23.2 384.1 21.8 384.4 C 23.3 384.7 24.5 386.5 24.5 388.4 C 24.5 391 23.1 392.7 20.4 392.7 C 20.4 392.7 15 392.7 15 392.7 Z M 22.2 381 C 22.2 379.5 21.5 378.4 19.9 378.4 C 19.9 378.37 16.9 378.4 16.9 378.4 L 16.9 383.7 C 16.9 383.7 19.9 383.68 19.9 383.7 C 21.5 383.7 22.2 382.5 22.2 381 Z M 22.5 388.2 C 22.5 386.7 21.7 385.4 20 385.4 C 20.02 385.36 16.9 385.4 16.9 385.4 L 16.9 391 C 16.9 391 20.02 391 20 391 C 21.7 391 22.5 389.9 22.5 388.2 Z M 27 392.7 L 27 376.7 L 28.7 376.7 L 28.7 392.7 L 27 392.7 Z M 37.9 392.7 C 37.9 392.7 37.9 391.09 37.9 391.1 C 37.2 392.1 36 393 34.5 393 C 32.6 393 31.6 392 31.6 389.9 C 31.63 389.89 31.6 381.1 31.6 381.1 L 33.3 381.1 C 33.3 381.1 33.34 389.39 33.3 389.4 C 33.3 390.9 34.1 391.5 35.2 391.5 C 36.3 391.5 37.4 390.6 37.9 389.7 C 37.9 389.65 37.9 381.1 37.9 381.1 L 39.6 381.1 L 39.6 392.7 L 37.9 392.7 Z M 42 386.9 C 42 383.5 43.8 380.8 46.7 380.8 C 49.7 380.8 51.3 383.6 51.3 386.9 C 51.26 386.94 51.3 387.5 51.3 387.5 C 51.3 387.5 43.75 387.47 43.8 387.5 C 43.8 389.8 45 391.5 47.1 391.5 C 48.1 391.5 49.1 391 49.8 390.1 C 49.8 390.1 50.8 391.1 50.8 391.1 C 49.8 392.3 48.5 393 46.9 393 C 43.8 393 42 390.4 42 386.9 Z M 46.7 382.3 C 44.6 382.3 43.8 384.5 43.8 386.2 C 43.8 386.2 49.6 386.2 49.6 386.2 C 49.5 384.4 48.8 382.3 46.7 382.3 Z M 60.9 392.7 L 60.9 379.2 L 58.4 381.9 L 57.2 380.7 L 61.1 376.7 L 62.8 376.7 L 62.8 392.7 L 60.9 392.7 Z M 79 392.7 C 78.6 392.2 78.2 391.7 77.8 391.1 C 76.8 392.2 75.6 393 74 393 C 71.8 393 70 391.5 70 388.7 C 70 386.2 71.4 384.9 72.9 383.8 C 72.3 382.6 71.8 381.3 71.8 380.3 C 71.8 378 73.2 376.5 75.1 376.5 C 76.8 376.5 78.1 377.7 78.1 379.6 C 78.1 381.9 76.5 383 74.9 384.2 C 75.4 385 75.9 385.8 76.3 386.4 C 76.8 387.2 77.3 387.8 77.7 388.4 C 78.4 387.2 78.8 385.8 79 384.9 C 79 384.9 80.5 385.5 80.5 385.5 C 80 386.9 79.5 388.4 78.7 389.7 C 79.4 390.6 80.2 391.5 81.2 392.7 C 81.2 392.7 79 392.7 79 392.7 Z M 76.8 389.9 C 76.1 389 75.5 388.1 75.1 387.5 C 74.6 386.7 74 386 73.6 385.1 C 72.6 386 71.8 387 71.8 388.6 C 71.8 390.5 73 391.5 74.2 391.5 C 75.3 391.5 76.1 390.9 76.8 389.9 Z M 74.3 382.9 C 75.5 382 76.6 381.2 76.6 379.6 C 76.6 378.4 75.9 377.8 75.2 377.8 C 74.2 377.8 73.5 378.7 73.5 380.3 C 73.5 381.1 73.8 382 74.3 382.9 Z M 88 392.7 L 88 376.7 C 88 376.7 93.26 376.69 93.3 376.7 C 95.8 376.7 97.2 378.3 97.2 380.8 C 97.2 382.8 96.2 384.1 94.8 384.4 C 96.3 384.7 97.5 386.5 97.5 388.4 C 97.5 391 96.1 392.7 93.4 392.7 C 93.41 392.7 88 392.7 88 392.7 Z M 95.3 381 C 95.3 379.5 94.5 378.4 92.9 378.4 C 92.9 378.37 89.9 378.4 89.9 378.4 L 89.9 383.7 C 89.9 383.7 92.9 383.68 92.9 383.7 C 94.5 383.7 95.3 382.5 95.3 381 Z M 95.5 388.2 C 95.5 386.7 94.7 385.4 93 385.4 C 93.02 385.36 89.9 385.4 89.9 385.4 L 89.9 391 C 89.9 391 93.02 391 93 391 C 94.7 391 95.5 389.9 95.5 388.2 Z M 100 392.7 L 100 376.7 L 101.7 376.7 L 101.7 392.7 L 100 392.7 Z M 110.9 392.7 C 110.9 392.7 110.9 391.09 110.9 391.1 C 110.2 392.1 109 393 107.5 393 C 105.6 393 104.6 392 104.6 389.9 C 104.64 389.89 104.6 381.1 104.6 381.1 L 106.3 381.1 C 106.3 381.1 106.34 389.39 106.3 389.4 C 106.3 390.9 107.1 391.5 108.2 391.5 C 109.3 391.5 110.4 390.6 110.9 389.7 C 110.9 389.65 110.9 381.1 110.9 381.1 L 112.6 381.1 L 112.6 392.7 L 110.9 392.7 Z M 115 386.9 C 115 383.5 116.8 380.8 119.7 380.8 C 122.7 380.8 124.3 383.6 124.3 386.9 C 124.27 386.94 124.3 387.5 124.3 387.5 C 124.3 387.5 116.76 387.47 116.8 387.5 C 116.8 389.8 118 391.5 120.1 391.5 C 121.1 391.5 122.1 391 122.9 390.1 C 122.9 390.1 123.8 391.1 123.8 391.1 C 122.8 392.3 121.5 393 119.9 393 C 116.9 393 115 390.4 115 386.9 Z M 119.7 382.3 C 117.6 382.3 116.8 384.5 116.8 386.2 C 116.8 386.2 122.6 386.2 122.6 386.2 C 122.5 384.4 121.8 382.3 119.7 382.3 Z M 131.2 392.7 C 131.2 392.7 131.16 391.14 131.2 391.1 C 136.4 385.1 138.2 383.2 138.2 380.8 C 138.2 379.1 137 378.2 135.6 378.2 C 134.1 378.2 133 378.9 132.2 380.2 C 132.2 380.2 131 379 131 379 C 132 377.4 133.6 376.5 135.6 376.5 C 138.1 376.5 140.1 378 140.1 380.8 C 140.1 383.5 138.1 385.9 133.9 391 C 133.87 391 140.2 391 140.2 391 L 140.2 392.7 L 131.2 392.7 Z " stroke="none" fill="#7c7979"/>  </g>  <g id="Polygon153941">    <path d="M 4.3 353.4 C 2.9 353.4 1.8 352.3 1.8 350.9 C 1.8 349.5 2.9 348.3 4.3 348.3 C 5.7 348.3 6.9 349.5 6.9 350.9 C 6.9 352.3 5.7 353.4 4.3 353.4 Z M 22.2 356.7 L 19.2 350.3 L 16.9 350.3 L 16.9 356.7 L 15 356.7 L 15 340.7 C 15 340.7 19.85 340.69 19.8 340.7 C 22.4 340.7 24.2 342.5 24.2 345.5 C 24.2 348.3 22.6 349.7 21 350 C 21.05 350 24.4 356.7 24.4 356.7 L 22.2 356.7 Z M 22.3 345.5 C 22.3 343.7 21.3 342.4 19.6 342.4 C 19.63 342.37 16.9 342.4 16.9 342.4 L 16.9 348.6 C 16.9 348.6 19.63 348.61 19.6 348.6 C 21.3 348.6 22.3 347.3 22.3 345.5 Z M 25.7 350.9 C 25.7 347.5 27.4 344.8 30.4 344.8 C 33.4 344.8 34.9 347.6 34.9 350.9 C 34.94 350.94 34.9 351.5 34.9 351.5 C 34.9 351.5 27.43 351.47 27.4 351.5 C 27.5 353.8 28.7 355.5 30.8 355.5 C 31.8 355.5 32.8 355 33.5 354.1 C 33.5 354.1 34.4 355.1 34.4 355.1 C 33.5 356.3 32.2 357 30.6 357 C 27.5 357 25.7 354.4 25.7 350.9 Z M 30.3 346.3 C 28.3 346.3 27.5 348.5 27.4 350.2 C 27.4 350.2 33.2 350.2 33.2 350.2 C 33.2 348.4 32.4 346.3 30.3 346.3 Z M 43.8 356.7 C 43.8 356.7 43.85 355.04 43.8 355 C 43.2 356.2 42 357 40.8 357 C 38.2 357 36.6 354.6 36.6 350.9 C 36.6 347.3 38.2 344.8 40.8 344.8 C 42 344.8 43.2 345.5 43.8 346.8 C 43.85 346.79 43.8 340.7 43.8 340.7 L 45.6 340.7 L 45.6 356.7 L 43.8 356.7 Z M 43.8 353.6 C 43.8 353.6 43.8 348.3 43.8 348.3 C 43.4 347.2 42.3 346.4 41.2 346.4 C 39.3 346.4 38.4 348.4 38.4 350.9 C 38.4 353.4 39.3 355.5 41.2 355.5 C 42.3 355.5 43.4 354.6 43.8 353.6 Z M 58.7 356.7 L 58.7 352.6 L 52.4 352.6 L 52.4 350.9 L 58.2 340.7 L 60.6 340.7 L 60.6 350.9 L 62.4 350.9 L 62.4 352.6 L 60.6 352.6 L 60.6 356.7 L 58.7 356.7 Z M 58.7 342.8 L 54.1 350.9 L 58.7 350.9 L 58.7 342.8 Z M 63.8 348.7 C 63.8 344.8 65.1 340.5 68.8 340.5 C 72.6 340.5 73.8 344.8 73.8 348.7 C 73.8 352.5 72.6 357 68.8 357 C 65.1 357 63.8 352.5 63.8 348.7 Z M 71.9 348.7 C 71.9 345.5 71.3 342.2 68.8 342.2 C 66.4 342.2 65.8 345.5 65.8 348.7 C 65.8 351.9 66.4 355.3 68.8 355.3 C 71.3 355.3 71.9 351.9 71.9 348.7 Z M 89.6 356.7 C 89.2 356.2 88.8 355.7 88.3 355.1 C 87.3 356.2 86.1 357 84.6 357 C 82.3 357 80.5 355.5 80.5 352.7 C 80.5 350.2 81.9 348.9 83.4 347.8 C 82.8 346.6 82.4 345.3 82.4 344.3 C 82.4 342 83.8 340.5 85.7 340.5 C 87.4 340.5 88.7 341.7 88.7 343.6 C 88.7 345.9 87 347 85.4 348.2 C 85.9 349 86.4 349.8 86.9 350.4 C 87.4 351.2 87.8 351.8 88.3 352.4 C 88.9 351.2 89.3 349.8 89.5 348.9 C 89.5 348.9 91 349.5 91 349.5 C 90.6 350.9 90 352.4 89.3 353.7 C 90 354.6 90.8 355.5 91.7 356.7 C 91.7 356.7 89.6 356.7 89.6 356.7 Z M 87.4 353.9 C 86.7 353 86 352.1 85.6 351.5 C 85.1 350.7 84.6 350 84.1 349.1 C 83.1 350 82.4 351 82.4 352.6 C 82.4 354.5 83.5 355.5 84.8 355.5 C 85.8 355.5 86.7 354.9 87.4 353.9 Z M 84.8 346.9 C 86.1 346 87.1 345.2 87.1 343.6 C 87.1 342.4 86.5 341.8 85.7 341.8 C 84.7 341.8 84.1 342.7 84.1 344.3 C 84.1 345.1 84.4 346 84.8 346.9 Z M 105.8 356.7 L 102.7 350.3 L 100.4 350.3 L 100.4 356.7 L 98.5 356.7 L 98.5 340.7 C 98.5 340.7 103.39 340.69 103.4 340.7 C 106 340.7 107.8 342.5 107.8 345.5 C 107.8 348.3 106.2 349.7 104.6 350 C 104.59 350 108 356.7 108 356.7 L 105.8 356.7 Z M 105.8 345.5 C 105.8 343.7 104.8 342.4 103.2 342.4 C 103.17 342.37 100.4 342.4 100.4 342.4 L 100.4 348.6 C 100.4 348.6 103.17 348.61 103.2 348.6 C 104.8 348.6 105.8 347.3 105.8 345.5 Z M 109.2 350.9 C 109.2 347.5 111 344.8 113.9 344.8 C 116.9 344.8 118.5 347.6 118.5 350.9 C 118.49 350.94 118.5 351.5 118.5 351.5 C 118.5 351.5 110.97 351.47 111 351.5 C 111 353.8 112.2 355.5 114.3 355.5 C 115.3 355.5 116.3 355 117.1 354.1 C 117.1 354.1 118 355.1 118 355.1 C 117 356.3 115.7 357 114.2 357 C 111.1 357 109.2 354.4 109.2 350.9 Z M 113.9 346.3 C 111.8 346.3 111 348.5 111 350.2 C 111 350.2 116.8 350.2 116.8 350.2 C 116.8 348.4 116 346.3 113.9 346.3 Z M 127.4 356.7 C 127.4 356.7 127.39 355.04 127.4 355 C 126.7 356.2 125.6 357 124.3 357 C 121.7 357 120.2 354.6 120.2 350.9 C 120.2 347.3 121.7 344.8 124.3 344.8 C 125.5 344.8 126.7 345.5 127.4 346.8 C 127.39 346.79 127.4 340.7 127.4 340.7 L 129.1 340.7 L 129.1 356.7 L 127.4 356.7 Z M 127.4 353.6 C 127.4 353.6 127.4 348.3 127.4 348.3 C 127 347.2 125.9 346.4 124.8 346.4 C 122.9 346.4 122 348.4 122 350.9 C 122 353.4 122.9 355.5 124.8 355.5 C 125.9 355.5 127 354.6 127.4 353.6 Z M 136.1 354.3 C 136.1 354.3 137.3 353.2 137.3 353.2 C 138.1 354.4 139.2 355.3 140.8 355.3 C 142.7 355.3 143.7 354.1 143.7 352.2 C 143.7 350.1 142.2 349.3 140.6 349.3 C 140.1 349.3 139.6 349.3 139.3 349.4 C 139.3 349.4 139.3 347.6 139.3 347.6 C 139.6 347.7 140.2 347.7 140.6 347.7 C 142.2 347.7 143.5 346.8 143.5 345 C 143.5 343.1 142.3 342.2 140.7 342.2 C 139.3 342.2 138.3 342.9 137.5 344.1 C 137.5 344.1 136.3 343 136.3 343 C 137.2 341.4 138.8 340.5 140.8 340.5 C 143.4 340.5 145.4 341.9 145.4 344.7 C 145.4 346.7 144 348.1 142.5 348.4 C 143.9 348.6 145.6 350.1 145.6 352.4 C 145.6 355 143.9 357 140.8 357 C 138.5 357 136.9 355.8 136.1 354.3 Z " stroke="none" fill="#7c7979"/>  </g>  <g id="Polygon153940">    <path d="M 4.3 317.4 C 2.9 317.4 1.8 316.3 1.8 314.9 C 1.8 313.5 2.9 312.3 4.3 312.3 C 5.7 312.3 6.9 313.5 6.9 314.9 C 6.9 316.3 5.7 317.4 4.3 317.4 Z M 18.3 320.7 L 18.3 313.9 L 13.4 304.7 L 15.5 304.7 L 19.3 312.1 L 23 304.7 L 25.2 304.7 L 20.2 313.9 L 20.2 320.7 L 18.3 320.7 Z M 23.8 314.9 C 23.8 311.5 25.6 308.8 28.5 308.8 C 31.6 308.8 33.1 311.6 33.1 314.9 C 33.1 314.94 33.1 315.5 33.1 315.5 C 33.1 315.5 25.58 315.47 25.6 315.5 C 25.7 317.8 26.9 319.5 28.9 319.5 C 29.9 319.5 31 319 31.7 318.1 C 31.7 318.1 32.6 319.1 32.6 319.1 C 31.7 320.3 30.3 321 28.8 321 C 25.7 321 23.8 318.4 23.8 314.9 Z M 28.5 310.3 C 26.4 310.3 25.6 312.5 25.6 314.2 C 25.6 314.2 31.4 314.2 31.4 314.2 C 31.4 312.4 30.6 310.3 28.5 310.3 Z M 35.4 320.7 L 35.4 304.7 L 37.1 304.7 L 37.1 320.7 L 35.4 320.7 Z M 40 320.7 L 40 304.7 L 41.7 304.7 L 41.7 320.7 L 40 320.7 Z M 44.1 314.9 C 44.1 311.6 45.7 308.8 48.8 308.8 C 51.9 308.8 53.5 311.6 53.5 314.9 C 53.5 318.2 51.9 321 48.8 321 C 45.7 321 44.1 318.2 44.1 314.9 Z M 51.7 314.9 C 51.7 312.6 50.8 310.4 48.8 310.4 C 46.8 310.4 45.9 312.6 45.9 314.9 C 45.9 317.2 46.8 319.5 48.8 319.5 C 50.8 319.5 51.7 317.2 51.7 314.9 Z M 64.4 320.7 L 61.9 311.4 L 59.4 320.7 L 57.7 320.7 L 54.6 309.1 L 56.4 309.1 L 58.6 318.4 L 61.1 309.1 L 62.7 309.1 L 65.2 318.4 L 67.5 309.1 L 69.3 309.1 L 66.2 320.7 L 64.4 320.7 Z M 75.5 318.4 C 75.5 318.4 76.8 317.2 76.8 317.2 C 77.5 318.5 78.6 319.3 80.2 319.3 C 81.9 319.3 83 317.7 83 315.8 C 83 313.5 81.9 312.3 80.3 312.3 C 79.1 312.3 78.3 312.7 77.4 313.8 C 77.37 313.76 76 313.3 76 313.3 L 76 304.7 L 84.1 304.7 L 84.1 306.4 L 77.9 306.4 C 77.9 306.4 77.85 311.99 77.9 312 C 78.5 311.2 79.5 310.6 80.8 310.6 C 83.1 310.6 85 312.4 85 315.8 C 85 318.8 83 321 80.2 321 C 77.9 321 76.5 320 75.5 318.4 Z M 100.6 320.7 C 100.2 320.2 99.8 319.7 99.4 319.1 C 98.4 320.2 97.1 321 95.6 321 C 93.4 321 91.6 319.5 91.6 316.7 C 91.6 314.2 93 312.9 94.5 311.8 C 93.9 310.6 93.4 309.3 93.4 308.3 C 93.4 306 94.8 304.5 96.7 304.5 C 98.4 304.5 99.7 305.7 99.7 307.6 C 99.7 309.9 98.1 311 96.5 312.2 C 97 313 97.5 313.8 97.9 314.4 C 98.4 315.2 98.9 315.8 99.3 316.4 C 100 315.2 100.4 313.8 100.6 312.9 C 100.6 312.9 102.1 313.5 102.1 313.5 C 101.6 314.9 101.1 316.4 100.3 317.7 C 101 318.6 101.8 319.5 102.8 320.7 C 102.8 320.7 100.6 320.7 100.6 320.7 Z M 98.4 317.9 C 97.7 317 97.1 316.1 96.7 315.5 C 96.2 314.7 95.6 314 95.2 313.1 C 94.2 314 93.4 315 93.4 316.6 C 93.4 318.5 94.6 319.5 95.8 319.5 C 96.9 319.5 97.7 318.9 98.4 317.9 Z M 95.9 310.9 C 97.1 310 98.2 309.2 98.2 307.6 C 98.2 306.4 97.5 305.8 96.8 305.8 C 95.8 305.8 95.1 306.7 95.1 308.3 C 95.1 309.1 95.4 310 95.9 310.9 Z M 112.9 320.7 L 112.9 313.9 L 108 304.7 L 110.1 304.7 L 113.9 312.1 L 117.6 304.7 L 119.8 304.7 L 114.8 313.9 L 114.8 320.7 L 112.9 320.7 Z M 118.4 314.9 C 118.4 311.5 120.2 308.8 123.1 308.8 C 126.2 308.8 127.7 311.6 127.7 314.9 C 127.7 314.94 127.7 315.5 127.7 315.5 C 127.7 315.5 120.19 315.47 120.2 315.5 C 120.3 317.8 121.5 319.5 123.5 319.5 C 124.5 319.5 125.6 319 126.3 318.1 C 126.3 318.1 127.2 319.1 127.2 319.1 C 126.3 320.3 124.9 321 123.4 321 C 120.3 321 118.4 318.4 118.4 314.9 Z M 123.1 310.3 C 121.1 310.3 120.2 312.5 120.2 314.2 C 120.2 314.2 126 314.2 126 314.2 C 126 312.4 125.2 310.3 123.1 310.3 Z M 130 320.7 L 130 304.7 L 131.7 304.7 L 131.7 320.7 L 130 320.7 Z M 134.6 320.7 L 134.6 304.7 L 136.3 304.7 L 136.3 320.7 L 134.6 320.7 Z M 138.7 314.9 C 138.7 311.6 140.3 308.8 143.4 308.8 C 146.5 308.8 148.1 311.6 148.1 314.9 C 148.1 318.2 146.5 321 143.4 321 C 140.3 321 138.7 318.2 138.7 314.9 Z M 146.3 314.9 C 146.3 312.6 145.4 310.4 143.4 310.4 C 141.4 310.4 140.5 312.6 140.5 314.9 C 140.5 317.2 141.4 319.5 143.4 319.5 C 145.4 319.5 146.3 317.2 146.3 314.9 Z M 159 320.7 L 156.5 311.4 L 154 320.7 L 152.3 320.7 L 149.2 309.1 L 151 309.1 L 153.2 318.4 L 155.7 309.1 L 157.3 309.1 L 159.8 318.4 L 162.1 309.1 L 163.9 309.1 L 160.8 320.7 L 159 320.7 Z M 170 312.7 C 170 308.4 171.5 304.5 175.4 304.5 C 177.1 304.5 178.3 305.2 179.1 306.4 C 179.1 306.4 178.1 307.8 178.1 307.8 C 177.5 306.8 176.7 306.2 175.4 306.2 C 172.9 306.2 171.9 309.5 171.9 312.5 C 171.9 312.8 171.9 312.8 171.9 313 C 172.5 311.9 173.8 310.7 175.5 310.7 C 177.8 310.7 179.7 312.4 179.7 315.8 C 179.7 318.5 178 321 175.1 321 C 171.2 321 170 317 170 312.7 Z M 177.7 315.8 C 177.7 313.3 176.5 312.3 175 312.3 C 173.6 312.3 172.6 313.5 172 314.8 C 172.1 316.6 172.7 319.3 175 319.3 C 176.9 319.3 177.7 317.5 177.7 315.8 Z " stroke="none" fill="#7c7979"/>  </g>  <g id="Polygon153939">    <path d="M 12.5 284.7 L 11.2 280.2 L 4.1 280.2 L 2.8 284.7 L 0.2 284.7 L 6.2 264.7 L 9.1 264.7 L 15.1 284.7 L 12.5 284.7 Z M 7.6 267.3 L 4.6 278.1 L 10.7 278.1 L 7.6 267.3 Z M 17 284.7 L 17 270.2 L 19.1 270.2 C 19.1 270.2 19.14 272.52 19.1 272.5 C 20.1 271 21.5 269.9 23.2 269.9 C 23.2 269.9 23.2 272.1 23.2 272.1 C 23 272.1 22.8 272 22.5 272 C 21.2 272 19.7 273.2 19.1 274.4 C 19.14 274.41 19.1 284.7 19.1 284.7 L 17 284.7 Z M 25.9 281.8 C 25.86 281.79 25.9 272.1 25.9 272.1 L 23.9 272.1 L 23.9 270.2 L 25.9 270.2 L 25.9 266.3 L 28 266.3 L 28 270.2 L 30.5 270.2 L 30.5 272.1 L 28 272.1 C 28 272.1 28.02 281.4 28 281.4 C 28 282.5 28.3 283.1 29.2 283.1 C 29.7 283.1 30.2 282.9 30.4 282.6 C 30.4 282.6 31.1 284.2 31.1 284.2 C 30.6 284.7 29.9 285.1 28.8 285.1 C 26.8 285.1 25.9 284 25.9 281.8 Z M 32.6 266.6 C 32.6 265.8 33.3 265.2 34.1 265.2 C 34.9 265.2 35.5 265.8 35.5 266.6 C 35.5 267.5 34.9 268.1 34.1 268.1 C 33.3 268.1 32.6 267.5 32.6 266.6 Z M 33 284.7 L 33 270.2 L 35.2 270.2 L 35.2 284.7 L 33 284.7 Z M 39.3 284.7 L 39.3 272.1 L 37.4 272.1 L 37.4 270.2 L 39.3 270.2 C 39.3 270.2 39.33 268.44 39.3 268.4 C 39.3 265.9 40.8 264.4 42.9 264.4 C 43.6 264.4 44.2 264.5 44.7 264.8 C 44.7 264.8 44.2 266.5 44.2 266.5 C 43.9 266.3 43.6 266.2 43.2 266.2 C 42.1 266.2 41.5 267 41.5 268.4 C 41.49 268.44 41.5 270.2 41.5 270.2 L 43.9 270.2 L 43.9 272.1 L 41.5 272.1 L 41.5 284.7 L 39.3 284.7 Z M 46 266.6 C 46 265.8 46.7 265.2 47.5 265.2 C 48.3 265.2 49 265.8 49 266.6 C 49 267.5 48.3 268.1 47.5 268.1 C 46.7 268.1 46 267.5 46 266.6 Z M 46.4 284.7 L 46.4 270.2 L 48.6 270.2 L 48.6 284.7 L 46.4 284.7 Z M 51.5 277.4 C 51.5 273.2 53.8 269.9 57.5 269.9 C 59.5 269.9 60.7 270.7 61.6 271.8 C 61.6 271.8 60.5 273.2 60.5 273.2 C 59.7 272.2 58.8 271.8 57.7 271.8 C 55.1 271.8 53.8 274.4 53.8 277.4 C 53.8 280.5 55.1 283.1 57.7 283.1 C 58.8 283.1 59.7 282.7 60.5 281.7 C 60.5 281.7 61.6 283.1 61.6 283.1 C 60.7 284.3 59.5 285.1 57.5 285.1 C 53.8 285.1 51.5 281.7 51.5 277.4 Z M 63.7 266.6 C 63.7 265.8 64.4 265.2 65.2 265.2 C 66 265.2 66.6 265.8 66.6 266.6 C 66.6 267.5 66 268.1 65.2 268.1 C 64.4 268.1 63.7 267.5 63.7 266.6 Z M 64.1 284.7 L 64.1 270.2 L 66.2 270.2 L 66.2 284.7 L 64.1 284.7 Z M 77.3 284.7 C 77.3 284.7 77.34 283.14 77.3 283.1 C 76.4 284.5 75 285.1 73.5 285.1 C 71.2 285.1 69.1 283.3 69.1 280.2 C 69.1 277.2 71.2 275.5 73.5 275.5 C 75 275.5 76.4 276 77.3 277.3 C 77.3 277.3 77.3 274.8 77.3 274.8 C 77.3 272.8 76.3 271.7 74.4 271.7 C 73 271.7 71.8 272.2 70.7 273.5 C 70.7 273.5 69.8 272 69.8 272 C 71.2 270.5 72.9 269.9 74.7 269.9 C 77.6 269.9 79.5 271.3 79.5 274.6 C 79.5 274.56 79.5 284.7 79.5 284.7 L 77.3 284.7 Z M 77.3 281.7 C 77.3 281.7 77.3 278.9 77.3 278.9 C 76.7 277.7 75.5 277.1 74.2 277.1 C 72.4 277.1 71.3 278.5 71.3 280.3 C 71.3 282.1 72.4 283.5 74.2 283.5 C 75.5 283.5 76.7 282.9 77.3 281.7 Z M 83.1 284.7 L 83.1 264.7 L 85.3 264.7 L 85.3 284.7 L 83.1 284.7 Z M 95.6 284.7 L 95.6 272.1 L 93.7 272.1 L 93.7 270.2 L 95.6 270.2 C 95.6 270.2 95.58 268.44 95.6 268.4 C 95.6 265.9 97 264.4 99.2 264.4 C 100.2 264.4 101.1 264.7 101.8 265.4 C 101.8 265.4 100.9 266.9 100.9 266.9 C 100.6 266.5 100.1 266.2 99.5 266.2 C 98.3 266.2 97.7 267 97.7 268.4 C 97.74 268.44 97.7 270.2 97.7 270.2 L 100.2 270.2 L 100.2 272.1 L 97.7 272.1 L 97.7 284.7 L 95.6 284.7 Z M 101.7 277.4 C 101.7 273.4 103.7 269.9 107.5 269.9 C 111.4 269.9 113.5 273.4 113.5 277.4 C 113.5 281.5 111.4 285.1 107.5 285.1 C 103.7 285.1 101.7 281.5 101.7 277.4 Z M 111.2 277.4 C 111.2 274.5 110.1 271.8 107.5 271.8 C 105.1 271.8 103.9 274.5 103.9 277.4 C 103.9 280.4 105.1 283.1 107.5 283.1 C 110.1 283.1 111.2 280.4 111.2 277.4 Z M 115.7 277.4 C 115.7 273.4 117.7 269.9 121.6 269.9 C 125.5 269.9 127.5 273.4 127.5 277.4 C 127.5 281.5 125.5 285.1 121.6 285.1 C 117.7 285.1 115.7 281.5 115.7 277.4 Z M 125.2 277.4 C 125.2 274.5 124.1 271.8 121.6 271.8 C 119.1 271.8 117.9 274.5 117.9 277.4 C 117.9 280.4 119.1 283.1 121.6 283.1 C 124.1 283.1 125.2 280.4 125.2 277.4 Z M 138.7 284.7 C 138.7 284.7 138.69 282.63 138.7 282.6 C 137.8 284.1 136.4 285.1 134.9 285.1 C 131.6 285.1 129.7 282 129.7 277.5 C 129.7 273 131.6 269.9 134.9 269.9 C 136.3 269.9 137.8 270.7 138.7 272.3 C 138.69 272.31 138.7 264.7 138.7 264.7 L 140.8 264.7 L 140.8 284.7 L 138.7 284.7 Z M 138.7 280.8 C 138.7 280.8 138.7 274.1 138.7 274.1 C 138.1 272.9 136.8 271.8 135.4 271.8 C 133 271.8 131.9 274.3 131.9 277.5 C 131.9 280.6 133 283.1 135.4 283.1 C 136.8 283.1 138.1 282.1 138.7 280.8 Z M 158.9 284.7 C 158.9 284.7 158.94 282.63 158.9 282.6 C 158.1 284.1 156.7 285.1 155.1 285.1 C 151.9 285.1 149.9 282 149.9 277.5 C 149.9 273 151.9 269.9 155.1 269.9 C 156.6 269.9 158.1 270.7 158.9 272.3 C 158.94 272.31 158.9 264.7 158.9 264.7 L 161.1 264.7 L 161.1 284.7 L 158.9 284.7 Z M 158.9 280.8 C 158.9 280.8 158.9 274.1 158.9 274.1 C 158.4 272.9 157 271.8 155.7 271.8 C 153.3 271.8 152.2 274.3 152.2 277.5 C 152.2 280.6 153.3 283.1 155.7 283.1 C 157 283.1 158.4 282.1 158.9 280.8 Z M 164.3 288.5 C 164.6 288.6 165.1 288.7 165.3 288.7 C 166.1 288.7 166.6 288.3 167 287.2 C 167.01 287.22 167.8 285 167.8 285 L 163 270.2 L 165.3 270.2 L 168.9 282.1 L 172.5 270.2 L 174.8 270.2 C 174.8 270.2 169.05 287.76 169 287.8 C 168.3 289.9 167.2 290.6 165.4 290.6 C 165 290.6 164.3 290.5 164 290.4 C 164 290.4 164.3 288.5 164.3 288.5 Z M 176 277.4 C 176 273.2 178.2 269.9 181.9 269.9 C 185.7 269.9 187.6 273.3 187.6 277.5 C 187.59 277.5 187.6 278.2 187.6 278.2 C 187.6 278.2 178.2 278.16 178.2 278.2 C 178.3 281.1 179.8 283.3 182.4 283.3 C 183.6 283.3 184.9 282.6 185.8 281.5 C 185.8 281.5 187 282.8 187 282.8 C 185.8 284.2 184.1 285.1 182.2 285.1 C 178.3 285.1 176 281.9 176 277.4 Z M 181.8 271.7 C 179.3 271.7 178.3 274.4 178.2 276.6 C 178.2 276.6 185.5 276.6 185.5 276.6 C 185.4 274.4 184.5 271.7 181.8 271.7 Z " stroke="none" fill="#d3d2d2"/>  </g>  <g id="Polygon153938">    <path d="M 2.1 248.7 L 2.1 228.7 C 2.1 228.7 8.19 228.69 8.2 228.7 C 11.8 228.7 13.7 231.5 13.7 234.7 C 13.7 237.9 11.8 240.7 8.2 240.7 C 8.19 240.69 4.5 240.7 4.5 240.7 L 4.5 248.7 L 2.1 248.7 Z M 11.3 234.7 C 11.3 232.4 10 230.8 7.9 230.8 C 7.95 230.79 4.5 230.8 4.5 230.8 L 4.5 238.6 C 4.5 238.6 7.95 238.59 7.9 238.6 C 10 238.6 11.3 237 11.3 234.7 Z M 15.1 241.4 C 15.1 237.2 17.3 233.9 20.9 233.9 C 24.8 233.9 26.7 237.3 26.7 241.5 C 26.67 241.5 26.7 242.2 26.7 242.2 C 26.7 242.2 17.28 242.16 17.3 242.2 C 17.4 245.1 18.9 247.3 21.5 247.3 C 22.7 247.3 24 246.6 24.9 245.5 C 24.9 245.5 26 246.8 26 246.8 C 24.9 248.2 23.2 249.1 21.3 249.1 C 17.4 249.1 15.1 245.9 15.1 241.4 Z M 20.9 235.7 C 18.4 235.7 17.3 238.4 17.3 240.6 C 17.3 240.6 24.5 240.6 24.5 240.6 C 24.5 238.4 23.6 235.7 20.9 235.7 Z M 29.9 245.8 C 29.94 245.79 29.9 236.1 29.9 236.1 L 28 236.1 L 28 234.2 L 29.9 234.2 L 29.9 230.3 L 32.1 230.3 L 32.1 234.2 L 34.6 234.2 L 34.6 236.1 L 32.1 236.1 C 32.1 236.1 32.1 245.4 32.1 245.4 C 32.1 246.5 32.4 247.1 33.3 247.1 C 33.8 247.1 34.3 246.9 34.5 246.6 C 34.5 246.6 35.2 248.2 35.2 248.2 C 34.7 248.7 34 249.1 32.8 249.1 C 30.9 249.1 29.9 248 29.9 245.8 Z M 37.1 248.7 L 37.1 234.2 L 39.2 234.2 C 39.2 234.2 39.24 236.52 39.2 236.5 C 40.2 235 41.6 233.9 43.3 233.9 C 43.3 233.9 43.3 236.1 43.3 236.1 C 43.1 236.1 42.9 236 42.6 236 C 41.3 236 39.8 237.2 39.2 238.4 C 39.24 238.41 39.2 248.7 39.2 248.7 L 37.1 248.7 Z M 44.8 241.4 C 44.8 237.4 46.9 233.9 50.7 233.9 C 54.6 233.9 56.6 237.4 56.6 241.4 C 56.6 245.5 54.6 249.1 50.7 249.1 C 46.9 249.1 44.8 245.5 44.8 241.4 Z M 54.4 241.4 C 54.4 238.5 53.2 235.8 50.7 235.8 C 48.2 235.8 47.1 238.5 47.1 241.4 C 47.1 244.4 48.2 247.1 50.7 247.1 C 53.2 247.1 54.4 244.4 54.4 241.4 Z M 59.5 248.7 L 59.5 228.7 L 61.7 228.7 L 61.7 248.7 L 59.5 248.7 Z M 64.6 241.4 C 64.6 237.2 66.8 233.9 70.5 233.9 C 74.3 233.9 76.2 237.3 76.2 241.5 C 76.23 241.5 76.2 242.2 76.2 242.2 C 76.2 242.2 66.84 242.16 66.8 242.2 C 66.9 245.1 68.4 247.3 71 247.3 C 72.3 247.3 73.6 246.6 74.5 245.5 C 74.5 245.5 75.6 246.8 75.6 246.8 C 74.4 248.2 72.8 249.1 70.8 249.1 C 67 249.1 64.6 245.9 64.6 241.4 Z M 70.5 235.7 C 67.9 235.7 66.9 238.4 66.8 240.6 C 66.8 240.6 74.1 240.6 74.1 240.6 C 74.1 238.4 73.1 235.7 70.5 235.7 Z M 86.9 248.7 C 86.9 248.7 86.91 246.69 86.9 246.7 C 86 248 84.5 249.1 82.7 249.1 C 80.2 249.1 79.1 247.8 79.1 245.2 C 79.08 245.19 79.1 234.2 79.1 234.2 L 81.2 234.2 C 81.2 234.2 81.21 244.56 81.2 244.6 C 81.2 246.5 82.1 247.1 83.5 247.1 C 85 247.1 86.3 246.1 86.9 244.9 C 86.91 244.89 86.9 234.2 86.9 234.2 L 89.1 234.2 L 89.1 248.7 L 86.9 248.7 Z M 107.4 248.7 C 107.4 248.7 107.37 238.2 107.4 238.2 C 107.4 236.6 106.7 235.8 105.4 235.8 C 104.1 235.8 102.8 236.9 102.2 238.1 C 102.21 238.08 102.2 248.7 102.2 248.7 L 100 248.7 C 100 248.7 100.05 238.2 100 238.2 C 100 236.6 99.4 235.8 98 235.8 C 96.7 235.8 95.5 236.9 94.9 238.1 C 94.86 238.08 94.9 248.7 94.9 248.7 L 92.7 248.7 L 92.7 234.2 L 94.9 234.2 C 94.9 234.2 94.86 236.28 94.9 236.3 C 95.5 235.2 97.1 233.9 98.8 233.9 C 100.7 233.9 101.8 234.9 102.1 236.4 C 102.8 235.1 104.4 233.9 106.2 233.9 C 108.3 233.9 109.5 235 109.5 237.6 C 109.53 237.63 109.5 248.7 109.5 248.7 L 107.4 248.7 Z M 118.9 230.6 C 118.9 229.8 119.6 229.2 120.4 229.2 C 121.2 229.2 121.9 229.8 121.9 230.6 C 121.9 231.5 121.2 232.1 120.4 232.1 C 119.6 232.1 118.9 231.5 118.9 230.6 Z M 115.4 253.6 C 115.4 253.6 116.2 252 116.2 252 C 116.5 252.4 117 252.8 117.7 252.8 C 118.6 252.8 119.3 252.1 119.3 250.5 C 119.34 250.47 119.3 234.2 119.3 234.2 L 121.5 234.2 C 121.5 234.2 121.47 250.47 121.5 250.5 C 121.5 253.3 120.2 254.6 117.9 254.6 C 116.7 254.6 116 254.3 115.4 253.6 Z M 124.4 241.4 C 124.4 237.2 126.6 233.9 130.3 233.9 C 134.1 233.9 136 237.3 136 241.5 C 136.02 241.5 136 242.2 136 242.2 C 136 242.2 126.63 242.16 126.6 242.2 C 126.7 245.1 128.2 247.3 130.8 247.3 C 132.1 247.3 133.3 246.6 134.2 245.5 C 134.2 245.5 135.4 246.8 135.4 246.8 C 134.2 248.2 132.6 249.1 130.6 249.1 C 126.7 249.1 124.4 245.9 124.4 241.4 Z M 130.3 235.7 C 127.7 235.7 126.7 238.4 126.6 240.6 C 126.6 240.6 133.9 240.6 133.9 240.6 C 133.9 238.4 132.9 235.7 130.3 235.7 Z M 138.9 248.7 L 138.9 228.7 L 141 228.7 L 141 248.7 L 138.9 248.7 Z M 144.7 248.7 L 144.7 228.7 L 146.8 228.7 L 146.8 248.7 L 144.7 248.7 Z M 150 252.5 C 150.3 252.6 150.7 252.7 151 252.7 C 151.8 252.7 152.3 252.3 152.7 251.2 C 152.7 251.22 153.5 249 153.5 249 L 148.6 234.2 L 151 234.2 L 154.6 246.1 L 158.2 234.2 L 160.5 234.2 C 160.5 234.2 154.74 251.76 154.7 251.8 C 154 253.9 152.8 254.6 151.1 254.6 C 150.7 254.6 150 254.5 149.7 254.4 C 149.7 254.4 150 252.5 150 252.5 Z " stroke="none" fill="#d3d2d2"/>  </g>  <g id="Polygon153937">    <path d="M 5.5 212.7 L 5.5 194.8 L 0.8 194.8 L 0.8 192.7 L 12.6 192.7 L 12.6 194.8 L 7.9 194.8 L 7.9 212.7 L 5.5 212.7 Z M 11.9 205.4 C 11.9 201.4 13.9 197.9 17.7 197.9 C 21.6 197.9 23.6 201.4 23.6 205.4 C 23.6 209.5 21.6 213.1 17.7 213.1 C 13.9 213.1 11.9 209.5 11.9 205.4 Z M 21.4 205.4 C 21.4 202.5 20.3 199.8 17.7 199.8 C 15.2 199.8 14.1 202.5 14.1 205.4 C 14.1 208.4 15.2 211.1 17.7 211.1 C 20.3 211.1 21.4 208.4 21.4 205.4 Z M 25.9 205.4 C 25.9 201.4 27.9 197.9 31.7 197.9 C 35.6 197.9 37.6 201.4 37.6 205.4 C 37.6 209.5 35.6 213.1 31.7 213.1 C 27.9 213.1 25.9 209.5 25.9 205.4 Z M 35.4 205.4 C 35.4 202.5 34.3 199.8 31.7 199.8 C 29.2 199.8 28.1 202.5 28.1 205.4 C 28.1 208.4 29.2 211.1 31.7 211.1 C 34.3 211.1 35.4 208.4 35.4 205.4 Z M 41 209.8 C 41.01 209.79 41 200.1 41 200.1 L 39.1 200.1 L 39.1 198.2 L 41 198.2 L 41 194.3 L 43.2 194.3 L 43.2 198.2 L 45.6 198.2 L 45.6 200.1 L 43.2 200.1 C 43.2 200.1 43.17 209.4 43.2 209.4 C 43.2 210.5 43.5 211.1 44.3 211.1 C 44.9 211.1 45.3 210.9 45.6 210.6 C 45.6 210.6 46.3 212.2 46.3 212.2 C 45.7 212.7 45 213.1 43.9 213.1 C 41.9 213.1 41 212 41 209.8 Z M 56 212.7 C 56 212.7 56.04 202.35 56 202.4 C 56 200.4 55.1 199.8 53.7 199.8 C 52.3 199.8 51 200.9 50.3 202.1 C 50.31 202.08 50.3 212.7 50.3 212.7 L 48.2 212.7 L 48.2 192.7 L 50.3 192.7 C 50.3 192.7 50.31 200.28 50.3 200.3 C 51.1 199 52.8 197.9 54.5 197.9 C 57 197.9 58.2 199.1 58.2 201.7 C 58.17 201.72 58.2 212.7 58.2 212.7 L 56 212.7 Z M 67.2 211.1 C 69.6 211.1 70.7 208.6 70.7 205.5 C 70.7 202.3 69.6 199.8 67.2 199.8 C 65.9 199.8 64.5 200.9 64 202.2 C 64 202.2 64 208.8 64 208.8 C 64.5 210.1 65.9 211.1 67.2 211.1 Z M 61.8 212.7 L 61.8 192.7 L 64 192.7 C 64 192.7 63.96 200.31 64 200.3 C 64.9 198.7 66.3 197.9 67.8 197.9 C 71 197.9 73 201 73 205.5 C 73 210 71 213.1 67.8 213.1 C 66.2 213.1 64.8 212.1 64 210.6 C 63.96 210.63 64 212.7 64 212.7 L 61.8 212.7 Z M 75.9 212.7 L 75.9 198.2 L 78.1 198.2 C 78.1 198.2 78.06 200.52 78.1 200.5 C 79 199 80.4 197.9 82.2 197.9 C 82.2 197.9 82.2 200.1 82.2 200.1 C 81.9 200.1 81.7 200 81.4 200 C 80.1 200 78.7 201.2 78.1 202.4 C 78.06 202.41 78.1 212.7 78.1 212.7 L 75.9 212.7 Z M 92.2 212.7 C 92.2 212.7 92.19 210.69 92.2 210.7 C 91.3 212 89.8 213.1 88 213.1 C 85.5 213.1 84.4 211.8 84.4 209.2 C 84.36 209.19 84.4 198.2 84.4 198.2 L 86.5 198.2 C 86.5 198.2 86.49 208.56 86.5 208.6 C 86.5 210.5 87.4 211.1 88.8 211.1 C 90.2 211.1 91.6 210.1 92.2 208.9 C 92.19 208.89 92.2 198.2 92.2 198.2 L 94.3 198.2 L 94.3 212.7 L 92.2 212.7 Z M 96.8 211 C 96.8 211 97.9 209.5 97.9 209.5 C 98.8 210.5 100.1 211.3 101.7 211.3 C 103.4 211.3 104.5 210.4 104.5 209 C 104.5 205.6 97.3 206.8 97.3 201.8 C 97.3 199.6 99 197.9 101.9 197.9 C 103.8 197.9 105.3 198.6 106.3 199.7 C 106.3 199.7 105.3 201.2 105.3 201.2 C 104.5 200.2 103.3 199.6 101.9 199.6 C 100.3 199.6 99.3 200.5 99.3 201.7 C 99.3 204.8 106.6 203.7 106.6 208.9 C 106.6 211.3 104.7 213.1 101.7 213.1 C 99.7 213.1 98 212.4 96.8 211 Z M 117.2 212.7 C 117.2 212.7 117.18 202.35 117.2 202.4 C 117.2 200.4 116.3 199.8 114.8 199.8 C 113.4 199.8 112.1 200.9 111.4 202.1 C 111.45 202.08 111.4 212.7 111.4 212.7 L 109.3 212.7 L 109.3 192.7 L 111.4 192.7 C 111.4 192.7 111.45 200.28 111.4 200.3 C 112.3 199 113.9 197.9 115.7 197.9 C 118.1 197.9 119.3 199.1 119.3 201.7 C 119.31 201.72 119.3 212.7 119.3 212.7 L 117.2 212.7 Z M 137 212.7 C 137 212.7 136.98 202.35 137 202.4 C 137 200.4 136.1 199.8 134.6 199.8 C 133.2 199.8 131.9 200.9 131.2 202.1 C 131.25 202.08 131.2 212.7 131.2 212.7 L 129.1 212.7 L 129.1 192.7 L 131.2 192.7 C 131.2 192.7 131.25 200.28 131.2 200.3 C 132.1 199 133.7 197.9 135.5 197.9 C 137.9 197.9 139.1 199.1 139.1 201.7 C 139.11 201.72 139.1 212.7 139.1 212.7 L 137 212.7 Z M 150.2 212.7 C 150.2 212.7 150.21 211.14 150.2 211.1 C 149.3 212.5 147.9 213.1 146.4 213.1 C 144.1 213.1 142 211.3 142 208.2 C 142 205.2 144 203.5 146.4 203.5 C 147.9 203.5 149.3 204 150.2 205.3 C 150.2 205.3 150.2 202.8 150.2 202.8 C 150.2 200.8 149.1 199.7 147.2 199.7 C 145.9 199.7 144.7 200.2 143.6 201.5 C 143.6 201.5 142.6 200 142.6 200 C 144 198.5 145.7 197.9 147.6 197.9 C 150.4 197.9 152.4 199.3 152.4 202.6 C 152.37 202.56 152.4 212.7 152.4 212.7 L 150.2 212.7 Z M 150.2 209.7 C 150.2 209.7 150.2 206.9 150.2 206.9 C 149.5 205.7 148.3 205.1 147.1 205.1 C 145.3 205.1 144.2 206.5 144.2 208.3 C 144.2 210.1 145.3 211.5 147.1 211.5 C 148.3 211.5 149.5 210.9 150.2 209.7 Z M 163.8 212.7 C 163.8 212.7 163.83 202.38 163.8 202.4 C 163.8 200.5 163 199.8 161.5 199.8 C 160.1 199.8 158.8 200.9 158.1 202.1 C 158.13 202.08 158.1 212.7 158.1 212.7 L 156 212.7 L 156 198.2 L 158.1 198.2 C 158.1 198.2 158.13 200.28 158.1 200.3 C 159 199 160.6 197.9 162.3 197.9 C 164.8 197.9 166 199.2 166 201.8 C 165.99 201.78 166 212.7 166 212.7 L 163.8 212.7 Z M 177.9 212.7 C 177.9 212.7 177.93 210.63 177.9 210.6 C 177.1 212.1 175.6 213.1 174.1 213.1 C 170.9 213.1 168.9 210 168.9 205.5 C 168.9 201 170.8 197.9 174.1 197.9 C 175.6 197.9 177.1 198.7 177.9 200.3 C 177.93 200.31 177.9 192.7 177.9 192.7 L 180.1 192.7 L 180.1 212.7 L 177.9 212.7 Z M 177.9 208.8 C 177.9 208.8 177.9 202.1 177.9 202.1 C 177.4 200.9 176 199.8 174.7 199.8 C 172.3 199.8 171.2 202.3 171.2 205.5 C 171.2 208.6 172.3 211.1 174.7 211.1 C 176 211.1 177.4 210.1 177.9 208.8 Z M 183.7 212.7 L 183.7 192.7 L 185.9 192.7 L 185.9 212.7 L 183.7 212.7 Z M 188.8 205.4 C 188.8 201.2 191 197.9 194.7 197.9 C 198.5 197.9 200.4 201.3 200.4 205.5 C 200.43 205.5 200.4 206.2 200.4 206.2 C 200.4 206.2 191.04 206.16 191 206.2 C 191.1 209.1 192.6 211.3 195.2 211.3 C 196.5 211.3 197.8 210.6 198.7 209.5 C 198.7 209.5 199.8 210.8 199.8 210.8 C 198.6 212.2 197 213.1 195 213.1 C 191.2 213.1 188.8 209.9 188.8 205.4 Z M 194.7 199.7 C 192.1 199.7 191.1 202.4 191 204.6 C 191 204.6 198.3 204.6 198.3 204.6 C 198.3 202.4 197.3 199.7 194.7 199.7 Z " stroke="none" fill="#d3d2d2"/>  </g>  <g id="Polygon153936">    <path d="M 5.5 176.7 L 5.5 158.8 L 0.8 158.8 L 0.8 156.7 L 12.6 156.7 L 12.6 158.8 L 7.9 158.8 L 7.9 176.7 L 5.5 176.7 Z M 14.6 158.6 C 14.6 157.8 15.3 157.2 16.1 157.2 C 16.9 157.2 17.6 157.8 17.6 158.6 C 17.6 159.5 16.9 160.1 16.1 160.1 C 15.3 160.1 14.6 159.5 14.6 158.6 Z M 15.1 176.7 L 15.1 162.2 L 17.2 162.2 L 17.2 176.7 L 15.1 176.7 Z M 19.7 175 C 19.7 175 20.8 173.5 20.8 173.5 C 21.6 174.5 23 175.3 24.5 175.3 C 26.2 175.3 27.3 174.4 27.3 173 C 27.3 169.6 20.1 170.8 20.1 165.8 C 20.1 163.6 21.8 161.9 24.7 161.9 C 26.6 161.9 28.1 162.6 29.1 163.7 C 29.1 163.7 28.1 165.2 28.1 165.2 C 27.4 164.2 26.2 163.6 24.7 163.6 C 23.2 163.6 22.2 164.5 22.2 165.7 C 22.2 168.8 29.4 167.7 29.4 172.9 C 29.4 175.3 27.5 177.1 24.6 177.1 C 22.5 177.1 20.9 176.4 19.7 175 Z M 31 175 C 31 175 32.1 173.5 32.1 173.5 C 32.9 174.5 34.3 175.3 35.8 175.3 C 37.5 175.3 38.6 174.4 38.6 173 C 38.6 169.6 31.4 170.8 31.4 165.8 C 31.4 163.6 33.1 161.9 36 161.9 C 37.9 161.9 39.4 162.6 40.4 163.7 C 40.4 163.7 39.4 165.2 39.4 165.2 C 38.7 164.2 37.5 163.6 36.1 163.6 C 34.5 163.6 33.5 164.5 33.5 165.7 C 33.5 168.8 40.7 167.7 40.7 172.9 C 40.7 175.3 38.8 177.1 35.9 177.1 C 33.8 177.1 32.2 176.4 31 175 Z M 51.3 176.7 C 51.3 176.7 51.3 174.69 51.3 174.7 C 50.4 176 48.9 177.1 47.1 177.1 C 44.6 177.1 43.5 175.8 43.5 173.2 C 43.47 173.19 43.5 162.2 43.5 162.2 L 45.6 162.2 C 45.6 162.2 45.6 172.56 45.6 172.6 C 45.6 174.5 46.5 175.1 47.9 175.1 C 49.3 175.1 50.7 174.1 51.3 172.9 C 51.3 172.89 51.3 162.2 51.3 162.2 L 53.5 162.2 L 53.5 176.7 L 51.3 176.7 Z M 56.4 169.4 C 56.4 165.2 58.6 161.9 62.3 161.9 C 66.1 161.9 68 165.3 68 169.5 C 68.01 169.5 68 170.2 68 170.2 C 68 170.2 58.62 170.16 58.6 170.2 C 58.7 173.1 60.2 175.3 62.8 175.3 C 64 175.3 65.3 174.6 66.2 173.5 C 66.2 173.5 67.4 174.8 67.4 174.8 C 66.2 176.2 64.6 177.1 62.6 177.1 C 58.7 177.1 56.4 173.9 56.4 169.4 Z M 62.2 163.7 C 59.7 163.7 58.7 166.4 58.6 168.6 C 58.6 168.6 65.9 168.6 65.9 168.6 C 65.8 166.4 64.9 163.7 62.2 163.7 Z M 79.1 174.6 C 79.14 174.6 79.1 182.2 79.1 182.2 L 77 182.2 L 77 162.2 L 79.1 162.2 C 79.1 162.2 79.14 164.28 79.1 164.3 C 80 162.8 81.4 161.9 82.9 161.9 C 86.2 161.9 88.1 164.9 88.1 169.4 C 88.1 174 86.2 177.1 82.9 177.1 C 81.5 177.1 80 176.2 79.1 174.6 Z M 85.9 169.4 C 85.9 166.3 84.8 163.8 82.4 163.8 C 81.1 163.8 79.7 164.9 79.1 166.1 C 79.1 166.1 79.1 172.7 79.1 172.7 C 79.7 174 81.1 175.1 82.4 175.1 C 84.8 175.1 85.9 172.6 85.9 169.4 Z M 98.5 176.7 C 98.5 176.7 98.49 175.14 98.5 175.1 C 97.6 176.5 96.1 177.1 94.7 177.1 C 92.3 177.1 90.3 175.3 90.3 172.2 C 90.3 169.2 92.3 167.5 94.7 167.5 C 96.1 167.5 97.6 168 98.5 169.3 C 98.5 169.3 98.5 166.8 98.5 166.8 C 98.5 164.8 97.4 163.7 95.5 163.7 C 94.2 163.7 93 164.2 91.9 165.5 C 91.9 165.5 90.9 164 90.9 164 C 92.3 162.5 94 161.9 95.8 161.9 C 98.7 161.9 100.6 163.3 100.6 166.6 C 100.65 166.56 100.6 176.7 100.6 176.7 L 98.5 176.7 Z M 98.5 173.7 C 98.5 173.7 98.5 170.9 98.5 170.9 C 97.8 169.7 96.6 169.1 95.4 169.1 C 93.6 169.1 92.5 170.5 92.5 172.3 C 92.5 174.1 93.6 175.5 95.4 175.5 C 96.6 175.5 97.8 174.9 98.5 173.7 Z M 106.4 174.6 C 106.41 174.6 106.4 182.2 106.4 182.2 L 104.3 182.2 L 104.3 162.2 L 106.4 162.2 C 106.4 162.2 106.41 164.28 106.4 164.3 C 107.2 162.8 108.7 161.9 110.2 161.9 C 113.5 161.9 115.4 164.9 115.4 169.4 C 115.4 174 113.5 177.1 110.2 177.1 C 108.7 177.1 107.3 176.2 106.4 174.6 Z M 113.2 169.4 C 113.2 166.3 112 163.8 109.7 163.8 C 108.3 163.8 107 164.9 106.4 166.1 C 106.4 166.1 106.4 172.7 106.4 172.7 C 107 174 108.3 175.1 109.7 175.1 C 112 175.1 113.2 172.6 113.2 169.4 Z M 117.6 169.4 C 117.6 165.2 119.8 161.9 123.5 161.9 C 127.3 161.9 129.2 165.3 129.2 169.5 C 129.21 169.5 129.2 170.2 129.2 170.2 C 129.2 170.2 119.82 170.16 119.8 170.2 C 119.9 173.1 121.4 175.3 124 175.3 C 125.2 175.3 126.5 174.6 127.4 173.5 C 127.4 173.5 128.6 174.8 128.6 174.8 C 127.4 176.2 125.8 177.1 123.8 177.1 C 119.9 177.1 117.6 173.9 117.6 169.4 Z M 123.4 163.7 C 120.9 163.7 119.9 166.4 119.8 168.6 C 119.8 168.6 127.1 168.6 127.1 168.6 C 127 166.4 126.1 163.7 123.4 163.7 Z M 132.1 176.7 L 132.1 162.2 L 134.2 162.2 C 134.2 162.2 134.19 164.52 134.2 164.5 C 135.1 163 136.5 161.9 138.3 161.9 C 138.3 161.9 138.3 164.1 138.3 164.1 C 138.1 164.1 137.8 164 137.6 164 C 136.3 164 134.8 165.2 134.2 166.4 C 134.19 166.41 134.2 176.7 134.2 176.7 L 132.1 176.7 Z " stroke="none" fill="#d3d2d2"/>  </g>  <g id="Polygon153935">    <path d="M 12.7 140.7 L 12.7 131.5 L 4.5 131.5 L 4.5 140.7 L 2.1 140.7 L 2.1 120.7 L 4.5 120.7 L 4.5 129.4 L 12.7 129.4 L 12.7 120.7 L 15.1 120.7 L 15.1 140.7 L 12.7 140.7 Z M 26.3 140.7 C 26.3 140.7 26.34 139.14 26.3 139.1 C 25.4 140.5 24 141.1 22.5 141.1 C 20.2 141.1 18.1 139.3 18.1 136.2 C 18.1 133.2 20.2 131.5 22.5 131.5 C 24 131.5 25.4 132 26.3 133.3 C 26.3 133.3 26.3 130.8 26.3 130.8 C 26.3 128.8 25.3 127.7 23.4 127.7 C 22 127.7 20.8 128.2 19.7 129.5 C 19.7 129.5 18.8 128 18.8 128 C 20.2 126.5 21.9 125.9 23.7 125.9 C 26.6 125.9 28.5 127.3 28.5 130.6 C 28.5 130.56 28.5 140.7 28.5 140.7 L 26.3 140.7 Z M 26.3 137.7 C 26.3 137.7 26.3 134.9 26.3 134.9 C 25.7 133.7 24.5 133.1 23.2 133.1 C 21.4 133.1 20.3 134.5 20.3 136.3 C 20.3 138.1 21.4 139.5 23.2 139.5 C 24.5 139.5 25.7 138.9 26.3 137.7 Z M 31.7 122.6 C 31.7 121.8 32.4 121.2 33.2 121.2 C 34 121.2 34.6 121.8 34.6 122.6 C 34.6 123.5 34 124.1 33.2 124.1 C 32.4 124.1 31.7 123.5 31.7 122.6 Z M 32.1 140.7 L 32.1 126.2 L 34.3 126.2 L 34.3 140.7 L 32.1 140.7 Z M 37.9 140.7 L 37.9 126.2 L 40 126.2 C 40 126.2 40.05 128.52 40 128.5 C 41 127 42.4 125.9 44.2 125.9 C 44.2 125.9 44.2 128.1 44.2 128.1 C 43.9 128.1 43.7 128 43.4 128 C 42.1 128 40.6 129.2 40 130.4 C 40.05 130.41 40 140.7 40 140.7 L 37.9 140.7 Z M 63.2 140.7 L 60.1 129.1 L 57 140.7 L 54.8 140.7 L 50.9 126.2 L 53.2 126.2 L 56 137.8 L 59 126.2 L 61.1 126.2 L 64.2 137.8 L 67 126.2 L 69.3 126.2 L 65.4 140.7 L 63.2 140.7 Z M 78.8 140.7 C 78.8 140.7 78.78 139.14 78.8 139.1 C 77.8 140.5 76.4 141.1 75 141.1 C 72.6 141.1 70.6 139.3 70.6 136.2 C 70.6 133.2 72.6 131.5 75 131.5 C 76.4 131.5 77.9 132 78.8 133.3 C 78.8 133.3 78.8 130.8 78.8 130.8 C 78.8 128.8 77.7 127.7 75.8 127.7 C 74.5 127.7 73.3 128.2 72.2 129.5 C 72.2 129.5 71.2 128 71.2 128 C 72.6 126.5 74.3 125.9 76.1 125.9 C 79 125.9 80.9 127.3 80.9 130.6 C 80.94 130.56 80.9 140.7 80.9 140.7 L 78.8 140.7 Z M 78.8 137.7 C 78.8 137.7 78.8 134.9 78.8 134.9 C 78.1 133.7 76.9 133.1 75.7 133.1 C 73.9 133.1 72.8 134.5 72.8 136.3 C 72.8 138.1 73.9 139.5 75.7 139.5 C 76.9 139.5 78.1 138.9 78.8 137.7 Z M 92 140.7 L 88.7 134.9 L 85.3 140.7 L 82.9 140.7 L 87.4 133.3 L 83.2 126.2 L 85.6 126.2 L 88.7 131.7 L 91.8 126.2 L 94.2 126.2 L 90 133.3 L 94.4 140.7 L 92 140.7 Z " stroke="none" fill="#d3d2d2"/>  </g>  <g id="Polygon153934">    <path d="M 14 104.7 L 10.7 88.9 L 7.5 104.7 L 4.9 104.7 L 0.5 84.7 L 3 84.7 L 6.3 101 L 9.7 84.7 L 11.7 84.7 L 15.1 101 L 18.4 84.7 L 21 84.7 L 16.5 104.7 L 14 104.7 Z M 31 104.7 C 31 104.7 30.99 94.35 31 94.4 C 31 92.4 30.1 91.8 28.6 91.8 C 27.2 91.8 25.9 92.9 25.3 94.1 C 25.26 94.08 25.3 104.7 25.3 104.7 L 23.1 104.7 L 23.1 84.7 L 25.3 84.7 C 25.3 84.7 25.26 92.28 25.3 92.3 C 26.1 91 27.7 89.9 29.5 89.9 C 31.9 89.9 33.1 91.1 33.1 93.7 C 33.12 93.72 33.1 104.7 33.1 104.7 L 31 104.7 Z M 36.4 86.6 C 36.4 85.8 37 85.2 37.8 85.2 C 38.6 85.2 39.3 85.8 39.3 86.6 C 39.3 87.5 38.6 88.1 37.8 88.1 C 37 88.1 36.4 87.5 36.4 86.6 Z M 36.8 104.7 L 36.8 90.2 L 38.9 90.2 L 38.9 104.7 L 36.8 104.7 Z M 43 101.8 C 42.99 101.79 43 92.1 43 92.1 L 41.1 92.1 L 41.1 90.2 L 43 90.2 L 43 86.3 L 45.1 86.3 L 45.1 90.2 L 47.6 90.2 L 47.6 92.1 L 45.1 92.1 C 45.1 92.1 45.15 101.4 45.1 101.4 C 45.1 102.5 45.5 103.1 46.3 103.1 C 46.9 103.1 47.3 102.9 47.6 102.6 C 47.6 102.6 48.2 104.2 48.2 104.2 C 47.7 104.7 47 105.1 45.9 105.1 C 43.9 105.1 43 104 43 101.8 Z M 49.4 97.4 C 49.4 93.2 51.7 89.9 55.3 89.9 C 59.1 89.9 61 93.3 61 97.5 C 61.05 97.5 61 98.2 61 98.2 C 61 98.2 51.66 98.16 51.7 98.2 C 51.7 101.1 53.2 103.3 55.8 103.3 C 57.1 103.3 58.4 102.6 59.3 101.5 C 59.3 101.5 60.4 102.8 60.4 102.8 C 59.2 104.2 57.6 105.1 55.6 105.1 C 51.8 105.1 49.4 101.9 49.4 97.4 Z M 55.3 91.7 C 52.7 91.7 51.7 94.4 51.7 96.6 C 51.7 96.6 58.9 96.6 58.9 96.6 C 58.9 94.4 57.9 91.7 55.3 91.7 Z M 69.9 108.8 C 69.9 108.8 70.9 107.1 70.9 107.1 C 71.9 108.2 73.1 108.8 74.7 108.8 C 76.7 108.8 78.3 107.6 78.3 104.8 C 78.3 104.8 78.3 102.4 78.3 102.4 C 77.5 103.9 76 104.9 74.5 104.9 C 71.3 104.9 69.3 101.9 69.3 97.4 C 69.3 92.9 71.2 89.9 74.5 89.9 C 76 89.9 77.4 90.7 78.3 92.3 C 78.33 92.31 78.3 90.2 78.3 90.2 L 80.5 90.2 C 80.5 90.2 80.49 104.67 80.5 104.7 C 80.5 109.1 77.8 110.6 74.8 110.6 C 72.8 110.6 71.3 110.1 69.9 108.8 Z M 78.3 100.6 C 78.3 100.6 78.3 94.1 78.3 94.1 C 77.8 92.9 76.4 91.8 75.1 91.8 C 72.7 91.8 71.6 94.3 71.6 97.4 C 71.6 100.5 72.7 103 75.1 103 C 76.4 103 77.8 101.8 78.3 100.6 Z M 84.1 104.7 L 84.1 84.7 L 86.2 84.7 L 86.2 104.7 L 84.1 104.7 Z M 97.7 104.7 C 97.7 104.7 97.74 102.69 97.7 102.7 C 96.9 104 95.3 105.1 93.5 105.1 C 91.1 105.1 89.9 103.8 89.9 101.2 C 89.91 101.19 89.9 90.2 89.9 90.2 L 92 90.2 C 92 90.2 92.04 100.56 92 100.6 C 92 102.5 92.9 103.1 94.3 103.1 C 95.8 103.1 97.1 102.1 97.7 100.9 C 97.74 100.89 97.7 90.2 97.7 90.2 L 99.9 90.2 L 99.9 104.7 L 97.7 104.7 Z M 102.8 97.4 C 102.8 93.2 105.1 89.9 108.7 89.9 C 112.5 89.9 114.4 93.3 114.4 97.5 C 114.45 97.5 114.4 98.2 114.4 98.2 C 114.4 98.2 105.06 98.16 105.1 98.2 C 105.1 101.1 106.6 103.3 109.2 103.3 C 110.5 103.3 111.8 102.6 112.7 101.5 C 112.7 101.5 113.8 102.8 113.8 102.8 C 112.6 104.2 111 105.1 109 105.1 C 105.2 105.1 102.8 101.9 102.8 97.4 Z M 108.7 91.7 C 106.1 91.7 105.1 94.4 105.1 96.6 C 105.1 96.6 112.3 96.6 112.3 96.6 C 112.3 94.4 111.3 91.7 108.7 91.7 Z " stroke="none" fill="#d3d2d2"/>  </g>  <g id="Polygon153933">    <path d="M 14 68.7 L 10.7 52.9 L 7.5 68.7 L 4.9 68.7 L 0.5 48.7 L 3 48.7 L 6.3 65 L 9.7 48.7 L 11.7 48.7 L 15.1 65 L 18.4 48.7 L 21 48.7 L 16.5 68.7 L 14 68.7 Z M 31 68.7 C 31 68.7 30.99 58.35 31 58.4 C 31 56.4 30.1 55.8 28.6 55.8 C 27.2 55.8 25.9 56.9 25.3 58.1 C 25.26 58.08 25.3 68.7 25.3 68.7 L 23.1 68.7 L 23.1 48.7 L 25.3 48.7 C 25.3 48.7 25.26 56.28 25.3 56.3 C 26.1 55 27.7 53.9 29.5 53.9 C 31.9 53.9 33.1 55.1 33.1 57.7 C 33.12 57.72 33.1 68.7 33.1 68.7 L 31 68.7 Z M 36.4 50.6 C 36.4 49.8 37 49.2 37.8 49.2 C 38.6 49.2 39.3 49.8 39.3 50.6 C 39.3 51.5 38.6 52.1 37.8 52.1 C 37 52.1 36.4 51.5 36.4 50.6 Z M 36.8 68.7 L 36.8 54.2 L 38.9 54.2 L 38.9 68.7 L 36.8 68.7 Z M 43 65.8 C 42.99 65.79 43 56.1 43 56.1 L 41.1 56.1 L 41.1 54.2 L 43 54.2 L 43 50.3 L 45.1 50.3 L 45.1 54.2 L 47.6 54.2 L 47.6 56.1 L 45.1 56.1 C 45.1 56.1 45.15 65.4 45.1 65.4 C 45.1 66.5 45.5 67.1 46.3 67.1 C 46.9 67.1 47.3 66.9 47.6 66.6 C 47.6 66.6 48.2 68.2 48.2 68.2 C 47.7 68.7 47 69.1 45.9 69.1 C 43.9 69.1 43 68 43 65.8 Z M 49.4 61.4 C 49.4 57.2 51.7 53.9 55.3 53.9 C 59.1 53.9 61 57.3 61 61.5 C 61.05 61.5 61 62.2 61 62.2 C 61 62.2 51.66 62.16 51.7 62.2 C 51.7 65.1 53.2 67.3 55.8 67.3 C 57.1 67.3 58.4 66.6 59.3 65.5 C 59.3 65.5 60.4 66.8 60.4 66.8 C 59.2 68.2 57.6 69.1 55.6 69.1 C 51.8 69.1 49.4 65.9 49.4 61.4 Z M 55.3 55.7 C 52.7 55.7 51.7 58.4 51.7 60.6 C 51.7 60.6 58.9 60.6 58.9 60.6 C 58.9 58.4 57.9 55.7 55.3 55.7 Z M 70.5 65.8 C 70.47 65.79 70.5 56.1 70.5 56.1 L 68.5 56.1 L 68.5 54.2 L 70.5 54.2 L 70.5 50.3 L 72.6 50.3 L 72.6 54.2 L 75.1 54.2 L 75.1 56.1 L 72.6 56.1 C 72.6 56.1 72.63 65.4 72.6 65.4 C 72.6 66.5 73 67.1 73.8 67.1 C 74.3 67.1 74.8 66.9 75.1 66.6 C 75.1 66.6 75.7 68.2 75.7 68.2 C 75.2 68.7 74.5 69.1 73.4 69.1 C 71.4 69.1 70.5 68 70.5 65.8 Z M 85.1 68.7 C 85.1 68.7 85.08 67.14 85.1 67.1 C 84.1 68.5 82.7 69.1 81.3 69.1 C 78.9 69.1 76.9 67.3 76.9 64.2 C 76.9 61.2 78.9 59.5 81.3 59.5 C 82.7 59.5 84.2 60 85.1 61.3 C 85.1 61.3 85.1 58.8 85.1 58.8 C 85.1 56.8 84 55.7 82.1 55.7 C 80.8 55.7 79.6 56.2 78.5 57.5 C 78.5 57.5 77.5 56 77.5 56 C 78.9 54.5 80.6 53.9 82.4 53.9 C 85.3 53.9 87.2 55.3 87.2 58.6 C 87.24 58.56 87.2 68.7 87.2 68.7 L 85.1 68.7 Z M 85.1 65.7 C 85.1 65.7 85.1 62.9 85.1 62.9 C 84.4 61.7 83.2 61.1 82 61.1 C 80.2 61.1 79.1 62.5 79.1 64.3 C 79.1 66.1 80.2 67.5 82 67.5 C 83.2 67.5 84.4 66.9 85.1 65.7 Z M 90.9 68.7 L 90.9 48.7 L 93 48.7 L 93 68.7 L 90.9 68.7 Z M 95.9 61.4 C 95.9 57.2 98.2 53.9 101.9 53.9 C 103.9 53.9 105.2 54.7 106.1 55.8 C 106.1 55.8 104.9 57.2 104.9 57.2 C 104.1 56.2 103.2 55.8 102.1 55.8 C 99.5 55.8 98.2 58.4 98.2 61.4 C 98.2 64.5 99.5 67.1 102.1 67.1 C 103.2 67.1 104.1 66.7 104.9 65.7 C 104.9 65.7 106.1 67.1 106.1 67.1 C 105.2 68.3 103.9 69.1 101.9 69.1 C 98.2 69.1 95.9 65.7 95.9 61.4 Z M 116.4 68.7 C 116.4 68.7 116.37 66.69 116.4 66.7 C 115.5 68 114 69.1 112.2 69.1 C 109.7 69.1 108.5 67.8 108.5 65.2 C 108.54 65.19 108.5 54.2 108.5 54.2 L 110.7 54.2 C 110.7 54.2 110.67 64.56 110.7 64.6 C 110.7 66.5 111.6 67.1 113 67.1 C 114.4 67.1 115.7 66.1 116.4 64.9 C 116.37 64.89 116.4 54.2 116.4 54.2 L 118.5 54.2 L 118.5 68.7 L 116.4 68.7 Z M 136.8 68.7 C 136.8 68.7 136.83 58.2 136.8 58.2 C 136.8 56.6 136.2 55.8 134.8 55.8 C 133.5 55.8 132.2 56.9 131.7 58.1 C 131.67 58.08 131.7 68.7 131.7 68.7 L 129.5 68.7 C 129.5 68.7 129.51 58.2 129.5 58.2 C 129.5 56.6 128.9 55.8 127.5 55.8 C 126.2 55.8 124.9 56.9 124.3 58.1 C 124.32 58.08 124.3 68.7 124.3 68.7 L 122.2 68.7 L 122.2 54.2 L 124.3 54.2 C 124.3 54.2 124.32 56.28 124.3 56.3 C 124.9 55.2 126.5 53.9 128.3 53.9 C 130.1 53.9 131.3 54.9 131.5 56.4 C 132.3 55.1 133.9 53.9 135.6 53.9 C 137.8 53.9 139 55 139 57.6 C 138.99 57.63 139 68.7 139 68.7 L 136.8 68.7 Z M 150.9 66.6 C 150.93 66.6 150.9 74.2 150.9 74.2 L 148.8 74.2 L 148.8 54.2 L 150.9 54.2 C 150.9 54.2 150.93 56.28 150.9 56.3 C 151.8 54.8 153.2 53.9 154.7 53.9 C 158 53.9 159.9 56.9 159.9 61.4 C 159.9 66 158 69.1 154.7 69.1 C 153.3 69.1 151.8 68.2 150.9 66.6 Z M 157.7 61.4 C 157.7 58.3 156.6 55.8 154.2 55.8 C 152.8 55.8 151.5 56.9 150.9 58.1 C 150.9 58.1 150.9 64.7 150.9 64.7 C 151.5 66 152.8 67.1 154.2 67.1 C 156.6 67.1 157.7 64.6 157.7 61.4 Z M 162.1 61.4 C 162.1 57.4 164.2 53.9 168 53.9 C 171.9 53.9 173.9 57.4 173.9 61.4 C 173.9 65.5 171.9 69.1 168 69.1 C 164.2 69.1 162.1 65.5 162.1 61.4 Z M 171.7 61.4 C 171.7 58.5 170.5 55.8 168 55.8 C 165.5 55.8 164.4 58.5 164.4 61.4 C 164.4 64.4 165.5 67.1 168 67.1 C 170.5 67.1 171.7 64.4 171.7 61.4 Z M 187.5 68.7 L 184.4 57.1 L 181.3 68.7 L 179.1 68.7 L 175.3 54.2 L 177.5 54.2 L 180.3 65.8 L 183.4 54.2 L 185.4 54.2 L 188.5 65.8 L 191.4 54.2 L 193.6 54.2 L 189.7 68.7 L 187.5 68.7 Z M 204 68.7 C 204 68.7 203.97 66.63 204 66.6 C 203.1 68.1 201.7 69.1 200.2 69.1 C 196.9 69.1 195 66 195 61.5 C 195 57 196.9 53.9 200.2 53.9 C 201.6 53.9 203.1 54.7 204 56.3 C 203.97 56.31 204 48.7 204 48.7 L 206.1 48.7 L 206.1 68.7 L 204 68.7 Z M 204 64.8 C 204 64.8 204 58.1 204 58.1 C 203.4 56.9 202.1 55.8 200.7 55.8 C 198.3 55.8 197.2 58.3 197.2 61.5 C 197.2 64.6 198.3 67.1 200.7 67.1 C 202.1 67.1 203.4 66.1 204 64.8 Z M 209.1 61.4 C 209.1 57.2 211.3 53.9 214.9 53.9 C 218.8 53.9 220.7 57.3 220.7 61.5 C 220.68 61.5 220.7 62.2 220.7 62.2 C 220.7 62.2 211.29 62.16 211.3 62.2 C 211.4 65.1 212.9 67.3 215.5 67.3 C 216.7 67.3 218 66.6 218.9 65.5 C 218.9 65.5 220 66.8 220 66.8 C 218.9 68.2 217.2 69.1 215.3 69.1 C 211.4 69.1 209.1 65.9 209.1 61.4 Z M 214.9 55.7 C 212.4 55.7 211.3 58.4 211.3 60.6 C 211.3 60.6 218.5 60.6 218.5 60.6 C 218.5 58.4 217.6 55.7 214.9 55.7 Z M 223.5 68.7 L 223.5 54.2 L 225.7 54.2 C 225.7 54.2 225.66 56.52 225.7 56.5 C 226.6 55 228 53.9 229.8 53.9 C 229.8 53.9 229.8 56.1 229.8 56.1 C 229.5 56.1 229.3 56 229 56 C 227.7 56 226.3 57.2 225.7 58.4 C 225.66 58.41 225.7 68.7 225.7 68.7 L 223.5 68.7 Z " stroke="none" fill="#d3d2d2"/>  </g>  <g id="Polygon153932">    <path d="M 2.1 32.7 L 2.1 12.7 L 12.4 12.7 L 12.4 14.8 L 4.5 14.8 L 4.5 21.4 L 12.2 21.4 L 12.2 23.5 L 4.5 23.5 L 4.5 32.7 L 2.1 32.7 Z M 14.5 25.4 C 14.5 21.4 16.5 17.9 20.4 17.9 C 24.3 17.9 26.3 21.4 26.3 25.4 C 26.3 29.5 24.3 33.1 20.4 33.1 C 16.5 33.1 14.5 29.5 14.5 25.4 Z M 24 25.4 C 24 22.5 22.9 19.8 20.4 19.8 C 17.9 19.8 16.7 22.5 16.7 25.4 C 16.7 28.4 17.9 31.1 20.4 31.1 C 22.9 31.1 24 28.4 24 25.4 Z M 36.7 32.7 C 36.7 32.7 36.66 31.14 36.7 31.1 C 35.7 32.5 34.3 33.1 32.8 33.1 C 30.5 33.1 28.5 31.3 28.5 28.2 C 28.5 25.2 30.5 23.5 32.8 23.5 C 34.3 23.5 35.8 24 36.7 25.3 C 36.7 25.3 36.7 22.8 36.7 22.8 C 36.7 20.8 35.6 19.7 33.7 19.7 C 32.3 19.7 31.2 20.2 30.1 21.5 C 30.1 21.5 29.1 20 29.1 20 C 30.5 18.5 32.2 17.9 34 17.9 C 36.9 17.9 38.8 19.3 38.8 22.6 C 38.82 22.56 38.8 32.7 38.8 32.7 L 36.7 32.7 Z M 36.7 29.7 C 36.7 29.7 36.7 26.9 36.7 26.9 C 36 25.7 34.8 25.1 33.5 25.1 C 31.7 25.1 30.7 26.5 30.7 28.3 C 30.7 30.1 31.7 31.5 33.5 31.5 C 34.8 31.5 36 30.9 36.7 29.7 Z M 57.1 32.7 C 57.1 32.7 57.09 22.2 57.1 22.2 C 57.1 20.6 56.5 19.8 55.1 19.8 C 53.8 19.8 52.5 20.9 51.9 22.1 C 51.93 22.08 51.9 32.7 51.9 32.7 L 49.8 32.7 C 49.8 32.7 49.77 22.2 49.8 22.2 C 49.8 20.6 49.1 19.8 47.7 19.8 C 46.4 19.8 45.2 20.9 44.6 22.1 C 44.58 22.08 44.6 32.7 44.6 32.7 L 42.4 32.7 L 42.4 18.2 L 44.6 18.2 C 44.6 18.2 44.58 20.28 44.6 20.3 C 45.2 19.2 46.8 17.9 48.5 17.9 C 50.4 17.9 51.5 18.9 51.8 20.4 C 52.5 19.1 54.1 17.9 55.9 17.9 C 58 17.9 59.2 19 59.2 21.6 C 59.25 21.63 59.2 32.7 59.2 32.7 L 57.1 32.7 Z M 69.6 32.7 L 69.6 20.1 L 67.6 20.1 L 67.6 18.2 L 69.6 18.2 C 69.6 18.2 69.57 16.44 69.6 16.4 C 69.6 13.9 70.9 12.4 73.2 12.4 C 74.2 12.4 75.1 12.7 75.8 13.4 C 75.8 13.4 74.9 14.9 74.9 14.9 C 74.5 14.5 74.1 14.2 73.5 14.2 C 72.3 14.2 71.7 15 71.7 16.4 C 71.73 16.44 71.7 18.2 71.7 18.2 L 74.2 18.2 L 74.2 20.1 L 71.7 20.1 L 71.7 32.7 L 69.6 32.7 Z M 76.4 32.7 L 76.4 18.2 L 78.5 18.2 C 78.5 18.2 78.51 20.52 78.5 20.5 C 79.4 19 80.8 17.9 82.6 17.9 C 82.6 17.9 82.6 20.1 82.6 20.1 C 82.4 20.1 82.1 20 81.9 20 C 80.6 20 79.1 21.2 78.5 22.4 C 78.51 22.41 78.5 32.7 78.5 32.7 L 76.4 32.7 Z M 92.6 32.7 C 92.6 32.7 92.64 30.69 92.6 30.7 C 91.8 32 90.2 33.1 88.4 33.1 C 86 33.1 84.8 31.8 84.8 29.2 C 84.81 29.19 84.8 18.2 84.8 18.2 L 86.9 18.2 C 86.9 18.2 86.94 28.56 86.9 28.6 C 86.9 30.5 87.8 31.1 89.2 31.1 C 90.7 31.1 92 30.1 92.6 28.9 C 92.64 28.89 92.6 18.2 92.6 18.2 L 94.8 18.2 L 94.8 32.7 L 92.6 32.7 Z M 98 14.6 C 98 13.8 98.7 13.2 99.5 13.2 C 100.3 13.2 101 13.8 101 14.6 C 101 15.5 100.3 16.1 99.5 16.1 C 98.7 16.1 98 15.5 98 14.6 Z M 98.5 32.7 L 98.5 18.2 L 100.6 18.2 L 100.6 32.7 L 98.5 32.7 Z M 104.7 29.8 C 104.67 29.79 104.7 20.1 104.7 20.1 L 102.7 20.1 L 102.7 18.2 L 104.7 18.2 L 104.7 14.3 L 106.8 14.3 L 106.8 18.2 L 109.3 18.2 L 109.3 20.1 L 106.8 20.1 C 106.8 20.1 106.83 29.4 106.8 29.4 C 106.8 30.5 107.2 31.1 108 31.1 C 108.5 31.1 109 30.9 109.3 30.6 C 109.3 30.6 109.9 32.2 109.9 32.2 C 109.4 32.7 108.7 33.1 107.6 33.1 C 105.6 33.1 104.7 32 104.7 29.8 Z M 125.8 32.7 C 125.8 32.7 125.82 22.38 125.8 22.4 C 125.8 20.5 124.9 19.8 123.5 19.8 C 122.1 19.8 120.8 20.9 120.1 22.1 C 120.12 22.08 120.1 32.7 120.1 32.7 L 118 32.7 L 118 18.2 L 120.1 18.2 C 120.1 18.2 120.12 20.28 120.1 20.3 C 121 19 122.6 17.9 124.3 17.9 C 126.8 17.9 128 19.2 128 21.8 C 127.98 21.78 128 32.7 128 32.7 L 125.8 32.7 Z M 130.9 25.4 C 130.9 21.2 133.1 17.9 136.8 17.9 C 140.6 17.9 142.5 21.3 142.5 25.5 C 142.53 25.5 142.5 26.2 142.5 26.2 C 142.5 26.2 133.14 26.16 133.1 26.2 C 133.2 29.1 134.7 31.3 137.3 31.3 C 138.6 31.3 139.9 30.6 140.8 29.5 C 140.8 29.5 141.9 30.8 141.9 30.8 C 140.7 32.2 139.1 33.1 137.1 33.1 C 133.3 33.1 130.9 29.9 130.9 25.4 Z M 136.8 19.7 C 134.2 19.7 133.2 22.4 133.1 24.6 C 133.1 24.6 140.4 24.6 140.4 24.6 C 140.4 22.4 139.4 19.7 136.8 19.7 Z M 145.8 29.8 C 145.8 29.79 145.8 20.1 145.8 20.1 L 143.9 20.1 L 143.9 18.2 L 145.8 18.2 L 145.8 14.3 L 148 14.3 L 148 18.2 L 150.4 18.2 L 150.4 20.1 L 148 20.1 C 148 20.1 147.96 29.4 148 29.4 C 148 30.5 148.3 31.1 149.1 31.1 C 149.7 31.1 150.1 30.9 150.4 30.6 C 150.4 30.6 151 32.2 151 32.2 C 150.5 32.7 149.8 33.1 148.7 33.1 C 146.7 33.1 145.8 32 145.8 29.8 Z M 153.4 29.8 C 153.39 29.79 153.4 20.1 153.4 20.1 L 151.5 20.1 L 151.5 18.2 L 153.4 18.2 L 153.4 14.3 L 155.5 14.3 L 155.5 18.2 L 158 18.2 L 158 20.1 L 155.5 20.1 C 155.5 20.1 155.55 29.4 155.5 29.4 C 155.5 30.5 155.9 31.1 156.7 31.1 C 157.3 31.1 157.7 30.9 158 30.6 C 158 30.6 158.6 32.2 158.6 32.2 C 158.1 32.7 157.4 33.1 156.3 33.1 C 154.3 33.1 153.4 32 153.4 29.8 Z M 160.1 14.6 C 160.1 13.8 160.8 13.2 161.6 13.2 C 162.4 13.2 163.1 13.8 163.1 14.6 C 163.1 15.5 162.4 16.1 161.6 16.1 C 160.8 16.1 160.1 15.5 160.1 14.6 Z M 160.6 32.7 L 160.6 18.2 L 162.7 18.2 L 162.7 32.7 L 160.6 32.7 Z M 174.2 32.7 C 174.2 32.7 174.18 22.38 174.2 22.4 C 174.2 20.5 173.3 19.8 171.9 19.8 C 170.5 19.8 169.1 20.9 168.5 22.1 C 168.48 22.08 168.5 32.7 168.5 32.7 L 166.3 32.7 L 166.3 18.2 L 168.5 18.2 C 168.5 18.2 168.48 20.28 168.5 20.3 C 169.3 19 170.9 17.9 172.7 17.9 C 175.1 17.9 176.3 19.2 176.3 21.8 C 176.34 21.78 176.3 32.7 176.3 32.7 L 174.2 32.7 Z M 179.9 36.8 C 179.9 36.8 180.9 35.1 180.9 35.1 C 181.8 36.2 183.1 36.8 184.6 36.8 C 186.6 36.8 188.3 35.6 188.3 32.8 C 188.3 32.8 188.3 30.4 188.3 30.4 C 187.4 31.9 186 32.9 184.5 32.9 C 181.2 32.9 179.3 29.9 179.3 25.4 C 179.3 20.9 181.2 17.9 184.5 17.9 C 185.9 17.9 187.4 18.7 188.3 20.3 C 188.28 20.31 188.3 18.2 188.3 18.2 L 190.4 18.2 C 190.4 18.2 190.44 32.67 190.4 32.7 C 190.4 37.1 187.7 38.6 184.7 38.6 C 182.8 38.6 181.3 38.1 179.9 36.8 Z M 188.3 28.6 C 188.3 28.6 188.3 22.1 188.3 22.1 C 187.7 20.9 186.4 19.8 185 19.8 C 182.6 19.8 181.5 22.3 181.5 25.4 C 181.5 28.5 182.6 31 185 31 C 186.4 31 187.7 29.8 188.3 28.6 Z " stroke="none" fill="#d3d2d2"/>  </g></svg>