<?xml version="1.0" standalone="no"?><!DOCTYPE svg PUBLIC "-//W3C//DTD SVG 1.1//EN" "http://www.w3.org/Graphics/SVG/1.1/DTD/svg11.dtd"><svg xmlns="http://www.w3.org/2000/svg" version="1.1" width="648px" height="575.3px" viewBox="0 0 648 575.3">  <desc>Mix in white glue, Yellow 5, Yellow 6, Red 40, and Blue 1 Thoroughly stir the mixture Add in astaxanthin and methyl</desc>  <defs/>  <g id="Polygon183248">    <path d="M 307.5 415.9 C 305.7 415.9 304.3 414.5 304.3 412.8 C 304.3 411 305.7 409.6 307.5 409.6 C 309.2 409.6 310.7 411 310.7 412.8 C 310.7 414.5 309.2 415.9 307.5 415.9 Z M 324.7 415.9 C 322.9 415.9 321.4 414.5 321.4 412.8 C 321.4 411 322.9 409.6 324.7 409.6 C 326.4 409.6 327.9 411 327.9 412.8 C 327.9 414.5 326.4 415.9 324.7 415.9 Z M 341.8 415.9 C 340.1 415.9 338.6 414.5 338.6 412.8 C 338.6 411 340.1 409.6 341.8 409.6 C 343.6 409.6 345.1 411 345.1 412.8 C 345.1 414.5 343.6 415.9 341.8 415.9 Z " stroke="none" fill="#b13d24"/>  </g>  <g id="Polygon183247">    <path d="M 37.8 348 C 37.8 348 37.77 346.46 37.8 346.5 C 36.8 347.8 35.4 348.4 34 348.4 C 31.6 348.4 29.6 346.6 29.6 343.6 C 29.6 340.5 31.6 338.8 34 338.8 C 35.4 338.8 36.9 339.4 37.8 340.6 C 37.8 340.6 37.8 338.1 37.8 338.1 C 37.8 336.1 36.7 335 34.8 335 C 33.4 335 32.3 335.5 31.2 336.8 C 31.2 336.8 30.2 335.3 30.2 335.3 C 31.6 333.8 33.3 333.2 35.1 333.2 C 38 333.2 39.9 334.6 39.9 337.9 C 39.93 337.88 39.9 348 39.9 348 L 37.8 348 Z M 37.8 345 C 37.8 345 37.8 342.2 37.8 342.2 C 37.1 341 35.9 340.4 34.6 340.4 C 32.8 340.4 31.8 341.8 31.8 343.6 C 31.8 345.4 32.8 346.8 34.6 346.8 C 35.9 346.8 37.1 346.2 37.8 345 Z M 64.3 348 C 64.3 348 64.35 337.52 64.3 337.5 C 64.3 336 63.7 335.1 62.3 335.1 C 61 335.1 59.8 336.2 59.2 337.4 C 59.19 337.4 59.2 348 59.2 348 L 57 348 C 57 348 57.03 337.52 57 337.5 C 57 336 56.4 335.1 55 335.1 C 53.7 335.1 52.5 336.2 51.8 337.4 C 51.84 337.4 51.8 348 51.8 348 L 49.7 348 L 49.7 333.5 L 51.8 333.5 C 51.8 333.5 51.84 335.6 51.8 335.6 C 52.4 334.5 54.1 333.2 55.8 333.2 C 57.7 333.2 58.8 334.2 59.1 335.8 C 59.8 334.4 61.4 333.2 63.1 333.2 C 65.3 333.2 66.5 334.3 66.5 337 C 66.51 336.95 66.5 348 66.5 348 L 64.3 348 Z M 69.7 330 C 69.7 329.2 70.4 328.5 71.2 328.5 C 72 328.5 72.7 329.2 72.7 330 C 72.7 330.8 72 331.4 71.2 331.4 C 70.4 331.4 69.7 330.8 69.7 330 Z M 70.2 348 L 70.2 333.5 L 72.3 333.5 L 72.3 348 L 70.2 348 Z M 83.4 348 L 80.1 342.2 L 76.7 348 L 74.3 348 L 78.7 340.6 L 74.6 333.5 L 77 333.5 L 80.1 339.1 L 83.2 333.5 L 85.6 333.5 L 81.4 340.6 L 85.8 348 L 83.4 348 Z M 88.3 345.1 C 88.25 345.11 88.3 335.4 88.3 335.4 L 86.3 335.4 L 86.3 333.5 L 88.3 333.5 L 88.3 329.6 L 90.4 329.6 L 90.4 333.5 L 92.9 333.5 L 92.9 335.4 L 90.4 335.4 C 90.4 335.4 90.41 344.72 90.4 344.7 C 90.4 345.8 90.7 346.5 91.6 346.5 C 92.1 346.5 92.6 346.2 92.8 345.9 C 92.8 345.9 93.5 347.5 93.5 347.5 C 93 348 92.3 348.4 91.2 348.4 C 89.2 348.4 88.3 347.3 88.3 345.1 Z M 103.3 348 C 103.3 348 103.25 346.01 103.3 346 C 102.4 347.3 100.9 348.4 99.1 348.4 C 96.6 348.4 95.4 347.2 95.4 344.5 C 95.42 344.51 95.4 333.5 95.4 333.5 L 97.6 333.5 C 97.6 333.5 97.55 343.88 97.6 343.9 C 97.6 345.8 98.5 346.5 99.9 346.5 C 101.3 346.5 102.6 345.4 103.3 344.2 C 103.25 344.21 103.3 333.5 103.3 333.5 L 105.4 333.5 L 105.4 348 L 103.3 348 Z M 109.1 348 L 109.1 333.5 L 111.2 333.5 C 111.2 333.5 111.2 335.84 111.2 335.8 C 112.1 334.3 113.5 333.2 115.3 333.2 C 115.3 333.2 115.3 335.5 115.3 335.5 C 115.1 335.4 114.8 335.4 114.6 335.4 C 113.3 335.4 111.8 336.5 111.2 337.7 C 111.2 337.73 111.2 348 111.2 348 L 109.1 348 Z M 116.8 340.8 C 116.8 336.6 119 333.2 122.7 333.2 C 126.5 333.2 128.4 336.6 128.4 340.8 C 128.39 340.82 128.4 341.5 128.4 341.5 C 128.4 341.5 119 341.48 119 341.5 C 119.1 344.4 120.6 346.6 123.2 346.6 C 124.4 346.6 125.7 346 126.6 344.8 C 126.6 344.8 127.8 346.1 127.8 346.1 C 126.6 347.5 124.9 348.4 123 348.4 C 119.1 348.4 116.8 345.2 116.8 340.8 Z M 122.6 335 C 120.1 335 119.1 337.8 119 339.9 C 119 339.9 126.3 339.9 126.3 339.9 C 126.2 337.7 125.3 335 122.6 335 Z M 136.7 340.8 C 136.7 336.7 138.7 333.2 142.6 333.2 C 146.5 333.2 148.5 336.7 148.5 340.8 C 148.5 344.8 146.5 348.4 142.6 348.4 C 138.7 348.4 136.7 344.8 136.7 340.8 Z M 146.2 340.8 C 146.2 337.9 145.1 335.1 142.6 335.1 C 140.1 335.1 138.9 337.9 138.9 340.8 C 138.9 343.7 140.1 346.5 142.6 346.5 C 145.1 346.5 146.2 343.7 146.2 340.8 Z M 151.9 348 L 151.9 335.4 L 150 335.4 L 150 333.5 L 151.9 333.5 C 151.9 333.5 151.91 331.76 151.9 331.8 C 151.9 329.2 153.3 327.7 155.5 327.7 C 156.5 327.7 157.4 328 158.1 328.7 C 158.1 328.7 157.3 330.2 157.3 330.2 C 156.9 329.8 156.4 329.5 155.9 329.5 C 154.7 329.5 154.1 330.4 154.1 331.8 C 154.07 331.76 154.1 333.5 154.1 333.5 L 156.5 333.5 L 156.5 335.4 L 154.1 335.4 L 154.1 348 L 151.9 348 Z M 169.2 348 L 169.2 339.6 L 163 328 L 165.7 328 L 170.4 337.3 L 175.1 328 L 177.7 328 L 171.6 339.6 L 171.6 348 L 169.2 348 Z M 176.1 340.8 C 176.1 336.6 178.3 333.2 181.9 333.2 C 185.8 333.2 187.7 336.6 187.7 340.8 C 187.67 340.82 187.7 341.5 187.7 341.5 C 187.7 341.5 178.28 341.48 178.3 341.5 C 178.4 344.4 179.9 346.6 182.5 346.6 C 183.7 346.6 185 346 185.9 344.8 C 185.9 344.8 187 346.1 187 346.1 C 185.9 347.5 184.2 348.4 182.3 348.4 C 178.4 348.4 176.1 345.2 176.1 340.8 Z M 181.9 335 C 179.4 335 178.3 337.8 178.3 339.9 C 178.3 339.9 185.5 339.9 185.5 339.9 C 185.5 337.7 184.6 335 181.9 335 Z M 190.5 348 L 190.5 328 L 192.7 328 L 192.7 348 L 190.5 348 Z M 196.3 348 L 196.3 328 L 198.4 328 L 198.4 348 L 196.3 348 Z M 201.4 340.8 C 201.4 336.7 203.4 333.2 207.3 333.2 C 211.2 333.2 213.2 336.7 213.2 340.8 C 213.2 344.8 211.2 348.4 207.3 348.4 C 203.4 348.4 201.4 344.8 201.4 340.8 Z M 210.9 340.8 C 210.9 337.9 209.8 335.1 207.3 335.1 C 204.8 335.1 203.6 337.9 203.6 340.8 C 203.6 343.7 204.8 346.5 207.3 346.5 C 209.8 346.5 210.9 343.7 210.9 340.8 Z M 226.8 348 L 223.7 336.4 L 220.6 348 L 218.4 348 L 214.5 333.5 L 216.8 333.5 L 219.6 345.1 L 222.7 333.5 L 224.7 333.5 L 227.8 345.1 L 230.6 333.5 L 232.9 333.5 L 229 348 L 226.8 348 Z M 240.5 338 C 240.5 332.7 242.5 327.7 247.3 327.7 C 249.4 327.7 251 328.7 252 330.2 C 252 330.2 250.6 331.9 250.6 331.9 C 249.9 330.6 249 329.8 247.3 329.8 C 244.1 329.8 242.9 334 242.9 337.8 C 242.9 338.1 242.9 338.2 243 338.4 C 243.7 337 245.3 335.5 247.4 335.5 C 250.3 335.5 252.6 337.6 252.6 341.9 C 252.6 345.3 250.6 348.4 246.9 348.4 C 242.1 348.4 240.5 343.4 240.5 338 Z M 250.2 341.9 C 250.2 338.8 248.7 337.6 246.8 337.6 C 245.1 337.6 243.7 339 243 340.6 C 243.1 342.9 243.9 346.3 246.7 346.3 C 249.1 346.3 250.2 344 250.2 341.9 Z M 269.2 348 C 269.2 348 269.15 346.46 269.2 346.5 C 268.2 347.8 266.8 348.4 265.3 348.4 C 263 348.4 261 346.6 261 343.6 C 261 340.5 263 338.8 265.3 338.8 C 266.8 338.8 268.3 339.4 269.2 340.6 C 269.2 340.6 269.2 338.1 269.2 338.1 C 269.2 336.1 268.1 335 266.2 335 C 264.8 335 263.7 335.5 262.6 336.8 C 262.6 336.8 261.6 335.3 261.6 335.3 C 263 333.8 264.7 333.2 266.5 333.2 C 269.4 333.2 271.3 334.6 271.3 337.9 C 271.31 337.88 271.3 348 271.3 348 L 269.2 348 Z M 269.2 345 C 269.2 345 269.2 342.2 269.2 342.2 C 268.5 341 267.3 340.4 266 340.4 C 264.2 340.4 263.2 341.8 263.2 343.6 C 263.2 345.4 264.2 346.8 266 346.8 C 267.3 346.8 268.5 346.2 269.2 345 Z M 282.8 348 C 282.8 348 282.77 337.7 282.8 337.7 C 282.8 335.8 281.9 335.1 280.5 335.1 C 279.1 335.1 277.7 336.2 277.1 337.4 C 277.07 337.4 277.1 348 277.1 348 L 274.9 348 L 274.9 333.5 L 277.1 333.5 C 277.1 333.5 277.07 335.6 277.1 335.6 C 277.9 334.3 279.5 333.2 281.3 333.2 C 283.7 333.2 284.9 334.5 284.9 337.1 C 284.93 337.1 284.9 348 284.9 348 L 282.8 348 Z M 296.9 348 C 296.9 348 296.87 345.95 296.9 346 C 296 347.4 294.6 348.4 293.1 348.4 C 289.8 348.4 287.9 345.4 287.9 340.8 C 287.9 336.3 289.8 333.2 293.1 333.2 C 294.5 333.2 296 334 296.9 335.6 C 296.87 335.63 296.9 328 296.9 328 L 299 328 L 299 348 L 296.9 348 Z M 296.9 344.1 C 296.9 344.1 296.9 337.5 296.9 337.5 C 296.3 336.2 295 335.1 293.6 335.1 C 291.2 335.1 290.1 337.6 290.1 340.8 C 290.1 343.9 291.2 346.5 293.6 346.5 C 295 346.5 296.3 345.4 296.9 344.1 Z M 309 348 L 309 328 C 309 328 315.59 328.01 315.6 328 C 318.7 328 320.5 330.1 320.5 333.1 C 320.5 335.6 319.2 337.2 317.5 337.7 C 319.4 338 320.9 340.2 320.9 342.6 C 320.9 345.9 319.1 348 315.8 348 C 315.77 348.02 309 348 309 348 Z M 318.1 333.4 C 318.1 331.6 317.2 330.1 315.1 330.1 C 315.14 330.11 311.4 330.1 311.4 330.1 L 311.4 336.7 C 311.4 336.7 315.14 336.74 315.1 336.7 C 317.2 336.7 318.1 335.3 318.1 333.4 Z M 318.4 342.4 C 318.4 340.5 317.4 338.8 315.3 338.8 C 315.29 338.84 311.4 338.8 311.4 338.8 L 311.4 345.9 C 311.4 345.9 315.29 345.89 315.3 345.9 C 317.4 345.9 318.4 344.6 318.4 342.4 Z M 324 348 L 324 328 L 326.1 328 L 326.1 348 L 324 348 Z M 337.6 348 C 337.6 348 337.64 346.01 337.6 346 C 336.8 347.3 335.2 348.4 333.4 348.4 C 331 348.4 329.8 347.2 329.8 344.5 C 329.81 344.51 329.8 333.5 329.8 333.5 L 331.9 333.5 C 331.9 333.5 331.94 343.88 331.9 343.9 C 331.9 345.8 332.8 346.5 334.2 346.5 C 335.7 346.5 337 345.4 337.6 344.2 C 337.64 344.21 337.6 333.5 337.6 333.5 L 339.8 333.5 L 339.8 348 L 337.6 348 Z M 342.7 340.8 C 342.7 336.6 345 333.2 348.6 333.2 C 352.4 333.2 354.3 336.6 354.3 340.8 C 354.35 340.82 354.3 341.5 354.3 341.5 C 354.3 341.5 344.96 341.48 345 341.5 C 345 344.4 346.5 346.6 349.1 346.6 C 350.4 346.6 351.7 346 352.6 344.8 C 352.6 344.8 353.7 346.1 353.7 346.1 C 352.5 347.5 350.9 348.4 348.9 348.4 C 345.1 348.4 342.7 345.2 342.7 340.8 Z M 348.6 335 C 346 335 345 337.8 345 339.9 C 345 339.9 352.2 339.9 352.2 339.9 C 352.2 337.7 351.2 335 348.6 335 Z M 363 348 C 363 348 362.96 346.07 363 346.1 C 369.5 338.5 371.7 336.1 371.7 333.2 C 371.7 331 370.2 329.8 368.5 329.8 C 366.6 329.8 365.3 330.8 364.3 332.4 C 364.3 332.4 362.7 330.9 362.7 330.9 C 364.1 328.9 366 327.7 368.6 327.7 C 371.6 327.7 374.2 329.7 374.2 333.2 C 374.2 336.5 371.7 339.5 366.3 345.9 C 366.35 345.89 374.3 345.9 374.3 345.9 L 374.3 348 L 363 348 Z M 377.6 346.7 C 377.6 345.9 378.3 345.1 379.2 345.1 C 380 345.1 380.8 345.9 380.8 346.7 C 380.8 347.6 380 348.3 379.2 348.3 C 378.3 348.3 377.6 347.6 377.6 346.7 Z " stroke="none" fill="#efd8d3"/>  </g>  <g id="Polygon183246">    <path d="M 8.6 312 L 8.6 306.9 L 0.7 306.9 L 0.7 304.8 L 7.9 292 L 11 292 L 11 304.8 L 13.2 304.8 L 13.2 306.9 L 11 306.9 L 11 312 L 8.6 312 Z M 8.6 294.6 L 2.9 304.8 L 8.6 304.8 L 8.6 294.6 Z M 15.4 310.7 C 15.4 309.9 16.1 309.1 17 309.1 C 17.8 309.1 18.6 309.9 18.6 310.7 C 18.6 311.6 17.8 312.3 17 312.3 C 16.1 312.3 15.4 311.6 15.4 310.7 Z M 30.4 312 L 30.4 292 L 32.8 292 L 32.8 312 L 30.4 312 Z M 37.1 312 L 37.1 299.4 L 35.2 299.4 L 35.2 297.5 L 37.1 297.5 C 37.1 297.5 37.14 295.76 37.1 295.8 C 37.1 293.2 38.5 291.7 40.8 291.7 C 41.7 291.7 42.6 292 43.3 292.7 C 43.3 292.7 42.5 294.2 42.5 294.2 C 42.1 293.8 41.7 293.5 41.1 293.5 C 39.9 293.5 39.3 294.4 39.3 295.8 C 39.3 295.76 39.3 297.5 39.3 297.5 L 41.8 297.5 L 41.8 299.4 L 39.3 299.4 L 39.3 312 L 37.1 312 Z M 58.4 312 C 58.4 312 58.38 309.95 58.4 310 C 57.5 311.4 56.1 312.4 54.6 312.4 C 51.3 312.4 49.4 309.4 49.4 304.8 C 49.4 300.3 51.3 297.2 54.6 297.2 C 56 297.2 57.5 298 58.4 299.6 C 58.38 299.63 58.4 292 58.4 292 L 60.5 292 L 60.5 312 L 58.4 312 Z M 58.4 308.1 C 58.4 308.1 58.4 301.5 58.4 301.5 C 57.8 300.2 56.5 299.1 55.1 299.1 C 52.7 299.1 51.6 301.6 51.6 304.8 C 51.6 307.9 52.7 310.5 55.1 310.5 C 56.5 310.5 57.8 309.4 58.4 308.1 Z M 63.5 304.8 C 63.5 300.6 65.7 297.2 69.4 297.2 C 73.2 297.2 75.1 300.6 75.1 304.8 C 75.09 304.82 75.1 305.5 75.1 305.5 C 75.1 305.5 65.7 305.48 65.7 305.5 C 65.8 308.4 67.3 310.6 69.9 310.6 C 71.1 310.6 72.4 310 73.3 308.8 C 73.3 308.8 74.5 310.1 74.5 310.1 C 73.3 311.5 71.6 312.4 69.7 312.4 C 65.8 312.4 63.5 309.2 63.5 304.8 Z M 69.3 299 C 66.8 299 65.8 301.8 65.7 303.9 C 65.7 303.9 73 303.9 73 303.9 C 72.9 301.7 72 299 69.3 299 Z M 76.8 310.3 C 76.8 310.3 77.8 308.8 77.8 308.8 C 78.7 309.8 80.1 310.6 81.6 310.6 C 83.3 310.6 84.4 309.7 84.4 308.3 C 84.4 304.9 77.2 306.1 77.2 301.1 C 77.2 298.9 78.9 297.2 81.8 297.2 C 83.7 297.2 85.2 297.9 86.2 299 C 86.2 299 85.2 300.5 85.2 300.5 C 84.5 299.5 83.2 298.9 81.8 298.9 C 80.2 298.9 79.3 299.8 79.3 301 C 79.3 304.1 86.5 303 86.5 308.2 C 86.5 310.6 84.6 312.4 81.7 312.4 C 79.6 312.4 78 311.7 76.8 310.3 Z M 88.8 294 C 88.8 293.2 89.5 292.5 90.3 292.5 C 91.1 292.5 91.8 293.2 91.8 294 C 91.8 294.8 91.1 295.4 90.3 295.4 C 89.5 295.4 88.8 294.8 88.8 294 Z M 89.2 312 L 89.2 297.5 L 91.4 297.5 L 91.4 312 L 89.2 312 Z M 95 312 L 95 297.5 L 97.2 297.5 C 97.2 297.5 97.16 299.84 97.2 299.8 C 98.1 298.3 99.5 297.2 101.3 297.2 C 101.3 297.2 101.3 299.5 101.3 299.5 C 101 299.4 100.8 299.4 100.6 299.4 C 99.2 299.4 97.8 300.5 97.2 301.7 C 97.16 301.73 97.2 312 97.2 312 L 95 312 Z M 102.7 304.8 C 102.7 300.6 105 297.2 108.6 297.2 C 112.4 297.2 114.4 300.6 114.4 304.8 C 114.35 304.82 114.4 305.5 114.4 305.5 C 114.4 305.5 104.96 305.48 105 305.5 C 105.1 308.4 106.6 310.6 109.1 310.6 C 110.4 310.6 111.7 310 112.6 308.8 C 112.6 308.8 113.7 310.1 113.7 310.1 C 112.6 311.5 110.9 312.4 109 312.4 C 105.1 312.4 102.7 309.2 102.7 304.8 Z M 108.6 299 C 106 299 105 301.8 105 303.9 C 105 303.9 112.2 303.9 112.2 303.9 C 112.2 301.7 111.2 299 108.6 299 Z M 125.5 312 C 125.5 312 125.48 309.95 125.5 310 C 124.6 311.4 123.2 312.4 121.7 312.4 C 118.4 312.4 116.5 309.4 116.5 304.8 C 116.5 300.3 118.4 297.2 121.7 297.2 C 123.1 297.2 124.6 298 125.5 299.6 C 125.48 299.63 125.5 292 125.5 292 L 127.6 292 L 127.6 312 L 125.5 312 Z M 125.5 308.1 C 125.5 308.1 125.5 301.5 125.5 301.5 C 124.9 300.2 123.6 299.1 122.2 299.1 C 119.8 299.1 118.7 301.6 118.7 304.8 C 118.7 307.9 119.8 310.5 122.2 310.5 C 123.6 310.5 124.9 309.4 125.5 308.1 Z M 132.1 315.8 C 132.1 315.8 131 314.9 131 314.9 C 132 314.3 132.8 313.1 133 312.1 C 132.9 312.1 132.7 312.2 132.6 312.2 C 131.8 312.2 131.2 311.5 131.2 310.7 C 131.2 309.8 131.8 309.1 132.7 309.1 C 133.7 309.1 134.5 309.9 134.5 311.4 C 134.5 313.2 133.5 314.8 132.1 315.8 Z M 143.9 316.1 C 143.9 316.1 144.9 314.4 144.9 314.4 C 145.8 315.5 147.1 316.1 148.6 316.1 C 150.6 316.1 152.3 314.9 152.3 312.1 C 152.3 312.1 152.3 309.7 152.3 309.7 C 151.4 311.2 150 312.2 148.5 312.2 C 145.2 312.2 143.3 309.3 143.3 304.7 C 143.3 300.2 145.2 297.2 148.5 297.2 C 149.9 297.2 151.4 298 152.3 299.6 C 152.27 299.63 152.3 297.5 152.3 297.5 L 154.4 297.5 C 154.4 297.5 154.43 311.99 154.4 312 C 154.4 316.5 151.7 317.9 148.7 317.9 C 146.8 317.9 145.3 317.5 143.9 316.1 Z M 152.3 307.9 C 152.3 307.9 152.3 301.5 152.3 301.5 C 151.7 300.2 150.4 299.1 149 299.1 C 146.6 299.1 145.5 301.6 145.5 304.7 C 145.5 307.8 146.6 310.3 149 310.3 C 150.4 310.3 151.7 309.1 152.3 307.9 Z M 165.5 312 C 165.5 312 165.5 310.46 165.5 310.5 C 164.6 311.8 163.2 312.4 161.7 312.4 C 159.4 312.4 157.3 310.6 157.3 307.6 C 157.3 304.5 159.3 302.8 161.7 302.8 C 163.2 302.8 164.6 303.4 165.5 304.6 C 165.5 304.6 165.5 302.1 165.5 302.1 C 165.5 300.1 164.4 299 162.5 299 C 161.2 299 160 299.5 158.9 300.8 C 158.9 300.8 157.9 299.3 157.9 299.3 C 159.3 297.8 161 297.2 162.9 297.2 C 165.7 297.2 167.7 298.6 167.7 301.9 C 167.66 301.88 167.7 312 167.7 312 L 165.5 312 Z M 165.5 309 C 165.5 309 165.5 306.2 165.5 306.2 C 164.8 305 163.6 304.4 162.4 304.4 C 160.6 304.4 159.5 305.8 159.5 307.6 C 159.5 309.4 160.6 310.8 162.4 310.8 C 163.6 310.8 164.8 310.2 165.5 309 Z M 171.3 312 L 171.3 297.5 L 173.4 297.5 C 173.4 297.5 173.42 299.84 173.4 299.8 C 174.4 298.3 175.8 297.2 177.5 297.2 C 177.5 297.2 177.5 299.5 177.5 299.5 C 177.3 299.4 177.1 299.4 176.8 299.4 C 175.5 299.4 174 300.5 173.4 301.7 C 173.42 301.73 173.4 312 173.4 312 L 171.3 312 Z M 187.6 312 C 187.6 312 187.55 301.7 187.6 301.7 C 187.6 299.8 186.7 299.1 185.2 299.1 C 183.8 299.1 182.5 300.2 181.9 301.4 C 181.85 301.4 181.9 312 181.9 312 L 179.7 312 L 179.7 297.5 L 181.9 297.5 C 181.9 297.5 181.85 299.6 181.9 299.6 C 182.7 298.3 184.3 297.2 186.1 297.2 C 188.5 297.2 189.7 298.5 189.7 301.1 C 189.71 301.1 189.7 312 189.7 312 L 187.6 312 Z M 193 294 C 193 293.2 193.6 292.5 194.4 292.5 C 195.2 292.5 195.9 293.2 195.9 294 C 195.9 294.8 195.2 295.4 194.4 295.4 C 193.6 295.4 193 294.8 193 294 Z M 193.4 312 L 193.4 297.5 L 195.5 297.5 L 195.5 312 L 193.4 312 Z M 198 310.3 C 198 310.3 199.1 308.8 199.1 308.8 C 199.9 309.8 201.3 310.6 202.9 310.6 C 204.5 310.6 205.6 309.7 205.6 308.3 C 205.6 304.9 198.4 306.1 198.4 301.1 C 198.4 298.9 200.2 297.2 203 297.2 C 205 297.2 206.4 297.9 207.4 299 C 207.4 299 206.4 300.5 206.4 300.5 C 205.7 299.5 204.5 298.9 203.1 298.9 C 201.5 298.9 200.5 299.8 200.5 301 C 200.5 304.1 207.7 303 207.7 308.2 C 207.7 310.6 205.9 312.4 202.9 312.4 C 200.8 312.4 199.2 311.7 198 310.3 Z M 218.3 312 C 218.3 312 218.33 301.67 218.3 301.7 C 218.3 299.8 217.4 299.1 216 299.1 C 214.6 299.1 213.3 300.2 212.6 301.4 C 212.6 301.4 212.6 312 212.6 312 L 210.5 312 L 210.5 292 L 212.6 292 C 212.6 292 212.6 299.6 212.6 299.6 C 213.4 298.3 215.1 297.2 216.8 297.2 C 219.3 297.2 220.5 298.4 220.5 301 C 220.46 301.04 220.5 312 220.5 312 L 218.3 312 Z M 241 312 L 237.9 300.4 L 234.7 312 L 232.6 312 L 228.7 297.5 L 230.9 297.5 L 233.8 309.1 L 236.8 297.5 L 238.9 297.5 L 241.9 309.1 L 244.8 297.5 L 247 297.5 L 243.2 312 L 241 312 Z M 248.7 294 C 248.7 293.2 249.4 292.5 250.2 292.5 C 251 292.5 251.6 293.2 251.6 294 C 251.6 294.8 251 295.4 250.2 295.4 C 249.4 295.4 248.7 294.8 248.7 294 Z M 249.1 312 L 249.1 297.5 L 251.2 297.5 L 251.2 312 L 249.1 312 Z M 255.3 309.1 C 255.32 309.11 255.3 299.4 255.3 299.4 L 253.4 299.4 L 253.4 297.5 L 255.3 297.5 L 255.3 293.6 L 257.5 293.6 L 257.5 297.5 L 259.9 297.5 L 259.9 299.4 L 257.5 299.4 C 257.5 299.4 257.48 308.72 257.5 308.7 C 257.5 309.8 257.8 310.5 258.7 310.5 C 259.2 310.5 259.6 310.2 259.9 309.9 C 259.9 309.9 260.6 311.5 260.6 311.5 C 260.1 312 259.3 312.4 258.2 312.4 C 256.3 312.4 255.3 311.3 255.3 309.1 Z M 270.4 312 C 270.4 312 270.35 301.67 270.4 301.7 C 270.4 299.8 269.5 299.1 268 299.1 C 266.6 299.1 265.3 300.2 264.6 301.4 C 264.62 301.4 264.6 312 264.6 312 L 262.5 312 L 262.5 292 L 264.6 292 C 264.6 292 264.62 299.6 264.6 299.6 C 265.5 298.3 267.1 297.2 268.9 297.2 C 271.3 297.2 272.5 298.4 272.5 301 C 272.48 301.04 272.5 312 272.5 312 L 270.4 312 Z M 281.1 310.3 C 281.1 310.3 282.2 308.8 282.2 308.8 C 283 309.8 284.4 310.6 286 310.6 C 287.7 310.6 288.8 309.7 288.8 308.3 C 288.8 304.9 281.5 306.1 281.5 301.1 C 281.5 298.9 283.3 297.2 286.2 297.2 C 288.1 297.2 289.6 297.9 290.6 299 C 290.6 299 289.6 300.5 289.6 300.5 C 288.8 299.5 287.6 298.9 286.2 298.9 C 284.6 298.9 283.6 299.8 283.6 301 C 283.6 304.1 290.8 303 290.8 308.2 C 290.8 310.6 289 312.4 286 312.4 C 284 312.4 282.3 311.7 281.1 310.3 Z M 301.5 312 C 301.5 312 301.46 301.67 301.5 301.7 C 301.5 299.8 300.6 299.1 299.1 299.1 C 297.7 299.1 296.4 300.2 295.7 301.4 C 295.73 301.4 295.7 312 295.7 312 L 293.6 312 L 293.6 292 L 295.7 292 C 295.7 292 295.73 299.6 295.7 299.6 C 296.6 298.3 298.2 297.2 300 297.2 C 302.4 297.2 303.6 298.4 303.6 301 C 303.59 301.04 303.6 312 303.6 312 L 301.5 312 Z M 307.2 312 L 307.2 297.5 L 309.4 297.5 C 309.4 297.5 309.38 299.84 309.4 299.8 C 310.3 298.3 311.7 297.2 313.5 297.2 C 313.5 297.2 313.5 299.5 313.5 299.5 C 313.2 299.4 313 299.4 312.8 299.4 C 311.4 299.4 310 300.5 309.4 301.7 C 309.38 301.73 309.4 312 309.4 312 L 307.2 312 Z M 315 304.8 C 315 300.6 317.2 297.2 320.8 297.2 C 324.6 297.2 326.6 300.6 326.6 304.8 C 326.57 304.82 326.6 305.5 326.6 305.5 C 326.6 305.5 317.18 305.48 317.2 305.5 C 317.3 308.4 318.8 310.6 321.3 310.6 C 322.6 310.6 323.9 310 324.8 308.8 C 324.8 308.8 325.9 310.1 325.9 310.1 C 324.8 311.5 323.1 312.4 321.2 312.4 C 317.3 312.4 315 309.2 315 304.8 Z M 320.8 299 C 318.3 299 317.2 301.8 317.2 303.9 C 317.2 303.9 324.4 303.9 324.4 303.9 C 324.4 301.7 323.4 299 320.8 299 Z M 337.7 312 C 337.7 312 337.7 309.95 337.7 310 C 336.9 311.4 335.4 312.4 333.9 312.4 C 330.6 312.4 328.7 309.4 328.7 304.8 C 328.7 300.3 330.6 297.2 333.9 297.2 C 335.4 297.2 336.8 298 337.7 299.6 C 337.7 299.63 337.7 292 337.7 292 L 339.9 292 L 339.9 312 L 337.7 312 Z M 337.7 308.1 C 337.7 308.1 337.7 301.5 337.7 301.5 C 337.2 300.2 335.8 299.1 334.4 299.1 C 332.1 299.1 330.9 301.6 330.9 304.8 C 330.9 307.9 332.1 310.5 334.4 310.5 C 335.8 310.5 337.2 309.4 337.7 308.1 Z M 351.8 312 C 351.8 312 351.8 309.95 351.8 310 C 351 311.4 349.5 312.4 348 312.4 C 344.7 312.4 342.8 309.4 342.8 304.8 C 342.8 300.3 344.7 297.2 348 297.2 C 349.5 297.2 350.9 298 351.8 299.6 C 351.8 299.63 351.8 292 351.8 292 L 354 292 L 354 312 L 351.8 312 Z M 351.8 308.1 C 351.8 308.1 351.8 301.5 351.8 301.5 C 351.3 300.2 349.9 299.1 348.5 299.1 C 346.2 299.1 345 301.6 345 304.8 C 345 307.9 346.2 310.5 348.5 310.5 C 349.9 310.5 351.3 309.4 351.8 308.1 Z M 356.9 304.8 C 356.9 300.6 359.1 297.2 362.8 297.2 C 366.6 297.2 368.5 300.6 368.5 304.8 C 368.51 304.82 368.5 305.5 368.5 305.5 C 368.5 305.5 359.12 305.48 359.1 305.5 C 359.2 308.4 360.7 310.6 363.3 310.6 C 364.5 310.6 365.8 310 366.7 308.8 C 366.7 308.8 367.9 310.1 367.9 310.1 C 366.7 311.5 365.1 312.4 363.1 312.4 C 359.2 312.4 356.9 309.2 356.9 304.8 Z M 362.7 299 C 360.2 299 359.2 301.8 359.1 303.9 C 359.1 303.9 366.4 303.9 366.4 303.9 C 366.3 301.7 365.4 299 362.7 299 Z M 379.6 312 C 379.6 312 379.64 309.95 379.6 310 C 378.8 311.4 377.4 312.4 375.8 312.4 C 372.6 312.4 370.6 309.4 370.6 304.8 C 370.6 300.3 372.6 297.2 375.8 297.2 C 377.3 297.2 378.8 298 379.6 299.6 C 379.64 299.63 379.6 292 379.6 292 L 381.8 292 L 381.8 312 L 379.6 312 Z M 379.6 308.1 C 379.6 308.1 379.6 301.5 379.6 301.5 C 379.1 300.2 377.7 299.1 376.4 299.1 C 374 299.1 372.9 301.6 372.9 304.8 C 372.9 307.9 374 310.5 376.4 310.5 C 377.7 310.5 379.1 309.4 379.6 308.1 Z M 392 309.1 C 392.03 309.11 392 299.4 392 299.4 L 390.1 299.4 L 390.1 297.5 L 392 297.5 L 392 293.6 L 394.2 293.6 L 394.2 297.5 L 396.6 297.5 L 396.6 299.4 L 394.2 299.4 C 394.2 299.4 394.19 308.72 394.2 308.7 C 394.2 309.8 394.5 310.5 395.4 310.5 C 395.9 310.5 396.3 310.2 396.6 309.9 C 396.6 309.9 397.3 311.5 397.3 311.5 C 396.8 312 396 312.4 394.9 312.4 C 393 312.4 392 311.3 392 309.1 Z M 398.8 294 C 398.8 293.2 399.5 292.5 400.2 292.5 C 401.1 292.5 401.7 293.2 401.7 294 C 401.7 294.8 401.1 295.4 400.2 295.4 C 399.5 295.4 398.8 294.8 398.8 294 Z M 399.2 312 L 399.2 297.5 L 401.3 297.5 L 401.3 312 L 399.2 312 Z M 403.8 310.3 C 403.8 310.3 404.9 308.8 404.9 308.8 C 405.7 309.8 407.1 310.6 408.7 310.6 C 410.4 310.6 411.5 309.7 411.5 308.3 C 411.5 304.9 404.2 306.1 404.2 301.1 C 404.2 298.9 406 297.2 408.9 297.2 C 410.8 297.2 412.2 297.9 413.3 299 C 413.3 299 412.2 300.5 412.2 300.5 C 411.5 299.5 410.3 298.9 408.9 298.9 C 407.3 298.9 406.3 299.8 406.3 301 C 406.3 304.1 413.5 303 413.5 308.2 C 413.5 310.6 411.7 312.4 408.7 312.4 C 406.7 312.4 405 311.7 403.8 310.3 Z M 415.1 310.3 C 415.1 310.3 416.2 308.8 416.2 308.8 C 417 309.8 418.4 310.6 420 310.6 C 421.7 310.6 422.8 309.7 422.8 308.3 C 422.8 304.9 415.5 306.1 415.5 301.1 C 415.5 298.9 417.3 297.2 420.2 297.2 C 422.1 297.2 423.6 297.9 424.6 299 C 424.6 299 423.6 300.5 423.6 300.5 C 422.8 299.5 421.6 298.9 420.2 298.9 C 418.6 298.9 417.6 299.8 417.6 301 C 417.6 304.1 424.8 303 424.8 308.2 C 424.8 310.6 423 312.4 420 312.4 C 418 312.4 416.3 311.7 415.1 310.3 Z M 435.4 312 C 435.4 312 435.44 310.01 435.4 310 C 434.6 311.3 433 312.4 431.2 312.4 C 428.8 312.4 427.6 311.2 427.6 308.5 C 427.61 308.51 427.6 297.5 427.6 297.5 L 429.7 297.5 C 429.7 297.5 429.74 307.88 429.7 307.9 C 429.7 309.8 430.6 310.5 432 310.5 C 433.5 310.5 434.8 309.4 435.4 308.2 C 435.44 308.21 435.4 297.5 435.4 297.5 L 437.6 297.5 L 437.6 312 L 435.4 312 Z M 440.5 304.8 C 440.5 300.6 442.8 297.2 446.4 297.2 C 450.2 297.2 452.1 300.6 452.1 304.8 C 452.15 304.82 452.1 305.5 452.1 305.5 C 452.1 305.5 442.76 305.48 442.8 305.5 C 442.8 308.4 444.3 310.6 446.9 310.6 C 448.2 310.6 449.5 310 450.4 308.8 C 450.4 308.8 451.5 310.1 451.5 310.1 C 450.3 311.5 448.7 312.4 446.7 312.4 C 442.9 312.4 440.5 309.2 440.5 304.8 Z M 446.4 299 C 443.8 299 442.8 301.8 442.8 303.9 C 442.8 303.9 450 303.9 450 303.9 C 450 301.7 449 299 446.4 299 Z M 463.3 309.9 C 463.28 309.92 463.3 317.5 463.3 317.5 L 461.1 317.5 L 461.1 297.5 L 463.3 297.5 C 463.3 297.5 463.28 299.6 463.3 299.6 C 464.1 298.1 465.6 297.2 467.1 297.2 C 470.4 297.2 472.3 300.2 472.3 304.8 C 472.3 309.3 470.4 312.4 467.1 312.4 C 465.6 312.4 464.2 311.5 463.3 309.9 Z M 470 304.8 C 470 301.6 468.9 299.1 466.5 299.1 C 465.2 299.1 463.8 300.2 463.3 301.4 C 463.3 301.4 463.3 308.1 463.3 308.1 C 463.8 309.3 465.2 310.5 466.5 310.5 C 468.9 310.5 470 307.9 470 304.8 Z M 482.6 312 C 482.6 312 482.63 310.46 482.6 310.5 C 481.7 311.8 480.3 312.4 478.8 312.4 C 476.5 312.4 474.4 310.6 474.4 307.6 C 474.4 304.5 476.4 302.8 478.8 302.8 C 480.3 302.8 481.7 303.4 482.6 304.6 C 482.6 304.6 482.6 302.1 482.6 302.1 C 482.6 300.1 481.5 299 479.7 299 C 478.3 299 477.1 299.5 476 300.8 C 476 300.8 475.1 299.3 475.1 299.3 C 476.4 297.8 478.2 297.2 480 297.2 C 482.9 297.2 484.8 298.6 484.8 301.9 C 484.79 301.88 484.8 312 484.8 312 L 482.6 312 Z M 482.6 309 C 482.6 309 482.6 306.2 482.6 306.2 C 482 305 480.8 304.4 479.5 304.4 C 477.7 304.4 476.6 305.8 476.6 307.6 C 476.6 309.4 477.7 310.8 479.5 310.8 C 480.8 310.8 482 310.2 482.6 309 Z M 490.5 309.9 C 490.55 309.92 490.5 317.5 490.5 317.5 L 488.4 317.5 L 488.4 297.5 L 490.5 297.5 C 490.5 297.5 490.55 299.6 490.5 299.6 C 491.4 298.1 492.8 297.2 494.4 297.2 C 497.6 297.2 499.5 300.2 499.5 304.8 C 499.5 309.3 497.6 312.4 494.4 312.4 C 492.9 312.4 491.4 311.5 490.5 309.9 Z M 497.3 304.8 C 497.3 301.6 496.2 299.1 493.8 299.1 C 492.5 299.1 491.1 300.2 490.5 301.4 C 490.5 301.4 490.5 308.1 490.5 308.1 C 491.1 309.3 492.5 310.5 493.8 310.5 C 496.2 310.5 497.3 307.9 497.3 304.8 Z M 501.7 304.8 C 501.7 300.6 504 297.2 507.6 297.2 C 511.4 297.2 513.3 300.6 513.3 304.8 C 513.35 304.82 513.3 305.5 513.3 305.5 C 513.3 305.5 503.96 305.48 504 305.5 C 504 308.4 505.5 310.6 508.1 310.6 C 509.4 310.6 510.7 310 511.6 308.8 C 511.6 308.8 512.7 310.1 512.7 310.1 C 511.5 311.5 509.9 312.4 507.9 312.4 C 504.1 312.4 501.7 309.2 501.7 304.8 Z M 507.6 299 C 505 299 504 301.8 504 303.9 C 504 303.9 511.2 303.9 511.2 303.9 C 511.2 301.7 510.2 299 507.6 299 Z M 516.2 312 L 516.2 297.5 L 518.3 297.5 C 518.3 297.5 518.33 299.84 518.3 299.8 C 519.3 298.3 520.7 297.2 522.4 297.2 C 522.4 297.2 522.4 299.5 522.4 299.5 C 522.2 299.4 522 299.4 521.7 299.4 C 520.4 299.4 518.9 300.5 518.3 301.7 C 518.33 301.73 518.3 312 518.3 312 L 516.2 312 Z M 523.2 315.8 C 523.2 315.8 522.2 314.9 522.2 314.9 C 523.1 314.3 524 313.1 524.1 312.1 C 524 312.1 523.8 312.2 523.7 312.2 C 522.9 312.2 522.3 311.5 522.3 310.7 C 522.3 309.8 522.9 309.1 523.8 309.1 C 524.8 309.1 525.6 309.9 525.6 311.4 C 525.6 313.2 524.6 314.8 523.2 315.8 Z M 543.4 312 C 543.4 312 543.4 309.95 543.4 310 C 542.6 311.4 541.1 312.4 539.6 312.4 C 536.4 312.4 534.4 309.4 534.4 304.8 C 534.4 300.3 536.3 297.2 539.6 297.2 C 541.1 297.2 542.5 298 543.4 299.6 C 543.4 299.63 543.4 292 543.4 292 L 545.6 292 L 545.6 312 L 543.4 312 Z M 543.4 308.1 C 543.4 308.1 543.4 301.5 543.4 301.5 C 542.9 300.2 541.5 299.1 540.1 299.1 C 537.8 299.1 536.7 301.6 536.7 304.8 C 536.7 307.9 537.8 310.5 540.1 310.5 C 541.5 310.5 542.9 309.4 543.4 308.1 Z M 548.8 315.8 C 549.1 315.9 549.5 316 549.8 316 C 550.6 316 551.1 315.7 551.5 314.5 C 551.47 314.54 552.3 312.3 552.3 312.3 L 547.4 297.5 L 549.8 297.5 L 553.4 309.4 L 557 297.5 L 559.3 297.5 C 559.3 297.5 553.51 315.08 553.5 315.1 C 552.8 317.2 551.6 317.9 549.9 317.9 C 549.5 317.9 548.8 317.8 548.5 317.7 C 548.5 317.7 548.8 315.8 548.8 315.8 Z M 560.4 304.8 C 560.4 300.6 562.7 297.2 566.3 297.2 C 570.1 297.2 572.1 300.6 572.1 304.8 C 572.05 304.82 572.1 305.5 572.1 305.5 C 572.1 305.5 562.66 305.48 562.7 305.5 C 562.8 308.4 564.3 310.6 566.8 310.6 C 568.1 310.6 569.4 310 570.3 308.8 C 570.3 308.8 571.4 310.1 571.4 310.1 C 570.3 311.5 568.6 312.4 566.7 312.4 C 562.8 312.4 560.4 309.2 560.4 304.8 Z M 566.3 299 C 563.7 299 562.7 301.8 562.7 303.9 C 562.7 303.9 569.9 303.9 569.9 303.9 C 569.9 301.7 568.9 299 566.3 299 Z M 583.2 312 C 583.2 312 583.18 309.95 583.2 310 C 582.3 311.4 580.9 312.4 579.4 312.4 C 576.1 312.4 574.2 309.4 574.2 304.8 C 574.2 300.3 576.1 297.2 579.4 297.2 C 580.8 297.2 582.3 298 583.2 299.6 C 583.18 299.63 583.2 292 583.2 292 L 585.3 292 L 585.3 312 L 583.2 312 Z M 583.2 308.1 C 583.2 308.1 583.2 301.5 583.2 301.5 C 582.6 300.2 581.3 299.1 579.9 299.1 C 577.5 299.1 576.4 301.6 576.4 304.8 C 576.4 307.9 577.5 310.5 579.9 310.5 C 581.3 310.5 582.6 309.4 583.2 308.1 Z M 605.8 312 L 602.7 300.4 L 599.6 312 L 597.4 312 L 593.6 297.5 L 595.8 297.5 L 598.6 309.1 L 601.7 297.5 L 603.7 297.5 L 606.8 309.1 L 609.7 297.5 L 611.9 297.5 L 608.1 312 L 605.8 312 Z M 613.6 294 C 613.6 293.2 614.3 292.5 615 292.5 C 615.9 292.5 616.5 293.2 616.5 294 C 616.5 294.8 615.9 295.4 615 295.4 C 614.3 295.4 613.6 294.8 613.6 294 Z M 614 312 L 614 297.5 L 616.1 297.5 L 616.1 312 L 614 312 Z M 620.2 309.1 C 620.2 309.11 620.2 299.4 620.2 299.4 L 618.3 299.4 L 618.3 297.5 L 620.2 297.5 L 620.2 293.6 L 622.4 293.6 L 622.4 297.5 L 624.8 297.5 L 624.8 299.4 L 622.4 299.4 C 622.4 299.4 622.36 308.72 622.4 308.7 C 622.4 309.8 622.7 310.5 623.5 310.5 C 624.1 310.5 624.5 310.2 624.8 309.9 C 624.8 309.9 625.5 311.5 625.5 311.5 C 624.9 312 624.2 312.4 623.1 312.4 C 621.1 312.4 620.2 311.3 620.2 309.1 Z M 635.2 312 C 635.2 312 635.23 301.67 635.2 301.7 C 635.2 299.8 634.3 299.1 632.9 299.1 C 631.5 299.1 630.2 300.2 629.5 301.4 C 629.5 301.4 629.5 312 629.5 312 L 627.4 312 L 627.4 292 L 629.5 292 C 629.5 292 629.5 299.6 629.5 299.6 C 630.3 298.3 632 297.2 633.7 297.2 C 636.2 297.2 637.4 298.4 637.4 301 C 637.36 301.04 637.4 312 637.4 312 L 635.2 312 Z " stroke="none" fill="#efd8d3"/>  </g>  <g id="Polygon183245">    <path d="M 37.8 240 C 37.8 240 37.77 238.46 37.8 238.5 C 36.8 239.8 35.4 240.4 34 240.4 C 31.6 240.4 29.6 238.6 29.6 235.6 C 29.6 232.5 31.6 230.8 34 230.8 C 35.4 230.8 36.9 231.4 37.8 232.6 C 37.8 232.6 37.8 230.1 37.8 230.1 C 37.8 228.1 36.7 227 34.8 227 C 33.4 227 32.3 227.5 31.2 228.8 C 31.2 228.8 30.2 227.3 30.2 227.3 C 31.6 225.8 33.3 225.2 35.1 225.2 C 38 225.2 39.9 226.6 39.9 229.9 C 39.93 229.88 39.9 240 39.9 240 L 37.8 240 Z M 37.8 237 C 37.8 237 37.8 234.2 37.8 234.2 C 37.1 233 35.9 232.4 34.6 232.4 C 32.8 232.4 31.8 233.8 31.8 235.6 C 31.8 237.4 32.8 238.8 34.6 238.8 C 35.9 238.8 37.1 238.2 37.8 237 Z M 51.4 240 C 51.4 240 51.39 229.7 51.4 229.7 C 51.4 227.8 50.5 227.1 49.1 227.1 C 47.7 227.1 46.3 228.2 45.7 229.4 C 45.69 229.4 45.7 240 45.7 240 L 43.6 240 L 43.6 225.5 L 45.7 225.5 C 45.7 225.5 45.69 227.6 45.7 227.6 C 46.5 226.3 48.1 225.2 49.9 225.2 C 52.3 225.2 53.5 226.5 53.5 229.1 C 53.55 229.1 53.5 240 53.5 240 L 51.4 240 Z M 65.5 240 C 65.5 240 65.49 237.95 65.5 238 C 64.6 239.4 63.2 240.4 61.7 240.4 C 58.4 240.4 56.5 237.4 56.5 232.8 C 56.5 228.3 58.4 225.2 61.7 225.2 C 63.1 225.2 64.6 226 65.5 227.6 C 65.49 227.63 65.5 220 65.5 220 L 67.6 220 L 67.6 240 L 65.5 240 Z M 65.5 236.1 C 65.5 236.1 65.5 229.5 65.5 229.5 C 64.9 228.2 63.6 227.1 62.2 227.1 C 59.8 227.1 58.7 229.6 58.7 232.8 C 58.7 235.9 59.8 238.5 62.2 238.5 C 63.6 238.5 64.9 237.4 65.5 236.1 Z M 78 240 L 78 227.4 L 76 227.4 L 76 225.5 L 78 225.5 C 78 225.5 77.97 223.76 78 223.8 C 78 221.2 79.3 219.7 81.6 219.7 C 82.6 219.7 83.5 220 84.2 220.7 C 84.2 220.7 83.3 222.2 83.3 222.2 C 82.9 221.8 82.5 221.5 81.9 221.5 C 80.7 221.5 80.1 222.4 80.1 223.8 C 80.13 223.76 80.1 225.5 80.1 225.5 L 82.6 225.5 L 82.6 227.4 L 80.1 227.4 L 80.1 240 L 78 240 Z M 84.8 240 L 84.8 225.5 L 86.9 225.5 C 86.9 225.5 86.91 227.84 86.9 227.8 C 87.8 226.3 89.2 225.2 91 225.2 C 91 225.2 91 227.5 91 227.5 C 90.8 227.4 90.5 227.4 90.3 227.4 C 89 227.4 87.5 228.5 86.9 229.7 C 86.91 229.73 86.9 240 86.9 240 L 84.8 240 Z M 101 240 C 101 240 101.04 238.01 101 238 C 100.2 239.3 98.6 240.4 96.8 240.4 C 94.4 240.4 93.2 239.2 93.2 236.5 C 93.21 236.51 93.2 225.5 93.2 225.5 L 95.3 225.5 C 95.3 225.5 95.34 235.88 95.3 235.9 C 95.3 237.8 96.2 238.5 97.6 238.5 C 99.1 238.5 100.4 237.4 101 236.2 C 101.04 236.21 101 225.5 101 225.5 L 103.2 225.5 L 103.2 240 L 101 240 Z M 106.4 222 C 106.4 221.2 107.1 220.5 107.9 220.5 C 108.7 220.5 109.4 221.2 109.4 222 C 109.4 222.8 108.7 223.4 107.9 223.4 C 107.1 223.4 106.4 222.8 106.4 222 Z M 106.9 240 L 106.9 225.5 L 109 225.5 L 109 240 L 106.9 240 Z M 113.1 237.1 C 113.06 237.11 113.1 227.4 113.1 227.4 L 111.1 227.4 L 111.1 225.5 L 113.1 225.5 L 113.1 221.6 L 115.2 221.6 L 115.2 225.5 L 117.7 225.5 L 117.7 227.4 L 115.2 227.4 C 115.2 227.4 115.22 236.72 115.2 236.7 C 115.2 237.8 115.6 238.5 116.4 238.5 C 116.9 238.5 117.4 238.2 117.7 237.9 C 117.7 237.9 118.3 239.5 118.3 239.5 C 117.8 240 117.1 240.4 116 240.4 C 114 240.4 113.1 239.3 113.1 237.1 Z M 134.2 240 C 134.2 240 134.21 229.7 134.2 229.7 C 134.2 227.8 133.3 227.1 131.9 227.1 C 130.5 227.1 129.2 228.2 128.5 229.4 C 128.51 229.4 128.5 240 128.5 240 L 126.4 240 L 126.4 225.5 L 128.5 225.5 C 128.5 225.5 128.51 227.6 128.5 227.6 C 129.4 226.3 131 225.2 132.7 225.2 C 135.2 225.2 136.4 226.5 136.4 229.1 C 136.37 229.1 136.4 240 136.4 240 L 134.2 240 Z M 139.3 232.8 C 139.3 228.6 141.5 225.2 145.2 225.2 C 149 225.2 150.9 228.6 150.9 232.8 C 150.92 232.82 150.9 233.5 150.9 233.5 C 150.9 233.5 141.53 233.48 141.5 233.5 C 141.6 236.4 143.1 238.6 145.7 238.6 C 147 238.6 148.3 238 149.2 236.8 C 149.2 236.8 150.3 238.1 150.3 238.1 C 149.1 239.5 147.5 240.4 145.5 240.4 C 141.7 240.4 139.3 237.2 139.3 232.8 Z M 145.2 227 C 142.6 227 141.6 229.8 141.5 231.9 C 141.5 231.9 148.8 231.9 148.8 231.9 C 148.8 229.7 147.8 227 145.2 227 Z M 154.2 237.1 C 154.19 237.11 154.2 227.4 154.2 227.4 L 152.3 227.4 L 152.3 225.5 L 154.2 225.5 L 154.2 221.6 L 156.4 221.6 L 156.4 225.5 L 158.8 225.5 L 158.8 227.4 L 156.4 227.4 C 156.4 227.4 156.35 236.72 156.4 236.7 C 156.4 237.8 156.7 238.5 157.5 238.5 C 158.1 238.5 158.5 238.2 158.8 237.9 C 158.8 237.9 159.4 239.5 159.4 239.5 C 158.9 240 158.2 240.4 157.1 240.4 C 155.1 240.4 154.2 239.3 154.2 237.1 Z M 172.9 238.5 C 175.3 238.5 176.4 235.9 176.4 232.8 C 176.4 229.6 175.3 227.1 172.9 227.1 C 171.6 227.1 170.2 228.2 169.6 229.5 C 169.6 229.5 169.6 236.1 169.6 236.1 C 170.2 237.4 171.6 238.5 172.9 238.5 Z M 167.5 240 L 167.5 220 L 169.6 220 C 169.6 220 169.64 227.63 169.6 227.6 C 170.5 226 172 225.2 173.5 225.2 C 176.7 225.2 178.6 228.3 178.6 232.8 C 178.6 237.4 176.7 240.4 173.5 240.4 C 171.9 240.4 170.5 239.4 169.6 238 C 169.64 237.95 169.6 240 169.6 240 L 167.5 240 Z M 189.1 240 C 189.1 240 189.05 238.46 189.1 238.5 C 188.1 239.8 186.7 240.4 185.2 240.4 C 182.9 240.4 180.9 238.6 180.9 235.6 C 180.9 232.5 182.9 230.8 185.2 230.8 C 186.7 230.8 188.2 231.4 189.1 232.6 C 189.1 232.6 189.1 230.1 189.1 230.1 C 189.1 228.1 188 227 186.1 227 C 184.7 227 183.6 227.5 182.5 228.8 C 182.5 228.8 181.5 227.3 181.5 227.3 C 182.9 225.8 184.6 225.2 186.4 225.2 C 189.3 225.2 191.2 226.6 191.2 229.9 C 191.21 229.88 191.2 240 191.2 240 L 189.1 240 Z M 189.1 237 C 189.1 237 189.1 234.2 189.1 234.2 C 188.4 233 187.2 232.4 185.9 232.4 C 184.1 232.4 183.1 233.8 183.1 235.6 C 183.1 237.4 184.1 238.8 185.9 238.8 C 187.2 238.8 188.4 238.2 189.1 237 Z M 193.7 238.3 C 193.7 238.3 194.8 236.8 194.8 236.8 C 195.6 237.8 197 238.6 198.5 238.6 C 200.2 238.6 201.3 237.7 201.3 236.3 C 201.3 232.9 194.1 234.1 194.1 229.1 C 194.1 226.9 195.8 225.2 198.7 225.2 C 200.6 225.2 202.1 225.9 203.1 227 C 203.1 227 202.1 228.5 202.1 228.5 C 201.4 227.5 200.2 226.9 198.7 226.9 C 197.2 226.9 196.2 227.8 196.2 229 C 196.2 232.1 203.4 231 203.4 236.2 C 203.4 238.6 201.5 240.4 198.6 240.4 C 196.5 240.4 194.9 239.7 193.7 238.3 Z M 205.4 232.8 C 205.4 228.6 207.7 225.2 211.3 225.2 C 215.1 225.2 217 228.6 217 232.8 C 217.04 232.82 217 233.5 217 233.5 C 217 233.5 207.65 233.48 207.7 233.5 C 207.7 236.4 209.2 238.6 211.8 238.6 C 213.1 238.6 214.4 238 215.3 236.8 C 215.3 236.8 216.4 238.1 216.4 238.1 C 215.2 239.5 213.6 240.4 211.6 240.4 C 207.8 240.4 205.4 237.2 205.4 232.8 Z M 211.3 227 C 208.7 227 207.7 229.8 207.7 231.9 C 207.7 231.9 214.9 231.9 214.9 231.9 C 214.9 229.7 213.9 227 211.3 227 Z M 219.6 238.7 C 219.6 237.9 220.3 237.1 221.2 237.1 C 222.1 237.1 222.8 237.9 222.8 238.7 C 222.8 239.6 222.1 240.3 221.2 240.3 C 220.3 240.3 219.6 239.6 219.6 238.7 Z " stroke="none" fill="#efd8d3"/>  </g>  <g id="Polygon183244">    <path d="M 0.9 201.1 C 0.9 201.1 2.4 199.6 2.4 199.6 C 3.4 201.1 4.8 202.3 6.7 202.3 C 9.1 202.3 10.3 200.8 10.3 198.4 C 10.3 195.7 8.6 194.8 6.5 194.8 C 5.9 194.8 5.2 194.8 4.9 194.8 C 4.9 194.8 4.9 192.7 4.9 192.7 C 5.2 192.7 6 192.7 6.5 192.7 C 8.5 192.7 10.1 191.6 10.1 189.4 C 10.1 187 8.7 185.8 6.7 185.8 C 4.9 185.8 3.6 186.8 2.6 188.2 C 2.6 188.2 1.1 186.9 1.1 186.9 C 2.3 184.9 4.3 183.7 6.8 183.7 C 10.1 183.7 12.5 185.5 12.5 189 C 12.5 191.5 10.7 193.3 8.9 193.7 C 10.7 193.9 12.8 195.7 12.8 198.6 C 12.8 202 10.6 204.4 6.8 204.4 C 4 204.4 1.9 202.9 0.9 201.1 Z M 15.7 202.7 C 15.7 201.9 16.4 201.1 17.3 201.1 C 18.2 201.1 18.9 201.9 18.9 202.7 C 18.9 203.6 18.2 204.3 17.3 204.3 C 16.4 204.3 15.7 203.6 15.7 202.7 Z M 40.9 204 L 39.6 199.5 L 32.5 199.5 L 31.2 204 L 28.6 204 L 34.6 184 L 37.4 184 L 43.4 204 L 40.9 204 Z M 36 186.7 L 33 197.4 L 39.1 197.4 L 36 186.7 Z M 53.6 204 C 53.6 204 53.58 201.95 53.6 202 C 52.7 203.4 51.3 204.4 49.8 204.4 C 46.5 204.4 44.6 201.4 44.6 196.8 C 44.6 192.3 46.5 189.2 49.8 189.2 C 51.2 189.2 52.7 190 53.6 191.6 C 53.58 191.63 53.6 184 53.6 184 L 55.7 184 L 55.7 204 L 53.6 204 Z M 53.6 200.1 C 53.6 200.1 53.6 193.5 53.6 193.5 C 53 192.2 51.7 191.1 50.3 191.1 C 47.9 191.1 46.8 193.6 46.8 196.8 C 46.8 199.9 47.9 202.5 50.3 202.5 C 51.7 202.5 53 201.4 53.6 200.1 Z M 67.7 204 C 67.7 204 67.68 201.95 67.7 202 C 66.8 203.4 65.4 204.4 63.9 204.4 C 60.6 204.4 58.7 201.4 58.7 196.8 C 58.7 192.3 60.6 189.2 63.9 189.2 C 65.3 189.2 66.8 190 67.7 191.6 C 67.68 191.63 67.7 184 67.7 184 L 69.8 184 L 69.8 204 L 67.7 204 Z M 67.7 200.1 C 67.7 200.1 67.7 193.5 67.7 193.5 C 67.1 192.2 65.8 191.1 64.4 191.1 C 62 191.1 60.9 193.6 60.9 196.8 C 60.9 199.9 62 202.5 64.4 202.5 C 65.8 202.5 67.1 201.4 67.7 200.1 Z M 78.5 202.3 C 78.5 202.3 79.6 200.8 79.6 200.8 C 80.4 201.8 81.8 202.6 83.3 202.6 C 85 202.6 86.1 201.7 86.1 200.3 C 86.1 196.9 78.9 198.1 78.9 193.1 C 78.9 190.9 80.6 189.2 83.5 189.2 C 85.4 189.2 86.9 189.9 87.9 191 C 87.9 191 86.9 192.5 86.9 192.5 C 86.2 191.5 85 190.9 83.5 190.9 C 82 190.9 81 191.8 81 193 C 81 196.1 88.2 195 88.2 200.2 C 88.2 202.6 86.3 204.4 83.4 204.4 C 81.3 204.4 79.7 203.7 78.5 202.3 Z M 98.4 204 C 98.4 204 98.4 202.46 98.4 202.5 C 97.5 203.8 96.1 204.4 94.6 204.4 C 92.2 204.4 90.2 202.6 90.2 199.6 C 90.2 196.5 92.2 194.8 94.6 194.8 C 96.1 194.8 97.5 195.4 98.4 196.6 C 98.4 196.6 98.4 194.1 98.4 194.1 C 98.4 192.1 97.3 191 95.4 191 C 94.1 191 92.9 191.5 91.8 192.8 C 91.8 192.8 90.8 191.3 90.8 191.3 C 92.2 189.8 93.9 189.2 95.8 189.2 C 98.6 189.2 100.6 190.6 100.6 193.9 C 100.56 193.88 100.6 204 100.6 204 L 98.4 204 Z M 98.4 201 C 98.4 201 98.4 198.2 98.4 198.2 C 97.7 197 96.5 196.4 95.3 196.4 C 93.5 196.4 92.4 197.8 92.4 199.6 C 92.4 201.4 93.5 202.8 95.3 202.8 C 96.5 202.8 97.7 202.2 98.4 201 Z M 104.2 204 L 104.2 184 L 106.3 184 L 106.3 204 L 104.2 204 Z M 110.4 201.1 C 110.39 201.11 110.4 191.4 110.4 191.4 L 108.5 191.4 L 108.5 189.5 L 110.4 189.5 L 110.4 185.6 L 112.6 185.6 L 112.6 189.5 L 115 189.5 L 115 191.4 L 112.6 191.4 C 112.6 191.4 112.55 200.72 112.6 200.7 C 112.6 201.8 112.9 202.5 113.7 202.5 C 114.3 202.5 114.7 202.2 115 201.9 C 115 201.9 115.6 203.5 115.6 203.5 C 115.1 204 114.4 204.4 113.3 204.4 C 111.3 204.4 110.4 203.3 110.4 201.1 Z M 124.1 201.1 C 124.13 201.11 124.1 191.4 124.1 191.4 L 122.2 191.4 L 122.2 189.5 L 124.1 189.5 L 124.1 185.6 L 126.3 185.6 L 126.3 189.5 L 128.8 189.5 L 128.8 191.4 L 126.3 191.4 C 126.3 191.4 126.29 200.72 126.3 200.7 C 126.3 201.8 126.6 202.5 127.5 202.5 C 128 202.5 128.5 202.2 128.7 201.9 C 128.7 201.9 129.4 203.5 129.4 203.5 C 128.9 204 128.2 204.4 127 204.4 C 125.1 204.4 124.1 203.3 124.1 201.1 Z M 130.6 196.8 C 130.6 192.7 132.6 189.2 136.5 189.2 C 140.4 189.2 142.4 192.7 142.4 196.8 C 142.4 200.8 140.4 204.4 136.5 204.4 C 132.6 204.4 130.6 200.8 130.6 196.8 Z M 140.1 196.8 C 140.1 193.9 139 191.1 136.5 191.1 C 134 191.1 132.8 193.9 132.8 196.8 C 132.8 199.7 134 202.5 136.5 202.5 C 139 202.5 140.1 199.7 140.1 196.8 Z M 151.9 201.1 C 151.88 201.11 151.9 191.4 151.9 191.4 L 150 191.4 L 150 189.5 L 151.9 189.5 L 151.9 185.6 L 154 185.6 L 154 189.5 L 156.5 189.5 L 156.5 191.4 L 154 191.4 C 154 191.4 154.04 200.72 154 200.7 C 154 201.8 154.4 202.5 155.2 202.5 C 155.8 202.5 156.2 202.2 156.5 201.9 C 156.5 201.9 157.1 203.5 157.1 203.5 C 156.6 204 155.9 204.4 154.8 204.4 C 152.8 204.4 151.9 203.3 151.9 201.1 Z M 166.5 204 C 166.5 204 166.49 202.46 166.5 202.5 C 165.6 203.8 164.2 204.4 162.7 204.4 C 160.3 204.4 158.3 202.6 158.3 199.6 C 158.3 196.5 160.3 194.8 162.7 194.8 C 164.2 194.8 165.6 195.4 166.5 196.6 C 166.5 196.6 166.5 194.1 166.5 194.1 C 166.5 192.1 165.4 191 163.5 191 C 162.2 191 161 191.5 159.9 192.8 C 159.9 192.8 158.9 191.3 158.9 191.3 C 160.3 189.8 162 189.2 163.9 189.2 C 166.7 189.2 168.7 190.6 168.7 193.9 C 168.65 193.88 168.7 204 168.7 204 L 166.5 204 Z M 166.5 201 C 166.5 201 166.5 198.2 166.5 198.2 C 165.8 197 164.6 196.4 163.4 196.4 C 161.6 196.4 160.5 197.8 160.5 199.6 C 160.5 201.4 161.6 202.8 163.4 202.8 C 164.6 202.8 165.8 202.2 166.5 201 Z M 171.1 202.3 C 171.1 202.3 172.2 200.8 172.2 200.8 C 173 201.8 174.4 202.6 176 202.6 C 177.7 202.6 178.8 201.7 178.8 200.3 C 178.8 196.9 171.5 198.1 171.5 193.1 C 171.5 190.9 173.3 189.2 176.2 189.2 C 178.1 189.2 179.5 189.9 180.6 191 C 180.6 191 179.5 192.5 179.5 192.5 C 178.8 191.5 177.6 190.9 176.2 190.9 C 174.6 190.9 173.6 191.8 173.6 193 C 173.6 196.1 180.8 195 180.8 200.2 C 180.8 202.6 179 204.4 176 204.4 C 174 204.4 172.3 203.7 171.1 202.3 Z M 184 201.1 C 184.01 201.11 184 191.4 184 191.4 L 182.1 191.4 L 182.1 189.5 L 184 189.5 L 184 185.6 L 186.2 185.6 L 186.2 189.5 L 188.6 189.5 L 188.6 191.4 L 186.2 191.4 C 186.2 191.4 186.17 200.72 186.2 200.7 C 186.2 201.8 186.5 202.5 187.3 202.5 C 187.9 202.5 188.3 202.2 188.6 201.9 C 188.6 201.9 189.3 203.5 189.3 203.5 C 188.8 204 188 204.4 186.9 204.4 C 184.9 204.4 184 203.3 184 201.1 Z M 190.5 196.8 C 190.5 192.6 192.7 189.2 196.3 189.2 C 200.2 189.2 202.1 192.6 202.1 196.8 C 202.07 196.82 202.1 197.5 202.1 197.5 C 202.1 197.5 192.68 197.48 192.7 197.5 C 192.8 200.4 194.3 202.6 196.9 202.6 C 198.1 202.6 199.4 202 200.3 200.8 C 200.3 200.8 201.4 202.1 201.4 202.1 C 200.3 203.5 198.6 204.4 196.7 204.4 C 192.8 204.4 190.5 201.2 190.5 196.8 Z M 196.3 191 C 193.8 191 192.7 193.8 192.7 195.9 C 192.7 195.9 199.9 195.9 199.9 195.9 C 199.9 193.7 199 191 196.3 191 Z M 218.5 204 C 218.5 204 218.51 202.46 218.5 202.5 C 217.6 203.8 216.2 204.4 214.7 204.4 C 212.4 204.4 210.3 202.6 210.3 199.6 C 210.3 196.5 212.3 194.8 214.7 194.8 C 216.2 194.8 217.6 195.4 218.5 196.6 C 218.5 196.6 218.5 194.1 218.5 194.1 C 218.5 192.1 217.4 191 215.5 191 C 214.2 191 213 191.5 211.9 192.8 C 211.9 192.8 211 191.3 211 191.3 C 212.3 189.8 214 189.2 215.9 189.2 C 218.8 189.2 220.7 190.6 220.7 193.9 C 220.67 193.88 220.7 204 220.7 204 L 218.5 204 Z M 218.5 201 C 218.5 201 218.5 198.2 218.5 198.2 C 217.9 197 216.7 196.4 215.4 196.4 C 213.6 196.4 212.5 197.8 212.5 199.6 C 212.5 201.4 213.6 202.8 215.4 202.8 C 216.7 202.8 217.9 202.2 218.5 201 Z M 232.1 204 C 232.1 204 232.13 193.7 232.1 193.7 C 232.1 191.8 231.3 191.1 229.8 191.1 C 228.4 191.1 227.1 192.2 226.4 193.4 C 226.43 193.4 226.4 204 226.4 204 L 224.3 204 L 224.3 189.5 L 226.4 189.5 C 226.4 189.5 226.43 191.6 226.4 191.6 C 227.3 190.3 228.9 189.2 230.6 189.2 C 233.1 189.2 234.3 190.5 234.3 193.1 C 234.29 193.1 234.3 204 234.3 204 L 232.1 204 Z M 246.2 204 C 246.2 204 246.23 201.95 246.2 202 C 245.4 203.4 244 204.4 242.4 204.4 C 239.2 204.4 237.2 201.4 237.2 196.8 C 237.2 192.3 239.2 189.2 242.4 189.2 C 243.9 189.2 245.4 190 246.2 191.6 C 246.23 191.63 246.2 184 246.2 184 L 248.4 184 L 248.4 204 L 246.2 204 Z M 246.2 200.1 C 246.2 200.1 246.2 193.5 246.2 193.5 C 245.7 192.2 244.3 191.1 243 191.1 C 240.6 191.1 239.5 193.6 239.5 196.8 C 239.5 199.9 240.6 202.5 243 202.5 C 244.3 202.5 245.7 201.4 246.2 200.1 Z M 257 202.3 C 257 202.3 258.1 200.8 258.1 200.8 C 259 201.8 260.3 202.6 261.9 202.6 C 263.6 202.6 264.7 201.7 264.7 200.3 C 264.7 196.9 257.5 198.1 257.5 193.1 C 257.5 190.9 259.2 189.2 262.1 189.2 C 264 189.2 265.5 189.9 266.5 191 C 266.5 191 265.5 192.5 265.5 192.5 C 264.7 191.5 263.5 190.9 262.1 190.9 C 260.5 190.9 259.5 191.8 259.5 193 C 259.5 196.1 266.8 195 266.8 200.2 C 266.8 202.6 264.9 204.4 261.9 204.4 C 259.9 204.4 258.2 203.7 257 202.3 Z M 268.8 196.8 C 268.8 192.6 271 189.2 274.7 189.2 C 278.5 189.2 280.4 192.6 280.4 196.8 C 280.4 196.82 280.4 197.5 280.4 197.5 C 280.4 197.5 271.01 197.48 271 197.5 C 271.1 200.4 272.6 202.6 275.2 202.6 C 276.4 202.6 277.7 202 278.6 200.8 C 278.6 200.8 279.8 202.1 279.8 202.1 C 278.6 203.5 277 204.4 275 204.4 C 271.1 204.4 268.8 201.2 268.8 196.8 Z M 274.6 191 C 272.1 191 271.1 193.8 271 195.9 C 271 195.9 278.3 195.9 278.3 195.9 C 278.2 193.7 277.3 191 274.6 191 Z M 283.3 204 L 283.3 189.5 L 285.4 189.5 C 285.4 189.5 285.38 191.84 285.4 191.8 C 286.3 190.3 287.7 189.2 289.5 189.2 C 289.5 189.2 289.5 191.5 289.5 191.5 C 289.3 191.4 289 191.4 288.8 191.4 C 287.5 191.4 286 192.5 285.4 193.7 C 285.38 193.73 285.4 204 285.4 204 L 283.3 204 Z M 294.6 204 L 289.9 189.5 L 292.2 189.5 L 295.8 201.5 L 299.4 189.5 L 301.8 189.5 L 297 204 L 294.6 204 Z M 302.9 196.8 C 302.9 192.6 305.1 189.2 308.8 189.2 C 312.6 189.2 314.5 192.6 314.5 196.8 C 314.51 196.82 314.5 197.5 314.5 197.5 C 314.5 197.5 305.12 197.48 305.1 197.5 C 305.2 200.4 306.7 202.6 309.3 202.6 C 310.5 202.6 311.8 202 312.7 200.8 C 312.7 200.8 313.9 202.1 313.9 202.1 C 312.7 203.5 311.1 204.4 309.1 204.4 C 305.2 204.4 302.9 201.2 302.9 196.8 Z M 308.7 191 C 306.2 191 305.2 193.8 305.1 195.9 C 305.1 195.9 312.4 195.9 312.4 195.9 C 312.3 193.7 311.4 191 308.7 191 Z M 322.8 196.8 C 322.8 192.7 324.8 189.2 328.7 189.2 C 332.6 189.2 334.6 192.7 334.6 196.8 C 334.6 200.8 332.6 204.4 328.7 204.4 C 324.8 204.4 322.8 200.8 322.8 196.8 Z M 332.3 196.8 C 332.3 193.9 331.2 191.1 328.7 191.1 C 326.2 191.1 325 193.9 325 196.8 C 325 199.7 326.2 202.5 328.7 202.5 C 331.2 202.5 332.3 199.7 332.3 196.8 Z M 345.3 204 C 345.3 204 345.35 193.7 345.3 193.7 C 345.3 191.8 344.5 191.1 343 191.1 C 341.6 191.1 340.3 192.2 339.6 193.4 C 339.65 193.4 339.6 204 339.6 204 L 337.5 204 L 337.5 189.5 L 339.6 189.5 C 339.6 189.5 339.65 191.6 339.6 191.6 C 340.5 190.3 342.1 189.2 343.8 189.2 C 346.3 189.2 347.5 190.5 347.5 193.1 C 347.51 193.1 347.5 204 347.5 204 L 345.3 204 Z M 357.7 201.1 C 357.74 201.11 357.7 191.4 357.7 191.4 L 355.8 191.4 L 355.8 189.5 L 357.7 189.5 L 357.7 185.6 L 359.9 185.6 L 359.9 189.5 L 362.4 189.5 L 362.4 191.4 L 359.9 191.4 C 359.9 191.4 359.9 200.72 359.9 200.7 C 359.9 201.8 360.2 202.5 361.1 202.5 C 361.6 202.5 362.1 202.2 362.3 201.9 C 362.3 201.9 363 203.5 363 203.5 C 362.5 204 361.8 204.4 360.6 204.4 C 358.7 204.4 357.7 203.3 357.7 201.1 Z M 364.2 196.8 C 364.2 192.7 366.2 189.2 370.1 189.2 C 374 189.2 376 192.7 376 196.8 C 376 200.8 374 204.4 370.1 204.4 C 366.2 204.4 364.2 200.8 364.2 196.8 Z M 373.7 196.8 C 373.7 193.9 372.6 191.1 370.1 191.1 C 367.6 191.1 366.4 193.9 366.4 196.8 C 366.4 199.7 367.6 202.5 370.1 202.5 C 372.6 202.5 373.7 199.7 373.7 196.8 Z M 381 201.9 C 381.05 201.92 381 209.5 381 209.5 L 378.9 209.5 L 378.9 189.5 L 381 189.5 C 381 189.5 381.05 191.6 381 191.6 C 381.9 190.1 383.3 189.2 384.9 189.2 C 388.1 189.2 390 192.2 390 196.8 C 390 201.3 388.1 204.4 384.9 204.4 C 383.4 204.4 381.9 203.5 381 201.9 Z M 387.8 196.8 C 387.8 193.6 386.7 191.1 384.3 191.1 C 383 191.1 381.6 192.2 381 193.4 C 381 193.4 381 200.1 381 200.1 C 381.6 201.3 383 202.5 384.3 202.5 C 386.7 202.5 387.8 199.9 387.8 196.8 Z M 398.4 196.8 C 398.4 192.7 400.4 189.2 404.3 189.2 C 408.2 189.2 410.2 192.7 410.2 196.8 C 410.2 200.8 408.2 204.4 404.3 204.4 C 400.4 204.4 398.4 200.8 398.4 196.8 Z M 407.9 196.8 C 407.9 193.9 406.8 191.1 404.3 191.1 C 401.8 191.1 400.6 193.9 400.6 196.8 C 400.6 199.7 401.8 202.5 404.3 202.5 C 406.8 202.5 407.9 199.7 407.9 196.8 Z M 413.6 204 L 413.6 191.4 L 411.7 191.4 L 411.7 189.5 L 413.6 189.5 C 413.6 189.5 413.63 187.76 413.6 187.8 C 413.6 185.2 415 183.7 417.3 183.7 C 418.2 183.7 419.1 184 419.8 184.7 C 419.8 184.7 419 186.2 419 186.2 C 418.6 185.8 418.2 185.5 417.6 185.5 C 416.4 185.5 415.8 186.4 415.8 187.8 C 415.79 187.76 415.8 189.5 415.8 189.5 L 418.2 189.5 L 418.2 191.4 L 415.8 191.4 L 415.8 204 L 413.6 204 Z M 427 201.1 C 427.01 201.11 427 191.4 427 191.4 L 425.1 191.4 L 425.1 189.5 L 427 189.5 L 427 185.6 L 429.2 185.6 L 429.2 189.5 L 431.6 189.5 L 431.6 191.4 L 429.2 191.4 C 429.2 191.4 429.17 200.72 429.2 200.7 C 429.2 201.8 429.5 202.5 430.3 202.5 C 430.9 202.5 431.3 202.2 431.6 201.9 C 431.6 201.9 432.3 203.5 432.3 203.5 C 431.7 204 431 204.4 429.9 204.4 C 427.9 204.4 427 203.3 427 201.1 Z M 442 204 C 442 204 442.04 193.67 442 193.7 C 442 191.8 441.1 191.1 439.7 191.1 C 438.3 191.1 437 192.2 436.3 193.4 C 436.31 193.4 436.3 204 436.3 204 L 434.2 204 L 434.2 184 L 436.3 184 C 436.3 184 436.31 191.6 436.3 191.6 C 437.1 190.3 438.8 189.2 440.5 189.2 C 443 189.2 444.2 190.4 444.2 193 C 444.17 193.04 444.2 204 444.2 204 L 442 204 Z M 447.1 196.8 C 447.1 192.6 449.3 189.2 453 189.2 C 456.8 189.2 458.7 192.6 458.7 196.8 C 458.72 196.82 458.7 197.5 458.7 197.5 C 458.7 197.5 449.33 197.48 449.3 197.5 C 449.4 200.4 450.9 202.6 453.5 202.6 C 454.8 202.6 456 202 456.9 200.8 C 456.9 200.8 458.1 202.1 458.1 202.1 C 456.9 203.5 455.3 204.4 453.3 204.4 C 449.4 204.4 447.1 201.2 447.1 196.8 Z M 453 191 C 450.4 191 449.4 193.8 449.3 195.9 C 449.3 195.9 456.6 195.9 456.6 195.9 C 456.6 193.7 455.6 191 453 191 Z M 466.5 202.3 C 466.5 202.3 467.6 200.8 467.6 200.8 C 468.5 201.8 469.8 202.6 471.4 202.6 C 473.1 202.6 474.2 201.7 474.2 200.3 C 474.2 196.9 467 198.1 467 193.1 C 467 190.9 468.7 189.2 471.6 189.2 C 473.5 189.2 475 189.9 476 191 C 476 191 475 192.5 475 192.5 C 474.3 191.5 473 190.9 471.6 190.9 C 470 190.9 469 191.8 469 193 C 469 196.1 476.3 195 476.3 200.2 C 476.3 202.6 474.4 204.4 471.4 204.4 C 469.4 204.4 467.7 203.7 466.5 202.3 Z M 478.3 196.8 C 478.3 192.6 480.5 189.2 484.2 189.2 C 488 189.2 489.9 192.6 489.9 196.8 C 489.92 196.82 489.9 197.5 489.9 197.5 C 489.9 197.5 480.53 197.48 480.5 197.5 C 480.6 200.4 482.1 202.6 484.7 202.6 C 486 202.6 487.2 202 488.1 200.8 C 488.1 200.8 489.3 202.1 489.3 202.1 C 488.1 203.5 486.5 204.4 484.5 204.4 C 480.6 204.4 478.3 201.2 478.3 196.8 Z M 484.2 191 C 481.6 191 480.6 193.8 480.5 195.9 C 480.5 195.9 487.8 195.9 487.8 195.9 C 487.8 193.7 486.8 191 484.2 191 Z M 500.2 204 C 500.2 204 500.21 202.46 500.2 202.5 C 499.3 203.8 497.9 204.4 496.4 204.4 C 494.1 204.4 492 202.6 492 199.6 C 492 196.5 494 194.8 496.4 194.8 C 497.9 194.8 499.3 195.4 500.2 196.6 C 500.2 196.6 500.2 194.1 500.2 194.1 C 500.2 192.1 499.1 191 497.2 191 C 495.9 191 494.7 191.5 493.6 192.8 C 493.6 192.8 492.6 191.3 492.6 191.3 C 494 189.8 495.7 189.2 497.6 189.2 C 500.4 189.2 502.4 190.6 502.4 193.9 C 502.37 193.88 502.4 204 502.4 204 L 500.2 204 Z M 500.2 201 C 500.2 201 500.2 198.2 500.2 198.2 C 499.5 197 498.3 196.4 497.1 196.4 C 495.3 196.4 494.2 197.8 494.2 199.6 C 494.2 201.4 495.3 202.8 497.1 202.8 C 498.3 202.8 499.5 202.2 500.2 201 Z M 506 204 L 506 189.5 L 508.1 189.5 C 508.1 189.5 508.13 191.84 508.1 191.8 C 509.1 190.3 510.5 189.2 512.2 189.2 C 512.2 189.2 512.2 191.5 512.2 191.5 C 512 191.4 511.8 191.4 511.5 191.4 C 510.2 191.4 508.7 192.5 508.1 193.7 C 508.13 193.73 508.1 204 508.1 204 L 506 204 Z M 513.7 196.8 C 513.7 192.6 515.9 189.2 519.6 189.2 C 523.4 189.2 525.3 192.6 525.3 196.8 C 525.31 196.82 525.3 197.5 525.3 197.5 C 525.3 197.5 515.92 197.48 515.9 197.5 C 516 200.4 517.5 202.6 520.1 202.6 C 521.4 202.6 522.6 202 523.5 200.8 C 523.5 200.8 524.7 202.1 524.7 202.1 C 523.5 203.5 521.9 204.4 519.9 204.4 C 516 204.4 513.7 201.2 513.7 196.8 Z M 519.6 191 C 517 191 516 193.8 515.9 195.9 C 515.9 195.9 523.2 195.9 523.2 195.9 C 523.2 193.7 522.2 191 519.6 191 Z M 536.4 204 C 536.4 204 536.44 201.95 536.4 202 C 535.6 203.4 534.2 204.4 532.6 204.4 C 529.4 204.4 527.4 201.4 527.4 196.8 C 527.4 192.3 529.4 189.2 532.6 189.2 C 534.1 189.2 535.6 190 536.4 191.6 C 536.44 191.63 536.4 184 536.4 184 L 538.6 184 L 538.6 204 L 536.4 204 Z M 536.4 200.1 C 536.4 200.1 536.4 193.5 536.4 193.5 C 535.9 192.2 534.6 191.1 533.2 191.1 C 530.8 191.1 529.7 193.6 529.7 196.8 C 529.7 199.9 530.8 202.5 533.2 202.5 C 534.6 202.5 535.9 201.4 536.4 200.1 Z M 548.8 201.1 C 548.83 201.11 548.8 191.4 548.8 191.4 L 546.9 191.4 L 546.9 189.5 L 548.8 189.5 L 548.8 185.6 L 551 185.6 L 551 189.5 L 553.5 189.5 L 553.5 191.4 L 551 191.4 C 551 191.4 550.99 200.72 551 200.7 C 551 201.8 551.3 202.5 552.2 202.5 C 552.7 202.5 553.2 202.2 553.4 201.9 C 553.4 201.9 554.1 203.5 554.1 203.5 C 553.6 204 552.9 204.4 551.7 204.4 C 549.8 204.4 548.8 203.3 548.8 201.1 Z M 563.4 204 C 563.4 204 563.44 202.46 563.4 202.5 C 562.5 203.8 561.1 204.4 559.6 204.4 C 557.3 204.4 555.3 202.6 555.3 199.6 C 555.3 196.5 557.3 194.8 559.6 194.8 C 561.1 194.8 562.5 195.4 563.4 196.6 C 563.4 196.6 563.4 194.1 563.4 194.1 C 563.4 192.1 562.4 191 560.5 191 C 559.1 191 558 191.5 556.8 192.8 C 556.8 192.8 555.9 191.3 555.9 191.3 C 557.3 189.8 559 189.2 560.8 189.2 C 563.7 189.2 565.6 190.6 565.6 193.9 C 565.6 193.88 565.6 204 565.6 204 L 563.4 204 Z M 563.4 201 C 563.4 201 563.4 198.2 563.4 198.2 C 562.8 197 561.6 196.4 560.3 196.4 C 558.5 196.4 557.4 197.8 557.4 199.6 C 557.4 201.4 558.5 202.8 560.3 202.8 C 561.6 202.8 562.8 202.2 563.4 201 Z M 569.2 204 L 569.2 184 L 571.4 184 L 571.4 204 L 569.2 204 Z M 574.3 196.8 C 574.3 192.5 576.6 189.2 580.3 189.2 C 582.3 189.2 583.5 190 584.4 191.1 C 584.4 191.1 583.3 192.6 583.3 192.6 C 582.5 191.5 581.6 191.1 580.5 191.1 C 577.9 191.1 576.6 193.7 576.6 196.8 C 576.6 199.9 577.9 202.5 580.5 202.5 C 581.6 202.5 582.5 202 583.3 201 C 583.3 201 584.4 202.5 584.4 202.5 C 583.5 203.6 582.3 204.4 580.3 204.4 C 576.6 204.4 574.3 201.1 574.3 196.8 Z M 594.7 204 C 594.7 204 594.73 202.01 594.7 202 C 593.9 203.3 592.3 204.4 590.5 204.4 C 588.1 204.4 586.9 203.2 586.9 200.5 C 586.9 200.51 586.9 189.5 586.9 189.5 L 589 189.5 C 589 189.5 589.03 199.88 589 199.9 C 589 201.8 589.9 202.5 591.3 202.5 C 592.8 202.5 594.1 201.4 594.7 200.2 C 594.73 200.21 594.7 189.5 594.7 189.5 L 596.9 189.5 L 596.9 204 L 594.7 204 Z M 615.2 204 C 615.2 204 615.19 193.52 615.2 193.5 C 615.2 192 614.6 191.1 613.2 191.1 C 611.9 191.1 610.6 192.2 610 193.4 C 610.03 193.4 610 204 610 204 L 607.9 204 C 607.9 204 607.87 193.52 607.9 193.5 C 607.9 192 607.2 191.1 605.8 191.1 C 604.5 191.1 603.3 192.2 602.7 193.4 C 602.68 193.4 602.7 204 602.7 204 L 600.6 204 L 600.6 189.5 L 602.7 189.5 C 602.7 189.5 602.68 191.6 602.7 191.6 C 603.3 190.5 604.9 189.2 606.6 189.2 C 608.5 189.2 609.6 190.2 609.9 191.8 C 610.6 190.4 612.3 189.2 614 189.2 C 616.1 189.2 617.4 190.3 617.4 193 C 617.35 192.95 617.4 204 617.4 204 L 615.2 204 Z " stroke="none" fill="#efd8d3"/>  </g>  <g id="Polygon183243">    <path d="M 45 132 C 45 132 44.97 121.52 45 121.5 C 45 120 44.3 119.1 43 119.1 C 41.7 119.1 40.4 120.2 39.8 121.4 C 39.81 121.4 39.8 132 39.8 132 L 37.6 132 C 37.6 132 37.65 121.52 37.6 121.5 C 37.6 120 37 119.1 35.6 119.1 C 34.3 119.1 33.1 120.2 32.5 121.4 C 32.46 121.4 32.5 132 32.5 132 L 30.3 132 L 30.3 117.5 L 32.5 117.5 C 32.5 117.5 32.46 119.6 32.5 119.6 C 33.1 118.5 34.7 117.2 36.4 117.2 C 38.3 117.2 39.4 118.2 39.7 119.8 C 40.4 118.4 42 117.2 43.8 117.2 C 45.9 117.2 47.1 118.3 47.1 121 C 47.13 120.95 47.1 132 47.1 132 L 45 132 Z M 50.1 124.8 C 50.1 120.6 52.3 117.2 55.9 117.2 C 59.8 117.2 61.7 120.6 61.7 124.8 C 61.68 124.82 61.7 125.5 61.7 125.5 C 61.7 125.5 52.29 125.48 52.3 125.5 C 52.4 128.4 53.9 130.6 56.5 130.6 C 57.7 130.6 59 130 59.9 128.8 C 59.9 128.8 61 130.1 61 130.1 C 59.9 131.5 58.2 132.4 56.3 132.4 C 52.4 132.4 50.1 129.2 50.1 124.8 Z M 55.9 119 C 53.4 119 52.3 121.8 52.3 123.9 C 52.3 123.9 59.5 123.9 59.5 123.9 C 59.5 121.7 58.6 119 55.9 119 Z M 64.9 129.1 C 64.95 129.11 64.9 119.4 64.9 119.4 L 63 119.4 L 63 117.5 L 64.9 117.5 L 64.9 113.6 L 67.1 113.6 L 67.1 117.5 L 69.6 117.5 L 69.6 119.4 L 67.1 119.4 C 67.1 119.4 67.11 128.72 67.1 128.7 C 67.1 129.8 67.4 130.5 68.3 130.5 C 68.8 130.5 69.3 130.2 69.5 129.9 C 69.5 129.9 70.2 131.5 70.2 131.5 C 69.7 132 69 132.4 67.9 132.4 C 65.9 132.4 64.9 131.3 64.9 129.1 Z M 80 132 C 80 132 79.98 121.67 80 121.7 C 80 119.8 79.1 119.1 77.6 119.1 C 76.2 119.1 74.9 120.2 74.2 121.4 C 74.25 121.4 74.2 132 74.2 132 L 72.1 132 L 72.1 112 L 74.2 112 C 74.2 112 74.25 119.6 74.2 119.6 C 75.1 118.3 76.7 117.2 78.5 117.2 C 80.9 117.2 82.1 118.4 82.1 121 C 82.11 121.04 82.1 132 82.1 132 L 80 132 Z M 85.3 135.8 C 85.6 135.9 86.1 136 86.3 136 C 87.1 136 87.6 135.7 88 134.5 C 88.02 134.54 88.8 132.3 88.8 132.3 L 84 117.5 L 86.3 117.5 L 89.9 129.4 L 93.5 117.5 L 95.8 117.5 C 95.8 117.5 90.06 135.08 90.1 135.1 C 89.3 137.2 88.2 137.9 86.5 137.9 C 86 137.9 85.3 137.8 85 137.7 C 85 137.7 85.3 135.8 85.3 135.8 Z M 97.7 132 L 97.7 112 L 99.8 112 L 99.8 132 L 97.7 132 Z M 109.2 114 C 109.2 113.2 109.9 112.5 110.7 112.5 C 111.5 112.5 112.2 113.2 112.2 114 C 112.2 114.8 111.5 115.4 110.7 115.4 C 109.9 115.4 109.2 114.8 109.2 114 Z M 109.6 132 L 109.6 117.5 L 111.8 117.5 L 111.8 132 L 109.6 132 Z M 114.3 130.3 C 114.3 130.3 115.3 128.8 115.3 128.8 C 116.2 129.8 117.6 130.6 119.1 130.6 C 120.8 130.6 121.9 129.7 121.9 128.3 C 121.9 124.9 114.7 126.1 114.7 121.1 C 114.7 118.9 116.4 117.2 119.3 117.2 C 121.2 117.2 122.7 117.9 123.7 119 C 123.7 119 122.7 120.5 122.7 120.5 C 122 119.5 120.7 118.9 119.3 118.9 C 117.7 118.9 116.8 119.8 116.8 121 C 116.8 124.1 124 123 124 128.2 C 124 130.6 122.1 132.4 119.2 132.4 C 117.1 132.4 115.5 131.7 114.3 130.3 Z M 126 124.8 C 126 120.7 128.1 117.2 131.9 117.2 C 135.8 117.2 137.8 120.7 137.8 124.8 C 137.8 128.8 135.8 132.4 131.9 132.4 C 128.1 132.4 126 128.8 126 124.8 Z M 135.6 124.8 C 135.6 121.9 134.5 119.1 131.9 119.1 C 129.4 119.1 128.3 121.9 128.3 124.8 C 128.3 127.7 129.4 130.5 131.9 130.5 C 134.5 130.5 135.6 127.7 135.6 124.8 Z M 141.2 129.1 C 141.17 129.11 141.2 119.4 141.2 119.4 L 139.3 119.4 L 139.3 117.5 L 141.2 117.5 L 141.2 113.6 L 143.3 113.6 L 143.3 117.5 L 145.8 117.5 L 145.8 119.4 L 143.3 119.4 C 143.3 119.4 143.33 128.72 143.3 128.7 C 143.3 129.8 143.7 130.5 144.5 130.5 C 145 130.5 145.5 130.2 145.8 129.9 C 145.8 129.9 146.4 131.5 146.4 131.5 C 145.9 132 145.2 132.4 144.1 132.4 C 142.1 132.4 141.2 131.3 141.2 129.1 Z M 156.2 132 C 156.2 132 156.2 121.67 156.2 121.7 C 156.2 119.8 155.3 119.1 153.9 119.1 C 152.5 119.1 151.1 120.2 150.5 121.4 C 150.47 121.4 150.5 132 150.5 132 L 148.3 132 L 148.3 112 L 150.5 112 C 150.5 112 150.47 119.6 150.5 119.6 C 151.3 118.3 153 117.2 154.7 117.2 C 157.2 117.2 158.3 118.4 158.3 121 C 158.33 121.04 158.3 132 158.3 132 L 156.2 132 Z M 161.6 114 C 161.6 113.2 162.3 112.5 163 112.5 C 163.9 112.5 164.5 113.2 164.5 114 C 164.5 114.8 163.9 115.4 163 115.4 C 162.3 115.4 161.6 114.8 161.6 114 Z M 162 132 L 162 117.5 L 164.1 117.5 L 164.1 132 L 162 132 Z M 167.1 124.8 C 167.1 120.7 169.1 117.2 172.9 117.2 C 176.8 117.2 178.9 120.7 178.9 124.8 C 178.9 128.8 176.8 132.4 172.9 132.4 C 169.1 132.4 167.1 128.8 167.1 124.8 Z M 176.6 124.8 C 176.6 121.9 175.5 119.1 172.9 119.1 C 170.5 119.1 169.3 121.9 169.3 124.8 C 169.3 127.7 170.5 130.5 172.9 130.5 C 175.5 130.5 176.6 127.7 176.6 124.8 Z M 181.1 124.8 C 181.1 120.5 183.4 117.2 187.1 117.2 C 189.1 117.2 190.3 118 191.2 119.1 C 191.2 119.1 190 120.6 190 120.6 C 189.3 119.5 188.4 119.1 187.3 119.1 C 184.7 119.1 183.3 121.7 183.3 124.8 C 183.3 127.9 184.7 130.5 187.3 130.5 C 188.4 130.5 189.3 130 190 129 C 190 129 191.2 130.5 191.2 130.5 C 190.3 131.6 189.1 132.4 187.1 132.4 C 183.4 132.4 181.1 129.1 181.1 124.8 Z M 193.3 135.8 C 193.5 135.9 194 136 194.2 136 C 195.1 136 195.5 135.7 195.9 134.5 C 195.92 134.54 196.7 132.3 196.7 132.3 L 191.9 117.5 L 194.2 117.5 L 197.8 129.4 L 201.4 117.5 L 203.8 117.5 C 203.8 117.5 197.96 135.08 198 135.1 C 197.2 137.2 196.1 137.9 194.4 137.9 C 193.9 137.9 193.3 137.8 192.9 137.7 C 192.9 137.7 193.3 135.8 193.3 135.8 Z M 213.1 132 C 213.1 132 213.05 130.46 213.1 130.5 C 212.1 131.8 210.7 132.4 209.2 132.4 C 206.9 132.4 204.9 130.6 204.9 127.6 C 204.9 124.5 206.9 122.8 209.2 122.8 C 210.7 122.8 212.2 123.4 213.1 124.6 C 213.1 124.6 213.1 122.1 213.1 122.1 C 213.1 120.1 212 119 210.1 119 C 208.7 119 207.6 119.5 206.5 120.8 C 206.5 120.8 205.5 119.3 205.5 119.3 C 206.9 117.8 208.6 117.2 210.4 117.2 C 213.3 117.2 215.2 118.6 215.2 121.9 C 215.21 121.88 215.2 132 215.2 132 L 213.1 132 Z M 213.1 129 C 213.1 129 213.1 126.2 213.1 126.2 C 212.4 125 211.2 124.4 209.9 124.4 C 208.1 124.4 207.1 125.8 207.1 127.6 C 207.1 129.4 208.1 130.8 209.9 130.8 C 211.2 130.8 212.4 130.2 213.1 129 Z M 226.7 132 C 226.7 132 226.67 121.7 226.7 121.7 C 226.7 119.8 225.8 119.1 224.4 119.1 C 223 119.1 221.6 120.2 221 121.4 C 220.97 121.4 221 132 221 132 L 218.8 132 L 218.8 117.5 L 221 117.5 C 221 117.5 220.97 119.6 221 119.6 C 221.8 118.3 223.4 117.2 225.2 117.2 C 227.6 117.2 228.8 118.5 228.8 121.1 C 228.83 121.1 228.8 132 228.8 132 L 226.7 132 Z M 239.9 132 C 239.9 132 239.93 130.46 239.9 130.5 C 239 131.8 237.6 132.4 236.1 132.4 C 233.8 132.4 231.7 130.6 231.7 127.6 C 231.7 124.5 233.8 122.8 236.1 122.8 C 237.6 122.8 239 123.4 239.9 124.6 C 239.9 124.6 239.9 122.1 239.9 122.1 C 239.9 120.1 238.9 119 237 119 C 235.6 119 234.4 119.5 233.3 120.8 C 233.3 120.8 232.4 119.3 232.4 119.3 C 233.8 117.8 235.5 117.2 237.3 117.2 C 240.2 117.2 242.1 118.6 242.1 121.9 C 242.09 121.88 242.1 132 242.1 132 L 239.9 132 Z M 239.9 129 C 239.9 129 239.9 126.2 239.9 126.2 C 239.3 125 238.1 124.4 236.8 124.4 C 235 124.4 233.9 125.8 233.9 127.6 C 233.9 129.4 235 130.8 236.8 130.8 C 238.1 130.8 239.3 130.2 239.9 129 Z M 246.1 129.1 C 246.14 129.11 246.1 119.4 246.1 119.4 L 244.2 119.4 L 244.2 117.5 L 246.1 117.5 L 246.1 113.6 L 248.3 113.6 L 248.3 117.5 L 250.8 117.5 L 250.8 119.4 L 248.3 119.4 C 248.3 119.4 248.3 128.72 248.3 128.7 C 248.3 129.8 248.6 130.5 249.5 130.5 C 250 130.5 250.5 130.2 250.7 129.9 C 250.7 129.9 251.4 131.5 251.4 131.5 C 250.9 132 250.2 132.4 249.1 132.4 C 247.1 132.4 246.1 131.3 246.1 129.1 Z M 252.6 124.8 C 252.6 120.6 254.8 117.2 258.5 117.2 C 262.3 117.2 264.2 120.6 264.2 124.8 C 264.2 124.82 264.2 125.5 264.2 125.5 C 264.2 125.5 254.81 125.48 254.8 125.5 C 254.9 128.4 256.4 130.6 259 130.6 C 260.2 130.6 261.5 130 262.4 128.8 C 262.4 128.8 263.6 130.1 263.6 130.1 C 262.4 131.5 260.8 132.4 258.8 132.4 C 254.9 132.4 252.6 129.2 252.6 124.8 Z M 258.4 119 C 255.9 119 254.9 121.8 254.8 123.9 C 254.8 123.9 262.1 123.9 262.1 123.9 C 262 121.7 261.1 119 258.4 119 Z M 266.8 130.7 C 266.8 129.9 267.5 129.1 268.4 129.1 C 269.2 129.1 270 129.9 270 130.7 C 270 131.6 269.2 132.3 268.4 132.3 C 267.5 132.3 266.8 131.6 266.8 130.7 Z M 291.6 132 L 288.3 116.2 L 285.1 132 L 282.6 132 L 278.1 112 L 280.7 112 L 283.9 128.3 L 287.4 112 L 289.4 112 L 292.8 128.3 L 296.1 112 L 298.6 112 L 294.2 132 L 291.6 132 Z M 308.6 132 C 308.6 132 308.63 121.67 308.6 121.7 C 308.6 119.8 307.7 119.1 306.3 119.1 C 304.9 119.1 303.6 120.2 302.9 121.4 C 302.9 121.4 302.9 132 302.9 132 L 300.8 132 L 300.8 112 L 302.9 112 C 302.9 112 302.9 119.6 302.9 119.6 C 303.7 118.3 305.4 117.2 307.1 117.2 C 309.6 117.2 310.8 118.4 310.8 121 C 310.76 121.04 310.8 132 310.8 132 L 308.6 132 Z M 314 114 C 314 113.2 314.7 112.5 315.5 112.5 C 316.3 112.5 316.9 113.2 316.9 114 C 316.9 114.8 316.3 115.4 315.5 115.4 C 314.7 115.4 314 114.8 314 114 Z M 314.4 132 L 314.4 117.5 L 316.5 117.5 L 316.5 132 L 314.4 132 Z M 322.3 129.9 C 322.34 129.92 322.3 137.5 322.3 137.5 L 320.2 137.5 L 320.2 117.5 L 322.3 117.5 C 322.3 117.5 322.34 119.6 322.3 119.6 C 323.2 118.1 324.6 117.2 326.1 117.2 C 329.4 117.2 331.3 120.2 331.3 124.8 C 331.3 129.3 329.4 132.4 326.1 132.4 C 324.7 132.4 323.2 131.5 322.3 129.9 Z M 329.1 124.8 C 329.1 121.6 328 119.1 325.6 119.1 C 324.3 119.1 322.9 120.2 322.3 121.4 C 322.3 121.4 322.3 128.1 322.3 128.1 C 322.9 129.3 324.3 130.5 325.6 130.5 C 328 130.5 329.1 127.9 329.1 124.8 Z M 340.9 132 L 340.9 119.4 L 339 119.4 L 339 117.5 L 340.9 117.5 C 340.9 117.5 340.91 115.76 340.9 115.8 C 340.9 113.2 342.3 111.7 344.5 111.7 C 345.5 111.7 346.4 112 347.1 112.7 C 347.1 112.7 346.3 114.2 346.3 114.2 C 345.9 113.8 345.4 113.5 344.9 113.5 C 343.7 113.5 343.1 114.4 343.1 115.8 C 343.07 115.76 343.1 117.5 343.1 117.5 L 345.5 117.5 L 345.5 119.4 L 343.1 119.4 L 343.1 132 L 340.9 132 Z M 347 124.8 C 347 120.7 349 117.2 352.9 117.2 C 356.8 117.2 358.8 120.7 358.8 124.8 C 358.8 128.8 356.8 132.4 352.9 132.4 C 349 132.4 347 128.8 347 124.8 Z M 356.5 124.8 C 356.5 121.9 355.4 119.1 352.9 119.1 C 350.4 119.1 349.2 121.9 349.2 124.8 C 349.2 127.7 350.4 130.5 352.9 130.5 C 355.4 130.5 356.5 127.7 356.5 124.8 Z M 361.7 132 L 361.7 117.5 L 363.9 117.5 C 363.9 117.5 363.86 119.84 363.9 119.8 C 364.8 118.3 366.2 117.2 368 117.2 C 368 117.2 368 119.5 368 119.5 C 367.7 119.4 367.5 119.4 367.2 119.4 C 365.9 119.4 364.5 120.5 363.9 121.7 C 363.86 121.73 363.9 132 363.9 132 L 361.7 132 Z M 383.7 132 C 383.7 132 383.75 130.46 383.7 130.5 C 382.8 131.8 381.4 132.4 379.9 132.4 C 377.6 132.4 375.6 130.6 375.6 127.6 C 375.6 124.5 377.6 122.8 379.9 122.8 C 381.4 122.8 382.8 123.4 383.7 124.6 C 383.7 124.6 383.7 122.1 383.7 122.1 C 383.7 120.1 382.7 119 380.8 119 C 379.4 119 378.3 119.5 377.1 120.8 C 377.1 120.8 376.2 119.3 376.2 119.3 C 377.6 117.8 379.3 117.2 381.1 117.2 C 384 117.2 385.9 118.6 385.9 121.9 C 385.91 121.88 385.9 132 385.9 132 L 383.7 132 Z M 383.7 129 C 383.7 129 383.7 126.2 383.7 126.2 C 383.1 125 381.9 124.4 380.6 124.4 C 378.8 124.4 377.7 125.8 377.7 127.6 C 377.7 129.4 378.8 130.8 380.6 130.8 C 381.9 130.8 383.1 130.2 383.7 129 Z M 397.4 132 C 397.4 132 397.37 121.7 397.4 121.7 C 397.4 119.8 396.5 119.1 395.1 119.1 C 393.6 119.1 392.3 120.2 391.7 121.4 C 391.67 121.4 391.7 132 391.7 132 L 389.5 132 L 389.5 117.5 L 391.7 117.5 C 391.7 117.5 391.67 119.6 391.7 119.6 C 392.5 118.3 394.1 117.2 395.9 117.2 C 398.3 117.2 399.5 118.5 399.5 121.1 C 399.53 121.1 399.5 132 399.5 132 L 397.4 132 Z M 402.5 124.8 C 402.5 120.7 404.5 117.2 408.3 117.2 C 412.2 117.2 414.3 120.7 414.3 124.8 C 414.3 128.8 412.2 132.4 408.3 132.4 C 404.5 132.4 402.5 128.8 402.5 124.8 Z M 412 124.8 C 412 121.9 410.9 119.1 408.3 119.1 C 405.9 119.1 404.7 121.9 404.7 124.8 C 404.7 127.7 405.9 130.5 408.3 130.5 C 410.9 130.5 412 127.7 412 124.8 Z M 417.6 129.1 C 417.62 129.11 417.6 119.4 417.6 119.4 L 415.7 119.4 L 415.7 117.5 L 417.6 117.5 L 417.6 113.6 L 419.8 113.6 L 419.8 117.5 L 422.2 117.5 L 422.2 119.4 L 419.8 119.4 C 419.8 119.4 419.78 128.72 419.8 128.7 C 419.8 129.8 420.1 130.5 420.9 130.5 C 421.5 130.5 421.9 130.2 422.2 129.9 C 422.2 129.9 422.9 131.5 422.9 131.5 C 422.4 132 421.6 132.4 420.5 132.4 C 418.5 132.4 417.6 131.3 417.6 129.1 Z M 432.6 132 C 432.6 132 432.65 121.67 432.6 121.7 C 432.6 119.8 431.7 119.1 430.3 119.1 C 428.9 119.1 427.6 120.2 426.9 121.4 C 426.92 121.4 426.9 132 426.9 132 L 424.8 132 L 424.8 112 L 426.9 112 C 426.9 112 426.92 119.6 426.9 119.6 C 427.8 118.3 429.4 117.2 431.1 117.2 C 433.6 117.2 434.8 118.4 434.8 121 C 434.78 121.04 434.8 132 434.8 132 L 432.6 132 Z M 437.7 124.8 C 437.7 120.6 439.9 117.2 443.6 117.2 C 447.4 117.2 449.3 120.6 449.3 124.8 C 449.33 124.82 449.3 125.5 449.3 125.5 C 449.3 125.5 439.94 125.48 439.9 125.5 C 440 128.4 441.5 130.6 444.1 130.6 C 445.4 130.6 446.7 130 447.6 128.8 C 447.6 128.8 448.7 130.1 448.7 130.1 C 447.5 131.5 445.9 132.4 443.9 132.4 C 440.1 132.4 437.7 129.2 437.7 124.8 Z M 443.6 119 C 441 119 440 121.8 439.9 123.9 C 439.9 123.9 447.2 123.9 447.2 123.9 C 447.2 121.7 446.2 119 443.6 119 Z M 452.2 132 L 452.2 117.5 L 454.3 117.5 C 454.3 117.5 454.31 119.84 454.3 119.8 C 455.2 118.3 456.6 117.2 458.4 117.2 C 458.4 117.2 458.4 119.5 458.4 119.5 C 458.2 119.4 457.9 119.4 457.7 119.4 C 456.4 119.4 454.9 120.5 454.3 121.7 C 454.31 121.73 454.3 132 454.3 132 L 452.2 132 Z M 466.3 129.1 C 466.3 129.1 467.9 127.7 467.9 127.7 C 468.9 129.3 470.2 130.3 472.2 130.3 C 474.3 130.3 475.7 128.2 475.7 125.9 C 475.7 123.1 474.4 121.5 472.3 121.5 C 470.9 121.5 469.8 122 468.7 123.4 C 468.68 123.35 466.9 122.8 466.9 122.8 L 466.9 112 L 477.1 112 L 477.1 114.1 L 469.3 114.1 C 469.3 114.1 469.28 121.13 469.3 121.1 C 470.1 120.2 471.4 119.4 473 119.4 C 475.8 119.4 478.2 121.7 478.2 125.8 C 478.2 129.6 475.7 132.4 472.2 132.4 C 469.3 132.4 467.6 131.1 466.3 129.1 Z M 502 132 C 502 132 501.98 121.52 502 121.5 C 502 120 501.3 119.1 500 119.1 C 498.7 119.1 497.4 120.2 496.8 121.4 C 496.82 121.4 496.8 132 496.8 132 L 494.7 132 C 494.7 132 494.66 121.52 494.7 121.5 C 494.7 120 494 119.1 492.6 119.1 C 491.3 119.1 490.1 120.2 489.5 121.4 C 489.47 121.4 489.5 132 489.5 132 L 487.3 132 L 487.3 117.5 L 489.5 117.5 C 489.5 117.5 489.47 119.6 489.5 119.6 C 490.1 118.5 491.7 117.2 493.4 117.2 C 495.3 117.2 496.4 118.2 496.7 119.8 C 497.4 118.4 499 117.2 500.8 117.2 C 502.9 117.2 504.1 118.3 504.1 121 C 504.14 120.95 504.1 132 504.1 132 L 502 132 Z M 507.4 114 C 507.4 113.2 508.1 112.5 508.8 112.5 C 509.7 112.5 510.3 113.2 510.3 114 C 510.3 114.8 509.7 115.4 508.8 115.4 C 508.1 115.4 507.4 114.8 507.4 114 Z M 507.8 132 L 507.8 117.5 L 509.9 117.5 L 509.9 132 L 507.8 132 Z M 521.4 132 C 521.4 132 521.41 121.7 521.4 121.7 C 521.4 119.8 520.5 119.1 519.1 119.1 C 517.7 119.1 516.4 120.2 515.7 121.4 C 515.71 121.4 515.7 132 515.7 132 L 513.6 132 L 513.6 117.5 L 515.7 117.5 C 515.7 117.5 515.71 119.6 515.7 119.6 C 516.6 118.3 518.2 117.2 519.9 117.2 C 522.4 117.2 523.6 118.5 523.6 121.1 C 523.57 121.1 523.6 132 523.6 132 L 521.4 132 Z M 535.1 132 C 535.1 132 535.06 130.01 535.1 130 C 534.2 131.3 532.7 132.4 530.9 132.4 C 528.4 132.4 527.2 131.2 527.2 128.5 C 527.23 128.51 527.2 117.5 527.2 117.5 L 529.4 117.5 C 529.4 117.5 529.36 127.88 529.4 127.9 C 529.4 129.8 530.3 130.5 531.7 130.5 C 533.1 130.5 534.4 129.4 535.1 128.2 C 535.06 128.21 535.1 117.5 535.1 117.5 L 537.2 117.5 L 537.2 132 L 535.1 132 Z M 541.3 129.1 C 541.3 129.11 541.3 119.4 541.3 119.4 L 539.4 119.4 L 539.4 117.5 L 541.3 117.5 L 541.3 113.6 L 543.5 113.6 L 543.5 117.5 L 545.9 117.5 L 545.9 119.4 L 543.5 119.4 C 543.5 119.4 543.46 128.72 543.5 128.7 C 543.5 129.8 543.8 130.5 544.6 130.5 C 545.2 130.5 545.6 130.2 545.9 129.9 C 545.9 129.9 546.6 131.5 546.6 131.5 C 546 132 545.3 132.4 544.2 132.4 C 542.2 132.4 541.3 131.3 541.3 129.1 Z M 547.8 124.8 C 547.8 120.6 550 117.2 553.6 117.2 C 557.4 117.2 559.4 120.6 559.4 124.8 C 559.36 124.82 559.4 125.5 559.4 125.5 C 559.4 125.5 549.97 125.48 550 125.5 C 550.1 128.4 551.6 130.6 554.1 130.6 C 555.4 130.6 556.7 130 557.6 128.8 C 557.6 128.8 558.7 130.1 558.7 130.1 C 557.6 131.5 555.9 132.4 554 132.4 C 550.1 132.4 547.8 129.2 547.8 124.8 Z M 553.6 119 C 551.1 119 550 121.8 550 123.9 C 550 123.9 557.2 123.9 557.2 123.9 C 557.2 121.7 556.2 119 553.6 119 Z M 561 130.3 C 561 130.3 562.1 128.8 562.1 128.8 C 563 129.8 564.3 130.6 565.9 130.6 C 567.6 130.6 568.7 129.7 568.7 128.3 C 568.7 124.9 561.5 126.1 561.5 121.1 C 561.5 118.9 563.2 117.2 566.1 117.2 C 568 117.2 569.5 117.9 570.5 119 C 570.5 119 569.5 120.5 569.5 120.5 C 568.8 119.5 567.5 118.9 566.1 118.9 C 564.5 118.9 563.5 119.8 563.5 121 C 563.5 124.1 570.8 123 570.8 128.2 C 570.8 130.6 568.9 132.4 565.9 132.4 C 563.9 132.4 562.2 131.7 561 130.3 Z M 573.4 130.7 C 573.4 129.9 574.1 129.1 575 129.1 C 575.8 129.1 576.6 129.9 576.6 130.7 C 576.6 131.6 575.8 132.3 575 132.3 C 574.1 132.3 573.4 131.6 573.4 130.7 Z " stroke="none" fill="#efd8d3"/>  </g>  <g id="Polygon183242">    <path d="M 1.6 96 C 1.6 96 1.59 94.07 1.6 94.1 C 8.1 86.5 10.4 84.1 10.4 81.2 C 10.4 79 8.9 77.8 7.2 77.8 C 5.3 77.8 3.9 78.8 2.9 80.4 C 2.9 80.4 1.4 78.9 1.4 78.9 C 2.7 76.9 4.7 75.7 7.2 75.7 C 10.3 75.7 12.8 77.7 12.8 81.2 C 12.8 84.5 10.3 87.5 5 93.9 C 4.98 93.89 12.9 93.9 12.9 93.9 L 12.9 96 L 1.6 96 Z M 16.2 94.7 C 16.2 93.9 16.9 93.1 17.8 93.1 C 18.7 93.1 19.4 93.9 19.4 94.7 C 19.4 95.6 18.7 96.3 17.8 96.3 C 16.9 96.3 16.2 95.6 16.2 94.7 Z M 33.8 96 L 33.8 78.1 L 29.1 78.1 L 29.1 76 L 41 76 L 41 78.1 L 36.2 78.1 L 36.2 96 L 33.8 96 Z M 51.3 96 C 51.3 96 51.27 85.67 51.3 85.7 C 51.3 83.8 50.4 83.1 48.9 83.1 C 47.5 83.1 46.2 84.2 45.5 85.4 C 45.54 85.4 45.5 96 45.5 96 L 43.4 96 L 43.4 76 L 45.5 76 C 45.5 76 45.54 83.6 45.5 83.6 C 46.4 82.3 48 81.2 49.8 81.2 C 52.2 81.2 53.4 82.4 53.4 85 C 53.4 85.04 53.4 96 53.4 96 L 51.3 96 Z M 56.3 88.8 C 56.3 84.7 58.4 81.2 62.2 81.2 C 66.1 81.2 68.1 84.7 68.1 88.8 C 68.1 92.8 66.1 96.4 62.2 96.4 C 58.4 96.4 56.3 92.8 56.3 88.8 Z M 65.9 88.8 C 65.9 85.9 64.8 83.1 62.2 83.1 C 59.7 83.1 58.6 85.9 58.6 88.8 C 58.6 91.7 59.7 94.5 62.2 94.5 C 64.8 94.5 65.9 91.7 65.9 88.8 Z M 71.1 96 L 71.1 81.5 L 73.2 81.5 C 73.2 81.5 73.2 83.84 73.2 83.8 C 74.1 82.3 75.5 81.2 77.3 81.2 C 77.3 81.2 77.3 83.5 77.3 83.5 C 77.1 83.4 76.8 83.4 76.6 83.4 C 75.3 83.4 73.8 84.5 73.2 85.7 C 73.2 85.73 73.2 96 73.2 96 L 71.1 96 Z M 78.8 88.8 C 78.8 84.7 80.8 81.2 84.7 81.2 C 88.6 81.2 90.6 84.7 90.6 88.8 C 90.6 92.8 88.6 96.4 84.7 96.4 C 80.8 96.4 78.8 92.8 78.8 88.8 Z M 88.3 88.8 C 88.3 85.9 87.2 83.1 84.7 83.1 C 82.2 83.1 81 85.9 81 88.8 C 81 91.7 82.2 94.5 84.7 94.5 C 87.2 94.5 88.3 91.7 88.3 88.8 Z M 101.3 96 C 101.3 96 101.34 94.01 101.3 94 C 100.5 95.3 98.9 96.4 97.1 96.4 C 94.7 96.4 93.5 95.2 93.5 92.5 C 93.51 92.51 93.5 81.5 93.5 81.5 L 95.6 81.5 C 95.6 81.5 95.64 91.88 95.6 91.9 C 95.6 93.8 96.5 94.5 97.9 94.5 C 99.4 94.5 100.7 93.4 101.3 92.2 C 101.34 92.21 101.3 81.5 101.3 81.5 L 103.5 81.5 L 103.5 96 L 101.3 96 Z M 107 100.1 C 107 100.1 108 98.4 108 98.4 C 109 99.5 110.2 100.1 111.8 100.1 C 113.8 100.1 115.4 98.9 115.4 96.1 C 115.4 96.1 115.4 93.7 115.4 93.7 C 114.6 95.2 113.2 96.2 111.6 96.2 C 108.4 96.2 106.4 93.3 106.4 88.7 C 106.4 84.2 108.4 81.2 111.6 81.2 C 113.1 81.2 114.5 82 115.4 83.6 C 115.44 83.63 115.4 81.5 115.4 81.5 L 117.6 81.5 C 117.6 81.5 117.6 95.99 117.6 96 C 117.6 100.5 114.9 101.9 111.9 101.9 C 109.9 101.9 108.4 101.5 107 100.1 Z M 115.4 91.9 C 115.4 91.9 115.4 85.5 115.4 85.5 C 114.9 84.2 113.5 83.1 112.2 83.1 C 109.8 83.1 108.7 85.6 108.7 88.7 C 108.7 91.8 109.8 94.3 112.2 94.3 C 113.5 94.3 114.9 93.1 115.4 91.9 Z M 129.1 96 C 129.1 96 129.08 85.67 129.1 85.7 C 129.1 83.8 128.2 83.1 126.7 83.1 C 125.3 83.1 124 84.2 123.4 85.4 C 123.35 85.4 123.4 96 123.4 96 L 121.2 96 L 121.2 76 L 123.4 76 C 123.4 76 123.35 83.6 123.4 83.6 C 124.2 82.3 125.8 81.2 127.6 81.2 C 130 81.2 131.2 82.4 131.2 85 C 131.21 85.04 131.2 96 131.2 96 L 129.1 96 Z M 134.9 96 L 134.9 76 L 137 76 L 137 96 L 134.9 96 Z M 140.2 99.8 C 140.5 99.9 141 100 141.2 100 C 142 100 142.5 99.7 142.9 98.5 C 142.91 98.54 143.7 96.3 143.7 96.3 L 138.9 81.5 L 141.2 81.5 L 144.8 93.4 L 148.4 81.5 L 150.7 81.5 C 150.7 81.5 144.95 99.08 145 99.1 C 144.2 101.2 143.1 101.9 141.4 101.9 C 140.9 101.9 140.2 101.8 139.9 101.7 C 139.9 101.7 140.2 99.8 140.2 99.8 Z M 157.6 94.3 C 157.6 94.3 158.7 92.8 158.7 92.8 C 159.5 93.8 160.9 94.6 162.4 94.6 C 164.1 94.6 165.2 93.7 165.2 92.3 C 165.2 88.9 158 90.1 158 85.1 C 158 82.9 159.7 81.2 162.6 81.2 C 164.5 81.2 166 81.9 167 83 C 167 83 166 84.5 166 84.5 C 165.3 83.5 164.1 82.9 162.7 82.9 C 161.1 82.9 160.1 83.8 160.1 85 C 160.1 88.1 167.3 87 167.3 92.2 C 167.3 94.6 165.4 96.4 162.5 96.4 C 160.4 96.4 158.8 95.7 157.6 94.3 Z M 170.5 93.1 C 170.48 93.11 170.5 83.4 170.5 83.4 L 168.6 83.4 L 168.6 81.5 L 170.5 81.5 L 170.5 77.6 L 172.6 77.6 L 172.6 81.5 L 175.1 81.5 L 175.1 83.4 L 172.6 83.4 C 172.6 83.4 172.64 92.72 172.6 92.7 C 172.6 93.8 173 94.5 173.8 94.5 C 174.4 94.5 174.8 94.2 175.1 93.9 C 175.1 93.9 175.7 95.5 175.7 95.5 C 175.2 96 174.5 96.4 173.4 96.4 C 171.4 96.4 170.5 95.3 170.5 93.1 Z M 177.2 78 C 177.2 77.2 177.9 76.5 178.7 76.5 C 179.5 76.5 180.2 77.2 180.2 78 C 180.2 78.8 179.5 79.4 178.7 79.4 C 177.9 79.4 177.2 78.8 177.2 78 Z M 177.7 96 L 177.7 81.5 L 179.8 81.5 L 179.8 96 L 177.7 96 Z M 183.4 96 L 183.4 81.5 L 185.6 81.5 C 185.6 81.5 185.57 83.84 185.6 83.8 C 186.5 82.3 187.9 81.2 189.7 81.2 C 189.7 81.2 189.7 83.5 189.7 83.5 C 189.4 83.4 189.2 83.4 189 83.4 C 187.6 83.4 186.2 84.5 185.6 85.7 C 185.57 85.73 185.6 96 185.6 96 L 183.4 96 Z M 198.4 93.1 C 198.44 93.11 198.4 83.4 198.4 83.4 L 196.5 83.4 L 196.5 81.5 L 198.4 81.5 L 198.4 77.6 L 200.6 77.6 L 200.6 81.5 L 203.1 81.5 L 203.1 83.4 L 200.6 83.4 C 200.6 83.4 200.6 92.72 200.6 92.7 C 200.6 93.8 200.9 94.5 201.8 94.5 C 202.3 94.5 202.8 94.2 203 93.9 C 203 93.9 203.7 95.5 203.7 95.5 C 203.2 96 202.5 96.4 201.4 96.4 C 199.4 96.4 198.4 95.3 198.4 93.1 Z M 213.5 96 C 213.5 96 213.47 85.67 213.5 85.7 C 213.5 83.8 212.6 83.1 211.1 83.1 C 209.7 83.1 208.4 84.2 207.7 85.4 C 207.74 85.4 207.7 96 207.7 96 L 205.6 96 L 205.6 76 L 207.7 76 C 207.7 76 207.74 83.6 207.7 83.6 C 208.6 82.3 210.2 81.2 212 81.2 C 214.4 81.2 215.6 82.4 215.6 85 C 215.6 85.04 215.6 96 215.6 96 L 213.5 96 Z M 218.5 88.8 C 218.5 84.6 220.8 81.2 224.4 81.2 C 228.2 81.2 230.2 84.6 230.2 88.8 C 230.15 88.82 230.2 89.5 230.2 89.5 C 230.2 89.5 220.76 89.48 220.8 89.5 C 220.9 92.4 222.4 94.6 224.9 94.6 C 226.2 94.6 227.5 94 228.4 92.8 C 228.4 92.8 229.5 94.1 229.5 94.1 C 228.4 95.5 226.7 96.4 224.8 96.4 C 220.9 96.4 218.5 93.2 218.5 88.8 Z M 224.4 83 C 221.8 83 220.8 85.8 220.8 87.9 C 220.8 87.9 228 87.9 228 87.9 C 228 85.7 227 83 224.4 83 Z M 253.8 96 C 253.8 96 253.79 85.52 253.8 85.5 C 253.8 84 253.2 83.1 251.8 83.1 C 250.5 83.1 249.2 84.2 248.6 85.4 C 248.63 85.4 248.6 96 248.6 96 L 246.5 96 C 246.5 96 246.47 85.52 246.5 85.5 C 246.5 84 245.8 83.1 244.4 83.1 C 243.1 83.1 241.9 84.2 241.3 85.4 C 241.28 85.4 241.3 96 241.3 96 L 239.2 96 L 239.2 81.5 L 241.3 81.5 C 241.3 81.5 241.28 83.6 241.3 83.6 C 241.9 82.5 243.5 81.2 245.2 81.2 C 247.1 81.2 248.2 82.2 248.5 83.8 C 249.2 82.4 250.9 81.2 252.6 81.2 C 254.7 81.2 256 82.3 256 85 C 255.95 84.95 256 96 256 96 L 253.8 96 Z M 259.2 78 C 259.2 77.2 259.9 76.5 260.7 76.5 C 261.5 76.5 262.1 77.2 262.1 78 C 262.1 78.8 261.5 79.4 260.7 79.4 C 259.9 79.4 259.2 78.8 259.2 78 Z M 259.6 96 L 259.6 81.5 L 261.7 81.5 L 261.7 96 L 259.6 96 Z M 272.8 96 L 269.5 90.2 L 266.2 96 L 263.8 96 L 268.2 88.6 L 264 81.5 L 266.4 81.5 L 269.5 87.1 L 272.6 81.5 L 275 81.5 L 270.8 88.6 L 275.2 96 L 272.8 96 Z M 277.7 93.1 C 277.7 93.11 277.7 83.4 277.7 83.4 L 275.8 83.4 L 275.8 81.5 L 277.7 81.5 L 277.7 77.6 L 279.9 77.6 L 279.9 81.5 L 282.3 81.5 L 282.3 83.4 L 279.9 83.4 C 279.9 83.4 279.86 92.72 279.9 92.7 C 279.9 93.8 280.2 94.5 281 94.5 C 281.6 94.5 282 94.2 282.3 93.9 C 282.3 93.9 283 95.5 283 95.5 C 282.4 96 281.7 96.4 280.6 96.4 C 278.6 96.4 277.7 95.3 277.7 93.1 Z M 292.7 96 C 292.7 96 292.7 94.01 292.7 94 C 291.8 95.3 290.3 96.4 288.5 96.4 C 286 96.4 284.9 95.2 284.9 92.5 C 284.87 92.51 284.9 81.5 284.9 81.5 L 287 81.5 C 287 81.5 287 91.88 287 91.9 C 287 93.8 287.9 94.5 289.3 94.5 C 290.7 94.5 292.1 93.4 292.7 92.2 C 292.7 92.21 292.7 81.5 292.7 81.5 L 294.9 81.5 L 294.9 96 L 292.7 96 Z M 298.5 96 L 298.5 81.5 L 300.6 81.5 C 300.6 81.5 300.65 83.84 300.6 83.8 C 301.6 82.3 303 81.2 304.8 81.2 C 304.8 81.2 304.8 83.5 304.8 83.5 C 304.5 83.4 304.3 83.4 304 83.4 C 302.7 83.4 301.2 84.5 300.6 85.7 C 300.65 85.73 300.6 96 300.6 96 L 298.5 96 Z M 306.2 88.8 C 306.2 84.6 308.4 81.2 312.1 81.2 C 315.9 81.2 317.8 84.6 317.8 88.8 C 317.84 88.82 317.8 89.5 317.8 89.5 C 317.8 89.5 308.45 89.48 308.4 89.5 C 308.5 92.4 310 94.6 312.6 94.6 C 313.9 94.6 315.2 94 316.1 92.8 C 316.1 92.8 317.2 94.1 317.2 94.1 C 316 95.5 314.4 96.4 312.4 96.4 C 308.6 96.4 306.2 93.2 306.2 88.8 Z M 312.1 83 C 309.5 83 308.5 85.8 308.4 87.9 C 308.4 87.9 315.7 87.9 315.7 87.9 C 315.7 85.7 314.7 83 312.1 83 Z M 320.4 94.7 C 320.4 93.9 321.1 93.1 322 93.1 C 322.9 93.1 323.6 93.9 323.6 94.7 C 323.6 95.6 322.9 96.3 322 96.3 C 321.1 96.3 320.4 95.6 320.4 94.7 Z M 343.8 96 L 342.5 91.5 L 335.4 91.5 L 334.1 96 L 331.5 96 L 337.5 76 L 340.4 76 L 346.4 96 L 343.8 96 Z M 338.9 78.7 L 335.9 89.4 L 342 89.4 L 338.9 78.7 Z M 356.5 96 C 356.5 96 356.51 93.95 356.5 94 C 355.7 95.4 354.2 96.4 352.7 96.4 C 349.5 96.4 347.5 93.4 347.5 88.8 C 347.5 84.3 349.4 81.2 352.7 81.2 C 354.2 81.2 355.6 82 356.5 83.6 C 356.51 83.63 356.5 76 356.5 76 L 358.7 76 L 358.7 96 L 356.5 96 Z M 356.5 92.1 C 356.5 92.1 356.5 85.5 356.5 85.5 C 356 84.2 354.6 83.1 353.2 83.1 C 350.9 83.1 349.8 85.6 349.8 88.8 C 349.8 91.9 350.9 94.5 353.2 94.5 C 354.6 94.5 356 93.4 356.5 92.1 Z M 370.6 96 C 370.6 96 370.61 93.95 370.6 94 C 369.8 95.4 368.3 96.4 366.8 96.4 C 363.6 96.4 361.6 93.4 361.6 88.8 C 361.6 84.3 363.5 81.2 366.8 81.2 C 368.3 81.2 369.7 82 370.6 83.6 C 370.61 83.63 370.6 76 370.6 76 L 372.8 76 L 372.8 96 L 370.6 96 Z M 370.6 92.1 C 370.6 92.1 370.6 85.5 370.6 85.5 C 370.1 84.2 368.7 83.1 367.3 83.1 C 365 83.1 363.9 85.6 363.9 88.8 C 363.9 91.9 365 94.5 367.3 94.5 C 368.7 94.5 370.1 93.4 370.6 92.1 Z M 382.2 78 C 382.2 77.2 382.8 76.5 383.6 76.5 C 384.4 76.5 385.1 77.2 385.1 78 C 385.1 78.8 384.4 79.4 383.6 79.4 C 382.8 79.4 382.2 78.8 382.2 78 Z M 382.6 96 L 382.6 81.5 L 384.7 81.5 L 384.7 96 L 382.6 96 Z M 396.2 96 C 396.2 96 396.2 85.7 396.2 85.7 C 396.2 83.8 395.3 83.1 393.9 83.1 C 392.5 83.1 391.2 84.2 390.5 85.4 C 390.5 85.4 390.5 96 390.5 96 L 388.4 96 L 388.4 81.5 L 390.5 81.5 C 390.5 81.5 390.5 83.6 390.5 83.6 C 391.3 82.3 393 81.2 394.7 81.2 C 397.2 81.2 398.4 82.5 398.4 85.1 C 398.36 85.1 398.4 96 398.4 96 L 396.2 96 Z M 415.6 96 C 415.6 96 415.61 94.46 415.6 94.5 C 414.7 95.8 413.3 96.4 411.8 96.4 C 409.5 96.4 407.4 94.6 407.4 91.6 C 407.4 88.5 409.4 86.8 411.8 86.8 C 413.3 86.8 414.7 87.4 415.6 88.6 C 415.6 88.6 415.6 86.1 415.6 86.1 C 415.6 84.1 414.5 83 412.6 83 C 411.3 83 410.1 83.5 409 84.8 C 409 84.8 408 83.3 408 83.3 C 409.4 81.8 411.1 81.2 413 81.2 C 415.8 81.2 417.8 82.6 417.8 85.9 C 417.77 85.88 417.8 96 417.8 96 L 415.6 96 Z M 415.6 93 C 415.6 93 415.6 90.2 415.6 90.2 C 414.9 89 413.7 88.4 412.5 88.4 C 410.7 88.4 409.6 89.8 409.6 91.6 C 409.6 93.4 410.7 94.8 412.5 94.8 C 413.7 94.8 414.9 94.2 415.6 93 Z M 420.2 94.3 C 420.2 94.3 421.3 92.8 421.3 92.8 C 422.1 93.8 423.5 94.6 425.1 94.6 C 426.8 94.6 427.9 93.7 427.9 92.3 C 427.9 88.9 420.6 90.1 420.6 85.1 C 420.6 82.9 422.4 81.2 425.3 81.2 C 427.2 81.2 428.7 81.9 429.7 83 C 429.7 83 428.7 84.5 428.7 84.5 C 427.9 83.5 426.7 82.9 425.3 82.9 C 423.7 82.9 422.7 83.8 422.7 85 C 422.7 88.1 429.9 87 429.9 92.2 C 429.9 94.6 428.1 96.4 425.1 96.4 C 423.1 96.4 421.4 95.7 420.2 94.3 Z M 433.1 93.1 C 433.13 93.11 433.1 83.4 433.1 83.4 L 431.2 83.4 L 431.2 81.5 L 433.1 81.5 L 433.1 77.6 L 435.3 77.6 L 435.3 81.5 L 437.7 81.5 L 437.7 83.4 L 435.3 83.4 C 435.3 83.4 435.29 92.72 435.3 92.7 C 435.3 93.8 435.6 94.5 436.5 94.5 C 437 94.5 437.4 94.2 437.7 93.9 C 437.7 93.9 438.4 95.5 438.4 95.5 C 437.9 96 437.1 96.4 436 96.4 C 434.1 96.4 433.1 95.3 433.1 93.1 Z M 447.7 96 C 447.7 96 447.74 94.46 447.7 94.5 C 446.8 95.8 445.4 96.4 443.9 96.4 C 441.6 96.4 439.5 94.6 439.5 91.6 C 439.5 88.5 441.6 86.8 443.9 86.8 C 445.4 86.8 446.8 87.4 447.7 88.6 C 447.7 88.6 447.7 86.1 447.7 86.1 C 447.7 84.1 446.7 83 444.8 83 C 443.4 83 442.2 83.5 441.1 84.8 C 441.1 84.8 440.2 83.3 440.2 83.3 C 441.6 81.8 443.3 81.2 445.1 81.2 C 448 81.2 449.9 82.6 449.9 85.9 C 449.9 85.88 449.9 96 449.9 96 L 447.7 96 Z M 447.7 93 C 447.7 93 447.7 90.2 447.7 90.2 C 447.1 89 445.9 88.4 444.6 88.4 C 442.8 88.4 441.7 89.8 441.7 91.6 C 441.7 93.4 442.8 94.8 444.6 94.8 C 445.9 94.8 447.1 94.2 447.7 93 Z M 461 96 L 457.6 90.2 L 454.3 96 L 451.9 96 L 456.3 88.6 L 452.1 81.5 L 454.5 81.5 L 457.6 87.1 L 460.7 81.5 L 463.1 81.5 L 459 88.6 L 463.4 96 L 461 96 Z M 472.8 96 C 472.8 96 472.85 94.46 472.8 94.5 C 471.9 95.8 470.5 96.4 469 96.4 C 466.7 96.4 464.7 94.6 464.7 91.6 C 464.7 88.5 466.7 86.8 469 86.8 C 470.5 86.8 471.9 87.4 472.8 88.6 C 472.8 88.6 472.8 86.1 472.8 86.1 C 472.8 84.1 471.8 83 469.9 83 C 468.5 83 467.4 83.5 466.2 84.8 C 466.2 84.8 465.3 83.3 465.3 83.3 C 466.7 81.8 468.4 81.2 470.2 81.2 C 473.1 81.2 475 82.6 475 85.9 C 475.01 85.88 475 96 475 96 L 472.8 96 Z M 472.8 93 C 472.8 93 472.8 90.2 472.8 90.2 C 472.2 89 471 88.4 469.7 88.4 C 467.9 88.4 466.8 89.8 466.8 91.6 C 466.8 93.4 467.9 94.8 469.7 94.8 C 471 94.8 472.2 94.2 472.8 93 Z M 486.5 96 C 486.5 96 486.47 85.7 486.5 85.7 C 486.5 83.8 485.6 83.1 484.2 83.1 C 482.7 83.1 481.4 84.2 480.8 85.4 C 480.77 85.4 480.8 96 480.8 96 L 478.6 96 L 478.6 81.5 L 480.8 81.5 C 480.8 81.5 480.77 83.6 480.8 83.6 C 481.6 82.3 483.2 81.2 485 81.2 C 487.4 81.2 488.6 82.5 488.6 85.1 C 488.63 85.1 488.6 96 488.6 96 L 486.5 96 Z M 492.7 93.1 C 492.71 93.11 492.7 83.4 492.7 83.4 L 490.8 83.4 L 490.8 81.5 L 492.7 81.5 L 492.7 77.6 L 494.9 77.6 L 494.9 81.5 L 497.3 81.5 L 497.3 83.4 L 494.9 83.4 C 494.9 83.4 494.87 92.72 494.9 92.7 C 494.9 93.8 495.2 94.5 496 94.5 C 496.6 94.5 497 94.2 497.3 93.9 C 497.3 93.9 498 95.5 498 95.5 C 497.4 96 496.7 96.4 495.6 96.4 C 493.6 96.4 492.7 95.3 492.7 93.1 Z M 507.7 96 C 507.7 96 507.73 85.67 507.7 85.7 C 507.7 83.8 506.8 83.1 505.4 83.1 C 504 83.1 502.7 84.2 502 85.4 C 502 85.4 502 96 502 96 L 499.9 96 L 499.9 76 L 502 76 C 502 76 502 83.6 502 83.6 C 502.8 82.3 504.5 81.2 506.2 81.2 C 508.7 81.2 509.9 82.4 509.9 85 C 509.86 85.04 509.9 96 509.9 96 L 507.7 96 Z M 513.1 78 C 513.1 77.2 513.8 76.5 514.6 76.5 C 515.4 76.5 516 77.2 516 78 C 516 78.8 515.4 79.4 514.6 79.4 C 513.8 79.4 513.1 78.8 513.1 78 Z M 513.5 96 L 513.5 81.5 L 515.7 81.5 L 515.7 96 L 513.5 96 Z M 527.1 96 C 527.1 96 527.14 85.7 527.1 85.7 C 527.1 83.8 526.3 83.1 524.8 83.1 C 523.4 83.1 522.1 84.2 521.4 85.4 C 521.44 85.4 521.4 96 521.4 96 L 519.3 96 L 519.3 81.5 L 521.4 81.5 C 521.4 81.5 521.44 83.6 521.4 83.6 C 522.3 82.3 523.9 81.2 525.6 81.2 C 528.1 81.2 529.3 82.5 529.3 85.1 C 529.3 85.1 529.3 96 529.3 96 L 527.1 96 Z M 546.6 96 C 546.6 96 546.55 94.46 546.6 94.5 C 545.6 95.8 544.2 96.4 542.7 96.4 C 540.4 96.4 538.4 94.6 538.4 91.6 C 538.4 88.5 540.4 86.8 542.7 86.8 C 544.2 86.8 545.7 87.4 546.6 88.6 C 546.6 88.6 546.6 86.1 546.6 86.1 C 546.6 84.1 545.5 83 543.6 83 C 542.2 83 541.1 83.5 540 84.8 C 540 84.8 539 83.3 539 83.3 C 540.4 81.8 542.1 81.2 543.9 81.2 C 546.8 81.2 548.7 82.6 548.7 85.9 C 548.71 85.88 548.7 96 548.7 96 L 546.6 96 Z M 546.6 93 C 546.6 93 546.6 90.2 546.6 90.2 C 545.9 89 544.7 88.4 543.4 88.4 C 541.6 88.4 540.6 89.8 540.6 91.6 C 540.6 93.4 541.6 94.8 543.4 94.8 C 544.7 94.8 545.9 94.2 546.6 93 Z M 560.2 96 C 560.2 96 560.17 85.7 560.2 85.7 C 560.2 83.8 559.3 83.1 557.9 83.1 C 556.5 83.1 555.1 84.2 554.5 85.4 C 554.47 85.4 554.5 96 554.5 96 L 552.3 96 L 552.3 81.5 L 554.5 81.5 C 554.5 81.5 554.47 83.6 554.5 83.6 C 555.3 82.3 556.9 81.2 558.7 81.2 C 561.1 81.2 562.3 82.5 562.3 85.1 C 562.33 85.1 562.3 96 562.3 96 L 560.2 96 Z M 574.3 96 C 574.3 96 574.27 93.95 574.3 94 C 573.4 95.4 572 96.4 570.5 96.4 C 567.2 96.4 565.3 93.4 565.3 88.8 C 565.3 84.3 567.2 81.2 570.5 81.2 C 571.9 81.2 573.4 82 574.3 83.6 C 574.27 83.63 574.3 76 574.3 76 L 576.4 76 L 576.4 96 L 574.3 96 Z M 574.3 92.1 C 574.3 92.1 574.3 85.5 574.3 85.5 C 573.7 84.2 572.4 83.1 571 83.1 C 568.6 83.1 567.5 85.6 567.5 88.8 C 567.5 91.9 568.6 94.5 571 94.5 C 572.4 94.5 573.7 93.4 574.3 92.1 Z " stroke="none" fill="#efd8d3"/>  </g>  <g id="Polygon183241">    <path d="M 5 24 L 5 7.2 L 1.9 10.5 L 0.4 9 L 5.3 4 L 7.3 4 L 7.3 24 L 5 24 Z M 11 22.7 C 11 21.9 11.7 21.1 12.6 21.1 C 13.4 21.1 14.2 21.9 14.2 22.7 C 14.2 23.6 13.4 24.3 12.6 24.3 C 11.7 24.3 11 23.6 11 22.7 Z M 44.4 24 L 44.4 8.3 L 39.1 24 L 38.1 24 L 32.8 8.3 L 32.8 24 L 30.4 24 L 30.4 4 L 33.8 4 L 38.6 18.2 L 43.5 4 L 46.7 4 L 46.7 24 L 44.4 24 Z M 50.1 6 C 50.1 5.2 50.8 4.5 51.6 4.5 C 52.4 4.5 53 5.2 53 6 C 53 6.8 52.4 7.4 51.6 7.4 C 50.8 7.4 50.1 6.8 50.1 6 Z M 50.5 24 L 50.5 9.5 L 52.6 9.5 L 52.6 24 L 50.5 24 Z M 63.7 24 L 60.4 18.2 L 57.1 24 L 54.7 24 L 59.1 16.6 L 54.9 9.5 L 57.3 9.5 L 60.4 15.1 L 63.5 9.5 L 65.9 9.5 L 61.7 16.6 L 66.1 24 L 63.7 24 Z M 73.9 6 C 73.9 5.2 74.6 4.5 75.4 4.5 C 76.2 4.5 76.9 5.2 76.9 6 C 76.9 6.8 76.2 7.4 75.4 7.4 C 74.6 7.4 73.9 6.8 73.9 6 Z M 74.3 24 L 74.3 9.5 L 76.5 9.5 L 76.5 24 L 74.3 24 Z M 88 24 C 88 24 87.96 13.7 88 13.7 C 88 11.8 87.1 11.1 85.6 11.1 C 84.2 11.1 82.9 12.2 82.3 13.4 C 82.26 13.4 82.3 24 82.3 24 L 80.1 24 L 80.1 9.5 L 82.3 9.5 C 82.3 9.5 82.26 11.6 82.3 11.6 C 83.1 10.3 84.7 9.2 86.5 9.2 C 88.9 9.2 90.1 10.5 90.1 13.1 C 90.12 13.1 90.1 24 90.1 24 L 88 24 Z M 110.6 24 L 107.5 12.4 L 104.4 24 L 102.2 24 L 98.3 9.5 L 100.6 9.5 L 103.4 21.1 L 106.5 9.5 L 108.5 9.5 L 111.6 21.1 L 114.4 9.5 L 116.7 9.5 L 112.8 24 L 110.6 24 Z M 126.6 24 C 126.6 24 126.62 13.67 126.6 13.7 C 126.6 11.8 125.7 11.1 124.3 11.1 C 122.9 11.1 121.6 12.2 120.9 13.4 C 120.89 13.4 120.9 24 120.9 24 L 118.8 24 L 118.8 4 L 120.9 4 C 120.9 4 120.89 11.6 120.9 11.6 C 121.7 10.3 123.4 9.2 125.1 9.2 C 127.6 9.2 128.8 10.4 128.8 13 C 128.75 13.04 128.8 24 128.8 24 L 126.6 24 Z M 132 6 C 132 5.2 132.7 4.5 133.5 4.5 C 134.3 4.5 134.9 5.2 134.9 6 C 134.9 6.8 134.3 7.4 133.5 7.4 C 132.7 7.4 132 6.8 132 6 Z M 132.4 24 L 132.4 9.5 L 134.5 9.5 L 134.5 24 L 132.4 24 Z M 138.6 21.1 C 138.62 21.11 138.6 11.4 138.6 11.4 L 136.7 11.4 L 136.7 9.5 L 138.6 9.5 L 138.6 5.6 L 140.8 5.6 L 140.8 9.5 L 143.2 9.5 L 143.2 11.4 L 140.8 11.4 C 140.8 11.4 140.78 20.72 140.8 20.7 C 140.8 21.8 141.1 22.5 142 22.5 C 142.5 22.5 142.9 22.2 143.2 21.9 C 143.2 21.9 143.9 23.5 143.9 23.5 C 143.4 24 142.6 24.4 141.5 24.4 C 139.6 24.4 138.6 23.3 138.6 21.1 Z M 145.1 16.8 C 145.1 12.6 147.3 9.2 151 9.2 C 154.8 9.2 156.7 12.6 156.7 16.8 C 156.68 16.82 156.7 17.5 156.7 17.5 C 156.7 17.5 147.29 17.48 147.3 17.5 C 147.4 20.4 148.9 22.6 151.5 22.6 C 152.7 22.6 154 22 154.9 20.8 C 154.9 20.8 156.1 22.1 156.1 22.1 C 154.9 23.5 153.2 24.4 151.3 24.4 C 147.4 24.4 145.1 21.2 145.1 16.8 Z M 150.9 11 C 148.4 11 147.4 13.8 147.3 15.9 C 147.3 15.9 154.6 15.9 154.6 15.9 C 154.5 13.7 153.6 11 150.9 11 Z M 165.6 28.1 C 165.6 28.1 166.6 26.4 166.6 26.4 C 167.5 27.5 168.7 28.1 170.3 28.1 C 172.3 28.1 174 26.9 174 24.1 C 174 24.1 174 21.7 174 21.7 C 173.1 23.2 171.7 24.2 170.2 24.2 C 166.9 24.2 165 21.3 165 16.7 C 165 12.2 166.9 9.2 170.2 9.2 C 171.6 9.2 173.1 10 174 11.6 C 173.96 11.63 174 9.5 174 9.5 L 176.1 9.5 C 176.1 9.5 176.12 23.99 176.1 24 C 176.1 28.5 173.4 29.9 170.4 29.9 C 168.4 29.9 166.9 29.5 165.6 28.1 Z M 174 19.9 C 174 19.9 174 13.5 174 13.5 C 173.4 12.2 172.1 11.1 170.7 11.1 C 168.3 11.1 167.2 13.6 167.2 16.7 C 167.2 19.8 168.3 22.3 170.7 22.3 C 172.1 22.3 173.4 21.1 174 19.9 Z M 179.8 24 L 179.8 4 L 181.9 4 L 181.9 24 L 179.8 24 Z M 193.4 24 C 193.4 24 193.37 22.01 193.4 22 C 192.5 23.3 191 24.4 189.2 24.4 C 186.7 24.4 185.5 23.2 185.5 20.5 C 185.54 20.51 185.5 9.5 185.5 9.5 L 187.7 9.5 C 187.7 9.5 187.67 19.88 187.7 19.9 C 187.7 21.8 188.6 22.5 190 22.5 C 191.4 22.5 192.7 21.4 193.4 20.2 C 193.37 20.21 193.4 9.5 193.4 9.5 L 195.5 9.5 L 195.5 24 L 193.4 24 Z M 198.5 16.8 C 198.5 12.6 200.7 9.2 204.4 9.2 C 208.2 9.2 210.1 12.6 210.1 16.8 C 210.08 16.82 210.1 17.5 210.1 17.5 C 210.1 17.5 200.69 17.48 200.7 17.5 C 200.8 20.4 202.3 22.6 204.9 22.6 C 206.1 22.6 207.4 22 208.3 20.8 C 208.3 20.8 209.5 22.1 209.5 22.1 C 208.3 23.5 206.6 24.4 204.7 24.4 C 200.8 24.4 198.5 21.2 198.5 16.8 Z M 204.3 11 C 201.8 11 200.8 13.8 200.7 15.9 C 200.7 15.9 208 15.9 208 15.9 C 207.9 13.7 207 11 204.3 11 Z M 213.6 27.8 C 213.6 27.8 212.5 26.9 212.5 26.9 C 213.5 26.3 214.3 25.1 214.5 24.1 C 214.4 24.1 214.2 24.2 214.1 24.2 C 213.3 24.2 212.7 23.5 212.7 22.7 C 212.7 21.8 213.3 21.1 214.2 21.1 C 215.2 21.1 216 21.9 216 23.4 C 216 25.2 215 26.8 213.6 27.8 Z M 229.8 24 L 229.8 15.6 L 223.6 4 L 226.3 4 L 231 13.3 L 235.7 4 L 238.4 4 L 232.2 15.6 L 232.2 24 L 229.8 24 Z M 236.7 16.8 C 236.7 12.6 238.9 9.2 242.6 9.2 C 246.4 9.2 248.3 12.6 248.3 16.8 C 248.3 16.82 248.3 17.5 248.3 17.5 C 248.3 17.5 238.91 17.48 238.9 17.5 C 239 20.4 240.5 22.6 243.1 22.6 C 244.3 22.6 245.6 22 246.5 20.8 C 246.5 20.8 247.7 22.1 247.7 22.1 C 246.5 23.5 244.9 24.4 242.9 24.4 C 239 24.4 236.7 21.2 236.7 16.8 Z M 242.5 11 C 240 11 239 13.8 238.9 15.9 C 238.9 15.9 246.2 15.9 246.2 15.9 C 246.1 13.7 245.2 11 242.5 11 Z M 251.2 24 L 251.2 4 L 253.3 4 L 253.3 24 L 251.2 24 Z M 256.9 24 L 256.9 4 L 259.1 4 L 259.1 24 L 256.9 24 Z M 262 16.8 C 262 12.7 264.1 9.2 267.9 9.2 C 271.8 9.2 273.8 12.7 273.8 16.8 C 273.8 20.8 271.8 24.4 267.9 24.4 C 264.1 24.4 262 20.8 262 16.8 Z M 271.6 16.8 C 271.6 13.9 270.4 11.1 267.9 11.1 C 265.4 11.1 264.3 13.9 264.3 16.8 C 264.3 19.7 265.4 22.5 267.9 22.5 C 270.4 22.5 271.6 19.7 271.6 16.8 Z M 287.4 24 L 284.3 12.4 L 281.2 24 L 279 24 L 275.2 9.5 L 277.4 9.5 L 280.2 21.1 L 283.3 9.5 L 285.3 9.5 L 288.4 21.1 L 291.3 9.5 L 293.5 9.5 L 289.6 24 L 287.4 24 Z M 301.3 21.1 C 301.3 21.1 302.9 19.7 302.9 19.7 C 303.9 21.3 305.2 22.3 307.1 22.3 C 309.3 22.3 310.7 20.2 310.7 17.9 C 310.7 15.1 309.3 13.5 307.3 13.5 C 305.9 13.5 304.8 14 303.6 15.4 C 303.65 15.35 301.9 14.8 301.9 14.8 L 301.9 4 L 312.1 4 L 312.1 6.1 L 304.2 6.1 C 304.2 6.1 304.25 13.13 304.2 13.1 C 305 12.2 306.3 11.4 307.9 11.4 C 310.8 11.4 313.1 13.7 313.1 17.8 C 313.1 21.6 310.7 24.4 307.2 24.4 C 304.2 24.4 302.5 23.1 301.3 21.1 Z M 317 27.8 C 317 27.8 315.9 26.9 315.9 26.9 C 316.8 26.3 317.7 25.1 317.8 24.1 C 317.7 24.1 317.5 24.2 317.4 24.2 C 316.6 24.2 316 23.5 316 22.7 C 316 21.8 316.7 21.1 317.6 21.1 C 318.5 21.1 319.4 21.9 319.4 23.4 C 319.4 25.2 318.3 26.8 317 27.8 Z M 333.2 24 L 333.2 15.6 L 327 4 L 329.7 4 L 334.4 13.3 L 339.1 4 L 341.7 4 L 335.5 15.6 L 335.5 24 L 333.2 24 Z M 340 16.8 C 340 12.6 342.3 9.2 345.9 9.2 C 349.7 9.2 351.6 12.6 351.6 16.8 C 351.65 16.82 351.6 17.5 351.6 17.5 C 351.6 17.5 342.26 17.48 342.3 17.5 C 342.3 20.4 343.8 22.6 346.4 22.6 C 347.7 22.6 349 22 349.9 20.8 C 349.9 20.8 351 22.1 351 22.1 C 349.8 23.5 348.2 24.4 346.2 24.4 C 342.4 24.4 340 21.2 340 16.8 Z M 345.9 11 C 343.3 11 342.3 13.8 342.3 15.9 C 342.3 15.9 349.5 15.9 349.5 15.9 C 349.5 13.7 348.5 11 345.9 11 Z M 354.5 24 L 354.5 4 L 356.6 4 L 356.6 24 L 354.5 24 Z M 360.3 24 L 360.3 4 L 362.4 4 L 362.4 24 L 360.3 24 Z M 365.4 16.8 C 365.4 12.7 367.4 9.2 371.2 9.2 C 375.1 9.2 377.1 12.7 377.1 16.8 C 377.1 20.8 375.1 24.4 371.2 24.4 C 367.4 24.4 365.4 20.8 365.4 16.8 Z M 374.9 16.8 C 374.9 13.9 373.8 11.1 371.2 11.1 C 368.7 11.1 367.6 13.9 367.6 16.8 C 367.6 19.7 368.7 22.5 371.2 22.5 C 373.8 22.5 374.9 19.7 374.9 16.8 Z M 390.8 24 L 387.7 12.4 L 384.6 24 L 382.4 24 L 378.5 9.5 L 380.7 9.5 L 383.6 21.1 L 386.6 9.5 L 388.7 9.5 L 391.8 21.1 L 394.6 9.5 L 396.9 9.5 L 393 24 L 390.8 24 Z M 404.5 14 C 404.5 8.7 406.4 3.7 411.3 3.7 C 413.4 3.7 414.9 4.7 415.9 6.2 C 415.9 6.2 414.6 7.9 414.6 7.9 C 413.9 6.6 412.9 5.8 411.3 5.8 C 408.1 5.8 406.9 10 406.9 13.8 C 406.9 14.1 406.9 14.2 406.9 14.4 C 407.6 13 409.3 11.5 411.3 11.5 C 414.3 11.5 416.6 13.6 416.6 17.9 C 416.6 21.3 414.5 24.4 410.8 24.4 C 406.1 24.4 404.5 19.4 404.5 14 Z M 414.2 17.9 C 414.2 14.8 412.6 13.6 410.7 13.6 C 409.1 13.6 407.7 15 407 16.6 C 407.1 18.9 407.9 22.3 410.7 22.3 C 413.1 22.3 414.2 20 414.2 17.9 Z M 420.3 27.8 C 420.3 27.8 419.3 26.9 419.3 26.9 C 420.2 26.3 421.1 25.1 421.2 24.1 C 421.1 24.1 420.9 24.2 420.8 24.2 C 420 24.2 419.4 23.5 419.4 22.7 C 419.4 21.8 420 21.1 420.9 21.1 C 421.9 21.1 422.7 21.9 422.7 23.4 C 422.7 25.2 421.7 26.8 420.3 27.8 Z M 441.5 24 L 437.6 16 L 434.7 16 L 434.7 24 L 432.3 24 L 432.3 4 C 432.3 4 438.47 4.01 438.5 4 C 441.7 4 444 6.3 444 10 C 444 13.6 441.9 15.3 440 15.7 C 439.97 15.65 444.2 24 444.2 24 L 441.5 24 Z M 441.5 10 C 441.5 7.7 440.3 6.1 438.2 6.1 C 438.2 6.11 434.7 6.1 434.7 6.1 L 434.7 13.9 C 434.7 13.9 438.2 13.91 438.2 13.9 C 440.3 13.9 441.5 12.3 441.5 10 Z M 445.7 16.8 C 445.7 12.6 447.9 9.2 451.6 9.2 C 455.4 9.2 457.3 12.6 457.3 16.8 C 457.34 16.82 457.3 17.5 457.3 17.5 C 457.3 17.5 447.95 17.48 447.9 17.5 C 448 20.4 449.5 22.6 452.1 22.6 C 453.4 22.6 454.7 22 455.6 20.8 C 455.6 20.8 456.7 22.1 456.7 22.1 C 455.5 23.5 453.9 24.4 451.9 24.4 C 448.1 24.4 445.7 21.2 445.7 16.8 Z M 451.6 11 C 449 11 448 13.8 447.9 15.9 C 447.9 15.9 455.2 15.9 455.2 15.9 C 455.2 13.7 454.2 11 451.6 11 Z M 468.5 24 C 468.5 24 468.47 21.95 468.5 22 C 467.6 23.4 466.2 24.4 464.7 24.4 C 461.4 24.4 459.5 21.4 459.5 16.8 C 459.5 12.3 461.4 9.2 464.7 9.2 C 466.1 9.2 467.6 10 468.5 11.6 C 468.47 11.63 468.5 4 468.5 4 L 470.6 4 L 470.6 24 L 468.5 24 Z M 468.5 20.1 C 468.5 20.1 468.5 13.5 468.5 13.5 C 467.9 12.2 466.6 11.1 465.2 11.1 C 462.8 11.1 461.7 13.6 461.7 16.8 C 461.7 19.9 462.8 22.5 465.2 22.5 C 466.6 22.5 467.9 21.4 468.5 20.1 Z M 487.1 24 L 487.1 18.9 L 479.1 18.9 L 479.1 16.8 L 486.4 4 L 489.4 4 L 489.4 16.8 L 491.6 16.8 L 491.6 18.9 L 489.4 18.9 L 489.4 24 L 487.1 24 Z M 487.1 6.6 L 481.3 16.8 L 487.1 16.8 L 487.1 6.6 Z M 493.4 14 C 493.4 9.2 495 3.7 499.7 3.7 C 504.4 3.7 506 9.2 506 14 C 506 18.8 504.4 24.4 499.7 24.4 C 495 24.4 493.4 18.8 493.4 14 Z M 503.5 14 C 503.5 10.1 502.8 5.8 499.7 5.8 C 496.6 5.8 495.9 10.1 495.9 14 C 495.9 18 496.6 22.3 499.7 22.3 C 502.8 22.3 503.5 18 503.5 14 Z M 509.9 27.8 C 509.9 27.8 508.8 26.9 508.8 26.9 C 509.7 26.3 510.6 25.1 510.7 24.1 C 510.6 24.1 510.4 24.2 510.3 24.2 C 509.5 24.2 508.9 23.5 508.9 22.7 C 508.9 21.8 509.6 21.1 510.5 21.1 C 511.4 21.1 512.3 21.9 512.3 23.4 C 512.3 25.2 511.2 26.8 509.9 27.8 Z M 529.2 24 C 529.2 24 529.19 22.46 529.2 22.5 C 528.3 23.8 526.8 24.4 525.4 24.4 C 523 24.4 521 22.6 521 19.6 C 521 16.5 523 14.8 525.4 14.8 C 526.8 14.8 528.3 15.4 529.2 16.6 C 529.2 16.6 529.2 14.1 529.2 14.1 C 529.2 12.1 528.1 11 526.2 11 C 524.9 11 523.7 11.5 522.6 12.8 C 522.6 12.8 521.6 11.3 521.6 11.3 C 523 9.8 524.7 9.2 526.5 9.2 C 529.4 9.2 531.3 10.6 531.3 13.9 C 531.35 13.88 531.3 24 531.3 24 L 529.2 24 Z M 529.2 21 C 529.2 21 529.2 18.2 529.2 18.2 C 528.5 17 527.3 16.4 526.1 16.4 C 524.3 16.4 523.2 17.8 523.2 19.6 C 523.2 21.4 524.3 22.8 526.1 22.8 C 527.3 22.8 528.5 22.2 529.2 21 Z M 542.8 24 C 542.8 24 542.81 13.7 542.8 13.7 C 542.8 11.8 541.9 11.1 540.5 11.1 C 539.1 11.1 537.8 12.2 537.1 13.4 C 537.11 13.4 537.1 24 537.1 24 L 535 24 L 535 9.5 L 537.1 9.5 C 537.1 9.5 537.11 11.6 537.1 11.6 C 537.9 10.3 539.6 9.2 541.3 9.2 C 543.8 9.2 545 10.5 545 13.1 C 544.97 13.1 545 24 545 24 L 542.8 24 Z M 556.9 24 C 556.9 24 556.9 21.95 556.9 22 C 556.1 23.4 554.6 24.4 553.1 24.4 C 549.9 24.4 547.9 21.4 547.9 16.8 C 547.9 12.3 549.8 9.2 553.1 9.2 C 554.6 9.2 556 10 556.9 11.6 C 556.9 11.63 556.9 4 556.9 4 L 559.1 4 L 559.1 24 L 556.9 24 Z M 556.9 20.1 C 556.9 20.1 556.9 13.5 556.9 13.5 C 556.4 12.2 555 11.1 553.6 11.1 C 551.3 11.1 550.2 13.6 550.2 16.8 C 550.2 19.9 551.3 22.5 553.6 22.5 C 555 22.5 556.4 21.4 556.9 20.1 Z M 569 24 L 569 4 C 569 4 575.62 4.01 575.6 4 C 578.8 4 580.6 6.1 580.6 9.1 C 580.6 11.6 579.3 13.2 577.5 13.7 C 579.5 14 580.9 16.2 580.9 18.6 C 580.9 21.9 579.2 24 575.8 24 C 575.8 24.02 569 24 569 24 Z M 578.1 9.4 C 578.1 7.6 577.2 6.1 575.2 6.1 C 575.17 6.11 571.4 6.1 571.4 6.1 L 571.4 12.7 C 571.4 12.7 575.17 12.74 575.2 12.7 C 577.2 12.7 578.1 11.3 578.1 9.4 Z M 578.4 18.4 C 578.4 16.5 577.5 14.8 575.3 14.8 C 575.32 14.84 571.4 14.8 571.4 14.8 L 571.4 21.9 C 571.4 21.9 575.32 21.89 575.3 21.9 C 577.4 21.9 578.4 20.6 578.4 18.4 Z M 584.1 24 L 584.1 4 L 586.2 4 L 586.2 24 L 584.1 24 Z M 597.7 24 C 597.7 24 597.67 22.01 597.7 22 C 596.8 23.3 595.3 24.4 593.5 24.4 C 591 24.4 589.8 23.2 589.8 20.5 C 589.84 20.51 589.8 9.5 589.8 9.5 L 592 9.5 C 592 9.5 591.97 19.88 592 19.9 C 592 21.8 592.9 22.5 594.3 22.5 C 595.7 22.5 597 21.4 597.7 20.2 C 597.67 20.21 597.7 9.5 597.7 9.5 L 599.8 9.5 L 599.8 24 L 597.7 24 Z M 602.8 16.8 C 602.8 12.6 605 9.2 608.7 9.2 C 612.5 9.2 614.4 12.6 614.4 16.8 C 614.38 16.82 614.4 17.5 614.4 17.5 C 614.4 17.5 604.99 17.48 605 17.5 C 605.1 20.4 606.6 22.6 609.2 22.6 C 610.4 22.6 611.7 22 612.6 20.8 C 612.6 20.8 613.8 22.1 613.8 22.1 C 612.6 23.5 610.9 24.4 609 24.4 C 605.1 24.4 602.8 21.2 602.8 16.8 Z M 608.6 11 C 606.1 11 605.1 13.8 605 15.9 C 605 15.9 612.3 15.9 612.3 15.9 C 612.2 13.7 611.3 11 608.6 11 Z M 626.4 24 L 626.4 7.2 L 623.3 10.5 L 621.9 9 L 626.7 4 L 628.8 4 L 628.8 24 L 626.4 24 Z M 632.4 22.7 C 632.4 21.9 633.1 21.1 634 21.1 C 634.8 21.1 635.6 21.9 635.6 22.7 C 635.6 23.6 634.8 24.3 634 24.3 C 633.1 24.3 632.4 23.6 632.4 22.7 Z " stroke="none" fill="#efd8d3"/>  </g></svg>