<?xml version="1.0" standalone="no"?><!DOCTYPE svg PUBLIC "-//W3C//DTD SVG 1.1//EN" "http://www.w3.org/Graphics/SVG/1.1/DTD/svg11.dtd"><svg xmlns="http://www.w3.org/2000/svg" version="1.1" width="682px" height="104px" viewBox="0 0 682 104">  <desc>Chilli crab, Johor Bahru, Johor, Malaysia, circa November 2019 (recovered)</desc>  <defs/>  <g id="Polygon140728">    <path d="M 61.5 72.8 C 61.5 72.8 62.3 71.4 62.3 71.4 C 62.9 72.1 63.7 72.6 64.7 72.6 C 66.3 72.6 67.2 71.6 67.2 69.9 C 67.24 69.87 67.2 58 67.2 58 L 69.1 58 C 69.1 58 69.14 69.92 69.1 69.9 C 69.1 72.9 67.3 74.3 64.8 74.3 C 63.5 74.3 62.4 73.9 61.5 72.8 Z M 71.8 68.2 C 71.8 65 73.5 62.1 76.5 62.1 C 79.7 62.1 81.3 65 81.3 68.2 C 81.3 71.5 79.7 74.3 76.5 74.3 C 73.5 74.3 71.8 71.5 71.8 68.2 Z M 79.5 68.2 C 79.5 65.9 78.6 63.7 76.5 63.7 C 74.5 63.7 73.6 65.9 73.6 68.2 C 73.6 70.6 74.5 72.8 76.5 72.8 C 78.6 72.8 79.5 70.6 79.5 68.2 Z M 90.1 74 C 90.1 74 90.14 65.75 90.1 65.7 C 90.1 64.2 89.4 63.7 88.3 63.7 C 87.1 63.7 86.1 64.6 85.6 65.5 C 85.56 65.53 85.6 74 85.6 74 L 83.9 74 L 83.9 58 L 85.6 58 C 85.6 58 85.56 64.09 85.6 64.1 C 86.2 63.1 87.5 62.1 88.9 62.1 C 90.9 62.1 91.8 63.1 91.8 65.2 C 91.84 65.24 91.8 74 91.8 74 L 90.1 74 Z M 94.4 68.2 C 94.4 65 96.1 62.1 99.1 62.1 C 102.3 62.1 103.9 65 103.9 68.2 C 103.9 71.5 102.3 74.3 99.1 74.3 C 96.1 74.3 94.4 71.5 94.4 68.2 Z M 102.1 68.2 C 102.1 65.9 101.2 63.7 99.1 63.7 C 97.1 63.7 96.2 65.9 96.2 68.2 C 96.2 70.6 97.1 72.8 99.1 72.8 C 101.2 72.8 102.1 70.6 102.1 68.2 Z M 106.5 74 L 106.5 62.4 L 108.2 62.4 C 108.2 62.4 108.16 64.28 108.2 64.3 C 108.9 63.1 110 62.2 111.5 62.2 C 111.5 62.2 111.5 64 111.5 64 C 111.3 63.9 111.1 63.9 110.9 63.9 C 109.8 63.9 108.6 64.8 108.2 65.8 C 108.16 65.79 108.2 74 108.2 74 L 106.5 74 Z M 118.7 74 L 118.7 58 C 118.7 58 124 58.02 124 58 C 126.5 58 128 59.7 128 62.1 C 128 64.1 126.9 65.4 125.5 65.8 C 127.1 66 128.2 67.8 128.2 69.7 C 128.2 72.3 126.8 74 124.1 74 C 124.15 74.03 118.7 74 118.7 74 Z M 126 62.4 C 126 60.9 125.3 59.7 123.6 59.7 C 123.64 59.7 120.6 59.7 120.6 59.7 L 120.6 65 C 120.6 65 123.64 65 123.6 65 C 125.3 65 126 63.8 126 62.4 Z M 126.3 69.5 C 126.3 68 125.5 66.7 123.8 66.7 C 123.76 66.68 120.6 66.7 120.6 66.7 L 120.6 72.3 C 120.6 72.3 123.76 72.32 123.8 72.3 C 125.4 72.3 126.3 71.3 126.3 69.5 Z M 136.9 74 C 136.9 74 136.94 72.78 136.9 72.8 C 136.2 73.8 135.1 74.3 133.9 74.3 C 132 74.3 130.4 72.9 130.4 70.4 C 130.4 68 132 66.6 133.9 66.6 C 135.1 66.6 136.2 67.1 136.9 68.1 C 136.9 68.1 136.9 66.1 136.9 66.1 C 136.9 64.5 136.1 63.6 134.6 63.6 C 133.5 63.6 132.5 64 131.7 65 C 131.7 65 130.9 63.8 130.9 63.8 C 132 62.7 133.4 62.1 134.8 62.1 C 137.1 62.1 138.7 63.3 138.7 65.9 C 138.67 65.91 138.7 74 138.7 74 L 136.9 74 Z M 136.9 71.6 C 136.9 71.6 136.9 69.4 136.9 69.4 C 136.4 68.4 135.5 67.9 134.4 67.9 C 133 67.9 132.1 69 132.1 70.5 C 132.1 71.9 133 73.1 134.4 73.1 C 135.5 73.1 136.4 72.6 136.9 71.6 Z M 148.1 74 C 148.1 74 148.1 65.75 148.1 65.7 C 148.1 64.2 147.4 63.7 146.2 63.7 C 145.1 63.7 144 64.6 143.5 65.5 C 143.51 65.53 143.5 74 143.5 74 L 141.8 74 L 141.8 58 L 143.5 58 C 143.5 58 143.51 64.09 143.5 64.1 C 144.2 63.1 145.5 62.1 146.9 62.1 C 148.9 62.1 149.8 63.1 149.8 65.2 C 149.8 65.24 149.8 74 149.8 74 L 148.1 74 Z M 153 74 L 153 62.4 L 154.7 62.4 C 154.7 62.4 154.67 64.28 154.7 64.3 C 155.4 63.1 156.5 62.2 158 62.2 C 158 62.2 158 64 158 64 C 157.8 63.9 157.6 63.9 157.4 63.9 C 156.3 63.9 155.2 64.8 154.7 65.8 C 154.67 65.79 154.7 74 154.7 74 L 153 74 Z M 166.2 74 C 166.2 74 166.22 72.42 166.2 72.4 C 165.5 73.4 164.3 74.3 162.9 74.3 C 160.9 74.3 160 73.3 160 71.2 C 159.95 71.22 160 62.4 160 62.4 L 161.7 62.4 C 161.7 62.4 161.66 70.71 161.7 70.7 C 161.7 72.2 162.4 72.8 163.5 72.8 C 164.7 72.8 165.7 71.9 166.2 71 C 166.22 70.98 166.2 62.4 166.2 62.4 L 167.9 62.4 L 167.9 74 L 166.2 74 Z M 171.8 77 C 171.8 77 170.9 76.4 170.9 76.4 C 171.7 75.8 172.3 74.9 172.4 74.1 C 172.4 74.1 172.2 74.1 172.1 74.1 C 171.5 74.1 171 73.6 171 73 C 171 72.3 171.5 71.7 172.2 71.7 C 173 71.7 173.7 72.3 173.7 73.5 C 173.7 74.9 172.8 76.3 171.8 77 Z M 180.4 72.8 C 180.4 72.8 181.2 71.4 181.2 71.4 C 181.8 72.1 182.6 72.6 183.6 72.6 C 185.2 72.6 186.1 71.6 186.1 69.9 C 186.14 69.87 186.1 58 186.1 58 L 188 58 C 188 58 188.03 69.92 188 69.9 C 188 72.9 186.2 74.3 183.7 74.3 C 182.4 74.3 181.3 73.9 180.4 72.8 Z M 190.7 68.2 C 190.7 65 192.4 62.1 195.4 62.1 C 198.5 62.1 200.2 65 200.2 68.2 C 200.2 71.5 198.5 74.3 195.4 74.3 C 192.4 74.3 190.7 71.5 190.7 68.2 Z M 198.4 68.2 C 198.4 65.9 197.5 63.7 195.4 63.7 C 193.4 63.7 192.5 65.9 192.5 68.2 C 192.5 70.6 193.4 72.8 195.4 72.8 C 197.5 72.8 198.4 70.6 198.4 68.2 Z M 209 74 C 209 74 209.03 65.75 209 65.7 C 209 64.2 208.3 63.7 207.2 63.7 C 206 63.7 205 64.6 204.4 65.5 C 204.45 65.53 204.4 74 204.4 74 L 202.7 74 L 202.7 58 L 204.4 58 C 204.4 58 204.45 64.09 204.4 64.1 C 205.1 63.1 206.4 62.1 207.8 62.1 C 209.8 62.1 210.7 63.1 210.7 65.2 C 210.74 65.24 210.7 74 210.7 74 L 209 74 Z M 213.3 68.2 C 213.3 65 215 62.1 218 62.1 C 221.2 62.1 222.8 65 222.8 68.2 C 222.8 71.5 221.2 74.3 218 74.3 C 215 74.3 213.3 71.5 213.3 68.2 Z M 221 68.2 C 221 65.9 220.1 63.7 218 63.7 C 216 63.7 215.1 65.9 215.1 68.2 C 215.1 70.6 216 72.8 218 72.8 C 220.1 72.8 221 70.6 221 68.2 Z M 225.4 74 L 225.4 62.4 L 227.1 62.4 C 227.1 62.4 227.06 64.28 227.1 64.3 C 227.8 63.1 228.9 62.2 230.3 62.2 C 230.3 62.2 230.3 64 230.3 64 C 230.2 63.9 230 63.9 229.8 63.9 C 228.7 63.9 227.5 64.8 227.1 65.8 C 227.06 65.79 227.1 74 227.1 74 L 225.4 74 Z M 231.2 77 C 231.2 77 230.4 76.4 230.4 76.4 C 231.1 75.8 231.8 74.9 231.9 74.1 C 231.9 74.1 231.7 74.1 231.6 74.1 C 230.9 74.1 230.5 73.6 230.5 73 C 230.5 72.3 231 71.7 231.7 71.7 C 232.5 71.7 233.2 72.3 233.2 73.5 C 233.2 74.9 232.3 76.3 231.2 77 Z M 252.5 74 L 252.5 61.4 L 248.2 74 L 247.5 74 L 243.2 61.4 L 243.2 74 L 241.3 74 L 241.3 58 L 244 58 L 247.8 69.4 L 251.7 58 L 254.3 58 L 254.3 74 L 252.5 74 Z M 263.6 74 C 263.6 74 263.56 72.78 263.6 72.8 C 262.8 73.8 261.7 74.3 260.5 74.3 C 258.6 74.3 257 72.9 257 70.4 C 257 68 258.6 66.6 260.5 66.6 C 261.7 66.6 262.8 67.1 263.6 68.1 C 263.6 68.1 263.6 66.1 263.6 66.1 C 263.6 64.5 262.7 63.6 261.2 63.6 C 260.1 63.6 259.2 64 258.3 65 C 258.3 65 257.5 63.8 257.5 63.8 C 258.6 62.7 260 62.1 261.4 62.1 C 263.8 62.1 265.3 63.3 265.3 65.9 C 265.29 65.91 265.3 74 265.3 74 L 263.6 74 Z M 263.6 71.6 C 263.6 71.6 263.6 69.4 263.6 69.4 C 263 68.4 262.1 67.9 261.1 67.9 C 259.6 67.9 258.8 69 258.8 70.5 C 258.8 71.9 259.6 73.1 261.1 73.1 C 262.1 73.1 263 72.6 263.6 71.6 Z M 268.4 74 L 268.4 58 L 270.1 58 L 270.1 74 L 268.4 74 Z M 279.3 74 C 279.3 74 279.26 72.78 279.3 72.8 C 278.5 73.8 277.4 74.3 276.2 74.3 C 274.3 74.3 272.7 72.9 272.7 70.4 C 272.7 68 274.3 66.6 276.2 66.6 C 277.4 66.6 278.5 67.1 279.3 68.1 C 279.3 68.1 279.3 66.1 279.3 66.1 C 279.3 64.5 278.4 63.6 276.9 63.6 C 275.8 63.6 274.9 64 274 65 C 274 65 273.2 63.8 273.2 63.8 C 274.3 62.7 275.7 62.1 277.1 62.1 C 279.4 62.1 281 63.3 281 65.9 C 280.98 65.91 281 74 281 74 L 279.3 74 Z M 279.3 71.6 C 279.3 71.6 279.3 69.4 279.3 69.4 C 278.7 68.4 277.8 67.9 276.8 67.9 C 275.3 67.9 274.5 69 274.5 70.5 C 274.5 71.9 275.3 73.1 276.8 73.1 C 277.8 73.1 278.7 72.6 279.3 71.6 Z M 283.8 77 C 284 77.1 284.4 77.2 284.6 77.2 C 285.2 77.2 285.6 76.9 285.9 76 C 285.93 76.04 286.6 74.3 286.6 74.3 L 282.7 62.4 L 284.6 62.4 L 287.4 71.9 L 290.3 62.4 L 292.2 62.4 C 292.2 62.4 287.56 76.47 287.6 76.5 C 287 78.2 286 78.7 284.7 78.7 C 284.3 78.7 283.8 78.7 283.5 78.6 C 283.5 78.6 283.8 77 283.8 77 Z M 293 72.7 C 293 72.7 293.8 71.5 293.8 71.5 C 294.5 72.3 295.6 72.9 296.9 72.9 C 298.2 72.9 299.1 72.2 299.1 71 C 299.1 68.3 293.3 69.3 293.3 65.3 C 293.3 63.5 294.7 62.1 297 62.1 C 298.6 62.1 299.7 62.7 300.5 63.6 C 300.5 63.6 299.7 64.8 299.7 64.8 C 299.2 64 298.2 63.5 297 63.5 C 295.8 63.5 295 64.3 295 65.2 C 295 67.7 300.8 66.8 300.8 71 C 300.8 72.9 299.3 74.3 296.9 74.3 C 295.3 74.3 293.9 73.8 293 72.7 Z M 302.9 59.6 C 302.9 58.9 303.4 58.4 304 58.4 C 304.7 58.4 305.2 58.9 305.2 59.6 C 305.2 60.2 304.7 60.8 304 60.8 C 303.4 60.8 302.9 60.2 302.9 59.6 Z M 303.2 74 L 303.2 62.4 L 304.9 62.4 L 304.9 74 L 303.2 74 Z M 314 74 C 314 74 314.03 72.78 314 72.8 C 313.3 73.8 312.2 74.3 311 74.3 C 309.1 74.3 307.5 72.9 307.5 70.4 C 307.5 68 309.1 66.6 311 66.6 C 312.2 66.6 313.3 67.1 314 68.1 C 314 68.1 314 66.1 314 66.1 C 314 64.5 313.2 63.6 311.7 63.6 C 310.6 63.6 309.6 64 308.8 65 C 308.8 65 308 63.8 308 63.8 C 309.1 62.7 310.5 62.1 311.9 62.1 C 314.2 62.1 315.8 63.3 315.8 65.9 C 315.76 65.91 315.8 74 315.8 74 L 314 74 Z M 314 71.6 C 314 71.6 314 69.4 314 69.4 C 313.5 68.4 312.5 67.9 311.5 67.9 C 310.1 67.9 309.2 69 309.2 70.5 C 309.2 71.9 310.1 73.1 311.5 73.1 C 312.5 73.1 313.5 72.6 314 71.6 Z M 319.6 77 C 319.6 77 318.7 76.4 318.7 76.4 C 319.5 75.8 320.1 74.9 320.2 74.1 C 320.2 74.1 320 74.1 319.9 74.1 C 319.3 74.1 318.8 73.6 318.8 73 C 318.8 72.3 319.3 71.7 320 71.7 C 320.8 71.7 321.5 72.3 321.5 73.5 C 321.5 74.9 320.6 76.3 319.6 77 Z M 329 68.2 C 329 64.8 330.8 62.1 333.8 62.1 C 335.4 62.1 336.4 62.8 337.1 63.7 C 337.1 63.7 336.1 64.9 336.1 64.9 C 335.5 64 334.8 63.7 333.9 63.7 C 331.8 63.7 330.8 65.7 330.8 68.2 C 330.8 70.7 331.8 72.8 333.9 72.8 C 334.8 72.8 335.5 72.4 336.1 71.6 C 336.1 71.6 337.1 72.8 337.1 72.8 C 336.4 73.7 335.4 74.3 333.8 74.3 C 330.8 74.3 329 71.6 329 68.2 Z M 338.9 59.6 C 338.9 58.9 339.5 58.4 340.1 58.4 C 340.8 58.4 341.3 58.9 341.3 59.6 C 341.3 60.2 340.8 60.8 340.1 60.8 C 339.5 60.8 338.9 60.2 338.9 59.6 Z M 339.3 74 L 339.3 62.4 L 341 62.4 L 341 74 L 339.3 74 Z M 344.1 74 L 344.1 62.4 L 345.9 62.4 C 345.9 62.4 345.85 64.28 345.9 64.3 C 346.6 63.1 347.7 62.2 349.1 62.2 C 349.1 62.2 349.1 64 349.1 64 C 348.9 63.9 348.8 63.9 348.6 63.9 C 347.5 63.9 346.3 64.8 345.9 65.8 C 345.85 65.79 345.9 74 345.9 74 L 344.1 74 Z M 350.6 68.2 C 350.6 64.8 352.4 62.1 355.4 62.1 C 357 62.1 357.9 62.8 358.7 63.7 C 358.7 63.7 357.7 64.9 357.7 64.9 C 357.1 64 356.4 63.7 355.5 63.7 C 353.4 63.7 352.4 65.7 352.4 68.2 C 352.4 70.7 353.4 72.8 355.5 72.8 C 356.4 72.8 357.1 72.4 357.7 71.6 C 357.7 71.6 358.7 72.8 358.7 72.8 C 357.9 73.7 357 74.3 355.4 74.3 C 352.4 74.3 350.6 71.6 350.6 68.2 Z M 366.8 74 C 366.8 74 366.83 72.78 366.8 72.8 C 366.1 73.8 365 74.3 363.8 74.3 C 361.9 74.3 360.3 72.9 360.3 70.4 C 360.3 68 361.9 66.6 363.8 66.6 C 365 66.6 366.1 67.1 366.8 68.1 C 366.8 68.1 366.8 66.1 366.8 66.1 C 366.8 64.5 366 63.6 364.5 63.6 C 363.4 63.6 362.4 64 361.5 65 C 361.5 65 360.8 63.8 360.8 63.8 C 361.9 62.7 363.3 62.1 364.7 62.1 C 367 62.1 368.6 63.3 368.6 65.9 C 368.56 65.91 368.6 74 368.6 74 L 366.8 74 Z M 366.8 71.6 C 366.8 71.6 366.8 69.4 366.8 69.4 C 366.3 68.4 365.3 67.9 364.3 67.9 C 362.9 67.9 362 69 362 70.5 C 362 71.9 362.9 73.1 364.3 73.1 C 365.3 73.1 366.3 72.6 366.8 71.6 Z M 385.5 74 L 378.9 62.1 L 378.9 74 L 377 74 L 377 58 L 378.9 58 L 385.4 69.7 L 385.4 58 L 387.3 58 L 387.3 74 L 385.5 74 Z M 390 68.2 C 390 65 391.6 62.1 394.7 62.1 C 397.8 62.1 399.4 65 399.4 68.2 C 399.4 71.5 397.8 74.3 394.7 74.3 C 391.6 74.3 390 71.5 390 68.2 Z M 397.6 68.2 C 397.6 65.9 396.8 63.7 394.7 63.7 C 392.7 63.7 391.8 65.9 391.8 68.2 C 391.8 70.6 392.7 72.8 394.7 72.8 C 396.8 72.8 397.6 70.6 397.6 68.2 Z M 404.4 74 L 400.6 62.4 L 402.5 62.4 L 405.3 72 L 408.3 62.4 L 410.1 62.4 L 406.3 74 L 404.4 74 Z M 411.3 68.2 C 411.3 64.9 413 62.1 416 62.1 C 419 62.1 420.5 64.9 420.5 68.3 C 420.54 68.27 420.5 68.8 420.5 68.8 C 420.5 68.8 413.03 68.79 413 68.8 C 413.1 71.1 414.3 72.9 416.4 72.9 C 417.4 72.9 418.4 72.4 419.1 71.5 C 419.1 71.5 420 72.5 420 72.5 C 419.1 73.6 417.8 74.3 416.2 74.3 C 413.1 74.3 411.3 71.8 411.3 68.2 Z M 415.9 63.6 C 413.9 63.6 413.1 65.8 413 67.5 C 413 67.5 418.8 67.5 418.8 67.5 C 418.8 65.7 418 63.6 415.9 63.6 Z M 434.8 74 C 434.8 74 434.77 65.63 434.8 65.6 C 434.8 64.4 434.3 63.7 433.2 63.7 C 432.1 63.7 431.1 64.6 430.6 65.5 C 430.64 65.53 430.6 74 430.6 74 L 428.9 74 C 428.9 74 428.92 65.63 428.9 65.6 C 428.9 64.4 428.4 63.7 427.3 63.7 C 426.3 63.7 425.3 64.6 424.8 65.5 C 424.76 65.53 424.8 74 424.8 74 L 423.1 74 L 423.1 62.4 L 424.8 62.4 C 424.8 62.4 424.76 64.09 424.8 64.1 C 425.2 63.2 426.5 62.1 427.9 62.1 C 429.4 62.1 430.3 63 430.5 64.2 C 431.1 63.2 432.4 62.1 433.8 62.1 C 435.5 62.1 436.5 63.1 436.5 65.2 C 436.5 65.17 436.5 74 436.5 74 L 434.8 74 Z M 444 72.8 C 445.9 72.8 446.8 70.7 446.8 68.2 C 446.8 65.7 445.9 63.7 444 63.7 C 442.9 63.7 441.8 64.6 441.4 65.6 C 441.4 65.6 441.4 70.9 441.4 70.9 C 441.8 71.9 442.9 72.8 444 72.8 Z M 439.7 74 L 439.7 58 L 441.4 58 C 441.4 58 441.37 64.11 441.4 64.1 C 442.1 62.8 443.2 62.1 444.4 62.1 C 447 62.1 448.6 64.6 448.6 68.2 C 448.6 71.9 447 74.3 444.4 74.3 C 443.2 74.3 442 73.5 441.4 72.4 C 441.37 72.37 441.4 74 441.4 74 L 439.7 74 Z M 450.6 68.2 C 450.6 64.9 452.4 62.1 455.3 62.1 C 458.4 62.1 459.9 64.9 459.9 68.3 C 459.9 68.27 459.9 68.8 459.9 68.8 C 459.9 68.8 452.39 68.79 452.4 68.8 C 452.5 71.1 453.7 72.9 455.7 72.9 C 456.7 72.9 457.8 72.4 458.5 71.5 C 458.5 71.5 459.4 72.5 459.4 72.5 C 458.5 73.6 457.1 74.3 455.6 74.3 C 452.5 74.3 450.6 71.8 450.6 68.2 Z M 455.3 63.6 C 453.3 63.6 452.4 65.8 452.4 67.5 C 452.4 67.5 458.2 67.5 458.2 67.5 C 458.2 65.7 457.4 63.6 455.3 63.6 Z M 462.4 74 L 462.4 62.4 L 464.1 62.4 C 464.1 62.4 464.12 64.28 464.1 64.3 C 464.9 63.1 466 62.2 467.4 62.2 C 467.4 62.2 467.4 64 467.4 64 C 467.2 63.9 467 63.9 466.8 63.9 C 465.8 63.9 464.6 64.8 464.1 65.8 C 464.12 65.79 464.1 74 464.1 74 L 462.4 74 Z M 474.3 74 C 474.3 74 474.25 72.47 474.3 72.5 C 479.5 66.4 481.3 64.5 481.3 62.1 C 481.3 60.4 480.1 59.5 478.7 59.5 C 477.2 59.5 476.1 60.2 475.3 61.5 C 475.3 61.5 474.1 60.3 474.1 60.3 C 475.1 58.7 476.7 57.8 478.7 57.8 C 481.2 57.8 483.2 59.4 483.2 62.1 C 483.2 64.8 481.2 67.2 477 72.3 C 476.96 72.32 483.3 72.3 483.3 72.3 L 483.3 74 L 474.3 74 Z M 485.8 66 C 485.8 62.2 487.1 57.8 490.9 57.8 C 494.6 57.8 495.9 62.2 495.9 66 C 495.9 69.9 494.6 74.3 490.9 74.3 C 487.1 74.3 485.8 69.9 485.8 66 Z M 493.9 66 C 493.9 62.9 493.3 59.5 490.9 59.5 C 488.4 59.5 487.8 62.9 487.8 66 C 487.8 69.2 488.4 72.6 490.9 72.6 C 493.3 72.6 493.9 69.2 493.9 66 Z M 501 74 L 501 60.5 L 498.5 63.2 L 497.4 62 L 501.2 58 L 502.9 58 L 502.9 74 L 501 74 Z M 506.1 72.3 C 506.1 72.3 507.2 71 507.2 71 C 507.8 72 508.5 72.6 509.8 72.6 C 512.4 72.6 513.3 69.2 513.3 66.2 C 513.3 66 513.3 65.9 513.3 65.7 C 512.7 66.8 511.4 68.1 509.8 68.1 C 507.4 68.1 505.6 66.4 505.6 63 C 505.6 60.2 507.2 57.8 510.2 57.8 C 514 57.8 515.2 61.8 515.2 66 C 515.2 70.3 513.7 74.3 509.8 74.3 C 508.1 74.3 506.9 73.5 506.1 72.3 Z M 513.2 64 C 513.2 62.2 512.5 59.5 510.3 59.5 C 508.4 59.5 507.5 61.3 507.5 62.9 C 507.5 65.5 508.7 66.4 510.2 66.4 C 511.6 66.4 512.7 65.3 513.2 64 Z M 525.5 78.8 C 523.6 75.7 522.6 72.1 522.6 68.2 C 522.6 64.3 523.6 60.7 525.5 57.6 C 525.5 57.6 526.6 58.2 526.6 58.2 C 525.3 61.3 524.5 64.2 524.5 68.2 C 524.5 72.2 525.3 75.1 526.6 78.1 C 526.6 78.1 525.5 78.8 525.5 78.8 Z M 528.6 74 L 528.6 62.4 L 530.3 62.4 C 530.3 62.4 530.31 64.28 530.3 64.3 C 531.1 63.1 532.2 62.2 533.6 62.2 C 533.6 62.2 533.6 64 533.6 64 C 533.4 63.9 533.2 63.9 533 63.9 C 532 63.9 530.8 64.8 530.3 65.8 C 530.31 65.79 530.3 74 530.3 74 L 528.6 74 Z M 535 68.2 C 535 64.9 536.8 62.1 539.7 62.1 C 542.8 62.1 544.3 64.9 544.3 68.3 C 544.3 68.27 544.3 68.8 544.3 68.8 C 544.3 68.8 536.79 68.79 536.8 68.8 C 536.9 71.1 538.1 72.9 540.1 72.9 C 541.1 72.9 542.2 72.4 542.9 71.5 C 542.9 71.5 543.8 72.5 543.8 72.5 C 542.9 73.6 541.5 74.3 540 74.3 C 536.9 74.3 535 71.8 535 68.2 Z M 539.7 63.6 C 537.7 63.6 536.8 65.8 536.8 67.5 C 536.8 67.5 542.6 67.5 542.6 67.5 C 542.6 65.7 541.8 63.6 539.7 63.6 Z M 546.2 68.2 C 546.2 64.8 548.1 62.1 551 62.1 C 552.7 62.1 553.6 62.8 554.4 63.7 C 554.4 63.7 553.4 64.9 553.4 64.9 C 552.8 64 552.1 63.7 551.2 63.7 C 549.1 63.7 548 65.7 548 68.2 C 548 70.7 549.1 72.8 551.2 72.8 C 552.1 72.8 552.8 72.4 553.4 71.6 C 553.4 71.6 554.4 72.8 554.4 72.8 C 553.6 73.7 552.7 74.3 551 74.3 C 548.1 74.3 546.2 71.6 546.2 68.2 Z M 556 68.2 C 556 65 557.6 62.1 560.7 62.1 C 563.8 62.1 565.4 65 565.4 68.2 C 565.4 71.5 563.8 74.3 560.7 74.3 C 557.6 74.3 556 71.5 556 68.2 Z M 563.6 68.2 C 563.6 65.9 562.7 63.7 560.7 63.7 C 558.7 63.7 557.8 65.9 557.8 68.2 C 557.8 70.6 558.7 72.8 560.7 72.8 C 562.7 72.8 563.6 70.6 563.6 68.2 Z M 570.4 74 L 566.6 62.4 L 568.4 62.4 L 571.3 72 L 574.2 62.4 L 576.1 62.4 L 572.3 74 L 570.4 74 Z M 577.2 68.2 C 577.2 64.9 579 62.1 581.9 62.1 C 585 62.1 586.5 64.9 586.5 68.3 C 586.52 68.27 586.5 68.8 586.5 68.8 C 586.5 68.8 579.01 68.79 579 68.8 C 579.1 71.1 580.3 72.9 582.3 72.9 C 583.4 72.9 584.4 72.4 585.1 71.5 C 585.1 71.5 586 72.5 586 72.5 C 585.1 73.6 583.8 74.3 582.2 74.3 C 579.1 74.3 577.2 71.8 577.2 68.2 Z M 581.9 63.6 C 579.9 63.6 579.1 65.8 579 67.5 C 579 67.5 584.8 67.5 584.8 67.5 C 584.8 65.7 584 63.6 581.9 63.6 Z M 589 74 L 589 62.4 L 590.7 62.4 C 590.7 62.4 590.74 64.28 590.7 64.3 C 591.5 63.1 592.6 62.2 594 62.2 C 594 62.2 594 64 594 64 C 593.8 63.9 593.6 63.9 593.5 63.9 C 592.4 63.9 591.2 64.8 590.7 65.8 C 590.74 65.79 590.7 74 590.7 74 L 589 74 Z M 595.4 68.2 C 595.4 64.9 597.2 62.1 600.2 62.1 C 603.2 62.1 604.7 64.9 604.7 68.3 C 604.74 68.27 604.7 68.8 604.7 68.8 C 604.7 68.8 597.22 68.79 597.2 68.8 C 597.3 71.1 598.5 72.9 600.6 72.9 C 601.6 72.9 602.6 72.4 603.3 71.5 C 603.3 71.5 604.2 72.5 604.2 72.5 C 603.3 73.6 602 74.3 600.4 74.3 C 597.3 74.3 595.4 71.8 595.4 68.2 Z M 600.1 63.6 C 598.1 63.6 597.3 65.8 597.2 67.5 C 597.2 67.5 603 67.5 603 67.5 C 603 65.7 602.2 63.6 600.1 63.6 Z M 613.9 74 C 613.9 74 613.88 72.37 613.9 72.4 C 613.2 73.5 612.1 74.3 610.8 74.3 C 608.2 74.3 606.7 71.9 606.7 68.2 C 606.7 64.6 608.2 62.1 610.8 62.1 C 612 62.1 613.2 62.8 613.9 64.1 C 613.88 64.11 613.9 58 613.9 58 L 615.6 58 L 615.6 74 L 613.9 74 Z M 613.9 70.9 C 613.9 70.9 613.9 65.6 613.9 65.6 C 613.4 64.6 612.4 63.7 611.3 63.7 C 609.4 63.7 608.5 65.7 608.5 68.2 C 608.5 70.7 609.4 72.8 611.3 72.8 C 612.4 72.8 613.4 71.9 613.9 70.9 Z M 617.6 78.1 C 618.9 75.1 619.7 72.2 619.7 68.2 C 619.7 64.2 618.9 61.3 617.6 58.2 C 617.6 58.2 618.7 57.6 618.7 57.6 C 620.6 60.7 621.6 64.3 621.6 68.2 C 621.6 72.1 620.6 75.7 618.7 78.8 C 618.7 78.8 617.6 78.1 617.6 78.1 Z " stroke="none" fill="#7c7979"/>  </g>  <g id="Polygon140727">    <path d="M 285.3 34 C 285.3 28 288.3 23.7 293 23.7 C 296.1 23.7 297.8 25.5 298.9 27.6 C 298.9 27.6 296.9 28.5 296.9 28.5 C 296.1 26.9 294.8 25.8 293 25.8 C 289.8 25.8 287.7 29.3 287.7 34 C 287.7 38.8 289.8 42.3 293 42.3 C 294.9 42.3 296.2 41 296.9 39.3 C 296.9 39.3 299 40.2 299 40.2 C 297.8 42.4 296.1 44.4 293 44.4 C 288.3 44.4 285.3 40 285.3 34 Z M 309.7 44 C 309.7 44 309.7 33.68 309.7 33.7 C 309.7 31.8 308.8 31.1 307.4 31.1 C 305.9 31.1 304.6 32.2 304 33.4 C 303.97 33.41 304 44 304 44 L 301.8 44 L 301.8 24 L 304 24 C 304 24 303.97 31.61 304 31.6 C 304.8 30.3 306.5 29.2 308.2 29.2 C 310.7 29.2 311.8 30.4 311.8 33 C 311.83 33.05 311.8 44 311.8 44 L 309.7 44 Z M 315.4 26 C 315.4 25.2 316.1 24.5 316.8 24.5 C 317.6 24.5 318.3 25.2 318.3 26 C 318.3 26.8 317.6 27.4 316.8 27.4 C 316.1 27.4 315.4 26.8 315.4 26 Z M 315.8 44 L 315.8 29.5 L 317.9 29.5 L 317.9 44 L 315.8 44 Z M 321.9 44 L 321.9 24 L 324 24 L 324 44 L 321.9 44 Z M 328 44 L 328 24 L 330.1 24 L 330.1 44 L 328 44 Z M 333.6 26 C 333.6 25.2 334.3 24.5 335.1 24.5 C 335.9 24.5 336.6 25.2 336.6 26 C 336.6 26.8 335.9 27.4 335.1 27.4 C 334.3 27.4 333.6 26.8 333.6 26 Z M 334.1 44 L 334.1 29.5 L 336.2 29.5 L 336.2 44 L 334.1 44 Z M 345.9 36.8 C 345.9 32.5 348.2 29.2 351.9 29.2 C 353.9 29.2 355.1 30 356 31.1 C 356 31.1 354.8 32.6 354.8 32.6 C 354.1 31.5 353.2 31.1 352.1 31.1 C 349.5 31.1 348.1 33.7 348.1 36.8 C 348.1 39.9 349.5 42.5 352.1 42.5 C 353.2 42.5 354.1 42 354.8 41 C 354.8 41 356 42.5 356 42.5 C 355.1 43.6 353.9 44.4 351.9 44.4 C 348.2 44.4 345.9 41.1 345.9 36.8 Z M 358.8 44 L 358.8 29.5 L 360.9 29.5 C 360.9 29.5 360.91 31.85 360.9 31.8 C 361.8 30.3 363.2 29.2 365 29.2 C 365 29.2 365 31.5 365 31.5 C 364.8 31.4 364.5 31.4 364.3 31.4 C 363 31.4 361.5 32.5 360.9 33.7 C 360.91 33.74 360.9 44 360.9 44 L 358.8 44 Z M 374.9 44 C 374.9 44 374.95 42.47 374.9 42.5 C 374 43.8 372.6 44.4 371.1 44.4 C 368.8 44.4 366.8 42.6 366.8 39.6 C 366.8 36.5 368.8 34.8 371.1 34.8 C 372.6 34.8 374 35.4 374.9 36.6 C 374.9 36.6 374.9 34.1 374.9 34.1 C 374.9 32.1 373.9 31 372 31 C 370.6 31 369.5 31.5 368.3 32.8 C 368.3 32.8 367.4 31.3 367.4 31.3 C 368.8 29.8 370.5 29.2 372.3 29.2 C 375.2 29.2 377.1 30.6 377.1 33.9 C 377.11 33.89 377.1 44 377.1 44 L 374.9 44 Z M 374.9 41 C 374.9 41 374.9 38.2 374.9 38.2 C 374.3 37 373.1 36.4 371.8 36.4 C 370 36.4 368.9 37.8 368.9 39.6 C 368.9 41.4 370 42.8 371.8 42.8 C 373.1 42.8 374.3 42.2 374.9 41 Z M 386.4 42.5 C 388.8 42.5 389.9 39.9 389.9 36.8 C 389.9 33.6 388.8 31.1 386.4 31.1 C 385.1 31.1 383.7 32.2 383.2 33.5 C 383.2 33.5 383.2 40.1 383.2 40.1 C 383.7 41.4 385.1 42.5 386.4 42.5 Z M 381 44 L 381 24 L 383.2 24 C 383.2 24 383.17 31.64 383.2 31.6 C 384.1 30 385.5 29.2 387 29.2 C 390.2 29.2 392.2 32.3 392.2 36.8 C 392.2 41.4 390.2 44.4 387 44.4 C 385.4 44.4 384 43.4 383.2 42 C 383.17 41.96 383.2 44 383.2 44 L 381 44 Z M 396 47.8 C 396 47.8 395 46.9 395 46.9 C 395.9 46.3 396.8 45.1 396.9 44.1 C 396.8 44.1 396.6 44.2 396.5 44.2 C 395.7 44.2 395.1 43.5 395.1 42.7 C 395.1 41.8 395.7 41.1 396.6 41.1 C 397.6 41.1 398.4 41.9 398.4 43.4 C 398.4 45.2 397.4 46.8 396 47.8 Z " stroke="none" fill="#a8a6a6"/>  </g></svg>