<?xml version="1.0" standalone="no"?><!DOCTYPE svg PUBLIC "-//W3C//DTD SVG 1.1//EN" "http://www.w3.org/Graphics/SVG/1.1/DTD/svg11.dtd"><svg xmlns="http://www.w3.org/2000/svg" version="1.1" width="637px" height="790.3px" viewBox="0 0 637 790.3">  <desc>At the end of the day, this satirical take of the future aims to be a reminder of the very real problem of food insec</desc>  <defs/>  <g id="Polygon113731">    <path d="M 7.5 220.1 L 7.5 202.2 L 2.7 202.2 L 2.7 200.1 L 14.6 200.1 L 14.6 202.2 L 9.8 202.2 L 9.8 220.1 L 7.5 220.1 Z M 25.2 220.1 C 25.2 220.1 25.2 209.75 25.2 209.8 C 25.2 207.8 24.3 207.2 22.9 207.2 C 21.5 207.2 20.1 208.3 19.5 209.5 C 19.47 209.48 19.5 220.1 19.5 220.1 L 17.3 220.1 L 17.3 200.1 L 19.5 200.1 C 19.5 200.1 19.47 207.68 19.5 207.7 C 20.3 206.4 22 205.3 23.7 205.3 C 26.2 205.3 27.3 206.5 27.3 209.1 C 27.33 209.12 27.3 220.1 27.3 220.1 L 25.2 220.1 Z M 38.7 220.1 C 38.7 220.1 38.73 218.54 38.7 218.5 C 37.8 219.9 36.4 220.5 34.9 220.5 C 32.6 220.5 30.5 218.7 30.5 215.6 C 30.5 212.6 32.6 210.9 34.9 210.9 C 36.4 210.9 37.8 211.4 38.7 212.7 C 38.7 212.7 38.7 210.2 38.7 210.2 C 38.7 208.2 37.7 207.1 35.8 207.1 C 34.4 207.1 33.2 207.6 32.1 208.9 C 32.1 208.9 31.2 207.4 31.2 207.4 C 32.6 205.9 34.3 205.3 36.1 205.3 C 39 205.3 40.9 206.7 40.9 210 C 40.89 209.96 40.9 220.1 40.9 220.1 L 38.7 220.1 Z M 38.7 217.1 C 38.7 217.1 38.7 214.3 38.7 214.3 C 38.1 213.1 36.9 212.5 35.6 212.5 C 33.8 212.5 32.7 213.9 32.7 215.7 C 32.7 217.5 33.8 218.9 35.6 218.9 C 36.9 218.9 38.1 218.3 38.7 217.1 Z M 52.7 220.1 C 52.7 220.1 52.65 209.78 52.7 209.8 C 52.7 207.9 51.8 207.2 50.3 207.2 C 48.9 207.2 47.6 208.3 47 209.5 C 46.95 209.48 47 220.1 47 220.1 L 44.8 220.1 L 44.8 205.6 L 47 205.6 C 47 205.6 46.95 207.68 47 207.7 C 47.8 206.4 49.4 205.3 51.2 205.3 C 53.6 205.3 54.8 206.6 54.8 209.2 C 54.81 209.18 54.8 220.1 54.8 220.1 L 52.7 220.1 Z M 66.9 220.1 L 62.9 213.6 L 60.9 216.2 L 60.9 220.1 L 58.8 220.1 L 58.8 200.1 L 60.9 200.1 L 60.9 213.5 L 66.9 205.6 L 69.5 205.6 L 64.4 212.1 L 69.5 220.1 L 66.9 220.1 Z M 77.9 223.9 C 78.2 224 78.7 224.1 78.9 224.1 C 79.7 224.1 80.2 223.7 80.6 222.6 C 80.61 222.62 81.4 220.4 81.4 220.4 L 76.6 205.6 L 78.9 205.6 L 82.5 217.5 L 86.1 205.6 L 88.4 205.6 C 88.4 205.6 82.65 223.16 82.7 223.2 C 81.9 225.3 80.8 226 79.1 226 C 78.6 226 77.9 225.9 77.6 225.8 C 77.6 225.8 77.9 223.9 77.9 223.9 Z M 89.9 212.8 C 89.9 208.8 91.9 205.3 95.8 205.3 C 99.7 205.3 101.7 208.8 101.7 212.8 C 101.7 216.9 99.7 220.5 95.8 220.5 C 91.9 220.5 89.9 216.9 89.9 212.8 Z M 99.4 212.8 C 99.4 209.9 98.3 207.2 95.8 207.2 C 93.3 207.2 92.1 209.9 92.1 212.8 C 92.1 215.8 93.3 218.5 95.8 218.5 C 98.3 218.5 99.4 215.8 99.4 212.8 Z M 112.7 220.1 C 112.7 220.1 112.74 218.09 112.7 218.1 C 111.9 219.4 110.3 220.5 108.5 220.5 C 106.1 220.5 104.9 219.2 104.9 216.6 C 104.91 216.59 104.9 205.6 104.9 205.6 L 107 205.6 C 107 205.6 107.04 215.96 107 216 C 107 217.9 107.9 218.5 109.4 218.5 C 110.8 218.5 112.1 217.5 112.7 216.3 C 112.74 216.29 112.7 205.6 112.7 205.6 L 114.9 205.6 L 114.9 220.1 L 112.7 220.1 Z M 128.3 220.1 L 123.5 205.6 L 125.9 205.6 L 129.5 217.6 L 133.1 205.6 L 135.4 205.6 L 130.6 220.1 L 128.3 220.1 Z M 136.8 212.8 C 136.8 208.6 139.1 205.3 142.7 205.3 C 146.5 205.3 148.4 208.7 148.4 212.9 C 148.44 212.9 148.4 213.6 148.4 213.6 C 148.4 213.6 139.05 213.56 139.1 213.6 C 139.1 216.5 140.6 218.7 143.2 218.7 C 144.5 218.7 145.8 218 146.7 216.9 C 146.7 216.9 147.8 218.2 147.8 218.2 C 146.6 219.6 145 220.5 143 220.5 C 139.2 220.5 136.8 217.3 136.8 212.8 Z M 142.7 207.1 C 140.1 207.1 139.1 209.8 139.1 212 C 139.1 212 146.3 212 146.3 212 C 146.3 209.8 145.3 207.1 142.7 207.1 Z M 151.6 220.1 L 151.6 205.6 L 153.7 205.6 C 153.7 205.6 153.72 207.92 153.7 207.9 C 154.7 206.4 156.1 205.3 157.8 205.3 C 157.8 205.3 157.8 207.5 157.8 207.5 C 157.6 207.5 157.4 207.4 157.1 207.4 C 155.8 207.4 154.3 208.6 153.7 209.8 C 153.72 209.81 153.7 220.1 153.7 220.1 L 151.6 220.1 Z M 159.9 223.9 C 160.2 224 160.6 224.1 160.9 224.1 C 161.7 224.1 162.2 223.7 162.6 222.6 C 162.57 222.62 163.4 220.4 163.4 220.4 L 158.5 205.6 L 160.9 205.6 L 164.5 217.5 L 168.1 205.6 L 170.4 205.6 C 170.4 205.6 164.61 223.16 164.6 223.2 C 163.9 225.3 162.7 226 161 226 C 160.6 226 159.9 225.9 159.6 225.8 C 159.6 225.8 159.9 223.9 159.9 223.9 Z M 193.7 220.1 C 193.7 220.1 193.65 209.6 193.7 209.6 C 193.7 208 193 207.2 191.6 207.2 C 190.4 207.2 189.1 208.3 188.5 209.5 C 188.49 209.48 188.5 220.1 188.5 220.1 L 186.3 220.1 C 186.3 220.1 186.33 209.6 186.3 209.6 C 186.3 208 185.7 207.2 184.3 207.2 C 183 207.2 181.8 208.3 181.1 209.5 C 181.14 209.48 181.1 220.1 181.1 220.1 L 179 220.1 L 179 205.6 L 181.1 205.6 C 181.1 205.6 181.14 207.68 181.1 207.7 C 181.7 206.6 183.4 205.3 185.1 205.3 C 187 205.3 188.1 206.3 188.4 207.8 C 189.1 206.5 190.7 205.3 192.5 205.3 C 194.6 205.3 195.8 206.4 195.8 209 C 195.81 209.03 195.8 220.1 195.8 220.1 L 193.7 220.1 Z M 207.6 220.1 C 207.6 220.1 207.6 218.09 207.6 218.1 C 206.7 219.4 205.2 220.5 203.4 220.5 C 200.9 220.5 199.8 219.2 199.8 216.6 C 199.77 216.59 199.8 205.6 199.8 205.6 L 201.9 205.6 C 201.9 205.6 201.9 215.96 201.9 216 C 201.9 217.9 202.8 218.5 204.2 218.5 C 205.7 218.5 207 217.5 207.6 216.3 C 207.6 216.29 207.6 205.6 207.6 205.6 L 209.8 205.6 L 209.8 220.1 L 207.6 220.1 Z M 213 212.8 C 213 208.6 215.3 205.3 219 205.3 C 221 205.3 222.2 206.1 223.1 207.2 C 223.1 207.2 222 208.6 222 208.6 C 221.2 207.6 220.3 207.2 219.2 207.2 C 216.6 207.2 215.3 209.8 215.3 212.8 C 215.3 215.9 216.6 218.5 219.2 218.5 C 220.3 218.5 221.2 218.1 222 217.1 C 222 217.1 223.1 218.5 223.1 218.5 C 222.2 219.7 221 220.5 219 220.5 C 215.3 220.5 213 217.1 213 212.8 Z M 233.8 220.1 C 233.8 220.1 233.76 209.75 233.8 209.8 C 233.8 207.8 232.9 207.2 231.4 207.2 C 230 207.2 228.7 208.3 228 209.5 C 228.03 209.48 228 220.1 228 220.1 L 225.9 220.1 L 225.9 200.1 L 228 200.1 C 228 200.1 228.03 207.68 228 207.7 C 228.9 206.4 230.5 205.3 232.3 205.3 C 234.7 205.3 235.9 206.5 235.9 209.1 C 235.89 209.12 235.9 220.1 235.9 220.1 L 233.8 220.1 Z M 246.8 220.1 L 246.8 207.5 L 244.9 207.5 L 244.9 205.6 L 246.8 205.6 C 246.8 205.6 246.81 203.84 246.8 203.8 C 246.8 201.3 248.2 199.8 250.4 199.8 C 251.4 199.8 252.3 200.1 253 200.8 C 253 200.8 252.2 202.3 252.2 202.3 C 251.8 201.9 251.3 201.6 250.8 201.6 C 249.6 201.6 249 202.4 249 203.8 C 248.97 203.84 249 205.6 249 205.6 L 251.4 205.6 L 251.4 207.5 L 249 207.5 L 249 220.1 L 246.8 220.1 Z M 253.2 212.8 C 253.2 208.8 255.2 205.3 259.1 205.3 C 263 205.3 265 208.8 265 212.8 C 265 216.9 263 220.5 259.1 220.5 C 255.2 220.5 253.2 216.9 253.2 212.8 Z M 262.7 212.8 C 262.7 209.9 261.6 207.2 259.1 207.2 C 256.6 207.2 255.4 209.9 255.4 212.8 C 255.4 215.8 256.6 218.5 259.1 218.5 C 261.6 218.5 262.7 215.8 262.7 212.8 Z M 268.2 220.1 L 268.2 205.6 L 270.4 205.6 C 270.4 205.6 270.36 207.92 270.4 207.9 C 271.3 206.4 272.7 205.3 274.5 205.3 C 274.5 205.3 274.5 207.5 274.5 207.5 C 274.2 207.5 274 207.4 273.7 207.4 C 272.4 207.4 271 208.6 270.4 209.8 C 270.36 209.81 270.4 220.1 270.4 220.1 L 268.2 220.1 Z M 283 223.9 C 283.3 224 283.7 224.1 283.9 224.1 C 284.8 224.1 285.3 223.7 285.7 222.6 C 285.66 222.62 286.4 220.4 286.4 220.4 L 281.6 205.6 L 283.9 205.6 L 287.5 217.5 L 291.2 205.6 L 293.5 205.6 C 293.5 205.6 287.7 223.16 287.7 223.2 C 287 225.3 285.8 226 284.1 226 C 283.6 226 283 225.9 282.7 225.8 C 282.7 225.8 283 223.9 283 223.9 Z M 294.9 212.8 C 294.9 208.8 297 205.3 300.8 205.3 C 304.7 205.3 306.7 208.8 306.7 212.8 C 306.7 216.9 304.7 220.5 300.8 220.5 C 297 220.5 294.9 216.9 294.9 212.8 Z M 304.5 212.8 C 304.5 209.9 303.4 207.2 300.8 207.2 C 298.3 207.2 297.2 209.9 297.2 212.8 C 297.2 215.8 298.3 218.5 300.8 218.5 C 303.4 218.5 304.5 215.8 304.5 212.8 Z M 317.8 220.1 C 317.8 220.1 317.79 218.09 317.8 218.1 C 316.9 219.4 315.4 220.5 313.6 220.5 C 311.1 220.5 310 219.2 310 216.6 C 309.96 216.59 310 205.6 310 205.6 L 312.1 205.6 C 312.1 205.6 312.09 215.96 312.1 216 C 312.1 217.9 313 218.5 314.4 218.5 C 315.8 218.5 317.2 217.5 317.8 216.3 C 317.79 216.29 317.8 205.6 317.8 205.6 L 319.9 205.6 L 319.9 220.1 L 317.8 220.1 Z M 323.9 220.1 L 323.9 205.6 L 326 205.6 C 326 205.6 326.04 207.92 326 207.9 C 327 206.4 328.4 205.3 330.1 205.3 C 330.1 205.3 330.1 207.5 330.1 207.5 C 329.9 207.5 329.7 207.4 329.4 207.4 C 328.1 207.4 326.6 208.6 326 209.8 C 326.04 209.81 326 220.1 326 220.1 L 323.9 220.1 Z M 346.5 220.1 C 346.5 220.1 346.53 218.54 346.5 218.5 C 345.6 219.9 344.2 220.5 342.7 220.5 C 340.4 220.5 338.3 218.7 338.3 215.6 C 338.3 212.6 340.3 210.9 342.7 210.9 C 344.2 210.9 345.6 211.4 346.5 212.7 C 346.5 212.7 346.5 210.2 346.5 210.2 C 346.5 208.2 345.4 207.1 343.6 207.1 C 342.2 207.1 341 207.6 339.9 208.9 C 339.9 208.9 339 207.4 339 207.4 C 340.3 205.9 342.1 205.3 343.9 205.3 C 346.8 205.3 348.7 206.7 348.7 210 C 348.69 209.96 348.7 220.1 348.7 220.1 L 346.5 220.1 Z M 346.5 217.1 C 346.5 217.1 346.5 214.3 346.5 214.3 C 345.9 213.1 344.7 212.5 343.4 212.5 C 341.6 212.5 340.5 213.9 340.5 215.7 C 340.5 217.5 341.6 218.9 343.4 218.9 C 344.7 218.9 345.9 218.3 346.5 217.1 Z M 353 217.2 C 353.04 217.19 353 207.5 353 207.5 L 351.1 207.5 L 351.1 205.6 L 353 205.6 L 353 201.7 L 355.2 201.7 L 355.2 205.6 L 357.7 205.6 L 357.7 207.5 L 355.2 207.5 C 355.2 207.5 355.2 216.8 355.2 216.8 C 355.2 217.9 355.5 218.5 356.4 218.5 C 356.9 218.5 357.4 218.3 357.6 218 C 357.6 218 358.3 219.6 358.3 219.6 C 357.8 220.1 357.1 220.5 355.9 220.5 C 354 220.5 353 219.4 353 217.2 Z M 360.9 217.2 C 360.93 217.19 360.9 207.5 360.9 207.5 L 359 207.5 L 359 205.6 L 360.9 205.6 L 360.9 201.7 L 363.1 201.7 L 363.1 205.6 L 365.5 205.6 L 365.5 207.5 L 363.1 207.5 C 363.1 207.5 363.09 216.8 363.1 216.8 C 363.1 217.9 363.4 218.5 364.3 218.5 C 364.8 218.5 365.2 218.3 365.5 218 C 365.5 218 366.2 219.6 366.2 219.6 C 365.7 220.1 364.9 220.5 363.8 220.5 C 361.9 220.5 360.9 219.4 360.9 217.2 Z M 367.7 212.8 C 367.7 208.6 369.9 205.3 373.6 205.3 C 377.4 205.3 379.3 208.7 379.3 212.9 C 379.29 212.9 379.3 213.6 379.3 213.6 C 379.3 213.6 369.9 213.56 369.9 213.6 C 370 216.5 371.5 218.7 374.1 218.7 C 375.3 218.7 376.6 218 377.5 216.9 C 377.5 216.9 378.7 218.2 378.7 218.2 C 377.5 219.6 375.8 220.5 373.9 220.5 C 370 220.5 367.7 217.3 367.7 212.8 Z M 373.5 207.1 C 371 207.1 370 209.8 369.9 212 C 369.9 212 377.2 212 377.2 212 C 377.1 209.8 376.2 207.1 373.5 207.1 Z M 390.3 220.1 C 390.3 220.1 390.27 209.78 390.3 209.8 C 390.3 207.9 389.4 207.2 388 207.2 C 386.5 207.2 385.2 208.3 384.6 209.5 C 384.57 209.48 384.6 220.1 384.6 220.1 L 382.4 220.1 L 382.4 205.6 L 384.6 205.6 C 384.6 205.6 384.57 207.68 384.6 207.7 C 385.4 206.4 387 205.3 388.8 205.3 C 391.2 205.3 392.4 206.6 392.4 209.2 C 392.43 209.18 392.4 220.1 392.4 220.1 L 390.3 220.1 Z M 396.8 217.2 C 396.81 217.19 396.8 207.5 396.8 207.5 L 394.9 207.5 L 394.9 205.6 L 396.8 205.6 L 396.8 201.7 L 399 201.7 L 399 205.6 L 401.4 205.6 L 401.4 207.5 L 399 207.5 C 399 207.5 398.97 216.8 399 216.8 C 399 217.9 399.3 218.5 400.1 218.5 C 400.7 218.5 401.1 218.3 401.4 218 C 401.4 218 402.1 219.6 402.1 219.6 C 401.5 220.1 400.8 220.5 399.7 220.5 C 397.7 220.5 396.8 219.4 396.8 217.2 Z M 403.9 202 C 403.9 201.2 404.5 200.6 405.3 200.6 C 406.1 200.6 406.8 201.2 406.8 202 C 406.8 202.9 406.1 203.5 405.3 203.5 C 404.5 203.5 403.9 202.9 403.9 202 Z M 404.3 220.1 L 404.3 205.6 L 406.4 205.6 L 406.4 220.1 L 404.3 220.1 Z M 409.6 212.8 C 409.6 208.8 411.7 205.3 415.5 205.3 C 419.4 205.3 421.4 208.8 421.4 212.8 C 421.4 216.9 419.4 220.5 415.5 220.5 C 411.7 220.5 409.6 216.9 409.6 212.8 Z M 419.2 212.8 C 419.2 209.9 418.1 207.2 415.5 207.2 C 413 207.2 411.9 209.9 411.9 212.8 C 411.9 215.8 413 218.5 415.5 218.5 C 418.1 218.5 419.2 215.8 419.2 212.8 Z M 432.5 220.1 C 432.5 220.1 432.5 209.78 432.5 209.8 C 432.5 207.9 431.6 207.2 430.2 207.2 C 428.8 207.2 427.5 208.3 426.8 209.5 C 426.8 209.48 426.8 220.1 426.8 220.1 L 424.7 220.1 L 424.7 205.6 L 426.8 205.6 C 426.8 205.6 426.8 207.68 426.8 207.7 C 427.6 206.4 429.3 205.3 431 205.3 C 433.5 205.3 434.7 206.6 434.7 209.2 C 434.66 209.18 434.7 220.1 434.7 220.1 L 432.5 220.1 Z M 439.2 214.6 L 438.7 200.1 L 441.4 200.1 L 441 214.6 L 439.2 214.6 Z M 438.5 218.8 C 438.5 217.9 439.2 217.2 440.1 217.2 C 440.9 217.2 441.7 217.9 441.7 218.8 C 441.7 219.7 440.9 220.4 440.1 220.4 C 439.2 220.4 438.5 219.7 438.5 218.8 Z " stroke="none" fill="#d3d2d2"/>  </g>  <g id="Polygon113730">    <path d="M 11.4 148.1 C 11.4 148.1 11.4 146.54 11.4 146.5 C 10.5 147.9 9.1 148.5 7.6 148.5 C 5.3 148.5 3.2 146.7 3.2 143.6 C 3.2 140.6 5.2 138.9 7.6 138.9 C 9.1 138.9 10.5 139.4 11.4 140.7 C 11.4 140.7 11.4 138.2 11.4 138.2 C 11.4 136.2 10.3 135.1 8.4 135.1 C 7.1 135.1 5.9 135.6 4.8 136.9 C 4.8 136.9 3.8 135.4 3.8 135.4 C 5.2 133.9 6.9 133.3 8.8 133.3 C 11.6 133.3 13.6 134.7 13.6 138 C 13.56 137.96 13.6 148.1 13.6 148.1 L 11.4 148.1 Z M 11.4 145.1 C 11.4 145.1 11.4 142.3 11.4 142.3 C 10.7 141.1 9.5 140.5 8.3 140.5 C 6.5 140.5 5.4 141.9 5.4 143.7 C 5.4 145.5 6.5 146.9 8.3 146.9 C 9.5 146.9 10.7 146.3 11.4 145.1 Z M 16.3 146.4 C 16.3 146.4 17.4 144.9 17.4 144.9 C 18.2 145.9 19.6 146.7 21.2 146.7 C 22.9 146.7 24 145.8 24 144.4 C 24 141 16.7 142.2 16.7 137.2 C 16.7 135 18.5 133.3 21.4 133.3 C 23.3 133.3 24.8 134 25.8 135.1 C 25.8 135.1 24.8 136.6 24.8 136.6 C 24 135.6 22.8 135 21.4 135 C 19.8 135 18.8 135.9 18.8 137.1 C 18.8 140.2 26 139.1 26 144.3 C 26 146.7 24.2 148.5 21.2 148.5 C 19.2 148.5 17.5 147.8 16.3 146.4 Z M 43 148.1 C 43 148.1 42.99 146.54 43 146.5 C 42.1 147.9 40.7 148.5 39.2 148.5 C 36.8 148.5 34.8 146.7 34.8 143.6 C 34.8 140.6 36.8 138.9 39.2 138.9 C 40.7 138.9 42.1 139.4 43 140.7 C 43 140.7 43 138.2 43 138.2 C 43 136.2 41.9 135.1 40 135.1 C 38.7 135.1 37.5 135.6 36.4 136.9 C 36.4 136.9 35.4 135.4 35.4 135.4 C 36.8 133.9 38.5 133.3 40.4 133.3 C 43.2 133.3 45.2 134.7 45.2 138 C 45.15 137.96 45.2 148.1 45.2 148.1 L 43 148.1 Z M 43 145.1 C 43 145.1 43 142.3 43 142.3 C 42.3 141.1 41.1 140.5 39.9 140.5 C 38.1 140.5 37 141.9 37 143.7 C 37 145.5 38.1 146.9 39.9 146.9 C 41.1 146.9 42.3 146.3 43 145.1 Z M 48.4 140.8 C 48.4 136.6 50.6 133.3 54.4 133.3 C 56.4 133.3 57.6 134.1 58.5 135.2 C 58.5 135.2 57.3 136.6 57.3 136.6 C 56.6 135.6 55.7 135.2 54.5 135.2 C 52 135.2 50.6 137.8 50.6 140.8 C 50.6 143.9 52 146.5 54.5 146.5 C 55.7 146.5 56.6 146.1 57.3 145.1 C 57.3 145.1 58.5 146.5 58.5 146.5 C 57.6 147.7 56.4 148.5 54.4 148.5 C 50.6 148.5 48.4 145.1 48.4 140.8 Z M 61.7 145.2 C 61.68 145.19 61.7 135.5 61.7 135.5 L 59.8 135.5 L 59.8 133.6 L 61.7 133.6 L 61.7 129.7 L 63.8 129.7 L 63.8 133.6 L 66.3 133.6 L 66.3 135.5 L 63.8 135.5 C 63.8 135.5 63.84 144.8 63.8 144.8 C 63.8 145.9 64.2 146.5 65 146.5 C 65.6 146.5 66 146.3 66.3 146 C 66.3 146 66.9 147.6 66.9 147.6 C 66.4 148.1 65.7 148.5 64.6 148.5 C 62.6 148.5 61.7 147.4 61.7 145.2 Z M 77 148.1 C 77 148.1 76.98 146.09 77 146.1 C 76.1 147.4 74.6 148.5 72.8 148.5 C 70.3 148.5 69.2 147.2 69.2 144.6 C 69.15 144.59 69.2 133.6 69.2 133.6 L 71.3 133.6 C 71.3 133.6 71.28 143.96 71.3 144 C 71.3 145.9 72.2 146.5 73.6 146.5 C 75 146.5 76.4 145.5 77 144.3 C 76.98 144.29 77 133.6 77 133.6 L 79.1 133.6 L 79.1 148.1 L 77 148.1 Z M 90.5 148.1 C 90.5 148.1 90.54 146.54 90.5 146.5 C 89.6 147.9 88.2 148.5 86.7 148.5 C 84.4 148.5 82.4 146.7 82.4 143.6 C 82.4 140.6 84.4 138.9 86.7 138.9 C 88.2 138.9 89.6 139.4 90.5 140.7 C 90.5 140.7 90.5 138.2 90.5 138.2 C 90.5 136.2 89.5 135.1 87.6 135.1 C 86.2 135.1 85.1 135.6 83.9 136.9 C 83.9 136.9 83 135.4 83 135.4 C 84.4 133.9 86.1 133.3 87.9 133.3 C 90.8 133.3 92.7 134.7 92.7 138 C 92.7 137.96 92.7 148.1 92.7 148.1 L 90.5 148.1 Z M 90.5 145.1 C 90.5 145.1 90.5 142.3 90.5 142.3 C 89.9 141.1 88.7 140.5 87.4 140.5 C 85.6 140.5 84.5 141.9 84.5 143.7 C 84.5 145.5 85.6 146.9 87.4 146.9 C 88.7 146.9 89.9 146.3 90.5 145.1 Z M 96.6 148.1 L 96.6 128.1 L 98.8 128.1 L 98.8 148.1 L 96.6 148.1 Z M 109.2 148.1 L 109.2 133.6 L 111.3 133.6 C 111.3 133.6 111.3 135.92 111.3 135.9 C 112.2 134.4 113.6 133.3 115.4 133.3 C 115.4 133.3 115.4 135.5 115.4 135.5 C 115.2 135.5 114.9 135.4 114.7 135.4 C 113.4 135.4 111.9 136.6 111.3 137.8 C 111.3 137.81 111.3 148.1 111.3 148.1 L 109.2 148.1 Z M 117.2 140.8 C 117.2 136.6 119.4 133.3 123.1 133.3 C 126.9 133.3 128.8 136.7 128.8 140.9 C 128.79 140.9 128.8 141.6 128.8 141.6 C 128.8 141.6 119.4 141.56 119.4 141.6 C 119.5 144.5 121 146.7 123.6 146.7 C 124.8 146.7 126.1 146 127 144.9 C 127 144.9 128.2 146.2 128.2 146.2 C 127 147.6 125.3 148.5 123.4 148.5 C 119.5 148.5 117.2 145.3 117.2 140.8 Z M 123 135.1 C 120.5 135.1 119.5 137.8 119.4 140 C 119.4 140 126.7 140 126.7 140 C 126.6 137.8 125.7 135.1 123 135.1 Z M 139.4 148.1 C 139.4 148.1 139.38 146.54 139.4 146.5 C 138.5 147.9 137 148.5 135.6 148.5 C 133.2 148.5 131.2 146.7 131.2 143.6 C 131.2 140.6 133.2 138.9 135.6 138.9 C 137 138.9 138.5 139.4 139.4 140.7 C 139.4 140.7 139.4 138.2 139.4 138.2 C 139.4 136.2 138.3 135.1 136.4 135.1 C 135.1 135.1 133.9 135.6 132.8 136.9 C 132.8 136.9 131.8 135.4 131.8 135.4 C 133.2 133.9 134.9 133.3 136.7 133.3 C 139.6 133.3 141.5 134.7 141.5 138 C 141.54 137.96 141.5 148.1 141.5 148.1 L 139.4 148.1 Z M 139.4 145.1 C 139.4 145.1 139.4 142.3 139.4 142.3 C 138.7 141.1 137.5 140.5 136.3 140.5 C 134.5 140.5 133.4 141.9 133.4 143.7 C 133.4 145.5 134.5 146.9 136.3 146.9 C 137.5 146.9 138.7 146.3 139.4 145.1 Z M 145.5 148.1 L 145.5 128.1 L 147.6 128.1 L 147.6 148.1 L 145.5 148.1 Z M 151.1 130 C 151.1 129.2 151.8 128.6 152.6 128.6 C 153.4 128.6 154.1 129.2 154.1 130 C 154.1 130.9 153.4 131.5 152.6 131.5 C 151.8 131.5 151.1 130.9 151.1 130 Z M 151.6 148.1 L 151.6 133.6 L 153.7 133.6 L 153.7 148.1 L 151.6 148.1 Z M 158.1 145.2 C 158.07 145.19 158.1 135.5 158.1 135.5 L 156.1 135.5 L 156.1 133.6 L 158.1 133.6 L 158.1 129.7 L 160.2 129.7 L 160.2 133.6 L 162.7 133.6 L 162.7 135.5 L 160.2 135.5 C 160.2 135.5 160.23 144.8 160.2 144.8 C 160.2 145.9 160.6 146.5 161.4 146.5 C 161.9 146.5 162.4 146.3 162.7 146 C 162.7 146 163.3 147.6 163.3 147.6 C 162.8 148.1 162.1 148.5 161 148.5 C 159 148.5 158.1 147.4 158.1 145.2 Z M 165.1 151.9 C 165.4 152 165.8 152.1 166.1 152.1 C 166.9 152.1 167.4 151.7 167.8 150.6 C 167.79 150.62 168.6 148.4 168.6 148.4 L 163.7 133.6 L 166.1 133.6 L 169.7 145.5 L 173.3 133.6 L 175.6 133.6 C 175.6 133.6 169.83 151.16 169.8 151.2 C 169.1 153.3 167.9 154 166.2 154 C 165.8 154 165.1 153.9 164.8 153.8 C 164.8 153.8 165.1 151.9 165.1 151.9 Z M 176.1 146.8 C 176.1 145.9 176.8 145.2 177.7 145.2 C 178.6 145.2 179.3 145.9 179.3 146.8 C 179.3 147.7 178.6 148.4 177.7 148.4 C 176.8 148.4 176.1 147.7 176.1 146.8 Z " stroke="none" fill="#d3d2d2"/>  </g>  <g id="Polygon113729">    <path d="M 3.5 94 C 3.5 93.2 4.2 92.6 5 92.6 C 5.8 92.6 6.5 93.2 6.5 94 C 6.5 94.9 5.8 95.5 5 95.5 C 4.2 95.5 3.5 94.9 3.5 94 Z M 4 112.1 L 4 97.6 L 6.1 97.6 L 6.1 112.1 L 4 112.1 Z M 17.9 112.1 C 17.9 112.1 17.88 101.78 17.9 101.8 C 17.9 99.9 17 99.2 15.6 99.2 C 14.2 99.2 12.8 100.3 12.2 101.5 C 12.18 101.48 12.2 112.1 12.2 112.1 L 10.1 112.1 L 10.1 97.6 L 12.2 97.6 C 12.2 97.6 12.18 99.68 12.2 99.7 C 13 98.4 14.6 97.3 16.4 97.3 C 18.8 97.3 20 98.6 20 101.2 C 20.04 101.18 20 112.1 20 112.1 L 17.9 112.1 Z M 22.8 110.4 C 22.8 110.4 23.9 108.9 23.9 108.9 C 24.8 109.9 26.1 110.7 27.7 110.7 C 29.4 110.7 30.5 109.8 30.5 108.4 C 30.5 105 23.3 106.2 23.3 101.2 C 23.3 99 25 97.3 27.9 97.3 C 29.8 97.3 31.3 98 32.3 99.1 C 32.3 99.1 31.3 100.6 31.3 100.6 C 30.5 99.6 29.3 99 27.9 99 C 26.3 99 25.3 99.9 25.3 101.1 C 25.3 104.2 32.6 103.1 32.6 108.3 C 32.6 110.7 30.7 112.5 27.7 112.5 C 25.7 112.5 24 111.8 22.8 110.4 Z M 34.9 104.8 C 34.9 100.6 37.1 97.3 40.8 97.3 C 44.6 97.3 46.5 100.7 46.5 104.9 C 46.5 104.9 46.5 105.6 46.5 105.6 C 46.5 105.6 37.11 105.56 37.1 105.6 C 37.2 108.5 38.7 110.7 41.3 110.7 C 42.5 110.7 43.8 110 44.7 108.9 C 44.7 108.9 45.9 110.2 45.9 110.2 C 44.7 111.6 43.1 112.5 41.1 112.5 C 37.2 112.5 34.9 109.3 34.9 104.8 Z M 40.7 99.1 C 38.2 99.1 37.2 101.8 37.1 104 C 37.1 104 44.4 104 44.4 104 C 44.3 101.8 43.4 99.1 40.7 99.1 Z M 48.9 104.8 C 48.9 100.6 51.2 97.3 54.9 97.3 C 56.9 97.3 58.2 98.1 59.1 99.2 C 59.1 99.2 57.9 100.6 57.9 100.6 C 57.1 99.6 56.2 99.2 55.1 99.2 C 52.5 99.2 51.2 101.8 51.2 104.8 C 51.2 107.9 52.5 110.5 55.1 110.5 C 56.2 110.5 57.1 110.1 57.9 109.1 C 57.9 109.1 59.1 110.5 59.1 110.5 C 58.2 111.7 56.9 112.5 54.9 112.5 C 51.2 112.5 48.9 109.1 48.9 104.8 Z M 69.7 112.1 C 69.7 112.1 69.66 110.09 69.7 110.1 C 68.8 111.4 67.3 112.5 65.5 112.5 C 63 112.5 61.8 111.2 61.8 108.6 C 61.83 108.59 61.8 97.6 61.8 97.6 L 64 97.6 C 64 97.6 63.96 107.96 64 108 C 64 109.9 64.9 110.5 66.3 110.5 C 67.7 110.5 69 109.5 69.7 108.3 C 69.66 108.29 69.7 97.6 69.7 97.6 L 71.8 97.6 L 71.8 112.1 L 69.7 112.1 Z M 75.8 112.1 L 75.8 97.6 L 77.9 97.6 C 77.9 97.6 77.91 99.92 77.9 99.9 C 78.8 98.4 80.3 97.3 82 97.3 C 82 97.3 82 99.5 82 99.5 C 81.8 99.5 81.5 99.4 81.3 99.4 C 80 99.4 78.5 100.6 77.9 101.8 C 77.91 101.81 77.9 112.1 77.9 112.1 L 75.8 112.1 Z M 84.1 94 C 84.1 93.2 84.8 92.6 85.6 92.6 C 86.4 92.6 87 93.2 87 94 C 87 94.9 86.4 95.5 85.6 95.5 C 84.8 95.5 84.1 94.9 84.1 94 Z M 84.5 112.1 L 84.5 97.6 L 86.6 97.6 L 86.6 112.1 L 84.5 112.1 Z M 91 109.2 C 91.02 109.19 91 99.5 91 99.5 L 89.1 99.5 L 89.1 97.6 L 91 97.6 L 91 93.7 L 93.2 93.7 L 93.2 97.6 L 95.6 97.6 L 95.6 99.5 L 93.2 99.5 C 93.2 99.5 93.18 108.8 93.2 108.8 C 93.2 109.9 93.5 110.5 94.4 110.5 C 94.9 110.5 95.3 110.3 95.6 110 C 95.6 110 96.3 111.6 96.3 111.6 C 95.8 112.1 95 112.5 93.9 112.5 C 92 112.5 91 111.4 91 109.2 Z M 98.1 115.9 C 98.3 116 98.8 116.1 99 116.1 C 99.9 116.1 100.4 115.7 100.7 114.6 C 100.74 114.62 101.5 112.4 101.5 112.4 L 96.7 97.6 L 99 97.6 L 102.6 109.5 L 106.3 97.6 L 108.6 97.6 C 108.6 97.6 102.78 115.16 102.8 115.2 C 102.1 117.3 100.9 118 99.2 118 C 98.7 118 98.1 117.9 97.7 117.8 C 97.7 117.8 98.1 115.9 98.1 115.9 Z M 110.6 99 C 110.6 98.1 111.3 97.4 112.2 97.4 C 113 97.4 113.8 98.1 113.8 99 C 113.8 99.8 113 100.6 112.2 100.6 C 111.3 100.6 110.6 99.8 110.6 99 Z M 111.5 115.9 C 111.5 115.9 110.5 115 110.5 115 C 111.4 114.3 112.3 113.1 112.4 112.2 C 112.3 112.2 112.1 112.2 112 112.2 C 111.2 112.2 110.6 111.6 110.6 110.7 C 110.6 109.9 111.2 109.2 112.1 109.2 C 113.1 109.2 113.9 110 113.9 111.4 C 113.9 113.2 112.9 114.9 111.5 115.9 Z M 131.5 112.1 C 131.5 112.1 131.46 110.54 131.5 110.5 C 130.5 111.9 129.1 112.5 127.7 112.5 C 125.3 112.5 123.3 110.7 123.3 107.6 C 123.3 104.6 125.3 102.9 127.7 102.9 C 129.1 102.9 130.6 103.4 131.5 104.7 C 131.5 104.7 131.5 102.2 131.5 102.2 C 131.5 100.2 130.4 99.1 128.5 99.1 C 127.1 99.1 126 99.6 124.9 100.9 C 124.9 100.9 123.9 99.4 123.9 99.4 C 125.3 97.9 127 97.3 128.8 97.3 C 131.7 97.3 133.6 98.7 133.6 102 C 133.62 101.96 133.6 112.1 133.6 112.1 L 131.5 112.1 Z M 131.5 109.1 C 131.5 109.1 131.5 106.3 131.5 106.3 C 130.8 105.1 129.6 104.5 128.3 104.5 C 126.5 104.5 125.5 105.9 125.5 107.7 C 125.5 109.5 126.5 110.9 128.3 110.9 C 129.6 110.9 130.8 110.3 131.5 109.1 Z M 151.9 112.1 C 151.9 112.1 151.86 101.75 151.9 101.8 C 151.9 99.8 151 99.2 149.5 99.2 C 148.1 99.2 146.8 100.3 146.1 101.5 C 146.13 101.48 146.1 112.1 146.1 112.1 L 144 112.1 L 144 92.1 L 146.1 92.1 C 146.1 92.1 146.13 99.68 146.1 99.7 C 147 98.4 148.6 97.3 150.4 97.3 C 152.8 97.3 154 98.5 154 101.1 C 153.99 101.12 154 112.1 154 112.1 L 151.9 112.1 Z M 157.2 104.8 C 157.2 100.8 159.3 97.3 163.1 97.3 C 167 97.3 169 100.8 169 104.8 C 169 108.9 167 112.5 163.1 112.5 C 159.3 112.5 157.2 108.9 157.2 104.8 Z M 166.8 104.8 C 166.8 101.9 165.7 99.2 163.1 99.2 C 160.6 99.2 159.5 101.9 159.5 104.8 C 159.5 107.8 160.6 110.5 163.1 110.5 C 165.7 110.5 166.8 107.8 166.8 104.8 Z M 174.4 110 C 174.39 110 174.4 117.6 174.4 117.6 L 172.3 117.6 L 172.3 97.6 L 174.4 97.6 C 174.4 97.6 174.39 99.68 174.4 99.7 C 175.2 98.2 176.7 97.3 178.2 97.3 C 181.5 97.3 183.4 100.3 183.4 104.8 C 183.4 109.4 181.5 112.5 178.2 112.5 C 176.7 112.5 175.3 111.6 174.4 110 Z M 181.1 104.8 C 181.1 101.7 180 99.2 177.7 99.2 C 176.3 99.2 175 100.3 174.4 101.5 C 174.4 101.5 174.4 108.1 174.4 108.1 C 175 109.4 176.3 110.5 177.7 110.5 C 180 110.5 181.1 108 181.1 104.8 Z M 185.9 104.8 C 185.9 100.6 188.1 97.3 191.8 97.3 C 195.6 97.3 197.5 100.7 197.5 104.9 C 197.49 104.9 197.5 105.6 197.5 105.6 C 197.5 105.6 188.1 105.56 188.1 105.6 C 188.2 108.5 189.7 110.7 192.3 110.7 C 193.5 110.7 194.8 110 195.7 108.9 C 195.7 108.9 196.9 110.2 196.9 110.2 C 195.7 111.6 194 112.5 192.1 112.5 C 188.2 112.5 185.9 109.3 185.9 104.8 Z M 191.7 99.1 C 189.2 99.1 188.2 101.8 188.1 104 C 188.1 104 195.4 104 195.4 104 C 195.3 101.8 194.4 99.1 191.7 99.1 Z M 207.5 109.2 C 207.51 109.19 207.5 99.5 207.5 99.5 L 205.6 99.5 L 205.6 97.6 L 207.5 97.6 L 207.5 93.7 L 209.7 93.7 L 209.7 97.6 L 212.1 97.6 L 212.1 99.5 L 209.7 99.5 C 209.7 99.5 209.67 108.8 209.7 108.8 C 209.7 109.9 210 110.5 210.8 110.5 C 211.4 110.5 211.8 110.3 212.1 110 C 212.1 110 212.8 111.6 212.8 111.6 C 212.2 112.1 211.5 112.5 210.4 112.5 C 208.4 112.5 207.5 111.4 207.5 109.2 Z M 222.8 112.1 C 222.8 112.1 222.84 101.75 222.8 101.8 C 222.8 99.8 221.9 99.2 220.5 99.2 C 219.1 99.2 217.8 100.3 217.1 101.5 C 217.11 101.48 217.1 112.1 217.1 112.1 L 215 112.1 L 215 92.1 L 217.1 92.1 C 217.1 92.1 217.11 99.68 217.1 99.7 C 217.9 98.4 219.6 97.3 221.3 97.3 C 223.8 97.3 225 98.5 225 101.1 C 224.97 101.12 225 112.1 225 112.1 L 222.8 112.1 Z M 236.4 112.1 C 236.4 112.1 236.37 110.54 236.4 110.5 C 235.4 111.9 234 112.5 232.6 112.5 C 230.2 112.5 228.2 110.7 228.2 107.6 C 228.2 104.6 230.2 102.9 232.6 102.9 C 234 102.9 235.5 103.4 236.4 104.7 C 236.4 104.7 236.4 102.2 236.4 102.2 C 236.4 100.2 235.3 99.1 233.4 99.1 C 232 99.1 230.9 99.6 229.8 100.9 C 229.8 100.9 228.8 99.4 228.8 99.4 C 230.2 97.9 231.9 97.3 233.7 97.3 C 236.6 97.3 238.5 98.7 238.5 102 C 238.53 101.96 238.5 112.1 238.5 112.1 L 236.4 112.1 Z M 236.4 109.1 C 236.4 109.1 236.4 106.3 236.4 106.3 C 235.7 105.1 234.5 104.5 233.2 104.5 C 231.4 104.5 230.4 105.9 230.4 107.7 C 230.4 109.5 231.4 110.9 233.2 110.9 C 234.5 110.9 235.7 110.3 236.4 109.1 Z M 242.9 109.2 C 242.88 109.19 242.9 99.5 242.9 99.5 L 241 99.5 L 241 97.6 L 242.9 97.6 L 242.9 93.7 L 245 93.7 L 245 97.6 L 247.5 97.6 L 247.5 99.5 L 245 99.5 C 245 99.5 245.04 108.8 245 108.8 C 245 109.9 245.4 110.5 246.2 110.5 C 246.7 110.5 247.2 110.3 247.5 110 C 247.5 110 248.1 111.6 248.1 111.6 C 247.6 112.1 246.9 112.5 245.8 112.5 C 243.8 112.5 242.9 111.4 242.9 109.2 Z M 267.5 112.1 L 264.4 100.5 L 261.3 112.1 L 259.1 112.1 L 255.2 97.6 L 257.5 97.6 L 260.3 109.2 L 263.3 97.6 L 265.4 97.6 L 268.5 109.2 L 271.3 97.6 L 273.6 97.6 L 269.7 112.1 L 267.5 112.1 Z M 275.2 104.8 C 275.2 100.6 277.4 97.3 281.1 97.3 C 284.9 97.3 286.8 100.7 286.8 104.9 C 286.83 104.9 286.8 105.6 286.8 105.6 C 286.8 105.6 277.44 105.56 277.4 105.6 C 277.5 108.5 279 110.7 281.6 110.7 C 282.9 110.7 284.2 110 285.1 108.9 C 285.1 108.9 286.2 110.2 286.2 110.2 C 285 111.6 283.4 112.5 281.4 112.5 C 277.6 112.5 275.2 109.3 275.2 104.8 Z M 281.1 99.1 C 278.5 99.1 277.5 101.8 277.4 104 C 277.4 104 284.7 104 284.7 104 C 284.7 101.8 283.7 99.1 281.1 99.1 Z M 307.1 112.1 L 304 100.5 L 300.9 112.1 L 298.7 112.1 L 294.8 97.6 L 297.1 97.6 L 299.9 109.2 L 303 97.6 L 305 97.6 L 308.1 109.2 L 310.9 97.6 L 313.2 97.6 L 309.3 112.1 L 307.1 112.1 Z M 314.8 104.8 C 314.8 100.8 316.9 97.3 320.7 97.3 C 324.6 97.3 326.6 100.8 326.6 104.8 C 326.6 108.9 324.6 112.5 320.7 112.5 C 316.9 112.5 314.8 108.9 314.8 104.8 Z M 324.4 104.8 C 324.4 101.9 323.3 99.2 320.7 99.2 C 318.2 99.2 317.1 101.9 317.1 104.8 C 317.1 107.8 318.2 110.5 320.7 110.5 C 323.3 110.5 324.4 107.8 324.4 104.8 Z M 337.7 112.1 C 337.7 112.1 337.71 110.09 337.7 110.1 C 336.8 111.4 335.3 112.5 333.5 112.5 C 331 112.5 329.9 111.2 329.9 108.6 C 329.88 108.59 329.9 97.6 329.9 97.6 L 332 97.6 C 332 97.6 332.01 107.96 332 108 C 332 109.9 332.9 110.5 334.3 110.5 C 335.8 110.5 337.1 109.5 337.7 108.3 C 337.71 108.29 337.7 97.6 337.7 97.6 L 339.9 97.6 L 339.9 112.1 L 337.7 112.1 Z M 343.8 112.1 L 343.8 92.1 L 346 92.1 L 346 112.1 L 343.8 112.1 Z M 358.2 112.1 C 358.2 112.1 358.2 110.03 358.2 110 C 357.4 111.5 355.9 112.5 354.4 112.5 C 351.1 112.5 349.2 109.4 349.2 104.9 C 349.2 100.4 351.1 97.3 354.4 97.3 C 355.9 97.3 357.3 98.1 358.2 99.7 C 358.2 99.71 358.2 92.1 358.2 92.1 L 360.4 92.1 L 360.4 112.1 L 358.2 112.1 Z M 358.2 108.2 C 358.2 108.2 358.2 101.5 358.2 101.5 C 357.7 100.3 356.3 99.2 354.9 99.2 C 352.6 99.2 351.4 101.7 351.4 104.9 C 351.4 108 352.6 110.5 354.9 110.5 C 356.3 110.5 357.7 109.5 358.2 108.2 Z M 378.6 112.1 C 378.6 112.1 378.6 101.78 378.6 101.8 C 378.6 99.9 377.7 99.2 376.3 99.2 C 374.9 99.2 373.6 100.3 372.9 101.5 C 372.9 101.48 372.9 112.1 372.9 112.1 L 370.8 112.1 L 370.8 97.6 L 372.9 97.6 C 372.9 97.6 372.9 99.68 372.9 99.7 C 373.7 98.4 375.4 97.3 377.1 97.3 C 379.6 97.3 380.8 98.6 380.8 101.2 C 380.76 101.18 380.8 112.1 380.8 112.1 L 378.6 112.1 Z M 384 104.8 C 384 100.6 386.2 97.3 389.9 97.3 C 393.7 97.3 395.6 100.7 395.6 104.9 C 395.61 104.9 395.6 105.6 395.6 105.6 C 395.6 105.6 386.22 105.56 386.2 105.6 C 386.3 108.5 387.8 110.7 390.4 110.7 C 391.6 110.7 392.9 110 393.8 108.9 C 393.8 108.9 395 110.2 395 110.2 C 393.8 111.6 392.2 112.5 390.2 112.5 C 386.3 112.5 384 109.3 384 104.8 Z M 389.8 99.1 C 387.3 99.1 386.3 101.8 386.2 104 C 386.2 104 393.5 104 393.5 104 C 393.4 101.8 392.5 99.1 389.8 99.1 Z M 401.7 112.1 L 397 97.6 L 399.3 97.6 L 402.9 109.6 L 406.5 97.6 L 408.8 97.6 L 404.1 112.1 L 401.7 112.1 Z M 410.3 104.8 C 410.3 100.6 412.5 97.3 416.2 97.3 C 420 97.3 421.9 100.7 421.9 104.9 C 421.88 104.9 421.9 105.6 421.9 105.6 C 421.9 105.6 412.49 105.56 412.5 105.6 C 412.6 108.5 414.1 110.7 416.7 110.7 C 417.9 110.7 419.2 110 420.1 108.9 C 420.1 108.9 421.3 110.2 421.3 110.2 C 420.1 111.6 418.4 112.5 416.5 112.5 C 412.6 112.5 410.3 109.3 410.3 104.8 Z M 416.1 99.1 C 413.6 99.1 412.6 101.8 412.5 104 C 412.5 104 419.8 104 419.8 104 C 419.7 101.8 418.8 99.1 416.1 99.1 Z M 425 112.1 L 425 97.6 L 427.2 97.6 C 427.2 97.6 427.16 99.92 427.2 99.9 C 428.1 98.4 429.5 97.3 431.3 97.3 C 431.3 97.3 431.3 99.5 431.3 99.5 C 431 99.5 430.8 99.4 430.6 99.4 C 429.2 99.4 427.8 100.6 427.2 101.8 C 427.16 101.81 427.2 112.1 427.2 112.1 L 425 112.1 Z M 448.1 112.1 C 448.1 112.1 448.07 101.75 448.1 101.8 C 448.1 99.8 447.2 99.2 445.7 99.2 C 444.3 99.2 443 100.3 442.3 101.5 C 442.34 101.48 442.3 112.1 442.3 112.1 L 440.2 112.1 L 440.2 92.1 L 442.3 92.1 C 442.3 92.1 442.34 99.68 442.3 99.7 C 443.2 98.4 444.8 97.3 446.6 97.3 C 449 97.3 450.2 98.5 450.2 101.1 C 450.2 101.12 450.2 112.1 450.2 112.1 L 448.1 112.1 Z M 461.6 112.1 C 461.6 112.1 461.6 110.54 461.6 110.5 C 460.7 111.9 459.3 112.5 457.8 112.5 C 455.5 112.5 453.4 110.7 453.4 107.6 C 453.4 104.6 455.4 102.9 457.8 102.9 C 459.3 102.9 460.7 103.4 461.6 104.7 C 461.6 104.7 461.6 102.2 461.6 102.2 C 461.6 100.2 460.5 99.1 458.6 99.1 C 457.3 99.1 456.1 99.6 455 100.9 C 455 100.9 454 99.4 454 99.4 C 455.4 97.9 457.1 97.3 459 97.3 C 461.8 97.3 463.8 98.7 463.8 102 C 463.76 101.96 463.8 112.1 463.8 112.1 L 461.6 112.1 Z M 461.6 109.1 C 461.6 109.1 461.6 106.3 461.6 106.3 C 460.9 105.1 459.7 104.5 458.5 104.5 C 456.7 104.5 455.6 105.9 455.6 107.7 C 455.6 109.5 456.7 110.9 458.5 110.9 C 459.7 110.9 460.9 110.3 461.6 109.1 Z M 470.6 112.1 L 465.9 97.6 L 468.2 97.6 L 471.8 109.6 L 475.5 97.6 L 477.8 97.6 L 473 112.1 L 470.6 112.1 Z M 479.2 104.8 C 479.2 100.6 481.4 97.3 485.1 97.3 C 488.9 97.3 490.8 100.7 490.8 104.9 C 490.82 104.9 490.8 105.6 490.8 105.6 C 490.8 105.6 481.43 105.56 481.4 105.6 C 481.5 108.5 483 110.7 485.6 110.7 C 486.9 110.7 488.2 110 489.1 108.9 C 489.1 108.9 490.2 110.2 490.2 110.2 C 489 111.6 487.4 112.5 485.4 112.5 C 481.6 112.5 479.2 109.3 479.2 104.8 Z M 485.1 99.1 C 482.5 99.1 481.5 101.8 481.4 104 C 481.4 104 488.7 104 488.7 104 C 488.7 101.8 487.7 99.1 485.1 99.1 Z M 500.8 109.2 C 500.84 109.19 500.8 99.5 500.8 99.5 L 498.9 99.5 L 498.9 97.6 L 500.8 97.6 L 500.8 93.7 L 503 93.7 L 503 97.6 L 505.5 97.6 L 505.5 99.5 L 503 99.5 C 503 99.5 503 108.8 503 108.8 C 503 109.9 503.3 110.5 504.2 110.5 C 504.7 110.5 505.2 110.3 505.4 110 C 505.4 110 506.1 111.6 506.1 111.6 C 505.6 112.1 504.9 112.5 503.8 112.5 C 501.8 112.5 500.8 111.4 500.8 109.2 Z M 507.6 104.8 C 507.6 100.8 509.6 97.3 513.5 97.3 C 517.4 97.3 519.4 100.8 519.4 104.8 C 519.4 108.9 517.4 112.5 513.5 112.5 C 509.6 112.5 507.6 108.9 507.6 104.8 Z M 517.1 104.8 C 517.1 101.9 516 99.2 513.5 99.2 C 511 99.2 509.8 101.9 509.8 104.8 C 509.8 107.8 511 110.5 513.5 110.5 C 516 110.5 517.1 107.8 517.1 104.8 Z M 529.6 112.1 L 529.6 99.5 L 527.7 99.5 L 527.7 97.6 L 529.6 97.6 C 529.6 97.6 529.58 95.84 529.6 95.8 C 529.6 93.3 531 91.8 533.2 91.8 C 534.2 91.8 535.1 92.1 535.8 92.8 C 535.8 92.8 535 94.3 535 94.3 C 534.6 93.9 534.1 93.6 533.5 93.6 C 532.3 93.6 531.7 94.4 531.7 95.8 C 531.74 95.84 531.7 97.6 531.7 97.6 L 534.2 97.6 L 534.2 99.5 L 531.7 99.5 L 531.7 112.1 L 529.6 112.1 Z M 544.1 112.1 C 544.1 112.1 544.13 110.54 544.1 110.5 C 543.2 111.9 541.8 112.5 540.3 112.5 C 538 112.5 535.9 110.7 535.9 107.6 C 535.9 104.6 538 102.9 540.3 102.9 C 541.8 102.9 543.2 103.4 544.1 104.7 C 544.1 104.7 544.1 102.2 544.1 102.2 C 544.1 100.2 543.1 99.1 541.2 99.1 C 539.8 99.1 538.6 99.6 537.5 100.9 C 537.5 100.9 536.6 99.4 536.6 99.4 C 538 97.9 539.7 97.3 541.5 97.3 C 544.4 97.3 546.3 98.7 546.3 102 C 546.29 101.96 546.3 112.1 546.3 112.1 L 544.1 112.1 Z M 544.1 109.1 C 544.1 109.1 544.1 106.3 544.1 106.3 C 543.5 105.1 542.3 104.5 541 104.5 C 539.2 104.5 538.1 105.9 538.1 107.7 C 538.1 109.5 539.2 110.9 541 110.9 C 542.3 110.9 543.5 110.3 544.1 109.1 Z M 549.5 104.8 C 549.5 100.6 551.8 97.3 555.5 97.3 C 557.5 97.3 558.7 98.1 559.6 99.2 C 559.6 99.2 558.5 100.6 558.5 100.6 C 557.7 99.6 556.8 99.2 555.7 99.2 C 553.1 99.2 551.8 101.8 551.8 104.8 C 551.8 107.9 553.1 110.5 555.7 110.5 C 556.8 110.5 557.7 110.1 558.5 109.1 C 558.5 109.1 559.6 110.5 559.6 110.5 C 558.7 111.7 557.5 112.5 555.5 112.5 C 551.8 112.5 549.5 109.1 549.5 104.8 Z M 561.7 104.8 C 561.7 100.6 563.9 97.3 567.6 97.3 C 571.4 97.3 573.3 100.7 573.3 104.9 C 573.29 104.9 573.3 105.6 573.3 105.6 C 573.3 105.6 563.9 105.56 563.9 105.6 C 564 108.5 565.5 110.7 568.1 110.7 C 569.3 110.7 570.6 110 571.5 108.9 C 571.5 108.9 572.7 110.2 572.7 110.2 C 571.5 111.6 569.8 112.5 567.9 112.5 C 564 112.5 561.7 109.3 561.7 104.8 Z M 567.5 99.1 C 565 99.1 564 101.8 563.9 104 C 563.9 104 571.2 104 571.2 104 C 571.1 101.8 570.2 99.1 567.5 99.1 Z M 583.3 109.2 C 583.31 109.19 583.3 99.5 583.3 99.5 L 581.4 99.5 L 581.4 97.6 L 583.3 97.6 L 583.3 93.7 L 585.5 93.7 L 585.5 97.6 L 587.9 97.6 L 587.9 99.5 L 585.5 99.5 C 585.5 99.5 585.47 108.8 585.5 108.8 C 585.5 109.9 585.8 110.5 586.6 110.5 C 587.2 110.5 587.6 110.3 587.9 110 C 587.9 110 588.6 111.6 588.6 111.6 C 588.1 112.1 587.3 112.5 586.2 112.5 C 584.2 112.5 583.3 111.4 583.3 109.2 Z M 598.6 112.1 C 598.6 112.1 598.64 101.75 598.6 101.8 C 598.6 99.8 597.7 99.2 596.3 99.2 C 594.9 99.2 593.6 100.3 592.9 101.5 C 592.91 101.48 592.9 112.1 592.9 112.1 L 590.8 112.1 L 590.8 92.1 L 592.9 92.1 C 592.9 92.1 592.91 99.68 592.9 99.7 C 593.8 98.4 595.4 97.3 597.1 97.3 C 599.6 97.3 600.8 98.5 600.8 101.1 C 600.77 101.12 600.8 112.1 600.8 112.1 L 598.6 112.1 Z M 604.3 94 C 604.3 93.2 605 92.6 605.8 92.6 C 606.6 92.6 607.3 93.2 607.3 94 C 607.3 94.9 606.6 95.5 605.8 95.5 C 605 95.5 604.3 94.9 604.3 94 Z M 604.7 112.1 L 604.7 97.6 L 606.9 97.6 L 606.9 112.1 L 604.7 112.1 Z M 609.6 110.4 C 609.6 110.4 610.7 108.9 610.7 108.9 C 611.6 109.9 612.9 110.7 614.5 110.7 C 616.2 110.7 617.3 109.8 617.3 108.4 C 617.3 105 610.1 106.2 610.1 101.2 C 610.1 99 611.8 97.3 614.7 97.3 C 616.6 97.3 618.1 98 619.1 99.1 C 619.1 99.1 618.1 100.6 618.1 100.6 C 617.4 99.6 616.1 99 614.7 99 C 613.1 99 612.1 99.9 612.1 101.1 C 612.1 104.2 619.4 103.1 619.4 108.3 C 619.4 110.7 617.5 112.5 614.5 112.5 C 612.5 112.5 610.8 111.8 609.6 110.4 Z " stroke="none" fill="#d3d2d2"/>  </g>  <g id="Polygon113728">    <path d="M 11.4 76.1 C 11.4 76.1 11.4 74.54 11.4 74.5 C 10.5 75.9 9.1 76.5 7.6 76.5 C 5.3 76.5 3.2 74.7 3.2 71.6 C 3.2 68.6 5.2 66.9 7.6 66.9 C 9.1 66.9 10.5 67.4 11.4 68.7 C 11.4 68.7 11.4 66.2 11.4 66.2 C 11.4 64.2 10.3 63.1 8.4 63.1 C 7.1 63.1 5.9 63.6 4.8 64.9 C 4.8 64.9 3.8 63.4 3.8 63.4 C 5.2 61.9 6.9 61.3 8.8 61.3 C 11.6 61.3 13.6 62.7 13.6 66 C 13.56 65.96 13.6 76.1 13.6 76.1 L 11.4 76.1 Z M 11.4 73.1 C 11.4 73.1 11.4 70.3 11.4 70.3 C 10.7 69.1 9.5 68.5 8.3 68.5 C 6.5 68.5 5.4 69.9 5.4 71.7 C 5.4 73.5 6.5 74.9 8.3 74.9 C 9.5 74.9 10.7 74.3 11.4 73.1 Z M 17.1 58 C 17.1 57.2 17.8 56.6 18.5 56.6 C 19.4 56.6 20 57.2 20 58 C 20 58.9 19.4 59.5 18.5 59.5 C 17.8 59.5 17.1 58.9 17.1 58 Z M 17.5 76.1 L 17.5 61.6 L 19.6 61.6 L 19.6 76.1 L 17.5 76.1 Z M 38.2 76.1 C 38.2 76.1 38.22 65.6 38.2 65.6 C 38.2 64 37.6 63.2 36.2 63.2 C 34.9 63.2 33.6 64.3 33.1 65.5 C 33.06 65.48 33.1 76.1 33.1 76.1 L 30.9 76.1 C 30.9 76.1 30.9 65.6 30.9 65.6 C 30.9 64 30.3 63.2 28.9 63.2 C 27.6 63.2 26.3 64.3 25.7 65.5 C 25.71 65.48 25.7 76.1 25.7 76.1 L 23.6 76.1 L 23.6 61.6 L 25.7 61.6 C 25.7 61.6 25.71 63.68 25.7 63.7 C 26.3 62.6 27.9 61.3 29.7 61.3 C 31.5 61.3 32.7 62.3 32.9 63.8 C 33.7 62.5 35.3 61.3 37 61.3 C 39.2 61.3 40.4 62.4 40.4 65 C 40.38 65.03 40.4 76.1 40.4 76.1 L 38.2 76.1 Z M 43.2 74.4 C 43.2 74.4 44.3 72.9 44.3 72.9 C 45.1 73.9 46.5 74.7 48 74.7 C 49.7 74.7 50.8 73.8 50.8 72.4 C 50.8 69 43.6 70.2 43.6 65.2 C 43.6 63 45.3 61.3 48.2 61.3 C 50.1 61.3 51.6 62 52.6 63.1 C 52.6 63.1 51.6 64.6 51.6 64.6 C 50.9 63.6 49.7 63 48.2 63 C 46.7 63 45.7 63.9 45.7 65.1 C 45.7 68.2 52.9 67.1 52.9 72.3 C 52.9 74.7 51 76.5 48.1 76.5 C 46 76.5 44.4 75.8 43.2 74.4 Z M 62.8 73.2 C 62.82 73.19 62.8 63.5 62.8 63.5 L 60.9 63.5 L 60.9 61.6 L 62.8 61.6 L 62.8 57.7 L 65 57.7 L 65 61.6 L 67.4 61.6 L 67.4 63.5 L 65 63.5 C 65 63.5 64.98 72.8 65 72.8 C 65 73.9 65.3 74.5 66.2 74.5 C 66.7 74.5 67.1 74.3 67.4 74 C 67.4 74 68.1 75.6 68.1 75.6 C 67.6 76.1 66.8 76.5 65.7 76.5 C 63.8 76.5 62.8 75.4 62.8 73.2 Z M 69.6 68.8 C 69.6 64.8 71.6 61.3 75.5 61.3 C 79.4 61.3 81.4 64.8 81.4 68.8 C 81.4 72.9 79.4 76.5 75.5 76.5 C 71.6 76.5 69.6 72.9 69.6 68.8 Z M 79.1 68.8 C 79.1 65.9 78 63.2 75.5 63.2 C 73 63.2 71.8 65.9 71.8 68.8 C 71.8 71.8 73 74.5 75.5 74.5 C 78 74.5 79.1 71.8 79.1 68.8 Z M 96.5 74.5 C 98.8 74.5 99.9 72 99.9 68.9 C 99.9 65.7 98.8 63.2 96.5 63.2 C 95.1 63.2 93.8 64.3 93.2 65.6 C 93.2 65.6 93.2 72.2 93.2 72.2 C 93.8 73.5 95.1 74.5 96.5 74.5 Z M 91.1 76.1 L 91.1 56.1 L 93.2 56.1 C 93.2 56.1 93.18 63.71 93.2 63.7 C 94.1 62.1 95.5 61.3 97 61.3 C 100.3 61.3 102.2 64.4 102.2 68.9 C 102.2 73.4 100.3 76.5 97 76.5 C 95.5 76.5 94 75.5 93.2 74 C 93.18 74.03 93.2 76.1 93.2 76.1 L 91.1 76.1 Z M 104.7 68.8 C 104.7 64.6 107 61.3 110.6 61.3 C 114.4 61.3 116.3 64.7 116.3 68.9 C 116.34 68.9 116.3 69.6 116.3 69.6 C 116.3 69.6 106.95 69.56 107 69.6 C 107 72.5 108.5 74.7 111.1 74.7 C 112.4 74.7 113.7 74 114.6 72.9 C 114.6 72.9 115.7 74.2 115.7 74.2 C 114.5 75.6 112.9 76.5 110.9 76.5 C 107.1 76.5 104.7 73.3 104.7 68.8 Z M 110.6 63.1 C 108 63.1 107 65.8 107 68 C 107 68 114.2 68 114.2 68 C 114.2 65.8 113.2 63.1 110.6 63.1 Z M 133.4 76.1 C 133.4 76.1 133.38 74.54 133.4 74.5 C 132.5 75.9 131 76.5 129.6 76.5 C 127.2 76.5 125.2 74.7 125.2 71.6 C 125.2 68.6 127.2 66.9 129.6 66.9 C 131 66.9 132.5 67.4 133.4 68.7 C 133.4 68.7 133.4 66.2 133.4 66.2 C 133.4 64.2 132.3 63.1 130.4 63.1 C 129.1 63.1 127.9 63.6 126.8 64.9 C 126.8 64.9 125.8 63.4 125.8 63.4 C 127.2 61.9 128.9 61.3 130.7 61.3 C 133.6 61.3 135.5 62.7 135.5 66 C 135.54 65.96 135.5 76.1 135.5 76.1 L 133.4 76.1 Z M 133.4 73.1 C 133.4 73.1 133.4 70.3 133.4 70.3 C 132.7 69.1 131.5 68.5 130.3 68.5 C 128.5 68.5 127.4 69.9 127.4 71.7 C 127.4 73.5 128.5 74.9 130.3 74.9 C 131.5 74.9 132.7 74.3 133.4 73.1 Z M 145.9 76.1 L 145.9 61.6 L 148.1 61.6 C 148.1 61.6 148.05 63.92 148.1 63.9 C 149 62.4 150.4 61.3 152.2 61.3 C 152.2 61.3 152.2 63.5 152.2 63.5 C 151.9 63.5 151.7 63.4 151.4 63.4 C 150.1 63.4 148.7 64.6 148.1 65.8 C 148.05 65.81 148.1 76.1 148.1 76.1 L 145.9 76.1 Z M 153.9 68.8 C 153.9 64.6 156.2 61.3 159.8 61.3 C 163.6 61.3 165.5 64.7 165.5 68.9 C 165.54 68.9 165.5 69.6 165.5 69.6 C 165.5 69.6 156.15 69.56 156.2 69.6 C 156.2 72.5 157.7 74.7 160.3 74.7 C 161.6 74.7 162.9 74 163.8 72.9 C 163.8 72.9 164.9 74.2 164.9 74.2 C 163.7 75.6 162.1 76.5 160.1 76.5 C 156.3 76.5 153.9 73.3 153.9 68.8 Z M 159.8 63.1 C 157.2 63.1 156.2 65.8 156.2 68 C 156.2 68 163.4 68 163.4 68 C 163.4 65.8 162.4 63.1 159.8 63.1 Z M 183.3 76.1 C 183.3 76.1 183.33 65.6 183.3 65.6 C 183.3 64 182.7 63.2 181.3 63.2 C 180 63.2 178.7 64.3 178.2 65.5 C 178.17 65.48 178.2 76.1 178.2 76.1 L 176 76.1 C 176 76.1 176.01 65.6 176 65.6 C 176 64 175.4 63.2 174 63.2 C 172.7 63.2 171.5 64.3 170.8 65.5 C 170.82 65.48 170.8 76.1 170.8 76.1 L 168.7 76.1 L 168.7 61.6 L 170.8 61.6 C 170.8 61.6 170.82 63.68 170.8 63.7 C 171.4 62.6 173 61.3 174.8 61.3 C 176.6 61.3 177.8 62.3 178.1 63.8 C 178.8 62.5 180.4 61.3 182.1 61.3 C 184.3 61.3 185.5 62.4 185.5 65 C 185.49 65.03 185.5 76.1 185.5 76.1 L 183.3 76.1 Z M 189 58 C 189 57.2 189.7 56.6 190.5 56.6 C 191.3 56.6 192 57.2 192 58 C 192 58.9 191.3 59.5 190.5 59.5 C 189.7 59.5 189 58.9 189 58 Z M 189.4 76.1 L 189.4 61.6 L 191.6 61.6 L 191.6 76.1 L 189.4 76.1 Z M 203.4 76.1 C 203.4 76.1 203.37 65.78 203.4 65.8 C 203.4 63.9 202.5 63.2 201.1 63.2 C 199.6 63.2 198.3 64.3 197.7 65.5 C 197.67 65.48 197.7 76.1 197.7 76.1 L 195.5 76.1 L 195.5 61.6 L 197.7 61.6 C 197.7 61.6 197.67 63.68 197.7 63.7 C 198.5 62.4 200.1 61.3 201.9 61.3 C 204.3 61.3 205.5 62.6 205.5 65.2 C 205.53 65.18 205.5 76.1 205.5 76.1 L 203.4 76.1 Z M 217.8 76.1 C 217.8 76.1 217.77 74.03 217.8 74 C 216.9 75.5 215.5 76.5 214 76.5 C 210.7 76.5 208.8 73.4 208.8 68.9 C 208.8 64.4 210.7 61.3 214 61.3 C 215.4 61.3 216.9 62.1 217.8 63.7 C 217.77 63.71 217.8 56.1 217.8 56.1 L 219.9 56.1 L 219.9 76.1 L 217.8 76.1 Z M 217.8 72.2 C 217.8 72.2 217.8 65.5 217.8 65.5 C 217.2 64.3 215.9 63.2 214.5 63.2 C 212.1 63.2 211 65.7 211 68.9 C 211 72 212.1 74.5 214.5 74.5 C 215.9 74.5 217.2 73.5 217.8 72.2 Z M 223.2 68.8 C 223.2 64.6 225.4 61.3 229 61.3 C 232.9 61.3 234.8 64.7 234.8 68.9 C 234.78 68.9 234.8 69.6 234.8 69.6 C 234.8 69.6 225.39 69.56 225.4 69.6 C 225.5 72.5 227 74.7 229.6 74.7 C 230.8 74.7 232.1 74 233 72.9 C 233 72.9 234.1 74.2 234.1 74.2 C 233 75.6 231.3 76.5 229.4 76.5 C 225.5 76.5 223.2 73.3 223.2 68.8 Z M 229 63.1 C 226.5 63.1 225.4 65.8 225.4 68 C 225.4 68 232.6 68 232.6 68 C 232.6 65.8 231.7 63.1 229 63.1 Z M 237.9 76.1 L 237.9 61.6 L 240.1 61.6 C 240.1 61.6 240.06 63.92 240.1 63.9 C 241 62.4 242.4 61.3 244.2 61.3 C 244.2 61.3 244.2 63.5 244.2 63.5 C 243.9 63.5 243.7 63.4 243.4 63.4 C 242.1 63.4 240.7 64.6 240.1 65.8 C 240.06 65.81 240.1 76.1 240.1 76.1 L 237.9 76.1 Z M 252.4 68.8 C 252.4 64.8 254.4 61.3 258.3 61.3 C 262.2 61.3 264.2 64.8 264.2 68.8 C 264.2 72.9 262.2 76.5 258.3 76.5 C 254.4 76.5 252.4 72.9 252.4 68.8 Z M 261.9 68.8 C 261.9 65.9 260.8 63.2 258.3 63.2 C 255.8 63.2 254.6 65.9 254.6 68.8 C 254.6 71.8 255.8 74.5 258.3 74.5 C 260.8 74.5 261.9 71.8 261.9 68.8 Z M 267.9 76.1 L 267.9 63.5 L 266 63.5 L 266 61.6 L 267.9 61.6 C 267.9 61.6 267.93 59.84 267.9 59.8 C 267.9 57.3 269.3 55.8 271.6 55.8 C 272.5 55.8 273.4 56.1 274.1 56.8 C 274.1 56.8 273.3 58.3 273.3 58.3 C 272.9 57.9 272.5 57.6 271.9 57.6 C 270.7 57.6 270.1 58.4 270.1 59.8 C 270.09 59.84 270.1 61.6 270.1 61.6 L 272.5 61.6 L 272.5 63.5 L 270.1 63.5 L 270.1 76.1 L 267.9 76.1 Z M 281.9 73.2 C 281.91 73.19 281.9 63.5 281.9 63.5 L 280 63.5 L 280 61.6 L 281.9 61.6 L 281.9 57.7 L 284.1 57.7 L 284.1 61.6 L 286.5 61.6 L 286.5 63.5 L 284.1 63.5 C 284.1 63.5 284.07 72.8 284.1 72.8 C 284.1 73.9 284.4 74.5 285.2 74.5 C 285.8 74.5 286.2 74.3 286.5 74 C 286.5 74 287.2 75.6 287.2 75.6 C 286.6 76.1 285.9 76.5 284.8 76.5 C 282.8 76.5 281.9 75.4 281.9 73.2 Z M 297.2 76.1 C 297.2 76.1 297.24 65.75 297.2 65.8 C 297.2 63.8 296.3 63.2 294.9 63.2 C 293.5 63.2 292.2 64.3 291.5 65.5 C 291.51 65.48 291.5 76.1 291.5 76.1 L 289.4 76.1 L 289.4 56.1 L 291.5 56.1 C 291.5 56.1 291.51 63.68 291.5 63.7 C 292.3 62.4 294 61.3 295.7 61.3 C 298.2 61.3 299.4 62.5 299.4 65.1 C 299.37 65.12 299.4 76.1 299.4 76.1 L 297.2 76.1 Z M 302.6 68.8 C 302.6 64.6 304.8 61.3 308.5 61.3 C 312.3 61.3 314.2 64.7 314.2 68.9 C 314.22 68.9 314.2 69.6 314.2 69.6 C 314.2 69.6 304.83 69.56 304.8 69.6 C 304.9 72.5 306.4 74.7 309 74.7 C 310.3 74.7 311.5 74 312.4 72.9 C 312.4 72.9 313.6 74.2 313.6 74.2 C 312.4 75.6 310.8 76.5 308.8 76.5 C 304.9 76.5 302.6 73.3 302.6 68.8 Z M 308.5 63.1 C 305.9 63.1 304.9 65.8 304.8 68 C 304.8 68 312.1 68 312.1 68 C 312.1 65.8 311.1 63.1 308.5 63.1 Z M 326.8 76.1 L 322 61.6 L 324.4 61.6 L 328 73.6 L 331.6 61.6 L 333.9 61.6 L 329.1 76.1 L 326.8 76.1 Z M 335.3 68.8 C 335.3 64.6 337.6 61.3 341.2 61.3 C 345 61.3 346.9 64.7 346.9 68.9 C 346.95 68.9 346.9 69.6 346.9 69.6 C 346.9 69.6 337.56 69.56 337.6 69.6 C 337.6 72.5 339.1 74.7 341.7 74.7 C 343 74.7 344.3 74 345.2 72.9 C 345.2 72.9 346.3 74.2 346.3 74.2 C 345.1 75.6 343.5 76.5 341.5 76.5 C 337.7 76.5 335.3 73.3 335.3 68.8 Z M 341.2 63.1 C 338.6 63.1 337.6 65.8 337.6 68 C 337.6 68 344.8 68 344.8 68 C 344.8 65.8 343.8 63.1 341.2 63.1 Z M 350.1 76.1 L 350.1 61.6 L 352.2 61.6 C 352.2 61.6 352.23 63.92 352.2 63.9 C 353.2 62.4 354.6 61.3 356.3 61.3 C 356.3 61.3 356.3 63.5 356.3 63.5 C 356.1 63.5 355.9 63.4 355.6 63.4 C 354.3 63.4 352.8 64.6 352.2 65.8 C 352.23 65.81 352.2 76.1 352.2 76.1 L 350.1 76.1 Z M 358.4 79.9 C 358.7 80 359.1 80.1 359.4 80.1 C 360.2 80.1 360.7 79.7 361.1 78.6 C 361.08 78.62 361.9 76.4 361.9 76.4 L 357 61.6 L 359.4 61.6 L 363 73.5 L 366.6 61.6 L 368.9 61.6 C 368.9 61.6 363.12 79.16 363.1 79.2 C 362.4 81.3 361.2 82 359.5 82 C 359.1 82 358.4 81.9 358.1 81.8 C 358.1 81.8 358.4 79.9 358.4 79.9 Z M 377.5 76.1 L 377.5 61.6 L 379.6 61.6 C 379.6 61.6 379.64 63.92 379.6 63.9 C 380.6 62.4 382 61.3 383.8 61.3 C 383.8 61.3 383.8 63.5 383.8 63.5 C 383.5 63.5 383.3 63.4 383 63.4 C 381.7 63.4 380.2 64.6 379.6 65.8 C 379.64 65.81 379.6 76.1 379.6 76.1 L 377.5 76.1 Z M 385.5 68.8 C 385.5 64.6 387.7 61.3 391.4 61.3 C 395.2 61.3 397.1 64.7 397.1 68.9 C 397.13 68.9 397.1 69.6 397.1 69.6 C 397.1 69.6 387.74 69.56 387.7 69.6 C 387.8 72.5 389.3 74.7 391.9 74.7 C 393.2 74.7 394.5 74 395.4 72.9 C 395.4 72.9 396.5 74.2 396.5 74.2 C 395.3 75.6 393.7 76.5 391.7 76.5 C 387.9 76.5 385.5 73.3 385.5 68.8 Z M 391.4 63.1 C 388.8 63.1 387.8 65.8 387.7 68 C 387.7 68 395 68 395 68 C 395 65.8 394 63.1 391.4 63.1 Z M 407.7 76.1 C 407.7 76.1 407.72 74.54 407.7 74.5 C 406.8 75.9 405.4 76.5 403.9 76.5 C 401.6 76.5 399.5 74.7 399.5 71.6 C 399.5 68.6 401.5 66.9 403.9 66.9 C 405.4 66.9 406.8 67.4 407.7 68.7 C 407.7 68.7 407.7 66.2 407.7 66.2 C 407.7 64.2 406.6 63.1 404.8 63.1 C 403.4 63.1 402.2 63.6 401.1 64.9 C 401.1 64.9 400.2 63.4 400.2 63.4 C 401.5 61.9 403.3 61.3 405.1 61.3 C 408 61.3 409.9 62.7 409.9 66 C 409.88 65.96 409.9 76.1 409.9 76.1 L 407.7 76.1 Z M 407.7 73.1 C 407.7 73.1 407.7 70.3 407.7 70.3 C 407.1 69.1 405.9 68.5 404.6 68.5 C 402.8 68.5 401.7 69.9 401.7 71.7 C 401.7 73.5 402.8 74.9 404.6 74.9 C 405.9 74.9 407.1 74.3 407.7 73.1 Z M 413.8 76.1 L 413.8 56.1 L 415.9 56.1 L 415.9 76.1 L 413.8 76.1 Z M 428.5 74 C 428.48 74 428.5 81.6 428.5 81.6 L 426.4 81.6 L 426.4 61.6 L 428.5 61.6 C 428.5 61.6 428.48 63.68 428.5 63.7 C 429.3 62.2 430.8 61.3 432.3 61.3 C 435.6 61.3 437.5 64.3 437.5 68.8 C 437.5 73.4 435.6 76.5 432.3 76.5 C 430.8 76.5 429.4 75.6 428.5 74 Z M 435.2 68.8 C 435.2 65.7 434.1 63.2 431.8 63.2 C 430.4 63.2 429.1 64.3 428.5 65.5 C 428.5 65.5 428.5 72.1 428.5 72.1 C 429.1 73.4 430.4 74.5 431.8 74.5 C 434.1 74.5 435.2 72 435.2 68.8 Z M 440.7 76.1 L 440.7 61.6 L 442.8 61.6 C 442.8 61.6 442.82 63.92 442.8 63.9 C 443.8 62.4 445.2 61.3 446.9 61.3 C 446.9 61.3 446.9 63.5 446.9 63.5 C 446.7 63.5 446.5 63.4 446.2 63.4 C 444.9 63.4 443.4 64.6 442.8 65.8 C 442.82 65.81 442.8 76.1 442.8 76.1 L 440.7 76.1 Z M 448.7 68.8 C 448.7 64.8 450.7 61.3 454.6 61.3 C 458.5 61.3 460.5 64.8 460.5 68.8 C 460.5 72.9 458.5 76.5 454.6 76.5 C 450.7 76.5 448.7 72.9 448.7 68.8 Z M 458.2 68.8 C 458.2 65.9 457.1 63.2 454.6 63.2 C 452.1 63.2 451 65.9 451 68.8 C 451 71.8 452.1 74.5 454.6 74.5 C 457.1 74.5 458.2 71.8 458.2 68.8 Z M 469.1 74.5 C 471.5 74.5 472.6 72 472.6 68.9 C 472.6 65.7 471.5 63.2 469.1 63.2 C 467.8 63.2 466.4 64.3 465.9 65.6 C 465.9 65.6 465.9 72.2 465.9 72.2 C 466.4 73.5 467.8 74.5 469.1 74.5 Z M 463.7 76.1 L 463.7 56.1 L 465.9 56.1 C 465.9 56.1 465.86 63.71 465.9 63.7 C 466.8 62.1 468.2 61.3 469.7 61.3 C 472.9 61.3 474.9 64.4 474.9 68.9 C 474.9 73.4 472.9 76.5 469.7 76.5 C 468.1 76.5 466.7 75.5 465.9 74 C 465.86 74.03 465.9 76.1 465.9 76.1 L 463.7 76.1 Z M 478.1 76.1 L 478.1 56.1 L 480.3 56.1 L 480.3 76.1 L 478.1 76.1 Z M 483.5 68.8 C 483.5 64.6 485.7 61.3 489.4 61.3 C 493.2 61.3 495.1 64.7 495.1 68.9 C 495.11 68.9 495.1 69.6 495.1 69.6 C 495.1 69.6 485.72 69.56 485.7 69.6 C 485.8 72.5 487.3 74.7 489.9 74.7 C 491.2 74.7 492.4 74 493.3 72.9 C 493.3 72.9 494.5 74.2 494.5 74.2 C 493.3 75.6 491.7 76.5 489.7 76.5 C 485.8 76.5 483.5 73.3 483.5 68.8 Z M 489.4 63.1 C 486.8 63.1 485.8 65.8 485.7 68 C 485.7 68 493 68 493 68 C 493 65.8 492 63.1 489.4 63.1 Z M 512.9 76.1 C 512.9 76.1 512.9 65.6 512.9 65.6 C 512.9 64 512.3 63.2 510.9 63.2 C 509.6 63.2 508.3 64.3 507.7 65.5 C 507.74 65.48 507.7 76.1 507.7 76.1 L 505.6 76.1 C 505.6 76.1 505.58 65.6 505.6 65.6 C 505.6 64 505 63.2 503.5 63.2 C 502.3 63.2 501 64.3 500.4 65.5 C 500.39 65.48 500.4 76.1 500.4 76.1 L 498.3 76.1 L 498.3 61.6 L 500.4 61.6 C 500.4 61.6 500.39 63.68 500.4 63.7 C 501 62.6 502.6 61.3 504.4 61.3 C 506.2 61.3 507.4 62.3 507.6 63.8 C 508.3 62.5 510 61.3 511.7 61.3 C 513.8 61.3 515.1 62.4 515.1 65 C 515.06 65.03 515.1 76.1 515.1 76.1 L 512.9 76.1 Z M 524.8 68.8 C 524.8 64.8 526.8 61.3 530.6 61.3 C 534.5 61.3 536.5 64.8 536.5 68.8 C 536.5 72.9 534.5 76.5 530.6 76.5 C 526.8 76.5 524.8 72.9 524.8 68.8 Z M 534.3 68.8 C 534.3 65.9 533.2 63.2 530.6 63.2 C 528.1 63.2 527 65.9 527 68.8 C 527 71.8 528.1 74.5 530.6 74.5 C 533.2 74.5 534.3 71.8 534.3 68.8 Z M 540.3 76.1 L 540.3 63.5 L 538.4 63.5 L 538.4 61.6 L 540.3 61.6 C 540.3 61.6 540.29 59.84 540.3 59.8 C 540.3 57.3 541.7 55.8 543.9 55.8 C 544.9 55.8 545.8 56.1 546.5 56.8 C 546.5 56.8 545.7 58.3 545.7 58.3 C 545.3 57.9 544.8 57.6 544.3 57.6 C 543.1 57.6 542.5 58.4 542.5 59.8 C 542.45 59.84 542.5 61.6 542.5 61.6 L 544.9 61.6 L 544.9 63.5 L 542.5 63.5 L 542.5 76.1 L 540.3 76.1 Z M 554.4 76.1 L 554.4 63.5 L 552.4 63.5 L 552.4 61.6 L 554.4 61.6 C 554.4 61.6 554.36 59.84 554.4 59.8 C 554.4 57.3 555.7 55.8 558 55.8 C 559 55.8 559.9 56.1 560.6 56.8 C 560.6 56.8 559.7 58.3 559.7 58.3 C 559.3 57.9 558.9 57.6 558.3 57.6 C 557.1 57.6 556.5 58.4 556.5 59.8 C 556.52 59.84 556.5 61.6 556.5 61.6 L 559 61.6 L 559 63.5 L 556.5 63.5 L 556.5 76.1 L 554.4 76.1 Z M 560.8 68.8 C 560.8 64.8 562.8 61.3 566.6 61.3 C 570.5 61.3 572.5 64.8 572.5 68.8 C 572.5 72.9 570.5 76.5 566.6 76.5 C 562.8 76.5 560.8 72.9 560.8 68.8 Z M 570.3 68.8 C 570.3 65.9 569.2 63.2 566.6 63.2 C 564.1 63.2 563 65.9 563 68.8 C 563 71.8 564.1 74.5 566.6 74.5 C 569.2 74.5 570.3 71.8 570.3 68.8 Z M 575.1 68.8 C 575.1 64.8 577.1 61.3 580.9 61.3 C 584.8 61.3 586.9 64.8 586.9 68.8 C 586.9 72.9 584.8 76.5 580.9 76.5 C 577.1 76.5 575.1 72.9 575.1 68.8 Z M 584.6 68.8 C 584.6 65.9 583.5 63.2 580.9 63.2 C 578.5 63.2 577.3 65.9 577.3 68.8 C 577.3 71.8 578.5 74.5 580.9 74.5 C 583.5 74.5 584.6 71.8 584.6 68.8 Z M 598.4 76.1 C 598.4 76.1 598.37 74.03 598.4 74 C 597.5 75.5 596.1 76.5 594.6 76.5 C 591.3 76.5 589.4 73.4 589.4 68.9 C 589.4 64.4 591.3 61.3 594.6 61.3 C 596 61.3 597.5 62.1 598.4 63.7 C 598.37 63.71 598.4 56.1 598.4 56.1 L 600.5 56.1 L 600.5 76.1 L 598.4 76.1 Z M 598.4 72.2 C 598.4 72.2 598.4 65.5 598.4 65.5 C 597.8 64.3 596.5 63.2 595.1 63.2 C 592.7 63.2 591.6 65.7 591.6 68.9 C 591.6 72 592.7 74.5 595.1 74.5 C 596.5 74.5 597.8 73.5 598.4 72.2 Z " stroke="none" fill="#d3d2d2"/>  </g>  <g id="Polygon113727">    <path d="M 14.5 40.1 L 13.2 35.6 L 6.1 35.6 L 4.8 40.1 L 2.2 40.1 L 8.2 20.1 L 11.1 20.1 L 17.1 40.1 L 14.5 40.1 Z M 9.6 22.7 L 6.6 33.5 L 12.7 33.5 L 9.6 22.7 Z M 19.5 37.2 C 19.5 37.19 19.5 27.5 19.5 27.5 L 17.6 27.5 L 17.6 25.6 L 19.5 25.6 L 19.5 21.7 L 21.7 21.7 L 21.7 25.6 L 24.1 25.6 L 24.1 27.5 L 21.7 27.5 C 21.7 27.5 21.66 36.8 21.7 36.8 C 21.7 37.9 22 38.5 22.8 38.5 C 23.4 38.5 23.8 38.3 24.1 38 C 24.1 38 24.8 39.6 24.8 39.6 C 24.2 40.1 23.5 40.5 22.4 40.5 C 20.4 40.5 19.5 39.4 19.5 37.2 Z M 33.8 37.2 C 33.84 37.19 33.8 27.5 33.8 27.5 L 31.9 27.5 L 31.9 25.6 L 33.8 25.6 L 33.8 21.7 L 36 21.7 L 36 25.6 L 38.5 25.6 L 38.5 27.5 L 36 27.5 C 36 27.5 36 36.8 36 36.8 C 36 37.9 36.3 38.5 37.2 38.5 C 37.7 38.5 38.2 38.3 38.4 38 C 38.4 38 39.1 39.6 39.1 39.6 C 38.6 40.1 37.9 40.5 36.8 40.5 C 34.8 40.5 33.8 39.4 33.8 37.2 Z M 49.2 40.1 C 49.2 40.1 49.17 29.75 49.2 29.8 C 49.2 27.8 48.3 27.2 46.8 27.2 C 45.4 27.2 44.1 28.3 43.4 29.5 C 43.44 29.48 43.4 40.1 43.4 40.1 L 41.3 40.1 L 41.3 20.1 L 43.4 20.1 C 43.4 20.1 43.44 27.68 43.4 27.7 C 44.3 26.4 45.9 25.3 47.7 25.3 C 50.1 25.3 51.3 26.5 51.3 29.1 C 51.3 29.12 51.3 40.1 51.3 40.1 L 49.2 40.1 Z M 54.5 32.8 C 54.5 28.6 56.8 25.3 60.4 25.3 C 64.2 25.3 66.2 28.7 66.2 32.9 C 66.15 32.9 66.2 33.6 66.2 33.6 C 66.2 33.6 56.76 33.56 56.8 33.6 C 56.9 36.5 58.4 38.7 60.9 38.7 C 62.2 38.7 63.5 38 64.4 36.9 C 64.4 36.9 65.5 38.2 65.5 38.2 C 64.4 39.6 62.7 40.5 60.8 40.5 C 56.9 40.5 54.5 37.3 54.5 32.8 Z M 60.4 27.1 C 57.8 27.1 56.8 29.8 56.8 32 C 56.8 32 64 32 64 32 C 64 29.8 63 27.1 60.4 27.1 Z M 75 32.8 C 75 28.6 77.3 25.3 80.9 25.3 C 84.7 25.3 86.6 28.7 86.6 32.9 C 86.64 32.9 86.6 33.6 86.6 33.6 C 86.6 33.6 77.25 33.56 77.3 33.6 C 77.3 36.5 78.8 38.7 81.4 38.7 C 82.7 38.7 84 38 84.9 36.9 C 84.9 36.9 86 38.2 86 38.2 C 84.8 39.6 83.2 40.5 81.2 40.5 C 77.4 40.5 75 37.3 75 32.8 Z M 80.9 27.1 C 78.3 27.1 77.3 29.8 77.3 32 C 77.3 32 84.5 32 84.5 32 C 84.5 29.8 83.5 27.1 80.9 27.1 Z M 97.6 40.1 C 97.6 40.1 97.62 29.78 97.6 29.8 C 97.6 27.9 96.8 27.2 95.3 27.2 C 93.9 27.2 92.6 28.3 91.9 29.5 C 91.92 29.48 91.9 40.1 91.9 40.1 L 89.8 40.1 L 89.8 25.6 L 91.9 25.6 C 91.9 25.6 91.92 27.68 91.9 27.7 C 92.8 26.4 94.4 25.3 96.1 25.3 C 98.6 25.3 99.8 26.6 99.8 29.2 C 99.78 29.18 99.8 40.1 99.8 40.1 L 97.6 40.1 Z M 112 40.1 C 112 40.1 112.02 38.03 112 38 C 111.2 39.5 109.7 40.5 108.2 40.5 C 105 40.5 103 37.4 103 32.9 C 103 28.4 104.9 25.3 108.2 25.3 C 109.7 25.3 111.2 26.1 112 27.7 C 112.02 27.71 112 20.1 112 20.1 L 114.2 20.1 L 114.2 40.1 L 112 40.1 Z M 112 36.2 C 112 36.2 112 29.5 112 29.5 C 111.5 28.3 110.1 27.2 108.8 27.2 C 106.4 27.2 105.3 29.7 105.3 32.9 C 105.3 36 106.4 38.5 108.8 38.5 C 110.1 38.5 111.5 37.5 112 36.2 Z M 123.9 32.8 C 123.9 28.8 125.9 25.3 129.8 25.3 C 133.7 25.3 135.7 28.8 135.7 32.8 C 135.7 36.9 133.7 40.5 129.8 40.5 C 125.9 40.5 123.9 36.9 123.9 32.8 Z M 133.4 32.8 C 133.4 29.9 132.3 27.2 129.8 27.2 C 127.3 27.2 126.1 29.9 126.1 32.8 C 126.1 35.8 127.3 38.5 129.8 38.5 C 132.3 38.5 133.4 35.8 133.4 32.8 Z M 139.4 40.1 L 139.4 27.5 L 137.5 27.5 L 137.5 25.6 L 139.4 25.6 C 139.4 25.6 139.41 23.84 139.4 23.8 C 139.4 21.3 140.8 19.8 143 19.8 C 144 19.8 144.9 20.1 145.6 20.8 C 145.6 20.8 144.8 22.3 144.8 22.3 C 144.4 21.9 143.9 21.6 143.4 21.6 C 142.2 21.6 141.6 22.4 141.6 23.8 C 141.57 23.84 141.6 25.6 141.6 25.6 L 144 25.6 L 144 27.5 L 141.6 27.5 L 141.6 40.1 L 139.4 40.1 Z M 153.4 37.2 C 153.39 37.19 153.4 27.5 153.4 27.5 L 151.5 27.5 L 151.5 25.6 L 153.4 25.6 L 153.4 21.7 L 155.6 21.7 L 155.6 25.6 L 158 25.6 L 158 27.5 L 155.6 27.5 C 155.6 27.5 155.55 36.8 155.6 36.8 C 155.6 37.9 155.9 38.5 156.7 38.5 C 157.3 38.5 157.7 38.3 158 38 C 158 38 158.6 39.6 158.6 39.6 C 158.1 40.1 157.4 40.5 156.3 40.5 C 154.3 40.5 153.4 39.4 153.4 37.2 Z M 168.7 40.1 C 168.7 40.1 168.72 29.75 168.7 29.8 C 168.7 27.8 167.8 27.2 166.4 27.2 C 165 27.2 163.7 28.3 163 29.5 C 162.99 29.48 163 40.1 163 40.1 L 160.9 40.1 L 160.9 20.1 L 163 20.1 C 163 20.1 162.99 27.68 163 27.7 C 163.8 26.4 165.5 25.3 167.2 25.3 C 169.7 25.3 170.9 26.5 170.9 29.1 C 170.85 29.12 170.9 40.1 170.9 40.1 L 168.7 40.1 Z M 174.1 32.8 C 174.1 28.6 176.3 25.3 180 25.3 C 183.8 25.3 185.7 28.7 185.7 32.9 C 185.7 32.9 185.7 33.6 185.7 33.6 C 185.7 33.6 176.31 33.56 176.3 33.6 C 176.4 36.5 177.9 38.7 180.5 38.7 C 181.7 38.7 183 38 183.9 36.9 C 183.9 36.9 185.1 38.2 185.1 38.2 C 183.9 39.6 182.3 40.5 180.3 40.5 C 176.4 40.5 174.1 37.3 174.1 32.8 Z M 179.9 27.1 C 177.4 27.1 176.4 29.8 176.3 32 C 176.3 32 183.6 32 183.6 32 C 183.5 29.8 182.6 27.1 179.9 27.1 Z M 203.6 40.1 C 203.6 40.1 203.58 38.03 203.6 38 C 202.7 39.5 201.3 40.5 199.8 40.5 C 196.5 40.5 194.6 37.4 194.6 32.9 C 194.6 28.4 196.5 25.3 199.8 25.3 C 201.2 25.3 202.7 26.1 203.6 27.7 C 203.58 27.71 203.6 20.1 203.6 20.1 L 205.7 20.1 L 205.7 40.1 L 203.6 40.1 Z M 203.6 36.2 C 203.6 36.2 203.6 29.5 203.6 29.5 C 203 28.3 201.7 27.2 200.3 27.2 C 197.9 27.2 196.8 29.7 196.8 32.9 C 196.8 36 197.9 38.5 200.3 38.5 C 201.7 38.5 203 37.5 203.6 36.2 Z M 217.1 40.1 C 217.1 40.1 217.14 38.54 217.1 38.5 C 216.2 39.9 214.8 40.5 213.3 40.5 C 211 40.5 209 38.7 209 35.6 C 209 32.6 211 30.9 213.3 30.9 C 214.8 30.9 216.2 31.4 217.1 32.7 C 217.1 32.7 217.1 30.2 217.1 30.2 C 217.1 28.2 216.1 27.1 214.2 27.1 C 212.8 27.1 211.7 27.6 210.5 28.9 C 210.5 28.9 209.6 27.4 209.6 27.4 C 211 25.9 212.7 25.3 214.5 25.3 C 217.4 25.3 219.3 26.7 219.3 30 C 219.3 29.96 219.3 40.1 219.3 40.1 L 217.1 40.1 Z M 217.1 37.1 C 217.1 37.1 217.1 34.3 217.1 34.3 C 216.5 33.1 215.3 32.5 214 32.5 C 212.2 32.5 211.1 33.9 211.1 35.7 C 211.1 37.5 212.2 38.9 214 38.9 C 215.3 38.9 216.5 38.3 217.1 37.1 Z M 222.8 43.9 C 223.1 44 223.5 44.1 223.8 44.1 C 224.6 44.1 225.1 43.7 225.5 42.6 C 225.48 42.62 226.3 40.4 226.3 40.4 L 221.4 25.6 L 223.8 25.6 L 227.4 37.5 L 231 25.6 L 233.3 25.6 C 233.3 25.6 227.52 43.16 227.5 43.2 C 226.8 45.3 225.6 46 223.9 46 C 223.5 46 222.8 45.9 222.5 45.8 C 222.5 45.8 222.8 43.9 222.8 43.9 Z M 234.8 43.9 C 234.8 43.9 233.7 43 233.7 43 C 234.7 42.4 235.5 41.2 235.6 40.2 C 235.6 40.2 235.3 40.3 235.2 40.3 C 234.4 40.3 233.8 39.6 233.8 38.8 C 233.8 37.9 234.5 37.2 235.4 37.2 C 236.3 37.2 237.2 38 237.2 39.4 C 237.2 41.2 236.1 42.9 234.8 43.9 Z M 247.7 37.2 C 247.68 37.19 247.7 27.5 247.7 27.5 L 245.8 27.5 L 245.8 25.6 L 247.7 25.6 L 247.7 21.7 L 249.8 21.7 L 249.8 25.6 L 252.3 25.6 L 252.3 27.5 L 249.8 27.5 C 249.8 27.5 249.84 36.8 249.8 36.8 C 249.8 37.9 250.2 38.5 251 38.5 C 251.5 38.5 252 38.3 252.3 38 C 252.3 38 252.9 39.6 252.9 39.6 C 252.4 40.1 251.7 40.5 250.6 40.5 C 248.6 40.5 247.7 39.4 247.7 37.2 Z M 263 40.1 C 263 40.1 263.01 29.75 263 29.8 C 263 27.8 262.1 27.2 260.7 27.2 C 259.3 27.2 257.9 28.3 257.3 29.5 C 257.28 29.48 257.3 40.1 257.3 40.1 L 255.1 40.1 L 255.1 20.1 L 257.3 20.1 C 257.3 20.1 257.28 27.68 257.3 27.7 C 258.1 26.4 259.8 25.3 261.5 25.3 C 264 25.3 265.1 26.5 265.1 29.1 C 265.14 29.12 265.1 40.1 265.1 40.1 L 263 40.1 Z M 268.7 22 C 268.7 21.2 269.4 20.6 270.1 20.6 C 271 20.6 271.6 21.2 271.6 22 C 271.6 22.9 271 23.5 270.1 23.5 C 269.4 23.5 268.7 22.9 268.7 22 Z M 269.1 40.1 L 269.1 25.6 L 271.2 25.6 L 271.2 40.1 L 269.1 40.1 Z M 274 38.4 C 274 38.4 275.1 36.9 275.1 36.9 C 275.9 37.9 277.3 38.7 278.9 38.7 C 280.6 38.7 281.7 37.8 281.7 36.4 C 281.7 33 274.4 34.2 274.4 29.2 C 274.4 27 276.2 25.3 279.1 25.3 C 281 25.3 282.4 26 283.5 27.1 C 283.5 27.1 282.4 28.6 282.4 28.6 C 281.7 27.6 280.5 27 279.1 27 C 277.5 27 276.5 27.9 276.5 29.1 C 276.5 32.2 283.7 31.1 283.7 36.3 C 283.7 38.7 281.9 40.5 278.9 40.5 C 276.9 40.5 275.2 39.8 274 38.4 Z M 292.1 38.4 C 292.1 38.4 293.2 36.9 293.2 36.9 C 294 37.9 295.4 38.7 296.9 38.7 C 298.6 38.7 299.7 37.8 299.7 36.4 C 299.7 33 292.5 34.2 292.5 29.2 C 292.5 27 294.2 25.3 297.1 25.3 C 299 25.3 300.5 26 301.5 27.1 C 301.5 27.1 300.5 28.6 300.5 28.6 C 299.8 27.6 298.6 27 297.1 27 C 295.6 27 294.6 27.9 294.6 29.1 C 294.6 32.2 301.8 31.1 301.8 36.3 C 301.8 38.7 299.9 40.5 297 40.5 C 294.9 40.5 293.3 39.8 292.1 38.4 Z M 312.3 40.1 C 312.3 40.1 312.3 38.54 312.3 38.5 C 311.4 39.9 310 40.5 308.5 40.5 C 306.1 40.5 304.1 38.7 304.1 35.6 C 304.1 32.6 306.1 30.9 308.5 30.9 C 310 30.9 311.4 31.4 312.3 32.7 C 312.3 32.7 312.3 30.2 312.3 30.2 C 312.3 28.2 311.2 27.1 309.3 27.1 C 308 27.1 306.8 27.6 305.7 28.9 C 305.7 28.9 304.7 27.4 304.7 27.4 C 306.1 25.9 307.8 25.3 309.7 25.3 C 312.5 25.3 314.5 26.7 314.5 30 C 314.46 29.96 314.5 40.1 314.5 40.1 L 312.3 40.1 Z M 312.3 37.1 C 312.3 37.1 312.3 34.3 312.3 34.3 C 311.6 33.1 310.4 32.5 309.2 32.5 C 307.4 32.5 306.3 33.9 306.3 35.7 C 306.3 37.5 307.4 38.9 309.2 38.9 C 310.4 38.9 311.6 38.3 312.3 37.1 Z M 318.8 37.2 C 318.81 37.19 318.8 27.5 318.8 27.5 L 316.9 27.5 L 316.9 25.6 L 318.8 25.6 L 318.8 21.7 L 321 21.7 L 321 25.6 L 323.4 25.6 L 323.4 27.5 L 321 27.5 C 321 27.5 320.97 36.8 321 36.8 C 321 37.9 321.3 38.5 322.1 38.5 C 322.7 38.5 323.1 38.3 323.4 38 C 323.4 38 324.1 39.6 324.1 39.6 C 323.5 40.1 322.8 40.5 321.7 40.5 C 319.7 40.5 318.8 39.4 318.8 37.2 Z M 325.9 22 C 325.9 21.2 326.5 20.6 327.3 20.6 C 328.1 20.6 328.8 21.2 328.8 22 C 328.8 22.9 328.1 23.5 327.3 23.5 C 326.5 23.5 325.9 22.9 325.9 22 Z M 326.3 40.1 L 326.3 25.6 L 328.4 25.6 L 328.4 40.1 L 326.3 40.1 Z M 332.4 40.1 L 332.4 25.6 L 334.5 25.6 C 334.5 25.6 334.5 27.92 334.5 27.9 C 335.4 26.4 336.8 25.3 338.6 25.3 C 338.6 25.3 338.6 27.5 338.6 27.5 C 338.4 27.5 338.1 27.4 337.9 27.4 C 336.6 27.4 335.1 28.6 334.5 29.8 C 334.5 29.81 334.5 40.1 334.5 40.1 L 332.4 40.1 Z M 340.7 22 C 340.7 21.2 341.4 20.6 342.1 20.6 C 343 20.6 343.6 21.2 343.6 22 C 343.6 22.9 343 23.5 342.1 23.5 C 341.4 23.5 340.7 22.9 340.7 22 Z M 341.1 40.1 L 341.1 25.6 L 343.2 25.6 L 343.2 40.1 L 341.1 40.1 Z M 346.5 32.8 C 346.5 28.6 348.7 25.3 352.5 25.3 C 354.5 25.3 355.7 26.1 356.6 27.2 C 356.6 27.2 355.4 28.6 355.4 28.6 C 354.7 27.6 353.8 27.2 352.6 27.2 C 350.1 27.2 348.7 29.8 348.7 32.8 C 348.7 35.9 350.1 38.5 352.6 38.5 C 353.8 38.5 354.7 38.1 355.4 37.1 C 355.4 37.1 356.6 38.5 356.6 38.5 C 355.7 39.7 354.5 40.5 352.5 40.5 C 348.7 40.5 346.5 37.1 346.5 32.8 Z M 366.8 40.1 C 366.8 40.1 366.81 38.54 366.8 38.5 C 365.9 39.9 364.5 40.5 363 40.5 C 360.7 40.5 358.6 38.7 358.6 35.6 C 358.6 32.6 360.6 30.9 363 30.9 C 364.5 30.9 365.9 31.4 366.8 32.7 C 366.8 32.7 366.8 30.2 366.8 30.2 C 366.8 28.2 365.7 27.1 363.8 27.1 C 362.5 27.1 361.3 27.6 360.2 28.9 C 360.2 28.9 359.2 27.4 359.2 27.4 C 360.6 25.9 362.3 25.3 364.2 25.3 C 367 25.3 369 26.7 369 30 C 368.97 29.96 369 40.1 369 40.1 L 366.8 40.1 Z M 366.8 37.1 C 366.8 37.1 366.8 34.3 366.8 34.3 C 366.1 33.1 364.9 32.5 363.7 32.5 C 361.9 32.5 360.8 33.9 360.8 35.7 C 360.8 37.5 361.9 38.9 363.7 38.9 C 364.9 38.9 366.1 38.3 366.8 37.1 Z M 372.9 40.1 L 372.9 20.1 L 375 20.1 L 375 40.1 L 372.9 40.1 Z M 385.9 37.2 C 385.86 37.19 385.9 27.5 385.9 27.5 L 383.9 27.5 L 383.9 25.6 L 385.9 25.6 L 385.9 21.7 L 388 21.7 L 388 25.6 L 390.5 25.6 L 390.5 27.5 L 388 27.5 C 388 27.5 388.02 36.8 388 36.8 C 388 37.9 388.3 38.5 389.2 38.5 C 389.7 38.5 390.2 38.3 390.4 38 C 390.4 38 391.1 39.6 391.1 39.6 C 390.6 40.1 389.9 40.5 388.8 40.5 C 386.8 40.5 385.9 39.4 385.9 37.2 Z M 400.8 40.1 C 400.8 40.1 400.76 38.54 400.8 38.5 C 399.8 39.9 398.4 40.5 397 40.5 C 394.6 40.5 392.6 38.7 392.6 35.6 C 392.6 32.6 394.6 30.9 397 30.9 C 398.4 30.9 399.9 31.4 400.8 32.7 C 400.8 32.7 400.8 30.2 400.8 30.2 C 400.8 28.2 399.7 27.1 397.8 27.1 C 396.4 27.1 395.3 27.6 394.2 28.9 C 394.2 28.9 393.2 27.4 393.2 27.4 C 394.6 25.9 396.3 25.3 398.1 25.3 C 401 25.3 402.9 26.7 402.9 30 C 402.92 29.96 402.9 40.1 402.9 40.1 L 400.8 40.1 Z M 400.8 37.1 C 400.8 37.1 400.8 34.3 400.8 34.3 C 400.1 33.1 398.9 32.5 397.6 32.5 C 395.8 32.5 394.8 33.9 394.8 35.7 C 394.8 37.5 395.8 38.9 397.6 38.9 C 398.9 38.9 400.1 38.3 400.8 37.1 Z M 415 40.1 L 411 33.6 L 409 36.2 L 409 40.1 L 406.9 40.1 L 406.9 20.1 L 409 20.1 L 409 33.5 L 415 25.6 L 417.6 25.6 L 412.5 32.1 L 417.6 40.1 L 415 40.1 Z M 419.2 32.8 C 419.2 28.6 421.4 25.3 425 25.3 C 428.8 25.3 430.8 28.7 430.8 32.9 C 430.76 32.9 430.8 33.6 430.8 33.6 C 430.8 33.6 421.37 33.56 421.4 33.6 C 421.5 36.5 423 38.7 425.5 38.7 C 426.8 38.7 428.1 38 429 36.9 C 429 36.9 430.1 38.2 430.1 38.2 C 429 39.6 427.3 40.5 425.4 40.5 C 421.5 40.5 419.2 37.3 419.2 32.8 Z M 425 27.1 C 422.5 27.1 421.4 29.8 421.4 32 C 421.4 32 428.6 32 428.6 32 C 428.6 29.8 427.6 27.1 425 27.1 Z M 439.6 32.8 C 439.6 28.8 441.7 25.3 445.5 25.3 C 449.4 25.3 451.4 28.8 451.4 32.8 C 451.4 36.9 449.4 40.5 445.5 40.5 C 441.7 40.5 439.6 36.9 439.6 32.8 Z M 449.2 32.8 C 449.2 29.9 448.1 27.2 445.5 27.2 C 443 27.2 441.9 29.9 441.9 32.8 C 441.9 35.8 443 38.5 445.5 38.5 C 448.1 38.5 449.2 35.8 449.2 32.8 Z M 455.2 40.1 L 455.2 27.5 L 453.3 27.5 L 453.3 25.6 L 455.2 25.6 C 455.2 25.6 455.18 23.84 455.2 23.8 C 455.2 21.3 456.6 19.8 458.8 19.8 C 459.8 19.8 460.7 20.1 461.4 20.8 C 461.4 20.8 460.6 22.3 460.6 22.3 C 460.2 21.9 459.7 21.6 459.1 21.6 C 457.9 21.6 457.3 22.4 457.3 23.8 C 457.34 23.84 457.3 25.6 457.3 25.6 L 459.8 25.6 L 459.8 27.5 L 457.3 27.5 L 457.3 40.1 L 455.2 40.1 Z M 469.2 37.2 C 469.16 37.19 469.2 27.5 469.2 27.5 L 467.2 27.5 L 467.2 25.6 L 469.2 25.6 L 469.2 21.7 L 471.3 21.7 L 471.3 25.6 L 473.8 25.6 L 473.8 27.5 L 471.3 27.5 C 471.3 27.5 471.32 36.8 471.3 36.8 C 471.3 37.9 471.7 38.5 472.5 38.5 C 473 38.5 473.5 38.3 473.8 38 C 473.8 38 474.4 39.6 474.4 39.6 C 473.9 40.1 473.2 40.5 472.1 40.5 C 470.1 40.5 469.2 39.4 469.2 37.2 Z M 484.5 40.1 C 484.5 40.1 484.49 29.75 484.5 29.8 C 484.5 27.8 483.6 27.2 482.2 27.2 C 480.7 27.2 479.4 28.3 478.8 29.5 C 478.76 29.48 478.8 40.1 478.8 40.1 L 476.6 40.1 L 476.6 20.1 L 478.8 20.1 C 478.8 20.1 478.76 27.68 478.8 27.7 C 479.6 26.4 481.3 25.3 483 25.3 C 485.5 25.3 486.6 26.5 486.6 29.1 C 486.62 29.12 486.6 40.1 486.6 40.1 L 484.5 40.1 Z M 489.9 32.8 C 489.9 28.6 492.1 25.3 495.7 25.3 C 499.6 25.3 501.5 28.7 501.5 32.9 C 501.47 32.9 501.5 33.6 501.5 33.6 C 501.5 33.6 492.08 33.56 492.1 33.6 C 492.2 36.5 493.7 38.7 496.3 38.7 C 497.5 38.7 498.8 38 499.7 36.9 C 499.7 36.9 500.8 38.2 500.8 38.2 C 499.7 39.6 498 40.5 496.1 40.5 C 492.2 40.5 489.9 37.3 489.9 32.8 Z M 495.7 27.1 C 493.2 27.1 492.1 29.8 492.1 32 C 492.1 32 499.3 32 499.3 32 C 499.3 29.8 498.4 27.1 495.7 27.1 Z M 511.6 40.1 L 511.6 27.5 L 509.7 27.5 L 509.7 25.6 L 511.6 25.6 C 511.6 25.6 511.58 23.84 511.6 23.8 C 511.6 21.3 513 19.8 515.2 19.8 C 516.2 19.8 517.1 20.1 517.8 20.8 C 517.8 20.8 517 22.3 517 22.3 C 516.6 21.9 516.1 21.6 515.5 21.6 C 514.3 21.6 513.7 22.4 513.7 23.8 C 513.74 23.84 513.7 25.6 513.7 25.6 L 516.2 25.6 L 516.2 27.5 L 513.7 27.5 L 513.7 40.1 L 511.6 40.1 Z M 526.5 40.1 C 526.5 40.1 526.52 38.09 526.5 38.1 C 525.7 39.4 524.1 40.5 522.3 40.5 C 519.9 40.5 518.7 39.2 518.7 36.6 C 518.69 36.59 518.7 25.6 518.7 25.6 L 520.8 25.6 C 520.8 25.6 520.82 35.96 520.8 36 C 520.8 37.9 521.7 38.5 523.1 38.5 C 524.6 38.5 525.9 37.5 526.5 36.3 C 526.52 36.29 526.5 25.6 526.5 25.6 L 528.7 25.6 L 528.7 40.1 L 526.5 40.1 Z M 533.1 37.2 C 533.06 37.19 533.1 27.5 533.1 27.5 L 531.1 27.5 L 531.1 25.6 L 533.1 25.6 L 533.1 21.7 L 535.2 21.7 L 535.2 25.6 L 537.7 25.6 L 537.7 27.5 L 535.2 27.5 C 535.2 27.5 535.22 36.8 535.2 36.8 C 535.2 37.9 535.6 38.5 536.4 38.5 C 536.9 38.5 537.4 38.3 537.7 38 C 537.7 38 538.3 39.6 538.3 39.6 C 537.8 40.1 537.1 40.5 536 40.5 C 534 40.5 533.1 39.4 533.1 37.2 Z M 548.4 40.1 C 548.4 40.1 548.36 38.09 548.4 38.1 C 547.5 39.4 546 40.5 544.2 40.5 C 541.7 40.5 540.5 39.2 540.5 36.6 C 540.53 36.59 540.5 25.6 540.5 25.6 L 542.7 25.6 C 542.7 25.6 542.66 35.96 542.7 36 C 542.7 37.9 543.6 38.5 545 38.5 C 546.4 38.5 547.7 37.5 548.4 36.3 C 548.36 36.29 548.4 25.6 548.4 25.6 L 550.5 25.6 L 550.5 40.1 L 548.4 40.1 Z M 554.5 40.1 L 554.5 25.6 L 556.6 25.6 C 556.6 25.6 556.61 27.92 556.6 27.9 C 557.5 26.4 559 25.3 560.7 25.3 C 560.7 25.3 560.7 27.5 560.7 27.5 C 560.5 27.5 560.2 27.4 560 27.4 C 558.7 27.4 557.2 28.6 556.6 29.8 C 556.61 29.81 556.6 40.1 556.6 40.1 L 554.5 40.1 Z M 562.5 32.8 C 562.5 28.6 564.7 25.3 568.4 25.3 C 572.2 25.3 574.1 28.7 574.1 32.9 C 574.1 32.9 574.1 33.6 574.1 33.6 C 574.1 33.6 564.71 33.56 564.7 33.6 C 564.8 36.5 566.3 38.7 568.9 38.7 C 570.1 38.7 571.4 38 572.3 36.9 C 572.3 36.9 573.5 38.2 573.5 38.2 C 572.3 39.6 570.7 40.5 568.7 40.5 C 564.8 40.5 562.5 37.3 562.5 32.8 Z M 568.3 27.1 C 565.8 27.1 564.8 29.8 564.7 32 C 564.7 32 572 32 572 32 C 571.9 29.8 571 27.1 568.3 27.1 Z " stroke="none" fill="#d3d2d2"/>  </g></svg>