<?xml version="1.0" standalone="no"?><!DOCTYPE svg PUBLIC "-//W3C//DTD SVG 1.1//EN" "http://www.w3.org/Graphics/SVG/1.1/DTD/svg11.dtd"><svg xmlns="http://www.w3.org/2000/svg" version="1.1" width="510px" height="85.6px" viewBox="0 0 510 85.6">  <desc>Fried Chicken</desc>  <defs/>  <g id="Polygon134784">    <path d="M 3.1 47.4 L 3.1 7.4 L 20.6 7.4 L 20.6 14 L 10.7 14 L 10.7 23.7 L 20.2 23.7 L 20.2 30.4 L 10.7 30.4 L 10.7 47.4 L 3.1 47.4 Z M 25.3 47.4 L 25.3 18.4 L 32.1 18.4 C 32.1 18.4 32.1 22.44 32.1 22.4 C 33.2 19.8 36.1 17.7 38.6 17.7 C 38.6 17.7 38.6 24.4 38.6 24.4 C 38.2 24.2 37.7 24.2 37.3 24.2 C 35.3 24.2 33.2 25.8 32.1 27.9 C 32.1 27.9 32.1 47.4 32.1 47.4 L 25.3 47.4 Z M 41.3 10.9 C 41.3 8.6 43.3 6.8 45.5 6.8 C 47.8 6.8 49.6 8.6 49.6 10.9 C 49.6 13.2 47.8 15 45.5 15 C 43.3 15 41.3 13.2 41.3 10.9 Z M 42.1 47.4 L 42.1 18.4 L 48.9 18.4 L 48.9 47.4 L 42.1 47.4 Z M 53.2 32.9 C 53.2 24.5 56.8 17.7 64.1 17.7 C 71.4 17.7 74.5 24.2 74.5 32.8 C 74.46 32.76 74.5 35.1 74.5 35.1 C 74.5 35.1 59.76 35.1 59.8 35.1 C 59.8 39.4 61.6 42.6 65.5 42.6 C 67.1 42.6 68.9 41.5 70.3 39.7 C 70.3 39.7 73.6 43.5 73.6 43.5 C 71.3 46.4 68 48.1 64.7 48.1 C 57.2 48.1 53.2 41.8 53.2 32.9 Z M 63.9 23.2 C 60.6 23.2 59.8 27.3 59.8 30.4 C 59.8 30.4 67.9 30.4 67.9 30.4 C 67.9 27.1 67.2 23.2 63.9 23.2 Z M 91.7 47.4 C 91.7 47.4 91.68 43.8 91.7 43.8 C 90.4 46.7 88.1 48.1 86 48.1 C 80.3 48.1 77.5 42.2 77.5 32.9 C 77.5 23.8 80.3 17.7 86 17.7 C 88.1 17.7 90.5 19 91.7 22 C 91.68 22.02 91.7 7.4 91.7 7.4 L 98.5 7.4 L 98.5 47.4 L 91.7 47.4 Z M 91.7 38.6 C 91.7 38.6 91.7 27.2 91.7 27.2 C 91.1 25.3 89.7 23.7 88.3 23.7 C 85.3 23.7 84.4 27.8 84.4 32.9 C 84.4 38 85.3 42.1 88.3 42.1 C 89.7 42.1 91.1 40.6 91.7 38.6 Z M 112.9 27.4 C 112.9 15.5 116.6 6.7 125.4 6.7 C 131.9 6.7 134.2 11.9 135.4 16.1 C 135.4 16.1 129.4 18.4 129.4 18.4 C 128.6 15.3 127.6 13.4 125.4 13.4 C 121.8 13.4 120.6 19.3 120.6 27.4 C 120.6 35.6 121.8 41.4 125.4 41.4 C 127.9 41.4 128.9 38.9 129.5 35.6 C 129.5 35.6 135.5 37.8 135.5 37.8 C 134.4 42.4 132.1 48.1 125.4 48.1 C 116.6 48.1 112.9 39.3 112.9 27.4 Z M 152.4 47.4 C 152.4 47.4 152.4 26.64 152.4 26.6 C 152.4 24.7 151.7 23.7 150.2 23.7 C 148.4 23.7 146.9 25.6 146.3 27.5 C 146.28 27.48 146.3 47.4 146.3 47.4 L 139.5 47.4 L 139.5 7.4 L 146.3 7.4 C 146.3 7.4 146.28 22.2 146.3 22.2 C 147.4 19.9 150.4 17.7 153.1 17.7 C 157.4 17.7 159.2 20.1 159.2 24.2 C 159.24 24.24 159.2 47.4 159.2 47.4 L 152.4 47.4 Z M 163.9 10.9 C 163.9 8.6 165.8 6.8 168.1 6.8 C 170.3 6.8 172.2 8.6 172.2 10.9 C 172.2 13.2 170.3 15 168.1 15 C 165.8 15 163.9 13.2 163.9 10.9 Z M 164.7 47.4 L 164.7 18.4 L 171.5 18.4 L 171.5 47.4 L 164.7 47.4 Z M 175.8 32.9 C 175.8 24.1 179.9 17.7 186.8 17.7 C 190.1 17.7 192.5 18.9 193.9 20.3 C 193.9 20.3 191.7 25.6 191.7 25.6 C 190.5 24.3 189.4 23.7 188 23.7 C 184.5 23.7 182.8 27.8 182.8 32.9 C 182.8 37.9 184.5 42.1 188 42.1 C 189.4 42.1 190.5 41.5 191.7 40.3 C 191.7 40.3 193.9 45.5 193.9 45.5 C 192.5 47 190.1 48.1 186.8 48.1 C 179.9 48.1 175.8 41.7 175.8 32.9 Z M 211.3 47.4 L 207 35.8 L 204.4 40.6 L 204.4 47.4 L 197.6 47.4 L 197.6 7.4 L 204.4 7.4 L 204.4 31.8 L 211 18.4 L 218.4 18.4 L 211.5 31.3 L 218.7 47.4 L 211.3 47.4 Z M 220 32.9 C 220 24.5 223.6 17.7 230.8 17.7 C 238.1 17.7 241.2 24.2 241.2 32.8 C 241.2 32.76 241.2 35.1 241.2 35.1 C 241.2 35.1 226.5 35.1 226.5 35.1 C 226.6 39.4 228.4 42.6 232.2 42.6 C 233.8 42.6 235.7 41.5 237 39.7 C 237 39.7 240.3 43.5 240.3 43.5 C 238 46.4 234.8 48.1 231.5 48.1 C 223.9 48.1 220 41.8 220 32.9 Z M 230.6 23.2 C 227.3 23.2 226.5 27.3 226.5 30.4 C 226.5 30.4 234.7 30.4 234.7 30.4 C 234.7 27.1 233.9 23.2 230.6 23.2 Z M 258.2 47.4 C 258.2 47.4 258.24 26.76 258.2 26.8 C 258.2 24.7 257.5 23.7 256 23.7 C 254.3 23.7 252.8 25.6 252.1 27.5 C 252.12 27.48 252.1 47.4 252.1 47.4 L 245.3 47.4 L 245.3 18.4 L 252.1 18.4 C 252.1 18.4 252.12 22.2 252.1 22.2 C 253.3 19.9 256.3 17.7 258.9 17.7 C 263.3 17.7 265.1 20.3 265.1 24.3 C 265.08 24.3 265.1 47.4 265.1 47.4 L 258.2 47.4 Z " stroke="none" fill="#b13d24"/>  </g></svg>