<?xml version="1.0" standalone="no"?><!DOCTYPE svg PUBLIC "-//W3C//DTD SVG 1.1//EN" "http://www.w3.org/Graphics/SVG/1.1/DTD/svg11.dtd"><svg xmlns="http://www.w3.org/2000/svg" version="1.1" width="658px" height="197.6px" viewBox="0 0 658 197.6">  <desc>Finely Chopped Foam Netting and Mop Bits in Talcum Paste With Spicy Sanitary Pad Pur e</desc>  <defs/>  <g id="Polygon125091">    <path d="M 21.8 159.4 L 18.5 133.6 L 15.2 159.4 L 7.5 159.4 L 0.7 119.4 L 8.3 119.4 L 11.7 146.2 L 15.5 119.4 L 21.5 119.4 L 25.3 146.2 L 28.6 119.4 L 36.3 119.4 L 29.5 159.4 L 21.8 159.4 Z M 38.3 122.9 C 38.3 120.6 40.3 118.8 42.5 118.8 C 44.8 118.8 46.6 120.6 46.6 122.9 C 46.6 125.2 44.8 127 42.5 127 C 40.3 127 38.3 125.2 38.3 122.9 Z M 39.1 159.4 L 39.1 130.4 L 45.9 130.4 L 45.9 159.4 L 39.1 159.4 Z M 51.7 152.7 C 51.66 152.74 51.7 136.3 51.7 136.3 L 49 136.3 L 49 130.4 L 51.7 130.4 L 51.7 122.5 L 58.4 122.5 L 58.4 130.4 L 62.1 130.4 L 62.1 136.3 L 58.4 136.3 C 58.4 136.3 58.44 151.42 58.4 151.4 C 58.4 153.2 58.9 154.1 60.1 154.1 C 60.7 154.1 61.3 153.8 61.7 153.3 C 61.7 153.3 63.1 158.6 63.1 158.6 C 62 159.5 60.4 160.1 58.3 160.1 C 53.6 160.1 51.7 157.7 51.7 152.7 Z M 78.5 159.4 C 78.5 159.4 78.54 138.64 78.5 138.6 C 78.5 136.7 77.8 135.7 76.3 135.7 C 74.6 135.7 73.1 137.6 72.4 139.5 C 72.42 139.48 72.4 159.4 72.4 159.4 L 65.6 159.4 L 65.6 119.4 L 72.4 119.4 C 72.4 119.4 72.42 134.2 72.4 134.2 C 73.6 131.9 76.6 129.7 79.2 129.7 C 83.6 129.7 85.4 132.1 85.4 136.2 C 85.38 136.24 85.4 159.4 85.4 159.4 L 78.5 159.4 Z M 97.4 156.2 C 97.4 156.2 100.7 150.2 100.7 150.2 C 102.3 152.3 104.9 153.4 107.2 153.4 C 109.6 153.4 111.2 151.6 111.2 149 C 111.2 141.9 98.5 141.9 98.5 129.9 C 98.5 123.9 102.6 118.7 109.7 118.7 C 113 118.7 116.2 119.9 118.4 122 C 118.4 122 115.4 127.8 115.4 127.8 C 113.9 126.2 112 125.4 109.9 125.4 C 107.8 125.4 106.2 127.1 106.2 129.5 C 106.2 135.7 118.9 136.5 118.9 148.5 C 118.9 155.3 114.5 160.1 107.7 160.1 C 103.3 160.1 100 158.7 97.4 156.2 Z M 129.4 155.8 C 129.36 155.8 129.4 170.4 129.4 170.4 L 122.6 170.4 L 122.6 130.4 L 129.4 130.4 C 129.4 130.4 129.36 134.02 129.4 134 C 130.6 131.1 133 129.7 135 129.7 C 140.7 129.7 143.6 135.6 143.6 144.9 C 143.6 154 140.7 160.1 135 160.1 C 133 160.1 130.6 158.8 129.4 155.8 Z M 136.6 144.9 C 136.6 139.8 135.8 135.7 132.8 135.7 C 131.3 135.7 130 137.1 129.4 139.1 C 129.4 139.1 129.4 150.6 129.4 150.6 C 130 152.6 131.3 154.1 132.8 154.1 C 135.8 154.1 136.6 150 136.6 144.9 Z M 146.6 122.9 C 146.6 120.6 148.5 118.8 150.7 118.8 C 153 118.8 154.9 120.6 154.9 122.9 C 154.9 125.2 153 127 150.7 127 C 148.5 127 146.6 125.2 146.6 122.9 Z M 147.4 159.4 L 147.4 130.4 L 154.1 130.4 L 154.1 159.4 L 147.4 159.4 Z M 157.9 144.9 C 157.9 136.1 161.9 129.7 168.9 129.7 C 172.1 129.7 174.5 130.9 175.9 132.3 C 175.9 132.3 173.8 137.6 173.8 137.6 C 172.6 136.3 171.5 135.7 170.1 135.7 C 166.6 135.7 164.8 139.8 164.8 144.9 C 164.8 149.9 166.6 154.1 170.1 154.1 C 171.5 154.1 172.6 153.5 173.8 152.3 C 173.8 152.3 175.9 157.5 175.9 157.5 C 174.5 159 172.1 160.1 168.9 160.1 C 161.9 160.1 157.9 153.7 157.9 144.9 Z M 179.6 164.9 C 180.1 165 180.7 165.2 181 165.2 C 182.3 165.2 183 164.6 183.4 163.1 C 183.42 163.12 184.3 160.1 184.3 160.1 L 176.4 130.4 L 183.6 130.4 L 187.7 150.8 L 191.9 130.4 L 199 130.4 C 199 130.4 189.9 164.5 189.9 164.5 C 188.5 169.8 186.1 171.2 181.9 171.2 C 181 171.2 179.3 171 178.7 170.7 C 178.7 170.7 179.6 164.9 179.6 164.9 Z M 208.4 156.2 C 208.4 156.2 211.7 150.2 211.7 150.2 C 213.3 152.3 215.9 153.4 218.2 153.4 C 220.6 153.4 222.2 151.6 222.2 149 C 222.2 141.9 209.5 141.9 209.5 129.9 C 209.5 123.9 213.6 118.7 220.7 118.7 C 224 118.7 227.2 119.9 229.4 122 C 229.4 122 226.4 127.8 226.4 127.8 C 224.9 126.2 223 125.4 220.9 125.4 C 218.8 125.4 217.2 127.1 217.2 129.5 C 217.2 135.7 229.9 136.5 229.9 148.5 C 229.9 155.3 225.5 160.1 218.7 160.1 C 214.3 160.1 211 158.7 208.4 156.2 Z M 246.2 159.4 C 246.2 159.4 246.18 156.64 246.2 156.6 C 244.9 158.9 242.2 160.1 240.1 160.1 C 235.6 160.1 232.3 156.4 232.3 150.5 C 232.3 144.6 235.6 141 240.1 141 C 242.2 141 245 142.1 246.2 144.3 C 246.2 144.3 246.2 140.7 246.2 140.7 C 246.2 137.4 244.9 135.5 241.8 135.5 C 239.9 135.5 237.8 136.4 235.9 138.3 C 235.9 138.3 233.4 133.5 233.4 133.5 C 236 130.7 240.2 129.7 243.2 129.7 C 249.1 129.7 253 132.7 253 139.2 C 252.96 139.18 253 159.4 253 159.4 L 246.2 159.4 Z M 246.2 152.6 C 246.2 152.6 246.2 148.7 246.2 148.7 C 245.5 146.9 244 145.7 242.5 145.7 C 240.2 145.7 239 147.8 239 150.6 C 239 153.3 240.2 155.6 242.5 155.6 C 244 155.6 245.5 154.4 246.2 152.6 Z M 270.8 159.4 C 270.8 159.4 270.78 138.76 270.8 138.8 C 270.8 136.7 270.1 135.7 268.6 135.7 C 266.8 135.7 265.3 137.6 264.7 139.5 C 264.66 139.48 264.7 159.4 264.7 159.4 L 257.9 159.4 L 257.9 130.4 L 264.7 130.4 C 264.7 130.4 264.66 134.2 264.7 134.2 C 265.8 131.9 268.8 129.7 271.4 129.7 C 275.8 129.7 277.6 132.3 277.6 136.3 C 277.62 136.3 277.6 159.4 277.6 159.4 L 270.8 159.4 Z M 281.7 122.9 C 281.7 120.6 283.6 118.8 285.8 118.8 C 288.1 118.8 290 120.6 290 122.9 C 290 125.2 288.1 127 285.8 127 C 283.6 127 281.7 125.2 281.7 122.9 Z M 282.5 159.4 L 282.5 130.4 L 289.3 130.4 L 289.3 159.4 L 282.5 159.4 Z M 295 152.7 C 295.02 152.74 295 136.3 295 136.3 L 292.3 136.3 L 292.3 130.4 L 295 130.4 L 295 122.5 L 301.8 122.5 L 301.8 130.4 L 305.5 130.4 L 305.5 136.3 L 301.8 136.3 C 301.8 136.3 301.8 151.42 301.8 151.4 C 301.8 153.2 302.2 154.1 303.4 154.1 C 304.1 154.1 304.7 153.8 305 153.3 C 305 153.3 306.4 158.6 306.4 158.6 C 305.4 159.5 303.8 160.1 301.7 160.1 C 296.9 160.1 295 157.7 295 152.7 Z M 321.6 159.4 C 321.6 159.4 321.59 156.64 321.6 156.6 C 320.3 158.9 317.6 160.1 315.5 160.1 C 311 160.1 307.7 156.4 307.7 150.5 C 307.7 144.6 311 141 315.5 141 C 317.6 141 320.4 142.1 321.6 144.3 C 321.6 144.3 321.6 140.7 321.6 140.7 C 321.6 137.4 320.3 135.5 317.2 135.5 C 315.3 135.5 313.3 136.4 311.3 138.3 C 311.3 138.3 308.8 133.5 308.8 133.5 C 311.5 130.7 315.6 129.7 318.6 129.7 C 324.5 129.7 328.4 132.7 328.4 139.2 C 328.37 139.18 328.4 159.4 328.4 159.4 L 321.6 159.4 Z M 321.6 152.6 C 321.6 152.6 321.6 148.7 321.6 148.7 C 320.9 146.9 319.4 145.7 317.9 145.7 C 315.6 145.7 314.5 147.8 314.5 150.6 C 314.5 153.3 315.6 155.6 317.9 155.6 C 319.4 155.6 320.9 154.4 321.6 152.6 Z M 333.3 159.4 L 333.3 130.4 L 340.1 130.4 C 340.1 130.4 340.07 134.44 340.1 134.4 C 341.2 131.8 344 129.7 346.6 129.7 C 346.6 129.7 346.6 136.4 346.6 136.4 C 346.1 136.2 345.7 136.2 345.2 136.2 C 343.3 136.2 341.2 137.8 340.1 139.9 C 340.07 139.9 340.1 159.4 340.1 159.4 L 333.3 159.4 Z M 350.1 164.9 C 350.5 165 351.1 165.2 351.5 165.2 C 352.7 165.2 353.5 164.6 353.9 163.1 C 353.87 163.12 354.7 160.1 354.7 160.1 L 346.9 130.4 L 354.1 130.4 L 358.1 150.8 L 362.3 130.4 L 369.5 130.4 C 369.5 130.4 360.35 164.5 360.4 164.5 C 358.9 169.8 356.6 171.2 352.4 171.2 C 351.4 171.2 349.8 171 349.1 170.7 C 349.1 170.7 350.1 164.9 350.1 164.9 Z M 381.2 159.4 L 381.2 119.4 C 381.2 119.4 392.03 119.38 392 119.4 C 399.8 119.4 403.3 125.3 403.3 132 C 403.3 138.8 399.8 144.7 392 144.7 C 392.03 144.7 388.8 144.7 388.8 144.7 L 388.8 159.4 L 381.2 159.4 Z M 395.6 132 C 395.6 128.4 394.1 126 391.3 126 C 391.25 126.04 388.8 126 388.8 126 L 388.8 138 C 388.8 138 391.25 138.04 391.3 138 C 394.1 138 395.6 135.6 395.6 132 Z M 418.4 159.4 C 418.4 159.4 418.43 156.64 418.4 156.6 C 417.2 158.9 414.5 160.1 412.4 160.1 C 407.8 160.1 404.5 156.4 404.5 150.5 C 404.5 144.6 407.8 141 412.4 141 C 414.5 141 417.2 142.1 418.4 144.3 C 418.4 144.3 418.4 140.7 418.4 140.7 C 418.4 137.4 417.1 135.5 414.1 135.5 C 412.1 135.5 410.1 136.4 408.2 138.3 C 408.2 138.3 405.7 133.5 405.7 133.5 C 408.3 130.7 412.4 129.7 415.4 129.7 C 421.4 129.7 425.2 132.7 425.2 139.2 C 425.21 139.18 425.2 159.4 425.2 159.4 L 418.4 159.4 Z M 418.4 152.6 C 418.4 152.6 418.4 148.7 418.4 148.7 C 417.7 146.9 416.3 145.7 414.8 145.7 C 412.4 145.7 411.3 147.8 411.3 150.6 C 411.3 153.3 412.4 155.6 414.8 155.6 C 416.3 155.6 417.7 154.4 418.4 152.6 Z M 443.2 159.4 C 443.2 159.4 443.21 155.8 443.2 155.8 C 442 158.7 439.6 160.1 437.6 160.1 C 431.9 160.1 429 154.2 429 144.9 C 429 135.8 431.9 129.7 437.6 129.7 C 439.6 129.7 442 131 443.2 134 C 443.21 134.02 443.2 119.4 443.2 119.4 L 450 119.4 L 450 159.4 L 443.2 159.4 Z M 443.2 150.6 C 443.2 150.6 443.2 139.2 443.2 139.2 C 442.6 137.3 441.2 135.7 439.8 135.7 C 436.8 135.7 436 139.8 436 144.9 C 436 150 436.8 154.1 439.8 154.1 C 441.2 154.1 442.6 152.6 443.2 150.6 Z M 464.5 159.4 L 464.5 119.4 C 464.5 119.4 475.25 119.38 475.3 119.4 C 483.1 119.4 486.5 125.3 486.5 132 C 486.5 138.8 483.1 144.7 475.3 144.7 C 475.25 144.7 472 144.7 472 144.7 L 472 159.4 L 464.5 159.4 Z M 478.9 132 C 478.9 128.4 477.3 126 474.5 126 C 474.47 126.04 472 126 472 126 L 472 138 C 472 138 474.47 138.04 474.5 138 C 477.3 138 478.9 135.6 478.9 132 Z M 502.9 159.4 C 502.9 159.4 502.85 155.74 502.9 155.7 C 501.7 158.1 498.9 160.1 496.1 160.1 C 491.7 160.1 490 157.7 490 153.6 C 489.95 153.58 490 130.4 490 130.4 L 496.7 130.4 C 496.7 130.4 496.73 151.18 496.7 151.2 C 496.7 153.2 497.5 154.1 499 154.1 C 500.7 154.1 502.2 152.3 502.9 150.5 C 502.85 150.46 502.9 130.4 502.9 130.4 L 509.7 130.4 L 509.7 159.4 L 502.9 159.4 Z M 514.6 159.4 L 514.6 130.4 L 521.3 130.4 C 521.3 130.4 521.33 134.44 521.3 134.4 C 522.5 131.8 525.3 129.7 527.8 129.7 C 527.8 129.7 527.8 136.4 527.8 136.4 C 527.4 136.2 526.9 136.2 526.5 136.2 C 524.5 136.2 522.5 137.8 521.3 139.9 C 521.33 139.9 521.3 159.4 521.3 159.4 L 514.6 159.4 Z M 542.2 126 L 537.8 126 L 542.6 117.4 L 548.5 117.4 L 542.2 126 Z M 529.6 144.9 C 529.6 136.5 533.2 129.7 540.5 129.7 C 547.8 129.7 550.9 136.2 550.9 144.8 C 550.85 144.76 550.9 147.1 550.9 147.1 C 550.9 147.1 536.15 147.1 536.2 147.1 C 536.2 151.4 538 154.6 541.9 154.6 C 543.5 154.6 545.3 153.5 546.7 151.7 C 546.7 151.7 550 155.5 550 155.5 C 547.7 158.4 544.4 160.1 541.1 160.1 C 533.6 160.1 529.6 153.8 529.6 144.9 Z M 540.3 135.2 C 537 135.2 536.2 139.3 536.2 142.4 C 536.2 142.4 544.3 142.4 544.3 142.4 C 544.3 139.1 543.6 135.2 540.3 135.2 Z M 553.3 144.9 C 553.3 136.5 556.9 129.7 564.1 129.7 C 571.4 129.7 574.5 136.2 574.5 144.8 C 574.49 144.76 574.5 147.1 574.5 147.1 C 574.5 147.1 559.79 147.1 559.8 147.1 C 559.9 151.4 561.7 154.6 565.5 154.6 C 567.1 154.6 569 153.5 570.3 151.7 C 570.3 151.7 573.6 155.5 573.6 155.5 C 571.3 158.4 568.1 160.1 564.8 160.1 C 557.2 160.1 553.3 153.8 553.3 144.9 Z M 563.9 135.2 C 560.6 135.2 559.8 139.3 559.8 142.4 C 559.8 142.4 568 142.4 568 142.4 C 568 139.1 567.2 135.2 563.9 135.2 Z " stroke="none" fill="#e9e8e8"/>  </g>  <g id="Polygon125090">    <path d="M 15.4 103.4 C 15.4 103.4 15.36 100.64 15.4 100.6 C 14.1 102.9 11.4 104.1 9.3 104.1 C 4.7 104.1 1.4 100.4 1.4 94.5 C 1.4 88.6 4.7 85 9.3 85 C 11.4 85 14.2 86.1 15.4 88.3 C 15.4 88.3 15.4 84.7 15.4 84.7 C 15.4 81.4 14 79.5 11 79.5 C 9.1 79.5 7 80.4 5.1 82.3 C 5.1 82.3 2.6 77.5 2.6 77.5 C 5.2 74.7 9.4 73.7 12.4 73.7 C 18.3 73.7 22.1 76.7 22.1 83.2 C 22.14 83.18 22.1 103.4 22.1 103.4 L 15.4 103.4 Z M 15.4 96.6 C 15.4 96.6 15.4 92.7 15.4 92.7 C 14.6 90.9 13.2 89.7 11.7 89.7 C 9.4 89.7 8.2 91.8 8.2 94.6 C 8.2 97.3 9.4 99.6 11.7 99.6 C 13.2 99.6 14.6 98.4 15.4 96.6 Z M 40.6 103.4 C 40.6 103.4 40.56 82.76 40.6 82.8 C 40.6 80.7 39.8 79.7 38.3 79.7 C 36.6 79.7 35.1 81.6 34.4 83.5 C 34.44 83.48 34.4 103.4 34.4 103.4 L 27.7 103.4 L 27.7 74.4 L 34.4 74.4 C 34.4 74.4 34.44 78.2 34.4 78.2 C 35.6 75.9 38.6 73.7 41.2 73.7 C 45.6 73.7 47.4 76.3 47.4 80.3 C 47.4 80.3 47.4 103.4 47.4 103.4 L 40.6 103.4 Z M 65.9 103.4 C 65.9 103.4 65.94 99.8 65.9 99.8 C 64.7 102.7 62.3 104.1 60.3 104.1 C 54.6 104.1 51.7 98.2 51.7 88.9 C 51.7 79.8 54.6 73.7 60.3 73.7 C 62.3 73.7 64.7 75 65.9 78 C 65.94 78.02 65.9 63.4 65.9 63.4 L 72.7 63.4 L 72.7 103.4 L 65.9 103.4 Z M 65.9 94.6 C 65.9 94.6 65.9 83.2 65.9 83.2 C 65.3 81.3 64 79.7 62.5 79.7 C 59.5 79.7 58.7 83.8 58.7 88.9 C 58.7 94 59.5 98.1 62.5 98.1 C 64 98.1 65.3 96.6 65.9 94.6 Z M 111.7 103.4 L 111.7 79.8 L 105 103.4 L 102.5 103.4 L 95.9 79.8 L 95.9 103.4 L 88.4 103.4 L 88.4 63.4 L 98 63.4 L 103.7 83.8 L 109.7 63.4 L 119.1 63.4 L 119.1 103.4 L 111.7 103.4 Z M 123.8 88.9 C 123.8 80.8 127.1 73.7 134.7 73.7 C 142.3 73.7 145.6 80.8 145.6 88.9 C 145.6 96.9 142.3 104.1 134.7 104.1 C 127.1 104.1 123.8 96.9 123.8 88.9 Z M 138.6 88.9 C 138.6 84 137.8 79.7 134.7 79.7 C 131.7 79.7 130.9 84 130.9 88.9 C 130.9 93.9 131.7 98.1 134.7 98.1 C 137.8 98.1 138.6 93.9 138.6 88.9 Z M 156.8 99.8 C 156.78 99.8 156.8 114.4 156.8 114.4 L 150 114.4 L 150 74.4 L 156.8 74.4 C 156.8 74.4 156.78 78.02 156.8 78 C 158 75.1 160.4 73.7 162.4 73.7 C 168.1 73.7 171 79.6 171 88.9 C 171 98 168.1 104.1 162.4 104.1 C 160.4 104.1 158 102.8 156.8 99.8 Z M 164 88.9 C 164 83.8 163.2 79.7 160.2 79.7 C 158.8 79.7 157.4 81.1 156.8 83.1 C 156.8 83.1 156.8 94.6 156.8 94.6 C 157.4 96.6 158.8 98.1 160.2 98.1 C 163.2 98.1 164 94 164 88.9 Z M 185.5 103.4 L 185.5 63.4 C 185.5 63.4 197.58 63.38 197.6 63.4 C 204.2 63.4 207.2 68.1 207.2 73.6 C 207.2 78.6 204.8 81.7 201.3 82.8 C 205.1 83.4 207.7 87.7 207.7 92.6 C 207.7 98.7 204.9 103.4 198 103.4 C 198 103.4 185.5 103.4 185.5 103.4 Z M 199.4 74.9 C 199.4 72 198.4 70 195.6 70 C 195.6 70.04 193.1 70 193.1 70 L 193.1 79.7 C 193.1 79.7 195.6 79.7 195.6 79.7 C 198.4 79.7 199.4 77.8 199.4 74.9 Z M 200 91.5 C 200 88.6 198.7 86.4 195.8 86.4 C 195.84 86.36 193.1 86.4 193.1 86.4 L 193.1 96.7 C 193.1 96.7 195.84 96.74 195.8 96.7 C 198.7 96.7 200 94.9 200 91.5 Z M 211.5 66.9 C 211.5 64.6 213.4 62.8 215.6 62.8 C 217.9 62.8 219.8 64.6 219.8 66.9 C 219.8 69.2 217.9 71 215.6 71 C 213.4 71 211.5 69.2 211.5 66.9 Z M 212.3 103.4 L 212.3 74.4 L 219.1 74.4 L 219.1 103.4 L 212.3 103.4 Z M 225.4 96.7 C 225.42 96.74 225.4 80.3 225.4 80.3 L 222.7 80.3 L 222.7 74.4 L 225.4 74.4 L 225.4 66.5 L 232.2 66.5 L 232.2 74.4 L 235.9 74.4 L 235.9 80.3 L 232.2 80.3 C 232.2 80.3 232.2 95.42 232.2 95.4 C 232.2 97.2 232.6 98.1 233.8 98.1 C 234.5 98.1 235.1 97.8 235.4 97.3 C 235.4 97.3 236.8 102.6 236.8 102.6 C 235.8 103.5 234.2 104.1 232.1 104.1 C 227.3 104.1 225.4 101.7 225.4 96.7 Z M 238 100.3 C 238 100.3 240.8 95.7 240.8 95.7 C 242.3 97.4 244.5 98.8 246.8 98.8 C 248.9 98.8 250.4 97.6 250.4 95.7 C 250.4 90.9 239 92 239 81.9 C 239 77.5 242.3 73.7 248.2 73.7 C 251.5 73.7 254.6 75 256.7 77.1 C 256.7 77.1 254 81.7 254 81.7 C 252.8 80.3 250.7 79 248.4 79 C 246.5 79 245.3 80.2 245.3 81.7 C 245.3 86.1 256.9 85.3 256.9 95.5 C 256.9 100.6 252.9 104.1 247.4 104.1 C 243.1 104.1 239.9 102.6 238 100.3 Z M 269.8 66.9 C 269.8 64.6 271.7 62.8 273.9 62.8 C 276.2 62.8 278 64.6 278 66.9 C 278 69.2 276.2 71 273.9 71 C 271.7 71 269.8 69.2 269.8 66.9 Z M 270.5 103.4 L 270.5 74.4 L 277.3 74.4 L 277.3 103.4 L 270.5 103.4 Z M 295.7 103.4 C 295.7 103.4 295.67 82.76 295.7 82.8 C 295.7 80.7 295 79.7 293.5 79.7 C 291.7 79.7 290.2 81.6 289.6 83.5 C 289.55 83.48 289.6 103.4 289.6 103.4 L 282.8 103.4 L 282.8 74.4 L 289.6 74.4 C 289.6 74.4 289.55 78.2 289.6 78.2 C 290.7 75.9 293.7 73.7 296.3 73.7 C 300.7 73.7 302.5 76.3 302.5 80.3 C 302.51 80.3 302.5 103.4 302.5 103.4 L 295.7 103.4 Z M 322.1 103.4 L 322.1 70 L 316.1 70 L 316.1 63.4 L 335.8 63.4 L 335.8 70 L 329.7 70 L 329.7 103.4 L 322.1 103.4 Z M 349.4 103.4 C 349.4 103.4 349.43 100.64 349.4 100.6 C 348.2 102.9 345.5 104.1 343.4 104.1 C 338.8 104.1 335.5 100.4 335.5 94.5 C 335.5 88.6 338.8 85 343.4 85 C 345.5 85 348.2 86.1 349.4 88.3 C 349.4 88.3 349.4 84.7 349.4 84.7 C 349.4 81.4 348.1 79.5 345.1 79.5 C 343.1 79.5 341.1 80.4 339.2 82.3 C 339.2 82.3 336.7 77.5 336.7 77.5 C 339.3 74.7 343.4 73.7 346.4 73.7 C 352.4 73.7 356.2 76.7 356.2 83.2 C 356.22 83.18 356.2 103.4 356.2 103.4 L 349.4 103.4 Z M 349.4 96.6 C 349.4 96.6 349.4 92.7 349.4 92.7 C 348.7 90.9 347.3 89.7 345.8 89.7 C 343.4 89.7 342.3 91.8 342.3 94.6 C 342.3 97.3 343.4 99.6 345.8 99.6 C 347.3 99.6 348.7 98.4 349.4 96.6 Z M 361.7 103.4 L 361.7 63.4 L 368.5 63.4 L 368.5 103.4 L 361.7 103.4 Z M 372.8 88.9 C 372.8 80.1 376.9 73.7 383.9 73.7 C 387.1 73.7 389.5 74.9 390.9 76.3 C 390.9 76.3 388.7 81.6 388.7 81.6 C 387.5 80.3 386.5 79.7 385.1 79.7 C 381.5 79.7 379.8 83.8 379.8 88.9 C 379.8 93.9 381.5 98.1 385.1 98.1 C 386.5 98.1 387.5 97.5 388.7 96.3 C 388.7 96.3 390.9 101.5 390.9 101.5 C 389.5 103 387.1 104.1 383.9 104.1 C 376.9 104.1 372.8 97.7 372.8 88.9 Z M 407.5 103.4 C 407.5 103.4 407.51 99.74 407.5 99.7 C 406.4 102.1 403.6 104.1 400.7 104.1 C 396.4 104.1 394.6 101.7 394.6 97.6 C 394.61 97.58 394.6 74.4 394.6 74.4 L 401.4 74.4 C 401.4 74.4 401.39 95.18 401.4 95.2 C 401.4 97.2 402.1 98.1 403.6 98.1 C 405.4 98.1 406.9 96.3 407.5 94.5 C 407.51 94.46 407.5 74.4 407.5 74.4 L 414.4 74.4 L 414.4 103.4 L 407.5 103.4 Z M 445.7 103.4 C 445.7 103.4 445.67 82.76 445.7 82.8 C 445.7 80.6 444.9 79.7 443.5 79.7 C 441.6 79.7 440.2 81.7 439.6 83.5 C 439.55 83.48 439.6 103.4 439.6 103.4 L 432.7 103.4 C 432.7 103.4 432.71 82.76 432.7 82.8 C 432.7 80.8 432.1 79.7 430.5 79.7 C 428.7 79.7 427.2 81.7 426.6 83.5 C 426.59 83.48 426.6 103.4 426.6 103.4 L 419.8 103.4 L 419.8 74.4 L 426.6 74.4 C 426.6 74.4 426.59 78.2 426.6 78.2 C 427.6 76 430.6 73.7 433.4 73.7 C 436.4 73.7 438.8 75.2 439.3 78.5 C 440.4 76.1 443.5 73.7 446.3 73.7 C 449.9 73.7 452.5 75.6 452.5 80.3 C 452.45 80.3 452.5 103.4 452.5 103.4 L 445.7 103.4 Z M 468.1 103.4 L 468.1 63.4 C 468.1 63.4 478.91 63.38 478.9 63.4 C 486.7 63.4 490.2 69.3 490.2 76 C 490.2 82.8 486.7 88.7 478.9 88.7 C 478.91 88.7 475.7 88.7 475.7 88.7 L 475.7 103.4 L 468.1 103.4 Z M 482.5 76 C 482.5 72.4 481 70 478.1 70 C 478.13 70.04 475.7 70 475.7 70 L 475.7 82 C 475.7 82 478.13 82.04 478.1 82 C 481 82 482.5 79.6 482.5 76 Z M 505.9 103.4 C 505.9 103.4 505.91 100.64 505.9 100.6 C 504.7 102.9 502 104.1 499.9 104.1 C 495.3 104.1 492 100.4 492 94.5 C 492 88.6 495.3 85 499.9 85 C 502 85 504.7 86.1 505.9 88.3 C 505.9 88.3 505.9 84.7 505.9 84.7 C 505.9 81.4 504.6 79.5 501.5 79.5 C 499.6 79.5 497.6 80.4 495.7 82.3 C 495.7 82.3 493.1 77.5 493.1 77.5 C 495.8 74.7 499.9 73.7 502.9 73.7 C 508.9 73.7 512.7 76.7 512.7 83.2 C 512.69 83.18 512.7 103.4 512.7 103.4 L 505.9 103.4 Z M 505.9 96.6 C 505.9 96.6 505.9 92.7 505.9 92.7 C 505.2 90.9 503.8 89.7 502.3 89.7 C 499.9 89.7 498.8 91.8 498.8 94.6 C 498.8 97.3 499.9 99.6 502.3 99.6 C 503.8 99.6 505.2 98.4 505.9 96.6 Z M 516.2 100.3 C 516.2 100.3 519 95.7 519 95.7 C 520.6 97.4 522.7 98.8 525 98.8 C 527.2 98.8 528.7 97.6 528.7 95.7 C 528.7 90.9 517.2 92 517.2 81.9 C 517.2 77.5 520.5 73.7 526.4 73.7 C 529.7 73.7 532.8 75 535 77.1 C 535 77.1 532.2 81.7 532.2 81.7 C 531.1 80.3 529 79 526.6 79 C 524.8 79 523.5 80.2 523.5 81.7 C 523.5 86.1 535.1 85.3 535.1 95.5 C 535.1 100.6 531.1 104.1 525.6 104.1 C 521.3 104.1 518.1 102.6 516.2 100.3 Z M 539.9 96.7 C 539.87 96.74 539.9 80.3 539.9 80.3 L 537.2 80.3 L 537.2 74.4 L 539.9 74.4 L 539.9 66.5 L 546.7 66.5 L 546.7 74.4 L 550.3 74.4 L 550.3 80.3 L 546.7 80.3 C 546.7 80.3 546.65 95.42 546.7 95.4 C 546.7 97.2 547.1 98.1 548.3 98.1 C 548.9 98.1 549.5 97.8 549.9 97.3 C 549.9 97.3 551.3 102.6 551.3 102.6 C 550.3 103.5 548.6 104.1 546.5 104.1 C 541.8 104.1 539.9 101.7 539.9 96.7 Z M 553.3 88.9 C 553.3 80.5 556.9 73.7 564.2 73.7 C 571.5 73.7 574.6 80.2 574.6 88.8 C 574.55 88.76 574.6 91.1 574.6 91.1 C 574.6 91.1 559.85 91.1 559.9 91.1 C 559.9 95.4 561.7 98.6 565.6 98.6 C 567.2 98.6 569 97.5 570.4 95.7 C 570.4 95.7 573.7 99.5 573.7 99.5 C 571.4 102.4 568.1 104.1 564.8 104.1 C 557.3 104.1 553.3 97.8 553.3 88.9 Z M 564 79.2 C 560.7 79.2 559.9 83.3 559.9 86.4 C 559.9 86.4 568 86.4 568 86.4 C 568 83.1 567.3 79.2 564 79.2 Z " stroke="none" fill="#e9e8e8"/>  </g>  <g id="Polygon125089">    <path d="M 3.1 47.4 L 3.1 7.4 L 20.6 7.4 L 20.6 14 L 10.7 14 L 10.7 23.7 L 20.2 23.7 L 20.2 30.4 L 10.7 30.4 L 10.7 47.4 L 3.1 47.4 Z M 24.5 10.9 C 24.5 8.6 26.5 6.8 28.7 6.8 C 31 6.8 32.8 8.6 32.8 10.9 C 32.8 13.2 31 15 28.7 15 C 26.5 15 24.5 13.2 24.5 10.9 Z M 25.3 47.4 L 25.3 18.4 L 32.1 18.4 L 32.1 47.4 L 25.3 47.4 Z M 50.5 47.4 C 50.5 47.4 50.46 26.76 50.5 26.8 C 50.5 24.7 49.7 23.7 48.2 23.7 C 46.5 23.7 45 25.6 44.3 27.5 C 44.34 27.48 44.3 47.4 44.3 47.4 L 37.6 47.4 L 37.6 18.4 L 44.3 18.4 C 44.3 18.4 44.34 22.2 44.3 22.2 C 45.5 19.9 48.5 17.7 51.1 17.7 C 55.5 17.7 57.3 20.3 57.3 24.3 C 57.3 24.3 57.3 47.4 57.3 47.4 L 50.5 47.4 Z M 61.6 32.9 C 61.6 24.5 65.2 17.7 72.5 17.7 C 79.8 17.7 82.9 24.2 82.9 32.8 C 82.86 32.76 82.9 35.1 82.9 35.1 C 82.9 35.1 68.16 35.1 68.2 35.1 C 68.2 39.4 70 42.6 73.9 42.6 C 75.5 42.6 77.3 41.5 78.7 39.7 C 78.7 39.7 82 43.5 82 43.5 C 79.7 46.4 76.4 48.1 73.1 48.1 C 65.6 48.1 61.6 41.8 61.6 32.9 Z M 72.3 23.2 C 69 23.2 68.2 27.3 68.2 30.4 C 68.2 30.4 76.3 30.4 76.3 30.4 C 76.3 27.1 75.6 23.2 72.3 23.2 Z M 87 47.4 L 87 7.4 L 93.8 7.4 L 93.8 47.4 L 87 47.4 Z M 99.8 52.9 C 100.3 53 100.9 53.2 101.2 53.2 C 102.5 53.2 103.2 52.6 103.6 51.1 C 103.62 51.12 104.5 48.1 104.5 48.1 L 96.6 18.4 L 103.8 18.4 L 107.9 38.8 L 112.1 18.4 L 119.2 18.4 C 119.2 18.4 110.1 52.5 110.1 52.5 C 108.7 57.8 106.3 59.2 102.1 59.2 C 101.2 59.2 99.5 59 98.9 58.7 C 98.9 58.7 99.8 52.9 99.8 52.9 Z M 130.9 27.4 C 130.9 15.5 134.7 6.7 143.5 6.7 C 149.9 6.7 152.2 11.9 153.5 16.1 C 153.5 16.1 147.5 18.4 147.5 18.4 C 146.6 15.3 145.7 13.4 143.5 13.4 C 139.9 13.4 138.7 19.3 138.7 27.4 C 138.7 35.6 139.9 41.4 143.5 41.4 C 145.9 41.4 147 38.9 147.5 35.6 C 147.5 35.6 153.6 37.8 153.6 37.8 C 152.5 42.4 150.1 48.1 143.5 48.1 C 134.7 48.1 130.9 39.3 130.9 27.4 Z M 170.5 47.4 C 170.5 47.4 170.46 26.64 170.5 26.6 C 170.5 24.7 169.7 23.7 168.2 23.7 C 166.5 23.7 165 25.6 164.3 27.5 C 164.34 27.48 164.3 47.4 164.3 47.4 L 157.6 47.4 L 157.6 7.4 L 164.3 7.4 C 164.3 7.4 164.34 22.2 164.3 22.2 C 165.5 19.9 168.5 17.7 171.1 17.7 C 175.5 17.7 177.3 20.1 177.3 24.2 C 177.3 24.24 177.3 47.4 177.3 47.4 L 170.5 47.4 Z M 181.6 32.9 C 181.6 24.8 184.9 17.7 192.5 17.7 C 200.1 17.7 203.4 24.8 203.4 32.9 C 203.4 40.9 200.1 48.1 192.5 48.1 C 184.9 48.1 181.6 40.9 181.6 32.9 Z M 196.4 32.9 C 196.4 28 195.5 23.7 192.5 23.7 C 189.5 23.7 188.6 28 188.6 32.9 C 188.6 37.9 189.5 42.1 192.5 42.1 C 195.5 42.1 196.4 37.9 196.4 32.9 Z M 214.6 43.8 C 214.56 43.8 214.6 58.4 214.6 58.4 L 207.8 58.4 L 207.8 18.4 L 214.6 18.4 C 214.6 18.4 214.56 22.02 214.6 22 C 215.8 19.1 218.2 17.7 220.2 17.7 C 225.9 17.7 228.8 23.6 228.8 32.9 C 228.8 42 225.9 48.1 220.2 48.1 C 218.2 48.1 215.8 46.8 214.6 43.8 Z M 221.8 32.9 C 221.8 27.8 221 23.7 218 23.7 C 216.5 23.7 215.2 25.1 214.6 27.1 C 214.6 27.1 214.6 38.6 214.6 38.6 C 215.2 40.6 216.5 42.1 218 42.1 C 221 42.1 221.8 38 221.8 32.9 Z M 239.9 43.8 C 239.94 43.8 239.9 58.4 239.9 58.4 L 233.2 58.4 L 233.2 18.4 L 239.9 18.4 C 239.9 18.4 239.94 22.02 239.9 22 C 241.2 19.1 243.5 17.7 245.6 17.7 C 251.3 17.7 254.2 23.6 254.2 32.9 C 254.2 42 251.3 48.1 245.6 48.1 C 243.5 48.1 241.1 46.8 239.9 43.8 Z M 247.2 32.9 C 247.2 27.8 246.4 23.7 243.4 23.7 C 241.9 23.7 240.5 25.1 239.9 27.1 C 239.9 27.1 239.9 38.6 239.9 38.6 C 240.5 40.6 241.9 42.1 243.4 42.1 C 246.4 42.1 247.2 38 247.2 32.9 Z M 257.4 32.9 C 257.4 24.5 261 17.7 268.3 17.7 C 275.6 17.7 278.6 24.2 278.6 32.8 C 278.63 32.76 278.6 35.1 278.6 35.1 C 278.6 35.1 263.93 35.1 263.9 35.1 C 264 39.4 265.8 42.6 269.6 42.6 C 271.3 42.6 273.1 41.5 274.4 39.7 C 274.4 39.7 277.7 43.5 277.7 43.5 C 275.5 46.4 272.2 48.1 268.9 48.1 C 261.4 48.1 257.4 41.8 257.4 32.9 Z M 268.1 23.2 C 264.8 23.2 263.9 27.3 263.9 30.4 C 263.9 30.4 272.1 30.4 272.1 30.4 C 272.1 27.1 271.4 23.2 268.1 23.2 Z M 295.9 47.4 C 295.9 47.4 295.85 43.8 295.9 43.8 C 294.6 46.7 292.3 48.1 290.2 48.1 C 284.5 48.1 281.6 42.2 281.6 32.9 C 281.6 23.8 284.5 17.7 290.2 17.7 C 292.3 17.7 294.7 19 295.9 22 C 295.85 22.02 295.9 7.4 295.9 7.4 L 302.6 7.4 L 302.6 47.4 L 295.9 47.4 Z M 295.9 38.6 C 295.9 38.6 295.9 27.2 295.9 27.2 C 295.3 25.3 293.9 23.7 292.4 23.7 C 289.4 23.7 288.6 27.8 288.6 32.9 C 288.6 38 289.4 42.1 292.4 42.1 C 293.9 42.1 295.3 40.6 295.9 38.6 Z M 318.3 47.4 L 318.3 7.4 L 335.8 7.4 L 335.8 14 L 325.9 14 L 325.9 23.7 L 335.4 23.7 L 335.4 30.4 L 325.9 30.4 L 325.9 47.4 L 318.3 47.4 Z M 339.4 32.9 C 339.4 24.8 342.7 17.7 350.2 17.7 C 357.8 17.7 361.1 24.8 361.1 32.9 C 361.1 40.9 357.8 48.1 350.2 48.1 C 342.7 48.1 339.4 40.9 339.4 32.9 Z M 354.1 32.9 C 354.1 28 353.3 23.7 350.2 23.7 C 347.2 23.7 346.4 28 346.4 32.9 C 346.4 37.9 347.2 42.1 350.2 42.1 C 353.3 42.1 354.1 37.9 354.1 32.9 Z M 378.1 47.4 C 378.1 47.4 378.11 44.64 378.1 44.6 C 376.9 46.9 374.2 48.1 372.1 48.1 C 367.5 48.1 364.2 44.4 364.2 38.5 C 364.2 32.6 367.5 29 372.1 29 C 374.2 29 376.9 30.1 378.1 32.3 C 378.1 32.3 378.1 28.7 378.1 28.7 C 378.1 25.4 376.8 23.5 373.7 23.5 C 371.8 23.5 369.8 24.4 367.9 26.3 C 367.9 26.3 365.3 21.5 365.3 21.5 C 368 18.7 372.1 17.7 375.1 17.7 C 381.1 17.7 384.9 20.7 384.9 27.2 C 384.89 27.18 384.9 47.4 384.9 47.4 L 378.1 47.4 Z M 378.1 40.6 C 378.1 40.6 378.1 36.7 378.1 36.7 C 377.4 34.9 376 33.7 374.5 33.7 C 372.1 33.7 371 35.8 371 38.6 C 371 41.3 372.1 43.6 374.5 43.6 C 376 43.6 377.4 42.4 378.1 40.6 Z M 416.3 47.4 C 416.3 47.4 416.27 26.76 416.3 26.8 C 416.3 24.6 415.5 23.7 414.1 23.7 C 412.2 23.7 410.8 25.7 410.2 27.5 C 410.15 27.48 410.2 47.4 410.2 47.4 L 403.3 47.4 C 403.3 47.4 403.31 26.76 403.3 26.8 C 403.3 24.8 402.7 23.7 401.1 23.7 C 399.3 23.7 397.8 25.7 397.2 27.5 C 397.19 27.48 397.2 47.4 397.2 47.4 L 390.4 47.4 L 390.4 18.4 L 397.2 18.4 C 397.2 18.4 397.19 22.2 397.2 22.2 C 398.2 20 401.2 17.7 404 17.7 C 407 17.7 409.4 19.2 409.9 22.5 C 411 20.1 414.1 17.7 416.9 17.7 C 420.5 17.7 423.1 19.6 423.1 24.3 C 423.05 24.3 423.1 47.4 423.1 47.4 L 416.3 47.4 Z M 454.4 47.4 L 446.3 26.2 L 446.3 47.4 L 438.7 47.4 L 438.7 7.4 L 446.3 7.4 L 454 27.8 L 454 7.4 L 461.5 7.4 L 461.5 47.4 L 454.4 47.4 Z M 466.3 32.9 C 466.3 24.5 469.9 17.7 477.1 17.7 C 484.4 17.7 487.5 24.2 487.5 32.8 C 487.49 32.76 487.5 35.1 487.5 35.1 C 487.5 35.1 472.79 35.1 472.8 35.1 C 472.9 39.4 474.7 42.6 478.5 42.6 C 480.1 42.6 482 41.5 483.3 39.7 C 483.3 39.7 486.6 43.5 486.6 43.5 C 484.3 46.4 481.1 48.1 477.8 48.1 C 470.2 48.1 466.3 41.8 466.3 32.9 Z M 476.9 23.2 C 473.6 23.2 472.8 27.3 472.8 30.4 C 472.8 30.4 481 30.4 481 30.4 C 481 27.1 480.2 23.2 476.9 23.2 Z M 492.5 40.7 C 492.53 40.74 492.5 24.3 492.5 24.3 L 489.8 24.3 L 489.8 18.4 L 492.5 18.4 L 492.5 10.5 L 499.3 10.5 L 499.3 18.4 L 503 18.4 L 503 24.3 L 499.3 24.3 C 499.3 24.3 499.31 39.42 499.3 39.4 C 499.3 41.2 499.7 42.1 500.9 42.1 C 501.6 42.1 502.2 41.8 502.5 41.3 C 502.5 41.3 503.9 46.6 503.9 46.6 C 502.9 47.5 501.3 48.1 499.2 48.1 C 494.4 48.1 492.5 45.7 492.5 40.7 Z M 508 40.7 C 508.01 40.74 508 24.3 508 24.3 L 505.3 24.3 L 505.3 18.4 L 508 18.4 L 508 10.5 L 514.8 10.5 L 514.8 18.4 L 518.4 18.4 L 518.4 24.3 L 514.8 24.3 C 514.8 24.3 514.79 39.42 514.8 39.4 C 514.8 41.2 515.2 42.1 516.4 42.1 C 517.1 42.1 517.7 41.8 518 41.3 C 518 41.3 519.4 46.6 519.4 46.6 C 518.4 47.5 516.8 48.1 514.7 48.1 C 509.9 48.1 508 45.7 508 40.7 Z M 521.8 10.9 C 521.8 8.6 523.7 6.8 525.9 6.8 C 528.2 6.8 530.1 8.6 530.1 10.9 C 530.1 13.2 528.2 15 525.9 15 C 523.7 15 521.8 13.2 521.8 10.9 Z M 522.6 47.4 L 522.6 18.4 L 529.4 18.4 L 529.4 47.4 L 522.6 47.4 Z M 547.7 47.4 C 547.7 47.4 547.73 26.76 547.7 26.8 C 547.7 24.7 547 23.7 545.5 23.7 C 543.8 23.7 542.3 25.6 541.6 27.5 C 541.61 27.48 541.6 47.4 541.6 47.4 L 534.8 47.4 L 534.8 18.4 L 541.6 18.4 C 541.6 18.4 541.61 22.2 541.6 22.2 C 542.7 19.9 545.7 17.7 548.4 17.7 C 552.8 17.7 554.6 20.3 554.6 24.3 C 554.57 24.3 554.6 47.4 554.6 47.4 L 547.7 47.4 Z M 560 56 C 560 56 562.2 50.5 562.2 50.5 C 563.9 52.2 566 53.3 568.2 53.3 C 571.1 53.3 573.1 51.4 573.1 46.9 C 573.1 46.9 573.1 42.7 573.1 42.7 C 571.8 45.7 569.5 47.2 567.5 47.2 C 561.8 47.2 558.9 41.8 558.9 32.5 C 558.9 23.3 561.8 17.7 567.5 17.7 C 569.5 17.7 571.9 19 573.1 22 C 573.11 22.02 573.1 18.4 573.1 18.4 L 579.9 18.4 C 579.9 18.4 579.89 46.44 579.9 46.4 C 579.9 56.4 574.5 59.2 568.9 59.2 C 565.3 59.2 562.4 58.3 560 56 Z M 573.1 37.7 C 573.1 37.7 573.1 27.2 573.1 27.2 C 572.5 25.3 571.1 23.7 569.7 23.7 C 566.7 23.7 565.8 27.4 565.8 32.5 C 565.8 37.6 566.7 41.2 569.7 41.2 C 571.1 41.2 572.5 39.6 573.1 37.7 Z " stroke="none" fill="#e9e8e8"/>  </g></svg>