<?xml version="1.0" standalone="no"?><!DOCTYPE svg PUBLIC "-//W3C//DTD SVG 1.1//EN" "http://www.w3.org/Graphics/SVG/1.1/DTD/svg11.dtd"><svg xmlns="http://www.w3.org/2000/svg" version="1.1" width="191px" height="44.3px" viewBox="0 0 191 44.3">  <desc>2 5 hours</desc>  <defs/>  <g id="Polygon160531">    <path d="M 40.8 14.3 L 40.8 19.5 L 38.3 19.5 L 38.3 14.3 L 33.8 14.3 L 33.8 12 L 38.3 12 L 38.3 7 L 40.8 7 L 40.8 12 L 45.4 12 L 45.4 14.3 L 40.8 14.3 Z M 33.8 23.3 L 33.8 21.1 L 45.4 21.1 L 45.4 23.3 L 33.8 23.3 Z M 48.8 23.7 C 48.8 23.7 48.81 20.46 48.8 20.5 C 56.1 13.3 57.7 11.8 57.7 9.5 C 57.7 7.9 56.5 7 55 7 C 53.2 7 51.8 7.8 50.7 9.2 C 50.7 9.2 48.3 6.7 48.3 6.7 C 49.9 4.5 52.3 3.4 55 3.4 C 58.9 3.4 61.7 5.7 61.7 9.4 C 61.7 12.5 59.7 15.1 54.7 20.2 C 54.75 20.16 61.8 20.2 61.8 20.2 L 61.8 23.7 L 48.8 23.7 Z M 64.6 21.7 C 64.6 20.5 65.6 19.4 66.9 19.4 C 68.2 19.4 69.2 20.5 69.2 21.7 C 69.2 23 68.2 24 66.9 24 C 65.6 24 64.6 23 64.6 21.7 Z M 71.8 20.9 C 71.8 20.9 74.2 18.3 74.2 18.3 C 75.3 19.7 76.7 20.5 78.4 20.5 C 80.3 20.5 81.4 19 81.4 17.3 C 81.4 15.4 80.4 14.2 78.6 14.2 C 77.2 14.2 76.2 14.7 75.3 15.8 C 75.3 15.84 72.4 15.1 72.4 15.1 L 72.4 3.7 L 84.4 3.7 L 84.4 7.2 L 76.4 7.2 C 76.4 7.2 76.41 12.36 76.4 12.4 C 77.2 11.4 78.5 10.7 80.1 10.7 C 83.1 10.7 85.5 13.1 85.5 17.2 C 85.5 21.2 82.8 24.1 78.5 24.1 C 75.4 24.1 73.3 22.9 71.8 20.9 Z M 102.6 23.7 C 102.6 23.7 102.57 14.1 102.6 14.1 C 102.6 12.6 101.8 12 100.6 12 C 99.5 12 98.5 13 98 13.8 C 98.04 13.83 98 23.7 98 23.7 L 94.4 23.7 L 94.4 3.7 L 98 3.7 C 98 3.7 98.04 11.1 98 11.1 C 98.8 10 100.4 8.8 102.3 8.8 C 105 8.8 106.2 10.3 106.2 12.7 C 106.17 12.75 106.2 23.7 106.2 23.7 L 102.6 23.7 Z M 108.7 16.4 C 108.7 12.4 110.9 8.8 115.2 8.8 C 119.5 8.8 121.8 12.4 121.8 16.4 C 121.8 20.5 119.5 24.1 115.2 24.1 C 110.9 24.1 108.7 20.5 108.7 16.4 Z M 118 16.4 C 118 14.1 117.2 12 115.2 12 C 113.3 12 112.4 14.1 112.4 16.4 C 112.4 18.8 113.3 20.9 115.2 20.9 C 117.2 20.9 118 18.8 118 16.4 Z M 132.4 23.7 C 132.4 23.7 132.39 21.87 132.4 21.9 C 131.6 23 130 24.1 128.1 24.1 C 125.5 24.1 124.3 22.6 124.3 20.2 C 124.26 20.16 124.3 9.2 124.3 9.2 L 127.9 9.2 C 127.9 9.2 127.86 18.78 127.9 18.8 C 127.9 20.3 128.6 20.9 129.8 20.9 C 130.9 20.9 131.9 20 132.4 19.1 C 132.39 19.11 132.4 9.2 132.4 9.2 L 136 9.2 L 136 23.7 L 132.4 23.7 Z M 139.2 23.7 L 139.2 9.2 L 142.8 9.2 C 142.8 9.2 142.83 11.19 142.8 11.2 C 143.6 9.9 145.2 8.8 146.8 8.8 C 146.8 8.8 146.8 12.4 146.8 12.4 C 146.5 12.3 146.2 12.3 145.9 12.3 C 144.8 12.3 143.4 13 142.8 14 C 142.83 14.04 142.8 23.7 142.8 23.7 L 139.2 23.7 Z M 147.7 22 C 147.7 22 149.2 19.5 149.2 19.5 C 150.1 20.4 151.8 21.2 153.2 21.2 C 154.6 21.2 155.4 20.6 155.4 19.7 C 155.4 17.3 148.2 18.6 148.2 13.2 C 148.2 10.9 150.1 8.8 153.5 8.8 C 155.5 8.8 157.3 9.6 158.5 10.7 C 158.5 10.7 157.1 13.1 157.1 13.1 C 156.4 12.3 155 11.6 153.5 11.6 C 152.4 11.6 151.6 12.2 151.6 13 C 151.6 15.2 158.8 14.1 158.8 19.6 C 158.8 22.2 156.7 24.1 153.3 24.1 C 151 24.1 148.9 23.3 147.7 22 Z " stroke="none" fill="#d3d2d2"/>  </g></svg>