<?xml version="1.0" standalone="no"?><!DOCTYPE svg PUBLIC "-//W3C//DTD SVG 1.1//EN" "http://www.w3.org/Graphics/SVG/1.1/DTD/svg11.dtd"><svg xmlns="http://www.w3.org/2000/svg" version="1.1" width="841px" height="256.1px" viewBox="0 0 841 256.1">  <desc>Flavoured Slime and Toasted Dish Sponge with Putty Chunk and Hot Glue Spread</desc>  <defs/>  <g id="Polygon120612">    <path d="M 251 192.9 L 251 172.1 L 241.8 172.1 L 241.8 192.9 L 232.7 192.9 L 232.7 144.9 L 241.8 144.9 L 241.8 164.2 L 251 164.2 L 251 144.9 L 260.1 144.9 L 260.1 192.9 L 251 192.9 Z M 265.7 175.5 C 265.7 165.8 269.7 157.2 278.8 157.2 C 287.9 157.2 291.9 165.8 291.9 175.5 C 291.9 185.1 287.9 193.7 278.8 193.7 C 269.7 193.7 265.7 185.1 265.7 175.5 Z M 283.5 175.5 C 283.5 169.6 282.4 164.4 278.8 164.4 C 275.2 164.4 274.2 169.6 274.2 175.5 C 274.2 181.4 275.2 186.5 278.8 186.5 C 282.4 186.5 283.5 181.4 283.5 175.5 Z M 298.2 184.9 C 298.21 184.89 298.2 165.2 298.2 165.2 L 295 165.2 L 295 158.1 L 298.2 158.1 L 298.2 148.6 L 306.4 148.6 L 306.4 158.1 L 310.7 158.1 L 310.7 165.2 L 306.4 165.2 C 306.4 165.2 306.35 183.3 306.4 183.3 C 306.4 185.5 306.9 186.5 308.3 186.5 C 309.1 186.5 309.8 186.2 310.2 185.6 C 310.2 185.6 311.9 191.9 311.9 191.9 C 310.7 193 308.7 193.7 306.2 193.7 C 300.5 193.7 298.2 190.9 298.2 184.9 Z M 326.4 168.9 C 326.4 154.1 331 144.1 341.4 144.1 C 348.1 144.1 351.9 149.2 353.4 155.4 C 353.4 155.4 346.2 158 346.2 158 C 345.4 154.7 344.2 152.1 341.4 152.1 C 337.8 152.1 335.7 157.4 335.7 168.9 C 335.7 180.4 337.8 185.7 341.4 185.7 C 343.4 185.7 344.8 184.9 345.7 183.5 C 345.73 183.52 345.7 174.8 345.7 174.8 L 340.3 174.8 L 340.3 166.8 L 353.7 166.8 C 353.7 166.8 353.73 187.41 353.7 187.4 C 350.6 191.4 346.8 193.7 341.4 193.7 C 331 193.7 326.4 183.6 326.4 168.9 Z M 360.1 192.9 L 360.1 144.9 L 368.2 144.9 L 368.2 192.9 L 360.1 192.9 Z M 390.2 192.9 C 390.2 192.9 390.23 188.49 390.2 188.5 C 388.9 191.3 385.5 193.7 382.1 193.7 C 376.8 193.7 374.7 190.9 374.7 185.9 C 374.75 185.9 374.7 158.1 374.7 158.1 L 382.9 158.1 C 382.9 158.1 382.88 183.02 382.9 183 C 382.9 185.4 383.7 186.5 385.5 186.5 C 387.6 186.5 389.4 184.4 390.2 182.2 C 390.23 182.15 390.2 158.1 390.2 158.1 L 398.4 158.1 L 398.4 192.9 L 390.2 192.9 Z M 403.6 175.5 C 403.6 165.4 407.9 157.2 416.7 157.2 C 425.4 157.2 429.1 165.1 429.1 175.3 C 429.11 175.31 429.1 178.1 429.1 178.1 C 429.1 178.1 411.47 178.12 411.5 178.1 C 411.5 183.2 413.7 187.1 418.3 187.1 C 420.3 187.1 422.5 185.8 424.1 183.7 C 424.1 183.7 428 188.2 428 188.2 C 425.3 191.7 421.4 193.7 417.4 193.7 C 408.4 193.7 403.6 186.1 403.6 175.5 Z M 416.4 163.9 C 412.5 163.9 411.5 168.8 411.5 172.4 C 411.5 172.4 421.3 172.4 421.3 172.4 C 421.3 168.5 420.4 163.9 416.4 163.9 Z M 443.4 189 C 443.4 189 447.3 181.9 447.3 181.9 C 449.3 184.4 452.4 185.7 455.2 185.7 C 458.1 185.7 460 183.5 460 180.4 C 460 171.9 444.7 171.9 444.7 157.5 C 444.7 150.3 449.6 144.1 458.1 144.1 C 462.2 144.1 465.9 145.4 468.6 148 C 468.6 148 465 154.9 465 154.9 C 463.2 153 460.9 152.1 458.4 152.1 C 455.8 152.1 453.9 154.1 453.9 157 C 453.9 164.4 469.2 165.4 469.2 179.8 C 469.2 187.9 464 193.7 455.7 193.7 C 450.5 193.7 446.5 192.1 443.4 189 Z M 482.5 188.6 C 482.46 188.56 482.5 206.1 482.5 206.1 L 474.3 206.1 L 474.3 158.1 L 482.5 158.1 C 482.5 158.1 482.46 162.42 482.5 162.4 C 484 159 486.8 157.2 489.2 157.2 C 496.1 157.2 499.5 164.3 499.5 175.5 C 499.5 186.4 496.1 193.7 489.2 193.7 C 486.8 193.7 483.9 192.2 482.5 188.6 Z M 491.2 175.5 C 491.2 169.3 490.2 164.4 486.6 164.4 C 484.8 164.4 483.2 166.2 482.5 168.5 C 482.5 168.5 482.5 182.4 482.5 182.4 C 483.2 184.7 484.8 186.5 486.6 186.5 C 490.2 186.5 491.2 181.6 491.2 175.5 Z M 504.8 192.9 L 504.8 158.1 L 512.9 158.1 C 512.9 158.1 512.91 162.93 512.9 162.9 C 514.3 159.8 517.7 157.2 520.7 157.2 C 520.7 157.2 520.7 165.2 520.7 165.2 C 520.2 165.1 519.6 165 519.1 165 C 516.7 165 514.3 167 512.9 169.5 C 512.91 169.48 512.9 192.9 512.9 192.9 L 504.8 192.9 Z M 523.6 175.5 C 523.6 165.4 527.9 157.2 536.6 157.2 C 545.4 157.2 549.1 165.1 549.1 175.3 C 549.06 175.31 549.1 178.1 549.1 178.1 C 549.1 178.1 531.42 178.12 531.4 178.1 C 531.5 183.2 533.7 187.1 538.3 187.1 C 540.2 187.1 542.4 185.8 544 183.7 C 544 183.7 548 188.2 548 188.2 C 545.2 191.7 541.4 193.7 537.4 193.7 C 528.3 193.7 523.6 186.1 523.6 175.5 Z M 536.4 163.9 C 532.4 163.9 531.4 168.8 531.4 172.4 C 531.4 172.4 541.2 172.4 541.2 172.4 C 541.2 168.5 540.3 163.9 536.4 163.9 Z M 569.1 192.9 C 569.1 192.9 569.15 189.57 569.1 189.6 C 567.6 192.3 564.4 193.7 561.9 193.7 C 556.4 193.7 552.4 189.3 552.4 182.2 C 552.4 175.1 556.4 170.8 561.9 170.8 C 564.4 170.8 567.7 172.1 569.1 174.7 C 569.1 174.7 569.1 170.5 569.1 170.5 C 569.1 166.5 567.6 164.2 563.9 164.2 C 561.6 164.2 559.1 165.2 556.8 167.6 C 556.8 167.6 553.8 161.8 553.8 161.8 C 557 158.5 561.9 157.2 565.5 157.2 C 572.7 157.2 577.3 160.8 577.3 168.6 C 577.28 168.62 577.3 192.9 577.3 192.9 L 569.1 192.9 Z M 569.1 184.7 C 569.1 184.7 569.1 180 569.1 180 C 568.3 177.8 566.6 176.4 564.8 176.4 C 561.9 176.4 560.6 179 560.6 182.3 C 560.6 185.6 561.9 188.3 564.8 188.3 C 566.6 188.3 568.3 186.9 569.1 184.7 Z M 599.6 192.9 C 599.6 192.9 599.6 188.56 599.6 188.6 C 598.1 192 595.3 193.7 592.8 193.7 C 586 193.7 582.5 186.7 582.5 175.5 C 582.5 164.6 586 157.2 592.8 157.2 C 595.3 157.2 598.2 158.8 599.6 162.4 C 599.6 162.42 599.6 144.9 599.6 144.9 L 607.7 144.9 L 607.7 192.9 L 599.6 192.9 Z M 599.6 182.4 C 599.6 182.4 599.6 168.6 599.6 168.6 C 598.9 166.3 597.2 164.4 595.5 164.4 C 591.9 164.4 590.9 169.3 590.9 175.5 C 590.9 181.6 591.9 186.5 595.5 186.5 C 597.2 186.5 598.9 184.7 599.6 182.4 Z " stroke="none" fill="#e9e8e8"/>  </g>  <g id="Polygon120611">    <path d="M 70.5 121 C 70.5 121 74.5 113.9 74.5 113.9 C 76.4 116.4 79.5 117.7 82.3 117.7 C 85.2 117.7 87.1 115.5 87.1 112.4 C 87.1 103.9 71.9 103.9 71.9 89.5 C 71.9 82.3 76.8 76.1 85.3 76.1 C 89.3 76.1 93.1 77.4 95.7 80 C 95.7 80 92.2 86.9 92.2 86.9 C 90.3 85 88.1 84.1 85.6 84.1 C 83 84.1 81.1 86.1 81.1 89 C 81.1 96.4 96.4 97.4 96.4 111.8 C 96.4 119.9 91.1 125.7 82.9 125.7 C 77.6 125.7 73.6 124.1 70.5 121 Z M 109.6 120.6 C 109.61 120.56 109.6 138.1 109.6 138.1 L 101.5 138.1 L 101.5 90.1 L 109.6 90.1 C 109.6 90.1 109.61 94.42 109.6 94.4 C 111.1 91 113.9 89.2 116.4 89.2 C 123.2 89.2 126.7 96.3 126.7 107.5 C 126.7 118.4 123.2 125.7 116.4 125.7 C 113.9 125.7 111.1 124.2 109.6 120.6 Z M 118.3 107.5 C 118.3 101.3 117.3 96.4 113.7 96.4 C 112 96.4 110.3 98.2 109.6 100.5 C 109.6 100.5 109.6 114.4 109.6 114.4 C 110.3 116.7 112 118.5 113.7 118.5 C 117.3 118.5 118.3 113.6 118.3 107.5 Z M 130.6 107.5 C 130.6 97.8 134.5 89.2 143.6 89.2 C 152.7 89.2 156.7 97.8 156.7 107.5 C 156.7 117.1 152.7 125.7 143.6 125.7 C 134.5 125.7 130.6 117.1 130.6 107.5 Z M 148.3 107.5 C 148.3 101.6 147.3 96.4 143.6 96.4 C 140 96.4 139 101.6 139 107.5 C 139 113.4 140 118.5 143.6 118.5 C 147.3 118.5 148.3 113.4 148.3 107.5 Z M 177.4 124.9 C 177.4 124.9 177.44 100.11 177.4 100.1 C 177.4 97.7 176.6 96.4 174.8 96.4 C 172.7 96.4 170.9 98.7 170.1 101 C 170.09 100.98 170.1 124.9 170.1 124.9 L 162 124.9 L 162 90.1 L 170.1 90.1 C 170.1 90.1 170.09 94.64 170.1 94.6 C 171.5 91.8 175.1 89.2 178.2 89.2 C 183.5 89.2 185.6 92.3 185.6 97.2 C 185.64 97.16 185.6 124.9 185.6 124.9 L 177.4 124.9 Z M 192.1 135.2 C 192.1 135.2 194.9 128.6 194.9 128.6 C 196.9 130.6 199.3 131.9 202 131.9 C 205.4 131.9 207.9 129.7 207.9 124.3 C 207.9 124.3 207.9 119.3 207.9 119.3 C 206.4 122.8 203.6 124.6 201.1 124.6 C 194.3 124.6 190.8 118.1 190.8 107 C 190.8 96 194.3 89.2 201.1 89.2 C 203.6 89.2 206.5 90.8 207.9 94.4 C 207.89 94.42 207.9 90.1 207.9 90.1 L 216 90.1 C 216 90.1 216.03 123.73 216 123.7 C 216 135.7 209.6 139 202.9 139 C 198.5 139 195 138 192.1 135.2 Z M 207.9 113.2 C 207.9 113.2 207.9 100.6 207.9 100.6 C 207.2 98.3 205.5 96.4 203.8 96.4 C 200.2 96.4 199.2 100.8 199.2 107 C 199.2 113.1 200.2 117.4 203.8 117.4 C 205.5 117.4 207.2 115.5 207.9 113.2 Z M 221.3 107.5 C 221.3 97.4 225.6 89.2 234.3 89.2 C 243.1 89.2 246.8 97.1 246.8 107.3 C 246.77 107.31 246.8 110.1 246.8 110.1 C 246.8 110.1 229.13 110.12 229.1 110.1 C 229.2 115.2 231.4 119.1 236 119.1 C 237.9 119.1 240.1 117.8 241.7 115.7 C 241.7 115.7 245.7 120.2 245.7 120.2 C 243 123.7 239.1 125.7 235.1 125.7 C 226 125.7 221.3 118.1 221.3 107.5 Z M 234.1 95.9 C 230.1 95.9 229.1 100.8 229.1 104.4 C 229.1 104.4 238.9 104.4 238.9 104.4 C 238.9 100.5 238.1 95.9 234.1 95.9 Z M 287 124.9 L 282.1 101.2 L 277.1 124.9 L 268.5 124.9 L 260.5 90.1 L 268.9 90.1 L 273.3 113.9 L 277.9 90.1 L 285.7 90.1 L 290.6 113.9 L 295.1 90.1 L 303.6 90.1 L 295.5 124.9 L 287 124.9 Z M 306.3 81.1 C 306.3 78.4 308.6 76.1 311.3 76.1 C 314 76.1 316.2 78.4 316.2 81.1 C 316.2 83.8 314 86 311.3 86 C 308.6 86 306.3 83.8 306.3 81.1 Z M 307.2 124.9 L 307.2 90.1 L 315.4 90.1 L 315.4 124.9 L 307.2 124.9 Z M 323 116.9 C 323.02 116.89 323 97.2 323 97.2 L 319.8 97.2 L 319.8 90.1 L 323 90.1 L 323 80.6 L 331.2 80.6 L 331.2 90.1 L 335.5 90.1 L 335.5 97.2 L 331.2 97.2 C 331.2 97.2 331.15 115.3 331.2 115.3 C 331.2 117.5 331.7 118.5 333.1 118.5 C 333.9 118.5 334.6 118.2 335 117.6 C 335 117.6 336.7 123.9 336.7 123.9 C 335.5 125 333.5 125.7 331 125.7 C 325.3 125.7 323 122.9 323 116.9 Z M 356 124.9 C 356 124.9 355.99 99.97 356 100 C 356 97.6 355.1 96.4 353.3 96.4 C 351.2 96.4 349.4 98.7 348.6 101 C 348.65 100.98 348.6 124.9 348.6 124.9 L 340.5 124.9 L 340.5 76.9 L 348.6 76.9 C 348.6 76.9 348.65 94.64 348.6 94.6 C 350 91.8 353.6 89.2 356.8 89.2 C 362 89.2 364.2 92.1 364.2 97.1 C 364.2 97.09 364.2 124.9 364.2 124.9 L 356 124.9 Z M 382.9 124.9 L 382.9 76.9 C 382.9 76.9 395.88 76.86 395.9 76.9 C 405.2 76.9 409.4 84 409.4 92 C 409.4 100.1 405.2 107.2 395.9 107.2 C 395.88 107.24 392 107.2 392 107.2 L 392 124.9 L 382.9 124.9 Z M 400.2 92 C 400.2 87.7 398.3 84.8 394.9 84.8 C 394.94 84.85 392 84.8 392 84.8 L 392 99.2 C 392 99.2 394.94 99.25 394.9 99.2 C 398.3 99.2 400.2 96.4 400.2 92 Z M 429.7 124.9 C 429.7 124.9 429.72 120.49 429.7 120.5 C 428.4 123.3 425 125.7 421.6 125.7 C 416.3 125.7 414.2 122.9 414.2 117.9 C 414.24 117.9 414.2 90.1 414.2 90.1 L 422.4 90.1 C 422.4 90.1 422.38 115.02 422.4 115 C 422.4 117.4 423.2 118.5 425 118.5 C 427.1 118.5 428.9 116.4 429.7 114.2 C 429.72 114.15 429.7 90.1 429.7 90.1 L 437.9 90.1 L 437.9 124.9 L 429.7 124.9 Z M 445.6 116.9 C 445.56 116.89 445.6 97.2 445.6 97.2 L 442.3 97.2 L 442.3 90.1 L 445.6 90.1 L 445.6 80.6 L 453.7 80.6 L 453.7 90.1 L 458.1 90.1 L 458.1 97.2 L 453.7 97.2 C 453.7 97.2 453.7 115.3 453.7 115.3 C 453.7 117.5 454.2 118.5 455.6 118.5 C 456.4 118.5 457.2 118.2 457.6 117.6 C 457.6 117.6 459.2 123.9 459.2 123.9 C 458 125 456.1 125.7 453.6 125.7 C 447.9 125.7 445.6 122.9 445.6 116.9 Z M 464.1 116.9 C 464.14 116.89 464.1 97.2 464.1 97.2 L 460.9 97.2 L 460.9 90.1 L 464.1 90.1 L 464.1 80.6 L 472.3 80.6 L 472.3 90.1 L 476.7 90.1 L 476.7 97.2 L 472.3 97.2 C 472.3 97.2 472.27 115.3 472.3 115.3 C 472.3 117.5 472.8 118.5 474.2 118.5 C 475 118.5 475.7 118.2 476.2 117.6 C 476.2 117.6 477.8 123.9 477.8 123.9 C 476.6 125 474.6 125.7 472.1 125.7 C 466.4 125.7 464.1 122.9 464.1 116.9 Z M 482.4 131.4 C 482.9 131.6 483.6 131.8 484 131.8 C 485.5 131.8 486.4 131.1 486.9 129.3 C 486.89 129.34 487.9 125.7 487.9 125.7 L 478.5 90.1 L 487.1 90.1 L 492 114.6 L 497 90.1 L 505.6 90.1 C 505.6 90.1 494.66 131 494.7 131 C 492.9 137.3 490.1 139 485.1 139 C 483.9 139 482 138.8 481.2 138.5 C 481.2 138.5 482.4 131.4 482.4 131.4 Z M 519.6 100.9 C 519.6 86.6 524.2 76.1 534.7 76.1 C 542.5 76.1 545.2 82.3 546.7 87.4 C 546.7 87.4 539.5 90 539.5 90 C 538.5 86.4 537.4 84.1 534.7 84.1 C 530.4 84.1 528.9 91.1 528.9 100.9 C 528.9 110.7 530.4 117.7 534.7 117.7 C 537.6 117.7 538.9 114.7 539.6 110.7 C 539.6 110.7 546.9 113.4 546.9 113.4 C 545.5 118.8 542.7 125.7 534.7 125.7 C 524.2 125.7 519.6 115.2 519.6 100.9 Z M 567.1 124.9 C 567.1 124.9 567.09 99.97 567.1 100 C 567.1 97.6 566.2 96.4 564.4 96.4 C 562.3 96.4 560.5 98.7 559.7 101 C 559.75 100.98 559.7 124.9 559.7 124.9 L 551.6 124.9 L 551.6 76.9 L 559.7 76.9 C 559.7 76.9 559.75 94.64 559.7 94.6 C 561.1 91.8 564.7 89.2 567.9 89.2 C 573.1 89.2 575.3 92.1 575.3 97.1 C 575.3 97.09 575.3 124.9 575.3 124.9 L 567.1 124.9 Z M 597.3 124.9 C 597.3 124.9 597.33 120.49 597.3 120.5 C 596 123.3 592.6 125.7 589.2 125.7 C 583.9 125.7 581.9 122.9 581.9 117.9 C 581.85 117.9 581.9 90.1 581.9 90.1 L 590 90.1 C 590 90.1 589.99 115.02 590 115 C 590 117.4 590.9 118.5 592.7 118.5 C 594.7 118.5 596.5 116.4 597.3 114.2 C 597.33 114.15 597.3 90.1 597.3 90.1 L 605.5 90.1 L 605.5 124.9 L 597.3 124.9 Z M 627.6 124.9 C 627.6 124.9 627.57 100.11 627.6 100.1 C 627.6 97.7 626.7 96.4 624.9 96.4 C 622.8 96.4 621 98.7 620.2 101 C 620.23 100.98 620.2 124.9 620.2 124.9 L 612.1 124.9 L 612.1 90.1 L 620.2 90.1 C 620.2 90.1 620.23 94.64 620.2 94.6 C 621.6 91.8 625.2 89.2 628.4 89.2 C 633.6 89.2 635.8 92.3 635.8 97.2 C 635.78 97.16 635.8 124.9 635.8 124.9 L 627.6 124.9 Z M 658.7 124.9 L 653.6 111 L 650.5 116.7 L 650.5 124.9 L 642.3 124.9 L 642.3 76.9 L 650.5 76.9 L 650.5 106.2 L 658.5 90.1 L 667.3 90.1 L 659 105.5 L 667.7 124.9 L 658.7 124.9 Z M 698.2 124.9 C 698.2 124.9 698.2 121.57 698.2 121.6 C 696.7 124.3 693.5 125.7 690.9 125.7 C 685.5 125.7 681.5 121.3 681.5 114.2 C 681.5 107.1 685.5 102.8 690.9 102.8 C 693.5 102.8 696.8 104.1 698.2 106.7 C 698.2 106.7 698.2 102.5 698.2 102.5 C 698.2 98.5 696.6 96.2 692.9 96.2 C 690.6 96.2 688.2 97.2 685.9 99.6 C 685.9 99.6 682.9 93.8 682.9 93.8 C 686 90.5 691 89.2 694.6 89.2 C 701.7 89.2 706.3 92.8 706.3 100.6 C 706.34 100.62 706.3 124.9 706.3 124.9 L 698.2 124.9 Z M 698.2 116.7 C 698.2 116.7 698.2 112 698.2 112 C 697.3 109.8 695.6 108.4 693.8 108.4 C 691 108.4 689.6 111 689.6 114.3 C 689.6 117.6 691 120.3 693.8 120.3 C 695.6 120.3 697.3 118.9 698.2 116.7 Z M 728.4 124.9 C 728.4 124.9 728.44 100.11 728.4 100.1 C 728.4 97.7 727.6 96.4 725.8 96.4 C 723.7 96.4 721.9 98.7 721.1 101 C 721.1 100.98 721.1 124.9 721.1 124.9 L 713 124.9 L 713 90.1 L 721.1 90.1 C 721.1 90.1 721.1 94.64 721.1 94.6 C 722.5 91.8 726.1 89.2 729.2 89.2 C 734.5 89.2 736.7 92.3 736.7 97.2 C 736.65 97.16 736.7 124.9 736.7 124.9 L 728.4 124.9 Z M 758.9 124.9 C 758.9 124.9 758.9 120.56 758.9 120.6 C 757.4 124 754.6 125.7 752.1 125.7 C 745.3 125.7 741.8 118.7 741.8 107.5 C 741.8 96.6 745.3 89.2 752.1 89.2 C 754.6 89.2 757.5 90.8 758.9 94.4 C 758.9 94.42 758.9 76.9 758.9 76.9 L 767 76.9 L 767 124.9 L 758.9 124.9 Z M 758.9 114.4 C 758.9 114.4 758.9 100.6 758.9 100.6 C 758.2 98.3 756.5 96.4 754.8 96.4 C 751.2 96.4 750.2 101.3 750.2 107.5 C 750.2 113.6 751.2 118.5 754.8 118.5 C 756.5 118.5 758.2 116.7 758.9 114.4 Z " stroke="none" fill="#e9e8e8"/>  </g>  <g id="Polygon120610">    <path d="M 24.3 56.9 L 24.3 8.9 L 45.3 8.9 L 45.3 16.8 L 33.4 16.8 L 33.4 28.4 L 44.8 28.4 L 44.8 36.4 L 33.4 36.4 L 33.4 56.9 L 24.3 56.9 Z M 50.9 56.9 L 50.9 8.9 L 59.1 8.9 L 59.1 56.9 L 50.9 56.9 Z M 80.7 56.9 C 80.7 56.9 80.74 53.57 80.7 53.6 C 79.2 56.3 76 57.7 73.5 57.7 C 68 57.7 64 53.3 64 46.2 C 64 39.1 68 34.8 73.5 34.8 C 76 34.8 79.3 36.1 80.7 38.7 C 80.7 38.7 80.7 34.5 80.7 34.5 C 80.7 30.5 79.2 28.2 75.5 28.2 C 73.2 28.2 70.7 29.2 68.4 31.6 C 68.4 31.6 65.4 25.8 65.4 25.8 C 68.6 22.5 73.5 21.2 77.1 21.2 C 84.3 21.2 88.9 24.8 88.9 32.6 C 88.88 32.62 88.9 56.9 88.9 56.9 L 80.7 56.9 Z M 80.7 48.7 C 80.7 48.7 80.7 44 80.7 44 C 79.9 41.8 78.1 40.4 76.3 40.4 C 73.5 40.4 72.2 43 72.2 46.3 C 72.2 49.6 73.5 52.3 76.3 52.3 C 78.1 52.3 79.9 50.9 80.7 48.7 Z M 101.5 56.9 L 92.3 22.1 L 101 22.1 L 105.9 46.7 L 110.9 22.1 L 119.5 22.1 L 110.3 56.9 L 101.5 56.9 Z M 121.5 39.5 C 121.5 29.8 125.5 21.2 134.5 21.2 C 143.7 21.2 147.6 29.8 147.6 39.5 C 147.6 49.1 143.7 57.7 134.5 57.7 C 125.5 57.7 121.5 49.1 121.5 39.5 Z M 139.2 39.5 C 139.2 33.6 138.2 28.4 134.5 28.4 C 130.9 28.4 129.9 33.6 129.9 39.5 C 129.9 45.4 130.9 50.5 134.5 50.5 C 138.2 50.5 139.2 45.4 139.2 39.5 Z M 168.4 56.9 C 168.4 56.9 168.36 52.49 168.4 52.5 C 167 55.3 163.6 57.7 160.2 57.7 C 155 57.7 152.9 54.9 152.9 49.9 C 152.88 49.9 152.9 22.1 152.9 22.1 L 161 22.1 C 161 22.1 161.02 47.02 161 47 C 161 49.4 161.9 50.5 163.7 50.5 C 165.8 50.5 167.6 48.4 168.4 46.2 C 168.36 46.15 168.4 22.1 168.4 22.1 L 176.6 22.1 L 176.6 56.9 L 168.4 56.9 Z M 183.1 56.9 L 183.1 22.1 L 191.3 22.1 C 191.3 22.1 191.26 26.93 191.3 26.9 C 192.6 23.8 196 21.2 199 21.2 C 199 21.2 199 29.2 199 29.2 C 198.5 29.1 198 29 197.5 29 C 195.1 29 192.6 31 191.3 33.5 C 191.26 33.48 191.3 56.9 191.3 56.9 L 183.1 56.9 Z M 201.9 39.5 C 201.9 29.4 206.2 21.2 214.9 21.2 C 223.7 21.2 227.4 29.1 227.4 39.3 C 227.4 39.31 227.4 42.1 227.4 42.1 C 227.4 42.1 209.76 42.12 209.8 42.1 C 209.8 47.2 212 51.1 216.6 51.1 C 218.5 51.1 220.8 49.8 222.4 47.7 C 222.4 47.7 226.3 52.2 226.3 52.2 C 223.6 55.7 219.7 57.7 215.7 57.7 C 206.7 57.7 201.9 50.1 201.9 39.5 Z M 214.7 27.9 C 210.8 27.9 209.8 32.8 209.8 36.4 C 209.8 36.4 219.6 36.4 219.6 36.4 C 219.6 32.5 218.7 27.9 214.7 27.9 Z M 248.1 56.9 C 248.1 56.9 248.07 52.56 248.1 52.6 C 246.6 56 243.7 57.7 241.3 57.7 C 234.5 57.7 231 50.7 231 39.5 C 231 28.6 234.5 21.2 241.3 21.2 C 243.7 21.2 246.6 22.8 248.1 26.4 C 248.07 26.42 248.1 8.9 248.1 8.9 L 256.2 8.9 L 256.2 56.9 L 248.1 56.9 Z M 248.1 46.4 C 248.1 46.4 248.1 32.6 248.1 32.6 C 247.3 30.3 245.7 28.4 244 28.4 C 240.4 28.4 239.4 33.3 239.4 39.5 C 239.4 45.6 240.4 50.5 244 50.5 C 245.7 50.5 247.3 48.7 248.1 46.4 Z M 272.1 53 C 272.1 53 276.1 45.9 276.1 45.9 C 278 48.4 281.1 49.7 283.9 49.7 C 286.8 49.7 288.7 47.5 288.7 44.4 C 288.7 35.9 273.5 35.9 273.5 21.5 C 273.5 14.3 278.4 8.1 286.9 8.1 C 290.9 8.1 294.7 9.4 297.3 12 C 297.3 12 293.8 18.9 293.8 18.9 C 291.9 17 289.7 16.1 287.2 16.1 C 284.6 16.1 282.7 18.1 282.7 21 C 282.7 28.4 298 29.4 298 43.8 C 298 51.9 292.7 57.7 284.5 57.7 C 279.2 57.7 275.2 56.1 272.1 53 Z M 303.1 56.9 L 303.1 8.9 L 311.2 8.9 L 311.2 56.9 L 303.1 56.9 Z M 316.8 13.1 C 316.8 10.4 319.1 8.1 321.8 8.1 C 324.5 8.1 326.8 10.4 326.8 13.1 C 326.8 15.8 324.5 18 321.8 18 C 319.1 18 316.8 15.8 316.8 13.1 Z M 317.8 56.9 L 317.8 22.1 L 325.9 22.1 L 325.9 56.9 L 317.8 56.9 Z M 363.5 56.9 C 363.5 56.9 363.48 32.11 363.5 32.1 C 363.5 29.5 362.5 28.4 360.8 28.4 C 358.6 28.4 356.9 30.9 356.1 33 C 356.14 32.98 356.1 56.9 356.1 56.9 L 347.9 56.9 C 347.9 56.9 347.93 32.11 347.9 32.1 C 347.9 29.7 347.1 28.4 345.3 28.4 C 343.1 28.4 341.3 30.9 340.6 33 C 340.59 32.98 340.6 56.9 340.6 56.9 L 332.4 56.9 L 332.4 22.1 L 340.6 22.1 C 340.6 22.1 340.59 26.64 340.6 26.6 C 341.8 24 345.4 21.2 348.7 21.2 C 352.4 21.2 355.3 23 355.8 27 C 357.1 24.1 360.8 21.2 364.3 21.2 C 368.6 21.2 371.6 23.5 371.6 29.2 C 371.62 29.16 371.6 56.9 371.6 56.9 L 363.5 56.9 Z M 376.9 39.5 C 376.9 29.4 381.2 21.2 389.9 21.2 C 398.7 21.2 402.4 29.1 402.4 39.3 C 402.36 39.31 402.4 42.1 402.4 42.1 C 402.4 42.1 384.72 42.12 384.7 42.1 C 384.8 47.2 387 51.1 391.6 51.1 C 393.5 51.1 395.7 49.8 397.3 47.7 C 397.3 47.7 401.3 52.2 401.3 52.2 C 398.5 55.7 394.7 57.7 390.7 57.7 C 381.6 57.7 376.9 50.1 376.9 39.5 Z M 389.7 27.9 C 385.7 27.9 384.7 32.8 384.7 36.4 C 384.7 36.4 394.5 36.4 394.5 36.4 C 394.5 32.5 393.6 27.9 389.7 27.9 Z M 434.2 56.9 C 434.2 56.9 434.18 53.57 434.2 53.6 C 432.7 56.3 429.4 57.7 426.9 57.7 C 421.4 57.7 417.5 53.3 417.5 46.2 C 417.5 39.1 421.4 34.8 426.9 34.8 C 429.4 34.8 432.7 36.1 434.2 38.7 C 434.2 38.7 434.2 34.5 434.2 34.5 C 434.2 30.5 432.6 28.2 428.9 28.2 C 426.6 28.2 424.2 29.2 421.9 31.6 C 421.9 31.6 418.8 25.8 418.8 25.8 C 422 22.5 427 21.2 430.6 21.2 C 437.7 21.2 442.3 24.8 442.3 32.6 C 442.32 32.62 442.3 56.9 442.3 56.9 L 434.2 56.9 Z M 434.2 48.7 C 434.2 48.7 434.2 44 434.2 44 C 433.3 41.8 431.6 40.4 429.8 40.4 C 427 40.4 425.6 43 425.6 46.3 C 425.6 49.6 427 52.3 429.8 52.3 C 431.6 52.3 433.3 50.9 434.2 48.7 Z M 464.4 56.9 C 464.4 56.9 464.42 32.11 464.4 32.1 C 464.4 29.7 463.6 28.4 461.8 28.4 C 459.7 28.4 457.9 30.7 457.1 33 C 457.08 32.98 457.1 56.9 457.1 56.9 L 448.9 56.9 L 448.9 22.1 L 457.1 22.1 C 457.1 22.1 457.08 26.64 457.1 26.6 C 458.4 23.8 462 21.2 465.2 21.2 C 470.5 21.2 472.6 24.3 472.6 29.2 C 472.63 29.16 472.6 56.9 472.6 56.9 L 464.4 56.9 Z M 494.9 56.9 C 494.9 56.9 494.88 52.56 494.9 52.6 C 493.4 56 490.6 57.7 488.1 57.7 C 481.3 57.7 477.8 50.7 477.8 39.5 C 477.8 28.6 481.3 21.2 488.1 21.2 C 490.6 21.2 493.4 22.8 494.9 26.4 C 494.88 26.42 494.9 8.9 494.9 8.9 L 503 8.9 L 503 56.9 L 494.9 56.9 Z M 494.9 46.4 C 494.9 46.4 494.9 32.6 494.9 32.6 C 494.2 30.3 492.5 28.4 490.8 28.4 C 487.2 28.4 486.2 33.3 486.2 39.5 C 486.2 45.6 487.2 50.5 490.8 50.5 C 492.5 50.5 494.2 48.7 494.9 46.4 Z M 526.6 56.9 L 526.6 16.8 L 519.4 16.8 L 519.4 8.9 L 543 8.9 L 543 16.8 L 535.7 16.8 L 535.7 56.9 L 526.6 56.9 Z M 542.6 39.5 C 542.6 29.8 546.6 21.2 555.6 21.2 C 564.8 21.2 568.8 29.8 568.8 39.5 C 568.8 49.1 564.8 57.7 555.6 57.7 C 546.6 57.7 542.6 49.1 542.6 39.5 Z M 560.3 39.5 C 560.3 33.6 559.3 28.4 555.6 28.4 C 552 28.4 551 33.6 551 39.5 C 551 45.4 552 50.5 555.6 50.5 C 559.3 50.5 560.3 45.4 560.3 39.5 Z M 589.1 56.9 C 589.1 56.9 589.13 53.57 589.1 53.6 C 587.6 56.3 584.4 57.7 581.9 57.7 C 576.4 57.7 572.4 53.3 572.4 46.2 C 572.4 39.1 576.4 34.8 581.9 34.8 C 584.4 34.8 587.7 36.1 589.1 38.7 C 589.1 38.7 589.1 34.5 589.1 34.5 C 589.1 30.5 587.5 28.2 583.9 28.2 C 581.6 28.2 579.1 29.2 576.8 31.6 C 576.8 31.6 573.8 25.8 573.8 25.8 C 577 22.5 581.9 21.2 585.5 21.2 C 592.7 21.2 597.3 24.8 597.3 32.6 C 597.26 32.62 597.3 56.9 597.3 56.9 L 589.1 56.9 Z M 589.1 48.7 C 589.1 48.7 589.1 44 589.1 44 C 588.3 41.8 586.5 40.4 584.7 40.4 C 581.9 40.4 580.6 43 580.6 46.3 C 580.6 49.6 581.9 52.3 584.7 52.3 C 586.5 52.3 588.3 50.9 589.1 48.7 Z M 601.4 53.2 C 601.4 53.2 604.8 47.6 604.8 47.6 C 606.7 49.7 609.3 51.3 612 51.3 C 614.6 51.3 616.4 49.9 616.4 47.6 C 616.4 41.9 602.7 43.2 602.7 31.1 C 602.7 25.8 606.6 21.2 613.7 21.2 C 617.7 21.2 621.4 22.8 624 25.3 C 624 25.3 620.7 30.8 620.7 30.8 C 619.3 29.2 616.8 27.6 614 27.6 C 611.7 27.6 610.2 29.1 610.2 30.9 C 610.2 36.1 624.1 35.2 624.1 47.4 C 624.1 53.5 619.4 57.7 612.7 57.7 C 607.6 57.7 603.7 55.9 601.4 53.2 Z M 629.9 48.9 C 629.88 48.89 629.9 29.2 629.9 29.2 L 626.6 29.2 L 626.6 22.1 L 629.9 22.1 L 629.9 12.6 L 638 12.6 L 638 22.1 L 642.4 22.1 L 642.4 29.2 L 638 29.2 C 638 29.2 638.01 47.3 638 47.3 C 638 49.5 638.5 50.5 640 50.5 C 640.7 50.5 641.5 50.2 641.9 49.6 C 641.9 49.6 643.6 55.9 643.6 55.9 C 642.3 57 640.4 57.7 637.9 57.7 C 632.2 57.7 629.9 54.9 629.9 48.9 Z M 646 39.5 C 646 29.4 650.3 21.2 659 21.2 C 667.8 21.2 671.5 29.1 671.5 39.3 C 671.49 39.31 671.5 42.1 671.5 42.1 C 671.5 42.1 653.85 42.12 653.9 42.1 C 653.9 47.2 656.1 51.1 660.7 51.1 C 662.6 51.1 664.9 49.8 666.5 47.7 C 666.5 47.7 670.4 52.2 670.4 52.2 C 667.7 55.7 663.8 57.7 659.8 57.7 C 650.8 57.7 646 50.1 646 39.5 Z M 658.8 27.9 C 654.9 27.9 653.9 32.8 653.9 36.4 C 653.9 36.4 663.6 36.4 663.6 36.4 C 663.6 32.5 662.8 27.9 658.8 27.9 Z M 692.2 56.9 C 692.2 56.9 692.16 52.56 692.2 52.6 C 690.6 56 687.8 57.7 685.4 57.7 C 678.5 57.7 675.1 50.7 675.1 39.5 C 675.1 28.6 678.5 21.2 685.4 21.2 C 687.8 21.2 690.7 22.8 692.2 26.4 C 692.16 26.42 692.2 8.9 692.2 8.9 L 700.3 8.9 L 700.3 56.9 L 692.2 56.9 Z M 692.2 46.4 C 692.2 46.4 692.2 32.6 692.2 32.6 C 691.4 30.3 689.8 28.4 688.1 28.4 C 684.5 28.4 683.4 33.3 683.4 39.5 C 683.4 45.6 684.5 50.5 688.1 50.5 C 689.8 50.5 691.4 48.7 692.2 46.4 Z M 719.1 56.9 L 719.1 8.9 C 719.1 8.9 731.03 8.86 731 8.9 C 742.6 8.9 747.4 19.2 747.4 32.9 C 747.4 46.7 742.7 56.9 731.1 56.9 C 731.11 56.88 719.1 56.9 719.1 56.9 Z M 738.1 32.9 C 738.1 22.3 735.8 16.8 731 16.8 C 731.03 16.85 728.2 16.8 728.2 16.8 L 728.2 48.9 C 728.2 48.9 731.03 48.89 731 48.9 C 735.9 48.9 738.1 43.1 738.1 32.9 Z M 752 13.1 C 752 10.4 754.3 8.1 757 8.1 C 759.7 8.1 761.9 10.4 761.9 13.1 C 761.9 15.8 759.7 18 757 18 C 754.3 18 752 15.8 752 13.1 Z M 752.9 56.9 L 752.9 22.1 L 761.1 22.1 L 761.1 56.9 L 752.9 56.9 Z M 765.2 53.2 C 765.2 53.2 768.5 47.6 768.5 47.6 C 770.4 49.7 773 51.3 775.7 51.3 C 778.3 51.3 780.1 49.9 780.1 47.6 C 780.1 41.9 766.4 43.2 766.4 31.1 C 766.4 25.8 770.3 21.2 777.5 21.2 C 781.4 21.2 785.1 22.8 787.7 25.3 C 787.7 25.3 784.4 30.8 784.4 30.8 C 783 29.2 780.5 27.6 777.7 27.6 C 775.5 27.6 773.9 29.1 773.9 30.9 C 773.9 36.1 787.8 35.2 787.8 47.4 C 787.8 53.5 783.1 57.7 776.5 57.7 C 771.3 57.7 767.5 55.9 765.2 53.2 Z M 808 56.9 C 808 56.9 808 31.97 808 32 C 808 29.6 807.1 28.4 805.3 28.4 C 803.2 28.4 801.4 30.7 800.7 33 C 800.66 32.98 800.7 56.9 800.7 56.9 L 792.5 56.9 L 792.5 8.9 L 800.7 8.9 C 800.7 8.9 800.66 26.64 800.7 26.6 C 802 23.8 805.6 21.2 808.8 21.2 C 814 21.2 816.2 24.1 816.2 29.1 C 816.21 29.09 816.2 56.9 816.2 56.9 L 808 56.9 Z " stroke="none" fill="#e9e8e8"/>  </g></svg>