<?xml version="1.0" standalone="no"?><!DOCTYPE svg PUBLIC "-//W3C//DTD SVG 1.1//EN" "http://www.w3.org/Graphics/SVG/1.1/DTD/svg11.dtd"><svg xmlns="http://www.w3.org/2000/svg" version="1.1" width="658px" height="197.6px" viewBox="0 0 658 197.6">  <desc>Talcum Paste Battered Rag and Putty-Coated Stuffing with Dried Acrylic Bits</desc>  <defs/>  <g id="Polygon202816">    <path d="M 22.4 159.4 L 18.2 139.7 L 14.1 159.4 L 7 159.4 L 0.3 130.4 L 7.3 130.4 L 11 150.2 L 14.8 130.4 L 21.3 130.4 L 25.4 150.2 L 29.1 130.4 L 36.2 130.4 L 29.5 159.4 L 22.4 159.4 Z M 38.5 122.9 C 38.5 120.6 40.4 118.8 42.6 118.8 C 44.9 118.8 46.7 120.6 46.7 122.9 C 46.7 125.2 44.9 127 42.6 127 C 40.4 127 38.5 125.2 38.5 122.9 Z M 39.2 159.4 L 39.2 130.4 L 46 130.4 L 46 159.4 L 39.2 159.4 Z M 52.4 152.7 C 52.38 152.74 52.4 136.3 52.4 136.3 L 49.7 136.3 L 49.7 130.4 L 52.4 130.4 L 52.4 122.5 L 59.2 122.5 L 59.2 130.4 L 62.8 130.4 L 62.8 136.3 L 59.2 136.3 C 59.2 136.3 59.16 151.42 59.2 151.4 C 59.2 153.2 59.6 154.1 60.8 154.1 C 61.4 154.1 62 153.8 62.4 153.3 C 62.4 153.3 63.8 158.6 63.8 158.6 C 62.8 159.5 61.1 160.1 59 160.1 C 54.3 160.1 52.4 157.7 52.4 152.7 Z M 79.9 159.4 C 79.9 159.4 79.86 138.64 79.9 138.6 C 79.9 136.7 79.1 135.7 77.6 135.7 C 75.9 135.7 74.4 137.6 73.7 139.5 C 73.74 139.48 73.7 159.4 73.7 159.4 L 67 159.4 L 67 119.4 L 73.7 119.4 C 73.7 119.4 73.74 134.2 73.7 134.2 C 74.9 131.9 77.9 129.7 80.5 129.7 C 84.9 129.7 86.7 132.1 86.7 136.2 C 86.7 136.24 86.7 159.4 86.7 159.4 L 79.9 159.4 Z M 102.3 159.4 L 102.3 119.4 C 102.3 119.4 112.26 119.38 112.3 119.4 C 121.9 119.4 125.9 128 125.9 139.4 C 125.9 150.9 122 159.4 112.3 159.4 C 112.32 159.4 102.3 159.4 102.3 159.4 Z M 118.1 139.4 C 118.1 130.6 116.2 126 112.3 126 C 112.26 126.04 109.9 126 109.9 126 L 109.9 152.7 C 109.9 152.7 112.26 152.74 112.3 152.7 C 116.3 152.7 118.1 147.9 118.1 139.4 Z M 130.5 159.4 L 130.5 130.4 L 137.3 130.4 C 137.3 130.4 137.28 134.44 137.3 134.4 C 138.4 131.8 141.2 129.7 143.8 129.7 C 143.8 129.7 143.8 136.4 143.8 136.4 C 143.3 136.2 142.9 136.2 142.4 136.2 C 140.5 136.2 138.4 137.8 137.3 139.9 C 137.28 139.9 137.3 159.4 137.3 159.4 L 130.5 159.4 Z M 146.5 122.9 C 146.5 120.6 148.4 118.8 150.7 118.8 C 152.9 118.8 154.8 120.6 154.8 122.9 C 154.8 125.2 152.9 127 150.7 127 C 148.4 127 146.5 125.2 146.5 122.9 Z M 147.3 159.4 L 147.3 130.4 L 154.1 130.4 L 154.1 159.4 L 147.3 159.4 Z M 158.4 144.9 C 158.4 136.5 162 129.7 169.3 129.7 C 176.6 129.7 179.6 136.2 179.6 144.8 C 179.64 144.76 179.6 147.1 179.6 147.1 C 179.6 147.1 164.94 147.1 164.9 147.1 C 165 151.4 166.8 154.6 170.6 154.6 C 172.3 154.6 174.1 153.5 175.4 151.7 C 175.4 151.7 178.7 155.5 178.7 155.5 C 176.5 158.4 173.2 160.1 169.9 160.1 C 162.4 160.1 158.4 153.8 158.4 144.9 Z M 169.1 135.2 C 165.8 135.2 164.9 139.3 164.9 142.4 C 164.9 142.4 173.1 142.4 173.1 142.4 C 173.1 139.1 172.4 135.2 169.1 135.2 Z M 196.9 159.4 C 196.9 159.4 196.86 155.8 196.9 155.8 C 195.6 158.7 193.3 160.1 191.2 160.1 C 185.5 160.1 182.6 154.2 182.6 144.9 C 182.6 135.8 185.5 129.7 191.2 129.7 C 193.3 129.7 195.7 131 196.9 134 C 196.86 134.02 196.9 119.4 196.9 119.4 L 203.6 119.4 L 203.6 159.4 L 196.9 159.4 Z M 196.9 150.6 C 196.9 150.6 196.9 139.2 196.9 139.2 C 196.3 137.3 194.9 135.7 193.4 135.7 C 190.4 135.7 189.6 139.8 189.6 144.9 C 189.6 150 190.4 154.1 193.4 154.1 C 194.9 154.1 196.3 152.6 196.9 150.6 Z M 233.8 159.4 L 232.6 152 L 225.2 152 L 224 159.4 L 216.2 159.4 L 224.5 119.4 L 233.2 119.4 L 241.6 159.4 L 233.8 159.4 Z M 228.9 127.8 L 226 145.4 L 231.8 145.4 L 228.9 127.8 Z M 243.1 144.9 C 243.1 136.1 247.2 129.7 254.2 129.7 C 257.4 129.7 259.8 130.9 261.2 132.3 C 261.2 132.3 259 137.6 259 137.6 C 257.8 136.3 256.7 135.7 255.4 135.7 C 251.8 135.7 250.1 139.8 250.1 144.9 C 250.1 149.9 251.8 154.1 255.4 154.1 C 256.7 154.1 257.8 153.5 259 152.3 C 259 152.3 261.2 157.5 261.2 157.5 C 259.8 159 257.4 160.1 254.2 160.1 C 247.2 160.1 243.1 153.7 243.1 144.9 Z M 264.9 159.4 L 264.9 130.4 L 271.7 130.4 C 271.7 130.4 271.68 134.44 271.7 134.4 C 272.8 131.8 275.6 129.7 278.2 129.7 C 278.2 129.7 278.2 136.4 278.2 136.4 C 277.7 136.2 277.3 136.2 276.8 136.2 C 274.9 136.2 272.8 137.8 271.7 139.9 C 271.68 139.9 271.7 159.4 271.7 159.4 L 264.9 159.4 Z M 282.3 164.9 C 282.7 165 283.3 165.2 283.7 165.2 C 284.9 165.2 285.7 164.6 286.1 163.1 C 286.08 163.12 286.9 160.1 286.9 160.1 L 279.1 130.4 L 286.3 130.4 L 290.3 150.8 L 294.5 130.4 L 301.7 130.4 C 301.7 130.4 292.56 164.5 292.6 164.5 C 291.1 169.8 288.8 171.2 284.6 171.2 C 283.6 171.2 282 171 281.3 170.7 C 281.3 170.7 282.3 164.9 282.3 164.9 Z M 304.5 159.4 L 304.5 119.4 L 311.3 119.4 L 311.3 159.4 L 304.5 159.4 Z M 316 122.9 C 316 120.6 317.9 118.8 320.1 118.8 C 322.4 118.8 324.2 120.6 324.2 122.9 C 324.2 125.2 322.4 127 320.1 127 C 317.9 127 316 125.2 316 122.9 Z M 316.7 159.4 L 316.7 130.4 L 323.5 130.4 L 323.5 159.4 L 316.7 159.4 Z M 327.8 144.9 C 327.8 136.1 331.9 129.7 338.9 129.7 C 342.1 129.7 344.5 130.9 345.9 132.3 C 345.9 132.3 343.7 137.6 343.7 137.6 C 342.5 136.3 341.5 135.7 340.1 135.7 C 336.5 135.7 334.8 139.8 334.8 144.9 C 334.8 149.9 336.5 154.1 340.1 154.1 C 341.5 154.1 342.5 153.5 343.7 152.3 C 343.7 152.3 345.9 157.5 345.9 157.5 C 344.5 159 342.1 160.1 338.9 160.1 C 331.9 160.1 327.8 153.7 327.8 144.9 Z M 359.8 159.4 L 359.8 119.4 C 359.8 119.4 371.81 119.38 371.8 119.4 C 378.5 119.4 381.4 124.1 381.4 129.6 C 381.4 134.6 379 137.7 375.5 138.8 C 379.3 139.4 382 143.7 382 148.6 C 382 154.7 379.1 159.4 372.2 159.4 C 372.23 159.4 359.8 159.4 359.8 159.4 Z M 373.7 130.9 C 373.7 128 372.7 126 369.8 126 C 369.83 126.04 367.3 126 367.3 126 L 367.3 135.7 C 367.3 135.7 369.83 135.7 369.8 135.7 C 372.7 135.7 373.7 133.8 373.7 130.9 Z M 374.2 147.5 C 374.2 144.6 372.9 142.4 370.1 142.4 C 370.07 142.36 367.3 142.4 367.3 142.4 L 367.3 152.7 C 367.3 152.7 370.07 152.74 370.1 152.7 C 372.9 152.7 374.2 150.9 374.2 147.5 Z M 385.7 122.9 C 385.7 120.6 387.7 118.8 389.9 118.8 C 392.2 118.8 394 120.6 394 122.9 C 394 125.2 392.2 127 389.9 127 C 387.7 127 385.7 125.2 385.7 122.9 Z M 386.5 159.4 L 386.5 130.4 L 393.3 130.4 L 393.3 159.4 L 386.5 159.4 Z M 399.7 152.7 C 399.65 152.74 399.7 136.3 399.7 136.3 L 397 136.3 L 397 130.4 L 399.7 130.4 L 399.7 122.5 L 406.4 122.5 L 406.4 130.4 L 410.1 130.4 L 410.1 136.3 L 406.4 136.3 C 406.4 136.3 406.43 151.42 406.4 151.4 C 406.4 153.2 406.9 154.1 408.1 154.1 C 408.7 154.1 409.3 153.8 409.7 153.3 C 409.7 153.3 411.1 158.6 411.1 158.6 C 410 159.5 408.4 160.1 406.3 160.1 C 401.6 160.1 399.7 157.7 399.7 152.7 Z M 412.2 156.3 C 412.2 156.3 415 151.7 415 151.7 C 416.6 153.4 418.7 154.8 421 154.8 C 423.2 154.8 424.7 153.6 424.7 151.7 C 424.7 146.9 413.2 148 413.2 137.9 C 413.2 133.5 416.5 129.7 422.5 129.7 C 425.8 129.7 428.8 131 431 133.1 C 431 133.1 428.2 137.7 428.2 137.7 C 427.1 136.3 425 135 422.6 135 C 420.8 135 419.5 136.2 419.5 137.7 C 419.5 142.1 431.1 141.3 431.1 151.5 C 431.1 156.6 427.1 160.1 421.6 160.1 C 417.3 160.1 414.1 158.6 412.2 156.3 Z " stroke="none" fill="#e9e8e8"/>  </g>  <g id="Polygon202815">    <path d="M 15.4 103.4 C 15.4 103.4 15.36 100.64 15.4 100.6 C 14.1 102.9 11.4 104.1 9.3 104.1 C 4.7 104.1 1.4 100.4 1.4 94.5 C 1.4 88.6 4.7 85 9.3 85 C 11.4 85 14.2 86.1 15.4 88.3 C 15.4 88.3 15.4 84.7 15.4 84.7 C 15.4 81.4 14 79.5 11 79.5 C 9.1 79.5 7 80.4 5.1 82.3 C 5.1 82.3 2.6 77.5 2.6 77.5 C 5.2 74.7 9.4 73.7 12.4 73.7 C 18.3 73.7 22.1 76.7 22.1 83.2 C 22.14 83.18 22.1 103.4 22.1 103.4 L 15.4 103.4 Z M 15.4 96.6 C 15.4 96.6 15.4 92.7 15.4 92.7 C 14.6 90.9 13.2 89.7 11.7 89.7 C 9.4 89.7 8.2 91.8 8.2 94.6 C 8.2 97.3 9.4 99.6 11.7 99.6 C 13.2 99.6 14.6 98.4 15.4 96.6 Z M 40.6 103.4 C 40.6 103.4 40.56 82.76 40.6 82.8 C 40.6 80.7 39.8 79.7 38.3 79.7 C 36.6 79.7 35.1 81.6 34.4 83.5 C 34.44 83.48 34.4 103.4 34.4 103.4 L 27.7 103.4 L 27.7 74.4 L 34.4 74.4 C 34.4 74.4 34.44 78.2 34.4 78.2 C 35.6 75.9 38.6 73.7 41.2 73.7 C 45.6 73.7 47.4 76.3 47.4 80.3 C 47.4 80.3 47.4 103.4 47.4 103.4 L 40.6 103.4 Z M 65.9 103.4 C 65.9 103.4 65.94 99.8 65.9 99.8 C 64.7 102.7 62.3 104.1 60.3 104.1 C 54.6 104.1 51.7 98.2 51.7 88.9 C 51.7 79.8 54.6 73.7 60.3 73.7 C 62.3 73.7 64.7 75 65.9 78 C 65.94 78.02 65.9 63.4 65.9 63.4 L 72.7 63.4 L 72.7 103.4 L 65.9 103.4 Z M 65.9 94.6 C 65.9 94.6 65.9 83.2 65.9 83.2 C 65.3 81.3 64 79.7 62.5 79.7 C 59.5 79.7 58.7 83.8 58.7 88.9 C 58.7 94 59.5 98.1 62.5 98.1 C 64 98.1 65.3 96.6 65.9 94.6 Z M 88.4 103.4 L 88.4 63.4 C 88.4 63.4 99.18 63.38 99.2 63.4 C 107 63.4 110.5 69.3 110.5 76 C 110.5 82.8 107 88.7 99.2 88.7 C 99.18 88.7 95.9 88.7 95.9 88.7 L 95.9 103.4 L 88.4 103.4 Z M 102.8 76 C 102.8 72.4 101.2 70 98.4 70 C 98.4 70.04 95.9 70 95.9 70 L 95.9 82 C 95.9 82 98.4 82.04 98.4 82 C 101.2 82 102.8 79.6 102.8 76 Z M 127.4 103.4 C 127.4 103.4 127.38 99.74 127.4 99.7 C 126.2 102.1 123.4 104.1 120.6 104.1 C 116.2 104.1 114.5 101.7 114.5 97.6 C 114.48 97.58 114.5 74.4 114.5 74.4 L 121.3 74.4 C 121.3 74.4 121.26 95.18 121.3 95.2 C 121.3 97.2 122 98.1 123.5 98.1 C 125.2 98.1 126.7 96.3 127.4 94.5 C 127.38 94.46 127.4 74.4 127.4 74.4 L 134.2 74.4 L 134.2 103.4 L 127.4 103.4 Z M 140.6 96.7 C 140.58 96.74 140.6 80.3 140.6 80.3 L 137.9 80.3 L 137.9 74.4 L 140.6 74.4 L 140.6 66.5 L 147.4 66.5 L 147.4 74.4 L 151 74.4 L 151 80.3 L 147.4 80.3 C 147.4 80.3 147.36 95.42 147.4 95.4 C 147.4 97.2 147.8 98.1 149 98.1 C 149.6 98.1 150.2 97.8 150.6 97.3 C 150.6 97.3 152 102.6 152 102.6 C 151 103.5 149.3 104.1 147.2 104.1 C 142.5 104.1 140.6 101.7 140.6 96.7 Z M 156.1 96.7 C 156.06 96.74 156.1 80.3 156.1 80.3 L 153.4 80.3 L 153.4 74.4 L 156.1 74.4 L 156.1 66.5 L 162.8 66.5 L 162.8 74.4 L 166.5 74.4 L 166.5 80.3 L 162.8 80.3 C 162.8 80.3 162.84 95.42 162.8 95.4 C 162.8 97.2 163.3 98.1 164.5 98.1 C 165.1 98.1 165.7 97.8 166.1 97.3 C 166.1 97.3 167.5 102.6 167.5 102.6 C 166.4 103.5 164.8 104.1 162.7 104.1 C 158 104.1 156.1 101.7 156.1 96.7 Z M 171.2 108.9 C 171.7 109 172.3 109.2 172.6 109.2 C 173.9 109.2 174.6 108.6 175 107.1 C 175.02 107.12 175.9 104.1 175.9 104.1 L 168 74.4 L 175.2 74.4 L 179.3 94.8 L 183.5 74.4 L 190.6 74.4 C 190.6 74.4 181.5 108.5 181.5 108.5 C 180.1 113.8 177.7 115.2 173.5 115.2 C 172.6 115.2 170.9 115 170.3 114.7 C 170.3 114.7 171.2 108.9 171.2 108.9 Z M 192.5 91.8 L 192.5 86 L 203.3 86 L 203.3 91.8 L 192.5 91.8 Z M 207 83.4 C 207 71.5 210.8 62.7 219.5 62.7 C 226 62.7 228.3 67.9 229.6 72.1 C 229.6 72.1 223.6 74.4 223.6 74.4 C 222.7 71.3 221.8 69.4 219.5 69.4 C 215.9 69.4 214.7 75.3 214.7 83.4 C 214.7 91.6 215.9 97.4 219.5 97.4 C 222 97.4 223.1 94.9 223.6 91.6 C 223.6 91.6 229.7 93.8 229.7 93.8 C 228.5 98.4 226.2 104.1 219.5 104.1 C 210.8 104.1 207 95.3 207 83.4 Z M 232.5 88.9 C 232.5 80.8 235.8 73.7 243.4 73.7 C 251 73.7 254.3 80.8 254.3 88.9 C 254.3 96.9 251 104.1 243.4 104.1 C 235.8 104.1 232.5 96.9 232.5 88.9 Z M 247.3 88.9 C 247.3 84 246.4 79.7 243.4 79.7 C 240.4 79.7 239.5 84 239.5 88.9 C 239.5 93.9 240.4 98.1 243.4 98.1 C 246.4 98.1 247.3 93.9 247.3 88.9 Z M 271.3 103.4 C 271.3 103.4 271.26 100.64 271.3 100.6 C 270 102.9 267.3 104.1 265.2 104.1 C 260.6 104.1 257.3 100.4 257.3 94.5 C 257.3 88.6 260.6 85 265.2 85 C 267.3 85 270.1 86.1 271.3 88.3 C 271.3 88.3 271.3 84.7 271.3 84.7 C 271.3 81.4 269.9 79.5 266.9 79.5 C 265 79.5 262.9 80.4 261 82.3 C 261 82.3 258.5 77.5 258.5 77.5 C 261.1 74.7 265.3 73.7 268.3 73.7 C 274.2 73.7 278 76.7 278 83.2 C 278.04 83.18 278 103.4 278 103.4 L 271.3 103.4 Z M 271.3 96.6 C 271.3 96.6 271.3 92.7 271.3 92.7 C 270.5 90.9 269.1 89.7 267.6 89.7 C 265.3 89.7 264.1 91.8 264.1 94.6 C 264.1 97.3 265.3 99.6 267.6 99.6 C 269.1 99.6 270.5 98.4 271.3 96.6 Z M 284.5 96.7 C 284.45 96.74 284.5 80.3 284.5 80.3 L 281.8 80.3 L 281.8 74.4 L 284.5 74.4 L 284.5 66.5 L 291.2 66.5 L 291.2 74.4 L 294.9 74.4 L 294.9 80.3 L 291.2 80.3 C 291.2 80.3 291.23 95.42 291.2 95.4 C 291.2 97.2 291.7 98.1 292.9 98.1 C 293.5 98.1 294.1 97.8 294.5 97.3 C 294.5 97.3 295.9 102.6 295.9 102.6 C 294.8 103.5 293.2 104.1 291.1 104.1 C 286.4 104.1 284.5 101.7 284.5 96.7 Z M 297.9 88.9 C 297.9 80.5 301.5 73.7 308.8 73.7 C 316.1 73.7 319.1 80.2 319.1 88.8 C 319.13 88.76 319.1 91.1 319.1 91.1 C 319.1 91.1 304.43 91.1 304.4 91.1 C 304.5 95.4 306.3 98.6 310.1 98.6 C 311.8 98.6 313.6 97.5 314.9 95.7 C 314.9 95.7 318.2 99.5 318.2 99.5 C 316 102.4 312.7 104.1 309.4 104.1 C 301.9 104.1 297.9 97.8 297.9 88.9 Z M 308.6 79.2 C 305.3 79.2 304.4 83.3 304.4 86.4 C 304.4 86.4 312.6 86.4 312.6 86.4 C 312.6 83.1 311.9 79.2 308.6 79.2 Z M 336.4 103.4 C 336.4 103.4 336.35 99.8 336.4 99.8 C 335.1 102.7 332.8 104.1 330.7 104.1 C 325 104.1 322.1 98.2 322.1 88.9 C 322.1 79.8 325 73.7 330.7 73.7 C 332.8 73.7 335.2 75 336.4 78 C 336.35 78.02 336.4 63.4 336.4 63.4 L 343.1 63.4 L 343.1 103.4 L 336.4 103.4 Z M 336.4 94.6 C 336.4 94.6 336.4 83.2 336.4 83.2 C 335.8 81.3 334.4 79.7 332.9 79.7 C 329.9 79.7 329.1 83.8 329.1 88.9 C 329.1 94 329.9 98.1 332.9 98.1 C 334.4 98.1 335.8 96.6 336.4 94.6 Z M 356.4 100.2 C 356.4 100.2 359.7 94.2 359.7 94.2 C 361.3 96.3 363.9 97.4 366.2 97.4 C 368.6 97.4 370.3 95.6 370.3 93 C 370.3 85.9 357.5 85.9 357.5 73.9 C 357.5 67.9 361.6 62.7 368.7 62.7 C 372.1 62.7 375.2 63.9 377.4 66 C 377.4 66 374.5 71.8 374.5 71.8 C 372.9 70.2 371 69.4 368.9 69.4 C 366.8 69.4 365.2 71.1 365.2 73.5 C 365.2 79.7 377.9 80.5 377.9 92.5 C 377.9 99.3 373.6 104.1 366.7 104.1 C 362.3 104.1 359 102.7 356.4 100.2 Z M 382.5 96.7 C 382.49 96.74 382.5 80.3 382.5 80.3 L 379.8 80.3 L 379.8 74.4 L 382.5 74.4 L 382.5 66.5 L 389.3 66.5 L 389.3 74.4 L 392.9 74.4 L 392.9 80.3 L 389.3 80.3 C 389.3 80.3 389.27 95.42 389.3 95.4 C 389.3 97.2 389.7 98.1 390.9 98.1 C 391.6 98.1 392.2 97.8 392.5 97.3 C 392.5 97.3 393.9 102.6 393.9 102.6 C 392.9 103.5 391.3 104.1 389.2 104.1 C 384.4 104.1 382.5 101.7 382.5 96.7 Z M 410 103.4 C 410 103.4 409.97 99.74 410 99.7 C 408.8 102.1 406 104.1 403.2 104.1 C 398.8 104.1 397.1 101.7 397.1 97.6 C 397.07 97.58 397.1 74.4 397.1 74.4 L 403.9 74.4 C 403.9 74.4 403.85 95.18 403.9 95.2 C 403.9 97.2 404.6 98.1 406.1 98.1 C 407.8 98.1 409.3 96.3 410 94.5 C 409.97 94.46 410 74.4 410 74.4 L 416.8 74.4 L 416.8 103.4 L 410 103.4 Z M 438.2 103.4 L 438.2 80.3 L 435.5 80.3 L 435.5 74.4 L 438.2 74.4 C 438.2 74.4 438.17 71.42 438.2 71.4 C 438.2 65.9 440.9 62.8 445.3 62.8 C 447.1 62.8 448.2 63 449.5 63.6 C 449.5 63.6 448.3 69 448.3 69 C 448.1 68.8 447.7 68.7 447.2 68.7 C 445.9 68.7 445 69.6 445 71.4 C 444.95 71.42 445 74.4 445 74.4 L 448.6 74.4 L 448.6 80.3 L 445 80.3 L 445 103.4 L 438.2 103.4 Z M 451.4 66.9 C 451.4 64.6 453.4 62.8 455.6 62.8 C 457.9 62.8 459.7 64.6 459.7 66.9 C 459.7 69.2 457.9 71 455.6 71 C 453.4 71 451.4 69.2 451.4 66.9 Z M 452.2 103.4 L 452.2 74.4 L 459 74.4 L 459 103.4 L 452.2 103.4 Z M 423.2 103.4 L 423.2 80.3 L 420.5 80.3 L 420.5 74.4 L 423.2 74.4 C 423.2 74.4 423.17 71.42 423.2 71.4 C 423.2 65.9 425.9 62.8 431 62.8 C 432.9 62.8 434.8 63.3 436 64.4 C 436 64.4 434.3 69.6 434.3 69.6 C 433.7 69 433.1 68.7 432.3 68.7 C 430.7 68.7 430 69.7 430 71.4 C 429.95 71.42 430 74.4 430 74.4 L 433.6 74.4 L 433.6 80.3 L 430 80.3 L 430 103.4 L 423.2 103.4 Z M 477.4 103.4 C 477.4 103.4 477.35 82.76 477.4 82.8 C 477.4 80.7 476.6 79.7 475.1 79.7 C 473.4 79.7 471.9 81.6 471.2 83.5 C 471.23 83.48 471.2 103.4 471.2 103.4 L 464.5 103.4 L 464.5 74.4 L 471.2 74.4 C 471.2 74.4 471.23 78.2 471.2 78.2 C 472.4 75.9 475.4 73.7 478 73.7 C 482.4 73.7 484.2 76.3 484.2 80.3 C 484.19 80.3 484.2 103.4 484.2 103.4 L 477.4 103.4 Z M 489.6 112 C 489.6 112 491.9 106.5 491.9 106.5 C 493.6 108.2 495.6 109.3 497.8 109.3 C 500.7 109.3 502.7 107.4 502.7 102.9 C 502.7 102.9 502.7 98.7 502.7 98.7 C 501.5 101.7 499.1 103.2 497.1 103.2 C 491.4 103.2 488.5 97.8 488.5 88.5 C 488.5 79.3 491.4 73.7 497.1 73.7 C 499.1 73.7 501.5 75 502.7 78 C 502.73 78.02 502.7 74.4 502.7 74.4 L 509.5 74.4 C 509.5 74.4 509.51 102.44 509.5 102.4 C 509.5 112.4 504.2 115.2 498.5 115.2 C 494.9 115.2 492 114.3 489.6 112 Z M 502.7 93.7 C 502.7 93.7 502.7 83.2 502.7 83.2 C 502.1 81.3 500.8 79.7 499.3 79.7 C 496.3 79.7 495.5 83.4 495.5 88.5 C 495.5 93.6 496.3 97.2 499.3 97.2 C 500.8 97.2 502.1 95.6 502.7 93.7 Z " stroke="none" fill="#e9e8e8"/>  </g>  <g id="Polygon202814">    <path d="M 7.1 47.4 L 7.1 14 L 1.1 14 L 1.1 7.4 L 20.8 7.4 L 20.8 14 L 14.7 14 L 14.7 47.4 L 7.1 47.4 Z M 34.4 47.4 C 34.4 47.4 34.44 44.64 34.4 44.6 C 33.2 46.9 30.5 48.1 28.4 48.1 C 23.8 48.1 20.5 44.4 20.5 38.5 C 20.5 32.6 23.8 29 28.4 29 C 30.5 29 33.2 30.1 34.4 32.3 C 34.4 32.3 34.4 28.7 34.4 28.7 C 34.4 25.4 33.1 23.5 30.1 23.5 C 28.1 23.5 26.1 24.4 24.2 26.3 C 24.2 26.3 21.7 21.5 21.7 21.5 C 24.3 18.7 28.4 17.7 31.4 17.7 C 37.4 17.7 41.2 20.7 41.2 27.2 C 41.22 27.18 41.2 47.4 41.2 47.4 L 34.4 47.4 Z M 34.4 40.6 C 34.4 40.6 34.4 36.7 34.4 36.7 C 33.7 34.9 32.3 33.7 30.8 33.7 C 28.4 33.7 27.3 35.8 27.3 38.6 C 27.3 41.3 28.4 43.6 30.8 43.6 C 32.3 43.6 33.7 42.4 34.4 40.6 Z M 46.7 47.4 L 46.7 7.4 L 53.5 7.4 L 53.5 47.4 L 46.7 47.4 Z M 57.8 32.9 C 57.8 24.1 61.9 17.7 68.9 17.7 C 72.1 17.7 74.5 18.9 75.9 20.3 C 75.9 20.3 73.7 25.6 73.7 25.6 C 72.5 24.3 71.5 23.7 70.1 23.7 C 66.5 23.7 64.8 27.8 64.8 32.9 C 64.8 37.9 66.5 42.1 70.1 42.1 C 71.5 42.1 72.5 41.5 73.7 40.3 C 73.7 40.3 75.9 45.5 75.9 45.5 C 74.5 47 72.1 48.1 68.9 48.1 C 61.9 48.1 57.8 41.7 57.8 32.9 Z M 92.5 47.4 C 92.5 47.4 92.52 43.74 92.5 43.7 C 91.4 46.1 88.6 48.1 85.7 48.1 C 81.4 48.1 79.6 45.7 79.6 41.6 C 79.62 41.58 79.6 18.4 79.6 18.4 L 86.4 18.4 C 86.4 18.4 86.4 39.18 86.4 39.2 C 86.4 41.2 87.1 42.1 88.6 42.1 C 90.4 42.1 91.9 40.3 92.5 38.5 C 92.52 38.46 92.5 18.4 92.5 18.4 L 99.4 18.4 L 99.4 47.4 L 92.5 47.4 Z M 130.7 47.4 C 130.7 47.4 130.68 26.76 130.7 26.8 C 130.7 24.6 129.9 23.7 128.5 23.7 C 126.6 23.7 125.2 25.7 124.6 27.5 C 124.56 27.48 124.6 47.4 124.6 47.4 L 117.7 47.4 C 117.7 47.4 117.72 26.76 117.7 26.8 C 117.7 24.8 117.1 23.7 115.5 23.7 C 113.7 23.7 112.2 25.7 111.6 27.5 C 111.6 27.48 111.6 47.4 111.6 47.4 L 104.8 47.4 L 104.8 18.4 L 111.6 18.4 C 111.6 18.4 111.6 22.2 111.6 22.2 C 112.6 20 115.6 17.7 118.4 17.7 C 121.4 17.7 123.8 19.2 124.3 22.5 C 125.4 20.1 128.5 17.7 131.3 17.7 C 134.9 17.7 137.5 19.6 137.5 24.3 C 137.46 24.3 137.5 47.4 137.5 47.4 L 130.7 47.4 Z M 153.1 47.4 L 153.1 7.4 C 153.1 7.4 163.92 7.38 163.9 7.4 C 171.7 7.4 175.2 13.3 175.2 20 C 175.2 26.8 171.7 32.7 163.9 32.7 C 163.92 32.7 160.7 32.7 160.7 32.7 L 160.7 47.4 L 153.1 47.4 Z M 167.5 20 C 167.5 16.4 166 14 163.1 14 C 163.14 14.04 160.7 14 160.7 14 L 160.7 26 C 160.7 26 163.14 26.04 163.1 26 C 166 26 167.5 23.6 167.5 20 Z M 190.9 47.4 C 190.9 47.4 190.92 44.64 190.9 44.6 C 189.7 46.9 187 48.1 184.9 48.1 C 180.3 48.1 177 44.4 177 38.5 C 177 32.6 180.3 29 184.9 29 C 187 29 189.7 30.1 190.9 32.3 C 190.9 32.3 190.9 28.7 190.9 28.7 C 190.9 25.4 189.6 23.5 186.5 23.5 C 184.6 23.5 182.6 24.4 180.7 26.3 C 180.7 26.3 178.1 21.5 178.1 21.5 C 180.8 18.7 184.9 17.7 187.9 17.7 C 193.9 17.7 197.7 20.7 197.7 27.2 C 197.7 27.18 197.7 47.4 197.7 47.4 L 190.9 47.4 Z M 190.9 40.6 C 190.9 40.6 190.9 36.7 190.9 36.7 C 190.2 34.9 188.8 33.7 187.3 33.7 C 184.9 33.7 183.8 35.8 183.8 38.6 C 183.8 41.3 184.9 43.6 187.3 43.6 C 188.8 43.6 190.2 42.4 190.9 40.6 Z M 201.2 44.3 C 201.2 44.3 204 39.7 204 39.7 C 205.6 41.4 207.7 42.8 210 42.8 C 212.2 42.8 213.7 41.6 213.7 39.7 C 213.7 34.9 202.2 36 202.2 25.9 C 202.2 21.5 205.5 17.7 211.4 17.7 C 214.7 17.7 217.8 19 220 21.1 C 220 21.1 217.2 25.7 217.2 25.7 C 216.1 24.3 214 23 211.6 23 C 209.8 23 208.5 24.2 208.5 25.7 C 208.5 30.1 220.1 29.3 220.1 39.5 C 220.1 44.6 216.1 48.1 210.6 48.1 C 206.3 48.1 203.1 46.6 201.2 44.3 Z M 224.9 40.7 C 224.88 40.74 224.9 24.3 224.9 24.3 L 222.2 24.3 L 222.2 18.4 L 224.9 18.4 L 224.9 10.5 L 231.7 10.5 L 231.7 18.4 L 235.3 18.4 L 235.3 24.3 L 231.7 24.3 C 231.7 24.3 231.66 39.42 231.7 39.4 C 231.7 41.2 232.1 42.1 233.3 42.1 C 233.9 42.1 234.5 41.8 234.9 41.3 C 234.9 41.3 236.3 46.6 236.3 46.6 C 235.3 47.5 233.6 48.1 231.5 48.1 C 226.8 48.1 224.9 45.7 224.9 40.7 Z M 238.3 32.9 C 238.3 24.5 241.9 17.7 249.2 17.7 C 256.5 17.7 259.6 24.2 259.6 32.8 C 259.56 32.76 259.6 35.1 259.6 35.1 C 259.6 35.1 244.86 35.1 244.9 35.1 C 244.9 39.4 246.7 42.6 250.6 42.6 C 252.2 42.6 254 41.5 255.4 39.7 C 255.4 39.7 258.7 43.5 258.7 43.5 C 256.4 46.4 253.1 48.1 249.8 48.1 C 242.3 48.1 238.3 41.8 238.3 32.9 Z M 249 23.2 C 245.7 23.2 244.9 27.3 244.9 30.4 C 244.9 30.4 253 30.4 253 30.4 C 253 27.1 252.3 23.2 249 23.2 Z M 273.8 47.4 L 273.8 7.4 C 273.8 7.4 285.9 7.38 285.9 7.4 C 292.6 7.4 295.5 12.1 295.5 17.6 C 295.5 22.6 293.1 25.7 289.6 26.8 C 293.4 27.4 296 31.7 296 36.6 C 296 42.7 293.2 47.4 286.3 47.4 C 286.32 47.4 273.8 47.4 273.8 47.4 Z M 287.8 18.9 C 287.8 16 286.7 14 283.9 14 C 283.92 14.04 281.4 14 281.4 14 L 281.4 23.7 C 281.4 23.7 283.92 23.7 283.9 23.7 C 286.7 23.7 287.8 21.8 287.8 18.9 Z M 288.3 35.5 C 288.3 32.6 287 30.4 284.2 30.4 C 284.16 30.36 281.4 30.4 281.4 30.4 L 281.4 40.7 C 281.4 40.7 284.16 40.74 284.2 40.7 C 287 40.7 288.3 38.9 288.3 35.5 Z M 313.2 47.4 C 313.2 47.4 313.2 44.64 313.2 44.6 C 311.9 46.9 309.2 48.1 307.1 48.1 C 302.6 48.1 299.3 44.4 299.3 38.5 C 299.3 32.6 302.6 29 307.1 29 C 309.2 29 312 30.1 313.2 32.3 C 313.2 32.3 313.2 28.7 313.2 28.7 C 313.2 25.4 311.9 23.5 308.8 23.5 C 306.9 23.5 304.9 24.4 302.9 26.3 C 302.9 26.3 300.4 21.5 300.4 21.5 C 303.1 18.7 307.2 17.7 310.2 17.7 C 316.1 17.7 320 20.7 320 27.2 C 319.98 27.18 320 47.4 320 47.4 L 313.2 47.4 Z M 313.2 40.6 C 313.2 40.6 313.2 36.7 313.2 36.7 C 312.5 34.9 311 33.7 309.5 33.7 C 307.2 33.7 306.1 35.8 306.1 38.6 C 306.1 41.3 307.2 43.6 309.5 43.6 C 311 43.6 312.5 42.4 313.2 40.6 Z M 326.4 40.7 C 326.4 40.74 326.4 24.3 326.4 24.3 L 323.7 24.3 L 323.7 18.4 L 326.4 18.4 L 326.4 10.5 L 333.2 10.5 L 333.2 18.4 L 336.8 18.4 L 336.8 24.3 L 333.2 24.3 C 333.2 24.3 333.18 39.42 333.2 39.4 C 333.2 41.2 333.6 42.1 334.8 42.1 C 335.5 42.1 336.1 41.8 336.4 41.3 C 336.4 41.3 337.8 46.6 337.8 46.6 C 336.8 47.5 335.2 48.1 333.1 48.1 C 328.3 48.1 326.4 45.7 326.4 40.7 Z M 341.9 40.7 C 341.88 40.74 341.9 24.3 341.9 24.3 L 339.2 24.3 L 339.2 18.4 L 341.9 18.4 L 341.9 10.5 L 348.7 10.5 L 348.7 18.4 L 352.3 18.4 L 352.3 24.3 L 348.7 24.3 C 348.7 24.3 348.66 39.42 348.7 39.4 C 348.7 41.2 349.1 42.1 350.3 42.1 C 350.9 42.1 351.5 41.8 351.9 41.3 C 351.9 41.3 353.3 46.6 353.3 46.6 C 352.3 47.5 350.6 48.1 348.5 48.1 C 343.8 48.1 341.9 45.7 341.9 40.7 Z M 355.3 32.9 C 355.3 24.5 358.9 17.7 366.2 17.7 C 373.5 17.7 376.6 24.2 376.6 32.8 C 376.55 32.76 376.6 35.1 376.6 35.1 C 376.6 35.1 361.85 35.1 361.9 35.1 C 361.9 39.4 363.7 42.6 367.6 42.6 C 369.2 42.6 371 41.5 372.4 39.7 C 372.4 39.7 375.7 43.5 375.7 43.5 C 373.4 46.4 370.1 48.1 366.8 48.1 C 359.3 48.1 355.3 41.8 355.3 32.9 Z M 366 23.2 C 362.7 23.2 361.9 27.3 361.9 30.4 C 361.9 30.4 370 30.4 370 30.4 C 370 27.1 369.3 23.2 366 23.2 Z M 380.7 47.4 L 380.7 18.4 L 387.5 18.4 C 387.5 18.4 387.47 22.44 387.5 22.4 C 388.6 19.8 391.4 17.7 394 17.7 C 394 17.7 394 24.4 394 24.4 C 393.5 24.2 393.1 24.2 392.6 24.2 C 390.7 24.2 388.6 25.8 387.5 27.9 C 387.47 27.9 387.5 47.4 387.5 47.4 L 380.7 47.4 Z M 396.4 32.9 C 396.4 24.5 400 17.7 407.2 17.7 C 414.5 17.7 417.6 24.2 417.6 32.8 C 417.59 32.76 417.6 35.1 417.6 35.1 C 417.6 35.1 402.89 35.1 402.9 35.1 C 403 39.4 404.8 42.6 408.6 42.6 C 410.2 42.6 412.1 41.5 413.4 39.7 C 413.4 39.7 416.7 43.5 416.7 43.5 C 414.4 46.4 411.2 48.1 407.9 48.1 C 400.3 48.1 396.4 41.8 396.4 32.9 Z M 407 23.2 C 403.7 23.2 402.9 27.3 402.9 30.4 C 402.9 30.4 411.1 30.4 411.1 30.4 C 411.1 27.1 410.3 23.2 407 23.2 Z M 434.8 47.4 C 434.8 47.4 434.81 43.8 434.8 43.8 C 433.6 46.7 431.2 48.1 429.2 48.1 C 423.5 48.1 420.6 42.2 420.6 32.9 C 420.6 23.8 423.5 17.7 429.2 17.7 C 431.2 17.7 433.6 19 434.8 22 C 434.81 22.02 434.8 7.4 434.8 7.4 L 441.6 7.4 L 441.6 47.4 L 434.8 47.4 Z M 434.8 38.6 C 434.8 38.6 434.8 27.2 434.8 27.2 C 434.2 25.3 432.8 23.7 431.4 23.7 C 428.4 23.7 427.6 27.8 427.6 32.9 C 427.6 38 428.4 42.1 431.4 42.1 C 432.8 42.1 434.2 40.6 434.8 38.6 Z M 471.6 47.4 L 467.3 32.7 L 464.8 32.7 L 464.8 47.4 L 457.3 47.4 L 457.3 7.4 C 457.3 7.4 468.41 7.38 468.4 7.4 C 474.8 7.4 479.3 12.5 479.3 19.8 C 479.3 26.6 476.5 29.6 474.2 30.8 C 474.17 30.84 479.7 47.4 479.7 47.4 L 471.6 47.4 Z M 471.7 20 C 471.7 16.4 470.1 14 467.3 14 C 467.27 14.04 464.8 14 464.8 14 L 464.8 26 C 464.8 26 467.27 26.04 467.3 26 C 470.1 26 471.7 23.6 471.7 20 Z M 496.5 47.4 C 496.5 47.4 496.49 44.64 496.5 44.6 C 495.2 46.9 492.5 48.1 490.4 48.1 C 485.9 48.1 482.6 44.4 482.6 38.5 C 482.6 32.6 485.9 29 490.4 29 C 492.5 29 495.3 30.1 496.5 32.3 C 496.5 32.3 496.5 28.7 496.5 28.7 C 496.5 25.4 495.2 23.5 492.1 23.5 C 490.2 23.5 488.2 24.4 486.2 26.3 C 486.2 26.3 483.7 21.5 483.7 21.5 C 486.4 18.7 490.5 17.7 493.5 17.7 C 499.4 17.7 503.3 20.7 503.3 27.2 C 503.27 27.18 503.3 47.4 503.3 47.4 L 496.5 47.4 Z M 496.5 40.6 C 496.5 40.6 496.5 36.7 496.5 36.7 C 495.8 34.9 494.3 33.7 492.8 33.7 C 490.5 33.7 489.4 35.8 489.4 38.6 C 489.4 41.3 490.5 43.6 492.8 43.6 C 494.3 43.6 495.8 42.4 496.5 40.6 Z M 508.7 56 C 508.7 56 511 50.5 511 50.5 C 512.7 52.2 514.7 53.3 517 53.3 C 519.8 53.3 521.9 51.4 521.9 46.9 C 521.9 46.9 521.9 42.7 521.9 42.7 C 520.6 45.7 518.3 47.2 516.2 47.2 C 510.5 47.2 507.7 41.8 507.7 32.5 C 507.7 23.3 510.5 17.7 516.2 17.7 C 518.3 17.7 520.7 19 521.9 22 C 521.87 22.02 521.9 18.4 521.9 18.4 L 528.7 18.4 C 528.7 18.4 528.65 46.44 528.7 46.4 C 528.7 56.4 523.3 59.2 517.7 59.2 C 514.1 59.2 511.1 58.3 508.7 56 Z M 521.9 37.7 C 521.9 37.7 521.9 27.2 521.9 27.2 C 521.3 25.3 519.9 23.7 518.5 23.7 C 515.5 23.7 514.6 27.4 514.6 32.5 C 514.6 37.6 515.5 41.2 518.5 41.2 C 519.9 41.2 521.3 39.6 521.9 37.7 Z " stroke="none" fill="#e9e8e8"/>  </g></svg>