<?xml version="1.0" standalone="no"?><!DOCTYPE svg PUBLIC "-//W3C//DTD SVG 1.1//EN" "http://www.w3.org/Graphics/SVG/1.1/DTD/svg11.dtd"><svg xmlns="http://www.w3.org/2000/svg" version="1.1" width="651px" height="85.6px" viewBox="0 0 651 85.6">  <desc>Cardboard and Foam Carapace</desc>  <defs/>  <g id="Polygon190720">    <path d="M 1.9 27.4 C 1.9 15.5 5.6 6.7 14.4 6.7 C 20.9 6.7 23.2 11.9 24.4 16.1 C 24.4 16.1 18.4 18.4 18.4 18.4 C 17.6 15.3 16.6 13.4 14.4 13.4 C 10.8 13.4 9.6 19.3 9.6 27.4 C 9.6 35.6 10.8 41.4 14.4 41.4 C 16.9 41.4 17.9 38.9 18.5 35.6 C 18.5 35.6 24.5 37.8 24.5 37.8 C 23.4 42.4 21.1 48.1 14.4 48.1 C 5.6 48.1 1.9 39.3 1.9 27.4 Z M 41.1 47.4 C 41.1 47.4 41.1 44.64 41.1 44.6 C 39.8 46.9 37.1 48.1 35 48.1 C 30.5 48.1 27.2 44.4 27.2 38.5 C 27.2 32.6 30.5 29 35 29 C 37.1 29 39.9 30.1 41.1 32.3 C 41.1 32.3 41.1 28.7 41.1 28.7 C 41.1 25.4 39.8 23.5 36.7 23.5 C 34.8 23.5 32.8 24.4 30.8 26.3 C 30.8 26.3 28.3 21.5 28.3 21.5 C 31 18.7 35.1 17.7 38.1 17.7 C 44 17.7 47.9 20.7 47.9 27.2 C 47.88 27.18 47.9 47.4 47.9 47.4 L 41.1 47.4 Z M 41.1 40.6 C 41.1 40.6 41.1 36.7 41.1 36.7 C 40.4 34.9 38.9 33.7 37.4 33.7 C 35.1 33.7 34 35.8 34 38.6 C 34 41.3 35.1 43.6 37.4 43.6 C 38.9 43.6 40.4 42.4 41.1 40.6 Z M 53.4 47.4 L 53.4 18.4 L 60.2 18.4 C 60.2 18.4 60.18 22.44 60.2 22.4 C 61.3 19.8 64.1 17.7 66.7 17.7 C 66.7 17.7 66.7 24.4 66.7 24.4 C 66.2 24.2 65.8 24.2 65.3 24.2 C 63.4 24.2 61.3 25.8 60.2 27.9 C 60.18 27.9 60.2 47.4 60.2 47.4 L 53.4 47.4 Z M 83.3 47.4 C 83.3 47.4 83.28 43.8 83.3 43.8 C 82 46.7 79.7 48.1 77.6 48.1 C 71.9 48.1 69.1 42.2 69.1 32.9 C 69.1 23.8 71.9 17.7 77.6 17.7 C 79.7 17.7 82.1 19 83.3 22 C 83.28 22.02 83.3 7.4 83.3 7.4 L 90.1 7.4 L 90.1 47.4 L 83.3 47.4 Z M 83.3 38.6 C 83.3 38.6 83.3 27.2 83.3 27.2 C 82.7 25.3 81.3 23.7 79.9 23.7 C 76.9 23.7 76 27.8 76 32.9 C 76 38 76.9 42.1 79.9 42.1 C 81.3 42.1 82.7 40.6 83.3 38.6 Z M 105.8 42.1 C 108.8 42.1 109.6 38 109.6 32.9 C 109.6 27.8 108.8 23.7 105.8 23.7 C 104.3 23.7 103 25.3 102.4 27.2 C 102.4 27.2 102.4 38.6 102.4 38.6 C 103 40.6 104.3 42.1 105.8 42.1 Z M 95.6 47.4 L 95.6 7.4 L 102.4 7.4 C 102.4 7.4 102.36 22.02 102.4 22 C 103.6 19 106 17.7 108 17.7 C 113.7 17.7 116.6 23.8 116.6 32.9 C 116.6 42.2 113.7 48.1 108 48.1 C 106 48.1 103.6 46.7 102.4 43.8 C 102.36 43.8 102.4 47.4 102.4 47.4 L 95.6 47.4 Z M 119.8 32.9 C 119.8 24.8 123.1 17.7 130.7 17.7 C 138.3 17.7 141.6 24.8 141.6 32.9 C 141.6 40.9 138.3 48.1 130.7 48.1 C 123.1 48.1 119.8 40.9 119.8 32.9 Z M 134.6 32.9 C 134.6 28 133.7 23.7 130.7 23.7 C 127.7 23.7 126.8 28 126.8 32.9 C 126.8 37.9 127.7 42.1 130.7 42.1 C 133.7 42.1 134.6 37.9 134.6 32.9 Z M 158.6 47.4 C 158.6 47.4 158.58 44.64 158.6 44.6 C 157.3 46.9 154.6 48.1 152.5 48.1 C 148 48.1 144.7 44.4 144.7 38.5 C 144.7 32.6 148 29 152.5 29 C 154.6 29 157.4 30.1 158.6 32.3 C 158.6 32.3 158.6 28.7 158.6 28.7 C 158.6 25.4 157.3 23.5 154.2 23.5 C 152.3 23.5 150.2 24.4 148.3 26.3 C 148.3 26.3 145.8 21.5 145.8 21.5 C 148.4 18.7 152.6 17.7 155.6 17.7 C 161.5 17.7 165.4 20.7 165.4 27.2 C 165.36 27.18 165.4 47.4 165.4 47.4 L 158.6 47.4 Z M 158.6 40.6 C 158.6 40.6 158.6 36.7 158.6 36.7 C 157.9 34.9 156.4 33.7 154.9 33.7 C 152.6 33.7 151.4 35.8 151.4 38.6 C 151.4 41.3 152.6 43.6 154.9 43.6 C 156.4 43.6 157.9 42.4 158.6 40.6 Z M 170.9 47.4 L 170.9 18.4 L 177.7 18.4 C 177.7 18.4 177.66 22.44 177.7 22.4 C 178.8 19.8 181.6 17.7 184.1 17.7 C 184.1 17.7 184.1 24.4 184.1 24.4 C 183.7 24.2 183.2 24.2 182.8 24.2 C 180.8 24.2 178.8 25.8 177.7 27.9 C 177.66 27.9 177.7 47.4 177.7 47.4 L 170.9 47.4 Z M 200.8 47.4 C 200.8 47.4 200.76 43.8 200.8 43.8 C 199.5 46.7 197.2 48.1 195.1 48.1 C 189.4 48.1 186.5 42.2 186.5 32.9 C 186.5 23.8 189.4 17.7 195.1 17.7 C 197.2 17.7 199.6 19 200.8 22 C 200.76 22.02 200.8 7.4 200.8 7.4 L 207.5 7.4 L 207.5 47.4 L 200.8 47.4 Z M 200.8 38.6 C 200.8 38.6 200.8 27.2 200.8 27.2 C 200.2 25.3 198.8 23.7 197.3 23.7 C 194.3 23.7 193.5 27.8 193.5 32.9 C 193.5 38 194.3 42.1 197.3 42.1 C 198.8 42.1 200.2 40.6 200.8 38.6 Z M 235.4 47.4 C 235.4 47.4 235.44 44.64 235.4 44.6 C 234.2 46.9 231.5 48.1 229.4 48.1 C 224.8 48.1 221.5 44.4 221.5 38.5 C 221.5 32.6 224.8 29 229.4 29 C 231.5 29 234.2 30.1 235.4 32.3 C 235.4 32.3 235.4 28.7 235.4 28.7 C 235.4 25.4 234.1 23.5 231.1 23.5 C 229.1 23.5 227.1 24.4 225.2 26.3 C 225.2 26.3 222.7 21.5 222.7 21.5 C 225.3 18.7 229.4 17.7 232.4 17.7 C 238.4 17.7 242.2 20.7 242.2 27.2 C 242.22 27.18 242.2 47.4 242.2 47.4 L 235.4 47.4 Z M 235.4 40.6 C 235.4 40.6 235.4 36.7 235.4 36.7 C 234.7 34.9 233.3 33.7 231.8 33.7 C 229.4 33.7 228.3 35.8 228.3 38.6 C 228.3 41.3 229.4 43.6 231.8 43.6 C 233.3 43.6 234.7 42.4 235.4 40.6 Z M 260.6 47.4 C 260.6 47.4 260.63 26.76 260.6 26.8 C 260.6 24.7 259.9 23.7 258.4 23.7 C 256.7 23.7 255.2 25.6 254.5 27.5 C 254.51 27.48 254.5 47.4 254.5 47.4 L 247.7 47.4 L 247.7 18.4 L 254.5 18.4 C 254.5 18.4 254.51 22.2 254.5 22.2 C 255.7 19.9 258.7 17.7 261.3 17.7 C 265.7 17.7 267.5 20.3 267.5 24.3 C 267.47 24.3 267.5 47.4 267.5 47.4 L 260.6 47.4 Z M 286 47.4 C 286 47.4 286.01 43.8 286 43.8 C 284.8 46.7 282.4 48.1 280.4 48.1 C 274.7 48.1 271.8 42.2 271.8 32.9 C 271.8 23.8 274.7 17.7 280.4 17.7 C 282.4 17.7 284.8 19 286 22 C 286.01 22.02 286 7.4 286 7.4 L 292.8 7.4 L 292.8 47.4 L 286 47.4 Z M 286 38.6 C 286 38.6 286 27.2 286 27.2 C 285.4 25.3 284 23.7 282.6 23.7 C 279.6 23.7 278.8 27.8 278.8 32.9 C 278.8 38 279.6 42.1 282.6 42.1 C 284 42.1 285.4 40.6 286 38.6 Z M 308.5 47.4 L 308.5 7.4 L 326 7.4 L 326 14 L 316 14 L 316 23.7 L 325.6 23.7 L 325.6 30.4 L 316 30.4 L 316 47.4 L 308.5 47.4 Z M 329.5 32.9 C 329.5 24.8 332.8 17.7 340.4 17.7 C 348 17.7 351.3 24.8 351.3 32.9 C 351.3 40.9 348 48.1 340.4 48.1 C 332.8 48.1 329.5 40.9 329.5 32.9 Z M 344.3 32.9 C 344.3 28 343.4 23.7 340.4 23.7 C 337.4 23.7 336.5 28 336.5 32.9 C 336.5 37.9 337.4 42.1 340.4 42.1 C 343.4 42.1 344.3 37.9 344.3 32.9 Z M 368.3 47.4 C 368.3 47.4 368.27 44.64 368.3 44.6 C 367 46.9 364.3 48.1 362.2 48.1 C 357.7 48.1 354.4 44.4 354.4 38.5 C 354.4 32.6 357.7 29 362.2 29 C 364.3 29 367.1 30.1 368.3 32.3 C 368.3 32.3 368.3 28.7 368.3 28.7 C 368.3 25.4 367 23.5 363.9 23.5 C 362 23.5 359.9 24.4 358 26.3 C 358 26.3 355.5 21.5 355.5 21.5 C 358.1 18.7 362.3 17.7 365.3 17.7 C 371.2 17.7 375.1 20.7 375.1 27.2 C 375.05 27.18 375.1 47.4 375.1 47.4 L 368.3 47.4 Z M 368.3 40.6 C 368.3 40.6 368.3 36.7 368.3 36.7 C 367.6 34.9 366.1 33.7 364.6 33.7 C 362.3 33.7 361.1 35.8 361.1 38.6 C 361.1 41.3 362.3 43.6 364.6 43.6 C 366.1 43.6 367.6 42.4 368.3 40.6 Z M 406.4 47.4 C 406.4 47.4 406.43 26.76 406.4 26.8 C 406.4 24.6 405.7 23.7 404.2 23.7 C 402.4 23.7 400.9 25.7 400.3 27.5 C 400.31 27.48 400.3 47.4 400.3 47.4 L 393.5 47.4 C 393.5 47.4 393.47 26.76 393.5 26.8 C 393.5 24.8 392.8 23.7 391.3 23.7 C 389.5 23.7 388 25.7 387.4 27.5 C 387.35 27.48 387.4 47.4 387.4 47.4 L 380.6 47.4 L 380.6 18.4 L 387.4 18.4 C 387.4 18.4 387.35 22.2 387.4 22.2 C 388.4 20 391.4 17.7 394.1 17.7 C 397.2 17.7 399.6 19.2 400.1 22.5 C 401.2 20.1 404.2 17.7 407.1 17.7 C 410.7 17.7 413.2 19.6 413.2 24.3 C 413.21 24.3 413.2 47.4 413.2 47.4 L 406.4 47.4 Z M 427.6 27.4 C 427.6 15.5 431.4 6.7 440.2 6.7 C 446.6 6.7 448.9 11.9 450.2 16.1 C 450.2 16.1 444.2 18.4 444.2 18.4 C 443.3 15.3 442.4 13.4 440.2 13.4 C 436.6 13.4 435.4 19.3 435.4 27.4 C 435.4 35.6 436.6 41.4 440.2 41.4 C 442.6 41.4 443.7 38.9 444.2 35.6 C 444.2 35.6 450.3 37.8 450.3 37.8 C 449.2 42.4 446.8 48.1 440.2 48.1 C 431.4 48.1 427.6 39.3 427.6 27.4 Z M 466.9 47.4 C 466.9 47.4 466.85 44.64 466.9 44.6 C 465.6 46.9 462.9 48.1 460.8 48.1 C 456.2 48.1 452.9 44.4 452.9 38.5 C 452.9 32.6 456.2 29 460.8 29 C 462.9 29 465.7 30.1 466.9 32.3 C 466.9 32.3 466.9 28.7 466.9 28.7 C 466.9 25.4 465.5 23.5 462.5 23.5 C 460.6 23.5 458.5 24.4 456.6 26.3 C 456.6 26.3 454.1 21.5 454.1 21.5 C 456.7 18.7 460.9 17.7 463.9 17.7 C 469.8 17.7 473.6 20.7 473.6 27.2 C 473.63 27.18 473.6 47.4 473.6 47.4 L 466.9 47.4 Z M 466.9 40.6 C 466.9 40.6 466.9 36.7 466.9 36.7 C 466.1 34.9 464.7 33.7 463.2 33.7 C 460.9 33.7 459.7 35.8 459.7 38.6 C 459.7 41.3 460.9 43.6 463.2 43.6 C 464.7 43.6 466.1 42.4 466.9 40.6 Z M 479.2 47.4 L 479.2 18.4 L 485.9 18.4 C 485.9 18.4 485.93 22.44 485.9 22.4 C 487.1 19.8 489.9 17.7 492.4 17.7 C 492.4 17.7 492.4 24.4 492.4 24.4 C 492 24.2 491.5 24.2 491.1 24.2 C 489.1 24.2 487.1 25.8 485.9 27.9 C 485.93 27.9 485.9 47.4 485.9 47.4 L 479.2 47.4 Z M 508.5 47.4 C 508.5 47.4 508.55 44.64 508.5 44.6 C 507.3 46.9 504.6 48.1 502.5 48.1 C 497.9 48.1 494.6 44.4 494.6 38.5 C 494.6 32.6 497.9 29 502.5 29 C 504.6 29 507.4 30.1 508.5 32.3 C 508.5 32.3 508.5 28.7 508.5 28.7 C 508.5 25.4 507.2 23.5 504.2 23.5 C 502.3 23.5 500.2 24.4 498.3 26.3 C 498.3 26.3 495.8 21.5 495.8 21.5 C 498.4 18.7 502.5 17.7 505.5 17.7 C 511.5 17.7 515.3 20.7 515.3 27.2 C 515.33 27.18 515.3 47.4 515.3 47.4 L 508.5 47.4 Z M 508.5 40.6 C 508.5 40.6 508.5 36.7 508.5 36.7 C 507.8 34.9 506.4 33.7 504.9 33.7 C 502.5 33.7 501.4 35.8 501.4 38.6 C 501.4 41.3 502.5 43.6 504.9 43.6 C 506.4 43.6 507.8 42.4 508.5 40.6 Z M 527.6 43.8 C 527.63 43.8 527.6 58.4 527.6 58.4 L 520.8 58.4 L 520.8 18.4 L 527.6 18.4 C 527.6 18.4 527.63 22.02 527.6 22 C 528.9 19.1 531.2 17.7 533.3 17.7 C 539 17.7 541.8 23.6 541.8 32.9 C 541.8 42 539 48.1 533.3 48.1 C 531.2 48.1 528.8 46.8 527.6 43.8 Z M 534.9 32.9 C 534.9 27.8 534 23.7 531 23.7 C 529.6 23.7 528.2 25.1 527.6 27.1 C 527.6 27.1 527.6 38.6 527.6 38.6 C 528.2 40.6 529.6 42.1 531 42.1 C 534 42.1 534.9 38 534.9 32.9 Z M 558.8 47.4 C 558.8 47.4 558.83 44.64 558.8 44.6 C 557.6 46.9 554.9 48.1 552.8 48.1 C 548.2 48.1 544.9 44.4 544.9 38.5 C 544.9 32.6 548.2 29 552.8 29 C 554.9 29 557.6 30.1 558.8 32.3 C 558.8 32.3 558.8 28.7 558.8 28.7 C 558.8 25.4 557.5 23.5 554.4 23.5 C 552.5 23.5 550.5 24.4 548.6 26.3 C 548.6 26.3 546 21.5 546 21.5 C 548.7 18.7 552.8 17.7 555.8 17.7 C 561.8 17.7 565.6 20.7 565.6 27.2 C 565.61 27.18 565.6 47.4 565.6 47.4 L 558.8 47.4 Z M 558.8 40.6 C 558.8 40.6 558.8 36.7 558.8 36.7 C 558.1 34.9 556.7 33.7 555.2 33.7 C 552.8 33.7 551.7 35.8 551.7 38.6 C 551.7 41.3 552.8 43.6 555.2 43.6 C 556.7 43.6 558.1 42.4 558.8 40.6 Z M 570 32.9 C 570 24.1 574.1 17.7 581 17.7 C 584.3 17.7 586.7 18.9 588 20.3 C 588 20.3 585.9 25.6 585.9 25.6 C 584.7 24.3 583.6 23.7 582.2 23.7 C 578.7 23.7 576.9 27.8 576.9 32.9 C 576.9 37.9 578.7 42.1 582.2 42.1 C 583.6 42.1 584.7 41.5 585.9 40.3 C 585.9 40.3 588 45.5 588 45.5 C 586.7 47 584.3 48.1 581 48.1 C 574.1 48.1 570 41.7 570 32.9 Z M 590.6 32.9 C 590.6 24.5 594.2 17.7 601.5 17.7 C 608.8 17.7 611.9 24.2 611.9 32.8 C 611.87 32.76 611.9 35.1 611.9 35.1 C 611.9 35.1 597.17 35.1 597.2 35.1 C 597.2 39.4 599 42.6 602.9 42.6 C 604.5 42.6 606.3 41.5 607.7 39.7 C 607.7 39.7 611 43.5 611 43.5 C 608.7 46.4 605.4 48.1 602.1 48.1 C 594.6 48.1 590.6 41.8 590.6 32.9 Z M 601.3 23.2 C 598 23.2 597.2 27.3 597.2 30.4 C 597.2 30.4 605.3 30.4 605.3 30.4 C 605.3 27.1 604.6 23.2 601.3 23.2 Z " stroke="none" fill="#b13d24"/>  </g></svg>