<?xml version="1.0" standalone="no"?><!DOCTYPE svg PUBLIC "-//W3C//DTD SVG 1.1//EN" "http://www.w3.org/Graphics/SVG/1.1/DTD/svg11.dtd"><svg xmlns="http://www.w3.org/2000/svg" version="1.1" width="219px" height="401.3px" viewBox="0 0 219 401.3">  <desc>240 ml 3 g 40 ml 20 ml 4 ml 12 ml 12 ml 2 drops 2 tbsp to taste</desc>  <defs/>  <g id="Polygon161521">    <path d="M 2.4 353.8 C 2.4 353.79 2.4 344.1 2.4 344.1 L 0.5 344.1 L 0.5 342.2 L 2.4 342.2 L 2.4 338.3 L 4.6 338.3 L 4.6 342.2 L 7 342.2 L 7 344.1 L 4.6 344.1 C 4.6 344.1 4.56 353.4 4.6 353.4 C 4.6 354.5 4.9 355.1 5.7 355.1 C 6.3 355.1 6.7 354.9 7 354.6 C 7 354.6 7.6 356.2 7.6 356.2 C 7.1 356.7 6.4 357.1 5.3 357.1 C 3.3 357.1 2.4 356 2.4 353.8 Z M 9.1 349.4 C 9.1 345.4 11.2 341.9 15 341.9 C 18.9 341.9 20.9 345.4 20.9 349.4 C 20.9 353.5 18.9 357.1 15 357.1 C 11.2 357.1 9.1 353.5 9.1 349.4 Z M 18.7 349.4 C 18.7 346.5 17.6 343.8 15 343.8 C 12.5 343.8 11.4 346.5 11.4 349.4 C 11.4 352.4 12.5 355.1 15 355.1 C 17.6 355.1 18.7 352.4 18.7 349.4 Z M 31 353.8 C 31.05 353.79 31 344.1 31 344.1 L 29.1 344.1 L 29.1 342.2 L 31 342.2 L 31 338.3 L 33.2 338.3 L 33.2 342.2 L 35.7 342.2 L 35.7 344.1 L 33.2 344.1 C 33.2 344.1 33.21 353.4 33.2 353.4 C 33.2 354.5 33.5 355.1 34.4 355.1 C 34.9 355.1 35.4 354.9 35.6 354.6 C 35.6 354.6 36.3 356.2 36.3 356.2 C 35.8 356.7 35.1 357.1 34 357.1 C 32 357.1 31 356 31 353.8 Z M 46 356.7 C 46 356.7 45.96 355.14 46 355.1 C 45 356.5 43.6 357.1 42.1 357.1 C 39.8 357.1 37.8 355.3 37.8 352.2 C 37.8 349.2 39.8 347.5 42.1 347.5 C 43.6 347.5 45.1 348 46 349.3 C 46 349.3 46 346.8 46 346.8 C 46 344.8 44.9 343.7 43 343.7 C 41.6 343.7 40.5 344.2 39.4 345.5 C 39.4 345.5 38.4 344 38.4 344 C 39.8 342.5 41.5 341.9 43.3 341.9 C 46.2 341.9 48.1 343.3 48.1 346.6 C 48.12 346.56 48.1 356.7 48.1 356.7 L 46 356.7 Z M 46 353.7 C 46 353.7 46 350.9 46 350.9 C 45.3 349.7 44.1 349.1 42.8 349.1 C 41 349.1 40 350.5 40 352.3 C 40 354.1 41 355.5 42.8 355.5 C 44.1 355.5 45.3 354.9 46 353.7 Z M 50.9 355 C 50.9 355 52 353.5 52 353.5 C 52.8 354.5 54.2 355.3 55.7 355.3 C 57.4 355.3 58.5 354.4 58.5 353 C 58.5 349.6 51.3 350.8 51.3 345.8 C 51.3 343.6 53 341.9 55.9 341.9 C 57.8 341.9 59.3 342.6 60.3 343.7 C 60.3 343.7 59.3 345.2 59.3 345.2 C 58.6 344.2 57.4 343.6 55.9 343.6 C 54.4 343.6 53.4 344.5 53.4 345.7 C 53.4 348.8 60.6 347.7 60.6 352.9 C 60.6 355.3 58.7 357.1 55.8 357.1 C 53.7 357.1 52.1 356.4 50.9 355 Z M 64.1 353.8 C 64.08 353.79 64.1 344.1 64.1 344.1 L 62.2 344.1 L 62.2 342.2 L 64.1 342.2 L 64.1 338.3 L 66.2 338.3 L 66.2 342.2 L 68.7 342.2 L 68.7 344.1 L 66.2 344.1 C 66.2 344.1 66.24 353.4 66.2 353.4 C 66.2 354.5 66.6 355.1 67.4 355.1 C 67.9 355.1 68.4 354.9 68.7 354.6 C 68.7 354.6 69.3 356.2 69.3 356.2 C 68.8 356.7 68.1 357.1 67 357.1 C 65 357.1 64.1 356 64.1 353.8 Z M 70.8 349.4 C 70.8 345.2 73 341.9 76.7 341.9 C 80.5 341.9 82.4 345.3 82.4 349.5 C 82.44 349.5 82.4 350.2 82.4 350.2 C 82.4 350.2 73.05 350.16 73 350.2 C 73.1 353.1 74.6 355.3 77.2 355.3 C 78.5 355.3 79.8 354.6 80.7 353.5 C 80.7 353.5 81.8 354.8 81.8 354.8 C 80.6 356.2 79 357.1 77 357.1 C 73.2 357.1 70.8 353.9 70.8 349.4 Z M 76.7 343.7 C 74.1 343.7 73.1 346.4 73 348.6 C 73 348.6 80.3 348.6 80.3 348.6 C 80.3 346.4 79.3 343.7 76.7 343.7 Z " stroke="none" fill="#d0d1d4"/>  </g>  <g id="Polygon161520">    <path d="M 1.6 320.7 C 1.6 320.7 1.59 318.75 1.6 318.8 C 8.1 311.2 10.4 308.8 10.4 305.9 C 10.4 303.7 8.9 302.5 7.2 302.5 C 5.3 302.5 3.9 303.5 2.9 305 C 2.9 305 1.4 303.6 1.4 303.6 C 2.7 301.6 4.7 300.4 7.2 300.4 C 10.3 300.4 12.8 302.4 12.8 305.9 C 12.8 309.2 10.3 312.2 5 318.6 C 4.98 318.57 12.9 318.6 12.9 318.6 L 12.9 320.7 L 1.6 320.7 Z M 23.5 317.8 C 23.52 317.79 23.5 308.1 23.5 308.1 L 21.6 308.1 L 21.6 306.2 L 23.5 306.2 L 23.5 302.3 L 25.7 302.3 L 25.7 306.2 L 28.1 306.2 L 28.1 308.1 L 25.7 308.1 C 25.7 308.1 25.68 317.4 25.7 317.4 C 25.7 318.5 26 319.1 26.8 319.1 C 27.4 319.1 27.8 318.9 28.1 318.6 C 28.1 318.6 28.8 320.2 28.8 320.2 C 28.3 320.7 27.5 321.1 26.4 321.1 C 24.4 321.1 23.5 320 23.5 317.8 Z M 36.4 319.1 C 38.8 319.1 39.9 316.6 39.9 313.5 C 39.9 310.3 38.8 307.8 36.4 307.8 C 35 307.8 33.7 308.9 33.1 310.2 C 33.1 310.2 33.1 316.8 33.1 316.8 C 33.7 318.1 35 319.1 36.4 319.1 Z M 31 320.7 L 31 300.7 L 33.1 300.7 C 33.1 300.7 33.12 308.31 33.1 308.3 C 34 306.7 35.5 305.9 36.9 305.9 C 40.2 305.9 42.1 309 42.1 313.5 C 42.1 318 40.2 321.1 36.9 321.1 C 35.4 321.1 34 320.1 33.1 318.6 C 33.12 318.63 33.1 320.7 33.1 320.7 L 31 320.7 Z M 44.2 319 C 44.2 319 45.3 317.5 45.3 317.5 C 46.1 318.5 47.5 319.3 49.1 319.3 C 50.8 319.3 51.9 318.4 51.9 317 C 51.9 313.6 44.6 314.8 44.6 309.8 C 44.6 307.6 46.4 305.9 49.3 305.9 C 51.2 305.9 52.6 306.6 53.7 307.7 C 53.7 307.7 52.6 309.2 52.6 309.2 C 51.9 308.2 50.7 307.6 49.3 307.6 C 47.7 307.6 46.7 308.5 46.7 309.7 C 46.7 312.8 53.9 311.7 53.9 316.9 C 53.9 319.3 52.1 321.1 49.1 321.1 C 47.1 321.1 45.4 320.4 44.2 319 Z M 59.1 318.6 C 59.13 318.6 59.1 326.2 59.1 326.2 L 57 326.2 L 57 306.2 L 59.1 306.2 C 59.1 306.2 59.13 308.28 59.1 308.3 C 60 306.8 61.4 305.9 62.9 305.9 C 66.2 305.9 68.1 308.9 68.1 313.4 C 68.1 318 66.2 321.1 62.9 321.1 C 61.5 321.1 60 320.2 59.1 318.6 Z M 65.9 313.4 C 65.9 310.3 64.8 307.8 62.4 307.8 C 61 307.8 59.7 308.9 59.1 310.1 C 59.1 310.1 59.1 316.7 59.1 316.7 C 59.7 318 61 319.1 62.4 319.1 C 64.8 319.1 65.9 316.6 65.9 313.4 Z M 71 319.4 C 71 318.5 71.7 317.8 72.6 317.8 C 73.4 317.8 74.2 318.5 74.2 319.4 C 74.2 320.3 73.4 321 72.6 321 C 71.7 321 71 320.3 71 319.4 Z " stroke="none" fill="#d0d1d4"/>  </g>  <g id="Polygon161519">    <path d="M 1.6 284.7 C 1.6 284.7 1.59 282.75 1.6 282.8 C 8.1 275.2 10.4 272.8 10.4 269.9 C 10.4 267.7 8.9 266.5 7.2 266.5 C 5.3 266.5 3.9 267.5 2.9 269 C 2.9 269 1.4 267.6 1.4 267.6 C 2.7 265.6 4.7 264.4 7.2 264.4 C 10.3 264.4 12.8 266.4 12.8 269.9 C 12.8 273.2 10.3 276.2 5 282.6 C 4.98 282.57 12.9 282.6 12.9 282.6 L 12.9 284.7 L 1.6 284.7 Z M 31.4 284.7 C 31.4 284.7 31.38 282.63 31.4 282.6 C 30.5 284.1 29.1 285.1 27.6 285.1 C 24.3 285.1 22.4 282 22.4 277.5 C 22.4 273 24.3 269.9 27.6 269.9 C 29 269.9 30.5 270.7 31.4 272.3 C 31.38 272.31 31.4 264.7 31.4 264.7 L 33.5 264.7 L 33.5 284.7 L 31.4 284.7 Z M 31.4 280.8 C 31.4 280.8 31.4 274.1 31.4 274.1 C 30.8 272.9 29.5 271.8 28.1 271.8 C 25.7 271.8 24.6 274.3 24.6 277.5 C 24.6 280.6 25.7 283.1 28.1 283.1 C 29.5 283.1 30.8 282.1 31.4 280.8 Z M 37.5 284.7 L 37.5 270.2 L 39.6 270.2 C 39.6 270.2 39.63 272.52 39.6 272.5 C 40.6 271 42 269.9 43.7 269.9 C 43.7 269.9 43.7 272.1 43.7 272.1 C 43.5 272.1 43.3 272 43 272 C 41.7 272 40.2 273.2 39.6 274.4 C 39.63 274.41 39.6 284.7 39.6 284.7 L 37.5 284.7 Z M 45.5 277.4 C 45.5 273.4 47.5 269.9 51.4 269.9 C 55.3 269.9 57.3 273.4 57.3 277.4 C 57.3 281.5 55.3 285.1 51.4 285.1 C 47.5 285.1 45.5 281.5 45.5 277.4 Z M 55 277.4 C 55 274.5 53.9 271.8 51.4 271.8 C 48.9 271.8 47.8 274.5 47.8 277.4 C 47.8 280.4 48.9 283.1 51.4 283.1 C 53.9 283.1 55 280.4 55 277.4 Z M 62.7 282.6 C 62.67 282.6 62.7 290.2 62.7 290.2 L 60.5 290.2 L 60.5 270.2 L 62.7 270.2 C 62.7 270.2 62.67 272.28 62.7 272.3 C 63.5 270.8 64.9 269.9 66.5 269.9 C 69.7 269.9 71.7 272.9 71.7 277.4 C 71.7 282 69.7 285.1 66.5 285.1 C 65 285.1 63.6 284.2 62.7 282.6 Z M 69.4 277.4 C 69.4 274.3 68.3 271.8 65.9 271.8 C 64.6 271.8 63.2 272.9 62.7 274.1 C 62.7 274.1 62.7 280.7 62.7 280.7 C 63.2 282 64.6 283.1 65.9 283.1 C 68.3 283.1 69.4 280.6 69.4 277.4 Z M 73.7 283 C 73.7 283 74.8 281.5 74.8 281.5 C 75.6 282.5 77 283.3 78.6 283.3 C 80.2 283.3 81.4 282.4 81.4 281 C 81.4 277.6 74.1 278.8 74.1 273.8 C 74.1 271.6 75.9 269.9 78.7 269.9 C 80.7 269.9 82.1 270.6 83.2 271.7 C 83.2 271.7 82.1 273.2 82.1 273.2 C 81.4 272.2 80.2 271.6 78.8 271.6 C 77.2 271.6 76.2 272.5 76.2 273.7 C 76.2 276.8 83.4 275.7 83.4 280.9 C 83.4 283.3 81.6 285.1 78.6 285.1 C 76.6 285.1 74.9 284.4 73.7 283 Z " stroke="none" fill="#d0d1d4"/>  </g>  <g id="Polygon161518">    <path d="M 5 248.7 L 5 231.8 L 1.9 235.1 L 0.4 233.6 L 5.3 228.7 L 7.3 228.7 L 7.3 248.7 L 5 248.7 Z M 11 248.7 C 11 248.7 11.04 246.75 11 246.8 C 17.6 239.2 19.8 236.8 19.8 233.9 C 19.8 231.7 18.3 230.5 16.6 230.5 C 14.7 230.5 13.3 231.5 12.4 233 C 12.4 233 10.8 231.6 10.8 231.6 C 12.1 229.6 14.1 228.4 16.6 228.4 C 19.7 228.4 22.3 230.4 22.3 233.9 C 22.3 237.2 19.7 240.2 14.4 246.6 C 14.43 246.57 22.3 246.6 22.3 246.6 L 22.3 248.7 L 11 248.7 Z M 47.2 248.7 C 47.2 248.7 47.19 238.2 47.2 238.2 C 47.2 236.6 46.6 235.8 45.2 235.8 C 43.9 235.8 42.6 236.9 42 238.1 C 42.03 238.08 42 248.7 42 248.7 L 39.9 248.7 C 39.9 248.7 39.87 238.2 39.9 238.2 C 39.9 236.6 39.2 235.8 37.8 235.8 C 36.5 235.8 35.3 236.9 34.7 238.1 C 34.68 238.08 34.7 248.7 34.7 248.7 L 32.5 248.7 L 32.5 234.2 L 34.7 234.2 C 34.7 234.2 34.68 236.28 34.7 236.3 C 35.3 235.2 36.9 233.9 38.6 233.9 C 40.5 233.9 41.6 234.9 41.9 236.4 C 42.6 235.1 44.2 233.9 46 233.9 C 48.1 233.9 49.3 235 49.3 237.6 C 49.35 237.63 49.3 248.7 49.3 248.7 L 47.2 248.7 Z M 53.3 248.7 L 53.3 228.7 L 55.4 228.7 L 55.4 248.7 L 53.3 248.7 Z " stroke="none" fill="#d0d1d4"/>  </g>  <g id="Polygon161517">    <path d="M 5 212.7 L 5 195.8 L 1.9 199.1 L 0.4 197.6 L 5.3 192.7 L 7.3 192.7 L 7.3 212.7 L 5 212.7 Z M 11 212.7 C 11 212.7 11.04 210.75 11 210.8 C 17.6 203.2 19.8 200.8 19.8 197.9 C 19.8 195.7 18.3 194.5 16.6 194.5 C 14.7 194.5 13.3 195.5 12.4 197 C 12.4 197 10.8 195.6 10.8 195.6 C 12.1 193.6 14.1 192.4 16.6 192.4 C 19.7 192.4 22.3 194.4 22.3 197.9 C 22.3 201.2 19.7 204.2 14.4 210.6 C 14.43 210.57 22.3 210.6 22.3 210.6 L 22.3 212.7 L 11 212.7 Z M 47.2 212.7 C 47.2 212.7 47.19 202.2 47.2 202.2 C 47.2 200.6 46.6 199.8 45.2 199.8 C 43.9 199.8 42.6 200.9 42 202.1 C 42.03 202.08 42 212.7 42 212.7 L 39.9 212.7 C 39.9 212.7 39.87 202.2 39.9 202.2 C 39.9 200.6 39.2 199.8 37.8 199.8 C 36.5 199.8 35.3 200.9 34.7 202.1 C 34.68 202.08 34.7 212.7 34.7 212.7 L 32.5 212.7 L 32.5 198.2 L 34.7 198.2 C 34.7 198.2 34.68 200.28 34.7 200.3 C 35.3 199.2 36.9 197.9 38.6 197.9 C 40.5 197.9 41.6 198.9 41.9 200.4 C 42.6 199.1 44.2 197.9 46 197.9 C 48.1 197.9 49.3 199 49.3 201.6 C 49.35 201.63 49.3 212.7 49.3 212.7 L 47.2 212.7 Z M 53.3 212.7 L 53.3 192.7 L 55.4 192.7 L 55.4 212.7 L 53.3 212.7 Z " stroke="none" fill="#d0d1d4"/>  </g>  <g id="Polygon161516">    <path d="M 8.6 176.7 L 8.6 171.6 L 0.7 171.6 L 0.7 169.5 L 7.9 156.7 L 11 156.7 L 11 169.5 L 13.2 169.5 L 13.2 171.6 L 11 171.6 L 11 176.7 L 8.6 176.7 Z M 8.6 159.3 L 2.9 169.5 L 8.6 169.5 L 8.6 159.3 Z M 36.9 176.7 C 36.9 176.7 36.93 166.2 36.9 166.2 C 36.9 164.6 36.3 163.8 34.9 163.8 C 33.6 163.8 32.3 164.9 31.8 166.1 C 31.77 166.08 31.8 176.7 31.8 176.7 L 29.6 176.7 C 29.6 176.7 29.61 166.2 29.6 166.2 C 29.6 164.6 29 163.8 27.6 163.8 C 26.3 163.8 25 164.9 24.4 166.1 C 24.42 166.08 24.4 176.7 24.4 176.7 L 22.3 176.7 L 22.3 162.2 L 24.4 162.2 C 24.4 162.2 24.42 164.28 24.4 164.3 C 25 163.2 26.6 161.9 28.4 161.9 C 30.2 161.9 31.4 162.9 31.6 164.4 C 32.4 163.1 34 161.9 35.7 161.9 C 37.9 161.9 39.1 163 39.1 165.6 C 39.09 165.63 39.1 176.7 39.1 176.7 L 36.9 176.7 Z M 43 176.7 L 43 156.7 L 45.2 156.7 L 45.2 176.7 L 43 176.7 Z " stroke="none" fill="#d0d1d4"/>  </g>  <g id="Polygon161515">    <path d="M 1.6 140.7 C 1.6 140.7 1.59 138.75 1.6 138.8 C 8.1 131.2 10.4 128.8 10.4 125.9 C 10.4 123.7 8.9 122.5 7.2 122.5 C 5.3 122.5 3.9 123.5 2.9 125 C 2.9 125 1.4 123.6 1.4 123.6 C 2.7 121.6 4.7 120.4 7.2 120.4 C 10.3 120.4 12.8 122.4 12.8 125.9 C 12.8 129.2 10.3 132.2 5 138.6 C 4.98 138.57 12.9 138.6 12.9 138.6 L 12.9 140.7 L 1.6 140.7 Z M 16.1 130.7 C 16.1 125.9 17.7 120.4 22.3 120.4 C 27 120.4 28.6 125.9 28.6 130.7 C 28.6 135.5 27 141.1 22.3 141.1 C 17.7 141.1 16.1 135.5 16.1 130.7 Z M 26.2 130.7 C 26.2 126.8 25.4 122.5 22.3 122.5 C 19.3 122.5 18.5 126.8 18.5 130.7 C 18.5 134.6 19.3 138.9 22.3 138.9 C 25.4 138.9 26.2 134.6 26.2 130.7 Z M 53.1 140.7 C 53.1 140.7 53.1 130.2 53.1 130.2 C 53.1 128.6 52.5 127.8 51.1 127.8 C 49.8 127.8 48.5 128.9 47.9 130.1 C 47.94 130.08 47.9 140.7 47.9 140.7 L 45.8 140.7 C 45.8 140.7 45.78 130.2 45.8 130.2 C 45.8 128.6 45.1 127.8 43.7 127.8 C 42.4 127.8 41.2 128.9 40.6 130.1 C 40.59 130.08 40.6 140.7 40.6 140.7 L 38.5 140.7 L 38.5 126.2 L 40.6 126.2 C 40.6 126.2 40.59 128.28 40.6 128.3 C 41.2 127.2 42.8 125.9 44.5 125.9 C 46.4 125.9 47.5 126.9 47.8 128.4 C 48.5 127.1 50.2 125.9 51.9 125.9 C 54 125.9 55.3 127 55.3 129.6 C 55.26 129.63 55.3 140.7 55.3 140.7 L 53.1 140.7 Z M 59.2 140.7 L 59.2 120.7 L 61.3 120.7 L 61.3 140.7 L 59.2 140.7 Z " stroke="none" fill="#d0d1d4"/>  </g>  <g id="Polygon161514">    <path d="M 8.6 104.7 L 8.6 99.6 L 0.7 99.6 L 0.7 97.5 L 7.9 84.7 L 11 84.7 L 11 97.5 L 13.2 97.5 L 13.2 99.6 L 11 99.6 L 11 104.7 L 8.6 104.7 Z M 8.6 87.3 L 2.9 97.5 L 8.6 97.5 L 8.6 87.3 Z M 15.3 94.7 C 15.3 89.9 16.9 84.4 21.5 84.4 C 26.2 84.4 27.8 89.9 27.8 94.7 C 27.8 99.5 26.2 105.1 21.5 105.1 C 16.9 105.1 15.3 99.5 15.3 94.7 Z M 25.4 94.7 C 25.4 90.8 24.6 86.5 21.5 86.5 C 18.5 86.5 17.7 90.8 17.7 94.7 C 17.7 98.6 18.4 102.9 21.5 102.9 C 24.6 102.9 25.4 98.6 25.4 94.7 Z M 52.3 104.7 C 52.3 104.7 52.29 94.2 52.3 94.2 C 52.3 92.6 51.7 91.8 50.3 91.8 C 49 91.8 47.7 92.9 47.1 94.1 C 47.13 94.08 47.1 104.7 47.1 104.7 L 45 104.7 C 45 104.7 44.97 94.2 45 94.2 C 45 92.6 44.3 91.8 42.9 91.8 C 41.6 91.8 40.4 92.9 39.8 94.1 C 39.78 94.08 39.8 104.7 39.8 104.7 L 37.6 104.7 L 37.6 90.2 L 39.8 90.2 C 39.8 90.2 39.78 92.28 39.8 92.3 C 40.4 91.2 42 89.9 43.7 89.9 C 45.6 89.9 46.7 90.9 47 92.4 C 47.7 91.1 49.3 89.9 51.1 89.9 C 53.2 89.9 54.4 91 54.4 93.6 C 54.45 93.63 54.4 104.7 54.4 104.7 L 52.3 104.7 Z M 58.4 104.7 L 58.4 84.7 L 60.5 84.7 L 60.5 104.7 L 58.4 104.7 Z " stroke="none" fill="#d0d1d4"/>  </g>  <g id="Polygon161513">    <path d="M 0.9 65.7 C 0.9 65.7 2.4 64.3 2.4 64.3 C 3.4 65.8 4.8 66.9 6.7 66.9 C 9.1 66.9 10.3 65.4 10.3 63.1 C 10.3 60.4 8.6 59.5 6.5 59.5 C 5.9 59.5 5.2 59.5 4.9 59.5 C 4.9 59.5 4.9 57.4 4.9 57.4 C 5.2 57.4 6 57.4 6.5 57.4 C 8.5 57.4 10.1 56.3 10.1 54 C 10.1 51.7 8.7 50.5 6.7 50.5 C 4.9 50.5 3.6 51.5 2.6 52.9 C 2.6 52.9 1.1 51.5 1.1 51.5 C 2.3 49.6 4.3 48.4 6.8 48.4 C 10.1 48.4 12.5 50.2 12.5 53.7 C 12.5 56.2 10.7 57.9 8.9 58.4 C 10.7 58.6 12.8 60.4 12.8 63.3 C 12.8 66.6 10.6 69.1 6.8 69.1 C 4 69.1 1.9 67.6 0.9 65.7 Z M 22.5 72.8 C 22.5 72.8 23.5 71.1 23.5 71.1 C 24.4 72.2 25.7 72.8 27.3 72.8 C 29.2 72.8 30.9 71.6 30.9 68.8 C 30.9 68.8 30.9 66.4 30.9 66.4 C 30.1 67.9 28.6 68.9 27.1 68.9 C 23.8 68.9 21.9 65.9 21.9 61.4 C 21.9 56.9 23.8 53.9 27.1 53.9 C 28.6 53.9 30 54.7 30.9 56.3 C 30.9 56.31 30.9 54.2 30.9 54.2 L 33.1 54.2 C 33.1 54.2 33.06 68.67 33.1 68.7 C 33.1 73.1 30.4 74.6 27.3 74.6 C 25.4 74.6 23.9 74.1 22.5 72.8 Z M 30.9 64.6 C 30.9 64.6 30.9 58.1 30.9 58.1 C 30.4 56.9 29 55.8 27.6 55.8 C 25.3 55.8 24.1 58.3 24.1 61.4 C 24.1 64.5 25.3 67 27.6 67 C 29 67 30.4 65.8 30.9 64.6 Z " stroke="none" fill="#d0d1d4"/>  </g>  <g id="Polygon161512">    <path d="M 1.6 32.7 C 1.6 32.7 1.59 30.75 1.6 30.8 C 8.1 23.2 10.4 20.8 10.4 17.9 C 10.4 15.7 8.9 14.5 7.2 14.5 C 5.3 14.5 3.9 15.5 2.9 17 C 2.9 17 1.4 15.6 1.4 15.6 C 2.7 13.6 4.7 12.4 7.2 12.4 C 10.3 12.4 12.8 14.4 12.8 17.9 C 12.8 21.2 10.3 24.2 5 30.6 C 4.98 30.57 12.9 30.6 12.9 30.6 L 12.9 32.7 L 1.6 32.7 Z M 23.3 32.7 L 23.3 27.6 L 15.4 27.6 L 15.4 25.5 L 22.6 12.7 L 25.6 12.7 L 25.6 25.5 L 27.8 25.5 L 27.8 27.6 L 25.6 27.6 L 25.6 32.7 L 23.3 32.7 Z M 23.3 15.3 L 17.5 25.5 L 23.3 25.5 L 23.3 15.3 Z M 29.9 22.7 C 29.9 17.9 31.5 12.4 36.2 12.4 C 40.9 12.4 42.5 17.9 42.5 22.7 C 42.5 27.5 40.9 33.1 36.2 33.1 C 31.5 33.1 29.9 27.5 29.9 22.7 Z M 40 22.7 C 40 18.8 39.3 14.5 36.2 14.5 C 33.1 14.5 32.4 18.8 32.4 22.7 C 32.4 26.6 33.1 30.9 36.2 30.9 C 39.3 30.9 40 26.6 40 22.7 Z M 67 32.7 C 67 32.7 66.96 22.2 67 22.2 C 67 20.6 66.3 19.8 64.9 19.8 C 63.7 19.8 62.4 20.9 61.8 22.1 C 61.8 22.08 61.8 32.7 61.8 32.7 L 59.6 32.7 C 59.6 32.7 59.64 22.2 59.6 22.2 C 59.6 20.6 59 19.8 57.6 19.8 C 56.3 19.8 55.1 20.9 54.4 22.1 C 54.45 22.08 54.4 32.7 54.4 32.7 L 52.3 32.7 L 52.3 18.2 L 54.4 18.2 C 54.4 18.2 54.45 20.28 54.4 20.3 C 55 19.2 56.7 17.9 58.4 17.9 C 60.3 17.9 61.4 18.9 61.7 20.4 C 62.4 19.1 64 17.9 65.8 17.9 C 67.9 17.9 69.1 19 69.1 21.6 C 69.12 21.63 69.1 32.7 69.1 32.7 L 67 32.7 Z M 73.1 32.7 L 73.1 12.7 L 75.2 12.7 L 75.2 32.7 L 73.1 32.7 Z " stroke="none" fill="#d0d1d4"/>  </g></svg>