<?xml version="1.0" standalone="no"?><!DOCTYPE svg PUBLIC "-//W3C//DTD SVG 1.1//EN" "http://www.w3.org/Graphics/SVG/1.1/DTD/svg11.dtd"><svg xmlns="http://www.w3.org/2000/svg" version="1.1" width="648px" height="575.3px" viewBox="0 0 648 575.3">  <desc>Combine the clear glue, cupium esterase, and deca-2-acetanoate Mix well Add yellow 6 into the mixture The acidity</desc>  <defs/>  <g id="Polygon170403">    <path d="M 307.5 379.9 C 305.7 379.9 304.3 378.5 304.3 376.8 C 304.3 375 305.7 373.6 307.5 373.6 C 309.2 373.6 310.7 375 310.7 376.8 C 310.7 378.5 309.2 379.9 307.5 379.9 Z M 324.7 379.9 C 322.9 379.9 321.4 378.5 321.4 376.8 C 321.4 375 322.9 373.6 324.7 373.6 C 326.4 373.6 327.9 375 327.9 376.8 C 327.9 378.5 326.4 379.9 324.7 379.9 Z M 341.8 379.9 C 340.1 379.9 338.6 378.5 338.6 376.8 C 338.6 375 340.1 373.6 341.8 373.6 C 343.6 373.6 345.1 375 345.1 376.8 C 345.1 378.5 343.6 379.9 341.8 379.9 Z " stroke="none" fill="#b13d24"/>  </g>  <g id="Polygon170402">    <path d="M 30.2 316.1 C 30.2 316.1 31.2 314.4 31.2 314.4 C 32.2 315.5 33.4 316.1 35 316.1 C 37 316.1 38.6 314.9 38.6 312.1 C 38.6 312.1 38.6 309.7 38.6 309.7 C 37.8 311.2 36.3 312.2 34.8 312.2 C 31.6 312.2 29.6 309.3 29.6 304.7 C 29.6 300.2 31.5 297.2 34.8 297.2 C 36.3 297.2 37.7 298 38.6 299.6 C 38.61 299.63 38.6 297.5 38.6 297.5 L 40.8 297.5 C 40.8 297.5 40.77 311.99 40.8 312 C 40.8 316.5 38.1 317.9 35 317.9 C 33.1 317.9 31.6 317.5 30.2 316.1 Z M 38.6 307.9 C 38.6 307.9 38.6 301.5 38.6 301.5 C 38.1 300.2 36.7 299.1 35.3 299.1 C 33 299.1 31.9 301.6 31.9 304.7 C 31.9 307.8 33 310.3 35.3 310.3 C 36.7 310.3 38.1 309.1 38.6 307.9 Z M 51.8 312 C 51.8 312 51.84 310.46 51.8 310.5 C 50.9 311.8 49.5 312.4 48 312.4 C 45.7 312.4 43.6 310.6 43.6 307.6 C 43.6 304.5 45.7 302.8 48 302.8 C 49.5 302.8 50.9 303.4 51.8 304.6 C 51.8 304.6 51.8 302.1 51.8 302.1 C 51.8 300.1 50.8 299 48.9 299 C 47.5 299 46.3 299.5 45.2 300.8 C 45.2 300.8 44.3 299.3 44.3 299.3 C 45.7 297.8 47.4 297.2 49.2 297.2 C 52.1 297.2 54 298.6 54 301.9 C 54 301.88 54 312 54 312 L 51.8 312 Z M 51.8 309 C 51.8 309 51.8 306.2 51.8 306.2 C 51.2 305 50 304.4 48.7 304.4 C 46.9 304.4 45.8 305.8 45.8 307.6 C 45.8 309.4 46.9 310.8 48.7 310.8 C 50 310.8 51.2 310.2 51.8 309 Z M 57.6 312 L 57.6 297.5 L 59.8 297.5 C 59.8 297.5 59.76 299.84 59.8 299.8 C 60.7 298.3 62.1 297.2 63.9 297.2 C 63.9 297.2 63.9 299.5 63.9 299.5 C 63.6 299.4 63.4 299.4 63.1 299.4 C 61.8 299.4 60.4 300.5 59.8 301.7 C 59.76 301.73 59.8 312 59.8 312 L 57.6 312 Z M 73.9 312 C 73.9 312 73.89 301.7 73.9 301.7 C 73.9 299.8 73 299.1 71.6 299.1 C 70.2 299.1 68.8 300.2 68.2 301.4 C 68.19 301.4 68.2 312 68.2 312 L 66.1 312 L 66.1 297.5 L 68.2 297.5 C 68.2 297.5 68.19 299.6 68.2 299.6 C 69 298.3 70.6 297.2 72.4 297.2 C 74.8 297.2 76 298.5 76 301.1 C 76.05 301.1 76 312 76 312 L 73.9 312 Z M 79.3 294 C 79.3 293.2 80 292.5 80.8 292.5 C 81.6 292.5 82.2 293.2 82.2 294 C 82.2 294.8 81.6 295.4 80.8 295.4 C 80 295.4 79.3 294.8 79.3 294 Z M 79.7 312 L 79.7 297.5 L 81.8 297.5 L 81.8 312 L 79.7 312 Z M 84.3 310.3 C 84.3 310.3 85.4 308.8 85.4 308.8 C 86.2 309.8 87.6 310.6 89.2 310.6 C 90.9 310.6 92 309.7 92 308.3 C 92 304.9 84.7 306.1 84.7 301.1 C 84.7 298.9 86.5 297.2 89.4 297.2 C 91.3 297.2 92.8 297.9 93.8 299 C 93.8 299 92.8 300.5 92.8 300.5 C 92 299.5 90.8 298.9 89.4 298.9 C 87.8 298.9 86.8 299.8 86.8 301 C 86.8 304.1 94 303 94 308.2 C 94 310.6 92.2 312.4 89.2 312.4 C 87.2 312.4 85.5 311.7 84.3 310.3 Z M 104.7 312 C 104.7 312 104.66 301.67 104.7 301.7 C 104.7 299.8 103.8 299.1 102.3 299.1 C 100.9 299.1 99.6 300.2 98.9 301.4 C 98.93 301.4 98.9 312 98.9 312 L 96.8 312 L 96.8 292 L 98.9 292 C 98.9 292 98.93 299.6 98.9 299.6 C 99.8 298.3 101.4 297.2 103.2 297.2 C 105.6 297.2 106.8 298.4 106.8 301 C 106.79 301.04 106.8 312 106.8 312 L 104.7 312 Z M 124 312 C 124 312 124.04 310.46 124 310.5 C 123.1 311.8 121.7 312.4 120.2 312.4 C 117.9 312.4 115.9 310.6 115.9 307.6 C 115.9 304.5 117.9 302.8 120.2 302.8 C 121.7 302.8 123.1 303.4 124 304.6 C 124 304.6 124 302.1 124 302.1 C 124 300.1 123 299 121.1 299 C 119.7 299 118.6 299.5 117.4 300.8 C 117.4 300.8 116.5 299.3 116.5 299.3 C 117.9 297.8 119.6 297.2 121.4 297.2 C 124.3 297.2 126.2 298.6 126.2 301.9 C 126.2 301.88 126.2 312 126.2 312 L 124 312 Z M 124 309 C 124 309 124 306.2 124 306.2 C 123.4 305 122.2 304.4 120.9 304.4 C 119.1 304.4 118 305.8 118 307.6 C 118 309.4 119.1 310.8 120.9 310.8 C 122.2 310.8 123.4 310.2 124 309 Z M 129.8 312 L 129.8 297.5 L 132 297.5 C 132 297.5 131.96 299.84 132 299.8 C 132.9 298.3 134.3 297.2 136.1 297.2 C 136.1 297.2 136.1 299.5 136.1 299.5 C 135.8 299.4 135.6 299.4 135.4 299.4 C 134 299.4 132.6 300.5 132 301.7 C 131.96 301.73 132 312 132 312 L 129.8 312 Z M 137.5 304.8 C 137.5 300.7 139.6 297.2 143.4 297.2 C 147.3 297.2 149.3 300.7 149.3 304.8 C 149.3 308.8 147.3 312.4 143.4 312.4 C 139.6 312.4 137.5 308.8 137.5 304.8 Z M 147.1 304.8 C 147.1 301.9 146 299.1 143.4 299.1 C 140.9 299.1 139.8 301.9 139.8 304.8 C 139.8 307.7 140.9 310.5 143.4 310.5 C 146 310.5 147.1 307.7 147.1 304.8 Z M 160.1 312 C 160.1 312 160.1 310.01 160.1 310 C 159.2 311.3 157.7 312.4 155.9 312.4 C 153.4 312.4 152.3 311.2 152.3 308.5 C 152.27 308.51 152.3 297.5 152.3 297.5 L 154.4 297.5 C 154.4 297.5 154.4 307.88 154.4 307.9 C 154.4 309.8 155.3 310.5 156.7 310.5 C 158.2 310.5 159.5 309.4 160.1 308.2 C 160.1 308.21 160.1 297.5 160.1 297.5 L 162.3 297.5 L 162.3 312 L 160.1 312 Z M 173.8 312 C 173.8 312 173.75 301.7 173.8 301.7 C 173.8 299.8 172.9 299.1 171.4 299.1 C 170 299.1 168.7 300.2 168.1 301.4 C 168.05 301.4 168.1 312 168.1 312 L 165.9 312 L 165.9 297.5 L 168.1 297.5 C 168.1 297.5 168.05 299.6 168.1 299.6 C 168.9 298.3 170.5 297.2 172.3 297.2 C 174.7 297.2 175.9 298.5 175.9 301.1 C 175.91 301.1 175.9 312 175.9 312 L 173.8 312 Z M 187.9 312 C 187.9 312 187.85 309.95 187.9 310 C 187 311.4 185.6 312.4 184 312.4 C 180.8 312.4 178.9 309.4 178.9 304.8 C 178.9 300.3 180.8 297.2 184 297.2 C 185.5 297.2 187 298 187.9 299.6 C 187.85 299.63 187.9 292 187.9 292 L 190 292 L 190 312 L 187.9 312 Z M 187.9 308.1 C 187.9 308.1 187.9 301.5 187.9 301.5 C 187.3 300.2 186 299.1 184.6 299.1 C 182.2 299.1 181.1 301.6 181.1 304.8 C 181.1 307.9 182.2 310.5 184.6 310.5 C 186 310.5 187.3 309.4 187.9 308.1 Z M 200.2 309.1 C 200.24 309.11 200.2 299.4 200.2 299.4 L 198.3 299.4 L 198.3 297.5 L 200.2 297.5 L 200.2 293.6 L 202.4 293.6 L 202.4 297.5 L 204.9 297.5 L 204.9 299.4 L 202.4 299.4 C 202.4 299.4 202.4 308.72 202.4 308.7 C 202.4 309.8 202.7 310.5 203.6 310.5 C 204.1 310.5 204.6 310.2 204.8 309.9 C 204.8 309.9 205.5 311.5 205.5 311.5 C 205 312 204.3 312.4 203.2 312.4 C 201.2 312.4 200.2 311.3 200.2 309.1 Z M 215.3 312 C 215.3 312 215.27 301.67 215.3 301.7 C 215.3 299.8 214.4 299.1 212.9 299.1 C 211.5 299.1 210.2 300.2 209.5 301.4 C 209.54 301.4 209.5 312 209.5 312 L 207.4 312 L 207.4 292 L 209.5 292 C 209.5 292 209.54 299.6 209.5 299.6 C 210.4 298.3 212 297.2 213.8 297.2 C 216.2 297.2 217.4 298.4 217.4 301 C 217.4 301.04 217.4 312 217.4 312 L 215.3 312 Z M 220.3 304.8 C 220.3 300.6 222.6 297.2 226.2 297.2 C 230 297.2 232 300.6 232 304.8 C 231.95 304.82 232 305.5 232 305.5 C 232 305.5 222.56 305.48 222.6 305.5 C 222.7 308.4 224.2 310.6 226.7 310.6 C 228 310.6 229.3 310 230.2 308.8 C 230.2 308.8 231.3 310.1 231.3 310.1 C 230.2 311.5 228.5 312.4 226.6 312.4 C 222.7 312.4 220.3 309.2 220.3 304.8 Z M 226.2 299 C 223.6 299 222.6 301.8 222.6 303.9 C 222.6 303.9 229.8 303.9 229.8 303.9 C 229.8 301.7 228.8 299 226.2 299 Z M 249.2 312 C 249.2 312 249.23 309.95 249.2 310 C 248.4 311.4 247 312.4 245.4 312.4 C 242.2 312.4 240.2 309.4 240.2 304.8 C 240.2 300.3 242.2 297.2 245.4 297.2 C 246.9 297.2 248.4 298 249.2 299.6 C 249.23 299.63 249.2 292 249.2 292 L 251.4 292 L 251.4 312 L 249.2 312 Z M 249.2 308.1 C 249.2 308.1 249.2 301.5 249.2 301.5 C 248.7 300.2 247.3 299.1 246 299.1 C 243.6 299.1 242.5 301.6 242.5 304.8 C 242.5 307.9 243.6 310.5 246 310.5 C 247.3 310.5 248.7 309.4 249.2 308.1 Z M 254.6 294 C 254.6 293.2 255.3 292.5 256.1 292.5 C 256.9 292.5 257.6 293.2 257.6 294 C 257.6 294.8 256.9 295.4 256.1 295.4 C 255.3 295.4 254.6 294.8 254.6 294 Z M 255.1 312 L 255.1 297.5 L 257.2 297.5 L 257.2 312 L 255.1 312 Z M 259.7 310.3 C 259.7 310.3 260.8 308.8 260.8 308.8 C 261.6 309.8 263 310.6 264.5 310.6 C 266.2 310.6 267.3 309.7 267.3 308.3 C 267.3 304.9 260.1 306.1 260.1 301.1 C 260.1 298.9 261.8 297.2 264.7 297.2 C 266.6 297.2 268.1 297.9 269.1 299 C 269.1 299 268.1 300.5 268.1 300.5 C 267.4 299.5 266.2 298.9 264.7 298.9 C 263.2 298.9 262.2 299.8 262.2 301 C 262.2 304.1 269.4 303 269.4 308.2 C 269.4 310.6 267.5 312.4 264.6 312.4 C 262.5 312.4 260.9 311.7 259.7 310.3 Z M 280 312 C 280 312 280.01 301.67 280 301.7 C 280 299.8 279.1 299.1 277.7 299.1 C 276.3 299.1 274.9 300.2 274.3 301.4 C 274.28 301.4 274.3 312 274.3 312 L 272.2 312 L 272.2 292 L 274.3 292 C 274.3 292 274.28 299.6 274.3 299.6 C 275.1 298.3 276.8 297.2 278.5 297.2 C 281 297.2 282.1 298.4 282.1 301 C 282.14 301.04 282.1 312 282.1 312 L 280 312 Z M 285.7 310.7 C 285.7 309.9 286.4 309.1 287.2 309.1 C 288.1 309.1 288.9 309.9 288.9 310.7 C 288.9 311.6 288.1 312.3 287.2 312.3 C 286.4 312.3 285.7 311.6 285.7 310.7 Z M 298.6 312 L 298.6 292 L 308.9 292 L 308.9 294.1 L 301 294.1 L 301 300.7 L 308.7 300.7 L 308.7 302.8 L 301 302.8 L 301 309.9 L 308.9 309.9 L 308.9 312 L 298.6 312 Z M 319.9 312 C 319.9 312 319.85 301.7 319.9 301.7 C 319.9 299.8 319 299.1 317.5 299.1 C 316.1 299.1 314.8 300.2 314.2 301.4 C 314.15 301.4 314.2 312 314.2 312 L 312 312 L 312 297.5 L 314.2 297.5 C 314.2 297.5 314.15 299.6 314.2 299.6 C 315 298.3 316.6 297.2 318.4 297.2 C 320.8 297.2 322 298.5 322 301.1 C 322.01 301.1 322 312 322 312 L 319.9 312 Z M 325.3 294 C 325.3 293.2 325.9 292.5 326.7 292.5 C 327.5 292.5 328.2 293.2 328.2 294 C 328.2 294.8 327.5 295.4 326.7 295.4 C 325.9 295.4 325.3 294.8 325.3 294 Z M 321.7 316.9 C 321.7 316.9 322.5 315.3 322.5 315.3 C 322.9 315.7 323.3 316.1 324 316.1 C 325 316.1 325.7 315.4 325.7 313.8 C 325.67 313.79 325.7 297.5 325.7 297.5 L 327.8 297.5 C 327.8 297.5 327.8 313.79 327.8 313.8 C 327.8 316.6 326.5 317.9 324.2 317.9 C 323.1 317.9 322.4 317.6 321.7 316.9 Z M 330.7 304.8 C 330.7 300.7 332.8 297.2 336.6 297.2 C 340.5 297.2 342.5 300.7 342.5 304.8 C 342.5 308.8 340.5 312.4 336.6 312.4 C 332.8 312.4 330.7 308.8 330.7 304.8 Z M 340.3 304.8 C 340.3 301.9 339.2 299.1 336.6 299.1 C 334.1 299.1 333 301.9 333 304.8 C 333 307.7 334.1 310.5 336.6 310.5 C 339.2 310.5 340.3 307.7 340.3 304.8 Z M 345 315.8 C 345.3 315.9 345.8 316 346 316 C 346.8 316 347.3 315.7 347.7 314.5 C 347.72 314.54 348.5 312.3 348.5 312.3 L 343.7 297.5 L 346 297.5 L 349.6 309.4 L 353.2 297.5 L 355.5 297.5 C 355.5 297.5 349.76 315.08 349.8 315.1 C 349 317.2 347.9 317.9 346.2 317.9 C 345.7 317.9 345 317.8 344.7 317.7 C 344.7 317.7 345 315.8 345 315.8 Z M 355.8 310.7 C 355.8 309.9 356.5 309.1 357.4 309.1 C 358.2 309.1 359 309.9 359 310.7 C 359 311.6 358.2 312.3 357.4 312.3 C 356.5 312.3 355.8 311.6 355.8 310.7 Z " stroke="none" fill="#efd8d3"/>  </g>  <g id="Polygon170401">    <path d="M 0.9 273.1 C 0.9 273.1 2.4 271.6 2.4 271.6 C 3.4 273.1 4.8 274.3 6.7 274.3 C 9.1 274.3 10.3 272.8 10.3 270.4 C 10.3 267.7 8.6 266.8 6.5 266.8 C 5.9 266.8 5.2 266.8 4.9 266.8 C 4.9 266.8 4.9 264.7 4.9 264.7 C 5.2 264.7 6 264.7 6.5 264.7 C 8.5 264.7 10.1 263.6 10.1 261.4 C 10.1 259 8.7 257.8 6.7 257.8 C 4.9 257.8 3.6 258.8 2.6 260.2 C 2.6 260.2 1.1 258.9 1.1 258.9 C 2.3 256.9 4.3 255.7 6.8 255.7 C 10.1 255.7 12.5 257.5 12.5 261 C 12.5 263.5 10.7 265.3 8.9 265.7 C 10.7 265.9 12.8 267.7 12.8 270.6 C 12.8 274 10.6 276.4 6.8 276.4 C 4 276.4 1.9 274.9 0.9 273.1 Z M 15.7 274.7 C 15.7 273.9 16.4 273.1 17.3 273.1 C 18.2 273.1 18.9 273.9 18.9 274.7 C 18.9 275.6 18.2 276.3 17.3 276.3 C 16.4 276.3 15.7 275.6 15.7 274.7 Z M 40.9 276 L 39.6 271.5 L 32.5 271.5 L 31.2 276 L 28.6 276 L 34.6 256 L 37.4 256 L 43.4 276 L 40.9 276 Z M 36 258.7 L 33 269.4 L 39.1 269.4 L 36 258.7 Z M 53.6 276 C 53.6 276 53.58 273.95 53.6 274 C 52.7 275.4 51.3 276.4 49.8 276.4 C 46.5 276.4 44.6 273.4 44.6 268.8 C 44.6 264.3 46.5 261.2 49.8 261.2 C 51.2 261.2 52.7 262 53.6 263.6 C 53.58 263.63 53.6 256 53.6 256 L 55.7 256 L 55.7 276 L 53.6 276 Z M 53.6 272.1 C 53.6 272.1 53.6 265.5 53.6 265.5 C 53 264.2 51.7 263.1 50.3 263.1 C 47.9 263.1 46.8 265.6 46.8 268.8 C 46.8 271.9 47.9 274.5 50.3 274.5 C 51.7 274.5 53 273.4 53.6 272.1 Z M 67.7 276 C 67.7 276 67.68 273.95 67.7 274 C 66.8 275.4 65.4 276.4 63.9 276.4 C 60.6 276.4 58.7 273.4 58.7 268.8 C 58.7 264.3 60.6 261.2 63.9 261.2 C 65.3 261.2 66.8 262 67.7 263.6 C 67.68 263.63 67.7 256 67.7 256 L 69.8 256 L 69.8 276 L 67.7 276 Z M 67.7 272.1 C 67.7 272.1 67.7 265.5 67.7 265.5 C 67.1 264.2 65.8 263.1 64.4 263.1 C 62 263.1 60.9 265.6 60.9 268.8 C 60.9 271.9 62 274.5 64.4 274.5 C 65.8 274.5 67.1 273.4 67.7 272.1 Z M 78.5 274.3 C 78.5 274.3 79.6 272.8 79.6 272.8 C 80.4 273.8 81.8 274.6 83.3 274.6 C 85 274.6 86.1 273.7 86.1 272.3 C 86.1 268.9 78.9 270.1 78.9 265.1 C 78.9 262.9 80.6 261.2 83.5 261.2 C 85.4 261.2 86.9 261.9 87.9 263 C 87.9 263 86.9 264.5 86.9 264.5 C 86.2 263.5 85 262.9 83.5 262.9 C 82 262.9 81 263.8 81 265 C 81 268.1 88.2 267 88.2 272.2 C 88.2 274.6 86.3 276.4 83.4 276.4 C 81.3 276.4 79.7 275.7 78.5 274.3 Z M 98.4 276 C 98.4 276 98.4 274.46 98.4 274.5 C 97.5 275.8 96.1 276.4 94.6 276.4 C 92.2 276.4 90.2 274.6 90.2 271.6 C 90.2 268.5 92.2 266.8 94.6 266.8 C 96.1 266.8 97.5 267.4 98.4 268.6 C 98.4 268.6 98.4 266.1 98.4 266.1 C 98.4 264.1 97.3 263 95.4 263 C 94.1 263 92.9 263.5 91.8 264.8 C 91.8 264.8 90.8 263.3 90.8 263.3 C 92.2 261.8 93.9 261.2 95.8 261.2 C 98.6 261.2 100.6 262.6 100.6 265.9 C 100.56 265.88 100.6 276 100.6 276 L 98.4 276 Z M 98.4 273 C 98.4 273 98.4 270.2 98.4 270.2 C 97.7 269 96.5 268.4 95.3 268.4 C 93.5 268.4 92.4 269.8 92.4 271.6 C 92.4 273.4 93.5 274.8 95.3 274.8 C 96.5 274.8 97.7 274.2 98.4 273 Z M 104.2 276 L 104.2 256 L 106.3 256 L 106.3 276 L 104.2 276 Z M 110.4 273.1 C 110.39 273.11 110.4 263.4 110.4 263.4 L 108.5 263.4 L 108.5 261.5 L 110.4 261.5 L 110.4 257.6 L 112.6 257.6 L 112.6 261.5 L 115 261.5 L 115 263.4 L 112.6 263.4 C 112.6 263.4 112.55 272.72 112.6 272.7 C 112.6 273.8 112.9 274.5 113.7 274.5 C 114.3 274.5 114.7 274.2 115 273.9 C 115 273.9 115.6 275.5 115.6 275.5 C 115.1 276 114.4 276.4 113.3 276.4 C 111.3 276.4 110.4 275.3 110.4 273.1 Z M 124.1 273.1 C 124.13 273.11 124.1 263.4 124.1 263.4 L 122.2 263.4 L 122.2 261.5 L 124.1 261.5 L 124.1 257.6 L 126.3 257.6 L 126.3 261.5 L 128.8 261.5 L 128.8 263.4 L 126.3 263.4 C 126.3 263.4 126.29 272.72 126.3 272.7 C 126.3 273.8 126.6 274.5 127.5 274.5 C 128 274.5 128.5 274.2 128.7 273.9 C 128.7 273.9 129.4 275.5 129.4 275.5 C 128.9 276 128.2 276.4 127 276.4 C 125.1 276.4 124.1 275.3 124.1 273.1 Z M 130.6 268.8 C 130.6 264.7 132.6 261.2 136.5 261.2 C 140.4 261.2 142.4 264.7 142.4 268.8 C 142.4 272.8 140.4 276.4 136.5 276.4 C 132.6 276.4 130.6 272.8 130.6 268.8 Z M 140.1 268.8 C 140.1 265.9 139 263.1 136.5 263.1 C 134 263.1 132.8 265.9 132.8 268.8 C 132.8 271.7 134 274.5 136.5 274.5 C 139 274.5 140.1 271.7 140.1 268.8 Z M 151.9 273.1 C 151.88 273.11 151.9 263.4 151.9 263.4 L 150 263.4 L 150 261.5 L 151.9 261.5 L 151.9 257.6 L 154 257.6 L 154 261.5 L 156.5 261.5 L 156.5 263.4 L 154 263.4 C 154 263.4 154.04 272.72 154 272.7 C 154 273.8 154.4 274.5 155.2 274.5 C 155.8 274.5 156.2 274.2 156.5 273.9 C 156.5 273.9 157.1 275.5 157.1 275.5 C 156.6 276 155.9 276.4 154.8 276.4 C 152.8 276.4 151.9 275.3 151.9 273.1 Z M 166.5 276 C 166.5 276 166.49 274.46 166.5 274.5 C 165.6 275.8 164.2 276.4 162.7 276.4 C 160.3 276.4 158.3 274.6 158.3 271.6 C 158.3 268.5 160.3 266.8 162.7 266.8 C 164.2 266.8 165.6 267.4 166.5 268.6 C 166.5 268.6 166.5 266.1 166.5 266.1 C 166.5 264.1 165.4 263 163.5 263 C 162.2 263 161 263.5 159.9 264.8 C 159.9 264.8 158.9 263.3 158.9 263.3 C 160.3 261.8 162 261.2 163.9 261.2 C 166.7 261.2 168.7 262.6 168.7 265.9 C 168.65 265.88 168.7 276 168.7 276 L 166.5 276 Z M 166.5 273 C 166.5 273 166.5 270.2 166.5 270.2 C 165.8 269 164.6 268.4 163.4 268.4 C 161.6 268.4 160.5 269.8 160.5 271.6 C 160.5 273.4 161.6 274.8 163.4 274.8 C 164.6 274.8 165.8 274.2 166.5 273 Z M 171.1 274.3 C 171.1 274.3 172.2 272.8 172.2 272.8 C 173 273.8 174.4 274.6 176 274.6 C 177.7 274.6 178.8 273.7 178.8 272.3 C 178.8 268.9 171.5 270.1 171.5 265.1 C 171.5 262.9 173.3 261.2 176.2 261.2 C 178.1 261.2 179.5 261.9 180.6 263 C 180.6 263 179.5 264.5 179.5 264.5 C 178.8 263.5 177.6 262.9 176.2 262.9 C 174.6 262.9 173.6 263.8 173.6 265 C 173.6 268.1 180.8 267 180.8 272.2 C 180.8 274.6 179 276.4 176 276.4 C 174 276.4 172.3 275.7 171.1 274.3 Z M 184 273.1 C 184.01 273.11 184 263.4 184 263.4 L 182.1 263.4 L 182.1 261.5 L 184 261.5 L 184 257.6 L 186.2 257.6 L 186.2 261.5 L 188.6 261.5 L 188.6 263.4 L 186.2 263.4 C 186.2 263.4 186.17 272.72 186.2 272.7 C 186.2 273.8 186.5 274.5 187.3 274.5 C 187.9 274.5 188.3 274.2 188.6 273.9 C 188.6 273.9 189.3 275.5 189.3 275.5 C 188.8 276 188 276.4 186.9 276.4 C 184.9 276.4 184 275.3 184 273.1 Z M 190.5 268.8 C 190.5 264.6 192.7 261.2 196.3 261.2 C 200.2 261.2 202.1 264.6 202.1 268.8 C 202.07 268.82 202.1 269.5 202.1 269.5 C 202.1 269.5 192.68 269.48 192.7 269.5 C 192.8 272.4 194.3 274.6 196.9 274.6 C 198.1 274.6 199.4 274 200.3 272.8 C 200.3 272.8 201.4 274.1 201.4 274.1 C 200.3 275.5 198.6 276.4 196.7 276.4 C 192.8 276.4 190.5 273.2 190.5 268.8 Z M 196.3 263 C 193.8 263 192.7 265.8 192.7 267.9 C 192.7 267.9 199.9 267.9 199.9 267.9 C 199.9 265.7 199 263 196.3 263 Z M 205.6 279.8 C 205.6 279.8 204.5 278.9 204.5 278.9 C 205.5 278.3 206.3 277.1 206.5 276.1 C 206.4 276.1 206.2 276.2 206.1 276.2 C 205.3 276.2 204.7 275.5 204.7 274.7 C 204.7 273.8 205.3 273.1 206.2 273.1 C 207.2 273.1 208 273.9 208 275.4 C 208 277.2 207 278.8 205.6 279.8 Z M 224.9 276 C 224.9 276 224.93 274.46 224.9 274.5 C 224 275.8 222.6 276.4 221.1 276.4 C 218.8 276.4 216.7 274.6 216.7 271.6 C 216.7 268.5 218.8 266.8 221.1 266.8 C 222.6 266.8 224 267.4 224.9 268.6 C 224.9 268.6 224.9 266.1 224.9 266.1 C 224.9 264.1 223.9 263 222 263 C 220.6 263 219.4 263.5 218.3 264.8 C 218.3 264.8 217.4 263.3 217.4 263.3 C 218.8 261.8 220.5 261.2 222.3 261.2 C 225.2 261.2 227.1 262.6 227.1 265.9 C 227.09 265.88 227.1 276 227.1 276 L 224.9 276 Z M 224.9 273 C 224.9 273 224.9 270.2 224.9 270.2 C 224.3 269 223.1 268.4 221.8 268.4 C 220 268.4 218.9 269.8 218.9 271.6 C 218.9 273.4 220 274.8 221.8 274.8 C 223.1 274.8 224.3 274.2 224.9 273 Z M 238.6 276 C 238.6 276 238.55 265.7 238.6 265.7 C 238.6 263.8 237.7 263.1 236.2 263.1 C 234.8 263.1 233.5 264.2 232.9 265.4 C 232.85 265.4 232.9 276 232.9 276 L 230.7 276 L 230.7 261.5 L 232.9 261.5 C 232.9 261.5 232.85 263.6 232.9 263.6 C 233.7 262.3 235.3 261.2 237.1 261.2 C 239.5 261.2 240.7 262.5 240.7 265.1 C 240.71 265.1 240.7 276 240.7 276 L 238.6 276 Z M 252.7 276 C 252.7 276 252.65 273.95 252.7 274 C 251.8 275.4 250.4 276.4 248.8 276.4 C 245.6 276.4 243.7 273.4 243.7 268.8 C 243.7 264.3 245.6 261.2 248.8 261.2 C 250.3 261.2 251.8 262 252.7 263.6 C 252.65 263.63 252.7 256 252.7 256 L 254.8 256 L 254.8 276 L 252.7 276 Z M 252.7 272.1 C 252.7 272.1 252.7 265.5 252.7 265.5 C 252.1 264.2 250.8 263.1 249.4 263.1 C 247 263.1 245.9 265.6 245.9 268.8 C 245.9 271.9 247 274.5 249.4 274.5 C 250.8 274.5 252.1 273.4 252.7 272.1 Z M 263.5 274.3 C 263.5 274.3 264.5 272.8 264.5 272.8 C 265.4 273.8 266.8 274.6 268.3 274.6 C 270 274.6 271.1 273.7 271.1 272.3 C 271.1 268.9 263.9 270.1 263.9 265.1 C 263.9 262.9 265.6 261.2 268.5 261.2 C 270.4 261.2 271.9 261.9 272.9 263 C 272.9 263 271.9 264.5 271.9 264.5 C 271.2 263.5 269.9 262.9 268.5 262.9 C 266.9 262.9 265.9 263.8 265.9 265 C 265.9 268.1 273.2 267 273.2 272.2 C 273.2 274.6 271.3 276.4 268.3 276.4 C 266.3 276.4 264.7 275.7 263.5 274.3 Z M 275.2 268.8 C 275.2 264.6 277.4 261.2 281.1 261.2 C 284.9 261.2 286.8 264.6 286.8 268.8 C 286.82 268.82 286.8 269.5 286.8 269.5 C 286.8 269.5 277.43 269.48 277.4 269.5 C 277.5 272.4 279 274.6 281.6 274.6 C 282.9 274.6 284.2 274 285.1 272.8 C 285.1 272.8 286.2 274.1 286.2 274.1 C 285 275.5 283.4 276.4 281.4 276.4 C 277.6 276.4 275.2 273.2 275.2 268.8 Z M 281.1 263 C 278.5 263 277.5 265.8 277.4 267.9 C 277.4 267.9 284.7 267.9 284.7 267.9 C 284.7 265.7 283.7 263 281.1 263 Z M 289.7 276 L 289.7 261.5 L 291.8 261.5 C 291.8 261.5 291.8 263.84 291.8 263.8 C 292.7 262.3 294.1 261.2 295.9 261.2 C 295.9 261.2 295.9 263.5 295.9 263.5 C 295.7 263.4 295.4 263.4 295.2 263.4 C 293.9 263.4 292.4 264.5 291.8 265.7 C 291.8 265.73 291.8 276 291.8 276 L 289.7 276 Z M 301 276 L 296.3 261.5 L 298.6 261.5 L 302.2 273.5 L 305.9 261.5 L 308.2 261.5 L 303.4 276 L 301 276 Z M 309.3 268.8 C 309.3 264.6 311.5 261.2 315.2 261.2 C 319 261.2 320.9 264.6 320.9 268.8 C 320.93 268.82 320.9 269.5 320.9 269.5 C 320.9 269.5 311.54 269.48 311.5 269.5 C 311.6 272.4 313.1 274.6 315.7 274.6 C 317 274.6 318.3 274 319.2 272.8 C 319.2 272.8 320.3 274.1 320.3 274.1 C 319.1 275.5 317.5 276.4 315.5 276.4 C 311.7 276.4 309.3 273.2 309.3 268.8 Z M 315.2 263 C 312.6 263 311.6 265.8 311.5 267.9 C 311.5 267.9 318.8 267.9 318.8 267.9 C 318.8 265.7 317.8 263 315.2 263 Z M 329.5 258 C 329.5 257.2 330.2 256.5 331 256.5 C 331.8 256.5 332.4 257.2 332.4 258 C 332.4 258.8 331.8 259.4 331 259.4 C 330.2 259.4 329.5 258.8 329.5 258 Z M 329.9 276 L 329.9 261.5 L 332.1 261.5 L 332.1 276 L 329.9 276 Z M 336.1 273.1 C 336.14 273.11 336.1 263.4 336.1 263.4 L 334.2 263.4 L 334.2 261.5 L 336.1 261.5 L 336.1 257.6 L 338.3 257.6 L 338.3 261.5 L 340.8 261.5 L 340.8 263.4 L 338.3 263.4 C 338.3 263.4 338.3 272.72 338.3 272.7 C 338.3 273.8 338.6 274.5 339.5 274.5 C 340 274.5 340.5 274.2 340.7 273.9 C 340.7 273.9 341.4 275.5 341.4 275.5 C 340.9 276 340.2 276.4 339 276.4 C 337.1 276.4 336.1 275.3 336.1 273.1 Z M 356.9 276 C 356.9 276 356.9 274.46 356.9 274.5 C 356 275.8 354.6 276.4 353.1 276.4 C 350.7 276.4 348.7 274.6 348.7 271.6 C 348.7 268.5 350.7 266.8 353.1 266.8 C 354.6 266.8 356 267.4 356.9 268.6 C 356.9 268.6 356.9 266.1 356.9 266.1 C 356.9 264.1 355.8 263 353.9 263 C 352.6 263 351.4 263.5 350.3 264.8 C 350.3 264.8 349.3 263.3 349.3 263.3 C 350.7 261.8 352.4 261.2 354.3 261.2 C 357.1 261.2 359.1 262.6 359.1 265.9 C 359.06 265.88 359.1 276 359.1 276 L 356.9 276 Z M 356.9 273 C 356.9 273 356.9 270.2 356.9 270.2 C 356.2 269 355 268.4 353.8 268.4 C 352 268.4 350.9 269.8 350.9 271.6 C 350.9 273.4 352 274.8 353.8 274.8 C 355 274.8 356.2 274.2 356.9 273 Z M 361.5 274.3 C 361.5 274.3 362.6 272.8 362.6 272.8 C 363.4 273.8 364.8 274.6 366.4 274.6 C 368.1 274.6 369.2 273.7 369.2 272.3 C 369.2 268.9 361.9 270.1 361.9 265.1 C 361.9 262.9 363.7 261.2 366.6 261.2 C 368.5 261.2 369.9 261.9 371 263 C 371 263 369.9 264.5 369.9 264.5 C 369.2 263.5 368 262.9 366.6 262.9 C 365 262.9 364 263.8 364 265 C 364 268.1 371.2 267 371.2 272.2 C 371.2 274.6 369.4 276.4 366.4 276.4 C 364.4 276.4 362.7 275.7 361.5 274.3 Z M 387.6 276 C 387.6 276 387.59 274.46 387.6 274.5 C 386.7 275.8 385.2 276.4 383.8 276.4 C 381.4 276.4 379.4 274.6 379.4 271.6 C 379.4 268.5 381.4 266.8 383.8 266.8 C 385.2 266.8 386.7 267.4 387.6 268.6 C 387.6 268.6 387.6 266.1 387.6 266.1 C 387.6 264.1 386.5 263 384.6 263 C 383.3 263 382.1 263.5 381 264.8 C 381 264.8 380 263.3 380 263.3 C 381.4 261.8 383.1 261.2 384.9 261.2 C 387.8 261.2 389.7 262.6 389.7 265.9 C 389.75 265.88 389.7 276 389.7 276 L 387.6 276 Z M 387.6 273 C 387.6 273 387.6 270.2 387.6 270.2 C 386.9 269 385.7 268.4 384.5 268.4 C 382.7 268.4 381.6 269.8 381.6 271.6 C 381.6 273.4 382.7 274.8 384.5 274.8 C 385.7 274.8 386.9 274.2 387.6 273 Z M 407.8 276 C 407.8 276 407.81 273.95 407.8 274 C 407 275.4 405.5 276.4 404 276.4 C 400.8 276.4 398.8 273.4 398.8 268.8 C 398.8 264.3 400.7 261.2 404 261.2 C 405.5 261.2 406.9 262 407.8 263.6 C 407.81 263.63 407.8 256 407.8 256 L 410 256 L 410 276 L 407.8 276 Z M 407.8 272.1 C 407.8 272.1 407.8 265.5 407.8 265.5 C 407.3 264.2 405.9 263.1 404.5 263.1 C 402.2 263.1 401.1 265.6 401.1 268.8 C 401.1 271.9 402.2 274.5 404.5 274.5 C 405.9 274.5 407.3 273.4 407.8 272.1 Z M 413.2 258 C 413.2 257.2 413.9 256.5 414.7 256.5 C 415.5 256.5 416.1 257.2 416.1 258 C 416.1 258.8 415.5 259.4 414.7 259.4 C 413.9 259.4 413.2 258.8 413.2 258 Z M 413.6 276 L 413.6 261.5 L 415.8 261.5 L 415.8 276 L 413.6 276 Z M 421.5 273.9 C 421.55 273.92 421.5 281.5 421.5 281.5 L 419.4 281.5 L 419.4 261.5 L 421.5 261.5 C 421.5 261.5 421.55 263.6 421.5 263.6 C 422.4 262.1 423.8 261.2 425.4 261.2 C 428.6 261.2 430.5 264.2 430.5 268.8 C 430.5 273.3 428.6 276.4 425.4 276.4 C 423.9 276.4 422.4 275.5 421.5 273.9 Z M 428.3 268.8 C 428.3 265.6 427.2 263.1 424.8 263.1 C 423.5 263.1 422.1 264.2 421.5 265.4 C 421.5 265.4 421.5 272.1 421.5 272.1 C 422.1 273.3 423.5 274.5 424.8 274.5 C 427.2 274.5 428.3 271.9 428.3 268.8 Z M 447 276 C 447 276 447.05 274.46 447 274.5 C 446.1 275.8 444.7 276.4 443.2 276.4 C 440.9 276.4 438.9 274.6 438.9 271.6 C 438.9 268.5 440.9 266.8 443.2 266.8 C 444.7 266.8 446.1 267.4 447 268.6 C 447 268.6 447 266.1 447 266.1 C 447 264.1 446 263 444.1 263 C 442.7 263 441.6 263.5 440.4 264.8 C 440.4 264.8 439.5 263.3 439.5 263.3 C 440.9 261.8 442.6 261.2 444.4 261.2 C 447.3 261.2 449.2 262.6 449.2 265.9 C 449.21 265.88 449.2 276 449.2 276 L 447 276 Z M 447 273 C 447 273 447 270.2 447 270.2 C 446.4 269 445.2 268.4 443.9 268.4 C 442.1 268.4 441 269.8 441 271.6 C 441 273.4 442.1 274.8 443.9 274.8 C 445.2 274.8 446.4 274.2 447 273 Z M 460.7 276 C 460.7 276 460.67 265.7 460.7 265.7 C 460.7 263.8 459.8 263.1 458.4 263.1 C 456.9 263.1 455.6 264.2 455 265.4 C 454.97 265.4 455 276 455 276 L 452.8 276 L 452.8 261.5 L 455 261.5 C 455 261.5 454.97 263.6 455 263.6 C 455.8 262.3 457.4 261.2 459.2 261.2 C 461.6 261.2 462.8 262.5 462.8 265.1 C 462.83 265.1 462.8 276 462.8 276 L 460.7 276 Z M 474.8 276 C 474.8 276 474.77 273.95 474.8 274 C 473.9 275.4 472.5 276.4 471 276.4 C 467.7 276.4 465.8 273.4 465.8 268.8 C 465.8 264.3 467.7 261.2 471 261.2 C 472.4 261.2 473.9 262 474.8 263.6 C 474.77 263.63 474.8 256 474.8 256 L 476.9 256 L 476.9 276 L 474.8 276 Z M 474.8 272.1 C 474.8 272.1 474.8 265.5 474.8 265.5 C 474.2 264.2 472.9 263.1 471.5 263.1 C 469.1 263.1 468 265.6 468 268.8 C 468 271.9 469.1 274.5 471.5 274.5 C 472.9 274.5 474.2 273.4 474.8 272.1 Z M 479.6 276.6 L 485.4 255.4 L 487 255.4 L 481.3 276.6 L 479.6 276.6 Z M 489 268.8 C 489 264.7 491 261.2 494.9 261.2 C 498.8 261.2 500.8 264.7 500.8 268.8 C 500.8 272.8 498.8 276.4 494.9 276.4 C 491 276.4 489 272.8 489 268.8 Z M 498.5 268.8 C 498.5 265.9 497.4 263.1 494.9 263.1 C 492.4 263.1 491.2 265.9 491.2 268.8 C 491.2 271.7 492.4 274.5 494.9 274.5 C 497.4 274.5 498.5 271.7 498.5 268.8 Z M 503.7 276 L 503.7 261.5 L 505.8 261.5 C 505.8 261.5 505.84 263.84 505.8 263.8 C 506.8 262.3 508.2 261.2 510 261.2 C 510 261.2 510 263.5 510 263.5 C 509.7 263.4 509.5 263.4 509.2 263.4 C 507.9 263.4 506.4 264.5 505.8 265.7 C 505.84 265.73 505.8 276 505.8 276 L 503.7 276 Z M 526.1 276 C 526.1 276 526.12 274.01 526.1 274 C 525.3 275.3 523.7 276.4 521.9 276.4 C 519.5 276.4 518.3 275.2 518.3 272.5 C 518.29 272.51 518.3 261.5 518.3 261.5 L 520.4 261.5 C 520.4 261.5 520.42 271.88 520.4 271.9 C 520.4 273.8 521.3 274.5 522.7 274.5 C 524.2 274.5 525.5 273.4 526.1 272.2 C 526.12 272.21 526.1 261.5 526.1 261.5 L 528.3 261.5 L 528.3 276 L 526.1 276 Z M 530.8 274.3 C 530.8 274.3 531.9 272.8 531.9 272.8 C 532.7 273.8 534.1 274.6 535.6 274.6 C 537.3 274.6 538.4 273.7 538.4 272.3 C 538.4 268.9 531.2 270.1 531.2 265.1 C 531.2 262.9 532.9 261.2 535.8 261.2 C 537.7 261.2 539.2 261.9 540.2 263 C 540.2 263 539.2 264.5 539.2 264.5 C 538.5 263.5 537.3 262.9 535.8 262.9 C 534.3 262.9 533.3 263.8 533.3 265 C 533.3 268.1 540.5 267 540.5 272.2 C 540.5 274.6 538.6 276.4 535.7 276.4 C 533.6 276.4 532 275.7 530.8 274.3 Z M 542.5 268.8 C 542.5 264.6 544.8 261.2 548.4 261.2 C 552.2 261.2 554.1 264.6 554.1 268.8 C 554.14 268.82 554.1 269.5 554.1 269.5 C 554.1 269.5 544.75 269.48 544.8 269.5 C 544.8 272.4 546.3 274.6 548.9 274.6 C 550.2 274.6 551.5 274 552.4 272.8 C 552.4 272.8 553.5 274.1 553.5 274.1 C 552.3 275.5 550.7 276.4 548.7 276.4 C 544.9 276.4 542.5 273.2 542.5 268.8 Z M 548.4 263 C 545.8 263 544.8 265.8 544.8 267.9 C 544.8 267.9 552 267.9 552 267.9 C 552 265.7 551 263 548.4 263 Z M 562.7 258 C 562.7 257.2 563.4 256.5 564.2 256.5 C 565 256.5 565.7 257.2 565.7 258 C 565.7 258.8 565 259.4 564.2 259.4 C 563.4 259.4 562.7 258.8 562.7 258 Z M 563.1 276 L 563.1 261.5 L 565.3 261.5 L 565.3 276 L 563.1 276 Z M 569.4 273.1 C 569.35 273.11 569.4 263.4 569.4 263.4 L 567.4 263.4 L 567.4 261.5 L 569.4 261.5 L 569.4 257.6 L 571.5 257.6 L 571.5 261.5 L 574 261.5 L 574 263.4 L 571.5 263.4 C 571.5 263.4 571.51 272.72 571.5 272.7 C 571.5 273.8 571.8 274.5 572.7 274.5 C 573.2 274.5 573.7 274.2 573.9 273.9 C 573.9 273.9 574.6 275.5 574.6 275.5 C 574.1 276 573.4 276.4 572.3 276.4 C 570.3 276.4 569.4 275.3 569.4 273.1 Z M 583.1 273.1 C 583.09 273.11 583.1 263.4 583.1 263.4 L 581.2 263.4 L 581.2 261.5 L 583.1 261.5 L 583.1 257.6 L 585.3 257.6 L 585.3 261.5 L 587.7 261.5 L 587.7 263.4 L 585.3 263.4 C 585.3 263.4 585.25 272.72 585.3 272.7 C 585.3 273.8 585.6 274.5 586.4 274.5 C 587 274.5 587.4 274.2 587.7 273.9 C 587.7 273.9 588.3 275.5 588.3 275.5 C 587.8 276 587.1 276.4 586 276.4 C 584 276.4 583.1 275.3 583.1 273.1 Z M 589.5 268.8 C 589.5 264.7 591.6 261.2 595.4 261.2 C 599.3 261.2 601.3 264.7 601.3 268.8 C 601.3 272.8 599.3 276.4 595.4 276.4 C 591.6 276.4 589.5 272.8 589.5 268.8 Z M 599.1 268.8 C 599.1 265.9 598 263.1 595.4 263.1 C 592.9 263.1 591.8 265.9 591.8 268.8 C 591.8 271.7 592.9 274.5 595.4 274.5 C 598 274.5 599.1 271.7 599.1 268.8 Z " stroke="none" fill="#efd8d3"/>  </g>  <g id="Polygon170400">    <path d="M 35.7 202.5 C 38.1 202.5 39.2 199.9 39.2 196.8 C 39.2 193.6 38.1 191.1 35.7 191.1 C 34.4 191.1 33 192.2 32.5 193.5 C 32.5 193.5 32.5 200.1 32.5 200.1 C 33 201.4 34.4 202.5 35.7 202.5 Z M 30.3 204 L 30.3 184 L 32.5 184 C 32.5 184 32.46 191.63 32.5 191.6 C 33.4 190 34.8 189.2 36.3 189.2 C 39.5 189.2 41.5 192.3 41.5 196.8 C 41.5 201.4 39.5 204.4 36.3 204.4 C 34.7 204.4 33.3 203.4 32.5 202 C 32.46 201.95 32.5 204 32.5 204 L 30.3 204 Z M 44.4 204 L 44.4 189.5 L 46.6 189.5 C 46.6 189.5 46.56 191.84 46.6 191.8 C 47.5 190.3 48.9 189.2 50.7 189.2 C 50.7 189.2 50.7 191.5 50.7 191.5 C 50.4 191.4 50.2 191.4 49.9 191.4 C 48.6 191.4 47.2 192.5 46.6 193.7 C 46.56 193.73 46.6 204 46.6 204 L 44.4 204 Z M 52.1 196.8 C 52.1 192.7 54.2 189.2 58 189.2 C 61.9 189.2 63.9 192.7 63.9 196.8 C 63.9 200.8 61.9 204.4 58 204.4 C 54.2 204.4 52.1 200.8 52.1 196.8 Z M 61.7 196.8 C 61.7 193.9 60.6 191.1 58 191.1 C 55.5 191.1 54.4 193.9 54.4 196.8 C 54.4 199.7 55.5 202.5 58 202.5 C 60.6 202.5 61.7 199.7 61.7 196.8 Z M 77.5 204 L 74.5 192.4 L 71.3 204 L 69.1 204 L 65.3 189.5 L 67.5 189.5 L 70.3 201.1 L 73.4 189.5 L 75.4 189.5 L 78.5 201.1 L 81.4 189.5 L 83.6 189.5 L 79.8 204 L 77.5 204 Z M 93.5 204 C 93.5 204 93.54 193.7 93.5 193.7 C 93.5 191.8 92.7 191.1 91.2 191.1 C 89.8 191.1 88.5 192.2 87.8 193.4 C 87.84 193.4 87.8 204 87.8 204 L 85.7 204 L 85.7 189.5 L 87.8 189.5 C 87.8 189.5 87.84 191.6 87.8 191.6 C 88.7 190.3 90.3 189.2 92 189.2 C 94.5 189.2 95.7 190.5 95.7 193.1 C 95.7 193.1 95.7 204 95.7 204 L 93.5 204 Z M 105.9 201.1 C 105.92 201.11 105.9 191.4 105.9 191.4 L 104 191.4 L 104 189.5 L 105.9 189.5 L 105.9 185.6 L 108.1 185.6 L 108.1 189.5 L 110.5 189.5 L 110.5 191.4 L 108.1 191.4 C 108.1 191.4 108.08 200.72 108.1 200.7 C 108.1 201.8 108.4 202.5 109.3 202.5 C 109.8 202.5 110.2 202.2 110.5 201.9 C 110.5 201.9 111.2 203.5 111.2 203.5 C 110.7 204 109.9 204.4 108.8 204.4 C 106.9 204.4 105.9 203.3 105.9 201.1 Z M 112.7 186 C 112.7 185.2 113.4 184.5 114.1 184.5 C 115 184.5 115.6 185.2 115.6 186 C 115.6 186.8 115 187.4 114.1 187.4 C 113.4 187.4 112.7 186.8 112.7 186 Z M 113.1 204 L 113.1 189.5 L 115.2 189.5 L 115.2 204 L 113.1 204 Z M 126.7 204 C 126.7 204 126.71 193.7 126.7 193.7 C 126.7 191.8 125.8 191.1 124.4 191.1 C 123 191.1 121.7 192.2 121 193.4 C 121.01 193.4 121 204 121 204 L 118.9 204 L 118.9 189.5 L 121 189.5 C 121 189.5 121.01 191.6 121 191.6 C 121.9 190.3 123.5 189.2 125.2 189.2 C 127.7 189.2 128.9 190.5 128.9 193.1 C 128.87 193.1 128.9 204 128.9 204 L 126.7 204 Z M 132.4 208.1 C 132.4 208.1 133.4 206.4 133.4 206.4 C 134.4 207.5 135.6 208.1 137.2 208.1 C 139.2 208.1 140.8 206.9 140.8 204.1 C 140.8 204.1 140.8 201.7 140.8 201.7 C 140 203.2 138.5 204.2 137 204.2 C 133.8 204.2 131.8 201.3 131.8 196.7 C 131.8 192.2 133.7 189.2 137 189.2 C 138.5 189.2 139.9 190 140.8 191.6 C 140.81 191.63 140.8 189.5 140.8 189.5 L 143 189.5 C 143 189.5 142.97 203.99 143 204 C 143 208.5 140.3 209.9 137.2 209.9 C 135.3 209.9 133.8 209.5 132.4 208.1 Z M 140.8 199.9 C 140.8 199.9 140.8 193.5 140.8 193.5 C 140.3 192.2 138.9 191.1 137.5 191.1 C 135.2 191.1 134.1 193.6 134.1 196.7 C 134.1 199.8 135.2 202.3 137.5 202.3 C 138.9 202.3 140.3 201.1 140.8 199.9 Z M 145.9 196.8 C 145.9 192.6 148.1 189.2 151.8 189.2 C 155.6 189.2 157.5 192.6 157.5 196.8 C 157.49 196.82 157.5 197.5 157.5 197.5 C 157.5 197.5 148.1 197.48 148.1 197.5 C 148.2 200.4 149.7 202.6 152.3 202.6 C 153.5 202.6 154.8 202 155.7 200.8 C 155.7 200.8 156.9 202.1 156.9 202.1 C 155.7 203.5 154 204.4 152.1 204.4 C 148.2 204.4 145.9 201.2 145.9 196.8 Z M 151.7 191 C 149.2 191 148.2 193.8 148.1 195.9 C 148.1 195.9 155.4 195.9 155.4 195.9 C 155.3 193.7 154.4 191 151.7 191 Z M 160.1 202.7 C 160.1 201.9 160.8 201.1 161.7 201.1 C 162.5 201.1 163.3 201.9 163.3 202.7 C 163.3 203.6 162.5 204.3 161.7 204.3 C 160.8 204.3 160.1 203.6 160.1 202.7 Z M 183.4 204 L 182.2 199.5 L 175 199.5 L 173.8 204 L 171.2 204 L 177.2 184 L 180 184 L 186 204 L 183.4 204 Z M 178.6 186.7 L 175.6 197.4 L 181.6 197.4 L 178.6 186.7 Z M 196.2 204 C 196.2 204 196.16 201.95 196.2 202 C 195.3 203.4 193.9 204.4 192.4 204.4 C 189.1 204.4 187.2 201.4 187.2 196.8 C 187.2 192.3 189.1 189.2 192.4 189.2 C 193.8 189.2 195.3 190 196.2 191.6 C 196.16 191.63 196.2 184 196.2 184 L 198.3 184 L 198.3 204 L 196.2 204 Z M 196.2 200.1 C 196.2 200.1 196.2 193.5 196.2 193.5 C 195.6 192.2 194.3 191.1 192.9 191.1 C 190.5 191.1 189.4 193.6 189.4 196.8 C 189.4 199.9 190.5 202.5 192.9 202.5 C 194.3 202.5 195.6 201.4 196.2 200.1 Z M 210.3 204 C 210.3 204 210.26 201.95 210.3 202 C 209.4 203.4 208 204.4 206.5 204.4 C 203.2 204.4 201.3 201.4 201.3 196.8 C 201.3 192.3 203.2 189.2 206.5 189.2 C 207.9 189.2 209.4 190 210.3 191.6 C 210.26 191.63 210.3 184 210.3 184 L 212.4 184 L 212.4 204 L 210.3 204 Z M 210.3 200.1 C 210.3 200.1 210.3 193.5 210.3 193.5 C 209.7 192.2 208.4 191.1 207 191.1 C 204.6 191.1 203.5 193.6 203.5 196.8 C 203.5 199.9 204.6 202.5 207 202.5 C 208.4 202.5 209.7 201.4 210.3 200.1 Z M 230.1 204 C 230.1 204 230.06 202.01 230.1 202 C 229.2 203.3 227.7 204.4 225.9 204.4 C 223.4 204.4 222.2 203.2 222.2 200.5 C 222.23 200.51 222.2 189.5 222.2 189.5 L 224.4 189.5 C 224.4 189.5 224.36 199.88 224.4 199.9 C 224.4 201.8 225.3 202.5 226.7 202.5 C 228.1 202.5 229.4 201.4 230.1 200.2 C 230.06 200.21 230.1 189.5 230.1 189.5 L 232.2 189.5 L 232.2 204 L 230.1 204 Z M 243.7 204 C 243.7 204 243.71 193.7 243.7 193.7 C 243.7 191.8 242.8 191.1 241.4 191.1 C 240 191.1 238.7 192.2 238 193.4 C 238.01 193.4 238 204 238 204 L 235.9 204 L 235.9 189.5 L 238 189.5 C 238 189.5 238.01 191.6 238 191.6 C 238.9 190.3 240.5 189.2 242.2 189.2 C 244.7 189.2 245.9 190.5 245.9 193.1 C 245.87 193.1 245.9 204 245.9 204 L 243.7 204 Z M 250 201.1 C 249.95 201.11 250 191.4 250 191.4 L 248 191.4 L 248 189.5 L 250 189.5 L 250 185.6 L 252.1 185.6 L 252.1 189.5 L 254.6 189.5 L 254.6 191.4 L 252.1 191.4 C 252.1 191.4 252.11 200.72 252.1 200.7 C 252.1 201.8 252.4 202.5 253.3 202.5 C 253.8 202.5 254.3 202.2 254.5 201.9 C 254.5 201.9 255.2 203.5 255.2 203.5 C 254.7 204 254 204.4 252.9 204.4 C 250.9 204.4 250 203.3 250 201.1 Z M 256.7 186 C 256.7 185.2 257.4 184.5 258.2 184.5 C 259 184.5 259.6 185.2 259.6 186 C 259.6 186.8 259 187.4 258.2 187.4 C 257.4 187.4 256.7 186.8 256.7 186 Z M 257.1 204 L 257.1 189.5 L 259.3 189.5 L 259.3 204 L 257.1 204 Z M 262.9 204 L 262.9 184 L 265 184 L 265 204 L 262.9 204 Z M 283.1 204 C 283.1 204 283.13 201.95 283.1 202 C 282.3 203.4 280.9 204.4 279.3 204.4 C 276.1 204.4 274.1 201.4 274.1 196.8 C 274.1 192.3 276.1 189.2 279.3 189.2 C 280.8 189.2 282.3 190 283.1 191.6 C 283.13 191.63 283.1 184 283.1 184 L 285.3 184 L 285.3 204 L 283.1 204 Z M 283.1 200.1 C 283.1 200.1 283.1 193.5 283.1 193.5 C 282.6 192.2 281.2 191.1 279.9 191.1 C 277.5 191.1 276.4 193.6 276.4 196.8 C 276.4 199.9 277.5 202.5 279.9 202.5 C 281.2 202.5 282.6 201.4 283.1 200.1 Z M 288.2 196.8 C 288.2 192.6 290.5 189.2 294.1 189.2 C 297.9 189.2 299.8 192.6 299.8 196.8 C 299.84 196.82 299.8 197.5 299.8 197.5 C 299.8 197.5 290.45 197.48 290.5 197.5 C 290.5 200.4 292 202.6 294.6 202.6 C 295.9 202.6 297.2 202 298.1 200.8 C 298.1 200.8 299.2 202.1 299.2 202.1 C 298 203.5 296.4 204.4 294.4 204.4 C 290.6 204.4 288.2 201.2 288.2 196.8 Z M 294.1 191 C 291.5 191 290.5 193.8 290.5 195.9 C 290.5 195.9 297.7 195.9 297.7 195.9 C 297.7 193.7 296.7 191 294.1 191 Z M 301.5 202.3 C 301.5 202.3 302.6 200.8 302.6 200.8 C 303.4 201.8 304.8 202.6 306.4 202.6 C 308.1 202.6 309.2 201.7 309.2 200.3 C 309.2 196.9 301.9 198.1 301.9 193.1 C 301.9 190.9 303.7 189.2 306.6 189.2 C 308.5 189.2 310 189.9 311 191 C 311 191 310 192.5 310 192.5 C 309.2 191.5 308 190.9 306.6 190.9 C 305 190.9 304 191.8 304 193 C 304 196.1 311.2 195 311.2 200.2 C 311.2 202.6 309.4 204.4 306.4 204.4 C 304.4 204.4 302.7 203.7 301.5 202.3 Z M 313.6 186 C 313.6 185.2 314.3 184.5 315.1 184.5 C 315.9 184.5 316.5 185.2 316.5 186 C 316.5 186.8 315.9 187.4 315.1 187.4 C 314.3 187.4 313.6 186.8 313.6 186 Z M 314 204 L 314 189.5 L 316.1 189.5 L 316.1 204 L 314 204 Z M 319.8 204 L 319.8 189.5 L 321.9 189.5 C 321.9 189.5 321.92 191.84 321.9 191.8 C 322.8 190.3 324.3 189.2 326 189.2 C 326 189.2 326 191.5 326 191.5 C 325.8 191.4 325.5 191.4 325.3 191.4 C 324 191.4 322.5 192.5 321.9 193.7 C 321.92 193.73 321.9 204 321.9 204 L 319.8 204 Z M 327.5 196.8 C 327.5 192.6 329.7 189.2 333.4 189.2 C 337.2 189.2 339.1 192.6 339.1 196.8 C 339.11 196.82 339.1 197.5 339.1 197.5 C 339.1 197.5 329.72 197.48 329.7 197.5 C 329.8 200.4 331.3 202.6 333.9 202.6 C 335.1 202.6 336.4 202 337.3 200.8 C 337.3 200.8 338.5 202.1 338.5 202.1 C 337.3 203.5 335.7 204.4 333.7 204.4 C 329.8 204.4 327.5 201.2 327.5 196.8 Z M 333.3 191 C 330.8 191 329.8 193.8 329.7 195.9 C 329.7 195.9 337 195.9 337 195.9 C 336.9 193.7 336 191 333.3 191 Z M 350.2 204 C 350.2 204 350.24 201.95 350.2 202 C 349.4 203.4 348 204.4 346.4 204.4 C 343.2 204.4 341.2 201.4 341.2 196.8 C 341.2 192.3 343.2 189.2 346.4 189.2 C 347.9 189.2 349.4 190 350.2 191.6 C 350.24 191.63 350.2 184 350.2 184 L 352.4 184 L 352.4 204 L 350.2 204 Z M 350.2 200.1 C 350.2 200.1 350.2 193.5 350.2 193.5 C 349.7 192.2 348.3 191.1 347 191.1 C 344.6 191.1 343.5 193.6 343.5 196.8 C 343.5 199.9 344.6 202.5 347 202.5 C 348.3 202.5 349.7 201.4 350.2 200.1 Z M 361.5 196.8 C 361.5 192.5 363.8 189.2 367.5 189.2 C 369.5 189.2 370.7 190 371.6 191.1 C 371.6 191.1 370.5 192.6 370.5 192.6 C 369.7 191.5 368.8 191.1 367.7 191.1 C 365.1 191.1 363.7 193.7 363.7 196.8 C 363.7 199.9 365.1 202.5 367.7 202.5 C 368.8 202.5 369.7 202 370.5 201 C 370.5 201 371.6 202.5 371.6 202.5 C 370.7 203.6 369.5 204.4 367.5 204.4 C 363.8 204.4 361.5 201.1 361.5 196.8 Z M 373.4 196.8 C 373.4 192.7 375.4 189.2 379.2 189.2 C 383.1 189.2 385.2 192.7 385.2 196.8 C 385.2 200.8 383.1 204.4 379.2 204.4 C 375.4 204.4 373.4 200.8 373.4 196.8 Z M 382.9 196.8 C 382.9 193.9 381.8 191.1 379.2 191.1 C 376.8 191.1 375.6 193.9 375.6 196.8 C 375.6 199.7 376.8 202.5 379.2 202.5 C 381.8 202.5 382.9 199.7 382.9 196.8 Z M 388.1 204 L 388.1 184 L 390.2 184 L 390.2 204 L 388.1 204 Z M 393.2 196.8 C 393.2 192.7 395.2 189.2 399 189.2 C 402.9 189.2 405 192.7 405 196.8 C 405 200.8 402.9 204.4 399 204.4 C 395.2 204.4 393.2 200.8 393.2 196.8 Z M 402.7 196.8 C 402.7 193.9 401.6 191.1 399 191.1 C 396.6 191.1 395.4 193.9 395.4 196.8 C 395.4 199.7 396.6 202.5 399 202.5 C 401.6 202.5 402.7 199.7 402.7 196.8 Z M 415.7 204 C 415.7 204 415.73 202.01 415.7 202 C 414.9 203.3 413.3 204.4 411.5 204.4 C 409.1 204.4 407.9 203.2 407.9 200.5 C 407.9 200.51 407.9 189.5 407.9 189.5 L 410 189.5 C 410 189.5 410.03 199.88 410 199.9 C 410 201.8 410.9 202.5 412.3 202.5 C 413.8 202.5 415.1 201.4 415.7 200.2 C 415.73 200.21 415.7 189.5 415.7 189.5 L 417.9 189.5 L 417.9 204 L 415.7 204 Z M 421.5 204 L 421.5 189.5 L 423.7 189.5 C 423.7 189.5 423.68 191.84 423.7 191.8 C 424.6 190.3 426 189.2 427.8 189.2 C 427.8 189.2 427.8 191.5 427.8 191.5 C 427.5 191.4 427.3 191.4 427.1 191.4 C 425.7 191.4 424.3 192.5 423.7 193.7 C 423.68 193.73 423.7 204 423.7 204 L 421.5 204 Z M 435.7 186 C 435.7 185.2 436.4 184.5 437.2 184.5 C 438 184.5 438.6 185.2 438.6 186 C 438.6 186.8 438 187.4 437.2 187.4 C 436.4 187.4 435.7 186.8 435.7 186 Z M 436.1 204 L 436.1 189.5 L 438.3 189.5 L 438.3 204 L 436.1 204 Z M 440.7 202.3 C 440.7 202.3 441.8 200.8 441.8 200.8 C 442.7 201.8 444 202.6 445.6 202.6 C 447.3 202.6 448.4 201.7 448.4 200.3 C 448.4 196.9 441.2 198.1 441.2 193.1 C 441.2 190.9 442.9 189.2 445.8 189.2 C 447.7 189.2 449.2 189.9 450.2 191 C 450.2 191 449.2 192.5 449.2 192.5 C 448.5 191.5 447.2 190.9 445.8 190.9 C 444.2 190.9 443.2 191.8 443.2 193 C 443.2 196.1 450.5 195 450.5 200.2 C 450.5 202.6 448.6 204.4 445.6 204.4 C 443.6 204.4 441.9 203.7 440.7 202.3 Z M 466.8 204 C 466.8 204 466.82 202.46 466.8 202.5 C 465.9 203.8 464.5 204.4 463 204.4 C 460.7 204.4 458.6 202.6 458.6 199.6 C 458.6 196.5 460.6 194.8 463 194.8 C 464.5 194.8 465.9 195.4 466.8 196.6 C 466.8 196.6 466.8 194.1 466.8 194.1 C 466.8 192.1 465.7 191 463.8 191 C 462.5 191 461.3 191.5 460.2 192.8 C 460.2 192.8 459.3 191.3 459.3 191.3 C 460.6 189.8 462.3 189.2 464.2 189.2 C 467.1 189.2 469 190.6 469 193.9 C 468.98 193.88 469 204 469 204 L 466.8 204 Z M 466.8 201 C 466.8 201 466.8 198.2 466.8 198.2 C 466.2 197 465 196.4 463.7 196.4 C 461.9 196.4 460.8 197.8 460.8 199.6 C 460.8 201.4 461.9 202.8 463.7 202.8 C 465 202.8 466.2 202.2 466.8 201 Z M 471.9 196.8 C 471.9 192.5 474.2 189.2 477.9 189.2 C 479.9 189.2 481.1 190 482 191.1 C 482 191.1 480.9 192.6 480.9 192.6 C 480.1 191.5 479.2 191.1 478.1 191.1 C 475.5 191.1 474.1 193.7 474.1 196.8 C 474.1 199.9 475.5 202.5 478.1 202.5 C 479.2 202.5 480.1 202 480.9 201 C 480.9 201 482 202.5 482 202.5 C 481.1 203.6 479.9 204.4 477.9 204.4 C 474.2 204.4 471.9 201.1 471.9 196.8 Z M 492.3 204 C 492.3 204 492.35 193.67 492.3 193.7 C 492.3 191.8 491.4 191.1 490 191.1 C 488.6 191.1 487.3 192.2 486.6 193.4 C 486.62 193.4 486.6 204 486.6 204 L 484.5 204 L 484.5 184 L 486.6 184 C 486.6 184 486.62 191.6 486.6 191.6 C 487.5 190.3 489.1 189.2 490.8 189.2 C 493.3 189.2 494.5 190.4 494.5 193 C 494.48 193.04 494.5 204 494.5 204 L 492.3 204 Z M 497.7 186 C 497.7 185.2 498.4 184.5 499.2 184.5 C 500 184.5 500.7 185.2 500.7 186 C 500.7 186.8 500 187.4 499.2 187.4 C 498.4 187.4 497.7 186.8 497.7 186 Z M 498.1 204 L 498.1 189.5 L 500.3 189.5 L 500.3 204 L 498.1 204 Z M 503.2 196.8 C 503.2 192.6 505.4 189.2 509.1 189.2 C 512.9 189.2 514.8 192.6 514.8 196.8 C 514.81 196.82 514.8 197.5 514.8 197.5 C 514.8 197.5 505.43 197.48 505.4 197.5 C 505.5 200.4 507 202.6 509.6 202.6 C 510.9 202.6 512.1 202 513 200.8 C 513 200.8 514.2 202.1 514.2 202.1 C 513 203.5 511.4 204.4 509.4 204.4 C 505.5 204.4 503.2 201.2 503.2 196.8 Z M 509.1 191 C 506.5 191 505.5 193.8 505.4 195.9 C 505.4 195.9 512.7 195.9 512.7 195.9 C 512.7 193.7 511.7 191 509.1 191 Z M 520.6 204 L 515.9 189.5 L 518.2 189.5 L 521.8 201.5 L 525.4 189.5 L 527.7 189.5 L 523 204 L 520.6 204 Z M 528.9 196.8 C 528.9 192.6 531.1 189.2 534.8 189.2 C 538.6 189.2 540.5 192.6 540.5 196.8 C 540.49 196.82 540.5 197.5 540.5 197.5 C 540.5 197.5 531.1 197.48 531.1 197.5 C 531.2 200.4 532.7 202.6 535.3 202.6 C 536.5 202.6 537.8 202 538.7 200.8 C 538.7 200.8 539.9 202.1 539.9 202.1 C 538.7 203.5 537 204.4 535.1 204.4 C 531.2 204.4 528.9 201.2 528.9 196.8 Z M 534.7 191 C 532.2 191 531.2 193.8 531.1 195.9 C 531.1 195.9 538.4 195.9 538.4 195.9 C 538.3 193.7 537.4 191 534.7 191 Z M 551.6 204 C 551.6 204 551.62 201.95 551.6 202 C 550.8 203.4 549.3 204.4 547.8 204.4 C 544.6 204.4 542.6 201.4 542.6 196.8 C 542.6 192.3 544.5 189.2 547.8 189.2 C 549.3 189.2 550.8 190 551.6 191.6 C 551.62 191.63 551.6 184 551.6 184 L 553.8 184 L 553.8 204 L 551.6 204 Z M 551.6 200.1 C 551.6 200.1 551.6 193.5 551.6 193.5 C 551.1 192.2 549.7 191.1 548.4 191.1 C 546 191.1 544.9 193.6 544.9 196.8 C 544.9 199.9 546 202.5 548.4 202.5 C 549.7 202.5 551.1 201.4 551.6 200.1 Z M 557.3 202.7 C 557.3 201.9 558 201.1 558.9 201.1 C 559.8 201.1 560.5 201.9 560.5 202.7 C 560.5 203.6 559.8 204.3 558.9 204.3 C 558 204.3 557.3 203.6 557.3 202.7 Z " stroke="none" fill="#efd8d3"/>  </g>  <g id="Polygon170399">    <path d="M 29.6 160.8 C 29.6 156.6 31.8 153.2 35.5 153.2 C 39.3 153.2 41.2 156.6 41.2 160.8 C 41.22 160.82 41.2 161.5 41.2 161.5 C 41.2 161.5 31.83 161.48 31.8 161.5 C 31.9 164.4 33.4 166.6 36 166.6 C 37.3 166.6 38.5 166 39.4 164.8 C 39.4 164.8 40.6 166.1 40.6 166.1 C 39.4 167.5 37.8 168.4 35.8 168.4 C 31.9 168.4 29.6 165.2 29.6 160.8 Z M 35.5 155 C 32.9 155 31.9 157.8 31.8 159.9 C 31.8 159.9 39.1 159.9 39.1 159.9 C 39.1 157.7 38.1 155 35.5 155 Z M 42.9 166.3 C 42.9 166.3 44 164.8 44 164.8 C 44.8 165.8 46.2 166.6 47.8 166.6 C 49.4 166.6 50.5 165.7 50.5 164.3 C 50.5 160.9 43.3 162.1 43.3 157.1 C 43.3 154.9 45.1 153.2 47.9 153.2 C 49.9 153.2 51.3 153.9 52.3 155 C 52.3 155 51.3 156.5 51.3 156.5 C 50.6 155.5 49.4 154.9 48 154.9 C 46.4 154.9 45.4 155.8 45.4 157 C 45.4 160.1 52.6 159 52.6 164.2 C 52.6 166.6 50.8 168.4 47.8 168.4 C 45.7 168.4 44.1 167.7 42.9 166.3 Z M 55.8 165.1 C 55.8 165.11 55.8 155.4 55.8 155.4 L 53.9 155.4 L 53.9 153.5 L 55.8 153.5 L 55.8 149.6 L 58 149.6 L 58 153.5 L 60.4 153.5 L 60.4 155.4 L 58 155.4 C 58 155.4 57.96 164.72 58 164.7 C 58 165.8 58.3 166.5 59.1 166.5 C 59.7 166.5 60.1 166.2 60.4 165.9 C 60.4 165.9 61 167.5 61 167.5 C 60.5 168 59.8 168.4 58.7 168.4 C 56.7 168.4 55.8 167.3 55.8 165.1 Z M 62.2 160.8 C 62.2 156.6 64.5 153.2 68.1 153.2 C 71.9 153.2 73.9 156.6 73.9 160.8 C 73.86 160.82 73.9 161.5 73.9 161.5 C 73.9 161.5 64.47 161.48 64.5 161.5 C 64.6 164.4 66.1 166.6 68.6 166.6 C 69.9 166.6 71.2 166 72.1 164.8 C 72.1 164.8 73.2 166.1 73.2 166.1 C 72.1 167.5 70.4 168.4 68.5 168.4 C 64.6 168.4 62.2 165.2 62.2 160.8 Z M 68.1 155 C 65.5 155 64.5 157.8 64.5 159.9 C 64.5 159.9 71.7 159.9 71.7 159.9 C 71.7 157.7 70.7 155 68.1 155 Z M 76.7 168 L 76.7 153.5 L 78.8 153.5 C 78.8 153.5 78.84 155.84 78.8 155.8 C 79.8 154.3 81.2 153.2 82.9 153.2 C 82.9 153.2 82.9 155.5 82.9 155.5 C 82.7 155.4 82.5 155.4 82.2 155.4 C 80.9 155.4 79.4 156.5 78.8 157.7 C 78.84 157.73 78.8 168 78.8 168 L 76.7 168 Z M 92.6 168 C 92.6 168 92.57 166.46 92.6 166.5 C 91.6 167.8 90.2 168.4 88.8 168.4 C 86.4 168.4 84.4 166.6 84.4 163.6 C 84.4 160.5 86.4 158.8 88.8 158.8 C 90.2 158.8 91.7 159.4 92.6 160.6 C 92.6 160.6 92.6 158.1 92.6 158.1 C 92.6 156.1 91.5 155 89.6 155 C 88.3 155 87.1 155.5 86 156.8 C 86 156.8 85 155.3 85 155.3 C 86.4 153.8 88.1 153.2 89.9 153.2 C 92.8 153.2 94.7 154.6 94.7 157.9 C 94.73 157.88 94.7 168 94.7 168 L 92.6 168 Z M 92.6 165 C 92.6 165 92.6 162.2 92.6 162.2 C 91.9 161 90.7 160.4 89.5 160.4 C 87.7 160.4 86.6 161.8 86.6 163.6 C 86.6 165.4 87.7 166.8 89.5 166.8 C 90.7 166.8 91.9 166.2 92.6 165 Z M 97.2 166.3 C 97.2 166.3 98.3 164.8 98.3 164.8 C 99.1 165.8 100.5 166.6 102.1 166.6 C 103.7 166.6 104.8 165.7 104.8 164.3 C 104.8 160.9 97.6 162.1 97.6 157.1 C 97.6 154.9 99.4 153.2 102.2 153.2 C 104.2 153.2 105.6 153.9 106.6 155 C 106.6 155 105.6 156.5 105.6 156.5 C 104.9 155.5 103.7 154.9 102.3 154.9 C 100.7 154.9 99.7 155.8 99.7 157 C 99.7 160.1 106.9 159 106.9 164.2 C 106.9 166.6 105.1 168.4 102.1 168.4 C 100 168.4 98.4 167.7 97.2 166.3 Z M 109 160.8 C 109 156.6 111.2 153.2 114.8 153.2 C 118.6 153.2 120.6 156.6 120.6 160.8 C 120.56 160.82 120.6 161.5 120.6 161.5 C 120.6 161.5 111.17 161.48 111.2 161.5 C 111.3 164.4 112.8 166.6 115.3 166.6 C 116.6 166.6 117.9 166 118.8 164.8 C 118.8 164.8 119.9 166.1 119.9 166.1 C 118.8 167.5 117.1 168.4 115.2 168.4 C 111.3 168.4 109 165.2 109 160.8 Z M 114.8 155 C 112.3 155 111.2 157.8 111.2 159.9 C 111.2 159.9 118.4 159.9 118.4 159.9 C 118.4 157.7 117.4 155 114.8 155 Z M 128.4 166.3 C 128.4 166.3 129.5 164.8 129.5 164.8 C 130.3 165.8 131.7 166.6 133.3 166.6 C 134.9 166.6 136 165.7 136 164.3 C 136 160.9 128.8 162.1 128.8 157.1 C 128.8 154.9 130.6 153.2 133.4 153.2 C 135.4 153.2 136.8 153.9 137.8 155 C 137.8 155 136.8 156.5 136.8 156.5 C 136.1 155.5 134.9 154.9 133.5 154.9 C 131.9 154.9 130.9 155.8 130.9 157 C 130.9 160.1 138.1 159 138.1 164.2 C 138.1 166.6 136.3 168.4 133.3 168.4 C 131.2 168.4 129.6 167.7 128.4 166.3 Z M 148.7 168 C 148.7 168 148.73 157.67 148.7 157.7 C 148.7 155.8 147.8 155.1 146.4 155.1 C 145 155.1 143.7 156.2 143 157.4 C 143 157.4 143 168 143 168 L 140.9 168 L 140.9 148 L 143 148 C 143 148 143 155.6 143 155.6 C 143.8 154.3 145.5 153.2 147.2 153.2 C 149.7 153.2 150.9 154.4 150.9 157 C 150.86 157.04 150.9 168 150.9 168 L 148.7 168 Z M 153.8 160.8 C 153.8 156.7 155.8 153.2 159.7 153.2 C 163.6 153.2 165.6 156.7 165.6 160.8 C 165.6 164.8 163.6 168.4 159.7 168.4 C 155.8 168.4 153.8 164.8 153.8 160.8 Z M 163.3 160.8 C 163.3 157.9 162.2 155.1 159.7 155.1 C 157.2 155.1 156.1 157.9 156.1 160.8 C 156.1 163.7 157.2 166.5 159.7 166.5 C 162.2 166.5 163.3 163.7 163.3 160.8 Z M 176.4 168 C 176.4 168 176.36 166.01 176.4 166 C 175.5 167.3 174 168.4 172.2 168.4 C 169.7 168.4 168.5 167.2 168.5 164.5 C 168.53 164.51 168.5 153.5 168.5 153.5 L 170.7 153.5 C 170.7 153.5 170.66 163.88 170.7 163.9 C 170.7 165.8 171.6 166.5 173 166.5 C 174.4 166.5 175.7 165.4 176.4 164.2 C 176.36 164.21 176.4 153.5 176.4 153.5 L 178.5 153.5 L 178.5 168 L 176.4 168 Z M 182.2 168 L 182.2 148 L 184.3 148 L 184.3 168 L 182.2 168 Z M 196.3 168 C 196.3 168 196.25 165.95 196.3 166 C 195.4 167.4 194 168.4 192.4 168.4 C 189.2 168.4 187.3 165.4 187.3 160.8 C 187.3 156.3 189.2 153.2 192.4 153.2 C 193.9 153.2 195.4 154 196.3 155.6 C 196.25 155.63 196.3 148 196.3 148 L 198.4 148 L 198.4 168 L 196.3 168 Z M 196.3 164.1 C 196.3 164.1 196.3 157.5 196.3 157.5 C 195.7 156.2 194.4 155.1 193 155.1 C 190.6 155.1 189.5 157.6 189.5 160.8 C 189.5 163.9 190.6 166.5 193 166.5 C 194.4 166.5 195.7 165.4 196.3 164.1 Z M 207.5 160.8 C 207.5 156.5 209.8 153.2 213.5 153.2 C 215.5 153.2 216.7 154 217.6 155.1 C 217.6 155.1 216.5 156.6 216.5 156.6 C 215.7 155.5 214.8 155.1 213.7 155.1 C 211.1 155.1 209.8 157.7 209.8 160.8 C 209.8 163.9 211.1 166.5 213.7 166.5 C 214.8 166.5 215.7 166 216.5 165 C 216.5 165 217.6 166.5 217.6 166.5 C 216.7 167.6 215.5 168.4 213.5 168.4 C 209.8 168.4 207.5 165.1 207.5 160.8 Z M 227.5 168 C 227.5 168 227.54 166.46 227.5 166.5 C 226.6 167.8 225.2 168.4 223.7 168.4 C 221.4 168.4 219.4 166.6 219.4 163.6 C 219.4 160.5 221.4 158.8 223.7 158.8 C 225.2 158.8 226.6 159.4 227.5 160.6 C 227.5 160.6 227.5 158.1 227.5 158.1 C 227.5 156.1 226.5 155 224.6 155 C 223.2 155 222.1 155.5 220.9 156.8 C 220.9 156.8 220 155.3 220 155.3 C 221.4 153.8 223.1 153.2 224.9 153.2 C 227.8 153.2 229.7 154.6 229.7 157.9 C 229.7 157.88 229.7 168 229.7 168 L 227.5 168 Z M 227.5 165 C 227.5 165 227.5 162.2 227.5 162.2 C 226.9 161 225.7 160.4 224.4 160.4 C 222.6 160.4 221.5 161.8 221.5 163.6 C 221.5 165.4 222.6 166.8 224.4 166.8 C 225.7 166.8 226.9 166.2 227.5 165 Z M 241.2 168 C 241.2 168 241.16 166.01 241.2 166 C 240.3 167.3 238.8 168.4 237 168.4 C 234.5 168.4 233.3 167.2 233.3 164.5 C 233.33 164.51 233.3 153.5 233.3 153.5 L 235.5 153.5 C 235.5 153.5 235.46 163.88 235.5 163.9 C 235.5 165.8 236.4 166.5 237.8 166.5 C 239.2 166.5 240.5 165.4 241.2 164.2 C 241.16 164.21 241.2 153.5 241.2 153.5 L 243.3 153.5 L 243.3 168 L 241.2 168 Z M 245.8 166.3 C 245.8 166.3 246.9 164.8 246.9 164.8 C 247.7 165.8 249.1 166.6 250.7 166.6 C 252.4 166.6 253.5 165.7 253.5 164.3 C 253.5 160.9 246.2 162.1 246.2 157.1 C 246.2 154.9 248 153.2 250.9 153.2 C 252.8 153.2 254.2 153.9 255.3 155 C 255.3 155 254.2 156.5 254.2 156.5 C 253.5 155.5 252.3 154.9 250.9 154.9 C 249.3 154.9 248.3 155.8 248.3 157 C 248.3 160.1 255.5 159 255.5 164.2 C 255.5 166.6 253.7 168.4 250.7 168.4 C 248.7 168.4 247 167.7 245.8 166.3 Z M 257.6 160.8 C 257.6 156.6 259.8 153.2 263.5 153.2 C 267.3 153.2 269.2 156.6 269.2 160.8 C 269.18 160.82 269.2 161.5 269.2 161.5 C 269.2 161.5 259.79 161.48 259.8 161.5 C 259.9 164.4 261.4 166.6 264 166.6 C 265.2 166.6 266.5 166 267.4 164.8 C 267.4 164.8 268.6 166.1 268.6 166.1 C 267.4 167.5 265.7 168.4 263.8 168.4 C 259.9 168.4 257.6 165.2 257.6 160.8 Z M 263.4 155 C 260.9 155 259.9 157.8 259.8 159.9 C 259.8 159.9 267.1 159.9 267.1 159.9 C 267 157.7 266.1 155 263.4 155 Z M 277.8 171.8 C 278 171.9 278.5 172 278.7 172 C 279.6 172 280 171.7 280.4 170.5 C 280.43 170.54 281.2 168.3 281.2 168.3 L 276.4 153.5 L 278.7 153.5 L 282.3 165.4 L 286 153.5 L 288.3 153.5 C 288.3 153.5 282.47 171.08 282.5 171.1 C 281.8 173.2 280.6 173.9 278.9 173.9 C 278.4 173.9 277.8 173.8 277.4 173.7 C 277.4 173.7 277.8 171.8 277.8 171.8 Z M 289.4 160.8 C 289.4 156.6 291.6 153.2 295.3 153.2 C 299.1 153.2 301 156.6 301 160.8 C 301.01 160.82 301 161.5 301 161.5 C 301 161.5 291.62 161.48 291.6 161.5 C 291.7 164.4 293.2 166.6 295.8 166.6 C 297.1 166.6 298.3 166 299.2 164.8 C 299.2 164.8 300.4 166.1 300.4 166.1 C 299.2 167.5 297.6 168.4 295.6 168.4 C 291.7 168.4 289.4 165.2 289.4 160.8 Z M 295.3 155 C 292.7 155 291.7 157.8 291.6 159.9 C 291.6 159.9 298.9 159.9 298.9 159.9 C 298.9 157.7 297.9 155 295.3 155 Z M 303.9 168 L 303.9 148 L 306 148 L 306 168 L 303.9 168 Z M 309.6 168 L 309.6 148 L 311.8 148 L 311.8 168 L 309.6 168 Z M 314.7 160.8 C 314.7 156.7 316.8 153.2 320.6 153.2 C 324.5 153.2 326.5 156.7 326.5 160.8 C 326.5 164.8 324.5 168.4 320.6 168.4 C 316.8 168.4 314.7 164.8 314.7 160.8 Z M 324.3 160.8 C 324.3 157.9 323.1 155.1 320.6 155.1 C 318.1 155.1 317 157.9 317 160.8 C 317 163.7 318.1 166.5 320.6 166.5 C 323.1 166.5 324.3 163.7 324.3 160.8 Z M 340.1 168 L 337 156.4 L 333.9 168 L 331.7 168 L 327.9 153.5 L 330.1 153.5 L 332.9 165.1 L 336 153.5 L 338 153.5 L 341.1 165.1 L 344 153.5 L 346.2 153.5 L 342.3 168 L 340.1 168 Z M 353.9 158 C 353.9 152.7 355.8 147.7 360.6 147.7 C 362.7 147.7 364.3 148.7 365.3 150.2 C 365.3 150.2 364 151.9 364 151.9 C 363.2 150.6 362.3 149.8 360.6 149.8 C 357.5 149.8 356.3 154 356.3 157.8 C 356.3 158.1 356.3 158.2 356.3 158.4 C 357 157 358.6 155.5 360.7 155.5 C 363.6 155.5 366 157.6 366 161.9 C 366 165.3 363.9 168.4 360.2 168.4 C 355.4 168.4 353.9 163.4 353.9 158 Z M 363.5 161.9 C 363.5 158.8 362 157.6 360.1 157.6 C 358.4 157.6 357.1 159 356.3 160.6 C 356.5 162.9 357.3 166.3 360.1 166.3 C 362.5 166.3 363.5 164 363.5 161.9 Z M 375.5 165.1 C 375.47 165.11 375.5 155.4 375.5 155.4 L 373.5 155.4 L 373.5 153.5 L 375.5 153.5 L 375.5 149.6 L 377.6 149.6 L 377.6 153.5 L 380.1 153.5 L 380.1 155.4 L 377.6 155.4 C 377.6 155.4 377.63 164.72 377.6 164.7 C 377.6 165.8 378 166.5 378.8 166.5 C 379.3 166.5 379.8 166.2 380.1 165.9 C 380.1 165.9 380.7 167.5 380.7 167.5 C 380.2 168 379.5 168.4 378.4 168.4 C 376.4 168.4 375.5 167.3 375.5 165.1 Z M 381.9 160.8 C 381.9 156.7 384 153.2 387.8 153.2 C 391.7 153.2 393.7 156.7 393.7 160.8 C 393.7 164.8 391.7 168.4 387.8 168.4 C 384 168.4 381.9 164.8 381.9 160.8 Z M 391.5 160.8 C 391.5 157.9 390.3 155.1 387.8 155.1 C 385.3 155.1 384.2 157.9 384.2 160.8 C 384.2 163.7 385.3 166.5 387.8 166.5 C 390.3 166.5 391.5 163.7 391.5 160.8 Z M 403.2 165.1 C 403.22 165.11 403.2 155.4 403.2 155.4 L 401.3 155.4 L 401.3 153.5 L 403.2 153.5 L 403.2 149.6 L 405.4 149.6 L 405.4 153.5 L 407.8 153.5 L 407.8 155.4 L 405.4 155.4 C 405.4 155.4 405.38 164.72 405.4 164.7 C 405.4 165.8 405.7 166.5 406.5 166.5 C 407.1 166.5 407.5 166.2 407.8 165.9 C 407.8 165.9 408.5 167.5 408.5 167.5 C 408 168 407.2 168.4 406.1 168.4 C 404.1 168.4 403.2 167.3 403.2 165.1 Z M 418.2 168 C 418.2 168 418.22 166.01 418.2 166 C 417.3 167.3 415.8 168.4 414 168.4 C 411.6 168.4 410.4 167.2 410.4 164.5 C 410.39 164.51 410.4 153.5 410.4 153.5 L 412.5 153.5 C 412.5 153.5 412.52 163.88 412.5 163.9 C 412.5 165.8 413.4 166.5 414.8 166.5 C 416.3 166.5 417.6 165.4 418.2 164.2 C 418.22 164.21 418.2 153.5 418.2 153.5 L 420.4 153.5 L 420.4 168 L 418.2 168 Z M 424 168 L 424 153.5 L 426.2 153.5 C 426.2 153.5 426.17 155.84 426.2 155.8 C 427.1 154.3 428.5 153.2 430.3 153.2 C 430.3 153.2 430.3 155.5 430.3 155.5 C 430 155.4 429.8 155.4 429.6 155.4 C 428.2 155.4 426.8 156.5 426.2 157.7 C 426.17 157.73 426.2 168 426.2 168 L 424 168 Z M 440.3 168 C 440.3 168 440.3 157.7 440.3 157.7 C 440.3 155.8 439.4 155.1 438 155.1 C 436.6 155.1 435.3 156.2 434.6 157.4 C 434.6 157.4 434.6 168 434.6 168 L 432.5 168 L 432.5 153.5 L 434.6 153.5 C 434.6 153.5 434.6 155.6 434.6 155.6 C 435.4 154.3 437.1 153.2 438.8 153.2 C 441.3 153.2 442.5 154.5 442.5 157.1 C 442.46 157.1 442.5 168 442.5 168 L 440.3 168 Z M 451.8 150 C 451.8 149.2 452.5 148.5 453.3 148.5 C 454.1 148.5 454.8 149.2 454.8 150 C 454.8 150.8 454.1 151.4 453.3 151.4 C 452.5 151.4 451.8 150.8 451.8 150 Z M 452.3 168 L 452.3 153.5 L 454.4 153.5 L 454.4 168 L 452.3 168 Z M 465.9 168 C 465.9 168 465.89 157.7 465.9 157.7 C 465.9 155.8 465 155.1 463.6 155.1 C 462.2 155.1 460.8 156.2 460.2 157.4 C 460.19 157.4 460.2 168 460.2 168 L 458.1 168 L 458.1 153.5 L 460.2 153.5 C 460.2 153.5 460.19 155.6 460.2 155.6 C 461 154.3 462.6 153.2 464.4 153.2 C 466.8 153.2 468 154.5 468 157.1 C 468.05 157.1 468 168 468 168 L 465.9 168 Z M 472.1 165.1 C 472.13 165.11 472.1 155.4 472.1 155.4 L 470.2 155.4 L 470.2 153.5 L 472.1 153.5 L 472.1 149.6 L 474.3 149.6 L 474.3 153.5 L 476.7 153.5 L 476.7 155.4 L 474.3 155.4 C 474.3 155.4 474.29 164.72 474.3 164.7 C 474.3 165.8 474.6 166.5 475.5 166.5 C 476 166.5 476.4 166.2 476.7 165.9 C 476.7 165.9 477.4 167.5 477.4 167.5 C 476.9 168 476.1 168.4 475 168.4 C 473.1 168.4 472.1 167.3 472.1 165.1 Z M 478.6 160.8 C 478.6 156.7 480.6 153.2 484.5 153.2 C 488.4 153.2 490.4 156.7 490.4 160.8 C 490.4 164.8 488.4 168.4 484.5 168.4 C 480.6 168.4 478.6 164.8 478.6 160.8 Z M 488.1 160.8 C 488.1 157.9 487 155.1 484.5 155.1 C 482 155.1 480.8 157.9 480.8 160.8 C 480.8 163.7 482 166.5 484.5 166.5 C 487 166.5 488.1 163.7 488.1 160.8 Z M 506.9 168 C 506.9 168 506.89 166.46 506.9 166.5 C 506 167.8 504.6 168.4 503.1 168.4 C 500.7 168.4 498.7 166.6 498.7 163.6 C 498.7 160.5 500.7 158.8 503.1 158.8 C 504.6 158.8 506 159.4 506.9 160.6 C 506.9 160.6 506.9 158.1 506.9 158.1 C 506.9 156.1 505.8 155 503.9 155 C 502.6 155 501.4 155.5 500.3 156.8 C 500.3 156.8 499.3 155.3 499.3 155.3 C 500.7 153.8 502.4 153.2 504.3 153.2 C 507.1 153.2 509.1 154.6 509.1 157.9 C 509.05 157.88 509.1 168 509.1 168 L 506.9 168 Z M 506.9 165 C 506.9 165 506.9 162.2 506.9 162.2 C 506.2 161 505 160.4 503.8 160.4 C 502 160.4 500.9 161.8 500.9 163.6 C 500.9 165.4 502 166.8 503.8 166.8 C 505 166.8 506.2 166.2 506.9 165 Z M 518.7 172.1 C 518.7 172.1 519.7 170.4 519.7 170.4 C 520.7 171.5 521.9 172.1 523.5 172.1 C 525.5 172.1 527.1 170.9 527.1 168.1 C 527.1 168.1 527.1 165.7 527.1 165.7 C 526.3 167.2 524.8 168.2 523.3 168.2 C 520.1 168.2 518.1 165.3 518.1 160.7 C 518.1 156.2 520 153.2 523.3 153.2 C 524.8 153.2 526.2 154 527.1 155.6 C 527.11 155.63 527.1 153.5 527.1 153.5 L 529.3 153.5 C 529.3 153.5 529.27 167.99 529.3 168 C 529.3 172.5 526.6 173.9 523.5 173.9 C 521.6 173.9 520.1 173.5 518.7 172.1 Z M 527.1 163.9 C 527.1 163.9 527.1 157.5 527.1 157.5 C 526.6 156.2 525.2 155.1 523.8 155.1 C 521.5 155.1 520.4 157.6 520.4 160.7 C 520.4 163.8 521.5 166.3 523.8 166.3 C 525.2 166.3 526.6 165.1 527.1 163.9 Z M 532.2 160.8 C 532.2 156.7 534.2 153.2 538.1 153.2 C 542 153.2 544 156.7 544 160.8 C 544 164.8 542 168.4 538.1 168.4 C 534.2 168.4 532.2 164.8 532.2 160.8 Z M 541.7 160.8 C 541.7 157.9 540.6 155.1 538.1 155.1 C 535.6 155.1 534.4 157.9 534.4 160.8 C 534.4 163.7 535.6 166.5 538.1 166.5 C 540.6 166.5 541.7 163.7 541.7 160.8 Z M 546.9 168 L 546.9 148 L 549 148 L 549 168 L 546.9 168 Z M 561 168 C 561 168 560.98 165.95 561 166 C 560.1 167.4 558.7 168.4 557.2 168.4 C 553.9 168.4 552 165.4 552 160.8 C 552 156.3 553.9 153.2 557.2 153.2 C 558.6 153.2 560.1 154 561 155.6 C 560.98 155.63 561 148 561 148 L 563.1 148 L 563.1 168 L 561 168 Z M 561 164.1 C 561 164.1 561 157.5 561 157.5 C 560.4 156.2 559.1 155.1 557.7 155.1 C 555.3 155.1 554.2 157.6 554.2 160.8 C 554.2 163.9 555.3 166.5 557.7 166.5 C 559.1 166.5 560.4 165.4 561 164.1 Z M 566.1 160.8 C 566.1 156.6 568.3 153.2 572 153.2 C 575.8 153.2 577.7 156.6 577.7 160.8 C 577.69 160.82 577.7 161.5 577.7 161.5 C 577.7 161.5 568.3 161.48 568.3 161.5 C 568.4 164.4 569.9 166.6 572.5 166.6 C 573.7 166.6 575 166 575.9 164.8 C 575.9 164.8 577.1 166.1 577.1 166.1 C 575.9 167.5 574.2 168.4 572.3 168.4 C 568.4 168.4 566.1 165.2 566.1 160.8 Z M 571.9 155 C 569.4 155 568.4 157.8 568.3 159.9 C 568.3 159.9 575.6 159.9 575.6 159.9 C 575.5 157.7 574.6 155 571.9 155 Z M 588.4 168 C 588.4 168 588.37 157.7 588.4 157.7 C 588.4 155.8 587.5 155.1 586.1 155.1 C 584.7 155.1 583.3 156.2 582.7 157.4 C 582.67 157.4 582.7 168 582.7 168 L 580.5 168 L 580.5 153.5 L 582.7 153.5 C 582.7 153.5 582.67 155.6 582.7 155.6 C 583.5 154.3 585.1 153.2 586.9 153.2 C 589.3 153.2 590.5 154.5 590.5 157.1 C 590.53 157.1 590.5 168 590.5 168 L 588.4 168 Z " stroke="none" fill="#efd8d3"/>  </g>  <g id="Polygon170398">    <path d="M 1.6 132 C 1.6 132 1.59 130.07 1.6 130.1 C 8.1 122.5 10.4 120.1 10.4 117.2 C 10.4 115 8.9 113.8 7.2 113.8 C 5.3 113.8 3.9 114.8 2.9 116.4 C 2.9 116.4 1.4 114.9 1.4 114.9 C 2.7 112.9 4.7 111.7 7.2 111.7 C 10.3 111.7 12.8 113.7 12.8 117.2 C 12.8 120.5 10.3 123.5 5 129.9 C 4.98 129.89 12.9 129.9 12.9 129.9 L 12.9 132 L 1.6 132 Z M 16.2 130.7 C 16.2 129.9 16.9 129.1 17.8 129.1 C 18.7 129.1 19.4 129.9 19.4 130.7 C 19.4 131.6 18.7 132.3 17.8 132.3 C 16.9 132.3 16.2 131.6 16.2 130.7 Z M 40.9 132 L 39.6 127.5 L 32.5 127.5 L 31.2 132 L 28.6 132 L 34.6 112 L 37.4 112 L 43.4 132 L 40.9 132 Z M 36 114.7 L 33 125.4 L 39.1 125.4 L 36 114.7 Z M 53.6 132 C 53.6 132 53.58 129.95 53.6 130 C 52.7 131.4 51.3 132.4 49.8 132.4 C 46.5 132.4 44.6 129.4 44.6 124.8 C 44.6 120.3 46.5 117.2 49.8 117.2 C 51.2 117.2 52.7 118 53.6 119.6 C 53.58 119.63 53.6 112 53.6 112 L 55.7 112 L 55.7 132 L 53.6 132 Z M 53.6 128.1 C 53.6 128.1 53.6 121.5 53.6 121.5 C 53 120.2 51.7 119.1 50.3 119.1 C 47.9 119.1 46.8 121.6 46.8 124.8 C 46.8 127.9 47.9 130.5 50.3 130.5 C 51.7 130.5 53 129.4 53.6 128.1 Z M 67.7 132 C 67.7 132 67.68 129.95 67.7 130 C 66.8 131.4 65.4 132.4 63.9 132.4 C 60.6 132.4 58.7 129.4 58.7 124.8 C 58.7 120.3 60.6 117.2 63.9 117.2 C 65.3 117.2 66.8 118 67.7 119.6 C 67.68 119.63 67.7 112 67.7 112 L 69.8 112 L 69.8 132 L 67.7 132 Z M 67.7 128.1 C 67.7 128.1 67.7 121.5 67.7 121.5 C 67.1 120.2 65.8 119.1 64.4 119.1 C 62 119.1 60.9 121.6 60.9 124.8 C 60.9 127.9 62 130.5 64.4 130.5 C 65.8 130.5 67.1 129.4 67.7 128.1 Z M 79.2 135.8 C 79.5 135.9 79.9 136 80.2 136 C 81 136 81.5 135.7 81.9 134.5 C 81.9 134.54 82.7 132.3 82.7 132.3 L 77.8 117.5 L 80.2 117.5 L 83.8 129.4 L 87.4 117.5 L 89.7 117.5 C 89.7 117.5 83.94 135.08 83.9 135.1 C 83.2 137.2 82 137.9 80.3 137.9 C 79.9 137.9 79.2 137.8 78.9 137.7 C 78.9 137.7 79.2 135.8 79.2 135.8 Z M 90.9 124.8 C 90.9 120.6 93.1 117.2 96.7 117.2 C 100.6 117.2 102.5 120.6 102.5 124.8 C 102.48 124.82 102.5 125.5 102.5 125.5 C 102.5 125.5 93.09 125.48 93.1 125.5 C 93.2 128.4 94.7 130.6 97.3 130.6 C 98.5 130.6 99.8 130 100.7 128.8 C 100.7 128.8 101.8 130.1 101.8 130.1 C 100.7 131.5 99 132.4 97.1 132.4 C 93.2 132.4 90.9 129.2 90.9 124.8 Z M 96.7 119 C 94.2 119 93.1 121.8 93.1 123.9 C 93.1 123.9 100.3 123.9 100.3 123.9 C 100.3 121.7 99.4 119 96.7 119 Z M 105.3 132 L 105.3 112 L 107.5 112 L 107.5 132 L 105.3 132 Z M 111.1 132 L 111.1 112 L 113.2 112 L 113.2 132 L 111.1 132 Z M 116.2 124.8 C 116.2 120.7 118.2 117.2 122.1 117.2 C 126 117.2 128 120.7 128 124.8 C 128 128.8 126 132.4 122.1 132.4 C 118.2 132.4 116.2 128.8 116.2 124.8 Z M 125.7 124.8 C 125.7 121.9 124.6 119.1 122.1 119.1 C 119.6 119.1 118.4 121.9 118.4 124.8 C 118.4 127.7 119.6 130.5 122.1 130.5 C 124.6 130.5 125.7 127.7 125.7 124.8 Z M 141.6 132 L 138.5 120.4 L 135.4 132 L 133.2 132 L 129.3 117.5 L 131.6 117.5 L 134.4 129.1 L 137.5 117.5 L 139.5 117.5 L 142.6 129.1 L 145.4 117.5 L 147.7 117.5 L 143.8 132 L 141.6 132 Z M 155.3 122 C 155.3 116.7 157.3 111.7 162.1 111.7 C 164.2 111.7 165.8 112.7 166.8 114.2 C 166.8 114.2 165.4 115.9 165.4 115.9 C 164.7 114.6 163.8 113.8 162.1 113.8 C 158.9 113.8 157.7 118 157.7 121.8 C 157.7 122.1 157.7 122.2 157.8 122.4 C 158.5 121 160.1 119.5 162.2 119.5 C 165.1 119.5 167.4 121.6 167.4 125.9 C 167.4 129.3 165.4 132.4 161.7 132.4 C 156.9 132.4 155.3 127.4 155.3 122 Z M 165 125.9 C 165 122.8 163.5 121.6 161.6 121.6 C 159.9 121.6 158.5 123 157.8 124.6 C 157.9 126.9 158.7 130.3 161.5 130.3 C 163.9 130.3 165 128 165 125.9 Z M 176.1 114 C 176.1 113.2 176.8 112.5 177.6 112.5 C 178.4 112.5 179 113.2 179 114 C 179 114.8 178.4 115.4 177.6 115.4 C 176.8 115.4 176.1 114.8 176.1 114 Z M 176.5 132 L 176.5 117.5 L 178.6 117.5 L 178.6 132 L 176.5 132 Z M 190.1 132 C 190.1 132 190.13 121.7 190.1 121.7 C 190.1 119.8 189.3 119.1 187.8 119.1 C 186.4 119.1 185.1 120.2 184.4 121.4 C 184.43 121.4 184.4 132 184.4 132 L 182.3 132 L 182.3 117.5 L 184.4 117.5 C 184.4 117.5 184.43 119.6 184.4 119.6 C 185.3 118.3 186.9 117.2 188.6 117.2 C 191.1 117.2 192.3 118.5 192.3 121.1 C 192.29 121.1 192.3 132 192.3 132 L 190.1 132 Z M 196.4 129.1 C 196.37 129.11 196.4 119.4 196.4 119.4 L 194.5 119.4 L 194.5 117.5 L 196.4 117.5 L 196.4 113.6 L 198.5 113.6 L 198.5 117.5 L 201 117.5 L 201 119.4 L 198.5 119.4 C 198.5 119.4 198.53 128.72 198.5 128.7 C 198.5 129.8 198.9 130.5 199.7 130.5 C 200.2 130.5 200.7 130.2 201 129.9 C 201 129.9 201.6 131.5 201.6 131.5 C 201.1 132 200.4 132.4 199.3 132.4 C 197.3 132.4 196.4 131.3 196.4 129.1 Z M 202.8 124.8 C 202.8 120.7 204.9 117.2 208.7 117.2 C 212.6 117.2 214.6 120.7 214.6 124.8 C 214.6 128.8 212.6 132.4 208.7 132.4 C 204.9 132.4 202.8 128.8 202.8 124.8 Z M 212.4 124.8 C 212.4 121.9 211.3 119.1 208.7 119.1 C 206.2 119.1 205.1 121.9 205.1 124.8 C 205.1 127.7 206.2 130.5 208.7 130.5 C 211.3 130.5 212.4 127.7 212.4 124.8 Z M 224.1 129.1 C 224.12 129.11 224.1 119.4 224.1 119.4 L 222.2 119.4 L 222.2 117.5 L 224.1 117.5 L 224.1 113.6 L 226.3 113.6 L 226.3 117.5 L 228.7 117.5 L 228.7 119.4 L 226.3 119.4 C 226.3 119.4 226.28 128.72 226.3 128.7 C 226.3 129.8 226.6 130.5 227.5 130.5 C 228 130.5 228.4 130.2 228.7 129.9 C 228.7 129.9 229.4 131.5 229.4 131.5 C 228.9 132 228.1 132.4 227 132.4 C 225.1 132.4 224.1 131.3 224.1 129.1 Z M 239.2 132 C 239.2 132 239.15 121.67 239.2 121.7 C 239.2 119.8 238.3 119.1 236.8 119.1 C 235.4 119.1 234.1 120.2 233.4 121.4 C 233.42 121.4 233.4 132 233.4 132 L 231.3 132 L 231.3 112 L 233.4 112 C 233.4 112 233.42 119.6 233.4 119.6 C 234.3 118.3 235.9 117.2 237.7 117.2 C 240.1 117.2 241.3 118.4 241.3 121 C 241.28 121.04 241.3 132 241.3 132 L 239.2 132 Z M 244.2 124.8 C 244.2 120.6 246.4 117.2 250.1 117.2 C 253.9 117.2 255.8 120.6 255.8 124.8 C 255.83 124.82 255.8 125.5 255.8 125.5 C 255.8 125.5 246.44 125.48 246.4 125.5 C 246.5 128.4 248 130.6 250.6 130.6 C 251.9 130.6 253.2 130 254.1 128.8 C 254.1 128.8 255.2 130.1 255.2 130.1 C 254 131.5 252.4 132.4 250.4 132.4 C 246.6 132.4 244.2 129.2 244.2 124.8 Z M 250.1 119 C 247.5 119 246.5 121.8 246.4 123.9 C 246.4 123.9 253.7 123.9 253.7 123.9 C 253.7 121.7 252.7 119 250.1 119 Z M 279.5 132 C 279.5 132 279.47 121.52 279.5 121.5 C 279.5 120 278.8 119.1 277.5 119.1 C 276.2 119.1 274.9 120.2 274.3 121.4 C 274.31 121.4 274.3 132 274.3 132 L 272.2 132 C 272.2 132 272.15 121.52 272.2 121.5 C 272.2 120 271.5 119.1 270.1 119.1 C 268.8 119.1 267.6 120.2 267 121.4 C 266.96 121.4 267 132 267 132 L 264.8 132 L 264.8 117.5 L 267 117.5 C 267 117.5 266.96 119.6 267 119.6 C 267.6 118.5 269.2 117.2 270.9 117.2 C 272.8 117.2 273.9 118.2 274.2 119.8 C 274.9 118.4 276.5 117.2 278.3 117.2 C 280.4 117.2 281.6 118.3 281.6 121 C 281.63 120.95 281.6 132 281.6 132 L 279.5 132 Z M 284.9 114 C 284.9 113.2 285.6 112.5 286.3 112.5 C 287.2 112.5 287.8 113.2 287.8 114 C 287.8 114.8 287.2 115.4 286.3 115.4 C 285.6 115.4 284.9 114.8 284.9 114 Z M 285.3 132 L 285.3 117.5 L 287.4 117.5 L 287.4 132 L 285.3 132 Z M 298.5 132 L 295.2 126.2 L 291.9 132 L 289.5 132 L 293.9 124.6 L 289.7 117.5 L 292.1 117.5 L 295.2 123.1 L 298.3 117.5 L 300.7 117.5 L 296.5 124.6 L 300.9 132 L 298.5 132 Z M 303.4 129.1 C 303.38 129.11 303.4 119.4 303.4 119.4 L 301.5 119.4 L 301.5 117.5 L 303.4 117.5 L 303.4 113.6 L 305.5 113.6 L 305.5 117.5 L 308 117.5 L 308 119.4 L 305.5 119.4 C 305.5 119.4 305.54 128.72 305.5 128.7 C 305.5 129.8 305.9 130.5 306.7 130.5 C 307.2 130.5 307.7 130.2 308 129.9 C 308 129.9 308.6 131.5 308.6 131.5 C 308.1 132 307.4 132.4 306.3 132.4 C 304.3 132.4 303.4 131.3 303.4 129.1 Z M 318.4 132 C 318.4 132 318.38 130.01 318.4 130 C 317.5 131.3 316 132.4 314.2 132.4 C 311.7 132.4 310.5 131.2 310.5 128.5 C 310.55 128.51 310.5 117.5 310.5 117.5 L 312.7 117.5 C 312.7 117.5 312.68 127.88 312.7 127.9 C 312.7 129.8 313.6 130.5 315 130.5 C 316.4 130.5 317.7 129.4 318.4 128.2 C 318.38 128.21 318.4 117.5 318.4 117.5 L 320.5 117.5 L 320.5 132 L 318.4 132 Z M 324.2 132 L 324.2 117.5 L 326.3 117.5 C 326.3 117.5 326.33 119.84 326.3 119.8 C 327.3 118.3 328.7 117.2 330.4 117.2 C 330.4 117.2 330.4 119.5 330.4 119.5 C 330.2 119.4 330 119.4 329.7 119.4 C 328.4 119.4 326.9 120.5 326.3 121.7 C 326.33 121.73 326.3 132 326.3 132 L 324.2 132 Z M 331.9 124.8 C 331.9 120.6 334.1 117.2 337.8 117.2 C 341.6 117.2 343.5 120.6 343.5 124.8 C 343.52 124.82 343.5 125.5 343.5 125.5 C 343.5 125.5 334.13 125.48 334.1 125.5 C 334.2 128.4 335.7 130.6 338.3 130.6 C 339.6 130.6 340.8 130 341.7 128.8 C 341.7 128.8 342.9 130.1 342.9 130.1 C 341.7 131.5 340.1 132.4 338.1 132.4 C 334.2 132.4 331.9 129.2 331.9 124.8 Z M 337.8 119 C 335.2 119 334.2 121.8 334.1 123.9 C 334.1 123.9 341.4 123.9 341.4 123.9 C 341.4 121.7 340.4 119 337.8 119 Z M 346.1 130.7 C 346.1 129.9 346.8 129.1 347.7 129.1 C 348.6 129.1 349.3 129.9 349.3 130.7 C 349.3 131.6 348.6 132.3 347.7 132.3 C 346.8 132.3 346.1 131.6 346.1 130.7 Z M 362.4 132 L 362.4 114.1 L 357.7 114.1 L 357.7 112 L 369.6 112 L 369.6 114.1 L 364.8 114.1 L 364.8 132 L 362.4 132 Z M 379.9 132 C 379.9 132 379.88 121.67 379.9 121.7 C 379.9 119.8 379 119.1 377.5 119.1 C 376.1 119.1 374.8 120.2 374.1 121.4 C 374.15 121.4 374.1 132 374.1 132 L 372 132 L 372 112 L 374.1 112 C 374.1 112 374.15 119.6 374.1 119.6 C 375 118.3 376.6 117.2 378.4 117.2 C 380.8 117.2 382 118.4 382 121 C 382.01 121.04 382 132 382 132 L 379.9 132 Z M 384.9 124.8 C 384.9 120.6 387.2 117.2 390.8 117.2 C 394.6 117.2 396.6 120.6 396.6 124.8 C 396.56 124.82 396.6 125.5 396.6 125.5 C 396.6 125.5 387.17 125.48 387.2 125.5 C 387.3 128.4 388.8 130.6 391.3 130.6 C 392.6 130.6 393.9 130 394.8 128.8 C 394.8 128.8 395.9 130.1 395.9 130.1 C 394.8 131.5 393.1 132.4 391.2 132.4 C 387.3 132.4 384.9 129.2 384.9 124.8 Z M 390.8 119 C 388.2 119 387.2 121.8 387.2 123.9 C 387.2 123.9 394.4 123.9 394.4 123.9 C 394.4 121.7 393.4 119 390.8 119 Z M 413 132 C 413 132 413 130.46 413 130.5 C 412.1 131.8 410.7 132.4 409.2 132.4 C 406.8 132.4 404.8 130.6 404.8 127.6 C 404.8 124.5 406.8 122.8 409.2 122.8 C 410.7 122.8 412.1 123.4 413 124.6 C 413 124.6 413 122.1 413 122.1 C 413 120.1 411.9 119 410 119 C 408.7 119 407.5 119.5 406.4 120.8 C 406.4 120.8 405.4 119.3 405.4 119.3 C 406.8 117.8 408.5 117.2 410.4 117.2 C 413.2 117.2 415.2 118.6 415.2 121.9 C 415.16 121.88 415.2 132 415.2 132 L 413 132 Z M 413 129 C 413 129 413 126.2 413 126.2 C 412.3 125 411.1 124.4 409.9 124.4 C 408.1 124.4 407 125.8 407 127.6 C 407 129.4 408.1 130.8 409.9 130.8 C 411.1 130.8 412.3 130.2 413 129 Z M 418.1 124.8 C 418.1 120.5 420.3 117.2 424.1 117.2 C 426.1 117.2 427.3 118 428.2 119.1 C 428.2 119.1 427 120.6 427 120.6 C 426.3 119.5 425.4 119.1 424.2 119.1 C 421.7 119.1 420.3 121.7 420.3 124.8 C 420.3 127.9 421.7 130.5 424.2 130.5 C 425.4 130.5 426.3 130 427 129 C 427 129 428.2 130.5 428.2 130.5 C 427.3 131.6 426.1 132.4 424.1 132.4 C 420.3 132.4 418.1 129.1 418.1 124.8 Z M 430.2 114 C 430.2 113.2 430.9 112.5 431.7 112.5 C 432.5 112.5 433.2 113.2 433.2 114 C 433.2 114.8 432.5 115.4 431.7 115.4 C 430.9 115.4 430.2 114.8 430.2 114 Z M 430.7 132 L 430.7 117.5 L 432.8 117.5 L 432.8 132 L 430.7 132 Z M 444.7 132 C 444.7 132 444.74 129.95 444.7 130 C 443.9 131.4 442.5 132.4 440.9 132.4 C 437.7 132.4 435.7 129.4 435.7 124.8 C 435.7 120.3 437.7 117.2 440.9 117.2 C 442.4 117.2 443.9 118 444.7 119.6 C 444.74 119.63 444.7 112 444.7 112 L 446.9 112 L 446.9 132 L 444.7 132 Z M 444.7 128.1 C 444.7 128.1 444.7 121.5 444.7 121.5 C 444.2 120.2 442.8 119.1 441.5 119.1 C 439.1 119.1 438 121.6 438 124.8 C 438 127.9 439.1 130.5 441.5 130.5 C 442.8 130.5 444.2 129.4 444.7 128.1 Z M 450.1 114 C 450.1 113.2 450.8 112.5 451.6 112.5 C 452.4 112.5 453.1 113.2 453.1 114 C 453.1 114.8 452.4 115.4 451.6 115.4 C 450.8 115.4 450.1 114.8 450.1 114 Z M 450.6 132 L 450.6 117.5 L 452.7 117.5 L 452.7 132 L 450.6 132 Z M 456.8 129.1 C 456.77 129.11 456.8 119.4 456.8 119.4 L 454.8 119.4 L 454.8 117.5 L 456.8 117.5 L 456.8 113.6 L 458.9 113.6 L 458.9 117.5 L 461.4 117.5 L 461.4 119.4 L 458.9 119.4 C 458.9 119.4 458.93 128.72 458.9 128.7 C 458.9 129.8 459.3 130.5 460.1 130.5 C 460.6 130.5 461.1 130.2 461.4 129.9 C 461.4 129.9 462 131.5 462 131.5 C 461.5 132 460.8 132.4 459.7 132.4 C 457.7 132.4 456.8 131.3 456.8 129.1 Z M 463.5 135.8 C 463.8 135.9 464.2 136 464.5 136 C 465.3 136 465.8 135.7 466.2 134.5 C 466.19 134.54 467 132.3 467 132.3 L 462.1 117.5 L 464.5 117.5 L 468.1 129.4 L 471.7 117.5 L 474 117.5 C 474 117.5 468.23 135.08 468.2 135.1 C 467.5 137.2 466.3 137.9 464.6 137.9 C 464.2 137.9 463.5 137.8 463.2 137.7 C 463.2 137.7 463.5 135.8 463.5 135.8 Z M 481.3 124.8 C 481.3 120.7 483.3 117.2 487.2 117.2 C 491.1 117.2 493.1 120.7 493.1 124.8 C 493.1 128.8 491.1 132.4 487.2 132.4 C 483.3 132.4 481.3 128.8 481.3 124.8 Z M 490.8 124.8 C 490.8 121.9 489.7 119.1 487.2 119.1 C 484.7 119.1 483.6 121.9 483.6 124.8 C 483.6 127.7 484.7 130.5 487.2 130.5 C 489.7 130.5 490.8 127.7 490.8 124.8 Z M 496.5 132 L 496.5 119.4 L 494.6 119.4 L 494.6 117.5 L 496.5 117.5 C 496.5 117.5 496.54 115.76 496.5 115.8 C 496.5 113.2 497.9 111.7 500.2 111.7 C 501.1 111.7 502 112 502.8 112.7 C 502.8 112.7 501.9 114.2 501.9 114.2 C 501.5 113.8 501.1 113.5 500.5 113.5 C 499.3 113.5 498.7 114.4 498.7 115.8 C 498.7 115.76 498.7 117.5 498.7 117.5 L 501.2 117.5 L 501.2 119.4 L 498.7 119.4 L 498.7 132 L 496.5 132 Z M 508.8 124.8 C 508.8 120.5 511.1 117.2 514.8 117.2 C 516.8 117.2 518 118 518.9 119.1 C 518.9 119.1 517.8 120.6 517.8 120.6 C 517 119.5 516.1 119.1 515 119.1 C 512.4 119.1 511 121.7 511 124.8 C 511 127.9 512.4 130.5 515 130.5 C 516.1 130.5 517 130 517.8 129 C 517.8 129 518.9 130.5 518.9 130.5 C 518 131.6 516.8 132.4 514.8 132.4 C 511.1 132.4 508.8 129.1 508.8 124.8 Z M 529.2 132 C 529.2 132 529.21 130.01 529.2 130 C 528.3 131.3 526.8 132.4 525 132.4 C 522.6 132.4 521.4 131.2 521.4 128.5 C 521.38 128.51 521.4 117.5 521.4 117.5 L 523.5 117.5 C 523.5 117.5 523.51 127.88 523.5 127.9 C 523.5 129.8 524.4 130.5 525.8 130.5 C 527.3 130.5 528.6 129.4 529.2 128.2 C 529.21 128.21 529.2 117.5 529.2 117.5 L 531.4 117.5 L 531.4 132 L 529.2 132 Z M 537.2 129.9 C 537.16 129.92 537.2 137.5 537.2 137.5 L 535 137.5 L 535 117.5 L 537.2 117.5 C 537.2 117.5 537.16 119.6 537.2 119.6 C 538 118.1 539.4 117.2 541 117.2 C 544.2 117.2 546.2 120.2 546.2 124.8 C 546.2 129.3 544.2 132.4 541 132.4 C 539.5 132.4 538.1 131.5 537.2 129.9 Z M 543.9 124.8 C 543.9 121.6 542.8 119.1 540.4 119.1 C 539.1 119.1 537.7 120.2 537.2 121.4 C 537.2 121.4 537.2 128.1 537.2 128.1 C 537.7 129.3 539.1 130.5 540.4 130.5 C 542.8 130.5 543.9 127.9 543.9 124.8 Z M 548.7 114 C 548.7 113.2 549.3 112.5 550.1 112.5 C 550.9 112.5 551.6 113.2 551.6 114 C 551.6 114.8 550.9 115.4 550.1 115.4 C 549.3 115.4 548.7 114.8 548.7 114 Z M 549.1 132 L 549.1 117.5 L 551.2 117.5 L 551.2 132 L 549.1 132 Z M 562.7 132 C 562.7 132 562.69 130.01 562.7 130 C 561.8 131.3 560.3 132.4 558.5 132.4 C 556 132.4 554.9 131.2 554.9 128.5 C 554.86 128.51 554.9 117.5 554.9 117.5 L 557 117.5 C 557 117.5 556.99 127.88 557 127.9 C 557 129.8 557.9 130.5 559.3 130.5 C 560.7 130.5 562.1 129.4 562.7 128.2 C 562.69 128.21 562.7 117.5 562.7 117.5 L 564.9 117.5 L 564.9 132 L 562.7 132 Z M 583.2 132 C 583.2 132 583.15 121.52 583.2 121.5 C 583.2 120 582.5 119.1 581.1 119.1 C 579.9 119.1 578.6 120.2 578 121.4 C 577.99 121.4 578 132 578 132 L 575.8 132 C 575.8 132 575.83 121.52 575.8 121.5 C 575.8 120 575.2 119.1 573.8 119.1 C 572.5 119.1 571.3 120.2 570.6 121.4 C 570.64 121.4 570.6 132 570.6 132 L 568.5 132 L 568.5 117.5 L 570.6 117.5 C 570.6 117.5 570.64 119.6 570.6 119.6 C 571.2 118.5 572.9 117.2 574.6 117.2 C 576.5 117.2 577.6 118.2 577.9 119.8 C 578.6 118.4 580.2 117.2 582 117.2 C 584.1 117.2 585.3 118.3 585.3 121 C 585.31 120.95 585.3 132 585.3 132 L 583.2 132 Z " stroke="none" fill="#efd8d3"/>  </g>  <g id="Polygon170397">    <path d="M 37.8 60 C 37.8 60 37.77 58.46 37.8 58.5 C 36.8 59.8 35.4 60.4 34 60.4 C 31.6 60.4 29.6 58.6 29.6 55.6 C 29.6 52.5 31.6 50.8 34 50.8 C 35.4 50.8 36.9 51.4 37.8 52.6 C 37.8 52.6 37.8 50.1 37.8 50.1 C 37.8 48.1 36.7 47 34.8 47 C 33.4 47 32.3 47.5 31.2 48.8 C 31.2 48.8 30.2 47.3 30.2 47.3 C 31.6 45.8 33.3 45.2 35.1 45.2 C 38 45.2 39.9 46.6 39.9 49.9 C 39.93 49.88 39.9 60 39.9 60 L 37.8 60 Z M 37.8 57 C 37.8 57 37.8 54.2 37.8 54.2 C 37.1 53 35.9 52.4 34.6 52.4 C 32.8 52.4 31.8 53.8 31.8 55.6 C 31.8 57.4 32.8 58.8 34.6 58.8 C 35.9 58.8 37.1 58.2 37.8 57 Z M 42.8 52.8 C 42.8 48.5 45.1 45.2 48.8 45.2 C 50.8 45.2 52.1 46 53 47.1 C 53 47.1 51.8 48.6 51.8 48.6 C 51 47.5 50.1 47.1 49 47.1 C 46.4 47.1 45.1 49.7 45.1 52.8 C 45.1 55.9 46.4 58.5 49 58.5 C 50.1 58.5 51 58 51.8 57 C 51.8 57 53 58.5 53 58.5 C 52.1 59.6 50.8 60.4 48.8 60.4 C 45.1 60.4 42.8 57.1 42.8 52.8 Z M 54.7 52.8 C 54.7 48.6 56.9 45.2 60.6 45.2 C 64.4 45.2 66.3 48.6 66.3 52.8 C 66.33 52.82 66.3 53.5 66.3 53.5 C 66.3 53.5 56.94 53.48 56.9 53.5 C 57 56.4 58.5 58.6 61.1 58.6 C 62.4 58.6 63.7 58 64.6 56.8 C 64.6 56.8 65.7 58.1 65.7 58.1 C 64.5 59.5 62.9 60.4 60.9 60.4 C 57.1 60.4 54.7 57.2 54.7 52.8 Z M 60.6 47 C 58 47 57 49.8 56.9 51.9 C 56.9 51.9 64.2 51.9 64.2 51.9 C 64.2 49.7 63.2 47 60.6 47 Z M 69.6 57.1 C 69.6 57.11 69.6 47.4 69.6 47.4 L 67.7 47.4 L 67.7 45.5 L 69.6 45.5 L 69.6 41.6 L 71.8 41.6 L 71.8 45.5 L 74.2 45.5 L 74.2 47.4 L 71.8 47.4 C 71.8 47.4 71.76 56.72 71.8 56.7 C 71.8 57.8 72.1 58.5 72.9 58.5 C 73.5 58.5 73.9 58.2 74.2 57.9 C 74.2 57.9 74.8 59.5 74.8 59.5 C 74.3 60 73.6 60.4 72.5 60.4 C 70.5 60.4 69.6 59.3 69.6 57.1 Z M 84.2 60 C 84.2 60 84.21 58.46 84.2 58.5 C 83.3 59.8 81.9 60.4 80.4 60.4 C 78.1 60.4 76 58.6 76 55.6 C 76 52.5 78 50.8 80.4 50.8 C 81.9 50.8 83.3 51.4 84.2 52.6 C 84.2 52.6 84.2 50.1 84.2 50.1 C 84.2 48.1 83.1 47 81.2 47 C 79.9 47 78.7 47.5 77.6 48.8 C 77.6 48.8 76.6 47.3 76.6 47.3 C 78 45.8 79.7 45.2 81.6 45.2 C 84.4 45.2 86.4 46.6 86.4 49.9 C 86.37 49.88 86.4 60 86.4 60 L 84.2 60 Z M 84.2 57 C 84.2 57 84.2 54.2 84.2 54.2 C 83.5 53 82.3 52.4 81.1 52.4 C 79.3 52.4 78.2 53.8 78.2 55.6 C 78.2 57.4 79.3 58.8 81.1 58.8 C 82.3 58.8 83.5 58.2 84.2 57 Z M 97.8 60 C 97.8 60 97.82 49.7 97.8 49.7 C 97.8 47.8 97 47.1 95.5 47.1 C 94.1 47.1 92.8 48.2 92.1 49.4 C 92.12 49.4 92.1 60 92.1 60 L 90 60 L 90 45.5 L 92.1 45.5 C 92.1 45.5 92.12 47.6 92.1 47.6 C 93 46.3 94.6 45.2 96.3 45.2 C 98.8 45.2 100 46.5 100 49.1 C 99.98 49.1 100 60 100 60 L 97.8 60 Z M 102.9 52.8 C 102.9 48.7 105 45.2 108.8 45.2 C 112.7 45.2 114.7 48.7 114.7 52.8 C 114.7 56.8 112.7 60.4 108.8 60.4 C 105 60.4 102.9 56.8 102.9 52.8 Z M 112.5 52.8 C 112.5 49.9 111.4 47.1 108.8 47.1 C 106.3 47.1 105.2 49.9 105.2 52.8 C 105.2 55.7 106.3 58.5 108.8 58.5 C 111.4 58.5 112.5 55.7 112.5 52.8 Z M 125.1 60 C 125.1 60 125.09 58.46 125.1 58.5 C 124.2 59.8 122.8 60.4 121.3 60.4 C 118.9 60.4 116.9 58.6 116.9 55.6 C 116.9 52.5 118.9 50.8 121.3 50.8 C 122.8 50.8 124.2 51.4 125.1 52.6 C 125.1 52.6 125.1 50.1 125.1 50.1 C 125.1 48.1 124 47 122.1 47 C 120.8 47 119.6 47.5 118.5 48.8 C 118.5 48.8 117.5 47.3 117.5 47.3 C 118.9 45.8 120.6 45.2 122.5 45.2 C 125.3 45.2 127.3 46.6 127.3 49.9 C 127.25 49.88 127.3 60 127.3 60 L 125.1 60 Z M 125.1 57 C 125.1 57 125.1 54.2 125.1 54.2 C 124.4 53 123.2 52.4 122 52.4 C 120.2 52.4 119.1 53.8 119.1 55.6 C 119.1 57.4 120.2 58.8 122 58.8 C 123.2 58.8 124.4 58.2 125.1 57 Z M 131.3 57.1 C 131.3 57.11 131.3 47.4 131.3 47.4 L 129.4 47.4 L 129.4 45.5 L 131.3 45.5 L 131.3 41.6 L 133.5 41.6 L 133.5 45.5 L 135.9 45.5 L 135.9 47.4 L 133.5 47.4 C 133.5 47.4 133.46 56.72 133.5 56.7 C 133.5 57.8 133.8 58.5 134.6 58.5 C 135.2 58.5 135.6 58.2 135.9 57.9 C 135.9 57.9 136.6 59.5 136.6 59.5 C 136 60 135.3 60.4 134.2 60.4 C 132.2 60.4 131.3 59.3 131.3 57.1 Z M 137.8 52.8 C 137.8 48.6 140 45.2 143.6 45.2 C 147.4 45.2 149.4 48.6 149.4 52.8 C 149.36 52.82 149.4 53.5 149.4 53.5 C 149.4 53.5 139.97 53.48 140 53.5 C 140.1 56.4 141.6 58.6 144.1 58.6 C 145.4 58.6 146.7 58 147.6 56.8 C 147.6 56.8 148.7 58.1 148.7 58.1 C 147.6 59.5 145.9 60.4 144 60.4 C 140.1 60.4 137.8 57.2 137.8 52.8 Z M 143.6 47 C 141.1 47 140 49.8 140 51.9 C 140 51.9 147.2 51.9 147.2 51.9 C 147.2 49.7 146.2 47 143.6 47 Z M 151.9 58.7 C 151.9 57.9 152.7 57.1 153.5 57.1 C 154.4 57.1 155.2 57.9 155.2 58.7 C 155.2 59.6 154.4 60.3 153.5 60.3 C 152.7 60.3 151.9 59.6 151.9 58.7 Z M 178.9 60 L 178.9 44.3 L 173.5 60 L 172.6 60 L 167.3 44.3 L 167.3 60 L 164.9 60 L 164.9 40 L 168.2 40 L 173.1 54.2 L 177.9 40 L 181.2 40 L 181.2 60 L 178.9 60 Z M 184.6 42 C 184.6 41.2 185.2 40.5 186 40.5 C 186.8 40.5 187.5 41.2 187.5 42 C 187.5 42.8 186.8 43.4 186 43.4 C 185.2 43.4 184.6 42.8 184.6 42 Z M 185 60 L 185 45.5 L 187.1 45.5 L 187.1 60 L 185 60 Z M 198.2 60 L 194.9 54.2 L 191.5 60 L 189.1 60 L 193.6 52.6 L 189.4 45.5 L 191.8 45.5 L 194.9 51.1 L 198 45.5 L 200.4 45.5 L 196.2 52.6 L 200.6 60 L 198.2 60 Z M 219.5 60 L 216.4 48.4 L 213.3 60 L 211.1 60 L 207.2 45.5 L 209.5 45.5 L 212.3 57.1 L 215.3 45.5 L 217.4 45.5 L 220.5 57.1 L 223.3 45.5 L 225.6 45.5 L 221.7 60 L 219.5 60 Z M 226.9 52.8 C 226.9 48.6 229.1 45.2 232.8 45.2 C 236.6 45.2 238.5 48.6 238.5 52.8 C 238.52 52.82 238.5 53.5 238.5 53.5 C 238.5 53.5 229.13 53.48 229.1 53.5 C 229.2 56.4 230.7 58.6 233.3 58.6 C 234.6 58.6 235.9 58 236.8 56.8 C 236.8 56.8 237.9 58.1 237.9 58.1 C 236.7 59.5 235.1 60.4 233.1 60.4 C 229.3 60.4 226.9 57.2 226.9 52.8 Z M 232.8 47 C 230.2 47 229.2 49.8 229.1 51.9 C 229.1 51.9 236.4 51.9 236.4 51.9 C 236.4 49.7 235.4 47 232.8 47 Z M 241.4 60 L 241.4 40 L 243.5 40 L 243.5 60 L 241.4 60 Z M 247.2 60 L 247.2 40 L 249.3 40 L 249.3 60 L 247.2 60 Z M 252.8 58.7 C 252.8 57.9 253.5 57.1 254.4 57.1 C 255.3 57.1 256 57.9 256 58.7 C 256 59.6 255.3 60.3 254.4 60.3 C 253.5 60.3 252.8 59.6 252.8 58.7 Z " stroke="none" fill="#efd8d3"/>  </g>  <g id="Polygon170396">    <path d="M 5 24 L 5 7.2 L 1.9 10.5 L 0.4 9 L 5.3 4 L 7.3 4 L 7.3 24 L 5 24 Z M 11 22.7 C 11 21.9 11.7 21.1 12.6 21.1 C 13.4 21.1 14.2 21.9 14.2 22.7 C 14.2 23.6 13.4 24.3 12.6 24.3 C 11.7 24.3 11 23.6 11 22.7 Z M 29.8 14 C 29.8 8 32.8 3.7 37.5 3.7 C 40.6 3.7 42.3 5.5 43.4 7.6 C 43.4 7.6 41.4 8.5 41.4 8.5 C 40.6 6.9 39.3 5.8 37.5 5.8 C 34.3 5.8 32.2 9.3 32.2 14 C 32.2 18.8 34.3 22.3 37.5 22.3 C 39.4 22.3 40.7 21 41.4 19.3 C 41.4 19.3 43.4 20.2 43.4 20.2 C 42.3 22.4 40.6 24.4 37.5 24.4 C 32.8 24.4 29.8 20 29.8 14 Z M 45.3 16.8 C 45.3 12.7 47.3 9.2 51.2 9.2 C 55.1 9.2 57.1 12.7 57.1 16.8 C 57.1 20.8 55.1 24.4 51.2 24.4 C 47.3 24.4 45.3 20.8 45.3 16.8 Z M 54.8 16.8 C 54.8 13.9 53.7 11.1 51.2 11.1 C 48.7 11.1 47.5 13.9 47.5 16.8 C 47.5 19.7 48.7 22.5 51.2 22.5 C 53.7 22.5 54.8 19.7 54.8 16.8 Z M 74.7 24 C 74.7 24 74.67 13.52 74.7 13.5 C 74.7 12 74 11.1 72.7 11.1 C 71.4 11.1 70.1 12.2 69.5 13.4 C 69.51 13.4 69.5 24 69.5 24 L 67.3 24 C 67.3 24 67.35 13.52 67.3 13.5 C 67.3 12 66.7 11.1 65.3 11.1 C 64 11.1 62.8 12.2 62.2 13.4 C 62.16 13.4 62.2 24 62.2 24 L 60 24 L 60 9.5 L 62.2 9.5 C 62.2 9.5 62.16 11.6 62.2 11.6 C 62.8 10.5 64.4 9.2 66.1 9.2 C 68 9.2 69.1 10.2 69.4 11.8 C 70.1 10.4 71.7 9.2 73.5 9.2 C 75.6 9.2 76.8 10.3 76.8 13 C 76.83 12.95 76.8 24 76.8 24 L 74.7 24 Z M 85.9 22.5 C 88.3 22.5 89.4 19.9 89.4 16.8 C 89.4 13.6 88.3 11.1 85.9 11.1 C 84.5 11.1 83.2 12.2 82.6 13.5 C 82.6 13.5 82.6 20.1 82.6 20.1 C 83.2 21.4 84.5 22.5 85.9 22.5 Z M 80.5 24 L 80.5 4 L 82.6 4 C 82.6 4 82.62 11.63 82.6 11.6 C 83.5 10 85 9.2 86.4 9.2 C 89.7 9.2 91.6 12.3 91.6 16.8 C 91.6 21.4 89.7 24.4 86.4 24.4 C 84.9 24.4 83.5 23.4 82.6 22 C 82.62 21.95 82.6 24 82.6 24 L 80.5 24 Z M 94.2 6 C 94.2 5.2 94.9 4.5 95.6 4.5 C 96.4 4.5 97.1 5.2 97.1 6 C 97.1 6.8 96.4 7.4 95.6 7.4 C 94.9 7.4 94.2 6.8 94.2 6 Z M 94.6 24 L 94.6 9.5 L 96.7 9.5 L 96.7 24 L 94.6 24 Z M 108.2 24 C 108.2 24 108.2 13.7 108.2 13.7 C 108.2 11.8 107.3 11.1 105.9 11.1 C 104.5 11.1 103.2 12.2 102.5 13.4 C 102.5 13.4 102.5 24 102.5 24 L 100.4 24 L 100.4 9.5 L 102.5 9.5 C 102.5 9.5 102.5 11.6 102.5 11.6 C 103.3 10.3 105 9.2 106.7 9.2 C 109.2 9.2 110.4 10.5 110.4 13.1 C 110.36 13.1 110.4 24 110.4 24 L 108.2 24 Z M 113.3 16.8 C 113.3 12.6 115.5 9.2 119.2 9.2 C 123 9.2 124.9 12.6 124.9 16.8 C 124.91 16.82 124.9 17.5 124.9 17.5 C 124.9 17.5 115.52 17.48 115.5 17.5 C 115.6 20.4 117.1 22.6 119.7 22.6 C 121 22.6 122.2 22 123.1 20.8 C 123.1 20.8 124.3 22.1 124.3 22.1 C 123.1 23.5 121.5 24.4 119.5 24.4 C 115.6 24.4 113.3 21.2 113.3 16.8 Z M 119.2 11 C 116.6 11 115.6 13.8 115.5 15.9 C 115.5 15.9 122.8 15.9 122.8 15.9 C 122.8 13.7 121.8 11 119.2 11 Z M 134.3 21.1 C 134.33 21.11 134.3 11.4 134.3 11.4 L 132.4 11.4 L 132.4 9.5 L 134.3 9.5 L 134.3 5.6 L 136.5 5.6 L 136.5 9.5 L 139 9.5 L 139 11.4 L 136.5 11.4 C 136.5 11.4 136.49 20.72 136.5 20.7 C 136.5 21.8 136.8 22.5 137.7 22.5 C 138.2 22.5 138.7 22.2 138.9 21.9 C 138.9 21.9 139.6 23.5 139.6 23.5 C 139.1 24 138.4 24.4 137.2 24.4 C 135.3 24.4 134.3 23.3 134.3 21.1 Z M 149.4 24 C 149.4 24 149.36 13.67 149.4 13.7 C 149.4 11.8 148.5 11.1 147 11.1 C 145.6 11.1 144.3 12.2 143.6 13.4 C 143.63 13.4 143.6 24 143.6 24 L 141.5 24 L 141.5 4 L 143.6 4 C 143.6 4 143.63 11.6 143.6 11.6 C 144.5 10.3 146.1 9.2 147.9 9.2 C 150.3 9.2 151.5 10.4 151.5 13 C 151.49 13.04 151.5 24 151.5 24 L 149.4 24 Z M 154.4 16.8 C 154.4 12.6 156.7 9.2 160.3 9.2 C 164.1 9.2 166 12.6 166 16.8 C 166.04 16.82 166 17.5 166 17.5 C 166 17.5 156.65 17.48 156.7 17.5 C 156.7 20.4 158.2 22.6 160.8 22.6 C 162.1 22.6 163.4 22 164.3 20.8 C 164.3 20.8 165.4 22.1 165.4 22.1 C 164.2 23.5 162.6 24.4 160.6 24.4 C 156.8 24.4 154.4 21.2 154.4 16.8 Z M 160.3 11 C 157.7 11 156.7 13.8 156.7 15.9 C 156.7 15.9 163.9 15.9 163.9 15.9 C 163.9 13.7 162.9 11 160.3 11 Z M 174.3 16.8 C 174.3 12.5 176.6 9.2 180.3 9.2 C 182.3 9.2 183.6 10 184.5 11.1 C 184.5 11.1 183.3 12.6 183.3 12.6 C 182.5 11.5 181.6 11.1 180.5 11.1 C 177.9 11.1 176.6 13.7 176.6 16.8 C 176.6 19.9 177.9 22.5 180.5 22.5 C 181.6 22.5 182.5 22 183.3 21 C 183.3 21 184.5 22.5 184.5 22.5 C 183.6 23.6 182.3 24.4 180.3 24.4 C 176.6 24.4 174.3 21.1 174.3 16.8 Z M 186.9 24 L 186.9 4 L 189.1 4 L 189.1 24 L 186.9 24 Z M 192 16.8 C 192 12.6 194.2 9.2 197.9 9.2 C 201.7 9.2 203.6 12.6 203.6 16.8 C 203.6 16.82 203.6 17.5 203.6 17.5 C 203.6 17.5 194.21 17.48 194.2 17.5 C 194.3 20.4 195.8 22.6 198.4 22.6 C 199.6 22.6 200.9 22 201.8 20.8 C 201.8 20.8 203 22.1 203 22.1 C 201.8 23.5 200.2 24.4 198.2 24.4 C 194.3 24.4 192 21.2 192 16.8 Z M 197.8 11 C 195.3 11 194.3 13.8 194.2 15.9 C 194.2 15.9 201.5 15.9 201.5 15.9 C 201.4 13.7 200.5 11 197.8 11 Z M 213.9 24 C 213.9 24 213.89 22.46 213.9 22.5 C 213 23.8 211.6 24.4 210.1 24.4 C 207.7 24.4 205.7 22.6 205.7 19.6 C 205.7 16.5 207.7 14.8 210.1 14.8 C 211.6 14.8 213 15.4 213.9 16.6 C 213.9 16.6 213.9 14.1 213.9 14.1 C 213.9 12.1 212.8 11 210.9 11 C 209.6 11 208.4 11.5 207.3 12.8 C 207.3 12.8 206.3 11.3 206.3 11.3 C 207.7 9.8 209.4 9.2 211.3 9.2 C 214.1 9.2 216.1 10.6 216.1 13.9 C 216.05 13.88 216.1 24 216.1 24 L 213.9 24 Z M 213.9 21 C 213.9 21 213.9 18.2 213.9 18.2 C 213.2 17 212 16.4 210.8 16.4 C 209 16.4 207.9 17.8 207.9 19.6 C 207.9 21.4 209 22.8 210.8 22.8 C 212 22.8 213.2 22.2 213.9 21 Z M 219.7 24 L 219.7 9.5 L 221.8 9.5 C 221.8 9.5 221.81 11.84 221.8 11.8 C 222.7 10.3 224.2 9.2 225.9 9.2 C 225.9 9.2 225.9 11.5 225.9 11.5 C 225.7 11.4 225.4 11.4 225.2 11.4 C 223.9 11.4 222.4 12.5 221.8 13.7 C 221.81 13.73 221.8 24 221.8 24 L 219.7 24 Z M 234.1 28.1 C 234.1 28.1 235.1 26.4 235.1 26.4 C 236.1 27.5 237.3 28.1 238.9 28.1 C 240.9 28.1 242.5 26.9 242.5 24.1 C 242.5 24.1 242.5 21.7 242.5 21.7 C 241.7 23.2 240.3 24.2 238.7 24.2 C 235.5 24.2 233.5 21.3 233.5 16.7 C 233.5 12.2 235.5 9.2 238.7 9.2 C 240.2 9.2 241.6 10 242.5 11.6 C 242.54 11.63 242.5 9.5 242.5 9.5 L 244.7 9.5 C 244.7 9.5 244.7 23.99 244.7 24 C 244.7 28.5 242 29.9 239 29.9 C 237 29.9 235.5 29.5 234.1 28.1 Z M 242.5 19.9 C 242.5 19.9 242.5 13.5 242.5 13.5 C 242 12.2 240.7 11.1 239.3 11.1 C 236.9 11.1 235.8 13.6 235.8 16.7 C 235.8 19.8 236.9 22.3 239.3 22.3 C 240.7 22.3 242 21.1 242.5 19.9 Z M 248.3 24 L 248.3 4 L 250.5 4 L 250.5 24 L 248.3 24 Z M 262 24 C 262 24 261.95 22.01 262 22 C 261.1 23.3 259.6 24.4 257.8 24.4 C 255.3 24.4 254.1 23.2 254.1 20.5 C 254.12 20.51 254.1 9.5 254.1 9.5 L 256.3 9.5 C 256.3 9.5 256.25 19.88 256.3 19.9 C 256.3 21.8 257.2 22.5 258.6 22.5 C 260 22.5 261.3 21.4 262 20.2 C 261.95 20.21 262 9.5 262 9.5 L 264.1 9.5 L 264.1 24 L 262 24 Z M 267.1 16.8 C 267.1 12.6 269.3 9.2 272.9 9.2 C 276.7 9.2 278.7 12.6 278.7 16.8 C 278.66 16.82 278.7 17.5 278.7 17.5 C 278.7 17.5 269.27 17.48 269.3 17.5 C 269.4 20.4 270.9 22.6 273.4 22.6 C 274.7 22.6 276 22 276.9 20.8 C 276.9 20.8 278 22.1 278 22.1 C 276.9 23.5 275.2 24.4 273.3 24.4 C 269.4 24.4 267.1 21.2 267.1 16.8 Z M 272.9 11 C 270.4 11 269.3 13.8 269.3 15.9 C 269.3 15.9 276.5 15.9 276.5 15.9 C 276.5 13.7 275.5 11 272.9 11 Z M 282.2 27.8 C 282.2 27.8 281.1 26.9 281.1 26.9 C 282.1 26.3 282.9 25.1 283 24.1 C 283 24.1 282.8 24.2 282.7 24.2 C 281.8 24.2 281.2 23.5 281.2 22.7 C 281.2 21.8 281.9 21.1 282.8 21.1 C 283.8 21.1 284.6 21.9 284.6 23.4 C 284.6 25.2 283.6 26.8 282.2 27.8 Z M 293.4 16.8 C 293.4 12.5 295.6 9.2 299.4 9.2 C 301.4 9.2 302.6 10 303.5 11.1 C 303.5 11.1 302.3 12.6 302.3 12.6 C 301.5 11.5 300.6 11.1 299.5 11.1 C 297 11.1 295.6 13.7 295.6 16.8 C 295.6 19.9 297 22.5 299.5 22.5 C 300.6 22.5 301.5 22 302.3 21 C 302.3 21 303.5 22.5 303.5 22.5 C 302.6 23.6 301.4 24.4 299.4 24.4 C 295.6 24.4 293.4 21.1 293.4 16.8 Z M 313.8 24 C 313.8 24 313.79 22.01 313.8 22 C 312.9 23.3 311.4 24.4 309.6 24.4 C 307.1 24.4 306 23.2 306 20.5 C 305.96 20.51 306 9.5 306 9.5 L 308.1 9.5 C 308.1 9.5 308.09 19.88 308.1 19.9 C 308.1 21.8 309 22.5 310.4 22.5 C 311.8 22.5 313.2 21.4 313.8 20.2 C 313.79 20.21 313.8 9.5 313.8 9.5 L 315.9 9.5 L 315.9 24 L 313.8 24 Z M 321.7 21.9 C 321.74 21.92 321.7 29.5 321.7 29.5 L 319.6 29.5 L 319.6 9.5 L 321.7 9.5 C 321.7 9.5 321.74 11.6 321.7 11.6 C 322.6 10.1 324 9.2 325.5 9.2 C 328.8 9.2 330.7 12.2 330.7 16.8 C 330.7 21.3 328.8 24.4 325.5 24.4 C 324.1 24.4 322.6 23.5 321.7 21.9 Z M 328.5 16.8 C 328.5 13.6 327.4 11.1 325 11.1 C 323.7 11.1 322.3 12.2 321.7 13.4 C 321.7 13.4 321.7 20.1 321.7 20.1 C 322.3 21.3 323.7 22.5 325 22.5 C 327.4 22.5 328.5 19.9 328.5 16.8 Z M 333.2 6 C 333.2 5.2 333.9 4.5 334.7 4.5 C 335.5 4.5 336.2 5.2 336.2 6 C 336.2 6.8 335.5 7.4 334.7 7.4 C 333.9 7.4 333.2 6.8 333.2 6 Z M 333.6 24 L 333.6 9.5 L 335.8 9.5 L 335.8 24 L 333.6 24 Z M 347.3 24 C 347.3 24 347.27 22.01 347.3 22 C 346.4 23.3 344.9 24.4 343.1 24.4 C 340.6 24.4 339.4 23.2 339.4 20.5 C 339.44 20.51 339.4 9.5 339.4 9.5 L 341.6 9.5 C 341.6 9.5 341.57 19.88 341.6 19.9 C 341.6 21.8 342.5 22.5 343.9 22.5 C 345.3 22.5 346.6 21.4 347.3 20.2 C 347.27 20.21 347.3 9.5 347.3 9.5 L 349.4 9.5 L 349.4 24 L 347.3 24 Z M 367.7 24 C 367.7 24 367.73 13.52 367.7 13.5 C 367.7 12 367.1 11.1 365.7 11.1 C 364.4 11.1 363.1 12.2 362.6 13.4 C 362.57 13.4 362.6 24 362.6 24 L 360.4 24 C 360.4 24 360.41 13.52 360.4 13.5 C 360.4 12 359.8 11.1 358.4 11.1 C 357.1 11.1 355.8 12.2 355.2 13.4 C 355.22 13.4 355.2 24 355.2 24 L 353.1 24 L 353.1 9.5 L 355.2 9.5 C 355.2 9.5 355.22 11.6 355.2 11.6 C 355.8 10.5 357.4 9.2 359.2 9.2 C 361 9.2 362.2 10.2 362.4 11.8 C 363.2 10.4 364.8 9.2 366.5 9.2 C 368.7 9.2 369.9 10.3 369.9 13 C 369.89 12.95 369.9 24 369.9 24 L 367.7 24 Z M 379 16.8 C 379 12.6 381.2 9.2 384.9 9.2 C 388.7 9.2 390.6 12.6 390.6 16.8 C 390.59 16.82 390.6 17.5 390.6 17.5 C 390.6 17.5 381.2 17.48 381.2 17.5 C 381.3 20.4 382.8 22.6 385.4 22.6 C 386.6 22.6 387.9 22 388.8 20.8 C 388.8 20.8 390 22.1 390 22.1 C 388.8 23.5 387.1 24.4 385.2 24.4 C 381.3 24.4 379 21.2 379 16.8 Z M 384.8 11 C 382.3 11 381.3 13.8 381.2 15.9 C 381.2 15.9 388.5 15.9 388.5 15.9 C 388.4 13.7 387.5 11 384.8 11 Z M 392.3 22.3 C 392.3 22.3 393.3 20.8 393.3 20.8 C 394.2 21.8 395.6 22.6 397.1 22.6 C 398.8 22.6 399.9 21.7 399.9 20.3 C 399.9 16.9 392.7 18.1 392.7 13.1 C 392.7 10.9 394.4 9.2 397.3 9.2 C 399.2 9.2 400.7 9.9 401.7 11 C 401.7 11 400.7 12.5 400.7 12.5 C 400 11.5 398.7 10.9 397.3 10.9 C 395.7 10.9 394.8 11.8 394.8 13 C 394.8 16.1 402 15 402 20.2 C 402 22.6 400.1 24.4 397.2 24.4 C 395.1 24.4 393.5 23.7 392.3 22.3 Z M 405.2 21.1 C 405.17 21.11 405.2 11.4 405.2 11.4 L 403.2 11.4 L 403.2 9.5 L 405.2 9.5 L 405.2 5.6 L 407.3 5.6 L 407.3 9.5 L 409.8 9.5 L 409.8 11.4 L 407.3 11.4 C 407.3 11.4 407.33 20.72 407.3 20.7 C 407.3 21.8 407.7 22.5 408.5 22.5 C 409 22.5 409.5 22.2 409.8 21.9 C 409.8 21.9 410.4 23.5 410.4 23.5 C 409.9 24 409.2 24.4 408.1 24.4 C 406.1 24.4 405.2 23.3 405.2 21.1 Z M 411.6 16.8 C 411.6 12.6 413.8 9.2 417.5 9.2 C 421.3 9.2 423.2 12.6 423.2 16.8 C 423.23 16.82 423.2 17.5 423.2 17.5 C 423.2 17.5 413.84 17.48 413.8 17.5 C 413.9 20.4 415.4 22.6 418 22.6 C 419.3 22.6 420.6 22 421.5 20.8 C 421.5 20.8 422.6 22.1 422.6 22.1 C 421.4 23.5 419.8 24.4 417.8 24.4 C 414 24.4 411.6 21.2 411.6 16.8 Z M 417.5 11 C 414.9 11 413.9 13.8 413.8 15.9 C 413.8 15.9 421.1 15.9 421.1 15.9 C 421.1 13.7 420.1 11 417.5 11 Z M 426.1 24 L 426.1 9.5 L 428.2 9.5 C 428.2 9.5 428.21 11.84 428.2 11.8 C 429.1 10.3 430.5 9.2 432.3 9.2 C 432.3 9.2 432.3 11.5 432.3 11.5 C 432.1 11.4 431.8 11.4 431.6 11.4 C 430.3 11.4 428.8 12.5 428.2 13.7 C 428.21 13.73 428.2 24 428.2 24 L 426.1 24 Z M 441.9 24 C 441.9 24 441.95 22.46 441.9 22.5 C 441 23.8 439.6 24.4 438.1 24.4 C 435.8 24.4 433.8 22.6 433.8 19.6 C 433.8 16.5 435.8 14.8 438.1 14.8 C 439.6 14.8 441 15.4 441.9 16.6 C 441.9 16.6 441.9 14.1 441.9 14.1 C 441.9 12.1 440.9 11 439 11 C 437.6 11 436.5 11.5 435.3 12.8 C 435.3 12.8 434.4 11.3 434.4 11.3 C 435.8 9.8 437.5 9.2 439.3 9.2 C 442.2 9.2 444.1 10.6 444.1 13.9 C 444.11 13.88 444.1 24 444.1 24 L 441.9 24 Z M 441.9 21 C 441.9 21 441.9 18.2 441.9 18.2 C 441.3 17 440.1 16.4 438.8 16.4 C 437 16.4 435.9 17.8 435.9 19.6 C 435.9 21.4 437 22.8 438.8 22.8 C 440.1 22.8 441.3 22.2 441.9 21 Z M 446.6 22.3 C 446.6 22.3 447.6 20.8 447.6 20.8 C 448.5 21.8 449.9 22.6 451.4 22.6 C 453.1 22.6 454.2 21.7 454.2 20.3 C 454.2 16.9 447 18.1 447 13.1 C 447 10.9 448.7 9.2 451.6 9.2 C 453.5 9.2 455 9.9 456 11 C 456 11 455 12.5 455 12.5 C 454.3 11.5 453 10.9 451.6 10.9 C 450 10.9 449.1 11.8 449.1 13 C 449.1 16.1 456.3 15 456.3 20.2 C 456.3 22.6 454.4 24.4 451.5 24.4 C 449.4 24.4 447.8 23.7 446.6 22.3 Z M 458.3 16.8 C 458.3 12.6 460.5 9.2 464.2 9.2 C 468 9.2 469.9 12.6 469.9 16.8 C 469.94 16.82 469.9 17.5 469.9 17.5 C 469.9 17.5 460.55 17.48 460.5 17.5 C 460.6 20.4 462.1 22.6 464.7 22.6 C 466 22.6 467.3 22 468.2 20.8 C 468.2 20.8 469.3 22.1 469.3 22.1 C 468.1 23.5 466.5 24.4 464.5 24.4 C 460.7 24.4 458.3 21.2 458.3 16.8 Z M 464.2 11 C 461.6 11 460.6 13.8 460.5 15.9 C 460.5 15.9 467.8 15.9 467.8 15.9 C 467.8 13.7 466.8 11 464.2 11 Z M 473.5 27.8 C 473.5 27.8 472.4 26.9 472.4 26.9 C 473.4 26.3 474.2 25.1 474.3 24.1 C 474.3 24.1 474 24.2 473.9 24.2 C 473.1 24.2 472.5 23.5 472.5 22.7 C 472.5 21.8 473.2 21.1 474.1 21.1 C 475 21.1 475.9 21.9 475.9 23.4 C 475.9 25.2 474.8 26.8 473.5 27.8 Z M 492.8 24 C 492.8 24 492.8 22.46 492.8 22.5 C 491.9 23.8 490.5 24.4 489 24.4 C 486.6 24.4 484.6 22.6 484.6 19.6 C 484.6 16.5 486.6 14.8 489 14.8 C 490.5 14.8 491.9 15.4 492.8 16.6 C 492.8 16.6 492.8 14.1 492.8 14.1 C 492.8 12.1 491.7 11 489.8 11 C 488.5 11 487.3 11.5 486.2 12.8 C 486.2 12.8 485.2 11.3 485.2 11.3 C 486.6 9.8 488.3 9.2 490.2 9.2 C 493 9.2 495 10.6 495 13.9 C 494.96 13.88 495 24 495 24 L 492.8 24 Z M 492.8 21 C 492.8 21 492.8 18.2 492.8 18.2 C 492.1 17 490.9 16.4 489.7 16.4 C 487.9 16.4 486.8 17.8 486.8 19.6 C 486.8 21.4 487.9 22.8 489.7 22.8 C 490.9 22.8 492.1 22.2 492.8 21 Z M 506.4 24 C 506.4 24 506.42 13.7 506.4 13.7 C 506.4 11.8 505.5 11.1 504.1 11.1 C 502.7 11.1 501.4 12.2 500.7 13.4 C 500.72 13.4 500.7 24 500.7 24 L 498.6 24 L 498.6 9.5 L 500.7 9.5 C 500.7 9.5 500.72 11.6 500.7 11.6 C 501.6 10.3 503.2 9.2 504.9 9.2 C 507.4 9.2 508.6 10.5 508.6 13.1 C 508.58 13.1 508.6 24 508.6 24 L 506.4 24 Z M 520.5 24 C 520.5 24 520.52 21.95 520.5 22 C 519.7 23.4 518.2 24.4 516.7 24.4 C 513.5 24.4 511.5 21.4 511.5 16.8 C 511.5 12.3 513.4 9.2 516.7 9.2 C 518.2 9.2 519.6 10 520.5 11.6 C 520.52 11.63 520.5 4 520.5 4 L 522.7 4 L 522.7 24 L 520.5 24 Z M 520.5 20.1 C 520.5 20.1 520.5 13.5 520.5 13.5 C 520 12.2 518.6 11.1 517.2 11.1 C 514.9 11.1 513.8 13.6 513.8 16.8 C 513.8 19.9 514.9 22.5 517.2 22.5 C 518.6 22.5 520 21.4 520.5 20.1 Z M 540.8 24 C 540.8 24 540.76 21.95 540.8 22 C 539.9 23.4 538.5 24.4 537 24.4 C 533.7 24.4 531.8 21.4 531.8 16.8 C 531.8 12.3 533.7 9.2 537 9.2 C 538.4 9.2 539.9 10 540.8 11.6 C 540.76 11.63 540.8 4 540.8 4 L 542.9 4 L 542.9 24 L 540.8 24 Z M 540.8 20.1 C 540.8 20.1 540.8 13.5 540.8 13.5 C 540.2 12.2 538.9 11.1 537.5 11.1 C 535.1 11.1 534 13.6 534 16.8 C 534 19.9 535.1 22.5 537.5 22.5 C 538.9 22.5 540.2 21.4 540.8 20.1 Z M 545.9 16.8 C 545.9 12.6 548.1 9.2 551.7 9.2 C 555.6 9.2 557.5 12.6 557.5 16.8 C 557.47 16.82 557.5 17.5 557.5 17.5 C 557.5 17.5 548.08 17.48 548.1 17.5 C 548.2 20.4 549.7 22.6 552.3 22.6 C 553.5 22.6 554.8 22 555.7 20.8 C 555.7 20.8 556.8 22.1 556.8 22.1 C 555.7 23.5 554 24.4 552.1 24.4 C 548.2 24.4 545.9 21.2 545.9 16.8 Z M 551.7 11 C 549.2 11 548.1 13.8 548.1 15.9 C 548.1 15.9 555.3 15.9 555.3 15.9 C 555.3 13.7 554.4 11 551.7 11 Z M 559.6 16.8 C 559.6 12.5 561.9 9.2 565.6 9.2 C 567.6 9.2 568.8 10 569.7 11.1 C 569.7 11.1 568.6 12.6 568.6 12.6 C 567.8 11.5 566.9 11.1 565.8 11.1 C 563.2 11.1 561.9 13.7 561.9 16.8 C 561.9 19.9 563.2 22.5 565.8 22.5 C 566.9 22.5 567.8 22 568.6 21 C 568.6 21 569.7 22.5 569.7 22.5 C 568.8 23.6 567.6 24.4 565.6 24.4 C 561.9 24.4 559.6 21.1 559.6 16.8 Z M 579.6 24 C 579.6 24 579.64 22.46 579.6 22.5 C 578.7 23.8 577.3 24.4 575.8 24.4 C 573.5 24.4 571.5 22.6 571.5 19.6 C 571.5 16.5 573.5 14.8 575.8 14.8 C 577.3 14.8 578.7 15.4 579.6 16.6 C 579.6 16.6 579.6 14.1 579.6 14.1 C 579.6 12.1 578.6 11 576.7 11 C 575.3 11 574.2 11.5 573 12.8 C 573 12.8 572.1 11.3 572.1 11.3 C 573.5 9.8 575.2 9.2 577 9.2 C 579.9 9.2 581.8 10.6 581.8 13.9 C 581.8 13.88 581.8 24 581.8 24 L 579.6 24 Z M 579.6 21 C 579.6 21 579.6 18.2 579.6 18.2 C 579 17 577.8 16.4 576.5 16.4 C 574.7 16.4 573.6 17.8 573.6 19.6 C 573.6 21.4 574.7 22.8 576.5 22.8 C 577.8 22.8 579 22.2 579.6 21 Z M 584.4 17.7 L 584.4 15.8 L 590.6 15.8 L 590.6 17.7 L 584.4 17.7 Z M 592.8 24 C 592.8 24 592.75 22.07 592.8 22.1 C 599.3 14.5 601.5 12.1 601.5 9.2 C 601.5 7 600 5.8 598.3 5.8 C 596.4 5.8 595.1 6.8 594.1 8.4 C 594.1 8.4 592.5 6.9 592.5 6.9 C 593.9 4.9 595.8 3.7 598.4 3.7 C 601.4 3.7 604 5.7 604 9.2 C 604 12.5 601.5 15.5 596.1 21.9 C 596.14 21.89 604.1 21.9 604.1 21.9 L 604.1 24 L 592.8 24 Z M 606.4 17.7 L 606.4 15.8 L 612.6 15.8 L 612.6 17.7 L 606.4 17.7 Z " stroke="none" fill="#efd8d3"/>  </g></svg>