<?xml version="1.0" standalone="no"?><!DOCTYPE svg PUBLIC "-//W3C//DTD SVG 1.1//EN" "http://www.w3.org/Graphics/SVG/1.1/DTD/svg11.dtd"><svg xmlns="http://www.w3.org/2000/svg" version="1.1" width="510px" height="85.6px" viewBox="0 0 510 85.6">  <desc>Chicken Rice</desc>  <defs/>  <g id="Polygon137728">    <path d="M 1.9 27.4 C 1.9 15.5 5.6 6.7 14.4 6.7 C 20.9 6.7 23.2 11.9 24.4 16.1 C 24.4 16.1 18.4 18.4 18.4 18.4 C 17.6 15.3 16.6 13.4 14.4 13.4 C 10.8 13.4 9.6 19.3 9.6 27.4 C 9.6 35.6 10.8 41.4 14.4 41.4 C 16.9 41.4 17.9 38.9 18.5 35.6 C 18.5 35.6 24.5 37.8 24.5 37.8 C 23.4 42.4 21.1 48.1 14.4 48.1 C 5.6 48.1 1.9 39.3 1.9 27.4 Z M 41.4 47.4 C 41.4 47.4 41.4 26.64 41.4 26.6 C 41.4 24.7 40.7 23.7 39.2 23.7 C 37.4 23.7 35.9 25.6 35.3 27.5 C 35.28 27.48 35.3 47.4 35.3 47.4 L 28.5 47.4 L 28.5 7.4 L 35.3 7.4 C 35.3 7.4 35.28 22.2 35.3 22.2 C 36.4 19.9 39.4 17.7 42.1 17.7 C 46.4 17.7 48.2 20.1 48.2 24.2 C 48.24 24.24 48.2 47.4 48.2 47.4 L 41.4 47.4 Z M 52.9 10.9 C 52.9 8.6 54.8 6.8 57.1 6.8 C 59.3 6.8 61.2 8.6 61.2 10.9 C 61.2 13.2 59.3 15 57.1 15 C 54.8 15 52.9 13.2 52.9 10.9 Z M 53.7 47.4 L 53.7 18.4 L 60.5 18.4 L 60.5 47.4 L 53.7 47.4 Z M 64.8 32.9 C 64.8 24.1 68.9 17.7 75.8 17.7 C 79.1 17.7 81.5 18.9 82.9 20.3 C 82.9 20.3 80.7 25.6 80.7 25.6 C 79.5 24.3 78.4 23.7 77 23.7 C 73.5 23.7 71.8 27.8 71.8 32.9 C 71.8 37.9 73.5 42.1 77 42.1 C 78.4 42.1 79.5 41.5 80.7 40.3 C 80.7 40.3 82.9 45.5 82.9 45.5 C 81.5 47 79.1 48.1 75.8 48.1 C 68.9 48.1 64.8 41.7 64.8 32.9 Z M 100.3 47.4 L 96 35.8 L 93.4 40.6 L 93.4 47.4 L 86.6 47.4 L 86.6 7.4 L 93.4 7.4 L 93.4 31.8 L 100 18.4 L 107.4 18.4 L 100.5 31.3 L 107.7 47.4 L 100.3 47.4 Z M 109 32.9 C 109 24.5 112.6 17.7 119.8 17.7 C 127.1 17.7 130.2 24.2 130.2 32.8 C 130.2 32.76 130.2 35.1 130.2 35.1 C 130.2 35.1 115.5 35.1 115.5 35.1 C 115.6 39.4 117.4 42.6 121.2 42.6 C 122.8 42.6 124.7 41.5 126 39.7 C 126 39.7 129.3 43.5 129.3 43.5 C 127 46.4 123.8 48.1 120.5 48.1 C 112.9 48.1 109 41.8 109 32.9 Z M 119.6 23.2 C 116.3 23.2 115.5 27.3 115.5 30.4 C 115.5 30.4 123.7 30.4 123.7 30.4 C 123.7 27.1 122.9 23.2 119.6 23.2 Z M 147.2 47.4 C 147.2 47.4 147.24 26.76 147.2 26.8 C 147.2 24.7 146.5 23.7 145 23.7 C 143.3 23.7 141.8 25.6 141.1 27.5 C 141.12 27.48 141.1 47.4 141.1 47.4 L 134.3 47.4 L 134.3 18.4 L 141.1 18.4 C 141.1 18.4 141.12 22.2 141.1 22.2 C 142.3 19.9 145.3 17.7 147.9 17.7 C 152.3 17.7 154.1 20.3 154.1 24.3 C 154.08 24.3 154.1 47.4 154.1 47.4 L 147.2 47.4 Z M 184 47.4 L 179.7 32.7 L 177.2 32.7 L 177.2 47.4 L 169.7 47.4 L 169.7 7.4 C 169.7 7.4 180.84 7.38 180.8 7.4 C 187.2 7.4 191.8 12.5 191.8 19.8 C 191.8 26.6 188.9 29.6 186.6 30.8 C 186.6 30.84 192.1 47.4 192.1 47.4 L 184 47.4 Z M 184.1 20 C 184.1 16.4 182.5 14 179.7 14 C 179.7 14.04 177.2 14 177.2 14 L 177.2 26 C 177.2 26 179.7 26.04 179.7 26 C 182.5 26 184.1 23.6 184.1 20 Z M 196.1 10.9 C 196.1 8.6 198.1 6.8 200.3 6.8 C 202.6 6.8 204.4 8.6 204.4 10.9 C 204.4 13.2 202.6 15 200.3 15 C 198.1 15 196.1 13.2 196.1 10.9 Z M 196.9 47.4 L 196.9 18.4 L 203.7 18.4 L 203.7 47.4 L 196.9 47.4 Z M 208 32.9 C 208 24.1 212.1 17.7 219.1 17.7 C 222.3 17.7 224.7 18.9 226.1 20.3 C 226.1 20.3 223.9 25.6 223.9 25.6 C 222.7 24.3 221.6 23.7 220.3 23.7 C 216.7 23.7 215 27.8 215 32.9 C 215 37.9 216.7 42.1 220.3 42.1 C 221.6 42.1 222.7 41.5 223.9 40.3 C 223.9 40.3 226.1 45.5 226.1 45.5 C 224.7 47 222.3 48.1 219.1 48.1 C 212.1 48.1 208 41.7 208 32.9 Z M 228.7 32.9 C 228.7 24.5 232.3 17.7 239.5 17.7 C 246.8 17.7 249.9 24.2 249.9 32.8 C 249.9 32.76 249.9 35.1 249.9 35.1 C 249.9 35.1 235.2 35.1 235.2 35.1 C 235.3 39.4 237.1 42.6 240.9 42.6 C 242.5 42.6 244.4 41.5 245.7 39.7 C 245.7 39.7 249 43.5 249 43.5 C 246.7 46.4 243.5 48.1 240.2 48.1 C 232.6 48.1 228.7 41.8 228.7 32.9 Z M 239.3 23.2 C 236 23.2 235.2 27.3 235.2 30.4 C 235.2 30.4 243.4 30.4 243.4 30.4 C 243.4 27.1 242.6 23.2 239.3 23.2 Z " stroke="none" fill="#b13d24"/>  </g></svg>