<?xml version="1.0" standalone="no"?><!DOCTYPE svg PUBLIC "-//W3C//DTD SVG 1.1//EN" "http://www.w3.org/Graphics/SVG/1.1/DTD/svg11.dtd"><svg xmlns="http://www.w3.org/2000/svg" version="1.1" width="510px" height="85.6px" viewBox="0 0 510 85.6">  <desc>Blackforest Cake</desc>  <defs/>  <g id="Polygon142150">    <path d="M 3.1 47.4 L 3.1 7.4 C 3.1 7.4 15.18 7.38 15.2 7.4 C 21.8 7.4 24.8 12.1 24.8 17.6 C 24.8 22.6 22.4 25.7 18.9 26.8 C 22.7 27.4 25.3 31.7 25.3 36.6 C 25.3 42.7 22.5 47.4 15.6 47.4 C 15.6 47.4 3.1 47.4 3.1 47.4 Z M 17 18.9 C 17 16 16 14 13.2 14 C 13.2 14.04 10.7 14 10.7 14 L 10.7 23.7 C 10.7 23.7 13.2 23.7 13.2 23.7 C 16 23.7 17 21.8 17 18.9 Z M 17.6 35.5 C 17.6 32.6 16.3 30.4 13.4 30.4 C 13.44 30.36 10.7 30.4 10.7 30.4 L 10.7 40.7 C 10.7 40.7 13.44 40.74 13.4 40.7 C 16.3 40.7 17.6 38.9 17.6 35.5 Z M 29.9 47.4 L 29.9 7.4 L 36.7 7.4 L 36.7 47.4 L 29.9 47.4 Z M 54.7 47.4 C 54.7 47.4 54.72 44.64 54.7 44.6 C 53.5 46.9 50.8 48.1 48.7 48.1 C 44.1 48.1 40.8 44.4 40.8 38.5 C 40.8 32.6 44.1 29 48.7 29 C 50.8 29 53.5 30.1 54.7 32.3 C 54.7 32.3 54.7 28.7 54.7 28.7 C 54.7 25.4 53.4 23.5 50.3 23.5 C 48.4 23.5 46.4 24.4 44.5 26.3 C 44.5 26.3 41.9 21.5 41.9 21.5 C 44.6 18.7 48.7 17.7 51.7 17.7 C 57.7 17.7 61.5 20.7 61.5 27.2 C 61.5 27.18 61.5 47.4 61.5 47.4 L 54.7 47.4 Z M 54.7 40.6 C 54.7 40.6 54.7 36.7 54.7 36.7 C 54 34.9 52.6 33.7 51.1 33.7 C 48.7 33.7 47.6 35.8 47.6 38.6 C 47.6 41.3 48.7 43.6 51.1 43.6 C 52.6 43.6 54 42.4 54.7 40.6 Z M 65.9 32.9 C 65.9 24.1 70 17.7 76.9 17.7 C 80.2 17.7 82.6 18.9 83.9 20.3 C 83.9 20.3 81.8 25.6 81.8 25.6 C 80.6 24.3 79.5 23.7 78.1 23.7 C 74.6 23.7 72.8 27.8 72.8 32.9 C 72.8 37.9 74.6 42.1 78.1 42.1 C 79.5 42.1 80.6 41.5 81.8 40.3 C 81.8 40.3 83.9 45.5 83.9 45.5 C 82.6 47 80.2 48.1 76.9 48.1 C 70 48.1 65.9 41.7 65.9 32.9 Z M 101.3 47.4 L 97.1 35.8 L 94.4 40.6 L 94.4 47.4 L 87.7 47.4 L 87.7 7.4 L 94.4 7.4 L 94.4 31.8 L 101.1 18.4 L 108.5 18.4 L 101.6 31.3 L 108.8 47.4 L 101.3 47.4 Z M 112.7 47.4 L 112.7 24.3 L 110.1 24.3 L 110.1 18.4 L 112.7 18.4 C 112.7 18.4 112.74 15.42 112.7 15.4 C 112.7 9.9 115.4 6.8 120.5 6.8 C 122.5 6.8 124.4 7.3 125.6 8.4 C 125.6 8.4 123.8 13.6 123.8 13.6 C 123.2 13 122.7 12.7 121.9 12.7 C 120.3 12.7 119.5 13.7 119.5 15.4 C 119.52 15.42 119.5 18.4 119.5 18.4 L 123.2 18.4 L 123.2 24.3 L 119.5 24.3 L 119.5 47.4 L 112.7 47.4 Z M 125.7 32.9 C 125.7 24.8 129 17.7 136.6 17.7 C 144.2 17.7 147.5 24.8 147.5 32.9 C 147.5 40.9 144.2 48.1 136.6 48.1 C 129 48.1 125.7 40.9 125.7 32.9 Z M 140.5 32.9 C 140.5 28 139.6 23.7 136.6 23.7 C 133.6 23.7 132.7 28 132.7 32.9 C 132.7 37.9 133.6 42.1 136.6 42.1 C 139.6 42.1 140.5 37.9 140.5 32.9 Z M 151.9 47.4 L 151.9 18.4 L 158.6 18.4 C 158.6 18.4 158.64 22.44 158.6 22.4 C 159.8 19.8 162.6 17.7 165.1 17.7 C 165.1 17.7 165.1 24.4 165.1 24.4 C 164.7 24.2 164.2 24.2 163.8 24.2 C 161.8 24.2 159.8 25.8 158.6 27.9 C 158.64 27.9 158.6 47.4 158.6 47.4 L 151.9 47.4 Z M 167.5 32.9 C 167.5 24.5 171.1 17.7 178.4 17.7 C 185.7 17.7 188.8 24.2 188.8 32.8 C 188.76 32.76 188.8 35.1 188.8 35.1 C 188.8 35.1 174.06 35.1 174.1 35.1 C 174.1 39.4 175.9 42.6 179.8 42.6 C 181.4 42.6 183.2 41.5 184.6 39.7 C 184.6 39.7 187.9 43.5 187.9 43.5 C 185.6 46.4 182.3 48.1 179 48.1 C 171.5 48.1 167.5 41.8 167.5 32.9 Z M 178.2 23.2 C 174.9 23.2 174.1 27.3 174.1 30.4 C 174.1 30.4 182.2 30.4 182.2 30.4 C 182.2 27.1 181.5 23.2 178.2 23.2 Z M 190.9 44.3 C 190.9 44.3 193.7 39.7 193.7 39.7 C 195.2 41.4 197.4 42.8 199.7 42.8 C 201.8 42.8 203.3 41.6 203.3 39.7 C 203.3 34.9 191.9 36 191.9 25.9 C 191.9 21.5 195.2 17.7 201.1 17.7 C 204.4 17.7 207.5 19 209.6 21.1 C 209.6 21.1 206.9 25.7 206.9 25.7 C 205.7 24.3 203.6 23 201.3 23 C 199.4 23 198.2 24.2 198.2 25.7 C 198.2 30.1 209.8 29.3 209.8 39.5 C 209.8 44.6 205.8 48.1 200.3 48.1 C 196 48.1 192.8 46.6 190.9 44.3 Z M 214.6 40.7 C 214.56 40.74 214.6 24.3 214.6 24.3 L 211.9 24.3 L 211.9 18.4 L 214.6 18.4 L 214.6 10.5 L 221.3 10.5 L 221.3 18.4 L 225 18.4 L 225 24.3 L 221.3 24.3 C 221.3 24.3 221.34 39.42 221.3 39.4 C 221.3 41.2 221.8 42.1 223 42.1 C 223.6 42.1 224.2 41.8 224.6 41.3 C 224.6 41.3 226 46.6 226 46.6 C 224.9 47.5 223.3 48.1 221.2 48.1 C 216.5 48.1 214.6 45.7 214.6 40.7 Z M 238 27.4 C 238 15.5 241.8 6.7 250.6 6.7 C 257 6.7 259.3 11.9 260.6 16.1 C 260.6 16.1 254.6 18.4 254.6 18.4 C 253.7 15.3 252.8 13.4 250.6 13.4 C 247 13.4 245.8 19.3 245.8 27.4 C 245.8 35.6 247 41.4 250.6 41.4 C 253 41.4 254.1 38.9 254.6 35.6 C 254.6 35.6 260.7 37.8 260.7 37.8 C 259.6 42.4 257.2 48.1 250.6 48.1 C 241.8 48.1 238 39.3 238 27.4 Z M 277.3 47.4 C 277.3 47.4 277.26 44.64 277.3 44.6 C 276 46.9 273.3 48.1 271.2 48.1 C 266.6 48.1 263.3 44.4 263.3 38.5 C 263.3 32.6 266.6 29 271.2 29 C 273.3 29 276.1 30.1 277.3 32.3 C 277.3 32.3 277.3 28.7 277.3 28.7 C 277.3 25.4 275.9 23.5 272.9 23.5 C 271 23.5 268.9 24.4 267 26.3 C 267 26.3 264.5 21.5 264.5 21.5 C 267.1 18.7 271.3 17.7 274.3 17.7 C 280.2 17.7 284 20.7 284 27.2 C 284.04 27.18 284 47.4 284 47.4 L 277.3 47.4 Z M 277.3 40.6 C 277.3 40.6 277.3 36.7 277.3 36.7 C 276.5 34.9 275.1 33.7 273.6 33.7 C 271.3 33.7 270.1 35.8 270.1 38.6 C 270.1 41.3 271.3 43.6 273.6 43.6 C 275.1 43.6 276.5 42.4 277.3 40.6 Z M 303.2 47.4 L 299 35.8 L 296.3 40.6 L 296.3 47.4 L 289.6 47.4 L 289.6 7.4 L 296.3 7.4 L 296.3 31.8 L 303 18.4 L 310.4 18.4 L 303.5 31.3 L 310.7 47.4 L 303.2 47.4 Z M 311.9 32.9 C 311.9 24.5 315.5 17.7 322.8 17.7 C 330.1 17.7 333.2 24.2 333.2 32.8 C 333.18 32.76 333.2 35.1 333.2 35.1 C 333.2 35.1 318.48 35.1 318.5 35.1 C 318.5 39.4 320.3 42.6 324.2 42.6 C 325.8 42.6 327.7 41.5 329 39.7 C 329 39.7 332.3 43.5 332.3 43.5 C 330 46.4 326.8 48.1 323.5 48.1 C 315.9 48.1 311.9 41.8 311.9 32.9 Z M 322.6 23.2 C 319.3 23.2 318.5 27.3 318.5 30.4 C 318.5 30.4 326.6 30.4 326.6 30.4 C 326.6 27.1 325.9 23.2 322.6 23.2 Z " stroke="none" fill="#b13d24"/>  </g></svg>