<?xml version="1.0" standalone="no"?><!DOCTYPE svg PUBLIC "-//W3C//DTD SVG 1.1//EN" "http://www.w3.org/Graphics/SVG/1.1/DTD/svg11.dtd"><svg xmlns="http://www.w3.org/2000/svg" version="1.1" width="214px" height="43.1px" viewBox="0 0 214 43.1">  <desc>TOXICITY REPORT</desc>  <defs/>  <g id="Polygon227405">    <path d="M 7.1 23.7 L 7.1 7.2 L 2.6 7.2 L 2.6 3.7 L 15.5 3.7 L 15.5 7.2 L 11.1 7.2 L 11.1 23.7 L 7.1 23.7 Z M 16.6 13.7 C 16.6 7.8 19.7 3.4 25 3.4 C 30.2 3.4 33.3 7.8 33.3 13.7 C 33.3 19.7 30.2 24.1 25 24.1 C 19.7 24.1 16.6 19.7 16.6 13.7 Z M 29.2 13.7 C 29.2 9.8 27.7 6.9 25 6.9 C 22.2 6.9 20.8 9.8 20.8 13.7 C 20.8 17.5 22.2 20.5 25 20.5 C 27.7 20.5 29.2 17.5 29.2 13.7 Z M 45.7 23.7 L 41.9 16.6 L 38.2 23.7 L 33.6 23.7 L 39.4 13.5 L 33.9 3.7 L 38.5 3.7 L 41.9 10.4 L 45.3 3.7 L 50 3.7 L 44.4 13.4 L 50.3 23.7 L 45.7 23.7 Z M 52 23.7 L 52 3.7 L 56 3.7 L 56 23.7 L 52 23.7 Z M 58.7 13.7 C 58.7 7.6 62 3.4 67.2 3.4 C 71 3.4 72.9 5.8 73.9 8.2 C 73.9 8.2 70.6 9.6 70.6 9.6 C 70 8 68.8 6.9 67.2 6.9 C 64.5 6.9 62.9 9.8 62.9 13.7 C 62.9 17.6 64.5 20.5 67.2 20.5 C 68.9 20.5 70 19.2 70.6 17.6 C 70.6 17.6 73.9 19 73.9 19 C 72.9 21.4 71.1 24.1 67.2 24.1 C 62 24.1 58.7 19.8 58.7 13.7 Z M 76.3 23.7 L 76.3 3.7 L 80.3 3.7 L 80.3 23.7 L 76.3 23.7 Z M 87.2 23.7 L 87.2 7.2 L 82.7 7.2 L 82.7 3.7 L 95.6 3.7 L 95.6 7.2 L 91.2 7.2 L 91.2 23.7 L 87.2 23.7 Z M 102.3 23.7 L 102.3 15.4 L 96.2 3.7 L 100.6 3.7 L 104.3 11.7 L 108.1 3.7 L 112.5 3.7 L 106.4 15.4 L 106.4 23.7 L 102.3 23.7 Z M 128.8 23.7 L 125.7 16.5 L 123.5 16.5 L 123.5 23.7 L 119.5 23.7 L 119.5 3.7 C 119.5 3.7 126.98 3.69 127 3.7 C 130.6 3.7 133.1 6.3 133.1 10 C 133.1 13.5 131.2 15.2 129.6 15.7 C 129.59 15.75 133.2 23.7 133.2 23.7 L 128.8 23.7 Z M 129 10.1 C 129 8.3 127.9 7.2 126.4 7.2 C 126.38 7.23 123.5 7.2 123.5 7.2 L 123.5 12.9 C 123.5 12.9 126.38 12.93 126.4 12.9 C 127.9 12.9 129 11.8 129 10.1 Z M 136 23.7 L 136 3.7 L 147.5 3.7 L 147.5 7.2 L 140.1 7.2 L 140.1 11.8 L 147.3 11.8 L 147.3 15.3 L 140.1 15.3 L 140.1 20.2 L 147.5 20.2 L 147.5 23.7 L 136 23.7 Z M 150.5 23.7 L 150.5 3.7 C 150.5 3.7 157.85 3.69 157.9 3.7 C 162 3.7 164 6.7 164 10.1 C 164 13.5 162 16.5 157.9 16.5 C 157.85 16.47 154.5 16.5 154.5 16.5 L 154.5 23.7 L 150.5 23.7 Z M 159.9 10.1 C 159.9 8.3 158.9 7.2 157.4 7.2 C 157.37 7.23 154.5 7.2 154.5 7.2 L 154.5 12.9 C 154.5 12.9 157.37 12.93 157.4 12.9 C 158.9 12.9 159.9 11.8 159.9 10.1 Z M 165.7 13.7 C 165.7 7.8 168.8 3.4 174 3.4 C 179.2 3.4 182.4 7.8 182.4 13.7 C 182.4 19.7 179.2 24.1 174 24.1 C 168.8 24.1 165.7 19.7 165.7 13.7 Z M 178.3 13.7 C 178.3 9.8 176.8 6.9 174 6.9 C 171.3 6.9 169.8 9.8 169.8 13.7 C 169.8 17.5 171.3 20.5 174 20.5 C 176.8 20.5 178.3 17.5 178.3 13.7 Z M 194.4 23.7 L 191.3 16.5 L 189.1 16.5 L 189.1 23.7 L 185.1 23.7 L 185.1 3.7 C 185.1 3.7 192.59 3.69 192.6 3.7 C 196.3 3.7 198.7 6.3 198.7 10 C 198.7 13.5 196.9 15.2 195.2 15.7 C 195.2 15.75 198.8 23.7 198.8 23.7 L 194.4 23.7 Z M 194.6 10.1 C 194.6 8.3 193.6 7.2 192 7.2 C 191.99 7.23 189.1 7.2 189.1 7.2 L 189.1 12.9 C 189.1 12.9 191.99 12.93 192 12.9 C 193.6 12.9 194.6 11.8 194.6 10.1 Z M 204.7 23.7 L 204.7 7.2 L 200.2 7.2 L 200.2 3.7 L 213.1 3.7 L 213.1 7.2 L 208.7 7.2 L 208.7 23.7 L 204.7 23.7 Z " stroke="none" fill="#d3d2d2"/>  </g></svg>