<?xml version="1.0" standalone="no"?><!DOCTYPE svg PUBLIC "-//W3C//DTD SVG 1.1//EN" "http://www.w3.org/Graphics/SVG/1.1/DTD/svg11.dtd"><svg xmlns="http://www.w3.org/2000/svg" version="1.1" width="841px" height="256.1px" viewBox="0 0 841 256.1">  <desc>Browned Packing Foam with Leather Strips, Hair Wax Icing and Petroleum Jelly Filling</desc>  <defs/>  <g id="Polygon118360">    <path d="M 159.3 192.9 L 159.3 144.9 C 159.3 144.9 172.29 144.86 172.3 144.9 C 181.6 144.9 185.8 152 185.8 160 C 185.8 168.1 181.6 175.2 172.3 175.2 C 172.29 175.24 168.4 175.2 168.4 175.2 L 168.4 192.9 L 159.3 192.9 Z M 176.6 160 C 176.6 155.7 174.7 152.8 171.4 152.8 C 171.35 152.85 168.4 152.8 168.4 152.8 L 168.4 167.2 C 168.4 167.2 171.35 167.25 171.4 167.2 C 174.7 167.2 176.6 164.4 176.6 160 Z M 187.8 175.5 C 187.8 165.4 192.2 157.2 200.9 157.2 C 209.7 157.2 213.3 165.1 213.3 175.3 C 213.33 175.31 213.3 178.1 213.3 178.1 C 213.3 178.1 195.69 178.12 195.7 178.1 C 195.8 183.2 197.9 187.1 202.5 187.1 C 204.5 187.1 206.7 185.8 208.3 183.7 C 208.3 183.7 212.2 188.2 212.2 188.2 C 209.5 191.7 205.6 193.7 201.7 193.7 C 192.6 193.7 187.8 186.1 187.8 175.5 Z M 200.7 163.9 C 196.7 163.9 195.7 168.8 195.7 172.4 C 195.7 172.4 205.5 172.4 205.5 172.4 C 205.5 168.5 204.6 163.9 200.7 163.9 Z M 219.4 184.9 C 219.38 184.89 219.4 165.2 219.4 165.2 L 216.1 165.2 L 216.1 158.1 L 219.4 158.1 L 219.4 148.6 L 227.5 148.6 L 227.5 158.1 L 231.9 158.1 L 231.9 165.2 L 227.5 165.2 C 227.5 165.2 227.51 183.3 227.5 183.3 C 227.5 185.5 228 186.5 229.5 186.5 C 230.2 186.5 231 186.2 231.4 185.6 C 231.4 185.6 233.1 191.9 233.1 191.9 C 231.8 193 229.9 193.7 227.4 193.7 C 221.7 193.7 219.4 190.9 219.4 184.9 Z M 236.9 192.9 L 236.9 158.1 L 245 158.1 C 245 158.1 245.01 162.93 245 162.9 C 246.4 159.8 249.8 157.2 252.8 157.2 C 252.8 157.2 252.8 165.2 252.8 165.2 C 252.3 165.1 251.7 165 251.2 165 C 248.8 165 246.4 167 245 169.5 C 245.01 169.48 245 192.9 245 192.9 L 236.9 192.9 Z M 255.7 175.5 C 255.7 165.8 259.6 157.2 268.7 157.2 C 277.8 157.2 281.8 165.8 281.8 175.5 C 281.8 185.1 277.8 193.7 268.7 193.7 C 259.6 193.7 255.7 185.1 255.7 175.5 Z M 273.4 175.5 C 273.4 169.6 272.4 164.4 268.7 164.4 C 265.1 164.4 264.1 169.6 264.1 175.5 C 264.1 181.4 265.1 186.5 268.7 186.5 C 272.4 186.5 273.4 181.4 273.4 175.5 Z M 287.1 192.9 L 287.1 144.9 L 295.2 144.9 L 295.2 192.9 L 287.1 192.9 Z M 300.4 175.5 C 300.4 165.4 304.7 157.2 313.4 157.2 C 322.2 157.2 325.9 165.1 325.9 175.3 C 325.86 175.31 325.9 178.1 325.9 178.1 C 325.9 178.1 308.22 178.12 308.2 178.1 C 308.3 183.2 310.5 187.1 315.1 187.1 C 317 187.1 319.2 185.8 320.8 183.7 C 320.8 183.7 324.8 188.2 324.8 188.2 C 322 191.7 318.2 193.7 314.2 193.7 C 305.1 193.7 300.4 186.1 300.4 175.5 Z M 313.2 163.9 C 309.2 163.9 308.2 168.8 308.2 172.4 C 308.2 172.4 318 172.4 318 172.4 C 318 168.5 317.2 163.9 313.2 163.9 Z M 346.3 192.9 C 346.3 192.9 346.31 188.49 346.3 188.5 C 344.9 191.3 341.6 193.7 338.2 193.7 C 332.9 193.7 330.8 190.9 330.8 185.9 C 330.83 185.9 330.8 158.1 330.8 158.1 L 339 158.1 C 339 158.1 338.97 183.02 339 183 C 339 185.4 339.8 186.5 341.6 186.5 C 343.7 186.5 345.5 184.4 346.3 182.2 C 346.31 182.15 346.3 158.1 346.3 158.1 L 354.5 158.1 L 354.5 192.9 L 346.3 192.9 Z M 392.1 192.9 C 392.1 192.9 392.1 168.11 392.1 168.1 C 392.1 165.5 391.2 164.4 389.4 164.4 C 387.2 164.4 385.5 166.9 384.8 169 C 384.76 168.98 384.8 192.9 384.8 192.9 L 376.6 192.9 C 376.6 192.9 376.55 168.11 376.6 168.1 C 376.6 165.7 375.8 164.4 373.9 164.4 C 371.7 164.4 369.9 166.9 369.2 169 C 369.21 168.98 369.2 192.9 369.2 192.9 L 361.1 192.9 L 361.1 158.1 L 369.2 158.1 C 369.2 158.1 369.21 162.64 369.2 162.6 C 370.4 160 374 157.2 377.3 157.2 C 381 157.2 383.9 159 384.5 163 C 385.8 160.1 389.4 157.2 392.9 157.2 C 397.2 157.2 400.2 159.5 400.2 165.2 C 400.24 165.16 400.2 192.9 400.2 192.9 L 392.1 192.9 Z M 415.9 191.2 C 415.9 191.2 418.3 183.7 418.3 183.7 C 419.5 185.1 421.1 185.7 422.7 185.7 C 425.7 185.7 427.7 184.1 427.7 180.4 C 427.67 180.42 427.7 144.9 427.7 144.9 L 436.7 144.9 C 436.7 144.9 436.74 180.86 436.7 180.9 C 436.7 189.9 431.4 193.7 423.7 193.7 C 420.9 193.7 418.2 193.1 415.9 191.2 Z M 442.3 175.5 C 442.3 165.4 446.6 157.2 455.3 157.2 C 464.1 157.2 467.8 165.1 467.8 175.3 C 467.77 175.31 467.8 178.1 467.8 178.1 C 467.8 178.1 450.13 178.12 450.1 178.1 C 450.2 183.2 452.4 187.1 457 187.1 C 458.9 187.1 461.1 185.8 462.7 183.7 C 462.7 183.7 466.7 188.2 466.7 188.2 C 464 191.7 460.1 193.7 456.1 193.7 C 447 193.7 442.3 186.1 442.3 175.5 Z M 455.1 163.9 C 451.1 163.9 450.1 168.8 450.1 172.4 C 450.1 172.4 459.9 172.4 459.9 172.4 C 459.9 168.5 459.1 163.9 455.1 163.9 Z M 472.7 192.9 L 472.7 144.9 L 480.9 144.9 L 480.9 192.9 L 472.7 192.9 Z M 487.4 192.9 L 487.4 144.9 L 495.6 144.9 L 495.6 192.9 L 487.4 192.9 Z M 502.8 199.4 C 503.3 199.6 504.1 199.8 504.5 199.8 C 506 199.8 506.9 199.1 507.4 197.3 C 507.37 197.34 508.4 193.7 508.4 193.7 L 498.9 158.1 L 507.6 158.1 L 512.5 182.6 L 517.5 158.1 L 526.1 158.1 C 526.1 158.1 515.15 199 515.1 199 C 513.4 205.3 510.6 207 505.6 207 C 504.4 207 502.5 206.8 501.7 206.5 C 501.7 206.5 502.8 199.4 502.8 199.4 Z M 541.6 192.9 L 541.6 144.9 L 562.7 144.9 L 562.7 152.8 L 550.7 152.8 L 550.7 164.4 L 562.2 164.4 L 562.2 172.4 L 550.7 172.4 L 550.7 192.9 L 541.6 192.9 Z M 567.3 149.1 C 567.3 146.4 569.6 144.1 572.3 144.1 C 575 144.1 577.3 146.4 577.3 149.1 C 577.3 151.8 575 154 572.3 154 C 569.6 154 567.3 151.8 567.3 149.1 Z M 568.3 192.9 L 568.3 158.1 L 576.4 158.1 L 576.4 192.9 L 568.3 192.9 Z M 583 192.9 L 583 144.9 L 591.1 144.9 L 591.1 192.9 L 583 192.9 Z M 597.7 192.9 L 597.7 144.9 L 605.8 144.9 L 605.8 192.9 L 597.7 192.9 Z M 611.4 149.1 C 611.4 146.4 613.7 144.1 616.4 144.1 C 619.1 144.1 621.3 146.4 621.3 149.1 C 621.3 151.8 619.1 154 616.4 154 C 613.7 154 611.4 151.8 611.4 149.1 Z M 612.3 192.9 L 612.3 158.1 L 620.5 158.1 L 620.5 192.9 L 612.3 192.9 Z M 642.5 192.9 C 642.5 192.9 642.51 168.11 642.5 168.1 C 642.5 165.7 641.6 164.4 639.8 164.4 C 637.8 164.4 636 166.7 635.2 169 C 635.17 168.98 635.2 192.9 635.2 192.9 L 627 192.9 L 627 158.1 L 635.2 158.1 C 635.2 158.1 635.17 162.64 635.2 162.6 C 636.5 159.8 640.1 157.2 643.3 157.2 C 648.6 157.2 650.7 160.3 650.7 165.2 C 650.72 165.16 650.7 192.9 650.7 192.9 L 642.5 192.9 Z M 657.2 203.2 C 657.2 203.2 659.9 196.6 659.9 196.6 C 662 198.6 664.4 199.9 667.1 199.9 C 670.5 199.9 673 197.7 673 192.3 C 673 192.3 673 187.3 673 187.3 C 671.5 190.8 668.6 192.6 666.2 192.6 C 659.4 192.6 655.9 186.1 655.9 175 C 655.9 164 659.4 157.2 666.2 157.2 C 668.6 157.2 671.5 158.8 673 162.4 C 672.97 162.42 673 158.1 673 158.1 L 681.1 158.1 C 681.1 158.1 681.1 191.73 681.1 191.7 C 681.1 203.7 674.7 207 667.9 207 C 663.6 207 660.1 206 657.2 203.2 Z M 673 181.2 C 673 181.2 673 168.6 673 168.6 C 672.2 166.3 670.6 164.4 668.9 164.4 C 665.3 164.4 664.3 168.8 664.3 175 C 664.3 181.1 665.3 185.4 668.9 185.4 C 670.6 185.4 672.2 183.5 673 181.2 Z " stroke="none" fill="#e9e8e8"/>  </g>  <g id="Polygon118359">    <path d="M 22.7 124.9 L 22.7 76.9 L 31.8 76.9 L 31.8 116.9 L 43.7 116.9 L 43.7 124.9 L 22.7 124.9 Z M 46.5 107.5 C 46.5 97.4 50.9 89.2 59.6 89.2 C 68.4 89.2 72 97.1 72 107.3 C 72.03 107.31 72 110.1 72 110.1 C 72 110.1 54.39 110.12 54.4 110.1 C 54.5 115.2 56.6 119.1 61.2 119.1 C 63.2 119.1 65.4 117.8 67 115.7 C 67 115.7 71 120.2 71 120.2 C 68.2 123.7 64.3 125.7 60.4 125.7 C 51.3 125.7 46.5 118.1 46.5 107.5 Z M 59.4 95.9 C 55.4 95.9 54.4 100.8 54.4 104.4 C 54.4 104.4 64.2 104.4 64.2 104.4 C 64.2 100.5 63.3 95.9 59.4 95.9 Z M 92.1 124.9 C 92.1 124.9 92.12 121.57 92.1 121.6 C 90.6 124.3 87.4 125.7 84.8 125.7 C 79.4 125.7 75.4 121.3 75.4 114.2 C 75.4 107.1 79.4 102.8 84.8 102.8 C 87.4 102.8 90.7 104.1 92.1 106.7 C 92.1 106.7 92.1 102.5 92.1 102.5 C 92.1 98.5 90.5 96.2 86.9 96.2 C 84.6 96.2 82.1 97.2 79.8 99.6 C 79.8 99.6 76.8 93.8 76.8 93.8 C 79.9 90.5 84.9 89.2 88.5 89.2 C 95.6 89.2 100.3 92.8 100.3 100.6 C 100.25 100.62 100.3 124.9 100.3 124.9 L 92.1 124.9 Z M 92.1 116.7 C 92.1 116.7 92.1 112 92.1 112 C 91.3 109.8 89.5 108.4 87.7 108.4 C 84.9 108.4 83.5 111 83.5 114.3 C 83.5 117.6 84.9 120.3 87.7 120.3 C 89.5 120.3 91.3 118.9 92.1 116.7 Z M 108 116.9 C 107.96 116.89 108 97.2 108 97.2 L 104.7 97.2 L 104.7 90.1 L 108 90.1 L 108 80.6 L 116.1 80.6 L 116.1 90.1 L 120.5 90.1 L 120.5 97.2 L 116.1 97.2 C 116.1 97.2 116.09 115.3 116.1 115.3 C 116.1 117.5 116.6 118.5 118 118.5 C 118.8 118.5 119.5 118.2 120 117.6 C 120 117.6 121.6 123.9 121.6 123.9 C 120.4 125 118.5 125.7 115.9 125.7 C 110.3 125.7 108 122.9 108 116.9 Z M 140.9 124.9 C 140.9 124.9 140.93 99.97 140.9 100 C 140.9 97.6 140.1 96.4 138.3 96.4 C 136.2 96.4 134.4 98.7 133.6 101 C 133.59 100.98 133.6 124.9 133.6 124.9 L 125.5 124.9 L 125.5 76.9 L 133.6 76.9 C 133.6 76.9 133.59 94.64 133.6 94.6 C 135 91.8 138.6 89.2 141.7 89.2 C 147 89.2 149.1 92.1 149.1 97.1 C 149.14 97.09 149.1 124.9 149.1 124.9 L 140.9 124.9 Z M 154.3 107.5 C 154.3 97.4 158.6 89.2 167.4 89.2 C 176.1 89.2 179.8 97.1 179.8 107.3 C 179.81 107.31 179.8 110.1 179.8 110.1 C 179.8 110.1 162.17 110.12 162.2 110.1 C 162.2 115.2 164.4 119.1 169 119.1 C 171 119.1 173.2 117.8 174.8 115.7 C 174.8 115.7 178.7 120.2 178.7 120.2 C 176 123.7 172.1 125.7 168.1 125.7 C 159.1 125.7 154.3 118.1 154.3 107.5 Z M 167.1 95.9 C 163.2 95.9 162.2 100.8 162.2 104.4 C 162.2 104.4 172 104.4 172 104.4 C 172 100.5 171.1 95.9 167.1 95.9 Z M 184.8 124.9 L 184.8 90.1 L 192.9 90.1 C 192.9 90.1 192.92 94.93 192.9 94.9 C 194.3 91.8 197.7 89.2 200.7 89.2 C 200.7 89.2 200.7 97.2 200.7 97.2 C 200.2 97.1 199.6 97 199.1 97 C 196.7 97 194.3 99 192.9 101.5 C 192.92 101.48 192.9 124.9 192.9 124.9 L 184.8 124.9 Z M 214.2 121 C 214.2 121 218.2 113.9 218.2 113.9 C 220.1 116.4 223.2 117.7 226 117.7 C 228.9 117.7 230.9 115.5 230.9 112.4 C 230.9 103.9 215.6 103.9 215.6 89.5 C 215.6 82.3 220.5 76.1 229 76.1 C 233 76.1 236.8 77.4 239.4 80 C 239.4 80 235.9 86.9 235.9 86.9 C 234 85 231.8 84.1 229.3 84.1 C 226.7 84.1 224.8 86.1 224.8 89 C 224.8 96.4 240.1 97.4 240.1 111.8 C 240.1 119.9 234.8 125.7 226.6 125.7 C 221.4 125.7 217.3 124.1 214.2 121 Z M 245.5 116.9 C 245.55 116.89 245.5 97.2 245.5 97.2 L 242.3 97.2 L 242.3 90.1 L 245.5 90.1 L 245.5 80.6 L 253.7 80.6 L 253.7 90.1 L 258.1 90.1 L 258.1 97.2 L 253.7 97.2 C 253.7 97.2 253.68 115.3 253.7 115.3 C 253.7 117.5 254.2 118.5 255.6 118.5 C 256.4 118.5 257.1 118.2 257.6 117.6 C 257.6 117.6 259.2 123.9 259.2 123.9 C 258 125 256.1 125.7 253.5 125.7 C 247.9 125.7 245.5 122.9 245.5 116.9 Z M 263 124.9 L 263 90.1 L 271.2 90.1 C 271.2 90.1 271.18 94.93 271.2 94.9 C 272.5 91.8 275.9 89.2 279 89.2 C 279 89.2 279 97.2 279 97.2 C 278.5 97.1 277.9 97 277.4 97 C 275 97 272.5 99 271.2 101.5 C 271.18 101.48 271.2 124.9 271.2 124.9 L 263 124.9 Z M 282.3 81.1 C 282.3 78.4 284.6 76.1 287.2 76.1 C 290 76.1 292.2 78.4 292.2 81.1 C 292.2 83.8 290 86 287.2 86 C 284.6 86 282.3 83.8 282.3 81.1 Z M 283.2 124.9 L 283.2 90.1 L 291.3 90.1 L 291.3 124.9 L 283.2 124.9 Z M 306 120.6 C 306.03 120.56 306 138.1 306 138.1 L 297.9 138.1 L 297.9 90.1 L 306 90.1 C 306 90.1 306.03 94.42 306 94.4 C 307.5 91 310.3 89.2 312.8 89.2 C 319.6 89.2 323.1 96.3 323.1 107.5 C 323.1 118.4 319.6 125.7 312.8 125.7 C 310.3 125.7 307.5 124.2 306 120.6 Z M 314.7 107.5 C 314.7 101.3 313.7 96.4 310.1 96.4 C 308.4 96.4 306.7 98.2 306 100.5 C 306 100.5 306 114.4 306 114.4 C 306.7 116.7 308.4 118.5 310.1 118.5 C 313.7 118.5 314.7 113.6 314.7 107.5 Z M 325.9 121.2 C 325.9 121.2 329.3 115.6 329.3 115.6 C 331.2 117.7 333.7 119.3 336.5 119.3 C 339.1 119.3 340.9 117.9 340.9 115.6 C 340.9 109.9 327.1 111.2 327.1 99.1 C 327.1 93.8 331.1 89.2 338.2 89.2 C 342.2 89.2 345.8 90.8 348.4 93.3 C 348.4 93.3 345.1 98.8 345.1 98.8 C 343.8 97.2 341.2 95.6 338.4 95.6 C 336.2 95.6 334.7 97.1 334.7 98.9 C 334.7 104.1 348.6 103.2 348.6 115.4 C 348.6 121.5 343.8 125.7 337.2 125.7 C 332 125.7 328.2 123.9 325.9 121.2 Z M 357.6 134.5 C 357.6 134.5 354 131.6 354 131.6 C 356.3 130.3 358.8 127.3 359.3 124.8 C 359.2 124.9 358.5 125 358.1 125 C 355.6 125 353.5 123 353.5 120.3 C 353.5 117.4 355.8 115 358.7 115 C 361.8 115 364.6 117.5 364.6 121.9 C 364.6 127 361.8 131.6 357.6 134.5 Z M 401.6 124.9 L 401.6 104.1 L 392.4 104.1 L 392.4 124.9 L 383.3 124.9 L 383.3 76.9 L 392.4 76.9 L 392.4 96.2 L 401.6 96.2 L 401.6 76.9 L 410.6 76.9 L 410.6 124.9 L 401.6 124.9 Z M 432.8 124.9 C 432.8 124.9 432.82 121.57 432.8 121.6 C 431.3 124.3 428.1 125.7 425.5 125.7 C 420.1 125.7 416.1 121.3 416.1 114.2 C 416.1 107.1 420.1 102.8 425.5 102.8 C 428.1 102.8 431.4 104.1 432.8 106.7 C 432.8 106.7 432.8 102.5 432.8 102.5 C 432.8 98.5 431.2 96.2 427.6 96.2 C 425.3 96.2 422.8 97.2 420.5 99.6 C 420.5 99.6 417.5 93.8 417.5 93.8 C 420.6 90.5 425.6 89.2 429.2 89.2 C 436.3 89.2 441 92.8 441 100.6 C 440.95 100.62 441 124.9 441 124.9 L 432.8 124.9 Z M 432.8 116.7 C 432.8 116.7 432.8 112 432.8 112 C 432 109.8 430.2 108.4 428.4 108.4 C 425.6 108.4 424.2 111 424.2 114.3 C 424.2 117.6 425.6 120.3 428.4 120.3 C 430.2 120.3 432 118.9 432.8 116.7 Z M 446.6 81.1 C 446.6 78.4 448.9 76.1 451.6 76.1 C 454.3 76.1 456.6 78.4 456.6 81.1 C 456.6 83.8 454.3 86 451.6 86 C 448.9 86 446.6 83.8 446.6 81.1 Z M 447.6 124.9 L 447.6 90.1 L 455.7 90.1 L 455.7 124.9 L 447.6 124.9 Z M 462.3 124.9 L 462.3 90.1 L 470.4 90.1 C 470.4 90.1 470.4 94.93 470.4 94.9 C 471.8 91.8 475.2 89.2 478.2 89.2 C 478.2 89.2 478.2 97.2 478.2 97.2 C 477.7 97.1 477.1 97 476.6 97 C 474.2 97 471.8 99 470.4 101.5 C 470.4 101.48 470.4 124.9 470.4 124.9 L 462.3 124.9 Z M 517 124.9 L 513 93.9 L 509.1 124.9 L 499.8 124.9 L 491.6 76.9 L 500.9 76.9 L 504.9 109 L 509.4 76.9 L 516.6 76.9 L 521.2 109 L 525.2 76.9 L 534.4 76.9 L 526.2 124.9 L 517 124.9 Z M 552 124.9 C 552 124.9 552.05 121.57 552 121.6 C 550.5 124.3 547.3 125.7 544.8 125.7 C 539.3 125.7 535.3 121.3 535.3 114.2 C 535.3 107.1 539.3 102.8 544.8 102.8 C 547.3 102.8 550.6 104.1 552 106.7 C 552 106.7 552 102.5 552 102.5 C 552 98.5 550.5 96.2 546.8 96.2 C 544.5 96.2 542 97.2 539.7 99.6 C 539.7 99.6 536.7 93.8 536.7 93.8 C 539.9 90.5 544.8 89.2 548.4 89.2 C 555.6 89.2 560.2 92.8 560.2 100.6 C 560.18 100.62 560.2 124.9 560.2 124.9 L 552 124.9 Z M 552 116.7 C 552 116.7 552 112 552 112 C 551.2 109.8 549.5 108.4 547.7 108.4 C 544.8 108.4 543.5 111 543.5 114.3 C 543.5 117.6 544.8 120.3 547.7 120.3 C 549.5 120.3 551.2 118.9 552 116.7 Z M 581.4 124.9 L 576.9 113.4 L 572.4 124.9 L 563.7 124.9 L 571.8 107.4 L 564.1 90.1 L 572.7 90.1 L 576.9 101.3 L 581.1 90.1 L 589.6 90.1 L 581.9 107.4 L 590 124.9 L 581.4 124.9 Z M 605.8 124.9 L 605.8 76.9 L 614.8 76.9 L 614.8 124.9 L 605.8 124.9 Z M 620.5 107.5 C 620.5 96.9 625.4 89.2 633.8 89.2 C 637.7 89.2 640.5 90.7 642.2 92.3 C 642.2 92.3 639.6 98.7 639.6 98.7 C 638.2 97.2 636.9 96.4 635.2 96.4 C 631 96.4 628.9 101.4 628.9 107.5 C 628.9 113.5 631 118.5 635.2 118.5 C 636.9 118.5 638.2 117.8 639.6 116.3 C 639.6 116.3 642.2 122.6 642.2 122.6 C 640.5 124.4 637.7 125.7 633.8 125.7 C 625.4 125.7 620.5 118 620.5 107.5 Z M 645.7 81.1 C 645.7 78.4 648 76.1 650.7 76.1 C 653.4 76.1 655.7 78.4 655.7 81.1 C 655.7 83.8 653.4 86 650.7 86 C 648 86 645.7 83.8 645.7 81.1 Z M 646.7 124.9 L 646.7 90.1 L 654.8 90.1 L 654.8 124.9 L 646.7 124.9 Z M 676.8 124.9 C 676.8 124.9 676.82 100.11 676.8 100.1 C 676.8 97.7 676 96.4 674.2 96.4 C 672.1 96.4 670.3 98.7 669.5 101 C 669.48 100.98 669.5 124.9 669.5 124.9 L 661.3 124.9 L 661.3 90.1 L 669.5 90.1 C 669.5 90.1 669.48 94.64 669.5 94.6 C 670.8 91.8 674.4 89.2 677.6 89.2 C 682.9 89.2 685 92.3 685 97.2 C 685.03 97.16 685 124.9 685 124.9 L 676.8 124.9 Z M 691.5 135.2 C 691.5 135.2 694.2 128.6 694.2 128.6 C 696.3 130.6 698.7 131.9 701.4 131.9 C 704.8 131.9 707.3 129.7 707.3 124.3 C 707.3 124.3 707.3 119.3 707.3 119.3 C 705.8 122.8 703 124.6 700.5 124.6 C 693.7 124.6 690.2 118.1 690.2 107 C 690.2 96 693.7 89.2 700.5 89.2 C 703 89.2 705.8 90.8 707.3 94.4 C 707.28 94.42 707.3 90.1 707.3 90.1 L 715.4 90.1 C 715.4 90.1 715.41 123.73 715.4 123.7 C 715.4 135.7 709 139 702.2 139 C 697.9 139 694.4 138 691.5 135.2 Z M 707.3 113.2 C 707.3 113.2 707.3 100.6 707.3 100.6 C 706.6 98.3 704.9 96.4 703.2 96.4 C 699.6 96.4 698.6 100.8 698.6 107 C 698.6 113.1 699.6 117.4 703.2 117.4 C 704.9 117.4 706.6 115.5 707.3 113.2 Z M 748.9 124.9 C 748.9 124.9 748.89 121.57 748.9 121.6 C 747.4 124.3 744.1 125.7 741.6 125.7 C 736.1 125.7 732.2 121.3 732.2 114.2 C 732.2 107.1 736.1 102.8 741.6 102.8 C 744.1 102.8 747.5 104.1 748.9 106.7 C 748.9 106.7 748.9 102.5 748.9 102.5 C 748.9 98.5 747.3 96.2 743.6 96.2 C 741.3 96.2 738.9 97.2 736.6 99.6 C 736.6 99.6 733.6 93.8 733.6 93.8 C 736.7 90.5 741.7 89.2 745.3 89.2 C 752.4 89.2 757 92.8 757 100.6 C 757.03 100.62 757 124.9 757 124.9 L 748.9 124.9 Z M 748.9 116.7 C 748.9 116.7 748.9 112 748.9 112 C 748 109.8 746.3 108.4 744.5 108.4 C 741.7 108.4 740.3 111 740.3 114.3 C 740.3 117.6 741.7 120.3 744.5 120.3 C 746.3 120.3 748 118.9 748.9 116.7 Z M 779.1 124.9 C 779.1 124.9 779.13 100.11 779.1 100.1 C 779.1 97.7 778.3 96.4 776.5 96.4 C 774.4 96.4 772.6 98.7 771.8 101 C 771.79 100.98 771.8 124.9 771.8 124.9 L 763.7 124.9 L 763.7 90.1 L 771.8 90.1 C 771.8 90.1 771.79 94.64 771.8 94.6 C 773.2 91.8 776.8 89.2 779.9 89.2 C 785.2 89.2 787.3 92.3 787.3 97.2 C 787.34 97.16 787.3 124.9 787.3 124.9 L 779.1 124.9 Z M 809.6 124.9 C 809.6 124.9 809.59 120.56 809.6 120.6 C 808.1 124 805.3 125.7 802.8 125.7 C 796 125.7 792.5 118.7 792.5 107.5 C 792.5 96.6 796 89.2 802.8 89.2 C 805.3 89.2 808.1 90.8 809.6 94.4 C 809.59 94.42 809.6 76.9 809.6 76.9 L 817.7 76.9 L 817.7 124.9 L 809.6 124.9 Z M 809.6 114.4 C 809.6 114.4 809.6 100.6 809.6 100.6 C 808.9 98.3 807.2 96.4 805.5 96.4 C 801.9 96.4 800.9 101.3 800.9 107.5 C 800.9 113.6 801.9 118.5 805.5 118.5 C 807.2 118.5 808.9 116.7 809.6 114.4 Z " stroke="none" fill="#e9e8e8"/>  </g>  <g id="Polygon118358">    <path d="M 83.1 56.9 L 83.1 8.9 C 83.1 8.9 97.59 8.86 97.6 8.9 C 105.6 8.9 109.1 14.5 109.1 21.1 C 109.1 27.1 106.2 30.9 102.1 32.1 C 106.6 32.8 109.8 38 109.8 43.9 C 109.8 51.3 106.4 56.9 98.1 56.9 C 98.09 56.88 83.1 56.9 83.1 56.9 Z M 99.8 22.7 C 99.8 19.2 98.6 16.8 95.2 16.8 C 95.21 16.85 92.2 16.8 92.2 16.8 L 92.2 28.4 C 92.2 28.4 95.21 28.44 95.2 28.4 C 98.6 28.4 99.8 26.1 99.8 22.7 Z M 100.5 42.6 C 100.5 39.1 98.9 36.4 95.5 36.4 C 95.5 36.43 92.2 36.4 92.2 36.4 L 92.2 48.9 C 92.2 48.9 95.5 48.89 95.5 48.9 C 98.9 48.9 100.5 46.7 100.5 42.6 Z M 115.2 56.9 L 115.2 22.1 L 123.4 22.1 C 123.4 22.1 123.37 26.93 123.4 26.9 C 124.7 23.8 128.1 21.2 131.1 21.2 C 131.1 21.2 131.1 29.2 131.1 29.2 C 130.6 29.1 130.1 29 129.6 29 C 127.2 29 124.7 31 123.4 33.5 C 123.37 33.48 123.4 56.9 123.4 56.9 L 115.2 56.9 Z M 134 39.5 C 134 29.8 138 21.2 147.1 21.2 C 156.2 21.2 160.2 29.8 160.2 39.5 C 160.2 49.1 156.2 57.7 147.1 57.7 C 138 57.7 134 49.1 134 39.5 Z M 151.7 39.5 C 151.7 33.6 150.7 28.4 147.1 28.4 C 143.5 28.4 142.4 33.6 142.4 39.5 C 142.4 45.4 143.5 50.5 147.1 50.5 C 150.7 50.5 151.7 45.4 151.7 39.5 Z M 189 56.9 L 184 33.2 L 179 56.9 L 170.5 56.9 L 162.5 22.1 L 170.9 22.1 L 175.3 45.9 L 179.8 22.1 L 187.7 22.1 L 192.6 45.9 L 197 22.1 L 205.5 22.1 L 197.5 56.9 L 189 56.9 Z M 224.7 56.9 C 224.7 56.9 224.67 32.11 224.7 32.1 C 224.7 29.7 223.8 28.4 222 28.4 C 219.9 28.4 218.1 30.7 217.3 33 C 217.32 32.98 217.3 56.9 217.3 56.9 L 209.2 56.9 L 209.2 22.1 L 217.3 22.1 C 217.3 22.1 217.32 26.64 217.3 26.6 C 218.7 23.8 222.3 21.2 225.5 21.2 C 230.7 21.2 232.9 24.3 232.9 29.2 C 232.88 29.16 232.9 56.9 232.9 56.9 L 224.7 56.9 Z M 238.1 39.5 C 238.1 29.4 242.4 21.2 251.1 21.2 C 259.9 21.2 263.5 29.1 263.5 39.3 C 263.55 39.31 263.5 42.1 263.5 42.1 C 263.5 42.1 245.91 42.12 245.9 42.1 C 246 47.2 248.1 51.1 252.7 51.1 C 254.7 51.1 256.9 49.8 258.5 47.7 C 258.5 47.7 262.5 52.2 262.5 52.2 C 259.7 55.7 255.8 57.7 251.9 57.7 C 242.8 57.7 238.1 50.1 238.1 39.5 Z M 250.9 27.9 C 246.9 27.9 245.9 32.8 245.9 36.4 C 245.9 36.4 255.7 36.4 255.7 36.4 C 255.7 32.5 254.8 27.9 250.9 27.9 Z M 284.2 56.9 C 284.2 56.9 284.21 52.56 284.2 52.6 C 282.7 56 279.9 57.7 277.4 57.7 C 270.6 57.7 267.1 50.7 267.1 39.5 C 267.1 28.6 270.6 21.2 277.4 21.2 C 279.9 21.2 282.8 22.8 284.2 26.4 C 284.21 26.42 284.2 8.9 284.2 8.9 L 292.3 8.9 L 292.3 56.9 L 284.2 56.9 Z M 284.2 46.4 C 284.2 46.4 284.2 32.6 284.2 32.6 C 283.5 30.3 281.8 28.4 280.1 28.4 C 276.5 28.4 275.5 33.3 275.5 39.5 C 275.5 45.6 276.5 50.5 280.1 50.5 C 281.8 50.5 283.5 48.7 284.2 46.4 Z M 311.1 56.9 L 311.1 8.9 C 311.1 8.9 324.1 8.86 324.1 8.9 C 333.5 8.9 337.6 16 337.6 24 C 337.6 32.1 333.5 39.2 324.1 39.2 C 324.1 39.24 320.2 39.2 320.2 39.2 L 320.2 56.9 L 311.1 56.9 Z M 328.4 24 C 328.4 19.7 326.5 16.8 323.2 16.8 C 323.16 16.85 320.2 16.8 320.2 16.8 L 320.2 31.2 C 320.2 31.2 323.16 31.25 323.2 31.2 C 326.5 31.2 328.4 28.4 328.4 24 Z M 356.5 56.9 C 356.5 56.9 356.5 53.57 356.5 53.6 C 355 56.3 351.7 57.7 349.2 57.7 C 343.8 57.7 339.8 53.3 339.8 46.2 C 339.8 39.1 343.8 34.8 349.2 34.8 C 351.7 34.8 355.1 36.1 356.5 38.7 C 356.5 38.7 356.5 34.5 356.5 34.5 C 356.5 30.5 354.9 28.2 351.2 28.2 C 348.9 28.2 346.5 29.2 344.2 31.6 C 344.2 31.6 341.2 25.8 341.2 25.8 C 344.3 22.5 349.3 21.2 352.9 21.2 C 360 21.2 364.6 24.8 364.6 32.6 C 364.63 32.62 364.6 56.9 364.6 56.9 L 356.5 56.9 Z M 356.5 48.7 C 356.5 48.7 356.5 44 356.5 44 C 355.6 41.8 353.9 40.4 352.1 40.4 C 349.3 40.4 347.9 43 347.9 46.3 C 347.9 49.6 349.3 52.3 352.1 52.3 C 353.9 52.3 355.6 50.9 356.5 48.7 Z M 369.9 39.5 C 369.9 28.9 374.8 21.2 383.1 21.2 C 387 21.2 389.9 22.7 391.6 24.3 C 391.6 24.3 389 30.7 389 30.7 C 387.5 29.2 386.2 28.4 384.6 28.4 C 380.3 28.4 378.2 33.4 378.2 39.5 C 378.2 45.5 380.3 50.5 384.6 50.5 C 386.2 50.5 387.5 49.8 389 48.3 C 389 48.3 391.6 54.6 391.6 54.6 C 389.9 56.4 387 57.7 383.1 57.7 C 374.8 57.7 369.9 50 369.9 39.5 Z M 412.4 56.9 L 407.3 43 L 404.2 48.7 L 404.2 56.9 L 396 56.9 L 396 8.9 L 404.2 8.9 L 404.2 38.2 L 412.2 22.1 L 421 22.1 L 412.7 37.5 L 421.4 56.9 L 412.4 56.9 Z M 424.1 13.1 C 424.1 10.4 426.4 8.1 429.1 8.1 C 431.8 8.1 434 10.4 434 13.1 C 434 15.8 431.8 18 429.1 18 C 426.4 18 424.1 15.8 424.1 13.1 Z M 425 56.9 L 425 22.1 L 433.2 22.1 L 433.2 56.9 L 425 56.9 Z M 455.2 56.9 C 455.2 56.9 455.21 32.11 455.2 32.1 C 455.2 29.7 454.3 28.4 452.5 28.4 C 450.5 28.4 448.7 30.7 447.9 33 C 447.86 32.98 447.9 56.9 447.9 56.9 L 439.7 56.9 L 439.7 22.1 L 447.9 22.1 C 447.9 22.1 447.86 26.64 447.9 26.6 C 449.2 23.8 452.8 21.2 456 21.2 C 461.3 21.2 463.4 24.3 463.4 29.2 C 463.42 29.16 463.4 56.9 463.4 56.9 L 455.2 56.9 Z M 469.9 67.2 C 469.9 67.2 472.6 60.6 472.6 60.6 C 474.6 62.6 477.1 63.9 479.8 63.9 C 483.2 63.9 485.7 61.7 485.7 56.3 C 485.7 56.3 485.7 51.3 485.7 51.3 C 484.2 54.8 481.3 56.6 478.9 56.6 C 472.1 56.6 468.6 50.1 468.6 39 C 468.6 28 472.1 21.2 478.9 21.2 C 481.3 21.2 484.2 22.8 485.7 26.4 C 485.66 26.42 485.7 22.1 485.7 22.1 L 493.8 22.1 C 493.8 22.1 493.8 55.73 493.8 55.7 C 493.8 67.7 487.4 71 480.6 71 C 476.3 71 472.8 70 469.9 67.2 Z M 485.7 45.2 C 485.7 45.2 485.7 32.6 485.7 32.6 C 484.9 30.3 483.3 28.4 481.6 28.4 C 478 28.4 477 32.8 477 39 C 477 45.1 478 49.4 481.6 49.4 C 483.3 49.4 484.9 47.5 485.7 45.2 Z M 512.6 56.9 L 512.6 8.9 L 533.6 8.9 L 533.6 16.8 L 521.7 16.8 L 521.7 28.4 L 533.1 28.4 L 533.1 36.4 L 521.7 36.4 L 521.7 56.9 L 512.6 56.9 Z M 537.9 39.5 C 537.9 29.8 541.8 21.2 550.9 21.2 C 560 21.2 564 29.8 564 39.5 C 564 49.1 560 57.7 550.9 57.7 C 541.8 57.7 537.9 49.1 537.9 39.5 Z M 555.6 39.5 C 555.6 33.6 554.6 28.4 550.9 28.4 C 547.3 28.4 546.3 33.6 546.3 39.5 C 546.3 45.4 547.3 50.5 550.9 50.5 C 554.6 50.5 555.6 45.4 555.6 39.5 Z M 584.4 56.9 C 584.4 56.9 584.37 53.57 584.4 53.6 C 582.9 56.3 579.6 57.7 577.1 57.7 C 571.6 57.7 567.7 53.3 567.7 46.2 C 567.7 39.1 571.6 34.8 577.1 34.8 C 579.6 34.8 582.9 36.1 584.4 38.7 C 584.4 38.7 584.4 34.5 584.4 34.5 C 584.4 30.5 582.8 28.2 579.1 28.2 C 576.8 28.2 574.4 29.2 572.1 31.6 C 572.1 31.6 569 25.8 569 25.8 C 572.2 22.5 577.2 21.2 580.8 21.2 C 587.9 21.2 592.5 24.8 592.5 32.6 C 592.51 32.62 592.5 56.9 592.5 56.9 L 584.4 56.9 Z M 584.4 48.7 C 584.4 48.7 584.4 44 584.4 44 C 583.5 41.8 581.8 40.4 580 40.4 C 577.2 40.4 575.8 43 575.8 46.3 C 575.8 49.6 577.2 52.3 580 52.3 C 581.8 52.3 583.5 50.9 584.4 48.7 Z M 630.2 56.9 C 630.2 56.9 630.17 32.11 630.2 32.1 C 630.2 29.5 629.2 28.4 627.5 28.4 C 625.3 28.4 623.5 30.9 622.8 33 C 622.82 32.98 622.8 56.9 622.8 56.9 L 614.6 56.9 C 614.6 56.9 614.61 32.11 614.6 32.1 C 614.6 29.7 613.8 28.4 611.9 28.4 C 609.8 28.4 608 30.9 607.3 33 C 607.27 32.98 607.3 56.9 607.3 56.9 L 599.1 56.9 L 599.1 22.1 L 607.3 22.1 C 607.3 22.1 607.27 26.64 607.3 26.6 C 608.5 24 612.1 21.2 615.4 21.2 C 619.1 21.2 622 23 622.5 27 C 623.8 24.1 627.5 21.2 631 21.2 C 635.3 21.2 638.3 23.5 638.3 29.2 C 638.3 29.16 638.3 56.9 638.3 56.9 L 630.2 56.9 Z M 680.2 56.9 L 675.2 33.2 L 670.3 56.9 L 661.7 56.9 L 653.7 22.1 L 662.1 22.1 L 666.5 45.9 L 671.1 22.1 L 678.9 22.1 L 683.8 45.9 L 688.3 22.1 L 696.8 22.1 L 688.7 56.9 L 680.2 56.9 Z M 699.5 13.1 C 699.5 10.4 701.8 8.1 704.5 8.1 C 707.2 8.1 709.4 10.4 709.4 13.1 C 709.4 15.8 707.2 18 704.5 18 C 701.8 18 699.5 15.8 699.5 13.1 Z M 700.4 56.9 L 700.4 22.1 L 708.6 22.1 L 708.6 56.9 L 700.4 56.9 Z M 716.2 48.9 C 716.2 48.89 716.2 29.2 716.2 29.2 L 713 29.2 L 713 22.1 L 716.2 22.1 L 716.2 12.6 L 724.3 12.6 L 724.3 22.1 L 728.7 22.1 L 728.7 29.2 L 724.3 29.2 C 724.3 29.2 724.34 47.3 724.3 47.3 C 724.3 49.5 724.8 50.5 726.3 50.5 C 727.1 50.5 727.8 50.2 728.2 49.6 C 728.2 49.6 729.9 55.9 729.9 55.9 C 728.7 57 726.7 57.7 724.2 57.7 C 718.5 57.7 716.2 54.9 716.2 48.9 Z M 749.2 56.9 C 749.2 56.9 749.18 31.97 749.2 32 C 749.2 29.6 748.3 28.4 746.5 28.4 C 744.4 28.4 742.6 30.7 741.8 33 C 741.83 32.98 741.8 56.9 741.8 56.9 L 733.7 56.9 L 733.7 8.9 L 741.8 8.9 C 741.8 8.9 741.83 26.64 741.8 26.6 C 743.2 23.8 746.8 21.2 750 21.2 C 755.2 21.2 757.4 24.1 757.4 29.1 C 757.39 29.09 757.4 56.9 757.4 56.9 L 749.2 56.9 Z " stroke="none" fill="#e9e8e8"/>  </g></svg>