<?xml version="1.0" standalone="no"?><!DOCTYPE svg PUBLIC "-//W3C//DTD SVG 1.1//EN" "http://www.w3.org/Graphics/SVG/1.1/DTD/svg11.dtd"><svg xmlns="http://www.w3.org/2000/svg" version="1.1" width="191px" height="44.3px" viewBox="0 0 191 44.3">  <desc>73 hrs 10 mins</desc>  <defs/>  <g id="Polygon215037">    <path d="M 14.5 23.7 L 20.5 7.2 L 12.2 7.2 L 12.2 3.7 L 25 3.7 L 25 6.5 L 18.8 23.7 L 14.5 23.7 Z M 26.2 20.8 C 26.2 20.8 28.6 18.3 28.6 18.3 C 29.6 19.6 31.2 20.5 32.9 20.5 C 35 20.5 36 19.4 36 17.8 C 36 16 34.7 15.3 32.7 15.3 C 32.1 15.3 31.2 15.3 30.9 15.4 C 30.9 15.4 30.9 11.7 30.9 11.7 C 31.2 11.8 32.2 11.8 32.6 11.8 C 34.5 11.8 35.7 11 35.7 9.4 C 35.7 7.8 34.5 7 32.8 7 C 31.2 7 29.8 7.7 28.8 9 C 28.8 9 26.5 6.6 26.5 6.6 C 27.9 4.6 30.2 3.4 33.1 3.4 C 37 3.4 39.7 5.3 39.7 8.8 C 39.7 11.1 37.9 13 35.9 13.4 C 37.9 13.7 40 15.5 40 18.2 C 40 21.7 37.3 24.1 33.1 24.1 C 29.9 24.1 27.5 22.6 26.2 20.8 Z M 57.1 23.7 C 57.1 23.7 57.09 14.1 57.1 14.1 C 57.1 12.6 56.4 12 55.2 12 C 54 12 53 13 52.6 13.8 C 52.56 13.83 52.6 23.7 52.6 23.7 L 48.9 23.7 L 48.9 3.7 L 52.6 3.7 C 52.6 3.7 52.56 11.1 52.6 11.1 C 53.3 10 54.9 8.8 56.8 8.8 C 59.5 8.8 60.7 10.3 60.7 12.7 C 60.69 12.75 60.7 23.7 60.7 23.7 L 57.1 23.7 Z M 63.9 23.7 L 63.9 9.2 L 67.5 9.2 C 67.5 9.2 67.53 11.19 67.5 11.2 C 68.3 9.9 69.9 8.8 71.5 8.8 C 71.5 8.8 71.5 12.4 71.5 12.4 C 71.2 12.3 70.9 12.3 70.6 12.3 C 69.5 12.3 68.1 13 67.5 14 C 67.53 14.04 67.5 23.7 67.5 23.7 L 63.9 23.7 Z M 72.4 22 C 72.4 22 73.9 19.5 73.9 19.5 C 74.8 20.4 76.5 21.2 77.9 21.2 C 79.3 21.2 80.1 20.6 80.1 19.7 C 80.1 17.3 72.9 18.6 72.9 13.2 C 72.9 10.9 74.8 8.8 78.2 8.8 C 80.2 8.8 82 9.6 83.2 10.7 C 83.2 10.7 81.8 13.1 81.8 13.1 C 81.1 12.3 79.7 11.6 78.2 11.6 C 77.1 11.6 76.3 12.2 76.3 13 C 76.3 15.2 83.5 14.1 83.5 19.6 C 83.5 22.2 81.4 24.1 78 24.1 C 75.7 24.1 73.6 23.3 72.4 22 Z M 96.1 23.7 L 96.1 8.9 L 93.1 12 L 90.8 9.6 L 96.7 3.7 L 100.2 3.7 L 100.2 23.7 L 96.1 23.7 Z M 102.9 13.7 C 102.9 8.5 105.1 3.4 110 3.4 C 115 3.4 117.1 8.5 117.1 13.7 C 117.1 18.8 115 24.1 110 24.1 C 105.1 24.1 102.9 18.8 102.9 13.7 Z M 113 13.7 C 113 9.8 112.3 7 110 7 C 107.7 7 107 9.8 107 13.7 C 107 17.5 107.7 20.5 110 20.5 C 112.3 20.5 113 17.5 113 13.7 Z M 141.5 23.7 C 141.5 23.7 141.48 13.95 141.5 13.9 C 141.5 12.7 141 12 139.8 12 C 138.7 12 137.8 13 137.3 13.8 C 137.34 13.83 137.3 23.7 137.3 23.7 L 133.7 23.7 C 133.7 23.7 133.74 13.95 133.7 13.9 C 133.7 12.8 133.3 12 132.1 12 C 131 12 130 13 129.6 13.8 C 129.6 13.83 129.6 23.7 129.6 23.7 L 126 23.7 L 126 9.2 L 129.6 9.2 C 129.6 9.2 129.6 11.1 129.6 11.1 C 130.2 10.1 131.9 8.8 133.7 8.8 C 135.5 8.8 136.8 9.7 137.2 11.4 C 137.9 10.1 139.6 8.8 141.4 8.8 C 143.6 8.8 145.1 10 145.1 12.7 C 145.08 12.69 145.1 23.7 145.1 23.7 L 141.5 23.7 Z M 148 5.4 C 148 4.2 148.9 3.2 150.1 3.2 C 151.3 3.2 152.3 4.2 152.3 5.4 C 152.3 6.6 151.3 7.6 150.1 7.6 C 148.9 7.6 148 6.6 148 5.4 Z M 148.3 23.7 L 148.3 9.2 L 151.9 9.2 L 151.9 23.7 L 148.3 23.7 Z M 163.3 23.7 C 163.3 23.7 163.28 14.16 163.3 14.2 C 163.3 12.6 162.6 12 161.4 12 C 160.2 12 159.3 13 158.8 13.8 C 158.75 13.83 158.8 23.7 158.8 23.7 L 155.2 23.7 L 155.2 9.2 L 158.8 9.2 C 158.8 9.2 158.75 11.1 158.8 11.1 C 159.5 10 161.2 8.8 163 8.8 C 165.7 8.8 166.9 10.4 166.9 12.8 C 166.88 12.81 166.9 23.7 166.9 23.7 L 163.3 23.7 Z M 169 22 C 169 22 170.6 19.5 170.6 19.5 C 171.5 20.4 173.1 21.2 174.6 21.2 C 175.9 21.2 176.7 20.6 176.7 19.7 C 176.7 17.3 169.5 18.6 169.5 13.2 C 169.5 10.9 171.4 8.8 174.8 8.8 C 176.9 8.8 178.6 9.6 179.8 10.7 C 179.8 10.7 178.4 13.1 178.4 13.1 C 177.7 12.3 176.3 11.6 174.9 11.6 C 173.7 11.6 172.9 12.2 172.9 13 C 172.9 15.2 180.1 14.1 180.1 19.6 C 180.1 22.2 178 24.1 174.6 24.1 C 172.3 24.1 170.3 23.3 169 22 Z " stroke="none" fill="#d3d2d2"/>  </g></svg>