<?xml version="1.0" standalone="no"?><!DOCTYPE svg PUBLIC "-//W3C//DTD SVG 1.1//EN" "http://www.w3.org/Graphics/SVG/1.1/DTD/svg11.dtd"><svg xmlns="http://www.w3.org/2000/svg" version="1.1" width="651px" height="85.6px" viewBox="0 0 651 85.6">  <desc>Shredded Assorted Waste</desc>  <defs/>  <g id="Polygon189486">    <path d="M 0.7 44.2 C 0.7 44.2 4 38.2 4 38.2 C 5.6 40.3 8.2 41.4 10.6 41.4 C 13 41.4 14.6 39.6 14.6 37 C 14.6 29.9 1.9 29.9 1.9 17.9 C 1.9 11.9 5.9 6.7 13 6.7 C 16.4 6.7 19.5 7.9 21.7 10 C 21.7 10 18.8 15.8 18.8 15.8 C 17.2 14.2 15.4 13.4 13.3 13.4 C 11.1 13.4 9.5 15.1 9.5 17.5 C 9.5 23.7 22.3 24.5 22.3 36.5 C 22.3 43.3 17.9 48.1 11 48.1 C 6.7 48.1 3.3 46.7 0.7 44.2 Z M 39.4 47.4 C 39.4 47.4 39.42 26.64 39.4 26.6 C 39.4 24.7 38.7 23.7 37.2 23.7 C 35.5 23.7 34 25.6 33.3 27.5 C 33.3 27.48 33.3 47.4 33.3 47.4 L 26.5 47.4 L 26.5 7.4 L 33.3 7.4 C 33.3 7.4 33.3 22.2 33.3 22.2 C 34.4 19.9 37.4 17.7 40.1 17.7 C 44.5 17.7 46.3 20.1 46.3 24.2 C 46.26 24.24 46.3 47.4 46.3 47.4 L 39.4 47.4 Z M 51.7 47.4 L 51.7 18.4 L 58.5 18.4 C 58.5 18.4 58.5 22.44 58.5 22.4 C 59.6 19.8 62.5 17.7 65 17.7 C 65 17.7 65 24.4 65 24.4 C 64.6 24.2 64.1 24.2 63.7 24.2 C 61.7 24.2 59.6 25.8 58.5 27.9 C 58.5 27.9 58.5 47.4 58.5 47.4 L 51.7 47.4 Z M 67.4 32.9 C 67.4 24.5 71 17.7 78.2 17.7 C 85.6 17.7 88.6 24.2 88.6 32.8 C 88.62 32.76 88.6 35.1 88.6 35.1 C 88.6 35.1 73.92 35.1 73.9 35.1 C 74 39.4 75.8 42.6 79.6 42.6 C 81.2 42.6 83.1 41.5 84.4 39.7 C 84.4 39.7 87.7 43.5 87.7 43.5 C 85.4 46.4 82.2 48.1 78.9 48.1 C 71.3 48.1 67.4 41.8 67.4 32.9 Z M 78.1 23.2 C 74.8 23.2 73.9 27.3 73.9 30.4 C 73.9 30.4 82.1 30.4 82.1 30.4 C 82.1 27.1 81.4 23.2 78.1 23.2 Z M 105.8 47.4 C 105.8 47.4 105.84 43.8 105.8 43.8 C 104.6 46.7 102.2 48.1 100.2 48.1 C 94.5 48.1 91.6 42.2 91.6 32.9 C 91.6 23.8 94.5 17.7 100.2 17.7 C 102.2 17.7 104.6 19 105.8 22 C 105.84 22.02 105.8 7.4 105.8 7.4 L 112.6 7.4 L 112.6 47.4 L 105.8 47.4 Z M 105.8 38.6 C 105.8 38.6 105.8 27.2 105.8 27.2 C 105.2 25.3 103.9 23.7 102.4 23.7 C 99.4 23.7 98.6 27.8 98.6 32.9 C 98.6 38 99.4 42.1 102.4 42.1 C 103.9 42.1 105.2 40.6 105.8 38.6 Z M 131.2 47.4 C 131.2 47.4 131.22 43.8 131.2 43.8 C 130 46.7 127.6 48.1 125.6 48.1 C 119.9 48.1 117 42.2 117 32.9 C 117 23.8 119.9 17.7 125.6 17.7 C 127.6 17.7 130 19 131.2 22 C 131.22 22.02 131.2 7.4 131.2 7.4 L 138 7.4 L 138 47.4 L 131.2 47.4 Z M 131.2 38.6 C 131.2 38.6 131.2 27.2 131.2 27.2 C 130.6 25.3 129.2 23.7 127.8 23.7 C 124.8 23.7 124 27.8 124 32.9 C 124 38 124.8 42.1 127.8 42.1 C 129.2 42.1 130.6 40.6 131.2 38.6 Z M 142.4 32.9 C 142.4 24.5 146 17.7 153.2 17.7 C 160.6 17.7 163.6 24.2 163.6 32.8 C 163.62 32.76 163.6 35.1 163.6 35.1 C 163.6 35.1 148.92 35.1 148.9 35.1 C 149 39.4 150.8 42.6 154.6 42.6 C 156.2 42.6 158.1 41.5 159.4 39.7 C 159.4 39.7 162.7 43.5 162.7 43.5 C 160.4 46.4 157.2 48.1 153.9 48.1 C 146.3 48.1 142.4 41.8 142.4 32.9 Z M 153.1 23.2 C 149.8 23.2 148.9 27.3 148.9 30.4 C 148.9 30.4 157.1 30.4 157.1 30.4 C 157.1 27.1 156.4 23.2 153.1 23.2 Z M 180.8 47.4 C 180.8 47.4 180.84 43.8 180.8 43.8 C 179.6 46.7 177.2 48.1 175.2 48.1 C 169.5 48.1 166.6 42.2 166.6 32.9 C 166.6 23.8 169.5 17.7 175.2 17.7 C 177.2 17.7 179.6 19 180.8 22 C 180.84 22.02 180.8 7.4 180.8 7.4 L 187.6 7.4 L 187.6 47.4 L 180.8 47.4 Z M 180.8 38.6 C 180.8 38.6 180.8 27.2 180.8 27.2 C 180.2 25.3 178.9 23.7 177.4 23.7 C 174.4 23.7 173.6 27.8 173.6 32.9 C 173.6 38 174.4 42.1 177.4 42.1 C 178.9 42.1 180.2 40.6 180.8 38.6 Z M 217.8 47.4 L 216.6 40 L 209.2 40 L 208 47.4 L 200.2 47.4 L 208.5 7.4 L 217.2 7.4 L 225.6 47.4 L 217.8 47.4 Z M 212.9 15.8 L 210 33.4 L 215.8 33.4 L 212.9 15.8 Z M 226.3 44.3 C 226.3 44.3 229.1 39.7 229.1 39.7 C 230.7 41.4 232.9 42.8 235.1 42.8 C 237.3 42.8 238.8 41.6 238.8 39.7 C 238.8 34.9 227.3 36 227.3 25.9 C 227.3 21.5 230.6 17.7 236.6 17.7 C 239.9 17.7 242.9 19 245.1 21.1 C 245.1 21.1 242.3 25.7 242.3 25.7 C 241.2 24.3 239.1 23 236.8 23 C 234.9 23 233.6 24.2 233.6 25.7 C 233.6 30.1 245.2 29.3 245.2 39.5 C 245.2 44.6 241.3 48.1 235.7 48.1 C 231.4 48.1 228.2 46.6 226.3 44.3 Z M 247.1 44.3 C 247.1 44.3 249.9 39.7 249.9 39.7 C 251.5 41.4 253.6 42.8 255.9 42.8 C 258.1 42.8 259.6 41.6 259.6 39.7 C 259.6 34.9 248.1 36 248.1 25.9 C 248.1 21.5 251.4 17.7 257.3 17.7 C 260.6 17.7 263.7 19 265.9 21.1 C 265.9 21.1 263.1 25.7 263.1 25.7 C 262 24.3 259.9 23 257.5 23 C 255.7 23 254.4 24.2 254.4 25.7 C 254.4 30.1 266 29.3 266 39.5 C 266 44.6 262 48.1 256.5 48.1 C 252.2 48.1 249 46.6 247.1 44.3 Z M 268.7 32.9 C 268.7 24.8 272 17.7 279.6 17.7 C 287.2 17.7 290.5 24.8 290.5 32.9 C 290.5 40.9 287.2 48.1 279.6 48.1 C 272 48.1 268.7 40.9 268.7 32.9 Z M 283.5 32.9 C 283.5 28 282.7 23.7 279.6 23.7 C 276.6 23.7 275.8 28 275.8 32.9 C 275.8 37.9 276.6 42.1 279.6 42.1 C 282.7 42.1 283.5 37.9 283.5 32.9 Z M 294.9 47.4 L 294.9 18.4 L 301.7 18.4 C 301.7 18.4 301.67 22.44 301.7 22.4 C 302.8 19.8 305.6 17.7 308.2 17.7 C 308.2 17.7 308.2 24.4 308.2 24.4 C 307.7 24.2 307.3 24.2 306.8 24.2 C 304.9 24.2 302.8 25.8 301.7 27.9 C 301.67 27.9 301.7 47.4 301.7 47.4 L 294.9 47.4 Z M 312.6 40.7 C 312.59 40.74 312.6 24.3 312.6 24.3 L 309.9 24.3 L 309.9 18.4 L 312.6 18.4 L 312.6 10.5 L 319.4 10.5 L 319.4 18.4 L 323 18.4 L 323 24.3 L 319.4 24.3 C 319.4 24.3 319.37 39.42 319.4 39.4 C 319.4 41.2 319.8 42.1 321 42.1 C 321.7 42.1 322.3 41.8 322.6 41.3 C 322.6 41.3 324 46.6 324 46.6 C 323 47.5 321.4 48.1 319.3 48.1 C 314.5 48.1 312.6 45.7 312.6 40.7 Z M 326 32.9 C 326 24.5 329.6 17.7 336.9 17.7 C 344.2 17.7 347.3 24.2 347.3 32.8 C 347.27 32.76 347.3 35.1 347.3 35.1 C 347.3 35.1 332.57 35.1 332.6 35.1 C 332.6 39.4 334.4 42.6 338.3 42.6 C 339.9 42.6 341.8 41.5 343.1 39.7 C 343.1 39.7 346.4 43.5 346.4 43.5 C 344.1 46.4 340.9 48.1 337.6 48.1 C 330 48.1 326 41.8 326 32.9 Z M 336.7 23.2 C 333.4 23.2 332.6 27.3 332.6 30.4 C 332.6 30.4 340.7 30.4 340.7 30.4 C 340.7 27.1 340 23.2 336.7 23.2 Z M 364.5 47.4 C 364.5 47.4 364.49 43.8 364.5 43.8 C 363.2 46.7 360.9 48.1 358.9 48.1 C 353.2 48.1 350.3 42.2 350.3 32.9 C 350.3 23.8 353.2 17.7 358.9 17.7 C 360.9 17.7 363.3 19 364.5 22 C 364.49 22.02 364.5 7.4 364.5 7.4 L 371.3 7.4 L 371.3 47.4 L 364.5 47.4 Z M 364.5 38.6 C 364.5 38.6 364.5 27.2 364.5 27.2 C 363.9 25.3 362.5 23.7 361.1 23.7 C 358.1 23.7 357.2 27.8 357.2 32.9 C 357.2 38 358.1 42.1 361.1 42.1 C 362.5 42.1 363.9 40.6 364.5 38.6 Z M 405.6 47.4 L 402.3 21.6 L 399 47.4 L 391.3 47.4 L 384.5 7.4 L 392.2 7.4 L 395.5 34.2 L 399.3 7.4 L 405.3 7.4 L 409.1 34.2 L 412.4 7.4 L 420.1 7.4 L 413.3 47.4 L 405.6 47.4 Z M 434.8 47.4 C 434.8 47.4 434.81 44.64 434.8 44.6 C 433.6 46.9 430.9 48.1 428.8 48.1 C 424.2 48.1 420.9 44.4 420.9 38.5 C 420.9 32.6 424.2 29 428.8 29 C 430.9 29 433.6 30.1 434.8 32.3 C 434.8 32.3 434.8 28.7 434.8 28.7 C 434.8 25.4 433.5 23.5 430.4 23.5 C 428.5 23.5 426.5 24.4 424.6 26.3 C 424.6 26.3 422 21.5 422 21.5 C 424.7 18.7 428.8 17.7 431.8 17.7 C 437.8 17.7 441.6 20.7 441.6 27.2 C 441.59 27.18 441.6 47.4 441.6 47.4 L 434.8 47.4 Z M 434.8 40.6 C 434.8 40.6 434.8 36.7 434.8 36.7 C 434.1 34.9 432.7 33.7 431.2 33.7 C 428.8 33.7 427.7 35.8 427.7 38.6 C 427.7 41.3 428.8 43.6 431.2 43.6 C 432.7 43.6 434.1 42.4 434.8 40.6 Z M 445.1 44.3 C 445.1 44.3 447.9 39.7 447.9 39.7 C 449.5 41.4 451.6 42.8 453.9 42.8 C 456.1 42.8 457.6 41.6 457.6 39.7 C 457.6 34.9 446.1 36 446.1 25.9 C 446.1 21.5 449.4 17.7 455.3 17.7 C 458.6 17.7 461.7 19 463.9 21.1 C 463.9 21.1 461.1 25.7 461.1 25.7 C 460 24.3 457.9 23 455.5 23 C 453.7 23 452.4 24.2 452.4 25.7 C 452.4 30.1 464 29.3 464 39.5 C 464 44.6 460 48.1 454.5 48.1 C 450.2 48.1 447 46.6 445.1 44.3 Z M 468.8 40.7 C 468.77 40.74 468.8 24.3 468.8 24.3 L 466.1 24.3 L 466.1 18.4 L 468.8 18.4 L 468.8 10.5 L 475.6 10.5 L 475.6 18.4 L 479.2 18.4 L 479.2 24.3 L 475.6 24.3 C 475.6 24.3 475.55 39.42 475.6 39.4 C 475.6 41.2 476 42.1 477.2 42.1 C 477.8 42.1 478.4 41.8 478.8 41.3 C 478.8 41.3 480.2 46.6 480.2 46.6 C 479.2 47.5 477.5 48.1 475.4 48.1 C 470.7 48.1 468.8 45.7 468.8 40.7 Z M 482.2 32.9 C 482.2 24.5 485.8 17.7 493.1 17.7 C 500.4 17.7 503.5 24.2 503.5 32.8 C 503.45 32.76 503.5 35.1 503.5 35.1 C 503.5 35.1 488.75 35.1 488.8 35.1 C 488.8 39.4 490.6 42.6 494.5 42.6 C 496.1 42.6 497.9 41.5 499.3 39.7 C 499.3 39.7 502.6 43.5 502.6 43.5 C 500.3 46.4 497 48.1 493.7 48.1 C 486.2 48.1 482.2 41.8 482.2 32.9 Z M 492.9 23.2 C 489.6 23.2 488.8 27.3 488.8 30.4 C 488.8 30.4 496.9 30.4 496.9 30.4 C 496.9 27.1 496.2 23.2 492.9 23.2 Z " stroke="none" fill="#b13d24"/>  </g></svg>