<?xml version="1.0" standalone="no"?><!DOCTYPE svg PUBLIC "-//W3C//DTD SVG 1.1//EN" "http://www.w3.org/Graphics/SVG/1.1/DTD/svg11.dtd"><svg xmlns="http://www.w3.org/2000/svg" version="1.1" width="494px" height="403.3px" viewBox="0 0 494 403.3">  <desc>Alcanivorase extract Allyl isothiocyanate Astaxanthin Bromophenol Geosmin oxide Iodised Salt Methyl isothiocyanate My</desc>  <defs/>  <g id="Polygon219804">    <path d="M 4.9 390.3 C 2.6 386.4 1.4 381.9 1.4 377.1 C 1.4 372.3 2.6 367.7 4.9 363.8 C 4.9 363.8 6.3 364.6 6.3 364.6 C 4.7 368.4 3.8 372 3.8 377.1 C 3.8 382.1 4.7 385.7 6.3 389.5 C 6.3 389.5 4.9 390.3 4.9 390.3 Z M 7.8 384.4 L 7.8 382.4 L 16.2 366.5 L 7.8 366.5 L 7.8 364.4 L 19 364.4 L 19 366.3 L 10.6 382.2 L 19.2 382.2 L 19.2 384.4 L 7.8 384.4 Z M 20.7 389.5 C 22.3 385.7 23.2 382.1 23.2 377.1 C 23.2 372 22.3 368.4 20.7 364.6 C 20.7 364.6 22 363.8 22 363.8 C 24.4 367.7 25.6 372.3 25.6 377.1 C 25.6 381.9 24.4 386.4 22 390.3 C 22 390.3 20.7 389.5 20.7 389.5 Z M 27.6 378.1 L 27.6 376.2 L 33.8 376.2 L 33.8 378.1 L 27.6 378.1 Z M 36 381.5 C 36 381.5 37.6 380 37.6 380 C 38.5 381.7 39.8 382.6 41.8 382.6 C 44 382.6 45.4 380.6 45.4 378.3 C 45.4 375.4 44 373.8 41.9 373.8 C 40.5 373.8 39.4 374.4 38.3 375.7 C 38.31 375.71 36.5 375.1 36.5 375.1 L 36.5 364.4 L 46.7 364.4 L 46.7 366.5 L 38.9 366.5 C 38.9 366.5 38.91 373.49 38.9 373.5 C 39.7 372.5 41 371.7 42.6 371.7 C 45.5 371.7 47.8 374 47.8 378.2 C 47.8 382 45.3 384.7 41.8 384.7 C 38.9 384.7 37.2 383.5 36 381.5 Z M 49.7 378.1 L 49.7 376.2 L 55.9 376.2 L 55.9 378.1 L 49.7 378.1 Z M 58 374.4 C 58 368.6 60.7 364 65.5 364 C 70.4 364 73.1 368.6 73.1 374.4 C 73.1 380.2 70.4 384.7 65.5 384.7 C 60.7 384.7 58 380.2 58 374.4 Z M 70.6 374.4 C 70.6 369.8 68.8 366.2 65.5 366.2 C 62.2 366.2 60.4 369.8 60.4 374.4 C 60.4 378.9 62.2 382.6 65.5 382.6 C 68.8 382.6 70.6 378.9 70.6 374.4 Z M 75.5 377.1 C 75.5 372.8 77.8 369.5 81.5 369.5 C 83.5 369.5 84.7 370.3 85.6 371.4 C 85.6 371.4 84.4 372.9 84.4 372.9 C 83.7 371.9 82.8 371.4 81.7 371.4 C 79.1 371.4 77.7 374 77.7 377.1 C 77.7 380.2 79.1 382.8 81.7 382.8 C 82.8 382.8 83.7 382.4 84.4 381.3 C 84.4 381.3 85.6 382.8 85.6 382.8 C 84.7 384 83.5 384.7 81.5 384.7 C 77.8 384.7 75.5 381.4 75.5 377.1 Z M 88.5 381.5 C 88.5 381.47 88.5 371.8 88.5 371.8 L 86.6 371.8 L 86.6 369.9 L 88.5 369.9 L 88.5 365.9 L 90.7 365.9 L 90.7 369.9 L 93.1 369.9 L 93.1 371.8 L 90.7 371.8 C 90.7 371.8 90.66 381.08 90.7 381.1 C 90.7 382.2 91 382.8 91.8 382.8 C 92.4 382.8 92.8 382.6 93.1 382.2 C 93.1 382.2 93.7 383.9 93.7 383.9 C 93.2 384.4 92.5 384.7 91.4 384.7 C 89.4 384.7 88.5 383.6 88.5 381.5 Z M 94.9 377.1 C 94.9 372.9 97.2 369.5 100.8 369.5 C 104.6 369.5 106.6 372.9 106.6 377.2 C 106.56 377.18 106.6 377.8 106.6 377.8 C 106.6 377.8 97.17 377.84 97.2 377.8 C 97.3 380.7 98.8 382.9 101.3 382.9 C 102.6 382.9 103.9 382.3 104.8 381.2 C 104.8 381.2 105.9 382.4 105.9 382.4 C 104.8 383.9 103.1 384.7 101.2 384.7 C 97.3 384.7 94.9 381.6 94.9 377.1 Z M 100.8 371.3 C 98.2 371.3 97.2 374.1 97.2 376.2 C 97.2 376.2 104.4 376.2 104.4 376.2 C 104.4 374 103.4 371.3 100.8 371.3 Z M 117.2 384.4 C 117.2 384.4 117.24 374.06 117.2 374.1 C 117.2 372.1 116.4 371.4 114.9 371.4 C 113.5 371.4 112.2 372.6 111.5 373.8 C 111.54 373.76 111.5 384.4 111.5 384.4 L 109.4 384.4 L 109.4 369.9 L 111.5 369.9 C 111.5 369.9 111.54 371.96 111.5 372 C 112.4 370.7 114 369.5 115.7 369.5 C 118.2 369.5 119.4 370.8 119.4 373.5 C 119.4 373.46 119.4 384.4 119.4 384.4 L 117.2 384.4 Z M 122.6 388.1 C 122.9 388.3 123.4 388.3 123.6 388.3 C 124.4 388.3 124.9 388 125.3 386.9 C 125.31 386.9 126.1 384.7 126.1 384.7 L 121.3 369.9 L 123.6 369.9 L 127.2 381.8 L 130.8 369.9 L 133.1 369.9 C 133.1 369.9 127.35 387.44 127.3 387.4 C 126.6 389.5 125.5 390.3 123.7 390.3 C 123.3 390.3 122.6 390.2 122.3 390 C 122.3 390 122.6 388.1 122.6 388.1 Z M 135 384.4 L 135 364.4 L 137.1 364.4 L 137.1 384.4 L 135 384.4 Z M 154.4 384.4 C 154.4 384.4 154.38 382.82 154.4 382.8 C 153.4 384.1 152 384.7 150.6 384.7 C 148.2 384.7 146.2 382.9 146.2 379.9 C 146.2 376.9 148.2 375.1 150.6 375.1 C 152 375.1 153.5 375.7 154.4 377 C 154.4 377 154.4 374.5 154.4 374.5 C 154.4 372.5 153.3 371.4 151.4 371.4 C 150.1 371.4 148.9 371.9 147.8 373.2 C 147.8 373.2 146.8 371.6 146.8 371.6 C 148.2 370.2 149.9 369.5 151.7 369.5 C 154.6 369.5 156.5 370.9 156.5 374.2 C 156.54 374.24 156.5 384.4 156.5 384.4 L 154.4 384.4 Z M 154.4 381.3 C 154.4 381.3 154.4 378.6 154.4 378.6 C 153.7 377.4 152.5 376.7 151.3 376.7 C 149.5 376.7 148.4 378.1 148.4 379.9 C 148.4 381.7 149.5 383.2 151.3 383.2 C 152.5 383.2 153.7 382.5 154.4 381.3 Z M 159.4 377.1 C 159.4 372.8 161.7 369.5 165.4 369.5 C 167.5 369.5 168.7 370.3 169.6 371.4 C 169.6 371.4 168.4 372.9 168.4 372.9 C 167.6 371.9 166.7 371.4 165.6 371.4 C 163 371.4 161.7 374 161.7 377.1 C 161.7 380.2 163 382.8 165.6 382.8 C 166.7 382.8 167.6 382.4 168.4 381.3 C 168.4 381.3 169.6 382.8 169.6 382.8 C 168.7 384 167.5 384.7 165.4 384.7 C 161.7 384.7 159.4 381.4 159.4 377.1 Z M 171.3 377.1 C 171.3 372.9 173.5 369.5 177.2 369.5 C 181 369.5 182.9 372.9 182.9 377.2 C 182.94 377.18 182.9 377.8 182.9 377.8 C 182.9 377.8 173.55 377.84 173.5 377.8 C 173.6 380.7 175.1 382.9 177.7 382.9 C 179 382.9 180.3 382.3 181.2 381.2 C 181.2 381.2 182.3 382.4 182.3 382.4 C 181.1 383.9 179.5 384.7 177.5 384.7 C 173.7 384.7 171.3 381.6 171.3 377.1 Z M 177.2 371.3 C 174.6 371.3 173.6 374.1 173.5 376.2 C 173.5 376.2 180.8 376.2 180.8 376.2 C 180.8 374 179.8 371.3 177.2 371.3 Z M 186.2 381.5 C 186.21 381.47 186.2 371.8 186.2 371.8 L 184.3 371.8 L 184.3 369.9 L 186.2 369.9 L 186.2 365.9 L 188.4 365.9 L 188.4 369.9 L 190.8 369.9 L 190.8 371.8 L 188.4 371.8 C 188.4 371.8 188.37 381.08 188.4 381.1 C 188.4 382.2 188.7 382.8 189.5 382.8 C 190.1 382.8 190.5 382.6 190.8 382.2 C 190.8 382.2 191.5 383.9 191.5 383.9 C 190.9 384.4 190.2 384.7 189.1 384.7 C 187.1 384.7 186.2 383.6 186.2 381.5 Z M 200.8 384.4 C 200.8 384.4 200.82 382.82 200.8 382.8 C 199.9 384.1 198.5 384.7 197 384.7 C 194.7 384.7 192.6 382.9 192.6 379.9 C 192.6 376.9 194.6 375.1 197 375.1 C 198.5 375.1 199.9 375.7 200.8 377 C 200.8 377 200.8 374.5 200.8 374.5 C 200.8 372.5 199.7 371.4 197.8 371.4 C 196.5 371.4 195.3 371.9 194.2 373.2 C 194.2 373.2 193.3 371.6 193.3 371.6 C 194.6 370.2 196.3 369.5 198.2 369.5 C 201.1 369.5 203 370.9 203 374.2 C 202.98 374.24 203 384.4 203 384.4 L 200.8 384.4 Z M 200.8 381.3 C 200.8 381.3 200.8 378.6 200.8 378.6 C 200.2 377.4 199 376.7 197.7 376.7 C 195.9 376.7 194.8 378.1 194.8 379.9 C 194.8 381.7 195.9 383.2 197.7 383.2 C 199 383.2 200.2 382.5 200.8 381.3 Z M 207 381.5 C 207.03 381.47 207 371.8 207 371.8 L 205.1 371.8 L 205.1 369.9 L 207 369.9 L 207 365.9 L 209.2 365.9 L 209.2 369.9 L 211.6 369.9 L 211.6 371.8 L 209.2 371.8 C 209.2 371.8 209.19 381.08 209.2 381.1 C 209.2 382.2 209.5 382.8 210.4 382.8 C 210.9 382.8 211.3 382.6 211.6 382.2 C 211.6 382.2 212.3 383.9 212.3 383.9 C 211.8 384.4 211 384.7 209.9 384.7 C 208 384.7 207 383.6 207 381.5 Z M 213.5 377.1 C 213.5 372.9 215.7 369.5 219.4 369.5 C 223.2 369.5 225.1 372.9 225.1 377.2 C 225.08 377.18 225.1 377.8 225.1 377.8 C 225.1 377.8 215.69 377.84 215.7 377.8 C 215.8 380.7 217.3 382.9 219.9 382.9 C 221.1 382.9 222.4 382.3 223.3 381.2 C 223.3 381.2 224.5 382.4 224.5 382.4 C 223.3 383.9 221.6 384.7 219.7 384.7 C 215.8 384.7 213.5 381.6 213.5 377.1 Z M 219.3 371.3 C 216.8 371.3 215.8 374.1 215.7 376.2 C 215.7 376.2 223 376.2 223 376.2 C 222.9 374 222 371.3 219.3 371.3 Z " stroke="none" fill="#d3d2d2"/>  </g>  <g id="Polygon219803">    <path d="M 5.5 348.4 L 5.5 330.5 L 0.8 330.5 L 0.8 328.4 L 12.6 328.4 L 12.6 330.5 L 7.9 330.5 L 7.9 348.4 L 5.5 348.4 Z M 13.3 348.4 L 13.3 333.9 L 15.4 333.9 C 15.4 333.9 15.39 336.2 15.4 336.2 C 16.3 334.7 17.7 333.6 19.5 333.6 C 19.5 333.6 19.5 335.8 19.5 335.8 C 19.3 335.7 19 335.7 18.8 335.7 C 17.5 335.7 16 336.9 15.4 338.1 C 15.39 338.09 15.4 348.4 15.4 348.4 L 13.3 348.4 Z M 21.3 330.3 C 21.3 329.5 22 328.8 22.7 328.8 C 23.5 328.8 24.2 329.5 24.2 330.3 C 24.2 331.1 23.5 331.8 22.7 331.8 C 22 331.8 21.3 331.1 21.3 330.3 Z M 21.7 348.4 L 21.7 333.9 L 23.8 333.9 L 23.8 348.4 L 21.7 348.4 Z M 42.1 348.4 C 42.1 348.4 42.12 337.88 42.1 337.9 C 42.1 336.3 41.5 335.4 40.1 335.4 C 38.8 335.4 37.5 336.6 37 337.8 C 36.96 337.76 37 348.4 37 348.4 L 34.8 348.4 C 34.8 348.4 34.8 337.88 34.8 337.9 C 34.8 336.3 34.2 335.4 32.8 335.4 C 31.5 335.4 30.2 336.6 29.6 337.8 C 29.61 337.76 29.6 348.4 29.6 348.4 L 27.5 348.4 L 27.5 333.9 L 29.6 333.9 C 29.6 333.9 29.61 335.96 29.6 336 C 30.2 334.9 31.8 333.5 33.6 333.5 C 35.4 333.5 36.6 334.6 36.8 336.1 C 37.6 334.8 39.2 333.5 40.9 333.5 C 43 333.5 44.3 334.7 44.3 337.3 C 44.28 337.31 44.3 348.4 44.3 348.4 L 42.1 348.4 Z M 47.2 341.1 C 47.2 336.9 49.4 333.5 53.1 333.5 C 56.9 333.5 58.8 336.9 58.8 341.2 C 58.83 341.18 58.8 341.8 58.8 341.8 C 58.8 341.8 49.44 341.84 49.4 341.8 C 49.5 344.7 51 346.9 53.6 346.9 C 54.9 346.9 56.2 346.3 57.1 345.2 C 57.1 345.2 58.2 346.4 58.2 346.4 C 57 347.9 55.4 348.7 53.4 348.7 C 49.6 348.7 47.2 345.6 47.2 341.1 Z M 53.1 335.3 C 50.5 335.3 49.5 338.1 49.4 340.2 C 49.4 340.2 56.7 340.2 56.7 340.2 C 56.7 338 55.7 335.3 53.1 335.3 Z M 62.1 345.5 C 62.1 345.47 62.1 335.8 62.1 335.8 L 60.2 335.8 L 60.2 333.9 L 62.1 333.9 L 62.1 329.9 L 64.3 329.9 L 64.3 333.9 L 66.7 333.9 L 66.7 335.8 L 64.3 335.8 C 64.3 335.8 64.26 345.08 64.3 345.1 C 64.3 346.2 64.6 346.8 65.4 346.8 C 66 346.8 66.4 346.6 66.7 346.2 C 66.7 346.2 67.3 347.9 67.3 347.9 C 66.8 348.4 66.1 348.7 65 348.7 C 63 348.7 62.1 347.6 62.1 345.5 Z M 77.1 348.4 C 77.1 348.4 77.13 338.03 77.1 338 C 77.1 336.1 76.2 335.4 74.8 335.4 C 73.4 335.4 72.1 336.6 71.4 337.8 C 71.4 337.76 71.4 348.4 71.4 348.4 L 69.3 348.4 L 69.3 328.4 L 71.4 328.4 C 71.4 328.4 71.4 335.96 71.4 336 C 72.2 334.7 73.9 333.5 75.6 333.5 C 78.1 333.5 79.3 334.8 79.3 337.4 C 79.26 337.4 79.3 348.4 79.3 348.4 L 77.1 348.4 Z M 82.5 352.1 C 82.8 352.3 83.2 352.3 83.5 352.3 C 84.3 352.3 84.8 352 85.2 350.9 C 85.17 350.9 85.9 348.7 85.9 348.7 L 81.1 333.9 L 83.5 333.9 L 87.1 345.8 L 90.7 333.9 L 93 333.9 C 93 333.9 87.21 351.44 87.2 351.4 C 86.5 353.5 85.3 354.3 83.6 354.3 C 83.2 354.3 82.5 354.2 82.2 354 C 82.2 354 82.5 352.1 82.5 352.1 Z M 94.9 348.4 L 94.9 328.4 L 97 328.4 L 97 348.4 L 94.9 348.4 Z M 108.1 348.4 C 108.1 348.4 108.09 346.82 108.1 346.8 C 107.2 348.1 105.7 348.7 104.3 348.7 C 101.9 348.7 99.9 346.9 99.9 343.9 C 99.9 340.9 101.9 339.1 104.3 339.1 C 105.7 339.1 107.2 339.7 108.1 341 C 108.1 341 108.1 338.5 108.1 338.5 C 108.1 336.5 107 335.4 105.1 335.4 C 103.8 335.4 102.6 335.9 101.5 337.2 C 101.5 337.2 100.5 335.6 100.5 335.6 C 101.9 334.2 103.6 333.5 105.4 333.5 C 108.3 333.5 110.2 334.9 110.2 338.2 C 110.25 338.24 110.2 348.4 110.2 348.4 L 108.1 348.4 Z M 108.1 345.3 C 108.1 345.3 108.1 342.6 108.1 342.6 C 107.4 341.4 106.2 340.7 105 340.7 C 103.2 340.7 102.1 342.1 102.1 343.9 C 102.1 345.7 103.2 347.2 105 347.2 C 106.2 347.2 107.4 346.5 108.1 345.3 Z M 128.5 348.4 C 128.5 348.4 128.52 337.88 128.5 337.9 C 128.5 336.3 127.9 335.4 126.5 335.4 C 125.2 335.4 123.9 336.6 123.4 337.8 C 123.36 337.76 123.4 348.4 123.4 348.4 L 121.2 348.4 C 121.2 348.4 121.2 337.88 121.2 337.9 C 121.2 336.3 120.6 335.4 119.2 335.4 C 117.9 335.4 116.6 336.6 116 337.8 C 116.01 337.76 116 348.4 116 348.4 L 113.9 348.4 L 113.9 333.9 L 116 333.9 C 116 333.9 116.01 335.96 116 336 C 116.6 334.9 118.2 333.5 120 333.5 C 121.8 333.5 123 334.6 123.2 336.1 C 124 334.8 125.6 333.5 127.3 333.5 C 129.4 333.5 130.7 334.7 130.7 337.3 C 130.68 337.31 130.7 348.4 130.7 348.4 L 128.5 348.4 Z M 133.9 330.3 C 133.9 329.5 134.6 328.8 135.4 328.8 C 136.2 328.8 136.9 329.5 136.9 330.3 C 136.9 331.1 136.2 331.8 135.4 331.8 C 134.6 331.8 133.9 331.1 133.9 330.3 Z M 134.3 348.4 L 134.3 333.9 L 136.5 333.9 L 136.5 348.4 L 134.3 348.4 Z M 148 348.4 C 148 348.4 147.96 338.06 148 338.1 C 148 336.1 147.1 335.4 145.6 335.4 C 144.2 335.4 142.9 336.6 142.3 337.8 C 142.26 337.76 142.3 348.4 142.3 348.4 L 140.1 348.4 L 140.1 333.9 L 142.3 333.9 C 142.3 333.9 142.26 335.96 142.3 336 C 143.1 334.7 144.7 333.5 146.5 333.5 C 148.9 333.5 150.1 334.8 150.1 337.5 C 150.12 337.46 150.1 348.4 150.1 348.4 L 148 348.4 Z M 153.1 341.1 C 153.1 336.9 155.3 333.5 158.9 333.5 C 162.7 333.5 164.7 336.9 164.7 341.2 C 164.67 341.18 164.7 341.8 164.7 341.8 C 164.7 341.8 155.28 341.84 155.3 341.8 C 155.4 344.7 156.9 346.9 159.4 346.9 C 160.7 346.9 162 346.3 162.9 345.2 C 162.9 345.2 164 346.4 164 346.4 C 162.9 347.9 161.2 348.7 159.3 348.7 C 155.4 348.7 153.1 345.6 153.1 341.1 Z M 158.9 335.3 C 156.4 335.3 155.3 338.1 155.3 340.2 C 155.3 340.2 162.5 340.2 162.5 340.2 C 162.5 338 161.5 335.3 158.9 335.3 Z " stroke="none" fill="#d3d2d2"/>  </g>  <g id="Polygon219802">    <path d="M 2.1 312.4 L 2.1 292.4 C 2.1 292.4 8.19 292.37 8.2 292.4 C 11.8 292.4 13.7 295.1 13.7 298.4 C 13.7 301.6 11.8 304.4 8.2 304.4 C 8.19 304.37 4.5 304.4 4.5 304.4 L 4.5 312.4 L 2.1 312.4 Z M 11.3 298.4 C 11.3 296.1 10 294.5 7.9 294.5 C 7.95 294.47 4.5 294.5 4.5 294.5 L 4.5 302.3 C 4.5 302.3 7.95 302.27 7.9 302.3 C 10 302.3 11.3 300.6 11.3 298.4 Z M 15.1 305.1 C 15.1 300.9 17.3 297.5 20.9 297.5 C 24.8 297.5 26.7 300.9 26.7 305.2 C 26.67 305.18 26.7 305.8 26.7 305.8 C 26.7 305.8 17.28 305.84 17.3 305.8 C 17.4 308.7 18.9 310.9 21.5 310.9 C 22.7 310.9 24 310.3 24.9 309.2 C 24.9 309.2 26 310.4 26 310.4 C 24.9 311.9 23.2 312.7 21.3 312.7 C 17.4 312.7 15.1 309.6 15.1 305.1 Z M 20.9 299.3 C 18.4 299.3 17.3 302.1 17.3 304.2 C 17.3 304.2 24.5 304.2 24.5 304.2 C 24.5 302 23.6 299.3 20.9 299.3 Z M 37.3 312.4 C 37.3 312.4 37.35 302.06 37.3 302.1 C 37.3 300.1 36.5 299.4 35 299.4 C 33.6 299.4 32.3 300.6 31.6 301.8 C 31.65 301.76 31.6 312.4 31.6 312.4 L 29.5 312.4 L 29.5 297.9 L 31.6 297.9 C 31.6 297.9 31.65 299.96 31.6 300 C 32.5 298.7 34.1 297.5 35.8 297.5 C 38.3 297.5 39.5 298.8 39.5 301.5 C 39.51 301.46 39.5 312.4 39.5 312.4 L 37.3 312.4 Z M 43.6 309.5 C 43.59 309.47 43.6 299.8 43.6 299.8 L 41.7 299.8 L 41.7 297.9 L 43.6 297.9 L 43.6 293.9 L 45.7 293.9 L 45.7 297.9 L 48.2 297.9 L 48.2 299.8 L 45.7 299.8 C 45.7 299.8 45.75 309.08 45.7 309.1 C 45.7 310.2 46.1 310.8 46.9 310.8 C 47.5 310.8 47.9 310.6 48.2 310.2 C 48.2 310.2 48.8 311.9 48.8 311.9 C 48.3 312.4 47.6 312.7 46.5 312.7 C 44.5 312.7 43.6 311.6 43.6 309.5 Z M 58.2 312.4 C 58.2 312.4 58.2 310.82 58.2 310.8 C 57.3 312.1 55.9 312.7 54.4 312.7 C 52 312.7 50 310.9 50 307.9 C 50 304.9 52 303.1 54.4 303.1 C 55.9 303.1 57.3 303.7 58.2 305 C 58.2 305 58.2 302.5 58.2 302.5 C 58.2 300.5 57.1 299.4 55.2 299.4 C 53.9 299.4 52.7 299.9 51.6 301.2 C 51.6 301.2 50.6 299.6 50.6 299.6 C 52 298.2 53.7 297.5 55.6 297.5 C 58.4 297.5 60.4 298.9 60.4 302.2 C 60.36 302.24 60.4 312.4 60.4 312.4 L 58.2 312.4 Z M 58.2 309.3 C 58.2 309.3 58.2 306.6 58.2 306.6 C 57.5 305.4 56.3 304.7 55.1 304.7 C 53.3 304.7 52.2 306.1 52.2 307.9 C 52.2 309.7 53.3 311.2 55.1 311.2 C 56.3 311.2 57.5 310.5 58.2 309.3 Z M 62.8 310.7 C 62.8 310.7 63.9 309.2 63.9 309.2 C 64.7 310.2 66.1 311 67.7 311 C 69.4 311 70.5 310 70.5 308.7 C 70.5 305.3 63.2 306.4 63.2 301.4 C 63.2 299.3 65 297.5 67.9 297.5 C 69.8 297.5 71.2 298.3 72.3 299.4 C 72.3 299.4 71.2 300.9 71.2 300.9 C 70.5 299.9 69.3 299.3 67.9 299.3 C 66.3 299.3 65.3 300.2 65.3 301.4 C 65.3 304.5 72.5 303.4 72.5 308.6 C 72.5 311 70.7 312.7 67.7 312.7 C 65.7 312.7 64 312.1 62.8 310.7 Z M 75.7 309.5 C 75.72 309.47 75.7 299.8 75.7 299.8 L 73.8 299.8 L 73.8 297.9 L 75.7 297.9 L 75.7 293.9 L 77.9 293.9 L 77.9 297.9 L 80.3 297.9 L 80.3 299.8 L 77.9 299.8 C 77.9 299.8 77.88 309.08 77.9 309.1 C 77.9 310.2 78.2 310.8 79 310.8 C 79.6 310.8 80 310.6 80.3 310.2 C 80.3 310.2 81 311.9 81 311.9 C 80.5 312.4 79.7 312.7 78.6 312.7 C 76.6 312.7 75.7 311.6 75.7 309.5 Z M 82.5 294.3 C 82.5 293.5 83.2 292.8 83.9 292.8 C 84.7 292.8 85.4 293.5 85.4 294.3 C 85.4 295.1 84.7 295.8 83.9 295.8 C 83.2 295.8 82.5 295.1 82.5 294.3 Z M 82.9 312.4 L 82.9 297.9 L 85 297.9 L 85 312.4 L 82.9 312.4 Z M 87.5 310.7 C 87.5 310.7 88.6 309.2 88.6 309.2 C 89.4 310.2 90.8 311 92.4 311 C 94 311 95.2 310 95.2 308.7 C 95.2 305.3 87.9 306.4 87.9 301.4 C 87.9 299.3 89.7 297.5 92.5 297.5 C 94.5 297.5 95.9 298.3 97 299.4 C 97 299.4 95.9 300.9 95.9 300.9 C 95.2 299.9 94 299.3 92.6 299.3 C 91 299.3 90 300.2 90 301.4 C 90 304.5 97.2 303.4 97.2 308.6 C 97.2 311 95.4 312.7 92.4 312.7 C 90.4 312.7 88.7 312.1 87.5 310.7 Z M 100.4 309.5 C 100.41 309.47 100.4 299.8 100.4 299.8 L 98.5 299.8 L 98.5 297.9 L 100.4 297.9 L 100.4 293.9 L 102.6 293.9 L 102.6 297.9 L 105 297.9 L 105 299.8 L 102.6 299.8 C 102.6 299.8 102.57 309.08 102.6 309.1 C 102.6 310.2 102.9 310.8 103.7 310.8 C 104.3 310.8 104.7 310.6 105 310.2 C 105 310.2 105.7 311.9 105.7 311.9 C 105.1 312.4 104.4 312.7 103.3 312.7 C 101.3 312.7 100.4 311.6 100.4 309.5 Z M 107.6 312.4 L 107.6 297.9 L 109.7 297.9 C 109.7 297.9 109.71 300.2 109.7 300.2 C 110.6 298.7 112 297.6 113.8 297.6 C 113.8 297.6 113.8 299.8 113.8 299.8 C 113.6 299.7 113.3 299.7 113.1 299.7 C 111.8 299.7 110.3 300.9 109.7 302.1 C 109.71 302.09 109.7 312.4 109.7 312.4 L 107.6 312.4 Z M 115.6 316.1 C 115.9 316.3 116.3 316.3 116.5 316.3 C 117.4 316.3 117.9 316 118.3 314.9 C 118.26 314.9 119 312.7 119 312.7 L 114.2 297.9 L 116.5 297.9 L 120.1 309.8 L 123.8 297.9 L 126.1 297.9 C 126.1 297.9 120.3 315.44 120.3 315.4 C 119.6 317.5 118.4 318.3 116.7 318.3 C 116.2 318.3 115.6 318.2 115.3 318 C 115.3 318 115.6 316.1 115.6 316.1 Z M 127.9 312.4 L 127.9 292.4 L 130.1 292.4 L 130.1 312.4 L 127.9 312.4 Z M 147.7 312.4 C 147.7 312.4 147.75 302.03 147.7 302 C 147.7 300.1 146.8 299.4 145.4 299.4 C 144 299.4 142.7 300.6 142 301.8 C 142.02 301.76 142 312.4 142 312.4 L 139.9 312.4 L 139.9 292.4 L 142 292.4 C 142 292.4 142.02 299.96 142 300 C 142.9 298.7 144.5 297.5 146.2 297.5 C 148.7 297.5 149.9 298.8 149.9 301.4 C 149.88 301.4 149.9 312.4 149.9 312.4 L 147.7 312.4 Z M 153.1 316.1 C 153.4 316.3 153.8 316.3 154.1 316.3 C 154.9 316.3 155.4 316 155.8 314.9 C 155.79 314.9 156.6 312.7 156.6 312.7 L 151.7 297.9 L 154.1 297.9 L 157.7 309.8 L 161.3 297.9 L 163.6 297.9 C 163.6 297.9 157.83 315.44 157.8 315.4 C 157.1 317.5 155.9 318.3 154.2 318.3 C 153.8 318.3 153.1 318.2 152.8 318 C 152.8 318 153.1 316.1 153.1 316.1 Z M 173.8 312.4 C 173.8 312.4 173.76 310.31 173.8 310.3 C 172.9 311.8 171.5 312.7 169.9 312.7 C 166.7 312.7 164.8 309.7 164.8 305.1 C 164.8 300.6 166.7 297.5 169.9 297.5 C 171.4 297.5 172.9 298.4 173.8 300 C 173.76 299.99 173.8 292.4 173.8 292.4 L 175.9 292.4 L 175.9 312.4 L 173.8 312.4 Z M 173.8 308.5 C 173.8 308.5 173.8 301.8 173.8 301.8 C 173.2 300.6 171.9 299.4 170.5 299.4 C 168.1 299.4 167 302 167 305.1 C 167 308.3 168.1 310.8 170.5 310.8 C 171.9 310.8 173.2 309.7 173.8 308.5 Z M 179.6 312.4 L 179.6 297.9 L 181.7 297.9 C 181.7 297.9 181.71 300.2 181.7 300.2 C 182.6 298.7 184 297.6 185.8 297.6 C 185.8 297.6 185.8 299.8 185.8 299.8 C 185.6 299.7 185.3 299.7 185.1 299.7 C 183.8 299.7 182.3 300.9 181.7 302.1 C 181.71 302.09 181.7 312.4 181.7 312.4 L 179.6 312.4 Z M 187.3 305.1 C 187.3 301 189.3 297.5 193.2 297.5 C 197.1 297.5 199.1 301 199.1 305.1 C 199.1 309.2 197.1 312.7 193.2 312.7 C 189.3 312.7 187.3 309.2 187.3 305.1 Z M 196.8 305.1 C 196.8 302.2 195.7 299.4 193.2 299.4 C 190.7 299.4 189.5 302.2 189.5 305.1 C 189.5 308.1 190.7 310.8 193.2 310.8 C 195.7 310.8 196.8 308.1 196.8 305.1 Z M 208.7 312.4 L 205.4 306.6 L 202 312.4 L 199.6 312.4 L 204.1 305 L 199.9 297.9 L 202.3 297.9 L 205.4 303.4 L 208.5 297.9 L 210.9 297.9 L 206.7 305 L 211.1 312.4 L 208.7 312.4 Z M 212.7 294.3 C 212.7 293.5 213.4 292.8 214.2 292.8 C 215 292.8 215.7 293.5 215.7 294.3 C 215.7 295.1 215 295.8 214.2 295.8 C 213.4 295.8 212.7 295.1 212.7 294.3 Z M 213.1 312.4 L 213.1 297.9 L 215.3 297.9 L 215.3 312.4 L 213.1 312.4 Z M 227.2 312.4 C 227.2 312.4 227.21 310.31 227.2 310.3 C 226.4 311.8 224.9 312.7 223.4 312.7 C 220.2 312.7 218.2 309.7 218.2 305.1 C 218.2 300.6 220.1 297.5 223.4 297.5 C 224.9 297.5 226.3 298.4 227.2 300 C 227.21 299.99 227.2 292.4 227.2 292.4 L 229.4 292.4 L 229.4 312.4 L 227.2 312.4 Z M 227.2 308.5 C 227.2 308.5 227.2 301.8 227.2 301.8 C 226.7 300.6 225.3 299.4 223.9 299.4 C 221.6 299.4 220.5 302 220.5 305.1 C 220.5 308.3 221.6 310.8 223.9 310.8 C 225.3 310.8 226.7 309.7 227.2 308.5 Z M 232.3 305.1 C 232.3 300.9 234.5 297.5 238.2 297.5 C 242 297.5 243.9 300.9 243.9 305.2 C 243.92 305.18 243.9 305.8 243.9 305.8 C 243.9 305.8 234.53 305.84 234.5 305.8 C 234.6 308.7 236.1 310.9 238.7 310.9 C 240 310.9 241.3 310.3 242.2 309.2 C 242.2 309.2 243.3 310.4 243.3 310.4 C 242.1 311.9 240.5 312.7 238.5 312.7 C 234.7 312.7 232.3 309.6 232.3 305.1 Z M 238.2 299.3 C 235.6 299.3 234.6 302.1 234.5 304.2 C 234.5 304.2 241.8 304.2 241.8 304.2 C 241.8 302 240.8 299.3 238.2 299.3 Z " stroke="none" fill="#d3d2d2"/>  </g>  <g id="Polygon219801">    <path d="M 16 276.4 L 16 260.7 L 10.7 276.4 L 9.8 276.4 L 4.5 260.7 L 4.5 276.4 L 2.1 276.4 L 2.1 256.4 L 5.4 256.4 L 10.3 270.6 L 15.1 256.4 L 18.4 256.4 L 18.4 276.4 L 16 276.4 Z M 21.7 280.1 C 22 280.3 22.5 280.3 22.7 280.3 C 23.5 280.3 24 280 24.4 278.9 C 24.42 278.9 25.2 276.7 25.2 276.7 L 20.4 261.9 L 22.7 261.9 L 26.3 273.8 L 29.9 261.9 L 32.2 261.9 C 32.2 261.9 26.46 279.44 26.5 279.4 C 25.7 281.5 24.6 282.3 22.9 282.3 C 22.4 282.3 21.7 282.2 21.4 282 C 21.4 282 21.7 280.1 21.7 280.1 Z M 34.1 276.4 L 34.1 261.9 L 36.2 261.9 C 36.2 261.9 36.24 264.2 36.2 264.2 C 37.2 262.7 38.6 261.6 40.3 261.6 C 40.3 261.6 40.3 263.8 40.3 263.8 C 40.1 263.7 39.9 263.7 39.6 263.7 C 38.3 263.7 36.8 264.9 36.2 266.1 C 36.24 266.09 36.2 276.4 36.2 276.4 L 34.1 276.4 Z M 41.8 269.1 C 41.8 265 43.9 261.5 47.7 261.5 C 51.6 261.5 53.6 265 53.6 269.1 C 53.6 273.2 51.6 276.7 47.7 276.7 C 43.9 276.7 41.8 273.2 41.8 269.1 Z M 51.4 269.1 C 51.4 266.2 50.2 263.4 47.7 263.4 C 45.2 263.4 44.1 266.2 44.1 269.1 C 44.1 272.1 45.2 274.8 47.7 274.8 C 50.2 274.8 51.4 272.1 51.4 269.1 Z M 55.4 274.7 C 55.4 274.7 56.5 273.2 56.5 273.2 C 57.3 274.2 58.7 275 60.2 275 C 61.9 275 63 274 63 272.7 C 63 269.3 55.8 270.4 55.8 265.4 C 55.8 263.3 57.5 261.5 60.4 261.5 C 62.3 261.5 63.8 262.3 64.8 263.4 C 64.8 263.4 63.8 264.9 63.8 264.9 C 63.1 263.9 61.9 263.3 60.4 263.3 C 58.9 263.3 57.9 264.2 57.9 265.4 C 57.9 268.5 65.1 267.4 65.1 272.6 C 65.1 275 63.2 276.7 60.3 276.7 C 58.2 276.7 56.6 276.1 55.4 274.7 Z M 67.4 258.3 C 67.4 257.5 68.1 256.8 68.9 256.8 C 69.7 256.8 70.4 257.5 70.4 258.3 C 70.4 259.1 69.7 259.8 68.9 259.8 C 68.1 259.8 67.4 259.1 67.4 258.3 Z M 67.9 276.4 L 67.9 261.9 L 70 261.9 L 70 276.4 L 67.9 276.4 Z M 81.5 276.4 C 81.5 276.4 81.48 266.06 81.5 266.1 C 81.5 264.1 80.6 263.4 79.2 263.4 C 77.8 263.4 76.4 264.6 75.8 265.8 C 75.78 265.76 75.8 276.4 75.8 276.4 L 73.6 276.4 L 73.6 261.9 L 75.8 261.9 C 75.8 261.9 75.78 263.96 75.8 264 C 76.6 262.7 78.2 261.5 80 261.5 C 82.4 261.5 83.6 262.8 83.6 265.5 C 83.64 265.46 83.6 276.4 83.6 276.4 L 81.5 276.4 Z M 94.7 276.4 C 94.7 276.4 94.74 274.82 94.7 274.8 C 93.8 276.1 92.4 276.7 90.9 276.7 C 88.6 276.7 86.5 274.9 86.5 271.9 C 86.5 268.9 88.6 267.1 90.9 267.1 C 92.4 267.1 93.8 267.7 94.7 269 C 94.7 269 94.7 266.5 94.7 266.5 C 94.7 264.5 93.7 263.4 91.8 263.4 C 90.4 263.4 89.2 263.9 88.1 265.2 C 88.1 265.2 87.2 263.6 87.2 263.6 C 88.6 262.2 90.3 261.5 92.1 261.5 C 95 261.5 96.9 262.9 96.9 266.2 C 96.9 266.24 96.9 276.4 96.9 276.4 L 94.7 276.4 Z M 94.7 273.3 C 94.7 273.3 94.7 270.6 94.7 270.6 C 94.1 269.4 92.9 268.7 91.6 268.7 C 89.8 268.7 88.7 270.1 88.7 271.9 C 88.7 273.7 89.8 275.2 91.6 275.2 C 92.9 275.2 94.1 274.5 94.7 273.3 Z M 99.4 274.7 C 99.4 274.7 100.4 273.2 100.4 273.2 C 101.3 274.2 102.7 275 104.2 275 C 105.9 275 107 274 107 272.7 C 107 269.3 99.8 270.4 99.8 265.4 C 99.8 263.3 101.5 261.5 104.4 261.5 C 106.3 261.5 107.8 262.3 108.8 263.4 C 108.8 263.4 107.8 264.9 107.8 264.9 C 107.1 263.9 105.8 263.3 104.4 263.3 C 102.8 263.3 101.8 264.2 101.8 265.4 C 101.8 268.5 109.1 267.4 109.1 272.6 C 109.1 275 107.2 276.7 104.2 276.7 C 102.2 276.7 100.6 276.1 99.4 274.7 Z M 111.1 269.1 C 111.1 264.9 113.3 261.5 117 261.5 C 120.8 261.5 122.7 264.9 122.7 269.2 C 122.73 269.18 122.7 269.8 122.7 269.8 C 122.7 269.8 113.34 269.84 113.3 269.8 C 113.4 272.7 114.9 274.9 117.5 274.9 C 118.8 274.9 120.1 274.3 121 273.2 C 121 273.2 122.1 274.4 122.1 274.4 C 120.9 275.9 119.3 276.7 117.3 276.7 C 113.5 276.7 111.1 273.6 111.1 269.1 Z M 117 263.3 C 114.4 263.3 113.4 266.1 113.3 268.2 C 113.3 268.2 120.6 268.2 120.6 268.2 C 120.6 266 119.6 263.3 117 263.3 Z " stroke="none" fill="#d3d2d2"/>  </g>  <g id="Polygon219800">    <path d="M 16 240.4 L 16 224.7 L 10.7 240.4 L 9.8 240.4 L 4.5 224.7 L 4.5 240.4 L 2.1 240.4 L 2.1 220.4 L 5.4 220.4 L 10.3 234.6 L 15.1 220.4 L 18.4 220.4 L 18.4 240.4 L 16 240.4 Z M 21.4 233.1 C 21.4 228.9 23.7 225.5 27.3 225.5 C 31.1 225.5 33.1 228.9 33.1 233.2 C 33.06 233.18 33.1 233.8 33.1 233.8 C 33.1 233.8 23.67 233.84 23.7 233.8 C 23.8 236.7 25.3 238.9 27.8 238.9 C 29.1 238.9 30.4 238.3 31.3 237.2 C 31.3 237.2 32.4 238.4 32.4 238.4 C 31.3 239.9 29.6 240.7 27.7 240.7 C 23.8 240.7 21.4 237.6 21.4 233.1 Z M 27.3 227.3 C 24.7 227.3 23.7 230.1 23.7 232.2 C 23.7 232.2 30.9 232.2 30.9 232.2 C 30.9 230 29.9 227.3 27.3 227.3 Z M 36.3 237.5 C 36.33 237.47 36.3 227.8 36.3 227.8 L 34.4 227.8 L 34.4 225.9 L 36.3 225.9 L 36.3 221.9 L 38.5 221.9 L 38.5 225.9 L 40.9 225.9 L 40.9 227.8 L 38.5 227.8 C 38.5 227.8 38.49 237.08 38.5 237.1 C 38.5 238.2 38.8 238.8 39.7 238.8 C 40.2 238.8 40.6 238.6 40.9 238.2 C 40.9 238.2 41.6 239.9 41.6 239.9 C 41.1 240.4 40.3 240.7 39.2 240.7 C 37.3 240.7 36.3 239.6 36.3 237.5 Z M 51.4 240.4 C 51.4 240.4 51.36 230.03 51.4 230 C 51.4 228.1 50.5 227.4 49 227.4 C 47.6 227.4 46.3 228.6 45.6 229.8 C 45.63 229.76 45.6 240.4 45.6 240.4 L 43.5 240.4 L 43.5 220.4 L 45.6 220.4 C 45.6 220.4 45.63 227.96 45.6 228 C 46.5 226.7 48.1 225.5 49.9 225.5 C 52.3 225.5 53.5 226.8 53.5 229.4 C 53.49 229.4 53.5 240.4 53.5 240.4 L 51.4 240.4 Z M 56.7 244.1 C 57 244.3 57.4 244.3 57.7 244.3 C 58.5 244.3 59 244 59.4 242.9 C 59.4 242.9 60.2 240.7 60.2 240.7 L 55.3 225.9 L 57.7 225.9 L 61.3 237.8 L 64.9 225.9 L 67.2 225.9 C 67.2 225.9 61.44 243.44 61.4 243.4 C 60.7 245.5 59.5 246.3 57.8 246.3 C 57.4 246.3 56.7 246.2 56.4 246 C 56.4 246 56.7 244.1 56.7 244.1 Z M 69.1 240.4 L 69.1 220.4 L 71.2 220.4 L 71.2 240.4 L 69.1 240.4 Z M 80.6 222.3 C 80.6 221.5 81.3 220.8 82.1 220.8 C 82.9 220.8 83.5 221.5 83.5 222.3 C 83.5 223.1 82.9 223.8 82.1 223.8 C 81.3 223.8 80.6 223.1 80.6 222.3 Z M 81 240.4 L 81 225.9 L 83.2 225.9 L 83.2 240.4 L 81 240.4 Z M 85.6 238.7 C 85.6 238.7 86.7 237.2 86.7 237.2 C 87.6 238.2 88.9 239 90.5 239 C 92.2 239 93.3 238 93.3 236.7 C 93.3 233.3 86.1 234.4 86.1 229.4 C 86.1 227.3 87.8 225.5 90.7 225.5 C 92.6 225.5 94.1 226.3 95.1 227.4 C 95.1 227.4 94.1 228.9 94.1 228.9 C 93.4 227.9 92.1 227.3 90.7 227.3 C 89.1 227.3 88.1 228.2 88.1 229.4 C 88.1 232.5 95.4 231.4 95.4 236.6 C 95.4 239 93.5 240.7 90.5 240.7 C 88.5 240.7 86.8 240.1 85.6 238.7 Z M 97.4 233.1 C 97.4 229 99.4 225.5 103.3 225.5 C 107.2 225.5 109.2 229 109.2 233.1 C 109.2 237.2 107.2 240.7 103.3 240.7 C 99.4 240.7 97.4 237.2 97.4 233.1 Z M 106.9 233.1 C 106.9 230.2 105.8 227.4 103.3 227.4 C 100.8 227.4 99.7 230.2 99.7 233.1 C 99.7 236.1 100.8 238.8 103.3 238.8 C 105.8 238.8 106.9 236.1 106.9 233.1 Z M 112.6 237.5 C 112.56 237.47 112.6 227.8 112.6 227.8 L 110.6 227.8 L 110.6 225.9 L 112.6 225.9 L 112.6 221.9 L 114.7 221.9 L 114.7 225.9 L 117.2 225.9 L 117.2 227.8 L 114.7 227.8 C 114.7 227.8 114.72 237.08 114.7 237.1 C 114.7 238.2 115 238.8 115.9 238.8 C 116.4 238.8 116.9 238.6 117.1 238.2 C 117.1 238.2 117.8 239.9 117.8 239.9 C 117.3 240.4 116.6 240.7 115.5 240.7 C 113.5 240.7 112.6 239.6 112.6 237.5 Z M 127.6 240.4 C 127.6 240.4 127.59 230.03 127.6 230 C 127.6 228.1 126.7 227.4 125.2 227.4 C 123.8 227.4 122.5 228.6 121.9 229.8 C 121.86 229.76 121.9 240.4 121.9 240.4 L 119.7 240.4 L 119.7 220.4 L 121.9 220.4 C 121.9 220.4 121.86 227.96 121.9 228 C 122.7 226.7 124.3 225.5 126.1 225.5 C 128.5 225.5 129.7 226.8 129.7 229.4 C 129.72 229.4 129.7 240.4 129.7 240.4 L 127.6 240.4 Z M 133 222.3 C 133 221.5 133.6 220.8 134.4 220.8 C 135.2 220.8 135.9 221.5 135.9 222.3 C 135.9 223.1 135.2 223.8 134.4 223.8 C 133.6 223.8 133 223.1 133 222.3 Z M 133.4 240.4 L 133.4 225.9 L 135.5 225.9 L 135.5 240.4 L 133.4 240.4 Z M 138.4 233.1 C 138.4 229 140.5 225.5 144.3 225.5 C 148.2 225.5 150.2 229 150.2 233.1 C 150.2 237.2 148.2 240.7 144.3 240.7 C 140.5 240.7 138.4 237.2 138.4 233.1 Z M 148 233.1 C 148 230.2 146.9 227.4 144.3 227.4 C 141.8 227.4 140.7 230.2 140.7 233.1 C 140.7 236.1 141.8 238.8 144.3 238.8 C 146.9 238.8 148 236.1 148 233.1 Z M 152.5 233.1 C 152.5 228.8 154.7 225.5 158.5 225.5 C 160.5 225.5 161.7 226.3 162.6 227.4 C 162.6 227.4 161.4 228.9 161.4 228.9 C 160.6 227.9 159.7 227.4 158.6 227.4 C 156.1 227.4 154.7 230 154.7 233.1 C 154.7 236.2 156.1 238.8 158.6 238.8 C 159.7 238.8 160.6 238.4 161.4 237.3 C 161.4 237.3 162.6 238.8 162.6 238.8 C 161.7 240 160.5 240.7 158.5 240.7 C 154.7 240.7 152.5 237.4 152.5 233.1 Z M 164.6 244.1 C 164.9 244.3 165.4 244.3 165.6 244.3 C 166.4 244.3 166.9 244 167.3 242.9 C 167.31 242.9 168.1 240.7 168.1 240.7 L 163.3 225.9 L 165.6 225.9 L 169.2 237.8 L 172.8 225.9 L 175.1 225.9 C 175.1 225.9 169.35 243.44 169.3 243.4 C 168.6 245.5 167.5 246.3 165.7 246.3 C 165.3 246.3 164.6 246.2 164.3 246 C 164.3 246 164.6 244.1 164.6 244.1 Z M 184.4 240.4 C 184.4 240.4 184.44 238.82 184.4 238.8 C 183.5 240.1 182.1 240.7 180.6 240.7 C 178.3 240.7 176.2 238.9 176.2 235.9 C 176.2 232.9 178.3 231.1 180.6 231.1 C 182.1 231.1 183.5 231.7 184.4 233 C 184.4 233 184.4 230.5 184.4 230.5 C 184.4 228.5 183.4 227.4 181.5 227.4 C 180.1 227.4 178.9 227.9 177.8 229.2 C 177.8 229.2 176.9 227.6 176.9 227.6 C 178.3 226.2 180 225.5 181.8 225.5 C 184.7 225.5 186.6 226.9 186.6 230.2 C 186.6 230.24 186.6 240.4 186.6 240.4 L 184.4 240.4 Z M 184.4 237.3 C 184.4 237.3 184.4 234.6 184.4 234.6 C 183.8 233.4 182.6 232.7 181.3 232.7 C 179.5 232.7 178.4 234.1 178.4 235.9 C 178.4 237.7 179.5 239.2 181.3 239.2 C 182.6 239.2 183.8 238.5 184.4 237.3 Z M 198.1 240.4 C 198.1 240.4 198.06 230.06 198.1 230.1 C 198.1 228.1 197.2 227.4 195.7 227.4 C 194.3 227.4 193 228.6 192.4 229.8 C 192.36 229.76 192.4 240.4 192.4 240.4 L 190.2 240.4 L 190.2 225.9 L 192.4 225.9 C 192.4 225.9 192.36 227.96 192.4 228 C 193.2 226.7 194.8 225.5 196.6 225.5 C 199 225.5 200.2 226.8 200.2 229.5 C 200.22 229.46 200.2 240.4 200.2 240.4 L 198.1 240.4 Z M 211.3 240.4 C 211.3 240.4 211.32 238.82 211.3 238.8 C 210.4 240.1 209 240.7 207.5 240.7 C 205.2 240.7 203.1 238.9 203.1 235.9 C 203.1 232.9 205.1 231.1 207.5 231.1 C 209 231.1 210.4 231.7 211.3 233 C 211.3 233 211.3 230.5 211.3 230.5 C 211.3 228.5 210.2 227.4 208.3 227.4 C 207 227.4 205.8 227.9 204.7 229.2 C 204.7 229.2 203.8 227.6 203.8 227.6 C 205.1 226.2 206.8 225.5 208.7 225.5 C 211.6 225.5 213.5 226.9 213.5 230.2 C 213.48 230.24 213.5 240.4 213.5 240.4 L 211.3 240.4 Z M 211.3 237.3 C 211.3 237.3 211.3 234.6 211.3 234.6 C 210.7 233.4 209.5 232.7 208.2 232.7 C 206.4 232.7 205.3 234.1 205.3 235.9 C 205.3 237.7 206.4 239.2 208.2 239.2 C 209.5 239.2 210.7 238.5 211.3 237.3 Z M 217.5 237.5 C 217.52 237.47 217.5 227.8 217.5 227.8 L 215.6 227.8 L 215.6 225.9 L 217.5 225.9 L 217.5 221.9 L 219.7 221.9 L 219.7 225.9 L 222.1 225.9 L 222.1 227.8 L 219.7 227.8 C 219.7 227.8 219.68 237.08 219.7 237.1 C 219.7 238.2 220 238.8 220.9 238.8 C 221.4 238.8 221.8 238.6 222.1 238.2 C 222.1 238.2 222.8 239.9 222.8 239.9 C 222.3 240.4 221.5 240.7 220.4 240.7 C 218.5 240.7 217.5 239.6 217.5 237.5 Z M 224 233.1 C 224 228.9 226.2 225.5 229.9 225.5 C 233.7 225.5 235.6 228.9 235.6 233.2 C 235.58 233.18 235.6 233.8 235.6 233.8 C 235.6 233.8 226.19 233.84 226.2 233.8 C 226.3 236.7 227.8 238.9 230.4 238.9 C 231.6 238.9 232.9 238.3 233.8 237.2 C 233.8 237.2 235 238.4 235 238.4 C 233.8 239.9 232.1 240.7 230.2 240.7 C 226.3 240.7 224 237.6 224 233.1 Z M 229.8 227.3 C 227.3 227.3 226.3 230.1 226.2 232.2 C 226.2 232.2 233.5 232.2 233.5 232.2 C 233.4 230 232.5 227.3 229.8 227.3 Z " stroke="none" fill="#d3d2d2"/>  </g>  <g id="Polygon219799">    <path d="M 2.1 204.4 L 2.1 184.4 L 4.5 184.4 L 4.5 204.4 L 2.1 204.4 Z M 7.6 197.1 C 7.6 193 9.6 189.5 13.4 189.5 C 17.3 189.5 19.3 193 19.3 197.1 C 19.3 201.2 17.3 204.7 13.4 204.7 C 9.6 204.7 7.6 201.2 7.6 197.1 Z M 17.1 197.1 C 17.1 194.2 16 191.4 13.4 191.4 C 10.9 191.4 9.8 194.2 9.8 197.1 C 9.8 200.1 10.9 202.8 13.4 202.8 C 16 202.8 17.1 200.1 17.1 197.1 Z M 30.6 204.4 C 30.6 204.4 30.57 202.31 30.6 202.3 C 29.7 203.8 28.3 204.7 26.8 204.7 C 23.5 204.7 21.6 201.7 21.6 197.1 C 21.6 192.6 23.5 189.5 26.8 189.5 C 28.2 189.5 29.7 190.4 30.6 192 C 30.57 191.99 30.6 184.4 30.6 184.4 L 32.7 184.4 L 32.7 204.4 L 30.6 204.4 Z M 30.6 200.5 C 30.6 200.5 30.6 193.8 30.6 193.8 C 30 192.6 28.7 191.4 27.3 191.4 C 24.9 191.4 23.8 194 23.8 197.1 C 23.8 200.3 24.9 202.8 27.3 202.8 C 28.7 202.8 30 201.7 30.6 200.5 Z M 36 186.3 C 36 185.5 36.7 184.8 37.4 184.8 C 38.2 184.8 38.9 185.5 38.9 186.3 C 38.9 187.1 38.2 187.8 37.4 187.8 C 36.7 187.8 36 187.1 36 186.3 Z M 36.4 204.4 L 36.4 189.9 L 38.5 189.9 L 38.5 204.4 L 36.4 204.4 Z M 41 202.7 C 41 202.7 42.1 201.2 42.1 201.2 C 42.9 202.2 44.3 203 45.9 203 C 47.5 203 48.7 202 48.7 200.7 C 48.7 197.3 41.4 198.4 41.4 193.4 C 41.4 191.3 43.2 189.5 46 189.5 C 48 189.5 49.4 190.3 50.5 191.4 C 50.5 191.4 49.4 192.9 49.4 192.9 C 48.7 191.9 47.5 191.3 46.1 191.3 C 44.5 191.3 43.5 192.2 43.5 193.4 C 43.5 196.5 50.7 195.4 50.7 200.6 C 50.7 203 48.9 204.7 45.9 204.7 C 43.9 204.7 42.2 204.1 41 202.7 Z M 52.8 197.1 C 52.8 192.9 55 189.5 58.6 189.5 C 62.5 189.5 64.4 192.9 64.4 197.2 C 64.38 197.18 64.4 197.8 64.4 197.8 C 64.4 197.8 54.99 197.84 55 197.8 C 55.1 200.7 56.6 202.9 59.2 202.9 C 60.4 202.9 61.7 202.3 62.6 201.2 C 62.6 201.2 63.7 202.4 63.7 202.4 C 62.6 203.9 60.9 204.7 59 204.7 C 55.1 204.7 52.8 201.6 52.8 197.1 Z M 58.6 191.3 C 56.1 191.3 55 194.1 55 196.2 C 55 196.2 62.2 196.2 62.2 196.2 C 62.2 194 61.3 191.3 58.6 191.3 Z M 75.5 204.4 C 75.5 204.4 75.51 202.31 75.5 202.3 C 74.7 203.8 73.2 204.7 71.7 204.7 C 68.5 204.7 66.5 201.7 66.5 197.1 C 66.5 192.6 68.4 189.5 71.7 189.5 C 73.2 189.5 74.6 190.4 75.5 192 C 75.51 191.99 75.5 184.4 75.5 184.4 L 77.7 184.4 L 77.7 204.4 L 75.5 204.4 Z M 75.5 200.5 C 75.5 200.5 75.5 193.8 75.5 193.8 C 75 192.6 73.6 191.4 72.2 191.4 C 69.9 191.4 68.8 194 68.8 197.1 C 68.8 200.3 69.9 202.8 72.2 202.8 C 73.6 202.8 75 201.7 75.5 200.5 Z M 86.4 202.2 C 86.4 202.2 87.7 200.4 87.7 200.4 C 88.7 201.6 90.4 202.6 92.3 202.6 C 94.9 202.6 96 201 96 199.3 C 96 194.5 87 195.7 87 189.3 C 87 186.2 89.4 184 92.7 184 C 94.9 184 96.7 184.8 98 186.1 C 98 186.1 96.8 187.9 96.8 187.9 C 95.7 186.7 94.2 186.2 92.6 186.2 C 90.8 186.2 89.4 187.4 89.4 189.2 C 89.4 193.4 98.4 192.5 98.4 199.2 C 98.4 202.1 96.5 204.7 92.3 204.7 C 89.7 204.7 87.7 203.7 86.4 202.2 Z M 108.7 204.4 C 108.7 204.4 108.72 202.82 108.7 202.8 C 107.8 204.1 106.4 204.7 104.9 204.7 C 102.6 204.7 100.5 202.9 100.5 199.9 C 100.5 196.9 102.5 195.1 104.9 195.1 C 106.4 195.1 107.8 195.7 108.7 197 C 108.7 197 108.7 194.5 108.7 194.5 C 108.7 192.5 107.6 191.4 105.7 191.4 C 104.4 191.4 103.2 191.9 102.1 193.2 C 102.1 193.2 101.2 191.6 101.2 191.6 C 102.5 190.2 104.2 189.5 106.1 189.5 C 109 189.5 110.9 190.9 110.9 194.2 C 110.88 194.24 110.9 204.4 110.9 204.4 L 108.7 204.4 Z M 108.7 201.3 C 108.7 201.3 108.7 198.6 108.7 198.6 C 108.1 197.4 106.9 196.7 105.6 196.7 C 103.8 196.7 102.7 198.1 102.7 199.9 C 102.7 201.7 103.8 203.2 105.6 203.2 C 106.9 203.2 108.1 202.5 108.7 201.3 Z M 114.5 204.4 L 114.5 184.4 L 116.6 184.4 L 116.6 204.4 L 114.5 204.4 Z M 120.7 201.5 C 120.72 201.47 120.7 191.8 120.7 191.8 L 118.8 191.8 L 118.8 189.9 L 120.7 189.9 L 120.7 185.9 L 122.9 185.9 L 122.9 189.9 L 125.3 189.9 L 125.3 191.8 L 122.9 191.8 C 122.9 191.8 122.88 201.08 122.9 201.1 C 122.9 202.2 123.2 202.8 124 202.8 C 124.6 202.8 125 202.6 125.3 202.2 C 125.3 202.2 126 203.9 126 203.9 C 125.5 204.4 124.7 204.7 123.6 204.7 C 121.6 204.7 120.7 203.6 120.7 201.5 Z " stroke="none" fill="#d3d2d2"/>  </g>  <g id="Polygon219798">    <path d="M 1.4 158.4 C 1.4 152.2 4.5 148 9.2 148 C 12.1 148 13.9 149.7 15.1 151.8 C 15.1 151.8 13.2 152.8 13.2 152.8 C 12.4 151.2 11 150.2 9.2 150.2 C 6 150.2 3.9 153.5 3.9 158.4 C 3.9 163.2 6 166.6 9.2 166.6 C 10.9 166.6 12.2 165.8 12.9 164.9 C 12.93 164.93 12.9 160.2 12.9 160.2 L 8.2 160.2 L 8.2 158.1 L 15.2 158.1 C 15.2 158.1 15.21 165.83 15.2 165.8 C 13.7 167.7 11.7 168.8 9.2 168.8 C 4.5 168.8 1.4 164.6 1.4 158.4 Z M 17.8 161.1 C 17.8 156.9 20 153.5 23.7 153.5 C 27.5 153.5 29.4 156.9 29.4 161.2 C 29.43 161.18 29.4 161.8 29.4 161.8 C 29.4 161.8 20.04 161.84 20 161.8 C 20.1 164.7 21.6 166.9 24.2 166.9 C 25.5 166.9 26.8 166.3 27.7 165.2 C 27.7 165.2 28.8 166.4 28.8 166.4 C 27.6 167.9 26 168.7 24 168.7 C 20.2 168.7 17.8 165.6 17.8 161.1 Z M 23.7 155.3 C 21.1 155.3 20.1 158.1 20 160.2 C 20 160.2 27.3 160.2 27.3 160.2 C 27.3 158 26.3 155.3 23.7 155.3 Z M 31.6 161.1 C 31.6 157 33.6 153.5 37.4 153.5 C 41.3 153.5 43.3 157 43.3 161.1 C 43.3 165.2 41.3 168.7 37.4 168.7 C 33.6 168.7 31.6 165.2 31.6 161.1 Z M 41.1 161.1 C 41.1 158.2 40 155.4 37.4 155.4 C 34.9 155.4 33.8 158.2 33.8 161.1 C 33.8 164.1 34.9 166.8 37.4 166.8 C 40 166.8 41.1 164.1 41.1 161.1 Z M 45.1 166.7 C 45.1 166.7 46.2 165.2 46.2 165.2 C 47 166.2 48.4 167 50 167 C 51.7 167 52.8 166 52.8 164.7 C 52.8 161.3 45.5 162.4 45.5 157.4 C 45.5 155.3 47.3 153.5 50.2 153.5 C 52.1 153.5 53.5 154.3 54.6 155.4 C 54.6 155.4 53.5 156.9 53.5 156.9 C 52.8 155.9 51.6 155.3 50.2 155.3 C 48.6 155.3 47.6 156.2 47.6 157.4 C 47.6 160.5 54.8 159.4 54.8 164.6 C 54.8 167 53 168.7 50 168.7 C 48 168.7 46.3 168.1 45.1 166.7 Z M 72.2 168.4 C 72.2 168.4 72.24 157.88 72.2 157.9 C 72.2 156.3 71.6 155.4 70.2 155.4 C 68.9 155.4 67.6 156.6 67.1 157.8 C 67.08 157.76 67.1 168.4 67.1 168.4 L 64.9 168.4 C 64.9 168.4 64.92 157.88 64.9 157.9 C 64.9 156.3 64.3 155.4 62.9 155.4 C 61.6 155.4 60.4 156.6 59.7 157.8 C 59.73 157.76 59.7 168.4 59.7 168.4 L 57.6 168.4 L 57.6 153.9 L 59.7 153.9 C 59.7 153.9 59.73 155.96 59.7 156 C 60.3 154.9 61.9 153.5 63.7 153.5 C 65.5 153.5 66.7 154.6 67 156.1 C 67.7 154.8 69.3 153.5 71 153.5 C 73.2 153.5 74.4 154.7 74.4 157.3 C 74.4 157.31 74.4 168.4 74.4 168.4 L 72.2 168.4 Z M 77.6 150.3 C 77.6 149.5 78.3 148.8 79.1 148.8 C 79.9 148.8 80.6 149.5 80.6 150.3 C 80.6 151.1 79.9 151.8 79.1 151.8 C 78.3 151.8 77.6 151.1 77.6 150.3 Z M 78.1 168.4 L 78.1 153.9 L 80.2 153.9 L 80.2 168.4 L 78.1 168.4 Z M 91.7 168.4 C 91.7 168.4 91.68 158.06 91.7 158.1 C 91.7 156.1 90.8 155.4 89.4 155.4 C 88 155.4 86.6 156.6 86 157.8 C 85.98 157.76 86 168.4 86 168.4 L 83.8 168.4 L 83.8 153.9 L 86 153.9 C 86 153.9 85.98 155.96 86 156 C 86.8 154.7 88.4 153.5 90.2 153.5 C 92.6 153.5 93.8 154.8 93.8 157.5 C 93.84 157.46 93.8 168.4 93.8 168.4 L 91.7 168.4 Z M 102.9 161.1 C 102.9 157 105 153.5 108.8 153.5 C 112.7 153.5 114.7 157 114.7 161.1 C 114.7 165.2 112.7 168.7 108.8 168.7 C 105 168.7 102.9 165.2 102.9 161.1 Z M 112.5 161.1 C 112.5 158.2 111.4 155.4 108.8 155.4 C 106.3 155.4 105.2 158.2 105.2 161.1 C 105.2 164.1 106.3 166.8 108.8 166.8 C 111.4 166.8 112.5 164.1 112.5 161.1 Z M 124.3 168.4 L 121 162.6 L 117.7 168.4 L 115.3 168.4 L 119.7 161 L 115.5 153.9 L 117.9 153.9 L 121 159.4 L 124.1 153.9 L 126.5 153.9 L 122.3 161 L 126.7 168.4 L 124.3 168.4 Z M 128.4 150.3 C 128.4 149.5 129.1 148.8 129.8 148.8 C 130.6 148.8 131.3 149.5 131.3 150.3 C 131.3 151.1 130.6 151.8 129.8 151.8 C 129.1 151.8 128.4 151.1 128.4 150.3 Z M 128.8 168.4 L 128.8 153.9 L 130.9 153.9 L 130.9 168.4 L 128.8 168.4 Z M 142.9 168.4 C 142.9 168.4 142.86 166.31 142.9 166.3 C 142 167.8 140.6 168.7 139 168.7 C 135.8 168.7 133.9 165.7 133.9 161.1 C 133.9 156.6 135.8 153.5 139 153.5 C 140.5 153.5 142 154.4 142.9 156 C 142.86 155.99 142.9 148.4 142.9 148.4 L 145 148.4 L 145 168.4 L 142.9 168.4 Z M 142.9 164.5 C 142.9 164.5 142.9 157.8 142.9 157.8 C 142.3 156.6 141 155.4 139.6 155.4 C 137.2 155.4 136.1 158 136.1 161.1 C 136.1 164.3 137.2 166.8 139.6 166.8 C 141 166.8 142.3 165.7 142.9 164.5 Z M 148 161.1 C 148 156.9 150.2 153.5 153.8 153.5 C 157.6 153.5 159.6 156.9 159.6 161.2 C 159.57 161.18 159.6 161.8 159.6 161.8 C 159.6 161.8 150.18 161.84 150.2 161.8 C 150.3 164.7 151.8 166.9 154.3 166.9 C 155.6 166.9 156.9 166.3 157.8 165.2 C 157.8 165.2 158.9 166.4 158.9 166.4 C 157.8 167.9 156.1 168.7 154.2 168.7 C 150.3 168.7 148 165.6 148 161.1 Z M 153.8 155.3 C 151.3 155.3 150.2 158.1 150.2 160.2 C 150.2 160.2 157.4 160.2 157.4 160.2 C 157.4 158 156.4 155.3 153.8 155.3 Z " stroke="none" fill="#d3d2d2"/>  </g>  <g id="Polygon219797">    <path d="M 2.1 132.4 L 2.1 112.4 C 2.1 112.4 8.73 112.37 8.7 112.4 C 11.9 112.4 13.7 114.4 13.7 117.5 C 13.7 120 12.4 121.6 10.6 122.1 C 12.6 122.4 14 124.6 14 127 C 14 130.2 12.3 132.4 8.9 132.4 C 8.91 132.38 2.1 132.4 2.1 132.4 Z M 11.2 117.8 C 11.2 115.9 10.3 114.5 8.3 114.5 C 8.28 114.47 4.5 114.5 4.5 114.5 L 4.5 121.1 C 4.5 121.1 8.28 121.1 8.3 121.1 C 10.3 121.1 11.2 119.7 11.2 117.8 Z M 11.6 126.7 C 11.6 124.8 10.6 123.2 8.4 123.2 C 8.43 123.2 4.5 123.2 4.5 123.2 L 4.5 130.2 C 4.5 130.2 8.43 130.25 8.4 130.2 C 10.5 130.2 11.6 128.9 11.6 126.7 Z M 17.2 132.4 L 17.2 117.9 L 19.3 117.9 C 19.3 117.9 19.29 120.2 19.3 120.2 C 20.2 118.7 21.6 117.6 23.4 117.6 C 23.4 117.6 23.4 119.8 23.4 119.8 C 23.2 119.7 22.9 119.7 22.7 119.7 C 21.4 119.7 19.9 120.9 19.3 122.1 C 19.29 122.09 19.3 132.4 19.3 132.4 L 17.2 132.4 Z M 24.9 125.1 C 24.9 121 26.9 117.5 30.7 117.5 C 34.6 117.5 36.7 121 36.7 125.1 C 36.7 129.2 34.6 132.7 30.7 132.7 C 26.9 132.7 24.9 129.2 24.9 125.1 Z M 34.4 125.1 C 34.4 122.2 33.3 119.4 30.7 119.4 C 28.3 119.4 27.1 122.2 27.1 125.1 C 27.1 128.1 28.3 130.8 30.7 130.8 C 33.3 130.8 34.4 128.1 34.4 125.1 Z M 54.2 132.4 C 54.2 132.4 54.24 121.88 54.2 121.9 C 54.2 120.3 53.6 119.4 52.2 119.4 C 50.9 119.4 49.6 120.6 49.1 121.8 C 49.08 121.76 49.1 132.4 49.1 132.4 L 46.9 132.4 C 46.9 132.4 46.92 121.88 46.9 121.9 C 46.9 120.3 46.3 119.4 44.9 119.4 C 43.6 119.4 42.4 120.6 41.7 121.8 C 41.73 121.76 41.7 132.4 41.7 132.4 L 39.6 132.4 L 39.6 117.9 L 41.7 117.9 C 41.7 117.9 41.73 119.96 41.7 120 C 42.3 118.9 43.9 117.5 45.7 117.5 C 47.5 117.5 48.7 118.6 49 120.1 C 49.7 118.8 51.3 117.5 53 117.5 C 55.2 117.5 56.4 118.7 56.4 121.3 C 56.4 121.31 56.4 132.4 56.4 132.4 L 54.2 132.4 Z M 59.3 125.1 C 59.3 121 61.4 117.5 65.2 117.5 C 69.1 117.5 71.1 121 71.1 125.1 C 71.1 129.2 69.1 132.7 65.2 132.7 C 61.4 132.7 59.3 129.2 59.3 125.1 Z M 68.9 125.1 C 68.9 122.2 67.8 119.4 65.2 119.4 C 62.7 119.4 61.6 122.2 61.6 125.1 C 61.6 128.1 62.7 130.8 65.2 130.8 C 67.8 130.8 68.9 128.1 68.9 125.1 Z M 76.2 130.3 C 76.2 130.28 76.2 137.9 76.2 137.9 L 74.1 137.9 L 74.1 117.9 L 76.2 117.9 C 76.2 117.9 76.2 119.96 76.2 120 C 77 118.5 78.5 117.5 80 117.5 C 83.3 117.5 85.2 120.6 85.2 125.1 C 85.2 129.6 83.3 132.7 80 132.7 C 78.5 132.7 77.1 131.9 76.2 130.3 Z M 82.9 125.1 C 82.9 122 81.8 119.4 79.5 119.4 C 78.1 119.4 76.8 120.5 76.2 121.8 C 76.2 121.8 76.2 128.4 76.2 128.4 C 76.8 129.7 78.1 130.8 79.5 130.8 C 81.8 130.8 82.9 128.3 82.9 125.1 Z M 96 132.4 C 96 132.4 95.97 122.03 96 122 C 96 120.1 95.1 119.4 93.6 119.4 C 92.2 119.4 90.9 120.6 90.2 121.8 C 90.24 121.76 90.2 132.4 90.2 132.4 L 88.1 132.4 L 88.1 112.4 L 90.2 112.4 C 90.2 112.4 90.24 119.96 90.2 120 C 91.1 118.7 92.7 117.5 94.5 117.5 C 96.9 117.5 98.1 118.8 98.1 121.4 C 98.1 121.4 98.1 132.4 98.1 132.4 L 96 132.4 Z M 101 125.1 C 101 120.9 103.3 117.5 106.9 117.5 C 110.7 117.5 112.6 120.9 112.6 125.2 C 112.65 125.18 112.6 125.8 112.6 125.8 C 112.6 125.8 103.26 125.84 103.3 125.8 C 103.3 128.7 104.8 130.9 107.4 130.9 C 108.7 130.9 110 130.3 110.9 129.2 C 110.9 129.2 112 130.4 112 130.4 C 110.8 131.9 109.2 132.7 107.2 132.7 C 103.4 132.7 101 129.6 101 125.1 Z M 106.9 119.3 C 104.3 119.3 103.3 122.1 103.3 124.2 C 103.3 124.2 110.5 124.2 110.5 124.2 C 110.5 122 109.5 119.3 106.9 119.3 Z M 123.3 132.4 C 123.3 132.4 123.33 122.06 123.3 122.1 C 123.3 120.1 122.5 119.4 121 119.4 C 119.6 119.4 118.3 120.6 117.6 121.8 C 117.63 121.76 117.6 132.4 117.6 132.4 L 115.5 132.4 L 115.5 117.9 L 117.6 117.9 C 117.6 117.9 117.63 119.96 117.6 120 C 118.5 118.7 120.1 117.5 121.8 117.5 C 124.3 117.5 125.5 118.8 125.5 121.5 C 125.49 121.46 125.5 132.4 125.5 132.4 L 123.3 132.4 Z M 128.4 125.1 C 128.4 121 130.5 117.5 134.3 117.5 C 138.2 117.5 140.2 121 140.2 125.1 C 140.2 129.2 138.2 132.7 134.3 132.7 C 130.5 132.7 128.4 129.2 128.4 125.1 Z M 138 125.1 C 138 122.2 136.9 119.4 134.3 119.4 C 131.8 119.4 130.7 122.2 130.7 125.1 C 130.7 128.1 131.8 130.8 134.3 130.8 C 136.9 130.8 138 128.1 138 125.1 Z M 143.2 132.4 L 143.2 112.4 L 145.3 112.4 L 145.3 132.4 L 143.2 132.4 Z " stroke="none" fill="#d3d2d2"/>  </g>  <g id="Polygon219796">    <path d="M 12.5 96.4 L 11.2 91.8 L 4.1 91.8 L 2.8 96.4 L 0.2 96.4 L 6.2 76.4 L 9.1 76.4 L 15.1 96.4 L 12.5 96.4 Z M 7.6 79 L 4.6 89.7 L 10.7 89.7 L 7.6 79 Z M 15.8 94.7 C 15.8 94.7 16.9 93.2 16.9 93.2 C 17.8 94.2 19.1 95 20.7 95 C 22.4 95 23.5 94 23.5 92.7 C 23.5 89.3 16.3 90.4 16.3 85.4 C 16.3 83.3 18 81.5 20.9 81.5 C 22.8 81.5 24.3 82.3 25.3 83.4 C 25.3 83.4 24.3 84.9 24.3 84.9 C 23.5 83.9 22.3 83.3 20.9 83.3 C 19.3 83.3 18.3 84.2 18.3 85.4 C 18.3 88.5 25.6 87.4 25.6 92.6 C 25.6 95 23.7 96.7 20.7 96.7 C 18.7 96.7 17 96.1 15.8 94.7 Z M 28.7 93.5 C 28.74 93.47 28.7 83.8 28.7 83.8 L 26.8 83.8 L 26.8 81.9 L 28.7 81.9 L 28.7 77.9 L 30.9 77.9 L 30.9 81.9 L 33.4 81.9 L 33.4 83.8 L 30.9 83.8 C 30.9 83.8 30.9 93.08 30.9 93.1 C 30.9 94.2 31.2 94.8 32.1 94.8 C 32.6 94.8 33.1 94.6 33.3 94.2 C 33.3 94.2 34 95.9 34 95.9 C 33.5 96.4 32.8 96.7 31.6 96.7 C 29.7 96.7 28.7 95.6 28.7 93.5 Z M 43.3 96.4 C 43.3 96.4 43.35 94.82 43.3 94.8 C 42.4 96.1 41 96.7 39.5 96.7 C 37.2 96.7 35.2 94.9 35.2 91.9 C 35.2 88.9 37.2 87.1 39.5 87.1 C 41 87.1 42.4 87.7 43.3 89 C 43.3 89 43.3 86.5 43.3 86.5 C 43.3 84.5 42.3 83.4 40.4 83.4 C 39 83.4 37.9 83.9 36.7 85.2 C 36.7 85.2 35.8 83.6 35.8 83.6 C 37.2 82.2 38.9 81.5 40.7 81.5 C 43.6 81.5 45.5 82.9 45.5 86.2 C 45.51 86.24 45.5 96.4 45.5 96.4 L 43.3 96.4 Z M 43.3 93.3 C 43.3 93.3 43.3 90.6 43.3 90.6 C 42.7 89.4 41.5 88.7 40.2 88.7 C 38.4 88.7 37.3 90.1 37.3 91.9 C 37.3 93.7 38.4 95.2 40.2 95.2 C 41.5 95.2 42.7 94.5 43.3 93.3 Z M 56.6 96.4 L 53.2 90.6 L 49.9 96.4 L 47.5 96.4 L 51.9 89 L 47.8 81.9 L 50.2 81.9 L 53.2 87.4 L 56.3 81.9 L 58.7 81.9 L 54.6 89 L 59 96.4 L 56.6 96.4 Z M 68.5 96.4 C 68.5 96.4 68.46 94.82 68.5 94.8 C 67.5 96.1 66.1 96.7 64.6 96.7 C 62.3 96.7 60.3 94.9 60.3 91.9 C 60.3 88.9 62.3 87.1 64.6 87.1 C 66.1 87.1 67.6 87.7 68.5 89 C 68.5 89 68.5 86.5 68.5 86.5 C 68.5 84.5 67.4 83.4 65.5 83.4 C 64.1 83.4 63 83.9 61.9 85.2 C 61.9 85.2 60.9 83.6 60.9 83.6 C 62.3 82.2 64 81.5 65.8 81.5 C 68.7 81.5 70.6 82.9 70.6 86.2 C 70.62 86.24 70.6 96.4 70.6 96.4 L 68.5 96.4 Z M 68.5 93.3 C 68.5 93.3 68.5 90.6 68.5 90.6 C 67.8 89.4 66.6 88.7 65.3 88.7 C 63.5 88.7 62.5 90.1 62.5 91.9 C 62.5 93.7 63.5 95.2 65.3 95.2 C 66.6 95.2 67.8 94.5 68.5 93.3 Z M 82.1 96.4 C 82.1 96.4 82.08 86.06 82.1 86.1 C 82.1 84.1 81.2 83.4 79.8 83.4 C 78.4 83.4 77 84.6 76.4 85.8 C 76.38 85.76 76.4 96.4 76.4 96.4 L 74.2 96.4 L 74.2 81.9 L 76.4 81.9 C 76.4 81.9 76.38 83.96 76.4 84 C 77.2 82.7 78.8 81.5 80.6 81.5 C 83 81.5 84.2 82.8 84.2 85.5 C 84.24 85.46 84.2 96.4 84.2 96.4 L 82.1 96.4 Z M 88.3 93.5 C 88.32 93.47 88.3 83.8 88.3 83.8 L 86.4 83.8 L 86.4 81.9 L 88.3 81.9 L 88.3 77.9 L 90.5 77.9 L 90.5 81.9 L 92.9 81.9 L 92.9 83.8 L 90.5 83.8 C 90.5 83.8 90.48 93.08 90.5 93.1 C 90.5 94.2 90.8 94.8 91.6 94.8 C 92.2 94.8 92.6 94.6 92.9 94.2 C 92.9 94.2 93.6 95.9 93.6 95.9 C 93.1 96.4 92.3 96.7 91.2 96.7 C 89.2 96.7 88.3 95.6 88.3 93.5 Z M 103.3 96.4 C 103.3 96.4 103.35 86.03 103.3 86 C 103.3 84.1 102.4 83.4 101 83.4 C 99.6 83.4 98.3 84.6 97.6 85.8 C 97.62 85.76 97.6 96.4 97.6 96.4 L 95.5 96.4 L 95.5 76.4 L 97.6 76.4 C 97.6 76.4 97.62 83.96 97.6 84 C 98.5 82.7 100.1 81.5 101.8 81.5 C 104.3 81.5 105.5 82.8 105.5 85.4 C 105.48 85.4 105.5 96.4 105.5 96.4 L 103.3 96.4 Z M 108.7 78.3 C 108.7 77.5 109.4 76.8 110.2 76.8 C 111 76.8 111.7 77.5 111.7 78.3 C 111.7 79.1 111 79.8 110.2 79.8 C 109.4 79.8 108.7 79.1 108.7 78.3 Z M 109.1 96.4 L 109.1 81.9 L 111.3 81.9 L 111.3 96.4 L 109.1 96.4 Z M 122.8 96.4 C 122.8 96.4 122.76 86.06 122.8 86.1 C 122.8 84.1 121.9 83.4 120.4 83.4 C 119 83.4 117.7 84.6 117.1 85.8 C 117.06 85.76 117.1 96.4 117.1 96.4 L 114.9 96.4 L 114.9 81.9 L 117.1 81.9 C 117.1 81.9 117.06 83.96 117.1 84 C 117.9 82.7 119.5 81.5 121.3 81.5 C 123.7 81.5 124.9 82.8 124.9 85.5 C 124.92 85.46 124.9 96.4 124.9 96.4 L 122.8 96.4 Z " stroke="none" fill="#d3d2d2"/>  </g>  <g id="Polygon219795">    <path d="M 12.5 60.4 L 11.2 55.8 L 4.1 55.8 L 2.8 60.4 L 0.2 60.4 L 6.2 40.4 L 9.1 40.4 L 15.1 60.4 L 12.5 60.4 Z M 7.6 43 L 4.6 53.7 L 10.7 53.7 L 7.6 43 Z M 17 60.4 L 17 40.4 L 19.1 40.4 L 19.1 60.4 L 17 60.4 Z M 22.8 60.4 L 22.8 40.4 L 24.9 40.4 L 24.9 60.4 L 22.8 60.4 Z M 28.2 64.1 C 28.4 64.3 28.9 64.3 29.1 64.3 C 30 64.3 30.4 64 30.8 62.9 C 30.84 62.9 31.6 60.7 31.6 60.7 L 26.8 45.9 L 29.1 45.9 L 32.7 57.8 L 36.4 45.9 L 38.7 45.9 C 38.7 45.9 32.88 63.44 32.9 63.4 C 32.2 65.5 31 66.3 29.3 66.3 C 28.8 66.3 28.2 66.2 27.8 66 C 27.8 66 28.2 64.1 28.2 64.1 Z M 40.5 60.4 L 40.5 40.4 L 42.7 40.4 L 42.7 60.4 L 40.5 60.4 Z M 52 42.3 C 52 41.5 52.7 40.8 53.5 40.8 C 54.3 40.8 55 41.5 55 42.3 C 55 43.1 54.3 43.8 53.5 43.8 C 52.7 43.8 52 43.1 52 42.3 Z M 52.5 60.4 L 52.5 45.9 L 54.6 45.9 L 54.6 60.4 L 52.5 60.4 Z M 57.1 58.7 C 57.1 58.7 58.2 57.2 58.2 57.2 C 59 58.2 60.4 59 61.9 59 C 63.6 59 64.7 58 64.7 56.7 C 64.7 53.3 57.5 54.4 57.5 49.4 C 57.5 47.3 59.2 45.5 62.1 45.5 C 64 45.5 65.5 46.3 66.5 47.4 C 66.5 47.4 65.5 48.9 65.5 48.9 C 64.8 47.9 63.6 47.3 62.2 47.3 C 60.6 47.3 59.6 48.2 59.6 49.4 C 59.6 52.5 66.8 51.4 66.8 56.6 C 66.8 59 64.9 60.7 62 60.7 C 59.9 60.7 58.3 60.1 57.1 58.7 Z M 68.8 53.1 C 68.8 49 70.9 45.5 74.7 45.5 C 78.6 45.5 80.6 49 80.6 53.1 C 80.6 57.2 78.6 60.7 74.7 60.7 C 70.9 60.7 68.8 57.2 68.8 53.1 Z M 78.4 53.1 C 78.4 50.2 77.3 47.4 74.7 47.4 C 72.2 47.4 71.1 50.2 71.1 53.1 C 71.1 56.1 72.2 58.8 74.7 58.8 C 77.3 58.8 78.4 56.1 78.4 53.1 Z M 84 57.5 C 84 57.47 84 47.8 84 47.8 L 82.1 47.8 L 82.1 45.9 L 84 45.9 L 84 41.9 L 86.2 41.9 L 86.2 45.9 L 88.6 45.9 L 88.6 47.8 L 86.2 47.8 C 86.2 47.8 86.16 57.08 86.2 57.1 C 86.2 58.2 86.5 58.8 87.3 58.8 C 87.9 58.8 88.3 58.6 88.6 58.2 C 88.6 58.2 89.2 59.9 89.2 59.9 C 88.7 60.4 88 60.7 86.9 60.7 C 84.9 60.7 84 59.6 84 57.5 Z M 99 60.4 C 99 60.4 99.03 50.03 99 50 C 99 48.1 98.1 47.4 96.7 47.4 C 95.3 47.4 94 48.6 93.3 49.8 C 93.3 49.76 93.3 60.4 93.3 60.4 L 91.2 60.4 L 91.2 40.4 L 93.3 40.4 C 93.3 40.4 93.3 47.96 93.3 48 C 94.1 46.7 95.8 45.5 97.5 45.5 C 100 45.5 101.2 46.8 101.2 49.4 C 101.16 49.4 101.2 60.4 101.2 60.4 L 99 60.4 Z M 104.4 42.3 C 104.4 41.5 105.1 40.8 105.9 40.8 C 106.7 40.8 107.3 41.5 107.3 42.3 C 107.3 43.1 106.7 43.8 105.9 43.8 C 105.1 43.8 104.4 43.1 104.4 42.3 Z M 104.8 60.4 L 104.8 45.9 L 106.9 45.9 L 106.9 60.4 L 104.8 60.4 Z M 109.9 53.1 C 109.9 49 111.9 45.5 115.8 45.5 C 119.7 45.5 121.7 49 121.7 53.1 C 121.7 57.2 119.7 60.7 115.8 60.7 C 111.9 60.7 109.9 57.2 109.9 53.1 Z M 119.4 53.1 C 119.4 50.2 118.3 47.4 115.8 47.4 C 113.3 47.4 112.1 50.2 112.1 53.1 C 112.1 56.1 113.3 58.8 115.8 58.8 C 118.3 58.8 119.4 56.1 119.4 53.1 Z M 123.9 53.1 C 123.9 48.8 126.2 45.5 129.9 45.5 C 131.9 45.5 133.1 46.3 134 47.4 C 134 47.4 132.9 48.9 132.9 48.9 C 132.1 47.9 131.2 47.4 130.1 47.4 C 127.5 47.4 126.1 50 126.1 53.1 C 126.1 56.2 127.5 58.8 130.1 58.8 C 131.2 58.8 132.1 58.4 132.9 57.3 C 132.9 57.3 134 58.8 134 58.8 C 133.1 60 131.9 60.7 129.9 60.7 C 126.2 60.7 123.9 57.4 123.9 53.1 Z M 136.1 64.1 C 136.3 64.3 136.8 64.3 137 64.3 C 137.9 64.3 138.4 64 138.7 62.9 C 138.75 62.9 139.5 60.7 139.5 60.7 L 134.7 45.9 L 137 45.9 L 140.6 57.8 L 144.3 45.9 L 146.6 45.9 C 146.6 45.9 140.79 63.44 140.8 63.4 C 140.1 65.5 138.9 66.3 137.2 66.3 C 136.7 66.3 136.1 66.2 135.7 66 C 135.7 66 136.1 64.1 136.1 64.1 Z M 155.9 60.4 C 155.9 60.4 155.88 58.82 155.9 58.8 C 154.9 60.1 153.5 60.7 152.1 60.7 C 149.7 60.7 147.7 58.9 147.7 55.9 C 147.7 52.9 149.7 51.1 152.1 51.1 C 153.5 51.1 155 51.7 155.9 53 C 155.9 53 155.9 50.5 155.9 50.5 C 155.9 48.5 154.8 47.4 152.9 47.4 C 151.6 47.4 150.4 47.9 149.3 49.2 C 149.3 49.2 148.3 47.6 148.3 47.6 C 149.7 46.2 151.4 45.5 153.2 45.5 C 156.1 45.5 158 46.9 158 50.2 C 158.04 50.24 158 60.4 158 60.4 L 155.9 60.4 Z M 155.9 57.3 C 155.9 57.3 155.9 54.6 155.9 54.6 C 155.2 53.4 154 52.7 152.8 52.7 C 151 52.7 149.9 54.1 149.9 55.9 C 149.9 57.7 151 59.2 152.8 59.2 C 154 59.2 155.2 58.5 155.9 57.3 Z M 169.5 60.4 C 169.5 60.4 169.5 50.06 169.5 50.1 C 169.5 48.1 168.6 47.4 167.2 47.4 C 165.8 47.4 164.5 48.6 163.8 49.8 C 163.8 49.76 163.8 60.4 163.8 60.4 L 161.7 60.4 L 161.7 45.9 L 163.8 45.9 C 163.8 45.9 163.8 47.96 163.8 48 C 164.6 46.7 166.3 45.5 168 45.5 C 170.5 45.5 171.7 46.8 171.7 49.5 C 171.66 49.46 171.7 60.4 171.7 60.4 L 169.5 60.4 Z M 182.8 60.4 C 182.8 60.4 182.75 58.82 182.8 58.8 C 181.8 60.1 180.4 60.7 178.9 60.7 C 176.6 60.7 174.6 58.9 174.6 55.9 C 174.6 52.9 176.6 51.1 178.9 51.1 C 180.4 51.1 181.9 51.7 182.8 53 C 182.8 53 182.8 50.5 182.8 50.5 C 182.8 48.5 181.7 47.4 179.8 47.4 C 178.4 47.4 177.3 47.9 176.2 49.2 C 176.2 49.2 175.2 47.6 175.2 47.6 C 176.6 46.2 178.3 45.5 180.1 45.5 C 183 45.5 184.9 46.9 184.9 50.2 C 184.91 50.24 184.9 60.4 184.9 60.4 L 182.8 60.4 Z M 182.8 57.3 C 182.8 57.3 182.8 54.6 182.8 54.6 C 182.1 53.4 180.9 52.7 179.6 52.7 C 177.8 52.7 176.8 54.1 176.8 55.9 C 176.8 57.7 177.8 59.2 179.6 59.2 C 180.9 59.2 182.1 58.5 182.8 57.3 Z M 189 57.5 C 188.96 57.47 189 47.8 189 47.8 L 187 47.8 L 187 45.9 L 189 45.9 L 189 41.9 L 191.1 41.9 L 191.1 45.9 L 193.6 45.9 L 193.6 47.8 L 191.1 47.8 C 191.1 47.8 191.12 57.08 191.1 57.1 C 191.1 58.2 191.5 58.8 192.3 58.8 C 192.8 58.8 193.3 58.6 193.6 58.2 C 193.6 58.2 194.2 59.9 194.2 59.9 C 193.7 60.4 193 60.7 191.9 60.7 C 189.9 60.7 189 59.6 189 57.5 Z M 195.4 53.1 C 195.4 48.9 197.6 45.5 201.3 45.5 C 205.1 45.5 207 48.9 207 53.2 C 207.02 53.18 207 53.8 207 53.8 C 207 53.8 197.63 53.84 197.6 53.8 C 197.7 56.7 199.2 58.9 201.8 58.9 C 203.1 58.9 204.4 58.3 205.3 57.2 C 205.3 57.2 206.4 58.4 206.4 58.4 C 205.2 59.9 203.6 60.7 201.6 60.7 C 197.8 60.7 195.4 57.6 195.4 53.1 Z M 201.3 47.3 C 198.7 47.3 197.7 50.1 197.6 52.2 C 197.6 52.2 204.9 52.2 204.9 52.2 C 204.9 50 203.9 47.3 201.3 47.3 Z " stroke="none" fill="#d3d2d2"/>  </g>  <g id="Polygon219794">    <path d="M 12.5 24.4 L 11.2 19.8 L 4.1 19.8 L 2.8 24.4 L 0.2 24.4 L 6.2 4.4 L 9.1 4.4 L 15.1 24.4 L 12.5 24.4 Z M 7.6 7 L 4.6 17.7 L 10.7 17.7 L 7.6 7 Z M 17 24.4 L 17 4.4 L 19.1 4.4 L 19.1 24.4 L 17 24.4 Z M 22.1 17.1 C 22.1 12.8 24.4 9.5 28.1 9.5 C 30.1 9.5 31.3 10.3 32.2 11.4 C 32.2 11.4 31 12.9 31 12.9 C 30.3 11.9 29.4 11.4 28.3 11.4 C 25.7 11.4 24.3 14 24.3 17.1 C 24.3 20.2 25.7 22.8 28.3 22.8 C 29.4 22.8 30.3 22.4 31 21.3 C 31 21.3 32.2 22.8 32.2 22.8 C 31.3 24 30.1 24.7 28.1 24.7 C 24.4 24.7 22.1 21.4 22.1 17.1 Z M 42.1 24.4 C 42.1 24.4 42.12 22.82 42.1 22.8 C 41.2 24.1 39.8 24.7 38.3 24.7 C 36 24.7 33.9 22.9 33.9 19.9 C 33.9 16.9 35.9 15.1 38.3 15.1 C 39.8 15.1 41.2 15.7 42.1 17 C 42.1 17 42.1 14.5 42.1 14.5 C 42.1 12.5 41 11.4 39.1 11.4 C 37.8 11.4 36.6 11.9 35.5 13.2 C 35.5 13.2 34.6 11.6 34.6 11.6 C 35.9 10.2 37.6 9.5 39.5 9.5 C 42.4 9.5 44.3 10.9 44.3 14.2 C 44.28 14.24 44.3 24.4 44.3 24.4 L 42.1 24.4 Z M 42.1 21.3 C 42.1 21.3 42.1 18.6 42.1 18.6 C 41.5 17.4 40.3 16.7 39 16.7 C 37.2 16.7 36.1 18.1 36.1 19.9 C 36.1 21.7 37.2 23.2 39 23.2 C 40.3 23.2 41.5 22.5 42.1 21.3 Z M 55.7 24.4 C 55.7 24.4 55.74 14.06 55.7 14.1 C 55.7 12.1 54.9 11.4 53.4 11.4 C 52 11.4 50.7 12.6 50 13.8 C 50.04 13.76 50 24.4 50 24.4 L 47.9 24.4 L 47.9 9.9 L 50 9.9 C 50 9.9 50.04 11.96 50 12 C 50.9 10.7 52.5 9.5 54.2 9.5 C 56.7 9.5 57.9 10.8 57.9 13.5 C 57.9 13.46 57.9 24.4 57.9 24.4 L 55.7 24.4 Z M 61.1 6.3 C 61.1 5.5 61.8 4.8 62.6 4.8 C 63.4 4.8 64.1 5.5 64.1 6.3 C 64.1 7.1 63.4 7.8 62.6 7.8 C 61.8 7.8 61.1 7.1 61.1 6.3 Z M 61.6 24.4 L 61.6 9.9 L 63.7 9.9 L 63.7 24.4 L 61.6 24.4 Z M 70.3 24.4 L 65.5 9.9 L 67.9 9.9 L 71.5 21.8 L 75.1 9.9 L 77.4 9.9 L 72.7 24.4 L 70.3 24.4 Z M 78.6 17.1 C 78.6 13 80.6 9.5 84.4 9.5 C 88.3 9.5 90.4 13 90.4 17.1 C 90.4 21.2 88.3 24.7 84.4 24.7 C 80.6 24.7 78.6 21.2 78.6 17.1 Z M 88.1 17.1 C 88.1 14.2 87 11.4 84.4 11.4 C 82 11.4 80.8 14.2 80.8 17.1 C 80.8 20.1 82 22.8 84.4 22.8 C 87 22.8 88.1 20.1 88.1 17.1 Z M 93.3 24.4 L 93.3 9.9 L 95.4 9.9 C 95.4 9.9 95.43 12.2 95.4 12.2 C 96.4 10.7 97.8 9.6 99.5 9.6 C 99.5 9.6 99.5 11.8 99.5 11.8 C 99.3 11.7 99.1 11.7 98.8 11.7 C 97.5 11.7 96 12.9 95.4 14.1 C 95.43 14.09 95.4 24.4 95.4 24.4 L 93.3 24.4 Z M 109.2 24.4 C 109.2 24.4 109.17 22.82 109.2 22.8 C 108.2 24.1 106.8 24.7 105.4 24.7 C 103 24.7 101 22.9 101 19.9 C 101 16.9 103 15.1 105.4 15.1 C 106.8 15.1 108.3 15.7 109.2 17 C 109.2 17 109.2 14.5 109.2 14.5 C 109.2 12.5 108.1 11.4 106.2 11.4 C 104.8 11.4 103.7 11.9 102.6 13.2 C 102.6 13.2 101.6 11.6 101.6 11.6 C 103 10.2 104.7 9.5 106.5 9.5 C 109.4 9.5 111.3 10.9 111.3 14.2 C 111.33 14.24 111.3 24.4 111.3 24.4 L 109.2 24.4 Z M 109.2 21.3 C 109.2 21.3 109.2 18.6 109.2 18.6 C 108.5 17.4 107.3 16.7 106 16.7 C 104.2 16.7 103.2 18.1 103.2 19.9 C 103.2 21.7 104.2 23.2 106 23.2 C 107.3 23.2 108.5 22.5 109.2 21.3 Z M 113.8 22.7 C 113.8 22.7 114.9 21.2 114.9 21.2 C 115.7 22.2 117.1 23 118.6 23 C 120.3 23 121.4 22 121.4 20.7 C 121.4 17.3 114.2 18.4 114.2 13.4 C 114.2 11.3 115.9 9.5 118.8 9.5 C 120.7 9.5 122.2 10.3 123.2 11.4 C 123.2 11.4 122.2 12.9 122.2 12.9 C 121.5 11.9 120.3 11.3 118.9 11.3 C 117.3 11.3 116.3 12.2 116.3 13.4 C 116.3 16.5 123.5 15.4 123.5 20.6 C 123.5 23 121.6 24.7 118.7 24.7 C 116.6 24.7 115 24.1 113.8 22.7 Z M 125.5 17.1 C 125.5 12.9 127.8 9.5 131.4 9.5 C 135.2 9.5 137.2 12.9 137.2 17.2 C 137.16 17.18 137.2 17.8 137.2 17.8 C 137.2 17.8 127.77 17.84 127.8 17.8 C 127.9 20.7 129.4 22.9 131.9 22.9 C 133.2 22.9 134.5 22.3 135.4 21.2 C 135.4 21.2 136.5 22.4 136.5 22.4 C 135.4 23.9 133.7 24.7 131.8 24.7 C 127.9 24.7 125.5 21.6 125.5 17.1 Z M 131.4 11.3 C 128.8 11.3 127.8 14.1 127.8 16.2 C 127.8 16.2 135 16.2 135 16.2 C 135 14 134 11.3 131.4 11.3 Z M 145.4 17.1 C 145.4 12.9 147.7 9.5 151.3 9.5 C 155.1 9.5 157 12.9 157 17.2 C 157.05 17.18 157 17.8 157 17.8 C 157 17.8 147.66 17.84 147.7 17.8 C 147.7 20.7 149.2 22.9 151.8 22.9 C 153.1 22.9 154.4 22.3 155.3 21.2 C 155.3 21.2 156.4 22.4 156.4 22.4 C 155.2 23.9 153.6 24.7 151.6 24.7 C 147.8 24.7 145.4 21.6 145.4 17.1 Z M 151.3 11.3 C 148.7 11.3 147.7 14.1 147.7 16.2 C 147.7 16.2 154.9 16.2 154.9 16.2 C 154.9 14 153.9 11.3 151.3 11.3 Z M 167.3 24.4 L 164 18.6 L 160.7 24.4 L 158.3 24.4 L 162.7 17 L 158.5 9.9 L 160.9 9.9 L 164 15.4 L 167.1 9.9 L 169.5 9.9 L 165.3 17 L 169.7 24.4 L 167.3 24.4 Z M 172.2 21.5 C 172.2 21.47 172.2 11.8 172.2 11.8 L 170.3 11.8 L 170.3 9.9 L 172.2 9.9 L 172.2 5.9 L 174.4 5.9 L 174.4 9.9 L 176.8 9.9 L 176.8 11.8 L 174.4 11.8 C 174.4 11.8 174.36 21.08 174.4 21.1 C 174.4 22.2 174.7 22.8 175.5 22.8 C 176.1 22.8 176.5 22.6 176.8 22.2 C 176.8 22.2 177.4 23.9 177.4 23.9 C 176.9 24.4 176.2 24.7 175.1 24.7 C 173.1 24.7 172.2 23.6 172.2 21.5 Z M 179.4 24.4 L 179.4 9.9 L 181.5 9.9 C 181.5 9.9 181.49 12.2 181.5 12.2 C 182.4 10.7 183.8 9.6 185.6 9.6 C 185.6 9.6 185.6 11.8 185.6 11.8 C 185.4 11.7 185.1 11.7 184.9 11.7 C 183.6 11.7 182.1 12.9 181.5 14.1 C 181.49 14.09 181.5 24.4 181.5 24.4 L 179.4 24.4 Z M 195.2 24.4 C 195.2 24.4 195.23 22.82 195.2 22.8 C 194.3 24.1 192.9 24.7 191.4 24.7 C 189.1 24.7 187 22.9 187 19.9 C 187 16.9 189.1 15.1 191.4 15.1 C 192.9 15.1 194.3 15.7 195.2 17 C 195.2 17 195.2 14.5 195.2 14.5 C 195.2 12.5 194.2 11.4 192.3 11.4 C 190.9 11.4 189.7 11.9 188.6 13.2 C 188.6 13.2 187.7 11.6 187.7 11.6 C 189.1 10.2 190.8 9.5 192.6 9.5 C 195.5 9.5 197.4 10.9 197.4 14.2 C 197.39 14.24 197.4 24.4 197.4 24.4 L 195.2 24.4 Z M 195.2 21.3 C 195.2 21.3 195.2 18.6 195.2 18.6 C 194.6 17.4 193.4 16.7 192.1 16.7 C 190.3 16.7 189.2 18.1 189.2 19.9 C 189.2 21.7 190.3 23.2 192.1 23.2 C 193.4 23.2 194.6 22.5 195.2 21.3 Z M 200.3 17.1 C 200.3 12.8 202.6 9.5 206.3 9.5 C 208.3 9.5 209.5 10.3 210.4 11.4 C 210.4 11.4 209.3 12.9 209.3 12.9 C 208.5 11.9 207.6 11.4 206.5 11.4 C 203.9 11.4 202.6 14 202.6 17.1 C 202.6 20.2 203.9 22.8 206.5 22.8 C 207.6 22.8 208.5 22.4 209.3 21.3 C 209.3 21.3 210.4 22.8 210.4 22.8 C 209.5 24 208.3 24.7 206.3 24.7 C 202.6 24.7 200.3 21.4 200.3 17.1 Z M 213.3 21.5 C 213.32 21.47 213.3 11.8 213.3 11.8 L 211.4 11.8 L 211.4 9.9 L 213.3 9.9 L 213.3 5.9 L 215.5 5.9 L 215.5 9.9 L 217.9 9.9 L 217.9 11.8 L 215.5 11.8 C 215.5 11.8 215.48 21.08 215.5 21.1 C 215.5 22.2 215.8 22.8 216.7 22.8 C 217.2 22.8 217.6 22.6 217.9 22.2 C 217.9 22.2 218.6 23.9 218.6 23.9 C 218.1 24.4 217.3 24.7 216.2 24.7 C 214.3 24.7 213.3 23.6 213.3 21.5 Z " stroke="none" fill="#d3d2d2"/>  </g></svg>