<?xml version="1.0" standalone="no"?><!DOCTYPE svg PUBLIC "-//W3C//DTD SVG 1.1//EN" "http://www.w3.org/Graphics/SVG/1.1/DTD/svg11.dtd"><svg xmlns="http://www.w3.org/2000/svg" version="1.1" width="191px" height="44.3px" viewBox="0 0 191 44.3">  <desc>2 servings</desc>  <defs/>  <g id="Polygon174484">    <path d="M 37.1 23.7 C 37.1 23.7 37.06 20.46 37.1 20.5 C 44.4 13.3 45.9 11.8 45.9 9.5 C 45.9 7.9 44.7 7 43.2 7 C 41.5 7 40.1 7.8 39 9.2 C 39 9.2 36.6 6.7 36.6 6.7 C 38.2 4.5 40.6 3.4 43.3 3.4 C 47.2 3.4 50 5.7 50 9.4 C 50 12.5 48 15.1 43 20.2 C 43 20.16 50.1 20.2 50.1 20.2 L 50.1 23.7 L 37.1 23.7 Z M 58.2 22 C 58.2 22 59.7 19.5 59.7 19.5 C 60.6 20.4 62.2 21.2 63.7 21.2 C 65.1 21.2 65.8 20.6 65.8 19.7 C 65.8 17.3 58.7 18.6 58.7 13.2 C 58.7 10.9 60.6 8.8 63.9 8.8 C 66 8.8 67.7 9.6 69 10.7 C 69 10.7 67.5 13.1 67.5 13.1 C 66.8 12.3 65.5 11.6 64 11.6 C 62.9 11.6 62.1 12.2 62.1 13 C 62.1 15.2 69.3 14.1 69.3 19.6 C 69.3 22.2 67.2 24.1 63.8 24.1 C 61.4 24.1 59.4 23.3 58.2 22 Z M 70.9 16.4 C 70.9 12.2 73.4 8.8 77.4 8.8 C 81.4 8.8 83.6 12.1 83.6 16.6 C 83.62 16.59 83.6 17.6 83.6 17.6 C 83.6 17.6 74.53 17.61 74.5 17.6 C 74.7 19.6 75.9 21.1 78 21.1 C 79.1 21.1 80.4 20.6 81.2 19.7 C 81.2 19.7 82.8 21.9 82.8 21.9 C 81.6 23.3 79.6 24.1 77.7 24.1 C 73.6 24.1 70.9 21 70.9 16.4 Z M 77.3 11.8 C 75.3 11.8 74.6 13.6 74.5 15.1 C 74.5 15.1 80.1 15.1 80.1 15.1 C 80.1 13.6 79.4 11.8 77.3 11.8 Z M 86 23.7 L 86 9.2 L 89.6 9.2 C 89.6 9.2 89.62 11.19 89.6 11.2 C 90.4 9.9 92 8.8 93.6 8.8 C 93.6 8.8 93.6 12.4 93.6 12.4 C 93.3 12.3 93 12.3 92.7 12.3 C 91.6 12.3 90.2 13 89.6 14 C 89.62 14.04 89.6 23.7 89.6 23.7 L 86 23.7 Z M 98.8 23.7 L 93.9 9.2 L 97.8 9.2 L 100.7 19.4 L 103.6 9.2 L 107.5 9.2 L 102.6 23.7 L 98.8 23.7 Z M 108.7 5.4 C 108.7 4.2 109.7 3.2 110.8 3.2 C 112 3.2 113 4.2 113 5.4 C 113 6.6 112 7.6 110.8 7.6 C 109.7 7.6 108.7 6.6 108.7 5.4 Z M 109 23.7 L 109 9.2 L 112.6 9.2 L 112.6 23.7 L 109 23.7 Z M 124 23.7 C 124 23.7 124 14.16 124 14.2 C 124 12.6 123.3 12 122.1 12 C 120.9 12 120 13 119.5 13.8 C 119.47 13.83 119.5 23.7 119.5 23.7 L 115.9 23.7 L 115.9 9.2 L 119.5 9.2 C 119.5 9.2 119.47 11.1 119.5 11.1 C 120.3 10 121.9 8.8 123.7 8.8 C 126.4 8.8 127.6 10.4 127.6 12.8 C 127.6 12.81 127.6 23.7 127.6 23.7 L 124 23.7 Z M 130.7 27.7 C 130.7 27.7 132.2 25 132.2 25 C 133.2 26 134.4 26.5 135.9 26.5 C 137.5 26.5 139.1 25.7 139.1 23.1 C 139.1 23.1 139.1 21.4 139.1 21.4 C 138.2 22.8 136.9 23.6 135.5 23.6 C 132.3 23.6 130.1 21 130.1 16.2 C 130.1 11.6 132.2 8.8 135.5 8.8 C 136.9 8.8 138.3 9.5 139.1 11 C 139.12 11.04 139.1 9.2 139.1 9.2 L 142.7 9.2 C 142.7 9.2 142.72 22.95 142.7 22.9 C 142.7 28.2 139.3 29.6 136.1 29.6 C 133.9 29.6 132.2 29.1 130.7 27.7 Z M 139.1 18.7 C 139.1 18.7 139.1 13.7 139.1 13.7 C 138.7 12.8 137.6 12 136.6 12 C 134.8 12 133.8 13.7 133.8 16.2 C 133.8 18.7 134.8 20.4 136.6 20.4 C 137.6 20.4 138.7 19.6 139.1 18.7 Z M 144.9 22 C 144.9 22 146.4 19.5 146.4 19.5 C 147.3 20.4 148.9 21.2 150.4 21.2 C 151.8 21.2 152.5 20.6 152.5 19.7 C 152.5 17.3 145.4 18.6 145.4 13.2 C 145.4 10.9 147.3 8.8 150.6 8.8 C 152.7 8.8 154.4 9.6 155.7 10.7 C 155.7 10.7 154.2 13.1 154.2 13.1 C 153.5 12.3 152.2 11.6 150.7 11.6 C 149.6 11.6 148.8 12.2 148.8 13 C 148.8 15.2 156 14.1 156 19.6 C 156 22.2 153.9 24.1 150.5 24.1 C 148.1 24.1 146.1 23.3 144.9 22 Z " stroke="none" fill="#d3d2d2"/>  </g></svg>