<?xml version="1.0" standalone="no"?><!DOCTYPE svg PUBLIC "-//W3C//DTD SVG 1.1//EN" "http://www.w3.org/Graphics/SVG/1.1/DTD/svg11.dtd"><svg xmlns="http://www.w3.org/2000/svg" version="1.1" width="648px" height="575.3px" viewBox="0 0 648 575.3">  <desc>Soak extruded polystyrene in alcanivorase, phenyl-5-amectin, and 500 ml water for 6 hours Cut the softened extruded</desc>  <defs/>  <g id="Polygon169171">    <path d="M 307.5 343.9 C 305.7 343.9 304.3 342.5 304.3 340.8 C 304.3 339 305.7 337.6 307.5 337.6 C 309.2 337.6 310.7 339 310.7 340.8 C 310.7 342.5 309.2 343.9 307.5 343.9 Z M 324.7 343.9 C 322.9 343.9 321.4 342.5 321.4 340.8 C 321.4 339 322.9 337.6 324.7 337.6 C 326.4 337.6 327.9 339 327.9 340.8 C 327.9 342.5 326.4 343.9 324.7 343.9 Z M 341.8 343.9 C 340.1 343.9 338.6 342.5 338.6 340.8 C 338.6 339 340.1 337.6 341.8 337.6 C 343.6 337.6 345.1 339 345.1 340.8 C 345.1 342.5 343.6 343.9 341.8 343.9 Z " stroke="none" fill="#b13d24"/>  </g>  <g id="Polygon169170">    <path d="M 29.2 274.3 C 29.2 274.3 30.2 272.8 30.2 272.8 C 31.1 273.8 32.5 274.6 34 274.6 C 35.7 274.6 36.8 273.7 36.8 272.3 C 36.8 268.9 29.6 270.1 29.6 265.1 C 29.6 262.9 31.3 261.2 34.2 261.2 C 36.1 261.2 37.6 261.9 38.6 263 C 38.6 263 37.6 264.5 37.6 264.5 C 36.9 263.5 35.6 262.9 34.2 262.9 C 32.6 262.9 31.6 263.8 31.6 265 C 31.6 268.1 38.9 267 38.9 272.2 C 38.9 274.6 37 276.4 34 276.4 C 32 276.4 30.4 275.7 29.2 274.3 Z M 42.1 273.1 C 42.06 273.11 42.1 263.4 42.1 263.4 L 40.1 263.4 L 40.1 261.5 L 42.1 261.5 L 42.1 257.6 L 44.2 257.6 L 44.2 261.5 L 46.7 261.5 L 46.7 263.4 L 44.2 263.4 C 44.2 263.4 44.22 272.72 44.2 272.7 C 44.2 273.8 44.5 274.5 45.4 274.5 C 45.9 274.5 46.4 274.2 46.6 273.9 C 46.6 273.9 47.3 275.5 47.3 275.5 C 46.8 276 46.1 276.4 45 276.4 C 43 276.4 42.1 275.3 42.1 273.1 Z M 49.2 276 L 49.2 261.5 L 51.4 261.5 C 51.4 261.5 51.36 263.84 51.4 263.8 C 52.3 262.3 53.7 261.2 55.5 261.2 C 55.5 261.2 55.5 263.5 55.5 263.5 C 55.2 263.4 55 263.4 54.7 263.4 C 53.4 263.4 52 264.5 51.4 265.7 C 51.36 265.73 51.4 276 51.4 276 L 49.2 276 Z M 57.2 258 C 57.2 257.2 57.9 256.5 58.7 256.5 C 59.5 256.5 60.2 257.2 60.2 258 C 60.2 258.8 59.5 259.4 58.7 259.4 C 57.9 259.4 57.2 258.8 57.2 258 Z M 57.7 276 L 57.7 261.5 L 59.8 261.5 L 59.8 276 L 57.7 276 Z M 65.6 273.9 C 65.57 273.92 65.6 281.5 65.6 281.5 L 63.4 281.5 L 63.4 261.5 L 65.6 261.5 C 65.6 261.5 65.57 263.6 65.6 263.6 C 66.4 262.1 67.9 261.2 69.4 261.2 C 72.7 261.2 74.6 264.2 74.6 268.8 C 74.6 273.3 72.7 276.4 69.4 276.4 C 67.9 276.4 66.5 275.5 65.6 273.9 Z M 72.3 268.8 C 72.3 265.6 71.2 263.1 68.8 263.1 C 67.5 263.1 66.1 264.2 65.6 265.4 C 65.6 265.4 65.6 272.1 65.6 272.1 C 66.1 273.3 67.5 274.5 68.8 274.5 C 71.2 274.5 72.3 271.9 72.3 268.8 Z M 76.3 274.3 C 76.3 274.3 77.4 272.8 77.4 272.8 C 78.2 273.8 79.6 274.6 81.2 274.6 C 82.9 274.6 84 273.7 84 272.3 C 84 268.9 76.7 270.1 76.7 265.1 C 76.7 262.9 78.5 261.2 81.4 261.2 C 83.3 261.2 84.7 261.9 85.8 263 C 85.8 263 84.7 264.5 84.7 264.5 C 84 263.5 82.8 262.9 81.4 262.9 C 79.8 262.9 78.8 263.8 78.8 265 C 78.8 268.1 86 267 86 272.2 C 86 274.6 84.2 276.4 81.2 276.4 C 79.2 276.4 77.5 275.7 76.3 274.3 Z M 94.2 268.8 C 94.2 264.7 96.3 261.2 100.1 261.2 C 104 261.2 106 264.7 106 268.8 C 106 272.8 104 276.4 100.1 276.4 C 96.3 276.4 94.2 272.8 94.2 268.8 Z M 103.8 268.8 C 103.8 265.9 102.7 263.1 100.1 263.1 C 97.6 263.1 96.5 265.9 96.5 268.8 C 96.5 271.7 97.6 274.5 100.1 274.5 C 102.7 274.5 103.8 271.7 103.8 268.8 Z M 109.5 276 L 109.5 263.4 L 107.5 263.4 L 107.5 261.5 L 109.5 261.5 C 109.5 261.5 109.46 259.76 109.5 259.8 C 109.5 257.2 110.8 255.7 113.1 255.7 C 114.1 255.7 115 256 115.7 256.7 C 115.7 256.7 114.8 258.2 114.8 258.2 C 114.4 257.8 114 257.5 113.4 257.5 C 112.2 257.5 111.6 258.4 111.6 259.8 C 111.62 259.76 111.6 261.5 111.6 261.5 L 114.1 261.5 L 114.1 263.4 L 111.6 263.4 L 111.6 276 L 109.5 276 Z M 121.7 268.8 C 121.7 264.6 123.9 261.2 127.6 261.2 C 131.4 261.2 133.3 264.6 133.3 268.8 C 133.31 268.82 133.3 269.5 133.3 269.5 C 133.3 269.5 123.92 269.48 123.9 269.5 C 124 272.4 125.5 274.6 128.1 274.6 C 129.4 274.6 130.6 274 131.5 272.8 C 131.5 272.8 132.7 274.1 132.7 274.1 C 131.5 275.5 129.9 276.4 127.9 276.4 C 124 276.4 121.7 273.2 121.7 268.8 Z M 127.6 263 C 125 263 124 265.8 123.9 267.9 C 123.9 267.9 131.2 267.9 131.2 267.9 C 131.2 265.7 130.2 263 127.6 263 Z M 143.6 276 L 140.3 270.2 L 136.9 276 L 134.5 276 L 139 268.6 L 134.8 261.5 L 137.2 261.5 L 140.3 267.1 L 143.4 261.5 L 145.8 261.5 L 141.6 268.6 L 146 276 L 143.6 276 Z M 148.5 273.1 C 148.46 273.11 148.5 263.4 148.5 263.4 L 146.5 263.4 L 146.5 261.5 L 148.5 261.5 L 148.5 257.6 L 150.6 257.6 L 150.6 261.5 L 153.1 261.5 L 153.1 263.4 L 150.6 263.4 C 150.6 263.4 150.62 272.72 150.6 272.7 C 150.6 273.8 151 274.5 151.8 274.5 C 152.3 274.5 152.8 274.2 153.1 273.9 C 153.1 273.9 153.7 275.5 153.7 275.5 C 153.2 276 152.5 276.4 151.4 276.4 C 149.4 276.4 148.5 275.3 148.5 273.1 Z M 155.6 276 L 155.6 261.5 L 157.8 261.5 C 157.8 261.5 157.76 263.84 157.8 263.8 C 158.7 262.3 160.1 261.2 161.9 261.2 C 161.9 261.2 161.9 263.5 161.9 263.5 C 161.6 263.4 161.4 263.4 161.2 263.4 C 159.8 263.4 158.4 264.5 157.8 265.7 C 157.76 265.73 157.8 276 157.8 276 L 155.6 276 Z M 171.9 276 C 171.9 276 171.89 274.01 171.9 274 C 171 275.3 169.5 276.4 167.7 276.4 C 165.2 276.4 164.1 275.2 164.1 272.5 C 164.06 272.51 164.1 261.5 164.1 261.5 L 166.2 261.5 C 166.2 261.5 166.19 271.88 166.2 271.9 C 166.2 273.8 167.1 274.5 168.5 274.5 C 169.9 274.5 171.3 273.4 171.9 272.2 C 171.89 272.21 171.9 261.5 171.9 261.5 L 174.1 261.5 L 174.1 276 L 171.9 276 Z M 186 276 C 186 276 185.99 273.95 186 274 C 185.2 275.4 183.7 276.4 182.2 276.4 C 178.9 276.4 177 273.4 177 268.8 C 177 264.3 178.9 261.2 182.2 261.2 C 183.7 261.2 185.1 262 186 263.6 C 185.99 263.63 186 256 186 256 L 188.2 256 L 188.2 276 L 186 276 Z M 186 272.1 C 186 272.1 186 265.5 186 265.5 C 185.5 264.2 184.1 263.1 182.7 263.1 C 180.4 263.1 179.2 265.6 179.2 268.8 C 179.2 271.9 180.4 274.5 182.7 274.5 C 184.1 274.5 185.5 273.4 186 272.1 Z M 191.1 268.8 C 191.1 264.6 193.3 261.2 197 261.2 C 200.8 261.2 202.7 264.6 202.7 268.8 C 202.7 268.82 202.7 269.5 202.7 269.5 C 202.7 269.5 193.31 269.48 193.3 269.5 C 193.4 272.4 194.9 274.6 197.5 274.6 C 198.7 274.6 200 274 200.9 272.8 C 200.9 272.8 202.1 274.1 202.1 274.1 C 200.9 275.5 199.3 276.4 197.3 276.4 C 193.4 276.4 191.1 273.2 191.1 268.8 Z M 196.9 263 C 194.4 263 193.4 265.8 193.3 267.9 C 193.3 267.9 200.6 267.9 200.6 267.9 C 200.5 265.7 199.6 263 196.9 263 Z M 213.8 276 C 213.8 276 213.83 273.95 213.8 274 C 213 275.4 211.6 276.4 210 276.4 C 206.8 276.4 204.8 273.4 204.8 268.8 C 204.8 264.3 206.8 261.2 210 261.2 C 211.5 261.2 213 262 213.8 263.6 C 213.83 263.63 213.8 256 213.8 256 L 216 256 L 216 276 L 213.8 276 Z M 213.8 272.1 C 213.8 272.1 213.8 265.5 213.8 265.5 C 213.3 264.2 211.9 263.1 210.6 263.1 C 208.2 263.1 207.1 265.6 207.1 268.8 C 207.1 271.9 208.2 274.5 210.6 274.5 C 211.9 274.5 213.3 273.4 213.8 272.1 Z M 227.9 273.9 C 227.93 273.92 227.9 281.5 227.9 281.5 L 225.8 281.5 L 225.8 261.5 L 227.9 261.5 C 227.9 261.5 227.93 263.6 227.9 263.6 C 228.8 262.1 230.2 261.2 231.7 261.2 C 235 261.2 236.9 264.2 236.9 268.8 C 236.9 273.3 235 276.4 231.7 276.4 C 230.3 276.4 228.8 275.5 227.9 273.9 Z M 234.7 268.8 C 234.7 265.6 233.6 263.1 231.2 263.1 C 229.9 263.1 228.5 264.2 227.9 265.4 C 227.9 265.4 227.9 272.1 227.9 272.1 C 228.5 273.3 229.9 274.5 231.2 274.5 C 233.6 274.5 234.7 271.9 234.7 268.8 Z M 239.1 268.8 C 239.1 264.7 241.2 261.2 245 261.2 C 248.9 261.2 250.9 264.7 250.9 268.8 C 250.9 272.8 248.9 276.4 245 276.4 C 241.2 276.4 239.1 272.8 239.1 268.8 Z M 248.7 268.8 C 248.7 265.9 247.6 263.1 245 263.1 C 242.5 263.1 241.4 265.9 241.4 268.8 C 241.4 271.7 242.5 274.5 245 274.5 C 247.6 274.5 248.7 271.7 248.7 268.8 Z M 253.9 276 L 253.9 256 L 256 256 L 256 276 L 253.9 276 Z M 259.2 279.8 C 259.5 279.9 259.9 280 260.2 280 C 261 280 261.5 279.7 261.9 278.5 C 261.89 278.54 262.7 276.3 262.7 276.3 L 257.8 261.5 L 260.2 261.5 L 263.8 273.4 L 267.4 261.5 L 269.7 261.5 C 269.7 261.5 263.93 279.08 263.9 279.1 C 263.2 281.2 262 281.9 260.3 281.9 C 259.9 281.9 259.2 281.8 258.9 281.7 C 258.9 281.7 259.2 279.8 259.2 279.8 Z M 270.4 274.3 C 270.4 274.3 271.5 272.8 271.5 272.8 C 272.3 273.8 273.7 274.6 275.3 274.6 C 277 274.6 278.1 273.7 278.1 272.3 C 278.1 268.9 270.8 270.1 270.8 265.1 C 270.8 262.9 272.6 261.2 275.5 261.2 C 277.4 261.2 278.8 261.9 279.9 263 C 279.9 263 278.8 264.5 278.8 264.5 C 278.1 263.5 276.9 262.9 275.5 262.9 C 273.9 262.9 272.9 263.8 272.9 265 C 272.9 268.1 280.1 267 280.1 272.2 C 280.1 274.6 278.3 276.4 275.3 276.4 C 273.3 276.4 271.6 275.7 270.4 274.3 Z M 283.3 273.1 C 283.31 273.11 283.3 263.4 283.3 263.4 L 281.4 263.4 L 281.4 261.5 L 283.3 261.5 L 283.3 257.6 L 285.5 257.6 L 285.5 261.5 L 287.9 261.5 L 287.9 263.4 L 285.5 263.4 C 285.5 263.4 285.47 272.72 285.5 272.7 C 285.5 273.8 285.8 274.5 286.6 274.5 C 287.2 274.5 287.6 274.2 287.9 273.9 C 287.9 273.9 288.6 275.5 288.6 275.5 C 288.1 276 287.3 276.4 286.2 276.4 C 284.2 276.4 283.3 275.3 283.3 273.1 Z M 290.1 279.8 C 290.3 279.9 290.8 280 291 280 C 291.9 280 292.3 279.7 292.7 278.5 C 292.73 278.54 293.5 276.3 293.5 276.3 L 288.7 261.5 L 291 261.5 L 294.6 273.4 L 298.2 261.5 L 300.6 261.5 C 300.6 261.5 294.77 279.08 294.8 279.1 C 294 281.2 292.9 281.9 291.2 281.9 C 290.7 281.9 290.1 281.8 289.7 281.7 C 289.7 281.7 290.1 279.8 290.1 279.8 Z M 302.4 276 L 302.4 261.5 L 304.5 261.5 C 304.5 261.5 304.55 263.84 304.5 263.8 C 305.5 262.3 306.9 261.2 308.7 261.2 C 308.7 261.2 308.7 263.5 308.7 263.5 C 308.4 263.4 308.2 263.4 307.9 263.4 C 306.6 263.4 305.1 264.5 304.5 265.7 C 304.55 265.73 304.5 276 304.5 276 L 302.4 276 Z M 310.1 268.8 C 310.1 264.6 312.3 261.2 316 261.2 C 319.8 261.2 321.7 264.6 321.7 268.8 C 321.74 268.82 321.7 269.5 321.7 269.5 C 321.7 269.5 312.35 269.48 312.3 269.5 C 312.4 272.4 313.9 274.6 316.5 274.6 C 317.8 274.6 319.1 274 320 272.8 C 320 272.8 321.1 274.1 321.1 274.1 C 319.9 275.5 318.3 276.4 316.3 276.4 C 312.5 276.4 310.1 273.2 310.1 268.8 Z M 316 263 C 313.4 263 312.4 265.8 312.3 267.9 C 312.3 267.9 319.6 267.9 319.6 267.9 C 319.6 265.7 318.6 263 316 263 Z M 332.4 276 C 332.4 276 332.42 265.7 332.4 265.7 C 332.4 263.8 331.5 263.1 330.1 263.1 C 328.7 263.1 327.4 264.2 326.7 265.4 C 326.72 265.4 326.7 276 326.7 276 L 324.6 276 L 324.6 261.5 L 326.7 261.5 C 326.7 261.5 326.72 263.6 326.7 263.6 C 327.6 262.3 329.2 261.2 330.9 261.2 C 333.4 261.2 334.6 262.5 334.6 265.1 C 334.58 265.1 334.6 276 334.6 276 L 332.4 276 Z M 337.5 268.8 C 337.5 264.6 339.7 261.2 343.4 261.2 C 347.2 261.2 349.1 264.6 349.1 268.8 C 349.13 268.82 349.1 269.5 349.1 269.5 C 349.1 269.5 339.74 269.48 339.7 269.5 C 339.8 272.4 341.3 274.6 343.9 274.6 C 345.2 274.6 346.5 274 347.4 272.8 C 347.4 272.8 348.5 274.1 348.5 274.1 C 347.3 275.5 345.7 276.4 343.7 276.4 C 339.9 276.4 337.5 273.2 337.5 268.8 Z M 343.4 263 C 340.8 263 339.8 265.8 339.7 267.9 C 339.7 267.9 347 267.9 347 267.9 C 347 265.7 346 263 343.4 263 Z M 357.4 268.8 C 357.4 264.6 359.6 261.2 363.3 261.2 C 367.1 261.2 369 264.6 369 268.8 C 369.02 268.82 369 269.5 369 269.5 C 369 269.5 359.63 269.48 359.6 269.5 C 359.7 272.4 361.2 274.6 363.8 274.6 C 365.1 274.6 366.3 274 367.2 272.8 C 367.2 272.8 368.4 274.1 368.4 274.1 C 367.2 275.5 365.6 276.4 363.6 276.4 C 359.7 276.4 357.4 273.2 357.4 268.8 Z M 363.3 263 C 360.7 263 359.7 265.8 359.6 267.9 C 359.6 267.9 366.9 267.9 366.9 267.9 C 366.9 265.7 365.9 263 363.3 263 Z M 374.8 276 L 370.1 261.5 L 372.4 261.5 L 376 273.5 L 379.6 261.5 L 381.9 261.5 L 377.2 276 L 374.8 276 Z M 383.1 268.8 C 383.1 264.6 385.3 261.2 389 261.2 C 392.8 261.2 394.7 264.6 394.7 268.8 C 394.7 268.82 394.7 269.5 394.7 269.5 C 394.7 269.5 385.31 269.48 385.3 269.5 C 385.4 272.4 386.9 274.6 389.5 274.6 C 390.7 274.6 392 274 392.9 272.8 C 392.9 272.8 394.1 274.1 394.1 274.1 C 392.9 275.5 391.2 276.4 389.3 276.4 C 385.4 276.4 383.1 273.2 383.1 268.8 Z M 388.9 263 C 386.4 263 385.4 265.8 385.3 267.9 C 385.3 267.9 392.6 267.9 392.6 267.9 C 392.5 265.7 391.6 263 388.9 263 Z M 405.4 276 C 405.4 276 405.38 265.7 405.4 265.7 C 405.4 263.8 404.5 263.1 403.1 263.1 C 401.7 263.1 400.3 264.2 399.7 265.4 C 399.68 265.4 399.7 276 399.7 276 L 397.5 276 L 397.5 261.5 L 399.7 261.5 C 399.7 261.5 399.68 263.6 399.7 263.6 C 400.5 262.3 402.1 261.2 403.9 261.2 C 406.3 261.2 407.5 262.5 407.5 265.1 C 407.54 265.1 407.5 276 407.5 276 L 405.4 276 Z M 411.2 276 L 411.2 256 L 413.3 256 L 413.3 276 L 411.2 276 Z M 416.6 279.8 C 416.8 279.9 417.3 280 417.5 280 C 418.4 280 418.8 279.7 419.2 278.5 C 419.24 278.54 420 276.3 420 276.3 L 415.2 261.5 L 417.5 261.5 L 421.1 273.4 L 424.8 261.5 L 427.1 261.5 C 427.1 261.5 421.28 279.08 421.3 279.1 C 420.6 281.2 419.4 281.9 417.7 281.9 C 417.2 281.9 416.6 281.8 416.2 281.7 C 416.2 281.7 416.6 279.8 416.6 279.8 Z M 427.3 274.7 C 427.3 273.9 428 273.1 428.9 273.1 C 429.7 273.1 430.5 273.9 430.5 274.7 C 430.5 275.6 429.7 276.3 428.9 276.3 C 428 276.3 427.3 275.6 427.3 274.7 Z M 440.2 276 L 440.2 256 L 450.5 256 L 450.5 258.1 L 442.6 258.1 L 442.6 264.7 L 450.3 264.7 L 450.3 266.8 L 442.6 266.8 L 442.6 273.9 L 450.5 273.9 L 450.5 276 L 440.2 276 Z M 461.5 276 C 461.5 276 461.48 265.7 461.5 265.7 C 461.5 263.8 460.6 263.1 459.2 263.1 C 457.8 263.1 456.4 264.2 455.8 265.4 C 455.78 265.4 455.8 276 455.8 276 L 453.6 276 L 453.6 261.5 L 455.8 261.5 C 455.8 261.5 455.78 263.6 455.8 263.6 C 456.6 262.3 458.2 261.2 460 261.2 C 462.4 261.2 463.6 262.5 463.6 265.1 C 463.64 265.1 463.6 276 463.6 276 L 461.5 276 Z M 466.9 258 C 466.9 257.2 467.6 256.5 468.3 256.5 C 469.2 256.5 469.8 257.2 469.8 258 C 469.8 258.8 469.2 259.4 468.3 259.4 C 467.6 259.4 466.9 258.8 466.9 258 Z M 463.4 280.9 C 463.4 280.9 464.1 279.3 464.1 279.3 C 464.5 279.7 465 280.1 465.6 280.1 C 466.6 280.1 467.3 279.4 467.3 277.8 C 467.3 277.79 467.3 261.5 467.3 261.5 L 469.4 261.5 C 469.4 261.5 469.43 277.79 469.4 277.8 C 469.4 280.6 468.2 281.9 465.8 281.9 C 464.7 281.9 464 281.6 463.4 280.9 Z M 472.4 268.8 C 472.4 264.7 474.4 261.2 478.2 261.2 C 482.1 261.2 484.2 264.7 484.2 268.8 C 484.2 272.8 482.1 276.4 478.2 276.4 C 474.4 276.4 472.4 272.8 472.4 268.8 Z M 481.9 268.8 C 481.9 265.9 480.8 263.1 478.2 263.1 C 475.8 263.1 474.6 265.9 474.6 268.8 C 474.6 271.7 475.8 274.5 478.2 274.5 C 480.8 274.5 481.9 271.7 481.9 268.8 Z M 486.7 279.8 C 486.9 279.9 487.4 280 487.6 280 C 488.5 280 489 279.7 489.3 278.5 C 489.35 278.54 490.1 276.3 490.1 276.3 L 485.3 261.5 L 487.6 261.5 L 491.2 273.4 L 494.9 261.5 L 497.2 261.5 C 497.2 261.5 491.39 279.08 491.4 279.1 C 490.7 281.2 489.5 281.9 487.8 281.9 C 487.3 281.9 486.7 281.8 486.3 281.7 C 486.3 281.7 486.7 279.8 486.7 279.8 Z M 497.4 274.7 C 497.4 273.9 498.1 273.1 499 273.1 C 499.8 273.1 500.6 273.9 500.6 274.7 C 500.6 275.6 499.8 276.3 499 276.3 C 498.1 276.3 497.4 275.6 497.4 274.7 Z " stroke="none" fill="#efd8d3"/>  </g>  <g id="Polygon169169">    <path d="M 0.9 237.1 C 0.9 237.1 2.4 235.6 2.4 235.6 C 3.4 237.1 4.8 238.3 6.7 238.3 C 9.1 238.3 10.3 236.8 10.3 234.4 C 10.3 231.7 8.6 230.8 6.5 230.8 C 5.9 230.8 5.2 230.8 4.9 230.8 C 4.9 230.8 4.9 228.7 4.9 228.7 C 5.2 228.7 6 228.7 6.5 228.7 C 8.5 228.7 10.1 227.6 10.1 225.4 C 10.1 223 8.7 221.8 6.7 221.8 C 4.9 221.8 3.6 222.8 2.6 224.2 C 2.6 224.2 1.1 222.9 1.1 222.9 C 2.3 220.9 4.3 219.7 6.8 219.7 C 10.1 219.7 12.5 221.5 12.5 225 C 12.5 227.5 10.7 229.3 8.9 229.7 C 10.7 229.9 12.8 231.7 12.8 234.6 C 12.8 238 10.6 240.4 6.8 240.4 C 4 240.4 1.9 238.9 0.9 237.1 Z M 15.7 238.7 C 15.7 237.9 16.4 237.1 17.3 237.1 C 18.2 237.1 18.9 237.9 18.9 238.7 C 18.9 239.6 18.2 240.3 17.3 240.3 C 16.4 240.3 15.7 239.6 15.7 238.7 Z M 44.4 240 L 44.4 224.3 L 39.1 240 L 38.1 240 L 32.8 224.3 L 32.8 240 L 30.4 240 L 30.4 220 L 33.8 220 L 38.6 234.2 L 43.5 220 L 46.7 220 L 46.7 240 L 44.4 240 Z M 50.1 222 C 50.1 221.2 50.8 220.5 51.6 220.5 C 52.4 220.5 53 221.2 53 222 C 53 222.8 52.4 223.4 51.6 223.4 C 50.8 223.4 50.1 222.8 50.1 222 Z M 50.5 240 L 50.5 225.5 L 52.6 225.5 L 52.6 240 L 50.5 240 Z M 63.7 240 L 60.4 234.2 L 57.1 240 L 54.7 240 L 59.1 232.6 L 54.9 225.5 L 57.3 225.5 L 60.4 231.1 L 63.5 225.5 L 65.9 225.5 L 61.7 232.6 L 66.1 240 L 63.7 240 Z M 73.6 232.8 C 73.6 228.6 75.8 225.2 79.5 225.2 C 83.3 225.2 85.2 228.6 85.2 232.8 C 85.23 232.82 85.2 233.5 85.2 233.5 C 85.2 233.5 75.84 233.48 75.8 233.5 C 75.9 236.4 77.4 238.6 80 238.6 C 81.3 238.6 82.6 238 83.5 236.8 C 83.5 236.8 84.6 238.1 84.6 238.1 C 83.4 239.5 81.8 240.4 79.8 240.4 C 76 240.4 73.6 237.2 73.6 232.8 Z M 79.5 227 C 76.9 227 75.9 229.8 75.8 231.9 C 75.8 231.9 83.1 231.9 83.1 231.9 C 83.1 229.7 82.1 227 79.5 227 Z M 96.3 236.1 C 96.3 236.1 96.3 229.4 96.3 229.4 C 95.8 228.2 94.4 227.1 93.1 227.1 C 90.7 227.1 89.6 229.6 89.6 232.8 C 89.6 235.9 90.7 238.5 93.1 238.5 C 94.4 238.5 95.8 237.3 96.3 236.1 Z M 87.3 232.8 C 87.3 228.2 89.2 225.2 92.5 225.2 C 94 225.2 95.5 226.1 96.3 227.6 C 96.33 227.6 96.3 225.5 96.3 225.5 L 98.5 225.5 L 98.5 245.5 L 96.3 245.5 C 96.3 245.5 96.33 237.92 96.3 237.9 C 95.4 239.5 94 240.4 92.5 240.4 C 89.2 240.4 87.3 237.3 87.3 232.8 Z M 109.9 240 C 109.9 240 109.95 238.01 109.9 238 C 109.1 239.3 107.5 240.4 105.7 240.4 C 103.3 240.4 102.1 239.2 102.1 236.5 C 102.12 236.51 102.1 225.5 102.1 225.5 L 104.2 225.5 C 104.2 225.5 104.25 235.88 104.2 235.9 C 104.2 237.8 105.1 238.5 106.6 238.5 C 108 238.5 109.3 237.4 109.9 236.2 C 109.95 236.21 109.9 225.5 109.9 225.5 L 112.1 225.5 L 112.1 240 L 109.9 240 Z M 123.2 240 C 123.2 240 123.21 238.46 123.2 238.5 C 122.3 239.8 120.9 240.4 119.4 240.4 C 117.1 240.4 115 238.6 115 235.6 C 115 232.5 117 230.8 119.4 230.8 C 120.9 230.8 122.3 231.4 123.2 232.6 C 123.2 232.6 123.2 230.1 123.2 230.1 C 123.2 228.1 122.1 227 120.2 227 C 118.9 227 117.7 227.5 116.6 228.8 C 116.6 228.8 115.6 227.3 115.6 227.3 C 117 225.8 118.7 225.2 120.6 225.2 C 123.4 225.2 125.4 226.6 125.4 229.9 C 125.37 229.88 125.4 240 125.4 240 L 123.2 240 Z M 123.2 237 C 123.2 237 123.2 234.2 123.2 234.2 C 122.5 233 121.3 232.4 120.1 232.4 C 118.3 232.4 117.2 233.8 117.2 235.6 C 117.2 237.4 118.3 238.8 120.1 238.8 C 121.3 238.8 122.5 238.2 123.2 237 Z M 129 240 L 129 220 L 131.1 220 L 131.1 240 L 129 240 Z M 143.1 237.9 C 143.06 237.92 143.1 245.5 143.1 245.5 L 140.9 245.5 L 140.9 225.5 L 143.1 225.5 C 143.1 225.5 143.06 227.6 143.1 227.6 C 143.9 226.1 145.3 225.2 146.9 225.2 C 150.1 225.2 152.1 228.2 152.1 232.8 C 152.1 237.3 150.1 240.4 146.9 240.4 C 145.4 240.4 144 239.5 143.1 237.9 Z M 149.8 232.8 C 149.8 229.6 148.7 227.1 146.3 227.1 C 145 227.1 143.6 228.2 143.1 229.4 C 143.1 229.4 143.1 236.1 143.1 236.1 C 143.6 237.3 145 238.5 146.3 238.5 C 148.7 238.5 149.8 235.9 149.8 232.8 Z M 162.4 240 C 162.4 240 162.41 238.46 162.4 238.5 C 161.5 239.8 160.1 240.4 158.6 240.4 C 156.3 240.4 154.2 238.6 154.2 235.6 C 154.2 232.5 156.2 230.8 158.6 230.8 C 160.1 230.8 161.5 231.4 162.4 232.6 C 162.4 232.6 162.4 230.1 162.4 230.1 C 162.4 228.1 161.3 227 159.4 227 C 158.1 227 156.9 227.5 155.8 228.8 C 155.8 228.8 154.9 227.3 154.9 227.3 C 156.2 225.8 157.9 225.2 159.8 225.2 C 162.7 225.2 164.6 226.6 164.6 229.9 C 164.57 229.88 164.6 240 164.6 240 L 162.4 240 Z M 162.4 237 C 162.4 237 162.4 234.2 162.4 234.2 C 161.8 233 160.6 232.4 159.3 232.4 C 157.5 232.4 156.4 233.8 156.4 235.6 C 156.4 237.4 157.5 238.8 159.3 238.8 C 160.6 238.8 161.8 238.2 162.4 237 Z M 168.2 240 L 168.2 225.5 L 170.3 225.5 C 170.3 225.5 170.33 227.84 170.3 227.8 C 171.3 226.3 172.7 225.2 174.4 225.2 C 174.4 225.2 174.4 227.5 174.4 227.5 C 174.2 227.4 174 227.4 173.7 227.4 C 172.4 227.4 170.9 228.5 170.3 229.7 C 170.33 229.73 170.3 240 170.3 240 L 168.2 240 Z M 177.1 237.1 C 177.05 237.11 177.1 227.4 177.1 227.4 L 175.1 227.4 L 175.1 225.5 L 177.1 225.5 L 177.1 221.6 L 179.2 221.6 L 179.2 225.5 L 181.7 225.5 L 181.7 227.4 L 179.2 227.4 C 179.2 227.4 179.21 236.72 179.2 236.7 C 179.2 237.8 179.5 238.5 180.4 238.5 C 180.9 238.5 181.4 238.2 181.6 237.9 C 181.6 237.9 182.3 239.5 182.3 239.5 C 181.8 240 181.1 240.4 180 240.4 C 178 240.4 177.1 239.3 177.1 237.1 Z M 183.1 238.3 C 183.1 238.3 184.1 236.8 184.1 236.8 C 185 237.8 186.4 238.6 187.9 238.6 C 189.6 238.6 190.7 237.7 190.7 236.3 C 190.7 232.9 183.5 234.1 183.5 229.1 C 183.5 226.9 185.2 225.2 188.1 225.2 C 190 225.2 191.5 225.9 192.5 227 C 192.5 227 191.5 228.5 191.5 228.5 C 190.8 227.5 189.5 226.9 188.1 226.9 C 186.5 226.9 185.5 227.8 185.5 229 C 185.5 232.1 192.8 231 192.8 236.2 C 192.8 238.6 190.9 240.4 187.9 240.4 C 185.9 240.4 184.3 239.7 183.1 238.3 Z M 201.3 243.8 C 201.5 243.9 202 244 202.2 244 C 203.1 244 203.5 243.7 203.9 242.5 C 203.93 242.54 204.7 240.3 204.7 240.3 L 199.9 225.5 L 202.2 225.5 L 205.8 237.4 L 209.5 225.5 L 211.8 225.5 C 211.8 225.5 205.97 243.08 206 243.1 C 205.3 245.2 204.1 245.9 202.4 245.9 C 201.9 245.9 201.3 245.8 200.9 245.7 C 200.9 245.7 201.3 243.8 201.3 243.8 Z M 212.9 232.8 C 212.9 228.6 215.1 225.2 218.8 225.2 C 222.6 225.2 224.5 228.6 224.5 232.8 C 224.51 232.82 224.5 233.5 224.5 233.5 C 224.5 233.5 215.12 233.48 215.1 233.5 C 215.2 236.4 216.7 238.6 219.3 238.6 C 220.6 238.6 221.8 238 222.7 236.8 C 222.7 236.8 223.9 238.1 223.9 238.1 C 222.7 239.5 221.1 240.4 219.1 240.4 C 215.2 240.4 212.9 237.2 212.9 232.8 Z M 218.8 227 C 216.2 227 215.2 229.8 215.1 231.9 C 215.1 231.9 222.4 231.9 222.4 231.9 C 222.4 229.7 221.4 227 218.8 227 Z M 227.4 240 L 227.4 220 L 229.5 220 L 229.5 240 L 227.4 240 Z M 233.2 240 L 233.2 220 L 235.3 220 L 235.3 240 L 233.2 240 Z M 238.2 232.8 C 238.2 228.7 240.3 225.2 244.1 225.2 C 248 225.2 250 228.7 250 232.8 C 250 236.8 248 240.4 244.1 240.4 C 240.3 240.4 238.2 236.8 238.2 232.8 Z M 247.8 232.8 C 247.8 229.9 246.7 227.1 244.1 227.1 C 241.6 227.1 240.5 229.9 240.5 232.8 C 240.5 235.7 241.6 238.5 244.1 238.5 C 246.7 238.5 247.8 235.7 247.8 232.8 Z M 263.6 240 L 260.5 228.4 L 257.4 240 L 255.2 240 L 251.4 225.5 L 253.6 225.5 L 256.4 237.1 L 259.5 225.5 L 261.5 225.5 L 264.6 237.1 L 267.5 225.5 L 269.7 225.5 L 265.9 240 L 263.6 240 Z M 277.5 237.1 C 277.5 237.1 279.1 235.7 279.1 235.7 C 280.1 237.3 281.4 238.3 283.3 238.3 C 285.5 238.3 286.9 236.2 286.9 233.9 C 286.9 231.1 285.6 229.5 283.5 229.5 C 282.1 229.5 281 230 279.9 231.4 C 279.86 231.35 278.1 230.8 278.1 230.8 L 278.1 220 L 288.3 220 L 288.3 222.1 L 280.5 222.1 C 280.5 222.1 280.46 229.13 280.5 229.1 C 281.2 228.2 282.6 227.4 284.2 227.4 C 287 227.4 289.3 229.7 289.3 233.8 C 289.3 237.6 286.9 240.4 283.4 240.4 C 280.5 240.4 278.8 239.1 277.5 237.1 Z M 306 240 C 306 240 305.96 238.46 306 238.5 C 305 239.8 303.6 240.4 302.2 240.4 C 299.8 240.4 297.8 238.6 297.8 235.6 C 297.8 232.5 299.8 230.8 302.2 230.8 C 303.6 230.8 305.1 231.4 306 232.6 C 306 232.6 306 230.1 306 230.1 C 306 228.1 304.9 227 303 227 C 301.6 227 300.5 227.5 299.4 228.8 C 299.4 228.8 298.4 227.3 298.4 227.3 C 299.8 225.8 301.5 225.2 303.3 225.2 C 306.2 225.2 308.1 226.6 308.1 229.9 C 308.12 229.88 308.1 240 308.1 240 L 306 240 Z M 306 237 C 306 237 306 234.2 306 234.2 C 305.3 233 304.1 232.4 302.8 232.4 C 301 232.4 300 233.8 300 235.6 C 300 237.4 301 238.8 302.8 238.8 C 304.1 238.8 305.3 238.2 306 237 Z M 319.6 240 C 319.6 240 319.58 229.7 319.6 229.7 C 319.6 227.8 318.7 227.1 317.3 227.1 C 315.9 227.1 314.5 228.2 313.9 229.4 C 313.88 229.4 313.9 240 313.9 240 L 311.7 240 L 311.7 225.5 L 313.9 225.5 C 313.9 225.5 313.88 227.6 313.9 227.6 C 314.7 226.3 316.3 225.2 318.1 225.2 C 320.5 225.2 321.7 226.5 321.7 229.1 C 321.74 229.1 321.7 240 321.7 240 L 319.6 240 Z M 333.7 240 C 333.7 240 333.68 237.95 333.7 238 C 332.8 239.4 331.4 240.4 329.9 240.4 C 326.6 240.4 324.7 237.4 324.7 232.8 C 324.7 228.3 326.6 225.2 329.9 225.2 C 331.3 225.2 332.8 226 333.7 227.6 C 333.68 227.63 333.7 220 333.7 220 L 335.8 220 L 335.8 240 L 333.7 240 Z M 333.7 236.1 C 333.7 236.1 333.7 229.5 333.7 229.5 C 333.1 228.2 331.8 227.1 330.4 227.1 C 328 227.1 326.9 229.6 326.9 232.8 C 326.9 235.9 328 238.5 330.4 238.5 C 331.8 238.5 333.1 237.4 333.7 236.1 Z M 345.2 243.8 C 345.5 243.9 345.9 244 346.2 244 C 347 244 347.5 243.7 347.9 242.5 C 347.9 242.54 348.7 240.3 348.7 240.3 L 343.8 225.5 L 346.2 225.5 L 349.8 237.4 L 353.4 225.5 L 355.7 225.5 C 355.7 225.5 349.94 243.08 349.9 243.1 C 349.2 245.2 348 245.9 346.3 245.9 C 345.9 245.9 345.2 245.8 344.9 245.7 C 344.9 245.7 345.2 243.8 345.2 243.8 Z M 356.9 232.8 C 356.9 228.6 359.1 225.2 362.7 225.2 C 366.6 225.2 368.5 228.6 368.5 232.8 C 368.48 232.82 368.5 233.5 368.5 233.5 C 368.5 233.5 359.09 233.48 359.1 233.5 C 359.2 236.4 360.7 238.6 363.3 238.6 C 364.5 238.6 365.8 238 366.7 236.8 C 366.7 236.8 367.8 238.1 367.8 238.1 C 366.7 239.5 365 240.4 363.1 240.4 C 359.2 240.4 356.9 237.2 356.9 232.8 Z M 362.7 227 C 360.2 227 359.1 229.8 359.1 231.9 C 359.1 231.9 366.3 231.9 366.3 231.9 C 366.3 229.7 365.4 227 362.7 227 Z M 371.3 240 L 371.3 220 L 373.5 220 L 373.5 240 L 371.3 240 Z M 377.1 240 L 377.1 220 L 379.2 220 L 379.2 240 L 377.1 240 Z M 382.2 232.8 C 382.2 228.7 384.2 225.2 388.1 225.2 C 392 225.2 394 228.7 394 232.8 C 394 236.8 392 240.4 388.1 240.4 C 384.2 240.4 382.2 236.8 382.2 232.8 Z M 391.7 232.8 C 391.7 229.9 390.6 227.1 388.1 227.1 C 385.6 227.1 384.4 229.9 384.4 232.8 C 384.4 235.7 385.6 238.5 388.1 238.5 C 390.6 238.5 391.7 235.7 391.7 232.8 Z M 407.6 240 L 404.5 228.4 L 401.4 240 L 399.2 240 L 395.3 225.5 L 397.6 225.5 L 400.4 237.1 L 403.5 225.5 L 405.5 225.5 L 408.6 237.1 L 411.4 225.5 L 413.7 225.5 L 409.8 240 L 407.6 240 Z M 421.3 230 C 421.3 224.7 423.3 219.7 428.1 219.7 C 430.2 219.7 431.8 220.7 432.8 222.2 C 432.8 222.2 431.4 223.9 431.4 223.9 C 430.7 222.6 429.8 221.8 428.1 221.8 C 424.9 221.8 423.7 226 423.7 229.8 C 423.7 230.1 423.7 230.2 423.8 230.4 C 424.5 229 426.1 227.5 428.2 227.5 C 431.1 227.5 433.4 229.6 433.4 233.9 C 433.4 237.3 431.4 240.4 427.7 240.4 C 422.9 240.4 421.3 235.4 421.3 230 Z M 431 233.9 C 431 230.8 429.5 229.6 427.6 229.6 C 425.9 229.6 424.5 231 423.8 232.6 C 423.9 234.9 424.7 238.3 427.5 238.3 C 429.9 238.3 431 236 431 233.9 Z M 450 240 C 450 240 449.96 238.46 450 238.5 C 449 239.8 447.6 240.4 446.1 240.4 C 443.8 240.4 441.8 238.6 441.8 235.6 C 441.8 232.5 443.8 230.8 446.1 230.8 C 447.6 230.8 449.1 231.4 450 232.6 C 450 232.6 450 230.1 450 230.1 C 450 228.1 448.9 227 447 227 C 445.6 227 444.5 227.5 443.4 228.8 C 443.4 228.8 442.4 227.3 442.4 227.3 C 443.8 225.8 445.5 225.2 447.3 225.2 C 450.2 225.2 452.1 226.6 452.1 229.9 C 452.12 229.88 452.1 240 452.1 240 L 450 240 Z M 450 237 C 450 237 450 234.2 450 234.2 C 449.3 233 448.1 232.4 446.8 232.4 C 445 232.4 444 233.8 444 235.6 C 444 237.4 445 238.8 446.8 238.8 C 448.1 238.8 449.3 238.2 450 237 Z M 463.6 240 C 463.6 240 463.58 229.7 463.6 229.7 C 463.6 227.8 462.7 227.1 461.3 227.1 C 459.9 227.1 458.5 228.2 457.9 229.4 C 457.88 229.4 457.9 240 457.9 240 L 455.7 240 L 455.7 225.5 L 457.9 225.5 C 457.9 225.5 457.88 227.6 457.9 227.6 C 458.7 226.3 460.3 225.2 462.1 225.2 C 464.5 225.2 465.7 226.5 465.7 229.1 C 465.74 229.1 465.7 240 465.7 240 L 463.6 240 Z M 477.7 240 C 477.7 240 477.68 237.95 477.7 238 C 476.8 239.4 475.4 240.4 473.9 240.4 C 470.6 240.4 468.7 237.4 468.7 232.8 C 468.7 228.3 470.6 225.2 473.9 225.2 C 475.3 225.2 476.8 226 477.7 227.6 C 477.68 227.63 477.7 220 477.7 220 L 479.8 220 L 479.8 240 L 477.7 240 Z M 477.7 236.1 C 477.7 236.1 477.7 229.5 477.7 229.5 C 477.1 228.2 475.8 227.1 474.4 227.1 C 472 227.1 470.9 229.6 470.9 232.8 C 470.9 235.9 472 238.5 474.4 238.5 C 475.8 238.5 477.1 237.4 477.7 236.1 Z M 488.9 232.8 C 488.9 228.5 491.2 225.2 494.9 225.2 C 496.9 225.2 498.2 226 499.1 227.1 C 499.1 227.1 497.9 228.6 497.9 228.6 C 497.1 227.5 496.2 227.1 495.1 227.1 C 492.5 227.1 491.2 229.7 491.2 232.8 C 491.2 235.9 492.5 238.5 495.1 238.5 C 496.2 238.5 497.1 238 497.9 237 C 497.9 237 499.1 238.5 499.1 238.5 C 498.2 239.6 496.9 240.4 494.9 240.4 C 491.2 240.4 488.9 237.1 488.9 232.8 Z M 500.8 232.8 C 500.8 228.7 502.8 225.2 506.7 225.2 C 510.6 225.2 512.6 228.7 512.6 232.8 C 512.6 236.8 510.6 240.4 506.7 240.4 C 502.8 240.4 500.8 236.8 500.8 232.8 Z M 510.3 232.8 C 510.3 229.9 509.2 227.1 506.7 227.1 C 504.2 227.1 503.1 229.9 503.1 232.8 C 503.1 235.7 504.2 238.5 506.7 238.5 C 509.2 238.5 510.3 235.7 510.3 232.8 Z M 515.5 240 L 515.5 220 L 517.7 220 L 517.7 240 L 515.5 240 Z M 520.6 232.8 C 520.6 228.7 522.6 225.2 526.5 225.2 C 530.4 225.2 532.4 228.7 532.4 232.8 C 532.4 236.8 530.4 240.4 526.5 240.4 C 522.6 240.4 520.6 236.8 520.6 232.8 Z M 530.1 232.8 C 530.1 229.9 529 227.1 526.5 227.1 C 524 227.1 522.9 229.9 522.9 232.8 C 522.9 235.7 524 238.5 526.5 238.5 C 529 238.5 530.1 235.7 530.1 232.8 Z M 543.2 240 C 543.2 240 543.16 238.01 543.2 238 C 542.3 239.3 540.8 240.4 539 240.4 C 536.5 240.4 535.3 239.2 535.3 236.5 C 535.33 236.51 535.3 225.5 535.3 225.5 L 537.5 225.5 C 537.5 225.5 537.46 235.88 537.5 235.9 C 537.5 237.8 538.4 238.5 539.8 238.5 C 541.2 238.5 542.5 237.4 543.2 236.2 C 543.16 236.21 543.2 225.5 543.2 225.5 L 545.3 225.5 L 545.3 240 L 543.2 240 Z M 549 240 L 549 225.5 L 551.1 225.5 C 551.1 225.5 551.11 227.84 551.1 227.8 C 552 226.3 553.5 225.2 555.2 225.2 C 555.2 225.2 555.2 227.5 555.2 227.5 C 555 227.4 554.7 227.4 554.5 227.4 C 553.2 227.4 551.7 228.5 551.1 229.7 C 551.11 229.73 551.1 240 551.1 240 L 549 240 Z M 564 237.1 C 563.98 237.11 564 227.4 564 227.4 L 562.1 227.4 L 562.1 225.5 L 564 225.5 L 564 221.6 L 566.1 221.6 L 566.1 225.5 L 568.6 225.5 L 568.6 227.4 L 566.1 227.4 C 566.1 227.4 566.14 236.72 566.1 236.7 C 566.1 237.8 566.5 238.5 567.3 238.5 C 567.9 238.5 568.3 238.2 568.6 237.9 C 568.6 237.9 569.2 239.5 569.2 239.5 C 568.7 240 568 240.4 566.9 240.4 C 564.9 240.4 564 239.3 564 237.1 Z M 579 240 C 579 240 579.01 229.67 579 229.7 C 579 227.8 578.1 227.1 576.7 227.1 C 575.3 227.1 573.9 228.2 573.3 229.4 C 573.28 229.4 573.3 240 573.3 240 L 571.2 240 L 571.2 220 L 573.3 220 C 573.3 220 573.28 227.6 573.3 227.6 C 574.1 226.3 575.8 225.2 577.5 225.2 C 580 225.2 581.1 226.4 581.1 229 C 581.14 229.04 581.1 240 581.1 240 L 579 240 Z M 584.1 232.8 C 584.1 228.6 586.3 225.2 590 225.2 C 593.8 225.2 595.7 228.6 595.7 232.8 C 595.69 232.82 595.7 233.5 595.7 233.5 C 595.7 233.5 586.3 233.48 586.3 233.5 C 586.4 236.4 587.9 238.6 590.5 238.6 C 591.7 238.6 593 238 593.9 236.8 C 593.9 236.8 595.1 238.1 595.1 238.1 C 593.9 239.5 592.2 240.4 590.3 240.4 C 586.4 240.4 584.1 237.2 584.1 232.8 Z M 589.9 227 C 587.4 227 586.4 229.8 586.3 231.9 C 586.3 231.9 593.6 231.9 593.6 231.9 C 593.5 229.7 592.6 227 589.9 227 Z M 604 232.8 C 604 228.5 606.3 225.2 610 225.2 C 612 225.2 613.2 226 614.1 227.1 C 614.1 227.1 612.9 228.6 612.9 228.6 C 612.2 227.5 611.3 227.1 610.2 227.1 C 607.6 227.1 606.2 229.7 606.2 232.8 C 606.2 235.9 607.6 238.5 610.2 238.5 C 611.3 238.5 612.2 238 612.9 237 C 612.9 237 614.1 238.5 614.1 238.5 C 613.2 239.6 612 240.4 610 240.4 C 606.3 240.4 604 237.1 604 232.8 Z M 624.4 240 C 624.4 240 624.4 238.01 624.4 238 C 623.5 239.3 622 240.4 620.2 240.4 C 617.7 240.4 616.6 239.2 616.6 236.5 C 616.57 236.51 616.6 225.5 616.6 225.5 L 618.7 225.5 C 618.7 225.5 618.7 235.88 618.7 235.9 C 618.7 237.8 619.6 238.5 621 238.5 C 622.5 238.5 623.8 237.4 624.4 236.2 C 624.4 236.21 624.4 225.5 624.4 225.5 L 626.6 225.5 L 626.6 240 L 624.4 240 Z M 630.6 237.1 C 630.64 237.11 630.6 227.4 630.6 227.4 L 628.7 227.4 L 628.7 225.5 L 630.6 225.5 L 630.6 221.6 L 632.8 221.6 L 632.8 225.5 L 635.3 225.5 L 635.3 227.4 L 632.8 227.4 C 632.8 227.4 632.8 236.72 632.8 236.7 C 632.8 237.8 633.1 238.5 634 238.5 C 634.5 238.5 635 238.2 635.2 237.9 C 635.2 237.9 635.9 239.5 635.9 239.5 C 635.4 240 634.7 240.4 633.6 240.4 C 631.6 240.4 630.6 239.3 630.6 237.1 Z " stroke="none" fill="#efd8d3"/>  </g>  <g id="Polygon169168">    <path d="M 38.6 168 C 38.6 168 38.61 165.95 38.6 166 C 37.8 167.4 36.3 168.4 34.8 168.4 C 31.6 168.4 29.6 165.4 29.6 160.8 C 29.6 156.3 31.5 153.2 34.8 153.2 C 36.3 153.2 37.7 154 38.6 155.6 C 38.61 155.63 38.6 148 38.6 148 L 40.8 148 L 40.8 168 L 38.6 168 Z M 38.6 164.1 C 38.6 164.1 38.6 157.5 38.6 157.5 C 38.1 156.2 36.7 155.1 35.3 155.1 C 33 155.1 31.9 157.6 31.9 160.8 C 31.9 163.9 33 166.5 35.3 166.5 C 36.7 166.5 38.1 165.4 38.6 164.1 Z M 43.7 160.8 C 43.7 156.6 45.9 153.2 49.6 153.2 C 53.4 153.2 55.3 156.6 55.3 160.8 C 55.32 160.82 55.3 161.5 55.3 161.5 C 55.3 161.5 45.93 161.48 45.9 161.5 C 46 164.4 47.5 166.6 50.1 166.6 C 51.4 166.6 52.6 166 53.5 164.8 C 53.5 164.8 54.7 166.1 54.7 166.1 C 53.5 167.5 51.9 168.4 49.9 168.4 C 46 168.4 43.7 165.2 43.7 160.8 Z M 49.6 155 C 47 155 46 157.8 45.9 159.9 C 45.9 159.9 53.2 159.9 53.2 159.9 C 53.2 157.7 52.2 155 49.6 155 Z M 57 166.3 C 57 166.3 58.1 164.8 58.1 164.8 C 58.9 165.8 60.3 166.6 61.9 166.6 C 63.5 166.6 64.6 165.7 64.6 164.3 C 64.6 160.9 57.4 162.1 57.4 157.1 C 57.4 154.9 59.2 153.2 62 153.2 C 64 153.2 65.4 153.9 66.4 155 C 66.4 155 65.4 156.5 65.4 156.5 C 64.7 155.5 63.5 154.9 62.1 154.9 C 60.5 154.9 59.5 155.8 59.5 157 C 59.5 160.1 66.7 159 66.7 164.2 C 66.7 166.6 64.9 168.4 61.9 168.4 C 59.8 168.4 58.2 167.7 57 166.3 Z M 69.1 150 C 69.1 149.2 69.7 148.5 70.5 148.5 C 71.3 148.5 72 149.2 72 150 C 72 150.8 71.3 151.4 70.5 151.4 C 69.7 151.4 69.1 150.8 69.1 150 Z M 69.5 168 L 69.5 153.5 L 71.6 153.5 L 71.6 168 L 69.5 168 Z M 75.3 168 L 75.3 153.5 L 77.4 153.5 C 77.4 153.5 77.4 155.84 77.4 155.8 C 78.3 154.3 79.7 153.2 81.5 153.2 C 81.5 153.2 81.5 155.5 81.5 155.5 C 81.3 155.4 81 155.4 80.8 155.4 C 79.5 155.4 78 156.5 77.4 157.7 C 77.4 157.73 77.4 168 77.4 168 L 75.3 168 Z M 83 160.8 C 83 156.6 85.2 153.2 88.9 153.2 C 92.7 153.2 94.6 156.6 94.6 160.8 C 94.58 160.82 94.6 161.5 94.6 161.5 C 94.6 161.5 85.19 161.48 85.2 161.5 C 85.3 164.4 86.8 166.6 89.4 166.6 C 90.6 166.6 91.9 166 92.8 164.8 C 92.8 164.8 94 166.1 94 166.1 C 92.8 167.5 91.1 168.4 89.2 168.4 C 85.3 168.4 83 165.2 83 160.8 Z M 88.8 155 C 86.3 155 85.3 157.8 85.2 159.9 C 85.2 159.9 92.5 159.9 92.5 159.9 C 92.4 157.7 91.5 155 88.8 155 Z M 105.7 168 C 105.7 168 105.71 165.95 105.7 166 C 104.9 167.4 103.4 168.4 101.9 168.4 C 98.7 168.4 96.7 165.4 96.7 160.8 C 96.7 156.3 98.6 153.2 101.9 153.2 C 103.4 153.2 104.8 154 105.7 155.6 C 105.71 155.63 105.7 148 105.7 148 L 107.9 148 L 107.9 168 L 105.7 168 Z M 105.7 164.1 C 105.7 164.1 105.7 157.5 105.7 157.5 C 105.2 156.2 103.8 155.1 102.4 155.1 C 100.1 155.1 99 157.6 99 160.8 C 99 163.9 100.1 166.5 102.4 166.5 C 103.8 166.5 105.2 165.4 105.7 164.1 Z M 117.7 168 L 117.7 148 L 119.8 148 L 119.8 168 L 117.7 168 Z M 122.8 160.8 C 122.8 156.6 125 153.2 128.6 153.2 C 132.4 153.2 134.4 156.6 134.4 160.8 C 134.36 160.82 134.4 161.5 134.4 161.5 C 134.4 161.5 124.97 161.48 125 161.5 C 125.1 164.4 126.6 166.6 129.1 166.6 C 130.4 166.6 131.7 166 132.6 164.8 C 132.6 164.8 133.7 166.1 133.7 166.1 C 132.6 167.5 130.9 168.4 129 168.4 C 125.1 168.4 122.8 165.2 122.8 160.8 Z M 128.6 155 C 126.1 155 125 157.8 125 159.9 C 125 159.9 132.2 159.9 132.2 159.9 C 132.2 157.7 131.2 155 128.6 155 Z M 145 168 C 145 168 145.04 157.7 145 157.7 C 145 155.8 144.2 155.1 142.7 155.1 C 141.3 155.1 140 156.2 139.3 157.4 C 139.34 157.4 139.3 168 139.3 168 L 137.2 168 L 137.2 153.5 L 139.3 153.5 C 139.3 153.5 139.34 155.6 139.3 155.6 C 140.2 154.3 141.8 153.2 143.5 153.2 C 146 153.2 147.2 154.5 147.2 157.1 C 147.2 157.1 147.2 168 147.2 168 L 145 168 Z M 150.7 172.1 C 150.7 172.1 151.7 170.4 151.7 170.4 C 152.7 171.5 153.9 172.1 155.5 172.1 C 157.5 172.1 159.1 170.9 159.1 168.1 C 159.1 168.1 159.1 165.7 159.1 165.7 C 158.3 167.2 156.9 168.2 155.3 168.2 C 152.1 168.2 150.1 165.3 150.1 160.7 C 150.1 156.2 152.1 153.2 155.3 153.2 C 156.8 153.2 158.2 154 159.1 155.6 C 159.14 155.63 159.1 153.5 159.1 153.5 L 161.3 153.5 C 161.3 153.5 161.3 167.99 161.3 168 C 161.3 172.5 158.6 173.9 155.6 173.9 C 153.6 173.9 152.1 173.5 150.7 172.1 Z M 159.1 163.9 C 159.1 163.9 159.1 157.5 159.1 157.5 C 158.6 156.2 157.3 155.1 155.9 155.1 C 153.5 155.1 152.4 157.6 152.4 160.7 C 152.4 163.8 153.5 166.3 155.9 166.3 C 157.3 166.3 158.6 165.1 159.1 163.9 Z M 165.4 165.1 C 165.35 165.11 165.4 155.4 165.4 155.4 L 163.4 155.4 L 163.4 153.5 L 165.4 153.5 L 165.4 149.6 L 167.5 149.6 L 167.5 153.5 L 170 153.5 L 170 155.4 L 167.5 155.4 C 167.5 155.4 167.51 164.72 167.5 164.7 C 167.5 165.8 167.8 166.5 168.7 166.5 C 169.2 166.5 169.7 166.2 169.9 165.9 C 169.9 165.9 170.6 167.5 170.6 167.5 C 170.1 168 169.4 168.4 168.3 168.4 C 166.3 168.4 165.4 167.3 165.4 165.1 Z M 180.4 168 C 180.4 168 180.38 157.67 180.4 157.7 C 180.4 155.8 179.5 155.1 178 155.1 C 176.6 155.1 175.3 156.2 174.7 157.4 C 174.65 157.4 174.7 168 174.7 168 L 172.5 168 L 172.5 148 L 174.7 148 C 174.7 148 174.65 155.6 174.7 155.6 C 175.5 154.3 177.1 153.2 178.9 153.2 C 181.3 153.2 182.5 154.4 182.5 157 C 182.51 157.04 182.5 168 182.5 168 L 180.4 168 Z M 199.8 168 C 199.8 168 199.76 166.46 199.8 166.5 C 198.8 167.8 197.4 168.4 196 168.4 C 193.6 168.4 191.6 166.6 191.6 163.6 C 191.6 160.5 193.6 158.8 196 158.8 C 197.4 158.8 198.9 159.4 199.8 160.6 C 199.8 160.6 199.8 158.1 199.8 158.1 C 199.8 156.1 198.7 155 196.8 155 C 195.4 155 194.3 155.5 193.2 156.8 C 193.2 156.8 192.2 155.3 192.2 155.3 C 193.6 153.8 195.3 153.2 197.1 153.2 C 200 153.2 201.9 154.6 201.9 157.9 C 201.92 157.88 201.9 168 201.9 168 L 199.8 168 Z M 199.8 165 C 199.8 165 199.8 162.2 199.8 162.2 C 199.1 161 197.9 160.4 196.6 160.4 C 194.8 160.4 193.8 161.8 193.8 163.6 C 193.8 165.4 194.8 166.8 196.6 166.8 C 197.9 166.8 199.1 166.2 199.8 165 Z M 213.4 168 C 213.4 168 213.38 157.7 213.4 157.7 C 213.4 155.8 212.5 155.1 211.1 155.1 C 209.7 155.1 208.3 156.2 207.7 157.4 C 207.68 157.4 207.7 168 207.7 168 L 205.6 168 L 205.6 153.5 L 207.7 153.5 C 207.7 153.5 207.68 155.6 207.7 155.6 C 208.5 154.3 210.1 153.2 211.9 153.2 C 214.3 153.2 215.5 154.5 215.5 157.1 C 215.54 157.1 215.5 168 215.5 168 L 213.4 168 Z M 227.5 168 C 227.5 168 227.48 165.95 227.5 166 C 226.6 167.4 225.2 168.4 223.7 168.4 C 220.4 168.4 218.5 165.4 218.5 160.8 C 218.5 156.3 220.4 153.2 223.7 153.2 C 225.1 153.2 226.6 154 227.5 155.6 C 227.48 155.63 227.5 148 227.5 148 L 229.6 148 L 229.6 168 L 227.5 168 Z M 227.5 164.1 C 227.5 164.1 227.5 157.5 227.5 157.5 C 226.9 156.2 225.6 155.1 224.2 155.1 C 221.8 155.1 220.7 157.6 220.7 160.8 C 220.7 163.9 221.8 166.5 224.2 166.5 C 225.6 166.5 226.9 165.4 227.5 164.1 Z M 239.9 165.1 C 239.87 165.11 239.9 155.4 239.9 155.4 L 238 155.4 L 238 153.5 L 239.9 153.5 L 239.9 149.6 L 242 149.6 L 242 153.5 L 244.5 153.5 L 244.5 155.4 L 242 155.4 C 242 155.4 242.03 164.72 242 164.7 C 242 165.8 242.4 166.5 243.2 166.5 C 243.7 166.5 244.2 166.2 244.5 165.9 C 244.5 165.9 245.1 167.5 245.1 167.5 C 244.6 168 243.9 168.4 242.8 168.4 C 240.8 168.4 239.9 167.3 239.9 165.1 Z M 254.9 168 C 254.9 168 254.9 157.67 254.9 157.7 C 254.9 155.8 254 155.1 252.6 155.1 C 251.2 155.1 249.8 156.2 249.2 157.4 C 249.17 157.4 249.2 168 249.2 168 L 247 168 L 247 148 L 249.2 148 C 249.2 148 249.17 155.6 249.2 155.6 C 250 154.3 251.7 153.2 253.4 153.2 C 255.9 153.2 257 154.4 257 157 C 257.03 157.04 257 168 257 168 L 254.9 168 Z M 260.3 150 C 260.3 149.2 261 148.5 261.7 148.5 C 262.6 148.5 263.2 149.2 263.2 150 C 263.2 150.8 262.6 151.4 261.7 151.4 C 261 151.4 260.3 150.8 260.3 150 Z M 260.7 168 L 260.7 153.5 L 262.8 153.5 L 262.8 168 L 260.7 168 Z M 265.8 160.8 C 265.8 156.5 268 153.2 271.8 153.2 C 273.8 153.2 275 154 275.9 155.1 C 275.9 155.1 274.7 156.6 274.7 156.6 C 274 155.5 273.1 155.1 271.9 155.1 C 269.4 155.1 268 157.7 268 160.8 C 268 163.9 269.4 166.5 271.9 166.5 C 273.1 166.5 274 166 274.7 165 C 274.7 165 275.9 166.5 275.9 166.5 C 275 167.6 273.8 168.4 271.8 168.4 C 268 168.4 265.8 165.1 265.8 160.8 Z M 286.5 168 L 282.5 161.5 L 280.5 164.1 L 280.5 168 L 278.4 168 L 278.4 148 L 280.5 148 L 280.5 161.4 L 286.5 153.5 L 289.1 153.5 L 284 160 L 289.1 168 L 286.5 168 Z M 299 168 C 299 168 299.03 157.7 299 157.7 C 299 155.8 298.2 155.1 296.7 155.1 C 295.3 155.1 294 156.2 293.3 157.4 C 293.33 157.4 293.3 168 293.3 168 L 291.2 168 L 291.2 153.5 L 293.3 153.5 C 293.3 153.5 293.33 155.6 293.3 155.6 C 294.2 154.3 295.8 153.2 297.5 153.2 C 300 153.2 301.2 154.5 301.2 157.1 C 301.19 157.1 301.2 168 301.2 168 L 299 168 Z M 304.1 160.8 C 304.1 156.6 306.4 153.2 310 153.2 C 313.8 153.2 315.7 156.6 315.7 160.8 C 315.74 160.82 315.7 161.5 315.7 161.5 C 315.7 161.5 306.35 161.48 306.4 161.5 C 306.4 164.4 307.9 166.6 310.5 166.6 C 311.8 166.6 313.1 166 314 164.8 C 314 164.8 315.1 166.1 315.1 166.1 C 313.9 167.5 312.3 168.4 310.3 168.4 C 306.5 168.4 304.1 165.2 304.1 160.8 Z M 310 155 C 307.4 155 306.4 157.8 306.4 159.9 C 306.4 159.9 313.6 159.9 313.6 159.9 C 313.6 157.7 312.6 155 310 155 Z M 317.4 166.3 C 317.4 166.3 318.5 164.8 318.5 164.8 C 319.3 165.8 320.7 166.6 322.3 166.6 C 324 166.6 325.1 165.7 325.1 164.3 C 325.1 160.9 317.8 162.1 317.8 157.1 C 317.8 154.9 319.6 153.2 322.5 153.2 C 324.4 153.2 325.8 153.9 326.9 155 C 326.9 155 325.8 156.5 325.8 156.5 C 325.1 155.5 323.9 154.9 322.5 154.9 C 320.9 154.9 319.9 155.8 319.9 157 C 319.9 160.1 327.1 159 327.1 164.2 C 327.1 166.6 325.3 168.4 322.3 168.4 C 320.3 168.4 318.6 167.7 317.4 166.3 Z M 328.7 166.3 C 328.7 166.3 329.8 164.8 329.8 164.8 C 330.6 165.8 332 166.6 333.6 166.6 C 335.3 166.6 336.4 165.7 336.4 164.3 C 336.4 160.9 329.1 162.1 329.1 157.1 C 329.1 154.9 330.9 153.2 333.8 153.2 C 335.7 153.2 337.2 153.9 338.2 155 C 338.2 155 337.2 156.5 337.2 156.5 C 336.4 155.5 335.2 154.9 333.8 154.9 C 332.2 154.9 331.2 155.8 331.2 157 C 331.2 160.1 338.4 159 338.4 164.2 C 338.4 166.6 336.6 168.4 333.6 168.4 C 331.6 168.4 329.9 167.7 328.7 166.3 Z M 341.1 166.7 C 341.1 165.9 341.8 165.1 342.6 165.1 C 343.5 165.1 344.3 165.9 344.3 166.7 C 344.3 167.6 343.5 168.3 342.6 168.3 C 341.8 168.3 341.1 167.6 341.1 166.7 Z " stroke="none" fill="#efd8d3"/>  </g>  <g id="Polygon169167">    <path d="M 1.6 132 C 1.6 132 1.59 130.07 1.6 130.1 C 8.1 122.5 10.4 120.1 10.4 117.2 C 10.4 115 8.9 113.8 7.2 113.8 C 5.3 113.8 3.9 114.8 2.9 116.4 C 2.9 116.4 1.4 114.9 1.4 114.9 C 2.7 112.9 4.7 111.7 7.2 111.7 C 10.3 111.7 12.8 113.7 12.8 117.2 C 12.8 120.5 10.3 123.5 5 129.9 C 4.98 129.89 12.9 129.9 12.9 129.9 L 12.9 132 L 1.6 132 Z M 16.2 130.7 C 16.2 129.9 16.9 129.1 17.8 129.1 C 18.7 129.1 19.4 129.9 19.4 130.7 C 19.4 131.6 18.7 132.3 17.8 132.3 C 16.9 132.3 16.2 131.6 16.2 130.7 Z M 29.8 122 C 29.8 116 32.8 111.7 37.5 111.7 C 40.6 111.7 42.3 113.5 43.4 115.6 C 43.4 115.6 41.4 116.5 41.4 116.5 C 40.6 114.9 39.3 113.8 37.5 113.8 C 34.3 113.8 32.2 117.3 32.2 122 C 32.2 126.8 34.3 130.3 37.5 130.3 C 39.4 130.3 40.7 129 41.4 127.3 C 41.4 127.3 43.4 128.2 43.4 128.2 C 42.3 130.4 40.6 132.4 37.5 132.4 C 32.8 132.4 29.8 128 29.8 122 Z M 53.8 132 C 53.8 132 53.85 130.01 53.8 130 C 53 131.3 51.4 132.4 49.6 132.4 C 47.2 132.4 46 131.2 46 128.5 C 46.02 128.51 46 117.5 46 117.5 L 48.1 117.5 C 48.1 117.5 48.15 127.88 48.1 127.9 C 48.1 129.8 49 130.5 50.5 130.5 C 51.9 130.5 53.2 129.4 53.8 128.2 C 53.85 128.21 53.8 117.5 53.8 117.5 L 56 117.5 L 56 132 L 53.8 132 Z M 60.1 129.1 C 60.09 129.11 60.1 119.4 60.1 119.4 L 58.2 119.4 L 58.2 117.5 L 60.1 117.5 L 60.1 113.6 L 62.2 113.6 L 62.2 117.5 L 64.7 117.5 L 64.7 119.4 L 62.2 119.4 C 62.2 119.4 62.25 128.72 62.2 128.7 C 62.2 129.8 62.6 130.5 63.4 130.5 C 64 130.5 64.4 130.2 64.7 129.9 C 64.7 129.9 65.3 131.5 65.3 131.5 C 64.8 132 64.1 132.4 63 132.4 C 61 132.4 60.1 131.3 60.1 129.1 Z M 73.8 129.1 C 73.83 129.11 73.8 119.4 73.8 119.4 L 71.9 119.4 L 71.9 117.5 L 73.8 117.5 L 73.8 113.6 L 76 113.6 L 76 117.5 L 78.4 117.5 L 78.4 119.4 L 76 119.4 C 76 119.4 75.99 128.72 76 128.7 C 76 129.8 76.3 130.5 77.2 130.5 C 77.7 130.5 78.1 130.2 78.4 129.9 C 78.4 129.9 79.1 131.5 79.1 131.5 C 78.6 132 77.8 132.4 76.7 132.4 C 74.8 132.4 73.8 131.3 73.8 129.1 Z M 88.9 132 C 88.9 132 88.86 121.67 88.9 121.7 C 88.9 119.8 88 119.1 86.5 119.1 C 85.1 119.1 83.8 120.2 83.1 121.4 C 83.13 121.4 83.1 132 83.1 132 L 81 132 L 81 112 L 83.1 112 C 83.1 112 83.13 119.6 83.1 119.6 C 84 118.3 85.6 117.2 87.4 117.2 C 89.8 117.2 91 118.4 91 121 C 90.99 121.04 91 132 91 132 L 88.9 132 Z M 93.9 124.8 C 93.9 120.6 96.1 117.2 99.8 117.2 C 103.6 117.2 105.5 120.6 105.5 124.8 C 105.53 124.82 105.5 125.5 105.5 125.5 C 105.5 125.5 96.14 125.48 96.1 125.5 C 96.2 128.4 97.7 130.6 100.3 130.6 C 101.6 130.6 102.9 130 103.8 128.8 C 103.8 128.8 104.9 130.1 104.9 130.1 C 103.7 131.5 102.1 132.4 100.1 132.4 C 96.3 132.4 93.9 129.2 93.9 124.8 Z M 99.8 119 C 97.2 119 96.2 121.8 96.1 123.9 C 96.1 123.9 103.4 123.9 103.4 123.9 C 103.4 121.7 102.4 119 99.8 119 Z M 113.4 130.3 C 113.4 130.3 114.4 128.8 114.4 128.8 C 115.3 129.8 116.7 130.6 118.2 130.6 C 119.9 130.6 121 129.7 121 128.3 C 121 124.9 113.8 126.1 113.8 121.1 C 113.8 118.9 115.5 117.2 118.4 117.2 C 120.3 117.2 121.8 117.9 122.8 119 C 122.8 119 121.8 120.5 121.8 120.5 C 121.1 119.5 119.8 118.9 118.4 118.9 C 116.8 118.9 115.9 119.8 115.9 121 C 115.9 124.1 123.1 123 123.1 128.2 C 123.1 130.6 121.2 132.4 118.3 132.4 C 116.2 132.4 114.6 131.7 113.4 130.3 Z M 125.1 124.8 C 125.1 120.7 127.2 117.2 131 117.2 C 134.9 117.2 136.9 120.7 136.9 124.8 C 136.9 128.8 134.9 132.4 131 132.4 C 127.2 132.4 125.1 128.8 125.1 124.8 Z M 134.7 124.8 C 134.7 121.9 133.6 119.1 131 119.1 C 128.5 119.1 127.4 121.9 127.4 124.8 C 127.4 127.7 128.5 130.5 131 130.5 C 133.6 130.5 134.7 127.7 134.7 124.8 Z M 140.4 132 L 140.4 119.4 L 138.4 119.4 L 138.4 117.5 L 140.4 117.5 C 140.4 117.5 140.36 115.76 140.4 115.8 C 140.4 113.2 141.7 111.7 144 111.7 C 145 111.7 145.9 112 146.6 112.7 C 146.6 112.7 145.7 114.2 145.7 114.2 C 145.3 113.8 144.9 113.5 144.3 113.5 C 143.1 113.5 142.5 114.4 142.5 115.8 C 142.52 115.76 142.5 117.5 142.5 117.5 L 145 117.5 L 145 119.4 L 142.5 119.4 L 142.5 132 L 140.4 132 Z M 147.6 129.1 C 147.59 129.11 147.6 119.4 147.6 119.4 L 145.7 119.4 L 145.7 117.5 L 147.6 117.5 L 147.6 113.6 L 149.8 113.6 L 149.8 117.5 L 152.2 117.5 L 152.2 119.4 L 149.8 119.4 C 149.8 119.4 149.75 128.72 149.8 128.7 C 149.8 129.8 150.1 130.5 150.9 130.5 C 151.5 130.5 151.9 130.2 152.2 129.9 C 152.2 129.9 152.8 131.5 152.8 131.5 C 152.3 132 151.6 132.4 150.5 132.4 C 148.5 132.4 147.6 131.3 147.6 129.1 Z M 154 124.8 C 154 120.6 156.3 117.2 159.9 117.2 C 163.7 117.2 165.7 120.6 165.7 124.8 C 165.65 124.82 165.7 125.5 165.7 125.5 C 165.7 125.5 156.26 125.48 156.3 125.5 C 156.4 128.4 157.9 130.6 160.4 130.6 C 161.7 130.6 163 130 163.9 128.8 C 163.9 128.8 165 130.1 165 130.1 C 163.9 131.5 162.2 132.4 160.3 132.4 C 156.4 132.4 154 129.2 154 124.8 Z M 159.9 119 C 157.3 119 156.3 121.8 156.3 123.9 C 156.3 123.9 163.5 123.9 163.5 123.9 C 163.5 121.7 162.5 119 159.9 119 Z M 176.3 132 C 176.3 132 176.33 121.7 176.3 121.7 C 176.3 119.8 175.5 119.1 174 119.1 C 172.6 119.1 171.3 120.2 170.6 121.4 C 170.63 121.4 170.6 132 170.6 132 L 168.5 132 L 168.5 117.5 L 170.6 117.5 C 170.6 117.5 170.63 119.6 170.6 119.6 C 171.5 118.3 173.1 117.2 174.8 117.2 C 177.3 117.2 178.5 118.5 178.5 121.1 C 178.49 121.1 178.5 132 178.5 132 L 176.3 132 Z M 181.4 124.8 C 181.4 120.6 183.7 117.2 187.3 117.2 C 191.1 117.2 193 120.6 193 124.8 C 193.04 124.82 193 125.5 193 125.5 C 193 125.5 183.65 125.48 183.7 125.5 C 183.7 128.4 185.2 130.6 187.8 130.6 C 189.1 130.6 190.4 130 191.3 128.8 C 191.3 128.8 192.4 130.1 192.4 130.1 C 191.2 131.5 189.6 132.4 187.6 132.4 C 183.8 132.4 181.4 129.2 181.4 124.8 Z M 187.3 119 C 184.7 119 183.7 121.8 183.7 123.9 C 183.7 123.9 190.9 123.9 190.9 123.9 C 190.9 121.7 189.9 119 187.3 119 Z M 204.2 132 C 204.2 132 204.17 129.95 204.2 130 C 203.3 131.4 201.9 132.4 200.4 132.4 C 197.1 132.4 195.2 129.4 195.2 124.8 C 195.2 120.3 197.1 117.2 200.4 117.2 C 201.8 117.2 203.3 118 204.2 119.6 C 204.17 119.63 204.2 112 204.2 112 L 206.3 112 L 206.3 132 L 204.2 132 Z M 204.2 128.1 C 204.2 128.1 204.2 121.5 204.2 121.5 C 203.6 120.2 202.3 119.1 200.9 119.1 C 198.5 119.1 197.4 121.6 197.4 124.8 C 197.4 127.9 198.5 130.5 200.9 130.5 C 202.3 130.5 203.6 129.4 204.2 128.1 Z M 215.4 124.8 C 215.4 120.6 217.6 117.2 221.3 117.2 C 225.1 117.2 227 120.6 227 124.8 C 227.03 124.82 227 125.5 227 125.5 C 227 125.5 217.64 125.48 217.6 125.5 C 217.7 128.4 219.2 130.6 221.8 130.6 C 223.1 130.6 224.4 130 225.3 128.8 C 225.3 128.8 226.4 130.1 226.4 130.1 C 225.2 131.5 223.6 132.4 221.6 132.4 C 217.8 132.4 215.4 129.2 215.4 124.8 Z M 221.3 119 C 218.7 119 217.7 121.8 217.6 123.9 C 217.6 123.9 224.9 123.9 224.9 123.9 C 224.9 121.7 223.9 119 221.3 119 Z M 237.3 132 L 234 126.2 L 230.7 132 L 228.3 132 L 232.7 124.6 L 228.5 117.5 L 230.9 117.5 L 234 123.1 L 237.1 117.5 L 239.5 117.5 L 235.3 124.6 L 239.7 132 L 237.3 132 Z M 242.2 129.1 C 242.18 129.11 242.2 119.4 242.2 119.4 L 240.3 119.4 L 240.3 117.5 L 242.2 117.5 L 242.2 113.6 L 244.3 113.6 L 244.3 117.5 L 246.8 117.5 L 246.8 119.4 L 244.3 119.4 C 244.3 119.4 244.34 128.72 244.3 128.7 C 244.3 129.8 244.7 130.5 245.5 130.5 C 246.1 130.5 246.5 130.2 246.8 129.9 C 246.8 129.9 247.4 131.5 247.4 131.5 C 246.9 132 246.2 132.4 245.1 132.4 C 243.1 132.4 242.2 131.3 242.2 129.1 Z M 249.4 132 L 249.4 117.5 L 251.5 117.5 C 251.5 117.5 251.48 119.84 251.5 119.8 C 252.4 118.3 253.8 117.2 255.6 117.2 C 255.6 117.2 255.6 119.5 255.6 119.5 C 255.4 119.4 255.1 119.4 254.9 119.4 C 253.6 119.4 252.1 120.5 251.5 121.7 C 251.48 121.73 251.5 132 251.5 132 L 249.4 132 Z M 265.6 132 C 265.6 132 265.61 130.01 265.6 130 C 264.7 131.3 263.2 132.4 261.4 132.4 C 259 132.4 257.8 131.2 257.8 128.5 C 257.78 128.51 257.8 117.5 257.8 117.5 L 259.9 117.5 C 259.9 117.5 259.91 127.88 259.9 127.9 C 259.9 129.8 260.8 130.5 262.2 130.5 C 263.7 130.5 265 129.4 265.6 128.2 C 265.61 128.21 265.6 117.5 265.6 117.5 L 267.8 117.5 L 267.8 132 L 265.6 132 Z M 279.7 132 C 279.7 132 279.71 129.95 279.7 130 C 278.9 131.4 277.4 132.4 275.9 132.4 C 272.7 132.4 270.7 129.4 270.7 124.8 C 270.7 120.3 272.6 117.2 275.9 117.2 C 277.4 117.2 278.8 118 279.7 119.6 C 279.71 119.63 279.7 112 279.7 112 L 281.9 112 L 281.9 132 L 279.7 132 Z M 279.7 128.1 C 279.7 128.1 279.7 121.5 279.7 121.5 C 279.2 120.2 277.8 119.1 276.4 119.1 C 274.1 119.1 273 121.6 273 124.8 C 273 127.9 274.1 130.5 276.4 130.5 C 277.8 130.5 279.2 129.4 279.7 128.1 Z M 284.8 124.8 C 284.8 120.6 287 117.2 290.7 117.2 C 294.5 117.2 296.4 120.6 296.4 124.8 C 296.42 124.82 296.4 125.5 296.4 125.5 C 296.4 125.5 287.03 125.48 287 125.5 C 287.1 128.4 288.6 130.6 291.2 130.6 C 292.5 130.6 293.8 130 294.7 128.8 C 294.7 128.8 295.8 130.1 295.8 130.1 C 294.6 131.5 293 132.4 291 132.4 C 287.2 132.4 284.8 129.2 284.8 124.8 Z M 290.7 119 C 288.1 119 287.1 121.8 287 123.9 C 287 123.9 294.3 123.9 294.3 123.9 C 294.3 121.7 293.3 119 290.7 119 Z M 307.6 132 C 307.6 132 307.55 129.95 307.6 130 C 306.7 131.4 305.3 132.4 303.7 132.4 C 300.5 132.4 298.6 129.4 298.6 124.8 C 298.6 120.3 300.5 117.2 303.7 117.2 C 305.2 117.2 306.7 118 307.6 119.6 C 307.55 119.63 307.6 112 307.6 112 L 309.7 112 L 309.7 132 L 307.6 132 Z M 307.6 128.1 C 307.6 128.1 307.6 121.5 307.6 121.5 C 307 120.2 305.7 119.1 304.3 119.1 C 301.9 119.1 300.8 121.6 300.8 124.8 C 300.8 127.9 301.9 130.5 304.3 130.5 C 305.7 130.5 307 129.4 307.6 128.1 Z M 321.6 129.9 C 321.65 129.92 321.6 137.5 321.6 137.5 L 319.5 137.5 L 319.5 117.5 L 321.6 117.5 C 321.6 117.5 321.65 119.6 321.6 119.6 C 322.5 118.1 323.9 117.2 325.5 117.2 C 328.7 117.2 330.6 120.2 330.6 124.8 C 330.6 129.3 328.7 132.4 325.5 132.4 C 324 132.4 322.5 131.5 321.6 129.9 Z M 328.4 124.8 C 328.4 121.6 327.3 119.1 324.9 119.1 C 323.6 119.1 322.2 120.2 321.6 121.4 C 321.6 121.4 321.6 128.1 321.6 128.1 C 322.2 129.3 323.6 130.5 324.9 130.5 C 327.3 130.5 328.4 127.9 328.4 124.8 Z M 332.8 124.8 C 332.8 120.7 334.9 117.2 338.7 117.2 C 342.6 117.2 344.6 120.7 344.6 124.8 C 344.6 128.8 342.6 132.4 338.7 132.4 C 334.9 132.4 332.8 128.8 332.8 124.8 Z M 342.4 124.8 C 342.4 121.9 341.3 119.1 338.7 119.1 C 336.2 119.1 335.1 121.9 335.1 124.8 C 335.1 127.7 336.2 130.5 338.7 130.5 C 341.3 130.5 342.4 127.7 342.4 124.8 Z M 347.6 132 L 347.6 112 L 349.7 112 L 349.7 132 L 347.6 132 Z M 352.9 135.8 C 353.2 135.9 353.7 136 353.9 136 C 354.7 136 355.2 135.7 355.6 134.5 C 355.61 134.54 356.4 132.3 356.4 132.3 L 351.6 117.5 L 353.9 117.5 L 357.5 129.4 L 361.1 117.5 L 363.4 117.5 C 363.4 117.5 357.65 135.08 357.6 135.1 C 356.9 137.2 355.8 137.9 354 137.9 C 353.6 137.9 352.9 137.8 352.6 137.7 C 352.6 137.7 352.9 135.8 352.9 135.8 Z M 364.1 130.3 C 364.1 130.3 365.2 128.8 365.2 128.8 C 366 129.8 367.4 130.6 369 130.6 C 370.7 130.6 371.8 129.7 371.8 128.3 C 371.8 124.9 364.5 126.1 364.5 121.1 C 364.5 118.9 366.3 117.2 369.2 117.2 C 371.1 117.2 372.6 117.9 373.6 119 C 373.6 119 372.6 120.5 372.6 120.5 C 371.8 119.5 370.6 118.9 369.2 118.9 C 367.6 118.9 366.6 119.8 366.6 121 C 366.6 124.1 373.8 123 373.8 128.2 C 373.8 130.6 372 132.4 369 132.4 C 367 132.4 365.3 131.7 364.1 130.3 Z M 377 129.1 C 377.03 129.11 377 119.4 377 119.4 L 375.1 119.4 L 375.1 117.5 L 377 117.5 L 377 113.6 L 379.2 113.6 L 379.2 117.5 L 381.6 117.5 L 381.6 119.4 L 379.2 119.4 C 379.2 119.4 379.19 128.72 379.2 128.7 C 379.2 129.8 379.5 130.5 380.4 130.5 C 380.9 130.5 381.3 130.2 381.6 129.9 C 381.6 129.9 382.3 131.5 382.3 131.5 C 381.8 132 381 132.4 379.9 132.4 C 378 132.4 377 131.3 377 129.1 Z M 383.8 135.8 C 384 135.9 384.5 136 384.7 136 C 385.6 136 386.1 135.7 386.4 134.5 C 386.45 134.54 387.2 132.3 387.2 132.3 L 382.4 117.5 L 384.7 117.5 L 388.3 129.4 L 392 117.5 L 394.3 117.5 C 394.3 117.5 388.49 135.08 388.5 135.1 C 387.8 137.2 386.6 137.9 384.9 137.9 C 384.4 137.9 383.8 137.8 383.4 137.7 C 383.4 137.7 383.8 135.8 383.8 135.8 Z M 396.1 132 L 396.1 117.5 L 398.3 117.5 C 398.3 117.5 398.27 119.84 398.3 119.8 C 399.2 118.3 400.6 117.2 402.4 117.2 C 402.4 117.2 402.4 119.5 402.4 119.5 C 402.1 119.4 401.9 119.4 401.7 119.4 C 400.3 119.4 398.9 120.5 398.3 121.7 C 398.27 121.73 398.3 132 398.3 132 L 396.1 132 Z M 403.8 124.8 C 403.8 120.6 406.1 117.2 409.7 117.2 C 413.5 117.2 415.5 120.6 415.5 124.8 C 415.46 124.82 415.5 125.5 415.5 125.5 C 415.5 125.5 406.07 125.48 406.1 125.5 C 406.2 128.4 407.7 130.6 410.2 130.6 C 411.5 130.6 412.8 130 413.7 128.8 C 413.7 128.8 414.8 130.1 414.8 130.1 C 413.7 131.5 412 132.4 410.1 132.4 C 406.2 132.4 403.8 129.2 403.8 124.8 Z M 409.7 119 C 407.1 119 406.1 121.8 406.1 123.9 C 406.1 123.9 413.3 123.9 413.3 123.9 C 413.3 121.7 412.3 119 409.7 119 Z M 426.1 132 C 426.1 132 426.14 121.7 426.1 121.7 C 426.1 119.8 425.3 119.1 423.8 119.1 C 422.4 119.1 421.1 120.2 420.4 121.4 C 420.44 121.4 420.4 132 420.4 132 L 418.3 132 L 418.3 117.5 L 420.4 117.5 C 420.4 117.5 420.44 119.6 420.4 119.6 C 421.3 118.3 422.9 117.2 424.6 117.2 C 427.1 117.2 428.3 118.5 428.3 121.1 C 428.3 121.1 428.3 132 428.3 132 L 426.1 132 Z M 431.2 124.8 C 431.2 120.6 433.5 117.2 437.1 117.2 C 440.9 117.2 442.8 120.6 442.8 124.8 C 442.85 124.82 442.8 125.5 442.8 125.5 C 442.8 125.5 433.46 125.48 433.5 125.5 C 433.5 128.4 435 130.6 437.6 130.6 C 438.9 130.6 440.2 130 441.1 128.8 C 441.1 128.8 442.2 130.1 442.2 130.1 C 441 131.5 439.4 132.4 437.4 132.4 C 433.6 132.4 431.2 129.2 431.2 124.8 Z M 437.1 119 C 434.5 119 433.5 121.8 433.5 123.9 C 433.5 123.9 440.7 123.9 440.7 123.9 C 440.7 121.7 439.7 119 437.1 119 Z M 451.4 114 C 451.4 113.2 452.1 112.5 452.9 112.5 C 453.7 112.5 454.4 113.2 454.4 114 C 454.4 114.8 453.7 115.4 452.9 115.4 C 452.1 115.4 451.4 114.8 451.4 114 Z M 451.8 132 L 451.8 117.5 L 454 117.5 L 454 132 L 451.8 132 Z M 465.5 132 C 465.5 132 465.47 121.7 465.5 121.7 C 465.5 119.8 464.6 119.1 463.2 119.1 C 461.7 119.1 460.4 120.2 459.8 121.4 C 459.77 121.4 459.8 132 459.8 132 L 457.6 132 L 457.6 117.5 L 459.8 117.5 C 459.8 117.5 459.77 119.6 459.8 119.6 C 460.6 118.3 462.2 117.2 464 117.2 C 466.4 117.2 467.6 118.5 467.6 121.1 C 467.63 121.1 467.6 132 467.6 132 L 465.5 132 Z M 471.7 129.1 C 471.71 129.11 471.7 119.4 471.7 119.4 L 469.8 119.4 L 469.8 117.5 L 471.7 117.5 L 471.7 113.6 L 473.9 113.6 L 473.9 117.5 L 476.3 117.5 L 476.3 119.4 L 473.9 119.4 C 473.9 119.4 473.87 128.72 473.9 128.7 C 473.9 129.8 474.2 130.5 475 130.5 C 475.6 130.5 476 130.2 476.3 129.9 C 476.3 129.9 477 131.5 477 131.5 C 476.4 132 475.7 132.4 474.6 132.4 C 472.6 132.4 471.7 131.3 471.7 129.1 Z M 478.2 124.8 C 478.2 120.7 480.2 117.2 484 117.2 C 487.9 117.2 489.9 120.7 489.9 124.8 C 489.9 128.8 487.9 132.4 484 132.4 C 480.2 132.4 478.2 128.8 478.2 124.8 Z M 487.7 124.8 C 487.7 121.9 486.6 119.1 484 119.1 C 481.5 119.1 480.4 121.9 480.4 124.8 C 480.4 127.7 481.5 130.5 484 130.5 C 486.6 130.5 487.7 127.7 487.7 124.8 Z M 499.5 129.1 C 499.46 129.11 499.5 119.4 499.5 119.4 L 497.5 119.4 L 497.5 117.5 L 499.5 117.5 L 499.5 113.6 L 501.6 113.6 L 501.6 117.5 L 504.1 117.5 L 504.1 119.4 L 501.6 119.4 C 501.6 119.4 501.62 128.72 501.6 128.7 C 501.6 129.8 501.9 130.5 502.8 130.5 C 503.3 130.5 503.8 130.2 504 129.9 C 504 129.9 504.7 131.5 504.7 131.5 C 504.2 132 503.5 132.4 502.4 132.4 C 500.4 132.4 499.5 131.3 499.5 129.1 Z M 514.5 132 C 514.5 132 514.48 121.67 514.5 121.7 C 514.5 119.8 513.6 119.1 512.1 119.1 C 510.7 119.1 509.4 120.2 508.8 121.4 C 508.75 121.4 508.8 132 508.8 132 L 506.6 132 L 506.6 112 L 508.8 112 C 508.8 112 508.75 119.6 508.8 119.6 C 509.6 118.3 511.2 117.2 513 117.2 C 515.4 117.2 516.6 118.4 516.6 121 C 516.61 121.04 516.6 132 516.6 132 L 514.5 132 Z M 519.9 114 C 519.9 113.2 520.5 112.5 521.3 112.5 C 522.1 112.5 522.8 113.2 522.8 114 C 522.8 114.8 522.1 115.4 521.3 115.4 C 520.5 115.4 519.9 114.8 519.9 114 Z M 520.3 132 L 520.3 117.5 L 522.4 117.5 L 522.4 132 L 520.3 132 Z M 533.9 132 C 533.9 132 533.89 121.7 533.9 121.7 C 533.9 119.8 533 119.1 531.6 119.1 C 530.2 119.1 528.9 120.2 528.2 121.4 C 528.19 121.4 528.2 132 528.2 132 L 526.1 132 L 526.1 117.5 L 528.2 117.5 C 528.2 117.5 528.19 119.6 528.2 119.6 C 529 118.3 530.7 117.2 532.4 117.2 C 534.9 117.2 536.1 118.5 536.1 121.1 C 536.05 121.1 536.1 132 536.1 132 L 533.9 132 Z M 544.7 130.3 C 544.7 130.3 545.8 128.8 545.8 128.8 C 546.6 129.8 548 130.6 549.6 130.6 C 551.2 130.6 552.3 129.7 552.3 128.3 C 552.3 124.9 545.1 126.1 545.1 121.1 C 545.1 118.9 546.9 117.2 549.7 117.2 C 551.7 117.2 553.1 117.9 554.1 119 C 554.1 119 553.1 120.5 553.1 120.5 C 552.4 119.5 551.2 118.9 549.8 118.9 C 548.2 118.9 547.2 119.8 547.2 121 C 547.2 124.1 554.4 123 554.4 128.2 C 554.4 130.6 552.6 132.4 549.6 132.4 C 547.5 132.4 545.9 131.7 544.7 130.3 Z M 557.6 129.1 C 557.59 129.11 557.6 119.4 557.6 119.4 L 555.7 119.4 L 555.7 117.5 L 557.6 117.5 L 557.6 113.6 L 559.8 113.6 L 559.8 117.5 L 562.2 117.5 L 562.2 119.4 L 559.8 119.4 C 559.8 119.4 559.75 128.72 559.8 128.7 C 559.8 129.8 560.1 130.5 560.9 130.5 C 561.5 130.5 561.9 130.2 562.2 129.9 C 562.2 129.9 562.8 131.5 562.8 131.5 C 562.3 132 561.6 132.4 560.5 132.4 C 558.5 132.4 557.6 131.3 557.6 129.1 Z M 564.8 132 L 564.8 117.5 L 566.9 117.5 C 566.9 117.5 566.89 119.84 566.9 119.8 C 567.8 118.3 569.2 117.2 571 117.2 C 571 117.2 571 119.5 571 119.5 C 570.8 119.4 570.5 119.4 570.3 119.4 C 569 119.4 567.5 120.5 566.9 121.7 C 566.89 121.73 566.9 132 566.9 132 L 564.8 132 Z M 572.8 114 C 572.8 113.2 573.5 112.5 574.2 112.5 C 575.1 112.5 575.7 113.2 575.7 114 C 575.7 114.8 575.1 115.4 574.2 115.4 C 573.5 115.4 572.8 114.8 572.8 114 Z M 573.2 132 L 573.2 117.5 L 575.3 117.5 L 575.3 132 L 573.2 132 Z M 581.1 129.9 C 581.11 129.92 581.1 137.5 581.1 137.5 L 579 137.5 L 579 117.5 L 581.1 117.5 C 581.1 117.5 581.11 119.6 581.1 119.6 C 582 118.1 583.4 117.2 584.9 117.2 C 588.2 117.2 590.1 120.2 590.1 124.8 C 590.1 129.3 588.2 132.4 584.9 132.4 C 583.5 132.4 582 131.5 581.1 129.9 Z M 587.9 124.8 C 587.9 121.6 586.8 119.1 584.4 119.1 C 583 119.1 581.7 120.2 581.1 121.4 C 581.1 121.4 581.1 128.1 581.1 128.1 C 581.7 129.3 583 130.5 584.4 130.5 C 586.8 130.5 587.9 127.9 587.9 124.8 Z M 591.9 130.3 C 591.9 130.3 592.9 128.8 592.9 128.8 C 593.8 129.8 595.2 130.6 596.7 130.6 C 598.4 130.6 599.5 129.7 599.5 128.3 C 599.5 124.9 592.3 126.1 592.3 121.1 C 592.3 118.9 594 117.2 596.9 117.2 C 598.8 117.2 600.3 117.9 601.3 119 C 601.3 119 600.3 120.5 600.3 120.5 C 599.6 119.5 598.3 118.9 596.9 118.9 C 595.3 118.9 594.3 119.8 594.3 121 C 594.3 124.1 601.6 123 601.6 128.2 C 601.6 130.6 599.7 132.4 596.7 132.4 C 594.7 132.4 593.1 131.7 591.9 130.3 Z M 609.8 124.8 C 609.8 120.7 611.8 117.2 615.6 117.2 C 619.5 117.2 621.6 120.7 621.6 124.8 C 621.6 128.8 619.5 132.4 615.6 132.4 C 611.8 132.4 609.8 128.8 609.8 124.8 Z M 619.3 124.8 C 619.3 121.9 618.2 119.1 615.6 119.1 C 613.2 119.1 612 121.9 612 124.8 C 612 127.7 613.2 130.5 615.6 130.5 C 618.2 130.5 619.3 127.7 619.3 124.8 Z M 625 132 L 625 119.4 L 623.1 119.4 L 623.1 117.5 L 625 117.5 C 625 117.5 625 115.76 625 115.8 C 625 113.2 626.4 111.7 628.6 111.7 C 629.6 111.7 630.5 112 631.2 112.7 C 631.2 112.7 630.4 114.2 630.4 114.2 C 630 113.8 629.5 113.5 629 113.5 C 627.8 113.5 627.2 114.4 627.2 115.8 C 627.16 115.76 627.2 117.5 627.2 117.5 L 629.6 117.5 L 629.6 119.4 L 627.2 119.4 L 627.2 132 L 625 132 Z " stroke="none" fill="#efd8d3"/>  </g>  <g id="Polygon169166">    <path d="M 37.8 60 C 37.8 60 37.77 58.46 37.8 58.5 C 36.8 59.8 35.4 60.4 34 60.4 C 31.6 60.4 29.6 58.6 29.6 55.6 C 29.6 52.5 31.6 50.8 34 50.8 C 35.4 50.8 36.9 51.4 37.8 52.6 C 37.8 52.6 37.8 50.1 37.8 50.1 C 37.8 48.1 36.7 47 34.8 47 C 33.4 47 32.3 47.5 31.2 48.8 C 31.2 48.8 30.2 47.3 30.2 47.3 C 31.6 45.8 33.3 45.2 35.1 45.2 C 38 45.2 39.9 46.6 39.9 49.9 C 39.93 49.88 39.9 60 39.9 60 L 37.8 60 Z M 37.8 57 C 37.8 57 37.8 54.2 37.8 54.2 C 37.1 53 35.9 52.4 34.6 52.4 C 32.8 52.4 31.8 53.8 31.8 55.6 C 31.8 57.4 32.8 58.8 34.6 58.8 C 35.9 58.8 37.1 58.2 37.8 57 Z M 58.2 60 C 58.2 60 58.2 49.52 58.2 49.5 C 58.2 48 57.6 47.1 56.2 47.1 C 54.9 47.1 53.6 48.2 53 49.4 C 53.04 49.4 53 60 53 60 L 50.9 60 C 50.9 60 50.88 49.52 50.9 49.5 C 50.9 48 50.2 47.1 48.8 47.1 C 47.5 47.1 46.3 48.2 45.7 49.4 C 45.69 49.4 45.7 60 45.7 60 L 43.6 60 L 43.6 45.5 L 45.7 45.5 C 45.7 45.5 45.69 47.6 45.7 47.6 C 46.3 46.5 47.9 45.2 49.6 45.2 C 51.5 45.2 52.6 46.2 52.9 47.8 C 53.6 46.4 55.3 45.2 57 45.2 C 59.1 45.2 60.4 46.3 60.4 49 C 60.36 48.95 60.4 60 60.4 60 L 58.2 60 Z M 63.3 52.8 C 63.3 48.6 65.5 45.2 69.2 45.2 C 73 45.2 74.9 48.6 74.9 52.8 C 74.91 52.82 74.9 53.5 74.9 53.5 C 74.9 53.5 65.52 53.48 65.5 53.5 C 65.6 56.4 67.1 58.6 69.7 58.6 C 70.9 58.6 72.2 58 73.1 56.8 C 73.1 56.8 74.3 58.1 74.3 58.1 C 73.1 59.5 71.5 60.4 69.5 60.4 C 65.6 60.4 63.3 57.2 63.3 52.8 Z M 69.1 47 C 66.6 47 65.6 49.8 65.5 51.9 C 65.5 51.9 72.8 51.9 72.8 51.9 C 72.7 49.7 71.8 47 69.1 47 Z M 77 52.8 C 77 48.5 79.3 45.2 83 45.2 C 85 45.2 86.3 46 87.2 47.1 C 87.2 47.1 86 48.6 86 48.6 C 85.2 47.5 84.3 47.1 83.2 47.1 C 80.6 47.1 79.3 49.7 79.3 52.8 C 79.3 55.9 80.6 58.5 83.2 58.5 C 84.3 58.5 85.2 58 86 57 C 86 57 87.2 58.5 87.2 58.5 C 86.3 59.6 85 60.4 83 60.4 C 79.3 60.4 77 57.1 77 52.8 Z M 90.1 57.1 C 90.06 57.11 90.1 47.4 90.1 47.4 L 88.1 47.4 L 88.1 45.5 L 90.1 45.5 L 90.1 41.6 L 92.2 41.6 L 92.2 45.5 L 94.7 45.5 L 94.7 47.4 L 92.2 47.4 C 92.2 47.4 92.22 56.72 92.2 56.7 C 92.2 57.8 92.5 58.5 93.4 58.5 C 93.9 58.5 94.4 58.2 94.6 57.9 C 94.6 57.9 95.3 59.5 95.3 59.5 C 94.8 60 94.1 60.4 93 60.4 C 91 60.4 90.1 59.3 90.1 57.1 Z M 96.8 42 C 96.8 41.2 97.5 40.5 98.3 40.5 C 99.1 40.5 99.7 41.2 99.7 42 C 99.7 42.8 99.1 43.4 98.3 43.4 C 97.5 43.4 96.8 42.8 96.8 42 Z M 97.2 60 L 97.2 45.5 L 99.4 45.5 L 99.4 60 L 97.2 60 Z M 110.8 60 C 110.8 60 110.84 49.7 110.8 49.7 C 110.8 47.8 110 47.1 108.5 47.1 C 107.1 47.1 105.8 48.2 105.1 49.4 C 105.14 49.4 105.1 60 105.1 60 L 103 60 L 103 45.5 L 105.1 45.5 C 105.1 45.5 105.14 47.6 105.1 47.6 C 106 46.3 107.6 45.2 109.3 45.2 C 111.8 45.2 113 46.5 113 49.1 C 113 49.1 113 60 113 60 L 110.8 60 Z M 117.5 63.8 C 117.5 63.8 116.4 62.9 116.4 62.9 C 117.4 62.3 118.2 61.1 118.3 60.1 C 118.3 60.1 118 60.2 117.9 60.2 C 117.1 60.2 116.5 59.5 116.5 58.7 C 116.5 57.8 117.2 57.1 118.1 57.1 C 119 57.1 119.9 57.9 119.9 59.4 C 119.9 61.2 118.8 62.8 117.5 63.8 Z M 136.8 60 C 136.8 60 136.79 58.46 136.8 58.5 C 135.9 59.8 134.5 60.4 133 60.4 C 130.6 60.4 128.6 58.6 128.6 55.6 C 128.6 52.5 130.6 50.8 133 50.8 C 134.5 50.8 135.9 51.4 136.8 52.6 C 136.8 52.6 136.8 50.1 136.8 50.1 C 136.8 48.1 135.7 47 133.8 47 C 132.5 47 131.3 47.5 130.2 48.8 C 130.2 48.8 129.2 47.3 129.2 47.3 C 130.6 45.8 132.3 45.2 134.2 45.2 C 137 45.2 139 46.6 139 49.9 C 138.95 49.88 139 60 139 60 L 136.8 60 Z M 136.8 57 C 136.8 57 136.8 54.2 136.8 54.2 C 136.1 53 134.9 52.4 133.7 52.4 C 131.9 52.4 130.8 53.8 130.8 55.6 C 130.8 57.4 131.9 58.8 133.7 58.8 C 134.9 58.8 136.1 58.2 136.8 57 Z M 150.4 60 C 150.4 60 150.41 49.7 150.4 49.7 C 150.4 47.8 149.5 47.1 148.1 47.1 C 146.7 47.1 145.4 48.2 144.7 49.4 C 144.71 49.4 144.7 60 144.7 60 L 142.6 60 L 142.6 45.5 L 144.7 45.5 C 144.7 45.5 144.71 47.6 144.7 47.6 C 145.6 46.3 147.2 45.2 148.9 45.2 C 151.4 45.2 152.6 46.5 152.6 49.1 C 152.57 49.1 152.6 60 152.6 60 L 150.4 60 Z M 164.5 60 C 164.5 60 164.51 57.95 164.5 58 C 163.7 59.4 162.2 60.4 160.7 60.4 C 157.5 60.4 155.5 57.4 155.5 52.8 C 155.5 48.3 157.4 45.2 160.7 45.2 C 162.2 45.2 163.6 46 164.5 47.6 C 164.51 47.63 164.5 40 164.5 40 L 166.7 40 L 166.7 60 L 164.5 60 Z M 164.5 56.1 C 164.5 56.1 164.5 49.5 164.5 49.5 C 164 48.2 162.6 47.1 161.2 47.1 C 158.9 47.1 157.8 49.6 157.8 52.8 C 157.8 55.9 158.9 58.5 161.2 58.5 C 162.6 58.5 164 57.4 164.5 56.1 Z M 176.1 57.1 C 176.1 57.1 177.7 55.7 177.7 55.7 C 178.6 57.3 179.9 58.3 181.9 58.3 C 184.1 58.3 185.5 56.2 185.5 53.9 C 185.5 51.1 184.1 49.5 182 49.5 C 180.6 49.5 179.5 50 178.4 51.4 C 178.4 51.35 176.6 50.8 176.6 50.8 L 176.6 40 L 186.8 40 L 186.8 42.1 L 179 42.1 C 179 42.1 179 49.13 179 49.1 C 179.8 48.2 181.1 47.4 182.7 47.4 C 185.6 47.4 187.9 49.7 187.9 53.8 C 187.9 57.6 185.4 60.4 181.9 60.4 C 179 60.4 177.3 59.1 176.1 57.1 Z M 190.3 50 C 190.3 45.2 191.9 39.7 196.6 39.7 C 201.3 39.7 202.9 45.2 202.9 50 C 202.9 54.8 201.3 60.4 196.6 60.4 C 191.9 60.4 190.3 54.8 190.3 50 Z M 200.5 50 C 200.5 46.1 199.7 41.8 196.6 41.8 C 193.6 41.8 192.8 46.1 192.8 50 C 192.8 54 193.5 58.3 196.6 58.3 C 199.7 58.3 200.5 54 200.5 50 Z M 205.4 50 C 205.4 45.2 207 39.7 211.7 39.7 C 216.4 39.7 217.9 45.2 217.9 50 C 217.9 54.8 216.4 60.4 211.7 60.4 C 207 60.4 205.4 54.8 205.4 50 Z M 215.5 50 C 215.5 46.1 214.8 41.8 211.7 41.8 C 208.6 41.8 207.9 46.1 207.9 50 C 207.9 54 208.6 58.3 211.7 58.3 C 214.8 58.3 215.5 54 215.5 50 Z M 241.8 60 C 241.8 60 241.82 49.52 241.8 49.5 C 241.8 48 241.2 47.1 239.8 47.1 C 238.5 47.1 237.2 48.2 236.7 49.4 C 236.66 49.4 236.7 60 236.7 60 L 234.5 60 C 234.5 60 234.5 49.52 234.5 49.5 C 234.5 48 233.9 47.1 232.5 47.1 C 231.2 47.1 229.9 48.2 229.3 49.4 C 229.31 49.4 229.3 60 229.3 60 L 227.2 60 L 227.2 45.5 L 229.3 45.5 C 229.3 45.5 229.31 47.6 229.3 47.6 C 229.9 46.5 231.5 45.2 233.3 45.2 C 235.1 45.2 236.3 46.2 236.5 47.8 C 237.3 46.4 238.9 45.2 240.6 45.2 C 242.8 45.2 244 46.3 244 49 C 243.98 48.95 244 60 244 60 L 241.8 60 Z M 247.6 60 L 247.6 40 L 249.8 40 L 249.8 60 L 247.6 60 Z M 270.3 60 L 267.2 48.4 L 264.1 60 L 261.9 60 L 258 45.5 L 260.2 45.5 L 263.1 57.1 L 266.1 45.5 L 268.2 45.5 L 271.3 57.1 L 274.1 45.5 L 276.4 45.5 L 272.5 60 L 270.3 60 Z M 285.9 60 C 285.9 60 285.86 58.46 285.9 58.5 C 284.9 59.8 283.5 60.4 282.1 60.4 C 279.7 60.4 277.7 58.6 277.7 55.6 C 277.7 52.5 279.7 50.8 282.1 50.8 C 283.5 50.8 285 51.4 285.9 52.6 C 285.9 52.6 285.9 50.1 285.9 50.1 C 285.9 48.1 284.8 47 282.9 47 C 281.5 47 280.4 47.5 279.3 48.8 C 279.3 48.8 278.3 47.3 278.3 47.3 C 279.7 45.8 281.4 45.2 283.2 45.2 C 286.1 45.2 288 46.6 288 49.9 C 288.02 49.88 288 60 288 60 L 285.9 60 Z M 285.9 57 C 285.9 57 285.9 54.2 285.9 54.2 C 285.2 53 284 52.4 282.7 52.4 C 280.9 52.4 279.9 53.8 279.9 55.6 C 279.9 57.4 280.9 58.8 282.7 58.8 C 284 58.8 285.2 58.2 285.9 57 Z M 292.1 57.1 C 292.07 57.11 292.1 47.4 292.1 47.4 L 290.2 47.4 L 290.2 45.5 L 292.1 45.5 L 292.1 41.6 L 294.2 41.6 L 294.2 45.5 L 296.7 45.5 L 296.7 47.4 L 294.2 47.4 C 294.2 47.4 294.23 56.72 294.2 56.7 C 294.2 57.8 294.6 58.5 295.4 58.5 C 295.9 58.5 296.4 58.2 296.7 57.9 C 296.7 57.9 297.3 59.5 297.3 59.5 C 296.8 60 296.1 60.4 295 60.4 C 293 60.4 292.1 59.3 292.1 57.1 Z M 298.5 52.8 C 298.5 48.6 300.7 45.2 304.4 45.2 C 308.2 45.2 310.1 48.6 310.1 52.8 C 310.13 52.82 310.1 53.5 310.1 53.5 C 310.1 53.5 300.74 53.48 300.7 53.5 C 300.8 56.4 302.3 58.6 304.9 58.6 C 306.2 58.6 307.5 58 308.4 56.8 C 308.4 56.8 309.5 58.1 309.5 58.1 C 308.3 59.5 306.7 60.4 304.7 60.4 C 300.9 60.4 298.5 57.2 298.5 52.8 Z M 304.4 47 C 301.8 47 300.8 49.8 300.7 51.9 C 300.7 51.9 308 51.9 308 51.9 C 308 49.7 307 47 304.4 47 Z M 313 60 L 313 45.5 L 315.1 45.5 C 315.1 45.5 315.11 47.84 315.1 47.8 C 316 46.3 317.5 45.2 319.2 45.2 C 319.2 45.2 319.2 47.5 319.2 47.5 C 319 47.4 318.7 47.4 318.5 47.4 C 317.2 47.4 315.7 48.5 315.1 49.7 C 315.11 49.73 315.1 60 315.1 60 L 313 60 Z M 328.1 60 L 328.1 47.4 L 326.1 47.4 L 326.1 45.5 L 328.1 45.5 C 328.1 45.5 328.07 43.76 328.1 43.8 C 328.1 41.2 329.4 39.7 331.7 39.7 C 332.7 39.7 333.6 40 334.3 40.7 C 334.3 40.7 333.4 42.2 333.4 42.2 C 333 41.8 332.6 41.5 332 41.5 C 330.8 41.5 330.2 42.4 330.2 43.8 C 330.23 43.76 330.2 45.5 330.2 45.5 L 332.7 45.5 L 332.7 47.4 L 330.2 47.4 L 330.2 60 L 328.1 60 Z M 334.2 52.8 C 334.2 48.7 336.2 45.2 340 45.2 C 343.9 45.2 345.9 48.7 345.9 52.8 C 345.9 56.8 343.9 60.4 340 60.4 C 336.2 60.4 334.2 56.8 334.2 52.8 Z M 343.7 52.8 C 343.7 49.9 342.6 47.1 340 47.1 C 337.5 47.1 336.4 49.9 336.4 52.8 C 336.4 55.7 337.5 58.5 340 58.5 C 342.6 58.5 343.7 55.7 343.7 52.8 Z M 348.9 60 L 348.9 45.5 L 351 45.5 C 351 45.5 351.02 47.84 351 47.8 C 351.9 46.3 353.4 45.2 355.1 45.2 C 355.1 45.2 355.1 47.5 355.1 47.5 C 354.9 47.4 354.6 47.4 354.4 47.4 C 353.1 47.4 351.6 48.5 351 49.7 C 351.02 49.73 351 60 351 60 L 348.9 60 Z M 362.9 50 C 362.9 44.7 364.8 39.7 369.6 39.7 C 371.7 39.7 373.3 40.7 374.3 42.2 C 374.3 42.2 373 43.9 373 43.9 C 372.3 42.6 371.3 41.8 369.7 41.8 C 366.5 41.8 365.3 46 365.3 49.8 C 365.3 50.1 365.3 50.2 365.3 50.4 C 366 49 367.7 47.5 369.7 47.5 C 372.6 47.5 375 49.6 375 53.9 C 375 57.3 372.9 60.4 369.2 60.4 C 364.5 60.4 362.9 55.4 362.9 50 Z M 372.6 53.9 C 372.6 50.8 371 49.6 369.1 49.6 C 367.5 49.6 366.1 51 365.4 52.6 C 365.5 54.9 366.3 58.3 369.1 58.3 C 371.5 58.3 372.6 56 372.6 53.9 Z M 391.9 60 C 391.9 60 391.94 49.67 391.9 49.7 C 391.9 47.8 391 47.1 389.6 47.1 C 388.2 47.1 386.9 48.2 386.2 49.4 C 386.21 49.4 386.2 60 386.2 60 L 384.1 60 L 384.1 40 L 386.2 40 C 386.2 40 386.21 47.6 386.2 47.6 C 387 46.3 388.7 45.2 390.4 45.2 C 392.9 45.2 394.1 46.4 394.1 49 C 394.07 49.04 394.1 60 394.1 60 L 391.9 60 Z M 397 52.8 C 397 48.7 399 45.2 402.9 45.2 C 406.8 45.2 408.8 48.7 408.8 52.8 C 408.8 56.8 406.8 60.4 402.9 60.4 C 399 60.4 397 56.8 397 52.8 Z M 406.5 52.8 C 406.5 49.9 405.4 47.1 402.9 47.1 C 400.4 47.1 399.3 49.9 399.3 52.8 C 399.3 55.7 400.4 58.5 402.9 58.5 C 405.4 58.5 406.5 55.7 406.5 52.8 Z M 419.6 60 C 419.6 60 419.57 58.01 419.6 58 C 418.7 59.3 417.2 60.4 415.4 60.4 C 412.9 60.4 411.7 59.2 411.7 56.5 C 411.74 56.51 411.7 45.5 411.7 45.5 L 413.9 45.5 C 413.9 45.5 413.87 55.88 413.9 55.9 C 413.9 57.8 414.8 58.5 416.2 58.5 C 417.6 58.5 418.9 57.4 419.6 56.2 C 419.57 56.21 419.6 45.5 419.6 45.5 L 421.7 45.5 L 421.7 60 L 419.6 60 Z M 425.4 60 L 425.4 45.5 L 427.5 45.5 C 427.5 45.5 427.52 47.84 427.5 47.8 C 428.4 46.3 429.9 45.2 431.6 45.2 C 431.6 45.2 431.6 47.5 431.6 47.5 C 431.4 47.4 431.1 47.4 430.9 47.4 C 429.6 47.4 428.1 48.5 427.5 49.7 C 427.52 49.73 427.5 60 427.5 60 L 425.4 60 Z M 432.6 58.3 C 432.6 58.3 433.7 56.8 433.7 56.8 C 434.6 57.8 435.9 58.6 437.5 58.6 C 439.2 58.6 440.3 57.7 440.3 56.3 C 440.3 52.9 433.1 54.1 433.1 49.1 C 433.1 46.9 434.8 45.2 437.7 45.2 C 439.6 45.2 441.1 45.9 442.1 47 C 442.1 47 441.1 48.5 441.1 48.5 C 440.4 47.5 439.1 46.9 437.7 46.9 C 436.1 46.9 435.1 47.8 435.1 49 C 435.1 52.1 442.4 51 442.4 56.2 C 442.4 58.6 440.5 60.4 437.5 60.4 C 435.5 60.4 433.8 59.7 432.6 58.3 Z M 445 58.7 C 445 57.9 445.7 57.1 446.6 57.1 C 447.4 57.1 448.2 57.9 448.2 58.7 C 448.2 59.6 447.4 60.3 446.6 60.3 C 445.7 60.3 445 59.6 445 58.7 Z " stroke="none" fill="#efd8d3"/>  </g>  <g id="Polygon169165">    <path d="M 5 24 L 5 7.2 L 1.9 10.5 L 0.4 9 L 5.3 4 L 7.3 4 L 7.3 24 L 5 24 Z M 11 22.7 C 11 21.9 11.7 21.1 12.6 21.1 C 13.4 21.1 14.2 21.9 14.2 22.7 C 14.2 23.6 13.4 24.3 12.6 24.3 C 11.7 24.3 11 23.6 11 22.7 Z M 29.2 21.9 C 29.2 21.9 30.5 20 30.5 20 C 31.6 21.3 33.2 22.3 35.2 22.3 C 37.7 22.3 38.8 20.7 38.8 19 C 38.8 14.1 29.8 15.4 29.8 8.9 C 29.8 5.9 32.2 3.7 35.5 3.7 C 37.8 3.7 39.6 4.4 40.9 5.8 C 40.9 5.8 39.6 7.6 39.6 7.6 C 38.5 6.4 37.1 5.8 35.5 5.8 C 33.7 5.8 32.2 7 32.2 8.8 C 32.2 13 41.3 12.1 41.3 18.8 C 41.3 21.8 39.3 24.4 35.2 24.4 C 32.6 24.4 30.6 23.4 29.2 21.9 Z M 43.4 16.8 C 43.4 12.7 45.4 9.2 49.3 9.2 C 53.2 9.2 55.2 12.7 55.2 16.8 C 55.2 20.8 53.2 24.4 49.3 24.4 C 45.4 24.4 43.4 20.8 43.4 16.8 Z M 52.9 16.8 C 52.9 13.9 51.8 11.1 49.3 11.1 C 46.8 11.1 45.7 13.9 45.7 16.8 C 45.7 19.7 46.8 22.5 49.3 22.5 C 51.8 22.5 52.9 19.7 52.9 16.8 Z M 65.6 24 C 65.6 24 65.58 22.46 65.6 22.5 C 64.6 23.8 63.2 24.4 61.8 24.4 C 59.4 24.4 57.4 22.6 57.4 19.6 C 57.4 16.5 59.4 14.8 61.8 14.8 C 63.2 14.8 64.7 15.4 65.6 16.6 C 65.6 16.6 65.6 14.1 65.6 14.1 C 65.6 12.1 64.5 11 62.6 11 C 61.3 11 60.1 11.5 59 12.8 C 59 12.8 58 11.3 58 11.3 C 59.4 9.8 61.1 9.2 62.9 9.2 C 65.8 9.2 67.7 10.6 67.7 13.9 C 67.74 13.88 67.7 24 67.7 24 L 65.6 24 Z M 65.6 21 C 65.6 21 65.6 18.2 65.6 18.2 C 64.9 17 63.7 16.4 62.5 16.4 C 60.7 16.4 59.6 17.8 59.6 19.6 C 59.6 21.4 60.7 22.8 62.5 22.8 C 63.7 22.8 64.9 22.2 65.6 21 Z M 79.5 24 L 75.5 17.5 L 73.5 20.1 L 73.5 24 L 71.4 24 L 71.4 4 L 73.5 4 L 73.5 17.4 L 79.5 9.5 L 82.1 9.5 L 77 16 L 82.1 24 L 79.5 24 Z M 89.6 16.8 C 89.6 12.6 91.9 9.2 95.5 9.2 C 99.3 9.2 101.2 12.6 101.2 16.8 C 101.24 16.82 101.2 17.5 101.2 17.5 C 101.2 17.5 91.85 17.48 91.9 17.5 C 91.9 20.4 93.4 22.6 96 22.6 C 97.3 22.6 98.6 22 99.5 20.8 C 99.5 20.8 100.6 22.1 100.6 22.1 C 99.4 23.5 97.8 24.4 95.8 24.4 C 92 24.4 89.6 21.2 89.6 16.8 Z M 95.5 11 C 92.9 11 91.9 13.8 91.9 15.9 C 91.9 15.9 99.1 15.9 99.1 15.9 C 99.1 13.7 98.1 11 95.5 11 Z M 111.5 24 L 108.2 18.2 L 104.9 24 L 102.5 24 L 106.9 16.6 L 102.7 9.5 L 105.1 9.5 L 108.2 15.1 L 111.3 9.5 L 113.7 9.5 L 109.5 16.6 L 113.9 24 L 111.5 24 Z M 116.4 21.1 C 116.39 21.11 116.4 11.4 116.4 11.4 L 114.5 11.4 L 114.5 9.5 L 116.4 9.5 L 116.4 5.6 L 118.6 5.6 L 118.6 9.5 L 121 9.5 L 121 11.4 L 118.6 11.4 C 118.6 11.4 118.55 20.72 118.6 20.7 C 118.6 21.8 118.9 22.5 119.7 22.5 C 120.3 22.5 120.7 22.2 121 21.9 C 121 21.9 121.6 23.5 121.6 23.5 C 121.1 24 120.4 24.4 119.3 24.4 C 117.3 24.4 116.4 23.3 116.4 21.1 Z M 123.6 24 L 123.6 9.5 L 125.7 9.5 C 125.7 9.5 125.69 11.84 125.7 11.8 C 126.6 10.3 128 9.2 129.8 9.2 C 129.8 9.2 129.8 11.5 129.8 11.5 C 129.6 11.4 129.3 11.4 129.1 11.4 C 127.8 11.4 126.3 12.5 125.7 13.7 C 125.69 13.73 125.7 24 125.7 24 L 123.6 24 Z M 139.8 24 C 139.8 24 139.82 22.01 139.8 22 C 139 23.3 137.4 24.4 135.6 24.4 C 133.2 24.4 132 23.2 132 20.5 C 131.99 20.51 132 9.5 132 9.5 L 134.1 9.5 C 134.1 9.5 134.12 19.88 134.1 19.9 C 134.1 21.8 135 22.5 136.4 22.5 C 137.9 22.5 139.2 21.4 139.8 20.2 C 139.82 20.21 139.8 9.5 139.8 9.5 L 142 9.5 L 142 24 L 139.8 24 Z M 153.9 24 C 153.9 24 153.92 21.95 153.9 22 C 153.1 23.4 151.6 24.4 150.1 24.4 C 146.9 24.4 144.9 21.4 144.9 16.8 C 144.9 12.3 146.8 9.2 150.1 9.2 C 151.6 9.2 153.1 10 153.9 11.6 C 153.92 11.63 153.9 4 153.9 4 L 156.1 4 L 156.1 24 L 153.9 24 Z M 153.9 20.1 C 153.9 20.1 153.9 13.5 153.9 13.5 C 153.4 12.2 152 11.1 150.7 11.1 C 148.3 11.1 147.2 13.6 147.2 16.8 C 147.2 19.9 148.3 22.5 150.7 22.5 C 152 22.5 153.4 21.4 153.9 20.1 Z M 159 16.8 C 159 12.6 161.2 9.2 164.9 9.2 C 168.7 9.2 170.6 12.6 170.6 16.8 C 170.63 16.82 170.6 17.5 170.6 17.5 C 170.6 17.5 161.24 17.48 161.2 17.5 C 161.3 20.4 162.8 22.6 165.4 22.6 C 166.7 22.6 168 22 168.9 20.8 C 168.9 20.8 170 22.1 170 22.1 C 168.8 23.5 167.2 24.4 165.2 24.4 C 161.4 24.4 159 21.2 159 16.8 Z M 164.9 11 C 162.3 11 161.3 13.8 161.2 15.9 C 161.2 15.9 168.5 15.9 168.5 15.9 C 168.5 13.7 167.5 11 164.9 11 Z M 181.8 24 C 181.8 24 181.76 21.95 181.8 22 C 180.9 23.4 179.5 24.4 178 24.4 C 174.7 24.4 172.8 21.4 172.8 16.8 C 172.8 12.3 174.7 9.2 178 9.2 C 179.4 9.2 180.9 10 181.8 11.6 C 181.76 11.63 181.8 4 181.8 4 L 183.9 4 L 183.9 24 L 181.8 24 Z M 181.8 20.1 C 181.8 20.1 181.8 13.5 181.8 13.5 C 181.2 12.2 179.9 11.1 178.5 11.1 C 176.1 11.1 175 13.6 175 16.8 C 175 19.9 176.1 22.5 178.5 22.5 C 179.9 22.5 181.2 21.4 181.8 20.1 Z M 195.9 21.9 C 195.86 21.92 195.9 29.5 195.9 29.5 L 193.7 29.5 L 193.7 9.5 L 195.9 9.5 C 195.9 9.5 195.86 11.6 195.9 11.6 C 196.7 10.1 198.1 9.2 199.7 9.2 C 202.9 9.2 204.9 12.2 204.9 16.8 C 204.9 21.3 202.9 24.4 199.7 24.4 C 198.2 24.4 196.8 23.5 195.9 21.9 Z M 202.6 16.8 C 202.6 13.6 201.5 11.1 199.1 11.1 C 197.8 11.1 196.4 12.2 195.9 13.4 C 195.9 13.4 195.9 20.1 195.9 20.1 C 196.4 21.3 197.8 22.5 199.1 22.5 C 201.5 22.5 202.6 19.9 202.6 16.8 Z M 207.1 16.8 C 207.1 12.7 209.1 9.2 212.9 9.2 C 216.8 9.2 218.8 12.7 218.8 16.8 C 218.8 20.8 216.8 24.4 212.9 24.4 C 209.1 24.4 207.1 20.8 207.1 16.8 Z M 216.6 16.8 C 216.6 13.9 215.5 11.1 212.9 11.1 C 210.4 11.1 209.3 13.9 209.3 16.8 C 209.3 19.7 210.4 22.5 212.9 22.5 C 215.5 22.5 216.6 19.7 216.6 16.8 Z M 221.8 24 L 221.8 4 L 223.9 4 L 223.9 24 L 221.8 24 Z M 227.2 27.8 C 227.4 27.9 227.9 28 228.1 28 C 229 28 229.4 27.7 229.8 26.5 C 229.82 26.54 230.6 24.3 230.6 24.3 L 225.8 9.5 L 228.1 9.5 L 231.7 21.4 L 235.3 9.5 L 237.7 9.5 C 237.7 9.5 231.86 27.08 231.9 27.1 C 231.1 29.2 230 29.9 228.3 29.9 C 227.8 29.9 227.2 29.8 226.8 29.7 C 226.8 29.7 227.2 27.8 227.2 27.8 Z M 238.3 22.3 C 238.3 22.3 239.4 20.8 239.4 20.8 C 240.3 21.8 241.6 22.6 243.2 22.6 C 244.9 22.6 246 21.7 246 20.3 C 246 16.9 238.8 18.1 238.8 13.1 C 238.8 10.9 240.5 9.2 243.4 9.2 C 245.3 9.2 246.8 9.9 247.8 11 C 247.8 11 246.8 12.5 246.8 12.5 C 246.1 11.5 244.8 10.9 243.4 10.9 C 241.8 10.9 240.8 11.8 240.8 13 C 240.8 16.1 248.1 15 248.1 20.2 C 248.1 22.6 246.2 24.4 243.2 24.4 C 241.2 24.4 239.5 23.7 238.3 22.3 Z M 251.2 21.1 C 251.24 21.11 251.2 11.4 251.2 11.4 L 249.3 11.4 L 249.3 9.5 L 251.2 9.5 L 251.2 5.6 L 253.4 5.6 L 253.4 9.5 L 255.9 9.5 L 255.9 11.4 L 253.4 11.4 C 253.4 11.4 253.4 20.72 253.4 20.7 C 253.4 21.8 253.7 22.5 254.6 22.5 C 255.1 22.5 255.6 22.2 255.8 21.9 C 255.8 21.9 256.5 23.5 256.5 23.5 C 256 24 255.3 24.4 254.2 24.4 C 252.2 24.4 251.2 23.3 251.2 21.1 Z M 258 27.8 C 258.3 27.9 258.7 28 259 28 C 259.8 28 260.3 27.7 260.7 26.5 C 260.66 26.54 261.4 24.3 261.4 24.3 L 256.6 9.5 L 259 9.5 L 262.6 21.4 L 266.2 9.5 L 268.5 9.5 C 268.5 9.5 262.7 27.08 262.7 27.1 C 262 29.2 260.8 29.9 259.1 29.9 C 258.7 29.9 258 29.8 257.7 29.7 C 257.7 29.7 258 27.8 258 27.8 Z M 270.4 24 L 270.4 9.5 L 272.5 9.5 C 272.5 9.5 272.48 11.84 272.5 11.8 C 273.4 10.3 274.8 9.2 276.6 9.2 C 276.6 9.2 276.6 11.5 276.6 11.5 C 276.4 11.4 276.1 11.4 275.9 11.4 C 274.6 11.4 273.1 12.5 272.5 13.7 C 272.48 13.73 272.5 24 272.5 24 L 270.4 24 Z M 278.1 16.8 C 278.1 12.6 280.3 9.2 283.9 9.2 C 287.8 9.2 289.7 12.6 289.7 16.8 C 289.67 16.82 289.7 17.5 289.7 17.5 C 289.7 17.5 280.28 17.48 280.3 17.5 C 280.4 20.4 281.9 22.6 284.4 22.6 C 285.7 22.6 287 22 287.9 20.8 C 287.9 20.8 289 22.1 289 22.1 C 287.9 23.5 286.2 24.4 284.3 24.4 C 280.4 24.4 278.1 21.2 278.1 16.8 Z M 283.9 11 C 281.4 11 280.3 13.8 280.3 15.9 C 280.3 15.9 287.5 15.9 287.5 15.9 C 287.5 13.7 286.5 11 283.9 11 Z M 300.3 24 C 300.3 24 300.35 13.7 300.3 13.7 C 300.3 11.8 299.5 11.1 298 11.1 C 296.6 11.1 295.3 12.2 294.6 13.4 C 294.65 13.4 294.6 24 294.6 24 L 292.5 24 L 292.5 9.5 L 294.6 9.5 C 294.6 9.5 294.65 11.6 294.6 11.6 C 295.5 10.3 297.1 9.2 298.8 9.2 C 301.3 9.2 302.5 10.5 302.5 13.1 C 302.51 13.1 302.5 24 302.5 24 L 300.3 24 Z M 305.4 16.8 C 305.4 12.6 307.7 9.2 311.3 9.2 C 315.1 9.2 317.1 12.6 317.1 16.8 C 317.06 16.82 317.1 17.5 317.1 17.5 C 317.1 17.5 307.67 17.48 307.7 17.5 C 307.8 20.4 309.3 22.6 311.8 22.6 C 313.1 22.6 314.4 22 315.3 20.8 C 315.3 20.8 316.4 22.1 316.4 22.1 C 315.3 23.5 313.6 24.4 311.7 24.4 C 307.8 24.4 305.4 21.2 305.4 16.8 Z M 311.3 11 C 308.7 11 307.7 13.8 307.7 15.9 C 307.7 15.9 314.9 15.9 314.9 15.9 C 314.9 13.7 313.9 11 311.3 11 Z M 325.6 6 C 325.6 5.2 326.3 4.5 327.1 4.5 C 327.9 4.5 328.6 5.2 328.6 6 C 328.6 6.8 327.9 7.4 327.1 7.4 C 326.3 7.4 325.6 6.8 325.6 6 Z M 326.1 24 L 326.1 9.5 L 328.2 9.5 L 328.2 24 L 326.1 24 Z M 339.7 24 C 339.7 24 339.68 13.7 339.7 13.7 C 339.7 11.8 338.8 11.1 337.4 11.1 C 336 11.1 334.6 12.2 334 13.4 C 333.98 13.4 334 24 334 24 L 331.8 24 L 331.8 9.5 L 334 9.5 C 334 9.5 333.98 11.6 334 11.6 C 334.8 10.3 336.4 9.2 338.2 9.2 C 340.6 9.2 341.8 10.5 341.8 13.1 C 341.84 13.1 341.8 24 341.8 24 L 339.7 24 Z M 359.1 24 C 359.1 24 359.09 22.46 359.1 22.5 C 358.2 23.8 356.7 24.4 355.3 24.4 C 352.9 24.4 350.9 22.6 350.9 19.6 C 350.9 16.5 352.9 14.8 355.3 14.8 C 356.7 14.8 358.2 15.4 359.1 16.6 C 359.1 16.6 359.1 14.1 359.1 14.1 C 359.1 12.1 358 11 356.1 11 C 354.8 11 353.6 11.5 352.5 12.8 C 352.5 12.8 351.5 11.3 351.5 11.3 C 352.9 9.8 354.6 9.2 356.4 9.2 C 359.3 9.2 361.2 10.6 361.2 13.9 C 361.25 13.88 361.2 24 361.2 24 L 359.1 24 Z M 359.1 21 C 359.1 21 359.1 18.2 359.1 18.2 C 358.4 17 357.2 16.4 356 16.4 C 354.2 16.4 353.1 17.8 353.1 19.6 C 353.1 21.4 354.2 22.8 356 22.8 C 357.2 22.8 358.4 22.2 359.1 21 Z M 364.9 24 L 364.9 4 L 367 4 L 367 24 L 364.9 24 Z M 369.9 16.8 C 369.9 12.5 372.2 9.2 375.9 9.2 C 378 9.2 379.2 10 380.1 11.1 C 380.1 11.1 378.9 12.6 378.9 12.6 C 378.1 11.5 377.2 11.1 376.1 11.1 C 373.5 11.1 372.2 13.7 372.2 16.8 C 372.2 19.9 373.5 22.5 376.1 22.5 C 377.2 22.5 378.1 22 378.9 21 C 378.9 21 380.1 22.5 380.1 22.5 C 379.2 23.6 378 24.4 375.9 24.4 C 372.2 24.4 369.9 21.1 369.9 16.8 Z M 390 24 C 390 24 389.99 22.46 390 22.5 C 389.1 23.8 387.6 24.4 386.2 24.4 C 383.8 24.4 381.8 22.6 381.8 19.6 C 381.8 16.5 383.8 14.8 386.2 14.8 C 387.6 14.8 389.1 15.4 390 16.6 C 390 16.6 390 14.1 390 14.1 C 390 12.1 388.9 11 387 11 C 385.7 11 384.5 11.5 383.4 12.8 C 383.4 12.8 382.4 11.3 382.4 11.3 C 383.8 9.8 385.5 9.2 387.3 9.2 C 390.2 9.2 392.1 10.6 392.1 13.9 C 392.15 13.88 392.1 24 392.1 24 L 390 24 Z M 390 21 C 390 21 390 18.2 390 18.2 C 389.3 17 388.1 16.4 386.9 16.4 C 385.1 16.4 384 17.8 384 19.6 C 384 21.4 385.1 22.8 386.9 22.8 C 388.1 22.8 389.3 22.2 390 21 Z M 403.6 24 C 403.6 24 403.61 13.7 403.6 13.7 C 403.6 11.8 402.7 11.1 401.3 11.1 C 399.9 11.1 398.6 12.2 397.9 13.4 C 397.91 13.4 397.9 24 397.9 24 L 395.8 24 L 395.8 9.5 L 397.9 9.5 C 397.9 9.5 397.91 11.6 397.9 11.6 C 398.7 10.3 400.4 9.2 402.1 9.2 C 404.6 9.2 405.8 10.5 405.8 13.1 C 405.77 13.1 405.8 24 405.8 24 L 403.6 24 Z M 409 6 C 409 5.2 409.7 4.5 410.5 4.5 C 411.3 4.5 411.9 5.2 411.9 6 C 411.9 6.8 411.3 7.4 410.5 7.4 C 409.7 7.4 409 6.8 409 6 Z M 409.4 24 L 409.4 9.5 L 411.6 9.5 L 411.6 24 L 409.4 24 Z M 418.2 24 L 413.4 9.5 L 415.8 9.5 L 419.4 21.5 L 423 9.5 L 425.3 9.5 L 420.5 24 L 418.2 24 Z M 426.4 16.8 C 426.4 12.7 428.5 9.2 432.3 9.2 C 436.2 9.2 438.2 12.7 438.2 16.8 C 438.2 20.8 436.2 24.4 432.3 24.4 C 428.5 24.4 426.4 20.8 426.4 16.8 Z M 436 16.8 C 436 13.9 434.9 11.1 432.3 11.1 C 429.8 11.1 428.7 13.9 428.7 16.8 C 428.7 19.7 429.8 22.5 432.3 22.5 C 434.9 22.5 436 19.7 436 16.8 Z M 441.2 24 L 441.2 9.5 L 443.3 9.5 C 443.3 9.5 443.3 11.84 443.3 11.8 C 444.2 10.3 445.6 9.2 447.4 9.2 C 447.4 9.2 447.4 11.5 447.4 11.5 C 447.2 11.4 446.9 11.4 446.7 11.4 C 445.4 11.4 443.9 12.5 443.3 13.7 C 443.3 13.73 443.3 24 443.3 24 L 441.2 24 Z M 457 24 C 457 24 457.04 22.46 457 22.5 C 456.1 23.8 454.7 24.4 453.2 24.4 C 450.9 24.4 448.8 22.6 448.8 19.6 C 448.8 16.5 450.9 14.8 453.2 14.8 C 454.7 14.8 456.1 15.4 457 16.6 C 457 16.6 457 14.1 457 14.1 C 457 12.1 456 11 454.1 11 C 452.7 11 451.5 11.5 450.4 12.8 C 450.4 12.8 449.5 11.3 449.5 11.3 C 450.9 9.8 452.6 9.2 454.4 9.2 C 457.3 9.2 459.2 10.6 459.2 13.9 C 459.2 13.88 459.2 24 459.2 24 L 457 24 Z M 457 21 C 457 21 457 18.2 457 18.2 C 456.4 17 455.2 16.4 453.9 16.4 C 452.1 16.4 451 17.8 451 19.6 C 451 21.4 452.1 22.8 453.9 22.8 C 455.2 22.8 456.4 22.2 457 21 Z M 461.7 22.3 C 461.7 22.3 462.7 20.8 462.7 20.8 C 463.6 21.8 465 22.6 466.5 22.6 C 468.2 22.6 469.3 21.7 469.3 20.3 C 469.3 16.9 462.1 18.1 462.1 13.1 C 462.1 10.9 463.8 9.2 466.7 9.2 C 468.6 9.2 470.1 9.9 471.1 11 C 471.1 11 470.1 12.5 470.1 12.5 C 469.4 11.5 468.1 10.9 466.7 10.9 C 465.1 10.9 464.1 11.8 464.1 13 C 464.1 16.1 471.4 15 471.4 20.2 C 471.4 22.6 469.5 24.4 466.5 24.4 C 464.5 24.4 462.9 23.7 461.7 22.3 Z M 473.4 16.8 C 473.4 12.6 475.6 9.2 479.3 9.2 C 483.1 9.2 485 12.6 485 16.8 C 485.03 16.82 485 17.5 485 17.5 C 485 17.5 475.64 17.48 475.6 17.5 C 475.7 20.4 477.2 22.6 479.8 22.6 C 481.1 22.6 482.4 22 483.3 20.8 C 483.3 20.8 484.4 22.1 484.4 22.1 C 483.2 23.5 481.6 24.4 479.6 24.4 C 475.8 24.4 473.4 21.2 473.4 16.8 Z M 479.3 11 C 476.7 11 475.7 13.8 475.6 15.9 C 475.6 15.9 482.9 15.9 482.9 15.9 C 482.9 13.7 481.9 11 479.3 11 Z M 488.6 27.8 C 488.6 27.8 487.5 26.9 487.5 26.9 C 488.4 26.3 489.3 25.1 489.4 24.1 C 489.3 24.1 489.1 24.2 489 24.2 C 488.2 24.2 487.6 23.5 487.6 22.7 C 487.6 21.8 488.3 21.1 489.2 21.1 C 490.1 21.1 491 21.9 491 23.4 C 491 25.2 489.9 26.8 488.6 27.8 Z M 502.6 21.9 C 502.57 21.92 502.6 29.5 502.6 29.5 L 500.4 29.5 L 500.4 9.5 L 502.6 9.5 C 502.6 9.5 502.57 11.6 502.6 11.6 C 503.4 10.1 504.9 9.2 506.4 9.2 C 509.7 9.2 511.6 12.2 511.6 16.8 C 511.6 21.3 509.7 24.4 506.4 24.4 C 504.9 24.4 503.5 23.5 502.6 21.9 Z M 509.3 16.8 C 509.3 13.6 508.2 11.1 505.8 11.1 C 504.5 11.1 503.1 12.2 502.6 13.4 C 502.6 13.4 502.6 20.1 502.6 20.1 C 503.1 21.3 504.5 22.5 505.8 22.5 C 508.2 22.5 509.3 19.9 509.3 16.8 Z M 522.3 24 C 522.3 24 522.34 13.67 522.3 13.7 C 522.3 11.8 521.4 11.1 520 11.1 C 518.6 11.1 517.3 12.2 516.6 13.4 C 516.61 13.4 516.6 24 516.6 24 L 514.5 24 L 514.5 4 L 516.6 4 C 516.6 4 516.61 11.6 516.6 11.6 C 517.5 10.3 519.1 9.2 520.8 9.2 C 523.3 9.2 524.5 10.4 524.5 13 C 524.47 13.04 524.5 24 524.5 24 L 522.3 24 Z M 527.4 16.8 C 527.4 12.6 529.6 9.2 533.3 9.2 C 537.1 9.2 539 12.6 539 16.8 C 539.02 16.82 539 17.5 539 17.5 C 539 17.5 529.63 17.48 529.6 17.5 C 529.7 20.4 531.2 22.6 533.8 22.6 C 535.1 22.6 536.4 22 537.3 20.8 C 537.3 20.8 538.4 22.1 538.4 22.1 C 537.2 23.5 535.6 24.4 533.6 24.4 C 529.8 24.4 527.4 21.2 527.4 16.8 Z M 533.3 11 C 530.7 11 529.7 13.8 529.6 15.9 C 529.6 15.9 536.9 15.9 536.9 15.9 C 536.9 13.7 535.9 11 533.3 11 Z M 549.7 24 C 549.7 24 549.7 13.7 549.7 13.7 C 549.7 11.8 548.8 11.1 547.4 11.1 C 546 11.1 544.7 12.2 544 13.4 C 544 13.4 544 24 544 24 L 541.9 24 L 541.9 9.5 L 544 9.5 C 544 9.5 544 11.6 544 11.6 C 544.8 10.3 546.5 9.2 548.2 9.2 C 550.7 9.2 551.9 10.5 551.9 13.1 C 551.86 13.1 551.9 24 551.9 24 L 549.7 24 Z M 555.1 27.8 C 555.4 27.9 555.8 28 556.1 28 C 556.9 28 557.4 27.7 557.8 26.5 C 557.77 26.54 558.6 24.3 558.6 24.3 L 553.7 9.5 L 556.1 9.5 L 559.7 21.4 L 563.3 9.5 L 565.6 9.5 C 565.6 9.5 559.81 27.08 559.8 27.1 C 559.1 29.2 557.9 29.9 556.2 29.9 C 555.8 29.9 555.1 29.8 554.8 29.7 C 554.8 29.7 555.1 27.8 555.1 27.8 Z M 567.5 24 L 567.5 4 L 569.6 4 L 569.6 24 L 567.5 24 Z M 572.2 17.7 L 572.2 15.8 L 578.4 15.8 L 578.4 17.7 L 572.2 17.7 Z M 580.5 21.1 C 580.5 21.1 582.1 19.7 582.1 19.7 C 583.1 21.3 584.4 22.3 586.4 22.3 C 588.6 22.3 589.9 20.2 589.9 17.9 C 589.9 15.1 588.6 13.5 586.5 13.5 C 585.1 13.5 584 14 582.9 15.4 C 582.88 15.35 581.1 14.8 581.1 14.8 L 581.1 4 L 591.3 4 L 591.3 6.1 L 583.5 6.1 C 583.5 6.1 583.48 13.13 583.5 13.1 C 584.3 12.2 585.6 11.4 587.2 11.4 C 590.1 11.4 592.4 13.7 592.4 17.8 C 592.4 21.6 589.9 24.4 586.4 24.4 C 583.5 24.4 581.8 23.1 580.5 21.1 Z M 594.3 17.7 L 594.3 15.8 L 600.5 15.8 L 600.5 17.7 L 594.3 17.7 Z " stroke="none" fill="#efd8d3"/>  </g></svg>