<?xml version="1.0" standalone="no"?><!DOCTYPE svg PUBLIC "-//W3C//DTD SVG 1.1//EN" "http://www.w3.org/Graphics/SVG/1.1/DTD/svg11.dtd"><svg xmlns="http://www.w3.org/2000/svg" version="1.1" width="274px" height="443px" viewBox="0 0 274 443">  <desc>Masking tape Paper pulp Hot melt glue sticks Putty Cellulose filler Tissue paper Cable insulation Petroleum jelly T</desc>  <defs/>  <g id="Polygon148042">    <path d="M 4.3 425.4 C 2.9 425.4 1.8 424.3 1.8 422.9 C 1.8 421.5 2.9 420.3 4.3 420.3 C 5.7 420.3 6.9 421.5 6.9 422.9 C 6.9 424.3 5.7 425.4 4.3 425.4 Z M 15 428.7 L 15 412.7 L 16.9 412.7 L 16.9 427 L 22.7 427 L 22.7 428.7 L 15 428.7 Z M 23.7 422.9 C 23.7 419.5 25.5 416.8 28.4 416.8 C 31.5 416.8 33 419.6 33 422.9 C 33 422.94 33 423.5 33 423.5 C 33 423.5 25.49 423.47 25.5 423.5 C 25.6 425.8 26.8 427.5 28.8 427.5 C 29.8 427.5 30.9 427 31.6 426.1 C 31.6 426.1 32.5 427.1 32.5 427.1 C 31.6 428.3 30.2 429 28.7 429 C 25.6 429 23.7 426.4 23.7 422.9 Z M 28.4 418.3 C 26.4 418.3 25.5 420.5 25.5 422.2 C 25.5 422.2 31.3 422.2 31.3 422.2 C 31.3 420.4 30.5 418.3 28.4 418.3 Z M 41.2 428.7 C 41.2 428.7 41.23 427.45 41.2 427.5 C 40.5 428.5 39.4 429 38.2 429 C 36.3 429 34.7 427.5 34.7 425.1 C 34.7 422.7 36.3 421.3 38.2 421.3 C 39.4 421.3 40.5 421.8 41.2 422.8 C 41.2 422.8 41.2 420.8 41.2 420.8 C 41.2 419.2 40.4 418.3 38.9 418.3 C 37.8 418.3 36.8 418.7 36 419.7 C 36 419.7 35.2 418.5 35.2 418.5 C 36.3 417.3 37.7 416.8 39.1 416.8 C 41.4 416.8 43 417.9 43 420.6 C 42.96 420.59 43 428.7 43 428.7 L 41.2 428.7 Z M 41.2 426.3 C 41.2 426.3 41.2 424.1 41.2 424.1 C 40.7 423.1 39.7 422.6 38.7 422.6 C 37.3 422.6 36.4 423.7 36.4 425.1 C 36.4 426.6 37.3 427.7 38.7 427.7 C 39.7 427.7 40.7 427.2 41.2 426.3 Z M 46.3 428.7 L 46.3 418.6 L 44.7 418.6 L 44.7 417.1 L 46.3 417.1 C 46.3 417.1 46.27 415.69 46.3 415.7 C 46.3 413.7 47.4 412.5 49.2 412.5 C 49.9 412.5 50.7 412.7 51.2 413.2 C 51.2 413.2 50.6 414.4 50.6 414.4 C 50.3 414.1 49.9 413.9 49.4 413.9 C 48.5 413.9 48 414.6 48 415.7 C 48 415.69 48 417.1 48 417.1 L 50 417.1 L 50 418.6 L 48 418.6 L 48 428.7 L 46.3 428.7 Z M 56.2 420.7 C 56.2 415.8 58.7 412.4 62.4 412.4 C 64.8 412.4 66.2 413.7 67.2 415.5 C 67.2 415.5 65.6 416.2 65.6 416.2 C 64.9 415 63.9 414.1 62.4 414.1 C 59.8 414.1 58.2 416.8 58.2 420.7 C 58.2 424.6 59.8 427.3 62.4 427.3 C 63.7 427.3 64.8 426.6 65.4 425.9 C 65.4 425.94 65.4 422.2 65.4 422.2 L 61.6 422.2 L 61.6 420.5 L 67.2 420.5 C 67.2 420.5 67.22 426.66 67.2 426.7 C 66 428.1 64.4 429 62.4 429 C 58.7 429 56.2 425.7 56.2 420.7 Z M 69.9 428.7 L 69.9 417.1 L 71.6 417.1 C 71.6 417.1 71.59 418.96 71.6 419 C 72.3 417.7 73.5 416.9 74.9 416.9 C 74.9 416.9 74.9 418.6 74.9 418.6 C 74.7 418.6 74.5 418.6 74.3 418.6 C 73.2 418.6 72.1 419.5 71.6 420.5 C 71.59 420.47 71.6 428.7 71.6 428.7 L 69.9 428.7 Z M 76.1 422.9 C 76.1 419.5 77.8 416.8 80.8 416.8 C 83.8 416.8 85.3 419.6 85.3 422.9 C 85.34 422.94 85.3 423.5 85.3 423.5 C 85.3 423.5 77.83 423.47 77.8 423.5 C 77.9 425.8 79.1 427.5 81.2 427.5 C 82.2 427.5 83.2 427 83.9 426.1 C 83.9 426.1 84.8 427.1 84.8 427.1 C 83.9 428.3 82.6 429 81 429 C 77.9 429 76.1 426.4 76.1 422.9 Z M 80.7 418.3 C 78.7 418.3 77.9 420.5 77.8 422.2 C 77.8 422.2 83.6 422.2 83.6 422.2 C 83.6 420.4 82.8 418.3 80.7 418.3 Z M 87 422.9 C 87 419.5 88.8 416.8 91.8 416.8 C 94.8 416.8 96.3 419.6 96.3 422.9 C 96.33 422.94 96.3 423.5 96.3 423.5 C 96.3 423.5 88.82 423.47 88.8 423.5 C 88.9 425.8 90.1 427.5 92.2 427.5 C 93.2 427.5 94.2 427 94.9 426.1 C 94.9 426.1 95.8 427.1 95.8 427.1 C 94.9 428.3 93.6 429 92 429 C 88.9 429 87 426.4 87 422.9 Z M 91.7 418.3 C 89.7 418.3 88.9 420.5 88.8 422.2 C 88.8 422.2 94.6 422.2 94.6 422.2 C 94.6 420.4 93.8 418.3 91.7 418.3 Z M 104.9 428.7 C 104.9 428.7 104.88 420.44 104.9 420.4 C 104.9 418.9 104.2 418.4 103 418.4 C 101.9 418.4 100.8 419.2 100.3 420.2 C 100.32 420.2 100.3 428.7 100.3 428.7 L 98.6 428.7 L 98.6 417.1 L 100.3 417.1 C 100.3 417.1 100.32 418.76 100.3 418.8 C 101 417.8 102.3 416.8 103.7 416.8 C 105.6 416.8 106.6 417.9 106.6 420 C 106.61 419.96 106.6 428.7 106.6 428.7 L 104.9 428.7 Z " stroke="none" fill="#7c7979"/>  </g>  <g id="Polygon148041">    <path d="M 4.3 389.4 C 2.9 389.4 1.8 388.3 1.8 386.9 C 1.8 385.5 2.9 384.3 4.3 384.3 C 5.7 384.3 6.9 385.5 6.9 386.9 C 6.9 388.3 5.7 389.4 4.3 389.4 Z M 14.4 384.7 C 14.4 379.9 16.8 376.4 20.6 376.4 C 23 376.4 24.4 377.9 25.3 379.5 C 25.3 379.5 23.7 380.3 23.7 380.3 C 23.1 379 22 378.1 20.6 378.1 C 18 378.1 16.4 380.9 16.4 384.7 C 16.4 388.5 18 391.3 20.6 391.3 C 22.1 391.3 23.1 390.3 23.7 388.9 C 23.7 388.9 25.3 389.7 25.3 389.7 C 24.5 391.4 23.1 393 20.6 393 C 16.8 393 14.4 389.5 14.4 384.7 Z M 33.4 392.7 C 33.4 392.7 33.36 391.45 33.4 391.5 C 32.6 392.5 31.5 393 30.3 393 C 28.4 393 26.8 391.5 26.8 389.1 C 26.8 386.7 28.4 385.3 30.3 385.3 C 31.5 385.3 32.6 385.8 33.4 386.8 C 33.4 386.8 33.4 384.8 33.4 384.8 C 33.4 383.2 32.5 382.3 31 382.3 C 29.9 382.3 29 382.7 28.1 383.7 C 28.1 383.7 27.3 382.5 27.3 382.5 C 28.4 381.3 29.8 380.8 31.2 380.8 C 33.6 380.8 35.1 381.9 35.1 384.6 C 35.09 384.59 35.1 392.7 35.1 392.7 L 33.4 392.7 Z M 33.4 390.3 C 33.4 390.3 33.4 388.1 33.4 388.1 C 32.8 387.1 31.9 386.6 30.9 386.6 C 29.4 386.6 28.6 387.7 28.6 389.1 C 28.6 390.6 29.4 391.7 30.9 391.7 C 31.9 391.7 32.8 391.2 33.4 390.3 Z M 44.6 392.7 C 44.6 392.7 44.62 391.04 44.6 391 C 43.9 392.2 42.8 393 41.6 393 C 39 393 37.4 390.6 37.4 386.9 C 37.4 383.3 39 380.8 41.6 380.8 C 42.7 380.8 43.9 381.5 44.6 382.8 C 44.62 382.79 44.6 376.7 44.6 376.7 L 46.3 376.7 L 46.3 392.7 L 44.6 392.7 Z M 44.6 389.6 C 44.6 389.6 44.6 384.3 44.6 384.3 C 44.2 383.2 43.1 382.4 42 382.4 C 40.1 382.4 39.2 384.4 39.2 386.9 C 39.2 389.4 40.1 391.5 42 391.5 C 43.1 391.5 44.2 390.6 44.6 389.6 Z M 61 392.7 C 61 392.7 60.98 384.3 61 384.3 C 61 383.1 60.5 382.4 59.4 382.4 C 58.3 382.4 57.3 383.3 56.9 384.2 C 56.85 384.2 56.9 392.7 56.9 392.7 L 55.1 392.7 C 55.1 392.7 55.13 384.3 55.1 384.3 C 55.1 383.1 54.6 382.4 53.5 382.4 C 52.5 382.4 51.5 383.3 51 384.2 C 50.97 384.2 51 392.7 51 392.7 L 49.3 392.7 L 49.3 381.1 L 51 381.1 C 51 381.1 50.97 382.76 51 382.8 C 51.5 381.9 52.8 380.8 54.1 380.8 C 55.6 380.8 56.5 381.7 56.8 382.9 C 57.3 381.8 58.6 380.8 60 380.8 C 61.7 380.8 62.7 381.8 62.7 383.8 C 62.71 383.84 62.7 392.7 62.7 392.7 L 61 392.7 Z M 65.3 378.3 C 65.3 377.6 65.9 377.1 66.5 377.1 C 67.1 377.1 67.7 377.6 67.7 378.3 C 67.7 378.9 67.1 379.4 66.5 379.4 C 65.9 379.4 65.3 378.9 65.3 378.3 Z M 65.6 392.7 L 65.6 381.1 L 67.3 381.1 L 67.3 392.7 L 65.6 392.7 Z M 76.5 392.7 C 76.5 392.7 76.53 391.09 76.5 391.1 C 75.8 392.1 74.6 393 73.2 393 C 71.2 393 70.3 392 70.3 389.9 C 70.27 389.89 70.3 381.1 70.3 381.1 L 72 381.1 C 72 381.1 71.97 389.39 72 389.4 C 72 390.9 72.7 391.5 73.8 391.5 C 75 391.5 76 390.6 76.5 389.7 C 76.53 389.65 76.5 381.1 76.5 381.1 L 78.3 381.1 L 78.3 392.7 L 76.5 392.7 Z M 92.9 392.7 C 92.9 392.7 92.9 384.3 92.9 384.3 C 92.9 383.1 92.4 382.4 91.3 382.4 C 90.3 382.4 89.2 383.3 88.8 384.2 C 88.77 384.2 88.8 392.7 88.8 392.7 L 87 392.7 C 87 392.7 87.05 384.3 87 384.3 C 87 383.1 86.5 382.4 85.4 382.4 C 84.4 382.4 83.4 383.3 82.9 384.2 C 82.89 384.2 82.9 392.7 82.9 392.7 L 81.2 392.7 L 81.2 381.1 L 82.9 381.1 C 82.9 381.1 82.89 382.76 82.9 382.8 C 83.4 381.9 84.7 380.8 86.1 380.8 C 87.6 380.8 88.5 381.7 88.7 382.9 C 89.3 381.8 90.6 380.8 91.9 380.8 C 93.6 380.8 94.6 381.8 94.6 383.8 C 94.63 383.84 94.6 392.7 94.6 392.7 L 92.9 392.7 Z M 105.9 392.7 L 105.9 385.9 L 101 376.7 L 103.1 376.7 L 106.9 384.1 L 110.7 376.7 L 112.8 376.7 L 107.8 385.9 L 107.8 392.7 L 105.9 392.7 Z M 111.4 386.9 C 111.4 383.5 113.2 380.8 116.1 380.8 C 119.2 380.8 120.7 383.6 120.7 386.9 C 120.72 386.94 120.7 387.5 120.7 387.5 C 120.7 387.5 113.21 387.47 113.2 387.5 C 113.3 389.8 114.5 391.5 116.5 391.5 C 117.5 391.5 118.6 391 119.3 390.1 C 119.3 390.1 120.2 391.1 120.2 391.1 C 119.3 392.3 118 393 116.4 393 C 113.3 393 111.4 390.4 111.4 386.9 Z M 116.1 382.3 C 114.1 382.3 113.3 384.5 113.2 386.2 C 113.2 386.2 119 386.2 119 386.2 C 119 384.4 118.2 382.3 116.1 382.3 Z M 123 392.7 L 123 376.7 L 124.7 376.7 L 124.7 392.7 L 123 392.7 Z M 127.6 392.7 L 127.6 376.7 L 129.3 376.7 L 129.3 392.7 L 127.6 392.7 Z M 131.7 386.9 C 131.7 383.6 133.3 380.8 136.4 380.8 C 139.5 380.8 141.1 383.6 141.1 386.9 C 141.1 390.2 139.5 393 136.4 393 C 133.3 393 131.7 390.2 131.7 386.9 Z M 139.3 386.9 C 139.3 384.6 138.4 382.4 136.4 382.4 C 134.4 382.4 133.5 384.6 133.5 386.9 C 133.5 389.2 134.4 391.5 136.4 391.5 C 138.4 391.5 139.3 389.2 139.3 386.9 Z M 152 392.7 L 149.5 383.4 L 147 392.7 L 145.3 392.7 L 142.2 381.1 L 144 381.1 L 146.3 390.4 L 148.7 381.1 L 150.3 381.1 L 152.8 390.4 L 155.1 381.1 L 156.9 381.1 L 153.8 392.7 L 152 392.7 Z " stroke="none" fill="#7c7979"/>  </g>  <g id="Polygon148040">    <path d="M 4.3 353.4 C 2.9 353.4 1.8 352.3 1.8 350.9 C 1.8 349.5 2.9 348.3 4.3 348.3 C 5.7 348.3 6.9 349.5 6.9 350.9 C 6.9 352.3 5.7 353.4 4.3 353.4 Z M 15 356.7 L 15 340.7 C 15 340.7 20.26 340.69 20.3 340.7 C 22.8 340.7 24.2 342.3 24.2 344.8 C 24.2 346.8 23.2 348.1 21.8 348.4 C 23.3 348.7 24.5 350.5 24.5 352.4 C 24.5 355 23.1 356.7 20.4 356.7 C 20.4 356.7 15 356.7 15 356.7 Z M 22.2 345 C 22.2 343.5 21.5 342.4 19.9 342.4 C 19.9 342.37 16.9 342.4 16.9 342.4 L 16.9 347.7 C 16.9 347.7 19.9 347.68 19.9 347.7 C 21.5 347.7 22.2 346.5 22.2 345 Z M 22.5 352.2 C 22.5 350.7 21.7 349.4 20 349.4 C 20.02 349.36 16.9 349.4 16.9 349.4 L 16.9 355 C 16.9 355 20.02 355 20 355 C 21.7 355 22.5 353.9 22.5 352.2 Z M 33.3 356.7 C 33.3 356.7 33.26 355.09 33.3 355.1 C 32.6 356.1 31.3 357 29.9 357 C 27.9 357 27 356 27 353.9 C 27 353.89 27 345.1 27 345.1 L 28.7 345.1 C 28.7 345.1 28.7 353.39 28.7 353.4 C 28.7 354.9 29.4 355.5 30.6 355.5 C 31.7 355.5 32.8 354.6 33.3 353.7 C 33.26 353.65 33.3 345.1 33.3 345.1 L 35 345.1 L 35 356.7 L 33.3 356.7 Z M 37.9 356.7 L 37.9 345.1 L 39.6 345.1 C 39.6 345.1 39.62 346.96 39.6 347 C 40.4 345.7 41.5 344.9 42.9 344.9 C 42.9 344.9 42.9 346.6 42.9 346.6 C 42.7 346.6 42.5 346.6 42.3 346.6 C 41.3 346.6 40.1 347.5 39.6 348.5 C 39.62 348.47 39.6 356.7 39.6 356.7 L 37.9 356.7 Z M 50.9 356.7 C 50.9 356.7 50.93 348.44 50.9 348.4 C 50.9 346.9 50.2 346.4 49.1 346.4 C 48 346.4 46.9 347.2 46.4 348.2 C 46.37 348.2 46.4 356.7 46.4 356.7 L 44.7 356.7 L 44.7 345.1 L 46.4 345.1 C 46.4 345.1 46.37 346.76 46.4 346.8 C 47 345.8 48.3 344.8 49.7 344.8 C 51.7 344.8 52.7 345.9 52.7 348 C 52.65 347.96 52.7 356.7 52.7 356.7 L 50.9 356.7 Z M 55.9 354.4 C 55.92 354.37 55.9 346.6 55.9 346.6 L 54.4 346.6 L 54.4 345.1 L 55.9 345.1 L 55.9 341.9 L 57.6 341.9 L 57.6 345.1 L 59.6 345.1 L 59.6 346.6 L 57.6 346.6 C 57.6 346.6 57.65 354.06 57.6 354.1 C 57.6 354.9 57.9 355.5 58.6 355.5 C 59 355.5 59.4 355.3 59.6 355 C 59.6 355 60.1 356.3 60.1 356.3 C 59.7 356.7 59.1 357 58.2 357 C 56.7 357 55.9 356.1 55.9 354.4 Z M 65.7 355 C 65.7 355 66.7 353.5 66.7 353.5 C 67.6 354.5 68.9 355.3 70.5 355.3 C 72.5 355.3 73.4 354 73.4 352.7 C 73.4 348.8 66.2 349.8 66.2 344.6 C 66.2 342.2 68.1 340.4 70.8 340.4 C 72.5 340.4 74 341 75 342.1 C 75 342.1 74 343.5 74 343.5 C 73.2 342.6 72 342.1 70.7 342.1 C 69.2 342.1 68.1 343.1 68.1 344.5 C 68.1 347.9 75.3 347.2 75.3 352.5 C 75.3 354.9 73.8 357 70.5 357 C 68.4 357 66.8 356.2 65.7 355 Z M 77.3 342.3 C 77.3 341.6 77.8 341.1 78.5 341.1 C 79.1 341.1 79.6 341.6 79.6 342.3 C 79.6 342.9 79.1 343.4 78.5 343.4 C 77.8 343.4 77.3 342.9 77.3 342.3 Z M 77.6 356.7 L 77.6 345.1 L 79.3 345.1 L 79.3 356.7 L 77.6 356.7 Z M 81.7 350.9 C 81.7 347.5 83.4 344.8 86.4 344.8 C 89.4 344.8 91 347.6 91 350.9 C 90.96 350.94 91 351.5 91 351.5 C 91 351.5 83.45 351.47 83.4 351.5 C 83.5 353.8 84.7 355.5 86.8 355.5 C 87.8 355.5 88.8 355 89.5 354.1 C 89.5 354.1 90.5 355.1 90.5 355.1 C 89.5 356.3 88.2 357 86.6 357 C 83.5 357 81.7 354.4 81.7 350.9 Z M 86.3 346.3 C 84.3 346.3 83.5 348.5 83.4 350.2 C 83.4 350.2 89.3 350.2 89.3 350.2 C 89.2 348.4 88.5 346.3 86.3 346.3 Z M 99.5 356.7 C 99.5 356.7 99.5 348.44 99.5 348.4 C 99.5 346.9 98.8 346.4 97.7 346.4 C 96.5 346.4 95.5 347.2 94.9 348.2 C 94.94 348.2 94.9 356.7 94.9 356.7 L 93.2 356.7 L 93.2 345.1 L 94.9 345.1 C 94.9 345.1 94.94 346.76 94.9 346.8 C 95.6 345.8 96.9 344.8 98.3 344.8 C 100.3 344.8 101.2 345.9 101.2 348 C 101.23 347.96 101.2 356.7 101.2 356.7 L 99.5 356.7 Z M 110.4 356.7 C 110.4 356.7 110.42 348.44 110.4 348.4 C 110.4 346.9 109.7 346.4 108.6 346.4 C 107.4 346.4 106.4 347.2 105.9 348.2 C 105.86 348.2 105.9 356.7 105.9 356.7 L 104.2 356.7 L 104.2 345.1 L 105.9 345.1 C 105.9 345.1 105.86 346.76 105.9 346.8 C 106.5 345.8 107.8 344.8 109.2 344.8 C 111.2 344.8 112.1 345.9 112.1 348 C 112.15 347.96 112.1 356.7 112.1 356.7 L 110.4 356.7 Z M 121 356.7 C 121 356.7 121.03 355.45 121 355.5 C 120.3 356.5 119.2 357 118 357 C 116.1 357 114.5 355.5 114.5 353.1 C 114.5 350.7 116.1 349.3 118 349.3 C 119.2 349.3 120.3 349.8 121 350.8 C 121 350.8 121 348.8 121 348.8 C 121 347.2 120.2 346.3 118.7 346.3 C 117.6 346.3 116.6 346.7 115.7 347.7 C 115.7 347.7 115 346.5 115 346.5 C 116.1 345.3 117.5 344.8 118.9 344.8 C 121.2 344.8 122.8 345.9 122.8 348.6 C 122.76 348.59 122.8 356.7 122.8 356.7 L 121 356.7 Z M 121 354.3 C 121 354.3 121 352.1 121 352.1 C 120.5 351.1 119.5 350.6 118.5 350.6 C 117.1 350.6 116.2 351.7 116.2 353.1 C 116.2 354.6 117.1 355.7 118.5 355.7 C 119.5 355.7 120.5 355.2 121 354.3 Z " stroke="none" fill="#7c7979"/>  </g>  <g id="Polygon148039">    <path d="M 12.8 320.7 L 4.5 305.8 L 4.5 320.7 L 2.1 320.7 L 2.1 300.7 L 4.5 300.7 L 12.7 315.3 L 12.7 300.7 L 15.1 300.7 L 15.1 320.7 L 12.8 320.7 Z M 18.1 313.4 C 18.1 309.4 20.2 305.9 24 305.9 C 27.9 305.9 29.9 309.4 29.9 313.4 C 29.9 317.5 27.9 321.1 24 321.1 C 20.2 321.1 18.1 317.5 18.1 313.4 Z M 27.7 313.4 C 27.7 310.5 26.5 307.8 24 307.8 C 21.5 307.8 20.4 310.5 20.4 313.4 C 20.4 316.4 21.5 319.1 24 319.1 C 26.5 319.1 27.7 316.4 27.7 313.4 Z M 40.7 320.7 C 40.7 320.7 40.68 310.38 40.7 310.4 C 40.7 308.5 39.8 307.8 38.4 307.8 C 37 307.8 35.6 308.9 35 310.1 C 34.98 310.08 35 320.7 35 320.7 L 32.8 320.7 L 32.8 306.2 L 35 306.2 C 35 306.2 34.98 308.28 35 308.3 C 35.8 307 37.4 305.9 39.2 305.9 C 41.6 305.9 42.8 307.2 42.8 309.8 C 42.84 309.78 42.8 320.7 42.8 320.7 L 40.7 320.7 Z M 45.4 314.4 L 45.4 312.5 L 51.6 312.5 L 51.6 314.4 L 45.4 314.4 Z M 54.6 317.8 C 54.63 317.79 54.6 308.1 54.6 308.1 L 52.7 308.1 L 52.7 306.2 L 54.6 306.2 L 54.6 302.3 L 56.8 302.3 L 56.8 306.2 L 59.2 306.2 L 59.2 308.1 L 56.8 308.1 C 56.8 308.1 56.79 317.4 56.8 317.4 C 56.8 318.5 57.1 319.1 58 319.1 C 58.5 319.1 58.9 318.9 59.2 318.6 C 59.2 318.6 59.9 320.2 59.9 320.2 C 59.4 320.7 58.6 321.1 57.5 321.1 C 55.6 321.1 54.6 320 54.6 317.8 Z M 61.1 313.4 C 61.1 309.4 63.1 305.9 67 305.9 C 70.9 305.9 72.9 309.4 72.9 313.4 C 72.9 317.5 70.9 321.1 67 321.1 C 63.1 321.1 61.1 317.5 61.1 313.4 Z M 70.6 313.4 C 70.6 310.5 69.5 307.8 67 307.8 C 64.5 307.8 63.3 310.5 63.3 313.4 C 63.3 316.4 64.5 319.1 67 319.1 C 69.5 319.1 70.6 316.4 70.6 313.4 Z M 82.5 320.7 L 79.2 314.9 L 75.8 320.7 L 73.4 320.7 L 77.8 313.3 L 73.7 306.2 L 76.1 306.2 L 79.2 311.7 L 82.3 306.2 L 84.7 306.2 L 80.5 313.3 L 84.9 320.7 L 82.5 320.7 Z M 86.5 302.6 C 86.5 301.8 87.2 301.2 88 301.2 C 88.8 301.2 89.5 301.8 89.5 302.6 C 89.5 303.5 88.8 304.1 88 304.1 C 87.2 304.1 86.5 303.5 86.5 302.6 Z M 86.9 320.7 L 86.9 306.2 L 89.1 306.2 L 89.1 320.7 L 86.9 320.7 Z M 92 313.4 C 92 309.2 94.3 305.9 98 305.9 C 100 305.9 101.2 306.7 102.1 307.8 C 102.1 307.8 101 309.2 101 309.2 C 100.2 308.2 99.3 307.8 98.2 307.8 C 95.6 307.8 94.3 310.4 94.3 313.4 C 94.3 316.5 95.6 319.1 98.2 319.1 C 99.3 319.1 100.2 318.7 101 317.7 C 101 317.7 102.1 319.1 102.1 319.1 C 101.2 320.3 100 321.1 98 321.1 C 94.3 321.1 92 317.7 92 313.4 Z M 118.2 320.7 C 118.2 320.7 118.2 319.14 118.2 319.1 C 117.3 320.5 115.9 321.1 114.4 321.1 C 112 321.1 110 319.3 110 316.2 C 110 313.2 112 311.5 114.4 311.5 C 115.9 311.5 117.3 312 118.2 313.3 C 118.2 313.3 118.2 310.8 118.2 310.8 C 118.2 308.8 117.1 307.7 115.2 307.7 C 113.9 307.7 112.7 308.2 111.6 309.5 C 111.6 309.5 110.6 308 110.6 308 C 112 306.5 113.7 305.9 115.6 305.9 C 118.4 305.9 120.4 307.3 120.4 310.6 C 120.36 310.56 120.4 320.7 120.4 320.7 L 118.2 320.7 Z M 118.2 317.7 C 118.2 317.7 118.2 314.9 118.2 314.9 C 117.5 313.7 116.3 313.1 115.1 313.1 C 113.3 313.1 112.2 314.5 112.2 316.3 C 112.2 318.1 113.3 319.5 115.1 319.5 C 116.3 319.5 117.5 318.9 118.2 317.7 Z M 123.3 313.4 C 123.3 309.2 125.5 305.9 129.3 305.9 C 131.3 305.9 132.5 306.7 133.4 307.8 C 133.4 307.8 132.2 309.2 132.2 309.2 C 131.5 308.2 130.6 307.8 129.4 307.8 C 126.9 307.8 125.5 310.4 125.5 313.4 C 125.5 316.5 126.9 319.1 129.4 319.1 C 130.6 319.1 131.5 318.7 132.2 317.7 C 132.2 317.7 133.4 319.1 133.4 319.1 C 132.5 320.3 131.3 321.1 129.3 321.1 C 125.5 321.1 123.3 317.7 123.3 313.4 Z M 135.9 320.7 L 135.9 306.2 L 138 306.2 C 138 306.2 138 308.52 138 308.5 C 138.9 307 140.3 305.9 142.1 305.9 C 142.1 305.9 142.1 308.1 142.1 308.1 C 141.9 308.1 141.6 308 141.4 308 C 140.1 308 138.6 309.2 138 310.4 C 138 310.41 138 320.7 138 320.7 L 135.9 320.7 Z M 143.9 324.5 C 144.1 324.6 144.6 324.7 144.8 324.7 C 145.7 324.7 146.2 324.3 146.5 323.2 C 146.55 323.22 147.3 321 147.3 321 L 142.5 306.2 L 144.8 306.2 L 148.4 318.1 L 152.1 306.2 L 154.4 306.2 C 154.4 306.2 148.59 323.76 148.6 323.8 C 147.9 325.9 146.7 326.6 145 326.6 C 144.5 326.6 143.9 326.5 143.5 326.4 C 143.5 326.4 143.9 324.5 143.9 324.5 Z M 156.2 320.7 L 156.2 300.7 L 158.4 300.7 L 158.4 320.7 L 156.2 320.7 Z M 161.6 302.6 C 161.6 301.8 162.3 301.2 163.1 301.2 C 163.9 301.2 164.5 301.8 164.5 302.6 C 164.5 303.5 163.9 304.1 163.1 304.1 C 162.3 304.1 161.6 303.5 161.6 302.6 Z M 162 320.7 L 162 306.2 L 164.2 306.2 L 164.2 320.7 L 162 320.7 Z M 167.1 313.4 C 167.1 309.2 169.4 305.9 173.1 305.9 C 175.1 305.9 176.3 306.7 177.2 307.8 C 177.2 307.8 176.1 309.2 176.1 309.2 C 175.3 308.2 174.4 307.8 173.3 307.8 C 170.7 307.8 169.3 310.4 169.3 313.4 C 169.3 316.5 170.7 319.1 173.3 319.1 C 174.4 319.1 175.3 318.7 176.1 317.7 C 176.1 317.7 177.2 319.1 177.2 319.1 C 176.3 320.3 175.1 321.1 173.1 321.1 C 169.4 321.1 167.1 317.7 167.1 313.4 Z M 188 318.6 C 187.98 318.6 188 326.2 188 326.2 L 185.8 326.2 L 185.8 306.2 L 188 306.2 C 188 306.2 187.98 308.28 188 308.3 C 188.8 306.8 190.3 305.9 191.8 305.9 C 195.1 305.9 197 308.9 197 313.4 C 197 318 195.1 321.1 191.8 321.1 C 190.3 321.1 188.9 320.2 188 318.6 Z M 194.7 313.4 C 194.7 310.3 193.6 307.8 191.2 307.8 C 189.9 307.8 188.5 308.9 188 310.1 C 188 310.1 188 316.7 188 316.7 C 188.5 318 189.9 319.1 191.2 319.1 C 193.6 319.1 194.7 316.6 194.7 313.4 Z M 207.3 320.7 C 207.3 320.7 207.33 319.14 207.3 319.1 C 206.4 320.5 205 321.1 203.5 321.1 C 201.2 321.1 199.1 319.3 199.1 316.2 C 199.1 313.2 201.1 311.5 203.5 311.5 C 205 311.5 206.4 312 207.3 313.3 C 207.3 313.3 207.3 310.8 207.3 310.8 C 207.3 308.8 206.2 307.7 204.4 307.7 C 203 307.7 201.8 308.2 200.7 309.5 C 200.7 309.5 199.8 308 199.8 308 C 201.1 306.5 202.9 305.9 204.7 305.9 C 207.6 305.9 209.5 307.3 209.5 310.6 C 209.49 310.56 209.5 320.7 209.5 320.7 L 207.3 320.7 Z M 207.3 317.7 C 207.3 317.7 207.3 314.9 207.3 314.9 C 206.7 313.7 205.5 313.1 204.2 313.1 C 202.4 313.1 201.3 314.5 201.3 316.3 C 201.3 318.1 202.4 319.5 204.2 319.5 C 205.5 319.5 206.7 318.9 207.3 317.7 Z M 212.7 302.6 C 212.7 301.8 213.4 301.2 214.2 301.2 C 215 301.2 215.6 301.8 215.6 302.6 C 215.6 303.5 215 304.1 214.2 304.1 C 213.4 304.1 212.7 303.5 212.7 302.6 Z M 213.1 320.7 L 213.1 306.2 L 215.2 306.2 L 215.2 320.7 L 213.1 320.7 Z M 226.7 320.7 C 226.7 320.7 226.73 310.38 226.7 310.4 C 226.7 308.5 225.9 307.8 224.4 307.8 C 223 307.8 221.7 308.9 221 310.1 C 221.03 310.08 221 320.7 221 320.7 L 218.9 320.7 L 218.9 306.2 L 221 306.2 C 221 306.2 221.03 308.28 221 308.3 C 221.9 307 223.5 305.9 225.2 305.9 C 227.7 305.9 228.9 307.2 228.9 309.8 C 228.89 309.78 228.9 320.7 228.9 320.7 L 226.7 320.7 Z M 233 317.8 C 232.97 317.79 233 308.1 233 308.1 L 231.1 308.1 L 231.1 306.2 L 233 306.2 L 233 302.3 L 235.1 302.3 L 235.1 306.2 L 237.6 306.2 L 237.6 308.1 L 235.1 308.1 C 235.1 308.1 235.13 317.4 235.1 317.4 C 235.1 318.5 235.5 319.1 236.3 319.1 C 236.8 319.1 237.3 318.9 237.6 318.6 C 237.6 318.6 238.2 320.2 238.2 320.2 C 237.7 320.7 237 321.1 235.9 321.1 C 233.9 321.1 233 320 233 317.8 Z " stroke="none" fill="#d3d2d2"/>  </g>  <g id="Polygon148038">    <path d="M 5.5 284.7 L 5.5 266.8 L 0.8 266.8 L 0.8 264.7 L 12.6 264.7 L 12.6 266.8 L 7.9 266.8 L 7.9 284.7 L 5.5 284.7 Z M 11.9 277.4 C 11.9 273.4 13.9 269.9 17.7 269.9 C 21.6 269.9 23.6 273.4 23.6 277.4 C 23.6 281.5 21.6 285.1 17.7 285.1 C 13.9 285.1 11.9 281.5 11.9 277.4 Z M 21.4 277.4 C 21.4 274.5 20.3 271.8 17.7 271.8 C 15.2 271.8 14.1 274.5 14.1 277.4 C 14.1 280.4 15.2 283.1 17.7 283.1 C 20.3 283.1 21.4 280.4 21.4 277.4 Z M 25.9 277.4 C 25.9 273.4 27.9 269.9 31.7 269.9 C 35.6 269.9 37.6 273.4 37.6 277.4 C 37.6 281.5 35.6 285.1 31.7 285.1 C 27.9 285.1 25.9 281.5 25.9 277.4 Z M 35.4 277.4 C 35.4 274.5 34.3 271.8 31.7 271.8 C 29.2 271.8 28.1 274.5 28.1 277.4 C 28.1 280.4 29.2 283.1 31.7 283.1 C 34.3 283.1 35.4 280.4 35.4 277.4 Z M 41 281.8 C 41.01 281.79 41 272.1 41 272.1 L 39.1 272.1 L 39.1 270.2 L 41 270.2 L 41 266.3 L 43.2 266.3 L 43.2 270.2 L 45.6 270.2 L 45.6 272.1 L 43.2 272.1 C 43.2 272.1 43.17 281.4 43.2 281.4 C 43.2 282.5 43.5 283.1 44.3 283.1 C 44.9 283.1 45.3 282.9 45.6 282.6 C 45.6 282.6 46.3 284.2 46.3 284.2 C 45.7 284.7 45 285.1 43.9 285.1 C 41.9 285.1 41 284 41 281.8 Z M 56 284.7 C 56 284.7 56.04 274.35 56 274.4 C 56 272.4 55.1 271.8 53.7 271.8 C 52.3 271.8 51 272.9 50.3 274.1 C 50.31 274.08 50.3 284.7 50.3 284.7 L 48.2 284.7 L 48.2 264.7 L 50.3 264.7 C 50.3 264.7 50.31 272.28 50.3 272.3 C 51.1 271 52.8 269.9 54.5 269.9 C 57 269.9 58.2 271.1 58.2 273.7 C 58.17 273.72 58.2 284.7 58.2 284.7 L 56 284.7 Z M 67.2 283.1 C 69.6 283.1 70.7 280.6 70.7 277.5 C 70.7 274.3 69.6 271.8 67.2 271.8 C 65.9 271.8 64.5 272.9 64 274.2 C 64 274.2 64 280.8 64 280.8 C 64.5 282.1 65.9 283.1 67.2 283.1 Z M 61.8 284.7 L 61.8 264.7 L 64 264.7 C 64 264.7 63.96 272.31 64 272.3 C 64.9 270.7 66.3 269.9 67.8 269.9 C 71 269.9 73 273 73 277.5 C 73 282 71 285.1 67.8 285.1 C 66.2 285.1 64.8 284.1 64 282.6 C 63.96 282.63 64 284.7 64 284.7 L 61.8 284.7 Z M 75.9 284.7 L 75.9 270.2 L 78.1 270.2 C 78.1 270.2 78.06 272.52 78.1 272.5 C 79 271 80.4 269.9 82.2 269.9 C 82.2 269.9 82.2 272.1 82.2 272.1 C 81.9 272.1 81.7 272 81.4 272 C 80.1 272 78.7 273.2 78.1 274.4 C 78.06 274.41 78.1 284.7 78.1 284.7 L 75.9 284.7 Z M 92.2 284.7 C 92.2 284.7 92.19 282.69 92.2 282.7 C 91.3 284 89.8 285.1 88 285.1 C 85.5 285.1 84.4 283.8 84.4 281.2 C 84.36 281.19 84.4 270.2 84.4 270.2 L 86.5 270.2 C 86.5 270.2 86.49 280.56 86.5 280.6 C 86.5 282.5 87.4 283.1 88.8 283.1 C 90.2 283.1 91.6 282.1 92.2 280.9 C 92.19 280.89 92.2 270.2 92.2 270.2 L 94.3 270.2 L 94.3 284.7 L 92.2 284.7 Z M 96.8 283 C 96.8 283 97.9 281.5 97.9 281.5 C 98.8 282.5 100.1 283.3 101.7 283.3 C 103.4 283.3 104.5 282.4 104.5 281 C 104.5 277.6 97.3 278.8 97.3 273.8 C 97.3 271.6 99 269.9 101.9 269.9 C 103.8 269.9 105.3 270.6 106.3 271.7 C 106.3 271.7 105.3 273.2 105.3 273.2 C 104.5 272.2 103.3 271.6 101.9 271.6 C 100.3 271.6 99.3 272.5 99.3 273.7 C 99.3 276.8 106.6 275.7 106.6 280.9 C 106.6 283.3 104.7 285.1 101.7 285.1 C 99.7 285.1 98 284.4 96.8 283 Z M 117.2 284.7 C 117.2 284.7 117.18 274.35 117.2 274.4 C 117.2 272.4 116.3 271.8 114.8 271.8 C 113.4 271.8 112.1 272.9 111.4 274.1 C 111.45 274.08 111.4 284.7 111.4 284.7 L 109.3 284.7 L 109.3 264.7 L 111.4 264.7 C 111.4 264.7 111.45 272.28 111.4 272.3 C 112.3 271 113.9 269.9 115.7 269.9 C 118.1 269.9 119.3 271.1 119.3 273.7 C 119.31 273.72 119.3 284.7 119.3 284.7 L 117.2 284.7 Z M 137 284.7 C 137 284.7 136.98 274.35 137 274.4 C 137 272.4 136.1 271.8 134.6 271.8 C 133.2 271.8 131.9 272.9 131.2 274.1 C 131.25 274.08 131.2 284.7 131.2 284.7 L 129.1 284.7 L 129.1 264.7 L 131.2 264.7 C 131.2 264.7 131.25 272.28 131.2 272.3 C 132.1 271 133.7 269.9 135.5 269.9 C 137.9 269.9 139.1 271.1 139.1 273.7 C 139.11 273.72 139.1 284.7 139.1 284.7 L 137 284.7 Z M 150.2 284.7 C 150.2 284.7 150.21 283.14 150.2 283.1 C 149.3 284.5 147.9 285.1 146.4 285.1 C 144.1 285.1 142 283.3 142 280.2 C 142 277.2 144 275.5 146.4 275.5 C 147.9 275.5 149.3 276 150.2 277.3 C 150.2 277.3 150.2 274.8 150.2 274.8 C 150.2 272.8 149.1 271.7 147.2 271.7 C 145.9 271.7 144.7 272.2 143.6 273.5 C 143.6 273.5 142.6 272 142.6 272 C 144 270.5 145.7 269.9 147.6 269.9 C 150.4 269.9 152.4 271.3 152.4 274.6 C 152.37 274.56 152.4 284.7 152.4 284.7 L 150.2 284.7 Z M 150.2 281.7 C 150.2 281.7 150.2 278.9 150.2 278.9 C 149.5 277.7 148.3 277.1 147.1 277.1 C 145.3 277.1 144.2 278.5 144.2 280.3 C 144.2 282.1 145.3 283.5 147.1 283.5 C 148.3 283.5 149.5 282.9 150.2 281.7 Z M 163.8 284.7 C 163.8 284.7 163.83 274.38 163.8 274.4 C 163.8 272.5 163 271.8 161.5 271.8 C 160.1 271.8 158.8 272.9 158.1 274.1 C 158.13 274.08 158.1 284.7 158.1 284.7 L 156 284.7 L 156 270.2 L 158.1 270.2 C 158.1 270.2 158.13 272.28 158.1 272.3 C 159 271 160.6 269.9 162.3 269.9 C 164.8 269.9 166 271.2 166 273.8 C 165.99 273.78 166 284.7 166 284.7 L 163.8 284.7 Z M 177.9 284.7 C 177.9 284.7 177.93 282.63 177.9 282.6 C 177.1 284.1 175.6 285.1 174.1 285.1 C 170.9 285.1 168.9 282 168.9 277.5 C 168.9 273 170.8 269.9 174.1 269.9 C 175.6 269.9 177.1 270.7 177.9 272.3 C 177.93 272.31 177.9 264.7 177.9 264.7 L 180.1 264.7 L 180.1 284.7 L 177.9 284.7 Z M 177.9 280.8 C 177.9 280.8 177.9 274.1 177.9 274.1 C 177.4 272.9 176 271.8 174.7 271.8 C 172.3 271.8 171.2 274.3 171.2 277.5 C 171.2 280.6 172.3 283.1 174.7 283.1 C 176 283.1 177.4 282.1 177.9 280.8 Z M 183.7 284.7 L 183.7 264.7 L 185.9 264.7 L 185.9 284.7 L 183.7 284.7 Z M 188.8 277.4 C 188.8 273.2 191 269.9 194.7 269.9 C 198.5 269.9 200.4 273.3 200.4 277.5 C 200.43 277.5 200.4 278.2 200.4 278.2 C 200.4 278.2 191.04 278.16 191 278.2 C 191.1 281.1 192.6 283.3 195.2 283.3 C 196.5 283.3 197.8 282.6 198.7 281.5 C 198.7 281.5 199.8 282.8 199.8 282.8 C 198.6 284.2 197 285.1 195 285.1 C 191.2 285.1 188.8 281.9 188.8 277.4 Z M 194.7 271.7 C 192.1 271.7 191.1 274.4 191 276.6 C 191 276.6 198.3 276.6 198.3 276.6 C 198.3 274.4 197.3 271.7 194.7 271.7 Z " stroke="none" fill="#d3d2d2"/>  </g>  <g id="Polygon148037">    <path d="M 2.1 248.7 L 2.1 228.7 C 2.1 228.7 8.19 228.69 8.2 228.7 C 11.8 228.7 13.7 231.5 13.7 234.7 C 13.7 237.9 11.8 240.7 8.2 240.7 C 8.19 240.69 4.5 240.7 4.5 240.7 L 4.5 248.7 L 2.1 248.7 Z M 11.3 234.7 C 11.3 232.4 10 230.8 7.9 230.8 C 7.95 230.79 4.5 230.8 4.5 230.8 L 4.5 238.6 C 4.5 238.6 7.95 238.59 7.9 238.6 C 10 238.6 11.3 237 11.3 234.7 Z M 15.1 241.4 C 15.1 237.2 17.3 233.9 20.9 233.9 C 24.8 233.9 26.7 237.3 26.7 241.5 C 26.67 241.5 26.7 242.2 26.7 242.2 C 26.7 242.2 17.28 242.16 17.3 242.2 C 17.4 245.1 18.9 247.3 21.5 247.3 C 22.7 247.3 24 246.6 24.9 245.5 C 24.9 245.5 26 246.8 26 246.8 C 24.9 248.2 23.2 249.1 21.3 249.1 C 17.4 249.1 15.1 245.9 15.1 241.4 Z M 20.9 235.7 C 18.4 235.7 17.3 238.4 17.3 240.6 C 17.3 240.6 24.5 240.6 24.5 240.6 C 24.5 238.4 23.6 235.7 20.9 235.7 Z M 29.9 245.8 C 29.94 245.79 29.9 236.1 29.9 236.1 L 28 236.1 L 28 234.2 L 29.9 234.2 L 29.9 230.3 L 32.1 230.3 L 32.1 234.2 L 34.6 234.2 L 34.6 236.1 L 32.1 236.1 C 32.1 236.1 32.1 245.4 32.1 245.4 C 32.1 246.5 32.4 247.1 33.3 247.1 C 33.8 247.1 34.3 246.9 34.5 246.6 C 34.5 246.6 35.2 248.2 35.2 248.2 C 34.7 248.7 34 249.1 32.8 249.1 C 30.9 249.1 29.9 248 29.9 245.8 Z M 37.1 248.7 L 37.1 234.2 L 39.2 234.2 C 39.2 234.2 39.24 236.52 39.2 236.5 C 40.2 235 41.6 233.9 43.3 233.9 C 43.3 233.9 43.3 236.1 43.3 236.1 C 43.1 236.1 42.9 236 42.6 236 C 41.3 236 39.8 237.2 39.2 238.4 C 39.24 238.41 39.2 248.7 39.2 248.7 L 37.1 248.7 Z M 44.8 241.4 C 44.8 237.4 46.9 233.9 50.7 233.9 C 54.6 233.9 56.6 237.4 56.6 241.4 C 56.6 245.5 54.6 249.1 50.7 249.1 C 46.9 249.1 44.8 245.5 44.8 241.4 Z M 54.4 241.4 C 54.4 238.5 53.2 235.8 50.7 235.8 C 48.2 235.8 47.1 238.5 47.1 241.4 C 47.1 244.4 48.2 247.1 50.7 247.1 C 53.2 247.1 54.4 244.4 54.4 241.4 Z M 59.5 248.7 L 59.5 228.7 L 61.7 228.7 L 61.7 248.7 L 59.5 248.7 Z M 64.6 241.4 C 64.6 237.2 66.8 233.9 70.5 233.9 C 74.3 233.9 76.2 237.3 76.2 241.5 C 76.23 241.5 76.2 242.2 76.2 242.2 C 76.2 242.2 66.84 242.16 66.8 242.2 C 66.9 245.1 68.4 247.3 71 247.3 C 72.3 247.3 73.6 246.6 74.5 245.5 C 74.5 245.5 75.6 246.8 75.6 246.8 C 74.4 248.2 72.8 249.1 70.8 249.1 C 67 249.1 64.6 245.9 64.6 241.4 Z M 70.5 235.7 C 67.9 235.7 66.9 238.4 66.8 240.6 C 66.8 240.6 74.1 240.6 74.1 240.6 C 74.1 238.4 73.1 235.7 70.5 235.7 Z M 86.9 248.7 C 86.9 248.7 86.91 246.69 86.9 246.7 C 86 248 84.5 249.1 82.7 249.1 C 80.2 249.1 79.1 247.8 79.1 245.2 C 79.08 245.19 79.1 234.2 79.1 234.2 L 81.2 234.2 C 81.2 234.2 81.21 244.56 81.2 244.6 C 81.2 246.5 82.1 247.1 83.5 247.1 C 85 247.1 86.3 246.1 86.9 244.9 C 86.91 244.89 86.9 234.2 86.9 234.2 L 89.1 234.2 L 89.1 248.7 L 86.9 248.7 Z M 107.4 248.7 C 107.4 248.7 107.37 238.2 107.4 238.2 C 107.4 236.6 106.7 235.8 105.4 235.8 C 104.1 235.8 102.8 236.9 102.2 238.1 C 102.21 238.08 102.2 248.7 102.2 248.7 L 100 248.7 C 100 248.7 100.05 238.2 100 238.2 C 100 236.6 99.4 235.8 98 235.8 C 96.7 235.8 95.5 236.9 94.9 238.1 C 94.86 238.08 94.9 248.7 94.9 248.7 L 92.7 248.7 L 92.7 234.2 L 94.9 234.2 C 94.9 234.2 94.86 236.28 94.9 236.3 C 95.5 235.2 97.1 233.9 98.8 233.9 C 100.7 233.9 101.8 234.9 102.1 236.4 C 102.8 235.1 104.4 233.9 106.2 233.9 C 108.3 233.9 109.5 235 109.5 237.6 C 109.53 237.63 109.5 248.7 109.5 248.7 L 107.4 248.7 Z M 118.9 230.6 C 118.9 229.8 119.6 229.2 120.4 229.2 C 121.2 229.2 121.9 229.8 121.9 230.6 C 121.9 231.5 121.2 232.1 120.4 232.1 C 119.6 232.1 118.9 231.5 118.9 230.6 Z M 115.4 253.6 C 115.4 253.6 116.2 252 116.2 252 C 116.5 252.4 117 252.8 117.7 252.8 C 118.6 252.8 119.3 252.1 119.3 250.5 C 119.34 250.47 119.3 234.2 119.3 234.2 L 121.5 234.2 C 121.5 234.2 121.47 250.47 121.5 250.5 C 121.5 253.3 120.2 254.6 117.9 254.6 C 116.7 254.6 116 254.3 115.4 253.6 Z M 124.4 241.4 C 124.4 237.2 126.6 233.9 130.3 233.9 C 134.1 233.9 136 237.3 136 241.5 C 136.02 241.5 136 242.2 136 242.2 C 136 242.2 126.63 242.16 126.6 242.2 C 126.7 245.1 128.2 247.3 130.8 247.3 C 132.1 247.3 133.3 246.6 134.2 245.5 C 134.2 245.5 135.4 246.8 135.4 246.8 C 134.2 248.2 132.6 249.1 130.6 249.1 C 126.7 249.1 124.4 245.9 124.4 241.4 Z M 130.3 235.7 C 127.7 235.7 126.7 238.4 126.6 240.6 C 126.6 240.6 133.9 240.6 133.9 240.6 C 133.9 238.4 132.9 235.7 130.3 235.7 Z M 138.9 248.7 L 138.9 228.7 L 141 228.7 L 141 248.7 L 138.9 248.7 Z M 144.7 248.7 L 144.7 228.7 L 146.8 228.7 L 146.8 248.7 L 144.7 248.7 Z M 150 252.5 C 150.3 252.6 150.7 252.7 151 252.7 C 151.8 252.7 152.3 252.3 152.7 251.2 C 152.7 251.22 153.5 249 153.5 249 L 148.6 234.2 L 151 234.2 L 154.6 246.1 L 158.2 234.2 L 160.5 234.2 C 160.5 234.2 154.74 251.76 154.7 251.8 C 154 253.9 152.8 254.6 151.1 254.6 C 150.7 254.6 150 254.5 149.7 254.4 C 149.7 254.4 150 252.5 150 252.5 Z " stroke="none" fill="#d3d2d2"/>  </g>  <g id="Polygon148036">    <path d="M 1.4 202.7 C 1.4 196.7 4.4 192.4 9.2 192.4 C 12.2 192.4 13.9 194.2 15 196.3 C 15 196.3 13 197.2 13 197.2 C 12.2 195.6 10.9 194.5 9.2 194.5 C 5.9 194.5 3.9 198 3.9 202.7 C 3.9 207.5 5.9 210.9 9.2 210.9 C 11 210.9 12.3 209.7 13.1 208 C 13.1 208 15.1 208.9 15.1 208.9 C 14 211.1 12.3 213.1 9.2 213.1 C 4.4 213.1 1.4 208.7 1.4 202.7 Z M 25.1 212.7 C 25.1 212.7 25.11 211.14 25.1 211.1 C 24.2 212.5 22.8 213.1 21.3 213.1 C 19 213.1 16.9 211.3 16.9 208.2 C 16.9 205.2 18.9 203.5 21.3 203.5 C 22.8 203.5 24.2 204 25.1 205.3 C 25.1 205.3 25.1 202.8 25.1 202.8 C 25.1 200.8 24 199.7 22.1 199.7 C 20.8 199.7 19.6 200.2 18.5 201.5 C 18.5 201.5 17.5 200 17.5 200 C 18.9 198.5 20.6 197.9 22.5 197.9 C 25.3 197.9 27.3 199.3 27.3 202.6 C 27.27 202.56 27.3 212.7 27.3 212.7 L 25.1 212.7 Z M 25.1 209.7 C 25.1 209.7 25.1 206.9 25.1 206.9 C 24.4 205.7 23.2 205.1 22 205.1 C 20.2 205.1 19.1 206.5 19.1 208.3 C 19.1 210.1 20.2 211.5 22 211.5 C 23.2 211.5 24.4 210.9 25.1 209.7 Z M 36.3 211.1 C 38.7 211.1 39.8 208.6 39.8 205.5 C 39.8 202.3 38.7 199.8 36.3 199.8 C 34.9 199.8 33.6 200.9 33 202.2 C 33 202.2 33 208.8 33 208.8 C 33.6 210.1 34.9 211.1 36.3 211.1 Z M 30.9 212.7 L 30.9 192.7 L 33 192.7 C 33 192.7 33.03 200.31 33 200.3 C 33.9 198.7 35.4 197.9 36.8 197.9 C 40.1 197.9 42 201 42 205.5 C 42 210 40.1 213.1 36.8 213.1 C 35.3 213.1 33.9 212.1 33 210.6 C 33.03 210.63 33 212.7 33 212.7 L 30.9 212.7 Z M 45 212.7 L 45 192.7 L 47.1 192.7 L 47.1 212.7 L 45 212.7 Z M 50.1 205.4 C 50.1 201.2 52.3 197.9 55.9 197.9 C 59.8 197.9 61.7 201.3 61.7 205.5 C 61.68 205.5 61.7 206.2 61.7 206.2 C 61.7 206.2 52.29 206.16 52.3 206.2 C 52.4 209.1 53.9 211.3 56.5 211.3 C 57.7 211.3 59 210.6 59.9 209.5 C 59.9 209.5 61 210.8 61 210.8 C 59.9 212.2 58.2 213.1 56.3 213.1 C 52.4 213.1 50.1 209.9 50.1 205.4 Z M 55.9 199.7 C 53.4 199.7 52.3 202.4 52.3 204.6 C 52.3 204.6 59.5 204.6 59.5 204.6 C 59.5 202.4 58.6 199.7 55.9 199.7 Z M 70.3 194.6 C 70.3 193.8 70.9 193.2 71.7 193.2 C 72.5 193.2 73.2 193.8 73.2 194.6 C 73.2 195.5 72.5 196.1 71.7 196.1 C 70.9 196.1 70.3 195.5 70.3 194.6 Z M 70.7 212.7 L 70.7 198.2 L 72.8 198.2 L 72.8 212.7 L 70.7 212.7 Z M 84.3 212.7 C 84.3 212.7 84.3 202.38 84.3 202.4 C 84.3 200.5 83.4 199.8 82 199.8 C 80.6 199.8 79.3 200.9 78.6 202.1 C 78.6 202.08 78.6 212.7 78.6 212.7 L 76.5 212.7 L 76.5 198.2 L 78.6 198.2 C 78.6 198.2 78.6 200.28 78.6 200.3 C 79.4 199 81.1 197.9 82.8 197.9 C 85.3 197.9 86.5 199.2 86.5 201.8 C 86.46 201.78 86.5 212.7 86.5 212.7 L 84.3 212.7 Z M 88.9 211 C 88.9 211 90 209.5 90 209.5 C 90.9 210.5 92.2 211.3 93.8 211.3 C 95.5 211.3 96.6 210.4 96.6 209 C 96.6 205.6 89.4 206.8 89.4 201.8 C 89.4 199.6 91.1 197.9 94 197.9 C 95.9 197.9 97.4 198.6 98.4 199.7 C 98.4 199.7 97.4 201.2 97.4 201.2 C 96.7 200.2 95.4 199.6 94 199.6 C 92.4 199.6 91.4 200.5 91.4 201.7 C 91.4 204.8 98.7 203.7 98.7 208.9 C 98.7 211.3 96.8 213.1 93.8 213.1 C 91.8 213.1 90.1 212.4 88.9 211 Z M 109.3 212.7 C 109.3 212.7 109.26 210.69 109.3 210.7 C 108.4 212 106.9 213.1 105.1 213.1 C 102.6 213.1 101.4 211.8 101.4 209.2 C 101.43 209.19 101.4 198.2 101.4 198.2 L 103.6 198.2 C 103.6 198.2 103.56 208.56 103.6 208.6 C 103.6 210.5 104.5 211.1 105.9 211.1 C 107.3 211.1 108.6 210.1 109.3 208.9 C 109.26 208.89 109.3 198.2 109.3 198.2 L 111.4 198.2 L 111.4 212.7 L 109.3 212.7 Z M 115.1 212.7 L 115.1 192.7 L 117.2 192.7 L 117.2 212.7 L 115.1 212.7 Z M 128.3 212.7 C 128.3 212.7 128.31 211.14 128.3 211.1 C 127.4 212.5 126 213.1 124.5 213.1 C 122.2 213.1 120.1 211.3 120.1 208.2 C 120.1 205.2 122.1 203.5 124.5 203.5 C 126 203.5 127.4 204 128.3 205.3 C 128.3 205.3 128.3 202.8 128.3 202.8 C 128.3 200.8 127.2 199.7 125.3 199.7 C 124 199.7 122.8 200.2 121.7 201.5 C 121.7 201.5 120.7 200 120.7 200 C 122.1 198.5 123.8 197.9 125.7 197.9 C 128.5 197.9 130.5 199.3 130.5 202.6 C 130.47 202.56 130.5 212.7 130.5 212.7 L 128.3 212.7 Z M 128.3 209.7 C 128.3 209.7 128.3 206.9 128.3 206.9 C 127.6 205.7 126.4 205.1 125.2 205.1 C 123.4 205.1 122.3 206.5 122.3 208.3 C 122.3 210.1 123.4 211.5 125.2 211.5 C 126.4 211.5 127.6 210.9 128.3 209.7 Z M 134.5 209.8 C 134.52 209.79 134.5 200.1 134.5 200.1 L 132.6 200.1 L 132.6 198.2 L 134.5 198.2 L 134.5 194.3 L 136.7 194.3 L 136.7 198.2 L 139.1 198.2 L 139.1 200.1 L 136.7 200.1 C 136.7 200.1 136.68 209.4 136.7 209.4 C 136.7 210.5 137 211.1 137.8 211.1 C 138.4 211.1 138.8 210.9 139.1 210.6 C 139.1 210.6 139.8 212.2 139.8 212.2 C 139.3 212.7 138.5 213.1 137.4 213.1 C 135.4 213.1 134.5 212 134.5 209.8 Z M 141.3 194.6 C 141.3 193.8 142 193.2 142.7 193.2 C 143.5 193.2 144.2 193.8 144.2 194.6 C 144.2 195.5 143.5 196.1 142.7 196.1 C 142 196.1 141.3 195.5 141.3 194.6 Z M 141.7 212.7 L 141.7 198.2 L 143.8 198.2 L 143.8 212.7 L 141.7 212.7 Z M 146.8 205.4 C 146.8 201.4 148.8 197.9 152.6 197.9 C 156.5 197.9 158.5 201.4 158.5 205.4 C 158.5 209.5 156.5 213.1 152.6 213.1 C 148.8 213.1 146.8 209.5 146.8 205.4 Z M 156.3 205.4 C 156.3 202.5 155.2 199.8 152.6 199.8 C 150.1 199.8 149 202.5 149 205.4 C 149 208.4 150.1 211.1 152.6 211.1 C 155.2 211.1 156.3 208.4 156.3 205.4 Z M 169.3 212.7 C 169.3 212.7 169.32 202.38 169.3 202.4 C 169.3 200.5 168.4 199.8 167 199.8 C 165.6 199.8 164.3 200.9 163.6 202.1 C 163.62 202.08 163.6 212.7 163.6 212.7 L 161.5 212.7 L 161.5 198.2 L 163.6 198.2 C 163.6 198.2 163.62 200.28 163.6 200.3 C 164.5 199 166.1 197.9 167.8 197.9 C 170.3 197.9 171.5 199.2 171.5 201.8 C 171.48 201.78 171.5 212.7 171.5 212.7 L 169.3 212.7 Z " stroke="none" fill="#d3d2d2"/>  </g>  <g id="Polygon148035">    <path d="M 5.5 176.7 L 5.5 158.8 L 0.8 158.8 L 0.8 156.7 L 12.6 156.7 L 12.6 158.8 L 7.9 158.8 L 7.9 176.7 L 5.5 176.7 Z M 14.6 158.6 C 14.6 157.8 15.3 157.2 16.1 157.2 C 16.9 157.2 17.6 157.8 17.6 158.6 C 17.6 159.5 16.9 160.1 16.1 160.1 C 15.3 160.1 14.6 159.5 14.6 158.6 Z M 15.1 176.7 L 15.1 162.2 L 17.2 162.2 L 17.2 176.7 L 15.1 176.7 Z M 19.7 175 C 19.7 175 20.8 173.5 20.8 173.5 C 21.6 174.5 23 175.3 24.5 175.3 C 26.2 175.3 27.3 174.4 27.3 173 C 27.3 169.6 20.1 170.8 20.1 165.8 C 20.1 163.6 21.8 161.9 24.7 161.9 C 26.6 161.9 28.1 162.6 29.1 163.7 C 29.1 163.7 28.1 165.2 28.1 165.2 C 27.4 164.2 26.2 163.6 24.7 163.6 C 23.2 163.6 22.2 164.5 22.2 165.7 C 22.2 168.8 29.4 167.7 29.4 172.9 C 29.4 175.3 27.5 177.1 24.6 177.1 C 22.5 177.1 20.9 176.4 19.7 175 Z M 31 175 C 31 175 32.1 173.5 32.1 173.5 C 32.9 174.5 34.3 175.3 35.8 175.3 C 37.5 175.3 38.6 174.4 38.6 173 C 38.6 169.6 31.4 170.8 31.4 165.8 C 31.4 163.6 33.1 161.9 36 161.9 C 37.9 161.9 39.4 162.6 40.4 163.7 C 40.4 163.7 39.4 165.2 39.4 165.2 C 38.7 164.2 37.5 163.6 36.1 163.6 C 34.5 163.6 33.5 164.5 33.5 165.7 C 33.5 168.8 40.7 167.7 40.7 172.9 C 40.7 175.3 38.8 177.1 35.9 177.1 C 33.8 177.1 32.2 176.4 31 175 Z M 51.3 176.7 C 51.3 176.7 51.3 174.69 51.3 174.7 C 50.4 176 48.9 177.1 47.1 177.1 C 44.6 177.1 43.5 175.8 43.5 173.2 C 43.47 173.19 43.5 162.2 43.5 162.2 L 45.6 162.2 C 45.6 162.2 45.6 172.56 45.6 172.6 C 45.6 174.5 46.5 175.1 47.9 175.1 C 49.3 175.1 50.7 174.1 51.3 172.9 C 51.3 172.89 51.3 162.2 51.3 162.2 L 53.5 162.2 L 53.5 176.7 L 51.3 176.7 Z M 56.4 169.4 C 56.4 165.2 58.6 161.9 62.3 161.9 C 66.1 161.9 68 165.3 68 169.5 C 68.01 169.5 68 170.2 68 170.2 C 68 170.2 58.62 170.16 58.6 170.2 C 58.7 173.1 60.2 175.3 62.8 175.3 C 64 175.3 65.3 174.6 66.2 173.5 C 66.2 173.5 67.4 174.8 67.4 174.8 C 66.2 176.2 64.6 177.1 62.6 177.1 C 58.7 177.1 56.4 173.9 56.4 169.4 Z M 62.2 163.7 C 59.7 163.7 58.7 166.4 58.6 168.6 C 58.6 168.6 65.9 168.6 65.9 168.6 C 65.8 166.4 64.9 163.7 62.2 163.7 Z M 79.1 174.6 C 79.14 174.6 79.1 182.2 79.1 182.2 L 77 182.2 L 77 162.2 L 79.1 162.2 C 79.1 162.2 79.14 164.28 79.1 164.3 C 80 162.8 81.4 161.9 82.9 161.9 C 86.2 161.9 88.1 164.9 88.1 169.4 C 88.1 174 86.2 177.1 82.9 177.1 C 81.5 177.1 80 176.2 79.1 174.6 Z M 85.9 169.4 C 85.9 166.3 84.8 163.8 82.4 163.8 C 81.1 163.8 79.7 164.9 79.1 166.1 C 79.1 166.1 79.1 172.7 79.1 172.7 C 79.7 174 81.1 175.1 82.4 175.1 C 84.8 175.1 85.9 172.6 85.9 169.4 Z M 98.5 176.7 C 98.5 176.7 98.49 175.14 98.5 175.1 C 97.6 176.5 96.1 177.1 94.7 177.1 C 92.3 177.1 90.3 175.3 90.3 172.2 C 90.3 169.2 92.3 167.5 94.7 167.5 C 96.1 167.5 97.6 168 98.5 169.3 C 98.5 169.3 98.5 166.8 98.5 166.8 C 98.5 164.8 97.4 163.7 95.5 163.7 C 94.2 163.7 93 164.2 91.9 165.5 C 91.9 165.5 90.9 164 90.9 164 C 92.3 162.5 94 161.9 95.8 161.9 C 98.7 161.9 100.6 163.3 100.6 166.6 C 100.65 166.56 100.6 176.7 100.6 176.7 L 98.5 176.7 Z M 98.5 173.7 C 98.5 173.7 98.5 170.9 98.5 170.9 C 97.8 169.7 96.6 169.1 95.4 169.1 C 93.6 169.1 92.5 170.5 92.5 172.3 C 92.5 174.1 93.6 175.5 95.4 175.5 C 96.6 175.5 97.8 174.9 98.5 173.7 Z M 106.4 174.6 C 106.41 174.6 106.4 182.2 106.4 182.2 L 104.3 182.2 L 104.3 162.2 L 106.4 162.2 C 106.4 162.2 106.41 164.28 106.4 164.3 C 107.2 162.8 108.7 161.9 110.2 161.9 C 113.5 161.9 115.4 164.9 115.4 169.4 C 115.4 174 113.5 177.1 110.2 177.1 C 108.7 177.1 107.3 176.2 106.4 174.6 Z M 113.2 169.4 C 113.2 166.3 112 163.8 109.7 163.8 C 108.3 163.8 107 164.9 106.4 166.1 C 106.4 166.1 106.4 172.7 106.4 172.7 C 107 174 108.3 175.1 109.7 175.1 C 112 175.1 113.2 172.6 113.2 169.4 Z M 117.6 169.4 C 117.6 165.2 119.8 161.9 123.5 161.9 C 127.3 161.9 129.2 165.3 129.2 169.5 C 129.21 169.5 129.2 170.2 129.2 170.2 C 129.2 170.2 119.82 170.16 119.8 170.2 C 119.9 173.1 121.4 175.3 124 175.3 C 125.2 175.3 126.5 174.6 127.4 173.5 C 127.4 173.5 128.6 174.8 128.6 174.8 C 127.4 176.2 125.8 177.1 123.8 177.1 C 119.9 177.1 117.6 173.9 117.6 169.4 Z M 123.4 163.7 C 120.9 163.7 119.9 166.4 119.8 168.6 C 119.8 168.6 127.1 168.6 127.1 168.6 C 127 166.4 126.1 163.7 123.4 163.7 Z M 132.1 176.7 L 132.1 162.2 L 134.2 162.2 C 134.2 162.2 134.19 164.52 134.2 164.5 C 135.1 163 136.5 161.9 138.3 161.9 C 138.3 161.9 138.3 164.1 138.3 164.1 C 138.1 164.1 137.8 164 137.6 164 C 136.3 164 134.8 165.2 134.2 166.4 C 134.19 166.41 134.2 176.7 134.2 176.7 L 132.1 176.7 Z " stroke="none" fill="#d3d2d2"/>  </g>  <g id="Polygon148034">    <path d="M 2.1 140.7 L 2.1 120.7 C 2.1 120.7 8.19 120.69 8.2 120.7 C 11.8 120.7 13.7 123.5 13.7 126.7 C 13.7 129.9 11.8 132.7 8.2 132.7 C 8.19 132.69 4.5 132.7 4.5 132.7 L 4.5 140.7 L 2.1 140.7 Z M 11.3 126.7 C 11.3 124.4 10 122.8 7.9 122.8 C 7.95 122.79 4.5 122.8 4.5 122.8 L 4.5 130.6 C 4.5 130.6 7.95 130.59 7.9 130.6 C 10 130.6 11.3 129 11.3 126.7 Z M 24.1 140.7 C 24.1 140.7 24.12 138.69 24.1 138.7 C 23.2 140 21.7 141.1 19.9 141.1 C 17.5 141.1 16.3 139.8 16.3 137.2 C 16.29 137.19 16.3 126.2 16.3 126.2 L 18.4 126.2 C 18.4 126.2 18.42 136.56 18.4 136.6 C 18.4 138.5 19.3 139.1 20.7 139.1 C 22.2 139.1 23.5 138.1 24.1 136.9 C 24.12 136.89 24.1 126.2 24.1 126.2 L 26.3 126.2 L 26.3 140.7 L 24.1 140.7 Z M 30.4 137.8 C 30.36 137.79 30.4 128.1 30.4 128.1 L 28.4 128.1 L 28.4 126.2 L 30.4 126.2 L 30.4 122.3 L 32.5 122.3 L 32.5 126.2 L 35 126.2 L 35 128.1 L 32.5 128.1 C 32.5 128.1 32.52 137.4 32.5 137.4 C 32.5 138.5 32.8 139.1 33.7 139.1 C 34.2 139.1 34.7 138.9 34.9 138.6 C 34.9 138.6 35.6 140.2 35.6 140.2 C 35.1 140.7 34.4 141.1 33.3 141.1 C 31.3 141.1 30.4 140 30.4 137.8 Z M 37.9 137.8 C 37.95 137.79 37.9 128.1 37.9 128.1 L 36 128.1 L 36 126.2 L 37.9 126.2 L 37.9 122.3 L 40.1 122.3 L 40.1 126.2 L 42.6 126.2 L 42.6 128.1 L 40.1 128.1 C 40.1 128.1 40.11 137.4 40.1 137.4 C 40.1 138.5 40.4 139.1 41.3 139.1 C 41.8 139.1 42.3 138.9 42.5 138.6 C 42.5 138.6 43.2 140.2 43.2 140.2 C 42.7 140.7 42 141.1 40.9 141.1 C 38.9 141.1 37.9 140 37.9 137.8 Z M 44.7 144.5 C 45 144.6 45.4 144.7 45.7 144.7 C 46.5 144.7 47 144.3 47.4 143.2 C 47.37 143.22 48.1 141 48.1 141 L 43.3 126.2 L 45.7 126.2 L 49.3 138.1 L 52.9 126.2 L 55.2 126.2 C 55.2 126.2 49.41 143.76 49.4 143.8 C 48.7 145.9 47.5 146.6 45.8 146.6 C 45.4 146.6 44.7 146.5 44.4 146.4 C 44.4 146.4 44.7 144.5 44.7 144.5 Z M 61.2 141.3 L 67 120.1 L 68.7 120.1 L 62.9 141.3 L 61.2 141.3 Z M 75.9 130.7 C 75.9 124.7 78.9 120.4 83.7 120.4 C 86.7 120.4 88.5 122.2 89.5 124.3 C 89.5 124.3 87.6 125.2 87.6 125.2 C 86.8 123.6 85.4 122.5 83.7 122.5 C 80.5 122.5 78.4 126 78.4 130.7 C 78.4 135.5 80.5 138.9 83.7 138.9 C 85.5 138.9 86.8 137.7 87.6 136 C 87.6 136 89.6 136.9 89.6 136.9 C 88.5 139.1 86.8 141.1 83.7 141.1 C 78.9 141.1 75.9 136.7 75.9 130.7 Z M 91.5 133.4 C 91.5 129.2 93.7 125.9 97.3 125.9 C 101.2 125.9 103.1 129.3 103.1 133.5 C 103.08 133.5 103.1 134.2 103.1 134.2 C 103.1 134.2 93.69 134.16 93.7 134.2 C 93.8 137.1 95.3 139.3 97.9 139.3 C 99.1 139.3 100.4 138.6 101.3 137.5 C 101.3 137.5 102.4 138.8 102.4 138.8 C 101.3 140.2 99.6 141.1 97.7 141.1 C 93.8 141.1 91.5 137.9 91.5 133.4 Z M 97.3 127.7 C 94.8 127.7 93.7 130.4 93.7 132.6 C 93.7 132.6 100.9 132.6 100.9 132.6 C 100.9 130.4 100 127.7 97.3 127.7 Z M 105.9 140.7 L 105.9 120.7 L 108.1 120.7 L 108.1 140.7 L 105.9 140.7 Z M 111.7 140.7 L 111.7 120.7 L 113.8 120.7 L 113.8 140.7 L 111.7 140.7 Z M 125.3 140.7 C 125.3 140.7 125.34 138.69 125.3 138.7 C 124.5 140 122.9 141.1 121.1 141.1 C 118.7 141.1 117.5 139.8 117.5 137.2 C 117.51 137.19 117.5 126.2 117.5 126.2 L 119.6 126.2 C 119.6 126.2 119.64 136.56 119.6 136.6 C 119.6 138.5 120.5 139.1 121.9 139.1 C 123.4 139.1 124.7 138.1 125.3 136.9 C 125.34 136.89 125.3 126.2 125.3 126.2 L 127.5 126.2 L 127.5 140.7 L 125.3 140.7 Z M 131.2 140.7 L 131.2 120.7 L 133.3 120.7 L 133.3 140.7 L 131.2 140.7 Z M 136.2 133.4 C 136.2 129.4 138.3 125.9 142.1 125.9 C 146 125.9 148 129.4 148 133.4 C 148 137.5 146 141.1 142.1 141.1 C 138.3 141.1 136.2 137.5 136.2 133.4 Z M 145.8 133.4 C 145.8 130.5 144.7 127.8 142.1 127.8 C 139.6 127.8 138.5 130.5 138.5 133.4 C 138.5 136.4 139.6 139.1 142.1 139.1 C 144.7 139.1 145.8 136.4 145.8 133.4 Z M 149.8 139 C 149.8 139 150.9 137.5 150.9 137.5 C 151.7 138.5 153.1 139.3 154.6 139.3 C 156.3 139.3 157.4 138.4 157.4 137 C 157.4 133.6 150.2 134.8 150.2 129.8 C 150.2 127.6 151.9 125.9 154.8 125.9 C 156.7 125.9 158.2 126.6 159.2 127.7 C 159.2 127.7 158.2 129.2 158.2 129.2 C 157.5 128.2 156.3 127.6 154.9 127.6 C 153.3 127.6 152.3 128.5 152.3 129.7 C 152.3 132.8 159.5 131.7 159.5 136.9 C 159.5 139.3 157.6 141.1 154.7 141.1 C 152.6 141.1 151 140.4 149.8 139 Z M 161.5 133.4 C 161.5 129.2 163.8 125.9 167.4 125.9 C 171.2 125.9 173.2 129.3 173.2 133.5 C 173.16 133.5 173.2 134.2 173.2 134.2 C 173.2 134.2 163.77 134.16 163.8 134.2 C 163.9 137.1 165.4 139.3 167.9 139.3 C 169.2 139.3 170.5 138.6 171.4 137.5 C 171.4 137.5 172.5 138.8 172.5 138.8 C 171.4 140.2 169.7 141.1 167.8 141.1 C 163.9 141.1 161.5 137.9 161.5 133.4 Z M 167.4 127.7 C 164.8 127.7 163.8 130.4 163.8 132.6 C 163.8 132.6 171 132.6 171 132.6 C 171 130.4 170 127.7 167.4 127.7 Z M 182.7 140.7 L 182.7 128.1 L 180.7 128.1 L 180.7 126.2 L 182.7 126.2 C 182.7 126.2 182.67 124.44 182.7 124.4 C 182.7 121.9 184.1 120.4 186.2 120.4 C 187 120.4 187.6 120.5 188.1 120.8 C 188.1 120.8 187.5 122.5 187.5 122.5 C 187.3 122.3 187 122.2 186.6 122.2 C 185.5 122.2 184.8 123 184.8 124.4 C 184.83 124.44 184.8 126.2 184.8 126.2 L 187.3 126.2 L 187.3 128.1 L 184.8 128.1 L 184.8 140.7 L 182.7 140.7 Z M 189.4 122.6 C 189.4 121.8 190 121.2 190.8 121.2 C 191.6 121.2 192.3 121.8 192.3 122.6 C 192.3 123.5 191.6 124.1 190.8 124.1 C 190 124.1 189.4 123.5 189.4 122.6 Z M 189.8 140.7 L 189.8 126.2 L 191.9 126.2 L 191.9 140.7 L 189.8 140.7 Z M 195.6 140.7 L 195.6 120.7 L 197.7 120.7 L 197.7 140.7 L 195.6 140.7 Z M 201.4 140.7 L 201.4 120.7 L 203.5 120.7 L 203.5 140.7 L 201.4 140.7 Z M 206.4 133.4 C 206.4 129.2 208.6 125.9 212.3 125.9 C 216.1 125.9 218 129.3 218 133.5 C 218.03 133.5 218 134.2 218 134.2 C 218 134.2 208.64 134.16 208.6 134.2 C 208.7 137.1 210.2 139.3 212.8 139.3 C 214.1 139.3 215.4 138.6 216.3 137.5 C 216.3 137.5 217.4 138.8 217.4 138.8 C 216.2 140.2 214.6 141.1 212.6 141.1 C 208.8 141.1 206.4 137.9 206.4 133.4 Z M 212.3 127.7 C 209.7 127.7 208.7 130.4 208.6 132.6 C 208.6 132.6 215.9 132.6 215.9 132.6 C 215.9 130.4 214.9 127.7 212.3 127.7 Z M 220.9 140.7 L 220.9 126.2 L 223 126.2 C 223 126.2 223.01 128.52 223 128.5 C 223.9 127 225.4 125.9 227.1 125.9 C 227.1 125.9 227.1 128.1 227.1 128.1 C 226.9 128.1 226.6 128 226.4 128 C 225.1 128 223.6 129.2 223 130.4 C 223.01 130.41 223 140.7 223 140.7 L 220.9 140.7 Z " stroke="none" fill="#d3d2d2"/>  </g>  <g id="Polygon148033">    <path d="M 12.7 104.7 L 12.7 95.5 L 4.5 95.5 L 4.5 104.7 L 2.1 104.7 L 2.1 84.7 L 4.5 84.7 L 4.5 93.4 L 12.7 93.4 L 12.7 84.7 L 15.1 84.7 L 15.1 104.7 L 12.7 104.7 Z M 18.2 97.4 C 18.2 93.4 20.2 89.9 24.1 89.9 C 28 89.9 30 93.4 30 97.4 C 30 101.5 28 105.1 24.1 105.1 C 20.2 105.1 18.2 101.5 18.2 97.4 Z M 27.7 97.4 C 27.7 94.5 26.6 91.8 24.1 91.8 C 21.6 91.8 20.4 94.5 20.4 97.4 C 20.4 100.4 21.6 103.1 24.1 103.1 C 26.6 103.1 27.7 100.4 27.7 97.4 Z M 33.3 101.8 C 33.33 101.79 33.3 92.1 33.3 92.1 L 31.4 92.1 L 31.4 90.2 L 33.3 90.2 L 33.3 86.3 L 35.5 86.3 L 35.5 90.2 L 37.9 90.2 L 37.9 92.1 L 35.5 92.1 C 35.5 92.1 35.49 101.4 35.5 101.4 C 35.5 102.5 35.8 103.1 36.7 103.1 C 37.2 103.1 37.6 102.9 37.9 102.6 C 37.9 102.6 38.6 104.2 38.6 104.2 C 38.1 104.7 37.3 105.1 36.2 105.1 C 34.3 105.1 33.3 104 33.3 101.8 Z M 61.3 104.7 C 61.3 104.7 61.29 94.2 61.3 94.2 C 61.3 92.6 60.7 91.8 59.3 91.8 C 58 91.8 56.7 92.9 56.1 94.1 C 56.13 94.08 56.1 104.7 56.1 104.7 L 54 104.7 C 54 104.7 53.97 94.2 54 94.2 C 54 92.6 53.3 91.8 51.9 91.8 C 50.6 91.8 49.4 92.9 48.8 94.1 C 48.78 94.08 48.8 104.7 48.8 104.7 L 46.6 104.7 L 46.6 90.2 L 48.8 90.2 C 48.8 90.2 48.78 92.28 48.8 92.3 C 49.4 91.2 51 89.9 52.7 89.9 C 54.6 89.9 55.7 90.9 56 92.4 C 56.7 91.1 58.3 89.9 60.1 89.9 C 62.2 89.9 63.4 91 63.4 93.6 C 63.45 93.63 63.4 104.7 63.4 104.7 L 61.3 104.7 Z M 66.4 97.4 C 66.4 93.2 68.6 89.9 72.3 89.9 C 76.1 89.9 78 93.3 78 97.5 C 78 97.5 78 98.2 78 98.2 C 78 98.2 68.61 98.16 68.6 98.2 C 68.7 101.1 70.2 103.3 72.8 103.3 C 74 103.3 75.3 102.6 76.2 101.5 C 76.2 101.5 77.4 102.8 77.4 102.8 C 76.2 104.2 74.5 105.1 72.6 105.1 C 68.7 105.1 66.4 101.9 66.4 97.4 Z M 72.2 91.7 C 69.7 91.7 68.7 94.4 68.6 96.6 C 68.6 96.6 75.9 96.6 75.9 96.6 C 75.8 94.4 74.9 91.7 72.2 91.7 Z M 80.8 104.7 L 80.8 84.7 L 83 84.7 L 83 104.7 L 80.8 104.7 Z M 87.1 101.8 C 87.06 101.79 87.1 92.1 87.1 92.1 L 85.1 92.1 L 85.1 90.2 L 87.1 90.2 L 87.1 86.3 L 89.2 86.3 L 89.2 90.2 L 91.7 90.2 L 91.7 92.1 L 89.2 92.1 C 89.2 92.1 89.22 101.4 89.2 101.4 C 89.2 102.5 89.5 103.1 90.4 103.1 C 90.9 103.1 91.4 102.9 91.6 102.6 C 91.6 102.6 92.3 104.2 92.3 104.2 C 91.8 104.7 91.1 105.1 90 105.1 C 88 105.1 87.1 104 87.1 101.8 Z M 100.3 108.8 C 100.3 108.8 101.2 107.1 101.2 107.1 C 102.2 108.2 103.4 108.8 105 108.8 C 107 108.8 108.7 107.6 108.7 104.8 C 108.7 104.8 108.7 102.4 108.7 102.4 C 107.8 103.9 106.4 104.9 104.8 104.9 C 101.6 104.9 99.7 101.9 99.7 97.4 C 99.7 92.9 101.6 89.9 104.8 89.9 C 106.3 89.9 107.8 90.7 108.7 92.3 C 108.66 92.31 108.7 90.2 108.7 90.2 L 110.8 90.2 C 110.8 90.2 110.82 104.67 110.8 104.7 C 110.8 109.1 108.1 110.6 105.1 110.6 C 103.1 110.6 101.6 110.1 100.3 108.8 Z M 108.7 100.6 C 108.7 100.6 108.7 94.1 108.7 94.1 C 108.1 92.9 106.8 91.8 105.4 91.8 C 103 91.8 101.9 94.3 101.9 97.4 C 101.9 100.5 103 103 105.4 103 C 106.8 103 108.1 101.8 108.7 100.6 Z M 114.4 104.7 L 114.4 84.7 L 116.6 84.7 L 116.6 104.7 L 114.4 104.7 Z M 128.1 104.7 C 128.1 104.7 128.07 102.69 128.1 102.7 C 127.2 104 125.7 105.1 123.9 105.1 C 121.4 105.1 120.2 103.8 120.2 101.2 C 120.24 101.19 120.2 90.2 120.2 90.2 L 122.4 90.2 C 122.4 90.2 122.37 100.56 122.4 100.6 C 122.4 102.5 123.3 103.1 124.7 103.1 C 126.1 103.1 127.4 102.1 128.1 100.9 C 128.07 100.89 128.1 90.2 128.1 90.2 L 130.2 90.2 L 130.2 104.7 L 128.1 104.7 Z M 133.2 97.4 C 133.2 93.2 135.4 89.9 139 89.9 C 142.9 89.9 144.8 93.3 144.8 97.5 C 144.78 97.5 144.8 98.2 144.8 98.2 C 144.8 98.2 135.39 98.16 135.4 98.2 C 135.5 101.1 137 103.3 139.6 103.3 C 140.8 103.3 142.1 102.6 143 101.5 C 143 101.5 144.1 102.8 144.1 102.8 C 143 104.2 141.3 105.1 139.4 105.1 C 135.5 105.1 133.2 101.9 133.2 97.4 Z M 139 91.7 C 136.5 91.7 135.4 94.4 135.4 96.6 C 135.4 96.6 142.6 96.6 142.6 96.6 C 142.6 94.4 141.7 91.7 139 91.7 Z M 152.6 103 C 152.6 103 153.7 101.5 153.7 101.5 C 154.5 102.5 155.9 103.3 157.5 103.3 C 159.1 103.3 160.3 102.4 160.3 101 C 160.3 97.6 153 98.8 153 93.8 C 153 91.6 154.8 89.9 157.6 89.9 C 159.6 89.9 161 90.6 162.1 91.7 C 162.1 91.7 161 93.2 161 93.2 C 160.3 92.2 159.1 91.6 157.7 91.6 C 156.1 91.6 155.1 92.5 155.1 93.7 C 155.1 96.8 162.3 95.7 162.3 100.9 C 162.3 103.3 160.5 105.1 157.5 105.1 C 155.5 105.1 153.8 104.4 152.6 103 Z M 165.5 101.8 C 165.51 101.79 165.5 92.1 165.5 92.1 L 163.6 92.1 L 163.6 90.2 L 165.5 90.2 L 165.5 86.3 L 167.7 86.3 L 167.7 90.2 L 170.1 90.2 L 170.1 92.1 L 167.7 92.1 C 167.7 92.1 167.67 101.4 167.7 101.4 C 167.7 102.5 168 103.1 168.8 103.1 C 169.4 103.1 169.8 102.9 170.1 102.6 C 170.1 102.6 170.8 104.2 170.8 104.2 C 170.2 104.7 169.5 105.1 168.4 105.1 C 166.4 105.1 165.5 104 165.5 101.8 Z M 172.3 86.6 C 172.3 85.8 172.9 85.2 173.7 85.2 C 174.5 85.2 175.2 85.8 175.2 86.6 C 175.2 87.5 174.5 88.1 173.7 88.1 C 172.9 88.1 172.3 87.5 172.3 86.6 Z M 172.7 104.7 L 172.7 90.2 L 174.8 90.2 L 174.8 104.7 L 172.7 104.7 Z M 177.7 97.4 C 177.7 93.2 180 89.9 183.7 89.9 C 185.8 89.9 187 90.7 187.9 91.8 C 187.9 91.8 186.7 93.2 186.7 93.2 C 185.9 92.2 185 91.8 183.9 91.8 C 181.3 91.8 180 94.4 180 97.4 C 180 100.5 181.3 103.1 183.9 103.1 C 185 103.1 185.9 102.7 186.7 101.7 C 186.7 101.7 187.9 103.1 187.9 103.1 C 187 104.3 185.8 105.1 183.7 105.1 C 180 105.1 177.7 101.7 177.7 97.4 Z M 198.5 104.7 L 194.5 98.2 L 192.5 100.8 L 192.5 104.7 L 190.3 104.7 L 190.3 84.7 L 192.5 84.7 L 192.5 98.1 L 198.5 90.2 L 201.1 90.2 L 196 96.7 L 201.1 104.7 L 198.5 104.7 Z M 202 103 C 202 103 203.1 101.5 203.1 101.5 C 203.9 102.5 205.3 103.3 206.9 103.3 C 208.6 103.3 209.7 102.4 209.7 101 C 209.7 97.6 202.4 98.8 202.4 93.8 C 202.4 91.6 204.2 89.9 207.1 89.9 C 209 89.9 210.4 90.6 211.5 91.7 C 211.5 91.7 210.4 93.2 210.4 93.2 C 209.7 92.2 208.5 91.6 207.1 91.6 C 205.5 91.6 204.5 92.5 204.5 93.7 C 204.5 96.8 211.7 95.7 211.7 100.9 C 211.7 103.3 209.9 105.1 206.9 105.1 C 204.9 105.1 203.2 104.4 202 103 Z " stroke="none" fill="#d3d2d2"/>  </g>  <g id="Polygon148032">    <path d="M 2.1 68.7 L 2.1 48.7 C 2.1 48.7 8.19 48.69 8.2 48.7 C 11.8 48.7 13.7 51.5 13.7 54.7 C 13.7 57.9 11.8 60.7 8.2 60.7 C 8.19 60.69 4.5 60.7 4.5 60.7 L 4.5 68.7 L 2.1 68.7 Z M 11.3 54.7 C 11.3 52.4 10 50.8 7.9 50.8 C 7.95 50.79 4.5 50.8 4.5 50.8 L 4.5 58.6 C 4.5 58.6 7.95 58.59 7.9 58.6 C 10 58.6 11.3 57 11.3 54.7 Z M 23.2 68.7 C 23.2 68.7 23.16 67.14 23.2 67.1 C 22.2 68.5 20.8 69.1 19.4 69.1 C 17 69.1 15 67.3 15 64.2 C 15 61.2 17 59.5 19.4 59.5 C 20.8 59.5 22.3 60 23.2 61.3 C 23.2 61.3 23.2 58.8 23.2 58.8 C 23.2 56.8 22.1 55.7 20.2 55.7 C 18.8 55.7 17.7 56.2 16.6 57.5 C 16.6 57.5 15.6 56 15.6 56 C 17 54.5 18.7 53.9 20.5 53.9 C 23.4 53.9 25.3 55.3 25.3 58.6 C 25.32 58.56 25.3 68.7 25.3 68.7 L 23.2 68.7 Z M 23.2 65.7 C 23.2 65.7 23.2 62.9 23.2 62.9 C 22.5 61.7 21.3 61.1 20 61.1 C 18.2 61.1 17.2 62.5 17.2 64.3 C 17.2 66.1 18.2 67.5 20 67.5 C 21.3 67.5 22.5 66.9 23.2 65.7 Z M 31.1 66.6 C 31.08 66.6 31.1 74.2 31.1 74.2 L 28.9 74.2 L 28.9 54.2 L 31.1 54.2 C 31.1 54.2 31.08 56.28 31.1 56.3 C 31.9 54.8 33.4 53.9 34.9 53.9 C 38.2 53.9 40.1 56.9 40.1 61.4 C 40.1 66 38.2 69.1 34.9 69.1 C 33.4 69.1 32 68.2 31.1 66.6 Z M 37.8 61.4 C 37.8 58.3 36.7 55.8 34.3 55.8 C 33 55.8 31.6 56.9 31.1 58.1 C 31.1 58.1 31.1 64.7 31.1 64.7 C 31.6 66 33 67.1 34.3 67.1 C 36.7 67.1 37.8 64.6 37.8 61.4 Z M 42.3 61.4 C 42.3 57.2 44.5 53.9 48.1 53.9 C 52 53.9 53.9 57.3 53.9 61.5 C 53.88 61.5 53.9 62.2 53.9 62.2 C 53.9 62.2 44.49 62.16 44.5 62.2 C 44.6 65.1 46.1 67.3 48.7 67.3 C 49.9 67.3 51.2 66.6 52.1 65.5 C 52.1 65.5 53.2 66.8 53.2 66.8 C 52.1 68.2 50.4 69.1 48.5 69.1 C 44.6 69.1 42.3 65.9 42.3 61.4 Z M 48.1 55.7 C 45.6 55.7 44.5 58.4 44.5 60.6 C 44.5 60.6 51.7 60.6 51.7 60.6 C 51.7 58.4 50.8 55.7 48.1 55.7 Z M 56.7 68.7 L 56.7 54.2 L 58.9 54.2 C 58.9 54.2 58.86 56.52 58.9 56.5 C 59.8 55 61.2 53.9 63 53.9 C 63 53.9 63 56.1 63 56.1 C 62.7 56.1 62.5 56 62.2 56 C 60.9 56 59.5 57.2 58.9 58.4 C 58.86 58.41 58.9 68.7 58.9 68.7 L 56.7 68.7 Z M 73.4 66.6 C 73.44 66.6 73.4 74.2 73.4 74.2 L 71.3 74.2 L 71.3 54.2 L 73.4 54.2 C 73.4 54.2 73.44 56.28 73.4 56.3 C 74.3 54.8 75.7 53.9 77.2 53.9 C 80.5 53.9 82.4 56.9 82.4 61.4 C 82.4 66 80.5 69.1 77.2 69.1 C 75.8 69.1 74.3 68.2 73.4 66.6 Z M 80.2 61.4 C 80.2 58.3 79.1 55.8 76.7 55.8 C 75.4 55.8 74 56.9 73.4 58.1 C 73.4 58.1 73.4 64.7 73.4 64.7 C 74 66 75.4 67.1 76.7 67.1 C 79.1 67.1 80.2 64.6 80.2 61.4 Z M 93.2 68.7 C 93.2 68.7 93.18 66.69 93.2 66.7 C 92.3 68 90.8 69.1 89 69.1 C 86.5 69.1 85.3 67.8 85.3 65.2 C 85.35 65.19 85.3 54.2 85.3 54.2 L 87.5 54.2 C 87.5 54.2 87.48 64.56 87.5 64.6 C 87.5 66.5 88.4 67.1 89.8 67.1 C 91.2 67.1 92.5 66.1 93.2 64.9 C 93.18 64.89 93.2 54.2 93.2 54.2 L 95.3 54.2 L 95.3 68.7 L 93.2 68.7 Z M 99 68.7 L 99 48.7 L 101.1 48.7 L 101.1 68.7 L 99 68.7 Z M 106.9 66.6 C 106.92 66.6 106.9 74.2 106.9 74.2 L 104.8 74.2 L 104.8 54.2 L 106.9 54.2 C 106.9 54.2 106.92 56.28 106.9 56.3 C 107.8 54.8 109.2 53.9 110.7 53.9 C 114 53.9 115.9 56.9 115.9 61.4 C 115.9 66 114 69.1 110.7 69.1 C 109.3 69.1 107.8 68.2 106.9 66.6 Z M 113.7 61.4 C 113.7 58.3 112.6 55.8 110.2 55.8 C 108.8 55.8 107.5 56.9 106.9 58.1 C 106.9 58.1 106.9 64.7 106.9 64.7 C 107.5 66 108.8 67.1 110.2 67.1 C 112.6 67.1 113.7 64.6 113.7 61.4 Z " stroke="none" fill="#d3d2d2"/>  </g>  <g id="Polygon148031">    <path d="M 16 32.7 L 16 17 L 10.7 32.7 L 9.8 32.7 L 4.5 17 L 4.5 32.7 L 2.1 32.7 L 2.1 12.7 L 5.4 12.7 L 10.3 26.9 L 15.1 12.7 L 18.4 12.7 L 18.4 32.7 L 16 32.7 Z M 29.6 32.7 C 29.6 32.7 29.61 31.14 29.6 31.1 C 28.7 32.5 27.3 33.1 25.8 33.1 C 23.5 33.1 21.4 31.3 21.4 28.2 C 21.4 25.2 23.4 23.5 25.8 23.5 C 27.3 23.5 28.7 24 29.6 25.3 C 29.6 25.3 29.6 22.8 29.6 22.8 C 29.6 20.8 28.5 19.7 26.6 19.7 C 25.3 19.7 24.1 20.2 23 21.5 C 23 21.5 22 20 22 20 C 23.4 18.5 25.1 17.9 27 17.9 C 29.8 17.9 31.8 19.3 31.8 22.6 C 31.77 22.56 31.8 32.7 31.8 32.7 L 29.6 32.7 Z M 29.6 29.7 C 29.6 29.7 29.6 26.9 29.6 26.9 C 28.9 25.7 27.7 25.1 26.5 25.1 C 24.7 25.1 23.6 26.5 23.6 28.3 C 23.6 30.1 24.7 31.5 26.5 31.5 C 27.7 31.5 28.9 30.9 29.6 29.7 Z M 34.2 31 C 34.2 31 35.3 29.5 35.3 29.5 C 36.1 30.5 37.5 31.3 39.1 31.3 C 40.8 31.3 41.9 30.4 41.9 29 C 41.9 25.6 34.6 26.8 34.6 21.8 C 34.6 19.6 36.4 17.9 39.3 17.9 C 41.2 17.9 42.7 18.6 43.7 19.7 C 43.7 19.7 42.7 21.2 42.7 21.2 C 41.9 20.2 40.7 19.6 39.3 19.6 C 37.7 19.6 36.7 20.5 36.7 21.7 C 36.7 24.8 43.9 23.7 43.9 28.9 C 43.9 31.3 42.1 33.1 39.1 33.1 C 37.1 33.1 35.4 32.4 34.2 31 Z M 54.9 32.7 L 50.9 26.2 L 48.8 28.8 L 48.8 32.7 L 46.7 32.7 L 46.7 12.7 L 48.8 12.7 L 48.8 26.1 L 54.9 18.2 L 57.4 18.2 L 52.3 24.7 L 57.4 32.7 L 54.9 32.7 Z M 59.1 14.6 C 59.1 13.8 59.8 13.2 60.6 13.2 C 61.4 13.2 62.1 13.8 62.1 14.6 C 62.1 15.5 61.4 16.1 60.6 16.1 C 59.8 16.1 59.1 15.5 59.1 14.6 Z M 59.5 32.7 L 59.5 18.2 L 61.7 18.2 L 61.7 32.7 L 59.5 32.7 Z M 73.2 32.7 C 73.2 32.7 73.17 22.38 73.2 22.4 C 73.2 20.5 72.3 19.8 70.9 19.8 C 69.4 19.8 68.1 20.9 67.5 22.1 C 67.47 22.08 67.5 32.7 67.5 32.7 L 65.3 32.7 L 65.3 18.2 L 67.5 18.2 C 67.5 18.2 67.47 20.28 67.5 20.3 C 68.3 19 69.9 17.9 71.7 17.9 C 74.1 17.9 75.3 19.2 75.3 21.8 C 75.33 21.78 75.3 32.7 75.3 32.7 L 73.2 32.7 Z M 78.9 36.8 C 78.9 36.8 79.9 35.1 79.9 35.1 C 80.8 36.2 82 36.8 83.6 36.8 C 85.6 36.8 87.3 35.6 87.3 32.8 C 87.3 32.8 87.3 30.4 87.3 30.4 C 86.4 31.9 85 32.9 83.5 32.9 C 80.2 32.9 78.3 29.9 78.3 25.4 C 78.3 20.9 80.2 17.9 83.5 17.9 C 84.9 17.9 86.4 18.7 87.3 20.3 C 87.27 20.31 87.3 18.2 87.3 18.2 L 89.4 18.2 C 89.4 18.2 89.43 32.67 89.4 32.7 C 89.4 37.1 86.7 38.6 83.7 38.6 C 81.7 38.6 80.2 38.1 78.9 36.8 Z M 87.3 28.6 C 87.3 28.6 87.3 22.1 87.3 22.1 C 86.7 20.9 85.4 19.8 84 19.8 C 81.6 19.8 80.5 22.3 80.5 25.4 C 80.5 28.5 81.6 31 84 31 C 85.4 31 86.7 29.8 87.3 28.6 Z M 99.6 29.8 C 99.63 29.79 99.6 20.1 99.6 20.1 L 97.7 20.1 L 97.7 18.2 L 99.6 18.2 L 99.6 14.3 L 101.8 14.3 L 101.8 18.2 L 104.2 18.2 L 104.2 20.1 L 101.8 20.1 C 101.8 20.1 101.79 29.4 101.8 29.4 C 101.8 30.5 102.1 31.1 103 31.1 C 103.5 31.1 103.9 30.9 104.2 30.6 C 104.2 30.6 104.9 32.2 104.9 32.2 C 104.4 32.7 103.6 33.1 102.5 33.1 C 100.6 33.1 99.6 32 99.6 29.8 Z M 114.2 32.7 C 114.2 32.7 114.24 31.14 114.2 31.1 C 113.3 32.5 111.9 33.1 110.4 33.1 C 108.1 33.1 106 31.3 106 28.2 C 106 25.2 108.1 23.5 110.4 23.5 C 111.9 23.5 113.3 24 114.2 25.3 C 114.2 25.3 114.2 22.8 114.2 22.8 C 114.2 20.8 113.2 19.7 111.3 19.7 C 109.9 19.7 108.7 20.2 107.6 21.5 C 107.6 21.5 106.7 20 106.7 20 C 108.1 18.5 109.8 17.9 111.6 17.9 C 114.5 17.9 116.4 19.3 116.4 22.6 C 116.4 22.56 116.4 32.7 116.4 32.7 L 114.2 32.7 Z M 114.2 29.7 C 114.2 29.7 114.2 26.9 114.2 26.9 C 113.6 25.7 112.4 25.1 111.1 25.1 C 109.3 25.1 108.2 26.5 108.2 28.3 C 108.2 30.1 109.3 31.5 111.1 31.5 C 112.4 31.5 113.6 30.9 114.2 29.7 Z M 122.2 30.6 C 122.16 30.6 122.2 38.2 122.2 38.2 L 120 38.2 L 120 18.2 L 122.2 18.2 C 122.2 18.2 122.16 20.28 122.2 20.3 C 123 18.8 124.4 17.9 126 17.9 C 129.2 17.9 131.2 20.9 131.2 25.4 C 131.2 30 129.2 33.1 126 33.1 C 124.5 33.1 123.1 32.2 122.2 30.6 Z M 128.9 25.4 C 128.9 22.3 127.8 19.8 125.4 19.8 C 124.1 19.8 122.7 20.9 122.2 22.1 C 122.2 22.1 122.2 28.7 122.2 28.7 C 122.7 30 124.1 31.1 125.4 31.1 C 127.8 31.1 128.9 28.6 128.9 25.4 Z M 133.3 25.4 C 133.3 21.2 135.6 17.9 139.2 17.9 C 143 17.9 145 21.3 145 25.5 C 144.96 25.5 145 26.2 145 26.2 C 145 26.2 135.57 26.16 135.6 26.2 C 135.7 29.1 137.2 31.3 139.7 31.3 C 141 31.3 142.3 30.6 143.2 29.5 C 143.2 29.5 144.3 30.8 144.3 30.8 C 143.2 32.2 141.5 33.1 139.6 33.1 C 135.7 33.1 133.3 29.9 133.3 25.4 Z M 139.2 19.7 C 136.6 19.7 135.6 22.4 135.6 24.6 C 135.6 24.6 142.8 24.6 142.8 24.6 C 142.8 22.4 141.8 19.7 139.2 19.7 Z " stroke="none" fill="#d3d2d2"/>  </g></svg>