<?xml version="1.0" standalone="no"?><!DOCTYPE svg PUBLIC "-//W3C//DTD SVG 1.1//EN" "http://www.w3.org/Graphics/SVG/1.1/DTD/svg11.dtd"><svg xmlns="http://www.w3.org/2000/svg" version="1.1" width="191px" height="44.3px" viewBox="0 0 191 44.3">  <desc>50 hrs 15 mins</desc>  <defs/>  <g id="Polygon182240">    <path d="M 11.6 20.9 C 11.6 20.9 14.1 18.3 14.1 18.3 C 15.1 19.7 16.5 20.5 18.2 20.5 C 20.1 20.5 21.3 19 21.3 17.3 C 21.3 15.4 20.2 14.2 18.4 14.2 C 17.1 14.2 16 14.7 15.1 15.8 C 15.1 15.84 12.2 15.1 12.2 15.1 L 12.2 3.7 L 24.2 3.7 L 24.2 7.2 L 16.2 7.2 C 16.2 7.2 16.21 12.36 16.2 12.4 C 17 11.4 18.3 10.7 19.9 10.7 C 22.9 10.7 25.3 13.1 25.3 17.2 C 25.3 21.2 22.6 24.1 18.3 24.1 C 15.3 24.1 13.1 22.9 11.6 20.9 Z M 27.3 13.7 C 27.3 8.5 29.4 3.4 34.3 3.4 C 39.3 3.4 41.4 8.5 41.4 13.7 C 41.4 18.8 39.3 24.1 34.3 24.1 C 29.4 24.1 27.3 18.8 27.3 13.7 Z M 37.3 13.7 C 37.3 9.8 36.7 7 34.3 7 C 32 7 31.4 9.8 31.4 13.7 C 31.4 17.5 32 20.5 34.3 20.5 C 36.7 20.5 37.3 17.5 37.3 13.7 Z M 58.5 23.7 C 58.5 23.7 58.48 14.1 58.5 14.1 C 58.5 12.6 57.8 12 56.6 12 C 55.4 12 54.4 13 54 13.8 C 53.95 13.83 54 23.7 54 23.7 L 50.3 23.7 L 50.3 3.7 L 54 3.7 C 54 3.7 53.95 11.1 54 11.1 C 54.7 10 56.3 8.8 58.2 8.8 C 60.9 8.8 62.1 10.3 62.1 12.7 C 62.08 12.75 62.1 23.7 62.1 23.7 L 58.5 23.7 Z M 65.3 23.7 L 65.3 9.2 L 68.9 9.2 C 68.9 9.2 68.92 11.19 68.9 11.2 C 69.7 9.9 71.3 8.8 72.9 8.8 C 72.9 8.8 72.9 12.4 72.9 12.4 C 72.6 12.3 72.3 12.3 72 12.3 C 70.9 12.3 69.5 13 68.9 14 C 68.92 14.04 68.9 23.7 68.9 23.7 L 65.3 23.7 Z M 73.8 22 C 73.8 22 75.3 19.5 75.3 19.5 C 76.2 20.4 77.9 21.2 79.3 21.2 C 80.7 21.2 81.5 20.6 81.5 19.7 C 81.5 17.3 74.3 18.6 74.3 13.2 C 74.3 10.9 76.2 8.8 79.6 8.8 C 81.6 8.8 83.4 9.6 84.6 10.7 C 84.6 10.7 83.2 13.1 83.2 13.1 C 82.5 12.3 81.1 11.6 79.6 11.6 C 78.5 11.6 77.7 12.2 77.7 13 C 77.7 15.2 84.9 14.1 84.9 19.6 C 84.9 22.2 82.8 24.1 79.4 24.1 C 77.1 24.1 75 23.3 73.8 22 Z M 97.5 23.7 L 97.5 8.9 L 94.5 12 L 92.2 9.6 L 98.1 3.7 L 101.6 3.7 L 101.6 23.7 L 97.5 23.7 Z M 104.5 20.9 C 104.5 20.9 106.9 18.3 106.9 18.3 C 108 19.7 109.4 20.5 111.1 20.5 C 113 20.5 114.1 19 114.1 17.3 C 114.1 15.4 113.1 14.2 111.3 14.2 C 109.9 14.2 108.9 14.7 108 15.8 C 107.98 15.84 105.1 15.1 105.1 15.1 L 105.1 3.7 L 117.1 3.7 L 117.1 7.2 L 109.1 7.2 C 109.1 7.2 109.09 12.36 109.1 12.4 C 109.9 11.4 111.2 10.7 112.8 10.7 C 115.8 10.7 118.2 13.1 118.2 17.2 C 118.2 21.2 115.5 24.1 111.2 24.1 C 108.1 24.1 106 22.9 104.5 20.9 Z M 142.6 23.7 C 142.6 23.7 142.57 13.95 142.6 13.9 C 142.6 12.7 142.1 12 140.9 12 C 139.8 12 138.9 13 138.4 13.8 C 138.43 13.83 138.4 23.7 138.4 23.7 L 134.8 23.7 C 134.8 23.7 134.83 13.95 134.8 13.9 C 134.8 12.8 134.4 12 133.2 12 C 132.1 12 131.1 13 130.7 13.8 C 130.69 13.83 130.7 23.7 130.7 23.7 L 127.1 23.7 L 127.1 9.2 L 130.7 9.2 C 130.7 9.2 130.69 11.1 130.7 11.1 C 131.3 10.1 133 8.8 134.8 8.8 C 136.6 8.8 137.9 9.7 138.3 11.4 C 139 10.1 140.7 8.8 142.5 8.8 C 144.7 8.8 146.2 10 146.2 12.7 C 146.17 12.69 146.2 23.7 146.2 23.7 L 142.6 23.7 Z M 149.1 5.4 C 149.1 4.2 150 3.2 151.2 3.2 C 152.4 3.2 153.4 4.2 153.4 5.4 C 153.4 6.6 152.4 7.6 151.2 7.6 C 150 7.6 149.1 6.6 149.1 5.4 Z M 149.4 23.7 L 149.4 9.2 L 153 9.2 L 153 23.7 L 149.4 23.7 Z M 164.4 23.7 C 164.4 23.7 164.38 14.16 164.4 14.2 C 164.4 12.6 163.7 12 162.5 12 C 161.3 12 160.4 13 159.8 13.8 C 159.85 13.83 159.8 23.7 159.8 23.7 L 156.2 23.7 L 156.2 9.2 L 159.8 9.2 C 159.8 9.2 159.85 11.1 159.8 11.1 C 160.6 10 162.2 8.8 164.1 8.8 C 166.8 8.8 168 10.4 168 12.8 C 167.98 12.81 168 23.7 168 23.7 L 164.4 23.7 Z M 170.1 22 C 170.1 22 171.7 19.5 171.7 19.5 C 172.6 20.4 174.2 21.2 175.7 21.2 C 177 21.2 177.8 20.6 177.8 19.7 C 177.8 17.3 170.6 18.6 170.6 13.2 C 170.6 10.9 172.5 8.8 175.9 8.8 C 178 8.8 179.7 9.6 180.9 10.7 C 180.9 10.7 179.5 13.1 179.5 13.1 C 178.8 12.3 177.4 11.6 176 11.6 C 174.8 11.6 174 12.2 174 13 C 174 15.2 181.2 14.1 181.2 19.6 C 181.2 22.2 179.1 24.1 175.7 24.1 C 173.4 24.1 171.4 23.3 170.1 22 Z " stroke="none" fill="#d3d2d2"/>  </g></svg>