<?xml version="1.0" standalone="no"?><!DOCTYPE svg PUBLIC "-//W3C//DTD SVG 1.1//EN" "http://www.w3.org/Graphics/SVG/1.1/DTD/svg11.dtd"><svg xmlns="http://www.w3.org/2000/svg" version="1.1" width="219px" height="409.3px" viewBox="0 0 219 409.3">  <desc>250 ml 110 ml 70 ml 15 drops 5 drops 3 g tsp 30 ml 8 g 2 tbsp to taste</desc>  <defs/>  <g id="Polygon154123">    <path d="M 2.4 389.8 C 2.4 389.79 2.4 380.1 2.4 380.1 L 0.5 380.1 L 0.5 378.2 L 2.4 378.2 L 2.4 374.3 L 4.6 374.3 L 4.6 378.2 L 7 378.2 L 7 380.1 L 4.6 380.1 C 4.6 380.1 4.56 389.4 4.6 389.4 C 4.6 390.5 4.9 391.1 5.7 391.1 C 6.3 391.1 6.7 390.9 7 390.6 C 7 390.6 7.6 392.2 7.6 392.2 C 7.1 392.7 6.4 393.1 5.3 393.1 C 3.3 393.1 2.4 392 2.4 389.8 Z M 9.1 385.4 C 9.1 381.4 11.2 377.9 15 377.9 C 18.9 377.9 20.9 381.4 20.9 385.4 C 20.9 389.5 18.9 393.1 15 393.1 C 11.2 393.1 9.1 389.5 9.1 385.4 Z M 18.7 385.4 C 18.7 382.5 17.6 379.8 15 379.8 C 12.5 379.8 11.4 382.5 11.4 385.4 C 11.4 388.4 12.5 391.1 15 391.1 C 17.6 391.1 18.7 388.4 18.7 385.4 Z M 31 389.8 C 31.05 389.79 31 380.1 31 380.1 L 29.1 380.1 L 29.1 378.2 L 31 378.2 L 31 374.3 L 33.2 374.3 L 33.2 378.2 L 35.7 378.2 L 35.7 380.1 L 33.2 380.1 C 33.2 380.1 33.21 389.4 33.2 389.4 C 33.2 390.5 33.5 391.1 34.4 391.1 C 34.9 391.1 35.4 390.9 35.6 390.6 C 35.6 390.6 36.3 392.2 36.3 392.2 C 35.8 392.7 35.1 393.1 34 393.1 C 32 393.1 31 392 31 389.8 Z M 46 392.7 C 46 392.7 45.96 391.14 46 391.1 C 45 392.5 43.6 393.1 42.1 393.1 C 39.8 393.1 37.8 391.3 37.8 388.2 C 37.8 385.2 39.8 383.5 42.1 383.5 C 43.6 383.5 45.1 384 46 385.3 C 46 385.3 46 382.8 46 382.8 C 46 380.8 44.9 379.7 43 379.7 C 41.6 379.7 40.5 380.2 39.4 381.5 C 39.4 381.5 38.4 380 38.4 380 C 39.8 378.5 41.5 377.9 43.3 377.9 C 46.2 377.9 48.1 379.3 48.1 382.6 C 48.12 382.56 48.1 392.7 48.1 392.7 L 46 392.7 Z M 46 389.7 C 46 389.7 46 386.9 46 386.9 C 45.3 385.7 44.1 385.1 42.8 385.1 C 41 385.1 40 386.5 40 388.3 C 40 390.1 41 391.5 42.8 391.5 C 44.1 391.5 45.3 390.9 46 389.7 Z M 50.9 391 C 50.9 391 52 389.5 52 389.5 C 52.8 390.5 54.2 391.3 55.7 391.3 C 57.4 391.3 58.5 390.4 58.5 389 C 58.5 385.6 51.3 386.8 51.3 381.8 C 51.3 379.6 53 377.9 55.9 377.9 C 57.8 377.9 59.3 378.6 60.3 379.7 C 60.3 379.7 59.3 381.2 59.3 381.2 C 58.6 380.2 57.4 379.6 55.9 379.6 C 54.4 379.6 53.4 380.5 53.4 381.7 C 53.4 384.8 60.6 383.7 60.6 388.9 C 60.6 391.3 58.7 393.1 55.8 393.1 C 53.7 393.1 52.1 392.4 50.9 391 Z M 64.1 389.8 C 64.08 389.79 64.1 380.1 64.1 380.1 L 62.2 380.1 L 62.2 378.2 L 64.1 378.2 L 64.1 374.3 L 66.2 374.3 L 66.2 378.2 L 68.7 378.2 L 68.7 380.1 L 66.2 380.1 C 66.2 380.1 66.24 389.4 66.2 389.4 C 66.2 390.5 66.6 391.1 67.4 391.1 C 67.9 391.1 68.4 390.9 68.7 390.6 C 68.7 390.6 69.3 392.2 69.3 392.2 C 68.8 392.7 68.1 393.1 67 393.1 C 65 393.1 64.1 392 64.1 389.8 Z M 70.8 385.4 C 70.8 381.2 73 377.9 76.7 377.9 C 80.5 377.9 82.4 381.3 82.4 385.5 C 82.44 385.5 82.4 386.2 82.4 386.2 C 82.4 386.2 73.05 386.16 73 386.2 C 73.1 389.1 74.6 391.3 77.2 391.3 C 78.5 391.3 79.8 390.6 80.7 389.5 C 80.7 389.5 81.8 390.8 81.8 390.8 C 80.6 392.2 79 393.1 77 393.1 C 73.2 393.1 70.8 389.9 70.8 385.4 Z M 76.7 379.7 C 74.1 379.7 73.1 382.4 73 384.6 C 73 384.6 80.3 384.6 80.3 384.6 C 80.3 382.4 79.3 379.7 76.7 379.7 Z " stroke="none" fill="#d0d1d4"/>  </g>  <g id="Polygon154122">    <path d="M 1.6 356.7 C 1.6 356.7 1.59 354.75 1.6 354.8 C 8.1 347.2 10.4 344.8 10.4 341.9 C 10.4 339.7 8.9 338.5 7.2 338.5 C 5.3 338.5 3.9 339.5 2.9 341 C 2.9 341 1.4 339.6 1.4 339.6 C 2.7 337.6 4.7 336.4 7.2 336.4 C 10.3 336.4 12.8 338.4 12.8 341.9 C 12.8 345.2 10.3 348.2 5 354.6 C 4.98 354.57 12.9 354.6 12.9 354.6 L 12.9 356.7 L 1.6 356.7 Z M 23.5 353.8 C 23.52 353.79 23.5 344.1 23.5 344.1 L 21.6 344.1 L 21.6 342.2 L 23.5 342.2 L 23.5 338.3 L 25.7 338.3 L 25.7 342.2 L 28.1 342.2 L 28.1 344.1 L 25.7 344.1 C 25.7 344.1 25.68 353.4 25.7 353.4 C 25.7 354.5 26 355.1 26.8 355.1 C 27.4 355.1 27.8 354.9 28.1 354.6 C 28.1 354.6 28.8 356.2 28.8 356.2 C 28.3 356.7 27.5 357.1 26.4 357.1 C 24.4 357.1 23.5 356 23.5 353.8 Z M 36.4 355.1 C 38.8 355.1 39.9 352.6 39.9 349.5 C 39.9 346.3 38.8 343.8 36.4 343.8 C 35 343.8 33.7 344.9 33.1 346.2 C 33.1 346.2 33.1 352.8 33.1 352.8 C 33.7 354.1 35 355.1 36.4 355.1 Z M 31 356.7 L 31 336.7 L 33.1 336.7 C 33.1 336.7 33.12 344.31 33.1 344.3 C 34 342.7 35.5 341.9 36.9 341.9 C 40.2 341.9 42.1 345 42.1 349.5 C 42.1 354 40.2 357.1 36.9 357.1 C 35.4 357.1 34 356.1 33.1 354.6 C 33.12 354.63 33.1 356.7 33.1 356.7 L 31 356.7 Z M 44.2 355 C 44.2 355 45.3 353.5 45.3 353.5 C 46.1 354.5 47.5 355.3 49.1 355.3 C 50.8 355.3 51.9 354.4 51.9 353 C 51.9 349.6 44.6 350.8 44.6 345.8 C 44.6 343.6 46.4 341.9 49.3 341.9 C 51.2 341.9 52.6 342.6 53.7 343.7 C 53.7 343.7 52.6 345.2 52.6 345.2 C 51.9 344.2 50.7 343.6 49.3 343.6 C 47.7 343.6 46.7 344.5 46.7 345.7 C 46.7 348.8 53.9 347.7 53.9 352.9 C 53.9 355.3 52.1 357.1 49.1 357.1 C 47.1 357.1 45.4 356.4 44.2 355 Z M 59.1 354.6 C 59.13 354.6 59.1 362.2 59.1 362.2 L 57 362.2 L 57 342.2 L 59.1 342.2 C 59.1 342.2 59.13 344.28 59.1 344.3 C 60 342.8 61.4 341.9 62.9 341.9 C 66.2 341.9 68.1 344.9 68.1 349.4 C 68.1 354 66.2 357.1 62.9 357.1 C 61.5 357.1 60 356.2 59.1 354.6 Z M 65.9 349.4 C 65.9 346.3 64.8 343.8 62.4 343.8 C 61 343.8 59.7 344.9 59.1 346.1 C 59.1 346.1 59.1 352.7 59.1 352.7 C 59.7 354 61 355.1 62.4 355.1 C 64.8 355.1 65.9 352.6 65.9 349.4 Z M 71 355.4 C 71 354.5 71.7 353.8 72.6 353.8 C 73.4 353.8 74.2 354.5 74.2 355.4 C 74.2 356.3 73.4 357 72.6 357 C 71.7 357 71 356.3 71 355.4 Z " stroke="none" fill="#d0d1d4"/>  </g>  <g id="Polygon154121">    <path d="M 1.4 315.8 C 1.4 313.1 3.4 311.1 5.3 310.4 C 3.5 309.7 1.6 308 1.6 305.5 C 1.6 302 4.4 300.4 7.3 300.4 C 10.2 300.4 13 302 13 305.5 C 13 308 11.1 309.7 9.3 310.4 C 11.2 311.1 13.2 313.1 13.2 315.8 C 13.2 319.1 10.8 321.1 7.3 321.1 C 3.8 321.1 1.4 319.1 1.4 315.8 Z M 10.6 305.8 C 10.6 303.8 9.2 302.5 7.3 302.5 C 5.3 302.5 4 303.8 4 305.8 C 4 308.3 6.5 309.3 7.3 309.5 C 8.1 309.3 10.6 308.3 10.6 305.8 Z M 10.8 315.5 C 10.8 312.8 8.1 311.5 7.3 311.4 C 6.4 311.5 3.8 312.8 3.8 315.5 C 3.8 317.7 5.3 318.9 7.3 318.9 C 9.2 318.9 10.8 317.7 10.8 315.5 Z M 22.9 324.8 C 22.9 324.8 23.9 323.1 23.9 323.1 C 24.8 324.2 26.1 324.8 27.7 324.8 C 29.6 324.8 31.3 323.6 31.3 320.8 C 31.3 320.8 31.3 318.4 31.3 318.4 C 30.4 319.9 29 320.9 27.5 320.9 C 24.2 320.9 22.3 317.9 22.3 313.4 C 22.3 308.9 24.2 305.9 27.5 305.9 C 28.9 305.9 30.4 306.7 31.3 308.3 C 31.29 308.31 31.3 306.2 31.3 306.2 L 33.4 306.2 C 33.4 306.2 33.45 320.67 33.4 320.7 C 33.4 325.1 30.7 326.6 27.7 326.6 C 25.8 326.6 24.3 326.1 22.9 324.8 Z M 31.3 316.6 C 31.3 316.6 31.3 310.1 31.3 310.1 C 30.7 308.9 29.4 307.8 28 307.8 C 25.6 307.8 24.5 310.3 24.5 313.4 C 24.5 316.5 25.6 319 28 319 C 29.4 319 30.7 317.8 31.3 316.6 Z " stroke="none" fill="#d0d1d4"/>  </g>  <g id="Polygon154120">    <path d="M 0.9 281.7 C 0.9 281.7 2.4 280.3 2.4 280.3 C 3.4 281.8 4.8 282.9 6.7 282.9 C 9.1 282.9 10.3 281.4 10.3 279.1 C 10.3 276.4 8.6 275.5 6.5 275.5 C 5.9 275.5 5.2 275.5 4.9 275.5 C 4.9 275.5 4.9 273.4 4.9 273.4 C 5.2 273.4 6 273.4 6.5 273.4 C 8.5 273.4 10.1 272.3 10.1 270 C 10.1 267.7 8.7 266.5 6.7 266.5 C 4.9 266.5 3.6 267.5 2.6 268.9 C 2.6 268.9 1.1 267.5 1.1 267.5 C 2.3 265.6 4.3 264.4 6.8 264.4 C 10.1 264.4 12.5 266.2 12.5 269.7 C 12.5 272.2 10.7 273.9 8.9 274.4 C 10.7 274.6 12.8 276.4 12.8 279.3 C 12.8 282.6 10.6 285.1 6.8 285.1 C 4 285.1 1.9 283.6 0.9 281.7 Z M 15.6 274.7 C 15.6 269.9 17.2 264.4 21.9 264.4 C 26.5 264.4 28.1 269.9 28.1 274.7 C 28.1 279.5 26.5 285.1 21.9 285.1 C 17.2 285.1 15.6 279.5 15.6 274.7 Z M 25.7 274.7 C 25.7 270.8 25 266.5 21.9 266.5 C 18.8 266.5 18.1 270.8 18.1 274.7 C 18.1 278.6 18.8 282.9 21.9 282.9 C 25 282.9 25.7 278.6 25.7 274.7 Z M 52.6 284.7 C 52.6 284.7 52.62 274.2 52.6 274.2 C 52.6 272.6 52 271.8 50.6 271.8 C 49.3 271.8 48 272.9 47.5 274.1 C 47.46 274.08 47.5 284.7 47.5 284.7 L 45.3 284.7 C 45.3 284.7 45.3 274.2 45.3 274.2 C 45.3 272.6 44.7 271.8 43.3 271.8 C 42 271.8 40.7 272.9 40.1 274.1 C 40.11 274.08 40.1 284.7 40.1 284.7 L 38 284.7 L 38 270.2 L 40.1 270.2 C 40.1 270.2 40.11 272.28 40.1 272.3 C 40.7 271.2 42.3 269.9 44.1 269.9 C 45.9 269.9 47.1 270.9 47.3 272.4 C 48.1 271.1 49.7 269.9 51.4 269.9 C 53.5 269.9 54.8 271 54.8 273.6 C 54.78 273.63 54.8 284.7 54.8 284.7 L 52.6 284.7 Z M 58.7 284.7 L 58.7 264.7 L 60.9 264.7 L 60.9 284.7 L 58.7 284.7 Z " stroke="none" fill="#d0d1d4"/>  </g>  <g id="Polygon154119">    <path d="M 3.3 240.7 L 3.3 230.9 L 1.4 232.9 L 0.4 231.9 L 3.5 228.7 L 5.1 228.7 L 5.1 240.7 L 3.3 240.7 Z M 12.7 248.7 C 12.7 248.7 12.66 247.38 12.7 247.4 C 16.9 243.2 18.4 241.7 18.4 239.9 C 18.4 238.6 17.4 238 16.3 238 C 15.1 238 14.1 238.6 13.6 239.5 C 13.6 239.5 12.5 238.4 12.5 238.4 C 13.4 237.2 14.8 236.5 16.4 236.5 C 18.4 236.5 20.1 237.7 20.1 239.9 C 20.1 242 18.4 243.8 15 247.3 C 15 247.26 20.2 247.3 20.2 247.3 L 20.2 248.7 L 12.7 248.7 Z M 5 248.7 L 3.5 248.7 L 14 228.7 L 15.5 228.7 L 5 248.7 Z M 30.1 245.8 C 30.06 245.79 30.1 236.1 30.1 236.1 L 28.1 236.1 L 28.1 234.2 L 30.1 234.2 L 30.1 230.3 L 32.2 230.3 L 32.2 234.2 L 34.7 234.2 L 34.7 236.1 L 32.2 236.1 C 32.2 236.1 32.22 245.4 32.2 245.4 C 32.2 246.5 32.5 247.1 33.4 247.1 C 33.9 247.1 34.4 246.9 34.6 246.6 C 34.6 246.6 35.3 248.2 35.3 248.2 C 34.8 248.7 34.1 249.1 33 249.1 C 31 249.1 30.1 248 30.1 245.8 Z M 36.4 247 C 36.4 247 37.4 245.5 37.4 245.5 C 38.3 246.5 39.7 247.3 41.2 247.3 C 42.9 247.3 44 246.4 44 245 C 44 241.6 36.8 242.8 36.8 237.8 C 36.8 235.6 38.5 233.9 41.4 233.9 C 43.3 233.9 44.8 234.6 45.8 235.7 C 45.8 235.7 44.8 237.2 44.8 237.2 C 44.1 236.2 42.8 235.6 41.4 235.6 C 39.8 235.6 38.8 236.5 38.8 237.7 C 38.8 240.8 46.1 239.7 46.1 244.9 C 46.1 247.3 44.2 249.1 41.2 249.1 C 39.2 249.1 37.6 248.4 36.4 247 Z M 51.3 246.6 C 51.27 246.6 51.3 254.2 51.3 254.2 L 49.1 254.2 L 49.1 234.2 L 51.3 234.2 C 51.3 234.2 51.27 236.28 51.3 236.3 C 52.1 234.8 53.5 233.9 55.1 233.9 C 58.3 233.9 60.3 236.9 60.3 241.4 C 60.3 246 58.3 249.1 55.1 249.1 C 53.6 249.1 52.2 248.2 51.3 246.6 Z M 58 241.4 C 58 238.3 56.9 235.8 54.5 235.8 C 53.2 235.8 51.8 236.9 51.3 238.1 C 51.3 238.1 51.3 244.7 51.3 244.7 C 51.8 246 53.2 247.1 54.5 247.1 C 56.9 247.1 58 244.6 58 241.4 Z M 63.1 247.4 C 63.1 246.5 63.8 245.8 64.7 245.8 C 65.6 245.8 66.3 246.5 66.3 247.4 C 66.3 248.3 65.6 249 64.7 249 C 63.8 249 63.1 248.3 63.1 247.4 Z " stroke="none" fill="#d0d1d4"/>  </g>  <g id="Polygon154118">    <path d="M 0.9 209.7 C 0.9 209.7 2.4 208.3 2.4 208.3 C 3.4 209.8 4.8 210.9 6.7 210.9 C 9.1 210.9 10.3 209.4 10.3 207.1 C 10.3 204.4 8.6 203.5 6.5 203.5 C 5.9 203.5 5.2 203.5 4.9 203.5 C 4.9 203.5 4.9 201.4 4.9 201.4 C 5.2 201.4 6 201.4 6.5 201.4 C 8.5 201.4 10.1 200.3 10.1 198 C 10.1 195.7 8.7 194.5 6.7 194.5 C 4.9 194.5 3.6 195.5 2.6 196.9 C 2.6 196.9 1.1 195.5 1.1 195.5 C 2.3 193.6 4.3 192.4 6.8 192.4 C 10.1 192.4 12.5 194.2 12.5 197.7 C 12.5 200.2 10.7 201.9 8.9 202.4 C 10.7 202.6 12.8 204.4 12.8 207.3 C 12.8 210.6 10.6 213.1 6.8 213.1 C 4 213.1 1.9 211.6 0.9 209.7 Z M 22.5 216.8 C 22.5 216.8 23.5 215.1 23.5 215.1 C 24.4 216.2 25.7 216.8 27.3 216.8 C 29.2 216.8 30.9 215.6 30.9 212.8 C 30.9 212.8 30.9 210.4 30.9 210.4 C 30.1 211.9 28.6 212.9 27.1 212.9 C 23.8 212.9 21.9 209.9 21.9 205.4 C 21.9 200.9 23.8 197.9 27.1 197.9 C 28.6 197.9 30 198.7 30.9 200.3 C 30.9 200.31 30.9 198.2 30.9 198.2 L 33.1 198.2 C 33.1 198.2 33.06 212.67 33.1 212.7 C 33.1 217.1 30.4 218.6 27.3 218.6 C 25.4 218.6 23.9 218.1 22.5 216.8 Z M 30.9 208.6 C 30.9 208.6 30.9 202.1 30.9 202.1 C 30.4 200.9 29 199.8 27.6 199.8 C 25.3 199.8 24.1 202.3 24.1 205.4 C 24.1 208.5 25.3 211 27.6 211 C 29 211 30.4 209.8 30.9 208.6 Z " stroke="none" fill="#d0d1d4"/>  </g>  <g id="Polygon154117">    <path d="M 1.6 173.8 C 1.6 173.8 3.1 172.4 3.1 172.4 C 4.1 174 5.4 174.9 7.4 174.9 C 9.6 174.9 10.9 172.9 10.9 170.6 C 10.9 167.7 9.6 166.2 7.5 166.2 C 6.1 166.2 5 166.7 3.9 168 C 3.9 168.03 2.1 167.4 2.1 167.4 L 2.1 156.7 L 12.3 156.7 L 12.3 158.8 L 4.5 158.8 C 4.5 158.8 4.5 165.81 4.5 165.8 C 5.3 164.9 6.6 164.1 8.2 164.1 C 11.1 164.1 13.4 166.4 13.4 170.5 C 13.4 174.3 10.9 177.1 7.4 177.1 C 4.5 177.1 2.8 175.8 1.6 173.8 Z M 31.4 176.7 C 31.4 176.7 31.44 174.63 31.4 174.6 C 30.6 176.1 29.2 177.1 27.6 177.1 C 24.4 177.1 22.4 174 22.4 169.5 C 22.4 165 24.4 161.9 27.6 161.9 C 29.1 161.9 30.6 162.7 31.4 164.3 C 31.44 164.31 31.4 156.7 31.4 156.7 L 33.6 156.7 L 33.6 176.7 L 31.4 176.7 Z M 31.4 172.8 C 31.4 172.8 31.4 166.1 31.4 166.1 C 30.9 164.9 29.5 163.8 28.2 163.8 C 25.8 163.8 24.7 166.3 24.7 169.5 C 24.7 172.6 25.8 175.1 28.2 175.1 C 29.5 175.1 30.9 174.1 31.4 172.8 Z M 37.6 176.7 L 37.6 162.2 L 39.7 162.2 C 39.7 162.2 39.69 164.52 39.7 164.5 C 40.6 163 42 161.9 43.8 161.9 C 43.8 161.9 43.8 164.1 43.8 164.1 C 43.6 164.1 43.3 164 43.1 164 C 41.8 164 40.3 165.2 39.7 166.4 C 39.69 166.41 39.7 176.7 39.7 176.7 L 37.6 176.7 Z M 45.6 169.4 C 45.6 165.4 47.6 161.9 51.4 161.9 C 55.3 161.9 57.4 165.4 57.4 169.4 C 57.4 173.5 55.3 177.1 51.4 177.1 C 47.6 177.1 45.6 173.5 45.6 169.4 Z M 55.1 169.4 C 55.1 166.5 54 163.8 51.4 163.8 C 49 163.8 47.8 166.5 47.8 169.4 C 47.8 172.4 49 175.1 51.4 175.1 C 54 175.1 55.1 172.4 55.1 169.4 Z M 62.7 174.6 C 62.73 174.6 62.7 182.2 62.7 182.2 L 60.6 182.2 L 60.6 162.2 L 62.7 162.2 C 62.7 162.2 62.73 164.28 62.7 164.3 C 63.6 162.8 65 161.9 66.5 161.9 C 69.8 161.9 71.7 164.9 71.7 169.4 C 71.7 174 69.8 177.1 66.5 177.1 C 65.1 177.1 63.6 176.2 62.7 174.6 Z M 69.5 169.4 C 69.5 166.3 68.4 163.8 66 163.8 C 64.6 163.8 63.3 164.9 62.7 166.1 C 62.7 166.1 62.7 172.7 62.7 172.7 C 63.3 174 64.6 175.1 66 175.1 C 68.4 175.1 69.5 172.6 69.5 169.4 Z M 73.8 175 C 73.8 175 74.8 173.5 74.8 173.5 C 75.7 174.5 77.1 175.3 78.6 175.3 C 80.3 175.3 81.4 174.4 81.4 173 C 81.4 169.6 74.2 170.8 74.2 165.8 C 74.2 163.6 75.9 161.9 78.8 161.9 C 80.7 161.9 82.2 162.6 83.2 163.7 C 83.2 163.7 82.2 165.2 82.2 165.2 C 81.5 164.2 80.2 163.6 78.8 163.6 C 77.2 163.6 76.3 164.5 76.3 165.7 C 76.3 168.8 83.5 167.7 83.5 172.9 C 83.5 175.3 81.6 177.1 78.7 177.1 C 76.6 177.1 75 176.4 73.8 175 Z " stroke="none" fill="#d0d1d4"/>  </g>  <g id="Polygon154116">    <path d="M 5 140.7 L 5 123.8 L 1.9 127.1 L 0.4 125.6 L 5.3 120.7 L 7.3 120.7 L 7.3 140.7 L 5 140.7 Z M 11 137.8 C 11 137.8 12.6 136.4 12.6 136.4 C 13.6 138 14.9 138.9 16.8 138.9 C 19 138.9 20.4 136.9 20.4 134.6 C 20.4 131.7 19 130.2 17 130.2 C 15.6 130.2 14.5 130.7 13.3 132 C 13.35 132.03 11.6 131.4 11.6 131.4 L 11.6 120.7 L 21.8 120.7 L 21.8 122.8 L 13.9 122.8 C 13.9 122.8 13.95 129.81 13.9 129.8 C 14.7 128.9 16 128.1 17.6 128.1 C 20.5 128.1 22.8 130.4 22.8 134.5 C 22.8 138.3 20.4 141.1 16.9 141.1 C 13.9 141.1 12.2 139.8 11 137.8 Z M 40.9 140.7 C 40.9 140.7 40.89 138.63 40.9 138.6 C 40 140.1 38.6 141.1 37.1 141.1 C 33.8 141.1 31.9 138 31.9 133.5 C 31.9 129 33.8 125.9 37.1 125.9 C 38.5 125.9 40 126.7 40.9 128.3 C 40.89 128.31 40.9 120.7 40.9 120.7 L 43 120.7 L 43 140.7 L 40.9 140.7 Z M 40.9 136.8 C 40.9 136.8 40.9 130.1 40.9 130.1 C 40.3 128.9 39 127.8 37.6 127.8 C 35.2 127.8 34.1 130.3 34.1 133.5 C 34.1 136.6 35.2 139.1 37.6 139.1 C 39 139.1 40.3 138.1 40.9 136.8 Z M 47 140.7 L 47 126.2 L 49.1 126.2 C 49.1 126.2 49.14 128.52 49.1 128.5 C 50.1 127 51.5 125.9 53.2 125.9 C 53.2 125.9 53.2 128.1 53.2 128.1 C 53 128.1 52.8 128 52.5 128 C 51.2 128 49.7 129.2 49.1 130.4 C 49.14 130.41 49.1 140.7 49.1 140.7 L 47 140.7 Z M 55 133.4 C 55 129.4 57.1 125.9 60.9 125.9 C 64.8 125.9 66.8 129.4 66.8 133.4 C 66.8 137.5 64.8 141.1 60.9 141.1 C 57.1 141.1 55 137.5 55 133.4 Z M 64.6 133.4 C 64.6 130.5 63.4 127.8 60.9 127.8 C 58.4 127.8 57.3 130.5 57.3 133.4 C 57.3 136.4 58.4 139.1 60.9 139.1 C 63.4 139.1 64.6 136.4 64.6 133.4 Z M 72.2 138.6 C 72.18 138.6 72.2 146.2 72.2 146.2 L 70 146.2 L 70 126.2 L 72.2 126.2 C 72.2 126.2 72.18 128.28 72.2 128.3 C 73 126.8 74.5 125.9 76 125.9 C 79.3 125.9 81.2 128.9 81.2 133.4 C 81.2 138 79.3 141.1 76 141.1 C 74.5 141.1 73.1 140.2 72.2 138.6 Z M 78.9 133.4 C 78.9 130.3 77.8 127.8 75.4 127.8 C 74.1 127.8 72.7 128.9 72.2 130.1 C 72.2 130.1 72.2 136.7 72.2 136.7 C 72.7 138 74.1 139.1 75.4 139.1 C 77.8 139.1 78.9 136.6 78.9 133.4 Z M 83.2 139 C 83.2 139 84.3 137.5 84.3 137.5 C 85.1 138.5 86.5 139.3 88.1 139.3 C 89.8 139.3 90.9 138.4 90.9 137 C 90.9 133.6 83.6 134.8 83.6 129.8 C 83.6 127.6 85.4 125.9 88.3 125.9 C 90.2 125.9 91.6 126.6 92.7 127.7 C 92.7 127.7 91.6 129.2 91.6 129.2 C 90.9 128.2 89.7 127.6 88.3 127.6 C 86.7 127.6 85.7 128.5 85.7 129.7 C 85.7 132.8 92.9 131.7 92.9 136.9 C 92.9 139.3 91.1 141.1 88.1 141.1 C 86.1 141.1 84.4 140.4 83.2 139 Z " stroke="none" fill="#d0d1d4"/>  </g>  <g id="Polygon154115">    <path d="M 3 104.7 L 9.2 86.8 L 0.8 86.8 L 0.8 84.7 L 11.9 84.7 L 11.9 86.3 L 5.5 104.7 L 3 104.7 Z M 14.1 94.7 C 14.1 89.9 15.7 84.4 20.3 84.4 C 25 84.4 26.6 89.9 26.6 94.7 C 26.6 99.5 25 105.1 20.3 105.1 C 15.7 105.1 14.1 99.5 14.1 94.7 Z M 24.2 94.7 C 24.2 90.8 23.4 86.5 20.3 86.5 C 17.3 86.5 16.5 90.8 16.5 94.7 C 16.5 98.6 17.2 102.9 20.3 102.9 C 23.4 102.9 24.2 98.6 24.2 94.7 Z M 51.1 104.7 C 51.1 104.7 51.09 94.2 51.1 94.2 C 51.1 92.6 50.5 91.8 49.1 91.8 C 47.8 91.8 46.5 92.9 45.9 94.1 C 45.93 94.08 45.9 104.7 45.9 104.7 L 43.8 104.7 C 43.8 104.7 43.77 94.2 43.8 94.2 C 43.8 92.6 43.1 91.8 41.7 91.8 C 40.4 91.8 39.2 92.9 38.6 94.1 C 38.58 94.08 38.6 104.7 38.6 104.7 L 36.4 104.7 L 36.4 90.2 L 38.6 90.2 C 38.6 90.2 38.58 92.28 38.6 92.3 C 39.2 91.2 40.8 89.9 42.5 89.9 C 44.4 89.9 45.5 90.9 45.8 92.4 C 46.5 91.1 48.1 89.9 49.9 89.9 C 52 89.9 53.2 91 53.2 93.6 C 53.25 93.63 53.2 104.7 53.2 104.7 L 51.1 104.7 Z M 57.2 104.7 L 57.2 84.7 L 59.3 84.7 L 59.3 104.7 L 57.2 104.7 Z " stroke="none" fill="#d0d1d4"/>  </g>  <g id="Polygon154114">    <path d="M 5 68.7 L 5 51.8 L 1.9 55.1 L 0.4 53.6 L 5.3 48.7 L 7.3 48.7 L 7.3 68.7 L 5 68.7 Z M 14.4 68.7 L 14.4 51.8 L 11.3 55.1 L 9.9 53.6 L 14.7 48.7 L 16.8 48.7 L 16.8 68.7 L 14.4 68.7 Z M 20.3 58.7 C 20.3 53.9 21.9 48.4 26.6 48.4 C 31.3 48.4 32.8 53.9 32.8 58.7 C 32.8 63.5 31.3 69.1 26.6 69.1 C 21.9 69.1 20.3 63.5 20.3 58.7 Z M 30.4 58.7 C 30.4 54.8 29.7 50.5 26.6 50.5 C 23.5 50.5 22.8 54.8 22.8 58.7 C 22.8 62.6 23.5 66.9 26.6 66.9 C 29.7 66.9 30.4 62.6 30.4 58.7 Z M 57.3 68.7 C 57.3 68.7 57.33 58.2 57.3 58.2 C 57.3 56.6 56.7 55.8 55.3 55.8 C 54 55.8 52.7 56.9 52.2 58.1 C 52.17 58.08 52.2 68.7 52.2 68.7 L 50 68.7 C 50 68.7 50.01 58.2 50 58.2 C 50 56.6 49.4 55.8 48 55.8 C 46.7 55.8 45.4 56.9 44.8 58.1 C 44.82 58.08 44.8 68.7 44.8 68.7 L 42.7 68.7 L 42.7 54.2 L 44.8 54.2 C 44.8 54.2 44.82 56.28 44.8 56.3 C 45.4 55.2 47 53.9 48.8 53.9 C 50.6 53.9 51.8 54.9 52 56.4 C 52.8 55.1 54.4 53.9 56.1 53.9 C 58.3 53.9 59.5 55 59.5 57.6 C 59.49 57.63 59.5 68.7 59.5 68.7 L 57.3 68.7 Z M 63.4 68.7 L 63.4 48.7 L 65.6 48.7 L 65.6 68.7 L 63.4 68.7 Z " stroke="none" fill="#d0d1d4"/>  </g>  <g id="Polygon154113">    <path d="M 1.6 32.7 C 1.6 32.7 1.59 30.75 1.6 30.8 C 8.1 23.2 10.4 20.8 10.4 17.9 C 10.4 15.7 8.9 14.5 7.2 14.5 C 5.3 14.5 3.9 15.5 2.9 17 C 2.9 17 1.4 15.6 1.4 15.6 C 2.7 13.6 4.7 12.4 7.2 12.4 C 10.3 12.4 12.8 14.4 12.8 17.9 C 12.8 21.2 10.3 24.2 5 30.6 C 4.98 30.57 12.9 30.6 12.9 30.6 L 12.9 32.7 L 1.6 32.7 Z M 16.2 29.8 C 16.2 29.8 17.8 28.4 17.8 28.4 C 18.8 30 20.1 30.9 22 30.9 C 24.2 30.9 25.6 28.9 25.6 26.6 C 25.6 23.7 24.3 22.2 22.2 22.2 C 20.8 22.2 19.7 22.7 18.6 24 C 18.57 24.03 16.8 23.4 16.8 23.4 L 16.8 12.7 L 27 12.7 L 27 14.8 L 19.2 14.8 C 19.2 14.8 19.17 21.81 19.2 21.8 C 19.9 20.9 21.3 20.1 22.9 20.1 C 25.7 20.1 28 22.4 28 26.5 C 28 30.3 25.6 33.1 22.1 33.1 C 19.2 33.1 17.5 31.8 16.2 29.8 Z M 30.8 22.7 C 30.8 17.9 32.4 12.4 37.1 12.4 C 41.8 12.4 43.3 17.9 43.3 22.7 C 43.3 27.5 41.8 33.1 37.1 33.1 C 32.4 33.1 30.8 27.5 30.8 22.7 Z M 40.9 22.7 C 40.9 18.8 40.2 14.5 37.1 14.5 C 34 14.5 33.3 18.8 33.3 22.7 C 33.3 26.6 34 30.9 37.1 30.9 C 40.2 30.9 40.9 26.6 40.9 22.7 Z M 67.8 32.7 C 67.8 32.7 67.83 22.2 67.8 22.2 C 67.8 20.6 67.2 19.8 65.8 19.8 C 64.5 19.8 63.2 20.9 62.7 22.1 C 62.67 22.08 62.7 32.7 62.7 32.7 L 60.5 32.7 C 60.5 32.7 60.51 22.2 60.5 22.2 C 60.5 20.6 59.9 19.8 58.5 19.8 C 57.2 19.8 55.9 20.9 55.3 22.1 C 55.32 22.08 55.3 32.7 55.3 32.7 L 53.2 32.7 L 53.2 18.2 L 55.3 18.2 C 55.3 18.2 55.32 20.28 55.3 20.3 C 55.9 19.2 57.5 17.9 59.3 17.9 C 61.1 17.9 62.3 18.9 62.5 20.4 C 63.3 19.1 64.9 17.9 66.6 17.9 C 68.8 17.9 70 19 70 21.6 C 69.99 21.63 70 32.7 70 32.7 L 67.8 32.7 Z M 73.9 32.7 L 73.9 12.7 L 76.1 12.7 L 76.1 32.7 L 73.9 32.7 Z " stroke="none" fill="#d0d1d4"/>  </g></svg>