<?xml version="1.0" standalone="no"?><!DOCTYPE svg PUBLIC "-//W3C//DTD SVG 1.1//EN" "http://www.w3.org/Graphics/SVG/1.1/DTD/svg11.dtd"><svg xmlns="http://www.w3.org/2000/svg" version="1.1" width="191px" height="44.3px" viewBox="0 0 191 44.3">  <desc>47 hrs 45 mins</desc>  <defs/>  <g id="Polygon168167">    <path d="M 18.5 23.7 L 18.5 19.4 L 10.3 19.4 L 10.3 16.1 L 17.3 3.7 L 22.5 3.7 L 22.5 15.9 L 24.5 15.9 L 24.5 19.4 L 22.5 19.4 L 22.5 23.7 L 18.5 23.7 Z M 18.5 7.8 L 13.9 15.9 L 18.5 15.9 L 18.5 7.8 Z M 28 23.7 L 34 7.2 L 25.8 7.2 L 25.8 3.7 L 38.6 3.7 L 38.6 6.5 L 32.4 23.7 L 28 23.7 Z M 55.2 23.7 C 55.2 23.7 55.24 14.1 55.2 14.1 C 55.2 12.6 54.5 12 53.3 12 C 52.2 12 51.2 13 50.7 13.8 C 50.71 13.83 50.7 23.7 50.7 23.7 L 47.1 23.7 L 47.1 3.7 L 50.7 3.7 C 50.7 3.7 50.71 11.1 50.7 11.1 C 51.5 10 53.1 8.8 54.9 8.8 C 57.6 8.8 58.8 10.3 58.8 12.7 C 58.84 12.75 58.8 23.7 58.8 23.7 L 55.2 23.7 Z M 62.1 23.7 L 62.1 9.2 L 65.7 9.2 C 65.7 9.2 65.68 11.19 65.7 11.2 C 66.5 9.9 68.1 8.8 69.6 8.8 C 69.6 8.8 69.6 12.4 69.6 12.4 C 69.4 12.3 69.1 12.3 68.8 12.3 C 67.6 12.3 66.3 13 65.7 14 C 65.68 14.04 65.7 23.7 65.7 23.7 L 62.1 23.7 Z M 70.6 22 C 70.6 22 72.1 19.5 72.1 19.5 C 73 20.4 74.6 21.2 76.1 21.2 C 77.5 21.2 78.2 20.6 78.2 19.7 C 78.2 17.3 71.1 18.6 71.1 13.2 C 71.1 10.9 72.9 8.8 76.3 8.8 C 78.4 8.8 80.1 9.6 81.4 10.7 C 81.4 10.7 79.9 13.1 79.9 13.1 C 79.2 12.3 77.9 11.6 76.4 11.6 C 75.3 11.6 74.5 12.2 74.5 13 C 74.5 15.2 81.7 14.1 81.7 19.6 C 81.7 22.2 79.5 24.1 76.2 24.1 C 73.8 24.1 71.8 23.3 70.6 22 Z M 97.5 23.7 L 97.5 19.4 L 89.3 19.4 L 89.3 16.1 L 96.3 3.7 L 101.5 3.7 L 101.5 15.9 L 103.5 15.9 L 103.5 19.4 L 101.5 19.4 L 101.5 23.7 L 97.5 23.7 Z M 97.5 7.8 L 93 15.9 L 97.5 15.9 L 97.5 7.8 Z M 105.3 20.9 C 105.3 20.9 107.7 18.3 107.7 18.3 C 108.8 19.7 110.2 20.5 111.9 20.5 C 113.8 20.5 114.9 19 114.9 17.3 C 114.9 15.4 113.9 14.2 112.1 14.2 C 110.7 14.2 109.7 14.7 108.8 15.8 C 108.76 15.84 105.9 15.1 105.9 15.1 L 105.9 3.7 L 117.9 3.7 L 117.9 7.2 L 109.9 7.2 C 109.9 7.2 109.87 12.36 109.9 12.4 C 110.7 11.4 112 10.7 113.5 10.7 C 116.6 10.7 119 13.1 119 17.2 C 119 21.2 116.3 24.1 112 24.1 C 108.9 24.1 106.8 22.9 105.3 20.9 Z M 143.4 23.7 C 143.4 23.7 143.35 13.95 143.4 13.9 C 143.4 12.7 142.8 12 141.7 12 C 140.6 12 139.7 13 139.2 13.8 C 139.21 13.83 139.2 23.7 139.2 23.7 L 135.6 23.7 C 135.6 23.7 135.61 13.95 135.6 13.9 C 135.6 12.8 135.1 12 134 12 C 132.9 12 131.9 13 131.5 13.8 C 131.47 13.83 131.5 23.7 131.5 23.7 L 127.9 23.7 L 127.9 9.2 L 131.5 9.2 C 131.5 9.2 131.47 11.1 131.5 11.1 C 132 10.1 133.8 8.8 135.6 8.8 C 137.4 8.8 138.7 9.7 139.1 11.4 C 139.8 10.1 141.5 8.8 143.3 8.8 C 145.5 8.8 147 10 147 12.7 C 146.95 12.69 147 23.7 147 23.7 L 143.4 23.7 Z M 149.8 5.4 C 149.8 4.2 150.8 3.2 152 3.2 C 153.2 3.2 154.2 4.2 154.2 5.4 C 154.2 6.6 153.2 7.6 152 7.6 C 150.8 7.6 149.8 6.6 149.8 5.4 Z M 150.2 23.7 L 150.2 9.2 L 153.8 9.2 L 153.8 23.7 L 150.2 23.7 Z M 165.2 23.7 C 165.2 23.7 165.16 14.16 165.2 14.2 C 165.2 12.6 164.5 12 163.3 12 C 162.1 12 161.1 13 160.6 13.8 C 160.63 13.83 160.6 23.7 160.6 23.7 L 157 23.7 L 157 9.2 L 160.6 9.2 C 160.6 9.2 160.63 11.1 160.6 11.1 C 161.4 10 163 8.8 164.9 8.8 C 167.6 8.8 168.8 10.4 168.8 12.8 C 168.76 12.81 168.8 23.7 168.8 23.7 L 165.2 23.7 Z M 170.9 22 C 170.9 22 172.4 19.5 172.4 19.5 C 173.3 20.4 175 21.2 176.4 21.2 C 177.8 21.2 178.6 20.6 178.6 19.7 C 178.6 17.3 171.4 18.6 171.4 13.2 C 171.4 10.9 173.3 8.8 176.7 8.8 C 178.7 8.8 180.5 9.6 181.7 10.7 C 181.7 10.7 180.3 13.1 180.3 13.1 C 179.6 12.3 178.2 11.6 176.7 11.6 C 175.6 11.6 174.8 12.2 174.8 13 C 174.8 15.2 182 14.1 182 19.6 C 182 22.2 179.9 24.1 176.5 24.1 C 174.2 24.1 172.1 23.3 170.9 22 Z " stroke="none" fill="#d3d2d2"/>  </g></svg>