<?xml version="1.0" standalone="no"?><!DOCTYPE svg PUBLIC "-//W3C//DTD SVG 1.1//EN" "http://www.w3.org/Graphics/SVG/1.1/DTD/svg11.dtd"><svg xmlns="http://www.w3.org/2000/svg" version="1.1" width="327px" height="44.3px" viewBox="0 0 327 44.3">  <desc>AUGUST 2019</desc>  <defs/>  <g id="Polygon143878">    <path d="M 94.3 23.7 L 93.4 20.2 L 87.2 20.2 L 86.3 23.7 L 81.9 23.7 L 87.9 3.7 L 92.7 3.7 L 98.7 23.7 L 94.3 23.7 Z M 90.3 7.9 L 88 16.6 L 92.6 16.6 L 90.3 7.9 Z M 99.8 16.8 C 99.8 16.8 99.8 3.7 99.8 3.7 L 103.9 3.7 C 103.9 3.7 103.85 16.83 103.9 16.8 C 103.9 19.2 105.1 20.5 107.2 20.5 C 109.3 20.5 110.5 19.2 110.5 16.8 C 110.48 16.83 110.5 3.7 110.5 3.7 L 114.5 3.7 C 114.5 3.7 114.53 16.8 114.5 16.8 C 114.5 21.4 111.7 24.1 107.2 24.1 C 102.7 24.1 99.8 21.4 99.8 16.8 Z M 117.3 13.7 C 117.3 7.5 120.7 3.4 125.7 3.4 C 129.2 3.4 131.3 5.5 132.4 7.9 C 132.4 7.9 129.1 9.5 129.1 9.5 C 128.5 8.1 127.4 6.9 125.7 6.9 C 123.2 6.9 121.4 9.4 121.4 13.7 C 121.4 18 123.2 20.5 125.7 20.5 C 127 20.5 128.2 19.9 128.8 19.3 C 128.75 19.29 128.8 16.3 128.8 16.3 L 125 16.3 L 125 12.7 L 132.6 12.7 C 132.6 12.7 132.56 20.88 132.6 20.9 C 130.9 22.9 128.7 24.1 125.7 24.1 C 120.7 24.1 117.3 19.9 117.3 13.7 Z M 135.7 16.8 C 135.65 16.8 135.7 3.7 135.7 3.7 L 139.7 3.7 C 139.7 3.7 139.7 16.83 139.7 16.8 C 139.7 19.2 140.9 20.5 143 20.5 C 145.1 20.5 146.3 19.2 146.3 16.8 C 146.33 16.83 146.3 3.7 146.3 3.7 L 150.4 3.7 C 150.4 3.7 150.38 16.8 150.4 16.8 C 150.4 21.4 147.5 24.1 143 24.1 C 138.5 24.1 135.7 21.4 135.7 16.8 Z M 152.6 21.5 C 152.6 21.5 154.6 18.4 154.6 18.4 C 155.7 19.6 157.5 20.5 159.4 20.5 C 161.2 20.5 162.2 19.5 162.2 18.3 C 162.2 14.8 153.2 16 153.2 9.2 C 153.2 6.1 155.7 3.4 159.8 3.4 C 162.3 3.4 164.4 4.1 165.9 5.6 C 165.9 5.6 164 8.6 164 8.6 C 162.8 7.4 161.2 6.9 159.7 6.9 C 158.2 6.9 157.3 7.7 157.3 8.9 C 157.3 12.1 166.3 11.2 166.3 18 C 166.3 21.5 163.9 24.1 159.5 24.1 C 156.4 24.1 154.2 23.1 152.6 21.5 Z M 171.8 23.7 L 171.8 7.2 L 167.4 7.2 L 167.4 3.7 L 180.3 3.7 L 180.3 7.2 L 175.9 7.2 L 175.9 23.7 L 171.8 23.7 Z M 188.5 23.7 C 188.5 23.7 188.54 20.46 188.5 20.5 C 195.9 13.3 197.4 11.8 197.4 9.5 C 197.4 7.9 196.2 7 194.7 7 C 193 7 191.5 7.8 190.5 9.2 C 190.5 9.2 188.1 6.7 188.1 6.7 C 189.7 4.5 192.1 3.4 194.8 3.4 C 198.7 3.4 201.5 5.7 201.5 9.4 C 201.5 12.5 199.4 15.1 194.5 20.2 C 194.48 20.16 201.6 20.2 201.6 20.2 L 201.6 23.7 L 188.5 23.7 Z M 203.8 13.7 C 203.8 8.5 205.9 3.4 210.9 3.4 C 215.9 3.4 218 8.5 218 13.7 C 218 18.8 215.9 24.1 210.9 24.1 C 205.9 24.1 203.8 18.8 203.8 13.7 Z M 213.9 13.7 C 213.9 9.8 213.2 7 210.9 7 C 208.6 7 207.9 9.8 207.9 13.7 C 207.9 17.5 208.6 20.5 210.9 20.5 C 213.2 20.5 213.9 17.5 213.9 13.7 Z M 224.5 23.7 L 224.5 8.9 L 221.5 12 L 219.2 9.6 L 225.1 3.7 L 228.6 3.7 L 228.6 23.7 L 224.5 23.7 Z M 232 21.9 C 232 21.9 233.9 18.9 233.9 18.9 C 234.7 19.9 235.7 20.5 237.1 20.5 C 239.6 20.5 241.1 17.6 241.1 14.5 C 241.1 14.3 241.1 14.3 241.1 14.1 C 240.3 15.5 238.7 16.7 236.8 16.7 C 233.8 16.7 231.2 14.4 231.2 10.2 C 231.2 6.3 233.8 3.4 237.8 3.4 C 243 3.4 245.1 8.1 245.1 13.7 C 245.1 19.7 242.3 24 237.1 24 C 235 24 233.2 23.2 232 21.9 Z M 241 11.2 C 240.9 9.3 240.3 6.9 238 6.9 C 236.2 6.9 235.3 8.5 235.3 10 C 235.3 12.4 236.7 13.2 238.1 13.2 C 239.4 13.2 240.4 12.3 241 11.2 Z " stroke="none" fill="#d3d2d2"/>  </g></svg>