<?xml version="1.0" standalone="no"?><!DOCTYPE svg PUBLIC "-//W3C//DTD SVG 1.1//EN" "http://www.w3.org/Graphics/SVG/1.1/DTD/svg11.dtd"><svg xmlns="http://www.w3.org/2000/svg" version="1.1" width="327px" height="44.3px" viewBox="0 0 327 44.3">  <desc>NOVEMBER 2019</desc>  <defs/>  <g id="Polygon140912">    <path d="M 75.4 23.7 L 68.6 11.9 L 68.6 23.7 L 64.6 23.7 L 64.6 3.7 L 68.7 3.7 L 75.2 15.1 L 75.2 3.7 L 79.3 3.7 L 79.3 23.7 L 75.4 23.7 Z M 82 13.7 C 82 7.8 85.1 3.4 90.3 3.4 C 95.6 3.4 98.7 7.8 98.7 13.7 C 98.7 19.7 95.6 24.1 90.3 24.1 C 85.1 24.1 82 19.7 82 13.7 Z M 94.6 13.7 C 94.6 9.8 93.1 6.9 90.3 6.9 C 87.6 6.9 86.1 9.8 86.1 13.7 C 86.1 17.5 87.6 20.5 90.3 20.5 C 93.1 20.5 94.6 17.5 94.6 13.7 Z M 105.2 23.7 L 99.2 3.7 L 103.6 3.7 L 107.6 19 L 111.6 3.7 L 116 3.7 L 110 23.7 L 105.2 23.7 Z M 117.7 23.7 L 117.7 3.7 L 129.1 3.7 L 129.1 7.2 L 121.7 7.2 L 121.7 11.8 L 128.9 11.8 L 128.9 15.3 L 121.7 15.3 L 121.7 20.2 L 129.1 20.2 L 129.1 23.7 L 117.7 23.7 Z M 146.6 23.7 L 146.6 10.8 L 142.1 23.7 L 140.6 23.7 L 136.1 10.8 L 136.1 23.7 L 132.1 23.7 L 132.1 3.7 L 137.5 3.7 L 141.4 14.8 L 145.3 3.7 L 150.6 3.7 L 150.6 23.7 L 146.6 23.7 Z M 154.1 23.7 L 154.1 3.7 C 154.1 3.7 162.43 3.69 162.4 3.7 C 166 3.7 167.7 6.1 167.7 8.8 C 167.7 11.3 166.3 12.9 164.5 13.4 C 166.5 13.7 168 15.8 168 18.3 C 168 21.3 166.3 23.7 162.7 23.7 C 162.7 23.7 154.1 23.7 154.1 23.7 Z M 163.6 9.5 C 163.6 8.1 162.9 7.2 161.5 7.2 C 161.47 7.2 158.2 7.2 158.2 7.2 L 158.2 11.8 C 158.2 11.8 161.47 11.79 161.5 11.8 C 162.9 11.8 163.6 10.9 163.6 9.5 Z M 163.9 17.7 C 163.9 16.3 163.1 15.3 161.6 15.3 C 161.62 15.27 158.2 15.3 158.2 15.3 L 158.2 20.2 C 158.2 20.2 161.62 20.19 161.6 20.2 C 163.1 20.2 163.9 19.3 163.9 17.7 Z M 170.9 23.7 L 170.9 3.7 L 182.3 3.7 L 182.3 7.2 L 174.9 7.2 L 174.9 11.8 L 182.1 11.8 L 182.1 15.3 L 174.9 15.3 L 174.9 20.2 L 182.3 20.2 L 182.3 23.7 L 170.9 23.7 Z M 194.6 23.7 L 191.5 16.5 L 189.3 16.5 L 189.3 23.7 L 185.3 23.7 L 185.3 3.7 C 185.3 3.7 192.79 3.69 192.8 3.7 C 196.4 3.7 198.9 6.3 198.9 10 C 198.9 13.5 197 15.2 195.4 15.7 C 195.4 15.75 199 23.7 199 23.7 L 194.6 23.7 Z M 194.8 10.1 C 194.8 8.3 193.7 7.2 192.2 7.2 C 192.19 7.23 189.3 7.2 189.3 7.2 L 189.3 12.9 C 189.3 12.9 192.19 12.93 192.2 12.9 C 193.7 12.9 194.8 11.8 194.8 10.1 Z M 207.7 23.7 C 207.7 23.7 207.69 20.46 207.7 20.5 C 215 13.3 216.5 11.8 216.5 9.5 C 216.5 7.9 215.4 7 213.9 7 C 212.1 7 210.7 7.8 209.6 9.2 C 209.6 9.2 207.2 6.7 207.2 6.7 C 208.8 4.5 211.2 3.4 213.9 3.4 C 217.8 3.4 220.6 5.7 220.6 9.4 C 220.6 12.5 218.6 15.1 213.6 20.2 C 213.63 20.16 220.7 20.2 220.7 20.2 L 220.7 23.7 L 207.7 23.7 Z M 223 13.7 C 223 8.5 225.1 3.4 230 3.4 C 235 3.4 237.1 8.5 237.1 13.7 C 237.1 18.8 235.1 24.1 230 24.1 C 225.1 24.1 223 18.8 223 13.7 Z M 233 13.7 C 233 9.8 232.4 7 230 7 C 227.7 7 227.1 9.8 227.1 13.7 C 227.1 17.5 227.7 20.5 230 20.5 C 232.4 20.5 233 17.5 233 13.7 Z M 243.7 23.7 L 243.7 8.9 L 240.7 12 L 238.4 9.6 L 244.2 3.7 L 247.7 3.7 L 247.7 23.7 L 243.7 23.7 Z M 251.2 21.9 C 251.2 21.9 253.1 18.9 253.1 18.9 C 253.9 19.9 254.8 20.5 256.2 20.5 C 258.8 20.5 260.2 17.6 260.2 14.5 C 260.2 14.3 260.2 14.3 260.2 14.1 C 259.4 15.5 257.8 16.7 256 16.7 C 253 16.7 250.4 14.4 250.4 10.2 C 250.4 6.3 253 3.4 256.9 3.4 C 262.2 3.4 264.3 8.1 264.3 13.7 C 264.3 19.7 261.5 24 256.3 24 C 254.2 24 252.3 23.2 251.2 21.9 Z M 260.2 11.2 C 260.1 9.3 259.4 6.9 257.2 6.9 C 255.3 6.9 254.4 8.5 254.4 10 C 254.4 12.4 255.8 13.2 257.2 13.2 C 258.5 13.2 259.5 12.3 260.2 11.2 Z " stroke="none" fill="#d3d2d2"/>  </g></svg>