<?xml version="1.0" standalone="no"?><!DOCTYPE svg PUBLIC "-//W3C//DTD SVG 1.1//EN" "http://www.w3.org/Graphics/SVG/1.1/DTD/svg11.dtd"><svg xmlns="http://www.w3.org/2000/svg" version="1.1" width="219px" height="331.3px" viewBox="0 0 219 331.3">  <desc>194 09 77 95 2402 03 108 99 110 55 12 12 34 68 80 52 118 58</desc>  <defs/>  <g id="Polygon212854">    <path d="M 154.2 312.4 L 154.2 295.5 L 151.1 298.8 L 149.7 297.3 L 154.5 292.4 L 156.6 292.4 L 156.6 312.4 L 154.2 312.4 Z M 163.6 312.4 L 163.6 295.5 L 160.5 298.8 L 159.1 297.3 L 163.9 292.4 L 166 292.4 L 166 312.4 L 163.6 312.4 Z M 169.5 307.5 C 169.5 304.8 171.5 302.8 173.4 302.1 C 171.6 301.4 169.8 299.7 169.8 297.2 C 169.8 293.7 172.5 292.1 175.4 292.1 C 178.3 292.1 181.1 293.7 181.1 297.2 C 181.1 299.7 179.2 301.4 177.4 302.1 C 179.3 302.8 181.3 304.8 181.3 307.4 C 181.3 310.7 178.9 312.7 175.4 312.7 C 171.9 312.7 169.5 310.7 169.5 307.5 Z M 178.7 297.5 C 178.7 295.5 177.3 294.2 175.4 294.2 C 173.4 294.2 172.1 295.5 172.1 297.5 C 172.1 299.9 174.6 300.9 175.4 301.2 C 176.2 300.9 178.7 299.9 178.7 297.5 Z M 178.9 307.2 C 178.9 304.5 176.2 303.2 175.4 303 C 174.6 303.2 171.9 304.5 171.9 307.2 C 171.9 309.3 173.4 310.6 175.4 310.6 C 177.3 310.6 178.9 309.3 178.9 307.2 Z M 184.5 311.1 C 184.5 310.2 185.2 309.5 186.1 309.5 C 187 309.5 187.7 310.2 187.7 311.1 C 187.7 312 187 312.7 186.1 312.7 C 185.2 312.7 184.5 312 184.5 311.1 Z M 191.1 309.5 C 191.1 309.5 192.7 308 192.7 308 C 193.6 309.7 195 310.6 196.9 310.6 C 199.1 310.6 200.5 308.6 200.5 306.3 C 200.5 303.4 199.1 301.8 197.1 301.8 C 195.6 301.8 194.5 302.4 193.4 303.7 C 193.42 303.71 191.7 303.1 191.7 303.1 L 191.7 292.4 L 201.9 292.4 L 201.9 294.5 L 194 294.5 C 194 294.5 194.02 301.49 194 301.5 C 194.8 300.5 196.1 299.7 197.7 299.7 C 200.6 299.7 202.9 302 202.9 306.2 C 202.9 310 200.4 312.7 197 312.7 C 194 312.7 192.3 311.5 191.1 309.5 Z M 205.6 307.5 C 205.6 304.8 207.6 302.8 209.6 302.1 C 207.8 301.4 205.9 299.7 205.9 297.2 C 205.9 293.7 208.7 292.1 211.5 292.1 C 214.4 292.1 217.2 293.7 217.2 297.2 C 217.2 299.7 215.3 301.4 213.5 302.1 C 215.5 302.8 217.5 304.8 217.5 307.4 C 217.5 310.7 215 312.7 211.5 312.7 C 208 312.7 205.6 310.7 205.6 307.5 Z M 214.8 297.5 C 214.8 295.5 213.5 294.2 211.5 294.2 C 209.6 294.2 208.3 295.5 208.3 297.5 C 208.3 299.9 210.8 300.9 211.5 301.2 C 212.3 300.9 214.8 299.9 214.8 297.5 Z M 215.1 307.2 C 215.1 304.5 212.4 303.2 211.5 303 C 210.7 303.2 208 304.5 208 307.2 C 208 309.3 209.6 310.6 211.5 310.6 C 213.5 310.6 215.1 309.3 215.1 307.2 Z " stroke="none" fill="#d0d1d4"/>  </g>  <g id="Polygon212853">    <path d="M 154 271.5 C 154 268.8 156 266.8 158 266.1 C 156.2 265.4 154.3 263.7 154.3 261.2 C 154.3 257.7 157.1 256.1 159.9 256.1 C 162.8 256.1 165.6 257.7 165.6 261.2 C 165.6 263.7 163.7 265.4 161.9 266.1 C 163.9 266.8 165.9 268.8 165.9 271.4 C 165.9 274.7 163.4 276.7 159.9 276.7 C 156.4 276.7 154 274.7 154 271.5 Z M 163.2 261.5 C 163.2 259.5 161.9 258.2 159.9 258.2 C 158 258.2 156.7 259.5 156.7 261.5 C 156.7 263.9 159.2 264.9 159.9 265.2 C 160.7 264.9 163.2 263.9 163.2 261.5 Z M 163.5 271.2 C 163.5 268.5 160.8 267.2 159.9 267 C 159.1 267.2 156.4 268.5 156.4 271.2 C 156.4 273.3 158 274.6 159.9 274.6 C 161.9 274.6 163.5 273.3 163.5 271.2 Z M 168.6 266.4 C 168.6 261.6 170.2 256.1 174.9 256.1 C 179.6 256.1 181.2 261.6 181.2 266.4 C 181.2 271.2 179.6 276.7 174.9 276.7 C 170.2 276.7 168.6 271.2 168.6 266.4 Z M 178.8 266.4 C 178.8 262.4 178 258.2 174.9 258.2 C 171.9 258.2 171.1 262.4 171.1 266.4 C 171.1 270.3 171.8 274.6 174.9 274.6 C 178 274.6 178.8 270.3 178.8 266.4 Z M 184.4 275.1 C 184.4 274.2 185.1 273.5 186 273.5 C 186.9 273.5 187.6 274.2 187.6 275.1 C 187.6 276 186.9 276.7 186 276.7 C 185.1 276.7 184.4 276 184.4 275.1 Z M 191 273.5 C 191 273.5 192.6 272 192.6 272 C 193.5 273.7 194.9 274.6 196.8 274.6 C 199 274.6 200.4 272.6 200.4 270.3 C 200.4 267.4 199 265.8 197 265.8 C 195.6 265.8 194.4 266.4 193.3 267.7 C 193.33 267.71 191.6 267.1 191.6 267.1 L 191.6 256.4 L 201.8 256.4 L 201.8 258.5 L 193.9 258.5 C 193.9 258.5 193.93 265.49 193.9 265.5 C 194.7 264.5 196 263.7 197.6 263.7 C 200.5 263.7 202.8 266 202.8 270.2 C 202.8 274 200.4 276.7 196.9 276.7 C 193.9 276.7 192.2 275.5 191 273.5 Z M 205.8 276.4 C 205.8 276.4 205.75 274.43 205.8 274.4 C 212.3 266.9 214.5 264.5 214.5 261.5 C 214.5 259.4 213 258.2 211.3 258.2 C 209.4 258.2 208.1 259.1 207.1 260.7 C 207.1 260.7 205.5 259.3 205.5 259.3 C 206.9 257.2 208.8 256.1 211.4 256.1 C 214.4 256.1 217 258 217 261.5 C 217 264.9 214.5 267.9 209.1 274.2 C 209.14 274.25 217.1 274.2 217.1 274.2 L 217.1 276.4 L 205.8 276.4 Z " stroke="none" fill="#d0d1d4"/>  </g>  <g id="Polygon212852">    <path d="M 155.5 237.4 C 155.5 237.4 157 236 157 236 C 158 237.5 159.4 238.6 161.3 238.6 C 163.8 238.6 165 237.1 165 234.8 C 165 232.1 163.2 231.2 161.1 231.2 C 160.5 231.2 159.8 231.2 159.6 231.2 C 159.6 231.2 159.6 229 159.6 229 C 159.8 229.1 160.6 229.1 161.1 229.1 C 163.1 229.1 164.7 228 164.7 225.7 C 164.7 223.3 163.3 222.2 161.3 222.2 C 159.5 222.2 158.2 223.1 157.2 224.6 C 157.2 224.6 155.7 223.2 155.7 223.2 C 156.9 221.3 158.9 220.1 161.4 220.1 C 164.7 220.1 167.1 221.8 167.1 225.4 C 167.1 227.9 165.3 229.6 163.5 230 C 165.3 230.3 167.4 232.1 167.4 235 C 167.4 238.3 165.2 240.7 161.4 240.7 C 158.6 240.7 156.5 239.2 155.5 237.4 Z M 177.4 240.4 L 177.4 235.2 L 169.5 235.2 L 169.5 233.2 L 176.7 220.4 L 179.8 220.4 L 179.8 233.1 L 182 233.1 L 182 235.2 L 179.8 235.2 L 179.8 240.4 L 177.4 240.4 Z M 177.4 222.9 L 171.7 233.1 L 177.4 233.1 L 177.4 222.9 Z M 184.5 239.1 C 184.5 238.2 185.2 237.5 186.1 237.5 C 186.9 237.5 187.7 238.2 187.7 239.1 C 187.7 240 186.9 240.7 186.1 240.7 C 185.2 240.7 184.5 240 184.5 239.1 Z M 190.9 230.4 C 190.9 225 192.8 220.1 197.7 220.1 C 199.8 220.1 201.3 221.1 202.3 222.6 C 202.3 222.6 201 224.2 201 224.2 C 200.3 223 199.3 222.2 197.7 222.2 C 194.5 222.2 193.3 226.4 193.3 230.2 C 193.3 230.4 193.3 230.5 193.3 230.8 C 194 229.4 195.7 227.8 197.7 227.8 C 200.7 227.8 203 230 203 234.2 C 203 237.6 200.9 240.7 197.2 240.7 C 192.5 240.7 190.9 235.7 190.9 230.4 Z M 200.6 234.3 C 200.6 231.1 199 229.9 197.1 229.9 C 195.5 229.9 194.1 231.3 193.4 233 C 193.5 235.2 194.3 238.6 197.1 238.6 C 199.5 238.6 200.6 236.4 200.6 234.3 Z M 205.6 235.5 C 205.6 232.8 207.6 230.8 209.6 230.1 C 207.8 229.4 205.9 227.7 205.9 225.2 C 205.9 221.7 208.7 220.1 211.5 220.1 C 214.4 220.1 217.2 221.7 217.2 225.2 C 217.2 227.7 215.3 229.4 213.5 230.1 C 215.5 230.8 217.5 232.8 217.5 235.4 C 217.5 238.7 215 240.7 211.5 240.7 C 208 240.7 205.6 238.7 205.6 235.5 Z M 214.8 225.5 C 214.8 223.5 213.5 222.2 211.5 222.2 C 209.6 222.2 208.3 223.5 208.3 225.5 C 208.3 227.9 210.8 228.9 211.5 229.2 C 212.3 228.9 214.8 227.9 214.8 225.5 Z M 215.1 235.2 C 215.1 232.5 212.4 231.2 211.5 231 C 210.7 231.2 208 232.5 208 235.2 C 208 237.3 209.6 238.6 211.5 238.6 C 213.5 238.6 215.1 237.3 215.1 235.2 Z " stroke="none" fill="#d0d1d4"/>  </g>  <g id="Polygon212851">    <path d="M 168.7 204.4 L 168.7 187.5 L 165.6 190.8 L 164.2 189.3 L 169 184.4 L 171.1 184.4 L 171.1 204.4 L 168.7 204.4 Z M 174.8 204.4 C 174.8 204.4 174.8 202.43 174.8 202.4 C 181.3 194.9 183.6 192.5 183.6 189.5 C 183.6 187.4 182.1 186.2 180.4 186.2 C 178.5 186.2 177.1 187.1 176.1 188.7 C 176.1 188.7 174.6 187.3 174.6 187.3 C 175.9 185.2 177.9 184.1 180.4 184.1 C 183.5 184.1 186 186 186 189.5 C 186 192.9 183.5 195.9 178.2 202.2 C 178.19 202.25 186.1 202.2 186.1 202.2 L 186.1 204.4 L 174.8 204.4 Z M 189.7 203.1 C 189.7 202.2 190.4 201.5 191.3 201.5 C 192.2 201.5 192.9 202.2 192.9 203.1 C 192.9 204 192.2 204.7 191.3 204.7 C 190.4 204.7 189.7 204 189.7 203.1 Z M 199.7 204.4 L 199.7 187.5 L 196.6 190.8 L 195.2 189.3 L 200 184.4 L 202.1 184.4 L 202.1 204.4 L 199.7 204.4 Z M 205.8 204.4 C 205.8 204.4 205.75 202.43 205.8 202.4 C 212.3 194.9 214.5 192.5 214.5 189.5 C 214.5 187.4 213 186.2 211.3 186.2 C 209.4 186.2 208.1 187.1 207.1 188.7 C 207.1 188.7 205.5 187.3 205.5 187.3 C 206.9 185.2 208.8 184.1 211.4 184.1 C 214.4 184.1 217 186 217 189.5 C 217 192.9 214.5 195.9 209.1 202.2 C 209.14 202.25 217.1 202.2 217.1 202.2 L 217.1 204.4 L 205.8 204.4 Z " stroke="none" fill="#d0d1d4"/>  </g>  <g id="Polygon212850">    <path d="M 153.3 168.4 L 153.3 151.5 L 150.2 154.8 L 148.7 153.3 L 153.5 148.4 L 155.6 148.4 L 155.6 168.4 L 153.3 168.4 Z M 162.7 168.4 L 162.7 151.5 L 159.6 154.8 L 158.2 153.3 L 163 148.4 L 165.1 148.4 L 165.1 168.4 L 162.7 168.4 Z M 168.6 158.4 C 168.6 153.6 170.2 148.1 174.9 148.1 C 179.5 148.1 181.1 153.6 181.1 158.4 C 181.1 163.2 179.5 168.7 174.9 168.7 C 170.2 168.7 168.6 163.2 168.6 158.4 Z M 178.7 158.4 C 178.7 154.4 177.9 150.2 174.9 150.2 C 171.8 150.2 171 154.4 171 158.4 C 171 162.3 171.8 166.6 174.9 166.6 C 177.9 166.6 178.7 162.3 178.7 158.4 Z M 184.4 167.1 C 184.4 166.2 185.1 165.5 186 165.5 C 186.8 165.5 187.6 166.2 187.6 167.1 C 187.6 168 186.8 168.7 186 168.7 C 185.1 168.7 184.4 168 184.4 167.1 Z M 190.9 165.5 C 190.9 165.5 192.5 164 192.5 164 C 193.5 165.7 194.8 166.6 196.8 166.6 C 198.9 166.6 200.3 164.6 200.3 162.3 C 200.3 159.4 199 157.8 196.9 157.8 C 195.5 157.8 194.4 158.4 193.3 159.7 C 193.27 159.71 191.5 159.1 191.5 159.1 L 191.5 148.4 L 201.7 148.4 L 201.7 150.5 L 193.9 150.5 C 193.9 150.5 193.87 157.49 193.9 157.5 C 194.7 156.5 196 155.7 197.6 155.7 C 200.4 155.7 202.8 158 202.8 162.2 C 202.8 166 200.3 168.7 196.8 168.7 C 193.9 168.7 192.2 167.5 190.9 165.5 Z M 205.7 165.5 C 205.7 165.5 207.3 164 207.3 164 C 208.2 165.7 209.5 166.6 211.5 166.6 C 213.7 166.6 215.1 164.6 215.1 162.3 C 215.1 159.4 213.7 157.8 211.6 157.8 C 210.2 157.8 209.1 158.4 208 159.7 C 208 159.71 206.2 159.1 206.2 159.1 L 206.2 148.4 L 216.4 148.4 L 216.4 150.5 L 208.6 150.5 C 208.6 150.5 208.6 157.49 208.6 157.5 C 209.4 156.5 210.7 155.7 212.3 155.7 C 215.2 155.7 217.5 158 217.5 162.2 C 217.5 166 215 168.7 211.5 168.7 C 208.6 168.7 206.9 167.5 205.7 165.5 Z " stroke="none" fill="#d0d1d4"/>  </g>  <g id="Polygon212849">    <path d="M 148.1 132.4 L 148.1 115.5 L 145 118.8 L 143.5 117.3 L 148.3 112.4 L 150.4 112.4 L 150.4 132.4 L 148.1 132.4 Z M 153.9 122.4 C 153.9 117.6 155.5 112.1 160.2 112.1 C 164.9 112.1 166.5 117.6 166.5 122.4 C 166.5 127.2 164.9 132.7 160.2 132.7 C 155.5 132.7 153.9 127.2 153.9 122.4 Z M 164.1 122.4 C 164.1 118.4 163.3 114.2 160.2 114.2 C 157.2 114.2 156.4 118.4 156.4 122.4 C 156.4 126.3 157.1 130.6 160.2 130.6 C 163.3 130.6 164.1 126.3 164.1 122.4 Z M 169.2 127.5 C 169.2 124.8 171.3 122.8 173.2 122.1 C 171.4 121.4 169.5 119.7 169.5 117.2 C 169.5 113.7 172.3 112.1 175.2 112.1 C 178.1 112.1 180.9 113.7 180.9 117.2 C 180.9 119.7 179 121.4 177.2 122.1 C 179.1 122.8 181.1 124.8 181.1 127.4 C 181.1 130.7 178.7 132.7 175.2 132.7 C 171.7 132.7 169.2 130.7 169.2 127.5 Z M 178.5 117.5 C 178.5 115.5 177.1 114.2 175.2 114.2 C 173.2 114.2 171.9 115.5 171.9 117.5 C 171.9 119.9 174.4 120.9 175.2 121.2 C 176 120.9 178.5 119.9 178.5 117.5 Z M 178.7 127.2 C 178.7 124.5 176 123.2 175.2 123 C 174.3 123.2 171.7 124.5 171.7 127.2 C 171.7 129.3 173.2 130.6 175.2 130.6 C 177.1 130.6 178.7 129.3 178.7 127.2 Z M 184.3 131.1 C 184.3 130.2 185 129.5 185.9 129.5 C 186.8 129.5 187.5 130.2 187.5 131.1 C 187.5 132 186.8 132.7 185.9 132.7 C 185 132.7 184.3 132 184.3 131.1 Z M 191.2 130.2 C 191.2 130.2 192.6 128.5 192.6 128.5 C 193.3 129.8 194.2 130.6 195.9 130.6 C 199.1 130.6 200.2 126.3 200.2 122.6 C 200.2 122.3 200.2 122.2 200.2 122 C 199.5 123.4 197.9 124.9 195.8 124.9 C 192.9 124.9 190.6 122.8 190.6 118.5 C 190.6 115.2 192.6 112 196.3 112 C 201.1 112 202.7 117 202.7 122.4 C 202.7 127.8 200.7 132.7 195.9 132.7 C 193.8 132.7 192.2 131.7 191.2 130.2 Z M 200.2 119.8 C 200.1 117.6 199.3 114.2 196.5 114.2 C 194.1 114.2 193 116.4 193 118.5 C 193 121.7 194.5 122.9 196.4 122.9 C 198.1 122.9 199.5 121.4 200.2 119.8 Z M 206 130.2 C 206 130.2 207.3 128.5 207.3 128.5 C 208.1 129.8 209 130.6 210.6 130.6 C 213.9 130.6 215 126.3 215 122.6 C 215 122.3 215 122.2 215 122 C 214.3 123.4 212.7 124.9 210.6 124.9 C 207.7 124.9 205.3 122.8 205.3 118.5 C 205.3 115.2 207.4 112 211.1 112 C 215.9 112 217.4 117 217.4 122.4 C 217.4 127.8 215.5 132.7 210.6 132.7 C 208.5 132.7 207 131.7 206 130.2 Z M 214.9 119.8 C 214.8 117.6 214 114.2 211.2 114.2 C 208.8 114.2 207.8 116.4 207.8 118.5 C 207.8 121.7 209.3 122.9 211.2 122.9 C 212.9 122.9 214.2 121.4 214.9 119.8 Z " stroke="none" fill="#d0d1d4"/>  </g>  <g id="Polygon212848">    <path d="M 125.5 96.4 C 125.5 96.4 125.48 94.43 125.5 94.4 C 132 86.9 134.3 84.5 134.3 81.5 C 134.3 79.4 132.8 78.2 131.1 78.2 C 129.2 78.2 127.8 79.1 126.8 80.7 C 126.8 80.7 125.3 79.3 125.3 79.3 C 126.6 77.2 128.5 76.1 131.1 76.1 C 134.1 76.1 136.7 78 136.7 81.5 C 136.7 84.9 134.2 87.9 128.9 94.2 C 128.87 94.25 136.8 94.2 136.8 94.2 L 136.8 96.4 L 125.5 96.4 Z M 147.2 96.4 L 147.2 91.2 L 139.2 91.2 L 139.2 89.2 L 146.5 76.4 L 149.5 76.4 L 149.5 89.1 L 151.7 89.1 L 151.7 91.2 L 149.5 91.2 L 149.5 96.4 L 147.2 96.4 Z M 147.2 78.9 L 141.4 89.1 L 147.2 89.1 L 147.2 78.9 Z M 153.8 86.4 C 153.8 81.6 155.4 76.1 160.1 76.1 C 164.8 76.1 166.4 81.6 166.4 86.4 C 166.4 91.2 164.8 96.7 160.1 96.7 C 155.4 96.7 153.8 91.2 153.8 86.4 Z M 163.9 86.4 C 163.9 82.4 163.2 78.2 160.1 78.2 C 157 78.2 156.3 82.4 156.3 86.4 C 156.3 90.3 157 94.6 160.1 94.6 C 163.2 94.6 163.9 90.3 163.9 86.4 Z M 169.4 96.4 C 169.4 96.4 169.37 94.43 169.4 94.4 C 175.9 86.9 178.2 84.5 178.2 81.5 C 178.2 79.4 176.7 78.2 174.9 78.2 C 173.1 78.2 171.7 79.1 170.7 80.7 C 170.7 80.7 169.2 79.3 169.2 79.3 C 170.5 77.2 172.4 76.1 175 76.1 C 178 76.1 180.6 78 180.6 81.5 C 180.6 84.9 178.1 87.9 172.8 94.2 C 172.76 94.25 180.7 94.2 180.7 94.2 L 180.7 96.4 L 169.4 96.4 Z M 184.3 95.1 C 184.3 94.2 185 93.5 185.9 93.5 C 186.7 93.5 187.5 94.2 187.5 95.1 C 187.5 96 186.7 96.7 185.9 96.7 C 185 96.7 184.3 96 184.3 95.1 Z M 190.7 86.4 C 190.7 81.6 192.3 76.1 197 76.1 C 201.6 76.1 203.2 81.6 203.2 86.4 C 203.2 91.2 201.6 96.7 197 96.7 C 192.3 96.7 190.7 91.2 190.7 86.4 Z M 200.8 86.4 C 200.8 82.4 200.1 78.2 197 78.2 C 193.9 78.2 193.2 82.4 193.2 86.4 C 193.2 90.3 193.9 94.6 197 94.6 C 200.1 94.6 200.8 90.3 200.8 86.4 Z M 205.5 93.4 C 205.5 93.4 207.1 92 207.1 92 C 208 93.5 209.5 94.6 211.4 94.6 C 213.8 94.6 215 93.1 215 90.8 C 215 88.1 213.2 87.2 211.2 87.2 C 210.6 87.2 209.9 87.2 209.6 87.2 C 209.6 87.2 209.6 85 209.6 85 C 209.9 85.1 210.6 85.1 211.1 85.1 C 213.1 85.1 214.8 84 214.8 81.7 C 214.8 79.3 213.3 78.2 211.3 78.2 C 209.5 78.2 208.3 79.1 207.3 80.6 C 207.3 80.6 205.8 79.2 205.8 79.2 C 207 77.3 209 76.1 211.5 76.1 C 214.7 76.1 217.1 77.8 217.1 81.4 C 217.1 83.9 215.4 85.6 213.6 86 C 215.3 86.3 217.4 88.1 217.4 91 C 217.4 94.3 215.3 96.7 211.5 96.7 C 208.6 96.7 206.5 95.2 205.5 93.4 Z " stroke="none" fill="#d0d1d4"/>  </g>  <g id="Polygon212847">    <path d="M 160.2 60.4 L 166.4 42.5 L 158 42.5 L 158 40.4 L 169.1 40.4 L 169.1 42 L 162.7 60.4 L 160.2 60.4 Z M 172.8 60.4 L 179.1 42.5 L 170.6 42.5 L 170.6 40.4 L 181.8 40.4 L 181.8 42 L 175.4 60.4 L 172.8 60.4 Z M 184.3 59.1 C 184.3 58.2 185.1 57.5 185.9 57.5 C 186.8 57.5 187.5 58.2 187.5 59.1 C 187.5 60 186.8 60.7 185.9 60.7 C 185.1 60.7 184.3 60 184.3 59.1 Z M 191.3 58.2 C 191.3 58.2 192.6 56.5 192.6 56.5 C 193.3 57.8 194.3 58.6 195.9 58.6 C 199.2 58.6 200.3 54.3 200.3 50.6 C 200.3 50.3 200.3 50.2 200.3 50 C 199.6 51.4 197.9 52.9 195.9 52.9 C 192.9 52.9 190.6 50.8 190.6 46.5 C 190.6 43.2 192.7 40 196.4 40 C 201.1 40 202.7 45 202.7 50.4 C 202.7 55.8 200.7 60.7 195.9 60.7 C 193.8 60.7 192.3 59.7 191.3 58.2 Z M 200.2 47.8 C 200.1 45.6 199.3 42.2 196.5 42.2 C 194.1 42.2 193 44.4 193 46.5 C 193 49.7 194.6 50.9 196.5 50.9 C 198.1 50.9 199.5 49.4 200.2 47.8 Z M 205.7 57.5 C 205.7 57.5 207.3 56 207.3 56 C 208.2 57.7 209.5 58.6 211.5 58.6 C 213.7 58.6 215.1 56.6 215.1 54.3 C 215.1 51.4 213.7 49.8 211.6 49.8 C 210.2 49.8 209.1 50.4 208 51.7 C 208 51.71 206.2 51.1 206.2 51.1 L 206.2 40.4 L 216.4 40.4 L 216.4 42.5 L 208.6 42.5 C 208.6 42.5 208.6 49.49 208.6 49.5 C 209.4 48.5 210.7 47.7 212.3 47.7 C 215.2 47.7 217.5 50 217.5 54.2 C 217.5 58 215 60.7 211.5 60.7 C 208.6 60.7 206.9 59.5 205.7 57.5 Z " stroke="none" fill="#d0d1d4"/>  </g>  <g id="Polygon212846">    <path d="M 148.8 24.4 L 148.8 7.5 L 145.7 10.8 L 144.3 9.3 L 149.1 4.4 L 151.2 4.4 L 151.2 24.4 L 148.8 24.4 Z M 155.2 22.2 C 155.2 22.2 156.5 20.5 156.5 20.5 C 157.2 21.8 158.2 22.6 159.8 22.6 C 163.1 22.6 164.2 18.3 164.2 14.6 C 164.2 14.3 164.2 14.2 164.2 14 C 163.5 15.4 161.8 16.9 159.8 16.9 C 156.9 16.9 154.5 14.8 154.5 10.5 C 154.5 7.2 156.6 4 160.3 4 C 165 4 166.6 9 166.6 14.4 C 166.6 19.8 164.7 24.7 159.8 24.7 C 157.7 24.7 156.2 23.7 155.2 22.2 Z M 164.1 11.8 C 164 9.6 163.2 6.2 160.4 6.2 C 158 6.2 156.9 8.4 156.9 10.5 C 156.9 13.7 158.5 14.9 160.4 14.9 C 162 14.9 163.4 13.4 164.1 11.8 Z M 176.6 24.4 L 176.6 19.2 L 168.7 19.2 L 168.7 17.2 L 175.9 4.4 L 179 4.4 L 179 17.1 L 181.2 17.1 L 181.2 19.2 L 179 19.2 L 179 24.4 L 176.6 24.4 Z M 176.6 6.9 L 170.9 17.1 L 176.6 17.1 L 176.6 6.9 Z M 183.7 23.1 C 183.7 22.2 184.4 21.5 185.3 21.5 C 186.2 21.5 186.9 22.2 186.9 23.1 C 186.9 24 186.2 24.7 185.3 24.7 C 184.4 24.7 183.7 24 183.7 23.1 Z M 190.1 14.4 C 190.1 9.6 191.7 4.1 196.4 4.1 C 201.1 4.1 202.7 9.6 202.7 14.4 C 202.7 19.2 201.1 24.7 196.4 24.7 C 191.7 24.7 190.1 19.2 190.1 14.4 Z M 200.2 14.4 C 200.2 10.4 199.5 6.2 196.4 6.2 C 193.3 6.2 192.6 10.4 192.6 14.4 C 192.6 18.3 193.3 22.6 196.4 22.6 C 199.5 22.6 200.2 18.3 200.2 14.4 Z M 206 22.2 C 206 22.2 207.3 20.5 207.3 20.5 C 208.1 21.8 209 22.6 210.6 22.6 C 213.9 22.6 215 18.3 215 14.6 C 215 14.3 215 14.2 215 14 C 214.3 15.4 212.7 16.9 210.6 16.9 C 207.7 16.9 205.3 14.8 205.3 10.5 C 205.3 7.2 207.4 4 211.1 4 C 215.9 4 217.4 9 217.4 14.4 C 217.4 19.8 215.5 24.7 210.6 24.7 C 208.5 24.7 207 23.7 206 22.2 Z M 214.9 11.8 C 214.8 9.6 214 6.2 211.2 6.2 C 208.8 6.2 207.8 8.4 207.8 10.5 C 207.8 13.7 209.3 14.9 211.2 14.9 C 212.9 14.9 214.2 13.4 214.9 11.8 Z " stroke="none" fill="#d0d1d4"/>  </g></svg>