<?xml version="1.0" standalone="no"?><!DOCTYPE svg PUBLIC "-//W3C//DTD SVG 1.1//EN" "http://www.w3.org/Graphics/SVG/1.1/DTD/svg11.dtd"><svg xmlns="http://www.w3.org/2000/svg" version="1.1" width="142px" height="44.3px" viewBox="0 0 142 44.3">  <desc>foreword</desc>  <defs/>  <g id="Polygon230856">    <path d="M 12.2 23.7 L 12.2 7.2 L 22.3 7.2 L 22.3 10.4 L 15.9 10.4 L 15.9 13.7 L 22.1 13.7 L 22.1 16.9 L 15.9 16.9 L 15.9 23.7 L 12.2 23.7 Z M 24.1 15.4 C 24.1 10.5 26.7 6.8 31.3 6.8 C 35.9 6.8 38.6 10.5 38.6 15.4 C 38.6 20.4 35.9 24.1 31.3 24.1 C 26.7 24.1 24.1 20.4 24.1 15.4 Z M 34.8 15.4 C 34.8 12.4 33.6 10.1 31.3 10.1 C 29.1 10.1 27.9 12.4 27.9 15.4 C 27.9 18.4 29.1 20.8 31.3 20.8 C 33.6 20.8 34.8 18.4 34.8 15.4 Z M 49.1 23.7 L 46.6 17.9 L 44.9 17.9 L 44.9 23.7 L 41.1 23.7 L 41.1 7.2 C 41.1 7.2 47.75 7.2 47.7 7.2 C 51.2 7.2 53.1 9.6 53.1 12.5 C 53.1 15.4 51.6 16.9 50.1 17.3 C 50.09 17.34 53.2 23.7 53.2 23.7 L 49.1 23.7 Z M 49.3 12.6 C 49.3 11.3 48.6 10.4 47.3 10.4 C 47.3 10.44 44.9 10.4 44.9 10.4 L 44.9 14.7 C 44.9 14.7 47.3 14.67 47.3 14.7 C 48.6 14.7 49.3 13.8 49.3 12.6 Z M 55.8 23.7 L 55.8 7.2 L 65.9 7.2 L 65.9 10.4 L 59.5 10.4 L 59.5 13.7 L 65.7 13.7 L 65.7 16.9 L 59.5 16.9 L 59.5 20.5 L 65.9 20.5 L 65.9 23.7 L 55.8 23.7 Z M 79.2 23.7 L 77 13.5 L 74.9 23.7 L 71.1 23.7 L 67.1 7.2 L 71.1 7.2 L 73.2 17.8 L 75.6 7.2 L 78.5 7.2 L 80.9 17.9 L 83 7.2 L 87 7.2 L 83 23.7 L 79.2 23.7 Z M 87.5 15.4 C 87.5 10.5 90.1 6.8 94.7 6.8 C 99.3 6.8 102 10.5 102 15.4 C 102 20.4 99.3 24.1 94.7 24.1 C 90.1 24.1 87.5 20.4 87.5 15.4 Z M 98.1 15.4 C 98.1 12.4 96.9 10.1 94.7 10.1 C 92.4 10.1 91.3 12.4 91.3 15.4 C 91.3 18.4 92.4 20.8 94.7 20.8 C 96.9 20.8 98.1 18.4 98.1 15.4 Z M 112.5 23.7 L 110 17.9 L 108.3 17.9 L 108.3 23.7 L 104.5 23.7 L 104.5 7.2 C 104.5 7.2 111.11 7.2 111.1 7.2 C 114.5 7.2 116.4 9.6 116.4 12.5 C 116.4 15.4 114.9 16.9 113.4 17.3 C 113.45 17.34 116.6 23.7 116.6 23.7 L 112.5 23.7 Z M 112.6 12.6 C 112.6 11.3 111.9 10.4 110.7 10.4 C 110.66 10.44 108.3 10.4 108.3 10.4 L 108.3 14.7 C 108.3 14.7 110.66 14.67 110.7 14.7 C 111.9 14.7 112.6 13.8 112.6 12.6 Z M 119.1 23.7 L 119.1 7.2 C 119.1 7.2 124.88 7.2 124.9 7.2 C 129.7 7.2 132.4 10.6 132.4 15.5 C 132.4 20.3 129.7 23.7 124.9 23.7 C 124.91 23.7 119.1 23.7 119.1 23.7 Z M 128.6 15.5 C 128.6 12.4 127.4 10.4 124.9 10.4 C 124.88 10.44 122.9 10.4 122.9 10.4 L 122.9 20.5 C 122.9 20.5 124.88 20.46 124.9 20.5 C 127.3 20.5 128.6 18.4 128.6 15.5 Z " stroke="none" fill="#e9e8e8"/>  </g></svg>