<?xml version="1.0" standalone="no"?><!DOCTYPE svg PUBLIC "-//W3C//DTD SVG 1.1//EN" "http://www.w3.org/Graphics/SVG/1.1/DTD/svg11.dtd"><svg xmlns="http://www.w3.org/2000/svg" version="1.1" width="191px" height="33.2px" viewBox="0 0 191 33.2">  <desc>STAY FULL FOR</desc>  <defs/>  <g id="Polygon167181">    <path d="M 31.8 14.3 C 31.8 14.3 33.1 12.3 33.1 12.3 C 33.9 13.1 35 13.7 36.4 13.7 C 37.5 13.7 38.2 13 38.2 12.2 C 38.2 9.9 32.2 10.7 32.2 6.1 C 32.2 4 33.9 2.2 36.6 2.2 C 38.2 2.2 39.6 2.8 40.7 3.7 C 40.7 3.7 39.4 5.7 39.4 5.7 C 38.6 5 37.6 4.6 36.5 4.6 C 35.6 4.6 35 5.1 35 6 C 35 8 40.9 7.5 40.9 12 C 40.9 14.3 39.3 16 36.4 16 C 34.4 16 32.9 15.4 31.8 14.3 Z M 45.4 15.8 L 45.4 4.8 L 42.5 4.8 L 42.5 2.5 L 51.1 2.5 L 51.1 4.8 L 48.1 4.8 L 48.1 15.8 L 45.4 15.8 Z M 59.5 15.8 L 58.9 13.4 L 54.8 13.4 L 54.2 15.8 L 51.3 15.8 L 55.3 2.5 L 58.5 2.5 L 62.5 15.8 L 59.5 15.8 Z M 56.9 5.3 L 55.4 11.1 L 58.4 11.1 L 56.9 5.3 Z M 66.3 15.8 L 66.3 10.3 L 62.2 2.5 L 65.2 2.5 L 67.7 7.8 L 70.2 2.5 L 73.1 2.5 L 69 10.3 L 69 15.8 L 66.3 15.8 Z M 80 15.8 L 80 2.5 L 87.7 2.5 L 87.7 4.8 L 82.7 4.8 L 82.7 7.8 L 87.5 7.8 L 87.5 10.2 L 82.7 10.2 L 82.7 15.8 L 80 15.8 Z M 90.3 11.2 C 90.29 11.2 90.3 2.5 90.3 2.5 L 93 2.5 C 93 2.5 92.99 11.22 93 11.2 C 93 12.8 93.8 13.7 95.2 13.7 C 96.6 13.7 97.4 12.8 97.4 11.2 C 97.41 11.22 97.4 2.5 97.4 2.5 L 100.1 2.5 C 100.1 2.5 100.11 11.2 100.1 11.2 C 100.1 14.3 98.2 16 95.2 16 C 92.2 16 90.3 14.3 90.3 11.2 Z M 103.3 15.8 L 103.3 2.5 L 105.9 2.5 L 105.9 13.4 L 110.4 13.4 L 110.4 15.8 L 103.3 15.8 Z M 112.9 15.8 L 112.9 2.5 L 115.6 2.5 L 115.6 13.4 L 120.1 13.4 L 120.1 15.8 L 112.9 15.8 Z M 127.6 15.8 L 127.6 2.5 L 135.3 2.5 L 135.3 4.8 L 130.3 4.8 L 130.3 7.8 L 135.1 7.8 L 135.1 10.2 L 130.3 10.2 L 130.3 15.8 L 127.6 15.8 Z M 137.3 9.1 C 137.3 5.2 139.4 2.2 142.9 2.2 C 146.4 2.2 148.5 5.2 148.5 9.1 C 148.5 13.1 146.4 16 142.9 16 C 139.4 16 137.3 13.1 137.3 9.1 Z M 145.7 9.1 C 145.7 6.6 144.7 4.6 142.9 4.6 C 141.1 4.6 140.1 6.6 140.1 9.1 C 140.1 11.7 141.1 13.7 142.9 13.7 C 144.7 13.7 145.7 11.7 145.7 9.1 Z M 157.3 15.8 L 155.2 11 L 153.8 11 L 153.8 15.8 L 151.1 15.8 L 151.1 2.5 C 151.1 2.5 156.11 2.46 156.1 2.5 C 158.5 2.5 160.2 4.2 160.2 6.7 C 160.2 9 158.9 10.1 157.8 10.5 C 157.85 10.5 160.3 15.8 160.3 15.8 L 157.3 15.8 Z M 157.4 6.7 C 157.4 5.6 156.7 4.8 155.7 4.8 C 155.71 4.82 153.8 4.8 153.8 4.8 L 153.8 8.6 C 153.8 8.6 155.71 8.62 155.7 8.6 C 156.7 8.6 157.4 7.9 157.4 6.7 Z " stroke="none" fill="#b13d24"/>  </g></svg>