<?xml version="1.0" standalone="no"?><!DOCTYPE svg PUBLIC "-//W3C//DTD SVG 1.1//EN" "http://www.w3.org/Graphics/SVG/1.1/DTD/svg11.dtd"><svg xmlns="http://www.w3.org/2000/svg" version="1.1" width="327px" height="44.3px" viewBox="0 0 327 44.3">  <desc>JANUARY 2019</desc>  <defs/>  <g id="Polygon146727">    <path d="M 75 22.5 C 75 22.5 76.5 19.4 76.5 19.4 C 77.1 20 78 20.5 79 20.5 C 80.5 20.5 81.6 19.5 81.6 17.8 C 81.56 17.79 81.6 3.7 81.6 3.7 L 85.6 3.7 C 85.6 3.7 85.58 17.91 85.6 17.9 C 85.6 22.1 83 24.1 79.3 24.1 C 77.8 24.1 76.2 23.6 75 22.5 Z M 99.1 23.7 L 98.1 20.2 L 92 20.2 L 91 23.7 L 86.7 23.7 L 92.6 3.7 L 97.5 3.7 L 103.4 23.7 L 99.1 23.7 Z M 95.1 7.9 L 92.8 16.6 L 97.3 16.6 L 95.1 7.9 Z M 116 23.7 L 109.2 11.9 L 109.2 23.7 L 105.1 23.7 L 105.1 3.7 L 109.2 3.7 L 115.8 15.1 L 115.8 3.7 L 119.8 3.7 L 119.8 23.7 L 116 23.7 Z M 123.3 16.8 C 123.32 16.8 123.3 3.7 123.3 3.7 L 127.4 3.7 C 127.4 3.7 127.37 16.83 127.4 16.8 C 127.4 19.2 128.6 20.5 130.7 20.5 C 132.8 20.5 134 19.2 134 16.8 C 134 16.83 134 3.7 134 3.7 L 138.1 3.7 C 138.1 3.7 138.05 16.8 138.1 16.8 C 138.1 21.4 135.2 24.1 130.7 24.1 C 126.2 24.1 123.3 21.4 123.3 16.8 Z M 151.6 23.7 L 150.6 20.2 L 144.5 20.2 L 143.5 23.7 L 139.2 23.7 L 145.1 3.7 L 150 3.7 L 155.9 23.7 L 151.6 23.7 Z M 147.6 7.9 L 145.3 16.6 L 149.8 16.6 L 147.6 7.9 Z M 166.9 23.7 L 163.8 16.5 L 161.7 16.5 L 161.7 23.7 L 157.6 23.7 L 157.6 3.7 C 157.6 3.7 165.11 3.69 165.1 3.7 C 168.8 3.7 171.2 6.3 171.2 10 C 171.2 13.5 169.4 15.2 167.7 15.7 C 167.72 15.75 171.4 23.7 171.4 23.7 L 166.9 23.7 Z M 167.1 10.1 C 167.1 8.3 166.1 7.2 164.5 7.2 C 164.51 7.23 161.7 7.2 161.7 7.2 L 161.7 12.9 C 161.7 12.9 164.51 12.93 164.5 12.9 C 166.1 12.9 167.1 11.8 167.1 10.1 Z M 178 23.7 L 178 15.4 L 171.8 3.7 L 176.3 3.7 L 180 11.7 L 183.8 3.7 L 188.2 3.7 L 182 15.4 L 182 23.7 L 178 23.7 Z M 195.7 23.7 C 195.7 23.7 195.71 20.46 195.7 20.5 C 203 13.3 204.6 11.8 204.6 9.5 C 204.6 7.9 203.4 7 201.9 7 C 200.1 7 198.7 7.8 197.6 9.2 C 197.6 9.2 195.2 6.7 195.2 6.7 C 196.9 4.5 199.2 3.4 202 3.4 C 205.8 3.4 208.6 5.7 208.6 9.4 C 208.6 12.5 206.6 15.1 201.7 20.2 C 201.65 20.16 208.7 20.2 208.7 20.2 L 208.7 23.7 L 195.7 23.7 Z M 211 13.7 C 211 8.5 213.1 3.4 218.1 3.4 C 223 3.4 225.1 8.5 225.1 13.7 C 225.1 18.8 223.1 24.1 218.1 24.1 C 213.1 24.1 211 18.8 211 13.7 Z M 221.1 13.7 C 221.1 9.8 220.4 7 218.1 7 C 215.7 7 215.1 9.8 215.1 13.7 C 215.1 17.5 215.7 20.5 218.1 20.5 C 220.4 20.5 221.1 17.5 221.1 13.7 Z M 231.7 23.7 L 231.7 8.9 L 228.7 12 L 226.4 9.6 L 232.2 3.7 L 235.8 3.7 L 235.8 23.7 L 231.7 23.7 Z M 239.2 21.9 C 239.2 21.9 241.1 18.9 241.1 18.9 C 241.9 19.9 242.8 20.5 244.2 20.5 C 246.8 20.5 248.2 17.6 248.2 14.5 C 248.2 14.3 248.2 14.3 248.2 14.1 C 247.5 15.5 245.8 16.7 244 16.7 C 241 16.7 238.4 14.4 238.4 10.2 C 238.4 6.3 241 3.4 244.9 3.4 C 250.2 3.4 252.3 8.1 252.3 13.7 C 252.3 19.7 249.5 24 244.3 24 C 242.2 24 240.3 23.2 239.2 21.9 Z M 248.2 11.2 C 248.1 9.3 247.4 6.9 245.2 6.9 C 243.3 6.9 242.4 8.5 242.4 10 C 242.4 12.4 243.8 13.2 245.2 13.2 C 246.5 13.2 247.5 12.3 248.2 11.2 Z " stroke="none" fill="#d3d2d2"/>  </g></svg>