<?xml version="1.0" standalone="no"?><!DOCTYPE svg PUBLIC "-//W3C//DTD SVG 1.1//EN" "http://www.w3.org/Graphics/SVG/1.1/DTD/svg11.dtd"><svg xmlns="http://www.w3.org/2000/svg" version="1.1" width="494px" height="395.3px" viewBox="0 0 494 395.3">  <desc>Artificial dye, Red 40 Artificial dye, Yellow 5 Artificial dye, Yellow 6 Bar Soap Cellulose, Paper pulp Extruded poly</desc>  <defs/>  <g id="Polygon214482">    <path d="M 0.9 346.2 C 0.9 346.2 2.2 344.4 2.2 344.4 C 3.2 345.6 4.9 346.6 6.8 346.6 C 9.4 346.6 10.5 345 10.5 343.3 C 10.5 338.5 1.5 339.7 1.5 333.3 C 1.5 330.2 3.9 328 7.2 328 C 9.4 328 11.2 328.8 12.5 330.1 C 12.5 330.1 11.3 331.9 11.3 331.9 C 10.2 330.7 8.7 330.2 7.1 330.2 C 5.3 330.2 3.9 331.4 3.9 333.2 C 3.9 337.4 12.9 336.5 12.9 343.2 C 12.9 346.1 11 348.7 6.8 348.7 C 4.2 348.7 2.2 347.7 0.9 346.2 Z M 15.4 330.3 C 15.4 329.5 16 328.8 16.8 328.8 C 17.6 328.8 18.3 329.5 18.3 330.3 C 18.3 331.1 17.6 331.8 16.8 331.8 C 16 331.8 15.4 331.1 15.4 330.3 Z M 15.8 348.4 L 15.8 333.9 L 17.9 333.9 L 17.9 348.4 L 15.8 348.4 Z M 21.6 348.4 L 21.6 328.4 L 23.7 328.4 L 23.7 348.4 L 21.6 348.4 Z M 26.9 330.3 C 26.9 329.5 27.6 328.8 28.4 328.8 C 29.2 328.8 29.9 329.5 29.9 330.3 C 29.9 331.1 29.2 331.8 28.4 331.8 C 27.6 331.8 26.9 331.1 26.9 330.3 Z M 27.4 348.4 L 27.4 333.9 L 29.5 333.9 L 29.5 348.4 L 27.4 348.4 Z M 32.4 341.1 C 32.4 336.8 34.7 333.5 38.4 333.5 C 40.4 333.5 41.7 334.3 42.6 335.4 C 42.6 335.4 41.4 336.9 41.4 336.9 C 40.6 335.9 39.7 335.4 38.6 335.4 C 36 335.4 34.7 338 34.7 341.1 C 34.7 344.2 36 346.8 38.6 346.8 C 39.7 346.8 40.6 346.4 41.4 345.3 C 41.4 345.3 42.6 346.8 42.6 346.8 C 41.7 348 40.4 348.7 38.4 348.7 C 34.7 348.7 32.4 345.4 32.4 341.1 Z M 44.3 341.1 C 44.3 337 46.3 333.5 50.2 333.5 C 54.1 333.5 56.1 337 56.1 341.1 C 56.1 345.2 54.1 348.7 50.2 348.7 C 46.3 348.7 44.3 345.2 44.3 341.1 Z M 53.8 341.1 C 53.8 338.2 52.7 335.4 50.2 335.4 C 47.7 335.4 46.6 338.2 46.6 341.1 C 46.6 344.1 47.7 346.8 50.2 346.8 C 52.7 346.8 53.8 344.1 53.8 341.1 Z M 66.9 348.4 C 66.9 348.4 66.87 338.06 66.9 338.1 C 66.9 336.1 66 335.4 64.6 335.4 C 63.1 335.4 61.8 336.6 61.2 337.8 C 61.17 337.76 61.2 348.4 61.2 348.4 L 59 348.4 L 59 333.9 L 61.2 333.9 C 61.2 333.9 61.17 335.96 61.2 336 C 62 334.7 63.6 333.5 65.4 333.5 C 67.8 333.5 69 334.8 69 337.5 C 69.03 337.46 69 348.4 69 348.4 L 66.9 348.4 Z M 87.1 348.4 C 87.1 348.4 87.12 346.31 87.1 346.3 C 86.3 347.8 84.8 348.7 83.3 348.7 C 80.1 348.7 78.1 345.7 78.1 341.1 C 78.1 336.6 80 333.5 83.3 333.5 C 84.8 333.5 86.2 334.4 87.1 336 C 87.12 335.99 87.1 328.4 87.1 328.4 L 89.3 328.4 L 89.3 348.4 L 87.1 348.4 Z M 87.1 344.5 C 87.1 344.5 87.1 337.8 87.1 337.8 C 86.6 336.6 85.2 335.4 83.8 335.4 C 81.5 335.4 80.4 338 80.4 341.1 C 80.4 344.3 81.5 346.8 83.8 346.8 C 85.2 346.8 86.6 345.7 87.1 344.5 Z M 92.5 330.3 C 92.5 329.5 93.2 328.8 94 328.8 C 94.8 328.8 95.5 329.5 95.5 330.3 C 95.5 331.1 94.8 331.8 94 331.8 C 93.2 331.8 92.5 331.1 92.5 330.3 Z M 92.9 348.4 L 92.9 333.9 L 95.1 333.9 L 95.1 348.4 L 92.9 348.4 Z M 98 341.1 C 98 337 100 333.5 103.9 333.5 C 107.8 333.5 109.8 337 109.8 341.1 C 109.8 345.2 107.8 348.7 103.9 348.7 C 100 348.7 98 345.2 98 341.1 Z M 107.5 341.1 C 107.5 338.2 106.4 335.4 103.9 335.4 C 101.4 335.4 100.3 338.2 100.3 341.1 C 100.3 344.1 101.4 346.8 103.9 346.8 C 106.4 346.8 107.5 344.1 107.5 341.1 Z M 119.4 348.4 L 116.1 342.6 L 112.8 348.4 L 110.4 348.4 L 114.8 341 L 110.6 333.9 L 113 333.9 L 116.1 339.4 L 119.2 333.9 L 121.6 333.9 L 117.4 341 L 121.8 348.4 L 119.4 348.4 Z M 123.4 330.3 C 123.4 329.5 124.1 328.8 124.9 328.8 C 125.7 328.8 126.4 329.5 126.4 330.3 C 126.4 331.1 125.7 331.8 124.9 331.8 C 124.1 331.8 123.4 331.1 123.4 330.3 Z M 123.9 348.4 L 123.9 333.9 L 126 333.9 L 126 348.4 L 123.9 348.4 Z M 137.9 348.4 C 137.9 348.4 137.94 346.31 137.9 346.3 C 137.1 347.8 135.7 348.7 134.1 348.7 C 130.9 348.7 128.9 345.7 128.9 341.1 C 128.9 336.6 130.9 333.5 134.1 333.5 C 135.6 333.5 137.1 334.4 137.9 336 C 137.94 335.99 137.9 328.4 137.9 328.4 L 140.1 328.4 L 140.1 348.4 L 137.9 348.4 Z M 137.9 344.5 C 137.9 344.5 137.9 337.8 137.9 337.8 C 137.4 336.6 136 335.4 134.7 335.4 C 132.3 335.4 131.2 338 131.2 341.1 C 131.2 344.3 132.3 346.8 134.7 346.8 C 136 346.8 137.4 345.7 137.9 344.5 Z M 143 341.1 C 143 336.9 145.3 333.5 148.9 333.5 C 152.7 333.5 154.6 336.9 154.6 341.2 C 154.65 341.18 154.6 341.8 154.6 341.8 C 154.6 341.8 145.26 341.84 145.3 341.8 C 145.3 344.7 146.8 346.9 149.4 346.9 C 150.7 346.9 152 346.3 152.9 345.2 C 152.9 345.2 154 346.4 154 346.4 C 152.8 347.9 151.2 348.7 149.2 348.7 C 145.4 348.7 143 345.6 143 341.1 Z M 148.9 335.3 C 146.3 335.3 145.3 338.1 145.3 340.2 C 145.3 340.2 152.5 340.2 152.5 340.2 C 152.5 338 151.5 335.3 148.9 335.3 Z M 158.2 352.2 C 158.2 352.2 157.1 351.3 157.1 351.3 C 158.1 350.6 158.9 349.5 159 348.5 C 159 348.5 158.8 348.5 158.6 348.5 C 157.8 348.5 157.2 347.9 157.2 347.1 C 157.2 346.2 157.9 345.5 158.8 345.5 C 159.7 345.5 160.6 346.3 160.6 347.7 C 160.6 349.5 159.5 351.2 158.2 352.2 Z M 182.1 348.4 L 178.8 332.6 L 175.6 348.4 L 173 348.4 L 168.6 328.4 L 171.1 328.4 L 174.4 344.7 L 177.8 328.4 L 179.8 328.4 L 183.2 344.7 L 186.5 328.4 L 189.1 328.4 L 184.6 348.4 L 182.1 348.4 Z M 199.1 348.4 C 199.1 348.4 199.08 338.03 199.1 338 C 199.1 336.1 198.2 335.4 196.7 335.4 C 195.3 335.4 194 336.6 193.3 337.8 C 193.35 337.76 193.3 348.4 193.3 348.4 L 191.2 348.4 L 191.2 328.4 L 193.3 328.4 C 193.3 328.4 193.35 335.96 193.3 336 C 194.2 334.7 195.8 333.5 197.6 333.5 C 200 333.5 201.2 334.8 201.2 337.4 C 201.21 337.4 201.2 348.4 201.2 348.4 L 199.1 348.4 Z M 204.4 330.3 C 204.4 329.5 205.1 328.8 205.9 328.8 C 206.7 328.8 207.4 329.5 207.4 330.3 C 207.4 331.1 206.7 331.8 205.9 331.8 C 205.1 331.8 204.4 331.1 204.4 330.3 Z M 204.9 348.4 L 204.9 333.9 L 207 333.9 L 207 348.4 L 204.9 348.4 Z M 211.1 345.5 C 211.08 345.47 211.1 335.8 211.1 335.8 L 209.2 335.8 L 209.2 333.9 L 211.1 333.9 L 211.1 329.9 L 213.2 329.9 L 213.2 333.9 L 215.7 333.9 L 215.7 335.8 L 213.2 335.8 C 213.2 335.8 213.24 345.08 213.2 345.1 C 213.2 346.2 213.6 346.8 214.4 346.8 C 214.9 346.8 215.4 346.6 215.7 346.2 C 215.7 346.2 216.3 347.9 216.3 347.9 C 215.8 348.4 215.1 348.7 214 348.7 C 212 348.7 211.1 347.6 211.1 345.5 Z M 217.5 341.1 C 217.5 336.9 219.7 333.5 223.4 333.5 C 227.2 333.5 229.1 336.9 229.1 341.2 C 229.13 341.18 229.1 341.8 229.1 341.8 C 229.1 341.8 219.74 341.84 219.7 341.8 C 219.8 344.7 221.3 346.9 223.9 346.9 C 225.2 346.9 226.5 346.3 227.4 345.2 C 227.4 345.2 228.5 346.4 228.5 346.4 C 227.3 347.9 225.7 348.7 223.7 348.7 C 219.9 348.7 217.5 345.6 217.5 341.1 Z M 223.4 335.3 C 220.8 335.3 219.8 338.1 219.7 340.2 C 219.7 340.2 227 340.2 227 340.2 C 227 338 226 335.3 223.4 335.3 Z M 237 346.2 C 237 346.2 238.3 344.4 238.3 344.4 C 239.4 345.6 241 346.6 243 346.6 C 245.5 346.6 246.7 345 246.7 343.3 C 246.7 338.5 237.6 339.7 237.6 333.3 C 237.6 330.2 240 328 243.4 328 C 245.6 328 247.4 328.8 248.7 330.1 C 248.7 330.1 247.4 331.9 247.4 331.9 C 246.4 330.7 244.9 330.2 243.3 330.2 C 241.5 330.2 240.1 331.4 240.1 333.2 C 240.1 337.4 249.1 336.5 249.1 343.2 C 249.1 346.1 247.1 348.7 243 348.7 C 240.4 348.7 238.4 347.7 237 346.2 Z M 259.4 348.4 C 259.4 348.4 259.37 346.82 259.4 346.8 C 258.4 348.1 257 348.7 255.6 348.7 C 253.2 348.7 251.2 346.9 251.2 343.9 C 251.2 340.9 253.2 339.1 255.6 339.1 C 257 339.1 258.5 339.7 259.4 341 C 259.4 341 259.4 338.5 259.4 338.5 C 259.4 336.5 258.3 335.4 256.4 335.4 C 255.1 335.4 253.9 335.9 252.8 337.2 C 252.8 337.2 251.8 335.6 251.8 335.6 C 253.2 334.2 254.9 333.5 256.7 333.5 C 259.6 333.5 261.5 334.9 261.5 338.2 C 261.53 338.24 261.5 348.4 261.5 348.4 L 259.4 348.4 Z M 259.4 345.3 C 259.4 345.3 259.4 342.6 259.4 342.6 C 258.7 341.4 257.5 340.7 256.3 340.7 C 254.5 340.7 253.4 342.1 253.4 343.9 C 253.4 345.7 254.5 347.2 256.3 347.2 C 257.5 347.2 258.7 346.5 259.4 345.3 Z M 273 348.4 C 273 348.4 272.99 338.06 273 338.1 C 273 336.1 272.1 335.4 270.7 335.4 C 269.3 335.4 268 336.6 267.3 337.8 C 267.29 337.76 267.3 348.4 267.3 348.4 L 265.2 348.4 L 265.2 333.9 L 267.3 333.9 C 267.3 333.9 267.29 335.96 267.3 336 C 268.1 334.7 269.8 333.5 271.5 333.5 C 274 333.5 275.2 334.8 275.2 337.5 C 275.15 337.46 275.2 348.4 275.2 348.4 L 273 348.4 Z M 287.1 348.4 C 287.1 348.4 287.09 346.31 287.1 346.3 C 286.3 347.8 284.8 348.7 283.3 348.7 C 280 348.7 278.1 345.7 278.1 341.1 C 278.1 336.6 280 333.5 283.3 333.5 C 284.8 333.5 286.2 334.4 287.1 336 C 287.09 335.99 287.1 328.4 287.1 328.4 L 289.3 328.4 L 289.3 348.4 L 287.1 348.4 Z M 287.1 344.5 C 287.1 344.5 287.1 337.8 287.1 337.8 C 286.6 336.6 285.2 335.4 283.8 335.4 C 281.5 335.4 280.3 338 280.3 341.1 C 280.3 344.3 281.5 346.8 283.8 346.8 C 285.2 346.8 286.6 345.7 287.1 344.5 Z " stroke="none" fill="#d3d2d2"/>  </g>  <g id="Polygon214481">    <path d="M 2.1 312.4 L 2.1 292.4 C 2.1 292.4 8.19 292.37 8.2 292.4 C 11.8 292.4 13.7 295.1 13.7 298.4 C 13.7 301.6 11.8 304.4 8.2 304.4 C 8.19 304.37 4.5 304.4 4.5 304.4 L 4.5 312.4 L 2.1 312.4 Z M 11.3 298.4 C 11.3 296.1 10 294.5 7.9 294.5 C 7.95 294.47 4.5 294.5 4.5 294.5 L 4.5 302.3 C 4.5 302.3 7.95 302.27 7.9 302.3 C 10 302.3 11.3 300.6 11.3 298.4 Z M 15.1 305.1 C 15.1 301 17.1 297.5 20.9 297.5 C 24.8 297.5 26.9 301 26.9 305.1 C 26.9 309.2 24.8 312.7 20.9 312.7 C 17.1 312.7 15.1 309.2 15.1 305.1 Z M 24.6 305.1 C 24.6 302.2 23.5 299.4 20.9 299.4 C 18.5 299.4 17.3 302.2 17.3 305.1 C 17.3 308.1 18.5 310.8 20.9 310.8 C 23.5 310.8 24.6 308.1 24.6 305.1 Z M 29.8 312.4 L 29.8 292.4 L 31.9 292.4 L 31.9 312.4 L 29.8 312.4 Z M 35.2 316.1 C 35.4 316.3 35.9 316.3 36.1 316.3 C 37 316.3 37.4 316 37.8 314.9 C 37.83 314.9 38.6 312.7 38.6 312.7 L 33.8 297.9 L 36.1 297.9 L 39.7 309.8 L 43.3 297.9 L 45.7 297.9 C 45.7 297.9 39.87 315.44 39.9 315.4 C 39.1 317.5 38 318.3 36.3 318.3 C 35.8 318.3 35.2 318.2 34.8 318 C 34.8 318 35.2 316.1 35.2 316.1 Z M 50.5 312.4 L 45.7 297.9 L 48.1 297.9 L 51.7 309.8 L 55.3 297.9 L 57.6 297.9 L 52.8 312.4 L 50.5 312.4 Z M 59 294.3 C 59 293.5 59.7 292.8 60.5 292.8 C 61.3 292.8 62 293.5 62 294.3 C 62 295.1 61.3 295.8 60.5 295.8 C 59.7 295.8 59 295.1 59 294.3 Z M 59.5 312.4 L 59.5 297.9 L 61.6 297.9 L 61.6 312.4 L 59.5 312.4 Z M 73.1 312.4 C 73.1 312.4 73.08 302.06 73.1 302.1 C 73.1 300.1 72.2 299.4 70.8 299.4 C 69.4 299.4 68 300.6 67.4 301.8 C 67.38 301.76 67.4 312.4 67.4 312.4 L 65.2 312.4 L 65.2 297.9 L 67.4 297.9 C 67.4 297.9 67.38 299.96 67.4 300 C 68.2 298.7 69.8 297.5 71.6 297.5 C 74 297.5 75.2 298.8 75.2 301.5 C 75.24 301.46 75.2 312.4 75.2 312.4 L 73.1 312.4 Z M 78.5 316.1 C 78.7 316.3 79.2 316.3 79.4 316.3 C 80.3 316.3 80.8 316 81.1 314.9 C 81.15 314.9 81.9 312.7 81.9 312.7 L 77.1 297.9 L 79.4 297.9 L 83 309.8 L 86.7 297.9 L 89 297.9 C 89 297.9 83.19 315.44 83.2 315.4 C 82.5 317.5 81.3 318.3 79.6 318.3 C 79.1 318.3 78.5 318.2 78.1 318 C 78.1 318 78.5 316.1 78.5 316.1 Z M 90.8 312.4 L 90.8 292.4 L 93 292.4 L 93 312.4 L 90.8 312.4 Z M 102.1 305.1 C 102.1 300.8 104.3 297.5 108.1 297.5 C 110.1 297.5 111.3 298.3 112.2 299.4 C 112.2 299.4 111 300.9 111 300.9 C 110.2 299.9 109.3 299.4 108.2 299.4 C 105.7 299.4 104.3 302 104.3 305.1 C 104.3 308.2 105.7 310.8 108.2 310.8 C 109.3 310.8 110.2 310.4 111 309.3 C 111 309.3 112.2 310.8 112.2 310.8 C 111.3 312 110.1 312.7 108.1 312.7 C 104.3 312.7 102.1 309.4 102.1 305.1 Z M 122.5 312.4 C 122.5 312.4 122.52 302.03 122.5 302 C 122.5 300.1 121.6 299.4 120.2 299.4 C 118.8 299.4 117.4 300.6 116.8 301.8 C 116.79 301.76 116.8 312.4 116.8 312.4 L 114.7 312.4 L 114.7 292.4 L 116.8 292.4 C 116.8 292.4 116.79 299.96 116.8 300 C 117.6 298.7 119.3 297.5 121 297.5 C 123.5 297.5 124.6 298.8 124.6 301.4 C 124.65 301.4 124.6 312.4 124.6 312.4 L 122.5 312.4 Z M 128.3 312.4 L 128.3 292.4 L 130.4 292.4 L 130.4 312.4 L 128.3 312.4 Z M 133.4 305.1 C 133.4 301 135.4 297.5 139.3 297.5 C 143.2 297.5 145.2 301 145.2 305.1 C 145.2 309.2 143.2 312.7 139.3 312.7 C 135.4 312.7 133.4 309.2 133.4 305.1 Z M 142.9 305.1 C 142.9 302.2 141.8 299.4 139.3 299.4 C 136.8 299.4 135.6 302.2 135.6 305.1 C 135.6 308.1 136.8 310.8 139.3 310.8 C 141.8 310.8 142.9 308.1 142.9 305.1 Z M 148.1 312.4 L 148.1 297.9 L 150.2 297.9 C 150.2 297.9 150.24 300.2 150.2 300.2 C 151.2 298.7 152.6 297.6 154.3 297.6 C 154.3 297.6 154.3 299.8 154.3 299.8 C 154.1 299.7 153.9 299.7 153.6 299.7 C 152.3 299.7 150.8 300.9 150.2 302.1 C 150.24 302.09 150.2 312.4 150.2 312.4 L 148.1 312.4 Z M 156.1 294.3 C 156.1 293.5 156.8 292.8 157.6 292.8 C 158.4 292.8 159.1 293.5 159.1 294.3 C 159.1 295.1 158.4 295.8 157.6 295.8 C 156.8 295.8 156.1 295.1 156.1 294.3 Z M 156.5 312.4 L 156.5 297.9 L 158.7 297.9 L 158.7 312.4 L 156.5 312.4 Z M 170.6 312.4 C 170.6 312.4 170.61 310.31 170.6 310.3 C 169.8 311.8 168.3 312.7 166.8 312.7 C 163.6 312.7 161.6 309.7 161.6 305.1 C 161.6 300.6 163.5 297.5 166.8 297.5 C 168.3 297.5 169.7 298.4 170.6 300 C 170.61 299.99 170.6 292.4 170.6 292.4 L 172.8 292.4 L 172.8 312.4 L 170.6 312.4 Z M 170.6 308.5 C 170.6 308.5 170.6 301.8 170.6 301.8 C 170.1 300.6 168.7 299.4 167.3 299.4 C 165 299.4 163.9 302 163.9 305.1 C 163.9 308.3 165 310.8 167.3 310.8 C 168.7 310.8 170.1 309.7 170.6 308.5 Z M 175.7 305.1 C 175.7 300.9 177.9 297.5 181.6 297.5 C 185.4 297.5 187.3 300.9 187.3 305.2 C 187.32 305.18 187.3 305.8 187.3 305.8 C 187.3 305.8 177.93 305.84 177.9 305.8 C 178 308.7 179.5 310.9 182.1 310.9 C 183.4 310.9 184.6 310.3 185.5 309.2 C 185.5 309.2 186.7 310.4 186.7 310.4 C 185.5 311.9 183.9 312.7 181.9 312.7 C 178 312.7 175.7 309.6 175.7 305.1 Z M 181.6 299.3 C 179 299.3 178 302.1 177.9 304.2 C 177.9 304.2 185.2 304.2 185.2 304.2 C 185.2 302 184.2 299.3 181.6 299.3 Z M 190.9 316.2 C 190.9 316.2 189.8 315.3 189.8 315.3 C 190.7 314.6 191.6 313.5 191.7 312.5 C 191.6 312.5 191.4 312.5 191.3 312.5 C 190.5 312.5 189.9 311.9 189.9 311.1 C 189.9 310.2 190.6 309.5 191.5 309.5 C 192.4 309.5 193.3 310.3 193.3 311.7 C 193.3 313.5 192.2 315.2 190.9 316.2 Z M 202.2 302.4 C 202.2 296.4 205.2 292 209.9 292 C 213 292 214.7 293.9 215.8 295.9 C 215.8 295.9 213.8 296.9 213.8 296.9 C 213 295.2 211.7 294.2 209.9 294.2 C 206.7 294.2 204.6 297.6 204.6 302.4 C 204.6 307.1 206.7 310.6 209.9 310.6 C 211.8 310.6 213.1 309.3 213.8 307.6 C 213.8 307.6 215.8 308.6 215.8 308.6 C 214.7 310.8 213 312.7 209.9 312.7 C 205.2 312.7 202.2 308.4 202.2 302.4 Z M 225.9 312.4 C 225.9 312.4 225.86 310.82 225.9 310.8 C 224.9 312.1 223.5 312.7 222.1 312.7 C 219.7 312.7 217.7 310.9 217.7 307.9 C 217.7 304.9 219.7 303.1 222.1 303.1 C 223.5 303.1 225 303.7 225.9 305 C 225.9 305 225.9 302.5 225.9 302.5 C 225.9 300.5 224.8 299.4 222.9 299.4 C 221.5 299.4 220.4 299.9 219.3 301.2 C 219.3 301.2 218.3 299.6 218.3 299.6 C 219.7 298.2 221.4 297.5 223.2 297.5 C 226.1 297.5 228 298.9 228 302.2 C 228.02 302.24 228 312.4 228 312.4 L 225.9 312.4 Z M 225.9 309.3 C 225.9 309.3 225.9 306.6 225.9 306.6 C 225.2 305.4 224 304.7 222.7 304.7 C 220.9 304.7 219.9 306.1 219.9 307.9 C 219.9 309.7 220.9 311.2 222.7 311.2 C 224 311.2 225.2 310.5 225.9 309.3 Z M 237.1 310.8 C 239.4 310.8 240.5 308.3 240.5 305.1 C 240.5 302 239.4 299.4 237.1 299.4 C 235.7 299.4 234.4 300.6 233.8 301.8 C 233.8 301.8 233.8 308.5 233.8 308.5 C 234.4 309.7 235.7 310.8 237.1 310.8 Z M 231.7 312.4 L 231.7 292.4 L 233.8 292.4 C 233.8 292.4 233.78 299.99 233.8 300 C 234.7 298.4 236.1 297.5 237.6 297.5 C 240.9 297.5 242.8 300.6 242.8 305.1 C 242.8 309.7 240.9 312.7 237.6 312.7 C 236.1 312.7 234.6 311.8 233.8 310.3 C 233.78 310.31 233.8 312.4 233.8 312.4 L 231.7 312.4 Z M 245.8 312.4 L 245.8 292.4 L 247.9 292.4 L 247.9 312.4 L 245.8 312.4 Z M 250.8 305.1 C 250.8 300.9 253 297.5 256.7 297.5 C 260.5 297.5 262.4 300.9 262.4 305.2 C 262.43 305.18 262.4 305.8 262.4 305.8 C 262.4 305.8 253.04 305.84 253 305.8 C 253.1 308.7 254.6 310.9 257.2 310.9 C 258.5 310.9 259.8 310.3 260.7 309.2 C 260.7 309.2 261.8 310.4 261.8 310.4 C 260.6 311.9 259 312.7 257 312.7 C 253.2 312.7 250.8 309.6 250.8 305.1 Z M 256.7 299.3 C 254.1 299.3 253.1 302.1 253 304.2 C 253 304.2 260.3 304.2 260.3 304.2 C 260.3 302 259.3 299.3 256.7 299.3 Z M 271 294.3 C 271 293.5 271.7 292.8 272.5 292.8 C 273.3 292.8 274 293.5 274 294.3 C 274 295.1 273.3 295.8 272.5 295.8 C 271.7 295.8 271 295.1 271 294.3 Z M 271.4 312.4 L 271.4 297.9 L 273.6 297.9 L 273.6 312.4 L 271.4 312.4 Z M 285.1 312.4 C 285.1 312.4 285.05 302.06 285.1 302.1 C 285.1 300.1 284.2 299.4 282.7 299.4 C 281.3 299.4 280 300.6 279.4 301.8 C 279.35 301.76 279.4 312.4 279.4 312.4 L 277.2 312.4 L 277.2 297.9 L 279.4 297.9 C 279.4 297.9 279.35 299.96 279.4 300 C 280.2 298.7 281.8 297.5 283.6 297.5 C 286 297.5 287.2 298.8 287.2 301.5 C 287.21 301.46 287.2 312.4 287.2 312.4 L 285.1 312.4 Z M 289.7 310.7 C 289.7 310.7 290.8 309.2 290.8 309.2 C 291.6 310.2 293 311 294.6 311 C 296.2 311 297.4 310 297.4 308.7 C 297.4 305.3 290.1 306.4 290.1 301.4 C 290.1 299.3 291.9 297.5 294.7 297.5 C 296.7 297.5 298.1 298.3 299.2 299.4 C 299.2 299.4 298.1 300.9 298.1 300.9 C 297.4 299.9 296.2 299.3 294.8 299.3 C 293.2 299.3 292.2 300.2 292.2 301.4 C 292.2 304.5 299.4 303.4 299.4 308.6 C 299.4 311 297.6 312.7 294.6 312.7 C 292.6 312.7 290.9 312.1 289.7 310.7 Z M 310 312.4 C 310 312.4 310.01 310.37 310 310.4 C 309.1 311.6 307.6 312.7 305.8 312.7 C 303.4 312.7 302.2 311.5 302.2 308.9 C 302.18 308.87 302.2 297.9 302.2 297.9 L 304.3 297.9 C 304.3 297.9 304.31 308.24 304.3 308.2 C 304.3 310.2 305.2 310.8 306.6 310.8 C 308.1 310.8 309.4 309.8 310 308.6 C 310.01 308.57 310 297.9 310 297.9 L 312.2 297.9 L 312.2 312.4 L 310 312.4 Z M 315.8 312.4 L 315.8 292.4 L 318 292.4 L 318 312.4 L 315.8 312.4 Z M 329.1 312.4 C 329.1 312.4 329.06 310.82 329.1 310.8 C 328.1 312.1 326.7 312.7 325.3 312.7 C 322.9 312.7 320.9 310.9 320.9 307.9 C 320.9 304.9 322.9 303.1 325.3 303.1 C 326.7 303.1 328.2 303.7 329.1 305 C 329.1 305 329.1 302.5 329.1 302.5 C 329.1 300.5 328 299.4 326.1 299.4 C 324.7 299.4 323.6 299.9 322.5 301.2 C 322.5 301.2 321.5 299.6 321.5 299.6 C 322.9 298.2 324.6 297.5 326.4 297.5 C 329.3 297.5 331.2 298.9 331.2 302.2 C 331.22 302.24 331.2 312.4 331.2 312.4 L 329.1 312.4 Z M 329.1 309.3 C 329.1 309.3 329.1 306.6 329.1 306.6 C 328.4 305.4 327.2 304.7 325.9 304.7 C 324.1 304.7 323.1 306.1 323.1 307.9 C 323.1 309.7 324.1 311.2 325.9 311.2 C 327.2 311.2 328.4 310.5 329.1 309.3 Z M 335.3 309.5 C 335.27 309.47 335.3 299.8 335.3 299.8 L 333.4 299.8 L 333.4 297.9 L 335.3 297.9 L 335.3 293.9 L 337.4 293.9 L 337.4 297.9 L 339.9 297.9 L 339.9 299.8 L 337.4 299.8 C 337.4 299.8 337.43 309.08 337.4 309.1 C 337.4 310.2 337.8 310.8 338.6 310.8 C 339.1 310.8 339.6 310.6 339.9 310.2 C 339.9 310.2 340.5 311.9 340.5 311.9 C 340 312.4 339.3 312.7 338.2 312.7 C 336.2 312.7 335.3 311.6 335.3 309.5 Z M 342 294.3 C 342 293.5 342.7 292.8 343.5 292.8 C 344.3 292.8 345 293.5 345 294.3 C 345 295.1 344.3 295.8 343.5 295.8 C 342.7 295.8 342 295.1 342 294.3 Z M 342.4 312.4 L 342.4 297.9 L 344.6 297.9 L 344.6 312.4 L 342.4 312.4 Z M 347.5 305.1 C 347.5 301 349.6 297.5 353.4 297.5 C 357.3 297.5 359.3 301 359.3 305.1 C 359.3 309.2 357.3 312.7 353.4 312.7 C 349.6 312.7 347.5 309.2 347.5 305.1 Z M 357.1 305.1 C 357.1 302.2 355.9 299.4 353.4 299.4 C 350.9 299.4 349.8 302.2 349.8 305.1 C 349.8 308.1 350.9 310.8 353.4 310.8 C 355.9 310.8 357.1 308.1 357.1 305.1 Z M 370.1 312.4 C 370.1 312.4 370.07 302.06 370.1 302.1 C 370.1 300.1 369.2 299.4 367.8 299.4 C 366.4 299.4 365 300.6 364.4 301.8 C 364.37 301.76 364.4 312.4 364.4 312.4 L 362.2 312.4 L 362.2 297.9 L 364.4 297.9 C 364.4 297.9 364.37 299.96 364.4 300 C 365.2 298.7 366.8 297.5 368.6 297.5 C 371 297.5 372.2 298.8 372.2 301.5 C 372.23 301.46 372.2 312.4 372.2 312.4 L 370.1 312.4 Z " stroke="none" fill="#d3d2d2"/>  </g>  <g id="Polygon214480">    <path d="M 2.1 276.4 L 2.1 256.4 C 2.1 256.4 8.19 256.37 8.2 256.4 C 11.8 256.4 13.7 259.1 13.7 262.4 C 13.7 265.6 11.8 268.4 8.2 268.4 C 8.19 268.37 4.5 268.4 4.5 268.4 L 4.5 276.4 L 2.1 276.4 Z M 11.3 262.4 C 11.3 260.1 10 258.5 7.9 258.5 C 7.95 258.47 4.5 258.5 4.5 258.5 L 4.5 266.3 C 4.5 266.3 7.95 266.27 7.9 266.3 C 10 266.3 11.3 264.6 11.3 262.4 Z M 15.1 269.1 C 15.1 265 17.1 261.5 20.9 261.5 C 24.8 261.5 26.9 265 26.9 269.1 C 26.9 273.2 24.8 276.7 20.9 276.7 C 17.1 276.7 15.1 273.2 15.1 269.1 Z M 24.6 269.1 C 24.6 266.2 23.5 263.4 20.9 263.4 C 18.5 263.4 17.3 266.2 17.3 269.1 C 17.3 272.1 18.5 274.8 20.9 274.8 C 23.5 274.8 24.6 272.1 24.6 269.1 Z M 29.8 276.4 L 29.8 256.4 L 31.9 256.4 L 31.9 276.4 L 29.8 276.4 Z M 35.2 280.1 C 35.4 280.3 35.9 280.3 36.1 280.3 C 37 280.3 37.4 280 37.8 278.9 C 37.83 278.9 38.6 276.7 38.6 276.7 L 33.8 261.9 L 36.1 261.9 L 39.7 273.8 L 43.3 261.9 L 45.7 261.9 C 45.7 261.9 39.87 279.44 39.9 279.4 C 39.1 281.5 38 282.3 36.3 282.3 C 35.8 282.3 35.2 282.2 34.8 282 C 34.8 282 35.2 280.1 35.2 280.1 Z M 50.5 276.4 L 45.7 261.9 L 48.1 261.9 L 51.7 273.8 L 55.3 261.9 L 57.6 261.9 L 52.8 276.4 L 50.5 276.4 Z M 59 258.3 C 59 257.5 59.7 256.8 60.5 256.8 C 61.3 256.8 62 257.5 62 258.3 C 62 259.1 61.3 259.8 60.5 259.8 C 59.7 259.8 59 259.1 59 258.3 Z M 59.5 276.4 L 59.5 261.9 L 61.6 261.9 L 61.6 276.4 L 59.5 276.4 Z M 73.1 276.4 C 73.1 276.4 73.08 266.06 73.1 266.1 C 73.1 264.1 72.2 263.4 70.8 263.4 C 69.4 263.4 68 264.6 67.4 265.8 C 67.38 265.76 67.4 276.4 67.4 276.4 L 65.2 276.4 L 65.2 261.9 L 67.4 261.9 C 67.4 261.9 67.38 263.96 67.4 264 C 68.2 262.7 69.8 261.5 71.6 261.5 C 74 261.5 75.2 262.8 75.2 265.5 C 75.24 265.46 75.2 276.4 75.2 276.4 L 73.1 276.4 Z M 78.5 280.1 C 78.7 280.3 79.2 280.3 79.4 280.3 C 80.3 280.3 80.8 280 81.1 278.9 C 81.15 278.9 81.9 276.7 81.9 276.7 L 77.1 261.9 L 79.4 261.9 L 83 273.8 L 86.7 261.9 L 89 261.9 C 89 261.9 83.19 279.44 83.2 279.4 C 82.5 281.5 81.3 282.3 79.6 282.3 C 79.1 282.3 78.5 282.2 78.1 282 C 78.1 282 78.5 280.1 78.5 280.1 Z M 90.8 276.4 L 90.8 256.4 L 93 256.4 L 93 276.4 L 90.8 276.4 Z M 110.2 276.4 C 110.2 276.4 110.22 274.82 110.2 274.8 C 109.3 276.1 107.9 276.7 106.4 276.7 C 104.1 276.7 102 274.9 102 271.9 C 102 268.9 104 267.1 106.4 267.1 C 107.9 267.1 109.3 267.7 110.2 269 C 110.2 269 110.2 266.5 110.2 266.5 C 110.2 264.5 109.1 263.4 107.2 263.4 C 105.9 263.4 104.7 263.9 103.6 265.2 C 103.6 265.2 102.7 263.6 102.7 263.6 C 104 262.2 105.7 261.5 107.6 261.5 C 110.5 261.5 112.4 262.9 112.4 266.2 C 112.38 266.24 112.4 276.4 112.4 276.4 L 110.2 276.4 Z M 110.2 273.3 C 110.2 273.3 110.2 270.6 110.2 270.6 C 109.6 269.4 108.4 268.7 107.1 268.7 C 105.3 268.7 104.2 270.1 104.2 271.9 C 104.2 273.7 105.3 275.2 107.1 275.2 C 108.4 275.2 109.6 274.5 110.2 273.3 Z M 115.3 269.1 C 115.3 264.8 117.6 261.5 121.3 261.5 C 123.3 261.5 124.5 262.3 125.4 263.4 C 125.4 263.4 124.3 264.9 124.3 264.9 C 123.5 263.9 122.6 263.4 121.5 263.4 C 118.9 263.4 117.5 266 117.5 269.1 C 117.5 272.2 118.9 274.8 121.5 274.8 C 122.6 274.8 123.5 274.4 124.3 273.3 C 124.3 273.3 125.4 274.8 125.4 274.8 C 124.5 276 123.3 276.7 121.3 276.7 C 117.6 276.7 115.3 273.4 115.3 269.1 Z M 127.2 269.1 C 127.2 264.9 129.4 261.5 133 261.5 C 136.9 261.5 138.8 264.9 138.8 269.2 C 138.78 269.18 138.8 269.8 138.8 269.8 C 138.8 269.8 129.39 269.84 129.4 269.8 C 129.5 272.7 131 274.9 133.6 274.9 C 134.8 274.9 136.1 274.3 137 273.2 C 137 273.2 138.1 274.4 138.1 274.4 C 137 275.9 135.3 276.7 133.4 276.7 C 129.5 276.7 127.2 273.6 127.2 269.1 Z M 133 263.3 C 130.5 263.3 129.4 266.1 129.4 268.2 C 129.4 268.2 136.6 268.2 136.6 268.2 C 136.6 266 135.7 263.3 133 263.3 Z M 142 273.5 C 142.05 273.47 142 263.8 142 263.8 L 140.1 263.8 L 140.1 261.9 L 142 261.9 L 142 257.9 L 144.2 257.9 L 144.2 261.9 L 146.7 261.9 L 146.7 263.8 L 144.2 263.8 C 144.2 263.8 144.21 273.08 144.2 273.1 C 144.2 274.2 144.5 274.8 145.4 274.8 C 145.9 274.8 146.4 274.6 146.6 274.2 C 146.6 274.2 147.3 275.9 147.3 275.9 C 146.8 276.4 146.1 276.7 145 276.7 C 143 276.7 142 275.6 142 273.5 Z M 156.7 276.4 C 156.7 276.4 156.66 274.82 156.7 274.8 C 155.7 276.1 154.3 276.7 152.8 276.7 C 150.5 276.7 148.5 274.9 148.5 271.9 C 148.5 268.9 150.5 267.1 152.8 267.1 C 154.3 267.1 155.8 267.7 156.7 269 C 156.7 269 156.7 266.5 156.7 266.5 C 156.7 264.5 155.6 263.4 153.7 263.4 C 152.3 263.4 151.2 263.9 150.1 265.2 C 150.1 265.2 149.1 263.6 149.1 263.6 C 150.5 262.2 152.2 261.5 154 261.5 C 156.9 261.5 158.8 262.9 158.8 266.2 C 158.82 266.24 158.8 276.4 158.8 276.4 L 156.7 276.4 Z M 156.7 273.3 C 156.7 273.3 156.7 270.6 156.7 270.6 C 156 269.4 154.8 268.7 153.5 268.7 C 151.7 268.7 150.7 270.1 150.7 271.9 C 150.7 273.7 151.7 275.2 153.5 275.2 C 154.8 275.2 156 274.5 156.7 273.3 Z M 162.9 273.5 C 162.87 273.47 162.9 263.8 162.9 263.8 L 160.9 263.8 L 160.9 261.9 L 162.9 261.9 L 162.9 257.9 L 165 257.9 L 165 261.9 L 167.5 261.9 L 167.5 263.8 L 165 263.8 C 165 263.8 165.03 273.08 165 273.1 C 165 274.2 165.4 274.8 166.2 274.8 C 166.7 274.8 167.2 274.6 167.5 274.2 C 167.5 274.2 168.1 275.9 168.1 275.9 C 167.6 276.4 166.9 276.7 165.8 276.7 C 163.8 276.7 162.9 275.6 162.9 273.5 Z M 169.3 269.1 C 169.3 264.9 171.5 261.5 175.2 261.5 C 179 261.5 180.9 264.9 180.9 269.2 C 180.93 269.18 180.9 269.8 180.9 269.8 C 180.9 269.8 171.54 269.84 171.5 269.8 C 171.6 272.7 173.1 274.9 175.7 274.9 C 177 274.9 178.3 274.3 179.2 273.2 C 179.2 273.2 180.3 274.4 180.3 274.4 C 179.1 275.9 177.5 276.7 175.5 276.7 C 171.7 276.7 169.3 273.6 169.3 269.1 Z M 175.2 263.3 C 172.6 263.3 171.6 266.1 171.5 268.2 C 171.5 268.2 178.8 268.2 178.8 268.2 C 178.8 266 177.8 263.3 175.2 263.3 Z M 184.5 280.2 C 184.5 280.2 183.4 279.3 183.4 279.3 C 184.3 278.6 185.2 277.5 185.3 276.5 C 185.2 276.5 185 276.5 184.9 276.5 C 184.1 276.5 183.5 275.9 183.5 275.1 C 183.5 274.2 184.2 273.5 185.1 273.5 C 186 273.5 186.9 274.3 186.9 275.7 C 186.9 277.5 185.8 279.2 184.5 280.2 Z M 195.8 266.4 C 195.8 260.4 198.8 256 203.5 256 C 206.6 256 208.3 257.9 209.4 259.9 C 209.4 259.9 207.4 260.9 207.4 260.9 C 206.6 259.2 205.3 258.2 203.5 258.2 C 200.3 258.2 198.2 261.6 198.2 266.4 C 198.2 271.1 200.3 274.6 203.5 274.6 C 205.4 274.6 206.7 273.3 207.4 271.6 C 207.4 271.6 209.5 272.6 209.5 272.6 C 208.3 274.8 206.6 276.7 203.5 276.7 C 198.8 276.7 195.8 272.4 195.8 266.4 Z M 212 276.4 L 212 256.4 L 214.2 256.4 L 214.2 276.4 L 212 276.4 Z M 217.1 269.1 C 217.1 264.9 219.3 261.5 223 261.5 C 226.8 261.5 228.7 264.9 228.7 269.2 C 228.71 269.18 228.7 269.8 228.7 269.8 C 228.7 269.8 219.32 269.84 219.3 269.8 C 219.4 272.7 220.9 274.9 223.5 274.9 C 224.8 274.9 226 274.3 226.9 273.2 C 226.9 273.2 228.1 274.4 228.1 274.4 C 226.9 275.9 225.3 276.7 223.3 276.7 C 219.4 276.7 217.1 273.6 217.1 269.1 Z M 223 263.3 C 220.4 263.3 219.4 266.1 219.3 268.2 C 219.3 268.2 226.6 268.2 226.6 268.2 C 226.6 266 225.6 263.3 223 263.3 Z M 239 276.4 C 239 276.4 239 274.82 239 274.8 C 238.1 276.1 236.7 276.7 235.2 276.7 C 232.9 276.7 230.8 274.9 230.8 271.9 C 230.8 268.9 232.8 267.1 235.2 267.1 C 236.7 267.1 238.1 267.7 239 269 C 239 269 239 266.5 239 266.5 C 239 264.5 237.9 263.4 236 263.4 C 234.7 263.4 233.5 263.9 232.4 265.2 C 232.4 265.2 231.4 263.6 231.4 263.6 C 232.8 262.2 234.5 261.5 236.4 261.5 C 239.2 261.5 241.2 262.9 241.2 266.2 C 241.16 266.24 241.2 276.4 241.2 276.4 L 239 276.4 Z M 239 273.3 C 239 273.3 239 270.6 239 270.6 C 238.3 269.4 237.1 268.7 235.9 268.7 C 234.1 268.7 233 270.1 233 271.9 C 233 273.7 234.1 275.2 235.9 275.2 C 237.1 275.2 238.3 274.5 239 273.3 Z M 244.8 276.4 L 244.8 261.9 L 246.9 261.9 C 246.9 261.9 246.92 264.2 246.9 264.2 C 247.9 262.7 249.3 261.6 251 261.6 C 251 261.6 251 263.8 251 263.8 C 250.8 263.7 250.6 263.7 250.3 263.7 C 249 263.7 247.5 264.9 246.9 266.1 C 246.92 266.09 246.9 276.4 246.9 276.4 L 244.8 276.4 Z M 258.8 266.4 C 258.8 260.2 261.9 256 266.6 256 C 269.5 256 271.3 257.7 272.5 259.8 C 272.5 259.8 270.6 260.8 270.6 260.8 C 269.8 259.2 268.4 258.2 266.6 258.2 C 263.4 258.2 261.3 261.5 261.3 266.4 C 261.3 271.2 263.4 274.6 266.6 274.6 C 268.3 274.6 269.6 273.8 270.3 272.9 C 270.32 272.93 270.3 268.2 270.3 268.2 L 265.6 268.2 L 265.6 266.1 L 272.6 266.1 C 272.6 266.1 272.6 273.83 272.6 273.8 C 271.1 275.7 269.1 276.8 266.6 276.8 C 261.9 276.8 258.8 272.6 258.8 266.4 Z M 275.9 276.4 L 275.9 256.4 L 278.1 256.4 L 278.1 276.4 L 275.9 276.4 Z M 289.6 276.4 C 289.6 276.4 289.55 274.37 289.6 274.4 C 288.7 275.6 287.2 276.7 285.4 276.7 C 282.9 276.7 281.7 275.5 281.7 272.9 C 281.72 272.87 281.7 261.9 281.7 261.9 L 283.9 261.9 C 283.9 261.9 283.85 272.24 283.9 272.2 C 283.9 274.2 284.8 274.8 286.2 274.8 C 287.6 274.8 288.9 273.8 289.6 272.6 C 289.55 272.57 289.6 261.9 289.6 261.9 L 291.7 261.9 L 291.7 276.4 L 289.6 276.4 Z M 294.7 269.1 C 294.7 264.9 296.9 261.5 300.5 261.5 C 304.3 261.5 306.3 264.9 306.3 269.2 C 306.26 269.18 306.3 269.8 306.3 269.8 C 306.3 269.8 296.87 269.84 296.9 269.8 C 297 272.7 298.5 274.9 301 274.9 C 302.3 274.9 303.6 274.3 304.5 273.2 C 304.5 273.2 305.6 274.4 305.6 274.4 C 304.5 275.9 302.8 276.7 300.9 276.7 C 297 276.7 294.7 273.6 294.7 269.1 Z M 300.5 263.3 C 298 263.3 296.9 266.1 296.9 268.2 C 296.9 268.2 304.1 268.2 304.1 268.2 C 304.1 266 303.1 263.3 300.5 263.3 Z " stroke="none" fill="#d3d2d2"/>  </g>  <g id="Polygon214479">    <path d="M 2.1 240.4 L 2.1 220.4 C 2.1 220.4 8.19 220.37 8.2 220.4 C 11.8 220.4 13.7 223.1 13.7 226.4 C 13.7 229.6 11.8 232.4 8.2 232.4 C 8.19 232.37 4.5 232.4 4.5 232.4 L 4.5 240.4 L 2.1 240.4 Z M 11.3 226.4 C 11.3 224.1 10 222.5 7.9 222.5 C 7.95 222.47 4.5 222.5 4.5 222.5 L 4.5 230.3 C 4.5 230.3 7.95 230.27 7.9 230.3 C 10 230.3 11.3 228.6 11.3 226.4 Z M 15.1 233.1 C 15.1 229 17.1 225.5 20.9 225.5 C 24.8 225.5 26.9 229 26.9 233.1 C 26.9 237.2 24.8 240.7 20.9 240.7 C 17.1 240.7 15.1 237.2 15.1 233.1 Z M 24.6 233.1 C 24.6 230.2 23.5 227.4 20.9 227.4 C 18.5 227.4 17.3 230.2 17.3 233.1 C 17.3 236.1 18.5 238.8 20.9 238.8 C 23.5 238.8 24.6 236.1 24.6 233.1 Z M 29.8 240.4 L 29.8 220.4 L 31.9 220.4 L 31.9 240.4 L 29.8 240.4 Z M 35.2 244.1 C 35.4 244.3 35.9 244.3 36.1 244.3 C 37 244.3 37.4 244 37.8 242.9 C 37.83 242.9 38.6 240.7 38.6 240.7 L 33.8 225.9 L 36.1 225.9 L 39.7 237.8 L 43.3 225.9 L 45.7 225.9 C 45.7 225.9 39.87 243.44 39.9 243.4 C 39.1 245.5 38 246.3 36.3 246.3 C 35.8 246.3 35.2 246.2 34.8 246 C 34.8 246 35.2 244.1 35.2 244.1 Z M 49.6 238.3 C 49.65 238.28 49.6 245.9 49.6 245.9 L 47.5 245.9 L 47.5 225.9 L 49.6 225.9 C 49.6 225.9 49.65 227.96 49.6 228 C 50.5 226.5 51.9 225.5 53.5 225.5 C 56.7 225.5 58.6 228.6 58.6 233.1 C 58.6 237.6 56.7 240.7 53.5 240.7 C 52 240.7 50.5 239.9 49.6 238.3 Z M 56.4 233.1 C 56.4 230 55.3 227.4 52.9 227.4 C 51.6 227.4 50.2 228.5 49.6 229.8 C 49.6 229.8 49.6 236.4 49.6 236.4 C 50.2 237.7 51.6 238.8 52.9 238.8 C 55.3 238.8 56.4 236.3 56.4 233.1 Z M 61.6 240.4 L 61.6 225.9 L 63.7 225.9 C 63.7 225.9 63.69 228.2 63.7 228.2 C 64.6 226.7 66 225.6 67.8 225.6 C 67.8 225.6 67.8 227.8 67.8 227.8 C 67.6 227.7 67.3 227.7 67.1 227.7 C 65.8 227.7 64.3 228.9 63.7 230.1 C 63.69 230.09 63.7 240.4 63.7 240.4 L 61.6 240.4 Z M 69.3 233.1 C 69.3 229 71.3 225.5 75.1 225.5 C 79 225.5 81.1 229 81.1 233.1 C 81.1 237.2 79 240.7 75.1 240.7 C 71.3 240.7 69.3 237.2 69.3 233.1 Z M 78.8 233.1 C 78.8 230.2 77.7 227.4 75.1 227.4 C 72.7 227.4 71.5 230.2 71.5 233.1 C 71.5 236.1 72.7 238.8 75.1 238.8 C 77.7 238.8 78.8 236.1 78.8 233.1 Z M 86.1 238.3 C 86.13 238.28 86.1 245.9 86.1 245.9 L 84 245.9 L 84 225.9 L 86.1 225.9 C 86.1 225.9 86.13 227.96 86.1 228 C 87 226.5 88.4 225.5 89.9 225.5 C 93.2 225.5 95.1 228.6 95.1 233.1 C 95.1 237.6 93.2 240.7 89.9 240.7 C 88.5 240.7 87 239.9 86.1 238.3 Z M 92.9 233.1 C 92.9 230 91.8 227.4 89.4 227.4 C 88 227.4 86.7 228.5 86.1 229.8 C 86.1 229.8 86.1 236.4 86.1 236.4 C 86.7 237.7 88 238.8 89.4 238.8 C 91.8 238.8 92.9 236.3 92.9 233.1 Z M 97.6 244.1 C 97.9 244.3 98.3 244.3 98.6 244.3 C 99.4 244.3 99.9 244 100.3 242.9 C 100.29 242.9 101.1 240.7 101.1 240.7 L 96.2 225.9 L 98.6 225.9 L 102.2 237.8 L 105.8 225.9 L 108.1 225.9 C 108.1 225.9 102.33 243.44 102.3 243.4 C 101.6 245.5 100.4 246.3 98.7 246.3 C 98.3 246.3 97.6 246.2 97.3 246 C 97.3 246 97.6 244.1 97.6 244.1 Z M 110 240.4 L 110 220.4 L 112.1 220.4 L 112.1 240.4 L 110 240.4 Z M 115 233.1 C 115 228.9 117.3 225.5 120.9 225.5 C 124.7 225.5 126.7 228.9 126.7 233.2 C 126.66 233.18 126.7 233.8 126.7 233.8 C 126.7 233.8 117.27 233.84 117.3 233.8 C 117.4 236.7 118.9 238.9 121.4 238.9 C 122.7 238.9 124 238.3 124.9 237.2 C 124.9 237.2 126 238.4 126 238.4 C 124.9 239.9 123.2 240.7 121.3 240.7 C 117.4 240.7 115 237.6 115 233.1 Z M 120.9 227.3 C 118.3 227.3 117.3 230.1 117.3 232.2 C 117.3 232.2 124.5 232.2 124.5 232.2 C 124.5 230 123.5 227.3 120.9 227.3 Z M 137.3 240.4 C 137.3 240.4 137.34 230.06 137.3 230.1 C 137.3 228.1 136.5 227.4 135 227.4 C 133.6 227.4 132.3 228.6 131.6 229.8 C 131.64 229.76 131.6 240.4 131.6 240.4 L 129.5 240.4 L 129.5 225.9 L 131.6 225.9 C 131.6 225.9 131.64 227.96 131.6 228 C 132.5 226.7 134.1 225.5 135.8 225.5 C 138.3 225.5 139.5 226.8 139.5 229.5 C 139.5 229.46 139.5 240.4 139.5 240.4 L 137.3 240.4 Z M 142.4 233.1 C 142.4 228.9 144.7 225.5 148.3 225.5 C 152.1 225.5 154 228.9 154 233.2 C 154.05 233.18 154 233.8 154 233.8 C 154 233.8 144.66 233.84 144.7 233.8 C 144.7 236.7 146.2 238.9 148.8 238.9 C 150.1 238.9 151.4 238.3 152.3 237.2 C 152.3 237.2 153.4 238.4 153.4 238.4 C 152.2 239.9 150.6 240.7 148.6 240.7 C 144.8 240.7 142.4 237.6 142.4 233.1 Z M 148.3 227.3 C 145.7 227.3 144.7 230.1 144.7 232.2 C 144.7 232.2 151.9 232.2 151.9 232.2 C 151.9 230 150.9 227.3 148.3 227.3 Z M 157.6 244.2 C 157.6 244.2 156.5 243.3 156.5 243.3 C 157.5 242.6 158.3 241.5 158.4 240.5 C 158.4 240.5 158.2 240.5 158 240.5 C 157.2 240.5 156.6 239.9 156.6 239.1 C 156.6 238.2 157.3 237.5 158.2 237.5 C 159.1 237.5 160 238.3 160 239.7 C 160 241.5 158.9 243.2 157.6 244.2 Z M 173 240.4 L 173 222.5 L 168.2 222.5 L 168.2 220.4 L 180.1 220.4 L 180.1 222.5 L 175.3 222.5 L 175.3 240.4 L 173 240.4 Z M 179.3 233.1 C 179.3 229 181.4 225.5 185.2 225.5 C 189.1 225.5 191.1 229 191.1 233.1 C 191.1 237.2 189.1 240.7 185.2 240.7 C 181.4 240.7 179.3 237.2 179.3 233.1 Z M 188.9 233.1 C 188.9 230.2 187.8 227.4 185.2 227.4 C 182.7 227.4 181.6 230.2 181.6 233.1 C 181.6 236.1 182.7 238.8 185.2 238.8 C 187.8 238.8 188.9 236.1 188.9 233.1 Z M 193.3 233.1 C 193.3 229 195.4 225.5 199.2 225.5 C 203.1 225.5 205.1 229 205.1 233.1 C 205.1 237.2 203.1 240.7 199.2 240.7 C 195.4 240.7 193.3 237.2 193.3 233.1 Z M 202.9 233.1 C 202.9 230.2 201.8 227.4 199.2 227.4 C 196.7 227.4 195.6 230.2 195.6 233.1 C 195.6 236.1 196.7 238.8 199.2 238.8 C 201.8 238.8 202.9 236.1 202.9 233.1 Z M 208.5 237.5 C 208.5 237.47 208.5 227.8 208.5 227.8 L 206.6 227.8 L 206.6 225.9 L 208.5 225.9 L 208.5 221.9 L 210.7 221.9 L 210.7 225.9 L 213.1 225.9 L 213.1 227.8 L 210.7 227.8 C 210.7 227.8 210.66 237.08 210.7 237.1 C 210.7 238.2 211 238.8 211.8 238.8 C 212.4 238.8 212.8 238.6 213.1 238.2 C 213.1 238.2 213.7 239.9 213.7 239.9 C 213.2 240.4 212.5 240.7 211.4 240.7 C 209.4 240.7 208.5 239.6 208.5 237.5 Z M 223.5 240.4 C 223.5 240.4 223.53 230.03 223.5 230 C 223.5 228.1 222.6 227.4 221.2 227.4 C 219.8 227.4 218.5 228.6 217.8 229.8 C 217.8 229.76 217.8 240.4 217.8 240.4 L 215.7 240.4 L 215.7 220.4 L 217.8 220.4 C 217.8 220.4 217.8 227.96 217.8 228 C 218.6 226.7 220.3 225.5 222 225.5 C 224.5 225.5 225.7 226.8 225.7 229.4 C 225.66 229.4 225.7 240.4 225.7 240.4 L 223.5 240.4 Z M 234.7 238.8 C 237.1 238.8 238.2 236.3 238.2 233.1 C 238.2 230 237.1 227.4 234.7 227.4 C 233.4 227.4 232 228.6 231.4 229.8 C 231.4 229.8 231.4 236.5 231.4 236.5 C 232 237.7 233.4 238.8 234.7 238.8 Z M 229.3 240.4 L 229.3 220.4 L 231.4 220.4 C 231.4 220.4 231.45 227.99 231.4 228 C 232.3 226.4 233.8 225.5 235.3 225.5 C 238.5 225.5 240.4 228.6 240.4 233.1 C 240.4 237.7 238.5 240.7 235.3 240.7 C 233.7 240.7 232.3 239.8 231.4 238.3 C 231.45 238.31 231.4 240.4 231.4 240.4 L 229.3 240.4 Z M 243.4 240.4 L 243.4 225.9 L 245.5 225.9 C 245.5 225.9 245.55 228.2 245.5 228.2 C 246.5 226.7 247.9 225.6 249.7 225.6 C 249.7 225.6 249.7 227.8 249.7 227.8 C 249.4 227.7 249.2 227.7 248.9 227.7 C 247.6 227.7 246.1 228.9 245.5 230.1 C 245.55 230.09 245.5 240.4 245.5 240.4 L 243.4 240.4 Z M 259.7 240.4 C 259.7 240.4 259.67 238.37 259.7 238.4 C 258.8 239.6 257.3 240.7 255.5 240.7 C 253 240.7 251.8 239.5 251.8 236.9 C 251.84 236.87 251.8 225.9 251.8 225.9 L 254 225.9 C 254 225.9 253.97 236.24 254 236.2 C 254 238.2 254.9 238.8 256.3 238.8 C 257.7 238.8 259 237.8 259.7 236.6 C 259.67 236.57 259.7 225.9 259.7 225.9 L 261.8 225.9 L 261.8 240.4 L 259.7 240.4 Z M 264.3 238.7 C 264.3 238.7 265.4 237.2 265.4 237.2 C 266.2 238.2 267.6 239 269.2 239 C 270.9 239 272 238 272 236.7 C 272 233.3 264.7 234.4 264.7 229.4 C 264.7 227.3 266.5 225.5 269.4 225.5 C 271.3 225.5 272.8 226.3 273.8 227.4 C 273.8 227.4 272.8 228.9 272.8 228.9 C 272 227.9 270.8 227.3 269.4 227.3 C 267.8 227.3 266.8 228.2 266.8 229.4 C 266.8 232.5 274 231.4 274 236.6 C 274 239 272.2 240.7 269.2 240.7 C 267.2 240.7 265.5 240.1 264.3 238.7 Z M 284.7 240.4 C 284.7 240.4 284.66 230.03 284.7 230 C 284.7 228.1 283.8 227.4 282.3 227.4 C 280.9 227.4 279.6 228.6 278.9 229.8 C 278.93 229.76 278.9 240.4 278.9 240.4 L 276.8 240.4 L 276.8 220.4 L 278.9 220.4 C 278.9 220.4 278.93 227.96 278.9 228 C 279.8 226.7 281.4 225.5 283.2 225.5 C 285.6 225.5 286.8 226.8 286.8 229.4 C 286.79 229.4 286.8 240.4 286.8 240.4 L 284.7 240.4 Z M 304.5 240.4 C 304.5 240.4 304.46 230.03 304.5 230 C 304.5 228.1 303.6 227.4 302.1 227.4 C 300.7 227.4 299.4 228.6 298.7 229.8 C 298.73 229.76 298.7 240.4 298.7 240.4 L 296.6 240.4 L 296.6 220.4 L 298.7 220.4 C 298.7 220.4 298.73 227.96 298.7 228 C 299.6 226.7 301.2 225.5 303 225.5 C 305.4 225.5 306.6 226.8 306.6 229.4 C 306.59 229.4 306.6 240.4 306.6 240.4 L 304.5 240.4 Z M 317.7 240.4 C 317.7 240.4 317.69 238.82 317.7 238.8 C 316.8 240.1 315.4 240.7 313.9 240.7 C 311.5 240.7 309.5 238.9 309.5 235.9 C 309.5 232.9 311.5 231.1 313.9 231.1 C 315.4 231.1 316.8 231.7 317.7 233 C 317.7 233 317.7 230.5 317.7 230.5 C 317.7 228.5 316.6 227.4 314.7 227.4 C 313.4 227.4 312.2 227.9 311.1 229.2 C 311.1 229.2 310.1 227.6 310.1 227.6 C 311.5 226.2 313.2 225.5 315.1 225.5 C 317.9 225.5 319.9 226.9 319.9 230.2 C 319.85 230.24 319.9 240.4 319.9 240.4 L 317.7 240.4 Z M 317.7 237.3 C 317.7 237.3 317.7 234.6 317.7 234.6 C 317 233.4 315.8 232.7 314.6 232.7 C 312.8 232.7 311.7 234.1 311.7 235.9 C 311.7 237.7 312.8 239.2 314.6 239.2 C 315.8 239.2 317 238.5 317.7 237.3 Z M 331.3 240.4 C 331.3 240.4 331.31 230.06 331.3 230.1 C 331.3 228.1 330.4 227.4 329 227.4 C 327.6 227.4 326.3 228.6 325.6 229.8 C 325.61 229.76 325.6 240.4 325.6 240.4 L 323.5 240.4 L 323.5 225.9 L 325.6 225.9 C 325.6 225.9 325.61 227.96 325.6 228 C 326.5 226.7 328.1 225.5 329.8 225.5 C 332.3 225.5 333.5 226.8 333.5 229.5 C 333.47 229.46 333.5 240.4 333.5 240.4 L 331.3 240.4 Z M 345.4 240.4 C 345.4 240.4 345.41 238.31 345.4 238.3 C 344.6 239.8 343.1 240.7 341.6 240.7 C 338.4 240.7 336.4 237.7 336.4 233.1 C 336.4 228.6 338.3 225.5 341.6 225.5 C 343.1 225.5 344.5 226.4 345.4 228 C 345.41 227.99 345.4 220.4 345.4 220.4 L 347.6 220.4 L 347.6 240.4 L 345.4 240.4 Z M 345.4 236.5 C 345.4 236.5 345.4 229.8 345.4 229.8 C 344.9 228.6 343.5 227.4 342.1 227.4 C 339.8 227.4 338.7 230 338.7 233.1 C 338.7 236.3 339.8 238.8 342.1 238.8 C 343.5 238.8 344.9 237.7 345.4 236.5 Z M 351.2 240.4 L 351.2 220.4 L 353.4 220.4 L 353.4 240.4 L 351.2 240.4 Z M 356.3 233.1 C 356.3 228.9 358.5 225.5 362.2 225.5 C 366 225.5 367.9 228.9 367.9 233.2 C 367.91 233.18 367.9 233.8 367.9 233.8 C 367.9 233.8 358.52 233.84 358.5 233.8 C 358.6 236.7 360.1 238.9 362.7 238.9 C 364 238.9 365.2 238.3 366.1 237.2 C 366.1 237.2 367.3 238.4 367.3 238.4 C 366.1 239.9 364.5 240.7 362.5 240.7 C 358.6 240.7 356.3 237.6 356.3 233.1 Z M 362.2 227.3 C 359.6 227.3 358.6 230.1 358.5 232.2 C 358.5 232.2 365.8 232.2 365.8 232.2 C 365.8 230 364.8 227.3 362.2 227.3 Z " stroke="none" fill="#d3d2d2"/>  </g>  <g id="Polygon214478">    <path d="M 2.1 204.4 L 2.1 184.4 L 12.4 184.4 L 12.4 186.5 L 4.5 186.5 L 4.5 193.1 L 12.2 193.1 L 12.2 195.2 L 4.5 195.2 L 4.5 202.2 L 12.4 202.2 L 12.4 204.4 L 2.1 204.4 Z M 22.9 204.4 L 19.6 198.6 L 16.3 204.4 L 13.9 204.4 L 18.3 197 L 14.1 189.9 L 16.5 189.9 L 19.6 195.4 L 22.7 189.9 L 25.1 189.9 L 20.9 197 L 25.3 204.4 L 22.9 204.4 Z M 27.8 201.5 C 27.81 201.47 27.8 191.8 27.8 191.8 L 25.9 191.8 L 25.9 189.9 L 27.8 189.9 L 27.8 185.9 L 30 185.9 L 30 189.9 L 32.4 189.9 L 32.4 191.8 L 30 191.8 C 30 191.8 29.97 201.08 30 201.1 C 30 202.2 30.3 202.8 31.1 202.8 C 31.7 202.8 32.1 202.6 32.4 202.2 C 32.4 202.2 33.1 203.9 33.1 203.9 C 32.5 204.4 31.8 204.7 30.7 204.7 C 28.7 204.7 27.8 203.6 27.8 201.5 Z M 35 204.4 L 35 189.9 L 37.1 189.9 C 37.1 189.9 37.11 192.2 37.1 192.2 C 38 190.7 39.4 189.6 41.2 189.6 C 41.2 189.6 41.2 191.8 41.2 191.8 C 41 191.7 40.7 191.7 40.5 191.7 C 39.2 191.7 37.7 192.9 37.1 194.1 C 37.11 194.09 37.1 204.4 37.1 204.4 L 35 204.4 Z M 51.2 204.4 C 51.2 204.4 51.24 202.37 51.2 202.4 C 50.4 203.6 48.8 204.7 47 204.7 C 44.6 204.7 43.4 203.5 43.4 200.9 C 43.41 200.87 43.4 189.9 43.4 189.9 L 45.5 189.9 C 45.5 189.9 45.54 200.24 45.5 200.2 C 45.5 202.2 46.4 202.8 47.8 202.8 C 49.3 202.8 50.6 201.8 51.2 200.6 C 51.24 200.57 51.2 189.9 51.2 189.9 L 53.4 189.9 L 53.4 204.4 L 51.2 204.4 Z M 65.3 204.4 C 65.3 204.4 65.34 202.31 65.3 202.3 C 64.5 203.8 63.1 204.7 61.5 204.7 C 58.3 204.7 56.3 201.7 56.3 197.1 C 56.3 192.6 58.3 189.5 61.5 189.5 C 63 189.5 64.5 190.4 65.3 192 C 65.34 191.99 65.3 184.4 65.3 184.4 L 67.5 184.4 L 67.5 204.4 L 65.3 204.4 Z M 65.3 200.5 C 65.3 200.5 65.3 193.8 65.3 193.8 C 64.8 192.6 63.4 191.4 62.1 191.4 C 59.7 191.4 58.6 194 58.6 197.1 C 58.6 200.3 59.7 202.8 62.1 202.8 C 63.4 202.8 64.8 201.7 65.3 200.5 Z M 70.4 197.1 C 70.4 192.9 72.7 189.5 76.3 189.5 C 80.1 189.5 82 192.9 82 197.2 C 82.05 197.18 82 197.8 82 197.8 C 82 197.8 72.66 197.84 72.7 197.8 C 72.7 200.7 74.2 202.9 76.8 202.9 C 78.1 202.9 79.4 202.3 80.3 201.2 C 80.3 201.2 81.4 202.4 81.4 202.4 C 80.2 203.9 78.6 204.7 76.6 204.7 C 72.8 204.7 70.4 201.6 70.4 197.1 Z M 76.3 191.3 C 73.7 191.3 72.7 194.1 72.7 196.2 C 72.7 196.2 79.9 196.2 79.9 196.2 C 79.9 194 78.9 191.3 76.3 191.3 Z M 93.2 204.4 C 93.2 204.4 93.18 202.31 93.2 202.3 C 92.3 203.8 90.9 204.7 89.4 204.7 C 86.1 204.7 84.2 201.7 84.2 197.1 C 84.2 192.6 86.1 189.5 89.4 189.5 C 90.8 189.5 92.3 190.4 93.2 192 C 93.18 191.99 93.2 184.4 93.2 184.4 L 95.3 184.4 L 95.3 204.4 L 93.2 204.4 Z M 93.2 200.5 C 93.2 200.5 93.2 193.8 93.2 193.8 C 92.6 192.6 91.3 191.4 89.9 191.4 C 87.5 191.4 86.4 194 86.4 197.1 C 86.4 200.3 87.5 202.8 89.9 202.8 C 91.3 202.8 92.6 201.7 93.2 200.5 Z M 107.3 202.3 C 107.28 202.28 107.3 209.9 107.3 209.9 L 105.1 209.9 L 105.1 189.9 L 107.3 189.9 C 107.3 189.9 107.28 191.96 107.3 192 C 108.1 190.5 109.6 189.5 111.1 189.5 C 114.4 189.5 116.3 192.6 116.3 197.1 C 116.3 201.6 114.4 204.7 111.1 204.7 C 109.6 204.7 108.2 203.9 107.3 202.3 Z M 114 197.1 C 114 194 112.9 191.4 110.5 191.4 C 109.2 191.4 107.8 192.5 107.3 193.8 C 107.3 193.8 107.3 200.4 107.3 200.4 C 107.8 201.7 109.2 202.8 110.5 202.8 C 112.9 202.8 114 200.3 114 197.1 Z M 118.5 197.1 C 118.5 193 120.5 189.5 124.3 189.5 C 128.2 189.5 130.3 193 130.3 197.1 C 130.3 201.2 128.2 204.7 124.3 204.7 C 120.5 204.7 118.5 201.2 118.5 197.1 Z M 128 197.1 C 128 194.2 126.9 191.4 124.3 191.4 C 121.9 191.4 120.7 194.2 120.7 197.1 C 120.7 200.1 121.9 202.8 124.3 202.8 C 126.9 202.8 128 200.1 128 197.1 Z M 133.2 204.4 L 133.2 184.4 L 135.3 184.4 L 135.3 204.4 L 133.2 204.4 Z M 138.6 208.1 C 138.8 208.3 139.3 208.3 139.5 208.3 C 140.4 208.3 140.8 208 141.2 206.9 C 141.24 206.9 142 204.7 142 204.7 L 137.2 189.9 L 139.5 189.9 L 143.1 201.8 L 146.8 189.9 L 149.1 189.9 C 149.1 189.9 143.28 207.44 143.3 207.4 C 142.6 209.5 141.4 210.3 139.7 210.3 C 139.2 210.3 138.6 210.2 138.2 210 C 138.2 210 138.6 208.1 138.6 208.1 Z M 149.8 202.7 C 149.8 202.7 150.8 201.2 150.8 201.2 C 151.7 202.2 153.1 203 154.6 203 C 156.3 203 157.4 202 157.4 200.7 C 157.4 197.3 150.2 198.4 150.2 193.4 C 150.2 191.3 151.9 189.5 154.8 189.5 C 156.7 189.5 158.2 190.3 159.2 191.4 C 159.2 191.4 158.2 192.9 158.2 192.9 C 157.5 191.9 156.2 191.3 154.8 191.3 C 153.2 191.3 152.2 192.2 152.2 193.4 C 152.2 196.5 159.5 195.4 159.5 200.6 C 159.5 203 157.6 204.7 154.6 204.7 C 152.6 204.7 151 204.1 149.8 202.7 Z M 162.7 201.5 C 162.66 201.47 162.7 191.8 162.7 191.8 L 160.7 191.8 L 160.7 189.9 L 162.7 189.9 L 162.7 185.9 L 164.8 185.9 L 164.8 189.9 L 167.3 189.9 L 167.3 191.8 L 164.8 191.8 C 164.8 191.8 164.82 201.08 164.8 201.1 C 164.8 202.2 165.1 202.8 166 202.8 C 166.5 202.8 167 202.6 167.2 202.2 C 167.2 202.2 167.9 203.9 167.9 203.9 C 167.4 204.4 166.7 204.7 165.6 204.7 C 163.6 204.7 162.7 203.6 162.7 201.5 Z M 169.4 208.1 C 169.7 208.3 170.1 208.3 170.4 208.3 C 171.2 208.3 171.7 208 172.1 206.9 C 172.08 206.9 172.9 204.7 172.9 204.7 L 168 189.9 L 170.4 189.9 L 174 201.8 L 177.6 189.9 L 179.9 189.9 C 179.9 189.9 174.12 207.44 174.1 207.4 C 173.4 209.5 172.2 210.3 170.5 210.3 C 170.1 210.3 169.4 210.2 169.1 210 C 169.1 210 169.4 208.1 169.4 208.1 Z M 181.8 204.4 L 181.8 189.9 L 183.9 189.9 C 183.9 189.9 183.9 192.2 183.9 192.2 C 184.8 190.7 186.2 189.6 188 189.6 C 188 189.6 188 191.8 188 191.8 C 187.8 191.7 187.5 191.7 187.3 191.7 C 186 191.7 184.5 192.9 183.9 194.1 C 183.9 194.09 183.9 204.4 183.9 204.4 L 181.8 204.4 Z M 189.5 197.1 C 189.5 192.9 191.7 189.5 195.4 189.5 C 199.2 189.5 201.1 192.9 201.1 197.2 C 201.09 197.18 201.1 197.8 201.1 197.8 C 201.1 197.8 191.7 197.84 191.7 197.8 C 191.8 200.7 193.3 202.9 195.9 202.9 C 197.1 202.9 198.4 202.3 199.3 201.2 C 199.3 201.2 200.5 202.4 200.5 202.4 C 199.3 203.9 197.6 204.7 195.7 204.7 C 191.8 204.7 189.5 201.6 189.5 197.1 Z M 195.3 191.3 C 192.8 191.3 191.8 194.1 191.7 196.2 C 191.7 196.2 199 196.2 199 196.2 C 198.9 194 198 191.3 195.3 191.3 Z M 211.8 204.4 C 211.8 204.4 211.77 194.06 211.8 194.1 C 211.8 192.1 210.9 191.4 209.5 191.4 C 208 191.4 206.7 192.6 206.1 193.8 C 206.07 193.76 206.1 204.4 206.1 204.4 L 203.9 204.4 L 203.9 189.9 L 206.1 189.9 C 206.1 189.9 206.07 191.96 206.1 192 C 206.9 190.7 208.5 189.5 210.3 189.5 C 212.7 189.5 213.9 190.8 213.9 193.5 C 213.93 193.46 213.9 204.4 213.9 204.4 L 211.8 204.4 Z M 216.9 197.1 C 216.9 192.9 219.1 189.5 222.7 189.5 C 226.6 189.5 228.5 192.9 228.5 197.2 C 228.47 197.18 228.5 197.8 228.5 197.8 C 228.5 197.8 219.08 197.84 219.1 197.8 C 219.2 200.7 220.7 202.9 223.3 202.9 C 224.5 202.9 225.8 202.3 226.7 201.2 C 226.7 201.2 227.8 202.4 227.8 202.4 C 226.7 203.9 225 204.7 223.1 204.7 C 219.2 204.7 216.9 201.6 216.9 197.1 Z M 222.7 191.3 C 220.2 191.3 219.1 194.1 219.1 196.2 C 219.1 196.2 226.3 196.2 226.3 196.2 C 226.3 194 225.4 191.3 222.7 191.3 Z " stroke="none" fill="#d3d2d2"/>  </g>  <g id="Polygon214477">    <path d="M 1.4 158.4 C 1.4 152.4 4.4 148 9.2 148 C 12.2 148 13.9 149.9 15 151.9 C 15 151.9 13 152.9 13 152.9 C 12.2 151.2 10.9 150.2 9.2 150.2 C 5.9 150.2 3.9 153.6 3.9 158.4 C 3.9 163.1 5.9 166.6 9.2 166.6 C 11 166.6 12.3 165.3 13.1 163.6 C 13.1 163.6 15.1 164.6 15.1 164.6 C 14 166.8 12.3 168.7 9.2 168.7 C 4.4 168.7 1.4 164.4 1.4 158.4 Z M 16.9 161.1 C 16.9 156.9 19.2 153.5 22.8 153.5 C 26.6 153.5 28.6 156.9 28.6 161.2 C 28.56 161.18 28.6 161.8 28.6 161.8 C 28.6 161.8 19.17 161.84 19.2 161.8 C 19.3 164.7 20.8 166.9 23.3 166.9 C 24.6 166.9 25.9 166.3 26.8 165.2 C 26.8 165.2 27.9 166.4 27.9 166.4 C 26.8 167.9 25.1 168.7 23.2 168.7 C 19.3 168.7 16.9 165.6 16.9 161.1 Z M 22.8 155.3 C 20.2 155.3 19.2 158.1 19.2 160.2 C 19.2 160.2 26.4 160.2 26.4 160.2 C 26.4 158 25.4 155.3 22.8 155.3 Z M 31.4 168.4 L 31.4 148.4 L 33.5 148.4 L 33.5 168.4 L 31.4 168.4 Z M 37.2 168.4 L 37.2 148.4 L 39.3 148.4 L 39.3 168.4 L 37.2 168.4 Z M 50.8 168.4 C 50.8 168.4 50.82 166.37 50.8 166.4 C 49.9 167.6 48.4 168.7 46.6 168.7 C 44.2 168.7 43 167.5 43 164.9 C 42.99 164.87 43 153.9 43 153.9 L 45.1 153.9 C 45.1 153.9 45.12 164.24 45.1 164.2 C 45.1 166.2 46 166.8 47.4 166.8 C 48.9 166.8 50.2 165.8 50.8 164.6 C 50.82 164.57 50.8 153.9 50.8 153.9 L 53 153.9 L 53 168.4 L 50.8 168.4 Z M 56.6 168.4 L 56.6 148.4 L 58.8 148.4 L 58.8 168.4 L 56.6 168.4 Z M 61.7 161.1 C 61.7 157 63.7 153.5 67.6 153.5 C 71.5 153.5 73.5 157 73.5 161.1 C 73.5 165.2 71.5 168.7 67.6 168.7 C 63.7 168.7 61.7 165.2 61.7 161.1 Z M 71.2 161.1 C 71.2 158.2 70.1 155.4 67.6 155.4 C 65.1 155.4 64 158.2 64 161.1 C 64 164.1 65.1 166.8 67.6 166.8 C 70.1 166.8 71.2 164.1 71.2 161.1 Z M 75.3 166.7 C 75.3 166.7 76.3 165.2 76.3 165.2 C 77.2 166.2 78.6 167 80.1 167 C 81.8 167 82.9 166 82.9 164.7 C 82.9 161.3 75.7 162.4 75.7 157.4 C 75.7 155.3 77.4 153.5 80.3 153.5 C 82.2 153.5 83.7 154.3 84.7 155.4 C 84.7 155.4 83.7 156.9 83.7 156.9 C 83 155.9 81.7 155.3 80.3 155.3 C 78.7 155.3 77.8 156.2 77.8 157.4 C 77.8 160.5 85 159.4 85 164.6 C 85 167 83.1 168.7 80.2 168.7 C 78.1 168.7 76.5 168.1 75.3 166.7 Z M 87 161.1 C 87 156.9 89.2 153.5 92.9 153.5 C 96.7 153.5 98.6 156.9 98.6 161.2 C 98.64 161.18 98.6 161.8 98.6 161.8 C 98.6 161.8 89.25 161.84 89.2 161.8 C 89.3 164.7 90.8 166.9 93.4 166.9 C 94.7 166.9 96 166.3 96.9 165.2 C 96.9 165.2 98 166.4 98 166.4 C 96.8 167.9 95.2 168.7 93.2 168.7 C 89.4 168.7 87 165.6 87 161.1 Z M 92.9 155.3 C 90.3 155.3 89.3 158.1 89.2 160.2 C 89.2 160.2 96.5 160.2 96.5 160.2 C 96.5 158 95.5 155.3 92.9 155.3 Z M 102.2 172.2 C 102.2 172.2 101.1 171.3 101.1 171.3 C 102.1 170.6 102.9 169.5 103 168.5 C 103 168.5 102.7 168.5 102.6 168.5 C 101.8 168.5 101.2 167.9 101.2 167.1 C 101.2 166.2 101.9 165.5 102.8 165.5 C 103.7 165.5 104.6 166.3 104.6 167.7 C 104.6 169.5 103.5 171.2 102.2 172.2 Z M 114.2 168.4 L 114.2 148.4 C 114.2 148.4 120.27 148.37 120.3 148.4 C 123.9 148.4 125.8 151.1 125.8 154.4 C 125.8 157.6 123.9 160.4 120.3 160.4 C 120.27 160.37 116.6 160.4 116.6 160.4 L 116.6 168.4 L 114.2 168.4 Z M 123.3 154.4 C 123.3 152.1 122.1 150.5 120 150.5 C 120.03 150.47 116.6 150.5 116.6 150.5 L 116.6 158.3 C 116.6 158.3 120.03 158.27 120 158.3 C 122.1 158.3 123.3 156.6 123.3 154.4 Z M 135.2 168.4 C 135.2 168.4 135.24 166.82 135.2 166.8 C 134.3 168.1 132.9 168.7 131.4 168.7 C 129.1 168.7 127 166.9 127 163.9 C 127 160.9 129.1 159.1 131.4 159.1 C 132.9 159.1 134.3 159.7 135.2 161 C 135.2 161 135.2 158.5 135.2 158.5 C 135.2 156.5 134.2 155.4 132.3 155.4 C 130.9 155.4 129.7 155.9 128.6 157.2 C 128.6 157.2 127.7 155.6 127.7 155.6 C 129.1 154.2 130.8 153.5 132.6 153.5 C 135.5 153.5 137.4 154.9 137.4 158.2 C 137.4 158.24 137.4 168.4 137.4 168.4 L 135.2 168.4 Z M 135.2 165.3 C 135.2 165.3 135.2 162.6 135.2 162.6 C 134.6 161.4 133.4 160.7 132.1 160.7 C 130.3 160.7 129.2 162.1 129.2 163.9 C 129.2 165.7 130.3 167.2 132.1 167.2 C 133.4 167.2 134.6 166.5 135.2 165.3 Z M 143.2 166.3 C 143.16 166.28 143.2 173.9 143.2 173.9 L 141 173.9 L 141 153.9 L 143.2 153.9 C 143.2 153.9 143.16 155.96 143.2 156 C 144 154.5 145.4 153.5 147 153.5 C 150.2 153.5 152.2 156.6 152.2 161.1 C 152.2 165.6 150.2 168.7 147 168.7 C 145.5 168.7 144.1 167.9 143.2 166.3 Z M 149.9 161.1 C 149.9 158 148.8 155.4 146.4 155.4 C 145.1 155.4 143.7 156.5 143.2 157.8 C 143.2 157.8 143.2 164.4 143.2 164.4 C 143.7 165.7 145.1 166.8 146.4 166.8 C 148.8 166.8 149.9 164.3 149.9 161.1 Z M 154.3 161.1 C 154.3 156.9 156.6 153.5 160.2 153.5 C 164 153.5 166 156.9 166 161.2 C 165.96 161.18 166 161.8 166 161.8 C 166 161.8 156.57 161.84 156.6 161.8 C 156.7 164.7 158.2 166.9 160.7 166.9 C 162 166.9 163.3 166.3 164.2 165.2 C 164.2 165.2 165.3 166.4 165.3 166.4 C 164.2 167.9 162.5 168.7 160.6 168.7 C 156.7 168.7 154.3 165.6 154.3 161.1 Z M 160.2 155.3 C 157.6 155.3 156.6 158.1 156.6 160.2 C 156.6 160.2 163.8 160.2 163.8 160.2 C 163.8 158 162.8 155.3 160.2 155.3 Z M 168.8 168.4 L 168.8 153.9 L 170.9 153.9 C 170.9 153.9 170.94 156.2 170.9 156.2 C 171.9 154.7 173.3 153.6 175 153.6 C 175 153.6 175 155.8 175 155.8 C 174.8 155.7 174.6 155.7 174.3 155.7 C 173 155.7 171.5 156.9 170.9 158.1 C 170.94 158.09 170.9 168.4 170.9 168.4 L 168.8 168.4 Z M 185.5 166.3 C 185.52 166.28 185.5 173.9 185.5 173.9 L 183.4 173.9 L 183.4 153.9 L 185.5 153.9 C 185.5 153.9 185.52 155.96 185.5 156 C 186.4 154.5 187.8 153.5 189.3 153.5 C 192.6 153.5 194.5 156.6 194.5 161.1 C 194.5 165.6 192.6 168.7 189.3 168.7 C 187.9 168.7 186.4 167.9 185.5 166.3 Z M 192.3 161.1 C 192.3 158 191.2 155.4 188.8 155.4 C 187.4 155.4 186.1 156.5 185.5 157.8 C 185.5 157.8 185.5 164.4 185.5 164.4 C 186.1 165.7 187.4 166.8 188.8 166.8 C 191.2 166.8 192.3 164.3 192.3 161.1 Z M 205.3 168.4 C 205.3 168.4 205.26 166.37 205.3 166.4 C 204.4 167.6 202.9 168.7 201.1 168.7 C 198.6 168.7 197.4 167.5 197.4 164.9 C 197.43 164.87 197.4 153.9 197.4 153.9 L 199.6 153.9 C 199.6 153.9 199.56 164.24 199.6 164.2 C 199.6 166.2 200.5 166.8 201.9 166.8 C 203.3 166.8 204.6 165.8 205.3 164.6 C 205.26 164.57 205.3 153.9 205.3 153.9 L 207.4 153.9 L 207.4 168.4 L 205.3 168.4 Z M 211.1 168.4 L 211.1 148.4 L 213.2 148.4 L 213.2 168.4 L 211.1 168.4 Z M 219 166.3 C 219 166.28 219 173.9 219 173.9 L 216.9 173.9 L 216.9 153.9 L 219 153.9 C 219 153.9 219 155.96 219 156 C 219.8 154.5 221.3 153.5 222.8 153.5 C 226.1 153.5 228 156.6 228 161.1 C 228 165.6 226.1 168.7 222.8 168.7 C 221.3 168.7 219.9 167.9 219 166.3 Z M 225.7 161.1 C 225.7 158 224.6 155.4 222.3 155.4 C 220.9 155.4 219.6 156.5 219 157.8 C 219 157.8 219 164.4 219 164.4 C 219.6 165.7 220.9 166.8 222.3 166.8 C 224.6 166.8 225.7 164.3 225.7 161.1 Z " stroke="none" fill="#d3d2d2"/>  </g>  <g id="Polygon214476">    <path d="M 2.1 132.4 L 2.1 112.4 C 2.1 112.4 8.73 112.37 8.7 112.4 C 11.9 112.4 13.7 114.4 13.7 117.5 C 13.7 120 12.4 121.6 10.6 122.1 C 12.6 122.4 14 124.6 14 127 C 14 130.2 12.3 132.4 8.9 132.4 C 8.91 132.38 2.1 132.4 2.1 132.4 Z M 11.2 117.8 C 11.2 115.9 10.3 114.5 8.3 114.5 C 8.28 114.47 4.5 114.5 4.5 114.5 L 4.5 121.1 C 4.5 121.1 8.28 121.1 8.3 121.1 C 10.3 121.1 11.2 119.7 11.2 117.8 Z M 11.6 126.7 C 11.6 124.8 10.6 123.2 8.4 123.2 C 8.43 123.2 4.5 123.2 4.5 123.2 L 4.5 130.2 C 4.5 130.2 8.43 130.25 8.4 130.2 C 10.5 130.2 11.6 128.9 11.6 126.7 Z M 24.6 132.4 C 24.6 132.4 24.6 130.82 24.6 130.8 C 23.7 132.1 22.3 132.7 20.8 132.7 C 18.4 132.7 16.4 130.9 16.4 127.9 C 16.4 124.9 18.4 123.1 20.8 123.1 C 22.3 123.1 23.7 123.7 24.6 125 C 24.6 125 24.6 122.5 24.6 122.5 C 24.6 120.5 23.5 119.4 21.6 119.4 C 20.3 119.4 19.1 119.9 18 121.2 C 18 121.2 17 119.6 17 119.6 C 18.4 118.2 20.1 117.5 22 117.5 C 24.8 117.5 26.8 118.9 26.8 122.2 C 26.76 122.24 26.8 132.4 26.8 132.4 L 24.6 132.4 Z M 24.6 129.3 C 24.6 129.3 24.6 126.6 24.6 126.6 C 23.9 125.4 22.7 124.7 21.5 124.7 C 19.7 124.7 18.6 126.1 18.6 127.9 C 18.6 129.7 19.7 131.2 21.5 131.2 C 22.7 131.2 23.9 130.5 24.6 129.3 Z M 30.4 132.4 L 30.4 117.9 L 32.5 117.9 C 32.5 117.9 32.52 120.2 32.5 120.2 C 33.4 118.7 34.9 117.6 36.6 117.6 C 36.6 117.6 36.6 119.8 36.6 119.8 C 36.4 119.7 36.1 119.7 35.9 119.7 C 34.6 119.7 33.1 120.9 32.5 122.1 C 32.52 122.09 32.5 132.4 32.5 132.4 L 30.4 132.4 Z M 43.9 130.2 C 43.9 130.2 45.2 128.4 45.2 128.4 C 46.2 129.6 47.9 130.6 49.8 130.6 C 52.3 130.6 53.5 129 53.5 127.3 C 53.5 122.5 44.5 123.7 44.5 117.3 C 44.5 114.2 46.9 112 50.2 112 C 52.4 112 54.2 112.8 55.5 114.1 C 55.5 114.1 54.3 115.9 54.3 115.9 C 53.2 114.7 51.7 114.2 50.1 114.2 C 48.3 114.2 46.9 115.4 46.9 117.2 C 46.9 121.4 55.9 120.5 55.9 127.2 C 55.9 130.1 54 132.7 49.8 132.7 C 47.2 132.7 45.2 131.7 43.9 130.2 Z M 58 125.1 C 58 121 60.1 117.5 63.9 117.5 C 67.8 117.5 69.8 121 69.8 125.1 C 69.8 129.2 67.8 132.7 63.9 132.7 C 60.1 132.7 58 129.2 58 125.1 Z M 67.6 125.1 C 67.6 122.2 66.5 119.4 63.9 119.4 C 61.4 119.4 60.3 122.2 60.3 125.1 C 60.3 128.1 61.4 130.8 63.9 130.8 C 66.5 130.8 67.6 128.1 67.6 125.1 Z M 80.2 132.4 C 80.2 132.4 80.22 130.82 80.2 130.8 C 79.3 132.1 77.9 132.7 76.4 132.7 C 74.1 132.7 72 130.9 72 127.9 C 72 124.9 74 123.1 76.4 123.1 C 77.9 123.1 79.3 123.7 80.2 125 C 80.2 125 80.2 122.5 80.2 122.5 C 80.2 120.5 79.1 119.4 77.2 119.4 C 75.9 119.4 74.7 119.9 73.6 121.2 C 73.6 121.2 72.7 119.6 72.7 119.6 C 74 118.2 75.7 117.5 77.6 117.5 C 80.5 117.5 82.4 118.9 82.4 122.2 C 82.38 122.24 82.4 132.4 82.4 132.4 L 80.2 132.4 Z M 80.2 129.3 C 80.2 129.3 80.2 126.6 80.2 126.6 C 79.6 125.4 78.4 124.7 77.1 124.7 C 75.3 124.7 74.2 126.1 74.2 127.9 C 74.2 129.7 75.3 131.2 77.1 131.2 C 78.4 131.2 79.6 130.5 80.2 129.3 Z M 88.1 130.3 C 88.14 130.28 88.1 137.9 88.1 137.9 L 86 137.9 L 86 117.9 L 88.1 117.9 C 88.1 117.9 88.14 119.96 88.1 120 C 89 118.5 90.4 117.5 91.9 117.5 C 95.2 117.5 97.1 120.6 97.1 125.1 C 97.1 129.6 95.2 132.7 91.9 132.7 C 90.5 132.7 89 131.9 88.1 130.3 Z M 94.9 125.1 C 94.9 122 93.8 119.4 91.4 119.4 C 90.1 119.4 88.7 120.5 88.1 121.8 C 88.1 121.8 88.1 128.4 88.1 128.4 C 88.7 129.7 90.1 130.8 91.4 130.8 C 93.8 130.8 94.9 128.3 94.9 125.1 Z " stroke="none" fill="#d3d2d2"/>  </g>  <g id="Polygon214475">    <path d="M 12.5 96.4 L 11.2 91.8 L 4.1 91.8 L 2.8 96.4 L 0.2 96.4 L 6.2 76.4 L 9.1 76.4 L 15.1 96.4 L 12.5 96.4 Z M 7.6 79 L 4.6 89.7 L 10.7 89.7 L 7.6 79 Z M 17 96.4 L 17 81.9 L 19.1 81.9 C 19.1 81.9 19.14 84.2 19.1 84.2 C 20.1 82.7 21.5 81.6 23.2 81.6 C 23.2 81.6 23.2 83.8 23.2 83.8 C 23 83.7 22.8 83.7 22.5 83.7 C 21.2 83.7 19.7 84.9 19.1 86.1 C 19.14 86.09 19.1 96.4 19.1 96.4 L 17 96.4 Z M 25.9 93.5 C 25.86 93.47 25.9 83.8 25.9 83.8 L 23.9 83.8 L 23.9 81.9 L 25.9 81.9 L 25.9 77.9 L 28 77.9 L 28 81.9 L 30.5 81.9 L 30.5 83.8 L 28 83.8 C 28 83.8 28.02 93.08 28 93.1 C 28 94.2 28.3 94.8 29.2 94.8 C 29.7 94.8 30.2 94.6 30.4 94.2 C 30.4 94.2 31.1 95.9 31.1 95.9 C 30.6 96.4 29.9 96.7 28.8 96.7 C 26.8 96.7 25.9 95.6 25.9 93.5 Z M 32.6 78.3 C 32.6 77.5 33.3 76.8 34.1 76.8 C 34.9 76.8 35.5 77.5 35.5 78.3 C 35.5 79.1 34.9 79.8 34.1 79.8 C 33.3 79.8 32.6 79.1 32.6 78.3 Z M 33 96.4 L 33 81.9 L 35.2 81.9 L 35.2 96.4 L 33 96.4 Z M 39.3 96.4 L 39.3 83.8 L 37.4 83.8 L 37.4 81.9 L 39.3 81.9 C 39.3 81.9 39.33 80.12 39.3 80.1 C 39.3 77.6 40.8 76.1 42.9 76.1 C 43.6 76.1 44.2 76.2 44.7 76.5 C 44.7 76.5 44.2 78.2 44.2 78.2 C 43.9 78 43.6 77.9 43.2 77.9 C 42.1 77.9 41.5 78.7 41.5 80.1 C 41.49 80.12 41.5 81.9 41.5 81.9 L 43.9 81.9 L 43.9 83.8 L 41.5 83.8 L 41.5 96.4 L 39.3 96.4 Z M 46 78.3 C 46 77.5 46.7 76.8 47.5 76.8 C 48.3 76.8 49 77.5 49 78.3 C 49 79.1 48.3 79.8 47.5 79.8 C 46.7 79.8 46 79.1 46 78.3 Z M 46.4 96.4 L 46.4 81.9 L 48.6 81.9 L 48.6 96.4 L 46.4 96.4 Z M 51.5 89.1 C 51.5 84.8 53.8 81.5 57.5 81.5 C 59.5 81.5 60.7 82.3 61.6 83.4 C 61.6 83.4 60.5 84.9 60.5 84.9 C 59.7 83.9 58.8 83.4 57.7 83.4 C 55.1 83.4 53.8 86 53.8 89.1 C 53.8 92.2 55.1 94.8 57.7 94.8 C 58.8 94.8 59.7 94.4 60.5 93.3 C 60.5 93.3 61.6 94.8 61.6 94.8 C 60.7 96 59.5 96.7 57.5 96.7 C 53.8 96.7 51.5 93.4 51.5 89.1 Z M 63.7 78.3 C 63.7 77.5 64.4 76.8 65.2 76.8 C 66 76.8 66.6 77.5 66.6 78.3 C 66.6 79.1 66 79.8 65.2 79.8 C 64.4 79.8 63.7 79.1 63.7 78.3 Z M 64.1 96.4 L 64.1 81.9 L 66.2 81.9 L 66.2 96.4 L 64.1 96.4 Z M 77.3 96.4 C 77.3 96.4 77.34 94.82 77.3 94.8 C 76.4 96.1 75 96.7 73.5 96.7 C 71.2 96.7 69.1 94.9 69.1 91.9 C 69.1 88.9 71.2 87.1 73.5 87.1 C 75 87.1 76.4 87.7 77.3 89 C 77.3 89 77.3 86.5 77.3 86.5 C 77.3 84.5 76.3 83.4 74.4 83.4 C 73 83.4 71.8 83.9 70.7 85.2 C 70.7 85.2 69.8 83.6 69.8 83.6 C 71.2 82.2 72.9 81.5 74.7 81.5 C 77.6 81.5 79.5 82.9 79.5 86.2 C 79.5 86.24 79.5 96.4 79.5 96.4 L 77.3 96.4 Z M 77.3 93.3 C 77.3 93.3 77.3 90.6 77.3 90.6 C 76.7 89.4 75.5 88.7 74.2 88.7 C 72.4 88.7 71.3 90.1 71.3 91.9 C 71.3 93.7 72.4 95.2 74.2 95.2 C 75.5 95.2 76.7 94.5 77.3 93.3 Z M 83.1 96.4 L 83.1 76.4 L 85.3 76.4 L 85.3 96.4 L 83.1 96.4 Z M 103.3 96.4 C 103.3 96.4 103.35 94.31 103.3 94.3 C 102.5 95.8 101.1 96.7 99.5 96.7 C 96.3 96.7 94.3 93.7 94.3 89.1 C 94.3 84.6 96.3 81.5 99.5 81.5 C 101 81.5 102.5 82.4 103.3 84 C 103.35 83.99 103.3 76.4 103.3 76.4 L 105.5 76.4 L 105.5 96.4 L 103.3 96.4 Z M 103.3 92.5 C 103.3 92.5 103.3 85.8 103.3 85.8 C 102.8 84.6 101.5 83.4 100.1 83.4 C 97.7 83.4 96.6 86 96.6 89.1 C 96.6 92.3 97.7 94.8 100.1 94.8 C 101.5 94.8 102.8 93.7 103.3 92.5 Z M 108.7 100.1 C 109 100.3 109.5 100.3 109.7 100.3 C 110.5 100.3 111 100 111.4 98.9 C 111.42 98.9 112.2 96.7 112.2 96.7 L 107.4 81.9 L 109.7 81.9 L 113.3 93.8 L 116.9 81.9 L 119.2 81.9 C 119.2 81.9 113.46 99.44 113.5 99.4 C 112.7 101.5 111.6 102.3 109.9 102.3 C 109.4 102.3 108.7 102.2 108.4 102 C 108.4 102 108.7 100.1 108.7 100.1 Z M 120.4 89.1 C 120.4 84.9 122.6 81.5 126.3 81.5 C 130.1 81.5 132 84.9 132 89.2 C 132 89.18 132 89.8 132 89.8 C 132 89.8 122.61 89.84 122.6 89.8 C 122.7 92.7 124.2 94.9 126.8 94.9 C 128 94.9 129.3 94.3 130.2 93.2 C 130.2 93.2 131.4 94.4 131.4 94.4 C 130.2 95.9 128.5 96.7 126.6 96.7 C 122.7 96.7 120.4 93.6 120.4 89.1 Z M 126.2 83.3 C 123.7 83.3 122.7 86.1 122.6 88.2 C 122.6 88.2 129.9 88.2 129.9 88.2 C 129.8 86 128.9 83.3 126.2 83.3 Z M 135.5 100.2 C 135.5 100.2 134.5 99.3 134.5 99.3 C 135.4 98.6 136.3 97.5 136.4 96.5 C 136.3 96.5 136.1 96.5 136 96.5 C 135.2 96.5 134.6 95.9 134.6 95.1 C 134.6 94.2 135.2 93.5 136.1 93.5 C 137.1 93.5 137.9 94.3 137.9 95.7 C 137.9 97.5 136.9 99.2 135.5 100.2 Z M 151.7 96.4 L 151.7 87.9 L 145.6 76.4 L 148.2 76.4 L 152.9 85.6 L 157.6 76.4 L 160.3 76.4 L 154.1 87.9 L 154.1 96.4 L 151.7 96.4 Z M 158.6 89.1 C 158.6 84.9 160.8 81.5 164.5 81.5 C 168.3 81.5 170.2 84.9 170.2 89.2 C 170.22 89.18 170.2 89.8 170.2 89.8 C 170.2 89.8 160.83 89.84 160.8 89.8 C 160.9 92.7 162.4 94.9 165 94.9 C 166.3 94.9 167.5 94.3 168.4 93.2 C 168.4 93.2 169.6 94.4 169.6 94.4 C 168.4 95.9 166.8 96.7 164.8 96.7 C 160.9 96.7 158.6 93.6 158.6 89.1 Z M 164.5 83.3 C 161.9 83.3 160.9 86.1 160.8 88.2 C 160.8 88.2 168.1 88.2 168.1 88.2 C 168.1 86 167.1 83.3 164.5 83.3 Z M 173.1 96.4 L 173.1 76.4 L 175.2 76.4 L 175.2 96.4 L 173.1 96.4 Z M 178.9 96.4 L 178.9 76.4 L 181 76.4 L 181 96.4 L 178.9 96.4 Z M 183.9 89.1 C 183.9 85 186 81.5 189.8 81.5 C 193.7 81.5 195.7 85 195.7 89.1 C 195.7 93.2 193.7 96.7 189.8 96.7 C 186 96.7 183.9 93.2 183.9 89.1 Z M 193.5 89.1 C 193.5 86.2 192.4 83.4 189.8 83.4 C 187.3 83.4 186.2 86.2 186.2 89.1 C 186.2 92.1 187.3 94.8 189.8 94.8 C 192.4 94.8 193.5 92.1 193.5 89.1 Z M 209.3 96.4 L 206.2 84.7 L 203.1 96.4 L 200.9 96.4 L 197.1 81.9 L 199.3 81.9 L 202.1 93.5 L 205.2 81.9 L 207.2 81.9 L 210.3 93.5 L 213.2 81.9 L 215.4 81.9 L 211.6 96.4 L 209.3 96.4 Z M 223.1 86.4 C 223.1 81 225 76.1 229.8 76.1 C 231.9 76.1 233.5 77.1 234.5 78.6 C 234.5 78.6 233.2 80.2 233.2 80.2 C 232.4 79 231.5 78.2 229.9 78.2 C 226.7 78.2 225.5 82.4 225.5 86.2 C 225.5 86.4 225.5 86.5 225.5 86.8 C 226.2 85.4 227.8 83.8 229.9 83.8 C 232.8 83.8 235.2 86 235.2 90.2 C 235.2 93.6 233.1 96.7 229.4 96.7 C 224.6 96.7 223.1 91.7 223.1 86.4 Z M 232.7 90.3 C 232.7 87.1 231.2 85.9 229.3 85.9 C 227.6 85.9 226.3 87.3 225.5 89 C 225.7 91.2 226.5 94.6 229.3 94.6 C 231.7 94.6 232.7 92.4 232.7 90.3 Z " stroke="none" fill="#d3d2d2"/>  </g>  <g id="Polygon214474">    <path d="M 12.5 60.4 L 11.2 55.8 L 4.1 55.8 L 2.8 60.4 L 0.2 60.4 L 6.2 40.4 L 9.1 40.4 L 15.1 60.4 L 12.5 60.4 Z M 7.6 43 L 4.6 53.7 L 10.7 53.7 L 7.6 43 Z M 17 60.4 L 17 45.9 L 19.1 45.9 C 19.1 45.9 19.14 48.2 19.1 48.2 C 20.1 46.7 21.5 45.6 23.2 45.6 C 23.2 45.6 23.2 47.8 23.2 47.8 C 23 47.7 22.8 47.7 22.5 47.7 C 21.2 47.7 19.7 48.9 19.1 50.1 C 19.14 50.09 19.1 60.4 19.1 60.4 L 17 60.4 Z M 25.9 57.5 C 25.86 57.47 25.9 47.8 25.9 47.8 L 23.9 47.8 L 23.9 45.9 L 25.9 45.9 L 25.9 41.9 L 28 41.9 L 28 45.9 L 30.5 45.9 L 30.5 47.8 L 28 47.8 C 28 47.8 28.02 57.08 28 57.1 C 28 58.2 28.3 58.8 29.2 58.8 C 29.7 58.8 30.2 58.6 30.4 58.2 C 30.4 58.2 31.1 59.9 31.1 59.9 C 30.6 60.4 29.9 60.7 28.8 60.7 C 26.8 60.7 25.9 59.6 25.9 57.5 Z M 32.6 42.3 C 32.6 41.5 33.3 40.8 34.1 40.8 C 34.9 40.8 35.5 41.5 35.5 42.3 C 35.5 43.1 34.9 43.8 34.1 43.8 C 33.3 43.8 32.6 43.1 32.6 42.3 Z M 33 60.4 L 33 45.9 L 35.2 45.9 L 35.2 60.4 L 33 60.4 Z M 39.3 60.4 L 39.3 47.8 L 37.4 47.8 L 37.4 45.9 L 39.3 45.9 C 39.3 45.9 39.33 44.12 39.3 44.1 C 39.3 41.6 40.8 40.1 42.9 40.1 C 43.6 40.1 44.2 40.2 44.7 40.5 C 44.7 40.5 44.2 42.2 44.2 42.2 C 43.9 42 43.6 41.9 43.2 41.9 C 42.1 41.9 41.5 42.7 41.5 44.1 C 41.49 44.12 41.5 45.9 41.5 45.9 L 43.9 45.9 L 43.9 47.8 L 41.5 47.8 L 41.5 60.4 L 39.3 60.4 Z M 46 42.3 C 46 41.5 46.7 40.8 47.5 40.8 C 48.3 40.8 49 41.5 49 42.3 C 49 43.1 48.3 43.8 47.5 43.8 C 46.7 43.8 46 43.1 46 42.3 Z M 46.4 60.4 L 46.4 45.9 L 48.6 45.9 L 48.6 60.4 L 46.4 60.4 Z M 51.5 53.1 C 51.5 48.8 53.8 45.5 57.5 45.5 C 59.5 45.5 60.7 46.3 61.6 47.4 C 61.6 47.4 60.5 48.9 60.5 48.9 C 59.7 47.9 58.8 47.4 57.7 47.4 C 55.1 47.4 53.8 50 53.8 53.1 C 53.8 56.2 55.1 58.8 57.7 58.8 C 58.8 58.8 59.7 58.4 60.5 57.3 C 60.5 57.3 61.6 58.8 61.6 58.8 C 60.7 60 59.5 60.7 57.5 60.7 C 53.8 60.7 51.5 57.4 51.5 53.1 Z M 63.7 42.3 C 63.7 41.5 64.4 40.8 65.2 40.8 C 66 40.8 66.6 41.5 66.6 42.3 C 66.6 43.1 66 43.8 65.2 43.8 C 64.4 43.8 63.7 43.1 63.7 42.3 Z M 64.1 60.4 L 64.1 45.9 L 66.2 45.9 L 66.2 60.4 L 64.1 60.4 Z M 77.3 60.4 C 77.3 60.4 77.34 58.82 77.3 58.8 C 76.4 60.1 75 60.7 73.5 60.7 C 71.2 60.7 69.1 58.9 69.1 55.9 C 69.1 52.9 71.2 51.1 73.5 51.1 C 75 51.1 76.4 51.7 77.3 53 C 77.3 53 77.3 50.5 77.3 50.5 C 77.3 48.5 76.3 47.4 74.4 47.4 C 73 47.4 71.8 47.9 70.7 49.2 C 70.7 49.2 69.8 47.6 69.8 47.6 C 71.2 46.2 72.9 45.5 74.7 45.5 C 77.6 45.5 79.5 46.9 79.5 50.2 C 79.5 50.24 79.5 60.4 79.5 60.4 L 77.3 60.4 Z M 77.3 57.3 C 77.3 57.3 77.3 54.6 77.3 54.6 C 76.7 53.4 75.5 52.7 74.2 52.7 C 72.4 52.7 71.3 54.1 71.3 55.9 C 71.3 57.7 72.4 59.2 74.2 59.2 C 75.5 59.2 76.7 58.5 77.3 57.3 Z M 83.1 60.4 L 83.1 40.4 L 85.3 40.4 L 85.3 60.4 L 83.1 60.4 Z M 103.3 60.4 C 103.3 60.4 103.35 58.31 103.3 58.3 C 102.5 59.8 101.1 60.7 99.5 60.7 C 96.3 60.7 94.3 57.7 94.3 53.1 C 94.3 48.6 96.3 45.5 99.5 45.5 C 101 45.5 102.5 46.4 103.3 48 C 103.35 47.99 103.3 40.4 103.3 40.4 L 105.5 40.4 L 105.5 60.4 L 103.3 60.4 Z M 103.3 56.5 C 103.3 56.5 103.3 49.8 103.3 49.8 C 102.8 48.6 101.5 47.4 100.1 47.4 C 97.7 47.4 96.6 50 96.6 53.1 C 96.6 56.3 97.7 58.8 100.1 58.8 C 101.5 58.8 102.8 57.7 103.3 56.5 Z M 108.7 64.1 C 109 64.3 109.5 64.3 109.7 64.3 C 110.5 64.3 111 64 111.4 62.9 C 111.42 62.9 112.2 60.7 112.2 60.7 L 107.4 45.9 L 109.7 45.9 L 113.3 57.8 L 116.9 45.9 L 119.2 45.9 C 119.2 45.9 113.46 63.44 113.5 63.4 C 112.7 65.5 111.6 66.3 109.9 66.3 C 109.4 66.3 108.7 66.2 108.4 66 C 108.4 66 108.7 64.1 108.7 64.1 Z M 120.4 53.1 C 120.4 48.9 122.6 45.5 126.3 45.5 C 130.1 45.5 132 48.9 132 53.2 C 132 53.18 132 53.8 132 53.8 C 132 53.8 122.61 53.84 122.6 53.8 C 122.7 56.7 124.2 58.9 126.8 58.9 C 128 58.9 129.3 58.3 130.2 57.2 C 130.2 57.2 131.4 58.4 131.4 58.4 C 130.2 59.9 128.5 60.7 126.6 60.7 C 122.7 60.7 120.4 57.6 120.4 53.1 Z M 126.2 47.3 C 123.7 47.3 122.7 50.1 122.6 52.2 C 122.6 52.2 129.9 52.2 129.9 52.2 C 129.8 50 128.9 47.3 126.2 47.3 Z M 135.5 64.2 C 135.5 64.2 134.5 63.3 134.5 63.3 C 135.4 62.6 136.3 61.5 136.4 60.5 C 136.3 60.5 136.1 60.5 136 60.5 C 135.2 60.5 134.6 59.9 134.6 59.1 C 134.6 58.2 135.2 57.5 136.1 57.5 C 137.1 57.5 137.9 58.3 137.9 59.7 C 137.9 61.5 136.9 63.2 135.5 64.2 Z M 151.7 60.4 L 151.7 51.9 L 145.6 40.4 L 148.2 40.4 L 152.9 49.6 L 157.6 40.4 L 160.3 40.4 L 154.1 51.9 L 154.1 60.4 L 151.7 60.4 Z M 158.6 53.1 C 158.6 48.9 160.8 45.5 164.5 45.5 C 168.3 45.5 170.2 48.9 170.2 53.2 C 170.22 53.18 170.2 53.8 170.2 53.8 C 170.2 53.8 160.83 53.84 160.8 53.8 C 160.9 56.7 162.4 58.9 165 58.9 C 166.3 58.9 167.5 58.3 168.4 57.2 C 168.4 57.2 169.6 58.4 169.6 58.4 C 168.4 59.9 166.8 60.7 164.8 60.7 C 160.9 60.7 158.6 57.6 158.6 53.1 Z M 164.5 47.3 C 161.9 47.3 160.9 50.1 160.8 52.2 C 160.8 52.2 168.1 52.2 168.1 52.2 C 168.1 50 167.1 47.3 164.5 47.3 Z M 173.1 60.4 L 173.1 40.4 L 175.2 40.4 L 175.2 60.4 L 173.1 60.4 Z M 178.9 60.4 L 178.9 40.4 L 181 40.4 L 181 60.4 L 178.9 60.4 Z M 183.9 53.1 C 183.9 49 186 45.5 189.8 45.5 C 193.7 45.5 195.7 49 195.7 53.1 C 195.7 57.2 193.7 60.7 189.8 60.7 C 186 60.7 183.9 57.2 183.9 53.1 Z M 193.5 53.1 C 193.5 50.2 192.4 47.4 189.8 47.4 C 187.3 47.4 186.2 50.2 186.2 53.1 C 186.2 56.1 187.3 58.8 189.8 58.8 C 192.4 58.8 193.5 56.1 193.5 53.1 Z M 209.3 60.4 L 206.2 48.7 L 203.1 60.4 L 200.9 60.4 L 197.1 45.9 L 199.3 45.9 L 202.1 57.5 L 205.2 45.9 L 207.2 45.9 L 210.3 57.5 L 213.2 45.9 L 215.4 45.9 L 211.6 60.4 L 209.3 60.4 Z M 223.2 57.5 C 223.2 57.5 224.8 56 224.8 56 C 225.8 57.7 227.1 58.6 229 58.6 C 231.2 58.6 232.6 56.6 232.6 54.3 C 232.6 51.4 231.3 49.8 229.2 49.8 C 227.8 49.8 226.7 50.4 225.6 51.7 C 225.56 51.71 223.8 51.1 223.8 51.1 L 223.8 40.4 L 234 40.4 L 234 42.5 L 226.2 42.5 C 226.2 42.5 226.16 49.49 226.2 49.5 C 226.9 48.5 228.3 47.7 229.9 47.7 C 232.7 47.7 235 50 235 54.2 C 235 58 232.6 60.7 229.1 60.7 C 226.2 60.7 224.5 59.5 223.2 57.5 Z " stroke="none" fill="#d3d2d2"/>  </g>  <g id="Polygon214473">    <path d="M 12.5 24.4 L 11.2 19.8 L 4.1 19.8 L 2.8 24.4 L 0.2 24.4 L 6.2 4.4 L 9.1 4.4 L 15.1 24.4 L 12.5 24.4 Z M 7.6 7 L 4.6 17.7 L 10.7 17.7 L 7.6 7 Z M 17 24.4 L 17 9.9 L 19.1 9.9 C 19.1 9.9 19.14 12.2 19.1 12.2 C 20.1 10.7 21.5 9.6 23.2 9.6 C 23.2 9.6 23.2 11.8 23.2 11.8 C 23 11.7 22.8 11.7 22.5 11.7 C 21.2 11.7 19.7 12.9 19.1 14.1 C 19.14 14.09 19.1 24.4 19.1 24.4 L 17 24.4 Z M 25.9 21.5 C 25.86 21.47 25.9 11.8 25.9 11.8 L 23.9 11.8 L 23.9 9.9 L 25.9 9.9 L 25.9 5.9 L 28 5.9 L 28 9.9 L 30.5 9.9 L 30.5 11.8 L 28 11.8 C 28 11.8 28.02 21.08 28 21.1 C 28 22.2 28.3 22.8 29.2 22.8 C 29.7 22.8 30.2 22.6 30.4 22.2 C 30.4 22.2 31.1 23.9 31.1 23.9 C 30.6 24.4 29.9 24.7 28.8 24.7 C 26.8 24.7 25.9 23.6 25.9 21.5 Z M 32.6 6.3 C 32.6 5.5 33.3 4.8 34.1 4.8 C 34.9 4.8 35.5 5.5 35.5 6.3 C 35.5 7.1 34.9 7.8 34.1 7.8 C 33.3 7.8 32.6 7.1 32.6 6.3 Z M 33 24.4 L 33 9.9 L 35.2 9.9 L 35.2 24.4 L 33 24.4 Z M 39.3 24.4 L 39.3 11.8 L 37.4 11.8 L 37.4 9.9 L 39.3 9.9 C 39.3 9.9 39.33 8.12 39.3 8.1 C 39.3 5.6 40.8 4.1 42.9 4.1 C 43.6 4.1 44.2 4.2 44.7 4.5 C 44.7 4.5 44.2 6.2 44.2 6.2 C 43.9 6 43.6 5.9 43.2 5.9 C 42.1 5.9 41.5 6.7 41.5 8.1 C 41.49 8.12 41.5 9.9 41.5 9.9 L 43.9 9.9 L 43.9 11.8 L 41.5 11.8 L 41.5 24.4 L 39.3 24.4 Z M 46 6.3 C 46 5.5 46.7 4.8 47.5 4.8 C 48.3 4.8 49 5.5 49 6.3 C 49 7.1 48.3 7.8 47.5 7.8 C 46.7 7.8 46 7.1 46 6.3 Z M 46.4 24.4 L 46.4 9.9 L 48.6 9.9 L 48.6 24.4 L 46.4 24.4 Z M 51.5 17.1 C 51.5 12.8 53.8 9.5 57.5 9.5 C 59.5 9.5 60.7 10.3 61.6 11.4 C 61.6 11.4 60.5 12.9 60.5 12.9 C 59.7 11.9 58.8 11.4 57.7 11.4 C 55.1 11.4 53.8 14 53.8 17.1 C 53.8 20.2 55.1 22.8 57.7 22.8 C 58.8 22.8 59.7 22.4 60.5 21.3 C 60.5 21.3 61.6 22.8 61.6 22.8 C 60.7 24 59.5 24.7 57.5 24.7 C 53.8 24.7 51.5 21.4 51.5 17.1 Z M 63.7 6.3 C 63.7 5.5 64.4 4.8 65.2 4.8 C 66 4.8 66.6 5.5 66.6 6.3 C 66.6 7.1 66 7.8 65.2 7.8 C 64.4 7.8 63.7 7.1 63.7 6.3 Z M 64.1 24.4 L 64.1 9.9 L 66.2 9.9 L 66.2 24.4 L 64.1 24.4 Z M 77.3 24.4 C 77.3 24.4 77.34 22.82 77.3 22.8 C 76.4 24.1 75 24.7 73.5 24.7 C 71.2 24.7 69.1 22.9 69.1 19.9 C 69.1 16.9 71.2 15.1 73.5 15.1 C 75 15.1 76.4 15.7 77.3 17 C 77.3 17 77.3 14.5 77.3 14.5 C 77.3 12.5 76.3 11.4 74.4 11.4 C 73 11.4 71.8 11.9 70.7 13.2 C 70.7 13.2 69.8 11.6 69.8 11.6 C 71.2 10.2 72.9 9.5 74.7 9.5 C 77.6 9.5 79.5 10.9 79.5 14.2 C 79.5 14.24 79.5 24.4 79.5 24.4 L 77.3 24.4 Z M 77.3 21.3 C 77.3 21.3 77.3 18.6 77.3 18.6 C 76.7 17.4 75.5 16.7 74.2 16.7 C 72.4 16.7 71.3 18.1 71.3 19.9 C 71.3 21.7 72.4 23.2 74.2 23.2 C 75.5 23.2 76.7 22.5 77.3 21.3 Z M 83.1 24.4 L 83.1 4.4 L 85.3 4.4 L 85.3 24.4 L 83.1 24.4 Z M 103.3 24.4 C 103.3 24.4 103.35 22.31 103.3 22.3 C 102.5 23.8 101.1 24.7 99.5 24.7 C 96.3 24.7 94.3 21.7 94.3 17.1 C 94.3 12.6 96.3 9.5 99.5 9.5 C 101 9.5 102.5 10.4 103.3 12 C 103.35 11.99 103.3 4.4 103.3 4.4 L 105.5 4.4 L 105.5 24.4 L 103.3 24.4 Z M 103.3 20.5 C 103.3 20.5 103.3 13.8 103.3 13.8 C 102.8 12.6 101.5 11.4 100.1 11.4 C 97.7 11.4 96.6 14 96.6 17.1 C 96.6 20.3 97.7 22.8 100.1 22.8 C 101.5 22.8 102.8 21.7 103.3 20.5 Z M 108.7 28.1 C 109 28.3 109.5 28.3 109.7 28.3 C 110.5 28.3 111 28 111.4 26.9 C 111.42 26.9 112.2 24.7 112.2 24.7 L 107.4 9.9 L 109.7 9.9 L 113.3 21.8 L 116.9 9.9 L 119.2 9.9 C 119.2 9.9 113.46 27.44 113.5 27.4 C 112.7 29.5 111.6 30.3 109.9 30.3 C 109.4 30.3 108.7 30.2 108.4 30 C 108.4 30 108.7 28.1 108.7 28.1 Z M 120.4 17.1 C 120.4 12.9 122.6 9.5 126.3 9.5 C 130.1 9.5 132 12.9 132 17.2 C 132 17.18 132 17.8 132 17.8 C 132 17.8 122.61 17.84 122.6 17.8 C 122.7 20.7 124.2 22.9 126.8 22.9 C 128 22.9 129.3 22.3 130.2 21.2 C 130.2 21.2 131.4 22.4 131.4 22.4 C 130.2 23.9 128.5 24.7 126.6 24.7 C 122.7 24.7 120.4 21.6 120.4 17.1 Z M 126.2 11.3 C 123.7 11.3 122.7 14.1 122.6 16.2 C 122.6 16.2 129.9 16.2 129.9 16.2 C 129.8 14 128.9 11.3 126.2 11.3 Z M 135.5 28.2 C 135.5 28.2 134.5 27.3 134.5 27.3 C 135.4 26.6 136.3 25.5 136.4 24.5 C 136.3 24.5 136.1 24.5 136 24.5 C 135.2 24.5 134.6 23.9 134.6 23.1 C 134.6 22.2 135.2 21.5 136.1 21.5 C 137.1 21.5 137.9 22.3 137.9 23.7 C 137.9 25.5 136.9 27.2 135.5 28.2 Z M 156.7 24.4 L 152.8 16.4 L 149.9 16.4 L 149.9 24.4 L 147.5 24.4 L 147.5 4.4 C 147.5 4.4 153.66 4.37 153.7 4.4 C 156.9 4.4 159.1 6.7 159.1 10.3 C 159.1 13.9 157.1 15.6 155.2 16 C 155.16 16.01 159.4 24.4 159.4 24.4 L 156.7 24.4 Z M 156.7 10.4 C 156.7 8.1 155.5 6.5 153.4 6.5 C 153.39 6.47 149.9 6.5 149.9 6.5 L 149.9 14.3 C 149.9 14.3 153.39 14.27 153.4 14.3 C 155.5 14.3 156.7 12.6 156.7 10.4 Z M 160.9 17.1 C 160.9 12.9 163.1 9.5 166.8 9.5 C 170.6 9.5 172.5 12.9 172.5 17.2 C 172.53 17.18 172.5 17.8 172.5 17.8 C 172.5 17.8 163.14 17.84 163.1 17.8 C 163.2 20.7 164.7 22.9 167.3 22.9 C 168.6 22.9 169.9 22.3 170.8 21.2 C 170.8 21.2 171.9 22.4 171.9 22.4 C 170.7 23.9 169.1 24.7 167.1 24.7 C 163.3 24.7 160.9 21.6 160.9 17.1 Z M 166.8 11.3 C 164.2 11.3 163.2 14.1 163.1 16.2 C 163.1 16.2 170.4 16.2 170.4 16.2 C 170.4 14 169.4 11.3 166.8 11.3 Z M 183.7 24.4 C 183.7 24.4 183.65 22.31 183.7 22.3 C 182.8 23.8 181.4 24.7 179.8 24.7 C 176.6 24.7 174.7 21.7 174.7 17.1 C 174.7 12.6 176.6 9.5 179.8 9.5 C 181.3 9.5 182.8 10.4 183.7 12 C 183.65 11.99 183.7 4.4 183.7 4.4 L 185.8 4.4 L 185.8 24.4 L 183.7 24.4 Z M 183.7 20.5 C 183.7 20.5 183.7 13.8 183.7 13.8 C 183.1 12.6 181.8 11.4 180.4 11.4 C 178 11.4 176.9 14 176.9 17.1 C 176.9 20.3 178 22.8 180.4 22.8 C 181.8 22.8 183.1 21.7 183.7 20.5 Z M 202.3 24.4 L 202.3 19.2 L 194.3 19.2 L 194.3 17.2 L 201.6 4.4 L 204.6 4.4 L 204.6 17.1 L 206.8 17.1 L 206.8 19.2 L 204.6 19.2 L 204.6 24.4 L 202.3 24.4 Z M 202.3 6.9 L 196.5 17.1 L 202.3 17.1 L 202.3 6.9 Z M 208.6 14.4 C 208.6 9.6 210.2 4.1 214.9 4.1 C 219.6 4.1 221.2 9.6 221.2 14.4 C 221.2 19.2 219.6 24.7 214.9 24.7 C 210.2 24.7 208.6 19.2 208.6 14.4 Z M 218.7 14.4 C 218.7 10.4 218 6.2 214.9 6.2 C 211.8 6.2 211.1 10.4 211.1 14.4 C 211.1 18.3 211.8 22.6 214.9 22.6 C 218 22.6 218.7 18.3 218.7 14.4 Z " stroke="none" fill="#d3d2d2"/>  </g></svg>