<?xml version="1.0" standalone="no"?><!DOCTYPE svg PUBLIC "-//W3C//DTD SVG 1.1//EN" "http://www.w3.org/Graphics/SVG/1.1/DTD/svg11.dtd"><svg xmlns="http://www.w3.org/2000/svg" version="1.1" width="274px" height="440.3px" viewBox="0 0 274 440.3">  <desc>Alcanivorase extract Hydrogen sulfide Diacetyl 2,6-Lutidine d-Hexadecalactone Hydroxyl nonadone Erythritol 2-acetyl-1</desc>  <defs/>  <g id="Polygon161401">    <path d="M 2.1 356.7 L 2.1 336.7 L 4.5 336.7 L 4.5 356.7 L 2.1 356.7 Z M 7.6 349.4 C 7.6 345.4 9.6 341.9 13.4 341.9 C 17.3 341.9 19.3 345.4 19.3 349.4 C 19.3 353.5 17.3 357.1 13.4 357.1 C 9.6 357.1 7.6 353.5 7.6 349.4 Z M 17.1 349.4 C 17.1 346.5 16 343.8 13.4 343.8 C 10.9 343.8 9.8 346.5 9.8 349.4 C 9.8 352.4 10.9 355.1 13.4 355.1 C 16 355.1 17.1 352.4 17.1 349.4 Z M 30.6 356.7 C 30.6 356.7 30.57 354.63 30.6 354.6 C 29.7 356.1 28.3 357.1 26.8 357.1 C 23.5 357.1 21.6 354 21.6 349.5 C 21.6 345 23.5 341.9 26.8 341.9 C 28.2 341.9 29.7 342.7 30.6 344.3 C 30.57 344.31 30.6 336.7 30.6 336.7 L 32.7 336.7 L 32.7 356.7 L 30.6 356.7 Z M 30.6 352.8 C 30.6 352.8 30.6 346.1 30.6 346.1 C 30 344.9 28.7 343.8 27.3 343.8 C 24.9 343.8 23.8 346.3 23.8 349.5 C 23.8 352.6 24.9 355.1 27.3 355.1 C 28.7 355.1 30 354.1 30.6 352.8 Z M 36 338.6 C 36 337.8 36.7 337.2 37.4 337.2 C 38.2 337.2 38.9 337.8 38.9 338.6 C 38.9 339.5 38.2 340.1 37.4 340.1 C 36.7 340.1 36 339.5 36 338.6 Z M 36.4 356.7 L 36.4 342.2 L 38.5 342.2 L 38.5 356.7 L 36.4 356.7 Z M 41 355 C 41 355 42.1 353.5 42.1 353.5 C 42.9 354.5 44.3 355.3 45.9 355.3 C 47.5 355.3 48.7 354.4 48.7 353 C 48.7 349.6 41.4 350.8 41.4 345.8 C 41.4 343.6 43.2 341.9 46 341.9 C 48 341.9 49.4 342.6 50.5 343.7 C 50.5 343.7 49.4 345.2 49.4 345.2 C 48.7 344.2 47.5 343.6 46.1 343.6 C 44.5 343.6 43.5 344.5 43.5 345.7 C 43.5 348.8 50.7 347.7 50.7 352.9 C 50.7 355.3 48.9 357.1 45.9 357.1 C 43.9 357.1 42.2 356.4 41 355 Z M 52.8 349.4 C 52.8 345.2 55 341.9 58.6 341.9 C 62.5 341.9 64.4 345.3 64.4 349.5 C 64.38 349.5 64.4 350.2 64.4 350.2 C 64.4 350.2 54.99 350.16 55 350.2 C 55.1 353.1 56.6 355.3 59.2 355.3 C 60.4 355.3 61.7 354.6 62.6 353.5 C 62.6 353.5 63.7 354.8 63.7 354.8 C 62.6 356.2 60.9 357.1 59 357.1 C 55.1 357.1 52.8 353.9 52.8 349.4 Z M 58.6 343.7 C 56.1 343.7 55 346.4 55 348.6 C 55 348.6 62.2 348.6 62.2 348.6 C 62.2 346.4 61.3 343.7 58.6 343.7 Z M 75.5 356.7 C 75.5 356.7 75.51 354.63 75.5 354.6 C 74.7 356.1 73.2 357.1 71.7 357.1 C 68.5 357.1 66.5 354 66.5 349.5 C 66.5 345 68.4 341.9 71.7 341.9 C 73.2 341.9 74.6 342.7 75.5 344.3 C 75.51 344.31 75.5 336.7 75.5 336.7 L 77.7 336.7 L 77.7 356.7 L 75.5 356.7 Z M 75.5 352.8 C 75.5 352.8 75.5 346.1 75.5 346.1 C 75 344.9 73.6 343.8 72.2 343.8 C 69.9 343.8 68.8 346.3 68.8 349.5 C 68.8 352.6 69.9 355.1 72.2 355.1 C 73.6 355.1 75 354.1 75.5 352.8 Z M 86.3 355 C 86.3 355 87.4 353.5 87.4 353.5 C 88.2 354.5 89.6 355.3 91.2 355.3 C 92.8 355.3 94 354.4 94 353 C 94 349.6 86.7 350.8 86.7 345.8 C 86.7 343.6 88.5 341.9 91.3 341.9 C 93.3 341.9 94.7 342.6 95.8 343.7 C 95.8 343.7 94.7 345.2 94.7 345.2 C 94 344.2 92.8 343.6 91.4 343.6 C 89.8 343.6 88.8 344.5 88.8 345.7 C 88.8 348.8 96 347.7 96 352.9 C 96 355.3 94.2 357.1 91.2 357.1 C 89.2 357.1 87.5 356.4 86.3 355 Z M 106.2 356.7 C 106.2 356.7 106.23 355.14 106.2 355.1 C 105.3 356.5 103.9 357.1 102.4 357.1 C 100.1 357.1 98 355.3 98 352.2 C 98 349.2 100 347.5 102.4 347.5 C 103.9 347.5 105.3 348 106.2 349.3 C 106.2 349.3 106.2 346.8 106.2 346.8 C 106.2 344.8 105.1 343.7 103.3 343.7 C 101.9 343.7 100.7 344.2 99.6 345.5 C 99.6 345.5 98.7 344 98.7 344 C 100 342.5 101.8 341.9 103.6 341.9 C 106.5 341.9 108.4 343.3 108.4 346.6 C 108.39 346.56 108.4 356.7 108.4 356.7 L 106.2 356.7 Z M 106.2 353.7 C 106.2 353.7 106.2 350.9 106.2 350.9 C 105.6 349.7 104.4 349.1 103.1 349.1 C 101.3 349.1 100.2 350.5 100.2 352.3 C 100.2 354.1 101.3 355.5 103.1 355.5 C 104.4 355.5 105.6 354.9 106.2 353.7 Z M 112 356.7 L 112 336.7 L 114.1 336.7 L 114.1 356.7 L 112 356.7 Z M 118.2 353.8 C 118.23 353.79 118.2 344.1 118.2 344.1 L 116.3 344.1 L 116.3 342.2 L 118.2 342.2 L 118.2 338.3 L 120.4 338.3 L 120.4 342.2 L 122.8 342.2 L 122.8 344.1 L 120.4 344.1 C 120.4 344.1 120.39 353.4 120.4 353.4 C 120.4 354.5 120.7 355.1 121.6 355.1 C 122.1 355.1 122.5 354.9 122.8 354.6 C 122.8 354.6 123.5 356.2 123.5 356.2 C 123 356.7 122.2 357.1 121.1 357.1 C 119.2 357.1 118.2 356 118.2 353.8 Z " stroke="none" fill="#d3d2d2"/>  </g>  <g id="Polygon161400">    <path d="M 0.9 317.7 C 0.9 317.7 2.4 316.3 2.4 316.3 C 3.4 317.8 4.8 318.9 6.7 318.9 C 9.1 318.9 10.3 317.4 10.3 315.1 C 10.3 312.4 8.6 311.5 6.5 311.5 C 5.9 311.5 5.2 311.5 4.9 311.5 C 4.9 311.5 4.9 309.4 4.9 309.4 C 5.2 309.4 6 309.4 6.5 309.4 C 8.5 309.4 10.1 308.3 10.1 306 C 10.1 303.7 8.7 302.5 6.7 302.5 C 4.9 302.5 3.6 303.5 2.6 304.9 C 2.6 304.9 1.1 303.5 1.1 303.5 C 2.3 301.6 4.3 300.4 6.8 300.4 C 10.1 300.4 12.5 302.2 12.5 305.7 C 12.5 308.2 10.7 309.9 8.9 310.4 C 10.7 310.6 12.8 312.4 12.8 315.3 C 12.8 318.6 10.6 321.1 6.8 321.1 C 4 321.1 1.9 319.6 0.9 317.7 Z M 14.8 314.4 L 14.8 312.5 L 21 312.5 L 21 314.4 L 14.8 314.4 Z M 38.2 320.7 C 38.2 320.7 38.22 310.2 38.2 310.2 C 38.2 308.6 37.6 307.8 36.2 307.8 C 34.9 307.8 33.6 308.9 33.1 310.1 C 33.06 310.08 33.1 320.7 33.1 320.7 L 30.9 320.7 C 30.9 320.7 30.9 310.2 30.9 310.2 C 30.9 308.6 30.3 307.8 28.9 307.8 C 27.6 307.8 26.3 308.9 25.7 310.1 C 25.71 310.08 25.7 320.7 25.7 320.7 L 23.6 320.7 L 23.6 306.2 L 25.7 306.2 C 25.7 306.2 25.71 308.28 25.7 308.3 C 26.3 307.2 27.9 305.9 29.7 305.9 C 31.5 305.9 32.7 306.9 32.9 308.4 C 33.7 307.1 35.3 305.9 37 305.9 C 39.1 305.9 40.4 307 40.4 309.6 C 40.38 309.63 40.4 320.7 40.4 320.7 L 38.2 320.7 Z M 43.3 313.4 C 43.3 309.2 45.5 305.9 49.2 305.9 C 53 305.9 54.9 309.3 54.9 313.5 C 54.93 313.5 54.9 314.2 54.9 314.2 C 54.9 314.2 45.54 314.16 45.5 314.2 C 45.6 317.1 47.1 319.3 49.7 319.3 C 51 319.3 52.3 318.6 53.2 317.5 C 53.2 317.5 54.3 318.8 54.3 318.8 C 53.1 320.2 51.5 321.1 49.5 321.1 C 45.7 321.1 43.3 317.9 43.3 313.4 Z M 49.2 307.7 C 46.6 307.7 45.6 310.4 45.5 312.6 C 45.5 312.6 52.8 312.6 52.8 312.6 C 52.8 310.4 51.8 307.7 49.2 307.7 Z M 58.2 317.8 C 58.2 317.79 58.2 308.1 58.2 308.1 L 56.3 308.1 L 56.3 306.2 L 58.2 306.2 L 58.2 302.3 L 60.4 302.3 L 60.4 306.2 L 62.8 306.2 L 62.8 308.1 L 60.4 308.1 C 60.4 308.1 60.36 317.4 60.4 317.4 C 60.4 318.5 60.7 319.1 61.5 319.1 C 62.1 319.1 62.5 318.9 62.8 318.6 C 62.8 318.6 63.4 320.2 63.4 320.2 C 62.9 320.7 62.2 321.1 61.1 321.1 C 59.1 321.1 58.2 320 58.2 317.8 Z M 73.2 320.7 C 73.2 320.7 73.23 310.35 73.2 310.4 C 73.2 308.4 72.3 307.8 70.9 307.8 C 69.5 307.8 68.2 308.9 67.5 310.1 C 67.5 310.08 67.5 320.7 67.5 320.7 L 65.4 320.7 L 65.4 300.7 L 67.5 300.7 C 67.5 300.7 67.5 308.28 67.5 308.3 C 68.3 307 70 305.9 71.7 305.9 C 74.2 305.9 75.4 307.1 75.4 309.7 C 75.36 309.72 75.4 320.7 75.4 320.7 L 73.2 320.7 Z M 78.6 324.5 C 78.9 324.6 79.3 324.7 79.6 324.7 C 80.4 324.7 80.9 324.3 81.3 323.2 C 81.27 323.22 82 321 82 321 L 77.2 306.2 L 79.6 306.2 L 83.2 318.1 L 86.8 306.2 L 89.1 306.2 C 89.1 306.2 83.31 323.76 83.3 323.8 C 82.6 325.9 81.4 326.6 79.7 326.6 C 79.3 326.6 78.6 326.5 78.3 326.4 C 78.3 326.4 78.6 324.5 78.6 324.5 Z M 91 320.7 L 91 300.7 L 93.1 300.7 L 93.1 320.7 L 91 320.7 Z M 102.1 319.1 C 104.5 319.1 105.6 316.6 105.6 313.5 C 105.6 310.3 104.5 307.8 102.1 307.8 C 100.8 307.8 99.4 308.9 98.9 310.2 C 98.9 310.2 98.9 316.8 98.9 316.8 C 99.4 318.1 100.8 319.1 102.1 319.1 Z M 96.7 320.7 L 96.7 300.7 L 98.9 300.7 C 98.9 300.7 98.88 308.31 98.9 308.3 C 99.8 306.7 101.2 305.9 102.7 305.9 C 106 305.9 107.9 309 107.9 313.5 C 107.9 318 106 321.1 102.7 321.1 C 101.2 321.1 99.7 320.1 98.9 318.6 C 98.88 318.63 98.9 320.7 98.9 320.7 L 96.7 320.7 Z M 118.7 320.7 C 118.7 320.7 118.68 318.69 118.7 318.7 C 117.8 320 116.3 321.1 114.5 321.1 C 112 321.1 110.8 319.8 110.8 317.2 C 110.85 317.19 110.8 306.2 110.8 306.2 L 113 306.2 C 113 306.2 112.98 316.56 113 316.6 C 113 318.5 113.9 319.1 115.3 319.1 C 116.7 319.1 118 318.1 118.7 316.9 C 118.68 316.89 118.7 306.2 118.7 306.2 L 120.8 306.2 L 120.8 320.7 L 118.7 320.7 Z M 124.9 317.8 C 124.92 317.79 124.9 308.1 124.9 308.1 L 123 308.1 L 123 306.2 L 124.9 306.2 L 124.9 302.3 L 127.1 302.3 L 127.1 306.2 L 129.5 306.2 L 129.5 308.1 L 127.1 308.1 C 127.1 308.1 127.08 317.4 127.1 317.4 C 127.1 318.5 127.4 319.1 128.2 319.1 C 128.8 319.1 129.2 318.9 129.5 318.6 C 129.5 318.6 130.2 320.2 130.2 320.2 C 129.7 320.7 128.9 321.1 127.8 321.1 C 125.8 321.1 124.9 320 124.9 317.8 Z M 139.5 320.7 C 139.5 320.7 139.53 319.14 139.5 319.1 C 138.6 320.5 137.2 321.1 135.7 321.1 C 133.4 321.1 131.3 319.3 131.3 316.2 C 131.3 313.2 133.3 311.5 135.7 311.5 C 137.2 311.5 138.6 312 139.5 313.3 C 139.5 313.3 139.5 310.8 139.5 310.8 C 139.5 308.8 138.4 307.7 136.6 307.7 C 135.2 307.7 134 308.2 132.9 309.5 C 132.9 309.5 132 308 132 308 C 133.3 306.5 135.1 305.9 136.9 305.9 C 139.8 305.9 141.7 307.3 141.7 310.6 C 141.69 310.56 141.7 320.7 141.7 320.7 L 139.5 320.7 Z M 139.5 317.7 C 139.5 317.7 139.5 314.9 139.5 314.9 C 138.9 313.7 137.7 313.1 136.4 313.1 C 134.6 313.1 133.5 314.5 133.5 316.3 C 133.5 318.1 134.6 319.5 136.4 319.5 C 137.7 319.5 138.9 318.9 139.5 317.7 Z M 153.1 320.7 C 153.1 320.7 153.15 310.38 153.1 310.4 C 153.1 308.5 152.3 307.8 150.8 307.8 C 149.4 307.8 148.1 308.9 147.4 310.1 C 147.45 310.08 147.4 320.7 147.4 320.7 L 145.3 320.7 L 145.3 306.2 L 147.4 306.2 C 147.4 306.2 147.45 308.28 147.4 308.3 C 148.3 307 149.9 305.9 151.6 305.9 C 154.1 305.9 155.3 307.2 155.3 309.8 C 155.31 309.78 155.3 320.7 155.3 320.7 L 153.1 320.7 Z M 166.4 320.7 C 166.4 320.7 166.41 319.14 166.4 319.1 C 165.5 320.5 164.1 321.1 162.6 321.1 C 160.3 321.1 158.2 319.3 158.2 316.2 C 158.2 313.2 160.2 311.5 162.6 311.5 C 164.1 311.5 165.5 312 166.4 313.3 C 166.4 313.3 166.4 310.8 166.4 310.8 C 166.4 308.8 165.3 307.7 163.4 307.7 C 162.1 307.7 160.9 308.2 159.8 309.5 C 159.8 309.5 158.8 308 158.8 308 C 160.2 306.5 161.9 305.9 163.8 305.9 C 166.6 305.9 168.6 307.3 168.6 310.6 C 168.57 310.56 168.6 320.7 168.6 320.7 L 166.4 320.7 Z M 166.4 317.7 C 166.4 317.7 166.4 314.9 166.4 314.9 C 165.7 313.7 164.5 313.1 163.3 313.1 C 161.5 313.1 160.4 314.5 160.4 316.3 C 160.4 318.1 161.5 319.5 163.3 319.5 C 164.5 319.5 165.7 318.9 166.4 317.7 Z M 172.2 320.7 L 172.2 300.7 L 174.3 300.7 L 174.3 320.7 L 172.2 320.7 Z " stroke="none" fill="#d3d2d2"/>  </g>  <g id="Polygon161399">    <path d="M 1.6 284.7 C 1.6 284.7 1.59 282.75 1.6 282.8 C 8.1 275.2 10.4 272.8 10.4 269.9 C 10.4 267.7 8.9 266.5 7.2 266.5 C 5.3 266.5 3.9 267.5 2.9 269 C 2.9 269 1.4 267.6 1.4 267.6 C 2.7 265.6 4.7 264.4 7.2 264.4 C 10.3 264.4 12.8 266.4 12.8 269.9 C 12.8 273.2 10.3 276.2 5 282.6 C 4.98 282.57 12.9 282.6 12.9 282.6 L 12.9 284.7 L 1.6 284.7 Z M 15.3 278.4 L 15.3 276.5 L 21.5 276.5 L 21.5 278.4 L 15.3 278.4 Z M 31.5 284.7 C 31.5 284.7 31.5 283.14 31.5 283.1 C 30.6 284.5 29.2 285.1 27.7 285.1 C 25.3 285.1 23.3 283.3 23.3 280.2 C 23.3 277.2 25.3 275.5 27.7 275.5 C 29.2 275.5 30.6 276 31.5 277.3 C 31.5 277.3 31.5 274.8 31.5 274.8 C 31.5 272.8 30.4 271.7 28.5 271.7 C 27.2 271.7 26 272.2 24.9 273.5 C 24.9 273.5 23.9 272 23.9 272 C 25.3 270.5 27 269.9 28.9 269.9 C 31.7 269.9 33.7 271.3 33.7 274.6 C 33.66 274.56 33.7 284.7 33.7 284.7 L 31.5 284.7 Z M 31.5 281.7 C 31.5 281.7 31.5 278.9 31.5 278.9 C 30.8 277.7 29.6 277.1 28.4 277.1 C 26.6 277.1 25.5 278.5 25.5 280.3 C 25.5 282.1 26.6 283.5 28.4 283.5 C 29.6 283.5 30.8 282.9 31.5 281.7 Z M 36.6 277.4 C 36.6 273.2 38.8 269.9 42.6 269.9 C 44.6 269.9 45.8 270.7 46.7 271.8 C 46.7 271.8 45.5 273.2 45.5 273.2 C 44.8 272.2 43.9 271.8 42.7 271.8 C 40.2 271.8 38.8 274.4 38.8 277.4 C 38.8 280.5 40.2 283.1 42.7 283.1 C 43.9 283.1 44.8 282.7 45.5 281.7 C 45.5 281.7 46.7 283.1 46.7 283.1 C 45.8 284.3 44.6 285.1 42.6 285.1 C 38.8 285.1 36.6 281.7 36.6 277.4 Z M 48.4 277.4 C 48.4 273.2 50.7 269.9 54.3 269.9 C 58.1 269.9 60.1 273.3 60.1 277.5 C 60.06 277.5 60.1 278.2 60.1 278.2 C 60.1 278.2 50.67 278.16 50.7 278.2 C 50.8 281.1 52.3 283.3 54.8 283.3 C 56.1 283.3 57.4 282.6 58.3 281.5 C 58.3 281.5 59.4 282.8 59.4 282.8 C 58.3 284.2 56.6 285.1 54.7 285.1 C 50.8 285.1 48.4 281.9 48.4 277.4 Z M 54.3 271.7 C 51.7 271.7 50.7 274.4 50.7 276.6 C 50.7 276.6 57.9 276.6 57.9 276.6 C 57.9 274.4 56.9 271.7 54.3 271.7 Z M 63.3 281.8 C 63.33 281.79 63.3 272.1 63.3 272.1 L 61.4 272.1 L 61.4 270.2 L 63.3 270.2 L 63.3 266.3 L 65.5 266.3 L 65.5 270.2 L 67.9 270.2 L 67.9 272.1 L 65.5 272.1 C 65.5 272.1 65.49 281.4 65.5 281.4 C 65.5 282.5 65.8 283.1 66.7 283.1 C 67.2 283.1 67.6 282.9 67.9 282.6 C 67.9 282.6 68.6 284.2 68.6 284.2 C 68.1 284.7 67.3 285.1 66.2 285.1 C 64.3 285.1 63.3 284 63.3 281.8 Z M 70.1 288.5 C 70.3 288.6 70.8 288.7 71 288.7 C 71.9 288.7 72.4 288.3 72.7 287.2 C 72.75 287.22 73.5 285 73.5 285 L 68.7 270.2 L 71 270.2 L 74.6 282.1 L 78.3 270.2 L 80.6 270.2 C 80.6 270.2 74.79 287.76 74.8 287.8 C 74.1 289.9 72.9 290.6 71.2 290.6 C 70.7 290.6 70.1 290.5 69.7 290.4 C 69.7 290.4 70.1 288.5 70.1 288.5 Z M 82.4 284.7 L 82.4 264.7 L 84.6 264.7 L 84.6 284.7 L 82.4 284.7 Z M 87.1 278.4 L 87.1 276.5 L 93.4 276.5 L 93.4 278.4 L 87.1 278.4 Z M 98.9 284.7 L 98.9 267.8 L 95.8 271.1 L 94.4 269.6 L 99.2 264.7 L 101.3 264.7 L 101.3 284.7 L 98.9 284.7 Z M 104 278.4 L 104 276.5 L 110.2 276.5 L 110.2 278.4 L 104 278.4 Z M 114.9 282.6 C 114.93 282.6 114.9 290.2 114.9 290.2 L 112.8 290.2 L 112.8 270.2 L 114.9 270.2 C 114.9 270.2 114.93 272.28 114.9 272.3 C 115.8 270.8 117.2 269.9 118.7 269.9 C 122 269.9 123.9 272.9 123.9 277.4 C 123.9 282 122 285.1 118.7 285.1 C 117.3 285.1 115.8 284.2 114.9 282.6 Z M 121.7 277.4 C 121.7 274.3 120.6 271.8 118.2 271.8 C 116.8 271.8 115.5 272.9 114.9 274.1 C 114.9 274.1 114.9 280.7 114.9 280.7 C 115.5 282 116.8 283.1 118.2 283.1 C 120.6 283.1 121.7 280.6 121.7 277.4 Z M 126.4 288.5 C 126.7 288.6 127.1 288.7 127.4 288.7 C 128.2 288.7 128.7 288.3 129.1 287.2 C 129.09 287.22 129.9 285 129.9 285 L 125 270.2 L 127.4 270.2 L 131 282.1 L 134.6 270.2 L 136.9 270.2 C 136.9 270.2 131.13 287.76 131.1 287.8 C 130.4 289.9 129.2 290.6 127.5 290.6 C 127.1 290.6 126.4 290.5 126.1 290.4 C 126.1 290.4 126.4 288.5 126.4 288.5 Z M 138.8 284.7 L 138.8 270.2 L 140.9 270.2 C 140.9 270.2 140.91 272.52 140.9 272.5 C 141.8 271 143.2 269.9 145 269.9 C 145 269.9 145 272.1 145 272.1 C 144.8 272.1 144.5 272 144.3 272 C 143 272 141.5 273.2 140.9 274.4 C 140.91 274.41 140.9 284.7 140.9 284.7 L 138.8 284.7 Z M 147.2 284.7 L 147.2 270.2 L 149.3 270.2 C 149.3 270.2 149.34 272.52 149.3 272.5 C 150.3 271 151.7 269.9 153.4 269.9 C 153.4 269.9 153.4 272.1 153.4 272.1 C 153.2 272.1 153 272 152.7 272 C 151.4 272 149.9 273.2 149.3 274.4 C 149.34 274.41 149.3 284.7 149.3 284.7 L 147.2 284.7 Z M 154.9 277.4 C 154.9 273.4 157 269.9 160.8 269.9 C 164.7 269.9 166.7 273.4 166.7 277.4 C 166.7 281.5 164.7 285.1 160.8 285.1 C 157 285.1 154.9 281.5 154.9 277.4 Z M 164.5 277.4 C 164.5 274.5 163.3 271.8 160.8 271.8 C 158.3 271.8 157.2 274.5 157.2 277.4 C 157.2 280.4 158.3 283.1 160.8 283.1 C 163.3 283.1 164.5 280.4 164.5 277.4 Z M 169.6 284.7 L 169.6 264.7 L 171.8 264.7 L 171.8 284.7 L 169.6 284.7 Z M 175 266.6 C 175 265.8 175.7 265.2 176.5 265.2 C 177.3 265.2 178 265.8 178 266.6 C 178 267.5 177.3 268.1 176.5 268.1 C 175.7 268.1 175 267.5 175 266.6 Z M 175.4 284.7 L 175.4 270.2 L 177.6 270.2 L 177.6 284.7 L 175.4 284.7 Z M 189.1 284.7 C 189.1 284.7 189.05 274.38 189.1 274.4 C 189.1 272.5 188.2 271.8 186.7 271.8 C 185.3 271.8 184 272.9 183.4 274.1 C 183.35 274.08 183.4 284.7 183.4 284.7 L 181.2 284.7 L 181.2 270.2 L 183.4 270.2 C 183.4 270.2 183.35 272.28 183.4 272.3 C 184.2 271 185.8 269.9 187.6 269.9 C 190 269.9 191.2 271.2 191.2 273.8 C 191.21 273.78 191.2 284.7 191.2 284.7 L 189.1 284.7 Z M 194.2 277.4 C 194.2 273.2 196.4 269.9 200 269.9 C 203.8 269.9 205.8 273.3 205.8 277.5 C 205.76 277.5 205.8 278.2 205.8 278.2 C 205.8 278.2 196.37 278.16 196.4 278.2 C 196.5 281.1 198 283.3 200.5 283.3 C 201.8 283.3 203.1 282.6 204 281.5 C 204 281.5 205.1 282.8 205.1 282.8 C 204 284.2 202.3 285.1 200.4 285.1 C 196.5 285.1 194.2 281.9 194.2 277.4 Z M 200 271.7 C 197.5 271.7 196.4 274.4 196.4 276.6 C 196.4 276.6 203.6 276.6 203.6 276.6 C 203.6 274.4 202.6 271.7 200 271.7 Z " stroke="none" fill="#d3d2d2"/>  </g>  <g id="Polygon161398">    <path d="M 2.1 248.7 L 2.1 228.7 L 12.4 228.7 L 12.4 230.8 L 4.5 230.8 L 4.5 237.4 L 12.2 237.4 L 12.2 239.5 L 4.5 239.5 L 4.5 246.6 L 12.4 246.6 L 12.4 248.7 L 2.1 248.7 Z M 15.5 248.7 L 15.5 234.2 L 17.6 234.2 C 17.6 234.2 17.64 236.52 17.6 236.5 C 18.6 235 20 233.9 21.7 233.9 C 21.7 233.9 21.7 236.1 21.7 236.1 C 21.5 236.1 21.3 236 21 236 C 19.7 236 18.2 237.2 17.6 238.4 C 17.64 238.41 17.6 248.7 17.6 248.7 L 15.5 248.7 Z M 23.5 252.5 C 23.8 252.6 24.2 252.7 24.5 252.7 C 25.3 252.7 25.8 252.3 26.2 251.2 C 26.19 251.22 27 249 27 249 L 22.1 234.2 L 24.5 234.2 L 28.1 246.1 L 31.7 234.2 L 34 234.2 C 34 234.2 28.23 251.76 28.2 251.8 C 27.5 253.9 26.3 254.6 24.6 254.6 C 24.2 254.6 23.5 254.5 23.2 254.4 C 23.2 254.4 23.5 252.5 23.5 252.5 Z M 36.3 245.8 C 36.3 245.79 36.3 236.1 36.3 236.1 L 34.4 236.1 L 34.4 234.2 L 36.3 234.2 L 36.3 230.3 L 38.5 230.3 L 38.5 234.2 L 40.9 234.2 L 40.9 236.1 L 38.5 236.1 C 38.5 236.1 38.46 245.4 38.5 245.4 C 38.5 246.5 38.8 247.1 39.6 247.1 C 40.2 247.1 40.6 246.9 40.9 246.6 C 40.9 246.6 41.5 248.2 41.5 248.2 C 41 248.7 40.3 249.1 39.2 249.1 C 37.2 249.1 36.3 248 36.3 245.8 Z M 51.3 248.7 C 51.3 248.7 51.33 238.35 51.3 238.4 C 51.3 236.4 50.4 235.8 49 235.8 C 47.6 235.8 46.3 236.9 45.6 238.1 C 45.6 238.08 45.6 248.7 45.6 248.7 L 43.5 248.7 L 43.5 228.7 L 45.6 228.7 C 45.6 228.7 45.6 236.28 45.6 236.3 C 46.4 235 48.1 233.9 49.8 233.9 C 52.3 233.9 53.5 235.1 53.5 237.7 C 53.46 237.72 53.5 248.7 53.5 248.7 L 51.3 248.7 Z M 57.1 248.7 L 57.1 234.2 L 59.2 234.2 C 59.2 234.2 59.25 236.52 59.2 236.5 C 60.2 235 61.6 233.9 63.4 233.9 C 63.4 233.9 63.4 236.1 63.4 236.1 C 63.1 236.1 62.9 236 62.6 236 C 61.3 236 59.8 237.2 59.2 238.4 C 59.25 238.41 59.2 248.7 59.2 248.7 L 57.1 248.7 Z M 65.1 230.6 C 65.1 229.8 65.8 229.2 66.6 229.2 C 67.4 229.2 68.1 229.8 68.1 230.6 C 68.1 231.5 67.4 232.1 66.6 232.1 C 65.8 232.1 65.1 231.5 65.1 230.6 Z M 65.5 248.7 L 65.5 234.2 L 67.7 234.2 L 67.7 248.7 L 65.5 248.7 Z M 71.8 245.8 C 71.76 245.79 71.8 236.1 71.8 236.1 L 69.8 236.1 L 69.8 234.2 L 71.8 234.2 L 71.8 230.3 L 73.9 230.3 L 73.9 234.2 L 76.4 234.2 L 76.4 236.1 L 73.9 236.1 C 73.9 236.1 73.92 245.4 73.9 245.4 C 73.9 246.5 74.2 247.1 75.1 247.1 C 75.6 247.1 76.1 246.9 76.3 246.6 C 76.3 246.6 77 248.2 77 248.2 C 76.5 248.7 75.8 249.1 74.7 249.1 C 72.7 249.1 71.8 248 71.8 245.8 Z M 78.2 241.4 C 78.2 237.4 80.2 233.9 84.1 233.9 C 88 233.9 90 237.4 90 241.4 C 90 245.5 88 249.1 84.1 249.1 C 80.2 249.1 78.2 245.5 78.2 241.4 Z M 87.7 241.4 C 87.7 238.5 86.6 235.8 84.1 235.8 C 81.6 235.8 80.5 238.5 80.5 241.4 C 80.5 244.4 81.6 247.1 84.1 247.1 C 86.6 247.1 87.7 244.4 87.7 241.4 Z M 92.9 248.7 L 92.9 228.7 L 95.1 228.7 L 95.1 248.7 L 92.9 248.7 Z " stroke="none" fill="#d3d2d2"/>  </g>  <g id="Polygon161397">    <path d="M 12.7 212.7 L 12.7 203.5 L 4.5 203.5 L 4.5 212.7 L 2.1 212.7 L 2.1 192.7 L 4.5 192.7 L 4.5 201.4 L 12.7 201.4 L 12.7 192.7 L 15.1 192.7 L 15.1 212.7 L 12.7 212.7 Z M 18.8 216.5 C 19 216.6 19.5 216.7 19.7 216.7 C 20.6 216.7 21.1 216.3 21.4 215.2 C 21.45 215.22 22.2 213 22.2 213 L 17.4 198.2 L 19.7 198.2 L 23.3 210.1 L 27 198.2 L 29.3 198.2 C 29.3 198.2 23.49 215.76 23.5 215.8 C 22.8 217.9 21.6 218.6 19.9 218.6 C 19.4 218.6 18.8 218.5 18.4 218.4 C 18.4 218.4 18.8 216.5 18.8 216.5 Z M 39.7 212.7 C 39.7 212.7 39.72 210.63 39.7 210.6 C 38.9 212.1 37.4 213.1 35.9 213.1 C 32.7 213.1 30.7 210 30.7 205.5 C 30.7 201 32.6 197.9 35.9 197.9 C 37.4 197.9 38.8 198.7 39.7 200.3 C 39.72 200.31 39.7 192.7 39.7 192.7 L 41.9 192.7 L 41.9 212.7 L 39.7 212.7 Z M 39.7 208.8 C 39.7 208.8 39.7 202.1 39.7 202.1 C 39.2 200.9 37.8 199.8 36.4 199.8 C 34.1 199.8 33 202.3 33 205.5 C 33 208.6 34.1 211.1 36.4 211.1 C 37.8 211.1 39.2 210.1 39.7 208.8 Z M 45.8 212.7 L 45.8 198.2 L 48 198.2 C 48 198.2 47.97 200.52 48 200.5 C 48.9 199 50.3 197.9 52.1 197.9 C 52.1 197.9 52.1 200.1 52.1 200.1 C 51.8 200.1 51.6 200 51.4 200 C 50 200 48.6 201.2 48 202.4 C 47.97 202.41 48 212.7 48 212.7 L 45.8 212.7 Z M 53.8 205.4 C 53.8 201.4 55.9 197.9 59.7 197.9 C 63.6 197.9 65.6 201.4 65.6 205.4 C 65.6 209.5 63.6 213.1 59.7 213.1 C 55.9 213.1 53.8 209.5 53.8 205.4 Z M 63.4 205.4 C 63.4 202.5 62.3 199.8 59.7 199.8 C 57.2 199.8 56.1 202.5 56.1 205.4 C 56.1 208.4 57.2 211.1 59.7 211.1 C 62.3 211.1 63.4 208.4 63.4 205.4 Z M 75.6 212.7 L 72.2 206.9 L 68.9 212.7 L 66.5 212.7 L 70.9 205.3 L 66.7 198.2 L 69.1 198.2 L 72.2 203.7 L 75.3 198.2 L 77.7 198.2 L 73.6 205.3 L 78 212.7 L 75.6 212.7 Z M 79.9 216.5 C 80.2 216.6 80.6 216.7 80.8 216.7 C 81.7 216.7 82.2 216.3 82.6 215.2 C 82.56 215.22 83.3 213 83.3 213 L 78.5 198.2 L 80.8 198.2 L 84.4 210.1 L 88.1 198.2 L 90.4 198.2 C 90.4 198.2 84.6 215.76 84.6 215.8 C 83.9 217.9 82.7 218.6 81 218.6 C 80.5 218.6 79.9 218.5 79.6 218.4 C 79.6 218.4 79.9 216.5 79.9 216.5 Z M 92.5 212.7 L 92.5 192.7 L 94.7 192.7 L 94.7 212.7 L 92.5 212.7 Z M 112.9 212.7 C 112.9 212.7 112.92 202.38 112.9 202.4 C 112.9 200.5 112 199.8 110.6 199.8 C 109.2 199.8 107.9 200.9 107.2 202.1 C 107.22 202.08 107.2 212.7 107.2 212.7 L 105.1 212.7 L 105.1 198.2 L 107.2 198.2 C 107.2 198.2 107.22 200.28 107.2 200.3 C 108.1 199 109.7 197.9 111.4 197.9 C 113.9 197.9 115.1 199.2 115.1 201.8 C 115.08 201.78 115.1 212.7 115.1 212.7 L 112.9 212.7 Z M 118.3 205.4 C 118.3 201.4 120.4 197.9 124.2 197.9 C 128.1 197.9 130.1 201.4 130.1 205.4 C 130.1 209.5 128.1 213.1 124.2 213.1 C 120.4 213.1 118.3 209.5 118.3 205.4 Z M 127.9 205.4 C 127.9 202.5 126.7 199.8 124.2 199.8 C 121.7 199.8 120.6 202.5 120.6 205.4 C 120.6 208.4 121.7 211.1 124.2 211.1 C 126.7 211.1 127.9 208.4 127.9 205.4 Z M 141.2 212.7 C 141.2 212.7 141.18 202.38 141.2 202.4 C 141.2 200.5 140.3 199.8 138.9 199.8 C 137.5 199.8 136.1 200.9 135.5 202.1 C 135.48 202.08 135.5 212.7 135.5 212.7 L 133.3 212.7 L 133.3 198.2 L 135.5 198.2 C 135.5 198.2 135.48 200.28 135.5 200.3 C 136.3 199 137.9 197.9 139.7 197.9 C 142.1 197.9 143.3 199.2 143.3 201.8 C 143.34 201.78 143.3 212.7 143.3 212.7 L 141.2 212.7 Z M 154.7 212.7 C 154.7 212.7 154.74 211.14 154.7 211.1 C 153.8 212.5 152.4 213.1 150.9 213.1 C 148.6 213.1 146.5 211.3 146.5 208.2 C 146.5 205.2 148.6 203.5 150.9 203.5 C 152.4 203.5 153.8 204 154.7 205.3 C 154.7 205.3 154.7 202.8 154.7 202.8 C 154.7 200.8 153.7 199.7 151.8 199.7 C 150.4 199.7 149.2 200.2 148.1 201.5 C 148.1 201.5 147.2 200 147.2 200 C 148.6 198.5 150.3 197.9 152.1 197.9 C 155 197.9 156.9 199.3 156.9 202.6 C 156.9 202.56 156.9 212.7 156.9 212.7 L 154.7 212.7 Z M 154.7 209.7 C 154.7 209.7 154.7 206.9 154.7 206.9 C 154.1 205.7 152.9 205.1 151.6 205.1 C 149.8 205.1 148.7 206.5 148.7 208.3 C 148.7 210.1 149.8 211.5 151.6 211.5 C 152.9 211.5 154.1 210.9 154.7 209.7 Z M 169.1 212.7 C 169.1 212.7 169.11 210.63 169.1 210.6 C 168.3 212.1 166.8 213.1 165.3 213.1 C 162.1 213.1 160.1 210 160.1 205.5 C 160.1 201 162 197.9 165.3 197.9 C 166.8 197.9 168.2 198.7 169.1 200.3 C 169.11 200.31 169.1 192.7 169.1 192.7 L 171.3 192.7 L 171.3 212.7 L 169.1 212.7 Z M 169.1 208.8 C 169.1 208.8 169.1 202.1 169.1 202.1 C 168.6 200.9 167.2 199.8 165.8 199.8 C 163.5 199.8 162.4 202.3 162.4 205.5 C 162.4 208.6 163.5 211.1 165.8 211.1 C 167.2 211.1 168.6 210.1 169.1 208.8 Z M 174.5 205.4 C 174.5 201.4 176.5 197.9 180.4 197.9 C 184.3 197.9 186.3 201.4 186.3 205.4 C 186.3 209.5 184.3 213.1 180.4 213.1 C 176.5 213.1 174.5 209.5 174.5 205.4 Z M 184 205.4 C 184 202.5 182.9 199.8 180.4 199.8 C 177.9 199.8 176.8 202.5 176.8 205.4 C 176.8 208.4 177.9 211.1 180.4 211.1 C 182.9 211.1 184 208.4 184 205.4 Z M 197.4 212.7 C 197.4 212.7 197.37 202.38 197.4 202.4 C 197.4 200.5 196.5 199.8 195.1 199.8 C 193.6 199.8 192.3 200.9 191.7 202.1 C 191.67 202.08 191.7 212.7 191.7 212.7 L 189.5 212.7 L 189.5 198.2 L 191.7 198.2 C 191.7 198.2 191.67 200.28 191.7 200.3 C 192.5 199 194.1 197.9 195.9 197.9 C 198.3 197.9 199.5 199.2 199.5 201.8 C 199.53 201.78 199.5 212.7 199.5 212.7 L 197.4 212.7 Z M 202.8 205.4 C 202.8 201.2 205 197.9 208.6 197.9 C 212.5 197.9 214.4 201.3 214.4 205.5 C 214.38 205.5 214.4 206.2 214.4 206.2 C 214.4 206.2 204.99 206.16 205 206.2 C 205.1 209.1 206.6 211.3 209.2 211.3 C 210.4 211.3 211.7 210.6 212.6 209.5 C 212.6 209.5 213.7 210.8 213.7 210.8 C 212.6 212.2 210.9 213.1 209 213.1 C 205.1 213.1 202.8 209.9 202.8 205.4 Z M 208.6 199.7 C 206.1 199.7 205 202.4 205 204.6 C 205 204.6 212.2 204.6 212.2 204.6 C 212.2 202.4 211.3 199.7 208.6 199.7 Z " stroke="none" fill="#d3d2d2"/>  </g>  <g id="Polygon161396">    <path d="M 10.3 176.7 C 10.3 176.7 10.26 174.63 10.3 174.6 C 9.4 176.1 8 177.1 6.4 177.1 C 3.2 177.1 1.3 174 1.3 169.5 C 1.3 165 3.2 161.9 6.4 161.9 C 7.9 161.9 9.4 162.7 10.3 164.3 C 10.26 164.31 10.3 156.7 10.3 156.7 L 12.4 156.7 L 12.4 176.7 L 10.3 176.7 Z M 10.3 172.8 C 10.3 172.8 10.3 166.1 10.3 166.1 C 9.7 164.9 8.4 163.8 7 163.8 C 4.6 163.8 3.5 166.3 3.5 169.5 C 3.5 172.6 4.6 175.1 7 175.1 C 8.4 175.1 9.7 174.1 10.3 172.8 Z M 15 170.4 L 15 168.5 L 21.2 168.5 L 21.2 170.4 L 15 170.4 Z M 34.5 176.7 L 34.5 167.5 L 26.3 167.5 L 26.3 176.7 L 23.9 176.7 L 23.9 156.7 L 26.3 156.7 L 26.3 165.4 L 34.5 165.4 L 34.5 156.7 L 36.9 156.7 L 36.9 176.7 L 34.5 176.7 Z M 40 169.4 C 40 165.2 42.2 161.9 45.9 161.9 C 49.7 161.9 51.6 165.3 51.6 169.5 C 51.6 169.5 51.6 170.2 51.6 170.2 C 51.6 170.2 42.21 170.16 42.2 170.2 C 42.3 173.1 43.8 175.3 46.4 175.3 C 47.6 175.3 48.9 174.6 49.8 173.5 C 49.8 173.5 51 174.8 51 174.8 C 49.8 176.2 48.1 177.1 46.2 177.1 C 42.3 177.1 40 173.9 40 169.4 Z M 45.8 163.7 C 43.3 163.7 42.3 166.4 42.2 168.6 C 42.2 168.6 49.5 168.6 49.5 168.6 C 49.4 166.4 48.5 163.7 45.8 163.7 Z M 61.9 176.7 L 58.6 170.9 L 55.2 176.7 L 52.8 176.7 L 57.2 169.3 L 53.1 162.2 L 55.5 162.2 L 58.6 167.7 L 61.6 162.2 L 64 162.2 L 59.9 169.3 L 64.3 176.7 L 61.9 176.7 Z M 73.8 176.7 C 73.8 176.7 73.77 175.14 73.8 175.1 C 72.8 176.5 71.4 177.1 70 177.1 C 67.6 177.1 65.6 175.3 65.6 172.2 C 65.6 169.2 67.6 167.5 70 167.5 C 71.4 167.5 72.9 168 73.8 169.3 C 73.8 169.3 73.8 166.8 73.8 166.8 C 73.8 164.8 72.7 163.7 70.8 163.7 C 69.4 163.7 68.3 164.2 67.2 165.5 C 67.2 165.5 66.2 164 66.2 164 C 67.6 162.5 69.3 161.9 71.1 161.9 C 74 161.9 75.9 163.3 75.9 166.6 C 75.93 166.56 75.9 176.7 75.9 176.7 L 73.8 176.7 Z M 73.8 173.7 C 73.8 173.7 73.8 170.9 73.8 170.9 C 73.1 169.7 71.9 169.1 70.6 169.1 C 68.8 169.1 67.8 170.5 67.8 172.3 C 67.8 174.1 68.8 175.5 70.6 175.5 C 71.9 175.5 73.1 174.9 73.8 173.7 Z M 87.8 176.7 C 87.8 176.7 87.84 174.63 87.8 174.6 C 87 176.1 85.6 177.1 84 177.1 C 80.8 177.1 78.8 174 78.8 169.5 C 78.8 165 80.8 161.9 84 161.9 C 85.5 161.9 87 162.7 87.8 164.3 C 87.84 164.31 87.8 156.7 87.8 156.7 L 90 156.7 L 90 176.7 L 87.8 176.7 Z M 87.8 172.8 C 87.8 172.8 87.8 166.1 87.8 166.1 C 87.3 164.9 85.9 163.8 84.6 163.8 C 82.2 163.8 81.1 166.3 81.1 169.5 C 81.1 172.6 82.2 175.1 84.6 175.1 C 85.9 175.1 87.3 174.1 87.8 172.8 Z M 92.9 169.4 C 92.9 165.2 95.2 161.9 98.8 161.9 C 102.6 161.9 104.5 165.3 104.5 169.5 C 104.55 169.5 104.5 170.2 104.5 170.2 C 104.5 170.2 95.16 170.16 95.2 170.2 C 95.2 173.1 96.7 175.3 99.3 175.3 C 100.6 175.3 101.9 174.6 102.8 173.5 C 102.8 173.5 103.9 174.8 103.9 174.8 C 102.7 176.2 101.1 177.1 99.1 177.1 C 95.3 177.1 92.9 173.9 92.9 169.4 Z M 98.8 163.7 C 96.2 163.7 95.2 166.4 95.2 168.6 C 95.2 168.6 102.4 168.6 102.4 168.6 C 102.4 166.4 101.4 163.7 98.8 163.7 Z M 106.7 169.4 C 106.7 165.2 109 161.9 112.7 161.9 C 114.7 161.9 115.9 162.7 116.8 163.8 C 116.8 163.8 115.6 165.2 115.6 165.2 C 114.9 164.2 114 163.8 112.9 163.8 C 110.3 163.8 108.9 166.4 108.9 169.4 C 108.9 172.5 110.3 175.1 112.9 175.1 C 114 175.1 114.9 174.7 115.6 173.7 C 115.6 173.7 116.8 175.1 116.8 175.1 C 115.9 176.3 114.7 177.1 112.7 177.1 C 109 177.1 106.7 173.7 106.7 169.4 Z M 126.7 176.7 C 126.7 176.7 126.72 175.14 126.7 175.1 C 125.8 176.5 124.4 177.1 122.9 177.1 C 120.6 177.1 118.5 175.3 118.5 172.2 C 118.5 169.2 120.5 167.5 122.9 167.5 C 124.4 167.5 125.8 168 126.7 169.3 C 126.7 169.3 126.7 166.8 126.7 166.8 C 126.7 164.8 125.6 163.7 123.7 163.7 C 122.4 163.7 121.2 164.2 120.1 165.5 C 120.1 165.5 119.2 164 119.2 164 C 120.5 162.5 122.2 161.9 124.1 161.9 C 127 161.9 128.9 163.3 128.9 166.6 C 128.88 166.56 128.9 176.7 128.9 176.7 L 126.7 176.7 Z M 126.7 173.7 C 126.7 173.7 126.7 170.9 126.7 170.9 C 126.1 169.7 124.9 169.1 123.6 169.1 C 121.8 169.1 120.7 170.5 120.7 172.3 C 120.7 174.1 121.8 175.5 123.6 175.5 C 124.9 175.5 126.1 174.9 126.7 173.7 Z M 132.5 176.7 L 132.5 156.7 L 134.6 156.7 L 134.6 176.7 L 132.5 176.7 Z M 145.7 176.7 C 145.7 176.7 145.74 175.14 145.7 175.1 C 144.8 176.5 143.4 177.1 141.9 177.1 C 139.6 177.1 137.5 175.3 137.5 172.2 C 137.5 169.2 139.6 167.5 141.9 167.5 C 143.4 167.5 144.8 168 145.7 169.3 C 145.7 169.3 145.7 166.8 145.7 166.8 C 145.7 164.8 144.7 163.7 142.8 163.7 C 141.4 163.7 140.2 164.2 139.1 165.5 C 139.1 165.5 138.2 164 138.2 164 C 139.6 162.5 141.3 161.9 143.1 161.9 C 146 161.9 147.9 163.3 147.9 166.6 C 147.9 166.56 147.9 176.7 147.9 176.7 L 145.7 176.7 Z M 145.7 173.7 C 145.7 173.7 145.7 170.9 145.7 170.9 C 145.1 169.7 143.9 169.1 142.6 169.1 C 140.8 169.1 139.7 170.5 139.7 172.3 C 139.7 174.1 140.8 175.5 142.6 175.5 C 143.9 175.5 145.1 174.9 145.7 173.7 Z M 150.8 169.4 C 150.8 165.2 153.1 161.9 156.8 161.9 C 158.8 161.9 160 162.7 160.9 163.8 C 160.9 163.8 159.8 165.2 159.8 165.2 C 159 164.2 158.1 163.8 157 163.8 C 154.4 163.8 153.1 166.4 153.1 169.4 C 153.1 172.5 154.4 175.1 157 175.1 C 158.1 175.1 159 174.7 159.8 173.7 C 159.8 173.7 160.9 175.1 160.9 175.1 C 160 176.3 158.8 177.1 156.8 177.1 C 153.1 177.1 150.8 173.7 150.8 169.4 Z M 163.8 173.8 C 163.83 173.79 163.8 164.1 163.8 164.1 L 161.9 164.1 L 161.9 162.2 L 163.8 162.2 L 163.8 158.3 L 166 158.3 L 166 162.2 L 168.4 162.2 L 168.4 164.1 L 166 164.1 C 166 164.1 165.99 173.4 166 173.4 C 166 174.5 166.3 175.1 167.2 175.1 C 167.7 175.1 168.1 174.9 168.4 174.6 C 168.4 174.6 169.1 176.2 169.1 176.2 C 168.6 176.7 167.8 177.1 166.7 177.1 C 164.8 177.1 163.8 176 163.8 173.8 Z M 170.3 169.4 C 170.3 165.4 172.3 161.9 176.2 161.9 C 180.1 161.9 182.1 165.4 182.1 169.4 C 182.1 173.5 180.1 177.1 176.2 177.1 C 172.3 177.1 170.3 173.5 170.3 169.4 Z M 179.8 169.4 C 179.8 166.5 178.7 163.8 176.2 163.8 C 173.7 163.8 172.5 166.5 172.5 169.4 C 172.5 172.4 173.7 175.1 176.2 175.1 C 178.7 175.1 179.8 172.4 179.8 169.4 Z M 192.8 176.7 C 192.8 176.7 192.84 166.38 192.8 166.4 C 192.8 164.5 192 163.8 190.5 163.8 C 189.1 163.8 187.8 164.9 187.1 166.1 C 187.14 166.08 187.1 176.7 187.1 176.7 L 185 176.7 L 185 162.2 L 187.1 162.2 C 187.1 162.2 187.14 164.28 187.1 164.3 C 188 163 189.6 161.9 191.3 161.9 C 193.8 161.9 195 163.2 195 165.8 C 195 165.78 195 176.7 195 176.7 L 192.8 176.7 Z M 197.9 169.4 C 197.9 165.2 200.2 161.9 203.8 161.9 C 207.6 161.9 209.5 165.3 209.5 169.5 C 209.55 169.5 209.5 170.2 209.5 170.2 C 209.5 170.2 200.16 170.16 200.2 170.2 C 200.2 173.1 201.7 175.3 204.3 175.3 C 205.6 175.3 206.9 174.6 207.8 173.5 C 207.8 173.5 208.9 174.8 208.9 174.8 C 207.7 176.2 206.1 177.1 204.1 177.1 C 200.3 177.1 197.9 173.9 197.9 169.4 Z M 203.8 163.7 C 201.2 163.7 200.2 166.4 200.2 168.6 C 200.2 168.6 207.4 168.6 207.4 168.6 C 207.4 166.4 206.4 163.7 203.8 163.7 Z " stroke="none" fill="#d3d2d2"/>  </g>  <g id="Polygon161395">    <path d="M 1.6 140.7 C 1.6 140.7 1.59 138.75 1.6 138.8 C 8.1 131.2 10.4 128.8 10.4 125.9 C 10.4 123.7 8.9 122.5 7.2 122.5 C 5.3 122.5 3.9 123.5 2.9 125 C 2.9 125 1.4 123.6 1.4 123.6 C 2.7 121.6 4.7 120.4 7.2 120.4 C 10.3 120.4 12.8 122.4 12.8 125.9 C 12.8 129.2 10.3 132.2 5 138.6 C 4.98 138.57 12.9 138.6 12.9 138.6 L 12.9 140.7 L 1.6 140.7 Z M 17.2 144.5 C 17.2 144.5 16.1 143.6 16.1 143.6 C 17 143 17.9 141.8 18 140.8 C 17.9 140.8 17.7 140.9 17.6 140.9 C 16.8 140.9 16.2 140.2 16.2 139.4 C 16.2 138.5 16.9 137.8 17.8 137.8 C 18.7 137.8 19.6 138.6 19.6 140 C 19.6 141.8 18.5 143.5 17.2 144.5 Z M 21.5 130.7 C 21.5 125.3 23.5 120.4 28.3 120.4 C 30.4 120.4 32 121.4 33 122.9 C 33 122.9 31.7 124.6 31.7 124.6 C 30.9 123.3 30 122.5 28.3 122.5 C 25.1 122.5 23.9 126.7 23.9 130.5 C 23.9 130.8 23.9 130.9 24 131.1 C 24.7 129.7 26.3 128.2 28.4 128.2 C 31.3 128.2 33.6 130.3 33.6 134.6 C 33.6 137.9 31.6 141.1 27.9 141.1 C 23.1 141.1 21.5 136.1 21.5 130.7 Z M 31.2 134.6 C 31.2 131.4 29.7 130.2 27.8 130.2 C 26.1 130.2 24.8 131.7 24 133.3 C 24.2 135.5 24.9 138.9 27.8 138.9 C 30.2 138.9 31.2 136.7 31.2 134.6 Z M 35.5 134.4 L 35.5 132.5 L 41.7 132.5 L 41.7 134.4 L 35.5 134.4 Z M 44.4 140.7 L 44.4 120.7 L 46.8 120.7 L 46.8 138.6 L 54 138.6 L 54 140.7 L 44.4 140.7 Z M 64 140.7 C 64 140.7 63.99 138.69 64 138.7 C 63.1 140 61.6 141.1 59.8 141.1 C 57.3 141.1 56.2 139.8 56.2 137.2 C 56.16 137.19 56.2 126.2 56.2 126.2 L 58.3 126.2 C 58.3 126.2 58.29 136.56 58.3 136.6 C 58.3 138.5 59.2 139.1 60.6 139.1 C 62 139.1 63.4 138.1 64 136.9 C 63.99 136.89 64 126.2 64 126.2 L 66.1 126.2 L 66.1 140.7 L 64 140.7 Z M 70.2 137.8 C 70.23 137.79 70.2 128.1 70.2 128.1 L 68.3 128.1 L 68.3 126.2 L 70.2 126.2 L 70.2 122.3 L 72.4 122.3 L 72.4 126.2 L 74.8 126.2 L 74.8 128.1 L 72.4 128.1 C 72.4 128.1 72.39 137.4 72.4 137.4 C 72.4 138.5 72.7 139.1 73.6 139.1 C 74.1 139.1 74.5 138.9 74.8 138.6 C 74.8 138.6 75.5 140.2 75.5 140.2 C 75 140.7 74.2 141.1 73.1 141.1 C 71.2 141.1 70.2 140 70.2 137.8 Z M 77 122.6 C 77 121.8 77.7 121.2 78.4 121.2 C 79.3 121.2 79.9 121.8 79.9 122.6 C 79.9 123.5 79.3 124.1 78.4 124.1 C 77.7 124.1 77 123.5 77 122.6 Z M 77.4 140.7 L 77.4 126.2 L 79.5 126.2 L 79.5 140.7 L 77.4 140.7 Z M 91.5 140.7 C 91.5 140.7 91.47 138.63 91.5 138.6 C 90.6 140.1 89.2 141.1 87.7 141.1 C 84.4 141.1 82.5 138 82.5 133.5 C 82.5 129 84.4 125.9 87.7 125.9 C 89.1 125.9 90.6 126.7 91.5 128.3 C 91.47 128.31 91.5 120.7 91.5 120.7 L 93.6 120.7 L 93.6 140.7 L 91.5 140.7 Z M 91.5 136.8 C 91.5 136.8 91.5 130.1 91.5 130.1 C 90.9 128.9 89.6 127.8 88.2 127.8 C 85.8 127.8 84.7 130.3 84.7 133.5 C 84.7 136.6 85.8 139.1 88.2 139.1 C 89.6 139.1 90.9 138.1 91.5 136.8 Z M 96.9 122.6 C 96.9 121.8 97.6 121.2 98.3 121.2 C 99.1 121.2 99.8 121.8 99.8 122.6 C 99.8 123.5 99.1 124.1 98.3 124.1 C 97.6 124.1 96.9 123.5 96.9 122.6 Z M 97.3 140.7 L 97.3 126.2 L 99.4 126.2 L 99.4 140.7 L 97.3 140.7 Z M 110.9 140.7 C 110.9 140.7 110.91 130.38 110.9 130.4 C 110.9 128.5 110 127.8 108.6 127.8 C 107.2 127.8 105.9 128.9 105.2 130.1 C 105.21 130.08 105.2 140.7 105.2 140.7 L 103.1 140.7 L 103.1 126.2 L 105.2 126.2 C 105.2 126.2 105.21 128.28 105.2 128.3 C 106 127 107.7 125.9 109.4 125.9 C 111.9 125.9 113.1 127.2 113.1 129.8 C 113.07 129.78 113.1 140.7 113.1 140.7 L 110.9 140.7 Z M 116 133.4 C 116 129.2 118.2 125.9 121.9 125.9 C 125.7 125.9 127.6 129.3 127.6 133.5 C 127.62 133.5 127.6 134.2 127.6 134.2 C 127.6 134.2 118.23 134.16 118.2 134.2 C 118.3 137.1 119.8 139.3 122.4 139.3 C 123.7 139.3 124.9 138.6 125.8 137.5 C 125.8 137.5 127 138.8 127 138.8 C 125.8 140.2 124.2 141.1 122.2 141.1 C 118.3 141.1 116 137.9 116 133.4 Z M 121.9 127.7 C 119.3 127.7 118.3 130.4 118.2 132.6 C 118.2 132.6 125.5 132.6 125.5 132.6 C 125.5 130.4 124.5 127.7 121.9 127.7 Z " stroke="none" fill="#d3d2d2"/>  </g>  <g id="Polygon161394">    <path d="M 2.1 104.7 L 2.1 84.7 C 2.1 84.7 7.44 84.69 7.4 84.7 C 12.6 84.7 15.5 89 15.5 94.7 C 15.5 100.5 12.6 104.7 7.4 104.7 C 7.44 104.7 2.1 104.7 2.1 104.7 Z M 13 94.7 C 13 90.2 11.2 86.8 7.4 86.8 C 7.44 86.79 4.5 86.8 4.5 86.8 L 4.5 102.6 C 4.5 102.6 7.44 102.57 7.4 102.6 C 11.1 102.6 13 99.2 13 94.7 Z M 18.2 86.6 C 18.2 85.8 18.9 85.2 19.6 85.2 C 20.5 85.2 21.1 85.8 21.1 86.6 C 21.1 87.5 20.5 88.1 19.6 88.1 C 18.9 88.1 18.2 87.5 18.2 86.6 Z M 18.6 104.7 L 18.6 90.2 L 20.7 90.2 L 20.7 104.7 L 18.6 104.7 Z M 31.8 104.7 C 31.8 104.7 31.83 103.14 31.8 103.1 C 30.9 104.5 29.5 105.1 28 105.1 C 25.7 105.1 23.6 103.3 23.6 100.2 C 23.6 97.2 25.6 95.5 28 95.5 C 29.5 95.5 30.9 96 31.8 97.3 C 31.8 97.3 31.8 94.8 31.8 94.8 C 31.8 92.8 30.7 91.7 28.9 91.7 C 27.5 91.7 26.3 92.2 25.2 93.5 C 25.2 93.5 24.3 92 24.3 92 C 25.6 90.5 27.4 89.9 29.2 89.9 C 32.1 89.9 34 91.3 34 94.6 C 33.99 94.56 34 104.7 34 104.7 L 31.8 104.7 Z M 31.8 101.7 C 31.8 101.7 31.8 98.9 31.8 98.9 C 31.2 97.7 30 97.1 28.7 97.1 C 26.9 97.1 25.8 98.5 25.8 100.3 C 25.8 102.1 26.9 103.5 28.7 103.5 C 30 103.5 31.2 102.9 31.8 101.7 Z M 36.9 97.4 C 36.9 93.2 39.2 89.9 42.9 89.9 C 44.9 89.9 46.1 90.7 47 91.8 C 47 91.8 45.9 93.2 45.9 93.2 C 45.1 92.2 44.2 91.8 43.1 91.8 C 40.5 91.8 39.1 94.4 39.1 97.4 C 39.1 100.5 40.5 103.1 43.1 103.1 C 44.2 103.1 45.1 102.7 45.9 101.7 C 45.9 101.7 47 103.1 47 103.1 C 46.1 104.3 44.9 105.1 42.9 105.1 C 39.2 105.1 36.9 101.7 36.9 97.4 Z M 48.8 97.4 C 48.8 93.2 51 89.9 54.7 89.9 C 58.5 89.9 60.4 93.3 60.4 97.5 C 60.39 97.5 60.4 98.2 60.4 98.2 C 60.4 98.2 51 98.16 51 98.2 C 51.1 101.1 52.6 103.3 55.2 103.3 C 56.4 103.3 57.7 102.6 58.6 101.5 C 58.6 101.5 59.8 102.8 59.8 102.8 C 58.6 104.2 56.9 105.1 55 105.1 C 51.1 105.1 48.8 101.9 48.8 97.4 Z M 54.6 91.7 C 52.1 91.7 51.1 94.4 51 96.6 C 51 96.6 58.3 96.6 58.3 96.6 C 58.2 94.4 57.3 91.7 54.6 91.7 Z M 63.7 101.8 C 63.66 101.79 63.7 92.1 63.7 92.1 L 61.7 92.1 L 61.7 90.2 L 63.7 90.2 L 63.7 86.3 L 65.8 86.3 L 65.8 90.2 L 68.3 90.2 L 68.3 92.1 L 65.8 92.1 C 65.8 92.1 65.82 101.4 65.8 101.4 C 65.8 102.5 66.1 103.1 67 103.1 C 67.5 103.1 68 102.9 68.2 102.6 C 68.2 102.6 68.9 104.2 68.9 104.2 C 68.4 104.7 67.7 105.1 66.6 105.1 C 64.6 105.1 63.7 104 63.7 101.8 Z M 70.4 108.5 C 70.7 108.6 71.1 108.7 71.4 108.7 C 72.2 108.7 72.7 108.3 73.1 107.2 C 73.08 107.22 73.9 105 73.9 105 L 69 90.2 L 71.4 90.2 L 75 102.1 L 78.6 90.2 L 80.9 90.2 C 80.9 90.2 75.12 107.76 75.1 107.8 C 74.4 109.9 73.2 110.6 71.5 110.6 C 71.1 110.6 70.4 110.5 70.1 110.4 C 70.1 110.4 70.4 108.5 70.4 108.5 Z M 82.8 104.7 L 82.8 84.7 L 84.9 84.7 L 84.9 104.7 L 82.8 104.7 Z " stroke="none" fill="#d3d2d2"/>  </g>  <g id="Polygon161393">    <path d="M 12.7 68.7 L 12.7 59.5 L 4.5 59.5 L 4.5 68.7 L 2.1 68.7 L 2.1 48.7 L 4.5 48.7 L 4.5 57.4 L 12.7 57.4 L 12.7 48.7 L 15.1 48.7 L 15.1 68.7 L 12.7 68.7 Z M 18.5 72.5 C 18.7 72.6 19.2 72.7 19.4 72.7 C 20.3 72.7 20.8 72.3 21.1 71.2 C 21.15 71.22 21.9 69 21.9 69 L 17.1 54.2 L 19.4 54.2 L 23 66.1 L 26.7 54.2 L 29 54.2 C 29 54.2 23.19 71.76 23.2 71.8 C 22.5 73.9 21.3 74.6 19.6 74.6 C 19.1 74.6 18.5 74.5 18.1 74.4 C 18.1 74.4 18.5 72.5 18.5 72.5 Z M 39.1 68.7 C 39.1 68.7 39.12 66.63 39.1 66.6 C 38.3 68.1 36.8 69.1 35.3 69.1 C 32.1 69.1 30.1 66 30.1 61.5 C 30.1 57 32 53.9 35.3 53.9 C 36.8 53.9 38.2 54.7 39.1 56.3 C 39.12 56.31 39.1 48.7 39.1 48.7 L 41.3 48.7 L 41.3 68.7 L 39.1 68.7 Z M 39.1 64.8 C 39.1 64.8 39.1 58.1 39.1 58.1 C 38.6 56.9 37.2 55.8 35.8 55.8 C 33.5 55.8 32.4 58.3 32.4 61.5 C 32.4 64.6 33.5 67.1 35.8 67.1 C 37.2 67.1 38.6 66.1 39.1 64.8 Z M 44.9 68.7 L 44.9 54.2 L 47.1 54.2 C 47.1 54.2 47.07 56.52 47.1 56.5 C 48 55 49.4 53.9 51.2 53.9 C 51.2 53.9 51.2 56.1 51.2 56.1 C 50.9 56.1 50.7 56 50.5 56 C 49.1 56 47.7 57.2 47.1 58.4 C 47.07 58.41 47.1 68.7 47.1 68.7 L 44.9 68.7 Z M 52.6 61.4 C 52.6 57.4 54.7 53.9 58.5 53.9 C 62.4 53.9 64.4 57.4 64.4 61.4 C 64.4 65.5 62.4 69.1 58.5 69.1 C 54.7 69.1 52.6 65.5 52.6 61.4 Z M 62.2 61.4 C 62.2 58.5 61.1 55.8 58.5 55.8 C 56 55.8 54.9 58.5 54.9 61.4 C 54.9 64.4 56 67.1 58.5 67.1 C 61.1 67.1 62.2 64.4 62.2 61.4 Z M 67.3 72.8 C 67.3 72.8 68.2 71.1 68.2 71.1 C 69.2 72.2 70.4 72.8 72 72.8 C 74 72.8 75.7 71.6 75.7 68.8 C 75.7 68.8 75.7 66.4 75.7 66.4 C 74.8 67.9 73.4 68.9 71.8 68.9 C 68.6 68.9 66.7 65.9 66.7 61.4 C 66.7 56.9 68.6 53.9 71.8 53.9 C 73.3 53.9 74.8 54.7 75.7 56.3 C 75.66 56.31 75.7 54.2 75.7 54.2 L 77.8 54.2 C 77.8 54.2 77.82 68.67 77.8 68.7 C 77.8 73.1 75.1 74.6 72.1 74.6 C 70.1 74.6 68.6 74.1 67.3 72.8 Z M 75.7 64.6 C 75.7 64.6 75.7 58.1 75.7 58.1 C 75.1 56.9 73.8 55.8 72.4 55.8 C 70 55.8 68.9 58.3 68.9 61.4 C 68.9 64.5 70 67 72.4 67 C 73.8 67 75.1 65.8 75.7 64.6 Z M 80.7 61.4 C 80.7 57.2 82.9 53.9 86.6 53.9 C 90.4 53.9 92.3 57.3 92.3 61.5 C 92.34 61.5 92.3 62.2 92.3 62.2 C 92.3 62.2 82.95 62.16 82.9 62.2 C 83 65.1 84.5 67.3 87.1 67.3 C 88.4 67.3 89.7 66.6 90.6 65.5 C 90.6 65.5 91.7 66.8 91.7 66.8 C 90.5 68.2 88.9 69.1 86.9 69.1 C 83.1 69.1 80.7 65.9 80.7 61.4 Z M 86.6 55.7 C 84 55.7 83 58.4 82.9 60.6 C 82.9 60.6 90.2 60.6 90.2 60.6 C 90.2 58.4 89.2 55.7 86.6 55.7 Z M 103 68.7 C 103 68.7 103.02 58.38 103 58.4 C 103 56.5 102.1 55.8 100.7 55.8 C 99.3 55.8 98 56.9 97.3 58.1 C 97.32 58.08 97.3 68.7 97.3 68.7 L 95.2 68.7 L 95.2 54.2 L 97.3 54.2 C 97.3 54.2 97.32 56.28 97.3 56.3 C 98.2 55 99.8 53.9 101.5 53.9 C 104 53.9 105.2 55.2 105.2 57.8 C 105.18 57.78 105.2 68.7 105.2 68.7 L 103 68.7 Z M 113.8 67 C 113.8 67 114.9 65.5 114.9 65.5 C 115.7 66.5 117.1 67.3 118.7 67.3 C 120.4 67.3 121.5 66.4 121.5 65 C 121.5 61.6 114.2 62.8 114.2 57.8 C 114.2 55.6 116 53.9 118.9 53.9 C 120.8 53.9 122.2 54.6 123.3 55.7 C 123.3 55.7 122.2 57.2 122.2 57.2 C 121.5 56.2 120.3 55.6 118.9 55.6 C 117.3 55.6 116.3 56.5 116.3 57.7 C 116.3 60.8 123.5 59.7 123.5 64.9 C 123.5 67.3 121.7 69.1 118.7 69.1 C 116.7 69.1 115 68.4 113.8 67 Z M 134.1 68.7 C 134.1 68.7 134.13 66.69 134.1 66.7 C 133.3 68 131.7 69.1 129.9 69.1 C 127.5 69.1 126.3 67.8 126.3 65.2 C 126.3 65.19 126.3 54.2 126.3 54.2 L 128.4 54.2 C 128.4 54.2 128.43 64.56 128.4 64.6 C 128.4 66.5 129.3 67.1 130.7 67.1 C 132.2 67.1 133.5 66.1 134.1 64.9 C 134.13 64.89 134.1 54.2 134.1 54.2 L 136.3 54.2 L 136.3 68.7 L 134.1 68.7 Z M 139.9 68.7 L 139.9 48.7 L 142.1 48.7 L 142.1 68.7 L 139.9 68.7 Z M 146.2 68.7 L 146.2 56.1 L 144.3 56.1 L 144.3 54.2 L 146.2 54.2 C 146.2 54.2 146.25 52.44 146.2 52.4 C 146.2 49.9 147.7 48.4 149.8 48.4 C 150.5 48.4 151.1 48.5 151.6 48.8 C 151.6 48.8 151.1 50.5 151.1 50.5 C 150.9 50.3 150.6 50.2 150.1 50.2 C 149 50.2 148.4 51 148.4 52.4 C 148.41 52.44 148.4 54.2 148.4 54.2 L 150.9 54.2 L 150.9 56.1 L 148.4 56.1 L 148.4 68.7 L 146.2 68.7 Z M 152.9 50.6 C 152.9 49.8 153.6 49.2 154.4 49.2 C 155.2 49.2 155.9 49.8 155.9 50.6 C 155.9 51.5 155.2 52.1 154.4 52.1 C 153.6 52.1 152.9 51.5 152.9 50.6 Z M 153.4 68.7 L 153.4 54.2 L 155.5 54.2 L 155.5 68.7 L 153.4 68.7 Z M 167.4 68.7 C 167.4 68.7 167.43 66.63 167.4 66.6 C 166.6 68.1 165.1 69.1 163.6 69.1 C 160.4 69.1 158.4 66 158.4 61.5 C 158.4 57 160.3 53.9 163.6 53.9 C 165.1 53.9 166.6 54.7 167.4 56.3 C 167.43 56.31 167.4 48.7 167.4 48.7 L 169.6 48.7 L 169.6 68.7 L 167.4 68.7 Z M 167.4 64.8 C 167.4 64.8 167.4 58.1 167.4 58.1 C 166.9 56.9 165.5 55.8 164.2 55.8 C 161.8 55.8 160.7 58.3 160.7 61.5 C 160.7 64.6 161.8 67.1 164.2 67.1 C 165.5 67.1 166.9 66.1 167.4 64.8 Z M 172.5 61.4 C 172.5 57.2 174.7 53.9 178.4 53.9 C 182.2 53.9 184.1 57.3 184.1 61.5 C 184.14 61.5 184.1 62.2 184.1 62.2 C 184.1 62.2 174.75 62.16 174.7 62.2 C 174.8 65.1 176.3 67.3 178.9 67.3 C 180.2 67.3 181.5 66.6 182.4 65.5 C 182.4 65.5 183.5 66.8 183.5 66.8 C 182.3 68.2 180.7 69.1 178.7 69.1 C 174.9 69.1 172.5 65.9 172.5 61.4 Z M 178.4 55.7 C 175.8 55.7 174.8 58.4 174.7 60.6 C 174.7 60.6 182 60.6 182 60.6 C 182 58.4 181 55.7 178.4 55.7 Z " stroke="none" fill="#d3d2d2"/>  </g>  <g id="Polygon161392">    <path d="M 12.5 32.7 L 11.2 28.2 L 4.1 28.2 L 2.8 32.7 L 0.2 32.7 L 6.2 12.7 L 9.1 12.7 L 15.1 32.7 L 12.5 32.7 Z M 7.6 15.3 L 4.6 26.1 L 10.7 26.1 L 7.6 15.3 Z M 17.3 32.7 L 17.3 12.7 L 19.4 12.7 L 19.4 32.7 L 17.3 32.7 Z M 22.7 25.4 C 22.7 21.2 25 17.9 28.7 17.9 C 30.7 17.9 31.9 18.7 32.8 19.8 C 32.8 19.8 31.6 21.2 31.6 21.2 C 30.9 20.2 30 19.8 28.9 19.8 C 26.3 19.8 24.9 22.4 24.9 25.4 C 24.9 28.5 26.3 31.1 28.9 31.1 C 30 31.1 30.9 30.7 31.6 29.7 C 31.6 29.7 32.8 31.1 32.8 31.1 C 31.9 32.3 30.7 33.1 28.7 33.1 C 25 33.1 22.7 29.7 22.7 25.4 Z M 43 32.7 C 43 32.7 43.02 31.14 43 31.1 C 42.1 32.5 40.7 33.1 39.2 33.1 C 36.9 33.1 34.8 31.3 34.8 28.2 C 34.8 25.2 36.8 23.5 39.2 23.5 C 40.7 23.5 42.1 24 43 25.3 C 43 25.3 43 22.8 43 22.8 C 43 20.8 41.9 19.7 40 19.7 C 38.7 19.7 37.5 20.2 36.4 21.5 C 36.4 21.5 35.5 20 35.5 20 C 36.8 18.5 38.5 17.9 40.4 17.9 C 43.3 17.9 45.2 19.3 45.2 22.6 C 45.18 22.56 45.2 32.7 45.2 32.7 L 43 32.7 Z M 43 29.7 C 43 29.7 43 26.9 43 26.9 C 42.4 25.7 41.2 25.1 39.9 25.1 C 38.1 25.1 37 26.5 37 28.3 C 37 30.1 38.1 31.5 39.9 31.5 C 41.2 31.5 42.4 30.9 43 29.7 Z M 56.9 32.7 C 56.9 32.7 56.94 22.38 56.9 22.4 C 56.9 20.5 56.1 19.8 54.6 19.8 C 53.2 19.8 51.9 20.9 51.2 22.1 C 51.24 22.08 51.2 32.7 51.2 32.7 L 49.1 32.7 L 49.1 18.2 L 51.2 18.2 C 51.2 18.2 51.24 20.28 51.2 20.3 C 52.1 19 53.7 17.9 55.4 17.9 C 57.9 17.9 59.1 19.2 59.1 21.8 C 59.1 21.78 59.1 32.7 59.1 32.7 L 56.9 32.7 Z M 62.6 14.6 C 62.6 13.8 63.3 13.2 64.1 13.2 C 64.9 13.2 65.6 13.8 65.6 14.6 C 65.6 15.5 64.9 16.1 64.1 16.1 C 63.3 16.1 62.6 15.5 62.6 14.6 Z M 63.1 32.7 L 63.1 18.2 L 65.2 18.2 L 65.2 32.7 L 63.1 32.7 Z M 72.1 32.7 L 67.3 18.2 L 69.7 18.2 L 73.3 30.2 L 76.9 18.2 L 79.2 18.2 L 74.5 32.7 L 72.1 32.7 Z M 80.7 25.4 C 80.7 21.4 82.7 17.9 86.5 17.9 C 90.4 17.9 92.5 21.4 92.5 25.4 C 92.5 29.5 90.4 33.1 86.5 33.1 C 82.7 33.1 80.7 29.5 80.7 25.4 Z M 90.2 25.4 C 90.2 22.5 89.1 19.8 86.5 19.8 C 84.1 19.8 82.9 22.5 82.9 25.4 C 82.9 28.4 84.1 31.1 86.5 31.1 C 89.1 31.1 90.2 28.4 90.2 25.4 Z M 95.7 32.7 L 95.7 18.2 L 97.8 18.2 C 97.8 18.2 97.83 20.52 97.8 20.5 C 98.8 19 100.2 17.9 101.9 17.9 C 101.9 17.9 101.9 20.1 101.9 20.1 C 101.7 20.1 101.5 20 101.2 20 C 99.9 20 98.4 21.2 97.8 22.4 C 97.83 22.41 97.8 32.7 97.8 32.7 L 95.7 32.7 Z M 111.9 32.7 C 111.9 32.7 111.87 31.14 111.9 31.1 C 110.9 32.5 109.5 33.1 108.1 33.1 C 105.7 33.1 103.7 31.3 103.7 28.2 C 103.7 25.2 105.7 23.5 108.1 23.5 C 109.5 23.5 111 24 111.9 25.3 C 111.9 25.3 111.9 22.8 111.9 22.8 C 111.9 20.8 110.8 19.7 108.9 19.7 C 107.5 19.7 106.4 20.2 105.3 21.5 C 105.3 21.5 104.3 20 104.3 20 C 105.7 18.5 107.4 17.9 109.2 17.9 C 112.1 17.9 114 19.3 114 22.6 C 114.03 22.56 114 32.7 114 32.7 L 111.9 32.7 Z M 111.9 29.7 C 111.9 29.7 111.9 26.9 111.9 26.9 C 111.2 25.7 110 25.1 108.7 25.1 C 106.9 25.1 105.9 26.5 105.9 28.3 C 105.9 30.1 106.9 31.5 108.7 31.5 C 110 31.5 111.2 30.9 111.9 29.7 Z M 116.8 31 C 116.8 31 117.9 29.5 117.9 29.5 C 118.7 30.5 120.1 31.3 121.6 31.3 C 123.3 31.3 124.4 30.4 124.4 29 C 124.4 25.6 117.2 26.8 117.2 21.8 C 117.2 19.6 118.9 17.9 121.8 17.9 C 123.7 17.9 125.2 18.6 126.2 19.7 C 126.2 19.7 125.2 21.2 125.2 21.2 C 124.5 20.2 123.3 19.6 121.9 19.6 C 120.3 19.6 119.3 20.5 119.3 21.7 C 119.3 24.8 126.5 23.7 126.5 28.9 C 126.5 31.3 124.6 33.1 121.7 33.1 C 119.6 33.1 118 32.4 116.8 31 Z M 128.8 25.4 C 128.8 21.2 131.1 17.9 134.7 17.9 C 138.5 17.9 140.5 21.3 140.5 25.5 C 140.46 25.5 140.5 26.2 140.5 26.2 C 140.5 26.2 131.07 26.16 131.1 26.2 C 131.2 29.1 132.7 31.3 135.2 31.3 C 136.5 31.3 137.8 30.6 138.7 29.5 C 138.7 29.5 139.8 30.8 139.8 30.8 C 138.7 32.2 137 33.1 135.1 33.1 C 131.2 33.1 128.8 29.9 128.8 25.4 Z M 134.7 19.7 C 132.1 19.7 131.1 22.4 131.1 24.6 C 131.1 24.6 138.3 24.6 138.3 24.6 C 138.3 22.4 137.3 19.7 134.7 19.7 Z M 149.3 25.4 C 149.3 21.2 151.6 17.9 155.2 17.9 C 159 17.9 160.9 21.3 160.9 25.5 C 160.95 25.5 160.9 26.2 160.9 26.2 C 160.9 26.2 151.56 26.16 151.6 26.2 C 151.6 29.1 153.1 31.3 155.7 31.3 C 157 31.3 158.3 30.6 159.2 29.5 C 159.2 29.5 160.3 30.8 160.3 30.8 C 159.1 32.2 157.5 33.1 155.5 33.1 C 151.7 33.1 149.3 29.9 149.3 25.4 Z M 155.2 19.7 C 152.6 19.7 151.6 22.4 151.6 24.6 C 151.6 24.6 158.8 24.6 158.8 24.6 C 158.8 22.4 157.8 19.7 155.2 19.7 Z M 171.5 32.7 L 168.2 26.9 L 164.9 32.7 L 162.5 32.7 L 166.9 25.3 L 162.7 18.2 L 165.1 18.2 L 168.2 23.7 L 171.3 18.2 L 173.7 18.2 L 169.5 25.3 L 173.9 32.7 L 171.5 32.7 Z M 176.7 29.8 C 176.7 29.79 176.7 20.1 176.7 20.1 L 174.8 20.1 L 174.8 18.2 L 176.7 18.2 L 176.7 14.3 L 178.9 14.3 L 178.9 18.2 L 181.3 18.2 L 181.3 20.1 L 178.9 20.1 C 178.9 20.1 178.86 29.4 178.9 29.4 C 178.9 30.5 179.2 31.1 180 31.1 C 180.6 31.1 181 30.9 181.3 30.6 C 181.3 30.6 181.9 32.2 181.9 32.2 C 181.4 32.7 180.7 33.1 179.6 33.1 C 177.6 33.1 176.7 32 176.7 29.8 Z M 184.2 32.7 L 184.2 18.2 L 186.3 18.2 C 186.3 18.2 186.29 20.52 186.3 20.5 C 187.2 19 188.6 17.9 190.4 17.9 C 190.4 17.9 190.4 20.1 190.4 20.1 C 190.2 20.1 189.9 20 189.7 20 C 188.4 20 186.9 21.2 186.3 22.4 C 186.29 22.41 186.3 32.7 186.3 32.7 L 184.2 32.7 Z M 200.3 32.7 C 200.3 32.7 200.33 31.14 200.3 31.1 C 199.4 32.5 198 33.1 196.5 33.1 C 194.2 33.1 192.1 31.3 192.1 28.2 C 192.1 25.2 194.2 23.5 196.5 23.5 C 198 23.5 199.4 24 200.3 25.3 C 200.3 25.3 200.3 22.8 200.3 22.8 C 200.3 20.8 199.3 19.7 197.4 19.7 C 196 19.7 194.8 20.2 193.7 21.5 C 193.7 21.5 192.8 20 192.8 20 C 194.2 18.5 195.9 17.9 197.7 17.9 C 200.6 17.9 202.5 19.3 202.5 22.6 C 202.49 22.56 202.5 32.7 202.5 32.7 L 200.3 32.7 Z M 200.3 29.7 C 200.3 29.7 200.3 26.9 200.3 26.9 C 199.7 25.7 198.5 25.1 197.2 25.1 C 195.4 25.1 194.3 26.5 194.3 28.3 C 194.3 30.1 195.4 31.5 197.2 31.5 C 198.5 31.5 199.7 30.9 200.3 29.7 Z M 205.7 25.4 C 205.7 21.2 208 17.9 211.7 17.9 C 213.7 17.9 214.9 18.7 215.8 19.8 C 215.8 19.8 214.7 21.2 214.7 21.2 C 213.9 20.2 213 19.8 211.9 19.8 C 209.3 19.8 208 22.4 208 25.4 C 208 28.5 209.3 31.1 211.9 31.1 C 213 31.1 213.9 30.7 214.7 29.7 C 214.7 29.7 215.8 31.1 215.8 31.1 C 214.9 32.3 213.7 33.1 211.7 33.1 C 208 33.1 205.7 29.7 205.7 25.4 Z M 219 29.8 C 219.02 29.79 219 20.1 219 20.1 L 217.1 20.1 L 217.1 18.2 L 219 18.2 L 219 14.3 L 221.2 14.3 L 221.2 18.2 L 223.6 18.2 L 223.6 20.1 L 221.2 20.1 C 221.2 20.1 221.18 29.4 221.2 29.4 C 221.2 30.5 221.5 31.1 222.4 31.1 C 222.9 31.1 223.3 30.9 223.6 30.6 C 223.6 30.6 224.3 32.2 224.3 32.2 C 223.8 32.7 223 33.1 221.9 33.1 C 220 33.1 219 32 219 29.8 Z " stroke="none" fill="#d3d2d2"/>  </g></svg>