<?xml version="1.0" standalone="no"?><!DOCTYPE svg PUBLIC "-//W3C//DTD SVG 1.1//EN" "http://www.w3.org/Graphics/SVG/1.1/DTD/svg11.dtd"><svg xmlns="http://www.w3.org/2000/svg" version="1.1" width="658px" height="197.6px" viewBox="0 0 658 197.6">  <desc>Stuffed Toy Wrapped in Masking Tape with Assorted Waste in Thick Glue</desc>  <defs/>  <g id="Polygon189958">    <path d="M 21.8 159.4 L 18.5 133.6 L 15.2 159.4 L 7.5 159.4 L 0.7 119.4 L 8.3 119.4 L 11.7 146.2 L 15.5 119.4 L 21.5 119.4 L 25.3 146.2 L 28.6 119.4 L 36.3 119.4 L 29.5 159.4 L 21.8 159.4 Z M 51 159.4 C 51 159.4 51 156.64 51 156.6 C 49.7 158.9 47 160.1 44.9 160.1 C 40.4 160.1 37.1 156.4 37.1 150.5 C 37.1 144.6 40.4 141 44.9 141 C 47 141 49.8 142.1 51 144.3 C 51 144.3 51 140.7 51 140.7 C 51 137.4 49.7 135.5 46.6 135.5 C 44.7 135.5 42.7 136.4 40.7 138.3 C 40.7 138.3 38.2 133.5 38.2 133.5 C 40.9 130.7 45 129.7 48 129.7 C 53.9 129.7 57.8 132.7 57.8 139.2 C 57.78 139.18 57.8 159.4 57.8 159.4 L 51 159.4 Z M 51 152.6 C 51 152.6 51 148.7 51 148.7 C 50.3 146.9 48.8 145.7 47.3 145.7 C 45 145.7 43.9 147.8 43.9 150.6 C 43.9 153.3 45 155.6 47.3 155.6 C 48.8 155.6 50.3 154.4 51 152.6 Z M 61.3 156.3 C 61.3 156.3 64.1 151.7 64.1 151.7 C 65.6 153.4 67.8 154.8 70.1 154.8 C 72.2 154.8 73.7 153.6 73.7 151.7 C 73.7 146.9 62.3 148 62.3 137.9 C 62.3 133.5 65.6 129.7 71.5 129.7 C 74.8 129.7 77.9 131 80 133.1 C 80 133.1 77.3 137.7 77.3 137.7 C 76.1 136.3 74 135 71.7 135 C 69.8 135 68.6 136.2 68.6 137.7 C 68.6 142.1 80.2 141.3 80.2 151.5 C 80.2 156.6 76.2 160.1 70.7 160.1 C 66.4 160.1 63.2 158.6 61.3 156.3 Z M 85 152.7 C 84.96 152.74 85 136.3 85 136.3 L 82.3 136.3 L 82.3 130.4 L 85 130.4 L 85 122.5 L 91.7 122.5 L 91.7 130.4 L 95.4 130.4 L 95.4 136.3 L 91.7 136.3 C 91.7 136.3 91.74 151.42 91.7 151.4 C 91.7 153.2 92.2 154.1 93.4 154.1 C 94 154.1 94.6 153.8 95 153.3 C 95 153.3 96.4 158.6 96.4 158.6 C 95.3 159.5 93.7 160.1 91.6 160.1 C 86.9 160.1 85 157.7 85 152.7 Z M 98.4 144.9 C 98.4 136.5 102 129.7 109.3 129.7 C 116.6 129.7 119.6 136.2 119.6 144.8 C 119.64 144.76 119.6 147.1 119.6 147.1 C 119.6 147.1 104.94 147.1 104.9 147.1 C 105 151.4 106.8 154.6 110.6 154.6 C 112.3 154.6 114.1 153.5 115.4 151.7 C 115.4 151.7 118.7 155.5 118.7 155.5 C 116.5 158.4 113.2 160.1 109.9 160.1 C 102.4 160.1 98.4 153.8 98.4 144.9 Z M 109.1 135.2 C 105.8 135.2 104.9 139.3 104.9 142.4 C 104.9 142.4 113.1 142.4 113.1 142.4 C 113.1 139.1 112.4 135.2 109.1 135.2 Z M 132.8 122.9 C 132.8 120.6 134.7 118.8 136.9 118.8 C 139.2 118.8 141.1 120.6 141.1 122.9 C 141.1 125.2 139.2 127 136.9 127 C 134.7 127 132.8 125.2 132.8 122.9 Z M 133.6 159.4 L 133.6 130.4 L 140.3 130.4 L 140.3 159.4 L 133.6 159.4 Z M 158.7 159.4 C 158.7 159.4 158.7 138.76 158.7 138.8 C 158.7 136.7 158 135.7 156.5 135.7 C 154.7 135.7 153.2 137.6 152.6 139.5 C 152.58 139.48 152.6 159.4 152.6 159.4 L 145.8 159.4 L 145.8 130.4 L 152.6 130.4 C 152.6 130.4 152.58 134.2 152.6 134.2 C 153.7 131.9 156.7 129.7 159.4 129.7 C 163.7 129.7 165.5 132.3 165.5 136.3 C 165.54 136.3 165.5 159.4 165.5 159.4 L 158.7 159.4 Z M 185.2 159.4 L 185.2 126 L 179.1 126 L 179.1 119.4 L 198.8 119.4 L 198.8 126 L 192.7 126 L 192.7 159.4 L 185.2 159.4 Z M 215.5 159.4 C 215.5 159.4 215.52 138.64 215.5 138.6 C 215.5 136.7 214.8 135.7 213.3 135.7 C 211.6 135.7 210.1 137.6 209.4 139.5 C 209.4 139.48 209.4 159.4 209.4 159.4 L 202.6 159.4 L 202.6 119.4 L 209.4 119.4 C 209.4 119.4 209.4 134.2 209.4 134.2 C 210.5 131.9 213.5 129.7 216.2 129.7 C 220.6 129.7 222.4 132.1 222.4 136.2 C 222.36 136.24 222.4 159.4 222.4 159.4 L 215.5 159.4 Z M 227 122.9 C 227 120.6 229 118.8 231.2 118.8 C 233.5 118.8 235.3 120.6 235.3 122.9 C 235.3 125.2 233.5 127 231.2 127 C 229 127 227 125.2 227 122.9 Z M 227.8 159.4 L 227.8 130.4 L 234.6 130.4 L 234.6 159.4 L 227.8 159.4 Z M 238.9 144.9 C 238.9 136.1 243 129.7 250 129.7 C 253.2 129.7 255.6 130.9 257 132.3 C 257 132.3 254.8 137.6 254.8 137.6 C 253.6 136.3 252.5 135.7 251.2 135.7 C 247.6 135.7 245.9 139.8 245.9 144.9 C 245.9 149.9 247.6 154.1 251.2 154.1 C 252.5 154.1 253.6 153.5 254.8 152.3 C 254.8 152.3 257 157.5 257 157.5 C 255.6 159 253.2 160.1 250 160.1 C 243 160.1 238.9 153.7 238.9 144.9 Z M 274.4 159.4 L 270.1 147.8 L 267.5 152.6 L 267.5 159.4 L 260.7 159.4 L 260.7 119.4 L 267.5 119.4 L 267.5 143.8 L 274.1 130.4 L 281.5 130.4 L 274.6 143.3 L 281.8 159.4 L 274.4 159.4 Z M 293.8 139.4 C 293.8 127.1 297.7 118.7 306.3 118.7 C 311.9 118.7 315 123 316.3 128.1 C 316.3 128.1 310.3 130.4 310.3 130.4 C 309.7 127.6 308.6 125.4 306.3 125.4 C 303.3 125.4 301.5 129.8 301.5 139.4 C 301.5 149 303.3 153.4 306.3 153.4 C 308 153.4 309.1 152.7 309.9 151.6 C 309.9 151.6 309.9 144.3 309.9 144.3 L 305.4 144.3 L 305.4 137.7 L 316.6 137.7 C 316.6 137.7 316.56 154.84 316.6 154.8 C 313.9 158.2 310.8 160.1 306.3 160.1 C 297.7 160.1 293.8 151.7 293.8 139.4 Z M 321.8 159.4 L 321.8 119.4 L 328.6 119.4 L 328.6 159.4 L 321.8 159.4 Z M 347 159.4 C 347 159.4 346.98 155.74 347 155.7 C 345.8 158.1 343 160.1 340.2 160.1 C 335.8 160.1 334.1 157.7 334.1 153.6 C 334.08 153.58 334.1 130.4 334.1 130.4 L 340.9 130.4 C 340.9 130.4 340.86 151.18 340.9 151.2 C 340.9 153.2 341.6 154.1 343.1 154.1 C 344.8 154.1 346.3 152.3 347 150.5 C 346.98 150.46 347 130.4 347 130.4 L 353.8 130.4 L 353.8 159.4 L 347 159.4 Z M 358.1 144.9 C 358.1 136.5 361.7 129.7 369 129.7 C 376.3 129.7 379.4 136.2 379.4 144.8 C 379.38 144.76 379.4 147.1 379.4 147.1 C 379.4 147.1 364.68 147.1 364.7 147.1 C 364.7 151.4 366.5 154.6 370.4 154.6 C 372 154.6 373.9 153.5 375.2 151.7 C 375.2 151.7 378.5 155.5 378.5 155.5 C 376.2 158.4 373 160.1 369.7 160.1 C 362.1 160.1 358.1 153.8 358.1 144.9 Z M 368.8 135.2 C 365.5 135.2 364.7 139.3 364.7 142.4 C 364.7 142.4 372.8 142.4 372.8 142.4 C 372.8 139.1 372.1 135.2 368.8 135.2 Z " stroke="none" fill="#e9e8e8"/>  </g>  <g id="Polygon189957">    <path d="M 26.4 103.4 L 26.4 79.8 L 19.7 103.4 L 17.2 103.4 L 10.7 79.8 L 10.7 103.4 L 3.1 103.4 L 3.1 63.4 L 12.7 63.4 L 18.5 83.8 L 24.4 63.4 L 33.8 63.4 L 33.8 103.4 L 26.4 103.4 Z M 52.3 103.4 C 52.3 103.4 52.32 100.64 52.3 100.6 C 51.1 102.9 48.4 104.1 46.3 104.1 C 41.7 104.1 38.4 100.4 38.4 94.5 C 38.4 88.6 41.7 85 46.3 85 C 48.4 85 51.1 86.1 52.3 88.3 C 52.3 88.3 52.3 84.7 52.3 84.7 C 52.3 81.4 51 79.5 47.9 79.5 C 46 79.5 44 80.4 42.1 82.3 C 42.1 82.3 39.5 77.5 39.5 77.5 C 42.2 74.7 46.3 73.7 49.3 73.7 C 55.3 73.7 59.1 76.7 59.1 83.2 C 59.1 83.18 59.1 103.4 59.1 103.4 L 52.3 103.4 Z M 52.3 96.6 C 52.3 96.6 52.3 92.7 52.3 92.7 C 51.6 90.9 50.2 89.7 48.7 89.7 C 46.3 89.7 45.2 91.8 45.2 94.6 C 45.2 97.3 46.3 99.6 48.7 99.6 C 50.2 99.6 51.6 98.4 52.3 96.6 Z M 62.6 100.3 C 62.6 100.3 65.4 95.7 65.4 95.7 C 67 97.4 69.1 98.8 71.4 98.8 C 73.6 98.8 75.1 97.6 75.1 95.7 C 75.1 90.9 63.6 92 63.6 81.9 C 63.6 77.5 66.9 73.7 72.8 73.7 C 76.1 73.7 79.2 75 81.4 77.1 C 81.4 77.1 78.6 81.7 78.6 81.7 C 77.5 80.3 75.4 79 73 79 C 71.2 79 69.9 80.2 69.9 81.7 C 69.9 86.1 81.5 85.3 81.5 95.5 C 81.5 100.6 77.5 104.1 72 104.1 C 67.7 104.1 64.5 102.6 62.6 100.3 Z M 99.1 103.4 L 94.8 91.8 L 92.2 96.6 L 92.2 103.4 L 85.4 103.4 L 85.4 63.4 L 92.2 63.4 L 92.2 87.8 L 98.8 74.4 L 106.2 74.4 L 99.3 87.3 L 106.5 103.4 L 99.1 103.4 Z M 108.8 66.9 C 108.8 64.6 110.7 62.8 112.9 62.8 C 115.2 62.8 117.1 64.6 117.1 66.9 C 117.1 69.2 115.2 71 112.9 71 C 110.7 71 108.8 69.2 108.8 66.9 Z M 109.6 103.4 L 109.6 74.4 L 116.3 74.4 L 116.3 103.4 L 109.6 103.4 Z M 134.7 103.4 C 134.7 103.4 134.7 82.76 134.7 82.8 C 134.7 80.7 134 79.7 132.5 79.7 C 130.7 79.7 129.2 81.6 128.6 83.5 C 128.58 83.48 128.6 103.4 128.6 103.4 L 121.8 103.4 L 121.8 74.4 L 128.6 74.4 C 128.6 74.4 128.58 78.2 128.6 78.2 C 129.7 75.9 132.7 73.7 135.4 73.7 C 139.7 73.7 141.5 76.3 141.5 80.3 C 141.54 80.3 141.5 103.4 141.5 103.4 L 134.7 103.4 Z M 146.9 112 C 146.9 112 149.2 106.5 149.2 106.5 C 150.9 108.2 152.9 109.3 155.2 109.3 C 158 109.3 160.1 107.4 160.1 102.9 C 160.1 102.9 160.1 98.7 160.1 98.7 C 158.8 101.7 156.5 103.2 154.4 103.2 C 148.7 103.2 145.9 97.8 145.9 88.5 C 145.9 79.3 148.7 73.7 154.4 73.7 C 156.5 73.7 158.9 75 160.1 78 C 160.08 78.02 160.1 74.4 160.1 74.4 L 166.9 74.4 C 166.9 74.4 166.86 102.44 166.9 102.4 C 166.9 112.4 161.5 115.2 155.9 115.2 C 152.3 115.2 149.3 114.3 146.9 112 Z M 160.1 93.7 C 160.1 93.7 160.1 83.2 160.1 83.2 C 159.5 81.3 158.1 79.7 156.7 79.7 C 153.7 79.7 152.8 83.4 152.8 88.5 C 152.8 93.6 153.7 97.2 156.7 97.2 C 158.1 97.2 159.5 95.6 160.1 93.7 Z M 186.5 103.4 L 186.5 70 L 180.5 70 L 180.5 63.4 L 200.2 63.4 L 200.2 70 L 194.1 70 L 194.1 103.4 L 186.5 103.4 Z M 213.8 103.4 C 213.8 103.4 213.84 100.64 213.8 100.6 C 212.6 102.9 209.9 104.1 207.8 104.1 C 203.2 104.1 199.9 100.4 199.9 94.5 C 199.9 88.6 203.2 85 207.8 85 C 209.9 85 212.6 86.1 213.8 88.3 C 213.8 88.3 213.8 84.7 213.8 84.7 C 213.8 81.4 212.5 79.5 209.5 79.5 C 207.5 79.5 205.5 80.4 203.6 82.3 C 203.6 82.3 201.1 77.5 201.1 77.5 C 203.7 74.7 207.8 73.7 210.8 73.7 C 216.8 73.7 220.6 76.7 220.6 83.2 C 220.62 83.18 220.6 103.4 220.6 103.4 L 213.8 103.4 Z M 213.8 96.6 C 213.8 96.6 213.8 92.7 213.8 92.7 C 213.1 90.9 211.7 89.7 210.2 89.7 C 207.8 89.7 206.7 91.8 206.7 94.6 C 206.7 97.3 207.8 99.6 210.2 99.6 C 211.7 99.6 213.1 98.4 213.8 96.6 Z M 232.9 99.8 C 232.92 99.8 232.9 114.4 232.9 114.4 L 226.1 114.4 L 226.1 74.4 L 232.9 74.4 C 232.9 74.4 232.92 78.02 232.9 78 C 234.2 75.1 236.5 73.7 238.6 73.7 C 244.3 73.7 247.1 79.6 247.1 88.9 C 247.1 98 244.3 104.1 238.6 104.1 C 236.5 104.1 234.1 102.8 232.9 99.8 Z M 240.2 88.9 C 240.2 83.8 239.3 79.7 236.3 79.7 C 234.9 79.7 233.5 81.1 232.9 83.1 C 232.9 83.1 232.9 94.6 232.9 94.6 C 233.5 96.6 234.9 98.1 236.3 98.1 C 239.3 98.1 240.2 94 240.2 88.9 Z M 250.4 88.9 C 250.4 80.5 254 73.7 261.2 73.7 C 268.6 73.7 271.6 80.2 271.6 88.8 C 271.62 88.76 271.6 91.1 271.6 91.1 C 271.6 91.1 256.92 91.1 256.9 91.1 C 257 95.4 258.8 98.6 262.6 98.6 C 264.2 98.6 266.1 97.5 267.4 95.7 C 267.4 95.7 270.7 99.5 270.7 99.5 C 268.4 102.4 265.2 104.1 261.9 104.1 C 254.3 104.1 250.4 97.8 250.4 88.9 Z M 261.1 79.2 C 257.8 79.2 256.9 83.3 256.9 86.4 C 256.9 86.4 265.1 86.4 265.1 86.4 C 265.1 83.1 264.4 79.2 261.1 79.2 Z M 305.2 103.4 L 301 83.7 L 296.9 103.4 L 289.7 103.4 L 283.1 74.4 L 290.1 74.4 L 293.8 94.2 L 297.5 74.4 L 304.1 74.4 L 308.2 94.2 L 311.9 74.4 L 319 74.4 L 312.2 103.4 L 305.2 103.4 Z M 321.2 66.9 C 321.2 64.6 323.2 62.8 325.4 62.8 C 327.7 62.8 329.5 64.6 329.5 66.9 C 329.5 69.2 327.7 71 325.4 71 C 323.2 71 321.2 69.2 321.2 66.9 Z M 322 103.4 L 322 74.4 L 328.8 74.4 L 328.8 103.4 L 322 103.4 Z M 335.2 96.7 C 335.16 96.74 335.2 80.3 335.2 80.3 L 332.5 80.3 L 332.5 74.4 L 335.2 74.4 L 335.2 66.5 L 341.9 66.5 L 341.9 74.4 L 345.6 74.4 L 345.6 80.3 L 341.9 80.3 C 341.9 80.3 341.94 95.42 341.9 95.4 C 341.9 97.2 342.4 98.1 343.6 98.1 C 344.2 98.1 344.8 97.8 345.2 97.3 C 345.2 97.3 346.6 102.6 346.6 102.6 C 345.5 103.5 343.9 104.1 341.8 104.1 C 337.1 104.1 335.2 101.7 335.2 96.7 Z M 362.6 103.4 C 362.6 103.4 362.63 82.64 362.6 82.6 C 362.6 80.7 361.9 79.7 360.4 79.7 C 358.7 79.7 357.2 81.6 356.5 83.5 C 356.51 83.48 356.5 103.4 356.5 103.4 L 349.7 103.4 L 349.7 63.4 L 356.5 63.4 C 356.5 63.4 356.51 78.2 356.5 78.2 C 357.7 75.9 360.7 73.7 363.3 73.7 C 367.7 73.7 369.5 76.1 369.5 80.2 C 369.47 80.24 369.5 103.4 369.5 103.4 L 362.6 103.4 Z M 399.6 103.4 L 398.4 96 L 391 96 L 389.8 103.4 L 382 103.4 L 390.3 63.4 L 399 63.4 L 407.4 103.4 L 399.6 103.4 Z M 394.7 71.8 L 391.8 89.4 L 397.6 89.4 L 394.7 71.8 Z M 408.1 100.3 C 408.1 100.3 410.9 95.7 410.9 95.7 C 412.5 97.4 414.7 98.8 416.9 98.8 C 419.1 98.8 420.6 97.6 420.6 95.7 C 420.6 90.9 409.1 92 409.1 81.9 C 409.1 77.5 412.4 73.7 418.4 73.7 C 421.7 73.7 424.7 75 426.9 77.1 C 426.9 77.1 424.1 81.7 424.1 81.7 C 423 80.3 420.9 79 418.6 79 C 416.7 79 415.4 80.2 415.4 81.7 C 415.4 86.1 427 85.3 427 95.5 C 427 100.6 423.1 104.1 417.5 104.1 C 413.2 104.1 410 102.6 408.1 100.3 Z M 428.9 100.3 C 428.9 100.3 431.7 95.7 431.7 95.7 C 433.3 97.4 435.4 98.8 437.7 98.8 C 439.9 98.8 441.4 97.6 441.4 95.7 C 441.4 90.9 429.9 92 429.9 81.9 C 429.9 77.5 433.2 73.7 439.1 73.7 C 442.4 73.7 445.5 75 447.7 77.1 C 447.7 77.1 444.9 81.7 444.9 81.7 C 443.8 80.3 441.7 79 439.3 79 C 437.5 79 436.2 80.2 436.2 81.7 C 436.2 86.1 447.8 85.3 447.8 95.5 C 447.8 100.6 443.8 104.1 438.3 104.1 C 434 104.1 430.8 102.6 428.9 100.3 Z M 450.5 88.9 C 450.5 80.8 453.8 73.7 461.4 73.7 C 469 73.7 472.3 80.8 472.3 88.9 C 472.3 96.9 469 104.1 461.4 104.1 C 453.8 104.1 450.5 96.9 450.5 88.9 Z M 465.3 88.9 C 465.3 84 464.5 79.7 461.4 79.7 C 458.4 79.7 457.6 84 457.6 88.9 C 457.6 93.9 458.4 98.1 461.4 98.1 C 464.5 98.1 465.3 93.9 465.3 88.9 Z M 476.7 103.4 L 476.7 74.4 L 483.5 74.4 C 483.5 74.4 483.47 78.44 483.5 78.4 C 484.6 75.8 487.4 73.7 490 73.7 C 490 73.7 490 80.4 490 80.4 C 489.5 80.2 489.1 80.2 488.6 80.2 C 486.7 80.2 484.6 81.8 483.5 83.9 C 483.47 83.9 483.5 103.4 483.5 103.4 L 476.7 103.4 Z M 494.4 96.7 C 494.39 96.74 494.4 80.3 494.4 80.3 L 491.7 80.3 L 491.7 74.4 L 494.4 74.4 L 494.4 66.5 L 501.2 66.5 L 501.2 74.4 L 504.8 74.4 L 504.8 80.3 L 501.2 80.3 C 501.2 80.3 501.17 95.42 501.2 95.4 C 501.2 97.2 501.6 98.1 502.8 98.1 C 503.5 98.1 504.1 97.8 504.4 97.3 C 504.4 97.3 505.8 102.6 505.8 102.6 C 504.8 103.5 503.2 104.1 501.1 104.1 C 496.3 104.1 494.4 101.7 494.4 96.7 Z M 507.8 88.9 C 507.8 80.5 511.4 73.7 518.7 73.7 C 526 73.7 529.1 80.2 529.1 88.8 C 529.07 88.76 529.1 91.1 529.1 91.1 C 529.1 91.1 514.37 91.1 514.4 91.1 C 514.4 95.4 516.2 98.6 520.1 98.6 C 521.7 98.6 523.6 97.5 524.9 95.7 C 524.9 95.7 528.2 99.5 528.2 99.5 C 525.9 102.4 522.7 104.1 519.4 104.1 C 511.8 104.1 507.8 97.8 507.8 88.9 Z M 518.5 79.2 C 515.2 79.2 514.4 83.3 514.4 86.4 C 514.4 86.4 522.5 86.4 522.5 86.4 C 522.5 83.1 521.8 79.2 518.5 79.2 Z M 546.3 103.4 C 546.3 103.4 546.29 99.8 546.3 99.8 C 545 102.7 542.7 104.1 540.7 104.1 C 535 104.1 532.1 98.2 532.1 88.9 C 532.1 79.8 535 73.7 540.7 73.7 C 542.7 73.7 545.1 75 546.3 78 C 546.29 78.02 546.3 63.4 546.3 63.4 L 553.1 63.4 L 553.1 103.4 L 546.3 103.4 Z M 546.3 94.6 C 546.3 94.6 546.3 83.2 546.3 83.2 C 545.7 81.3 544.3 79.7 542.9 79.7 C 539.9 79.7 539 83.8 539 88.9 C 539 94 539.9 98.1 542.9 98.1 C 544.3 98.1 545.7 96.6 546.3 94.6 Z " stroke="none" fill="#e9e8e8"/>  </g>  <g id="Polygon189956">    <path d="M 0.7 44.2 C 0.7 44.2 4 38.2 4 38.2 C 5.6 40.3 8.2 41.4 10.6 41.4 C 13 41.4 14.6 39.6 14.6 37 C 14.6 29.9 1.9 29.9 1.9 17.9 C 1.9 11.9 5.9 6.7 13 6.7 C 16.4 6.7 19.5 7.9 21.7 10 C 21.7 10 18.8 15.8 18.8 15.8 C 17.2 14.2 15.4 13.4 13.3 13.4 C 11.1 13.4 9.5 15.1 9.5 17.5 C 9.5 23.7 22.3 24.5 22.3 36.5 C 22.3 43.3 17.9 48.1 11 48.1 C 6.7 48.1 3.3 46.7 0.7 44.2 Z M 26.8 40.7 C 26.82 40.74 26.8 24.3 26.8 24.3 L 24.1 24.3 L 24.1 18.4 L 26.8 18.4 L 26.8 10.5 L 33.6 10.5 L 33.6 18.4 L 37.3 18.4 L 37.3 24.3 L 33.6 24.3 C 33.6 24.3 33.6 39.42 33.6 39.4 C 33.6 41.2 34 42.1 35.2 42.1 C 35.9 42.1 36.5 41.8 36.8 41.3 C 36.8 41.3 38.2 46.6 38.2 46.6 C 37.2 47.5 35.6 48.1 33.5 48.1 C 28.7 48.1 26.8 45.7 26.8 40.7 Z M 54.3 47.4 C 54.3 47.4 54.3 43.74 54.3 43.7 C 53.2 46.1 50.3 48.1 47.5 48.1 C 43.1 48.1 41.4 45.7 41.4 41.6 C 41.4 41.58 41.4 18.4 41.4 18.4 L 48.2 18.4 C 48.2 18.4 48.18 39.18 48.2 39.2 C 48.2 41.2 48.9 42.1 50.4 42.1 C 52.1 42.1 53.6 40.3 54.3 38.5 C 54.3 38.46 54.3 18.4 54.3 18.4 L 61.1 18.4 L 61.1 47.4 L 54.3 47.4 Z M 67.5 47.4 L 67.5 24.3 L 64.9 24.3 L 64.9 18.4 L 67.5 18.4 C 67.5 18.4 67.5 15.42 67.5 15.4 C 67.5 9.9 70.2 6.8 75.3 6.8 C 77.2 6.8 79.1 7.3 80.3 8.4 C 80.3 8.4 78.6 13.6 78.6 13.6 C 78 13 77.5 12.7 76.6 12.7 C 75.1 12.7 74.3 13.7 74.3 15.4 C 74.28 15.42 74.3 18.4 74.3 18.4 L 77.9 18.4 L 77.9 24.3 L 74.3 24.3 L 74.3 47.4 L 67.5 47.4 Z M 82.5 47.4 L 82.5 24.3 L 79.9 24.3 L 79.9 18.4 L 82.5 18.4 C 82.5 18.4 82.5 15.42 82.5 15.4 C 82.5 9.9 85.2 6.8 90.3 6.8 C 92.2 6.8 94.1 7.3 95.3 8.4 C 95.3 8.4 93.6 13.6 93.6 13.6 C 93 13 92.5 12.7 91.6 12.7 C 90.1 12.7 89.3 13.7 89.3 15.4 C 89.28 15.42 89.3 18.4 89.3 18.4 L 92.9 18.4 L 92.9 24.3 L 89.3 24.3 L 89.3 47.4 L 82.5 47.4 Z M 95.4 32.9 C 95.4 24.5 99 17.7 106.3 17.7 C 113.6 17.7 116.6 24.2 116.6 32.8 C 116.64 32.76 116.6 35.1 116.6 35.1 C 116.6 35.1 101.94 35.1 101.9 35.1 C 102 39.4 103.8 42.6 107.6 42.6 C 109.3 42.6 111.1 41.5 112.4 39.7 C 112.4 39.7 115.7 43.5 115.7 43.5 C 113.5 46.4 110.2 48.1 106.9 48.1 C 99.4 48.1 95.4 41.8 95.4 32.9 Z M 106.1 23.2 C 102.8 23.2 101.9 27.3 101.9 30.4 C 101.9 30.4 110.1 30.4 110.1 30.4 C 110.1 27.1 109.4 23.2 106.1 23.2 Z M 133.9 47.4 C 133.9 47.4 133.86 43.8 133.9 43.8 C 132.6 46.7 130.3 48.1 128.2 48.1 C 122.5 48.1 119.6 42.2 119.6 32.9 C 119.6 23.8 122.5 17.7 128.2 17.7 C 130.3 17.7 132.7 19 133.9 22 C 133.86 22.02 133.9 7.4 133.9 7.4 L 140.6 7.4 L 140.6 47.4 L 133.9 47.4 Z M 133.9 38.6 C 133.9 38.6 133.9 27.2 133.9 27.2 C 133.3 25.3 131.9 23.7 130.4 23.7 C 127.4 23.7 126.6 27.8 126.6 32.9 C 126.6 38 127.4 42.1 130.4 42.1 C 131.9 42.1 133.3 40.6 133.9 38.6 Z M 160.3 47.4 L 160.3 14 L 154.3 14 L 154.3 7.4 L 173.9 7.4 L 173.9 14 L 167.9 14 L 167.9 47.4 L 160.3 47.4 Z M 173.6 32.9 C 173.6 24.8 176.9 17.7 184.5 17.7 C 192.1 17.7 195.4 24.8 195.4 32.9 C 195.4 40.9 192.1 48.1 184.5 48.1 C 176.9 48.1 173.6 40.9 173.6 32.9 Z M 188.4 32.9 C 188.4 28 187.6 23.7 184.5 23.7 C 181.5 23.7 180.7 28 180.7 32.9 C 180.7 37.9 181.5 42.1 184.5 42.1 C 187.6 42.1 188.4 37.9 188.4 32.9 Z M 200.4 52.9 C 200.8 53 201.4 53.2 201.8 53.2 C 203 53.2 203.8 52.6 204.2 51.1 C 204.18 51.12 205 48.1 205 48.1 L 197.2 18.4 L 204.4 18.4 L 208.4 38.8 L 212.6 18.4 L 219.8 18.4 C 219.8 18.4 210.66 52.5 210.7 52.5 C 209.2 57.8 206.9 59.2 202.7 59.2 C 201.7 59.2 200.1 59 199.4 58.7 C 199.4 58.7 200.4 52.9 200.4 52.9 Z M 251.4 47.4 L 248.1 21.6 L 244.8 47.4 L 237.1 47.4 L 230.3 7.4 L 238 7.4 L 241.3 34.2 L 245.1 7.4 L 251.1 7.4 L 254.9 34.2 L 258.2 7.4 L 265.9 7.4 L 259.1 47.4 L 251.4 47.4 Z M 268.4 47.4 L 268.4 18.4 L 275.2 18.4 C 275.2 18.4 275.16 22.44 275.2 22.4 C 276.3 19.8 279.1 17.7 281.6 17.7 C 281.6 17.7 281.6 24.4 281.6 24.4 C 281.2 24.2 280.7 24.2 280.3 24.2 C 278.3 24.2 276.3 25.8 275.2 27.9 C 275.16 27.9 275.2 47.4 275.2 47.4 L 268.4 47.4 Z M 297.8 47.4 C 297.8 47.4 297.78 44.64 297.8 44.6 C 296.5 46.9 293.8 48.1 291.7 48.1 C 287.2 48.1 283.9 44.4 283.9 38.5 C 283.9 32.6 287.2 29 291.7 29 C 293.8 29 296.6 30.1 297.8 32.3 C 297.8 32.3 297.8 28.7 297.8 28.7 C 297.8 25.4 296.5 23.5 293.4 23.5 C 291.5 23.5 289.4 24.4 287.5 26.3 C 287.5 26.3 285 21.5 285 21.5 C 287.6 18.7 291.8 17.7 294.8 17.7 C 300.7 17.7 304.6 20.7 304.6 27.2 C 304.56 27.18 304.6 47.4 304.6 47.4 L 297.8 47.4 Z M 297.8 40.6 C 297.8 40.6 297.8 36.7 297.8 36.7 C 297.1 34.9 295.6 33.7 294.1 33.7 C 291.8 33.7 290.6 35.8 290.6 38.6 C 290.6 41.3 291.8 43.6 294.1 43.6 C 295.6 43.6 297.1 42.4 297.8 40.6 Z M 316.9 43.8 C 316.86 43.8 316.9 58.4 316.9 58.4 L 310.1 58.4 L 310.1 18.4 L 316.9 18.4 C 316.9 18.4 316.86 22.02 316.9 22 C 318.1 19.1 320.5 17.7 322.5 17.7 C 328.2 17.7 331.1 23.6 331.1 32.9 C 331.1 42 328.2 48.1 322.5 48.1 C 320.5 48.1 318.1 46.8 316.9 43.8 Z M 324.1 32.9 C 324.1 27.8 323.3 23.7 320.3 23.7 C 318.8 23.7 317.5 25.1 316.9 27.1 C 316.9 27.1 316.9 38.6 316.9 38.6 C 317.5 40.6 318.8 42.1 320.3 42.1 C 323.3 42.1 324.1 38 324.1 32.9 Z M 342.2 43.8 C 342.24 43.8 342.2 58.4 342.2 58.4 L 335.5 58.4 L 335.5 18.4 L 342.2 18.4 C 342.2 18.4 342.24 22.02 342.2 22 C 343.5 19.1 345.8 17.7 347.9 17.7 C 353.6 17.7 356.5 23.6 356.5 32.9 C 356.5 42 353.6 48.1 347.9 48.1 C 345.8 48.1 343.4 46.8 342.2 43.8 Z M 349.5 32.9 C 349.5 27.8 348.7 23.7 345.7 23.7 C 344.2 23.7 342.8 25.1 342.2 27.1 C 342.2 27.1 342.2 38.6 342.2 38.6 C 342.8 40.6 344.2 42.1 345.7 42.1 C 348.7 42.1 349.5 38 349.5 32.9 Z M 359.7 32.9 C 359.7 24.5 363.3 17.7 370.6 17.7 C 377.9 17.7 380.9 24.2 380.9 32.8 C 380.94 32.76 380.9 35.1 380.9 35.1 C 380.9 35.1 366.24 35.1 366.2 35.1 C 366.3 39.4 368.1 42.6 371.9 42.6 C 373.6 42.6 375.4 41.5 376.7 39.7 C 376.7 39.7 380 43.5 380 43.5 C 377.8 46.4 374.5 48.1 371.2 48.1 C 363.7 48.1 359.7 41.8 359.7 32.9 Z M 370.4 23.2 C 367.1 23.2 366.2 27.3 366.2 30.4 C 366.2 30.4 374.4 30.4 374.4 30.4 C 374.4 27.1 373.7 23.2 370.4 23.2 Z M 398.2 47.4 C 398.2 47.4 398.16 43.8 398.2 43.8 C 396.9 46.7 394.6 48.1 392.5 48.1 C 386.8 48.1 383.9 42.2 383.9 32.9 C 383.9 23.8 386.8 17.7 392.5 17.7 C 394.6 17.7 397 19 398.2 22 C 398.16 22.02 398.2 7.4 398.2 7.4 L 404.9 7.4 L 404.9 47.4 L 398.2 47.4 Z M 398.2 38.6 C 398.2 38.6 398.2 27.2 398.2 27.2 C 397.6 25.3 396.2 23.7 394.7 23.7 C 391.7 23.7 390.9 27.8 390.9 32.9 C 390.9 38 391.7 42.1 394.7 42.1 C 396.2 42.1 397.6 40.6 398.2 38.6 Z M 419.5 10.9 C 419.5 8.6 421.4 6.8 423.6 6.8 C 425.9 6.8 427.7 8.6 427.7 10.9 C 427.7 13.2 425.9 15 423.6 15 C 421.4 15 419.5 13.2 419.5 10.9 Z M 420.2 47.4 L 420.2 18.4 L 427 18.4 L 427 47.4 L 420.2 47.4 Z M 445.4 47.4 C 445.4 47.4 445.37 26.76 445.4 26.8 C 445.4 24.7 444.7 23.7 443.2 23.7 C 441.4 23.7 439.9 25.6 439.3 27.5 C 439.25 27.48 439.3 47.4 439.3 47.4 L 432.5 47.4 L 432.5 18.4 L 439.3 18.4 C 439.3 18.4 439.25 22.2 439.3 22.2 C 440.4 19.9 443.4 17.7 446 17.7 C 450.4 17.7 452.2 20.3 452.2 24.3 C 452.21 24.3 452.2 47.4 452.2 47.4 L 445.4 47.4 Z " stroke="none" fill="#e9e8e8"/>  </g></svg>