<?xml version="1.0" standalone="no"?><!DOCTYPE svg PUBLIC "-//W3C//DTD SVG 1.1//EN" "http://www.w3.org/Graphics/SVG/1.1/DTD/svg11.dtd"><svg xmlns="http://www.w3.org/2000/svg" version="1.1" width="219px" height="475.3px" viewBox="0 0 219 475.3">  <desc>194 65 198 83 195 30 156 20 1250 36 3348 21 2521 36 448 62 210 63 15 26 77 23 111 12 520 63</desc>  <defs/>  <g id="Polygon216275">    <path d="M 139.8 453.5 C 139.8 453.5 141.4 452 141.4 452 C 142.4 453.7 143.7 454.6 145.7 454.6 C 147.9 454.6 149.2 452.6 149.2 450.3 C 149.2 447.4 147.9 445.8 145.8 445.8 C 144.4 445.8 143.3 446.4 142.2 447.7 C 142.19 447.71 140.4 447.1 140.4 447.1 L 140.4 436.4 L 150.6 436.4 L 150.6 438.5 L 142.8 438.5 C 142.8 438.5 142.79 445.49 142.8 445.5 C 143.6 444.5 144.9 443.7 146.5 443.7 C 149.4 443.7 151.7 446 151.7 450.2 C 151.7 454 149.2 456.7 145.7 456.7 C 142.8 456.7 141.1 455.5 139.8 453.5 Z M 154.6 456.4 C 154.6 456.4 154.61 454.43 154.6 454.4 C 161.1 446.9 163.4 444.5 163.4 441.5 C 163.4 439.4 161.9 438.2 160.2 438.2 C 158.3 438.2 156.9 439.1 156 440.7 C 156 440.7 154.4 439.3 154.4 439.3 C 155.7 437.2 157.7 436.1 160.2 436.1 C 163.3 436.1 165.8 438 165.8 441.5 C 165.8 444.9 163.3 447.9 158 454.2 C 158 454.25 165.9 454.2 165.9 454.2 L 165.9 456.4 L 154.6 456.4 Z M 169.1 446.4 C 169.1 441.6 170.7 436.1 175.4 436.1 C 180 436.1 181.6 441.6 181.6 446.4 C 181.6 451.2 180 456.7 175.4 456.7 C 170.7 456.7 169.1 451.2 169.1 446.4 Z M 179.2 446.4 C 179.2 442.4 178.5 438.2 175.4 438.2 C 172.3 438.2 171.6 442.4 171.6 446.4 C 171.6 450.3 172.3 454.6 175.4 454.6 C 178.5 454.6 179.2 450.3 179.2 446.4 Z M 184.9 455.1 C 184.9 454.2 185.6 453.5 186.5 453.5 C 187.3 453.5 188.1 454.2 188.1 455.1 C 188.1 456 187.3 456.7 186.5 456.7 C 185.6 456.7 184.9 456 184.9 455.1 Z M 191.3 446.4 C 191.3 441 193.2 436.1 198 436.1 C 200.1 436.1 201.7 437.1 202.7 438.6 C 202.7 438.6 201.4 440.2 201.4 440.2 C 200.7 439 199.7 438.2 198.1 438.2 C 194.9 438.2 193.7 442.4 193.7 446.2 C 193.7 446.4 193.7 446.5 193.7 446.8 C 194.4 445.4 196.1 443.8 198.1 443.8 C 201 443.8 203.4 446 203.4 450.2 C 203.4 453.6 201.3 456.7 197.6 456.7 C 192.9 456.7 191.3 451.7 191.3 446.4 Z M 201 450.3 C 201 447.1 199.4 445.9 197.5 445.9 C 195.9 445.9 194.5 447.3 193.8 449 C 193.9 451.2 194.7 454.6 197.5 454.6 C 199.9 454.6 201 452.4 201 450.3 Z M 205.5 453.4 C 205.5 453.4 207.1 452 207.1 452 C 208 453.5 209.5 454.6 211.4 454.6 C 213.8 454.6 215 453.1 215 450.8 C 215 448.1 213.2 447.2 211.2 447.2 C 210.6 447.2 209.9 447.2 209.6 447.2 C 209.6 447.2 209.6 445 209.6 445 C 209.9 445.1 210.6 445.1 211.1 445.1 C 213.1 445.1 214.8 444 214.8 441.7 C 214.8 439.3 213.3 438.2 211.3 438.2 C 209.5 438.2 208.3 439.1 207.3 440.6 C 207.3 440.6 205.8 439.2 205.8 439.2 C 207 437.3 209 436.1 211.5 436.1 C 214.7 436.1 217.1 437.8 217.1 441.4 C 217.1 443.9 215.4 445.6 213.6 446 C 215.3 446.3 217.4 448.1 217.4 451 C 217.4 454.3 215.3 456.7 211.5 456.7 C 208.6 456.7 206.5 455.2 205.5 453.4 Z " stroke="none" fill="#d0d1d4"/>  </g>  <g id="Polygon216274">    <path d="M 164.5 420.4 L 164.5 403.5 L 161.4 406.8 L 160 405.3 L 164.8 400.4 L 166.9 400.4 L 166.9 420.4 L 164.5 420.4 Z M 174 420.4 L 174 403.5 L 170.9 406.8 L 169.4 405.3 L 174.2 400.4 L 176.3 400.4 L 176.3 420.4 L 174 420.4 Z M 183.4 420.4 L 183.4 403.5 L 180.3 406.8 L 178.9 405.3 L 183.7 400.4 L 185.8 400.4 L 185.8 420.4 L 183.4 420.4 Z M 189.7 419.1 C 189.7 418.2 190.4 417.5 191.3 417.5 C 192.2 417.5 192.9 418.2 192.9 419.1 C 192.9 420 192.2 420.7 191.3 420.7 C 190.4 420.7 189.7 420 189.7 419.1 Z M 199.7 420.4 L 199.7 403.5 L 196.6 406.8 L 195.2 405.3 L 200 400.4 L 202.1 400.4 L 202.1 420.4 L 199.7 420.4 Z M 205.8 420.4 C 205.8 420.4 205.75 418.43 205.8 418.4 C 212.3 410.9 214.5 408.5 214.5 405.5 C 214.5 403.4 213 402.2 211.3 402.2 C 209.4 402.2 208.1 403.1 207.1 404.7 C 207.1 404.7 205.5 403.3 205.5 403.3 C 206.9 401.2 208.8 400.1 211.4 400.1 C 214.4 400.1 217 402 217 405.5 C 217 408.9 214.5 411.9 209.1 418.2 C 209.14 418.25 217.1 418.2 217.1 418.2 L 217.1 420.4 L 205.8 420.4 Z " stroke="none" fill="#d0d1d4"/>  </g>  <g id="Polygon216273">    <path d="M 160.8 384.4 L 167.1 366.5 L 158.6 366.5 L 158.6 364.4 L 169.7 364.4 L 169.7 366 L 163.3 384.4 L 160.8 384.4 Z M 173.4 384.4 L 179.7 366.5 L 171.3 366.5 L 171.3 364.4 L 182.4 364.4 L 182.4 366 L 176 384.4 L 173.4 384.4 Z M 185 383.1 C 185 382.2 185.7 381.5 186.6 381.5 C 187.4 381.5 188.2 382.2 188.2 383.1 C 188.2 384 187.4 384.7 186.6 384.7 C 185.7 384.7 185 384 185 383.1 Z M 191.6 384.4 C 191.6 384.4 191.56 382.43 191.6 382.4 C 198.1 374.9 200.4 372.5 200.4 369.5 C 200.4 367.4 198.9 366.2 197.1 366.2 C 195.3 366.2 193.9 367.1 192.9 368.7 C 192.9 368.7 191.4 367.3 191.4 367.3 C 192.7 365.2 194.6 364.1 197.2 364.1 C 200.2 364.1 202.8 366 202.8 369.5 C 202.8 372.9 200.3 375.9 195 382.2 C 194.95 382.25 202.9 382.2 202.9 382.2 L 202.9 384.4 L 191.6 384.4 Z M 205.5 381.4 C 205.5 381.4 207.1 380 207.1 380 C 208 381.5 209.5 382.6 211.4 382.6 C 213.8 382.6 215 381.1 215 378.8 C 215 376.1 213.2 375.2 211.2 375.2 C 210.6 375.2 209.9 375.2 209.6 375.2 C 209.6 375.2 209.6 373 209.6 373 C 209.9 373.1 210.6 373.1 211.1 373.1 C 213.1 373.1 214.8 372 214.8 369.7 C 214.8 367.3 213.3 366.2 211.3 366.2 C 209.5 366.2 208.3 367.1 207.3 368.6 C 207.3 368.6 205.8 367.2 205.8 367.2 C 207 365.3 209 364.1 211.5 364.1 C 214.7 364.1 217.1 365.8 217.1 369.4 C 217.1 371.9 215.4 373.6 213.6 374 C 215.3 374.3 217.4 376.1 217.4 379 C 217.4 382.3 215.3 384.7 211.5 384.7 C 208.6 384.7 206.5 383.2 205.5 381.4 Z " stroke="none" fill="#d0d1d4"/>  </g>  <g id="Polygon216272">    <path d="M 163.4 348.4 L 163.4 331.5 L 160.3 334.8 L 158.8 333.3 L 163.6 328.4 L 165.7 328.4 L 165.7 348.4 L 163.4 348.4 Z M 169.4 345.5 C 169.4 345.5 171 344 171 344 C 171.9 345.7 173.3 346.6 175.2 346.6 C 177.4 346.6 178.8 344.6 178.8 342.3 C 178.8 339.4 177.4 337.8 175.4 337.8 C 174 337.8 172.8 338.4 171.7 339.7 C 171.74 339.71 170 339.1 170 339.1 L 170 328.4 L 180.2 328.4 L 180.2 330.5 L 172.3 330.5 C 172.3 330.5 172.34 337.49 172.3 337.5 C 173.1 336.5 174.4 335.7 176 335.7 C 178.9 335.7 181.2 338 181.2 342.2 C 181.2 346 178.8 348.7 175.3 348.7 C 172.3 348.7 170.6 347.5 169.4 345.5 Z M 184.4 347.1 C 184.4 346.2 185.1 345.5 186 345.5 C 186.9 345.5 187.6 346.2 187.6 347.1 C 187.6 348 186.9 348.7 186 348.7 C 185.1 348.7 184.4 348 184.4 347.1 Z M 191 348.4 C 191 348.4 191 346.43 191 346.4 C 197.5 338.9 199.8 336.5 199.8 333.5 C 199.8 331.4 198.3 330.2 196.6 330.2 C 194.7 330.2 193.3 331.1 192.3 332.7 C 192.3 332.7 190.8 331.3 190.8 331.3 C 192.1 329.2 194.1 328.1 196.6 328.1 C 199.7 328.1 202.2 330 202.2 333.5 C 202.2 336.9 199.7 339.9 194.4 346.2 C 194.39 346.25 202.3 346.2 202.3 346.2 L 202.3 348.4 L 191 348.4 Z M 205.5 338.4 C 205.5 333 207.4 328.1 212.2 328.1 C 214.3 328.1 215.9 329.1 216.9 330.6 C 216.9 330.6 215.6 332.2 215.6 332.2 C 214.8 331 213.9 330.2 212.3 330.2 C 209.1 330.2 207.9 334.4 207.9 338.2 C 207.9 338.4 207.9 338.5 207.9 338.8 C 208.6 337.4 210.3 335.8 212.3 335.8 C 215.2 335.8 217.6 338 217.6 342.2 C 217.6 345.6 215.5 348.7 211.8 348.7 C 207 348.7 205.5 343.7 205.5 338.4 Z M 215.1 342.3 C 215.1 339.1 213.6 337.9 211.7 337.9 C 210 337.9 208.7 339.3 207.9 341 C 208.1 343.2 208.9 346.6 211.7 346.6 C 214.1 346.6 215.1 344.4 215.1 342.3 Z " stroke="none" fill="#d0d1d4"/>  </g>  <g id="Polygon216271">    <path d="M 145.2 312.4 C 145.2 312.4 145.16 310.43 145.2 310.4 C 151.7 302.9 153.9 300.5 153.9 297.5 C 153.9 295.4 152.4 294.2 150.7 294.2 C 148.8 294.2 147.5 295.1 146.5 296.7 C 146.5 296.7 144.9 295.3 144.9 295.3 C 146.3 293.2 148.2 292.1 150.8 292.1 C 153.8 292.1 156.4 294 156.4 297.5 C 156.4 300.9 153.9 303.9 148.5 310.2 C 148.55 310.25 156.5 310.2 156.5 310.2 L 156.5 312.4 L 145.2 312.4 Z M 163.2 312.4 L 163.2 295.5 L 160.1 298.8 L 158.7 297.3 L 163.5 292.4 L 165.6 292.4 L 165.6 312.4 L 163.2 312.4 Z M 169.1 302.4 C 169.1 297.6 170.7 292.1 175.4 292.1 C 180 292.1 181.6 297.6 181.6 302.4 C 181.6 307.2 180 312.7 175.4 312.7 C 170.7 312.7 169.1 307.2 169.1 302.4 Z M 179.2 302.4 C 179.2 298.4 178.5 294.2 175.4 294.2 C 172.3 294.2 171.6 298.4 171.6 302.4 C 171.6 306.3 172.3 310.6 175.4 310.6 C 178.5 310.6 179.2 306.3 179.2 302.4 Z M 184.9 311.1 C 184.9 310.2 185.6 309.5 186.5 309.5 C 187.3 309.5 188.1 310.2 188.1 311.1 C 188.1 312 187.3 312.7 186.5 312.7 C 185.6 312.7 184.9 312 184.9 311.1 Z M 191.3 302.4 C 191.3 297 193.2 292.1 198 292.1 C 200.1 292.1 201.7 293.1 202.7 294.6 C 202.7 294.6 201.4 296.2 201.4 296.2 C 200.7 295 199.7 294.2 198.1 294.2 C 194.9 294.2 193.7 298.4 193.7 302.2 C 193.7 302.4 193.7 302.5 193.7 302.8 C 194.4 301.4 196.1 299.8 198.1 299.8 C 201 299.8 203.4 302 203.4 306.2 C 203.4 309.6 201.3 312.7 197.6 312.7 C 192.9 312.7 191.3 307.7 191.3 302.4 Z M 201 306.3 C 201 303.1 199.4 301.9 197.5 301.9 C 195.9 301.9 194.5 303.3 193.8 305 C 193.9 307.2 194.7 310.6 197.5 310.6 C 199.9 310.6 201 308.4 201 306.3 Z M 205.5 309.4 C 205.5 309.4 207.1 308 207.1 308 C 208 309.5 209.5 310.6 211.4 310.6 C 213.8 310.6 215 309.1 215 306.8 C 215 304.1 213.2 303.2 211.2 303.2 C 210.6 303.2 209.9 303.2 209.6 303.2 C 209.6 303.2 209.6 301 209.6 301 C 209.9 301.1 210.6 301.1 211.1 301.1 C 213.1 301.1 214.8 300 214.8 297.7 C 214.8 295.3 213.3 294.2 211.3 294.2 C 209.5 294.2 208.3 295.1 207.3 296.6 C 207.3 296.6 205.8 295.2 205.8 295.2 C 207 293.3 209 292.1 211.5 292.1 C 214.7 292.1 217.1 293.8 217.1 297.4 C 217.1 299.9 215.4 301.6 213.6 302 C 215.3 302.3 217.4 304.1 217.4 307 C 217.4 310.3 215.3 312.7 211.5 312.7 C 208.6 312.7 206.5 311.2 205.5 309.4 Z " stroke="none" fill="#d0d1d4"/>  </g>  <g id="Polygon216270">    <path d="M 148.9 276.4 L 148.9 271.2 L 141 271.2 L 141 269.2 L 148.2 256.4 L 151.2 256.4 L 151.2 269.1 L 153.4 269.1 L 153.4 271.2 L 151.2 271.2 L 151.2 276.4 L 148.9 276.4 Z M 148.9 258.9 L 143.1 269.1 L 148.9 269.1 L 148.9 258.9 Z M 162.7 276.4 L 162.7 271.2 L 154.8 271.2 L 154.8 269.2 L 162 256.4 L 165.1 256.4 L 165.1 269.1 L 167.3 269.1 L 167.3 271.2 L 165.1 271.2 L 165.1 276.4 L 162.7 276.4 Z M 162.7 258.9 L 157 269.1 L 162.7 269.1 L 162.7 258.9 Z M 169.3 271.5 C 169.3 268.8 171.3 266.8 173.3 266.1 C 171.5 265.4 169.6 263.7 169.6 261.2 C 169.6 257.7 172.4 256.1 175.3 256.1 C 178.2 256.1 180.9 257.7 180.9 261.2 C 180.9 263.7 179.1 265.4 177.3 266.1 C 179.2 266.8 181.2 268.8 181.2 271.4 C 181.2 274.7 178.8 276.7 175.3 276.7 C 171.8 276.7 169.3 274.7 169.3 271.5 Z M 178.5 261.5 C 178.5 259.5 177.2 258.2 175.3 258.2 C 173.3 258.2 172 259.5 172 261.5 C 172 263.9 174.5 264.9 175.3 265.2 C 176.1 264.9 178.5 263.9 178.5 261.5 Z M 178.8 271.2 C 178.8 268.5 176.1 267.2 175.3 267 C 174.4 267.2 171.8 268.5 171.8 271.2 C 171.8 273.3 173.3 274.6 175.3 274.6 C 177.2 274.6 178.8 273.3 178.8 271.2 Z M 184.4 275.1 C 184.4 274.2 185.1 273.5 186 273.5 C 186.9 273.5 187.6 274.2 187.6 275.1 C 187.6 276 186.9 276.7 186 276.7 C 185.1 276.7 184.4 276 184.4 275.1 Z M 190.8 266.4 C 190.8 261 192.7 256.1 197.6 256.1 C 199.7 256.1 201.3 257.1 202.2 258.6 C 202.2 258.6 200.9 260.2 200.9 260.2 C 200.2 259 199.2 258.2 197.6 258.2 C 194.4 258.2 193.2 262.4 193.2 266.2 C 193.2 266.4 193.2 266.5 193.2 266.8 C 193.9 265.4 195.6 263.8 197.7 263.8 C 200.6 263.8 202.9 266 202.9 270.2 C 202.9 273.6 200.8 276.7 197.1 276.7 C 192.4 276.7 190.8 271.7 190.8 266.4 Z M 200.5 270.3 C 200.5 267.1 198.9 265.9 197.1 265.9 C 195.4 265.9 194 267.3 193.3 269 C 193.4 271.2 194.2 274.6 197 274.6 C 199.4 274.6 200.5 272.4 200.5 270.3 Z M 205.8 276.4 C 205.8 276.4 205.75 274.43 205.8 274.4 C 212.3 266.9 214.5 264.5 214.5 261.5 C 214.5 259.4 213 258.2 211.3 258.2 C 209.4 258.2 208.1 259.1 207.1 260.7 C 207.1 260.7 205.5 259.3 205.5 259.3 C 206.9 257.2 208.8 256.1 211.4 256.1 C 214.4 256.1 217 258 217 261.5 C 217 264.9 214.5 267.9 209.1 274.2 C 209.14 274.25 217.1 274.2 217.1 274.2 L 217.1 276.4 L 205.8 276.4 Z " stroke="none" fill="#d0d1d4"/>  </g>  <g id="Polygon216269">    <path d="M 131.1 240.4 C 131.1 240.4 131.12 238.43 131.1 238.4 C 137.7 230.9 139.9 228.5 139.9 225.5 C 139.9 223.4 138.4 222.2 136.7 222.2 C 134.8 222.2 133.4 223.1 132.5 224.7 C 132.5 224.7 130.9 223.3 130.9 223.3 C 132.2 221.2 134.2 220.1 136.7 220.1 C 139.8 220.1 142.3 222 142.3 225.5 C 142.3 228.9 139.8 231.9 134.5 238.2 C 134.51 238.25 142.4 238.2 142.4 238.2 L 142.4 240.4 L 131.1 240.4 Z M 145.8 237.5 C 145.8 237.5 147.3 236 147.3 236 C 148.3 237.7 149.6 238.6 151.6 238.6 C 153.8 238.6 155.1 236.6 155.1 234.3 C 155.1 231.4 153.8 229.8 151.7 229.8 C 150.3 229.8 149.2 230.4 148.1 231.7 C 148.1 231.71 146.3 231.1 146.3 231.1 L 146.3 220.4 L 156.5 220.4 L 156.5 222.5 L 148.7 222.5 C 148.7 222.5 148.7 229.49 148.7 229.5 C 149.5 228.5 150.8 227.7 152.4 227.7 C 155.3 227.7 157.6 230 157.6 234.2 C 157.6 238 155.1 240.7 151.6 240.7 C 148.7 240.7 147 239.5 145.8 237.5 Z M 160.5 240.4 C 160.5 240.4 160.52 238.43 160.5 238.4 C 167.1 230.9 169.3 228.5 169.3 225.5 C 169.3 223.4 167.8 222.2 166.1 222.2 C 164.2 222.2 162.8 223.1 161.9 224.7 C 161.9 224.7 160.3 223.3 160.3 223.3 C 161.6 221.2 163.6 220.1 166.1 220.1 C 169.2 220.1 171.7 222 171.7 225.5 C 171.7 228.9 169.2 231.9 163.9 238.2 C 163.91 238.25 171.8 238.2 171.8 238.2 L 171.8 240.4 L 160.5 240.4 Z M 178.6 240.4 L 178.6 223.5 L 175.5 226.8 L 174 225.3 L 178.8 220.4 L 180.9 220.4 L 180.9 240.4 L 178.6 240.4 Z M 184.9 239.1 C 184.9 238.2 185.6 237.5 186.5 237.5 C 187.3 237.5 188.1 238.2 188.1 239.1 C 188.1 240 187.3 240.7 186.5 240.7 C 185.6 240.7 184.9 240 184.9 239.1 Z M 190.8 237.4 C 190.8 237.4 192.3 236 192.3 236 C 193.2 237.5 194.7 238.6 196.6 238.6 C 199 238.6 200.2 237.1 200.2 234.8 C 200.2 232.1 198.5 231.2 196.4 231.2 C 195.8 231.2 195.1 231.2 194.8 231.2 C 194.8 231.2 194.8 229 194.8 229 C 195.1 229.1 195.9 229.1 196.4 229.1 C 198.4 229.1 200 228 200 225.7 C 200 223.3 198.6 222.2 196.5 222.2 C 194.8 222.2 193.5 223.1 192.5 224.6 C 192.5 224.6 191 223.2 191 223.2 C 192.2 221.3 194.2 220.1 196.7 220.1 C 199.9 220.1 202.4 221.8 202.4 225.4 C 202.4 227.9 200.6 229.6 198.8 230 C 200.6 230.3 202.6 232.1 202.6 235 C 202.6 238.3 200.5 240.7 196.7 240.7 C 193.8 240.7 191.8 239.2 190.8 237.4 Z M 205.5 230.4 C 205.5 225 207.4 220.1 212.2 220.1 C 214.3 220.1 215.9 221.1 216.9 222.6 C 216.9 222.6 215.6 224.2 215.6 224.2 C 214.8 223 213.9 222.2 212.3 222.2 C 209.1 222.2 207.9 226.4 207.9 230.2 C 207.9 230.4 207.9 230.5 207.9 230.8 C 208.6 229.4 210.3 227.8 212.3 227.8 C 215.2 227.8 217.6 230 217.6 234.2 C 217.6 237.6 215.5 240.7 211.8 240.7 C 207 240.7 205.5 235.7 205.5 230.4 Z M 215.1 234.3 C 215.1 231.1 213.6 229.9 211.7 229.9 C 210 229.9 208.7 231.3 207.9 233 C 208.1 235.2 208.9 238.6 211.7 238.6 C 214.1 238.6 215.1 236.4 215.1 234.3 Z " stroke="none" fill="#d0d1d4"/>  </g>  <g id="Polygon216268">    <path d="M 131.9 201.4 C 131.9 201.4 133.5 200 133.5 200 C 134.4 201.5 135.9 202.6 137.8 202.6 C 140.2 202.6 141.4 201.1 141.4 198.8 C 141.4 196.1 139.6 195.2 137.6 195.2 C 137 195.2 136.3 195.2 136 195.2 C 136 195.2 136 193 136 193 C 136.3 193.1 137 193.1 137.5 193.1 C 139.5 193.1 141.2 192 141.2 189.7 C 141.2 187.3 139.7 186.2 137.7 186.2 C 135.9 186.2 134.7 187.1 133.7 188.6 C 133.7 188.6 132.2 187.2 132.2 187.2 C 133.4 185.3 135.4 184.1 137.9 184.1 C 141.1 184.1 143.5 185.8 143.5 189.4 C 143.5 191.9 141.8 193.6 140 194 C 141.7 194.3 143.8 196.1 143.8 199 C 143.8 202.3 141.7 204.7 137.9 204.7 C 135 204.7 132.9 203.2 131.9 201.4 Z M 146.1 201.4 C 146.1 201.4 147.7 200 147.7 200 C 148.6 201.5 150.1 202.6 152 202.6 C 154.4 202.6 155.6 201.1 155.6 198.8 C 155.6 196.1 153.8 195.2 151.8 195.2 C 151.2 195.2 150.5 195.2 150.2 195.2 C 150.2 195.2 150.2 193 150.2 193 C 150.5 193.1 151.2 193.1 151.7 193.1 C 153.7 193.1 155.4 192 155.4 189.7 C 155.4 187.3 153.9 186.2 151.9 186.2 C 150.1 186.2 148.9 187.1 147.9 188.6 C 147.9 188.6 146.4 187.2 146.4 187.2 C 147.6 185.3 149.6 184.1 152.1 184.1 C 155.3 184.1 157.7 185.8 157.7 189.4 C 157.7 191.9 156 193.6 154.2 194 C 155.9 194.3 158 196.1 158 199 C 158 202.3 155.9 204.7 152.1 204.7 C 149.2 204.7 147.1 203.2 146.1 201.4 Z M 168 204.4 L 168 199.2 L 160.1 199.2 L 160.1 197.2 L 167.4 184.4 L 170.4 184.4 L 170.4 197.1 L 172.6 197.1 L 172.6 199.2 L 170.4 199.2 L 170.4 204.4 L 168 204.4 Z M 168 186.9 L 162.3 197.1 L 168 197.1 L 168 186.9 Z M 174.6 199.5 C 174.6 196.8 176.7 194.8 178.6 194.1 C 176.8 193.4 174.9 191.7 174.9 189.2 C 174.9 185.7 177.7 184.1 180.6 184.1 C 183.5 184.1 186.3 185.7 186.3 189.2 C 186.3 191.7 184.4 193.4 182.6 194.1 C 184.5 194.8 186.5 196.8 186.5 199.4 C 186.5 202.7 184.1 204.7 180.6 204.7 C 177.1 204.7 174.6 202.7 174.6 199.5 Z M 183.9 189.5 C 183.9 187.5 182.5 186.2 180.6 186.2 C 178.6 186.2 177.3 187.5 177.3 189.5 C 177.3 191.9 179.8 192.9 180.6 193.2 C 181.4 192.9 183.9 191.9 183.9 189.5 Z M 184.1 199.2 C 184.1 196.5 181.4 195.2 180.6 195 C 179.7 195.2 177.1 196.5 177.1 199.2 C 177.1 201.3 178.6 202.6 180.6 202.6 C 182.5 202.6 184.1 201.3 184.1 199.2 Z M 189.7 203.1 C 189.7 202.2 190.4 201.5 191.3 201.5 C 192.2 201.5 192.9 202.2 192.9 203.1 C 192.9 204 192.2 204.7 191.3 204.7 C 190.4 204.7 189.7 204 189.7 203.1 Z M 196.3 204.4 C 196.3 204.4 196.31 202.43 196.3 202.4 C 202.8 194.9 205.1 192.5 205.1 189.5 C 205.1 187.4 203.6 186.2 201.9 186.2 C 200 186.2 198.6 187.1 197.7 188.7 C 197.7 188.7 196.1 187.3 196.1 187.3 C 197.4 185.2 199.4 184.1 201.9 184.1 C 205 184.1 207.5 186 207.5 189.5 C 207.5 192.9 205 195.9 199.7 202.2 C 199.7 202.25 207.6 202.2 207.6 202.2 L 207.6 204.4 L 196.3 204.4 Z M 214.4 204.4 L 214.4 187.5 L 211.3 190.8 L 209.8 189.3 L 214.6 184.4 L 216.7 184.4 L 216.7 204.4 L 214.4 204.4 Z " stroke="none" fill="#d0d1d4"/>  </g>  <g id="Polygon216267">    <path d="M 133.8 168.4 L 133.8 151.5 L 130.7 154.8 L 129.3 153.3 L 134.1 148.4 L 136.2 148.4 L 136.2 168.4 L 133.8 168.4 Z M 139.9 168.4 C 139.9 168.4 139.88 166.43 139.9 166.4 C 146.4 158.9 148.7 156.5 148.7 153.5 C 148.7 151.4 147.2 150.2 145.5 150.2 C 143.6 150.2 142.2 151.1 141.2 152.7 C 141.2 152.7 139.7 151.3 139.7 151.3 C 141 149.2 142.9 148.1 145.5 148.1 C 148.5 148.1 151.1 150 151.1 153.5 C 151.1 156.9 148.6 159.9 143.3 166.2 C 143.27 166.25 151.2 166.2 151.2 166.2 L 151.2 168.4 L 139.9 168.4 Z M 154.5 165.5 C 154.5 165.5 156.1 164 156.1 164 C 157.1 165.7 158.4 166.6 160.3 166.6 C 162.5 166.6 163.9 164.6 163.9 162.3 C 163.9 159.4 162.6 157.8 160.5 157.8 C 159.1 157.8 158 158.4 156.9 159.7 C 156.86 159.71 155.1 159.1 155.1 159.1 L 155.1 148.4 L 165.3 148.4 L 165.3 150.5 L 157.5 150.5 C 157.5 150.5 157.46 157.49 157.5 157.5 C 158.2 156.5 159.6 155.7 161.1 155.7 C 164 155.7 166.3 158 166.3 162.2 C 166.3 166 163.9 168.7 160.4 168.7 C 157.5 168.7 155.7 167.5 154.5 165.5 Z M 169.1 158.4 C 169.1 153.6 170.7 148.1 175.4 148.1 C 180 148.1 181.6 153.6 181.6 158.4 C 181.6 163.2 180 168.7 175.4 168.7 C 170.7 168.7 169.1 163.2 169.1 158.4 Z M 179.2 158.4 C 179.2 154.4 178.5 150.2 175.4 150.2 C 172.3 150.2 171.6 154.4 171.6 158.4 C 171.6 162.3 172.3 166.6 175.4 166.6 C 178.5 166.6 179.2 162.3 179.2 158.4 Z M 184.9 167.1 C 184.9 166.2 185.6 165.5 186.5 165.5 C 187.3 165.5 188.1 166.2 188.1 167.1 C 188.1 168 187.3 168.7 186.5 168.7 C 185.6 168.7 184.9 168 184.9 167.1 Z M 190.8 165.4 C 190.8 165.4 192.3 164 192.3 164 C 193.2 165.5 194.7 166.6 196.6 166.6 C 199 166.6 200.2 165.1 200.2 162.8 C 200.2 160.1 198.5 159.2 196.4 159.2 C 195.8 159.2 195.1 159.2 194.8 159.2 C 194.8 159.2 194.8 157 194.8 157 C 195.1 157.1 195.9 157.1 196.4 157.1 C 198.4 157.1 200 156 200 153.7 C 200 151.3 198.6 150.2 196.5 150.2 C 194.8 150.2 193.5 151.1 192.5 152.6 C 192.5 152.6 191 151.2 191 151.2 C 192.2 149.3 194.2 148.1 196.7 148.1 C 199.9 148.1 202.4 149.8 202.4 153.4 C 202.4 155.9 200.6 157.6 198.8 158 C 200.6 158.3 202.6 160.1 202.6 163 C 202.6 166.3 200.5 168.7 196.7 168.7 C 193.8 168.7 191.8 167.2 190.8 165.4 Z M 205.5 158.4 C 205.5 153 207.4 148.1 212.2 148.1 C 214.3 148.1 215.9 149.1 216.9 150.6 C 216.9 150.6 215.6 152.2 215.6 152.2 C 214.8 151 213.9 150.2 212.3 150.2 C 209.1 150.2 207.9 154.4 207.9 158.2 C 207.9 158.4 207.9 158.5 207.9 158.8 C 208.6 157.4 210.3 155.8 212.3 155.8 C 215.2 155.8 217.6 158 217.6 162.2 C 217.6 165.6 215.5 168.7 211.8 168.7 C 207 168.7 205.5 163.7 205.5 158.4 Z M 215.1 162.3 C 215.1 159.1 213.6 157.9 211.7 157.9 C 210 157.9 208.7 159.3 207.9 161 C 208.1 163.2 208.9 166.6 211.7 166.6 C 214.1 166.6 215.1 164.4 215.1 162.3 Z " stroke="none" fill="#d0d1d4"/>  </g>  <g id="Polygon216266">    <path d="M 148 132.4 L 148 115.5 L 144.9 118.8 L 143.5 117.3 L 148.3 112.4 L 150.4 112.4 L 150.4 132.4 L 148 132.4 Z M 154 129.5 C 154 129.5 155.6 128 155.6 128 C 156.6 129.7 157.9 130.6 159.9 130.6 C 162 130.6 163.4 128.6 163.4 126.3 C 163.4 123.4 162.1 121.8 160 121.8 C 158.6 121.8 157.5 122.4 156.4 123.7 C 156.38 123.71 154.6 123.1 154.6 123.1 L 154.6 112.4 L 164.8 112.4 L 164.8 114.5 L 157 114.5 C 157 114.5 156.98 121.49 157 121.5 C 157.8 120.5 159.1 119.7 160.7 119.7 C 163.5 119.7 165.9 122 165.9 126.2 C 165.9 130 163.4 132.7 159.9 132.7 C 157 132.7 155.3 131.5 154 129.5 Z M 168.6 122.4 C 168.6 117 170.5 112.1 175.4 112.1 C 177.5 112.1 179.1 113.1 180 114.6 C 180 114.6 178.7 116.2 178.7 116.2 C 178 115 177 114.2 175.4 114.2 C 172.2 114.2 171 118.4 171 122.2 C 171 122.4 171 122.5 171 122.8 C 171.7 121.4 173.4 119.8 175.5 119.8 C 178.4 119.8 180.7 122 180.7 126.2 C 180.7 129.6 178.6 132.7 174.9 132.7 C 170.2 132.7 168.6 127.7 168.6 122.4 Z M 178.3 126.3 C 178.3 123.1 176.7 121.9 174.9 121.9 C 173.2 121.9 171.8 123.3 171.1 125 C 171.2 127.2 172 130.6 174.8 130.6 C 177.2 130.6 178.3 128.4 178.3 126.3 Z M 183.8 131.1 C 183.8 130.2 184.5 129.5 185.4 129.5 C 186.3 129.5 187 130.2 187 131.1 C 187 132 186.3 132.7 185.4 132.7 C 184.5 132.7 183.8 132 183.8 131.1 Z M 190.4 132.4 C 190.4 132.4 190.39 130.43 190.4 130.4 C 196.9 122.9 199.2 120.5 199.2 117.5 C 199.2 115.4 197.7 114.2 196 114.2 C 194.1 114.2 192.7 115.1 191.7 116.7 C 191.7 116.7 190.2 115.3 190.2 115.3 C 191.5 113.2 193.5 112.1 196 112.1 C 199.1 112.1 201.6 114 201.6 117.5 C 201.6 120.9 199.1 123.9 193.8 130.2 C 193.78 130.25 201.7 130.2 201.7 130.2 L 201.7 132.4 L 190.4 132.4 Z M 204.9 122.4 C 204.9 117.6 206.5 112.1 211.2 112.1 C 215.8 112.1 217.4 117.6 217.4 122.4 C 217.4 127.2 215.8 132.7 211.2 132.7 C 206.5 132.7 204.9 127.2 204.9 122.4 Z M 215 122.4 C 215 118.4 214.2 114.2 211.2 114.2 C 208.1 114.2 207.3 118.4 207.3 122.4 C 207.3 126.3 208.1 130.6 211.2 130.6 C 214.2 130.6 215 126.3 215 122.4 Z " stroke="none" fill="#d0d1d4"/>  </g>  <g id="Polygon216265">    <path d="M 148.5 96.4 L 148.5 79.5 L 145.4 82.8 L 144 81.3 L 148.8 76.4 L 150.9 76.4 L 150.9 96.4 L 148.5 96.4 Z M 154.9 94.2 C 154.9 94.2 156.2 92.5 156.2 92.5 C 156.9 93.8 157.9 94.6 159.5 94.6 C 162.8 94.6 163.9 90.3 163.9 86.6 C 163.9 86.3 163.9 86.2 163.9 86 C 163.2 87.4 161.5 88.9 159.5 88.9 C 156.6 88.9 154.2 86.8 154.2 82.5 C 154.2 79.2 156.3 76 160 76 C 164.7 76 166.3 81 166.3 86.4 C 166.3 91.8 164.4 96.7 159.5 96.7 C 157.4 96.7 155.9 95.7 154.9 94.2 Z M 163.8 83.8 C 163.7 81.6 162.9 78.2 160.1 78.2 C 157.7 78.2 156.6 80.4 156.6 82.5 C 156.6 85.7 158.2 86.9 160.1 86.9 C 161.7 86.9 163.1 85.4 163.8 83.8 Z M 169.3 93.5 C 169.3 93.5 170.9 92 170.9 92 C 171.8 93.7 173.1 94.6 175.1 94.6 C 177.3 94.6 178.7 92.6 178.7 90.3 C 178.7 87.4 177.3 85.8 175.2 85.8 C 173.8 85.8 172.7 86.4 171.6 87.7 C 171.62 87.71 169.8 87.1 169.8 87.1 L 169.8 76.4 L 180 76.4 L 180 78.5 L 172.2 78.5 C 172.2 78.5 172.22 85.49 172.2 85.5 C 173 84.5 174.3 83.7 175.9 83.7 C 178.8 83.7 181.1 86 181.1 90.2 C 181.1 94 178.6 96.7 175.2 96.7 C 172.2 96.7 170.5 95.5 169.3 93.5 Z M 184.3 95.1 C 184.3 94.2 185 93.5 185.9 93.5 C 186.7 93.5 187.5 94.2 187.5 95.1 C 187.5 96 186.7 96.7 185.9 96.7 C 185 96.7 184.3 96 184.3 95.1 Z M 190.2 93.4 C 190.2 93.4 191.7 92 191.7 92 C 192.6 93.5 194.1 94.6 196 94.6 C 198.4 94.6 199.6 93.1 199.6 90.8 C 199.6 88.1 197.9 87.2 195.8 87.2 C 195.2 87.2 194.5 87.2 194.2 87.2 C 194.2 87.2 194.2 85 194.2 85 C 194.5 85.1 195.3 85.1 195.8 85.1 C 197.8 85.1 199.4 84 199.4 81.7 C 199.4 79.3 198 78.2 195.9 78.2 C 194.2 78.2 192.9 79.1 191.9 80.6 C 191.9 80.6 190.4 79.2 190.4 79.2 C 191.6 77.3 193.6 76.1 196.1 76.1 C 199.3 76.1 201.8 77.8 201.8 81.4 C 201.8 83.9 200 85.6 198.2 86 C 200 86.3 202 88.1 202 91 C 202 94.3 199.9 96.7 196.1 96.7 C 193.2 96.7 191.2 95.2 190.2 93.4 Z M 204.9 86.4 C 204.9 81.6 206.5 76.1 211.2 76.1 C 215.8 76.1 217.4 81.6 217.4 86.4 C 217.4 91.2 215.8 96.7 211.2 96.7 C 206.5 96.7 204.9 91.2 204.9 86.4 Z M 215 86.4 C 215 82.4 214.2 78.2 211.2 78.2 C 208.1 78.2 207.3 82.4 207.3 86.4 C 207.3 90.3 208.1 94.6 211.2 94.6 C 214.2 94.6 215 90.3 215 86.4 Z " stroke="none" fill="#d0d1d4"/>  </g>  <g id="Polygon216264">    <path d="M 149.4 60.4 L 149.4 43.5 L 146.3 46.8 L 144.9 45.3 L 149.7 40.4 L 151.8 40.4 L 151.8 60.4 L 149.4 60.4 Z M 155.8 58.2 C 155.8 58.2 157.1 56.5 157.1 56.5 C 157.9 57.8 158.8 58.6 160.5 58.6 C 163.7 58.6 164.8 54.3 164.8 50.6 C 164.8 50.3 164.8 50.2 164.8 50 C 164.1 51.4 162.5 52.9 160.4 52.9 C 157.5 52.9 155.1 50.8 155.1 46.5 C 155.1 43.2 157.2 40 160.9 40 C 165.7 40 167.2 45 167.2 50.4 C 167.2 55.8 165.3 60.7 160.5 60.7 C 158.4 60.7 156.8 59.7 155.8 58.2 Z M 164.7 47.8 C 164.6 45.6 163.8 42.2 161 42.2 C 158.6 42.2 157.6 44.4 157.6 46.5 C 157.6 49.7 159.1 50.9 161 50.9 C 162.7 50.9 164 49.4 164.7 47.8 Z M 170 55.5 C 170 52.8 172 50.8 174 50.1 C 172.2 49.4 170.3 47.7 170.3 45.2 C 170.3 41.7 173.1 40.1 175.9 40.1 C 178.8 40.1 181.6 41.7 181.6 45.2 C 181.6 47.7 179.7 49.4 177.9 50.1 C 179.9 50.8 181.9 52.8 181.9 55.4 C 181.9 58.7 179.4 60.7 175.9 60.7 C 172.4 60.7 170 58.7 170 55.5 Z M 179.2 45.5 C 179.2 43.5 177.9 42.2 175.9 42.2 C 174 42.2 172.7 43.5 172.7 45.5 C 172.7 47.9 175.2 48.9 175.9 49.2 C 176.7 48.9 179.2 47.9 179.2 45.5 Z M 179.5 55.2 C 179.5 52.5 176.8 51.2 175.9 51 C 175.1 51.2 172.4 52.5 172.4 55.2 C 172.4 57.3 174 58.6 175.9 58.6 C 177.9 58.6 179.5 57.3 179.5 55.2 Z M 185.1 59.1 C 185.1 58.2 185.8 57.5 186.6 57.5 C 187.5 57.5 188.3 58.2 188.3 59.1 C 188.3 60 187.5 60.7 186.6 60.7 C 185.8 60.7 185.1 60 185.1 59.1 Z M 191.4 55.5 C 191.4 52.8 193.4 50.8 195.4 50.1 C 193.6 49.4 191.7 47.7 191.7 45.2 C 191.7 41.7 194.5 40.1 197.4 40.1 C 200.2 40.1 203 41.7 203 45.2 C 203 47.7 201.1 49.4 199.3 50.1 C 201.3 50.8 203.3 52.8 203.3 55.4 C 203.3 58.7 200.8 60.7 197.4 60.7 C 193.8 60.7 191.4 58.7 191.4 55.5 Z M 200.6 45.5 C 200.6 43.5 199.3 42.2 197.4 42.2 C 195.4 42.2 194.1 43.5 194.1 45.5 C 194.1 47.9 196.6 48.9 197.4 49.2 C 198.1 48.9 200.6 47.9 200.6 45.5 Z M 200.9 55.2 C 200.9 52.5 198.2 51.2 197.4 51 C 196.5 51.2 193.8 52.5 193.8 55.2 C 193.8 57.3 195.4 58.6 197.4 58.6 C 199.3 58.6 200.9 57.3 200.9 55.2 Z M 205.5 57.4 C 205.5 57.4 207.1 56 207.1 56 C 208 57.5 209.5 58.6 211.4 58.6 C 213.8 58.6 215 57.1 215 54.8 C 215 52.1 213.2 51.2 211.2 51.2 C 210.6 51.2 209.9 51.2 209.6 51.2 C 209.6 51.2 209.6 49 209.6 49 C 209.9 49.1 210.6 49.1 211.1 49.1 C 213.1 49.1 214.8 48 214.8 45.7 C 214.8 43.3 213.3 42.2 211.3 42.2 C 209.5 42.2 208.3 43.1 207.3 44.6 C 207.3 44.6 205.8 43.2 205.8 43.2 C 207 41.3 209 40.1 211.5 40.1 C 214.7 40.1 217.1 41.8 217.1 45.4 C 217.1 47.9 215.4 49.6 213.6 50 C 215.3 50.3 217.4 52.1 217.4 55 C 217.4 58.3 215.3 60.7 211.5 60.7 C 208.6 60.7 206.5 59.2 205.5 57.4 Z " stroke="none" fill="#d0d1d4"/>  </g>  <g id="Polygon216263">    <path d="M 149.4 24.4 L 149.4 7.5 L 146.3 10.8 L 144.9 9.3 L 149.7 4.4 L 151.8 4.4 L 151.8 24.4 L 149.4 24.4 Z M 155.8 22.2 C 155.8 22.2 157.1 20.5 157.1 20.5 C 157.9 21.8 158.8 22.6 160.5 22.6 C 163.7 22.6 164.8 18.3 164.8 14.6 C 164.8 14.3 164.8 14.2 164.8 14 C 164.1 15.4 162.5 16.9 160.4 16.9 C 157.5 16.9 155.1 14.8 155.1 10.5 C 155.1 7.2 157.2 4 160.9 4 C 165.7 4 167.2 9 167.2 14.4 C 167.2 19.8 165.3 24.7 160.5 24.7 C 158.4 24.7 156.8 23.7 155.8 22.2 Z M 164.7 11.8 C 164.6 9.6 163.8 6.2 161 6.2 C 158.6 6.2 157.6 8.4 157.6 10.5 C 157.6 13.7 159.1 14.9 161 14.9 C 162.7 14.9 164 13.4 164.7 11.8 Z M 177.3 24.4 L 177.3 19.2 L 169.3 19.2 L 169.3 17.2 L 176.6 4.4 L 179.6 4.4 L 179.6 17.1 L 181.8 17.1 L 181.8 19.2 L 179.6 19.2 L 179.6 24.4 L 177.3 24.4 Z M 177.3 6.9 L 171.5 17.1 L 177.3 17.1 L 177.3 6.9 Z M 184.3 23.1 C 184.3 22.2 185.1 21.5 185.9 21.5 C 186.8 21.5 187.5 22.2 187.5 23.1 C 187.5 24 186.8 24.7 185.9 24.7 C 185.1 24.7 184.3 24 184.3 23.1 Z M 190.8 14.4 C 190.8 9 192.7 4.1 197.5 4.1 C 199.6 4.1 201.2 5.1 202.2 6.6 C 202.2 6.6 200.9 8.2 200.9 8.2 C 200.1 7 199.2 6.2 197.5 6.2 C 194.4 6.2 193.2 10.4 193.2 14.2 C 193.2 14.4 193.2 14.5 193.2 14.8 C 193.9 13.4 195.5 11.8 197.6 11.8 C 200.5 11.8 202.8 14 202.8 18.2 C 202.8 21.6 200.8 24.7 197.1 24.7 C 192.3 24.7 190.8 19.7 190.8 14.4 Z M 200.4 18.3 C 200.4 15.1 198.9 13.9 197 13.9 C 195.3 13.9 194 15.3 193.2 17 C 193.4 19.2 194.1 22.6 197 22.6 C 199.4 22.6 200.4 20.4 200.4 18.3 Z M 205.7 21.5 C 205.7 21.5 207.3 20 207.3 20 C 208.2 21.7 209.5 22.6 211.5 22.6 C 213.7 22.6 215.1 20.6 215.1 18.3 C 215.1 15.4 213.7 13.8 211.6 13.8 C 210.2 13.8 209.1 14.4 208 15.7 C 208 15.71 206.2 15.1 206.2 15.1 L 206.2 4.4 L 216.4 4.4 L 216.4 6.5 L 208.6 6.5 C 208.6 6.5 208.6 13.49 208.6 13.5 C 209.4 12.5 210.7 11.7 212.3 11.7 C 215.2 11.7 217.5 14 217.5 18.2 C 217.5 22 215 24.7 211.5 24.7 C 208.6 24.7 206.9 23.5 205.7 21.5 Z " stroke="none" fill="#d0d1d4"/>  </g></svg>