<?xml version="1.0" standalone="no"?><!DOCTYPE svg PUBLIC "-//W3C//DTD SVG 1.1//EN" "http://www.w3.org/Graphics/SVG/1.1/DTD/svg11.dtd"><svg xmlns="http://www.w3.org/2000/svg" version="1.1" width="456px" height="85.6px" viewBox="0 0 456 85.6">  <desc>Scavenged Ingredients</desc>  <defs/>  <g id="Polygon151287">    <path d="M 0.7 44.2 C 0.7 44.2 4 38.2 4 38.2 C 5.6 40.3 8.2 41.4 10.6 41.4 C 13 41.4 14.6 39.6 14.6 37 C 14.6 29.9 1.9 29.9 1.9 17.9 C 1.9 11.9 5.9 6.7 13 6.7 C 16.4 6.7 19.5 7.9 21.7 10 C 21.7 10 18.8 15.8 18.8 15.8 C 17.2 14.2 15.4 13.4 13.3 13.4 C 11.1 13.4 9.5 15.1 9.5 17.5 C 9.5 23.7 22.3 24.5 22.3 36.5 C 22.3 43.3 17.9 48.1 11 48.1 C 6.7 48.1 3.3 46.7 0.7 44.2 Z M 25.4 32.9 C 25.4 24.1 29.5 17.7 36.4 17.7 C 39.7 17.7 42.1 18.9 43.4 20.3 C 43.4 20.3 41.3 25.6 41.3 25.6 C 40.1 24.3 39 23.7 37.6 23.7 C 34.1 23.7 32.3 27.8 32.3 32.9 C 32.3 37.9 34.1 42.1 37.6 42.1 C 39 42.1 40.1 41.5 41.3 40.3 C 41.3 40.3 43.4 45.5 43.4 45.5 C 42.1 47 39.7 48.1 36.4 48.1 C 29.5 48.1 25.4 41.7 25.4 32.9 Z M 59.8 47.4 C 59.8 47.4 59.76 44.64 59.8 44.6 C 58.5 46.9 55.8 48.1 53.7 48.1 C 49.1 48.1 45.8 44.4 45.8 38.5 C 45.8 32.6 49.1 29 53.7 29 C 55.8 29 58.6 30.1 59.8 32.3 C 59.8 32.3 59.8 28.7 59.8 28.7 C 59.8 25.4 58.4 23.5 55.4 23.5 C 53.5 23.5 51.4 24.4 49.5 26.3 C 49.5 26.3 47 21.5 47 21.5 C 49.6 18.7 53.8 17.7 56.8 17.7 C 62.7 17.7 66.5 20.7 66.5 27.2 C 66.54 27.18 66.5 47.4 66.5 47.4 L 59.8 47.4 Z M 59.8 40.6 C 59.8 40.6 59.8 36.7 59.8 36.7 C 59 34.9 57.6 33.7 56.1 33.7 C 53.8 33.7 52.6 35.8 52.6 38.6 C 52.6 41.3 53.8 43.6 56.1 43.6 C 57.6 43.6 59 42.4 59.8 40.6 Z M 77 47.4 L 69.4 18.4 L 76.6 18.4 L 80.7 38.9 L 84.9 18.4 L 92 18.4 L 84.4 47.4 L 77 47.4 Z M 93.7 32.9 C 93.7 24.5 97.3 17.7 104.6 17.7 C 111.9 17.7 115 24.2 115 32.8 C 114.96 32.76 115 35.1 115 35.1 C 115 35.1 100.26 35.1 100.3 35.1 C 100.3 39.4 102.1 42.6 106 42.6 C 107.6 42.6 109.4 41.5 110.8 39.7 C 110.8 39.7 114.1 43.5 114.1 43.5 C 111.8 46.4 108.5 48.1 105.2 48.1 C 97.7 48.1 93.7 41.8 93.7 32.9 Z M 104.4 23.2 C 101.1 23.2 100.3 27.3 100.3 30.4 C 100.3 30.4 108.4 30.4 108.4 30.4 C 108.4 27.1 107.7 23.2 104.4 23.2 Z M 132 47.4 C 132 47.4 132 26.76 132 26.8 C 132 24.7 131.3 23.7 129.8 23.7 C 128 23.7 126.5 25.6 125.9 27.5 C 125.88 27.48 125.9 47.4 125.9 47.4 L 119.1 47.4 L 119.1 18.4 L 125.9 18.4 C 125.9 18.4 125.88 22.2 125.9 22.2 C 127 19.9 130 17.7 132.7 17.7 C 137 17.7 138.8 20.3 138.8 24.3 C 138.84 24.3 138.8 47.4 138.8 47.4 L 132 47.4 Z M 144.2 56 C 144.2 56 146.5 50.5 146.5 50.5 C 148.2 52.2 150.2 53.3 152.5 53.3 C 155.3 53.3 157.4 51.4 157.4 46.9 C 157.4 46.9 157.4 42.7 157.4 42.7 C 156.1 45.7 153.8 47.2 151.7 47.2 C 146 47.2 143.2 41.8 143.2 32.5 C 143.2 23.3 146 17.7 151.7 17.7 C 153.8 17.7 156.2 19 157.4 22 C 157.38 22.02 157.4 18.4 157.4 18.4 L 164.2 18.4 C 164.2 18.4 164.16 46.44 164.2 46.4 C 164.2 56.4 158.8 59.2 153.2 59.2 C 149.6 59.2 146.6 58.3 144.2 56 Z M 157.4 37.7 C 157.4 37.7 157.4 27.2 157.4 27.2 C 156.8 25.3 155.4 23.7 154 23.7 C 151 23.7 150.1 27.4 150.1 32.5 C 150.1 37.6 151 41.2 154 41.2 C 155.4 41.2 156.8 39.6 157.4 37.7 Z M 168.5 32.9 C 168.5 24.5 172.1 17.7 179.4 17.7 C 186.7 17.7 189.8 24.2 189.8 32.8 C 189.78 32.76 189.8 35.1 189.8 35.1 C 189.8 35.1 175.08 35.1 175.1 35.1 C 175.1 39.4 176.9 42.6 180.8 42.6 C 182.4 42.6 184.3 41.5 185.6 39.7 C 185.6 39.7 188.9 43.5 188.9 43.5 C 186.6 46.4 183.4 48.1 180.1 48.1 C 172.5 48.1 168.5 41.8 168.5 32.9 Z M 179.2 23.2 C 175.9 23.2 175.1 27.3 175.1 30.4 C 175.1 30.4 183.2 30.4 183.2 30.4 C 183.2 27.1 182.5 23.2 179.2 23.2 Z M 207 47.4 C 207 47.4 207 43.8 207 43.8 C 205.7 46.7 203.4 48.1 201.4 48.1 C 195.7 48.1 192.8 42.2 192.8 32.9 C 192.8 23.8 195.7 17.7 201.4 17.7 C 203.4 17.7 205.8 19 207 22 C 207 22.02 207 7.4 207 7.4 L 213.8 7.4 L 213.8 47.4 L 207 47.4 Z M 207 38.6 C 207 38.6 207 27.2 207 27.2 C 206.4 25.3 205 23.7 203.6 23.7 C 200.6 23.7 199.7 27.8 199.7 32.9 C 199.7 38 200.6 42.1 203.6 42.1 C 205 42.1 206.4 40.6 207 38.6 Z M 229.4 47.4 L 229.4 7.4 L 237 7.4 L 237 47.4 L 229.4 47.4 Z M 255.8 47.4 C 255.8 47.4 255.78 26.76 255.8 26.8 C 255.8 24.7 255.1 23.7 253.6 23.7 C 251.8 23.7 250.3 25.6 249.7 27.5 C 249.66 27.48 249.7 47.4 249.7 47.4 L 242.9 47.4 L 242.9 18.4 L 249.7 18.4 C 249.7 18.4 249.66 22.2 249.7 22.2 C 250.8 19.9 253.8 17.7 256.4 17.7 C 260.8 17.7 262.6 20.3 262.6 24.3 C 262.62 24.3 262.6 47.4 262.6 47.4 L 255.8 47.4 Z M 268 56 C 268 56 270.3 50.5 270.3 50.5 C 272 52.2 274 53.3 276.2 53.3 C 279.1 53.3 281.2 51.4 281.2 46.9 C 281.2 46.9 281.2 42.7 281.2 42.7 C 279.9 45.7 277.6 47.2 275.5 47.2 C 269.8 47.2 266.9 41.8 266.9 32.5 C 266.9 23.3 269.8 17.7 275.5 17.7 C 277.6 17.7 280 19 281.2 22 C 281.16 22.02 281.2 18.4 281.2 18.4 L 287.9 18.4 C 287.9 18.4 287.94 46.44 287.9 46.4 C 287.9 56.4 282.6 59.2 277 59.2 C 273.4 59.2 270.4 58.3 268 56 Z M 281.2 37.7 C 281.2 37.7 281.2 27.2 281.2 27.2 C 280.6 25.3 279.2 23.7 277.7 23.7 C 274.7 23.7 273.9 27.4 273.9 32.5 C 273.9 37.6 274.7 41.2 277.7 41.2 C 279.2 41.2 280.6 39.6 281.2 37.7 Z M 293.5 47.4 L 293.5 18.4 L 300.2 18.4 C 300.2 18.4 300.23 22.44 300.2 22.4 C 301.4 19.8 304.2 17.7 306.7 17.7 C 306.7 17.7 306.7 24.4 306.7 24.4 C 306.3 24.2 305.8 24.2 305.4 24.2 C 303.4 24.2 301.4 25.8 300.2 27.9 C 300.23 27.9 300.2 47.4 300.2 47.4 L 293.5 47.4 Z M 309.1 32.9 C 309.1 24.5 312.7 17.7 320 17.7 C 327.3 17.7 330.4 24.2 330.4 32.8 C 330.35 32.76 330.4 35.1 330.4 35.1 C 330.4 35.1 315.65 35.1 315.7 35.1 C 315.7 39.4 317.5 42.6 321.4 42.6 C 323 42.6 324.8 41.5 326.2 39.7 C 326.2 39.7 329.5 43.5 329.5 43.5 C 327.2 46.4 323.9 48.1 320.6 48.1 C 313.1 48.1 309.1 41.8 309.1 32.9 Z M 319.8 23.2 C 316.5 23.2 315.7 27.3 315.7 30.4 C 315.7 30.4 323.8 30.4 323.8 30.4 C 323.8 27.1 323.1 23.2 319.8 23.2 Z M 347.6 47.4 C 347.6 47.4 347.57 43.8 347.6 43.8 C 346.3 46.7 344 48.1 341.9 48.1 C 336.2 48.1 333.4 42.2 333.4 32.9 C 333.4 23.8 336.2 17.7 341.9 17.7 C 344 17.7 346.4 19 347.6 22 C 347.57 22.02 347.6 7.4 347.6 7.4 L 354.4 7.4 L 354.4 47.4 L 347.6 47.4 Z M 347.6 38.6 C 347.6 38.6 347.6 27.2 347.6 27.2 C 347 25.3 345.6 23.7 344.2 23.7 C 341.2 23.7 340.3 27.8 340.3 32.9 C 340.3 38 341.2 42.1 344.2 42.1 C 345.6 42.1 347 40.6 347.6 38.6 Z M 359.1 10.9 C 359.1 8.6 361 6.8 363.2 6.8 C 365.5 6.8 367.4 8.6 367.4 10.9 C 367.4 13.2 365.5 15 363.2 15 C 361 15 359.1 13.2 359.1 10.9 Z M 359.9 47.4 L 359.9 18.4 L 366.7 18.4 L 366.7 47.4 L 359.9 47.4 Z M 371 32.9 C 371 24.5 374.6 17.7 381.8 17.7 C 389.2 17.7 392.2 24.2 392.2 32.8 C 392.21 32.76 392.2 35.1 392.2 35.1 C 392.2 35.1 377.51 35.1 377.5 35.1 C 377.6 39.4 379.4 42.6 383.2 42.6 C 384.8 42.6 386.7 41.5 388 39.7 C 388 39.7 391.3 43.5 391.3 43.5 C 389 46.4 385.8 48.1 382.5 48.1 C 374.9 48.1 371 41.8 371 32.9 Z M 381.7 23.2 C 378.4 23.2 377.5 27.3 377.5 30.4 C 377.5 30.4 385.7 30.4 385.7 30.4 C 385.7 27.1 385 23.2 381.7 23.2 Z M 409.3 47.4 C 409.3 47.4 409.25 26.76 409.3 26.8 C 409.3 24.7 408.5 23.7 407 23.7 C 405.3 23.7 403.8 25.6 403.1 27.5 C 403.13 27.48 403.1 47.4 403.1 47.4 L 396.4 47.4 L 396.4 18.4 L 403.1 18.4 C 403.1 18.4 403.13 22.2 403.1 22.2 C 404.3 19.9 407.3 17.7 409.9 17.7 C 414.3 17.7 416.1 20.3 416.1 24.3 C 416.09 24.3 416.1 47.4 416.1 47.4 L 409.3 47.4 Z M 422.5 40.7 C 422.45 40.74 422.5 24.3 422.5 24.3 L 419.8 24.3 L 419.8 18.4 L 422.5 18.4 L 422.5 10.5 L 429.2 10.5 L 429.2 18.4 L 432.9 18.4 L 432.9 24.3 L 429.2 24.3 C 429.2 24.3 429.23 39.42 429.2 39.4 C 429.2 41.2 429.7 42.1 430.9 42.1 C 431.5 42.1 432.1 41.8 432.5 41.3 C 432.5 41.3 433.9 46.6 433.9 46.6 C 432.8 47.5 431.2 48.1 429.1 48.1 C 424.4 48.1 422.5 45.7 422.5 40.7 Z M 435 44.3 C 435 44.3 437.8 39.7 437.8 39.7 C 439.4 41.4 441.5 42.8 443.8 42.8 C 446 42.8 447.5 41.6 447.5 39.7 C 447.5 34.9 436 36 436 25.9 C 436 21.5 439.3 17.7 445.3 17.7 C 448.6 17.7 451.6 19 453.8 21.1 C 453.8 21.1 451 25.7 451 25.7 C 449.9 24.3 447.8 23 445.4 23 C 443.6 23 442.3 24.2 442.3 25.7 C 442.3 30.1 453.9 29.3 453.9 39.5 C 453.9 44.6 449.9 48.1 444.4 48.1 C 440.1 48.1 436.9 46.6 435 44.3 Z " stroke="none" fill="#b13d24"/>  </g></svg>