<?xml version="1.0" standalone="no"?><!DOCTYPE svg PUBLIC "-//W3C//DTD SVG 1.1//EN" "http://www.w3.org/Graphics/SVG/1.1/DTD/svg11.dtd"><svg xmlns="http://www.w3.org/2000/svg" version="1.1" width="648px" height="575.3px" viewBox="0 0 648 575.3">  <desc>Mix together sanitary pad, a bit of water, bits of red ribbon, chopped up cable insulation, and white sand When thor</desc>  <defs/>  <g id="Polygon180778">    <path d="M 307.5 307.9 C 305.7 307.9 304.3 306.5 304.3 304.8 C 304.3 303 305.7 301.6 307.5 301.6 C 309.2 301.6 310.7 303 310.7 304.8 C 310.7 306.5 309.2 307.9 307.5 307.9 Z M 324.7 307.9 C 322.9 307.9 321.4 306.5 321.4 304.8 C 321.4 303 322.9 301.6 324.7 301.6 C 326.4 301.6 327.9 303 327.9 304.8 C 327.9 306.5 326.4 307.9 324.7 307.9 Z M 341.8 307.9 C 340.1 307.9 338.6 306.5 338.6 304.8 C 338.6 303 340.1 301.6 341.8 301.6 C 343.6 301.6 345.1 303 345.1 304.8 C 345.1 306.5 343.6 307.9 341.8 307.9 Z " stroke="none" fill="#b13d24"/>  </g>  <g id="Polygon180777">    <path d="M 0.9 237.1 C 0.9 237.1 2.4 235.6 2.4 235.6 C 3.4 237.1 4.8 238.3 6.7 238.3 C 9.1 238.3 10.3 236.8 10.3 234.4 C 10.3 231.7 8.6 230.8 6.5 230.8 C 5.9 230.8 5.2 230.8 4.9 230.8 C 4.9 230.8 4.9 228.7 4.9 228.7 C 5.2 228.7 6 228.7 6.5 228.7 C 8.5 228.7 10.1 227.6 10.1 225.4 C 10.1 223 8.7 221.8 6.7 221.8 C 4.9 221.8 3.6 222.8 2.6 224.2 C 2.6 224.2 1.1 222.9 1.1 222.9 C 2.3 220.9 4.3 219.7 6.8 219.7 C 10.1 219.7 12.5 221.5 12.5 225 C 12.5 227.5 10.7 229.3 8.9 229.7 C 10.7 229.9 12.8 231.7 12.8 234.6 C 12.8 238 10.6 240.4 6.8 240.4 C 4 240.4 1.9 238.9 0.9 237.1 Z M 15.7 238.7 C 15.7 237.9 16.4 237.1 17.3 237.1 C 18.2 237.1 18.9 237.9 18.9 238.7 C 18.9 239.6 18.2 240.3 17.3 240.3 C 16.4 240.3 15.7 239.6 15.7 238.7 Z M 40.9 240 L 39.6 235.5 L 32.5 235.5 L 31.2 240 L 28.6 240 L 34.6 220 L 37.4 220 L 43.4 240 L 40.9 240 Z M 36 222.7 L 33 233.4 L 39.1 233.4 L 36 222.7 Z M 53.6 240 C 53.6 240 53.58 237.95 53.6 238 C 52.7 239.4 51.3 240.4 49.8 240.4 C 46.5 240.4 44.6 237.4 44.6 232.8 C 44.6 228.3 46.5 225.2 49.8 225.2 C 51.2 225.2 52.7 226 53.6 227.6 C 53.58 227.63 53.6 220 53.6 220 L 55.7 220 L 55.7 240 L 53.6 240 Z M 53.6 236.1 C 53.6 236.1 53.6 229.5 53.6 229.5 C 53 228.2 51.7 227.1 50.3 227.1 C 47.9 227.1 46.8 229.6 46.8 232.8 C 46.8 235.9 47.9 238.5 50.3 238.5 C 51.7 238.5 53 237.4 53.6 236.1 Z M 67.7 240 C 67.7 240 67.68 237.95 67.7 238 C 66.8 239.4 65.4 240.4 63.9 240.4 C 60.6 240.4 58.7 237.4 58.7 232.8 C 58.7 228.3 60.6 225.2 63.9 225.2 C 65.3 225.2 66.8 226 67.7 227.6 C 67.68 227.63 67.7 220 67.7 220 L 69.8 220 L 69.8 240 L 67.7 240 Z M 67.7 236.1 C 67.7 236.1 67.7 229.5 67.7 229.5 C 67.1 228.2 65.8 227.1 64.4 227.1 C 62 227.1 60.9 229.6 60.9 232.8 C 60.9 235.9 62 238.5 64.4 238.5 C 65.8 238.5 67.1 237.4 67.7 236.1 Z M 82.6 240 L 77.8 225.5 L 80.2 225.5 L 83.8 237.5 L 87.4 225.5 L 89.7 225.5 L 85 240 L 82.6 240 Z M 90.9 232.8 C 90.9 228.6 93.1 225.2 96.7 225.2 C 100.6 225.2 102.5 228.6 102.5 232.8 C 102.48 232.82 102.5 233.5 102.5 233.5 C 102.5 233.5 93.09 233.48 93.1 233.5 C 93.2 236.4 94.7 238.6 97.3 238.6 C 98.5 238.6 99.8 238 100.7 236.8 C 100.7 236.8 101.8 238.1 101.8 238.1 C 100.7 239.5 99 240.4 97.1 240.4 C 93.2 240.4 90.9 237.2 90.9 232.8 Z M 96.7 227 C 94.2 227 93.1 229.8 93.1 231.9 C 93.1 231.9 100.3 231.9 100.3 231.9 C 100.3 229.7 99.4 227 96.7 227 Z M 105.3 240 L 105.3 225.5 L 107.5 225.5 C 107.5 225.5 107.46 227.84 107.5 227.8 C 108.4 226.3 109.8 225.2 111.6 225.2 C 111.6 225.2 111.6 227.5 111.6 227.5 C 111.3 227.4 111.1 227.4 110.8 227.4 C 109.5 227.4 108.1 228.5 107.5 229.7 C 107.46 229.73 107.5 240 107.5 240 L 105.3 240 Z M 128.4 240 C 128.4 240 128.39 229.52 128.4 229.5 C 128.4 228 127.8 227.1 126.4 227.1 C 125.1 227.1 123.8 228.2 123.2 229.4 C 123.23 229.4 123.2 240 123.2 240 L 121.1 240 C 121.1 240 121.07 229.52 121.1 229.5 C 121.1 228 120.4 227.1 119 227.1 C 117.7 227.1 116.5 228.2 115.9 229.4 C 115.88 229.4 115.9 240 115.9 240 L 113.8 240 L 113.8 225.5 L 115.9 225.5 C 115.9 225.5 115.88 227.6 115.9 227.6 C 116.5 226.5 118.1 225.2 119.8 225.2 C 121.7 225.2 122.8 226.2 123.1 227.8 C 123.8 226.4 125.5 225.2 127.2 225.2 C 129.3 225.2 130.6 226.3 130.6 229 C 130.55 228.95 130.6 240 130.6 240 L 128.4 240 Z M 133.8 222 C 133.8 221.2 134.5 220.5 135.3 220.5 C 136.1 220.5 136.7 221.2 136.7 222 C 136.7 222.8 136.1 223.4 135.3 223.4 C 134.5 223.4 133.8 222.8 133.8 222 Z M 134.2 240 L 134.2 225.5 L 136.3 225.5 L 136.3 240 L 134.2 240 Z M 140 240 L 140 220 L 142.1 220 L 142.1 240 L 140 240 Z M 145.8 240 L 145.8 220 L 147.9 220 L 147.9 240 L 145.8 240 Z M 151.2 222 C 151.2 221.2 151.9 220.5 152.6 220.5 C 153.4 220.5 154.1 221.2 154.1 222 C 154.1 222.8 153.4 223.4 152.6 223.4 C 151.9 223.4 151.2 222.8 151.2 222 Z M 151.6 240 L 151.6 225.5 L 153.7 225.5 L 153.7 240 L 151.6 240 Z M 156.7 232.8 C 156.7 228.7 158.7 225.2 162.5 225.2 C 166.4 225.2 168.4 228.7 168.4 232.8 C 168.4 236.8 166.4 240.4 162.5 240.4 C 158.7 240.4 156.7 236.8 156.7 232.8 Z M 166.2 232.8 C 166.2 229.9 165.1 227.1 162.5 227.1 C 160 227.1 158.9 229.9 158.9 232.8 C 158.9 235.7 160 238.5 162.5 238.5 C 165.1 238.5 166.2 235.7 166.2 232.8 Z M 179.2 240 C 179.2 240 179.21 229.7 179.2 229.7 C 179.2 227.8 178.3 227.1 176.9 227.1 C 175.5 227.1 174.2 228.2 173.5 229.4 C 173.51 229.4 173.5 240 173.5 240 L 171.4 240 L 171.4 225.5 L 173.5 225.5 C 173.5 225.5 173.51 227.6 173.5 227.6 C 174.4 226.3 176 225.2 177.7 225.2 C 180.2 225.2 181.4 226.5 181.4 229.1 C 181.37 229.1 181.4 240 181.4 240 L 179.2 240 Z M 198.6 240 C 198.6 240 198.62 238.46 198.6 238.5 C 197.7 239.8 196.3 240.4 194.8 240.4 C 192.5 240.4 190.4 238.6 190.4 235.6 C 190.4 232.5 192.4 230.8 194.8 230.8 C 196.3 230.8 197.7 231.4 198.6 232.6 C 198.6 232.6 198.6 230.1 198.6 230.1 C 198.6 228.1 197.5 227 195.7 227 C 194.3 227 193.1 227.5 192 228.8 C 192 228.8 191.1 227.3 191.1 227.3 C 192.4 225.8 194.2 225.2 196 225.2 C 198.9 225.2 200.8 226.6 200.8 229.9 C 200.78 229.88 200.8 240 200.8 240 L 198.6 240 Z M 198.6 237 C 198.6 237 198.6 234.2 198.6 234.2 C 198 233 196.8 232.4 195.5 232.4 C 193.7 232.4 192.6 233.8 192.6 235.6 C 192.6 237.4 193.7 238.8 195.5 238.8 C 196.8 238.8 198 238.2 198.6 237 Z M 203.7 232.8 C 203.7 228.5 206 225.2 209.7 225.2 C 211.7 225.2 212.9 226 213.8 227.1 C 213.8 227.1 212.7 228.6 212.7 228.6 C 211.9 227.5 211 227.1 209.9 227.1 C 207.3 227.1 205.9 229.7 205.9 232.8 C 205.9 235.9 207.3 238.5 209.9 238.5 C 211 238.5 211.9 238 212.7 237 C 212.7 237 213.8 238.5 213.8 238.5 C 212.9 239.6 211.7 240.4 209.7 240.4 C 206 240.4 203.7 237.1 203.7 232.8 Z M 216.3 240 L 216.3 225.5 L 218.4 225.5 C 218.4 225.5 218.42 227.84 218.4 227.8 C 219.4 226.3 220.8 225.2 222.5 225.2 C 222.5 225.2 222.5 227.5 222.5 227.5 C 222.3 227.4 222.1 227.4 221.8 227.4 C 220.5 227.4 219 228.5 218.4 229.7 C 218.42 229.73 218.4 240 218.4 240 L 216.3 240 Z M 224.3 243.8 C 224.6 243.9 225 244 225.3 244 C 226.1 244 226.6 243.7 227 242.5 C 226.97 242.54 227.8 240.3 227.8 240.3 L 222.9 225.5 L 225.3 225.5 L 228.9 237.4 L 232.5 225.5 L 234.8 225.5 C 234.8 225.5 229.01 243.08 229 243.1 C 228.3 245.2 227.1 245.9 225.4 245.9 C 225 245.9 224.3 245.8 224 245.7 C 224 245.7 224.3 243.8 224.3 243.8 Z M 236.7 240 L 236.7 220 L 238.8 220 L 238.8 240 L 236.7 240 Z M 242 222 C 242 221.2 242.7 220.5 243.5 220.5 C 244.3 220.5 245 221.2 245 222 C 245 222.8 244.3 223.4 243.5 223.4 C 242.7 223.4 242 222.8 242 222 Z M 242.5 240 L 242.5 225.5 L 244.6 225.5 L 244.6 240 L 242.5 240 Z M 247.5 232.8 C 247.5 228.5 249.8 225.2 253.5 225.2 C 255.5 225.2 256.8 226 257.7 227.1 C 257.7 227.1 256.5 228.6 256.5 228.6 C 255.7 227.5 254.8 227.1 253.7 227.1 C 251.1 227.1 249.8 229.7 249.8 232.8 C 249.8 235.9 251.1 238.5 253.7 238.5 C 254.8 238.5 255.7 238 256.5 237 C 256.5 237 257.7 238.5 257.7 238.5 C 256.8 239.6 255.5 240.4 253.5 240.4 C 249.8 240.4 247.5 237.1 247.5 232.8 Z M 268.4 237.9 C 268.4 237.92 268.4 245.5 268.4 245.5 L 266.3 245.5 L 266.3 225.5 L 268.4 225.5 C 268.4 225.5 268.4 227.6 268.4 227.6 C 269.2 226.1 270.7 225.2 272.2 225.2 C 275.5 225.2 277.4 228.2 277.4 232.8 C 277.4 237.3 275.5 240.4 272.2 240.4 C 270.7 240.4 269.3 239.5 268.4 237.9 Z M 275.1 232.8 C 275.1 229.6 274 227.1 271.7 227.1 C 270.3 227.1 269 228.2 268.4 229.4 C 268.4 229.4 268.4 236.1 268.4 236.1 C 269 237.3 270.3 238.5 271.7 238.5 C 274 238.5 275.1 235.9 275.1 232.8 Z M 287.7 240 C 287.7 240 287.75 238.46 287.7 238.5 C 286.8 239.8 285.4 240.4 283.9 240.4 C 281.6 240.4 279.6 238.6 279.6 235.6 C 279.6 232.5 281.6 230.8 283.9 230.8 C 285.4 230.8 286.8 231.4 287.7 232.6 C 287.7 232.6 287.7 230.1 287.7 230.1 C 287.7 228.1 286.7 227 284.8 227 C 283.4 227 282.3 227.5 281.1 228.8 C 281.1 228.8 280.2 227.3 280.2 227.3 C 281.6 225.8 283.3 225.2 285.1 225.2 C 288 225.2 289.9 226.6 289.9 229.9 C 289.91 229.88 289.9 240 289.9 240 L 287.7 240 Z M 287.7 237 C 287.7 237 287.7 234.2 287.7 234.2 C 287.1 233 285.9 232.4 284.6 232.4 C 282.8 232.4 281.7 233.8 281.7 235.6 C 281.7 237.4 282.8 238.8 284.6 238.8 C 285.9 238.8 287.1 238.2 287.7 237 Z M 293.1 222 C 293.1 221.2 293.8 220.5 294.6 220.5 C 295.4 220.5 296.1 221.2 296.1 222 C 296.1 222.8 295.4 223.4 294.6 223.4 C 293.8 223.4 293.1 222.8 293.1 222 Z M 293.5 240 L 293.5 225.5 L 295.7 225.5 L 295.7 240 L 293.5 240 Z M 307.2 240 C 307.2 240 307.16 229.7 307.2 229.7 C 307.2 227.8 306.3 227.1 304.8 227.1 C 303.4 227.1 302.1 228.2 301.5 229.4 C 301.46 229.4 301.5 240 301.5 240 L 299.3 240 L 299.3 225.5 L 301.5 225.5 C 301.5 225.5 301.46 227.6 301.5 227.6 C 302.3 226.3 303.9 225.2 305.7 225.2 C 308.1 225.2 309.3 226.5 309.3 229.1 C 309.32 229.1 309.3 240 309.3 240 L 307.2 240 Z M 313.4 237.1 C 313.4 237.11 313.4 227.4 313.4 227.4 L 311.5 227.4 L 311.5 225.5 L 313.4 225.5 L 313.4 221.6 L 315.6 221.6 L 315.6 225.5 L 318 225.5 L 318 227.4 L 315.6 227.4 C 315.6 227.4 315.56 236.72 315.6 236.7 C 315.6 237.8 315.9 238.5 316.7 238.5 C 317.3 238.5 317.7 238.2 318 237.9 C 318 237.9 318.6 239.5 318.6 239.5 C 318.1 240 317.4 240.4 316.3 240.4 C 314.3 240.4 313.4 239.3 313.4 237.1 Z M 326.3 222 C 326.3 221.2 327 220.5 327.8 220.5 C 328.6 220.5 329.2 221.2 329.2 222 C 329.2 222.8 328.6 223.4 327.8 223.4 C 327 223.4 326.3 222.8 326.3 222 Z M 326.7 240 L 326.7 225.5 L 328.8 225.5 L 328.8 240 L 326.7 240 Z M 340.3 240 C 340.3 240 340.34 229.7 340.3 229.7 C 340.3 227.8 339.5 227.1 338 227.1 C 336.6 227.1 335.3 228.2 334.6 229.4 C 334.64 229.4 334.6 240 334.6 240 L 332.5 240 L 332.5 225.5 L 334.6 225.5 C 334.6 225.5 334.64 227.6 334.6 227.6 C 335.5 226.3 337.1 225.2 338.8 225.2 C 341.3 225.2 342.5 226.5 342.5 229.1 C 342.5 229.1 342.5 240 342.5 240 L 340.3 240 Z M 346.6 237.1 C 346.58 237.11 346.6 227.4 346.6 227.4 L 344.7 227.4 L 344.7 225.5 L 346.6 225.5 L 346.6 221.6 L 348.7 221.6 L 348.7 225.5 L 351.2 225.5 L 351.2 227.4 L 348.7 227.4 C 348.7 227.4 348.74 236.72 348.7 236.7 C 348.7 237.8 349.1 238.5 349.9 238.5 C 350.4 238.5 350.9 238.2 351.2 237.9 C 351.2 237.9 351.8 239.5 351.8 239.5 C 351.3 240 350.6 240.4 349.5 240.4 C 347.5 240.4 346.6 239.3 346.6 237.1 Z M 353 232.8 C 353 228.7 355.1 225.2 358.9 225.2 C 362.8 225.2 364.8 228.7 364.8 232.8 C 364.8 236.8 362.8 240.4 358.9 240.4 C 355.1 240.4 353 236.8 353 232.8 Z M 362.6 232.8 C 362.6 229.9 361.5 227.1 358.9 227.1 C 356.4 227.1 355.3 229.9 355.3 232.8 C 355.3 235.7 356.4 238.5 358.9 238.5 C 361.5 238.5 362.6 235.7 362.6 232.8 Z M 374.3 237.1 C 374.33 237.11 374.3 227.4 374.3 227.4 L 372.4 227.4 L 372.4 225.5 L 374.3 225.5 L 374.3 221.6 L 376.5 221.6 L 376.5 225.5 L 378.9 225.5 L 378.9 227.4 L 376.5 227.4 C 376.5 227.4 376.49 236.72 376.5 236.7 C 376.5 237.8 376.8 238.5 377.7 238.5 C 378.2 238.5 378.6 238.2 378.9 237.9 C 378.9 237.9 379.6 239.5 379.6 239.5 C 379.1 240 378.3 240.4 377.2 240.4 C 375.3 240.4 374.3 239.3 374.3 237.1 Z M 389.4 240 C 389.4 240 389.36 229.67 389.4 229.7 C 389.4 227.8 388.5 227.1 387 227.1 C 385.6 227.1 384.3 228.2 383.6 229.4 C 383.63 229.4 383.6 240 383.6 240 L 381.5 240 L 381.5 220 L 383.6 220 C 383.6 220 383.63 227.6 383.6 227.6 C 384.5 226.3 386.1 225.2 387.9 225.2 C 390.3 225.2 391.5 226.4 391.5 229 C 391.49 229.04 391.5 240 391.5 240 L 389.4 240 Z M 394.4 232.8 C 394.4 228.6 396.6 225.2 400.3 225.2 C 404.1 225.2 406 228.6 406 232.8 C 406.04 232.82 406 233.5 406 233.5 C 406 233.5 396.65 233.48 396.6 233.5 C 396.7 236.4 398.2 238.6 400.8 238.6 C 402.1 238.6 403.4 238 404.3 236.8 C 404.3 236.8 405.4 238.1 405.4 238.1 C 404.2 239.5 402.6 240.4 400.6 240.4 C 396.8 240.4 394.4 237.2 394.4 232.8 Z M 400.3 227 C 397.7 227 396.7 229.8 396.6 231.9 C 396.6 231.9 403.9 231.9 403.9 231.9 C 403.9 229.7 402.9 227 400.3 227 Z M 429.7 240 C 429.7 240 429.68 229.52 429.7 229.5 C 429.7 228 429 227.1 427.7 227.1 C 426.4 227.1 425.1 228.2 424.5 229.4 C 424.52 229.4 424.5 240 424.5 240 L 422.4 240 C 422.4 240 422.36 229.52 422.4 229.5 C 422.4 228 421.7 227.1 420.3 227.1 C 419 227.1 417.8 228.2 417.2 229.4 C 417.17 229.4 417.2 240 417.2 240 L 415 240 L 415 225.5 L 417.2 225.5 C 417.2 225.5 417.17 227.6 417.2 227.6 C 417.8 226.5 419.4 225.2 421.1 225.2 C 423 225.2 424.1 226.2 424.4 227.8 C 425.1 226.4 426.7 225.2 428.5 225.2 C 430.6 225.2 431.8 226.3 431.8 229 C 431.84 228.95 431.8 240 431.8 240 L 429.7 240 Z M 435.1 222 C 435.1 221.2 435.8 220.5 436.5 220.5 C 437.4 220.5 438 221.2 438 222 C 438 222.8 437.4 223.4 436.5 223.4 C 435.8 223.4 435.1 222.8 435.1 222 Z M 435.5 240 L 435.5 225.5 L 437.6 225.5 L 437.6 240 L 435.5 240 Z M 448.7 240 L 445.4 234.2 L 442.1 240 L 439.7 240 L 444.1 232.6 L 439.9 225.5 L 442.3 225.5 L 445.4 231.1 L 448.5 225.5 L 450.9 225.5 L 446.7 232.6 L 451.1 240 L 448.7 240 Z M 453.6 237.1 C 453.58 237.11 453.6 227.4 453.6 227.4 L 451.7 227.4 L 451.7 225.5 L 453.6 225.5 L 453.6 221.6 L 455.7 221.6 L 455.7 225.5 L 458.2 225.5 L 458.2 227.4 L 455.7 227.4 C 455.7 227.4 455.74 236.72 455.7 236.7 C 455.7 237.8 456.1 238.5 456.9 238.5 C 457.5 238.5 457.9 238.2 458.2 237.9 C 458.2 237.9 458.8 239.5 458.8 239.5 C 458.3 240 457.6 240.4 456.5 240.4 C 454.5 240.4 453.6 239.3 453.6 237.1 Z M 468.6 240 C 468.6 240 468.58 238.01 468.6 238 C 467.7 239.3 466.2 240.4 464.4 240.4 C 461.9 240.4 460.8 239.2 460.8 236.5 C 460.75 236.51 460.8 225.5 460.8 225.5 L 462.9 225.5 C 462.9 225.5 462.88 235.88 462.9 235.9 C 462.9 237.8 463.8 238.5 465.2 238.5 C 466.6 238.5 468 237.4 468.6 236.2 C 468.58 236.21 468.6 225.5 468.6 225.5 L 470.7 225.5 L 470.7 240 L 468.6 240 Z M 474.4 240 L 474.4 225.5 L 476.5 225.5 C 476.5 225.5 476.53 227.84 476.5 227.8 C 477.5 226.3 478.9 225.2 480.6 225.2 C 480.6 225.2 480.6 227.5 480.6 227.5 C 480.4 227.4 480.2 227.4 479.9 227.4 C 478.6 227.4 477.1 228.5 476.5 229.7 C 476.53 229.73 476.5 240 476.5 240 L 474.4 240 Z M 482.1 232.8 C 482.1 228.6 484.3 225.2 488 225.2 C 491.8 225.2 493.7 228.6 493.7 232.8 C 493.72 232.82 493.7 233.5 493.7 233.5 C 493.7 233.5 484.33 233.48 484.3 233.5 C 484.4 236.4 485.9 238.6 488.5 238.6 C 489.8 238.6 491.1 238 492 236.8 C 492 236.8 493.1 238.1 493.1 238.1 C 491.9 239.5 490.3 240.4 488.3 240.4 C 484.5 240.4 482.1 237.2 482.1 232.8 Z M 488 227 C 485.4 227 484.4 229.8 484.3 231.9 C 484.3 231.9 491.6 231.9 491.6 231.9 C 491.6 229.7 490.6 227 488 227 Z M 510.2 240 C 510.2 240 510.16 238.46 510.2 238.5 C 509.2 239.8 507.8 240.4 506.4 240.4 C 504 240.4 502 238.6 502 235.6 C 502 232.5 504 230.8 506.4 230.8 C 507.8 230.8 509.3 231.4 510.2 232.6 C 510.2 232.6 510.2 230.1 510.2 230.1 C 510.2 228.1 509.1 227 507.2 227 C 505.8 227 504.7 227.5 503.6 228.8 C 503.6 228.8 502.6 227.3 502.6 227.3 C 504 225.8 505.7 225.2 507.5 225.2 C 510.4 225.2 512.3 226.6 512.3 229.9 C 512.32 229.88 512.3 240 512.3 240 L 510.2 240 Z M 510.2 237 C 510.2 237 510.2 234.2 510.2 234.2 C 509.5 233 508.3 232.4 507 232.4 C 505.2 232.4 504.2 233.8 504.2 235.6 C 504.2 237.4 505.2 238.8 507 238.8 C 508.3 238.8 509.5 238.2 510.2 237 Z M 514.8 238.3 C 514.8 238.3 515.9 236.8 515.9 236.8 C 516.7 237.8 518.1 238.6 519.6 238.6 C 521.3 238.6 522.4 237.7 522.4 236.3 C 522.4 232.9 515.2 234.1 515.2 229.1 C 515.2 226.9 516.9 225.2 519.8 225.2 C 521.7 225.2 523.2 225.9 524.2 227 C 524.2 227 523.2 228.5 523.2 228.5 C 522.5 227.5 521.3 226.9 519.9 226.9 C 518.3 226.9 517.3 227.8 517.3 229 C 517.3 232.1 524.5 231 524.5 236.2 C 524.5 238.6 522.6 240.4 519.7 240.4 C 517.6 240.4 516 239.7 514.8 238.3 Z M 541.2 240 C 541.2 240 541.24 229.7 541.2 229.7 C 541.2 227.8 540.4 227.1 538.9 227.1 C 537.5 227.1 536.2 228.2 535.5 229.4 C 535.54 229.4 535.5 240 535.5 240 L 533.4 240 L 533.4 225.5 L 535.5 225.5 C 535.5 225.5 535.54 227.6 535.5 227.6 C 536.4 226.3 538 225.2 539.7 225.2 C 542.2 225.2 543.4 226.5 543.4 229.1 C 543.4 229.1 543.4 240 543.4 240 L 541.2 240 Z M 546.3 232.8 C 546.3 228.6 548.6 225.2 552.2 225.2 C 556 225.2 558 228.6 558 232.8 C 557.95 232.82 558 233.5 558 233.5 C 558 233.5 548.56 233.48 548.6 233.5 C 548.7 236.4 550.2 238.6 552.7 238.6 C 554 238.6 555.3 238 556.2 236.8 C 556.2 236.8 557.3 238.1 557.3 238.1 C 556.2 239.5 554.5 240.4 552.6 240.4 C 548.7 240.4 546.3 237.2 546.3 232.8 Z M 552.2 227 C 549.6 227 548.6 229.8 548.6 231.9 C 548.6 231.9 555.8 231.9 555.8 231.9 C 555.8 229.7 554.8 227 552.2 227 Z M 560.1 232.8 C 560.1 228.6 562.3 225.2 566 225.2 C 569.8 225.2 571.7 228.6 571.7 232.8 C 571.69 232.82 571.7 233.5 571.7 233.5 C 571.7 233.5 562.3 233.48 562.3 233.5 C 562.4 236.4 563.9 238.6 566.5 238.6 C 567.7 238.6 569 238 569.9 236.8 C 569.9 236.8 571.1 238.1 571.1 238.1 C 569.9 239.5 568.2 240.4 566.3 240.4 C 562.4 240.4 560.1 237.2 560.1 232.8 Z M 565.9 227 C 563.4 227 562.4 229.8 562.3 231.9 C 562.3 231.9 569.6 231.9 569.6 231.9 C 569.5 229.7 568.6 227 565.9 227 Z M 582.8 240 C 582.8 240 582.82 237.95 582.8 238 C 582 239.4 580.5 240.4 579 240.4 C 575.8 240.4 573.8 237.4 573.8 232.8 C 573.8 228.3 575.7 225.2 579 225.2 C 580.5 225.2 582 226 582.8 227.6 C 582.82 227.63 582.8 220 582.8 220 L 585 220 L 585 240 L 582.8 240 Z M 582.8 236.1 C 582.8 236.1 582.8 229.5 582.8 229.5 C 582.3 228.2 580.9 227.1 579.6 227.1 C 577.2 227.1 576.1 229.6 576.1 232.8 C 576.1 235.9 577.2 238.5 579.6 238.5 C 580.9 238.5 582.3 237.4 582.8 236.1 Z M 587.9 232.8 C 587.9 228.6 590.1 225.2 593.8 225.2 C 597.6 225.2 599.5 228.6 599.5 232.8 C 599.53 232.82 599.5 233.5 599.5 233.5 C 599.5 233.5 590.14 233.48 590.1 233.5 C 590.2 236.4 591.7 238.6 594.3 238.6 C 595.6 238.6 596.9 238 597.8 236.8 C 597.8 236.8 598.9 238.1 598.9 238.1 C 597.7 239.5 596.1 240.4 594.1 240.4 C 590.3 240.4 587.9 237.2 587.9 232.8 Z M 593.8 227 C 591.2 227 590.2 229.8 590.1 231.9 C 590.1 231.9 597.4 231.9 597.4 231.9 C 597.4 229.7 596.4 227 593.8 227 Z M 610.7 240 C 610.7 240 610.66 237.95 610.7 238 C 609.8 239.4 608.4 240.4 606.9 240.4 C 603.6 240.4 601.7 237.4 601.7 232.8 C 601.7 228.3 603.6 225.2 606.9 225.2 C 608.3 225.2 609.8 226 610.7 227.6 C 610.66 227.63 610.7 220 610.7 220 L 612.8 220 L 612.8 240 L 610.7 240 Z M 610.7 236.1 C 610.7 236.1 610.7 229.5 610.7 229.5 C 610.1 228.2 608.8 227.1 607.4 227.1 C 605 227.1 603.9 229.6 603.9 232.8 C 603.9 235.9 605 238.5 607.4 238.5 C 608.8 238.5 610.1 237.4 610.7 236.1 Z M 616.3 238.7 C 616.3 237.9 617.1 237.1 617.9 237.1 C 618.8 237.1 619.5 237.9 619.5 238.7 C 619.5 239.6 618.8 240.3 617.9 240.3 C 617.1 240.3 616.3 239.6 616.3 238.7 Z " stroke="none" fill="#efd8d3"/>  </g>  <g id="Polygon180776">    <path d="M 38.6 168 C 38.6 168 38.61 165.95 38.6 166 C 37.8 167.4 36.3 168.4 34.8 168.4 C 31.6 168.4 29.6 165.4 29.6 160.8 C 29.6 156.3 31.5 153.2 34.8 153.2 C 36.3 153.2 37.7 154 38.6 155.6 C 38.61 155.63 38.6 148 38.6 148 L 40.8 148 L 40.8 168 L 38.6 168 Z M 38.6 164.1 C 38.6 164.1 38.6 157.5 38.6 157.5 C 38.1 156.2 36.7 155.1 35.3 155.1 C 33 155.1 31.9 157.6 31.9 160.8 C 31.9 163.9 33 166.5 35.3 166.5 C 36.7 166.5 38.1 165.4 38.6 164.1 Z M 43.7 160.8 C 43.7 156.6 45.9 153.2 49.6 153.2 C 53.4 153.2 55.3 156.6 55.3 160.8 C 55.32 160.82 55.3 161.5 55.3 161.5 C 55.3 161.5 45.93 161.48 45.9 161.5 C 46 164.4 47.5 166.6 50.1 166.6 C 51.4 166.6 52.6 166 53.5 164.8 C 53.5 164.8 54.7 166.1 54.7 166.1 C 53.5 167.5 51.9 168.4 49.9 168.4 C 46 168.4 43.7 165.2 43.7 160.8 Z M 49.6 155 C 47 155 46 157.8 45.9 159.9 C 45.9 159.9 53.2 159.9 53.2 159.9 C 53.2 157.7 52.2 155 49.6 155 Z M 57 166.3 C 57 166.3 58.1 164.8 58.1 164.8 C 58.9 165.8 60.3 166.6 61.9 166.6 C 63.5 166.6 64.6 165.7 64.6 164.3 C 64.6 160.9 57.4 162.1 57.4 157.1 C 57.4 154.9 59.2 153.2 62 153.2 C 64 153.2 65.4 153.9 66.4 155 C 66.4 155 65.4 156.5 65.4 156.5 C 64.7 155.5 63.5 154.9 62.1 154.9 C 60.5 154.9 59.5 155.8 59.5 157 C 59.5 160.1 66.7 159 66.7 164.2 C 66.7 166.6 64.9 168.4 61.9 168.4 C 59.8 168.4 58.2 167.7 57 166.3 Z M 69.1 150 C 69.1 149.2 69.7 148.5 70.5 148.5 C 71.3 148.5 72 149.2 72 150 C 72 150.8 71.3 151.4 70.5 151.4 C 69.7 151.4 69.1 150.8 69.1 150 Z M 69.5 168 L 69.5 153.5 L 71.6 153.5 L 71.6 168 L 69.5 168 Z M 75.3 168 L 75.3 153.5 L 77.4 153.5 C 77.4 153.5 77.4 155.84 77.4 155.8 C 78.3 154.3 79.7 153.2 81.5 153.2 C 81.5 153.2 81.5 155.5 81.5 155.5 C 81.3 155.4 81 155.4 80.8 155.4 C 79.5 155.4 78 156.5 77.4 157.7 C 77.4 157.73 77.4 168 77.4 168 L 75.3 168 Z M 83 160.8 C 83 156.6 85.2 153.2 88.9 153.2 C 92.7 153.2 94.6 156.6 94.6 160.8 C 94.58 160.82 94.6 161.5 94.6 161.5 C 94.6 161.5 85.19 161.48 85.2 161.5 C 85.3 164.4 86.8 166.6 89.4 166.6 C 90.6 166.6 91.9 166 92.8 164.8 C 92.8 164.8 94 166.1 94 166.1 C 92.8 167.5 91.1 168.4 89.2 168.4 C 85.3 168.4 83 165.2 83 160.8 Z M 88.8 155 C 86.3 155 85.3 157.8 85.2 159.9 C 85.2 159.9 92.5 159.9 92.5 159.9 C 92.4 157.7 91.5 155 88.8 155 Z M 105.7 168 C 105.7 168 105.71 165.95 105.7 166 C 104.9 167.4 103.4 168.4 101.9 168.4 C 98.7 168.4 96.7 165.4 96.7 160.8 C 96.7 156.3 98.6 153.2 101.9 153.2 C 103.4 153.2 104.8 154 105.7 155.6 C 105.71 155.63 105.7 148 105.7 148 L 107.9 148 L 107.9 168 L 105.7 168 Z M 105.7 164.1 C 105.7 164.1 105.7 157.5 105.7 157.5 C 105.2 156.2 103.8 155.1 102.4 155.1 C 100.1 155.1 99 157.6 99 160.8 C 99 163.9 100.1 166.5 102.4 166.5 C 103.8 166.5 105.2 165.4 105.7 164.1 Z M 112.3 171.8 C 112.3 171.8 111.3 170.9 111.3 170.9 C 112.2 170.3 113.1 169.1 113.2 168.1 C 113.1 168.1 112.9 168.2 112.8 168.2 C 112 168.2 111.4 167.5 111.4 166.7 C 111.4 165.8 112 165.1 112.9 165.1 C 113.9 165.1 114.7 165.9 114.7 167.4 C 114.7 169.2 113.7 170.8 112.3 171.8 Z M 123.1 166.3 C 123.1 166.3 124.1 164.8 124.1 164.8 C 125 165.8 126.4 166.6 127.9 166.6 C 129.6 166.6 130.7 165.7 130.7 164.3 C 130.7 160.9 123.5 162.1 123.5 157.1 C 123.5 154.9 125.2 153.2 128.1 153.2 C 130 153.2 131.5 153.9 132.5 155 C 132.5 155 131.5 156.5 131.5 156.5 C 130.8 155.5 129.5 154.9 128.1 154.9 C 126.5 154.9 125.5 155.8 125.5 157 C 125.5 160.1 132.8 159 132.8 164.2 C 132.8 166.6 130.9 168.4 127.9 168.4 C 125.9 168.4 124.3 167.7 123.1 166.3 Z M 143 168 C 143 168 142.97 166.46 143 166.5 C 142 167.8 140.6 168.4 139.2 168.4 C 136.8 168.4 134.8 166.6 134.8 163.6 C 134.8 160.5 136.8 158.8 139.2 158.8 C 140.6 158.8 142.1 159.4 143 160.6 C 143 160.6 143 158.1 143 158.1 C 143 156.1 141.9 155 140 155 C 138.7 155 137.5 155.5 136.4 156.8 C 136.4 156.8 135.4 155.3 135.4 155.3 C 136.8 153.8 138.5 153.2 140.3 153.2 C 143.2 153.2 145.1 154.6 145.1 157.9 C 145.13 157.88 145.1 168 145.1 168 L 143 168 Z M 143 165 C 143 165 143 162.2 143 162.2 C 142.3 161 141.1 160.4 139.9 160.4 C 138.1 160.4 137 161.8 137 163.6 C 137 165.4 138.1 166.8 139.9 166.8 C 141.1 166.8 142.3 166.2 143 165 Z M 148.8 168 L 148.8 148 L 150.9 148 L 150.9 168 L 148.8 168 Z M 155 165.1 C 154.97 165.11 155 155.4 155 155.4 L 153.1 155.4 L 153.1 153.5 L 155 153.5 L 155 149.6 L 157.1 149.6 L 157.1 153.5 L 159.6 153.5 L 159.6 155.4 L 157.1 155.4 C 157.1 155.4 157.13 164.72 157.1 164.7 C 157.1 165.8 157.5 166.5 158.3 166.5 C 158.8 166.5 159.3 166.2 159.6 165.9 C 159.6 165.9 160.2 167.5 160.2 167.5 C 159.7 168 159 168.4 157.9 168.4 C 155.9 168.4 155 167.3 155 165.1 Z M 168.7 165.1 C 168.71 165.11 168.7 155.4 168.7 155.4 L 166.8 155.4 L 166.8 153.5 L 168.7 153.5 L 168.7 149.6 L 170.9 149.6 L 170.9 153.5 L 173.3 153.5 L 173.3 155.4 L 170.9 155.4 C 170.9 155.4 170.87 164.72 170.9 164.7 C 170.9 165.8 171.2 166.5 172 166.5 C 172.6 166.5 173 166.2 173.3 165.9 C 173.3 165.9 174 167.5 174 167.5 C 173.5 168 172.7 168.4 171.6 168.4 C 169.6 168.4 168.7 167.3 168.7 165.1 Z M 175.2 160.8 C 175.2 156.7 177.2 153.2 181 153.2 C 184.9 153.2 187 156.7 187 160.8 C 187 164.8 184.9 168.4 181 168.4 C 177.2 168.4 175.2 164.8 175.2 160.8 Z M 184.7 160.8 C 184.7 157.9 183.6 155.1 181 155.1 C 178.6 155.1 177.4 157.9 177.4 160.8 C 177.4 163.7 178.6 166.5 181 166.5 C 183.6 166.5 184.7 163.7 184.7 160.8 Z M 196.5 165.1 C 196.46 165.11 196.5 155.4 196.5 155.4 L 194.5 155.4 L 194.5 153.5 L 196.5 153.5 L 196.5 149.6 L 198.6 149.6 L 198.6 153.5 L 201.1 153.5 L 201.1 155.4 L 198.6 155.4 C 198.6 155.4 198.62 164.72 198.6 164.7 C 198.6 165.8 199 166.5 199.8 166.5 C 200.3 166.5 200.8 166.2 201.1 165.9 C 201.1 165.9 201.7 167.5 201.7 167.5 C 201.2 168 200.5 168.4 199.4 168.4 C 197.4 168.4 196.5 167.3 196.5 165.1 Z M 211.1 168 C 211.1 168 211.07 166.46 211.1 166.5 C 210.1 167.8 208.7 168.4 207.3 168.4 C 204.9 168.4 202.9 166.6 202.9 163.6 C 202.9 160.5 204.9 158.8 207.3 158.8 C 208.7 158.8 210.2 159.4 211.1 160.6 C 211.1 160.6 211.1 158.1 211.1 158.1 C 211.1 156.1 210 155 208.1 155 C 206.8 155 205.6 155.5 204.5 156.8 C 204.5 156.8 203.5 155.3 203.5 155.3 C 204.9 153.8 206.6 153.2 208.4 153.2 C 211.3 153.2 213.2 154.6 213.2 157.9 C 213.23 157.88 213.2 168 213.2 168 L 211.1 168 Z M 211.1 165 C 211.1 165 211.1 162.2 211.1 162.2 C 210.4 161 209.2 160.4 208 160.4 C 206.2 160.4 205.1 161.8 205.1 163.6 C 205.1 165.4 206.2 166.8 208 166.8 C 209.2 166.8 210.4 166.2 211.1 165 Z M 215.7 166.3 C 215.7 166.3 216.8 164.8 216.8 164.8 C 217.6 165.8 219 166.6 220.6 166.6 C 222.2 166.6 223.3 165.7 223.3 164.3 C 223.3 160.9 216.1 162.1 216.1 157.1 C 216.1 154.9 217.9 153.2 220.7 153.2 C 222.7 153.2 224.1 153.9 225.1 155 C 225.1 155 224.1 156.5 224.1 156.5 C 223.4 155.5 222.2 154.9 220.8 154.9 C 219.2 154.9 218.2 155.8 218.2 157 C 218.2 160.1 225.4 159 225.4 164.2 C 225.4 166.6 223.6 168.4 220.6 168.4 C 218.5 168.4 216.9 167.7 215.7 166.3 Z M 228.6 165.1 C 228.59 165.11 228.6 155.4 228.6 155.4 L 226.7 155.4 L 226.7 153.5 L 228.6 153.5 L 228.6 149.6 L 230.8 149.6 L 230.8 153.5 L 233.2 153.5 L 233.2 155.4 L 230.8 155.4 C 230.8 155.4 230.75 164.72 230.8 164.7 C 230.8 165.8 231.1 166.5 231.9 166.5 C 232.5 166.5 232.9 166.2 233.2 165.9 C 233.2 165.9 233.8 167.5 233.8 167.5 C 233.3 168 232.6 168.4 231.5 168.4 C 229.5 168.4 228.6 167.3 228.6 165.1 Z M 235 160.8 C 235 156.6 237.3 153.2 240.9 153.2 C 244.7 153.2 246.7 156.6 246.7 160.8 C 246.65 160.82 246.7 161.5 246.7 161.5 C 246.7 161.5 237.26 161.48 237.3 161.5 C 237.4 164.4 238.9 166.6 241.4 166.6 C 242.7 166.6 244 166 244.9 164.8 C 244.9 164.8 246 166.1 246 166.1 C 244.9 167.5 243.2 168.4 241.3 168.4 C 237.4 168.4 235 165.2 235 160.8 Z M 240.9 155 C 238.3 155 237.3 157.8 237.3 159.9 C 237.3 159.9 244.5 159.9 244.5 159.9 C 244.5 157.7 243.5 155 240.9 155 Z M 249.2 166.7 C 249.2 165.9 250 165.1 250.8 165.1 C 251.7 165.1 252.4 165.9 252.4 166.7 C 252.4 167.6 251.7 168.3 250.8 168.3 C 250 168.3 249.2 167.6 249.2 166.7 Z " stroke="none" fill="#efd8d3"/>  </g>  <g id="Polygon180775">    <path d="M 1.6 132 C 1.6 132 1.59 130.07 1.6 130.1 C 8.1 122.5 10.4 120.1 10.4 117.2 C 10.4 115 8.9 113.8 7.2 113.8 C 5.3 113.8 3.9 114.8 2.9 116.4 C 2.9 116.4 1.4 114.9 1.4 114.9 C 2.7 112.9 4.7 111.7 7.2 111.7 C 10.3 111.7 12.8 113.7 12.8 117.2 C 12.8 120.5 10.3 123.5 5 129.9 C 4.98 129.89 12.9 129.9 12.9 129.9 L 12.9 132 L 1.6 132 Z M 16.2 130.7 C 16.2 129.9 16.9 129.1 17.8 129.1 C 18.7 129.1 19.4 129.9 19.4 130.7 C 19.4 131.6 18.7 132.3 17.8 132.3 C 16.9 132.3 16.2 131.6 16.2 130.7 Z M 42.3 132 L 39.1 116.2 L 35.8 132 L 33.3 132 L 28.8 112 L 31.4 112 L 34.6 128.3 L 38.1 112 L 40.1 112 L 43.5 128.3 L 46.8 112 L 49.3 112 L 44.9 132 L 42.3 132 Z M 59.3 132 C 59.3 132 59.34 121.67 59.3 121.7 C 59.3 119.8 58.4 119.1 57 119.1 C 55.6 119.1 54.3 120.2 53.6 121.4 C 53.61 121.4 53.6 132 53.6 132 L 51.5 132 L 51.5 112 L 53.6 112 C 53.6 112 53.61 119.6 53.6 119.6 C 54.4 118.3 56.1 117.2 57.8 117.2 C 60.3 117.2 61.5 118.4 61.5 121 C 61.47 121.04 61.5 132 61.5 132 L 59.3 132 Z M 64.4 124.8 C 64.4 120.6 66.6 117.2 70.3 117.2 C 74.1 117.2 76 120.6 76 124.8 C 76.02 124.82 76 125.5 76 125.5 C 76 125.5 66.63 125.48 66.6 125.5 C 66.7 128.4 68.2 130.6 70.8 130.6 C 72.1 130.6 73.3 130 74.2 128.8 C 74.2 128.8 75.4 130.1 75.4 130.1 C 74.2 131.5 72.6 132.4 70.6 132.4 C 66.7 132.4 64.4 129.2 64.4 124.8 Z M 70.3 119 C 67.7 119 66.7 121.8 66.6 123.9 C 66.6 123.9 73.9 123.9 73.9 123.9 C 73.9 121.7 72.9 119 70.3 119 Z M 86.7 132 C 86.7 132 86.7 121.7 86.7 121.7 C 86.7 119.8 85.8 119.1 84.4 119.1 C 83 119.1 81.7 120.2 81 121.4 C 81 121.4 81 132 81 132 L 78.9 132 L 78.9 117.5 L 81 117.5 C 81 117.5 81 119.6 81 119.6 C 81.8 118.3 83.5 117.2 85.2 117.2 C 87.7 117.2 88.9 118.5 88.9 121.1 C 88.86 121.1 88.9 132 88.9 132 L 86.7 132 Z M 99.1 129.1 C 99.09 129.11 99.1 119.4 99.1 119.4 L 97.2 119.4 L 97.2 117.5 L 99.1 117.5 L 99.1 113.6 L 101.2 113.6 L 101.2 117.5 L 103.7 117.5 L 103.7 119.4 L 101.2 119.4 C 101.2 119.4 101.25 128.72 101.2 128.7 C 101.2 129.8 101.6 130.5 102.4 130.5 C 103 130.5 103.4 130.2 103.7 129.9 C 103.7 129.9 104.3 131.5 104.3 131.5 C 103.8 132 103.1 132.4 102 132.4 C 100 132.4 99.1 131.3 99.1 129.1 Z M 114.1 132 C 114.1 132 114.12 121.67 114.1 121.7 C 114.1 119.8 113.2 119.1 111.8 119.1 C 110.4 119.1 109 120.2 108.4 121.4 C 108.39 121.4 108.4 132 108.4 132 L 106.3 132 L 106.3 112 L 108.4 112 C 108.4 112 108.39 119.6 108.4 119.6 C 109.2 118.3 110.9 117.2 112.6 117.2 C 115.1 117.2 116.2 118.4 116.2 121 C 116.25 121.04 116.2 132 116.2 132 L 114.1 132 Z M 119.2 124.8 C 119.2 120.7 121.2 117.2 125.1 117.2 C 129 117.2 131 120.7 131 124.8 C 131 128.8 129 132.4 125.1 132.4 C 121.2 132.4 119.2 128.8 119.2 124.8 Z M 128.7 124.8 C 128.7 121.9 127.6 119.1 125.1 119.1 C 122.6 119.1 121.4 121.9 121.4 124.8 C 121.4 127.7 122.6 130.5 125.1 130.5 C 127.6 130.5 128.7 127.7 128.7 124.8 Z M 133.9 132 L 133.9 117.5 L 136 117.5 C 136 117.5 136.04 119.84 136 119.8 C 137 118.3 138.4 117.2 140.2 117.2 C 140.2 117.2 140.2 119.5 140.2 119.5 C 139.9 119.4 139.7 119.4 139.4 119.4 C 138.1 119.4 136.6 120.5 136 121.7 C 136.04 121.73 136 132 136 132 L 133.9 132 Z M 141.6 124.8 C 141.6 120.7 143.7 117.2 147.5 117.2 C 151.4 117.2 153.4 120.7 153.4 124.8 C 153.4 128.8 151.4 132.4 147.5 132.4 C 143.7 132.4 141.6 128.8 141.6 124.8 Z M 151.2 124.8 C 151.2 121.9 150.1 119.1 147.5 119.1 C 145 119.1 143.9 121.9 143.9 124.8 C 143.9 127.7 145 130.5 147.5 130.5 C 150.1 130.5 151.2 127.7 151.2 124.8 Z M 164.2 132 C 164.2 132 164.18 130.01 164.2 130 C 163.3 131.3 161.8 132.4 160 132.4 C 157.5 132.4 156.4 131.2 156.4 128.5 C 156.35 128.51 156.4 117.5 156.4 117.5 L 158.5 117.5 C 158.5 117.5 158.48 127.88 158.5 127.9 C 158.5 129.8 159.4 130.5 160.8 130.5 C 162.2 130.5 163.6 129.4 164.2 128.2 C 164.18 128.21 164.2 117.5 164.2 117.5 L 166.3 117.5 L 166.3 132 L 164.2 132 Z M 169.9 136.1 C 169.9 136.1 170.9 134.4 170.9 134.4 C 171.8 135.5 173.1 136.1 174.7 136.1 C 176.6 136.1 178.3 134.9 178.3 132.1 C 178.3 132.1 178.3 129.7 178.3 129.7 C 177.4 131.2 176 132.2 174.5 132.2 C 171.2 132.2 169.3 129.3 169.3 124.7 C 169.3 120.2 171.2 117.2 174.5 117.2 C 175.9 117.2 177.4 118 178.3 119.6 C 178.28 119.63 178.3 117.5 178.3 117.5 L 180.4 117.5 C 180.4 117.5 180.44 131.99 180.4 132 C 180.4 136.5 177.7 137.9 174.7 137.9 C 172.8 137.9 171.3 137.5 169.9 136.1 Z M 178.3 127.9 C 178.3 127.9 178.3 121.5 178.3 121.5 C 177.7 120.2 176.4 119.1 175 119.1 C 172.6 119.1 171.5 121.6 171.5 124.7 C 171.5 127.8 172.6 130.3 175 130.3 C 176.4 130.3 177.7 129.1 178.3 127.9 Z M 191.9 132 C 191.9 132 191.93 121.67 191.9 121.7 C 191.9 119.8 191 119.1 189.6 119.1 C 188.2 119.1 186.9 120.2 186.2 121.4 C 186.2 121.4 186.2 132 186.2 132 L 184.1 132 L 184.1 112 L 186.2 112 C 186.2 112 186.2 119.6 186.2 119.6 C 187 118.3 188.7 117.2 190.4 117.2 C 192.9 117.2 194.1 118.4 194.1 121 C 194.06 121.04 194.1 132 194.1 132 L 191.9 132 Z M 197.7 132 L 197.7 112 L 199.9 112 L 199.9 132 L 197.7 132 Z M 203.1 135.8 C 203.4 135.9 203.8 136 204.1 136 C 204.9 136 205.4 135.7 205.8 134.5 C 205.76 134.54 206.5 132.3 206.5 132.3 L 201.7 117.5 L 204.1 117.5 L 207.7 129.4 L 211.3 117.5 L 213.6 117.5 C 213.6 117.5 207.8 135.08 207.8 135.1 C 207.1 137.2 205.9 137.9 204.2 137.9 C 203.8 137.9 203.1 137.8 202.8 137.7 C 202.8 137.7 203.1 135.8 203.1 135.8 Z M 236.2 132 C 236.2 132 236.24 121.52 236.2 121.5 C 236.2 120 235.6 119.1 234.2 119.1 C 232.9 119.1 231.7 120.2 231.1 121.4 C 231.08 121.4 231.1 132 231.1 132 L 228.9 132 C 228.9 132 228.92 121.52 228.9 121.5 C 228.9 120 228.3 119.1 226.9 119.1 C 225.6 119.1 224.4 120.2 223.7 121.4 C 223.73 121.4 223.7 132 223.7 132 L 221.6 132 L 221.6 117.5 L 223.7 117.5 C 223.7 117.5 223.73 119.6 223.7 119.6 C 224.3 118.5 226 117.2 227.7 117.2 C 229.6 117.2 230.7 118.2 231 119.8 C 231.7 118.4 233.3 117.2 235 117.2 C 237.2 117.2 238.4 118.3 238.4 121 C 238.4 120.95 238.4 132 238.4 132 L 236.2 132 Z M 241.6 114 C 241.6 113.2 242.3 112.5 243.1 112.5 C 243.9 112.5 244.6 113.2 244.6 114 C 244.6 114.8 243.9 115.4 243.1 115.4 C 242.3 115.4 241.6 114.8 241.6 114 Z M 242.1 132 L 242.1 117.5 L 244.2 117.5 L 244.2 132 L 242.1 132 Z M 255.3 132 L 252 126.2 L 248.6 132 L 246.2 132 L 250.6 124.6 L 246.5 117.5 L 248.9 117.5 L 252 123.1 L 255.1 117.5 L 257.5 117.5 L 253.3 124.6 L 257.7 132 L 255.3 132 Z M 258.3 124.8 C 258.3 120.6 260.5 117.2 264.1 117.2 C 268 117.2 269.9 120.6 269.9 124.8 C 269.87 124.82 269.9 125.5 269.9 125.5 C 269.9 125.5 260.48 125.48 260.5 125.5 C 260.6 128.4 262.1 130.6 264.7 130.6 C 265.9 130.6 267.2 130 268.1 128.8 C 268.1 128.8 269.2 130.1 269.2 130.1 C 268.1 131.5 266.4 132.4 264.5 132.4 C 260.6 132.4 258.3 129.2 258.3 124.8 Z M 264.1 119 C 261.6 119 260.5 121.8 260.5 123.9 C 260.5 123.9 267.7 123.9 267.7 123.9 C 267.7 121.7 266.8 119 264.1 119 Z M 281 132 C 281 132 281 129.95 281 130 C 280.2 131.4 278.7 132.4 277.2 132.4 C 274 132.4 272 129.4 272 124.8 C 272 120.3 273.9 117.2 277.2 117.2 C 278.7 117.2 280.1 118 281 119.6 C 281 119.63 281 112 281 112 L 283.2 112 L 283.2 132 L 281 132 Z M 281 128.1 C 281 128.1 281 121.5 281 121.5 C 280.5 120.2 279.1 119.1 277.7 119.1 C 275.4 119.1 274.3 121.6 274.3 124.8 C 274.3 127.9 275.4 130.5 277.7 130.5 C 279.1 130.5 280.5 129.4 281 128.1 Z M 287.6 135.8 C 287.6 135.8 286.6 134.9 286.6 134.9 C 287.5 134.3 288.4 133.1 288.5 132.1 C 288.4 132.1 288.2 132.2 288.1 132.2 C 287.3 132.2 286.7 131.5 286.7 130.7 C 286.7 129.8 287.3 129.1 288.2 129.1 C 289.2 129.1 290 129.9 290 131.4 C 290 133.2 289 134.8 287.6 135.8 Z M 307 132 C 307 132 306.95 130.46 307 130.5 C 306 131.8 304.6 132.4 303.1 132.4 C 300.8 132.4 298.8 130.6 298.8 127.6 C 298.8 124.5 300.8 122.8 303.1 122.8 C 304.6 122.8 306.1 123.4 307 124.6 C 307 124.6 307 122.1 307 122.1 C 307 120.1 305.9 119 304 119 C 302.6 119 301.5 119.5 300.4 120.8 C 300.4 120.8 299.4 119.3 299.4 119.3 C 300.8 117.8 302.5 117.2 304.3 117.2 C 307.2 117.2 309.1 118.6 309.1 121.9 C 309.11 121.88 309.1 132 309.1 132 L 307 132 Z M 307 129 C 307 129 307 126.2 307 126.2 C 306.3 125 305.1 124.4 303.8 124.4 C 302 124.4 301 125.8 301 127.6 C 301 129.4 302 130.8 303.8 130.8 C 305.1 130.8 306.3 130.2 307 129 Z M 321 132 C 321 132 321.02 129.95 321 130 C 320.2 131.4 318.7 132.4 317.2 132.4 C 314 132.4 312 129.4 312 124.8 C 312 120.3 313.9 117.2 317.2 117.2 C 318.7 117.2 320.2 118 321 119.6 C 321.02 119.63 321 112 321 112 L 323.2 112 L 323.2 132 L 321 132 Z M 321 128.1 C 321 128.1 321 121.5 321 121.5 C 320.5 120.2 319.1 119.1 317.8 119.1 C 315.4 119.1 314.3 121.6 314.3 124.8 C 314.3 127.9 315.4 130.5 317.8 130.5 C 319.1 130.5 320.5 129.4 321 128.1 Z M 335.1 132 C 335.1 132 335.12 129.95 335.1 130 C 334.3 131.4 332.8 132.4 331.3 132.4 C 328.1 132.4 326.1 129.4 326.1 124.8 C 326.1 120.3 328 117.2 331.3 117.2 C 332.8 117.2 334.3 118 335.1 119.6 C 335.12 119.63 335.1 112 335.1 112 L 337.3 112 L 337.3 132 L 335.1 132 Z M 335.1 128.1 C 335.1 128.1 335.1 121.5 335.1 121.5 C 334.6 120.2 333.2 119.1 331.9 119.1 C 329.5 119.1 328.4 121.6 328.4 124.8 C 328.4 127.9 329.5 130.5 331.9 130.5 C 333.2 130.5 334.6 129.4 335.1 128.1 Z M 346.7 114 C 346.7 113.2 347.4 112.5 348.1 112.5 C 349 112.5 349.6 113.2 349.6 114 C 349.6 114.8 349 115.4 348.1 115.4 C 347.4 115.4 346.7 114.8 346.7 114 Z M 347.1 132 L 347.1 117.5 L 349.2 117.5 L 349.2 132 L 347.1 132 Z M 360.7 132 C 360.7 132 360.71 121.7 360.7 121.7 C 360.7 119.8 359.8 119.1 358.4 119.1 C 357 119.1 355.7 120.2 355 121.4 C 355.01 121.4 355 132 355 132 L 352.9 132 L 352.9 117.5 L 355 117.5 C 355 117.5 355.01 119.6 355 119.6 C 355.8 118.3 357.5 117.2 359.2 117.2 C 361.7 117.2 362.9 118.5 362.9 121.1 C 362.87 121.1 362.9 132 362.9 132 L 360.7 132 Z M 372 124.8 C 372 120.5 374.2 117.2 378 117.2 C 380 117.2 381.2 118 382.1 119.1 C 382.1 119.1 380.9 120.6 380.9 120.6 C 380.1 119.5 379.2 119.1 378.1 119.1 C 375.6 119.1 374.2 121.7 374.2 124.8 C 374.2 127.9 375.6 130.5 378.1 130.5 C 379.2 130.5 380.1 130 380.9 129 C 380.9 129 382.1 130.5 382.1 130.5 C 381.2 131.6 380 132.4 378 132.4 C 374.2 132.4 372 129.1 372 124.8 Z M 392 132 C 392 132 392 130.46 392 130.5 C 391.1 131.8 389.7 132.4 388.2 132.4 C 385.8 132.4 383.8 130.6 383.8 127.6 C 383.8 124.5 385.8 122.8 388.2 122.8 C 389.7 122.8 391.1 123.4 392 124.6 C 392 124.6 392 122.1 392 122.1 C 392 120.1 390.9 119 389 119 C 387.7 119 386.5 119.5 385.4 120.8 C 385.4 120.8 384.4 119.3 384.4 119.3 C 385.8 117.8 387.5 117.2 389.4 117.2 C 392.2 117.2 394.2 118.6 394.2 121.9 C 394.16 121.88 394.2 132 394.2 132 L 392 132 Z M 392 129 C 392 129 392 126.2 392 126.2 C 391.3 125 390.1 124.4 388.9 124.4 C 387.1 124.4 386 125.8 386 127.6 C 386 129.4 387.1 130.8 388.9 130.8 C 390.1 130.8 391.3 130.2 392 129 Z M 399.9 129.9 C 399.92 129.92 399.9 137.5 399.9 137.5 L 397.8 137.5 L 397.8 117.5 L 399.9 117.5 C 399.9 117.5 399.92 119.6 399.9 119.6 C 400.8 118.1 402.2 117.2 403.7 117.2 C 407 117.2 408.9 120.2 408.9 124.8 C 408.9 129.3 407 132.4 403.7 132.4 C 402.3 132.4 400.8 131.5 399.9 129.9 Z M 406.7 124.8 C 406.7 121.6 405.6 119.1 403.2 119.1 C 401.8 119.1 400.5 120.2 399.9 121.4 C 399.9 121.4 399.9 128.1 399.9 128.1 C 400.5 129.3 401.8 130.5 403.2 130.5 C 405.6 130.5 406.7 127.9 406.7 124.8 Z M 410.7 130.3 C 410.7 130.3 411.7 128.8 411.7 128.8 C 412.6 129.8 414 130.6 415.5 130.6 C 417.2 130.6 418.3 129.7 418.3 128.3 C 418.3 124.9 411.1 126.1 411.1 121.1 C 411.1 118.9 412.8 117.2 415.7 117.2 C 417.6 117.2 419.1 117.9 420.1 119 C 420.1 119 419.1 120.5 419.1 120.5 C 418.4 119.5 417.1 118.9 415.7 118.9 C 414.1 118.9 413.1 119.8 413.1 121 C 413.1 124.1 420.4 123 420.4 128.2 C 420.4 130.6 418.5 132.4 415.5 132.4 C 413.5 132.4 411.9 131.7 410.7 130.3 Z M 430.6 132 C 430.6 132 430.58 130.46 430.6 130.5 C 429.6 131.8 428.2 132.4 426.8 132.4 C 424.4 132.4 422.4 130.6 422.4 127.6 C 422.4 124.5 424.4 122.8 426.8 122.8 C 428.2 122.8 429.7 123.4 430.6 124.6 C 430.6 124.6 430.6 122.1 430.6 122.1 C 430.6 120.1 429.5 119 427.6 119 C 426.3 119 425.1 119.5 424 120.8 C 424 120.8 423 119.3 423 119.3 C 424.4 117.8 426.1 117.2 427.9 117.2 C 430.8 117.2 432.7 118.6 432.7 121.9 C 432.74 121.88 432.7 132 432.7 132 L 430.6 132 Z M 430.6 129 C 430.6 129 430.6 126.2 430.6 126.2 C 429.9 125 428.7 124.4 427.5 124.4 C 425.7 124.4 424.6 125.8 424.6 127.6 C 424.6 129.4 425.7 130.8 427.5 130.8 C 428.7 130.8 429.9 130.2 430.6 129 Z M 435.9 114 C 435.9 113.2 436.6 112.5 437.4 112.5 C 438.2 112.5 438.9 113.2 438.9 114 C 438.9 114.8 438.2 115.4 437.4 115.4 C 436.6 115.4 435.9 114.8 435.9 114 Z M 436.4 132 L 436.4 117.5 L 438.5 117.5 L 438.5 132 L 436.4 132 Z M 441.4 124.8 C 441.4 120.5 443.7 117.2 447.4 117.2 C 449.4 117.2 450.7 118 451.6 119.1 C 451.6 119.1 450.4 120.6 450.4 120.6 C 449.6 119.5 448.7 119.1 447.6 119.1 C 445 119.1 443.7 121.7 443.7 124.8 C 443.7 127.9 445 130.5 447.6 130.5 C 448.7 130.5 449.6 130 450.4 129 C 450.4 129 451.6 130.5 451.6 130.5 C 450.7 131.6 449.4 132.4 447.4 132.4 C 443.7 132.4 441.4 129.1 441.4 124.8 Z M 453.6 114 C 453.6 113.2 454.3 112.5 455.1 112.5 C 455.9 112.5 456.6 113.2 456.6 114 C 456.6 114.8 455.9 115.4 455.1 115.4 C 454.3 115.4 453.6 114.8 453.6 114 Z M 454 132 L 454 117.5 L 456.2 117.5 L 456.2 132 L 454 132 Z M 467.7 132 C 467.7 132 467.66 121.7 467.7 121.7 C 467.7 119.8 466.8 119.1 465.3 119.1 C 463.9 119.1 462.6 120.2 462 121.4 C 461.96 121.4 462 132 462 132 L 459.8 132 L 459.8 117.5 L 462 117.5 C 462 117.5 461.96 119.6 462 119.6 C 462.8 118.3 464.4 117.2 466.2 117.2 C 468.6 117.2 469.8 118.5 469.8 121.1 C 469.82 121.1 469.8 132 469.8 132 L 467.7 132 Z M 472.8 124.8 C 472.8 120.7 474.8 117.2 478.6 117.2 C 482.5 117.2 484.5 120.7 484.5 124.8 C 484.5 128.8 482.5 132.4 478.6 132.4 C 474.8 132.4 472.8 128.8 472.8 124.8 Z M 482.3 124.8 C 482.3 121.9 481.2 119.1 478.6 119.1 C 476.1 119.1 475 121.9 475 124.8 C 475 127.7 476.1 130.5 478.6 130.5 C 481.2 130.5 482.3 127.7 482.3 124.8 Z M 494.9 132 C 494.9 132 494.93 130.46 494.9 130.5 C 494 131.8 492.6 132.4 491.1 132.4 C 488.8 132.4 486.7 130.6 486.7 127.6 C 486.7 124.5 488.7 122.8 491.1 122.8 C 492.6 122.8 494 123.4 494.9 124.6 C 494.9 124.6 494.9 122.1 494.9 122.1 C 494.9 120.1 493.8 119 492 119 C 490.6 119 489.4 119.5 488.3 120.8 C 488.3 120.8 487.4 119.3 487.4 119.3 C 488.7 117.8 490.5 117.2 492.3 117.2 C 495.2 117.2 497.1 118.6 497.1 121.9 C 497.09 121.88 497.1 132 497.1 132 L 494.9 132 Z M 494.9 129 C 494.9 129 494.9 126.2 494.9 126.2 C 494.3 125 493.1 124.4 491.8 124.4 C 490 124.4 488.9 125.8 488.9 127.6 C 488.9 129.4 490 130.8 491.8 130.8 C 493.1 130.8 494.3 130.2 494.9 129 Z M 501.1 129.1 C 501.14 129.11 501.1 119.4 501.1 119.4 L 499.2 119.4 L 499.2 117.5 L 501.1 117.5 L 501.1 113.6 L 503.3 113.6 L 503.3 117.5 L 505.8 117.5 L 505.8 119.4 L 503.3 119.4 C 503.3 119.4 503.3 128.72 503.3 128.7 C 503.3 129.8 503.6 130.5 504.5 130.5 C 505 130.5 505.5 130.2 505.7 129.9 C 505.7 129.9 506.4 131.5 506.4 131.5 C 505.9 132 505.2 132.4 504 132.4 C 502.1 132.4 501.1 131.3 501.1 129.1 Z M 507.6 124.8 C 507.6 120.6 509.8 117.2 513.5 117.2 C 517.3 117.2 519.2 120.6 519.2 124.8 C 519.2 124.82 519.2 125.5 519.2 125.5 C 519.2 125.5 509.81 125.48 509.8 125.5 C 509.9 128.4 511.4 130.6 514 130.6 C 515.2 130.6 516.5 130 517.4 128.8 C 517.4 128.8 518.6 130.1 518.6 130.1 C 517.4 131.5 515.7 132.4 513.8 132.4 C 509.9 132.4 507.6 129.2 507.6 124.8 Z M 513.4 119 C 510.9 119 509.9 121.8 509.8 123.9 C 509.8 123.9 517.1 123.9 517.1 123.9 C 517 121.7 516.1 119 513.4 119 Z M 535.6 132 C 535.6 132 535.64 130.46 535.6 130.5 C 534.7 131.8 533.3 132.4 531.8 132.4 C 529.5 132.4 527.4 130.6 527.4 127.6 C 527.4 124.5 529.5 122.8 531.8 122.8 C 533.3 122.8 534.7 123.4 535.6 124.6 C 535.6 124.6 535.6 122.1 535.6 122.1 C 535.6 120.1 534.6 119 532.7 119 C 531.3 119 530.1 119.5 529 120.8 C 529 120.8 528.1 119.3 528.1 119.3 C 529.5 117.8 531.2 117.2 533 117.2 C 535.9 117.2 537.8 118.6 537.8 121.9 C 537.8 121.88 537.8 132 537.8 132 L 535.6 132 Z M 535.6 129 C 535.6 129 535.6 126.2 535.6 126.2 C 535 125 533.8 124.4 532.5 124.4 C 530.7 124.4 529.6 125.8 529.6 127.6 C 529.6 129.4 530.7 130.8 532.5 130.8 C 533.8 130.8 535 130.2 535.6 129 Z M 549.3 132 C 549.3 132 549.26 121.7 549.3 121.7 C 549.3 119.8 548.4 119.1 546.9 119.1 C 545.5 119.1 544.2 120.2 543.6 121.4 C 543.56 121.4 543.6 132 543.6 132 L 541.4 132 L 541.4 117.5 L 543.6 117.5 C 543.6 117.5 543.56 119.6 543.6 119.6 C 544.4 118.3 546 117.2 547.8 117.2 C 550.2 117.2 551.4 118.5 551.4 121.1 C 551.42 121.1 551.4 132 551.4 132 L 549.3 132 Z M 563.4 132 C 563.4 132 563.36 129.95 563.4 130 C 562.5 131.4 561.1 132.4 559.5 132.4 C 556.3 132.4 554.4 129.4 554.4 124.8 C 554.4 120.3 556.3 117.2 559.5 117.2 C 561 117.2 562.5 118 563.4 119.6 C 563.36 119.63 563.4 112 563.4 112 L 565.5 112 L 565.5 132 L 563.4 132 Z M 563.4 128.1 C 563.4 128.1 563.4 121.5 563.4 121.5 C 562.8 120.2 561.5 119.1 560.1 119.1 C 557.7 119.1 556.6 121.6 556.6 124.8 C 556.6 127.9 557.7 130.5 560.1 130.5 C 561.5 130.5 562.8 129.4 563.4 128.1 Z M 570 135.8 C 570 135.8 568.9 134.9 568.9 134.9 C 569.9 134.3 570.7 133.1 570.8 132.1 C 570.8 132.1 570.6 132.2 570.4 132.2 C 569.6 132.2 569 131.5 569 130.7 C 569 129.8 569.7 129.1 570.6 129.1 C 571.5 129.1 572.4 129.9 572.4 131.4 C 572.4 133.2 571.3 134.8 570 135.8 Z M 581.4 114 C 581.4 113.2 582.1 112.5 582.9 112.5 C 583.7 112.5 584.4 113.2 584.4 114 C 584.4 114.8 583.7 115.4 582.9 115.4 C 582.1 115.4 581.4 114.8 581.4 114 Z M 581.9 132 L 581.9 117.5 L 584 117.5 L 584 132 L 581.9 132 Z M 588.2 132 L 588.2 119.4 L 586.2 119.4 L 586.2 117.5 L 588.2 117.5 C 588.2 117.5 588.16 115.76 588.2 115.8 C 588.2 113.2 589.5 111.7 591.8 111.7 C 592.8 111.7 593.7 112 594.4 112.7 C 594.4 112.7 593.5 114.2 593.5 114.2 C 593.1 113.8 592.7 113.5 592.1 113.5 C 590.9 113.5 590.3 114.4 590.3 115.8 C 590.32 115.76 590.3 117.5 590.3 117.5 L 592.8 117.5 L 592.8 119.4 L 590.3 119.4 L 590.3 132 L 588.2 132 Z " stroke="none" fill="#efd8d3"/>  </g>  <g id="Polygon180774">    <path d="M 30.3 60 L 30.3 45.5 L 32.5 45.5 C 32.5 45.5 32.46 47.84 32.5 47.8 C 33.4 46.3 34.8 45.2 36.6 45.2 C 36.6 45.2 36.6 47.5 36.6 47.5 C 36.3 47.4 36.1 47.4 35.8 47.4 C 34.5 47.4 33.1 48.5 32.5 49.7 C 32.46 49.73 32.5 60 32.5 60 L 30.3 60 Z M 38.3 42 C 38.3 41.2 39 40.5 39.8 40.5 C 40.6 40.5 41.3 41.2 41.3 42 C 41.3 42.8 40.6 43.4 39.8 43.4 C 39 43.4 38.3 42.8 38.3 42 Z M 38.8 60 L 38.8 45.5 L 40.9 45.5 L 40.9 60 L 38.8 60 Z M 49.9 58.5 C 52.3 58.5 53.4 55.9 53.4 52.8 C 53.4 49.6 52.3 47.1 49.9 47.1 C 48.6 47.1 47.2 48.2 46.7 49.5 C 46.7 49.5 46.7 56.1 46.7 56.1 C 47.2 57.4 48.6 58.5 49.9 58.5 Z M 44.5 60 L 44.5 40 L 46.7 40 C 46.7 40 46.68 47.63 46.7 47.6 C 47.6 46 49 45.2 50.5 45.2 C 53.8 45.2 55.7 48.3 55.7 52.8 C 55.7 57.4 53.8 60.4 50.5 60.4 C 49 60.4 47.5 59.4 46.7 58 C 46.68 57.95 46.7 60 46.7 60 L 44.5 60 Z M 64 58.5 C 66.4 58.5 67.5 55.9 67.5 52.8 C 67.5 49.6 66.4 47.1 64 47.1 C 62.7 47.1 61.3 48.2 60.8 49.5 C 60.8 49.5 60.8 56.1 60.8 56.1 C 61.3 57.4 62.7 58.5 64 58.5 Z M 58.6 60 L 58.6 40 L 60.8 40 C 60.8 40 60.78 47.63 60.8 47.6 C 61.7 46 63.1 45.2 64.6 45.2 C 67.9 45.2 69.8 48.3 69.8 52.8 C 69.8 57.4 67.9 60.4 64.6 60.4 C 63.1 60.4 61.6 59.4 60.8 58 C 60.78 57.95 60.8 60 60.8 60 L 58.6 60 Z M 72 52.8 C 72 48.7 74.1 45.2 77.9 45.2 C 81.8 45.2 83.8 48.7 83.8 52.8 C 83.8 56.8 81.8 60.4 77.9 60.4 C 74.1 60.4 72 56.8 72 52.8 Z M 81.6 52.8 C 81.6 49.9 80.5 47.1 77.9 47.1 C 75.4 47.1 74.3 49.9 74.3 52.8 C 74.3 55.7 75.4 58.5 77.9 58.5 C 80.5 58.5 81.6 55.7 81.6 52.8 Z M 94.6 60 C 94.6 60 94.59 49.7 94.6 49.7 C 94.6 47.8 93.7 47.1 92.3 47.1 C 90.9 47.1 89.5 48.2 88.9 49.4 C 88.89 49.4 88.9 60 88.9 60 L 86.8 60 L 86.8 45.5 L 88.9 45.5 C 88.9 45.5 88.89 47.6 88.9 47.6 C 89.7 46.3 91.3 45.2 93.1 45.2 C 95.5 45.2 96.7 46.5 96.7 49.1 C 96.75 49.1 96.7 60 96.7 60 L 94.6 60 Z M 101.2 63.8 C 101.2 63.8 100.1 62.9 100.1 62.9 C 101.1 62.3 101.9 61.1 102.1 60.1 C 102 60.1 101.8 60.2 101.7 60.2 C 100.9 60.2 100.3 59.5 100.3 58.7 C 100.3 57.8 100.9 57.1 101.8 57.1 C 102.8 57.1 103.6 57.9 103.6 59.4 C 103.6 61.2 102.6 62.8 101.2 63.8 Z M 112.4 52.8 C 112.4 48.5 114.7 45.2 118.4 45.2 C 120.4 45.2 121.6 46 122.5 47.1 C 122.5 47.1 121.3 48.6 121.3 48.6 C 120.6 47.5 119.7 47.1 118.6 47.1 C 116 47.1 114.6 49.7 114.6 52.8 C 114.6 55.9 116 58.5 118.6 58.5 C 119.7 58.5 120.6 58 121.3 57 C 121.3 57 122.5 58.5 122.5 58.5 C 121.6 59.6 120.4 60.4 118.4 60.4 C 114.7 60.4 112.4 57.1 112.4 52.8 Z M 132.8 60 C 132.8 60 132.83 49.67 132.8 49.7 C 132.8 47.8 131.9 47.1 130.5 47.1 C 129.1 47.1 127.8 48.2 127.1 49.4 C 127.1 49.4 127.1 60 127.1 60 L 125 60 L 125 40 L 127.1 40 C 127.1 40 127.1 47.6 127.1 47.6 C 127.9 46.3 129.6 45.2 131.3 45.2 C 133.8 45.2 135 46.4 135 49 C 134.96 49.04 135 60 135 60 L 132.8 60 Z M 137.9 52.8 C 137.9 48.7 139.9 45.2 143.8 45.2 C 147.7 45.2 149.7 48.7 149.7 52.8 C 149.7 56.8 147.7 60.4 143.8 60.4 C 139.9 60.4 137.9 56.8 137.9 52.8 Z M 147.4 52.8 C 147.4 49.9 146.3 47.1 143.8 47.1 C 141.3 47.1 140.2 49.9 140.2 52.8 C 140.2 55.7 141.3 58.5 143.8 58.5 C 146.3 58.5 147.4 55.7 147.4 52.8 Z M 154.8 57.9 C 154.76 57.92 154.8 65.5 154.8 65.5 L 152.6 65.5 L 152.6 45.5 L 154.8 45.5 C 154.8 45.5 154.76 47.6 154.8 47.6 C 155.6 46.1 157 45.2 158.6 45.2 C 161.8 45.2 163.8 48.2 163.8 52.8 C 163.8 57.3 161.8 60.4 158.6 60.4 C 157.1 60.4 155.7 59.5 154.8 57.9 Z M 161.5 52.8 C 161.5 49.6 160.4 47.1 158 47.1 C 156.7 47.1 155.3 48.2 154.8 49.4 C 154.8 49.4 154.8 56.1 154.8 56.1 C 155.3 57.3 156.7 58.5 158 58.5 C 160.4 58.5 161.5 55.9 161.5 52.8 Z M 168.8 57.9 C 168.8 57.92 168.8 65.5 168.8 65.5 L 166.7 65.5 L 166.7 45.5 L 168.8 45.5 C 168.8 45.5 168.8 47.6 168.8 47.6 C 169.6 46.1 171.1 45.2 172.6 45.2 C 175.9 45.2 177.8 48.2 177.8 52.8 C 177.8 57.3 175.9 60.4 172.6 60.4 C 171.1 60.4 169.7 59.5 168.8 57.9 Z M 175.6 52.8 C 175.6 49.6 174.4 47.1 172.1 47.1 C 170.7 47.1 169.4 48.2 168.8 49.4 C 168.8 49.4 168.8 56.1 168.8 56.1 C 169.4 57.3 170.7 58.5 172.1 58.5 C 174.4 58.5 175.6 55.9 175.6 52.8 Z M 180 52.8 C 180 48.6 182.2 45.2 185.9 45.2 C 189.7 45.2 191.6 48.6 191.6 52.8 C 191.6 52.82 191.6 53.5 191.6 53.5 C 191.6 53.5 182.21 53.48 182.2 53.5 C 182.3 56.4 183.8 58.6 186.4 58.6 C 187.6 58.6 188.9 58 189.8 56.8 C 189.8 56.8 191 58.1 191 58.1 C 189.8 59.5 188.2 60.4 186.2 60.4 C 182.3 60.4 180 57.2 180 52.8 Z M 185.8 47 C 183.3 47 182.3 49.8 182.2 51.9 C 182.2 51.9 189.5 51.9 189.5 51.9 C 189.4 49.7 188.5 47 185.8 47 Z M 202.7 60 C 202.7 60 202.73 57.95 202.7 58 C 201.9 59.4 200.5 60.4 198.9 60.4 C 195.7 60.4 193.7 57.4 193.7 52.8 C 193.7 48.3 195.7 45.2 198.9 45.2 C 200.4 45.2 201.9 46 202.7 47.6 C 202.73 47.63 202.7 40 202.7 40 L 204.9 40 L 204.9 60 L 202.7 60 Z M 202.7 56.1 C 202.7 56.1 202.7 49.5 202.7 49.5 C 202.2 48.2 200.8 47.1 199.5 47.1 C 197.1 47.1 196 49.6 196 52.8 C 196 55.9 197.1 58.5 199.5 58.5 C 200.8 58.5 202.2 57.4 202.7 56.1 Z M 222.5 60 C 222.5 60 222.53 58.01 222.5 58 C 221.7 59.3 220.1 60.4 218.3 60.4 C 215.9 60.4 214.7 59.2 214.7 56.5 C 214.7 56.51 214.7 45.5 214.7 45.5 L 216.8 45.5 C 216.8 45.5 216.83 55.88 216.8 55.9 C 216.8 57.8 217.7 58.5 219.1 58.5 C 220.6 58.5 221.9 57.4 222.5 56.2 C 222.53 56.21 222.5 45.5 222.5 45.5 L 224.7 45.5 L 224.7 60 L 222.5 60 Z M 230.5 57.9 C 230.48 57.92 230.5 65.5 230.5 65.5 L 228.4 65.5 L 228.4 45.5 L 230.5 45.5 C 230.5 45.5 230.48 47.6 230.5 47.6 C 231.3 46.1 232.8 45.2 234.3 45.2 C 237.6 45.2 239.5 48.2 239.5 52.8 C 239.5 57.3 237.6 60.4 234.3 60.4 C 232.8 60.4 231.4 59.5 230.5 57.9 Z M 237.2 52.8 C 237.2 49.6 236.1 47.1 233.8 47.1 C 232.4 47.1 231.1 48.2 230.5 49.4 C 230.5 49.4 230.5 56.1 230.5 56.1 C 231.1 57.3 232.4 58.5 233.8 58.5 C 236.1 58.5 237.2 55.9 237.2 52.8 Z M 247.8 52.8 C 247.8 48.5 250.1 45.2 253.8 45.2 C 255.8 45.2 257.1 46 258 47.1 C 258 47.1 256.8 48.6 256.8 48.6 C 256 47.5 255.1 47.1 254 47.1 C 251.4 47.1 250.1 49.7 250.1 52.8 C 250.1 55.9 251.4 58.5 254 58.5 C 255.1 58.5 256 58 256.8 57 C 256.8 57 258 58.5 258 58.5 C 257.1 59.6 255.8 60.4 253.8 60.4 C 250.1 60.4 247.8 57.1 247.8 52.8 Z M 267.9 60 C 267.9 60 267.86 58.46 267.9 58.5 C 266.9 59.8 265.5 60.4 264.1 60.4 C 261.7 60.4 259.7 58.6 259.7 55.6 C 259.7 52.5 261.7 50.8 264.1 50.8 C 265.5 50.8 267 51.4 267.9 52.6 C 267.9 52.6 267.9 50.1 267.9 50.1 C 267.9 48.1 266.8 47 264.9 47 C 263.5 47 262.4 47.5 261.3 48.8 C 261.3 48.8 260.3 47.3 260.3 47.3 C 261.7 45.8 263.4 45.2 265.2 45.2 C 268.1 45.2 270 46.6 270 49.9 C 270.02 49.88 270 60 270 60 L 267.9 60 Z M 267.9 57 C 267.9 57 267.9 54.2 267.9 54.2 C 267.2 53 266 52.4 264.7 52.4 C 262.9 52.4 261.9 53.8 261.9 55.6 C 261.9 57.4 262.9 58.8 264.7 58.8 C 266 58.8 267.2 58.2 267.9 57 Z M 279.1 58.5 C 281.4 58.5 282.5 55.9 282.5 52.8 C 282.5 49.6 281.4 47.1 279.1 47.1 C 277.7 47.1 276.4 48.2 275.8 49.5 C 275.8 49.5 275.8 56.1 275.8 56.1 C 276.4 57.4 277.7 58.5 279.1 58.5 Z M 273.7 60 L 273.7 40 L 275.8 40 C 275.8 40 275.78 47.63 275.8 47.6 C 276.7 46 278.1 45.2 279.6 45.2 C 282.9 45.2 284.8 48.3 284.8 52.8 C 284.8 57.4 282.9 60.4 279.6 60.4 C 278.1 60.4 276.6 59.4 275.8 58 C 275.78 57.95 275.8 60 275.8 60 L 273.7 60 Z M 287.8 60 L 287.8 40 L 289.9 40 L 289.9 60 L 287.8 60 Z M 292.8 52.8 C 292.8 48.6 295 45.2 298.7 45.2 C 302.5 45.2 304.4 48.6 304.4 52.8 C 304.43 52.82 304.4 53.5 304.4 53.5 C 304.4 53.5 295.04 53.48 295 53.5 C 295.1 56.4 296.6 58.6 299.2 58.6 C 300.5 58.6 301.8 58 302.7 56.8 C 302.7 56.8 303.8 58.1 303.8 58.1 C 302.6 59.5 301 60.4 299 60.4 C 295.2 60.4 292.8 57.2 292.8 52.8 Z M 298.7 47 C 296.1 47 295.1 49.8 295 51.9 C 295 51.9 302.3 51.9 302.3 51.9 C 302.3 49.7 301.3 47 298.7 47 Z M 313 42 C 313 41.2 313.7 40.5 314.5 40.5 C 315.3 40.5 316 41.2 316 42 C 316 42.8 315.3 43.4 314.5 43.4 C 313.7 43.4 313 42.8 313 42 Z M 313.4 60 L 313.4 45.5 L 315.6 45.5 L 315.6 60 L 313.4 60 Z M 327.1 60 C 327.1 60 327.05 49.7 327.1 49.7 C 327.1 47.8 326.2 47.1 324.7 47.1 C 323.3 47.1 322 48.2 321.4 49.4 C 321.35 49.4 321.4 60 321.4 60 L 319.2 60 L 319.2 45.5 L 321.4 45.5 C 321.4 45.5 321.35 47.6 321.4 47.6 C 322.2 46.3 323.8 45.2 325.6 45.2 C 328 45.2 329.2 46.5 329.2 49.1 C 329.21 49.1 329.2 60 329.2 60 L 327.1 60 Z M 331.7 58.3 C 331.7 58.3 332.8 56.8 332.8 56.8 C 333.6 57.8 335 58.6 336.6 58.6 C 338.2 58.6 339.4 57.7 339.4 56.3 C 339.4 52.9 332.1 54.1 332.1 49.1 C 332.1 46.9 333.9 45.2 336.7 45.2 C 338.7 45.2 340.1 45.9 341.2 47 C 341.2 47 340.1 48.5 340.1 48.5 C 339.4 47.5 338.2 46.9 336.8 46.9 C 335.2 46.9 334.2 47.8 334.2 49 C 334.2 52.1 341.4 51 341.4 56.2 C 341.4 58.6 339.6 60.4 336.6 60.4 C 334.6 60.4 332.9 59.7 331.7 58.3 Z M 352 60 C 352 60 352.01 58.01 352 58 C 351.1 59.3 349.6 60.4 347.8 60.4 C 345.4 60.4 344.2 59.2 344.2 56.5 C 344.18 56.51 344.2 45.5 344.2 45.5 L 346.3 45.5 C 346.3 45.5 346.31 55.88 346.3 55.9 C 346.3 57.8 347.2 58.5 348.6 58.5 C 350.1 58.5 351.4 57.4 352 56.2 C 352.01 56.21 352 45.5 352 45.5 L 354.2 45.5 L 354.2 60 L 352 60 Z M 357.8 60 L 357.8 40 L 360 40 L 360 60 L 357.8 60 Z M 371.1 60 C 371.1 60 371.06 58.46 371.1 58.5 C 370.1 59.8 368.7 60.4 367.3 60.4 C 364.9 60.4 362.9 58.6 362.9 55.6 C 362.9 52.5 364.9 50.8 367.3 50.8 C 368.7 50.8 370.2 51.4 371.1 52.6 C 371.1 52.6 371.1 50.1 371.1 50.1 C 371.1 48.1 370 47 368.1 47 C 366.7 47 365.6 47.5 364.5 48.8 C 364.5 48.8 363.5 47.3 363.5 47.3 C 364.9 45.8 366.6 45.2 368.4 45.2 C 371.3 45.2 373.2 46.6 373.2 49.9 C 373.22 49.88 373.2 60 373.2 60 L 371.1 60 Z M 371.1 57 C 371.1 57 371.1 54.2 371.1 54.2 C 370.4 53 369.2 52.4 367.9 52.4 C 366.1 52.4 365.1 53.8 365.1 55.6 C 365.1 57.4 366.1 58.8 367.9 58.8 C 369.2 58.8 370.4 58.2 371.1 57 Z M 377.3 57.1 C 377.27 57.11 377.3 47.4 377.3 47.4 L 375.3 47.4 L 375.3 45.5 L 377.3 45.5 L 377.3 41.6 L 379.4 41.6 L 379.4 45.5 L 381.9 45.5 L 381.9 47.4 L 379.4 47.4 C 379.4 47.4 379.43 56.72 379.4 56.7 C 379.4 57.8 379.8 58.5 380.6 58.5 C 381.1 58.5 381.6 58.2 381.9 57.9 C 381.9 57.9 382.5 59.5 382.5 59.5 C 382 60 381.3 60.4 380.2 60.4 C 378.2 60.4 377.3 59.3 377.3 57.1 Z M 384 42 C 384 41.2 384.7 40.5 385.5 40.5 C 386.3 40.5 387 41.2 387 42 C 387 42.8 386.3 43.4 385.5 43.4 C 384.7 43.4 384 42.8 384 42 Z M 384.4 60 L 384.4 45.5 L 386.6 45.5 L 386.6 60 L 384.4 60 Z M 389.5 52.8 C 389.5 48.7 391.5 45.2 395.4 45.2 C 399.3 45.2 401.3 48.7 401.3 52.8 C 401.3 56.8 399.3 60.4 395.4 60.4 C 391.5 60.4 389.5 56.8 389.5 52.8 Z M 399 52.8 C 399 49.9 397.9 47.1 395.4 47.1 C 392.9 47.1 391.8 49.9 391.8 52.8 C 391.8 55.7 392.9 58.5 395.4 58.5 C 397.9 58.5 399 55.7 399 52.8 Z M 412.1 60 C 412.1 60 412.07 49.7 412.1 49.7 C 412.1 47.8 411.2 47.1 409.8 47.1 C 408.3 47.1 407 48.2 406.4 49.4 C 406.37 49.4 406.4 60 406.4 60 L 404.2 60 L 404.2 45.5 L 406.4 45.5 C 406.4 45.5 406.37 47.6 406.4 47.6 C 407.2 46.3 408.8 45.2 410.6 45.2 C 413 45.2 414.2 46.5 414.2 49.1 C 414.23 49.1 414.2 60 414.2 60 L 412.1 60 Z M 418.7 63.8 C 418.7 63.8 417.6 62.9 417.6 62.9 C 418.6 62.3 419.4 61.1 419.5 60.1 C 419.5 60.1 419.3 60.2 419.1 60.2 C 418.3 60.2 417.7 59.5 417.7 58.7 C 417.7 57.8 418.4 57.1 419.3 57.1 C 420.3 57.1 421.1 57.9 421.1 59.4 C 421.1 61.2 420 62.8 418.7 63.8 Z M 438 60 C 438 60 438.02 58.46 438 58.5 C 437.1 59.8 435.7 60.4 434.2 60.4 C 431.9 60.4 429.8 58.6 429.8 55.6 C 429.8 52.5 431.8 50.8 434.2 50.8 C 435.7 50.8 437.1 51.4 438 52.6 C 438 52.6 438 50.1 438 50.1 C 438 48.1 436.9 47 435 47 C 433.7 47 432.5 47.5 431.4 48.8 C 431.4 48.8 430.5 47.3 430.5 47.3 C 431.8 45.8 433.5 45.2 435.4 45.2 C 438.3 45.2 440.2 46.6 440.2 49.9 C 440.18 49.88 440.2 60 440.2 60 L 438 60 Z M 438 57 C 438 57 438 54.2 438 54.2 C 437.4 53 436.2 52.4 434.9 52.4 C 433.1 52.4 432 53.8 432 55.6 C 432 57.4 433.1 58.8 434.9 58.8 C 436.2 58.8 437.4 58.2 438 57 Z M 451.6 60 C 451.6 60 451.64 49.7 451.6 49.7 C 451.6 47.8 450.8 47.1 449.3 47.1 C 447.9 47.1 446.6 48.2 445.9 49.4 C 445.94 49.4 445.9 60 445.9 60 L 443.8 60 L 443.8 45.5 L 445.9 45.5 C 445.9 45.5 445.94 47.6 445.9 47.6 C 446.8 46.3 448.4 45.2 450.1 45.2 C 452.6 45.2 453.8 46.5 453.8 49.1 C 453.8 49.1 453.8 60 453.8 60 L 451.6 60 Z M 465.7 60 C 465.7 60 465.74 57.95 465.7 58 C 464.9 59.4 463.5 60.4 461.9 60.4 C 458.7 60.4 456.7 57.4 456.7 52.8 C 456.7 48.3 458.7 45.2 461.9 45.2 C 463.4 45.2 464.9 46 465.7 47.6 C 465.74 47.63 465.7 40 465.7 40 L 467.9 40 L 467.9 60 L 465.7 60 Z M 465.7 56.1 C 465.7 56.1 465.7 49.5 465.7 49.5 C 465.2 48.2 463.8 47.1 462.5 47.1 C 460.1 47.1 459 49.6 459 52.8 C 459 55.9 460.1 58.5 462.5 58.5 C 463.8 58.5 465.2 57.4 465.7 56.1 Z M 488.4 60 L 485.3 48.4 L 482.2 60 L 480 60 L 476.1 45.5 L 478.4 45.5 L 481.2 57.1 L 484.2 45.5 L 486.3 45.5 L 489.4 57.1 L 492.2 45.5 L 494.5 45.5 L 490.6 60 L 488.4 60 Z M 504.4 60 C 504.4 60 504.41 49.67 504.4 49.7 C 504.4 47.8 503.5 47.1 502.1 47.1 C 500.7 47.1 499.3 48.2 498.7 49.4 C 498.68 49.4 498.7 60 498.7 60 L 496.5 60 L 496.5 40 L 498.7 40 C 498.7 40 498.68 47.6 498.7 47.6 C 499.5 46.3 501.2 45.2 502.9 45.2 C 505.4 45.2 506.5 46.4 506.5 49 C 506.54 49.04 506.5 60 506.5 60 L 504.4 60 Z M 509.8 42 C 509.8 41.2 510.5 40.5 511.2 40.5 C 512.1 40.5 512.7 41.2 512.7 42 C 512.7 42.8 512.1 43.4 511.2 43.4 C 510.5 43.4 509.8 42.8 509.8 42 Z M 510.2 60 L 510.2 45.5 L 512.3 45.5 L 512.3 60 L 510.2 60 Z M 516.4 57.1 C 516.41 57.11 516.4 47.4 516.4 47.4 L 514.5 47.4 L 514.5 45.5 L 516.4 45.5 L 516.4 41.6 L 518.6 41.6 L 518.6 45.5 L 521 45.5 L 521 47.4 L 518.6 47.4 C 518.6 47.4 518.57 56.72 518.6 56.7 C 518.6 57.8 518.9 58.5 519.7 58.5 C 520.3 58.5 520.7 58.2 521 57.9 C 521 57.9 521.7 59.5 521.7 59.5 C 521.1 60 520.4 60.4 519.3 60.4 C 517.3 60.4 516.4 59.3 516.4 57.1 Z M 522.9 52.8 C 522.9 48.6 525.1 45.2 528.7 45.2 C 532.5 45.2 534.5 48.6 534.5 52.8 C 534.47 52.82 534.5 53.5 534.5 53.5 C 534.5 53.5 525.08 53.48 525.1 53.5 C 525.2 56.4 526.7 58.6 529.2 58.6 C 530.5 58.6 531.8 58 532.7 56.8 C 532.7 56.8 533.8 58.1 533.8 58.1 C 532.7 59.5 531 60.4 529.1 60.4 C 525.2 60.4 522.9 57.2 522.9 52.8 Z M 528.7 47 C 526.2 47 525.1 49.8 525.1 51.9 C 525.1 51.9 532.3 51.9 532.3 51.9 C 532.3 49.7 531.3 47 528.7 47 Z M 542.3 58.3 C 542.3 58.3 543.4 56.8 543.4 56.8 C 544.2 57.8 545.6 58.6 547.2 58.6 C 548.8 58.6 549.9 57.7 549.9 56.3 C 549.9 52.9 542.7 54.1 542.7 49.1 C 542.7 46.9 544.5 45.2 547.3 45.2 C 549.3 45.2 550.7 45.9 551.7 47 C 551.7 47 550.7 48.5 550.7 48.5 C 550 47.5 548.8 46.9 547.4 46.9 C 545.8 46.9 544.8 47.8 544.8 49 C 544.8 52.1 552 51 552 56.2 C 552 58.6 550.2 60.4 547.2 60.4 C 545.1 60.4 543.5 59.7 542.3 58.3 Z M 562.2 60 C 562.2 60 562.22 58.46 562.2 58.5 C 561.3 59.8 559.9 60.4 558.4 60.4 C 556.1 60.4 554 58.6 554 55.6 C 554 52.5 556 50.8 558.4 50.8 C 559.9 50.8 561.3 51.4 562.2 52.6 C 562.2 52.6 562.2 50.1 562.2 50.1 C 562.2 48.1 561.1 47 559.2 47 C 557.9 47 556.7 47.5 555.6 48.8 C 555.6 48.8 554.7 47.3 554.7 47.3 C 556 45.8 557.7 45.2 559.6 45.2 C 562.5 45.2 564.4 46.6 564.4 49.9 C 564.38 49.88 564.4 60 564.4 60 L 562.2 60 Z M 562.2 57 C 562.2 57 562.2 54.2 562.2 54.2 C 561.6 53 560.4 52.4 559.1 52.4 C 557.3 52.4 556.2 53.8 556.2 55.6 C 556.2 57.4 557.3 58.8 559.1 58.8 C 560.4 58.8 561.6 58.2 562.2 57 Z M 575.8 60 C 575.8 60 575.84 49.7 575.8 49.7 C 575.8 47.8 575 47.1 573.5 47.1 C 572.1 47.1 570.8 48.2 570.1 49.4 C 570.14 49.4 570.1 60 570.1 60 L 568 60 L 568 45.5 L 570.1 45.5 C 570.1 45.5 570.14 47.6 570.1 47.6 C 571 46.3 572.6 45.2 574.3 45.2 C 576.8 45.2 578 46.5 578 49.1 C 578 49.1 578 60 578 60 L 575.8 60 Z M 589.9 60 C 589.9 60 589.94 57.95 589.9 58 C 589.1 59.4 587.7 60.4 586.1 60.4 C 582.9 60.4 580.9 57.4 580.9 52.8 C 580.9 48.3 582.9 45.2 586.1 45.2 C 587.6 45.2 589.1 46 589.9 47.6 C 589.94 47.63 589.9 40 589.9 40 L 592.1 40 L 592.1 60 L 589.9 60 Z M 589.9 56.1 C 589.9 56.1 589.9 49.5 589.9 49.5 C 589.4 48.2 588 47.1 586.7 47.1 C 584.3 47.1 583.2 49.6 583.2 52.8 C 583.2 55.9 584.3 58.5 586.7 58.5 C 588 58.5 589.4 57.4 589.9 56.1 Z M 595.6 58.7 C 595.6 57.9 596.3 57.1 597.2 57.1 C 598.1 57.1 598.8 57.9 598.8 58.7 C 598.8 59.6 598.1 60.3 597.2 60.3 C 596.3 60.3 595.6 59.6 595.6 58.7 Z " stroke="none" fill="#efd8d3"/>  </g>  <g id="Polygon180773">    <path d="M 5 24 L 5 7.2 L 1.9 10.5 L 0.4 9 L 5.3 4 L 7.3 4 L 7.3 24 L 5 24 Z M 11 22.7 C 11 21.9 11.7 21.1 12.6 21.1 C 13.4 21.1 14.2 21.9 14.2 22.7 C 14.2 23.6 13.4 24.3 12.6 24.3 C 11.7 24.3 11 23.6 11 22.7 Z M 44.4 24 L 44.4 8.3 L 39.1 24 L 38.1 24 L 32.8 8.3 L 32.8 24 L 30.4 24 L 30.4 4 L 33.8 4 L 38.6 18.2 L 43.5 4 L 46.7 4 L 46.7 24 L 44.4 24 Z M 50.1 6 C 50.1 5.2 50.8 4.5 51.6 4.5 C 52.4 4.5 53 5.2 53 6 C 53 6.8 52.4 7.4 51.6 7.4 C 50.8 7.4 50.1 6.8 50.1 6 Z M 50.5 24 L 50.5 9.5 L 52.6 9.5 L 52.6 24 L 50.5 24 Z M 63.7 24 L 60.4 18.2 L 57.1 24 L 54.7 24 L 59.1 16.6 L 54.9 9.5 L 57.3 9.5 L 60.4 15.1 L 63.5 9.5 L 65.9 9.5 L 61.7 16.6 L 66.1 24 L 63.7 24 Z M 74.8 21.1 C 74.76 21.11 74.8 11.4 74.8 11.4 L 72.8 11.4 L 72.8 9.5 L 74.8 9.5 L 74.8 5.6 L 76.9 5.6 L 76.9 9.5 L 79.4 9.5 L 79.4 11.4 L 76.9 11.4 C 76.9 11.4 76.92 20.72 76.9 20.7 C 76.9 21.8 77.2 22.5 78.1 22.5 C 78.6 22.5 79.1 22.2 79.3 21.9 C 79.3 21.9 80 23.5 80 23.5 C 79.5 24 78.8 24.4 77.7 24.4 C 75.7 24.4 74.8 23.3 74.8 21.1 Z M 81.2 16.8 C 81.2 12.7 83.2 9.2 87.1 9.2 C 91 9.2 93 12.7 93 16.8 C 93 20.8 91 24.4 87.1 24.4 C 83.2 24.4 81.2 20.8 81.2 16.8 Z M 90.7 16.8 C 90.7 13.9 89.6 11.1 87.1 11.1 C 84.6 11.1 83.5 13.9 83.5 16.8 C 83.5 19.7 84.6 22.5 87.1 22.5 C 89.6 22.5 90.7 19.7 90.7 16.8 Z M 95.8 28.1 C 95.8 28.1 96.8 26.4 96.8 26.4 C 97.8 27.5 99 28.1 100.6 28.1 C 102.6 28.1 104.2 26.9 104.2 24.1 C 104.2 24.1 104.2 21.7 104.2 21.7 C 103.4 23.2 101.9 24.2 100.4 24.2 C 97.2 24.2 95.2 21.3 95.2 16.7 C 95.2 12.2 97.1 9.2 100.4 9.2 C 101.9 9.2 103.3 10 104.2 11.6 C 104.21 11.63 104.2 9.5 104.2 9.5 L 106.4 9.5 C 106.4 9.5 106.37 23.99 106.4 24 C 106.4 28.5 103.7 29.9 100.6 29.9 C 98.7 29.9 97.2 29.5 95.8 28.1 Z M 104.2 19.9 C 104.2 19.9 104.2 13.5 104.2 13.5 C 103.7 12.2 102.3 11.1 100.9 11.1 C 98.6 11.1 97.5 13.6 97.5 16.7 C 97.5 19.8 98.6 22.3 100.9 22.3 C 102.3 22.3 103.7 21.1 104.2 19.9 Z M 109.3 16.8 C 109.3 12.6 111.5 9.2 115.2 9.2 C 119 9.2 120.9 12.6 120.9 16.8 C 120.89 16.82 120.9 17.5 120.9 17.5 C 120.9 17.5 111.5 17.48 111.5 17.5 C 111.6 20.4 113.1 22.6 115.7 22.6 C 116.9 22.6 118.2 22 119.1 20.8 C 119.1 20.8 120.3 22.1 120.3 22.1 C 119.1 23.5 117.4 24.4 115.5 24.4 C 111.6 24.4 109.3 21.2 109.3 16.8 Z M 115.1 11 C 112.6 11 111.6 13.8 111.5 15.9 C 111.5 15.9 118.8 15.9 118.8 15.9 C 118.7 13.7 117.8 11 115.1 11 Z M 124.2 21.1 C 124.16 21.11 124.2 11.4 124.2 11.4 L 122.2 11.4 L 122.2 9.5 L 124.2 9.5 L 124.2 5.6 L 126.3 5.6 L 126.3 9.5 L 128.8 9.5 L 128.8 11.4 L 126.3 11.4 C 126.3 11.4 126.32 20.72 126.3 20.7 C 126.3 21.8 126.7 22.5 127.5 22.5 C 128 22.5 128.5 22.2 128.8 21.9 C 128.8 21.9 129.4 23.5 129.4 23.5 C 128.9 24 128.2 24.4 127.1 24.4 C 125.1 24.4 124.2 23.3 124.2 21.1 Z M 139.2 24 C 139.2 24 139.19 13.67 139.2 13.7 C 139.2 11.8 138.3 11.1 136.9 11.1 C 135.4 11.1 134.1 12.2 133.5 13.4 C 133.46 13.4 133.5 24 133.5 24 L 131.3 24 L 131.3 4 L 133.5 4 C 133.5 4 133.46 11.6 133.5 11.6 C 134.3 10.3 136 9.2 137.7 9.2 C 140.2 9.2 141.3 10.4 141.3 13 C 141.32 13.04 141.3 24 141.3 24 L 139.2 24 Z M 144.3 16.8 C 144.3 12.6 146.5 9.2 150.1 9.2 C 154 9.2 155.9 12.6 155.9 16.8 C 155.87 16.82 155.9 17.5 155.9 17.5 C 155.9 17.5 146.48 17.48 146.5 17.5 C 146.6 20.4 148.1 22.6 150.7 22.6 C 151.9 22.6 153.2 22 154.1 20.8 C 154.1 20.8 155.2 22.1 155.2 22.1 C 154.1 23.5 152.4 24.4 150.5 24.4 C 146.6 24.4 144.3 21.2 144.3 16.8 Z M 150.1 11 C 147.6 11 146.5 13.8 146.5 15.9 C 146.5 15.9 153.7 15.9 153.7 15.9 C 153.7 13.7 152.8 11 150.1 11 Z M 158.7 24 L 158.7 9.5 L 160.9 9.5 C 160.9 9.5 160.85 11.84 160.9 11.8 C 161.8 10.3 163.2 9.2 165 9.2 C 165 9.2 165 11.5 165 11.5 C 164.7 11.4 164.5 11.4 164.2 11.4 C 162.9 11.4 161.5 12.5 160.9 13.7 C 160.85 13.73 160.9 24 160.9 24 L 158.7 24 Z M 172.1 22.3 C 172.1 22.3 173.2 20.8 173.2 20.8 C 174.1 21.8 175.4 22.6 177 22.6 C 178.7 22.6 179.8 21.7 179.8 20.3 C 179.8 16.9 172.6 18.1 172.6 13.1 C 172.6 10.9 174.3 9.2 177.2 9.2 C 179.1 9.2 180.6 9.9 181.6 11 C 181.6 11 180.6 12.5 180.6 12.5 C 179.8 11.5 178.6 10.9 177.2 10.9 C 175.6 10.9 174.6 11.8 174.6 13 C 174.6 16.1 181.9 15 181.9 20.2 C 181.9 22.6 180 24.4 177 24.4 C 175 24.4 173.3 23.7 172.1 22.3 Z M 192.1 24 C 192.1 24 192.05 22.46 192.1 22.5 C 191.1 23.8 189.7 24.4 188.2 24.4 C 185.9 24.4 183.9 22.6 183.9 19.6 C 183.9 16.5 185.9 14.8 188.2 14.8 C 189.7 14.8 191.2 15.4 192.1 16.6 C 192.1 16.6 192.1 14.1 192.1 14.1 C 192.1 12.1 191 11 189.1 11 C 187.7 11 186.6 11.5 185.5 12.8 C 185.5 12.8 184.5 11.3 184.5 11.3 C 185.9 9.8 187.6 9.2 189.4 9.2 C 192.3 9.2 194.2 10.6 194.2 13.9 C 194.21 13.88 194.2 24 194.2 24 L 192.1 24 Z M 192.1 21 C 192.1 21 192.1 18.2 192.1 18.2 C 191.4 17 190.2 16.4 188.9 16.4 C 187.1 16.4 186.1 17.8 186.1 19.6 C 186.1 21.4 187.1 22.8 188.9 22.8 C 190.2 22.8 191.4 22.2 192.1 21 Z M 205.7 24 C 205.7 24 205.67 13.7 205.7 13.7 C 205.7 11.8 204.8 11.1 203.4 11.1 C 202 11.1 200.6 12.2 200 13.4 C 199.97 13.4 200 24 200 24 L 197.8 24 L 197.8 9.5 L 200 9.5 C 200 9.5 199.97 11.6 200 11.6 C 200.8 10.3 202.4 9.2 204.2 9.2 C 206.6 9.2 207.8 10.5 207.8 13.1 C 207.83 13.1 207.8 24 207.8 24 L 205.7 24 Z M 211.1 6 C 211.1 5.2 211.8 4.5 212.5 4.5 C 213.4 4.5 214 5.2 214 6 C 214 6.8 213.4 7.4 212.5 7.4 C 211.8 7.4 211.1 6.8 211.1 6 Z M 211.5 24 L 211.5 9.5 L 213.6 9.5 L 213.6 24 L 211.5 24 Z M 217.7 21.1 C 217.7 21.11 217.7 11.4 217.7 11.4 L 215.8 11.4 L 215.8 9.5 L 217.7 9.5 L 217.7 5.6 L 219.9 5.6 L 219.9 9.5 L 222.3 9.5 L 222.3 11.4 L 219.9 11.4 C 219.9 11.4 219.86 20.72 219.9 20.7 C 219.9 21.8 220.2 22.5 221 22.5 C 221.6 22.5 222 22.2 222.3 21.9 C 222.3 21.9 223 23.5 223 23.5 C 222.4 24 221.7 24.4 220.6 24.4 C 218.6 24.4 217.7 23.3 217.7 21.1 Z M 232.3 24 C 232.3 24 232.31 22.46 232.3 22.5 C 231.4 23.8 230 24.4 228.5 24.4 C 226.2 24.4 224.1 22.6 224.1 19.6 C 224.1 16.5 226.1 14.8 228.5 14.8 C 230 14.8 231.4 15.4 232.3 16.6 C 232.3 16.6 232.3 14.1 232.3 14.1 C 232.3 12.1 231.2 11 229.3 11 C 228 11 226.8 11.5 225.7 12.8 C 225.7 12.8 224.8 11.3 224.8 11.3 C 226.1 9.8 227.8 9.2 229.7 9.2 C 232.6 9.2 234.5 10.6 234.5 13.9 C 234.47 13.88 234.5 24 234.5 24 L 232.3 24 Z M 232.3 21 C 232.3 21 232.3 18.2 232.3 18.2 C 231.7 17 230.5 16.4 229.2 16.4 C 227.4 16.4 226.3 17.8 226.3 19.6 C 226.3 21.4 227.4 22.8 229.2 22.8 C 230.5 22.8 231.7 22.2 232.3 21 Z M 238.1 24 L 238.1 9.5 L 240.2 9.5 C 240.2 9.5 240.23 11.84 240.2 11.8 C 241.2 10.3 242.6 9.2 244.3 9.2 C 244.3 9.2 244.3 11.5 244.3 11.5 C 244.1 11.4 243.9 11.4 243.6 11.4 C 242.3 11.4 240.8 12.5 240.2 13.7 C 240.23 13.73 240.2 24 240.2 24 L 238.1 24 Z M 246.1 27.8 C 246.4 27.9 246.8 28 247.1 28 C 247.9 28 248.4 27.7 248.8 26.5 C 248.78 26.54 249.6 24.3 249.6 24.3 L 244.7 9.5 L 247.1 9.5 L 250.7 21.4 L 254.3 9.5 L 256.6 9.5 C 256.6 9.5 250.82 27.08 250.8 27.1 C 250.1 29.2 248.9 29.9 247.2 29.9 C 246.8 29.9 246.1 29.8 245.8 29.7 C 245.8 29.7 246.1 27.8 246.1 27.8 Z M 266.8 21.9 C 266.75 21.92 266.8 29.5 266.8 29.5 L 264.6 29.5 L 264.6 9.5 L 266.8 9.5 C 266.8 9.5 266.75 11.6 266.8 11.6 C 267.6 10.1 269 9.2 270.6 9.2 C 273.8 9.2 275.8 12.2 275.8 16.8 C 275.8 21.3 273.8 24.4 270.6 24.4 C 269.1 24.4 267.7 23.5 266.8 21.9 Z M 273.5 16.8 C 273.5 13.6 272.4 11.1 270 11.1 C 268.7 11.1 267.3 12.2 266.8 13.4 C 266.8 13.4 266.8 20.1 266.8 20.1 C 267.3 21.3 268.7 22.5 270 22.5 C 272.4 22.5 273.5 19.9 273.5 16.8 Z M 286.1 24 C 286.1 24 286.1 22.46 286.1 22.5 C 285.2 23.8 283.8 24.4 282.3 24.4 C 279.9 24.4 277.9 22.6 277.9 19.6 C 277.9 16.5 279.9 14.8 282.3 14.8 C 283.8 14.8 285.2 15.4 286.1 16.6 C 286.1 16.6 286.1 14.1 286.1 14.1 C 286.1 12.1 285 11 283.1 11 C 281.8 11 280.6 11.5 279.5 12.8 C 279.5 12.8 278.5 11.3 278.5 11.3 C 279.9 9.8 281.6 9.2 283.5 9.2 C 286.3 9.2 288.3 10.6 288.3 13.9 C 288.26 13.88 288.3 24 288.3 24 L 286.1 24 Z M 286.1 21 C 286.1 21 286.1 18.2 286.1 18.2 C 285.4 17 284.2 16.4 283 16.4 C 281.2 16.4 280.1 17.8 280.1 19.6 C 280.1 21.4 281.2 22.8 283 22.8 C 284.2 22.8 285.4 22.2 286.1 21 Z M 300.2 24 C 300.2 24 300.17 21.95 300.2 22 C 299.3 23.4 297.9 24.4 296.4 24.4 C 293.1 24.4 291.2 21.4 291.2 16.8 C 291.2 12.3 293.1 9.2 296.4 9.2 C 297.8 9.2 299.3 10 300.2 11.6 C 300.17 11.63 300.2 4 300.2 4 L 302.3 4 L 302.3 24 L 300.2 24 Z M 300.2 20.1 C 300.2 20.1 300.2 13.5 300.2 13.5 C 299.6 12.2 298.3 11.1 296.9 11.1 C 294.5 11.1 293.4 13.6 293.4 16.8 C 293.4 19.9 294.5 22.5 296.9 22.5 C 298.3 22.5 299.6 21.4 300.2 20.1 Z M 306.8 27.8 C 306.8 27.8 305.7 26.9 305.7 26.9 C 306.7 26.3 307.5 25.1 307.6 24.1 C 307.6 24.1 307.4 24.2 307.2 24.2 C 306.4 24.2 305.8 23.5 305.8 22.7 C 305.8 21.8 306.5 21.1 307.4 21.1 C 308.4 21.1 309.2 21.9 309.2 23.4 C 309.2 25.2 308.1 26.8 306.8 27.8 Z M 326.1 24 C 326.1 24 326.12 22.46 326.1 22.5 C 325.2 23.8 323.8 24.4 322.3 24.4 C 320 24.4 317.9 22.6 317.9 19.6 C 317.9 16.5 319.9 14.8 322.3 14.8 C 323.8 14.8 325.2 15.4 326.1 16.6 C 326.1 16.6 326.1 14.1 326.1 14.1 C 326.1 12.1 325 11 323.1 11 C 321.8 11 320.6 11.5 319.5 12.8 C 319.5 12.8 318.6 11.3 318.6 11.3 C 319.9 9.8 321.6 9.2 323.5 9.2 C 326.4 9.2 328.3 10.6 328.3 13.9 C 328.28 13.88 328.3 24 328.3 24 L 326.1 24 Z M 326.1 21 C 326.1 21 326.1 18.2 326.1 18.2 C 325.5 17 324.3 16.4 323 16.4 C 321.2 16.4 320.1 17.8 320.1 19.6 C 320.1 21.4 321.2 22.8 323 22.8 C 324.3 22.8 325.5 22.2 326.1 21 Z M 343.5 22.5 C 345.8 22.5 346.9 19.9 346.9 16.8 C 346.9 13.6 345.8 11.1 343.5 11.1 C 342.1 11.1 340.8 12.2 340.2 13.5 C 340.2 13.5 340.2 20.1 340.2 20.1 C 340.8 21.4 342.1 22.5 343.5 22.5 Z M 338.1 24 L 338.1 4 L 340.2 4 C 340.2 4 340.19 11.63 340.2 11.6 C 341.1 10 342.5 9.2 344 9.2 C 347.3 9.2 349.2 12.3 349.2 16.8 C 349.2 21.4 347.3 24.4 344 24.4 C 342.5 24.4 341 23.4 340.2 22 C 340.19 21.95 340.2 24 340.2 24 L 338.1 24 Z M 351.7 6 C 351.7 5.2 352.4 4.5 353.2 4.5 C 354 4.5 354.7 5.2 354.7 6 C 354.7 6.8 354 7.4 353.2 7.4 C 352.4 7.4 351.7 6.8 351.7 6 Z M 352.2 24 L 352.2 9.5 L 354.3 9.5 L 354.3 24 L 352.2 24 Z M 358.4 21.1 C 358.37 21.11 358.4 11.4 358.4 11.4 L 356.4 11.4 L 356.4 9.5 L 358.4 9.5 L 358.4 5.6 L 360.5 5.6 L 360.5 9.5 L 363 9.5 L 363 11.4 L 360.5 11.4 C 360.5 11.4 360.53 20.72 360.5 20.7 C 360.5 21.8 360.9 22.5 361.7 22.5 C 362.2 22.5 362.7 22.2 363 21.9 C 363 21.9 363.6 23.5 363.6 23.5 C 363.1 24 362.4 24.4 361.3 24.4 C 359.3 24.4 358.4 23.3 358.4 21.1 Z M 371 16.8 C 371 12.7 373 9.2 376.8 9.2 C 380.7 9.2 382.8 12.7 382.8 16.8 C 382.8 20.8 380.7 24.4 376.8 24.4 C 373 24.4 371 20.8 371 16.8 Z M 380.5 16.8 C 380.5 13.9 379.4 11.1 376.8 11.1 C 374.4 11.1 373.2 13.9 373.2 16.8 C 373.2 19.7 374.4 22.5 376.8 22.5 C 379.4 22.5 380.5 19.7 380.5 16.8 Z M 386.2 24 L 386.2 11.4 L 384.3 11.4 L 384.3 9.5 L 386.2 9.5 C 386.2 9.5 386.21 7.76 386.2 7.8 C 386.2 5.2 387.6 3.7 389.8 3.7 C 390.8 3.7 391.7 4 392.4 4.7 C 392.4 4.7 391.6 6.2 391.6 6.2 C 391.2 5.8 390.7 5.5 390.2 5.5 C 389 5.5 388.4 6.4 388.4 7.8 C 388.37 7.76 388.4 9.5 388.4 9.5 L 390.8 9.5 L 390.8 11.4 L 388.4 11.4 L 388.4 24 L 386.2 24 Z M 409.8 24 L 406.8 12.4 L 403.6 24 L 401.4 24 L 397.6 9.5 L 399.8 9.5 L 402.6 21.1 L 405.7 9.5 L 407.7 9.5 L 410.8 21.1 L 413.7 9.5 L 415.9 9.5 L 412.1 24 L 409.8 24 Z M 425.4 24 C 425.4 24 425.45 22.46 425.4 22.5 C 424.5 23.8 423.1 24.4 421.6 24.4 C 419.3 24.4 417.3 22.6 417.3 19.6 C 417.3 16.5 419.3 14.8 421.6 14.8 C 423.1 14.8 424.5 15.4 425.4 16.6 C 425.4 16.6 425.4 14.1 425.4 14.1 C 425.4 12.1 424.4 11 422.5 11 C 421.1 11 420 11.5 418.8 12.8 C 418.8 12.8 417.9 11.3 417.9 11.3 C 419.3 9.8 421 9.2 422.8 9.2 C 425.7 9.2 427.6 10.6 427.6 13.9 C 427.61 13.88 427.6 24 427.6 24 L 425.4 24 Z M 425.4 21 C 425.4 21 425.4 18.2 425.4 18.2 C 424.8 17 423.6 16.4 422.3 16.4 C 420.5 16.4 419.4 17.8 419.4 19.6 C 419.4 21.4 420.5 22.8 422.3 22.8 C 423.6 22.8 424.8 22.2 425.4 21 Z M 431.7 21.1 C 431.66 21.11 431.7 11.4 431.7 11.4 L 429.7 11.4 L 429.7 9.5 L 431.7 9.5 L 431.7 5.6 L 433.8 5.6 L 433.8 9.5 L 436.3 9.5 L 436.3 11.4 L 433.8 11.4 C 433.8 11.4 433.82 20.72 433.8 20.7 C 433.8 21.8 434.1 22.5 435 22.5 C 435.5 22.5 436 22.2 436.2 21.9 C 436.2 21.9 436.9 23.5 436.9 23.5 C 436.4 24 435.7 24.4 434.6 24.4 C 432.6 24.4 431.7 23.3 431.7 21.1 Z M 438.1 16.8 C 438.1 12.6 440.3 9.2 444 9.2 C 447.8 9.2 449.7 12.6 449.7 16.8 C 449.72 16.82 449.7 17.5 449.7 17.5 C 449.7 17.5 440.33 17.48 440.3 17.5 C 440.4 20.4 441.9 22.6 444.5 22.6 C 445.8 22.6 447 22 447.9 20.8 C 447.9 20.8 449.1 22.1 449.1 22.1 C 447.9 23.5 446.3 24.4 444.3 24.4 C 440.4 24.4 438.1 21.2 438.1 16.8 Z M 444 11 C 441.4 11 440.4 13.8 440.3 15.9 C 440.3 15.9 447.6 15.9 447.6 15.9 C 447.6 13.7 446.6 11 444 11 Z M 452.6 24 L 452.6 9.5 L 454.7 9.5 C 454.7 9.5 454.7 11.84 454.7 11.8 C 455.6 10.3 457 9.2 458.8 9.2 C 458.8 9.2 458.8 11.5 458.8 11.5 C 458.6 11.4 458.3 11.4 458.1 11.4 C 456.8 11.4 455.3 12.5 454.7 13.7 C 454.7 13.73 454.7 24 454.7 24 L 452.6 24 Z M 459.6 27.8 C 459.6 27.8 458.5 26.9 458.5 26.9 C 459.5 26.3 460.3 25.1 460.5 24.1 C 460.4 24.1 460.2 24.2 460.1 24.2 C 459.3 24.2 458.7 23.5 458.7 22.7 C 458.7 21.8 459.3 21.1 460.2 21.1 C 461.2 21.1 462 21.9 462 23.4 C 462 25.2 461 26.8 459.6 27.8 Z M 476.9 22.5 C 479.3 22.5 480.4 19.9 480.4 16.8 C 480.4 13.6 479.3 11.1 476.9 11.1 C 475.5 11.1 474.2 12.2 473.6 13.5 C 473.6 13.5 473.6 20.1 473.6 20.1 C 474.2 21.4 475.5 22.5 476.9 22.5 Z M 471.5 24 L 471.5 4 L 473.6 4 C 473.6 4 473.63 11.63 473.6 11.6 C 474.5 10 476 9.2 477.4 9.2 C 480.7 9.2 482.6 12.3 482.6 16.8 C 482.6 21.4 480.7 24.4 477.4 24.4 C 475.9 24.4 474.5 23.4 473.6 22 C 473.63 21.95 473.6 24 473.6 24 L 471.5 24 Z M 485.2 6 C 485.2 5.2 485.9 4.5 486.6 4.5 C 487.5 4.5 488.1 5.2 488.1 6 C 488.1 6.8 487.5 7.4 486.6 7.4 C 485.9 7.4 485.2 6.8 485.2 6 Z M 485.6 24 L 485.6 9.5 L 487.7 9.5 L 487.7 24 L 485.6 24 Z M 491.8 21.1 C 491.8 21.11 491.8 11.4 491.8 11.4 L 489.9 11.4 L 489.9 9.5 L 491.8 9.5 L 491.8 5.6 L 494 5.6 L 494 9.5 L 496.4 9.5 L 496.4 11.4 L 494 11.4 C 494 11.4 493.96 20.72 494 20.7 C 494 21.8 494.3 22.5 495.1 22.5 C 495.7 22.5 496.1 22.2 496.4 21.9 C 496.4 21.9 497.1 23.5 497.1 23.5 C 496.5 24 495.8 24.4 494.7 24.4 C 492.7 24.4 491.8 23.3 491.8 21.1 Z M 497.8 22.3 C 497.8 22.3 498.9 20.8 498.9 20.8 C 499.7 21.8 501.1 22.6 502.7 22.6 C 504.3 22.6 505.5 21.7 505.5 20.3 C 505.5 16.9 498.2 18.1 498.2 13.1 C 498.2 10.9 500 9.2 502.8 9.2 C 504.8 9.2 506.2 9.9 507.3 11 C 507.3 11 506.2 12.5 506.2 12.5 C 505.5 11.5 504.3 10.9 502.9 10.9 C 501.3 10.9 500.3 11.8 500.3 13 C 500.3 16.1 507.5 15 507.5 20.2 C 507.5 22.6 505.7 24.4 502.7 24.4 C 500.7 24.4 499 23.7 497.8 22.3 Z M 515.7 16.8 C 515.7 12.7 517.8 9.2 521.6 9.2 C 525.5 9.2 527.5 12.7 527.5 16.8 C 527.5 20.8 525.5 24.4 521.6 24.4 C 517.8 24.4 515.7 20.8 515.7 16.8 Z M 525.3 16.8 C 525.3 13.9 524.1 11.1 521.6 11.1 C 519.1 11.1 518 13.9 518 16.8 C 518 19.7 519.1 22.5 521.6 22.5 C 524.1 22.5 525.3 19.7 525.3 16.8 Z M 531 24 L 531 11.4 L 529 11.4 L 529 9.5 L 531 9.5 C 531 9.5 530.95 7.76 531 7.8 C 531 5.2 532.3 3.7 534.6 3.7 C 535.5 3.7 536.4 4 537.2 4.7 C 537.2 4.7 536.3 6.2 536.3 6.2 C 535.9 5.8 535.5 5.5 534.9 5.5 C 533.7 5.5 533.1 6.4 533.1 7.8 C 533.11 7.76 533.1 9.5 533.1 9.5 L 535.6 9.5 L 535.6 11.4 L 533.1 11.4 L 533.1 24 L 531 24 Z M 543.9 24 L 543.9 9.5 L 546 9.5 C 546 9.5 546.04 11.84 546 11.8 C 547 10.3 548.4 9.2 550.2 9.2 C 550.2 9.2 550.2 11.5 550.2 11.5 C 549.9 11.4 549.7 11.4 549.4 11.4 C 548.1 11.4 546.6 12.5 546 13.7 C 546.04 13.73 546 24 546 24 L 543.9 24 Z M 551.6 16.8 C 551.6 12.6 553.8 9.2 557.5 9.2 C 561.3 9.2 563.2 12.6 563.2 16.8 C 563.23 16.82 563.2 17.5 563.2 17.5 C 563.2 17.5 553.84 17.48 553.8 17.5 C 553.9 20.4 555.4 22.6 558 22.6 C 559.3 22.6 560.6 22 561.5 20.8 C 561.5 20.8 562.6 22.1 562.6 22.1 C 561.4 23.5 559.8 24.4 557.8 24.4 C 554 24.4 551.6 21.2 551.6 16.8 Z M 557.5 11 C 554.9 11 553.9 13.8 553.8 15.9 C 553.8 15.9 561.1 15.9 561.1 15.9 C 561.1 13.7 560.1 11 557.5 11 Z M 574.4 24 C 574.4 24 574.36 21.95 574.4 22 C 573.5 23.4 572.1 24.4 570.6 24.4 C 567.3 24.4 565.4 21.4 565.4 16.8 C 565.4 12.3 567.3 9.2 570.6 9.2 C 572 9.2 573.5 10 574.4 11.6 C 574.36 11.63 574.4 4 574.4 4 L 576.5 4 L 576.5 24 L 574.4 24 Z M 574.4 20.1 C 574.4 20.1 574.4 13.5 574.4 13.5 C 573.8 12.2 572.5 11.1 571.1 11.1 C 568.7 11.1 567.6 13.6 567.6 16.8 C 567.6 19.9 568.7 22.5 571.1 22.5 C 572.5 22.5 573.8 21.4 574.4 20.1 Z " stroke="none" fill="#efd8d3"/>  </g></svg>