<?xml version="1.0" standalone="no"?><!DOCTYPE svg PUBLIC "-//W3C//DTD SVG 1.1//EN" "http://www.w3.org/Graphics/SVG/1.1/DTD/svg11.dtd"><svg xmlns="http://www.w3.org/2000/svg" version="1.1" width="494px" height="475.3px" viewBox="0 0 494 475.3">  <desc>Acrylic paint, Crimson Red Artificial dye, Blue 1 Artificial dye, Blue 2 Artificial dye, Red 3 Artificial dye, Red 40</desc>  <defs/>  <g id="Polygon222925">    <path d="M 2.1 456.4 L 2.1 436.4 C 2.1 436.4 8.19 436.37 8.2 436.4 C 11.8 436.4 13.7 439.1 13.7 442.4 C 13.7 445.6 11.8 448.4 8.2 448.4 C 8.19 448.37 4.5 448.4 4.5 448.4 L 4.5 456.4 L 2.1 456.4 Z M 11.3 442.4 C 11.3 440.1 10 438.5 7.9 438.5 C 7.95 438.47 4.5 438.5 4.5 438.5 L 4.5 446.3 C 4.5 446.3 7.95 446.27 7.9 446.3 C 10 446.3 11.3 444.6 11.3 442.4 Z M 15.1 449.1 C 15.1 445 17.1 441.5 20.9 441.5 C 24.8 441.5 26.9 445 26.9 449.1 C 26.9 453.2 24.8 456.7 20.9 456.7 C 17.1 456.7 15.1 453.2 15.1 449.1 Z M 24.6 449.1 C 24.6 446.2 23.5 443.4 20.9 443.4 C 18.5 443.4 17.3 446.2 17.3 449.1 C 17.3 452.1 18.5 454.8 20.9 454.8 C 23.5 454.8 24.6 452.1 24.6 449.1 Z M 29.8 456.4 L 29.8 436.4 L 31.9 436.4 L 31.9 456.4 L 29.8 456.4 Z M 35.2 460.1 C 35.4 460.3 35.9 460.3 36.1 460.3 C 37 460.3 37.4 460 37.8 458.9 C 37.83 458.9 38.6 456.7 38.6 456.7 L 33.8 441.9 L 36.1 441.9 L 39.7 453.8 L 43.3 441.9 L 45.7 441.9 C 45.7 441.9 39.87 459.44 39.9 459.4 C 39.1 461.5 38 462.3 36.3 462.3 C 35.8 462.3 35.2 462.2 34.8 462 C 34.8 462 35.2 460.1 35.2 460.1 Z M 50.5 456.4 L 45.7 441.9 L 48.1 441.9 L 51.7 453.8 L 55.3 441.9 L 57.6 441.9 L 52.8 456.4 L 50.5 456.4 Z M 59 438.3 C 59 437.5 59.7 436.8 60.5 436.8 C 61.3 436.8 62 437.5 62 438.3 C 62 439.1 61.3 439.8 60.5 439.8 C 59.7 439.8 59 439.1 59 438.3 Z M 59.5 456.4 L 59.5 441.9 L 61.6 441.9 L 61.6 456.4 L 59.5 456.4 Z M 73.1 456.4 C 73.1 456.4 73.08 446.06 73.1 446.1 C 73.1 444.1 72.2 443.4 70.8 443.4 C 69.4 443.4 68 444.6 67.4 445.8 C 67.38 445.76 67.4 456.4 67.4 456.4 L 65.2 456.4 L 65.2 441.9 L 67.4 441.9 C 67.4 441.9 67.38 443.96 67.4 444 C 68.2 442.7 69.8 441.5 71.6 441.5 C 74 441.5 75.2 442.8 75.2 445.5 C 75.24 445.46 75.2 456.4 75.2 456.4 L 73.1 456.4 Z M 78.5 460.1 C 78.7 460.3 79.2 460.3 79.4 460.3 C 80.3 460.3 80.8 460 81.1 458.9 C 81.15 458.9 81.9 456.7 81.9 456.7 L 77.1 441.9 L 79.4 441.9 L 83 453.8 L 86.7 441.9 L 89 441.9 C 89 441.9 83.19 459.44 83.2 459.4 C 82.5 461.5 81.3 462.3 79.6 462.3 C 79.1 462.3 78.5 462.2 78.1 462 C 78.1 462 78.5 460.1 78.5 460.1 Z M 90.8 456.4 L 90.8 436.4 L 93 436.4 L 93 456.4 L 90.8 456.4 Z M 110.2 456.4 C 110.2 456.4 110.22 454.82 110.2 454.8 C 109.3 456.1 107.9 456.7 106.4 456.7 C 104.1 456.7 102 454.9 102 451.9 C 102 448.9 104 447.1 106.4 447.1 C 107.9 447.1 109.3 447.7 110.2 449 C 110.2 449 110.2 446.5 110.2 446.5 C 110.2 444.5 109.1 443.4 107.2 443.4 C 105.9 443.4 104.7 443.9 103.6 445.2 C 103.6 445.2 102.7 443.6 102.7 443.6 C 104 442.2 105.7 441.5 107.6 441.5 C 110.5 441.5 112.4 442.9 112.4 446.2 C 112.38 446.24 112.4 456.4 112.4 456.4 L 110.2 456.4 Z M 110.2 453.3 C 110.2 453.3 110.2 450.6 110.2 450.6 C 109.6 449.4 108.4 448.7 107.1 448.7 C 105.3 448.7 104.2 450.1 104.2 451.9 C 104.2 453.7 105.3 455.2 107.1 455.2 C 108.4 455.2 109.6 454.5 110.2 453.3 Z M 115.3 449.1 C 115.3 444.8 117.6 441.5 121.3 441.5 C 123.3 441.5 124.5 442.3 125.4 443.4 C 125.4 443.4 124.3 444.9 124.3 444.9 C 123.5 443.9 122.6 443.4 121.5 443.4 C 118.9 443.4 117.5 446 117.5 449.1 C 117.5 452.2 118.9 454.8 121.5 454.8 C 122.6 454.8 123.5 454.4 124.3 453.3 C 124.3 453.3 125.4 454.8 125.4 454.8 C 124.5 456 123.3 456.7 121.3 456.7 C 117.6 456.7 115.3 453.4 115.3 449.1 Z M 127.2 449.1 C 127.2 444.9 129.4 441.5 133 441.5 C 136.9 441.5 138.8 444.9 138.8 449.2 C 138.78 449.18 138.8 449.8 138.8 449.8 C 138.8 449.8 129.39 449.84 129.4 449.8 C 129.5 452.7 131 454.9 133.6 454.9 C 134.8 454.9 136.1 454.3 137 453.2 C 137 453.2 138.1 454.4 138.1 454.4 C 137 455.9 135.3 456.7 133.4 456.7 C 129.5 456.7 127.2 453.6 127.2 449.1 Z M 133 443.3 C 130.5 443.3 129.4 446.1 129.4 448.2 C 129.4 448.2 136.6 448.2 136.6 448.2 C 136.6 446 135.7 443.3 133 443.3 Z M 142 453.5 C 142.05 453.47 142 443.8 142 443.8 L 140.1 443.8 L 140.1 441.9 L 142 441.9 L 142 437.9 L 144.2 437.9 L 144.2 441.9 L 146.7 441.9 L 146.7 443.8 L 144.2 443.8 C 144.2 443.8 144.21 453.08 144.2 453.1 C 144.2 454.2 144.5 454.8 145.4 454.8 C 145.9 454.8 146.4 454.6 146.6 454.2 C 146.6 454.2 147.3 455.9 147.3 455.9 C 146.8 456.4 146.1 456.7 145 456.7 C 143 456.7 142 455.6 142 453.5 Z M 156.7 456.4 C 156.7 456.4 156.66 454.82 156.7 454.8 C 155.7 456.1 154.3 456.7 152.8 456.7 C 150.5 456.7 148.5 454.9 148.5 451.9 C 148.5 448.9 150.5 447.1 152.8 447.1 C 154.3 447.1 155.8 447.7 156.7 449 C 156.7 449 156.7 446.5 156.7 446.5 C 156.7 444.5 155.6 443.4 153.7 443.4 C 152.3 443.4 151.2 443.9 150.1 445.2 C 150.1 445.2 149.1 443.6 149.1 443.6 C 150.5 442.2 152.2 441.5 154 441.5 C 156.9 441.5 158.8 442.9 158.8 446.2 C 158.82 446.24 158.8 456.4 158.8 456.4 L 156.7 456.4 Z M 156.7 453.3 C 156.7 453.3 156.7 450.6 156.7 450.6 C 156 449.4 154.8 448.7 153.5 448.7 C 151.7 448.7 150.7 450.1 150.7 451.9 C 150.7 453.7 151.7 455.2 153.5 455.2 C 154.8 455.2 156 454.5 156.7 453.3 Z M 162.9 453.5 C 162.87 453.47 162.9 443.8 162.9 443.8 L 160.9 443.8 L 160.9 441.9 L 162.9 441.9 L 162.9 437.9 L 165 437.9 L 165 441.9 L 167.5 441.9 L 167.5 443.8 L 165 443.8 C 165 443.8 165.03 453.08 165 453.1 C 165 454.2 165.4 454.8 166.2 454.8 C 166.7 454.8 167.2 454.6 167.5 454.2 C 167.5 454.2 168.1 455.9 168.1 455.9 C 167.6 456.4 166.9 456.7 165.8 456.7 C 163.8 456.7 162.9 455.6 162.9 453.5 Z M 169.3 449.1 C 169.3 444.9 171.5 441.5 175.2 441.5 C 179 441.5 180.9 444.9 180.9 449.2 C 180.93 449.18 180.9 449.8 180.9 449.8 C 180.9 449.8 171.54 449.84 171.5 449.8 C 171.6 452.7 173.1 454.9 175.7 454.9 C 177 454.9 178.3 454.3 179.2 453.2 C 179.2 453.2 180.3 454.4 180.3 454.4 C 179.1 455.9 177.5 456.7 175.5 456.7 C 171.7 456.7 169.3 453.6 169.3 449.1 Z M 175.2 443.3 C 172.6 443.3 171.6 446.1 171.5 448.2 C 171.5 448.2 178.8 448.2 178.8 448.2 C 178.8 446 177.8 443.3 175.2 443.3 Z M 184.5 460.2 C 184.5 460.2 183.4 459.3 183.4 459.3 C 184.3 458.6 185.2 457.5 185.3 456.5 C 185.2 456.5 185 456.5 184.9 456.5 C 184.1 456.5 183.5 455.9 183.5 455.1 C 183.5 454.2 184.2 453.5 185.1 453.5 C 186 453.5 186.9 454.3 186.9 455.7 C 186.9 457.5 185.8 459.2 184.5 460.2 Z M 208.3 456.4 L 205.1 440.6 L 201.8 456.4 L 199.3 456.4 L 194.8 436.4 L 197.4 436.4 L 200.7 452.7 L 204.1 436.4 L 206.1 436.4 L 209.5 452.7 L 212.8 436.4 L 215.3 436.4 L 210.9 456.4 L 208.3 456.4 Z M 225.4 456.4 C 225.4 456.4 225.35 446.03 225.4 446 C 225.4 444.1 224.5 443.4 223 443.4 C 221.6 443.4 220.3 444.6 219.6 445.8 C 219.62 445.76 219.6 456.4 219.6 456.4 L 217.5 456.4 L 217.5 436.4 L 219.6 436.4 C 219.6 436.4 219.62 443.96 219.6 444 C 220.5 442.7 222.1 441.5 223.9 441.5 C 226.3 441.5 227.5 442.8 227.5 445.4 C 227.48 445.4 227.5 456.4 227.5 456.4 L 225.4 456.4 Z M 230.7 438.3 C 230.7 437.5 231.4 436.8 232.2 436.8 C 233 436.8 233.7 437.5 233.7 438.3 C 233.7 439.1 233 439.8 232.2 439.8 C 231.4 439.8 230.7 439.1 230.7 438.3 Z M 231.1 456.4 L 231.1 441.9 L 233.3 441.9 L 233.3 456.4 L 231.1 456.4 Z M 237.4 453.5 C 237.35 453.47 237.4 443.8 237.4 443.8 L 235.4 443.8 L 235.4 441.9 L 237.4 441.9 L 237.4 437.9 L 239.5 437.9 L 239.5 441.9 L 242 441.9 L 242 443.8 L 239.5 443.8 C 239.5 443.8 239.51 453.08 239.5 453.1 C 239.5 454.2 239.8 454.8 240.7 454.8 C 241.2 454.8 241.7 454.6 241.9 454.2 C 241.9 454.2 242.6 455.9 242.6 455.9 C 242.1 456.4 241.4 456.7 240.3 456.7 C 238.3 456.7 237.4 455.6 237.4 453.5 Z M 243.8 449.1 C 243.8 444.9 246 441.5 249.7 441.5 C 253.5 441.5 255.4 444.9 255.4 449.2 C 255.41 449.18 255.4 449.8 255.4 449.8 C 255.4 449.8 246.02 449.84 246 449.8 C 246.1 452.7 247.6 454.9 250.2 454.9 C 251.5 454.9 252.7 454.3 253.6 453.2 C 253.6 453.2 254.8 454.4 254.8 454.4 C 253.6 455.9 252 456.7 250 456.7 C 246.1 456.7 243.8 453.6 243.8 449.1 Z M 249.7 443.3 C 247.1 443.3 246.1 446.1 246 448.2 C 246 448.2 253.3 448.2 253.3 448.2 C 253.3 446 252.3 443.3 249.7 443.3 Z M 264.3 460.4 C 264.3 460.4 265.3 458.7 265.3 458.7 C 266.2 459.9 267.5 460.4 269.1 460.4 C 271 460.4 272.7 459.3 272.7 456.5 C 272.7 456.5 272.7 454.1 272.7 454.1 C 271.9 455.5 270.4 456.6 268.9 456.6 C 265.6 456.6 263.7 453.6 263.7 449.1 C 263.7 444.6 265.6 441.5 268.9 441.5 C 270.4 441.5 271.8 442.4 272.7 444 C 272.69 443.99 272.7 441.9 272.7 441.9 L 274.9 441.9 C 274.9 441.9 274.85 456.35 274.9 456.3 C 274.9 460.8 272.2 462.3 269.1 462.3 C 267.2 462.3 265.7 461.8 264.3 460.4 Z M 272.7 452.2 C 272.7 452.2 272.7 445.8 272.7 445.8 C 272.2 444.6 270.8 443.4 269.4 443.4 C 267.1 443.4 265.9 445.9 265.9 449.1 C 265.9 452.2 267.1 454.6 269.4 454.6 C 270.8 454.6 272.2 453.5 272.7 452.2 Z M 278.5 456.4 L 278.5 436.4 L 280.6 436.4 L 280.6 456.4 L 278.5 456.4 Z M 292.1 456.4 C 292.1 456.4 292.1 454.37 292.1 454.4 C 291.2 455.6 289.7 456.7 287.9 456.7 C 285.4 456.7 284.3 455.5 284.3 452.9 C 284.27 452.87 284.3 441.9 284.3 441.9 L 286.4 441.9 C 286.4 441.9 286.4 452.24 286.4 452.2 C 286.4 454.2 287.3 454.8 288.7 454.8 C 290.2 454.8 291.5 453.8 292.1 452.6 C 292.1 452.57 292.1 441.9 292.1 441.9 L 294.3 441.9 L 294.3 456.4 L 292.1 456.4 Z M 297.2 449.1 C 297.2 444.9 299.4 441.5 303.1 441.5 C 306.9 441.5 308.8 444.9 308.8 449.2 C 308.81 449.18 308.8 449.8 308.8 449.8 C 308.8 449.8 299.42 449.84 299.4 449.8 C 299.5 452.7 301 454.9 303.6 454.9 C 304.9 454.9 306.1 454.3 307 453.2 C 307 453.2 308.2 454.4 308.2 454.4 C 307 455.9 305.4 456.7 303.4 456.7 C 299.5 456.7 297.2 453.6 297.2 449.1 Z M 303.1 443.3 C 300.5 443.3 299.5 446.1 299.4 448.2 C 299.4 448.2 306.7 448.2 306.7 448.2 C 306.7 446 305.7 443.3 303.1 443.3 Z " stroke="none" fill="#d3d2d2"/>  </g>  <g id="Polygon222924">    <path d="M 2.1 420.4 L 2.1 400.4 C 2.1 400.4 8.19 400.37 8.2 400.4 C 11.8 400.4 13.7 403.1 13.7 406.4 C 13.7 409.6 11.8 412.4 8.2 412.4 C 8.19 412.37 4.5 412.4 4.5 412.4 L 4.5 420.4 L 2.1 420.4 Z M 11.3 406.4 C 11.3 404.1 10 402.5 7.9 402.5 C 7.95 402.47 4.5 402.5 4.5 402.5 L 4.5 410.3 C 4.5 410.3 7.95 410.27 7.9 410.3 C 10 410.3 11.3 408.6 11.3 406.4 Z M 15.1 413.1 C 15.1 409 17.1 405.5 20.9 405.5 C 24.8 405.5 26.9 409 26.9 413.1 C 26.9 417.2 24.8 420.7 20.9 420.7 C 17.1 420.7 15.1 417.2 15.1 413.1 Z M 24.6 413.1 C 24.6 410.2 23.5 407.4 20.9 407.4 C 18.5 407.4 17.3 410.2 17.3 413.1 C 17.3 416.1 18.5 418.8 20.9 418.8 C 23.5 418.8 24.6 416.1 24.6 413.1 Z M 29.8 420.4 L 29.8 400.4 L 31.9 400.4 L 31.9 420.4 L 29.8 420.4 Z M 35.2 424.1 C 35.4 424.3 35.9 424.3 36.1 424.3 C 37 424.3 37.4 424 37.8 422.9 C 37.83 422.9 38.6 420.7 38.6 420.7 L 33.8 405.9 L 36.1 405.9 L 39.7 417.8 L 43.3 405.9 L 45.7 405.9 C 45.7 405.9 39.87 423.44 39.9 423.4 C 39.1 425.5 38 426.3 36.3 426.3 C 35.8 426.3 35.2 426.2 34.8 426 C 34.8 426 35.2 424.1 35.2 424.1 Z M 46.8 413.1 C 46.8 408.9 49 405.5 52.7 405.5 C 56.5 405.5 58.4 408.9 58.4 413.2 C 58.41 413.18 58.4 413.8 58.4 413.8 C 58.4 413.8 49.02 413.84 49 413.8 C 49.1 416.7 50.6 418.9 53.2 418.9 C 54.4 418.9 55.7 418.3 56.6 417.2 C 56.6 417.2 57.8 418.4 57.8 418.4 C 56.6 419.9 55 420.7 53 420.7 C 49.1 420.7 46.8 417.6 46.8 413.1 Z M 52.6 407.3 C 50.1 407.3 49.1 410.1 49 412.2 C 49 412.2 56.3 412.2 56.3 412.2 C 56.2 410 55.3 407.3 52.6 407.3 Z M 60.1 418.7 C 60.1 418.7 61.2 417.2 61.2 417.2 C 62 418.2 63.4 419 64.9 419 C 66.6 419 67.7 418 67.7 416.7 C 67.7 413.3 60.5 414.4 60.5 409.4 C 60.5 407.3 62.2 405.5 65.1 405.5 C 67 405.5 68.5 406.3 69.5 407.4 C 69.5 407.4 68.5 408.9 68.5 408.9 C 67.8 407.9 66.6 407.3 65.2 407.3 C 63.6 407.3 62.6 408.2 62.6 409.4 C 62.6 412.5 69.8 411.4 69.8 416.6 C 69.8 419 67.9 420.7 65 420.7 C 62.9 420.7 61.3 420.1 60.1 418.7 Z M 73 417.5 C 72.99 417.47 73 407.8 73 407.8 L 71.1 407.8 L 71.1 405.9 L 73 405.9 L 73 401.9 L 75.1 401.9 L 75.1 405.9 L 77.6 405.9 L 77.6 407.8 L 75.1 407.8 C 75.1 407.8 75.15 417.08 75.1 417.1 C 75.1 418.2 75.5 418.8 76.3 418.8 C 76.9 418.8 77.3 418.6 77.6 418.2 C 77.6 418.2 78.2 419.9 78.2 419.9 C 77.7 420.4 77 420.7 75.9 420.7 C 73.9 420.7 73 419.6 73 417.5 Z M 79.4 413.1 C 79.4 408.9 81.7 405.5 85.3 405.5 C 89.1 405.5 91 408.9 91 413.2 C 91.05 413.18 91 413.8 91 413.8 C 91 413.8 81.66 413.84 81.7 413.8 C 81.7 416.7 83.2 418.9 85.8 418.9 C 87.1 418.9 88.4 418.3 89.3 417.2 C 89.3 417.2 90.4 418.4 90.4 418.4 C 89.2 419.9 87.6 420.7 85.6 420.7 C 81.8 420.7 79.4 417.6 79.4 413.1 Z M 85.3 407.3 C 82.7 407.3 81.7 410.1 81.7 412.2 C 81.7 412.2 88.9 412.2 88.9 412.2 C 88.9 410 87.9 407.3 85.3 407.3 Z M 93.9 420.4 L 93.9 405.9 L 96 405.9 C 96 405.9 96.03 408.2 96 408.2 C 97 406.7 98.4 405.6 100.1 405.6 C 100.1 405.6 100.1 407.8 100.1 407.8 C 99.9 407.7 99.7 407.7 99.4 407.7 C 98.1 407.7 96.6 408.9 96 410.1 C 96.03 410.09 96 420.4 96 420.4 L 93.9 420.4 Z M 109 420.4 L 109 407.8 L 107.1 407.8 L 107.1 405.9 L 109 405.9 C 109 405.9 108.99 404.12 109 404.1 C 109 401.6 110.4 400.1 112.5 400.1 C 113.3 400.1 113.9 400.2 114.4 400.5 C 114.4 400.5 113.8 402.2 113.8 402.2 C 113.6 402 113.3 401.9 112.9 401.9 C 111.8 401.9 111.1 402.7 111.1 404.1 C 111.15 404.12 111.1 405.9 111.1 405.9 L 113.6 405.9 L 113.6 407.8 L 111.1 407.8 L 111.1 420.4 L 109 420.4 Z M 115.7 402.3 C 115.7 401.5 116.4 400.8 117.1 400.8 C 118 400.8 118.6 401.5 118.6 402.3 C 118.6 403.1 118 403.8 117.1 403.8 C 116.4 403.8 115.7 403.1 115.7 402.3 Z M 116.1 420.4 L 116.1 405.9 L 118.2 405.9 L 118.2 420.4 L 116.1 420.4 Z M 127.3 418.8 C 129.7 418.8 130.8 416.3 130.8 413.1 C 130.8 410 129.7 407.4 127.3 407.4 C 125.9 407.4 124.6 408.6 124 409.8 C 124 409.8 124 416.5 124 416.5 C 124.6 417.7 125.9 418.8 127.3 418.8 Z M 121.9 420.4 L 121.9 400.4 L 124 400.4 C 124 400.4 124.02 407.99 124 408 C 124.9 406.4 126.4 405.5 127.8 405.5 C 131.1 405.5 133 408.6 133 413.1 C 133 417.7 131.1 420.7 127.8 420.7 C 126.3 420.7 124.9 419.8 124 418.3 C 124.02 418.31 124 420.4 124 420.4 L 121.9 420.4 Z M 136 420.4 L 136 405.9 L 138.1 405.9 C 138.1 405.9 138.12 408.2 138.1 408.2 C 139 406.7 140.5 405.6 142.2 405.6 C 142.2 405.6 142.2 407.8 142.2 407.8 C 142 407.7 141.7 407.7 141.5 407.7 C 140.2 407.7 138.7 408.9 138.1 410.1 C 138.12 410.09 138.1 420.4 138.1 420.4 L 136 420.4 Z M 143.7 413.1 C 143.7 408.9 145.9 405.5 149.6 405.5 C 153.4 405.5 155.3 408.9 155.3 413.2 C 155.31 413.18 155.3 413.8 155.3 413.8 C 155.3 413.8 145.92 413.84 145.9 413.8 C 146 416.7 147.5 418.9 150.1 418.9 C 151.3 418.9 152.6 418.3 153.5 417.2 C 153.5 417.2 154.7 418.4 154.7 418.4 C 153.5 419.9 151.9 420.7 149.9 420.7 C 146 420.7 143.7 417.6 143.7 413.1 Z M 149.5 407.3 C 147 407.3 146 410.1 145.9 412.2 C 145.9 412.2 153.2 412.2 153.2 412.2 C 153.1 410 152.2 407.3 149.5 407.3 Z M 163.1 418.7 C 163.1 418.7 164.2 417.2 164.2 417.2 C 165.1 418.2 166.4 419 168 419 C 169.7 419 170.8 418 170.8 416.7 C 170.8 413.3 163.6 414.4 163.6 409.4 C 163.6 407.3 165.3 405.5 168.2 405.5 C 170.1 405.5 171.6 406.3 172.6 407.4 C 172.6 407.4 171.6 408.9 171.6 408.9 C 170.8 407.9 169.6 407.3 168.2 407.3 C 166.6 407.3 165.6 408.2 165.6 409.4 C 165.6 412.5 172.9 411.4 172.9 416.6 C 172.9 419 171 420.7 168 420.7 C 166 420.7 164.3 420.1 163.1 418.7 Z M 176 417.5 C 176.04 417.47 176 407.8 176 407.8 L 174.1 407.8 L 174.1 405.9 L 176 405.9 L 176 401.9 L 178.2 401.9 L 178.2 405.9 L 180.7 405.9 L 180.7 407.8 L 178.2 407.8 C 178.2 407.8 178.2 417.08 178.2 417.1 C 178.2 418.2 178.5 418.8 179.4 418.8 C 179.9 418.8 180.4 418.6 180.6 418.2 C 180.6 418.2 181.3 419.9 181.3 419.9 C 180.8 420.4 180.1 420.7 178.9 420.7 C 177 420.7 176 419.6 176 417.5 Z M 191 420.4 C 191 420.4 191.03 418.37 191 418.4 C 190.2 419.6 188.6 420.7 186.8 420.7 C 184.4 420.7 183.2 419.5 183.2 416.9 C 183.2 416.87 183.2 405.9 183.2 405.9 L 185.3 405.9 C 185.3 405.9 185.33 416.24 185.3 416.2 C 185.3 418.2 186.2 418.8 187.6 418.8 C 189.1 418.8 190.4 417.8 191 416.6 C 191.03 416.57 191 405.9 191 405.9 L 193.2 405.9 L 193.2 420.4 L 191 420.4 Z M 205 420.4 L 205 407.8 L 203.1 407.8 L 203.1 405.9 L 205 405.9 C 205 405.9 204.98 404.12 205 404.1 C 205 401.6 206.4 400.1 208.5 400.1 C 209.3 400.1 209.9 400.2 210.4 400.5 C 210.4 400.5 209.8 402.2 209.8 402.2 C 209.6 402 209.3 401.9 208.9 401.9 C 207.8 401.9 207.1 402.7 207.1 404.1 C 207.14 404.12 207.1 405.9 207.1 405.9 L 209.6 405.9 L 209.6 407.8 L 207.1 407.8 L 207.1 420.4 L 205 420.4 Z M 211.6 402.3 C 211.6 401.5 212.3 400.8 213.1 400.8 C 213.9 400.8 214.6 401.5 214.6 402.3 C 214.6 403.1 213.9 403.8 213.1 403.8 C 212.3 403.8 211.6 403.1 211.6 402.3 Z M 212.1 420.4 L 212.1 405.9 L 214.2 405.9 L 214.2 420.4 L 212.1 420.4 Z M 197.4 420.4 L 197.4 407.8 L 195.4 407.8 L 195.4 405.9 L 197.4 405.9 C 197.4 405.9 197.36 404.12 197.4 404.1 C 197.4 401.6 198.7 400.1 201 400.1 C 202 400.1 202.9 400.3 203.6 401 C 203.6 401 202.7 402.6 202.7 402.6 C 202.3 402.1 201.9 401.9 201.3 401.9 C 200.1 401.9 199.5 402.7 199.5 404.1 C 199.52 404.12 199.5 405.9 199.5 405.9 L 202 405.9 L 202 407.8 L 199.5 407.8 L 199.5 420.4 L 197.4 420.4 Z M 225.7 420.4 C 225.7 420.4 225.68 410.06 225.7 410.1 C 225.7 408.1 224.8 407.4 223.4 407.4 C 222 407.4 220.6 408.6 220 409.8 C 219.98 409.76 220 420.4 220 420.4 L 217.9 420.4 L 217.9 405.9 L 220 405.9 C 220 405.9 219.98 407.96 220 408 C 220.8 406.7 222.4 405.5 224.2 405.5 C 226.6 405.5 227.8 406.8 227.8 409.5 C 227.84 409.46 227.8 420.4 227.8 420.4 L 225.7 420.4 Z M 231.4 424.4 C 231.4 424.4 232.4 422.7 232.4 422.7 C 233.3 423.9 234.6 424.4 236.2 424.4 C 238.1 424.4 239.8 423.3 239.8 420.5 C 239.8 420.5 239.8 418.1 239.8 418.1 C 238.9 419.5 237.5 420.6 236 420.6 C 232.7 420.6 230.8 417.6 230.8 413.1 C 230.8 408.6 232.7 405.5 236 405.5 C 237.4 405.5 238.9 406.4 239.8 408 C 239.78 407.99 239.8 405.9 239.8 405.9 L 241.9 405.9 C 241.9 405.9 241.94 420.35 241.9 420.3 C 241.9 424.8 239.2 426.3 236.2 426.3 C 234.3 426.3 232.8 425.8 231.4 424.4 Z M 239.8 416.2 C 239.8 416.2 239.8 409.8 239.8 409.8 C 239.2 408.6 237.9 407.4 236.5 407.4 C 234.1 407.4 233 409.9 233 413.1 C 233 416.2 234.1 418.6 236.5 418.6 C 237.9 418.6 239.2 417.5 239.8 416.2 Z " stroke="none" fill="#d3d2d2"/>  </g>  <g id="Polygon222923">    <path d="M 2.1 384.4 L 2.1 364.4 C 2.1 364.4 8.19 364.37 8.2 364.4 C 11.8 364.4 13.7 367.1 13.7 370.4 C 13.7 373.6 11.8 376.4 8.2 376.4 C 8.19 376.37 4.5 376.4 4.5 376.4 L 4.5 384.4 L 2.1 384.4 Z M 11.3 370.4 C 11.3 368.1 10 366.5 7.9 366.5 C 7.95 366.47 4.5 366.5 4.5 366.5 L 4.5 374.3 C 4.5 374.3 7.95 374.27 7.9 374.3 C 10 374.3 11.3 372.6 11.3 370.4 Z M 15.1 377.1 C 15.1 372.9 17.3 369.5 20.9 369.5 C 24.8 369.5 26.7 372.9 26.7 377.2 C 26.67 377.18 26.7 377.8 26.7 377.8 C 26.7 377.8 17.28 377.84 17.3 377.8 C 17.4 380.7 18.9 382.9 21.5 382.9 C 22.7 382.9 24 382.3 24.9 381.2 C 24.9 381.2 26 382.4 26 382.4 C 24.9 383.9 23.2 384.7 21.3 384.7 C 17.4 384.7 15.1 381.6 15.1 377.1 Z M 20.9 371.3 C 18.4 371.3 17.3 374.1 17.3 376.2 C 17.3 376.2 24.5 376.2 24.5 376.2 C 24.5 374 23.6 371.3 20.9 371.3 Z M 29.9 381.5 C 29.94 381.47 29.9 371.8 29.9 371.8 L 28 371.8 L 28 369.9 L 29.9 369.9 L 29.9 365.9 L 32.1 365.9 L 32.1 369.9 L 34.6 369.9 L 34.6 371.8 L 32.1 371.8 C 32.1 371.8 32.1 381.08 32.1 381.1 C 32.1 382.2 32.4 382.8 33.3 382.8 C 33.8 382.8 34.3 382.6 34.5 382.2 C 34.5 382.2 35.2 383.9 35.2 383.9 C 34.7 384.4 34 384.7 32.8 384.7 C 30.9 384.7 29.9 383.6 29.9 381.5 Z M 37.1 384.4 L 37.1 369.9 L 39.2 369.9 C 39.2 369.9 39.24 372.2 39.2 372.2 C 40.2 370.7 41.6 369.6 43.3 369.6 C 43.3 369.6 43.3 371.8 43.3 371.8 C 43.1 371.7 42.9 371.7 42.6 371.7 C 41.3 371.7 39.8 372.9 39.2 374.1 C 39.24 374.09 39.2 384.4 39.2 384.4 L 37.1 384.4 Z M 44.8 377.1 C 44.8 373 46.9 369.5 50.7 369.5 C 54.6 369.5 56.6 373 56.6 377.1 C 56.6 381.2 54.6 384.7 50.7 384.7 C 46.9 384.7 44.8 381.2 44.8 377.1 Z M 54.4 377.1 C 54.4 374.2 53.2 371.4 50.7 371.4 C 48.2 371.4 47.1 374.2 47.1 377.1 C 47.1 380.1 48.2 382.8 50.7 382.8 C 53.2 382.8 54.4 380.1 54.4 377.1 Z M 59.5 384.4 L 59.5 364.4 L 61.7 364.4 L 61.7 384.4 L 59.5 384.4 Z M 64.6 377.1 C 64.6 372.9 66.8 369.5 70.5 369.5 C 74.3 369.5 76.2 372.9 76.2 377.2 C 76.23 377.18 76.2 377.8 76.2 377.8 C 76.2 377.8 66.84 377.84 66.8 377.8 C 66.9 380.7 68.4 382.9 71 382.9 C 72.3 382.9 73.6 382.3 74.5 381.2 C 74.5 381.2 75.6 382.4 75.6 382.4 C 74.4 383.9 72.8 384.7 70.8 384.7 C 67 384.7 64.6 381.6 64.6 377.1 Z M 70.5 371.3 C 67.9 371.3 66.9 374.1 66.8 376.2 C 66.8 376.2 74.1 376.2 74.1 376.2 C 74.1 374 73.1 371.3 70.5 371.3 Z M 86.9 384.4 C 86.9 384.4 86.91 382.37 86.9 382.4 C 86 383.6 84.5 384.7 82.7 384.7 C 80.2 384.7 79.1 383.5 79.1 380.9 C 79.08 380.87 79.1 369.9 79.1 369.9 L 81.2 369.9 C 81.2 369.9 81.21 380.24 81.2 380.2 C 81.2 382.2 82.1 382.8 83.5 382.8 C 85 382.8 86.3 381.8 86.9 380.6 C 86.91 380.57 86.9 369.9 86.9 369.9 L 89.1 369.9 L 89.1 384.4 L 86.9 384.4 Z M 107.4 384.4 C 107.4 384.4 107.37 373.88 107.4 373.9 C 107.4 372.3 106.7 371.4 105.4 371.4 C 104.1 371.4 102.8 372.6 102.2 373.8 C 102.21 373.76 102.2 384.4 102.2 384.4 L 100 384.4 C 100 384.4 100.05 373.88 100 373.9 C 100 372.3 99.4 371.4 98 371.4 C 96.7 371.4 95.5 372.6 94.9 373.8 C 94.86 373.76 94.9 384.4 94.9 384.4 L 92.7 384.4 L 92.7 369.9 L 94.9 369.9 C 94.9 369.9 94.86 371.96 94.9 372 C 95.5 370.9 97.1 369.5 98.8 369.5 C 100.7 369.5 101.8 370.6 102.1 372.1 C 102.8 370.8 104.4 369.5 106.2 369.5 C 108.3 369.5 109.5 370.7 109.5 373.3 C 109.53 373.31 109.5 384.4 109.5 384.4 L 107.4 384.4 Z M 118.9 366.3 C 118.9 365.5 119.6 364.8 120.4 364.8 C 121.2 364.8 121.9 365.5 121.9 366.3 C 121.9 367.1 121.2 367.8 120.4 367.8 C 119.6 367.8 118.9 367.1 118.9 366.3 Z M 115.4 389.2 C 115.4 389.2 116.2 387.6 116.2 387.6 C 116.5 388.1 117 388.4 117.7 388.4 C 118.6 388.4 119.3 387.8 119.3 386.1 C 119.34 386.15 119.3 369.9 119.3 369.9 L 121.5 369.9 C 121.5 369.9 121.47 386.15 121.5 386.1 C 121.5 388.9 120.2 390.3 117.9 390.3 C 116.7 390.3 116 389.9 115.4 389.2 Z M 124.4 377.1 C 124.4 372.9 126.6 369.5 130.3 369.5 C 134.1 369.5 136 372.9 136 377.2 C 136.02 377.18 136 377.8 136 377.8 C 136 377.8 126.63 377.84 126.6 377.8 C 126.7 380.7 128.2 382.9 130.8 382.9 C 132.1 382.9 133.3 382.3 134.2 381.2 C 134.2 381.2 135.4 382.4 135.4 382.4 C 134.2 383.9 132.6 384.7 130.6 384.7 C 126.7 384.7 124.4 381.6 124.4 377.1 Z M 130.3 371.3 C 127.7 371.3 126.7 374.1 126.6 376.2 C 126.6 376.2 133.9 376.2 133.9 376.2 C 133.9 374 132.9 371.3 130.3 371.3 Z M 138.9 384.4 L 138.9 364.4 L 141 364.4 L 141 384.4 L 138.9 384.4 Z M 144.7 384.4 L 144.7 364.4 L 146.8 364.4 L 146.8 384.4 L 144.7 384.4 Z M 150 388.1 C 150.3 388.3 150.7 388.3 151 388.3 C 151.8 388.3 152.3 388 152.7 386.9 C 152.7 386.9 153.5 384.7 153.5 384.7 L 148.6 369.9 L 151 369.9 L 154.6 381.8 L 158.2 369.9 L 160.5 369.9 C 160.5 369.9 154.74 387.44 154.7 387.4 C 154 389.5 152.8 390.3 151.1 390.3 C 150.7 390.3 150 390.2 149.7 390 C 149.7 390 150 388.1 150 388.1 Z " stroke="none" fill="#d3d2d2"/>  </g>  <g id="Polygon222922">    <path d="M 2.1 348.4 L 2.1 328.4 L 4.5 328.4 L 4.5 346.2 L 11.7 346.2 L 11.7 348.4 L 2.1 348.4 Z M 13 341.1 C 13 336.9 15.3 333.5 18.9 333.5 C 22.7 333.5 24.7 336.9 24.7 341.2 C 24.66 341.18 24.7 341.8 24.7 341.8 C 24.7 341.8 15.27 341.84 15.3 341.8 C 15.4 344.7 16.9 346.9 19.4 346.9 C 20.7 346.9 22 346.3 22.9 345.2 C 22.9 345.2 24 346.4 24 346.4 C 22.9 347.9 21.2 348.7 19.3 348.7 C 15.4 348.7 13 345.6 13 341.1 Z M 18.9 335.3 C 16.3 335.3 15.3 338.1 15.3 340.2 C 15.3 340.2 22.5 340.2 22.5 340.2 C 22.5 338 21.5 335.3 18.9 335.3 Z M 34.9 348.4 C 34.9 348.4 34.95 346.82 34.9 346.8 C 34 348.1 32.6 348.7 31.1 348.7 C 28.8 348.7 26.8 346.9 26.8 343.9 C 26.8 340.9 28.8 339.1 31.1 339.1 C 32.6 339.1 34 339.7 34.9 341 C 34.9 341 34.9 338.5 34.9 338.5 C 34.9 336.5 33.9 335.4 32 335.4 C 30.6 335.4 29.5 335.9 28.3 337.2 C 28.3 337.2 27.4 335.6 27.4 335.6 C 28.8 334.2 30.5 333.5 32.3 333.5 C 35.2 333.5 37.1 334.9 37.1 338.2 C 37.11 338.24 37.1 348.4 37.1 348.4 L 34.9 348.4 Z M 34.9 345.3 C 34.9 345.3 34.9 342.6 34.9 342.6 C 34.3 341.4 33.1 340.7 31.8 340.7 C 30 340.7 28.9 342.1 28.9 343.9 C 28.9 345.7 30 347.2 31.8 347.2 C 33.1 347.2 34.3 346.5 34.9 345.3 Z M 41.2 345.5 C 41.16 345.47 41.2 335.8 41.2 335.8 L 39.2 335.8 L 39.2 333.9 L 41.2 333.9 L 41.2 329.9 L 43.3 329.9 L 43.3 333.9 L 45.8 333.9 L 45.8 335.8 L 43.3 335.8 C 43.3 335.8 43.32 345.08 43.3 345.1 C 43.3 346.2 43.6 346.8 44.5 346.8 C 45 346.8 45.5 346.6 45.7 346.2 C 45.7 346.2 46.4 347.9 46.4 347.9 C 45.9 348.4 45.2 348.7 44.1 348.7 C 42.1 348.7 41.2 347.6 41.2 345.5 Z M 56.2 348.4 C 56.2 348.4 56.19 338.03 56.2 338 C 56.2 336.1 55.3 335.4 53.8 335.4 C 52.4 335.4 51.1 336.6 50.5 337.8 C 50.46 337.76 50.5 348.4 50.5 348.4 L 48.3 348.4 L 48.3 328.4 L 50.5 328.4 C 50.5 328.4 50.46 335.96 50.5 336 C 51.3 334.7 52.9 333.5 54.7 333.5 C 57.1 333.5 58.3 334.8 58.3 337.4 C 58.32 337.4 58.3 348.4 58.3 348.4 L 56.2 348.4 Z M 61.3 341.1 C 61.3 336.9 63.5 333.5 67.1 333.5 C 70.9 333.5 72.9 336.9 72.9 341.2 C 72.87 341.18 72.9 341.8 72.9 341.8 C 72.9 341.8 63.48 341.84 63.5 341.8 C 63.6 344.7 65.1 346.9 67.6 346.9 C 68.9 346.9 70.2 346.3 71.1 345.2 C 71.1 345.2 72.2 346.4 72.2 346.4 C 71.1 347.9 69.4 348.7 67.5 348.7 C 63.6 348.7 61.3 345.6 61.3 341.1 Z M 67.1 335.3 C 64.6 335.3 63.5 338.1 63.5 340.2 C 63.5 340.2 70.7 340.2 70.7 340.2 C 70.7 338 69.7 335.3 67.1 335.3 Z M 75.7 348.4 L 75.7 333.9 L 77.8 333.9 C 77.8 333.9 77.85 336.2 77.8 336.2 C 78.8 334.7 80.2 333.6 82 333.6 C 82 333.6 82 335.8 82 335.8 C 81.7 335.7 81.5 335.7 81.2 335.7 C 79.9 335.7 78.4 336.9 77.8 338.1 C 77.85 338.09 77.8 348.4 77.8 348.4 L 75.7 348.4 Z M 89.1 346.7 C 89.1 346.7 90.2 345.2 90.2 345.2 C 91 346.2 92.4 347 94 347 C 95.7 347 96.8 346 96.8 344.7 C 96.8 341.3 89.5 342.4 89.5 337.4 C 89.5 335.3 91.3 333.5 94.2 333.5 C 96.1 333.5 97.6 334.3 98.6 335.4 C 98.6 335.4 97.6 336.9 97.6 336.9 C 96.8 335.9 95.6 335.3 94.2 335.3 C 92.6 335.3 91.6 336.2 91.6 337.4 C 91.6 340.5 98.8 339.4 98.8 344.6 C 98.8 347 97 348.7 94 348.7 C 92 348.7 90.3 348.1 89.1 346.7 Z M 102 345.5 C 102.03 345.47 102 335.8 102 335.8 L 100.1 335.8 L 100.1 333.9 L 102 333.9 L 102 329.9 L 104.2 329.9 L 104.2 333.9 L 106.6 333.9 L 106.6 335.8 L 104.2 335.8 C 104.2 335.8 104.19 345.08 104.2 345.1 C 104.2 346.2 104.5 346.8 105.4 346.8 C 105.9 346.8 106.3 346.6 106.6 346.2 C 106.6 346.2 107.3 347.9 107.3 347.9 C 106.8 348.4 106 348.7 104.9 348.7 C 103 348.7 102 347.6 102 345.5 Z M 109.2 348.4 L 109.2 333.9 L 111.3 333.9 C 111.3 333.9 111.33 336.2 111.3 336.2 C 112.3 334.7 113.7 333.6 115.4 333.6 C 115.4 333.6 115.4 335.8 115.4 335.8 C 115.2 335.7 115 335.7 114.7 335.7 C 113.4 335.7 111.9 336.9 111.3 338.1 C 111.33 338.09 111.3 348.4 111.3 348.4 L 109.2 348.4 Z M 117.2 330.3 C 117.2 329.5 117.9 328.8 118.7 328.8 C 119.5 328.8 120.1 329.5 120.1 330.3 C 120.1 331.1 119.5 331.8 118.7 331.8 C 117.9 331.8 117.2 331.1 117.2 330.3 Z M 117.6 348.4 L 117.6 333.9 L 119.8 333.9 L 119.8 348.4 L 117.6 348.4 Z M 125.5 346.3 C 125.55 346.28 125.5 353.9 125.5 353.9 L 123.4 353.9 L 123.4 333.9 L 125.5 333.9 C 125.5 333.9 125.55 335.96 125.5 336 C 126.4 334.5 127.8 333.5 129.4 333.5 C 132.6 333.5 134.5 336.6 134.5 341.1 C 134.5 345.6 132.6 348.7 129.4 348.7 C 127.9 348.7 126.4 347.9 125.5 346.3 Z M 132.3 341.1 C 132.3 338 131.2 335.4 128.8 335.4 C 127.5 335.4 126.1 336.5 125.5 337.8 C 125.5 337.8 125.5 344.4 125.5 344.4 C 126.1 345.7 127.5 346.8 128.8 346.8 C 131.2 346.8 132.3 344.3 132.3 341.1 Z M 136.3 346.7 C 136.3 346.7 137.4 345.2 137.4 345.2 C 138.2 346.2 139.6 347 141.1 347 C 142.8 347 143.9 346 143.9 344.7 C 143.9 341.3 136.7 342.4 136.7 337.4 C 136.7 335.3 138.4 333.5 141.3 333.5 C 143.2 333.5 144.7 334.3 145.7 335.4 C 145.7 335.4 144.7 336.9 144.7 336.9 C 144 335.9 142.8 335.3 141.4 335.3 C 139.8 335.3 138.8 336.2 138.8 337.4 C 138.8 340.5 146 339.4 146 344.6 C 146 347 144.1 348.7 141.2 348.7 C 139.1 348.7 137.5 348.1 136.3 346.7 Z " stroke="none" fill="#d3d2d2"/>  </g>  <g id="Polygon222921">    <path d="M 12.7 312.4 L 12.7 303.1 L 4.5 303.1 L 4.5 312.4 L 2.1 312.4 L 2.1 292.4 L 4.5 292.4 L 4.5 301 L 12.7 301 L 12.7 292.4 L 15.1 292.4 L 15.1 312.4 L 12.7 312.4 Z M 26.3 312.4 C 26.3 312.4 26.34 310.82 26.3 310.8 C 25.4 312.1 24 312.7 22.5 312.7 C 20.2 312.7 18.1 310.9 18.1 307.9 C 18.1 304.9 20.2 303.1 22.5 303.1 C 24 303.1 25.4 303.7 26.3 305 C 26.3 305 26.3 302.5 26.3 302.5 C 26.3 300.5 25.3 299.4 23.4 299.4 C 22 299.4 20.8 299.9 19.7 301.2 C 19.7 301.2 18.8 299.6 18.8 299.6 C 20.2 298.2 21.9 297.5 23.7 297.5 C 26.6 297.5 28.5 298.9 28.5 302.2 C 28.5 302.24 28.5 312.4 28.5 312.4 L 26.3 312.4 Z M 26.3 309.3 C 26.3 309.3 26.3 306.6 26.3 306.6 C 25.7 305.4 24.5 304.7 23.2 304.7 C 21.4 304.7 20.3 306.1 20.3 307.9 C 20.3 309.7 21.4 311.2 23.2 311.2 C 24.5 311.2 25.7 310.5 26.3 309.3 Z M 31.7 294.3 C 31.7 293.5 32.4 292.8 33.2 292.8 C 34 292.8 34.6 293.5 34.6 294.3 C 34.6 295.1 34 295.8 33.2 295.8 C 32.4 295.8 31.7 295.1 31.7 294.3 Z M 32.1 312.4 L 32.1 297.9 L 34.3 297.9 L 34.3 312.4 L 32.1 312.4 Z M 37.9 312.4 L 37.9 297.9 L 40 297.9 C 40 297.9 40.05 300.2 40 300.2 C 41 298.7 42.4 297.6 44.2 297.6 C 44.2 297.6 44.2 299.8 44.2 299.8 C 43.9 299.7 43.7 299.7 43.4 299.7 C 42.1 299.7 40.6 300.9 40 302.1 C 40.05 302.09 40 312.4 40 312.4 L 37.9 312.4 Z M 63.2 312.4 L 60.1 300.7 L 57 312.4 L 54.8 312.4 L 50.9 297.9 L 53.2 297.9 L 56 309.5 L 59 297.9 L 61.1 297.9 L 64.2 309.5 L 67 297.9 L 69.3 297.9 L 65.4 312.4 L 63.2 312.4 Z M 78.8 312.4 C 78.8 312.4 78.78 310.82 78.8 310.8 C 77.8 312.1 76.4 312.7 75 312.7 C 72.6 312.7 70.6 310.9 70.6 307.9 C 70.6 304.9 72.6 303.1 75 303.1 C 76.4 303.1 77.9 303.7 78.8 305 C 78.8 305 78.8 302.5 78.8 302.5 C 78.8 300.5 77.7 299.4 75.8 299.4 C 74.5 299.4 73.3 299.9 72.2 301.2 C 72.2 301.2 71.2 299.6 71.2 299.6 C 72.6 298.2 74.3 297.5 76.1 297.5 C 79 297.5 80.9 298.9 80.9 302.2 C 80.94 302.24 80.9 312.4 80.9 312.4 L 78.8 312.4 Z M 78.8 309.3 C 78.8 309.3 78.8 306.6 78.8 306.6 C 78.1 305.4 76.9 304.7 75.7 304.7 C 73.9 304.7 72.8 306.1 72.8 307.9 C 72.8 309.7 73.9 311.2 75.7 311.2 C 76.9 311.2 78.1 310.5 78.8 309.3 Z M 92 312.4 L 88.7 306.6 L 85.3 312.4 L 82.9 312.4 L 87.4 305 L 83.2 297.9 L 85.6 297.9 L 88.7 303.4 L 91.8 297.9 L 94.2 297.9 L 90 305 L 94.4 312.4 L 92 312.4 Z " stroke="none" fill="#d3d2d2"/>  </g>  <g id="Polygon222920">    <path d="M 2.1 276.4 L 2.1 256.4 L 12.4 256.4 L 12.4 258.5 L 4.5 258.5 L 4.5 265.1 L 12.2 265.1 L 12.2 267.2 L 4.5 267.2 L 4.5 274.2 L 12.4 274.2 L 12.4 276.4 L 2.1 276.4 Z M 22.9 276.4 L 19.6 270.6 L 16.3 276.4 L 13.9 276.4 L 18.3 269 L 14.1 261.9 L 16.5 261.9 L 19.6 267.4 L 22.7 261.9 L 25.1 261.9 L 20.9 269 L 25.3 276.4 L 22.9 276.4 Z M 29.5 274.3 C 29.52 274.28 29.5 281.9 29.5 281.9 L 27.4 281.9 L 27.4 261.9 L 29.5 261.9 C 29.5 261.9 29.52 263.96 29.5 264 C 30.4 262.5 31.8 261.5 33.3 261.5 C 36.6 261.5 38.5 264.6 38.5 269.1 C 38.5 273.6 36.6 276.7 33.3 276.7 C 31.9 276.7 30.4 275.9 29.5 274.3 Z M 36.3 269.1 C 36.3 266 35.2 263.4 32.8 263.4 C 31.4 263.4 30.1 264.5 29.5 265.8 C 29.5 265.8 29.5 272.4 29.5 272.4 C 30.1 273.7 31.4 274.8 32.8 274.8 C 35.2 274.8 36.3 272.3 36.3 269.1 Z M 48.9 276.4 C 48.9 276.4 48.87 274.82 48.9 274.8 C 47.9 276.1 46.5 276.7 45.1 276.7 C 42.7 276.7 40.7 274.9 40.7 271.9 C 40.7 268.9 42.7 267.1 45.1 267.1 C 46.5 267.1 48 267.7 48.9 269 C 48.9 269 48.9 266.5 48.9 266.5 C 48.9 264.5 47.8 263.4 45.9 263.4 C 44.5 263.4 43.4 263.9 42.3 265.2 C 42.3 265.2 41.3 263.6 41.3 263.6 C 42.7 262.2 44.4 261.5 46.2 261.5 C 49.1 261.5 51 262.9 51 266.2 C 51.03 266.24 51 276.4 51 276.4 L 48.9 276.4 Z M 48.9 273.3 C 48.9 273.3 48.9 270.6 48.9 270.6 C 48.2 269.4 47 268.7 45.7 268.7 C 43.9 268.7 42.9 270.1 42.9 271.9 C 42.9 273.7 43.9 275.2 45.7 275.2 C 47 275.2 48.2 274.5 48.9 273.3 Z M 62.5 276.4 C 62.5 276.4 62.49 266.06 62.5 266.1 C 62.5 264.1 61.6 263.4 60.2 263.4 C 58.8 263.4 57.4 264.6 56.8 265.8 C 56.79 265.76 56.8 276.4 56.8 276.4 L 54.7 276.4 L 54.7 261.9 L 56.8 261.9 C 56.8 261.9 56.79 263.96 56.8 264 C 57.6 262.7 59.2 261.5 61 261.5 C 63.4 261.5 64.6 262.8 64.6 265.5 C 64.65 265.46 64.6 276.4 64.6 276.4 L 62.5 276.4 Z M 76.6 276.4 C 76.6 276.4 76.59 274.31 76.6 274.3 C 75.7 275.8 74.3 276.7 72.8 276.7 C 69.5 276.7 67.6 273.7 67.6 269.1 C 67.6 264.6 69.5 261.5 72.8 261.5 C 74.2 261.5 75.7 262.4 76.6 264 C 76.59 263.99 76.6 256.4 76.6 256.4 L 78.7 256.4 L 78.7 276.4 L 76.6 276.4 Z M 76.6 272.5 C 76.6 272.5 76.6 265.8 76.6 265.8 C 76 264.6 74.7 263.4 73.3 263.4 C 70.9 263.4 69.8 266 69.8 269.1 C 69.8 272.3 70.9 274.8 73.3 274.8 C 74.7 274.8 76 273.7 76.6 272.5 Z M 81.7 269.1 C 81.7 264.9 83.9 261.5 87.6 261.5 C 91.4 261.5 93.3 264.9 93.3 269.2 C 93.3 269.18 93.3 269.8 93.3 269.8 C 93.3 269.8 83.91 269.84 83.9 269.8 C 84 272.7 85.5 274.9 88.1 274.9 C 89.3 274.9 90.6 274.3 91.5 273.2 C 91.5 273.2 92.7 274.4 92.7 274.4 C 91.5 275.9 89.8 276.7 87.9 276.7 C 84 276.7 81.7 273.6 81.7 269.1 Z M 87.5 263.3 C 85 263.3 84 266.1 83.9 268.2 C 83.9 268.2 91.2 268.2 91.2 268.2 C 91.1 266 90.2 263.3 87.5 263.3 Z M 104.4 276.4 C 104.4 276.4 104.43 274.31 104.4 274.3 C 103.6 275.8 102.1 276.7 100.6 276.7 C 97.4 276.7 95.4 273.7 95.4 269.1 C 95.4 264.6 97.3 261.5 100.6 261.5 C 102.1 261.5 103.6 262.4 104.4 264 C 104.43 263.99 104.4 256.4 104.4 256.4 L 106.6 256.4 L 106.6 276.4 L 104.4 276.4 Z M 104.4 272.5 C 104.4 272.5 104.4 265.8 104.4 265.8 C 103.9 264.6 102.5 263.4 101.2 263.4 C 98.8 263.4 97.7 266 97.7 269.1 C 97.7 272.3 98.8 274.8 101.2 274.8 C 102.5 274.8 103.9 273.7 104.4 272.5 Z M 118.5 274.3 C 118.53 274.28 118.5 281.9 118.5 281.9 L 116.4 281.9 L 116.4 261.9 L 118.5 261.9 C 118.5 261.9 118.53 263.96 118.5 264 C 119.4 262.5 120.8 261.5 122.3 261.5 C 125.6 261.5 127.5 264.6 127.5 269.1 C 127.5 273.6 125.6 276.7 122.3 276.7 C 120.9 276.7 119.4 275.9 118.5 274.3 Z M 125.3 269.1 C 125.3 266 124.2 263.4 121.8 263.4 C 120.4 263.4 119.1 264.5 118.5 265.8 C 118.5 265.8 118.5 272.4 118.5 272.4 C 119.1 273.7 120.4 274.8 121.8 274.8 C 124.2 274.8 125.3 272.3 125.3 269.1 Z M 129.7 269.1 C 129.7 265 131.8 261.5 135.6 261.5 C 139.5 261.5 141.5 265 141.5 269.1 C 141.5 273.2 139.5 276.7 135.6 276.7 C 131.8 276.7 129.7 273.2 129.7 269.1 Z M 139.3 269.1 C 139.3 266.2 138.1 263.4 135.6 263.4 C 133.1 263.4 132 266.2 132 269.1 C 132 272.1 133.1 274.8 135.6 274.8 C 138.1 274.8 139.3 272.1 139.3 269.1 Z M 144.4 276.4 L 144.4 256.4 L 146.6 256.4 L 146.6 276.4 L 144.4 276.4 Z M 149.8 280.1 C 150.1 280.3 150.5 280.3 150.8 280.3 C 151.6 280.3 152.1 280 152.5 278.9 C 152.49 278.9 153.3 276.7 153.3 276.7 L 148.4 261.9 L 150.8 261.9 L 154.4 273.8 L 158 261.9 L 160.3 261.9 C 160.3 261.9 154.53 279.44 154.5 279.4 C 153.8 281.5 152.6 282.3 150.9 282.3 C 150.5 282.3 149.8 282.2 149.5 282 C 149.5 282 149.8 280.1 149.8 280.1 Z M 161.5 269.1 C 161.5 264.9 163.7 261.5 167.3 261.5 C 171.1 261.5 173.1 264.9 173.1 269.2 C 173.07 269.18 173.1 269.8 173.1 269.8 C 173.1 269.8 163.68 269.84 163.7 269.8 C 163.8 272.7 165.3 274.9 167.8 274.9 C 169.1 274.9 170.4 274.3 171.3 273.2 C 171.3 273.2 172.4 274.4 172.4 274.4 C 171.3 275.9 169.6 276.7 167.7 276.7 C 163.8 276.7 161.5 273.6 161.5 269.1 Z M 167.3 263.3 C 164.8 263.3 163.7 266.1 163.7 268.2 C 163.7 268.2 170.9 268.2 170.9 268.2 C 170.9 266 169.9 263.3 167.3 263.3 Z M 176.3 273.5 C 176.34 273.47 176.3 263.8 176.3 263.8 L 174.4 263.8 L 174.4 261.9 L 176.3 261.9 L 176.3 257.9 L 178.5 257.9 L 178.5 261.9 L 181 261.9 L 181 263.8 L 178.5 263.8 C 178.5 263.8 178.5 273.08 178.5 273.1 C 178.5 274.2 178.8 274.8 179.7 274.8 C 180.2 274.8 180.7 274.6 180.9 274.2 C 180.9 274.2 181.6 275.9 181.6 275.9 C 181.1 276.4 180.4 276.7 179.2 276.7 C 177.3 276.7 176.3 275.6 176.3 273.5 Z M 191.4 276.4 C 191.4 276.4 191.37 266.03 191.4 266 C 191.4 264.1 190.5 263.4 189 263.4 C 187.6 263.4 186.3 264.6 185.6 265.8 C 185.64 265.76 185.6 276.4 185.6 276.4 L 183.5 276.4 L 183.5 256.4 L 185.6 256.4 C 185.6 256.4 185.64 263.96 185.6 264 C 186.5 262.7 188.1 261.5 189.9 261.5 C 192.3 261.5 193.5 262.8 193.5 265.4 C 193.5 265.4 193.5 276.4 193.5 276.4 L 191.4 276.4 Z M 196.7 280.1 C 197 280.3 197.5 280.3 197.7 280.3 C 198.5 280.3 199 280 199.4 278.9 C 199.41 278.9 200.2 276.7 200.2 276.7 L 195.4 261.9 L 197.7 261.9 L 201.3 273.8 L 204.9 261.9 L 207.2 261.9 C 207.2 261.9 201.45 279.44 201.4 279.4 C 200.7 281.5 199.6 282.3 197.8 282.3 C 197.4 282.3 196.7 282.2 196.4 282 C 196.4 282 196.7 280.1 196.7 280.1 Z M 209.1 276.4 L 209.1 256.4 L 211.2 256.4 L 211.2 276.4 L 209.1 276.4 Z M 214.2 269.1 C 214.2 264.9 216.4 261.5 220 261.5 C 223.9 261.5 225.8 264.9 225.8 269.2 C 225.78 269.18 225.8 269.8 225.8 269.8 C 225.8 269.8 216.39 269.84 216.4 269.8 C 216.5 272.7 218 274.9 220.6 274.9 C 221.8 274.9 223.1 274.3 224 273.2 C 224 273.2 225.1 274.4 225.1 274.4 C 224 275.9 222.3 276.7 220.4 276.7 C 216.5 276.7 214.2 273.6 214.2 269.1 Z M 220 263.3 C 217.5 263.3 216.4 266.1 216.4 268.2 C 216.4 268.2 223.6 268.2 223.6 268.2 C 223.6 266 222.7 263.3 220 263.3 Z M 236.5 276.4 C 236.5 276.4 236.46 266.06 236.5 266.1 C 236.5 264.1 235.6 263.4 234.1 263.4 C 232.7 263.4 231.4 264.6 230.8 265.8 C 230.76 265.76 230.8 276.4 230.8 276.4 L 228.6 276.4 L 228.6 261.9 L 230.8 261.9 C 230.8 261.9 230.76 263.96 230.8 264 C 231.6 262.7 233.2 261.5 235 261.5 C 237.4 261.5 238.6 262.8 238.6 265.5 C 238.62 265.46 238.6 276.4 238.6 276.4 L 236.5 276.4 Z M 241.6 269.1 C 241.6 264.9 243.8 261.5 247.4 261.5 C 251.2 261.5 253.2 264.9 253.2 269.2 C 253.17 269.18 253.2 269.8 253.2 269.8 C 253.2 269.8 243.78 269.84 243.8 269.8 C 243.9 272.7 245.4 274.9 247.9 274.9 C 249.2 274.9 250.5 274.3 251.4 273.2 C 251.4 273.2 252.5 274.4 252.5 274.4 C 251.4 275.9 249.7 276.7 247.8 276.7 C 243.9 276.7 241.6 273.6 241.6 269.1 Z M 247.4 263.3 C 244.9 263.3 243.8 266.1 243.8 268.2 C 243.8 268.2 251 268.2 251 268.2 C 251 266 250 263.3 247.4 263.3 Z M 256.7 280.2 C 256.7 280.2 255.6 279.3 255.6 279.3 C 256.6 278.6 257.4 277.5 257.5 276.5 C 257.5 276.5 257.3 276.5 257.2 276.5 C 256.3 276.5 255.7 275.9 255.7 275.1 C 255.7 274.2 256.4 273.5 257.3 273.5 C 258.3 273.5 259.1 274.3 259.1 275.7 C 259.1 277.5 258.1 279.2 256.7 280.2 Z M 268.7 276.4 L 268.7 256.4 C 268.7 256.4 274.79 256.37 274.8 256.4 C 278.5 256.4 280.3 259.1 280.3 262.4 C 280.3 265.6 278.4 268.4 274.8 268.4 C 274.79 268.37 271.1 268.4 271.1 268.4 L 271.1 276.4 L 268.7 276.4 Z M 277.9 262.4 C 277.9 260.1 276.6 258.5 274.6 258.5 C 274.55 258.47 271.1 258.5 271.1 258.5 L 271.1 266.3 C 271.1 266.3 274.55 266.27 274.6 266.3 C 276.6 266.3 277.9 264.6 277.9 262.4 Z M 289.8 276.4 C 289.8 276.4 289.76 274.82 289.8 274.8 C 288.8 276.1 287.4 276.7 286 276.7 C 283.6 276.7 281.6 274.9 281.6 271.9 C 281.6 268.9 283.6 267.1 286 267.1 C 287.4 267.1 288.9 267.7 289.8 269 C 289.8 269 289.8 266.5 289.8 266.5 C 289.8 264.5 288.7 263.4 286.8 263.4 C 285.4 263.4 284.3 263.9 283.2 265.2 C 283.2 265.2 282.2 263.6 282.2 263.6 C 283.6 262.2 285.3 261.5 287.1 261.5 C 290 261.5 291.9 262.9 291.9 266.2 C 291.92 266.24 291.9 276.4 291.9 276.4 L 289.8 276.4 Z M 289.8 273.3 C 289.8 273.3 289.8 270.6 289.8 270.6 C 289.1 269.4 287.9 268.7 286.6 268.7 C 284.8 268.7 283.8 270.1 283.8 271.9 C 283.8 273.7 284.8 275.2 286.6 275.2 C 287.9 275.2 289.1 274.5 289.8 273.3 Z M 294.8 269.1 C 294.8 264.8 297.1 261.5 300.8 261.5 C 302.8 261.5 304.1 262.3 305 263.4 C 305 263.4 303.8 264.9 303.8 264.9 C 303 263.9 302.1 263.4 301 263.4 C 298.4 263.4 297.1 266 297.1 269.1 C 297.1 272.2 298.4 274.8 301 274.8 C 302.1 274.8 303 274.4 303.8 273.3 C 303.8 273.3 305 274.8 305 274.8 C 304.1 276 302.8 276.7 300.8 276.7 C 297.1 276.7 294.8 273.4 294.8 269.1 Z M 315.6 276.4 L 311.6 269.8 L 309.6 272.4 L 309.6 276.4 L 307.4 276.4 L 307.4 256.4 L 309.6 256.4 L 309.6 269.7 L 315.6 261.9 L 318.1 261.9 L 313.1 268.4 L 318.1 276.4 L 315.6 276.4 Z M 319.9 258.3 C 319.9 257.5 320.5 256.8 321.3 256.8 C 322.1 256.8 322.8 257.5 322.8 258.3 C 322.8 259.1 322.1 259.8 321.3 259.8 C 320.5 259.8 319.9 259.1 319.9 258.3 Z M 320.3 276.4 L 320.3 261.9 L 322.4 261.9 L 322.4 276.4 L 320.3 276.4 Z M 333.9 276.4 C 333.9 276.4 333.89 266.06 333.9 266.1 C 333.9 264.1 333 263.4 331.6 263.4 C 330.2 263.4 328.9 264.6 328.2 265.8 C 328.19 265.76 328.2 276.4 328.2 276.4 L 326.1 276.4 L 326.1 261.9 L 328.2 261.9 C 328.2 261.9 328.19 263.96 328.2 264 C 329 262.7 330.7 261.5 332.4 261.5 C 334.9 261.5 336.1 262.8 336.1 265.5 C 336.05 265.46 336.1 276.4 336.1 276.4 L 333.9 276.4 Z M 339.6 280.4 C 339.6 280.4 340.6 278.7 340.6 278.7 C 341.5 279.9 342.8 280.4 344.4 280.4 C 346.3 280.4 348 279.3 348 276.5 C 348 276.5 348 274.1 348 274.1 C 347.2 275.5 345.7 276.6 344.2 276.6 C 340.9 276.6 339 273.6 339 269.1 C 339 264.6 340.9 261.5 344.2 261.5 C 345.7 261.5 347.1 262.4 348 264 C 347.99 263.99 348 261.9 348 261.9 L 350.2 261.9 C 350.2 261.9 350.15 276.35 350.2 276.3 C 350.2 280.8 347.5 282.3 344.4 282.3 C 342.5 282.3 341 281.8 339.6 280.4 Z M 348 272.2 C 348 272.2 348 265.8 348 265.8 C 347.5 264.6 346.1 263.4 344.7 263.4 C 342.4 263.4 341.2 265.9 341.2 269.1 C 341.2 272.2 342.4 274.6 344.7 274.6 C 346.1 274.6 347.5 273.5 348 272.2 Z M 360.4 276.4 L 360.4 263.8 L 358.5 263.8 L 358.5 261.9 L 360.4 261.9 C 360.4 261.9 360.44 260.12 360.4 260.1 C 360.4 257.6 361.8 256.1 364.1 256.1 C 365 256.1 365.9 256.3 366.7 257 C 366.7 257 365.8 258.6 365.8 258.6 C 365.4 258.1 365 257.9 364.4 257.9 C 363.2 257.9 362.6 258.7 362.6 260.1 C 362.6 260.12 362.6 261.9 362.6 261.9 L 365.1 261.9 L 365.1 263.8 L 362.6 263.8 L 362.6 276.4 L 360.4 276.4 Z M 366.5 269.1 C 366.5 265 368.6 261.5 372.4 261.5 C 376.3 261.5 378.3 265 378.3 269.1 C 378.3 273.2 376.3 276.7 372.4 276.7 C 368.6 276.7 366.5 273.2 366.5 269.1 Z M 376.1 269.1 C 376.1 266.2 375 263.4 372.4 263.4 C 369.9 263.4 368.8 266.2 368.8 269.1 C 368.8 272.1 369.9 274.8 372.4 274.8 C 375 274.8 376.1 272.1 376.1 269.1 Z M 388.7 276.4 C 388.7 276.4 388.7 274.82 388.7 274.8 C 387.8 276.1 386.4 276.7 384.9 276.7 C 382.6 276.7 380.5 274.9 380.5 271.9 C 380.5 268.9 382.5 267.1 384.9 267.1 C 386.4 267.1 387.8 267.7 388.7 269 C 388.7 269 388.7 266.5 388.7 266.5 C 388.7 264.5 387.6 263.4 385.7 263.4 C 384.4 263.4 383.2 263.9 382.1 265.2 C 382.1 265.2 381.1 263.6 381.1 263.6 C 382.5 262.2 384.2 261.5 386.1 261.5 C 388.9 261.5 390.9 262.9 390.9 266.2 C 390.86 266.24 390.9 276.4 390.9 276.4 L 388.7 276.4 Z M 388.7 273.3 C 388.7 273.3 388.7 270.6 388.7 270.6 C 388 269.4 386.8 268.7 385.6 268.7 C 383.8 268.7 382.7 270.1 382.7 271.9 C 382.7 273.7 383.8 275.2 385.6 275.2 C 386.8 275.2 388 274.5 388.7 273.3 Z M 409.1 276.4 C 409.1 276.4 409.13 265.88 409.1 265.9 C 409.1 264.3 408.5 263.4 407.1 263.4 C 405.8 263.4 404.5 264.6 404 265.8 C 403.97 265.76 404 276.4 404 276.4 L 401.8 276.4 C 401.8 276.4 401.81 265.88 401.8 265.9 C 401.8 264.3 401.2 263.4 399.8 263.4 C 398.5 263.4 397.3 264.6 396.6 265.8 C 396.62 265.76 396.6 276.4 396.6 276.4 L 394.5 276.4 L 394.5 261.9 L 396.6 261.9 C 396.6 261.9 396.62 263.96 396.6 264 C 397.2 262.9 398.8 261.5 400.6 261.5 C 402.4 261.5 403.6 262.6 403.9 264.1 C 404.6 262.8 406.2 261.5 407.9 261.5 C 410.1 261.5 411.3 262.7 411.3 265.3 C 411.29 265.31 411.3 276.4 411.3 276.4 L 409.1 276.4 Z " stroke="none" fill="#d3d2d2"/>  </g>  <g id="Polygon222919">    <path d="M 12.5 240.4 L 11.2 235.8 L 4.1 235.8 L 2.8 240.4 L 0.2 240.4 L 6.2 220.4 L 9.1 220.4 L 15.1 240.4 L 12.5 240.4 Z M 7.6 223 L 4.6 233.7 L 10.7 233.7 L 7.6 223 Z M 17 240.4 L 17 225.9 L 19.1 225.9 C 19.1 225.9 19.14 228.2 19.1 228.2 C 20.1 226.7 21.5 225.6 23.2 225.6 C 23.2 225.6 23.2 227.8 23.2 227.8 C 23 227.7 22.8 227.7 22.5 227.7 C 21.2 227.7 19.7 228.9 19.1 230.1 C 19.14 230.09 19.1 240.4 19.1 240.4 L 17 240.4 Z M 25.9 237.5 C 25.86 237.47 25.9 227.8 25.9 227.8 L 23.9 227.8 L 23.9 225.9 L 25.9 225.9 L 25.9 221.9 L 28 221.9 L 28 225.9 L 30.5 225.9 L 30.5 227.8 L 28 227.8 C 28 227.8 28.02 237.08 28 237.1 C 28 238.2 28.3 238.8 29.2 238.8 C 29.7 238.8 30.2 238.6 30.4 238.2 C 30.4 238.2 31.1 239.9 31.1 239.9 C 30.6 240.4 29.9 240.7 28.8 240.7 C 26.8 240.7 25.9 239.6 25.9 237.5 Z M 32.6 222.3 C 32.6 221.5 33.3 220.8 34.1 220.8 C 34.9 220.8 35.5 221.5 35.5 222.3 C 35.5 223.1 34.9 223.8 34.1 223.8 C 33.3 223.8 32.6 223.1 32.6 222.3 Z M 33 240.4 L 33 225.9 L 35.2 225.9 L 35.2 240.4 L 33 240.4 Z M 39.3 240.4 L 39.3 227.8 L 37.4 227.8 L 37.4 225.9 L 39.3 225.9 C 39.3 225.9 39.33 224.12 39.3 224.1 C 39.3 221.6 40.8 220.1 42.9 220.1 C 43.6 220.1 44.2 220.2 44.7 220.5 C 44.7 220.5 44.2 222.2 44.2 222.2 C 43.9 222 43.6 221.9 43.2 221.9 C 42.1 221.9 41.5 222.7 41.5 224.1 C 41.49 224.12 41.5 225.9 41.5 225.9 L 43.9 225.9 L 43.9 227.8 L 41.5 227.8 L 41.5 240.4 L 39.3 240.4 Z M 46 222.3 C 46 221.5 46.7 220.8 47.5 220.8 C 48.3 220.8 49 221.5 49 222.3 C 49 223.1 48.3 223.8 47.5 223.8 C 46.7 223.8 46 223.1 46 222.3 Z M 46.4 240.4 L 46.4 225.9 L 48.6 225.9 L 48.6 240.4 L 46.4 240.4 Z M 51.5 233.1 C 51.5 228.8 53.8 225.5 57.5 225.5 C 59.5 225.5 60.7 226.3 61.6 227.4 C 61.6 227.4 60.5 228.9 60.5 228.9 C 59.7 227.9 58.8 227.4 57.7 227.4 C 55.1 227.4 53.8 230 53.8 233.1 C 53.8 236.2 55.1 238.8 57.7 238.8 C 58.8 238.8 59.7 238.4 60.5 237.3 C 60.5 237.3 61.6 238.8 61.6 238.8 C 60.7 240 59.5 240.7 57.5 240.7 C 53.8 240.7 51.5 237.4 51.5 233.1 Z M 63.7 222.3 C 63.7 221.5 64.4 220.8 65.2 220.8 C 66 220.8 66.6 221.5 66.6 222.3 C 66.6 223.1 66 223.8 65.2 223.8 C 64.4 223.8 63.7 223.1 63.7 222.3 Z M 64.1 240.4 L 64.1 225.9 L 66.2 225.9 L 66.2 240.4 L 64.1 240.4 Z M 77.3 240.4 C 77.3 240.4 77.34 238.82 77.3 238.8 C 76.4 240.1 75 240.7 73.5 240.7 C 71.2 240.7 69.1 238.9 69.1 235.9 C 69.1 232.9 71.2 231.1 73.5 231.1 C 75 231.1 76.4 231.7 77.3 233 C 77.3 233 77.3 230.5 77.3 230.5 C 77.3 228.5 76.3 227.4 74.4 227.4 C 73 227.4 71.8 227.9 70.7 229.2 C 70.7 229.2 69.8 227.6 69.8 227.6 C 71.2 226.2 72.9 225.5 74.7 225.5 C 77.6 225.5 79.5 226.9 79.5 230.2 C 79.5 230.24 79.5 240.4 79.5 240.4 L 77.3 240.4 Z M 77.3 237.3 C 77.3 237.3 77.3 234.6 77.3 234.6 C 76.7 233.4 75.5 232.7 74.2 232.7 C 72.4 232.7 71.3 234.1 71.3 235.9 C 71.3 237.7 72.4 239.2 74.2 239.2 C 75.5 239.2 76.7 238.5 77.3 237.3 Z M 83.1 240.4 L 83.1 220.4 L 85.3 220.4 L 85.3 240.4 L 83.1 240.4 Z M 103.3 240.4 C 103.3 240.4 103.35 238.31 103.3 238.3 C 102.5 239.8 101.1 240.7 99.5 240.7 C 96.3 240.7 94.3 237.7 94.3 233.1 C 94.3 228.6 96.3 225.5 99.5 225.5 C 101 225.5 102.5 226.4 103.3 228 C 103.35 227.99 103.3 220.4 103.3 220.4 L 105.5 220.4 L 105.5 240.4 L 103.3 240.4 Z M 103.3 236.5 C 103.3 236.5 103.3 229.8 103.3 229.8 C 102.8 228.6 101.5 227.4 100.1 227.4 C 97.7 227.4 96.6 230 96.6 233.1 C 96.6 236.3 97.7 238.8 100.1 238.8 C 101.5 238.8 102.8 237.7 103.3 236.5 Z M 108.7 244.1 C 109 244.3 109.5 244.3 109.7 244.3 C 110.5 244.3 111 244 111.4 242.9 C 111.42 242.9 112.2 240.7 112.2 240.7 L 107.4 225.9 L 109.7 225.9 L 113.3 237.8 L 116.9 225.9 L 119.2 225.9 C 119.2 225.9 113.46 243.44 113.5 243.4 C 112.7 245.5 111.6 246.3 109.9 246.3 C 109.4 246.3 108.7 246.2 108.4 246 C 108.4 246 108.7 244.1 108.7 244.1 Z M 120.4 233.1 C 120.4 228.9 122.6 225.5 126.3 225.5 C 130.1 225.5 132 228.9 132 233.2 C 132 233.18 132 233.8 132 233.8 C 132 233.8 122.61 233.84 122.6 233.8 C 122.7 236.7 124.2 238.9 126.8 238.9 C 128 238.9 129.3 238.3 130.2 237.2 C 130.2 237.2 131.4 238.4 131.4 238.4 C 130.2 239.9 128.5 240.7 126.6 240.7 C 122.7 240.7 120.4 237.6 120.4 233.1 Z M 126.2 227.3 C 123.7 227.3 122.7 230.1 122.6 232.2 C 122.6 232.2 129.9 232.2 129.9 232.2 C 129.8 230 128.9 227.3 126.2 227.3 Z M 135.5 244.2 C 135.5 244.2 134.5 243.3 134.5 243.3 C 135.4 242.6 136.3 241.5 136.4 240.5 C 136.3 240.5 136.1 240.5 136 240.5 C 135.2 240.5 134.6 239.9 134.6 239.1 C 134.6 238.2 135.2 237.5 136.1 237.5 C 137.1 237.5 137.9 238.3 137.9 239.7 C 137.9 241.5 136.9 243.2 135.5 244.2 Z M 151.7 240.4 L 151.7 231.9 L 145.6 220.4 L 148.2 220.4 L 152.9 229.6 L 157.6 220.4 L 160.3 220.4 L 154.1 231.9 L 154.1 240.4 L 151.7 240.4 Z M 158.6 233.1 C 158.6 228.9 160.8 225.5 164.5 225.5 C 168.3 225.5 170.2 228.9 170.2 233.2 C 170.22 233.18 170.2 233.8 170.2 233.8 C 170.2 233.8 160.83 233.84 160.8 233.8 C 160.9 236.7 162.4 238.9 165 238.9 C 166.3 238.9 167.5 238.3 168.4 237.2 C 168.4 237.2 169.6 238.4 169.6 238.4 C 168.4 239.9 166.8 240.7 164.8 240.7 C 160.9 240.7 158.6 237.6 158.6 233.1 Z M 164.5 227.3 C 161.9 227.3 160.9 230.1 160.8 232.2 C 160.8 232.2 168.1 232.2 168.1 232.2 C 168.1 230 167.1 227.3 164.5 227.3 Z M 173.1 240.4 L 173.1 220.4 L 175.2 220.4 L 175.2 240.4 L 173.1 240.4 Z M 178.9 240.4 L 178.9 220.4 L 181 220.4 L 181 240.4 L 178.9 240.4 Z M 183.9 233.1 C 183.9 229 186 225.5 189.8 225.5 C 193.7 225.5 195.7 229 195.7 233.1 C 195.7 237.2 193.7 240.7 189.8 240.7 C 186 240.7 183.9 237.2 183.9 233.1 Z M 193.5 233.1 C 193.5 230.2 192.4 227.4 189.8 227.4 C 187.3 227.4 186.2 230.2 186.2 233.1 C 186.2 236.1 187.3 238.8 189.8 238.8 C 192.4 238.8 193.5 236.1 193.5 233.1 Z M 209.3 240.4 L 206.2 228.7 L 203.1 240.4 L 200.9 240.4 L 197.1 225.9 L 199.3 225.9 L 202.1 237.5 L 205.2 225.9 L 207.2 225.9 L 210.3 237.5 L 213.2 225.9 L 215.4 225.9 L 211.6 240.4 L 209.3 240.4 Z M 223.1 230.4 C 223.1 225 225 220.1 229.8 220.1 C 231.9 220.1 233.5 221.1 234.5 222.6 C 234.5 222.6 233.2 224.2 233.2 224.2 C 232.4 223 231.5 222.2 229.9 222.2 C 226.7 222.2 225.5 226.4 225.5 230.2 C 225.5 230.4 225.5 230.5 225.5 230.8 C 226.2 229.4 227.8 227.8 229.9 227.8 C 232.8 227.8 235.2 230 235.2 234.2 C 235.2 237.6 233.1 240.7 229.4 240.7 C 224.6 240.7 223.1 235.7 223.1 230.4 Z M 232.7 234.3 C 232.7 231.1 231.2 229.9 229.3 229.9 C 227.6 229.9 226.3 231.3 225.5 233 C 225.7 235.2 226.5 238.6 229.3 238.6 C 231.7 238.6 232.7 236.4 232.7 234.3 Z " stroke="none" fill="#d3d2d2"/>  </g>  <g id="Polygon222918">    <path d="M 12.5 204.4 L 11.2 199.8 L 4.1 199.8 L 2.8 204.4 L 0.2 204.4 L 6.2 184.4 L 9.1 184.4 L 15.1 204.4 L 12.5 204.4 Z M 7.6 187 L 4.6 197.7 L 10.7 197.7 L 7.6 187 Z M 17 204.4 L 17 189.9 L 19.1 189.9 C 19.1 189.9 19.14 192.2 19.1 192.2 C 20.1 190.7 21.5 189.6 23.2 189.6 C 23.2 189.6 23.2 191.8 23.2 191.8 C 23 191.7 22.8 191.7 22.5 191.7 C 21.2 191.7 19.7 192.9 19.1 194.1 C 19.14 194.09 19.1 204.4 19.1 204.4 L 17 204.4 Z M 25.9 201.5 C 25.86 201.47 25.9 191.8 25.9 191.8 L 23.9 191.8 L 23.9 189.9 L 25.9 189.9 L 25.9 185.9 L 28 185.9 L 28 189.9 L 30.5 189.9 L 30.5 191.8 L 28 191.8 C 28 191.8 28.02 201.08 28 201.1 C 28 202.2 28.3 202.8 29.2 202.8 C 29.7 202.8 30.2 202.6 30.4 202.2 C 30.4 202.2 31.1 203.9 31.1 203.9 C 30.6 204.4 29.9 204.7 28.8 204.7 C 26.8 204.7 25.9 203.6 25.9 201.5 Z M 32.6 186.3 C 32.6 185.5 33.3 184.8 34.1 184.8 C 34.9 184.8 35.5 185.5 35.5 186.3 C 35.5 187.1 34.9 187.8 34.1 187.8 C 33.3 187.8 32.6 187.1 32.6 186.3 Z M 33 204.4 L 33 189.9 L 35.2 189.9 L 35.2 204.4 L 33 204.4 Z M 39.3 204.4 L 39.3 191.8 L 37.4 191.8 L 37.4 189.9 L 39.3 189.9 C 39.3 189.9 39.33 188.12 39.3 188.1 C 39.3 185.6 40.8 184.1 42.9 184.1 C 43.6 184.1 44.2 184.2 44.7 184.5 C 44.7 184.5 44.2 186.2 44.2 186.2 C 43.9 186 43.6 185.9 43.2 185.9 C 42.1 185.9 41.5 186.7 41.5 188.1 C 41.49 188.12 41.5 189.9 41.5 189.9 L 43.9 189.9 L 43.9 191.8 L 41.5 191.8 L 41.5 204.4 L 39.3 204.4 Z M 46 186.3 C 46 185.5 46.7 184.8 47.5 184.8 C 48.3 184.8 49 185.5 49 186.3 C 49 187.1 48.3 187.8 47.5 187.8 C 46.7 187.8 46 187.1 46 186.3 Z M 46.4 204.4 L 46.4 189.9 L 48.6 189.9 L 48.6 204.4 L 46.4 204.4 Z M 51.5 197.1 C 51.5 192.8 53.8 189.5 57.5 189.5 C 59.5 189.5 60.7 190.3 61.6 191.4 C 61.6 191.4 60.5 192.9 60.5 192.9 C 59.7 191.9 58.8 191.4 57.7 191.4 C 55.1 191.4 53.8 194 53.8 197.1 C 53.8 200.2 55.1 202.8 57.7 202.8 C 58.8 202.8 59.7 202.4 60.5 201.3 C 60.5 201.3 61.6 202.8 61.6 202.8 C 60.7 204 59.5 204.7 57.5 204.7 C 53.8 204.7 51.5 201.4 51.5 197.1 Z M 63.7 186.3 C 63.7 185.5 64.4 184.8 65.2 184.8 C 66 184.8 66.6 185.5 66.6 186.3 C 66.6 187.1 66 187.8 65.2 187.8 C 64.4 187.8 63.7 187.1 63.7 186.3 Z M 64.1 204.4 L 64.1 189.9 L 66.2 189.9 L 66.2 204.4 L 64.1 204.4 Z M 77.3 204.4 C 77.3 204.4 77.34 202.82 77.3 202.8 C 76.4 204.1 75 204.7 73.5 204.7 C 71.2 204.7 69.1 202.9 69.1 199.9 C 69.1 196.9 71.2 195.1 73.5 195.1 C 75 195.1 76.4 195.7 77.3 197 C 77.3 197 77.3 194.5 77.3 194.5 C 77.3 192.5 76.3 191.4 74.4 191.4 C 73 191.4 71.8 191.9 70.7 193.2 C 70.7 193.2 69.8 191.6 69.8 191.6 C 71.2 190.2 72.9 189.5 74.7 189.5 C 77.6 189.5 79.5 190.9 79.5 194.2 C 79.5 194.24 79.5 204.4 79.5 204.4 L 77.3 204.4 Z M 77.3 201.3 C 77.3 201.3 77.3 198.6 77.3 198.6 C 76.7 197.4 75.5 196.7 74.2 196.7 C 72.4 196.7 71.3 198.1 71.3 199.9 C 71.3 201.7 72.4 203.2 74.2 203.2 C 75.5 203.2 76.7 202.5 77.3 201.3 Z M 83.1 204.4 L 83.1 184.4 L 85.3 184.4 L 85.3 204.4 L 83.1 204.4 Z M 103.3 204.4 C 103.3 204.4 103.35 202.31 103.3 202.3 C 102.5 203.8 101.1 204.7 99.5 204.7 C 96.3 204.7 94.3 201.7 94.3 197.1 C 94.3 192.6 96.3 189.5 99.5 189.5 C 101 189.5 102.5 190.4 103.3 192 C 103.35 191.99 103.3 184.4 103.3 184.4 L 105.5 184.4 L 105.5 204.4 L 103.3 204.4 Z M 103.3 200.5 C 103.3 200.5 103.3 193.8 103.3 193.8 C 102.8 192.6 101.5 191.4 100.1 191.4 C 97.7 191.4 96.6 194 96.6 197.1 C 96.6 200.3 97.7 202.8 100.1 202.8 C 101.5 202.8 102.8 201.7 103.3 200.5 Z M 108.7 208.1 C 109 208.3 109.5 208.3 109.7 208.3 C 110.5 208.3 111 208 111.4 206.9 C 111.42 206.9 112.2 204.7 112.2 204.7 L 107.4 189.9 L 109.7 189.9 L 113.3 201.8 L 116.9 189.9 L 119.2 189.9 C 119.2 189.9 113.46 207.44 113.5 207.4 C 112.7 209.5 111.6 210.3 109.9 210.3 C 109.4 210.3 108.7 210.2 108.4 210 C 108.4 210 108.7 208.1 108.7 208.1 Z M 120.4 197.1 C 120.4 192.9 122.6 189.5 126.3 189.5 C 130.1 189.5 132 192.9 132 197.2 C 132 197.18 132 197.8 132 197.8 C 132 197.8 122.61 197.84 122.6 197.8 C 122.7 200.7 124.2 202.9 126.8 202.9 C 128 202.9 129.3 202.3 130.2 201.2 C 130.2 201.2 131.4 202.4 131.4 202.4 C 130.2 203.9 128.5 204.7 126.6 204.7 C 122.7 204.7 120.4 201.6 120.4 197.1 Z M 126.2 191.3 C 123.7 191.3 122.7 194.1 122.6 196.2 C 122.6 196.2 129.9 196.2 129.9 196.2 C 129.8 194 128.9 191.3 126.2 191.3 Z M 135.5 208.2 C 135.5 208.2 134.5 207.3 134.5 207.3 C 135.4 206.6 136.3 205.5 136.4 204.5 C 136.3 204.5 136.1 204.5 136 204.5 C 135.2 204.5 134.6 203.9 134.6 203.1 C 134.6 202.2 135.2 201.5 136.1 201.5 C 137.1 201.5 137.9 202.3 137.9 203.7 C 137.9 205.5 136.9 207.2 135.5 208.2 Z M 151.7 204.4 L 151.7 195.9 L 145.6 184.4 L 148.2 184.4 L 152.9 193.6 L 157.6 184.4 L 160.3 184.4 L 154.1 195.9 L 154.1 204.4 L 151.7 204.4 Z M 158.6 197.1 C 158.6 192.9 160.8 189.5 164.5 189.5 C 168.3 189.5 170.2 192.9 170.2 197.2 C 170.22 197.18 170.2 197.8 170.2 197.8 C 170.2 197.8 160.83 197.84 160.8 197.8 C 160.9 200.7 162.4 202.9 165 202.9 C 166.3 202.9 167.5 202.3 168.4 201.2 C 168.4 201.2 169.6 202.4 169.6 202.4 C 168.4 203.9 166.8 204.7 164.8 204.7 C 160.9 204.7 158.6 201.6 158.6 197.1 Z M 164.5 191.3 C 161.9 191.3 160.9 194.1 160.8 196.2 C 160.8 196.2 168.1 196.2 168.1 196.2 C 168.1 194 167.1 191.3 164.5 191.3 Z M 173.1 204.4 L 173.1 184.4 L 175.2 184.4 L 175.2 204.4 L 173.1 204.4 Z M 178.9 204.4 L 178.9 184.4 L 181 184.4 L 181 204.4 L 178.9 204.4 Z M 183.9 197.1 C 183.9 193 186 189.5 189.8 189.5 C 193.7 189.5 195.7 193 195.7 197.1 C 195.7 201.2 193.7 204.7 189.8 204.7 C 186 204.7 183.9 201.2 183.9 197.1 Z M 193.5 197.1 C 193.5 194.2 192.4 191.4 189.8 191.4 C 187.3 191.4 186.2 194.2 186.2 197.1 C 186.2 200.1 187.3 202.8 189.8 202.8 C 192.4 202.8 193.5 200.1 193.5 197.1 Z M 209.3 204.4 L 206.2 192.7 L 203.1 204.4 L 200.9 204.4 L 197.1 189.9 L 199.3 189.9 L 202.1 201.5 L 205.2 189.9 L 207.2 189.9 L 210.3 201.5 L 213.2 189.9 L 215.4 189.9 L 211.6 204.4 L 209.3 204.4 Z M 223.2 201.5 C 223.2 201.5 224.8 200 224.8 200 C 225.8 201.7 227.1 202.6 229 202.6 C 231.2 202.6 232.6 200.6 232.6 198.3 C 232.6 195.4 231.3 193.8 229.2 193.8 C 227.8 193.8 226.7 194.4 225.6 195.7 C 225.56 195.71 223.8 195.1 223.8 195.1 L 223.8 184.4 L 234 184.4 L 234 186.5 L 226.2 186.5 C 226.2 186.5 226.16 193.49 226.2 193.5 C 226.9 192.5 228.3 191.7 229.9 191.7 C 232.7 191.7 235 194 235 198.2 C 235 202 232.6 204.7 229.1 204.7 C 226.2 204.7 224.5 203.5 223.2 201.5 Z " stroke="none" fill="#d3d2d2"/>  </g>  <g id="Polygon222917">    <path d="M 12.5 168.4 L 11.2 163.8 L 4.1 163.8 L 2.8 168.4 L 0.2 168.4 L 6.2 148.4 L 9.1 148.4 L 15.1 168.4 L 12.5 168.4 Z M 7.6 151 L 4.6 161.7 L 10.7 161.7 L 7.6 151 Z M 17 168.4 L 17 153.9 L 19.1 153.9 C 19.1 153.9 19.14 156.2 19.1 156.2 C 20.1 154.7 21.5 153.6 23.2 153.6 C 23.2 153.6 23.2 155.8 23.2 155.8 C 23 155.7 22.8 155.7 22.5 155.7 C 21.2 155.7 19.7 156.9 19.1 158.1 C 19.14 158.09 19.1 168.4 19.1 168.4 L 17 168.4 Z M 25.9 165.5 C 25.86 165.47 25.9 155.8 25.9 155.8 L 23.9 155.8 L 23.9 153.9 L 25.9 153.9 L 25.9 149.9 L 28 149.9 L 28 153.9 L 30.5 153.9 L 30.5 155.8 L 28 155.8 C 28 155.8 28.02 165.08 28 165.1 C 28 166.2 28.3 166.8 29.2 166.8 C 29.7 166.8 30.2 166.6 30.4 166.2 C 30.4 166.2 31.1 167.9 31.1 167.9 C 30.6 168.4 29.9 168.7 28.8 168.7 C 26.8 168.7 25.9 167.6 25.9 165.5 Z M 32.6 150.3 C 32.6 149.5 33.3 148.8 34.1 148.8 C 34.9 148.8 35.5 149.5 35.5 150.3 C 35.5 151.1 34.9 151.8 34.1 151.8 C 33.3 151.8 32.6 151.1 32.6 150.3 Z M 33 168.4 L 33 153.9 L 35.2 153.9 L 35.2 168.4 L 33 168.4 Z M 39.3 168.4 L 39.3 155.8 L 37.4 155.8 L 37.4 153.9 L 39.3 153.9 C 39.3 153.9 39.33 152.12 39.3 152.1 C 39.3 149.6 40.8 148.1 42.9 148.1 C 43.6 148.1 44.2 148.2 44.7 148.5 C 44.7 148.5 44.2 150.2 44.2 150.2 C 43.9 150 43.6 149.9 43.2 149.9 C 42.1 149.9 41.5 150.7 41.5 152.1 C 41.49 152.12 41.5 153.9 41.5 153.9 L 43.9 153.9 L 43.9 155.8 L 41.5 155.8 L 41.5 168.4 L 39.3 168.4 Z M 46 150.3 C 46 149.5 46.7 148.8 47.5 148.8 C 48.3 148.8 49 149.5 49 150.3 C 49 151.1 48.3 151.8 47.5 151.8 C 46.7 151.8 46 151.1 46 150.3 Z M 46.4 168.4 L 46.4 153.9 L 48.6 153.9 L 48.6 168.4 L 46.4 168.4 Z M 51.5 161.1 C 51.5 156.8 53.8 153.5 57.5 153.5 C 59.5 153.5 60.7 154.3 61.6 155.4 C 61.6 155.4 60.5 156.9 60.5 156.9 C 59.7 155.9 58.8 155.4 57.7 155.4 C 55.1 155.4 53.8 158 53.8 161.1 C 53.8 164.2 55.1 166.8 57.7 166.8 C 58.8 166.8 59.7 166.4 60.5 165.3 C 60.5 165.3 61.6 166.8 61.6 166.8 C 60.7 168 59.5 168.7 57.5 168.7 C 53.8 168.7 51.5 165.4 51.5 161.1 Z M 63.7 150.3 C 63.7 149.5 64.4 148.8 65.2 148.8 C 66 148.8 66.6 149.5 66.6 150.3 C 66.6 151.1 66 151.8 65.2 151.8 C 64.4 151.8 63.7 151.1 63.7 150.3 Z M 64.1 168.4 L 64.1 153.9 L 66.2 153.9 L 66.2 168.4 L 64.1 168.4 Z M 77.3 168.4 C 77.3 168.4 77.34 166.82 77.3 166.8 C 76.4 168.1 75 168.7 73.5 168.7 C 71.2 168.7 69.1 166.9 69.1 163.9 C 69.1 160.9 71.2 159.1 73.5 159.1 C 75 159.1 76.4 159.7 77.3 161 C 77.3 161 77.3 158.5 77.3 158.5 C 77.3 156.5 76.3 155.4 74.4 155.4 C 73 155.4 71.8 155.9 70.7 157.2 C 70.7 157.2 69.8 155.6 69.8 155.6 C 71.2 154.2 72.9 153.5 74.7 153.5 C 77.6 153.5 79.5 154.9 79.5 158.2 C 79.5 158.24 79.5 168.4 79.5 168.4 L 77.3 168.4 Z M 77.3 165.3 C 77.3 165.3 77.3 162.6 77.3 162.6 C 76.7 161.4 75.5 160.7 74.2 160.7 C 72.4 160.7 71.3 162.1 71.3 163.9 C 71.3 165.7 72.4 167.2 74.2 167.2 C 75.5 167.2 76.7 166.5 77.3 165.3 Z M 83.1 168.4 L 83.1 148.4 L 85.3 148.4 L 85.3 168.4 L 83.1 168.4 Z M 103.3 168.4 C 103.3 168.4 103.35 166.31 103.3 166.3 C 102.5 167.8 101.1 168.7 99.5 168.7 C 96.3 168.7 94.3 165.7 94.3 161.1 C 94.3 156.6 96.3 153.5 99.5 153.5 C 101 153.5 102.5 154.4 103.3 156 C 103.35 155.99 103.3 148.4 103.3 148.4 L 105.5 148.4 L 105.5 168.4 L 103.3 168.4 Z M 103.3 164.5 C 103.3 164.5 103.3 157.8 103.3 157.8 C 102.8 156.6 101.5 155.4 100.1 155.4 C 97.7 155.4 96.6 158 96.6 161.1 C 96.6 164.3 97.7 166.8 100.1 166.8 C 101.5 166.8 102.8 165.7 103.3 164.5 Z M 108.7 172.1 C 109 172.3 109.5 172.3 109.7 172.3 C 110.5 172.3 111 172 111.4 170.9 C 111.42 170.9 112.2 168.7 112.2 168.7 L 107.4 153.9 L 109.7 153.9 L 113.3 165.8 L 116.9 153.9 L 119.2 153.9 C 119.2 153.9 113.46 171.44 113.5 171.4 C 112.7 173.5 111.6 174.3 109.9 174.3 C 109.4 174.3 108.7 174.2 108.4 174 C 108.4 174 108.7 172.1 108.7 172.1 Z M 120.4 161.1 C 120.4 156.9 122.6 153.5 126.3 153.5 C 130.1 153.5 132 156.9 132 161.2 C 132 161.18 132 161.8 132 161.8 C 132 161.8 122.61 161.84 122.6 161.8 C 122.7 164.7 124.2 166.9 126.8 166.9 C 128 166.9 129.3 166.3 130.2 165.2 C 130.2 165.2 131.4 166.4 131.4 166.4 C 130.2 167.9 128.5 168.7 126.6 168.7 C 122.7 168.7 120.4 165.6 120.4 161.1 Z M 126.2 155.3 C 123.7 155.3 122.7 158.1 122.6 160.2 C 122.6 160.2 129.9 160.2 129.9 160.2 C 129.8 158 128.9 155.3 126.2 155.3 Z M 135.5 172.2 C 135.5 172.2 134.5 171.3 134.5 171.3 C 135.4 170.6 136.3 169.5 136.4 168.5 C 136.3 168.5 136.1 168.5 136 168.5 C 135.2 168.5 134.6 167.9 134.6 167.1 C 134.6 166.2 135.2 165.5 136.1 165.5 C 137.1 165.5 137.9 166.3 137.9 167.7 C 137.9 169.5 136.9 171.2 135.5 172.2 Z M 156.7 168.4 L 152.8 160.4 L 149.9 160.4 L 149.9 168.4 L 147.5 168.4 L 147.5 148.4 C 147.5 148.4 153.66 148.37 153.7 148.4 C 156.9 148.4 159.1 150.7 159.1 154.3 C 159.1 157.9 157.1 159.6 155.2 160 C 155.16 160.01 159.4 168.4 159.4 168.4 L 156.7 168.4 Z M 156.7 154.4 C 156.7 152.1 155.5 150.5 153.4 150.5 C 153.39 150.47 149.9 150.5 149.9 150.5 L 149.9 158.3 C 149.9 158.3 153.39 158.27 153.4 158.3 C 155.5 158.3 156.7 156.6 156.7 154.4 Z M 160.9 161.1 C 160.9 156.9 163.1 153.5 166.8 153.5 C 170.6 153.5 172.5 156.9 172.5 161.2 C 172.53 161.18 172.5 161.8 172.5 161.8 C 172.5 161.8 163.14 161.84 163.1 161.8 C 163.2 164.7 164.7 166.9 167.3 166.9 C 168.6 166.9 169.9 166.3 170.8 165.2 C 170.8 165.2 171.9 166.4 171.9 166.4 C 170.7 167.9 169.1 168.7 167.1 168.7 C 163.3 168.7 160.9 165.6 160.9 161.1 Z M 166.8 155.3 C 164.2 155.3 163.2 158.1 163.1 160.2 C 163.1 160.2 170.4 160.2 170.4 160.2 C 170.4 158 169.4 155.3 166.8 155.3 Z M 183.7 168.4 C 183.7 168.4 183.65 166.31 183.7 166.3 C 182.8 167.8 181.4 168.7 179.8 168.7 C 176.6 168.7 174.7 165.7 174.7 161.1 C 174.7 156.6 176.6 153.5 179.8 153.5 C 181.3 153.5 182.8 154.4 183.7 156 C 183.65 155.99 183.7 148.4 183.7 148.4 L 185.8 148.4 L 185.8 168.4 L 183.7 168.4 Z M 183.7 164.5 C 183.7 164.5 183.7 157.8 183.7 157.8 C 183.1 156.6 181.8 155.4 180.4 155.4 C 178 155.4 176.9 158 176.9 161.1 C 176.9 164.3 178 166.8 180.4 166.8 C 181.8 166.8 183.1 165.7 183.7 164.5 Z M 202.3 168.4 L 202.3 163.2 L 194.3 163.2 L 194.3 161.2 L 201.6 148.4 L 204.6 148.4 L 204.6 161.1 L 206.8 161.1 L 206.8 163.2 L 204.6 163.2 L 204.6 168.4 L 202.3 168.4 Z M 202.3 150.9 L 196.5 161.1 L 202.3 161.1 L 202.3 150.9 Z M 208.6 158.4 C 208.6 153.6 210.2 148.1 214.9 148.1 C 219.6 148.1 221.2 153.6 221.2 158.4 C 221.2 163.2 219.6 168.7 214.9 168.7 C 210.2 168.7 208.6 163.2 208.6 158.4 Z M 218.7 158.4 C 218.7 154.4 218 150.2 214.9 150.2 C 211.8 150.2 211.1 154.4 211.1 158.4 C 211.1 162.3 211.8 166.6 214.9 166.6 C 218 166.6 218.7 162.3 218.7 158.4 Z " stroke="none" fill="#d3d2d2"/>  </g>  <g id="Polygon222916">    <path d="M 12.5 132.4 L 11.2 127.8 L 4.1 127.8 L 2.8 132.4 L 0.2 132.4 L 6.2 112.4 L 9.1 112.4 L 15.1 132.4 L 12.5 132.4 Z M 7.6 115 L 4.6 125.7 L 10.7 125.7 L 7.6 115 Z M 17 132.4 L 17 117.9 L 19.1 117.9 C 19.1 117.9 19.14 120.2 19.1 120.2 C 20.1 118.7 21.5 117.6 23.2 117.6 C 23.2 117.6 23.2 119.8 23.2 119.8 C 23 119.7 22.8 119.7 22.5 119.7 C 21.2 119.7 19.7 120.9 19.1 122.1 C 19.14 122.09 19.1 132.4 19.1 132.4 L 17 132.4 Z M 25.9 129.5 C 25.86 129.47 25.9 119.8 25.9 119.8 L 23.9 119.8 L 23.9 117.9 L 25.9 117.9 L 25.9 113.9 L 28 113.9 L 28 117.9 L 30.5 117.9 L 30.5 119.8 L 28 119.8 C 28 119.8 28.02 129.08 28 129.1 C 28 130.2 28.3 130.8 29.2 130.8 C 29.7 130.8 30.2 130.6 30.4 130.2 C 30.4 130.2 31.1 131.9 31.1 131.9 C 30.6 132.4 29.9 132.7 28.8 132.7 C 26.8 132.7 25.9 131.6 25.9 129.5 Z M 32.6 114.3 C 32.6 113.5 33.3 112.8 34.1 112.8 C 34.9 112.8 35.5 113.5 35.5 114.3 C 35.5 115.1 34.9 115.8 34.1 115.8 C 33.3 115.8 32.6 115.1 32.6 114.3 Z M 33 132.4 L 33 117.9 L 35.2 117.9 L 35.2 132.4 L 33 132.4 Z M 39.3 132.4 L 39.3 119.8 L 37.4 119.8 L 37.4 117.9 L 39.3 117.9 C 39.3 117.9 39.33 116.12 39.3 116.1 C 39.3 113.6 40.8 112.1 42.9 112.1 C 43.6 112.1 44.2 112.2 44.7 112.5 C 44.7 112.5 44.2 114.2 44.2 114.2 C 43.9 114 43.6 113.9 43.2 113.9 C 42.1 113.9 41.5 114.7 41.5 116.1 C 41.49 116.12 41.5 117.9 41.5 117.9 L 43.9 117.9 L 43.9 119.8 L 41.5 119.8 L 41.5 132.4 L 39.3 132.4 Z M 46 114.3 C 46 113.5 46.7 112.8 47.5 112.8 C 48.3 112.8 49 113.5 49 114.3 C 49 115.1 48.3 115.8 47.5 115.8 C 46.7 115.8 46 115.1 46 114.3 Z M 46.4 132.4 L 46.4 117.9 L 48.6 117.9 L 48.6 132.4 L 46.4 132.4 Z M 51.5 125.1 C 51.5 120.8 53.8 117.5 57.5 117.5 C 59.5 117.5 60.7 118.3 61.6 119.4 C 61.6 119.4 60.5 120.9 60.5 120.9 C 59.7 119.9 58.8 119.4 57.7 119.4 C 55.1 119.4 53.8 122 53.8 125.1 C 53.8 128.2 55.1 130.8 57.7 130.8 C 58.8 130.8 59.7 130.4 60.5 129.3 C 60.5 129.3 61.6 130.8 61.6 130.8 C 60.7 132 59.5 132.7 57.5 132.7 C 53.8 132.7 51.5 129.4 51.5 125.1 Z M 63.7 114.3 C 63.7 113.5 64.4 112.8 65.2 112.8 C 66 112.8 66.6 113.5 66.6 114.3 C 66.6 115.1 66 115.8 65.2 115.8 C 64.4 115.8 63.7 115.1 63.7 114.3 Z M 64.1 132.4 L 64.1 117.9 L 66.2 117.9 L 66.2 132.4 L 64.1 132.4 Z M 77.3 132.4 C 77.3 132.4 77.34 130.82 77.3 130.8 C 76.4 132.1 75 132.7 73.5 132.7 C 71.2 132.7 69.1 130.9 69.1 127.9 C 69.1 124.9 71.2 123.1 73.5 123.1 C 75 123.1 76.4 123.7 77.3 125 C 77.3 125 77.3 122.5 77.3 122.5 C 77.3 120.5 76.3 119.4 74.4 119.4 C 73 119.4 71.8 119.9 70.7 121.2 C 70.7 121.2 69.8 119.6 69.8 119.6 C 71.2 118.2 72.9 117.5 74.7 117.5 C 77.6 117.5 79.5 118.9 79.5 122.2 C 79.5 122.24 79.5 132.4 79.5 132.4 L 77.3 132.4 Z M 77.3 129.3 C 77.3 129.3 77.3 126.6 77.3 126.6 C 76.7 125.4 75.5 124.7 74.2 124.7 C 72.4 124.7 71.3 126.1 71.3 127.9 C 71.3 129.7 72.4 131.2 74.2 131.2 C 75.5 131.2 76.7 130.5 77.3 129.3 Z M 83.1 132.4 L 83.1 112.4 L 85.3 112.4 L 85.3 132.4 L 83.1 132.4 Z M 103.3 132.4 C 103.3 132.4 103.35 130.31 103.3 130.3 C 102.5 131.8 101.1 132.7 99.5 132.7 C 96.3 132.7 94.3 129.7 94.3 125.1 C 94.3 120.6 96.3 117.5 99.5 117.5 C 101 117.5 102.5 118.4 103.3 120 C 103.35 119.99 103.3 112.4 103.3 112.4 L 105.5 112.4 L 105.5 132.4 L 103.3 132.4 Z M 103.3 128.5 C 103.3 128.5 103.3 121.8 103.3 121.8 C 102.8 120.6 101.5 119.4 100.1 119.4 C 97.7 119.4 96.6 122 96.6 125.1 C 96.6 128.3 97.7 130.8 100.1 130.8 C 101.5 130.8 102.8 129.7 103.3 128.5 Z M 108.7 136.1 C 109 136.3 109.5 136.3 109.7 136.3 C 110.5 136.3 111 136 111.4 134.9 C 111.42 134.9 112.2 132.7 112.2 132.7 L 107.4 117.9 L 109.7 117.9 L 113.3 129.8 L 116.9 117.9 L 119.2 117.9 C 119.2 117.9 113.46 135.44 113.5 135.4 C 112.7 137.5 111.6 138.3 109.9 138.3 C 109.4 138.3 108.7 138.2 108.4 138 C 108.4 138 108.7 136.1 108.7 136.1 Z M 120.4 125.1 C 120.4 120.9 122.6 117.5 126.3 117.5 C 130.1 117.5 132 120.9 132 125.2 C 132 125.18 132 125.8 132 125.8 C 132 125.8 122.61 125.84 122.6 125.8 C 122.7 128.7 124.2 130.9 126.8 130.9 C 128 130.9 129.3 130.3 130.2 129.2 C 130.2 129.2 131.4 130.4 131.4 130.4 C 130.2 131.9 128.5 132.7 126.6 132.7 C 122.7 132.7 120.4 129.6 120.4 125.1 Z M 126.2 119.3 C 123.7 119.3 122.7 122.1 122.6 124.2 C 122.6 124.2 129.9 124.2 129.9 124.2 C 129.8 122 128.9 119.3 126.2 119.3 Z M 135.5 136.2 C 135.5 136.2 134.5 135.3 134.5 135.3 C 135.4 134.6 136.3 133.5 136.4 132.5 C 136.3 132.5 136.1 132.5 136 132.5 C 135.2 132.5 134.6 131.9 134.6 131.1 C 134.6 130.2 135.2 129.5 136.1 129.5 C 137.1 129.5 137.9 130.3 137.9 131.7 C 137.9 133.5 136.9 135.2 135.5 136.2 Z M 156.7 132.4 L 152.8 124.4 L 149.9 124.4 L 149.9 132.4 L 147.5 132.4 L 147.5 112.4 C 147.5 112.4 153.66 112.37 153.7 112.4 C 156.9 112.4 159.1 114.7 159.1 118.3 C 159.1 121.9 157.1 123.6 155.2 124 C 155.16 124.01 159.4 132.4 159.4 132.4 L 156.7 132.4 Z M 156.7 118.4 C 156.7 116.1 155.5 114.5 153.4 114.5 C 153.39 114.47 149.9 114.5 149.9 114.5 L 149.9 122.3 C 149.9 122.3 153.39 122.27 153.4 122.3 C 155.5 122.3 156.7 120.6 156.7 118.4 Z M 160.9 125.1 C 160.9 120.9 163.1 117.5 166.8 117.5 C 170.6 117.5 172.5 120.9 172.5 125.2 C 172.53 125.18 172.5 125.8 172.5 125.8 C 172.5 125.8 163.14 125.84 163.1 125.8 C 163.2 128.7 164.7 130.9 167.3 130.9 C 168.6 130.9 169.9 130.3 170.8 129.2 C 170.8 129.2 171.9 130.4 171.9 130.4 C 170.7 131.9 169.1 132.7 167.1 132.7 C 163.3 132.7 160.9 129.6 160.9 125.1 Z M 166.8 119.3 C 164.2 119.3 163.2 122.1 163.1 124.2 C 163.1 124.2 170.4 124.2 170.4 124.2 C 170.4 122 169.4 119.3 166.8 119.3 Z M 183.7 132.4 C 183.7 132.4 183.65 130.31 183.7 130.3 C 182.8 131.8 181.4 132.7 179.8 132.7 C 176.6 132.7 174.7 129.7 174.7 125.1 C 174.7 120.6 176.6 117.5 179.8 117.5 C 181.3 117.5 182.8 118.4 183.7 120 C 183.65 119.99 183.7 112.4 183.7 112.4 L 185.8 112.4 L 185.8 132.4 L 183.7 132.4 Z M 183.7 128.5 C 183.7 128.5 183.7 121.8 183.7 121.8 C 183.1 120.6 181.8 119.4 180.4 119.4 C 178 119.4 176.9 122 176.9 125.1 C 176.9 128.3 178 130.8 180.4 130.8 C 181.8 130.8 183.1 129.7 183.7 128.5 Z M 194.5 129.4 C 194.5 129.4 196.1 128 196.1 128 C 197 129.5 198.5 130.6 200.4 130.6 C 202.8 130.6 204 129.1 204 126.8 C 204 124.1 202.2 123.2 200.2 123.2 C 199.6 123.2 198.9 123.2 198.6 123.2 C 198.6 123.2 198.6 121 198.6 121 C 198.9 121.1 199.6 121.1 200.1 121.1 C 202.1 121.1 203.8 120 203.8 117.7 C 203.8 115.3 202.3 114.2 200.3 114.2 C 198.5 114.2 197.3 115.1 196.3 116.6 C 196.3 116.6 194.8 115.2 194.8 115.2 C 196 113.3 198 112.1 200.5 112.1 C 203.7 112.1 206.1 113.8 206.1 117.4 C 206.1 119.9 204.4 121.6 202.6 122 C 204.3 122.3 206.4 124.1 206.4 127 C 206.4 130.3 204.3 132.7 200.5 132.7 C 197.6 132.7 195.5 131.2 194.5 129.4 Z " stroke="none" fill="#d3d2d2"/>  </g>  <g id="Polygon222915">    <path d="M 12.5 96.4 L 11.2 91.8 L 4.1 91.8 L 2.8 96.4 L 0.2 96.4 L 6.2 76.4 L 9.1 76.4 L 15.1 96.4 L 12.5 96.4 Z M 7.6 79 L 4.6 89.7 L 10.7 89.7 L 7.6 79 Z M 17 96.4 L 17 81.9 L 19.1 81.9 C 19.1 81.9 19.14 84.2 19.1 84.2 C 20.1 82.7 21.5 81.6 23.2 81.6 C 23.2 81.6 23.2 83.8 23.2 83.8 C 23 83.7 22.8 83.7 22.5 83.7 C 21.2 83.7 19.7 84.9 19.1 86.1 C 19.14 86.09 19.1 96.4 19.1 96.4 L 17 96.4 Z M 25.9 93.5 C 25.86 93.47 25.9 83.8 25.9 83.8 L 23.9 83.8 L 23.9 81.9 L 25.9 81.9 L 25.9 77.9 L 28 77.9 L 28 81.9 L 30.5 81.9 L 30.5 83.8 L 28 83.8 C 28 83.8 28.02 93.08 28 93.1 C 28 94.2 28.3 94.8 29.2 94.8 C 29.7 94.8 30.2 94.6 30.4 94.2 C 30.4 94.2 31.1 95.9 31.1 95.9 C 30.6 96.4 29.9 96.7 28.8 96.7 C 26.8 96.7 25.9 95.6 25.9 93.5 Z M 32.6 78.3 C 32.6 77.5 33.3 76.8 34.1 76.8 C 34.9 76.8 35.5 77.5 35.5 78.3 C 35.5 79.1 34.9 79.8 34.1 79.8 C 33.3 79.8 32.6 79.1 32.6 78.3 Z M 33 96.4 L 33 81.9 L 35.2 81.9 L 35.2 96.4 L 33 96.4 Z M 39.3 96.4 L 39.3 83.8 L 37.4 83.8 L 37.4 81.9 L 39.3 81.9 C 39.3 81.9 39.33 80.12 39.3 80.1 C 39.3 77.6 40.8 76.1 42.9 76.1 C 43.6 76.1 44.2 76.2 44.7 76.5 C 44.7 76.5 44.2 78.2 44.2 78.2 C 43.9 78 43.6 77.9 43.2 77.9 C 42.1 77.9 41.5 78.7 41.5 80.1 C 41.49 80.12 41.5 81.9 41.5 81.9 L 43.9 81.9 L 43.9 83.8 L 41.5 83.8 L 41.5 96.4 L 39.3 96.4 Z M 46 78.3 C 46 77.5 46.7 76.8 47.5 76.8 C 48.3 76.8 49 77.5 49 78.3 C 49 79.1 48.3 79.8 47.5 79.8 C 46.7 79.8 46 79.1 46 78.3 Z M 46.4 96.4 L 46.4 81.9 L 48.6 81.9 L 48.6 96.4 L 46.4 96.4 Z M 51.5 89.1 C 51.5 84.8 53.8 81.5 57.5 81.5 C 59.5 81.5 60.7 82.3 61.6 83.4 C 61.6 83.4 60.5 84.9 60.5 84.9 C 59.7 83.9 58.8 83.4 57.7 83.4 C 55.1 83.4 53.8 86 53.8 89.1 C 53.8 92.2 55.1 94.8 57.7 94.8 C 58.8 94.8 59.7 94.4 60.5 93.3 C 60.5 93.3 61.6 94.8 61.6 94.8 C 60.7 96 59.5 96.7 57.5 96.7 C 53.8 96.7 51.5 93.4 51.5 89.1 Z M 63.7 78.3 C 63.7 77.5 64.4 76.8 65.2 76.8 C 66 76.8 66.6 77.5 66.6 78.3 C 66.6 79.1 66 79.8 65.2 79.8 C 64.4 79.8 63.7 79.1 63.7 78.3 Z M 64.1 96.4 L 64.1 81.9 L 66.2 81.9 L 66.2 96.4 L 64.1 96.4 Z M 77.3 96.4 C 77.3 96.4 77.34 94.82 77.3 94.8 C 76.4 96.1 75 96.7 73.5 96.7 C 71.2 96.7 69.1 94.9 69.1 91.9 C 69.1 88.9 71.2 87.1 73.5 87.1 C 75 87.1 76.4 87.7 77.3 89 C 77.3 89 77.3 86.5 77.3 86.5 C 77.3 84.5 76.3 83.4 74.4 83.4 C 73 83.4 71.8 83.9 70.7 85.2 C 70.7 85.2 69.8 83.6 69.8 83.6 C 71.2 82.2 72.9 81.5 74.7 81.5 C 77.6 81.5 79.5 82.9 79.5 86.2 C 79.5 86.24 79.5 96.4 79.5 96.4 L 77.3 96.4 Z M 77.3 93.3 C 77.3 93.3 77.3 90.6 77.3 90.6 C 76.7 89.4 75.5 88.7 74.2 88.7 C 72.4 88.7 71.3 90.1 71.3 91.9 C 71.3 93.7 72.4 95.2 74.2 95.2 C 75.5 95.2 76.7 94.5 77.3 93.3 Z M 83.1 96.4 L 83.1 76.4 L 85.3 76.4 L 85.3 96.4 L 83.1 96.4 Z M 103.3 96.4 C 103.3 96.4 103.35 94.31 103.3 94.3 C 102.5 95.8 101.1 96.7 99.5 96.7 C 96.3 96.7 94.3 93.7 94.3 89.1 C 94.3 84.6 96.3 81.5 99.5 81.5 C 101 81.5 102.5 82.4 103.3 84 C 103.35 83.99 103.3 76.4 103.3 76.4 L 105.5 76.4 L 105.5 96.4 L 103.3 96.4 Z M 103.3 92.5 C 103.3 92.5 103.3 85.8 103.3 85.8 C 102.8 84.6 101.5 83.4 100.1 83.4 C 97.7 83.4 96.6 86 96.6 89.1 C 96.6 92.3 97.7 94.8 100.1 94.8 C 101.5 94.8 102.8 93.7 103.3 92.5 Z M 108.7 100.1 C 109 100.3 109.5 100.3 109.7 100.3 C 110.5 100.3 111 100 111.4 98.9 C 111.42 98.9 112.2 96.7 112.2 96.7 L 107.4 81.9 L 109.7 81.9 L 113.3 93.8 L 116.9 81.9 L 119.2 81.9 C 119.2 81.9 113.46 99.44 113.5 99.4 C 112.7 101.5 111.6 102.3 109.9 102.3 C 109.4 102.3 108.7 102.2 108.4 102 C 108.4 102 108.7 100.1 108.7 100.1 Z M 120.4 89.1 C 120.4 84.9 122.6 81.5 126.3 81.5 C 130.1 81.5 132 84.9 132 89.2 C 132 89.18 132 89.8 132 89.8 C 132 89.8 122.61 89.84 122.6 89.8 C 122.7 92.7 124.2 94.9 126.8 94.9 C 128 94.9 129.3 94.3 130.2 93.2 C 130.2 93.2 131.4 94.4 131.4 94.4 C 130.2 95.9 128.5 96.7 126.6 96.7 C 122.7 96.7 120.4 93.6 120.4 89.1 Z M 126.2 83.3 C 123.7 83.3 122.7 86.1 122.6 88.2 C 122.6 88.2 129.9 88.2 129.9 88.2 C 129.8 86 128.9 83.3 126.2 83.3 Z M 135.5 100.2 C 135.5 100.2 134.5 99.3 134.5 99.3 C 135.4 98.6 136.3 97.5 136.4 96.5 C 136.3 96.5 136.1 96.5 136 96.5 C 135.2 96.5 134.6 95.9 134.6 95.1 C 134.6 94.2 135.2 93.5 136.1 93.5 C 137.1 93.5 137.9 94.3 137.9 95.7 C 137.9 97.5 136.9 99.2 135.5 100.2 Z M 147.5 96.4 L 147.5 76.4 C 147.5 76.4 154.17 76.37 154.2 76.4 C 157.3 76.4 159.1 78.4 159.1 81.5 C 159.1 84 157.8 85.6 156.1 86.1 C 158 86.4 159.4 88.6 159.4 91 C 159.4 94.2 157.7 96.4 154.3 96.4 C 154.35 96.38 147.5 96.4 147.5 96.4 Z M 156.7 81.8 C 156.7 79.9 155.8 78.5 153.7 78.5 C 153.72 78.47 149.9 78.5 149.9 78.5 L 149.9 85.1 C 149.9 85.1 153.72 85.1 153.7 85.1 C 155.8 85.1 156.7 83.7 156.7 81.8 Z M 157 90.7 C 157 88.8 156 87.2 153.9 87.2 C 153.87 87.2 149.9 87.2 149.9 87.2 L 149.9 94.2 C 149.9 94.2 153.87 94.25 153.9 94.2 C 155.9 94.2 157 92.9 157 90.7 Z M 162.6 96.4 L 162.6 76.4 L 164.7 76.4 L 164.7 96.4 L 162.6 96.4 Z M 176.2 96.4 C 176.2 96.4 176.21 94.37 176.2 94.4 C 175.3 95.6 173.8 96.7 172 96.7 C 169.6 96.7 168.4 95.5 168.4 92.9 C 168.38 92.87 168.4 81.9 168.4 81.9 L 170.5 81.9 C 170.5 81.9 170.51 92.24 170.5 92.2 C 170.5 94.2 171.4 94.8 172.8 94.8 C 174.3 94.8 175.6 93.8 176.2 92.6 C 176.21 92.57 176.2 81.9 176.2 81.9 L 178.4 81.9 L 178.4 96.4 L 176.2 96.4 Z M 181.3 89.1 C 181.3 84.9 183.5 81.5 187.2 81.5 C 191 81.5 192.9 84.9 192.9 89.2 C 192.92 89.18 192.9 89.8 192.9 89.8 C 192.9 89.8 183.53 89.84 183.5 89.8 C 183.6 92.7 185.1 94.9 187.7 94.9 C 189 94.9 190.3 94.3 191.2 93.2 C 191.2 93.2 192.3 94.4 192.3 94.4 C 191.1 95.9 189.5 96.7 187.5 96.7 C 183.7 96.7 181.3 93.6 181.3 89.1 Z M 187.2 83.3 C 184.6 83.3 183.6 86.1 183.5 88.2 C 183.5 88.2 190.8 88.2 190.8 88.2 C 190.8 86 189.8 83.3 187.2 83.3 Z M 201.5 96.4 C 201.5 96.4 201.53 94.43 201.5 94.4 C 208.1 86.9 210.3 84.5 210.3 81.5 C 210.3 79.4 208.8 78.2 207.1 78.2 C 205.2 78.2 203.8 79.1 202.9 80.7 C 202.9 80.7 201.3 79.3 201.3 79.3 C 202.6 77.2 204.6 76.1 207.1 76.1 C 210.2 76.1 212.8 78 212.8 81.5 C 212.8 84.9 210.2 87.9 204.9 94.2 C 204.92 94.25 212.8 94.2 212.8 94.2 L 212.8 96.4 L 201.5 96.4 Z " stroke="none" fill="#d3d2d2"/>  </g>  <g id="Polygon222914">    <path d="M 12.5 60.4 L 11.2 55.8 L 4.1 55.8 L 2.8 60.4 L 0.2 60.4 L 6.2 40.4 L 9.1 40.4 L 15.1 60.4 L 12.5 60.4 Z M 7.6 43 L 4.6 53.7 L 10.7 53.7 L 7.6 43 Z M 17 60.4 L 17 45.9 L 19.1 45.9 C 19.1 45.9 19.14 48.2 19.1 48.2 C 20.1 46.7 21.5 45.6 23.2 45.6 C 23.2 45.6 23.2 47.8 23.2 47.8 C 23 47.7 22.8 47.7 22.5 47.7 C 21.2 47.7 19.7 48.9 19.1 50.1 C 19.14 50.09 19.1 60.4 19.1 60.4 L 17 60.4 Z M 25.9 57.5 C 25.86 57.47 25.9 47.8 25.9 47.8 L 23.9 47.8 L 23.9 45.9 L 25.9 45.9 L 25.9 41.9 L 28 41.9 L 28 45.9 L 30.5 45.9 L 30.5 47.8 L 28 47.8 C 28 47.8 28.02 57.08 28 57.1 C 28 58.2 28.3 58.8 29.2 58.8 C 29.7 58.8 30.2 58.6 30.4 58.2 C 30.4 58.2 31.1 59.9 31.1 59.9 C 30.6 60.4 29.9 60.7 28.8 60.7 C 26.8 60.7 25.9 59.6 25.9 57.5 Z M 32.6 42.3 C 32.6 41.5 33.3 40.8 34.1 40.8 C 34.9 40.8 35.5 41.5 35.5 42.3 C 35.5 43.1 34.9 43.8 34.1 43.8 C 33.3 43.8 32.6 43.1 32.6 42.3 Z M 33 60.4 L 33 45.9 L 35.2 45.9 L 35.2 60.4 L 33 60.4 Z M 39.3 60.4 L 39.3 47.8 L 37.4 47.8 L 37.4 45.9 L 39.3 45.9 C 39.3 45.9 39.33 44.12 39.3 44.1 C 39.3 41.6 40.8 40.1 42.9 40.1 C 43.6 40.1 44.2 40.2 44.7 40.5 C 44.7 40.5 44.2 42.2 44.2 42.2 C 43.9 42 43.6 41.9 43.2 41.9 C 42.1 41.9 41.5 42.7 41.5 44.1 C 41.49 44.12 41.5 45.9 41.5 45.9 L 43.9 45.9 L 43.9 47.8 L 41.5 47.8 L 41.5 60.4 L 39.3 60.4 Z M 46 42.3 C 46 41.5 46.7 40.8 47.5 40.8 C 48.3 40.8 49 41.5 49 42.3 C 49 43.1 48.3 43.8 47.5 43.8 C 46.7 43.8 46 43.1 46 42.3 Z M 46.4 60.4 L 46.4 45.9 L 48.6 45.9 L 48.6 60.4 L 46.4 60.4 Z M 51.5 53.1 C 51.5 48.8 53.8 45.5 57.5 45.5 C 59.5 45.5 60.7 46.3 61.6 47.4 C 61.6 47.4 60.5 48.9 60.5 48.9 C 59.7 47.9 58.8 47.4 57.7 47.4 C 55.1 47.4 53.8 50 53.8 53.1 C 53.8 56.2 55.1 58.8 57.7 58.8 C 58.8 58.8 59.7 58.4 60.5 57.3 C 60.5 57.3 61.6 58.8 61.6 58.8 C 60.7 60 59.5 60.7 57.5 60.7 C 53.8 60.7 51.5 57.4 51.5 53.1 Z M 63.7 42.3 C 63.7 41.5 64.4 40.8 65.2 40.8 C 66 40.8 66.6 41.5 66.6 42.3 C 66.6 43.1 66 43.8 65.2 43.8 C 64.4 43.8 63.7 43.1 63.7 42.3 Z M 64.1 60.4 L 64.1 45.9 L 66.2 45.9 L 66.2 60.4 L 64.1 60.4 Z M 77.3 60.4 C 77.3 60.4 77.34 58.82 77.3 58.8 C 76.4 60.1 75 60.7 73.5 60.7 C 71.2 60.7 69.1 58.9 69.1 55.9 C 69.1 52.9 71.2 51.1 73.5 51.1 C 75 51.1 76.4 51.7 77.3 53 C 77.3 53 77.3 50.5 77.3 50.5 C 77.3 48.5 76.3 47.4 74.4 47.4 C 73 47.4 71.8 47.9 70.7 49.2 C 70.7 49.2 69.8 47.6 69.8 47.6 C 71.2 46.2 72.9 45.5 74.7 45.5 C 77.6 45.5 79.5 46.9 79.5 50.2 C 79.5 50.24 79.5 60.4 79.5 60.4 L 77.3 60.4 Z M 77.3 57.3 C 77.3 57.3 77.3 54.6 77.3 54.6 C 76.7 53.4 75.5 52.7 74.2 52.7 C 72.4 52.7 71.3 54.1 71.3 55.9 C 71.3 57.7 72.4 59.2 74.2 59.2 C 75.5 59.2 76.7 58.5 77.3 57.3 Z M 83.1 60.4 L 83.1 40.4 L 85.3 40.4 L 85.3 60.4 L 83.1 60.4 Z M 103.3 60.4 C 103.3 60.4 103.35 58.31 103.3 58.3 C 102.5 59.8 101.1 60.7 99.5 60.7 C 96.3 60.7 94.3 57.7 94.3 53.1 C 94.3 48.6 96.3 45.5 99.5 45.5 C 101 45.5 102.5 46.4 103.3 48 C 103.35 47.99 103.3 40.4 103.3 40.4 L 105.5 40.4 L 105.5 60.4 L 103.3 60.4 Z M 103.3 56.5 C 103.3 56.5 103.3 49.8 103.3 49.8 C 102.8 48.6 101.5 47.4 100.1 47.4 C 97.7 47.4 96.6 50 96.6 53.1 C 96.6 56.3 97.7 58.8 100.1 58.8 C 101.5 58.8 102.8 57.7 103.3 56.5 Z M 108.7 64.1 C 109 64.3 109.5 64.3 109.7 64.3 C 110.5 64.3 111 64 111.4 62.9 C 111.42 62.9 112.2 60.7 112.2 60.7 L 107.4 45.9 L 109.7 45.9 L 113.3 57.8 L 116.9 45.9 L 119.2 45.9 C 119.2 45.9 113.46 63.44 113.5 63.4 C 112.7 65.5 111.6 66.3 109.9 66.3 C 109.4 66.3 108.7 66.2 108.4 66 C 108.4 66 108.7 64.1 108.7 64.1 Z M 120.4 53.1 C 120.4 48.9 122.6 45.5 126.3 45.5 C 130.1 45.5 132 48.9 132 53.2 C 132 53.18 132 53.8 132 53.8 C 132 53.8 122.61 53.84 122.6 53.8 C 122.7 56.7 124.2 58.9 126.8 58.9 C 128 58.9 129.3 58.3 130.2 57.2 C 130.2 57.2 131.4 58.4 131.4 58.4 C 130.2 59.9 128.5 60.7 126.6 60.7 C 122.7 60.7 120.4 57.6 120.4 53.1 Z M 126.2 47.3 C 123.7 47.3 122.7 50.1 122.6 52.2 C 122.6 52.2 129.9 52.2 129.9 52.2 C 129.8 50 128.9 47.3 126.2 47.3 Z M 135.5 64.2 C 135.5 64.2 134.5 63.3 134.5 63.3 C 135.4 62.6 136.3 61.5 136.4 60.5 C 136.3 60.5 136.1 60.5 136 60.5 C 135.2 60.5 134.6 59.9 134.6 59.1 C 134.6 58.2 135.2 57.5 136.1 57.5 C 137.1 57.5 137.9 58.3 137.9 59.7 C 137.9 61.5 136.9 63.2 135.5 64.2 Z M 147.5 60.4 L 147.5 40.4 C 147.5 40.4 154.17 40.37 154.2 40.4 C 157.3 40.4 159.1 42.4 159.1 45.5 C 159.1 48 157.8 49.6 156.1 50.1 C 158 50.4 159.4 52.6 159.4 55 C 159.4 58.2 157.7 60.4 154.3 60.4 C 154.35 60.38 147.5 60.4 147.5 60.4 Z M 156.7 45.8 C 156.7 43.9 155.8 42.5 153.7 42.5 C 153.72 42.47 149.9 42.5 149.9 42.5 L 149.9 49.1 C 149.9 49.1 153.72 49.1 153.7 49.1 C 155.8 49.1 156.7 47.7 156.7 45.8 Z M 157 54.7 C 157 52.8 156 51.2 153.9 51.2 C 153.87 51.2 149.9 51.2 149.9 51.2 L 149.9 58.2 C 149.9 58.2 153.87 58.25 153.9 58.2 C 155.9 58.2 157 56.9 157 54.7 Z M 162.6 60.4 L 162.6 40.4 L 164.7 40.4 L 164.7 60.4 L 162.6 60.4 Z M 176.2 60.4 C 176.2 60.4 176.21 58.37 176.2 58.4 C 175.3 59.6 173.8 60.7 172 60.7 C 169.6 60.7 168.4 59.5 168.4 56.9 C 168.38 56.87 168.4 45.9 168.4 45.9 L 170.5 45.9 C 170.5 45.9 170.51 56.24 170.5 56.2 C 170.5 58.2 171.4 58.8 172.8 58.8 C 174.3 58.8 175.6 57.8 176.2 56.6 C 176.21 56.57 176.2 45.9 176.2 45.9 L 178.4 45.9 L 178.4 60.4 L 176.2 60.4 Z M 181.3 53.1 C 181.3 48.9 183.5 45.5 187.2 45.5 C 191 45.5 192.9 48.9 192.9 53.2 C 192.92 53.18 192.9 53.8 192.9 53.8 C 192.9 53.8 183.53 53.84 183.5 53.8 C 183.6 56.7 185.1 58.9 187.7 58.9 C 189 58.9 190.3 58.3 191.2 57.2 C 191.2 57.2 192.3 58.4 192.3 58.4 C 191.1 59.9 189.5 60.7 187.5 60.7 C 183.7 60.7 181.3 57.6 181.3 53.1 Z M 187.2 47.3 C 184.6 47.3 183.6 50.1 183.5 52.2 C 183.5 52.2 190.8 52.2 190.8 52.2 C 190.8 50 189.8 47.3 187.2 47.3 Z M 204.9 60.4 L 204.9 43.5 L 201.8 46.8 L 200.4 45.3 L 205.2 40.4 L 207.3 40.4 L 207.3 60.4 L 204.9 60.4 Z " stroke="none" fill="#d3d2d2"/>  </g>  <g id="Polygon222913">    <path d="M 12.5 24.4 L 11.2 19.8 L 4.1 19.8 L 2.8 24.4 L 0.2 24.4 L 6.2 4.4 L 9.1 4.4 L 15.1 24.4 L 12.5 24.4 Z M 7.6 7 L 4.6 17.7 L 10.7 17.7 L 7.6 7 Z M 16.2 17.1 C 16.2 12.8 18.5 9.5 22.2 9.5 C 24.2 9.5 25.5 10.3 26.4 11.4 C 26.4 11.4 25.2 12.9 25.2 12.9 C 24.4 11.9 23.5 11.4 22.4 11.4 C 19.8 11.4 18.5 14 18.5 17.1 C 18.5 20.2 19.8 22.8 22.4 22.8 C 23.5 22.8 24.4 22.4 25.2 21.3 C 25.2 21.3 26.4 22.8 26.4 22.8 C 25.5 24 24.2 24.7 22.2 24.7 C 18.5 24.7 16.2 21.4 16.2 17.1 Z M 28.8 24.4 L 28.8 9.9 L 31 9.9 C 31 9.9 30.96 12.2 31 12.2 C 31.9 10.7 33.3 9.6 35.1 9.6 C 35.1 9.6 35.1 11.8 35.1 11.8 C 34.8 11.7 34.6 11.7 34.3 11.7 C 33 11.7 31.6 12.9 31 14.1 C 30.96 14.09 31 24.4 31 24.4 L 28.8 24.4 Z M 36.8 28.1 C 37.1 28.3 37.6 28.3 37.8 28.3 C 38.6 28.3 39.1 28 39.5 26.9 C 39.51 26.9 40.3 24.7 40.3 24.7 L 35.5 9.9 L 37.8 9.9 L 41.4 21.8 L 45 9.9 L 47.3 9.9 C 47.3 9.9 41.55 27.44 41.5 27.4 C 40.8 29.5 39.7 30.3 37.9 30.3 C 37.5 30.3 36.8 30.2 36.5 30 C 36.5 30 36.8 28.1 36.8 28.1 Z M 49.2 24.4 L 49.2 4.4 L 51.3 4.4 L 51.3 24.4 L 49.2 24.4 Z M 54.6 6.3 C 54.6 5.5 55.3 4.8 56 4.8 C 56.8 4.8 57.5 5.5 57.5 6.3 C 57.5 7.1 56.8 7.8 56 7.8 C 55.3 7.8 54.6 7.1 54.6 6.3 Z M 55 24.4 L 55 9.9 L 57.1 9.9 L 57.1 24.4 L 55 24.4 Z M 60.1 17.1 C 60.1 12.8 62.3 9.5 66.1 9.5 C 68.1 9.5 69.3 10.3 70.2 11.4 C 70.2 11.4 69 12.9 69 12.9 C 68.2 11.9 67.3 11.4 66.2 11.4 C 63.7 11.4 62.3 14 62.3 17.1 C 62.3 20.2 63.7 22.8 66.2 22.8 C 67.3 22.8 68.2 22.4 69 21.3 C 69 21.3 70.2 22.8 70.2 22.8 C 69.3 24 68.1 24.7 66.1 24.7 C 62.3 24.7 60.1 21.4 60.1 17.1 Z M 80.9 22.3 C 80.94 22.28 80.9 29.9 80.9 29.9 L 78.8 29.9 L 78.8 9.9 L 80.9 9.9 C 80.9 9.9 80.94 11.96 80.9 12 C 81.8 10.5 83.2 9.5 84.7 9.5 C 88 9.5 89.9 12.6 89.9 17.1 C 89.9 21.6 88 24.7 84.7 24.7 C 83.3 24.7 81.8 23.9 80.9 22.3 Z M 87.7 17.1 C 87.7 14 86.6 11.4 84.2 11.4 C 82.9 11.4 81.5 12.5 80.9 13.8 C 80.9 13.8 80.9 20.4 80.9 20.4 C 81.5 21.7 82.9 22.8 84.2 22.8 C 86.6 22.8 87.7 20.3 87.7 17.1 Z M 100.3 24.4 C 100.3 24.4 100.29 22.82 100.3 22.8 C 99.4 24.1 97.9 24.7 96.5 24.7 C 94.1 24.7 92.1 22.9 92.1 19.9 C 92.1 16.9 94.1 15.1 96.5 15.1 C 97.9 15.1 99.4 15.7 100.3 17 C 100.3 17 100.3 14.5 100.3 14.5 C 100.3 12.5 99.2 11.4 97.3 11.4 C 96 11.4 94.8 11.9 93.7 13.2 C 93.7 13.2 92.7 11.6 92.7 11.6 C 94.1 10.2 95.8 9.5 97.6 9.5 C 100.5 9.5 102.4 10.9 102.4 14.2 C 102.45 14.24 102.4 24.4 102.4 24.4 L 100.3 24.4 Z M 100.3 21.3 C 100.3 21.3 100.3 18.6 100.3 18.6 C 99.6 17.4 98.4 16.7 97.2 16.7 C 95.4 16.7 94.3 18.1 94.3 19.9 C 94.3 21.7 95.4 23.2 97.2 23.2 C 98.4 23.2 99.6 22.5 100.3 21.3 Z M 105.7 6.3 C 105.7 5.5 106.3 4.8 107.1 4.8 C 107.9 4.8 108.6 5.5 108.6 6.3 C 108.6 7.1 107.9 7.8 107.1 7.8 C 106.3 7.8 105.7 7.1 105.7 6.3 Z M 106.1 24.4 L 106.1 9.9 L 108.2 9.9 L 108.2 24.4 L 106.1 24.4 Z M 119.7 24.4 C 119.7 24.4 119.7 14.06 119.7 14.1 C 119.7 12.1 118.8 11.4 117.4 11.4 C 116 11.4 114.7 12.6 114 13.8 C 114 13.76 114 24.4 114 24.4 L 111.9 24.4 L 111.9 9.9 L 114 9.9 C 114 9.9 114 11.96 114 12 C 114.8 10.7 116.5 9.5 118.2 9.5 C 120.7 9.5 121.9 10.8 121.9 13.5 C 121.86 13.46 121.9 24.4 121.9 24.4 L 119.7 24.4 Z M 125.9 21.5 C 125.94 21.47 125.9 11.8 125.9 11.8 L 124 11.8 L 124 9.9 L 125.9 9.9 L 125.9 5.9 L 128.1 5.9 L 128.1 9.9 L 130.6 9.9 L 130.6 11.8 L 128.1 11.8 C 128.1 11.8 128.1 21.08 128.1 21.1 C 128.1 22.2 128.4 22.8 129.3 22.8 C 129.8 22.8 130.3 22.6 130.5 22.2 C 130.5 22.2 131.2 23.9 131.2 23.9 C 130.7 24.4 130 24.7 128.8 24.7 C 126.9 24.7 125.9 23.6 125.9 21.5 Z M 133.9 28.2 C 133.9 28.2 132.8 27.3 132.8 27.3 C 133.8 26.6 134.6 25.5 134.8 24.5 C 134.7 24.5 134.5 24.5 134.4 24.5 C 133.6 24.5 133 23.9 133 23.1 C 133 22.2 133.6 21.5 134.5 21.5 C 135.5 21.5 136.3 22.3 136.3 23.7 C 136.3 25.5 135.3 27.2 133.9 28.2 Z M 145.2 14.4 C 145.2 8.4 148.2 4 153 4 C 156 4 157.8 5.9 158.8 7.9 C 158.8 7.9 156.9 8.9 156.9 8.9 C 156.1 7.2 154.7 6.2 153 6.2 C 149.8 6.2 147.7 9.6 147.7 14.4 C 147.7 19.1 149.8 22.6 153 22.6 C 154.8 22.6 156.1 21.3 156.9 19.6 C 156.9 19.6 158.9 20.6 158.9 20.6 C 157.8 22.8 156.1 24.7 153 24.7 C 148.2 24.7 145.2 20.4 145.2 14.4 Z M 161.5 24.4 L 161.5 9.9 L 163.6 9.9 C 163.6 9.9 163.62 12.2 163.6 12.2 C 164.5 10.7 166 9.6 167.7 9.6 C 167.7 9.6 167.7 11.8 167.7 11.8 C 167.5 11.7 167.2 11.7 167 11.7 C 165.7 11.7 164.2 12.9 163.6 14.1 C 163.62 14.09 163.6 24.4 163.6 24.4 L 161.5 24.4 Z M 169.5 6.3 C 169.5 5.5 170.2 4.8 171 4.8 C 171.8 4.8 172.4 5.5 172.4 6.3 C 172.4 7.1 171.8 7.8 171 7.8 C 170.2 7.8 169.5 7.1 169.5 6.3 Z M 169.9 24.4 L 169.9 9.9 L 172 9.9 L 172 24.4 L 169.9 24.4 Z M 190.3 24.4 C 190.3 24.4 190.34 13.88 190.3 13.9 C 190.3 12.3 189.7 11.4 188.3 11.4 C 187 11.4 185.8 12.6 185.2 13.8 C 185.18 13.76 185.2 24.4 185.2 24.4 L 183 24.4 C 183 24.4 183.02 13.88 183 13.9 C 183 12.3 182.4 11.4 181 11.4 C 179.7 11.4 178.5 12.6 177.8 13.8 C 177.83 13.76 177.8 24.4 177.8 24.4 L 175.7 24.4 L 175.7 9.9 L 177.8 9.9 C 177.8 9.9 177.83 11.96 177.8 12 C 178.4 10.9 180.1 9.5 181.8 9.5 C 183.7 9.5 184.8 10.6 185.1 12.1 C 185.8 10.8 187.4 9.5 189.1 9.5 C 191.3 9.5 192.5 10.7 192.5 13.3 C 192.5 13.31 192.5 24.4 192.5 24.4 L 190.3 24.4 Z M 195 22.7 C 195 22.7 196.1 21.2 196.1 21.2 C 196.9 22.2 198.3 23 199.9 23 C 201.5 23 202.6 22 202.6 20.7 C 202.6 17.3 195.4 18.4 195.4 13.4 C 195.4 11.3 197.2 9.5 200 9.5 C 202 9.5 203.4 10.3 204.4 11.4 C 204.4 11.4 203.4 12.9 203.4 12.9 C 202.7 11.9 201.5 11.3 200.1 11.3 C 198.5 11.3 197.5 12.2 197.5 13.4 C 197.5 16.5 204.7 15.4 204.7 20.6 C 204.7 23 202.9 24.7 199.9 24.7 C 197.8 24.7 196.2 24.1 195 22.7 Z M 206.8 17.1 C 206.8 13 208.8 9.5 212.6 9.5 C 216.5 9.5 218.5 13 218.5 17.1 C 218.5 21.2 216.5 24.7 212.6 24.7 C 208.8 24.7 206.8 21.2 206.8 17.1 Z M 216.3 17.1 C 216.3 14.2 215.2 11.4 212.6 11.4 C 210.1 11.4 209 14.2 209 17.1 C 209 20.1 210.1 22.8 212.6 22.8 C 215.2 22.8 216.3 20.1 216.3 17.1 Z M 229.3 24.4 C 229.3 24.4 229.31 14.06 229.3 14.1 C 229.3 12.1 228.4 11.4 227 11.4 C 225.6 11.4 224.3 12.6 223.6 13.8 C 223.61 13.76 223.6 24.4 223.6 24.4 L 221.5 24.4 L 221.5 9.9 L 223.6 9.9 C 223.6 9.9 223.61 11.96 223.6 12 C 224.5 10.7 226.1 9.5 227.8 9.5 C 230.3 9.5 231.5 10.8 231.5 13.5 C 231.47 13.46 231.5 24.4 231.5 24.4 L 229.3 24.4 Z M 250.5 24.4 L 246.7 16.4 L 243.8 16.4 L 243.8 24.4 L 241.4 24.4 L 241.4 4.4 C 241.4 4.4 247.52 4.37 247.5 4.4 C 250.7 4.4 253 6.7 253 10.3 C 253 13.9 251 15.6 249 16 C 249.02 16.01 253.2 24.4 253.2 24.4 L 250.5 24.4 Z M 250.6 10.4 C 250.6 8.1 249.3 6.5 247.3 6.5 C 247.25 6.47 243.8 6.5 243.8 6.5 L 243.8 14.3 C 243.8 14.3 247.25 14.27 247.3 14.3 C 249.3 14.3 250.6 12.6 250.6 10.4 Z M 254.8 17.1 C 254.8 12.9 257 9.5 260.7 9.5 C 264.5 9.5 266.4 12.9 266.4 17.2 C 266.39 17.18 266.4 17.8 266.4 17.8 C 266.4 17.8 257 17.84 257 17.8 C 257.1 20.7 258.6 22.9 261.2 22.9 C 262.4 22.9 263.7 22.3 264.6 21.2 C 264.6 21.2 265.8 22.4 265.8 22.4 C 264.6 23.9 262.9 24.7 261 24.7 C 257.1 24.7 254.8 21.6 254.8 17.1 Z M 260.6 11.3 C 258.1 11.3 257.1 14.1 257 16.2 C 257 16.2 264.3 16.2 264.3 16.2 C 264.2 14 263.3 11.3 260.6 11.3 Z M 277.5 24.4 C 277.5 24.4 277.52 22.31 277.5 22.3 C 276.7 23.8 275.2 24.7 273.7 24.7 C 270.5 24.7 268.5 21.7 268.5 17.1 C 268.5 12.6 270.4 9.5 273.7 9.5 C 275.2 9.5 276.7 10.4 277.5 12 C 277.52 11.99 277.5 4.4 277.5 4.4 L 279.7 4.4 L 279.7 24.4 L 277.5 24.4 Z M 277.5 20.5 C 277.5 20.5 277.5 13.8 277.5 13.8 C 277 12.6 275.6 11.4 274.3 11.4 C 271.9 11.4 270.8 14 270.8 17.1 C 270.8 20.3 271.9 22.8 274.3 22.8 C 275.6 22.8 277 21.7 277.5 20.5 Z " stroke="none" fill="#d3d2d2"/>  </g></svg>