<?xml version="1.0" standalone="no"?><!DOCTYPE svg PUBLIC "-//W3C//DTD SVG 1.1//EN" "http://www.w3.org/Graphics/SVG/1.1/DTD/svg11.dtd"><svg xmlns="http://www.w3.org/2000/svg" version="1.1" width="651px" height="85.6px" viewBox="0 0 651 85.6">  <desc>Browned Packing Foam</desc>  <defs/>  <g id="Polygon191953">    <path d="M 3.1 47.4 L 3.1 7.4 C 3.1 7.4 15.18 7.38 15.2 7.4 C 21.8 7.4 24.8 12.1 24.8 17.6 C 24.8 22.6 22.4 25.7 18.9 26.8 C 22.7 27.4 25.3 31.7 25.3 36.6 C 25.3 42.7 22.5 47.4 15.6 47.4 C 15.6 47.4 3.1 47.4 3.1 47.4 Z M 17 18.9 C 17 16 16 14 13.2 14 C 13.2 14.04 10.7 14 10.7 14 L 10.7 23.7 C 10.7 23.7 13.2 23.7 13.2 23.7 C 16 23.7 17 21.8 17 18.9 Z M 17.6 35.5 C 17.6 32.6 16.3 30.4 13.4 30.4 C 13.44 30.36 10.7 30.4 10.7 30.4 L 10.7 40.7 C 10.7 40.7 13.44 40.74 13.4 40.7 C 16.3 40.7 17.6 38.9 17.6 35.5 Z M 29.9 47.4 L 29.9 18.4 L 36.7 18.4 C 36.7 18.4 36.66 22.44 36.7 22.4 C 37.8 19.8 40.6 17.7 43.1 17.7 C 43.1 17.7 43.1 24.4 43.1 24.4 C 42.7 24.2 42.2 24.2 41.8 24.2 C 39.8 24.2 37.8 25.8 36.7 27.9 C 36.66 27.9 36.7 47.4 36.7 47.4 L 29.9 47.4 Z M 45.5 32.9 C 45.5 24.8 48.8 17.7 56.4 17.7 C 64 17.7 67.3 24.8 67.3 32.9 C 67.3 40.9 64 48.1 56.4 48.1 C 48.8 48.1 45.5 40.9 45.5 32.9 Z M 60.3 32.9 C 60.3 28 59.5 23.7 56.4 23.7 C 53.4 23.7 52.6 28 52.6 32.9 C 52.6 37.9 53.4 42.1 56.4 42.1 C 59.5 42.1 60.3 37.9 60.3 32.9 Z M 91.3 47.4 L 87.2 27.7 L 83 47.4 L 75.9 47.4 L 69.2 18.4 L 76.3 18.4 L 79.9 38.2 L 83.7 18.4 L 90.2 18.4 L 94.3 38.2 L 98 18.4 L 105.1 18.4 L 98.4 47.4 L 91.3 47.4 Z M 121.1 47.4 C 121.1 47.4 121.08 26.76 121.1 26.8 C 121.1 24.7 120.4 23.7 118.9 23.7 C 117.1 23.7 115.6 25.6 115 27.5 C 114.96 27.48 115 47.4 115 47.4 L 108.2 47.4 L 108.2 18.4 L 115 18.4 C 115 18.4 114.96 22.2 115 22.2 C 116.1 19.9 119.1 17.7 121.7 17.7 C 126.1 17.7 127.9 20.3 127.9 24.3 C 127.92 24.3 127.9 47.4 127.9 47.4 L 121.1 47.4 Z M 132.2 32.9 C 132.2 24.5 135.8 17.7 143.1 17.7 C 150.4 17.7 153.5 24.2 153.5 32.8 C 153.48 32.76 153.5 35.1 153.5 35.1 C 153.5 35.1 138.78 35.1 138.8 35.1 C 138.8 39.4 140.6 42.6 144.5 42.6 C 146.1 42.6 148 41.5 149.3 39.7 C 149.3 39.7 152.6 43.5 152.6 43.5 C 150.3 46.4 147.1 48.1 143.8 48.1 C 136.2 48.1 132.2 41.8 132.2 32.9 Z M 142.9 23.2 C 139.6 23.2 138.8 27.3 138.8 30.4 C 138.8 30.4 146.9 30.4 146.9 30.4 C 146.9 27.1 146.2 23.2 142.9 23.2 Z M 170.7 47.4 C 170.7 47.4 170.7 43.8 170.7 43.8 C 169.4 46.7 167.1 48.1 165.1 48.1 C 159.4 48.1 156.5 42.2 156.5 32.9 C 156.5 23.8 159.4 17.7 165.1 17.7 C 167.1 17.7 169.5 19 170.7 22 C 170.7 22.02 170.7 7.4 170.7 7.4 L 177.5 7.4 L 177.5 47.4 L 170.7 47.4 Z M 170.7 38.6 C 170.7 38.6 170.7 27.2 170.7 27.2 C 170.1 25.3 168.7 23.7 167.3 23.7 C 164.3 23.7 163.4 27.8 163.4 32.9 C 163.4 38 164.3 42.1 167.3 42.1 C 168.7 42.1 170.1 40.6 170.7 38.6 Z M 193.1 47.4 L 193.1 7.4 C 193.1 7.4 203.94 7.38 203.9 7.4 C 211.7 7.4 215.2 13.3 215.2 20 C 215.2 26.8 211.7 32.7 203.9 32.7 C 203.94 32.7 200.7 32.7 200.7 32.7 L 200.7 47.4 L 193.1 47.4 Z M 207.5 20 C 207.5 16.4 206 14 203.2 14 C 203.16 14.04 200.7 14 200.7 14 L 200.7 26 C 200.7 26 203.16 26.04 203.2 26 C 206 26 207.5 23.6 207.5 20 Z M 230.9 47.4 C 230.9 47.4 230.94 44.64 230.9 44.6 C 229.7 46.9 227 48.1 224.9 48.1 C 220.3 48.1 217 44.4 217 38.5 C 217 32.6 220.3 29 224.9 29 C 227 29 229.7 30.1 230.9 32.3 C 230.9 32.3 230.9 28.7 230.9 28.7 C 230.9 25.4 229.6 23.5 226.6 23.5 C 224.6 23.5 222.6 24.4 220.7 26.3 C 220.7 26.3 218.2 21.5 218.2 21.5 C 220.8 18.7 224.9 17.7 227.9 17.7 C 233.9 17.7 237.7 20.7 237.7 27.2 C 237.72 27.18 237.7 47.4 237.7 47.4 L 230.9 47.4 Z M 230.9 40.6 C 230.9 40.6 230.9 36.7 230.9 36.7 C 230.2 34.9 228.8 33.7 227.3 33.7 C 224.9 33.7 223.8 35.8 223.8 38.6 C 223.8 41.3 224.9 43.6 227.3 43.6 C 228.8 43.6 230.2 42.4 230.9 40.6 Z M 242.1 32.9 C 242.1 24.1 246.2 17.7 253.1 17.7 C 256.4 17.7 258.8 18.9 260.2 20.3 C 260.2 20.3 258 25.6 258 25.6 C 256.8 24.3 255.7 23.7 254.3 23.7 C 250.8 23.7 249.1 27.8 249.1 32.9 C 249.1 37.9 250.8 42.1 254.3 42.1 C 255.7 42.1 256.8 41.5 258 40.3 C 258 40.3 260.2 45.5 260.2 45.5 C 258.8 47 256.4 48.1 253.1 48.1 C 246.2 48.1 242.1 41.7 242.1 32.9 Z M 277.6 47.4 L 273.3 35.8 L 270.7 40.6 L 270.7 47.4 L 263.9 47.4 L 263.9 7.4 L 270.7 7.4 L 270.7 31.8 L 277.3 18.4 L 284.7 18.4 L 277.8 31.3 L 285 47.4 L 277.6 47.4 Z M 287.3 10.9 C 287.3 8.6 289.2 6.8 291.4 6.8 C 293.7 6.8 295.6 8.6 295.6 10.9 C 295.6 13.2 293.7 15 291.4 15 C 289.2 15 287.3 13.2 287.3 10.9 Z M 288.1 47.4 L 288.1 18.4 L 294.8 18.4 L 294.8 47.4 L 288.1 47.4 Z M 313.2 47.4 C 313.2 47.4 313.2 26.76 313.2 26.8 C 313.2 24.7 312.5 23.7 311 23.7 C 309.2 23.7 307.7 25.6 307.1 27.5 C 307.08 27.48 307.1 47.4 307.1 47.4 L 300.3 47.4 L 300.3 18.4 L 307.1 18.4 C 307.1 18.4 307.08 22.2 307.1 22.2 C 308.2 19.9 311.2 17.7 313.9 17.7 C 318.2 17.7 320 20.3 320 24.3 C 320.04 24.3 320 47.4 320 47.4 L 313.2 47.4 Z M 325.4 56 C 325.4 56 327.7 50.5 327.7 50.5 C 329.4 52.2 331.4 53.3 333.7 53.3 C 336.5 53.3 338.6 51.4 338.6 46.9 C 338.6 46.9 338.6 42.7 338.6 42.7 C 337.3 45.7 335 47.2 332.9 47.2 C 327.2 47.2 324.4 41.8 324.4 32.5 C 324.4 23.3 327.2 17.7 332.9 17.7 C 335 17.7 337.4 19 338.6 22 C 338.58 22.02 338.6 18.4 338.6 18.4 L 345.4 18.4 C 345.4 18.4 345.36 46.44 345.4 46.4 C 345.4 56.4 340 59.2 334.4 59.2 C 330.8 59.2 327.8 58.3 325.4 56 Z M 338.6 37.7 C 338.6 37.7 338.6 27.2 338.6 27.2 C 338 25.3 336.6 23.7 335.2 23.7 C 332.2 23.7 331.3 27.4 331.3 32.5 C 331.3 37.6 332.2 41.2 335.2 41.2 C 336.6 41.2 338 39.6 338.6 37.7 Z M 361 47.4 L 361 7.4 L 378.5 7.4 L 378.5 14 L 368.6 14 L 368.6 23.7 L 378.1 23.7 L 378.1 30.4 L 368.6 30.4 L 368.6 47.4 L 361 47.4 Z M 382.1 32.9 C 382.1 24.8 385.4 17.7 392.9 17.7 C 400.6 17.7 403.9 24.8 403.9 32.9 C 403.9 40.9 400.6 48.1 392.9 48.1 C 385.4 48.1 382.1 40.9 382.1 32.9 Z M 396.8 32.9 C 396.8 28 396 23.7 392.9 23.7 C 389.9 23.7 389.1 28 389.1 32.9 C 389.1 37.9 389.9 42.1 392.9 42.1 C 396 42.1 396.8 37.9 396.8 32.9 Z M 420.8 47.4 C 420.8 47.4 420.83 44.64 420.8 44.6 C 419.6 46.9 416.9 48.1 414.8 48.1 C 410.2 48.1 406.9 44.4 406.9 38.5 C 406.9 32.6 410.2 29 414.8 29 C 416.9 29 419.6 30.1 420.8 32.3 C 420.8 32.3 420.8 28.7 420.8 28.7 C 420.8 25.4 419.5 23.5 416.5 23.5 C 414.5 23.5 412.5 24.4 410.6 26.3 C 410.6 26.3 408.1 21.5 408.1 21.5 C 410.7 18.7 414.8 17.7 417.8 17.7 C 423.8 17.7 427.6 20.7 427.6 27.2 C 427.61 27.18 427.6 47.4 427.6 47.4 L 420.8 47.4 Z M 420.8 40.6 C 420.8 40.6 420.8 36.7 420.8 36.7 C 420.1 34.9 418.7 33.7 417.2 33.7 C 414.8 33.7 413.7 35.8 413.7 38.6 C 413.7 41.3 414.8 43.6 417.2 43.6 C 418.7 43.6 420.1 42.4 420.8 40.6 Z M 459 47.4 C 459 47.4 458.99 26.76 459 26.8 C 459 24.6 458.2 23.7 456.8 23.7 C 454.9 23.7 453.5 25.7 452.9 27.5 C 452.87 27.48 452.9 47.4 452.9 47.4 L 446 47.4 C 446 47.4 446.03 26.76 446 26.8 C 446 24.8 445.4 23.7 443.8 23.7 C 442 23.7 440.5 25.7 439.9 27.5 C 439.91 27.48 439.9 47.4 439.9 47.4 L 433.1 47.4 L 433.1 18.4 L 439.9 18.4 C 439.9 18.4 439.91 22.2 439.9 22.2 C 440.9 20 443.9 17.7 446.7 17.7 C 449.8 17.7 452.2 19.2 452.6 22.5 C 453.7 20.1 456.8 17.7 459.7 17.7 C 463.3 17.7 465.8 19.6 465.8 24.3 C 465.77 24.3 465.8 47.4 465.8 47.4 L 459 47.4 Z " stroke="none" fill="#b13d24"/>  </g></svg>